<?xml version="1.0" encoding="UTF-8" standalone="no"?>
<svg
   xmlns:dc="http://purl.org/dc/elements/1.1/"
   xmlns:cc="http://creativecommons.org/ns#"
   xmlns:rdf="http://www.w3.org/1999/02/22-rdf-syntax-ns#"
   xmlns:svg="http://www.w3.org/2000/svg"
   xmlns="http://www.w3.org/2000/svg"
   width="500"
   height="552"
   viewBox="0 0 132.29166 146.05"
   version="1.1"
   id="svg847">
  <defs
     id="defs841" />
  <metadata
     id="metadata844">
    <rdf:RDF>
      <cc:Work
         rdf:about="">
        <dc:format>image/svg+xml</dc:format>
        <dc:type
           rdf:resource="http://purl.org/dc/dcmitype/StillImage" />
        <dc:title></dc:title>
      </cc:Work>
    </rdf:RDF>
  </metadata>
  <path
     id="path844"
     style="fill:#045cd2;fill-opacity:1;fill-rule:evenodd;stroke:none;stroke-width:0.264584;stroke-miterlimit:4;stroke-dasharray:none;paint-order:normal"
     d="M 0,0 V 79.904416 C 0,116.43581 29.614696,146.05 66.146089,146.05 c 36.531391,0 66.145581,-29.61419 66.145581,-66.145584 V 0 Z" />
  <g
     id="g1008"
     style="stroke-width:1.03662;stroke-miterlimit:5;stroke-dasharray:none"
     transform="matrix(0.96479624,0,0,0.96479624,-34.26737,-41.599144)">
    <path
       id="path851"
       style="font-variation-settings:normal;opacity:1;vector-effect:none;fill:#c7c7c7;fill-opacity:1;stroke:none;stroke-width:3.91793;stroke-linecap:butt;stroke-linejoin:miter;stroke-miterlimit:5;stroke-dasharray:none;stroke-dashoffset:0;stroke-opacity:1;stop-color:#000000;stop-opacity:1"
       d="m 587.72349,213.48214 c -21.96431,5.625 -34.55606,10.69065 -47.24609,18.4562 -12.69007,7.76555 -18.87137,14.1234 -20.9548,21.88895 -2.08342,7.76555 -5.80596,14.94343 -13.76088,22.70898 -7.95496,7.76555 -14.33929,12.58008 -14.33929,12.58008 -2.77792,-8.27061 -7.0067,-10.13393 -7.0067,-10.13393 -2.46225,-5.68211 -5.49218,-5.68164 -5.49218,-5.68164 -2.46225,-5.1139 -6.06055,-5.33734 -6.06055,-5.33734 -1.70464,-4.92449 -6.28264,-7.44224 -6.28264,-7.44224 -2.08346,-5.3033 -7.44224,-7.84402 -7.44224,-7.84402 -3.03046,-5.49271 -7.7101,-8.52344 -7.7101,-8.52344 -4.16693,-5.6821 -9.15097,-9.33147 -11.02596,-10.13504 -1.87495,-0.80358 -2.75362,-0.9269 -2.75362,-0.9269 -9.82126,-12.09493 -17.9999,-20.27174 -25.19141,-20.64453 5.77198,6.02995 13.47073,16.77018 15.53125,26.70703 -9.76389,-18.99871 -27.0123,-35.57842 -44.69922,-39.39649 9.38321,8.11751 26.67043,20.18643 31.0625,39.96485 0,0 -12.0219,-17.15367 -24.46958,-27.4975 -12.44765,-10.34382 -22.88176,-14.93052 -29.51089,-14.74113 -6.62912,0.1894 -7.76562,1.13706 -7.76562,1.13706 18.44078,3.96979 35.31901,17.74208 43.12109,36.17579 -22.42251,-21.722 -43.6184,-32.69708 -52.52036,-33.0759 -8.90197,-0.37879 -9.96847,0.49972 -9.96847,0.49972 4.16687,2.46225 8.46957,1.21604 20.07617,9.71373 11.6066,8.49769 18.92529,15.59625 30.52678,29.06669 11.68739,13.57017 13.34119,17.62074 23.07143,23.55161 9.99058,6.08956 19.62364,5.75088 25.11635,8.02372 5.49271,2.27285 8.91173,6.55105 14.97266,8.63449 6.06092,2.08344 9.40346,8.5039 9.40346,8.5039 -14.87925,1.29431 -29.25813,3.9708 -41.73631,4.68135 -20.62247,1.17431 -26.90166,0.95413 -38.82843,-2.63893 -11.92676,-3.59311 -16.55951,-5.14989 -21.91294,-3.83231 -5.00169,1.23101 -10.15312,5.78518 -14.77427,7.63364 -19.22811,0.21978 -39.95936,0.93153 -50.62557,4.79939 0,0 0.50177,1.20426 9.40375,2.34069 8.90196,1.13641 33.80153,1.16965 43.08231,2.30607 17.23572,6.62913 27.3846,5.32723 42.72628,4.0014 15.34171,-1.32582 43.90961,-1.57221 62.09235,1.83706 18.18274,3.40926 30.80296,14.16084 47.65988,20.03235 16.85692,5.87151 39.11598,1.23153 55.86524,10.00447 16.74925,8.77294 27.63429,10.50511 36.976,12.04464 9.3417,1.53954 15.13923,1.85994 15.13923,1.85994 -7.06736,-4.892 -12.55218,-6.66155 -12.55218,-6.66155 9.32497,-2.1528 14.27604,-3.36767 14.27818,-3.35268 -5.21469,-2.63923 -7.84554,-1.76504 -13.14341,-4.97935 8.77756,-2.98845 10.27929,-5.08898 10.27929,-5.08898 -7.19732,-0.37881 -20.84016,2.50962 -29.68917,-1.57453 -8.84893,-4.08415 -19.92997,-13.75251 -19.92997,-13.75251 8.16966,-1.74105 12.05246,-4.15179 12.05246,-4.15179 -9.37501,-2.14286 -18.07979,-6.83064 -24.10659,-12.72349 -6.02676,-5.89286 -11.35909,-6.57143 -11.35909,-6.57143 1.06972,-1.32926 1.67104,-2.93806 1.67104,-2.93806 4.35267,-2.74554 4.55468,-5.22265 4.55468,-5.22265 9.5089,-3.21429 10.04493,-7.76758 10.04493,-7.76758 4.68751,-2.8125 5.49023,-5.89258 5.49023,-5.89258 7.36605,-2.67857 8.79409,-6.38476 8.79409,-6.38476 0,0 10.75923,-0.45808 18.08063,-3.48214 7.32143,-3.02407 12.45536,-9.5081 12.45536,-9.5081 0,0 -7.76809,4.189 -17.28599,4.6317 -9.51784,0.44269 -11.90932,-2.48912 -11.90932,-2.48912 0,0 12.40403,0.36409 29.02901,-5.68136 16.62498,-6.04546 19.45145,-15.21122 19.45145,-15.21122 0,0 -11.86248,7.86957 -24.64117,10.04492 -12.51145,2.12986 -19.80804,0.01 -19.80804,0.01 0,0 22.25443,-3.27148 38.05804,-12.37863 15.80356,-9.10713 16.03571,-18.56864 16.03571,-18.56864 0,0 -5.39107,7.68017 -23.03711,14.06279 -17.92649,6.48404 -24.10743,4.68721 -24.10743,4.68721 11.24999,-5.49107 29.19698,-11.25029 40.71485,-20.08956 7.41654,-5.69175 11.93665,-12.14116 12.87792,-15.79032 0,0 -14.08274,9.89718 -36.04701,15.52218 z m -38.87862,111.29827 c 9.09289,4.04314 15.15668,12.8548 24.02734,17.24944 -13.95859,-1.40166 -21.98403,-6.05699 -30.40151,-10.16322 l 9.30414,-0.40179 c 0,0 -1.22533,-4.03277 -2.92997,-6.68443 z"
       transform="scale(0.26458333)" />
    <path
       id="path959"
       style="font-variation-settings:normal;opacity:1;vector-effect:none;fill:#4d4d4d;fill-opacity:1;stroke:none;stroke-width:3.91793;stroke-linecap:butt;stroke-linejoin:miter;stroke-miterlimit:5;stroke-dasharray:none;stroke-dashoffset:0;stroke-opacity:1;stop-color:#000000;stop-opacity:1"
       d="m 331.89844,202.2207 c 4.16687,2.46225 8.46957,1.34997 20.07617,9.84766 11.6066,8.49769 19.46101,16.26589 31.0625,29.73633 11.68739,13.57017 15.08226,18.69217 24.8125,24.62304 9.99058,6.08956 17.61471,4.54552 23.10742,6.81836 5.49271,2.27285 9.84923,6.81891 15.91016,8.90235 6.06092,2.08344 8.33203,6.6289 8.33203,6.6289 l 1.50781,-0.11914 c 0.33543,-6.07362 -17.26054,-11.28232 -22.1582,-15.88086 -10.59356,-4.38943 -23.48177,-3.58009 -32.06836,-12.58203 -17.87278,-17.65069 -32.36824,-39.94817 -54.25781,-52.96289 -2.24617,-1.33548 -8.41803,-5.21256 -16.32422,-5.01172 z"
       transform="scale(0.26458333)" />
    <path
       id="path887"
       style="font-variation-settings:normal;opacity:1;vector-effect:none;fill:#4d4d4d;fill-opacity:1;stroke:none;stroke-width:3.91793;stroke-linecap:butt;stroke-linejoin:miter;stroke-miterlimit:5;stroke-dasharray:none;stroke-dashoffset:0;stroke-opacity:1;stop-color:#000000;stop-opacity:1"
       d="m 290.26758,300.63086 -1.96875,0.55469 c 1.62768,0.69373 4.27886,1.50222 8.56055,2.04883 8.90195,1.1364 34.47117,1.70537 43.75195,2.84179 17.23572,6.62913 27.65246,4.92544 42.99414,3.59961 15.34171,-1.32582 43.3739,-1.70614 61.55664,1.70313 18.18274,3.40926 32.00831,14.96442 48.86523,20.83593 16.85692,5.87151 38.17848,0.69581 54.92774,9.46875 16.74925,8.77294 29.10751,10.77297 38.44922,12.3125 9.3417,1.53954 16.47851,1.32422 16.47851,1.32422 -0.70796,-0.62627 -1.52801,-1.21764 -2.40234,-1.77734 -16.78331,-1.53707 -35.09838,-4.5068 -46.46485,-10.64649 -11.99206,-6.47762 -21.32532,-9.27456 -37.45703,-9.25 -14.98235,0.0229 -27.28994,-3.1094 -44.39453,-13.42968 -17.10459,-10.32028 -36.75579,-12.49176 -63.54297,-13.30469 -26.78713,-0.81294 -43.00277,7.26411 -66.6688,-1.90123 1.47795,-0.75477 3.89202,-2.14886 5.36998,-3.97182 l -3.47461,0.55664 -5.31446,2.73828 c -16.0833,-2.63988 -33.57465,-0.34554 -49.26562,-3.70312 z m 272.24414,13.42969 c -1.95396,1.45193 -4.98082,2.5483 -7.84375,2.74804 -4.07218,0.28411 -6.81824,0.18966 -6.43945,0.94727 0.37882,0.75761 2.48632,1.61914 2.48632,1.61914 10.84823,0.13395 14.19532,-4.6875 14.19532,-4.6875 -0.79229,-0.1811 -1.59417,-0.3963 -2.39844,-0.62695 z m -12.86328,11.52343 c 8.15539,4.71278 12.34418,11.51552 21.21484,15.91016 l 5.57422,2.38477 c -3.88653,-2.43115 -8.8393,-5.98405 -13.23047,-9.52149 -4.39113,-3.53744 -10.80906,-10.51943 -16.06445,-11.14258 0.74097,0.74255 1.29614,1.39221 2.50586,2.36914 z m 3.59961,6.81836 c 0,0 -1.68526,-1.73298 -2.89063,-1.82226 -1.20537,-0.0893 -8.43721,-0.62529 -9.64258,-0.35742 -1.20536,0.26785 -1.30917,1.14452 3.63086,2.17968 z m 47.6914,1.48243 c -0.193,4.5e-4 -0.40553,0.0101 -0.60547,0.0137 -5.03912,4.2762 -12.47656,3.87492 -12.47656,4.49414 0,0.66964 2.19727,1.39844 2.19727,1.39844 9.84899,-1.51524 12.3125,-5.87305 12.3125,-5.87305 -0.44983,-0.0237 -0.92717,-0.0344 -1.42774,-0.0332 z m 1.37305,9.70898 c -9.24357,2.8257 -12.91201,1.6872 -14.05273,2.70117 -1.20537,1.07143 0.66015,1.82813 0.66015,1.82813 9.65957,0.18939 16.28711,-3.21875 16.28711,-3.21875 -0.98371,-0.54075 -1.94345,-0.94917 -2.89453,-1.31055 z M 352.63795,301.84621 c 0,0 1.04172,1.98874 3.31456,2.46225 2.27284,0.47351 6.31728,-1.75535 7.07489,-3.27058 0.75762,-1.51523 -2.62391,-3.73735 -3.57092,-3.54795 -0.94702,0.1894 0.1894,1.70463 0.1894,1.70463 0,0 -0.52898,1.60321 -1.98874,2.17814 -0.85707,-0.16166 -1.52671,0.0717 -2.27284,0.47351 -1.28184,-0.33482 -1.57546,-1.48273 -1.57546,-1.48273 z"
       transform="scale(0.26458333)" />
    <path
       id="path933"
       style="font-variation-settings:normal;opacity:1;vector-effect:none;fill:#ffffff;fill-opacity:1;stroke:none;stroke-width:3.91793;stroke-linecap:butt;stroke-linejoin:miter;stroke-miterlimit:5;stroke-dasharray:none;stroke-dashoffset:0;stroke-opacity:1;stop-color:#000000;stop-opacity:1"
       d="m 439.50275,235.4072 c 0.26797,-0.80357 6.92242,2.23165 12.03631,10.376 0,0 3.97744,1.89427 7.38672,8.33399 0,0 3.59693,1.1366 8.33203,8.14453 0,0 3.41068,1.51486 5.49414,6.06055 0,0 3.59845,0.94674 6.62891,6.43945 0,0 2.46164,0.757 5.11328,5.11328 0,0 3.15769,1.95819 6.125,8.83984 -13.81784,-1.1515 -25.27934,-0.8196 -35.41992,0.0625 -14.87925,1.29431 -26.91635,3.77188 -39.39453,4.48243 -20.62247,1.17431 -28.03808,0.75126 -39.96485,-2.8418 -11.92676,-3.59311 -17.63094,-4.88203 -22.98437,-3.56445 -5.00169,1.23101 -10.28705,5.91911 -14.9082,7.76757 -19.22811,0.21978 -41.29864,1.33332 -51.96485,5.20118 0,0 0.56279,0.6169 2.32617,1.36718 1.1062,-0.32296 1.95899,-0.55859 1.95899,-0.55859 14.63798,-3.01295 32.12888,-3.26148 47.01758,-3.60742 2.37978,0.75172 4.63103,2.02142 6.65429,4.19922 0.862,0.69042 2.47809,0.90564 4.38282,-0.1836 -1.0768,-2.47733 -3.70887,-3.9175 -5.75,-5.75195 8.41342,-5.25159 13.7883,-10.64134 32.85351,-2.94727 19.06522,7.69408 59.6625,0.46376 73.83399,-0.86914 14.17149,-1.3329 26.96429,-1.68353 39.84375,-1.49414 0,0 -5.42578,4.27521 -10.05079,6.03711 -4.62497,1.76189 -9.76757,1.84375 -9.76757,1.84375 0,0 2.11826,1.28544 7.54687,0.26758 5.42857,-1.01786 13.20463,-6.64913 18.37695,-10.65625 5.17236,-4.00712 15.04813,-13.0595 20.25,-20.21875 5.20184,-7.15925 1.15716,-12.05524 13.92969,-25.62109 8.1473,-8.65338 29.02339,-17.68164 42.57617,-22.07422 12.97662,-4.20584 28.1799,-5.32744 51.80664,-21.59571 0.5036,-1.97997 0.51368,-3.22656 0.51368,-3.22656 0,0 -12.58847,11.51758 -34.55274,17.14258 -21.96431,5.625 -37.36856,11.49422 -50.05859,19.25977 -12.69007,7.76555 -20.07673,16.66804 -22.16016,24.43359 -2.08342,7.76555 -4.73453,13.06843 -12.68945,20.83398 -7.95496,7.76555 -13,11.64258 -13,11.64258 -2.77792,-8.27061 -7.14063,-10 -7.14063,-10 -2.46225,-5.68211 -5.49218,-5.68164 -5.49218,-5.68164 -2.46225,-5.1139 -6.06055,-5.87305 -6.06055,-5.87305 -1.70464,-4.92449 -6.81836,-7.57617 -6.81836,-7.57617 -2.08346,-5.3033 -7.57617,-7.57617 -7.57617,-7.57617 -3.03046,-5.49271 -7.57617,-8.52344 -7.57617,-8.52344 -4.16693,-5.6821 -9.55275,-9.06361 -11.42774,-9.86718 -1.87495,-0.80358 -2.08398,0.14453 -2.08398,0.14453 -8.53663,-13.89341 -17.60174,-20.82916 -25.19141,-20.64453 8.36285,2.79536 17.58389,12.17207 26.08594,25.25195 0,0 0.44852,-1.4363 -0.89454,-4.60742 z m -79.13166,-39.249 c -6.62912,0.1894 -7.76562,2.46289 -7.76562,2.46289 22.90292,-3.5919 45.22838,20.15792 57.63672,38.42774 2.63648,3.88191 4.40418,4.46927 4.10937,2.67383 0,0 -10.28083,-17.68938 -22.72851,-28.03321 -12.44765,-10.34382 -24.62283,-15.72064 -31.25196,-15.53125 z m 22.91797,3.59961 c 25.87367,10.59493 35.13081,25.16244 41.53711,36.70703 1.53252,2.76175 2.71431,4.3468 3.16211,2.68946 -8.82293,-20.12786 -26.16865,-36.5908 -44.69922,-39.39649 z m -41.80859,0.71485 c -7.58459,-0.0832 -9.58203,1.74804 -9.58203,1.74804 26.61835,0.0642 46.85926,17.67548 59.97656,30.9375 2.93492,2.96726 4.28991,3.14027 3.85156,1.63868 -18.94037,-23.86486 -43.75233,-33.90244 -52.65429,-34.28126 -0.55638,-0.0237 -1.08616,-0.0374 -1.5918,-0.043 z m 275.8418,14.61718 c 0,0 -5.39107,6.47481 -23.03711,12.85743 -17.92649,6.48404 -24.10743,5.89257 -24.10743,5.89257 0.54743,1.42119 3.62355,1.46873 7.91407,0.95508 13.12237,-1.57099 33.54224,-9.15456 39.23047,-19.70508 z m -9.64454,20.89258 c 0,0 -11.32677,6.93207 -24.10546,9.10742 -12.51145,2.12986 -20.34375,0.94727 -20.34375,0.94727 0.35886,1.13645 2.66674,2.17852 8.45312,2.47461 5.78638,0.2961 28.88057,-2.76456 35.99609,-12.5293 z m -19.28515,18.75 c 0,0 -6.96452,3.38543 -16.48242,3.82813 -9.51784,0.44269 -12.71289,-1.68555 -12.71289,-1.68555 -0.53352,1.81426 0.86942,2.84034 4.42187,3.22852 6.41582,0.70104 18.25258,0.93223 24.77344,-5.3711 z m -235.75463,47.11379 c 0,0 2.13891,0.40179 1.6654,-0.63993 -0.47351,-1.04172 -0.81309,-2.01172 0.79684,-2.57993 1.60993,-0.56821 3.31457,1.04172 4.54569,0.56821 1.23112,-0.47351 1.60993,-2.08344 -2.17814,-2.65165 -3.78807,-0.56821 -6.53443,2.17814 -6.43972,3.59867 0.0947,1.42053 1.60993,1.70463 1.60993,1.70463 z"
       transform="scale(0.26458333)" />
    <path
       id="path873"
       style="font-variation-settings:normal;opacity:1;vector-effect:none;fill:#ffffff;fill-opacity:1;stroke:none;stroke-width:3.91793;stroke-linecap:butt;stroke-linejoin:miter;stroke-miterlimit:5;stroke-dasharray:none;stroke-dashoffset:0;stroke-opacity:1;stop-color:#000000;stop-opacity:1"
       d="m 527.9043,295.39258 -2.69141,1.90262 c 18.29296,6.41905 16.03442,12.96724 34.32227,17.99191 0,0 0.19061,0.0854 0.53906,0.1582 0.90941,-0.40177 1.74341,-0.86901 2.4375,-1.38476 -8.71252,-2.49858 -17.93175,-7.77313 -23.44922,-13.16797 -4.42433,-4.32603 -8.34553,-5.25598 -10.12891,-5.44922 z m 22.81054,23.98242 c -1.77891,0.29277 -0.39223,1.42497 0.82412,2.34389 7.09929,5.36189 14.6367,10.75279 21.74229,13.80455 8.01785,3.44356 20.8079,0.70252 29.08594,-1.60547 -7.19732,-0.37881 -21.26623,2.75798 -30.11524,-1.32617 -8.84893,-4.08415 -21.53711,-13.2168 -21.53711,-13.2168 z m -3.57226,3.83984 c 1.07142,4.55357 2.41128,6.56167 3.21484,7.36524 0.80357,0.80357 2.89063,1.82226 2.89063,1.82226 0,0 -1.89497,-4.1667 -3.59961,-6.81836 -1.51227,-1.51424 -2.50586,-2.36914 -2.50586,-2.36914 z m -7.0625,8.17774 c 3.74921,2.48528 10.78503,5.72233 16.72656,8.13867 5.94153,2.41634 12.30474,4.29444 19.63086,4.34766 -1.37556,-0.76304 -3.17857,-1.64676 -5.57422,-2.38477 -13.15502,-2.07131 -17.69831,-6.05699 -26.51758,-9.0918 -3.06504,-0.58873 -4.26562,-1.00976 -4.26562,-1.00976 z m 49.97461,8.39844 c 0,0 -0.50139,1.14565 0.83789,1.94921 1.16429,0.69856 8.06034,2.81209 11.66211,1.94532 -4.18055,-1.63866 -8.1168,-1.87879 -12.5,-3.89453 z m -1.13477,8.33203 c 0,0 -0.30335,1.3856 2.10742,2.45703 2.22271,0.98787 7.17241,3.33461 10.45118,2.96094 -5.20726,-3.33265 -12.5586,-5.41797 -12.5586,-5.41797 z"
       transform="scale(0.26458333)" />
    <path
       id="path875"
       style="font-variation-settings:normal;opacity:1;vector-effect:none;fill:#4d4d4d;fill-opacity:1;stroke:none;stroke-width:3.91793;stroke-linecap:butt;stroke-linejoin:miter;stroke-miterlimit:5;stroke-dasharray:none;stroke-dashoffset:0;stroke-opacity:1;stop-color:#000000;stop-opacity:1"
       d="m 623.76953,197.96094 c -14.58056,20.77337 -32.99964,26.00125 -51.0957,32.45312 -1.18938,0.42405 -3.71125,1.92513 -2.4961,3.42578 12.05356,-3.48214 31.072,-11.51813 42.58985,-20.35742 7.45849,-5.72394 10.07558,-11.88107 11.00195,-15.52148 z m -6.44726,17.1289 c -6.41598,18.10674 -32.48058,24.04519 -50.65625,28.35743 -3.13335,0.74338 -3.4375,2.58984 -3.4375,2.58984 0,0 23.72764,-2.60184 39.53125,-11.70899 15.80356,-9.10712 14.5625,-19.23828 14.5625,-19.23828 z m -9.64454,20.89258 c -7.55455,13.45324 -28.14716,18.62454 -44.39062,19.04102 -5.50662,0.14119 -8.07075,0.85634 -4.08984,1.85156 0,0 11.60939,1.76101 30.23437,-5.01172 18.62498,-6.77273 18.24609,-15.88086 18.24609,-15.88086 z m -19.28515,18.75 c -7.02921,8.53547 -23.3329,13.82392 -45.46094,10.90625 0,0 3.00557,2.75391 13.58594,2.75391 0,0 -1.87416,3.88421 -9.24024,4.41992 -7.36607,0.53571 -12.58984,-0.80273 -12.58984,-0.80273 0,0 2.45539,3.70479 14.375,2.09765 7.76784,-0.9375 9.59766,-5.44726 9.59766,-5.44726 0,0 8.16102,0.51319 18.48242,-3.75 10.32143,-4.2632 11.25,-10.17774 11.25,-10.17774 z m -39.33008,19.375 c 0,0 -2.72342,4.73103 -10.35742,5.13281 -7.63397,0.40179 -12.58985,-1.74023 -12.58985,-1.74023 0,0 4.19811,5.71429 17.45704,2.5 6.9643,-2.67857 5.49023,-5.89258 5.49023,-5.89258 z M 543.57227,280 c 0,0 -0.98242,4.73214 -10.35743,5.9375 C 523.83988,287.14286 517.67773,285 517.67773,285 c 0,0 2.85855,3.30329 15.84961,2.76758 C 542.3666,286.69615 543.57227,280 543.57227,280 Z m -10.04493,7.76758 c 0,0 -0.71428,2.58984 -7.8125,4.46484 -7.09821,1.875 -15.80468,-1.60742 -15.80468,-1.60742 0,0 4.86602,6.51702 19.0625,2.36523 5.08928,-2.14286 4.55468,-5.22265 4.55468,-5.22265 z m -4.55468,5.22265 c 0,0 -1.65206,3.52679 -8.48243,5 -6.83036,1.4732 -14.19531,0.13477 -14.19531,0.13477 0,0 3.6158,3.08008 14.33008,1.20508 0,0 -2.66993,3.84464 -10.04492,4.6875 -7.37503,0.84286 -14.73242,-0.13281 -14.73242,-0.13281 0,0 3.35736,2.50568 13.25976,1.60546 8.8393,-0.80357 12.00893,-4.10657 12.5,-6.47265 3.49425,-1.01652 5.33147,-2.42536 6.29688,-3.625 1.06972,-1.32926 1.06836,-2.40235 1.06836,-2.40235 z m -12.76758,12.23243 c 0,0 -1.60602,2.41155 -7.63281,2.94726 -6.02676,0.5357 -10.44727,0.13281 -10.44727,0.13281 0,0 5.65142,1.80974 11.91992,1.07227 6.83036,-0.80357 6.16016,-4.15234 6.16016,-4.15234 z"
       transform="scale(0.26458333)" />
    <path
       style="font-variation-settings:normal;opacity:1;vector-effect:none;fill:#4d4d4d;fill-opacity:1;stroke:none;stroke-width:1.03662;stroke-linecap:butt;stroke-linejoin:miter;stroke-miterlimit:5;stroke-dasharray:none;stroke-dashoffset:0;stroke-opacity:1;stop-color:#000000;stop-opacity:1"
       d="m 115.79448,61.672205 c 0,0 0.40957,0.493067 1.29545,2.654617 0.88589,2.161551 1.13393,4.252233 1.13393,4.252233 0,0 0.31892,-0.283483 0.0709,-1.452846 -0.24805,-1.169363 -1.13807,-4.884015 -2.50026,-5.454004 z m 4.69724,8.18252 c 0,0 0.14174,-0.815011 -0.14174,-2.657645 -0.28348,-1.842634 -1.02762,-3.082868 -1.70089,-3.685268 0.98615,1.713931 1.52973,3.979201 1.84263,6.342913 z m 0.0709,-4.075056 c 0,0 1.48828,1.913505 1.52372,5.953125 0,0 0.28345,-0.602399 0.0708,-2.551339 -0.21261,-1.94894 -0.74409,-2.763951 -1.59456,-3.401786 z m 2.3387,2.267857 c 0,0 0.99219,1.523717 0.63784,5.634208 0,0 0.38978,-0.283482 0.38978,-1.736328 0,-1.452846 -0.1063,-3.260046 -1.02762,-3.89788 z m 1.91351,2.090681 c 0,0 0.38978,1.771764 0.0354,4.004186 0,0 0.42525,-0.07087 0.53156,-1.523717 0.10631,-1.452846 -0.1063,-2.232422 -0.56696,-2.480469 z m 1.70089,1.771764 c 0,0 0.42522,1.700893 -0.38979,3.578962 0,0 0.4016,0.283482 0.75595,-0.815011 0.35436,-1.098494 0.0827,-2.62221 -0.36616,-2.763951 z m 1.35835,1.34654 c 0,0 0.24805,1.169364 -0.0709,2.728515 0,0 0.28351,-0.03544 0.46069,-0.921316 0.17717,-0.885882 -0.14174,-1.630023 -0.38979,-1.807199 z"
       id="path999" />
  </g>
  <g
     id="g1040"
     transform="matrix(0.96479624,0,0,0.96479624,-68.982751,-7.305876)"
     style="stroke-width:1.03662;stroke-miterlimit:5;stroke-dasharray:none">
    <path
       id="path1026"
       style="font-variation-settings:normal;opacity:1;vector-effect:none;fill:#c7c7c7;fill-opacity:1;stroke:none;stroke-width:3.91793;stroke-linecap:butt;stroke-linejoin:miter;stroke-miterlimit:5;stroke-dasharray:none;stroke-dashoffset:0;stroke-opacity:1;stop-color:#000000;stop-opacity:1"
       d="m 587.72349,213.48214 c -21.96431,5.625 -34.55606,10.69065 -47.24609,18.4562 -12.69007,7.76555 -18.87137,14.1234 -20.9548,21.88895 -2.08342,7.76555 -5.80596,14.94343 -13.76088,22.70898 -7.95496,7.76555 -14.33929,12.58008 -14.33929,12.58008 -2.77792,-8.27061 -7.0067,-10.13393 -7.0067,-10.13393 -2.46225,-5.68211 -5.49218,-5.68164 -5.49218,-5.68164 -2.46225,-5.1139 -6.06055,-5.33734 -6.06055,-5.33734 -1.70464,-4.92449 -6.28264,-7.44224 -6.28264,-7.44224 -2.08346,-5.3033 -7.44224,-7.84402 -7.44224,-7.84402 -3.03046,-5.49271 -7.7101,-8.52344 -7.7101,-8.52344 -4.16693,-5.6821 -9.15097,-9.33147 -11.02596,-10.13504 -1.87495,-0.80358 -2.75362,-0.9269 -2.75362,-0.9269 -9.82126,-12.09493 -17.9999,-20.27174 -25.19141,-20.64453 5.77198,6.02995 13.47073,16.77018 15.53125,26.70703 -9.76389,-18.99871 -27.0123,-35.57842 -44.69922,-39.39649 9.38321,8.11751 26.67043,20.18643 31.0625,39.96485 0,0 -12.0219,-17.15367 -24.46958,-27.4975 -12.44765,-10.34382 -22.88176,-14.93052 -29.51089,-14.74113 -6.62912,0.1894 -7.76562,1.13706 -7.76562,1.13706 18.44078,3.96979 35.31901,17.74208 43.12109,36.17579 -22.42251,-21.722 -43.6184,-32.69708 -52.52036,-33.0759 -8.90197,-0.37879 -9.96847,0.49972 -9.96847,0.49972 4.16687,2.46225 8.46957,1.21604 20.07617,9.71373 11.6066,8.49769 18.92529,15.59625 30.52678,29.06669 11.68739,13.57017 13.34119,17.62074 23.07143,23.55161 9.99058,6.08956 19.62364,5.75088 25.11635,8.02372 5.49271,2.27285 8.91173,6.55105 14.97266,8.63449 6.06092,2.08344 9.40346,8.5039 9.40346,8.5039 -14.87925,1.29431 -29.25813,3.9708 -41.73631,4.68135 -20.62247,1.17431 -26.90166,0.95413 -38.82843,-2.63893 -11.92676,-3.59311 -16.55951,-5.14989 -21.91294,-3.83231 -5.00169,1.23101 -10.15312,5.78518 -14.77427,7.63364 -19.22811,0.21978 -39.95936,0.93153 -50.62557,4.79939 0,0 0.50177,1.20426 9.40375,2.34069 8.90196,1.13641 33.80153,1.16965 43.08231,2.30607 17.23572,6.62913 27.3846,5.32723 42.72628,4.0014 15.34171,-1.32582 43.90961,-1.57221 62.09235,1.83706 18.18274,3.40926 30.80296,14.16084 47.65988,20.03235 16.85692,5.87151 39.11598,1.23153 55.86524,10.00447 16.74925,8.77294 27.63429,10.50511 36.976,12.04464 9.3417,1.53954 15.13923,1.85994 15.13923,1.85994 -7.06736,-4.892 -12.55218,-6.66155 -12.55218,-6.66155 9.32497,-2.1528 14.27604,-3.36767 14.27818,-3.35268 -5.21469,-2.63923 -7.84554,-1.76504 -13.14341,-4.97935 8.77756,-2.98845 10.27929,-5.08898 10.27929,-5.08898 -7.19732,-0.37881 -20.84016,2.50962 -29.68917,-1.57453 -8.84893,-4.08415 -19.92997,-13.75251 -19.92997,-13.75251 8.16966,-1.74105 12.05246,-4.15179 12.05246,-4.15179 -9.37501,-2.14286 -18.07979,-6.83064 -24.10659,-12.72349 -6.02676,-5.89286 -11.35909,-6.57143 -11.35909,-6.57143 1.06972,-1.32926 1.67104,-2.93806 1.67104,-2.93806 4.35267,-2.74554 4.55468,-5.22265 4.55468,-5.22265 9.5089,-3.21429 10.04493,-7.76758 10.04493,-7.76758 4.68751,-2.8125 5.49023,-5.89258 5.49023,-5.89258 7.36605,-2.67857 8.79409,-6.38476 8.79409,-6.38476 0,0 10.75923,-0.45808 18.08063,-3.48214 7.32143,-3.02407 12.45536,-9.5081 12.45536,-9.5081 0,0 -7.76809,4.189 -17.28599,4.6317 -9.51784,0.44269 -11.90932,-2.48912 -11.90932,-2.48912 0,0 12.40403,0.36409 29.02901,-5.68136 16.62498,-6.04546 19.45145,-15.21122 19.45145,-15.21122 0,0 -11.86248,7.86957 -24.64117,10.04492 -12.51145,2.12986 -19.80804,0.01 -19.80804,0.01 0,0 22.25443,-3.27148 38.05804,-12.37863 15.80356,-9.10713 16.03571,-18.56864 16.03571,-18.56864 0,0 -5.39107,7.68017 -23.03711,14.06279 -17.92649,6.48404 -24.10743,4.68721 -24.10743,4.68721 11.24999,-5.49107 29.19698,-11.25029 40.71485,-20.08956 7.41654,-5.69175 7.42115,-12.33475 5.71077,-14.75279 0,0 -6.91559,8.85965 -28.87986,14.48465 z m -38.87862,111.29827 c 9.09289,4.04314 15.15668,12.8548 24.02734,17.24944 -13.95859,-1.40166 -21.98403,-6.05699 -30.40151,-10.16322 l 9.30414,-0.40179 c 0,0 -1.22533,-4.03277 -2.92997,-6.68443 z"
       transform="scale(0.26458333)" />
    <path
       id="path1028"
       style="font-variation-settings:normal;opacity:1;vector-effect:none;fill:#4d4d4d;fill-opacity:1;stroke:none;stroke-width:3.91793;stroke-linecap:butt;stroke-linejoin:miter;stroke-miterlimit:5;stroke-dasharray:none;stroke-dashoffset:0;stroke-opacity:1;stop-color:#000000;stop-opacity:1"
       d="m 331.89844,202.2207 c 4.16687,2.46225 8.46957,1.34997 20.07617,9.84766 11.6066,8.49769 19.46101,16.26589 31.0625,29.73633 11.68739,13.57017 15.08226,18.69217 24.8125,24.62304 9.99058,6.08956 17.61471,4.54552 23.10742,6.81836 5.49271,2.27285 9.84923,6.81891 15.91016,8.90235 6.06092,2.08344 8.33203,6.6289 8.33203,6.6289 l 1.50781,-0.11914 c 0.33543,-6.07362 -17.26054,-11.28232 -22.1582,-15.88086 -10.59356,-4.38943 -23.48177,-3.58009 -32.06836,-12.58203 -17.87278,-17.65069 -32.36824,-39.94817 -54.25781,-52.96289 -2.24617,-1.33548 -8.41803,-5.21256 -16.32422,-5.01172 z"
       transform="scale(0.26458333)" />
    <path
       id="path1030"
       style="font-variation-settings:normal;opacity:1;vector-effect:none;fill:#4d4d4d;fill-opacity:1;stroke:none;stroke-width:3.91793;stroke-linecap:butt;stroke-linejoin:miter;stroke-miterlimit:5;stroke-dasharray:none;stroke-dashoffset:0;stroke-opacity:1;stop-color:#000000;stop-opacity:1"
       d="m 290.26758,300.63086 -1.96875,0.55469 c 1.62768,0.69373 4.27886,1.50222 8.56055,2.04883 8.90195,1.1364 34.47117,1.70537 43.75195,2.84179 17.23572,6.62913 27.65246,4.92544 42.99414,3.59961 15.34171,-1.32582 43.3739,-1.70614 61.55664,1.70313 18.18274,3.40926 32.00831,14.96442 48.86523,20.83593 16.85692,5.87151 38.17848,0.69581 54.92774,9.46875 16.74925,8.77294 29.10751,10.77297 38.44922,12.3125 9.3417,1.53954 16.47851,1.32422 16.47851,1.32422 -0.70796,-0.62627 -1.52801,-1.21764 -2.40234,-1.77734 -16.78331,-1.53707 -35.09838,-4.5068 -46.46485,-10.64649 -11.99206,-6.47762 -21.32532,-9.27456 -37.45703,-9.25 -14.98235,0.0229 -27.28994,-3.1094 -44.39453,-13.42968 -17.10459,-10.32028 -36.75579,-12.49176 -63.54297,-13.30469 -26.78713,-0.81294 -43.00277,7.26411 -66.6688,-1.90123 1.47795,-0.75477 3.89202,-2.14886 5.36998,-3.97182 l -3.47461,0.55664 -5.31446,2.73828 c -16.0833,-2.63988 -33.57465,-0.34554 -49.26562,-3.70312 z m 272.24414,13.42969 c -1.95396,1.45193 -4.98082,2.5483 -7.84375,2.74804 -4.07218,0.28411 -6.81824,0.18966 -6.43945,0.94727 0.37882,0.75761 2.48632,1.61914 2.48632,1.61914 10.84823,0.13395 14.19532,-4.6875 14.19532,-4.6875 -0.79229,-0.1811 -1.59417,-0.3963 -2.39844,-0.62695 z m -12.86328,11.52343 c 8.15539,4.71278 12.34418,11.51552 21.21484,15.91016 l 5.57422,2.38477 c -3.88653,-2.43115 -8.8393,-5.98405 -13.23047,-9.52149 -4.39113,-3.53744 -10.80906,-10.51943 -16.06445,-11.14258 0.74097,0.74255 1.29614,1.39221 2.50586,2.36914 z m 3.59961,6.81836 c 0,0 -1.68526,-1.73298 -2.89063,-1.82226 -1.20537,-0.0893 -8.43721,-0.62529 -9.64258,-0.35742 -1.20536,0.26785 -1.30917,1.14452 3.63086,2.17968 z m 47.6914,1.48243 c -0.193,4.5e-4 -0.40553,0.0101 -0.60547,0.0137 -5.03912,4.2762 -12.47656,3.87492 -12.47656,4.49414 0,0.66964 2.19727,1.39844 2.19727,1.39844 9.84899,-1.51524 12.3125,-5.87305 12.3125,-5.87305 -0.44983,-0.0237 -0.92717,-0.0344 -1.42774,-0.0332 z m 1.37305,9.70898 c -9.24357,2.8257 -12.91201,1.6872 -14.05273,2.70117 -1.20537,1.07143 0.66015,1.82813 0.66015,1.82813 9.65957,0.18939 16.28711,-3.21875 16.28711,-3.21875 -0.98371,-0.54075 -1.94345,-0.94917 -2.89453,-1.31055 z M 352.63795,301.84621 c 0,0 1.04172,1.98874 3.31456,2.46225 2.27284,0.47351 6.31728,-1.75535 7.07489,-3.27058 0.75762,-1.51523 -2.62391,-3.73735 -3.57092,-3.54795 -0.94702,0.1894 0.1894,1.70463 0.1894,1.70463 0,0 -0.52898,1.60321 -1.98874,2.17814 -0.85707,-0.16166 -1.52671,0.0717 -2.27284,0.47351 -1.28184,-0.33482 -1.57546,-1.48273 -1.57546,-1.48273 z"
       transform="scale(0.26458333)" />
    <path
       id="path1032"
       style="font-variation-settings:normal;opacity:1;vector-effect:none;fill:#ffffff;fill-opacity:1;stroke:none;stroke-width:3.91793;stroke-linecap:butt;stroke-linejoin:miter;stroke-miterlimit:5;stroke-dasharray:none;stroke-dashoffset:0;stroke-opacity:1;stop-color:#000000;stop-opacity:1"
       d="m 439.50275,235.4072 c 0.26797,-0.80357 6.92242,2.23165 12.03631,10.376 0,0 3.97744,1.89427 7.38672,8.33399 0,0 3.59693,1.1366 8.33203,8.14453 0,0 3.41068,1.51486 5.49414,6.06055 0,0 3.59845,0.94674 6.62891,6.43945 0,0 2.46164,0.757 5.11328,5.11328 0,0 3.15769,1.95819 6.125,8.83984 -13.81784,-1.1515 -25.27934,-0.8196 -35.41992,0.0625 -14.87925,1.29431 -26.91635,3.77188 -39.39453,4.48243 -20.62247,1.17431 -28.03808,0.75126 -39.96485,-2.8418 -11.92676,-3.59311 -17.63094,-4.88203 -22.98437,-3.56445 -5.00169,1.23101 -10.28705,5.91911 -14.9082,7.76757 -19.22811,0.21978 -41.29864,1.33332 -51.96485,5.20118 0,0 0.56279,0.6169 2.32617,1.36718 1.1062,-0.32296 1.95899,-0.55859 1.95899,-0.55859 14.63798,-3.01295 32.12888,-3.26148 47.01758,-3.60742 2.37978,0.75172 4.63103,2.02142 6.65429,4.19922 0.862,0.69042 2.47809,0.90564 4.38282,-0.1836 -1.0768,-2.47733 -3.70887,-3.9175 -5.75,-5.75195 8.41342,-5.25159 13.7883,-10.64134 32.85351,-2.94727 19.06522,7.69408 59.6625,0.46376 73.83399,-0.86914 14.17149,-1.3329 26.96429,-1.68353 39.84375,-1.49414 0,0 -5.42578,4.27521 -10.05079,6.03711 -4.62497,1.76189 -9.76757,1.84375 -9.76757,1.84375 0,0 2.11826,1.28544 7.54687,0.26758 5.42857,-1.01786 13.20463,-6.64913 18.37695,-10.65625 5.17236,-4.00712 15.04813,-13.0595 20.25,-20.21875 5.20184,-7.15925 1.15716,-12.05524 13.92969,-25.62109 8.1473,-8.65338 29.02339,-17.68164 42.57617,-22.07422 12.97662,-4.20584 38.09062,-7.20244 44.5745,-19.72071 0.5036,-1.97997 -0.82561,-2.69085 -0.82561,-2.69085 -3.48944,4.75833 -7.11934,10.53067 -29.01177,16.0577 -21.98338,5.54999 -34.3381,10.16839 -47.02813,17.93394 -12.69007,7.76555 -20.07673,16.66804 -22.16016,24.43359 -2.08342,7.76555 -4.73453,13.06843 -12.68945,20.83398 -7.95496,7.76555 -13,11.64258 -13,11.64258 -2.77792,-8.27061 -7.14063,-10 -7.14063,-10 -2.46225,-5.68211 -5.49218,-5.68164 -5.49218,-5.68164 -2.46225,-5.1139 -6.06055,-5.87305 -6.06055,-5.87305 -1.70464,-4.92449 -6.81836,-7.57617 -6.81836,-7.57617 -2.08346,-5.3033 -7.57617,-7.57617 -7.57617,-7.57617 -3.03046,-5.49271 -7.57617,-8.52344 -7.57617,-8.52344 -4.16693,-5.6821 -9.55275,-9.06361 -11.42774,-9.86718 -1.87495,-0.80358 -2.08398,0.14453 -2.08398,0.14453 -8.53663,-13.89341 -17.60174,-20.82916 -25.19141,-20.64453 8.36285,2.79536 17.58389,12.17207 26.08594,25.25195 0,0 0.44852,-1.4363 -0.89454,-4.60742 z m -79.13166,-39.249 c -6.62912,0.1894 -7.76562,2.46289 -7.76562,2.46289 22.90292,-3.5919 45.22838,20.15792 57.63672,38.42774 2.63648,3.88191 4.40418,4.46927 4.10937,2.67383 0,0 -10.28083,-17.68938 -22.72851,-28.03321 -12.44765,-10.34382 -24.62283,-15.72064 -31.25196,-15.53125 z m 22.91797,3.59961 c 25.87367,10.59493 35.13081,25.16244 41.53711,36.70703 1.53252,2.76175 2.71431,4.3468 3.16211,2.68946 -8.82293,-20.12786 -26.16865,-36.5908 -44.69922,-39.39649 z m -41.80859,0.71485 c -7.58459,-0.0832 -9.58203,1.74804 -9.58203,1.74804 26.61835,0.0642 46.85926,17.67548 59.97656,30.9375 2.93492,2.96726 4.28991,3.14027 3.85156,1.63868 -18.94037,-23.86486 -43.75233,-33.90244 -52.65429,-34.28126 -0.55638,-0.0237 -1.08616,-0.0374 -1.5918,-0.043 z m 275.8418,14.61718 c 0,0 -5.39107,6.47481 -23.03711,12.85743 -17.92649,6.48404 -24.10743,5.89257 -24.10743,5.89257 0.54743,1.42119 3.62355,1.46873 7.91407,0.95508 13.12237,-1.57099 33.54224,-9.15456 39.23047,-19.70508 z m -9.64454,20.89258 c 0,0 -11.32677,6.93207 -24.10546,9.10742 -12.51145,2.12986 -20.34375,0.94727 -20.34375,0.94727 0.35886,1.13645 2.66674,2.17852 8.45312,2.47461 5.78638,0.2961 28.88057,-2.76456 35.99609,-12.5293 z m -19.28515,18.75 c 0,0 -6.96452,3.38543 -16.48242,3.82813 -9.51784,0.44269 -12.71289,-1.68555 -12.71289,-1.68555 -0.53352,1.81426 0.86942,2.84034 4.42187,3.22852 6.41582,0.70104 18.25258,0.93223 24.77344,-5.3711 z m -235.75463,47.11379 c 0,0 2.13891,0.40179 1.6654,-0.63993 -0.47351,-1.04172 -0.81309,-2.01172 0.79684,-2.57993 1.60993,-0.56821 3.31457,1.04172 4.54569,0.56821 1.23112,-0.47351 1.60993,-2.08344 -2.17814,-2.65165 -3.78807,-0.56821 -6.53443,2.17814 -6.43972,3.59867 0.0947,1.42053 1.60993,1.70463 1.60993,1.70463 z"
       transform="scale(0.26458333)" />
    <path
       id="path1034"
       style="font-variation-settings:normal;opacity:1;vector-effect:none;fill:#ffffff;fill-opacity:1;stroke:none;stroke-width:3.91793;stroke-linecap:butt;stroke-linejoin:miter;stroke-miterlimit:5;stroke-dasharray:none;stroke-dashoffset:0;stroke-opacity:1;stop-color:#000000;stop-opacity:1"
       d="m 527.9043,295.39258 -2.69141,1.90262 c 18.29296,6.41905 16.03442,12.96724 34.32227,17.99191 0,0 0.19061,0.0854 0.53906,0.1582 0.90941,-0.40177 1.74341,-0.86901 2.4375,-1.38476 -8.71252,-2.49858 -17.93175,-7.77313 -23.44922,-13.16797 -4.42433,-4.32603 -8.34553,-5.25598 -10.12891,-5.44922 z m 22.81054,23.98242 c -1.77891,0.29277 -0.39223,1.42497 0.82412,2.34389 7.09929,5.36189 14.6367,10.75279 21.74229,13.80455 8.01785,3.44356 20.8079,0.70252 29.08594,-1.60547 -7.19732,-0.37881 -21.26623,2.75798 -30.11524,-1.32617 -8.84893,-4.08415 -21.53711,-13.2168 -21.53711,-13.2168 z m -3.57226,3.83984 c 1.07142,4.55357 2.41128,6.56167 3.21484,7.36524 0.80357,0.80357 2.89063,1.82226 2.89063,1.82226 0,0 -1.89497,-4.1667 -3.59961,-6.81836 -1.51227,-1.51424 -2.50586,-2.36914 -2.50586,-2.36914 z m -7.0625,8.17774 c 3.74921,2.48528 10.78503,5.72233 16.72656,8.13867 5.94153,2.41634 12.30474,4.29444 19.63086,4.34766 -1.37556,-0.76304 -3.17857,-1.64676 -5.57422,-2.38477 -13.15502,-2.07131 -17.69831,-6.05699 -26.51758,-9.0918 -3.06504,-0.58873 -4.26562,-1.00976 -4.26562,-1.00976 z m 49.97461,8.39844 c 0,0 -0.50139,1.14565 0.83789,1.94921 1.16429,0.69856 8.06034,2.81209 11.66211,1.94532 -4.18055,-1.63866 -8.1168,-1.87879 -12.5,-3.89453 z m -1.13477,8.33203 c 0,0 -0.30335,1.3856 2.10742,2.45703 2.22271,0.98787 7.17241,3.33461 10.45118,2.96094 -5.20726,-3.33265 -12.5586,-5.41797 -12.5586,-5.41797 z"
       transform="scale(0.26458333)" />
    <path
       id="path1036"
       style="font-variation-settings:normal;opacity:1;vector-effect:none;fill:#4d4d4d;fill-opacity:1;stroke:none;stroke-width:3.91793;stroke-linecap:butt;stroke-linejoin:miter;stroke-miterlimit:5;stroke-dasharray:none;stroke-dashoffset:0;stroke-opacity:1;stop-color:#000000;stop-opacity:1"
       d="m 616.60238,198.71437 c 0.0746,7.92766 -1.58267,10.07935 -8.41562,15.85411 -6.83296,5.77475 -23.66283,11.62061 -35.51293,15.84558 -1.18938,0.42405 -3.71125,1.92513 -2.4961,3.42578 12.05356,-3.48214 29.74617,-10.38171 41.26402,-19.221 7.45849,-5.72394 7.45412,-14.1581 5.16063,-15.90447 z m 0.71989,16.37547 c -6.41598,18.10674 -32.48058,24.04519 -50.65625,28.35743 -3.13335,0.74338 -3.4375,2.58984 -3.4375,2.58984 0,0 23.72764,-2.60184 39.53125,-11.70899 15.80356,-9.10712 14.5625,-19.23828 14.5625,-19.23828 z m -9.64454,20.89258 c -7.55455,13.45324 -28.14716,18.62454 -44.39062,19.04102 -5.50662,0.14119 -8.07075,0.85634 -4.08984,1.85156 0,0 11.60939,1.76101 30.23437,-5.01172 18.62498,-6.77273 18.24609,-15.88086 18.24609,-15.88086 z m -19.28515,18.75 c -7.02921,8.53547 -23.3329,13.82392 -45.46094,10.90625 0,0 3.00557,2.75391 13.58594,2.75391 0,0 -1.87416,3.88421 -9.24024,4.41992 -7.36607,0.53571 -12.58984,-0.80273 -12.58984,-0.80273 0,0 2.45539,3.70479 14.375,2.09765 7.76784,-0.9375 9.59766,-5.44726 9.59766,-5.44726 0,0 8.16102,0.51319 18.48242,-3.75 10.32143,-4.2632 11.25,-10.17774 11.25,-10.17774 z m -39.33008,19.375 c 0,0 -2.72342,4.73103 -10.35742,5.13281 -7.63397,0.40179 -12.58985,-1.74023 -12.58985,-1.74023 0,0 4.19811,5.71429 17.45704,2.5 6.9643,-2.67857 5.49023,-5.89258 5.49023,-5.89258 z M 543.57227,280 c 0,0 -0.98242,4.73214 -10.35743,5.9375 C 523.83988,287.14286 517.67773,285 517.67773,285 c 0,0 2.85855,3.30329 15.84961,2.76758 C 542.3666,286.69615 543.57227,280 543.57227,280 Z m -10.04493,7.76758 c 0,0 -0.71428,2.58984 -7.8125,4.46484 -7.09821,1.875 -15.80468,-1.60742 -15.80468,-1.60742 0,0 4.86602,6.51702 19.0625,2.36523 5.08928,-2.14286 4.55468,-5.22265 4.55468,-5.22265 z m -4.55468,5.22265 c 0,0 -1.65206,3.52679 -8.48243,5 -6.83036,1.4732 -14.19531,0.13477 -14.19531,0.13477 0,0 3.6158,3.08008 14.33008,1.20508 0,0 -2.66993,3.84464 -10.04492,4.6875 -7.37503,0.84286 -14.73242,-0.13281 -14.73242,-0.13281 0,0 3.35736,2.50568 13.25976,1.60546 8.8393,-0.80357 12.00893,-4.10657 12.5,-6.47265 3.49425,-1.01652 5.33147,-2.42536 6.29688,-3.625 1.06972,-1.32926 1.06836,-2.40235 1.06836,-2.40235 z m -12.76758,12.23243 c 0,0 -1.60602,2.41155 -7.63281,2.94726 -6.02676,0.5357 -10.44727,0.13281 -10.44727,0.13281 0,0 5.65142,1.80974 11.91992,1.07227 6.83036,-0.80357 6.16016,-4.15234 6.16016,-4.15234 z"
       transform="scale(0.26458333)" />
    <path
       style="font-variation-settings:normal;opacity:1;vector-effect:none;fill:#4d4d4d;fill-opacity:1;stroke:none;stroke-width:1.03662;stroke-linecap:butt;stroke-linejoin:miter;stroke-miterlimit:5;stroke-dasharray:none;stroke-dashoffset:0;stroke-opacity:1;stop-color:#000000;stop-opacity:1"
       d="m 115.79448,61.672205 c 0,0 0.40957,0.493067 1.29545,2.654617 0.88589,2.161551 1.13393,4.252233 1.13393,4.252233 0,0 0.31892,-0.283483 0.0709,-1.452846 -0.24805,-1.169363 -1.13807,-4.884015 -2.50026,-5.454004 z m 4.69724,8.18252 c 0,0 0.14174,-0.815011 -0.14174,-2.657645 -0.28348,-1.842634 -1.02762,-3.082868 -1.70089,-3.685268 0.98615,1.713931 1.52973,3.979201 1.84263,6.342913 z m 0.0709,-4.075056 c 0,0 1.48828,1.913505 1.52372,5.953125 0,0 0.28345,-0.602399 0.0708,-2.551339 -0.21261,-1.94894 -0.74409,-2.763951 -1.59456,-3.401786 z m 2.3387,2.267857 c 0,0 0.99219,1.523717 0.63784,5.634208 0,0 0.38978,-0.283482 0.38978,-1.736328 0,-1.452846 -0.1063,-3.260046 -1.02762,-3.89788 z m 1.91351,2.090681 c 0,0 0.38978,1.771764 0.0354,4.004186 0,0 0.42525,-0.07087 0.53156,-1.523717 0.10631,-1.452846 -0.1063,-2.232422 -0.56696,-2.480469 z m 1.70089,1.771764 c 0,0 0.42522,1.700893 -0.38979,3.578962 0,0 0.4016,0.283482 0.75595,-0.815011 0.35436,-1.098494 0.0827,-2.62221 -0.36616,-2.763951 z m 1.35835,1.34654 c 0,0 0.24805,1.169364 -0.0709,2.728515 0,0 0.28351,-0.03544 0.46069,-0.921316 0.17717,-0.885882 -0.14174,-1.630023 -0.38979,-1.807199 z"
       id="path1038" />
  </g>
  <g
     id="g1108"
     transform="matrix(0.96479624,0,0,0.96479624,-34.26737,30.890976)"
     style="stroke-width:1.03662;stroke-miterlimit:5;stroke-dasharray:none">
    <path
       id="path1094"
       style="font-variation-settings:normal;opacity:1;vector-effect:none;fill:#c7c7c7;fill-opacity:1;stroke:none;stroke-width:3.91793;stroke-linecap:butt;stroke-linejoin:miter;stroke-miterlimit:5;stroke-dasharray:none;stroke-dashoffset:0;stroke-opacity:1;stop-color:#000000;stop-opacity:1"
       d="m 540.4774,231.93834 c -12.95871,7.30846 -18.87137,14.1234 -20.9548,21.88895 -2.08342,7.76555 -5.80596,14.94343 -13.76088,22.70898 -7.95496,7.76555 -14.33929,12.58008 -14.33929,12.58008 -2.77792,-8.27061 -7.0067,-10.13393 -7.0067,-10.13393 -2.46225,-5.68211 -5.49218,-5.68164 -5.49218,-5.68164 -2.46225,-5.1139 -6.06055,-5.33734 -6.06055,-5.33734 -1.70464,-4.92449 -6.28264,-7.44224 -6.28264,-7.44224 -2.08346,-5.3033 -7.44224,-7.84402 -7.44224,-7.84402 -3.03046,-5.49271 -7.7101,-8.52344 -7.7101,-8.52344 -4.16693,-5.6821 -9.15097,-9.33147 -11.02596,-10.13504 -1.87495,-0.80358 -2.75362,-0.9269 -2.75362,-0.9269 -9.82126,-12.09493 -17.9999,-20.27174 -25.19141,-20.64453 5.77198,6.02995 13.47073,16.77018 15.53125,26.70703 -9.76389,-18.99871 -27.0123,-35.57842 -44.69922,-39.39649 9.38321,8.11751 26.67043,20.18643 31.0625,39.96485 0,0 -12.0219,-17.15367 -24.46958,-27.4975 -12.44765,-10.34382 -22.88176,-14.93052 -29.51089,-14.74113 -6.62912,0.1894 -7.76562,1.13706 -7.76562,1.13706 18.44078,3.96979 35.31901,17.74208 43.12109,36.17579 -22.42251,-21.722 -43.6184,-32.69708 -52.52036,-33.0759 -8.90197,-0.37879 -9.96847,0.49972 -9.96847,0.49972 4.16687,2.46225 8.46957,1.21604 20.07617,9.71373 11.6066,8.49769 18.92529,15.59625 30.52678,29.06669 11.68739,13.57017 13.34119,17.62074 23.07143,23.55161 9.99058,6.08956 19.62364,5.75088 25.11635,8.02372 5.49271,2.27285 8.91173,6.55105 14.97266,8.63449 6.06092,2.08344 9.40346,8.5039 9.40346,8.5039 -14.87925,1.29431 -29.25813,3.9708 -41.73631,4.68135 -20.62247,1.17431 -26.90166,0.95413 -38.82843,-2.63893 -11.92676,-3.59311 -16.55951,-5.14989 -21.91294,-3.83231 -5.00169,1.23101 -10.15312,5.78518 -14.77427,7.63364 -19.22811,0.21978 -39.95936,0.93153 -50.62557,4.79939 0,0 0.50177,1.20426 9.40375,2.34069 8.90196,1.13641 33.80153,1.16965 43.08231,2.30607 17.23572,6.62913 27.3846,5.32723 42.72628,4.0014 15.34171,-1.32582 43.90961,-1.57221 62.09235,1.83706 18.18274,3.40926 34.82082,16.57155 51.67774,22.44306 16.85692,5.87151 39.20316,-2.60144 52.57038,4.40005 13.36722,7.0015 21.99958,7.52838 30.01273,8.84897 8.01315,1.32059 14.88021,0.26959 14.88021,0.26959 -6.06226,-4.19627 -10.76704,-5.71416 -10.76704,-5.71416 7.9988,-1.84664 12.24574,-2.88873 12.24758,-2.87587 -4.47307,-2.26389 -6.72977,-1.51402 -11.27419,-4.2712 7.52924,-2.56344 8.81739,-4.36524 8.81739,-4.36524 -6.17373,-0.32494 -17.87632,2.15271 -25.46685,-1.35061 -7.59046,-3.50331 -17.81486,-8.85279 -17.81486,-8.85279 8.16966,-1.74105 12.05246,-4.15179 12.05246,-4.15179 -9.37501,-2.14286 -18.07979,-6.83064 -24.10659,-12.72349 -6.02676,-5.89286 -11.35909,-6.57143 -11.35909,-6.57143 1.06972,-1.32926 1.67104,-2.93806 1.67104,-2.93806 4.35267,-2.74554 4.55468,-5.22265 4.55468,-5.22265 9.5089,-3.21429 10.04493,-7.76758 10.04493,-7.76758 4.68751,-2.8125 5.49023,-5.89258 5.49023,-5.89258 7.36605,-2.67857 8.79409,-6.38476 8.79409,-6.38476 0,0 10.75923,-0.45808 18.08063,-3.48214 7.32143,-3.02407 12.45536,-9.5081 12.45536,-9.5081 0,0 -7.76809,4.189 -17.28599,4.6317 -9.51784,0.44269 -11.90932,-2.48912 -11.90932,-2.48912 0,0 12.40403,0.36409 29.02901,-5.68136 16.62498,-6.04546 19.45145,-15.21122 19.45145,-15.21122 0,0 -11.86248,7.86957 -24.64117,10.04492 -12.51145,2.12986 -19.80804,0.01 -19.80804,0.01 0,0 22.25443,-3.27148 38.05804,-12.37863 15.80356,-9.10713 16.03571,-18.56864 16.03571,-18.56864 0,0 -5.39107,7.68017 -23.03711,14.06279 -17.92649,6.48404 -24.10743,4.68721 -24.10743,4.68721 11.24999,-5.49107 27.89635,-12.29197 38.36355,-20.32492 10.46721,-8.03295 12.99231,-19.48613 11.28193,-21.90417 0,0 -10.67116,14.37139 -32.3676,22.10414 -21.69643,7.73275 -34.28818,11.06629 -46.97821,18.22322 z m 8.36747,92.84207 c 9.09289,4.04314 13.98635,7.31401 21.59545,11.08366 -11.97343,-1.20232 -19.55214,0.10879 -27.96962,-3.99744 l 10.24164,-0.9375 c 0,0 -2.16283,-3.49706 -3.86747,-6.14872 z"
       transform="scale(0.26458333)" />
    <path
       id="path1096"
       style="font-variation-settings:normal;opacity:1;vector-effect:none;fill:#4d4d4d;fill-opacity:1;stroke:none;stroke-width:3.91793;stroke-linecap:butt;stroke-linejoin:miter;stroke-miterlimit:5;stroke-dasharray:none;stroke-dashoffset:0;stroke-opacity:1;stop-color:#000000;stop-opacity:1"
       d="m 331.89844,202.2207 c 4.16687,2.46225 8.46957,1.34997 20.07617,9.84766 11.6066,8.49769 19.46101,16.26589 31.0625,29.73633 11.68739,13.57017 15.08226,18.69217 24.8125,24.62304 9.99058,6.08956 17.61471,4.54552 23.10742,6.81836 5.49271,2.27285 9.84923,6.81891 15.91016,8.90235 6.06092,2.08344 8.33203,6.6289 8.33203,6.6289 l 1.50781,-0.11914 c 0.33543,-6.07362 -17.26054,-11.28232 -22.1582,-15.88086 -10.59356,-4.38943 -23.48177,-3.58009 -32.06836,-12.58203 -17.87278,-17.65069 -32.36824,-39.94817 -54.25781,-52.96289 -2.24617,-1.33548 -8.41803,-5.21256 -16.32422,-5.01172 z"
       transform="scale(0.26458333)" />
    <path
       id="path1098"
       style="font-variation-settings:normal;opacity:1;vector-effect:none;fill:#4d4d4d;fill-opacity:1;stroke:none;stroke-width:3.91793;stroke-linecap:butt;stroke-linejoin:miter;stroke-miterlimit:5;stroke-dasharray:none;stroke-dashoffset:0;stroke-opacity:1;stop-color:#000000;stop-opacity:1"
       d="m 290.26758,300.63086 -1.96875,0.55469 c 1.62768,0.69373 4.27886,1.50222 8.56055,2.04883 8.90195,1.1364 34.47117,1.70537 43.75195,2.84179 17.23572,6.62913 27.65246,4.92544 42.99414,3.59961 15.34171,-1.32582 43.3739,-1.70614 61.55664,1.70313 18.18274,3.40926 36.02617,17.37513 52.88309,23.24664 16.85692,5.87151 38.09591,-2.06884 53.29716,4.28577 15.20125,6.35461 25.473,8.30452 31.56334,8.73241 6.02409,0.42323 14.13498,-0.37934 14.13498,-0.37934 -0.60728,-0.5372 -1.3107,-1.04447 -2.06069,-1.52457 -13.26001,1.33318 -30.43863,-2.66117 -43.26043,-8.19882 -12.8218,-5.53765 -22.51386,-2.8445 -36.57169,-2.8231 -13.05623,0.02 -24.87922,-4.18082 -41.98381,-14.5011 -17.10459,-10.32028 -36.75579,-12.49176 -63.54297,-13.30469 -26.78713,-0.81294 -43.00277,7.26411 -66.6688,-1.90123 1.47795,-0.75477 3.89202,-2.14886 5.36998,-3.97182 l -3.47461,0.55664 -5.31446,2.73828 c -16.0833,-2.63988 -33.57465,-0.34554 -49.26562,-3.70312 z m 272.24414,13.42969 c -1.95396,1.45193 -4.98082,2.5483 -7.84375,2.74804 -4.07218,0.28411 -6.81824,0.18966 -6.43945,0.94727 0.37882,0.75761 2.48632,1.61914 2.48632,1.61914 10.84823,0.13395 14.19532,-4.6875 14.19532,-4.6875 -0.79229,-0.1811 -1.59417,-0.3963 -2.39844,-0.62695 z m -12.86328,11.52343 c 8.15539,4.71278 11.45956,6.05092 19.06866,9.82056 l 4.78147,2.04562 c -2.19738,-1.896 -3.03651,-3.04958 -8.31841,-6.08393 -4.19402,-2.40938 -12.78219,-7.52824 -18.03758,-8.15139 0.74097,0.74255 1.29614,1.39221 2.50586,2.36914 z m 4.53711,6.28265 c 0,0 -1.68526,-1.73298 -2.89063,-1.82226 -1.20537,-0.0893 -9.37471,-0.0896 -10.58008,0.17829 -1.20536,0.26785 0.56583,0.74273 5.50586,1.77789 z m 40.33037,-2.98927 c -0.16556,3.8e-4 -0.34786,0.009 -0.51937,0.0118 -4.32247,3.66805 -10.70217,3.32384 -10.70217,3.855 0,0.5744 1.88478,1.19955 1.88478,1.19955 8.44829,-1.29974 10.56145,-5.0378 10.56145,-5.0378 -0.38586,-0.0203 -1.22469,0.40091 -1.22469,-0.0285 z m 1.17777,8.32819 c -7.92897,2.42384 -11.07569,1.44725 -12.05418,2.31702 -1.03395,0.91905 0.56626,1.56814 0.56626,1.56814 8.28581,0.16245 13.9708,-2.76099 13.9708,-2.76099 -0.84381,-0.46385 -1.66706,-0.81418 -2.48288,-1.12417 z M 352.63795,301.84621 c 0,0 1.04172,1.98874 3.31456,2.46225 2.27284,0.47351 6.31728,-1.75535 7.07489,-3.27058 0.75762,-1.51523 -2.62391,-3.73735 -3.57092,-3.54795 -0.94702,0.1894 0.1894,1.70463 0.1894,1.70463 0,0 -0.52898,1.60321 -1.98874,2.17814 -0.85707,-0.16166 -1.52671,0.0717 -2.27284,0.47351 -1.28184,-0.33482 -1.57546,-1.48273 -1.57546,-1.48273 z"
       transform="scale(0.26458333)" />
    <path
       id="path1100"
       style="font-variation-settings:normal;opacity:1;vector-effect:none;fill:#ffffff;fill-opacity:1;stroke:none;stroke-width:3.91793;stroke-linecap:butt;stroke-linejoin:miter;stroke-miterlimit:5;stroke-dasharray:none;stroke-dashoffset:0;stroke-opacity:1;stop-color:#000000;stop-opacity:1"
       d="m 439.50275,235.4072 c 0.26797,-0.80357 6.92242,2.23165 12.03631,10.376 0,0 3.97744,1.89427 7.38672,8.33399 0,0 3.59693,1.1366 8.33203,8.14453 0,0 3.41068,1.51486 5.49414,6.06055 0,0 3.59845,0.94674 6.62891,6.43945 0,0 2.46164,0.757 5.11328,5.11328 0,0 3.15769,1.95819 6.125,8.83984 -13.81784,-1.1515 -25.27934,-0.8196 -35.41992,0.0625 -14.87925,1.29431 -26.91635,3.77188 -39.39453,4.48243 -20.62247,1.17431 -28.03808,0.75126 -39.96485,-2.8418 -11.92676,-3.59311 -17.63094,-4.88203 -22.98437,-3.56445 -5.00169,1.23101 -10.28705,5.91911 -14.9082,7.76757 -19.22811,0.21978 -41.29864,1.33332 -51.96485,5.20118 0,0 0.56279,0.6169 2.32617,1.36718 1.1062,-0.32296 1.95899,-0.55859 1.95899,-0.55859 14.63798,-3.01295 32.12888,-3.26148 47.01758,-3.60742 2.37978,0.75172 4.63103,2.02142 6.65429,4.19922 0.862,0.69042 2.47809,0.90564 4.38282,-0.1836 -1.0768,-2.47733 -3.70887,-3.9175 -5.75,-5.75195 8.41342,-5.25159 13.7883,-10.64134 32.85351,-2.94727 19.06522,7.69408 59.6625,0.46376 73.83399,-0.86914 14.17149,-1.3329 26.96429,-1.68353 39.84375,-1.49414 0,0 -5.42578,4.27521 -10.05079,6.03711 -4.62497,1.76189 -9.76757,1.84375 -9.76757,1.84375 0,0 2.11826,1.28544 7.54687,0.26758 5.42857,-1.01786 13.20463,-6.64913 18.37695,-10.65625 5.17236,-4.00712 15.04813,-13.0595 20.25,-20.21875 5.20184,-7.15925 1.15716,-12.05524 13.92969,-25.62109 8.1473,-8.65338 32.43265,-18.24985 45.98543,-22.64243 12.97662,-4.20584 35.62838,-11.93753 44.3851,-26.53924 0.5036,-1.97997 -0.82561,-2.69085 -0.82561,-2.69085 -3.48944,4.75833 -12.99085,15.26576 -32.98924,23.06563 -21.12336,8.23864 -33.58049,10.5472 -46.27052,18.31275 -12.69007,7.76555 -20.07673,16.66804 -22.16016,24.43359 -2.08342,7.76555 -4.73453,13.06843 -12.68945,20.83398 -7.95496,7.76555 -13,11.64258 -13,11.64258 -2.77792,-8.27061 -7.14063,-10 -7.14063,-10 -2.46225,-5.68211 -5.49218,-5.68164 -5.49218,-5.68164 -2.46225,-5.1139 -6.06055,-5.87305 -6.06055,-5.87305 -1.70464,-4.92449 -6.81836,-7.57617 -6.81836,-7.57617 -2.08346,-5.3033 -7.57617,-7.57617 -7.57617,-7.57617 -3.03046,-5.49271 -7.57617,-8.52344 -7.57617,-8.52344 -4.16693,-5.6821 -9.55275,-9.06361 -11.42774,-9.86718 -1.87495,-0.80358 -2.08398,0.14453 -2.08398,0.14453 -8.53663,-13.89341 -17.60174,-20.82916 -25.19141,-20.64453 8.36285,2.79536 17.58389,12.17207 26.08594,25.25195 0,0 0.44852,-1.4363 -0.89454,-4.60742 z m -79.13166,-39.249 c -6.62912,0.1894 -7.76562,2.46289 -7.76562,2.46289 22.90292,-3.5919 45.22838,20.15792 57.63672,38.42774 2.63648,3.88191 4.40418,4.46927 4.10937,2.67383 0,0 -10.28083,-17.68938 -22.72851,-28.03321 -12.44765,-10.34382 -24.62283,-15.72064 -31.25196,-15.53125 z m 22.91797,3.59961 c 25.87367,10.59493 35.13081,25.16244 41.53711,36.70703 1.53252,2.76175 2.71431,4.3468 3.16211,2.68946 -8.82293,-20.12786 -26.16865,-36.5908 -44.69922,-39.39649 z m -41.80859,0.71485 c -7.58459,-0.0832 -9.58203,1.74804 -9.58203,1.74804 26.61835,0.0642 46.85926,17.67548 59.97656,30.9375 2.93492,2.96726 4.28991,3.14027 3.85156,1.63868 -18.94037,-23.86486 -43.75233,-33.90244 -52.65429,-34.28126 -0.55638,-0.0237 -1.08616,-0.0374 -1.5918,-0.043 z m 275.8418,14.61718 c 0,0 -5.39107,6.47481 -23.03711,12.85743 -17.92649,6.48404 -24.10743,5.89257 -24.10743,5.89257 0.54743,1.42119 3.62355,1.46873 7.91407,0.95508 13.12237,-1.57099 33.54224,-9.15456 39.23047,-19.70508 z m -9.64454,20.89258 c 0,0 -11.32677,6.93207 -24.10546,9.10742 -12.51145,2.12986 -20.34375,0.94727 -20.34375,0.94727 0.35886,1.13645 2.66674,2.17852 8.45312,2.47461 5.78638,0.2961 28.88057,-2.76456 35.99609,-12.5293 z m -19.28515,18.75 c 0,0 -6.96452,3.38543 -16.48242,3.82813 -9.51784,0.44269 -12.71289,-1.68555 -12.71289,-1.68555 -0.53352,1.81426 0.86942,2.84034 4.42187,3.22852 6.41582,0.70104 18.25258,0.93223 24.77344,-5.3711 z m -235.75463,47.11379 c 0,0 2.13891,0.40179 1.6654,-0.63993 -0.47351,-1.04172 -0.81309,-2.01172 0.79684,-2.57993 1.60993,-0.56821 3.31457,1.04172 4.54569,0.56821 1.23112,-0.47351 1.60993,-2.08344 -2.17814,-2.65165 -3.78807,-0.56821 -6.53443,2.17814 -6.43972,3.59867 0.0947,1.42053 1.60993,1.70463 1.60993,1.70463 z"
       transform="scale(0.26458333)" />
    <path
       id="path1102"
       style="font-variation-settings:normal;opacity:1;vector-effect:none;fill:#ffffff;fill-opacity:1;stroke:none;stroke-width:3.91793;stroke-linecap:butt;stroke-linejoin:miter;stroke-miterlimit:5;stroke-dasharray:none;stroke-dashoffset:0;stroke-opacity:1;stop-color:#000000;stop-opacity:1"
       d="m 527.9043,295.39258 -2.69141,1.90262 c 18.29296,6.41905 16.03442,12.96724 34.32227,17.99191 0,0 0.19061,0.0854 0.53906,0.1582 0.90941,-0.40177 1.74341,-0.86901 2.4375,-1.38476 -8.71252,-2.49858 -17.93175,-7.77313 -23.44922,-13.16797 -4.42433,-4.32603 -8.34553,-5.25598 -10.12891,-5.44922 z m 22.81054,23.98242 c -1.77891,0.29277 -0.79402,0.75533 0.42233,1.67425 4.42072,2.68332 13.55897,6.61598 19.65402,9.23373 6.87757,2.95383 17.84866,0.60261 24.94942,-1.37714 -6.17374,-0.32494 -16.23288,2.49967 -24.09127,-0.334 -7.86425,-2.83578 -20.9345,-9.19684 -20.9345,-9.19684 z m -3.57226,3.83984 c 1.07142,4.55357 3.34878,6.02596 4.15234,6.82953 0.80357,0.80357 2.89063,1.82226 2.89063,1.82226 0,0 -1.76104,-3.76492 -4.53711,-6.28265 -1.51227,-1.51424 -2.50586,-2.36914 -2.50586,-2.36914 z m -6.39286,7.90988 c 3.74921,2.48528 10.24968,4.28443 15.72043,4.86893 6.99059,0.74687 10.7442,1.41086 17.02842,1.45651 -1.17993,-0.65452 -2.72653,-1.41256 -4.78147,-2.04562 -11.28415,-1.77673 -13.67713,-0.36919 -22.4964,-3.40399 -3.06504,-0.58873 -5.47098,-0.87583 -5.47098,-0.87583 z m 44.42944,2.81892 c 0,0 -0.43009,0.98272 0.71872,1.672 0.99871,0.59921 6.91402,2.41216 10.00356,1.66866 -3.586,-1.40562 -6.96245,-1.6116 -10.72228,-3.34066 z m -0.97339,7.14707 c 0,0 -0.26021,1.18854 1.80771,2.1076 1.9066,0.84737 6.15237,2.86037 8.96484,2.53984 -4.4667,-2.85869 -10.77255,-4.64744 -10.77255,-4.64744 z"
       transform="scale(0.26458333)" />
    <path
       id="path1104"
       style="font-variation-settings:normal;opacity:1;vector-effect:none;fill:#4d4d4d;fill-opacity:1;stroke:none;stroke-width:3.91793;stroke-linecap:butt;stroke-linejoin:miter;stroke-miterlimit:5;stroke-dasharray:none;stroke-dashoffset:0;stroke-opacity:1;stop-color:#000000;stop-opacity:1"
       d="m 619.82224,190.99617 c 0.0746,7.92766 -5.56014,16.47172 -13.71892,23.0041 -8.15877,6.53237 -21.57939,12.18882 -33.42949,16.41379 -1.18938,0.42405 -3.71125,1.92513 -2.4961,3.42578 12.05356,-3.48214 28.79915,-11.32873 40.317,-20.16802 7.45849,-5.72394 13.51504,-17.70942 9.32751,-22.67565 z m -2.49997,24.09367 c -6.41598,18.10674 -32.48058,24.04519 -50.65625,28.35743 -3.13335,0.74338 -3.4375,2.58984 -3.4375,2.58984 0,0 23.72764,-2.60184 39.53125,-11.70899 15.80356,-9.10712 14.5625,-19.23828 14.5625,-19.23828 z m -9.64454,20.89258 c -7.55455,13.45324 -28.14716,18.62454 -44.39062,19.04102 -5.50662,0.14119 -8.07075,0.85634 -4.08984,1.85156 0,0 11.60939,1.76101 30.23437,-5.01172 18.62498,-6.77273 18.24609,-15.88086 18.24609,-15.88086 z m -19.28515,18.75 c -7.02921,8.53547 -23.3329,13.82392 -45.46094,10.90625 0,0 3.00557,2.75391 13.58594,2.75391 0,0 -1.87416,3.88421 -9.24024,4.41992 -7.36607,0.53571 -12.58984,-0.80273 -12.58984,-0.80273 0,0 2.45539,3.70479 14.375,2.09765 7.76784,-0.9375 9.59766,-5.44726 9.59766,-5.44726 0,0 8.16102,0.51319 18.48242,-3.75 10.32143,-4.2632 11.25,-10.17774 11.25,-10.17774 z m -39.33008,19.375 c 0,0 -2.72342,4.73103 -10.35742,5.13281 -7.63397,0.40179 -12.58985,-1.74023 -12.58985,-1.74023 0,0 4.19811,5.71429 17.45704,2.5 6.9643,-2.67857 5.49023,-5.89258 5.49023,-5.89258 z M 543.57227,280 c 0,0 -0.98242,4.73214 -10.35743,5.9375 C 523.83988,287.14286 517.67773,285 517.67773,285 c 0,0 2.85855,3.30329 15.84961,2.76758 C 542.3666,286.69615 543.57227,280 543.57227,280 Z m -10.04493,7.76758 c 0,0 -0.71428,2.58984 -7.8125,4.46484 -7.09821,1.875 -15.80468,-1.60742 -15.80468,-1.60742 0,0 4.86602,6.51702 19.0625,2.36523 5.08928,-2.14286 4.55468,-5.22265 4.55468,-5.22265 z m -4.55468,5.22265 c 0,0 -1.65206,3.52679 -8.48243,5 -6.83036,1.4732 -14.19531,0.13477 -14.19531,0.13477 0,0 3.6158,3.08008 14.33008,1.20508 0,0 -2.66993,3.84464 -10.04492,4.6875 -7.37503,0.84286 -14.73242,-0.13281 -14.73242,-0.13281 0,0 3.35736,2.50568 13.25976,1.60546 8.8393,-0.80357 12.00893,-4.10657 12.5,-6.47265 3.49425,-1.01652 5.33147,-2.42536 6.29688,-3.625 1.06972,-1.32926 1.06836,-2.40235 1.06836,-2.40235 z m -12.76758,12.23243 c 0,0 -1.60602,2.41155 -7.63281,2.94726 -6.02676,0.5357 -10.44727,0.13281 -10.44727,0.13281 0,0 5.65142,1.80974 11.91992,1.07227 6.83036,-0.80357 6.16016,-4.15234 6.16016,-4.15234 z"
       transform="scale(0.26458333)" />
    <path
       style="font-variation-settings:normal;opacity:1;vector-effect:none;fill:#4d4d4d;fill-opacity:1;stroke:none;stroke-width:1.03662;stroke-linecap:butt;stroke-linejoin:miter;stroke-miterlimit:5;stroke-dasharray:none;stroke-dashoffset:0;stroke-opacity:1;stop-color:#000000;stop-opacity:1"
       d="m 115.79448,61.672205 c 0,0 0.40957,0.493067 1.29545,2.654617 0.88589,2.161551 1.13393,4.252233 1.13393,4.252233 0,0 0.31892,-0.283483 0.0709,-1.452846 -0.24805,-1.169363 -1.13807,-4.884015 -2.50026,-5.454004 z m 4.69724,8.18252 c 0,0 0.14174,-0.815011 -0.14174,-2.657645 -0.28348,-1.842634 -1.02762,-3.082868 -1.70089,-3.685268 0.98615,1.713931 1.52973,3.979201 1.84263,6.342913 z m 0.0709,-4.075056 c 0,0 1.48828,1.913505 1.52372,5.953125 0,0 0.28345,-0.602399 0.0708,-2.551339 -0.21261,-1.94894 -0.74409,-2.763951 -1.59456,-3.401786 z m 2.3387,2.267857 c 0,0 0.99219,1.523717 0.63784,5.634208 0,0 0.38978,-0.283482 0.38978,-1.736328 0,-1.452846 -0.1063,-3.260046 -1.02762,-3.89788 z m 1.91351,2.090681 c 0,0 0.38978,1.771764 0.0354,4.004186 0,0 0.42525,-0.07087 0.53156,-1.523717 0.10631,-1.452846 -0.1063,-2.232422 -0.56696,-2.480469 z m 1.70089,1.771764 c 0,0 0.42522,1.700893 -0.38979,3.578962 0,0 0.4016,0.283482 0.75595,-0.815011 0.35436,-1.098494 0.0827,-2.62221 -0.36616,-2.763951 z m 1.35835,1.34654 c 0,0 0.24805,1.169364 -0.0709,2.728515 0,0 0.28351,-0.03544 0.46069,-0.921316 0.17717,-0.885882 -0.14174,-1.630023 -0.38979,-1.807199 z"
       id="path1106" />
  </g>
</svg>
