<?xml version="1.0" encoding="UTF-8" standalone="no"?>
<!-- Created with Inkscape (http://www.inkscape.org/) -->

<svg
   xmlns:dc="http://purl.org/dc/elements/1.1/"
   xmlns:cc="http://creativecommons.org/ns#"
   xmlns:rdf="http://www.w3.org/1999/02/22-rdf-syntax-ns#"
   xmlns:svg="http://www.w3.org/2000/svg"
   xmlns="http://www.w3.org/2000/svg"
   xmlns:xlink="http://www.w3.org/1999/xlink"
   xmlns:sodipodi="http://sodipodi.sourceforge.net/DTD/sodipodi-0.dtd"
   xmlns:inkscape="http://www.inkscape.org/namespaces/inkscape"
   width="500"
   height="580"
   id="svg2"
   version="1.1"
   inkscape:version="0.48.5 r10040"
   sodipodi:docname="ähtäri.svg">
  <defs
     id="defs4" />
  <sodipodi:namedview
     id="base"
     pagecolor="#f6f3f1"
     bordercolor="#666666"
     borderopacity="1.0"
     inkscape:pageopacity="0"
     inkscape:pageshadow="2"
     inkscape:zoom="0.98994949"
     inkscape:cx="214.97043"
     inkscape:cy="288.12317"
     inkscape:document-units="px"
     inkscape:current-layer="layer1"
     showgrid="false"
     showborder="true"
     inkscape:window-width="1920"
     inkscape:window-height="1017"
     inkscape:window-x="-8"
     inkscape:window-y="-8"
     inkscape:window-maximized="1"
     inkscape:object-nodes="false"
     fit-margin-top="0"
     fit-margin-left="0"
     fit-margin-right="0"
     fit-margin-bottom="0"
     inkscape:showpageshadow="false" />
  <metadata
     id="metadata7">
    <rdf:RDF>
      <cc:Work
         rdf:about="">
        <dc:format>image/svg+xml</dc:format>
        <dc:type
           rdf:resource="http://purl.org/dc/dcmitype/StillImage" />
        <dc:title></dc:title>
      </cc:Work>
    </rdf:RDF>
  </metadata>
  <g
     inkscape:label="Layer 1"
     inkscape:groupmode="layer"
     id="layer1"
     transform="translate(-73.488597,-224.50504)">
    <g
       id="g4259"
       transform="matrix(0.93398989,0,0,0.93798213,4.8509907,49.893696)">
      <path
         style="color:#000000;fill:#2052b2;fill-opacity:1;stroke:none;stroke-width:1.00247753;marker:none;visibility:visible;display:inline;overflow:visible;enable-background:accumulate"
         d="m 512.81517,699.06125 c 53.71728,-56.61612 64.7661,-120.47475 75.15747,-238.96672 9.85096,-112.32962 20.85366,-242.11835 20.85366,-242.11835 -118.10727,0 -175.28281,-31.81981 -267.66886,-31.81981 -92.38604,0 -149.56158,31.81981 -267.668843,31.81981 0,0 11.002697,129.78873 20.853657,242.11835 10.391376,118.49197 21.440196,182.3506 75.157476,238.96672 53.71729,56.61611 124.97891,74.41031 171.65771,105.44379 46.67881,-31.03348 117.94044,-48.82768 171.65773,-105.44379 z"
         id="path3763"
         inkscape:connector-curvature="0"
         sodipodi:nodetypes="zsczcszcz" />
      <g
         transform="translate(-3.7789429e-6,0)"
         id="g4125">
        <g
           id="g3896">
          <use
             height="1052.3622"
             width="744.09448"
             transform="matrix(0.70710678,0.70710678,-0.70710678,0.70710678,461.24709,-140.91594)"
             id="use3879"
             xlink:href="#g3803"
             y="0"
             x="0" />
          <path
             style="color:#000000;fill:#808080;fill-opacity:1;stroke:none;stroke-width:1;marker:none;visibility:visible;display:inline;overflow:visible;enable-background:accumulate"
             d="m 358.35162,426.0676 c 0,0 -4.9245,17.80394 8.33375,22.72844 l -10.22779,10.6066 -3.03046,-2.27285 0,-26.13769 z"
             id="path4096"
             inkscape:connector-curvature="0" />
          <path
             style="color:#000000;fill:#cccccc;fill-opacity:1;stroke:none;stroke-width:1;marker:none;visibility:visible;display:inline;overflow:visible;enable-background:accumulate"
             d="m 322.23866,462.30683 6.62913,7.00793 c 0,0 2.08344,-0.75762 1.89403,-1.13642 -0.1894,-0.37881 -7.19733,-7.57615 -7.19733,-7.57615 z"
             id="path4121"
             inkscape:connector-curvature="0" />
          <use
             x="0"
             y="0"
             xlink:href="#g3803"
             id="use3894"
             transform="matrix(0.70710678,-0.70710678,0.70710678,0.70710678,-261.40168,341.55355)"
             width="744.09448"
             height="1052.3622" />
          <path
             style="color:#000000;fill:#808080;fill-opacity:1;stroke:none;stroke-width:1;marker:none;visibility:visible;display:inline;overflow:visible;enable-background:accumulate"
             d="m 353.61652,491.60125 c 1.13642,1.13643 6.25032,6.43972 6.25032,6.43972 0,0 -1.13642,-14.39467 3.03046,-19.31916 4.16688,-4.9245 6.81853,-4.54569 6.81853,-4.54569 l -15.9099,-15.9099 z"
             id="path4098"
             inkscape:connector-curvature="0"
             sodipodi:nodetypes="ccsccc" />
          <path
             style="color:#000000;fill:#cccccc;fill-opacity:1;stroke:none;stroke-width:1;marker:none;visibility:visible;display:inline;overflow:visible;enable-background:accumulate"
             d="m 327.35256,456.37218 0,10.98541 c 0,0 1.70463,2.46225 1.70463,1.70463 0,-0.75761 0,-12.50064 0,-12.50064 z"
             id="path4123"
             inkscape:connector-curvature="0" />
        </g>
        <g
           id="g3803"
           transform="translate(-0.02156811,0)">
          <path
             sodipodi:nodetypes="cscccccccccsczc"
             inkscape:connector-curvature="0"
             id="path3786"
             d="m 332.2971,761.02289 c 0,0 -2.97032,-116.26433 -4.02115,-213.36972 -1.05082,-97.10538 1.66884,-216.31614 1.66884,-216.31614 -1.70464,0 -3.03046,-0.85232 -3.03046,-0.85232 l 1.73713,-30.99999 c -13.4316,14.04796 -35.59421,14.48141 -38.41643,11.67803 28.7757,-31.37737 36.14113,-80.24424 50.94399,-114.84661 14.80286,34.60237 22.16829,83.46924 50.94399,114.84661 -2.82222,2.80338 -24.98483,2.36993 -38.41643,-11.67803 l 1.73713,30.99999 c 0,0 -1.32582,0.85232 -3.03046,0.85232 0,0 2.71966,119.21076 1.66884,216.31614 -1.05083,97.10539 -4.02115,213.36972 -4.02115,213.36972 0,0 -3.52565,1.36238 -8.88192,1.36238 -5.35627,0 -8.88192,-1.36238 -8.88192,-1.36238 z"
             style="color:#000000;fill:#cccccc;stroke:none;stroke-width:1;marker:none;visibility:visible;display:inline;overflow:visible;enable-background:accumulate" />
          <g
             id="g3930">
            <g
               id="g3924">
              <path
                 sodipodi:nodetypes="ccscccc"
                 inkscape:connector-curvature="0"
                 id="path3778"
                 d="m 331.29568,591.96332 c 0,0 -14.25398,9.87183 -32.78028,24.93891 0,0 2.00498,74.82803 -0.26786,95.17857 -2.27284,20.35053 -14.01587,31.86971 -14.01587,31.86971 0,0 1.29333,3.6148 3.63117,4.65425 0,0 32.82624,-15.72357 45.70568,-33.77028 z"
                 style="color:#000000;fill:#cccccc;fill-opacity:1;stroke:none;stroke-width:1.00679469;marker:none;visibility:visible;display:inline;overflow:visible;enable-background:accumulate" />
              <g
                 id="g4022">
                <path
                   sodipodi:nodetypes="ccccc"
                   inkscape:connector-curvature="0"
                   id="path3944"
                   d="m 331.98586,693.6384 -32.625,23.75 -0.71875,3.36607 33.16071,-24.28571 z"
                   style="font-size:medium;font-style:normal;font-variant:normal;font-weight:normal;font-stretch:normal;text-indent:0;text-align:start;text-decoration:none;line-height:normal;letter-spacing:normal;word-spacing:normal;text-transform:none;direction:ltr;block-progression:tb;writing-mode:lr-tb;text-anchor:start;baseline-shift:baseline;color:#000000;fill:#808080;fill-opacity:1;stroke:none;stroke-width:2;marker:none;visibility:visible;display:inline;overflow:visible;enable-background:accumulate;font-family:Sans;-inkscape-font-specification:Sans" />
                <path
                   sodipodi:nodetypes="ccccc"
                   style="font-size:medium;font-style:normal;font-variant:normal;font-weight:normal;font-stretch:normal;text-indent:0;text-align:start;text-decoration:none;line-height:normal;letter-spacing:normal;word-spacing:normal;text-transform:none;direction:ltr;block-progression:tb;writing-mode:lr-tb;text-anchor:start;baseline-shift:baseline;color:#000000;fill:#ffffff;fill-opacity:1;stroke:none;stroke-width:2;marker:none;visibility:visible;display:inline;overflow:visible;enable-background:accumulate;font-family:Sans;-inkscape-font-specification:Sans"
                   d="m 332.25372,698.99554 -34.5,25.49107 0.88839,-3.73214 33.16071,-24.28571 z"
                   id="path3948"
                   inkscape:connector-curvature="0" />
                <path
                   style="font-size:medium;font-style:normal;font-variant:normal;font-weight:normal;font-stretch:normal;text-indent:0;text-align:start;text-decoration:none;line-height:normal;letter-spacing:normal;word-spacing:normal;text-transform:none;direction:ltr;block-progression:tb;writing-mode:lr-tb;text-anchor:start;baseline-shift:baseline;color:#000000;fill:#808080;fill-opacity:1;stroke:none;stroke-width:2;marker:none;visibility:visible;display:inline;overflow:visible;enable-background:accumulate;font-family:Sans;-inkscape-font-specification:Sans"
                   d="m 331.98586,673.08811 -32.08929,23.21429 0.45206,2.51376 31.45419,-22.89769 z"
                   id="path4000"
                   inkscape:connector-curvature="0"
                   sodipodi:nodetypes="ccccc" />
                <path
                   inkscape:connector-curvature="0"
                   id="path4002"
                   d="m 332.25372,678.44525 -31.92621,23.45787 0.0687,-3.12163 31.40657,-22.86302 z"
                   style="font-size:medium;font-style:normal;font-variant:normal;font-weight:normal;font-stretch:normal;text-indent:0;text-align:start;text-decoration:none;line-height:normal;letter-spacing:normal;word-spacing:normal;text-transform:none;direction:ltr;block-progression:tb;writing-mode:lr-tb;text-anchor:start;baseline-shift:baseline;color:#000000;fill:#ffffff;fill-opacity:1;stroke:none;stroke-width:2;marker:none;visibility:visible;display:inline;overflow:visible;enable-background:accumulate;font-family:Sans;-inkscape-font-specification:Sans"
                   sodipodi:nodetypes="ccccc" />
                <path
                   sodipodi:nodetypes="ccccc"
                   inkscape:connector-curvature="0"
                   id="path4006"
                   d="m 331.98586,652.53781 -31.20053,22.57134 0.0765,2.78315 30.94104,-22.52413 z"
                   style="font-size:medium;font-style:normal;font-variant:normal;font-weight:normal;font-stretch:normal;text-indent:0;text-align:start;text-decoration:none;line-height:normal;letter-spacing:normal;word-spacing:normal;text-transform:none;direction:ltr;block-progression:tb;writing-mode:lr-tb;text-anchor:start;baseline-shift:baseline;color:#000000;fill:#808080;fill-opacity:1;stroke:none;stroke-width:2;marker:none;visibility:visible;display:inline;overflow:visible;enable-background:accumulate;font-family:Sans;-inkscape-font-specification:Sans" />
                <path
                   sodipodi:nodetypes="ccccc"
                   style="font-size:medium;font-style:normal;font-variant:normal;font-weight:normal;font-stretch:normal;text-indent:0;text-align:start;text-decoration:none;line-height:normal;letter-spacing:normal;word-spacing:normal;text-transform:none;direction:ltr;block-progression:tb;writing-mode:lr-tb;text-anchor:start;baseline-shift:baseline;color:#000000;fill:#ffffff;fill-opacity:1;stroke:none;stroke-width:2;marker:none;visibility:visible;display:inline;overflow:visible;enable-background:accumulate;font-family:Sans;-inkscape-font-specification:Sans"
                   d="m 300.86178,677.8923 30.94104,-22.52413 0.4509,2.52678 -31.63495,23.24387 z"
                   id="path4008"
                   inkscape:connector-curvature="0" />
                <path
                   style="font-size:medium;font-style:normal;font-variant:normal;font-weight:normal;font-stretch:normal;text-indent:0;text-align:start;text-decoration:none;line-height:normal;letter-spacing:normal;word-spacing:normal;text-transform:none;direction:ltr;block-progression:tb;writing-mode:lr-tb;text-anchor:start;baseline-shift:baseline;color:#000000;fill:#808080;fill-opacity:1;stroke:none;stroke-width:2;marker:none;visibility:visible;display:inline;overflow:visible;enable-background:accumulate;font-family:Sans;-inkscape-font-specification:Sans"
                   d="m 301.37493,656.96845 30.42789,-22.15057 0.18304,-2.83036 -30.55897,22.10722 z"
                   id="path4012"
                   inkscape:connector-curvature="0"
                   sodipodi:nodetypes="ccccc" />
                <path
                   inkscape:connector-curvature="0"
                   id="path4014"
                   d="m 301.24748,657.06123 30.55534,-22.24335 0.4509,2.52678 -31.07745,22.83425 z"
                   style="font-size:medium;font-style:normal;font-variant:normal;font-weight:normal;font-stretch:normal;text-indent:0;text-align:start;text-decoration:none;line-height:normal;letter-spacing:normal;word-spacing:normal;text-transform:none;direction:ltr;block-progression:tb;writing-mode:lr-tb;text-anchor:start;baseline-shift:baseline;color:#000000;fill:#ffffff;fill-opacity:1;stroke:none;stroke-width:2;marker:none;visibility:visible;display:inline;overflow:visible;enable-background:accumulate;font-family:Sans;-inkscape-font-specification:Sans"
                   sodipodi:nodetypes="ccccc" />
                <path
                   sodipodi:nodetypes="ccccc"
                   inkscape:connector-curvature="0"
                   id="path4018"
                   d="m 300.52355,637.03794 31.27927,-22.77035 0.18304,-2.83036 -31.46173,22.7603 z"
                   style="font-size:medium;font-style:normal;font-variant:normal;font-weight:normal;font-stretch:normal;text-indent:0;text-align:start;text-decoration:none;line-height:normal;letter-spacing:normal;word-spacing:normal;text-transform:none;direction:ltr;block-progression:tb;writing-mode:lr-tb;text-anchor:start;baseline-shift:baseline;color:#000000;fill:#808080;fill-opacity:1;stroke:none;stroke-width:2;marker:none;visibility:visible;display:inline;overflow:visible;enable-background:accumulate;font-family:Sans;-inkscape-font-specification:Sans" />
                <path
                   sodipodi:nodetypes="ccccc"
                   style="font-size:medium;font-style:normal;font-variant:normal;font-weight:normal;font-stretch:normal;text-indent:0;text-align:start;text-decoration:none;line-height:normal;letter-spacing:normal;word-spacing:normal;text-transform:none;direction:ltr;block-progression:tb;writing-mode:lr-tb;text-anchor:start;baseline-shift:baseline;color:#000000;fill:#ffffff;fill-opacity:1;stroke:none;stroke-width:2;marker:none;visibility:visible;display:inline;overflow:visible;enable-background:accumulate;font-family:Sans;-inkscape-font-specification:Sans"
                   d="m 332.25372,616.79437 -31.3897,23.06367 0.11648,-3.15275 30.82232,-22.4377 z"
                   id="path4020"
                   inkscape:connector-curvature="0" />
              </g>
              <path
                 style="color:#000000;fill:#ffffff;stroke:none;stroke-width:1.00679469;marker:none;visibility:visible;display:inline;overflow:visible;enable-background:accumulate"
                 d="m 331.29568,591.96332 c 0,0 -14.25398,9.87183 -32.78028,24.93891 0,0 2.00498,74.82803 -0.26786,95.17857 -2.27284,20.35053 -14.01587,31.86971 -14.01587,31.86971 0,0 1.29333,3.6148 3.63117,4.65425 l -1.75617,-4.38639 c 0,0 12.14087,-11.78704 14.41371,-32.13757 2.27284,-20.35054 0.26786,-92.90573 0.26786,-92.90573 18.5263,-15.06708 30.50744,-23.42368 30.50744,-23.42368 z"
                 id="path3938"
                 inkscape:connector-curvature="0"
                 sodipodi:nodetypes="ccscccsccc" />
              <path
                 sodipodi:nodetypes="ccccc"
                 inkscape:connector-curvature="0"
                 id="path3942"
                 d="m 287.3326,745.7717 c 0,0 33.35409,-17.41051 46.23045,-35.85624 l 0,2.65165 c -12.87636,18.44573 -45.69474,34.51695 -45.69474,34.51695 z"
                 style="color:#000000;fill:#808080;fill-opacity:1;stroke:none;stroke-width:1.01774216;marker:none;visibility:visible;display:inline;overflow:visible;enable-background:accumulate" />
            </g>
            <g
               id="g4049"
               transform="matrix(-1,0,0,1,682.86144,0)">
              <path
                 style="color:#000000;fill:#cccccc;fill-opacity:1;stroke:none;stroke-width:1.00679469;marker:none;visibility:visible;display:inline;overflow:visible;enable-background:accumulate"
                 d="m 331.29568,591.96332 c 0,0 -14.25398,9.87183 -32.78028,24.93891 0,0 2.00498,74.82803 -0.26786,95.17857 -2.27284,20.35053 -14.01587,31.86971 -14.01587,31.86971 0,0 1.29333,3.6148 3.63117,4.65425 0,0 32.82624,-15.72357 45.70568,-33.77028 z"
                 id="path4051"
                 inkscape:connector-curvature="0"
                 sodipodi:nodetypes="ccscccc" />
              <g
                 id="g4053">
                <path
                   style="font-size:medium;font-style:normal;font-variant:normal;font-weight:normal;font-stretch:normal;text-indent:0;text-align:start;text-decoration:none;line-height:normal;letter-spacing:normal;word-spacing:normal;text-transform:none;direction:ltr;block-progression:tb;writing-mode:lr-tb;text-anchor:start;baseline-shift:baseline;color:#000000;fill:#808080;fill-opacity:1;stroke:none;stroke-width:2;marker:none;visibility:visible;display:inline;overflow:visible;enable-background:accumulate;font-family:Sans;-inkscape-font-specification:Sans"
                   d="m 331.98586,693.6384 -32.625,23.75 -0.71875,3.36607 33.16071,-24.28571 z"
                   id="path4055"
                   inkscape:connector-curvature="0"
                   sodipodi:nodetypes="ccccc" />
                <path
                   inkscape:connector-curvature="0"
                   id="path4057"
                   d="m 332.25372,698.99554 -34.5,25.49107 0.88839,-3.73214 33.16071,-24.28571 z"
                   style="font-size:medium;font-style:normal;font-variant:normal;font-weight:normal;font-stretch:normal;text-indent:0;text-align:start;text-decoration:none;line-height:normal;letter-spacing:normal;word-spacing:normal;text-transform:none;direction:ltr;block-progression:tb;writing-mode:lr-tb;text-anchor:start;baseline-shift:baseline;color:#000000;fill:#ffffff;fill-opacity:1;stroke:none;stroke-width:2;marker:none;visibility:visible;display:inline;overflow:visible;enable-background:accumulate;font-family:Sans;-inkscape-font-specification:Sans"
                   sodipodi:nodetypes="ccccc" />
                <path
                   sodipodi:nodetypes="ccccc"
                   inkscape:connector-curvature="0"
                   id="path4059"
                   d="m 331.98586,673.08811 -32.08929,23.21429 0.45206,2.51376 31.45419,-22.89769 z"
                   style="font-size:medium;font-style:normal;font-variant:normal;font-weight:normal;font-stretch:normal;text-indent:0;text-align:start;text-decoration:none;line-height:normal;letter-spacing:normal;word-spacing:normal;text-transform:none;direction:ltr;block-progression:tb;writing-mode:lr-tb;text-anchor:start;baseline-shift:baseline;color:#000000;fill:#808080;fill-opacity:1;stroke:none;stroke-width:2;marker:none;visibility:visible;display:inline;overflow:visible;enable-background:accumulate;font-family:Sans;-inkscape-font-specification:Sans" />
                <path
                   sodipodi:nodetypes="ccccc"
                   style="font-size:medium;font-style:normal;font-variant:normal;font-weight:normal;font-stretch:normal;text-indent:0;text-align:start;text-decoration:none;line-height:normal;letter-spacing:normal;word-spacing:normal;text-transform:none;direction:ltr;block-progression:tb;writing-mode:lr-tb;text-anchor:start;baseline-shift:baseline;color:#000000;fill:#ffffff;fill-opacity:1;stroke:none;stroke-width:2;marker:none;visibility:visible;display:inline;overflow:visible;enable-background:accumulate;font-family:Sans;-inkscape-font-specification:Sans"
                   d="m 332.25372,678.44525 -31.92621,23.45787 0.0687,-3.12163 31.40657,-22.86302 z"
                   id="path4061"
                   inkscape:connector-curvature="0" />
                <path
                   style="font-size:medium;font-style:normal;font-variant:normal;font-weight:normal;font-stretch:normal;text-indent:0;text-align:start;text-decoration:none;line-height:normal;letter-spacing:normal;word-spacing:normal;text-transform:none;direction:ltr;block-progression:tb;writing-mode:lr-tb;text-anchor:start;baseline-shift:baseline;color:#000000;fill:#808080;fill-opacity:1;stroke:none;stroke-width:2;marker:none;visibility:visible;display:inline;overflow:visible;enable-background:accumulate;font-family:Sans;-inkscape-font-specification:Sans"
                   d="m 331.98586,652.53781 -31.20053,22.57134 0.0765,2.78315 30.94104,-22.52413 z"
                   id="path4063"
                   inkscape:connector-curvature="0"
                   sodipodi:nodetypes="ccccc" />
                <path
                   inkscape:connector-curvature="0"
                   id="path4065"
                   d="m 300.86178,677.8923 30.94104,-22.52413 0.4509,2.52678 -31.63495,23.24387 z"
                   style="font-size:medium;font-style:normal;font-variant:normal;font-weight:normal;font-stretch:normal;text-indent:0;text-align:start;text-decoration:none;line-height:normal;letter-spacing:normal;word-spacing:normal;text-transform:none;direction:ltr;block-progression:tb;writing-mode:lr-tb;text-anchor:start;baseline-shift:baseline;color:#000000;fill:#ffffff;fill-opacity:1;stroke:none;stroke-width:2;marker:none;visibility:visible;display:inline;overflow:visible;enable-background:accumulate;font-family:Sans;-inkscape-font-specification:Sans"
                   sodipodi:nodetypes="ccccc" />
                <path
                   sodipodi:nodetypes="ccccc"
                   inkscape:connector-curvature="0"
                   id="path4067"
                   d="m 301.37493,656.96845 30.42789,-22.15057 0.18304,-2.83036 -30.55897,22.10722 z"
                   style="font-size:medium;font-style:normal;font-variant:normal;font-weight:normal;font-stretch:normal;text-indent:0;text-align:start;text-decoration:none;line-height:normal;letter-spacing:normal;word-spacing:normal;text-transform:none;direction:ltr;block-progression:tb;writing-mode:lr-tb;text-anchor:start;baseline-shift:baseline;color:#000000;fill:#808080;fill-opacity:1;stroke:none;stroke-width:2;marker:none;visibility:visible;display:inline;overflow:visible;enable-background:accumulate;font-family:Sans;-inkscape-font-specification:Sans" />
                <path
                   sodipodi:nodetypes="ccccc"
                   style="font-size:medium;font-style:normal;font-variant:normal;font-weight:normal;font-stretch:normal;text-indent:0;text-align:start;text-decoration:none;line-height:normal;letter-spacing:normal;word-spacing:normal;text-transform:none;direction:ltr;block-progression:tb;writing-mode:lr-tb;text-anchor:start;baseline-shift:baseline;color:#000000;fill:#ffffff;fill-opacity:1;stroke:none;stroke-width:2;marker:none;visibility:visible;display:inline;overflow:visible;enable-background:accumulate;font-family:Sans;-inkscape-font-specification:Sans"
                   d="m 301.24748,657.06123 30.55534,-22.24335 0.4509,2.52678 -31.07745,22.83425 z"
                   id="path4069"
                   inkscape:connector-curvature="0" />
                <path
                   style="font-size:medium;font-style:normal;font-variant:normal;font-weight:normal;font-stretch:normal;text-indent:0;text-align:start;text-decoration:none;line-height:normal;letter-spacing:normal;word-spacing:normal;text-transform:none;direction:ltr;block-progression:tb;writing-mode:lr-tb;text-anchor:start;baseline-shift:baseline;color:#000000;fill:#808080;fill-opacity:1;stroke:none;stroke-width:2;marker:none;visibility:visible;display:inline;overflow:visible;enable-background:accumulate;font-family:Sans;-inkscape-font-specification:Sans"
                   d="m 300.52355,637.03794 31.27927,-22.77035 0.18304,-2.83036 -31.46173,22.7603 z"
                   id="path4071"
                   inkscape:connector-curvature="0"
                   sodipodi:nodetypes="ccccc" />
                <path
                   inkscape:connector-curvature="0"
                   id="path4073"
                   d="m 332.25372,616.79437 -31.3897,23.06367 0.11648,-3.15275 30.82232,-22.4377 z"
                   style="font-size:medium;font-style:normal;font-variant:normal;font-weight:normal;font-stretch:normal;text-indent:0;text-align:start;text-decoration:none;line-height:normal;letter-spacing:normal;word-spacing:normal;text-transform:none;direction:ltr;block-progression:tb;writing-mode:lr-tb;text-anchor:start;baseline-shift:baseline;color:#000000;fill:#ffffff;fill-opacity:1;stroke:none;stroke-width:2;marker:none;visibility:visible;display:inline;overflow:visible;enable-background:accumulate;font-family:Sans;-inkscape-font-specification:Sans"
                   sodipodi:nodetypes="ccccc" />
              </g>
              <path
                 style="color:#000000;fill:#808080;fill-opacity:1;stroke:none;stroke-width:1.00679469;marker:none;visibility:visible;display:inline;overflow:visible;enable-background:accumulate"
                 d="m 383.55489,616.90625 -1.58036,2.14732 c 0,0 -2.69248,72.68964 -0.41964,93.04018 2.27284,20.35053 14.40625,32.125 14.40625,32.125 l -1.71621,1.74703 0.72663,1.11828 c 2.33784,-1.03945 2.86458,-3.14656 2.86458,-3.14656 0,0 -11.72716,-11.49322 -14,-31.84375 -2.27284,-20.35054 -0.28125,-95.1875 -0.28125,-95.1875 z"
                 transform="matrix(-1,0,0,1,682.83987,0)"
                 id="path4093"
                 inkscape:connector-curvature="0"
                 sodipodi:nodetypes="ccsccccsc" />
              <path
                 inkscape:connector-curvature="0"
                 style="color:#000000;fill:#ffffff;stroke:none;stroke-width:1.00679469;marker:none;visibility:visible;display:inline;overflow:visible;enable-background:accumulate"
                 d="m 300.78824,619.17507 c 18.5263,-15.06708 30.50744,-23.42368 30.50744,-23.42368 l 0,-3.78807 c 0,0 -14.25398,9.87183 -32.78028,24.93891"
                 id="path4075" />
              <path
                 style="color:#000000;fill:#808080;fill-opacity:1;stroke:none;stroke-width:1.01774216;marker:none;visibility:visible;display:inline;overflow:visible;enable-background:accumulate"
                 d="m 287.3326,745.7717 c 0,0 33.35409,-17.41051 46.23045,-35.85624 l 0,2.65165 c -12.87636,18.44573 -45.69474,34.51695 -45.69474,34.51695 z"
                 id="path4077"
                 inkscape:connector-curvature="0"
                 sodipodi:nodetypes="ccccc" />
            </g>
          </g>
          <path
             style="color:#000000;fill:#808080;stroke:none;stroke-width:1;marker:none;visibility:visible;display:inline;overflow:visible;enable-background:accumulate"
             d="m 341.28125,200.6875 c 0,0 1.74619,26.89118 2.125,43.9375 0.37881,17.04633 0.0122,23.86517 1.90625,31.0625 1.89403,7.19734 4.125,22.34232 4.125,31.8125 l 0,19.875 -3.03125,0.40625 c 0,0 0.74173,-21.71304 -1.84375,-32.65625 -2.48101,-10.50106 -3.13393,-19.37054 -3.3125,-20.53125 0,0 -0.79911,9.91965 1.34375,19.5625 2.14286,9.64286 1.875,34 1.875,34 0,0 -10.75,0.58482 -14.5,1.65625 0,0 0.82589,1.3125 4.84375,1.3125 4.01786,0 12.56909,0.2501 13.875,0.1875 l -1.28125,425.40625 c -0.68905,0 -1.34184,0.0425 -2,0.0625 l 1.0625,-418.34375 c -0.24607,-2.11883 -0.50394,-3.28556 -0.75,-4.75 l -0.75,4.625 -1.0625,418.53125 c -5.12413,0.30631 -9.17029,1.40243 -11.625,4.1875 0,0 3.65266,0.94196 9.00893,0.94196 5.35627,0 7.9375,-1.34375 7.9375,-1.34375 0,0 2.26876,-115.48901 3.31959,-212.5944 1.05082,-97.10538 -1.48477,-217.44131 -1.48477,-217.44131 1.70464,0 3.03125,-0.875 3.03125,-0.875 L 352.75,297.78125 c 13.69946,10.56582 33.30278,14.83463 36.125,12.03125 -28.7757,-31.37737 -32.65696,-74.88125 -47.59375,-109.125 z m 2.15625,9.28125 c 2.25127,5.48781 17.06408,57.01539 23.125,71.03125 6.06091,14.01587 17.40625,26.875 17.40625,26.875 -21.97082,-1.51523 -31.4375,-12.9375 -31.4375,-12.9375 -2.46119,-8.8926 -6.15988,-19.67504 -6.71875,-30.75 -0.55706,-11.03917 -2.375,-54.21875 -2.375,-54.21875 z m -14.5,83.8125 c 0,0 -12.31808,13.68593 -34.5625,15.6875 7.70645,0.74751 23.6836,-1.88622 34.25,-12.9375 z"
             transform="translate(0.02157082,0)"
             id="path3812"
             inkscape:connector-curvature="0"
             sodipodi:nodetypes="csssccscsccsccccccccscsccccccsccsccccc" />
          <path
             style="color:#000000;fill:#ffffff;stroke:none;stroke-width:1;marker:none;visibility:visible;display:inline;overflow:visible;enable-background:accumulate"
             d="m 341.17902,196.31614 c -14.80286,34.60237 -22.16829,83.46924 -50.94399,114.84661 28.01809,-17.74031 37.08257,-70.89289 48.67115,-101.20955 0,0 -1.82048,43.19829 -2.37754,54.23746 -0.65786,13.03663 -5.65302,25.6764 -7.87718,35.29406 l -1.73713,30.99999 c 0,0 1.32582,0.85232 3.03046,0.85232 0,0 -2.71966,119.21076 -1.66884,216.31614 1.05083,97.10539 4.02115,213.36972 4.02115,213.36972 1.45057,-3.13014 4.23154,-4.82481 4.23154,-4.82481 l -2.58852,-421.99122 -5.3033,-4.54569 3.4724,-2.27284 c 0,0 0,-10.4172 0,-19.88738 0,-9.47018 3.03046,-24.62247 4.92449,-31.81981 1.89404,-7.19733 1.51523,-14.01586 1.89404,-31.06219 0.37881,-17.04632 2.25127,-48.30281 2.25127,-48.30281 z"
             id="path3808"
             inkscape:connector-curvature="0"
             sodipodi:nodetypes="cccscccsc" />
        </g>
      </g>
      <g
         transform="translate(-1.4178194,0)"
         id="g4253">
        <g
           id="g4203">
          <path
             inkscape:transform-center-y="-37.243582"
             style="color:#000000;fill:#d2a863;fill-opacity:1;stroke:none;stroke-width:0.98318028;marker:none;visibility:visible;display:inline;overflow:visible;enable-background:accumulate"
             d="m 194.61511,428.02624 c 3.51759,-3.88887 10.69743,-12.38722 7.90055,-21.33151 -2.79686,-8.94429 -9.78542,-8.67412 -13.95765,-10.79742 -4.17222,-2.12333 -2.54684,-3.39667 -6.58872,-5.79374 -4.04187,2.39707 -2.41649,3.67041 -6.58871,5.79374 -4.17223,2.1233 -11.16079,1.85313 -13.95765,10.79742 -2.79688,8.94429 4.38296,17.44264 7.90055,21.33151 4.14339,4.58072 3.95028,6.84714 3.20201,10.02429 -3.25286,-0.27015 -5.46803,-0.78685 -8.54418,-6.14297 -2.61154,-4.54715 -8.47526,-14.00172 -17.84607,-14.10567 -9.3708,-0.10396 -11.27344,6.62604 -14.5821,9.93793 -3.3087,3.31187 -4.01745,1.37256 -7.5462,4.47588 1.03074,4.58478 2.74403,3.43244 3.47415,8.0566 0.73009,4.62416 -1.68645,11.18719 5.9558,16.6111 7.64224,5.42393 17.94335,1.22163 22.72888,-0.92207 5.6369,-2.52508 7.73272,-1.64106 10.52314,0.0524 -1.26213,3.01018 -2.43806,4.95726 -8.48262,6.22771 -5.13161,1.07858 -15.93542,3.73368 -18.93002,12.61373 -2.99462,8.88004 2.81805,12.76924 4.94541,16.9394 2.12733,4.17018 0.0639,4.24496 1.92491,8.55999 4.6789,0.43648 4.11239,-1.54905 8.73585,-0.81449 4.62345,0.73459 10.11851,5.06093 17.63854,-0.5312 7.52005,-5.59212 6.70664,-16.68763 6.14667,-21.90138 -0.65959,-6.1413 0.82881,-7.86137 3.30165,-9.99191 2.47283,2.13054 3.96123,3.85061 3.30163,9.99191 -0.55996,5.21375 -1.37337,16.30927 6.14667,21.90138 7.52003,5.59213 13.01509,1.26579 17.63854,0.5312 4.62346,-0.73456 4.05695,1.25097 8.73586,0.81448 1.86098,-4.31502 -0.20243,-4.3898 1.92491,-8.55998 2.12736,-4.17016 7.94002,-8.05936 4.94541,-16.9394 -2.9946,-8.88004 -13.79842,-11.53515 -18.93003,-12.61372 -6.04455,-1.27046 -7.22049,-3.21754 -8.4826,-6.22772 2.79041,-1.69343 4.88623,-2.57746 10.52314,-0.0524 4.78553,2.1437 15.08663,6.346 22.72887,0.92207 7.64225,-5.42391 5.22572,-11.98694 5.95581,-16.6111 0.73012,-4.62416 2.4434,-3.47182 3.47414,-8.05661 -3.52875,-3.10331 -4.2375,-1.164 -7.54619,-4.47587 -3.30867,-3.31189 -5.21131,-10.04189 -14.58211,-9.93793 -9.37081,0.10395 -15.23453,9.55852 -17.84607,14.10567 -3.07614,5.35612 -5.29131,5.87282 -8.54419,6.14297 -0.74826,-3.17715 -0.94137,-5.44357 3.20202,-10.02429 z"
             id="path4172"
             inkscape:connector-curvature="0"
             sodipodi:nodetypes="szzczzscszzczzscszzczzscszzczzscszzczzscs" />
          <path
             sodipodi:nodetypes="czzscszzccszzccscccscczsccssccssscsssscssccsscs"
             inkscape:connector-curvature="0"
             id="path4190"
             d="m 166.68891,456.01373 c -1.26213,3.01018 -2.43806,4.95726 -8.48262,6.22771 -5.13161,1.07858 -15.93542,3.73368 -18.93002,12.61373 -2.99462,8.88004 2.81805,12.76924 4.94541,16.9394 2.12733,4.17018 0.0639,4.24496 1.92491,8.55999 0,0 2.60341,-3.70666 0.99627,-8.26024 -1.60715,-4.55357 -7.78387,-6.59046 -5.08929,-16.35832 2.69458,-9.76786 12.32143,-9.0881 20.08929,-12.57025 7.76785,-3.48214 4.54605,-7.15202 4.54605,-7.15202 z m 15.28039,11.10185 c 2.47283,2.13054 3.96123,3.85061 3.30163,9.99191 -0.55996,5.21375 -1.37337,16.30927 6.14667,21.90138 3.76001,2.79606 7.01379,3.11251 9.90549,2.63812 -19.48048,-5.44733 -12.39452,-19.99909 -13.19809,-27.49909 -0.80357,-7.5 -6.1557,-7.03232 -6.1557,-7.03232 z m 42.69302,7.73959 c -2.9946,-8.88004 -13.79842,-11.53515 -18.93003,-12.61372 -6.04455,-1.27046 -7.22049,-3.21754 -8.4826,-6.22772 0,0 -1.62469,6.61631 8.01817,8.22345 9.64285,1.60714 19.39446,10.61799 19.39446,10.61799 z m 15.26933,-42.63948 c -3.52875,-3.10331 -4.2375,-1.164 -7.54619,-4.47587 -3.30867,-3.31189 -5.21131,-10.04189 -14.58211,-9.93793 -9.37081,0.10395 -15.23453,9.55852 -17.84607,14.10567 -3.07614,5.35612 -5.29131,5.87282 -8.54419,6.14297 0,0 4.21191,3.95451 7.96191,-0.59906 3.75,-4.55357 5.35714,-12.58929 12.32143,-15.80357 6.96428,-3.21429 12.85714,-0.80358 16.07143,3.75 3.21428,4.55357 4.50615,7.20701 12.16379,6.81779 z m -57.96236,-42.11212 c -4.04187,2.39707 -2.41649,3.67041 -6.58871,5.79374 -4.17223,2.1233 -11.16079,1.85313 -13.95765,10.79742 -2.79688,8.94429 4.38296,17.44264 7.90055,21.33151 4.14339,4.58072 3.95028,6.84714 3.20201,10.02429 0,0 2.20665,-0.33121 2.20665,-3.54549 0,-3.21429 -6.16071,-9.64286 -8.57143,-13.39286 -2.41071,-3.75 -5.35714,-11.51786 -1.07142,-17.67857 4.28571,-6.16071 10.98214,-5.35714 13.92857,-7.5 2.94643,-2.14286 2.95143,-5.83004 2.95143,-5.83004 z m -35.83405,27.69832 c -9.3708,-0.10396 -11.27344,6.62604 -14.5821,9.93793 -3.3087,3.31187 -4.01745,1.37256 -7.5462,4.47588 -0.13698,0.16536 0.62063,2.6276 0.62063,2.6276 0,0 1.52903,-2.23313 7.19734,-3.59867 3.09377,-0.74531 5.78736,-9.44198 11.48914,-10.55739 4.48535,-0.87744 11.13777,2.36539 20.59366,11.26766 -2.53794,-4.59449 -8.40166,-14.04906 -17.77247,-14.15301 z"
             style="color:#000000;fill:#ffffff;stroke:none;stroke-width:0.98318028;marker:none;visibility:visible;display:inline;overflow:visible;enable-background:accumulate"
             inkscape:transform-center-y="-37.243582" />
        </g>
        <use
           x="0"
           y="0"
           xlink:href="#g4203"
           id="use4207"
           transform="translate(321.22851,0)"
           width="744.09448"
           height="1052.3622" />
      </g>
    </g>
  </g>
</svg>
