<?xml version="1.0" encoding="UTF-8" standalone="no"?>
<svg
   xmlns:dc="http://purl.org/dc/elements/1.1/"
   xmlns:cc="http://creativecommons.org/ns#"
   xmlns:rdf="http://www.w3.org/1999/02/22-rdf-syntax-ns#"
   xmlns:svg="http://www.w3.org/2000/svg"
   xmlns="http://www.w3.org/2000/svg"
   width="500"
   height="588"
   viewBox="0 0 132.29166 155.575"
   version="1.1"
   id="svg847">
  <defs
     id="defs841" />
  <metadata
     id="metadata844">
    <rdf:RDF>
      <cc:Work
         rdf:about="">
        <dc:format>image/svg+xml</dc:format>
        <dc:type
           rdf:resource="http://purl.org/dc/dcmitype/StillImage" />
        <dc:title></dc:title>
      </cc:Work>
    </rdf:RDF>
  </metadata>
  <path
     id="path844"
     style="fill:#dfdfdf;fill-opacity:1;fill-rule:evenodd;stroke:#df2020;stroke-width:1.05833;stroke-miterlimit:5;stroke-dasharray:none;stroke-opacity:1;paint-order:normal"
     d="M 0.52916503,0.52916503 V 89.428659 c 0,36.238981 29.37821497,65.617181 65.61721397,65.617181 36.238991,0 65.616121,-29.3782 65.616121,-65.617181 V 0.52916503 Z" />
  <path
     id="path995"
     style="fill:#df2020;fill-opacity:1;fill-rule:evenodd;stroke:none;stroke-width:1.66001;stroke-miterlimit:5;stroke-dasharray:none;stroke-opacity:1;paint-order:markers stroke fill"
     d="M 0.52898903,0.52903303 V 89.428519 c 0,33.864711 25.65591197,61.735521 58.59022097,65.242531 V 141.05637 H 73.172099 V 127.00349 H 59.11921 V 112.95111 H 73.172099 V 98.898219 H 59.11921 V 84.845849 H 73.172099 V 70.791929 H 59.11921 V 56.739559 H 73.172099 V 42.687179 H 59.11921 V 28.634299 H 73.172099 V 14.581919 H 59.11921 V 0.52903303 Z" />
  <path
     style="font-variation-settings:normal;vector-effect:none;fill:#dfdfdf;fill-opacity:1;stroke:none;stroke-width:0.276669;stroke-linecap:butt;stroke-linejoin:miter;stroke-miterlimit:5;stroke-dasharray:none;stroke-dashoffset:0;stroke-opacity:1;stop-color:#000000"
     d="m 52.033698,20.837799 4.80495,3.89665 c -8.11611,9.15604 -17.329643,24.67703 -17.329643,41.48601 0,16.80898 9.213533,32.32997 17.329643,41.486011 l -4.80495,3.89666 C 41.639709,100.23614 33.990812,85.936669 32.040263,71.838509 30.089725,85.936669 22.440827,100.23614 12.046822,111.60313 l -4.804933,-3.89666 c 8.116092,-9.156041 17.329643,-24.677031 17.329643,-41.486011 0,-16.80898 -9.213551,-32.32997 -17.329643,-41.48601 l 4.804933,-3.89665 c 10.394005,11.36698 18.042903,25.66645 19.993441,39.76461 1.950549,-14.09816 9.599446,-28.39763 19.993435,-39.76461 z"
     id="path858" />
  <path
     id="rect853"
     style="fill:#dfdfdf;fill-opacity:1;fill-rule:evenodd;stroke:#df2020;stroke-width:0.529167;stroke-miterlimit:5;stroke-dasharray:none;stroke-opacity:1;paint-order:normal"
     d="m 18.782326,62.612389 h 26.515871 v 7.21614 H 18.782326 Z" />
</svg>
