<?xml version="1.0" encoding="UTF-8" standalone="no"?>
<svg
   xmlns:dc="http://purl.org/dc/elements/1.1/"
   xmlns:cc="http://creativecommons.org/ns#"
   xmlns:rdf="http://www.w3.org/1999/02/22-rdf-syntax-ns#"
   xmlns:svg="http://www.w3.org/2000/svg"
   xmlns="http://www.w3.org/2000/svg"
   width="500"
   height="572"
   viewBox="0 0 132.29166 151.34168"
   version="1.1"
   id="svg847">
  <defs
     id="defs841" />
  <metadata
     id="metadata844">
    <rdf:RDF>
      <cc:Work
         rdf:about="">
        <dc:format>image/svg+xml</dc:format>
        <dc:type
           rdf:resource="http://purl.org/dc/dcmitype/StillImage" />
        <dc:title></dc:title>
      </cc:Work>
    </rdf:RDF>
  </metadata>
  <g
     id="layer1"
     transform="translate(-38.301022,-20.702095)">
    <path
       id="circle848"
       style="opacity:1;fill:#045cd2;fill-opacity:1;stroke:none;stroke-width:0.264583"
       d="m 38.301022,20.702095 v 85.195835 c 10e-6,36.53133 29.6145,66.14583 66.145838,66.14583 36.53132,0 66.14583,-29.6145 66.14583,-66.14583 V 20.702095 Z" />
    <path
       id="path1719"
       style="font-variation-settings:normal;opacity:1;vector-effect:none;fill:#cccccc;fill-opacity:1;stroke:none;stroke-width:0.500001;stroke-linecap:butt;stroke-linejoin:miter;stroke-miterlimit:10;stroke-dasharray:none;stroke-dashoffset:0;stroke-opacity:1;stop-color:#000000;stop-opacity:1"
       d="m 37.390625,337.25 c -13.480112,0 -22.810505,9.7 -33.2851562,16.72461 C 20.781384,474.88263 124.50696,568.00391 250,568.00391 c 125.49297,0 229.21863,-93.12128 245.89453,-214.0293 C 485.41986,346.95 476.08944,337.25 462.60938,337.25 c -21.11645,0 -32.0359,23.83398 -53.15235,23.83398 -21.11641,0 -32.03593,-23.83398 -53.15234,-23.83398 -21.11645,0 -32.0359,23.83398 -53.15235,23.83398 -21.11641,0 -32.03586,-23.83398 -53.15234,-23.83398 -21.1164,0 -32.0359,23.83398 -53.15234,23.83398 -21.11645,0 -32.03594,-23.83398 -53.15235,-23.83398 -21.11644,0 -32.03593,23.83398 -53.152341,23.83398 -21.116481,0 -32.035935,-23.83398 -53.152344,-23.83398 z"
       transform="matrix(0.26458334,0,0,0.26458334,38.301022,21.231262)" />
  </g>
</svg>
