<?xml version="1.0" encoding="UTF-8" standalone="no"?>
<svg xmlns:dc="http://purl.org/dc/elements/1.1/" xmlns:cc="http://creativecommons.org/ns#" xmlns:rdf="http://www.w3.org/1999/02/22-rdf-syntax-ns#" xmlns:svg="http://www.w3.org/2000/svg" xmlns="http://www.w3.org/2000/svg" xmlns:sodipodi="http://sodipodi.sourceforge.net/DTD/sodipodi-0.dtd" xmlns:inkscape="http://www.inkscape.org/namespaces/inkscape" inkscape:version="1.0 (4035a4fb49, 2020-05-01)" sodipodi:docname="alavus.svg" id="svg8" version="1.1" viewBox="0 0 132.29166 142.08125" height="537" width="500">
  <defs id="defs2"/>
  <sodipodi:namedview inkscape:object-nodes="true" inkscape:showpageshadow="false" inkscape:window-maximized="1" inkscape:window-y="-8" inkscape:window-x="-8" inkscape:window-height="1017" inkscape:window-width="1920" units="px" showgrid="false" inkscape:document-rotation="0" inkscape:current-layer="g2331" inkscape:document-units="px" inkscape:cy="251.19851" inkscape:cx="240.32518" inkscape:zoom="0.9134936" inkscape:pageshadow="2" inkscape:pageopacity="0.0" borderopacity="1.0" bordercolor="#666666" pagecolor="#ffffff" id="base" inkscape:snap-others="false" inkscape:lockguides="true"/>
  <metadata id="metadata5">
    <rdf:RDF>
      <cc:Work rdf:about="">
        <dc:format>image/svg+xml</dc:format>
        <dc:type rdf:resource="http://purl.org/dc/dcmitype/StillImage"/>
        <dc:title/>
      </cc:Work>
    </rdf:RDF>
  </metadata>
  <g transform="translate(-8.3853652,-27.518458)" id="layer1" inkscape:groupmode="layer" inkscape:label="Шар 1">
    <g style="stroke-width:1.17715" transform="matrix(0.84951247,0,0,0.84951247,1.2618929,4.1411848)" id="g2331">
      <path id="path1570" d="m 164.11194,27.518458 c 0,0 -7.33031,82.361192 -9.81152,108.075802 -2.4812,25.71459 -26.98298,59.17454 -68.05176,59.17454 -41.068786,0 -65.570581,-33.45995 -68.051776,-59.17454 C 15.715698,109.87965 8.3853652,27.518458 8.3853652,27.518458 Z" style="font-variation-settings:normal;opacity:1;vector-effect:none;fill:#005dbd;fill-opacity:1;fill-rule:evenodd;stroke:none;stroke-width:0.311453;stroke-linecap:butt;stroke-linejoin:miter;stroke-miterlimit:4;stroke-dasharray:none;stroke-dashoffset:0;stroke-opacity:1;marker:none;marker-start:none;marker-mid:none;marker-end:none;stop-color:#000000;stop-opacity:1" sodipodi:nodetypes="cszscc"/>
      <path id="path1572" style="font-variation-settings:normal;opacity:1;vector-effect:none;fill:#cccccc;fill-opacity:1;fill-rule:evenodd;stroke:none;stroke-width:1.17714;stroke-linecap:butt;stroke-linejoin:miter;stroke-miterlimit:4;stroke-dasharray:none;stroke-dashoffset:0;stroke-opacity:1;marker:none;marker-start:none;marker-mid:none;marker-end:none;stop-color:#000000;stop-opacity:1" d="m 279.14844,126.84766 c 0,0 15.18945,15.6523 15.18945,42.74609 v 35.66211 h -41.66211 c -27.09379,0 -42.74609,-15.18945 -42.74609,-15.18945 v 93.66211 c 0,0 15.6523,-15.1875 42.74609,-15.1875 h 41.66211 l -6.8457,68.63476 c -31.45683,1.08309 -56.39808,26.89758 -56.39844,58.37305 -3.4e-4,10.94547 3.07486,21.67079 8.875,30.95312 -6.78543,-2.65647 -14.00803,-4.01977 -21.29492,-4.01953 -32.25794,5e-5 -58.40815,26.15027 -58.40821,58.4082 2.4e-4,10.94566 3.07613,21.671 8.87696,30.95313 -6.7853,-2.65713 -14.0079,-4.0211 -21.29492,-4.02148 -32.25794,6e-5 -58.408147,26.15026 -58.408207,58.4082 1.5e-5,7.73052 1.516332,15.10234 4.244141,21.85547 37.083926,75.64604 117.353856,145.73047 232.294926,145.73047 114.95012,0 195.22466,-70.09517 232.30468,-145.74805 2.72327,-6.7483 4.23631,-14.11418 4.23633,-21.83789 6e-5,-32.25793 -26.15027,-58.40814 -58.4082,-58.4082 -7.28702,3.8e-4 -14.50962,1.36435 -21.29492,4.02148 5.80082,-9.28213 8.87671,-20.00747 8.87695,-30.95313 -6e-5,-32.25792 -26.15027,-58.40814 -58.4082,-58.4082 -7.2869,-2.4e-4 -14.5095,1.36306 -21.29493,4.01953 5.80014,-9.28233 8.87534,-20.00765 8.875,-30.95312 -3.6e-4,-31.47547 -24.9416,-57.28995 -56.39843,-58.37305 l -6.84571,-68.63476 h 41.66211 c 27.09377,0 42.7461,15.1875 42.7461,15.1875 v -93.66211 c 0,0 -15.65233,15.18945 -42.7461,15.18945 h -41.66211 v -35.66211 c 0,-27.09379 15.18946,-42.74609 15.18946,-42.74609 z" transform="scale(0.26458333)" sodipodi:nodetypes="cscsccsccccccccscscsccccccccsccscscc"/>
      <path id="path1658" style="font-variation-settings:normal;opacity:1;vector-effect:none;fill:#ffffff;fill-opacity:1;fill-rule:evenodd;stroke:none;stroke-width:1.17714;stroke-linecap:butt;stroke-linejoin:miter;stroke-miterlimit:4;stroke-dasharray:none;stroke-dashoffset:0;stroke-opacity:1;marker:none;marker-start:none;marker-mid:none;marker-end:none;stop-color:#000000;stop-opacity:1" d="m 279.14844,126.84766 c 0,0 15.18945,15.6523 15.18945,42.74609 v 35.66211 h -41.66211 c -27.09379,0 -42.74609,-15.18945 -42.74609,-15.18945 v 93.66211 l 4,-8 v -77.66211 c 0,0 11.65232,11.18945 38.74609,11.18945 h 45.66211 v -39.66211 c 1.51709,-27.05128 -11.18945,-38.74609 -11.18945,-38.74609 h 77.66015 l 8.00196,-4 z m 162.88086,63.21875 c 0,0 -15.65233,15.18945 -42.7461,15.18945 h -41.66211 l -4.00195,4 h 45.66211 c 27.09377,0 38.74609,-11.18945 38.74609,-11.18945 z m -143.69141,74.47461 -4,4 -6.8457,68.63476 c -31.45683,1.08309 -56.39808,26.89758 -56.39844,58.37305 -3.4e-4,10.94547 3.07486,21.67079 8.875,30.95312 -6.78543,-2.65647 -14.00803,-4.01977 -21.29492,-4.01953 -32.25794,5e-5 -58.40815,26.1503 -58.40821,58.4082 2.4e-4,10.94566 3.07613,21.671 8.87696,30.95313 -6.7853,-2.65713 -14.0079,-4.0211 -21.29492,-4.02148 -32.25794,6e-5 -58.408147,26.15026 -58.408207,58.4082 1.5e-5,7.73052 1.516332,15.10234 4.244141,21.85547 1.469876,2.99834 3.016052,5.98604 4.621094,8.96289 -1.429519,-5.74746 -2.195313,-11.75664 -2.195313,-17.94727 9.8e-5,-41.1137 20.178885,-65.5566 56.605465,-65.55664 8.22869,4.6e-4 16.38472,1.54053 24.04688,4.54102 -6.55045,-10.48162 -12.02512,-23.60638 -12.02539,-34.95313 8e-5,-33.43997 22.13595,-55.16988 58.5625,-55.16992 8.22855,-3e-4 16.38263,1.53929 24.04492,4.53906 -6.54968,-10.48187 -12.02187,-22.5932 -12.02148,-34.95312 3.8e-4,-35.543 24.71308,-55.28996 56.16992,-56.37305 z m 66.12891,72.63476 -4.00196,4 c 18.10212,0.62327 33.93711,7.4605 44.14844,19.89844 -0.29167,-1.07773 -0.27624,-1.05355 -0.57422,-2.14844 -0.56917,-2.09137 -1.07717,-3.8541 -1.64453,-5.91016 -9.97637,-9.37284 -23.21749,-15.33335 -37.92773,-15.83984 z m 68.81836,85.30664 c -7.2869,-2.4e-4 -14.5095,1.36306 -21.29493,4.01953 l -7.37695,6 c 7.66231,-2.99977 15.81636,-4.53936 24.04492,-4.53906 21.73821,2e-5 38.3305,7.78484 48.22266,21.13281 -1.55179,-4.36659 -2.0491,-5.66318 -3.96875,-11.02734 -10.41685,-9.64429 -24.31159,-15.58591 -39.62695,-15.58594 z m 70.82617,85.33985 c -7.28702,3.8e-4 -14.50962,1.36435 -21.29492,4.02148 l -7.6211,6.24219 c 7.66216,-3.00049 15.81817,-4.54056 24.04688,-4.54102 16.79007,2e-5 30.07881,5.25002 39.58008,14.875 l -5.53907,-12.74023 c -8.59075,-4.96916 -18.53379,-7.8574 -29.17187,-7.85742 z" transform="scale(0.26458333)"/>
      <path id="path1684" style="font-variation-settings:normal;opacity:1;vector-effect:none;fill:#808080;fill-opacity:1;fill-rule:evenodd;stroke:none;stroke-width:1.17714;stroke-linecap:butt;stroke-linejoin:miter;stroke-miterlimit:4;stroke-dasharray:none;stroke-dashoffset:0;stroke-opacity:1;marker:none;marker-start:none;marker-mid:none;marker-end:none;stop-color:#000000;stop-opacity:1" d="m 372.81055,126.84766 -8.00196,4 c 0,0 -12.70654,11.69481 -11.18945,38.74609 v 39.66211 l 4.00195,-4 v -35.66211 c 0,-27.09379 15.18946,-42.74609 15.18946,-42.74609 z m 69.21875,63.21875 -4.00196,8 v 77.66211 c 0,0 -11.65232,-11.1875 -38.74609,-11.1875 h -45.66211 l 6.8457,76.63476 4.00196,-4 -6.84571,-68.63476 h 41.66211 c 27.09377,0 42.7461,15.1875 42.7461,15.1875 z m -189.35352,74.47461 c -27.09379,0 -38.74609,11.1875 -38.74609,11.1875 l -4,8 c 0,0 15.6523,-15.1875 42.74609,-15.1875 h 41.66211 l 4,-4 z m 149.71875,88.4746 c 0.56736,2.05606 1.07536,3.81879 1.64453,5.91016 0.29798,1.09489 0.28255,1.07071 0.57422,2.14844 7.53336,9.17602 12.02132,21.38513 12.02149,36.47461 3.7e-4,12.35992 -5.47179,24.47125 -12.02149,34.95312 l 7.37695,-6 c 5.80014,-9.28233 8.87534,-20.00765 8.875,-30.95312 -1.9e-4,-16.75651 -7.1133,-31.86287 -18.4707,-42.53321 z m 70.51758,85.05274 c 1.91965,5.36416 2.41696,6.66075 3.96875,11.02734 6.68404,9.0191 10.33981,20.55307 10.33984,34.03711 -2.6e-4,11.34675 -5.47494,24.47151 -12.02539,34.95313 l 7.6211,-6.24219 c 5.80082,-9.28213 8.87671,-20.00747 8.87695,-30.95313 -3e-5,-16.94254 -7.25765,-32.1533 -18.78125,-42.82226 z m 60.37109,77.61133 5.53907,12.74023 c 11.112,11.2567 17.02532,28.51846 17.02539,50.68164 0,6.19195 -0.76521,12.2026 -2.19532,17.95117 1.6088,-2.98371 3.15786,-5.97907 4.63086,-8.98437 2.72327,-6.7483 4.23631,-14.11418 4.23633,-21.83789 4e-5,-21.61985 -11.77728,-40.45193 -29.23633,-50.55078 z" transform="scale(0.26458333)"/>
    </g>
  </g>
</svg>