<?xml version="1.0" encoding="UTF-8" standalone="no"?>
<!-- Created with Inkscape (http://www.inkscape.org/) -->

<svg
   xmlns:dc="http://purl.org/dc/elements/1.1/"
   xmlns:cc="http://creativecommons.org/ns#"
   xmlns:rdf="http://www.w3.org/1999/02/22-rdf-syntax-ns#"
   xmlns:svg="http://www.w3.org/2000/svg"
   xmlns="http://www.w3.org/2000/svg"
   xmlns:xlink="http://www.w3.org/1999/xlink"
   xmlns:sodipodi="http://sodipodi.sourceforge.net/DTD/sodipodi-0.dtd"
   xmlns:inkscape="http://www.inkscape.org/namespaces/inkscape"
   width="500"
   height="565"
   id="svg2"
   version="1.1"
   inkscape:version="0.48.5 r10040"
   sodipodi:docname="asikkala.svg">
  <defs
     id="defs4" />
  <sodipodi:namedview
     id="base"
     pagecolor="#f6f3f1"
     bordercolor="#666666"
     borderopacity="1.0"
     inkscape:pageopacity="0"
     inkscape:pageshadow="2"
     inkscape:zoom="0.49497475"
     inkscape:cx="-145.1793"
     inkscape:cy="435.38618"
     inkscape:document-units="px"
     inkscape:current-layer="layer1"
     showgrid="false"
     showborder="true"
     inkscape:window-width="1920"
     inkscape:window-height="1017"
     inkscape:window-x="-8"
     inkscape:window-y="-8"
     inkscape:window-maximized="1"
     fit-margin-top="0"
     fit-margin-left="0"
     fit-margin-right="0"
     fit-margin-bottom="0"
     inkscape:showpageshadow="false">
    <inkscape:grid
       type="xygrid"
       id="grid3765"
       empspacing="5"
       visible="true"
       enabled="true"
       snapvisiblegridlinesonly="true"
       originx="-92.156251px"
       originy="-311.42468px" />
  </sodipodi:namedview>
  <metadata
     id="metadata7">
    <rdf:RDF>
      <cc:Work
         rdf:about="">
        <dc:format>image/svg+xml</dc:format>
        <dc:type
           rdf:resource="http://purl.org/dc/dcmitype/StillImage" />
        <dc:title />
      </cc:Work>
    </rdf:RDF>
  </metadata>
  <g
     inkscape:label="Layer 1"
     inkscape:groupmode="layer"
     id="layer1"
     transform="translate(-92.156251,-175.9375)">
    <g
       id="g4143"
       transform="matrix(0.94854162,0,0,0.94843414,4.7422119,38.207081)">
      <g
         id="g4139">
        <path
           style="color:#000000;fill:#da1d17;fill-opacity:1;stroke:none;stroke-width:1;marker:none;visibility:visible;display:inline;overflow:visible;enable-background:accumulate"
           d="m 92.15625,145.21875 0,342.84375 c 0,48.22065 21.34706,114.40289 67.5625,166.96875 l 196,-217.4375 z m 263.5625,292.375 L 551.6875,655 c 46.21021,-52.56448 67.59375,-118.71947 67.59375,-166.9375 l 0,-342.84375 z"
           id="path4017"
           inkscape:connector-curvature="0"
           sodipodi:nodetypes="cscccccscc" />
        <path
           style="color:#000000;fill:#dadada;fill-opacity:1;stroke:none;stroke-width:1;marker:none;visibility:visible;display:inline;overflow:visible;enable-background:accumulate"
           d="m 92.15625,145.21875 236.75,262.65625 26.8125,29.71875 263.5625,-292.375 -527.125,0 z m 263.5625,292.375 -196,217.4375 c 42.91724,48.81445 107.26673,85.90625 196,85.90625 88.73848,0 153.05151,-37.1188 195.96875,-85.9375 L 355.71875,437.59375 z"
           id="path4019"
           inkscape:connector-curvature="0" />
      </g>
      <g
         transform="translate(0.718585,0)"
         id="g4105">
        <g
           id="g3921">
          <g
             id="g3915">
            <path
               inkscape:transform-center-y="-61.311631"
               sodipodi:nodetypes="szcczszszcczszszcczszszcczszszcczszs"
               inkscape:connector-curvature="0"
               id="use3784"
               d="m 150.18055,463.70945 c -20.45017,6.82758 -21.67099,22.60415 -12.61993,32.77517 9.05105,10.17102 6.47467,16.30635 4.44559,20.36933 l 6.3829,4.63745 c 3.2371,-3.18529 8.276,-7.5315 20.74616,-2.06646 12.47012,5.46504 27.0973,-0.57129 27.27126,-22.13036 0.17397,-21.55908 -0.78321,-31.24405 7.5222,-31.24405 8.30543,-3e-5 7.34823,9.68498 7.52218,31.24406 0.17397,21.55907 14.80113,27.5954 27.27128,22.13035 12.47017,-5.46504 17.50905,-1.11883 20.74616,2.06646 l 6.38289,-4.63744 c -2.02906,-4.06298 -4.60547,-10.19832 4.44559,-20.36933 9.05108,-10.17102 7.83023,-25.94759 -12.61991,-32.77518 -20.45015,-6.82758 -29.95693,-8.91006 -27.3904,-16.80899 2.56653,-7.89892 11.48171,-3.99574 32.03938,2.50093 20.55766,6.49665 30.81859,-5.54927 29.47451,-19.09789 -1.3441,-13.5486 4.34651,-16.9978 8.3762,-19.09217 l -2.43801,-7.50354 c -4.49117,0.67421 -11.12236,1.22859 -17.99864,-10.52248 -6.87629,-11.75112 -22.25797,-15.46525 -35.07084,1.87415 -12.81284,17.33941 -17.73116,25.73737 -24.45037,20.85556 -6.71921,-4.8818 -0.25216,-12.15451 12.27924,-29.69842 12.53135,-17.54391 4.24579,-31.02504 -9.05505,-33.93349 -13.30084,-2.90845 -14.82274,-9.3864 -15.56937,-13.86607 l -7.88968,0 c -0.74661,4.47967 -2.26853,10.95762 -15.56937,13.86607 -13.3008,2.90845 -21.58639,16.38958 -9.05502,33.93349 12.53139,17.54391 18.99846,24.81662 12.27921,29.69842 -6.7192,4.8818 -11.63752,-3.51616 -24.45038,-20.85557 -12.81286,-17.3394 -28.19452,-13.62527 -35.0708,-1.87415 -6.8763,11.75108 -13.50748,11.19669 -17.99865,10.52248 l -2.43804,7.50354 c 4.02973,2.09436 9.72033,5.54358 8.37624,19.09218 -1.3441,13.54862 8.91685,25.59453 29.4745,19.09787 20.55767,-6.49666 29.47286,-10.39984 32.03938,-2.50092 2.5665,7.89894 -6.94028,9.98141 -27.39041,16.809 z"
               style="color:#000000;fill:#cacaca;fill-opacity:1;stroke:none;stroke-width:0.99999994;marker:none;visibility:visible;display:inline;overflow:visible;enable-background:accumulate" />
            <path
               style="color:#000000;fill:#808080;fill-opacity:1;stroke:none;stroke-width:0.50000000000000000;marker:none;visibility:visible;display:inline;overflow:visible;enable-background:accumulate"
               d="m 205.06097,339.88896 c 0,0 1.13642,7.19734 6.43972,11.17482 l -1.13642,-3.97748 c 0,0 -3.03046,-2.46225 -3.97748,-8.33376 z m 24.4962,20.39246 c 0,0 4.92449,4.54569 4.16688,10.22779 -0.75762,5.68211 -0.05,10.75716 -14.39468,25.75889 -7.40158,7.74061 -8.71256,18.56156 1.13642,21.97082 0,0 -4.35628,-2.33598 -4.35628,-8.39689 0,-6.06092 6.11245,-11.80802 13.4017,-22.71497 6.96585,-10.42304 12.86074,-21.53473 0.046,-26.84564 z m 65.75533,49.62541 c 0,0 -6.45551,2.35233 -6.79786,14.9176 -0.34101,12.51589 -1.37178,19.50204 -11.01464,22.18061 -9.64286,2.67857 -26.72963,-8.18426 -35.06339,-8.94187 -8.33376,-0.75762 -11.96493,2.06626 -13.66956,3.20268 -1.70463,1.13642 -0.72511,5.06794 -0.72511,5.06794 l 1.10392,1.18238 c 0,0 0.41131,-5.91747 7.04043,-6.67509 6.62913,-0.75761 19.12977,4.9245 27.46352,7.38674 8.33376,2.46225 16.63591,1.45976 20.45734,-1.93706 3.82143,-3.39683 6.45038,-7.87483 5.89285,-17.67858 -0.51891,-9.12453 3.04167,-14.41709 5.89286,-16.60714 2.87499,-2.20833 1.60714,-4.55358 1.33928,-7.23215 -0.11307,-1.13078 -1.91964,5.13394 -1.91964,5.13394 z m -26.23312,62.50152 c 0,0 8.02777,10.79311 -0.86509,19.68597 -8.89286,8.89286 -9.37501,13.92858 -6.69644,23.03572 l -1.33928,0.53571 c 0,0 -5.08929,-5.89286 -15.26786,-4.01786 -10.17857,1.875 -10.71428,5.35715 -19.28571,5.35715 l -4.28571,-0.53572 c 0,0 2.67857,3.21429 8.30357,2.94643 5.625,-0.26785 13.92857,-5.08928 20.08928,-5.08928 6.16072,0 10.17857,5.08928 10.17857,5.08928 l 4.01786,-2.94643 c 0,0 -3.49189,-8.10713 0.26786,-14.99999 3.75973,-6.89286 7.56107,-7.59304 9.10714,-13.66072 1.54607,-6.06768 1.73019,-12.58623 -4.22419,-15.40026 z m -61.84724,-7.9926 c 0,0 -6.08928,-4.84722 -12.32142,1.07143 -5.72493,5.43695 -1.97476,30.84213 -4.90641,41.31231 -2.93165,10.47018 -11.88588,11.56535 -21.08322,8.17686 -8.32587,-3.03836 -15.35509,-3.51111 -23.02823,2.92155 l 2.14285,1.60714 c 0,0 5.625,-6.69643 16.07143,-3.48214 10.44643,3.21428 13.66072,5.08928 21.96429,1.33928 8.30357,-3.75 9.04618,-19.35714 8.57143,-28.92857 -0.44356,-8.94256 -2.41071,-25.53571 12.58928,-24.01786 z m -72.05357,25.625 c 0,0 7.76786,10.98215 8.83929,14.46429 1.07143,3.48214 2.41071,4.28571 2.41071,4.28571 0,0 0.80358,-6.42857 -6.16071,-14.73214 -4.1454,-4.94259 -4.55357,-10.44643 -4.55357,-10.44643 0,0 -1.07143,3.21429 -0.53572,6.42857 z m -14.82143,-48.57143 c 0,0 5.08929,5.89286 16.33929,4.55358 11.25,-1.33929 19.55357,-5.89286 28.66071,-7.5 9.10715,-1.60715 12.58929,2.41071 12.58929,2.41071 l -0.26786,3.75 c 0,0 -0.80357,-3.75 -9.10714,-3.75 -8.30357,0 -18.0893,6.38393 -28.66072,8.03572 -10.57143,1.65178 -17.14285,-2.14286 -19.01785,-4.55358 -1.875,-2.41071 -0.53572,-2.94643 -0.53572,-2.94643 z m -10.71428,-30.80357 c 0,0 6.42857,5.08929 7.5,9.375 1.07143,4.28572 2.14285,2.94643 2.14285,2.94643 0,0 -1.33928,-10.71428 -6.96428,-13.125 z m 41.16071,-21.96428 c 0,0 12.05357,9.10714 17.14286,18.48214 5.08928,9.375 13.66071,12.58929 16.60714,12.58929 0,0 0,-1.07143 -0.53571,-1.07143 -0.53572,0 -5.08929,-1.875 -10.71429,-8.30357 -5.625,-6.42858 -12.05357,-19.55357 -22.5,-21.69643 z m 116.875,-1.875 c 0,0 7.77484,0.60714 9.64286,7.76785 1.86801,7.16071 10.98214,10.3125 10.98214,10.3125 l -1.60714,-2.27678 c 0,0 -4.01786,-1.60714 -7.5,-8.57143 -3.48214,-6.96429 -6.96428,-8.03571 -11.51786,-7.23214 z"
               id="path3876"
               inkscape:connector-curvature="0"
               sodipodi:nodetypes="ccccccsscsscccsssccsssssscccccsccssccsszccscccsssccccsccccsccssscccccccccsscccsccsc" />
            <path
               style="color:#000000;fill:#ffffff;stroke:none;stroke-width:1;marker:none;visibility:visible;display:inline;overflow:visible;enable-background:accumulate"
               d="m 199.96875,338.40625 c -0.74661,4.47967 -2.26166,10.96655 -15.5625,13.875 -13.3008,2.90845 -21.56262,16.39359 -9.03125,33.9375 12.53139,17.54391 18.96925,24.8057 12.25,29.6875 -2.36787,1.72037 -4.49886,1.79441 -6.84375,0.40625 1.00957,1.90129 3.01685,4.19504 6.625,3.375 5.89286,-1.33929 8.05357,-7.50446 3.5,-16.34375 -4.55357,-8.83928 -15.00446,-18.20089 -18.21875,-27.84375 -3.21428,-9.64286 4.27233,-17.96875 16.59375,-21.71875 12.32143,-3.75 13.65625,-12.03125 13.65625,-12.03125 l 4.96875,-3.15625 c -0.0101,-0.0593 -0.0215,-0.12885 -0.0312,-0.1875 l -7.90625,0 z m 9.84375,5.90625 c -0.34482,2.16649 -0.5336,7.17866 6.34375,10.1875 7.5974,3.32386 17.08157,6.65268 22.125,11.46875 -1.52897,-7.11491 -7.39643,-12.05902 -14.84375,-13.6875 -8.0464,-1.75948 -11.76391,-4.82929 -13.625,-7.96875 z m -66.375,38.90625 c -6.30656,0.23 -11.87436,4.09319 -15.3125,9.96875 -6.8763,11.75108 -13.50883,11.20546 -18,10.53125 l -2.4375,7.5 c 0.10327,0.0537 0.20719,0.1319 0.3125,0.1875 2.7141,-0.33016 8.178,-1.50619 14.09375,-5.90625 8.47018,-6.30001 8.19448,-11.80736 18.9375,-16.3125 7.32788,-3.07298 15.92207,1.07292 20.65625,4 -5.99995,-7.27267 -12.42549,-10.18117 -18.25,-9.96875 z m 119.8125,0 c -5.9943,0.21647 -12.58772,3.71591 -18.59375,11.84375 -12.81284,17.33941 -17.71829,25.72556 -24.4375,20.84375 -0.5352,-0.38884 -0.97227,-0.79559 -1.34375,-1.21875 0.36899,1.49761 1.63025,4.24725 6.25,5.0625 6.43972,1.13642 15.90704,-12.888 18.9375,-17.8125 3.03046,-4.92449 9.87357,-12.48097 19.34375,-14.375 4.18227,-0.83646 8.35216,-0.59551 11.71875,-0.0312 -3.33547,-2.87335 -7.45674,-4.47205 -11.875,-4.3125 z M 283.71875,398.75 c 0.38186,1.64187 1.27193,4.33815 3.15625,5.46875 3.78807,2.27285 7.96875,1.90625 7.96875,1.90625 l 0.375,3.78125 c 0,0 1.75857,-2.72828 2.75,-5.53125 L 297.75,403.71875 c -3.61136,0.54213 -8.63771,0.97958 -14.03125,-4.96875 z m -169.625,18.125 c 1.61997,2.81608 2.61068,6.96677 1.96875,13.4375 -0.73193,7.37785 1.96693,14.29611 7.90625,18.03125 -4.52235,-6.40277 -4.4761,-15.38426 -4.125,-22.40625 0.2616,-5.23203 -3.42735,-7.89085 -5.75,-9.0625 z m 63.6875,23.84375 c 0.20491,1.22944 -0.2531,3.28491 -0.71875,4.96875 0.18548,0.37127 0.35563,0.77444 0.5,1.21875 2.5665,7.89894 -6.92487,9.98491 -27.375,16.8125 C 131.01547,470.11961 128.75117,484.36107 136,494.5 c -1.80601,-10.15207 2.92329,-21.82954 9.96875,-25 7.57615,-3.40926 32.57852,-9.46653 34.09375,-15.90625 1.51523,-6.43972 -2.28125,-12.875 -2.28125,-12.875 z m 50,4.03125 c 0,0 -1.50682,6.45051 2.28125,11.375 3.78807,4.9245 20.06487,9.0709 29.15625,11.34375 7.0255,1.75637 12.59923,6.63444 14.8125,8.78125 -2.4141,-5.0519 -7.60238,-9.61281 -16.34375,-12.53125 -19.8371,-6.6229 -29.38216,-8.79193 -27.59375,-16.125 -1.01972,-0.93711 -1.80486,-1.90099 -2.3125,-2.84375 z m -19.4375,20.125 c -1.86947,-0.0756 -3.52336,0.62547 -4.53125,1.1875 0.0427,-5.2e-4 0.0818,0 0.125,0 8.30543,-3e-5 7.32605,9.65967 7.5,31.21875 0.0701,8.68765 2.51035,14.87176 6.1875,18.78125 3.8663,0.84155 8.28125,1.03125 8.28125,1.03125 -6.81853,-2.27284 -10.62881,-9.06948 -10.25,-20.8125 0.37881,-11.74303 1.51444,-25.39562 -3.03125,-29.5625 -1.42053,-1.30215 -2.89772,-1.7878 -4.28125,-1.84375 z M 142,502.71875 c 3.44948,6.5616 1.57391,10.97345 0,14.125 l 3.59375,2.625 c 0.67475,-2.84105 1.88642,-8.8777 0.75,-11.71875 -0.86068,-2.15169 -2.81042,-3.89057 -4.34375,-5.03125 z"
               id="path3829"
               inkscape:connector-curvature="0" />
            <path
               sodipodi:type="arc"
               style="color:#000000;fill:#808080;fill-opacity:1;stroke:none;stroke-width:0.10107443000000001;marker:none;visibility:visible;display:inline;overflow:visible;enable-background:accumulate"
               id="path3834"
               sodipodi:cx="354.77527"
               sodipodi:cy="262.36218"
               sodipodi:rx="0.22471911"
               sodipodi:ry="20"
               d="m 354.99999,262.36218 c 0,11.0457 -0.10061,20 -0.22472,20 -0.12411,0 -0.22472,-8.9543 -0.22472,-20 0,-11.04569 0.10061,-20 0.22472,-20 0.12411,0 0.22472,8.95431 0.22472,20 z"
               transform="matrix(102.92147,0,0,1.1564209,-36308.58,137.34653)" />
          </g>
          <g
             id="g3825">
            <path
               sodipodi:type="arc"
               style="color:#000000;fill:#cca85e;fill-opacity:1;stroke:none;stroke-width:0.10107443;marker:none;visibility:visible;display:inline;overflow:visible;enable-background:accumulate"
               id="path3767"
               sodipodi:cx="354.77527"
               sodipodi:cy="262.36218"
               sodipodi:rx="0.22471911"
               sodipodi:ry="20"
               d="m 354.99999,262.36218 c 0,11.0457 -0.10061,20 -0.22472,20 -0.12411,0 -0.22472,-8.9543 -0.22472,-20 0,-11.04569 0.10061,-20 0.22472,-20 0.12411,0 0.22472,8.95431 0.22472,20 z"
               transform="matrix(96.323307,0,0,1.0822843,-33969.198,154.38587)" />
            <path
               style="color:#000000;fill:#ffffff;stroke:none;stroke-width:0.99999982;marker:none;visibility:visible;display:inline;overflow:visible;enable-background:accumulate"
               d="m 203.92857,416.67767 c -11.95459,0 -21.63966,9.71731 -21.63966,21.67191 0,7.68964 4.01929,14.41363 10.06196,18.25341 -4.92961,-3.73845 -8.12697,-9.65445 -8.12697,-16.31842 0,-11.30687 9.17179,-20.47866 20.47867,-20.47866 11.30686,0 20.47865,9.17179 20.47865,20.47866 0,1.06002 -0.0703,2.11163 -0.22575,3.12823 0.39315,-1.63184 0.61275,-3.3107 0.61275,-5.06322 0,-11.9546 -9.68507,-21.67191 -21.63965,-21.67191 z"
               id="path3800"
               inkscape:connector-curvature="0" />
          </g>
        </g>
        <use
           x="0"
           y="0"
           xlink:href="#g3921"
           id="use3931"
           transform="translate(302.14288,0)"
           width="744.09448"
           height="1052.3622" />
        <g
           id="g4033"
           transform="translate(151.07143,-176.20494)">
          <g
             id="g4035">
            <path
               style="color:#000000;fill:#da1d17;fill-opacity:1;stroke:none;stroke-width:0.99999994000000003;marker:none;visibility:visible;display:inline;overflow:visible;enable-background:accumulate"
               d="m 150.18055,463.70945 c -20.45017,6.82758 -21.67099,22.60415 -12.61993,32.77517 9.05105,10.17102 6.47467,16.30635 4.44559,20.36933 l 6.3829,4.63745 c 3.2371,-3.18529 8.276,-7.5315 20.74616,-2.06646 12.47012,5.46504 27.0973,-0.57129 27.27126,-22.13036 0.17397,-21.55908 -0.78321,-31.24405 7.5222,-31.24405 8.30543,-3e-5 7.34823,9.68498 7.52218,31.24406 0.17397,21.55907 14.80113,27.5954 27.27128,22.13035 12.47017,-5.46504 17.50905,-1.11883 20.74616,2.06646 l 6.38289,-4.63744 c -2.02906,-4.06298 -4.60547,-10.19832 4.44559,-20.36933 9.05108,-10.17102 7.83023,-25.94759 -12.61991,-32.77518 -20.45015,-6.82758 -29.95693,-8.91006 -27.3904,-16.80899 2.56653,-7.89892 11.48171,-3.99574 32.03938,2.50093 20.55766,6.49665 30.81859,-5.54927 29.47451,-19.09789 -1.3441,-13.5486 4.34651,-16.9978 8.3762,-19.09217 l -2.43801,-7.50354 c -4.49117,0.67421 -11.12236,1.22859 -17.99864,-10.52248 -6.87629,-11.75112 -22.25797,-15.46525 -35.07084,1.87415 -12.81284,17.33941 -17.73116,25.73737 -24.45037,20.85556 -6.71921,-4.8818 -0.25216,-12.15451 12.27924,-29.69842 12.53135,-17.54391 4.24579,-31.02504 -9.05505,-33.93349 -13.30084,-2.90845 -14.82274,-9.3864 -15.56937,-13.86607 l -7.88968,0 c -0.74661,4.47967 -2.26853,10.95762 -15.56937,13.86607 -13.3008,2.90845 -21.58639,16.38958 -9.05502,33.93349 12.53139,17.54391 18.99846,24.81662 12.27921,29.69842 -6.7192,4.8818 -11.63752,-3.51616 -24.45038,-20.85557 -12.81286,-17.3394 -28.19452,-13.62527 -35.0708,-1.87415 -6.8763,11.75108 -13.50748,11.19669 -17.99865,10.52248 l -2.43804,7.50354 c 4.02973,2.09436 9.72033,5.54358 8.37624,19.09218 -1.3441,13.54862 8.91685,25.59453 29.4745,19.09787 20.55767,-6.49666 29.47286,-10.39984 32.03938,-2.50092 2.5665,7.89894 -6.94028,9.98141 -27.39041,16.809 z"
               id="path4037"
               inkscape:connector-curvature="0"
               sodipodi:nodetypes="szcczszszcczszszcczszszcczszszcczszs"
               inkscape:transform-center-y="-61.311631" />
            <path
               sodipodi:nodetypes="ccccccsscsscccsssccsssssscccccsccssccsszccscccsssccccsccccsccssscccccccccsscccsccsc"
               inkscape:connector-curvature="0"
               id="path4039"
               d="m 205.06097,339.88896 c 0,0 1.13642,7.19734 6.43972,11.17482 l -1.13642,-3.97748 c 0,0 -3.03046,-2.46225 -3.97748,-8.33376 z m 24.4962,20.39246 c 0,0 4.92449,4.54569 4.16688,10.22779 -0.75762,5.68211 -0.05,10.75716 -14.39468,25.75889 -7.40158,7.74061 -8.71256,18.56156 1.13642,21.97082 0,0 -4.35628,-2.33598 -4.35628,-8.39689 0,-6.06092 6.11245,-11.80802 13.4017,-22.71497 6.96585,-10.42304 12.86074,-21.53473 0.046,-26.84564 z m 65.75533,49.62541 c 0,0 -6.45551,2.35233 -6.79786,14.9176 -0.34101,12.51589 -1.37178,19.50204 -11.01464,22.18061 -9.64286,2.67857 -26.72963,-8.18426 -35.06339,-8.94187 -8.33376,-0.75762 -11.96493,2.06626 -13.66956,3.20268 -1.70463,1.13642 -0.72511,5.06794 -0.72511,5.06794 l 1.10392,1.18238 c 0,0 0.41131,-5.91747 7.04043,-6.67509 6.62913,-0.75761 19.12977,4.9245 27.46352,7.38674 8.33376,2.46225 16.63591,1.45976 20.45734,-1.93706 3.82143,-3.39683 6.45038,-7.87483 5.89285,-17.67858 -0.51891,-9.12453 3.04167,-14.41709 5.89286,-16.60714 2.87499,-2.20833 1.60714,-4.55358 1.33928,-7.23215 -0.11307,-1.13078 -1.91964,5.13394 -1.91964,5.13394 z m -26.23312,62.50152 c 0,0 8.02777,10.79311 -0.86509,19.68597 -8.89286,8.89286 -9.37501,13.92858 -6.69644,23.03572 l -1.33928,0.53571 c 0,0 -5.08929,-5.89286 -15.26786,-4.01786 -10.17857,1.875 -10.71428,5.35715 -19.28571,5.35715 l -4.28571,-0.53572 c 0,0 2.67857,3.21429 8.30357,2.94643 5.625,-0.26785 13.92857,-5.08928 20.08928,-5.08928 6.16072,0 10.17857,5.08928 10.17857,5.08928 l 4.01786,-2.94643 c 0,0 -3.49189,-8.10713 0.26786,-14.99999 3.75973,-6.89286 7.56107,-7.59304 9.10714,-13.66072 1.54607,-6.06768 1.73019,-12.58623 -4.22419,-15.40026 z m -61.84724,-7.9926 c 0,0 -6.08928,-4.84722 -12.32142,1.07143 -5.72493,5.43695 -1.97476,30.84213 -4.90641,41.31231 -2.93165,10.47018 -11.88588,11.56535 -21.08322,8.17686 -8.32587,-3.03836 -15.35509,-3.51111 -23.02823,2.92155 l 2.14285,1.60714 c 0,0 5.625,-6.69643 16.07143,-3.48214 10.44643,3.21428 13.66072,5.08928 21.96429,1.33928 8.30357,-3.75 9.04618,-19.35714 8.57143,-28.92857 -0.44356,-8.94256 -2.41071,-25.53571 12.58928,-24.01786 z m -72.05357,25.625 c 0,0 7.76786,10.98215 8.83929,14.46429 1.07143,3.48214 2.41071,4.28571 2.41071,4.28571 0,0 0.80358,-6.42857 -6.16071,-14.73214 -4.1454,-4.94259 -4.55357,-10.44643 -4.55357,-10.44643 0,0 -1.07143,3.21429 -0.53572,6.42857 z m -14.82143,-48.57143 c 0,0 5.08929,5.89286 16.33929,4.55358 11.25,-1.33929 19.55357,-5.89286 28.66071,-7.5 9.10715,-1.60715 12.58929,2.41071 12.58929,2.41071 l -0.26786,3.75 c 0,0 -0.80357,-3.75 -9.10714,-3.75 -8.30357,0 -18.0893,6.38393 -28.66072,8.03572 -10.57143,1.65178 -17.14285,-2.14286 -19.01785,-4.55358 -1.875,-2.41071 -0.53572,-2.94643 -0.53572,-2.94643 z m -10.71428,-30.80357 c 0,0 6.42857,5.08929 7.5,9.375 1.07143,4.28572 2.14285,2.94643 2.14285,2.94643 0,0 -1.33928,-10.71428 -6.96428,-13.125 z m 41.16071,-21.96428 c 0,0 12.05357,9.10714 17.14286,18.48214 5.08928,9.375 13.66071,12.58929 16.60714,12.58929 0,0 0,-1.07143 -0.53571,-1.07143 -0.53572,0 -5.08929,-1.875 -10.71429,-8.30357 -5.625,-6.42858 -12.05357,-19.55357 -22.5,-21.69643 z m 116.875,-1.875 c 0,0 7.77484,0.60714 9.64286,7.76785 1.86801,7.16071 10.98214,10.3125 10.98214,10.3125 l -1.60714,-2.27678 c 0,0 -4.01786,-1.60714 -7.5,-8.57143 -3.48214,-6.96429 -6.96428,-8.03571 -11.51786,-7.23214 z"
               style="color:#000000;fill:#82130e;fill-opacity:1;stroke:none;stroke-width:0.50000000000000000;marker:none;visibility:visible;display:inline;overflow:visible;enable-background:accumulate" />
            <path
               inkscape:connector-curvature="0"
               id="path4043"
               d="m 199.96875,338.40625 c -0.74661,4.47967 -2.26166,10.96655 -15.5625,13.875 -13.3008,2.90845 -21.56262,16.39359 -9.03125,33.9375 12.53139,17.54391 18.96925,24.8057 12.25,29.6875 -2.36787,1.72037 -4.49886,1.79441 -6.84375,0.40625 1.00957,1.90129 3.01685,4.19504 6.625,3.375 5.89286,-1.33929 8.05357,-7.50446 3.5,-16.34375 -4.55357,-8.83928 -15.00446,-18.20089 -18.21875,-27.84375 -3.21428,-9.64286 4.27233,-17.96875 16.59375,-21.71875 12.32143,-3.75 13.65625,-12.03125 13.65625,-12.03125 l 4.96875,-3.15625 c -0.0101,-0.0593 -0.0215,-0.12885 -0.0312,-0.1875 l -7.90625,0 z m 9.84375,5.90625 c -0.34482,2.16649 -0.5336,7.17866 6.34375,10.1875 7.5974,3.32386 17.08157,6.65268 22.125,11.46875 -1.52897,-7.11491 -7.39643,-12.05902 -14.84375,-13.6875 -8.0464,-1.75948 -11.76391,-4.82929 -13.625,-7.96875 z m -66.375,38.90625 c -6.30656,0.23 -11.87436,4.09319 -15.3125,9.96875 -6.8763,11.75108 -13.50883,11.20546 -18,10.53125 l -2.4375,7.5 c 0.10327,0.0537 0.20719,0.1319 0.3125,0.1875 2.7141,-0.33016 8.178,-1.50619 14.09375,-5.90625 8.47018,-6.30001 8.19448,-11.80736 18.9375,-16.3125 7.32788,-3.07298 15.92207,1.07292 20.65625,4 -5.99995,-7.27267 -12.42549,-10.18117 -18.25,-9.96875 z m 119.8125,0 c -5.9943,0.21647 -12.58772,3.71591 -18.59375,11.84375 -12.81284,17.33941 -17.71829,25.72556 -24.4375,20.84375 -0.5352,-0.38884 -0.97227,-0.79559 -1.34375,-1.21875 0.36899,1.49761 1.63025,4.24725 6.25,5.0625 6.43972,1.13642 15.90704,-12.888 18.9375,-17.8125 3.03046,-4.92449 9.87357,-12.48097 19.34375,-14.375 4.18227,-0.83646 8.35216,-0.59551 11.71875,-0.0312 -3.33547,-2.87335 -7.45674,-4.47205 -11.875,-4.3125 z M 283.71875,398.75 c 0.38186,1.64187 1.27193,4.33815 3.15625,5.46875 3.78807,2.27285 7.96875,1.90625 7.96875,1.90625 l 0.375,3.78125 c 0,0 1.75857,-2.72828 2.75,-5.53125 L 297.75,403.71875 c -3.61136,0.54213 -8.63771,0.97958 -14.03125,-4.96875 z m -169.625,18.125 c 1.61997,2.81608 2.61068,6.96677 1.96875,13.4375 -0.73193,7.37785 1.96693,14.29611 7.90625,18.03125 -4.52235,-6.40277 -4.4761,-15.38426 -4.125,-22.40625 0.2616,-5.23203 -3.42735,-7.89085 -5.75,-9.0625 z m 63.6875,23.84375 c 0.20491,1.22944 -0.2531,3.28491 -0.71875,4.96875 0.18548,0.37127 0.35563,0.77444 0.5,1.21875 2.5665,7.89894 -6.92487,9.98491 -27.375,16.8125 C 131.01547,470.11961 128.75117,484.36107 136,494.5 c -1.80601,-10.15207 2.92329,-21.82954 9.96875,-25 7.57615,-3.40926 32.57852,-9.46653 34.09375,-15.90625 1.51523,-6.43972 -2.28125,-12.875 -2.28125,-12.875 z m 50,4.03125 c 0,0 -1.50682,6.45051 2.28125,11.375 3.78807,4.9245 20.06487,9.0709 29.15625,11.34375 7.0255,1.75637 12.59923,6.63444 14.8125,8.78125 -2.4141,-5.0519 -7.60238,-9.61281 -16.34375,-12.53125 -19.8371,-6.6229 -29.38216,-8.79193 -27.59375,-16.125 -1.01972,-0.93711 -1.80486,-1.90099 -2.3125,-2.84375 z m -19.4375,20.125 c -1.86947,-0.0756 -3.52336,0.62547 -4.53125,1.1875 0.0427,-5.2e-4 0.0818,0 0.125,0 8.30543,-3e-5 7.32605,9.65967 7.5,31.21875 0.0701,8.68765 2.51035,14.87176 6.1875,18.78125 3.8663,0.84155 8.28125,1.03125 8.28125,1.03125 -6.81853,-2.27284 -10.62881,-9.06948 -10.25,-20.8125 0.37881,-11.74303 1.51444,-25.39562 -3.03125,-29.5625 -1.42053,-1.30215 -2.89772,-1.7878 -4.28125,-1.84375 z M 142,502.71875 c 3.44948,6.5616 1.57391,10.97345 0,14.125 l 3.59375,2.625 c 0.67475,-2.84105 1.88642,-8.8777 0.75,-11.71875 -0.86068,-2.15169 -2.81042,-3.89057 -4.34375,-5.03125 z"
               style="color:#000000;fill:#fc4d47;fill-opacity:1;stroke:none;stroke-width:1;marker:none;visibility:visible;display:inline;overflow:visible;enable-background:accumulate" />
            <path
               transform="matrix(102.92147,0,0,1.1564209,-36308.58,137.34653)"
               d="m 354.99999,262.36218 c 0,11.0457 -0.10061,20 -0.22472,20 -0.12411,0 -0.22472,-8.9543 -0.22472,-20 0,-11.04569 0.10061,-20 0.22472,-20 0.12411,0 0.22472,8.95431 0.22472,20 z"
               sodipodi:ry="20"
               sodipodi:rx="0.22471911"
               sodipodi:cy="262.36218"
               sodipodi:cx="354.77527"
               id="path4041"
               style="color:#000000;fill:#82130e;fill-opacity:1;stroke:none;stroke-width:0.10107443000000001;marker:none;visibility:visible;display:inline;overflow:visible;enable-background:accumulate"
               sodipodi:type="arc" />
          </g>
          <g
             id="g4045">
            <path
               transform="matrix(96.323307,0,0,1.0822843,-33969.198,154.38587)"
               d="m 354.99999,262.36218 c 0,11.0457 -0.10061,20 -0.22472,20 -0.12411,0 -0.22472,-8.9543 -0.22472,-20 0,-11.04569 0.10061,-20 0.22472,-20 0.12411,0 0.22472,8.95431 0.22472,20 z"
               sodipodi:ry="20"
               sodipodi:rx="0.22471911"
               sodipodi:cy="262.36218"
               sodipodi:cx="354.77527"
               id="path4047"
               style="color:#000000;fill:#cca85e;fill-opacity:1;stroke:none;stroke-width:0.10107443;marker:none;visibility:visible;display:inline;overflow:visible;enable-background:accumulate"
               sodipodi:type="arc" />
            <path
               inkscape:connector-curvature="0"
               id="path4049"
               d="m 203.92857,416.67767 c -11.95459,0 -21.63966,9.71731 -21.63966,21.67191 0,7.68964 4.01929,14.41363 10.06196,18.25341 -4.92961,-3.73845 -8.12697,-9.65445 -8.12697,-16.31842 0,-11.30687 9.17179,-20.47866 20.47867,-20.47866 11.30686,0 20.47865,9.17179 20.47865,20.47866 0,1.06002 -0.0703,2.11163 -0.22575,3.12823 0.39315,-1.63184 0.61275,-3.3107 0.61275,-5.06322 0,-11.9546 -9.68507,-21.67191 -21.63965,-21.67191 z"
               style="color:#000000;fill:#ffffff;stroke:none;stroke-width:0.99999982;marker:none;visibility:visible;display:inline;overflow:visible;enable-background:accumulate" />
          </g>
        </g>
        <use
           x="0"
           y="0"
           xlink:href="#g4033"
           id="use4085"
           transform="translate(0,345.47217)"
           width="744.09448"
           height="1052.3622" />
      </g>
    </g>
  </g>
</svg>
