<?xml version="1.0" encoding="UTF-8" standalone="no"?>
<!-- Created with Inkscape (http://www.inkscape.org/) -->

<svg
   width="500"
   height="570"
   viewBox="0 0 132.29166 150.8125"
   version="1.1"
   id="svg5"
   xml:space="preserve"
   xmlns="http://www.w3.org/2000/svg"
   xmlns:svg="http://www.w3.org/2000/svg"><defs
     id="defs2"><style
       type="text/css"
       id="style3449">
   
    .str0 {stroke:#1F1A17;stroke-width:0.72}
    .fil0 {fill:#1F1A17}
    .fil2 {fill:#C0A062}
    .fil3 {fill:#C2C1C1}
    .fil1 {fill:white}
   
  </style><style
       type="text/css"
       id="style4456">
   
    .str0 {stroke:#1F1A17;stroke-width:0.72}
    .fil0 {fill:#1F1A17}
    .fil2 {fill:#C0A062}
    .fil3 {fill:#C2C1C1}
    .fil1 {fill:white}
   
  </style></defs><path
     id="path1631"
     style="fill:#000000;fill-rule:evenodd;stroke:none;stroke-width:0.264583;stroke-miterlimit:10;stop-color:#000000"
     d="m 0,0 v 84.666986 c 0,36.531284 29.614238,66.145514 66.145502,66.145514 36.531258,0 66.146158,-29.61423 66.146158,-66.145514 V 0 Z" /><g
     id="g3478"
     transform="matrix(0.92839906,0.86574613,-0.86574613,0.92839906,-128.32723,-335.64343)"
     style="stroke-width:0.787758"><path
       id="path3472"
       style="font-variation-settings:normal;vector-effect:none;fill:#cccccc;fill-opacity:1;stroke:none;stroke-width:0.104214;stroke-linecap:butt;stroke-linejoin:miter;stroke-miterlimit:4;stroke-dasharray:none;stroke-dashoffset:0;stroke-opacity:1;-inkscape-stroke:none;stop-color:#000000"
       d="m 330.71573,59.371052 c -0.27963,0 -0.61974,-0.02365 -1.13895,0.345199 -0.51921,0.368856 -1.68204,1.14578 -2.36368,1.769918 -0.68164,0.624137 -0.92496,1.231265 -1.15084,2.384867 -0.22588,1.153602 -2.09865,11.700184 -2.74867,17.168461 -0.65002,5.468276 -0.20716,8.948307 1.03353,13.178007 1.2407,4.229698 2.59923,4.883162 2.63653,10.725956 0.0372,5.8428 -1.41904,17.0769 -1.9513,25.45995 -0.53225,8.38306 -0.7984,43.93323 -0.7984,43.93323 0,0 1.38683,0.56176 3.37809,0.91933 -0.21945,4.22292 -1.05467,4.65784 -0.96067,10.43554 0,0 2.20857,0.57774 4.06436,0.57774 1.85579,0 4.06486,-0.57774 4.06486,-0.57774 0.094,-5.7777 -0.74121,-6.21262 -0.96066,-10.43554 1.99101,-0.35757 3.37809,-0.91933 3.37809,-0.91933 0,0 -0.26615,-35.55017 -0.7984,-43.93323 -0.53226,-8.38305 -1.98907,-19.61715 -1.95182,-25.45995 0.0373,-5.842794 1.39635,-6.496258 2.63705,-10.725956 1.24069,-4.2297 1.68354,-7.709731 1.03352,-13.178007 -0.65001,-5.468277 -2.52278,-16.014859 -2.74866,-17.168461 -0.22588,-1.153602 -0.4692,-1.76073 -1.15084,-2.384867 -0.68164,-0.624138 -1.84447,-1.401062 -2.36368,-1.769918 -0.51921,-0.368857 -0.85982,-0.345199 -1.13946,-0.345199 z" /><path
       id="path3474"
       style="color:#000000;opacity:1;fill:#666666;stroke:none;stroke-width:0.787758;-inkscape-stroke:none"
       d="m 330.71676,174.57435 c 2.85865,0 5.01045,-0.63418 5.68182,-0.84387 -0.009,-1.12064 -0.0758,-35.13107 -0.59169,-43.25524 -0.5309,-8.36162 -1.8102,-19.9321 -1.7756,-25.36021 0.0346,-5.428595 1.25412,-6.824477 2.46858,-10.964706 1.20516,-4.108557 1.62848,-8.049344 0.95291,-13.732495 -0.67642,-5.690259 -2.34643,-15.249223 -2.5492,-16.284794 -0.0961,-0.491061 -0.2279,-0.947098 -0.46147,-1.365291 -0.29065,-0.520396 -1.20013,-1.098665 -1.91409,-1.481046 1.17349,1.285474 1.50364,2.014299 1.70945,3.065445 0.17966,0.917549 1.75692,10.511528 2.42828,16.159221 0.66966,5.633462 0.24204,9.426734 -0.92759,13.414168 -1.20021,4.091638 -2.44307,6.201898 -2.4784,11.740368 -0.0353,5.53751 1.11438,16.49913 1.64382,24.83776 0.49962,7.86911 0.67634,39.99625 0.69402,42.17417 -1.02031,0.27789 -2.65713,0.65836 -4.88084,0.65836 -2.09273,0 -4.95448,-0.0137 -4.95448,-0.0137 0.70859,0.80049 1.60975,1.25186 4.95448,1.25186 z m 0.92087,-110.737937 c -0.36415,0.457763 -0.55512,1.227533 -0.52606,2.341976 0.24307,9.273246 0.16445,14.039185 0.71262,19.567797 0.14771,1.489773 0.3635,2.603292 0.6506,3.433382 0.2871,0.830091 0.64424,1.404282 1.16376,1.715141 0.51952,0.31086 1.39479,0.156155 1.90014,-0.104386 0.50535,-0.260536 0.94729,-0.95321 0.77101,-1.848466 -0.52003,0.634984 -0.86426,0.830761 -1.16634,0.986503 -0.30209,0.155743 -0.77761,0.168029 -0.9617,0.05788 -0.18408,-0.110148 -0.46069,-0.446419 -0.70486,-1.152384 -0.24417,-0.705964 -0.45728,-1.753995 -0.59997,-3.193087 -0.5797,-5.846735 -0.99108,-11.382845 -1.2392,-21.804353 z m 2.42931,18.92856 c -0.36079,0.649417 -0.34791,1.351557 -0.25218,2.749186 0.0493,0.720032 0.28047,1.787665 0.61909,2.267045 0.16931,0.23969 0.40935,0.449971 0.72657,0.500228 0.31721,0.05026 0.93629,-0.326869 0.78238,-0.989604 -0.28476,0.257601 -0.61889,0.212145 -0.83561,-0.01344 -0.21672,-0.225577 -0.51765,-0.835172 -0.63665,-1.497066 -0.23801,-1.323789 -0.4036,-3.016353 -0.4036,-3.016353 z m -6.45438,92.490997 c -0.0198,0.37637 -0.0452,0.72172 -0.0734,1.04438 0.94704,0.17377 2.03267,0.30334 3.17655,0.30334 0.62116,0 1.22227,-0.0401 1.79627,-0.10284 0.0181,0.15346 0.0371,0.3024 0.0506,0.44132 -1.82729,0.54642 -4.22713,0.0915 -4.22713,0.0915 0,0 0.14296,0.59893 0.41444,0.71158 0.76288,0.31657 2.4299,0.36244 3.9393,0.0594 0.23692,1.67646 0.49684,3.30631 0.47852,6.71483 -0.57233,0.12817 -2.91583,0.47508 -5.14387,0.0941 0.0222,0.46285 0.34862,0.74097 0.56844,0.82011 2.52447,0.90889 5.59966,-0.16381 5.59966,-0.16381 0.0745,-5.13341 -0.54336,-6.23455 -0.75448,-8.89455 0.15287,-0.0245 0.30823,-0.0481 0.45476,-0.0749 -0.0283,-0.32266 -0.0528,-0.66801 -0.0729,-1.04438 -0.92989,0.16685 -1.9899,0.28938 -3.10368,0.28938 -1.11384,0 -2.17353,-0.12252 -3.10317,-0.28938 z" /><path
       id="path3476"
       style="color:#000000;opacity:1;fill:#ffffff;stroke-width:0.787758;-inkscape-stroke:none"
       d="m 330.71573,59.371052 c -0.27963,0 -0.61974,-0.02365 -1.13895,0.345199 -0.51921,0.368854 -1.68204,1.14578 -2.36368,1.769918 -0.68164,0.624135 -0.92496,1.231267 -1.15084,2.384867 -0.22588,1.1536 -2.09865,11.700194 -2.74867,17.168461 -0.65002,5.468264 -0.20716,8.948315 1.03353,13.178007 1.2407,4.229688 2.59923,4.883182 2.63653,10.725956 0.0372,5.8428 -1.41904,17.07692 -1.9513,25.45995 -0.53225,8.38304 -0.7984,43.93323 -0.7984,43.93323 0.6738,0.10825 1.31878,-0.40808 1.31878,-1.24488 -0.0218,-6.32199 -0.0811,-35.14142 0.39274,-42.60515 0.54346,-8.55954 2.08928,-19.02264 2.05053,-25.10751 -0.0193,-3.01845 -0.37889,-4.91497 -0.89659,-6.529321 -0.5177,-1.614342 -1.13327,-2.870275 -1.72651,-4.892725 -1.207,-4.114824 -1.62371,-7.47639 -0.99012,-12.806453 0.32148,-2.70443 0.89677,-6.749956 1.418,-10.252087 0.52123,-3.502133 1.01281,-6.581339 1.09399,-6.995956 0.21085,-1.076856 0.17042,-1.044045 0.70073,-1.529622 0.69797,-0.639088 0.86831,-0.840391 2.2071,-1.699121 0.89306,-0.572825 1.27969,-0.28455 2.04949,0.185002 0.76979,0.469548 1.68766,0.969269 2.59002,1.908927 0.21134,-0.282247 -0.0164,-0.845262 -0.22324,-1.281575 -0.68164,-0.624138 -1.84447,-1.401064 -2.36368,-1.769918 -0.51921,-0.368857 -0.85982,-0.345199 -1.13946,-0.345199 z m -0.92191,4.465361 c -0.24812,10.421508 -0.65949,15.957618 -1.2392,21.804353 -0.14269,1.439092 -0.35528,2.487123 -0.59945,3.193087 -0.24417,0.705965 -0.52079,1.042236 -0.70487,1.152384 -0.18409,0.110152 -0.6596,0.09787 -0.96169,-0.05788 -0.30208,-0.155742 -0.64683,-0.351519 -1.16686,-0.986503 -0.17628,0.895256 0.26567,1.58793 0.77101,1.848466 0.50535,0.260541 1.38062,0.415246 1.90015,0.104386 0.51952,-0.310859 0.87717,-0.88505 1.16427,-1.715141 0.2871,-0.83009 0.50238,-1.943609 0.65009,-3.433382 0.54817,-5.528612 0.46954,-10.294551 0.71261,-19.567797 0.0291,-1.114443 -0.16191,-1.884213 -0.52606,-2.341976 z m -2.42879,18.92856 c 0,0 -0.16559,1.692564 -0.4036,3.016353 -0.119,0.661894 -0.42045,1.271489 -0.63717,1.497066 -0.21672,0.225581 -0.55033,0.271037 -0.83509,0.01344 -0.15391,0.662735 0.46517,1.039864 0.78238,0.989604 0.31722,-0.05026 0.55726,-0.260538 0.72657,-0.500228 0.33862,-0.47938 0.56979,-1.547013 0.61909,-2.267045 0.0957,-1.397629 0.10861,-2.099769 -0.25218,-2.749186 z m 0.20308,93.185007 c -0.2689,3.59586 -1.00531,4.29727 -0.91674,9.74153 0,0 0.48764,0.12667 1.19373,0.26148 -0.0614,-4.77419 0.18801,-5.6953 0.39429,-8.77983 0.0241,-0.36042 0.12185,-1.21712 -0.67128,-1.22318 z" /></g><path
     id="path3472-1"
     style="font-variation-settings:normal;vector-effect:none;fill:#666666;fill-opacity:1;stroke:none;stroke-width:0.132292;stroke-linecap:butt;stroke-linejoin:miter;stroke-miterlimit:4;stroke-dasharray:none;stroke-dashoffset:0;stroke-opacity:1;-inkscape-stroke:none;stop-color:#000000"
     d="m 67.689062,60.300456 c -0.1563,0.13939 -0.31256,0.27802 -0.46838,0.41721 3.38961,3.00597 6.59351,6.00336 9.46796,8.87493 0.13435,-0.17336 0.26758,-0.3476 0.40212,-0.52152 -3.05672,-3.0776 -6.54546,-6.21691 -9.4017,-8.77062 z m 5.95379,13.18675 c 0.86933,-1.09753 1.75387,-2.22896 2.64432,-3.37572 -3.09493,-3.13963 -6.63899,-6.34621 -9.55587,-8.95758 -1.08636,0.97225 -2.15783,1.93751 -3.196376,2.88513 z" /><g
     id="g3329"
     transform="matrix(0.92839906,-0.86574613,0.86574613,0.92839906,-353.45391,236.98872)"
     style="stroke-width:0.787758"><path
       id="path3321"
       style="font-variation-settings:normal;vector-effect:none;fill:#cccccc;fill-opacity:1;stroke:none;stroke-width:0.104214;stroke-linecap:butt;stroke-linejoin:miter;stroke-miterlimit:4;stroke-dasharray:none;stroke-dashoffset:0;stroke-opacity:1;-inkscape-stroke:none;stop-color:#000000"
       d="m 330.71573,59.371052 c -0.27963,0 -0.61974,-0.02365 -1.13895,0.345199 -0.51921,0.368856 -1.68204,1.14578 -2.36368,1.769918 -0.68164,0.624137 -0.92496,1.231265 -1.15084,2.384867 -0.22588,1.153602 -2.09865,11.700184 -2.74867,17.168461 -0.65002,5.468276 -0.20716,8.948307 1.03353,13.178007 1.2407,4.229698 2.59923,4.883162 2.63653,10.725956 0.0372,5.8428 -1.41904,17.0769 -1.9513,25.45995 -0.53225,8.38306 -0.7984,43.93323 -0.7984,43.93323 0,0 1.38683,0.56176 3.37809,0.91933 -0.21945,4.22292 -1.05467,4.65784 -0.96067,10.43554 0,0 2.20857,0.57774 4.06436,0.57774 1.85579,0 4.06486,-0.57774 4.06486,-0.57774 0.094,-5.7777 -0.74121,-6.21262 -0.96066,-10.43554 1.99101,-0.35757 3.37809,-0.91933 3.37809,-0.91933 0,0 -0.26615,-35.55017 -0.7984,-43.93323 -0.53226,-8.38305 -1.98907,-19.61715 -1.95182,-25.45995 0.0373,-5.842794 1.39635,-6.496258 2.63705,-10.725956 1.24069,-4.2297 1.68354,-7.709731 1.03352,-13.178007 -0.65001,-5.468277 -2.52278,-16.014859 -2.74866,-17.168461 -0.22588,-1.153602 -0.4692,-1.76073 -1.15084,-2.384867 -0.68164,-0.624138 -1.84447,-1.401062 -2.36368,-1.769918 -0.51921,-0.368857 -0.85982,-0.345199 -1.13946,-0.345199 z" /><path
       id="path3348"
       style="color:#000000;opacity:1;fill:#666666;stroke:none;stroke-width:0.787758;-inkscape-stroke:none"
       d="m 330.71676,174.57435 c 2.85865,0 5.01045,-0.63418 5.68182,-0.84387 -0.009,-1.12064 -0.0758,-35.13107 -0.59169,-43.25524 -0.5309,-8.36162 -1.8102,-19.9321 -1.7756,-25.36021 0.0346,-5.428595 1.25412,-6.824477 2.46858,-10.964706 1.20516,-4.108557 1.62848,-8.049344 0.95291,-13.732495 -0.67642,-5.690259 -2.34643,-15.249223 -2.5492,-16.284794 -0.0961,-0.491061 -0.2279,-0.947098 -0.46147,-1.365291 -0.29065,-0.520396 -1.20013,-1.098665 -1.91409,-1.481046 1.17349,1.285474 1.50364,2.014299 1.70945,3.065445 0.17966,0.917549 1.75692,10.511528 2.42828,16.159221 0.66966,5.633462 0.24204,9.426734 -0.92759,13.414168 -1.20021,4.091638 -2.44307,6.201898 -2.4784,11.740368 -0.0353,5.53751 1.11438,16.49913 1.64382,24.83776 0.49962,7.86911 0.67634,39.99625 0.69402,42.17417 -1.02031,0.27789 -2.65713,0.65836 -4.88084,0.65836 -2.09273,0 -4.95448,-0.0137 -4.95448,-0.0137 0.70859,0.80049 1.60975,1.25186 4.95448,1.25186 z m 0.92087,-110.737937 c -0.36415,0.457763 -0.55512,1.227533 -0.52606,2.341976 0.24307,9.273246 0.16445,14.039185 0.71262,19.567797 0.14771,1.489773 0.3635,2.603292 0.6506,3.433382 0.2871,0.830091 0.64424,1.404282 1.16376,1.715141 0.51952,0.31086 1.39479,0.156155 1.90014,-0.104386 0.50535,-0.260536 0.94729,-0.95321 0.77101,-1.848466 -0.52003,0.634984 -0.86426,0.830761 -1.16634,0.986503 -0.30209,0.155743 -0.77761,0.168029 -0.9617,0.05788 -0.18408,-0.110148 -0.46069,-0.446419 -0.70486,-1.152384 -0.24417,-0.705964 -0.45728,-1.753995 -0.59997,-3.193087 -0.5797,-5.846735 -0.99108,-11.382845 -1.2392,-21.804353 z m 2.42931,18.92856 c -0.36079,0.649417 -0.34791,1.351557 -0.25218,2.749186 0.0493,0.720032 0.28047,1.787665 0.61909,2.267045 0.16931,0.23969 0.40935,0.449971 0.72657,0.500228 0.31721,0.05026 0.93629,-0.326869 0.78238,-0.989604 -0.28476,0.257601 -0.61889,0.212145 -0.83561,-0.01344 -0.21672,-0.225577 -0.51765,-0.835172 -0.63665,-1.497066 -0.23801,-1.323789 -0.4036,-3.016353 -0.4036,-3.016353 z m -6.45438,92.490997 c -0.0198,0.37637 -0.0452,0.72172 -0.0734,1.04438 0.94704,0.17377 2.03267,0.30334 3.17655,0.30334 0.62116,0 1.22227,-0.0401 1.79627,-0.10284 0.0181,0.15346 0.0371,0.3024 0.0506,0.44132 -1.82729,0.54642 -4.22713,0.0915 -4.22713,0.0915 0,0 0.14296,0.59893 0.41444,0.71158 0.76288,0.31657 2.4299,0.36244 3.9393,0.0594 0.23692,1.67646 0.49684,3.30631 0.47852,6.71483 -0.57233,0.12817 -2.91583,0.47508 -5.14387,0.0941 0.0222,0.46285 0.34862,0.74097 0.56844,0.82011 2.52447,0.90889 5.59966,-0.16381 5.59966,-0.16381 0.0745,-5.13341 -0.54336,-6.23455 -0.75448,-8.89455 0.15287,-0.0245 0.30823,-0.0481 0.45476,-0.0749 -0.0283,-0.32266 -0.0528,-0.66801 -0.0729,-1.04438 -0.92989,0.16685 -1.9899,0.28938 -3.10368,0.28938 -1.11384,0 -2.17353,-0.12252 -3.10317,-0.28938 z" /><path
       id="path3335"
       style="color:#000000;opacity:1;fill:#ffffff;stroke-width:0.787758;-inkscape-stroke:none"
       d="m 330.71573,59.371052 c -0.27963,0 -0.61974,-0.02365 -1.13895,0.345199 -0.51921,0.368854 -1.68204,1.14578 -2.36368,1.769918 -0.68164,0.624135 -0.92496,1.231267 -1.15084,2.384867 -0.22588,1.1536 -2.09865,11.700194 -2.74867,17.168461 -0.65002,5.468264 -0.20716,8.948315 1.03353,13.178007 1.2407,4.229688 2.59923,4.883182 2.63653,10.725956 0.0372,5.8428 -1.41904,17.07692 -1.9513,25.45995 -0.53225,8.38304 -0.7984,43.93323 -0.7984,43.93323 0.6738,0.10825 1.31878,-0.40808 1.31878,-1.24488 -0.0218,-6.32199 -0.0811,-35.14142 0.39274,-42.60515 0.54346,-8.55954 2.08928,-19.02264 2.05053,-25.10751 -0.0193,-3.01845 -0.37889,-4.91497 -0.89659,-6.529321 -0.5177,-1.614342 -1.13327,-2.870275 -1.72651,-4.892725 -1.207,-4.114824 -1.62371,-7.47639 -0.99012,-12.806453 0.32148,-2.70443 0.89677,-6.749956 1.418,-10.252087 0.52123,-3.502133 1.01281,-6.581339 1.09399,-6.995956 0.21085,-1.076856 0.17042,-1.044045 0.70073,-1.529622 0.69797,-0.639088 0.86831,-0.840391 2.2071,-1.699121 0.89306,-0.572825 1.27969,-0.28455 2.04949,0.185002 0.76979,0.469548 1.68766,0.969269 2.59002,1.908927 0.21134,-0.282247 -0.0164,-0.845262 -0.22324,-1.281575 -0.68164,-0.624138 -1.84447,-1.401064 -2.36368,-1.769918 -0.51921,-0.368857 -0.85982,-0.345199 -1.13946,-0.345199 z m -0.92191,4.465361 c -0.24812,10.421508 -0.65949,15.957618 -1.2392,21.804353 -0.14269,1.439092 -0.35528,2.487123 -0.59945,3.193087 -0.24417,0.705965 -0.52079,1.042236 -0.70487,1.152384 -0.18409,0.110152 -0.6596,0.09787 -0.96169,-0.05788 -0.30208,-0.155742 -0.64683,-0.351519 -1.16686,-0.986503 -0.17628,0.895256 0.26567,1.58793 0.77101,1.848466 0.50535,0.260541 1.38062,0.415246 1.90015,0.104386 0.51952,-0.310859 0.87717,-0.88505 1.16427,-1.715141 0.2871,-0.83009 0.50238,-1.943609 0.65009,-3.433382 0.54817,-5.528612 0.46954,-10.294551 0.71261,-19.567797 0.0291,-1.114443 -0.16191,-1.884213 -0.52606,-2.341976 z m -2.42879,18.92856 c 0,0 -0.16559,1.692564 -0.4036,3.016353 -0.119,0.661894 -0.42045,1.271489 -0.63717,1.497066 -0.21672,0.225581 -0.55033,0.271037 -0.83509,0.01344 -0.15391,0.662735 0.46517,1.039864 0.78238,0.989604 0.31722,-0.05026 0.55726,-0.260538 0.72657,-0.500228 0.33862,-0.47938 0.56979,-1.547013 0.61909,-2.267045 0.0957,-1.397629 0.10861,-2.099769 -0.25218,-2.749186 z m 0.20308,93.185007 c -0.2689,3.59586 -1.00531,4.29727 -0.91674,9.74153 0,0 0.48764,0.12667 1.19373,0.26148 -0.0614,-4.77419 0.18801,-5.6953 0.39429,-8.77983 0.0241,-0.36042 0.12185,-1.21712 -0.67128,-1.22318 z" /></g><g
     id="g5197"
     transform="matrix(1.2694255,0,0,1.2694255,-55.226423,-90.305888)"
     style="stroke-width:0.787758"><path
       style="font-variation-settings:normal;opacity:1;vector-effect:none;fill:#bf9f4f;fill-opacity:1;stroke:none;stroke-width:0.104214;stroke-linecap:butt;stroke-linejoin:miter;stroke-miterlimit:4;stroke-dasharray:none;stroke-dashoffset:0;stroke-opacity:1;-inkscape-stroke:none;stop-color:#000000;stop-opacity:1"
       d="m 93.189506,95.451611 c -0.87427,1.791152 -0.133066,3.747985 0.798386,5.455649 0.931453,1.70766 0.731856,4.08064 -0.17742,5.52217 0,0 2.32864,-0.53225 2.794365,-0.86492 0.465726,-0.33266 1.502907,-2.68965 1.441533,-4.34677 -0.06138,-1.657123 -1.286291,-2.838709 -0.266129,-5.034274 1.020161,-2.195564 -0.483476,-3.066643 0.169652,-3.808028 0.653128,-0.741385 1.805619,-0.132573 2.942227,1.311848 1.13664,1.444451 2.59056,3.284408 5.06713,3.338438 2.47656,0.05403 3.44839,-1.360511 3.62194,-3.039367 0.17355,-1.678854 -0.50841,-2.522971 -0.43821,-4.050577 0.0702,-1.527607 0.73577,-2.146395 0.71697,-3.834091 -0.0188,-1.687707 -0.95996,-3.538381 -3.25516,-3.693192 -2.29521,-0.154811 -4.01881,1.470019 -5.28314,2.804125 -1.26431,1.334077 -2.257939,1.411741 -2.761516,0.97457 -0.503577,-0.437171 -0.478081,-1.099781 0.862498,-2.258181 1.340608,-1.158424 3.256678,-2.756476 3.199088,-5.143632 -0.0576,-2.387156 -1.52773,-3.278762 -3.152043,-3.371586 -1.624305,-0.09282 -2.383633,0.642954 -3.857722,0.642954 -1.474089,0 -2.233417,-0.735774 -3.857722,-0.642954 -1.624305,0.09282 -3.094463,0.98443 -3.152043,3.371586 -0.05758,2.387156 1.858482,3.985208 3.199088,5.143632 1.340579,1.1584 1.366075,1.82101 0.862498,2.258181 -0.503577,0.437171 -1.497202,0.359507 -2.761507,-0.97457 -1.264332,-1.334106 -2.987937,-2.958936 -5.283143,-2.804125 -2.295206,0.154811 -3.236326,2.005485 -3.255158,3.693192 -0.01883,1.687696 0.646758,2.306484 0.716966,3.834091 0.07021,1.527606 -0.611758,2.371723 -0.438207,4.050577 0.173551,1.678856 1.145376,3.093392 3.621941,3.039367 2.476565,-0.05403 3.93049,-1.893987 5.067122,-3.338438 1.136608,-1.444421 2.300258,-1.882812 2.942227,-1.311848 0.641968,0.570965 0.914553,1.029353 -0.08451,3.076173 z"
       id="path4782" /><path
       id="path4784"
       style="font-variation-settings:normal;opacity:1;vector-effect:none;fill:#ffffff;fill-opacity:1;stroke:none;stroke-width:0.104214;stroke-linecap:butt;stroke-linejoin:miter;stroke-miterlimit:4;stroke-dasharray:none;stroke-dashoffset:0;stroke-opacity:1;-inkscape-stroke:none;stop-color:#000000;stop-opacity:1"
       d="m 92.04916,75.405732 c -0.09515,-2.9e-4 -0.193553,0.0025 -0.295072,0.0083 -1.624303,0.09282 -3.094166,0.984217 -3.151746,3.371371 -0.05758,2.387153 1.858167,3.985449 3.198772,5.143872 1.340577,1.158399 1.366056,1.820573 0.862479,2.257743 -0.503576,0.437171 -1.496768,0.359458 -2.761071,-0.974617 -1.264331,-1.334105 -2.988195,-2.958774 -5.283399,-2.803964 -2.295204,0.154811 -3.236266,2.00561 -3.255098,3.693315 -0.01883,1.687694 0.646544,2.306269 0.716752,3.833874 0.07021,1.527605 -0.611767,2.372064 -0.438216,4.050916 0.173551,1.678854 1.145438,3.093116 3.622001,3.039091 -2.059829,-0.251593 -2.768868,-1.361787 -2.915068,-2.776058 -0.146199,-1.41427 0.463985,-2.700561 0.393775,-4.228166 -0.07021,-1.527605 -0.75832,-2.102255 -0.73949,-3.789949 0.01883,-1.687706 0.91442,-3.023567 2.94504,-3.160531 2.030621,-0.136965 3.286812,1.314829 4.551143,2.648934 1.264304,1.334076 2.769609,1.729848 3.537769,1.062984 0.768159,-0.666863 0.884274,-1.605256 -0.456303,-2.763655 -1.340605,-1.158423 -3.240888,-2.615284 -3.183308,-5.002437 0.05758,-2.387154 1.260831,-2.980736 2.885135,-3.073556 1.624303,-0.09282 1.88178,0.626835 3.355867,0.626835 1.474088,0 2.233342,-0.704152 3.857646,-0.611332 1.623752,0.09279 3.108562,1.526495 2.979142,4.03748 0.10209,-0.379643 0.15607,-0.782314 0.14573,-1.210779 -0.0576,-2.387154 -1.52743,-3.278547 -3.151744,-3.371371 -1.624303,-0.09282 -2.384075,0.642855 -3.858162,0.642855 -1.381957,0 -2.135368,-0.64677 -3.562574,-0.651123 z m 14.34228,6.993372 c -2.18898,-0.04418 -3.84516,1.520851 -5.06998,2.813265 -1.26431,1.334075 -2.257493,1.411788 -2.761069,0.974617 0.111532,0.829215 1.696749,0.967173 2.961059,-0.366903 1.26433,-1.334104 3.04865,-3.066501 5.07928,-2.929536 2.03061,0.136964 3.12954,1.567823 3.25923,3.211173 -0.0188,-1.687705 -0.9599,-3.538504 -3.2551,-3.693315 -0.0717,-0.0048 -0.14281,-0.0079 -0.21342,-0.0093 z m -13.117548,9.976135 c 0.641967,0.570964 0.914829,1.02948 -0.08423,3.076298 -0.874269,1.79115 -0.13305,3.747818 0.798401,5.455483 0.931452,1.70766 0.731508,4.08113 -0.177767,5.52266 0,0 0.406602,-0.0938 0.908989,-0.22479 0.613339,-1.49842 0.762366,-3.63562 -0.02481,-5.07876 -0.931454,-1.707674 -1.84992,-3.354276 -0.975651,-5.145427 0.999063,-2.046818 0.618404,-3.478047 -0.444934,-3.605464 z" /></g><g
     id="g5203"
     transform="matrix(1.2694255,0,0,1.2694255,-55.226423,8.509675)"
     style="stroke-width:0.787758"><path
       style="font-variation-settings:normal;opacity:1;vector-effect:none;fill:#bf9f4f;fill-opacity:1;stroke:none;stroke-width:0.104214;stroke-linecap:butt;stroke-linejoin:miter;stroke-miterlimit:4;stroke-dasharray:none;stroke-dashoffset:0;stroke-opacity:1;-inkscape-stroke:none;stop-color:#000000;stop-opacity:1"
       d="m 93.189506,95.451611 c -0.87427,1.791152 -0.133066,3.747985 0.798386,5.455649 0.931453,1.70766 0.731856,4.08064 -0.17742,5.52217 0,0 2.32864,-0.53225 2.794365,-0.86492 0.465726,-0.33266 1.502907,-2.68965 1.441533,-4.34677 -0.06138,-1.657123 -1.286291,-2.838709 -0.266129,-5.034274 1.020161,-2.195564 -0.483476,-3.066643 0.169652,-3.808028 0.653128,-0.741385 1.805619,-0.132573 2.942227,1.311848 1.13664,1.444451 2.59056,3.284408 5.06713,3.338438 2.47656,0.05403 3.44839,-1.360511 3.62194,-3.039367 0.17355,-1.678854 -0.50841,-2.522971 -0.43821,-4.050577 0.0702,-1.527607 0.73577,-2.146395 0.71697,-3.834091 -0.0188,-1.687707 -0.95996,-3.538381 -3.25516,-3.693192 -2.29521,-0.154811 -4.01881,1.470019 -5.28314,2.804125 -1.26431,1.334077 -2.257939,1.411741 -2.761516,0.97457 -0.503577,-0.437171 -0.478081,-1.099781 0.862498,-2.258181 1.340608,-1.158424 3.256678,-2.756476 3.199088,-5.143632 -0.0576,-2.387156 -1.52773,-3.278762 -3.152043,-3.371586 -1.624305,-0.09282 -2.383633,0.642954 -3.857722,0.642954 -1.474089,0 -2.233417,-0.735774 -3.857722,-0.642954 -1.624305,0.09282 -3.094463,0.98443 -3.152043,3.371586 -0.05758,2.387156 1.858482,3.985208 3.199088,5.143632 1.340579,1.1584 1.366075,1.82101 0.862498,2.258181 -0.503577,0.437171 -1.497202,0.359507 -2.761507,-0.97457 -1.264332,-1.334106 -2.987937,-2.958936 -5.283143,-2.804125 -2.295206,0.154811 -3.236326,2.005485 -3.255158,3.693192 -0.01883,1.687696 0.646758,2.306484 0.716966,3.834091 0.07021,1.527606 -0.611758,2.371723 -0.438207,4.050577 0.173551,1.678856 1.145376,3.093392 3.621941,3.039367 2.476565,-0.05403 3.93049,-1.893987 5.067122,-3.338438 1.136608,-1.444421 2.300258,-1.882812 2.942227,-1.311848 0.641968,0.570965 0.914553,1.029353 -0.08451,3.076173 z"
       id="path5199" /><path
       id="path5201"
       style="font-variation-settings:normal;opacity:1;vector-effect:none;fill:#ffffff;fill-opacity:1;stroke:none;stroke-width:0.104214;stroke-linecap:butt;stroke-linejoin:miter;stroke-miterlimit:4;stroke-dasharray:none;stroke-dashoffset:0;stroke-opacity:1;-inkscape-stroke:none;stop-color:#000000;stop-opacity:1"
       d="m 92.04916,75.405732 c -0.09515,-2.9e-4 -0.193553,0.0025 -0.295072,0.0083 -1.624303,0.09282 -3.094166,0.984217 -3.151746,3.371371 -0.05758,2.387153 1.858167,3.985449 3.198772,5.143872 1.340577,1.158399 1.366056,1.820573 0.862479,2.257743 -0.503576,0.437171 -1.496768,0.359458 -2.761071,-0.974617 -1.264331,-1.334105 -2.988195,-2.958774 -5.283399,-2.803964 -2.295204,0.154811 -3.236266,2.00561 -3.255098,3.693315 -0.01883,1.687694 0.646544,2.306269 0.716752,3.833874 0.07021,1.527605 -0.611767,2.372064 -0.438216,4.050916 0.173551,1.678854 1.145438,3.093116 3.622001,3.039091 -2.059829,-0.251593 -2.768868,-1.361787 -2.915068,-2.776058 -0.146199,-1.41427 0.463985,-2.700561 0.393775,-4.228166 -0.07021,-1.527605 -0.75832,-2.102255 -0.73949,-3.789949 0.01883,-1.687706 0.91442,-3.023567 2.94504,-3.160531 2.030621,-0.136965 3.286812,1.314829 4.551143,2.648934 1.264304,1.334076 2.769609,1.729848 3.537769,1.062984 0.768159,-0.666863 0.884274,-1.605256 -0.456303,-2.763655 -1.340605,-1.158423 -3.240888,-2.615284 -3.183308,-5.002437 0.05758,-2.387154 1.260831,-2.980736 2.885135,-3.073556 1.624303,-0.09282 1.88178,0.626835 3.355867,0.626835 1.474088,0 2.233342,-0.704152 3.857646,-0.611332 1.623752,0.09279 3.108562,1.526495 2.979142,4.03748 0.10209,-0.379643 0.15607,-0.782314 0.14573,-1.210779 -0.0576,-2.387154 -1.52743,-3.278547 -3.151744,-3.371371 -1.624303,-0.09282 -2.384075,0.642855 -3.858162,0.642855 -1.381957,0 -2.135368,-0.64677 -3.562574,-0.651123 z m 14.34228,6.993372 c -2.18898,-0.04418 -3.84516,1.520851 -5.06998,2.813265 -1.26431,1.334075 -2.257493,1.411788 -2.761069,0.974617 0.111532,0.829215 1.696749,0.967173 2.961059,-0.366903 1.26433,-1.334104 3.04865,-3.066501 5.07928,-2.929536 2.03061,0.136964 3.12954,1.567823 3.25923,3.211173 -0.0188,-1.687705 -0.9599,-3.538504 -3.2551,-3.693315 -0.0717,-0.0048 -0.14281,-0.0079 -0.21342,-0.0093 z m -13.117548,9.976135 c 0.641967,0.570964 0.914829,1.02948 -0.08423,3.076298 -0.874269,1.79115 -0.13305,3.747818 0.798401,5.455483 0.931452,1.70766 0.731508,4.08113 -0.177767,5.52266 0,0 0.406602,-0.0938 0.908989,-0.22479 0.613339,-1.49842 0.762366,-3.63562 -0.02481,-5.07876 -0.931454,-1.707674 -1.84992,-3.354276 -0.975651,-5.145427 0.999063,-2.046818 0.618404,-3.478047 -0.444934,-3.605464 z" /></g><g
     id="g5209"
     transform="matrix(1.2694255,0,0,1.2694255,-97.80679,-45.145145)"
     style="stroke-width:0.787758"><path
       style="font-variation-settings:normal;opacity:1;vector-effect:none;fill:#bf9f4f;fill-opacity:1;stroke:none;stroke-width:0.104214;stroke-linecap:butt;stroke-linejoin:miter;stroke-miterlimit:4;stroke-dasharray:none;stroke-dashoffset:0;stroke-opacity:1;-inkscape-stroke:none;stop-color:#000000;stop-opacity:1"
       d="m 93.189506,95.451611 c -0.87427,1.791152 -0.133066,3.747985 0.798386,5.455649 0.931453,1.70766 0.731856,4.08064 -0.17742,5.52217 0,0 2.32864,-0.53225 2.794365,-0.86492 0.465726,-0.33266 1.502907,-2.68965 1.441533,-4.34677 -0.06138,-1.657123 -1.286291,-2.838709 -0.266129,-5.034274 1.020161,-2.195564 -0.483476,-3.066643 0.169652,-3.808028 0.653128,-0.741385 1.805619,-0.132573 2.942227,1.311848 1.13664,1.444451 2.59056,3.284408 5.06713,3.338438 2.47656,0.05403 3.44839,-1.360511 3.62194,-3.039367 0.17355,-1.678854 -0.50841,-2.522971 -0.43821,-4.050577 0.0702,-1.527607 0.73577,-2.146395 0.71697,-3.834091 -0.0188,-1.687707 -0.95996,-3.538381 -3.25516,-3.693192 -2.29521,-0.154811 -4.01881,1.470019 -5.28314,2.804125 -1.26431,1.334077 -2.257939,1.411741 -2.761516,0.97457 -0.503577,-0.437171 -0.478081,-1.099781 0.862498,-2.258181 1.340608,-1.158424 3.256678,-2.756476 3.199088,-5.143632 -0.0576,-2.387156 -1.52773,-3.278762 -3.152043,-3.371586 -1.624305,-0.09282 -2.383633,0.642954 -3.857722,0.642954 -1.474089,0 -2.233417,-0.735774 -3.857722,-0.642954 -1.624305,0.09282 -3.094463,0.98443 -3.152043,3.371586 -0.05758,2.387156 1.858482,3.985208 3.199088,5.143632 1.340579,1.1584 1.366075,1.82101 0.862498,2.258181 -0.503577,0.437171 -1.497202,0.359507 -2.761507,-0.97457 -1.264332,-1.334106 -2.987937,-2.958936 -5.283143,-2.804125 -2.295206,0.154811 -3.236326,2.005485 -3.255158,3.693192 -0.01883,1.687696 0.646758,2.306484 0.716966,3.834091 0.07021,1.527606 -0.611758,2.371723 -0.438207,4.050577 0.173551,1.678856 1.145376,3.093392 3.621941,3.039367 2.476565,-0.05403 3.93049,-1.893987 5.067122,-3.338438 1.136608,-1.444421 2.300258,-1.882812 2.942227,-1.311848 0.641968,0.570965 0.914553,1.029353 -0.08451,3.076173 z"
       id="path5205" /><path
       id="path5207"
       style="font-variation-settings:normal;opacity:1;vector-effect:none;fill:#ffffff;fill-opacity:1;stroke:none;stroke-width:0.104214;stroke-linecap:butt;stroke-linejoin:miter;stroke-miterlimit:4;stroke-dasharray:none;stroke-dashoffset:0;stroke-opacity:1;-inkscape-stroke:none;stop-color:#000000;stop-opacity:1"
       d="m 92.04916,75.405732 c -0.09515,-2.9e-4 -0.193553,0.0025 -0.295072,0.0083 -1.624303,0.09282 -3.094166,0.984217 -3.151746,3.371371 -0.05758,2.387153 1.858167,3.985449 3.198772,5.143872 1.340577,1.158399 1.366056,1.820573 0.862479,2.257743 -0.503576,0.437171 -1.496768,0.359458 -2.761071,-0.974617 -1.264331,-1.334105 -2.988195,-2.958774 -5.283399,-2.803964 -2.295204,0.154811 -3.236266,2.00561 -3.255098,3.693315 -0.01883,1.687694 0.646544,2.306269 0.716752,3.833874 0.07021,1.527605 -0.611767,2.372064 -0.438216,4.050916 0.173551,1.678854 1.145438,3.093116 3.622001,3.039091 -2.059829,-0.251593 -2.768868,-1.361787 -2.915068,-2.776058 -0.146199,-1.41427 0.463985,-2.700561 0.393775,-4.228166 -0.07021,-1.527605 -0.75832,-2.102255 -0.73949,-3.789949 0.01883,-1.687706 0.91442,-3.023567 2.94504,-3.160531 2.030621,-0.136965 3.286812,1.314829 4.551143,2.648934 1.264304,1.334076 2.769609,1.729848 3.537769,1.062984 0.768159,-0.666863 0.884274,-1.605256 -0.456303,-2.763655 -1.340605,-1.158423 -3.240888,-2.615284 -3.183308,-5.002437 0.05758,-2.387154 1.260831,-2.980736 2.885135,-3.073556 1.624303,-0.09282 1.88178,0.626835 3.355867,0.626835 1.474088,0 2.233342,-0.704152 3.857646,-0.611332 1.623752,0.09279 3.108562,1.526495 2.979142,4.03748 0.10209,-0.379643 0.15607,-0.782314 0.14573,-1.210779 -0.0576,-2.387154 -1.52743,-3.278547 -3.151744,-3.371371 -1.624303,-0.09282 -2.384075,0.642855 -3.858162,0.642855 -1.381957,0 -2.135368,-0.64677 -3.562574,-0.651123 z m 14.34228,6.993372 c -2.18898,-0.04418 -3.84516,1.520851 -5.06998,2.813265 -1.26431,1.334075 -2.257493,1.411788 -2.761069,0.974617 0.111532,0.829215 1.696749,0.967173 2.961059,-0.366903 1.26433,-1.334104 3.04865,-3.066501 5.07928,-2.929536 2.03061,0.136964 3.12954,1.567823 3.25923,3.211173 -0.0188,-1.687705 -0.9599,-3.538504 -3.2551,-3.693315 -0.0717,-0.0048 -0.14281,-0.0079 -0.21342,-0.0093 z m -13.117548,9.976135 c 0.641967,0.570964 0.914829,1.02948 -0.08423,3.076298 -0.874269,1.79115 -0.13305,3.747818 0.798401,5.455483 0.931452,1.70766 0.731508,4.08113 -0.177767,5.52266 0,0 0.406602,-0.0938 0.908989,-0.22479 0.613339,-1.49842 0.762366,-3.63562 -0.02481,-5.07876 -0.931454,-1.707674 -1.84992,-3.354276 -0.975651,-5.145427 0.999063,-2.046818 0.618404,-3.478047 -0.444934,-3.605464 z" /></g><g
     id="g5215"
     transform="matrix(1.2694255,0,0,1.2694255,-12.646057,-45.145145)"
     style="stroke-width:0.787758"><path
       style="font-variation-settings:normal;opacity:1;vector-effect:none;fill:#bf9f4f;fill-opacity:1;stroke:none;stroke-width:0.104214;stroke-linecap:butt;stroke-linejoin:miter;stroke-miterlimit:4;stroke-dasharray:none;stroke-dashoffset:0;stroke-opacity:1;-inkscape-stroke:none;stop-color:#000000;stop-opacity:1"
       d="m 93.189506,95.451611 c -0.87427,1.791152 -0.133066,3.747985 0.798386,5.455649 0.931453,1.70766 0.731856,4.08064 -0.17742,5.52217 0,0 2.32864,-0.53225 2.794365,-0.86492 0.465726,-0.33266 1.502907,-2.68965 1.441533,-4.34677 -0.06138,-1.657123 -1.286291,-2.838709 -0.266129,-5.034274 1.020161,-2.195564 -0.483476,-3.066643 0.169652,-3.808028 0.653128,-0.741385 1.805619,-0.132573 2.942227,1.311848 1.13664,1.444451 2.59056,3.284408 5.06713,3.338438 2.47656,0.05403 3.44839,-1.360511 3.62194,-3.039367 0.17355,-1.678854 -0.50841,-2.522971 -0.43821,-4.050577 0.0702,-1.527607 0.73577,-2.146395 0.71697,-3.834091 -0.0188,-1.687707 -0.95996,-3.538381 -3.25516,-3.693192 -2.29521,-0.154811 -4.01881,1.470019 -5.28314,2.804125 -1.26431,1.334077 -2.257939,1.411741 -2.761516,0.97457 -0.503577,-0.437171 -0.478081,-1.099781 0.862498,-2.258181 1.340608,-1.158424 3.256678,-2.756476 3.199088,-5.143632 -0.0576,-2.387156 -1.52773,-3.278762 -3.152043,-3.371586 -1.624305,-0.09282 -2.383633,0.642954 -3.857722,0.642954 -1.474089,0 -2.233417,-0.735774 -3.857722,-0.642954 -1.624305,0.09282 -3.094463,0.98443 -3.152043,3.371586 -0.05758,2.387156 1.858482,3.985208 3.199088,5.143632 1.340579,1.1584 1.366075,1.82101 0.862498,2.258181 -0.503577,0.437171 -1.497202,0.359507 -2.761507,-0.97457 -1.264332,-1.334106 -2.987937,-2.958936 -5.283143,-2.804125 -2.295206,0.154811 -3.236326,2.005485 -3.255158,3.693192 -0.01883,1.687696 0.646758,2.306484 0.716966,3.834091 0.07021,1.527606 -0.611758,2.371723 -0.438207,4.050577 0.173551,1.678856 1.145376,3.093392 3.621941,3.039367 2.476565,-0.05403 3.93049,-1.893987 5.067122,-3.338438 1.136608,-1.444421 2.300258,-1.882812 2.942227,-1.311848 0.641968,0.570965 0.914553,1.029353 -0.08451,3.076173 z"
       id="path5211" /><path
       id="path5213"
       style="font-variation-settings:normal;opacity:1;vector-effect:none;fill:#ffffff;fill-opacity:1;stroke:none;stroke-width:0.104214;stroke-linecap:butt;stroke-linejoin:miter;stroke-miterlimit:4;stroke-dasharray:none;stroke-dashoffset:0;stroke-opacity:1;-inkscape-stroke:none;stop-color:#000000;stop-opacity:1"
       d="m 92.04916,75.405732 c -0.09515,-2.9e-4 -0.193553,0.0025 -0.295072,0.0083 -1.624303,0.09282 -3.094166,0.984217 -3.151746,3.371371 -0.05758,2.387153 1.858167,3.985449 3.198772,5.143872 1.340577,1.158399 1.366056,1.820573 0.862479,2.257743 -0.503576,0.437171 -1.496768,0.359458 -2.761071,-0.974617 -1.264331,-1.334105 -2.988195,-2.958774 -5.283399,-2.803964 -2.295204,0.154811 -3.236266,2.00561 -3.255098,3.693315 -0.01883,1.687694 0.646544,2.306269 0.716752,3.833874 0.07021,1.527605 -0.611767,2.372064 -0.438216,4.050916 0.173551,1.678854 1.145438,3.093116 3.622001,3.039091 -2.059829,-0.251593 -2.768868,-1.361787 -2.915068,-2.776058 -0.146199,-1.41427 0.463985,-2.700561 0.393775,-4.228166 -0.07021,-1.527605 -0.75832,-2.102255 -0.73949,-3.789949 0.01883,-1.687706 0.91442,-3.023567 2.94504,-3.160531 2.030621,-0.136965 3.286812,1.314829 4.551143,2.648934 1.264304,1.334076 2.769609,1.729848 3.537769,1.062984 0.768159,-0.666863 0.884274,-1.605256 -0.456303,-2.763655 -1.340605,-1.158423 -3.240888,-2.615284 -3.183308,-5.002437 0.05758,-2.387154 1.260831,-2.980736 2.885135,-3.073556 1.624303,-0.09282 1.88178,0.626835 3.355867,0.626835 1.474088,0 2.233342,-0.704152 3.857646,-0.611332 1.623752,0.09279 3.108562,1.526495 2.979142,4.03748 0.10209,-0.379643 0.15607,-0.782314 0.14573,-1.210779 -0.0576,-2.387154 -1.52743,-3.278547 -3.151744,-3.371371 -1.624303,-0.09282 -2.384075,0.642855 -3.858162,0.642855 -1.381957,0 -2.135368,-0.64677 -3.562574,-0.651123 z m 14.34228,6.993372 c -2.18898,-0.04418 -3.84516,1.520851 -5.06998,2.813265 -1.26431,1.334075 -2.257493,1.411788 -2.761069,0.974617 0.111532,0.829215 1.696749,0.967173 2.961059,-0.366903 1.26433,-1.334104 3.04865,-3.066501 5.07928,-2.929536 2.03061,0.136964 3.12954,1.567823 3.25923,3.211173 -0.0188,-1.687705 -0.9599,-3.538504 -3.2551,-3.693315 -0.0717,-0.0048 -0.14281,-0.0079 -0.21342,-0.0093 z m -13.117548,9.976135 c 0.641967,0.570964 0.914829,1.02948 -0.08423,3.076298 -0.874269,1.79115 -0.13305,3.747818 0.798401,5.455483 0.931452,1.70766 0.731508,4.08113 -0.177767,5.52266 0,0 0.406602,-0.0938 0.908989,-0.22479 0.613339,-1.49842 0.762366,-3.63562 -0.02481,-5.07876 -0.931454,-1.707674 -1.84992,-3.354276 -0.975651,-5.145427 0.999063,-2.046818 0.618404,-3.478047 -0.444934,-3.605464 z" /></g></svg>
