<?xml version="1.0" encoding="UTF-8" standalone="no"?>
<svg
   xmlns:dc="http://purl.org/dc/elements/1.1/"
   xmlns:cc="http://creativecommons.org/ns#"
   xmlns:rdf="http://www.w3.org/1999/02/22-rdf-syntax-ns#"
   xmlns:svg="http://www.w3.org/2000/svg"
   xmlns="http://www.w3.org/2000/svg"
   id="svg8"
   version="1.1"
   viewBox="0 0 108.42863 118.84747"
   height="449.18729"
   width="409.80902">
  <defs
     id="defs2" />
  <metadata
     id="metadata5">
    <rdf:RDF>
      <cc:Work
         rdf:about="">
        <dc:format>image/svg+xml</dc:format>
        <dc:type
           rdf:resource="http://purl.org/dc/dcmitype/StillImage" />
        <dc:title></dc:title>
      </cc:Work>
    </rdf:RDF>
  </metadata>
  <g
     transform="translate(-23.573172,-38.353177)"
     id="layer1">
    <path
       id="path844"
       d="m 23.573172,38.353177 c 0,0 4.87077,56.589104 6.942438,77.029103 2.032272,20.05127 18.272477,41.81837 47.271881,41.81837 28.999399,0 45.239609,-21.7671 47.271879,-41.81837 2.07167,-20.439999 6.94244,-77.029103 6.94244,-77.029103 z"
       style="font-variation-settings:normal;opacity:1;vector-effect:none;fill:#0056b8;fill-opacity:1;fill-rule:evenodd;stroke:none;stroke-width:0.264583;stroke-linecap:butt;stroke-linejoin:miter;stroke-miterlimit:4;stroke-dasharray:none;stroke-dashoffset:0;stroke-opacity:1;marker:none;marker-start:none;marker-mid:none;marker-end:none;stop-color:#000000;stop-opacity:1" />
    <g
       id="g1063">
      <path
         transform="scale(0.26458333)"
         d="m 331.24805,186.38086 c -0.35743,-1.76078 -0.91032,-3.61659 -1.74805,-5.56836 -4.93432,-11.49617 -20.4375,-12.5625 -20.4375,-12.5625 0,0 -1.55098,0.66838 -2.46289,3.74023 L 295.92383,173.77148 294,155.74219 v -5.30469 c -10.18746,8.25 -15.0625,17.8125 -15.0625,17.8125 0,0 -15.50318,1.06633 -20.4375,12.5625 -4.93432,11.49617 -0.61808,19.98378 2.125,21.875 0,0 -0.31209,-3.20368 0.3125,-7.00781 3.29209,-10.09603 13.07908,-12.90505 19.73633,-12.64063 3.02602,0.12019 5.40573,0.87477 6.23437,1.86914 2.65165,3.18198 -2.8457,15.4043 -2.8457,15.4043 -1.79727,0.51351 -4.04866,0.0635 -5.33594,-0.27344 0,6e-5 -0.002,-5e-5 -0.002,0 -0.23516,3.57686 -2.87535,8.29203 -9.28711,13.33594 -13.0625,10.27584 -29.93292,10.82393 -36,8.8125 0,0 -1.6875,2.5 -1.3125,5.6875 4.08307,9.55578 106.22486,15.3689 122.13477,8.47461 C 370.16967,229.45532 368.5,216.5 368.5,216.5 c -1.44766,-1.55107 -3.61669,-2.23291 -5.28906,-2.54492 -0.51141,3.42181 -3.35501,6.47748 -8.64844,8.23242 -6.06708,2.01143 -22.9375,1.46334 -36,-8.8125 -2.34847,-1.84746 -4.18501,-3.64914 -5.58984,-5.36914 -1.26809,0.95408 -3.09503,2.67373 -3.91016,5.11914 L 294.86328,191.80273 307.06055,180.66602 326.125,188.75 M 187.41992,172.51172 c -2.67814,-0.003 -4.35351,0.32031 -4.35351,0.32031 0,0 12.22965,9.98622 16.93359,32.66797 4.70394,22.68175 4.125,36.55743 4.125,45.875 l 4.00977,-4 c 7.14016,-13.90145 2.93739,-46.55722 13.01367,-50.26953 10.07627,-3.71231 19.3789,3.47461 19.3789,3.47461 0,0 2.93062,2.43601 3.91993,6.05273 2.96442,-5.36634 -3.32412,-16.66042 -13.40039,-21.10547 -10.07628,-4.44504 -18.56055,-1.32617 -18.56055,-1.32617 -8.43008,-10.0929 -19.17449,-11.68182 -25.06641,-11.68945 z m 213.16016,0 c -5.89192,0.008 -16.63633,1.59655 -25.06641,11.68945 0,0 -8.48427,-3.11887 -18.56055,1.32617 -10.07627,4.44505 -16.36676,15.73913 -13.40234,21.10547 0,0 1.26981,-4.34703 3.92188,-6.05273 0,0 10.50082,-6.65543 21.10742,-5.06446 10.6066,1.591 27.48047,-18.66015 27.48047,-18.66015 0,0 4.0574,-3.06705 8.87304,-4.02344 0,0 -1.67537,-0.32378 -4.35351,-0.32031 z"
         style="font-variation-settings:normal;opacity:1;vector-effect:none;fill:#ffffff;fill-opacity:1;fill-rule:evenodd;stroke:none;stroke-width:0.999999;stroke-linecap:butt;stroke-linejoin:miter;stroke-miterlimit:4;stroke-dasharray:none;stroke-dashoffset:0;stroke-opacity:1;marker:none;marker-start:none;marker-mid:none;marker-end:none;stop-color:#000000;stop-opacity:1"
         id="path866" />
      <path
         id="path923"
         style="font-variation-settings:normal;opacity:1;vector-effect:none;fill:#705b29;fill-opacity:1;fill-rule:evenodd;stroke:none;stroke-width:0.999999;stroke-linecap:butt;stroke-linejoin:miter;stroke-miterlimit:4;stroke-dasharray:none;stroke-dashoffset:0;stroke-opacity:1;marker:none;marker-start:none;marker-mid:none;marker-end:none;stop-color:#000000;stop-opacity:1"
         d="m 294,150.4375 v 5.30469 l 1.92383,18.02929 10.67578,-1.78125 c 0.91191,-3.07185 2.46289,-3.74023 2.46289,-3.74023 0,0 -4.87504,-9.5625 -15.0625,-17.8125 z m 110.93359,22.39453 c -4.81564,0.95639 -8.87304,4.02344 -8.87304,4.02344 0,0 -16.87387,20.25115 -27.48047,18.66015 -10.6066,-1.59098 -21.10742,5.06446 -21.10742,5.06446 -2.65207,1.7057 -3.92188,6.05273 -3.92188,6.05273 0,0 3.55239,-2.9335 9.51758,-2.56836 5.96519,0.36514 10.02573,4.34758 10.21875,8.36914 0.0246,0.51281 -10e-4,1.02138 -0.0762,1.52149 1.67237,0.31201 3.8414,0.99385 5.28906,2.54492 0,0 1.66967,12.95532 -14.24023,19.84961 -15.90991,6.89429 -118.0517,1.08117 -122.13477,-8.47461 -0.375,-3.1875 1.3125,-5.6875 1.3125,-5.6875 -6.06708,-2.01143 -8.91763,-5.73235 -8.72461,-9.75391 0.19302,-4.02156 4.25356,-8.004 10.21875,-8.36914 5.96519,-0.36514 9.51563,2.56836 9.51563,2.56836 -0.98931,-3.61672 -3.91993,-6.05273 -3.91993,-6.05273 0,0 -9.30263,-7.18692 -19.3789,-3.47461 -10.07628,3.71231 -5.87351,36.36808 -13.01367,50.26953 l -4.00977,4 h 179.75 c 0,-9.31757 -0.57896,-23.19325 4.125,-45.875 4.70392,-22.68175 16.93359,-32.66797 16.93359,-32.66797 z m -97.87304,7.83399 -12.19727,11.13671 14.19922,21.32227 c 0.81513,-2.44541 2.64207,-4.16506 3.91016,-5.11914 -6.40902,-7.84686 -3.69659,-13.95221 1.83984,-14.50586 6.75,-0.675 12.5625,9.1875 12.5625,9.1875 2.27737,-1.57014 5.62089,-7.69622 3.87305,-16.30664 -3.44761,0.9846 -5.12305,2.36914 -5.12305,2.36914 z m -26.38672,2.37304 c -6.65725,-0.26442 -16.44424,2.5446 -19.73633,12.64063 -0.62459,3.80413 -0.3125,7.00781 -0.3125,7.00781 0,0 5.8125,-9.8625 12.5625,-9.1875 3.43675,0.34368 5.78103,2.82888 5.53711,6.53906 1.28701,0.33701 3.53988,0.78716 5.33789,0.27344 0,0 5.49735,-12.22232 2.8457,-15.4043 -0.82864,-0.99437 -3.20835,-1.74895 -6.23437,-1.86914 z"
         transform="scale(0.26458333)" />
      <path
         id="path881"
         style="font-variation-settings:normal;opacity:1;vector-effect:none;fill:#bf9f4f;fill-opacity:1;fill-rule:evenodd;stroke:none;stroke-width:0.264583;stroke-linecap:butt;stroke-linejoin:miter;stroke-miterlimit:4;stroke-dasharray:none;stroke-dashoffset:0;stroke-opacity:1;marker:none;marker-start:none;marker-mid:none;marker-end:none;stop-color:#000000;stop-opacity:1"
         d="m 100.50586,65.451172 c -0.006,-4.786329 0.44597,-9.636513 1.94175,-14.202862 0.57368,-1.581766 1.34255,-3.099647 2.34341,-4.455341 -2.04164,0.302061 -3.89113,1.509269 -5.089848,3.175781 -2.848734,-1.251649 -6.633946,0.155272 -7.765625,3.101562 2.057185,-0.578964 4.739783,0.463326 5.195836,2.713217 0.373486,1.957365 -1.365166,3.667408 -3.174012,4.040333 -2.472933,0.634927 -5.105789,0.08112 -7.430662,-0.849441 -2.339776,-0.997813 -4.59649,-2.664446 -5.589377,-5.077794 -0.531788,-1.429263 0.165108,-3.323977 1.757216,-3.6616 1.450582,-0.397752 2.92087,0.462307 3.840608,1.538411 0.621894,-2.162549 -0.412391,-4.811767 -2.607514,-5.610366 -0.880697,-0.406497 -1.848914,-0.561044 -2.806548,-0.657213 -0.863469,-1.604215 -1.978598,-3.077873 -3.333603,-4.298828 -1.355004,1.220955 -2.470133,2.694613 -3.333602,4.298828 -0.957634,0.09617 -1.925851,0.250716 -2.806548,0.657213 -2.195123,0.798599 -3.229408,3.447817 -2.607514,5.610366 0.919738,-1.076104 2.390026,-1.936163 3.840608,-1.538411 1.592108,0.337623 2.289004,2.232337 1.757216,3.6616 -0.992887,2.413348 -3.249601,4.079981 -5.589377,5.077794 -2.324873,0.930561 -4.957729,1.484368 -7.430662,0.849441 -1.808846,-0.372925 -3.547498,-2.082968 -3.174012,-4.040333 0.456053,-2.249891 3.138651,-3.292181 5.195836,-2.713217 -1.131679,-2.94629 -4.916891,-4.353211 -7.765625,-3.101562 -1.198718,-1.666512 -3.048208,-2.87372 -5.089848,-3.175781 1.00086,1.355694 1.76973,2.873575 2.34341,4.455341 1.49578,4.566349 1.94775,9.416533 1.94175,14.202862 z" />
      <path
         id="path926"
         style="font-variation-settings:normal;opacity:1;vector-effect:none;fill:#ffffff;fill-opacity:1;fill-rule:evenodd;stroke:none;stroke-width:0.999999;stroke-linecap:butt;stroke-linejoin:miter;stroke-miterlimit:4;stroke-dasharray:none;stroke-dashoffset:0;stroke-opacity:1;marker:none;marker-start:none;marker-mid:none;marker-end:none;stop-color:#000000;stop-opacity:1"
         d="m 197,180.75 c 15.62132,22.21599 14.0625,66.5625 14.0625,66.5625 h 4.3125 c -0.0186,-0.56254 -0.0437,-1.08795 -0.0644,-1.63867 2.12333,-0.35029 4.55468,-0.8137 4.55468,-1.14453 0,-0.33593 -2.50281,-0.81063 -4.64648,-1.16211 -0.0134,-0.30791 -0.0232,-0.63417 -0.0371,-0.93946 2.09001,-0.34802 4.41992,-0.79978 4.41992,-1.12304 0,-0.32964 -2.41681,-0.79261 -4.53515,-1.14258 -0.0165,-0.31582 -0.0297,-0.64286 -0.0469,-0.95508 2.09744,-0.34855 4.44922,-0.80207 4.44922,-1.12695 0,-0.33245 -2.45595,-0.7997 -4.58594,-1.15039 -0.0194,-0.31352 -0.0385,-0.62775 -0.0586,-0.9375 2.11278,-0.34961 4.51172,-0.81033 4.51172,-1.13867 0,-0.33711 -2.52181,-0.81039 -4.66992,-1.16211 -0.0223,-0.30645 -0.0453,-0.60557 -0.0684,-0.90821 2.13436,-0.35095 4.60547,-0.82075 4.60546,-1.15429 0,-0.34372 -2.61777,-0.8308 -4.78906,-1.1836 -0.0262,-0.30898 -0.057,-0.60335 -0.084,-0.9082 2.10428,-0.34903 4.47461,-0.80641 4.47461,-1.13281 0,-0.33798 -2.53223,-0.81608 -4.6836,-1.16797 -0.0302,-0.30748 -0.0628,-0.59532 -0.0937,-0.89844 2.14321,-0.35146 4.64453,-0.8224 4.64454,-1.1582 0,-0.34966 -2.70512,-0.8478 -4.89454,-1.20117 -0.0336,-0.29702 -0.0691,-0.57846 -0.10351,-0.8711 2.13352,-0.3509 4.60156,-0.81901 4.60156,-1.15234 0,-0.34922 -2.7005,-0.84588 -4.88867,-1.19922 -0.0368,-0.28317 -0.0776,-0.55119 -0.11524,-0.83008 2.18537,-0.35327 4.8711,-0.84901 4.8711,-1.19726 0,-0.36729 -2.98762,-0.89723 -5.21485,-1.25 -0.0424,-0.2834 -0.0876,-0.5494 -0.13085,-0.82813 2.12202,-0.3502 4.55078,-0.81597 4.55078,-1.14648 0,-0.35151 -2.73518,-0.85161 -4.92969,-1.20508 -0.0473,-0.27598 -0.0983,-0.53939 -0.14649,-0.81055 2.19652,-0.3535 4.94336,-0.85673 4.94336,-1.20898 0,-0.37812 -3.1724,-0.93259 -5.41015,-1.28321 -0.052,-0.26255 -0.10343,-0.52544 -0.15625,-0.7832 2.14156,-0.35137 4.63867,-0.82283 4.63867,-1.1582 0,-0.36417 -2.93586,-0.891 -5.1582,-1.24414 -0.0552,-0.24206 -0.10807,-0.49684 -0.16407,-0.73438 2.22514,-0.35295 5.18946,-0.88021 5.18946,-1.24609 0,-0.40224 -3.62271,-1.01294 -5.84571,-1.35352 -0.0599,-0.22507 -0.12103,-0.43947 -0.18164,-0.66015 2.19988,-0.35355 4.9668,-0.85934 4.9668,-1.21289 0,-0.39457 -3.47334,-0.9855 -5.70703,-1.33008 -0.0676,-0.21736 -0.13286,-0.44548 -0.20117,-0.65821 2.21787,-0.35334 5.11133,-0.87465 5.11133,-1.23632 0,-0.41198 -3.81864,-1.04651 -6.01954,-1.38086 -0.0734,-0.19927 -0.14663,-0.4009 -0.2207,-0.59571 2.22447,-0.353 5.17969,-0.88258 5.17969,-1.24804 0,-0.42626 -4.12691,-1.10097 -6.27735,-1.42383 -0.0817,-0.18478 -0.16183,-0.3724 -0.24414,-0.55274 2.22579,-0.3529 5.19532,-0.88173 5.19532,-1.24804 0,-0.45188 -4.53901,-1.16815 -6.54102,-1.46289 -0.0882,-0.16362 -0.17493,-0.33069 -0.26367,-0.49024 2.23549,-0.35146 5.34765,-0.89683 5.34765,-1.27148 0,-0.51799 -5.86156,-1.36834 -7.08593,-1.54102 -0.10929,-0.16257 -0.21641,-0.34595 -0.32617,-0.5039 1.72023,-0.26436 4.04296,-0.65505 4.04296,-0.96289 0,-0.43269 -5.39267,-1.17893 -5.68164,-1.21875 -0.11633,-0.144 -0.23304,-0.27192 -0.34961,-0.41211 0.80072,-0.14794 3.96485,-0.74503 3.96485,-1.13868 0,-0.41653 -4.48983,-1.09629 -5.19727,-1.18554 -0.6617,-0.69106 -1.6973,-1.64038 -2.82031,-1.99219 z"
         transform="scale(0.26458333)" />
      <path
         d="m 99.731364,65.434765 h -1.141016 c 0.0049,-0.148839 0.01157,-0.287854 0.01705,-0.433565 -0.561798,-0.09268 -1.205093,-0.215291 -1.205093,-0.302824 0,-0.08888 0.662202,-0.214479 1.229381,-0.307474 0.0035,-0.08147 0.0061,-0.167791 0.0098,-0.248566 -0.552982,-0.09208 -1.169437,-0.211608 -1.169437,-0.297138 0,-0.08722 0.639448,-0.209711 1.199925,-0.302307 0.0044,-0.08356 0.0079,-0.17009 0.0124,-0.252698 -0.554948,-0.09222 -1.17719,-0.212215 -1.17719,-0.298173 0,-0.08796 0.649804,-0.211587 1.213364,-0.304374 0.0051,-0.08295 0.01017,-0.166092 0.0155,-0.248047 -0.559006,-0.0925 -1.193725,-0.214399 -1.193725,-0.301273 0,-0.08919 0.667228,-0.214415 1.235583,-0.307475 0.0059,-0.08108 0.01199,-0.160223 0.01809,-0.240297 -0.564716,-0.09286 -1.21853,-0.217157 -1.218527,-0.305406 0,-0.09094 0.692618,-0.219815 1.267105,-0.31316 0.0069,-0.08175 0.01508,-0.159637 0.02222,-0.240295 -0.556758,-0.09235 -1.183908,-0.213363 -1.183908,-0.299723 0,-0.08942 0.669986,-0.215921 1.239203,-0.309025 0.008,-0.08135 0.01661,-0.157512 0.02481,-0.237712 -0.567058,-0.09299 -1.228866,-0.217594 -1.228868,-0.306441 0,-0.09251 0.715729,-0.224314 1.295013,-0.317809 0.0089,-0.07859 0.01828,-0.153051 0.02739,-0.230479 -0.564493,-0.09284 -1.217496,-0.216696 -1.217496,-0.30489 0,-0.0924 0.714508,-0.223806 1.293461,-0.317293 0.0097,-0.07492 0.02054,-0.145836 0.03049,-0.219626 -0.578213,-0.09347 -1.288812,-0.224634 -1.288812,-0.316775 0,-0.09718 0.790474,-0.237392 1.379762,-0.330729 0.01122,-0.07498 0.02319,-0.145362 0.03462,-0.219109 -0.561451,-0.09266 -1.204061,-0.215892 -1.204061,-0.30334 0,-0.093 0.723683,-0.225322 1.304314,-0.318844 0.01252,-0.07302 0.02601,-0.142714 0.03876,-0.214458 -0.581163,-0.09353 -1.307931,-0.226676 -1.307931,-0.319876 0,-0.100044 0.839364,-0.246748 1.431436,-0.339516 0.01376,-0.06947 0.02737,-0.139023 0.04134,-0.207222 -0.566621,-0.09297 -1.227315,-0.217707 -1.227315,-0.30644 0,-0.09635 0.77678,-0.235744 1.364774,-0.329179 0.01461,-0.06405 0.02859,-0.131455 0.04341,-0.194304 -0.588735,-0.09338 -1.373045,-0.232889 -1.373045,-0.329695 0,-0.106426 0.958509,-0.268007 1.546678,-0.358119 0.01584,-0.05955 0.03202,-0.116276 0.04806,-0.174665 -0.582052,-0.09354 -1.314133,-0.227367 -1.314133,-0.32091 0,-0.104397 0.918988,-0.260747 1.509984,-0.351917 0.0179,-0.05751 0.0352,-0.117867 0.0532,-0.174151 -0.586804,-0.09349 -1.352365,-0.231418 -1.352365,-0.32711 0,-0.109003 1.010348,-0.276889 1.592665,-0.365353 0.0194,-0.05272 0.0388,-0.106071 0.0584,-0.157615 -0.588549,-0.0934 -1.370451,-0.233515 -1.370451,-0.33021 0,-0.112781 1.091911,-0.291298 1.660881,-0.376722 0.0216,-0.04889 0.0428,-0.09853 0.0646,-0.146246 -0.5889,-0.09337 -1.374589,-0.233291 -1.374589,-0.33021 0,-0.11956 1.200939,-0.309073 1.730639,-0.387056 0.0233,-0.04329 0.0463,-0.0875 0.0698,-0.12971 -0.59147,-0.09299 -1.41489,-0.237286 -1.41489,-0.336412 0,-0.137052 1.55087,-0.36204 1.87481,-0.407728 0.0289,-0.04301 0.0573,-0.09153 0.0863,-0.133324 -0.45514,-0.06994 -1.0697,-0.173315 -1.0697,-0.254765 0,-0.114482 1.42681,-0.311925 1.50327,-0.322461 0.0308,-0.0381 0.0617,-0.07194 0.0925,-0.109037 -0.21186,-0.03914 -1.04903,-0.197122 -1.04903,-0.301276 0,-0.110207 1.02531,-0.29006 1.21248,-0.313674 0.17508,-0.182843 0.4551,-0.412222 0.90883,-0.5271 -4.133154,5.877981 -3.720716,17.611328 -3.720716,17.611328 z"
         style="font-variation-settings:normal;opacity:1;vector-effect:none;fill:#705b29;fill-opacity:1;fill-rule:evenodd;stroke:none;stroke-width:0.264583;stroke-linecap:butt;stroke-linejoin:miter;stroke-miterlimit:4;stroke-dasharray:none;stroke-dashoffset:0;stroke-opacity:1;marker:none;marker-start:none;marker-mid:none;marker-end:none;stop-color:#000000;stop-opacity:1"
         id="path1047" />
    </g>
    <g
       id="g1731">
      <path
         id="path1322"
         style="font-variation-settings:normal;opacity:1;vector-effect:none;fill:#ffffff;fill-opacity:1;fill-rule:evenodd;stroke:none;stroke-width:0.999999;stroke-linecap:butt;stroke-linejoin:miter;stroke-miterlimit:4;stroke-dasharray:none;stroke-dashoffset:0;stroke-opacity:1;marker:none;marker-start:none;marker-mid:none;marker-end:none;stop-color:#000000;stop-opacity:1"
         d="m 192.63867,553.10742 c 0.98027,-1.78267 1.86133,-3.55469 1.86133,-3.55469 l 9.67773,-76.67578 -14.84961,-46.66797 -12.50195,-4.47851 -2.29492,4.15625 4.51172,16.93555 -13.94727,4.74414 -2.29687,4.16406 -6.88086,-3.24805 c 0,0 -3.71289,-19.0925 -3.71289,-21.74414 0,-2.65164 11.1366,-11.13567 12.19726,-11.66601 1.06066,-0.53035 32.88028,-28.63789 29.16797,-36.0625 -3.71231,-7.42464 -11.96093,-4.47852 -11.96093,-4.47852 l -3.47657,2.88477 -1.91992,17.41992 -14.71875,-0.6211 -3.47266,2.88282 -3.16601,-19.67969 7.95508,-13.25781 39.77539,-4.24219 4.30664,-27.41406 -4.81641,0.54297 -11.24609,13.4414 -11.91211,-8.66797 -4.81641,0.53516 c 3.78539,-12.75735 11.93788,-26.0606 27.02344,-40.23047 11.625,-13.5 31.5,-22.875 31.5,-22.875 l 1.64648,2.56836 -0.67578,4.48828 8.98828,11.66992 -14.57421,9.73242 -0.67969,4.48438 3.44726,12.66602 L 302,298.5 l 15.875,16.375 c 0,0 -0.9953,3.01244 -1.82617,6.52344 17.84938,6.2417 33.67726,19.24381 44.13476,33.57031 14.61724,20.02523 21.99859,41.14397 16.83594,77.19141 -5.16264,36.04739 -22.89431,55.38994 -29.52344,66.26172 -6.62913,10.87176 -5.83421,14.58468 -3.71289,17.23632 2.12133,2.65164 27.04607,24.66007 34.47071,30.22852 5.54006,4.15504 10.48818,7.27172 14.07617,7.70703 1.19497,-2.4781 1.16797,-4.04102 1.16797,-4.04102 l 0.64648,-36.92187 c 0,0 33.83169,-53.54204 37.01367,-62.02734 3.18195,-8.48527 0.20313,-22.01368 0.20313,-22.01368 l -3.94727,2.04102 -4.50976,16.93555 -13.94727,-4.74414 -3.94922,2.04296 -7.79101,-6.45898 9.9082,-27.53125 -3,-9.75 4.84961,-3.14062 2.8125,-3.14844 -1.91992,-17.41992 14.71679,-0.6211 2.81641,-3.15039 L 427.75,370 l -27.375,-4.125 -3.81445,-14.89844 0.60937,-4.48828 -11.24609,-13.4414 11.91211,-8.66797 0.61718,-4.4961 0.0469,-7.63281 -24.73633,-21.05078 -4.7832,0.83789 -8.99024,11.67187 -14.57421,-9.73242 -4.78321,0.83594 -2.68945,-9.91992 9.19531,-19.39649 L 348,261.5 H 240 c 0,0 -50.58099,21.17441 -77.75,76.5 -27.16901,55.32557 -17.60291,100.3507 -11.05859,125.44922 6.54431,25.09852 21.20002,50.13209 22.79882,53.57422 2.60387,5.60594 -4.28549,6.32367 -1.10351,11.62695 3.18198,5.30328 16.1759,22.2732 19.62305,24.39453"
         transform="scale(0.26458333)" />
      <path
         id="path1415"
         style="font-variation-settings:normal;opacity:1;vector-effect:none;fill:#705b29;fill-opacity:1;fill-rule:evenodd;stroke:none;stroke-width:0.999999;stroke-linecap:butt;stroke-linejoin:miter;stroke-miterlimit:4;stroke-dasharray:none;stroke-dashoffset:0;stroke-opacity:1;marker:none;marker-start:none;marker-mid:none;marker-end:none;stop-color:#000000;stop-opacity:1"
         d="m 348,261.5 -0.86133,3.99609 -9.19531,19.39649 2.68945,9.91992 4.78321,-0.83594 8.98828,-11.66992 14.57617,9.73047 4.7832,-0.83789 L 398.5,312.25 l -0.0469,7.63281 -0.61718,4.4961 11.24609,13.4414 -11.91211,8.66797 -0.60937,4.48828 3.81445,14.89844 27.375,4.125 -0.34961,3.64453 -2.81641,3.15039 1.92188,17.41992 -14.71875,0.6211 -2.8125,3.14844 -4.84961,3.14062 3,9.75 -9.9082,27.53125 7.79101,6.45898 3.94922,-2.04296 4.51172,-16.93555 13.94531,4.74414 3.94727,-2.04102 c 0,0 2.97882,13.52841 -0.20313,22.01368 -3.18198,8.4853 -37.01367,62.02734 -37.01367,62.02734 l -0.64648,36.92187 c 0,0 0.027,1.56292 -1.16797,4.04102 1.22051,0.14808 2.28519,-0.0104 3.16015,-0.54883 3.44716,-2.12133 16.44107,-19.09125 19.62305,-24.39453 3.18199,-5.30328 -3.70934,-6.02101 -1.10547,-11.62695 1.59882,-3.44213 16.25646,-28.4757 22.80078,-53.57422 C 443.35292,438.3507 452.91898,393.32557 425.75,338 398.58098,282.67441 348,261.5 348,261.5 Z m -115.375,13.75 c 0,0 -19.875,9.375 -31.5,22.875 -15.08556,14.16987 -23.23805,27.47312 -27.02344,40.23047 l 4.81641,-0.53516 11.24609,-13.4414 11.91211,8.66797 4.81641,-0.54297 -4.30664,27.41406 -39.77539,4.24219 -7.95508,13.25781 3.16601,19.67969 3.47266,-2.88282 1.92188,-17.41992 14.71679,0.6211 3.47657,-2.88477 c 0,0 8.24862,-2.94612 11.96093,4.47852 3.71231,7.42461 -28.10731,35.53215 -29.16797,36.0625 -1.06066,0.53034 -12.19726,9.01437 -12.19726,11.66601 0,2.65164 3.71289,21.74414 3.71289,21.74414 l 6.88086,3.24805 2.29687,-4.16406 -4.50976,-16.93555 13.94531,-4.74414 2.29492,-4.15625 12.50195,4.47851 14.84961,46.66797 -9.67773,76.67578 c 0,0 -0.88106,1.77202 -1.86133,3.55469 3.47436,1.96017 9.77078,-1.71824 17.10742,-7.2207 7.42462,-5.56845 32.34938,-27.57688 34.47071,-30.22852 2.12132,-2.65164 2.91624,-6.36456 -3.71289,-17.23632 -6.62913,-10.87178 -24.3608,-30.21433 -29.52344,-66.26172 -5.16265,-36.04744 2.2187,-57.16618 16.83594,-77.19141 C 242.43365,334.94352 267.54292,317.5 294,317.5 c 7.52909,0 14.94878,1.41564 22.04883,3.89844 0.83087,-3.511 1.82617,-6.52344 1.82617,-6.52344 L 302,298.5 l -71.22266,22.35938 -3.44726,-12.66602 0.67969,-4.48438 -8.99024,-11.67187 14.57617,-9.73047 0.67578,-4.48828 z"
         transform="scale(0.26458333)" />
      <path
         id="path1380"
         style="font-variation-settings:normal;opacity:1;vector-effect:none;fill:#bf9f4f;fill-opacity:1;fill-rule:evenodd;stroke:none;stroke-width:0.999999;stroke-linecap:butt;stroke-linejoin:miter;stroke-miterlimit:4;stroke-dasharray:none;stroke-dashoffset:0;stroke-opacity:1;marker:none;marker-start:none;marker-mid:none;marker-end:none;stop-color:#000000;stop-opacity:1"
         d="m 240.86719,265.49609 c -16.11768,7.68427 -30.5308,18.26485 -43.35157,30.72071 -20.35007,19.67491 -34.87962,44.94931 -42.83984,72.03711 -8.2134,27.28316 -8.53527,56.20985 -2.08789,83.94531 3.94227,19.37321 11.75366,37.89178 20.98633,55.42187 1.96331,4.5662 6.08292,10.36067 5.3789,12.85743 -0.70397,2.49675 -3.12437,4.56766 -2.62695,6.11523 5.45885,8.0832 11.28288,16.03466 18.17383,22.95898 3.77711,-0.11856 6.95497,-2.90764 10.0625,-4.84375 11.22386,-8.33344 30.65287,-25.21373 32.72852,-27.15429 2.07564,-1.94056 4.12848,-3.44723 4.43164,-6.31446 -1.28973,-7.06061 -6.12041,-12.78407 -9.97071,-18.63867 -10.89482,-15.2115 -19.3097,-32.36907 -23.10742,-50.76562 -4.22105,-21.24813 -5.36465,-44.00028 2.35938,-64.61719 8.12714,-21.07827 23.29343,-39.44621 42.49609,-51.35937 12.01866,-7.54714 26.16169,-12.35547 40.5,-12.35547 14.33831,0 28.48134,4.80833 40.5,12.35547 19.20266,11.91316 34.36895,30.2811 42.49609,51.35937 7.72403,20.61691 6.58043,43.36906 2.35938,64.61719 -3.79772,18.39655 -12.2126,35.55412 -23.10742,50.76562 -3.8503,5.8546 -8.68098,11.57806 -9.97071,18.63867 0.30316,2.86723 2.356,4.3739 4.43164,6.31446 2.07565,1.94056 21.50466,18.82085 32.72852,27.15429 3.10753,1.93611 6.28344,4.72508 10.06055,4.84375 6.89094,-6.92432 12.71693,-14.87578 18.17578,-22.95898 0.49742,-1.54757 -1.92298,-3.61848 -2.62695,-6.11523 -0.70402,-2.49676 3.41559,-8.29123 5.3789,-12.85743 9.23267,-17.53009 17.04406,-36.04866 20.98633,-55.42187 6.44738,-27.73546 6.12551,-56.66215 -2.08789,-83.94531 -7.96022,-27.0878 -22.48977,-52.3622 -42.83984,-72.03711 -12.82077,-12.45586 -27.23319,-23.03644 -43.34571,-30.72071 z m -6.59571,12.32227 13.09571,16.99414 -20.03711,13.38086 -13.09375,-16.99414 z m 119.45704,0 20.03515,13.38086 -13.0957,16.99414 -20.03516,-13.38086 z m -164.18164,42.06445 17.3457,12.6211 -15.45313,18.47265 -17.33789,-12.62109 z m 208.90624,0 15.44532,18.47266 -17.33789,12.62109 -15.45313,-18.47265 z m -237.85351,53.76172 21.00977,0.88672 -2.58399,23.45313 -21.00391,-0.88672 z m 266.80078,0 2.57813,23.45313 -21.00391,0.88672 -2.58399,-23.45313 z m -250.57422,48.08594 6.16602,23.13476 -20.19336,6.86524 -6.16016,-23.14063 z m 234.34766,0 20.1875,6.85937 -6.16016,23.14063 -20.19336,-6.86524 z"
         transform="scale(0.26458333)" />
      <path
         id="path1433"
         style="color:#000000;font-style:normal;font-variant:normal;font-weight:normal;font-stretch:normal;font-size:medium;line-height:normal;font-family:sans-serif;font-variant-ligatures:normal;font-variant-position:normal;font-variant-caps:normal;font-variant-numeric:normal;font-variant-alternates:normal;font-variant-east-asian:normal;font-feature-settings:normal;font-variation-settings:normal;text-indent:0;text-align:start;text-decoration:none;text-decoration-line:none;text-decoration-style:solid;text-decoration-color:#000000;letter-spacing:normal;word-spacing:normal;text-transform:none;writing-mode:lr-tb;direction:ltr;text-orientation:mixed;dominant-baseline:auto;baseline-shift:baseline;text-anchor:start;white-space:normal;shape-padding:0;shape-margin:0;inline-size:0;clip-rule:nonzero;display:inline;overflow:visible;visibility:visible;opacity:1;isolation:auto;mix-blend-mode:normal;color-interpolation:sRGB;color-interpolation-filters:linearRGB;solid-color:#000000;solid-opacity:1;vector-effect:none;fill:#705b29;fill-opacity:1;fill-rule:evenodd;stroke:none;stroke-width:12;stroke-linecap:butt;stroke-linejoin:miter;stroke-miterlimit:4;stroke-dasharray:none;stroke-dashoffset:0;stroke-opacity:1;marker:none;color-rendering:auto;image-rendering:auto;shape-rendering:auto;text-rendering:auto;enable-background:accumulate;stop-color:#000000;stop-opacity:1"
         d="m 218.04688,296.14453 c -7.79286,5.97669 -17.05734,14.11766 -26.09376,25.49024 l 2.32422,1.68945 c 7.4373,-9.31893 16.09137,-17.63099 25.51563,-24.91406 z m -39.45704,45.47852 c -4.14004,7.41329 -7.99957,15.73564 -11.35351,25.11718 -0.85275,2.38527 -1.6096,4.74604 -2.29492,7.08789 l 3.0332,0.12696 c 3.17757,-10.65541 7.56214,-20.89846 12.98242,-30.60938 z m -18.07031,55.58007 c -0.93032,10.54377 -0.4106,20.49327 0.95313,29.74415 l 2.82226,-0.95899 c -1.38863,-9.46675 -1.71111,-19.1143 -0.87109,-28.66211 z m 9.06055,52.22266 -2.76367,0.93945 c 1.7703,5.8827 3.68194,11.35037 5.5,16.30665 1.97779,5.39169 10.48046,9.12304 10.48047,9.12304 l -1.88282,-4.45508 c -2.00177,-1.22815 -3.94955,-2.67177 -5.27344,-4.64453 -2.28848,-5.66784 -4.31472,-11.42729 -6.06054,-17.26953 z"
         transform="scale(0.26458333)" />
      <path
         id="path1458"
         style="color:#000000;font-style:normal;font-variant:normal;font-weight:normal;font-stretch:normal;font-size:medium;line-height:normal;font-family:sans-serif;font-variant-ligatures:normal;font-variant-position:normal;font-variant-caps:normal;font-variant-numeric:normal;font-variant-alternates:normal;font-variant-east-asian:normal;font-feature-settings:normal;font-variation-settings:normal;text-indent:0;text-align:start;text-decoration:none;text-decoration-line:none;text-decoration-style:solid;text-decoration-color:#000000;letter-spacing:normal;word-spacing:normal;text-transform:none;writing-mode:lr-tb;direction:ltr;text-orientation:mixed;dominant-baseline:auto;baseline-shift:baseline;text-anchor:start;white-space:normal;shape-padding:0;shape-margin:0;inline-size:0;clip-rule:nonzero;display:inline;overflow:visible;visibility:visible;opacity:1;isolation:auto;mix-blend-mode:normal;color-interpolation:sRGB;color-interpolation-filters:linearRGB;solid-color:#000000;solid-opacity:1;vector-effect:none;fill:#ffffff;fill-opacity:1;fill-rule:evenodd;stroke:none;stroke-width:12;stroke-linecap:butt;stroke-linejoin:miter;stroke-miterlimit:4;stroke-dasharray:none;stroke-dashoffset:0;stroke-opacity:1;marker:none;color-rendering:auto;image-rendering:auto;shape-rendering:auto;text-rendering:auto;enable-background:accumulate;stop-color:#000000;stop-opacity:1"
         d="m 223.40625,303.10156 c -9.03913,6.88845 -17.33481,14.77922 -24.43945,23.63672 l 2.51953,1.83203 c 8.1361,-10.20677 16.50287,-17.43744 23.84375,-22.97265 z m -37.61133,43.76563 c -4.73719,8.72502 -8.73525,17.87746 -11.65625,27.34961 l 3.1875,0.13281 c 0.38122,-1.1841 0.78477,-2.37472 1.21289,-3.57227 2.95199,-8.25721 6.25312,-15.56368 9.75977,-22.08789 z m -16.41797,50.70898 c -0.86631,8.84367 -0.54178,17.69977 0.66993,26.45703 l 2.95117,-1.00195 c -1.04485,-7.95841 -1.37112,-16.4039 -0.52149,-25.32422 z m 8.81446,48.92188 -2.9375,0.99804 c 1.14433,3.82973 2.40691,7.61927 3.75976,11.35743 1.72132,3.879 2.94809,8.24906 1.90039,12.48632 l 1.88282,4.45508 c 0,0 2.99814,-7.17714 0.82421,-13.16406 -1.81779,-5.00617 -3.70622,-10.40309 -5.42968,-16.13281 z"
         transform="scale(0.26458333)" />
      <path
         d="m 97.883428,78.354906 c 2.061861,1.581332 4.513092,3.735297 6.903972,6.744292 l -0.61495,0.447001 c -1.96778,-2.465634 -4.257506,-4.664866 -6.751008,-6.591845 z M 108.3231,90.387764 c 1.09539,1.961433 2.11656,4.163388 3.00395,6.645587 0.22563,0.631103 0.42588,1.255723 0.6072,1.875338 l -0.80253,0.03359 c -0.84074,-2.819244 -2.00082,-5.529384 -3.43494,-8.098731 z m 4.78111,14.705556 c 0.24614,2.78971 0.10863,5.42218 -0.25219,7.86981 l -0.74672,-0.25373 c 0.36741,-2.50475 0.45273,-5.05733 0.23048,-7.58352 z m -2.39727,13.81725 0.73122,0.24856 c -0.4684,1.55647 -0.97418,3.00312 -1.45521,4.31447 -0.52329,1.42655 -2.77296,2.4138 -2.77296,2.4138 l 0.49816,-1.17874 c 0.52964,-0.32494 1.04499,-0.7069 1.39527,-1.22886 0.60549,-1.49962 1.1416,-3.02347 1.60352,-4.56923 z"
         style="color:#000000;font-style:normal;font-variant:normal;font-weight:normal;font-stretch:normal;font-size:medium;line-height:normal;font-family:sans-serif;font-variant-ligatures:normal;font-variant-position:normal;font-variant-caps:normal;font-variant-numeric:normal;font-variant-alternates:normal;font-variant-east-asian:normal;font-feature-settings:normal;font-variation-settings:normal;text-indent:0;text-align:start;text-decoration:none;text-decoration-line:none;text-decoration-style:solid;text-decoration-color:#000000;letter-spacing:normal;word-spacing:normal;text-transform:none;writing-mode:lr-tb;direction:ltr;text-orientation:mixed;dominant-baseline:auto;baseline-shift:baseline;text-anchor:start;white-space:normal;shape-padding:0;shape-margin:0;inline-size:0;clip-rule:nonzero;display:inline;overflow:visible;visibility:visible;opacity:1;isolation:auto;mix-blend-mode:normal;color-interpolation:sRGB;color-interpolation-filters:linearRGB;solid-color:#000000;solid-opacity:1;vector-effect:none;fill:#ffffff;fill-opacity:1;fill-rule:evenodd;stroke:none;stroke-width:3.175;stroke-linecap:butt;stroke-linejoin:miter;stroke-miterlimit:4;stroke-dasharray:none;stroke-dashoffset:0;stroke-opacity:1;marker:none;color-rendering:auto;image-rendering:auto;shape-rendering:auto;text-rendering:auto;enable-background:accumulate;stop-color:#000000;stop-opacity:1"
         id="path1465" />
      <path
         d="m 96.465428,80.19562 c 2.391604,1.822569 4.586502,3.910335 6.466272,6.253882 l -0.66663,0.484725 c -2.15267,-2.700541 -4.36638,-4.613656 -6.308655,-6.07818 z m 9.951332,11.579656 c 1.25338,2.308495 2.3112,4.730078 3.08405,7.236251 l -0.84336,0.03514 c -0.10086,-0.313293 -0.20764,-0.628311 -0.32091,-0.945163 -0.78105,-2.18472 -1.65447,-4.11789 -2.58227,-5.844087 z m 4.34392,13.416754 c 0.22921,2.33988 0.14335,4.68306 -0.17725,7.00009 l -0.78083,-0.2651 c 0.27645,-2.10567 0.36277,-4.3402 0.13798,-6.70037 z m -2.33216,12.94391 0.77721,0.26407 c -0.30277,1.01328 -0.63682,2.01593 -0.99476,3.00498 -0.45544,1.02632 -0.78002,2.18257 -0.50282,3.30367 l -0.49816,1.17874 c 0,0 -0.79326,-1.89895 -0.21807,-3.48299 0.48096,-1.32455 0.9806,-2.75248 1.4366,-4.26847 z"
         style="color:#000000;font-style:normal;font-variant:normal;font-weight:normal;font-stretch:normal;font-size:medium;line-height:normal;font-family:sans-serif;font-variant-ligatures:normal;font-variant-position:normal;font-variant-caps:normal;font-variant-numeric:normal;font-variant-alternates:normal;font-variant-east-asian:normal;font-feature-settings:normal;font-variation-settings:normal;text-indent:0;text-align:start;text-decoration:none;text-decoration-line:none;text-decoration-style:solid;text-decoration-color:#000000;letter-spacing:normal;word-spacing:normal;text-transform:none;writing-mode:lr-tb;direction:ltr;text-orientation:mixed;dominant-baseline:auto;baseline-shift:baseline;text-anchor:start;white-space:normal;shape-padding:0;shape-margin:0;inline-size:0;clip-rule:nonzero;display:inline;overflow:visible;visibility:visible;opacity:1;isolation:auto;mix-blend-mode:normal;color-interpolation:sRGB;color-interpolation-filters:linearRGB;solid-color:#000000;solid-opacity:1;vector-effect:none;fill:#705b29;fill-opacity:1;fill-rule:evenodd;stroke:none;stroke-width:3.175;stroke-linecap:butt;stroke-linejoin:miter;stroke-miterlimit:4;stroke-dasharray:none;stroke-dashoffset:0;stroke-opacity:1;marker:none;color-rendering:auto;image-rendering:auto;shape-rendering:auto;text-rendering:auto;enable-background:accumulate;stop-color:#000000;stop-opacity:1"
         id="path1467" />
      <path
         id="path1518"
         style="font-variation-settings:normal;opacity:1;vector-effect:none;fill:#705b29;fill-opacity:1;fill-rule:evenodd;stroke:none;stroke-width:0.999999;stroke-linecap:butt;stroke-linejoin:miter;stroke-miterlimit:4;stroke-dasharray:none;stroke-dashoffset:0;stroke-opacity:1;marker:none;marker-start:none;marker-mid:none;marker-end:none;stop-color:#000000;stop-opacity:1"
         d="m 368.66211,491.02344 c -0.56691,-0.0158 -1.13567,0.0291 -1.71094,0.13867 -0.0311,0.55903 -0.0607,0.50968 -0.0762,1.15039 -0.0276,1.14618 0.0149,2.39675 0.0898,3.62109 1.19365,-0.15809 2.38695,-0.062 3.66016,0.50391 3.375,1.49998 33.56247,22.87501 36.1875,25.3125 2.625,2.43749 0.9375,6 0.9375,6 3.375,-3.375 2.81248,-7.125 -1.5,-10.3125 -4.31252,-3.1875 -28.875,-22.68751 -32.4375,-24.75 -1.76835,-1.02385 -3.44966,-1.61663 -5.15039,-1.66406 z m -147.61328,0.13867 c 0.0311,0.55906 0.0607,0.50969 0.0762,1.15039 0.0276,1.14619 -0.0149,2.39674 -0.0898,3.62109 1.97043,0.26102 3.94202,1.42681 6.27734,3.87891 3.75,3.93747 11.8125,13.5 11.8125,13.5 0,0 2.42898,-2.10873 -2.25,-7.6875 -4.875,-5.8125 -8.4375,-10.3125 -12.1875,-12.9375 -1.2681,-0.88767 -2.46296,-1.30146 -3.63867,-1.52539 z"
         transform="scale(0.26458333)" />
      <path
         id="path1505"
         style="font-variation-settings:normal;opacity:1;vector-effect:none;fill:#ffffff;fill-opacity:1;fill-rule:evenodd;stroke:none;stroke-width:0.999999;stroke-linecap:butt;stroke-linejoin:miter;stroke-miterlimit:4;stroke-dasharray:none;stroke-dashoffset:0;stroke-opacity:1;marker:none;marker-start:none;marker-mid:none;marker-end:none;stop-color:#000000;stop-opacity:1"
         d="m 219.33789,491.02344 c -1.70073,0.0475 -3.38204,0.64028 -5.15039,1.66406 -3.5625,2.06249 -28.12498,21.5625 -32.4375,24.75 -4.31248,3.1875 -4.875,6.9375 -1.5,10.3125 0,0 -1.6875,-3.56251 0.9375,-6 2.62503,-2.43749 32.8125,-23.81252 36.1875,-25.3125 1.27321,-0.56588 2.46652,-0.66202 3.66016,-0.50391 0.075,-1.22435 0.11746,-2.4749 0.0898,-3.62109 -0.0154,-0.6407 -0.045,-0.59133 -0.0762,-1.15039 -0.57527,-0.10957 -1.14403,-0.15449 -1.71094,-0.13867 z m 147.61328,0.13867 c -1.17571,0.2239 -2.37057,0.63773 -3.63867,1.52539 -3.75,2.625 -7.3125,7.125 -12.1875,12.9375 -4.67898,5.57877 -2.25,7.6875 -2.25,7.6875 0,0 8.0625,-9.56256 11.8125,-13.5 2.33532,-2.45212 4.30691,-3.61774 6.27734,-3.87891 -0.0751,-1.22434 -0.11743,-2.47491 -0.0898,-3.62109 0.0154,-0.64071 0.0452,-0.59136 0.0762,-1.15039 z"
         transform="scale(0.26458333)" />
    </g>
  </g>
</svg>
