<?xml version="1.0" encoding="UTF-8" standalone="no"?>
<svg
   xmlns:dc="http://purl.org/dc/elements/1.1/"
   xmlns:cc="http://creativecommons.org/ns#"
   xmlns:rdf="http://www.w3.org/1999/02/22-rdf-syntax-ns#"
   xmlns:svg="http://www.w3.org/2000/svg"
   xmlns="http://www.w3.org/2000/svg"
   width="500"
   height="558"
   viewBox="0 0 132.29166 147.6375"
   version="1.1"
   id="svg847">
  <defs
     id="defs841" />
  <metadata
     id="metadata844">
    <rdf:RDF>
      <cc:Work
         rdf:about="">
        <dc:format>image/svg+xml</dc:format>
        <dc:type
           rdf:resource="http://purl.org/dc/dcmitype/StillImage" />
        <dc:title></dc:title>
      </cc:Work>
    </rdf:RDF>
  </metadata>
  <g
     id="layer1"
     transform="translate(-41.90811,-39.309524)">
    <g
       id="g1171"
       transform="matrix(0.94534137,0,0,0.94476508,2.2906398,2.1712583)"
       style="stroke-width:1.05814">
      <path
         style="font-variation-settings:normal;opacity:1;vector-effect:none;fill:#0261ca;fill-opacity:1;stroke:none;stroke-width:0.139984;stroke-linecap:butt;stroke-linejoin:miter;stroke-miterlimit:4;stroke-dasharray:none;stroke-dashoffset:0;stroke-opacity:1;stop-color:#000000;stop-opacity:1"
         d="m 41.90811,39.309525 c 0,0 2.35766,52.482369 4.13342,92.011485 1.77576,39.52912 32.46757,64.25752 65.83689,64.25752 33.36933,0 64.06114,-24.7284 65.8369,-64.25752 l 4.13342,-92.011486 z"
         id="path3095" />
      <path
         id="path3097"
         style="font-variation-settings:normal;opacity:1;vector-effect:none;fill:#bf9f4f;fill-opacity:1;stroke:none;stroke-width:0.529072;stroke-linecap:butt;stroke-linejoin:miter;stroke-miterlimit:4;stroke-dasharray:none;stroke-dashoffset:0;stroke-opacity:1;stop-color:#000000;stop-opacity:1"
         d="m 230.04102,218.55664 2.16601,50.4375 39.32619,3.13672 2.21873,51.21875 -39.16406,1.13477 2.38281,55.49218 39.25783,1.01562 1.8828,52.33985 -38.74024,2.57422 3.59571,56.53906 38.17186,-1.49023 8.46681,53.65625 -34.29688,7.6289 c 7.48214,19.38215 17.68589,36.67622 29.96875,51.64258 l 25.87888,-24.3663 39.24747,37.05091 -19.80213,26.74508 c 16.9768,12.3626 41.14881,21.2616 63.04393,25.07187 v -39.27539 l 59.60449,1.33244 2e-5,36.13866 c 21.32912,-1.25849 43.15147,-9.41556 64.24801,-22.2652 l -22.14844,-29.91406 43.33883,-34.3986 21.72957,23.87864 c 13.54195,-11.68932 24.92257,-30.30962 29.96875,-51.64063 l -30.95775,-6.88577 7.08541,-56.40757 37.63086,4.91601 2.17898,-57.95665 -35.87694,-2.38487 0.27204,-54.11716 39.13867,2.27344 c 1.02614,-23.90557 0.43463,-38.21113 1.24943,-57.19328 l -36.27343,-1.05075 0.88156,-53.0219 H 614.905 c 0.41383,-9.64091 0.7493,-51.85509 0.7493,-51.85509 h -54.61524 l -1.92968,38.83984 -50.09375,0 -1.8711,-38.83984 H 453.25 v 38.83984 l -58.04884,0 -2.7578,-38.83984 h -53.89258 l 0.96484,38.83984 -50.32812,0 -4.53125,-38.83984 z"
         transform="scale(0.26458333)" />
      <path
         style="font-variation-settings:normal;opacity:1;vector-effect:none;fill:#0261ca;fill-opacity:1;stroke:none;stroke-width:0.139984;stroke-linecap:butt;stroke-linejoin:miter;stroke-miterlimit:4;stroke-dasharray:none;stroke-dashoffset:0;stroke-opacity:1;stop-color:#000000;stop-opacity:1"
         d="m 93.627854,85.810221 c 0,0 28.632066,-6.152343 34.360836,-7.383318 5.72877,-1.230975 15.40055,-4.398636 18.77237,-7.16658 -6.32849,-0.539516 -14.47912,1.577886 -20.07531,2.856859 -5.59619,1.278973 -34.060157,7.784222 -34.060157,7.784222 z"
         id="path902" />
      <path
         id="path3333"
         style="font-variation-settings:normal;opacity:1;vector-effect:none;fill:#705b29;fill-opacity:1;stroke:none;stroke-width:0.529072;stroke-linecap:butt;stroke-linejoin:miter;stroke-miterlimit:4;stroke-dasharray:none;stroke-dashoffset:0;stroke-opacity:1;stop-color:#000000;stop-opacity:1"
         d="m 232.04102,220.55664 2.16601,50.4375 h 1.91406 l -2.08007,-48.4375 h 52.71484 l -0.0996,-2 z m 108.50976,0 0.96484,38.83984 h -54.88116 l 0.0996,2 h 56.78155 l -0.96484,-38.83984 h 51.89258 v -2 z m 114.69922,0 v 38.83984 h -62.80664 v 2 H 457.25 v -38.83984 h 51.8457 l 0.0488,-2 z m 107.78906,0 -1.92968,38.83984 h -54.97936 l -0.0488,2 h 57.02819 l 1.92968,-38.83984 h 52.5293 l 0.0859,-2 z m -289.93545,48.4375 2.64834,56.35547 -39.16406,1.13477 2.38281,55.49218 1.91016,-0.11133 -2.29297,-53.38085 39.16406,-1.13477 -2.73428,-58.35547 z m 298.76133,56.16511 -0.084,1.93945 41.24248,1.32513 0.084,-1.93945 z m -292.03491,52.32819 -1.92383,0.11133 2.20513,57.73326 -38.74024,2.57422 3.59571,56.53906 1.85742,-0.24219 -3.45313,-54.29687 38.74024,-2.57422 z m 287.67583,58.01531 -0.0664,1.86328 40.76563,2.39959 0.11914,-1.85937 z m -282.90412,51.50424 -1.65039,0.21484 8.65412,59.3895 -34.29688,7.6289 c 7.48214,19.38214 18.2541,35.91865 30.53696,50.88497 l 1.15406,-1.55434 c -11.48329,-14.44771 -21.62964,-29.28001 -28.744,-47.70944 l 33.34986,-7.25009 z m 271.23918,59.16889 -0.23633,1.50195 36.21377,7.99209 c 0.18854,-0.47722 0.38315,-0.9499 0.56836,-1.42969 z m -18.93984,29.57823 1.68574,-1.44481 25.45844,27.92922 -2.55453,0.32267 z m -182.06366,39.43208 -22.23586,30.12631 c 0.80093,0.48784 1.61005,0.96079 2.41797,1.43555 l 21.94875,-29.73764 z M 455.25,627.30468 v 41.2754 c 0.66863,-0.11635 1.33313,-0.24909 2,-0.37305 v -40.90235 z"
         transform="scale(0.26458333)" />
      <path
         id="path921"
         style="font-variation-settings:normal;opacity:1;vector-effect:none;fill:#002957;fill-opacity:1;stroke:none;stroke-width:0.529072;stroke-linecap:butt;stroke-linejoin:miter;stroke-miterlimit:4;stroke-dasharray:none;stroke-dashoffset:0;stroke-opacity:1;stop-color:#000000;stop-opacity:1"
         d="m 524.91211,277.15234 c -4.85545,0.30403 -19.38484,4.92295 -30.92578,7.56055 -10.91592,2.49476 -134.01255,30.32662 -136.61133,30.9043 -0.73656,0.16373 -1.47641,0.1502 -2.16797,0.0605 L 353.57812,308.75 c -0.15495,0.0354 -3.49804,0.79883 -3.49804,0.79883 l 3.78906,14.77344 3.20703,-0.68946 -1.04492,-4.44531 c 0.51295,-0.30609 1.12131,-0.58115 1.84766,-0.76562 3.01728,-0.76635 121.00288,-27.74878 136.8789,-31.16016 17.8718,-3.84022 28.99766,-8.47205 30.99219,-10.10938 -0.23397,-0.0199 -0.51419,-0.0203 -0.83789,0 z"
         transform="scale(0.26458333)" />
      <path
         style="font-variation-settings:normal;opacity:1;vector-effect:none;fill:#ffffff;fill-opacity:1;stroke:none;stroke-width:0.139984;stroke-linecap:butt;stroke-linejoin:miter;stroke-miterlimit:4;stroke-dasharray:none;stroke-dashoffset:0;stroke-opacity:1;stop-color:#000000;stop-opacity:1"
         d="m 93.356486,84.651662 c 0,0 0.28327,-0.600544 1.081593,-0.803305 0.798323,-0.202761 34.215621,-7.702696 37.669341,-8.444818 3.88789,-0.835414 6.54896,-1.448722 9.53222,-2.783967 L 94.304707,83.105928 c -0.687705,0.152351 -1.407746,-0.246417 -1.407746,-0.246417 z"
         id="path906" />
      <path
         id="path3314"
         style="font-variation-settings:normal;opacity:1;vector-effect:none;fill:#ffffff;fill-opacity:1;stroke:none;stroke-width:0.139984;stroke-linecap:butt;stroke-linejoin:miter;stroke-miterlimit:4;stroke-dasharray:none;stroke-dashoffset:0;stroke-opacity:1;stop-color:#000000;stop-opacity:1"
         d="m 87.47163,170.20976 -0.623363,0.86536 c 5.022029,3.05886 11.922099,5.41336 17.715373,6.42146 v -10.69229 h 15.35875 v -0.82993 h -16.08842 l 2.5e-4,10.39162 c -5.793031,-1.0081 -11.34056,-3.09736 -16.36259,-6.15622 z M 75.315299,57.826444 75.825862,68.102818 h 0.68833 L 76.003628,57.826444 Z m 28.518671,0 v 10.276374 h 0.72967 V 57.826444 Z m 30.34802,0 -0.25528,10.276374 h 0.75034 l 0.25528,-10.276374 z m 28.70987,0 c -0.0511,1.190029 -0.4704,10.952733 -0.57309,13.344921 H 151.9499 l -0.62322,14.381552 0.76481,0.02223 0.58808,-13.573848 h 10.36887 c 0.10949,-2.550824 0.60875,-14.174845 0.60875,-14.174845 z m -101.453751,13.344921 0.03566,0.829924 h 10.369394 l -0.03617,-0.829924 z M 161.68884,85.853158 c -0.19679,4.584004 -0.37389,8.705241 -0.63046,14.682302 l -10.35544,-0.601511 -0.52968,14.718481 0.75758,0.0501 0.50178,-13.93869 10.35543,0.60152 c 0.2715,-6.325018 0.4495,-10.467652 0.66508,-15.490012 z m -88.634901,14.080791 -10.355442,0.601511 0.03721,0.87023 10.349757,-0.60151 z m 74.961641,44.357751 2.22951,-14.46965 9.9565,1.30069 1.00097,-15.73754 -0.77928,-0.0517 -0.95136,14.95929 -9.9565,-1.30069 -2.38383,15.10295 z m -73.774117,-15.29957 -9.956498,1.30069 0.05839,0.91777 10.041247,-1.31206 z m 82.938607,17.33795 c -1.97956,5.12797 -4.9235,10.31692 -8.17315,14.27665 l -0.72967,-0.82992 c 3.24965,-3.95973 5.94967,-8.53528 7.92923,-13.66325 z m -25.56143,16.30419 10.90933,-9.17535 -0.7821,-0.85945 -11.32076,9.69553 5.86011,7.91476 c -5.02203,3.05886 -10.56956,5.14812 -16.36283,6.15622 v 0.96583 c 5.79328,-1.0081 12.31851,-3.55218 17.41141,-6.75278 z m -49.607626,-10.0348 -6.531385,7.17785 c 0.228883,0.29236 0.459843,0.58273 0.694531,0.86868 l 5.965169,-6.71548 10.571646,9.20294 0.620795,-0.83846 z" />
      <path
         style="font-variation-settings:normal;opacity:1;vector-effect:none;fill:#000000;fill-opacity:1;stroke:none;stroke-width:0.139984;stroke-linecap:butt;stroke-linejoin:miter;stroke-miterlimit:4;stroke-dasharray:none;stroke-dashoffset:0;stroke-opacity:1;stop-color:#000000;stop-opacity:1"
         d="m 112.63691,127.92129 c -1.76339,-1.0829 -3.07724,-0.039 -5.10268,-0.10628 0.6568,-0.99336 0.8057,-2.11367 0.7087,-3.29548 -1.74006,0.99115 -1.86803,2.56057 -5.24442,2.96478 0.58044,-1.0666 1.4954,-2.13899 1.06306,-3.50809 -0.91656,2.00531 -3.20111,3.27772 -5.31529,1.94891 1.55739,-1.02905 3.36025,-2.37323 3.08287,-4.50028 -1.49163,1.83343 -4.45904,2.49562 -5.563339,0.67327 1.389985,-0.23625 3.573157,-2.36844 3.250478,-3.89009 -1.32665,0.53514 -1.040733,1.07849 -3.144172,1.37419 0.0603,-0.79894 0.838863,-1.14166 0.992188,-2.01981 -0.637835,0.17717 -1.919261,0.87772 -3.260045,1.77176 -1.340785,0.89403 -2.244977,1.48462 -3.685268,1.52372 0.520894,-0.61343 1.096045,-1.19069 1.34654,-1.98438 -1.830456,0.23504 -1.464393,1.07371 -3.817153,1.13051 -0.312429,-1.44972 -1.095426,-2.28711 -2.856417,-2.21741 l -2.02003,-1.45263 -0.744141,-1.70067 -0.105936,-2.23242 0.248047,-2.26808 1.133779,-1.77198 c 0.40884,-0.095 0.682468,0.006 1.070647,0.56821 0.388179,0.56231 1.220762,1.74711 1.823161,2.06603 0.6024,0.31892 2.042324,-0.0816 3.464059,-0.51685 1.421735,-0.43525 3.091911,-1.25908 4.802202,-1.96679 -2.068102,0.15752 -3.599555,-0.65047 -3.777796,-2.41824 1.214753,0.37326 2.659441,0.26347 4.169553,-1.67727 -1.942581,-1.66247 -2.953987,-3.13265 -4.701079,-4.760134 1.026147,-0.154735 1.552968,0.230307 2.282534,0.312837 -2.002945,-3.283701 -3.387292,-4.327138 -5.046485,-6.407704 0.437035,-0.01296 0.94924,0.01164 1.311105,-0.106305 -0.791818,-1.226835 -1.991678,-2.091143 -3.720704,-2.941127 -1.729026,-0.849984 -2.577042,-1.398651 -2.905692,-2.232423 -0.32865,-0.833772 -0.397222,-2.201475 -0.505162,-3.267859 -0.10794,-1.066384 0.429694,-1.833964 1.242447,-1.825564 -0.08951,-1.087181 0.490103,-1.564563 1.766808,-1.473913 0.228165,-1.237935 1.63473,-1.11427 2.551339,-0.602399 0.375862,-1.434389 2.276733,-0.570859 3.222829,0.439901 l 2.97441,4.258993 0.802198,-0.172376 c 0.707247,1.305687 1.542626,2.488431 2.864813,3.548076 -0.04296,-0.510597 -0.03557,-1.089921 0.187554,-1.400952 0.881372,1.405614 1.959707,2.747661 3.190988,4.187922 1.23129,1.440261 1.62334,1.773936 1.55734,2.934567 1.87807,-0.354353 3.1183,-0.07087 3.1183,-0.07087 -0.47839,-1.196749 -1.73408,-1.76185 -1.34654,-3.578962 3.16491,1.368335 6.73891,1.360111 9.13602,-1.455066 -2.10984,-0.183465 -3.62913,-0.141772 -6.40335,0.256645 -2.77422,0.398416 -4.0689,0.176835 -4.84697,-0.431602 -0.77807,-0.608438 -0.96288,-1.132644 -0.88588,-1.594587 0,0 1.16936,-1.051247 3.1183,-1.157552 1.94894,-0.106306 4.016,0.03543 4.016,0.03543 0,0 1.12212,-0.815011 0.87407,-2.480469 -0.24805,-1.665458 -2.42924,-2.184096 -4.1193,-1.534075 -1.69005,0.650022 -2.69171,0.702698 -3.78369,0.59885 -0.59016,-0.130361 -1.01499,-0.282115 -1.359037,-0.548757 -0.944581,-0.732068 -0.74164,-1.773463 -0.74844,-2.343027 -0.402123,-0.201061 -0.76409,-0.621221 -0.67327,-1.063058 0.09082,-0.441836 0.257461,-0.682165 0.531817,-0.856608 0.34498,-0.08028 0.807667,-0.159949 1.8955,-0.348191 1.08783,-0.188242 3.82701,-0.744141 4.60658,-1.417411 0.77958,-0.67327 0.50396,-1.140008 2.38203,-1.565231 1.87807,-0.425224 6.00598,-1.114179 7.48009,-1.390574 1.47411,-0.276395 1.89352,-1.048117 3.08643,-1.630022 1.19291,-0.581905 2.24275,-0.408857 3.09641,0.03351 0.85366,0.442369 1.33775,1.038908 1.55118,1.809734 l -0.0882,1.353131 c 1.18418,-0.279652 2.21845,-0.889106 2.93162,-2.204973 1.26,1.564428 0.0927,3.842197 -0.58401,5.496123 1.33828,0.05741 2.571,-0.5072 3.43723,-1.488281 0.83135,3.085837 -1.24278,4.372326 -2.9057,4.783761 0.76488,0.894118 1.68208,1.606001 2.74894,1.868302 1.06686,0.262302 2.18252,0.275773 3.59399,-0.167409 -0.0242,0.805214 -0.66415,1.495165 -1.59459,2.196986 0.64964,0.241932 1.47647,0.255282 2.23242,0.212612 -1.14184,1.499849 -3.39949,2.116226 -5.13811,2.303292 0.68727,1.978976 2.49725,3.236146 5.91769,3.047433 -0.36271,1.118198 -1.1246,2.020067 -3.04743,2.126116 0.655,0.684051 1.49986,0.703591 2.33872,0.744141 -0.90113,1.777752 -2.88515,1.722931 -4.99637,1.452846 0.46568,1.926045 1.46548,3.644372 3.62659,4.911083 -1.53718,0.92296 -3.14081,0.80936 -4.36592,0.30927 0.20368,0.82843 0.72378,1.4665 1.6659,1.87494 -1.75599,0.8154 -3.31549,0.22568 -4.3158,-1.08173 -0.29367,2.3809 0.36044,4.60892 2.98763,6.51871 -0.72706,0.56549 -2.5338,0.61201 -3.86244,0.16536 0,0 1.004,1.77177 4.1223,7.01619 3.1183,5.24442 4.83741,9.2743 4.83741,9.2743 1.63671,-0.28286 2.78747,0.12338 3.72611,1.82875 1.62635,-0.21216 2.17566,-1.13377 2.31367,-2.72421 1.24024,0.21261 1.58931,2.31789 0.91094,3.92901 -0.67837,1.61112 -2.41998,1.90744 -3.54353,1.73633 -1.12355,-0.17111 -1.34695,0.29287 -0.94994,0.61099 0.39702,0.31812 1.50859,0.42619 2.19018,-0.009 -0.35928,1.52968 -1.72721,1.38782 -3.36635,1.59458 0.68241,1.6672 3.19215,2.34778 5.05546,0.97063 0.66413,3.06556 -0.91951,4.58252 -3.75617,4.60493 0.55433,1.429 2.32885,2.97694 4.99637,2.58678 -0.25268,1.9203 -2.54223,3.58556 -4.53571,2.62223 0.24388,1.19665 2.14519,2.90568 4.67746,2.90569 -0.23181,1.3976 -2.42096,3.30293 -5.10268,2.16152 0.42939,1.40416 1.88976,3.1711 4.60658,2.76395 -0.69428,1.42162 -2.51305,1.99023 -4.39397,1.65366 0.23018,0.73535 0.72794,1.28376 1.52372,1.73632 -2.17064,0.42199 -3.14117,-0.14602 -3.86245,-0.99218 -0.47986,0.70255 -0.60499,0.92357 -0.87389,2.13187 -0.2689,1.2083 -1.05237,2.50565 -2.45554,2.45554 -1.40317,-0.0501 -2.96623,-0.9494 -4.41908,-0.16982 -1.45285,0.77958 -2.42613,1.56442 -3.08287,1.66546 -0.65674,0.10104 -1.00177,-0.0634 -1.28196,-0.36995 l -2.09104,-1.42932 -1.07884,-1.914 -0.41592,-1.91753 0.33525,-1.65065 c 0,0 -0.18542,-1.26826 0.58148,-1.68367 0.7669,-0.41541 1.73129,0.16513 2.77507,1.50603 1.04378,1.3409 3.05383,1.01867 4.30137,0 1.24754,-1.01867 1.75668,-1.55756 2.10475,-2.55577 0,0 -0.10883,-0.71625 -0.45102,-1.40316 -1.94225,0.005 -3.73779,-0.29909 -4.8382,-2.071 -1.08532,0.93027 -3.31464,1.41177 -4.57115,1.13392 -0.95796,2.62057 -5.32202,2.71193 -7.05708,-0.27374 -0.39797,1.53674 0.72085,3.94327 2.38467,4.35124 -2.41084,1.87014 -4.51717,0.91554 -6.36436,-0.60136 0.084,1.80976 1.05208,3.05112 3.00678,3.65825 -2.43466,1.61198 -5.18125,0.83087 -6.71514,-1.05237 -0.34553,1.90042 -0.17829,5.10343 -2.25199,5.39901 -2.073693,0.29559 -3.558438,-1.02046 -5.097924,-2.17507 -1.539486,-1.15462 -2.138954,-1.23663 -2.722808,-1.16095 -0.583854,0.0757 -1.14315,-0.003 -1.498666,-0.30208 -0.40914,-0.34439 -1.701189,-1.77146 -1.701189,-1.77146 l -0.46029,-2.19743 -0.389711,-2.23198 0.212315,-1.98467 c 0,0 -0.242066,-1.31103 0.732404,-1.6831 0.97447,-0.37207 1.7323,0.26484 2.267893,1.48649 0.516304,1.17765 0.961139,2.09865 2.402908,2.83316 1.380453,0.70328 2.518548,-0.13741 3.395526,-1.21487 0.876979,-1.07743 0.760205,-2.12323 1.170466,-3.63041 0.410262,-1.50718 1.063055,-2.12611 1.842636,-2.94112 -2.329207,-0.769 -3.073477,-2.04197 -4.145928,-4.00419 1.390636,-0.0788 1.902358,2.07055 3.614398,0.77957 -2.147572,-0.86297 -5.522898,-2.78136 -4.181362,-5.6342 1.441761,1.69619 3.063007,3.08508 6.089472,1.82263 3.02646,-1.26244 3.18276,-2.36597 5.34431,-4.1023 2.16155,-1.73633 4.08687,-1.92537 5.23261,-2.04346 z"
         id="path4012" />
      <path
         id="path4022"
         style="opacity:1;fill:#0261ca;fill-opacity:1;stroke:none;stroke-width:0.529072;stroke-miterlimit:4;stroke-dasharray:none"
         d="m 294.93276,330.06752 c 0,4.19127 2.35293,7.1953 6.14732,8.39537 0.89299,0.28243 1.63861,0.37695 2.625,0.37695 5.17767,0 9.375,-4.19733 9.375,-9.375 0,-1.42792 -0.27134,-2.6761 -0.84375,-3.88867 -1.50317,-3.18422 -4.193,-4.89377 -7.95396,-4.88365 -5.19316,0.014 -9.34961,4.2171 -9.34961,9.375 z m 12.9188,-0.60268 c 5e-5,2.29006 -1.85642,4.14653 -4.14648,4.14649 -2.29006,5e-5 -4.14654,-1.85643 -4.14649,-4.14649 -4e-5,-2.28777 1.85172,-4.14646 4.14356,-4.14648 2.29184,-2e-5 4.14945,1.85643 4.14941,4.14648 z"
         transform="scale(0.26458333)" />
      <path
         id="circle4026"
         style="opacity:1;fill:#ffffff;fill-opacity:1;stroke:none;stroke-width:0.529072;stroke-miterlimit:4;stroke-dasharray:none"
         d="m 294.33008,329.46484 c 8.7e-4,4.16594 2.75069,7.83159 6.75,8.99805 -3.21413,-1.43036 -5.28509,-4.61869 -5.28516,-8.13672 0,-4.91879 3.98746,-8.90625 8.90625,-8.90625 3.05879,-4.5e-4 5.90381,1.56881 7.53516,4.15625 -1.5235,-3.34207 -4.85831,-5.48664 -8.55664,-5.48633 -5.18322,0.0279 -9.34969,4.2171 -9.34961,9.375 z"
         transform="scale(0.26458333)" />
      <path
         id="circle4031"
         style="opacity:1;fill:#002957;fill-opacity:1;stroke:none;stroke-width:0.529072;stroke-miterlimit:4;stroke-dasharray:none"
         d="m 306.03906,323.51758 a 6.6066841,6.338827 0 0 1 4.32227,5.94726 6.6066841,6.338827 0 0 1 -4.31836,5.94532 6.2048987,5.9533314 0 0 0 5.92578,-5.94532 6.2048987,5.9533314 0 0 0 -5.92969,-5.94726 z"
         transform="scale(0.26458333)" />
      <path
         style="font-variation-settings:normal;opacity:1;vector-effect:none;fill:#0261ca;fill-opacity:1;stroke:none;stroke-width:0.139984;stroke-linecap:butt;stroke-linejoin:miter;stroke-miterlimit:4;stroke-dasharray:none;stroke-dashoffset:0;stroke-opacity:1;stop-color:#000000;stop-opacity:1"
         d="m 93.923834,76.151189 -1.825858,2.217112 2.539326,10.802204 2.527989,0.611162 0.150342,2.405425 -4.086987,-0.988334 -3.363806,-13.366218 3.434373,-3.786932 z"
         id="path4039" />
      <path
         id="path4091"
         style="font-variation-settings:normal;opacity:1;vector-effect:none;fill:#f90606;fill-opacity:1;stroke:none;stroke-width:0.529072;stroke-linecap:butt;stroke-linejoin:miter;stroke-miterlimit:4;stroke-dasharray:none;stroke-dashoffset:0;stroke-opacity:1;stop-color:#000000;stop-opacity:1"
         transform="scale(0.26458333)"
         d="M 347.03627,326.46999 344.24023,315.625 c -1.89624,-0.3162 -4.06841,0.14293 -5.50134,1.07483 0.36032,3.52379 2.90842,7.75496 8.29738,9.77016 z m -3.464,8.03978 c -1.72972,-8.93399 -4.80032,-10.27869 -6.96485,-15.9375 -2.2227,-0.0852 -3.71187,0.76347 -4.81712,2.02503 2.381,4.16398 5.32455,9.27498 11.78197,13.91247 z m -7.5,1.47265 c -1.18714,-6.61718 -3.93025,-8.5717 -5.89454,-12.85742 -2.69236,-0.58291 -4.44825,0.29104 -5.78258,2.09655 2.29417,3.44174 5.63454,8.54223 11.67712,10.76087 z M 327.5,340.53516 c -1.60714,-5.35589 -3.21512,-6.24285 -4.82227,-12.05274 -1.7013,0.14357 -3.09961,0.67988 -4.20096,1.70768 0.46952,5.40541 5.33244,8.82594 9.02323,10.34506 z" />
      <path
         id="path4086"
         style="font-variation-settings:normal;opacity:1;vector-effect:none;fill:#ffffff;fill-opacity:1;stroke:none;stroke-width:0.529072;stroke-linecap:butt;stroke-linejoin:miter;stroke-miterlimit:4;stroke-dasharray:none;stroke-dashoffset:0;stroke-opacity:1;stop-color:#000000;stop-opacity:1"
         transform="scale(0.26458333)"
         d="m 346.27866,325.33357 c -3.02822,-0.98425 -6.38906,-5.07821 -7.53977,-8.63374 -0.77722,0.51635 -1.47017,1.16391 -2.13147,1.87244 4.11273,5.81474 7.36565,7.09736 10.84766,10.44531 z M 331.7903,320.5973 c -0.64516,0.73641 -1.15951,1.61351 -1.61257,2.5277 4.46429,3.79465 7.75288,8.76749 13.39454,11.38477 -5.60715,-5.59739 -7.00979,-9.46864 -11.78197,-13.91247 z m -7.39515,4.62425 c -0.65341,0.88414 -1.20572,1.99166 -1.71742,3.26087 5.832,1.5625 6.38561,6.74107 13.39454,7.5 -5.2182,-2.45054 -6.41641,-7.17391 -11.67712,-10.76087 z m -5.91838,4.96855 c -0.60959,0.56889 -1.1282,1.28835 -1.55685,2.17513 2.40399,4.68841 5.79181,7.12571 10.58008,8.16993 -3.4381,-2.78304 -7.32271,-6.14972 -9.02323,-10.34506 z" />
      <path
         id="path4056"
         style="font-variation-settings:normal;opacity:1;vector-effect:none;fill:#ffffff;fill-opacity:1;stroke:none;stroke-width:0.529072;stroke-linecap:butt;stroke-linejoin:miter;stroke-miterlimit:4;stroke-dasharray:none;stroke-dashoffset:0;stroke-opacity:1;stop-color:#000000;stop-opacity:1"
         d="m 351.89648,277.39648 -13.25781,16.09961 11.9336,50.75977 1.78797,0.43236 -12.08891,-50.20291 12.35562,-14.62789 z"
         transform="scale(0.26458333)" />
      <path
         style="color:#000000;font-style:normal;font-variant:normal;font-weight:normal;font-stretch:normal;font-size:medium;line-height:normal;font-family:sans-serif;font-variant-ligatures:normal;font-variant-position:normal;font-variant-caps:normal;font-variant-numeric:normal;font-variant-alternates:normal;font-variant-east-asian:normal;font-feature-settings:normal;font-variation-settings:normal;text-indent:0;text-align:start;text-decoration:none;text-decoration-line:none;text-decoration-style:solid;text-decoration-color:#000000;letter-spacing:normal;word-spacing:normal;text-transform:none;writing-mode:lr-tb;direction:ltr;text-orientation:mixed;dominant-baseline:auto;baseline-shift:baseline;text-anchor:start;white-space:normal;shape-padding:0;shape-margin:0;inline-size:0;clip-rule:nonzero;display:inline;overflow:visible;visibility:visible;opacity:1;isolation:auto;mix-blend-mode:normal;color-interpolation:sRGB;color-interpolation-filters:linearRGB;solid-color:#000000;solid-opacity:1;vector-effect:none;fill:#990000;fill-opacity:1;fill-rule:nonzero;stroke:none;stroke-width:1.05814;stroke-linecap:butt;stroke-linejoin:miter;stroke-miterlimit:4;stroke-dasharray:none;stroke-dashoffset:0;stroke-opacity:1;color-rendering:auto;image-rendering:auto;shape-rendering:auto;text-rendering:auto;enable-background:accumulate;stop-color:#000000;stop-opacity:1"
         d="m 90.746094,83.697265 c -0.146214,0.609973 0.154682,1.274659 0.425781,1.728516 0.03288,-0.590847 -0.07226,-1.43263 -0.425781,-1.728516 z m -1.979801,0.952124 c -0.0064,0.916489 0.534947,1.678898 1.253238,2.229517 -0.237372,-0.85884 -0.82639,-2.091173 -1.253238,-2.229517 z m -1.752698,1.101612 c -0.0096,0.760268 0.484693,1.417347 1.126336,1.804996 -0.186049,-0.563704 -0.477886,-1.409344 -1.126336,-1.804996 z m -1.002853,3.283179 c -0.271983,-0.608871 -0.400526,-1.214345 -0.876953,-1.678711 -0.0879,0.641541 0.37714,1.406131 0.876953,1.678711 z"
         id="path4107" />
      <path
         id="path867"
         style="font-variation-settings:normal;opacity:1;vector-effect:none;fill:#ffffff;fill-opacity:1;stroke:none;stroke-width:0.529072;stroke-linecap:butt;stroke-linejoin:miter;stroke-miterlimit:4;stroke-dasharray:none;stroke-dashoffset:0;stroke-opacity:1;stop-color:#000000;stop-opacity:1"
         d="m 418.67578,288.30469 c 0,0 -2.46059,0.18949 -4.82812,0.3789 -2.36758,0.1894 -4.60496,0.37308 -6.5586,0.97266 -2.29122,0.70322 -2.3786,1.95145 -4.52148,1.21484 -0.0949,0.38441 -0.32288,1.05157 1.5625,1.31641 1.88534,0.26483 7.2265,0.48649 13.68359,4.07227 -1.88269,-2.03958 -4.68359,-3.50142 -8.61328,-4.96485 3.2572,-1.81295 8.59118,-1.18508 9.27539,-2.99023 z m -11.33203,4.97656 c -1.03763,1.03762 -0.94341,2.2946 -1.62305,3.07617 -0.67967,0.78157 -3.51568,0.29573 -5.34179,1.41016 2.37781,0.71246 4.34456,0.35227 5.34179,1.21289 0.99723,0.86062 1.25204,2.2125 2.56055,2.93945 1.92121,-2.14394 4.0582,-3.89376 9.04102,-4.6875 -4.85605,-1.25501 -5.66838,-3.12632 -9.97852,-3.95117 z m 3.27344,1.31836 c 0.7642,0.38798 1.24578,1.17225 1.24609,2.0293 3.1e-4,1.25711 -1.01828,2.27657 -2.27539,2.27734 -1.25787,3.1e-4 -2.27765,-1.01947 -2.27734,-2.27734 4.4e-4,-0.60573 0.24223,-1.18631 0.67187,-1.61329 -0.003,1.24579 0.5703,2.41695 1.33594,2.41797 0.76564,0.001 1.31737,-1.62637 1.29883,-2.83398 z m -36.97852,2.78711 c -1.30386,0.3034 -2.44125,1.42696 -2.61133,3.50586 -0.17007,2.07889 1.02509,3.25766 2.54493,4.01758 0.0259,2.15268 -0.74195,6.08859 2.82812,8.85546 1.30033,1.00779 3.37381,1.5818 5.73828,1.80665 -7.12189,-2.69358 -7.70846,-6.4656 -7.16015,-11.39844 -3.16059,-1.17548 -3.78482,-3.54732 -1.33985,-6.78711 z m 28.23828,30.7832 c -3.75279,-0.0558 -8.18247,0.089 -10.89453,0.89258 -5.42411,1.60714 -3.61719,4.62109 -3.61719,4.62109 0,0 1.94307,-0.80329 3.14844,-1.67382 1.20533,-0.87054 3.8842,-1.87528 8.16992,-1.60743 4.28572,0.26786 8.45899,-0.15654 10.02149,-1.91992 0,0 -3.07533,-0.2567 -6.82813,-0.3125 z"
         transform="scale(0.26458333)" />
      <path
         id="path5084"
         style="color:#000000;font-style:normal;font-variant:normal;font-weight:normal;font-stretch:normal;font-size:medium;line-height:normal;font-family:sans-serif;font-variant-ligatures:normal;font-variant-position:normal;font-variant-caps:normal;font-variant-numeric:normal;font-variant-alternates:normal;font-variant-east-asian:normal;font-feature-settings:normal;font-variation-settings:normal;text-indent:0;text-align:start;text-decoration:none;text-decoration-line:none;text-decoration-style:solid;text-decoration-color:#000000;letter-spacing:normal;word-spacing:normal;text-transform:none;writing-mode:lr-tb;direction:ltr;text-orientation:mixed;dominant-baseline:auto;baseline-shift:baseline;text-anchor:start;white-space:normal;shape-padding:0;shape-margin:0;inline-size:0;clip-rule:nonzero;display:inline;overflow:visible;visibility:visible;opacity:1;isolation:auto;mix-blend-mode:normal;color-interpolation:sRGB;color-interpolation-filters:linearRGB;solid-color:#000000;solid-opacity:1;vector-effect:none;fill:#999999;fill-opacity:1;fill-rule:nonzero;stroke:none;stroke-width:1.05814;stroke-linecap:butt;stroke-linejoin:miter;stroke-miterlimit:4;stroke-dasharray:none;stroke-dashoffset:0;stroke-opacity:1;color-rendering:auto;image-rendering:auto;shape-rendering:auto;text-rendering:auto;enable-background:accumulate;stop-color:#000000;stop-opacity:1"
         d="m 89.521484,93.265625 c -0.62158,-2.08207 -2.550781,-2.657227 -2.550781,-2.657227 0,0 1.642564,1.240846 2.550781,2.657227 z m 2.886719,4.838867 c -0.551282,-2.055505 -2.455078,-2.856445 -2.455078,-2.856445 0,0 1.502968,1.353925 2.455078,2.856445 z m 0.40039,2.856438 c 0,0 0.916092,1.16121 1.754883,1.80469 -0.464146,-1.21069 -1.754883,-1.80469 -1.754883,-1.80469 z M 87.743922,81.051739 c -0.08456,0.268256 0.171749,0.398035 0.239894,0.189804 0.06815,-0.208232 0.240267,-0.43494 0.335877,-0.611017 -0.228305,0.02619 -0.491207,0.152958 -0.575771,0.421213 z m 0.257778,0.586765 c -0.05055,0.250073 0.240631,0.297974 0.271587,0.133525 0.03096,-0.16445 0.166063,-0.464042 0.33762,-0.697451 -0.400031,0.02875 -0.558659,0.313855 -0.609207,0.563926 z m 0.494415,0.431288 c -0.122386,0.313968 0.177283,0.419315 0.243492,0.176615 0.06621,-0.2427 0.302245,-0.671672 0.302245,-0.671672 0,0 -0.423354,0.181086 -0.545737,0.495057 z m -3.414314,-0.378747 c -0.01098,0.281054 0.27045,0.338801 0.28139,0.119976 0.01094,-0.218825 0.117327,-0.48284 0.163226,-0.677873 -0.213364,0.08535 -0.433634,0.276844 -0.444616,0.557897 z m 0.4317,0.698217 c 0.01705,0.25456 0.310569,0.224139 0.297154,0.05734 -0.01341,-0.166801 0.03808,-0.491388 0.142159,-0.761719 -0.378361,0.133022 -0.456362,0.449821 -0.439313,0.704379 z m 0.392717,0.41783 c -0.03544,0.33511 0.28139,0.357875 0.28139,0.106306 0,-0.251569 0.114816,-0.727539 0.114816,-0.727539 0,0 -0.36077,0.286122 -0.396206,0.621233 z m 0.756636,-0.04212 c 0,0 -0.452567,0.374531 -0.265765,0.584682 0.186802,0.210151 0.3012,-0.106305 0.265765,-0.584682 z m -3.234783,0.05362 c -0.01098,0.281054 0.27045,0.338801 0.28139,0.119976 0.01094,-0.218825 0.117327,-0.48284 0.163226,-0.677873 -0.213364,0.08535 -0.433634,0.276844 -0.444616,0.557897 z m 0.4317,0.698217 c 0.01705,0.25456 0.310569,0.224139 0.297154,0.05734 -0.01341,-0.166801 0.03808,-0.491388 0.142159,-0.761719 -0.378361,0.133022 -0.456362,0.449821 -0.439313,0.704379 z m 0.392717,0.41783 c -0.03544,0.33511 0.28139,0.357875 0.28139,0.106306 0,-0.251569 0.114816,-0.727539 0.114816,-0.727539 0,0 -0.36077,0.286122 -0.396206,0.621233 z m 0.728494,0.702203 c -0.102892,-0.221227 -0.161062,-0.455294 0.02932,-0.669699 -0.28879,0 -0.509385,0.274729 -0.421314,0.657898 0.08807,0.38317 0.494887,0.233031 0.391994,0.0118 z m -2.605285,-0.06429 c -0.01098,0.281054 0.27045,0.338801 0.28139,0.119976 0.01094,-0.218825 0.117327,-0.48284 0.163226,-0.677873 -0.213364,0.08535 -0.433634,0.276844 -0.444616,0.557897 z m 0.331474,0.623047 c 0.01705,0.25456 0.310569,0.224139 0.297154,0.05734 -0.01341,-0.166801 0.03808,-0.491388 0.142159,-0.761719 -0.378361,0.133022 -0.456362,0.449821 -0.439313,0.704379 z m 0.392717,0.41783 c -0.03544,0.33511 0.28139,0.357875 0.28139,0.106306 0,-0.251569 0.114816,-0.727539 0.114816,-0.727539 0,0 -0.36077,0.286122 -0.396206,0.621233 z m 0.211217,0.615234 c -0.03721,0.358112 0.294435,0.358312 0.316825,0.112028 0.02239,-0.246285 0.03939,-0.480351 0.22977,-0.694756 -0.28879,0 -0.509386,0.224616 -0.546595,0.582728 z m 11.844402,18.187257 c 1.510112,-1.94074 2.50516,-2.87025 3.011997,-3.33091 0,0 -1.311105,-0.10631 -1.878069,-0.10631 0.781039,-0.85204 1.501609,-1.531455 2.870257,-2.196984 1.368648,-0.665529 3.055138,-0.946782 4.287668,-1.027623 -0.90728,-0.654303 -1.74753,-1.022852 -4.039621,-1.133929 0,0 0.944941,-1.358352 2.823011,-1.712704 -1.82219,-0.234927 -3.204668,0.692194 -3.725046,2.138665 0.910116,0.04021 1.644056,0.125273 2.515906,0.6024 -2.844805,0.202104 -4.810764,1.995446 -5.592695,3.745765 0.566798,0.0509 0.896042,0.068 1.485763,0.16679 -0.823452,0.73755 -1.468911,1.73153 -2.069452,2.58406 z M 105.81347,79.604492 c -0.0823,-0.37711 -0.47656,-0.500977 -0.47656,-0.500977 0,0 0.11949,0.397714 0.47656,0.500977 z m -0.95996,0.05078 c -0.12045,-0.411755 -0.32499,-0.480272 -0.52636,-0.501953 0,0 0.0783,0.392841 0.52636,0.501953 z m -2.05468,0.550781 c -0.0928,-0.755661 -0.90235,-1.002929 -0.90235,-1.002929 0,0 0.33766,0.6885 0.90235,1.002929 z m 1.12695,-0.375976 c -0.0846,-0.458813 -0.67524,-0.577243 -0.67578,-0.576172 0,0 0.22807,0.474683 0.67578,0.576172 z m -2.30567,0.475586 c -0.0167,-0.665916 -0.85058,-0.876953 -0.85058,-0.876953 0,0 0.36614,0.646915 0.85058,0.876953 z m -1.02636,0.05078 c 0.045,-0.654849 -0.601565,-0.902343 -0.601565,-0.902343 0,0 0.176435,0.581769 0.601565,0.902343 z m -0.776367,0.25 c 0.07864,-0.432316 -0.0933,-0.754457 -0.426758,-1.026367 0.100019,0.358256 0.220412,0.697285 0.426758,1.026367 z m 15.514647,-2.97949 c -0.55938,-0.04704 -0.89941,0.248047 -0.89941,0.248047 0,0 0.37764,0.102035 0.85216,0.13931 0.48844,0.03837 1.13438,0.210926 1.87635,0.60483 -0.54239,-0.747754 -1.26971,-0.945145 -1.8291,-0.992187 z m -1.24805,1.255859 c -0.80963,-0.07878 -1.31738,0.267578 -1.31738,0.267578 0,0 0.56505,0.04263 1.30876,0.119568 0.72913,0.07543 1.68161,0.367814 2.73128,1.085511 -0.85471,-1.080879 -1.91302,-1.39388 -2.72266,-1.472657 z m -0.86279,1.843637 c 0.69239,0.152939 1.56597,0.475512 2.41553,1.010855 -0.63699,-0.880416 -1.56826,-1.230806 -2.31016,-1.396837 -0.75302,-0.168521 -1.3041,0.05113 -1.3041,0.05113 0,0 0.51425,0.183656 1.19873,0.334848 z m -0.97456,0.647617 c -0.91012,-0.316502 -1.64214,-0.168012 -1.64214,-0.168012 0,0 0.62883,0.249516 1.45095,0.527427 0.73528,0.248552 1.61345,0.678387 2.44749,1.279214 -0.58196,-0.913968 -1.48784,-1.371388 -2.2563,-1.638629 z m -2.66069,4.512653 c -0.22975,0.640008 -0.7694,1.41476 -0.7694,1.41476 0.39533,-0.06322 0.88397,-0.540895 1.14244,-1.279995 0.26023,-0.744139 0.26739,-1.785352 -0.84277,-2.689453 0.73245,1.080274 0.69948,1.914679 0.46973,2.554688 z m -0.57554,7.023809 c 0.81884,-0.01936 1.75598,-0.203379 2.6937,-1.003302 -1.09515,0.433131 -1.98783,0.602498 -2.72902,0.615641 -0.74119,0.01314 -1.34618,0.02205 -1.34618,0.02205 0,0 0.56266,0.384964 1.3815,0.365606 z m 13.9466,-18.73496 c 0.32793,1.22309 -0.0579,2.90403 -1.65027,4.337169 -0.19383,-0.290749 -0.13111,-0.661069 0.45154,-1.350139 0.58265,-0.689071 1.06141,-1.867917 1.19873,-2.98703 z m -7.89747,1.077509 c 0,0 0.67653,0.526187 2.28015,0.125282 1.60361,-0.400904 1.62867,-1.378108 2.90655,-1.7289 1.27788,-0.350791 1.92935,0.626413 1.45328,1.829126 0,0 0.87698,-0.50113 0.67653,-1.678786 -0.20046,-1.177657 -2.0797,-1.453278 -3.20724,-0.350792 -1.12754,1.102487 -1.85418,1.603618 -2.68105,1.553504 -0.82686,-0.05011 -1.22777,-0.02505 -1.42822,0.250566 z m -10.34078,27.789893 c -0.36693,0.49306 -1.09179,1.01047 -2.45898,1.68164 -2.752233,1.35109 -6.541654,3.01112 -6.960625,3.18851 -0.418971,0.17739 -0.555754,0.4284 -0.535395,0.59831 0,0 4.911597,-2.07439 7.6718,-3.4294 1.38902,-0.68188 2.16668,-1.21641 2.60156,-1.80078 0.43488,-0.58437 0.49034,-1.20416 0.2666,-1.93653 -0.17361,0.72092 -0.21803,1.20519 -0.58496,1.69825 z m -1.62793,12.85827 c -0.0312,1.22574 -0.17825,1.96112 -0.32908,3.01701 2.47677,-0.61188 3.34437,-1.51246 4.08656,-2.69793 0.13683,0.69803 0.11587,1.11001 0.12821,1.83632 3.10768,-1.47109 4.25143,-4.46661 4.84666,-7.02873 0.29679,0.68187 0.50065,1.22995 0.77767,1.87076 1.18717,-2.16064 1.46344,-4.66273 1.32293,-6.84301 -0.35193,2.1107 -0.58803,3.17982 -1.2998,5.24361 -0.3276,-0.7519 -0.60219,-1.17428 -0.96772,-1.7231 -0.95024,3.46385 -1.9704,6.13608 -4.17711,7.66474 0.0105,-0.88584 -0.10726,-1.64781 -0.32484,-2.32685 -0.8893,1.76855 -2.09517,2.77786 -3.53459,3.18527 0.17927,-1.41231 0.21732,-2.42356 -0.0338,-3.4731 -1.38002,1.46117 -2.62329,2.37897 -4.069621,3.5818 0,0 2.224311,-0.69857 3.574531,-2.30679 z m 20.44834,-7.30396 c -1.32864,-0.44665 -2.33635,-0.95911 -3.29549,-2.16155 -0.65193,2.42095 -1.82891,4.25215 -3.5199,5.16174 0.0827,-1.85444 -0.33073,-3.3191 -1.48828,-4.64202 0.60063,1.7688 1.13437,3.69463 0.63784,5.56334 1.71067,-0.19143 3.33698,-1.54033 4.64202,-4.85463 0.99771,0.84422 2.11379,1.27368 3.29577,1.40701 z m -16.62708,-1.58885 c 0.39855,-1.25396 -0.59922,-2.2076 -1.63474,-2.61585 0.67708,0.71365 1.28123,1.53503 1.63474,2.61585 z m -1.457,0.0765 c 0.26911,-0.92054 -0.50218,-1.80769 -1.41699,-2.12598 0.5831,0.62183 0.94584,1.17363 1.41699,2.12598 z m -1.23926,0.4961 c 0.18543,-0.99947 -0.36256,-1.70155 -1.1709,-2.05469 0.44767,0.6438 0.94958,1.35281 1.1709,2.05469 z m -1.24121,0.53222 c 0.16248,-0.91038 -0.38468,-1.58298 -1.13379,-2.01953 0.38422,0.66156 0.80753,1.11004 1.13379,2.01953 z m -1.34668,0.56738 c 0.0628,-0.89945 -0.37441,-1.43038 -1.09864,-1.70117 0.36096,0.56348 0.82693,1.12349 1.09864,1.70117 z m -1.27539,0.45996 c 0.0323,-0.72692 -0.22731,-1.41537 -0.957032,-1.62988 0.370598,0.51262 0.783932,1.07307 0.957032,1.62988 z m -1.346681,0.24805 c 0.02155,-0.73626 -0.405076,-1.15109 -0.991211,-1.41699 0.246666,0.51314 0.645974,0.9772 0.991211,1.41699 z m -1.168945,0.4248 c 0.110307,-0.8007 -0.497046,-1.31963 -0.992187,-1.45214 0.246289,0.51846 0.67205,1.02093 0.992187,1.45214 z m -1.488282,-0.0703 c 0.04407,-0.63733 -0.301963,-1.00142 -0.885742,-1.02734 0.253032,0.37399 0.623783,0.69191 0.885742,1.02734 z m -1.02832,0.53125 c -0.07974,-0.48841 -0.315906,-0.87336 -0.814453,-0.92187 0.204434,0.35268 0.554966,0.65252 0.814453,0.92187 z m -11.999023,0.1582 c 0.568094,0.055 0.852761,-0.4622 0.675781,-1.07714 -0.230904,0.35807 -0.443859,0.57905 -0.675781,1.07714 z m 10.794922,0.30274 c -0.0903,-0.40244 -0.281663,-0.75753 -0.708985,-0.77928 0.04092,0.46343 0.397781,0.7116 0.708985,0.77928 z m -10.268554,0.34863 c 0,0 0.860769,-0.0525 0.550781,-1.17773 -0.331681,0.46656 -0.622028,1.11836 -0.550781,1.17773 z m 9.276366,-0.10058 c -0.06464,-0.37833 -0.264628,-0.59524 -0.638672,-0.63769 0.03807,0.34573 0.236419,0.56957 0.638672,0.63769 z m -1.02832,0.1416 c -0.262374,-0.6888 -0.919118,-0.25413 -0.919118,-0.25413 0,0 0.455068,0.26107 0.919118,0.25413 z m -7.572265,0.4355 c 0.337095,-0.0749 0.549699,-0.32834 0.401367,-0.97755 -0.302799,0.32501 -0.39426,0.55924 -0.401367,0.97755 z m 6.651366,-0.0459 c -0.163271,-0.37072 -0.431913,-0.44047 -0.737921,-0.26438 0,0 0.300359,0.27816 0.737921,0.26438 z m -6.15611,0.38881 c 0,0 0.634946,-0.092 0.357283,-0.76967 -0.354615,0.25979 -0.357283,0.76967 -0.357283,0.76967 z m 4.984241,-0.22671 c -0.09069,-0.50169 -0.606953,-0.22613 -0.639369,-0.20452 0,0 0.1917,0.26048 0.639369,0.20452 z m -0.876961,0.12598 c -0.117632,-0.51749 -0.514295,-0.14409 -0.526367,-0.12598 0,0 0.21454,0.17616 0.526367,0.12598 z m -6.155272,-0.1416 c -0.285302,0.42879 -0.171458,0.87932 -0.171458,0.87932 0,0 0.515985,-0.17575 0.171458,-0.87932 z m 0.425785,0.3496 c -0.237446,0.58159 -0.07519,0.95313 -0.07519,0.95313 0,0 0.500193,-0.28011 0.07519,-0.95313 z m 0.702144,0.40133 c -0.242465,0.44925 0.04981,0.85157 0.04981,0.85157 0,0 0.41997,-0.37801 -0.04981,-0.85157 z m -0.927732,1.45317 c -0.223225,0.47946 0.124999,0.82716 0.124999,0.82716 0,0 0.375622,-0.48706 -0.124999,-0.82716 z m 0.625977,0.97752 c 0,0 0.459772,-0.37555 -0.0498,-0.80273 -0.246865,0.44549 0.0498,0.80273 0.0498,0.80273 z m 1.12793,0.15039 c 0.07271,-0.27992 -0.160168,-0.52251 -0.378349,-0.5551 0.04651,0.26976 0.129684,0.47637 0.378349,0.5551 z m -0.526392,0.57617 c -0.188071,0.23994 -0.179732,0.41861 -0.0244,0.65137 0.269676,-0.17658 0.217078,-0.43684 0.0244,-0.65137 z m 0.400429,0.85166 c 0.194473,-0.19456 0.187402,-0.43995 0.05077,-0.62695 -0.164231,0.17629 -0.177073,0.36316 -0.05077,0.62695 z m 0.526356,-0.50104 c -0.113406,0.33879 0.150394,0.57618 0.150394,0.57618 0.0274,-0.009 0.249363,-0.42576 -0.150394,-0.57618 z m 0.702154,0.70115 c 0.07148,-0.31255 -0.200195,-0.45019 -0.200195,-0.45019 0,0 -0.130969,0.29705 0.200195,0.45019 z M 120.07432,127.492 c -0.75035,1.09336 -1.11016,2.25015 -1.28726,3.46129 -1.0291,-0.74388 -2.10118,-1.30872 -3.44526,-1.94769 -1.34407,-0.63897 -1.89523,-0.76036 -2.70475,-1.08417 -0.25083,0.0258 -0.5452,0.0583 -0.86506,0.10645 1.53539,0.56699 2.30598,0.85543 3.63233,1.53686 1.31538,2.33643 2.08135,3.05689 3.28146,4.8674 0.15,0.56814 0.31658,1.38955 0.45682,2.0345 0.36963,1.70029 0.23078,2.86949 -0.23616,3.71502 -0.46695,0.84553 -1.05116,1.39197 -2.10065,1.80868 -2.07517,0.82393 -4.15375,-0.30076 -4.15375,-0.30076 0,1.23845 0.21925,2.72465 2.11666,3.34347 0,0 0.57239,1.49767 2.56212,1.98334 0.0752,-0.13239 0.14198,-0.27185 0.19637,-0.42065 -1.11485,-0.24652 -1.73328,-0.82796 -2.07326,-1.39319 1.5821,0.26865 2.81275,-0.37233 2.81275,-1.00149 -0.30989,0.25823 -1.86926,1.00027 -3.25716,0.46095 -1.38791,-0.53932 -1.72593,-1.70879 -1.82005,-2.12287 0.45695,0.16667 1.9276,0.54872 3.76256,-0.17983 1.09552,-0.43499 1.77564,-1.03393 2.30167,-1.98644 0.52602,-0.95253 0.65566,-2.24799 0.38189,-4.0256 -0.46426,-3.01437 -0.87593,-6.09785 0.83767,-8.59482 0.85411,-1.24455 1.83528,-1.71843 2.60443,-1.86522 0.76915,-0.14679 1.92143,0.12888 2.07118,-0.67427 -0.5465,0.39909 -1.097,0.19687 -2.14592,0.30572 -1.04891,0.10885 -2.02877,0.66209 -2.92863,1.97332 z m 2.9528,0.26299 c -1.01206,0.66914 -1.541,1.51865 -1.85261,2.3058 -0.70953,1.79233 -0.10128,3.20601 -0.10128,3.20601 0,0 -0.21221,-1.38404 0.4501,-3.04529 0.29387,-0.73711 0.79714,-1.5397 1.50379,-2.46652 z m -11.70885,1.45263 c -3.18252,-0.0422 -5.51284,2.9564 -5.51284,2.9564 0,0 2.617,-2.29467 5.51284,-2.9564 z m 4.82813,0.75912 c 0.87931,0.44966 1.72566,0.76742 2.56263,1.38855 -0.0873,0.86168 -0.0112,1.39619 0.0971,2.33836 -1.16798,-2.0279 -1.53026,-1.96248 -2.65978,-3.72691 z m -7.68481,1.3963 c -1.40135,0.32588 -2.13656,0.95373 -4.04161,2.65824 -1.85318,1.65812 -3.92586,2.00194 -3.92586,2.00194 0.37228,0.14891 2.28808,0.0635 4.19148,-1.70687 1.87029,-1.73961 2.57148,-2.27693 3.77599,-2.95331 z m 13.96504,0.50126 c -0.79156,0.67136 -1.20199,1.88031 -1.20199,4.15892 0,1.09373 -0.27746,1.86054 -0.55087,2.35386 -0.27341,0.49333 -0.38741,0.70106 -0.5085,1.13688 0,0 0.55339,-0.39916 0.85628,-0.94567 0.3029,-0.54653 0.60151,-1.38372 0.60151,-2.54507 0,-2.23157 0.39243,-3.32686 0.80357,-4.15892 z m -15.66984,2.0035 c -0.69079,-0.005 -1.16975,0.32482 -1.66088,0.85472 -0.49112,0.52989 -1.00516,1.2611 -1.75597,2.2872 -1.45316,1.98601 -3.29799,2.0712 -3.29799,2.0712 0,0 2.06478,0.28466 3.61839,-1.83865 0.75259,-1.02854 1.26549,-1.75051 1.72651,-2.24793 0.46102,-0.49742 0.85802,-0.77053 1.36994,-1.12654 z m 15.76958,1.80505 c 0,0 0.24199,1.80509 -0.34107,3.70004 -0.58719,1.90839 -1.72599,3.06544 -1.72599,3.06544 0.41594,0.16638 1.5015,-0.94364 2.10685,-2.94814 0.61964,-2.01387 -0.0398,-3.81734 -0.0398,-3.81734 z m -19.02674,3.95894 c -1.48762,0.77995 -2.14949,1.67342 -2.59313,2.70216 -0.44364,1.02874 -0.67901,2.17673 -1.250051,3.69124 -1.125826,2.98588 -3.414263,3.7884 -3.414263,3.7884 0.547,0.18234 2.607506,-0.5189 3.785294,-3.64732 0.58079,-1.54268 0.82306,-2.6984 1.24386,-3.6742 0.42081,-0.97578 1.0098,-1.78605 2.22829,-2.86028 z m 19.55281,2.48046 c -0.2249,0.46125 -0.21896,1.09096 0.01,1.65933 0.22878,0.56837 1.02631,1.58506 2.41846,1.96474 1.39215,0.37968 2.19977,0.87812 2.57969,1.55856 0.37991,0.68044 0.46131,1.88387 -0.0212,2.91042 0.9207,-0.70232 0.82638,-2.28074 0.3669,-3.10369 -0.45947,-0.82294 -1.45591,-1.37619 -2.81998,-1.74821 -1.36407,-0.37202 -1.93988,-1.19724 -2.15646,-1.73013 -0.21658,-0.53289 -0.26777,-0.87292 -0.37723,-1.51102 z m 8.35297,11.34557 c -0.20471,2.16938 -1.51906,3.03262 -3.3662,2.55074 2.40427,1.5473 3.63761,-0.7506 3.3662,-2.55074 z m -29.89378,1.57406 c -0.2968,0.94107 -0.59289,1.41097 -0.9958,1.62419 -0.4029,0.21322 -0.975874,0.18312 -1.709458,0.18035 0.668324,0.39584 1.346828,0.46111 1.894978,0.17105 0.54814,-0.29009 0.90102,-0.92338 0.81028,-1.97559 z m -11.505771,-8.86199 c 0.603329,-0.0886 0.688446,-0.7781 0.459961,-1.31055 -0.116832,0.4826 -0.196024,0.87493 -0.459961,1.31055 z m 0.513672,0.39657 c 0.607818,-0.14655 0.664767,-0.84209 0.389648,-1.31152 -0.06684,0.50348 -0.175956,0.84225 -0.389648,1.31152 z m 0.74414,0.44232 c 0.01847,0.0369 0.466372,-0.29751 0.141602,-0.86817 -0.147558,0.34805 -0.168272,0.86817 -0.141602,0.86817 z m 0.407224,0.44341 c 0,0 0.224685,-0.23743 0.03614,-0.60254 -0.08225,0.3436 -0.03614,0.60254 -0.03614,0.60254 z m -2.025383,0.66829 c 0,0 0.624604,-0.68127 -0.100588,-1.18108 0.0655,0.66138 0.100588,1.18108 0.100588,1.18108 z m 0.636992,0.0575 c 0.343581,-0.2579 0.309673,-0.66772 0.08761,-0.93779 -0.05137,0.33559 -0.134494,0.56647 -0.08761,0.93779 z m 0.636017,0.15706 c 0.16953,-0.25972 0.178313,-0.56184 0.0033,-0.7687 -0.0576,0.28742 -0.122878,0.51224 -0.0033,0.7687 z m 0.103524,0.52067 c 0.149681,0.11975 0.673583,-0.29336 0.375419,-0.76298 -0.174867,0.31144 -0.394855,0.7565 -0.375419,0.76298 z m -1.052319,0.0632 c 0.05764,0.41117 0.03404,0.99525 0.03404,0.99525 0.0791,0 0.543814,-0.60463 -0.03404,-0.99525 z m 0.550781,0.32618 c -0.0077,0.35024 0.125977,0.60058 0.125977,0.60058 0.03145,-0.005 0.355522,-0.33657 -0.125977,-0.60058 z m 0.676758,0.45115 c 0.06148,0.4854 0.151368,1.05176 0.151368,1.05176 0.03488,0 0.449667,-0.585 -0.151368,-1.05176 z m 27.705085,1.56157 c 0.34562,-0.19871 0.37481,-0.67833 0.17477,-1.05274 -0.084,0.36338 -0.12503,0.66213 -0.17477,1.05274 z m 0.65038,0.25092 c 0,0 0.50798,-0.2174 0.12598,-0.90235 -0.16656,0.44056 -0.14986,0.89553 -0.12598,0.90235 z m 0.47661,0.37505 c 0.27267,-0.16144 0.30358,-0.51453 0.12498,-0.75098 -0.14183,0.26973 -0.15294,0.45175 -0.12498,0.75098 z M 90.219726,151.249 c 0.04007,0.49128 0.150391,0.95313 0.150391,0.95313 0.02449,-0.004 0.388363,-0.53025 -0.150391,-0.95313 z m 0.576174,0.10156 c 0.07216,0.40957 0.134492,0.72433 0.326172,1.07715 0.195424,-0.46895 0.03008,-0.84203 -0.326172,-1.07715 z m 0.751951,0.27542 c 0.0083,0.29176 0.150391,0.67675 0.150391,0.67675 0.0295,-0.0177 0.325895,-0.52761 -0.150391,-0.67675 z m 26.652309,1.28615 c 0.0294,0.0294 0.5136,-0.33622 0.0742,-0.97754 0.005,0.45448 -0.0742,0.97754 -0.0742,0.97754 z m 0.60156,0.0752 c 0.0371,0.0124 0.45903,-0.32555 -0.0254,-0.80273 -0.0142,0.39782 0.0254,0.80273 0.0254,0.80273 z m 0.5752,0.40039 c 0.18706,-0.20948 0.12396,-0.49523 -0.0488,-0.67675 -0.0584,0.24103 -0.0606,0.43355 0.0488,0.67675 z m 0.65237,0.10059 c 0,0 0.19815,-0.40296 -0.22558,-0.55175 -0.0699,0.35535 0.22558,0.55175 0.22558,0.55175 z m -1.70409,0.27541 c 0.0758,0.44649 0.0508,1.00292 0.0508,1.00292 0,0 0.57249,-0.4588 -0.0508,-1.00292 z m 0.57617,0.0752 c -0.0858,0.40218 0.2394,0.75328 0.25097,0.75097 0,0 0.29728,-0.51527 -0.25097,-0.75097 z m 0.67675,0.1758 c -0.0445,0.5531 0.27282,0.77814 0.27637,0.77636 0,0 0.29643,-0.51777 -0.27637,-0.77636 z m 0.80176,0.70115 c 0,0 0.18331,-0.43669 -0.20117,-0.60156 -0.0461,0.36636 0.19917,0.60357 0.20117,0.60156 z m -0.32617,1.57909 c 0,0 0.29235,-0.61405 -0.3252,-0.87793 0.0182,0.37848 0.0713,0.56308 0.3252,0.87793 z m 1.52929,-0.27637 c 0,0 0.2663,-0.44622 -0.20019,-0.57617 0.0437,0.31497 0.20019,0.57617 0.20019,0.57617 z m -0.80272,0.15042 c 0,0 0.39762,-0.47917 -0.14942,-0.70215 -0.0608,0.32936 0.13042,0.70848 0.14942,0.70215 z m 0.90233,1.30368 c 0,0 0.20474,-0.45243 -0.17578,-0.67675 -3.9e-4,0.3831 0.17578,0.67675 0.17578,0.67675 z m 0.376,-0.65229 c 0.0114,0.31981 0.10062,0.57617 0.10062,0.57617 0.003,0 0.22715,-0.29464 -0.10062,-0.57617 z m -1.02736,0.1005 c 0.0475,0.50216 0.1729,0.8329 0.17578,0.82714 0,0 0.36584,-0.48494 -0.17578,-0.82714 z" />
      <path
         style="font-variation-settings:normal;opacity:1;vector-effect:none;fill:#f10606;fill-opacity:1;stroke:none;stroke-width:0.139984;stroke-linecap:butt;stroke-linejoin:miter;stroke-miterlimit:4;stroke-dasharray:none;stroke-dashoffset:0;stroke-opacity:1;stop-color:#000000;stop-opacity:1"
         d="m 102.4394,83.463263 c -0.39614,1.016013 -0.73506,1.241746 -0.82286,2.207403 2.93588,-0.227837 5.27985,0 6.52009,1.240235 -0.75419,0.469457 -1.58373,0.270764 -2.97442,0.327544 -1.39069,0.05678 -1.73618,0.226239 -2.35532,0.676526 -0.2079,0.425394 -0.54563,0.586221 -0.87131,0.561951 l -0.93325,-0.443904 c -0.56106,0.147646 -1.91526,0.0526 -2.79974,-1.051248 -0.88448,-1.103844 -0.783493,-2.660117 -0.377627,-3.330916 0.276416,0.65599 0.735677,1.91656 2.884617,2.034154 -0.10076,-0.83693 -0.31592,-1.355347 -0.40302,-1.987638 -0.0871,-0.632291 -0.0712,-1.401109 0.62945,-1.812668 0.90103,-0.211107 1.89954,0.562547 1.50339,1.578561 z"
         id="path5099" />
      <path
         style="color:#000000;font-style:normal;font-variant:normal;font-weight:normal;font-stretch:normal;font-size:medium;line-height:normal;font-family:sans-serif;font-variant-ligatures:normal;font-variant-position:normal;font-variant-caps:normal;font-variant-numeric:normal;font-variant-alternates:normal;font-variant-east-asian:normal;font-feature-settings:normal;font-variation-settings:normal;text-indent:0;text-align:start;text-decoration:none;text-decoration-line:none;text-decoration-style:solid;text-decoration-color:#000000;letter-spacing:normal;word-spacing:normal;text-transform:none;writing-mode:lr-tb;direction:ltr;text-orientation:mixed;dominant-baseline:auto;baseline-shift:baseline;text-anchor:start;white-space:normal;shape-padding:0;shape-margin:0;inline-size:0;clip-rule:nonzero;display:inline;overflow:visible;visibility:visible;opacity:1;isolation:auto;mix-blend-mode:normal;color-interpolation:sRGB;color-interpolation-filters:linearRGB;solid-color:#000000;solid-opacity:1;vector-effect:none;fill:#990000;fill-opacity:1;fill-rule:nonzero;stroke:none;stroke-width:1.05814;stroke-linecap:butt;stroke-linejoin:miter;stroke-miterlimit:4;stroke-dasharray:none;stroke-dashoffset:0;stroke-opacity:1;color-rendering:auto;image-rendering:auto;shape-rendering:auto;text-rendering:auto;enable-background:accumulate;stop-color:#000000;stop-opacity:1"
         d="m 102.33245,83.201869 c 0.0771,-0.241681 0.006,-0.566841 -0.23577,-0.782924 -0.016,0.285047 -0.009,0.423714 -0.0693,0.614258 -0.0607,0.190544 -0.20629,0.432444 -0.41992,0.796875 -0.45095,0.769031 -0.41312,1.385833 -0.21959,1.772879 0,0 0.10023,-0.865375 0.40689,-1.388554 0.30666,-0.52318 0.46061,-0.770853 0.53769,-1.012534 z m -0.143,3.721959 c -0.17463,-0.227016 -0.59454,-0.64761 -0.80845,-1.022321 -0.12658,0.444598 0.33115,0.931116 0.51088,1.164759 0.17973,0.233643 0.36425,0.452581 0.42229,0.674527 0.058,0.221945 0.0523,0.350013 -0.0877,0.59448 0.42218,-0.101396 0.44228,-0.484477 0.38097,-0.729804 -0.0613,-0.245327 -0.24334,-0.454625 -0.41797,-0.681641 z m 0.55859,0.506836 c 0.60468,-0.21988 1.02319,-0.493652 2.41602,-0.395508 1.44383,0.101738 1.98553,0.08716 2.32031,-0.180664 -0.55036,0.110072 -0.87197,0.103267 -2.34198,-0.08794 -1.47001,-0.191204 -2.20649,0.225774 -2.39435,0.66411 z m -1.75295,0.3805 -0.12595,-0.359992 c -0.42869,0.191606 -1.015897,-0.452424 -1.779296,-0.34668 0.501533,0.351073 1.063306,0.852726 1.905246,0.706672 z"
         id="path5114" />
      <path
         id="path5107"
         style="font-variation-settings:normal;opacity:1;vector-effect:none;fill:#ffffff;fill-opacity:1;stroke:none;stroke-width:0.139984;stroke-linecap:butt;stroke-linejoin:miter;stroke-miterlimit:4;stroke-dasharray:none;stroke-dashoffset:0;stroke-opacity:1;stop-color:#000000;stop-opacity:1"
         d="m 101.93558,88.476922 c -0.32568,-0.02427 -0.62384,-0.0813 -0.93325,-0.443904 -0.30941,-0.362602 -0.38871,-0.987186 -0.36903,-1.405816 0.0197,-0.41863 0.13516,-0.53314 0.31106,-0.708401 0.15976,0.678968 0.31171,1.392019 0.99122,2.558121 z M 98.002138,86.98177 c -0.88448,-1.103844 -0.758437,-2.63506 -0.177175,-3.330916 -0.36865,0.979338 -0.247255,2.279043 0.425222,3.118304 0.672477,0.839265 1.641841,1.216612 2.752145,1.26386 -0.61421,0.271669 -2.115712,0.0526 -3.000192,-1.051248 z m 2.028802,-3.484852 c -0.08714,-0.632291 0.004,-1.401109 0.90507,-1.612216 -0.35036,0.39466 -0.46367,0.90717 -0.37354,1.789392 0.0901,0.882223 0.31587,1.521572 0.2357,2.205808 -0.37638,-0.83693 -0.68013,-1.750693 -0.76723,-2.382984 z" />
      <path
         id="path994"
         style="font-variation-settings:normal;opacity:1;vector-effect:none;fill:#f10606;fill-opacity:1;stroke:none;stroke-width:0.529072;stroke-linecap:butt;stroke-linejoin:miter;stroke-miterlimit:4;stroke-dasharray:none;stroke-dashoffset:0;stroke-opacity:1;stop-color:#000000;stop-opacity:1"
         d="m 307.60156,406.62891 c -4.11052,-0.11423 -9.01218,2.01348 -10.63672,6.13867 5.39688,-0.52332 10.34816,0.6147 14.73243,3.48242 6.83036,-0.93751 4.28515,-6.69727 4.28515,-6.69727 -2.06444,-1.67663 -5.18378,-2.83498 -8.38086,-2.92382 z m 4.09571,9.62109 c -9.26987,-2.97917 -17.20633,2.73907 -15.53711,9.77734 5.57476,-5.27013 10.99521,-2.8873 14.59961,-1.20507 3.21428,-2.94641 0.9375,-8.57227 0.9375,-8.57227 z m -0.9375,8.57227 c -9.29211,-0.35286 -15.02001,5.48459 -14.33204,12.85546 4.99152,-3.48805 8.97393,-4.41902 14.73243,-4.41796 2.43698,-1.63423 1.34263,-7.27549 -0.40039,-8.4375 z m 0.40039,8.4375 c -6.87581,2.18966 -9.85672,8.31817 -6.96289,12.99023 3.34436,-3.7488 6.22925,-5.49868 9.77539,-6.5625 -0.13393,-4.28572 -2.8125,-6.42773 -2.8125,-6.42773 z m 2.8125,6.42773 c -1.08909,6.39553 0.66512,12.22376 4.41992,14.59766 1.31688,-4.76701 2.83112,-6.17379 3.21484,-9.10743 -0.74453,-3.79767 -3.39821,-6.12251 -7.63476,-5.49023 z"
         transform="scale(0.26458333)" />
      <path
         id="path1015"
         style="font-variation-settings:normal;opacity:1;vector-effect:none;fill:#990000;fill-opacity:1;stroke:none;stroke-width:0.529072;stroke-linecap:butt;stroke-linejoin:miter;stroke-miterlimit:4;stroke-dasharray:none;stroke-dashoffset:0;stroke-opacity:1;stop-color:#000000;stop-opacity:1"
         transform="scale(0.26458333)"
         d="m 301.71119,411.92002 c 4.10737,-0.24719 6.99639,0.95323 10.0238,3.50757 0.88334,-0.12124 1.5681,-0.34462 2.09564,-0.63342 -3.18749,-3.04821 -8.07962,-5.23448 -12.11944,-2.87415 z m -1.61528,9.12174 c 4.69152,-0.74727 7.92633,0.21614 10.44746,1.79112 0.40276,-0.42816 0.68542,-0.89265 0.86683,-1.37454 -2.55426,-1.50586 -7.02697,-2.20652 -11.31429,-0.41658 z m 2.13417,12.48745 c 2.8569,-0.90758 6.24709,-1.29806 8.58036,-1.29763 0.4833,-0.3241 0.73228,-0.90348 0.81094,-1.55683 -2.44504,-0.33348 -7.60952,0.15128 -9.3913,2.85446 z m 3.09342,10.05787 c 2.6875,-2.2215 5.3972,-3.85583 7.71233,-4.73114 -0.0123,-0.39298 -0.0505,-0.74661 -0.10754,-1.06443 -2.8529,1.3001 -5.56802,2.80593 -7.60479,5.79557 z m 12.90397,8.79278 c 0.95604,-3.46077 2.05535,-4.48207 2.33392,-6.61184 -0.15631,-0.79731 -0.34933,-1.5844 -0.61915,-2.28939 -1.41245,3.17729 -1.81282,5.93415 -1.71477,8.90123 z" />
      <path
         id="path1011"
         style="font-variation-settings:normal;opacity:1;vector-effect:none;fill:#ffffff;fill-opacity:1;stroke:none;stroke-width:0.529072;stroke-linecap:butt;stroke-linejoin:miter;stroke-miterlimit:4;stroke-dasharray:none;stroke-dashoffset:0;stroke-opacity:1;stop-color:#000000;stop-opacity:1"
         transform="scale(0.26458333)"
         d="m 315.44404,412.54371 c 0.18768,-1.24411 -0.3252,-2.40474 -0.3252,-2.40474 -4.80177,-3.37261 -11.30298,-3.52417 -13.88116,-0.30239 6.04928,-1.87126 10.41712,-0.19282 14.20636,2.70713 z m -3.78302,7.65027 c -0.0599,-0.98318 -0.4299,-2.42109 -0.96375,-3.21999 -4.09719,-0.77154 -7.12847,0.32691 -9.0932,2.11835 3.74291,-0.44997 7.29735,-0.16254 10.05695,1.10164 z m 0.0242,8.58576 c -0.14458,-0.93415 -0.72933,-2.17808 -1.20679,-2.49638 -5.49957,-0.20711 -11.28344,3.67381 -11.80967,7.80928 4.76441,-5.17565 9.93141,-5.04896 13.01646,-5.3129 z m 0.9406,8.05158 c -0.21788,-1.17321 -1.25232,-1.66625 -1.25232,-1.66625 -3.59476,1.25713 -5.60783,3.99917 -6.00792,6.74325 2.16077,-2.11249 4.23316,-3.87405 7.26024,-5.077 z m 5.42871,4.26156 c -0.56182,-0.27714 -1.24676,-0.38337 -2.08881,-0.25769 0.006,3.29809 0.21954,6.42737 0.78644,8.7781 1.3605,-2.65486 0.86835,-5.68025 1.30237,-8.52041 z" />
      <path
         id="path1044"
         style="font-variation-settings:normal;opacity:1;vector-effect:none;fill:#f10606;fill-opacity:1;stroke:none;stroke-width:0.529072;stroke-linecap:butt;stroke-linejoin:miter;stroke-miterlimit:4;stroke-dasharray:none;stroke-dashoffset:0;stroke-opacity:1;stop-color:#000000;stop-opacity:1"
         d="m 339.24079,546.20508 c -2.5333,-4.18141 -14.76003,-5.27002 -18.88337,1.875 5.65343,-0.66369 11.67604,-0.30509 15.53516,4.6875 2.44361,0.42106 5.88152,-2.38109 3.34821,-6.5625 z m -3.34821,6.5625 c -6.87149,-4.92095 -22.18387,-1.69782 -18.88337,9.51005 5.73237,-6.43445 12.45475,-4.37278 18.08092,-2.00893 1.5856,-2.19884 1.77204,-4.9657 0.80245,-7.50112 z m -0.80245,7.50112 c -12.13115,-1.54037 -15.91831,7.81649 -12.59097,13.79352 3.47088,-4.81947 7.35236,-5.71476 14.06389,-5.3577 3.44435,-2.56343 2.31811,-6.90134 -1.47292,-8.43582 z m 1.47292,8.43582 c -4.79798,1.2501 -12.67946,7.30616 -8.43777,13.39454 3.99185,-3.85789 6.861,-4.27075 10.17745,-5.08929 2.28495,-2.36319 1.72944,-6.1735 -1.73968,-8.30525 z m 1.73968,8.30525 c -3.86466,3.37598 -6.55404,8.37549 -3.34765,13.79296 3.3095,-4.36804 6.85502,-3.77042 9.77734,-7.09765 -0.30865,-3.21021 -0.86885,-6.28626 -6.42969,-6.69531 z"
         transform="scale(0.26458333)" />
      <path
         id="path1047"
         style="font-variation-settings:normal;opacity:1;vector-effect:none;fill:#f10606;fill-opacity:1;stroke:none;stroke-width:0.139984;stroke-linecap:butt;stroke-linejoin:miter;stroke-miterlimit:4;stroke-dasharray:none;stroke-dashoffset:0;stroke-opacity:1;stop-color:#000000;stop-opacity:1"
         d="m 118.13846,149.78276 c -0.87776,-0.47717 -3.81855,-0.13915 -4.1723,1.51697 1.30629,-0.49685 2.58859,-0.72264 3.65851,0.36962 0.81256,-0.10944 1.39156,-1.40942 0.51379,-1.88659 z m -0.51379,1.88659 c -1.56667,-0.90091 -4.49662,-0.23344 -4.13347,2.18496 1.4136,-0.94409 2.33447,-0.84603 3.79822,-0.53431 0.41234,-0.34287 0.72534,-1.12669 0.33525,-1.65065 z m -0.33525,1.65065 c -2.53485,0.20551 -3.69648,1.77874 -3.02957,3.99451 0.69892,-1.25799 1.82027,-1.97303 3.44549,-2.07698 0.45047,-0.75535 0.32729,-1.70862 -0.41592,-1.91753 z m 0.41592,1.91753 c -1.64306,0.71233 -2.54266,2.98435 -1.50987,4.4897 0.62721,-1.93848 1.78395,-2.40419 2.58871,-2.5757 0.45446,-0.80607 -0.0224,-2.22514 -1.07884,-1.914 z m 1.07884,1.914 c -0.83453,0.92175 -1.34029,3.08683 -0.20279,4.01636 0.60166,-1.92783 1.66897,-1.87683 2.29383,-2.58704 -0.15674,-0.98586 -0.66542,-1.96542 -2.09104,-1.42932 z" />
      <path
         id="path1053"
         style="font-variation-settings:normal;opacity:1;vector-effect:none;fill:#990000;fill-opacity:1;stroke:none;stroke-width:0.529072;stroke-linecap:butt;stroke-linejoin:miter;stroke-miterlimit:4;stroke-dasharray:none;stroke-dashoffset:0;stroke-opacity:1;stop-color:#000000;stop-opacity:1"
         transform="scale(0.26458333)"
         d="m 324.24134,547.14258 c 4.07095,-0.47791 9.47844,1.15396 12.16144,4.625 0.46609,0.0803 0.98421,-0.008 1.45436,-0.23859 -2.09016,-3.18667 -6.44166,-6.65796 -13.6158,-4.38641 z m -5.62499,12.59041 c 5.53025,-5.01265 11.80672,-2.41386 15.77719,-0.73215 0.27651,-0.38346 0.49501,-0.79048 0.65788,-1.21316 -3.48962,-1.90851 -12.20755,-4.62412 -16.43507,1.94531 z m 4.95424,11.91852 c 2.44976,-3.40161 7.69752,-4.2194 12.81786,-3.94699 0.55196,-0.41079 0.95008,-0.88132 1.20781,-1.37921 -3.39295,-0.5422 -11.72063,-1.33963 -14.02567,5.3262 z m 5.76005,8.43862 c 2.05254,-1.98366 6.24481,-3.45893 8.76262,-4.08036 0.67609,-0.69924 1.02462,-1.56536 1.0423,-2.45788 -3.26831,2.17941 -6.25478,1.25866 -9.80492,6.53824 z m 8.61884,7.28226 c 1.8853,-1.59005 3.57206,-2.08759 5.40443,-4.17385 -0.0854,-0.8402 -0.29171,-1.61945 -0.61856,-2.31021 0,0 -4.05079,2.89528 -4.78587,6.48406 z" />
      <path
         id="path1049"
         style="font-variation-settings:normal;opacity:1;vector-effect:none;fill:#ffffff;fill-opacity:1;stroke:none;stroke-width:0.529072;stroke-linecap:butt;stroke-linejoin:miter;stroke-miterlimit:4;stroke-dasharray:none;stroke-dashoffset:0;stroke-opacity:1;stop-color:#000000;stop-opacity:1"
         transform="scale(0.26458333)"
         d="m 339.34048,549.38653 c 0.0497,-0.63394 -0.1185,-1.37038 -0.60989,-2.18145 -1.48624,-2.45315 -8.66748,-4.47432 -12.65805,-1.95406 4.85135,-0.0148 9.42209,0.8824 13.26794,4.13551 z m -3.96731,5.67812 c -0.0634,-0.52636 -0.19502,-1.0521 -0.39114,-1.56493 -3.87748,-2.76225 -12.06438,-2.65744 -15.3098,1.49976 4.65326,-2.03634 9.78693,-2.50792 15.70094,0.0652 z m 1.40766,7.16949 c -0.41059,-0.39224 -0.92019,-0.72424 -1.5161,-0.96544 -6.9421,-0.88148 -11.37065,3.02759 -12.15946,6.81685 3.53074,-2.55001 7.17619,-5.0331 13.67556,-5.85141 z m 1.59093,8.93887 c -0.38609,-0.54727 -0.91886,-1.0504 -1.59924,-1.46849 -2.90908,1.15745 -5.80784,3.02531 -6.95885,6.29063 2.62545,-1.94826 5.42859,-3.62996 8.55809,-4.82214 z m 2.36779,7.4606 c -0.59406,-0.36362 -1.28732,-0.62311 -2.07944,-0.75777 -2.06333,1.88898 -3.92379,4.98936 -3.59147,7.60507 1.80562,-2.1808 2.51076,-4.89226 5.67091,-6.8473 z" />
      <path
         id="path1077"
         style="font-variation-settings:normal;opacity:1;vector-effect:none;fill:#990000;fill-opacity:1;stroke:none;stroke-width:0.139984;stroke-linecap:butt;stroke-linejoin:miter;stroke-miterlimit:4;stroke-dasharray:none;stroke-dashoffset:0;stroke-opacity:1;stop-color:#000000;stop-opacity:1"
         d="m 114.67487,150.87451 c 0.8889,-0.3381 2.25204,-0.25564 3.02186,0.53026 0.21355,-0.0288 0.40896,-0.16242 0.54036,-0.33721 -0.65197,-0.29986 -2.3475,-0.9928 -3.56222,-0.19305 z m -0.68762,2.41284 c 1.1043,-0.73752 2.36137,-0.44372 3.35587,-0.23193 0.10785,-0.0897 0.20571,-0.22378 0.27015,-0.37511 -0.88308,-0.29995 -2.55,-0.65657 -3.62602,0.60704 z m 0.66237,3.10584 c 0.532,-0.95756 1.82159,-1.34498 2.99831,-1.42024 0.0839,-0.14074 0.14036,-0.29097 0.16871,-0.43906 -0.9805,-0.0317 -2.65245,0.15733 -3.16702,1.8593 z m 1.75844,2.51903 c 0.456,-1.40931 1.6447,-1.90118 2.22697,-2.02527 0.0924,-0.16385 0.13157,-0.36271 0.12322,-0.55898 -0.88382,0.3101 -2.66743,1.31009 -2.35019,2.58425 z m 2.24418,1.6887 c 0.43651,-1.39867 1.49165,-1.67045 1.95838,-2.20093 -0.0305,-0.19151 -0.0787,-0.38269 -0.1521,-0.55373 -0.82958,0.46544 -1.78092,1.32379 -1.80628,2.75466 z" />
      <path
         id="path1073"
         style="font-variation-settings:normal;opacity:1;vector-effect:none;fill:#ffffff;fill-opacity:1;stroke:none;stroke-width:0.139984;stroke-linecap:butt;stroke-linejoin:miter;stroke-miterlimit:4;stroke-dasharray:none;stroke-dashoffset:0;stroke-opacity:1;stop-color:#000000;stop-opacity:1"
         d="m 118.40577,150.62288 c 0.007,-0.195 -0.0807,-0.38279 -0.30393,-0.50467 -0.45096,-0.24622 -1.47961,-0.28359 -2.41258,0.0987 0.92486,0.0385 1.85617,0.0448 2.71651,0.40597 z m -0.7212,1.58943 c -0.0144,-0.0985 -0.0505,-0.19347 -0.11366,-0.27838 -0.88354,-0.50809 -2.965,-0.54186 -3.48456,0.54191 1.58761,-0.67015 2.43686,-0.59608 3.59822,-0.26353 z m 0.0279,1.63807 c -0.0816,-0.12524 -0.20313,-0.22011 -0.36568,-0.2658 -1.19579,0.0993 -2.12695,0.56588 -2.52721,1.3667 0.85474,-0.50391 1.77262,-0.9289 2.89289,-1.1009 z m 0.78238,1.8056 c -0.15406,-0.15718 -0.37122,-0.23314 -0.6404,-0.15387 -0.79934,0.34655 -1.51714,1.27402 -1.67341,2.17722 0.66435,-0.92392 1.4492,-1.5667 2.31381,-2.02335 z m 1.41113,1.61337 c -0.18674,-0.0566 -0.53305,-0.10302 -0.85724,0.063 -0.42452,0.46892 -0.83749,1.50237 -0.79705,2.32694 0.3906,-0.86557 0.80497,-1.72096 1.65429,-2.38994 z" />
    </g>
  </g>
</svg>
