<?xml version="1.0" encoding="UTF-8" standalone="no"?>
<svg xmlns:dc="http://purl.org/dc/elements/1.1/" xmlns:cc="http://creativecommons.org/ns#" xmlns:rdf="http://www.w3.org/1999/02/22-rdf-syntax-ns#" xmlns:svg="http://www.w3.org/2000/svg" xmlns="http://www.w3.org/2000/svg" xmlns:sodipodi="http://sodipodi.sourceforge.net/DTD/sodipodi-0.dtd" xmlns:inkscape="http://www.inkscape.org/namespaces/inkscape" inkscape:version="1.0 (4035a4fb49, 2020-05-01)" sodipodi:docname="svg.svg" id="svg1901" height="573" width="500" version="1.0">
  <metadata id="metadata9">
    <rdf:RDF>
      <cc:Work rdf:about="">
        <dc:format>image/svg+xml</dc:format>
        <dc:type rdf:resource="http://purl.org/dc/dcmitype/StillImage"/>
      </cc:Work>
    </rdf:RDF>
  </metadata>
  <sodipodi:namedview inkscape:current-layer="svg1901" inkscape:window-maximized="1" inkscape:window-y="-8" inkscape:window-x="-8" inkscape:cy="228.92273" inkscape:cx="160.64016" inkscape:zoom="1.0492547" showgrid="false" id="namedview7" inkscape:window-height="1017" inkscape:window-width="1920" inkscape:pageshadow="2" inkscape:pageopacity="0" guidetolerance="10" gridtolerance="10" objecttolerance="10" borderopacity="1" bordercolor="#666666" pagecolor="#ffffff"/>
  <defs id="defs1903"/>
  <g id="layer1" style="opacity:1;stroke:none;stroke-width:0.998003" transform="matrix(1.0020006,0,0,1.0020006,-87.648803,-268.48687)">
    <path id="path4342" style="fill:#1860ab;fill-opacity:1;stroke:none;stroke-width:0.998003;stroke-opacity:1" d="m 87.473803,267.95081 v 176.40397 c 0,139.96014 1.57354,182.51405 7.67633,205.9453 21.911317,84.12776 77.562987,146.28493 157.585827,176.00205 19.31298,7.17202 44.35151,11.69256 70.01136,13.14286 v -0.12056 c 4.65559,0.30734 9.40355,0.4823 14.22733,0.4823 4.82378,0 9.57174,-0.17496 14.22734,-0.4823 v 0.12056 c 25.65985,-1.45029 50.69836,-5.97084 70.01135,-13.14286 80.02284,-29.71711 135.67451,-91.87429 157.58583,-176.00205 6.10278,-23.43124 7.67632,-65.98516 7.67632,-205.9453 V 267.95081 Z"/>
    <path id="path2187" style="fill:#dfdfdf;fill-opacity:1;stroke:none;stroke-width:0.998003;stroke-opacity:1" d="m 289.56946,313.89019 24.91892,49.86901 c -32.7661,4.09922 -62.8015,17.02569 -87.63723,36.33359 l -17.6522,-52.9254 -67.05339,67.05339 52.95659,17.62101 c -19.32285,24.84245 -32.26365,54.88704 -36.36477,87.66841 l -49.86902,-24.91891 v 94.81038 l 49.86902,-24.91891 c 4.10004,32.77275 17.05036,62.79857 36.36477,87.63722 l -52.95659,17.6522 67.05339,67.02221 17.6522,-52.9254 c 24.83865,19.3144 54.86447,32.26473 87.63723,36.36477 l -24.91892,49.86901 h 94.81038 l -24.91891,-49.86901 c 32.77276,-4.10004 62.79857,-17.05037 87.63723,-36.36477 l 17.65219,52.9254 67.0534,-67.02221 -52.95659,-17.6522 c 19.3144,-24.83865 32.26473,-54.86447 36.36477,-87.63722 l 49.86901,24.91891 V 494.59129 L 515.21193,519.5102 C 511.1108,486.72883 498.17,456.68424 478.84716,431.84179 l 52.95659,-17.62101 -67.0534,-67.05339 -17.65219,52.9254 c -24.83573,-19.3079 -54.87112,-32.23437 -87.63723,-36.33359 l 24.91891,-49.86901 z m 24.9501,100.2994 v 71.91867 h -33.43313 v 33.43313 h -71.91866 c 9.37118,-53.63022 51.72157,-95.98061 105.35179,-105.3518 z m 44.91018,0 c 53.63022,9.37119 95.98061,51.72158 105.3518,105.3518 H 392.86288 V 486.10826 H 359.42974 Z M 316.01657,521.0384 h 41.91617 v 41.91616 h -41.91617 z m -106.8488,43.41317 h 71.91866 v 33.43313 h 33.43313 v 71.91867 c -53.63022,-9.37119 -95.98061,-51.72158 -105.35179,-105.3518 z m 183.69511,0 h 71.91866 c -9.37119,53.63022 -51.72158,95.98061 -105.3518,105.3518 V 597.8847 h 33.43314 z"/>
  </g>
</svg>