<?xml version="1.0" encoding="UTF-8" standalone="no"?>
<svg
   xmlns:dc="http://purl.org/dc/elements/1.1/"
   xmlns:cc="http://creativecommons.org/ns#"
   xmlns:rdf="http://www.w3.org/1999/02/22-rdf-syntax-ns#"
   xmlns:svg="http://www.w3.org/2000/svg"
   xmlns="http://www.w3.org/2000/svg"
   xmlns:sodipodi="http://sodipodi.sourceforge.net/DTD/sodipodi-0.dtd"
   xmlns:inkscape="http://www.inkscape.org/namespaces/inkscape"
   width="499.99997"
   height="570"
   viewBox="0 0 132.29166 150.8125"
   version="1.1"
   id="svg847"
   sodipodi:docname="haapavesi.svg"
   inkscape:version="1.0.2 (e86c870879, 2021-01-15, custom)">
  <defs
     id="defs841" />
  <sodipodi:namedview
     id="base"
     pagecolor="#ffffff"
     bordercolor="#666666"
     borderopacity="1.0"
     inkscape:pageopacity="0.0"
     inkscape:pageshadow="2"
     inkscape:zoom="0.92235294"
     inkscape:cx="380.77722"
     inkscape:cy="237.21696"
     inkscape:document-units="px"
     inkscape:current-layer="layer1"
     inkscape:document-rotation="0"
     showgrid="false"
     inkscape:snap-smooth-nodes="true"
     inkscape:showpageshadow="false"
     borderlayer="true"
     units="px"
     inkscape:window-width="1920"
     inkscape:window-height="1017"
     inkscape:window-x="-8"
     inkscape:window-y="-4"
     inkscape:window-maximized="1"
     inkscape:snap-global="true" />
  <metadata
     id="metadata844">
    <rdf:RDF>
      <cc:Work
         rdf:about="">
        <dc:format>image/svg+xml</dc:format>
        <dc:type
           rdf:resource="http://purl.org/dc/dcmitype/StillImage" />
        <dc:title></dc:title>
      </cc:Work>
    </rdf:RDF>
  </metadata>
  <g
     inkscape:label="Layer 1"
     inkscape:groupmode="layer"
     id="layer1"
     transform="translate(-33.043238,-49.41481)">
    <path
       style="font-variation-settings:normal;opacity:1;vector-effect:none;fill:#005dbd;fill-opacity:1;stroke:none;stroke-width:0.661458;stroke-linecap:butt;stroke-linejoin:miter;stroke-miterlimit:4;stroke-dasharray:none;stroke-dashoffset:0;stroke-opacity:1;stop-color:#000000;stop-opacity:1"
       d="m 165.00417,49.745539 v 83.637471 c 0,37.26362 -29.42437,66.51357 -65.815097,66.51357 -36.390723,0 -65.815106,-29.24995 -65.815106,-66.51357 V 49.745539 Z"
       id="path1823"
       sodipodi:nodetypes="cszscc" />
    <path
       id="path848"
       style="font-variation-settings:normal;opacity:1;vector-effect:none;fill:#e6e6e6;fill-opacity:1;stroke:#000000;stroke-width:0.529167;stroke-linecap:butt;stroke-linejoin:miter;stroke-miterlimit:4;stroke-dasharray:none;stroke-dashoffset:0;stroke-opacity:1;stop-color:#000000;stop-opacity:1"
       d="m 140.27709,142.86417 c 7.84632,0 12.69805,5.79336 20.54436,5.79336 0.87667,0 1.71404,-0.0756 2.52428,-0.20401 -6.68869,29.785 -32.84268,51.44302 -64.156337,51.44302 -31.313661,0 -57.468167,-21.65802 -64.15686,-51.44302 0.810313,0.12851 1.648057,0.20401 2.524801,0.20401 7.846312,0 12.697543,-5.79336 20.543847,-5.79336 7.846323,0 12.697533,5.79336 20.543848,5.79336 7.846322,0 12.698044,-5.79336 20.544364,-5.79336 7.846327,0 12.697527,5.79336 20.543857,5.79336 7.84631,0 12.69752,-5.79336 20.54384,-5.79336 z" />
    <g
       id="g1601"
       style="stroke-width:0.527999;stroke-miterlimit:4;stroke-dasharray:none"
       transform="matrix(1.0022127,0,0,1.0022113,-0.0738468,-0.10883277)">
      <path
         id="path855"
         style="opacity:1;fill:#005dbd;fill-opacity:1;stroke:#000000;stroke-width:1.99559;stroke-miterlimit:4;stroke-dasharray:none;paint-order:markers fill stroke"
         d="m 374.33789,555.35742 c -50.29687,5.4e-4 -91.06977,40.77344 -91.07031,91.07031 -5.4e-4,50.29687 40.77268,91.07173 91.07031,91.07227 50.29763,5.4e-4 91.07281,-40.77464 91.07227,-91.07227 -5.4e-4,-50.29763 -40.7754,-91.07085 -91.07227,-91.07031 z m 0,19.89844 c 39.30745,0 71.17383,31.86442 71.17383,71.17187 0,39.30744 -31.8664,71.17383 -71.17383,71.17383 -39.30743,0 -71.17186,-31.86639 -71.17187,-71.17383 -10e-6,-39.30745 31.86442,-71.17187 71.17187,-71.17187 z"
         transform="scale(0.26458333)"
         sodipodi:nodetypes="zzzzzzzzzz" />
      <path
         style="font-variation-settings:normal;opacity:1;vector-effect:none;fill:#005dbd;fill-opacity:1;stroke:#000000;stroke-width:0.527999;stroke-linecap:butt;stroke-linejoin:miter;stroke-miterlimit:4;stroke-dasharray:none;stroke-dashoffset:0;stroke-opacity:1;stop-color:#000000;stop-opacity:1"
         d="m 93.094388,178.53823 c 0.60136,3.40769 1.00226,10.02261 0.20045,13.02939 -0.8018,3.00679 -0.8379,5.00151 1.60362,4.91108 2.44153,-0.0904 2.76358,-0.15034 4.14537,-0.15034 1.381782,0 1.703832,0.0599 4.145362,0.15034 2.44152,0.0904 2.40542,-1.90429 1.60362,-4.91108 -0.80181,-3.00678 -0.40091,-9.6217 0.20045,-13.02939 0.60135,-3.40768 1.00226,-5.02267 1.00226,-7.50401 0,-2.48133 -0.40091,-4.09632 -1.00226,-7.50401 -0.60136,-3.40768 -1.00226,-10.0226 -0.20045,-13.02939 0.8018,-3.00678 0.8379,-5.00147 -1.60362,-4.91107 -2.44153,0.0904 -2.76358,0.15033 -4.145362,0.15033 -1.38179,0 -1.70384,-0.0599 -4.14537,-0.15033 -2.44152,-0.0904 -2.40542,1.90429 -1.60362,4.91107 0.80181,3.00679 0.40091,9.62171 -0.20045,13.02939 -0.60135,3.40769 -1.00226,5.02268 -1.00226,7.50401 0,2.48134 0.40091,4.09633 1.00226,7.50401 z"
         id="path881"
         sodipodi:nodetypes="zsszsszzzsszsszzz" />
      <path
         id="path883"
         style="opacity:1;fill:#bf9f4f;fill-opacity:1;stroke:#000000;stroke-width:0.527999;stroke-miterlimit:4;stroke-dasharray:none;paint-order:markers fill stroke"
         d="m 99.043828,155.08118 c -1.08698,0 -1.96816,-0.88118 -1.96816,-1.96816 0,-1.08699 0.88118,-1.96817 1.96816,-1.96817 1.086982,0 1.968172,0.88118 1.968172,1.96817 0,1.08698 -0.88119,1.96816 -1.968172,1.96816 z"
         sodipodi:nodetypes="sssss" />
      <path
         id="path885"
         style="opacity:1;fill:#bf9f4f;fill-opacity:1;stroke:#000000;stroke-width:0.527999;stroke-miterlimit:4;stroke-dasharray:none;paint-order:markers fill stroke"
         d="m 99.043828,186.98727 c -1.08698,0 -1.96816,0.88118 -1.96816,1.96816 0,1.08699 0.88118,1.96817 1.96816,1.96817 1.086982,0 1.968172,-0.88118 1.968172,-1.96817 0,-1.08698 -0.88119,-1.96816 -1.968172,-1.96816 z"
         sodipodi:nodetypes="sssss" />
      <path
         style="font-variation-settings:normal;opacity:1;vector-effect:none;fill:#005dbd;fill-opacity:1;stroke:#000000;stroke-width:0.527999;stroke-linecap:butt;stroke-linejoin:miter;stroke-miterlimit:4;stroke-dasharray:none;stroke-dashoffset:0;stroke-opacity:1;stop-color:#000000;stop-opacity:1"
         d="m 106.54783,176.98366 c 3.40769,-0.60136 10.02261,-1.00226 13.02939,-0.20045 3.00679,0.8018 5.00151,0.8379 4.91108,-1.60362 -0.0904,-2.44153 -0.15034,-2.76358 -0.15034,-4.14537 0,-1.38178 0.0599,-1.70383 0.15034,-4.14536 0.0904,-2.44152 -1.90429,-2.40542 -4.91108,-1.60362 -3.00678,0.80181 -9.6217,0.40091 -13.02939,-0.20045 -3.40768,-0.60135 -5.02267,-1.00226 -7.504009,-1.00226 -2.481335,0 -4.096325,0.40091 -7.504015,1.00226 -3.40768,0.60136 -10.0226,1.00226 -13.02939,0.20045 -3.00678,-0.8018 -5.00147,-0.8379 -4.91107,1.60362 0.09043,2.44153 0.15033,2.76358 0.15033,4.14536 0,1.38179 -0.05993,1.70384 -0.15033,4.14537 -0.09043,2.44152 1.90429,2.40542 4.91107,1.60362 3.00679,-0.80181 9.62171,-0.40091 13.02939,0.20045 3.40769,0.60135 5.02268,1.00226 7.504015,1.00226 2.481339,0 4.096329,-0.40091 7.504009,-1.00226 z"
         id="path871"
         sodipodi:nodetypes="zsszsszzzsszsszzz" />
      <path
         id="path877"
         style="opacity:1;fill:#bf9f4f;fill-opacity:1;stroke:#000000;stroke-width:0.527999;stroke-miterlimit:4;stroke-dasharray:none;paint-order:markers fill stroke"
         d="m 83.090779,171.03422 c 0,1.08698 -0.881184,1.96816 -1.968166,1.96816 -1.086986,0 -1.968163,-0.88118 -1.968163,-1.96816 0,-1.08698 0.881176,-1.96817 1.968163,-1.96817 1.086982,0 1.968166,0.88119 1.968166,1.96817 z"
         sodipodi:nodetypes="sssss" />
      <path
         id="path879"
         style="opacity:1;fill:#bf9f4f;fill-opacity:1;stroke:#000000;stroke-width:0.527999;stroke-miterlimit:4;stroke-dasharray:none;paint-order:markers fill stroke"
         d="m 114.99687,171.03422 c 0,1.08698 0.88118,1.96816 1.96816,1.96816 1.08699,0 1.96817,-0.88118 1.96817,-1.96816 0,-1.08698 -0.88118,-1.96817 -1.96817,-1.96817 -1.08698,0 -1.96816,0.88119 -1.96816,1.96817 z"
         sodipodi:nodetypes="sssss" />
      <path
         id="path891"
         style="opacity:1;fill:none;stroke:#000000;stroke-width:0.46199889;stroke-miterlimit:4;stroke-dasharray:none;paint-order:markers fill stroke"
         d="m 107.12577,171.03421 c -2.86156,-1.13701 -4.9031,-3.77223 -8.081946,-3.77223 -3.178839,0 -5.220389,2.63522 -8.08195,3.77223 2.861561,1.13702 4.903111,3.77224 8.08195,3.77224 3.178846,0 5.220386,-2.63522 8.081946,-3.77224 z"
         sodipodi:nodetypes="cscsc" />
      <path
         id="path875"
         style="opacity:1;fill:#e6e6e6;fill-opacity:1;stroke:#000000;stroke-width:0.527999;stroke-miterlimit:4;stroke-dasharray:none;paint-order:markers fill stroke"
         d="m 102.81606,171.03423 c 0,2.08333 -1.6889,3.77222 -3.772236,3.77222 -2.083346,0 -3.772231,-1.68889 -3.772232,-3.77222 0,-2.08334 1.688885,-3.77225 3.772232,-3.77225 2.083336,0 3.772236,1.68891 3.772236,3.77225 z"
         sodipodi:nodetypes="sssss" />
    </g>
    <path
       style="font-variation-settings:normal;opacity:1;vector-effect:none;fill:none;fill-opacity:1;stroke:#000000;stroke-width:0.661458;stroke-linecap:butt;stroke-linejoin:miter;stroke-miterlimit:4;stroke-dasharray:none;stroke-dashoffset:0;stroke-opacity:1;stop-color:#000000;stop-opacity:1"
       d="m 165.00417,49.745539 v 83.637471 c 0,37.26362 -29.42437,66.51357 -65.815097,66.51357 -36.390723,0 -65.815106,-29.24995 -65.815106,-66.51357 V 49.745539 Z"
       id="path846"
       sodipodi:nodetypes="cszscc" />
    <g
       id="g1843"
       transform="matrix(1.0022127,0,0,1.0022113,-0.0738468,-0.10883277)"
       style="stroke-width:0.997793">
      <path
         style="font-variation-settings:normal;opacity:1;vector-effect:none;fill:#e6e6e6;fill-opacity:1;stroke:#000000;stroke-width:0.527999;stroke-linecap:butt;stroke-linejoin:miter;stroke-miterlimit:4;stroke-dasharray:none;stroke-dashoffset:0;stroke-opacity:1;stop-color:#000000;stop-opacity:1"
         d="m 104.16492,80.212367 c 2.05255,0.513138 4.00068,0.549901 5.31239,-1.068068 1.36177,-1.679722 0.97895,-2.912074 2.09157,-4.703872 0.60057,-0.967161 1.94525,-1.601126 2.35608,-3.226863 0.3429,-1.356911 -0.12615,-2.756359 -0.22311,-3.699095 -0.23358,-2.271111 1.23887,-2.318182 1.12027,-5.164478 -0.11859,-2.846297 -3.09175,-3.054493 -4.82989,-4.287566 -1.88779,-1.339237 -1.52234,-3.613788 -4.63322,-4.132267 -3.11088,-0.51848 -3.33683,-1.973197 -6.31525,-1.973197 -2.978417,0 -3.204377,1.454717 -6.315257,1.973197 -3.11088,0.518479 -2.74542,2.79303 -4.63321,4.132267 -1.73814,1.233073 -4.7113,1.441269 -4.82989,4.287566 -0.1186,2.846296 1.35385,2.893367 1.12026,5.164478 -0.097,0.942736 -0.56601,2.342184 -0.22311,3.699095 0.41084,1.625737 1.75552,2.259702 2.35608,3.226863 1.11263,1.791798 0.72981,3.02415 2.09158,4.703872 1.31171,1.617969 3.25984,1.581206 5.31239,1.068068 2.05254,-0.513134 4.039074,2e-6 4.039074,2e-6 0,0 0.107536,3.98014 -3.5e-5,8.175423 -0.107571,4.195283 -0.448214,8.892565 -0.448214,8.892565 -0.873214,-3.842826 -2.689303,-4.700872 -3.657426,-4.894497 -1.129499,2.394254 0.322714,5.163425 0.322714,5.163425 -0.914356,-0.914356 -4.464211,-4.033925 -8.282994,-7.261066 -3.818782,-3.22714 -8.30995,-5.485384 -8.30995,-5.485384 0,0 0.420466,-1.628119 1.95682,-3.082718 1.536354,-1.4546 2.089654,-3.254767 1.418302,-5.268433 -0.671352,-2.013665 0.120239,-3.259148 -0.259483,-4.938292 -0.379723,-1.679143 -1.367111,-2.494393 -2.421817,-3.614069 -1.054706,-1.119677 -1.627111,-2.659969 -2.916016,-3.522164 -1.288904,-0.862195 -2.245758,-0.620592 -3.269076,-0.975432 -1.023317,-0.354841 -1.003668,-1.091471 -2.741767,-2.100773 -1.738099,-1.009302 -3.519803,-0.05359 -5.351532,0.690866 -1.831729,0.744452 -2.475338,-0.612263 -4.156082,-0.293863 -1.680745,0.318401 -2.001239,1.881725 -3.755616,3.161422 -1.754378,1.279698 -3.780675,0.891705 -5.382271,3.402853 -1.601597,2.511148 -0.603313,4.982696 -0.9793,8.10668 -0.375987,3.123984 -1.245415,4.724048 -0.195223,6.280517 1.050192,1.556469 3.316927,2.239059 3.58194,3.317957 0.265013,1.078898 -0.122751,2.255698 1.454136,3.356377 1.576887,1.100679 2.777172,0.01437 4.411147,0.355878 1.633976,0.341505 2.032073,1.192103 3.492085,1.676294 1.460013,0.484191 2.25631,-0.485954 3.879989,-0.466394 1.623679,0.01956 2.467461,1.247034 4.445191,0.765992 1.97773,-0.481042 2.842511,-1.393118 3.757158,-2.991844 0.914647,-1.598726 1.867704,-2.03627 1.867704,-2.03627 3.96875,1.488281 10.205358,6.732701 13.323661,9.992745 3.118304,3.260045 4.231457,5.780216 4.231457,8.615036 0,2.83482 -0.120966,6.72748 -1.821859,7.02657 -1.676643,0.29483 -2.976562,-0.61705 -9.142299,-2.38882 -6.165736,-1.77176 -9.738936,-1.00749 -9.738936,-1.00749 0,0 -0.879572,-1.98657 -0.430296,-3.93154 0.478661,-2.07218 0.274046,-3.57039 -1.481768,-4.88211 -1.822837,-1.361767 -0.901189,-2.162217 -2.845634,-3.274851 -0.604698,-0.346016 -1.839228,-0.258795 -3.114523,-0.566022 -0.938202,-0.226019 -1.898466,-0.862927 -2.646251,-1.037059 -1.472515,-0.342896 -2.991192,0.12615 -4.014239,0.22311 -2.464604,0.23358 -2.515686,-0.485871 -5.604475,-0.367271 -3.088791,0.11859 -3.852581,2.123608 -5.190707,3.861748 -1.453335,1.887795 -3.491383,1.952625 -4.054034,5.063505 -0.562653,3.11088 -2.033735,3.12169 -2.033735,6.10011 0,2.97841 1.578653,3.20437 2.141306,6.31525 0.562651,3.11088 1.14659,4.54022 3.085892,5.92407 1.983555,1.41542 3.591501,0.56544 5.943707,2.57089 1.905504,1.6246 2.831596,1.2779 5.281761,0.92359 1.560903,-0.22571 2.434153,-0.93999 3.906667,-1.28289 1.764247,-0.41084 3.958216,-0.24952 5.007775,-0.85008 1.944453,-1.11263 2.206082,-3.7418 4.028919,-5.10357 1.755814,-1.31171 2.425427,-1.80076 2.665053,-3.91397 0.196152,-1.72982 -0.107561,-3.50125 -0.107561,-3.50125 3.189173,-0.63784 6.200893,-0.24836 10.453123,1.09818 4.252233,1.34655 7.257788,3.81451 8.043079,5.43806 0.824192,1.70397 0.955849,4.60999 -0.03974,7.12826 -0.995594,2.51827 -2.349185,3.99846 -8.817302,8.0155 -6.468118,4.01704 -9.745741,4.57723 -15.415384,4.22287 -5.669642,-0.35435 -9.142298,-0.99219 -14.244978,0.28348 -5.102678,1.27567 -7.226025,-0.6898 -8.646205,-2.48046 -1.420181,-1.79067 -2.82463,-0.41355 -2.126115,1.06305 0.642953,1.35915 2.210585,2.51862 3.260042,3.11831 0,0 -2.409596,1.58277 -3.614395,2.92931 -1.204799,1.34654 -0.586936,3.14045 0.07087,3.26005 0.779577,0.14174 1.133929,-1.34654 3.330915,-3.11831 2.196987,-1.77176 11.764509,-3.40178 17.788505,-2.12611 6.023996,1.27567 10.617378,0.93383 12.969308,0.14174 2.570238,-0.86561 3.118303,0.21261 1.700893,1.06306 -1.471105,0.88267 -1.989035,1.0791 -2.480469,1.27567 -0.491435,0.19657 -1.193186,0.25637 -1.349627,0.77865 -0.156441,0.52228 -0.15729,1.66535 2.129203,0.92224 2.286493,-0.74311 7.9375,-3.54353 10.843192,-6.024 2.905692,-2.48046 4.677455,-3.26004 5.457031,-2.97656 0.779576,0.28348 0.354353,1.84264 -1.133928,2.83482 -1.488282,0.99219 -1.605037,1.59561 -0.992188,2.05525 0.612849,0.45964 1.499385,0.28251 2.559202,-0.41325 1.342051,-0.88105 2.808264,-2.52388 3.323053,-3.90985 1.116435,1.3459 1.363731,2.86563 1.479122,4.41174 2.294261,-0.96627 1.840151,-2.90613 2.848321,-4.41174 0.51482,1.38597 1.98103,3.0288 3.32308,3.90985 1.05982,0.69576 1.94636,0.87289 2.55921,0.41325 0.61284,-0.45964 0.49609,-1.06306 -0.99219,-2.05525 -1.48828,-0.99218 -1.91351,-2.55134 -1.13393,-2.83482 0.77958,-0.28348 2.55134,0.4961 5.45703,2.97656 2.90569,2.48047 8.5567,5.28089 10.84319,6.024 2.2865,0.74311 2.28565,-0.39996 2.12921,-0.92224 -0.15645,-0.52228 -0.8582,-0.58208 -1.34963,-0.77865 -0.49144,-0.19657 -1.00937,-0.393 -2.48047,-1.27567 -1.41741,-0.85045 -0.86935,-1.92867 1.70089,-1.06306 2.35193,0.79209 6.94531,1.13393 12.96931,-0.14174 6.024,-1.27567 15.59152,0.35435 17.78851,2.12611 2.19698,1.77177 2.55133,3.26005 3.33091,3.11831 0.65781,-0.1196 1.27567,-1.91351 0.0709,-3.26005 -1.2048,-1.34654 -3.61439,-2.92931 -3.61439,-2.92931 1.04945,-0.59969 2.61708,-1.75916 3.26004,-3.11831 0.69851,-1.4766 -0.70594,-2.85372 -2.12612,-1.06305 -1.42018,1.79066 -3.54352,3.75613 -8.6462,2.48046 -5.10268,-1.27567 -8.57534,-0.63783 -14.24498,-0.28348 -5.66964,0.35436 -8.94727,-0.20583 -15.41538,-4.22287 -6.46812,-4.01704 -7.82171,-5.49723 -8.81731,-8.0155 -0.99559,-2.51827 -0.86393,-5.42429 -0.0397,-7.12826 0.78529,-1.62355 3.79085,-4.09151 8.04308,-5.43806 4.25223,-1.34654 7.26395,-1.73602 10.45313,-1.09818 0,0 -0.30372,1.77143 -0.10757,3.50125 0.23963,2.11321 0.90924,2.60226 2.66506,3.91397 1.82283,1.36177 2.08446,3.99094 4.02892,5.10357 1.04956,0.60056 3.24352,0.43924 5.00777,0.85008 1.47252,0.3429 2.34577,1.05718 3.90667,1.28289 2.45016,0.35431 3.37626,0.70101 5.28176,-0.92359 2.35221,-2.00545 3.96015,-1.15547 5.94371,-2.57089 1.9393,-1.38385 2.52324,-2.81319 3.08589,-5.92407 0.56265,-3.11088 2.1413,-3.33684 2.1413,-6.31525 0,-2.97842 -1.47108,-2.98923 -2.03373,-6.10011 -0.56265,-3.11088 -2.6007,-3.17571 -4.05403,-5.063505 -1.33813,-1.73814 -2.10192,-3.743158 -5.19071,-3.861748 -3.08879,-0.1186 -3.13987,0.600851 -5.60448,0.367271 -1.02304,-0.09696 -2.54172,-0.566006 -4.01424,-0.22311 -0.74778,0.174132 -1.70804,0.81104 -2.64625,1.037059 -1.27529,0.307227 -2.50982,0.220006 -3.11452,0.566022 -1.94444,1.112634 -1.0228,1.913084 -2.84563,3.274851 -1.75582,1.31172 -1.96043,2.80993 -1.48177,4.88211 0.44927,1.94497 -0.4303,3.93154 -0.4303,3.93154 0,0 -3.5732,-0.76427 -9.73893,1.00749 -6.16574,1.77177 -7.46566,2.68365 -9.1423,2.38882 -1.7009,-0.29909 -1.82186,-4.19175 -1.82186,-7.02657 0,-2.83482 1.11315,-5.354991 4.23146,-8.615036 3.1183,-3.260044 9.35491,-8.504464 13.32366,-9.992745 0,0 0.95305,0.437544 1.8677,2.03627 0.91465,1.598726 1.77943,2.510802 3.75716,2.991844 1.97773,0.481042 2.82151,-0.746432 4.44519,-0.765992 1.62368,-0.01956 2.41998,0.950585 3.87999,0.466394 1.46001,-0.484191 1.85811,-1.334789 3.49208,-1.676294 1.63398,-0.341508 2.83426,0.744801 4.41115,-0.355878 1.57689,-1.100679 1.18912,-2.277479 1.45414,-3.356377 0.26501,-1.078898 2.53174,-1.761488 3.58194,-3.317957 1.05019,-1.556469 0.18076,-3.156533 -0.19523,-6.280517 -0.37598,-3.123984 0.6223,-5.595532 -0.9793,-8.10668 -1.60159,-2.511148 -3.62789,-2.123155 -5.38227,-3.402853 -1.75437,-1.279697 -2.07487,-2.843021 -3.75561,-3.161422 -1.68075,-0.3184 -2.32436,1.038315 -4.15609,0.293863 -1.83172,-0.744456 -3.61343,-1.700168 -5.35153,-0.690866 -1.7381,1.009302 -1.71845,1.745932 -2.74176,2.100773 -1.02332,0.35484 -1.98018,0.113237 -3.26908,0.975432 -1.28891,0.862195 -1.86131,2.402487 -2.91602,3.522164 -1.0547,1.119676 -2.04209,1.934926 -2.42181,3.614069 -0.37973,1.679144 0.41187,2.924627 -0.25949,4.938292 -0.67135,2.013666 -0.11805,3.813833 1.41831,5.268433 1.53635,1.454599 1.95682,3.082718 1.95682,3.082718 0,0 -4.49117,2.258244 -8.30995,5.485384 -3.81879,3.227141 -7.36864,6.34671 -8.283,7.261066 0,0 1.45221,-2.769171 0.32272,-5.163425 -0.96813,0.193625 -2.78422,1.051671 -3.65743,4.894497 0,0 -0.34064,-4.697282 -0.44821,-8.892565 -0.10758,-4.195283 -8e-5,-8.175423 -8e-5,-8.175423 0,0 1.9865,-0.513136 4.03904,-2e-6 z"
         id="path1642"
         sodipodi:nodetypes="sssssssszsssssssscscccsczzzzzzzzzzzzzzzzzzzzcsssscssssssssszsssssssscsssssssscsssssszzzssszscccszssszzzsssssscsssssssscsssssssszssssssssscssssczzzzzzzzzzzzzzzzzzzzcscccscs" />
      <path
         id="path1681"
         style="color:#000000;font-style:normal;font-variant:normal;font-weight:normal;font-stretch:normal;font-size:medium;line-height:normal;font-family:sans-serif;font-variant-ligatures:normal;font-variant-position:normal;font-variant-caps:normal;font-variant-numeric:normal;font-variant-alternates:normal;font-variant-east-asian:normal;font-feature-settings:normal;font-variation-settings:normal;text-indent:0;text-align:start;text-decoration:none;text-decoration-line:none;text-decoration-style:solid;text-decoration-color:#000000;letter-spacing:normal;word-spacing:normal;text-transform:none;writing-mode:lr-tb;direction:ltr;text-orientation:mixed;dominant-baseline:auto;baseline-shift:baseline;text-anchor:start;white-space:normal;shape-padding:0;shape-margin:0;inline-size:0;clip-rule:nonzero;display:inline;overflow:visible;visibility:visible;opacity:1;isolation:auto;mix-blend-mode:normal;color-interpolation:sRGB;color-interpolation-filters:linearRGB;solid-color:#000000;solid-opacity:1;vector-effect:none;fill:#000000;fill-opacity:1;fill-rule:nonzero;stroke:none;stroke-width:3.77119;stroke-linecap:butt;stroke-linejoin:miter;stroke-miterlimit:4;stroke-dasharray:none;stroke-dashoffset:0;stroke-opacity:1;color-rendering:auto;image-rendering:auto;shape-rendering:auto;text-rendering:auto;enable-background:accumulate;stop-color:#000000;stop-opacity:1"
         d="m 375.05273,217.95703 c -1.22031,3.11836 -1.96476,7.91705 -2.09179,10.88281 -0.60007,14.00942 -0.2389,25.61055 -0.0215,35.55078 -1.42694,-3.2e-4 -3.85829,-0.0924 -5.66015,-0.7246 -2.6527,-0.93077 -5.71683,-3.0795 -7.46289,-8.51172 -1.85715,-5.77782 -3.73419,-8.92495 -5.54493,-12.4961 -1.81069,-3.57114 -2.44645,-11.34923 -7.10351,-16.54101 2.7394,7.50203 3.46799,13.80376 5.31641,17.44922 0.86543,1.70682 1.69674,3.96658 2.54101,5.71289 -6.08205,-0.71827 -9.98437,2.92968 -9.98437,2.92968 0,0 4.83476,-2.40787 10.81836,-1.05468 0.67967,1.54177 1.36944,2.49348 2.05078,4.61328 1.91304,5.95171 5.56218,8.67917 8.70312,9.78125 2.07697,0.72876 4.73366,0.82987 6.36524,0.82422 0.0507,2.55762 0.0898,5.03699 0.0898,7.38476 0,6.64562 -1.20395,12.73882 -2.10352,17.33399 -3.33974,-0.32446 -12.37341,-1.86775 -17.36523,-9.35547 -3.28989,-4.93483 -5.51704,-7.16862 -7.26367,-8.8125 -1.7466,-1.64388 -2.9296,-2.61022 -4.4961,-5.35156 -1.53086,-2.67902 -1.80335,-4.93252 -2.26562,-7.60352 -0.46228,-2.671 -1.12517,-5.715 -3.43945,-9.50195 -4.32696,-7.08048 -3.13514,-11.42701 -2.88282,-16.14649 -2.1871,4.22505 -3.43982,9.63149 1.17774,17.1875 2.15803,3.53129 2.7213,6.18444 3.17383,8.79883 0.45248,2.61439 0.78026,5.24095 2.50195,8.25391 1.68605,2.95061 3.1482,4.21555 4.85742,5.82422 1.50652,1.41788 3.54321,3.76569 6.14258,7.46289 -1.87941,0.0722 -5.40326,0.43807 -8.03906,3.44726 -1.83852,1.93781 -3.91453,3.42668 -6.5625,4.7207 3.1172,0.68823 6.22697,-1.34473 8.06836,-3.40624 2.57412,-2.93877 8.16406,-2.90821 8.16406,-2.90821 v -0.0449 c 5.87707,7.79332 15.11388,9.11201 17.86719,9.33789 -0.0718,0.38281 -0.16752,0.85349 -0.22852,1.20508 -0.53582,3.08838 -0.01,5.16992 -0.01,5.16992 0,0 1.37981,-1.68722 1.88282,-4.95703 0.41849,-2.72038 1.50346,-6.50791 1.6961,-8.76805 0.34868,2.19758 1.09409,5.85229 1.86444,8.56883 0.99324,3.50252 2.73438,5.16016 2.73438,5.16016 0,0 -0.21249,-2.22241 -1.33789,-6.32032 0,0 11.77765,-0.16888 18.73633,-9.39648 v 0.0449 c 0,0 5.58994,-0.0306 8.16406,2.90821 1.84138,2.06151 4.95115,4.09447 8.06836,3.40624 -2.64798,-1.29402 -4.72399,-2.78289 -6.5625,-4.7207 -2.63581,-3.00919 -6.15966,-3.37504 -8.03906,-3.44726 2.59937,-3.6972 4.63605,-6.04501 6.14257,-7.46289 1.70922,-1.60867 3.17138,-2.87361 4.85743,-5.82422 1.72168,-3.01296 2.04946,-5.63952 2.50195,-8.25391 0.45252,-2.61439 1.01579,-5.26754 3.17383,-8.79883 4.61756,-7.55601 3.36483,-12.96245 1.17773,-17.1875 0.25232,4.71948 1.44414,9.06601 -2.88281,16.14649 -2.31428,3.78695 -2.97718,6.83095 -3.43945,9.50195 -0.46228,2.671 -0.73672,4.9245 -2.26758,7.60352 -1.5665,2.74134 -2.74755,3.70768 -4.49414,5.35156 -1.74664,1.64388 -3.97379,3.87767 -7.26368,8.8125 -5.61477,8.42216 -16.37328,9.34213 -18.32812,9.4414 -0.92854,-4.23012 -1.68164,-10.51259 -1.68164,-17.41992 0,-2.35454 -0.0397,-4.82953 -0.0898,-7.3789 1.44888,0.0348 4.70484,0.005 7.08398,-0.83008 3.14094,-1.10208 6.79008,-3.82954 8.70312,-9.78125 0.68134,-2.1198 1.37307,-3.07151 2.05274,-4.61328 5.9836,-1.35319 10.81836,1.05468 10.81836,1.05468 0,0 -3.90232,-3.64795 -9.98438,-2.92968 0.84427,-1.74631 1.67363,-4.00607 2.53907,-5.71289 1.84841,-3.64546 2.57895,-9.94719 5.31836,-17.44922 -4.65706,5.19178 -5.29282,12.96987 -7.10352,16.54101 -1.81073,3.57115 -3.68778,6.71828 -5.54492,12.4961 -1.74607,5.43222 -4.81019,7.58095 -7.46289,8.51172 -2.28115,0.80042 -5.54331,0.7542 -6.45703,0.7246 -0.2145,-9.84744 -0.57274,-21.24415 -0.006,-34.96679 0.12816,-3.10241 0.59121,-6.8975 0.11718,-11.4668 z"
         transform="scale(0.26458333)"
         sodipodi:nodetypes="cscssscscccsscscssssscsssscccccccscscsccccccccsssscssssscscsscccscssscsc" />
      <path
         id="path1712"
         style="color:#000000;font-style:normal;font-variant:normal;font-weight:normal;font-stretch:normal;font-size:medium;line-height:normal;font-family:sans-serif;font-variant-ligatures:normal;font-variant-position:normal;font-variant-caps:normal;font-variant-numeric:normal;font-variant-alternates:normal;font-variant-east-asian:normal;font-feature-settings:normal;font-variation-settings:normal;text-indent:0;text-align:start;text-decoration:none;text-decoration-line:none;text-decoration-style:solid;text-decoration-color:#000000;letter-spacing:normal;word-spacing:normal;text-transform:none;writing-mode:lr-tb;direction:ltr;text-orientation:mixed;dominant-baseline:auto;baseline-shift:baseline;text-anchor:start;white-space:normal;shape-padding:0;shape-margin:0;inline-size:0;clip-rule:nonzero;display:inline;overflow:visible;visibility:visible;opacity:1;isolation:auto;mix-blend-mode:normal;color-interpolation:sRGB;color-interpolation-filters:linearRGB;solid-color:#000000;solid-opacity:1;vector-effect:none;fill:#000000;fill-opacity:1;fill-rule:nonzero;stroke:none;stroke-width:0.997793;stroke-linecap:butt;stroke-linejoin:miter;stroke-miterlimit:4;stroke-dasharray:none;stroke-dashoffset:0;stroke-opacity:1;color-rendering:auto;image-rendering:auto;shape-rendering:auto;text-rendering:auto;enable-background:accumulate;stop-color:#000000;stop-opacity:1"
         d="m 64.332862,80.748838 c 0.669266,0.169799 2.94118,0.09949 3.947534,-1.201944 0.577751,0.352575 1.351536,0.965534 1.875264,1.299565 1.482465,0.945509 2.724195,2.511276 3.621268,3.365728 -0.547536,0.698845 -2.45905,0.882464 -4.785792,1.145834 -1.559277,0.176499 -2.200442,0.06788 -2.977012,0.116056 -0.633392,0.0393 -1.303339,-0.02211 -2.137735,-0.06269 -0.815426,-0.03964 -1.356889,-0.299497 -2.01849,-0.576395 -0.661603,-0.276895 -1.434951,-0.714237 -2.608988,-0.73677 -2.195091,-0.04215 -2.386606,-1.610995 -4.392339,-1.50204 1.544102,0.404426 2.039456,1.985531 4.381971,2.03051 1.094773,0.02099 1.766761,0.424968 2.414349,0.695987 0.647579,0.271026 1.28013,0.571602 2.1972,0.616208 0.898086,0.04369 1.692547,0.147966 2.563505,0.156911 -0.07793,0.463283 -0.615788,0.839783 -1.315002,1.700354 -0.647981,0.797514 -0.3765,1.398427 -2.043856,1.936284 0,0 0.807177,0.271826 1.506,-0.322714 0.698822,-0.59454 1.050525,-1.437101 1.387679,-1.785333 0.564108,-0.582643 0.925033,-0.875752 1.194229,-1.507766 v -2e-6 c 0.386189,-0.0032 0.901529,-0.05344 2.788125,-0.220433 1.886595,-0.166994 3.776919,-0.750596 4.219029,-1.332649 0.07516,0.07047 0.166564,0.158799 0.236313,0.222428 0.6127,0.558929 1.313208,1.060499 1.313208,1.060499 0,0 -0.341414,-0.870566 -0.99926,-1.447987 -0.547313,-0.480397 -1.23784,-1.261299 -1.714615,-1.625835 0.539839,0.234881 1.461156,0.588574 2.17675,0.803228 0.922636,0.276756 1.647701,0.500693 1.647701,0.500693 0,0 -0.633561,-0.645293 -1.707816,-0.977278 0,0 1.584214,-3.081601 0.515824,-5.946763 l 0.01011,0.0063 c 0,0 0.788484,-1.251325 1.810289,-1.407423 0.721848,-0.117456 1.617802,-0.52193 1.907776,-1.315216 -0.665404,0.406588 -1.292905,0.657861 -1.986753,0.792284 -1.046284,0.159845 -1.629248,0.893874 -1.912755,1.302845 -0.454926,-1.105875 -0.688889,-1.89424 -0.790834,-2.432034 -0.115678,-0.610159 -0.189817,-1.116299 -0.608138,-1.912211 -0.427167,-0.812734 -0.966442,-1.259547 -1.485268,-1.732449 -0.518824,-0.47291 -1.030538,-0.976039 -1.511236,-1.959859 -1.028586,-2.105091 -2.41285,-2.594845 -3.666523,-2.708079 1.088691,0.615179 2.227861,0.967721 3.19171,2.940329 0.515499,1.055046 1.100228,1.636008 1.630292,2.119147 0.530054,0.483139 0.993703,0.864979 1.37352,1.587632 0.388652,0.739471 0.436183,1.140421 0.554391,1.763923 0.118206,0.623513 0.29963,1.438145 0.932401,2.87414 1.079919,2.450777 -0.191713,5.411897 -0.447731,5.862094 -1.075738,-0.394712 -2.638131,-1.55084 -4.178968,-2.533582 -0.525237,-0.334994 -1.298134,-0.947196 -1.87396,-1.298734 0.213895,-0.318258 0.885635,-0.779888 1.037849,-1.429425 0.201031,-0.857461 0.111802,-2.059539 -0.943706,-3.333072 -0.375938,-0.453584 -0.489825,-0.743295 -0.737051,-1.114269 0.549461,-1.527313 1.774465,-2.263242 1.774465,-2.263242 0,0 -1.368967,0.351493 -2.074072,1.810435 -0.269436,-0.43679 -0.655537,-0.943308 -0.913151,-1.379204 -0.550223,-0.930992 -1.852037,-1.990538 -3.135794,-3.668982 0.495567,1.777529 2.140204,3.025983 2.679212,3.937989 0.539008,0.912013 0.973992,1.778496 1.998647,3.014816 0.963367,1.162374 1.00674,2.151612 0.836964,2.875786 -0.146007,0.622745 -0.835579,1.074945 -0.972181,1.274562 -2.227228,-1.353201 -4.605366,-2.625831 -7.585896,-4.704652 -0.673833,-0.469986 -3.812536,-1.949937 -4.094876,-1.864215 1.162885,0.998494 3.040204,1.771232 3.683715,2.221524 3.039762,2.127058 5.463915,3.428118 7.712259,4.793873 -1.2212,1.034343 -2.507142,1.132178 -3.712332,0.817335 -1.20519,-0.314843 -2.522209,-0.436801 -3.576464,-0.540959 -1.054245,-0.104167 -3.792562,-0.688657 -5.309039,-1.681545 0.846225,1.369039 3.404475,1.900011 4.934663,2.15563 1.530188,0.255619 1.809656,0.102747 3.655077,0.579364 0,0 -0.62635,1.312202 -2.186135,2.118988 0,0 1.677747,-0.07449 2.694479,-1.97353 z"
         sodipodi:nodetypes="ccscssssscssscsczsccccscscsccccccccsssscssssscscsscccscssscscsczsczccc" />
      <path
         id="path1732"
         style="color:#000000;font-style:normal;font-variant:normal;font-weight:normal;font-stretch:normal;font-size:medium;line-height:normal;font-family:sans-serif;font-variant-ligatures:normal;font-variant-position:normal;font-variant-caps:normal;font-variant-numeric:normal;font-variant-alternates:normal;font-variant-east-asian:normal;font-feature-settings:normal;font-variation-settings:normal;text-indent:0;text-align:start;text-decoration:none;text-decoration-line:none;text-decoration-style:solid;text-decoration-color:#000000;letter-spacing:normal;word-spacing:normal;text-transform:none;writing-mode:lr-tb;direction:ltr;text-orientation:mixed;dominant-baseline:auto;baseline-shift:baseline;text-anchor:start;white-space:normal;shape-padding:0;shape-margin:0;inline-size:0;clip-rule:nonzero;display:inline;overflow:visible;visibility:visible;opacity:1;isolation:auto;mix-blend-mode:normal;color-interpolation:sRGB;color-interpolation-filters:linearRGB;solid-color:#000000;solid-opacity:1;vector-effect:none;fill:#000000;fill-opacity:1;fill-rule:nonzero;stroke:none;stroke-width:0.997793;stroke-linecap:butt;stroke-linejoin:miter;stroke-miterlimit:4;stroke-dasharray:none;stroke-dashoffset:0;stroke-opacity:1;color-rendering:auto;image-rendering:auto;shape-rendering:auto;text-rendering:auto;enable-background:accumulate;stop-color:#000000;stop-opacity:1"
         d="m 48.0558,109.86614 c 0.895359,0.32287 2.273182,0.51984 3.124724,0.55345 4.022452,0.15877 7.353426,0.0632 10.207514,0.006 -9.8e-5,0.37754 -0.02659,1.02084 -0.208055,1.49758 -0.26725,0.70186 -0.884196,1.51258 -2.443926,1.97456 -1.658953,0.49137 -2.562573,0.988 -3.587938,1.46709 -1.025363,0.47908 -3.258645,0.64729 -4.749334,1.87947 2.154019,-0.7248 3.963401,-0.91757 5.010103,-1.40663 0.49007,-0.22898 1.138904,-0.44893 1.640313,-0.67231 -0.206234,1.60921 0.841184,2.6417 0.841184,2.6417 0,0 -0.691359,-1.2792 -0.302825,-2.86236 0.44268,-0.17983 0.71594,-0.36233 1.324592,-0.5426 1.70888,-0.50616 2.492001,-1.47166 2.808433,-2.3027 0.209247,-0.54953 0.238276,-1.25245 0.236659,-1.68414 0.734353,-0.0134 1.446242,-0.0238 2.120343,-0.0238 1.908123,0 3.657632,0.31855 4.977025,0.55656 -0.09311,0.88364 -0.536283,3.2738 -2.686197,4.59455 -1.416909,0.87045 -2.058281,1.45971 -2.530287,1.92184 -0.471995,0.46213 -0.749458,0.77513 -1.536562,1.1896 -0.769208,0.40504 -1.416245,0.47713 -2.183154,0.59944 -0.766918,0.12231 -1.640924,0.2977 -2.728251,0.91002 -2.032981,1.14484 -3.280977,0.82951 -4.636057,0.76275 1.213116,0.57867 2.76544,0.91012 4.934957,-0.31161 1.013919,-0.57098 1.775705,-0.72001 2.526368,-0.83974 0.750652,-0.11972 1.504798,-0.20645 2.369895,-0.66198 0.84719,-0.4461 1.210395,-0.83296 1.672276,-1.28519 0.407112,-0.3986 1.081224,-0.93747 2.142784,-1.62522 0.02073,0.49726 0.125786,1.42961 0.989797,2.127 0.556391,0.48644 0.983883,1.03572 1.355432,1.73633 0.197603,-0.82476 -0.386113,-1.64756 -0.978023,-2.13476 -0.843794,-0.68107 -0.835014,-2.16007 -0.835014,-2.16007 h -0.01291 c 2.237652,-1.55498 2.616278,-3.99888 2.68114,-4.72736 0.109909,0.019 0.245058,0.0443 0.346004,0.0605 0.886757,0.14177 1.484418,0.003 1.484418,0.003 0,0 -0.484443,-0.36508 -1.42329,-0.49817 -0.781091,-0.11072 -1.868587,-0.39779 -2.517524,-0.44876 0.630976,-0.0923 1.680339,-0.28947 2.460324,-0.4933 1.005662,-0.26279 1.481607,-0.72347 1.481607,-0.72347 0,0 -0.638106,0.0562 -1.814718,0.35399 0,0 -0.04851,-3.11617 -2.697961,-4.95732 h 0.01291 c 0,0 -0.0087,-1.47901 0.835014,-2.16008 0.59191,-0.4872 1.175626,-1.30999 0.978023,-2.13475 -0.371549,0.70061 -0.799041,1.24989 -1.355432,1.73633 -0.864011,0.69739 -0.969059,1.62974 -0.989797,2.127 -1.06156,-0.68775 -1.735672,-1.22662 -2.142784,-1.62522 -0.461881,-0.45224 -0.825086,-0.8391 -1.672276,-1.2852 -0.865097,-0.45553 -1.619243,-0.54225 -2.369895,-0.66197 -0.750663,-0.11973 -1.512449,-0.26876 -2.526368,-0.839746 -2.169517,-1.221729 -3.721841,-0.890278 -4.934957,-0.311608 1.35508,-0.06676 2.603076,-0.382095 4.636057,0.762744 1.087327,0.61232 1.961333,0.78771 2.728251,0.91002 0.766909,0.12231 1.413946,0.19492 2.183154,0.59996 0.787104,0.41447 1.064567,0.72696 1.536562,1.18908 0.472006,0.46213 1.113378,1.0514 2.530287,1.92185 2.418218,1.48557 2.682365,4.33209 2.710863,4.84931 -1.214573,0.24568 -3.01843,0.44494 -5.001691,0.44494 -0.676044,0 -1.386674,0.0105 -2.118661,0.0238 0.0098,-0.38335 0.0011,-1.24483 -0.238341,-1.87431 -0.316432,-0.83104 -1.099553,-1.79654 -2.808433,-2.3027 -0.608652,-0.18027 -0.881912,-0.36329 -1.324592,-0.54312 -0.388534,-1.58316 0.302825,-2.86236 0.302825,-2.86236 0,0 -1.047418,1.03249 -0.841184,2.6417 -0.501409,-0.22338 -1.150243,-0.44281 -1.640313,-0.67179 -1.046702,-0.48906 -2.856084,-0.68235 -5.010103,-1.40715 1.490689,1.23218 3.723971,1.40039 4.749334,1.87947 1.025365,0.47909 1.928985,0.97573 3.587938,1.4671 1.55973,0.46198 2.176676,1.27269 2.443926,1.97455 0.229824,0.60356 0.216551,1.46667 0.208055,1.70842 -2.827446,0.0567 -6.099725,0.15154 -10.039836,0.002 -0.890778,-0.0339 -1.980442,-0.15642 -3.292402,-0.031 z"
         sodipodi:nodetypes="cscssscscccsscscssssscsssscccccccscscsccccccccsssscssssscscsscccscssscsc" />
      <path
         id="path1789"
         style="color:#000000;font-style:normal;font-variant:normal;font-weight:normal;font-stretch:normal;font-size:medium;line-height:normal;font-family:sans-serif;font-variant-ligatures:normal;font-variant-position:normal;font-variant-caps:normal;font-variant-numeric:normal;font-variant-alternates:normal;font-variant-east-asian:normal;font-feature-settings:normal;font-variation-settings:normal;text-indent:0;text-align:start;text-decoration:none;text-decoration-line:none;text-decoration-style:solid;text-decoration-color:#000000;letter-spacing:normal;word-spacing:normal;text-transform:none;writing-mode:lr-tb;direction:ltr;text-orientation:mixed;dominant-baseline:auto;baseline-shift:baseline;text-anchor:start;white-space:normal;shape-padding:0;shape-margin:0;inline-size:0;clip-rule:nonzero;display:inline;overflow:visible;visibility:visible;opacity:1;isolation:auto;mix-blend-mode:normal;color-interpolation:sRGB;color-interpolation-filters:linearRGB;solid-color:#000000;solid-opacity:1;vector-effect:none;fill:#000000;fill-opacity:1;fill-rule:nonzero;stroke:none;stroke-width:0.997793;stroke-linecap:butt;stroke-linejoin:miter;stroke-miterlimit:4;stroke-dasharray:none;stroke-dashoffset:0;stroke-opacity:1;color-rendering:auto;image-rendering:auto;shape-rendering:auto;text-rendering:auto;enable-background:accumulate;stop-color:#000000;stop-opacity:1"
         d="m 133.75467,80.748838 c -0.66927,0.169799 -2.94118,0.09949 -3.94754,-1.201944 -0.57775,0.352575 -1.35153,0.965534 -1.87526,1.299565 -1.48247,0.945509 -2.7242,2.511276 -3.62127,3.365728 0.54754,0.698845 2.45905,0.882464 4.78579,1.145834 1.55928,0.176499 2.20044,0.06788 2.97701,0.116056 0.6334,0.0393 1.30334,-0.02211 2.13774,-0.06269 0.81542,-0.03964 1.35689,-0.299497 2.01849,-0.576395 0.6616,-0.276895 1.43495,-0.714237 2.60899,-0.73677 2.19509,-0.04215 2.3866,-1.610995 4.39234,-1.50204 -1.54411,0.404426 -2.03946,1.985531 -4.38198,2.03051 -1.09477,0.02099 -1.76676,0.424968 -2.41434,0.695987 -0.64758,0.271026 -1.28013,0.571602 -2.19721,0.616208 -0.89808,0.04369 -1.69254,0.147966 -2.5635,0.156911 0.0779,0.463283 0.61579,0.839783 1.315,1.700354 0.64798,0.797514 0.3765,1.398427 2.04386,1.936284 0,0 -0.80718,0.271826 -1.506,-0.322714 -0.69882,-0.59454 -1.05053,-1.437101 -1.38768,-1.785333 -0.56411,-0.582643 -0.92503,-0.875752 -1.19423,-1.507766 v -2e-6 c -0.38619,-0.0032 -0.90153,-0.05344 -2.78812,-0.220433 -1.8866,-0.166994 -3.77692,-0.750596 -4.21903,-1.332649 -0.0752,0.07047 -0.16657,0.158799 -0.23632,0.222428 -0.6127,0.558929 -1.3132,1.060499 -1.3132,1.060499 0,0 0.34141,-0.870566 0.99926,-1.447987 0.54731,-0.480397 1.23784,-1.261299 1.71461,-1.625835 -0.53984,0.234881 -1.46116,0.588574 -2.17675,0.803228 -0.92264,0.276756 -1.6477,0.500693 -1.6477,0.500693 0,0 0.63356,-0.645293 1.70782,-0.977278 0,0 -1.58422,-3.081601 -0.51583,-5.946763 l -0.0101,0.0063 c 0,0 -0.78848,-1.251325 -1.81029,-1.407423 -0.72185,-0.117456 -1.6178,-0.52193 -1.90777,-1.315216 0.6654,0.406588 1.2929,0.657861 1.98675,0.792284 1.04628,0.159845 1.62925,0.893874 1.91275,1.302845 0.45493,-1.105875 0.68889,-1.89424 0.79084,-2.432034 0.11568,-0.610159 0.18982,-1.116299 0.60814,-1.912211 0.42716,-0.812734 0.96644,-1.259547 1.48526,-1.732449 0.51883,-0.47291 1.03054,-0.976039 1.51124,-1.959859 1.02859,-2.105091 2.41285,-2.594845 3.66652,-2.708079 -1.08869,0.615179 -2.22786,0.967721 -3.19171,2.940329 -0.5155,1.055046 -1.10022,1.636008 -1.63029,2.119147 -0.53005,0.483139 -0.9937,0.864979 -1.37352,1.587632 -0.38865,0.739471 -0.43618,1.140421 -0.55439,1.763923 -0.11821,0.623513 -0.29963,1.438145 -0.9324,2.87414 -1.07992,2.450777 0.19171,5.411897 0.44773,5.862094 1.07574,-0.394712 2.63813,-1.55084 4.17897,-2.533582 0.52524,-0.334994 1.29813,-0.947196 1.87396,-1.298734 -0.2139,-0.318258 -0.88564,-0.779888 -1.03785,-1.429425 -0.20103,-0.857461 -0.1118,-2.059539 0.94371,-3.333072 0.37593,-0.453584 0.48982,-0.743295 0.73705,-1.114269 -0.54946,-1.527313 -1.77447,-2.263242 -1.77447,-2.263242 0,0 1.36897,0.351493 2.07407,1.810435 0.26944,-0.43679 0.65554,-0.943308 0.91315,-1.379204 0.55023,-0.930992 1.85204,-1.990538 3.1358,-3.668982 -0.49557,1.777529 -2.14021,3.025983 -2.67921,3.937989 -0.53901,0.912013 -0.974,1.778496 -1.99865,3.014816 -0.96337,1.162374 -1.00674,2.151612 -0.83696,2.875786 0.146,0.622745 0.83557,1.074945 0.97218,1.274562 2.22722,-1.353201 4.60536,-2.625831 7.58589,-4.704652 0.67384,-0.469986 3.81254,-1.949937 4.09488,-1.864215 -1.16289,0.998494 -3.04021,1.771232 -3.68372,2.221524 -3.03976,2.127058 -5.46391,3.428118 -7.71226,4.793873 1.2212,1.034343 2.50715,1.132178 3.71234,0.817335 1.20519,-0.314843 2.52221,-0.436801 3.57646,-0.540959 1.05425,-0.104167 3.79256,-0.688657 5.30904,-1.681545 -0.84623,1.369039 -3.40448,1.900011 -4.93466,2.15563 -1.53019,0.255619 -1.80966,0.102747 -3.65508,0.579364 0,0 0.62635,1.312202 2.18613,2.118988 0,0 -1.67774,-0.07449 -2.69447,-1.97353 z"
         sodipodi:nodetypes="ccscssssscssscsczsccccscscsccccccccsssscssssscscsscccscssscscsczsczccc" />
      <path
         id="path1791"
         style="color:#000000;font-style:normal;font-variant:normal;font-weight:normal;font-stretch:normal;font-size:medium;line-height:normal;font-family:sans-serif;font-variant-ligatures:normal;font-variant-position:normal;font-variant-caps:normal;font-variant-numeric:normal;font-variant-alternates:normal;font-variant-east-asian:normal;font-feature-settings:normal;font-variation-settings:normal;text-indent:0;text-align:start;text-decoration:none;text-decoration-line:none;text-decoration-style:solid;text-decoration-color:#000000;letter-spacing:normal;word-spacing:normal;text-transform:none;writing-mode:lr-tb;direction:ltr;text-orientation:mixed;dominant-baseline:auto;baseline-shift:baseline;text-anchor:start;white-space:normal;shape-padding:0;shape-margin:0;inline-size:0;clip-rule:nonzero;display:inline;overflow:visible;visibility:visible;opacity:1;isolation:auto;mix-blend-mode:normal;color-interpolation:sRGB;color-interpolation-filters:linearRGB;solid-color:#000000;solid-opacity:1;vector-effect:none;fill:#000000;fill-opacity:1;fill-rule:nonzero;stroke:none;stroke-width:0.997793;stroke-linecap:butt;stroke-linejoin:miter;stroke-miterlimit:4;stroke-dasharray:none;stroke-dashoffset:0;stroke-opacity:1;color-rendering:auto;image-rendering:auto;shape-rendering:auto;text-rendering:auto;enable-background:accumulate;stop-color:#000000;stop-opacity:1"
         d="m 150.03173,109.86614 c -0.89536,0.32287 -2.27318,0.51984 -3.12473,0.55345 -4.02245,0.15877 -7.35342,0.0632 -10.20751,0.006 1e-4,0.37754 0.0266,1.02084 0.20805,1.49758 0.26725,0.70186 0.8842,1.51258 2.44393,1.97456 1.65895,0.49137 2.56257,0.988 3.58794,1.46709 1.02536,0.47908 3.25864,0.64729 4.74933,1.87947 -2.15402,-0.7248 -3.9634,-0.91757 -5.0101,-1.40663 -0.49007,-0.22898 -1.1389,-0.44893 -1.64031,-0.67231 0.20623,1.60921 -0.84119,2.6417 -0.84119,2.6417 0,0 0.69136,-1.2792 0.30283,-2.86236 -0.44268,-0.17983 -0.71594,-0.36233 -1.32459,-0.5426 -1.70888,-0.50616 -2.49201,-1.47166 -2.80844,-2.3027 -0.20924,-0.54953 -0.23827,-1.25245 -0.23666,-1.68414 -0.73435,-0.0134 -1.44624,-0.0238 -2.12034,-0.0238 -1.90812,0 -3.65763,0.31855 -4.97702,0.55656 0.0931,0.88364 0.53628,3.2738 2.68619,4.59455 1.41691,0.87045 2.05828,1.45971 2.53029,1.92184 0.47199,0.46213 0.74946,0.77513 1.53656,1.1896 0.76921,0.40504 1.41625,0.47713 2.18316,0.59944 0.76691,0.12231 1.64092,0.2977 2.72825,0.91002 2.03298,1.14484 3.28097,0.82951 4.63605,0.76275 -1.21311,0.57867 -2.76544,0.91012 -4.93495,-0.31161 -1.01392,-0.57098 -1.77571,-0.72001 -2.52637,-0.83974 -0.75065,-0.11972 -1.5048,-0.20645 -2.3699,-0.66198 -0.84719,-0.4461 -1.21039,-0.83296 -1.67227,-1.28519 -0.40711,-0.3986 -1.08123,-0.93747 -2.14279,-1.62522 -0.0207,0.49726 -0.12578,1.42961 -0.98979,2.127 -0.55639,0.48644 -0.98389,1.03572 -1.35544,1.73633 -0.1976,-0.82476 0.38612,-1.64756 0.97803,-2.13476 0.84379,-0.68107 0.83501,-2.16007 0.83501,-2.16007 h 0.0129 c -2.23765,-1.55498 -2.61628,-3.99888 -2.68114,-4.72736 -0.10991,0.019 -0.24506,0.0443 -0.346,0.0605 -0.88676,0.14177 -1.48442,0.003 -1.48442,0.003 0,0 0.48444,-0.36508 1.42329,-0.49817 0.78109,-0.11072 1.86859,-0.39779 2.51752,-0.44876 -0.63097,-0.0923 -1.68034,-0.28947 -2.46032,-0.4933 -1.00566,-0.26279 -1.48161,-0.72347 -1.48161,-0.72347 0,0 0.63811,0.0562 1.81472,0.35399 0,0 0.0485,-3.11617 2.69796,-4.95732 h -0.0129 c 0,0 0.009,-1.47901 -0.83501,-2.16008 -0.59191,-0.4872 -1.17563,-1.30999 -0.97803,-2.13475 0.37155,0.70061 0.79905,1.24989 1.35544,1.73633 0.86401,0.69739 0.96906,1.62974 0.98979,2.127 1.06156,-0.68775 1.73568,-1.22662 2.14279,-1.62522 0.46188,-0.45224 0.82508,-0.8391 1.67227,-1.2852 0.8651,-0.45553 1.61925,-0.54225 2.3699,-0.66197 0.75066,-0.11973 1.51245,-0.26876 2.52637,-0.839746 2.16951,-1.221729 3.72184,-0.890278 4.93495,-0.311608 -1.35508,-0.06676 -2.60307,-0.382095 -4.63605,0.762744 -1.08733,0.61232 -1.96134,0.78771 -2.72825,0.91002 -0.76691,0.12231 -1.41395,0.19492 -2.18316,0.59996 -0.7871,0.41447 -1.06457,0.72696 -1.53656,1.18908 -0.47201,0.46213 -1.11338,1.0514 -2.53029,1.92185 -2.41822,1.48557 -2.68236,4.33209 -2.71086,4.84931 1.21457,0.24568 3.01843,0.44494 5.00169,0.44494 0.67604,0 1.38667,0.0105 2.11866,0.0238 -0.01,-0.38335 -0.001,-1.24483 0.23834,-1.87431 0.31643,-0.83104 1.09955,-1.79654 2.80844,-2.3027 0.60865,-0.18027 0.88191,-0.36329 1.32459,-0.54312 0.38853,-1.58316 -0.30283,-2.86236 -0.30283,-2.86236 0,0 1.04742,1.03249 0.84119,2.6417 0.50141,-0.22338 1.15024,-0.44281 1.64031,-0.67179 1.0467,-0.48906 2.85608,-0.68235 5.0101,-1.40715 -1.49069,1.23218 -3.72397,1.40039 -4.74933,1.87947 -1.02537,0.47909 -1.92899,0.97573 -3.58794,1.4671 -1.55973,0.46198 -2.17668,1.27269 -2.44393,1.97455 -0.22982,0.60356 -0.21655,1.46667 -0.20805,1.70842 2.82745,0.0567 6.09972,0.15154 10.03984,0.002 0.89077,-0.0339 1.98044,-0.15642 3.2924,-0.031 z"
         sodipodi:nodetypes="cscssscscccsscscssssscsssscccccccscscsccccccccsssscssssscscsscccscssscsc" />
      <path
         id="path1793"
         style="color:#000000;font-style:normal;font-variant:normal;font-weight:normal;font-stretch:normal;font-size:medium;line-height:normal;font-family:sans-serif;font-variant-ligatures:normal;font-variant-position:normal;font-variant-caps:normal;font-variant-numeric:normal;font-variant-alternates:normal;font-variant-east-asian:normal;font-feature-settings:normal;font-variation-settings:normal;text-indent:0;text-align:start;text-decoration:none;text-decoration-line:none;text-decoration-style:solid;text-decoration-color:#000000;letter-spacing:normal;word-spacing:normal;text-transform:none;writing-mode:lr-tb;direction:ltr;text-orientation:mixed;dominant-baseline:auto;baseline-shift:baseline;text-anchor:start;white-space:normal;shape-padding:0;shape-margin:0;inline-size:0;clip-rule:nonzero;display:inline;overflow:visible;visibility:visible;opacity:1;isolation:auto;mix-blend-mode:normal;color-interpolation:sRGB;color-interpolation-filters:linearRGB;solid-color:#000000;solid-opacity:1;vector-effect:none;fill:#000000;fill-opacity:1;fill-rule:nonzero;stroke:none;stroke-width:3.77119;stroke-linecap:butt;stroke-linejoin:miter;stroke-miterlimit:4;stroke-dasharray:none;stroke-dashoffset:0;stroke-opacity:1;color-rendering:auto;image-rendering:auto;shape-rendering:auto;text-rendering:auto;enable-background:accumulate;stop-color:#000000;stop-opacity:1"
         d="m 356.56055,354.25586 c 0,0 -1.53397,1.81224 -1.23438,4.17969 0.39778,3.14336 1.633,7.48877 5.22852,10.6914 0.95721,0.85262 2.5131,1.48041 4.16211,1.45117 -0.77288,-0.7862 -1.64915,-1.3815 -2.30664,-1.87304 -4.31652,-3.22704 -5.43943,-8.1905 -5.69336,-11.30469 -0.13951,-1.71072 -0.15625,-3.14453 -0.15625,-3.14453 z m 35.55664,0 c 0,0 -0.0168,1.43381 -0.15625,3.14453 -0.25395,3.11419 -1.37684,8.07765 -5.69336,11.30469 -0.65749,0.49154 -1.53377,1.08683 -2.30664,1.87304 1.64901,0.0292 3.20487,-0.59855 4.16211,-1.45117 3.5955,-3.20263 4.83072,-7.54804 5.22851,-10.6914 0.29957,-2.36745 -1.23437,-4.17969 -1.23437,-4.17969 z m -22.56446,13.36133 -1.99414,0.11133 c 0.5459,2.66804 -0.66992,5.33203 -0.66992,5.33203 0,0 2.82044,-0.7725 2.66406,-5.44336 z m 9.57227,0 c -0.1564,4.67086 2.66406,5.44336 2.66406,5.44336 0,0 -1.2158,-2.66399 -0.66992,-5.33203 z m -22.32227,0.54687 -1.70507,1.04883 c 0,0 2.91018,4.77656 8.84765,4.90039 -4.63331,-1.90901 -7.14258,-5.94922 -7.14258,-5.94922 z m 35.07227,0 c 0,0 -2.50926,4.04021 -7.14258,5.94922 5.93749,-0.12383 8.84766,-4.90039 8.84766,-4.90039 z m -17.53711,4.41211 c -1.91938,3.1845 -2.47936,4.83137 -3.9043,5.98828 -1.42494,1.15691 -3.60156,1.40039 -3.60156,1.40039 0,0 1.37675,0.65169 3.00781,-0.0859 1.63109,-0.73788 3.48202,-2.39658 4.49805,-5.82422 1.01603,3.42776 2.86892,5.08634 4.5,5.82422 1.63106,0.73753 3.00781,0.0859 3.00781,0.0859 0,0 -2.17635,-0.24353 -3.60156,-1.40039 -1.42521,-1.15686 -1.98687,-2.80378 -3.90625,-5.98828 z m -13.48828,2.55078 c 0.21865,2.92447 3.7328,2.15923 5.0625,1.49024 -1.67263,-0.44251 -3.63524,-0.9676 -5.0625,-1.49024 z m 26.97851,0 c -1.42725,0.52264 -3.38987,1.04773 -5.0625,1.49024 1.32972,0.66899 4.84368,1.43422 5.0625,-1.49024 z m 2.91602,6.94336 c -4.45605,2.87488 -3.88086,7.76367 -3.88086,7.76367 0,0 1.14972,-4.60131 3.88086,-7.76367 z m -34.7832,0.16407 c 0.47509,0.87856 1.25942,2.21051 1.64062,3.1289 0.76242,1.83674 1.54298,4.85691 1.54297,9.54492 -10e-6,7.60785 0.20518,15.54378 -2.00976,23.69532 -0.38825,1.42881 -0.84942,2.86368 -0.93555,4.48242 1.10086,-1.4857 1.6209,-3.13859 2.04687,-4.78125 2.10579,-8.1202 1.90235,-15.97739 1.90235,-23.39649 0,-4.79913 -0.79842,-7.95527 -1.61719,-9.92773 -0.40938,-0.98627 -1.84261,-2.5859 -2.57031,-2.74609 z m 36.75586,0 c -0.72771,0.16016 -2.16092,1.75982 -2.57032,2.74609 -0.81875,1.97246 -1.61718,5.1286 -1.61718,9.92773 0,7.4191 -0.20342,15.27629 1.90234,23.39649 0.42599,1.64266 0.94601,3.29555 2.04688,4.78125 -0.0861,-1.61874 -0.54732,-3.05361 -0.93555,-4.48242 -2.21499,-8.15154 -2.00977,-16.08747 -2.00977,-23.69532 0,-4.68801 0.78053,-7.70818 1.54297,-9.54492 0.38117,-0.91839 1.16554,-2.25036 1.64063,-3.1289 z m 6.33008,50.35546 c 0,0 -1.78123,0.332 -3.62696,2.07032 -1.98931,1.87366 -4.31632,4.86301 -5.39844,9.1914 -1.50134,6.00537 -1.47616,13.75401 -1.0332,19.36914 0.16706,2.11771 0.39403,3.93045 1.11524,5.14844 0.27099,-1.36966 0.0473,-3.20233 -0.11524,-5.35156 -0.41835,-5.53508 -0.43147,-13.16674 1.00781,-18.92383 0.96008,-3.84023 2.93495,-6.55665 4.71485,-8.33594 1.8901,-1.88946 2.74795,-2.51804 3.33594,-3.16797 z m -54.34961,0.26954 c 0,0 0.82709,0.85497 2.22656,1.86914 2.48437,1.8003 6.19073,5.56775 7.63476,12.60742 2.27616,11.09624 0.56272,22.82842 -1.71093,29.93359 -2.2104,6.90754 -11.02084,12.95911 -17.33399,16.97656 -5.26987,3.35355 -12.04832,8.83009 -20.3789,14.02149 -1.7525,1.09211 -3.57439,2.17225 -5.22461,3.65234 2.39455,-0.71716 4.16372,-1.81354 6.00976,-2.96875 8.28131,-5.18225 15.00494,-10.60009 20.13281,-13.86328 6.33631,-4.03219 15.3567,-10.04871 17.7461,-17.51562 2.32615,-7.26921 4.05802,-19.10778 1.73437,-30.43555 -1.42011,-6.92304 -5.03286,-10.87132 -7.6582,-12.90625 -1.70491,-1.32151 -3.17773,-1.3711 -3.17773,-1.37109 z m 59.2832,0 c 0,0 -1.47283,0.0496 -3.17774,1.37109 -2.62533,2.03493 -6.23808,5.98321 -7.6582,12.90625 -2.32365,11.32777 -0.59177,23.16634 1.73438,30.43555 2.38941,7.46691 11.40975,13.48343 17.74609,17.51562 5.12787,3.26321 11.85153,8.68102 20.13281,13.86328 1.84604,1.15518 3.61525,2.25159 6.00977,2.96875 -1.65022,-1.4801 -3.47212,-2.56025 -5.22461,-3.65234 -8.33057,-5.19141 -15.10904,-10.66795 -20.37891,-14.02149 -6.31313,-4.01745 -15.1236,-10.06902 -17.33398,-16.97656 -2.27365,-7.10517 -3.98708,-18.83735 -1.71094,-29.93359 1.44404,-7.03967 5.15041,-10.80712 7.63477,-12.60742 1.39948,-1.01417 2.22656,-1.86915 2.22656,-1.86914 z m -7.62891,38.14257 c 0,0 -0.26539,2.8966 1.89453,6.88672 1.68885,3.12004 4.55785,6.96045 9.4043,10.77539 1.35148,1.06383 2.85672,2.12483 4.79883,2.74414 -0.87114,-1.13234 -1.92825,-1.84672 -2.9082,-2.56445 -5.52685,-4.04776 -8.65067,-8.17053 -10.41797,-11.43555 -2.08067,-3.84393 -2.77149,-6.40625 -2.77149,-6.40625 z"
         transform="scale(0.26458333)" />
    </g>
  </g>
</svg>
