<?xml version="1.0" encoding="UTF-8" standalone="no"?>
<svg
   xmlns:dc="http://purl.org/dc/elements/1.1/"
   xmlns:cc="http://creativecommons.org/ns#"
   xmlns:rdf="http://www.w3.org/1999/02/22-rdf-syntax-ns#"
   xmlns:svg="http://www.w3.org/2000/svg"
   xmlns="http://www.w3.org/2000/svg"
   width="500"
   height="563"
   viewBox="0 0 132.29166 148.96042"
   version="1.1"
   id="svg847">
  <defs
     id="defs841" />
  <metadata
     id="metadata844">
    <rdf:RDF>
      <cc:Work
         rdf:about="">
        <dc:format>image/svg+xml</dc:format>
        <dc:type
           rdf:resource="http://purl.org/dc/dcmitype/StillImage" />
        <dc:title></dc:title>
      </cc:Work>
    </rdf:RDF>
  </metadata>
  <path
     id="path4316"
     style="fill:#005fcc;fill-opacity:1;fill-rule:evenodd;stroke:none;stroke-width:0.132292;stroke-linecap:round;stroke-linejoin:miter"
     d="M 1.516704,56.325729 C 0.844171,31.316023 0,0 0,0 h 132.29166 l -1.5167,56.325729 -13.89986,2.668024 H 15.416581 Z" />
  <path
     id="path4290"
     style="fill:#012d65;fill-opacity:1;fill-rule:evenodd;stroke:none;stroke-width:0.132292;stroke-linecap:round;stroke-linejoin:miter"
     d="m 21.981502,37.443753 c 4.709777,0.979379 3.32372,18.885955 3.32372,18.885955 l 5.332073,2.462219 -0.12577,-1.820938 c -0.494756,-2.208518 0.254936,-4.093971 -0.428018,-6.040464 -0.82204,-2.342877 -3.979727,-3.943172 -3.339628,-6.923841 0.640102,-2.980668 -0.600844,-6.429902 -4.762377,-6.562931 z m 28.988359,0 c 4.709778,0.979379 3.323721,18.885955 3.323721,18.885955 l 5.332073,2.462219 -0.125771,-1.820938 c -0.494755,-2.208518 0.254936,-4.093971 -0.428017,-6.040464 -0.82204,-2.342877 -3.97973,-3.943172 -3.339631,-6.923841 0.640105,-2.980668 -0.600844,-6.429902 -4.762375,-6.562931 z m 28.987864,0 c 4.70977,0.979379 3.32372,18.885955 3.32372,18.885955 l 5.33207,2.462219 -0.12577,-1.820938 c -0.49476,-2.208518 0.25494,-4.093971 -0.42802,-6.040464 -0.82204,-2.342877 -3.97973,-3.943172 -3.33963,-6.923841 0.64011,-2.980668 -0.60084,-6.429902 -4.76237,-6.562931 z m 28.988355,0 c 4.70977,0.979376 3.32372,18.885955 3.32372,18.885955 l 5.33207,2.462219 -0.12577,-1.820938 c -0.49476,-2.208518 0.25494,-4.093971 -0.42802,-6.040464 -0.82204,-2.342877 -3.97973,-3.943172 -3.33963,-6.923841 0.6401,-2.980668 -0.60084,-6.429902 -4.76237,-6.562931 z M 8.169613,38.125299 14.837935,59.012149 16.326303,57.523285 9.28415,38.51106 Z m 28.987864,0 6.668322,20.886354 1.488864,-1.488865 -7.042652,-19.011728 z m 28.988359,0 6.66832,20.886354 1.488869,-1.488865 L 67.26037,38.51106 Z m 28.987859,0 6.668315,20.886354 1.48887,-1.488865 -7.042645,-19.011728 z m 28.988355,0 6.58729,20.632822 c 0.0617,-2.294141 0.0774,-2.881215 0.13721,-5.102403 L 125.23659,38.51106 Z" />
  <path
     id="path880"
     style="fill:#bf9f4f;fill-opacity:1;fill-rule:evenodd;stroke:none;stroke-width:0.132292;stroke-linecap:round;stroke-linejoin:miter"
     d="m 21.981998,37.443753 c 2.482993,2.951365 -0.128496,4.744059 -0.838139,6.398387 -0.709642,1.654328 0.219593,3.099454 -0.356432,4.397989 -0.576023,1.298536 -2.402796,2.293841 -3.350565,4.208589 -0.94777,1.914752 -0.839539,4.197984 -2.020282,5.502584 L 8.169613,38.125299 1.516703,56.32573 2.290714,85.105302 c 1.028136,38.233588 29.607038,63.855118 63.855122,63.855118 34.248074,0 62.826984,-25.62153 63.855114,-63.855118 0.34735,-12.917078 0.43087,-16.019034 0.77401,-28.779572 l -6.65291,-18.200431 -7.24696,19.826003 c -1.38223,-3.119236 -0.0231,-4.677901 -0.8451,-7.020777 -0.82204,-2.342877 -3.97924,-3.943172 -3.33913,-6.923841 0.6401,-2.980668 0.0759,-6.293551 -3.74478,-6.562931 2.48299,2.951365 -0.1285,4.744059 -0.83814,6.398387 -0.70964,1.654328 0.22009,3.099454 -0.35594,4.397989 -0.57602,1.298536 -2.40279,2.293841 -3.35056,4.208589 -0.94777,1.914752 -0.83954,4.197984 -2.02028,5.502584 l -7.246965,-19.826003 -7.24746,19.826003 c -1.38223,-3.119236 -0.0226,-4.677901 -0.8446,-7.020777 -0.82204,-2.342877 -3.97974,-3.943172 -3.33963,-6.923841 0.6401,-2.980668 0.0764,-6.293551 -3.74429,-6.562931 2.483,2.951365 -0.12849,4.744059 -0.83813,6.398387 -0.70965,1.654328 0.21959,3.099454 -0.35644,4.397989 -0.57602,1.298536 -2.40279,2.293841 -3.35056,4.208589 -0.94777,1.914752 -0.83954,4.197984 -2.020285,5.502584 L 66.145836,38.125299 58.89887,57.951302 c -1.382229,-3.119236 -0.02306,-4.677901 -0.845098,-7.020777 -0.82204,-2.342877 -3.979729,-3.943172 -3.33963,-6.923841 0.640101,-2.980668 0.07637,-6.293551 -3.744281,-6.562931 2.482994,2.951365 -0.128496,4.744059 -0.838138,6.398387 -0.709643,1.654328 0.220086,3.099454 -0.355937,4.397989 -0.576022,1.298536 -2.403291,2.293841 -3.351064,4.208589 -0.947769,1.914752 -0.839039,4.197984 -2.019782,5.502584 L 37.157477,38.125299 29.91051,57.951302 c -1.382229,-3.119236 -0.02306,-4.677901 -0.845097,-7.020777 -0.822041,-2.342877 -3.979234,-3.943172 -3.339132,-6.923841 0.640101,-2.980668 0.07637,-6.293551 -3.744283,-6.562931 z" />
  <path
     style="color:#000000;font-style:normal;font-variant:normal;font-weight:normal;font-stretch:normal;font-size:medium;line-height:normal;font-family:sans-serif;font-variant-ligatures:normal;font-variant-position:normal;font-variant-caps:normal;font-variant-numeric:normal;font-variant-alternates:normal;font-variant-east-asian:normal;font-feature-settings:normal;font-variation-settings:normal;text-indent:0;text-align:start;text-decoration:none;text-decoration-line:none;text-decoration-style:solid;text-decoration-color:#000000;letter-spacing:normal;word-spacing:normal;text-transform:none;writing-mode:lr-tb;direction:ltr;text-orientation:mixed;dominant-baseline:auto;baseline-shift:baseline;text-anchor:start;white-space:normal;shape-padding:0;shape-margin:0;inline-size:0;clip-rule:nonzero;display:inline;overflow:visible;visibility:visible;isolation:auto;mix-blend-mode:normal;color-interpolation:sRGB;color-interpolation-filters:linearRGB;solid-color:#000000;solid-opacity:1;vector-effect:none;fill:#735326;fill-opacity:1;fill-rule:nonzero;stroke:none;stroke-width:0.264582;stroke-linecap:butt;stroke-linejoin:miter;stroke-miterlimit:5;stroke-dasharray:none;stroke-dashoffset:0;stroke-opacity:1;color-rendering:auto;image-rendering:auto;shape-rendering:auto;text-rendering:auto;enable-background:accumulate;stop-color:#000000"
     d="m 57.847468,71.750762 -0.672599,12.52535 1.270631,0.57255 0.614435,-11.949561 c 0.763434,-0.26037 1.327799,-0.71376 1.327799,-1.560512 0,-1.062395 -0.981049,-1.244125 -1.584496,-1.199665 z M 23.061736,71.086613 c 0.137237,1.503728 0.857653,1.936767 1.82044,1.936767 v -1.272618 z m 85.282334,12.891719 c 0.25721,4.50113 -0.0692,6.9752 -0.13671,7.43091 l 1.1518,0.47099 c 0.0783,-0.52893 0.51777,-3.38537 0.25554,-7.97447 -0.29142,-5.09995 -0.76997,-6.98872 -1.72298,-8.52415 -0.26096,-0.420426 -0.82154,-0.832881 -1.77871,-0.63473 0.71982,2.03911 1.944,4.20778 2.23106,9.23145 z m -51.134899,2.37921 0.127758,0.59107 c 1.046599,4.84464 2.855983,8.28802 6.386397,10.38582 -2.39941,-2.81411 -4.265089,-6.1866 -5.019327,-10.17355 0.829307,-0.2093 1.045288,-1.63267 0.131736,-1.98648 -0.744413,0.65279 -1.090827,1.03848 -1.626564,1.18314 z m -30.513514,2.31308 -0.04772,-1.27162 -2.188306,-0.56423 c -0.152358,1.80633 1.307226,2.08472 2.236029,1.83585 z m 81.124453,5.00497 C 104.29028,111.22198 89.701525,121.05764 73.722887,122.66494 l -0.388747,0.0393 c -0.202985,0.63648 -0.462866,1.09492 -1.424251,1.63502 0.879708,0.43499 1.874878,0.21895 2.297176,-0.45536 16.13045,-1.74739 30.949325,-11.7912 34.741485,-29.473538 0.6238,-0.12104 1.59476,-1.02583 0.76905,-2.07794 z m -41.783144,5.58389 1.264665,0.14019 c 0.02502,-0.22533 0.05261,-0.73984 0.07656,-0.97856 0.114563,-1.06343 -0.81217,-1.85242 -1.855239,-1.68726 z m 11.727979,3.038598 1.27411,-0.0214 c -0.0334,-1.17552 -0.80149,-1.5666 -1.98499,-1.48986 z m -19.936864,19.22847 c -4.398755,-1.09569 -8.644902,-2.85129 -12.862148,-4.73728 3.662491,3.04014 8.2114,4.88144 12.733105,6.00775 l 0.610253,1.09779 c 0.837747,0.95934 2.03226,0.27976 2.604399,-0.66465 l 0.42355,-1.28356 -1.264181,-0.27689 z m 13.794487,1.17667 -1.898487,0.16902 -0.01939,0.56174 c 0,0 -0.0654,1.08908 0.557267,2.06602 l 1.073275,-0.68403 c -0.159958,-0.25097 -0.230766,-0.53687 -0.279876,-0.78445 l 0.680054,-0.0607 z m 9.042747,2.02626 -34.997933,7.49686 0.942766,0.63645 h 38.082107 l -3.07913,-7.5 z"
     id="path5334" />
  <path
     id="path4716"
     style="font-variation-settings:normal;vector-effect:none;fill:#cccccc;fill-opacity:1;stroke:none;stroke-width:0.132292;stroke-linecap:butt;stroke-linejoin:miter;stroke-miterlimit:5;stroke-dasharray:none;stroke-dashoffset:0;stroke-opacity:1;stop-color:#000000"
     d="m 24.844775,71.949774 33.605694,0.437289 -0.648096,12.070639 -31.768016,1.42225 z" />
  <path
     id="path4721"
     style="font-variation-settings:normal;vector-effect:none;fill:#ffffff;fill-opacity:1;stroke:none;stroke-width:0.132292;stroke-linecap:butt;stroke-linejoin:miter;stroke-miterlimit:5;stroke-dasharray:none;stroke-dashoffset:0;stroke-opacity:1;stop-color:#000000"
     d="m 26.436659,73.338552 c 0.214917,-0.0038 0.438585,0.03258 0.648738,0.11185 -0.461401,0.49341 -1.313139,0.419249 -1.551004,0.227679 0.209885,-0.215416 0.544072,-0.332794 0.902266,-0.339529 z m 0.02784,1.641479 c 0.214914,-0.0038 0.438585,0.03258 0.648737,0.111851 -0.4614,0.49341 -1.313138,0.41875 -1.551003,0.22718 0.209882,-0.215414 0.544069,-0.332299 0.902266,-0.339031 z m -0.004,1.884571 c 0.214011,-0.004 0.436984,0.0326 0.646254,0.11185 -0.459459,0.4934 -1.307677,0.41924 -1.544542,0.22768 0.209002,-0.21543 0.541604,-0.3328 0.898288,-0.33953 z m 0.364885,2.31457 c 0.20675,-0.004 0.421713,0.0326 0.623881,0.11185 -0.443871,0.49341 -1.263517,0.41923 -1.492343,0.22768 0.201908,-0.21543 0.523878,-0.33279 0.868462,-0.33953 z m 0.214258,2.02923 c 0.204049,-0.004 0.416399,0.0326 0.615927,0.11185 -0.438071,0.49341 -1.24712,0.41923 -1.472956,0.22768 0.199271,-0.21541 0.516945,-0.33279 0.857029,-0.33953 z m 0.385762,2.06005 c 0.204051,-0.004 0.415901,0.0326 0.61543,0.11185 -0.438071,0.49341 -1.247118,0.41925 -1.472956,0.22769 0.199271,-0.21542 0.517444,-0.3328 0.857526,-0.33954 z m -0.790912,2.30265 c 0.370706,-0.37072 0.698265,-0.47283 0.962914,-0.45586 0.441079,0.0283 0.707397,0.38775 0.707397,0.38775 l 0.241599,-0.0462 c 0.117351,-0.22107 0.353254,-0.34619 1.12554,-0.48536 0.772283,-0.13917 3.541399,-0.38114 5.377739,-0.47556 -1.019179,-1.36087 -3.894851,-0.89596 -6.721512,-1.13989 0.217806,-0.18423 0.547337,-0.29778 0.931714,-0.37256 1.643859,-0.3198 4.324912,-0.41747 6.191966,-0.394 -1.35782,-1.3753 -4.73479,-1.05356 -7.509444,-1.293 0.174781,-0.18133 0.494562,-0.29924 0.869122,-0.38216 1.635521,-0.36208 4.383712,-0.57064 6.273449,-0.42764 -1.336476,-1.59797 -4.573636,-0.98395 -7.344401,-1.21993 0.179867,-0.20506 0.387001,-0.34202 0.708164,-0.40853 1.632523,-0.33809 4.552133,-0.41316 6.518917,-0.32869 -1.434949,-1.86236 -4.727829,-1.34386 -7.559652,-1.57685 0.18593,-0.2728 0.431968,-0.33742 0.7573,-0.39787 1.641774,-0.30503 4.502954,-0.29906 6.53192,-0.32146 -1.043361,-1.332467 -4.577962,-0.94426 -7.281266,-1.165738 0.252948,-0.135796 0.478212,-0.379304 0.824978,-0.452503 1.685056,-0.355689 4.663426,-0.475829 6.428451,-0.227554 -1.043361,-1.332465 -4.577962,-0.73945 -7.281266,-0.960926 0.172834,-0.166197 0.438435,-0.332821 0.747332,-0.39455 1.605454,-0.320835 4.414536,-0.366056 6.199373,-0.114994 0,0 -1.341974,-0.570563 -3.66872,-0.628355 l -6.303437,0.09843 c 0.07326,3.89222 0.548539,9.76653 1.33078,13.11791 z" />
  <path
     id="path958"
     style="fill:#012d65;fill-opacity:1;fill-rule:evenodd;stroke:none;stroke-width:0.132292;stroke-linecap:round;stroke-linejoin:miter"
     d="m 66.145836,2.751973 0.252783,15.994727 -14.298316,8.332667 1.054881,0.751143 10.415588,-1.821435 2.575064,9.179259 1.054882,0.242096 3.45496,-8.967486 9.353247,1.431197 c 1.6552,0.253266 1.42391,-0.538877 0.9992,-1.07576 l -6.2746,-7.931991 6.2234,-7.204711 -0.76556,-0.820739 -9.360702,2.064027 -3.629945,-9.930896 z" />
  <path
     id="path882"
     style="fill:#bf9f4f;fill-opacity:1;fill-rule:evenodd;stroke:none;stroke-width:0.132292;stroke-linecap:round;stroke-linejoin:miter"
     d="m 66.145833,2.751973 -3.629946,9.930898 -10.415584,-1.821932 6.785639,8.108965 -6.785639,8.109462 10.415584,-1.821931 3.629946,9.930898 3.629946,-9.930401 10.415586,1.821434 -6.785144,-8.108964 6.785144,-8.109463 -10.415586,1.821436 z" />
  <path
     id="path933"
     style="fill:#ffffff;fill-rule:evenodd;stroke:none;stroke-width:0.132292;stroke-linecap:round;stroke-linejoin:miter"
     d="m 21.981998,37.443753 c 2.482996,2.951365 -0.128496,4.744059 -0.838139,6.398387 -0.709642,1.654328 0.219593,3.099457 -0.356432,4.397989 -0.576023,1.298536 -2.402793,2.293841 -3.350565,4.208589 -0.94777,1.914752 -0.839539,4.197984 -2.020282,5.502584 l 0.381289,1.042452 c 1.807441,-1.931295 1.709318,-4.630284 2.657087,-6.545036 0.947773,-1.914748 2.774543,-2.910053 3.350565,-4.208589 0.576026,-1.298532 -0.35321,-2.743661 0.356433,-4.397989 0.692712,-1.614861 3.195038,-3.362037 1.004674,-6.189599 -0.354974,-0.105472 -0.747442,-0.177965 -1.18463,-0.208788 z m 28.987863,0 c 2.482996,2.951365 -0.128496,4.744059 -0.838138,6.398387 -0.709643,1.654328 0.219592,3.099457 -0.356433,4.397989 -0.576023,1.298536 -2.402793,2.293841 -3.350568,4.208589 -0.947769,1.914752 -0.839538,4.197984 -2.020281,5.502584 l 0.381289,1.042452 c 1.807444,-1.931295 1.709317,-4.630284 2.657087,-6.545036 0.947775,-1.914748 2.774545,-2.910053 3.350568,-4.208589 0.576025,-1.298532 -0.35321,-2.743661 0.356432,-4.397989 0.692712,-1.614861 3.195036,-3.362037 1.004672,-6.189599 -0.354974,-0.105472 -0.747442,-0.177965 -1.184628,-0.208788 z m 28.988354,0 c 2.48301,2.951365 -0.12849,4.744059 -0.83813,6.398387 -0.70965,1.654328 0.21959,3.099454 -0.35644,4.397989 -0.57602,1.298536 -2.40279,2.293841 -3.35056,4.208589 -0.94777,1.914752 -0.83954,4.197984 -2.020285,5.502584 l 0.38129,1.042452 c 1.807445,-1.931295 1.709315,-4.630284 2.657085,-6.545036 0.94777,-1.914748 2.77454,-2.910053 3.35057,-4.208589 0.57602,-1.298535 -0.35321,-2.743661 0.35643,-4.397989 0.69271,-1.614861 3.19504,-3.362037 1.00467,-6.189599 -0.35497,-0.105472 -0.74743,-0.177965 -1.18463,-0.208788 z m 28.987865,0 c 2.48301,2.951365 -0.1285,4.744059 -0.83814,6.398387 -0.70964,1.654328 0.21959,3.099457 -0.35643,4.397989 -0.57603,1.298536 -2.4028,2.293841 -3.35057,4.208589 -0.94776,1.914752 -0.83954,4.197984 -2.02028,5.502584 l 0.38129,1.042452 c 1.80745,-1.931295 1.70931,-4.630284 2.65709,-6.545036 0.94777,-1.914748 2.77455,-2.910053 3.35057,-4.208589 0.57601,-1.298532 -0.3532,-2.743661 0.35642,-4.397989 0.69271,-1.614861 3.19504,-3.362037 1.00468,-6.189599 -0.35497,-0.105472 -0.74744,-0.177965 -1.18463,-0.208788 z M 8.169613,38.125299 1.516703,56.32573 l 0.06413,2.387155 0.0686,0.07904 7.029726,-19.272714 z m 28.987864,0 -7.246967,19.826003 0.726785,0.840625 7.029725,-19.272714 z m 28.988359,0 -7.246966,19.826003 0.726785,0.840625 7.029725,-19.272714 z m 28.987859,0 -7.24696,19.826003 0.72678,0.840625 7.02973,-19.272714 z m 28.988365,0 -7.24696,19.826003 0.72677,0.840625 7.02973,-19.272714 z" />
  <path
     id="path955"
     style="fill:#ffffff;fill-rule:evenodd;stroke:none;stroke-width:0.132292;stroke-linecap:round;stroke-linejoin:miter"
     d="m 66.145836,2.751973 -3.629945,9.930898 -10.415588,-1.821931 6.785642,8.108964 -6.785642,8.109463 1.47246,-0.257506 6.367567,-7.609859 -6.000197,-7.170907 9.417376,1.647443 3.392821,-9.282658 z m 14.045529,8.108967 -10.415585,1.821435 0.396204,1.083713 8.889441,-1.554483 z m -16.710185,14.274941 -0.965292,0.121555 3.629948,9.930898 0.47695,-1.304762 z" />
  <path
     id="path4571"
     style="fill:#cccccc;fill-opacity:1;fill-rule:evenodd;stroke:none;stroke-width:0.132292;stroke-linecap:round;stroke-linejoin:miter;stroke-miterlimit:4;stroke-dasharray:none"
     d="m 24.36269,69.786157 c -0.718349,0 -1.300954,0.582106 -1.300954,1.300456 0,0.71835 0.582605,1.300458 1.300954,1.300458 h 34.08778 c 0.71835,0 1.300955,-0.582108 1.300955,-1.300458 0,-0.71835 -0.582605,-1.300456 -1.300955,-1.300456 z" />
  <path
     id="path4632"
     style="fill:#999999;fill-opacity:1;fill-rule:evenodd;stroke:none;stroke-width:0.132292;stroke-linecap:round;stroke-linejoin:miter;stroke-miterlimit:4;stroke-dasharray:none"
     d="m 43.655806,71.639966 c 3.802237,0.0137 14.176625,0.0316 14.897025,0.03349 0.720399,0.0019 0.943296,-0.388335 0.553097,-0.825498 -0.272703,0.517305 -0.596166,0.497985 -1.069262,0.501929 -0.276784,0.0023 -8.27058,-0.07027 -14.517553,0.01055 -2.935417,0.03798 -5.368458,0.01482 -6.745402,0.06389 -0.701438,0.025 -1.204539,0.144463 -1.204539,0.144463 0,0 4.284398,0.05752 8.086634,0.07118 z" />
  <path
     id="path4646"
     style="font-variation-settings:normal;vector-effect:none;fill:#999999;fill-opacity:1;stroke:none;stroke-width:0.132292;stroke-linecap:butt;stroke-linejoin:miter;stroke-miterlimit:5;stroke-dasharray:none;stroke-dashoffset:0;stroke-opacity:1;stop-color:#000000"
     d="m 45.670597,72.146964 -9.15987,0.221216 c 3.170642,0.153028 6.924437,0.420573 9.244878,1.118016 l 0.02983,0.472261 c -2.364586,-0.313927 -6.741353,-0.511412 -8.166136,-0.09595 3.003502,0.232253 6.020198,0.381332 8.223304,0.994233 l 0.05468,0.861002 c -2.728323,-0.40234 -6.808865,-0.31153 -8.286935,0.1213 3.146292,0.24432 5.626641,0.40871 8.379399,1.33973 l 0.03977,0.62835 c -2.634969,-0.42017 -6.656945,-0.33343 -8.103001,0.10489 3.078454,0.24745 5.496569,0.41255 8.196956,1.37552 l 0.03281,0.51551 c -2.596836,-0.44204 -6.663824,-0.35941 -8.112446,0.0855 3.082773,0.25108 5.495223,0.41923 8.207893,1.42026 l 0.05568,0.88238 c -2.587267,-0.47154 -6.786806,-0.3939 -8.26357,0.0596 3.140558,0.25579 5.58565,0.42541 8.361004,1.47744 l 0.0348,0.54782 c -2.542522,-0.15136 -7.189811,0.17739 -8.657784,0.82621 l 19.395502,-0.63333 c 0,-2.62477 0.374824,-11.215019 0.61344,-11.624071 0.238616,-0.409035 0.659674,-0.457845 0.659674,-0.457845 z m -9.108169,1.623583 c -0.397973,0.0066 -0.769493,0.130036 -1.002686,0.355934 0.26428,0.200872 1.210866,0.278785 1.723505,-0.238616 -0.23349,-0.08313 -0.482037,-0.121291 -0.720819,-0.117318 z m -0.0045,1.976535 c -0.396296,0.007 -0.765999,0.13004 -0.998212,0.35594 0.263168,0.20087 1.20557,0.27878 1.716047,-0.23862 -0.232507,-0.0831 -0.480059,-0.12129 -0.717835,-0.11732 z m 0.351958,2.07298 c -0.38285,0.007 -0.74057,0.13003 -0.964902,0.35593 0.254238,0.20087 1.164721,0.27879 1.657883,-0.23861 -0.22462,-0.0831 -0.463271,-0.1213 -0.692981,-0.11732 z m 0.130741,1.97653 c -0.377848,0.007 -0.731074,0.13004 -0.952474,0.35594 0.250917,0.20087 1.149788,0.27878 1.636506,-0.23862 -0.221685,-0.0831 -0.45732,-0.12129 -0.684032,-0.11732 z m 0,2.3623 c -0.377848,0.007 -0.731074,0.13004 -0.952474,0.35593 0.250917,0.20088 1.149788,0.27879 1.636506,-0.23861 -0.221685,-0.0831 -0.45732,-0.12129 -0.684032,-0.11732 z m -0.262478,2.67498 c -0.369769,-0.0261 -0.71558,0.0936 -0.938057,0.32909 0.271401,0.1896 1.119963,0.42066 1.608172,-0.11781 -0.217727,-0.12749 -0.448252,-0.19561 -0.670115,-0.21128 z" />
  <path
     id="path4634"
     style="font-variation-settings:normal;vector-effect:none;fill:#616161;fill-opacity:1;stroke:none;stroke-width:0.132292;stroke-linecap:butt;stroke-linejoin:miter;stroke-miterlimit:5;stroke-dasharray:none;stroke-dashoffset:0;stroke-opacity:1;stop-color:#000000"
     d="m 59.594832,71.693097 c -0.233261,0.127748 -0.653625,0.265458 -1.406343,0.265458 -1.397607,0 -28.822392,0.08251 -30.290449,0.08251 -1.468057,0 -2.489346,0.02438 -3.53535,0.346007 h 34.08778 c 0.498037,0 0.925741,-0.282954 1.144362,-0.693975 z" />
  <path
     id="path4639"
     style="font-variation-settings:normal;vector-effect:none;fill:#ffffff;fill-opacity:1;stroke:none;stroke-width:0.132292;stroke-linecap:butt;stroke-linejoin:miter;stroke-miterlimit:5;stroke-dasharray:none;stroke-dashoffset:0;stroke-opacity:1;stop-color:#000000"
     d="m 24.36269,69.786157 c -0.718349,0 -1.300954,0.582106 -1.300954,1.300456 0,0.71835 0.582605,1.300458 1.300954,1.300458 0.546045,-0.264817 1.499,-0.525882 2.624277,-0.587593 1.066956,-0.05851 3.215179,-0.02443 5.113058,-0.340736 -2.036587,-0.229453 -5.045719,-0.102006 -6.13591,-0.136069 -1.027239,-0.03209 -1.533818,-0.204741 -1.533818,-0.204741 0.306793,-0.238616 0.797802,-0.374827 2.693095,-0.374827 1.89529,0 28.781488,-0.295785 30.315446,-0.295785 1.036288,0 1.790956,0.06103 2.192783,0.101413 -0.205101,-0.448919 -0.65533,-0.762576 -1.181151,-0.762576 z" />
  <path
     style="font-variation-settings:normal;vector-effect:none;fill:#616161;fill-opacity:1;stroke:none;stroke-width:0.132292;stroke-linecap:butt;stroke-linejoin:miter;stroke-miterlimit:5;stroke-dasharray:none;stroke-dashoffset:0;stroke-opacity:1;stop-color:#000000"
     d="m 52.768712,72.974572 c 2.420247,0.233463 2.915026,0.366293 3.699048,0.132869 0,0 0.05535,0.773047 -1.785275,0.576928 -1.836347,-0.195667 -3.483042,-0.263823 -4.586757,0.01616 0,0 0.252736,-0.959372 2.672984,-0.725929 z"
     id="path4685" />
  <path
     style="font-variation-settings:normal;vector-effect:none;fill:#616161;fill-opacity:1;stroke:none;stroke-width:0.132292;stroke-linecap:butt;stroke-linejoin:miter;stroke-miterlimit:5;stroke-dasharray:none;stroke-dashoffset:0;stroke-opacity:1;stop-color:#000000"
     d="m 52.672296,74.2855 c 2.420248,0.292961 2.915027,0.459653 3.699048,0.16674 0,0 0.05535,0.970082 -1.785274,0.723972 -1.836348,-0.245532 -3.483043,-0.331061 -4.586757,0.0203 0,0 0.252736,-1.203906 2.672983,-0.910964 z"
     id="path4700" />
  <path
     style="font-variation-settings:normal;vector-effect:none;fill:#616161;fill-opacity:1;stroke:none;stroke-width:0.132292;stroke-linecap:butt;stroke-linejoin:miter;stroke-miterlimit:5;stroke-dasharray:none;stroke-dashoffset:0;stroke-opacity:1;stop-color:#000000"
     d="m 52.531752,75.731722 c 2.173629,0.29297 2.617991,0.45966 3.322123,0.16675 0,0 0.04972,0.97008 -1.603359,0.72397 -1.649228,-0.24553 -3.128128,-0.33107 -4.119376,0.0203 0,0 0.226982,-1.20391 2.400612,-0.91096 z"
     id="path4702" />
  <path
     style="font-variation-settings:normal;vector-effect:none;fill:#616161;fill-opacity:1;stroke:none;stroke-width:0.132292;stroke-linecap:butt;stroke-linejoin:miter;stroke-miterlimit:5;stroke-dasharray:none;stroke-dashoffset:0;stroke-opacity:1;stop-color:#000000"
     d="m 52.576253,77.222432 c 1.96373,0.26902 2.365182,0.42209 3.001318,0.15311 0,0 0.04492,0.89078 -1.448528,0.66479 -1.489969,-0.22546 -2.826057,-0.30399 -3.721584,0.0186 0,0 0.205064,-1.1055 2.168794,-0.8365 z"
     id="path4704" />
  <path
     style="font-variation-settings:normal;vector-effect:none;fill:#616161;fill-opacity:1;stroke:none;stroke-width:0.132292;stroke-linecap:butt;stroke-linejoin:miter;stroke-miterlimit:5;stroke-dasharray:none;stroke-dashoffset:0;stroke-opacity:1;stop-color:#000000"
     d="m 52.39895,78.764032 c 1.89049,0.26238 2.276969,0.41168 2.88938,0.14933 0,0 0.04324,0.86881 -1.394504,0.6484 -1.434398,-0.21991 -2.720655,-0.2965 -3.582783,0.0182 0,0 0.197416,-1.07822 2.087907,-0.81586 z"
     id="path4706" />
  <path
     style="font-variation-settings:normal;vector-effect:none;fill:#616161;fill-opacity:1;stroke:none;stroke-width:0.132292;stroke-linecap:butt;stroke-linejoin:miter;stroke-miterlimit:5;stroke-dasharray:none;stroke-dashoffset:0;stroke-opacity:1;stop-color:#000000"
     d="m 52.351954,80.066432 c 1.76064,0.26736 2.120573,0.41948 2.690919,0.15216 0,0 0.04027,0.88529 -1.29872,0.6607 -1.335875,-0.22407 -2.533783,-0.30213 -3.336694,0.0185 0,0 0.183855,-1.09869 1.944495,-0.83134 z"
     id="path4708" />
  <path
     style="font-variation-settings:normal;vector-effect:none;fill:#616161;fill-opacity:1;stroke:none;stroke-width:0.132292;stroke-linecap:butt;stroke-linejoin:miter;stroke-miterlimit:5;stroke-dasharray:none;stroke-dashoffset:0;stroke-opacity:1;stop-color:#000000"
     d="m 52.253768,81.562432 c 1.761787,0.25624 2.122384,0.40693 2.691544,0.13303 0,0 0.04417,0.89244 -1.29579,0.67611 -1.336839,-0.21584 -2.535071,-0.28545 -3.336558,0.044 0,0 0.179016,-1.10932 1.940804,-0.85307 z"
     id="path4710" />
  <path
     style="font-variation-settings:normal;vector-effect:none;fill:#616161;fill-opacity:1;stroke:none;stroke-width:0.132292;stroke-linecap:butt;stroke-linejoin:miter;stroke-miterlimit:5;stroke-dasharray:none;stroke-dashoffset:0;stroke-opacity:1;stop-color:#000000"
     d="m 52.060937,82.816952 c 1.761788,0.26367 2.122385,0.41873 2.691544,0.13689 0,0 0.04416,0.91832 -1.29579,0.69572 -1.336839,-0.22209 -2.535071,-0.29373 -3.336557,0.0453 0,0 0.179015,-1.14151 1.940803,-0.87783 z"
     id="path4712" />
  <path
     style="font-variation-settings:normal;vector-effect:none;fill:#ea0606;fill-opacity:1;stroke:none;stroke-width:0.132292;stroke-linecap:butt;stroke-linejoin:miter;stroke-miterlimit:5;stroke-dasharray:none;stroke-dashoffset:0;stroke-opacity:1;stop-color:#000000"
     d="M 57.79762,122.17549 C 48.83044,119.96807 40.468802,115.05718 34.467854,107.34001 30.339684,102.03122 27.88374,95.395322 26.559083,87.394212 l 31.376299,-0.68026 c 1.034989,4.89514 3.424117,8.54863 6.584504,11.07447 0.132647,8.859298 -1.915112,17.047708 -6.722266,24.387068 z"
     id="path4787" />
  <path
     id="path5049"
     style="font-variation-settings:normal;vector-effect:none;fill:#a30505;fill-opacity:1;stroke:none;stroke-width:0.132292;stroke-linecap:butt;stroke-linejoin:miter;stroke-miterlimit:5;stroke-dasharray:none;stroke-dashoffset:0;stroke-opacity:1;stop-color:#000000"
     d="m 56.556954,86.459442 -9.423342,0.14467 c 0.02689,0.15206 0.05789,0.30563 0.08849,0.45933 l -19.260286,0.93458 c 3.503756,0.64419 14.893945,-0.57099 19.477029,0.0418 0.05999,0.24386 0.125475,0.48911 0.194868,0.73573 -3.032184,-0.087 -8.461716,0.28559 -11.558954,1.06333 3.604025,-0.2195 8.586046,-0.37361 11.883075,-5.1e-4 0.04384,0.13156 0.09163,0.26373 0.138198,0.39571 -3.047962,0.10754 -8.366272,0.80316 -11.380489,1.75731 3.550539,-0.43308 8.457791,-0.8845 11.770725,-0.7248 0.03948,0.0974 0.08079,0.19486 0.121795,0.2923 -2.929957,0.29558 -8.21094,1.37953 -11.134915,2.56363 3.492653,-0.69181 8.351871,-1.49859 11.591764,-1.54255 0.04491,0.0943 0.09182,0.18865 0.138199,0.28286 -2.972974,0.59662 -7.647022,1.96364 -10.279873,3.26606 3.196764,-0.88524 7.56889,-1.95887 10.762076,-2.33248 0.05894,0.10769 0.121998,0.21471 0.182939,0.32214 -2.866614,1.02697 -6.978757,2.8721 -9.292103,4.42781 2.870043,-1.2229 6.748482,-2.74737 9.792201,-3.58421 0.09777,0.15717 0.199,0.31355 0.301254,0.46978 -2.802092,1.1917 -6.797437,3.27081 -9.015707,4.957248 2.79498,-1.387548 6.579078,-3.134688 9.569495,-4.146448 0.140207,0.1963 0.28429,0.39148 0.431995,0.5856 -2.664013,1.46493 -6.328207,3.854568 -8.33267,5.706898 2.587503,-1.61051 6.083063,-3.655058 8.927719,-4.954758 0.09766,0.11824 0.198643,0.23528 0.299264,0.35245 -2.493136,1.73339 -5.847099,4.454798 -7.63422,6.483888 2.376251,-1.84227 5.588577,-4.19544 8.263568,-5.779968 0.106828,0.11493 0.213257,0.22987 0.323125,0.34351 -2.26985,1.939368 -5.098173,4.712718 -6.600217,6.748348 2.066229,-1.909 4.822812,-4.32657 7.240008,-6.112038 0.240741,0.23101 0.489406,0.458158 0.743685,0.682538 -2.20191,1.99298 -4.897155,4.78397 -6.32531,6.82889 1.996677,-1.94357 4.657956,-4.40351 7.011331,-6.24577 0.194944,0.15956 0.393147,0.31733 0.595547,0.47275 -2.001353,2.15697 -4.372165,5.07228 -5.597534,7.18135 1.784438,-2.05286 4.156853,-4.64339 6.307912,-6.65589 0.201046,0.14323 0.403975,0.28505 0.611951,0.42404 -1.756913,2.28827 -3.741348,5.2346 -4.738516,7.35434 1.532505,-2.10658 3.558476,-4.7459 5.456851,-6.89103 0.195133,0.12104 0.395117,0.23922 0.596041,0.35643 -1.47021,2.44911 -3.069978,5.52508 -3.811889,7.70282 1.259337,-2.2119 2.930209,-4.98103 4.543645,-7.2927 0.200325,0.10834 0.403654,0.21469 0.609464,0.31915 -1.276632,2.53029 -2.623999,5.65744 -3.200933,7.85246 1.081843,-2.26119 2.523758,-5.09017 3.947108,-7.48807 0.23944,0.11234 0.480227,0.22357 0.726782,0.33058 -1.135708,2.55358 -2.296641,5.64788 -2.762476,7.81666 0.956953,-2.25834 2.233117,-5.07715 3.517597,-7.50248 0.347908,0.13906 0.700772,0.27397 1.062338,0.40217 l 0.679062,-3.39432 c 0.0748,-0.11293 0.149975,-0.22815 0.223701,-0.33456 l -0.147146,-0.0482 0.539868,-2.699338 c -4.277958,-2.46509 -6.996378,-6.75883 -8.174087,-12.32899 z m -21.588778,3.3461 c -0.36489,0.006 -0.704501,0.10448 -0.949992,0.36985 0.286064,0.17852 1.143919,0.26149 1.619606,-0.29628 -0.22266,-0.0471 -0.450683,-0.0771 -0.669614,-0.0736 z m 0.861998,2.21316 c -0.448117,-0.007 -0.872067,0.0973 -1.146848,0.43299 0.296342,0.16088 1.15766,0.1918 1.598729,-0.39372 -0.150067,-0.0223 -0.302506,-0.037 -0.451881,-0.0393 z m 1.003182,2.1888 c -0.51764,-0.0101 -1.022098,0.10259 -1.306422,0.51551 0.300061,0.13987 1.140768,0.11062 1.528634,-0.50407 -0.07387,-0.006 -0.148263,-0.01 -0.222212,-0.0114 z m 1.680253,2.04862 c -0.592856,-0.003 -1.198009,0.12161 -1.486873,0.61643 0.309651,0.11711 1.145903,0.0255 1.486873,-0.61643 z m 1.673792,2.47017 c -0.588032,0.0755 -1.171537,0.27915 -1.392423,0.80782 0.32242,0.0751 1.139339,-0.12653 1.392423,-0.80782 z m 1.088686,1.865678 c -0.582665,0.10949 -1.153343,0.34627 -1.34321,0.88686 0.326233,0.0563 1.130044,-0.19205 1.34321,-0.88686 z m 1.689699,2.18085 c -0.569499,0.1648 -1.114531,0.45585 -1.25174,1.01213 0.330125,0.0248 1.106115,-0.3001 1.25174,-1.01213 z m 1.619109,1.91688 c -0.549593,0.22234 -1.061951,0.56751 -1.141381,1.13492 0.33093,-0.01 1.069552,-0.41171 1.141381,-1.13492 z m 2.011333,1.33973 c -0.528363,0.26892 -1.009291,0.65673 -1.039469,1.22888 0.328864,-0.0381 1.030301,-0.50217 1.039469,-1.22888 z m 1.666336,1.40734 c -0.52118,0.2826 -0.991891,0.68297 -1.007158,1.25572 0.327761,-0.0467 1.016922,-0.52901 1.007158,-1.25572 z m 2.03619,1.4317 c -0.495856,0.32499 -0.931733,0.76323 -0.899286,1.33525 0.322744,-0.0738 0.969491,-0.61187 0.899286,-1.33525 z m 2.211174,1.14486 c -0.465877,0.36667 -0.86229,0.84075 -0.780474,1.40783 0.315149,-0.10143 0.913002,-0.69324 0.780474,-1.40783 z m 2.281764,1.19258 c -0.422242,0.41617 -0.763237,0.9314 -0.61891,1.48588 0.301927,-0.13583 0.83003,-0.79044 0.61891,-1.48588 z m 1.97952,0.89232 c -0.391513,0.44522 -0.694511,0.98338 -0.511037,1.52615 0.291478,-0.15699 0.771178,-0.84751 0.511037,-1.52615 z m 1.929308,0.66663 c -0.37088,0.46255 -0.649382,1.01416 -0.441439,1.54803 0.284044,-0.17008 0.732145,-0.8819 0.441439,-1.54803 z m -12.698905,3.39666 c 0.641428,1.06905 6.271726,4.27618 12.044565,5.6303 l 0.427618,-1.06904 c 0,0 -6.770613,-1.78174 -12.472183,-4.56126 z" />
  <path
     style="font-variation-settings:normal;vector-effect:none;fill:#ffffff;fill-opacity:1;stroke:none;stroke-width:0.132292;stroke-linecap:butt;stroke-linejoin:miter;stroke-miterlimit:5;stroke-dasharray:none;stroke-dashoffset:0;stroke-opacity:1;stop-color:#000000"
     d="m 34.467854,107.33999 c -4.127467,-5.3085 -7.138608,-11.945558 -8.463119,-19.945778 l 1.349893,-0.0331 c 0.772,7.34603 3.057889,13.673948 7.113226,19.978888 z"
     id="path5228" />
  <path
     style="font-variation-settings:normal;vector-effect:none;fill:#ffffff;fill-opacity:1;stroke:none;stroke-width:0.132292;stroke-linecap:butt;stroke-linejoin:miter;stroke-miterlimit:5;stroke-dasharray:none;stroke-dashoffset:0;stroke-opacity:1;stop-color:#000000"
     d="m 26.004735,87.394212 1.349893,-0.0331 c 0.772,7.34603 3.057889,13.673948 7.113226,19.978878 -4.127467,-5.30851 -7.138608,-11.945568 -8.463119,-19.945788 z"
     id="path5320" />
  <path
     id="path4627"
     style="fill:#cccccc;fill-opacity:1;fill-rule:evenodd;stroke:none;stroke-width:0.132292;stroke-linecap:round;stroke-linejoin:miter;stroke-miterlimit:4;stroke-dasharray:none"
     d="m 57.67267,86.860042 c 0.707902,-0.0268 1.260301,-0.62221 1.233481,-1.33011 -0.02682,-0.70791 -0.622683,-1.2598 -1.330585,-1.23298 l -31.882335,1.20789 c -0.707902,0.0268 -1.260303,0.62221 -1.233483,1.33012 0.02682,0.7079 0.622685,1.25979 1.330587,1.23297 z" />
  <path
     id="path4632-5"
     style="fill:#999999;fill-opacity:1;fill-rule:evenodd;stroke:none;stroke-width:0.132292;stroke-linecap:round;stroke-linejoin:miter;stroke-miterlimit:4;stroke-dasharray:none"
     d="m 57.540111,86.372172 c 0.720055,-0.0223 1.074321,-0.56448 0.669637,-0.98826 -0.255147,0.52618 -0.579076,0.51776 -1.051772,0.5376 -0.276558,0.0115 -6.002498,0.20809 -12.243217,0.49895 -2.932478,0.13672 -6.135949,0.267 -7.173306,0.33896 -1.037358,0.072 -1.681075,0.47415 -1.681075,0.47415 0,0 5.392686,-0.18309 9.193229,-0.29734 3.800544,-0.11425 11.566448,-0.54176 12.286504,-0.56406 z" />
  <path
     id="path4639-2"
     style="font-variation-settings:normal;vector-effect:none;fill:#ffffff;fill-opacity:1;stroke:none;stroke-width:0.132292;stroke-linecap:butt;stroke-linejoin:miter;stroke-miterlimit:5;stroke-dasharray:none;stroke-dashoffset:0;stroke-opacity:1;stop-color:#000000"
     d="m 57.575545,84.296992 -31.882075,1.20799 c -0.707902,0.0268 -1.260663,0.62188 -1.233842,1.32979 0.02682,0.7079 0.622878,1.26016 1.33078,1.23334 0.536826,-0.28304 1.493759,-0.74601 2.616325,-0.84554 1.064383,-0.0944 3.212761,-0.13258 5.098924,-0.51253 -2.043153,-0.16082 -5.046683,0.0679 -6.137401,0.0706 -1.027738,0.003 -1.53957,-0.15311 -1.53957,-0.15311 0.298594,-0.24882 0.78474,-0.40154 2.678961,-0.4653 1.894219,-0.0638 26.449603,-1.02221 27.982693,-1.07382 0.871841,-0.0293 1.780457,-0.0414 2.345395,0.086 -0.175886,-0.52658 -0.677361,-0.89949 -1.26019,-0.87741 z" />
  <path
     style="font-variation-settings:normal;vector-effect:none;fill:#005fcc;fill-opacity:1;stroke:none;stroke-width:0.132292;stroke-linecap:butt;stroke-linejoin:miter;stroke-miterlimit:5;stroke-dasharray:none;stroke-dashoffset:0;stroke-opacity:1;stop-color:#000000"
     d="m 78.143105,102.68872 c 8.69207,0.0557 17.75134,-4.207198 21.893945,-11.755298 l 8.557,2.08391 C 105.27772,111.4074 90.113125,121.71966 73.609843,123.31655"
     id="path4783" />
  <path
     style="font-variation-settings:normal;vector-effect:none;fill:#ffffff;fill-opacity:1;stroke:none;stroke-width:0.132292;stroke-linecap:butt;stroke-linejoin:miter;stroke-miterlimit:5;stroke-dasharray:none;stroke-dashoffset:0;stroke-opacity:1;stop-color:#000000"
     d="m 64.232469,105.70341 1.991817,-7.096868 c 3.535653,1.837868 6.819702,2.643618 11.112409,3.259218 l -0.86033,6.90737 z"
     id="path4884" />
  <path
     style="font-variation-settings:normal;vector-effect:none;fill:#cccccc;fill-opacity:1;stroke:none;stroke-width:0.132292;stroke-linecap:butt;stroke-linejoin:miter;stroke-miterlimit:5;stroke-dasharray:none;stroke-dashoffset:0;stroke-opacity:1;stop-color:#000000"
     d="m 69.334255,123.21817 0.05104,1.59228 11.63918,0.79379 2.71886,6.6221 -37.133194,-2e-5 3.684315,-7.01851 8.580971,-0.19283 3.445381,-2.20168 -2.348021,-0.51423 4.259675,-16.59566 2.296429,-6.394708 c 0,0 0.409056,1.090808 -0.102265,3.204268 0,0 0.443147,-1.15899 0.681763,-2.35207 0,0 0.374968,-0.034 0.306791,0.68176 -0.06817,0.71585 -0.272703,2.89748 -0.272703,2.89748 0,0 0.818112,-2.18163 1.124903,-3.44289 0,0 0.409056,0.0682 0.306793,1.05673 -0.102264,0.98855 -0.51132,3.57925 -0.51132,3.57925 0,0 0.579495,-2.04529 0.886288,-3.06793 0.306792,-1.02264 0.306792,-1.15899 0.306792,-1.15899 0,0 0.306791,0.0341 0.170439,1.12491 -0.136352,1.09081 -0.443143,3.03382 -0.443143,3.03382 0,0 0.886288,-2.42024 1.090815,-2.99974 0.204528,-0.5795 0.170441,-0.74993 0.170441,-0.74993 0,0 0.477231,0.20453 0.306791,1.1249 -0.17044,0.92037 -0.579495,2.52251 -0.579495,2.52251 0,0 0.579495,-1.36352 0.954463,-2.28389 0.374971,-0.92038 0.340888,-1.12491 0.340888,-1.12491 0,0 0.74993,0.13635 0.579496,1.29534 -0.170443,1.159 -0.613588,3.23836 -0.613588,3.23836 0,0 0.749939,-2.07936 1.090817,-2.96565 0.340877,-0.88629 0.409053,-1.32943 0.409053,-1.32943 0,0 0.613588,0.0682 0.477237,1.43169 -0.13636,1.36352 -0.51132,2.96566 -0.51132,2.96566 0,0 0.613579,-1.49987 0.886281,-2.52251 0.272711,-1.02264 0.409067,-1.56805 0.409067,-1.56805 0,0 0.68175,0.37496 0.51132,1.63622 -0.17044,1.26125 -0.47724,3.57924 -0.47724,3.57924 0,0 0.68177,-2.04527 0.92037,-3.27244 0.23862,-1.22717 0.27272,-1.49988 0.27272,-1.49988 0,0 0.64767,0.17044 0.61358,1.4317 l 0.65351,4.73487 c -0.8342,5.05168 -2.11759,10.00999 -4.032922,14.90478 z"
     id="path4914" />
  <path
     id="path4721-3"
     style="font-variation-settings:normal;vector-effect:none;fill:#999999;fill-opacity:1;stroke:none;stroke-width:0.132292;stroke-linecap:butt;stroke-linejoin:miter;stroke-miterlimit:5;stroke-dasharray:none;stroke-dashoffset:0;stroke-opacity:1;stop-color:#000000"
     d="m 73.591133,113.51727 c -0.226229,-0.58252 0.04242,-1.47161 0.236618,-1.64395 0.207484,0.6568 0.08658,1.20325 -0.236618,1.64395 z m -1.15097,-0.44444 c -0.226238,-0.58253 0.139227,-1.61609 0.333374,-1.78842 0.181891,0.63197 0.01029,1.36829 -0.333374,1.78842 z m -1.456241,-0.35411 c -0.226732,-0.58066 0.185716,-1.5628 0.379584,-1.73418 0.145932,0.59248 0.117679,1.37361 -0.379584,1.73418 z m -1.555581,-0.52971 c -0.230715,-0.56577 0.222691,-1.61701 0.414487,-1.78072 0.215421,0.64031 0.01732,1.47208 -0.414487,1.78072 z m -1.466647,-0.38516 c -0.232194,-0.56022 0.170308,-1.74596 0.361338,-1.90681 0.250733,0.61768 0.0442,1.5021 -0.361338,1.90681 z m -1.148073,-0.36761 c -0.232193,-0.56021 0.12211,-1.60134 0.313129,-1.76219 0.114402,0.58695 0.0133,1.29929 -0.313129,1.76219 z m -1.478354,-0.48184 c 0,0 -0.0482,-0.96416 0.433869,-1.73548 0,0 0.337454,1.10878 -0.433869,1.73548 z m -1.715116,2.13963 c 0.162357,1.26891 -1.53087,5.07545 -1.53087,5.07545 0,0 0.964154,-0.33745 1.590854,-2.12113 0.819531,-1.78368 1.68727,-4.14587 1.68727,-4.14587 0,0 0.289246,0.53029 -0.144623,1.8801 -0.43387,1.34982 -1.454711,5.04382 -1.454711,5.04382 1.208057,-0.58345 1.954388,-3.94702 2.84473,-6.57828 0.07287,0.261 0.06803,0.60851 0.02218,0.99729 -0.196078,1.66268 -1.245137,4.06 -1.737303,5.83748 1.304416,-0.90291 2.181849,-4.02957 3.055814,-6.61241 0.08183,0.21907 0.08249,0.55849 0.04481,0.94023 -0.164488,1.66686 -1.008762,4.16014 -1.590001,5.92501 1.454145,-0.81863 1.995859,-3.89554 2.866412,-6.47566 0.0971,0.23074 0.139713,0.46798 0.104216,0.79398 -0.180436,1.65711 -1.016799,4.08307 -1.576888,5.93836 1.663483,-0.83687 1.996716,-3.84319 2.880746,-6.48251 0.14272,0.25596 0.125058,0.50962 0.08428,0.83786 -0.205824,1.65647 -0.890937,3.95513 -1.392395,5.90051 1.194427,-0.6147 1.824662,-3.47719 2.667923,-5.99701 0.0784,0.23249 0.142412,0.56585 0.105087,0.91823 -0.181535,1.71236 -0.664026,3.58072 -1.286837,5.19619 1.19441,-0.6147 1.77836,-3.15031 2.621612,-5.67013 0.07186,0.21287 0.120151,0.5145 0.08446,0.8274 -0.185556,1.62631 -0.821723,3.84166 -1.45154,5.47526 l -0.497046,2.56881 -1.277738,0.28925 c 0,0 -0.120519,0.89184 0.626701,1.63906 h -4.234007 c 0,0 -1.301608,-0.53028 -2.362178,-2.07293 l -4.129793,-0.72312 z" />
  <path
     style="font-variation-settings:normal;vector-effect:none;fill:#ffffff;fill-opacity:1;stroke:none;stroke-width:0.132292;stroke-linecap:butt;stroke-linejoin:miter;stroke-miterlimit:5;stroke-dasharray:none;stroke-dashoffset:0;stroke-opacity:1;stop-color:#000000"
     d="m 62.320815,122.8133 c -0.322341,1.22121 -1.163549,1.91618 -1.163549,1.91618 h 19.508049 l 0.35916,0.87476 c 0,0 -23.193541,0.0482 -26.56808,0 -3.37454,-0.0482 -3.953032,0.34275 -3.953032,0.34275 0,0 2.50822,-0.14462 5.352474,0.53029 0,0 -1.929728,-0.0482 -3.713412,0.0482 -1.783685,0.0964 -2.072932,0.53027 -2.072932,0.53027 0,0 2.555008,-0.14462 5.206432,0.57849 0,0 -2.362177,-0.0482 -3.904824,0.0964 -1.542646,0.14463 -2.024723,0.38566 -2.024723,0.38566 0,0 2.555008,0.0964 4.820771,0.6267 0.0482,0.0964 -3.422748,0.0482 -4.483317,0.19283 -1.06057,0.14462 -1.398024,0.53028 -1.398024,0.53028 0,0 2.169347,-0.14462 2.603216,0.43387 0,0 -1.8801,-0.0964 -3.181709,0.67491 0,0 2.410386,0.14462 2.55501,0.67491 0,0 -1.823622,-0.21104 -2.988879,0.43387 0,0 1.109278,-0.0596 1.654686,0.21312 0,0 -1.636223,0.0455 -2.317984,0.32951 l -0.942767,2e-5 4.343382,-7.49686 h 6.518563 c 1.200352,0 3.58862,-0.0482 4.676147,-2.16935 z"
     id="path4912" />
  <path
     style="font-variation-settings:normal;vector-effect:none;fill:#616161;fill-opacity:1;stroke:none;stroke-width:0.132292;stroke-linecap:butt;stroke-linejoin:miter;stroke-miterlimit:5;stroke-dasharray:none;stroke-dashoffset:0;stroke-opacity:1;stop-color:#000000"
     d="m 72.455516,123.41388 c -4.305721,0.30963 -8.685404,0.0291 -12.954316,-0.85291 l 2.689157,-4.99692 c 0.02901,0.94122 -0.159476,2.18688 -0.888469,3.38541 0,0 0.674908,-0.43387 1.205192,-1.73548 0,0 0.144624,0.81953 -0.289245,1.78368 0.328494,-0.41253 0.700255,-1.08093 1.108778,-1.83188 0.337453,0.24103 0.144623,1.20519 -0.09642,2.07293 0,0 0.674909,-0.91595 0.915947,-1.8801 0,0 0.674908,0.77132 -0.04821,2.26575 0,0 0.771321,-0.91594 1.156982,-2.12113 0,0 0.385662,0.86773 0.04821,2.02473 0,0 0.482077,-0.62672 0.674908,-1.54265 0,0 0.482077,0.53028 0.09642,1.63905 0,0 0.482079,-0.6749 0.771325,-1.68726 0,0 0.530286,0.81953 0.192831,1.92831 0,0 0.626701,-0.81953 1.012362,-1.92831 0,0 0.578493,0.86774 -0.0482,2.12114 0,0 0.771321,-0.72312 1.060567,-1.68728 0,0 0.337454,0.81953 -0.0482,1.92831 0,0 0.530285,-0.62669 0.867739,-1.39802 0,0 0.433869,0.67491 0.192831,1.44623 0,0 0.337454,-0.38566 0.81953,-1.54264 0,0 0.482077,0.48207 0,1.59085 0,0 0.530282,-0.33745 1.012358,-1.2052 z"
     id="path4878" />
  <path
     style="color:#000000;font-style:normal;font-variant:normal;font-weight:normal;font-stretch:normal;font-size:medium;line-height:normal;font-family:sans-serif;font-variant-ligatures:normal;font-variant-position:normal;font-variant-caps:normal;font-variant-numeric:normal;font-variant-alternates:normal;font-variant-east-asian:normal;font-feature-settings:normal;font-variation-settings:normal;text-indent:0;text-align:start;text-decoration:none;text-decoration-line:none;text-decoration-style:solid;text-decoration-color:#000000;letter-spacing:normal;word-spacing:normal;text-transform:none;writing-mode:lr-tb;direction:ltr;text-orientation:mixed;dominant-baseline:auto;baseline-shift:baseline;text-anchor:start;white-space:normal;shape-padding:0;shape-margin:0;inline-size:0;clip-rule:nonzero;display:inline;overflow:visible;visibility:visible;isolation:auto;mix-blend-mode:normal;color-interpolation:sRGB;color-interpolation-filters:linearRGB;solid-color:#000000;solid-opacity:1;vector-effect:none;fill:#cccccc;fill-opacity:1;fill-rule:nonzero;stroke:none;stroke-width:0.132291;stroke-linecap:round;stroke-linejoin:miter;stroke-miterlimit:5;stroke-dasharray:none;stroke-dashoffset:0;stroke-opacity:1;color-rendering:auto;image-rendering:auto;shape-rendering:auto;text-rendering:auto;enable-background:accumulate;stop-color:#000000"
     d="m 64.214494,97.866722 c -1.332191,9.383808 -3.378477,17.192678 -6.549726,24.300068 -0.285596,0.6418 0.0029,1.44183 0.644451,1.7279 0.641295,0.28584 1.585755,-0.24273 1.872537,-0.8836 3.274697,-7.33922 5.610987,-15.35178 6.56357,-24.871938 0.07529,-0.69889 -0.462613,-1.37635 -1.222202,-1.40539 -0.759589,-0.0291 -1.241661,0.50488 -1.30863,1.13296 z"
     id="path4754" />
  <path
     style="font-variation-settings:normal;vector-effect:none;fill:#ffffff;fill-opacity:1;stroke:none;stroke-width:0.132292;stroke-linecap:butt;stroke-linejoin:miter;stroke-miterlimit:5;stroke-dasharray:none;stroke-dashoffset:0;stroke-opacity:1;stop-color:#000000"
     d="m 99.844235,90.451342 c -4.14261,7.5481 -13.20189,11.810998 -21.89396,11.755298 l -0.0179,0.89641 c 9.27056,0.0557 18.42626,-4.400028 22.568865,-11.948128 z"
     id="path4982" />
  <path
     id="path4984"
     style="font-variation-settings:normal;vector-effect:none;fill:#012d65;fill-opacity:1;stroke:none;stroke-width:0.132292;stroke-linecap:butt;stroke-linejoin:miter;stroke-miterlimit:5;stroke-dasharray:none;stroke-dashoffset:0;stroke-opacity:1;stop-color:#000000"
     d="m 100.50106,91.154712 c 0,0 0.11447,0.44992 0.97483,0.78589 0.86037,0.33596 3.66632,1.09555 5.54187,2.01487 -0.0311,0.15013 -0.0652,0.29872 -0.0984,0.4479 -0.29128,0.0806 -0.36583,0.0952 -0.776,-0.0254 -0.5466,-0.16138 -0.73474,0.0954 -0.73474,0.0954 0.65009,0.46364 1.06222,0.67483 1.3114,0.77352 -0.0525,0.20869 -0.10756,0.41618 -0.16405,0.62288 -0.32447,0.002 -0.57612,-0.0822 -0.94253,-0.1899 -0.54661,-0.16138 -0.73524,0.0954 -0.73524,0.0954 0.6695,0.4775 1.15505,0.71419 1.466,0.83466 -0.10818,0.36102 -0.22283,0.7187 -0.34301,1.07328 -0.35851,-0.0179 -0.66325,-0.10663 -1.01263,-0.2426 -0.53088,-0.20731 -0.7407,0.0328 -0.7407,0.0328 0.68917,0.58623 1.18291,0.86455 1.47494,0.99722 -0.0694,0.18832 -0.14,0.37586 -0.21276,0.56224 -0.35469,-0.0189 -0.65717,-0.10725 -1.00368,-0.2421 -0.53088,-0.20732 -0.74071,0.0323 -0.74071,0.0323 0.658,0.55971 1.13604,0.83695 1.43269,0.97684 -0.0683,0.1624 -0.13744,0.324348 -0.20829,0.485178 -0.49488,0.0268 -0.86406,-0.0701 -1.30344,-0.2411 -0.53087,-0.207308 -0.7402,0.0323 -0.7402,0.0323 0.85131,0.72414 1.40855,0.9828 1.64794,1.0703 -0.11387,0.23892 -0.23012,0.47616 -0.34947,0.71137 -0.487,10e-4 -0.84757,-0.11264 -1.27362,-0.30175 -0.52063,-0.23182 -0.7412,-0.002 -0.7412,-0.002 0.79755,0.74521 1.33353,1.03244 1.57735,1.13741 -0.16108,0.29559 -0.32702,0.58716 -0.49662,0.87641 -0.63726,-0.18738 -0.83379,-0.50169 -1.30393,-0.71038 -0.52064,-0.23182 -0.7412,-0.002 -0.7412,-0.002 0.71344,0.66662 1.32975,1.06471 1.70312,1.28156 -0.19739,0.32129 -0.39886,0.63954 -0.60649,0.95248 -0.60427,-0.25272 -0.80928,-0.5924 -1.2925,-0.84411 -0.57086,-0.29758 -0.83565,-0.0537 -0.83565,-0.0537 0.6929,0.73365 1.30805,1.20587 1.7235,1.49284 -0.26398,0.37934 -0.53524,0.75239 -0.81378,1.11851 -0.6368,-0.35998 -0.77622,-0.74937 -1.237815,-1.09117 -0.51724,-0.38328 -0.81726,-0.18443 -0.81726,-0.18443 0.64174,0.93867 1.243445,1.54141 1.596735,1.86419 -0.18953,0.23768 -0.38315,0.47125 -0.57864,0.70292 -0.595905,-0.40517 -0.981205,-0.85991 -1.387455,-1.20849 -0.48842,-0.41938 -0.80184,-0.2421 -0.80184,-0.2421 0.75492,0.97731 1.34646,1.61462 1.72052,1.99444 -0.24535,0.27818 -0.49446,0.55289 -0.74817,0.82173 -0.56863,-0.4296 -0.93025,-0.89752 -1.31686,-1.26168 -0.46846,-0.44156 -0.78942,-0.27889 -0.78942,-0.27889 0.69788,0.99565 1.2525,1.65518 1.61016,2.05508 -0.21561,0.21878 -0.4352,0.43318 -0.65619,0.64526 -0.6407,-0.49088 -1.0054,-1.02926 -1.40734,-1.44611 -0.44669,-0.46357 -0.7755,-0.31666 -0.7755,-0.31666 0.73274,1.16033 1.31408,1.89819 1.63203,2.27928 -0.18577,0.17029 -0.37306,0.33845 -0.56224,0.50407 -0.64748,-0.5503 -1.00346,-0.99767 -1.47494,-1.49383 -0.57437,-0.60435 -0.92812,-0.48519 -0.92812,-0.48519 0.82316,1.19833 1.44214,1.971 1.85176,2.45128 -0.30915,0.25887 -0.62234,0.5112 -0.93955,0.75761 -0.62299,-0.64826 -1.02525,-1.27923 -1.45406,-1.80205 -0.52879,-0.64461 -0.88984,-0.5508 -0.88984,-0.5508 0.76191,1.30356 1.37445,2.20857 1.78117,2.78037 -0.21615,0.16057 -0.43376,0.31847 -0.65321,0.47325 -0.61955,-0.71208 -1.00671,-1.39689 -1.42673,-1.96759 -0.51301,-0.69698 -0.88735,-0.61443 -0.88735,-0.61443 0.7287,1.40761 1.31929,2.38416 1.71008,2.99811 -0.29372,0.19742 -0.59043,0.38962 -0.88934,0.57665 -0.61001,-0.76092 -0.97027,-1.48237 -1.37155,-2.08689 -0.47865,-0.72104 -0.85653,-0.65719 -0.85653,-0.65719 0.6803,1.48635 1.23541,2.50631 1.59376,3.13084 -0.27877,0.1656 -0.55896,0.32768 -0.84162,0.48419 -0.59747,-0.83936 -0.91273,-1.61889 -1.28405,-2.2758 -0.4259,-0.75342 -0.80682,-0.71634 -0.80682,-0.71634 0.60862,1.62821 1.11503,2.72558 1.42125,3.35206 -0.28541,0.1492 -0.5732,0.29261 -0.862,0.43249 -0.52418,-0.89011 -0.80014,-1.70324 -1.13492,-2.40008 -0.40554,-0.8441 -0.81974,-0.83118 -0.81974,-0.83118 0.50208,1.67584 0.9403,2.84474 1.23185,3.57079 -0.33251,0.15063 -0.66695,0.29436 -1.00318,0.43249 -0.3852,-0.89287 -0.58155,-1.69561 -0.84211,-2.40207 -0.34781,-0.94296 -0.79141,-0.97136 -0.79141,-0.97136 0.32283,1.62117 0.64043,2.84825 0.87542,3.67369 -0.40856,0.15514 -0.81952,0.30108 -1.23235,0.43746 -0.27687,-1.06013 -0.38262,-2.10493 -0.54086,-2.85743 -0.20685,-0.98356 -0.64128,-1.07675 -0.64128,-1.07675 0.23528,1.86492 0.36979,3.2157 0.45784,4.16385 -0.36264,0.10947 -0.72663,0.21051 -1.09167,0.30523 -0.13919,-1.04341 -0.10118,-1.9324 -0.16305,-2.74359 -0.0815,-1.06833 -0.49463,-1.52963 -0.49463,-1.52963 -0.0108,1.91344 -0.0727,3.45962 -0.12279,4.4651 -0.39663,0.091 -0.79416,0.17236 -1.19258,0.24558 -0.0705,-1.18692 0.11657,-2.0734 0.14068,-2.98021 0.0285,-1.07105 -0.34003,-1.52466 -0.34003,-1.52466 -0.23425,2.15257 -0.5058,3.77117 -0.66564,4.65003 -0.36122,0.0544 -0.72288,0.10173 -1.0847,0.14118 0.01,-1.35037 0.26945,-2.53808 0.37731,-3.49722 0.12576,-1.11838 -0.19438,-1.4824 -0.19438,-1.4824 -0.46285,2.3003 -0.92491,4.12352 -1.17468,5.06761 -0.26679,0.0188 -0.53369,0.0338 -0.80036,0.0442 0.0557,-1.54138 0.53033,-3.05586 0.71187,-4.09972 0.19283,-1.10878 -0.19288,-1.44611 -0.19288,-1.44611 -0.71767,2.71117 -1.40526,4.8677 -1.63204,5.56472 -0.31898,-0.002 -0.63779,-0.007 -0.95595,-0.0214 0,0 0.67581,-2.50607 1.54355,-6.70014 0.86774,-4.19407 1.09937,-8.2946 1.06532,-9.28315 -0.0341,-0.98855 -0.62239,-0.73176 -0.62239,-0.73176 0,0 -4.283148,19.81698 -4.01621,19.73454 15.78288,-1.52719 30.478245,-11.24446 33.649825,-28.831768 z m 3.52953,2.40306 c -0.10469,0.57024 0.63426,1.03665 1.14287,0.40565 0,0 -0.8571,-0.32455 -1.14287,-0.40565 z m -0.4822,1.39789 c -0.109,0.46289 0.5256,0.99797 1.14287,0.40615 0,0 -0.8571,-0.32505 -1.14287,-0.40615 z m -0.73126,1.3795 c -0.14107,0.4797 0.5736,0.92779 1.10409,0.50159 0,0 -0.82627,-0.39644 -1.10409,-0.50159 z m -0.48221,1.34968 c -0.12288,0.44331 0.56057,0.95434 1.1041,0.50208 0,0 -0.82628,-0.39694 -1.1041,-0.50208 z m -0.86796,1.39838 c -0.15405,0.56764 0.53162,1.031058 1.05055,0.56146 0,0 -0.77273,-0.45631 -1.05055,-0.56146 z m -0.72728,1.453068 c -0.10972,0.37698 0.60581,0.9938 1.07029,0.74518 0,0 -0.79768,-0.62719 -1.07029,-0.74518 z m -1.012625,1.35799 c 0,0 0.491375,0.66127 1.104875,0.77926 -0.13849,-0.57324 -0.60315,-0.91337 -1.104875,-0.77926 z m -0.95894,1.20913 c -0.0724,0.003 -0.1436,0.0178 -0.21127,0.0487 0,0 0.85567,0.76389 1.1548,0.91619 0.13154,-0.36525 -0.43671,-0.98226 -0.94353,-0.9649 z m -1.06482,1.11652 c -0.0361,0.002 -0.072,0.008 -0.10788,0.0184 0,0 0.72562,0.88846 0.99722,1.08571 0.20046,-0.36445 -0.34756,-1.14028 -0.88934,-1.1041 z m -1.07427,1.02058 c -0.0362,-1.8e-4 -0.0724,0.003 -0.10887,0.0104 0,0 0.65992,0.9381 0.91668,1.15431 0.22607,-0.34915 -0.26483,-1.162 -0.80781,-1.16475 z m -1.06731,1.21744 c -0.0362,-0.002 -0.0726,-2.3e-4 -0.10937,0.005 0,0 0.61555,0.96769 0.862,1.19557 0.24202,-0.33829 -0.21036,-1.17312 -0.75263,-1.20104 z m -1.15729,0.88039 c -0.036,-0.004 -0.0724,-0.003 -0.10936,5.1e-4 0,0 0.56862,0.99587 0.80383,1.23534 0.25801,-0.32627 -0.15416,-1.18188 -0.69447,-1.23584 z m -1.60668,0.51253 c 0,0 0.60348,1.04925 0.90525,1.3621 0.26447,-0.36023 -0.23956,-1.34401 -0.90525,-1.3621 z m -1.16971,1.00765 c 0,0 0.52517,1.09022 0.80334,1.42424 0.29002,-0.33999 -0.14074,-1.35766 -0.80334,-1.42424 z m -1.14039,0.54534 c 0,0 0.49,1.16334 0.76009,1.52466 0.31158,-0.34338 -0.085,-1.4268 -0.76009,-1.52466 z m -1.35365,0.48767 c 0,0 0.54312,1.18349 0.79539,1.55747 0.32784,-0.32788 -0.12585,-1.42702 -0.79539,-1.55747 z m -1.18413,0.5523 c 0,0 0.38209,1.11323 0.60698,1.50427 0.35043,-0.30361 0.0516,-1.32631 -0.60698,-1.50427 z m -1.3094,0.31269 c 0,0 0.29442,1.01765 0.50904,1.45605 0.40023,-0.30254 0.18906,-1.21647 -0.50904,-1.45605 z m -1.21396,0.37979 c 0,0 0.2113,1.11754 0.3962,1.60768 0.45826,-0.28272 0.32542,-1.28099 -0.3962,-1.60768 z m -6.35216,0.18791 c 0,0 -0.1929,1.0605 -0.28932,1.639 0,0 0.31098,0.11703 0.51551,-0.56473 0.20453,-0.68176 -0.22619,-1.07427 -0.22619,-1.07427 z m 5.1213,0.20531 c 0,0 0.0465,1.13611 0.15808,1.64794 0.49452,-0.213 0.50831,-1.21969 -0.15808,-1.64794 z m -3.80245,0.0189 c 0,0 -0.1767,1.4077 -0.23812,1.99095 0,0 0.31709,0.0983 0.48022,-0.59455 0.16313,-0.69284 -0.2421,-1.3964 -0.2421,-1.3964 z m 2.61782,0.0944 c 0,0 0.0706,1.16857 0.11682,1.72499 0,0 0.3451,0.0858 0.36985,-0.59057 0.0247,-0.67639 -0.48667,-1.13442 -0.48667,-1.13442 z m -1.29101,0.003 c 0,0 -0.0346,1.50779 -0.0457,2.06602 0,0 0.29127,0.0677 0.38527,-0.6025 0.094,-0.67029 -0.33953,-1.46352 -0.33953,-1.46352 z" />
  <path
     style="color:#000000;font-style:normal;font-variant:normal;font-weight:normal;font-stretch:normal;font-size:medium;line-height:normal;font-family:sans-serif;font-variant-ligatures:normal;font-variant-position:normal;font-variant-caps:normal;font-variant-numeric:normal;font-variant-alternates:normal;font-variant-east-asian:normal;font-feature-settings:normal;font-variation-settings:normal;text-indent:0;text-align:start;text-decoration:none;text-decoration-line:none;text-decoration-style:solid;text-decoration-color:#000000;letter-spacing:normal;word-spacing:normal;text-transform:none;writing-mode:lr-tb;direction:ltr;text-orientation:mixed;dominant-baseline:auto;baseline-shift:baseline;text-anchor:start;white-space:normal;shape-padding:0;shape-margin:0;inline-size:0;clip-rule:nonzero;display:inline;overflow:visible;visibility:visible;isolation:auto;mix-blend-mode:normal;color-interpolation:sRGB;color-interpolation-filters:linearRGB;solid-color:#000000;solid-opacity:1;vector-effect:none;fill:#cccccc;fill-opacity:1;fill-rule:nonzero;stroke:none;stroke-width:0.132292;stroke-linecap:round;stroke-linejoin:miter;stroke-miterlimit:5;stroke-dasharray:none;stroke-dashoffset:0;stroke-opacity:1;color-rendering:auto;image-rendering:auto;shape-rendering:auto;text-rendering:auto;enable-background:accumulate;stop-color:#000000"
     d="m 75.929225,102.00586 c -0.48983,8.21434 -2.233111,13.90857 -4.598234,20.73398 -0.255178,0.65476 -0.076,1.34422 0.578737,1.59955 0.654771,0.25519 1.537069,-0.16506 1.792398,-0.81977 2.342989,-6.00339 4.193059,-12.70676 4.701029,-21.22522 -0.0258,-0.90665 -0.61745,-1.49007 -1.3489,-1.50732 -0.73145,-0.0172 -1.08539,0.55311 -1.12503,1.21878 z"
     id="path4756" />
  <path
     id="path4791"
     style="color:#000000;font-style:normal;font-variant:normal;font-weight:normal;font-stretch:normal;font-size:medium;line-height:normal;font-family:sans-serif;font-variant-ligatures:normal;font-variant-position:normal;font-variant-caps:normal;font-variant-numeric:normal;font-variant-alternates:normal;font-variant-east-asian:normal;font-feature-settings:normal;font-variation-settings:normal;text-indent:0;text-align:start;text-decoration:none;text-decoration-line:none;text-decoration-style:solid;text-decoration-color:#000000;letter-spacing:normal;word-spacing:normal;text-transform:none;writing-mode:lr-tb;direction:ltr;text-orientation:mixed;dominant-baseline:auto;baseline-shift:baseline;text-anchor:start;white-space:normal;shape-padding:0;shape-margin:0;inline-size:0;clip-rule:nonzero;display:inline;overflow:visible;visibility:visible;isolation:auto;mix-blend-mode:normal;color-interpolation:sRGB;color-interpolation-filters:linearRGB;solid-color:#000000;solid-opacity:1;vector-effect:none;fill:#ffffff;fill-opacity:1;fill-rule:nonzero;stroke:none;stroke-width:0.132292;stroke-linecap:round;stroke-linejoin:miter;stroke-miterlimit:5;stroke-dasharray:none;stroke-dashoffset:0;stroke-opacity:1;color-rendering:auto;image-rendering:auto;shape-rendering:auto;text-rendering:auto;enable-background:accumulate;stop-color:#000000"
     d="m 65.522948,96.733852 c -0.759588,-0.029 -1.241442,0.50485 -1.308409,1.13293 -1.332193,9.383808 -3.378759,17.192668 -6.55001,24.300048 -0.285596,0.6418 0.0032,1.4419 0.64476,1.72798 0.332311,0.14811 0.744657,0.0747 1.106086,-0.11682 -0.15854,0.008 -0.312677,-0.0138 -0.452378,-0.0761 -0.641565,-0.28608 -0.930355,-1.08618 -0.644759,-1.72798 3.17125,-7.10738 5.314258,-14.8198 6.646448,-24.203608 0.04275,-0.40092 0.213031,-0.83423 0.558262,-1.03649 z" />
  <path
     id="path4796"
     style="color:#000000;font-style:normal;font-variant:normal;font-weight:normal;font-stretch:normal;font-size:medium;line-height:normal;font-family:sans-serif;font-variant-ligatures:normal;font-variant-position:normal;font-variant-caps:normal;font-variant-numeric:normal;font-variant-alternates:normal;font-variant-east-asian:normal;font-feature-settings:normal;font-variation-settings:normal;text-indent:0;text-align:start;text-decoration:none;text-decoration-line:none;text-decoration-style:solid;text-decoration-color:#000000;letter-spacing:normal;word-spacing:normal;text-transform:none;writing-mode:lr-tb;direction:ltr;text-orientation:mixed;dominant-baseline:auto;baseline-shift:baseline;text-anchor:start;white-space:normal;shape-padding:0;shape-margin:0;inline-size:0;clip-rule:nonzero;display:inline;overflow:visible;visibility:visible;isolation:auto;mix-blend-mode:normal;color-interpolation:sRGB;color-interpolation-filters:linearRGB;solid-color:#000000;solid-opacity:1;vector-effect:none;fill:#ffffff;fill-opacity:1;fill-rule:nonzero;stroke:none;stroke-width:0.132292;stroke-linecap:round;stroke-linejoin:miter;stroke-miterlimit:5;stroke-dasharray:none;stroke-dashoffset:0;stroke-opacity:1;color-rendering:auto;image-rendering:auto;shape-rendering:auto;text-rendering:auto;enable-background:accumulate;stop-color:#000000"
     d="m 77.054065,100.78684 c -0.73145,-0.0172 -1.08533,0.55327 -1.12497,1.21893 -0.48984,8.21434 -2.23321,13.90883 -4.598334,20.73424 -0.255177,0.65476 -0.07559,1.34389 0.579141,1.59922 0.223777,0.0872 0.473526,0.0908 0.716344,0.0378 -0.598191,-0.27569 -0.757022,-0.93771 -0.511035,-1.5689 2.365124,-6.8254 4.108004,-12.72421 4.597834,-20.93855 0.0298,-0.88902 0.7447,-0.85345 1.28604,-0.6547 -0.24314,-0.26564 -0.57606,-0.41931 -0.94502,-0.42802 z" />
  <path
     style="color:#000000;font-style:normal;font-variant:normal;font-weight:normal;font-stretch:normal;font-size:medium;line-height:normal;font-family:sans-serif;font-variant-ligatures:normal;font-variant-position:normal;font-variant-caps:normal;font-variant-numeric:normal;font-variant-alternates:normal;font-variant-east-asian:normal;font-feature-settings:normal;font-variation-settings:normal;text-indent:0;text-align:start;text-decoration:none;text-decoration-line:none;text-decoration-style:solid;text-decoration-color:#000000;letter-spacing:normal;word-spacing:normal;text-transform:none;writing-mode:lr-tb;direction:ltr;text-orientation:mixed;dominant-baseline:auto;baseline-shift:baseline;text-anchor:start;white-space:normal;shape-padding:0;shape-margin:0;inline-size:0;clip-rule:nonzero;display:inline;overflow:visible;visibility:visible;isolation:auto;mix-blend-mode:normal;color-interpolation:sRGB;color-interpolation-filters:linearRGB;solid-color:#000000;solid-opacity:1;vector-effect:none;fill:#999999;fill-opacity:1;fill-rule:nonzero;stroke:none;stroke-width:0.132292;stroke-linecap:round;stroke-linejoin:miter;stroke-miterlimit:5;stroke-dasharray:none;stroke-dashoffset:0;stroke-opacity:1;color-rendering:auto;image-rendering:auto;shape-rendering:auto;text-rendering:auto;enable-background:accumulate;stop-color:#000000"
     d="m 72.68643,122.26103 c 0,0 -0.389275,0.12279 -0.571233,0.54708 -0.181959,0.42429 -0.18218,0.88343 0.191424,1.02913 0.373633,0.14563 0.877104,-0.0942 1.159156,-0.74048 0.773778,-1.98265 2.349268,-6.66676 3.273838,-11.05659 0.92457,-4.38983 1.2214,-7.31757 1.34732,-9.42922 -0.0152,-0.53353 -0.29518,-0.70642 -0.72561,-0.71658 0.25132,0.22848 0.28165,0.42776 0.25833,0.81948 -0.12199,2.04562 -0.58107,5.55135 -1.30032,9.06144 -0.45958,2.24281 -1.05191,4.57381 -1.65004,6.50026 -0.59811,1.92645 -1.19587,3.70536 -1.934218,4.84692 -0.275424,-0.14308 -0.155206,-0.63217 -0.04868,-0.86144 z"
     id="path4799" />
  <path
     style="color:#000000;font-style:normal;font-variant:normal;font-weight:normal;font-stretch:normal;font-size:medium;line-height:normal;font-family:sans-serif;font-variant-ligatures:normal;font-variant-position:normal;font-variant-caps:normal;font-variant-numeric:normal;font-variant-alternates:normal;font-variant-east-asian:normal;font-feature-settings:normal;font-variation-settings:normal;text-indent:0;text-align:start;text-decoration:none;text-decoration-line:none;text-decoration-style:solid;text-decoration-color:#000000;letter-spacing:normal;word-spacing:normal;text-transform:none;writing-mode:lr-tb;direction:ltr;text-orientation:mixed;dominant-baseline:auto;baseline-shift:baseline;text-anchor:start;white-space:normal;shape-padding:0;shape-margin:0;inline-size:0;clip-rule:nonzero;display:inline;overflow:visible;visibility:visible;isolation:auto;mix-blend-mode:normal;color-interpolation:sRGB;color-interpolation-filters:linearRGB;solid-color:#000000;solid-opacity:1;vector-effect:none;fill:#999999;fill-opacity:1;fill-rule:nonzero;stroke:none;stroke-width:0.132292;stroke-linecap:round;stroke-linejoin:miter;stroke-miterlimit:5;stroke-dasharray:none;stroke-dashoffset:0;stroke-opacity:1;color-rendering:auto;image-rendering:auto;shape-rendering:auto;text-rendering:auto;enable-background:accumulate;stop-color:#000000"
     d="m 66.304436,99.561362 c -0.897831,6.324218 -1.529059,8.795628 -2.606808,12.653028 -1.07775,3.8574 -3.182741,9.32286 -3.724834,10.08468 -0.542093,0.76183 -1.112235,0.73737 -1.35363,-0.0706 -0.371898,0.31637 -0.206634,0.94475 0.24593,1.14654 0.452368,0.20163 0.933464,0.15642 1.316662,-0.36393 3.192453,-7.1549 5.493044,-14.94974 6.489187,-24.157488 -0.09486,-0.0203 -0.299539,0.0797 -0.366507,0.70778 z"
     id="path4832" />
  <path
     style="color:#000000;font-style:normal;font-variant:normal;font-weight:normal;font-stretch:normal;font-size:medium;line-height:normal;font-family:sans-serif;font-variant-ligatures:normal;font-variant-position:normal;font-variant-caps:normal;font-variant-numeric:normal;font-variant-alternates:normal;font-variant-east-asian:normal;font-feature-settings:normal;font-variation-settings:normal;text-indent:0;text-align:start;text-decoration:none;text-decoration-line:none;text-decoration-style:solid;text-decoration-color:#000000;letter-spacing:normal;word-spacing:normal;text-transform:none;writing-mode:lr-tb;direction:ltr;text-orientation:mixed;dominant-baseline:auto;baseline-shift:baseline;text-anchor:start;white-space:normal;shape-padding:0;shape-margin:0;inline-size:0;clip-rule:nonzero;display:inline;overflow:visible;visibility:visible;isolation:auto;mix-blend-mode:normal;color-interpolation:sRGB;color-interpolation-filters:linearRGB;solid-color:#000000;solid-opacity:1;vector-effect:none;fill:#999999;fill-opacity:1;fill-rule:nonzero;stroke:none;stroke-width:0.132292;stroke-linecap:round;stroke-linejoin:miter;stroke-miterlimit:5;stroke-dasharray:none;stroke-dashoffset:0;stroke-opacity:1;color-rendering:auto;image-rendering:auto;shape-rendering:auto;text-rendering:auto;enable-background:accumulate;stop-color:#000000"
     d="m 59.034281,122.57057 c 0.369665,0.15542 0.657732,-0.68653 1.110097,-1.73232 0.452364,-1.04578 3.240027,-8.54553 4.279985,-12.90946 1.039957,-4.36394 1.584295,-7.4192 1.765835,-9.526788 -0.0012,-0.53375 -0.208275,-0.74804 -0.638296,-0.76954 0.245217,0.23503 0.270285,0.43503 0.23664,0.826 -0.175866,2.041698 -0.767127,5.270678 -1.578651,8.760588 -0.518534,2.22992 -1.268524,4.97837 -1.917216,6.88838 -0.648682,1.91002 -2.161796,5.88553 -2.57263,6.83954 -0.410833,0.95399 -0.685764,1.6236 -0.685764,1.6236 z"
     id="path4799-6" />
  <path
     id="path4916"
     style="font-variation-settings:normal;vector-effect:none;fill:#999999;fill-opacity:1;stroke:none;stroke-width:0.132292;stroke-linecap:butt;stroke-linejoin:miter;stroke-miterlimit:5;stroke-dasharray:none;stroke-dashoffset:0;stroke-opacity:1;stop-color:#000000"
     d="m 57.482087,126.48862 c -0.471029,0.326 -1.261419,0.25396 -1.431166,0.10812 0.536633,-0.3234 1.017276,-0.32017 1.431166,-0.10812 z m -0.534736,1.49396 c -0.471033,0.32599 -1.396045,0.19294 -1.565784,0.0472 0.518417,-0.29478 1.167068,-0.28227 1.565784,-0.0472 z m -0.759527,1.42175 c -0.469384,0.32609 -1.355953,0.13917 -1.524857,-0.007 0.488882,-0.25346 1.159115,-0.38296 1.524857,0.007 z m -0.705093,1.30787 c -0.456206,0.32682 -1.406544,0.11562 -1.568663,-0.0296 0.521633,-0.32754 1.254864,-0.30952 1.568663,0.0296 z m -0.447512,0.95547 c -0.451305,0.3271 -1.510553,0.18999 -1.670125,0.0448 0.498197,-0.35574 1.277373,-0.34042 1.670125,-0.0448 z m 3.531286,-5.33254 c -0.331689,0.0358 -0.523226,0.13413 -0.696617,0.24328 2.24961,0.28016 4.482517,0.31655 5.146385,1.30227 -1.451801,-0.25581 -3.103195,-0.33115 -4.586365,-0.15826 -0.305215,0.0356 -0.582398,0.16144 -0.771765,0.28054 2.249612,0.28013 5.104451,0.29437 5.768324,1.28006 -1.719364,-0.0774 -4.484854,-0.1586 -5.923128,-0.0194 -0.285005,0.0276 -0.503638,0.0618 -0.70557,0.24522 2.35639,0.29419 5.001274,-0.005 5.629139,0.94692 -1.140267,-0.10336 -4.155457,-0.0562 -5.591333,0.10671 -0.282465,0.0319 -0.48007,0.11883 -0.665777,0.25491 2.304266,0.2935 5.85975,-0.0898 7.388758,0.79034 -2.034313,-0.12484 -5.548238,-0.25956 -6.962851,-0.10129 -0.330311,0.0411 -0.788933,0.1256 -1.038605,0.32539 2.35684,0.10737 5.762236,0.22814 7.299816,0.39454 l 20.136329,1e-5 -2.38395,-5.8064 c 0,0 -18.58293,-0.1408 -19.569782,-0.1408 -0.986854,0 -2.141318,0.0202 -2.473008,0.056 z" />
  <path
     style="font-variation-settings:normal;vector-effect:none;fill:#616161;fill-opacity:1;stroke:none;stroke-width:0.132292;stroke-linecap:butt;stroke-linejoin:miter;stroke-miterlimit:5;stroke-dasharray:none;stroke-dashoffset:0;stroke-opacity:1;stop-color:#000000"
     d="m 76.778135,126.94755 c 2.03721,0.19935 2.45368,0.31277 3.11361,0.11345 0,0 0.0466,0.66009 -1.50272,0.49264 -1.54572,-0.16707 -2.93178,-0.22528 -3.86084,0.0138 0,0 0.21274,-0.81924 2.24995,-0.61988 z"
     id="path4700-2" />
  <path
     style="font-variation-settings:normal;vector-effect:none;fill:#616161;fill-opacity:1;stroke:none;stroke-width:0.132292;stroke-linecap:butt;stroke-linejoin:miter;stroke-miterlimit:5;stroke-dasharray:none;stroke-dashoffset:0;stroke-opacity:1;stop-color:#000000"
     d="m 76.826335,127.91171 c 2.03721,0.19934 2.45368,0.31277 3.11361,0.11344 0,0 0.0466,0.66009 -1.50272,0.49264 -1.54571,-0.16706 -2.93177,-0.22527 -3.86083,0.0138 0,0 0.21274,-0.81923 2.24994,-0.61988 z"
     id="path4958" />
  <path
     style="font-variation-settings:normal;vector-effect:none;fill:#616161;fill-opacity:1;stroke:none;stroke-width:0.132292;stroke-linecap:butt;stroke-linejoin:miter;stroke-miterlimit:5;stroke-dasharray:none;stroke-dashoffset:0;stroke-opacity:1;stop-color:#000000"
     d="m 77.308415,128.97227 c 2.03721,0.19934 2.45368,0.31277 3.11361,0.11345 0,0 0.0466,0.66009 -1.50272,0.49264 -1.54572,-0.16707 -2.93178,-0.22528 -3.86084,0.0137 0,0 0.21275,-0.81923 2.24995,-0.61988 z"
     id="path4960" />
  <path
     style="font-variation-settings:normal;vector-effect:none;fill:#616161;fill-opacity:1;stroke:none;stroke-width:0.132292;stroke-linecap:butt;stroke-linejoin:miter;stroke-miterlimit:5;stroke-dasharray:none;stroke-dashoffset:0;stroke-opacity:1;stop-color:#000000"
     d="m 77.501245,129.93643 c 2.03721,0.19934 2.45368,0.31277 3.11361,0.11345 0,0 0.0466,0.66009 -1.50272,0.49264 -1.54572,-0.16707 -2.93178,-0.22528 -3.86084,0.0138 0,0 0.21274,-0.81924 2.24995,-0.61988 z"
     id="path4962" />
  <path
     style="font-variation-settings:normal;vector-effect:none;fill:#616161;fill-opacity:1;stroke:none;stroke-width:0.132292;stroke-linecap:butt;stroke-linejoin:miter;stroke-miterlimit:5;stroke-dasharray:none;stroke-dashoffset:0;stroke-opacity:1;stop-color:#000000"
     d="m 78.176145,130.99701 c 2.03721,0.19934 2.45368,0.31276 3.11361,0.11344 0,0 0.0466,0.66009 -1.50272,0.49264 -1.54571,-0.16707 -2.93177,-0.22527 -3.86083,0.0138 0,0 0.21274,-0.81923 2.24994,-0.61988 z"
     id="path4964" />
  <path
     id="path4624"
     style="fill:#cccccc;fill-opacity:1;fill-rule:evenodd;stroke:none;stroke-width:0.132292;stroke-linecap:round;stroke-linejoin:miter;stroke-miterlimit:4;stroke-dasharray:none"
     d="m 100.40315,88.781602 c -0.612065,-0.1974 -1.268445,0.13844 -1.465865,0.7505 -0.19741,0.61207 0.139,1.26816 0.75107,1.46558 l 8.563165,2.76208 c 0.61206,0.19742 1.26844,-0.13842 1.46586,-0.75049 0.19741,-0.61206 -0.139,-1.26815 -0.75105,-1.46556 z" />
  <path
     style="font-variation-settings:normal;vector-effect:none;fill:#cccccc;fill-opacity:1;stroke:none;stroke-width:0.132292;stroke-linecap:butt;stroke-linejoin:miter;stroke-miterlimit:5;stroke-dasharray:none;stroke-dashoffset:0;stroke-opacity:1;stop-color:#000000"
     d="m 108.80937,91.707082 c 0,0 0.45917,-2.70326 0.16993,-7.76507 -0.28924,-5.06181 -0.86775,-7.18295 -1.73548,-8.58097 -0.43387,-0.699014 -0.87066,-0.789228 -1.24221,-0.558603 -0.37153,0.230625 -0.43678,0.902603 -0.60964,1.486953 -0.30578,1.03367 -1.92405,8.7361 -4.65109,13.03119 z"
     id="path5035" />
  <path
     id="path5037"
     style="font-variation-settings:normal;vector-effect:none;fill:#ffffff;fill-opacity:1;stroke:none;stroke-width:0.132292;stroke-linecap:butt;stroke-linejoin:miter;stroke-miterlimit:5;stroke-dasharray:none;stroke-dashoffset:0;stroke-opacity:1;stop-color:#000000"
     d="m 106.11301,74.746882 c -0.42122,0.181203 -0.77213,0.7802 -0.96192,1.42175 -0.30579,1.03368 -2.26153,8.66424 -4.98856,12.95934 l 3.47385,1.03599 c -0.0399,-0.49095 -0.41872,-0.89218 -1.12497,-1.12001 -0.74723,-0.24103 -0.62675,-0.40964 -0.19288,-0.50606 0.43387,-0.0964 1.10911,0.38569 1.35017,0.0964 0.24102,-0.28925 -0.62675,-0.55431 -1.08471,-0.60251 -0.45798,-0.0482 -0.24145,-0.5307 0.38525,-0.50656 0.62671,0.0241 0.89185,0.38571 0.98827,0.19288 0.0964,-0.19282 -0.5785,-0.65051 -0.98827,-0.81925 -0.40976,-0.16873 -0.0478,-0.41014 0.45835,-0.50656 0.50618,-0.0964 0.77131,0.3136 0.94004,-0.0238 0.16873,-0.33746 -0.48231,-0.43402 -0.91618,-0.57865 -0.43387,-0.14462 0.024,-0.33708 0.31318,-0.48171 0.28925,-0.14458 0.8438,0.12023 0.81975,-0.16901 -0.0241,-0.28924 -0.86797,-0.24093 -0.86797,-0.50607 0,-0.26515 0.77138,-0.0962 1.18115,-0.26496 0.40976,-0.16872 -0.33716,-0.60306 -0.77103,-0.79589 -0.43386,-0.19282 0.33717,-0.2165 0.81925,-0.14416 0.48208,0.0723 0.33738,-0.55458 -0.28932,-0.7233 -0.62676,-0.16873 -0.48183,-0.28913 0.0243,-0.50607 0.50619,-0.21694 0.91614,-0.1691 0.6751,-0.45834 -0.24104,-0.28925 -0.79567,-0.26477 -0.77154,-0.48171 0.0241,-0.21693 1.01215,-0.33784 1.10857,-0.55478 0.0964,-0.21693 -0.53001,-0.2891 -0.86746,-0.40962 -0.33746,-0.12052 0.24072,-0.38551 0.67458,-0.45785 0.4339,-0.0723 0.57876,-0.40964 0.0726,-0.50606 -0.50617,-0.0964 -0.53012,-0.24142 -0.31318,-0.50656 0.21693,-0.26515 0.96412,-0.33737 0.84361,-0.60251 -0.12053,-0.26514 -0.72327,-0.24066 -0.57865,-0.48171 0.14462,-0.24103 0.72334,-0.3858 0.81975,-0.53042 0.0964,-0.14462 -0.33786,-0.28953 -0.60301,-0.31368 -0.26514,-0.0241 -0.31314,-0.0719 -0.1203,-0.2406 0.19283,-0.16873 0.86747,-0.33755 0.86747,-0.33755 -0.0938,-0.28141 -0.36347,-0.39302 -0.28883,-0.7233 0.061,-0.26955 0.1213,-0.702161 -0.0865,-0.847087 z" />
  <path
     id="path5039"
     style="font-variation-settings:normal;vector-effect:none;fill:#999999;fill-opacity:1;stroke:none;stroke-width:0.132292;stroke-linecap:butt;stroke-linejoin:miter;stroke-miterlimit:5;stroke-dasharray:none;stroke-dashoffset:0;stroke-opacity:1;stop-color:#000000"
     d="m 106.84824,75.861422 c 0.0567,0.41206 0.12169,0.88672 0.18692,1.39839 -0.23593,0.016 -0.62166,0.0562 -0.57069,0.15808 0.0555,0.11094 0.43346,0.33205 0.64128,0.45038 0.0244,0.20823 0.0493,0.40381 0.0721,0.62438 -0.39331,-0.10819 -0.85802,0.13025 -0.85802,0.13025 0.27579,0.23698 0.51263,0.30507 0.91072,0.4141 0.022,0.2433 0.0419,0.49215 0.0602,0.74766 -0.33747,-0.0314 -0.71219,0.0521 -1.01931,0.2848 0.31461,0.21972 0.61435,0.25117 1.02205,0.35542 0.0244,0.40548 0.0661,0.58335 0.0763,1.01418 -0.45913,-0.0297 -0.84732,-0.12575 -1.31487,0.0522 0.41779,0.39588 0.78552,0.36125 1.32332,0.52744 0.002,0.27397 -0.002,0.55308 -0.008,0.83516 -0.38288,-0.0756 -0.68254,-0.0939 -1.07427,0.084 0.29,0.26913 0.67407,0.35039 1.05687,0.49016 -0.0145,0.34828 -0.0365,0.7018 -0.0651,1.05985 -0.54958,-0.11561 -1.00949,-0.40147 -1.54603,-0.0557 0.42714,0.41867 0.9315,0.42895 1.49035,0.67558 -0.0262,0.25349 -0.0596,0.50984 -0.0939,0.76706 -0.60918,-0.0688 -1.11474,-0.30686 -1.70959,-0.0204 0.54981,0.37649 0.99129,0.37171 1.61762,0.67409 -0.0358,0.22244 -0.0752,0.44609 -0.11782,0.67061 -0.62753,-0.006 -1.17991,-0.29616 -1.78912,-0.0194 0.54011,0.27348 1.19554,0.33538 1.64844,0.70989 -0.031,0.1402 -0.0645,0.28077 -0.0984,0.42155 -0.61583,0.0417 -1.17951,-0.31312 -1.74289,0.0979 0.51055,0.31909 0.97469,0.39811 1.53957,0.69 -0.0533,0.19073 -0.10946,0.38181 -0.16852,0.57318 -0.63981,-0.10441 -1.28429,-0.66178 -1.85276,-0.17847 0.57301,0.31792 1.13199,0.37194 1.64645,0.8113 -0.0527,0.15381 -0.10633,0.30784 -0.16305,0.46182 l 2.18035,0.80383 c 0,0 0.85125,-2.48563 0.51054,-7.54424 -0.34092,-5.06181 -1.149,-7.21924 -1.79012,-8.16514 z" />
  <path
     id="path4968"
     style="fill:#ffffff;fill-opacity:1;fill-rule:evenodd;stroke:none;stroke-width:0.132292;stroke-linecap:round;stroke-linejoin:miter;stroke-miterlimit:4;stroke-dasharray:none"
     d="m 99.943795,88.729282 c -0.45207,0.0399 -0.85859,0.3438 -1.00666,0.80284 -0.16045,0.49749 0.0357,1.01971 0.44194,1.30543 0.003,-0.10281 0.015,-0.20638 0.0482,-0.30921 0.1883,-0.58378 0.814585,-0.90412 1.398395,-0.71584 l 7.95068,2.5383 c 0.32795,0.10578 0.7851,0.44775 0.90345,0.74465 0.012,-0.0291 0.028,-0.0555 0.0378,-0.086 0.19741,-0.61206 -0.13909,-1.26808 -0.75114,-1.4655 l -8.56333,-2.76247 c -0.15302,-0.0494 -0.30865,-0.0655 -0.459335,-0.0522 z" />
  <path
     id="path4971"
     style="fill:#999999;fill-opacity:1;fill-rule:evenodd;stroke:none;stroke-width:0.132292;stroke-linecap:round;stroke-linejoin:miter;stroke-miterlimit:4;stroke-dasharray:none"
     d="m 107.48672,92.927402 -7.723125,-2.51141 c 0.0285,0.22552 0.242925,0.4408 0.533155,0.53441 l 7.98323,2.57788 c 0.52729,0.17007 1.08604,-0.41747 0.5875,-0.94573 -0.22583,0.61864 -0.71712,0.51492 -1.38076,0.34485 z" />
  <g
     id="g5128"
     style="fill:#ea0606;fill-opacity:1;stroke:none;stroke-width:1.03952"
     transform="matrix(0.9619793,0,0,0.9619793,-25.054178,-23.930759)">
    <path
       style="font-variation-settings:normal;opacity:1;vector-effect:none;fill:#ea0606;fill-opacity:1;stroke:none;stroke-width:0.137521;stroke-linecap:butt;stroke-linejoin:miter;stroke-miterlimit:5;stroke-dasharray:none;stroke-dashoffset:0;stroke-opacity:1;stop-color:#000000;stop-opacity:1"
       d="m 84.253254,116.32217 c -0.992187,-0.63783 -1.630021,0.10631 -1.630021,0.10631 0,0 0.779573,0.67326 1.630021,-0.10631 z"
       id="path5125" />
    <path
       style="font-variation-settings:normal;opacity:1;vector-effect:none;fill:#ea0606;fill-opacity:1;stroke:none;stroke-width:0.137521;stroke-linecap:butt;stroke-linejoin:miter;stroke-miterlimit:5;stroke-dasharray:none;stroke-dashoffset:0;stroke-opacity:1;stop-color:#000000;stop-opacity:1"
       d="m 84.741054,117.55449 c -1.188802,-0.58379 -1.899967,0.19387 -1.899967,0.19387 0,0 0.941969,0.63062 1.899967,-0.19387 z"
       id="path5130" />
    <path
       style="font-variation-settings:normal;opacity:1;vector-effect:none;fill:#ea0606;fill-opacity:1;stroke:none;stroke-width:0.137521;stroke-linecap:butt;stroke-linejoin:miter;stroke-miterlimit:5;stroke-dasharray:none;stroke-dashoffset:0;stroke-opacity:1;stop-color:#000000;stop-opacity:1"
       d="m 85.265032,119.02412 c -1.220494,-0.51425 -1.885622,0.30313 -1.885622,0.30313 0,0 0.976773,0.57524 1.885622,-0.30313 z"
       id="path5132" />
    <path
       style="font-variation-settings:normal;opacity:1;vector-effect:none;fill:#ea0606;fill-opacity:1;stroke:none;stroke-width:0.137521;stroke-linecap:butt;stroke-linejoin:miter;stroke-miterlimit:5;stroke-dasharray:none;stroke-dashoffset:0;stroke-opacity:1;stop-color:#000000;stop-opacity:1"
       d="m 85.814968,120.25604 c -1.259964,-0.4081 -1.852831,0.46311 -1.852831,0.46311 0,0 1.022345,0.48969 1.852831,-0.46311 z"
       id="path5134" />
    <path
       style="font-variation-settings:normal;opacity:1;vector-effect:none;fill:#ea0606;fill-opacity:1;stroke:none;stroke-width:0.137521;stroke-linecap:butt;stroke-linejoin:miter;stroke-miterlimit:5;stroke-dasharray:none;stroke-dashoffset:0;stroke-opacity:1;stop-color:#000000;stop-opacity:1"
       d="m 86.338481,121.5101 c -1.305163,-0.22496 -1.768241,0.72165 -1.768241,0.72165 0,0 1.081546,0.33947 1.768241,-0.72165 z"
       id="path5136" />
    <path
       style="font-variation-settings:normal;opacity:1;vector-effect:none;fill:#ea0606;fill-opacity:1;stroke:none;stroke-width:0.137521;stroke-linecap:butt;stroke-linejoin:miter;stroke-miterlimit:5;stroke-dasharray:none;stroke-dashoffset:0;stroke-opacity:1;stop-color:#000000;stop-opacity:1"
       d="m 87.303785,122.80527 c -1.323954,-0.0347 -1.504176,0.86241 -1.504176,0.86241 0,0 0.977412,0.28652 1.504176,-0.86241 z"
       id="path5138" />
    <path
       style="font-variation-settings:normal;opacity:1;vector-effect:none;fill:#ea0606;fill-opacity:1;stroke:none;stroke-width:0.137521;stroke-linecap:butt;stroke-linejoin:miter;stroke-miterlimit:5;stroke-dasharray:none;stroke-dashoffset:0;stroke-opacity:1;stop-color:#000000;stop-opacity:1"
       d="m 88.105545,124.07854 c -1.321493,0.0878 -1.33672,0.97496 -1.33672,0.97496 0,0 0.918407,0.21774 1.33672,-0.97496 z"
       id="path5140" />
    <path
       style="font-variation-settings:normal;opacity:1;vector-effect:none;fill:#ea0606;fill-opacity:1;stroke:none;stroke-width:0.137521;stroke-linecap:butt;stroke-linejoin:miter;stroke-miterlimit:5;stroke-dasharray:none;stroke-dashoffset:0;stroke-opacity:1;stop-color:#000000;stop-opacity:1"
       d="m 89.027888,125.16238 c -1.302305,0.24095 -1.231716,1.14763 -1.231716,1.14763 0,0 0.955004,0.0856 1.231716,-1.14763 z"
       id="path5142" />
    <path
       style="font-variation-settings:normal;opacity:1;vector-effect:none;fill:#ea0606;fill-opacity:1;stroke:none;stroke-width:0.137521;stroke-linecap:butt;stroke-linejoin:miter;stroke-miterlimit:5;stroke-dasharray:none;stroke-dashoffset:0;stroke-opacity:1;stop-color:#000000;stop-opacity:1"
       d="m 89.99484,126.30849 c -1.271056,0.37212 -1.108643,1.26692 -1.108643,1.26692 0,0 0.958758,-0.0119 1.108643,-1.26692 z"
       id="path5144" />
    <path
       style="font-variation-settings:normal;opacity:1;vector-effect:none;fill:#ea0606;fill-opacity:1;stroke:none;stroke-width:0.137521;stroke-linecap:butt;stroke-linejoin:miter;stroke-miterlimit:5;stroke-dasharray:none;stroke-dashoffset:0;stroke-opacity:1;stop-color:#000000;stop-opacity:1"
       d="m 90.940796,127.20134 c -1.214798,0.52757 -0.94218,1.39516 -0.94218,1.39516 0,0 0.949807,-0.13124 0.94218,-1.39516 z"
       id="path5146" />
    <path
       style="font-variation-settings:normal;opacity:1;vector-effect:none;fill:#ea0606;fill-opacity:1;stroke:none;stroke-width:0.137521;stroke-linecap:butt;stroke-linejoin:miter;stroke-miterlimit:5;stroke-dasharray:none;stroke-dashoffset:0;stroke-opacity:1;stop-color:#000000;stop-opacity:1"
       d="m 91.965405,127.96965 c -1.153222,0.65127 -0.791697,1.48573 -0.791697,1.48573 0,0 0.930965,-0.22948 0.791697,-1.48573 z"
       id="path5148" />
  </g>
  <g
     id="g5252"
     transform="matrix(0.95547009,0.1117187,-0.1117187,0.95547009,-35.041415,-24.429512)"
     style="fill:#ffffff;stroke:none;stroke-width:1.03952">
    <path
       style="font-variation-settings:normal;opacity:1;vector-effect:none;fill:#ffffff;fill-opacity:1;stroke:none;stroke-width:0.137521;stroke-linecap:butt;stroke-linejoin:miter;stroke-miterlimit:5;stroke-dasharray:none;stroke-dashoffset:0;stroke-opacity:1;stop-color:#000000;stop-opacity:1"
       d="m 86.707815,121.47889 c -1.32096,-0.0955 -1.688697,0.89205 -1.688697,0.89205 0,0 1.109689,0.23146 1.688697,-0.89205 z"
       id="path5238" />
    <path
       style="font-variation-settings:normal;opacity:1;vector-effect:none;fill:#ffffff;fill-opacity:1;stroke:none;stroke-width:0.137521;stroke-linecap:butt;stroke-linejoin:miter;stroke-miterlimit:5;stroke-dasharray:none;stroke-dashoffset:0;stroke-opacity:1;stop-color:#000000;stop-opacity:1"
       d="m 87.77503,122.95199 c -1.323954,-0.0347 -1.504176,0.86241 -1.504176,0.86241 0,0 0.977412,0.28652 1.504176,-0.86241 z"
       id="path5240" />
    <path
       style="font-variation-settings:normal;opacity:1;vector-effect:none;fill:#ffffff;fill-opacity:1;stroke:none;stroke-width:0.137521;stroke-linecap:butt;stroke-linejoin:miter;stroke-miterlimit:5;stroke-dasharray:none;stroke-dashoffset:0;stroke-opacity:1;stop-color:#000000;stop-opacity:1"
       d="m 88.649844,124.41854 c -1.321493,0.0878 -1.33672,0.97496 -1.33672,0.97496 0,0 0.918407,0.21774 1.33672,-0.97496 z"
       id="path5242" />
    <path
       style="font-variation-settings:normal;opacity:1;vector-effect:none;fill:#ffffff;fill-opacity:1;stroke:none;stroke-width:0.137521;stroke-linecap:butt;stroke-linejoin:miter;stroke-miterlimit:5;stroke-dasharray:none;stroke-dashoffset:0;stroke-opacity:1;stop-color:#000000;stop-opacity:1"
       d="m 89.850155,125.72215 c -1.302305,0.24095 -1.231716,1.14763 -1.231716,1.14763 0,0 0.955004,0.0856 1.231716,-1.14763 z"
       id="path5244" />
    <path
       style="font-variation-settings:normal;opacity:1;vector-effect:none;fill:#ffffff;fill-opacity:1;stroke:none;stroke-width:0.137521;stroke-linecap:butt;stroke-linejoin:miter;stroke-miterlimit:5;stroke-dasharray:none;stroke-dashoffset:0;stroke-opacity:1;stop-color:#000000;stop-opacity:1"
       d="m 90.855242,126.76288 c -1.271056,0.37212 -1.108643,1.26692 -1.108643,1.26692 0,0 0.958758,-0.0119 1.108643,-1.26692 z"
       id="path5246" />
    <path
       style="font-variation-settings:normal;opacity:1;vector-effect:none;fill:#ffffff;fill-opacity:1;stroke:none;stroke-width:0.137521;stroke-linecap:butt;stroke-linejoin:miter;stroke-miterlimit:5;stroke-dasharray:none;stroke-dashoffset:0;stroke-opacity:1;stop-color:#000000;stop-opacity:1"
       d="m 91.673191,128.08658 c -1.111053,0.19435 -0.790894,1.16341 -0.790894,1.16341 0,0 0.922842,-0.0567 0.790894,-1.16341 z"
       id="path5248" />
    <path
       style="font-variation-settings:normal;opacity:1;vector-effect:none;fill:#ffffff;fill-opacity:1;stroke:none;stroke-width:0.137521;stroke-linecap:butt;stroke-linejoin:miter;stroke-miterlimit:5;stroke-dasharray:none;stroke-dashoffset:0;stroke-opacity:1;stop-color:#000000;stop-opacity:1"
       d="m 92.969907,129.20328 c -0.956236,0.20011 -0.590596,1.06977 -0.590596,1.06977 0,0 0.908115,-0.11978 0.590596,-1.06977 z"
       id="path5250" />
    <path
       style="font-variation-settings:normal;opacity:1;vector-effect:none;fill:#ffffff;fill-opacity:1;stroke:none;stroke-width:0.137521;stroke-linecap:butt;stroke-linejoin:miter;stroke-miterlimit:5;stroke-dasharray:none;stroke-dashoffset:0;stroke-opacity:1;stop-color:#000000;stop-opacity:1"
       d="m 85.713557,119.87969 c -1.32096,-0.0955 -1.688697,0.89205 -1.688697,0.89205 0,0 1.109689,0.23146 1.688697,-0.89205 z"
       id="path5278" />
    <path
       style="font-variation-settings:normal;opacity:1;vector-effect:none;fill:#ffffff;fill-opacity:1;stroke:none;stroke-width:0.137521;stroke-linecap:butt;stroke-linejoin:miter;stroke-miterlimit:5;stroke-dasharray:none;stroke-dashoffset:0;stroke-opacity:1;stop-color:#000000;stop-opacity:1"
       d="m 85.266682,118.02805 c -1.65413,-0.2782 -2.235762,0.92302 -2.235762,0.92302 0,0 1.371507,0.42439 2.235762,-0.92302 z"
       id="path5280" />
    <path
       style="font-variation-settings:normal;opacity:1;vector-effect:none;fill:#ffffff;fill-opacity:1;stroke:none;stroke-width:0.137521;stroke-linecap:butt;stroke-linejoin:miter;stroke-miterlimit:5;stroke-dasharray:none;stroke-dashoffset:0;stroke-opacity:1;stop-color:#000000;stop-opacity:1"
       d="m 84.404678,116.22716 c -1.65026,-0.3003 -2.24791,0.89303 -2.24791,0.89303 0,0 1.365707,0.4427 2.24791,-0.89303 z"
       id="path5282" />
    <path
       style="font-variation-settings:normal;opacity:1;vector-effect:none;fill:#ffffff;fill-opacity:1;stroke:none;stroke-width:0.137521;stroke-linecap:butt;stroke-linejoin:miter;stroke-miterlimit:5;stroke-dasharray:none;stroke-dashoffset:0;stroke-opacity:1;stop-color:#000000;stop-opacity:1"
       d="m 83.509494,114.38222 c -1.611703,-0.4647 -2.32631,0.66249 -2.32631,0.66249 0,0 1.314274,0.57777 2.32631,-0.66249 z"
       id="path5284" />
    <path
       style="font-variation-settings:normal;opacity:1;vector-effect:none;fill:#ffffff;fill-opacity:1;stroke:none;stroke-width:0.137521;stroke-linecap:butt;stroke-linejoin:miter;stroke-miterlimit:5;stroke-dasharray:none;stroke-dashoffset:0;stroke-opacity:1;stop-color:#000000;stop-opacity:1"
       d="m 82.858982,112.69643 c -1.610116,-0.47017 -2.328546,0.65458 -2.328546,0.65458 0,0 1.312304,0.58223 2.328546,-0.65458 z"
       id="path5286" />
    <path
       style="font-variation-settings:normal;opacity:1;vector-effect:none;fill:#ffffff;fill-opacity:1;stroke:none;stroke-width:0.137521;stroke-linecap:butt;stroke-linejoin:miter;stroke-miterlimit:5;stroke-dasharray:none;stroke-dashoffset:0;stroke-opacity:1;stop-color:#000000;stop-opacity:1"
       d="m 82.340918,110.8173 c -1.598661,-0.50776 -2.343241,0.59985 -2.343241,0.59985 0,0 1.298306,0.61281 2.343241,-0.59985 z"
       id="path5288" />
    <path
       style="font-variation-settings:normal;opacity:1;vector-effect:none;fill:#ffffff;fill-opacity:1;stroke:none;stroke-width:0.137521;stroke-linecap:butt;stroke-linejoin:miter;stroke-miterlimit:5;stroke-dasharray:none;stroke-dashoffset:0;stroke-opacity:1;stop-color:#000000;stop-opacity:1"
       d="m 94.149229,130.13569 c -0.956236,0.20011 -0.590596,1.06977 -0.590596,1.06977 0,0 0.908115,-0.11978 0.590596,-1.06977 z"
       id="path5290" />
    <path
       style="font-variation-settings:normal;opacity:1;vector-effect:none;fill:#ffffff;fill-opacity:1;stroke:none;stroke-width:0.137521;stroke-linecap:butt;stroke-linejoin:miter;stroke-miterlimit:5;stroke-dasharray:none;stroke-dashoffset:0;stroke-opacity:1;stop-color:#000000;stop-opacity:1"
       d="m 95.503311,131.09124 c -0.936637,0.27775 -0.501007,1.11454 -0.501007,1.11454 0,0 0.895256,-0.19374 0.501007,-1.11454 z"
       id="path5292" />
    <path
       style="font-variation-settings:normal;opacity:1;vector-effect:none;fill:#ffffff;fill-opacity:1;stroke:none;stroke-width:0.137521;stroke-linecap:butt;stroke-linejoin:miter;stroke-miterlimit:5;stroke-dasharray:none;stroke-dashoffset:0;stroke-opacity:1;stop-color:#000000;stop-opacity:1"
       d="m 96.8253,131.93477 c -0.804408,0.23973 -0.429509,0.96455 -0.429509,0.96455 0,0 0.768926,-0.16703 0.429509,-0.96455 z"
       id="path5294" />
    <path
       style="font-variation-settings:normal;opacity:1;vector-effect:none;fill:#ffffff;fill-opacity:1;stroke:none;stroke-width:0.137521;stroke-linecap:butt;stroke-linejoin:miter;stroke-miterlimit:5;stroke-dasharray:none;stroke-dashoffset:0;stroke-opacity:1;stop-color:#000000;stop-opacity:1"
       d="m 98.158043,132.68514 c -0.781311,0.30675 -0.346588,0.99735 -0.346588,0.99735 0,0 0.75209,-0.23132 0.346588,-0.99735 z"
       id="path5296" />
  </g>
</svg>
