<?xml version="1.0" encoding="UTF-8" standalone="no"?>
<svg
   xmlns:dc="http://purl.org/dc/elements/1.1/"
   xmlns:cc="http://creativecommons.org/ns#"
   xmlns:rdf="http://www.w3.org/1999/02/22-rdf-syntax-ns#"
   xmlns:svg="http://www.w3.org/2000/svg"
   xmlns="http://www.w3.org/2000/svg"
   width="500"
   height="575.00006"
   viewBox="0 0 132.29166 152.13544"
   version="1.1"
   id="svg847">
  <defs
     id="defs841" />
  <metadata
     id="metadata844">
    <rdf:RDF>
      <cc:Work
         rdf:about="">
        <dc:format>image/svg+xml</dc:format>
        <dc:type
           rdf:resource="http://purl.org/dc/dcmitype/StillImage" />
        <dc:title></dc:title>
      </cc:Work>
    </rdf:RDF>
  </metadata>
  <path
     id="path844"
     style="fill:#000000;fill-rule:evenodd;stroke:none;stroke-width:0.264582;stroke-miterlimit:5;stroke-dasharray:none"
     d="m 0.885777,96.808069 c 5.164157,31.384211 32.413852,55.327361 65.260312,55.327361 32.846459,0 60.095731,-23.94315 65.259801,-55.327361 l 0.88578,-56.567238 V 0 H 0 v 40.226419 z" />
  <path
     id="path875"
     style="fill:#bfbfbf;fill-opacity:1;fill-rule:evenodd;stroke:none;stroke-width:0.264582;stroke-miterlimit:5;stroke-dasharray:none"
     d="m 0,40.226419 v 45.76292 c 0,3.6849 0.306431,7.29788 0.885777,10.81873 8.152368,0.67685 12.747382,10.503231 21.162919,10.503231 8.715676,0 13.333018,-10.540801 22.048697,-10.540801 8.715678,0 13.332504,10.540801 22.048182,10.540801 8.715683,0 13.333003,-10.540801 22.048693,-10.540801 8.71566,0 13.333042,10.540801 22.048702,10.540801 8.41555,0 13.01055,-9.826381 21.16292,-10.503231 0.57934,-3.52085 0.88578,-7.13383 0.88578,-10.81873 V 40.240831 c -8.71568,0 -13.33301,9.999347 -22.0487,9.999347 -8.71566,0 -13.333042,-10.540799 -22.048702,-10.540799 -8.71569,0 -13.33301,10.540799 -22.048693,10.540799 -8.715678,0 -13.332504,-10.540799 -22.048182,-10.540799 -8.715679,0 -13.333021,10.540799 -22.048697,10.540799 C 13.333018,50.240178 9.769756,40.226419 0,40.226419 Z" />
  <path
     id="path873"
     style="fill:#ffffff;fill-rule:evenodd;stroke:none;stroke-width:0.264582;stroke-miterlimit:5;stroke-dasharray:none"
     d="m 0,39.172339 v 1.05408 c 9.242718,0 13.860057,10.540799 22.575736,10.540799 8.715676,0 13.333018,-10.540799 22.048697,-10.540799 8.715678,0 13.332504,10.540799 22.048182,10.540799 8.715683,0 13.333003,-10.540799 22.048693,-10.540799 8.71566,0 13.333042,10.540799 22.048702,10.540799 8.53815,0 13.14376,-10.114266 21.52166,-10.526387 v -1.068492 c -8.71568,0 -13.33301,10.540799 -22.0487,10.540799 -8.71566,0 -13.333042,-10.540799 -22.048702,-10.540799 -8.71569,0 -13.33301,10.540799 -22.048693,10.540799 -8.715678,0 -13.332504,-10.540799 -22.048182,-10.540799 -8.715679,0 -13.333021,10.540799 -22.048697,10.540799 C 13.333018,49.713138 8.715676,39.172339 0,39.172339 Z" />
  <path
     id="path940"
     style="font-variation-settings:normal;vector-effect:none;fill:#990000;fill-opacity:1;stroke:none;stroke-width:0.132292;stroke-linecap:butt;stroke-linejoin:miter;stroke-miterlimit:5;stroke-dasharray:none;stroke-dashoffset:0;stroke-opacity:1;stop-color:#000000"
     d="m 57.683598,54.205849 -22.591693,18.80719 -23.057999,11.14865 -1.132311,1.3423 c 4.945026,1.76668 20.382301,6.01979 23.504747,6.01979 h 57.270306 c 4.49205,0 7.4949,-0.0244 11.487832,-0.72314 3.99292,-0.69876 18.48757,-5.0671 18.48757,-5.0671 1.12336,-2.86957 2.03515,-5.95024 2.8946,-9.08372 l -1.94912,1.44319 c -19.71302,1.80945 -41.821792,1.08328 -62.732685,0.12352 -1.532142,-0.71112 -3.115634,-1.21683 -4.52462,-2.42057 -1.891807,-0.99354 -3.207923,-2.80339 -3.564724,-6.13353 -0.870175,-8.12163 7.886041,-15.12358 7.886041,-15.12358 z m -16.1406,22.52323 c 1.950299,-7e-5 3.531345,1.58098 3.531271,3.53128 7.4e-5,1.95029 -1.331414,3.7809 -3.281712,3.78082 -0.848935,4e-5 -1.875785,-0.54814 -2.484846,-1.04732 -0.790162,-0.64761 -1.296025,-1.63214 -1.295983,-2.7335 -7.4e-5,-1.9503 1.580972,-3.53135 3.53127,-3.53128 z" />
  <path
     id="path938"
     style="font-variation-settings:normal;vector-effect:none;fill:#ff907c;fill-opacity:1;stroke:none;stroke-width:0.132292;stroke-linecap:butt;stroke-linejoin:miter;stroke-miterlimit:5;stroke-dasharray:none;stroke-dashoffset:0;stroke-opacity:1;stop-color:#000000"
     d="m 54.670618,49.198452 c 0,0 -6.581361,2.288017 -13.276877,9.383267 -6.695519,7.09525 -7.586314,12.77741 -14.77359,15.87193 -7.187276,3.09453 -17.835981,2.65064 -17.835981,2.65064 0.705856,3.88221 2.117425,8.3997 2.117425,8.3997 0.467956,-0.2664 0.863652,-0.67731 1.132311,-1.3423 l 23.058142,-11.14852 22.59155,-18.80732 c 0.594359,0.30586 1.29334,0.47433 1.977944,0.333 -1.508125,-1.81908 -2.968239,-3.649956 -4.990924,-5.340397 z m 0.669607,26.597507 c 0.112365,1.35769 2.705123,2.15398 4.52462,2.42057 21.210733,1.45803 42.651365,1.47011 62.732685,-0.12352 0.78726,-0.16012 1.4782,-0.86106 1.94912,-1.44319 l -58.496292,0.29955 c -4.063571,0 -7.988153,0.27611 -10.710133,-1.15341 z" />
  <path
     id="path929"
     style="font-variation-settings:normal;vector-effect:none;fill:#e8110d;fill-opacity:1;stroke:none;stroke-width:0.132292;stroke-linecap:butt;stroke-linejoin:miter;stroke-miterlimit:5;stroke-dasharray:none;stroke-dashoffset:0;stroke-opacity:1;stop-color:#000000"
     d="m 54.536284,50.854715 c -7.268498,3.372044 -13.313842,9.399334 -17.588415,16.003694 -2.310275,3.42405 -3.941329,6.18887 -8.841815,8.6344 -4.900487,2.44552 -11.756713,3.20193 -17.373278,3.20547 0.416478,1.89066 0.757992,3.60211 1.30113,5.46341 6.399003,2.08612 10.742133,3.203349 15.49485,4.3908 4.721271,1.179594 5.654791,1.38965 10.576924,1.38965 4.922133,0 39.945598,0.0421 58.571158,-0.0545 4.331852,-0.12126 8.592612,-1.03992 12.731822,-2.27595 3.6951,-1.00354 7.36899,-2.08319 11.03954,-3.17305 0.76363,-2.03233 1.55258,-4.25888 2.14933,-6.34558 -20.57808,0.0928 -42.154912,0.0936 -62.732685,0.12352 -2.984693,-0.0713 -5.787315,-1.19769 -7.731637,-3.97544 -1.944322,-2.77776 -2.322631,-6.15291 -1.319658,-9.97413 1.002973,-3.82121 3.797779,-7.11244 6.870048,-10.06111 -1.295243,-1.48588 -1.94311,-2.36063 -3.147314,-3.351134 z M 41.078236,75.811399 c 2.456939,1.7e-4 4.448558,1.99202 4.448444,4.44896 1.16e-4,2.45693 -1.211765,4.41995 -3.932213,4.42013 -2.72067,1.3e-4 -4.965305,-1.963 -4.965189,-4.42013 -1.13e-4,-2.45714 1.991819,-4.44908 4.448958,-4.44896 z" />
  <path
     id="path1874"
     style="font-variation-settings:normal;vector-effect:none;fill:#ff907c;fill-opacity:1;stroke:none;stroke-width:0.132292;stroke-linecap:butt;stroke-linejoin:miter;stroke-miterlimit:5;stroke-dasharray:none;stroke-dashoffset:0;stroke-opacity:1;stop-color:#000000"
     d="m 44.088127,82.707689 c -0.665651,0.69242 -1.584643,1.08381 -2.545129,1.08394 -0.814822,-6e-5 -1.604552,-0.28191 -2.235287,-0.79777 0.266503,0.52855 0.912963,1.38572 2.286756,1.68663 1.373793,0.30091 2.823651,-0.14128 3.529507,-1.05893 0.384376,-0.49969 -0.333864,-0.66722 -1.035847,-0.91387 z" />
  <path
     id="path944"
     style="font-variation-settings:normal;vector-effect:none;fill:#990000;fill-opacity:1;stroke:none;stroke-width:0.132292;stroke-linecap:butt;stroke-linejoin:miter;stroke-miterlimit:5;stroke-dasharray:none;stroke-dashoffset:0;stroke-opacity:1;stop-color:#000000"
     d="m 65.684347,61.244029 -12.469513,6.46884 -1.439333,1.94956 -0.166244,2.52866 1.696923,2.44579 c 1.44566,-0.92491 4.110585,-3.04262 3.893097,-4.49219 3.048001,-0.40077 6.035051,-1.432 8.035816,-4.34242 2.422349,-0.34782 5.148932,-1.00245 6.787697,-4.09279 2.487268,0.44357 5.797388,-0.61373 6.838138,-2.54513 2.23574,0.74251 4.43532,0.75835 6.53859,-1.14827 2.44928,0.97765 4.8023,0.94756 6.23853,0.0499 1.21504,1.08717 3.09814,2.88322 4.54212,2.54565 l 1.35032,2.57977 -1.74964,6.28796 -14.4743,8.78448 -14.773928,3.79327 -18.499324,-1.65619 -8.018405,-1.12261 c -0.02585,2.25999 1.914691,5.24097 5.804647,4.84167 1.971256,1.28586 4.171021,1.99965 6.937472,1.29753 2.108571,1.21078 4.459188,1.88913 7.886041,0.19969 2.088209,0.84707 5.006026,0.90937 7.886041,-0.89813 2.734532,0.82908 5.584376,0.33427 8.584986,-1.89662 2.54421,0.95866 7.24525,-0.7126 8.38529,-3.14474 2.9249,-0.13491 5.521,-1.49369 7.58649,-3.4937 2.64345,-0.67969 5.23757,-2.67262 5.88957,-5.44025 3.321632,-1.70886 4.314562,-5.66137 3.144232,-7.78619 0.94107,-3.43754 -0.61691,-6.05116 -2.554912,-7.07695 l -1.13849,-0.41021 c -0.48699,-1.01839 -1.3959,-1.84541 -2.49418,-2.41388 l -14.48861,1.5945 z" />
  <path
     id="path968"
     style="font-variation-settings:normal;vector-effect:none;fill:#ff907c;fill-opacity:1;stroke:none;stroke-width:0.132292;stroke-linecap:butt;stroke-linejoin:miter;stroke-miterlimit:5;stroke-dasharray:none;stroke-dashoffset:0;stroke-opacity:1;stop-color:#000000"
     d="m 86.091258,51.647849 c -1.37446,0.0152 -2.77193,0.39827 -4.18595,1.22753 -3.3794,-0.64868 -5.5076,0.50984 -7.08725,2.29602 -3.171756,0.14597 -6.411932,0.57884 -8.08574,3.79325 -3.826162,0.50382 -7.05979,1.97712 -8.185589,4.64145 -3.240622,0.44608 -5.279428,2.09246 -6.48815,4.09279 -0.115522,0.0224 -0.217926,0.0526 -0.31396,0.0865 -0.04062,0.61744 -0.03704,1.24318 0.03088,1.87707 l 1.930078,-0.83225 c 0,0 1.20172,0.58379 2.545129,0.1997 l 5.241062,-4.49168 c 0,0 1.576413,0.43216 2.545131,0.0993 l 4.542115,-4.39183 c 0,0 0.960554,0.47564 2.046399,0.14978 l 5.540095,-3.64347 c 0,0 1.45833,0.84325 2.29602,0.89812 l 4.6919,-2.79526 c 1.45429,1.31443 2.8946,1.74736 2.8946,1.74736 l 4.89159,-1.29804 c 0,0 1.04709,1.25217 1.49722,1.59707 l 4.47367,-0.9254 c 0,0 -0.0546,-1.57917 -0.97843,-2.91931 -1.75347,-0.90761 -3.99281,-1.15157 -5.79126,-0.43079 -1.32353,-0.64064 -2.67509,-0.99314 -4.04956,-0.97791 z m 12.335,3.82258 c 0,0 -0.13963,1.31699 -1.48075,1.3876 l -0.36595,2.53896 c -0.0838,0.80967 -0.39939,1.21466 -0.39939,1.21466 -0.39423,1.69245 -0.23719,3.14879 0.29954,4.44226 -1.86036,1.53063 -3.1632,3.06091 -3.69339,4.59153 -2.79532,0.71525 -4.72467,1.89669 -5.78972,3.54363 -3.11646,0.43741 -5.66526,1.39583 -7.18761,3.29451 -3.61583,-0.21387 -5.85026,0.74654 -7.137174,2.2461 -4.309211,-0.71854 -6.482081,0.11734 -7.886044,1.2476 -3.232405,-0.9555 -5.411931,-0.66686 -7.187094,0.0999 -2.827317,-1.11344 -5.025666,-1.16606 -6.738291,-0.74887 -1.706481,-1.25116 -3.812657,-1.46955 -5.789718,-1.49723 -0.708843,-0.57575 -1.444232,-0.89672 -2.466381,-0.92747 -1.034482,-0.0311 -2.563149,0.0806 -2.589395,2.37477 0.314437,0.62396 1.022447,1.2941 1.486345,1.60472 l 3.319809,-0.62269 c 0.194673,0.68522 0.04107,1.4202 0.649021,2.04639 l 6.338889,0.49874 c 0,0 0.370058,0.45152 0.798281,0.94857 l 6.488666,-0.5991 c 0,0 0.532892,0.42454 0.948569,0.64902 l 6.488149,-1.74685 c 0,0 0.931433,0.67353 1.696924,1.09783 l 6.438744,-2.4458 c 0,0 0.70666,0.39941 1.2476,0.54917 l 6.68836,-3.0943 c 0,0 0.90641,0.1999 1.39738,0.0499 l 6.18912,-3.69391 c 0.0257,-0.0274 0.43645,0.17564 0.84872,-0.0494 l 5.04084,-4.2925 c 0,0 0.93519,-0.11345 1.44731,-0.39939 l 1.64751,-5.63995 c 0,0 1.066282,-0.60314 1.147752,-1.34797 l -0.30675,-4.83857 c 0,0 0.14271,-1.01924 -0.451382,-2.07162 -0.37059,-0.19616 -0.75491,-0.3356 -1.13849,-0.41021 z" />
  <path
     id="path959"
     style="font-variation-settings:normal;vector-effect:none;fill:#e8110d;fill-opacity:1;stroke:none;stroke-width:0.132292;stroke-linecap:butt;stroke-linejoin:miter;stroke-miterlimit:5;stroke-dasharray:none;stroke-dashoffset:0;stroke-opacity:1;stop-color:#000000"
     d="m 86.054718,52.798179 c -1.49931,-0.0357 -2.76401,0.50962 -2.80145,0.80908 -0.0499,0.3993 0.74862,0.64877 1.74685,1.647 0.99824,0.99824 1.04791,1.34797 1.04791,1.34797 0,0 2.24629,1.04816 4.94151,0.0999 0,0 -0.59897,-0.5993 -0.0499,-1.39789 0,0 -1.28358,-1.55931 -3.34393,-2.2461 -0.51508,-0.17169 -1.0412,-0.248 -1.54097,-0.25991 z m 6.81601,0.73806 c -1.1625,0.0414 -1.98104,0.47042 -1.98104,0.47042 0,0 0.34911,0.79841 0.94806,1.29753 0.59894,0.49912 0.69891,1.14787 0.59909,1.59707 0,0 2.09635,2.34599 4.14272,2.49573 0,0 0.29961,-1.09808 0.49925,-2.0464 0.19964,-0.94832 0.39932,-2.14603 -1.8467,-3.294 -0.84226,-0.43049 -1.66389,-0.54521 -2.36138,-0.52035 z m -12.4575,0.54454 c -0.37589,0.007 -0.77908,0.059 -1.20282,0.17551 -2.25999,0.62149 -2.99497,1.49722 -2.99497,1.49722 1.06507,0.3994 1.74784,1.09837 2.24609,1.89662 1.68663,0.91088 4.39365,0.75381 5.59002,-0.44932 0,0 -0.39901,-0.44901 -0.89812,-1.2476 -0.49912,-0.79859 0,-1.09834 0,-1.09834 0,0 -1.11135,-0.80532 -2.7402,-0.77409 z m -6.53756,2.18021 c -0.62262,-0.009 -1.337712,0.0761 -2.101986,0.34124 -2.445671,0.8485 -3.743836,2.6949 -3.743836,2.6949 0,0 0.898853,0.14987 1.69744,0.49925 0.798584,0.34938 0.898129,0.5991 0.898129,0.5991 2.300978,0.40397 4.978953,0.0885 7.087763,-1.89663 0,0 -0.69908,-0.49935 -1.19819,-0.89864 -0.49912,-0.3993 -0.34948,-0.8482 -0.34948,-0.8482 0,0 -0.92008,-0.47185 -2.28984,-0.49102 z m 24.6314,0.54763 c -0.50864,-0.0239 -0.70186,0.3565 -0.8796,1.04121 -0.27774,1.06989 -0.89697,4.64329 0.14977,6.23905 0,0 0.69912,-0.44943 1.39789,-0.84872 0.69876,-0.39929 1.147752,-0.44933 1.147752,-0.44933 0,0 0.64169,-0.9619 0.5991,-2.4952 -0.0425,-1.5333 -0.24995,-2.59572 -1.497742,-3.19467 -0.38993,-0.18717 -0.68597,-0.28149 -0.91717,-0.29234 z m -31.413954,3.294 c -0.915381,0.0147 -2.175394,0.20166 -3.554945,0.89144 -2.759102,1.37954 -3.044892,2.64549 -3.044892,2.64549 0,0 0.948369,0.05 2.146246,0.24963 1.197881,0.19964 1.397378,0.74835 1.397378,0.74835 0,0 1.597187,0.19993 3.992945,-0.89813 2.395758,-1.09805 2.545645,-2.29602 2.545645,-2.29602 -0.872024,-0.60612 -1.731779,-0.67427 -1.996475,-1.19768 0,0 -0.57052,-0.15781 -1.485902,-0.14308 z m 34.028566,3.48701 c 0,0 -0.39958,0.34951 -1.09834,0.49925 -0.698762,0.14973 -0.848212,0.0499 -0.848212,0.0499 0,0 -0.14973,-7e-5 -1.94655,1.69692 -1.79682,1.697 -2.69541,3.6934 -2.69541,3.6934 0,0 0.94831,0.0499 1.94654,-0.0499 0.99824,-0.0998 0.99799,-0.0498 1.04791,0.29955 0,0 1.54747,-0.19968 2.795262,-2.09633 1.24779,-1.89663 0.7988,-4.09279 0.7988,-4.09279 z m -40.066879,0.94496 c -0.823542,0.009 -2.657723,0.1031 -4.155072,0.70204 -1.996465,0.79859 -3.19415,2.54564 -3.19415,2.54564 0,0 0.548852,0.44936 1.297528,0.54917 0.748673,0.0998 1.047956,0.29915 1.247601,0.69844 2.445671,-0.1341 4.891714,-0.67785 7.337385,-3.44378 0,0 -1.097972,-0.1498 -1.647,-0.24962 -0.549028,-0.0998 -0.449323,-0.79828 -0.449323,-0.79828 0,0 -0.162455,-0.007 -0.436969,-0.004 z m -7.349222,4.29559 c 0,0 -1.064966,-0.0327 -1.930078,0.83225 0.170576,1.59205 0.562568,2.83362 1.129739,3.80765 0.472344,-0.35648 2.217415,-1.73374 2.996509,-3.29194 0,0 -0.549431,-0.44932 -1.547663,-0.44932 -0.998232,0 -0.648507,-0.89864 -0.648507,-0.89864 z m 42.374729,1.34796 c 0,0 -2.09638,0.0496 -4.29249,1.04791 -2.19612,0.99823 -3.19415,2.19617 -3.19415,2.19617 0,0 0.94824,0.19974 1.647,0.3994 0.69877,0.19964 0.7988,0.24972 0.7988,0.64902 0,0 1.74687,0.59874 3.79324,-0.74887 2.04639,-1.34762 2.49572,-2.89512 2.49572,-2.89512 0,0 -0.74897,-0.0499 -1.14826,-0.14977 -0.39929,-0.0998 -0.0999,-0.49874 -0.0999,-0.49874 z m -8.03735,4.19471 c -0.46325,0.007 -0.9966,0.0354 -1.59553,0.0978 -2.39576,0.24955 -4.54212,2.34543 -4.54212,2.34543 0,0 2.14624,0.44958 2.09632,1.39789 0,0 1.3975,0.29934 3.79325,-0.44932 2.39576,-0.74868 3.39436,-1.99648 3.39436,-1.99648 0,0 -0.59922,-0.2996 -1.04842,-0.54917 -0.4492,-0.24955 0.0499,-0.69894 0.0499,-0.69894 0,0 -0.75807,-0.16827 -2.14779,-0.1472 z m -8.53301,3.04231 c -1.84673,0.0499 -4.34267,1.14801 -5.34091,2.14625 0,0 0.54936,0.29966 1.24812,0.74887 0.69876,0.44921 0.74828,0.6985 0.49873,0.94805 0,0 2.69547,0.79863 4.84167,0.14978 2.14619,-0.64885 3.24407,-2.09632 3.24407,-2.09632 0,0 -0.39904,-0.19976 -0.99798,-0.44932 -0.59893,-0.24956 -0.3994,-0.69844 -0.3994,-0.69844 0,0 -1.24757,-0.79877 -3.0943,-0.74887 z m -36.820226,1.07467 c -1.089843,0.0264 -1.861226,0.62807 -1.612,1.96971 0.284829,1.5333 2.245918,2.29602 3.543622,2.2461 0,0 -0.348971,-0.79846 -0.398882,-1.49723 -0.04991,-0.69876 0.598583,-0.94805 0.598583,-0.94805 0,0 -0.31376,-1.59348 -1.647,-1.74737 -0.166655,-0.0192 -0.328631,-0.0269 -0.484323,-0.0232 z m 3.813835,0.80806 c -0.285901,-0.0102 -0.509316,0.0139 -0.634095,0.0638 -0.499115,0.19966 -0.09985,1.34763 -0.09985,2.0464 0,0.69876 -0.299545,0.89864 -0.299545,0.89864 0,0 1.097834,1.19781 3.094299,1.69693 1.996467,0.49912 3.094815,0.1997 3.094815,0.1997 0,0 -0.698723,-0.79895 0.149775,-1.39789 0,0 -0.734734,-1.05937 -2.046396,-2.2461 -0.98375,-0.89007 -2.401297,-1.23081 -3.259002,-1.2615 z m 23.990612,0.28668 c -1.307088,0.0161 -2.713863,0.32599 -4.360945,1.07467 0,0 0.549418,0.24985 1.49774,1.09834 0.948321,0.8485 0.798228,1.19772 0.59858,1.39738 0,0 1.64719,0.99836 4.342419,0.49925 2.695225,-0.49912 3.144735,-1.44731 3.144735,-1.44731 0,0 -0.34958,-0.39949 -0.79879,-0.74887 -0.45946,-0.35735 -0.24962,-0.74887 -0.24962,-0.74887 0,0 -1.21959,-0.82941 -2.894606,-1.0479 -0.418751,-0.0546 -0.843817,-0.082 -1.279513,-0.0767 z m -17.189533,0.94291 c -1.305499,0.007 -1.895078,0.23161 -1.895078,0.23161 1.048143,1.19788 1.696885,2.99499 1.54715,3.04489 -0.149735,0.0499 -0.349472,-0.0499 -0.349472,-0.0499 0,0 0.748955,1.09788 3.044892,1.29752 2.295933,0.19965 3.443774,-0.44932 3.443774,-0.44932 0,0 -0.698766,-0.89827 0,-1.4473 -0.798587,-0.64885 -1.846812,-2.29609 -4.242569,-2.54565 -0.598942,-0.0624 -1.113528,-0.0842 -1.548697,-0.0818 z m 8.766159,0.0818 c -1.714957,-0.0182 -3.162153,0.45563 -3.324368,0.69895 -0.199646,0.29947 1.797159,1.49749 1.298044,2.49572 0,0 1.347472,0.94809 3.393847,1.09783 2.046378,0.14973 3.992948,-0.99798 3.992948,-0.99798 0,0 -0.199817,-0.49935 -0.649021,-0.89865 -0.449207,-0.39928 -0.249625,-0.94805 -0.249625,-0.94805 0,0 -1.047963,-0.99858 -3.244076,-1.34797 -0.411771,-0.0655 -0.82199,-0.0956 -1.217749,-0.0998 z" />
</svg>
