<?xml version="1.0" encoding="UTF-8" standalone="no"?>
<!-- Created with Inkscape (http://www.inkscape.org/) -->

<svg
   width="500.00003"
   height="582"
   viewBox="0 0 132.29167 153.9875"
   version="1.1"
   id="svg5"
   xml:space="preserve"
   xmlns="http://www.w3.org/2000/svg"
   xmlns:svg="http://www.w3.org/2000/svg"><defs
     id="defs2" /><path
     id="path20336"
     style="font-variation-settings:normal;vector-effect:none;fill:#045cd2;fill-opacity:1;stroke:none;stroke-width:0.132292;stroke-linecap:butt;stroke-linejoin:miter;stroke-miterlimit:4;stroke-dasharray:none;stroke-dashoffset:0;stroke-opacity:1;-inkscape-stroke:none;stop-color:#000000"
     d="m 132.29167,0 c 0,0 -1.38274,36.615091 -2.61428,69.222063 H 2.61429 L 0,0 Z" /><path
     id="path17551"
     style="font-variation-settings:normal;vector-effect:none;fill:#022f6b;fill-opacity:1;stroke:none;stroke-width:0.132292;stroke-linecap:butt;stroke-linejoin:miter;stroke-miterlimit:4;stroke-dasharray:none;stroke-dashoffset:0;stroke-opacity:1;-inkscape-stroke:none;stop-color:#000000"
     d="m 67.081547,28.472813 -0.80367,-0.06573 -0.5165,4.250029 -11.789265,5.937821 v 0.66474 h 2.049123 l 1.641634,20.39322 -13.864344,4.37789 v 0.66474 h 2.140613 l 40.945002,4.1109 h 1.06201 v -4.1109 h 1.47552 v -5.04263 l -0.66444,-0.66474 -12.53482,0.66474 v -4.89217 l 2.57601,-2.57715 v -2.44849 l -0.66444,-0.66473 -0.26993,0.13789 v -9.9486 h 1.38468 v -1.12395 c 0,0 -3.54999,-6.418849 -10.806843,-6.418849 l 0.92084,-1.371999 z" /><path
     id="path1642"
     style="font-variation-settings:normal;vector-effect:none;fill:#cccccc;fill-opacity:1;stroke:none;stroke-width:0.132292;stroke-linecap:butt;stroke-linejoin:miter;stroke-miterlimit:4;stroke-dasharray:none;stroke-dashoffset:0;stroke-opacity:1;-inkscape-stroke:none;stop-color:#000000"
     d="M 129.67738,69.222063 H 2.614284 c 0.887526,23.49857 1.684939,44.606897 1.884311,49.885637 0.476022,12.60358 4.447372,22.68281 25.90407,25.2963 21.456686,2.6135 26.793159,0.27855 35.742842,9.58349 8.949683,-9.30494 14.286793,-6.96999 35.743503,-9.58349 21.45669,-2.61349 25.42804,-12.69272 25.90406,-25.2963 z" /><path
     style="font-variation-settings:normal;vector-effect:none;fill:#ffffff;fill-opacity:1;stroke:none;stroke-width:0.132292;stroke-linecap:butt;stroke-linejoin:miter;stroke-miterlimit:4;stroke-dasharray:none;stroke-dashoffset:0;stroke-opacity:1;-inkscape-stroke:none;stop-color:#000000"
     d="M 129.66144,69.638273 H 2.630066 l -0.03143,-0.83188 H 129.69287 Z"
     id="path20323" /><path
     id="path17326"
     style="font-variation-settings:normal;vector-effect:none;fill:#737373;fill-opacity:1;stroke:none;stroke-width:0.132292;stroke-linecap:butt;stroke-linejoin:miter;stroke-miterlimit:4;stroke-dasharray:none;stroke-dashoffset:0;stroke-opacity:1;-inkscape-stroke:none;stop-color:#000000"
     d="m 87.94615,68.806393 h -0.66444 l -43.56624,72.867257 0.66444,0.66473 h 45.12546 v -31.84302 l -0.66444,-0.66474 h -0.89478 z" /><path
     id="path16702"
     style="font-variation-settings:normal;vector-effect:none;fill:#cccccc;fill-opacity:1;stroke:none;stroke-width:0.132292;stroke-linecap:butt;stroke-linejoin:miter;stroke-miterlimit:4;stroke-dasharray:none;stroke-dashoffset:0;stroke-opacity:1;-inkscape-stroke:none;stop-color:#000000"
     d="m 66.799567,28.84912 -2.41301,1.624972 1.0515,1.720224 c -5.566442,0 -9.057186,3.002555 -10.333479,4.864267 -0.50251,0.73299 -0.285257,1.53632 -0.285257,1.53632 h 0.537473 l 0.571028,10.74135 h -0.934369 l 0.01969,2.24165 2.208545,2.5944 0.05241,5.10146 -13.022688,0.18714 0.452285,4.56985 h 0.571004 l 1.016126,4.77585 c 13.663628,1.08535 27.327255,1.13224 40.990885,0 v -4.77585 h 1.47552 v -4.31818 l -13.19926,-0.72445 v -4.59667 l 2.57601,-2.57716 v -2.11754 l -0.93437,-0.62643 v -10.47542 h 1.38468 v -0.59463 c 0,0 -3.36738,-6.007936 -11.125473,-6.007936 l 1.142,-1.615748 z" /><path
     id="path1797"
     style="font-variation-settings:normal;vector-effect:none;fill:#e90606;fill-opacity:1;stroke:none;stroke-width:0.132292;stroke-linecap:butt;stroke-linejoin:miter;stroke-miterlimit:4;stroke-dasharray:none;stroke-dashoffset:0;stroke-opacity:1;-inkscape-stroke:none;stop-color:#000000"
     d="M 87.28171,68.806603 H 46.290824 l -0.494325,41.181607 -1.549382,0.3349 0.686926,31.35054 H 88.84093 v -31.00691 l -1.55922,-0.83612 z" /><path
     id="path2716"
     style="font-variation-settings:normal;vector-effect:none;fill:#7c0303;fill-opacity:1;stroke:none;stroke-width:0.132291;stroke-linecap:butt;stroke-linejoin:miter;stroke-miterlimit:4;stroke-dasharray:none;stroke-dashoffset:0;stroke-opacity:1;-inkscape-stroke:none;stop-color:#000000"
     d="M 55.450269,110.22461 V 68.806413 h -0.499266 v 41.418197 z" /><path
     id="path2718"
     style="font-variation-settings:normal;vector-effect:none;fill:#7c0303;fill-opacity:1;stroke:none;stroke-width:0.132291;stroke-linecap:butt;stroke-linejoin:miter;stroke-miterlimit:4;stroke-dasharray:none;stroke-dashoffset:0;stroke-opacity:1;-inkscape-stroke:none;stop-color:#000000"
     d="M 77.1058,110.22461 V 68.806413 h 0.49926 v 41.418197 z" /><path
     id="path1799"
     style="font-variation-settings:normal;vector-effect:none;fill:#ffffff;fill-opacity:1;stroke:none;stroke-width:0.132292;stroke-linecap:butt;stroke-linejoin:miter;stroke-miterlimit:4;stroke-dasharray:none;stroke-dashoffset:0;stroke-opacity:1;-inkscape-stroke:none;stop-color:#000000"
     d="m 66.277877,28.407043 -2.32295,1.969546 1.14201,1.615748 c -7.758094,0 -11.124825,6.007936 -11.124825,6.007936 v 0.59463 h 0.847209 c 1.283082,-4.15845 6.804091,-6.169584 11.261946,-6.169584 -0.0295,-0.04922 -1.36846,-1.900725 -1.36846,-1.900725 l 2.08676,-1.675474 z m -10.921321,10.68743 2.38e-4,9.97585 h -0.934369 v 2.74397 l 2.576003,2.57716 v 4.59667 H 43.798525 v 5.04263 h 0.905169 v -4.31818 H 88.75723 v -0.72445 H 75.55797 57.63886 v -4.84725 l -2.232565,-2.32658 v -2.11754 H 78.13398 v -0.62643 H 77.19961 56.315171 v -9.97585 z M 45.274698,64.030753 V 109.83062 H 43.71547 v 31.84303 h 1.218573 V 110.66674 H 88.84093 v -0.83612 H 87.28171 46.290824 V 64.030753 Z" /><path
     id="path2547"
     style="font-variation-settings:normal;vector-effect:none;fill:#737373;fill-opacity:1;stroke:none;stroke-width:0.132292;stroke-linecap:butt;stroke-linejoin:miter;stroke-miterlimit:4;stroke-dasharray:none;stroke-dashoffset:0;stroke-opacity:1;-inkscape-stroke:none;stop-color:#000000"
     d="M 55.356556,38.594903 H 77.19927 v 0.49957 H 55.356556 Z m -0.934271,12.72009 H 78.13363 v 0.4993 H 54.422285 Z m 2.575829,3.07646 H 75.55763 v 0.49933 H 56.998114 Z m -11.723474,9.63908 h 42.00678 v 0.4995 H 45.27464 Z" /><path
     id="path2550"
     style="font-variation-settings:normal;vector-effect:none;fill:#7c0303;fill-opacity:1;stroke:none;stroke-width:0.132291;stroke-linecap:butt;stroke-linejoin:miter;stroke-miterlimit:4;stroke-dasharray:none;stroke-dashoffset:0;stroke-opacity:1;-inkscape-stroke:none;stop-color:#000000"
     d="M 88.84084,113.2437 H 43.715214 v 0.4995 H 88.84084 Z" /><path
     id="path2550-2"
     style="font-variation-settings:normal;vector-effect:none;fill:#737373;fill-opacity:1;stroke:none;stroke-width:0.132291;stroke-linecap:butt;stroke-linejoin:miter;stroke-miterlimit:4;stroke-dasharray:none;stroke-dashoffset:0;stroke-opacity:1;-inkscape-stroke:none;stop-color:#000000"
     d="m 54.586728,64.280283 v -4.56771 h -0.499266 v 4.56771 z" /><path
     id="path2550-0"
     style="font-variation-settings:normal;vector-effect:none;fill:#ffffff;fill-opacity:1;stroke:none;stroke-width:0.132291;stroke-linecap:butt;stroke-linejoin:miter;stroke-miterlimit:4;stroke-dasharray:none;stroke-dashoffset:0;stroke-opacity:1;-inkscape-stroke:none;stop-color:#000000"
     d="m 62.519821,49.301783 v -10.20731 h -0.652423 v 10.20731 z" /><path
     id="path2552"
     style="font-variation-settings:normal;vector-effect:none;fill:#7c0303;fill-opacity:1;stroke:none;stroke-width:0.132291;stroke-linecap:butt;stroke-linejoin:miter;stroke-miterlimit:4;stroke-dasharray:none;stroke-dashoffset:0;stroke-opacity:1;-inkscape-stroke:none;stop-color:#000000"
     d="M 88.84084,121.95083 H 43.715214 v 0.49949 H 88.84084 Z" /><path
     style="font-variation-settings:normal;vector-effect:none;fill:#7c0303;fill-opacity:1;stroke:none;stroke-width:0.132292;stroke-linecap:butt;stroke-linejoin:miter;stroke-miterlimit:4;stroke-dasharray:none;stroke-dashoffset:0;stroke-opacity:1;-inkscape-stroke:none;stop-color:#000000"
     d="m 68.683487,95.511023 c 0,-3.14808 -0.86177,-4.66121 -2.75504,-4.66121 -1.89328,0 -3.385149,1.51313 -3.385149,4.66121 v 5.559837 l 0.664594,0.66474 z"
     id="path5886-9" /><path
     style="font-variation-settings:normal;vector-effect:none;fill:#045cd2;fill-opacity:1;stroke:none;stroke-width:0.132292;stroke-linecap:butt;stroke-linejoin:miter;stroke-miterlimit:4;stroke-dasharray:none;stroke-dashoffset:0;stroke-opacity:1;-inkscape-stroke:none;stop-color:#000000"
     d="m 69.348127,101.7356 v -5.480497 c 0,-3.03354 -0.90367,-4.7722 -3.0701,-4.7722 -2.16642,0 -3.070091,1.73866 -3.070091,4.7722 v 5.480497 z"
     id="path2621" /><path
     style="font-variation-settings:normal;vector-effect:none;fill:#7c0303;fill-opacity:1;stroke:none;stroke-width:0.132292;stroke-linecap:butt;stroke-linejoin:miter;stroke-miterlimit:4;stroke-dasharray:none;stroke-dashoffset:0;stroke-opacity:1;-inkscape-stroke:none;stop-color:#000000"
     d="m 68.683487,76.707273 c 0,-3.14808 -0.86177,-4.66121 -2.75504,-4.66121 -1.89328,0 -3.385149,1.51313 -3.385149,4.66121 v 4.89509 l 0.664594,0.66474 z"
     id="path15454" /><path
     style="font-variation-settings:normal;vector-effect:none;fill:#045cd2;fill-opacity:1;stroke:none;stroke-width:0.132292;stroke-linecap:butt;stroke-linejoin:miter;stroke-miterlimit:4;stroke-dasharray:none;stroke-dashoffset:0;stroke-opacity:1;-inkscape-stroke:none;stop-color:#000000"
     d="m 69.348147,82.267103 v -4.81575 c 0,-3.03356 -0.90367,-4.7722 -3.0701,-4.7722 -2.16642,0 -3.070091,1.73864 -3.070091,4.7722 l -4e-5,4.15101 z"
     id="path2623" /><path
     id="path2625"
     style="font-variation-settings:normal;vector-effect:none;fill:#7c0303;fill-opacity:1;stroke:none;stroke-width:0.132291;stroke-linecap:butt;stroke-linejoin:miter;stroke-miterlimit:4;stroke-dasharray:none;stroke-dashoffset:0;stroke-opacity:1;-inkscape-stroke:none;stop-color:#000000"
     d="M 88.84084,131.07776 H 43.715214 v 0.49949 H 88.84084 Z" /><path
     style="font-variation-settings:normal;vector-effect:none;fill:#7c0303;fill-opacity:1;stroke:none;stroke-width:0.132292;stroke-linecap:butt;stroke-linejoin:miter;stroke-miterlimit:4;stroke-dasharray:none;stroke-dashoffset:0;stroke-opacity:1;-inkscape-stroke:none;stop-color:#000000"
     d="m 68.683527,127.11164 c 0,-3.14809 -0.86176,-4.66122 -2.75504,-4.66122 -1.89328,0 -3.385145,1.51313 -3.385145,4.66122 v 11.97523 l 0.664594,0.66473 z"
     id="path5886" /><path
     style="font-variation-settings:normal;vector-effect:none;fill:#045cd2;fill-opacity:1;stroke:none;stroke-width:0.132292;stroke-linecap:butt;stroke-linejoin:miter;stroke-miterlimit:4;stroke-dasharray:none;stroke-dashoffset:0;stroke-opacity:1;-inkscape-stroke:none;stop-color:#000000"
     d="m 69.348127,139.7516 v -11.89583 c 0,-3.14809 -0.90367,-4.95237 -3.0701,-4.95237 -2.16642,0 -3.070091,1.80428 -3.070091,4.95237 v 11.89583 z"
     id="path2619" /><path
     id="path2651"
     style="font-variation-settings:normal;vector-effect:none;fill:#ffffff;fill-opacity:1;stroke:none;stroke-width:0.132291;stroke-linecap:butt;stroke-linejoin:miter;stroke-miterlimit:4;stroke-dasharray:none;stroke-dashoffset:0;stroke-opacity:1;-inkscape-stroke:none;stop-color:#000000"
     d="m 76.24089,49.569893 v -10.47542 h -0.65242 v 10.47542 z" /><path
     id="path2664"
     style="font-variation-settings:normal;vector-effect:none;fill:#ffffff;fill-opacity:1;stroke:none;stroke-width:0.132291;stroke-linecap:butt;stroke-linejoin:miter;stroke-miterlimit:4;stroke-dasharray:none;stroke-dashoffset:0;stroke-opacity:1;-inkscape-stroke:none;stop-color:#000000"
     d="m 69.383817,49.301783 v -10.20731 h 0.65242 v 10.20731 z" /><path
     id="path2697"
     style="font-variation-settings:normal;vector-effect:none;fill:#737373;fill-opacity:1;stroke:none;stroke-width:0.132291;stroke-linecap:butt;stroke-linejoin:miter;stroke-miterlimit:4;stroke-dasharray:none;stroke-dashoffset:0;stroke-opacity:1;-inkscape-stroke:none;stop-color:#000000"
     d="m 77.96934,64.280283 v -4.56771 h 0.49926 v 4.56771 z" /><path
     id="path2699"
     style="font-variation-settings:normal;vector-effect:none;fill:#737373;fill-opacity:1;stroke:none;stroke-width:0.132291;stroke-linecap:butt;stroke-linejoin:miter;stroke-miterlimit:4;stroke-dasharray:none;stroke-dashoffset:0;stroke-opacity:1;-inkscape-stroke:none;stop-color:#000000"
     d="m 55.450269,68.806393 v -4.52611 h -0.499266 v 4.52611 z" /><path
     id="path2714"
     style="font-variation-settings:normal;vector-effect:none;fill:#737373;fill-opacity:1;stroke:none;stroke-width:0.132291;stroke-linecap:butt;stroke-linejoin:miter;stroke-miterlimit:4;stroke-dasharray:none;stroke-dashoffset:0;stroke-opacity:1;-inkscape-stroke:none;stop-color:#000000"
     d="m 77.1058,68.806393 v -4.52611 h 0.49926 v 4.52611 z" /><path
     id="path5888"
     style="font-variation-settings:normal;vector-effect:none;fill:#ffffff;fill-opacity:1;stroke:none;stroke-width:0.132292;stroke-linecap:butt;stroke-linejoin:miter;stroke-miterlimit:4;stroke-dasharray:none;stroke-dashoffset:0;stroke-opacity:1;-inkscape-stroke:none;stop-color:#000000"
     d="m 67.833017,123.33381 c 0.5862,0.84356 0.85067,2.15367 0.85067,3.85728 v 11.89578 h -5.475791 v 0.66473 h 6.140231 v -11.89577 c 0,-2.24938 -0.46139,-3.81276 -1.51511,-4.52202 z" /><path
     id="path5888-1"
     style="font-variation-settings:normal;vector-effect:none;fill:#ffffff;fill-opacity:1;stroke:none;stroke-width:0.132292;stroke-linecap:butt;stroke-linejoin:miter;stroke-miterlimit:4;stroke-dasharray:none;stroke-dashoffset:0;stroke-opacity:1;-inkscape-stroke:none;stop-color:#000000"
     d="m 67.833017,91.897653 c 0.5862,0.84356 0.85066,1.98911 0.85066,3.69272 v 5.480487 h -5.475785 v 0.66474 h 6.140225 v -5.480497 c 0,-2.24937 -0.46138,-3.64819 -1.5151,-4.35745 z" /><path
     id="path5888-1-9"
     style="font-variation-settings:normal;vector-effect:none;fill:#ffffff;fill-opacity:1;stroke:none;stroke-width:0.132292;stroke-linecap:butt;stroke-linejoin:miter;stroke-miterlimit:4;stroke-dasharray:none;stroke-dashoffset:0;stroke-opacity:1;-inkscape-stroke:none;stop-color:#000000"
     d="m 67.833017,73.093893 c 0.5862,0.84356 0.85066,1.98911 0.85066,3.69272 v 4.81575 h -5.475785 v 0.66474 h 6.140225 v -4.81575 c 0,-2.24938 -0.46138,-3.6482 -1.5151,-4.35746 z" /><path
     id="path16565"
     style="font-variation-settings:normal;vector-effect:none;fill:#7c0303;fill-opacity:1;stroke:none;stroke-width:0.132291;stroke-linecap:butt;stroke-linejoin:miter;stroke-miterlimit:4;stroke-dasharray:none;stroke-dashoffset:0;stroke-opacity:1;-inkscape-stroke:none;stop-color:#000000"
     d="m 77.60515,113.45405 v 8.77091 h 0.49898 v -8.77091 z m 0,17.94087 v 10.27873 h 0.49898 v -10.27873 z" /><path
     id="path16563"
     style="font-variation-settings:normal;vector-effect:none;fill:#7c0303;fill-opacity:1;stroke:none;stroke-width:0.132291;stroke-linecap:butt;stroke-linejoin:miter;stroke-miterlimit:4;stroke-dasharray:none;stroke-dashoffset:0;stroke-opacity:1;-inkscape-stroke:none;stop-color:#000000"
     d="m 54.451625,113.45405 v 8.77091 h 0.499627 v -8.77091 z m 0,17.94087 v 10.27873 h 0.499627 v -10.27873 z" /><path
     id="path16576"
     style="font-variation-settings:normal;vector-effect:none;fill:#7c0303;fill-opacity:1;stroke:none;stroke-width:0.132291;stroke-linecap:butt;stroke-linejoin:miter;stroke-miterlimit:4;stroke-dasharray:none;stroke-dashoffset:0;stroke-opacity:1;-inkscape-stroke:none;stop-color:#000000"
     d="m 48.471775,131.35634 v -9.18264 h 0.499266 v 9.18264 z" /><path
     id="path16578"
     style="font-variation-settings:normal;vector-effect:none;fill:#7c0303;fill-opacity:1;stroke:none;stroke-width:0.132291;stroke-linecap:butt;stroke-linejoin:miter;stroke-miterlimit:4;stroke-dasharray:none;stroke-dashoffset:0;stroke-opacity:1;-inkscape-stroke:none;stop-color:#000000"
     d="m 84.08429,131.35634 v -9.18264 h -0.49927 v 9.18264 z" /><path
     id="path16586"
     style="font-variation-settings:normal;vector-effect:none;fill:#7c0303;fill-opacity:1;stroke:none;stroke-width:0.132291;stroke-linecap:butt;stroke-linejoin:miter;stroke-miterlimit:4;stroke-dasharray:none;stroke-dashoffset:0;stroke-opacity:1;-inkscape-stroke:none;stop-color:#000000"
     d="m 65.634597,121.95083 -6.614353,-8.49678 h 0.643435 l 6.614348,8.49678 z" /><path
     id="path16610"
     style="font-variation-settings:normal;vector-effect:none;fill:#7c0303;fill-opacity:1;stroke:none;stroke-width:0.132291;stroke-linecap:butt;stroke-linejoin:miter;stroke-miterlimit:4;stroke-dasharray:none;stroke-dashoffset:0;stroke-opacity:1;-inkscape-stroke:none;stop-color:#000000"
     d="m 66.921467,121.95083 6.614353,-8.49678 h -0.64343 l -6.614363,8.49678 z" /><path
     style="color:#000000;fill:#022f6b;fill-opacity:1;stroke-width:1;-inkscape-stroke:none"
     d="m 54.350401,21.668163 0.461516,0.670423 9.5939,-1.826899 1.87206,6.831394 0.836988,-0.07681 2.703422,-6.423405 8.191643,1.449695 c 1.55984,0.311077 1.16306,-0.528194 0.51787,-1.360373 -0.64519,-0.832176 -4.84696,-6.456155 -4.84696,-6.456155 L 78.9971,8.127229 78.51486,7.360086 70.693795,9.88798 67.155757,2.298959 66.277877,2.166836 V 14.75494 Z"
     id="path20435-0" /><path
     style="font-variation-settings:normal;vector-effect:none;fill:#cccccc;fill-opacity:1;stroke:none;stroke-width:0.132292;stroke-linecap:butt;stroke-linejoin:miter;stroke-miterlimit:4;stroke-dasharray:none;stroke-dashoffset:0;stroke-opacity:1;-inkscape-stroke:none;stop-color:#000000"
     d="m 63.247088,19.89502 -7.654106,1.525815 4.879155,-6.963832 -5.352828,-6.448696 8.192595,1.699814 3.422123,-6.535698 2.75066,6.061281 8.178213,-0.849211 -5.047,6.07251 5.58954,7.211335 -8.896773,-1.773318 -2.58242,6.346441 z"
     id="path20435" /><path
     id="path20446"
     style="color:#000000;fill:#ffffff;stroke-width:1;-inkscape-stroke:none"
     d="m 66.277877,2.166881 -3.206702,7.066708 -9.030283,-1.873463 5.89885,7.087959 -5.589341,7.220078 1.242581,-0.247328 5.41155,-6.981668 -4.806807,-5.782678 7.354912,1.526165 3.18139,-7.010231 z m 12.236983,5.193245 -9.030283,1.873463 0.35233,0.77574 7.825993,-1.624836 z m -14.437943,12.369659 -0.829899,0.165535 3.030859,7.447761 0.44837,-1.10162 z" /></svg>
