<?xml version="1.0" encoding="UTF-8" standalone="no"?>
<svg
   xmlns:dc="http://purl.org/dc/elements/1.1/"
   xmlns:cc="http://creativecommons.org/ns#"
   xmlns:rdf="http://www.w3.org/1999/02/22-rdf-syntax-ns#"
   xmlns:svg="http://www.w3.org/2000/svg"
   xmlns="http://www.w3.org/2000/svg"
   width="500"
   height="610"
   viewBox="0 0 132.29167 161.39584"
   version="1.1"
   id="svg8">
  <defs
     id="defs2" />
  <metadata
     id="metadata5">
    <rdf:RDF>
      <cc:Work
         rdf:about="">
        <dc:format>image/svg+xml</dc:format>
        <dc:type
           rdf:resource="http://purl.org/dc/dcmitype/StillImage" />
        <dc:title></dc:title>
      </cc:Work>
    </rdf:RDF>
  </metadata>
  <g
     id="layer1"
     transform="translate(-26.150846,-43.161837)">
    <path
       style="font-variation-settings:normal;vector-effect:none;fill:#e90c0c;fill-opacity:1;fill-rule:evenodd;stroke:none;stroke-width:0.645454;stroke-linecap:butt;stroke-linejoin:miter;stroke-miterlimit:4;stroke-dasharray:none;stroke-dashoffset:0;stroke-opacity:1;marker:none;marker-start:none;marker-mid:none;marker-end:none;stop-color:#000000"
       d="m 158.44252,43.161837 v 93.851643 c 0,34.88699 -27.37744,67.54419 -66.145837,67.54419 -38.768379,0 -66.145837,-32.6572 -66.145837,-67.54419 V 43.161837 Z"
       id="path861" />
    <g
       id="g1001"
       style="stroke-width:0.52543;stroke-miterlimit:4;stroke-dasharray:none"
       transform="matrix(1.2294699,0,0,1.2269027,-6.0008323,-9.7935356)">
      <path
         id="path863"
         style="font-variation-settings:normal;opacity:1;vector-effect:none;fill:#86631f;fill-opacity:1;fill-rule:evenodd;stroke:none;stroke-width:1.98588;stroke-linecap:butt;stroke-linejoin:miter;stroke-miterlimit:4;stroke-dasharray:none;stroke-dashoffset:0;stroke-opacity:1;marker:none;marker-start:none;marker-mid:none;marker-end:none;stop-color:#000000;stop-opacity:1"
         d="m 335.67578,191.93359 -4,4 -107.30469,103.19922 -4,4 h 48.3086 l 4,-4 58.99609,-58.99609 4,-4 z m 48.30664,44.20313 -4,4 -107.30273,103.19922 -4,4 h 66.99609 v -44.20313 h 48.30664 z"
         transform="scale(0.26458333)" />
      <path
         id="path894"
         style="font-variation-settings:normal;opacity:1;vector-effect:none;fill:#ffffff;fill-opacity:1;fill-rule:evenodd;stroke:none;stroke-width:1.98588;stroke-linecap:butt;stroke-linejoin:miter;stroke-miterlimit:4;stroke-dasharray:none;stroke-dashoffset:0;stroke-opacity:1;marker:none;marker-start:none;marker-mid:none;marker-end:none;stop-color:#000000;stop-opacity:1"
         d="m 268.67969,191.93359 v 44.20313 h -48.3086 v 66.99609 l 4,-4 107.30469,-103.19922 4,-4 z m 66.99609,44.20313 -4,4 -58.99609,58.99609 -4,4 v 44.20313 l 4,-4 107.30273,-103.19922 4,-4 z"
         transform="scale(0.26458333)" />
      <path
         d="M 72.146507,51.840797 V 63.536194 H 59.364868 v 15.60937 H 72.146507 V 90.840962 H 87.755874 V 79.145564 H 100.537 V 63.536194 H 87.755874 V 51.840797 Z"
         style="font-variation-settings:normal;opacity:1;vector-effect:none;fill:#cc9933;fill-opacity:1;fill-rule:evenodd;stroke:none;stroke-width:0.52543;stroke-linecap:butt;stroke-linejoin:miter;stroke-miterlimit:4;stroke-dasharray:none;stroke-dashoffset:0;stroke-opacity:1;marker:none;marker-start:none;marker-mid:none;marker-end:none;stop-color:#000000;stop-opacity:1"
         id="path877" />
      <path
         d="M 71.088175,50.782466 V 62.477863 H 58.306536 V 80.203898 H 71.088175 V 91.899296 H 88.814207 V 80.203898 H 101.59533 V 62.477863 H 88.814207 V 50.782466 Z"
         style="font-variation-settings:normal;opacity:1;vector-effect:none;fill:none;fill-opacity:1;fill-rule:evenodd;stroke:#3f3115;stroke-width:0.394072;stroke-linecap:butt;stroke-linejoin:miter;stroke-miterlimit:4;stroke-dasharray:none;stroke-dashoffset:0;stroke-opacity:1;marker:none;marker-start:none;marker-mid:none;marker-end:none;stop-color:#000000;stop-opacity:1"
         id="path863-0" />
    </g>
    <g
       id="g1298"
       style="stroke-width:0.52543;stroke-miterlimit:4;stroke-dasharray:none"
       transform="matrix(1.2294699,0,0,1.2273934,-6.0008323,-9.8147166)">
      <path
         id="path1011"
         style="font-variation-settings:normal;opacity:1;vector-effect:none;fill:#86631f;fill-opacity:1;fill-rule:evenodd;stroke:none;stroke-width:1.98588;stroke-linecap:butt;stroke-linejoin:miter;stroke-miterlimit:4;stroke-dasharray:none;stroke-dashoffset:0;stroke-opacity:1;marker:none;marker-start:none;marker-mid:none;marker-end:none;stop-color:#000000;stop-opacity:1"
         d="m 99.617188,373.46289 v 78.46484 c -10e-7,39.30579 11.321302,77.68191 31.515622,110.51758 31.21543,-61.32048 93.27356,-106.42187 171.04492,-106.42187 77.77085,0 139.82942,45.10198 171.04493,106.42187 20.19431,-32.83567 31.51562,-71.21179 31.51562,-110.51758 v -78.46484 z"
         transform="scale(0.26458333)" />
      <path
         transform="scale(0.26458333)"
         d="m 99.617188,373.46289 v 78.46484 c -10e-7,24.44501 4.389752,48.52585 12.558592,71.14258 h 11.14258 l 18.14258,-68.6914 124.49414,-50.37305 234.78125,-26.54102 4.00195,-4.00195 z m 381.474612,69.59375 -29.36328,31.2168 v 54.64062 c 8.23622,10.43824 15.45628,21.67047 21.49414,33.53125 2.7055,-4.3991 5.22242,-8.91309 7.60351,-13.5 l 0.26563,-9.51758 z"
         style="font-variation-settings:normal;opacity:1;vector-effect:none;fill:#ffffff;fill-opacity:1;fill-rule:evenodd;stroke:none;stroke-width:1.98588;stroke-linecap:butt;stroke-linejoin:miter;stroke-miterlimit:4;stroke-dasharray:none;stroke-dashoffset:0;stroke-opacity:1;marker:none;marker-start:none;marker-mid:none;marker-end:none;stop-color:#000000;stop-opacity:1"
         id="path1315" />
      <path
         transform="scale(0.26458333)"
         d="m 103.64453,377.46484 c 0.0223,23.15504 0.0328,46.30984 0.0215,69.46485 -0.67722,31.79688 6.16543,63.66 19.625,92.45117 12.44579,-27.57447 30.86289,-52.48397 53.92968,-72.08203 33.37236,-28.72082 76.95579,-45.78516 124.96094,-45.78516 48.00516,0 91.58858,17.06434 124.96094,45.78516 23.07974,19.60908 41.50316,44.53592 53.94922,72.1289 13.47419,-28.80357 20.32602,-60.68374 19.64843,-92.49804 -0.0113,-23.15501 -0.002,-46.30981 -0.004,-69.46485 z"
         style="font-variation-settings:normal;opacity:1;vector-effect:none;fill:#cc9933;fill-opacity:1;fill-rule:evenodd;stroke:none;stroke-width:1.98588;stroke-linecap:butt;stroke-linejoin:miter;stroke-miterlimit:4;stroke-dasharray:none;stroke-dashoffset:0;stroke-opacity:1;marker:none;marker-start:none;marker-mid:none;marker-end:none;stop-color:#000000;stop-opacity:1"
         id="path1300" />
      <path
         transform="scale(0.26458333)"
         d="m 152.62695,373.46484 v 52.01172 l 3.5,-3.49804 v -48.51368 z m 0,52.01172 H 99.619141 l 4.001949,3.5 h 95.35743 l 3.49804,-3.5 z m 204.01057,3.5 h 41.74139 l 3.5,-3.49804 v -0.002 h -49.85157 -9.9248 z m -94.3846,-3.50004 h -9.9248 l -49.85156,4e-5 v 28.28521 l 3.5,-6.8795 v -17.90571 h 42.45978 z m -9.9248,4e-5 3.49805,-3.49804 v -48.51368 h -3.49805 z m 99.69922,0 3.5,-3.49804 v -48.51368 h -3.5 z m 53.34961,25.60423 V 428.9766 l 95.34633,-2e-5 4.01498,-3.50053 -102.85935,0.003 v 28.28121 z m 46.35157,-77.61591 v 52.01172 l 3.49804,-3.49804 v -48.51368 z m -351.09766,100.8086 4.7207,3.49804 h 43.77735 l 3.49804,-3.49804 z m 51.99609,0 v 24.27344 l 3.5,-10.26368 v -10.51172 h 9.78125 l 9.49024,-3.49804 z m 285.93223,3.49804 h 9.66934 l 3.5,-3.49804 h -22.66243 z m 13.16934,-3.49804 v 48.79687 l 3.49804,-3.49804 v -41.80274 h 43.7635 l 4.73223,-3.49611 z m 0,48.79687 v 0.004 h 0.41992 v 3.49805 h 34.47549 l 5.49109,-3.50145 z m -339.48829,0 5.54297,3.50196 h 11.96094 l 6.40039,-3.50196 z"
         style="color:#000000;font-style:normal;font-variant:normal;font-weight:normal;font-stretch:normal;font-size:medium;line-height:normal;font-family:sans-serif;font-variant-ligatures:normal;font-variant-position:normal;font-variant-caps:normal;font-variant-numeric:normal;font-variant-alternates:normal;font-variant-east-asian:normal;font-feature-settings:normal;font-variation-settings:normal;text-indent:0;text-align:start;text-decoration:none;text-decoration-line:none;text-decoration-style:solid;text-decoration-color:#000000;letter-spacing:normal;word-spacing:normal;text-transform:none;writing-mode:lr-tb;direction:ltr;text-orientation:mixed;dominant-baseline:auto;baseline-shift:baseline;text-anchor:start;white-space:normal;shape-padding:0;shape-margin:0;inline-size:0;clip-rule:nonzero;display:inline;overflow:visible;visibility:visible;opacity:1;isolation:auto;mix-blend-mode:normal;color-interpolation:sRGB;color-interpolation-filters:linearRGB;solid-color:#000000;solid-opacity:1;vector-effect:none;fill:#ffffff;fill-opacity:1;fill-rule:evenodd;stroke:none;stroke-width:1.98588;stroke-linecap:butt;stroke-linejoin:miter;stroke-miterlimit:4;stroke-dasharray:none;stroke-dashoffset:0;stroke-opacity:1;marker:none;color-rendering:auto;image-rendering:auto;shape-rendering:auto;text-rendering:auto;enable-background:accumulate;stop-color:#000000;stop-opacity:1"
         id="path1340" />
      <path
         transform="scale(0.26458333)"
         d="m 149.12891,377.46733 v 44.51119 h -45.50728 l -4.002489,3.49804 h 53.007809 v -52.01172 z m 3.49804,48.00923 h 49.84961 49.85156 v -52.01172 l -3.5,4.00249 v 44.51119 h -92.70117 z m 99.70117,0 h 49.84961 49.84961 v -52.01172 l -3.49804,4.00249 v 44.51119 h -46.35157 -46.35156 z m 99.69922,0 h 49.85157 49.84961 v -52.01172 l -3.5,4.00249 v 44.51119 h -92.70118 z m 99.70118,0 h 53.00781 v -3.49804 h -49.50977 z m -49.84961,0 -3.5,3.5 v 45.29492 h 3.5 z m 0,48.79492 v 0.002 h 49.84961 51.00781 v -3.5 h -97.35938 z m 49.84961,0.002 -3.5,3.49804 v 45.29883 h 3.5 z m 0,48.79687 h 38.85937 v -3.49804 h -35.36133 z m -249.25196,-97.59375 -3.49804,3.5 v 41.79688 h -94.41774 l -3.92992,3.5 h 51.99609 48.78125 v -0.002 h 1.06836 z m -49.84961,48.79688 -3.49804,3.49804 v 41.80274 H 115.2184 l -2.97817,3.49609 h 40.38672 z"
         style="color:#000000;font-style:normal;font-variant:normal;font-weight:normal;font-stretch:normal;font-size:medium;line-height:normal;font-family:sans-serif;font-variant-ligatures:normal;font-variant-position:normal;font-variant-caps:normal;font-variant-numeric:normal;font-variant-alternates:normal;font-variant-east-asian:normal;font-feature-settings:normal;font-variation-settings:normal;text-indent:0;text-align:start;text-decoration:none;text-decoration-line:none;text-decoration-style:solid;text-decoration-color:#000000;letter-spacing:normal;word-spacing:normal;text-transform:none;writing-mode:lr-tb;direction:ltr;text-orientation:mixed;dominant-baseline:auto;baseline-shift:baseline;text-anchor:start;white-space:normal;shape-padding:0;shape-margin:0;inline-size:0;clip-rule:nonzero;display:inline;overflow:visible;visibility:visible;opacity:1;isolation:auto;mix-blend-mode:normal;color-interpolation:sRGB;color-interpolation-filters:linearRGB;solid-color:#000000;solid-opacity:1;vector-effect:none;fill:#86631f;fill-opacity:1;fill-rule:evenodd;stroke:none;stroke-width:1.98588;stroke-linecap:butt;stroke-linejoin:miter;stroke-miterlimit:4;stroke-dasharray:none;stroke-dashoffset:0;stroke-opacity:1;marker:none;color-rendering:auto;image-rendering:auto;shape-rendering:auto;text-rendering:auto;enable-background:accumulate;stop-color:#000000;stop-opacity:1"
         id="path1447" />
      <path
         transform="scale(0.26458333)"
         d="m 451.72852,523.07422 v -0.004 h -3.5 v 0.004 z"
         style="color:#000000;font-style:normal;font-variant:normal;font-weight:normal;font-stretch:normal;font-size:medium;line-height:normal;font-family:sans-serif;font-variant-ligatures:normal;font-variant-position:normal;font-variant-caps:normal;font-variant-numeric:normal;font-variant-alternates:normal;font-variant-east-asian:normal;font-feature-settings:normal;font-variation-settings:normal;text-indent:0;text-align:start;text-decoration:none;text-decoration-line:none;text-decoration-style:solid;text-decoration-color:#000000;letter-spacing:normal;word-spacing:normal;text-transform:none;writing-mode:lr-tb;direction:ltr;text-orientation:mixed;dominant-baseline:auto;baseline-shift:baseline;text-anchor:start;white-space:normal;shape-padding:0;shape-margin:0;inline-size:0;clip-rule:nonzero;display:inline;overflow:visible;visibility:visible;opacity:0.477124;isolation:auto;mix-blend-mode:normal;color-interpolation:sRGB;color-interpolation-filters:linearRGB;solid-color:#000000;solid-opacity:1;vector-effect:none;fill:#000000;fill-opacity:1;fill-rule:evenodd;stroke:none;stroke-width:1.98588;stroke-linecap:butt;stroke-linejoin:miter;stroke-miterlimit:4;stroke-dasharray:none;stroke-dashoffset:0;stroke-opacity:1;marker:none;color-rendering:auto;image-rendering:auto;shape-rendering:auto;text-rendering:auto;enable-background:accumulate;stop-color:#000000;stop-opacity:1"
         id="path1445" />
      <path
         d="m 40.382654,125.48484 v 12.91098 m 79.137066,0 V 125.48484 M 53.572172,112.57386 v 12.91098 m 52.758038,0 V 112.57386 M 40.38266,98.812054 v 13.761806 m 79.13707,0 V 98.812054 m -52.758046,0 v 13.761806 m 26.379022,0 V 98.812054 m 37.064724,39.583766 h -10.57504 m -79.358404,0 H 29.696948 M 133.27652,125.48484 h -26.66267 m -53.325327,0 H 26.625857 M 133.54533,112.57386 H 79.95119 26.357049"
         style="font-variation-settings:normal;opacity:1;vector-effect:none;fill:none;fill-opacity:1;fill-rule:evenodd;stroke:#3f3115;stroke-width:0.394072;stroke-linecap:butt;stroke-linejoin:miter;stroke-miterlimit:4;stroke-dasharray:none;stroke-dashoffset:0;stroke-opacity:1;marker:none;marker-start:none;marker-mid:none;marker-end:none;stop-color:#000000;stop-opacity:1"
         id="path1130" />
      <path
         transform="scale(0.26458333)"
         d="m 99.617188,373.46289 v 78.46484 c -10e-7,39.30579 11.321302,77.68191 31.515622,110.51758 31.21543,-61.32048 93.27356,-106.42187 171.04492,-106.42187 77.77085,0 139.82942,45.10198 171.04493,106.42187 20.19431,-32.83567 31.51562,-71.21179 31.51562,-110.51758 v -78.46484 z"
         style="font-variation-settings:normal;opacity:1;vector-effect:none;fill:none;fill-opacity:1;fill-rule:evenodd;stroke:#3f3115;stroke-width:1.48941;stroke-linecap:butt;stroke-linejoin:miter;stroke-miterlimit:4;stroke-dasharray:none;stroke-dashoffset:0;stroke-opacity:1;marker:none;marker-start:none;marker-mid:none;marker-end:none;stop-color:#000000;stop-opacity:1"
         id="path1467" />
    </g>
    <g
       id="g1149"
       style="stroke-width:0.52543;stroke-miterlimit:4;stroke-dasharray:none"
       transform="matrix(1.2294699,0,0,1.2273934,-6.0008323,-9.8147166)">
      <path
         transform="scale(0.26458333)"
         id="path1005"
         style="font-variation-settings:normal;opacity:1;vector-effect:none;fill:#86631f;fill-opacity:1;fill-rule:evenodd;stroke:none;stroke-width:1.98588;stroke-linecap:butt;stroke-linejoin:miter;stroke-miterlimit:4;stroke-dasharray:none;stroke-dashoffset:0;stroke-opacity:1;marker:none;marker-start:none;marker-mid:none;marker-end:none;stop-color:#000000;stop-opacity:1"
         d="m 302.17773,425.47603 c -84.7017,0 -150.77217,53.85411 -178.65039,123.53764 10.94431,21.07286 25.37205,40.27896 42.72852,56.53711 3.98991,-68.8504 59.08294,-131.27734 135.92187,-131.27734 76.83896,0 131.93198,62.42694 135.92188,131.27734 17.35675,-16.25842 31.78219,-35.4658 42.72656,-56.53906 C 452.94741,479.32934 386.8785,425.47603 302.17773,425.47603 Z" />
      <path
         transform="matrix(0.26244046,0,0,0.2629896,26.150848,43.161838)"
         d="m 205,263.93555 c -85.39329,0 -152.003525,54.17934 -180.109375,124.28515 l 4.453125,-0.21679 114.10352,-84.08985 143.54101,1.98633 -5.66992,25.92383 -1.94336,3.4082 c 36.6659,24.32484 60.09625,65.78357 62.65625,109.86719 l 2.93945,-8.20117 4.50886,-95.27694 6.372,-4.00822 c -5.29446,-6.71708 -11.01766,-13.10144 -17.14062,-19.09961 0.003,5e-4 0.005,0.001 0.008,0.002 -0.30941,-0.30311 -0.62801,-0.5973 -0.93945,-0.89843 -0.47231,-0.45667 -0.94099,-0.91708 -1.41797,-1.36914 h -0.0117 C 302.65893,284.32003 257.36612,263.93555 205,263.93555 Z"
         style="font-variation-settings:normal;opacity:1;vector-effect:none;fill:#ffffff;fill-opacity:1;fill-rule:evenodd;stroke:none;stroke-width:2;stroke-linecap:butt;stroke-linejoin:miter;stroke-miterlimit:4;stroke-dasharray:none;stroke-dashoffset:0;stroke-opacity:1;marker:none;marker-start:none;marker-mid:none;marker-end:none;stop-color:#000000;stop-opacity:1"
         id="path1194" />
      <path
         transform="scale(0.26458333)"
         d="m 370.06445,488.0293 c 38.84266,21.93766 63.97013,65.92507 70.94841,109.36894 14.20061,-14.19576 26.7007,-32.19025 35.39925,-48.59941 -16.7684,-41.11476 -47.88204,-76.84206 -87.32617,-97.81836 -21.99116,-11.76008 -46.42884,-18.86498 -71.28125,-20.86719 -5.01054,-0.40834 -10.31522,-0.54687 -15.62696,-0.54687 -5.31174,-1e-5 -10.61643,0.13852 -15.62695,0.54686 -24.85243,2.00224 -49.2901,9.10711 -71.28128,20.86718 -39.44412,20.97631 -70.55776,56.70361 -87.32616,97.81837 8.69855,16.40916 21.19864,34.40364 35.39925,48.59944 6.97828,-43.4439 32.10576,-87.43129 70.9484,-109.36895 20.55745,-11.83355 44.2229,-17.71876 67.88674,-17.71876 23.66384,-10e-6 47.32929,5.88521 67.88672,17.71875 z"
         style="font-variation-settings:normal;opacity:1;vector-effect:none;fill:#cc9933;fill-opacity:1;fill-rule:evenodd;stroke:none;stroke-width:1.98588;stroke-linecap:butt;stroke-linejoin:miter;stroke-miterlimit:4;stroke-dasharray:none;stroke-dashoffset:0;stroke-opacity:1;marker:none;marker-start:none;marker-mid:none;marker-end:none;stop-color:#000000;stop-opacity:1"
         id="path1157" />
      <path
         transform="scale(0.26458333)"
         d="m 302.17773,425.47656 v 48.79688 l 3.5,-3.8952 v -44.90168 z m 99.70118,28.28321 -26,42.70703 2.99023,1.82031 26,-42.70703 z m -199.40235,0.002 -2.99023,1.82031 23.98538,39.39606 5.00485,1.48871 z m 269.6543,76.36523 -48.16211,21.55664 1.42969,3.19532 44.6768,-19.99667 z m -340.60742,1.36133 -1.36719,3.2207 46.17051,19.60541 3.8373,-2.17181 z"
         style="color:#000000;font-style:normal;font-variant:normal;font-weight:normal;font-stretch:normal;font-size:medium;line-height:normal;font-family:sans-serif;font-variant-ligatures:normal;font-variant-position:normal;font-variant-caps:normal;font-variant-numeric:normal;font-variant-alternates:normal;font-variant-east-asian:normal;font-feature-settings:normal;font-variation-settings:normal;text-indent:0;text-align:start;text-decoration:none;text-decoration-line:none;text-decoration-style:solid;text-decoration-color:#000000;letter-spacing:normal;word-spacing:normal;text-transform:none;writing-mode:lr-tb;direction:ltr;text-orientation:mixed;dominant-baseline:auto;baseline-shift:baseline;text-anchor:start;white-space:normal;shape-padding:0;shape-margin:0;inline-size:0;clip-rule:nonzero;display:inline;overflow:visible;visibility:visible;opacity:1;isolation:auto;mix-blend-mode:normal;color-interpolation:sRGB;color-interpolation-filters:linearRGB;solid-color:#000000;solid-opacity:1;vector-effect:none;fill:#ffffff;fill-opacity:1;fill-rule:evenodd;stroke:none;stroke-width:1.98588;stroke-linecap:butt;stroke-linejoin:miter;stroke-miterlimit:4;stroke-dasharray:none;stroke-dashoffset:0;stroke-opacity:1;marker:none;color-rendering:auto;image-rendering:auto;shape-rendering:auto;text-rendering:auto;enable-background:accumulate;stop-color:#000000;stop-opacity:1"
         id="path1218" />
      <path
         transform="scale(0.26458333)"
         d="m 298.67773,429.63231 v 44.64113 h 3.5 v -48.79688 z m 98.1373,25.71325 -23.92636,39.30092 2.99024,1.82032 26,-42.70703 z m -194.33847,-1.58384 26,42.70508 2.99024,-1.82032 -23.88486,-39.23095 z m 268.22461,73.16992 -45.95528,20.5689 -0.77714,4.18305 48.16211,-21.55664 z m -339.17773,4.55664 48.64062,20.6543 1.36719,-3.2207 -44.72767,-18.99274 z"
         style="color:#000000;font-style:normal;font-variant:normal;font-weight:normal;font-stretch:normal;font-size:medium;line-height:normal;font-family:sans-serif;font-variant-ligatures:normal;font-variant-position:normal;font-variant-caps:normal;font-variant-numeric:normal;font-variant-alternates:normal;font-variant-east-asian:normal;font-feature-settings:normal;font-variation-settings:normal;text-indent:0;text-align:start;text-decoration:none;text-decoration-line:none;text-decoration-style:solid;text-decoration-color:#000000;letter-spacing:normal;word-spacing:normal;text-transform:none;writing-mode:lr-tb;direction:ltr;text-orientation:mixed;dominant-baseline:auto;baseline-shift:baseline;text-anchor:start;white-space:normal;shape-padding:0;shape-margin:0;inline-size:0;clip-rule:nonzero;display:inline;overflow:visible;visibility:visible;opacity:1;isolation:auto;mix-blend-mode:normal;color-interpolation:sRGB;color-interpolation-filters:linearRGB;solid-color:#000000;solid-opacity:1;vector-effect:none;fill:#86631f;fill-opacity:1;fill-rule:evenodd;stroke:none;stroke-width:1.98588;stroke-linecap:butt;stroke-linejoin:miter;stroke-miterlimit:4;stroke-dasharray:none;stroke-dashoffset:0;stroke-opacity:1;marker:none;color-rendering:auto;image-rendering:auto;shape-rendering:auto;text-rendering:auto;enable-background:accumulate;stop-color:#000000;stop-opacity:1"
         id="path1238" />
      <path
         id="path1141"
         style="font-variation-settings:normal;opacity:1;vector-effect:none;fill:none;fill-opacity:1;fill-rule:evenodd;stroke:#3f3115;stroke-width:1.48941;stroke-linecap:butt;stroke-linejoin:miter;stroke-miterlimit:4;stroke-dasharray:none;stroke-dashoffset:0;stroke-opacity:1;marker:none;marker-start:none;marker-mid:none;marker-end:none;stop-color:#000000;stop-opacity:1"
         transform="scale(0.26458333)"
         d="m 423.96875,551.68359 48.16211,-21.55664 m -340.60742,1.36133 48.64062,20.6543 m 22.3125,-98.38086 26,42.70554 m 147.40235,0 26,-42.70749 m -99.70118,-28.28376 v 48.79741" />
      <path
         id="path1005-3"
         style="font-variation-settings:normal;opacity:1;vector-effect:none;fill:none;fill-opacity:1;fill-rule:evenodd;stroke:#3f3115;stroke-width:0.394072;stroke-linecap:butt;stroke-linejoin:miter;stroke-miterlimit:4;stroke-dasharray:none;stroke-dashoffset:0;stroke-opacity:1;marker:none;marker-start:none;marker-mid:none;marker-end:none;stop-color:#000000;stop-opacity:1"
         d="m 79.951191,112.57386 c -22.410659,0 -39.891804,14.2489 -47.267917,32.686 2.895682,5.57553 6.713022,10.65715 11.305255,14.95878 1.055663,-18.21667 15.632362,-34.7338 35.962662,-34.7338 20.330309,0 34.906999,16.51713 35.962659,34.7338 4.59231,-4.30171 8.40904,-9.38366 11.30474,-14.95929 -7.37625,-18.4368 -24.85699,-32.68549 -47.267399,-32.68549 z" />
    </g>
  </g>
</svg>
