<?xml version="1.0" encoding="UTF-8" standalone="no"?>
<svg
   xmlns:dc="http://purl.org/dc/elements/1.1/"
   xmlns:cc="http://creativecommons.org/ns#"
   xmlns:rdf="http://www.w3.org/1999/02/22-rdf-syntax-ns#"
   xmlns:svg="http://www.w3.org/2000/svg"
   xmlns="http://www.w3.org/2000/svg"
   xmlns:sodipodi="http://sodipodi.sourceforge.net/DTD/sodipodi-0.dtd"
   xmlns:inkscape="http://www.inkscape.org/namespaces/inkscape"
   width="537.75354"
   height="575.51392"
   viewBox="0 0 142.28062 152.27139"
   version="1.1"
   id="svg8"
   sodipodi:docname="heinola2.svg"
   inkscape:version="1.0 (4035a4fb49, 2020-05-01)">
  <defs
     id="defs2" />
  <sodipodi:namedview
     inkscape:snap-smooth-nodes="true"
     inkscape:lockguides="true"
     inkscape:snap-others="false"
     id="base"
     pagecolor="#ffffff"
     bordercolor="#666666"
     borderopacity="1.0"
     inkscape:pageopacity="0.0"
     inkscape:pageshadow="2"
     inkscape:zoom="1"
     inkscape:cx="427.96489"
     inkscape:cy="333.5822"
     inkscape:document-units="px"
     inkscape:current-layer="layer1"
     inkscape:document-rotation="0"
     showgrid="false"
     units="px"
     inkscape:window-width="1920"
     inkscape:window-height="1017"
     inkscape:window-x="-8"
     inkscape:window-y="-8"
     inkscape:window-maximized="1"
     inkscape:showpageshadow="false"
     inkscape:object-nodes="true"
     inkscape:snap-global="false" />
  <metadata
     id="metadata5">
    <rdf:RDF>
      <cc:Work
         rdf:about="">
        <dc:format>image/svg+xml</dc:format>
        <dc:type
           rdf:resource="http://purl.org/dc/dcmitype/StillImage" />
        <dc:title />
      </cc:Work>
    </rdf:RDF>
  </metadata>
  <g
     transform="translate(-23.353668,-27.335689)"
     inkscape:label="Шар 1"
     inkscape:groupmode="layer"
     id="layer1">
    <path
       sodipodi:nodetypes="czzzcc"
       id="path848"
       d="m 165.63428,27.335689 c 0,0 -4.34269,60.700688 -7.41298,95.077411 -3.07028,34.37673 -33.06631,57.19398 -63.727325,57.19398 -30.661011,0 -60.657032,-22.81725 -63.727316,-57.19398 C 27.696374,88.036377 23.353668,27.335689 23.353668,27.335689 Z"
       style="font-variation-settings:normal;opacity:1;vector-effect:none;fill:#df0000;fill-opacity:1;fill-rule:evenodd;stroke:none;stroke-width:0.264583;stroke-linecap:butt;stroke-linejoin:miter;stroke-miterlimit:4;stroke-dasharray:none;stroke-dashoffset:0;stroke-opacity:1;marker:none;marker-start:none;marker-mid:none;marker-end:none;stop-color:#000000;stop-opacity:1" />
    <g
       id="g979">
      <path
         id="path961"
         style="font-variation-settings:normal;opacity:1;vector-effect:none;fill:#cfcfcf;fill-opacity:1;fill-rule:evenodd;stroke:none;stroke-width:0.999999;stroke-linecap:butt;stroke-linejoin:miter;stroke-miterlimit:4;stroke-dasharray:none;stroke-dashoffset:0;stroke-opacity:1;marker:none;marker-start:none;marker-mid:none;marker-end:none;stop-color:#000000;stop-opacity:1"
         d="m 114.69922,424.51367 c 1.1125,13.13933 2.20859,25.90462 3.25781,37.65235 4.64946,52.05815 25.75719,97.04786 56.83594,132.20507 45.94912,-46.19088 113.70229,-73.27539 182.34961,-73.27539 68.64732,0 136.40048,27.08451 182.34961,73.27539 31.07875,-35.15721 52.18648,-80.14692 56.83593,-132.20507 1.04923,-11.74773 2.14532,-24.51302 3.25782,-37.65235 z"
         transform="scale(0.26458333)" />
      <path
         id="path966"
         style="font-variation-settings:normal;opacity:1;vector-effect:none;fill:#ffffff;fill-opacity:1;fill-rule:evenodd;stroke:none;stroke-width:0.999999;stroke-linecap:butt;stroke-linejoin:miter;stroke-miterlimit:4;stroke-dasharray:none;stroke-dashoffset:0;stroke-opacity:1;marker:none;marker-start:none;marker-mid:none;marker-end:none;stop-color:#000000;stop-opacity:1"
         d="m 114.69922,424.51367 c 0.13342,1.57579 0.25773,2.95171 0.39062,4.51563 h 484.10547 c 0.1329,-1.56392 0.25721,-2.93984 0.39063,-4.51563 z"
         transform="scale(0.26458333)" />
      <path
         id="path970"
         style="font-variation-settings:normal;opacity:1;vector-effect:none;fill:#666666;fill-opacity:1;fill-rule:evenodd;stroke:none;stroke-width:0.999999;stroke-linecap:butt;stroke-linejoin:miter;stroke-miterlimit:4;stroke-dasharray:none;stroke-dashoffset:0;stroke-opacity:1;marker:none;marker-start:none;marker-mid:none;marker-end:none;stop-color:#000000;stop-opacity:1"
         d="m 357.14258,517.29297 c -69.27437,0 -137.6482,27.92782 -184.85352,74.19141 0.82841,0.96829 1.66069,1.93284 2.50391,2.88671 45.94912,-46.19088 113.70229,-73.27539 182.34961,-73.27539 68.64732,0 136.40048,27.08451 182.34961,73.27539 0.84321,-0.95387 1.6755,-1.91842 2.5039,-2.88671 -47.20531,-46.26359 -115.57916,-74.19141 -184.85351,-74.19141 z"
         transform="scale(0.26458333)"
         sodipodi:nodetypes="sccsccs" />
    </g>
    <g
       id="g1007">
      <path
         id="path955"
         style="font-variation-settings:normal;opacity:1;vector-effect:none;fill:#bf9f4f;fill-opacity:1;fill-rule:evenodd;stroke:none;stroke-width:0.066146;stroke-linecap:butt;stroke-linejoin:miter;stroke-miterlimit:4;stroke-dasharray:none;stroke-dashoffset:0;stroke-opacity:1;marker:none;marker-start:none;marker-mid:none;marker-end:none;stop-color:#000000;stop-opacity:1"
         d="m 65.973428,38.561253 c -1.492002,0.851354 -2.756466,2.085417 -3.736329,3.501953 -0.108445,0.159889 -0.212725,0.322551 -0.309569,0.489746 -1.154501,0.0041 -2.366134,0.109928 -3.410196,0.663631 -0.870008,0.445311 -1.489169,1.279444 -1.779173,2.201205 -0.04515,0.142575 -0.06339,0.302863 -0.224433,0.358705 -1.044055,0.702416 -1.925011,1.63216 -2.629127,2.656402 -0.204402,0.300056 -0.405085,0.622124 -0.566934,0.935975 0.195497,0.407216 0.390819,0.814516 0.586425,1.22168 -0.08148,0.356642 -0.132995,0.720043 -0.151367,1.085449 0.11394,0.169189 0.273727,0.323616 0.360547,0.50155 -0.04443,0.348317 0.328657,0.522046 0.600229,0.61803 0.299199,0.10252 0.612725,0.157693 0.926919,0.188038 1.105205,-0.998294 2.422065,-1.805406 3.877939,-2.163542 1.316141,-0.330826 2.733661,-0.11254 3.931548,0.507182 0.798128,0.406709 1.515293,0.966306 2.123619,1.622668 0.495189,1.144255 0.587196,2.53127 -0.02151,3.6518 -0.608261,1.137979 -1.793055,1.863515 -3.024162,2.152727 -1.332573,0.308472 -2.73575,0.256147 -4.064377,-0.04659 -0.633242,-0.150649 -1.311139,-0.556283 -1.892542,-0.850692 l -0.859608,1.426032 c 0.686558,0.645029 1.361998,1.743549 1.449657,2.716599 0.08777,0.937285 -0.430922,1.804832 -1.054863,2.460194 -0.208759,0.223716 -0.432684,0.433227 -0.666879,0.630064 0.288794,0.457104 0.808901,0.711017 1.332873,0.781538 1.016564,0.171141 2.082996,-0.04919 2.983337,-0.538389 0.818045,-0.475909 1.240295,-1.414327 1.346098,-2.323895 0.02787,-0.276599 0.04319,-0.553222 0.121383,-0.822086 0.271432,0.500049 0.372102,1.070552 0.445827,1.629019 0.110661,0.8494 -0.088,1.719372 -0.508526,2.461022 -0.263872,0.480625 -0.592876,0.925779 -0.972945,1.321092 0.430698,0.139183 0.905937,0.240606 1.372506,0.152823 1.154954,-0.157287 2.302254,-0.552916 3.214466,-1.296297 0.398679,-0.31751 0.834747,-0.618228 1.123965,-1.045002 0.05494,-0.07486 0.129713,-0.444668 0.169409,-0.292686 0.09173,0.349287 0.182765,0.698756 0.274439,1.048057 -0.4357,1.135223 -0.622664,2.348428 -0.760187,3.55121 -0.23786,2.301491 -0.201554,4.654396 0.345636,6.91754 0.05604,0.22511 0.125447,0.468942 0.203125,0.696777 -2.254303,2.014769 -4.500882,4.038102 -6.777506,6.027405 -2.077243,1.785125 -4.318471,3.365077 -6.425089,5.11418 -0.904529,0.75597 -1.785489,1.56787 -2.417264,2.57369 -0.758728,1.152105 -1.204218,2.476255 -1.506606,3.813535 -0.287616,0.95206 -0.973005,1.707155 -1.47972,2.536655 -0.427352,0.66367 -0.760961,1.414315 -0.778917,2.21555 -0.03118,0.854173 0.149318,1.779243 0.745454,2.425043 0.08871,0.0886 0.184682,0.17054 0.291015,0.2373 1.471955,-0.94023 2.958344,-1.65982 4.420667,-2.614866 1.011204,-0.681605 2.035682,-1.543967 3.038595,-2.236617 0.825604,-0.728525 1.375717,-1.848235 1.202557,-2.9644 -0.03553,-0.28215 -0.124304,-0.55344 -0.221877,-0.81937 1.496201,-1.17548 3.010427,-2.330045 4.459767,-3.563405 0.149825,-0.15281 0.329356,-0.26984 0.499217,-0.398505 -0.188921,0.624915 -0.514519,1.19606 -0.770534,1.79458 -0.176167,0.41481 -0.404012,0.80951 -0.534642,1.24204 1.029449,-0.38401 2.073151,-0.93769 2.788469,-1.80816 0.575244,-0.70648 0.92829,-1.556145 1.06993,-2.457465 0.08112,-0.09573 0.190725,-0.380555 0.216128,-0.10634 0.09493,0.22724 -0.02204,0.471995 -0.04767,0.704485 -0.205859,0.92023 -0.39389,1.84425 -0.61377,2.76123 1.550364,-0.236905 2.98675,-0.92784 4.342281,-1.688895 1.405032,-0.8284 2.807904,-1.699625 4.219575,-2.534935 0.200896,-0.12022 0.401814,-0.240403 0.602695,-0.360645 0.777004,0.53972 1.62174,0.982095 2.513672,1.29883 0.751475,1.837675 1.723576,3.57557 2.82352,5.225835 1.248657,1.83401 2.320409,3.855395 2.694325,6.06573 0.202873,1.242293 0.270909,2.538663 -0.07318,3.763223 -0.316827,1.1703 -0.866707,2.2754 -1.586752,3.24941 -0.544546,0.13949 -1.097888,-0.11843 -1.553194,-0.39887 -0.51276,-0.31616 -0.903914,-0.80544 -1.466122,-1.04561 -0.935083,-0.44699 -2.039884,-0.42549 -2.992737,-0.0705 -0.535178,0.181 -1.052182,0.52383 -1.322968,1.04493 -0.176646,0.33588 -0.304452,0.72217 -0.294862,1.10038 0.558876,0.88737 1.037269,1.3867 2.915525,1.88802 1.878255,0.50131 3.297128,0.3102 4.817884,2.1776 0.537197,0.50263 1.611964,0.66681 2.297343,0.54822 0.760235,-0.10746 1.497265,-0.56578 1.801533,-1.29079 0.142367,-0.33823 0.232247,-0.72412 0.128653,-1.09746 0.81578,-1.14926 1.600866,-2.30294 2.205425,-3.57481 0.078,-0.10338 0.06667,-0.33789 0.239473,-0.30226 1.411282,-0.0909 2.757031,-0.82636 3.61843,-1.94503 0.477876,-0.58694 0.906076,-1.23983 1.158352,-1.9655 0.03722,-0.11211 0.08546,-0.27373 0.109375,-0.41016 -0.932688,0.18494 -1.908254,0.16025 -2.828614,-0.0801 -0.747228,-0.78504 -1.21284,-1.798878 -1.51201,-2.830503 -0.228668,-0.784255 -0.345482,-1.604075 -0.280432,-2.42118 0.119979,-1.74683 0.563603,-3.45178 1.055209,-5.12604 0.160989,-0.536785 0.332384,-1.070405 0.51946,-1.598845 1.897902,-0.30917 3.828096,-0.89847 5.370478,-2.09924 0.527524,-0.419143 1.0127,-0.908825 1.347784,-1.497928 -0.5089,-0.217555 -0.959955,-0.545817 -1.405274,-0.86963 1.452468,-0.681865 2.817696,-1.53124 4.188563,-2.36091 1.695798,-1.048475 3.386648,-2.107956 5.021878,-3.249211 1.6304,-1.158558 3.19606,-2.406927 4.74025,-3.676011 1.79446,-0.905243 3.84872,-1.193585 5.84012,-1.079319 0.26495,0.004 0.39858,0.146781 0.39858,0.146781 0,0 -0.61831,0.245499 -0.9584,0.36041 -0.92737,0.281653 -1.49686,0.704278 -2.27835,1.263534 -1.33592,0.967723 -2.47579,2.238273 -3.33988,3.654278 -0.87134,1.414217 -1.66664,2.889241 -2.76332,4.148243 -1.54719,1.817083 -3.59838,3.134883 -5.766205,4.093178 -0.210785,0.09885 -0.447033,0.187135 -0.64427,0.283015 0.38626,0.47383 0.95154,0.754875 1.513115,0.937095 0.57853,0.18512 1.217245,0.248935 1.81501,0.201085 0.39099,-0.02925 0.77419,-0.11584 1.14991,-0.225095 -0.34649,1.607845 -1.54139,2.960385 -3.024025,3.63547 -0.34885,0.160965 -0.71112,0.29296 -1.08194,0.393825 0.52115,0.753815 1.38713,1.198335 2.24251,1.4275 0.903365,0.23896 1.859125,0.245095 2.765715,-0.01065 0.10947,-0.0095 0.25716,-0.12466 0.33993,-0.09136 0.70135,1.762715 1.43493,3.51251 2.13782,5.274408 0.31067,0.84297 0.65715,1.7459 0.47758,2.65819 -0.12233,0.55906 -0.3563,1.09069 -0.6248,1.59388 -0.554,0.92628 -1.39238,1.65232 -2.29285,2.23058 -1.14247,-0.36243 -2.23322,-0.86606 -3.369635,-1.24414 -0.67959,-0.12468 -1.37641,0.11883 -1.971946,0.39594 -0.729227,0.34329 -1.384699,0.8734 -1.781624,1.58393 -0.247613,0.43467 -0.411934,0.93036 -0.394381,1.43517 1.22036,0.12031 3.100774,0.2946 5.118896,0.83146 2.01811,0.53687 3.45911,1.3534 3.73919,1.76927 0.48614,0.56543 1.54406,0.84732 2.25135,0.81977 0.60293,-0.039 1.21635,-0.0979 1.72656,-0.45683 0.718,-0.50161 0.99143,-1.40835 1.04826,-2.24405 0.0267,-0.38362 0.0152,-0.77016 -0.0366,-1.15126 1.49708,-1.97216 2.99397,-3.94447 4.49122,-5.91651 1.14777,-0.0211 2.34466,-0.24275 3.36527,-0.81252 0.6636,-0.38574 1.24563,-0.95611 1.56051,-1.663058 0.13056,-0.31238 0.18762,-0.666975 0.0996,-0.998535 -0.77765,0.43766 -1.74372,0.6642 -2.60434,0.338005 -0.5345,-0.188975 -1.03989,-0.47488 -1.46939,-0.843375 -0.70502,-0.9756 -1.27714,-2.104475 -1.3312,-3.32785 -0.0537,-1.127725 0.20611,-2.242195 0.50366,-3.32191 0.54766,-1.784385 1.67095,-3.375555 3.1142,-4.550703 0.11857,-0.111457 0.23573,-0.213637 0.31307,-0.01082 1.1715,1.468828 2.20781,3.094273 2.70886,4.921728 0.31094,1.11809 0.40086,2.29428 0.28027,3.447755 1.12575,-0.129465 2.24709,-0.80633 2.78028,-1.842775 0.15613,-0.294385 0.35837,-0.514621 0.42178,-0.862066 2.14249,1.773022 4.80433,2.933928 6.76899,4.632821 0.49192,1.07868 0.86668,2.23023 0.72397,3.415383 -0.14671,0.84832 -0.53491,1.63036 -0.9072,2.39878 -0.67383,1.34756 -1.44415,2.64416 -2.25071,3.91557 -0.70332,-0.40507 -1.19504,-1.08679 -1.90381,-1.48437 -0.36709,-0.21514 -0.85313,-0.36999 -1.30802,-0.4191 -0.80152,-0.11956 -1.66584,0.0552 -2.29177,0.58933 -0.62245,0.51482 -1.02921,1.25979 -1.2171,2.03826 0.2344,0.44373 0.74235,0.63854 1.19097,0.79462 1.03249,0.33083 2.25738,0.58342 3.3386,0.70463 0.81574,0.0916 1.65123,0.32901 2.42507,0.9838 0.77384,0.65478 1.00389,0.81572 1.48893,1.3506 0.74712,0.59897 1.97533,0.70162 2.86102,0.35885 0.50699,-0.19017 0.84376,-0.69977 0.8667,-1.23436 0.0402,-0.50901 -0.0846,-1.01333 -0.24258,-1.49329 0.50049,-1.13475 1.25421,-2.13134 2.055,-3.06886 0.8406,-0.98337 1.62616,-2.03146 2.15248,-3.2207 0.13044,-0.28357 0.24296,-0.57479 0.36186,-0.86328 0.54613,0.96499 1.21178,1.8938 2.1057,2.56558 0.35958,0.26142 0.77214,0.47494 1.21998,0.52085 0.0722,-0.74631 -0.0496,-1.49199 -0.22605,-2.21543 -0.1852,-0.85757 -0.37501,-1.7106 -0.56594,-2.56729 1.05187,0.8992 2.09415,1.80937 3.15967,2.69239 0.22245,-0.59404 0.14378,-1.24819 0.0756,-1.86428 -0.30189,-1.800738 -0.48148,-3.628678 -0.80913,-5.419013 -0.0905,-0.424895 -0.16323,-0.861365 -0.34707,-1.258215 -0.64615,0.06552 -1.30685,0.07963 -1.94873,-0.0132 -1.1943,-0.548015 -2.01969,-1.65529 -2.56967,-2.81497 -0.79122,-1.665695 -1.19256,-3.48098 -1.54157,-5.281568 -0.27026,-1.37488 -0.45871,-2.764652 -0.71925,-4.141212 -0.52492,-2.474255 -1.57397,-4.825547 -2.83932,-7.01247 -0.61559,-1.05597 -1.28713,-2.080411 -2.03136,-3.05056 0.92046,0.247302 1.9256,0.264165 2.84082,0.128418 0.72022,-0.10885 1.39474,-0.303172 2.07014,-0.597819 1.0645,-0.478354 2.1096,-1.134609 2.76129,-2.128082 0.35473,-0.551729 0.55678,-1.22914 0.442,-1.884939 -2.2895,0.321615 -4.72868,-0.295764 -6.51235,-1.788002 -0.99858,-0.881164 -1.95337,-1.805179 -2.97274,-2.660744 -2.59477,-2.211957 -5.488,-4.161787 -8.75168,-5.229911 -1.844,-0.604858 -3.77125,-0.900209 -5.70864,-0.82739 -2.99471,0.07877 -5.96973,0.596862 -8.83631,1.45368 -2.93276,0.860905 -5.72752,2.086447 -8.588436,3.152123 -2.691869,1.027905 -5.639107,1.485652 -8.504133,1.06415 -0.636725,-0.09327 -1.271625,-0.22467 -1.865623,-0.479219 -1.288631,-0.492179 -2.433846,-1.317925 -3.355329,-2.340063 -1.526113,-1.66738 -2.600375,-3.67216 -3.77485,-5.586834 -0.888526,-1.426275 -1.781703,-2.845355 -2.828151,-4.162578 -0.176217,-0.125244 -0.03843,-0.179305 0.105469,-0.231934 0.348964,-0.184483 0.574038,-0.533472 0.721191,-0.88916 -1.204105,-0.257774 -2.40244,-0.675981 -3.40267,-1.410371 -0.340154,-0.29864 -0.629215,-0.654366 -0.944071,-0.980374 -0.339547,-0.372358 -0.680614,-0.744552 -0.987243,-1.144899 0.517731,-0.988018 0.78705,-2.06212 0.875488,-3.167481 0.06625,-0.918774 -0.01709,-1.849073 -0.257323,-2.738767 -0.688923,0.03346 -1.336563,0.207767 -1.964456,0.484537 -1.084686,0.445217 -2.132719,1.045145 -3.047408,1.795866 -0.09656,0.06277 -0.25978,0.235967 -0.315019,0.230191 0.156298,-0.730376 0.254298,-1.484396 0.161845,-2.225438 -0.05967,-0.474778 -0.184823,-0.979553 -0.435548,-1.40625 l -0.998534,-0.384277 c -0.06803,0.03711 -0.136068,0.07422 -0.204102,0.111328 z"
         sodipodi:nodetypes="ccccccccccccccccccccccccccccccccccccccccccccccccccccccccccccccccccccccccczcccccccccccccccccccccccccccccccccccccccccccczccccccccccccccccccccccccccccccccccccccccccccccccccccccccccccccccccccccccccccccccc" />
      <path
         style="font-variation-settings:normal;opacity:1;vector-effect:none;fill:#502d16;fill-opacity:1;fill-rule:evenodd;stroke:none;stroke-width:0.0661458;stroke-linecap:butt;stroke-linejoin:miter;stroke-miterlimit:4;stroke-dasharray:none;stroke-dashoffset:0;stroke-opacity:1;marker:none;marker-start:none;marker-mid:none;marker-end:none;stop-color:#000000;stop-opacity:1"
         d="m 67.609166,42.282038 c 0.526187,-2.350301 -0.350791,-3.57807 -0.350791,-3.57807 l -0.79835,-0.124411 c 0,0 0.825262,1.580009 0.496094,4.167187 z m 4.853595,-1.618887 c 0,0 0.373195,1.969679 -0.784416,3.969189 -1.157611,1.99951 -1.894273,2.139826 -1.789036,3.437754 0,0 1.22777,-0.982216 1.929352,-1.753956 0,0 0.923754,1.110841 1.707186,1.660413 0.783432,0.549572 1.27454,0.654809 1.27454,0.654809 l -0.713274,-0.830205 c 0,0 -1.356394,-1.414859 -1.777344,-1.976125 0,0 1.508403,-2.666014 0.561266,-6.03361 L 72.462761,39.8283 Z M 58.69907,44.948053 c 0,0 0.31128,0.353574 0.807374,0.65123 l -0.983918,0.479558 -0.04961,0.446485 c 0,0 0.959113,-0.330731 1.852082,-0.38034 0.892968,-0.04961 1.513086,-0.04961 1.513086,-0.04961 l -0.74414,-0.669726 c 0,0 -0.839482,0.01572 -1.833608,-0.302201 z m -2.911569,7.413387 c 0,0 1.664768,-1.93236 4.244575,-2.245064 2.579805,-0.312704 4.443575,1.328546 4.443575,1.328546 0,0 0.853372,0.84636 1.063847,1.267309 0.210475,0.42095 0.210475,0.631425 0.210475,0.631425 0,0 -1.786056,-2.388868 -4.665524,-2.560776 -2.879467,-0.17191 -5.402185,2.315222 -5.402185,2.315222 z m 14.707421,7.484003 c 0,0 -0.32498,-0.643574 -0.500375,-0.818969 0,0 -0.315712,0.210475 -0.350791,0.526187 0,0 0.982215,2.069668 0.210474,3.99902 -0.77174,1.929352 -3.016804,3.086963 -3.016804,3.086963 l -0.119868,0.807611 c 0,0 1.838745,-0.737453 2.996356,-2.105539 1.157611,-1.368086 1.632174,-3.308218 0.781008,-5.495273 z m -4.125217,1.624878 c 0,0 -0.09354,2.537389 -1.075761,3.835316 -0.982215,1.297928 -4.209495,2.209985 -4.209495,2.209985 l 0.199666,0.374808 c 0,0 1.847874,-0.113367 3.238089,-1.11147 1.655732,-1.188731 2.534317,-2.544726 2.38538,-4.034099 -0.148937,-1.489373 -0.537879,-1.27454 -0.537879,-1.27454 z m -10.311111,4.311711 c 0,0 1.41299,0.696477 3.447294,-0.195762 1.999511,-0.876978 1.753957,-3.472833 1.753957,-3.472833 l -0.385874,-0.561265 c 0,0 0.299663,2.436927 -1.613636,3.332516 -1.913303,0.895588 -3.251351,0.40125 -3.251351,0.40125 z M 80.54167,56.149986 c -2.525697,-4.279654 -3.779432,-5.738594 -3.779432,-5.738594 0.644922,-0.272851 0.902946,-1.136914 0.902946,-1.136914 l -0.841899,0.42095 c 0,0 -2.285201,0.658087 -3.947115,-0.160468 l -0.595312,0.322461 c 0,0 1.198215,0.679905 1.969956,1.977832 0.771741,1.297928 0.561266,2.666014 0.561266,2.666014 0,0 -0.912057,-1.964431 -2.560776,-2.315222 0,0 1.718877,1.859193 1.894273,3.683308 0.175395,1.824114 -0.350792,3.086963 -0.350792,3.086963 0,0 -0.631424,-2.701093 -2.981725,-3.297438 0,0 2.112718,1.887996 2.211938,4.616511 0.09922,2.728516 -1.736326,4.183726 -1.736326,4.183726 l -0.545703,1.418123 c 0,0 3.125389,-1.285833 3.125389,-5.50263 0,0 1.488281,-1.736328 1.289843,-4.613672 0,0 1.141016,-2.480468 -0.892968,-5.010546 0,0 1.281575,0.0083 1.852083,-0.165365 0,0 1.243847,1.191763 3.418753,5.471416 2.174905,4.279653 3.624843,5.332028 6.302549,6.805351 l 3.098656,0.783433 0.06009,-0.364175 -1.638651,-0.571267 C 84.72778,61.856192 83.067367,60.429639 80.54167,56.149986 Z m 59.89176,38.587037 c -3.43776,-1.122532 -4.22042,-6.490503 -5.06598,-11.657858 -0.89297,-5.457032 -4.80295,-10.488763 -4.80295,-10.488763 0,0 2.66602,0.701582 5.61266,-1.052374 2.94665,-1.753956 2.2826,-3.788159 2.2826,-3.788159 l -0.48187,0.888286 c 0,0 -0.70875,2.181112 -3.35459,3.080463 -2.20951,0.75104 -3.94262,0.233567 -4.61367,-0.148828 l -0.64492,0.545703 c 0,0 2.56315,2.199349 4.44831,8.847005 1.88515,6.647656 1.12447,9.326562 4.18372,12.997656 0,0 0.90463,0.958425 2.43669,0.776869 z m 1.53206,1.157897 0.89297,6.79648 0.14883,0.74414 c 0,0 0.46302,-0.42994 0.11575,-2.46393 -0.34726,-2.033982 -0.67799,-5.688539 -1.15755,-6.416143 z m -2.41434,4.92786 c 0.0992,0.89297 0.67799,3.70417 0.67799,3.70417 l 0.4961,0.94258 c 0,0 0.11572,-0.82683 -0.0827,-1.7694 -0.19843,-0.94258 -0.61185,-2.79466 -0.61185,-2.79466 l -0.39687,-1.488285 c 0,0 -0.18189,0.51263 -0.0827,1.405595 z m -2.00089,0.42995 c 0,0 -1.27331,1.65365 -3.15847,4.13412 -1.88515,2.48047 -2.53007,4.06797 -1.88515,4.96093 0,0 -0.29766,2.18282 -3.27422,1.43868 0,0 0.74414,0.74414 2.08359,0.64492 1.33946,-0.0992 2.23242,-0.94258 1.53789,-3.02617 1.27901,-2.79951 3.14264,-3.53492 4.44831,-6.86263 z M 120.4851,94.57332 c 0,0 1.91766,-0.514494 2.47893,-2.373687 l 0.21047,0.666503 c -0.3337,1.751944 -1.92987,2.728538 -3.3559,2.829716 z m -6.5489,3.777264 c 0,0 -1.96962,-1.313003 -1.42576,-5.180429 0.55619,-3.955034 3.92887,-6.594875 3.92887,-6.594875 l 0.42095,0.631424 c 0,0 -2.50258,1.792015 -3.29745,4.981236 -0.63804,2.560001 -0.60802,3.975633 0.92376,6.127153 m -2.88818,3.133737 c 4.13934,0.77174 6.32593,-1.485018 6.32593,-1.485018 l 0.59635,-1.262848 c 0,0 0.56881,1.032864 -0.92125,2.429656 -1.49006,1.3968 -4.10676,1.37058 -4.10676,1.37058 l -4.41997,5.82314 c 0,0 0.53172,3.38513 -2.02607,3.85019 -2.5578,0.46505 -3.09548,-0.83339 -3.09548,-0.83339 0,0 1.56403,0.90002 3.17767,0.26864 1.61364,-0.63142 1.38262,-2.58382 1.17214,-3.21524 l 4.56029,-6.03365 c 0,0 -0.77174,-0.14032 -1.26285,-0.91206 z M 98.899746,93.696342 c 0,0 1.476564,1.126714 2.832544,0.941807 1.35599,-0.184908 1.91823,-1.020851 2.87734,-0.892969 l -1.00928,0.82814 -0.77665,0.362485 c 0,0 -1.39283,0.570969 -3.181022,0.04961 -1.788196,-0.521359 -2.286414,-1.604786 -2.286414,-1.604786 z M 98.315093,88.52802 c 0,0 2.127357,1.099582 4.210947,0.305832 0,0 -0.0992,0.744141 -1.83555,0.942578 -1.736326,0.198438 -3.249621,-0.553547 -3.708403,-1.31857 z m -3.975634,-2.794639 c -0.491107,-0.140317 -1.333006,-0.771741 -1.333006,-0.771741 1.543481,-0.701583 5.61266,-3.227279 8.138357,-4.911077 2.5257,-1.683798 5.61266,-4.279654 5.61266,-4.279654 2.87649,-1.473323 6.18562,-1.028985 6.18562,-1.028985 l 0.3274,-0.3391 -0.10523,-0.315713 c 0,0 -1.6838,-0.280633 -3.89379,0.140317 0,0 2.91157,-1.718877 4.41997,-2.104748 l 0.0702,-0.736661 c 0,0 -3.7535,0.68989 -7.75253,3.987327 -3.52883,2.909736 -9.471359,6.945667 -14.24212,9.331047 0,0 0.841899,0.701583 1.964431,1.19269 0,0 -2.034589,1.894273 -5.963451,2.876489 l 0.950127,-2.006777 c 0,0 -1.277532,-8.16617 -2.049273,-9.920126 0,0 0.07016,5.261869 1.262849,9.541522 0,0 -1.683799,2.876488 -2.525697,7.436774 -0.844112,4.572275 0.350791,6.594875 1.613639,7.366615 l 0.701583,0.0702 c 0,0 -1.262848,-1.19269 -1.683798,-3.788545 -0.420949,-2.595856 1.496709,-7.951289 1.496709,-7.951289 5.61266,-0.912077 6.80535,-3.788565 6.80535,-3.788565 z M 90.03642,101.40206 c 0,0 -1.415203,3.0168 -4.560286,3.46681 0,0 -1.61364,2.84743 -2.876488,4.32075 0,0 0.496055,1.5385 -0.893007,2.23303 -1.389063,0.69454 -2.778125,0.0992 -2.778125,0.0992 0,0 0.51263,0.99258 2.381249,0.64492 1.868621,-0.34765 2.133204,-1.98437 1.984376,-2.48046 0,0 1.637109,-2.23241 2.282031,-3.7703 0,0 2.017449,-0.0165 3.522266,-1.73632 1.504816,-1.7198 1.53789,-2.87735 1.53789,-2.87735 z M 63.996092,91.248175 c 0,0 1.86862,-0.330729 4.597136,-2.067057 2.728515,-1.736328 3.571875,-2.033985 3.571875,-2.033985 l 0.297656,0.198438 c 0,0 -2.083594,1.240234 -4.117578,2.480469 -1.931744,1.177893 -3.737239,1.951301 -5.242057,2.116666 z m -0.314194,-4.20026 -0.396875,0.74414 c 0,0 0.479557,2.199349 -2.513542,4.101042 l -0.942576,0.496094 -0.165365,0.51263 c 0,0 1.835547,-0.545703 2.926953,-1.736328 1.091407,-1.190625 1.422133,-2.811198 1.306379,-3.786849 z m -2.017446,2.067057 c 0,0 0.191738,-0.633726 0.226817,-0.809122 0,0 -3.236453,2.677742 -4.278249,3.62032 -1.041797,0.942578 -2.033985,1.637109 -2.033985,1.637109 0,0 0.744141,1.63711 -0.545703,3.423047 l 0.227498,0.566252 c 0,0 2.004924,-1.558439 1.111955,-3.89008 0,0 3.950745,-3.063305 4.547526,-3.654557 0.596781,-0.591252 0.744141,-0.892969 0.744141,-0.892969 z"
         id="path833"
         sodipodi:nodetypes="ccccccsccsccccccccccsccccccccccsccsccsccccccscscscccccszsccsccssccsccsccccscccczcsccsccscscccccsccscczccsscsccscccccccccsccscccczccsccccccsccczccccsccccscccccccsccccccsccscccccscsccscccsccscccccccsccccsccccsc" />
      <path
         style="font-variation-settings:normal;opacity:1;vector-effect:none;fill:#0364bc;fill-opacity:1;fill-rule:evenodd;stroke:none;stroke-width:0.0661458;stroke-linecap:butt;stroke-linejoin:miter;stroke-miterlimit:4;stroke-dasharray:none;stroke-dashoffset:0;stroke-opacity:1;marker:none;marker-start:none;marker-mid:none;marker-end:none;stop-color:#000000;stop-opacity:1"
         d="m 55.959374,58.935937 0.611561,-1.078767 c 0,0 -0.572961,-0.736664 -0.853594,-1.578563 0,0 2.939588,-0.500721 5.191713,0.210476 2.264837,0.715213 2.876488,1.894274 2.876488,1.894274 l 1.333006,-1.052374 c 0,0 -1.571895,-2.468378 -4.700602,-3.051884 -3.128708,-0.583507 -4.911078,-0.210475 -4.911078,-0.210475 l 0.175396,-0.970522 0.105237,-0.736662 -1.117969,-0.188914 -0.320275,0.387696 -0.210475,1.543481 c 0,0 -2.313523,0.36739 -3.752195,-0.624798 -1.438671,-0.992187 -1.637109,-2.926953 -0.992187,-4.216797 0,0 -2.574536,0.488984 -2.182813,3.720704 0.396876,3.274218 5.457032,4.067968 7.342188,3.671093 l 0.653369,2.283581 z"
         id="path844"
         sodipodi:nodetypes="cccscczccccccscsccc" />
      <path
         id="path850"
         style="font-variation-settings:normal;opacity:1;vector-effect:none;fill:#ffffff;fill-opacity:1;fill-rule:evenodd;stroke:none;stroke-width:0.25;stroke-linecap:butt;stroke-linejoin:miter;stroke-miterlimit:4;stroke-dasharray:none;stroke-dashoffset:0;stroke-opacity:1;marker:none;marker-start:none;marker-mid:none;marker-end:none;stop-color:#000000;stop-opacity:1"
         d="M 250.0625,144.6875 C 239.375,150.3125 233.75,160.25 233.75,160.25 c -12.34095,0 -17.85321,4.3757 -20.0625,12 -8.625,5.625 -12.75,14.25 -12.75,14.25 l 2.25,4.6875 c -0.50346,2.16901 -0.55664,4.19531 -0.55664,4.19531 L 204,197.1875 c -0.32153,3.08664 -0.17645,5.4974 0.14844,7.35156 -2.16261,0.2385 -9.16813,0.71891 -13.71094,-2.41406 -1.00575,-0.69362 -1.84847,-1.51074 -2.54297,-2.41016 1.06697,2.02894 3.17176,4.82574 7.10547,5.66016 4.93495,1.04681 8.23606,0.63652 9.41211,0.42188 0.66483,2.64693 1.65039,3.76562 1.65039,3.76562 -0.9375,-4.875 0.5625,-12.375 0.5625,-12.375 l -1.5,-0.75 c 0.1875,-8.4375 7.36133,-16.39062 7.36133,-16.39062 -5.03813,2.38648 -7.95508,8.88281 -7.95508,8.88281 l -1.06055,-1.58985 c 0,0 1.72301,-4.11133 5.30274,-8.61914 3.57972,-4.5078 8.28906,-6.4707 8.28906,-6.4707 0.9375,-4.6875 5.0625,-9 12.375,-9.5625 7.3125,-0.5625 21.375,0.75 21.375,0.75 -4.50001,4.6875 -4.125,8.8125 -4.125,8.8125 C 259.625,155 273.875,153.6875 273.875,153.6875 v -3.15625 c -3.34969,0.28319 -6.28498,1.65176 -9,2.90625 -7.108,3.28429 -11.8125,8.125 -11.8125,8.125 -6.37658,-0.46795 -13.55669,-0.86445 -15.88281,-0.96094 1.87499,-6.1875 14.00781,-14.78906 14.00781,-14.78906 z m -22.24219,21.34961 c -4.11006,0 -5.96484,3.8457 -5.96484,3.8457 l 2.12109,0.66211 c 1.19324,-1.98874 3.31446,-2.51953 3.31446,-2.51953 0.39774,-0.66291 0.52929,-1.98828 0.52929,-1.98828 z m -7.81054,7.94336 c -2.69165,-0.17944 -4.91602,1.11328 -4.91602,1.11328 3.46875,-0.0937 5.90625,0.75 5.90625,0.75 L 221.65625,175 221.1875,174.15625 c -0.39844,-0.0937 -0.79321,-0.15015 -1.17773,-0.17578 z m 60.0039,6.68555 1.32617,1.98828 -3.44726,-1.32618 c 0,0 5.03827,5.30481 12.46289,6.49805 l 3.18164,-1.59179 c 0,-10e-6 -8.08755,-1.32572 -13.52344,-5.56836 z m -93.32617,5.52148 c -6.33007,1.60113 -9.10099,7.0418 -8.25,14.0625 0.76087,6.27717 6.05926,10.13358 12.02344,12.22266 -3.17423,-2.15138 -8.90467,-6.22725 -10.03125,-12.50391 -1.11446,-6.20912 1.68586,-11.70278 6.25781,-13.78125 z m 57,8.25 c 3.9382,4.55452 5.95841,10.25346 4.85742,15.74609 -1.10098,5.49264 -6.45162,11.34771 -17.04492,12.00391 -10.5933,0.6562 -17.68945,-3.51562 -17.68945,-3.51562 l -0.74047,1.29877 c 0,0 5.98456,4.72532 16.92992,5.02935 10.94536,0.30404 21.375,-5.4375 21.75,-15.75 0.375,-10.3125 -8.0625,-14.8125 -8.0625,-14.8125 z m -29.05078,9.48633 c -3.16226,0.0768 -4.84766,0.42969 -4.84766,0.42969 l -0.16406,1.33398 c 0,0 11.37192,-1.45881 22.25781,0.39258 -1.11658,-0.37198 -2.28359,-0.69895 -3.53125,-0.93164 -5.91252,-1.10269 -10.55258,-1.30141 -13.71484,-1.22461 z m -8.57422,8.13867 c 0,0 -2.625,7.125 3.9375,13.125 6.5625,6 8.625,12.5625 -1.125,20.625 0,0 0.75,1.6875 3,2.8125 l -0.1875,-1.875 c 0,0 5.625,-4.125 6.1875,-10.875 0.5625,-6.75 -7.3125,-11.8125 -7.3125,-11.8125 L 211.5,222.75 c 0,0 -3.9375,-2.625 -5.4375,-10.6875 z m 227.49609,4.33398 c -29.84231,0.56843 -50.5173,11.56092 -68.96484,18.1211 -14.58945,5.18819 -26.94452,4.35084 -34.41992,2.49609 l 4.90625,2.51953 -10.65039,-1.94531 c 2.70003,1.63623 20.18347,7.65522 40.53906,-0.2207 C 385.32434,229.49126 409.37499,216.875 440.5,219.5 c 31.12498,2.625 48.49911,24.13351 56.98438,31.29297 8.4853,7.15945 17.64384,9.42245 24.00781,8.62695 l 1.82031,-3.35742 c 0,0 -14.30959,2.9642 -25.79883,-7.54883 -11.48927,-10.51303 -34.11272,-32.68561 -63.95508,-32.11719 z M 266.4375,226.1875 c 0,0 3.9375,15.1875 -1.6875,23.8125 0.78046,-0.15545 1.73367,-0.48414 2.625,-1.01562 l 2.0625,-5.35938 c 0,0 3,-11.25 -3,-17.4375 z m -15.45898,3.0918 -0.13282,3.04882 c 0,0 2.46677,4.54688 2.0918,11.67188 -0.0896,1.70273 -0.43028,3.31664 -0.87695,4.76172 l -1.46875,-2.99414 -1.08399,1.55664 0.6875,2.63086 c 0,0 -2.79397,6.38111 -3.3164,20.0332 -0.52244,13.6521 2.46484,22.04688 2.46484,22.04688 0,0 -11.70417,10.51279 -23.01367,20.51757 -11.3095,10.00479 -23.47968,18.02023 -30.9043,25.17969 -7.42462,7.15946 -9.54481,15.64454 -10.60547,20.15235 -1.06066,4.5078 -5.56813,8.48576 -7.68945,13.78906 -2.12132,5.3033 -0.79538,12.99244 3.44726,15.3789 l -0.0898,-2.16601 c 0,0 -4.05078,-6.88671 0.63672,-13.82422 4.6875,-6.9375 7.125,-15 8.625,-20.25 1.5,-5.25 7.3125,-11.4375 14.8125,-16.3125 7.5,-4.875 28.6875,-24.5625 34.875,-30.1875 6.1875,-5.625 11.4375,-8.0625 11.4375,-8.0625 4.17304,14.12371 14.62943,32.40059 32.0625,38.625 0,0 3.48484,9.0795 10.875,20 7.39016,10.9205 10.5,19.91994 10.5,29.85742 0,9.93751 -6.70898,18.4961 -6.70898,18.4961 0,0 -2.88949,0.9842 -7.73438,-3.35938 -4.84489,-4.34355 -11.47324,-4.15254 -16.43945,-1.72461 -4.96621,2.42793 -4.90625,7.95508 -4.90625,7.95508 0,0 5.62938,-8.16203 13.65625,-6.49609 8.02687,1.66594 7.9544,5.96552 16.57226,6.36328 0.26517,-0.13266 5.99805,-6.8418 7.87305,-18.6543 1.875,-11.8125 -3.10572,-22.85911 -9.1875,-31.6875 -6.08178,-8.82839 -13.35324,-23.04484 -15.9375,-36.5625 -2.58426,-13.51766 -1.57422,-25.17187 -1.57422,-25.17188 -7.64429,19.40255 2.51172,39.79688 2.51172,39.79688 -12.375,-4.875 -22.125,-15.5625 -28.6875,-38.4375 -6.48976,-23.43525 -1.58984,-40.33594 -1.58984,-40.33594 0,0 8.65323,-13.71707 -1.18164,-25.63476 z m -20.9043,3.35937 c 0,0 3.44738,6.89294 2.38672,12.72656 -1.06066,5.83364 -5.92188,10.25196 -5.92188,10.25196 0,0 3.02344,1.16406 5.08594,0.97656 l -0.0937,-2.8125 c 0,0 4.77573,-4.30516 3.84766,-11.33203 -0.92418,-6.99731 -5.30469,-9.81055 -5.30469,-9.81055 z M 437.75,254.75 c 0,0 -8.35962,6.96706 -10.74609,27.38477 -2.38651,20.41771 5.82573,36.44342 15.3789,48.52539 9.55317,12.08197 11.53522,21.87719 10.47461,31.02539 l 2.51953,-4.24219 c 0,0 2.37254,-11.52392 -10.07617,-27.3125 -12.44867,-15.78858 -14.16691,-30.30845 -14.58398,-40.04102 -0.47203,-11.01561 2.66471,-25.8675 7.0332,-35.33984 z m -10.87891,27.73828 c 0,0 -10.69284,1.13996 -21.2539,13.88672 -9.34303,11.2766 -10.96283,26.55103 -39.07031,37.95312 l 5.0371,0.26563 c 0,0 16.23976,-4.76852 24.99024,-18.82227 8.75044,-14.05374 16.50829,-28.24506 30.29687,-33.2832 z M 241.5,330.25 c 0,0 0.28127,3.09375 -0.65625,6.84375 0,0 -1.96875,9.28125 -2.34375,10.40625 l 3.375,-2.625 c 0,0 4.87501,-7.875 -0.375,-14.625 z m -8.4375,6.5625 -2.8125,3.375 -4.125,9 3.5625,-1.875 c 0,0 2.625,-4.125 3.375,-10.5 z m 152.66406,1.00781 -2.17578,0.9043 c 0,0 -2.19899,10.89637 -15.58984,14.21094 0.26517,0.26517 5.83398,1.1914 5.83398,1.1914 0,0 12.06423,-3.84388 11.93164,-16.30664 z M 521.5625,355.125 c 0,0 6.56251,7.125 15,7.3125 v -5.0625 c 0,0 -8.8125,1.3125 -15,-2.25 z m -130.00195,2.31836 -2.93555,1.36914 c 0,0 3.00003,7.5 6.9375,17.0625 3.93751,9.56253 3.55277,11.457 1.11523,16.89453 -2.43749,5.43749 -8.94531,9.37891 -8.94531,9.37891 -4.00267,-1.29003 -7.32009,-2.79928 -12.03711,-4.49024 -2.58561,-0.92689 -7.23846,0.3324 -11.14258,3.04492 -3.21832,2.23609 -6.00007,6.52063 -5.64062,10.6543 l 2.5957,-1.5 c 0,0 1.32561,-6.49679 8.88281,-9.14844 7.55721,-2.65164 10.0046,3.27787 18.16407,3.58008 8.15947,0.30236 14.43495,-14.22352 13.38281,-22.22656 -3.93751,-6.93752 -10.37695,-24.61914 -10.37695,-24.61914 z M 491.125,368.5 c 0,0 3.00001,6.00002 2.25,12.5625 -0.75001,6.56251 -11.625,23.4375 -11.625,23.4375 -3.7482,-2.28714 -5.68749,-6.84645 -13.5,-7.125 -7.27529,-0.25928 -11.14016,5.6838 -12.26517,10.55882 0.37493,0.37493 1.875,0.5625 1.875,0.5625 1.12498,-2.24999 2.9038,-8.51518 9.82767,-8.68382 6.86351,-0.16706 10.62796,4.86012 14.8125,6.9375 3.18746,-3.75001 15.18747,-21.375 14.625,-27.75 -0.56251,-6.375 -6,-10.5 -6,-10.5 z m -58.41992,3.08398 -2.08008,0.13477 c 0,0 5.26118,6.62801 15.07227,6.09766 l 2.2539,-4.77344 c 0,0 -3.47858,2.33601 -7.42187,2.08789 -2.28594,-0.14385 -5.39153,-1.55207 -7.82422,-3.54688 z M 527.75,375.75 l 1.5,5.625 c 0,0 9.56248,8.25002 11.25,9.5625 l -0.5625,-2.8125 c 0,0 -5.06249,-7.875 -12.1875,-12.375 z m -198.85742,6.70703 c 0,0 4.68544,2.91579 10.2539,2.7832 l 1.14844,-1.98828 c 0,0 -4.28639,0.66409 -8.75,-0.52929 z m 190.98242,0.23047 -0.9375,4.875 c 0,0 5.99999,10.875 12.9375,11.0625 L 530,395.0625 c 0,0 -5.43748,-3.1875 -10.125,-12.375 z"
         transform="scale(0.26458333)"
         sodipodi:nodetypes="ccccccccscscccccccscsccccscccccccccsccccscccccccscsccssccsscscccsscscccscccsscccsssccsscccccccsccccscssssccssssccsscsscscsssccccccscccsccssccssccsccsccccccccccccccccccccccsscsscccccccscsccscscccccscccccccccccccccccc" />
      <path
         style="font-variation-settings:normal;opacity:1;vector-effect:none;fill:#000000;fill-opacity:1;fill-rule:evenodd;stroke:none;stroke-width:0.264583;stroke-linecap:butt;stroke-linejoin:miter;stroke-miterlimit:4;stroke-dasharray:none;stroke-dashoffset:0;stroke-opacity:1;marker:none;marker-start:none;marker-mid:none;marker-end:none;stop-color:#000000;stop-opacity:1"
         d="m 66.162369,38.281901 c -1.286619,-2.408482 -3.417497,-2.798155 -3.456122,-5.953125 0,0 1.091408,0.347265 2.430861,1.835546 0,0 0.297656,-1.488281 1.041797,-2.530078 0,0 0.892969,1.091406 1.091406,3.026172 0,0 0.644922,-0.843359 2.182812,-1.339453 0.08779,2.616717 -1.031677,2.871222 -2.194748,5.383005 0,0 -0.674326,0.255929 -1.096006,-0.422067 z m 3.91914,2.315103 c 0.291466,-1.159673 1.340097,-1.76031 1.785937,-3.423046 0.496282,-1.850852 0.248047,-3.720704 0.04961,-4.167188 0,0 1.289843,0.446484 2.133203,2.629297 0,0 0.922029,-1.075843 1.091406,-2.579688 0,0 1.289844,1.537891 0.892969,3.770313 0,0 1.289843,-0.942578 2.33164,-0.992188 0,0 -0.396876,1.537891 -2.232422,2.579688 -1.898851,1.077727 -3.262817,1.377228 -3.262817,1.377228 0,0 -2.293432,0.607146 -2.789526,0.805584 z"
         id="path872"
         sodipodi:nodetypes="cccccccccscccccscc" />
      <g
         id="g899">
        <path
           transform="scale(0.26458333)"
           d="m 204.91211,365.63867 c -2.15565,0.0656 -3.89545,1.69949 -4.0625,4.47071 0,0 2.77748,10.04809 15.75586,10.81835 0,0 -5.71236,-7.53385 -8.60547,-14.36523 -1.04233,-0.65906 -2.10805,-0.95364 -3.08789,-0.92383 z m -6.69922,6.16602 c -4.61781,0.12925 -6.70199,3.04249 -6.43164,5.93945 0,0 4.1881,10.67599 17.74219,11.11328 0,0 -7.53416,-6.70402 -9.17578,-16.92969 -0.7636,-0.1033 -1.47508,-0.14151 -2.13477,-0.12304 z m -8.45898,7.08593 c -2.32475,-0.0959 -4.19489,1.68326 -4.47657,3.21485 0,0 0.0507,0.30149 0.14258,0.73242 -2.46919,-0.84103 -4.98838,0.14552 -6.125,1.87305 0,0 -1.05996,10.73894 11.66797,13.39062 0,0 -3.13884,-4.26896 -3.55273,-10.31445 1.93159,3.18273 5.54734,6.59355 12.29687,6.99414 0,0 -7.41066,-7.06523 -7.51953,-15.08984 -0.83386,-0.52726 -1.65868,-0.76881 -2.43359,-0.80079 z"
           style="font-variation-settings:normal;opacity:1;vector-effect:none;fill:#0364bc;fill-opacity:1;fill-rule:evenodd;stroke:none;stroke-width:0.999999;stroke-linecap:butt;stroke-linejoin:miter;stroke-miterlimit:4;stroke-dasharray:none;stroke-dashoffset:0;stroke-opacity:1;marker:none;marker-start:none;marker-mid:none;marker-end:none;stop-color:#000000;stop-opacity:1"
           id="path877" />
        <path
           id="path885"
           style="font-variation-settings:normal;opacity:1;vector-effect:none;fill:#ffffff;fill-opacity:1;fill-rule:evenodd;stroke:none;stroke-width:0.999999;stroke-linecap:butt;stroke-linejoin:miter;stroke-miterlimit:4;stroke-dasharray:none;stroke-dashoffset:0;stroke-opacity:1;marker:none;marker-start:none;marker-mid:none;marker-end:none;stop-color:#000000;stop-opacity:1"
           d="m 201.96875,367.04688 c -0.63179,0.75191 -1.04217,1.78571 -1.11914,3.0625 0,0 2.77748,10.04809 15.75586,10.81835 -11.35245,-4.12952 -13.32675,-8.50287 -14.63672,-13.88085 z m -6.89648,5.39453 c -2.41683,1.03473 -3.48974,3.17333 -3.29102,5.30273 0,0 4.1881,10.67599 17.74219,11.11328 -10.83625,-2.46266 -16.51484,-9.75339 -14.45117,-16.41601 z m -8.55469,7.64062 c -0.66633,0.59592 -1.11354,1.33454 -1.24024,2.02344 0,0 1.45132,11.90551 14.42969,12.67578 -9.1807,-2.50723 -12.37316,-9.41604 -13.18945,-14.69922 z m -5.04688,2.87109 c -0.9103,0.38246 -1.67685,0.99949 -2.17578,1.75782 0,0 -1.05996,10.73894 11.66797,13.39062 -9.71194,-4.17649 -10.07769,-11.38644 -9.49219,-15.14844 z"
           transform="scale(0.26458333)" />
      </g>
      <g
         id="g911"
         transform="matrix(0.50757746,0.70975715,-0.75930874,0.41543659,124.24291,31.337535)"
         style="fill:none;stroke:none;stroke-width:1.15486">
        <path
           id="path901"
           style="font-variation-settings:normal;opacity:1;vector-effect:none;fill:#0364bc;fill-opacity:1;fill-rule:evenodd;stroke:none;stroke-width:1.15486;stroke-linecap:butt;stroke-linejoin:miter;stroke-miterlimit:4;stroke-dasharray:none;stroke-dashoffset:0;stroke-opacity:1;marker:none;marker-start:none;marker-mid:none;marker-end:none;stop-color:#000000;stop-opacity:1"
           d="m 200.33539,370.9879 c 0,0 3.2917,9.16957 16.27008,9.93983 0,0 -7.64269,-7.42735 -8.60547,-14.36523 -5.32365,-1.3414 -7.38781,1.29511 -7.66461,4.4254 z m -2.63672,1.69531 c -4.61781,0.12925 -6.18777,2.16397 -5.91742,5.06093 0,0 4.27758,8.26645 16.13716,9.79342 0,0 -6.44335,-4.50564 -8.08497,-14.73131 -0.7636,-0.1033 -1.47508,-0.14151 -2.13477,-0.12304 z m -7.94476,6.20741 c -2.32475,-0.0959 -4.19489,1.68326 -4.47657,3.21485 0,0 0.0507,0.30149 0.14258,0.73242 -2.46919,-0.84103 -4.98838,0.14552 -6.125,1.87305 0,0 -0.11056,11.37359 12.19833,17.44918 0,0 -3.6692,-8.32752 -4.08309,-14.37301 1.93159,3.18273 5.57964,8.34369 12.32917,8.74428 0,0 -7.44296,-8.81537 -7.55183,-16.83998 -0.83386,-0.52726 -1.65868,-0.76881 -2.43359,-0.80079 z"
           transform="scale(0.26458333)"
           sodipodi:nodetypes="ccccscccsscccccccs" />
        <path
           id="path903"
           style="font-variation-settings:normal;opacity:1;vector-effect:none;fill:#ffffff;fill-opacity:1;fill-rule:evenodd;stroke:none;stroke-width:0.999996;stroke-linecap:butt;stroke-linejoin:miter;stroke-miterlimit:4;stroke-dasharray:none;stroke-dashoffset:0;stroke-opacity:1;marker:none;marker-start:none;marker-mid:none;marker-end:none;stop-color:#000000;stop-opacity:1"
           d="m 268.47266,405.51953 c 0,0 -8.69306,4.64591 -7.0586,15.90625 1.42919,-10.31569 6.34239,-13.94449 9.4961,-15.0918 -0.75245,-0.4872 -1.60846,-0.77537 -2.4375,-0.81445 z m 6.01953,3.02539 c -0.36941,-0.006 -0.71412,0.0405 -1.00781,0.13867 0,0 -9.61399,6.72632 -3.61133,16.25782 -2.75616,-7.55766 2.18207,-13.44261 5.77929,-16.2168 -0.39535,-0.11268 -0.79075,-0.17328 -1.16015,-0.17969 z m 8.26953,2.14258 c -0.98313,-9.5e-4 -1.90411,0.28794 -2.66211,0.80078 0,0 -4.10631,6.47167 0.75391,15.52344 -2.32065,-8.68505 0.37131,-14.01773 1.9082,-16.32422 z m 6.80825,4.06445 c 0,0 -5.29138,6.14624 0.71128,15.67774 -2.62666,-9.77304 -0.3736,-12.8597 3.04504,-16.02367 -1.57741,-0.47585 -2.58443,-0.32879 -3.75632,0.34593 z"
           transform="matrix(0.14659764,-0.25045633,0.2679419,0.17911195,-100.57457,96.394945)"
           sodipodi:nodetypes="ccccscccscccccccc" />
      </g>
      <g
         style="fill:none;stroke:none;stroke-width:1.15486"
         transform="matrix(0.65893722,0.57200684,-0.6416575,0.5808726,129.5639,21.773166)"
         id="g919">
        <path
           sodipodi:nodetypes="ccccscccsscccccccs"
           transform="scale(0.26458333)"
           d="m 200.33539,370.9879 c 0,0 3.2917,9.16957 16.27008,9.93983 0,0 -7.64269,-7.42735 -8.60547,-14.36523 -5.32365,-1.3414 -7.38781,1.29511 -7.66461,4.4254 z m -2.63672,1.69531 c -4.61781,0.12925 -6.18777,2.16397 -5.91742,5.06093 0,0 4.27758,8.26645 16.13716,9.79342 0,0 -6.44335,-4.50564 -8.08497,-14.73131 -0.7636,-0.1033 -1.47508,-0.14151 -2.13477,-0.12304 z m -7.94476,6.20741 c -2.32475,-0.0959 -4.19489,1.68326 -4.47657,3.21485 0,0 0.0507,0.30149 0.14258,0.73242 -2.46919,-0.84103 -4.98838,0.14552 -6.125,1.87305 0,0 -0.11056,11.37359 12.19833,17.44918 0,0 -3.6692,-8.32752 -4.08309,-14.37301 1.93159,3.18273 5.57964,8.34369 12.32917,8.74428 0,0 -7.44296,-8.81537 -7.55183,-16.83998 -0.83386,-0.52726 -1.65868,-0.76881 -2.43359,-0.80079 z"
           style="font-variation-settings:normal;opacity:1;vector-effect:none;fill:#0364bc;fill-opacity:1;fill-rule:evenodd;stroke:none;stroke-width:1.15486;stroke-linecap:butt;stroke-linejoin:miter;stroke-miterlimit:4;stroke-dasharray:none;stroke-dashoffset:0;stroke-opacity:1;marker:none;marker-start:none;marker-mid:none;marker-end:none;stop-color:#000000;stop-opacity:1"
           id="path915" />
        <path
           sodipodi:nodetypes="ccccscccscccccccc"
           transform="matrix(0.14659764,-0.25045633,0.2679419,0.17911195,-100.57457,96.394945)"
           d="m 268.47266,405.51953 c 0,0 -8.69306,4.64591 -7.0586,15.90625 1.42919,-10.31569 6.34239,-13.94449 9.4961,-15.0918 -0.75245,-0.4872 -1.60846,-0.77537 -2.4375,-0.81445 z m 6.01953,3.02539 c -0.36941,-0.006 -0.71412,0.0405 -1.00781,0.13867 0,0 -9.61399,6.72632 -3.61133,16.25782 -2.75616,-7.55766 2.18207,-13.44261 5.77929,-16.2168 -0.39535,-0.11268 -0.79075,-0.17328 -1.16015,-0.17969 z m 8.26953,2.14258 c -0.98313,-9.5e-4 -1.90411,0.28794 -2.66211,0.80078 0,0 -4.10631,6.47167 0.75391,15.52344 -2.32065,-8.68505 0.37131,-14.01773 1.9082,-16.32422 z m 6.80825,4.06445 c 0,0 -5.29138,6.14624 0.71128,15.67774 -2.62666,-9.77304 -0.3736,-12.8597 3.04504,-16.02367 -1.57741,-0.47585 -2.58443,-0.32879 -3.75632,0.34593 z"
           style="font-variation-settings:normal;opacity:1;vector-effect:none;fill:#ffffff;fill-opacity:1;fill-rule:evenodd;stroke:none;stroke-width:0.999996;stroke-linecap:butt;stroke-linejoin:miter;stroke-miterlimit:4;stroke-dasharray:none;stroke-dashoffset:0;stroke-opacity:1;marker:none;marker-start:none;marker-mid:none;marker-end:none;stop-color:#000000;stop-opacity:1"
           id="path917" />
      </g>
      <g
         style="fill:none;stroke:none;stroke-width:1.15486"
         transform="matrix(0.5832314,0.64902329,-0.7084973,0.49716084,165.22642,26.230162)"
         id="g942">
        <path
           sodipodi:nodetypes="ccccscccsscccccccs"
           transform="scale(0.26458333)"
           d="m 200.33539,370.9879 c 0,0 3.2917,9.16957 16.27008,9.93983 0,0 -7.64269,-7.42735 -8.60547,-14.36523 -5.32365,-1.3414 -7.38781,1.29511 -7.66461,4.4254 z m -2.63672,1.69531 c -4.61781,0.12925 -6.18777,2.16397 -5.91742,5.06093 0,0 4.27758,8.26645 16.13716,9.79342 0,0 -6.44335,-4.50564 -8.08497,-14.73131 -0.7636,-0.1033 -1.47508,-0.14151 -2.13477,-0.12304 z m -7.94476,6.20741 c -2.32475,-0.0959 -4.19489,1.68326 -4.47657,3.21485 0,0 0.0507,0.30149 0.14258,0.73242 -2.46919,-0.84103 -4.98838,0.14552 -6.125,1.87305 0,0 -0.11056,11.37359 12.19833,17.44918 0,0 -3.6692,-8.32752 -4.08309,-14.37301 1.93159,3.18273 5.57964,8.34369 12.32917,8.74428 0,0 -7.44296,-8.81537 -7.55183,-16.83998 -0.83386,-0.52726 -1.65868,-0.76881 -2.43359,-0.80079 z"
           style="font-variation-settings:normal;opacity:1;vector-effect:none;fill:#0364bc;fill-opacity:1;fill-rule:evenodd;stroke:none;stroke-width:1.15486;stroke-linecap:butt;stroke-linejoin:miter;stroke-miterlimit:4;stroke-dasharray:none;stroke-dashoffset:0;stroke-opacity:1;marker:none;marker-start:none;marker-mid:none;marker-end:none;stop-color:#000000;stop-opacity:1"
           id="path938" />
        <path
           sodipodi:nodetypes="ccccscccscccccccc"
           transform="matrix(0.14659764,-0.25045633,0.2679419,0.17911195,-100.57457,96.394945)"
           d="m 268.47266,405.51953 c 0,0 -8.69306,4.64591 -7.0586,15.90625 1.42919,-10.31569 6.34239,-13.94449 9.4961,-15.0918 -0.75245,-0.4872 -1.60846,-0.77537 -2.4375,-0.81445 z m 6.01953,3.02539 c -0.36941,-0.006 -0.71412,0.0405 -1.00781,0.13867 0,0 -9.61399,6.72632 -3.61133,16.25782 -2.75616,-7.55766 2.18207,-13.44261 5.77929,-16.2168 -0.39535,-0.11268 -0.79075,-0.17328 -1.16015,-0.17969 z m 8.26953,2.14258 c -0.98313,-9.5e-4 -1.90411,0.28794 -2.66211,0.80078 0,0 -4.10631,6.47167 0.75391,15.52344 -2.32065,-8.68505 0.37131,-14.01773 1.9082,-16.32422 z m 6.80825,4.06445 c 0,0 -5.29138,6.14624 0.71128,15.67774 -2.62666,-9.77304 -0.3736,-12.8597 3.04504,-16.02367 -1.57741,-0.47585 -2.58443,-0.32879 -3.75632,0.34593 z"
           style="font-variation-settings:normal;opacity:1;vector-effect:none;fill:#ffffff;fill-opacity:1;fill-rule:evenodd;stroke:none;stroke-width:0.999996;stroke-linecap:butt;stroke-linejoin:miter;stroke-miterlimit:4;stroke-dasharray:none;stroke-dashoffset:0;stroke-opacity:1;marker:none;marker-start:none;marker-mid:none;marker-end:none;stop-color:#000000;stop-opacity:1"
           id="path940" />
      </g>
    </g>
  </g>
</svg>
