<?xml version="1.0" encoding="UTF-8" standalone="no"?>
<svg
   xmlns:dc="http://purl.org/dc/elements/1.1/"
   xmlns:cc="http://creativecommons.org/ns#"
   xmlns:rdf="http://www.w3.org/1999/02/22-rdf-syntax-ns#"
   xmlns:svg="http://www.w3.org/2000/svg"
   xmlns="http://www.w3.org/2000/svg"
   xmlns:sodipodi="http://sodipodi.sourceforge.net/DTD/sodipodi-0.dtd"
   xmlns:inkscape="http://www.inkscape.org/namespaces/inkscape"
   width="500"
   height="580"
   viewBox="0 0 132.29166 153.45834"
   version="1.1"
   id="svg847"
   sodipodi:docname="hollola.svg"
   inkscape:version="1.0.2 (e86c870879, 2021-01-15, custom)">
  <defs
     id="defs841" />
  <sodipodi:namedview
     id="base"
     pagecolor="#ffffff"
     bordercolor="#666666"
     borderopacity="1.0"
     inkscape:pageopacity="0.0"
     inkscape:pageshadow="2"
     inkscape:zoom="1"
     inkscape:cx="357.17846"
     inkscape:cy="264.26804"
     inkscape:document-units="px"
     inkscape:current-layer="g1368"
     inkscape:document-rotation="0"
     showgrid="false"
     inkscape:snap-smooth-nodes="true"
     inkscape:showpageshadow="false"
     borderlayer="true"
     units="px"
     inkscape:window-width="1920"
     inkscape:window-height="1017"
     inkscape:window-x="-8"
     inkscape:window-y="-4"
     inkscape:window-maximized="1"
     inkscape:snap-global="false" />
  <metadata
     id="metadata844">
    <rdf:RDF>
      <cc:Work
         rdf:about="">
        <dc:format>image/svg+xml</dc:format>
        <dc:type
           rdf:resource="http://purl.org/dc/dcmitype/StillImage" />
        <dc:title></dc:title>
      </cc:Work>
    </rdf:RDF>
  </metadata>
  <g
     inkscape:label="Layer 1"
     inkscape:groupmode="layer"
     id="layer1"
     transform="translate(-45.380768,-57.168899)">
    <g
       id="g1368"
       transform="matrix(1.2670829,0,0,1.2670829,-12.120426,-15.268834)">
      <path
         style="font-variation-settings:normal;opacity:1;vector-effect:none;fill:#df0000;fill-opacity:1;stroke:none;stroke-width:0.20881296;stroke-linecap:butt;stroke-linejoin:miter;stroke-miterlimit:4;stroke-dasharray:none;stroke-dashoffset:0;stroke-opacity:1;stop-color:#000000;stop-opacity:1"
         d="m 45.380767,57.168898 c 0,0 9.0478,71.939492 10.89044,86.393502 1.84263,14.45403 16.01675,34.71802 41.312807,34.71802 25.296056,0 39.470166,-20.26399 41.312796,-34.71802 1.84263,-14.45401 10.89044,-86.393502 10.89044,-86.393502 z"
         id="path846"
         sodipodi:nodetypes="cszscc" />
      <g
         id="g1224"
         style="stroke-width:0.2610162;stroke-miterlimit:4;stroke-dasharray:none">
        <path
           style="font-variation-settings:normal;opacity:1;vector-effect:none;fill:#bf9f4f;fill-opacity:1;stroke:#502d16;stroke-width:0.2610162;stroke-linecap:butt;stroke-linejoin:miter;stroke-miterlimit:4;stroke-dasharray:none;stroke-dashoffset:0;stroke-opacity:1;stop-color:#000000;stop-opacity:1"
           d="m 89.759913,83.178386 c -0.396875,-1.885156 -2.149739,-4.677151 -4.960938,-3.770313 -2.811198,0.906839 -2.402923,3.633648 -2.402923,3.633648 -2.055032,-0.721009 -4.069703,-2.224876 -4.703022,-4.758131 -0.807141,-3.228534 -0.09847,-6.241731 -1.555743,-6.241731 -1.457273,0 -1.746911,3.050852 -1.255801,5.716866 0.49111,2.666014 0.857952,4.392538 0.0702,4.707652 -0.787782,0.315115 -1.96443,-1.480373 -2.5257,-5.830184 -0.56126,-4.349813 -0.826643,-6.322884 -2.245063,-6.244084 -1.26285,0.07016 -0.92209,2.224971 -0.70158,4.209493 0.210483,1.894274 0.864972,4.909368 0.123293,4.860008 -0.74168,-0.04936 -1.248704,-1.74383 -2.157924,-4.930164 -0.9899,-3.469057 -0.65825,-5.332028 -2.10475,-5.332027 -1.4465,10e-7 -1.06433,3.313487 -0.56126,5.752977 0.48621,2.357737 2.061584,4.998259 1.296893,5.332027 -0.582264,0.254143 -1.358941,-1.242786 -2.303188,-4.10529 -1.054802,-3.197655 -1.279876,-4.337775 -2.332246,-4.337775 -1.05237,0 -0.958165,1.748971 -0.169419,4.192472 0.788747,2.443502 1.625682,3.621234 2.046632,4.673608 0.42095,1.052374 -0.677515,1.415202 -1.098465,0.29267 -0.42095,-1.122532 -1.19269,-3.263391 -2.24506,-3.754499 -1.05238,-0.491108 -0.974551,1.589631 -0.63142,2.893512 0.343131,1.303881 0.81158,2.790357 0.09917,2.712097 -0.7124,-0.07826 -2.010505,-1.947409 -2.852405,-4.68358 -0.8419,-2.736172 -0.70615,-4.75098 -1.831169,-4.36477 -1.166061,0.400299 -0.818389,2.447301 -0.641398,3.882778 0.164357,1.333006 0.829869,4.369756 0.829869,4.369756 -0.946992,-0.946992 -1.671581,-1.828917 -2.578834,-4.337774 -0.939918,-2.599187 -1.357085,-3.653215 -2.409455,-3.302424 -1.05238,0.350792 -0.656737,4.498153 1.802099,8.346767 2.458836,3.848613 5.0705,7.579144 13.536112,7.908449 1.979219,1.430167 4.584169,0.868196 6.785102,0.241948 2.200932,-0.626249 4.680736,-1.284763 8.451049,-1.483201 3.770312,-0.198437 6.647656,0.992188 6.647656,0.992188 0,0 -0.05971,0.597283 0.431398,1.298865 0.200185,1.853624 1.588074,2.73839 3.227279,3.367597 -0.412948,2.29922 -0.20984,4.769488 0.491108,9.120573 -0.156497,0.57638 -0.423345,1.12244 -1.007857,2.36908 -0.584512,1.24664 -1.091407,3.57188 1.141015,3.62149 0.312395,1.22854 1.024316,2.18626 2.530078,2.28203 0.294973,0.93319 1.325411,2.28203 3.590764,2.28203 2.265353,0 3.29579,-1.34884 3.59076,-2.28203 1.50576,-0.0958 2.21768,-1.05349 2.53008,-2.28203 2.23242,-0.0496 1.72553,-2.37485 1.14101,-3.62149 -0.58451,-1.24664 -0.85136,-1.7927 -1.00785,-2.36908 0.70094,-4.351085 0.90405,-6.821353 0.4911,-9.120573 1.63921,-0.629207 3.0271,-1.513973 3.22728,-3.367597 0.4911,-0.701582 0.4314,-1.298865 0.4314,-1.298865 0,0 2.87735,-1.190625 6.64766,-0.992188 3.77031,0.198438 6.25011,0.856952 8.45105,1.483201 2.20093,0.626248 4.80588,1.188219 6.7851,-0.241948 8.46561,-0.329305 11.07727,-4.059836 13.53611,-7.908449 2.45884,-3.848614 2.85448,-7.995975 1.8021,-8.346767 -1.05237,-0.350791 -1.46954,0.703237 -2.40946,3.302424 -0.90725,2.508857 -1.63184,3.390782 -2.57883,4.337774 0,0 0.66551,-3.03675 0.82987,-4.369756 0.17699,-1.435477 0.52466,-3.482479 -0.6414,-3.882778 -1.12502,-0.38621 -0.98927,1.628598 -1.83117,4.36477 -0.8419,2.736171 -2.14,4.60532 -2.8524,4.68358 -0.71238,0.07826 -0.24393,-1.408216 0.0992,-2.712097 0.34313,-1.303881 0.42096,-3.38462 -0.63142,-2.893512 -1.05237,0.491108 -1.82411,2.631967 -2.24506,3.754499 -0.42095,1.122532 -1.51942,0.759704 -1.09847,-0.29267 0.42095,-1.052374 1.25789,-2.230106 2.04663,-4.673608 0.78875,-2.443501 0.88296,-4.192472 -0.16941,-4.192472 -1.05237,0 -1.27745,1.14012 -2.33225,4.337775 -0.94425,2.862504 -1.72092,4.359433 -2.30319,4.10529 -0.76469,-0.333768 0.81068,-2.97429 1.29689,-5.332027 0.50307,-2.43949 0.88524,-5.752976 -0.56126,-5.752977 -1.4465,-1e-6 -1.11485,1.86297 -2.10475,5.332027 -0.90922,3.186334 -1.41624,4.880804 -2.15792,4.930164 -0.74168,0.04936 -0.0872,-2.965734 0.12329,-4.860008 0.22051,-1.984522 0.56127,-4.139333 -0.70158,-4.209493 -1.41842,-0.0788 -1.6838,1.894271 -2.24506,6.244084 -0.56127,4.349811 -1.73792,6.145299 -2.5257,5.830184 -0.78775,-0.315114 -0.42091,-2.041638 0.0702,-4.707652 0.49111,-2.666014 0.20147,-5.716866 -1.2558,-5.716866 -1.45724,0 -0.7486,3.013197 -1.55574,6.241731 -0.63332,2.533255 -2.64799,4.037122 -4.70303,4.758131 0,0 0.40828,-2.726809 -2.40292,-3.633648 -2.8112,-0.906838 -4.56406,1.885157 -4.96094,3.770313 -3.03966,-0.246273 -3.51455,-1.57799 -7.824105,-1.57799 -4.309558,0 -4.784447,1.331717 -7.824112,1.57799 z"
           id="path921"
           sodipodi:nodetypes="szcssssszszszsssssszzszszssscscsccccczcczcczcccccscscssszszszzsssssszszszsssssczszs" />
        <path
           id="path1012"
           style="font-variation-settings:normal;opacity:1;vector-effect:none;fill:none;fill-opacity:1;stroke:#502d16;stroke-width:0.2610162;stroke-linecap:butt;stroke-linejoin:miter;stroke-miterlimit:4;stroke-dasharray:none;stroke-dashoffset:0;stroke-opacity:1;stop-color:#000000;stop-opacity:1"
           d="m 129.87161,90.670419 c -1.93338,0 -3.1053,-0.348285 -9.38225,-2.431878 -6.34278,-2.105448 -8.02188,-2.014051 -10.12663,-1.312469 0,0.735325 -0.83871,1.059994 -1.5403,0.830207 m 3.94954,-4.714558 c 0,0 -0.74031,0.35271 -1.66939,0.478496 -0.92908,0.125786 -1.95308,1.449936 -0.73985,3.405855 m 0.73985,-3.405855 c 0.0966,-0.289893 -0.13896,-1.398683 -1.50239,-1.213239 -1.37415,0.186902 -2.45304,2.467575 -1.54099,4.502165 m 4.16193,-3.564611 c 0,0 0.29766,-2.430859 -2.23242,-2.827734 -2.53008,-0.396875 -3.12539,2.182812 -3.22461,2.877343 m 1.2237,7.127214 c 0,0 -0.0331,-1.852083 -1.81901,-1.951302 -1.78594,-0.09922 -3.03987,1.816145 -3.175,3.720703 -0.12819,1.80679 0.78726,2.547897 1.33533,2.897061 m 3.22728,-3.367597 c 0,0 -0.38658,-1.267686 -1.78448,-0.968136 -1.3979,0.29955 -2.32113,2.103311 -1.4428,4.335733 m 3.27232,-5.824014 c 0.94647,0.339538 2.03123,-0.769328 0.89899,-2.033985 -1.10197,-1.230853 -3.07578,-1.736328 -5.40742,0.248047 -2.33164,1.984375 -2.57969,6.598047 -2.53008,8.334375 0.0496,1.736328 0.39688,4.51445 0.69453,7.04453 0.29766,2.53008 -0.0496,5.75469 -3.67345,7.49102 -3.623851,-1.73633 -3.971117,-4.96094 -3.673461,-7.49102 0.297656,-2.53008 0.644921,-5.308202 0.694531,-7.04453 0.04961,-1.736328 -0.198437,-6.35 -2.530078,-8.334375 -2.331641,-1.984375 -4.305448,-1.4789 -5.407422,-0.248047 -1.132239,1.264657 -0.04748,2.373523 0.898987,2.033985 M 108.36814,83.19091 c 0,0 -1.01122,0.167371 -2.96003,-0.01252 m -1.70325,27.02057 c 0,0 0.41341,-1.73633 -0.82682,-1.93477 -1.24024,-0.19843 -2.46394,2.03399 -1.70326,4.2168 M 65.296403,90.670419 c 1.933379,0 3.105299,-0.348285 9.382244,-2.431878 6.342786,-2.105448 8.021883,-2.014051 10.12663,-1.312469 0,0.735325 0.838719,1.059994 1.5403,0.830207 m -3.94954,-4.714558 c 0,0 0.740317,0.35271 1.669398,0.478496 0.929081,0.125786 1.953081,1.449936 0.739842,3.405855 m -0.739842,-3.405855 c -0.09663,-0.289893 0.138956,-1.398683 1.502384,-1.213239 1.374154,0.186902 2.453046,2.467575 1.540988,4.502165 m -4.16193,-3.564611 c 0,0 -0.297657,-2.430859 2.232422,-2.827734 2.530078,-0.396875 3.125391,2.182812 3.224609,2.877343 m -1.223698,7.127214 c 0,0 0.03307,-1.852083 1.819011,-1.951302 1.785938,-0.09922 3.03987,1.816145 3.175,3.720703 0.128193,1.80679 -0.787258,2.547897 -1.335334,2.897061 M 87.611608,91.72022 c 0,0 0.386588,-1.267686 1.784488,-0.968136 1.3979,0.29955 2.321125,2.103311 1.442791,4.335733 M 86.799872,83.19091 c 0,0 1.011217,0.167371 2.960026,-0.01252 m 1.703255,27.02057 c 0,0 -0.413411,-1.73633 0.826823,-1.93477 1.240234,-0.19843 2.463932,2.03399 1.703255,4.2168" />
      </g>
      <path
         id="path885"
         style="font-variation-settings:normal;opacity:1;vector-effect:none;fill:#e6e6e6;fill-opacity:1;stroke:#666666;stroke-width:0.2610162;stroke-linecap:butt;stroke-linejoin:miter;stroke-miterlimit:4;stroke-dasharray:none;stroke-dashoffset:0;stroke-opacity:1;stop-color:#000000;stop-opacity:1"
         d="m 99.752094,69.420149 c 2.202086,0.369946 4.824516,1.823564 4.824516,1.823564 v -6.051828 c 0,0 -2.94874,1.63252 -5.623126,1.64683 0.0143,-2.674387 1.656436,-5.614029 1.656436,-5.614029 h -6.051824 c 0,0 1.642136,2.939642 1.65644,5.614029 -2.674385,-0.01431 -5.623124,-1.64683 -5.623124,-1.64683 v 6.051828 c 0,0 2.622434,-1.453618 4.824513,-1.823564 0.299133,3.092392 1.337035,7.213624 2.168085,10.215816 0.831049,-3.002192 1.868952,-7.123424 2.168084,-10.215816 z"
         sodipodi:nodetypes="cccccccccccc" />
      <path
         id="path887"
         style="font-variation-settings:normal;opacity:1;vector-effect:none;fill:#e6e6e6;fill-opacity:1;stroke:#666666;stroke-width:0.2610162;stroke-linecap:butt;stroke-linejoin:miter;stroke-miterlimit:4;stroke-dasharray:none;stroke-dashoffset:0;stroke-opacity:1;stop-color:#000000;stop-opacity:1"
         d="m 67.938807,104.49927 c 2.202082,0.36995 4.824512,1.82357 4.824512,1.82357 v -6.05183 c 0,0 -2.94874,1.63252 -5.623122,1.64683 0.0143,-2.674386 1.65644,-5.614028 1.65644,-5.614028 h -6.051828 c 0,0 1.642136,2.939642 1.65644,5.614028 -2.674385,-0.0143 -5.623124,-1.64683 -5.623124,-1.64683 v 6.05183 c 0,0 2.622434,-1.45362 4.824513,-1.82357 0.299133,3.0924 1.337035,7.21363 2.168085,10.21582 0.831049,-3.00219 1.868952,-7.12342 2.168084,-10.21582 z"
         sodipodi:nodetypes="cccccccccccc" />
      <path
         id="path889"
         style="font-variation-settings:normal;opacity:1;vector-effect:none;fill:#e6e6e6;fill-opacity:1;stroke:#666666;stroke-width:0.2610162;stroke-linecap:butt;stroke-linejoin:miter;stroke-miterlimit:4;stroke-dasharray:none;stroke-dashoffset:0;stroke-opacity:1;stop-color:#000000;stop-opacity:1"
         d="m 71.510682,137.4399 c 2.202082,0.36995 4.824512,1.82357 4.824512,1.82357 v -6.05183 c 0,0 -2.94874,1.63252 -5.623122,1.64683 0.0143,-2.67439 1.65644,-5.61403 1.65644,-5.61403 h -6.051828 c 0,0 1.642136,2.93964 1.65644,5.61403 C 65.298739,134.84417 62.35,133.21164 62.35,133.21164 v 6.05183 c 0,0 2.622434,-1.45362 4.824513,-1.82357 0.299133,3.0924 1.337035,7.21363 2.168085,10.21582 0.831049,-3.00219 1.868952,-7.12342 2.168084,-10.21582 z"
         sodipodi:nodetypes="cccccccccccc" />
      <path
         id="path891"
         style="font-variation-settings:normal;opacity:1;vector-effect:none;fill:#e6e6e6;fill-opacity:1;stroke:#666666;stroke-width:0.2610162;stroke-linecap:butt;stroke-linejoin:miter;stroke-miterlimit:4;stroke-dasharray:none;stroke-dashoffset:0;stroke-opacity:1;stop-color:#000000;stop-opacity:1"
         d="m 127.22921,104.49927 c -2.20208,0.36995 -4.82451,1.82357 -4.82451,1.82357 v -6.05183 c 0,0 2.94874,1.63252 5.62312,1.64683 -0.0143,-2.674386 -1.65644,-5.614028 -1.65644,-5.614028 h 6.05183 c 0,0 -1.64214,2.939642 -1.65644,5.614028 2.67438,-0.0143 5.62312,-1.64683 5.62312,-1.64683 v 6.05183 c 0,0 -2.62243,-1.45362 -4.82451,-1.82357 -0.29913,3.0924 -1.33704,7.21363 -2.16809,10.21582 -0.83105,-3.00219 -1.86895,-7.12342 -2.16808,-10.21582 z"
         sodipodi:nodetypes="cccccccccccc" />
      <path
         id="path893"
         style="font-variation-settings:normal;opacity:1;vector-effect:none;fill:#e6e6e6;fill-opacity:1;stroke:#666666;stroke-width:0.2610162;stroke-linecap:butt;stroke-linejoin:miter;stroke-miterlimit:4;stroke-dasharray:none;stroke-dashoffset:0;stroke-opacity:1;stop-color:#000000;stop-opacity:1"
         d="m 123.65733,137.4399 c -2.20208,0.36995 -4.82451,1.82357 -4.82451,1.82357 v -6.05183 c 0,0 2.94874,1.63252 5.62312,1.64683 -0.0143,-2.67439 -1.65644,-5.61403 -1.65644,-5.61403 h 6.05183 c 0,0 -1.64213,2.93964 -1.65644,5.61403 2.67439,-0.0143 5.62313,-1.64683 5.62313,-1.64683 v 6.05183 c 0,0 -2.62244,-1.45362 -4.82452,-1.82357 -0.29913,3.0924 -1.33703,7.21363 -2.16808,10.21582 -0.83105,-3.00219 -1.86895,-7.12342 -2.16809,-10.21582 z"
         sodipodi:nodetypes="cccccccccccc" />
      <g
         id="g1220"
         style="stroke-width:0.2610162;stroke-miterlimit:4;stroke-dasharray:none">
        <path
           style="font-variation-settings:normal;opacity:1;vector-effect:none;fill:#bf9f4f;fill-opacity:1;stroke:#502d16;stroke-width:0.2610162;stroke-linecap:butt;stroke-linejoin:miter;stroke-miterlimit:4;stroke-dasharray:none;stroke-dashoffset:0;stroke-opacity:1;stop-color:#000000;stop-opacity:1"
           d="m 110.62464,138.55947 c 0,0 -0.42719,0.53654 -1.18149,0.76914 2.6972,4.35837 3.30866,8.09232 3.10872,13.31944 1.31665,0.62034 0.88256,1.88619 -0.1472,1.88719 0,0 0.43939,2.46299 2.26642,5.13837 1.82704,2.67537 4.19771,3.95464 4.19771,3.95464 0,0 -0.66146,1.62057 -2.89388,1.57097 -0.34015,0.56514 -0.90368,1.29856 -2.6293,1.38906 -0.24331,0.63086 -0.78797,1.43826 -2.55914,1.33946 -0.27461,0.33023 -1.38657,1.03328 -2.79867,0.69453 0,0 -0.49609,-0.89297 -0.99219,-1.93477 0,0 -1.33945,0.21497 -2.43086,0.71107 0,0 0.54571,1.48828 0.94258,2.28203 -0.46808,0.25164 -1.64853,0.60153 -2.57969,0.69453 l -0.14882,-0.44648 c 0,0 -1.5379,0.59531 -3.026177,0.44648 l -0.198438,-0.74414 c 0,0 -0.726014,0.19843 -1.970205,0.19843 -1.244192,0 -1.970206,-0.19843 -1.970206,-0.19843 l -0.198438,0.74414 c -1.488278,0.14883 -3.026168,-0.44648 -3.026168,-0.44648 l -0.14883,0.44648 c -0.93115,-0.093 -2.1116,-0.44289 -2.57969,-0.69453 0.39688,-0.79375 0.94258,-2.28203 0.94258,-2.28203 -1.09141,-0.4961 -2.43086,-0.71107 -2.43086,-0.71107 -0.4961,1.0418 -0.99219,1.93477 -0.99219,1.93477 -1.4121,0.33875 -2.52406,-0.3643 -2.79867,-0.69453 -1.77117,0.0988 -2.31583,-0.7086 -2.55914,-1.33946 -1.72562,-0.0905 -2.28915,-0.82392 -2.6293,-1.38906 -2.23242,0.0496 -2.89388,-1.57097 -2.89388,-1.57097 0,0 2.37067,-1.27927 4.19771,-3.95464 1.82703,-2.67538 2.26642,-5.13837 2.26642,-5.13837 -1.02976,-10e-4 -1.46385,-1.26685 -0.1472,-1.88719 -0.19994,-5.22712 0.41152,-8.96107 3.10872,-13.31944 -0.5789,-0.0572 -0.76054,-0.48851 -0.76054,-0.48851 -0.69454,-0.0496 -0.99219,-0.69453 -0.99219,-0.69453 -0.69453,-0.14883 -1.0418,-0.74414 -1.0418,-0.74414 0,0 3.41108,-7.30465 8.67295,-10.53193 0,0 0.24021,-1.52314 1.282,-2.3665 1.0418,-0.84336 2.23242,-0.4961 2.23242,-0.4961 0.225519,-0.53442 0.449788,-0.79467 1.141017,-1.09141 0.175272,-0.66417 0.55172,-1.03608 1.325285,-1.2733 5.7154,2.72061 8.26522,6.26357 10.16885,8.91881 0,0 -0.25288,0.62908 -0.74399,1.05003 0,0 2.31461,3.41407 3.61577,6.94844 z"
           id="path1174"
           sodipodi:nodetypes="ccccscccccccccccccccccccczccccccccccccccccccc" />
        <path
           id="path1170"
           style="color:#000000;font-style:normal;font-variant:normal;font-weight:normal;font-stretch:normal;font-size:medium;line-height:normal;font-family:sans-serif;font-variant-ligatures:normal;font-variant-position:normal;font-variant-caps:normal;font-variant-numeric:normal;font-variant-alternates:normal;font-variant-east-asian:normal;font-feature-settings:normal;font-variation-settings:normal;text-indent:0;text-align:start;text-decoration:none;text-decoration-line:none;text-decoration-style:solid;text-decoration-color:#000000;letter-spacing:normal;word-spacing:normal;text-transform:none;writing-mode:lr-tb;direction:ltr;text-orientation:mixed;dominant-baseline:auto;baseline-shift:baseline;text-anchor:start;white-space:normal;shape-padding:0;shape-margin:0;inline-size:0;clip-rule:nonzero;display:inline;overflow:visible;visibility:visible;opacity:1;isolation:auto;mix-blend-mode:normal;color-interpolation:sRGB;color-interpolation-filters:linearRGB;solid-color:#000000;solid-opacity:1;vector-effect:none;fill:#502d16;fill-opacity:1;fill-rule:nonzero;stroke:none;stroke-linecap:butt;stroke-linejoin:miter;stroke-miterlimit:4;stroke-dasharray:none;stroke-dashoffset:0;stroke-opacity:1;color-rendering:auto;image-rendering:auto;shape-rendering:auto;text-rendering:auto;enable-background:accumulate;stop-color:#000000;stop-opacity:1;stroke-width:0.2610162"
           d="m 86.455078,152.39648 0.259766,0.0391 c 0,0 0.347241,-2.28144 0.514648,-4.03809 -0.427905,1.71601 -0.774414,3.99902 -0.774414,3.99902 z m 4.66211,1.29493 0.261718,0.0293 c 0,0 0.796417,-4.51111 0.7125,-9.14297 -0.282348,4.79395 -0.974219,9.11368 -0.974218,9.11368 z m -2.230469,-0.95508 0.257812,0.0547 c 0,0 0.348804,-1.68818 0.317383,-2.95411 -0.229858,1.21454 -0.575195,2.89942 -0.575195,2.89942 z m 6.148437,0.4707 0.263672,0.008 c 0,0 0.05078,-1.68717 -0.08203,-2.83203 -0.132812,1.13719 -0.18164,2.82422 -0.18164,2.82422 z m 1.587891,-0.39844 0.263672,0.01 c 0,0 0.05022,-1.43832 -0.131836,-2.38575 -0.08284,0.93774 -0.131836,2.37598 -0.131836,2.37598 z m -3.423828,1.24414 h 0.265625 c 0.179801,-0.97125 0.462109,-6.31159 0.462109,-10.5168 0,0 -0.568051,9.41647 -0.727734,10.5168 z m -6.582031,0.23633 -0.261719,-0.041 c 0,0 -0.397527,2.52857 -0.762696,4.43554 0.627018,-1.86332 1.024414,-4.39453 1.024415,-4.39453 z m -1.742188,0.0723 -0.25,-0.0879 c 0,0 -0.59527,1.6871 -0.768555,2.6748 0.422027,-0.89745 1.018555,-2.58691 1.018555,-2.58691 z m 11.996094,0.25781 -0.265625,-0.008 c 0,0 -0.09946,3.23267 -0.06543,4.32031 0.232461,-1.09516 0.331055,-4.3125 0.331055,-4.3125 z m -7.824219,0.2207 -0.259766,-0.0508 c 0,0 -0.496036,2.52764 -0.961914,4.49023 0.724747,-1.90694 1.22168,-4.43945 1.22168,-4.43945 z m 6.087891,0.33008 -0.265625,-0.0156 c 0,0 -0.249806,4.07677 -0.314454,5.46386 0.332229,-1.39102 0.580079,-5.44824 0.580079,-5.44824 z m -4.052735,0.60547 -0.261719,-0.0371 c 0,0 -0.350218,2.48693 -0.464844,3.54102 0.381469,-1.02952 0.726563,-3.50391 0.726563,-3.50391 z m 2.033203,0.14453 -0.261718,-0.0293 c 0,0 -0.348364,3.17691 -0.31543,4.0332 0.231371,-0.83042 0.577148,-4.0039 0.577148,-4.0039 z m -14.214843,8.86134 0.167968,0.46289 0.25,-0.0898 -0.115234,-0.31446 c 0.09288,-0.0973 2.595526,-2.72479 3.93457,-5.9082 -1.145127,2.12032 -2.574956,4.10208 -4.237304,5.84957 z m 9.394531,1.95511 c 0,0 1.198847,-3.05569 1.670898,-5.34863 -0.720638,2.1972 -1.916992,5.25097 -1.916992,5.25097 z m -6.748045,-0.80861 c 0.03485,0.23315 0.09224,0.46226 0.146518,0.69145 l 0.257813,-0.0625 c 0,0 -0.08387,-0.34919 -0.123047,-0.55859 0.05535,-0.0592 1.711537,-1.81967 2.601562,-3.80176 -0.829908,1.33787 -1.817759,2.57417 -2.882846,3.7314 z m 8.933592,1.4238 0.246093,0.0937 c 0,0 0.830785,-2.15782 1.249024,-4.9248 -0.673167,2.69006 -1.495117,4.83105 -1.495117,4.83105 z m 5.001953,2.26367 0.263672,0.0312 c 0,0 0.380089,-3.1915 0.545898,-5.68749 -0.429503,2.46492 -0.80957,5.65624 -0.80957,5.65624 z m -11.5293,-1.99026 0.328125,0.38867 0.201172,-0.17187 -0.201172,-0.23828 c 0.07537,-0.11562 1.5101,-2.31452 1.881836,-3.28419 -0.761433,1.08504 -1.482896,2.19749 -2.209961,3.30567 z m 8.308597,2.26761 0.253906,0.0723 c 0,0 0.929026,-3.19001 1.047851,-5.36133 -0.377268,2.0951 -1.301757,5.28907 -1.301757,5.28907 z m -7.978273,-17.55566 c 0,0 0.01843,-3.37176 1.19269,-6.94567 0,0 -0.795127,3.74633 -0.900364,6.96905 z"
           sodipodi:nodetypes="ccccccccscccccccccccccccccccccccsccccccccccccccccccccccccccccccccccccccccccccccccccccccccccccccccccccccc" />
        <path
           id="path1149"
           style="font-variation-settings:normal;opacity:1;vector-effect:none;fill:none;fill-opacity:1;stroke:#502d16;stroke-width:0.2610162;stroke-linecap:butt;stroke-linejoin:miter;stroke-miterlimit:4;stroke-dasharray:none;stroke-dashoffset:0;stroke-opacity:1;stop-color:#000000;stop-opacity:1"
           d="m 93.785776,153.77469 c -0.986509,0.54269 -1.608259,1.22751 -1.402236,1.65442 0.42095,0.87227 1.151911,0.41074 2.279109,-0.12606 1.127198,-0.5368 1.91231,-0.72943 2.92136,-0.72943 1.00905,0 1.794162,0.19263 2.921361,0.72943 1.1272,0.5368 1.85816,0.99833 2.27911,0.12606 0.20602,-0.42691 -0.41573,-1.11173 -1.40224,-1.65442 -0.98651,-0.54268 -2.302337,-0.93461 -3.798231,-0.93461 -1.495894,0 -2.811724,0.39193 -3.798233,0.93461 z m 18.766094,-1.12664 c 0,0 -1.71877,-0.54104 -4.93,-0.15874 -3.21123,0.38229 -5.11803,2.07568 -4.69708,2.98774 0.42095,0.91206 1.30828,0.28059 2.70006,-0.41244 1.39178,-0.69303 2.53426,-0.77321 3.75202,-0.76269 1.21776,0.0105 2.02079,0.10789 3.0278,0.23333 m -29.788525,-1.8872 c 0,0 1.718773,-0.54104 4.930002,-0.15874 3.21123,0.38229 5.118026,2.07568 4.697076,2.98774 -0.42095,0.91206 -1.308278,0.28059 -2.700059,-0.41244 -1.391781,-0.69303 -2.534256,-0.77321 -3.752016,-0.76269 -1.217759,0.0105 -2.020794,0.10789 -3.027802,0.23333" />
        <path
           style="font-variation-settings:normal;opacity:1;vector-effect:none;fill:none;fill-opacity:1;stroke:#502d16;stroke-width:0.2610162;stroke-linecap:butt;stroke-linejoin:miter;stroke-miterlimit:4;stroke-dasharray:none;stroke-dashoffset:0;stroke-opacity:1;stop-color:#000000;stop-opacity:1"
           d="m 91.603289,126.8695 c -0.140317,1.21214 -0.07153,2.08928 0.636587,2.81615 0.708113,0.72687 1.249978,0.58359 1.483349,0.2452 0.23337,-0.33839 -0.190763,-0.93155 -0.338076,-1.77958 -0.147313,-0.84803 -0.220751,-1.87385 0.747362,-2.63003 0.05383,-0.57921 0.372485,-1.03782 0.888107,-1.19865 0,0 0.03094,-0.17102 0.09709,-0.31571 m -1.455208,5.19247 c 0,0 1.604037,1.33945 3.092318,3.7207 1.488281,2.38125 2.033985,4.66328 2.033985,4.66328 0,0 1.450707,0.20695 1.797967,-1.08289 0,0 1.50937,-0.16145 1.9338,-1.37405 0,0 1.36251,0.0606 1.84758,-1.21269 0.55662,-0.0928 1.67786,-0.47864 1.95735,-1.65116 l -0.22284,-0.35333 c 0.56127,-0.0526 0.90621,-0.29818 0.90621,-0.29818 m -7.723974,5.95577 c 0,0 1.190624,3.02617 1.785934,4.56406 0.88211,0.2496 1.61978,0.009 1.98438,-0.64493 0,0 1.43868,0.4465 1.93477,-0.84335 0,0 1.48578,0.21297 1.88265,-0.77922 0,0 1.11799,0.31821 1.7133,-0.52515 0,0 0.28532,0.12114 0.85722,-0.01 m -23.71828,2e-5 c 0,0 3.99584,-6.42549 7.363436,-9.16167"
           id="path1189"
           sodipodi:nodetypes="czzzccccscccccccccccccccc" />
        <path
           style="color:#000000;font-style:normal;font-variant:normal;font-weight:normal;font-stretch:normal;font-size:medium;line-height:normal;font-family:sans-serif;font-variant-ligatures:normal;font-variant-position:normal;font-variant-caps:normal;font-variant-numeric:normal;font-variant-alternates:normal;font-variant-east-asian:normal;font-feature-settings:normal;font-variation-settings:normal;text-indent:0;text-align:start;text-decoration:none;text-decoration-line:none;text-decoration-style:solid;text-decoration-color:#000000;letter-spacing:normal;word-spacing:normal;text-transform:none;writing-mode:lr-tb;direction:ltr;text-orientation:mixed;dominant-baseline:auto;baseline-shift:baseline;text-anchor:start;white-space:normal;shape-padding:0;shape-margin:0;inline-size:0;clip-rule:nonzero;display:inline;overflow:visible;visibility:visible;opacity:1;isolation:auto;mix-blend-mode:normal;color-interpolation:sRGB;color-interpolation-filters:linearRGB;solid-color:#000000;solid-opacity:1;vector-effect:none;fill:#502d16;fill-opacity:1;fill-rule:nonzero;stroke:none;stroke-linecap:butt;stroke-linejoin:miter;stroke-miterlimit:4;stroke-dasharray:none;stroke-dashoffset:0;stroke-opacity:1;color-rendering:auto;image-rendering:auto;shape-rendering:auto;text-rendering:auto;enable-background:accumulate;stop-color:#000000;stop-opacity:1;stroke-width:0.2610162"
           d="m 96.298828,122.78906 -0.08008,0.25196 c 0,0 2.480733,0.78126 4.594722,3.29784 -1.95398,-2.742 -4.514644,-3.5498 -4.514644,-3.5498 z m -1.222656,1.41406 -0.111328,0.24024 c 1.588658,0.72893 2.783375,1.33614 4.547851,3.14844 -1.590406,-2.01454 -2.842527,-2.65729 -4.436523,-3.38868 z m -0.896484,1.19532 -0.0957,0.24609 c 0,0 1.613517,0.62456 3.236328,2.26855 -1.464152,-1.8639 -3.140625,-2.51464 -3.140624,-2.51464 z m -0.855469,1.56445 -0.121094,0.23438 c 0,0 1.590741,0.83096 3.147461,2.47851 -1.389924,-1.86035 -3.026367,-2.71289 -3.026367,-2.71289 z m -1.689453,1.30859 -0.177735,-0.19531 c 0,0 -1.291741,1.19213 -2.490234,2.57813 1.381195,-1.1937 2.667969,-2.38282 2.667969,-2.38282 z m 14.357424,3.71094 0.2207,-0.14648 c 0,0 -1.56308,-2.39619 -2.87012,-3.58692 1.07835,1.33496 2.64942,3.7334 2.64942,3.7334 z m -13.857424,-2.47265 -0.185547,-0.18946 c 0,0 -1.884104,1.8288 -2.635743,3.12012 0.93508,-1.08994 2.82129,-2.93066 2.82129,-2.93066 z m 1.691406,0.5039 -0.244238,-0.10205 c -1.321349,1.66878 -2.423731,4.90967 -2.423731,4.90967 0,0 1.400451,-3.20682 2.667969,-4.80762 z m 0.74414,0.10156 -0.228515,-0.13085 c -1.062498,1.84167 -2.201172,5.04687 -2.201172,5.04687 0,0 1.38744,-3.10945 2.429687,-4.91602 z m -1.386718,0.14258 -0.191406,-0.18359 c -3.00323,3.62986 -4.880376,7.33197 -6.341797,11.74316 1.781459,-3.92558 3.527189,-8.35456 6.533203,-11.55957 z m 11.066406,3.71485 0.23633,-0.11719 c -0.68259,-1.19905 -1.18959,-2.50642 -2.26563,-3.50196 0.79713,1.23742 1.37538,2.32565 2.0293,3.61915 z m -8.914062,-2.9336 -0.214844,-0.15429 c -2.024798,3.40649 -3.141243,6.63851 -4.032227,10.46093 1.262812,-3.4135 2.080881,-7.17825 4.247071,-10.30664 z m 0.771484,0.77149 -0.214844,-0.15235 c -1.455839,2.43232 -2.177437,4.8166 -2.558594,7.58301 0.709708,-2.47529 1.291619,-5.26527 2.773438,-7.43066 z m 6.291018,3.36718 0.24414,-0.10351 c 0,0 -0.85667,-2.03304 -1.68457,-3.03614 0.57526,1.10168 1.44043,3.13965 1.44043,3.13965 z m -1.93555,1.36915 0.24805,-0.0938 c -0.6114,-1.40802 -1.102413,-2.90113 -2.138674,-4.13477 0.757966,1.45278 1.311286,2.72388 1.890624,4.22853 z m -4.173828,-4.19927 c 0,0 -0.771281,5.67975 -0.70996,9.06738 0.201638,-3.34757 1.008711,-8.87437 1.008711,-8.87437 z m -12.433593,5.73442 0.232422,0.12695 c 0,0 1.570789,-2.87614 2.843749,-4.87597 -1.505165,1.86971 -3.076171,4.74902 -3.076171,4.74902 z m 13.205078,-4.5137 c 0.140219,1.89296 0.623046,7.00488 0.623046,7.00488 0,0 -0.18388,-4.8131 -0.324295,-6.7087 z m -12.212891,5.20901 0.234375,0.125 c 0,0 1.518927,-2.87162 3.189453,-5.07324 -1.901349,2.06478 -3.423828,4.94824 -3.423828,4.94824 z m 23.619144,0.61719 0.23828,-0.11328 c -0.81921,-1.55739 -1.411,-3.12268 -2.59668,-4.59375 0.87366,1.64542 1.56064,3.03775 2.3584,4.70703 z m -1.71485,0.52344 0.24024,-0.10938 c 0,0 -1.2806,-2.83406 -2.1543,-3.88086 0.61458,1.13603 1.91406,3.99024 1.91406,3.99024 z m -1.88281,0.7793 0.24219,-0.10938 c 0,0 -0.84186,-1.84719 -1.46094,-2.64063 0.37312,0.89329 1.21875,2.75001 1.21875,2.75001 z m -1.9375,0.83789 0.24609,-0.0977 c 0,0 -0.7858,-1.99283 -1.46191,-2.7959 0.41529,0.88365 1.21582,2.89356 1.21582,2.89356 z m 4.98242,-1.76954 -0.2539,0.0742 c 0,0 0.84022,2.87654 1.45898,4.80371 -0.36346,-2.00168 -1.20508,-4.87793 -1.20508,-4.87793 z m -1.40429,0.5625 -0.25391,0.0703 c 0,0 0.77193,2.73519 1.39062,4.87597 -0.3635,-2.20901 -1.13671,-4.94629 -1.13671,-4.94629 z m -1.89258,0.91602 -0.25586,0.0625 c 0,0 0.76974,3.22625 1.11035,5.44043 -0.0804,-2.27596 -0.85449,-5.50293 -0.85449,-5.50293 z m -1.71485,0.64258 -0.25781,0.0586 c 0,0 0.2561,1.1243 0.37676,1.90528 -0.008,-0.80492 -0.11895,-1.96387 -0.11895,-1.96387 z"
           id="path1191"
           sodipodi:nodetypes="ccccccccccccccccccccccccccccccccccccccccccccccccccccccccccccccccccccccccccccccccccccccccccccccccccccccccccccccccccc" />
        <path
           id="path1212"
           style="color:#000000;font-style:normal;font-variant:normal;font-weight:normal;font-stretch:normal;font-size:medium;line-height:normal;font-family:sans-serif;font-variant-ligatures:normal;font-variant-position:normal;font-variant-caps:normal;font-variant-numeric:normal;font-variant-alternates:normal;font-variant-east-asian:normal;font-feature-settings:normal;font-variation-settings:normal;text-indent:0;text-align:start;text-decoration:none;text-decoration-line:none;text-decoration-style:solid;text-decoration-color:#000000;letter-spacing:normal;word-spacing:normal;text-transform:none;writing-mode:lr-tb;direction:ltr;text-orientation:mixed;dominant-baseline:auto;baseline-shift:baseline;text-anchor:start;white-space:normal;shape-padding:0;shape-margin:0;inline-size:0;clip-rule:nonzero;display:inline;overflow:visible;visibility:visible;opacity:1;isolation:auto;mix-blend-mode:normal;color-interpolation:sRGB;color-interpolation-filters:linearRGB;solid-color:#000000;solid-opacity:1;vector-effect:none;fill:#502d16;fill-opacity:1;fill-rule:nonzero;stroke:none;stroke-linecap:butt;stroke-linejoin:miter;stroke-miterlimit:4;stroke-dasharray:none;stroke-dashoffset:0;stroke-opacity:1;color-rendering:auto;image-rendering:auto;shape-rendering:auto;text-rendering:auto;enable-background:accumulate;stop-color:#000000;stop-opacity:1;stroke-width:0.2610162"
           d="m 108.71294,152.39648 -0.25977,0.0391 c 0,0 -0.34724,-2.28144 -0.51464,-4.03809 0.4279,1.71601 0.77441,3.99902 0.77441,3.99902 z m -4.66211,1.29493 -0.26172,0.0293 c 0,0 -0.79641,-4.51111 -0.7125,-9.14297 0.28235,4.79395 0.97422,9.11368 0.97422,9.11368 z m 2.23047,-0.95508 -0.25781,0.0547 c 0,0 -0.34881,-1.68818 -0.31739,-2.95411 0.22986,1.21454 0.5752,2.89942 0.5752,2.89942 z m -6.14844,0.4707 -0.26367,0.008 c 0,0 -0.05078,-1.68717 0.08203,-2.83203 0.13281,1.13719 0.18164,2.82422 0.18164,2.82422 z m -1.587889,-0.39844 -0.263672,0.01 c 0,0 -0.05022,-1.43832 0.131836,-2.38575 0.08284,0.93774 0.131836,2.37598 0.131836,2.37598 z m 3.423829,1.24414 h -0.26563 c -0.1798,-0.97125 -0.4621,-6.31159 -0.4621,-10.5168 0,0 0.56805,9.41647 0.72773,10.5168 z m 6.58203,0.23633 0.26172,-0.041 c 0,0 0.39753,2.52857 0.7627,4.43554 -0.62702,-1.86332 -1.02442,-4.39453 -1.02442,-4.39453 z m 1.74219,0.0723 0.25,-0.0879 c 0,0 0.59527,1.6871 0.76855,2.6748 -0.42202,-0.89745 -1.01855,-2.58691 -1.01855,-2.58691 z m -11.996096,0.25781 0.265625,-0.008 c 0,0 0.09946,3.23267 0.06543,4.32031 -0.232461,-1.09516 -0.331055,-4.3125 -0.331055,-4.3125 z m 7.824216,0.2207 0.25977,-0.0508 c 0,0 0.49604,2.52764 0.96191,4.49023 -0.72474,-1.90694 -1.22168,-4.43945 -1.22168,-4.43945 z m -6.08789,0.33008 0.26563,-0.0156 c 0,0 0.2498,4.07677 0.31445,5.46386 -0.33223,-1.39102 -0.58008,-5.44824 -0.58008,-5.44824 z m 4.05274,0.60547 0.26172,-0.0371 c 0,0 0.35021,2.48693 0.46484,3.54102 -0.38147,-1.02952 -0.72656,-3.50391 -0.72656,-3.50391 z m -2.03321,0.14453 0.26172,-0.0293 c 0,0 0.34837,3.17691 0.31543,4.0332 -0.23137,-0.83042 -0.57715,-4.0039 -0.57715,-4.0039 z m 14.21485,8.86134 -0.16797,0.46289 -0.25,-0.0898 0.11523,-0.31446 c -0.0929,-0.0973 -2.59552,-2.72479 -3.93457,-5.9082 1.14513,2.12032 2.57496,4.10208 4.23731,5.84957 z m -9.39453,1.95511 c 0,0 -1.19885,-3.05569 -1.6709,-5.34863 0.72064,2.1972 1.91699,5.25097 1.91699,5.25097 z m 6.74804,-0.80861 c -0.0348,0.23315 -0.0922,0.46226 -0.14652,0.69145 l -0.25781,-0.0625 c 0,0 0.0839,-0.34919 0.12305,-0.55859 -0.0554,-0.0592 -1.71154,-1.81967 -2.60156,-3.80176 0.8299,1.33787 1.81775,2.57417 2.88284,3.7314 z m -8.93359,1.4238 -0.24609,0.0937 c 0,0 -0.83079,-2.15782 -1.24903,-4.9248 0.67317,2.69006 1.49512,4.83105 1.49512,4.83105 z m -5.001954,2.26367 -0.263672,0.0312 c 0,0 -0.380089,-3.1915 -0.545898,-5.68749 0.429503,2.46492 0.80957,5.65624 0.80957,5.65624 z m 11.529304,-1.99026 -0.32813,0.38867 -0.20117,-0.17187 0.20117,-0.23828 c -0.0754,-0.11562 -1.5101,-2.31452 -1.88183,-3.28419 0.76143,1.08504 1.48289,2.19749 2.20996,3.30567 z m -8.3086,2.26761 -0.25391,0.0723 c 0,0 -0.92902,-3.19001 -1.04785,-5.36133 0.37727,2.0951 1.30176,5.28907 1.30176,5.28907 z m 7.97827,-17.55566 c 0,0 -0.0184,-3.37176 -1.19269,-6.94567 0,0 0.79513,3.74633 0.90037,6.96905 z"
           sodipodi:nodetypes="ccccccccscccccccccccccccccccccccsccccccccccccccccccccccccccccccccccccccccccccccccccccccccccccccccccccccc" />
      </g>
    </g>
  </g>
</svg>
