<?xml version="1.0" encoding="UTF-8" standalone="no"?>
<!-- Created with Inkscape (http://www.inkscape.org/) -->
<svg xmlns:dc="http://purl.org/dc/elements/1.1/" xmlns:cc="http://creativecommons.org/ns#" xmlns:rdf="http://www.w3.org/1999/02/22-rdf-syntax-ns#" xmlns:svg="http://www.w3.org/2000/svg" xmlns="http://www.w3.org/2000/svg" xmlns:xlink="http://www.w3.org/1999/xlink" xmlns:sodipodi="http://sodipodi.sourceforge.net/DTD/sodipodi-0.dtd" xmlns:inkscape="http://www.inkscape.org/namespaces/inkscape" width="540.4964" height="595.71887" id="svg2" version="1.1" inkscape:version="0.48.5 r10040" sodipodi:docname="huittinen.svg">
  <defs id="defs4">
    <inkscape:path-effect effect="skeletal" id="path-effect4050" is_visible="true" pattern="m 20.892858,1.6531 c 0,0 -4.677026,1.65309 -10.44643,1.65309 C 4.677025,3.30619 0,1.6531 0,1.6531 0,1.6531 4.677025,0 10.446428,0 c 5.769404,0 10.44643,1.6531 10.44643,1.6531 z" copytype="single_stretched" prop_scale="1" scale_y_rel="false" spacing="0" normal_offset="0" tang_offset="0" prop_units="false" vertical_pattern="false" fuse_tolerance="0"/>
    <inkscape:path-effect effect="skeletal" id="path-effect4006" is_visible="true" pattern="m 20.892858,0.89549 c 0,0 -4.677026,0.89548 -10.44643,0.89548 C 4.677025,1.79097 0,0.89549 0,0.89549 0,0.89549 4.677025,0 10.446428,0 c 5.769404,0 10.44643,0.89549 10.44643,0.89549 z" copytype="single_stretched" prop_scale="1" scale_y_rel="false" spacing="0" normal_offset="0" tang_offset="0" prop_units="false" vertical_pattern="false" fuse_tolerance="0"/>
  </defs>
  <sodipodi:namedview id="base" pagecolor="#f6f3f1" bordercolor="#666666" borderopacity="1.0" inkscape:pageopacity="0" inkscape:pageshadow="2" inkscape:zoom="1" inkscape:cx="415.52608" inkscape:cy="389.65984" inkscape:document-units="px" inkscape:current-layer="layer1" showgrid="false" showborder="true" inkscape:window-width="1920" inkscape:window-height="1017" inkscape:window-x="-8" inkscape:window-y="-8" inkscape:window-maximized="1" fit-margin-top="0" fit-margin-left="0" fit-margin-right="0" fit-margin-bottom="0" inkscape:showpageshadow="false"/>
  <metadata id="metadata7">
    <rdf:RDF>
      <cc:Work rdf:about="">
        <dc:format>image/svg+xml</dc:format>
        <dc:type rdf:resource="http://purl.org/dc/dcmitype/StillImage"/>
        <dc:title/>
      </cc:Work>
    </rdf:RDF>
  </metadata>
  <g inkscape:label="Layer 1" inkscape:groupmode="layer" id="layer1" transform="translate(-28.789348,-140.21474)">
    <path sodipodi:nodetypes="cszscc" inkscape:connector-curvature="0" id="path3763" d="m 569.28572,140.21474 c 0,0 0,192.86173 0,325.71887 0,132.85714 -103.35351,270 -270.24819,270 -166.89467,0 -270.248182,-137.14286 -270.248182,-270 0,-132.85714 0,-325.71887 0,-325.71887 z" style="color:#000000;fill:#00802e;fill-opacity:1;stroke:none;stroke-width:1;marker:none;visibility:visible;display:inline;overflow:visible;enable-background:accumulate"/>
    <g id="g3771" transform="translate(0.054974,0)">
      <g id="g3805">
        <path sodipodi:nodetypes="ssczzccs" transform="translate(-1.447574,0)" inkscape:connector-curvature="0" id="path3776" d="M 109.34902,351.56885 C 71.000429,292.364 112.33652,238.69525 103.2881,203.07643 94.244905,167.47819 74.436955,164.76349 60.849529,165.14908 c 4.32615,-8.55927 49.078561,-26.96594 84.864761,8.82025 35.78619,35.78619 20.73323,83.25169 42.42662,110.92946 21.69339,27.67777 48.48732,9.84898 48.48732,9.84898 0,0 7.57615,87.88327 0,92.80776 0,0 -84.0952,30.68339 -127.27921,-35.98668 z" style="color:#000000;fill:#c0a062;fill-opacity:1;stroke:#785730;stroke-width:2;stroke-linecap:butt;stroke-linejoin:miter;stroke-miterlimit:4;stroke-opacity:1;stroke-dasharray:none;stroke-dashoffset:0;marker:none;visibility:visible;display:inline;overflow:visible;enable-background:accumulate"/>
        <path transform="translate(-0.0549765,0)" id="path3953" d="m 105.71875,153.875 c -0.80358,1.875 -2.40625,3.5 -2.40625,3.5 0,0 2.92857,-0.54017 4,-1.34375 0,0 0.27679,1.34375 -1.0625,3.21875 0,0 3.4866,-0.5491 5.09375,-2.15625 0,0 -0.54018,2.39732 -1.34375,3.46875 0,0 3.49107,-1.31696 4.5625,-2.65625 0,0 -0.82589,2.92857 -1.09375,4 0,0 2.42857,-1.33482 3.5,-2.40625 l -0.53125,3.5 3.21875,-1.625 -0.5625,3.75 3.21875,-2.125 -0.53125,5.0625 4.28125,-4.28125 -2.40625,6.4375 5.09375,-4.28125 -0.8125,6.6875 4.28125,-5.09375 -2.125,7.5 5.875,-5.09375 -1.875,5.375 4.84375,-1.875 -2.40625,4.8125 5.625,-1.875 -2.6875,2.9375 3.46875,-1.59375 -3.75,6.15625 5.375,-3.75 -1.625,4.28125 2.6875,-1.0625 -2.9375,5.09375 5.09375,-2.40625 -2.96875,5.625 5.09375,-2.15625 -6.4375,5.90625 8.84375,-3.75 -6.40625,6.15625 6.40625,-1.34375 -4.53125,4.8125 5.34375,-1.34375 -6.15625,6.1875 11.25,-4.5625 -10.4375,8.03125 7.75,-2.15625 -8.03125,7.78125 12.3125,-6.15625 -8.84375,6.6875 c 0,0 7.35161,-1.98428 9.03125,-2.53125 -1.79508,0.79455 -12.5,7.09375 -12.5,7.09375 l 12.59375,-4.03125 -10.4375,7.78125 10.4375,-4.03125 -11.53125,9.90625 12.0625,-5.875 -8.84375,7.75 10.1875,-4.28125 -9.125,6.96875 9.65625,-2.9375 -12.59375,7.75 13.65625,-4.53125 -12.03125,7.5 11.5,-4.03125 -12.3125,6.96875 13.9375,-4.03125 -14.75,8.59375 14.46875,-4.84375 -10.96875,6.96875 10.4375,-4 -7.25,5.34375 8.59375,-2.9375 -12.0625,6.96875 12.59375,-3.75 -9.125,7.5 12.34375,-5.09375 -11.25,7.5 9.625,-2.9375 c 0,0 -2.75893,4.45982 -14.8125,7.40625 0,0 9.6384,0.52679 15.53125,-2.6875 L 156.25,273.25 l 12.3125,-3.75 -8.84375,6.6875 12.34375,-4.53125 -11.53125,8.5625 11.78125,-4.28125 c 0,0 -12.03571,9.375 -11.5,9.375 0.53572,0 12.59375,-5.09375 12.59375,-5.09375 l -7.5,6.6875 9.90625,-3.46875 -9.375,8.3125 c 0,0 11.25446,-6.17857 10.71875,-5.375 -0.53572,0.80357 -10.47321,8.83035 -9.9375,8.5625 0.53572,-0.26786 11.53125,-5.625 11.53125,-5.625 l -6.6875,8.3125 8.03125,-6.15625 -8.84375,9.09375 c 0,0 12.05357,-5.08036 11.25,-4.8125 -0.80357,0.26785 -5.90625,7.25 -5.90625,7.25 l 11,-5.90625 -8.84375,8.5625 11.53125,-6.40625 c 0,0 -5.62946,8.03125 -5.09375,8.03125 0.53572,0 8.84375,-5.625 8.84375,-5.625 l -6.1875,8.84375 9.9375,-7.5 -4.5625,8.28125 c 0,0 8.84821,-8.83928 8.3125,-7.5 -0.53572,1.33929 -4.84375,7.78125 -4.84375,7.78125 l 7.5,-5.375 -5.09375,8.3125 13.125,-9.90625 -1.875,4.8125 c 0,0 11.00447,-9.91071 10.46875,-9.375 -0.003,0.003 -0.0261,-0.0555 -0.0312,-0.0625 -9.61537,1.46922 -22.5309,-0.38964 -34.03125,-15.0625 -21.69339,-27.67777 -6.65131,-75.15131 -42.4375,-110.9375 -9.97387,-9.97387 -20.63999,-15.71511 -30.9375,-18.65625 -2.60417,-0.49945 -5.1681,-0.99415 -7.65625,-1.4375 z" style="color:#000000;fill:#785730;fill-opacity:1;stroke:none;stroke-width:1;marker:none;visibility:visible;display:inline;overflow:visible;enable-background:accumulate" inkscape:connector-curvature="0"/>
        <path sodipodi:nodetypes="ccccccccccccccccccccccccccccccccccccccccccccccccccccccccccccccccccccccccccccccccccccscssccssscscccsccccccccccccsscccccccccccccccsccccccccsccsccsccsccscscsccsccscscscsccsccsccsccsccsccsccsccccscccccccccccsccccccccccccccccccccccccccccccccccscccccccccccccccccccccccccccccccccsccscccscccccccc" inkscape:connector-curvature="0" transform="translate(-0.0549765,0)" id="path4048" d="m 107.72636,276.31821 -4.84486,0.6231 -3.694,2.55869 3.125,-0.8125 z m -5.41386,2.36929 -2.59375,1.625 1.84375,0.375 5.63373,-2.62881 z m -0.75,2 -1.84375,2.5625 2.75,0.21875 4.25682,-0.84756 -5.70114,-0.29917 z m 0.90625,2.78125 -5.704355,3.8855 4.336175,0.32373 -4.03807,2.00952 3.3125,-0.21875 2.03125,-1.9375 -2.6875,-0.78125 6.51253,-2.13833 -4.90657,0.43481 z m -2.09375,6 -3.84375,3.6875 3,-0.1875 5.16688,-2.84185 -5.377223,1.36279 z m -0.84375,3.5 2.87611,0.24239 -0.68861,1.38261 2.84375,-1.96875 z m 2.1875,1.625 -6.8125,4.71875 7.53125,-0.1875 4.10936,-1.96562 -6.682489,0.73085 6.041879,-2.57773 -5.13182,1.13642 z m 0.71875,4.53125 -1.6875,2.90625 7.00893,-3.10268 z m -1.6875,2.90625 -3.96875,2.90625 5.09375,-0.53125 -7.21875,4.5625 8.625,-0.9375 4.48661,-3.87946 L 100,303.34375 z m 2.53125,6 -0.125,0.875 6.22768,-1.9375 z m -0.125,0.875 -6.09375,4.34375 1.875,-0.25 5.625,-0.28125 0.53125,0 -5.09375,3.75 -2.6875,1.34375 -0.78125,0 5.0625,0.8125 -1.59375,1.3125 -3.21875,1.875 9.03125,-1.78125 7.17857,-5.16518 -8.70982,1.07143 0.28125,-0.8125 7.45982,-6.36161 -9.08482,1.79911 z m 2.65625,11.125 -1.78125,2.34375 10.70089,-4.42857 z m 3.5625,2.34375 c -2.94642,0 -8.56696,2.125 -9.90625,4 -1.339285,1.875 9.90625,-4 9.90625,-4 z M 109,325.28125 c -0.71568,0 -1.55804,0.16071 -2.5625,0.5625 -4.01786,1.60715 -5.90625,4.5625 -5.90625,4.5625 0,0 10.99553,-3.75 11.53125,-3.75 0,0 -0.91546,-1.375 -3.0625,-1.375 z m 1.0625,4 c -6.04614,0.16113 -12.765629,5.76562 -9.25,4.59375 4.01785,-1.33929 11.78125,-4.28125 11.78125,-4.28125 -0.80357,-0.23437 -1.66752,-0.33552 -2.53125,-0.3125 z m 8.4375,1.46875 -12.875,5.65625 4.53125,-0.75 c 0,0 -6.82011,5.3125 -6.0625,5.3125 0.75762,0 7.59375,-1.53125 7.59375,-1.53125 l -6.0625,5.6875 7.1875,-3.03125 -3.78125,7.96875 6.8125,-3.8125 -6.4375,7.21875 8.34375,-2.65625 -4.5625,5.3125 6.4375,-2.65625 -5.28125,5.3125 6.4375,-3.03125 -5.3125,5.28125 c 0,0 8.32012,-3.00761 7.5625,-2.25 -0.75761,0.75761 -5.28887,4.91005 -4.53125,4.53125 l 6.0625,-3.03125 -3.78125,5.3125 6.4375,-3.03125 c 0,0 -3.48043,5.43424 -4.125,6.34375 0.62272,-0.86587 6,-4.09375 6,-4.09375 L 125,371.53125 c 0.0221,0.0196 0.0403,0.043 0.0625,0.0625 l 6.3125,-2.96875 -4.15625,4.53125 9.84375,-3.03125 -7.375,5.25 c 0.0643,0.0494 0.12313,0.10713 0.1875,0.15625 l 8.6875,-3.125 c 0,0 -2.86262,4.17907 -3.96875,6.46875 0.41798,0.27715 0.82986,0.57548 1.25,0.84375 3.35773,-1.63244 10.83314,-5.8122 9.5625,-3.90625 -1.12593,1.6889 -3.70682,5.24814 -4.65625,6.8125 0.17685,0.0973 0.35412,0.18537 0.53125,0.28125 1.8822,-1.04897 10.9375,-6.34375 10.9375,-6.34375 l -7.46875,8.125 c 0.11295,0.0548 0.23072,0.10196 0.34375,0.15625 l 7.5,-5.625 c 0,0 -4.07164,5.43302 -4.84375,6.84375 0.0723,0.0319 0.14645,0.0621 0.21875,0.0937 1.62152,-1.29959 9.51138,-9.02855 9.15625,-6.1875 -0.20424,1.63392 -2.52897,5.27331 -4.40625,8.125 0.53857,0.20084 1.08568,0.4038 1.625,0.59375 3.84085,-3.21656 8.93357,-7.4622 8.09375,-6.0625 -0.63978,1.06631 -2.97064,4.30883 -5,7.09375 0.24163,0.0759 0.47709,0.14487 0.71875,0.21875 4.02932,-3.80942 9.61529,-8.73251 7.3125,-5.40625 -1.51296,2.18539 -2.97479,4.46161 -4.1875,6.3125 0.0194,0.005 0.0431,-0.005 0.0625,0 4.05973,-4.85842 11.18405,-12.63548 9.8125,-9.34375 -1.08437,2.60249 -4.47634,6.9024 -6.9375,10.0625 0.56199,0.13381 1.12638,0.28254 1.6875,0.40625 5.16402,-4.74817 12.75884,-12.14354 9.78125,-7.8125 -1.69325,2.46291 -3.55888,5.06089 -5.21875,7.3125 4.38222,-5.09779 10.59645,-11.74468 8.25,-7.3125 -0.76562,1.44618 -1.77836,2.93003 -2.84375,4.375 3.64934,-4.14354 6.98319,-7.54785 5.125,-3.625 -1.21809,2.57152 -2.83333,5.83356 -4.34375,8.875 0.83815,0.0986 1.66829,0.2016 2.5,0.28125 5.87496,-6.45005 13.3991,-13.48553 7.53125,-6.5 -2.24984,2.67838 -4.06979,4.82757 -5.59375,6.65625 0.31095,0.0247 0.62764,0.0403 0.9375,0.0625 5.25493,-5.58453 12.59972,-13.42386 8.0625,-7.46875 -0.87077,1.14289 -1.61039,2.09167 -2.40625,3.125 3.07781,-3.40927 5.82011,-5.9935 5.0625,-3.53125 -0.28411,0.92334 -0.82969,2.04487 -1.5,3.21875 2.11206,-2.78512 3.72037,-4.59861 3,-2.4375 -0.37557,1.12672 -1.16743,2.51999 -2.15625,3.96875 2.96253,-3.68734 5.76478,-6.77103 5.5625,-4.34375 -0.185,2.21994 -1.70544,5.21073 -3.21875,7.71875 0.10494,-0.003 0.20779,0.003 0.3125,0 2.27681,-3.0042 4.8125,-6.14026 4.8125,-5.09375 0,0.68986 -0.95605,2.79243 -2.0625,5 0.20168,-0.01 0.39306,-0.0208 0.59375,-0.0312 2.77786,-4.4059 5.87744,-8.87067 5.625,-6.09375 -0.14595,1.60546 -0.90023,3.82682 -1.71875,5.84375 0.1919,-0.0153 0.37169,-0.0465 0.5625,-0.0625 3.56727,-6.51156 9.16545,-16.32121 7.21875,-8.8125 -0.81214,3.13252 -1.97996,6.04987 -3.03125,8.40625 0.48804,-0.0551 0.95836,-0.0974 1.4375,-0.15625 5.36674,-7.61132 9.26614,-14.30599 5.78125,-5.59375 -0.75319,1.88298 -1.59301,3.58869 -2.40625,5.125 0.30787,-0.045 0.60289,-0.11004 0.90625,-0.15625 5.00793,-6.9421 6.93381,-11.3523 4.90625,-4.59375 -0.49548,1.65159 -0.92288,2.9568 -1.3125,4.03125 0.15721,-0.0278 0.31306,-0.0657 0.46875,-0.0937 2.80623,-5.26246 8.66823,-21.23601 5.75,-8.46875 -0.72623,3.17726 -1.54426,5.76239 -2.28125,7.8125 1.1714,-0.23962 2.28767,-0.47718 3.34375,-0.71875 3.33284,-4.35259 4.33521,-7.02833 3.125,-2.1875 -0.13486,0.53944 -0.28937,1.02697 -0.4375,1.53125 3.25856,-0.8121 5.59833,-1.50287 7.15625,-2 0.73282,-1.12032 2.42201,-3.1647 4.09375,-5.46875 0.63531,-3.16637 1.01037,-7.66164 1.1875,-12.96875 -3.89992,-4.01525 -9.8889,-9.05205 -10.5,-7.21875 -0.75762,2.27285 -0.75,3.78125 -0.75,3.78125 l -2.28125,5.6875 -1.5,-3.78125 -3.03125,5.28125 0,-6.8125 -6.0625,8.71875 2.65625,-9.84375 -6.46875,9.84375 2.28125,-10.625 -6.8125,10.625 2.65625,-8.71875 c 0,0 -6.8125,9.85137 -6.8125,9.09375 0,-0.75761 2.65625,-10.59375 2.65625,-10.59375 l -8.34375,12.5 6.0625,-15.9375 -10.25,14.40625 2.65625,-9.46875 -8.6875,9.46875 5.28125,-11.75 -7.1875,7.21875 2.65625,-9.09375 -12.875,16.65625 7.9375,-16.28125 -7.9375,9.84375 2.25,-7.1875 -4.90625,6.0625 1.875,-6.0625 -6.8125,5.6875 2.65625,-6.46875 -4.9375,4.1875 2.65625,-4.9375 -5.6875,4.1875 2.65625,-5.6875 -6.4375,6.0625 4.5625,-7.59375 -8.71875,9.09375 4.15625,-9.09375 -4.90625,4.9375 3.03125,-6.8125 -8.34375,7.9375 4.9375,-7.9375 -6.0625,4.15625 4.53125,-5.6875 -9.46875,4.5625 3.78125,-5.3125 -6.8125,4.15625 c 0,0 7.57773,-7.94892 6.0625,-6.8125 -1.51523,1.13643 -8.71875,4.5625 -8.71875,4.5625 l 4.9375,-6.84375 -9.09375,4.9375 4.90625,-7.96875 -8.6875,6.0625 8.6875,-8.3125 -9.84375,4.15625 4.5625,-6.0625 -7.59375,3.03125 5.3125,-5.3125 -6.4375,3.03125 5.3125,-6.0625 -9.46875,3.40625 5.28125,-5.28125 -7.1875,3.40625 4.15625,-4.1875 -7.1875,2.28125 7.1875,-6.4375 -8.3125,3.78125 z m 72.75,58.875 c -1.14898,1.51513 -2.42946,3.3117 -3.59375,4.9375 0.10492,0.003 0.20775,-0.002 0.3125,0 1.13416,-1.55977 2.34111,-3.29108 3.28125,-4.9375 z m -3.5625,0.3125 c -1.3146,1.45618 -2.65391,3.03132 -3.84375,4.46875 0.11395,0.006 0.22996,-0.006 0.34375,0 1.02784,-1.30307 2.19283,-2.77155 3.5,-4.46875 z m -11.8125,-1.40625 c -1.37239,1.55825 -2.73194,3.17315 -3.9375,4.59375 0.0521,0.008 0.10413,0.0229 0.15625,0.0312 1.20096,-1.36578 2.5067,-2.89635 3.78125,-4.625 z m -5.40625,2.9375 c -0.38753,0.45081 -0.64579,0.79866 -1,1.21875 0.0201,0.004 0.0424,-0.004 0.0625,0 0.3429,-0.45784 0.56279,-0.71046 0.9375,-1.21875 z m -58,-60.5 c -0.59456,0.0165 -1.47321,0.2779 -2.8125,1.03125 -4.28571,2.41071 -8.0625,4.8125 -8.0625,4.8125 l 12.0625,-4.6875 c 0,0 0.12054,-1.19249 -1.1875,-1.15625 z m 10.625,37.96875 c -0.0117,0.0172 -0.0549,0.0474 -0.0625,0.0625 -0.0473,0.0947 -0.0261,0.0617 0.0625,-0.0625 z m 68.96875,22.25 c -0.96707,1.20454 -1.7762,2.24307 -2.65625,3.375 0.0417,5.2e-4 0.0833,-4.8e-4 0.125,0 0.84963,-1.05485 1.71368,-2.1801 2.53125,-3.375 z" style="color:#000000;fill:#785730;fill-opacity:1;fill-rule:evenodd;stroke:none;stroke-width:1;marker:none;visibility:visible;display:inline;overflow:visible;enable-background:accumulate"/>
        <path sodipodi:nodetypes="cszzczc" transform="translate(-0.0549765,0)" inkscape:connector-curvature="0" id="path3918" d="m 83.085047,162.92287 c 0,0 26.002363,5.06441 33.778823,38.63833 8.57344,37.01479 6.2986,50.46123 10.16281,85.6253 3.86421,35.16407 25.07679,48.28576 37.88073,52.13426 12.80393,3.8485 26.52021,-1.58023 28.03544,-5.3683 -34.11597,6.68888 -57.4808,-13.30346 -59.664,-62.2618 -2.18318,-48.95833 -12.81816,-113.06093 -50.193803,-108.76779 z" style="color:#000000;fill:#eeeed4;fill-opacity:1;stroke:none;stroke-width:1;marker:none;visibility:visible;display:inline;overflow:visible;enable-background:accumulate"/>
        <path sodipodi:nodetypes="ccccccccccccscscsscscs" inkscape:connector-curvature="0" id="path3015" d="m 122.44502,195.75 c 0,0 6.72154,18.71553 10.71875,51.4375 C 132.81025,209.31401 122.44502,195.75 122.44502,195.75 z m 0.53125,61.07812 c -2.93123,22.54669 3.21875,41.79688 3.21875,41.79688 0,0 -1.35894,-19.34356 -3.21875,-41.79688 z m 13.9375,26.24998 c 0,0 -2.47962,28.51947 20.89062,41.78122 -19.30307,-15.22296 -20.89062,-41.78122 -20.89062,-41.78122 z m 9.64062,17.6719 c 0,0 0.98961,9.09429 8.04688,14.46875 -3.78701,-5.02601 -8.04688,-14.46875 -8.04688,-14.46875 z m -1.51562,29.6875 c -6.1708,-4.84375 -9.20313,-8.79688 -9.20313,-8.79688 0,0 2.32483,4.64509 8.60938,9.57813 6.28455,4.93304 16.12363,10.44965 30.5,12.39062 -14.01649,-2.88045 -23.73545,-8.32812 -29.90625,-13.17187 z m 20.5,0.3125 c -4.9527,-1.91504 -7.73438,-3.75 -7.73438,-3.75 0,0 2.29868,2.71862 7.39063,4.6875 5.09195,1.96888 12.69101,3.60088 22.60937,1.75 -9.90305,0.82769 -17.31292,-0.77246 -22.26562,-2.6875 z" style="font-size:medium;font-style:normal;font-variant:normal;font-weight:normal;font-stretch:normal;text-indent:0;text-align:start;text-decoration:none;line-height:normal;letter-spacing:normal;word-spacing:normal;text-transform:none;direction:ltr;block-progression:tb;writing-mode:lr-tb;text-anchor:start;baseline-shift:baseline;color:#000000;fill:#eeeed4;fill-opacity:1;stroke:none;stroke-width:1;marker:none;visibility:visible;display:inline;overflow:visible;enable-background:accumulate;font-family:Sans;-inkscape-font-specification:Sans"/>
      </g>
      <use x="0" y="0" xlink:href="#g3805" id="use3812" transform="matrix(-1,0,0,1,597.96512,0)" width="744.09448" height="1052.3622"/>
      <g id="g3910">
        <path style="color:#000000;fill:#c0a062;fill-opacity:1;stroke:#785730;stroke-width:1;stroke-linecap:butt;stroke-linejoin:miter;stroke-miterlimit:4;stroke-opacity:1;stroke-dasharray:none;stroke-dashoffset:0;marker:none;visibility:visible;display:inline;overflow:visible;enable-background:accumulate" d="m 247.36473,279.21667 c -33.34148,12.0474 -32.2066,37.68072 -31.8198,47.35091 0.3868,9.67018 -1.04946,12.70238 -6.43972,13.70205 -5.39026,0.99967 -9.48076,-5.79996 -10.2278,-9.53517 0,0 -6.6718,6.23548 -1.51523,21.2132 5.15657,14.97772 22.72844,19.31917 32.95623,14.01587 0,0 -4.82338,7.13826 -2.39911,20.08049 2.42427,12.94224 0.38524,15.70734 -4.68914,17.20138 -5.07437,1.49403 -8.74505,-4.19938 -9.58112,-7.43271 -2.89765,1.44883 -7.32723,18.44606 11.11353,27.47699 18.56213,9.09037 39.77476,-2.27284 45.45687,-24.62246 0,0 -4.31023,16.27149 7.95495,34.47145 12.26517,18.19995 20.07678,34.85026 20.80816,43.94164 0.73138,-9.09138 8.54299,-25.74169 20.80816,-43.94164 12.26518,-18.19996 7.95495,-34.47145 7.95495,-34.47145 5.68211,22.34962 26.89474,33.71283 45.45687,24.62246 18.44076,-9.03093 14.01118,-26.02816 11.11353,-27.47699 -0.83607,3.23333 -4.50675,8.92674 -9.58112,7.43271 -5.07438,-1.49404 -7.11341,-4.25914 -4.68914,-17.20138 2.42427,-12.94223 -2.39911,-20.08049 -2.39911,-20.08049 10.22779,5.3033 27.79966,0.96185 32.95623,-14.01587 5.15657,-14.97772 -1.51523,-21.2132 -1.51523,-21.2132 -0.74704,3.73521 -4.83754,10.53484 -10.2278,9.53517 -5.39026,-0.99967 -6.82652,-4.03187 -6.43972,-13.70205 0.3868,-9.67019 1.52168,-35.30351 -31.8198,-47.35091 -33.34148,-12.0474 -51.61782,24.24367 -51.61782,24.24367 0,0 -18.27634,-36.29107 -51.61782,-24.24367 z" id="path3765" inkscape:connector-curvature="0" sodipodi:nodetypes="zzzczczzcsczczcsczzczczzzcz"/>
        <path id="path3804" transform="translate(-0.0549765,0)" d="m 265.28125,280.59375 c 0,0 7.97112,1.15863 17.0625,10.25 0,0 -4.55187,-2.65625 -8.71875,-2.65625 0,0 10.59152,4.54886 17.03125,12.125 0,0 -8.31868,-6.83614 -17.03125,-7.59375 0,0 9.45812,5.29807 13.625,9.84375 0,0 -7.94289,-3.40625 -13.625,-3.40625 0,0 11.72794,4.16545 17.03125,9.46875 0,0 -6.81789,-1.88643 -12.5,-0.75 0,0 9.48176,1.5046 14.40625,4.15625 0,0 -8.3263,-1.88563 -16.28125,2.28125 0,0 9.84534,-2.27285 15.90625,0 0,0 -11.36897,-0.75223 -18.1875,5.6875 0,0 9.0801,-4.92148 16.65625,-3.40625 0,0 -10.96192,1.12658 -14.75,7.1875 0,0 8.3301,-5.28125 15.90625,-5.28125 0,0 -4.54727,1.48937 -6.0625,5.65625 0,0 4.15704,-3.40244 7.1875,-3.78125 0,0 -3.78125,2.65704 -3.78125,5.6875 0,0 3.04346,-2.64864 4.9375,-3.40625 0,0 -1.16006,1.12579 -0.78125,4.15625 0,0 2.64864,-0.74239 3.40625,-1.5 0,0 -0.35898,1.88341 1.15625,4.15625 0,0 0.97014,-3.61361 1.71875,-6.46875 1.4613,-0.13794 3.07538,0.0658 7.3125,1.78125 -0.86002,-2.01657 -3.65904,-3.86261 -6.75,-5.15625 0,0 1.888,-3.80488 6.8125,-4.5625 0,0 -3.30357,-1.01339 -6.25,0.59375 0,0 2.125,-3.20089 4,-3.46875 0,0 -1.07142,-1.33929 -3.75,0 0,0 1.35714,-2.96429 3.5,-3.5 -1.17449,0.08 -0.70754,-1.1801 -3.6875,0.4375 l 5.28125,-6.59375 c 0,0 -3.20276,0.32906 -5.375,3.25 0.77419,-1.90048 2.84703,-4.42227 4.875,-6.875 0,0 -3.78585,1.14942 -6.4375,4.9375 0,0 -15.02966,-24.13388 -33.84375,-23.25 z m 96.09375,4.9375 c 5.99625,4.47779 11.98879,11.55819 16.28125,16.65625 -4.52233,-6.45457 -8.19594,-13.52049 -16.28125,-16.65625 z m -1.75,2.34375 c 5.66077,4.91649 12.25184,10.5975 16.25,17.0625 -4.27208,-10.11786 -10.74153,-15.40853 -16.25,-17.0625 z m -0.15625,3.34375 c 0,0 9.13807,9.27377 15.0625,16.75 -3.90932,-9.17146 -15.0625,-16.75 -15.0625,-16.75 z M 357.1875,295.75 c 8.08297,5.10726 16.6875,15.15625 16.6875,15.15625 0,0 -6.77712,-12.11914 -16.6875,-15.15625 z m -0.375,3.03125 c 0,0 7.45115,7.99554 15.15625,14.03125 -5.55314,-8.92719 -15.15625,-14.03125 -15.15625,-14.03125 z m -2.25,3.78125 c 5.95397,4.3618 9.79021,9.76592 15.15625,14.40625 -4.01548,-7.2567 -8.78976,-11.52512 -15.15625,-14.40625 z m -1.90625,3.40625 c 0,0 8.98084,8.56549 16.6875,15.53125 -6.1198,-10.64875 -16.6875,-15.53125 -16.6875,-15.53125 z m -1.5,3.40625 c 5.44399,6.46961 12.04575,11.91189 17.03125,19.34375 -4.33888,-11.03669 -10.50091,-16.08533 -17.03125,-19.34375 z m -1.90625,3.03125 c 6.38476,5.76103 10.22578,10.7967 17.0625,18.1875 -5.58479,-10.21195 -9.78782,-13.71056 -17.0625,-18.1875 z m -0.75,3.8125 c 4.71312,5.90465 9.44985,10.67929 15.53125,17.03125 -4.5095,-8.95304 -9.16876,-11.81505 -15.53125,-17.03125 z M 346.59375,320 c 6.01967,5.21479 9.52058,11.19822 15.53125,16.65625 C 358.07769,330.412 353.32917,323.55954 346.59375,320 z m -1.875,2.625 c 5.57963,6.57555 10.62106,11.23483 15.53125,18.59375 -3.08204,-8.45838 -7.5973,-14.70894 -15.53125,-18.59375 z m -2.28125,4.1875 c 5.07267,5.55144 9.52576,11.45626 15.90625,17.0625 -4.44051,-6.00348 -8.51588,-14.16278 -15.90625,-17.0625 z m -126.84375,1.71875 c 0,0 0.94623,7.7546 -3.03125,10.40625 -3.91453,2.60969 -8.6875,0.375 -8.6875,0.375 0,0 2.0736,3.78125 7.1875,3.78125 0,0 -1.72335,0.97255 -4.375,0.59375 0,0 2.29616,1.87881 7.03125,1.5 4.73509,-0.3788 6.625,-3.96875 6.625,-3.96875 0,0 -2.64562,1.90435 -6.8125,2.09375 0,0 3.20924,-1.35216 4.15625,-3.625 0,0 -2.27824,1.52935 -5.6875,1.71875 0,0 3.42691,-0.71002 4.375,-5.6875 0.94809,-4.97747 -0.78125,-7.1875 -0.78125,-7.1875 z m 125.6875,1.6875 c 4.33037,5.78007 9.69378,10.29061 14.03125,16.6875 -4.47173,-9.88533 -8.51332,-13.53612 -14.03125,-16.6875 z m -1.875,3.40625 c 4.65077,4.13138 7.5657,8.65697 11,13.65625 -2.34657,-7.43656 -5.58387,-11.38979 -11,-13.65625 z M 337.5,335.53125 c 3.19113,4.5583 6.28439,9.267 10.25,13.625 -2.38149,-5.57885 -5.76547,-9.57973 -10.25,-13.625 z m -3.40625,2.65625 c 4.22369,4.75746 6.30257,9.64661 11.375,14 -3.12157,-5.07086 -6.28246,-10.32032 -11.375,-14 z m -1.125,3 c 0,0 7.92892,11.68294 10.96875,15.53125 -3.02107,-7.51588 -10.96875,-15.53125 -10.96875,-15.53125 z m -3.03125,1.53125 c 3.31156,5.13003 11,17.8125 11,17.8125 0,0 -2.94735,-12.33593 -11,-17.8125 z m -110.34375,2.46875 c -2.65165,2.46225 -6.84375,2.84375 -6.84375,2.84375 0,0 3.62389,1.89134 6.84375,-2.84375 z m 15.6875,0.65625 c -3.75,6.96429 -12.0625,8.84375 -12.0625,8.84375 4.65963,2.22955 11.29849,-3.31538 12.0625,-8.84375 z m 93.15625,0.28125 c 2.16459,5.6344 3.97435,10.66326 8.3125,16.28125 -1.38886,-6.36608 -4.20776,-11.30645 -8.3125,-16.28125 z m -89.6875,2.9375 c -8.57143,11.25 -20.09375,9.625 -20.09375,9.625 0,0 1.35415,3.58781 9.125,0.8125 7.5,-2.67857 9.89732,-6.95536 10.96875,-10.4375 z m 145.96875,0.53125 c 0,0 3.22321,3.49554 8.3125,2.15625 l -8.3125,-2.15625 z m -58.1875,0.71875 c 1.75873,4.78156 4.1164,8.78535 6.4375,13.625 -0.56385,-5.6895 -2.40777,-10.05533 -6.4375,-13.625 z m -3.03125,1.5 c -0.44771,3.77092 1.469,8.51524 6.4375,12.875 -2.46024,-4.4511 -4.16698,-8.40286 -6.4375,-12.875 z m -3.8125,0.375 c 0.78922,4.36786 1.79496,9.58096 5.3125,12.5 -1.03359,-3.90954 -2.42564,-8.64772 -5.3125,-12.5 z m 63.96875,0.625 c 0,0 2.14286,4.53571 9.375,2.125 0,0 -6.16071,0.55357 -9.375,-2.125 z m -67.375,0.125 c 0.69935,3.95874 1.49019,8.50981 4.5625,11.375 -0.47024,-3.31498 -1.53384,-7.38654 -4.5625,-11.375 z m -77,0.125 c 0,0 -5.60715,6.9866 -13.375,8.59375 -7.76786,1.60714 -15.8125,-1.625 -15.8125,-1.625 0,0 3.21875,5.08928 14.46875,3.75 11.25,-1.33929 14.71875,-10.71875 14.71875,-10.71875 z m 67.5625,1.40625 c -0.0141,3.11825 0.34179,6.68412 2.25,9.46875 0.41753,-3.92632 -0.78978,-7.50374 -2.25,-9.46875 z m 6.8125,0 c 0,0 -1.0544,5.80646 3.40625,10.21875 -0.65324,-3.16385 -3.40625,-10.21875 -3.40625,-10.21875 z m -3.40625,0.375 c -0.5,1.24753 -0.18892,5.7159 1.5,7.96875 0.1737,-2.86104 -1,-6.94344 -1.5,-7.96875 z m -69.34375,0.375 c 0,0 -8.58928,11.25446 -20.375,10.71875 -11.78571,-0.53571 -17.6875,-5.625 -17.6875,-5.625 3.48214,5.35714 15.80803,10.1875 25.71875,6.4375 9.91071,-3.75 12.34375,-11.53125 12.34375,-11.53125 z m 60.25,0 c 0,0 -2.04663,4.17526 0.75,8.71875 -0.23379,-3.41144 -0.75,-8.71875 -0.75,-8.71875 z m 71.25,0 c 0,0 3.23214,5.35268 11,8.03125 7.76786,2.67857 10.6875,-3.75 10.6875,-3.75 0,0 -6.15179,6.43304 -21.6875,-4.28125 z m -13.15625,0.125 c 9.84899,9.09137 8.6829,25.38119 6.03125,34.09375 -2.65165,8.71257 1.16164,16.6875 6.84375,16.6875 5.68211,0 10.21875,-6.0625 10.21875,-6.0625 0,0 -4.92306,4.6166 -9.46875,2.34375 -4.54568,-2.27284 -4.92909,-9.53743 -2.65625,-18.25 2.27285,-8.71256 -2.28125,-18.1875 -2.28125,-18.1875 11.74302,6.06091 22.375,-1.53125 22.375,-1.53125 -4.54568,2.65165 -15.16544,3.05331 -20.46875,-2.25 -5.3033,-5.3033 -10.59375,-6.84375 -10.59375,-6.84375 z m -55.4375,0.28125 c -0.28546,2.91432 -0.37692,6.31589 1.5,8.6875 0.60175,-2.12466 0.58996,-6.24443 -1.5,-8.6875 z m 76.375,0.40625 c 0,0 6.41071,6.69643 13.375,1.875 -7.23214,0.53571 -13.375,-1.875 -13.375,-1.875 z m -11.53125,0.78125 c 0,0.53571 3.22322,9.9375 15.8125,8.0625 0,0 -10.1875,-1.36607 -15.8125,-8.0625 z m -101.21875,4.21875 c -4.64131,2.44239 -5.3125,7.5625 -5.3125,7.5625 0,0 2.94587,-4.13337 5.3125,-7.5625 z m 1.875,1.875 c -3.72153,2.68108 -4.56323,5.65649 -5.6875,9.5 2.43128,-2.78863 3.78725,-6.06476 5.6875,-9.5 z m 3.4375,1.15625 c -4.08826,2.88937 -6.83449,8.92273 -8.71875,14.78125 3.2898,-4.55851 5.32365,-8.87196 8.71875,-14.78125 z m 3,3.4375 c -3.74691,3.27853 -8.0286,10.87575 -15.6875,29.84375 -7.6589,18.96801 -17.13882,22.08228 -29,23.90625 11.35791,1.1604 20.83061,-4.21975 26.03125,-12.84375 l 0,-0.0312 c 4.77039,-8.20507 8.11226,-16.55432 11,-23.75 2.88774,-7.19568 5.34225,-13.2062 7.65625,-17.125 z m 3.4375,2.25 c -3.03394,2.99726 -6.55267,9.96063 -9.84375,18.28125 -3.29108,8.32062 -7.12053,17.41458 -11.40625,23.75 -8.42398,12.45284 -25.71875,12.53125 -25.71875,12.53125 0,0 17.45426,4.04385 27.78125,-11.15625 4.43997,-6.53512 8.23244,-15.72234 11.53125,-24.0625 3.29881,-8.34016 6.1445,-15.90129 7.65625,-19.34375 z m 34.5625,4.9375 c 7.26267,6.79906 11.25654,21.30309 10.96875,30.84375 -0.28779,9.54066 -2.40777,20.11618 -9.3125,29.53125 4.39963,-9.09722 15.42186,-33.36417 -2.65625,-58.6875 12.84494,28.46176 5.90365,48.15931 1.21875,57.9375 5.84061,-19.57407 6.02799,-38.59489 -4.5,-57.3125 8.6533,20.00421 8.67114,42.33457 -2.25,71.25 0.0727,-0.49868 16.62113,-50.81622 -1.65625,-71.15625 14.14981,33.68082 -1.53125,76.4375 -1.53125,76.4375 0.83762,-3.33928 1.0914,-10.84195 0.96875,-17.28125 -0.13451,-7.06171 -1.4375,-12.65625 -1.4375,-12.65625 0,0 -0.19585,5.68671 -0.0625,12.6875 0.13335,7.00079 -0.14435,15.41933 -1.15625,21.03125 -1.74165,5.19411 -2.6875,11.375 -2.6875,11.375 0,0 8.28668,-21.12554 17.375,-33.375 6.69732,-9.02682 10.07781,-19.86654 10.375,-29.71875 0.29719,-9.85221 -3.9868,-23.13795 -13.65625,-30.90625 z m 7.0625,4.59375 c 1.16424,0.59403 6.0169,3.87239 9,18.125 2.69387,12.87069 6.80885,21.60295 22.71875,26.90625 0,0 -15.62199,-8.09692 -19.3125,-21.21875 -3.64505,-12.96017 -5.51494,-21.62443 -12.40625,-23.8125 z m 8.96875,4.4375 c 3.34428,2.91951 5.11032,8.83893 6.09375,15.96875 1.51522,10.98542 7.5625,12.5 7.5625,12.5 0,0 -4.52364,-4.92386 -5.28125,-12.5 -0.75762,-7.57615 -5.34454,-15.58994 -8.375,-15.96875 z m 31.03125,1.8125 c -1.875,6.87237 -2.89772,15.74896 6.3125,20.5625 0,0 -6.84821,-5.28349 -6.3125,-20.5625 z m -55.6875,0.3125 c 0,0 6.18036,34.86624 -0.34375,63.21875 10.31608,-31.65958 0.34375,-63.21875 0.34375,-63.21875 z m 51.84375,5.125 c -1.33929,4.88642 -1.40086,11.36818 4.28125,15.15625 0,0 -3.90244,-7.01746 -4.28125,-15.15625 z m -98.25,1.125 c -2.90381,5.6029 -7.96875,13.625 -7.96875,13.625 0,0 6.32689,-3.75784 7.96875,-13.625 z m 79.8125,1.75 c 0,0 2.26221,5.07249 4.15625,13.40625 1.89403,8.33376 9.86818,10.625 13.65625,10.625 0,0 -9.97371,-2.5256 -12.125,-11.375 -2.15725,-8.87391 -5.6875,-12.65625 -5.6875,-12.65625 z m -110.125,6.03125 c -4.16688,7.19734 -11.34375,2.0625 -11.34375,2.0625 0,0 1.5027,3.05869 4.34375,3.4375 0,0 -2.26983,0.1875 -3.40625,0.1875 0,0 3.03473,2.45273 8.90625,0.9375 5.87151,-1.51523 5.5,-6.625 5.5,-6.625 0,0 -0.57741,3.20923 -5.3125,4.15625 0,0 1.88072,-2.07281 1.3125,-4.15625 z m 126.40625,0.9375 c 0.3788,1.89404 1.1258,5.29727 4.15625,6.8125 -1.51523,-3.03046 -4.15625,-6.43369 -4.15625,-6.8125 z m -9.46875,2.65625 c 0.3788,1.13642 2.65324,7.95352 6.0625,9.46875 0,0 -3.78965,-7.57471 -6.0625,-9.46875 z m 4.5625,0.375 c 0.37881,0.75761 1.86437,5.66847 6.03125,7.5625 0,0 -5.27363,-7.1837 -6.03125,-7.5625 z m -118.0625,1.53125 c -3.03046,3.03045 -9.3087,3.40625 -9.6875,3.40625 0,0 1.71003,1.50952 5.6875,0.5625 3.97748,-0.94702 4,-3.96875 4,-3.96875 z m 1.125,3.21875 c 0,0 -3.79616,1.86929 -8.53125,2.4375 0,0 4.93258,2.29759 8.53125,-2.4375 z m 15.53125,2.0625 c -8.24208,7.17958 -18.5625,7.59375 -18.5625,7.59375 0,0 12.22051,2.08359 18.5625,-7.59375 z m -16.46875,1.71875 c -1.89403,1.13642 -6.0625,0.9375 -6.0625,0.9375 0,0 2.65323,2.09296 6.0625,-0.9375 z m 67.25,16.0625 c -0.75,3.29759 0.53125,32.6875 0.53125,32.6875 0,0 3.0598,-17.05588 -0.53125,-32.6875 z M 296.625,440.75 c -0.24998,6.71728 0.45726,12.41037 1.59375,19.28125 0.34608,-6.34593 -0.23212,-12.55578 -1.59375,-19.28125 z" style="font-size:medium;font-style:normal;font-variant:normal;font-weight:normal;font-stretch:normal;text-indent:0;text-align:start;text-decoration:none;line-height:normal;letter-spacing:normal;word-spacing:normal;text-transform:none;direction:ltr;block-progression:tb;writing-mode:lr-tb;text-anchor:start;baseline-shift:baseline;color:#000000;fill:#785730;fill-opacity:1;stroke:none;stroke-width:1.5;marker:none;visibility:visible;display:inline;overflow:visible;enable-background:accumulate;font-family:Sans;-inkscape-font-specification:Sans" inkscape:connector-curvature="0"/>
        <path style="color:#000000;fill:#eeeed4;fill-opacity:1;stroke:none;stroke-width:0.5;marker:none;visibility:visible;display:inline;overflow:visible;enable-background:accumulate" d="m 337.96875,279.46875 c -0.56037,-8.8e-4 -1.12775,0.0129 -1.71875,0.0312 -2.18216,0.0679 -4.55692,0.27344 -7.21875,0.625 -14.19643,1.875 -23.59375,17.40625 -23.59375,17.40625 0,0 10.73215,-14.28125 26,-16.15625 0,0 -18.22321,5.62054 -23.3125,17.40625 0,0 14.72767,-15.80804 34.28125,-14.46875 0,0 -24.09821,3.48661 -32.9375,16.34375 0,0 14.18303,-11.51339 27.84375,-11.78125 0,0 -21.42411,4.54911 -28.65625,15.53125 0,0 18.7634,-15.53125 39.65625,-11.78125 0,0 -7.5,-3.75 -13.125,-1.875 0,0 3.19643,-2.40625 11.5,-0.53125 0,0 -0.79464,-2.40625 -4.8125,-2.40625 4.82143,-0.80357 10.1875,2.125 10.1875,2.125 -2.94643,-4.01786 -6.71875,-4.53125 -6.71875,-4.53125 5.89286,0 12.34375,5.09375 12.34375,5.09375 -6.42857,-7.76786 -18.21875,-8.59375 -18.21875,-8.59375 6.69643,-1.875 16.875,2.78125 16.875,2.78125 -4.89676,-3.06048 -9.96949,-5.20558 -18.375,-5.21875 z m -83.75,1.28125 c -7.44175,0.18386 -18.07204,2.77154 -26.0625,12.09375 -11.36422,13.25825 -9.84375,34.875 -9.84375,34.875 0,0 2.28362,-21.21351 11.375,-31.0625 9.09137,-9.84898 15.15625,-11.375 15.15625,-11.375 0,0 -12.87658,6.82407 -18.9375,21.21875 -6.06091,14.39467 -4.9375,24.625 -4.9375,24.625 0,0 4.55504,-31.84232 20.84375,-41.3125 0,0 -16.67988,14.7952 -17.4375,38.28125 0,0 1.51682,-9.85676 6.0625,-14.78125 0,0 -3.02744,7.19368 -3.40625,15.90625 0,0 5.30187,-16.28283 9.46875,-22.34375 0,0 -5.68369,11.75238 -6.0625,20.84375 0,0 3.80647,-16.68909 10.625,-22.75 -4.54569,5.68211 -7.96875,18.9375 -7.96875,18.9375 1.51523,-4.9245 6.4375,-10.21875 6.4375,-10.21875 -3.40926,4.9245 -4.15625,12.125 -4.15625,12.125 9.84899,-26.5165 25.75,-31.4375 25.75,-31.4375 -8.71256,0.3788 -16.65625,8.71875 -16.65625,8.71875 7.19733,-9.84899 18.9375,-13.28125 18.9375,-13.28125 -11.74303,0 -21.21875,12.5 -21.21875,12.5 4.54569,-10.60661 20.84375,-14.75 20.84375,-14.75 -17.04632,0 -26.15625,17.78125 -26.15625,17.78125 9.84899,-18.94036 26.15625,-20.4375 26.15625,-20.4375 -7.19734,-1.51523 -15.15625,3.03125 -15.15625,3.03125 6.81853,-5.68211 13.625,-6.4375 13.625,-6.4375 -1.32583,-0.37881 -3.35783,-0.70857 -5.84375,-0.75 -0.46611,-0.008 -0.94138,-0.0123 -1.4375,0 z m 84.09375,13.03125 c -13.89067,0.2622 -25.90625,10.375 -25.90625,10.375 0,0 16.33928,-9.91964 33.75,-4.5625 0,0 -5.09375,-4.27232 -10.71875,-3.46875 0,0 7.23661,-1.87947 10.71875,-1.34375 -2.63672,-0.75335 -5.2714,-1.04856 -7.84375,-1 z m -79.65625,5 C 242.04911,304.67411 237.5,324.25 237.5,324.25 c 8.83929,-17.41072 21.15625,-25.46875 21.15625,-25.46875 z m 75,0.46875 c -13.70593,0.0298 -21.5,7.84375 -21.5,7.84375 0,0 13.64732,-7.77232 29.71875,-6.96875 -2.92969,-0.62779 -5.68061,-0.88052 -8.21875,-0.875 z m 1.5625,2.59375 c -1.08398,0.004 -2.25893,0.0558 -3.53125,0.15625 -10.17857,0.80357 -15.53125,5.90625 -15.53125,5.90625 11.78572,-4.01786 26.53125,-1.875 26.53125,-1.875 -4.28571,-2.41071 -9.375,-2.15625 -9.375,-2.15625 4.82143,-1.07143 12.59375,0 12.59375,0 0,0 -3.09961,-2.05688 -10.6875,-2.03125 z m -71.5,0.96875 c -1.39526,0.0513 -7.42188,0.65625 -14.6875,7.21875 -8.30357,7.5 -11.53125,19.03125 -11.53125,19.03125 12.32143,-21.69643 26.53125,-26.25 26.53125,-26.25 0,0 -0.11318,-0.007 -0.3125,0 z m 64.125,4.5 c -5.74166,0.15695 -10.875,1.9375 -10.875,1.9375 0,0 15.78571,-1.625 20.875,0.25 -2.91294,-1.80804 -6.555,-2.28167 -10,-2.1875 z m -64.375,1.125 c 0,0 -7.48661,0.26786 -14.71875,7.5 -7.23214,7.23214 -9.09375,15.25 -9.09375,15.25 0,0 1.33928,-2.12053 7.5,-10.15625 6.16071,-8.03571 16.3125,-12.59375 16.3125,-12.59375 z m 60.90625,2.40625 c -3.85045,0 -6.59375,0.8125 -6.59375,0.8125 0,0 13.11607,0.27232 19.8125,3.21875 -4.41965,-3.21429 -9.3683,-4.03125 -13.21875,-4.03125 z m -63.03125,1.875 c -9.05113,2.86988 -15.67865,14.16605 -17.75,18.09375 4.32586,-7.50406 17.75,-18.09375 17.75,-18.09375 z m 60.5,0.90625 c -2.74554,-0.0335 -4.625,0.4375 -4.625,0.4375 0,0 12.59375,1.58929 14.46875,2.125 -3.48215,-2.00893 -7.09821,-2.52902 -9.84375,-2.5625 z m -2.125,2.75 c -3.91741,0 -5.4375,0.90625 -5.4375,0.90625 11.78571,0.53572 20.375,3.46875 20.375,3.46875 0,0 -2.6875,-2.92857 -10.1875,-4 -1.875,-0.26786 -3.4442,-0.375 -4.75,-0.375 z m -57.03125,0.375 c -11.51786,3.48214 -16.625,17.65625 -16.625,17.65625 4.82143,-9.375 16.625,-17.65625 16.625,-17.65625 z m 112.03125,0.0937 c 0,0 1.19949,2.41189 2.5,6.09375 0.68817,1.94824 1.28901,4.34324 2.0625,7.03125 0.2164,-2.88282 0.13137,-5.56572 -0.59375,-7.59375 -1.36339,-3.81311 -3.96875,-5.53125 -3.96875,-5.53125 z m -5.09375,1.59375 c 0.97816,1.67658 2.49463,3.37707 3.46875,4.84375 1.83641,2.78742 3.8307,7.08313 5.125,13.375 -0.31285,-6.56528 -1.18314,-9.81844 -3.34375,-13.15625 -2.16062,-3.3378 -3.43539,-3.88089 -5.25,-5.0625 z m -52.1875,1.65625 c -1.18025,0.0293 -1.95982,0.125 -2.09375,0.125 0,0 11.25893,3.74107 17.6875,4.8125 -4.82143,-4.62053 -12.05301,-5.02539 -15.59375,-4.9375 z m -54.75,0.9375 c -10.44643,4.28572 -14.21875,16.0625 -14.21875,16.0625 2.67857,-5.35715 13.95089,-15.52678 14.21875,-16.0625 z m 52.90625,2.3125 c -0.83705,0.0126 -1.3125,0.0937 -1.3125,0.0937 0,0 7.25,3.73215 14.75,5.875 -5.22322,-5.42411 -10.92634,-6.00642 -13.4375,-5.96875 z M 264.5625,324.5 c -10.17857,5.08928 -12.34375,13.65625 -12.34375,13.65625 C 256.2366,334.13839 264.5625,324.5 264.5625,324.5 z m 47.3125,1.625 c 5.625,1.60714 15,8.03125 15,8.03125 -2.41071,-2.94643 -5.625,-4.5625 -5.625,-4.5625 l 2.9375,0.28125 c -5.35714,-3.75 -12.3125,-3.75 -12.3125,-3.75 z m 59.53125,0.0937 c 2.17329,4.37186 3.92153,8.2315 4.5,11.875 0.57847,3.6435 1.7638,7.85692 4.3125,9.8125 -1.66548,-2.73916 -1.92127,-5.28521 -2.59375,-8.65625 -0.67248,-3.37104 -2.38044,-10.3768 -6.21875,-13.03125 z m -106.3125,2.5625 c -6.96429,3.4822 -9.65625,10.7188 -9.65625,10.7188 6.42857,-4.82143 9.65625,-10.71875 9.65625,-10.71875 z m 43.84375,0.8125 c 0,0 6.14733,4.55804 10.96875,5.09375 -4.55358,-4.55357 -10.43303,-5.09375 -10.96875,-5.09375 z m -41.71875,0.53125 c 0,0 -4.80804,2.41964 -7.21875,10.1875 0,0 4.27232,-4.5625 7.21875,-10.1875 z m 103.21875,0.0937 c 0.72044,2.27639 2.71406,4.48644 3.5,10.25 0.8276,6.06904 5.59375,9.84375 5.59375,9.84375 0,0 -3.25171,-4.25209 -4.03125,-9.96875 -0.8212,-6.02216 -3.64008,-8.65139 -5.0625,-10.125 z m -101.34375,0.1875 c -0.26785,0.53572 -4,3.19643 -5.875,9.625 0,0 3.19642,-2.66072 5.875,-9.625 z M 399.1875,330.75 c 0,0 -1.05804,10.45536 -10.96875,12.0625 0,0 5.62947,0.53125 8.84375,-3.21875 0,0 -0.82143,3.76339 -7.25,5.90625 0,0 4.83482,0.78571 7.78125,-3.5 0,0 -1.88393,4.5625 -4.5625,6.4375 0,0 5.36161,-3.20536 6.96875,-8.5625 0,0 -0.25447,6.66964 -3.46875,10.6875 0,0 9.8884,-7.75893 2.65625,-19.8125 z m -200.15625,0.53125 c 0,0 -2.96875,1.58482 -2.96875,9.90625 0,8.32143 5.625,14.46875 5.625,14.46875 -1.33929,-2.14285 -1.34375,-4.8125 -1.34375,-4.8125 5.35715,6.96429 11.53125,6.6875 11.53125,6.6875 -6.16071,-2.14285 -8.03125,-7.5 -8.03125,-7.5 6.42857,5.625 15.25,4.5625 15.25,4.5625 -11.51785,-1.33928 -16.0625,-8.84375 -16.0625,-8.84375 3.21429,3.48214 10.4375,4.5625 10.4375,4.5625 -11.25,-4.01786 -12.3125,-11 -12.3125,-11 l 3.21875,0.28125 c -4.01786,-3.21428 -5.34375,-7.77678 -5.34375,-8.3125 z M 271.25,332 c 0,0 -2.95982,1.61607 -4.03125,8.3125 0,0 2.95982,-3.22321 4.03125,-8.3125 z m 3.65625,0.90625 c -0.80358,0 -3.46875,2.13839 -3.46875,6.15625 0,0 2.93304,-3.74553 3.46875,-6.15625 z m 33.21875,0.15625 c 0,0 2.95982,3.22322 7.78125,4.5625 -3.21429,-3.21429 -7.78125,-4.5625 -7.78125,-4.5625 z m -1.875,1.625 c 0,0 0.81697,2.92857 7.78125,5.875 -4.01786,-4.28572 -7.78125,-5.875 -7.78125,-5.875 z m 63.53125,1.75 c 1.48739,2.59672 2.25786,6.14132 2.90625,8.90625 0.87963,3.26874 3.06889,6.13987 6.0625,7.65625 -2.13924,-2.14338 -3.93474,-5.9512 -4.53125,-8.46875 -0.78123,-3.25967 -1.93037,-7.06599 -4.4375,-8.09375 z m -64.59375,1.71875 c 0,0 1.05804,3.47768 5.34375,6.15625 -2.67858,-4.55357 -4.80803,-5.62053 -5.34375,-6.15625 z m 63.375,2.5 c 0.32041,3.23058 1.67355,5.7736 3.75,8.3125 -0.28565,-2.88656 -1.2739,-6.94478 -3.75,-8.3125 z m -66.34375,0.46875 c 0,0 -1.86161,4 4.03125,5.875 -2.94643,-2.41072 -3.76339,-5.33928 -4.03125,-5.875 z m -16.875,0.625 c 0,0 -1.33482,2.65625 -0.53125,6.40625 0,0 2.13839,-3.72768 0.53125,-6.40625 z m 13.40625,0.15625 c 0,0 -0.79018,2.94643 0.28125,5.625 0,0 0.79018,-3.48215 -0.28125,-5.625 z M 366.1875,343.5 c 0.61278,2.51612 2.19716,5.54104 4.25,7.0625 -0.17526,-3.6712 -2.27597,-5.52452 -4.25,-7.0625 z m -12.625,12.4375 c 3.82497,3.59877 5.89275,9.63768 6.375,14 0.48225,4.36232 1.10312,8.77419 1,13.21875 0.98807,-4.54604 1.37219,-9.19037 0.65625,-13.71875 -0.71594,-4.52837 -3.04894,-10.80064 -8.03125,-13.5 z m -99.875,0.28125 c -16.11768,3.41732 -13.80723,25.89749 -18.21875,37.15625 8.47076,-12.74551 4.16474,-31.38688 18.21875,-37.15625 z m -6.8125,0.40625 c -8.30456,6.73915 -12.26167,13.45288 -10.3125,28.03125 0.41552,-9.66927 2.81278,-21.34831 10.3125,-28.03125 z m 103.75,1.4375 c 0,0 4.63687,5.07871 6.75,13.53125 2.11313,8.45254 1.28125,14.3125 1.28125,14.3125 0,0 2.04758,-7.18468 -0.125,-15.875 -2.17258,-8.69031 -7.90625,-11.96875 -7.90625,-11.96875 z m -108.3125,0.0625 c -2.91227,0.61239 -5.40777,3.86615 -7.21875,7.90625 -1.81098,4.0401 -2.87728,8.90893 -2.1875,13.46875 0.45439,4.19482 0.88994,8.40012 0.3125,12.71875 1.90517,-3.87159 1.7172,-9.13054 1.15625,-12.96875 -0.63126,-4.17295 0.37759,-8.79644 2.09375,-12.625 1.71616,-3.82856 4.21034,-6.83953 5.84375,-8.5 z m 13.625,0.75 c -14.57194,2.22512 -10.63371,22.91494 -19.09375,39.3125 7.02577,-10.37931 9.39397,-35.27968 19.09375,-39.3125 z m 91.71875,1.34375 c 3.23428,3.87743 6.18942,7.30666 7.3125,13.21875 C 356.09183,379.34959 356.25,387 356.25,387 c 0,0 1.19241,-8.68936 -0.125,-15.0625 -1.3174,-6.37313 -4.20189,-8.24962 -8.46875,-11.71875 z m -88.28125,0.9375 c -8.9212,1.01573 -12.16544,12.10997 -12.125,21.21875 1.78438,-7.91378 5.34435,-17.50577 12.125,-21.21875 z m 83.75,0.40625 c 0,0 4.41085,6.12815 6.53125,13.4375 2.12039,7.30936 1.02795,14.06868 4.71875,19.21875 -2.36984,-6.53295 -1.3111,-13.31707 -3.1875,-20.59375 -1.87641,-7.27667 -8.0625,-12.0625 -8.0625,-12.0625 z m 4.28125,1.59375 c 2.14029,3.50351 4.18823,7.00333 5.40625,11.34375 1.21802,4.34042 1.43224,9.55902 1.84375,13.5625 0.33757,-4.73787 0.13686,-11.30088 -1,-15.625 -1.13685,-4.32412 -2.99855,-6.49003 -6.25,-9.28125 z M 341.25,365.5625 c 0,0 4.50015,5.46627 6.28125,11.125 1.7811,5.65874 0.80648,14.67554 5.21875,22.375 -3.34538,-7.81578 -2.01027,-17.60129 -3.90625,-23.625 -1.89598,-6.02372 -7.59375,-9.875 -7.59375,-9.875 z m -107.71875,0.0312 c -4.9442,4.67501 -5.34368,12.82097 -4.0625,18.46875 1.63329,6.86082 1.09375,12.71875 1.09375,12.71875 0,0 2.06074,-5.85008 0.34375,-13.0625 -1.04635,-6.0619 -1.39909,-12.91437 2.625,-18.125 z m 23.5625,0.5 c -3.52343,3.35382 -5.08716,7.29972 -5.6875,12.09375 2.08816,-3.78847 3.34927,-8.27693 5.6875,-12.09375 z m 2.65625,2.2813 c -2.65298,2.23022 -4.23004,5.69956 -3.8125,9.0625 1.26133,-3.21622 2.37416,-5.87997 3.8125,-9.0625 z m 80.15625,0.6875 c 0,0 4.18786,4.53307 5.21875,9.6875 1.03088,5.15443 -0.13936,15.55215 5.5,23.5 -4.5392,-8.12358 -2.85677,-18.72139 -3.96875,-24.28125 -1.11198,-5.55986 -6.75,-8.90625 -6.75,-8.90625 z m -45.0625,0.3125 c 0,0 3.78125,14.5178 4.53125,31.8125 1.55357,-23.71627 -4.53125,-31.8125 -4.53125,-31.8125 z M 297.5,369.75 c 1.76734,7.57806 4.90625,18.5625 4.90625,18.5625 0,0 1.12446,-12.54945 -4.90625,-18.5625 z m 39.46875,0.625 c 0,0 4.06266,4.54277 4.84375,9.75 0.78109,5.20723 1.03125,10.625 1.03125,10.625 0,0 1.3943,-6.02772 0.53125,-11.78125 -0.86305,-5.75353 -6.40625,-8.59375 -6.40625,-8.59375 z m -45.375,0.8125 c 0,0 -0.13253,33.39529 2.125,47.40625 -0.77294,-14.02077 -0.71875,-40.5 -0.71875,-40.5 2.99341,9.2106 1.56314,15.59584 2.59375,27.65625 0.0246,-11.45224 3.18591,-26.10344 -4,-34.5625 z m 10.4375,0.84375 c 1.90663,4.38455 2.875,11.34375 2.875,11.34375 0,0 1.05736,-7.6624 -2.875,-11.34375 z m -13.1875,0.0312 c 0,0 -4.85725,12.51787 0.34375,45.5625 1.68395,6.62975 2.25537,13.78889 6.03125,19.53125 -1.87621,-6.02983 -3.54363,-14.38895 -4.5625,-19.8125 -2.19921,-21.49707 -1.8125,-45.28125 -1.8125,-45.28125 z m -3.03125,0.78125 c 0,0 -3.51081,9.65233 -2.75,36.34375 0.45838,16.08148 7.96875,29.875 7.96875,29.875 0,0 -4.90625,-12.31248 -5.65625,-28.0625 -0.75441,-15.84267 0.4375,-38.15625 0.4375,-38.15625 z m 49.53125,0.625 c 0.4051,1.38667 0.85782,2.14622 1.65625,3.8125 0.79843,1.66628 2.15625,5.39553 2.65625,9.1875 0.5,-3.97588 0.62665,-6.47144 -0.25,-8.3125 -0.87665,-1.84106 -2.85896,-3.81736 -4.0625,-4.6875 z m -52.09375,1.5 c -2.32158,9.98068 -4.91522,20.71258 -4.375,30.3125 0.96968,7.94692 2.12964,18.63155 6.46875,25.4375 -2.41329,-7.11711 -3.69046,-16.51269 -4.15625,-23.125 -0.81256,-11.47957 1.68897,-22.56753 2.0625,-32.625 z m 50.21875,0.78125 c 0.54109,1.46783 1.17661,2.80355 1.6875,4.375 0.51089,1.57145 0.86323,3.4085 1.53125,4.75 0.23408,-1.7968 0.10483,-3.99566 -0.40625,-5.59375 -0.51106,-1.59809 -1.39393,-2.62226 -2.8125,-3.53125 z m -53,2.375 c -7.85377,14.27119 -5.17058,31.44737 -1.53125,41.625 -2.50703,-12.80465 -1.24381,-30.23519 1.53125,-41.625 z m 51.9375,0.5625 c -0.34009,0.55786 -0.12123,1.24551 0.1875,2.125 0.30873,0.87949 0.69168,1.95083 1.6875,2.96875 -0.0555,-1.34744 -0.40951,-2.30906 -0.71875,-3.1875 -0.30924,-0.87844 -0.543,-1.64461 -1.15625,-1.90625 z m -56.90625,8.5 c 0,0 -5.51493,11.41878 -2.625,26.28125 2.8962,14.89476 14.75,30.90625 14.75,30.90625 0,0 -10.45402,-16.83941 -13.25,-31.21875 -2.80227,-14.41165 1.125,-25.96875 1.125,-25.96875 z m -62.15625,9.09375 c 0,0 -5.76339,6.25 1.46875,17.5 7.23215,11.25 17.15625,6.71875 17.15625,6.71875 -12.32143,-0.80357 -15.53125,-7.78125 -15.53125,-7.78125 4.28571,5.35715 10.96875,5.09375 10.96875,5.09375 -10.98214,-2.41071 -12.1875,-12.65625 -12.1875,-12.65625 4.73509,3.59867 7.21875,2.84375 7.21875,2.84375 -7.57615,-1.70464 -7.96875,-6.625 -7.96875,-6.625 0.94701,1.51523 3.96494,3.40625 4.34375,3.40625 -3.97748,-2.46225 -5.46875,-8.5 -5.46875,-8.5 z m 171.25,0.0312 c 0,0 -2.8884,12.12054 -14.40625,12.65625 0,0 5.61161,1.06696 9.09375,-1.34375 0,0 -4.29018,4.30357 -14.46875,5.375 0.26786,0 11.00447,0.51786 16.09375,-3.5 0,0 -4.03572,6.15625 -12.875,8.03125 0,0 10.70535,-1.60268 14.1875,-6.15625 0,0 -0.25446,4.30357 -5.34375,9.125 0,0 9.65625,-6.16518 9.65625,-14.46875 0,-8.30358 -1.9375,-9.71875 -1.9375,-9.71875 z m -167.03125,11.75 c 0.37881,0.56821 -0.55441,3.99429 7.96875,4.5625 -5.87151,-1.32583 -7.58994,-3.99429 -7.96875,-4.5625 z m 155.28125,5.71875 c 0,0 -8.02679,1.89732 -14.1875,1.09375 0,0 6.95536,2.65625 14.1875,-1.09375 z m 6.71875,0.8125 c 0,0 -6.97768,5.37054 -17.15625,5.90625 3.06433,0.95502 12.59001,1.15572 17.15625,-5.90625 z m -91.15625,32.625 c 0,0 3.34582,6.05913 4.34375,7.96875 1.78189,3.42309 3.28589,7.07917 5.5,13.0625 -0.62695,-5.57029 -2.33947,-10.25986 -4.15625,-13.75 -1.08863,-2.19237 -5.6875,-7.28125 -5.6875,-7.28125 z" transform="translate(-0.0549765,0)" id="path3853" inkscape:connector-curvature="0"/>
      </g>
    </g>
    <use x="0" y="0" xlink:href="#g3771" id="use3774" transform="translate(-2.5e-6,236.59106)" width="744.09448" height="1052.3622"/>
  </g>
</svg>