<?xml version="1.0" encoding="UTF-8" standalone="no"?>
<!-- Created with Inkscape (http://www.inkscape.org/) -->

<svg
   width="500.00003"
   height="570"
   viewBox="0 0 132.29167 150.8125"
   version="1.1"
   id="svg5"
   xml:space="preserve"
   xmlns="http://www.w3.org/2000/svg"
   xmlns:svg="http://www.w3.org/2000/svg"><defs
     id="defs2" /><path
     id="path905"
     style="fill:#cccccc;fill-opacity:1;fill-rule:evenodd;stroke:none;stroke-width:0.0661458;stroke-linecap:square;stop-color:#000000"
     d="M 38.304286,0 H 0 V 84.828829 C 0,110.77906 15.019464,133.22688 36.857836,144.00339 H 95.433837 C 117.27221,133.22689 132.29167,110.77907 132.29167,84.828829 V 0 H 93.987387 l -27.84155,1.32633 z" /><path
     id="path1275"
     style="fill:#045cd2;fill-opacity:1;fill-rule:evenodd;stroke:none;stroke-width:0.0661458;stroke-linecap:square;stop-color:#000000"
     d="m 38.304286,0 c 1.270247,1.549014 2.200186,3.30517 2.200186,5.628488 0,7.356532 -9.307134,9.039979 -9.307134,16.396506 0,7.356527 9.307134,9.039324 9.307134,16.395855 0,7.35653 -9.307134,9.03999 -9.307134,16.39652 0,7.35651 9.307134,9.03997 9.307134,16.3965 0,7.35652 -9.307134,9.03934 -9.307134,16.39586 0,7.35651 9.307134,9.03996 9.307134,16.396501 0,7.35653 -9.307134,9.03998 -9.307134,16.39652 0,7.3565 9.307134,9.03934 9.307134,16.39585 0,3.14252 -1.700925,5.24832 -3.646636,7.20479 8.828998,4.35683 18.770839,6.80911 29.288001,6.80911 10.51716,0 20.459,-2.45228 29.288,-6.80911 -1.94571,-1.95647 -3.64665,-4.06227 -3.64665,-7.20479 0,-7.35651 9.307153,-9.03935 9.307153,-16.39585 0,-7.35654 -9.307153,-9.03999 -9.307153,-16.39652 0,-7.356541 9.307153,-9.039991 9.307153,-16.396501 0,-7.35652 -9.307153,-9.03934 -9.307153,-16.39586 0,-7.35653 9.307153,-9.03999 9.307153,-16.3965 0,-7.35653 -9.307153,-9.03999 -9.307153,-16.39652 0,-7.356531 9.307153,-9.039328 9.307153,-16.395855 0,-7.356527 -9.307153,-9.039974 -9.307153,-16.396506 0,-2.323318 0.92995,-4.079474 2.2002,-5.628488 z" /><g
     id="g1354"
     transform="matrix(1.2563061,0,0,1.2563061,-44.948985,-85.432744)"
     style="stroke-width:0.421208;stroke-dasharray:none"><path
       id="rect1338"
       style="opacity:1;fill:#bf9f4f;fill-opacity:1;fill-rule:evenodd;stroke:none;stroke-width:0.421208;stroke-linecap:square;stroke-dasharray:none;stop-color:#000000"
       d="M 73.251984,101.95354 H 103.6075 v 46.72362 H 73.251984 Z" /><circle
       style="opacity:1;fill:none;fill-rule:evenodd;stroke:#045cd2;stroke-width:0.421208;stroke-linecap:square;stroke-dasharray:none;stroke-opacity:1;stop-color:#000000"
       id="path1336"
       cx="88.429741"
       cy="125.31535"
       r="1.2331913" /><path
       id="rect1342"
       style="opacity:1;fill:none;fill-rule:evenodd;stroke:#045cd2;stroke-width:0.421208;stroke-linecap:square;stroke-dasharray:none;stroke-opacity:1;stop-color:#000000"
       d="m 92.755691,101.95354 v 46.72362 m -8.651899,0 v -46.72362 m 14.987347,0 v 46.72362 m -21.322796,0 v -46.72362" /><path
       id="rect1281"
       style="opacity:1;fill:#bf9f4f;fill-opacity:1;fill-rule:evenodd;stroke:#045cd2;stroke-width:0.421208;stroke-linecap:square;stroke-dasharray:none;stroke-opacity:1;stop-color:#000000"
       d="m 71.940311,103.53115 c -0.569046,0 -1.027328,0.45828 -1.027328,1.02732 0,0.56905 0.458282,1.02733 1.027328,1.02733 -0.569046,0 -1.027328,0.45777 -1.027328,1.02681 0,0.56905 0.458282,1.02733 1.027328,1.02733 -0.569046,0 -1.027328,0.45829 -1.027328,1.02733 0,0.56905 0.458282,1.02681 1.027328,1.02681 -0.569046,0 -1.027328,0.45828 -1.027328,1.02733 0,0.56903 0.458282,1.02732 1.027328,1.02732 h 32.978869 c 0.56905,0 1.02732,-0.45829 1.02732,-1.02732 0,-0.56905 -0.45827,-1.02733 -1.02732,-1.02733 0.56905,0 1.02732,-0.45776 1.02732,-1.02681 0,-0.56904 -0.45827,-1.02733 -1.02732,-1.02733 0.56905,0 1.02732,-0.45828 1.02732,-1.02733 0,-0.56904 -0.45827,-1.02681 -1.02732,-1.02681 0.56905,0 1.02732,-0.45828 1.02732,-1.02733 0,-0.56904 -0.45827,-1.02732 -1.02732,-1.02732 z" /><path
       id="path1329"
       style="font-variation-settings:normal;fill:none;fill-opacity:1;stroke:#045cd2;stroke-width:0.421208;stroke-linecap:butt;stroke-linejoin:miter;stroke-miterlimit:4;stroke-dasharray:none;stroke-dashoffset:0;stroke-opacity:1;stop-color:#000000"
       d="m 86.842241,111.74873 c 2.116667,0 1.058333,-2.05465 3.175,-2.05465 m -3.175,-4.10828 c 2.116667,0 1.058333,-2.05465 3.175,-2.05465 m -18.498138,2.05465 h 33.821287 m 0,2.05414 H 71.519103 m 0,2.05414 h 33.821287" /><path
       id="path1332"
       style="opacity:1;fill:#bf9f4f;fill-opacity:1;fill-rule:evenodd;stroke:#045cd2;stroke-width:0.421208;stroke-linecap:square;stroke-dasharray:none;stroke-opacity:1;stop-color:#000000"
       d="m 71.94031,138.88196 c -0.569046,0 -1.027328,0.45828 -1.027328,1.02732 0,0.56905 0.458282,1.02733 1.027328,1.02733 -0.569046,0 -1.027328,0.45777 -1.027328,1.02681 0,0.56905 0.458282,1.02733 1.027328,1.02733 -0.569046,0 -1.027328,0.45829 -1.027328,1.02733 0,0.56905 0.458282,1.02681 1.027328,1.02681 -0.569046,0 -1.027328,0.45828 -1.027328,1.02733 0,0.56903 0.458282,1.02732 1.027328,1.02732 h 32.97887 c 0.56905,0 1.02732,-0.45829 1.02732,-1.02732 0,-0.56905 -0.45827,-1.02733 -1.02732,-1.02733 0.56905,0 1.02732,-0.45776 1.02732,-1.02681 0,-0.56904 -0.45827,-1.02733 -1.02732,-1.02733 0.56905,0 1.02732,-0.45828 1.02732,-1.02733 0,-0.56904 -0.45827,-1.02681 -1.02732,-1.02681 0.56905,0 1.02732,-0.45828 1.02732,-1.02733 0,-0.56904 -0.45827,-1.02732 -1.02732,-1.02732 z" /><path
       id="path1334"
       style="font-variation-settings:normal;fill:none;fill-opacity:1;stroke:#045cd2;stroke-width:0.421208;stroke-linecap:butt;stroke-linejoin:miter;stroke-miterlimit:4;stroke-dasharray:none;stroke-dashoffset:0;stroke-opacity:1;stop-color:#000000"
       d="m 86.84224,147.09954 c 2.116667,0 1.058333,-2.05465 3.175,-2.05465 m -3.175,-4.10828 c 2.116667,0 1.058333,-2.05465 3.175,-2.05465 m -18.498138,2.05465 h 33.821288 m 0,2.05414 H 71.519102 m 0,2.05414 h 33.821288" /></g></svg>
