<?xml version="1.0" encoding="UTF-8" standalone="no"?>
<svg xmlns:dc="http://purl.org/dc/elements/1.1/" xmlns:cc="http://creativecommons.org/ns#" xmlns:rdf="http://www.w3.org/1999/02/22-rdf-syntax-ns#" xmlns:svg="http://www.w3.org/2000/svg" xmlns="http://www.w3.org/2000/svg" xmlns:xlink="http://www.w3.org/1999/xlink" xmlns:sodipodi="http://sodipodi.sourceforge.net/DTD/sodipodi-0.dtd" xmlns:inkscape="http://www.inkscape.org/namespaces/inkscape" inkscape:version="1.0.2 (e86c870879, 2021-01-15, custom)" sodipodi:docname="svg.svg" id="svg8" version="1.1" viewBox="0 0 146.44054 166.83204" height="630.54626" width="553.47607">
  <defs id="defs2"/>
  <sodipodi:namedview inkscape:snap-global="true" inkscape:snap-smooth-nodes="true" inkscape:object-nodes="true" inkscape:showpageshadow="false" inkscape:window-maximized="1" inkscape:window-y="-4" inkscape:window-x="-8" inkscape:window-height="1017" inkscape:window-width="1920" units="px" showgrid="false" inkscape:document-rotation="0" inkscape:current-layer="layer1" inkscape:document-units="px" inkscape:cy="236.12975" inkscape:cx="315.84997" inkscape:zoom="0.4567468" inkscape:pageshadow="2" inkscape:pageopacity="0.0" borderopacity="1.0" bordercolor="#666666" pagecolor="#ffffff" id="base" inkscape:snap-others="false" inkscape:lockguides="true"/>
  <metadata id="metadata5">
    <rdf:RDF>
      <cc:Work rdf:about="">
        <dc:format>image/svg+xml</dc:format>
        <dc:type rdf:resource="http://purl.org/dc/dcmitype/StillImage"/>
        <dc:title/>
      </cc:Work>
    </rdf:RDF>
  </metadata>
  <g transform="translate(-11.295919,-20.419546)" id="layer1" inkscape:groupmode="layer" inkscape:label="Шар 1">
    <g id="g2728">
      <path sodipodi:nodetypes="cszscc" style="font-variation-settings:normal;opacity:1;vector-effect:none;fill:#005dbd;fill-opacity:1;fill-rule:evenodd;stroke:none;stroke-width:0.2674;stroke-linecap:butt;stroke-linejoin:miter;stroke-miterlimit:4;stroke-dasharray:none;stroke-dashoffset:0;stroke-opacity:1;marker:none;marker-start:none;marker-mid:none;marker-end:none;stop-color:#000000;stop-opacity:1" d="m 157.73646,20.419546 v 92.974104 c 0,28.67426 -21.8547,73.85793 -73.22027,73.85793 -51.36557,0 -73.220271,-45.18367 -73.220271,-73.85793 V 20.419546 Z" id="path2680"/>
      <g id="g1441">
        <g id="g1397">
          <path id="path1268" style="font-variation-settings:normal;opacity:1;vector-effect:none;fill:#00346a;fill-opacity:1;fill-rule:evenodd;stroke:none;stroke-width:0.995516;stroke-linecap:butt;stroke-linejoin:miter;stroke-miterlimit:4;stroke-dasharray:none;stroke-dashoffset:0;stroke-opacity:1;marker:none;marker-start:none;marker-mid:none;marker-end:none;stop-color:#000000;stop-opacity:1" d="m 87.138672,196.70312 c 0,0 -0.33725,20.46412 26.314448,42.61329 10.105,8.39784 22.71869,15.54949 37.03711,20.92382 22.24418,8.34922 48.68739,12.31407 76.88477,9.26563 46.34786,-5.01068 73.06987,-6.38672 92.05664,-6.38672 18.98677,0 45.70877,1.37604 92.05664,6.38672 28.19811,3.04851 54.64081,-0.91596 76.88477,-9.26563 14.31734,-5.37426 28.09073,-13.39741 38.19531,-21.79492 26.65183,-22.14917 26.86523,-42.75781 26.86523,-42.75781 l -1.70898,-0.98438 -63.35156,57.53711 H 150.49023 Z m 164.666018,-4.56445 c -5.326,0 -9.61328,4.40151 -9.61328,9.86914 v 8.09766 l 2,-0.17188 v -5.92578 c 0,-5.46762 4.28728,-9.86914 9.61328,-9.86914 h 135.25195 c 2.11186,0 4.05402,0.70085 5.63672,1.87695 -1.75367,-2.35579 -4.51254,-3.87695 -7.63672,-3.87695 z m -9.61328,32.39649 v 8.09765 c 0,3.29964 1.56775,6.20218 3.97656,7.99219 -1.23593,-1.66029 -1.97656,-3.73181 -1.97656,-5.99219 v -8.09765 h 152.47851 v -2 z" transform="scale(0.26458333)" sodipodi:nodetypes="cssssssscccccssccssscsscscscccc"/>
          <path id="path1221" style="font-variation-settings:normal;opacity:1;vector-effect:none;fill:#cccccc;fill-opacity:1;fill-rule:evenodd;stroke:none;stroke-width:0.995516;stroke-linecap:butt;stroke-linejoin:miter;stroke-miterlimit:4;stroke-dasharray:none;stroke-dashoffset:0;stroke-opacity:1;marker:none;marker-start:none;marker-mid:none;marker-end:none;stop-color:#000000;stop-opacity:1" d="m 150.49023,199.55469 c -12.62426,-3.76367 -24.8045,-9.74378 -37.95898,-10.3086 -19.121412,-0.82102 -25.392578,5.45703 -25.392578,5.45703 0,0 -0.337255,18.46412 26.314448,40.61329 10.105,8.39784 22.71869,15.54949 37.03711,20.92382 z" transform="scale(0.26458333)"/>
          <path id="path1219" style="font-variation-settings:normal;opacity:1;vector-effect:none;fill:#bf9f4f;fill-opacity:1;fill-rule:evenodd;stroke:none;stroke-width:0.995516;stroke-linecap:butt;stroke-linejoin:miter;stroke-miterlimit:4;stroke-dasharray:none;stroke-dashoffset:0;stroke-opacity:1;marker:none;marker-start:none;marker-mid:none;marker-end:none;stop-color:#000000;stop-opacity:1" d="m 150.49023,199.55469 v 56.68554 c 22.24417,8.34921 48.68739,12.31406 76.88477,9.26563 46.34786,-5.01068 73.06987,-6.38672 92.05664,-6.38672 18.98677,0 45.70878,1.37604 92.05664,6.38672 28.19811,3.0485 54.64082,-0.91597 76.88477,-9.26563 v -56.68554 c -5.72711,1.70742 -11.52287,3.06836 -17.58203,3.06836 -19.41548,0 -36.3629,-9.93699 -58.65625,-21.39453 -22.29328,-11.45754 -49.6232,-18.86719 -92.70313,-18.86719 -43.07993,0 -70.40982,7.40965 -92.70312,18.86719 -22.29331,11.45754 -39.24273,21.39453 -58.65821,21.39453 -6.05869,0 -11.85366,-1.36115 -17.58008,-3.06836 z m 101.31446,-7.41602 h 135.25195 c 5.326,0 9.61328,4.40151 9.61328,9.86914 v 8.09766 h -77.24023 -77.23828 v -8.09766 c 0,-5.46763 4.28728,-9.86914 9.61328,-9.86914 z m -9.61328,32.39649 h 154.47851 v 8.09765 c 0,5.46764 -4.28728,9.86914 -9.61328,9.86914 H 251.80469 c -5.326,0 -9.61328,-4.4015 -9.61328,-9.86914 z" transform="scale(0.26458333)"/>
          <path id="path1260" style="color:#000000;font-style:normal;font-variant:normal;font-weight:normal;font-stretch:normal;font-size:medium;line-height:normal;font-family:sans-serif;font-variant-ligatures:normal;font-variant-position:normal;font-variant-caps:normal;font-variant-numeric:normal;font-variant-alternates:normal;font-variant-east-asian:normal;font-feature-settings:normal;font-variation-settings:normal;text-indent:0;text-align:start;text-decoration:none;text-decoration-line:none;text-decoration-style:solid;text-decoration-color:#000000;letter-spacing:normal;word-spacing:normal;text-transform:none;writing-mode:lr-tb;direction:ltr;text-orientation:mixed;dominant-baseline:auto;baseline-shift:baseline;text-anchor:start;white-space:normal;shape-padding:0;shape-margin:0;inline-size:0;clip-rule:nonzero;display:inline;overflow:visible;visibility:visible;opacity:1;isolation:auto;mix-blend-mode:normal;color-interpolation:sRGB;color-interpolation-filters:linearRGB;solid-color:#000000;solid-opacity:1;vector-effect:none;fill:#7f7f7f;fill-opacity:1;fill-rule:evenodd;stroke:none;stroke-width:2;stroke-linecap:butt;stroke-linejoin:miter;stroke-miterlimit:4;stroke-dasharray:none;stroke-dashoffset:0;stroke-opacity:1;marker:none;color-rendering:auto;image-rendering:auto;shape-rendering:auto;text-rendering:auto;enable-background:accumulate;stop-color:#000000;stop-opacity:1" d="m 149.49023,200.63086 v 55.22266 c 0.33407,0.12804 0.66405,0.26062 1,0.38671 0.32961,0.12372 0.66856,0.2376 1,0.35938 v -55.04492 z" transform="scale(0.26458333)"/>
          <path transform="scale(0.26458333)" d="m 488.37305,256.24023 c 14.31734,-5.37426 26.93057,-12.52631 37.03515,-20.92382 26.65183,-22.14917 26.31641,-40.61328 26.31641,-40.61329 0,0 -6.27119,-6.27805 -25.39258,-5.45703 -13.15403,0.5648 -25.33462,6.5449 -37.95898,10.3086 z" style="font-variation-settings:normal;opacity:1;vector-effect:none;fill:#cccccc;fill-opacity:1;fill-rule:evenodd;stroke:none;stroke-width:0.995516;stroke-linecap:butt;stroke-linejoin:miter;stroke-miterlimit:4;stroke-dasharray:none;stroke-dashoffset:0;stroke-opacity:1;marker:none;marker-start:none;marker-mid:none;marker-end:none;stop-color:#000000;stop-opacity:1" id="path1270"/>
          <path d="m 129.47976,53.083581 v 14.610995 c -0.0884,0.03388 -0.1757,0.06896 -0.26459,0.102317 -0.0872,0.03274 -0.17689,0.06287 -0.26458,0.09509 V 53.328011 Z" style="color:#000000;font-style:normal;font-variant:normal;font-weight:normal;font-stretch:normal;font-size:medium;line-height:normal;font-family:sans-serif;font-variant-ligatures:normal;font-variant-position:normal;font-variant-caps:normal;font-variant-numeric:normal;font-variant-alternates:normal;font-variant-east-asian:normal;font-feature-settings:normal;font-variation-settings:normal;text-indent:0;text-align:start;text-decoration:none;text-decoration-line:none;text-decoration-style:solid;text-decoration-color:#000000;letter-spacing:normal;word-spacing:normal;text-transform:none;writing-mode:lr-tb;direction:ltr;text-orientation:mixed;dominant-baseline:auto;baseline-shift:baseline;text-anchor:start;white-space:normal;shape-padding:0;shape-margin:0;inline-size:0;clip-rule:nonzero;display:inline;overflow:visible;visibility:visible;opacity:1;isolation:auto;mix-blend-mode:normal;color-interpolation:sRGB;color-interpolation-filters:linearRGB;solid-color:#000000;solid-opacity:1;vector-effect:none;fill:#7f7f7f;fill-opacity:1;fill-rule:evenodd;stroke:none;stroke-width:0.529167;stroke-linecap:butt;stroke-linejoin:miter;stroke-miterlimit:4;stroke-dasharray:none;stroke-dashoffset:0;stroke-opacity:1;marker:none;color-rendering:auto;image-rendering:auto;shape-rendering:auto;text-rendering:auto;enable-background:accumulate;stop-color:#000000;stop-opacity:1" id="path1326"/>
          <path id="path1235" style="font-variation-settings:normal;opacity:1;vector-effect:none;fill:#ffffff;fill-opacity:1;fill-rule:evenodd;stroke:none;stroke-width:0.995516;stroke-linecap:butt;stroke-linejoin:miter;stroke-miterlimit:4;stroke-dasharray:none;stroke-dashoffset:0;stroke-opacity:1;marker:none;marker-start:none;marker-mid:none;marker-end:none;stop-color:#000000;stop-opacity:1" d="m 470.79102,202.62305 c -19.41548,0 -36.3629,-9.93699 -58.65625,-21.39453 -22.29328,-11.45754 -49.6232,-18.86719 -92.70313,-18.86719 -43.07993,0 -70.40982,7.40965 -92.70312,18.86719 -22.29331,11.45754 -39.24273,21.39453 -58.65821,21.39453 -6.05869,0 -11.85366,-1.36115 -17.58008,-3.06836 -12.62426,-3.76367 -24.8045,-9.74378 -37.95898,-10.3086 -1.19509,-0.0513 -2.33924,-0.0751 -3.43555,-0.0742 -16.444522,0.0132 -21.957028,5.53124 -21.957028,5.53124 0,0 -0.337245,18.46412 26.314448,40.61329 -25.009645,-23.79122 -24.519526,-39.4336 -24.519526,-39.4336 0,0 4.476244,-5.45774 23.597656,-4.63672 13.15448,0.56482 25.33472,6.54493 37.95898,10.3086 5.72642,1.70721 11.52139,3.06836 17.58008,3.06836 v -1e-5 c 19.41548,0 36.3649,-9.93699 58.65821,-21.39453 22.29329,-11.45754 49.62319,-18.86719 92.70312,-18.86719 43.07993,0 70.40985,7.40965 92.70313,18.86719 22.29335,11.45754 39.24074,21.39453 58.65625,21.39453 6.05915,0 11.85491,-1.36094 17.58203,-3.06836 12.62435,-3.7637 24.80493,-9.7438 37.95898,-10.30861 13.76092,-0.59084 21.87416,2.48709 25.35741,4.26369 0.0382,-0.51131 0.034,-0.80665 0.034,-0.80665 0,0 -5.51252,-5.51803 -21.95702,-5.53124 l 10e-4,1e-5 c -1.09629,-8.9e-4 -2.24047,0.0231 -3.43555,0.0742 -13.15405,0.5648 -25.33463,6.54491 -37.95898,10.30861 -5.72711,1.70742 -11.52287,3.06836 -17.58203,3.06836 z m -76.09766,-6.60743 c 1.23593,1.6603 1.97656,3.73182 1.97656,5.99219 v 8.09766 h -77.24023 -77.23828 l 2,2 h 77.23828 77.24023 v -8.09766 c 0,-3.29963 -1.56774,-6.20217 -3.97656,-7.99219 z m 1.97656,28.51954 v 8.09765 c 0,5.46764 -4.28728,9.86914 -9.61328,9.86914 H 251.80469 c -2.11185,0 -4.05403,-0.70083 -5.63672,-1.87695 1.75367,2.35581 4.51254,3.87695 7.63672,3.87695 h 135.25195 c 5.32604,0 9.61328,-4.4015 9.61328,-9.86914 v -8.09765 z" transform="scale(0.26458333)" sodipodi:nodetypes="ssssscsccccscscsssscsccccccscccccccsccssscsssccs"/>
        </g>
        <g transform="translate(-0.52684095,1.6571934e-4)" id="g1213">
          <g id="g1045" style="stroke-width:0;stroke-miterlimit:4;stroke-dasharray:none">
            <path d="m 85.043022,53.648362 v 7.701652 c 0,0.772357 -0.621788,1.394144 -1.394144,1.394144 -0.772355,0 -1.394143,-0.621788 -1.394143,-1.394144 v -7.701652 c 0,-0.772355 0.621788,-1.394144 1.394143,-1.394144 0.772356,0 1.394144,0.621788 1.394144,1.394144 z" style="color:#000000;overflow:visible;opacity:1;fill:#cccccc;fill-opacity:1;fill-rule:evenodd;stroke:none;stroke-width:0;stroke-miterlimit:4;stroke-dasharray:none;paint-order:markers fill stroke" id="rect859"/>
            <path sodipodi:nodetypes="csscscc" id="path963" transform="scale(0.26458333)" d="m 319.88179,199.03618 c -0.95249,-0.95249 -2.26988,-1.54009 -3.72945,-1.54009 -2.91913,0 -5.26757,2.3504 -5.26757,5.26953 v 1.42969 c 0,-2.63235 1.8726,-4.75195 4.19921,-4.75195 1.16331,0 2.21312,0.5299 2.97209,1.38884 z" style="color:#000000;overflow:visible;opacity:1;fill:#ffffff;fill-rule:evenodd;stroke:none;stroke-width:0;stroke-miterlimit:4;stroke-dasharray:none;paint-order:markers fill stroke"/>
            <path sodipodi:nodetypes="cssscsssscc" transform="scale(0.26458333)" id="path956" d="m 318.05607,200.8322 c 0.75898,0.85894 1.22713,2.04693 1.22713,3.36311 v 26.24805 c 0,2.63236 -1.8726,4.75195 -4.19922,4.75195 -2.32661,0 -4.19921,-2.11959 -4.19921,-4.75195 v 1.43164 c 0,2.91914 2.34844,5.26758 5.26757,5.26758 2.91914,0 5.26954,-2.34844 5.26954,-5.26758 v -29.10938 c 0,-1.45957 -0.5876,-2.77695 -1.54009,-3.72944 z" style="color:#000000;overflow:visible;opacity:1;fill:#7f7f7f;fill-opacity:1;fill-rule:evenodd;stroke:none;stroke-width:0;stroke-miterlimit:4;stroke-dasharray:none;paint-order:markers fill stroke"/>
          </g>
          <g id="g1040" style="stroke-width:0;stroke-miterlimit:4;stroke-dasharray:none">
            <path sodipodi:nodetypes="sssssss" d="m 82.254738,53.912946 v 7.172485 c 0,0.772356 -0.621788,1.394144 -1.394144,1.394144 -0.772356,0 -1.394144,-0.621788 -1.394144,-1.394144 v -7.172485 c 0,-0.772356 0.621788,-1.394144 1.394144,-1.394144 0.772356,0 1.394144,0.621788 1.394144,1.394144 z" style="color:#000000;overflow:visible;opacity:1;fill:#cccccc;fill-opacity:1;fill-rule:evenodd;stroke:none;stroke-width:0;stroke-miterlimit:4;stroke-dasharray:none;paint-order:markers fill stroke" id="rect923"/>
            <path style="color:#000000;overflow:visible;opacity:1;fill:#ffffff;fill-rule:evenodd;stroke:none;stroke-width:0;stroke-miterlimit:4;stroke-dasharray:none;paint-order:markers fill stroke" d="m 81.847345,52.926284 c -0.252013,-0.252013 -0.600573,-0.407482 -0.986751,-0.407482 -0.772353,0 -1.393711,0.621877 -1.393711,1.39423 v 0.378272 c 0,-0.696476 0.495459,-1.257287 1.111041,-1.257287 0.307792,0 0.585555,0.140203 0.786365,0.367464 z" id="path965" sodipodi:nodetypes="csscscc"/>
            <path sodipodi:nodetypes="cssscsssscc" style="color:#000000;overflow:visible;opacity:1;fill:#7f7f7f;fill-opacity:1;fill-rule:evenodd;stroke:none;stroke-width:0;stroke-miterlimit:4;stroke-dasharray:none;paint-order:markers fill stroke" d="m 81.364289,53.401481 c 0.200814,0.227262 0.324679,0.541584 0.324679,0.889823 v 6.415769 c 0,0.696478 -0.495459,1.257286 -1.111044,1.257286 -0.615582,0 -1.111041,-0.560808 -1.111041,-1.257286 v 0.378788 c 0,0.772356 0.621358,1.393714 1.393711,1.393714 0.772356,0 1.394233,-0.621358 1.394233,-1.393714 v -7.172829 c 0,-0.386178 -0.155469,-0.734735 -0.407482,-0.986748 z" id="path967"/>
          </g>
          <g id="g1035" style="stroke-width:0;stroke-miterlimit:4;stroke-dasharray:none">
            <path sodipodi:nodetypes="sssssss" d="m 79.466446,54.177529 v 6.643318 c 0,0.772357 -0.621788,1.394144 -1.394144,1.394144 -0.772356,0 -1.394144,-0.621788 -1.394144,-1.394144 v -6.643318 c 0,-0.772355 0.621788,-1.394144 1.394144,-1.394144 0.772356,0 1.394144,0.621788 1.394144,1.394144 z" style="color:#000000;overflow:visible;opacity:1;fill:#cccccc;fill-opacity:1;fill-rule:evenodd;stroke:none;stroke-width:0;stroke-miterlimit:4;stroke-dasharray:none;paint-order:markers fill stroke" id="rect925"/>
            <path sodipodi:nodetypes="csscscc" id="path969" d="m 79.059053,53.190867 c -0.252013,-0.252013 -0.600573,-0.407482 -0.986751,-0.407482 -0.772353,0 -1.393711,0.621877 -1.393711,1.39423 v 0.378272 c 0,-0.696476 0.495459,-1.257287 1.111041,-1.257287 0.307792,0 0.585555,0.140203 0.786365,0.367464 z" style="color:#000000;overflow:visible;opacity:1;fill:#ffffff;fill-rule:evenodd;stroke:none;stroke-width:0;stroke-miterlimit:4;stroke-dasharray:none;paint-order:markers fill stroke"/>
            <path id="path971" d="m 78.575997,53.666064 c 0.200814,0.227262 0.324679,0.541584 0.324679,0.889823 v 5.886602 c 0,0.696478 -0.495459,1.257286 -1.111044,1.257286 -0.615582,0 -1.111041,-0.560808 -1.111041,-1.257286 v 0.378788 c 0,0.772356 0.621358,1.393714 1.393711,1.393714 0.772356,0 1.394233,-0.621358 1.394233,-1.393714 v -6.643662 c 0,-0.386178 -0.155469,-0.734735 -0.407482,-0.986748 z" style="color:#000000;overflow:visible;opacity:1;fill:#7f7f7f;fill-opacity:1;fill-rule:evenodd;stroke:none;stroke-width:0;stroke-miterlimit:4;stroke-dasharray:none;paint-order:markers fill stroke" sodipodi:nodetypes="cssscsssscc"/>
          </g>
          <g id="g1030" style="stroke-width:0;stroke-miterlimit:4;stroke-dasharray:none">
            <path sodipodi:nodetypes="sssssss" d="m 76.678162,54.442113 v 6.114151 c 0,0.772356 -0.621789,1.394144 -1.394144,1.394144 -0.772356,0 -1.394144,-0.621788 -1.394144,-1.394144 v -6.114151 c 0,-0.772356 0.621788,-1.394144 1.394144,-1.394144 0.772355,0 1.394144,0.621788 1.394144,1.394144 z" style="color:#000000;overflow:visible;opacity:1;fill:#cccccc;fill-opacity:1;fill-rule:evenodd;stroke:none;stroke-width:0;stroke-miterlimit:4;stroke-dasharray:none;paint-order:markers fill stroke" id="rect938"/>
            <path style="color:#000000;overflow:visible;opacity:1;fill:#ffffff;fill-rule:evenodd;stroke:none;stroke-width:0;stroke-miterlimit:4;stroke-dasharray:none;paint-order:markers fill stroke" d="m 76.270769,53.455451 c -0.252013,-0.252013 -0.600573,-0.407482 -0.986751,-0.407482 -0.772353,0 -1.393711,0.621877 -1.393711,1.39423 v 0.378272 c 0,-0.696476 0.495459,-1.257287 1.111041,-1.257287 0.307792,0 0.585555,0.140203 0.786365,0.367464 z" id="path973" sodipodi:nodetypes="csscscc"/>
            <path sodipodi:nodetypes="cssscsssscc" style="color:#000000;overflow:visible;opacity:1;fill:#7f7f7f;fill-opacity:1;fill-rule:evenodd;stroke:none;stroke-width:0;stroke-miterlimit:4;stroke-dasharray:none;paint-order:markers fill stroke" d="m 75.787713,53.930648 c 0.200814,0.227262 0.324679,0.541584 0.324679,0.889823 v 5.357435 c 0,0.696478 -0.495459,1.257286 -1.111044,1.257286 -0.615582,0 -1.111041,-0.560808 -1.111041,-1.257286 v 0.378788 c 0,0.772356 0.621358,1.393714 1.393711,1.393714 0.772356,0 1.394233,-0.621358 1.394233,-1.393714 v -6.114495 c 0,-0.386178 -0.155469,-0.734735 -0.407482,-0.986748 z" id="path975"/>
          </g>
          <g id="g1025" style="stroke-width:0;stroke-miterlimit:4;stroke-dasharray:none">
            <path sodipodi:nodetypes="sssssss" d="m 73.889877,54.706696 v 5.584984 c 0,0.772356 -0.621788,1.394144 -1.394144,1.394144 -0.772355,0 -1.394143,-0.621788 -1.394143,-1.394144 v -5.584984 c 0,-0.772355 0.621788,-1.394144 1.394143,-1.394144 0.772356,0 1.394144,0.621788 1.394144,1.394144 z" style="color:#000000;overflow:visible;opacity:1;fill:#cccccc;fill-opacity:1;fill-rule:evenodd;stroke:none;stroke-width:0;stroke-miterlimit:4;stroke-dasharray:none;paint-order:markers fill stroke" id="rect940"/>
            <path sodipodi:nodetypes="csscscc" id="path977" d="m 73.482484,53.720034 c -0.252013,-0.252013 -0.600573,-0.407482 -0.986751,-0.407482 -0.772353,0 -1.393711,0.621877 -1.393711,1.39423 v 0.378272 c 0,-0.696476 0.495459,-1.257287 1.111041,-1.257287 0.307792,0 0.585555,0.140203 0.786365,0.367464 z" style="color:#000000;overflow:visible;opacity:1;fill:#ffffff;fill-rule:evenodd;stroke:none;stroke-width:0;stroke-miterlimit:4;stroke-dasharray:none;paint-order:markers fill stroke"/>
            <path id="path979" d="m 72.999428,54.195231 c 0.200814,0.227262 0.324679,0.541584 0.324679,0.889823 v 4.828268 c 0,0.696478 -0.495459,1.257286 -1.111044,1.257286 -0.615582,0 -1.111041,-0.560808 -1.111041,-1.257286 v 0.378788 c 0,0.772356 0.621358,1.393714 1.393711,1.393714 0.772356,0 1.394233,-0.621358 1.394233,-1.393714 v -5.585328 c 0,-0.386178 -0.155469,-0.734735 -0.407482,-0.986748 z" style="color:#000000;overflow:visible;opacity:1;fill:#7f7f7f;fill-opacity:1;fill-rule:evenodd;stroke:none;stroke-width:0;stroke-miterlimit:4;stroke-dasharray:none;paint-order:markers fill stroke" sodipodi:nodetypes="cssscsssscc"/>
          </g>
          <g id="g1020" style="stroke-width:0;stroke-miterlimit:4;stroke-dasharray:none">
            <path sodipodi:nodetypes="sssssss" d="m 71.101585,54.97128 v 5.055817 c 0,0.772356 -0.621788,1.394144 -1.394143,1.394144 -0.772356,0 -1.394144,-0.621788 -1.394144,-1.394144 V 54.97128 c 0,-0.772356 0.621788,-1.394144 1.394144,-1.394144 0.772355,0 1.394143,0.621788 1.394143,1.394144 z" style="color:#000000;overflow:visible;opacity:1;fill:#cccccc;fill-opacity:1;fill-rule:evenodd;stroke:none;stroke-width:0;stroke-miterlimit:4;stroke-dasharray:none;paint-order:markers fill stroke" id="rect942"/>
            <path sodipodi:nodetypes="ssssccccccs" transform="scale(0.26458333)" d="m 263.46094,202.49609 c -1.45902,0 -2.77465,0.58916 -3.72656,1.54102 -0.59553,0.59549 -1.04886,1.3317 -1.30469,2.1582 -0.15341,0.49561 -0.23633,1.02298 -0.23633,1.57031 v 1.42969 17.67969 c 1.3936,-5.55279 1.53916,-10.94569 2.13867,-17.67969 0.11671,-1.31099 0.46758,-2.50434 1.22656,-3.36328 1.16331,-1.30624 3.04768,-0.85894 3.80664,0 l 1.82618,-1.79492 c -0.95249,-0.95249 -2.2709,-1.54102 -3.73047,-1.54102 z" style="color:#000000;overflow:visible;opacity:1;fill:#ffffff;fill-rule:evenodd;stroke:none;stroke-width:0;stroke-miterlimit:4;stroke-dasharray:none;paint-order:markers fill stroke" id="path981"/>
            <path sodipodi:nodetypes="cssscsssscc" style="color:#000000;overflow:visible;opacity:1;fill:#7f7f7f;fill-opacity:1;fill-rule:evenodd;stroke:none;stroke-width:0;stroke-miterlimit:4;stroke-dasharray:none;paint-order:markers fill stroke" d="m 70.211137,54.459815 c 0.200814,0.227262 0.324679,0.541584 0.324679,0.889823 v 4.299101 c 0,0.696478 -0.495459,1.257286 -1.111044,1.257286 -0.615582,0 -1.111041,-0.560808 -1.111041,-1.257286 v 0.378788 c 0,0.772356 0.621358,1.393714 1.393711,1.393714 0.772356,0 1.394233,-0.621358 1.394233,-1.393714 v -5.056161 c 0,-0.386178 -0.155469,-0.734735 -0.407482,-0.986748 z" id="path983"/>
          </g>
          <use x="0" y="0" xlink:href="#g1045" id="use1127" transform="translate(2.787983)" width="100%" height="100%"/>
          <use x="0" y="0" xlink:href="#g1040" id="use1129" transform="translate(8.364463)" width="100%" height="100%"/>
          <use x="0" y="0" xlink:href="#g1035" id="use1131" transform="translate(13.941047)" width="100%" height="100%"/>
          <use x="0" y="0" xlink:href="#g1030" id="use1133" transform="translate(19.517615)" width="100%" height="100%"/>
          <use x="0" y="0" xlink:href="#g1025" id="use1135" transform="translate(25.094184)" width="100%" height="100%"/>
          <g style="stroke-width:0;stroke-miterlimit:4;stroke-dasharray:none" id="g1145" transform="translate(30.670767)">
            <path id="path1139" style="color:#000000;overflow:visible;opacity:1;fill:#cccccc;fill-opacity:1;fill-rule:evenodd;stroke:none;stroke-width:0;stroke-miterlimit:4;stroke-dasharray:none;paint-order:markers fill stroke" d="m 71.101585,54.97128 v 5.055817 c 0,0.772356 -0.621788,1.394144 -1.394143,1.394144 -0.772356,0 -1.394144,-0.621788 -1.394144,-1.394144 V 54.97128 c 0,-0.772356 0.621788,-1.394144 1.394144,-1.394144 0.772355,0 1.394143,0.621788 1.394143,1.394144 z" sodipodi:nodetypes="sssssss"/>
            <path id="path1143" d="m 70.211137,54.459815 c 0.200814,0.227262 0.324679,0.541584 0.324679,0.889823 v 4.299101 c 0,0.696478 -0.495459,1.257286 -1.111044,1.257286 -0.615582,0 -1.111041,-0.560808 -1.111041,-1.257286 v 0.378788 c 0,0.772356 0.621358,1.393714 1.393711,1.393714 0.772356,0 1.394233,-0.621358 1.394233,-1.393714 v -5.056161 c 0,-0.386178 -0.155469,-0.734735 -0.407482,-0.986748 z" style="color:#000000;overflow:visible;opacity:1;fill:#7f7f7f;fill-opacity:1;fill-rule:evenodd;stroke:none;stroke-width:0;stroke-miterlimit:4;stroke-dasharray:none;paint-order:markers fill stroke" sodipodi:nodetypes="cssscsssscc"/>
            <path style="color:#000000;overflow:visible;opacity:1;fill:#ffffff;fill-rule:evenodd;stroke:none;stroke-width:0;stroke-miterlimit:4;stroke-dasharray:none;paint-order:markers fill stroke" d="m 70.694193,53.984618 c -0.252013,-0.252013 -0.600573,-0.407482 -0.986751,-0.407482 -0.772353,0 -1.393711,0.621877 -1.393711,1.39423 v 0.378272 c 0,-0.696476 0.495459,-1.257287 1.111041,-1.257287 0.307792,0 0.585555,0.140203 0.786365,0.367464 z" id="path977-5" sodipodi:nodetypes="csscscc"/>
          </g>
        </g>
      </g>
      <use x="0" y="0" xlink:href="#g1441" id="use1443" transform="translate(0,37.041667)" width="100%" height="100%" style="stroke-width:0;stroke-miterlimit:4;stroke-dasharray:none"/>
      <use style="stroke-width:0;stroke-miterlimit:4;stroke-dasharray:none" height="100%" width="100%" transform="translate(1.944872e-8,74.083334)" id="use1445" xlink:href="#g1441" y="0" x="0"/>
    </g>
  </g>
</svg>