<?xml version="1.0" encoding="UTF-8" standalone="no"?>
<svg
   xmlns:dc="http://purl.org/dc/elements/1.1/"
   xmlns:cc="http://creativecommons.org/ns#"
   xmlns:rdf="http://www.w3.org/1999/02/22-rdf-syntax-ns#"
   xmlns:svg="http://www.w3.org/2000/svg"
   xmlns="http://www.w3.org/2000/svg"
   xmlns:sodipodi="http://sodipodi.sourceforge.net/DTD/sodipodi-0.dtd"
   xmlns:inkscape="http://www.inkscape.org/namespaces/inkscape"
   width="500"
   height="560"
   viewBox="0 0 132.29166 148.16667"
   version="1.1"
   id="svg847"
   sodipodi:docname="iisalmi.svg"
   inkscape:version="1.0.2 (e86c870879, 2021-01-15, custom)">
  <defs
     id="defs841" />
  <sodipodi:namedview
     id="base"
     pagecolor="#ffffff"
     bordercolor="#666666"
     borderopacity="1.0"
     inkscape:pageopacity="0.0"
     inkscape:pageshadow="2"
     inkscape:zoom="0.70710678"
     inkscape:cx="177.66302"
     inkscape:cy="173.7052"
     inkscape:document-units="px"
     inkscape:current-layer="g1172"
     inkscape:document-rotation="0"
     showgrid="false"
     inkscape:snap-smooth-nodes="true"
     inkscape:showpageshadow="false"
     borderlayer="true"
     units="px"
     inkscape:window-width="1920"
     inkscape:window-height="1017"
     inkscape:window-x="-8"
     inkscape:window-y="-4"
     inkscape:window-maximized="1"
     inkscape:snap-center="true"
     inkscape:object-nodes="true"
     inkscape:object-paths="false" />
  <metadata
     id="metadata844">
    <rdf:RDF>
      <cc:Work
         rdf:about="">
        <dc:format>image/svg+xml</dc:format>
        <dc:type
           rdf:resource="http://purl.org/dc/dcmitype/StillImage" />
        <dc:title />
      </cc:Work>
    </rdf:RDF>
  </metadata>
  <g
     inkscape:label="Layer 1"
     inkscape:groupmode="layer"
     id="layer1"
     transform="translate(-21.001302,-70.90975)">
    <g
       id="g1172"
       transform="matrix(0.97947786,0,0,0.97947786,0.43099163,1.4679894)"
       style="stroke-width:1.02095">
      <path
         style="font-variation-settings:normal;opacity:1;vector-effect:none;fill:#000000;fill-opacity:1;stroke:none;stroke-width:0.270127;stroke-linecap:butt;stroke-linejoin:miter;stroke-miterlimit:4;stroke-dasharray:none;stroke-dashoffset:0;stroke-opacity:1;stop-color:#000000;stop-opacity:1"
         d="m 156.06476,70.896713 v 86.569907 c 0,25.58399 -23.53601,64.70117 -67.53173,64.70117 -43.995718,0 -67.531728,-39.11718 -67.531728,-64.70117 V 70.896713 Z"
         id="path1196"
         sodipodi:nodetypes="cszscc" />
      <path
         id="path848"
         style="font-variation-settings:normal;opacity:1;vector-effect:none;fill:#bf9f4f;fill-opacity:1;stroke:none;stroke-width:0.270127;stroke-linecap:butt;stroke-linejoin:miter;stroke-miterlimit:4;stroke-dasharray:none;stroke-dashoffset:0;stroke-opacity:1;stop-color:#000000;stop-opacity:1"
         d="m 133.63112,142.30035 c 6.91609,0 8.11658,7.38147 15.03267,7.38147 3.12443,0 5.08182,-1.50768 6.92723,-3.1595 v 11.13989 c 0,25.29787 -23.37076,63.97749 -67.057923,63.97749 -43.687162,0 -67.057922,-38.67962 -67.057922,-63.97749 V 146.5218 c 1.84555,1.65199 3.80253,3.16002 6.92723,3.16002 6.9161,0 8.11658,-7.38147 15.03267,-7.38147 6.9161,0 8.11658,7.38147 15.03268,7.38147 6.9161,0 8.11657,-7.38147 15.03267,-7.38147 6.916087,0 8.116581,7.38147 15.032672,7.38147 6.916092,0 8.116581,-7.38147 15.032673,-7.38147 6.91609,0 8.11658,7.38147 15.03267,7.38147 6.9161,0 8.11659,-7.38147 15.03268,-7.38147 z" />
      <path
         id="path853"
         style="fill:#000000;stroke:none;stroke-width:0.270127;stroke-miterlimit:10;stroke-dasharray:none"
         d="m 65.046673,178.33869 a 3.0134639,3.0134639 0 0 0 -2.64564,1.57035 l -1.963603,-1.00083 0.345036,2.17685 a 3.0134639,3.0134639 0 0 0 -2.311319,2.03057 3.0134639,3.0134639 0 0 0 0.676144,3.0014 l -1.55856,1.55856 2.176841,0.34503 a 3.0134639,3.0134639 0 0 0 1.217274,2.82513 3.0134639,3.0134639 0 0 0 3.063542,0.28449 l 1.000285,1.9636 1.000822,-1.96413 a 3.0134639,3.0134639 0 0 0 3.063009,-0.28396 3.0134639,3.0134639 0 0 0 1.217273,-2.82513 l 2.176838,-0.34503 -1.558559,-1.55856 a 3.0134639,3.0134639 0 0 0 0.676145,-3.0014 3.0134639,3.0134639 0 0 0 -2.311321,-2.03004 l 0.345039,-2.17738 -1.963605,1.00083 a 3.0134639,3.0134639 0 0 0 -2.645641,-1.57035 z" />
      <path
         id="path949"
         style="fill:#000000;stroke:none;stroke-width:0.270127;stroke-miterlimit:10;stroke-dasharray:none"
         d="m 112.01952,178.33869 a 3.0134639,3.0134639 0 0 1 2.64564,1.57035 l 1.9636,-1.00083 -0.34503,2.17685 a 3.0134639,3.0134639 0 0 1 2.31132,2.03057 3.0134639,3.0134639 0 0 1 -0.67615,3.0014 l 1.55856,1.55856 -2.17684,0.34503 a 3.0134639,3.0134639 0 0 1 -1.21727,2.82513 3.0134639,3.0134639 0 0 1 -3.06354,0.28449 l -1.00029,1.9636 -1.00083,-1.96413 a 3.0134639,3.0134639 0 0 1 -3.063,-0.28396 3.0134639,3.0134639 0 0 1 -1.21728,-2.82513 l -2.17683,-0.34503 1.55856,-1.55856 a 3.0134639,3.0134639 0 0 1 -0.67615,-3.0014 3.0134639,3.0134639 0 0 1 2.31132,-2.03004 l -0.34504,-2.17738 1.96361,1.00083 a 3.0134639,3.0134639 0 0 1 2.64564,-1.57035 z" />
      <path
         id="path951"
         style="fill:#000000;stroke:none;stroke-width:0.270127;stroke-miterlimit:10;stroke-dasharray:none"
         d="m 88.533096,198.53325 a 3.0134639,3.0134639 0 0 0 -2.645641,1.57035 l -1.963601,-1.00083 0.345035,2.17685 a 3.0134639,3.0134639 0 0 0 -2.311319,2.03057 3.0134639,3.0134639 0 0 0 0.676144,3.0014 l -1.55856,1.55856 2.176841,0.34503 a 3.0134639,3.0134639 0 0 0 1.217274,2.82512 3.0134639,3.0134639 0 0 0 3.063542,0.2845 l 1.000285,1.9636 1.000822,-1.96413 a 3.0134639,3.0134639 0 0 0 3.063008,-0.28397 3.0134639,3.0134639 0 0 0 1.217274,-2.82512 l 2.176838,-0.34503 -1.558559,-1.55856 a 3.0134639,3.0134639 0 0 0 0.676145,-3.0014 3.0134639,3.0134639 0 0 0 -2.311321,-2.03004 l 0.345039,-2.17738 -1.963605,1.00083 a 3.0134639,3.0134639 0 0 0 -2.645641,-1.57035 z" />
      <path
         id="path953"
         style="fill:#000000;stroke:none;stroke-width:0.270127;stroke-miterlimit:10;stroke-dasharray:none"
         d="m 88.533096,159.22464 a 3.0134639,3.0134639 0 0 1 2.645639,1.57035 l 1.963602,-1.00083 -0.34503,2.17685 a 3.0134639,3.0134639 0 0 1 2.311318,2.03057 3.0134639,3.0134639 0 0 1 -0.676148,3.0014 l 1.558563,1.55856 -2.176848,0.34503 a 3.0134639,3.0134639 0 0 1 -1.217264,2.82513 3.0134639,3.0134639 0 0 1 -3.063545,0.28449 l -1.000287,1.9636 -1.000826,-1.96413 a 3.0134639,3.0134639 0 0 1 -3.063005,-0.28396 3.0134639,3.0134639 0 0 1 -1.217275,-2.82513 l -2.176837,-0.34503 1.558563,-1.55856 a 3.0134639,3.0134639 0 0 1 -0.676148,-3.0014 3.0134639,3.0134639 0 0 1 2.311318,-2.03004 l -0.345041,-2.17738 1.963613,1.00083 a 3.0134639,3.0134639 0 0 1 2.645638,-1.57035 z" />
      <path
         style="font-variation-settings:normal;opacity:1;vector-effect:none;fill:#000000;fill-opacity:1;stroke:none;stroke-width:0.135064;stroke-linecap:butt;stroke-linejoin:miter;stroke-miterlimit:4;stroke-dasharray:none;stroke-dashoffset:0;stroke-opacity:1;stop-color:#000000;stop-opacity:1"
         d="m 145.07199,160.99423 -8.89131,-1.01926 c -0.97163,1.61939 -3.70452,3.14292 -6.43201,2.13918 -2.72748,-1.00375 -2.82804,-2.59354 -2.22895,-3.47045 l -0.63132,-0.67491 0.63796,-1.03055 c -0.88405,-1.37653 -2.11865,-2.51937 -3.39786,-3.63247 l -1.06588,0.57307 -0.50384,-0.53863 c -4.62324,2.95991 -9.3115,6.42176 -13.32366,10.27623 l 5.6224,7.03981 c 0.69903,-0.52116 0.9417,-0.75378 2.05202,-1.59954 1.11032,-0.84575 3.43696,-1.91738 5.61961,-0.27901 2.18266,1.63837 1.91607,5.71514 -0.6649,7.5874 l 1.94658,8.51251 c 8.59767,-2.22303 19.47669,-10.00182 21.26116,-23.88338 z"
         id="path966"
         sodipodi:nodetypes="czzcccccccczcccc" />
      <path
         style="font-variation-settings:normal;opacity:1;vector-effect:none;fill:#000000;fill-opacity:1;stroke:none;stroke-width:0.135064;stroke-linecap:butt;stroke-linejoin:miter;stroke-miterlimit:4;stroke-dasharray:none;stroke-dashoffset:0;stroke-opacity:1;stop-color:#000000;stop-opacity:1"
         d="m 31.994205,160.99423 8.89131,-1.01926 c 0.97163,1.61939 3.70452,3.14292 6.43201,2.13918 2.72748,-1.00375 2.82804,-2.59354 2.22895,-3.47045 l 0.63132,-0.67491 -0.63796,-1.03055 c 0.88405,-1.37653 2.11865,-2.51937 3.39786,-3.63247 l 1.06588,0.57307 0.50384,-0.53863 c 4.62324,2.95991 9.3115,6.42176 13.32366,10.27623 l -5.6224,7.03981 c -0.69903,-0.52116 -0.9417,-0.75378 -2.05202,-1.59954 -1.11032,-0.84575 -3.43696,-1.91738 -5.61961,-0.27901 -2.18266,1.63837 -1.91607,5.71514 0.6649,7.5874 l -1.94658,8.51251 c -8.59767,-2.22303 -19.47669,-10.00182 -21.26116,-23.88338 z"
         id="path968"
         sodipodi:nodetypes="czzcccccccczcccc" />
      <path
         style="font-variation-settings:normal;opacity:1;vector-effect:none;fill:#000000;fill-opacity:1;stroke:none;stroke-width:0.135066;stroke-linecap:butt;stroke-linejoin:miter;stroke-miterlimit:4;stroke-dasharray:none;stroke-dashoffset:0;stroke-opacity:1;stop-color:#000000;stop-opacity:1"
         d="m 63.765932,170.08201 4.216796,-5.27908 c 6.005395,4.50405 16.219092,12.34724 20.11599,15.26991 3.896898,2.92267 5.211756,3.90882 7.116052,5.41221 1.904295,1.50339 4.712686,3.07782 7.61838,4.77872 2.90569,1.70089 3.96875,4.3231 5.38616,6.44921 1.41741,2.12612 4.3231,6.87445 7.86663,9.56753 0,0 -2.90569,4.25223 -9.21317,7.15792 0,0 -0.57878,-0.8032 -2.42141,-0.94494 0,0 0.53545,-1.04988 0.13455,-3.45531 -0.40091,-2.40543 -3.55803,-8.92012 -5.362097,-11.02487 -1.80407,-2.10475 -8.244943,-6.3958 -11.158623,-8.27429 -2.219523,-1.43096 -3.917948,-2.74103 -6.531279,-4.65487 -3.78992,-2.7755 -14.596355,-11.41864 -17.767979,-15.00214 z"
         id="path970"
         sodipodi:nodetypes="cczzsscccssssc" />
      <path
         id="path972"
         style="font-variation-settings:normal;opacity:1;vector-effect:none;fill:#000000;fill-opacity:1;stroke:none;stroke-width:0.510485;stroke-linecap:butt;stroke-linejoin:miter;stroke-miterlimit:4;stroke-dasharray:none;stroke-dashoffset:0;stroke-opacity:1;stop-color:#000000;stop-opacity:1"
         d="m 412.2832,622.87695 c -22.63828,16.97871 -61.05699,46.48155 -75.87109,57.59571 11.91964,8.94212 18.57157,13.96072 24.87305,18.89453 14.48472,-10.63074 54.99864,-43.05003 66.93554,-56.53711 z m -104.54882,79.39063 c -7.12245,5.31396 -16.9679,10.86905 -27.16797,16.83984 -10.98214,6.42856 -15.00029,16.33931 -20.35743,24.375 -5.35714,8.03573 -16.33955,25.98159 -29.73242,36.16016 0,0 10.98297,16.07255 34.82227,27.05469 0,0 2.18612,-3.03656 9.15039,-3.57227 0,0 -2.02303,-3.9672 -0.50781,-13.05859 1.51525,-9.09139 13.4471,-33.71497 20.26562,-41.66993 6.08715,-7.10168 26.07918,-20.74435 38.14649,-28.65039 -8.44213,-5.46068 -15.34933,-10.64857 -24.61914,-17.47851 z"
         transform="scale(0.26458333)" />
      <path
         id="path978"
         style="font-variation-settings:normal;opacity:1;vector-effect:none;fill:#bf9f4f;fill-opacity:1;stroke:none;stroke-width:0.510477;stroke-linecap:butt;stroke-linejoin:miter;stroke-miterlimit:4;stroke-dasharray:none;stroke-dashoffset:0;stroke-opacity:1;stop-color:#000000;stop-opacity:1"
         d="m 334.61328,278.42383 -31.0625,66.66992 c 8.87033,-1.03572 16.69151,-3.59645 22.78906,-7.05859 -0.33868,7.11269 -1.16285,14.8098 -1.96484,22.14257 h 20.47656 c -0.80198,-7.33277 -1.62616,-15.02988 -1.96484,-22.14257 6.09756,3.46214 13.91873,6.02287 22.78906,7.05859 z m -77.79101,58.10351 c -14.53272,0.14083 -33.06585,6.18555 -49.25782,29.43555 -21.58928,30.99999 -22.31492,41.64881 -37.56445,61.89453 -0.85512,1.13528 -1.67703,2.17893 -2.48242,3.17774 1.24083,0.75299 13.07087,7.92785 17.84765,10.82617 5.62539,-6.30478 11.02568,-13.55529 16.50977,-21.0586 15.55754,-21.28573 25.98158,-41.2486 45.53516,-48.21289 19.55357,-6.96428 36.69728,4.99972 42.32226,21.51758 H 323.75 v -31.52539 h -21.29492 c -0.92613,0 -2.61833,0.0772 -3.89453,-0.75586 -1.27621,-0.83306 -2.20816,-2.32472 -4.66407,-6.84961 -2.4559,-4.52489 -9.22612,-13.65411 -24.10937,-17.04101 -3.72081,-0.84673 -8.12061,-1.45515 -12.96484,-1.40821 z m 155.58203,0 c -4.84424,-0.0469 -9.24403,0.56148 -12.96485,1.40821 -14.88325,3.3869 -21.65542,12.51612 -24.11133,17.04101 -2.45588,4.52489 -3.3859,6.01655 -4.6621,6.84961 -1.2762,0.83305 -2.9684,0.75586 -3.89454,0.75586 h -21.29492 v 31.52539 h 34.01758 c 5.625,-16.51786 22.76674,-28.48186 42.32031,-21.51758 19.55358,6.96429 29.97959,26.92716 45.53711,48.21289 5.4841,7.50331 10.8847,14.75382 16.50977,21.0586 4.77679,-2.89832 16.60683,-10.07318 17.84765,-10.82617 -0.80538,-0.99881 -1.6273,-2.04246 -2.48242,-3.17774 -15.24952,-20.24572 -15.9771,-30.89454 -37.5664,-61.89453 -16.19195,-23.25 -34.72315,-29.29472 -49.25586,-29.43555 z m -86.10938,26.05469 v 164.56055 c 0,0 2.67853,1.74219 8.31836,1.74219 5.63983,0 8.31836,-1.74219 8.31836,-1.74219 V 362.58203 Z M 136.3125,425.99414 c -4.40059,-0.0116 -8.9493,2.41411 -11.43164,8.29102 -4.67265,11.06245 3.78685,28.74393 25.18945,27.98632 8.31251,-0.29424 15.63259,-3.41402 22.39258,-8.35546 -4.05433,-2.4608 -17.45349,-10.58752 -17.75977,-10.77344 -5.25039,2.98646 -8.47656,1.68416 -10.41796,-0.0176 0,0 6.35427,-5.47637 1.80859,-12.10547 -2.13079,-3.10741 -5.89837,-5.01519 -9.78125,-5.02539 z m 396.60156,0 c -3.88287,0.0102 -7.65046,1.91798 -9.78125,5.02539 -4.54571,6.6291 1.80664,12.10547 1.80664,12.10547 -1.94144,1.70177 -5.16795,3.00424 -10.41797,0.0176 -0.30628,0.18593 -13.70534,8.31255 -17.75976,10.77344 6.75983,4.94175 14.07978,8.06121 22.39258,8.35546 21.40263,0.75761 29.86403,-16.92387 25.1914,-27.98632 -2.48235,-5.87691 -7.03105,-8.30258 -11.43164,-8.29102 z m -375.13281,3.61719 c -1.89773,0.0227 -3.6509,1.02082 -4.63672,2.64258 -1.57766,2.59872 -0.74709,5.98404 1.85352,7.55859 0,0 139.30942,84.5654 151.43164,91.72852 11.72826,6.93029 19.03425,11.06445 28.18359,11.06445 9.14934,0 16.45533,-4.13416 28.1836,-11.06445 12.12221,-7.16312 151.43164,-91.72852 151.43164,-91.72852 2.60058,-1.57455 3.43116,-4.95987 1.85351,-7.55859 -0.98581,-1.62176 -2.73898,-2.6199 -4.63672,-2.64258 -1.02984,-0.0132 -2.04327,0.26267 -2.92383,0.79687 0,0 -140.09891,85.03131 -151.32031,91.66211 -11.61536,6.86359 -16.77082,9.53711 -22.58789,9.53711 -5.81707,0 -10.97253,-2.67352 -22.58789,-9.53711 -11.2214,-6.6308 -151.32227,-91.66211 -151.32227,-91.66211 -0.88054,-0.5342 -1.89204,-0.81006 -2.92187,-0.79687 z m 166.10352,10.43359 -21.02735,18.08008 4.73242,56.42773 16.29493,-12.1875 z m 21.45703,0 v 62.32031 l 16.29492,12.1875 4.73242,-56.42773 z"
         transform="scale(0.26458333)" />
    </g>
  </g>
</svg>
