<?xml version="1.0" encoding="UTF-8" standalone="no"?>
<svg
   xmlns:dc="http://purl.org/dc/elements/1.1/"
   xmlns:cc="http://creativecommons.org/ns#"
   xmlns:rdf="http://www.w3.org/1999/02/22-rdf-syntax-ns#"
   xmlns:svg="http://www.w3.org/2000/svg"
   xmlns="http://www.w3.org/2000/svg"
   xmlns:sodipodi="http://sodipodi.sourceforge.net/DTD/sodipodi-0.dtd"
   xmlns:inkscape="http://www.inkscape.org/namespaces/inkscape"
   width="500"
   height="585"
   viewBox="0 0 132.29166 154.78125"
   version="1.1"
   id="svg847"
   sodipodi:docname="iitti.svg"
   inkscape:version="1.0.2 (e86c870879, 2021-01-15, custom)">
  <defs
     id="defs841" />
  <sodipodi:namedview
     id="base"
     pagecolor="#ffffff"
     bordercolor="#666666"
     borderopacity="1.0"
     inkscape:pageopacity="0.0"
     inkscape:pageshadow="2"
     inkscape:zoom="0.98994949"
     inkscape:cx="300.62312"
     inkscape:cy="299.2868"
     inkscape:document-units="px"
     inkscape:current-layer="layer1"
     inkscape:document-rotation="0"
     showgrid="false"
     inkscape:snap-smooth-nodes="true"
     inkscape:showpageshadow="false"
     borderlayer="true"
     units="px"
     inkscape:window-width="1920"
     inkscape:window-height="1017"
     inkscape:window-x="-8"
     inkscape:window-y="-4"
     inkscape:window-maximized="1" />
  <metadata
     id="metadata844">
    <rdf:RDF>
      <cc:Work
         rdf:about="">
        <dc:format>image/svg+xml</dc:format>
        <dc:type
           rdf:resource="http://purl.org/dc/dcmitype/StillImage" />
        <dc:title></dc:title>
      </cc:Work>
    </rdf:RDF>
  </metadata>
  <g
     inkscape:label="Layer 1"
     inkscape:groupmode="layer"
     id="layer1"
     style="opacity:1"
     transform="translate(-29.13223,-22.517457)">
    <g
       id="g1700"
       transform="matrix(0.99332847,0,0,0.99332847,0.19435646,0.15022582)"
       style="stroke-width:1.00672">
      <path
         style="font-variation-settings:normal;opacity:1;vector-effect:none;fill:#000000;fill-opacity:1;stroke:none;stroke-width:0.26636;stroke-linecap:butt;stroke-linejoin:miter;stroke-miterlimit:4;stroke-dasharray:none;stroke-dashoffset:0;stroke-opacity:1;stop-color:#000000;stop-opacity:1"
         d="m 29.132231,22.517457 v 88.226793 c 0,40.0027 30.73905,67.59402 66.590092,67.59402 35.851037,0 66.590087,-27.59132 66.590087,-67.59402 V 22.517457 Z"
         id="path846"
         sodipodi:nodetypes="cszscc" />
      <g
         id="g1634"
         transform="translate(-1.5804809e-4)"
         style="stroke-width:1.00672">
        <path
           style="font-variation-settings:normal;opacity:1;vector-effect:none;fill:#d9d9d9;fill-opacity:1;stroke:none;stroke-width:0.26636;stroke-linecap:butt;stroke-linejoin:miter;stroke-miterlimit:4;stroke-dasharray:none;stroke-dashoffset:0;stroke-opacity:1;stop-color:#000000;stop-opacity:1"
           d="m 29.132388,108.40356 c 7.92397,0 8.723554,8.33253 16.647524,8.33253 7.92397,0 8.723553,-8.33253 16.647522,-8.33253 7.923969,0 8.723552,8.33253 16.647522,8.33253 7.92397,0 8.723555,-8.33253 16.647523,-8.33253 7.923971,0 8.723551,8.33253 16.647521,8.33253 7.92397,0 8.72354,-8.33253 16.64752,-8.33253 7.92397,0 8.72354,8.33253 16.6475,8.33253 7.92398,0 8.72357,-8.33253 16.64754,-8.33253 V 73.961481 c -7.92397,-1e-6 -8.72356,8.332528 -16.64754,8.332528 -7.92396,-10e-7 -8.72353,-8.332528 -16.6475,-8.332528 -7.92398,0 -8.72355,8.332528 -16.64752,8.332528 -7.92397,0 -8.72355,-8.332528 -16.647521,-8.332528 -7.923968,0 -8.723553,8.332528 -16.647523,8.332528 -7.92397,0 -8.723553,-8.332528 -16.647522,-8.332528 -7.923969,0 -8.723552,8.332528 -16.647522,8.332528 -7.92397,0 -8.723554,-8.332528 -16.647524,-8.332528 z"
           id="path1601"
           sodipodi:nodetypes="czzzzzzzcczzzzzzzcc" />
        <path
           style="font-variation-settings:normal;opacity:1;vector-effect:none;fill:#999999;fill-opacity:1;stroke:none;stroke-width:1.00672;stroke-linecap:butt;stroke-linejoin:miter;stroke-miterlimit:4;stroke-dasharray:none;stroke-dashoffset:0;stroke-opacity:1;stop-color:#000000;stop-opacity:1"
           d="m 110.10742,405.71484 v 6 c 29.94886,0 32.97106,31.49219 62.91992,31.49219 29.94887,0 32.96911,-31.49219 62.91797,-31.49219 29.94886,0 32.97106,31.49219 62.91992,31.49219 29.94887,0 32.97107,-31.49219 62.91993,-31.49219 29.94886,0 32.97106,31.49219 62.91992,31.49219 29.94886,0 32.97102,-31.49219 62.91992,-31.49219 29.94886,0 32.9711,31.49219 62.91992,31.49219 29.9489,0 32.97106,-31.49219 62.91992,-31.49219 v -6 c -29.94886,0 -32.97102,31.49219 -62.91992,31.49219 -29.94882,0 -32.97106,-31.49219 -62.91992,-31.49219 -29.9489,0 -32.97106,31.49219 -62.91992,31.49219 -29.94886,0 -32.97106,-31.49219 -62.91992,-31.49219 -29.94886,0 -32.97106,31.49219 -62.91993,31.49219 -29.94886,0 -32.97106,-31.49219 -62.91992,-31.49219 -29.94886,0 -32.9691,31.49219 -62.91797,31.49219 -29.94886,0 -32.97106,-31.49219 -62.91992,-31.49219 z"
           transform="scale(0.26458333)"
           id="path1606" />
        <path
           style="font-variation-settings:normal;opacity:1;vector-effect:none;fill:#ffffff;fill-opacity:1;stroke:none;stroke-width:1.00672;stroke-linecap:butt;stroke-linejoin:miter;stroke-miterlimit:4;stroke-dasharray:none;stroke-dashoffset:0;stroke-opacity:1;stop-color:#000000;stop-opacity:1"
           d="m 110.10742,277.53906 v 6 c 29.94886,0 32.97106,31.49414 62.91992,31.49414 29.94887,0 32.96911,-31.49414 62.91797,-31.49414 29.94886,0 32.97106,31.49414 62.91992,31.49414 29.94887,0 32.97107,-31.49414 62.91993,-31.49414 29.94886,0 32.97106,31.49414 62.91992,31.49414 29.94886,0 32.97102,-31.49414 62.91992,-31.49414 29.94886,0 32.9711,31.49414 62.91992,31.49414 29.9489,0 32.97106,-31.49414 62.91992,-31.49414 v -6 c -29.94886,0 -32.97102,31.49414 -62.91992,31.49414 -29.94882,0 -32.97106,-31.49414 -62.91992,-31.49414 -29.9489,0 -32.97106,31.49414 -62.91992,31.49414 -29.94886,0 -32.97106,-31.49414 -62.91992,-31.49414 -29.94886,0 -32.97106,31.49414 -62.91993,31.49414 -29.94886,0 -32.97106,-31.49414 -62.91992,-31.49414 -29.94886,0 -32.9691,31.49414 -62.91797,31.49414 -29.94886,0 -32.97106,-31.49414 -62.91992,-31.49414 z"
           transform="scale(0.26458333)"
           id="path850" />
      </g>
      <g
         id="g1644"
         transform="translate(-1.4894553e-4)"
         style="stroke-width:1.00672">
        <g
           id="g1117"
           style="stroke-width:1.00672">
          <path
             id="path1011"
             style="font-variation-settings:normal;opacity:1;vector-effect:none;fill:#d5aa46;fill-opacity:1;stroke:none;stroke-width:1.00672;stroke-linecap:butt;stroke-linejoin:miter;stroke-miterlimit:4;stroke-dasharray:none;stroke-dashoffset:0;stroke-opacity:1;stop-color:#000000;stop-opacity:1"
             d="m 199.42969,116.55078 v 55.62305 h 69.16211 v -29.8125 h 22.67773 v 87.24219 H 268.5918 v -29.81055 h -69.16211 v 55.62109 h 23.24219 v -37.38672 h 22.67773 v 37.38672 h 71.73047 v -44.46289 h 27.75781 v -49.93555 h -27.75781 v -44.46484 h -71.73047 v 37.38672 h -22.67773 v -37.38672 z"
             transform="scale(0.26458333)"
             sodipodi:nodetypes="ccccccccccccccccccccccccc" />
          <path
             id="path1086"
             style="font-variation-settings:normal;opacity:1;vector-effect:none;fill:#6d592b;fill-opacity:1;stroke:none;stroke-width:1.00672;stroke-linecap:butt;stroke-linejoin:miter;stroke-miterlimit:4;stroke-dasharray:none;stroke-dashoffset:0;stroke-opacity:1;stop-color:#000000;stop-opacity:1"
             d="m 224.67188,114.55078 -4,4 v 37.38672 l 4,-4 z m 94.4082,0 -4,4 v 44.46484 l 4,-4 z m -52.48828,25.81055 v 29.8125 h -65.16211 l -4,4 h 73.16211 v -29.8125 h 18.67773 l 4,-4 z m 4,57.43164 -4,4 v 29.81055 l 4,-4 z m 44.48828,11.1582 v 44.46289 h -67.73047 l -4,4 h 75.73047 v -44.46289 h 25.75781 v -4 z m -94.4082,7.07617 v 37.38672 h -19.24219 l -4,4 h 27.24219 v -37.38672 h 18.67773 l 4,-4 z"
             transform="scale(0.26458333)" />
          <path
             id="path1109"
             style="font-variation-settings:normal;opacity:1;vector-effect:none;fill:#fbe5b3;fill-opacity:1;stroke:none;stroke-width:1.00672;stroke-linecap:butt;stroke-linejoin:miter;stroke-miterlimit:4;stroke-dasharray:none;stroke-dashoffset:0;stroke-opacity:1;stop-color:#000000;stop-opacity:1"
             d="m 197.42969,114.55078 v 59.62305 l 4,-4 v -51.62305 h 19.24219 l 4,-4 z m 45.91992,0 v 37.38672 h -18.67773 l -4,4 h 26.67773 v -37.38672 h 67.73047 l 4,-4 z m 49.91992,25.81055 -4,4 v 83.24219 H 270.5918 l -4,4 h 26.67773 z m 25.81055,18.65429 -4,4 h 29.75781 v -4 z m -121.65039,38.77735 v 59.62109 l 4,-4 v -51.62109 h 65.16211 l 4,-4 z m 49.91992,18.23437 -4,4 v 37.38672 l 4,-4 z"
             transform="scale(0.26458333)" />
        </g>
        <g
           id="g1144"
           transform="rotate(180,95.72247,49.207848)"
           style="stroke-width:1.00672">
          <path
             id="path1138"
             style="font-variation-settings:normal;opacity:1;vector-effect:none;fill:#d5aa46;fill-opacity:1;stroke:none;stroke-width:1.00672;stroke-linecap:butt;stroke-linejoin:miter;stroke-miterlimit:4;stroke-dasharray:none;stroke-dashoffset:0;stroke-opacity:1;stop-color:#000000;stop-opacity:1"
             d="m 199.42969,116.55078 v 55.62305 h 69.16211 v -29.8125 h 22.67773 v 87.24219 H 268.5918 v -29.81055 h -69.16211 v 55.62109 h 23.24219 v -37.38672 h 22.67773 v 37.38672 h 71.73047 v -44.46289 h 27.75781 v -49.93555 h -27.75781 v -44.46484 h -71.73047 v 37.38672 h -22.67773 v -37.38672 z"
             transform="scale(0.26458333)"
             sodipodi:nodetypes="ccccccccccccccccccccccccc" />
          <path
             id="path1140"
             style="font-variation-settings:normal;opacity:1;vector-effect:none;fill:#fbe5b3;fill-opacity:1;stroke:none;stroke-width:1.00672;stroke-linecap:butt;stroke-linejoin:miter;stroke-miterlimit:4;stroke-dasharray:none;stroke-dashoffset:0;stroke-opacity:1;stop-color:#000000;stop-opacity:1"
             d="m 224.67188,114.55078 -4,4 v 37.38672 l 4,-4 z m 94.4082,0 -4,4 v 44.46484 l 4,-4 z m -52.48828,25.81055 v 29.8125 h -65.16211 l -4,4 h 73.16211 v -29.8125 h 18.67773 l 4,-4 z m 4,57.43164 -4,4 v 29.81055 l 4,-4 z m 44.48828,11.1582 v 44.46289 h -67.73047 l -4,4 h 75.73047 v -44.46289 h 25.75781 v -4 z m -94.4082,7.07617 v 37.38672 h -19.24219 l -4,4 h 27.24219 v -37.38672 h 18.67773 l 4,-4 z"
             transform="scale(0.26458333)" />
          <path
             id="path1142"
             style="font-variation-settings:normal;opacity:1;vector-effect:none;fill:#6d592b;fill-opacity:1;stroke:none;stroke-width:1.00672;stroke-linecap:butt;stroke-linejoin:miter;stroke-miterlimit:4;stroke-dasharray:none;stroke-dashoffset:0;stroke-opacity:1;stop-color:#000000;stop-opacity:1"
             d="m 197.42969,114.55078 v 59.62305 l 4,-4 v -51.62305 h 19.24219 l 4,-4 z m 45.91992,0 v 37.38672 h -18.67773 l -4,4 h 26.67773 v -37.38672 h 67.73047 l 4,-4 z m 49.91992,25.81055 -4,4 v 83.24219 H 270.5918 l -4,4 h 26.67773 z m 25.81055,18.65429 -4,4 h 29.75781 v -4 z m -121.65039,38.77735 v 59.62109 l 4,-4 v -51.62109 h 65.16211 l 4,-4 z m 49.91992,18.23437 -4,4 v 37.38672 l 4,-4 z"
             transform="scale(0.26458333)" />
        </g>
      </g>
      <g
         id="g1649"
         transform="translate(-1.3683128e-4)"
         style="stroke-width:1.00672">
        <ellipse
           style="opacity:1;fill:#d5aa46;fill-opacity:1;stroke:none;stroke-width:0.266359;stroke-linecap:butt;stroke-miterlimit:4;stroke-dasharray:none;stroke-dashoffset:0"
           id="path868"
           cx="95.722458"
           cy="32.708126"
           rx="6.981811"
           ry="6.8077388" />
        <path
           id="ellipse1227"
           style="opacity:1;fill:#6d592b;fill-opacity:1;stroke:none;stroke-width:1.00671;stroke-linecap:butt;stroke-miterlimit:4;stroke-dasharray:none;stroke-dashoffset:0"
           d="m 361.78516,146.48242 c 12.94881,0 23.44726,-10.23536 23.44726,-22.86133 0,-3.82473 -2.03549,-8.5048 -5.1374,-11.13347 2.18489,4.64646 3.21879,7.05067 3.30578,11.13347 5e-5,11.04584 -10.28736,20.66987 -21.61564,20.66964 -7.69669,-7.2e-4 -14.45807,-4.49323 -18.3736,-10.87142 2.50016,7.72712 9.02764,13.06311 18.3736,13.06311 z m 0,-3.8125 c 10.78892,0 19.53515,-8.5289 19.53515,-19.04883 0,-4.0687 -2.11273,-8.62383 -5.5639,-10.54624 2.31866,2.88638 3.61443,6.71212 3.61468,10.54624 3.5e-4,9.47059 -7.87318,17.14825 -17.58593,17.14844 -6.08628,-3e-4 -11.11574,-3.40595 -14.66624,-8.00572 2.41316,5.71329 7.4541,9.90611 14.66624,9.90611 z m 10.38672,-27.76758 c 2.14153,2.42494 3.3197,5.51863 3.32031,8.71875 -4e-5,7.38142 -6.13687,13.36522 -13.70703,13.36524 -4.08077,-5.5e-4 -7.9491,-1.77398 -10.55274,-4.83789 0.82894,4.2926 5.90136,6.72632 10.55274,6.72656 8.64033,7.5e-4 15.64498,-6.82901 15.64453,-15.25391 5.3e-4,-3.64668 -1.74987,-6.75575 -5.25781,-8.71875 z"
           sodipodi:nodetypes="ssccccsssccccsccccccc"
           transform="scale(0.26458333)" />
        <path
           id="path1261"
           style="opacity:1;fill:#fbe5b3;fill-opacity:1;stroke:none;stroke-width:1.00671;stroke-linecap:butt;stroke-miterlimit:4;stroke-dasharray:none;stroke-dashoffset:0"
           d="m 361.78516,97.890625 c -14.57335,6.61e-4 -26.38696,11.520455 -26.38672,25.730465 -10e-5,8.76583 4.57666,16.92863 12.14453,21.66016 -5.8128,-5.82824 -9.20313,-14.31991 -9.20313,-21.66016 0,-12.62597 10.4965,-22.86132 23.44532,-22.86132 7.80168,0 16.78792,3.63285 22.70312,9.75 -4.75033,-7.82143 -13.38063,-12.618435 -22.70312,-12.619145 z m -0.75782,6.111325 c -11.32754,1e-5 -19.37304,8.76348 -19.37304,19.8086 0,5.52256 3.4315,11.65806 6.66211,13.65625 -2.33705,-3.35399 -4.92578,-6.06431 -4.92579,-13.97461 0,-7.91029 8.47533,-17.80274 17.5879,-17.80274 9.11256,0 11.35921,1.94658 15.00781,4.79883 -3.40909,-4.6271 -9.29522,-6.48633 -14.95899,-6.48633 z m 0.75782,4.36524 c -8.63956,3e-4 -15.64302,6.82974 -15.64258,15.2539 -1.2e-4,3.55985 1.27673,7.00762 3.60937,9.7461 0,0 -1.67354,-3.9002 -1.67383,-10.14789 -2.9e-4,-6.24768 6.13688,-12.96343 13.70704,-12.96344 3.99086,6.1e-4 7.92642,1.28001 11.86914,3.42578 -2.97241,-3.37423 -7.30731,-5.31519 -11.86914,-5.31445 z m -10.82032,15.2539 c -1.5e-4,5.26708 3.98346,9.7275 9.33399,10.45118 -4.3737,-1.13153 -7.41918,-4.99148 -7.41992,-9.4043 -6.6e-4,-5.37484 4.46705,-9.73236 9.97851,-9.73242 4.53402,2.3e-4 8.49795,2.9814 9.65039,7.25781 -0.73226,-5.22733 -5.31188,-9.12377 -11.01057,-9.11857 -5.69869,0.005 -10.53231,4.72608 -10.5324,10.5463 z"
           sodipodi:nodetypes="cccssccsscsscsccczcccccccccc"
           transform="scale(0.26458333)" />
      </g>
      <g
         id="g1611"
         style="stroke-width:1.00672">
        <path
           style="font-variation-settings:normal;opacity:1;vector-effect:none;fill:#d5aa46;fill-opacity:1;stroke:none;stroke-width:0.26636;stroke-linecap:butt;stroke-linejoin:miter;stroke-miterlimit:4;stroke-dasharray:none;stroke-dashoffset:0;stroke-opacity:1;stop-color:#000000;stop-opacity:1"
           d="M 89.396284,118.13107 V 39.483698 h 12.652376 v 78.647372 z"
           id="path1208"
           sodipodi:nodetypes="ccccc" />
        <path
           id="path1211"
           style="font-variation-settings:normal;opacity:1;vector-effect:none;fill:#fbe5b3;fill-opacity:1;stroke:none;stroke-width:1.00672;stroke-linecap:butt;stroke-linejoin:miter;stroke-miterlimit:4;stroke-dasharray:none;stroke-dashoffset:0;stroke-opacity:1;stop-color:#000000;stop-opacity:1"
           d="m 335.875,147.23047 v 299.25 h 4 v -295.25 h 2 v 295.25 h 2 v -295.25 h 4 v 295.25 h 2 v -295.25 h 33.82031 l 4,-4 z"
           transform="scale(0.26458333)" />
        <path
           id="path863"
           style="font-variation-settings:normal;opacity:1;vector-effect:none;fill:#6d592b;fill-opacity:1;stroke:none;stroke-width:1.00672;stroke-linecap:butt;stroke-linejoin:miter;stroke-miterlimit:4;stroke-dasharray:none;stroke-dashoffset:0;stroke-opacity:1;stop-color:#000000;stop-opacity:1"
           d="m 387.69531,147.23047 -4,4 v 295.25 h 4 z m -14,4 v 295.25 h 2 v -295.25 z m 6,0 v 295.25 h 2 v -295.25 z"
           transform="scale(0.26458333)" />
      </g>
      <g
         id="g1629"
         style="stroke-width:1.00672">
        <path
           id="path1429"
           style="opacity:1;fill:#d5aa46;fill-opacity:1;stroke:none;stroke-width:1.00671;stroke-linecap:butt;stroke-miterlimit:4;stroke-dasharray:none;stroke-dashoffset:0"
           d="m 361.78516,453.13672 -117.73828,70.9707 c 3.74178,-5.08537 4.53737,-12.28649 1.21484,-17.82031 -2.85585,-5.13014 -8.62148,-8.39315 -14.5,-8.15039 -8.99569,0.0113 -16.67791,8.72449 -15.54688,17.65234 0.34923,4.60105 2.9978,8.61523 6.39454,11.58594 -2.26732,1.25771 -4.2701,6.52681 -6.74024,4.63281 -6.54251,-5.38991 -17.12103,-4.31253 -22.4082,2.32031 -5.9067,6.72189 -4.56653,18.18447 2.8164,23.28321 5.90018,4.54923 14.85118,4.06828 20.33985,-0.92969 1.80075,0.62018 5.95027,4.26262 5.36719,5.88672 -6.69178,5.37097 -7.83466,16.12177 -2.22852,22.65234 5.42349,7.11916 16.88999,7.94503 23.33789,1.77344 6.19482,-5.3661 6.9568,-15.47754 1.91797,-21.81641 l 78.25,47.16797 c -4.33058,2.87233 -7.00004,7.99627 -7,13.69532 -3e-5,8.71184 8.21416,16.11331 17.11328,16.11328 4.53955,2.2e-4 13.28125,-6.19727 13.28125,-6.19727 0,0 0.0164,6.39795 0.0156,8.28711 -4e-5,8.89913 7.21414,16.11332 16.11328,16.11328 8.89913,4e-5 16.11335,-7.21415 16.11328,-16.11328 -1e-4,-1.88905 0.0176,-8.28711 0.0176,-8.28711 0,0 8.74169,6.19749 13.28125,6.19727 8.89912,3e-5 17.11331,-7.40144 17.11328,-16.11328 5e-5,-5.69965 -2.67057,-10.82316 -7.00196,-13.69532 l 78.21289,-47.14648 c -3.7404,5.08525 -4.53495,12.28533 -1.21289,17.81836 2.85585,5.13014 8.62148,8.39315 14.5,8.15039 8.9957,-0.0113 16.6779,-8.7245 15.54688,-17.65235 -0.34923,-4.60104 -2.9978,-8.61522 -6.39453,-11.58593 2.26734,-1.25772 4.27008,-6.52681 6.74023,-4.63281 6.54252,5.3899 17.12106,4.31057 22.40821,-2.32227 5.90672,-6.72189 4.56652,-18.18252 -2.81641,-23.28125 -5.90018,-4.54923 -14.85118,-4.06828 -20.33985,0.92969 -1.80075,-0.62019 -5.95029,-4.26262 -5.36718,-5.88672 6.69176,-5.37098 7.83465,-16.12178 2.22851,-22.65235 -5.42351,-7.11915 -16.88998,-7.94502 -23.33789,-1.77343 -6.19451,5.36584 -6.95794,15.47748 -1.91992,21.8164 z m 0,28.55859 c 14.74089,-3.8e-4 27.69167,11.11349 27.6914,26.02539 -2.6e-4,7.27998 -2.79677,12.65189 -5.29492,20.67578 12.24374,-3.39239 24.12284,-7.38671 35.22656,-7.38671 17.77376,0 30.25782,8.90211 30.25782,23.64257 0,14.74046 -12.48406,23.64454 -30.25782,23.64454 -11.10372,0 -22.98282,-3.99629 -35.22656,-7.38868 2.49815,8.0239 5.29466,13.39581 5.29492,20.67578 2.7e-4,14.9119 -12.95051,26.02576 -27.6914,26.0254 -14.74013,-6.9e-4 -27.68972,-11.11425 -27.68946,-26.0254 2.9e-4,-7.27997 2.79585,-12.65188 5.29297,-20.67578 -12.24485,3.39186 -24.12142,7.38868 -35.22461,7.38868 -17.77374,0 -30.25976,-8.90408 -30.25976,-23.64454 0,-14.74046 12.48602,-23.64257 30.25976,-23.64257 11.10319,0 22.97976,3.99485 35.22461,7.38671 -2.49712,-8.02389 -5.29268,-13.3958 -5.29297,-20.67578 -2.6e-4,-14.91114 12.94933,-26.02471 27.68946,-26.02539 z"
           transform="scale(0.26458333)" />
        <path
           id="path1401"
           style="opacity:1;fill:#fbe5b3;fill-opacity:1;stroke:none;stroke-width:1.00671;stroke-linecap:butt;stroke-miterlimit:4;stroke-dasharray:none;stroke-dashoffset:0"
           d="m 231.07617,496.12891 c -9.93423,0.0974 -17.93606,8.17857 -17.93555,18.11328 5.4e-4,4.96572 2.03973,9.71346 5.64063,13.13281 l -2.9082,2.9082 c -3.16395,-2.42829 -7.04092,-3.74441 -11.0293,-3.74414 -10.00371,-5e-5 -18.11333,8.10957 -18.11328,18.11328 -4e-5,7.56375 4.64294,14.02875 11.22851,16.74024 l 1.62305,-3.54297 c -5.2489,-2.09506 -8.96885,-7.20082 -8.96875,-13.19727 -1.2e-4,-7.85932 6.37115,-14.23059 14.23047,-14.23046 3.91221,-6e-5 7.65189,1.61053 10.33984,4.45312 l 8.55274,-8.55273 c -4.17323,-2.59736 -6.71049,-7.16458 -6.71094,-12.08008 -5.5e-4,-7.80172 6.28074,-14.14922 14.08203,-14.23047 0.0488,-2.5e-4 0.0977,-2.5e-4 0.14649,0 5.82394,-1e-4 10.81493,3.50747 13.01757,8.51758 l 3.13282,-2.33008 c -2.96994,-5.94708 -9.05101,-10.07035 -16.15039,-10.07031 -0.0592,-2.9e-4 -0.11849,-2.9e-4 -0.17774,0 z m -12.29492,65.80273 c -3.60041,3.41888 -5.63955,8.16582 -5.64063,13.13086 -2e-5,7.31044 4.35394,13.56985 10.58985,16.43164 l 1.81836,-3.41016 c -5.01374,-2.20114 -8.52354,-7.195 -8.52344,-13.02148 3e-5,-4.91512 2.53651,-9.48225 6.70899,-12.08008 z"
           transform="scale(0.26458333)" />
        <path
           id="path1390"
           style="opacity:1;fill:#6d592b;fill-opacity:1;stroke:none;stroke-width:1.00671;stroke-linecap:butt;stroke-miterlimit:4;stroke-dasharray:none;stroke-dashoffset:0"
           d="m 244.82227,504.13086 1.01562,3.23242 -2.39258,-2.25781 0.82617,3.42383 c 0.76979,1.75095 1.21291,3.67751 1.2129,5.71289 1.2e-4,2.9664 -0.92845,5.80361 -2.57813,8.16015 l 2.76563,2.76563 c 2.36925,-3.12638 3.69488,-6.95007 3.69531,-10.92578 1e-5,-2.90433 -0.7479,-5.61005 -1.96289,-8.04297 z m -29.63868,50.30078 c -2.68828,2.84187 -6.42792,4.45174 -10.33984,4.45117 -1.86288,3e-5 -3.63107,-0.38234 -5.26172,-1.0332 l -3.3418,-0.25 2.5293,2.02148 -3.33984,-0.25 2.52929,2.02149 c 2.12442,0.87469 4.44481,1.37306 6.88477,1.37304 3.98771,-1.3e-4 7.86392,-1.31626 11.02734,-3.74414 l 2.91016,2.91016 4.95313,1.05078 z m 30.48829,9.70508 -2.76758,2.76758 c 1.64999,2.35631 2.5798,5.19183 2.58008,8.1582 1e-4,7.85932 -6.37115,14.2306 -14.23047,14.23047 -2.03208,-2.5e-4 -3.95646,-0.4413 -5.70508,-1.20899 l -3.66797,-0.88867 2.75781,2.59375 -3.66797,-0.88867 2.75977,2.59375 c 2.2974,1.05432 4.83016,1.68166 7.52344,1.68164 10.00371,5e-5 18.11333,-8.10957 18.11328,-18.11328 -3e-5,-3.97588 -1.32618,-7.79908 -3.69531,-10.92578 z"
           transform="scale(0.26458333)" />
        <path
           id="path1410"
           style="opacity:1;fill:#6d592b;fill-opacity:1;stroke:none;stroke-width:0.266359;stroke-linecap:butt;stroke-miterlimit:4;stroke-dasharray:none;stroke-dashoffset:0"
           d="m 130.30574,156.94442 c 2.62843,-0.0258 4.74558,-2.16391 4.74545,-4.79247 -1.5e-4,-1.31385 -0.53968,-2.57002 -1.49242,-3.47472 l 0.76946,-0.76946 c 0.83713,0.64248 1.86291,0.9907 2.91817,0.99063 2.64682,2e-5 4.79249,-2.14565 4.79247,-4.79247 1e-5,-2.00124 -1.22844,-3.71177 -2.97087,-4.42919 l -0.42944,0.93741 c 1.38878,0.55432 2.37301,1.90522 2.37299,3.49178 3e-5,2.07945 -1.6857,3.76518 -3.76515,3.76514 -1.0351,2e-5 -2.02456,-0.42612 -2.73575,-1.17822 l -2.26291,2.26291 c 1.10417,0.68722 1.77548,1.89563 1.7756,3.19619 1.5e-4,2.0642 -1.66178,3.74365 -3.72587,3.76514 -0.0129,7e-5 -0.0258,7e-5 -0.0388,0 -1.54092,3e-5 -2.86145,-0.92801 -3.44423,-2.25361 l -0.82889,0.6165 c 0.78579,1.5735 2.39474,2.66445 4.27312,2.66444 0.0157,8e-5 0.0314,8e-5 0.047,0 z m 3.25303,-17.4103 c 0.95261,-0.90458 1.49213,-2.16054 1.49242,-3.47421 0,-1.93422 -1.15198,-3.59036 -2.8019,-4.34754 l -0.48111,0.90227 c 1.32655,0.58239 2.25519,1.90368 2.25516,3.44527 -1e-5,1.30046 -0.67112,2.50884 -1.77509,3.19619 z" />
        <path
           id="path1477"
           style="opacity:1;fill:#6d592b;fill-opacity:1;stroke:none;stroke-width:1.00671;stroke-linecap:butt;stroke-miterlimit:4;stroke-dasharray:none;stroke-dashoffset:0"
           d="m 245.89453,563.91406 -2.99023,2.99024 79.42773,47.8789 0.30664,-4.60937 z m 231.7832,0 -76.75195,46.26367 0.2832,4.62305 79.45899,-47.89648 z"
           transform="scale(0.26458333)" />
        <path
           id="path1412"
           style="opacity:1;fill:#fbe5b3;fill-opacity:1;stroke:none;stroke-width:1.00671;stroke-linecap:butt;stroke-miterlimit:4;stroke-dasharray:none;stroke-dashoffset:0"
           d="m 492.31641,496.12891 c -10.0037,-8e-5 -18.11332,8.10955 -18.11329,18.11328 4e-5,3.97588 1.32618,7.79908 3.69532,10.92578 l 2.76758,-2.76758 c -1.65,-2.35632 -2.57981,-5.19183 -2.58008,-8.1582 -1.2e-4,-7.85934 6.37117,-14.23058 14.23047,-14.23047 2.0321,2.6e-4 3.95648,0.44129 5.70507,1.20898 l 3.66797,0.88868 -2.75781,-2.59376 3.66797,0.88868 -2.75977,-2.59375 c -2.29738,-1.0543 -4.83014,-1.68168 -7.52343,-1.68164 z m 7.51953,30.19336 8.55078,8.55078 c 2.6883,-2.84187 6.42792,-4.45178 10.33984,-4.45117 1.86289,-4e-5 3.63108,0.38236 5.26172,1.0332 l 3.3418,0.25 -2.53125,-2.02149 3.34179,0.25 -2.52929,-2.02148 c -2.12444,-0.8747 -4.44482,-1.37309 -6.88477,-1.37305 -3.9877,1.5e-4 -7.86391,1.31625 -11.02734,3.74414 l -2.91016,-2.91015 z m -21.9375,37.81445 c -2.36926,3.12637 -3.69489,6.95006 -3.69532,10.92578 0,2.90434 0.74789,5.61005 1.9629,8.04297 l 2.58203,2.06836 -1.01563,-3.23438 2.39258,2.25977 -0.82617,-3.42383 c -0.76978,-1.75094 -1.21293,-3.6775 -1.21289,-5.71289 -1.4e-4,-2.9664 0.92843,-5.80361 2.57812,-8.16016 z"
           transform="scale(0.26458333)" />
        <path
           style="opacity:1;fill:#fbe5b3;fill-opacity:1;stroke:none;stroke-width:1.00671;stroke-linecap:butt;stroke-miterlimit:4;stroke-dasharray:none;stroke-dashoffset:0"
           d="m 361.78516,450.74023 -118.88086,71.66016 2.99023,2.99023 115.89063,-69.85742 115.89257,69.85742 2.99024,-2.99023 z"
           transform="scale(0.26458333)"
           id="rect870" />
        <path
           id="path1505"
           style="opacity:1;fill:#fbe5b3;fill-opacity:1;stroke:none;stroke-width:1.00671;stroke-linecap:butt;stroke-miterlimit:4;stroke-dasharray:none;stroke-dashoffset:0"
           d="m 322.63281,610.26953 c -5.56253,3.09166 -9.37115,8.95621 -9.37109,15.77149 -3e-5,6.29758 3.2206,11.83442 8.09766,15.08007 l 2.32812,-3.06445 c -3.93893,-2.56767 -6.56269,-7.02439 -6.5625,-12.12109 -1.6e-4,-4.47037 2.05001,-8.41534 5.20117,-11.0625 z m 78.30469,0.0898 0.28125,4.5996 c 1.9167,1.63693 3.48414,3.69213 4.34766,6.13477 l 3.33593,-2.05273 c -1.57178,-3.74666 -4.4476,-6.71433 -7.96484,-8.68164 z m -51.07227,25.86718 -3.32,2e-5 -1.76789,1.99998 c -0.73054,1.99401 -1.10475,4.10097 -1.10546,6.22461 -3e-5,7.41222 4.46378,13.76425 10.83984,16.56836 l 2.06445,-3.48437 c -5.28679,-2.1097 -9.04124,-7.29873 -9.04101,-13.40235 3.8e-4,-2.80891 0.81017,-5.55665 2.33007,-7.90625 z"
           transform="scale(0.26458333)"
           sodipodi:nodetypes="cscccccccccccccccccc" />
        <path
           id="circle987"
           style="opacity:1;fill:#6d592b;fill-opacity:1;stroke:none;stroke-width:1.00671;stroke-linecap:butt;stroke-miterlimit:4;stroke-dasharray:none;stroke-dashoffset:0"
           d="m 408.90234,619.04102 -2.90988,-2.902 1.24191,3.92836 -2.90987,-2.90199 1.24191,3.92836 c 0.53742,1.52021 0.88092,3.13441 0.88086,4.8418 2.9e-4,7.97053 -6.37983,14.43199 -14.25,14.43164 -5.26694,-5.1e-4 -10.10408,-2.94335 -12.57813,-7.65235 l -5.91406,3.51172 c 1.5199,2.3496 2.3297,5.09734 2.33008,7.90625 2.9e-4,7.97053 -6.37983,14.43199 -14.25,14.43164 -1.84341,9e-5 -3.59192,-0.384 -5.20899,-1.02929 l -5.1565,-1.68586 4.12427,3.42805 -5.1565,-1.68586 4.12428,3.42804 c 2.2292,0.98038 4.68196,1.54493 7.27344,1.54492 10.00371,4e-5 18.11335,-8.10959 18.11328,-18.11328 -1.2e-4,-2.12353 -0.3738,-4.23049 -1.10352,-6.22461 3.43298,3.7756 8.29934,5.92796 13.40235,5.92774 10.00369,3e-5 18.11331,-8.10959 18.11328,-18.11328 1e-5,-2.48228 -0.50454,-4.84594 -1.40821,-7 z m -64.94922,13.67382 c -2.47402,4.709 -7.31118,7.65184 -12.57812,7.65235 -2.83764,1.2e-4 -5.4665,-0.86274 -7.6875,-2.31055 l -2.72461,-1.04102 1.56055,2.57227 -2.72461,-1.04101 1.56055,2.57421 c 2.87012,1.91006 6.30951,3.03322 10.01562,3.03321 5.103,2.2e-4 9.96932,-2.15214 13.40234,-5.92774 l 5.08789,-2 z"
           sodipodi:nodetypes="ccccccccccccccccssccscccccccccccc"
           transform="scale(0.26458333)" />
        <path
           id="path1577"
           style="opacity:1;fill:#fbe5b3;fill-opacity:1;stroke:none;stroke-width:1.00671;stroke-linecap:butt;stroke-miterlimit:4;stroke-dasharray:none;stroke-dashoffset:0"
           d="m 388.32422,492.63867 -3.74024,2.54492 a 26.387947,25.730036 0 0 1 3.58985,12.95508 26.387947,25.730036 0 0 1 -7.96875,18.42383 l 6.5293,-0.16992 c 4.38823,-5.60765 6.43719,-10.81363 6.4375,-17.5625 8e-5,-5.96465 -1.82119,-11.4852 -4.84766,-16.19141 z m 61.4414,40.00977 -3.36132,2.46484 c 1.45616,2.75904 2.26757,5.93915 2.26758,9.53906 -10e-6,14.57367 -13.08658,22.38868 -29.91602,22.38868 -10.51382,0 -24.25068,-3.83089 -33.08008,-9.77149 l -5.4707,5.47266 a 26.387947,25.730036 0 0 1 7.96875,18.42383 26.387947,25.730036 0 0 1 -26.38867,25.73046 26.387947,25.730036 0 0 1 -20.33985,-9.33984 l -3.39062,2.74219 c 5.75637,6.54532 14.19421,10.78125 23.73047,10.78125 17.33475,0 31.38696,-13.70293 31.38672,-30.60547 -3.1e-4,-6.74888 -2.04927,-11.95485 -6.4375,-17.5625 10.11834,5.49279 19.84268,7.9707 30.2207,7.9707 19.71836,0 35.7168,-7.80606 35.7168,-26.23047 -10e-6,-4.67393 -1.04757,-8.65073 -2.90626,-12.0039 z m -173.46093,19.27929 -3.91016,1.15821 c 4.24229,12.3243 17.87868,17.79687 34.2207,17.79687 10.37802,0 20.10236,-2.47791 30.22071,-7.9707 l 6.53125,-0.16992 -5.47266,-5.47266 c -8.82945,5.94009 -22.56484,9.77149 -33.07812,9.77149 -13.73049,0 -24.83769,-5.28313 -28.51172,-15.11329 z"
           transform="scale(0.26458333)" />
        <path
           id="path1592"
           style="opacity:1;fill:#6d592b;fill-opacity:1;stroke:none;stroke-width:1.00671;stroke-linecap:butt;stroke-miterlimit:4;stroke-dasharray:none;stroke-dashoffset:0"
           d="m 361.78516,478.22461 c -17.33476,0 -31.38701,13.70289 -31.38672,30.60547 2.7e-4,6.74887 2.04923,11.95485 6.4375,17.5625 -10.11835,-5.49283 -19.84269,-7.97072 -30.22071,-7.9707 -19.71835,0 -35.71679,7.80606 -35.71679,26.23046 0,3.15477 0.61962,5.88735 1.49609,8.4336 l 3.81836,5.77148 -1.86328,-6.35156 3.81836,5.77148 -1.86328,-6.34961 c -0.82922,-2.21864 -1.40625,-4.59182 -1.40625,-7.27539 0,-14.57367 13.08854,-22.38672 29.91797,-22.38672 10.51328,0 24.24867,3.82945 33.07812,9.76954 l 5.47266,-5.47266 c -5.09497,-4.8426 -7.96847,-11.48617 -7.96875,-18.42383 -2.5e-4,-14.21001 11.81336,-25.72981 26.38672,-25.73047 9.38937,1.7e-4 18.07143,4.86519 22.79882,12.77539 3.01743,2.79491 3.40252,6.64258 4.81836,10.07813 -0.82182,-3.78351 -1.45357,-7.56805 -2.94922,-11.35156 2.06455,2.67202 3.45523,6.3569 4.82032,10.07812 -0.49498,-4.27148 -1.76684,-7.76553 -2.94922,-11.34961 -5.54992,-8.6302 -15.32147,-14.41406 -26.53906,-14.41406 z m 55.16992,40.19727 c -10.37802,0 -20.10236,2.47787 -30.2207,7.9707 l -6.5293,0.16992 5.4707,5.47266 c 8.8294,-5.9406 22.56626,-9.76954 33.08008,-9.76954 12.67232,0 23.20956,4.43719 27.64844,12.84766 3.0383,3.41067 2.53616,6.28562 3.5189,10.232 -0.0552,-3.87751 -0.0989,-7.07962 -1.83824,-11.46442 1.66268,2.6761 2.54277,6.52608 3.5189,10.232 0.20948,-4.36962 -1.07225,-7.74511 -1.83824,-11.46442 -5.46815,-9.86485 -18.09437,-14.22657 -32.81054,-14.22656 z m -73.58789,44.32031 -6.53125,0.16992 c -4.38827,5.60765 -6.43723,10.81362 -6.4375,17.5625 -1.3e-4,7.60406 2.94883,14.47162 7.65625,19.82422 l 9.41908,6.27874 c -3.31892,-2.54995 -5.4297,-5.09989 -7.72377,-7.64984 2.95157,1.90479 6.11059,4.01703 9.41908,6.27874 -2.71867,-2.45389 -5.97697,-4.54802 -7.72377,-7.64983 -3.90866,-4.61188 -6.04689,-10.40775 -6.04687,-16.39062 2.8e-4,-6.93766 2.87378,-13.58123 7.96875,-18.42383 z"
           sodipodi:nodetypes="sccsscccccsscccccccccsscccscccccscccccccccc"
           transform="scale(0.26458333)" />
      </g>
      <g
         id="g1616"
         style="stroke-width:1.00672">
        <path
           id="path1289"
           style="opacity:1;fill:#d5aa46;fill-opacity:1;stroke:none;stroke-width:0.266359;stroke-linecap:butt;stroke-miterlimit:4;stroke-dasharray:none;stroke-dashoffset:0"
           d="m 87.381552,118.22997 h 16.681838 c 1.42431,0 2.46257,1.18767 2.46257,2.81692 0,1.62926 -1.03826,2.81693 -2.46257,2.81693 H 87.381552 c -1.424311,0 -2.46256,-1.18767 -2.46256,-2.81693 0,-1.62925 1.038249,-2.81692 2.46256,-2.81692 z"
           sodipodi:nodetypes="sssssss" />
        <path
           style="opacity:1;fill:#fbe5b3;fill-opacity:1;stroke:none;stroke-width:1.00671;stroke-linecap:butt;stroke-miterlimit:4;stroke-dasharray:none;stroke-dashoffset:0"
           d="m 331.78516,466.35742 c -1.66979,0 -6.09278,-1.24299 -6.09278,-1.24299 2.91184,-1.60382 6.15249,-1.78338 9.53864,-2.2655 -4.27391,-1.60777 -7.80056,-1.3474 -11.38318,-1.22696 3.03698,-1.67248 6.96888,-2.45005 11.06512,-3.06327 -4.84806,-1.20588 -8.0951,-0.81075 -11.98523,-1.0587 4.01724,-1.43835 8.66154,-2.45866 14.81306,-2.47415 -4.443,-1.3992 -8.88601,-1.89624 -13.32901,-2.62825 4.6982,-0.92944 11.60086,-1.22903 18.76169,-1.45486 -4.60626,-1.54781 -10.55182,-1.26925 -16.63129,-1.33129 0,0 4.3908,-0.96887 5.24298,-0.96887 h 60 c 2.56142,0 4.77577,0.93364 6.34978,2.50764 l 2.75,-2.75 c -2.324,-2.324 -5.53835,-3.75764 -9.09978,-3.75764 h -60 c -7.12286,0 -12.85743,5.73456 -12.85743,12.85742 0,7.12286 5.73457,12.85742 12.85743,12.85742 z"
           transform="scale(0.26458333)"
           id="path1329"
           sodipodi:nodetypes="ccccccccccssccssscc" />
        <path
           style="opacity:1;fill:#6d592b;fill-opacity:1;stroke:none;stroke-width:1.00671;stroke-linecap:butt;stroke-miterlimit:4;stroke-dasharray:none;stroke-dashoffset:0"
           d="m 331.78516,470.35742 h 60 c 7.12286,0 12.85742,-5.73456 12.85742,-12.85742 0,-3.56143 -1.43364,-6.77578 -3.75764,-9.09978 -1.7162,-0.5383 -3.43241,-1.11401 -5.14861,-0.61032 0.86045,0.81555 1.71318,1.6697 2.39861,3.36032 -1.83141,-0.49213 -5.64658,-0.74694 -9.14304,0.17625 4.41296,0.30866 7.37787,1.10276 10.63139,1.85534 -4.29899,0.1893 -10.38232,0.51458 -13.97741,1.75972 5.01399,0.46676 9.6649,0.82047 14.9967,2.55847 -6.1235,0.0213 -11.3666,1.21656 -16.42983,2.6516 5.22144,0.26496 10.44094,0.53572 15.3136,1.84701 -6.66056,-0.11703 -14.17828,0.46234 -18.78736,2.03755 4.68389,0.46685 10.97492,0.0654 14.05167,1.85433 0,0 -1.93605,0.46693 -3.0055,0.46693 h -60 c -1.51523,1.07645 -3.03046,1.19478 -4.54569,1.21695 1.0734,1.22322 2.76798,1.90934 4.54569,2.78305 z"
           transform="scale(0.26458333)"
           id="rect865"
           sodipodi:nodetypes="csscccccccccccsccc" />
      </g>
    </g>
  </g>
</svg>
