<?xml version="1.0" encoding="UTF-8" standalone="no"?>
<svg
   xmlns:dc="http://purl.org/dc/elements/1.1/"
   xmlns:cc="http://creativecommons.org/ns#"
   xmlns:rdf="http://www.w3.org/1999/02/22-rdf-syntax-ns#"
   xmlns:svg="http://www.w3.org/2000/svg"
   xmlns="http://www.w3.org/2000/svg"
   width="500"
   height="576"
   viewBox="0 0 132.29166 152.4"
   version="1.1"
   id="svg847">
  <defs
     id="defs841" />
  <metadata
     id="metadata844">
    <rdf:RDF>
      <cc:Work
         rdf:about="">
        <dc:format>image/svg+xml</dc:format>
        <dc:type
           rdf:resource="http://purl.org/dc/dcmitype/StillImage" />
        <dc:title></dc:title>
      </cc:Work>
    </rdf:RDF>
  </metadata>
  <path
     id="path3642"
     style="fill:#bf9f4f;fill-opacity:1;fill-rule:evenodd;stroke:none;stroke-width:0.132292;stroke-linecap:round;stroke-linejoin:round"
     d="M 32.825385,143.4021 C 13.192127,131.93006 0,110.63425 0,86.254169 V 0 H 32.825385 L 99.466278,143.4021 C 119.09954,131.93006 132.29167,110.63425 132.29167,86.254169 V 0 H 99.466278 Z" />
  <path
     id="path3664"
     style="fill:#045cd2;fill-opacity:1;fill-rule:evenodd;stroke:none;stroke-width:0.132292;stroke-linecap:round;stroke-linejoin:round"
     d="m 99.466278,0 v 143.4021 c -9.78539,5.71776 -21.1692,8.9979 -33.320446,8.9979 -12.151243,0 -23.53506,-3.28014 -33.320447,-8.9979 V 0 Z" />
  <path
     style="font-variation-settings:normal;vector-effect:none;fill:#cccccc;fill-opacity:1;stroke:none;stroke-width:0.132292;stroke-linecap:butt;stroke-linejoin:miter;stroke-miterlimit:5;stroke-dasharray:none;stroke-dashoffset:0;stroke-opacity:1;stop-color:#000000"
     d="m 71.591948,4.072159 0.28348,24.484517 c 0.0905,7.817109 -3.507921,7.216277 -3.8086,12.528259 -0.300679,5.311982 -0.02041,14.911427 -0.02041,28.943794 0,14.03237 1.80109,29.08698 1.88989,32.482331 0.0888,3.39535 0,38.37639 0,38.37639 -0.81501,0.35435 -2.273943,0.67327 -2.273943,0.67327 v 7.61858 c 0,0 -0.714729,0.1665 -1.516537,0.1665 -0.801808,0 -1.516537,-0.1665 -1.516537,-0.1665 v -7.61858 c 0,0 -1.458925,-0.31892 -2.273937,-0.67327 0,0 -0.0888,-34.98104 0,-38.37639 0.0888,-3.395351 1.889884,-18.449961 1.889884,-32.482331 0,-14.032367 0.280269,-23.631812 -0.02041,-28.943794 -0.300679,-5.311982 -3.899101,-4.71115 -3.808591,-12.528259 L 60.699719,4.072159 c 0,0 2.162138,-0.601357 5.446109,-0.601357 3.28398,0 5.44612,0.601357 5.44612,0.601357 z"
     id="path3672" />
  <path
     style="font-variation-settings:normal;vector-effect:none;fill:#cccccc;fill-opacity:1;stroke:none;stroke-width:0.132292;stroke-linecap:butt;stroke-linejoin:miter;stroke-miterlimit:5;stroke-dasharray:none;stroke-dashoffset:0;stroke-opacity:1;stop-color:#000000"
     d="m 52.083966,4.072159 0.28348,24.484517 c 0.0905,7.817109 -3.507917,7.216277 -3.808596,12.528259 -0.300679,5.311982 -0.02041,14.911427 -0.02041,28.943794 0,14.03237 1.801086,29.08698 1.889886,32.482331 0.0888,3.39535 0,34.67222 0,34.67222 -0.81501,0.35435 -2.273939,0.67327 -2.273939,0.67327 v 7.61858 c 0,0 -0.714729,0.1665 -1.516537,0.1665 -0.801808,0 -1.516537,-0.1665 -1.516537,-0.1665 v -7.61858 c 0,0 -1.458925,-0.31892 -2.273937,-0.67327 0,0 -0.0888,-31.27687 0,-34.67222 0.0888,-3.395351 1.889884,-18.449961 1.889884,-32.482331 0,-14.032367 0.280269,-23.631812 -0.02041,-28.943794 -0.300679,-5.311982 -3.899101,-4.71115 -3.808591,-12.528259 L 41.191741,4.072159 c 0,0 2.162138,-0.601357 5.446109,-0.601357 3.283976,0 5.446116,0.601357 5.446116,0.601357 z"
     id="path3674" />
  <path
     style="font-variation-settings:normal;vector-effect:none;fill:#cccccc;fill-opacity:1;stroke:none;stroke-width:0.132292;stroke-linecap:butt;stroke-linejoin:miter;stroke-miterlimit:5;stroke-dasharray:none;stroke-dashoffset:0;stroke-opacity:1;stop-color:#000000"
     d="m 80.207718,4.072159 -0.28348,24.484517 c -0.0905,7.817109 3.50792,7.216277 3.8086,12.528259 0.30068,5.311982 0.0204,14.911427 0.0204,28.943794 0,14.03237 -1.80109,29.08698 -1.88989,32.482331 -0.0888,3.39535 0,34.67222 0,34.67222 0.81501,0.35435 2.27394,0.67327 2.27394,0.67327 v 7.61858 c 0,0 0.71473,0.1665 1.51654,0.1665 0.80181,0 1.51654,-0.1665 1.51654,-0.1665 v -7.61858 c 0,0 1.45892,-0.31892 2.27393,-0.67327 0,0 0.0888,-31.27687 0,-34.67222 -0.0888,-3.395351 -1.88988,-18.449961 -1.88988,-32.482331 0,-14.032367 -0.28027,-23.631812 0.0204,-28.943794 0.30068,-5.311982 3.8991,-4.71115 3.80859,-12.528259 L 91.099948,4.072159 c 0,0 -2.16214,-0.601357 -5.44611,-0.601357 -3.28398,0 -5.44612,0.601357 -5.44612,0.601357 z"
     id="path3676" />
</svg>
