<?xml version="1.0" encoding="UTF-8" standalone="no"?>
<svg
   xmlns:dc="http://purl.org/dc/elements/1.1/"
   xmlns:cc="http://creativecommons.org/ns#"
   xmlns:rdf="http://www.w3.org/1999/02/22-rdf-syntax-ns#"
   xmlns:svg="http://www.w3.org/2000/svg"
   xmlns="http://www.w3.org/2000/svg"
   xmlns:sodipodi="http://sodipodi.sourceforge.net/DTD/sodipodi-0.dtd"
   xmlns:inkscape="http://www.inkscape.org/namespaces/inkscape"
   width="500"
   height="550"
   viewBox="0 0 132.29166 145.52084"
   version="1.1"
   id="svg847"
   sodipodi:docname="ilomantsi.svg"
   inkscape:version="1.0.2 (e86c870879, 2021-01-15, custom)">
  <defs
     id="defs841" />
  <sodipodi:namedview
     id="base"
     pagecolor="#ffffff"
     bordercolor="#666666"
     borderopacity="1.0"
     inkscape:pageopacity="0.0"
     inkscape:pageshadow="2"
     inkscape:zoom="0.98994949"
     inkscape:cx="337.65784"
     inkscape:cy="217.34675"
     inkscape:document-units="px"
     inkscape:current-layer="layer1"
     inkscape:document-rotation="0"
     showgrid="false"
     inkscape:snap-smooth-nodes="true"
     inkscape:showpageshadow="false"
     borderlayer="true"
     units="px"
     inkscape:window-width="1920"
     inkscape:window-height="1017"
     inkscape:window-x="-8"
     inkscape:window-y="-4"
     inkscape:window-maximized="1"
     inkscape:object-paths="false"
     inkscape:snap-global="true"
     inkscape:snap-center="false"
     inkscape:snap-object-midpoints="false"
     inkscape:snap-others="false" />
  <metadata
     id="metadata844">
    <rdf:RDF>
      <cc:Work
         rdf:about="">
        <dc:format>image/svg+xml</dc:format>
        <dc:type
           rdf:resource="http://purl.org/dc/dcmitype/StillImage" />
        <dc:title></dc:title>
      </cc:Work>
    </rdf:RDF>
  </metadata>
  <g
     inkscape:label="Layer 1"
     inkscape:groupmode="layer"
     id="layer1"
     transform="translate(-32.727465,-37.368602)">
    <g
       id="g2187"
       transform="matrix(0.92903582,0,0,0.92060441,2.3224778,3.9412087)"
       style="stroke-width:1.0813">
      <path
         style="font-variation-settings:normal;opacity:1;vector-effect:none;fill:#000000;fill-opacity:1;stroke:none;stroke-width:0.286094;stroke-linecap:butt;stroke-linejoin:miter;stroke-miterlimit:4;stroke-dasharray:none;stroke-dashoffset:0;stroke-opacity:1;stop-color:#000000;stop-opacity:1"
         d="m 103.92584,194.38124 c 36.47423,0 63.15018,-28.74457 64.97121,-61.47567 1.82103,-32.7311 6.22715,-96.595302 6.22715,-96.595302 h -71.19837 l -5.291662,79.035482 z"
         id="path844"
         sodipodi:nodetypes="cscccc" />
      <path
         style="font-variation-settings:normal;opacity:1;vector-effect:none;fill:#e50000;fill-opacity:1;stroke:none;stroke-width:0.286094;stroke-linecap:butt;stroke-linejoin:miter;stroke-miterlimit:4;stroke-dasharray:none;stroke-dashoffset:0;stroke-opacity:1;stop-color:#000000;stop-opacity:1"
         d="M 103.92583,36.310268 H 32.727465 l 6.22716,96.595302 c 1.82103,32.7311 28.49698,61.47567 64.971215,61.47567 z"
         id="path2204"
         sodipodi:nodetypes="ccccc" />
    </g>
    <g
       id="g1862"
       transform="matrix(0.92903582,0,0,0.92903582,2.3224778,2.5767285)"
       style="stroke-width:1.07638">
      <path
         id="path850"
         style="font-variation-settings:normal;opacity:1;vector-effect:none;fill:#cccccc;fill-opacity:1;stroke:none;stroke-width:1.07638;stroke-linecap:butt;stroke-linejoin:miter;stroke-miterlimit:4;stroke-dasharray:none;stroke-dashoffset:0;stroke-opacity:1;stop-color:#000000;stop-opacity:1"
         d="m 432.82812,156.23828 c -0.99293,-0.007 -2.01305,0.0254 -3.05859,0.10156 -8.72332,0.63578 -15.92613,4.59536 -20.54883,10.21485 -5.11294,-1.15503 -14.29035,-1.15761 -20.88086,12.49414 -3.65505,7.57118 -5.66508,12.13838 -7.51757,16.38867 -12.19729,-6.29705 -27.04345,-14.06874 -31.11915,-16.19922 -6.33375,-3.31083 -9.52341,0.0579 -15.91015,2.46289 -4.9662,1.87012 -7.00937,6.62963 -5.49414,16.85742 1.51523,10.2278 8.22657,19.59151 7.57617,35.41797 -0.6504,15.82647 4.56362,18.45535 8.71289,20.64453 4.3033,2.27047 6.46745,-0.52881 12.12305,-0.18945 5.06091,0.30369 8.99684,-1.10075 12.5,-7.19726 1.97447,-3.43616 10.08079,-19.7781 17.3457,-34.61133 3.73468,1.81395 6.84819,3.26973 8.48047,3.91406 5.54816,2.19009 7.6845,1.33348 10.97266,0.37109 3.28815,-0.96237 5.64171,1.39621 9.25781,-1.14843 2.5143,-1.76931 5.61605,-5.25335 8.89062,-9.98438 3.04783,0.73086 6.28752,1.01672 9.61328,0.78125 l -110.55664,122.72852 24.91016,253.39257 -2.41016,8.30469 c 0,0 4.01785,44.73158 7.5,73.66016 3.48212,28.92858 12.05274,34.01758 12.05274,34.01758 h 27.52637 27.52636 c 0,0 8.57058,-5.089 12.05274,-34.01758 3.48215,-28.92858 7.5,-73.66016 7.5,-73.66016 l -2.41016,-8.30469 c 0,0 26.02217,-355.45507 27.3125,-373.08007 1.29033,-17.625 0.79066,-27.0255 -3.98633,-36.25586 -4.05857,-7.8422 -13.06682,-16.99474 -27.96094,-17.10352 z m -0.98242,16.56055 c 4.94558,-0.18817 8.48924,3.49613 8.7461,7.77929 0.25763,4.29573 -2.80598,8.02001 -6.97071,8.67774 1.05071,-2.88272 1.19785,-5.34025 -0.74218,-9.32227 -1.94004,-3.98201 -5.6543,-5.54492 -5.6543,-5.54492 1.24583,-0.93471 2.80977,-1.52092 4.62109,-1.58984 z m -28.15039,7.22461 c -0.12344,1.62026 -0.0803,3.26726 0.15235,4.92187 0.89523,6.36639 4.36907,11.81721 9.37109,15.66407 -2.35167,2.72134 -4.43917,4.82102 -6.69531,6.85156 0,0 -3.0312,-0.75871 -10.22852,-4.16797 -0.95854,-0.45405 -2.42395,-1.18246 -4.17578,-2.06445 3.10642,-6.4031 5.60523,-11.60204 6.25977,-13.0879 1.84101,-4.17924 3.42728,-6.6279 5.3164,-8.11718 z m -60.49609,9.75976 c 0,0 3.28884,1.8715 13.94336,7.7168 4.75196,2.60703 11.706,6.22539 18.4375,9.64453 -0.81493,1.74355 -1.70319,3.61579 -2.77149,5.80859 -7.19734,14.77348 -18.24414,33.27149 -18.24414,33.27149 -3.13642,-1.9682 -3.97857,-5.68192 -4.16797,-14.20508 -0.1894,-8.52316 -2.36315,-17.74561 -5.87109,-28.03125 -3.50794,-10.28564 -2.45142,-13.19581 -1.32617,-14.20508 z"
         transform="scale(0.26458333)"
         sodipodi:nodetypes="cccscssssssscssscccccscccsccsscsscscscsccscsccscscssc" />
      <path
         id="path2428"
         style="opacity:1;fill:#e50000;fill-opacity:1;stroke:none;stroke-width:0.85438;stroke-linecap:round;stroke-linejoin:round;stroke-miterlimit:4;stroke-dasharray:none"
         d="m 100.83055,126.46314 c -0.0102,-10e-4 -0.0202,-0.002 -0.0305,-0.002 -0.911149,0 -1.649509,0.73836 -1.649511,1.64951 -6e-6,0.91115 0.738358,1.65003 1.649501,1.65003 0.91115,0 1.65003,-0.73888 1.65003,-1.65003 0,-0.42059 -0.15845,-0.80311 -0.41755,-1.0945 l 1.89394,-4.11241 1.89446,4.11292 c -0.25894,0.29136 -0.41754,0.67353 -0.41754,1.09399 0,0.91115 0.73887,1.65003 1.65003,1.65003 0.91115,0 1.64951,-0.73887 1.64951,-1.65003 0,-0.91115 -0.73837,-1.64951 -1.64951,-1.64951 -0.0103,0 -0.0203,0.002 -0.0305,0.002 l -2.36781,-5.14025 2.36781,-5.14025 c 0.0102,1.8e-4 0.0202,0.002 0.0305,0.002 0.91114,0 1.64951,-0.73836 1.64951,-1.64951 0,-0.91116 -0.73836,-1.65003 -1.64951,-1.65003 -0.91116,0 -1.65003,0.73888 -1.65003,1.65003 0,0.42046 0.1586,0.80263 0.41754,1.09399 l -1.89446,4.11292 -1.89394,-4.11241 c 0.2591,-0.29139 0.41755,-0.67391 0.41755,-1.0945 0,-0.91115 -0.73888,-1.65003 -1.65003,-1.65003 h 1e-5 c -0.911155,0 -1.649517,0.73888 -1.649511,1.65003 2e-6,0.91115 0.738362,1.64951 1.649511,1.64951 0.0103,0 0.0203,-0.001 0.0305,-0.002 l 2.36781,5.14025 z"
         sodipodi:nodetypes="csszscccsssscccsssscccsssssccc" />
      <path
         id="path923"
         style="font-variation-settings:normal;opacity:1;vector-effect:none;fill:#ffffff;fill-opacity:1;stroke:none;stroke-width:0.538192;stroke-linecap:butt;stroke-linejoin:miter;stroke-miterlimit:4;stroke-dasharray:none;stroke-dashoffset:0;stroke-opacity:1;stop-color:#000000;stop-opacity:1"
         d="m 432.82812,156.23828 c -0.99293,-0.007 -2.01305,0.0254 -3.05859,0.10156 -8.72535,0.63592 -15.928,4.5974 -20.55078,10.21875 -1.25741,-0.2849 -2.73814,-0.50588 -4.39063,-0.46484 -5.0643,0.12578 -11.51643,2.65626 -16.48828,12.95508 -3.64316,7.54658 -5.67368,12.1476 -7.52148,16.38672 -12.19661,-6.29673 -27.03997,-14.06702 -31.11524,-16.19727 -6.33373,-3.31083 -9.52341,0.0579 -15.91015,2.46289 -4.9662,1.87012 -7.00937,6.62963 -5.49414,16.85742 1.51523,10.2278 8.22657,19.59151 7.57617,35.41797 -0.46974,11.43029 2.12051,15.97673 5.1582,18.44532 1.16833,0.94941 8.15854,5.15578 14.35742,-3.90235 6.19891,-9.05813 15.39184,-26.31109 21.93165,-40.39844 l -1.74024,-0.96679 c -0.80757,1.7269 -1.718,3.63243 -2.77344,5.79882 -7.19734,14.77348 -18.24414,33.27149 -18.24414,33.27149 -2.31064,3.29103 -4.00202,4.83498 -6.48633,5.52148 -2.48428,0.68651 -5.66825,0.82479 -8.33398,-4.29687 -2.66573,-5.12166 -1.24302,-12.33314 -2.12695,-21.17969 -0.88394,-8.84655 -6.35057,-20.47336 -7.19922,-26.72265 -0.84866,-6.24933 -1.24469,-11.73571 1.70117,-13.95899 2.94586,-2.22328 7.56055,-0.91211 7.56055,-0.91211 -0.58769,-1.2567 -2.5722,-1.69585 -3.64649,-2.22266 2.58678,-0.23859 4.69599,0.10247 7.15235,1.10743 -0.52604,-1.48192 -1.71347,-1.97133 -2.70703,-2.75196 2.69674,-0.17711 4.76981,0.58079 6.99218,1.11524 -0.57582,-1.17383 -1.86237,-1.63603 -2.89648,-2.35156 6.80074,0.93245 13.5888,6.26646 21.0664,10.25781 7.47763,3.99134 14.98923,7.86999 19.98633,10.33398 8.72489,4.30211 13.79984,6.98952 19.01367,8.77539 -4.33354,4.7247 -6.96293,4.07764 -9.77539,4.64258 1.29098,0.79131 4.82454,1.6227 8.17188,-0.49609 3.34734,-2.11879 6.01292,-4.79139 9.89453,-9.26172 3.88158,-4.47033 11.04746,-13.26957 13.42774,-19.0293 2.38025,-5.75973 1.43321,-8.22734 0.17187,-9.28711 l -0.84961,0.54688 -1.05664,8.08593 c -0.74438,1.86727 -1.99249,4.31488 -3.70703,6.65235 -2.26671,3.09025 -4.19298,5.59099 -5.94336,7.72851 -7.5336,-5.91657 -8.71952,-14.63729 -6.52734,-22.99609 2.22301,-8.47635 11.90207,-15.00002 22.41211,-15.25 2.76844,-0.11051 5.56421,0.0665 8.26562,0.70313 10.40777,2.06448 19.02816,11.98019 21.33984,21.75 l -0.72851,-8.02344 c 1.81527,2.90935 3.37476,5.68523 4.60156,8.72851 -0.73074,-3.61458 -1.87806,-6.86343 -3.54883,-10.09179 -4.05854,-7.84221 -13.06683,-16.99474 -27.96094,-17.10352 z m -27.14648,11.73633 c 0.89814,0.0306 1.59075,0.17309 2.22656,0.32422 -3.34398,4.85149 -4.89691,10.69876 -4.06054,16.64648 0.89534,6.36718 4.36613,11.82104 9.36914,15.66797 -2.35059,2.72002 -4.43804,4.81786 -6.69336,6.84766 0,0 -3.0312,-0.75871 -10.22852,-4.16797 -2.31408,-1.09614 -7.57277,-3.78194 -13.48633,-6.82813 0.006,-0.0133 3.27208,-7.61782 6.00977,-13.77148 2.74008,-6.15905 6.34209,-12.11859 11.28711,-13.74414 2.47251,-0.81278 4.22518,-1.0207 5.57617,-0.97461 z m 28.71094,3.57812 c 3.9007,1.88973 5.91658,4.31178 6.19922,9.02539 0.26601,4.43636 -2.79882,8.04007 -6.97071,8.67774 l -0.96289,2.23437 c 2.27866,0.14155 4.70964,-0.25102 6.83203,-1.96679 5.48026,-4.43032 3.44551,-10.4573 1.01172,-13.87305 -1.21689,-1.70789 -3.47832,-3.43545 -6.10937,-4.09766 z m 3.67969,30.35938 -4.30079,4.64453 -110.55664,122.72852 24.91016,253.39257 -2.41016,8.30469 c 0,0 4.01785,44.73158 7.5,73.66016 3.48214,28.92858 12.05274,34.01758 12.05274,34.01758 l 0.6914,-1.45899 c -3.16455,-7.21497 -5.82652,-13.41837 -8.59765,-30.29687 -2.77113,-16.8785 -7.59375,-75.55664 -7.59375,-75.55664 h 4 l 2.87304,-9.44336 h -5.40429 L 327.37109,330.64258 c 0,0 104.57216,-118.89103 106.59375,-121.18946 2.0216,-2.29841 5.15376,-6.08279 4.10743,-7.54101 z m -9.125,379.99219 c 0,0 -0.87098,1.15608 -1.60157,5.8125 -0.73058,4.65641 -4.01241,25.6164 -6.46679,40.78515 h -56.16993 c 0,0 -0.91779,5.95226 2.22657,13.00391 3.14436,7.05165 8.46484,10.16602 8.46484,10.16602 4.49727,2.42625 10.2557,3.68554 17.39258,3.68554 16.95609,0 27.04138,-6.66093 30.08203,-20.08984 3.04065,-13.42891 5.79573,-36.36995 6.67383,-40.24805 0.8781,-3.87806 2.27148,-3.67187 2.27148,-3.67187 h 4 l -2.87304,-9.44336 z m -63.05469,51.65039 h 53.80273 c -3.66255,11.6499 -12.84144,16.99804 -26.90234,16.99804 -14.06091,0 -23.23784,-5.34814 -26.90039,-16.99804 z"
         transform="scale(0.26458333)"
         sodipodi:nodetypes="sscsscssssssccccsssssccccccssccssscccscscccccssscsccscssscsccssccccccsccscccccsccsccscsssccccccsc" />
      <path
         id="path1054"
         style="font-variation-settings:normal;opacity:1;vector-effect:none;fill:#808080;fill-opacity:1;stroke:none;stroke-width:0.538193;stroke-linecap:butt;stroke-linejoin:miter;stroke-miterlimit:4;stroke-dasharray:none;stroke-dashoffset:0;stroke-opacity:1;stop-color:#000000;stop-opacity:1"
         d="m 455.06445,168.99023 c 0,0 3.413,5.26818 5.40039,13.73829 1.98743,8.47011 1.03602,16.54008 0.3125,26.61523 -0.0374,0.52155 -0.99229,13.18895 -1.11914,14.89063 l -128.8125,142.99414 0.54102,3.54101 L 459.32031,228.75 c -2.74721,36.76117 -17.96098,238.19265 -26.37304,353.1543 l 2.87304,9.44336 c -1.58521,16.69149 -3.15855,33.38594 -4.89453,50.0625 -2.03286,18.02033 -3.42537,37.04192 -12.46094,53.24804 1.29245,-6.35259 3.07923,-12.45862 3.04102,-19.47656 -1.92643,6.61266 -3.90122,13.21362 -7.22656,19.47656 0.82121,-6.4244 1.66455,-12.81276 1.79101,-20.27929 -1.7317,6.90572 -3.79466,13.72831 -6.94531,20.27929 0.86442,-6.52803 0.91115,-13.26147 0.34766,-20.14648 -1.30432,6.71524 -2.11521,13.43125 -5.10157,20.14648 0.23131,-5.91182 0.28588,-11.99925 -1.18164,-19.32031 -0.70495,6.43975 -1.81822,12.8806 -3.02343,19.32031 -0.84087,-6.13629 -1.04835,-12.67093 -2.24219,-19.50976 l -2.89258,19.50976 c -1.14799,-6.31343 -1.3694,-12.62797 -2.45117,-18.9414 -1.49152,6.31343 -2.06299,12.62797 -2.89063,18.9414 l -2.75781,-19.13086 c -1.22415,6.37656 -1.57934,12.75427 -1.80664,19.13086 -1.48796,-6.16868 -2.25488,-12.28547 -3.72266,-18.9414 -0.50785,6.22454 -0.42422,12.25032 -0.86132,18.9414 -2.90557,-6.31343 -3.45131,-12.62797 -5.01172,-18.9414 -0.60909,6.31343 -0.44561,12.62797 -0.12305,18.9414 -2.55848,-6.72911 -3.51685,-12.66013 -5.17969,-18.9414 -0.62466,6.31343 -0.34148,12.62797 0.0274,18.9414 l -6.05079,-19.13086 c 0.30683,6.3766 1.11663,12.75427 2.4336,19.13086 l -6.08399,-18.20508 c 0.0575,4.38773 2.21254,15.78519 5.40625,20.74805 h 53.85938 c 10.20166,-15.68538 11.57829,-36.65446 13.32031,-52.79883 1.74202,-16.14436 5.08789,-53.25781 5.08789,-53.25781 l -2.30859,-8.3125 c 0,0 26.03245,-355.27394 27.13086,-372.06836 0.73198,-11.19194 1.74136,-21.30053 -0.51563,-28.78515 -2.25698,-7.48463 -3.93833,-9.74714 -7.46875,-12.98829 z m -23.1582,0.34375 c -0.25777,-0.007 -0.51701,-0.004 -0.77539,0.008 -2.4805,0.11017 -4.95422,1.06004 -6.76563,2.86328 -4.45972,4.43961 -3.66755,11.0686 -0.80273,14.20117 l 0.70117,-1.4043 c -2.07146,-4.39645 -1.12264,-9.2525 3.32813,-11.89062 4.84286,-2.87053 10.18212,-1.59874 12.94726,2.58984 -1.05303,-4.12181 -4.76623,-6.26657 -8.63281,-6.36719 z m -24.79297,0.19336 c -2.10584,0.85582 -5.14684,7.69742 -7.68555,12.33204 -2.5387,4.63459 -8.91601,18.56054 -8.91601,18.56054 l 0.96289,0.54883 c 3.1282,-6.43203 4.524,-9.42367 6.14844,-13.11133 1.62443,-3.68765 3.63851,-6.99509 6.17383,-8.83984 0.40589,-3.35844 1.54947,-6.57894 3.3164,-9.49024 z m 19.70899,5.12891 -0.29102,0.85156 c 3.26891,2.73372 7.11658,7.66728 5.19141,13.09961 -1.92518,5.43233 -8.11718,15.40072 -11.66797,19.67188 -3.55079,4.27116 -6.16538,7.41058 -9.72071,6.79297 -3.55528,-0.61762 -5.31014,-0.26218 -9.33984,0.52148 -4.02969,0.78366 -7.6812,-2.18662 -19.74609,-8.04883 -12.06487,-5.8622 -29.48389,-15.41382 -35.32617,-18.70312 -5.84231,-3.28931 -9.79864,-4.2907 -14.83204,-2.82032 0,0 3.80768,-0.56405 7.78516,0.95118 0,0 -4.16676,-0.56872 -7.00781,1.79882 -2.84105,2.36755 -1.23242,5.5879 -1.23242,5.5879 0.25246,-1.69624 0.79659,-3.25211 1.96093,-4.38477 -0.43965,1.68247 -0.35526,2.89047 0.13672,4.07812 0.37783,-1.94701 0.67528,-4.22044 3.07227,-5.77343 -1.06099,1.65579 -1.32893,3.37988 -0.50196,4.56836 0.53667,-2.0768 1.16302,-4.17735 3.47852,-4.80664 -0.84219,1.47068 -1.63098,2.52659 -1.15234,3.95117 1.23599,-2.87525 2.85526,-3.97315 4.24414,-3.53321 -1.13479,1.01347 -2.40699,2.08362 -1.76172,6.37891 0.64527,4.29529 4.72479,14.509 6.2832,22.74023 1.96092,7.0726 1.80928,14.4351 2.49219,21.67188 0.22189,3.34927 1.75022,6.52976 4.33984,8.5918 l 0.8711,-0.9668 c -3.83236,-2.65537 -4.36335,-6.33231 -4.55274,-14.85547 -0.1894,-8.52316 -1.39124,-15.34717 -5.24023,-26.63281 -3.84899,-11.28564 -3.36814,-14.78486 -1.20117,-16.45703 0,0 3.9529,2.15665 14.60742,8.00195 10.65452,5.8453 31.30336,16.3724 36.85156,18.5625 5.54816,2.19009 7.96966,1.61864 11.25781,0.65625 3.28815,-0.96237 5.64173,1.39621 9.25781,-1.14844 3.61611,-2.54464 7.96373,-7.90931 12.78516,-16.21289 2.30249,-3.96549 3.99072,-6.80823 4.95117,-9.44336 1.05083,-2.88271 1.25296,-5.01225 -0.22461,-8.30273 -1.47756,-3.29048 -3.56721,-5.21319 -5.76757,-6.38672 z m -1.14063,1.39844 c -1.14992,1.40116 -1.76176,3.39625 -1.63476,5.51562 0.0544,0.90771 0.25928,1.76946 0.57812,2.57031 2.03754,-5.11137 1.05664,-8.08593 1.05664,-8.08593 z m 12.39063,25.85742 c -3.48322,1.43119 -8.15668,1.72441 -12.46289,1.72266 l -0.78516,1.18945 c 3.25805,0.63698 7.11359,0.71064 10.27148,0.30273 z m -53.20704,9.89258 c -3.65499,7.49525 -7.53389,14.97088 -11.22851,22.44726 -2.93917,5.22387 -4.86939,11.18207 -8.94336,15.67188 -3.54316,3.88671 -9.32942,1.53033 -12.80078,2.86328 -3.47136,1.33295 -5.05088,1.64761 -6.73633,1.45508 3.8298,1.79695 5.99284,-0.90773 11.64844,-0.56836 5.06091,0.30368 8.81365,-1.34296 11.74219,-6.43945 1.66107,-2.89079 9.98214,-19.83453 17.3789,-34.91016 z m -28.22461,370.09961 -2.87304,9.44336 c 0,0 1.39338,-0.20619 2.27148,3.67187 0.8781,3.8781 3.63319,26.81914 6.67383,40.24805 1.76083,7.7766 6.49997,13.06614 12.6875,16.4043 -7.72861,-6.92308 -8.78859,-13.24621 -10.69141,-23.16993 -2.45438,-15.16875 -5.73621,-36.12874 -6.46679,-40.78515 -0.73059,-4.65642 -1.60156,-5.8125 -1.60157,-5.8125 z m 9.94922,53.60547 c 0.30242,0.76845 0.62991,1.50592 0.98633,2.21289 h 50.43555 c 0.35644,-0.70695 0.6839,-1.44445 0.98633,-2.21289 z"
         transform="scale(0.26458333)"
         sodipodi:nodetypes="csscccccccccccccccccccccccccccccccccsccsscccsccscccsccsccccssssssccsccccccccsccccsscssssscsccsccccccccccscssccccssccscccccc" />
      <path
         id="path1303"
         style="color:#000000;font-style:normal;font-variant:normal;font-weight:normal;font-stretch:normal;font-size:medium;line-height:normal;font-family:sans-serif;font-variant-ligatures:normal;font-variant-position:normal;font-variant-caps:normal;font-variant-numeric:normal;font-variant-alternates:normal;font-variant-east-asian:normal;font-feature-settings:normal;font-variation-settings:normal;text-indent:0;text-align:start;text-decoration:none;text-decoration-line:none;text-decoration-style:solid;text-decoration-color:#000000;letter-spacing:normal;word-spacing:normal;text-transform:none;writing-mode:lr-tb;direction:ltr;text-orientation:mixed;dominant-baseline:auto;baseline-shift:baseline;text-anchor:start;white-space:normal;shape-padding:0;shape-margin:0;inline-size:0;clip-rule:nonzero;display:inline;overflow:visible;visibility:visible;opacity:1;isolation:auto;mix-blend-mode:normal;color-interpolation:sRGB;color-interpolation-filters:linearRGB;solid-color:#000000;solid-opacity:1;vector-effect:none;fill:#000000;fill-opacity:1;fill-rule:nonzero;stroke:none;stroke-width:4.06823;stroke-linecap:round;stroke-linejoin:miter;stroke-miterlimit:4;stroke-dasharray:none;stroke-dashoffset:0;stroke-opacity:1;color-rendering:auto;image-rendering:auto;shape-rendering:auto;text-rendering:auto;enable-background:accumulate;stop-color:#000000;stop-opacity:1"
         d="m 395.60547,278.74023 c -2.27934,10e-6 -4.1253,1.77258 -4.2832,4.01172 -0.007,0.10172 -0.0312,0.1992 -0.0312,0.30274 v 357.84179 c 7.9e-4,0.82727 0.67273,1.49722 1.5,1.49805 0.83017,0.003 1.50506,-0.66787 1.50586,-1.49805 V 287.14453 c 0.41549,0.13317 0.84887,0.22461 1.30859,0.22461 2.38288,0 4.31641,-1.93159 4.31641,-4.31445 -10e-6,-2.38287 -1.93353,-4.31445 -4.31641,-4.31446 z"
         transform="scale(0.26458333)" />
      <path
         id="path1366"
         style="opacity:1;fill:#000000;stroke:none;stroke-width:3.22915;stroke-linecap:round;stroke-linejoin:round;stroke-miterlimit:4;stroke-dasharray:none"
         d="m 370.05469,307.10352 c -2.24595,0 -4.0688,1.72356 -4.27344,3.91601 -0.029,0.12855 -0.0475,0.26239 -0.041,0.40039 l 15.83008,329.54688 c 0.0412,0.82628 0.74201,1.46467 1.56836,1.42578 0.82938,-0.0378 1.47069,-0.73913 1.43164,-1.56836 L 368.94727,315.57227 c 0.35556,0.0948 0.72198,0.1621 1.10742,0.16211 2.38288,-10e-6 4.31445,-1.93159 4.31445,-4.31446 0,-2.38286 -1.93157,-4.3164 -4.31445,-4.3164 z"
         transform="scale(0.26458333)" />
      <path
         id="path1370"
         style="opacity:1;fill:#000000;stroke:none;stroke-width:3.22915;stroke-linecap:round;stroke-linejoin:round;stroke-miterlimit:4;stroke-dasharray:none"
         d="m 344.25,335.47656 c -0.28617,0.0172 -0.57557,0.0635 -0.86328,0.14063 -1.7628,0.47234 -2.96739,1.97196 -3.16211,3.68164 -0.0353,0.15561 -0.0526,0.31687 -0.0352,0.48437 l 0.0117,0.10938 c 0.004,0.1681 0.0281,0.3363 0.0527,0.50586 l 31.56836,300.35547 c 0.0881,0.82257 0.82368,1.41771 1.64648,1.33203 0.8259,-0.0847 1.42782,-0.82081 1.3418,-1.64649 L 343.65234,343.99609 c 0.63362,0.12878 1.29984,0.13379 1.9668,-0.0449 2.30168,-0.61673 3.66751,-2.98153 3.05078,-5.2832 -0.53964,-2.01396 -2.41671,-3.31166 -4.41992,-3.19141 z"
         transform="scale(0.26458333)" />
      <path
         id="path1461"
         style="opacity:1;fill:#000000;stroke:none;stroke-width:3.22915;stroke-linecap:round;stroke-linejoin:round;stroke-miterlimit:4;stroke-dasharray:none"
         d="m 446.70898,222.00977 c -2.38287,0 -4.31445,1.93159 -4.31445,4.31445 l -31.50391,414.1582 c -0.0627,0.82485 0.55606,1.54385 1.38086,1.60742 0.82738,0.0684 1.55144,-0.55318 1.61524,-1.38086 l 31.2168,-410.38671 c 0.49696,0.19973 1.03706,0.3164 1.60546,0.3164 2.38288,0 4.31446,-1.93159 4.31446,-4.31445 0,-2.38286 -1.93158,-4.31445 -4.31446,-4.31445 z"
         transform="scale(0.26458333)" />
      <path
         id="path1463"
         style="opacity:1;fill:#000000;stroke:none;stroke-width:3.22915;stroke-linecap:round;stroke-linejoin:round;stroke-miterlimit:4;stroke-dasharray:none"
         d="m 421.1582,250.375 c -2.38288,0 -4.31445,1.93159 -4.31445,4.31445 l -15.8457,386.13282 c -0.034,0.82654 0.60904,1.52386 1.43554,1.55859 0.82927,0.0393 1.53156,-0.60617 1.56641,-1.43555 l 15.68555,-382.21679 c 0.46136,0.16836 0.95302,0.27539 1.47265,0.27539 2.38288,-1e-5 4.31446,-1.93159 4.31446,-4.31446 0,-2.38286 -1.93158,-4.31445 -4.31446,-4.31445 z"
         transform="scale(0.26458333)" />
    </g>
    <g
       id="g2224"
       transform="matrix(0.85262965,-0.04468443,0.04468443,0.85262965,-30.730971,10.036873)"
       style="stroke-width:1.17124">
      <path
         id="path2206"
         style="font-variation-settings:normal;opacity:1;vector-effect:none;fill:#cccccc;fill-opacity:1;stroke:none;stroke-width:1.17124;stroke-linecap:butt;stroke-linejoin:miter;stroke-miterlimit:4;stroke-dasharray:none;stroke-dashoffset:0;stroke-opacity:1;stop-color:#000000;stop-opacity:1"
         d="m 432.82812,156.23828 c -0.99293,-0.007 -2.01305,0.0254 -3.05859,0.10156 -8.72332,0.63578 -15.92613,4.59536 -20.54883,10.21485 -5.11294,-1.15503 -14.29035,-1.15761 -20.88086,12.49414 -3.65505,7.57118 -5.66508,12.13838 -7.51757,16.38867 -12.19729,-6.29705 -27.04345,-14.06874 -31.11915,-16.19922 -6.33375,-3.31083 -9.52341,0.0579 -15.91015,2.46289 -4.9662,1.87012 -7.00937,6.62963 -5.49414,16.85742 1.51523,10.2278 8.22657,19.59151 7.57617,35.41797 -0.6504,15.82647 4.56362,18.45535 8.71289,20.64453 4.3033,2.27047 6.46745,-0.52881 12.12305,-0.18945 5.06091,0.30369 8.99684,-1.10075 12.5,-7.19726 1.97447,-3.43616 10.08079,-19.7781 17.3457,-34.61133 3.73468,1.81395 6.84819,3.26973 8.48047,3.91406 5.54816,2.19009 7.6845,1.33348 10.97266,0.37109 3.28815,-0.96237 5.64171,1.39621 9.25781,-1.14843 2.5143,-1.76931 5.61605,-5.25335 8.89062,-9.98438 3.04783,0.73086 6.28752,1.01672 9.61328,0.78125 l -110.55664,122.72852 24.91016,253.39257 -2.41016,8.30469 c 0,0 4.01785,44.73158 7.5,73.66016 3.48212,28.92858 12.05274,34.01758 12.05274,34.01758 h 27.52637 27.52636 c 0,0 8.57058,-5.089 12.05274,-34.01758 3.48215,-28.92858 7.5,-73.66016 7.5,-73.66016 l -2.41016,-8.30469 c 0,0 26.02217,-355.45507 27.3125,-373.08007 1.29033,-17.625 0.79066,-27.0255 -3.98633,-36.25586 -4.05857,-7.8422 -13.06682,-16.99474 -27.96094,-17.10352 z m -0.98242,16.56055 c 4.94558,-0.18817 8.48924,3.49613 8.7461,7.77929 0.25763,4.29573 -2.80598,8.02001 -6.97071,8.67774 1.05071,-2.88272 1.19785,-5.34025 -0.74218,-9.32227 -1.94004,-3.98201 -5.6543,-5.54492 -5.6543,-5.54492 1.24583,-0.93471 2.80977,-1.52092 4.62109,-1.58984 z m -28.15039,7.22461 c -0.12344,1.62026 -0.0803,3.26726 0.15235,4.92187 0.89523,6.36639 4.36907,11.81721 9.37109,15.66407 -2.35167,2.72134 -4.43917,4.82102 -6.69531,6.85156 0,0 -3.0312,-0.75871 -10.22852,-4.16797 -0.95854,-0.45405 -2.42395,-1.18246 -4.17578,-2.06445 3.10642,-6.4031 5.60523,-11.60204 6.25977,-13.0879 1.84101,-4.17924 3.42728,-6.6279 5.3164,-8.11718 z m -60.49609,9.75976 c 0,0 3.28884,1.8715 13.94336,7.7168 4.75196,2.60703 11.706,6.22539 18.4375,9.64453 -0.81493,1.74355 -1.70319,3.61579 -2.77149,5.80859 -7.19734,14.77348 -18.24414,33.27149 -18.24414,33.27149 -3.13642,-1.9682 -3.97857,-5.68192 -4.16797,-14.20508 -0.1894,-8.52316 -2.36315,-17.74561 -5.87109,-28.03125 -3.50794,-10.28564 -2.45142,-13.19581 -1.32617,-14.20508 z"
         transform="scale(0.26458333)"
         sodipodi:nodetypes="cccscssssssscssscccccscccsccsscsscscscsccscsccscscssc" />
      <path
         id="path2208"
         style="opacity:1;fill:#e50000;fill-opacity:1;stroke:none;stroke-width:0.929667;stroke-linecap:round;stroke-linejoin:round;stroke-miterlimit:4;stroke-dasharray:none"
         d="m 100.80005,112.8851 c -0.911155,0 -1.649517,0.73888 -1.649511,1.65003 2e-6,0.91115 0.738362,1.64951 1.649511,1.64951 0.0103,0 0.0203,-0.001 0.0305,-0.002 l 2.36781,5.14025 -1.83864,3.99149 c -0.0102,-1.9e-4 -0.0202,-0.002 -0.0305,-0.002 -0.91115,0 -1.649512,0.73836 -1.649515,1.64951 3e-6,0.91115 0.738365,1.65003 1.649515,1.65003 0.91115,0 1.65002,-0.73888 1.65002,-1.65003 0,-0.42051 -0.15854,-0.80314 -0.41754,-1.0945 l 1.36477,-2.96313 1.36529,2.96313 c -0.259,0.29136 -0.41754,0.67399 -0.41754,1.0945 0,0.91115 0.73888,1.65003 1.65003,1.65003 0.91115,0 1.64951,-0.73888 1.64951,-1.65003 0,-0.91115 -0.73836,-1.64951 -1.64951,-1.64951 -0.0103,0 -0.0203,10e-4 -0.0305,0.002 l -1.83865,-3.99149 2.36781,-5.14025 c 0.0102,1.8e-4 0.0202,0.002 0.0305,0.002 0.91114,0 1.64951,-0.73836 1.64951,-1.64951 0,-0.91116 -0.73836,-1.65003 -1.64951,-1.65003 -0.91116,0 -1.65003,0.73888 -1.65003,1.65003 0,0.42046 0.1586,0.80263 0.41754,1.09399 l -1.89446,4.11292 -1.89394,-4.11241 c 0.2591,-0.29139 0.41755,-0.67391 0.41755,-1.0945 0,-0.91115 -0.73888,-1.65003 -1.65003,-1.65003 z" />
      <path
         id="path2210"
         style="font-variation-settings:normal;opacity:1;vector-effect:none;fill:#ffffff;fill-opacity:1;stroke:none;stroke-width:0.585618;stroke-linecap:butt;stroke-linejoin:miter;stroke-miterlimit:4;stroke-dasharray:none;stroke-dashoffset:0;stroke-opacity:1;stop-color:#000000;stop-opacity:1"
         d="m 432.82812,156.23828 c -0.99293,-0.007 -2.01305,0.0254 -3.05859,0.10156 -8.72535,0.63592 -15.928,4.5974 -20.55078,10.21875 -1.25741,-0.2849 -2.73814,-0.50588 -4.39063,-0.46484 -5.0643,0.12578 -11.51643,2.65626 -16.48828,12.95508 -3.64316,7.54658 -5.67368,12.1476 -7.52148,16.38672 -12.19661,-6.29673 -27.03997,-14.06702 -31.11524,-16.19727 -6.33373,-3.31083 -9.52341,0.0579 -15.91015,2.46289 -4.9662,1.87012 -7.00937,6.62963 -5.49414,16.85742 1.51523,10.2278 8.22657,19.59151 7.57617,35.41797 -0.46974,11.43029 2.12051,15.97673 5.1582,18.44532 1.16833,0.94941 8.15854,5.15578 14.35742,-3.90235 6.19891,-9.05813 15.39184,-26.31109 21.93165,-40.39844 l -1.74024,-0.96679 c -0.80757,1.7269 -1.718,3.63243 -2.77344,5.79882 -7.19734,14.77348 -18.24414,33.27149 -18.24414,33.27149 -2.31064,3.29103 -4.00202,4.83498 -6.48633,5.52148 -2.48428,0.68651 -5.66825,0.82479 -8.33398,-4.29687 -2.66573,-5.12166 -1.24302,-12.33314 -2.12695,-21.17969 -0.88394,-8.84655 -6.35057,-20.47336 -7.19922,-26.72265 -0.84866,-6.24933 -1.24469,-11.73571 1.70117,-13.95899 2.94586,-2.22328 7.56055,-0.91211 7.56055,-0.91211 -0.58769,-1.2567 -2.5722,-1.69585 -3.64649,-2.22266 2.58678,-0.23859 4.69599,0.10247 7.15235,1.10743 -0.52604,-1.48192 -1.71347,-1.97133 -2.70703,-2.75196 2.69674,-0.17711 4.76981,0.58079 6.99218,1.11524 -0.57582,-1.17383 -1.86237,-1.63603 -2.89648,-2.35156 6.80074,0.93245 13.5888,6.26646 21.0664,10.25781 7.47763,3.99134 14.98923,7.86999 19.98633,10.33398 8.72489,4.30211 13.79984,6.98952 19.01367,8.77539 -4.33354,4.7247 -6.96293,4.07764 -9.77539,4.64258 1.29098,0.79131 4.82454,1.6227 8.17188,-0.49609 3.34734,-2.11879 6.01292,-4.79139 9.89453,-9.26172 3.88158,-4.47033 11.04746,-13.26957 13.42774,-19.0293 2.38025,-5.75973 1.43321,-8.22734 0.17187,-9.28711 l -0.84961,0.54688 -1.05664,8.08593 c -0.74438,1.86727 -1.99249,4.31488 -3.70703,6.65235 -2.26671,3.09025 -4.19298,5.59099 -5.94336,7.72851 -7.5336,-5.91657 -8.71952,-14.63729 -6.52734,-22.99609 2.22301,-8.47635 11.90207,-15.00002 22.41211,-15.25 2.76844,-0.11051 5.56421,0.0665 8.26562,0.70313 10.40777,2.06448 19.02816,11.98019 21.33984,21.75 l -0.72851,-8.02344 c 1.81527,2.90935 3.37476,5.68523 4.60156,8.72851 -0.73074,-3.61458 -1.87806,-6.86343 -3.54883,-10.09179 -4.05854,-7.84221 -13.06683,-16.99474 -27.96094,-17.10352 z m -27.14648,11.73633 c 0.89814,0.0306 1.59075,0.17309 2.22656,0.32422 -3.34398,4.85149 -4.89691,10.69876 -4.06054,16.64648 0.89534,6.36718 4.36613,11.82104 9.36914,15.66797 -2.35059,2.72002 -4.43804,4.81786 -6.69336,6.84766 0,0 -3.0312,-0.75871 -10.22852,-4.16797 -2.31408,-1.09614 -7.57277,-3.78194 -13.48633,-6.82813 0.006,-0.0133 3.27208,-7.61782 6.00977,-13.77148 2.74008,-6.15905 6.34209,-12.11859 11.28711,-13.74414 2.47251,-0.81278 4.22518,-1.0207 5.57617,-0.97461 z m 28.71094,3.57812 c 3.9007,1.88973 5.91658,4.31178 6.19922,9.02539 0.26601,4.43636 -2.79882,8.04007 -6.97071,8.67774 l -0.96289,2.23437 c 2.27866,0.14155 4.70964,-0.25102 6.83203,-1.96679 5.48026,-4.43032 3.44551,-10.4573 1.01172,-13.87305 -1.21689,-1.70789 -3.47832,-3.43545 -6.10937,-4.09766 z m 3.67969,30.35938 -4.30079,4.64453 -110.55664,122.72852 24.91016,253.39257 -2.41016,8.30469 c 0,0 4.01785,44.73158 7.5,73.66016 3.48214,28.92858 12.05274,34.01758 12.05274,34.01758 l 0.6914,-1.45899 c -3.16455,-7.21497 -5.82652,-13.41837 -8.59765,-30.29687 -2.77113,-16.8785 -7.59375,-75.55664 -7.59375,-75.55664 h 4 l 2.87304,-9.44336 h -5.40429 L 327.37109,330.64258 c 0,0 104.57216,-118.89103 106.59375,-121.18946 2.0216,-2.29841 5.15376,-6.08279 4.10743,-7.54101 z m -9.125,379.99219 c 0,0 -0.87098,1.15608 -1.60157,5.8125 -0.73058,4.65641 -4.01241,25.6164 -6.46679,40.78515 h -56.16993 c 0,0 -0.91779,5.95226 2.22657,13.00391 3.14436,7.05165 8.46484,10.16602 8.46484,10.16602 4.49727,2.42625 10.2557,3.68554 17.39258,3.68554 16.95609,0 27.04138,-6.66093 30.08203,-20.08984 3.04065,-13.42891 5.79573,-36.36995 6.67383,-40.24805 0.8781,-3.87806 2.27148,-3.67187 2.27148,-3.67187 h 4 l -2.87304,-9.44336 z m -63.05469,51.65039 h 53.80273 c -3.66255,11.6499 -12.84144,16.99804 -26.90234,16.99804 -14.06091,0 -23.23784,-5.34814 -26.90039,-16.99804 z"
         transform="scale(0.26458333)"
         sodipodi:nodetypes="sscsscssssssccccsssssccccccssccssscccscscccccssscsccscssscsccssccccccsccscccccsccsccscsssccccccsc" />
      <path
         id="path2212"
         style="font-variation-settings:normal;opacity:1;vector-effect:none;fill:#808080;fill-opacity:1;stroke:none;stroke-width:0.585619;stroke-linecap:butt;stroke-linejoin:miter;stroke-miterlimit:4;stroke-dasharray:none;stroke-dashoffset:0;stroke-opacity:1;stop-color:#000000;stop-opacity:1"
         d="m 455.06445,168.99023 c 0,0 3.413,5.26818 5.40039,13.73829 1.98743,8.47011 1.03602,16.54008 0.3125,26.61523 -0.0374,0.52155 -0.99229,13.18895 -1.11914,14.89063 l -128.8125,142.99414 0.54102,3.54101 L 459.32031,228.75 c -2.74721,36.76117 -17.96098,238.19265 -26.37304,353.1543 l 2.87304,9.44336 c -1.58521,16.69149 -3.15855,33.38594 -4.89453,50.0625 -2.03286,18.02033 -3.42537,37.04192 -12.46094,53.24804 1.29245,-6.35259 3.07923,-12.45862 3.04102,-19.47656 -1.92643,6.61266 -3.90122,13.21362 -7.22656,19.47656 0.82121,-6.4244 1.66455,-12.81276 1.79101,-20.27929 -1.7317,6.90572 -3.79466,13.72831 -6.94531,20.27929 0.86442,-6.52803 0.91115,-13.26147 0.34766,-20.14648 -1.30432,6.71524 -2.11521,13.43125 -5.10157,20.14648 0.23131,-5.91182 0.28588,-11.99925 -1.18164,-19.32031 -0.70495,6.43975 -1.81822,12.8806 -3.02343,19.32031 -0.84087,-6.13629 -1.04835,-12.67093 -2.24219,-19.50976 l -2.89258,19.50976 c -1.14799,-6.31343 -1.3694,-12.62797 -2.45117,-18.9414 -1.49152,6.31343 -2.06299,12.62797 -2.89063,18.9414 l -2.75781,-19.13086 c -1.22415,6.37656 -1.57934,12.75427 -1.80664,19.13086 -1.48796,-6.16868 -2.25488,-12.28547 -3.72266,-18.9414 -0.50785,6.22454 -0.42422,12.25032 -0.86132,18.9414 -2.90557,-6.31343 -3.45131,-12.62797 -5.01172,-18.9414 -0.60909,6.31343 -0.44561,12.62797 -0.12305,18.9414 -2.55848,-6.72911 -3.51685,-12.66013 -5.17969,-18.9414 -0.62466,6.31343 -0.34148,12.62797 0.0274,18.9414 l -6.05079,-19.13086 c 0.30683,6.3766 1.11663,12.75427 2.4336,19.13086 l -6.08399,-18.20508 c 0.0575,4.38773 2.21254,15.78519 5.40625,20.74805 h 53.85938 c 10.20166,-15.68538 11.57829,-36.65446 13.32031,-52.79883 1.74202,-16.14436 5.08789,-53.25781 5.08789,-53.25781 l -2.30859,-8.3125 c 0,0 26.03245,-355.27394 27.13086,-372.06836 0.73198,-11.19194 1.74136,-21.30053 -0.51563,-28.78515 -2.25698,-7.48463 -3.93833,-9.74714 -7.46875,-12.98829 z m -23.1582,0.34375 c -0.25777,-0.007 -0.51701,-0.004 -0.77539,0.008 -2.4805,0.11017 -4.95422,1.06004 -6.76563,2.86328 -4.45972,4.43961 -3.66755,11.0686 -0.80273,14.20117 l 0.70117,-1.4043 c -2.07146,-4.39645 -1.12264,-9.2525 3.32813,-11.89062 4.84286,-2.87053 10.18212,-1.59874 12.94726,2.58984 -1.05303,-4.12181 -4.76623,-6.26657 -8.63281,-6.36719 z m -24.79297,0.19336 c -2.10584,0.85582 -5.14684,7.69742 -7.68555,12.33204 -2.5387,4.63459 -8.91601,18.56054 -8.91601,18.56054 l 0.96289,0.54883 c 3.1282,-6.43203 4.524,-9.42367 6.14844,-13.11133 1.62443,-3.68765 3.63851,-6.99509 6.17383,-8.83984 0.40589,-3.35844 1.54947,-6.57894 3.3164,-9.49024 z m 19.70899,5.12891 -0.29102,0.85156 c 3.26891,2.73372 7.11658,7.66728 5.19141,13.09961 -1.92518,5.43233 -8.11718,15.40072 -11.66797,19.67188 -3.55079,4.27116 -6.16538,7.41058 -9.72071,6.79297 -3.55528,-0.61762 -5.31014,-0.26218 -9.33984,0.52148 -4.02969,0.78366 -7.6812,-2.18662 -19.74609,-8.04883 -12.06487,-5.8622 -29.48389,-15.41382 -35.32617,-18.70312 -5.84231,-3.28931 -9.79864,-4.2907 -14.83204,-2.82032 0,0 3.80768,-0.56405 7.78516,0.95118 0,0 -4.16676,-0.56872 -7.00781,1.79882 -2.84105,2.36755 -1.23242,5.5879 -1.23242,5.5879 0.25246,-1.69624 0.79659,-3.25211 1.96093,-4.38477 -0.43965,1.68247 -0.35526,2.89047 0.13672,4.07812 0.37783,-1.94701 0.67528,-4.22044 3.07227,-5.77343 -1.06099,1.65579 -1.32893,3.37988 -0.50196,4.56836 0.53667,-2.0768 1.16302,-4.17735 3.47852,-4.80664 -0.84219,1.47068 -1.63098,2.52659 -1.15234,3.95117 1.23599,-2.87525 2.85526,-3.97315 4.24414,-3.53321 -1.13479,1.01347 -2.40699,2.08362 -1.76172,6.37891 0.64527,4.29529 4.72479,14.509 6.2832,22.74023 1.96092,7.0726 1.80928,14.4351 2.49219,21.67188 0.22189,3.34927 1.75022,6.52976 4.33984,8.5918 l 0.8711,-0.9668 c -3.83236,-2.65537 -4.36335,-6.33231 -4.55274,-14.85547 -0.1894,-8.52316 -1.39124,-15.34717 -5.24023,-26.63281 -3.84899,-11.28564 -3.36814,-14.78486 -1.20117,-16.45703 0,0 3.9529,2.15665 14.60742,8.00195 10.65452,5.8453 31.30336,16.3724 36.85156,18.5625 5.54816,2.19009 7.96966,1.61864 11.25781,0.65625 3.28815,-0.96237 5.64173,1.39621 9.25781,-1.14844 3.61611,-2.54464 7.96373,-7.90931 12.78516,-16.21289 2.30249,-3.96549 3.99072,-6.80823 4.95117,-9.44336 1.05083,-2.88271 1.25296,-5.01225 -0.22461,-8.30273 -1.47756,-3.29048 -3.56721,-5.21319 -5.76757,-6.38672 z m -1.14063,1.39844 c -1.14992,1.40116 -1.76176,3.39625 -1.63476,5.51562 0.0544,0.90771 0.25928,1.76946 0.57812,2.57031 2.03754,-5.11137 1.05664,-8.08593 1.05664,-8.08593 z m 12.39063,25.85742 c -3.48322,1.43119 -8.15668,1.72441 -12.46289,1.72266 l -0.78516,1.18945 c 3.25805,0.63698 7.11359,0.71064 10.27148,0.30273 z m -53.20704,9.89258 c -3.65499,7.49525 -7.53389,14.97088 -11.22851,22.44726 -2.93917,5.22387 -4.86939,11.18207 -8.94336,15.67188 -3.54316,3.88671 -9.32942,1.53033 -12.80078,2.86328 -3.47136,1.33295 -5.05088,1.64761 -6.73633,1.45508 3.8298,1.79695 5.99284,-0.90773 11.64844,-0.56836 5.06091,0.30368 8.81365,-1.34296 11.74219,-6.43945 1.66107,-2.89079 9.98214,-19.83453 17.3789,-34.91016 z m -28.22461,370.09961 -2.87304,9.44336 c 0,0 1.39338,-0.20619 2.27148,3.67187 0.8781,3.8781 3.63319,26.81914 6.67383,40.24805 1.76083,7.7766 6.49997,13.06614 12.6875,16.4043 -7.72861,-6.92308 -8.78859,-13.24621 -10.69141,-23.16993 -2.45438,-15.16875 -5.73621,-36.12874 -6.46679,-40.78515 -0.73059,-4.65642 -1.60156,-5.8125 -1.60157,-5.8125 z m 9.94922,53.60547 c 0.30242,0.76845 0.62991,1.50592 0.98633,2.21289 h 50.43555 c 0.35644,-0.70695 0.6839,-1.44445 0.98633,-2.21289 z"
         transform="scale(0.26458333)"
         sodipodi:nodetypes="csscccccccccccccccccccccccccccccccccsccsscccsccscccsccsccccssssssccsccccccccsccccsscssssscsccsccccccccccscssccccssccscccccc" />
      <path
         id="path2214"
         style="color:#000000;font-style:normal;font-variant:normal;font-weight:normal;font-stretch:normal;font-size:medium;line-height:normal;font-family:sans-serif;font-variant-ligatures:normal;font-variant-position:normal;font-variant-caps:normal;font-variant-numeric:normal;font-variant-alternates:normal;font-variant-east-asian:normal;font-feature-settings:normal;font-variation-settings:normal;text-indent:0;text-align:start;text-decoration:none;text-decoration-line:none;text-decoration-style:solid;text-decoration-color:#000000;letter-spacing:normal;word-spacing:normal;text-transform:none;writing-mode:lr-tb;direction:ltr;text-orientation:mixed;dominant-baseline:auto;baseline-shift:baseline;text-anchor:start;white-space:normal;shape-padding:0;shape-margin:0;inline-size:0;clip-rule:nonzero;display:inline;overflow:visible;visibility:visible;opacity:1;isolation:auto;mix-blend-mode:normal;color-interpolation:sRGB;color-interpolation-filters:linearRGB;solid-color:#000000;solid-opacity:1;vector-effect:none;fill:#000000;fill-opacity:1;fill-rule:nonzero;stroke:none;stroke-width:4.42672;stroke-linecap:round;stroke-linejoin:miter;stroke-miterlimit:4;stroke-dasharray:none;stroke-dashoffset:0;stroke-opacity:1;color-rendering:auto;image-rendering:auto;shape-rendering:auto;text-rendering:auto;enable-background:accumulate;stop-color:#000000;stop-opacity:1"
         d="m 395.60547,278.74023 c -2.27934,10e-6 -4.1253,1.77258 -4.2832,4.01172 -0.007,0.10172 -0.0312,0.1992 -0.0312,0.30274 v 357.84179 c 7.9e-4,0.82727 0.67273,1.49722 1.5,1.49805 0.83017,0.003 1.50506,-0.66787 1.50586,-1.49805 V 287.14453 c 0.41549,0.13317 0.84887,0.22461 1.30859,0.22461 2.38288,0 4.31641,-1.93159 4.31641,-4.31445 -10e-6,-2.38287 -1.93353,-4.31445 -4.31641,-4.31446 z"
         transform="scale(0.26458333)" />
      <path
         id="path2216"
         style="opacity:1;fill:#000000;stroke:none;stroke-width:3.51371;stroke-linecap:round;stroke-linejoin:round;stroke-miterlimit:4;stroke-dasharray:none"
         d="m 370.05469,307.10352 c -2.24595,0 -4.0688,1.72356 -4.27344,3.91601 -0.029,0.12855 -0.0475,0.26239 -0.041,0.40039 l 15.83008,329.54688 c 0.0412,0.82628 0.74201,1.46467 1.56836,1.42578 0.82938,-0.0378 1.47069,-0.73913 1.43164,-1.56836 L 368.94727,315.57227 c 0.35556,0.0948 0.72198,0.1621 1.10742,0.16211 2.38288,-10e-6 4.31445,-1.93159 4.31445,-4.31446 0,-2.38286 -1.93157,-4.3164 -4.31445,-4.3164 z"
         transform="scale(0.26458333)" />
      <path
         id="path2218"
         style="opacity:1;fill:#000000;stroke:none;stroke-width:3.51371;stroke-linecap:round;stroke-linejoin:round;stroke-miterlimit:4;stroke-dasharray:none"
         d="m 344.25,335.47656 c -0.28617,0.0172 -0.57557,0.0635 -0.86328,0.14063 -1.7628,0.47234 -2.96739,1.97196 -3.16211,3.68164 -0.0353,0.15561 -0.0526,0.31687 -0.0352,0.48437 l 0.0117,0.10938 c 0.004,0.1681 0.0281,0.3363 0.0527,0.50586 l 31.56836,300.35547 c 0.0881,0.82257 0.82368,1.41771 1.64648,1.33203 0.8259,-0.0847 1.42782,-0.82081 1.3418,-1.64649 L 343.65234,343.99609 c 0.63362,0.12878 1.29984,0.13379 1.9668,-0.0449 2.30168,-0.61673 3.66751,-2.98153 3.05078,-5.2832 -0.53964,-2.01396 -2.41671,-3.31166 -4.41992,-3.19141 z"
         transform="scale(0.26458333)" />
      <path
         id="path2220"
         style="opacity:1;fill:#000000;stroke:none;stroke-width:3.51371;stroke-linecap:round;stroke-linejoin:round;stroke-miterlimit:4;stroke-dasharray:none"
         d="m 446.70898,222.00977 c -2.38287,0 -4.31445,1.93159 -4.31445,4.31445 l -31.50391,414.1582 c -0.0627,0.82485 0.55606,1.54385 1.38086,1.60742 0.82738,0.0684 1.55144,-0.55318 1.61524,-1.38086 l 31.2168,-410.38671 c 0.49696,0.19973 1.03706,0.3164 1.60546,0.3164 2.38288,0 4.31446,-1.93159 4.31446,-4.31445 0,-2.38286 -1.93158,-4.31445 -4.31446,-4.31445 z"
         transform="scale(0.26458333)" />
      <path
         id="path2222"
         style="opacity:1;fill:#000000;stroke:none;stroke-width:3.51371;stroke-linecap:round;stroke-linejoin:round;stroke-miterlimit:4;stroke-dasharray:none"
         d="m 421.1582,250.375 c -2.38288,0 -4.31445,1.93159 -4.31445,4.31445 l -15.8457,386.13282 c -0.034,0.82654 0.60904,1.52386 1.43554,1.55859 0.82927,0.0393 1.53156,-0.60617 1.56641,-1.43555 l 15.68555,-382.21679 c 0.46136,0.16836 0.95302,0.27539 1.47265,0.27539 2.38288,-1e-5 4.31446,-1.93159 4.31446,-4.31446 0,-2.38286 -1.93158,-4.31445 -4.31446,-4.31445 z"
         transform="scale(0.26458333)" />
    </g>
    <g
       id="g2264"
       transform="matrix(0.85262965,-0.04468443,0.04468443,0.85262965,-30.730971,10.036873)"
       style="stroke-width:1.17124">
      <path
         id="path2246"
         style="font-variation-settings:normal;opacity:1;vector-effect:none;fill:#cccccc;fill-opacity:1;stroke:none;stroke-width:1.17124;stroke-linecap:butt;stroke-linejoin:miter;stroke-miterlimit:4;stroke-dasharray:none;stroke-dashoffset:0;stroke-opacity:1;stop-color:#000000;stop-opacity:1"
         d="m 432.82812,156.23828 c -0.99293,-0.007 -2.01305,0.0254 -3.05859,0.10156 -8.72332,0.63578 -15.92613,4.59536 -20.54883,10.21485 -5.11294,-1.15503 -14.29035,-1.15761 -20.88086,12.49414 -3.65505,7.57118 -5.66508,12.13838 -7.51757,16.38867 -12.19729,-6.29705 -27.04345,-14.06874 -31.11915,-16.19922 -6.33375,-3.31083 -9.52341,0.0579 -15.91015,2.46289 -4.9662,1.87012 -7.00937,6.62963 -5.49414,16.85742 1.51523,10.2278 8.22657,19.59151 7.57617,35.41797 -0.6504,15.82647 4.56362,18.45535 8.71289,20.64453 4.3033,2.27047 6.46745,-0.52881 12.12305,-0.18945 5.06091,0.30369 8.99684,-1.10075 12.5,-7.19726 1.97447,-3.43616 10.08079,-19.7781 17.3457,-34.61133 3.73468,1.81395 6.84819,3.26973 8.48047,3.91406 5.54816,2.19009 7.6845,1.33348 10.97266,0.37109 3.28815,-0.96237 5.64171,1.39621 9.25781,-1.14843 2.5143,-1.76931 5.61605,-5.25335 8.89062,-9.98438 3.04783,0.73086 6.28752,1.01672 9.61328,0.78125 l -110.55664,122.72852 24.91016,253.39257 -2.41016,8.30469 c 0,0 4.01785,44.73158 7.5,73.66016 3.48212,28.92858 12.05274,34.01758 12.05274,34.01758 h 27.52637 27.52636 c 0,0 8.57058,-5.089 12.05274,-34.01758 3.48215,-28.92858 7.5,-73.66016 7.5,-73.66016 l -2.41016,-8.30469 c 0,0 26.02217,-355.45507 27.3125,-373.08007 1.29033,-17.625 0.79066,-27.0255 -3.98633,-36.25586 -4.05857,-7.8422 -13.06682,-16.99474 -27.96094,-17.10352 z m -0.98242,16.56055 c 4.94558,-0.18817 8.48924,3.49613 8.7461,7.77929 0.25763,4.29573 -2.80598,8.02001 -6.97071,8.67774 1.05071,-2.88272 1.19785,-5.34025 -0.74218,-9.32227 -1.94004,-3.98201 -5.6543,-5.54492 -5.6543,-5.54492 1.24583,-0.93471 2.80977,-1.52092 4.62109,-1.58984 z m -28.15039,7.22461 c -0.12344,1.62026 -0.0803,3.26726 0.15235,4.92187 0.89523,6.36639 4.36907,11.81721 9.37109,15.66407 -2.35167,2.72134 -4.43917,4.82102 -6.69531,6.85156 0,0 -3.0312,-0.75871 -10.22852,-4.16797 -0.95854,-0.45405 -2.42395,-1.18246 -4.17578,-2.06445 3.10642,-6.4031 5.60523,-11.60204 6.25977,-13.0879 1.84101,-4.17924 3.42728,-6.6279 5.3164,-8.11718 z m -60.49609,9.75976 c 0,0 3.28884,1.8715 13.94336,7.7168 4.75196,2.60703 11.706,6.22539 18.4375,9.64453 -0.81493,1.74355 -1.70319,3.61579 -2.77149,5.80859 -7.19734,14.77348 -18.24414,33.27149 -18.24414,33.27149 -3.13642,-1.9682 -3.97857,-5.68192 -4.16797,-14.20508 -0.1894,-8.52316 -2.36315,-17.74561 -5.87109,-28.03125 -3.50794,-10.28564 -2.45142,-13.19581 -1.32617,-14.20508 z"
         transform="scale(0.26458333)"
         sodipodi:nodetypes="cccscssssssscssscccccscccsccsscsscscscsccscsccscscssc" />
      <path
         id="path2430"
         style="opacity:1;fill:#e50000;fill-opacity:1;stroke:none;stroke-width:0.929667;stroke-linecap:round;stroke-linejoin:round;stroke-miterlimit:4;stroke-dasharray:none"
         d="m 100.83054,126.46315 c -0.0102,-1.8e-4 -0.0202,-0.002 -0.0305,-0.002 -0.91114,-4e-5 -1.649508,0.73836 -1.64951,1.64951 -4.2e-5,0.91116 0.73836,1.65003 1.64951,1.65003 0.91116,4e-5 1.65003,-0.73887 1.65002,-1.65002 6e-5,-0.42046 -0.15859,-0.80264 -0.41753,-1.09399 l 1.89446,-4.11293 1.89394,4.11241 c -0.2591,0.29139 -0.41755,0.67392 -0.41755,1.0945 -4e-5,0.91115 0.73888,1.65003 1.65003,1.65003 0.91114,5e-5 1.24202,-0.83506 1.6495,-1.65002 l 1e-5,-2e-5 c 0.40748,-0.81496 -0.73836,-1.64951 -1.64951,-1.64951 -0.0102,-7e-5 -0.0203,8.8e-4 -0.0305,0.002 l -2.36781,-5.14025 2.36781,-5.14025 c 0.0102,1.8e-4 0.0202,0.002 0.0305,0.002 0.91114,0 1.64951,-0.73836 1.64951,-1.64951 0,-0.91116 -0.73836,-1.65003 -1.64951,-1.65003 -0.91116,0 -1.65003,0.73888 -1.65003,1.65003 0,0.42046 0.1586,0.80263 0.41754,1.09399 l -1.89446,4.11292 -1.89394,-4.11241 c 0.2591,-0.29139 0.41755,-0.67391 0.41755,-1.0945 0,-0.91115 -0.73888,-1.65003 -1.65003,-1.65003 -0.911143,0 -1.649507,0.73888 -1.649501,1.65003 2e-6,0.91115 0.738362,1.64951 1.649511,1.64951 0.0103,0 0.0203,-0.001 0.0305,-0.002 l 2.3678,5.14025 z"
         sodipodi:nodetypes="csssscccszssscccsssscccszssccc" />
      <path
         id="path2250"
         style="font-variation-settings:normal;opacity:1;vector-effect:none;fill:#ffffff;fill-opacity:1;stroke:none;stroke-width:0.585618;stroke-linecap:butt;stroke-linejoin:miter;stroke-miterlimit:4;stroke-dasharray:none;stroke-dashoffset:0;stroke-opacity:1;stop-color:#000000;stop-opacity:1"
         d="m 432.82812,156.23828 c -0.99293,-0.007 -2.01305,0.0254 -3.05859,0.10156 -8.72535,0.63592 -15.928,4.5974 -20.55078,10.21875 -1.25741,-0.2849 -2.73814,-0.50588 -4.39063,-0.46484 -5.0643,0.12578 -11.51643,2.65626 -16.48828,12.95508 -3.64316,7.54658 -5.67368,12.1476 -7.52148,16.38672 -12.19661,-6.29673 -27.03997,-14.06702 -31.11524,-16.19727 -6.33373,-3.31083 -9.52341,0.0579 -15.91015,2.46289 -4.9662,1.87012 -7.00937,6.62963 -5.49414,16.85742 1.51523,10.2278 8.22657,19.59151 7.57617,35.41797 -0.46974,11.43029 2.12051,15.97673 5.1582,18.44532 1.16833,0.94941 8.15854,5.15578 14.35742,-3.90235 6.19891,-9.05813 15.39184,-26.31109 21.93165,-40.39844 l -1.74024,-0.96679 c -0.80757,1.7269 -1.718,3.63243 -2.77344,5.79882 -7.19734,14.77348 -18.24414,33.27149 -18.24414,33.27149 -2.31064,3.29103 -4.00202,4.83498 -6.48633,5.52148 -2.48428,0.68651 -5.66825,0.82479 -8.33398,-4.29687 -2.66573,-5.12166 -1.24302,-12.33314 -2.12695,-21.17969 -0.88394,-8.84655 -6.35057,-20.47336 -7.19922,-26.72265 -0.84866,-6.24933 -1.24469,-11.73571 1.70117,-13.95899 2.94586,-2.22328 7.56055,-0.91211 7.56055,-0.91211 -0.58769,-1.2567 -2.5722,-1.69585 -3.64649,-2.22266 2.58678,-0.23859 4.69599,0.10247 7.15235,1.10743 -0.52604,-1.48192 -1.71347,-1.97133 -2.70703,-2.75196 2.69674,-0.17711 4.76981,0.58079 6.99218,1.11524 -0.57582,-1.17383 -1.86237,-1.63603 -2.89648,-2.35156 6.80074,0.93245 13.5888,6.26646 21.0664,10.25781 7.47763,3.99134 14.98923,7.86999 19.98633,10.33398 8.72489,4.30211 13.79984,6.98952 19.01367,8.77539 -4.33354,4.7247 -6.96293,4.07764 -9.77539,4.64258 1.29098,0.79131 4.82454,1.6227 8.17188,-0.49609 3.34734,-2.11879 6.01292,-4.79139 9.89453,-9.26172 3.88158,-4.47033 11.04746,-13.26957 13.42774,-19.0293 2.38025,-5.75973 1.43321,-8.22734 0.17187,-9.28711 l -0.84961,0.54688 -1.05664,8.08593 c -0.74438,1.86727 -1.99249,4.31488 -3.70703,6.65235 -2.26671,3.09025 -4.19298,5.59099 -5.94336,7.72851 -7.5336,-5.91657 -8.71952,-14.63729 -6.52734,-22.99609 2.22301,-8.47635 11.90207,-15.00002 22.41211,-15.25 2.76844,-0.11051 5.56421,0.0665 8.26562,0.70313 10.40777,2.06448 19.02816,11.98019 21.33984,21.75 l -0.72851,-8.02344 c 1.81527,2.90935 3.37476,5.68523 4.60156,8.72851 -0.73074,-3.61458 -1.87806,-6.86343 -3.54883,-10.09179 -4.05854,-7.84221 -13.06683,-16.99474 -27.96094,-17.10352 z m -27.14648,11.73633 c 0.89814,0.0306 1.59075,0.17309 2.22656,0.32422 -3.34398,4.85149 -4.89691,10.69876 -4.06054,16.64648 0.89534,6.36718 4.36613,11.82104 9.36914,15.66797 -2.35059,2.72002 -4.43804,4.81786 -6.69336,6.84766 0,0 -3.0312,-0.75871 -10.22852,-4.16797 -2.31408,-1.09614 -7.57277,-3.78194 -13.48633,-6.82813 0.006,-0.0133 3.27208,-7.61782 6.00977,-13.77148 2.74008,-6.15905 6.34209,-12.11859 11.28711,-13.74414 2.47251,-0.81278 4.22518,-1.0207 5.57617,-0.97461 z m 28.71094,3.57812 c 3.9007,1.88973 5.91658,4.31178 6.19922,9.02539 0.26601,4.43636 -2.79882,8.04007 -6.97071,8.67774 l -0.96289,2.23437 c 2.27866,0.14155 4.70964,-0.25102 6.83203,-1.96679 5.48026,-4.43032 3.44551,-10.4573 1.01172,-13.87305 -1.21689,-1.70789 -3.47832,-3.43545 -6.10937,-4.09766 z m 3.67969,30.35938 -4.30079,4.64453 -110.55664,122.72852 24.91016,253.39257 -2.41016,8.30469 c 0,0 4.01785,44.73158 7.5,73.66016 3.48214,28.92858 12.05274,34.01758 12.05274,34.01758 l 0.6914,-1.45899 c -3.16455,-7.21497 -5.82652,-13.41837 -8.59765,-30.29687 -2.77113,-16.8785 -7.59375,-75.55664 -7.59375,-75.55664 h 4 l 2.87304,-9.44336 h -5.40429 L 327.37109,330.64258 c 0,0 104.57216,-118.89103 106.59375,-121.18946 2.0216,-2.29841 5.15376,-6.08279 4.10743,-7.54101 z m -9.125,379.99219 c 0,0 -0.87098,1.15608 -1.60157,5.8125 -0.73058,4.65641 -4.01241,25.6164 -6.46679,40.78515 h -56.16993 c 0,0 -0.91779,5.95226 2.22657,13.00391 3.14436,7.05165 8.46484,10.16602 8.46484,10.16602 4.49727,2.42625 10.2557,3.68554 17.39258,3.68554 16.95609,0 27.04138,-6.66093 30.08203,-20.08984 3.04065,-13.42891 5.79573,-36.36995 6.67383,-40.24805 0.8781,-3.87806 2.27148,-3.67187 2.27148,-3.67187 h 4 l -2.87304,-9.44336 z m -63.05469,51.65039 h 53.80273 c -3.66255,11.6499 -12.84144,16.99804 -26.90234,16.99804 -14.06091,0 -23.23784,-5.34814 -26.90039,-16.99804 z"
         transform="scale(0.26458333)"
         sodipodi:nodetypes="sscsscssssssccccsssssccccccssccssscccscscccccssscsccscssscsccssccccccsccscccccsccsccscsssccccccsc" />
      <path
         id="path2252"
         style="font-variation-settings:normal;opacity:1;vector-effect:none;fill:#808080;fill-opacity:1;stroke:none;stroke-width:0.585619;stroke-linecap:butt;stroke-linejoin:miter;stroke-miterlimit:4;stroke-dasharray:none;stroke-dashoffset:0;stroke-opacity:1;stop-color:#000000;stop-opacity:1"
         d="m 455.06445,168.99023 c 0,0 3.413,5.26818 5.40039,13.73829 1.98743,8.47011 1.03602,16.54008 0.3125,26.61523 -0.0374,0.52155 -0.99229,13.18895 -1.11914,14.89063 l -128.8125,142.99414 0.54102,3.54101 L 459.32031,228.75 c -2.74721,36.76117 -17.96098,238.19265 -26.37304,353.1543 l 2.87304,9.44336 c -1.58521,16.69149 -3.15855,33.38594 -4.89453,50.0625 -2.03286,18.02033 -3.42537,37.04192 -12.46094,53.24804 1.29245,-6.35259 3.07923,-12.45862 3.04102,-19.47656 -1.92643,6.61266 -3.90122,13.21362 -7.22656,19.47656 0.82121,-6.4244 1.66455,-12.81276 1.79101,-20.27929 -1.7317,6.90572 -3.79466,13.72831 -6.94531,20.27929 0.86442,-6.52803 0.91115,-13.26147 0.34766,-20.14648 -1.30432,6.71524 -2.11521,13.43125 -5.10157,20.14648 0.23131,-5.91182 0.28588,-11.99925 -1.18164,-19.32031 -0.70495,6.43975 -1.81822,12.8806 -3.02343,19.32031 -0.84087,-6.13629 -1.04835,-12.67093 -2.24219,-19.50976 l -2.89258,19.50976 c -1.14799,-6.31343 -1.3694,-12.62797 -2.45117,-18.9414 -1.49152,6.31343 -2.06299,12.62797 -2.89063,18.9414 l -2.75781,-19.13086 c -1.22415,6.37656 -1.57934,12.75427 -1.80664,19.13086 -1.48796,-6.16868 -2.25488,-12.28547 -3.72266,-18.9414 -0.50785,6.22454 -0.42422,12.25032 -0.86132,18.9414 -2.90557,-6.31343 -3.45131,-12.62797 -5.01172,-18.9414 -0.60909,6.31343 -0.44561,12.62797 -0.12305,18.9414 -2.55848,-6.72911 -3.51685,-12.66013 -5.17969,-18.9414 -0.62466,6.31343 -0.34148,12.62797 0.0274,18.9414 l -6.05079,-19.13086 c 0.30683,6.3766 1.11663,12.75427 2.4336,19.13086 l -6.08399,-18.20508 c 0.0575,4.38773 2.21254,15.78519 5.40625,20.74805 h 53.85938 c 10.20166,-15.68538 11.57829,-36.65446 13.32031,-52.79883 1.74202,-16.14436 5.08789,-53.25781 5.08789,-53.25781 l -2.30859,-8.3125 c 0,0 26.03245,-355.27394 27.13086,-372.06836 0.73198,-11.19194 1.74136,-21.30053 -0.51563,-28.78515 -2.25698,-7.48463 -3.93833,-9.74714 -7.46875,-12.98829 z m -23.1582,0.34375 c -0.25777,-0.007 -0.51701,-0.004 -0.77539,0.008 -2.4805,0.11017 -4.95422,1.06004 -6.76563,2.86328 -4.45972,4.43961 -3.66755,11.0686 -0.80273,14.20117 l 0.70117,-1.4043 c -2.07146,-4.39645 -1.12264,-9.2525 3.32813,-11.89062 4.84286,-2.87053 10.18212,-1.59874 12.94726,2.58984 -1.05303,-4.12181 -4.76623,-6.26657 -8.63281,-6.36719 z m -24.79297,0.19336 c -2.10584,0.85582 -5.14684,7.69742 -7.68555,12.33204 -2.5387,4.63459 -8.91601,18.56054 -8.91601,18.56054 l 0.96289,0.54883 c 3.1282,-6.43203 4.524,-9.42367 6.14844,-13.11133 1.62443,-3.68765 3.63851,-6.99509 6.17383,-8.83984 0.40589,-3.35844 1.54947,-6.57894 3.3164,-9.49024 z m 19.70899,5.12891 -0.29102,0.85156 c 3.26891,2.73372 7.11658,7.66728 5.19141,13.09961 -1.92518,5.43233 -8.11718,15.40072 -11.66797,19.67188 -3.55079,4.27116 -6.16538,7.41058 -9.72071,6.79297 -3.55528,-0.61762 -5.31014,-0.26218 -9.33984,0.52148 -4.02969,0.78366 -7.6812,-2.18662 -19.74609,-8.04883 -12.06487,-5.8622 -29.48389,-15.41382 -35.32617,-18.70312 -5.84231,-3.28931 -9.79864,-4.2907 -14.83204,-2.82032 0,0 3.80768,-0.56405 7.78516,0.95118 0,0 -4.16676,-0.56872 -7.00781,1.79882 -2.84105,2.36755 -1.23242,5.5879 -1.23242,5.5879 0.25246,-1.69624 0.79659,-3.25211 1.96093,-4.38477 -0.43965,1.68247 -0.35526,2.89047 0.13672,4.07812 0.37783,-1.94701 0.67528,-4.22044 3.07227,-5.77343 -1.06099,1.65579 -1.32893,3.37988 -0.50196,4.56836 0.53667,-2.0768 1.16302,-4.17735 3.47852,-4.80664 -0.84219,1.47068 -1.63098,2.52659 -1.15234,3.95117 1.23599,-2.87525 2.85526,-3.97315 4.24414,-3.53321 -1.13479,1.01347 -2.40699,2.08362 -1.76172,6.37891 0.64527,4.29529 4.72479,14.509 6.2832,22.74023 1.96092,7.0726 1.80928,14.4351 2.49219,21.67188 0.22189,3.34927 1.75022,6.52976 4.33984,8.5918 l 0.8711,-0.9668 c -3.83236,-2.65537 -4.36335,-6.33231 -4.55274,-14.85547 -0.1894,-8.52316 -1.39124,-15.34717 -5.24023,-26.63281 -3.84899,-11.28564 -3.36814,-14.78486 -1.20117,-16.45703 0,0 3.9529,2.15665 14.60742,8.00195 10.65452,5.8453 31.30336,16.3724 36.85156,18.5625 5.54816,2.19009 7.96966,1.61864 11.25781,0.65625 3.28815,-0.96237 5.64173,1.39621 9.25781,-1.14844 3.61611,-2.54464 7.96373,-7.90931 12.78516,-16.21289 2.30249,-3.96549 3.99072,-6.80823 4.95117,-9.44336 1.05083,-2.88271 1.25296,-5.01225 -0.22461,-8.30273 -1.47756,-3.29048 -3.56721,-5.21319 -5.76757,-6.38672 z m -1.14063,1.39844 c -1.14992,1.40116 -1.76176,3.39625 -1.63476,5.51562 0.0544,0.90771 0.25928,1.76946 0.57812,2.57031 2.03754,-5.11137 1.05664,-8.08593 1.05664,-8.08593 z m 12.39063,25.85742 c -3.48322,1.43119 -8.15668,1.72441 -12.46289,1.72266 l -0.78516,1.18945 c 3.25805,0.63698 7.11359,0.71064 10.27148,0.30273 z m -53.20704,9.89258 c -3.65499,7.49525 -7.53389,14.97088 -11.22851,22.44726 -2.93917,5.22387 -4.86939,11.18207 -8.94336,15.67188 -3.54316,3.88671 -9.32942,1.53033 -12.80078,2.86328 -3.47136,1.33295 -5.05088,1.64761 -6.73633,1.45508 3.8298,1.79695 5.99284,-0.90773 11.64844,-0.56836 5.06091,0.30368 8.81365,-1.34296 11.74219,-6.43945 1.66107,-2.89079 9.98214,-19.83453 17.3789,-34.91016 z m -28.22461,370.09961 -2.87304,9.44336 c 0,0 1.39338,-0.20619 2.27148,3.67187 0.8781,3.8781 3.63319,26.81914 6.67383,40.24805 1.76083,7.7766 6.49997,13.06614 12.6875,16.4043 -7.72861,-6.92308 -8.78859,-13.24621 -10.69141,-23.16993 -2.45438,-15.16875 -5.73621,-36.12874 -6.46679,-40.78515 -0.73059,-4.65642 -1.60156,-5.8125 -1.60157,-5.8125 z m 9.94922,53.60547 c 0.30242,0.76845 0.62991,1.50592 0.98633,2.21289 h 50.43555 c 0.35644,-0.70695 0.6839,-1.44445 0.98633,-2.21289 z"
         transform="scale(0.26458333)"
         sodipodi:nodetypes="csscccccccccccccccccccccccccccccccccsccsscccsccscccsccsccccssssssccsccccccccsccccsscssssscsccsccccccccccscssccccssccscccccc" />
      <path
         id="path2254"
         style="color:#000000;font-style:normal;font-variant:normal;font-weight:normal;font-stretch:normal;font-size:medium;line-height:normal;font-family:sans-serif;font-variant-ligatures:normal;font-variant-position:normal;font-variant-caps:normal;font-variant-numeric:normal;font-variant-alternates:normal;font-variant-east-asian:normal;font-feature-settings:normal;font-variation-settings:normal;text-indent:0;text-align:start;text-decoration:none;text-decoration-line:none;text-decoration-style:solid;text-decoration-color:#000000;letter-spacing:normal;word-spacing:normal;text-transform:none;writing-mode:lr-tb;direction:ltr;text-orientation:mixed;dominant-baseline:auto;baseline-shift:baseline;text-anchor:start;white-space:normal;shape-padding:0;shape-margin:0;inline-size:0;clip-rule:nonzero;display:inline;overflow:visible;visibility:visible;opacity:1;isolation:auto;mix-blend-mode:normal;color-interpolation:sRGB;color-interpolation-filters:linearRGB;solid-color:#000000;solid-opacity:1;vector-effect:none;fill:#000000;fill-opacity:1;fill-rule:nonzero;stroke:none;stroke-width:4.42672;stroke-linecap:round;stroke-linejoin:miter;stroke-miterlimit:4;stroke-dasharray:none;stroke-dashoffset:0;stroke-opacity:1;color-rendering:auto;image-rendering:auto;shape-rendering:auto;text-rendering:auto;enable-background:accumulate;stop-color:#000000;stop-opacity:1"
         d="m 395.60547,278.74023 c -2.27934,10e-6 -4.1253,1.77258 -4.2832,4.01172 -0.007,0.10172 -0.0312,0.1992 -0.0312,0.30274 v 357.84179 c 7.9e-4,0.82727 0.67273,1.49722 1.5,1.49805 0.83017,0.003 1.50506,-0.66787 1.50586,-1.49805 V 287.14453 c 0.41549,0.13317 0.84887,0.22461 1.30859,0.22461 2.38288,0 4.31641,-1.93159 4.31641,-4.31445 -10e-6,-2.38287 -1.93353,-4.31445 -4.31641,-4.31446 z"
         transform="scale(0.26458333)" />
      <path
         id="path2256"
         style="opacity:1;fill:#000000;stroke:none;stroke-width:3.51371;stroke-linecap:round;stroke-linejoin:round;stroke-miterlimit:4;stroke-dasharray:none"
         d="m 370.05469,307.10352 c -2.24595,0 -4.0688,1.72356 -4.27344,3.91601 -0.029,0.12855 -0.0475,0.26239 -0.041,0.40039 l 15.83008,329.54688 c 0.0412,0.82628 0.74201,1.46467 1.56836,1.42578 0.82938,-0.0378 1.47069,-0.73913 1.43164,-1.56836 L 368.94727,315.57227 c 0.35556,0.0948 0.72198,0.1621 1.10742,0.16211 2.38288,-10e-6 4.31445,-1.93159 4.31445,-4.31446 0,-2.38286 -1.93157,-4.3164 -4.31445,-4.3164 z"
         transform="scale(0.26458333)" />
      <path
         id="path2258"
         style="opacity:1;fill:#000000;stroke:none;stroke-width:3.51371;stroke-linecap:round;stroke-linejoin:round;stroke-miterlimit:4;stroke-dasharray:none"
         d="m 344.25,335.47656 c -0.28617,0.0172 -0.57557,0.0635 -0.86328,0.14063 -1.7628,0.47234 -2.96739,1.97196 -3.16211,3.68164 -0.0353,0.15561 -0.0526,0.31687 -0.0352,0.48437 l 0.0117,0.10938 c 0.004,0.1681 0.0281,0.3363 0.0527,0.50586 l 31.56836,300.35547 c 0.0881,0.82257 0.82368,1.41771 1.64648,1.33203 0.8259,-0.0847 1.42782,-0.82081 1.3418,-1.64649 L 343.65234,343.99609 c 0.63362,0.12878 1.29984,0.13379 1.9668,-0.0449 2.30168,-0.61673 3.66751,-2.98153 3.05078,-5.2832 -0.53964,-2.01396 -2.41671,-3.31166 -4.41992,-3.19141 z"
         transform="scale(0.26458333)" />
      <path
         id="path2260"
         style="opacity:1;fill:#000000;stroke:none;stroke-width:3.51371;stroke-linecap:round;stroke-linejoin:round;stroke-miterlimit:4;stroke-dasharray:none"
         d="m 446.70898,222.00977 c -2.38287,0 -4.31445,1.93159 -4.31445,4.31445 l -31.50391,414.1582 c -0.0627,0.82485 0.55606,1.54385 1.38086,1.60742 0.82738,0.0684 1.55144,-0.55318 1.61524,-1.38086 l 31.2168,-410.38671 c 0.49696,0.19973 1.03706,0.3164 1.60546,0.3164 2.38288,0 4.31446,-1.93159 4.31446,-4.31445 0,-2.38286 -1.93158,-4.31445 -4.31446,-4.31445 z"
         transform="scale(0.26458333)" />
      <path
         id="path2262"
         style="opacity:1;fill:#000000;stroke:none;stroke-width:3.51371;stroke-linecap:round;stroke-linejoin:round;stroke-miterlimit:4;stroke-dasharray:none"
         d="m 421.1582,250.375 c -2.38288,0 -4.31445,1.93159 -4.31445,4.31445 l -15.8457,386.13282 c -0.034,0.82654 0.60904,1.52386 1.43554,1.55859 0.82927,0.0393 1.53156,-0.60617 1.56641,-1.43555 l 15.68555,-382.21679 c 0.46136,0.16836 0.95302,0.27539 1.47265,0.27539 2.38288,-1e-5 4.31446,-1.93159 4.31446,-4.31446 0,-2.38286 -1.93158,-4.31445 -4.31446,-4.31445 z"
         transform="scale(0.26458333)" />
    </g>
    <g
       id="g2284"
       transform="matrix(0.85262965,0.04468443,-0.04468443,0.85262965,51.255541,0.74905994)"
       style="opacity:1;stroke-width:1.17124">
      <path
         id="path2266"
         style="font-variation-settings:normal;opacity:1;vector-effect:none;fill:#cccccc;fill-opacity:1;stroke:none;stroke-width:1.17124;stroke-linecap:butt;stroke-linejoin:miter;stroke-miterlimit:4;stroke-dasharray:none;stroke-dashoffset:0;stroke-opacity:1;stop-color:#000000;stop-opacity:1"
         d="m 432.82812,156.23828 c -0.99293,-0.007 -2.01305,0.0254 -3.05859,0.10156 -8.72332,0.63578 -15.92613,4.59536 -20.54883,10.21485 -5.11294,-1.15503 -14.29035,-1.15761 -20.88086,12.49414 -3.65505,7.57118 -5.66508,12.13838 -7.51757,16.38867 -12.19729,-6.29705 -27.04345,-14.06874 -31.11915,-16.19922 -6.33375,-3.31083 -9.52341,0.0579 -15.91015,2.46289 -4.9662,1.87012 -7.00937,6.62963 -5.49414,16.85742 1.51523,10.2278 8.22657,19.59151 7.57617,35.41797 -0.6504,15.82647 4.56362,18.45535 8.71289,20.64453 4.3033,2.27047 6.46745,-0.52881 12.12305,-0.18945 5.06091,0.30369 8.99684,-1.10075 12.5,-7.19726 1.97447,-3.43616 10.08079,-19.7781 17.3457,-34.61133 3.73468,1.81395 6.84819,3.26973 8.48047,3.91406 5.54816,2.19009 7.6845,1.33348 10.97266,0.37109 3.28815,-0.96237 5.64171,1.39621 9.25781,-1.14843 2.5143,-1.76931 5.61605,-5.25335 8.89062,-9.98438 3.04783,0.73086 6.28752,1.01672 9.61328,0.78125 l -110.55664,122.72852 24.91016,253.39257 -2.41016,8.30469 c 0,0 4.01785,44.73158 7.5,73.66016 3.48212,28.92858 12.05274,34.01758 12.05274,34.01758 h 27.52637 27.52636 c 0,0 8.57058,-5.089 12.05274,-34.01758 3.48215,-28.92858 7.5,-73.66016 7.5,-73.66016 l -2.41016,-8.30469 c 0,0 26.02217,-355.45507 27.3125,-373.08007 1.29033,-17.625 0.79066,-27.0255 -3.98633,-36.25586 -4.05857,-7.8422 -13.06682,-16.99474 -27.96094,-17.10352 z m -0.98242,16.56055 c 4.94558,-0.18817 8.48924,3.49613 8.7461,7.77929 0.25763,4.29573 -2.80598,8.02001 -6.97071,8.67774 1.05071,-2.88272 1.19785,-5.34025 -0.74218,-9.32227 -1.94004,-3.98201 -5.6543,-5.54492 -5.6543,-5.54492 1.24583,-0.93471 2.80977,-1.52092 4.62109,-1.58984 z m -28.15039,7.22461 c -0.12344,1.62026 -0.0803,3.26726 0.15235,4.92187 0.89523,6.36639 4.36907,11.81721 9.37109,15.66407 -2.35167,2.72134 -4.43917,4.82102 -6.69531,6.85156 0,0 -3.0312,-0.75871 -10.22852,-4.16797 -0.95854,-0.45405 -2.42395,-1.18246 -4.17578,-2.06445 3.10642,-6.4031 5.60523,-11.60204 6.25977,-13.0879 1.84101,-4.17924 3.42728,-6.6279 5.3164,-8.11718 z m -60.49609,9.75976 c 0,0 3.28884,1.8715 13.94336,7.7168 4.75196,2.60703 11.706,6.22539 18.4375,9.64453 -0.81493,1.74355 -1.70319,3.61579 -2.77149,5.80859 -7.19734,14.77348 -18.24414,33.27149 -18.24414,33.27149 -3.13642,-1.9682 -3.97857,-5.68192 -4.16797,-14.20508 -0.1894,-8.52316 -2.36315,-17.74561 -5.87109,-28.03125 -3.50794,-10.28564 -2.45142,-13.19581 -1.32617,-14.20508 z"
         transform="scale(0.26458333)"
         sodipodi:nodetypes="cccscssssssscssscccccscccsccsscsscscscsccscsccscscssc" />
      <path
         id="path2445"
         style="opacity:1;fill:#e50000;fill-opacity:1;stroke:none;stroke-width:0.929667;stroke-linecap:round;stroke-linejoin:round;stroke-miterlimit:4;stroke-dasharray:none"
         d="m 100.83054,126.46313 c -0.0101,7e-5 -0.0202,-0.002 -0.0305,-0.002 -0.91114,4e-5 -1.64951,0.73836 -1.649509,1.64952 4.2e-5,0.91115 0.738359,1.65002 1.649509,1.65002 0.91116,-4e-5 1.65003,-0.73888 1.65003,-1.65003 -5e-5,-0.42045 -0.15857,-0.80263 -0.41754,-1.09399 l 1.89446,-4.11291 1.89394,4.1124 c -0.25911,0.29139 -0.41755,0.67391 -0.41755,1.0945 -5e-5,0.91116 0.73888,1.65003 1.65003,1.65003 0.91114,-4e-5 1.6495,-0.73888 1.6495,-1.65003 0,-0.91114 -0.73836,-1.6495 -1.6495,-1.6495 -0.0104,9e-5 -0.0203,0.001 -0.0305,0.002 l -2.36781,-5.14025 2.36781,-5.14025 c 0.0102,1.8e-4 0.0202,0.002 0.0305,0.002 0.91114,0 1.64951,-0.73836 1.64951,-1.64951 0,-0.91116 -0.73836,-1.65003 -1.64951,-1.65003 -0.91116,0 -1.65003,0.73888 -1.65003,1.65003 0,0.42046 0.1586,0.80263 0.41754,1.09399 l -1.89446,4.11292 -1.89394,-4.11241 c 0.2591,-0.29139 0.41755,-0.67391 0.41755,-1.0945 0,-0.91115 -0.73888,-1.65003 -1.65003,-1.65003 -0.911143,0 -1.649507,0.73888 -1.649501,1.65003 2e-6,0.91115 0.738362,1.64951 1.649511,1.64951 0.0103,0 0.0203,-0.001 0.0305,-0.002 l 2.3678,5.14024 z"
         sodipodi:nodetypes="csssscccszzscccsssscccszssccc" />
      <path
         id="path2270"
         style="font-variation-settings:normal;opacity:1;vector-effect:none;fill:#ffffff;fill-opacity:1;stroke:none;stroke-width:0.585618;stroke-linecap:butt;stroke-linejoin:miter;stroke-miterlimit:4;stroke-dasharray:none;stroke-dashoffset:0;stroke-opacity:1;stop-color:#000000;stop-opacity:1"
         d="m 432.82812,156.23828 c -0.99293,-0.007 -2.01305,0.0254 -3.05859,0.10156 -8.72535,0.63592 -15.928,4.5974 -20.55078,10.21875 -1.25741,-0.2849 -2.73814,-0.50588 -4.39063,-0.46484 -5.0643,0.12578 -11.51643,2.65626 -16.48828,12.95508 -3.64316,7.54658 -5.67368,12.1476 -7.52148,16.38672 -12.19661,-6.29673 -27.03997,-14.06702 -31.11524,-16.19727 -6.33373,-3.31083 -9.52341,0.0579 -15.91015,2.46289 -4.9662,1.87012 -7.00937,6.62963 -5.49414,16.85742 1.51523,10.2278 8.22657,19.59151 7.57617,35.41797 -0.46974,11.43029 2.12051,15.97673 5.1582,18.44532 1.16833,0.94941 8.15854,5.15578 14.35742,-3.90235 6.19891,-9.05813 15.39184,-26.31109 21.93165,-40.39844 l -1.74024,-0.96679 c -0.80757,1.7269 -1.718,3.63243 -2.77344,5.79882 -7.19734,14.77348 -18.24414,33.27149 -18.24414,33.27149 -2.31064,3.29103 -4.00202,4.83498 -6.48633,5.52148 -2.48428,0.68651 -5.66825,0.82479 -8.33398,-4.29687 -2.66573,-5.12166 -1.24302,-12.33314 -2.12695,-21.17969 -0.88394,-8.84655 -6.35057,-20.47336 -7.19922,-26.72265 -0.84866,-6.24933 -1.24469,-11.73571 1.70117,-13.95899 2.94586,-2.22328 7.56055,-0.91211 7.56055,-0.91211 -0.58769,-1.2567 -2.5722,-1.69585 -3.64649,-2.22266 2.58678,-0.23859 4.69599,0.10247 7.15235,1.10743 -0.52604,-1.48192 -1.71347,-1.97133 -2.70703,-2.75196 2.69674,-0.17711 4.76981,0.58079 6.99218,1.11524 -0.57582,-1.17383 -1.86237,-1.63603 -2.89648,-2.35156 6.80074,0.93245 13.5888,6.26646 21.0664,10.25781 7.47763,3.99134 14.98923,7.86999 19.98633,10.33398 8.72489,4.30211 13.79984,6.98952 19.01367,8.77539 -4.33354,4.7247 -6.96293,4.07764 -9.77539,4.64258 1.29098,0.79131 4.82454,1.6227 8.17188,-0.49609 3.34734,-2.11879 6.01292,-4.79139 9.89453,-9.26172 3.88158,-4.47033 11.04746,-13.26957 13.42774,-19.0293 2.38025,-5.75973 1.43321,-8.22734 0.17187,-9.28711 l -0.84961,0.54688 -1.05664,8.08593 c -0.74438,1.86727 -1.99249,4.31488 -3.70703,6.65235 -2.26671,3.09025 -4.19298,5.59099 -5.94336,7.72851 -7.5336,-5.91657 -8.71952,-14.63729 -6.52734,-22.99609 2.22301,-8.47635 11.90207,-15.00002 22.41211,-15.25 2.76844,-0.11051 5.56421,0.0665 8.26562,0.70313 10.40777,2.06448 19.02816,11.98019 21.33984,21.75 l -0.72851,-8.02344 c 1.81527,2.90935 3.37476,5.68523 4.60156,8.72851 -0.73074,-3.61458 -1.87806,-6.86343 -3.54883,-10.09179 -4.05854,-7.84221 -13.06683,-16.99474 -27.96094,-17.10352 z m -27.14648,11.73633 c 0.89814,0.0306 1.59075,0.17309 2.22656,0.32422 -3.34398,4.85149 -4.89691,10.69876 -4.06054,16.64648 0.89534,6.36718 4.36613,11.82104 9.36914,15.66797 -2.35059,2.72002 -4.43804,4.81786 -6.69336,6.84766 0,0 -3.0312,-0.75871 -10.22852,-4.16797 -2.31408,-1.09614 -7.57277,-3.78194 -13.48633,-6.82813 0.006,-0.0133 3.27208,-7.61782 6.00977,-13.77148 2.74008,-6.15905 6.34209,-12.11859 11.28711,-13.74414 2.47251,-0.81278 4.22518,-1.0207 5.57617,-0.97461 z m 28.71094,3.57812 c 3.9007,1.88973 5.91658,4.31178 6.19922,9.02539 0.26601,4.43636 -2.79882,8.04007 -6.97071,8.67774 l -0.96289,2.23437 c 2.27866,0.14155 4.70964,-0.25102 6.83203,-1.96679 5.48026,-4.43032 3.44551,-10.4573 1.01172,-13.87305 -1.21689,-1.70789 -3.47832,-3.43545 -6.10937,-4.09766 z m 3.67969,30.35938 -4.30079,4.64453 -110.55664,122.72852 24.91016,253.39257 -2.41016,8.30469 c 0,0 4.01785,44.73158 7.5,73.66016 3.48214,28.92858 12.05274,34.01758 12.05274,34.01758 l 0.6914,-1.45899 c -3.16455,-7.21497 -5.82652,-13.41837 -8.59765,-30.29687 -2.77113,-16.8785 -7.59375,-75.55664 -7.59375,-75.55664 h 4 l 2.87304,-9.44336 h -5.40429 L 327.37109,330.64258 c 0,0 104.57216,-118.89103 106.59375,-121.18946 2.0216,-2.29841 5.15376,-6.08279 4.10743,-7.54101 z m -9.125,379.99219 c 0,0 -0.87098,1.15608 -1.60157,5.8125 -0.73058,4.65641 -4.01241,25.6164 -6.46679,40.78515 h -56.16993 c 0,0 -0.91779,5.95226 2.22657,13.00391 3.14436,7.05165 8.46484,10.16602 8.46484,10.16602 4.49727,2.42625 10.2557,3.68554 17.39258,3.68554 16.95609,0 27.04138,-6.66093 30.08203,-20.08984 3.04065,-13.42891 5.79573,-36.36995 6.67383,-40.24805 0.8781,-3.87806 2.27148,-3.67187 2.27148,-3.67187 h 4 l -2.87304,-9.44336 z m -63.05469,51.65039 h 53.80273 c -3.66255,11.6499 -12.84144,16.99804 -26.90234,16.99804 -14.06091,0 -23.23784,-5.34814 -26.90039,-16.99804 z"
         transform="scale(0.26458333)"
         sodipodi:nodetypes="sscsscssssssccccsssssccccccssccssscccscscccccssscsccscssscsccssccccccsccscccccsccsccscsssccccccsc" />
      <path
         id="path2272"
         style="font-variation-settings:normal;opacity:1;vector-effect:none;fill:#808080;fill-opacity:1;stroke:none;stroke-width:0.585619;stroke-linecap:butt;stroke-linejoin:miter;stroke-miterlimit:4;stroke-dasharray:none;stroke-dashoffset:0;stroke-opacity:1;stop-color:#000000;stop-opacity:1"
         d="m 455.06445,168.99023 c 0,0 3.413,5.26818 5.40039,13.73829 1.98743,8.47011 1.03602,16.54008 0.3125,26.61523 -0.0374,0.52155 -0.99229,13.18895 -1.11914,14.89063 l -128.8125,142.99414 0.54102,3.54101 L 459.32031,228.75 c -2.74721,36.76117 -17.96098,238.19265 -26.37304,353.1543 l 2.87304,9.44336 c -1.58521,16.69149 -3.15855,33.38594 -4.89453,50.0625 -2.03286,18.02033 -3.42537,37.04192 -12.46094,53.24804 1.29245,-6.35259 3.07923,-12.45862 3.04102,-19.47656 -1.92643,6.61266 -3.90122,13.21362 -7.22656,19.47656 0.82121,-6.4244 1.66455,-12.81276 1.79101,-20.27929 -1.7317,6.90572 -3.79466,13.72831 -6.94531,20.27929 0.86442,-6.52803 0.91115,-13.26147 0.34766,-20.14648 -1.30432,6.71524 -2.11521,13.43125 -5.10157,20.14648 0.23131,-5.91182 0.28588,-11.99925 -1.18164,-19.32031 -0.70495,6.43975 -1.81822,12.8806 -3.02343,19.32031 -0.84087,-6.13629 -1.04835,-12.67093 -2.24219,-19.50976 l -2.89258,19.50976 c -1.14799,-6.31343 -1.3694,-12.62797 -2.45117,-18.9414 -1.49152,6.31343 -2.06299,12.62797 -2.89063,18.9414 l -2.75781,-19.13086 c -1.22415,6.37656 -1.57934,12.75427 -1.80664,19.13086 -1.48796,-6.16868 -2.25488,-12.28547 -3.72266,-18.9414 -0.50785,6.22454 -0.42422,12.25032 -0.86132,18.9414 -2.90557,-6.31343 -3.45131,-12.62797 -5.01172,-18.9414 -0.60909,6.31343 -0.44561,12.62797 -0.12305,18.9414 -2.55848,-6.72911 -3.51685,-12.66013 -5.17969,-18.9414 -0.62466,6.31343 -0.34148,12.62797 0.0274,18.9414 l -6.05079,-19.13086 c 0.30683,6.3766 1.11663,12.75427 2.4336,19.13086 l -6.08399,-18.20508 c 0.0575,4.38773 2.21254,15.78519 5.40625,20.74805 h 53.85938 c 10.20166,-15.68538 11.57829,-36.65446 13.32031,-52.79883 1.74202,-16.14436 5.08789,-53.25781 5.08789,-53.25781 l -2.30859,-8.3125 c 0,0 26.03245,-355.27394 27.13086,-372.06836 0.73198,-11.19194 1.74136,-21.30053 -0.51563,-28.78515 -2.25698,-7.48463 -3.93833,-9.74714 -7.46875,-12.98829 z m -23.1582,0.34375 c -0.25777,-0.007 -0.51701,-0.004 -0.77539,0.008 -2.4805,0.11017 -4.95422,1.06004 -6.76563,2.86328 -4.45972,4.43961 -3.66755,11.0686 -0.80273,14.20117 l 0.70117,-1.4043 c -2.07146,-4.39645 -1.12264,-9.2525 3.32813,-11.89062 4.84286,-2.87053 10.18212,-1.59874 12.94726,2.58984 -1.05303,-4.12181 -4.76623,-6.26657 -8.63281,-6.36719 z m -24.79297,0.19336 c -2.10584,0.85582 -5.14684,7.69742 -7.68555,12.33204 -2.5387,4.63459 -8.91601,18.56054 -8.91601,18.56054 l 0.96289,0.54883 c 3.1282,-6.43203 4.524,-9.42367 6.14844,-13.11133 1.62443,-3.68765 3.63851,-6.99509 6.17383,-8.83984 0.40589,-3.35844 1.54947,-6.57894 3.3164,-9.49024 z m 19.70899,5.12891 -0.29102,0.85156 c 3.26891,2.73372 7.11658,7.66728 5.19141,13.09961 -1.92518,5.43233 -8.11718,15.40072 -11.66797,19.67188 -3.55079,4.27116 -6.16538,7.41058 -9.72071,6.79297 -3.55528,-0.61762 -5.31014,-0.26218 -9.33984,0.52148 -4.02969,0.78366 -7.6812,-2.18662 -19.74609,-8.04883 -12.06487,-5.8622 -29.48389,-15.41382 -35.32617,-18.70312 -5.84231,-3.28931 -9.79864,-4.2907 -14.83204,-2.82032 0,0 3.80768,-0.56405 7.78516,0.95118 0,0 -4.16676,-0.56872 -7.00781,1.79882 -2.84105,2.36755 -1.23242,5.5879 -1.23242,5.5879 0.25246,-1.69624 0.79659,-3.25211 1.96093,-4.38477 -0.43965,1.68247 -0.35526,2.89047 0.13672,4.07812 0.37783,-1.94701 0.67528,-4.22044 3.07227,-5.77343 -1.06099,1.65579 -1.32893,3.37988 -0.50196,4.56836 0.53667,-2.0768 1.16302,-4.17735 3.47852,-4.80664 -0.84219,1.47068 -1.63098,2.52659 -1.15234,3.95117 1.23599,-2.87525 2.85526,-3.97315 4.24414,-3.53321 -1.13479,1.01347 -2.40699,2.08362 -1.76172,6.37891 0.64527,4.29529 4.72479,14.509 6.2832,22.74023 1.96092,7.0726 1.80928,14.4351 2.49219,21.67188 0.22189,3.34927 1.75022,6.52976 4.33984,8.5918 l 0.8711,-0.9668 c -3.83236,-2.65537 -4.36335,-6.33231 -4.55274,-14.85547 -0.1894,-8.52316 -1.39124,-15.34717 -5.24023,-26.63281 -3.84899,-11.28564 -3.36814,-14.78486 -1.20117,-16.45703 0,0 3.9529,2.15665 14.60742,8.00195 10.65452,5.8453 31.30336,16.3724 36.85156,18.5625 5.54816,2.19009 7.96966,1.61864 11.25781,0.65625 3.28815,-0.96237 5.64173,1.39621 9.25781,-1.14844 3.61611,-2.54464 7.96373,-7.90931 12.78516,-16.21289 2.30249,-3.96549 3.99072,-6.80823 4.95117,-9.44336 1.05083,-2.88271 1.25296,-5.01225 -0.22461,-8.30273 -1.47756,-3.29048 -3.56721,-5.21319 -5.76757,-6.38672 z m -1.14063,1.39844 c -1.14992,1.40116 -1.76176,3.39625 -1.63476,5.51562 0.0544,0.90771 0.25928,1.76946 0.57812,2.57031 2.03754,-5.11137 1.05664,-8.08593 1.05664,-8.08593 z m 12.39063,25.85742 c -3.48322,1.43119 -8.15668,1.72441 -12.46289,1.72266 l -0.78516,1.18945 c 3.25805,0.63698 7.11359,0.71064 10.27148,0.30273 z m -53.20704,9.89258 c -3.65499,7.49525 -7.53389,14.97088 -11.22851,22.44726 -2.93917,5.22387 -4.86939,11.18207 -8.94336,15.67188 -3.54316,3.88671 -9.32942,1.53033 -12.80078,2.86328 -3.47136,1.33295 -5.05088,1.64761 -6.73633,1.45508 3.8298,1.79695 5.99284,-0.90773 11.64844,-0.56836 5.06091,0.30368 8.81365,-1.34296 11.74219,-6.43945 1.66107,-2.89079 9.98214,-19.83453 17.3789,-34.91016 z m -28.22461,370.09961 -2.87304,9.44336 c 0,0 1.39338,-0.20619 2.27148,3.67187 0.8781,3.8781 3.63319,26.81914 6.67383,40.24805 1.76083,7.7766 6.49997,13.06614 12.6875,16.4043 -7.72861,-6.92308 -8.78859,-13.24621 -10.69141,-23.16993 -2.45438,-15.16875 -5.73621,-36.12874 -6.46679,-40.78515 -0.73059,-4.65642 -1.60156,-5.8125 -1.60157,-5.8125 z m 9.94922,53.60547 c 0.30242,0.76845 0.62991,1.50592 0.98633,2.21289 h 50.43555 c 0.35644,-0.70695 0.6839,-1.44445 0.98633,-2.21289 z"
         transform="scale(0.26458333)"
         sodipodi:nodetypes="csscccccccccccccccccccccccccccccccccsccsscccsccscccsccsccccssssssccsccccccccsccccsscssssscsccsccccccccccscssccccssccscccccc" />
      <path
         id="path2274"
         style="color:#000000;font-style:normal;font-variant:normal;font-weight:normal;font-stretch:normal;font-size:medium;line-height:normal;font-family:sans-serif;font-variant-ligatures:normal;font-variant-position:normal;font-variant-caps:normal;font-variant-numeric:normal;font-variant-alternates:normal;font-variant-east-asian:normal;font-feature-settings:normal;font-variation-settings:normal;text-indent:0;text-align:start;text-decoration:none;text-decoration-line:none;text-decoration-style:solid;text-decoration-color:#000000;letter-spacing:normal;word-spacing:normal;text-transform:none;writing-mode:lr-tb;direction:ltr;text-orientation:mixed;dominant-baseline:auto;baseline-shift:baseline;text-anchor:start;white-space:normal;shape-padding:0;shape-margin:0;inline-size:0;clip-rule:nonzero;display:inline;overflow:visible;visibility:visible;opacity:1;isolation:auto;mix-blend-mode:normal;color-interpolation:sRGB;color-interpolation-filters:linearRGB;solid-color:#000000;solid-opacity:1;vector-effect:none;fill:#000000;fill-opacity:1;fill-rule:nonzero;stroke:none;stroke-width:4.42672;stroke-linecap:round;stroke-linejoin:miter;stroke-miterlimit:4;stroke-dasharray:none;stroke-dashoffset:0;stroke-opacity:1;color-rendering:auto;image-rendering:auto;shape-rendering:auto;text-rendering:auto;enable-background:accumulate;stop-color:#000000;stop-opacity:1"
         d="m 395.60547,278.74023 c -2.27934,10e-6 -4.1253,1.77258 -4.2832,4.01172 -0.007,0.10172 -0.0312,0.1992 -0.0312,0.30274 v 357.84179 c 7.9e-4,0.82727 0.67273,1.49722 1.5,1.49805 0.83017,0.003 1.50506,-0.66787 1.50586,-1.49805 V 287.14453 c 0.41549,0.13317 0.84887,0.22461 1.30859,0.22461 2.38288,0 4.31641,-1.93159 4.31641,-4.31445 -10e-6,-2.38287 -1.93353,-4.31445 -4.31641,-4.31446 z"
         transform="scale(0.26458333)" />
      <path
         id="path2276"
         style="opacity:1;fill:#000000;stroke:none;stroke-width:3.51371;stroke-linecap:round;stroke-linejoin:round;stroke-miterlimit:4;stroke-dasharray:none"
         d="m 370.05469,307.10352 c -2.24595,0 -4.0688,1.72356 -4.27344,3.91601 -0.029,0.12855 -0.0475,0.26239 -0.041,0.40039 l 15.83008,329.54688 c 0.0412,0.82628 0.74201,1.46467 1.56836,1.42578 0.82938,-0.0378 1.47069,-0.73913 1.43164,-1.56836 L 368.94727,315.57227 c 0.35556,0.0948 0.72198,0.1621 1.10742,0.16211 2.38288,-10e-6 4.31445,-1.93159 4.31445,-4.31446 0,-2.38286 -1.93157,-4.3164 -4.31445,-4.3164 z"
         transform="scale(0.26458333)" />
      <path
         id="path2278"
         style="opacity:1;fill:#000000;stroke:none;stroke-width:3.51371;stroke-linecap:round;stroke-linejoin:round;stroke-miterlimit:4;stroke-dasharray:none"
         d="m 344.25,335.47656 c -0.28617,0.0172 -0.57557,0.0635 -0.86328,0.14063 -1.7628,0.47234 -2.96739,1.97196 -3.16211,3.68164 -0.0353,0.15561 -0.0526,0.31687 -0.0352,0.48437 l 0.0117,0.10938 c 0.004,0.1681 0.0281,0.3363 0.0527,0.50586 l 31.56836,300.35547 c 0.0881,0.82257 0.82368,1.41771 1.64648,1.33203 0.8259,-0.0847 1.42782,-0.82081 1.3418,-1.64649 L 343.65234,343.99609 c 0.63362,0.12878 1.29984,0.13379 1.9668,-0.0449 2.30168,-0.61673 3.66751,-2.98153 3.05078,-5.2832 -0.53964,-2.01396 -2.41671,-3.31166 -4.41992,-3.19141 z"
         transform="scale(0.26458333)" />
      <path
         id="path2280"
         style="opacity:1;fill:#000000;stroke:none;stroke-width:3.51371;stroke-linecap:round;stroke-linejoin:round;stroke-miterlimit:4;stroke-dasharray:none"
         d="m 446.70898,222.00977 c -2.38287,0 -4.31445,1.93159 -4.31445,4.31445 l -31.50391,414.1582 c -0.0627,0.82485 0.55606,1.54385 1.38086,1.60742 0.82738,0.0684 1.55144,-0.55318 1.61524,-1.38086 l 31.2168,-410.38671 c 0.49696,0.19973 1.03706,0.3164 1.60546,0.3164 2.38288,0 4.31446,-1.93159 4.31446,-4.31445 0,-2.38286 -1.93158,-4.31445 -4.31446,-4.31445 z"
         transform="scale(0.26458333)" />
      <path
         id="path2282"
         style="opacity:1;fill:#000000;stroke:none;stroke-width:3.51371;stroke-linecap:round;stroke-linejoin:round;stroke-miterlimit:4;stroke-dasharray:none"
         d="m 421.1582,250.375 c -2.38288,0 -4.31445,1.93159 -4.31445,4.31445 l -15.8457,386.13282 c -0.034,0.82654 0.60904,1.52386 1.43554,1.55859 0.82927,0.0393 1.53156,-0.60617 1.56641,-1.43555 l 15.68555,-382.21679 c 0.46136,0.16836 0.95302,0.27539 1.47265,0.27539 2.38288,-1e-5 4.31446,-1.93159 4.31446,-4.31446 0,-2.38286 -1.93158,-4.31445 -4.31446,-4.31445 z"
         transform="scale(0.26458333)" />
    </g>
  </g>
</svg>
