<?xml version="1.0" encoding="UTF-8" standalone="no"?>
<!-- Created with Inkscape (http://www.inkscape.org/) -->

<svg
   width="500"
   height="604"
   viewBox="0 0 132.29166 159.80833"
   version="1.1"
   id="svg5"
   xml:space="preserve"
   xmlns="http://www.w3.org/2000/svg"
   xmlns:svg="http://www.w3.org/2000/svg"><defs
     id="defs2" /><path
     style="font-variation-settings:normal;vector-effect:none;fill:#bf9f4f;fill-opacity:1;stroke:none;stroke-width:0.132292;stroke-linecap:butt;stroke-linejoin:miter;stroke-miterlimit:4;stroke-dasharray:none;stroke-dashoffset:0;stroke-opacity:1;-inkscape-stroke:none;stop-color:#000000"
     d="M 1.43106,67.778937 V 33.651026 C 1.43106,22.419073 0,17.463515 0,17.463515 c 8.25111,0 14.05053,-0.917148 28.29068,-7.148086 C 42.53083,4.084491 50.76611,0 66.14583,0 c 15.37972,0 23.615,4.084491 37.85515,10.315429 14.24015,6.230938 20.03957,7.148086 28.29068,7.148086 0,0 -1.43106,4.955558 -1.43106,16.187511 v 34.127911 l -2.22512,5.58215 H 3.65618 Z"
     id="path29552" /><path
     id="path30392"
     style="font-variation-settings:normal;vector-effect:none;fill:#045cd2;fill-opacity:1;stroke:none;stroke-width:0.132291;stroke-linecap:butt;stroke-linejoin:miter;stroke-miterlimit:4;stroke-dasharray:none;stroke-dashoffset:0;stroke-opacity:1;-inkscape-stroke:none;stop-color:#000000"
     d="m 8.47396,66.929177 c -2.49636,0 -4.94697,0.77637 -7.043,1.98648 v 18.10962 c 0,20.127633 2.85801,49.724963 64.71471,72.783053 61.8567,-23.05809 64.71508,-52.65542 64.71508,-72.783053 v -18.10925 c -2.09644,-1.21035 -4.54783,-1.98685 -7.04448,-1.98685 -6.90641,0 -12.31773,5.39351 -19.22427,5.39351 -6.90655,0 -12.31682,-5.39351 -19.22317,-5.39351 -6.90635,0 -12.31674,5.39351 -19.22316,5.39351 -6.90641,0 -12.31785,-5.39351 -19.22427,-5.39351 -6.90642,0 -12.31785,5.39351 -19.22427,5.39351 -6.90642,0 -12.31675,-5.39351 -19.22317,-5.39351 z" /><g
     id="g47879"
     transform="matrix(-0.48209574,0.52971588,0.52973158,0.48208145,319.83176,-365.67903)"
     style="fill:#003166;fill-opacity:1;stroke-width:1.39616"><path
       style="font-variation-settings:normal;vector-effect:none;fill:#003166;fill-opacity:1;stroke:none;stroke-width:0.184701;stroke-linecap:butt;stroke-linejoin:miter;stroke-miterlimit:4;stroke-dasharray:none;stroke-dashoffset:0;stroke-opacity:1;-inkscape-stroke:none;stop-color:#000000"
       d="m 723.46569,154.19044 v 58.14628 c 0,6.79366 -3.94036,9.48929 -9.41388,10.23946 -5.47352,0.75017 -15.81118,-4.20353 -21.43928,-13.2879 -5.62809,-9.08438 -5.88347,-17.04741 -7.10311,-27.77201 -4.58089,7.34344 -2.36831,25.61378 4.5143,34.62014 6.8826,9.00637 12.23211,11.48616 20.43089,14.37732 8.59695,3.03158 14.24356,5.0833 15.67237,9.54279 h 4.13544 c 1.42881,-4.45949 7.07542,-6.51121 15.67237,-9.54279 8.19878,-2.89116 13.78087,-5.64259 20.66347,-14.64896 6.88261,-9.00636 9.41837,-25.74943 4.28172,-34.3485 0.46327,10.99222 -1.20338,18.92021 -6.83147,28.00459 -5.6281,9.08437 -16.2374,13.80549 -21.71092,13.05532 -5.47352,-0.75017 -8.90967,-3.40674 -8.90967,-10.2004 l 0.2284,-58.24442 z"
       id="path47864" /><path
       style="font-variation-settings:normal;vector-effect:none;fill:#003166;fill-opacity:1;stroke:none;stroke-width:0.184701;stroke-linecap:butt;stroke-linejoin:miter;stroke-miterlimit:4;stroke-dasharray:none;stroke-dashoffset:0;stroke-opacity:1;-inkscape-stroke:none;stop-color:#000000"
       d="m 781.86281,197.74513 c -4.06278,-3.01383 -4.61552,-6.7867 -5.52654,-10.58344 -0.96275,-4.01235 -1.82988,-7.85974 -5.37933,-10.69739 -0.5616,4.91487 -2.82967,7.56882 -4.80453,10.90676 -1.87319,3.16612 -5.45641,5.38486 -8.90653,8.51117 l 0.42654,1.10371 c 3.49629,1.67449 8.77479,0.50061 12.77418,-2.21774 l 2.21776,1.15323 c 2.28504,2.96805 5.78533,4.16898 9.62499,2.92741"
       id="path47866" /><path
       id="path47868"
       style="opacity:1;fill:#003166;fill-opacity:1;fill-rule:evenodd;stroke:none;stroke-width:0.184701;stroke-miterlimit:10;stop-color:#000000"
       d="m -728.19458,124.34642 c 5.77196,-2e-5 10.45106,4.67908 10.45104,10.45104 2e-5,5.77196 -4.67908,10.45106 -10.45104,10.45104 -5.77196,2e-5 -10.45106,-4.67908 -10.45104,-10.45104 -2e-5,-5.77196 4.67908,-10.45106 10.45104,-10.45104 z m 0,4.46174 c -3.3078,0 -5.9893,2.6815 -5.9893,5.9893 0,3.3078 2.6815,5.9893 5.9893,5.9893 3.3078,0 5.9893,-2.6815 5.9893,-5.9893 0,-3.3078 -2.6815,-5.9893 -5.9893,-5.9893 z"
       transform="scale(-1,1)" /><path
       style="font-variation-settings:normal;vector-effect:none;fill:#003166;fill-opacity:1;stroke:none;stroke-width:0.184701;stroke-linecap:butt;stroke-linejoin:miter;stroke-miterlimit:4;stroke-dasharray:none;stroke-dashoffset:0;stroke-opacity:1;-inkscape-stroke:none;stop-color:#000000"
       d="m 757.66456,147.19037 0.96816,0.93692 v 2.85409 c -9.5914,1.33818 -23.68347,3.4286 -30.43802,3.4286 -6.75455,0 -20.305,-1.92363 -29.8964,-3.26181 l -0.42667,-1.1039 z"
       id="path47870" /><path
       style="font-variation-settings:normal;vector-effect:none;fill:#003166;fill-opacity:1;stroke:none;stroke-width:0.184701;stroke-linecap:butt;stroke-linejoin:miter;stroke-miterlimit:4;stroke-dasharray:none;stroke-dashoffset:0;stroke-opacity:1;-inkscape-stroke:none;stop-color:#000000"
       d="m 687.09979,175.19614 c 0.89536,5.66842 1.87305,9.09396 3.6516,12.68055 1.67143,3.37058 4.17114,4.993 7.53916,8.00535 l 0.42643,1.1039 c -3.49629,1.67449 -8.77479,0.50061 -12.77418,-2.21774 l -2.21776,1.15323 c -2.28504,2.96805 -5.78533,4.16898 -9.62499,2.92741 l -0.42654,-1.10371 c 7.9067,-6.34971 6.31919,-17.65277 12.42129,-23.4468 z"
       id="path47872" /></g><g
     id="g36117"
     transform="matrix(-0.48209574,0.52971588,0.52973158,0.48208145,319.45273,-366.43706)"
     style="stroke-width:1.39616"><path
       style="font-variation-settings:normal;vector-effect:none;fill:#bf9f4f;fill-opacity:1;stroke:none;stroke-width:0.184701;stroke-linecap:butt;stroke-linejoin:miter;stroke-miterlimit:4;stroke-dasharray:none;stroke-dashoffset:0;stroke-opacity:1;-inkscape-stroke:none;stop-color:#000000"
       d="m 723.46569,154.19044 v 58.14628 c 0,6.79366 -3.94036,9.48929 -9.41388,10.23946 -5.47352,0.75017 -16.08282,-3.97095 -21.71092,-13.05532 -5.62809,-9.08438 -7.29474,-17.01237 -6.83147,-28.00459 -4.58089,7.34344 -2.60089,25.34214 4.28172,34.3485 6.8826,9.00637 12.46469,11.7578 20.66347,14.64896 8.59695,3.03158 14.24356,5.0833 15.67237,9.54279 h 4.13544 c 1.42881,-4.45949 7.07542,-6.51121 15.67237,-9.54279 8.19878,-2.89116 13.78087,-5.64259 20.66347,-14.64896 6.88261,-9.00636 8.86261,-27.00506 4.28172,-34.3485 0.46327,10.99222 -1.20338,18.92021 -6.83147,28.00459 -5.6281,9.08437 -16.2374,13.80549 -21.71092,13.05532 -5.47352,-0.75017 -9.41388,-3.4458 -9.41388,-10.23946 v -58.14628 z"
       id="path36098" /><path
       style="font-variation-settings:normal;vector-effect:none;fill:#bf9f4f;fill-opacity:1;stroke:none;stroke-width:0.184701;stroke-linecap:butt;stroke-linejoin:miter;stroke-miterlimit:4;stroke-dasharray:none;stroke-dashoffset:0;stroke-opacity:1;-inkscape-stroke:none;stop-color:#000000"
       d="m 769.86999,175.38513 c -1.12321,9.82975 -4.72447,14.93246 -12.19757,21.60081 3.49629,1.67449 8.77479,0.50061 12.77418,-2.21774 l 2.21776,1.15323 c 2.28504,2.96805 5.78533,4.16898 9.62499,2.92741 -7.86388,-6.99498 -5.32047,-17.7884 -12.41936,-23.46371 z"
       id="path36008" /><path
       id="path35216"
       style="opacity:1;fill:#bf9f4f;fill-opacity:1;fill-rule:evenodd;stroke:none;stroke-width:0.184701;stroke-miterlimit:10;stop-color:#000000"
       d="m -728.19458,124.34642 c 5.77196,-2e-5 10.45106,4.67908 10.45104,10.45104 2e-5,5.77196 -4.67908,10.45106 -10.45104,10.45104 -5.77196,2e-5 -10.45106,-4.67908 -10.45104,-10.45104 -2e-5,-5.77196 4.67908,-10.45106 10.45104,-10.45104 z m 0,4.46174 c -3.3078,0 -5.9893,2.6815 -5.9893,5.9893 0,3.3078 2.6815,5.9893 5.9893,5.9893 3.3078,0 5.9893,-2.6815 5.9893,-5.9893 0,-3.3078 -2.6815,-5.9893 -5.9893,-5.9893 z"
       transform="scale(-1,1)" /><path
       style="font-variation-settings:normal;vector-effect:none;fill:#bf9f4f;fill-opacity:1;stroke:none;stroke-width:0.184701;stroke-linecap:butt;stroke-linejoin:miter;stroke-miterlimit:4;stroke-dasharray:none;stroke-dashoffset:0;stroke-opacity:1;-inkscape-stroke:none;stop-color:#000000"
       d="m 758.0911,148.29408 v 2.85409 c -9.5914,1.33818 -23.14185,3.26181 -29.8964,3.26181 -6.75455,0 -20.305,-1.92363 -29.8964,-3.26181 v -2.85409 c 9.5914,-1.33818 19.68217,-4.06984 29.8964,-4.06984 10.21423,0 20.305,2.73166 29.8964,4.06984 z"
       id="path35238" /><path
       style="font-variation-settings:normal;vector-effect:none;fill:#bf9f4f;fill-opacity:1;stroke:none;stroke-width:0.184701;stroke-linecap:butt;stroke-linejoin:miter;stroke-miterlimit:4;stroke-dasharray:none;stroke-dashoffset:0;stroke-opacity:1;-inkscape-stroke:none;stop-color:#000000"
       d="m 686.51941,175.38513 c 1.12321,9.82975 4.72447,14.93246 12.19757,21.60081 -3.49629,1.67449 -8.77479,0.50061 -12.77418,-2.21774 l -2.21776,1.15323 c -2.28504,2.96805 -5.78533,4.16898 -9.62499,2.92741 7.86388,-6.99498 5.32047,-17.7884 12.41936,-23.46371 z"
       id="path36102" /><path
       id="path36177"
       style="opacity:1;fill:#ffffff;fill-opacity:1;fill-rule:evenodd;stroke:none;stroke-width:0.184701;stroke-miterlimit:10;stop-color:#000000"
       d="m -720.45884,127.77037 c -1.91179,-2.10343 -4.66961,-3.42386 -7.73597,-3.42385 -4.65087,-2e-5 -8.59141,3.03811 -9.94698,7.2379 1.64311,-3.61809 5.28783,-6.13423 9.52043,-6.13421 5.77196,-2e-5 10.45126,4.67932 10.45124,10.45127 0,1.12161 -0.17727,2.20131 -0.50432,3.21406 0.59788,-1.31613 0.93088,-2.77799 0.93087,-4.31775 10e-6,-2.7056 -1.0284,-5.17145 -2.71527,-7.02742 z m -2.38937,9.72567 c -0.98713,1.95168 -3.00991,3.29081 -5.34653,3.29081 -3.3078,0 -5.98913,-2.68193 -5.98913,-5.98973 0,-0.55263 0.0762,-1.08691 0.21629,-1.595 -0.41039,0.81127 -0.64284,1.72739 -0.64284,2.6987 0,3.30779 2.68133,5.98973 5.98913,5.98973 2.75525,0 5.07465,-1.8613 5.77308,-4.39451 z"
       transform="scale(-1,1)" /><path
       id="path36182"
       style="font-variation-settings:normal;vector-effect:none;fill:#ffffff;fill-opacity:1;stroke:none;stroke-width:0.184701;stroke-linecap:butt;stroke-linejoin:miter;stroke-miterlimit:4;stroke-dasharray:none;stroke-dashoffset:0;stroke-opacity:1;-inkscape-stroke:none;stop-color:#000000"
       d="m 698.29842,148.2939 c 9.59139,-1.33818 19.68188,-4.0695 29.8961,-4.0695 10.21422,0 20.30527,2.73163 29.89666,4.0698 l -8e-5,0.59665 c -9.35738,-1.37247 -19.17661,-3.95411 -29.11386,-3.95411 -10.21422,0 -20.30471,2.73131 -29.8961,4.06949 l -4.9e-4,2.25087 c -0.25455,-0.0355 -0.5331,-0.0743 -0.78248,-0.10912 z" /><path
       id="path36187"
       style="font-variation-settings:normal;vector-effect:none;fill:#ffffff;fill-opacity:1;stroke:none;stroke-width:0.184701;stroke-linecap:butt;stroke-linejoin:miter;stroke-miterlimit:4;stroke-dasharray:none;stroke-dashoffset:0;stroke-opacity:1;-inkscape-stroke:none;stop-color:#000000"
       d="m 685.02282,176.80477 c 0.44646,-0.50161 0.94205,-0.97619 1.49665,-1.41958 0.0485,0.42417 0.10181,0.8387 0.15962,1.24576 -6.20703,5.68431 -4.25399,15.74812 -11.36408,22.53094 -0.40051,-0.0777 -0.80571,-0.18103 -1.21499,-0.31337 7.24951,-6.44849 5.65461,-16.12477 10.9228,-22.04375 z m 4.77865,9.79901 c 1.99618,3.66064 4.89553,6.79479 8.91562,10.38197 -0.35021,0.16773 -0.71902,0.30581 -1.10191,0.41769 -3.7174,-3.51133 -6.18198,-6.87405 -7.81371,-10.79966 z" /><path
       id="path36190"
       style="font-variation-settings:normal;vector-effect:none;fill:#ffffff;fill-opacity:1;stroke:none;stroke-width:0.184701;stroke-linecap:butt;stroke-linejoin:miter;stroke-miterlimit:4;stroke-dasharray:none;stroke-dashoffset:0;stroke-opacity:1;-inkscape-stroke:none;stop-color:#000000"
       d="m 769.87016,175.38519 c 2.82616,2.25941 4.12292,5.33092 5.15768,8.65008 -1.00787,-2.37882 -2.56192,-4.83311 -5.32185,-7.37408 0.0595,-0.41661 0.11452,-0.84145 0.16417,-1.276 z m -2.81991,10.32941 c -1.60727,4.32729 -4.14319,7.92449 -8.16706,11.71883 -0.42196,-0.11681 -0.82787,-0.26392 -1.21105,-0.44744 4.34176,-3.87421 7.37685,-7.22008 9.37811,-11.27139 z m 9.80945,4.37861 c 1.07254,3.13564 2.55591,6.19954 5.42969,8.7558 -0.38392,0.12414 -0.76417,0.2228 -1.14044,0.29878 -2.67326,-2.90975 -3.51202,-5.91892 -4.28925,-9.05458 z" /><path
       id="path36244"
       style="font-variation-settings:normal;vector-effect:none;fill:#ffffff;fill-opacity:1;stroke:none;stroke-width:0.184701;stroke-linecap:butt;stroke-linejoin:miter;stroke-miterlimit:4;stroke-dasharray:none;stroke-dashoffset:0;stroke-opacity:1;-inkscape-stroke:none;stop-color:#000000"
       d="m 685.50948,181.5162 c -0.0257,0.60962 -0.0421,1.20647 -0.0544,1.79797 -3.3961,8.18512 -1.3918,24.86355 4.91334,33.28221 -0.19263,-0.24482 -0.38268,-0.47684 -0.5773,-0.73152 -6.8826,-9.00635 -8.86256,-27.00523 -4.28168,-34.34866 z m 37.95621,-26.2444 h 0.83149 l -0.0488,57.77757 c 0,6.79365 -3.94031,9.55311 -10.09713,10.39692 -6.01031,0.82375 -16.65831,-3.78777 -21.19547,-12.98275 5.75638,8.46602 15.8154,12.83614 21.09597,12.11242 5.47351,-0.75017 9.41426,-3.44565 9.41426,-10.23931 z m 9.45802,57.06515 c 0,6.79366 3.94021,9.48909 9.41372,10.23926 5.47352,0.75017 16.08316,-3.97117 21.71125,-13.05554 5.62808,-9.08437 7.29478,-17.01225 6.83151,-28.00446 0.29765,0.47716 0.5658,1.00135 0.8085,1.5631 0.34104,10.54998 -1.3769,18.30772 -6.85729,27.1537 -5.62809,9.08436 -16.05721,14.11407 -22.16688,13.27672 -6.10967,-0.83736 -9.74081,-2.94813 -9.74081,-11.17278 z m -13.05836,21.84286 c 3.56445,1.37182 6.07629,2.91232 7.30613,5.87704 l -1.0444,-2.1e-4 c -0.80948,-2.52647 -2.97519,-4.27997 -6.26173,-5.87683 z" /><path
       id="path37812"
       style="font-variation-settings:normal;vector-effect:none;fill:#75510a;fill-opacity:1;stroke:none;stroke-width:0.184701;stroke-linecap:butt;stroke-linejoin:miter;stroke-miterlimit:4;stroke-dasharray:none;stroke-dashoffset:0;stroke-opacity:1;-inkscape-stroke:none;stop-color:#000000"
       d="m 723.46567,154.20142 c 1.7843,0.13107 3.39331,0.20864 4.72917,0.20864 1.33581,0 2.94469,-0.0777 4.72891,-0.20873 l 3.9e-4,1.1351 c -1.61463,0.1123 -3.07347,0.17733 -4.30275,0.17733 -1.44016,0 -3.202,-0.0914 -5.15581,-0.24197 z" /><path
       id="path42836"
       style="font-variation-settings:normal;vector-effect:none;fill:#75510a;fill-opacity:1;stroke:none;stroke-width:0.184701;stroke-linecap:butt;stroke-linejoin:miter;stroke-miterlimit:4;stroke-dasharray:none;stroke-dashoffset:0;stroke-opacity:1;-inkscape-stroke:none;stop-color:#000000"
       d="m 685.50948,181.5162 c 0.62721,1.16832 0.67354,2.23741 0.67393,3.32789 10e-4,3.86727 0.33045,7.36937 1.0688,10.72834 -0.29525,-0.16572 -0.5844,-0.3409 -0.86993,-0.52129 -0.84982,-4.14119 -1.08422,-8.51857 -0.8728,-13.53494 z m 85.37071,1e-5 c 0.85333,0.53749 1.84606,2.09794 2.22651,3.39929 0.99575,3.40609 1.22679,7.78087 0.76656,12.30423 -0.23572,-0.21084 -0.46284,-0.43647 -0.68182,-0.67502 0.51489,-5.99044 -0.19911,-11.64261 -2.31125,-15.0285 z" /></g><path
     id="path32479"
     style="fill:#75510a;fill-opacity:1;fill-rule:evenodd;stroke:none;stroke-width:0.132291;stroke-miterlimit:10;stop-color:#000000"
     d="M 66.90407,9.698893 A 26.013974,26.013203 0 0 0 40.88997,35.711851 26.013974,26.013203 0 0 0 66.90407,61.725187 26.013974,26.013203 0 0 0 92.91779,35.711851 26.013974,26.013203 0 0 0 66.90407,9.698893 Z m -8.59056,9.122912 a 5.6640806,7.5066963 45.003095 0 1 3.65512,1.339123 5.6640806,7.5066963 45.003095 0 1 1.34138,3.458844 v 8.498507 h -8.49838 a 5.6640806,7.5066963 45.003095 0 1 -3.45895,-1.341344 5.6640806,7.5066963 45.003095 0 1 1.30289,-9.313157 5.6640806,7.5066963 45.003095 0 1 5.65794,-2.641973 z m 17.18074,0 a 7.5066963,5.6640806 44.996905 0 1 5.65831,2.641973 7.5066963,5.6640806 44.996905 0 1 1.30289,9.312787 7.5066963,5.6640806 44.996905 0 1 -3.45895,1.341343 h -8.49876 v -8.498136 a 7.5066963,5.6640806 44.996905 0 1 1.34138,-3.458844 7.5066963,5.6640806 44.996905 0 1 3.65513,-1.339123 z M 54.81126,39.305792 h 8.49875 v 8.498141 a 7.5066963,5.6640806 44.996905 0 1 -1.34138,3.458843 7.5066963,5.6640806 44.996905 0 1 -9.31343,-1.30285 7.5066963,5.6640806 44.996905 0 1 -1.30289,-9.31279 7.5066963,5.6640806 44.996905 0 1 3.45895,-1.341344 z m 15.68648,0 h 8.49839 a 5.6640806,7.5066963 45.003095 0 1 3.45895,1.341344 5.6640806,7.5066963 45.003095 0 1 -1.30289,9.313162 5.6640806,7.5066963 45.003095 0 1 -9.31307,1.302851 5.6640806,7.5066963 45.003095 0 1 -1.34138,-3.458844 z" /><path
     id="path30388"
     style="font-variation-settings:normal;vector-effect:none;fill:#ffffff;fill-opacity:1;stroke:none;stroke-width:0.132291;stroke-linecap:butt;stroke-linejoin:miter;stroke-miterlimit:4;stroke-dasharray:none;stroke-dashoffset:0;stroke-opacity:1;-inkscape-stroke:none;stop-color:#000000"
     d="m 8.47396,66.171157 c -2.49636,0 -4.79625,0.70754 -7.043,1.60746 v 1.13704 c 2.24675,-0.89993 4.54664,-1.60747 7.043,-1.60747 6.90642,0 12.31675,5.3935 19.22317,5.3935 6.90642,0 12.31785,-5.3935 19.22427,-5.3935 6.90642,0 12.31786,5.3935 19.22427,5.3935 6.90642,0 12.31681,-5.3935 19.22316,-5.3935 6.90635,0 12.31662,5.3935 19.22317,5.3935 6.90654,0 12.31786,-5.3935 19.22427,-5.3935 2.49665,0 4.79729,0.70776 7.04448,1.60784 v -1.13704 c -2.24719,-0.90007 -4.54783,-1.60783 -7.04448,-1.60783 -6.90641,0 -12.31773,5.3935 -19.22427,5.3935 -6.90655,0 -12.31682,-5.3935 -19.22317,-5.3935 -6.90635,0 -12.31674,5.3935 -19.22316,5.3935 -6.90641,0 -12.31785,-5.3935 -19.22427,-5.3935 -6.90642,0 -12.31785,5.3935 -19.22427,5.3935 -6.90642,0 -12.31675,-5.3935 -19.22317,-5.3935 z" /><path
     id="path30452"
     style="fill:#e70909;fill-opacity:1;fill-rule:evenodd;stroke:none;stroke-width:0.132291;stroke-miterlimit:10;stop-color:#000000"
     d="M 66.14602,8.940871 A 26.013974,26.013203 0 0 0 40.13192,34.953828 26.013974,26.013203 0 0 0 66.14602,60.967157 26.013974,26.013203 0 0 0 92.15974,34.953828 26.013974,26.013203 0 0 0 66.14602,8.940871 Z m -8.59056,9.122911 a 5.6640806,7.5066963 45.003095 0 1 3.65512,1.339124 5.6640806,7.5066963 45.003095 0 1 1.34138,3.458845 v 8.498506 h -8.49838 a 5.6640806,7.5066963 45.003095 0 1 -3.45895,-1.341344 5.6640806,7.5066963 45.003095 0 1 1.30289,-9.313157 5.6640806,7.5066963 45.003095 0 1 5.65794,-2.641974 z m 17.18074,0 a 7.5066963,5.6640806 44.996905 0 1 5.65831,2.641974 7.5066963,5.6640806 44.996905 0 1 1.30289,9.312787 7.5066963,5.6640806 44.996905 0 1 -3.45895,1.341343 h -8.49876 v -8.498135 a 7.5066963,5.6640806 44.996905 0 1 1.34138,-3.458845 7.5066963,5.6640806 44.996905 0 1 3.65513,-1.339124 z M 54.05321,38.54777 h 8.49875 v 8.498136 A 7.5066963,5.6640806 44.996905 0 1 61.21058,50.504749 7.5066963,5.6640806 44.996905 0 1 51.89715,49.2019 7.5066963,5.6640806 44.996905 0 1 50.59426,39.889113 7.5066963,5.6640806 44.996905 0 1 54.05321,38.54777 Z m 15.68648,0 h 8.49839 a 5.6640806,7.5066963 45.003095 0 1 3.45895,1.341343 5.6640806,7.5066963 45.003095 0 1 -1.30289,9.313159 5.6640806,7.5066963 45.003095 0 1 -9.31307,1.30285 5.6640806,7.5066963 45.003095 0 1 -1.34138,-3.458843 z" /><path
     id="path30801"
     style="fill:#ffffff;fill-rule:evenodd;stroke:none;stroke-width:0.132291;stroke-miterlimit:10;stop-color:#000000"
     d="m 81.15219,49.960298 c 2.93168,-2.931553 3.29945,-8.07928 0.54484,-10.071185 2.21212,2.211907 1.62879,6.381606 -1.30289,9.313159 -2.93156,2.931353 -7.10108,3.514646 -9.31307,1.30285 1.70367,2.926591 7.13956,2.38653 10.07112,-0.544824 z M 62.55196,38.54777 v 8.498136 c -0.006,1.380004 -0.47605,2.593495 -1.34138,3.458843 -2.10185,2.101531 -5.99917,1.692536 -8.92663,-0.936793 0.11928,0.132806 0.24292,0.263641 0.37124,0.39197 2.93165,2.93159 7.10147,3.514904 9.31343,1.30285 0.86534,-0.865349 1.33566,-2.078847 1.34139,-3.458851 V 39.305792 Z M 80.39451,20.705756 c 2.93143,2.931465 3.51475,7.100871 1.30289,9.312787 -0.86537,0.865303 -2.0789,1.335898 -3.45895,1.341343 h -8.49876 l 0.71887,0.758392 h 8.53794 c 1.38004,-0.0054 2.59357,-0.476041 3.45894,-1.341343 2.21186,-2.211913 1.53767,-6.917336 -2.06093,-10.071179 z M 54.05358,32.118278 h 9.25643 v -9.256527 c -0.006,-1.379999 -1.06509,-2.717858 -2.09943,-3.458845 0.86533,0.865346 1.33594,2.078843 1.34138,3.458845 v 8.498506 h -8.49838 c -1.38004,-0.0054 -2.59358,-0.476039 -3.45895,-1.341344 0.75417,1.357716 2.07891,2.093922 3.45895,2.099365 z M 66.14602,8.940871 c -14.36707,-7e-5 -26.01397,11.646323 -26.0141,26.012957 -4e-5,7.183391 2.9117,13.686747 7.61862,18.393525 -4.03447,-5.208764 -6.8606,-10.9693 -6.86206,-18.017845 C 40.88838,21.17163 52.366,9.694352 66.5243,9.69445 c 7.02421,6.45e-4 12.55782,2.685814 18.01572,6.865111 -4.70717,-4.707018 -11.21055,-7.618622 -18.394,-7.61869 z" /></svg>
