<?xml version="1.0" encoding="UTF-8" standalone="no"?>
<!-- Created with Inkscape (http://www.inkscape.org/) -->

<svg
   width="500"
   height="610"
   viewBox="0 0 132.29167 161.39584"
   version="1.1"
   id="svg5"
   xml:space="preserve"
   xmlns="http://www.w3.org/2000/svg"
   xmlns:svg="http://www.w3.org/2000/svg"><defs
     id="defs2" /><path
     id="path18920"
     style="opacity:1;fill:#bf9f4f;fill-opacity:1;stroke:none;stroke-width:0.264583;stroke-linecap:square;stroke-miterlimit:10;stop-color:#000000"
     d="m 0,0 v 95.250002 c 0,36.531298 29.61454,66.145838 66.14583,66.145838 36.53131,0 66.14584,-29.61454 66.14584,-66.145838 V 0 Z" /><path
     style="font-variation-settings:normal;opacity:1;fill:#024b0e;fill-opacity:1;stroke:none;stroke-width:0.0661458;stroke-linecap:butt;stroke-linejoin:miter;stroke-miterlimit:10;stroke-dasharray:none;stroke-dashoffset:0;stroke-opacity:1;stop-color:#000000;stop-opacity:1"
     d="m 31.37383,122.27876 c -0.6747,1.89349 -2.19546,4.39091 -2.88546,7.18227 -0.69,2.79136 0.47046,5.61409 1.88182,7.08818 1.41136,1.47409 3.42825,4.35108 4.44841,6.41358 1.02016,2.0625 2.48387,4.98992 5.0121,5.85484 2.52822,0.86492 3.79234,0.22177 5.05645,0.13307 1.26412,-0.0887 2.19687,0.26993 3.57056,0.8871 1.37369,0.61716 2.67291,0.46389 3.65928,0.31048 0.99799,-0.15522 2.18043,-0.003 2.81653,-0.4879 0.69634,-0.5304 0.55391,-1.31286 -0.034,-1.55354 0,0 -0.91958,0.53337 -1.89538,0.33378 -0.97581,-0.1996 -0.90928,-1.04234 0.13306,-1.15323 1.04234,-0.11089 1.66529,-0.41954 1.66529,-0.41954 0.0314,-0.87818 -1.035,-1.19181 -1.035,-1.19181 0,0 -0.87818,-0.18819 -1.78772,0.75272 -0.90955,0.94091 -3.02682,0.89864 -4.19039,0.0589 -0.96364,-0.69543 -1.76177,-0.36082 -3.33911,0.0405 -1.24501,0.31679 -2.75777,-0.22492 -4.07504,-1.57356 -1.31727,-1.34863 -2.31864,-2.94548 -2.25214,-3.96565 0.0665,-1.02016 -0.0222,-2.32863 -1.46371,-3.06048 -1.44154,-0.73186 -3.92541,-2.39516 -4.08065,-5.34476 -0.15524,-2.9496 1.15323,-5.41129 2.52823,-6.76411 1.375,-1.35282 3.61492,-0.99799 5.38911,-1.15323 1.77419,-0.15524 1.99597,-1.24193 3.12702,-1.35282 1.13105,-0.11089 4.67943,0.46573 5.21169,0.24395 0.53226,-0.22177 1.84073,-2.70564 1.13105,-3.94758 -0.70968,-1.24193 -1.8629,-1.10887 -1.8629,-1.10887 -0.0222,1.06452 -0.37702,2.28423 -1.13105,2.32863 -0.75404,0.0444 -1.6674,-0.1553 -1.90504,-2.29308 C 44.82921,116.39882 42.82487,77.557741 42.252,63.001481 41.67913,48.445222 41.84916,32.516337 41.84916,32.516337 c 0,0 0.25172,1.856002 2.21172,2.841195 5.00614,2.350135 7.79022,0.155546 7.79022,0.155546 l -1.97404,-0.842842 c -5.74394,-2.794352 -5.0276,-7.641394 -5.0276,-7.641394 2.62704,3.750733 5.89617,6.860735 10.41693,5.446179 0,0 -2.07935,-0.978125 -3.4618,-4.952669 -1.38245,-3.974544 -0.41961,-6.867798 -0.41961,-6.867798 0,0 2.58517,0.7572 5.50199,0.42788 l -2.58486,-3.557922 0.25735,-0.220658 c -1.26512,-1.048655 -1.13181,-2.774669 -0.53537,-3.990455 0.56977,-1.161423 1.23215,-2.385136 1.59681,-4.989876 -2.12903,-1.4637083 -4.83434,-3.0380576 -4.83434,-3.0380576 0,0 -0.96632,1.5233191 -1.73012,2.9052491 -0.73991,1.338693 -1.14065,2.6709125 -2.41743,3.7480915 -1.13781,0.969278 -3.53535,2.041456 -7.64397,0.661459 C 34.88641,11.220267 33.27601,7.3835286 33.27601,7.3835286 32.20522,5.8870908 31.31127,3.661792 31.31127,3.661792 28.17491,9.6522354 29.16256,16.677535 29.16256,16.677535 24.09736,15.517083 23.63318,11.32489 23.63318,11.32489 23.25922,10.412121 23.21925,9.6991496 23.21925,9.6991496 c 0,0 -2.60294,3.2144814 -2.60294,9.2676514 l 2.41484,7.496184 c 0,0 -5.49065,0.434187 -8.70438,-3.546554 -1.02714,-0.780128 -1.865,-1.785421 -1.865,-1.785421 -0.58236,2.766427 0.38471,6.892356 4.43746,10.301697 l 3.18482,2.161109 -1.98696,1.742012 c -2.4206,2.648294 -6.23466,5.807036 -9.55859,7.517888 0.2433,0.330942 1.1088,0.747204 1.70739,0.953947 l 4.30258,0.789099 c 0,0 0.97584,0.01661 1.90737,-0.124024 0.93153,-0.140631 3.84163,-0.825272 3.84163,-0.825272 0,0 0.5703,-0.173499 1.51153,-0.478524 0.94124,-0.305025 5.76395,-2.750658 5.76395,-2.750658 0,0 4.47557,79.966986 3.80088,81.860476 z"
     id="path608" /><path
     id="path12009"
     style="font-variation-settings:normal;fill:#046214;fill-opacity:1;stroke:none;stroke-width:0.0661458;stroke-linecap:butt;stroke-linejoin:miter;stroke-miterlimit:10;stroke-dasharray:none;stroke-dashoffset:0;stroke-opacity:1;stop-color:#000000"
     d="m 40.36291,31.721062 c 0,0 -8e-5,2.750051 -0.0444,2.92747 -0.0443,0.17742 -0.26618,0.532103 -0.31058,0.975651 -0.0444,0.443546 1.02019,3.903055 0.79841,4.923214 -0.22177,1.02016 -0.88702,1.95148 -0.48783,2.306319 0.39919,0.354837 0.93154,1.020369 0.84284,1.951819 -0.0887,0.93145 -0.22165,1.419567 -0.17725,2.217952 0.0444,0.798385 0.22178,1.685425 0,1.55236 -0.22177,-0.133064 -0.97569,-1.463645 -1.02009,-1.286226 -0.0444,0.177419 0.22173,4.124909 0.26613,4.701522 0.0444,0.576611 0.62078,6.209533 0.66508,6.520015 0.0444,0.310484 -0.57671,2.750214 -0.57671,2.484087 0,-0.266129 -0.44338,-6.742316 -0.44338,-7.0528 0,-0.310484 -0.22161,-6.298154 -0.44339,-6.475574 -0.22177,-0.177419 -0.8871,-0.487922 -0.7984,-1.064535 0.0887,-0.576611 0.13274,-2.927474 0.0884,-3.193603 -0.0444,-0.266129 -0.75396,-1.641244 -0.75396,-1.641244 0,0 -0.57654,0.621325 -0.75396,0.710035 -0.17742,0.08871 -1.10898,-0.931727 -1.10898,-0.931727 0,0 -0.0889,0.487918 -0.35501,0.532268 -0.26613,0.04435 -0.93122,-0.709518 -1.19735,-0.709518 -0.26614,0 -0.35501,0.576632 -0.35501,1.064535 0,0.487901 -0.17708,0.975569 -0.3545,1.197343 -0.17742,0.221774 -0.44375,0.17751 -0.62115,0.310575 -0.17742,0.133064 -0.31025,0.798494 -0.39895,1.108976 -0.0887,0.310484 -1.46395,1.685517 -1.41955,1.862936 0.0444,0.177419 1.15298,1.330498 0.66508,1.507918 -0.4879,0.177419 -1.19735,0.798401 -1.19735,0.798401 0,0 0.79857,4.923321 0.62115,6.03219 -0.1774,1.108869 -0.0447,1.419213 0.35451,1.774052 0.39917,0.354838 0.97599,0.887552 0.62115,1.286743 -0.35483,0.399194 -1.19769,0.576202 -1.37511,1.10846 -0.17742,0.532256 -0.31041,0.976086 -0.48783,0.931726 -0.17742,-0.04435 -1.50809,-1.641096 -1.33067,-2.883028 0.17742,-1.241933 0.35484,-2.128911 0.26614,-2.838587 -0.0887,-0.709675 -0.53201,-1.996275 -0.39895,-2.794661 0.13307,-0.798387 0.84258,-2.084634 0.70952,-2.350761 -0.13307,-0.266129 -0.53245,-0.443482 -0.62115,-1.020093 -0.0887,-0.576612 -0.2658,-4.391224 -0.3545,-5.322673 -0.0887,-0.93145 -1.30225,-2.524394 -1.30225,-2.524394 0,0 0.52342,9.398706 1.17306,21.542355 l 0.0868,1.594735 1.63917,11.367265 c 0,0 -0.44371,1.907138 -0.0889,2.838587 0.35484,0.93145 0.57652,3.858777 0.48782,4.169254 0,0 0.44351,0.842771 1.55236,1.596802 1.10887,0.75403 -0.13282,0.798426 -0.66507,2.129069 -0.53226,1.330643 0.39904,1.020353 0.70952,1.153418 0.31049,0.133064 1.19745,2.395227 2.83858,3.725871 1.64112,1.330643 0.66527,-0.843186 1.55236,-0.754476 0.8871,0.08871 0.35501,2.617249 -0.17725,3.060795 -0.53225,0.443549 0.26639,1.773975 0.13333,2.261878 -0.13307,0.487901 -0.97592,0.709698 -1.10898,1.064534 -0.13307,0.354839 -0.26639,1.729795 -0.39946,2.350761 -0.13306,0.620968 -1.64109,-0.354848 -2.61689,-0.532267 -0.97581,-0.17742 -0.0886,0.754482 0.31057,1.020609 0.3992,0.266129 0.70945,0.842602 1.46348,1.774055 0.75403,0.93145 0.22177,1.81856 -0.53227,1.06453 -0.75403,-0.75403 -1.50758,-0.44346 -1.59628,-0.22169 -0.0887,0.22177 0,3.90287 0,4.30206 0,0.3992 1.37469,0.35494 1.68517,0.84285 0.31049,0.4879 0.13332,2.21796 0.13332,2.75022 0,0.53225 -0.71003,3.06054 -0.4439,3.45973 0.26613,0.39919 -0.44365,1.68535 -0.57671,2.04019 -0.13307,0.35484 -0.53173,2.26215 -0.26562,2.92747 0.26613,0.66533 -1.6e-4,2.61653 0.70952,1.64072 0.70967,-0.97578 0.39928,-0.75373 0.31058,-1.68516 -0.0887,-0.93145 0.35477,-0.88697 0.75396,-1.77406 0.39924,-0.8871 0.13273,-1.37502 0.3545,-1.5968 0.22177,-0.22177 0.39937,0.39887 0.62115,1.41904 0.22177,1.02016 -0.62091,1.95182 -1.0201,2.48408 -0.39917,0.53226 -0.1775,2.30659 -0.31057,2.70578 -0.13306,0.39921 0.57664,0.39905 1.5968,-0.0889 1.02016,-0.4879 1.15352,-0.88729 1.46399,-1.15342 0.31048,-0.26609 1.68535,0.13297 2.04019,-0.31058 0.35484,-0.44355 0.31049,-1.3306 0.53227,-2.35076 0.22177,-1.02016 1.10873,-0.3101 1.50792,-0.3545 0.39915,-0.0444 0.0442,-0.79849 0.44338,-1.10897 0.39919,-0.31049 0.66568,-0.44349 1.2423,-1.28623 0.57661,-0.84274 -2.5e-4,-2.21763 -0.13332,-3.10472 -0.13306,-0.88709 0.17772,-1.77432 0.13332,-2.43964 -0.0444,-0.66533 0.17725,-3.14917 0.17725,-3.14917 -0.48791,-1.90725 0.44338,-4.79042 0.17725,-5.5888 -0.26612,-0.798387 -0.7984,-1.020279 -0.7984,-1.641245 0,-0.620966 -0.3545,-6.608899 -0.3545,-6.608899 v -3.903121 c 0,-0.93145 -0.0445,-0.354945 -0.31058,-1.108976 -0.26615,-0.754032 -0.22169,-5.012098 -0.22169,-5.012098 0,0 -0.66532,4.480182 -0.53226,4.923731 0.1331,0.443546 0.35445,4.258067 0.0884,5.012097 -0.26613,0.75403 -0.39894,3.903121 -0.39894,3.903121 0,0 -0.26613,-1.242142 -0.26613,-1.951819 0,-0.709676 0.0889,-2.483595 0.0889,-3.814237 0,-1.330643 -0.53244,-4.967774 -0.35502,-6.608899 0.17742,-1.641127 0.39895,-4.080806 0.39895,-4.30258 0,-0.221774 0.66551,0.17725 0.88728,0.17725 0.22177,0 0.0889,-1.463579 0.0889,-2.306319 0,-0.84274 1.07436,-0.355017 1.07436,-0.355017 l 0.001,-0.001 C 42.60558,71.273106 42.38737,66.433858 42.25228,63.001338 41.67941,48.445107 41.84921,32.516376 41.84921,32.516376 Z m -4.08037,11.487671 c 0.17742,0.04435 0.75396,1.685685 0.75396,1.685685 0,0 -0.17742,1.507845 0,2.261878 0.17742,0.75403 -0.35498,1.197615 -0.31058,1.862935 0.0444,0.665323 0.6209,1.774242 0.75396,2.661336 0.13302,0.887097 0.0886,3.637181 -0.0444,4.790406 -0.13308,1.153226 -0.0441,1.862668 -0.20929,2.848922 -0.16523,0.986252 -1.74201,-0.165365 -1.74201,-0.165365 0,0 -0.53235,-1.042762 -0.31058,-2.062923 0.22178,-1.020158 0.0885,-0.221703 0.66508,-0.753959 0.57661,-0.532259 0.22169,-2.173008 0.22169,-2.971395 0,-0.798386 0.22177,-1.862947 0,-2.395203 -0.22178,-0.532259 -0.84242,-0.310842 -1.1529,-0.710034 -0.31048,-0.399193 -0.84284,-4.169255 -0.84284,-4.169255 0,0 1.02034,0.177238 0.88728,-0.621151 -0.13307,-0.798384 0.3993,-0.399023 0.84284,-0.17725 0.44355,0.221774 -2.5e-4,-0.08847 -0.13332,-0.931209 -0.13306,-0.842742 0.44373,-1.197768 0.62115,-1.153418 z m -0.75448,34.729664 c 0,0 0.88747,0.709864 0.97617,0.887284 0.0887,0.177419 -0.13322,0.931475 0.44339,1.330668 0.57662,0.399193 -0.0885,0.443306 -0.44339,0.93121 -0.35483,0.487902 0.53227,1.375033 0.7984,1.862935 0.26613,0.487903 -0.089,1.064631 0.13281,1.641244 0.22177,0.576612 1.55238,1.286318 1.8185,1.596801 0.26612,0.310484 -1.24197,2.79458 -1.33067,3.016354 -0.0887,0.221775 -0.17726,-0.310852 -0.44339,-1.242302 -0.26612,-0.931451 0.0885,-1.463486 -0.0889,-1.995744 -0.17742,-0.532257 -1.06454,-1.064539 -1.33067,-1.330668 -0.26613,-0.266128 0.0887,-0.93148 0.26614,-1.596801 0.17741,-0.665323 4.3e-4,-0.931311 -0.31006,-1.774052 -0.31048,-0.842742 -0.97617,-0.842679 -0.97617,-1.286227 0,-0.443548 0.22169,-2.040702 0.48782,-2.040702 z m 3.81476,1.242301 c 0.13302,0.399194 0.17725,0.754061 0.17725,1.596802 0,0.842741 -0.22152,0.443137 0.13332,1.10846 0.35484,0.665321 -0.62115,1.153669 -1.15341,0.754475 -0.53226,-0.399193 -0.4434,-1.330933 -0.70952,-1.730127 -0.26613,-0.399192 1.28624,-1.596545 1.55236,-1.72961 z m -0.88729,13.040031 c 0,0 0.31066,2.173271 0.0889,3.104721 -0.22177,0.931451 0.26595,2.395647 -0.0889,3.149678 -0.35484,0.754031 -0.48792,-0.443649 -0.7984,-0.842842 -0.31048,-0.399193 0.0889,-1.774319 0.35502,-2.173511 0.26613,-0.399194 -0.0444,-0.753795 0.26613,-1.197343 0.31048,-0.443548 0.17725,-1.597155 0.17725,-2.040703 z m -0.31057,7.984011 c 0,0 -0.44312,7.80625 -0.57619,8.33851 -0.13306,0.53226 -0.35485,-0.93131 -0.53227,-1.50792 -0.17742,-0.57661 0.26622,-0.84294 0.57671,-1.68569 0.31048,-0.84274 -0.22203,-2.0401 -0.13333,-2.52801 0.0887,-0.4879 0.53202,-2.17334 0.66508,-2.61689 z m -2.43913,1.64124 c 0,0 0.48782,2.04046 0.22169,2.70578 -0.26613,0.66532 -0.97583,-0.26639 -1.33067,-0.39946 -0.35483,-0.13306 0.0886,-0.79823 0.75396,-0.97565 0.66532,-0.17742 0.35502,-0.57664 0.35502,-1.33067 z m 8.66666,4.83227 c 0,0 -0.23952,3.10793 -0.37259,4.48293 -0.13306,1.37499 0.22186,4.74621 0.0444,4.87928 -0.17742,0.13306 -0.66542,1.41949 -0.57671,2.17351 0.0887,0.75404 -1.33033,0.48751 -1.68517,1.3746 -0.35484,0.8871 0.17725,1.10932 -0.35501,1.55287 -0.53226,0.44355 -0.70979,1.10881 -0.84285,1.55236 -0.13306,0.44355 1.95173,0.13299 2.17351,-0.0444 0.22177,-0.17742 1.86287,-0.35484 2.88303,-0.26613 1.02016,0.0887 2.39521,0.31057 2.39521,0.31057 l -0.48783,-1.28622 c 0,0 0.3992,-0.35502 0.53227,-0.0444 0.13306,0.31048 0.26623,1.10872 0.57671,0.97565 0.31048,-0.13306 0.84267,-1.24187 1.02009,-1.55236 0.0868,-0.15185 0.20429,-0.69715 0.17828,-1.34876 -0.71255,-1.05331 -1.75286,-0.93534 -1.75286,-0.93534 -0.0222,1.06451 -0.37717,2.28414 -1.1312,2.32854 -0.75404,0.0444 -1.66715,-0.15563 -1.90479,-2.2934 -0.0758,-0.68226 -0.35554,-5.66426 -0.6873,-11.84062 z m -4.85242,1.68775 c 0,0 0.57667,0.66543 0.53227,1.10897 -0.0444,0.44355 -0.22178,2.26223 -0.53227,2.17352 -0.31043,-0.0887 -0.53192,-1.10934 -0.3545,-1.81902 0.17741,-0.70967 0.3545,-1.46347 0.3545,-1.46347 z m 2.43964,2.48408 c 0,0 0.62115,3.01603 0.0889,3.90312 -0.53226,0.88709 -0.2664,-0.44374 -0.13333,-1.15341 0.1331,-0.70968 -0.0886,-2.2618 0.0444,-2.74971 z m -8.5788,17.49558 c 0,0 -2.19927,2.11023 -2.15491,3.3078 0.0443,1.19758 0.39929,2.39479 0.84284,3.23753 0.44355,0.84275 0.88703,1.37537 0.48783,1.50844 -0.39919,0.13306 -0.61866,-0.86474 -1.19786,-0.13333 -0.5792,0.73141 2.66126,3.23807 3.4153,4.30258 0.75401,1.06452 1.50801,3.06031 1.81849,3.59255 0.31049,0.53226 1.64124,1.77457 1.64124,1.77457 0,0 -0.17717,-1.64126 -0.66507,-2.43965 -0.4879,-0.79838 -0.66571,-1.46384 -1.2423,-2.43964 -0.57662,-0.9758 -1.06419,-1.55219 -0.88677,-1.72961 0.17742,-0.17742 0.70953,0.13298 0.97565,-0.0444 0.26613,-0.17742 0.79815,-1.05086 0.24391,-1.35289 -1.44154,-0.73186 -3.92513,-2.3953 -4.08037,-5.3449 -0.0834,-1.58551 0.25764,-3.02777 0.80305,-4.23488 z m 6.9944,16.60984 c 0,0 0.0765,0.93587 0.60875,1.73426 0.53226,0.79839 1.5081,1.10863 1.86294,1.19734 0.35484,0.0887 2.70569,-0.48773 3.1936,-0.17725 0.4879,0.31049 2.10664,1e-5 2.26188,1.06453 0.15524,1.06452 1.12232,-0.53697 0.53898,-1.79885 -1.5e-4,-3.4e-4 -3.5e-4,-7.3e-4 -5.1e-4,-0.001 -0.38891,-0.10731 -0.75219,-0.26966 -1.05162,-0.48575 -0.96364,-0.69543 -1.76147,-0.36101 -3.33881,0.0403 -1.24501,0.31679 -2.75794,-0.22491 -4.07521,-1.57354 z m 14.52418,3.15226 c 0,0 -1.03036,0.64462 -1.78439,1.02164 -0.75401,0.37701 -2.52826,-0.17791 -2.3952,0.0217 0.075,0.11249 0.42471,0.63348 1.1126,1.03508 0.0932,-0.0132 0.1964,-0.023 0.28473,-0.0367 0.99799,-0.15522 2.18027,-0.003 2.81637,-0.48782 0.69634,-0.53039 0.55379,-1.31323 -0.0341,-1.55391 z M 31.62505,88.450696 c 0,0 -0.22177,1.375 0.0444,1.818549 0.26613,0.443548 0.66532,1.729838 0.57661,2.439516 -0.0887,0.709677 0.0887,2.129032 0.0887,2.572581 0,0.443548 0.57661,1.951613 0.93145,1.862903 0.35484,-0.08871 0.75403,-0.133065 0.75403,-0.133065 0,0 0.35484,-0.754032 -0.17742,-1.463709 -0.53225,-0.709678 0.62097,-2.084678 0.0887,-2.616936 -0.53225,-0.532258 -0.62096,-1.28629 -0.75403,-2.084678 -0.13306,-0.798387 0.17742,-1.508064 -0.26613,-1.995967 -0.44355,-0.487904 -1.28629,-0.487904 -1.28629,-0.399194 z" /><path
     style="font-variation-settings:normal;opacity:1;vector-effect:none;fill:#067819;fill-opacity:1;stroke:none;stroke-width:0.264583;stroke-linecap:butt;stroke-linejoin:miter;stroke-miterlimit:10;stroke-dasharray:none;stroke-dashoffset:0;stroke-opacity:1;-inkscape-stroke:none;stop-color:#000000;stop-opacity:1"
     d="m 32.75382,49.48383 c -0.0941,0.125454 0.56455,1.003636 0.47046,1.630907 -0.0941,0.627272 -0.53318,0.595908 -0.345,1.22318 0.18818,0.627274 0.56454,1.160454 0.50182,1.38 -0.0627,0.219546 -0.28228,1.411362 -0.25091,1.850454 0.0314,0.439089 0,0.658635 0.28227,1.191815 0.28227,0.533181 0.50182,0.564544 0.59591,0.940909 0.0941,0.376364 0.53318,0.439089 0.47045,-0.09409 -0.0627,-0.533181 0,-1.317271 0.12546,-1.379998 0.12545,-0.06273 0.87818,0.09409 0.87818,-0.125455 0,-0.219546 0.21954,0.09409 0.28227,-0.156819 0.0627,-0.250909 0.43909,-0.972272 0.0627,-1.066363 -0.37636,-0.09409 -0.50182,-1.034997 -0.37636,-0.909545 0.12545,0.125455 0.37636,0.282273 0.43908,0.09409 0.0627,-0.188179 0.62728,-1.630907 0.62728,-1.75636 0,-0.125454 0.0627,-1.411364 -0.21955,-1.160454 -0.28227,0.25091 -0.50182,0.815454 -0.81545,0.909545 -0.31364,0.09409 -1.00364,0.219546 -1.09773,-0.219546 -0.0941,-0.439089 0.0314,-0.940909 -0.21954,-1.191816 -0.25091,-0.250909 -1.41137,-1.160454 -1.41137,-1.160454 z m 4.86136,1.191816 c 0,0.156818 -0.0941,0.784091 -0.0314,1.568181 0.0627,0.78409 0.18818,1.379999 0.15682,1.756362 -0.0314,0.376363 -0.47046,0.627272 -0.37637,1.787726 0.0941,1.160453 0.43909,1.56818 0.62728,0.878181 0.18818,-0.69 0.28227,-1.881817 0.28227,-2.571816 0,-0.69 0.15682,-2.069998 0.25091,-2.540453 0.0941,-0.470454 0.0627,-1.066362 -0.25091,-1.411362 -0.31364,-0.345 -0.25091,-0.564545 -0.40773,-0.909545 -0.15682,-0.344999 -0.43909,-0.219545 -0.50182,-0.03136 -0.0627,0.188181 0.25091,1.474089 0.25091,1.474089 z m 0.75273,-6.17863 c -0.37636,-0.03136 -0.59591,-0.878182 -0.90955,-0.658636 -0.31363,0.219545 0.18819,-0.188182 -0.21954,0.658636 -0.40773,0.846817 0,1.56818 0.12545,1.91318 0.12546,0.344999 0.25091,0.156818 0.37637,-0.376364 0.12545,-0.533181 0.28227,-0.721363 0.47045,-0.595908 0.18818,0.125454 0.43909,0.376363 0.43909,-0.03136 0,-0.407727 -0.28227,-0.909544 -0.28227,-0.909544 z M 34.82382,75.39017 c -0.18818,0.03136 -1.75636,-0.09409 -1.53682,0.06273 0.21955,0.156818 0.47046,0.439091 0.59591,0.658636 0.12546,0.219545 1.19182,0.595909 1.19182,0.846817 0,0.250909 -0.87818,0.721363 0.0941,0.752727 0.97227,0.03136 1.25455,-0.156818 1.41136,0.376363 0.15682,0.533182 0.40773,0.564545 0.40773,0.972272 0,0.407727 -0.18818,0.940908 0.18818,1.034999 0.37637,0.09409 0.62727,0.470454 0.62727,-0.43909 0,-0.909545 0.90955,-0.878181 1.06637,-1.066363 0.15682,-0.188182 0.31363,-0.470454 0.18818,-0.909545 -0.12546,-0.43909 0.0627,-0.752726 0.25091,-1.254544 0.18818,-0.501818 0.43909,-1.160453 0.0941,-1.097726 -0.345,0.06273 -4.57909,0.06273 -4.57909,0.06273 z m 2.34559,41.35891 c 0.13306,0.17742 0.44355,1.28629 0.84274,1.19758 0.39919,-0.0887 0.57661,-0.39919 0.44355,-0.9758 -0.13307,-0.57662 -0.13307,-1.06452 0.35484,-1.02016 0.4879,0.0444 0.53225,0.44354 0.79838,-0.3992 0.26613,-0.84274 0.35484,-0.84274 -0.31048,-1.72984 -0.66532,-0.88709 0.97581,-0.93145 1.06452,-1.375 0.0887,-0.44354 0.4879,-1.64112 0.0887,-1.24193 -0.3992,0.39919 -0.97581,0.84274 -1.59678,0.39919 -0.62097,-0.44355 -0.26613,-1.64113 -0.26613,-2.17338 0,-0.53226 0.75403,-3.72581 0.48791,-3.99194 -0.26613,-0.26613 -0.26613,-1.15323 -0.57662,-0.53226 -0.31048,0.62097 0.22178,2.21774 0.0887,2.61694 -0.13306,0.39919 -0.39919,0.57661 -0.4879,1.10887 -0.0887,0.53226 -0.57661,1.19758 -0.4879,1.99597 0.0887,0.79838 0.31048,1.375 0.17742,2.04032 -0.13307,0.66532 -0.48791,1.41935 -0.35484,1.72984 0.13306,0.31048 0.44354,0.0443 0.44354,0.44355 0,0.39919 -0.70967,1.90725 -0.70967,1.90725 z m -0.62097,-0.75403 c 0.0887,-0.4879 0.26613,-0.97581 0.17742,-1.59677 -0.0887,-0.62097 -0.31049,-1.64113 -0.31049,-1.64113 0,0 -0.53225,0.26613 -0.53225,0.57661 0,0.31049 -0.48791,-0.17742 -0.48791,-0.39919 0,-0.22178 -0.17742,-4.34678 0,-4.79033 0.17742,-0.44354 0.70968,-1.41935 0.70968,-1.68548 0,-0.26613 0.26613,-1.10887 0.26613,-1.375 0,-0.26613 -0.0443,-1.64113 0.17742,-1.41935 0.22177,0.22177 0.39919,0.79838 0.35484,1.68548 -0.0444,0.8871 -0.53226,2.2621 -0.44355,2.66129 0.0887,0.39919 0.62097,1.06452 0.62097,1.06452 0,0 0.22177,-0.0887 -0.17742,0.53226 -0.3992,0.62096 -0.66532,0.44354 -0.17742,1.06451 0.4879,0.62097 0.62097,0.93145 0.62097,1.33065 0,0.39919 -0.3992,1.55242 -0.3992,1.77419 0,0.22177 0.31049,0.93145 0.31049,1.24193 0,0.31049 -0.70968,0.97581 -0.70968,0.97581 z M 36.45974,97.1886 c 0,0 -1.02016,1.463709 -0.8871,1.862903 0.13307,0.399194 0.70968,0.931452 0.66533,1.419357 -0.0444,0.4879 0.0444,0.75403 0.0887,1.24193 0.0443,0.48791 0.57661,0.70968 0.57661,0.97581 0,0 0.53226,-0.66532 0.35484,-1.10887 -0.17742,-0.44355 -0.66533,-0.0887 -0.31049,-0.84274 0.35484,-0.754035 0.53226,-0.8871 0.31049,-1.286293 -0.22178,-0.399194 -0.44355,-1.46371 -0.48791,-1.729839 C 36.72591,97.454729 36.45974,97.1886 36.45974,97.1886 Z m 3.28225,-4.701613 c 0,0 -0.26613,1.907258 -0.0444,2.66129 0.22178,0.754032 -0.4879,1.596774 -0.35484,1.818548 0.13307,0.221775 -0.39919,0.975807 -0.17741,1.153226 0.22177,0.17742 0.4879,0.221775 0.66532,0.975807 0.17742,0.754032 0.13306,0.443548 0.53226,-0.354839 0.39919,-0.798387 -0.17742,-2.75 -0.17742,-3.149194 0,-0.399193 -0.44355,-3.104838 -0.44355,-3.104838 z m -4.9809,45.599033 c -0.18818,-0.12545 -1.47409,-1.035 -1.85045,-1.09772 -0.37636,-0.0627 -0.84682,-0.0941 -0.56454,0.21954 0.28227,0.31364 2.03863,0.90955 2.10136,1.41136 0.0627,0.50182 0.28227,1.38 0.53318,0.90955 0.25091,-0.47046 -0.21955,-1.44273 -0.21955,-1.44273 z M 32.29037,53.587791 c 0,0 -0.31048,1.064517 -0.31048,1.641129 0,0.576613 0.26613,0.887097 0.31048,0.709678 0.0444,-0.177419 0.35484,-0.576613 0.35484,-1.020161 0,-0.443549 -0.35484,-1.330646 -0.35484,-1.330646 z m 2.70565,6.342743 c 0,0 -0.0443,-1.197581 -0.4879,-1.330646 -0.44355,-0.133064 -1.15323,-0.665322 -1.15323,-0.665322 0,0 0,0.798387 0,1.064516 0,0.266129 0.44355,1.197581 0.70968,1.28629 0.26613,0.08871 0.93145,-0.354838 0.93145,-0.354838 z m 4.47984,40.229836 c 0,0 0.44355,1.24194 0.17742,1.95162 -0.26613,0.70967 -0.26613,0.57661 -0.26613,1.06451 0,0.48791 0.22177,0.93145 0.26613,1.15323 0.0443,0.22177 0.22177,0.4879 0.26613,0.8871 0.0444,0.39919 0.75403,-0.3992 0.53226,-1.41936 -0.22178,-1.02016 -0.70968,-0.62097 -0.31049,-1.33064 0.3992,-0.70968 -0.66532,-2.30646 -0.66532,-2.30646 z m 0.66532,-23.8629 c 0,0.266129 -0.4879,2.439516 -0.4879,2.439516 l 0.22177,0.399194 c 0,0 -0.22177,1.419354 0,1.641129 0.22178,0.221774 0.57662,-0.842742 0.48791,-1.197581 -0.0887,-0.354839 -0.22178,-3.282258 -0.22178,-3.282258 z m -0.93145,7.362903 c -0.22177,0 -0.57661,0.354839 -0.53226,0.754033 0.0444,0.399193 0.62097,0.354838 0.79839,0.709677 0.17742,0.354839 0.0887,0.221774 0.13306,1.020161 0.0444,0.798387 0.0444,0.975807 0.0444,0.975807 0,0 0.26613,-0.975807 0.26613,-1.596774 0,-0.620968 -0.70968,-1.862904 -0.70968,-1.862904 z m 0.57661,5.455646 c 0,0 -0.88709,1.330645 -0.79838,1.552419 0.0887,0.221774 0.35483,1.020161 0.39919,0.842742 0.0444,-0.177419 0.13306,-0.975806 0.22177,-1.28629 0.0887,-0.310484 0.17742,-1.108871 0.17742,-1.108871 z m -3.85887,28.431451 c 0,0 0.35484,1.10887 -0.4879,1.64113 -0.84274,0.53226 -0.66532,1.64113 -0.26613,1.50806 0.39919,-0.13306 0.75403,-0.17742 0.84274,-0.75403 0.0887,-0.57661 0.79839,-0.70968 0.66532,-1.06451 -0.13306,-0.35484 -0.75403,-1.33065 -0.75403,-1.33065 z m -1.19758,-4.87903 c 0,0 -0.39919,0.79839 -0.35484,1.10887 0.0444,0.31048 0.13307,0.79839 0.17742,0.53226 0.0444,-0.26613 0.17742,-1.64113 0.17742,-1.64113 z m -1.04234,25.59274 c -0.0887,0 -0.86492,-0.4879 -0.84274,-0.17742 0.0222,0.31049 0.75403,0.42137 0.75403,0.62097 0,0.1996 0.1996,0.35484 0.35484,0.51008 0.15524,0.15524 0.22178,0.35484 0.22178,0.17742 0,-0.17742 -0.48791,-1.13105 -0.48791,-1.13105 z m 3.52621,-57.350807 c 0,0 -0.35484,0.310484 -0.26613,0.665323 0.0887,0.354839 0.33266,0.354839 0.42137,0.709677 0.0887,0.354839 0.11089,1.264113 0.22178,1.308468 0.11089,0.04435 0.1996,-0.643145 0.24395,-0.864919 0.0443,-0.221775 0.17742,-0.199597 0.0222,-0.665323 -0.15524,-0.465726 -0.64315,-1.153226 -0.64315,-1.153226 z m 0.3387,-32.618361 c 0.12545,0.06273 0.65863,0.533182 0.78409,0.909545 0.12545,0.376363 0.28227,0.940908 0.40772,0.78409 0.12546,-0.156818 0.12546,-1.630908 0.0941,-1.850453 -0.0314,-0.219545 0.0314,-1.034999 -0.0627,-0.815454 -0.0941,0.219546 -0.59591,0.501818 -0.75273,0.501818 -0.15682,0 -0.47045,0.470454 -0.47045,0.470454 z"
     id="path12294" /><path
     id="path18979"
     style="font-variation-settings:normal;opacity:1;fill:#000000;fill-opacity:1;stroke:none;stroke-width:0.132292;stroke-linecap:butt;stroke-linejoin:miter;stroke-miterlimit:10;stroke-dasharray:none;stroke-dashoffset:0;stroke-opacity:1;stop-color:#000000;stop-opacity:1"
     d="m 41.849127,32.516363 c 0,0 -0.08382,7.982134 0.06925,17.800981 0.0094,0.369725 0.01439,0.741854 0.02481,1.111043 0,0 4.32859,2.508898 7.621757,5.36298 0,0 -2.117145,2.038678 -3.842143,3.167766 -1.724998,1.129088 -2.320789,1.317232 -2.320789,1.317232 0,0 -4.192057,-2.033124 -7.917863,-2.121834 -3.725806,-0.08871 -6.897394,1.330377 -9.603032,4.080371 l 7.144267,11.375533 c 0,0 0.5283,0.486517 1.140499,0.555005 0.61219,0.06849 7.115615,0.343515 8.237224,0.222726 1.441538,-0.155243 2.739372,-1.723092 6.816638,-1.660364 4.077256,0.06273 6.931358,0.157128 10.600904,0.06305 0,0 2.586536,5.012887 5.292184,8.051189 l 1.042313,-0.59893 c 2.672038,4.99823 6.263977,9.569311 9.802503,14.260112 0,0 -6.187394,1.374808 -12.596647,3.592545 -6.409264,2.217737 -9.846754,5.389317 -11.332642,8.804627 -1.485879,3.41532 1.152901,13.15114 1.152901,13.15114 l 1.286743,-0.1111 c 0,0 -0.754104,2.6394 -1.619023,4.1031 -0.864919,1.46371 -1.375227,1.48582 -2.484086,1.28623 -1.108869,-0.1996 -3.478695,-0.66473 -5.499923,-0.15503 -2.021228,0.50971 -4.812343,2.06221 -6.253882,3.28197 l 8.560201,9.97975 c 0,0 2.528297,-0.59861 6.098853,-0.17725 3.570557,0.42137 5.411251,0.68751 7.362859,-1.57458 1.951618,-2.26209 5.966044,-7.20783 5.966044,-7.20783 l 0.997872,1.06454 c 0,0 2.217557,-1.86264 3.592545,-4.61264 1.374999,-2.75 0.975858,-5.25597 0.554489,-8.13904 -0.42137,-2.88305 1.086812,-4.21397 4.280359,-5.41155 3.193546,-1.19758 8.892997,-2.86081 8.892997,-2.86081 0,0 0.731676,2.37269 -2.195731,3.5481 -2.381998,0.9564 -4.568293,2.75021 -4.878773,4.85707 -0.310479,2.10686 0.864774,6.6754 3.880901,9.49193 l 1.308447,-1.1312 c 3.202187,2.00638 7.248122,1.4756 11.643217,-0.15503 1.875648,0.66883 1.65573,2.40299 0.199471,2.92747 -1.456258,0.52448 -6.076267,0.97555 -9.580294,2.23966 -3.504026,1.26411 -5.012097,4.21369 -5.012097,4.21369 l 8.781893,10.91148 c 0,0 4.848613,-2.96783 12.250416,-7.35872 7.40179,-4.39091 9.44025,-5.30042 10.66343,-10.28723 1.22318,-4.9868 0.18829,-9.65983 -1.09761,-11.38483 -1.2859,-1.72498 -2.27386,-1.1759 -3.26181,-0.97204 -0.98795,0.20387 -2.82248,-0.29813 -2.60294,-2.43086 0.21955,-2.13271 1.85613,-4.53989 1.81332,-8.52144 -0.0428,-3.98154 -2.72306,-7.960176 -3.3817,-15.079701 -0.65862,-7.119524 -2.80852,-13.476865 -6.119527,-30.423467 l 2.271179,-0.676961 c 0,0 1.219318,-4.612684 1.618508,-7.007841 l 1.37511,-0.288355 c 0,0 1.08819,-3.968012 1.64124,-10.179224 0.55305,-6.211209 -1.7185,-12.184396 -2.15491,-13.56403 -0.43642,-1.379635 -1.74821,-3.779098 -1.74821,-3.779098 1.61143,-1.031548 3.88947,-3.445956 3.81424,-5.122684 l -5.566588,-0.466122 0.791683,-1.663464 c 0,0 2.822805,-0.940756 3.073715,-3.638021 0,0 -1.91331,-0.251267 -4.610572,-0.376721 -0.33716,-0.01568 -0.693758,-0.0207 -1.062467,-0.01654 -2.580948,0.02916 -5.74728,0.502674 -6.872449,0.831991 -1.285909,0.376362 -3.007057,1.314663 -7.486882,2.113049 -4.479836,0.798385 -8.738224,1.707563 -8.871294,1.796273 -0.133059,0.08871 -1.086439,1.619114 -3.038057,1.929598 -1.951608,0.310483 -3.502622,0.494846 -5.07876,1.064534 -1.576148,0.569689 -2.262022,1.108759 -3.126941,0.997872 -0.22705,0.719129 0.0104,1.734157 0.59893,2.239657 0,0 0.288056,2.328874 2.771924,4.080888 0,0 2.207177,-1.384208 5.402254,-1.138432 3.195087,0.245777 4.624221,4.452738 3.065963,6.184119 -1.558238,1.73138 -5.119503,1.585156 -7.181991,0.653707 0,0 -0.8202,-0.310445 -1.13068,-0.243913 -0.31048,0.06653 0.643151,2.040309 0.798401,3.947563 0,0 0.798247,-0.06658 2.040185,-0.288354 1.241929,-0.221774 2.483718,-0.287991 3.614767,0.687813 0,0 -0.221688,1.729587 -2.062407,2.771924 -1.840718,1.042336 -3.336592,1.399598 -5.34386,2.56005 0,0 0.09419,1.756484 -2.634464,2.164209 -2.728628,0.407726 -7.245119,-2.41512 -9.503296,-3.795117 -1.806311,-1.103855 -5.517483,-3.79571 -8.667947,-7.381462 -1.231503,-1.075452 -2.21511,-2.84272 -2.21511,-2.84272 z M 76.1845,22.001242 c 0.697248,-3.6e-5 1.262494,0.565207 1.262455,1.262455 3.9e-5,0.697248 -0.565207,1.262491 -1.262455,1.262455 -0.697253,4.1e-5 -1.262495,-0.565203 -1.262456,-1.262455 -3.9e-5,-0.697252 0.565203,-1.262496 1.262456,-1.262455 z" /><path
     id="path19767"
     style="font-variation-settings:normal;opacity:1;fill:#e90606;fill-opacity:1;stroke:none;stroke-width:0.132292;stroke-linecap:butt;stroke-linejoin:miter;stroke-miterlimit:10;stroke-dasharray:none;stroke-dashoffset:0;stroke-opacity:1;stop-color:#000000;stop-opacity:1"
     d="m 70.4696,27.679965 c -3.06752,-0.02193 -4.80229,1.557011 -4.80229,1.557011 0,0 0.12805,1.365968 1.17874,2.212784 0,0 0.51957,-1.589548 3.12074,-2.148189 2.60118,-0.55864 4.4693,1.42667 4.1243,3.339848 -0.11536,0.639719 -0.55532,1.102108 -1.14412,1.416968 -0.86004,-2.938372 -3.69629,-3.777562 -5.92832,-2.546098 -2.27387,1.254544 -3.94705,1.442695 -5.25343,0.376721 -1.30332,-1.063473 -1.31801,-3.009927 -0.894,-3.763595 -0.8528,0.204804 -2.28981,1.024209 -2.14819,3.324345 0.13606,2.209781 2.14775,3.52598 4.20233,3.261817 2.05457,-0.264162 2.90147,-1.442648 4.09329,-2.226738 1.18128,-0.777159 3.47172,-0.537162 4.50463,2.032435 -0.90985,0.151978 -1.85908,0.09708 -2.48202,-0.10387 -1.45839,-0.470454 -2.11666,-1.693437 -2.11666,-1.693437 0,0 -0.52208,0.935965 0.0289,2.216402 2.06249,0.93145 5.96595,1.530361 7.76231,-0.465604 1.79638,-1.995966 -0.15509,-6.4978 -3.61476,-6.763929 -0.21623,-0.01663 -0.42699,-0.02541 -0.63149,-0.02687 z" /><path
     id="path26098"
     style="font-variation-settings:normal;opacity:1;fill:#e90606;fill-opacity:1;stroke:none;stroke-width:0.132292;stroke-linecap:butt;stroke-linejoin:miter;stroke-miterlimit:10;stroke-dasharray:none;stroke-dashoffset:0;stroke-opacity:1;stop-color:#000000;stop-opacity:1"
     d="m 25.88111,63.234901 c 0,0 -2.42653,2.965699 -2.89698,6.274553 0,0 0.83345,-0.810037 1.87327,-1.654163 -0.36834,1.272908 -0.8161,2.585521 -1.03198,3.782198 0,0 1.18673,-0.958735 2.83083,-2.021582 -0.62648,1.695652 -1.31891,3.140264 -1.5937,4.998662 0,0 0.92974,-1.005401 2.43655,-1.871204 l -1.08573,3.594613 c 0,0 1.07948,-0.87976 2.46497,-1.850533 l -0.6444,3.03754 c 0,0 2.0835,-1.906409 4.79143,-2.914551 z" /><path
     id="path26834"
     style="font-variation-settings:normal;opacity:1;fill:#ff5131;fill-opacity:1;stroke:none;stroke-width:0.132292;stroke-linecap:butt;stroke-linejoin:miter;stroke-miterlimit:10;stroke-dasharray:none;stroke-dashoffset:0;stroke-opacity:1;stop-color:#000000;stop-opacity:1"
     d="m 25.88111,63.234901 c 0,0 -3.02244,2.620696 -2.89698,6.274553 0,0 1.02063,-3.723501 3.56205,-5.215186 z m 1.13946,1.81436 c 0,0 -3.28924,2.981418 -3.19515,6.588228 0,0 0.86963,-3.306654 3.98784,-5.326091 z m 1.53479,2.443778 c 0,0 -3.39872,2.558129 -3.49281,7.12153 0,0 0.80444,-3.770649 4.2558,-5.906678 z m 1.4764,2.350761 c 0,0 -3.11658,1.883733 -3.61839,6.494178 0,0 0.89056,-3.496702 4.19907,-5.569554 z m 1.28726,2.050004 c 0,0 -3.30463,1.836189 -3.08508,5.631181 0,0 0.98638,-3.653301 3.69432,-4.661444 z" /><path
     id="path26098-6"
     style="font-variation-settings:normal;fill:#e90606;fill-opacity:1;stroke:none;stroke-width:0.132292;stroke-linecap:butt;stroke-linejoin:miter;stroke-miterlimit:10;stroke-dasharray:none;stroke-dashoffset:0;stroke-opacity:1;stop-color:#000000"
     d="m 38.61093,129.45674 c -0.66968,0.87985 -1.96708,3.1279 -2.65047,5.78722 0,0 1.40233,-0.70314 2.32718,-1.1664 l -0.81311,2.52468 c 0,0 1.66895,-0.9428 2.62088,-1.17433 l -0.97726,2.52894 c 0,0 1.82114,-1.01359 2.57454,-0.94041 -0.42741,1.29925 -0.54256,2.54646 -0.46886,3.7622 0,0 1.13907,-1.62239 2.35413,-2.49269 -0.39645,1.27112 -0.71801,3.50415 -0.71801,3.50415 0,0 1.85128,-1.62916 4.31147,-2.35352 z" /><path
     id="path26834-3"
     style="font-variation-settings:normal;fill:#ff5131;fill-opacity:1;stroke:none;stroke-width:0.132292;stroke-linecap:butt;stroke-linejoin:miter;stroke-miterlimit:10;stroke-dasharray:none;stroke-dashoffset:0;stroke-opacity:1;stop-color:#000000"
     d="m 38.61093,129.45674 c 0,0 -2.45319,2.12702 -2.65047,5.78722 0,0 1.20266,-3.04644 3.44744,-4.85778 z m 1.76513,2.05779 c 0,0 -3.07482,2.23692 -2.90153,5.08771 0,0 0.5667,-2.79252 3.65427,-4.21016 z m 1.66962,1.94645 c -1.37838,0.80741 -2.97812,2.25214 -2.92753,4.49587 0.78004,-1.50436 2.2832,-3.00988 3.61139,-3.6986 z m 1.21314,1.41428 c -1.54069,1.20576 -2.93449,2.72469 -2.03499,5.90338 0.5218,-2.6318 1.0157,-3.66496 2.77509,-5.04057 z m 1.61016,1.87713 c 0,0 -2.77006,1.3956 -2.00903,5.03771 0,0 0.52101,-2.51877 2.99687,-3.88609 z" /><path
     id="path45679"
     style="font-variation-settings:normal;fill:#e90606;fill-opacity:1;stroke:none;stroke-width:0.132292;stroke-linecap:butt;stroke-linejoin:miter;stroke-miterlimit:10;stroke-dasharray:none;stroke-dashoffset:0;stroke-opacity:1;stop-color:#000000"
     d="m 80.28232,136.50916 c -0.4097,1.13627 -1.84385,3.59755 -2.50486,6.82766 0.89786,-1.34679 2.01316,-2.60006 3.20424,-2.89422 -0.79156,1.31062 -1.30864,2.49458 -1.61521,4.59051 0,0 1.67538,-1.39179 2.69666,-1.6066 -0.56745,1.07028 -0.90728,2.13931 -1.03611,3.36981 0,0 1.83979,-1.55079 2.75042,-1.84697 -0.39592,1.36914 -0.66234,2.75981 -0.75765,4.05672 0,0 1.53302,-1.66731 2.85577,-2.55347 -0.22978,1.14759 -0.51686,2.32543 -0.59295,3.97324 0,0 1.75931,-1.71732 3.78196,-3.00539 z" /><path
     id="path45681"
     style="font-variation-settings:normal;fill:#ff5131;fill-opacity:1;stroke:none;stroke-width:0.132292;stroke-linecap:butt;stroke-linejoin:miter;stroke-miterlimit:10;stroke-dasharray:none;stroke-dashoffset:0;stroke-opacity:1;stop-color:#000000"
     d="m 80.28232,136.50916 c 0,0 -2.17284,2.93704 -2.50486,6.82766 0,0 1.05893,-3.72573 3.50943,-5.57956 z m 2.13213,2.64902 c -1.45087,0.96725 -3.27095,2.59009 -3.04796,5.87493 0,0 1.10307,-3.51379 3.90554,-4.80947 z m 1.94749,2.41961 c -1.49453,0.81376 -3.73536,2.51735 -3.3349,5.21853 0.83633,-2.37416 2.44954,-3.84392 3.88668,-4.53299 z m 1.25963,1.56499 c -1.68063,1.2325 -3.12093,2.60405 -2.60176,5.86329 0.64329,-2.78482 1.75256,-3.95653 3.27253,-5.02993 z m 1.61754,2.00965 c 0,0 -2.64544,1.37012 -1.95648,5.27341 0,0 0.22739,-2.71644 2.90914,-4.0898 z" /><path
     style="font-variation-settings:normal;opacity:1;fill:#067819;fill-opacity:1;stroke:none;stroke-width:0.0661458;stroke-linecap:butt;stroke-linejoin:miter;stroke-miterlimit:10;stroke-dasharray:none;stroke-dashoffset:0;stroke-opacity:1;stop-color:#000000;stop-opacity:1"
     d="m 52.07263,18.791419 c -0.55443,-3.215726 0.35484,-4.657258 0.35484,-4.657258 -0.79838,-1.397178 -0.79838,-2.550404 -1.1754,-2.727823 -0.37702,-0.177419 -0.97581,-0.243952 -2.01815,0.443548 -1.04233,0.6875 -2.59475,0.08871 -2.59475,0.08871 0,0 -2.45061,1.30332 -6.54233,0.399194 -4.09173,-0.904126 -6.8206,-4.9542237 -6.8206,-4.9542237 -0.23522,1.8347711 2.48849,4.8873417 2.48849,4.8873417 0,0 -0.48614,0.799772 -1.01932,0.250909 -0.53318,-0.548863 -1.53681,-2.069998 -1.53681,-2.069998 0,0 -0.48614,0.925226 -0.65864,1.411362 -0.1725,0.486136 -0.0157,0.862499 0.59591,1.270226 0.6116,0.407727 0.69,1.395681 0.69,1.395681 -1.8975,-0.799772 -3.71659,-3.842042 -3.71659,-3.842042 0,0 0.0314,4.312496 2.61886,4.594769 l -1.06873,0.826137 c 0,0 5.47782,1.153225 10.29032,0.199596 4.8125,-0.953629 8.29436,-4.435484 8.29436,-4.435484 0.54025,0.252118 0.42767,1.496221 -1.64113,3.193549 0,0 0.26716,0.4261 0.6945,1.000984 0.169,-0.860467 0.4613,-1.28399 0.83793,-1.779999 -0.12069,0.801259 -0.23526,1.608654 -0.31463,2.451238 0.16272,0.198624 0.33691,0.401796 0.51945,0.601469 0.0863,-1.206861 0.25767,-2.377331 0.92232,-2.196672 -0.11869,0.99004 -0.20402,1.989611 -0.0341,3.062104 0.27401,0.231854 0.55471,0.434223 0.83422,0.586682 z m 6.7914,1.069482 c -3.13636,-0.689999 -6.10022,-4.453632 -6.10022,-4.453632 0,0 -0.42341,2.35227 0.12545,3.904769 l 0.43909,0.345 c 0,0 -0.64295,-2.477725 0.5175,-2.148408 0,0 0,1.693635 0.36068,2.650225 0,0 1.26163,1.048211 2.68047,0.923651 1.41884,-0.124561 1.97703,-1.221605 1.97703,-1.221605 z m -7.05927,7.661353 c -1.10759,-2.854854 -0.41963,-6.867932 -0.41963,-6.867932 -1.26411,-0.399193 -2.5504,-1.131048 -2.5504,-1.131048 0,0 -1.01069,0.745354 -1.32433,1.968535 l 0.53318,0.454772 c 0,0 -1.83477,3.324542 -1.16045,6.25704 0,0 1.05068,-1.583862 1.5525,-2.069998 0,0 0.76841,0.705681 1.58386,1.144771 0,0 0.20386,2.854089 1.67795,4.234088 0,0 1.00364,0 1.48977,-0.01568 0,0 -1.64658,-1.897501 -2.17977,-3.904771 z m -11.41963,2.025214 c -0.90927,-3.570565 2.04033,-6.786291 2.04033,-6.786291 l -0.3992,-0.643145 c -1.88508,1.241936 -2.94198,3.897191 -2.94198,3.897191 -1.80649,-4.224471 2.89762,-8.066546 2.89762,-8.066546 2.90525,-0.576613 5.10081,-1.774194 5.10081,-1.774194 0,0 0.42138,1.264113 0.97581,2.0625 0,0 -1.90726,1.995968 -2.97177,5.012097 -1.06452,3.01613 0.24395,8.937501 4.79032,11.421372 0,0 -1.24194,0.665322 -2.97178,0.532258 l -0.33266,-1.241936 h -0.93145 l 0.22178,1.330646 -0.66533,-0.06653 c 0,0 -0.35484,-0.864919 -0.46572,-2.040322 l -0.77621,-0.02218 c 0,0 -0.17742,-1.752016 0.0665,-3.570564 l -0.97578,0.221773 c 0,0 -0.13306,-2.328629 0.57662,-4.21371 l -0.77621,-0.08871 c 0,0 -0.93145,3.348791 -0.84274,6.298388 l -0.55444,-0.04435 c 0,0 -0.44355,-4.102823 0.79839,-6.542339 0,0 -1.46372,1.064511 -1.86291,4.324592 z M 20.1815,31.543436 c -1.44154,0.665323 -3.28225,-0.110888 -3.28225,-0.110888 0.93145,1.286291 2.57258,2.129033 2.57258,2.129033 l -1.375,1.774193 c 0.88709,-0.51008 1.84072,-0.399193 1.84072,-0.399193 -0.26613,1.175403 -2.10778,3.623453 -2.10778,3.623453 0.77621,-0.243952 2.26302,-1.028695 2.26302,-1.028695 l 0.62097,0.665323 c -2.90619,2.958558 -6.37656,5.317224 -10.46774,5.610887 0,0 1.85231,0.738231 4.30224,0.789202 3.64498,-2.341915 6.8804,-5.176559 10.35549,-8.042836 -1.93418,2.967589 -5.11973,5.777735 -8.44805,7.918957 1.18321,-0.148645 2.5051,-0.437568 3.84175,-0.825314 2.21437,-1.646441 3.85615,-3.407402 5.49279,-5.16939 -1.06454,1.684796 -2.16312,3.353882 -3.98123,4.690875 1.98492,-0.611253 3.87617,-1.369409 5.7639,-2.750679 1.88773,-1.38127 3.12069,-2.93138 3.12069,-2.93138 0,0 -1.32437,-1.853049 -2.31481,-3.575318 l 0.23504,-1.677822 c 0,0 1.50545,3.230452 4.29681,6.178631 0,0 1.035,-1.254544 2.16409,-2.226816 0,0 -1.22318,-1.975907 -1.22318,-4.390905 l 0.28227,-0.156818 c 0,0 0.75273,3.920451 2.07,5.174995 0,0 -0.78409,-4.045905 -0.43909,-6.680448 l 0.87818,1.881816 c 0,0 1.12909,-1.881816 2.32091,-3.04227 l -0.18818,-1.881816 c 0,0 -2.4145,-0.826519 -1.74068,-3.622497 0.67382,-2.795978 2.93249,-5.12795 2.93249,-5.12795 0,0 -5.85897,0.103625 -10.80475,-1.662271 -4.49793,-1.605987 -5.52965,-5.352415 -5.52965,-5.352415 0,0 -0.60195,3.690143 1.93851,5.321051 l -0.345,0.564545 c 0,0 -2.28955,-1.034999 -2.72864,-4.265451 0,0 -0.26658,1.379999 0.2666,3.73227 0.53318,2.35227 2.65022,3.073633 2.65022,3.073633 l -0.21955,0.752727 c 0,0 -2.47772,0.43909 -3.32454,-4.579087 0,0 -0.1936,2.103524 0.26659,3.591133 0.67432,2.179771 2.71295,2.211135 2.71295,2.211135 l -0.21954,1.160453 c 0,0 -2.8384,-0.533181 -4.01454,-3.920451 0,0 -0.40773,4.296815 1.53681,6.899994 0,0 -2.72545,1.15221 -7.82626,-2.950613 0,0 1.10888,2.439516 4.90121,3.548387 0,0 -2.09609,-0.129257 -3.64785,-1.127243 0.0644,1.094462 1.78164,2.219139 4.11162,3.137126 -1.23872,-0.09123 -2.47031,-0.379927 -3.52425,-0.945366 0,0 0.13306,1.042338 1.30847,1.707661 l -1.39718,-0.332661 c 0,0 1.81855,2.195564 4.10282,2.639113"
     id="path950" /><a
     id="a2776"
     transform="translate(-216.80641,14.732951)"><path
       style="font-variation-settings:normal;opacity:1;fill:#000000;fill-opacity:1;stroke:none;stroke-width:0.132292;stroke-linecap:butt;stroke-linejoin:miter;stroke-miterlimit:10;stroke-dasharray:none;stroke-dashoffset:0;stroke-opacity:1;stop-color:#000000;stop-opacity:1"
       d="m 251.83425,6.5706585 c 0,0 -1.51616,-1.4169352 -4.35642,-0.8488842 -2.84025,0.5680512 -5.12611,2.5932125 -6.60887,4.9233877 -1.43995,2.262886 -1.77917,5.23078 -0.77621,7.451613 1.00295,2.220833 3.88105,4.502016 3.88105,4.502016 1.06451,-1.508065 1.65049,-3.10644 1.65049,-3.10644 l -1.86655,-5.143356 1.86862,-1.946651 2.10051,-1.926116 1.77057,-1.9764882 z"
       id="path62781" /></a><path
     id="path55434"
     style="font-variation-settings:normal;opacity:1;fill:#ff5131;fill-opacity:1;stroke:none;stroke-width:0.132292;stroke-linecap:butt;stroke-linejoin:miter;stroke-miterlimit:10;stroke-dasharray:none;stroke-dashoffset:0;stroke-opacity:1;stop-color:#000000;stop-opacity:1"
     d="m 35.02784,21.303609 c -0.67978,0.0131 -1.40105,0.440735 -1.86191,0.980819 1.08282,0.895132 2.79263,2.497288 3.63389,4.429187 0.43909,-2.634541 -0.35168,-4.382877 -1.77198,-5.410006 z m -2.33681,1.929082 c -0.58894,0.08676 -1.12438,0.540876 -1.45314,1.097607 1.29284,0.776808 2.94722,2.576869 3.6959,4.547526 0.95658,-2.728632 -0.4461,-4.83755 -2.24276,-5.645133 z m -1.77199,1.97559 c -0.62327,0.03407 -1.28295,0.502092 -1.66501,1.053682 1.11059,0.697745 2.58305,2.317433 3.57807,4.168221 0.31364,-2.117041 -0.41436,-4.273183 -1.91306,-5.221903 z m -2.09909,1.927014 c -0.5345,0.01366 -1.02251,0.359314 -1.36788,0.811837 l 3.65508,4.647261 c 0.40773,-2.320905 -0.83784,-4.633766 -2.17972,-5.457031 -0.036,-0.0021 -0.0718,-0.003 -0.10748,-0.0021 z m -1.86862,1.946651 c -0.57197,0.03763 -1.11585,0.386772 -1.47692,0.856279 l 3.34347,4.287077 c 0.31364,-2.117042 -0.72853,-4.147591 -1.86655,-5.143356 z" /><path
     id="path56178"
     style="font-variation-settings:normal;opacity:1;fill:#e90606;fill-opacity:1;stroke:none;stroke-width:0.132292;stroke-linecap:butt;stroke-linejoin:miter;stroke-miterlimit:10;stroke-dasharray:none;stroke-dashoffset:0;stroke-opacity:1;stop-color:#000000;stop-opacity:1"
     d="m 36.79973,26.713849 c -1.06894,-1.468253 -2.59011,-2.86484 -4.10864,-3.48136 0.0448,-0.316491 0.22005,-0.649567 0.47489,-0.94821 1.88996,0.873221 3.15972,2.499859 3.63375,4.42957 z m -1.86613,2.164089 c -1.05326,-1.468253 -1.94716,-2.519841 -4.01455,-3.669542 0.0419,-0.296135 0.15452,-0.599827 0.31878,-0.877983 2.11727,0.794447 3.22212,2.485851 3.69577,4.547525 z m -2.10137,1.552498 c -1.06894,-1.468253 -2.27647,-2.457113 -3.90477,-3.293178 0.005,-0.281781 0.1288,-0.589728 0.32657,-0.87526 1.69073,0.560891 2.90223,2.173086 3.5782,4.168438 z m -1.725,2.16409 c -1.06894,-1.468253 -2.6842,-2.86484 -4.15568,-3.512724 0.0528,-0.372974 0.23431,-0.785549 0.50064,-1.134528 1.83091,0.874034 3.34134,2.37264 3.65504,4.647252 z m -2.28954,1.630907 c -1.06894,-1.468253 -2.46465,-2.378703 -3.77932,-3.042269 -0.0207,-0.42715 0.15026,-0.873695 0.43581,-1.245007 1.4593,0.59816 2.85365,2.233544 3.34351,4.287276 z" /></svg>
