<?xml version="1.0" encoding="UTF-8" standalone="no"?>
<svg
   xmlns:dc="http://purl.org/dc/elements/1.1/"
   xmlns:cc="http://creativecommons.org/ns#"
   xmlns:rdf="http://www.w3.org/1999/02/22-rdf-syntax-ns#"
   xmlns:svg="http://www.w3.org/2000/svg"
   xmlns="http://www.w3.org/2000/svg"
   width="500"
   height="558"
   viewBox="0 0 132.29166 147.6375"
   version="1.1"
   id="svg847">
  <defs
     id="defs841" />
  <metadata
     id="metadata844">
    <rdf:RDF>
      <cc:Work
         rdf:about="">
        <dc:format>image/svg+xml</dc:format>
        <dc:type
           rdf:resource="http://purl.org/dc/dcmitype/StillImage" />
        <dc:title></dc:title>
      </cc:Work>
    </rdf:RDF>
  </metadata>
  <g
     id="layer1"
     transform="translate(-34.336921,-34.301266)">
    <path
       id="path846"
       style="font-variation-settings:normal;vector-effect:none;fill:#bf9f4f;fill-opacity:1;stroke:none;stroke-width:0.264582;stroke-linecap:butt;stroke-linejoin:miter;stroke-miterlimit:4;stroke-dasharray:none;stroke-dashoffset:0;stroke-opacity:1;stop-color:#000000"
       d="m 156.94965,146.90446 c 4.13649,-8.40809 6.58406,-17.9506 6.91925,-28.2017 l 2.75969,-84.401494 H 48.884523 l -14.103735,13.568364 2.316315,70.83313 c 1.176036,35.96661 28.32097,63.23601 63.385657,63.23601 17.83877,0 33.62491,-7.06097 44.98775,-18.73113 z" />
    <path
       id="path882"
       style="font-variation-settings:normal;vector-effect:none;fill:#0058c7;fill-opacity:1;stroke:none;stroke-width:0.264583;stroke-linecap:butt;stroke-linejoin:miter;stroke-miterlimit:4;stroke-dasharray:none;stroke-dashoffset:0;stroke-opacity:1;stop-color:#000000"
       d="m 90.056819,111.31719 c -4.128784,-4.30216 -9.205833,-9.20401 -13.201713,-11.655723 -3.995866,-2.451735 -8.538961,-3.45392 -10.601205,-1.663813 -2.062245,1.790122 -1.250162,3.985726 1.065758,7.972506 2.315937,3.98679 2.647628,5.77953 1.42484,7.22538 5.632564,4.52205 8.199494,7.53383 11.661434,12.09623 0.167099,-1.01412 0.533204,-1.7498 0.533204,-1.7498 0,0 0.71699,0.19693 2.011119,1.54541 l 4.253446,4.43203 c 3.097375,3.22745 7.113213,5.47291 10.464362,5.02443 -1.284092,-1.08852 -2.552037,-2.25023 -4.103144,-3.87907 -1.551112,-1.6288 -5.798989,-6.04247 -5.798989,-6.04247 -1.678375,-1.74885 -1.943291,-2.64004 -1.943291,-2.64004 0,0 0.750964,0.16372 2.045092,1.5122 l 6.267663,6.53084 c 4.869635,5.07411 10.292655,8.73123 14.031885,8.05223 0,0 -3.93231,-3.70177 -6.05505,-5.91364 l -7.069344,-7.3662 c -1.678374,-1.74885 -1.905008,-2.67668 -1.905008,-2.67668 0,0 0.918965,0.26514 2.59734,2.01399 l 8.128532,8.46987 c 6.31549,6.58066 12.43756,10.84167 17.14236,10.96116 z m 35.417741,51.30761 c -0.41326,-0.43321 -1.09327,-1.06009 -2.15994,-1.83548 -2.15065,-1.56337 -35.985451,-27.92053 -40.226888,-31.54793 -4.241419,-3.62736 -5.254467,-6.16864 -10.057328,-10.77709 -4.802843,-4.60845 -9.626106,-8.04354 -11.626309,-10.03512 -2.000207,-1.99156 -3.64668,-4.78334 -6.315758,-6.48203 -2.549483,-1.62259 -5.213208,-1.27333 -5.213208,-1.27333 0,0 0.118505,1.53879 0.190981,2.41847 0,0 -1.501744,-0.12048 -2.616234,-0.19255 0,0 -0.181025,3.96994 2.55379,7.71076 2.734838,3.74085 3.422083,4.82221 5.067694,7.79021 1.645613,2.96799 2.414621,4.32587 3.363425,5.32339 1.223527,-0.60645 2.950677,-2.24375 2.950677,-2.24375 0.05593,0.69741 -0.317117,1.2573 -1.369284,2.15005 -1.052163,0.89277 -2.308357,1.50369 -2.308357,1.50369 0,0 -2.484346,-3.2829 -5.930176,-5.47955 -3.445822,-2.19665 -5.662959,-1.58846 -7.220997,0.73778 -1.55803,2.32623 -0.854827,6.03624 1.299455,9.89613 2.154301,3.85992 4.244028,6.24314 8.018358,10.17596 l 17.088906,17.80647 c 5.851907,6.09763 18.480881,19.81645 18.480881,19.81645 0.08003,-4.69946 -3.573149,-10.25 -9.841435,-16.87552 l -9.334037,-9.86605 c -1.665837,-1.76077 -1.905009,-2.67669 -1.905009,-2.67669 0,0 0.933138,0.25169 2.597342,2.01399 l 8.274821,8.76237 c 2.122735,2.21187 5.658881,6.29288 5.658881,6.29288 0.837871,-3.7022 -3.465878,-10.04093 -8.335524,-15.11506 l -7.07316,-7.37015 c -1.294127,-1.34848 -1.42641,-2.10508 -1.42641,-2.10508 0,0 0.880297,0.30285 2.55867,2.05169 0,0 4.500654,4.84228 6.064344,6.45906 1.563686,1.61677 2.672474,2.93083 3.706965,4.25827 0.590805,-3.32473 -2.816197,-9.37408 -6.853461,-13.58085 l -5.054649,-5.25677 c 0,0 0.979549,-1.35712 3.469188,-2.75184 0.214987,0.69278 -0.391675,1.54593 -1.533269,2.52504 16.518051,14.68629 40.916125,37.61906 42.132155,38.62481 1.21604,1.00576 1.80012,1.2028 1.80012,1.2028 0,0 -0.3586,-0.84417 -1.31544,-2.09991 -0.95685,-1.25575 -22.240593,-27.92025 -22.240593,-27.92025 0,0 31.517553,17.31504 33.055163,18.02604 1.53759,0.71101 2.18594,0.61133 2.18594,0.61133 0,0 -0.14702,-0.2395 -0.5603,-0.67263 z M 53.910687,104.08679 a 1.097689,1.0962529 0 0 1 -0.0329,1.54979 1.097689,1.0962529 0 0 1 -1.552185,-0.0325 1.097689,1.0962529 0 0 1 0.0333,-1.55012 1.097689,1.0962529 0 0 1 1.551805,0.0328 z m -4.687174,-3.61759 c -0.86605,-0.2895 -1.744062,-0.472203 -2.701881,-0.673841 0.173493,0.952391 0.526195,1.685961 0.977825,2.419581 0.674465,0.0452 1.283065,0.10577 2.018497,0.28234 -0.182999,-0.70199 -0.215717,-1.2556 -0.294441,-2.02808 z" />
    <path
       id="path901"
       style="font-variation-settings:normal;vector-effect:none;fill:#0058c7;fill-opacity:1;stroke:none;stroke-width:0.132291;stroke-linecap:butt;stroke-linejoin:miter;stroke-miterlimit:4;stroke-dasharray:none;stroke-dashoffset:0;stroke-opacity:1;stop-color:#000000"
       d="m 137.41576,54.424674 c -2.13397,-2.082237 -11.68982,-11.79229 -15.6857,-14.24401 -3.99586,-2.451728 -7.51739,-3.089619 -9.57963,-1.299504 -2.06224,1.790115 -1.89817,5.704809 0.43535,8.575932 2.33352,2.871123 2.47533,4.19966 2.10492,7.513912 5.63256,4.522042 8.24682,6.643918 11.70877,11.206326 0.50762,-1.05536 0.74779,-2.714416 0.74779,-2.714416 0,0 1.09629,1.229565 1.95129,2.077165 0.855,0.847602 3.06855,2.947626 6.46388,5.448064 3.39535,2.500434 5.86916,4.357366 9.17852,3.882617 -1.21543,-1.087047 -2.37294,-2.246437 -4.10314,-3.87905 -1.63601,-1.543748 -6.38304,-5.957941 -6.38304,-5.957941 -0.96948,-1.010178 -1.3241,-2.093875 -1.3241,-2.093875 0,0 0.54561,0.173216 1.90061,1.460676 l 6.46989,6.147454 c 5.09868,4.844567 9.02959,8.80139 13.70576,7.41535 0,0 -2.96347,-2.271931 -6.16439,-5.334445 l -8.01556,-7.668941 c -1.47571,-1.411904 -1.60502,-2.255203 -1.60502,-2.255203 0,0 0.71906,0.278284 2.18834,1.69686 l 7.89587,7.623336 c 6.56201,6.33552 8.92465,7.181276 13.62944,7.300764 0,0 -23.38586,-22.818828 -25.51985,-24.901071 z m -8.02577,15.98295 c -4.24142,-3.627375 -5.08075,-5.479037 -9.5139,-9.73275 -4.43314,-4.253707 -8.08005,-6.445396 -10.77154,-9.482516 -2.69149,-3.037121 -5.4506,-6.663015 -8.11968,-8.361702 -2.549493,-1.622584 -4.975431,-1.322621 -4.975431,-1.322621 0,0 0.167616,1.787993 0.240091,2.667667 0,0 -1.357272,-0.06895 -2.471763,-0.141028 0,0 -0.497173,3.393125 2.085258,6.925507 2.582435,3.532387 3.956975,4.689161 5.212165,7.84172 1.39179,3.495664 2.5942,5.008093 3.54302,6.005628 1.22352,-0.606456 2.8062,-2.295282 2.8062,-2.295282 0.0559,0.697416 -0.36871,1.401589 -1.42088,2.294344 -1.05215,0.892756 -2.53636,1.208103 -2.53636,1.208103 0,0 -3.748432,-4.457623 -6.338794,-5.62527 -2.590376,-1.16765 -5.476112,-0.6936 -7.034146,1.632641 -1.558034,2.326225 -1.205761,5.59361 0.304078,8.298817 1.509836,2.705228 5.002885,6.053637 8.777206,9.986447 l 18.700136,19.485343 c 5.85191,6.097638 19.43865,20.021758 19.43865,20.021758 0.0778,-4.57085 -2.61301,-8.79384 -8.8527,-15.1001 L 116.40174,92.525816 c -0.68994,-0.697299 -1.65341,-1.99607 -1.65341,-1.99607 0,0 0.84962,-0.0095 2.226,1.447981 l 8.42958,8.494023 c 2.12274,2.21186 5.42565,5.8518 5.42565,5.8518 0.70246,-3.10394 -3.42378,-9.0144 -8.32116,-14.061826 l -6.1683,-6.357288 c -1.30148,-1.341373 -1.53147,-2.0045 -1.53147,-2.0045 0,0 0.81462,0.164375 2.49299,1.913227 0,0 3.59579,3.829407 5.15948,5.446178 1.56369,1.616778 2.84321,2.968743 3.87771,4.296166 0.59081,-3.324731 -2.90916,-9.173884 -6.94642,-13.380671 L 114.22497,76.7135 c 0,0 2.60814,-2.110725 4.96215,-1.966366 -0.95104,0.668074 -1.85835,1.13794 -3.10064,2.012109 16.51805,14.686285 41.58961,38.446797 42.80564,39.452547 1.21605,1.00577 1.80013,1.20279 1.80013,1.20279 0,0 -0.3586,-0.84416 -1.31545,-2.09991 -0.95683,-1.25574 -25.34488,-32.541155 -25.34488,-32.541155 0,0 23.21674,13.67724 24.63649,14.600903 1.77087,1.152074 3.08997,1.454277 3.08997,1.454277 -0.33625,-0.564748 -1.68575,-1.80718 -3.29692,-3.206233 -1.61117,-1.399052 -24.83003,-21.58745 -29.07147,-25.214838 z M 99.807216,44.970292 c 0.419354,0.437071 0.404624,1.130873 -0.03284,1.54979 -0.437605,0.419136 -1.132583,0.404567 -1.552187,-0.03253 -0.419469,-0.437215 -0.404559,-1.131268 0.03323,-1.550115 0.437643,-0.418796 1.132325,-0.404083 1.551794,0.03286 z m -4.52434,-3.645955 c -0.725964,-0.423601 -1.526003,-0.607097 -2.483822,-0.808726 0.173492,0.95238 0.470152,2.269727 0.92178,3.003349 0.674467,0.04514 1.389589,-0.06331 2.125017,0.113268 -0.182999,-0.701997 -0.484252,-1.53542 -0.562975,-2.307891 z" />
    <path
       id="path922"
       style="font-variation-settings:normal;vector-effect:none;fill:#0058c7;fill-opacity:1;stroke:none;stroke-width:0.264582;stroke-linecap:butt;stroke-linejoin:miter;stroke-miterlimit:4;stroke-dasharray:none;stroke-dashoffset:0;stroke-opacity:1;stop-color:#000000"
       d="M 34.336921,34.301266 34.780788,47.86963 145.47051,163.20764 c 4.60651,-4.73109 8.4859,-10.21894 11.47914,-16.30318 L 48.884523,34.301266 Z" />
  </g>
</svg>
