<?xml version="1.0" encoding="UTF-8" standalone="no"?>
<svg
   xmlns:dc="http://purl.org/dc/elements/1.1/"
   xmlns:cc="http://creativecommons.org/ns#"
   xmlns:rdf="http://www.w3.org/1999/02/22-rdf-syntax-ns#"
   xmlns:svg="http://www.w3.org/2000/svg"
   xmlns="http://www.w3.org/2000/svg"
   width="500"
   height="575"
   viewBox="0 0 132.29166 152.13542"
   version="1.1"
   id="svg847">
  <defs
     id="defs841" />
  <metadata
     id="metadata844">
    <rdf:RDF>
      <cc:Work
         rdf:about="">
        <dc:format>image/svg+xml</dc:format>
        <dc:type
           rdf:resource="http://purl.org/dc/dcmitype/StillImage" />
        <dc:title></dc:title>
      </cc:Work>
    </rdf:RDF>
  </metadata>
  <g
     id="layer1"
     transform="translate(-33.475474,-61.165774)">
    <path
       id="path846"
       style="font-variation-settings:normal;opacity:1;vector-effect:none;fill:#ea0606;fill-opacity:1;stroke:none;stroke-width:0.264583;stroke-linecap:butt;stroke-linejoin:miter;stroke-miterlimit:4;stroke-dasharray:none;stroke-dashoffset:0;stroke-opacity:1;stop-color:#000000;stop-opacity:1"
       d="m 35.773526,98.871999 3.81217,62.548641 c 1.9489,32.17254 30.96694,51.88055 60.03561,51.88055 29.068674,0 58.086714,-19.70801 60.035614,-51.88055 1.21591,-20.07233 2.42178,-39.77523 3.81218,-62.548641 0,0 -35.68602,-1.058333 -63.847787,-1.058333 -28.161757,0 -63.847787,1.058333 -63.847787,1.058333 z" />
    <path
       id="path852"
       style="font-variation-settings:normal;opacity:1;vector-effect:none;fill:#bf9940;fill-opacity:1;stroke:none;stroke-width:0.999999;stroke-linecap:butt;stroke-linejoin:miter;stroke-miterlimit:4;stroke-dasharray:none;stroke-dashoffset:0;stroke-opacity:1;stop-color:#000000;stop-opacity:1"
       d="m 126.52148,231.17773 8.68555,142.51172 h 19.27539 V 419.75 h 49.3418 v -46.06055 h 49.3418 V 419.75 h 49.34375 v -46.06055 h 49.34179 V 419.75 h 49.3418 v -46.06055 h 49.3418 V 419.75 h 49.34179 v -46.06055 h 49.3418 V 419.75 h 49.3418 v -46.06055 h 19.27539 c 3.1679,-51.88725 8.68554,-142.51172 8.68554,-142.51172 z"
       transform="scale(0.26458333)" />
    <path
       id="path859"
       style="font-variation-settings:normal;opacity:1;vector-effect:none;fill:#000000;fill-opacity:1;stroke:none;stroke-width:0.264583;stroke-linecap:butt;stroke-linejoin:miter;stroke-miterlimit:4;stroke-dasharray:none;stroke-dashoffset:0;stroke-opacity:1;stop-color:#000000;stop-opacity:1"
       d="m 93.608054,94.148428 c 2.228602,-3.406587 3.341469,-7.091475 3.936101,-11.523482 -4.431804,0.594646 -8.116487,1.7081 -11.522958,3.936625 V 74.534536 c 3.406471,2.228522 7.091154,3.34198 11.522958,3.936626 -0.594648,-4.431805 -1.707577,-8.117014 -3.936101,-11.523483 h 12.026516 c -2.22851,3.406453 -3.34146,7.091708 -3.9361,11.523483 4.43178,-0.594649 8.1165,-1.708115 11.52296,-3.936626 v 12.027035 c -3.40659,-2.228603 -7.09147,-3.341994 -11.52348,-3.936625 0.59463,4.43201 1.70802,8.116892 3.93662,11.523482 z" />
    <path
       id="path894"
       style="font-variation-settings:normal;opacity:1;vector-effect:none;fill:#000000;fill-opacity:1;stroke:none;stroke-width:0.264583;stroke-linecap:butt;stroke-linejoin:miter;stroke-miterlimit:4;stroke-dasharray:none;stroke-dashoffset:0;stroke-opacity:1;stop-color:#000000;stop-opacity:1"
       d="m 148.07823,69.000954 c -3.78312,3.309324 -8.35457,6.62834 -13.2849,9.033042 h 17.1156 v 5.027599 h -17.1156 c 4.93033,2.404702 9.50178,5.724234 13.2849,9.033558 h -9.58621 c -4.94957,-4.808382 -10.39194,-8.520552 -18.06416,-11.5471 7.67222,-3.026547 13.11459,-6.738717 18.06416,-11.547099 z" />
    <path
       id="path918"
       style="font-variation-settings:normal;opacity:1;vector-effect:none;fill:#000000;fill-opacity:1;stroke:none;stroke-width:0.264583;stroke-linecap:butt;stroke-linejoin:miter;stroke-miterlimit:4;stroke-dasharray:none;stroke-dashoffset:0;stroke-opacity:1;stop-color:#000000;stop-opacity:1"
       d="m 51.164406,69.000954 c 3.78312,3.309324 8.35457,6.62834 13.2849,9.033042 h -17.1156 v 5.027599 h 17.1156 c -4.93033,2.404702 -9.50178,5.724234 -13.2849,9.033558 h 9.58621 c 4.94957,-4.808382 10.39194,-8.520552 18.06416,-11.5471 -7.67222,-3.026547 -13.11459,-6.738717 -18.06416,-11.547099 z" />
    <g
       id="g936"
       transform="translate(0,1.5875)">
      <path
         id="path1122"
         style="font-variation-settings:normal;opacity:1;vector-effect:none;fill:#4f2900;fill-opacity:1;stroke:none;stroke-width:0.999999;stroke-linecap:butt;stroke-linejoin:miter;stroke-miterlimit:4;stroke-dasharray:none;stroke-dashoffset:0;stroke-opacity:1;stop-color:#000000;stop-opacity:1"
         d="m 358.05273,733.08789 c -5.06093,5.89844 -9.0154,11.38533 -13.58984,18.71875 -25.63805,-7.11882 -44.30051,-20.55469 -56.07087,-34.75279 -16.47908,15.33071 -31.90914,16.54943 -47.67718,13.39342 20.2698,-34.99359 -3.19433,-49.54616 -1.07171,-78.7514 -7.98047,-0.99625 -16.12058,-4.99405 -20.89313,-9.37472 7.79546,-2.32468 14.61502,-5.17583 19.82227,-11.24888 -10.41529,-6.10855 -16.88215,-15.77991 -20.89314,-25.44643 25.47976,-0.90422 39.80409,-14.30722 47.53153,-32.25363 -7.64266,-6.49232 -12.61483,-16.04039 -11.40988,-28.89955 -18.59168,-25.22835 -20.74991,-53.46467 -15.76562,-77.33008 l 29.92578,-7.5 c 6.01333,3.95855 14.38544,7.95313 28.73633,13.92969 26.54483,11.05481 34.31322,19.98247 42.58789,30 8.3941,-4.57093 20.24678,-9.65318 37.23634,-9.65318 16.98956,1e-5 28.84225,5.08226 37.23635,9.65319 8.27467,-10.01753 16.04304,-18.94519 42.58787,-30 14.3509,-5.97657 22.72301,-9.97115 28.73635,-13.92972 l 29.92577,7.50002 c 4.98429,23.86541 2.82607,52.10174 -15.76562,77.33008 1.20495,12.85916 -3.7672,22.40723 -11.40986,28.89956 7.72743,17.9464 22.05177,31.3494 47.53153,32.25361 -4.01099,9.66652 -10.47787,19.33788 -20.89316,25.44643 5.20725,6.07306 12.0268,8.92422 19.82227,11.24889 -4.77253,4.38067 -12.91265,8.37846 -20.89312,9.37471 2.12262,29.20524 -21.34152,43.75782 -1.07172,78.75141 -15.76804,3.15601 -31.19811,1.93731 -47.67716,-13.3934 -11.77039,14.1981 -30.43283,27.63394 -56.07088,34.75275 -4.57443,-7.33341 -8.52891,-12.82031 -13.58985,-18.71871 -4.54288,2.65852 -10.38701,4.33591 -18.46877,4.33592 -8.08175,0 -13.92589,-1.67742 -18.46877,-4.33594 z"
         transform="scale(0.26458333)" />
      <path
         id="path1024"
         style="font-variation-settings:normal;opacity:1;vector-effect:none;fill:#bf9940;fill-opacity:1;stroke:#4f2900;stroke-width:0.5;stroke-linecap:butt;stroke-linejoin:miter;stroke-miterlimit:4;stroke-dasharray:none;stroke-dashoffset:0;stroke-opacity:1;stop-color:#000000;stop-opacity:1"
         d="m 242.52734,459.38477 -1.46093,8.51562 c -4.66591,22.3409 -1.88401,48.35659 13.74218,72.28516 0.64872,-2.34138 1.50038,-4.58113 4.13868,-5.92774 -2.50545,13.29268 0.9445,29.70883 9.9414,37.26758 -6.21222,18.51462 -20.10618,36.14266 -45.58594,37.04688 4.01095,9.66652 9.70773,15.08285 20.12305,21.1914 -3.47679,6.26684 -9.88272,11.05128 -16.92969,13.43945 5.2698,3.46719 9.83481,4.40243 17.03125,5.30079 -4.5919,31.15623 21.12632,45.37915 1.47266,79.26367 15.76804,1.55898 29.85994,-3.00175 43.39258,-16.875 11.77035,14.1981 28.28769,29.77767 53.92578,36.89648 4.03873,-7.60127 6.92344,-11.74999 11.98437,-17.64844 -9.79211,-7.70978 -16.02023,-18.04943 -18.67773,-26.48046 -2.65754,-8.43103 -3.38013,-15.67398 -2.41016,-29.73243 -2.69142,-2.06646 -5.07868,-4.38882 -7.15429,-6.8789 -9.39252,4.50206 -17.16372,10.27933 -31.46875,23.30664 -2.56561,1.11602 -4.83756,-0.91747 -3.84961,-4.21485 14.40883,-13.1218 23.20157,-18.08534 33.06836,-22.02539 -1.16154,-1.6619 -2.18094,-3.3833 -3.06641,-5.14062 -10.70177,4.03349 -19.67253,9.34959 -32.49414,20.1543 -2.62498,0.73179 -4.82827,-0.49417 -3.55273,-3.91211 12.44986,-10.39175 22.85874,-15.36082 34.66406,-19.27735 -0.67217,-1.67039 -1.21101,-3.3631 -1.625,-5.0625 -10.97463,3.15881 -21.13315,7.74434 -36.0918,16.25782 -3.30306,0.43249 -3.79768,-3.12002 -2.57617,-4.6211 15.91656,-8.88672 26.62545,-12.51817 38.01367,-15.08594 -0.15206,-1.1099 -0.26207,-2.21891 -0.29687,-3.32031 -8.16121,-6.60945 -17.70083,-11.00163 -27.05274,-13.66015 -1.11367,3.30217 -2.13987,7.23416 -3.21484,10.98046 -2.29788,-9.26218 -0.0181,-22.70921 8.57226,-38.83789 8.58917,-16.12864 13.28124,-20.09874 17.67774,-22.76757 13.66068,0.69649 27.96357,10.21495 40.17969,11.78515 12.21611,1.57024 18.44443,-7.47016 19.28515,-13.66015 2.67606,6.9626 -5.63734,19.9986 -17.41015,19.55273 1.63343,14.95438 5.29586,21.78752 7.94531,32.67773 0,0 5.9861,-3.75 13.7539,-3.75 7.76782,0 13.75391,3.75 13.75391,3.75 2.64949,-10.89021 6.31188,-17.72335 7.94531,-32.67773 -11.77281,0.44587 -20.08621,-12.59013 -17.41015,-19.55273 0.84071,6.18999 7.06904,15.23039 19.28515,13.66015 12.21612,-1.5702 26.51897,-11.08866 40.17969,-11.78515 4.3965,2.66883 9.08857,6.63893 17.67773,22.76757 8.58917,16.12868 10.87019,29.57571 8.57227,38.83789 -1.07493,-3.7463 -2.10121,-7.67829 -3.21484,-10.98046 -9.35195,2.65852 -18.89153,7.0507 -27.05274,13.66015 -0.0348,1.1014 -0.1448,2.21041 -0.29687,3.32031 11.38821,2.56777 22.0971,6.19922 38.01367,15.08594 1.2215,1.50108 0.72691,5.05359 -2.57617,4.6211 -14.95865,-8.51348 -25.11718,-13.09901 -36.0918,-16.25782 -0.414,1.69943 -0.95477,3.39209 -1.62695,5.0625 11.80604,3.91662 22.21555,8.88509 34.66601,19.27735 1.27556,3.41794 -0.92774,4.6439 -3.55273,3.91211 -12.82161,-10.80471 -21.79237,-16.12081 -32.49414,-20.1543 -0.88547,1.75732 -1.90488,3.47872 -3.06641,5.14062 9.86679,3.94005 18.65955,8.90359 33.06836,22.02539 0.98797,3.29738 -1.28399,5.33087 -3.84961,4.21485 -14.30502,-13.02731 -22.07624,-18.80458 -31.46875,-23.30664 -2.0756,2.49008 -4.46287,4.81244 -7.1543,6.8789 0.96995,14.05845 0.24739,21.3014 -2.41015,29.73243 -2.65754,8.43103 -8.88558,18.77068 -18.67774,26.48046 5.06098,5.89845 7.94565,10.04717 11.98438,17.64844 25.63805,-7.11881 42.15542,-22.69838 53.92578,-36.89648 13.53264,13.87325 27.62454,18.43398 43.39258,16.875 -19.65362,-33.88452 6.06452,-48.10744 1.47265,-79.26367 7.19641,-0.89836 11.76142,-1.8336 17.03126,-5.30079 -7.04701,-2.38817 -13.45291,-7.17261 -16.92969,-13.43945 10.41532,-6.10855 16.11206,-11.52488 20.12304,-21.1914 -25.47976,-0.90422 -39.37371,-18.53226 -45.58593,-37.04688 8.9969,-7.55875 12.44689,-23.9749 9.9414,-37.26758 2.63834,1.34661 3.48992,3.58636 4.13868,5.92774 15.62619,-23.92857 18.40808,-49.94426 13.74218,-72.28516 l -1.46094,-8.51562 -20.41992,5.88281 c -18.62834,19.64647 -34.15719,18.53406 -54.10547,49.01758 16.2861,10.0399 29.49987,22.91848 37.23047,39.375 4.76107,-5.85139 5.61102,-14.10778 6.16211,-21.42774 3.17772,9.73338 -0.0876,18.47519 -6.16211,26.78516 -12.97889,-23.69326 -25.0308,-33.11173 -41.25,-43.83985 12.51186,-27.95697 36.24995,-33.20582 53.48047,-49.70312 -5.40193,3.30368 -13.99144,5.28611 -34.73047,13.72266 -20.73898,8.43654 -27.61761,20.64322 -34.28515,30.125 -8.66196,-6.71377 -22.92447,-12.59961 -39.91407,-12.59961 -16.98958,0 -31.2521,5.88584 -39.91406,12.59961 -6.6675,-9.48178 -13.54613,-21.68846 -34.28515,-30.125 -20.73899,-8.43655 -29.32855,-10.41898 -34.73047,-13.72266 17.23052,16.4973 40.96864,21.74615 53.48047,49.70312 -16.21917,10.72812 -28.27111,20.14659 -41.25,43.83985 -6.07439,-8.30997 -9.33983,-17.05178 -6.16211,-26.78516 0.55109,7.31996 1.401,15.57635 6.16211,21.42774 7.73057,-16.45652 20.94437,-29.3351 37.23046,-39.375 -19.94823,-30.48352 -35.47712,-29.37111 -54.10546,-49.01758 z m 72.38282,124.27539 c -0.89689,0.68012 -1.82151,1.49522 -2.76368,2.42578 1.00317,8.27104 4.51425,17.91848 15.26954,20.63672 -3.1917,-6.6632 -4.55366,-13.69163 -5.23243,-20.85743 -2.27168,-0.78757 -4.68638,-1.53436 -7.27343,-2.20507 z m 123.22265,0 c -2.58708,0.67071 -5.00179,1.4175 -7.27343,2.20507 -0.67877,7.1658 -2.04073,14.19423 -5.23243,20.85743 10.75525,-2.71824 14.26637,-12.36568 15.26953,-20.63672 -0.94216,-0.93056 -1.86679,-1.74566 -2.76367,-2.42578 z m -128.00586,4.5664 c -7.89037,8.92464 -16.42353,24.90845 -19.59179,38.5586 10.14837,2.19314 18.48623,7.40343 26.51757,13.125 3.0638,-7.46151 8.36181,-12.66747 16.07227,-14.46289 -0.53571,-5.08929 -1.33984,-9.10743 -1.33984,-9.10743 5.89285,3.48216 5.89257,12.32032 5.89257,12.32032 -5.89285,-0.53571 -14.40127,4.09894 -16.07031,11.25 -0.49841,2.13544 -0.52362,4.33514 -0.1543,6.5957 3.61337,-0.73354 7.33377,-1.42315 11.39649,-2.17774 0.75682,0.98427 0.86027,1.96887 0.54687,2.95313 -3.9975,0.74248 -7.66377,1.52274 -11.18554,2.40234 0.48863,1.55442 1.15083,3.13861 1.95703,4.75 3.57044,-1.08338 7.2579,-2.13408 11.23047,-3.24414 1.34437,0.53261 1.50407,1.64685 0.8125,2.88672 -3.8082,1.06413 -7.2643,2.0852 -10.51758,3.15821 0.95476,1.61594 2.07818,3.26592 3.2832,4.9375 2.96334,-1.08028 6.05004,-2.16978 9.52344,-3.44336 1.21847,0.0381 1.83198,1.18904 1.0332,2.8125 -3.14401,1.1528 -5.94425,2.22422 -8.55468,3.3125 5.90556,7.34325 10.67756,8.52028 21.69921,6.39648 11.67848,-2.25037 18.99609,-6.27436 23.84375,-9.91016 4.84768,3.6358 12.16528,7.65979 23.84375,9.91016 11.02166,2.1238 15.79365,0.94677 21.69922,-6.39648 -2.61043,-1.08828 -5.41068,-2.1597 -8.55468,-3.3125 -0.79881,-1.62346 -0.18543,-2.77441 1.0332,-2.8125 3.47341,1.27358 6.5601,2.36308 9.52344,3.44336 1.20502,-1.67158 2.32844,-3.32156 3.2832,-4.9375 -3.25328,-1.07301 -6.70939,-2.09408 -10.51758,-3.15821 -0.69158,-1.23987 -0.53184,-2.35411 0.8125,-2.88672 3.97257,1.11006 7.66002,2.16076 11.23047,3.24414 0.8062,-1.61139 1.4684,-3.19558 1.95703,-4.75 -3.52177,-0.8796 -7.18804,-1.65986 -11.18555,-2.40234 -0.31332,-0.98426 -0.2099,-1.96886 0.54688,-2.95313 4.06272,0.75459 7.78312,1.4442 11.39648,2.17774 0.36932,-2.26056 0.34413,-4.46026 -0.15429,-6.5957 -1.66904,-7.15106 -10.17747,-11.78571 -16.07032,-11.25 0,0 -2.7e-4,-8.83816 5.89258,-12.32032 0,0 -0.80413,4.01814 -1.33984,9.10743 7.7105,1.79542 13.0085,7.00138 16.07226,14.46289 8.03139,-5.72157 16.36917,-10.93186 26.51758,-13.125 -3.16826,-13.65015 -11.70143,-29.63396 -19.59179,-38.5586 -0.78403,9.4083 -6.10664,19.67651 -15.83594,21.52735 -9.7293,1.85083 -14.46264,-1.15378 -17.80469,-3.97852 -1.26266,0.82844 -2.25655,1.3895 -3.78711,2.08399 -1.88776,-1.51522 -2.96203,-3.02971 -4.16797,-4.54493 -2.57786,16.20616 -7.52698,26.77009 -9.4375,42.93555 -2.9712,-0.24794 -6.30902,-0.26353 -9.10742,2.67773 -2.7984,2.94138 -2.1266,7.02112 -1.07227,10.71485 -1.60527,-0.11263 -3.22632,-0.25738 -5.18164,-1.07031 -1.95534,0.81293 -3.5764,0.95768 -5.18164,1.07031 1.0543,-3.69373 1.72618,-7.77347 -1.07226,-10.71485 -2.7984,-2.94126 -6.13626,-2.92567 -9.10742,-2.67773 -1.91055,-16.16546 -6.85964,-26.72939 -9.4375,-42.93555 -1.20598,1.51522 -2.28017,3.02971 -4.16797,4.54493 -1.53052,-0.69449 -2.52441,-1.25555 -3.78711,-2.08399 -3.34201,2.82474 -8.07543,5.82935 -17.80469,3.97852 -9.7293,-1.85084 -15.05191,-12.11905 -15.83594,-21.52735 z m 29.02539,4.7793 c -2.08029,5.1202 -4.55152,9.9801 -8.13867,14.0957 4.38852,0.10092 8.61698,-1.25041 12.50195,-5.68164 1.63673,1.48086 3.02978,2.47332 4.31055,3.24219 1.23749,-0.93207 2.19282,-2.14543 3.07617,-3.43164 -0.19691,-1.38588 -0.057,-2.77233 0.0957,-4.1582 -3.90921,-0.71615 -7.71276,-2.23062 -11.84571,-4.06641 z m 74.73828,0 c -4.13295,1.83579 -7.93649,3.35026 -11.8457,4.06641 0.15269,1.38587 0.29262,2.77232 0.0957,4.1582 0.88336,1.28621 1.83865,2.49957 3.07618,3.43164 1.28073,-0.76887 2.67382,-1.76133 4.31054,-3.24219 3.88498,4.43123 8.11343,5.78256 12.50196,5.68164 -3.58719,-4.1156 -6.05842,-8.9755 -8.13868,-14.0957 z m -74.43554,42.5293 c 1.47553,0 2.84694,1.32999 2.67773,2.9375 -0.16932,1.60747 -1.56481,3.45055 -2.67773,3.71875 -1.11288,-0.26797 -2.50654,-2.11128 -2.67578,-3.71875 -0.16933,-1.60751 1.20025,-2.9375 2.67578,-2.9375 z m 74.13281,0 c 1.47553,0 2.8451,1.32999 2.67578,2.9375 -0.16925,1.60747 -1.5629,3.45078 -2.67578,3.71875 -1.11292,-0.2682 -2.50841,-2.11128 -2.67773,-3.71875 -0.16921,-1.60751 1.2022,-2.9375 2.67773,-2.9375 z m -60.93359,1.75781 c 1.47549,0 2.84698,1.32804 2.67773,2.93555 -0.16932,1.60747 -1.56485,3.45055 -2.67773,3.71875 -1.11292,-0.26797 -2.50853,-2.11128 -2.67774,-3.71875 -0.16932,-1.60751 1.20221,-2.93555 2.67774,-2.93555 z m 47.73437,0 c 1.47553,0 2.84706,1.32804 2.67774,2.93555 -0.16921,1.60747 -1.56482,3.45078 -2.67774,3.71875 -1.11288,-0.2682 -2.50841,-2.11128 -2.67773,-3.71875 -0.16925,-1.60751 1.20224,-2.93555 2.67773,-2.93555 z m -49.13086,10.44336 c 1.47553,0 2.84695,1.32999 2.67774,2.9375 -0.16933,1.60747 -1.56482,3.4486 -2.67774,3.71679 -1.11288,-0.26796 -2.50852,-2.10932 -2.67773,-3.71679 -0.16932,-1.60751 1.20224,-2.9375 2.67773,-2.9375 z m 50.52735,0 c 1.47549,0 2.84705,1.32999 2.67773,2.9375 -0.16921,1.60747 -1.56485,3.44883 -2.67773,3.71679 -1.11292,-0.26819 -2.50842,-2.10932 -2.67774,-3.71679 -0.16921,-1.60751 1.20221,-2.9375 2.67774,-2.9375 z m -59.35352,3.30859 c 1.47553,0 2.84694,1.32999 2.67774,2.9375 -0.16933,1.60747 -1.56482,3.45056 -2.67774,3.71875 -1.11288,-0.26797 -2.50657,-2.11128 -2.67578,-3.71875 -0.16932,-1.60751 1.20029,-2.9375 2.67578,-2.9375 z m 68.17969,0 c 1.47549,0 2.8451,1.32999 2.67578,2.9375 -0.16921,1.60747 -1.5629,3.45078 -2.67578,3.71875 -1.11292,-0.26819 -2.50841,-2.11128 -2.67774,-3.71875 -0.16921,-1.60751 1.20221,-2.9375 2.67774,-2.9375 z m -49.47852,3.73047 c 1.47553,0 2.84499,1.32999 2.67578,2.9375 -0.16932,1.60747 -1.5629,3.45056 -2.67578,3.71875 -1.11292,-0.26797 -2.50848,-2.11128 -2.67773,-3.71875 -0.16932,-1.60751 1.2022,-2.9375 2.67773,-2.9375 z m 30.77735,0 c 1.47552,0 2.84705,1.32999 2.67773,2.9375 -0.16925,1.60747 -1.56481,3.45078 -2.67773,3.71875 -1.11289,-0.26819 -2.50646,-2.11128 -2.67578,-3.71875 -0.16921,-1.60751 1.20025,-2.9375 2.67578,-2.9375 z m -41.8418,4.89844 c 1.47553,0 2.84694,1.32999 2.67773,2.9375 -0.16932,1.60747 -1.56481,3.45055 -2.67773,3.71875 -1.11288,-0.26797 -2.50853,-2.11128 -2.67774,-3.71875 -0.16932,-1.60751 1.20225,-2.9375 2.67774,-2.9375 z m 52.90625,0 c 1.47549,0 2.84706,1.32999 2.67773,2.9375 -0.16921,1.60747 -1.56485,3.45078 -2.67773,3.71875 -1.11292,-0.2682 -2.50841,-2.11128 -2.67773,-3.71875 -0.16921,-1.60751 1.2022,-2.9375 2.67773,-2.9375 z m -50.29688,15.59375 c -3.69475,0.98683 -6.84186,1.2387 -11.25,1.33984 1.61881,9.02328 6.31044,18.37661 12.32227,20.35742 -1.53464,-10.13537 -1.4026,-15.07511 -1.07227,-21.69726 z m 47.6875,0 c 0.33034,6.62215 0.46234,11.56189 -1.07226,21.69726 6.01183,-1.98081 10.70349,-11.33414 12.32226,-20.35742 -4.40813,-0.10114 -7.55524,-0.35301 -11.25,-1.33984 z m -49.45312,46.21958 c -8.17616,-7.43412 -15.45183,-21.80521 -13.61133,-41.86703 3.83891,11.70971 9.13296,19.4232 16.98438,20.02245 0.96808,5.87648 2.95094,13.05579 7.76757,18.21484 4.44575,4.76175 10.71881,5.89258 14.46875,5.89258 3.74996,0 10.02305,-1.13083 14.46875,-5.89258 4.81667,-5.15905 6.79949,-12.33836 7.76758,-18.21485 7.8514,-0.59925 13.14546,-8.31273 16.98437,-20.02243 1.84052,20.06181 -5.43517,34.43288 -13.61133,41.867 -8.17616,7.43412 -16.23985,10.84855 -25.60937,10.84853 -9.36952,-1e-5 -17.43321,-3.41438 -25.60937,-10.84851 z"
         transform="scale(0.26458333)" />
      <path
         style="font-variation-settings:normal;opacity:1;vector-effect:none;fill:#0057f0;fill-opacity:1;stroke:none;stroke-width:0.264583;stroke-linecap:butt;stroke-linejoin:miter;stroke-miterlimit:4;stroke-dasharray:none;stroke-dashoffset:0;stroke-opacity:1;stop-color:#000000;stop-opacity:1"
         d="m 102.86683,189.24966 c 1.03888,-1.23666 1.58307,-2.88575 1.88224,-5.09741 0.29917,-2.21166 0.33785,-3.21204 0.22079,-4.60372 -1.55209,-0.7959 -3.40166,-1.0973 -5.020832,-0.39484 0.02554,0.93134 -0.02686,2.17679 -0.32771,3.28513 -0.300851,-1.10834 -0.353248,-2.35379 -0.327711,-3.28513 -1.619172,-0.70246 -3.46874,-0.40106 -5.020828,0.39484 -0.117065,1.39168 -0.07838,2.39206 0.220787,4.60372 0.299169,2.21166 0.843363,3.86075 1.882248,5.09741 1.038884,1.23665 2.4043,1.46912 3.245504,1.46912 0.841202,0 2.206612,-0.23247 3.245512,-1.46912 z"
         id="path1042" />
      <path
         id="path1120"
         style="font-variation-settings:normal;opacity:1;vector-effect:none;fill:#000000;fill-opacity:1;stroke:none;stroke-width:0.999999;stroke-linecap:butt;stroke-linejoin:miter;stroke-miterlimit:4;stroke-dasharray:none;stroke-dashoffset:0;stroke-opacity:1;stop-color:#000000;stop-opacity:1"
         d="m 191.16016,431.5 c 7.72758,14.05489 21.89878,32.2378 46.875,39.64258 l 3.03125,0.75781 c 0,0 5.8083,1.1168 9.82617,1.38477 -3.64596,-2.19523 -5.77617,-4.36355 -7.36524,-7.90039 3.44621,3.24695 9.09557,6.09803 13.79493,7.36523 -0.89156,-1.65112 -1.15163,-2.98575 -1.33985,-4.28516 1.88005,1.69142 3.8433,3.29814 6.42774,4.28516 -0.0423,-1.29464 0.0122,-2.32169 0.53711,-3.48242 1.36484,-3.47779 3.42038,-5.06175 5.01367,-5.625 -5.10951,-3.36357 -8.5703,-6.69731 -11.97852,-11.25 C 248.5631,442.48186 247.4113,437.125 246.33984,431.5 h -10.44726 c 1.16326,4.91199 3.83701,12.05202 7.23242,19.01758 -4.63313,-4.85446 -9.28258,-13.45294 -11.78516,-19.01758 h -8.03711 c 2.51951,8.89931 6.24895,15.98506 10.17969,22.76758 -8.49687,-9.78849 -10.87308,-14.9291 -14.46484,-22.76758 h -9.10742 c 1.92502,6.71607 4.18238,11.65895 8.57226,19.01758 -6.45207,-5.62832 -10.56885,-12.68494 -13.39258,-19.01758 z"
         transform="matrix(0.26458333,0,0,0.26458333,0,-1.0583333)" />
      <path
         id="path1136"
         style="font-variation-settings:normal;opacity:1;vector-effect:none;fill:#000000;fill-opacity:1;stroke:none;stroke-width:0.999999;stroke-linecap:butt;stroke-linejoin:miter;stroke-miterlimit:4;stroke-dasharray:none;stroke-dashoffset:0;stroke-opacity:1;stop-color:#000000;stop-opacity:1"
         d="m 506.70312,431.5 c -1.07145,5.625 -2.22325,10.98186 -9.64257,20.89258 -3.40819,4.5527 -6.86901,7.88645 -11.97852,11.25 1.5933,0.56326 3.64885,2.14719 5.01367,5.625 0.52441,1.16073 0.57941,2.18778 0.53711,3.48242 2.58441,-0.98702 4.54772,-2.59374 6.42774,-4.28516 -0.18811,1.29941 -0.44829,2.63404 -1.33985,4.28516 4.69935,-1.2672 10.34876,-4.11828 13.79492,-7.36523 -1.58905,3.53684 -3.71927,5.70516 -7.36523,7.90039 4.01787,-0.26797 9.82617,-1.38477 9.82617,-1.38477 l 3.03125,-0.75781 c 24.97622,-7.40478 39.14746,-25.58769 46.875,-39.64258 h -13.92969 c -2.82372,6.33264 -6.9405,13.38926 -13.39257,19.01758 4.38988,-7.35863 6.64724,-12.30151 8.57226,-19.01758 h -9.10742 c -3.59176,7.83848 -5.96797,12.97906 -14.46484,22.76758 3.93074,-6.78255 7.66018,-13.86827 10.17968,-22.76758 h -8.03711 c -2.50257,5.56464 -7.15202,14.16312 -11.78515,19.01758 3.39541,-6.96556 6.06916,-14.10559 7.23242,-19.01758 z"
         transform="matrix(0.26458333,0,0,0.26458333,0,-1.0583333)" />
    </g>
  </g>
</svg>
