<?xml version="1.0" encoding="UTF-8" standalone="no"?>
<svg xmlns:dc="http://purl.org/dc/elements/1.1/" xmlns:cc="http://creativecommons.org/ns#" xmlns:rdf="http://www.w3.org/1999/02/22-rdf-syntax-ns#" xmlns:svg="http://www.w3.org/2000/svg" xmlns="http://www.w3.org/2000/svg" xmlns:xlink="http://www.w3.org/1999/xlink" xmlns:sodipodi="http://sodipodi.sourceforge.net/DTD/sodipodi-0.dtd" xmlns:inkscape="http://www.inkscape.org/namespaces/inkscape" inkscape:version="1.0 (4035a4fb49, 2020-05-01)" sodipodi:docname="järvenpää.svg" id="svg8" version="1.1" viewBox="0 0 119.91053 133.37874" height="504.10861" width="453.20517">
  <defs id="defs2"/>
  <sodipodi:namedview inkscape:snap-global="true" inkscape:object-nodes="true" inkscape:showpageshadow="false" inkscape:window-maximized="1" inkscape:window-y="-8" inkscape:window-x="-8" inkscape:window-height="1017" inkscape:window-width="1920" units="px" showgrid="false" inkscape:document-rotation="0" inkscape:current-layer="layer1" inkscape:document-units="px" inkscape:cy="206.53549" inkscape:cx="287.84423" inkscape:zoom="1.4142136" inkscape:pageshadow="2" inkscape:pageopacity="0.0" borderopacity="1.0" bordercolor="#666666" pagecolor="#ffffff" id="base" inkscape:snap-others="false" inkscape:lockguides="true" inkscape:snap-smooth-nodes="true"/>
  <metadata id="metadata5">
    <rdf:RDF>
      <cc:Work rdf:about="">
        <dc:format>image/svg+xml</dc:format>
        <dc:type rdf:resource="http://purl.org/dc/dcmitype/StillImage"/>
        <dc:title/>
      </cc:Work>
    </rdf:RDF>
  </metadata>
  <g id="layer1" inkscape:groupmode="layer" inkscape:label="Шар 1" transform="translate(-23.171116,-33.887759)">
    <path style="font-variation-settings:normal;opacity:1;vector-effect:none;fill:#0560e0;fill-opacity:1;fill-rule:evenodd;stroke:none;stroke-width:0.264583;stroke-linecap:butt;stroke-linejoin:miter;stroke-miterlimit:4;stroke-dasharray:none;stroke-dashoffset:0;stroke-opacity:1;marker:none;marker-start:none;marker-mid:none;marker-end:none;stop-color:#000000;stop-opacity:1" d="m 143.08165,33.887759 c 0,0 -0.12725,55.281636 -1.86509,79.611301 -1.64172,22.98413 -20.23667,53.76744 -58.090179,53.76744 -37.85351,0 -56.448459,-30.78331 -58.090182,-53.76744 C 23.298366,89.169395 23.171116,33.887759 23.171116,33.887759 Z" id="path846" sodipodi:nodetypes="cszscc"/>
    <path d="m 54.73516,36.427747 c 0,0 -4.762047,-0.153683 -7.219714,7.065719 -2.45767,7.2194 0.79375,19.912479 0.79375,19.912479 0,0 -0.729618,-0.03371 -1.113629,0.119891 0,0 -0.275283,0.586377 -0.485756,1.462958 0,0 -6.552716,-7.237223 -5.792412,-17.446996 0,0 -3.910497,1.194654 -4.344956,8.471834 -0.434456,7.277177 3.801645,16.292211 7.603154,19.659264 0,0 -1.158491,0.362252 -1.864484,1.557012 0,0 -1.88e-4,0.705805 0.21704,1.411801 0,0 -5.557372,-2.171901 -9.033041,-11.186914 0,0 -3.194685,3.295536 -0.15348,9.7038 3.041211,6.408261 8.772075,9.856245 8.772075,9.856245 0,0 -0.725582,0.280085 -1.268656,0.877467 0,0 -0.162922,0.977622 0.597379,2.280997 0,0 -5.293772,-0.06076 -9.364286,-6.665743 0,0 -1.632641,1.817378 0.921908,6.83524 2.554552,5.017868 9.830409,6.989239 9.830409,6.989239 0,0 -0.3203,0.389877 -0.428916,0.715719 0,0 0.03251,0.484357 0.416512,1.2392 0,0 -4.226687,1.032251 -9.503812,-4.063318 0,0 -1.802982,2.066732 1.258321,5.788279 3.561059,4.32908 10.146149,4.42143 10.146149,4.42143 0,0 -0.380336,0.85107 -0.380338,1.50276 0,0 0.597379,0.54293 1.792139,0.76016 0,0 -4.181274,1.95529 -8.797396,-0.27131 0,0 -0.869016,2.1177 3.095419,3.90984 3.964432,1.79214 8.200533,0.65164 8.200533,0.65164 -1.99009,2.0514 -4.047115,8.04982 0.325562,9.72137 -0.134128,-2.46479 0.88026,-6.56841 4.290176,-7.71167 0,0 -3.801324,6.62516 0.380339,8.74313 0,0 0.48669,-5.38889 5.001245,-7.41608 -0.777379,3.25573 -1.272274,6.77839 -1.272274,11.17606 0,9.41268 4.238071,15.66589 11.35073,19.08566 0,0 0.673756,3.53735 -0.785485,7.22385 H 64.23277 l -1.075386,6.83524 h 40.962886 l -1.07487,-6.83524 h -3.686608 c -1.45924,-3.6865 -0.786,-7.22385 -0.786,-7.22385 7.112668,-3.41977 11.350738,-9.67298 11.350738,-19.08566 0,-4.39767 -0.49438,-7.92033 -1.27176,-11.17606 4.51456,2.02719 5.00125,7.41608 5.00125,7.41608 4.18166,-2.11797 0.37982,-8.74313 0.37982,-8.74313 3.40992,1.14326 4.42482,5.24688 4.29069,7.71167 4.37268,-1.67155 2.31566,-7.66997 0.32557,-9.72137 0,0 4.2361,1.1405 8.20053,-0.65164 3.96443,-1.79214 3.09542,-3.90983 3.09542,-3.90984 -4.61612,2.2266 -8.79791,0.27131 -8.79791,0.27131 1.19476,-0.21723 1.79213,-0.76016 1.79213,-0.76016 0,-0.65169 -0.37982,-1.50276 -0.37982,-1.50276 0,0 6.5851,-0.0924 10.14615,-4.42143 3.0613,-3.721547 1.25832,-5.788279 1.25832,-5.788279 -5.27712,5.095569 -9.50381,4.063318 -9.50381,4.063318 0.38401,-0.754843 0.41651,-1.2392 0.41651,-1.2392 -0.10861,-0.325842 -0.42943,-0.715719 -0.42943,-0.715719 0,0 7.27637,-1.971371 9.83092,-6.989239 2.55455,-5.017862 0.92139,-6.83524 0.92139,-6.83524 -4.07051,6.604981 -9.36376,6.665743 -9.36376,6.665743 0.7603,-1.303375 0.59738,-2.280997 0.59738,-2.280997 -0.54308,-0.597382 -1.26866,-0.877467 -1.26866,-0.877467 0,0 5.73087,-3.447984 8.77207,-9.856245 3.04121,-6.408264 -0.15399,-9.7038 -0.15399,-9.7038 -3.47567,9.015013 -9.03304,11.186914 -9.03304,11.186914 0.21723,-0.705996 0.21756,-1.411801 0.21756,-1.411801 -0.706,-1.19476 -1.86449,-1.557012 -1.86449,-1.557012 3.80151,-3.367053 8.0371,-12.382087 7.60264,-19.659264 -0.43446,-7.27718 -4.34444,-8.471834 -4.34444,-8.471834 0.7603,10.209773 -5.79241,17.446996 -5.79241,17.446996 -0.21048,-0.876581 -0.48576,-1.462958 -0.48576,-1.462958 -0.38401,-0.153599 -1.11363,-0.119891 -1.11363,-0.119891 0,0 3.25142,-12.693079 0.79375,-19.912479 -2.45766,-7.219402 -7.21971,-7.065719 -7.21971,-7.065719 4.14731,10.445089 0.31316,21.28759 0.31316,21.28759 -0.32585,-1.955065 -1.57458,-2.769341 -1.57458,-2.769341 -0.92323,-0.108614 -2.11822,0.561207 -2.11822,0.561207 0,0 1.73802,-6.951413 -0.21704,-13.03383 -1.95506,-6.082419 -6.95151,-5.720583 -6.95151,-5.720583 0,0 4.23625,5.32219 -0.32557,16.618109 0,0 -1.53906,-1.719699 -3.765666,-1.230934 0,0 1.690223,3.200035 -0.03617,7.639328 -1.726396,4.439293 -1.194483,9.557975 3.258726,13.250871 0,0 3.72359,-1.653958 7.27707,3.149679 3.55349,4.803638 5.26777,20.528074 -3.53001,26.936337 l -0.078,0.12971 c -1.04343,-2.97888 -2.27593,-6.290879 -3.09439,-9.702766 h 3.90364 v -4.224549 h -4.65036 c -0.38696,-3.704169 0.032,-7.357377 2.0655,-10.598319 0,0 -0.19213,-0.422196 -0.89813,-0.422196 h -4.561495 c 0,0 -2.433868,3.736391 -2.524911,11.020515 H 93.375695 V 66.239881 h -2.26963 V 89.318575 H 89.074666 V 66.239881 H 86.805035 V 89.318575 H 84.773636 V 66.239881 H 82.504522 V 89.318575 H 80.472606 V 66.239881 H 78.203495 V 89.318575 H 76.171577 V 66.239881 H 73.902465 V 89.318575 H 72.243133 C 72.15209,82.034451 69.718222,78.29806 69.718222,78.29806 h -4.561993 c -0.705996,0 -0.89762,0.422196 -0.89762,0.422196 2.033532,3.240942 2.45246,6.89415 2.065507,10.598319 h -4.650362 v 4.224549 h 3.903636 c -0.818449,3.411861 -2.050957,6.723906 -3.094384,9.702766 l -0.07803,-0.12971 c -8.797784,-6.408263 -7.083503,-22.132699 -3.530018,-26.936337 3.553487,-4.803637 7.277076,-3.149679 7.277076,-3.149679 4.4532,-3.692896 4.98511,-8.811578 3.258714,-13.250871 C 67.684355,55.34 69.374058,52.139965 69.374058,52.139965 67.147459,51.6512 65.608913,53.370899 65.608913,53.370899 61.047099,42.07498 65.283351,36.75279 65.283351,36.75279 c 0,0 -4.99645,-0.361836 -6.951512,5.720583 -1.955063,6.082417 -0.217043,13.03383 -0.217043,13.03383 0,0 -1.19499,-0.669821 -2.118216,-0.561207 0,0 -1.249251,0.814276 -1.575096,2.769341 0,0 -3.833638,-10.842501 0.313676,-21.28759 z m 17.307985,57.115377 h 1.85932 v 32.512746 h -3.116091 c 1.766451,3.04982 2.217436,6.22649 2.217436,9.62628 -12.042314,-7.27083 -3.676298,-26.96845 -1.457274,-38.756804 0.222713,-1.183148 0.384143,-2.309672 0.496609,-3.382222 z m 4.128432,0 h 2.031918 v 32.512746 h -2.031918 z m 4.301029,0 h 2.031916 v 32.512746 h -2.031916 z m 4.30103,0 h 2.031399 v 32.512746 h -2.031399 z m 4.30103,0 h 2.031399 v 32.512746 h -2.031399 z m 4.301029,0 h 1.858801 c 0.112467,1.07255 0.274413,2.199072 0.497126,3.382222 2.219023,11.788354 10.585048,31.485974 -1.457275,38.756804 0,-3.39979 0.450469,-6.57646 2.21692,-9.62628 h -3.115572 z" style="color:#000000;overflow:visible;opacity:1;fill:#868686;fill-opacity:1;fill-rule:evenodd;stroke:none;stroke-width:0.264583;stroke-miterlimit:4;stroke-dasharray:none;paint-order:markers fill stroke" id="rect1062"/>
    <g transform="translate(-1.5866968e-5)" id="g899">
      <g id="g883" transform="translate(1.3125154e-5)">
        <rect transform="rotate(90)" style="color:#000000;overflow:visible;opacity:1;fill:#ffffff;fill-rule:evenodd;stroke:none;stroke-width:0.264583;stroke-miterlimit:4;stroke-dasharray:none;paint-order:markers fill stroke" id="rect880" width="60.827286" height="2.2693274" x="65.909019" y="-84.261047"/>
        <rect y="-84.261047" x="66.329964" height="1.8834571" width="60.406338" id="rect988" style="color:#000000;overflow:visible;opacity:1;fill:#cccccc;fill-opacity:1;fill-rule:evenodd;stroke:none;stroke-width:0.264583;stroke-miterlimit:4;stroke-dasharray:none;paint-order:markers fill stroke" transform="rotate(90)"/>
        <rect y="-84.261047" x="89.837311" height="2.2693274" width="4.1596289" id="rect990" style="color:#000000;overflow:visible;opacity:1;fill:#868686;fill-opacity:1;fill-rule:evenodd;stroke:none;stroke-width:0.264583;stroke-miterlimit:4;stroke-dasharray:none;paint-order:markers fill stroke" transform="rotate(90)"/>
      </g>
      <use x="0" y="0" xlink:href="#g883" id="use885" transform="translate(-4.3009245)" width="100%" height="100%"/>
      <use height="100%" width="100%" transform="translate(-8.601849)" id="use887" xlink:href="#g883" y="0" x="0"/>
      <use height="100%" width="100%" transform="translate(8.601849)" id="use889" xlink:href="#g883" y="0" x="0"/>
      <use x="0" y="0" xlink:href="#g883" id="use891" transform="translate(4.3009245)" width="100%" height="100%"/>
    </g>
    <g id="g984">
      <rect style="color:#000000;overflow:visible;opacity:1;fill:#ffffff;fill-rule:evenodd;stroke:none;stroke-width:0.264583;stroke-miterlimit:4;stroke-dasharray:none;paint-order:markers fill stroke" id="rect878" width="43.930817" height="4.2241168" x="61.160973" y="88.98806"/>
      <rect y="89.338852" x="61.652084" height="3.8733258" width="43.439713" id="rect986" style="color:#000000;overflow:visible;opacity:1;fill:#cccccc;fill-opacity:1;fill-rule:evenodd;stroke:none;stroke-width:0.264583;stroke-miterlimit:4;stroke-dasharray:none;paint-order:markers fill stroke"/>
      <path id="path992" style="font-variation-settings:normal;opacity:1;vector-effect:none;fill:#868686;fill-opacity:1;fill-rule:evenodd;stroke:none;stroke-width:0.999999;stroke-linecap:butt;stroke-linejoin:miter;stroke-miterlimit:4;stroke-dasharray:none;stroke-dashoffset:0;stroke-opacity:1;marker:none;marker-start:none;marker-mid:none;marker-end:none;stop-color:#000000;stop-opacity:1" d="m 268.73633,336.33203 -2.82227,15.9668 h 6.4375 c 0.60282,-5.74885 0.81713,-11.06521 0.75586,-15.9668 z m 107.01367,0 0.75391,15.9668 h 7.93945 c -1.27161,-5.30091 -2.26649,-10.64659 -2.82227,-15.9668 z" transform="scale(0.26458333)" sodipodi:nodetypes="cccccccccc"/>
    </g>
    <g id="g1020">
      <path style="font-variation-settings:normal;opacity:1;vector-effect:none;fill:#cccccc;fill-opacity:1;fill-rule:evenodd;stroke:none;stroke-width:0.264583;stroke-linecap:butt;stroke-linejoin:miter;stroke-miterlimit:4;stroke-dasharray:none;stroke-dashoffset:0;stroke-opacity:1;marker:none;marker-start:none;marker-mid:none;marker-end:none;stop-color:#000000;stop-opacity:1" d="M 61.892225,102.78563 C 53.094441,96.377363 54.808763,80.652839 58.36225,75.849202 c 3.553487,-4.803637 7.277184,-3.149824 7.277184,-3.149824 4.453199,-3.692896 4.984832,-8.811689 3.258438,-13.250982 -1.726394,-4.439293 -0.03621,-7.639227 -0.03621,-7.639227 -2.226599,-0.488766 -3.765307,1.230965 -3.765307,1.230965 -4.561814,-11.29592 -0.325845,-16.618035 -0.325845,-16.618035 0,0 -4.99627,-0.362049 -6.951333,5.720369 -1.955063,6.082418 -0.217229,13.033753 -0.217229,13.033753 0,0 -1.194761,-0.66979 -2.117985,-0.561175 0,0 -1.249068,0.81461 -1.574912,2.769673 0,0 -3.834064,-10.84263 0.31325,-21.287719 0,0 -4.761731,-0.153605 -7.219399,7.065795 -2.457669,7.2194 0.793622,19.912575 0.793622,19.912575 0,0 -0.72962,-0.03362 -1.113631,0.119977 0,0 -0.275452,0.585985 -0.485927,1.462565 0,0 -6.552634,-7.236989 -5.792331,-17.446762 0,0 -3.910126,1.194761 -4.344585,8.47194 -0.434458,7.277178 3.801512,16.292191 7.603023,19.659244 0,0 -1.158556,0.362049 -1.864551,1.556809 0,0 0,0.705995 0.217229,1.41199 0,0 -5.557447,-2.172292 -9.033115,-11.187305 0,0 -3.194813,3.295709 -0.153604,9.703971 3.041209,6.408262 8.77212,9.856201 8.77212,9.856201 0,0 -0.725854,0.280097 -1.268927,0.877477 0,0 -0.162922,0.977532 0.59738,2.280907 0,0 -5.293418,-0.0607 -9.363931,-6.665681 0,0 -1.632925,1.817523 0.921625,6.835389 2.554551,5.017867 9.830673,6.988994 9.830673,6.988994 0,0 -0.320323,0.390014 -0.428938,0.715857 0,0 0.03213,0.484271 0.416137,1.239115 0,0 -4.226433,1.032474 -9.503559,-4.063094 0,0 -1.802917,2.06684 1.258386,5.788386 3.561058,4.32908 10.146148,4.42139 10.146148,4.42139 0,0 -0.380151,0.85081 -0.380151,1.5025 0,0 0.59738,0.54307 1.792141,0.7603 0,0 -4.181663,1.95506 -8.797783,-0.27154 0,0 -0.868918,2.11799 3.095516,3.91013 3.964433,1.79214 8.200403,0.65169 8.200403,0.65169 -1.99009,2.0514 -4.046832,8.04946 0.325844,9.72101 -0.134128,-2.46479 0.880361,-6.56838 4.290277,-7.71164 0,0 -3.801512,6.62549 0.380151,8.74347 0,0 0.488766,-5.43073 5.050579,-7.4401 l 3.994017,-11.74333 z" id="path857" sodipodi:nodetypes="cscscccsccccsccccsccccsccccsccccsccccsccccccc"/>
      <path id="path969" style="font-variation-settings:normal;opacity:1;vector-effect:none;fill:#ffffff;fill-opacity:1;fill-rule:evenodd;stroke:none;stroke-width:0.999999;stroke-linecap:butt;stroke-linejoin:miter;stroke-miterlimit:4;stroke-dasharray:none;stroke-dashoffset:0;stroke-opacity:1;marker:none;marker-start:none;marker-mid:none;marker-end:none;stop-color:#000000;stop-opacity:1" d="m 204.93555,136.42969 c 0,0 -17.99829,-0.58085 -27.28711,26.70508 -9.28883,27.28592 3,75.25976 3,75.25976 0,0 -2.75761,-0.1274 -4.20899,0.45313 0,0 -1.04044,2.21623 -1.83593,5.52929 -1.02494,5.72782 -0.82813,9.66211 -0.82813,9.66211 0,0 -0.53503,15.63328 2.91211,20.40625 3.44715,4.77298 8.56445,6.51563 8.56445,6.51563 -12.00426,-21.26167 -8.08524,-36.94103 -6.98047,-40.10156 2.75737,-0.39391 8.31873,-0.87894 18.24219,7.09179 -3.8741,-6.21502 -6.56492,-7.44217 -12.46679,-8.89648 -2.84947,-11.36195 -5.81576,-22.41778 -7.00196,-33.99414 -1.23805,-13.91084 -1.74637,-28.35271 2.60742,-41.58399 3.26321,-9.59055 12.72692,-22.99385 24.38868,-24.65234 0.29249,-0.79864 0.57777,-1.59677 0.89453,-2.39453 z m 39.04101,1.21484 c -3.71545,0.0524 -18.9817,1.51968 -25.44726,21.63477 -7.38922,22.98866 -0.82032,49.26172 -0.82032,49.26172 0,0 -4.5165,-2.53161 -8.00586,-2.1211 0,0 -4.72158,3.07758 -5.95312,10.4668 l -0.58984,2.1582 c -2.66244,13.33337 -0.43555,23.5 -0.43555,23.5 0.90905,-12.87527 2.44276,-27.02924 7.54883,-34.0293 6.69089,2.32511 9.68166,3.45892 19.33984,14.66602 0.61578,-5.1314 -8.76953,-12.78906 -8.76953,-12.78906 0,0 -1.96363,-5.54464 -3.00391,-13.11719 -1.04027,-7.57255 -1.53935,-25.04239 2.93164,-38.34375 2.71201,-8.67991 9.69849,-18.31513 22.91407,-19.55078 0.65491,-1.11553 1.11718,-1.72266 1.11718,-1.72266 0,0 -0.29539,-0.0212 -0.82617,-0.0137 z m -91.26562,40.79102 c 0,0 -14.77983,4.51523 -16.42188,32.01953 -1.64204,27.50429 14.36842,61.57686 28.73633,74.30273 0,0 -4.37855,1.36914 -7.04687,5.88477 0,0 -7.1e-4,2.66761 0.82031,5.33594 0,0 -21.00424,-8.20876 -34.14063,-42.28125 0,0 -12.07441,12.45557 -0.58008,36.67578 2.61576,5.51176 5.75914,10.43835 9.05274,14.76953 -13.09849,-21.08196 -13.89742,-35.92908 -9.28711,-46.26367 0,0 9.30004,28.03426 35.97852,40.39062 1.16288,3.33647 2.5957,6.59961 2.5957,6.59961 0,0 3.58203,8.75586 7.14453,10.81836 3.5625,2.0625 6.20508,2.62305 6.20508,2.62305 C 161.23482,301.84651 160.56292,293.75068 160.4043,291 c 2.71118,-3.9145 8.4524,-6.17383 20.5625,-3.91602 1.23253,-1.01561 -7.97629,-3.36692 -13.82813,-2.58007 -8.65052,-9.10224 -17.38626,-23.7583 -21.92969,-35.41211 -4.70548,-12.60009 -7.68201,-25.5743 -6.8789,-39.05274 0.70323,-9.57266 3.93325,-23.41766 14.26367,-29.39844 0.0352,-0.73349 0.0619,-1.46316 0.11719,-2.20507 z m 104.52539,17.04883 c -6.75086,0.007 -11.20313,4.98242 -11.20313,4.98242 l -3.70312,4.10742 c -6.66895,7.32437 -5.94336,16.14453 -5.94336,16.14453 5.54176,-15.05016 14.23106,-24.25851 23.23633,-23.39453 0.35606,-0.90645 0.64062,-1.50977 0.64062,-1.50977 -1.05193,-0.23091 -2.06293,-0.33101 -3.02734,-0.33007 z m -137.9336,118.88476 c 0,0 -6.16093,6.8602 3.4668,25.79688 -2.93493,-9.02396 -3.9168,-14.7943 -3.14453,-20.95508 7.19458,11.55326 21.55328,22.57434 36.35938,22.57812 0,0 7.13193,12.33762 20.19335,13.50977 -14.3604,-7.41038 -20.9529,-16.5321 -21.79296,-23.48242 1.96681,-1.93814 7.31204,-4.78376 20.54492,-6.05469 -2.47293,-1.72754 -6.10577,-1.703 -12.09375,0.11719 -3.33019,0.94775 -4.14309,1.26578 -5.60352,1.74609 0,0 -2.74236,1.05859 -4.79492,3.31641 0,0 -0.61577,3.69495 2.25781,8.62109 0,0 -20.00796,-0.22965 -35.39258,-25.19336 z m 53.5918,44.21289 c 0,0 -7.32368,1.40343 -12.95312,8.03516 h -0.004 c 1e-5,0 0.004,0.002 0.004,0.002 0,0 -1.21058,1.47355 -1.6211,2.70508 0,0 0.12286,1.83064 1.57422,4.68359 0,0 -15.97488,3.90142 -35.91992,-15.35742 0,0 -5.54762,6.36789 1.88281,17.95313 -2.19829,-6.23445 -2.53711,-11.51161 -1.36719,-15.17188 7.63811,8.96052 22.61579,16.48919 37.33204,14.55078 -1.32216,-3.35473 -1.29883,-6.1289 -1.29883,-6.1289 0,0 2.2506,-6.23039 12.04883,-8.13868 0,0 0.71618,-1.67566 0.32226,-3.13281 z m 3.30664,32.17383 c 0,0 -5.5447,-0.0915 -9.12305,6.48242 0,0 -1.43749,3.21661 -1.4375,5.67969 0,0 2.25781,2.05202 6.77344,2.87305 0,0 -15.80324,7.3901 -33.25,-1.0254 0,0 -0.36972,0.94308 -0.27929,2.4375 13.04157,5.5224 26.89125,6.14398 39.97851,-1.99609 -4.80034,-0.59626 -7.9981,-1.19264 -11.18359,-3.05273 0.83976,-4.40996 3.33614,-8.75436 8.52148,-11.39844 z m 8.76758,31.02539 c 0,0 -3.20978,0.26316 -3.11133,0.22461 -7.5216,7.75332 -15.29618,30.42452 1.23047,36.74219 -0.0309,-0.56846 -0.0435,-1.16281 -0.041,-1.77344 -4.67034,-2.87192 -6.90924,-6.83639 -7.41602,-9.64649 -1.36372,-9.04002 3.23607,-18.96233 9.33789,-25.54687 z m 17.65625,6.55469 -3.32227,1.26562 c 0,0 -14.36721,25.03996 1.4375,33.04492 0,0 0.0569,-0.54085 0.19727,-1.4082 -3.90269,-3.12711 -5.02083,-6.5392 -5.37695,-8.70703 -1.18151,-9.5486 4.80261,-21.41271 7.06445,-24.19531 z" transform="scale(0.26458333)"/>
      <path style="font-variation-settings:normal;opacity:1;vector-effect:none;fill:#ffffff;fill-opacity:1;fill-rule:evenodd;stroke:none;stroke-width:0.264583;stroke-linecap:butt;stroke-linejoin:miter;stroke-miterlimit:4;stroke-dasharray:none;stroke-dashoffset:0;stroke-opacity:1;marker:none;marker-start:none;marker-mid:none;marker-end:none;stop-color:#000000;stop-opacity:1" d="m 48.116272,111.65582 c 0,0 -1.357682,-1.41199 0,-3.74721 L 48.822267,107.8 c 0,0 -0.81461,1.30338 -0.705995,3.85582 z m 3.475667,-0.50687 0.651688,-0.59738 c 0,0 -0.317399,1.25671 0.488766,3.11362 0,0 -1.303375,-0.63359 -1.140454,-2.51624 z" id="path967" sodipodi:nodetypes="cccccccc"/>
      <path style="color:#000000;font-style:normal;font-variant:normal;font-weight:normal;font-stretch:normal;font-size:medium;line-height:normal;font-family:sans-serif;font-variant-ligatures:normal;font-variant-position:normal;font-variant-caps:normal;font-variant-numeric:normal;font-variant-alternates:normal;font-variant-east-asian:normal;font-feature-settings:normal;font-variation-settings:normal;text-indent:0;text-align:start;text-decoration:none;text-decoration-line:none;text-decoration-style:solid;text-decoration-color:#000000;letter-spacing:normal;word-spacing:normal;text-transform:none;writing-mode:lr-tb;direction:ltr;text-orientation:mixed;dominant-baseline:auto;baseline-shift:baseline;text-anchor:start;white-space:normal;shape-padding:0;shape-margin:0;inline-size:0;clip-rule:nonzero;display:inline;overflow:visible;visibility:visible;opacity:1;isolation:auto;mix-blend-mode:normal;color-interpolation:sRGB;color-interpolation-filters:linearRGB;solid-color:#000000;solid-opacity:1;vector-effect:none;fill:#ffffff;fill-opacity:1;fill-rule:evenodd;stroke:none;stroke-width:0.529167;stroke-linecap:butt;stroke-linejoin:miter;stroke-miterlimit:4;stroke-dasharray:none;stroke-dashoffset:0;stroke-opacity:1;marker:none;color-rendering:auto;image-rendering:auto;shape-rendering:auto;text-rendering:auto;enable-background:accumulate;stop-color:#000000;stop-opacity:1" d="m 51.199219,61.589844 0.501953,-0.167969 c -1.816455,-7.020816 -3.154237,-14.661123 -0.251953,-21.525391 -3.609115,6.283781 -2.305026,15.332551 -0.25,21.69336 z m 10.25,-3.982422 0.503906,-0.15625 c -1.299558,-5.583876 -2.71543,-11.674052 -0.821289,-17.274414 -2.218707,5.226311 -1.197607,12.402849 0.317383,17.430664 z m -16.38086,13.183594 0.414063,-0.330078 c -7.236505,-9.045632 -6.66211,-18.076173 -6.66211,-18.076173 0,0 -1.108364,9.210737 6.248047,18.406251 z m -1.736328,13.40039 0.240235,-0.470703 C 35.961206,79.845982 33.742187,72.236328 33.488281,72.30957 c 0,0 2.019994,7.898833 9.84375,11.881836 z m 1.087891,10.41211 0.02734,-0.527344 C 38.97233,93.802425 34.190425,89.428711 34.190425,89.428711 c 0,0 4.479105,4.887285 10.229493,5.174805 z m 0.886719,8.277344 -0.0625,-0.52539 C 39.48018,103.04165 35.3125,99.391601 35.3125,99.391601 c 0,0 3.971515,4.206239 9.994141,3.489259 z m 2.162109,6.86523 -0.214844,-0.48437 c -2.592497,1.15222 -5.548828,1.03613 -5.548828,1.03613 0,0 2.998357,0.67727 5.763672,-0.55176 z m 3.701172,2.16602 -0.277344,-0.45117 c -2.204779,1.56697 -2.540039,4.5918 -2.540039,4.5918 0,0 0.961171,-2.9714 2.817383,-4.14063 z m 6.11914,1.30664 -0.210937,-0.48437 c -2.395701,1.04161 -3.268555,3.6162 -3.268555,3.6162 0,0 1.311131,-2.18906 3.479492,-3.13183 z" id="path1003" sodipodi:nodetypes="ccccccccccccccccccccccccccccccccccccc"/>
      <path style="font-variation-settings:normal;vector-effect:none;fill:#868686;fill-opacity:1;fill-rule:evenodd;stroke:none;stroke-width:0.264583;stroke-linecap:butt;stroke-linejoin:miter;stroke-miterlimit:4;stroke-dasharray:none;stroke-dashoffset:0;stroke-opacity:1;marker:none;marker-start:none;marker-mid:none;marker-end:none;stop-color:#000000" d="m 58.036406,55.683088 c 0,0 1.629217,0.977533 2.715364,3.367054 0,0 1.24907,-0.217229 1.792142,-0.651687 0,0 0.173296,-2.354789 1.572845,-4.271486 0,0 -1.919548,0.33524 -2.415642,3.402569 l -0.786421,0.162922 c 0,0 -1.194762,-2.172296 -2.878288,-2.009372 z m -4.283852,2.272628 c 0,0 -0.742664,3.338842 -0.115039,6.217416 0,0 -0.339938,0.670479 -1.643314,1.430781 0,0 -1.07675,-1.492417 -3.298651,-2.354006 0,0 1.832354,-0.578589 3.298651,1.159245 l 0.394246,-0.344635 c 0,0 -0.787367,-3.536944 1.364107,-6.108801 z m -6.14315,16.753033 c -3.007166,-3.502957 -1.631289,-7.494408 -1.631289,-7.494408 0,0 0.122125,5.315361 3.036524,7.123353 0,0 -0.590626,1.022742 -1.133699,1.620123 0,0 -1.629219,-0.651688 -3.204131,-0.597381 0,0 0.760303,-0.814609 2.932595,-0.651687 z m -4.636291,6.21922 c 0,0 0.30912,2.273579 2.608818,4.26209 0,0 -1.303375,0.108614 -2.498136,1.031838 0,0 1.624521,-0.302357 3.199433,-0.03082 0,0 0.221927,-1.001021 0.221927,-1.707016 0,0 -2.120052,-1.112267 -3.532042,-3.556095 z m -2.043508,8.914415 c 0,0 1.448195,3.783409 4.815248,5.032477 0,0 0.651688,-0.434458 0.868917,-0.868917 0,0 -2.914492,-1.122351 -5.684165,-4.16356 z m 1.375566,9.113674 c 0,0 0.738197,2.767022 3.392095,3.395572 2.653897,0.62856 2.764876,-0.92162 2.764876,-0.92162 0,0 -3.94251,0.42825 -6.156971,-2.473952 z m 3.312965,8.409482 c 0,0 2.986902,-0.10861 4.724735,-1.30337 0,0 0.271537,1.24906 -1.520604,1.73783 -1.792141,0.48877 -3.204131,-0.43446 -3.204131,-0.43446 z m 2.498136,4.29028 c 0,0 2.715365,-0.54307 4.181662,-2.60675 0,0 0.651688,0.81461 -0.380151,1.79214 -1.031839,0.97753 -3.801511,0.81461 -3.801511,0.81461 z m 4.616121,2.00937 c 0,0 2.552443,-1.24907 3.584282,-2.9869 0,0 0.651688,0.70599 -0.162922,1.68352 -0.81461,0.97753 -3.42136,1.30338 -3.42136,1.30338 z m 5.43073,1.30337 c 0.720538,-6.84817 3.394724,-12.43014 3.394724,-12.43014 l 0.698512,0.51318 z" id="path919" sodipodi:nodetypes="ccccccccccccccccccccccccccccccccccccscccscccscccccc"/>
      <path style="color:#000000;font-style:normal;font-variant:normal;font-weight:normal;font-stretch:normal;font-size:medium;line-height:normal;font-family:sans-serif;font-variant-ligatures:normal;font-variant-position:normal;font-variant-caps:normal;font-variant-numeric:normal;font-variant-alternates:normal;font-variant-east-asian:normal;font-feature-settings:normal;font-variation-settings:normal;text-indent:0;text-align:start;text-decoration:none;text-decoration-line:none;text-decoration-style:solid;text-decoration-color:#000000;letter-spacing:normal;word-spacing:normal;text-transform:none;writing-mode:lr-tb;direction:ltr;text-orientation:mixed;dominant-baseline:auto;baseline-shift:baseline;text-anchor:start;white-space:normal;shape-padding:0;shape-margin:0;inline-size:0;clip-rule:nonzero;display:inline;overflow:visible;visibility:visible;opacity:1;isolation:auto;mix-blend-mode:normal;color-interpolation:sRGB;color-interpolation-filters:linearRGB;solid-color:#000000;solid-opacity:1;vector-effect:none;fill:#868686;fill-opacity:1;fill-rule:evenodd;stroke:none;stroke-width:0.79375;stroke-linecap:butt;stroke-linejoin:miter;stroke-miterlimit:4;stroke-dasharray:none;stroke-dashoffset:0;stroke-opacity:1;marker:none;color-rendering:auto;image-rendering:auto;shape-rendering:auto;text-rendering:auto;enable-background:accumulate;stop-color:#000000;stop-opacity:1" d="m 56.609375,75.947266 c 0.854941,-1.577441 1.968517,-2.890307 3.392578,-3.703125 1.424061,-0.812819 3.16411,-1.143729 5.355469,-0.714844 l 0.818847,-0.461632 c -1.313776,-0.545377 -2.917287,-0.571973 -3.900878,-0.42704 -0.983592,0.144933 -1.87366,0.460691 -2.667969,0.914063 -1.588618,0.906743 -2.792748,2.34671 -3.697266,4.015624 -1.809035,3.337829 -2.44829,7.610707 -2.12207,10.72461 0.466537,-3.000056 1.111407,-7.192775 2.821289,-10.347656 z" id="path988" sodipodi:nodetypes="ssccssscs"/>
    </g>
    <g id="g878" transform="matrix(-1,0,0,1,166.25277,0)">
      <path sodipodi:nodetypes="cscscccsccccsccccsccccsccccsccccsccccsccccccc" id="path866" d="M 61.892225,102.78563 C 53.094441,96.377363 54.808763,80.652839 58.36225,75.849202 c 3.553487,-4.803637 7.277184,-3.149824 7.277184,-3.149824 4.453199,-3.692896 4.984832,-8.811689 3.258438,-13.250982 -1.726394,-4.439293 -0.03621,-7.639227 -0.03621,-7.639227 -2.226599,-0.488766 -3.765307,1.230965 -3.765307,1.230965 -4.561814,-11.29592 -0.325845,-16.618035 -0.325845,-16.618035 0,0 -4.99627,-0.362049 -6.951333,5.720369 -1.955063,6.082418 -0.217229,13.033753 -0.217229,13.033753 0,0 -1.194761,-0.66979 -2.117985,-0.561175 0,0 -1.249068,0.81461 -1.574912,2.769673 0,0 -3.834064,-10.84263 0.31325,-21.287719 0,0 -4.761731,-0.153605 -7.219399,7.065795 -2.457669,7.2194 0.793622,19.912575 0.793622,19.912575 0,0 -0.72962,-0.03362 -1.113631,0.119977 0,0 -0.275452,0.585985 -0.485927,1.462565 0,0 -6.552634,-7.236989 -5.792331,-17.446762 0,0 -3.910126,1.194761 -4.344585,8.47194 -0.434458,7.277178 3.801512,16.292191 7.603023,19.659244 0,0 -1.158556,0.362049 -1.864551,1.556809 0,0 0,0.705995 0.217229,1.41199 0,0 -5.557447,-2.172292 -9.033115,-11.187305 0,0 -3.194813,3.295709 -0.153604,9.703971 3.041209,6.408262 8.77212,9.856201 8.77212,9.856201 0,0 -0.725854,0.280097 -1.268927,0.877477 0,0 -0.162922,0.977532 0.59738,2.280907 0,0 -5.293418,-0.0607 -9.363931,-6.665681 0,0 -1.632925,1.817523 0.921625,6.835389 2.554551,5.017867 9.830673,6.988994 9.830673,6.988994 0,0 -0.320323,0.390014 -0.428938,0.715857 0,0 0.03213,0.484271 0.416137,1.239115 0,0 -4.226433,1.032474 -9.503559,-4.063094 0,0 -1.802917,2.06684 1.258386,5.788386 3.561058,4.32908 10.146148,4.42139 10.146148,4.42139 0,0 -0.380151,0.85081 -0.380151,1.5025 0,0 0.59738,0.54307 1.792141,0.7603 0,0 -4.181663,1.95506 -8.797783,-0.27154 0,0 -0.868918,2.11799 3.095516,3.91013 3.964433,1.79214 8.200403,0.65169 8.200403,0.65169 -1.99009,2.0514 -4.046832,8.04946 0.325844,9.72101 -0.134128,-2.46479 0.880361,-6.56838 4.290277,-7.71164 0,0 -3.801512,6.62549 0.380151,8.74347 0,0 0.488766,-5.43073 5.050579,-7.4401 l 3.994017,-11.74333 z" style="font-variation-settings:normal;opacity:1;vector-effect:none;fill:#cccccc;fill-opacity:1;fill-rule:evenodd;stroke:none;stroke-width:0.264583;stroke-linecap:butt;stroke-linejoin:miter;stroke-miterlimit:4;stroke-dasharray:none;stroke-dashoffset:0;stroke-opacity:1;marker:none;marker-start:none;marker-mid:none;marker-end:none;stop-color:#000000;stop-opacity:1"/>
      <path id="path868" style="font-variation-settings:normal;opacity:1;vector-effect:none;fill:#ffffff;fill-opacity:1;fill-rule:evenodd;stroke:none;stroke-width:0.5;stroke-linecap:butt;stroke-linejoin:miter;stroke-miterlimit:4;stroke-dasharray:none;stroke-dashoffset:0;stroke-opacity:1;marker:none;marker-start:none;marker-mid:none;marker-end:none;stop-color:#000000;stop-opacity:1" d="m 417.98828,206.37695 c -3.37134,-0.0601 -7.33984,2.16407 -7.33984,2.16407 l -1.64258,1.91406 c -2.62018,0.87339 -10.8775,7.59516 -10.26172,12.72656 9.65818,-11.2071 12.64895,-12.34091 19.33984,-14.66602 5.10607,7.00006 6.63978,21.15403 7.54883,34.0293 0,0 2.2269,-10.16663 -0.43554,-23.5 l -0.58985,-2.1582 c -1.23154,-7.38922 -5.95312,-10.4668 -5.95312,-10.4668 -0.21809,-0.0256 -0.44126,-0.039 -0.66602,-0.043 z m 30.17383,32.00586 c -0.2812,0.003 -0.45313,0.0117 -0.45313,0.0117 l -3.39843,0.66016 c -5.90187,1.45431 -8.5927,2.68146 -12.4668,8.89648 9.92346,-7.97073 15.48482,-7.4857 18.24219,-7.09179 l 3.66797,3.51757 c -0.79549,-3.31306 -1.83594,-5.52929 -1.83594,-5.52929 -1.08854,-0.4354 -2.91225,-0.47347 -3.75586,-0.46485 z m 55.53711,15.31446 c -13.13639,34.07249 -34.14063,42.28125 -34.14063,42.28125 0.82102,-2.66833 0.82032,-5.33594 0.82032,-5.33594 -2.66832,-4.51563 -7.04688,-5.88477 -7.04688,-5.88477 14.36791,-12.72587 6.53724,-9.35614 -2.11328,-0.2539 -5.85184,-0.78685 -15.06065,1.56446 -13.82813,2.58007 12.1101,-2.25781 17.85133,0.002 20.5625,3.91602 0.10655,3.81134 -2.01367,14.86914 -2.01367,14.86914 0,0 1.43283,-3.26314 2.59571,-6.59961 26.67848,-12.35636 35.97851,-40.39062 35.97851,-40.39062 1.5967,3.57919 3.473,7.6693 4.72071,12.34375 0.19793,-11.60676 -5.53516,-17.52539 -5.53516,-17.52539 z m 5.35547,60.67187 c -15.38462,24.96371 -35.39258,25.19336 -35.39258,25.19336 2.87358,-4.92614 2.25781,-8.62109 2.25781,-8.62109 -2.05256,-2.25782 -4.79492,-3.31641 -4.79492,-3.31641 -1.46043,-0.48031 -2.27333,-0.79834 -5.60352,-1.74609 -5.98798,-1.82019 -9.62082,-1.84473 -12.09375,-0.11719 13.23288,1.27093 18.57812,4.11655 20.54493,6.05469 -0.84006,6.95032 -7.43257,16.07204 -21.79297,23.48242 13.06142,-1.17215 20.19336,-13.50977 20.19336,-13.50977 14.8061,-0.004 29.16479,-11.02486 36.35937,-22.57812 1.17617,2.09151 1.42736,3.823 1.64844,7.98242 1.88293,-9.19136 -1.32617,-12.82422 -1.32617,-12.82422 z m -53.5918,44.21289 c -0.39392,1.45715 0.32227,3.13281 0.32227,3.13281 9.79823,1.90829 12.04882,8.13868 12.04882,8.13868 0,0 0.0233,2.77417 -1.29882,6.1289 14.71625,1.93841 29.69392,-5.59026 37.33203,-14.55078 0.24488,0.76615 1.47102,3.56913 2.35547,5.91016 0.79078,-5.66748 -1.83985,-8.69141 -1.83985,-8.69141 -19.94504,19.25884 -35.91992,15.35742 -35.91992,15.35742 1.45136,-2.85295 1.57422,-4.68359 1.57422,-4.68359 -0.41052,-1.23153 -1.62109,-2.70508 -1.62109,-2.70508 l 0.004,-0.002 h -0.004 c -5.62944,-6.63173 -12.95313,-8.03516 -12.95313,-8.03516 z m -3.30664,32.17383 c 5.18534,2.64408 7.68172,6.98848 8.52148,11.39844 -3.18549,1.86009 -6.38325,2.45647 -11.18359,3.05273 13.08726,8.14007 26.93695,7.51849 39.97852,1.99609 0.0904,-1.49441 -0.2793,-2.4375 -0.2793,-2.4375 -17.44676,8.4155 -33.25,1.0254 -33.25,1.0254 4.51563,-0.82103 6.77344,-2.87305 6.77344,-2.87305 -10e-6,-2.46308 -1.4375,-5.67969 -1.4375,-5.67969 -3.57835,-6.57392 -9.12305,-6.48242 -9.12305,-6.48242 z" transform="matrix(-0.26458333,0,0,0.26458333,166.25277,0)" sodipodi:nodetypes="sccccccccssccccccsccccccccccccccccccccccccccccccccccccccccccccccccc"/>
      <path id="path870" style="font-variation-settings:normal;opacity:1;vector-effect:none;fill:#868686;fill-opacity:1;fill-rule:evenodd;stroke:none;stroke-width:0.999999;stroke-linecap:butt;stroke-linejoin:miter;stroke-miterlimit:4;stroke-dasharray:none;stroke-dashoffset:0;stroke-opacity:1;marker:none;marker-start:none;marker-mid:none;marker-end:none;stop-color:#000000;stop-opacity:1" d="m 386.02539,204.57422 c 5.28963,7.24421 5.94531,16.14453 5.94531,16.14453 2.05256,1.64205 6.77344,2.46289 6.77344,2.46289 4.10512,-9.03126 10.26172,-12.72656 10.26172,-12.72656 -6.36293,-0.61578 -10.87695,7.5957 -10.87695,7.5957 l -2.97266,-0.61719 c -1.875,-11.59305 -9.13086,-12.85937 -9.13086,-12.85937 z m 39.17188,14.4707 c 0,0 2.80767,12.62035 0.43554,23.5 0,0 1.28479,2.53267 6.21094,5.40625 0,0 4.06906,-5.64008 12.4668,-8.89648 0,0 -6.92489,-2.18733 -12.4668,4.38086 l -1.49023,-1.30274 c 0,0 2.9753,-13.36748 -5.15625,-23.08789 z m 29.38476,34.99414 c 0,0 -0.46151,20.08852 -11.47656,26.92188 0,0 2.23064,3.86523 4.2832,6.12304 0,0 6.15891,-2.46306 12.11133,-2.25781 0,0 -2.87375,-3.07866 -11.08398,-2.46289 11.36566,-13.23952 6.16601,-28.32422 6.16601,-28.32422 z m 11.35742,51.83008 c -5.33665,9.23652 -13.34961,13.44141 -13.34961,13.44141 0,2.66832 0.83789,6.45117 0.83789,6.45117 5.95243,-1.02628 12.09375,0.11719 12.09375,0.11719 -4.51563,-3.48935 -9.44336,-3.90039 -9.44336,-3.90039 8.69178,-7.51564 9.86133,-16.10938 9.86133,-16.10938 z m 7.72266,33.69336 c -10.46806,11.49433 -21.48242,15.73633 -21.48242,15.73633 0.82102,1.64205 3.2832,3.2832 3.2832,3.2832 12.72587,-4.72089 18.19922,-19.01953 18.19922,-19.01953 z m -5.19922,34.44531 c -8.36962,10.96895 -23.26953,9.34961 -23.26953,9.34961 0,0 0.41874,5.85808 10.44922,3.48242 10.03048,-2.37562 12.82031,-12.83203 12.82031,-12.83203 z m -30.37891,26.85742 c 0,0 -1.00311,4.65442 5.6211,6.52735 0.86499,1.64721 3.13119,6.71106 2.79492,14.61328 0,0 4.75841,-5.72786 0.46289,-14.07031 5.21341,0.30258 8.97852,-2.14453 8.97852,-2.14453 0,0 -11.28924,-0.41016 -17.85743,-4.92579 z M 446.5,422.00586 c 0,0 -10.26278,-2.05183 -15.80469,-9.85156 0,0 -1.91544,2.40602 0.33008,5.51562 0.20591,1.82427 0.40164,6.46273 -1.97266,11.93164 0,0 4.58557,-3.28981 4.625,-9.59375 4.58035,2.47664 12.82227,1.99805 12.82227,1.99805 z m -28.77666,-2.42637 c 0,0 -0.53033,4.50781 -2.65165,7.42462 0,0 3.44714,0.53033 4.77297,-3.18198 1.32582,-3.71231 -2.12132,-4.24264 -2.12132,-4.24264 z m -12.72793,-5.56846 c -3.71231,-10.87176 -8.62426,-24.28058 -8.62426,-24.28058 l -2.93884,0.41216 15.09549,44.38424 c 0,0 0.17992,-9.64405 -3.53239,-20.51582 z" transform="matrix(-0.26458333,0,0,0.26458333,166.25277,0)" sodipodi:nodetypes="ccccccccccccccccccccccccccccccccscccccccccccccccscscccs"/>
      <path sodipodi:nodetypes="ccccccccccccccccccccccccccccccccccccc" id="path872" d="m 51.199219,61.589844 0.501953,-0.167969 c -1.816455,-7.020816 -3.154237,-14.661123 -0.251953,-21.525391 -3.609115,6.283781 -2.305026,15.332551 -0.25,21.69336 z m 10.25,-3.982422 0.503906,-0.15625 c -1.299558,-5.583876 -2.71543,-11.674052 -0.821289,-17.274414 -2.218707,5.226311 -1.197607,12.402849 0.317383,17.430664 z m -16.38086,13.183594 0.414063,-0.330078 c -7.236505,-9.045632 -6.66211,-18.076173 -6.66211,-18.076173 0,0 -1.108364,9.210737 6.248047,18.406251 z m -1.736328,13.40039 0.240235,-0.470703 C 35.961206,79.845982 33.742187,72.236328 33.488281,72.30957 c 0,0 2.019994,7.898833 9.84375,11.881836 z m 1.087891,10.41211 0.02734,-0.527344 C 38.97233,93.802425 34.190425,89.428711 34.190425,89.428711 c 0,0 4.479105,4.887285 10.229493,5.174805 z m 0.886719,8.277344 -0.0625,-0.52539 C 39.48018,103.04165 35.3125,99.391601 35.3125,99.391601 c 0,0 3.971515,4.206239 9.994141,3.489259 z m 2.162109,6.86523 -0.214844,-0.48437 c -2.592497,1.15222 -5.548828,1.03613 -5.548828,1.03613 0,0 2.998357,0.67727 5.763672,-0.55176 z m 3.701172,2.16602 -0.277344,-0.45117 c -2.204779,1.56697 -2.540039,4.5918 -2.540039,4.5918 0,0 0.961171,-2.9714 2.817383,-4.14063 z m 6.11914,1.30664 -0.210937,-0.48437 c -2.395701,1.04161 -3.268555,3.6162 -3.268555,3.6162 0,0 1.311131,-2.18906 3.479492,-3.13183 z" style="color:#000000;font-style:normal;font-variant:normal;font-weight:normal;font-stretch:normal;font-size:medium;line-height:normal;font-family:sans-serif;font-variant-ligatures:normal;font-variant-position:normal;font-variant-caps:normal;font-variant-numeric:normal;font-variant-alternates:normal;font-variant-east-asian:normal;font-feature-settings:normal;font-variation-settings:normal;text-indent:0;text-align:start;text-decoration:none;text-decoration-line:none;text-decoration-style:solid;text-decoration-color:#000000;letter-spacing:normal;word-spacing:normal;text-transform:none;writing-mode:lr-tb;direction:ltr;text-orientation:mixed;dominant-baseline:auto;baseline-shift:baseline;text-anchor:start;white-space:normal;shape-padding:0;shape-margin:0;inline-size:0;clip-rule:nonzero;display:inline;overflow:visible;visibility:visible;opacity:1;isolation:auto;mix-blend-mode:normal;color-interpolation:sRGB;color-interpolation-filters:linearRGB;solid-color:#000000;solid-opacity:1;vector-effect:none;fill:#ffffff;fill-opacity:1;fill-rule:evenodd;stroke:none;stroke-width:0.529167;stroke-linecap:butt;stroke-linejoin:miter;stroke-miterlimit:4;stroke-dasharray:none;stroke-dashoffset:0;stroke-opacity:1;marker:none;color-rendering:auto;image-rendering:auto;shape-rendering:auto;text-rendering:auto;enable-background:accumulate;stop-color:#000000;stop-opacity:1"/>
      <path id="path889" style="font-variation-settings:normal;opacity:1;vector-effect:none;fill:#ffffff;fill-opacity:1;fill-rule:evenodd;stroke:none;stroke-width:0.999999;stroke-linecap:butt;stroke-linejoin:miter;stroke-miterlimit:4;stroke-dasharray:none;stroke-dashoffset:0;stroke-opacity:1;marker:none;marker-start:none;marker-mid:none;marker-end:none;stop-color:#000000;stop-opacity:1" d="m 423.42188,136.42969 c 15.67488,39.4775 1.18359,80.45703 1.18359,80.45703 -0.0843,-0.5057 -0.1884,-0.98546 -0.30274,-1.45117 l -0.12109,9.32812 c 8.10667,-22.72747 10.9514,-47.61855 6.27539,-71.40039 -0.9643,-4.93354 -2.30768,-9.79384 -4.00195,-14.52539 0.26819,0.064 0.53649,0.12937 0.80469,0.19336 7.466,2.15735 14.94724,8.87487 20.15429,16.20117 -9.68547,-19.24616 -23.99218,-18.80273 -23.99218,-18.80273 z m -39.04102,1.21484 c -0.53078,-0.007 -0.82617,0.0137 -0.82617,0.0137 0,0 16.01103,20.11536 -1.23047,62.8086 0,0 -5.81693,-6.49965 -14.23242,-4.65235 0,0 6.38823,12.09462 -0.13672,28.87305 -6.52496,16.77843 -4.51458,36.12463 12.3164,50.08203 0,0 0.67667,-0.28622 1.82422,-0.55859 -7.33838,-8.15106 -14.79135,-19.267 -15.44922,-28.53516 -0.67241,-7.19212 0.99484,-15.04777 3.7793,-21.92383 2.91374,-8.39234 3.41642,-17.78184 0.51758,-26.25 4.92018,-0.13568 9.12436,3.00997 12.10547,6.64453 7.02685,-17.07056 11.94142,-36.12862 7.67578,-54.5332 -0.79599,-3.34344 -1.92771,-6.62361 -3.49023,-9.68945 6.92362,0.98483 14.48672,5.88377 20.30664,13.66211 -7.23661,-14.70777 -19.83167,-15.89448 -23.16016,-15.94141 z m 69.38672,109.79297 c 16.0839,-18.1455 24.7973,-41.20152 24.07226,-65.57031 2.85867,1.39845 5.6602,3.57807 8.21289,6.21289 -4.71206,-7.89833 -10.40625,-9.64453 -10.40625,-9.64453 2.87359,38.58812 -21.89257,65.9414 -21.89257,65.9414 z m -62.4961,26.63477 c -0.35187,0.006 -0.70346,0.0238 -1.05664,0.0508 5.02637,0.99488 11.36049,4.16948 17.56055,12.55078 13.4305,18.15548 19.90967,77.58642 -13.3418,101.80664 l -1.00195,1.66211 0.51172,1.50586 c 22.94425,-16.13305 29.17515,-44.29598 28.07031,-62.44532 -1.13679,-18.67415 -5.01227,-33.51657 -11.24219,-43.2539 -4.67243,-7.303 -11.90992,-12.00578 -19.5,-11.87695 z m 33.52149,151.82617 4.25976,3.70312 c 12.88788,4.32099 16.72374,19.83075 16.2168,29.14649 0.82605,-0.31578 1.57356,-0.68455 2.28125,-1.07813 -0.74087,-16.72888 -5.77805,-27.8365 -22.75781,-31.77148 z m -16.91211,6.73047 0.64648,1.89843 c 17.2415,7.59447 19.08985,28.11914 19.08985,28.11914 0.68822,-0.34858 1.29948,-0.73872 1.87695,-1.14843 -1.21407,-13.0314 -8.77668,-26.13242 -21.61328,-28.86914 z" transform="matrix(-0.26458333,0,0,0.26458333,166.25277,0)" sodipodi:nodetypes="cccccccccscccscccccccccsccccccscscccssscccccccccc"/>
    </g>
    <g id="g950">
      <path sodipodi:nodetypes="ccccsscscsccccscscssccccc" id="path865" d="m 103.60783,159.31321 -1.07523,-6.83539 h -3.686501 c -1.45924,-3.6865 -0.785738,-7.22388 -0.785738,-7.22388 7.112659,-3.41977 11.350759,-9.67287 11.350759,-19.08555 0,-9.41269 -2.24809,-14.83303 -4.74337,-22.15393 -2.57294,-7.548763 -7.076085,-17.791272 -2.16075,-25.625089 0,0 -0.19203,-0.422184 -0.89803,-0.422184 h -4.561813 c 0,0 -4.1409,6.342185 -1.828345,18.627405 2.219024,11.788348 10.585338,31.485948 -1.45698,38.756778 0,-3.39979 0.450539,-6.57647 2.216988,-9.62629 H 70.273946 c 1.766449,3.04982 2.216988,6.2265 2.216988,9.62629 -12.042315,-7.27083 -3.676004,-26.96843 -1.45698,-38.756778 2.312555,-12.28522 -1.828345,-18.627405 -1.828345,-18.627405 h -4.561814 c -0.705995,0 -0.89803,0.422184 -0.89803,0.422184 4.915336,7.833817 0.412194,18.076326 -2.160749,25.625089 -2.495276,7.3209 -4.743371,12.74124 -4.743371,22.15393 0,9.41268 4.238102,15.66578 11.35076,19.08555 0,0 0.673502,3.53738 -0.785738,7.22388 h -3.686503 l -1.075229,6.83539 z" style="font-variation-settings:normal;opacity:1;vector-effect:none;fill:#cccccc;fill-opacity:1;fill-rule:evenodd;stroke:none;stroke-width:0.264583;stroke-linecap:butt;stroke-linejoin:miter;stroke-miterlimit:4;stroke-dasharray:none;stroke-dashoffset:0;stroke-opacity:1;marker:none;marker-start:none;marker-mid:none;marker-end:none;stop-color:#000000;stop-opacity:1"/>
      <path id="path952" style="font-variation-settings:normal;opacity:1;vector-effect:none;fill:#ffffff;fill-opacity:1;fill-rule:evenodd;stroke:none;stroke-width:0.999999;stroke-linecap:butt;stroke-linejoin:miter;stroke-miterlimit:4;stroke-dasharray:none;stroke-dashoffset:0;stroke-opacity:1;marker:none;marker-start:none;marker-mid:none;marker-end:none;stop-color:#000000;stop-opacity:1" d="m 244.32227,294.67969 c -2.66833,0 -3.39258,1.5957 -3.39258,1.5957 18.57765,29.60813 1.55654,68.31885 -8.16797,96.84961 -9.43097,27.66954 -17.92774,48.1569 -17.92774,83.73242 0,35.57549 16.01791,59.20965 42.9004,72.13477 -23.8103,-13.38947 -38.9004,-36.06443 -38.9004,-69.33985 0,-35.57552 8.49677,-56.06092 17.92774,-83.73046 9.72451,-28.53076 26.93312,-67.99344 8.35547,-97.60157 0,0 0.53675,-0.8457 3.20508,-0.8457 h 14.75976 c -0.90384,-1.83732 -1.51758,-2.79492 -1.51758,-2.79492 z m 13.41211,254.3125 c 0,0 2.54648,13.3695 -2.96876,27.30273 h -13.93359 l -4.06445,25.83399 h 3.11523 l 3.62305,-23.03907 h 144.45898 l -0.43945,-2.79492 H 373.5918 l -115.11914,-0.0547 c 4.28657,-12.95043 2.99804,-25.24804 2.99804,-25.24804 -1.73803,-0.83566 -2.09051,-1.07451 -3.73632,-2 z m 109.05859,-254.3125 c 0,0 -15.65052,23.97001 -6.91016,70.40234 8.38686,44.55439 40.00646,119.00212 -5.50781,146.48242 -0.0257,1.0642 1.87868,2.77977 4,2.79493 45.5143,-27.48031 13.89467,-101.92805 5.50781,-146.48243 -8.74036,-46.43232 6.91016,-70.40234 6.91016,-70.40234 h 15.91015 c 0.2368,-0.40093 0.47508,-0.80153 0.72461,-1.19922 0,0 -0.72618,-1.5957 -3.39453,-1.5957 z M 265.60156,475.18164 c 6.67635,11.52688 8.38086,23.53321 8.38086,36.38281 -0.27736,-0.16746 2.28457,1.7592 4,2.79493 0,-12.8496 -1.70451,-24.85594 -8.38086,-36.38282 h 91.64649 c 0.47488,-0.93474 0.96817,-1.86658 1.50586,-2.79492 z" transform="scale(0.26458333)" sodipodi:nodetypes="scsscsscsccscccccccccccccsccscccscccccccc"/>
      <path sodipodi:nodetypes="cccc" id="path957" d="m 98.060362,145.25394 c -11.444069,1.05602 -26.457497,0.33304 -26.457497,0.33304 0,0 7.342188,1.78594 26.29297,0.59531 z" style="font-variation-settings:normal;opacity:1;vector-effect:none;fill:#868686;fill-opacity:1;fill-rule:evenodd;stroke:none;stroke-width:0.264583;stroke-linecap:butt;stroke-linejoin:miter;stroke-miterlimit:4;stroke-dasharray:none;stroke-dashoffset:0;stroke-opacity:1;marker:none;marker-start:none;marker-mid:none;marker-end:none;stop-color:#000000;stop-opacity:1"/>
    </g>
  </g>
</svg>