<?xml version="1.0" encoding="UTF-8" standalone="no"?>
<!-- Created with Inkscape (http://www.inkscape.org/) -->

<svg
   width="500.00006"
   height="530"
   viewBox="0 0 132.29168 140.22917"
   version="1.1"
   id="svg5"
   xml:space="preserve"
   xmlns="http://www.w3.org/2000/svg"
   xmlns:svg="http://www.w3.org/2000/svg"><defs
     id="defs2" /><g
     id="layer1"
     transform="translate(-30.725128,-56.659272)"><path
       style="font-variation-settings:normal;fill:#bf9f4f;fill-opacity:1;stroke:none;stroke-width:0.264583;stroke-linecap:butt;stroke-linejoin:miter;stroke-miterlimit:4;stroke-dasharray:none;stroke-dashoffset:0;stroke-opacity:1;stop-color:#000000"
       d="m 158.24072,141.55194 c -2.02063,35.91566 -34.02988,55.3365 -61.369746,55.3365 -27.339866,0 -59.349106,-19.42084 -61.369746,-55.3365 l -4.7761,-84.892668 H 163.01681 c 0,0 -2.75545,48.977008 -4.77609,84.892668 z"
       id="path4221" /><g
       id="g5972"
       transform="translate(0.4278755)"><path
         id="path5169"
         style="opacity:1;stroke-width:0.132292;stroke-linecap:round;stroke-linejoin:round;stroke-miterlimit:10;paint-order:markers stroke fill;stop-color:#000000"
         d="M 108.40831,73.437889 A 11.965216,11.965216 0 0 1 96.443092,85.403105 11.965216,11.965216 0 0 1 84.477877,73.437889 11.965216,11.965216 0 0 1 96.443092,61.472673 11.965216,11.965216 0 0 1 108.40831,73.437889 Z" /><path
         style="color:#000000;fill:#504330;fill-opacity:1;-inkscape-stroke:none"
         d="m 93.407384,63.318675 c 3.234624,-0.81095 7.133936,-0.425774 9.019346,1.300087 -1.32133,-1.537285 -3.979984,-2.033079 -6.508761,-1.976184 -0.842926,0.01897 -1.701809,0.128952 -2.550782,0.341797 -3.395889,0.85138 -6.634923,3.386841 -7.80664,8.399414 1.634072,-4.708591 4.612213,-7.254164 7.846837,-8.065114 z m -6.869267,8.50233 c 1.233401,-4.522466 5.471249,-8.265416 11.829543,-7.667181 -6.054187,-1.269778 -10.750315,2.823908 -12.051001,7.593089 -1.301561,4.772389 1.194209,7.406123 1.194209,7.406123 0,0 -2.205275,-2.812773 -0.972751,-7.332031 z m 3.90247,-3.992691 c 3.328229,-2.811407 6.451964,-3.08734 9.102872,-2.706455 -2.062282,-0.508418 -5.79028,-0.726532 -9.289427,2.390868 -3.416276,3.043569 -3.921151,8.11176 -2.28147,10.010521 -1.352517,-2.074237 -0.832239,-6.907149 2.468025,-9.694934 z m 13.152203,-1.516791 c -1.76669,-1.768876 -3.41797,-1.483398 -3.41797,-1.483398 0,0 1.62313,0.303253 3.41797,1.483398 z M 89.985305,70.43018 c 2.272973,-3.222777 5.389817,-4.446831 8.361567,-4.71408 -3.091911,0.02355 -6.008511,0.713937 -8.614403,4.481658 -2.605891,3.767721 -1.556907,7.464433 0.701471,8.804132 -2.224771,-1.520399 -2.721608,-5.348933 -0.448635,-8.57171 z m 2.223616,-0.623414 c 2.689204,-2.907056 5.838302,-3.384862 7.745778,-3.454415 -1.560816,-0.291106 -5.0862,0.01691 -8.017577,3.286006 -2.931377,3.269096 -2.940273,6.544758 -1.485133,7.579008 -1.147773,-1.372527 -0.932272,-4.503543 1.756932,-7.410599 z m 12.326229,-1.999149 c -1.60247,-2.079985 -3.66894,-1.944336 -3.66894,-1.944336 0,0 1.9209,0.721305 3.66894,1.944336 z m -1.37109,11.555664 c 1.41006,-1.71109 2.31514,-4.349344 1.9043,-7.791014 -0.12091,3.361525 -1.00179,5.864539 -2.3125,7.45508 -1.31072,1.59054 -3.041924,2.27155 -4.712892,2.266599 1.786755,0.559353 3.711042,-0.219574 5.121092,-1.930665 z m 1.64331,-1.050939 c -2.01522,4.168096 -5.886469,3.985509 -5.886469,3.985509 0,0 4.442969,0.918 5.886469,-3.985509 z m -7.203785,3.954622 c -2.504045,0.13247 -4.484376,-1.004153 -4.484376,-1.004153 0,0 1.388256,1.818626 4.484376,1.004153 z"
         id="path5960" /><path
         style="color:#000000;fill:#504330;fill-opacity:1;-inkscape-stroke:none"
         d="m 93.93117,63.93117 c 3.234624,-0.81095 6.93434,-0.11529 8.7754,1.322265 -1.32133,-1.537285 -3.824748,-2.232676 -6.353525,-2.175781 -0.842926,0.01897 -1.701809,0.128952 -2.550782,0.341797 -3.395889,0.85138 -6.634923,3.386841 -7.80664,8.399414 1.634072,-4.708591 4.700923,-7.076745 7.935547,-7.887695 z m -6.802735,8.302734 c 1.233401,-4.522466 5.404717,-7.954933 11.674301,-7.645004 -6.054187,-1.269778 -10.88338,2.735198 -12.184066,7.504379 -1.301561,4.772389 1.948242,7.472656 1.948242,7.472656 0,0 -2.671001,-2.812773 -1.438477,-7.332031 z m 3.90247,-3.881804 c 3.328229,-2.811407 6.296722,-3.17605 8.947634,-2.795165 -2.106641,-0.75237 -5.790284,-0.726532 -9.289431,2.390868 -3.416276,3.043569 -4.165103,7.867808 -2.059696,9.766569 -1.352517,-2.074237 -0.898771,-6.574487 2.401493,-9.362272 z m 12.902875,-1.448683 c -1.76669,-1.768876 -3.4807,-1.67158 -3.4807,-1.67158 0,0 1.68586,0.491435 3.4807,1.67158 z m -13.291625,3.961839 c 2.272973,-3.222777 5.168043,-4.602073 8.139793,-4.869322 -3.091911,0.02355 -6.008511,0.869179 -8.614403,4.6369 -2.605891,3.767721 -1.401665,7.353546 1.034132,8.493648 -2.224771,-1.520399 -2.832495,-5.038449 -0.559522,-8.261226 z m 2.179261,-0.645591 c 2.689204,-2.907056 5.660883,-3.362685 7.568364,-3.432238 -1.560821,-0.291106 -5.086205,-0.116159 -8.017582,3.152941 -2.931377,3.269096 -2.626637,6.521005 -1.171497,7.555255 -1.147773,-1.372527 -1.068489,-4.368902 1.620715,-7.275958 z m 11.882224,-1.898563 c -1.55543,-1.86044 -3.66894,-1.944336 -3.66894,-1.944336 0,0 1.9209,0.721305 3.66894,1.944336 z m -1.1045,11.477255 c 1.41006,-1.71109 2.22979,-4.191011 1.88212,-7.103514 -0.10232,2.844681 -0.95743,5.332281 -2.26814,6.922822 -1.31072,1.59054 -3.06411,2.116308 -4.735076,2.111357 1.786756,0.559353 3.711046,-0.219574 5.121096,-1.930665 z m -0.21272,-2.741692 c -1.8145,3.604013 -5.661351,3.998309 -5.661351,3.998309 0,0 4.439631,0.284233 5.661351,-3.998309 z m -5.347759,5.645375 c -2.504045,0.13247 -4.484376,-1.004153 -4.484376,-1.004153 0,0 1.388256,1.818626 4.484376,1.004153 z"
         id="path5967" /></g><g
       id="g5980"
       transform="translate(-36.704022,77.383857)"><path
         id="path5974"
         style="opacity:1;stroke-width:0.132292;stroke-linecap:round;stroke-linejoin:round;stroke-miterlimit:10;paint-order:markers stroke fill;stop-color:#000000"
         d="M 108.40831,73.437889 A 11.965216,11.965216 0 0 1 96.443092,85.403105 11.965216,11.965216 0 0 1 84.477877,73.437889 11.965216,11.965216 0 0 1 96.443092,61.472673 11.965216,11.965216 0 0 1 108.40831,73.437889 Z" /><path
         style="color:#000000;fill:#504330;fill-opacity:1;-inkscape-stroke:none"
         d="m 93.407384,63.318675 c 3.234624,-0.81095 7.133936,-0.425774 9.019346,1.300087 -1.32133,-1.537285 -3.979984,-2.033079 -6.508761,-1.976184 -0.842926,0.01897 -1.701809,0.128952 -2.550782,0.341797 -3.395889,0.85138 -6.634923,3.386841 -7.80664,8.399414 1.634072,-4.708591 4.612213,-7.254164 7.846837,-8.065114 z m -6.869267,8.50233 c 1.233401,-4.522466 5.471249,-8.265416 11.829543,-7.667181 -6.054187,-1.269778 -10.750315,2.823908 -12.051001,7.593089 -1.301561,4.772389 1.194209,7.406123 1.194209,7.406123 0,0 -2.205275,-2.812773 -0.972751,-7.332031 z m 3.90247,-3.992691 c 3.328229,-2.811407 6.451964,-3.08734 9.102872,-2.706455 -2.062282,-0.508418 -5.79028,-0.726532 -9.289427,2.390868 -3.416276,3.043569 -3.921151,8.11176 -2.28147,10.010521 -1.352517,-2.074237 -0.832239,-6.907149 2.468025,-9.694934 z m 13.152203,-1.516791 c -1.76669,-1.768876 -3.41797,-1.483398 -3.41797,-1.483398 0,0 1.62313,0.303253 3.41797,1.483398 z M 89.985305,70.43018 c 2.272973,-3.222777 5.389817,-4.446831 8.361567,-4.71408 -3.091911,0.02355 -6.008511,0.713937 -8.614403,4.481658 -2.605891,3.767721 -1.556907,7.464433 0.701471,8.804132 -2.224771,-1.520399 -2.721608,-5.348933 -0.448635,-8.57171 z m 2.223616,-0.623414 c 2.689204,-2.907056 5.838302,-3.384862 7.745778,-3.454415 -1.560816,-0.291106 -5.0862,0.01691 -8.017577,3.286006 -2.931377,3.269096 -2.940273,6.544758 -1.485133,7.579008 -1.147773,-1.372527 -0.932272,-4.503543 1.756932,-7.410599 z m 12.326229,-1.999149 c -1.60247,-2.079985 -3.66894,-1.944336 -3.66894,-1.944336 0,0 1.9209,0.721305 3.66894,1.944336 z m -1.37109,11.555664 c 1.41006,-1.71109 2.31514,-4.349344 1.9043,-7.791014 -0.12091,3.361525 -1.00179,5.864539 -2.3125,7.45508 -1.31072,1.59054 -3.041924,2.27155 -4.712892,2.266599 1.786755,0.559353 3.711042,-0.219574 5.121092,-1.930665 z m 1.64331,-1.050939 c -2.01522,4.168096 -5.886469,3.985509 -5.886469,3.985509 0,0 4.442969,0.918 5.886469,-3.985509 z m -7.203785,3.954622 c -2.504045,0.13247 -4.484376,-1.004153 -4.484376,-1.004153 0,0 1.388256,1.818626 4.484376,1.004153 z"
         id="path5976" /><path
         style="color:#000000;fill:#504330;fill-opacity:1;-inkscape-stroke:none"
         d="m 93.93117,63.93117 c 3.234624,-0.81095 6.93434,-0.11529 8.7754,1.322265 -1.32133,-1.537285 -3.824748,-2.232676 -6.353525,-2.175781 -0.842926,0.01897 -1.701809,0.128952 -2.550782,0.341797 -3.395889,0.85138 -6.634923,3.386841 -7.80664,8.399414 1.634072,-4.708591 4.700923,-7.076745 7.935547,-7.887695 z m -6.802735,8.302734 c 1.233401,-4.522466 5.404717,-7.954933 11.674301,-7.645004 -6.054187,-1.269778 -10.88338,2.735198 -12.184066,7.504379 -1.301561,4.772389 1.948242,7.472656 1.948242,7.472656 0,0 -2.671001,-2.812773 -1.438477,-7.332031 z m 3.90247,-3.881804 c 3.328229,-2.811407 6.296722,-3.17605 8.947634,-2.795165 -2.106641,-0.75237 -5.790284,-0.726532 -9.289431,2.390868 -3.416276,3.043569 -4.165103,7.867808 -2.059696,9.766569 -1.352517,-2.074237 -0.898771,-6.574487 2.401493,-9.362272 z m 12.902875,-1.448683 c -1.76669,-1.768876 -3.4807,-1.67158 -3.4807,-1.67158 0,0 1.68586,0.491435 3.4807,1.67158 z m -13.291625,3.961839 c 2.272973,-3.222777 5.168043,-4.602073 8.139793,-4.869322 -3.091911,0.02355 -6.008511,0.869179 -8.614403,4.6369 -2.605891,3.767721 -1.401665,7.353546 1.034132,8.493648 -2.224771,-1.520399 -2.832495,-5.038449 -0.559522,-8.261226 z m 2.179261,-0.645591 c 2.689204,-2.907056 5.660883,-3.362685 7.568364,-3.432238 -1.560821,-0.291106 -5.086205,-0.116159 -8.017582,3.152941 -2.931377,3.269096 -2.626637,6.521005 -1.171497,7.555255 -1.147773,-1.372527 -1.068489,-4.368902 1.620715,-7.275958 z m 11.882224,-1.898563 c -1.55543,-1.86044 -3.66894,-1.944336 -3.66894,-1.944336 0,0 1.9209,0.721305 3.66894,1.944336 z m -1.1045,11.477255 c 1.41006,-1.71109 2.22979,-4.191011 1.88212,-7.103514 -0.10232,2.844681 -0.95743,5.332281 -2.26814,6.922822 -1.31072,1.59054 -3.06411,2.116308 -4.735076,2.111357 1.786756,0.559353 3.711046,-0.219574 5.121096,-1.930665 z m -0.21272,-2.741692 c -1.8145,3.604013 -5.661351,3.998309 -5.661351,3.998309 0,0 4.439631,0.284233 5.661351,-3.998309 z m -5.347759,5.645375 c -2.504045,0.13247 -4.484376,-1.004153 -4.484376,-1.004153 0,0 1.388256,1.818626 4.484376,1.004153 z"
         id="path5978" /></g><g
       id="g5988"
       transform="translate(37.559773,77.383857)"><path
         id="path5982"
         style="opacity:1;stroke-width:0.132292;stroke-linecap:round;stroke-linejoin:round;stroke-miterlimit:10;paint-order:markers stroke fill;stop-color:#000000"
         d="M 108.40831,73.437889 A 11.965216,11.965216 0 0 1 96.443092,85.403105 11.965216,11.965216 0 0 1 84.477877,73.437889 11.965216,11.965216 0 0 1 96.443092,61.472673 11.965216,11.965216 0 0 1 108.40831,73.437889 Z" /><path
         style="color:#000000;fill:#504330;fill-opacity:1;-inkscape-stroke:none"
         d="m 93.407384,63.318675 c 3.234624,-0.81095 7.133936,-0.425774 9.019346,1.300087 -1.32133,-1.537285 -3.979984,-2.033079 -6.508761,-1.976184 -0.842926,0.01897 -1.701809,0.128952 -2.550782,0.341797 -3.395889,0.85138 -6.634923,3.386841 -7.80664,8.399414 1.634072,-4.708591 4.612213,-7.254164 7.846837,-8.065114 z m -6.869267,8.50233 c 1.233401,-4.522466 5.471249,-8.265416 11.829543,-7.667181 -6.054187,-1.269778 -10.750315,2.823908 -12.051001,7.593089 -1.301561,4.772389 1.194209,7.406123 1.194209,7.406123 0,0 -2.205275,-2.812773 -0.972751,-7.332031 z m 3.90247,-3.992691 c 3.328229,-2.811407 6.451964,-3.08734 9.102872,-2.706455 -2.062282,-0.508418 -5.79028,-0.726532 -9.289427,2.390868 -3.416276,3.043569 -3.921151,8.11176 -2.28147,10.010521 -1.352517,-2.074237 -0.832239,-6.907149 2.468025,-9.694934 z m 13.152203,-1.516791 c -1.76669,-1.768876 -3.41797,-1.483398 -3.41797,-1.483398 0,0 1.62313,0.303253 3.41797,1.483398 z M 89.985305,70.43018 c 2.272973,-3.222777 5.389817,-4.446831 8.361567,-4.71408 -3.091911,0.02355 -6.008511,0.713937 -8.614403,4.481658 -2.605891,3.767721 -1.556907,7.464433 0.701471,8.804132 -2.224771,-1.520399 -2.721608,-5.348933 -0.448635,-8.57171 z m 2.223616,-0.623414 c 2.689204,-2.907056 5.838302,-3.384862 7.745778,-3.454415 -1.560816,-0.291106 -5.0862,0.01691 -8.017577,3.286006 -2.931377,3.269096 -2.940273,6.544758 -1.485133,7.579008 -1.147773,-1.372527 -0.932272,-4.503543 1.756932,-7.410599 z m 12.326229,-1.999149 c -1.60247,-2.079985 -3.66894,-1.944336 -3.66894,-1.944336 0,0 1.9209,0.721305 3.66894,1.944336 z m -1.37109,11.555664 c 1.41006,-1.71109 2.31514,-4.349344 1.9043,-7.791014 -0.12091,3.361525 -1.00179,5.864539 -2.3125,7.45508 -1.31072,1.59054 -3.041924,2.27155 -4.712892,2.266599 1.786755,0.559353 3.711042,-0.219574 5.121092,-1.930665 z m 1.64331,-1.050939 c -2.01522,4.168096 -5.886469,3.985509 -5.886469,3.985509 0,0 4.442969,0.918 5.886469,-3.985509 z m -7.203785,3.954622 c -2.504045,0.13247 -4.484376,-1.004153 -4.484376,-1.004153 0,0 1.388256,1.818626 4.484376,1.004153 z"
         id="path5984" /><path
         style="color:#000000;fill:#504330;fill-opacity:1;-inkscape-stroke:none"
         d="m 93.93117,63.93117 c 3.234624,-0.81095 6.93434,-0.11529 8.7754,1.322265 -1.32133,-1.537285 -3.824748,-2.232676 -6.353525,-2.175781 -0.842926,0.01897 -1.701809,0.128952 -2.550782,0.341797 -3.395889,0.85138 -6.634923,3.386841 -7.80664,8.399414 1.634072,-4.708591 4.700923,-7.076745 7.935547,-7.887695 z m -6.802735,8.302734 c 1.233401,-4.522466 5.404717,-7.954933 11.674301,-7.645004 -6.054187,-1.269778 -10.88338,2.735198 -12.184066,7.504379 -1.301561,4.772389 1.948242,7.472656 1.948242,7.472656 0,0 -2.671001,-2.812773 -1.438477,-7.332031 z m 3.90247,-3.881804 c 3.328229,-2.811407 6.296722,-3.17605 8.947634,-2.795165 -2.106641,-0.75237 -5.790284,-0.726532 -9.289431,2.390868 -3.416276,3.043569 -4.165103,7.867808 -2.059696,9.766569 -1.352517,-2.074237 -0.898771,-6.574487 2.401493,-9.362272 z m 12.902875,-1.448683 c -1.76669,-1.768876 -3.4807,-1.67158 -3.4807,-1.67158 0,0 1.68586,0.491435 3.4807,1.67158 z m -13.291625,3.961839 c 2.272973,-3.222777 5.168043,-4.602073 8.139793,-4.869322 -3.091911,0.02355 -6.008511,0.869179 -8.614403,4.6369 -2.605891,3.767721 -1.401665,7.353546 1.034132,8.493648 -2.224771,-1.520399 -2.832495,-5.038449 -0.559522,-8.261226 z m 2.179261,-0.645591 c 2.689204,-2.907056 5.660883,-3.362685 7.568364,-3.432238 -1.560821,-0.291106 -5.086205,-0.116159 -8.017582,3.152941 -2.931377,3.269096 -2.626637,6.521005 -1.171497,7.555255 -1.147773,-1.372527 -1.068489,-4.368902 1.620715,-7.275958 z m 11.882224,-1.898563 c -1.55543,-1.86044 -3.66894,-1.944336 -3.66894,-1.944336 0,0 1.9209,0.721305 3.66894,1.944336 z m -1.1045,11.477255 c 1.41006,-1.71109 2.22979,-4.191011 1.88212,-7.103514 -0.10232,2.844681 -0.95743,5.332281 -2.26814,6.922822 -1.31072,1.59054 -3.06411,2.116308 -4.735076,2.111357 1.786756,0.559353 3.711046,-0.219574 5.121096,-1.930665 z m -0.21272,-2.741692 c -1.8145,3.604013 -5.661351,3.998309 -5.661351,3.998309 0,0 4.439631,0.284233 5.661351,-3.998309 z m -5.347759,5.645375 c -2.504045,0.13247 -4.484376,-1.004153 -4.484376,-1.004153 0,0 1.388256,1.818626 4.484376,1.004153 z"
         id="path5986" /></g><g
       id="g12237"
       transform="translate(-0.25488055)"><path
         style="font-variation-settings:normal;fill:#e90606;fill-opacity:1;stroke:none;stroke-width:0.264583;stroke-linecap:butt;stroke-linejoin:miter;stroke-miterlimit:4;stroke-dasharray:none;stroke-dashoffset:0;stroke-opacity:1;stop-color:#000000"
         d="m 90.304792,179.55083 c 0.33196,5.37489 2.859657,12.79825 6.111421,12.79825 3.251764,0 5.779467,-7.42336 6.111407,-12.79825 z"
         id="path7939" /><path
         id="path9817"
         style="font-variation-settings:normal;fill:#ffa0a0;fill-opacity:1;stroke:none;stroke-width:0.264583;stroke-linecap:butt;stroke-linejoin:miter;stroke-miterlimit:4;stroke-dasharray:none;stroke-dashoffset:0;stroke-opacity:1;stop-color:#000000"
         d="m 92.293232,181.32348 c 0.29164,4.72226 1.414371,9.67114 4.797764,9.74976 -2.779442,1.88404 -5.647815,-4.87368 -5.939455,-9.59595 z" /><path
         id="path7941"
         style="font-variation-settings:normal;fill:#7c0303;fill-opacity:1;stroke:none;stroke-width:0.264583;stroke-linecap:butt;stroke-linejoin:miter;stroke-miterlimit:4;stroke-dasharray:none;stroke-dashoffset:0;stroke-opacity:1;stop-color:#000000"
         d="m 91.046638,179.88446 c -0.06575,0.34007 0.02304,1.19002 0.104903,1.59283 3.212075,-0.43402 6.405552,-0.49322 9.560139,0.0971 -0.29164,4.72226 -1.943933,9.27456 -4.295344,10.35268 3.111968,0.0887 5.077544,-7.32039 5.369184,-12.04266 z" /></g><g
       id="g6762"><path
         style="font-variation-settings:normal;vector-effect:none;fill:#e90606;fill-opacity:1;stroke:none;stroke-width:0.132292;stroke-linecap:butt;stroke-linejoin:miter;stroke-miterlimit:4;stroke-dasharray:none;stroke-dashoffset:0;stroke-opacity:1;-inkscape-stroke:none;stop-color:#000000"
         d="m 124.88105,110 c 1.30847,-0.70968 5.21686,-2.68709 9.28906,-7.83639 4.15845,-5.258374 6.12063,-9.532582 8.36963,-16.023926 2.08257,-6.011012 3.30374,-9.884936 5.66067,-13.909297 2.33547,-3.98773 7.36506,-7.925805 8.24324,-10.278076 -1.36358,-0.26613 -4.73261,-0.601865 -9.62428,2.686236 -4.89167,3.288102 -9.38875,10.094624 -12.46238,15.740073 -3.07364,5.645449 -5.5386,10.719282 -8.44469,13.479011 -2.91839,2.771413 -4.74575,3.526368 -6.18847,3.934095 -2.58677,6.538894 0.0225,12.972304 5.15722,12.208274 z"
         id="path13112" /><path
         style="font-variation-settings:normal;opacity:1;vector-effect:none;fill:#e90606;fill-opacity:1;stroke:none;stroke-width:0.132292;stroke-linecap:butt;stroke-linejoin:miter;stroke-miterlimit:4;stroke-dasharray:none;stroke-dashoffset:0;stroke-opacity:1;-inkscape-stroke:none;stop-color:#000000;stop-opacity:1"
         d="m 68.860886,110 c -1.308467,-0.70968 -5.21686,-2.68709 -9.289058,-7.83639 -4.158453,-5.258374 -6.120631,-9.532582 -8.369625,-16.023926 -2.082577,-6.011012 -3.303745,-9.884936 -5.660671,-13.909297 -2.335472,-3.98773 -7.365066,-7.925805 -8.243247,-10.278076 1.363586,-0.26613 4.732614,-0.601865 9.624282,2.686236 4.891669,3.288102 9.388751,10.094624 12.462385,15.740073 3.073633,5.645449 5.538601,10.719282 8.44469,13.479011 2.918392,2.771413 4.745744,3.526368 6.18847,3.934095 2.58677,6.538894 -0.02251,12.972304 -5.157226,12.208274 z"
         id="path6749" /><path
         style="font-variation-settings:normal;vector-effect:none;fill:#ffa0a0;fill-opacity:1;stroke:none;stroke-width:0.132292;stroke-linecap:butt;stroke-linejoin:miter;stroke-miterlimit:4;stroke-dasharray:none;stroke-dashoffset:0;stroke-opacity:1;-inkscape-stroke:none;stop-color:#000000"
         d="m 52.311074,83.833232 c -1.420131,-4.098969 -2.90671,-8.313071 -4.862284,-11.403248 -1.955574,-3.090177 -4.271617,-5.00623 -5.733614,-6.254623 -1.461996,-1.248393 -2.32738,-2.234435 -2.942801,-3.344869 1.120663,0.04221 1.849457,1.265266 3.245536,2.507687 1.396078,1.242421 3.776045,2.638374 6.665205,6.917332 2.88916,4.278959 4.57114,10.855447 6.931675,15.619077 2.360535,4.76363 4.24234,8.126768 6.431247,10.991398 2.188907,2.864634 3.687336,3.738324 5.646632,6.507534 -4.462177,-1.92429 -8.031847,-6.619741 -10.204678,-10.806942 -2.172831,-4.1872 -3.756787,-6.634377 -5.176918,-10.733346 z"
         id="path6790" /><path
         style="font-variation-settings:normal;vector-effect:none;fill:#ffa0a0;fill-opacity:1;stroke:none;stroke-width:0.132292;stroke-linecap:butt;stroke-linejoin:miter;stroke-miterlimit:4;stroke-dasharray:none;stroke-dashoffset:0;stroke-opacity:1;-inkscape-stroke:none;stop-color:#000000"
         d="m 137.79269,78.783691 c 2.0474,-3.816696 3.97306,-6.148982 6.27364,-8.862796 2.30058,-2.713813 4.05209,-3.955549 5.68658,-5.125533 1.63449,-1.169984 2.71942,-1.32489 4.1503,-2.30987 -1.12067,0.04221 -2.41401,0.355722 -4.061,1.31587 -1.64699,0.960149 -6.44194,4.457463 -9.3311,8.736421 -2.88916,4.278959 -3.79466,5.408019 -6.1552,10.171649 -2.36053,4.76363 -3.35779,6.559638 -4.90101,8.773656 -1.54322,2.214018 -1.79336,2.356446 -2.64441,3.192314 -0.85105,0.835868 -1.52373,1.929583 -1.71593,2.561188 2.91903,-0.995738 5.34838,-4.002806 7.52121,-8.190007 2.17283,-4.1872 3.12952,-6.446195 5.17692,-10.262892 z"
         id="path6839" /><g
         id="g7920"><path
           id="path7917"
           style="color:#000000;opacity:1;fill:#7c0303;fill-opacity:1;-inkscape-stroke:none"
           d="m 40.90603,62.806501 c -0.443544,0.110887 -0.38809,0.554488 -0.38809,0.554488 0,0 0.454621,-0.144205 0.38809,-0.554488 z m 1.197859,0.454753 c -0.443551,0.08871 -0.421679,0.642855 -0.421679,0.642855 0,0 0.532566,-0.110596 0.421679,-0.642855 z m 1.241785,0.632003 c -0.521164,0.02218 -0.554488,0.59893 -0.554488,0.59893 0,0 0.565576,0.03313 0.554488,-0.59893 z m 0.898136,0.620634 c -0.598786,0.288306 -0.543119,0.632519 -0.543119,0.632519 0,0 0.509853,0.03281 0.543119,-0.632519 z m 1.404049,0.729154 c 0,0 -0.771162,0.0387 -0.850594,0.737423 0.559557,0.0099 0.850594,-0.737423 0.850594,-0.737423 z m 0.956014,0.825273 c 0,0 -0.689651,0.203976 -0.756543,0.82889 0.732589,-0.149588 0.756543,-0.82889 0.756543,-0.82889 z m 1.02216,0.65319 c 0,0 -0.81882,0.218122 -0.996839,0.994254 0.995932,-0.179645 0.996839,-0.994254 0.996839,-0.994254 z m 0.958598,0.950846 c 0,0 -1.015604,0.229566 -1.161687,0.920874 0.959615,0.06476 1.161687,-0.920874 1.161687,-0.920874 z m 1.139982,1.016992 c -0.253646,0.0019 -0.964892,0.08591 -1.335836,0.929143 0.998751,-0.0314 1.428337,-0.925525 1.428337,-0.925525 0,0 -0.03397,-0.004 -0.0925,-0.0036 z m 1.153934,1.296562 c -0.180755,-0.0024 -0.916113,0.04257 -1.11311,0.910022 1.041185,-0.144601 1.153418,-0.907955 1.153418,-0.907955 0,0 -0.01449,-0.0017 -0.04031,-0.0021 z m 0.933794,1.100708 c 0,0 -1.234486,0.211121 -1.418518,1.227315 1.347694,-0.188674 1.418518,-1.227315 1.418518,-1.227315 z m 1.067118,1.061951 c 0,0 -1.22466,0.411269 -1.551327,1.426786 1.095982,-0.0023 1.551327,-1.426786 1.551327,-1.426786 z m 0.766361,0.992704 c 0,0 -1.099719,0.01143 -1.610237,1.386995 1.235785,-0.29752 1.610237,-1.386995 1.610237,-1.386995 z m 1.002523,1.262455 c 0,0 -1.179803,0.0014 -1.735811,1.369426 1.098977,-0.242666 1.735811,-1.369426 1.735811,-1.369426 z m 0.668693,1.481047 c -0.368331,0.0051 -1.390341,0.130054 -1.811259,1.318782 1.166733,-0.361751 1.946135,-1.314648 1.946135,-1.314648 0,0 -0.04988,-0.0053 -0.134876,-0.0041 z m 0.821655,1.127579 c -0.886627,0.07644 -1.480404,0.616357 -1.960087,1.298112 0.88246,-0.135783 1.379744,-0.515472 1.960087,-1.298112 z m 0.801502,1.115695 c -0.886298,0.106286 -1.869522,0.599034 -2.085661,1.487247 0.863242,-0.311902 1.612924,-0.740363 2.085661,-1.487247 z m 0.386023,1.538407 c -0.706655,0.0019 -1.567584,0.662736 -1.775086,1.287777 0.890816,-0.172077 1.623883,-0.716606 1.988509,-1.26659 -0.06891,-0.01469 -0.140321,-0.02138 -0.213423,-0.02119 z m 0.771012,1.346171 c -0.890815,0.172077 -1.623882,0.716606 -1.988509,1.266589 0.735009,0.156651 1.759541,-0.576889 1.988509,-1.266589 z m 0.74104,1.305863 c -0.863242,0.311903 -1.612924,0.740364 -2.085661,1.487248 0.886299,-0.106287 1.869522,-0.599034 2.085661,-1.487248 z m 1.005107,1.320333 c -1.120699,0.172442 -1.752234,0.654549 -2.489254,1.648478 1.125992,-0.09708 1.880071,-0.782668 2.489254,-1.648478 z m 0.596863,1.444873 c -1.483976,0.460115 -2.475301,1.67225 -2.475301,1.67225 0,0 1.816386,0.188612 2.475301,-1.67225 z m 0.632002,1.420585 c -1.434002,0.316643 -2.264978,1.786971 -2.264978,1.786971 0,0 1.53947,-0.002 2.264978,-1.786971 z m 0.890385,1.358574 c -1.641896,0.395293 -2.139404,1.842781 -2.139404,1.842781 0,0 1.461116,-0.01517 2.139404,-1.842781 z m 0.846977,1.371492 c -1.405968,0.608104 -2.327507,2.040703 -2.327507,2.040703 0,0 1.72844,-0.178371 2.327507,-2.040703 z m 0.983402,1.304313 c -1.513245,0.743594 -2.241723,2.235006 -2.241723,2.235006 0,0 1.893106,-0.310006 2.241723,-2.235006 z m 0.831991,1.748214 c -1.575546,0.608058 -2.211751,1.741496 -2.211751,1.741496 0,0 1.78003,0.159525 2.211751,-1.741496 z m 0.926042,1.161169 c -1.350618,0.722559 -2.369365,2.101681 -2.369365,2.101681 0,0 1.885216,-0.236742 2.369365,-2.101681 z m 1.269173,1.26969 c -1.678411,0.77529 -3.027206,2.383317 -3.027206,2.383317 0,0 2.541536,-0.08498 3.027206,-2.383317 z m 0.784448,1.725476 c -1.120529,0.670836 -1.62805,1.050878 -2.227771,2.133204 1.103403,-0.244509 2.157509,-1.013161 2.227771,-2.133204 z m 0.893486,1.802991 c -0.814655,0.422859 -1.323167,0.859283 -1.693437,1.661914 0.864583,-0.22207 1.596141,-0.752975 1.693437,-1.661914 z m 0.861962,1.599386 c -0.636571,0.305606 -0.981179,0.536956 -1.270206,1.130166 0.749236,0.0585 1.134054,-0.41632 1.270206,-1.130166 z" /><path
           id="path7917-4"
           style="color:#000000;fill:#7c0303;fill-opacity:1;-inkscape-stroke:none"
           d="m 152.04175,64.392532 c 0.44355,0.110887 0.38809,0.554488 0.38809,0.554488 0,0 -0.45462,-0.144205 -0.38809,-0.554488 z m -0.73212,0.632173 c 0.44355,0.08871 0.42167,0.642855 0.42167,0.642855 0,0 -0.53256,-0.110596 -0.42167,-0.642855 z m -0.79824,0.587648 c 0.52116,0.02218 0.55449,0.59893 0.55449,0.59893 0,0 -0.56558,0.03313 -0.55449,-0.59893 z m -0.78726,0.664989 c 0.59879,0.288306 0.54312,0.632519 0.54312,0.632519 0,0 -0.50985,0.03281 -0.54312,-0.632519 z m -1.00484,0.795686 c 0,0 0.77116,0.0387 0.85059,0.737423 -0.55956,0.0099 -0.85059,-0.737423 -0.85059,-0.737423 z m -0.66772,0.84745 c 0,0 0.68965,0.203976 0.75654,0.82889 -0.73258,-0.149588 -0.75654,-0.82889 -0.75654,-0.82889 z m -0.73385,0.852787 c 0,0 0.81882,0.218122 0.99684,0.994254 -0.99593,-0.179645 -0.99684,-0.994254 -0.99684,-0.994254 z m -0.91425,1.106088 c 0,0 1.01561,0.229566 1.16169,0.920874 -0.95961,0.06476 -1.16169,-0.920874 -1.16169,-0.920874 z m -0.98473,1.394008 c 0,-0.253657 0.96489,0.08591 1.33584,0.929143 -0.99875,-0.0314 -1.42834,-0.925525 -1.42834,-0.925525 0,0 0.0925,0.0549 0.0925,-0.0036 z m -0.86563,1.296562 c 0.18075,-0.0024 0.91611,0.04257 1.11311,0.910022 -1.04119,-0.144601 -1.15342,-0.907955 -1.15342,-0.907955 0,0 0.0145,-0.0017 0.0403,-0.0021 z m -1.15557,1.499902 c 0,0 1.23449,0.211121 1.41852,1.227315 -1.34769,-0.188674 -1.41852,-1.227315 -1.41852,-1.227315 z m -0.82316,1.572031 c 0,0 1.22466,0.411269 1.55132,1.426786 -1.09598,-0.0023 -1.55132,-1.426786 -1.55132,-1.426786 z m -0.61113,1.813269 c 0,0 1.09972,0.01143 1.61024,1.386995 -1.23578,-0.29752 -1.61024,-1.386995 -1.61024,-1.386995 z m -0.75857,1.572939 c 0,0 1.1798,0.0014 1.73581,1.369426 -1.09897,-0.242666 -1.73581,-1.369426 -1.73581,-1.369426 z m -0.69086,1.636289 c 0.36833,0.0051 1.39034,0.130054 1.81126,1.318782 -1.16674,-0.361751 -1.94614,-1.314648 -1.94614,-1.314648 0,0 0.0499,-0.0053 0.13488,-0.0041 z m -0.6886,1.46024 c 0.88663,0.07644 1.48041,0.616357 1.96009,1.298112 -0.88246,-0.135783 -1.37974,-0.515472 -1.96009,-1.298112 z m -0.8015,1.115695 c 0.8863,0.106286 1.86952,0.599034 2.08566,1.487247 -0.86324,-0.311902 -1.61292,-0.740363 -2.08566,-1.487247 z m -0.38602,1.538407 c 0.70665,0.0019 1.56758,0.662736 1.77508,1.287777 -0.89081,-0.172077 -1.62388,-0.716606 -1.9885,-1.26659 0.0689,-0.01469 0.14032,-0.02138 0.21342,-0.02119 z m -0.77101,1.346171 c 0.89081,0.172077 1.62388,0.716606 1.9885,1.266589 -0.735,0.156651 -1.75954,-0.576889 -1.9885,-1.266589 z m -0.82975,1.50546 c 0.86324,0.311903 1.70163,0.540767 2.17437,1.287651 -0.8863,-0.106287 -1.95823,-0.399437 -2.17437,-1.287651 z m -0.93858,1.34251 c 1.1207,0.172442 1.77441,0.432775 2.51143,1.426704 -1.12599,-0.09708 -1.90225,-0.560894 -2.51143,-1.426704 z m -0.7521,1.467051 c 1.70574,-0.0056 2.65272,1.428298 2.65272,1.428298 0,0 -1.7055,0.07773 -2.65272,-1.428298 z m -0.63201,1.420585 c 1.65578,-0.06037 2.4424,1.543019 2.4424,1.543019 0,0 -1.49512,-0.04636 -2.4424,-1.543019 z m -0.75731,1.358574 c 1.7306,0.04045 2.18375,1.598829 2.18375,1.598829 0,0 -1.21716,-0.0817 -2.18375,-1.598829 z m -1.04658,1.415846 c 1.89387,-0.03504 2.57146,1.752397 2.57146,1.752397 0,0 -1.24054,-0.488855 -2.57146,-1.752397 z m -0.87251,1.348668 c 1.62412,0.166981 2.37478,1.902342 2.37478,1.902342 0,0 -1.31649,-0.576129 -2.37478,-1.902342 z m -0.98724,1.34902 c 1.93039,0.09798 2.367,2.162871 2.367,2.162871 0,0 -1.40302,-0.52798 -2.367,-2.162871 z m -1.12563,1.560363 c 2.1287,-0.296102 2.3628,1.961497 2.28065,2.057337 0,0 -1.41949,-0.5694 -2.28065,-2.057337 z m -0.84781,1.491467 c 2.24066,-0.10708 2.31519,2.09094 2.251,2.16155 0,0 -1.18872,-0.75032 -2.251,-2.16155 z m -0.93746,1.51605 c 1.42326,0.31134 1.77365,0.61727 2.00823,2.1332 -0.75658,-0.50463 -1.61589,-1.25471 -2.00823,-2.1332 z m 0.59609,3.84126 c -0.81466,-0.42286 -1.32317,-0.85928 -1.69344,-1.66191 1.08251,-0.0892 1.95607,0.23879 1.69344,1.66191 z m -1.73997,1.55378 c -0.63657,-0.30561 -1.09095,-1.21128 -1.37997,-1.80449 0.74923,-0.0585 1.49473,0.51041 1.37997,1.80449 z m -2.87436,-0.87878 c 0,0 0.345,0.98795 1.12909,1.47409 0,0 0.58022,-1.70932 -1.12909,-1.47409 z" /></g><path
         style="font-variation-settings:normal;opacity:1;vector-effect:none;fill:#000000;fill-opacity:1;stroke:#000000;stroke-width:0.132292;stroke-linecap:butt;stroke-linejoin:miter;stroke-miterlimit:4;stroke-dasharray:none;stroke-dashoffset:0;stroke-opacity:1;-inkscape-stroke:none;stop-color:#000000;stop-opacity:1"
         d="m 93.721773,89.729838 c -1.082586,-1.18858 -1.710356,-0.778363 -2.52078,-1.994395 -0.810423,-1.216032 -1.339102,-1.245664 -1.715107,-2.02779 0,0 -0.577989,1.00524 -0.266129,2.270168 0.264807,1.074094 -0.05447,1.185313 0.199597,2.328629 0,0 -2.218193,-2.038908 -3.747984,-2.528225 -1.512766,-0.483871 -1.431514,-1.290167 -2.623431,-1.310697 0,0 -0.193101,0.401422 0.250447,1.421584 0.443548,1.020161 0.842742,2.772177 0.842742,2.860887 0,0.08871 -2.0625,-2.040323 -3.459677,-2.372984 -1.397178,-0.332661 -2.262097,-0.997984 -2.262097,-0.997984 -0.101667,0.643891 0.14539,1.104737 1.086693,2.372984 0.968039,1.30427 1.042339,3.282258 1.042339,3.282258 0,0 -1.857036,-2.219596 -3.607962,-2.843629 -1.71748,-0.612113 -1.541656,-1.733454 -2.978731,-2.101935 -0.133065,1.10887 0.626225,2.087235 1.330645,3.104838 0.503187,0.726903 0.767162,1.426259 0.754032,2.993952 0,0 -1.935544,-0.607431 -3.431005,-1.433461 -1.438574,-0.794607 -1.013024,-1.531126 -1.900762,-2.760301 0,0 -0.517095,0.479401 -0.394926,1.456754 0.122168,0.977351 0.808403,2.318138 1.588702,3.900534 0.779652,1.581085 1.397112,2.163211 2.080872,3.454758 -1.330645,0.02218 -3.309816,-0.692881 -4.596107,-2.378365 -1.28629,-1.685486 -2.461693,-1.752016 -2.461693,-1.752016 0,0 0.842742,0.731855 1.330645,2.417339 0.487903,1.685484 0.741565,2.435317 1.752016,3.637099 0.972516,1.15667 1.738431,1.49764 1.97379,2.0625 0,0 -1.419354,-0.64316 -3.237903,-0.73186 -1.818237,-0.0887 -1.625411,-1.32142 -3.085351,-1.57906 0.933699,2.66753 0.835131,3.89581 3.651663,5.47041 2.816534,1.5746 2.715946,2.91712 2.715946,2.91712 -1.907258,-0.6875 -4.479839,-0.97581 -4.479839,-0.97581 1.118545,3.07316 3.149862,3.71778 4.458423,6.17625 0,0 -3.757772,-1.38056 -7.337237,-1.84507 -3.579466,-0.46447 -7.053277,-0.0329 -8.841003,-0.0329 -1.787726,0 -2.925361,-0.0957 -3.041155,0.18058 -0.118418,0.28252 4.626864,6.42785 8.95208,8.81475 4.3313,2.39025 8.468716,2.96278 10.580951,3.26404 0.439091,4.35954 -0.689999,7.33908 1.191817,9.50317 1.881817,2.16409 3.73227,3.66955 3.73227,3.66955 0.06273,2.28954 0.564545,9.62862 2.571815,14.05089 2.007271,4.42227 2.5022,8.38003 2.5022,8.38003 -1.153226,1.0867 -2.823264,3.88646 -2.883064,6.23882 -0.0598,2.35235 0.273209,3.87035 0.757183,6.356 0.483974,2.48565 0.204239,4.89945 1.079084,6.50087 0.874845,1.60143 2.899286,1.82402 6.063352,1.50333 3.138082,-0.31806 6.120216,-0.43974 9.531836,-0.43974 3.41162,0 6.39375,0.12168 9.53184,0.43974 3.16406,0.32069 5.1885,0.0981 6.06335,-1.50333 0.87484,-1.60142 0.59511,-4.01522 1.07908,-6.50087 0.48398,-2.48565 0.81699,-4.00365 0.75718,-6.356 -0.0598,-2.35236 -1.72983,-5.15212 -2.88306,-6.23882 0,0 0.49493,-3.95776 2.5022,-8.38003 2.00727,-4.42227 2.50909,-11.76135 2.57182,-14.05089 0,0 1.85045,-1.50546 3.73227,-3.66955 1.88181,-2.16409 0.75272,-5.14363 1.19181,-9.50317 2.11224,-0.30126 6.24965,-0.87379 10.58095,-3.26404 4.32522,-2.3869 9.0705,-8.53223 8.95208,-8.81475 -0.11579,-0.27626 -1.25343,-0.18058 -3.04115,-0.18058 -1.78773,0 -5.26154,-0.43157 -8.841,0.0329 -3.57947,0.46451 -7.33724,1.84507 -7.33724,1.84507 1.30856,-2.45847 3.33988,-3.10309 4.45842,-6.17625 0,0 -2.57258,0.28831 -4.47984,0.97581 0,0 -0.10059,-1.34252 2.71595,-2.91712 2.81653,-1.5746 2.71796,-2.80288 3.65166,-5.47041 -1.45994,0.25764 -1.26711,1.4904 -3.08535,1.57906 -1.81855,0.0887 -3.2379,0.73186 -3.2379,0.73186 0.23536,-0.56486 1.00127,-0.90583 1.97379,-2.0625 1.01045,-1.201782 1.26411,-1.951615 1.75201,-3.637099 0.48791,-1.685484 1.33065,-2.417339 1.33065,-2.417339 0,0 -1.1754,0.06653 -2.46169,1.752016 -1.2863,1.685484 -3.26547,2.400543 -4.59611,2.378365 0.68376,-1.291547 1.30122,-1.873673 2.08087,-3.454758 0.7803,-1.582396 1.46653,-2.923183 1.5887,-3.900534 0.12217,-0.977353 -0.39492,-1.456754 -0.39492,-1.456754 -0.88774,1.229175 -0.46219,1.965694 -1.90077,2.760301 -1.49546,0.82603 -3.431,1.433461 -3.431,1.433461 -0.0131,-1.567693 0.25084,-2.267049 0.75403,-2.993952 0.70442,-1.017603 1.46371,-1.995968 1.33065,-3.104838 -1.43708,0.368481 -1.26125,1.489822 -2.97873,2.101935 -1.75093,0.624033 -3.60797,2.843629 -3.60797,2.843629 0,0 0.0743,-1.977988 1.04234,-3.282258 0.94131,-1.268247 1.18836,-1.729093 1.0867,-2.372984 0,0 -0.86492,0.665323 -2.2621,0.997984 -1.39718,0.332661 -3.45968,2.461694 -3.45968,2.372984 0,-0.08871 0.3992,-1.840726 0.84274,-2.860887 0.44355,-1.020162 0.25045,-1.421584 0.25045,-1.421584 -1.19192,0.02053 -1.11066,0.826826 -2.62343,1.310697 -1.52979,0.489317 -3.74798,2.528225 -3.74798,2.528225 0.25407,-1.143316 -0.0652,-1.254535 0.19959,-2.328629 0.31186,-1.264928 -0.26613,-2.270168 -0.26613,-2.270168 -0.376,0.782126 -0.90468,0.811758 -1.7151,2.02779 -0.81043,1.216032 -1.4382,0.805815 -2.52078,1.994395 0,0 -1.020174,-0.997984 -3.1492,-0.997984 -2.129026,0 -3.149197,0.997984 -3.149197,0.997984 z"
         id="path6736" /><path
         id="path13116"
         style="font-variation-settings:normal;vector-effect:none;fill:#e90606;fill-opacity:1;stroke:none;stroke-width:0.132292;stroke-linecap:butt;stroke-linejoin:miter;stroke-miterlimit:4;stroke-dasharray:none;stroke-dashoffset:0;stroke-opacity:1;-inkscape-stroke:none;stop-color:#000000"
         d="m 112.75154,125.19339 c 0.1769,-0.003 0.35399,0.004 0.53071,0.0202 1.88508,0.17742 3.54449,0.89246 3.54449,0.89246 -0.62097,1.21974 -0.65304,2.42249 -2.16163,4.20852 -1.45563,1.72335 -3.95456,1.83292 -5.41827,1.54461 -1.46371,-0.28831 -2.70784,-0.47749 -2.70784,-0.47749 -0.28831,-0.46573 -0.17622,-1.28881 -0.17622,-1.28881 0.97581,-0.11089 0.86526,-1.04229 2.01848,-2.61689 0.47134,-0.64356 1.10682,-1.19089 1.83038,-1.58802 -0.68812,0.5164 -1.09358,1.33038 -1.09347,2.19522 -3e-5,1.51119 1.2151,2.73626 2.71404,2.73626 1.49894,0 2.71407,-1.22507 2.71405,-2.73626 -3e-4,-0.96453 -0.5043,-1.85766 -1.32654,-2.35076 -0.0775,0.21893 -0.14468,0.66874 0.20671,1.32188 0.51321,0.95392 -0.0527,2.27065 -0.42116,2.49494 0,0 0.47645,-0.92009 0.21032,-1.70739 -0.26613,-0.7873 -1.35264,-1.25285 -2.01796,-0.17725 0,0 -0.17755,-0.67641 0.19947,-1.18649 0.37701,-0.51008 0.32383,-0.64711 0.0806,-0.76362 -0.24328,-0.11652 -0.37558,-0.12293 -0.68724,-0.10351 0.62213,-0.25718 1.28956,-0.40632 1.96112,-0.41755 z" /><path
         id="path10925"
         style="font-variation-settings:normal;opacity:1;vector-effect:none;fill:#e90606;fill-opacity:1;stroke:none;stroke-width:0.132292;stroke-linecap:butt;stroke-linejoin:miter;stroke-miterlimit:4;stroke-dasharray:none;stroke-dashoffset:0;stroke-opacity:1;-inkscape-stroke:none;stop-color:#000000;stop-opacity:1"
         d="m 80.990404,125.19339 c -0.176901,-0.003 -0.353991,0.004 -0.530717,0.0202 -1.885078,0.17742 -3.544486,0.89246 -3.544486,0.89246 0.620966,1.21974 0.653036,2.42249 2.161625,4.20852 1.455636,1.72335 3.954565,1.83292 5.418274,1.54461 1.463707,-0.28831 2.707845,-0.47749 2.707845,-0.47749 0.28831,-0.46573 0.176216,-1.28881 0.176216,-1.28881 -0.975806,-0.11089 -0.865257,-1.04229 -2.018481,-2.61689 -0.471338,-0.64356 -1.106822,-1.19089 -1.830379,-1.58802 0.68812,0.5164 1.093575,1.33038 1.093473,2.19522 2.2e-5,1.51119 -1.215105,2.73626 -2.714046,2.73626 -1.498941,0 -2.714068,-1.22507 -2.714046,-2.73626 3.02e-4,-0.96453 0.504293,-1.85766 1.326534,-2.35076 0.07746,0.21893 0.144684,0.66874 -0.206706,1.32188 -0.513212,0.95392 0.05272,2.27065 0.421163,2.49494 0,0 -0.476452,-0.92009 -0.210323,-1.70739 0.266129,-0.7873 1.352643,-1.25285 2.017964,-0.17725 0,0 0.177545,-0.67641 -0.199471,-1.18649 -0.377014,-0.51008 -0.323832,-0.64711 -0.08056,-0.76362 0.243278,-0.11652 0.37558,-0.12293 0.687237,-0.10351 -0.622133,-0.25718 -1.289557,-0.40632 -1.961121,-0.41755 z" /></g><path
       id="path15740"
       style="color:#000000;fill:#504330;fill-opacity:1;-inkscape-stroke:none"
       d="m 134.4259,112.87425 c -1.6433,0.0169 -2.77332,0.61694 -4.46639,0.96221 2.99776,0.26281 4.05638,-0.76332 6.32054,-0.75396 -0.70174,-0.15507 -1.30638,-0.2139 -1.85415,-0.20825 z m -76.881093,0.69763 c -0.809833,-0.003 -1.324857,0.0556 -2.052588,0.2837 2.215169,2.19895 2.939779,3.07115 5.984131,5.28082 3.044352,2.20964 9.045268,3.97425 11.13007,3.96616 -2.8079,-0.88628 -9.113643,-2.48979 -12.1729,-5.48907 -2.680278,-2.62773 -2.162218,-2.63229 -2.396236,-2.86494 1.79659,0.4585 3.283799,0.73556 5.84047,2.34559 2.556667,1.61004 6.485342,3.34613 8.92607,2.94246 -0.636325,-0.29978 -1.105486,-0.44957 -1.616956,-0.60151 0.336905,-0.0685 1.909486,-0.2747 2.021066,-0.78549 -1.444762,0.056 -2.741836,0.43531 -3.936194,0.10439 0.460226,-0.0391 1.126255,-0.19333 1.652095,-0.58291 -1.64208,0.0572 -3.012694,0.12195 -4.324284,-0.55397 0.814788,0.063 2.321986,0.34459 2.926954,-0.36484 -1.510704,-0.0957 -3.54058,0.0217 -4.893759,-0.74827 1.212328,0.14008 2.763196,0.25729 4.24987,-0.25012 -2.538732,-0.21386 -4.883577,-0.37147 -6.998539,-1.47432 1.180684,0.18442 1.711738,0.31545 3.240629,-0.0109 -2.796731,-0.52751 -5.235798,-1.13646 -6.652824,-1.1777 -0.354254,-0.0103 -0.65713,-0.0182 -0.927075,-0.0191 z m 78.652563,0 c -0.26995,8.8e-4 -0.57282,0.009 -0.92708,0.0191 -1.41699,0.0412 -6.34032,1.38242 -10.80037,0.84542 3.96842,1.19119 6.20749,0.74925 7.38818,0.56483 -2.11497,1.10288 -5.72424,1.03893 -9.01702,0.27698 1.84152,0.97314 5.0555,1.36585 6.26783,1.22577 -1.35318,0.76997 -5.20121,0.69686 -7.59902,-0.33848 1.40336,1.26386 4.81743,1.51459 5.63222,1.45159 -1.31159,0.67592 -4.30063,0.54484 -6.43062,-0.39946 1.19117,1.09926 3.29872,1.49724 3.75895,1.53634 -1.19437,0.33092 -2.66936,0.0181 -3.93671,-0.10439 0.11158,0.51079 1.68415,0.71699 2.02106,0.78549 -0.51147,0.15194 -0.98063,0.30173 -1.61695,0.60151 2.44069,0.40367 6.36939,-1.33242 8.92607,-2.94246 2.55664,-1.61003 4.04388,-1.88709 5.84047,-2.34559 -0.23402,0.23265 0.28404,0.23721 -2.39624,2.86494 -3.05927,2.99928 -9.36452,4.60279 -12.17238,5.48907 2.08476,0.008 8.08519,-1.75653 11.12955,-3.96616 3.04436,-2.20967 3.76948,-3.08187 5.98465,-5.28082 -0.72773,-0.22811 -1.24276,-0.28635 -2.05259,-0.2837 z m -59.618066,0.0424 c -1.094559,0.34579 -1.397848,1.6428 -1.397848,1.6428 0,0 0.811851,-0.56386 1.397848,-1.6428 z m 0.443384,0.66611 c -0.998115,0.39543 -1.851807,1.88974 -2.306836,3.25975 0.897742,-0.96069 1.499369,-2.15893 2.306836,-3.25975 z m 23.640412,0.26665 c -1.361724,0.34806 -2.971907,0.50953 -2.971907,0.50953 0,0 1.694547,0.6283 2.971907,-0.50953 z m -19.540921,0.0243 c -1.739428,0.25812 -2.619478,1.27072 -2.619478,1.27072 0,0 1.285283,-0.63497 2.619478,-1.27072 z m -3.412195,0.52917 c -1.265871,0.80478 -2.010552,1.84067 -2.617411,3.21582 1.024244,-0.91801 1.671853,-2.11118 2.617411,-3.21582 z m 28.412216,0.0357 c -2.41065,2.04515 -4.16328,4.48604 -4.35787,5.37797 -0.19458,0.89192 -0.70233,4.67198 -0.60823,7.35614 0.12517,-1.68605 0.90882,-6.11199 1.2392,-7.26467 0.33039,-1.15268 1.71854,-3.04617 3.7269,-5.46944 z m -14.596005,0.25373 c 0,0 1.124396,1.17919 2.75022,0.154 -1.423562,0.22785 -2.75022,-0.154 -2.75022,-0.154 z m -10.655163,0.0439 c -1.579438,0.16583 -3.152263,1.50585 -3.152263,1.50585 0,0 1.893303,-1.02872 3.152263,-1.50585 z m 30.855478,0.36639 c -2.17162,0.0327 -4.8291,2.13055 -6.37687,4.03954 -2.0637,2.54532 -2.89543,5.45393 -2.89543,5.45393 0,0 0.82993,-2.20452 3.43855,-4.87567 2.60861,-2.67116 4.1913,-4.15194 7.78454,-3.87832 -0.55685,-0.5315 -1.22691,-0.75038 -1.95079,-0.73948 z m -30.557822,0.37052 c -1.120415,0.34613 -2.026346,0.49522 -2.884284,1.3851 1.082897,-0.43421 1.735254,-0.99801 2.884284,-1.3851 z m 16.079121,0.14986 c 0,0 0.289153,1.13284 1.242302,1.44229 -0.322049,-0.89922 -1.242302,-1.44229 -1.242302,-1.44229 z m -3.614249,0.22221 c -1.63301,0.55431 -3.904155,0.55397 -3.904155,0.55397 0,0 2.310361,0.95418 3.904155,-0.55397 z m 1.46296,0.0217 c -0.668452,0.9816 -0.624453,2.03902 -0.221692,3.14968 0.213222,-0.98856 0.129076,-1.94947 0.221692,-3.14968 z m -17.054349,-0.35419 c -3.10273,1.56077 -3.924732,5.61024 -3.924732,5.61024 0,0 1.672287,-3.01592 3.924732,-5.61024 z m 18.03,0.86479 c -0.101331,0.7222 -0.07006,1.55781 0.555005,1.97301 -0.07766,-0.77422 -0.184692,-1.33774 -0.555005,-1.97301 z m -15.107088,0.0842 c -1.259456,0.2121 -2.227449,0.69879 -3.293339,1.41128 1.12491,-0.36249 2.089065,-1.03649 3.293339,-1.41128 z m -2.535275,-0.0513 c -2.609921,1.45419 -3.936682,5.79922 -3.936682,5.79922 0,0 2.418004,-4.0339 3.936682,-5.79922 z m 2.613306,1.07083 c -1.079936,0.16343 -1.965575,0.55586 -2.870109,1.09864 0.969267,-0.28037 1.955564,-0.72227 2.870109,-1.09864 z m -2.713013,0.64854 c -1.705982,1.12322 -2.764108,3.13287 -3.680912,5.23327 1.383424,-1.59469 2.273958,-3.04216 3.680912,-5.23327 z m 5.617229,0.0403 c -0.07316,-10e-4 -0.112138,5.1e-4 -0.112138,5.1e-4 0,0 2.352266,0.71777 4.390946,2.63654 2.031698,1.91218 2.285649,4.4545 2.285649,4.4545 0.533127,-1.43942 0.3221,-3.04077 -1.91978,-5.12113 -1.961304,-1.82 -4.132583,-1.96309 -4.644677,-1.97042 z m 6.222359,0.28267 c 1.973597,2.69978 2.166067,5.34777 2.41639,8.71988 0.219529,-2.42015 0.392475,-7.90293 -2.41639,-8.71988 z m 22.932971,0.12092 c -1.9127,0.0276 -3.44654,1.14602 -4.42299,1.6831 -1.6976,0.93374 -4.6296,4.40689 -5.91747,6.72827 2.33687,-2.58863 4.161,-4.61831 6.30401,-6.03477 2.14301,-1.41643 4.78804,-2.60472 8.8222,0.0202 -1.67738,-1.76213 -3.23168,-2.3643 -4.59972,-2.39572 -0.0625,-0.001 -0.12433,-0.002 -0.18603,-0.001 z m -32.811438,0.20826 c -1.735168,0.14932 -3.120223,1.52032 -3.120223,1.52032 0,0 1.860174,-1.02669 3.120223,-1.52032 z m -0.377238,1.00407 c -0.872328,0.23 -1.52431,0.61928 -2.209684,1.20768 0.784505,-0.29902 1.428747,-0.77634 2.209684,-1.20768 z m 2.812748,0.58549 c -0.918099,0.0144 -1.811596,0.30617 -2.593123,0.99839 1.838589,-0.49582 3.95107,-0.19584 5.296317,0.53382 2.271018,0.94798 3.080098,3.20211 4.219381,5.48029 0.131493,-2.85367 -2.277052,-5.27726 -3.832841,-6.17379 -0.976874,-0.51564 -2.049221,-0.85508 -3.089734,-0.83871 z m -5.194515,0.19741 c -2.18348,1.49969 -2.824117,3.84266 -2.824117,3.84266 0,0 0.4356,-0.54091 0.979785,-1.24902 1.549165,0.79775 3.652082,0.53568 5.142322,0.15916 1.680693,-0.43518 2.800011,-0.24899 3.765662,0.26769 0.965652,0.51668 1.792262,1.37805 2.124935,2.36161 0.563272,1.72735 1.537296,3.62808 3.35535,3.47937 -1.609995,-0.70738 -2.177298,-2.48441 -2.603458,-3.73362 -0.388689,-1.14917 -1.166734,-2.1863 -2.325956,-2.80655 -0.579614,-0.31012 -1.250767,-0.51401 -2.00608,-0.57981 -0.188826,-0.0165 -0.382744,-0.0245 -0.581876,-0.0233 -0.597397,0.004 -1.241042,0.0893 -1.928048,0.26717 -1.560032,0.30895 -3.206903,0.67944 -4.900476,0.55345 0.631596,-0.82344 1.395586,-1.8557 1.801957,-2.53886 z m 34.846453,1.33067 c -1.5563,0.023 -2.68746,0.43538 -3.78323,0.99063 -1.15923,0.62025 -1.93727,1.65738 -2.32596,2.80655 -0.42616,1.24921 -2.27118,2.64687 -2.27118,2.64687 0,0 2.45979,-0.66527 3.02307,-2.39262 0.33267,-0.98356 1.15877,-1.84493 2.12442,-2.36161 0.96566,-0.51668 2.18166,-0.9894 4.36511,-0.79996 2.18345,0.18944 3.64863,1.21126 5.20847,0.32712 -1.75542,0.16665 -2.30115,-0.7955 -4.74338,-1.11673 -0.45793,-0.0602 -0.88257,-0.0923 -1.28003,-0.0997 -0.10764,-0.002 -0.21354,-0.002 -0.31729,-5.1e-4 z m -36.446872,5.99343 c 0,0 -0.151562,1.41553 0.941028,2.69647 1.09259,1.28097 3.067799,2.50341 6.365503,1.94511 -3.131811,-0.24467 -4.808044,-1.34249 -5.761922,-2.46084 -0.953877,-1.11831 -1.544609,-2.18074 -1.544609,-2.18074 z m 41.878582,0 c 0,0 -0.59091,2.0163 -2.40967,3.11247 -1.8188,1.09615 -4.91449,2.30476 -9.51002,1.08572 4.45093,2.3325 8.15557,0.77699 10.11308,-0.57051 1.95752,-1.34746 1.80661,-3.62768 1.80661,-3.62768 z" /><path
       style="font-variation-settings:normal;vector-effect:none;fill:#ffa0a0;fill-opacity:1;stroke:none;stroke-width:0.132292;stroke-linecap:butt;stroke-linejoin:miter;stroke-miterlimit:4;stroke-dasharray:none;stroke-dashoffset:0;stroke-opacity:1;-inkscape-stroke:none;stop-color:#000000"
       d="m 79.240154,126.06602 c -0.679513,0.48537 -0.932971,1.60732 -0.752729,2.8384 0,0 -0.748782,-0.72438 -0.613165,-1.77204 0.12309,-0.95088 0.660214,-1.23886 1.365894,-1.06636 z m 29.277926,1.86613 c 0,0 -0.75273,0.72137 -0.65864,1.80341 0.0941,1.08204 0.81546,1.75636 1.38,1.59954 0.56455,-0.15681 0.12546,-0.56454 -0.32932,-1.12909 -0.45477,-0.56454 -0.61159,-1.16045 -0.39204,-2.27386 z"
       id="path11015" /><g
       id="g22838"><path
         id="path22882"
         style="color:#000000;opacity:1;fill:#504330;fill-opacity:1;-inkscape-stroke:none"
         d="m 92.240363,95.252066 c 0,0 1.072925,2.401844 0.241846,5.877674 -0.420816,1.75998 -0.496264,3.39756 -0.207739,4.55166 0.276845,1.10739 1.113911,2.27016 2.327506,3.10007 0.04909,0.45079 0.227472,0.9135 0.620634,1.39837 0.141305,0.51313 0.430075,1.00197 0.914156,1.45417 -0.435809,-2.19117 -0.265451,-3.83982 0.943095,-5.9309 1.28218,-2.21848 1.759526,-4.39343 1.590084,-5.62188 -0.368567,2.10092 -0.893928,3.23773 -2.091862,5.30562 -0.327515,0.56536 -0.644127,1.14396 -0.89917,1.72237 0.245082,-0.91139 0.806657,-1.91909 1.297595,-3.04891 1.552512,-3.57287 1.041824,-5.846405 0.595829,-6.614063 0,0 0.470412,3.060483 -1.176155,6.262153 -0.774656,1.50628 -1.238228,2.89108 -1.51877,3.77651 -0.617275,-1.93261 0.30024,-4.79919 0.30024,-4.79919 0,0 -1.222584,1.90654 -1.021127,3.96152 -0.49687,-1.6028 -0.389798,-3.26734 -0.15968,-4.99763 -0.754231,1.42238 -0.966067,3.48722 -0.290938,5.27513 -0.382495,-0.41364 -0.537078,-0.60991 -0.700216,-1.26246 -0.260339,-1.04136 -0.235227,-2.41861 0.08992,-4.15272 0.674372,-3.596638 -0.855245,-6.257494 -0.855245,-6.257494 z m -8.625313,0.594795 c 0,0 2.209827,2.534551 2.025716,7.014559 -0.09532,2.31939 0.219244,4.18164 0.894519,5.60948 0.675277,1.42785 1.955103,2.55643 3.438033,2.9192 0,0 -0.262607,-0.72302 -0.315226,-1.5875 -0.05262,-0.86447 0.05115,-2.16469 0.697632,-3.88865 1.335629,-3.56168 1.655734,-7.540401 -0.122473,-9.84643 1.169961,2.33577 0.925285,6.19715 -0.373621,9.66091 -0.550493,1.46798 -0.726142,2.66001 -0.740006,3.55947 -0.293564,-1.11839 -0.57881,-2.7992 -0.234611,-4.37648 -0.870031,1.8394 -0.510618,3.4231 -0.244947,4.56717 -0.469648,-0.84288 -0.867824,-2.14385 -0.714168,-4.20285 0.0062,-1.85687 0.324284,-3.83385 -0.546737,-5.508188 0.193266,1.725288 0.12595,3.975368 0.01912,5.468918 -0.159979,2.14373 0.256368,3.5558 0.801501,4.56044 -0.429447,-0.31231 -0.858012,-0.85941 -1.185974,-1.55287 -0.626309,-1.32431 -0.93674,-3.10173 -0.843876,-5.36143 0.192253,-4.67814 -2.554883,-7.035749 -2.554882,-7.035749 z m 20.95118,0.283187 c -0.64209,1.073415 -0.47693,2.373144 -0.43719,3.50883 0.0547,1.583142 0.0756,3.449362 -0.35346,5.242062 -0.38937,1.62699 -1.15757,2.82692 -1.90738,3.7114 0.3881,-0.76893 0.79259,-1.78186 1.13378,-2.98122 1.06335,-3.73785 -0.25373,-8.195879 -0.25373,-8.195879 0,0 0.75079,4.513219 -0.2558,8.051709 -0.33707,1.18483 -0.74244,2.11284 -1.12345,2.81739 0.34782,-1.30003 0.44795,-2.78798 0.18552,-3.96874 -0.1298,1.7255 -0.39134,3.0126 -0.78806,4.07416 0.0859,-1.56901 -0.073,-3.0552 -0.46561,-4.66999 -0.0904,1.47245 0.0671,2.97316 -0.007,4.47104 -0.0814,-0.30375 -0.2035,-0.64249 -0.377756,-1.03456 -0.559249,-1.66228 -0.538876,-3.22962 -0.492994,-4.97386 -0.488727,1.63222 -0.651382,3.64039 0.0088,5.18883 0.82046,1.84605 -0.203605,4.51135 -0.203605,4.51135 1.768105,-0.96091 4.167795,-3.0745 5.062735,-6.87864 0.44194,-1.87856 0.42247,-3.79021 0.36742,-5.382622 0.0929,-1.097086 -0.33811,-2.358846 -0.092,-3.49126 z m -22.833236,1.786971 c 1.616751,2.252581 2.408683,5.739051 1.919263,8.032071 -0.184627,0.86501 -0.390165,1.88509 -0.521415,2.83807 -0.06214,0.45121 -0.08376,0.85361 -0.08268,1.22783 -0.329961,-0.86504 -1.06049,-3.09299 -0.875399,-4.9475 -0.662367,1.57991 -0.07776,3.63088 0.293005,4.73873 -1.648925,-2.00187 -1.963681,-3.97838 -2.269629,-6.11798 -0.127959,2.22098 0.351594,4.66769 1.706873,6.30711 -1.779431,-1.44438 -2.723507,-3.86284 -2.842721,-5.82135 -0.160904,-2.64346 -1.883606,-4.353738 -1.883606,-4.353738 0,0 1.20693,1.927408 1.356507,4.384748 0.160424,2.63551 1.439432,6.23627 5.15214,7.34218 0.07712,-0.64737 -0.159041,-1.75806 -0.03101,-2.68769 0.128035,-0.92964 0.330086,-1.93869 0.513664,-2.79879 0.535799,-2.51032 -0.115621,-6.177887 -2.434994,-8.143691 z m 28.761556,1.442289 c 0,0 0.10869,2.653102 -0.66611,6.248202 h -5.2e-4 c -0.19753,0.91652 -0.59046,1.83555 -1.03921,2.66857 1.19931,-3.36278 0.62373,-6.21875 0.62373,-6.21875 0,0 0.14036,2.64892 -1.19837,6.17431 0.0807,-0.63845 0.1382,-1.30123 0.18035,-1.91152 0.0907,-1.31319 -0.15917,-2.38073 -0.15917,-2.38073 0,0 -0.20178,1.01678 -0.29145,2.31459 -0.0575,0.83339 -0.26375,1.86639 -0.47904,2.74867 0.002,-0.29738 -0.0177,-0.61748 -0.0646,-0.95963 -0.31047,-2.26639 -0.48111,-3.82251 -0.48111,-3.82251 0,0 -0.3587,1.58219 -0.0418,3.89485 0.0678,0.4946 0.0726,0.93476 0.0403,1.32034 -0.0798,-0.69493 -0.25303,-1.60541 -0.52503,-2.91611 -0.67753,-3.26461 -0.22634,-5.5919 -0.22634,-5.5919 0,0 -0.99329,2.31495 -0.29094,5.69939 0.67486,3.25163 0.0222,6.1619 0.0222,6.1619 0,0 4.54505,-2.97409 5.38985,-7.23057 0.81564,-4.10954 1.04728,-5.30394 1.37098,-6.167579 -0.86812,0.704549 -0.79315,1.752509 -1.85932,5.672009 -0.35371,1.30033 -0.89025,2.39099 -1.46451,3.27938 0.46911,-0.92988 0.91897,-2.03087 1.16789,-3.18585 0.79337,-3.68123 -0.008,-5.797062 -0.008,-5.797062 z m -34.381367,5.383652 c 0.306254,1.14188 0.377872,2.26128 0.333829,3.40548 -0.04404,1.14419 0.07453,1.92698 0.151412,2.42362 -0.612424,-1.1387 -0.913461,-2.17724 -1.20096,-3.49643 -0.08529,1.11511 0.03782,2.38575 0.463021,3.46387 -0.63941,-0.64852 -1.195096,-1.25964 -1.692403,-2.29133 -0.658725,-1.36655 -1.448491,-2.39468 -1.448491,-2.39468 0,0 0.354311,1.22944 0.987537,2.6541 0.756051,1.701 1.850791,3.05845 3.631819,3.80132 -0.2794,-1.06681 -0.318287,-2.44602 -0.362251,-4.13877 -0.04396,-1.69275 -0.03762,-2.44656 -0.863513,-3.42718 z m 36.545057,0.32556 c 0,0 -0.8018,1.28193 -0.64079,3.37499 0.15044,1.95566 -0.32878,2.86496 -0.75293,4.02663 0,0 3.99812,-1.34646 5.00125,-5.73971 -0.82818,1.7732 -1.58653,2.58277 -2.45566,3.37551 1.4863,-1.46292 1.69452,-4.36522 1.70118,-4.46381 -0.0244,0.13787 -0.55654,1.96879 -1.65519,3.49229 0.90859,-1.96174 0.46405,-3.09335 0.46405,-3.09335 0,0 -0.10776,1.75414 -1.2268,3.73672 0.23356,-0.83561 0.4328,-1.95771 0.28629,-3.4866 -0.23412,1.68348 -0.61346,2.99609 -0.9033,3.82715 0.0812,-0.48166 0.11987,-1.04968 0.0687,-1.71411 -0.15263,-1.9842 0.11317,-3.33571 0.11317,-3.33571 z m 2.85305,0.57361 c 9.7e-4,-0.005 10e-4,-0.009 5.2e-4,-0.009 0,0 -4e-4,0.008 -5.2e-4,0.009 z M 72.741934,94.276208 c 0.768182,1.226706 1.942723,1.922708 1.729839,3.52621 -0.576613,-1.175403 -1.614473,-1.692925 -1.729839,-3.52621 z" /></g><path
       style="color:#000000;fill:#4f4331;fill-opacity:0.988235;-inkscape-stroke:none"
       d="m 118.61719,130.31641 c -0.43829,1.13806 -0.94044,2.47656 -0.94044,2.47656 0,0 1.44591,-0.68418 0.94044,-2.47656 z m -43.103518,0.49708 c 0,0 -1.170658,1.0284 -0.40918,2.92676 0.211499,-1.4341 0.40918,-2.92676 0.40918,-2.92676 z m 1.009765,0.93162 c -0.70057,0.54523 -0.848796,1.78634 -0.455078,2.63867 0.20125,-0.94648 0.390761,-1.70393 0.455078,-2.63867 z m 39.960933,1.11134 c -1.05454,1.36407 -1.75586,2.13281 -1.75586,2.13281 0,0 1.56032,-0.31236 1.75586,-2.13281 z m -39.207026,-0.0254 c -0.577742,0.57038 -0.654919,1.5171 -0.233402,2.18555 0.158679,-0.78964 0.27647,-1.40962 0.233402,-2.18555 z m 0.80957,0.78711 c 0,0 -0.872476,0.69566 -0.189453,1.875 0.12163,-0.85875 0.20325,-1.20591 0.189453,-1.875 z m 0.708989,1.00977 c 0,0 -0.539626,0.58105 -0.01073,1.2539 0.159473,-0.47275 0.01073,-1.2539 0.01073,-1.2539 z m 33.140617,0.29785 c 0,0 0.25525,1.26654 0.69043,1.97559 0.30278,-1.3654 -0.69042,-1.97559 -0.69043,-1.97559 z m -30.612302,0.91014 c 0,0 -2.085793,2.12812 -1.397461,6.01075 0.200429,-2.70405 1.397461,-6.01075 1.397461,-6.01075 z m 27.445312,0.0312 c -1.13008,2.07464 -0.87891,5.86524 -0.87891,5.86524 0,0 1.04457,-4.34474 0.87891,-5.86524 z m 2.60254,0.0938 c 0,0 0.18955,1.31011 0.81641,2.44727 0.11809,-1.88582 -0.81641,-2.44727 -0.81641,-2.44727 z m -28.960938,0.31935 c 0,0 -2.484904,1.93027 -1.796875,7.60644 0.133597,-4.76937 1.796875,-7.60644 1.796875,-7.60644 z m 27.925778,0.68453 c 0,0 0.59579,1.78692 1.22363,3.70117 0.18561,-2.72125 -1.22363,-3.70117 -1.22363,-3.70117 z m -27.459957,0.75685 c 0,0 -2.418024,2.04244 -1.774414,8.05078 0.133529,-4.83641 1.774414,-8.05078 1.774414,-8.05078 z m 26.675787,0.71779 c 0,0 0.28259,1.52435 1.03613,3.22949 0.0382,-2.38038 -1.03613,-3.22949 -1.03613,-3.22949 z m -26.719733,1.92188 c 0,0 -1.980226,3.03855 -1.020507,7.22949 -0.03826,-3.21629 1.020507,-7.22949 1.020507,-7.22949 z m 26.437503,0.74318 c 0,0 0.78624,2.30424 1.34961,3.95215 -0.0639,-2.79626 -1.34961,-3.95215 -1.34961,-3.95215 z m -26.016604,0.67574 c 0,0 -1.867958,3.86348 -0.90918,8.36035 0.0052,-3.26523 0.90918,-8.36035 0.90918,-8.36035 z m 25.326174,1.26955 c 0,0 1.13321,2.54623 2.19629,5.80175 -0.43476,-4.2325 -2.19629,-5.80175 -2.19629,-5.80175 z m -24.040041,3.07711 c 0,0 -0.598514,6.5582 -0.449093,9.61327 -1.070751,-4.93656 0.449093,-9.61327 0.449093,-9.61327 z m -0.731446,-1.86229 c 0,0 -1.670728,4.3096 -0.4891,8.82393 0.05228,-3.67435 0.4891,-8.82393 0.4891,-8.82393 z m 24.521487,0.98049 c 0,0 0.97303,2.88759 1.81836,5.39453 -0.16907,-3.51997 -1.81836,-5.39453 -1.81836,-5.39453 z m -0.28223,2.22656 c 0,0 0.84685,2.665 1.63086,4.9873 -0.238,-3.55 -1.63086,-4.9873 -1.63086,-4.9873 z m -0.5332,1.56838 c 0,0 0.81315,2.69062 1.53613,5.11231 -0.0405,-3.35052 -1.53613,-5.11231 -1.53613,-5.11231 z m -22.70801,0.50291 c 0,0 -1.137723,4.71091 0.332031,8.33789 -0.415324,-3.46979 -0.06836,-8.31836 -0.332031,-8.33789 z m 22.08007,1.06447 c 0,0 0.87588,2.03935 1.56837,4.64258 -0.0748,-3.43446 -1.56837,-4.64258 -1.56837,-4.64258 z m -0.5332,1.81931 c 0,0 0.68762,1.75076 1.31836,4.10937 0.0111,-3.35466 -1.31836,-4.10937 -1.31836,-4.10937 z m -0.4707,1.97562 c 0,0 0.49796,1.457 1.19238,4.07812 -0.095,-3.35003 -1.19238,-4.07812 -1.19238,-4.07812 z"
       id="path26858" /><path
       style="font-variation-settings:normal;vector-effect:none;fill:#504330;fill-opacity:1;stroke:none;stroke-width:0.132292;stroke-linecap:butt;stroke-linejoin:miter;stroke-miterlimit:4;stroke-dasharray:none;stroke-dashoffset:0;stroke-opacity:1;-inkscape-stroke:none;stop-color:#000000"
       d="m 90.877158,129.04793 c -1.327848,2.19895 -1.796361,4.43312 -2.102038,6.71162 0.757167,-2.06471 1.475442,-4.72573 2.102038,-6.71162 z m -1.271317,10.67674 c 0,0 0.963872,-3.37516 1.913164,-7.62116 -2.163984,3.55065 -1.913164,7.62116 -1.913164,7.62116 z m 0.09407,8.12337 c -0.163861,-4.85468 1.261145,-10.02808 2.226819,-14.45863 -1.561554,4.05312 -3.002381,9.35159 -2.226819,14.45863 z m -0.87818,-3.95181 c 0.125617,-4.6517 1.048167,-9.52154 2.25818,-13.48635 -1.989716,4.47903 -2.99838,8.74499 -2.25818,13.48635 z M 92.209,136.00828 c -2.065319,4.94735 -2.456004,10.23188 -1.599544,14.53703 -0.280041,-4.97592 0.391402,-9.72349 1.599544,-14.53703 z m 0.266594,2.65022 c -1.457047,3.28953 -1.828308,7.2266 -1.338918,10.71365 0.08835,-3.02275 0.563871,-6.89508 1.338918,-10.71365 z m -0.39205,13.64314 c -0.140464,-3.52605 -0.008,-6.73003 0.394419,-10.12848 -0.851542,3.17558 -1.274392,6.3874 -0.394419,10.12848 z m 0.658628,-4.39067 c -0.234681,2.30072 -0.315135,4.87076 0.282282,7.05661 -0.160041,-2.44945 -0.06464,-4.63865 -0.282282,-7.05661 z m 1.035008,6.46071 c 0,0 0.206318,-3.62971 0.250909,-7.21364 -0.87257,3.58299 -0.250909,7.21364 -0.250909,7.21364 z m 0.878192,1.37999 c -0.09925,-2.03849 -0.01818,-4.02851 -0.06773,-6.0356 -0.403282,1.91062 -0.509701,4.2816 0.06773,6.0356 z m -1.536769,3.76333 c 0,0 0.719473,-2.03747 0.658577,-4.32787 -0.73943,2.16862 -0.658577,4.32787 -0.658577,4.32787 z m -1.066406,-6.55432 c 0,0 -0.282355,1.9265 0.250894,3.92008 0.274753,-2.04529 -0.250894,-3.92008 -0.250894,-3.92008 z m -1.285923,-1.004 c -0.458649,1.75628 -1.337225,3.66383 -1.944544,5.0809 1.180683,-1.30159 1.932116,-3.15259 1.944544,-5.0809 z m 0.878181,2.44636 c 0,0 -1.994854,3.41137 -4.453636,6.71181 3.151094,-2.85821 4.453636,-6.71181 4.453636,-6.71181 z m -0.03136,1.94454 c -0.695048,1.33366 -1.821795,2.59591 -2.603182,3.795 1.246856,-1.08782 2.283999,-2.16907 2.603182,-3.795 z m -0.697555,-6.90899 c 0.493179,3.64842 -0.25238,5.21581 -1.429657,7.73278 2.014307,-2.90387 2.549791,-4.21726 1.429657,-7.73278 z m -1.984308,8.08798 c 0,0 -1.101619,0.93873 -1.574381,2.3948 1.149328,-1.01129 1.574381,-2.3948 1.574381,-2.3948 z m -0.931468,0.53217 c 0,0 -1.405608,1.29404 -2.217511,3.14892 1.472806,-1.38946 2.217511,-3.14892 2.217511,-3.14892 z m -2.749766,2.88279 c 0,0 -1.916267,1.15333 -3.018261,3.88614 -0.675195,1.68646 -0.727005,3.69674 -0.530126,5.82757 0.118514,-2.1557 0.363546,-3.97017 1.002498,-5.61862 1.009756,-2.62534 2.545889,-4.09509 2.545889,-4.09509 z m -2.616936,9.35887 c 0,0 0.09321,-3.3842 1.21976,-6.80847 -0.965465,1.60686 -1.313654,3.30493 -1.369879,4.65228 -0.05494,1.31648 0.150119,2.15619 0.150119,2.15619 z m 0.776209,-0.11089 c 0.118724,-1.69458 0.232737,-2.96259 0.161411,-4.62501 -0.37675,1.44762 -0.514878,3.25473 -0.161411,4.62501 z m -1.352821,1.35283 c 0,0 -0.08399,0.95635 -0.03512,2.44956 0.04875,1.48956 0.271136,3.57513 1.498836,5.20165 -0.852084,-1.77513 -1.045883,-3.78803 -1.191367,-5.2222 -0.149022,-1.46905 -0.272344,-2.42901 -0.272344,-2.42901 z m 1.419349,4.14717 c 0,0 -0.04848,0.58726 0.261131,1.45438 0.295993,0.82899 1.039591,1.9697 2.311455,2.09401 -1.106344,-0.50934 -1.649263,-1.44223 -2.026326,-2.21365 -0.380953,-0.77938 -0.54626,-1.33474 -0.54626,-1.33474 z m 1.41936,1.7742 c 0,0 0.503785,0.72031 1.798836,0.78436 0.828022,0.0451 1.812479,-0.32351 2.348345,-1.18356 -0.750127,0.59824 -1.621336,0.8387 -2.337274,0.8344 -1.12727,-0.014 -1.809907,-0.4352 -1.809907,-0.4352 z m 2.23992,1.39717 c 0,0 0.371327,0.0499 0.936767,-0.0888 0.533489,-0.13092 1.341943,-0.51584 1.547105,-1.30835 -0.504582,0.51251 -1.169128,0.79804 -1.647864,1.01296 -0.497347,0.22326 -0.836008,0.38421 -0.836008,0.38421 z m 2.350806,-0.2883 c 0,0 0.417405,-0.15326 0.98358,-0.53964 0.540833,-0.36908 1.301391,-1.05767 1.411581,-2.01076 -0.456171,0.74356 -1.137861,1.3351 -1.604314,1.76895 -0.490505,0.45623 -0.790847,0.78145 -0.790847,0.78145 z m 0.864919,0.22177 c 0,0 1.335598,-0.59937 2.435236,-2.22958 0.640876,-0.9607 0.951838,-2.1826 0.891377,-3.51437 -0.240853,1.30947 -0.600836,2.4161 -1.190176,3.3169 -1.001766,1.54945 -2.136437,2.42705 -2.136437,2.42705 z m 2.727823,-1.30847 c 0,0 1.750591,-1.08769 1.264113,-3.14919 -0.360497,1.6891 -1.264113,3.14919 -1.264113,3.14919 z m 0.177419,0.8871 c 0,0 0.680921,-0.38914 1.342215,-1.27767 0.532037,-0.7291 0.746256,-1.71638 0.587221,-2.80297 -0.207004,1.0877 -0.423214,1.92101 -0.867538,2.6099 -0.545409,0.86624 -1.061898,1.47074 -1.061898,1.47074 z m -1.175403,-2.88306 c 0,0 0.366996,-0.13556 0.67816,-0.63559 0.321377,-0.51645 0.471366,-1.29329 0.186759,-2.09224 -0.144611,0.81863 -0.259446,1.45123 -0.45299,1.95828 -0.179915,0.47134 -0.411929,0.76955 -0.411929,0.76955 z m -0.718457,-0.76327 c 0,0 0.279781,-0.58328 0.399603,-1.57367 0.118935,-0.98306 0.009,-2.40251 -0.775969,-3.50723 0.422336,1.28371 0.487205,2.5155 0.470962,3.48601 -0.01604,0.95854 -0.0946,1.59489 -0.0946,1.59489 z m -0.76743,-15.27101 c 0,0 -0.741414,1.9094 -0.891212,4.70728 -0.08228,1.55121 0.202802,3.32032 1.112986,4.89555 -0.640307,-1.68117 -0.822767,-3.37895 -0.754319,-4.87783 0.123585,-2.73546 0.532545,-4.725 0.532545,-4.725 z m 0.576613,2.9496 c 0,0 0.03305,-0.57036 0.208623,-1.3887 0.150774,-0.70275 0.545502,-2.0849 0.434522,-3.20203 -0.338711,1.41012 -0.630117,2.02106 -0.733248,3.15691 -0.07999,0.88095 0.0901,1.43382 0.0901,1.43382 z m -0.465726,1.02016 c 0,0 -0.09898,0.70742 -0.03753,1.80676 0.06052,1.08277 0.313168,2.60549 1.235107,3.82631 -0.545599,-1.37412 -0.771776,-2.79858 -0.930453,-3.85746 -0.160041,-1.06799 -0.267128,-1.77561 -0.267128,-1.77561 z m 0.731855,0.35484 c 0,0 0.139724,1.57445 0.882659,3.69439 h 1e-6 c 0.368313,1.06176 0.763627,2.3422 0.758469,3.66851 0.283598,-1.33087 -0.03215,-2.70264 -0.419133,-3.78788 v 0 c -0.736582,-2.08606 -1.221996,-3.57502 -1.221996,-3.57502 z"
       id="path28578" /><path
       style="font-variation-settings:normal;vector-effect:none;fill:#504330;fill-opacity:1;stroke:none;stroke-width:0.132292;stroke-linecap:butt;stroke-linejoin:miter;stroke-miterlimit:4;stroke-dasharray:none;stroke-dashoffset:0;stroke-opacity:1;-inkscape-stroke:none;stop-color:#000000"
       d="m 102.86478,129.04793 c 1.32785,2.19895 1.79636,4.43312 2.10204,6.71162 -0.75717,-2.06471 -1.47544,-4.72573 -2.10204,-6.71162 z m 1.27132,10.67674 c 0,0 -0.96387,-3.37516 -1.91316,-7.62116 2.16398,3.55065 1.91316,7.62116 1.91316,7.62116 z m -0.0941,8.12337 c 0.16386,-4.85468 -1.26115,-10.02808 -2.22682,-14.45863 1.56155,4.05312 3.00238,9.35159 2.22682,14.45863 z m 0.87818,-3.95181 c -0.12562,-4.6517 -1.04817,-9.52154 -2.25818,-13.48635 1.98972,4.47903 2.99838,8.74499 2.25818,13.48635 z m -3.38727,-7.88795 c 2.06532,4.94735 2.456,10.23188 1.59954,14.53703 0.28005,-4.97592 -0.3914,-9.72349 -1.59954,-14.53703 z m -0.26659,2.65022 c 1.45704,3.28953 1.8283,7.2266 1.33891,10.71365 -0.0884,-3.02275 -0.56387,-6.89508 -1.33891,-10.71365 z m 0.39205,13.64314 c 0.14046,-3.52605 0.008,-6.73003 -0.39442,-10.12848 0.85154,3.17558 1.27439,6.3874 0.39442,10.12848 z m -0.65863,-4.39067 c 0.23468,2.30072 0.31513,4.87076 -0.28228,7.05661 0.16004,-2.44945 0.0646,-4.63865 0.28228,-7.05661 z m -1.035009,6.46071 c 0,0 -0.206318,-3.62971 -0.250909,-7.21364 0.872568,3.58299 0.250909,7.21364 0.250909,7.21364 z m -0.878192,1.37999 c 0.09925,-2.03849 0.01818,-4.02851 0.06773,-6.0356 0.403282,1.91062 0.509701,4.2816 -0.06773,6.0356 z m 1.536771,3.76333 c 0,0 -0.719475,-2.03747 -0.658579,-4.32787 0.739429,2.16862 0.658579,4.32787 0.658579,4.32787 z m 1.0664,-6.55432 c 0,0 0.28236,1.9265 -0.25089,3.92008 -0.27475,-2.04529 0.25089,-3.92008 0.25089,-3.92008 z m 1.28593,-1.004 c 0.45865,1.75628 1.33722,3.66383 1.94454,5.0809 -1.18068,-1.30159 -1.93212,-3.15259 -1.94454,-5.0809 z m -0.87818,2.44636 c 0,0 1.99485,3.41137 4.45363,6.71181 -3.15109,-2.85821 -4.45363,-6.71181 -4.45363,-6.71181 z m 0.0314,1.94454 c 0.69504,1.33366 1.82179,2.59591 2.60318,3.795 -1.24686,-1.08782 -2.284,-2.16907 -2.60318,-3.795 z m 0.69755,-6.90899 c -0.49318,3.64842 0.25238,5.21581 1.42966,7.73278 -2.01431,-2.90387 -2.54979,-4.21726 -1.42966,-7.73278 z m 1.98431,8.08798 c 0,0 1.10162,0.93873 1.57438,2.3948 -1.14933,-1.01129 -1.57438,-2.3948 -1.57438,-2.3948 z m 0.93147,0.53217 c 0,0 1.4056,1.29404 2.21751,3.14892 -1.47281,-1.38946 -2.21751,-3.14892 -2.21751,-3.14892 z m 2.74976,2.88279 c 0,0 1.91627,1.15333 3.01826,3.88614 0.6752,1.68646 0.72701,3.69674 0.53013,5.82757 -0.11851,-2.1557 -0.36355,-3.97017 -1.0025,-5.61862 -1.00975,-2.62534 -2.54589,-4.09509 -2.54589,-4.09509 z m 2.61694,9.35887 c 0,0 -0.0932,-3.3842 -1.21976,-6.80847 0.96546,1.60686 1.31365,3.30493 1.36988,4.65228 0.0549,1.31648 -0.15012,2.15619 -0.15012,2.15619 z m -0.77621,-0.11089 c -0.11872,-1.69458 -0.23274,-2.96259 -0.16141,-4.62501 0.37675,1.44762 0.51488,3.25473 0.16141,4.62501 z m 1.35282,1.35283 c 0,0 0.084,0.95635 0.0351,2.44956 -0.0487,1.48956 -0.27114,3.57513 -1.49884,5.20165 0.85209,-1.77513 1.04589,-3.78803 1.19137,-5.2222 0.14902,-1.46905 0.27235,-2.42901 0.27235,-2.42901 z m -1.41935,4.14717 c 0,0 0.0485,0.58726 -0.26113,1.45438 -0.29599,0.82899 -1.03959,1.9697 -2.31145,2.09401 1.10634,-0.50934 1.64926,-1.44223 2.02632,-2.21365 0.38095,-0.77938 0.54626,-1.33474 0.54626,-1.33474 z m -1.41936,1.7742 c 0,0 -0.50378,0.72031 -1.79883,0.78436 -0.82803,0.0451 -1.81248,-0.32351 -2.34835,-1.18356 0.75013,0.59824 1.62134,0.8387 2.33727,0.8344 1.12727,-0.014 1.80991,-0.4352 1.80991,-0.4352 z m -2.23992,1.39717 c 0,0 -0.37133,0.0499 -0.93677,-0.0888 -0.53348,-0.13092 -1.34194,-0.51584 -1.5471,-1.30835 0.50458,0.51251 1.16913,0.79804 1.64786,1.01296 0.49735,0.22326 0.83601,0.38421 0.83601,0.38421 z m -2.3508,-0.2883 c 0,0 -0.41741,-0.15326 -0.98358,-0.53964 -0.54084,-0.36908 -1.3014,-1.05767 -1.41159,-2.01076 0.45618,0.74356 1.13787,1.3351 1.60432,1.76895 0.4905,0.45623 0.79085,0.78145 0.79085,0.78145 z m -0.86492,0.22177 c 0,0 -1.3356,-0.59937 -2.43524,-2.22958 -0.64088,-0.9607 -0.95184,-2.1826 -0.89138,-3.51437 0.24086,1.30947 0.60084,2.4161 1.19018,3.3169 1.00177,1.54945 2.13644,2.42705 2.13644,2.42705 z m -2.72783,-1.30847 c 0,0 -1.750587,-1.08769 -1.264109,-3.14919 0.360497,1.6891 1.264109,3.14919 1.264109,3.14919 z m -0.17742,0.8871 c 0,0 -0.680916,-0.38914 -1.34221,-1.27767 -0.532037,-0.7291 -0.746256,-1.71638 -0.587221,-2.80297 0.207004,1.0877 0.423214,1.92101 0.867538,2.6099 0.545409,0.86624 1.061893,1.47074 1.061893,1.47074 z m 1.17541,-2.88306 c 0,0 -0.367,-0.13556 -0.67816,-0.63559 -0.32138,-0.51645 -0.47137,-1.29329 -0.18676,-2.09224 0.14461,0.81863 0.25944,1.45123 0.45299,1.95828 0.17991,0.47134 0.41193,0.76955 0.41193,0.76955 z m 0.71845,-0.76327 c 0,0 -0.27978,-0.58328 -0.3996,-1.57367 -0.11893,-0.98306 -0.009,-2.40251 0.77597,-3.50723 -0.42234,1.28371 -0.4872,2.5155 -0.47096,3.48601 0.016,0.95854 0.0946,1.59489 0.0946,1.59489 z m 0.76743,-15.27101 c 0,0 0.74142,1.9094 0.89122,4.70728 0.0823,1.55121 -0.20281,3.32032 -1.11299,4.89555 0.64031,-1.68117 0.82277,-3.37895 0.75432,-4.87783 -0.12359,-2.73546 -0.53255,-4.725 -0.53255,-4.725 z m -0.57661,2.9496 c 0,0 -0.0331,-0.57036 -0.20862,-1.3887 -0.15078,-0.70275 -0.5455,-2.0849 -0.43452,-3.20203 0.33871,1.41012 0.63011,2.02106 0.73324,3.15691 0.08,0.88095 -0.0901,1.43382 -0.0901,1.43382 z m 0.46573,1.02016 c 0,0 0.099,0.70742 0.0375,1.80676 -0.0605,1.08277 -0.31317,2.60549 -1.23511,3.82631 0.5456,-1.37412 0.77178,-2.79858 0.93045,-3.85746 0.16004,-1.06799 0.26713,-1.77561 0.26713,-1.77561 z m -0.73186,0.35484 c 0,0 -0.13972,1.57445 -0.88266,3.69439 v 0 c -0.36831,1.06176 -0.76362,2.3422 -0.75847,3.66851 -0.28359,-1.33087 0.0322,-2.70264 0.41914,-3.78788 v 0 c 0.73658,-2.08606 1.22199,-3.57502 1.22199,-3.57502 z"
       id="path1749" /><path
       style="font-variation-settings:normal;vector-effect:none;fill:#504330;fill-opacity:1;stroke:none;stroke-width:0.132292;stroke-linecap:butt;stroke-linejoin:miter;stroke-miterlimit:4;stroke-dasharray:none;stroke-dashoffset:0;stroke-opacity:1;-inkscape-stroke:none;stop-color:#000000"
       d="m 97.181482,149.23216 c 0,0 -0.468373,2.61357 -0.133097,5.41098 0.472407,-2.77754 0.133097,-5.41098 0.133097,-5.41098 z m 0.931439,-0.68762 c 0,0 3.14e-4,0.0192 7.8e-4,0.0568 0,0 0,0 0,0 -2.49e-4,-0.0192 0.0021,0.17315 0.0018,0.15391 0,0 0,0 0,0 l 0,0 c 0.0017,0.15054 0.0033,0.31064 0.0052,0.57422 l 0,0 0,0 c 0.0039,0.53967 0.0065,1.14966 0.0045,2.04368 l 0,0 c -0.0045,1.90346 -0.02332,3.80189 -0.100968,6.3748 0.480141,-2.36511 0.503359,-4.64729 0.404626,-6.38309 l 0,0 c -0.04869,-0.85691 -0.125911,-1.54804 -0.193127,-2.04358 l 0,0 0,0 c -0.03352,-0.2471 -0.06319,-0.4352 -0.08571,-0.5691 l 0,0 c 0,0 0,0 0,0 -0.0112,-0.0666 -0.02005,-0.11627 -0.02655,-0.15176 0,0 0,0 0,0 -0.0068,-0.037 -0.01051,-0.0559 -0.01051,-0.0559 z m 0.864969,-2.7055 c 0,0 3.56e-4,0.0119 0.0011,0.0343 0,0 0,0 0,0 7.37e-4,0.0201 0.0019,0.0502 0.0036,0.0874 0.0033,0.0735 0.0087,0.18316 0.01693,0.31686 l 0,0 0,0 c 0.0161,0.26314 0.04398,0.64008 0.08861,1.08057 l 0,0 c 0.08555,0.84553 0.236534,1.91431 0.466336,3.04903 0.159725,-1.15024 0.01862,-2.26975 -0.154654,-3.09736 l 0,0 c -0.09214,-0.44047 -0.19482,-0.80032 -0.276149,-1.05548 l 0,0 0,0 c -0.04132,-0.12962 -0.07653,-0.23031 -0.10237,-0.3012 -0.01297,-0.0356 -0.02328,-0.0628 -0.03073,-0.0822 0,0 0,0 0,0 -0.0083,-0.0212 -0.01264,-0.032 -0.01264,-0.032 z m 0.99799,-0.48795 c 0,0 0.0017,0.0129 0.0047,0.0381 0,0 0,0 0,0 0.0031,0.0253 0.0067,0.0544 0.012,0.0995 0.01115,0.0941 0.02374,0.20313 0.04183,0.3693 l 0,0 0,0 c 0.0376,0.34589 0.0782,0.74527 0.1285,1.32042 l 0,0 c 0.11609,1.32812 0.19073,2.4864 0.27861,4.29332 0.33759,-1.62253 0.22811,-3.17289 0.0178,-4.33315 l 0,0 c -0.10028,-0.55354 -0.21805,-0.9909 -0.31485,-1.30343 l 0,0 0,0 c -0.0478,-0.15432 -0.0882,-0.27078 -0.11867,-0.35406 -0.0151,-0.0412 -0.02684,-0.072 -0.03554,-0.0942 0,0 0,0 0,0 -0.0093,-0.0237 -0.01438,-0.0358 -0.01438,-0.0358 z m 0.77619,-1.61898 c 0,0 0.002,0.0144 0.004,0.0416 0,0 0,0 0,0 -6.3e-4,-0.006 0.0124,0.11475 0.0118,0.10888 0,0 0,0 0,0 l 0,0 c -0.002,-0.0194 0.0456,0.41856 0.0435,0.3992 l 0,0 0,0 c 0.0131,0.11961 0.1395,1.26562 0.1526,1.38523 l 0,0 c 0.13,1.179 0.28409,2.49883 0.43074,4.09713 0.25682,-1.53724 0.0945,-3.03471 -0.12365,-4.14423 l 0,0 c -0.11236,-0.57227 -0.23923,-1.03451 -0.34048,-1.36283 l 0,0 0,0 c -0.0512,-0.1659 -0.0944,-0.29288 -0.1263,-0.38283 l 0,0 c 0,0 0,0 0,0 -0.016,-0.045 -0.0285,-0.0789 -0.0376,-0.10304 0,0 0,0 0,0 -0.01,-0.0259 -0.015,-0.0391 -0.015,-0.0391 z m 0.27011,15.75183 c 0,0 0.76014,2.78397 0.0627,5.67681 0.75573,-1.3654 0.74485,-2.88017 0.52566,-3.97073 -0.21833,-1.08625 -0.58836,-1.70608 -0.58836,-1.70608 z m -0.28228,6.96272 c 0,0 -0.47935,0.62366 -0.870074,1.76166 -0.405115,1.17993 -0.629713,2.72069 -0.353103,4.41698 0.148989,-1.76512 0.333669,-3.08676 0.643797,-4.33083 0.28083,-1.12654 0.57938,-1.84781 0.57938,-1.84781 z m -2.471757,6.53721 c 0,0 0.02642,-0.66373 0.205291,-1.62655 0.191168,-1.02903 0.521372,-2.16501 1.081,-3.51861 -0.917536,1.13092 -1.295004,2.43531 -1.381132,3.47872 -0.08422,1.02023 0.09484,1.66644 0.09484,1.66644 z m 1.419354,-6.76412 c 0,0 0.409833,-0.56013 0.686753,-1.58723 0.28225,-1.04689 0.36146,-2.46854 -0.19885,-3.86841 0.15013,1.48734 0.0774,2.75184 -0.0979,3.80355 -0.16709,1.00222 -0.389993,1.65209 -0.389993,1.65209 z M 99.04438,156.5065 c 0,0 -0.0054,0.0319 -0.01331,0.0928 0,0 0,0 0,0 -0.0072,0.0563 -0.01584,0.13568 -0.02301,0.2371 l 0,0 0,0 0,0 c -0.01403,0.19919 -0.02181,0.47729 0.002,0.81033 l 0,0 c 0.04434,0.62573 0.200085,1.46256 0.6553,2.2081 -0.08293,-0.86724 -0.208273,-1.63143 -0.34315,-2.25264 l 0,0 c -0.06881,-0.31746 -0.137263,-0.58932 -0.187847,-0.77785 l 0,0 0,0 0,0 c -0.02579,-0.0962 -0.04824,-0.17557 -0.06356,-0.22834 0,0 0,0 0,0 -0.01667,-0.057 -0.02639,-0.0895 -0.02639,-0.0895 z m 1.75202,-0.68741 c 0,0 -0.0959,1.6765 0.62094,3.30389 0.0771,-1.77661 -0.62094,-3.30389 -0.62094,-3.30389 z m -2.769448,20.41301 c 0,0 -0.03427,0.35685 0.108688,0.88162 0.137097,0.50324 0.498097,1.23031 1.224265,1.50202 -0.429404,-0.54747 -0.721002,-1.16832 -0.937346,-1.6095 -0.226762,-0.46243 -0.395607,-0.77414 -0.395607,-0.77414 z"
       id="path1823"
       class="UnoptimicedTransforms" /><g
       id="g5036"><path
         style="color:#000000;opacity:1;fill:#a04336;fill-opacity:1;-inkscape-stroke:none"
         d="m 90.65625,173.40915 c 0.323928,-1.18616 0.09961,-2.46778 -0.03125,-2.44531 0,0 0.08369,1.2792 0.03125,2.44531 z"
         id="path5086" /><path
         style="color:#000000;opacity:1;fill:#a04336;fill-opacity:1;-inkscape-stroke:none"
         d="m 88.875,168.50198 c 0.331499,0.73165 0.666391,1.45918 0.867187,2.48633 0.14564,0.96349 0.289753,1.95281 0.06738,2.93945 0.456208,-0.88185 0.356171,-2.127 0.192383,-2.99023 h 3e-6 c -0.20693,-1.05853 -0.553709,-1.81425 -0.884766,-2.54492 -0.331056,-0.73068 -0.846346,-1.84568 -1.104807,-3.63124 -0.06221,1.68542 0.531121,3.00896 0.86262,3.74061 z"
         id="path5084" /><path
         style="color:#000000;opacity:1;fill:#a04336;fill-opacity:1;-inkscape-stroke:none"
         d="m 89.605552,173.17385 c -0.01651,-1.77338 -0.781853,-3.52418 -1.7041,-5.10841 0.879662,2.52885 1.424196,3.28549 1.7041,5.10841 z"
         id="path5082" /><path
         style="color:#000000;opacity:1;fill:#a04336;fill-opacity:1;-inkscape-stroke:none"
         d="m 87.646484,162.84375 c -0.506158,1.48684 -0.469827,3.05138 0.201679,5.03698 -0.441769,-1.94409 -0.449151,-3.48972 0.04832,-4.95105 0.504106,-1.48081 0.78499,-2.60306 0.930853,-3.44178 0,0 -0.681325,1.88848 -1.180852,3.35585 z"
         id="path5080" /><path
         style="color:#000000;opacity:1;fill:#a04336;fill-opacity:1;-inkscape-stroke:none"
         d="m 87.349609,162.55861 c -0.661136,1.74154 -0.571178,3.02199 0.105469,5.44532 0.343538,1.07084 0.569654,1.88003 1.367187,3.02148 -0.452414,-0.93855 -0.864342,-2.2185 -1.111328,-3.09375 v -2e-5 c -0.671987,-2.40664 -0.756754,-3.58429 -0.113281,-5.2793 0.646803,-1.70376 0.780116,-2.62363 0.780116,-2.62363 0,0 -0.389058,0.84641 -1.028163,2.5299 z"
         id="path5078" /><path
         style="color:#000000;opacity:1;fill:#a04336;fill-opacity:1;-inkscape-stroke:none"
         d="m 88.11977,162.39005 c -0.618861,1.93699 -0.796666,3.56269 0.108749,5.73886 0.893395,2.14727 1.266239,3.12533 1.565429,4.02537 -0.04581,-0.98177 -0.42696,-1.97745 -1.321289,-4.12697 -0.882311,-2.12064 -0.700285,-3.69093 -0.08984,-5.60156 0.592626,-1.85487 0.832645,-2.40842 0.909176,-3.60057 -0.332685,1.12675 -0.577934,1.70479 -1.172225,3.56487 z"
         id="path5076" /><path
         style="color:#000000;opacity:1;fill:#a04336;fill-opacity:1;-inkscape-stroke:none"
         d="m 89.449219,159.70408 c -0.492414,0.805 -0.589151,2.45136 -0.589151,2.45136 0,0 0.409612,-1.53104 0.589151,-2.45136 z"
         id="path5074" /><path
         style="color:#000000;opacity:1;fill:#a04336;fill-opacity:1;-inkscape-stroke:none"
         d="m 89.542968,165.41115 c 0,0 -0.0654,-1.47681 0.140626,-3.08887 -0.703517,1.54649 -0.140626,3.08887 -0.140626,3.08887 z"
         id="path5072" /><path
         style="color:#000000;opacity:1;fill:#a04336;fill-opacity:1;-inkscape-stroke:none"
         d="m 90.59375,170.42967 c -0.144694,-1.37479 -1.023595,-2.60106 -1.023595,-2.60106 0,0 0.573631,1.63748 1.023595,2.60106 z"
         id="path5070" /><path
         style="color:#000000;opacity:1;fill:#a04336;fill-opacity:1;-inkscape-stroke:none"
         d="m 90.503906,169.30466 c 0.62166,1.4609 0.553099,1.9281 0.654297,2.58302 0.163923,-0.63097 0.220773,-1.19923 -0.412109,-2.68651 -0.623069,-1.46421 -1.296875,-3.209 -1.296875,-3.209 0,0 0.423213,1.82852 1.054687,3.31249 z"
         id="path5068" /><path
         style="color:#000000;opacity:1;fill:#a04336;fill-opacity:1;-inkscape-stroke:none"
         d="m 89.527344,167.5127 c -0.690711,-2.1807 -0.595704,-5.23731 -0.595704,-5.23731 0,0 -0.704057,2.56491 0.595704,5.23731 z"
         id="path5066" /><path
         style="color:#000000;opacity:1;fill:#a04336;fill-opacity:1;-inkscape-stroke:none"
         d="m 89.825195,159.79787 c 0,0 -0.826941,1.60002 -0.611328,3.29297 0.20262,-1.42503 0.611328,-3.29297 0.611328,-3.29297 z"
         id="path5064" /><path
         style="color:#000000;opacity:1;fill:#a04336;fill-opacity:1;-inkscape-stroke:none"
         d="m 89.533203,169.1387 c 1.19729,2.47133 0.542969,5.14943 0.542969,5.14943 0,0 0.944382,-2.68642 -0.304688,-5.26463 v -3e-5 c -1.213541,-2.50488 -1.487456,-4.66285 -1.106445,-6.68555 -0.653986,2.0232 -0.364654,4.25612 0.868164,6.80078 z"
         id="path5062" /><path
         style="color:#000000;opacity:1;fill:#a04336;fill-opacity:1;-inkscape-stroke:none"
         d="m 90.062595,175.43428 c 0,0 0.561239,-0.56228 0.510521,-1.77374 -0.205956,0.96192 -0.510521,1.77374 -0.510521,1.77374 z"
         id="path5060" /><path
         style="color:#000000;opacity:1;fill:#a04336;fill-opacity:1;-inkscape-stroke:none"
         d="m 89.252331,176.00035 c 0,0 0.733499,-0.35806 0.810579,-1.6416 -0.277759,0.74567 -0.810579,1.6416 -0.810579,1.6416 z"
         id="path5058" /><path
         style="color:#000000;opacity:1;fill:#a04336;fill-opacity:1;-inkscape-stroke:none"
         d="m 88.543914,176.16642 c 0,0 0.824134,-0.33826 0.819587,-1.23018 -0.181966,0.40546 -0.819587,1.23018 -0.819587,1.23018 z"
         id="path5056" /><path
         style="color:#000000;opacity:1;fill:#a04336;fill-opacity:1;-inkscape-stroke:none"
         d="m 83.409622,171.83124 c -0.123864,1.23864 0.02124,2.33168 0.233079,3.05302 0.211858,0.7214 0.603384,1.4673 1.607297,1.67043 -0.814634,-0.41784 -1.077324,-0.98016 -1.373061,-1.77269 -0.295738,-0.79252 -0.419667,-1.80721 -0.467315,-2.95076 z"
         id="path5054" /><path
         style="color:#000000;opacity:1;fill:#a04336;fill-opacity:1;-inkscape-stroke:none"
         d="m 83.304687,175.10547 c 0.262507,0.90165 0.768832,1.62103 1.462891,2.0293 0.694059,0.40827 1.570885,0.49766 2.499999,0.041 -0.955965,0.18649 -1.741693,0.0984 -2.367188,-0.26953 -0.625496,-0.36794 -1.094221,-1.02463 -1.341797,-1.875 -0.50171,-1.72326 -0.342929,-3.3605 -0.315429,-4.73047 -0.291668,1.34295 -0.456924,3.02393 0.06152,4.80469 z"
         id="path5052" /><path
         style="color:#000000;opacity:1;fill:#a04336;fill-opacity:1;-inkscape-stroke:none"
         d="m 86.115234,176.08886 c 0,0 1.895154,0.47304 2.938539,-0.95347 -0.974757,0.9354 -2.938539,0.95347 -2.938539,0.95347 z"
         id="path5050" /><path
         style="color:#000000;opacity:1;fill:#a04336;fill-opacity:1;-inkscape-stroke:none"
         d="m 84.195312,174.7833 c 0.377816,0.98461 1.037674,1.58054 1.806641,1.8086 0.768967,0.22806 1.636306,0.0931 2.375,-0.45801 -0.813724,0.29159 -1.609632,0.41045 -2.298828,0.20605 -0.689196,-0.2044 -1.28268,-0.72774 -1.636719,-1.65039 -0.72062,-1.87799 -0.821509,-4.156 -0.821509,-4.156 0,0 -0.167666,2.31323 0.575415,4.24975 z"
         id="path5048" /><path
         style="color:#000000;opacity:1;fill:#a04336;fill-opacity:1;-inkscape-stroke:none"
         d="m 84.496094,170.16799 c 0,0 -0.286366,1.78309 0.46582,3.34766 -0.323403,-1.21867 -0.46582,-3.34766 -0.46582,-3.34766 z"
         id="path5046" /><path
         style="color:#000000;opacity:1;fill:#a04336;fill-opacity:1;-inkscape-stroke:none"
         d="m 85.0293,174.77758 c -0.374443,-0.61367 -0.610813,-1.77776 -0.740235,-2.77734 -0.129421,-0.99958 -0.23655,-2.08805 -0.23655,-2.08805 0,0 -0.156331,1.10823 -0.02517,2.12125 0.131162,1.01302 0.3534,2.18802 0.777343,2.88282 0.421961,0.69154 1.035034,0.9031 1.525391,0.92968 0.490357,0.0266 0.82715,-0.24512 0.82715,-0.24512 0,0 -0.38347,0.0715 -0.813475,0.0481 -0.430006,-0.0234 -0.938027,-0.25442 -1.314454,-0.87135 z"
         id="path5044" /><path
         id="path5042"
         style="color:#000000;opacity:1;fill:#a04336;fill-opacity:1;-inkscape-stroke:none"
         d="m 86.970768,160.45419 c -2.866887,2.42644 -3.82755,5.44811 -3.228594,9.49125 -0.160651,-2.54181 0.173225,-4.47056 1.019576,-6.24019 -1.156807,3.17552 -0.487309,6.0402 -0.487309,6.0402 0,0 -0.417935,-2.96343 0.804086,-6.13683 -0.635594,2.02796 -0.427106,3.89821 -0.427106,3.89821 0,0 0.05566,-4.12462 2.319347,-7.05264 z" /><path
         style="color:#000000;opacity:1;fill:#a04336;fill-opacity:1;-inkscape-stroke:none"
         d="m 87.250479,160.40813 c 0,0 -1.622271,1.7337 -1.926955,3.88434 0.785437,-1.97509 1.926955,-3.88434 1.926955,-3.88434 z"
         id="path5185" /><path
         style="color:#000000;opacity:1;fill:#a04336;fill-opacity:1;-inkscape-stroke:none"
         d="m 87.730799,160.10457 c -0.711825,0.61952 -1.299489,2.16046 -1.299489,2.16046 0,0 0.851336,-1.33682 1.299489,-2.16046 z"
         id="path5187" /><path
         style="color:#000000;opacity:1;fill:#a04336;fill-opacity:1;-inkscape-stroke:none"
         d="m 86.804036,163.40202 c 0,0 0.425701,-1.41563 1.152258,-2.86935 -1.174526,1.22762 -1.152258,2.86935 -1.152258,2.86935 z"
         id="path5189" /><path
         style="color:#000000;opacity:1;fill:#a04336;fill-opacity:1;-inkscape-stroke:none"
         d="m 87.226331,175.7027 c 0,0 0.817429,0.0124 1.387227,-0.62598 -0.66388,0.29292 -0.993507,0.48769 -1.387227,0.62598 z"
         id="path5191" /><path
         style="color:#000000;opacity:1;fill:#a04336;fill-opacity:1;stroke-width:1;-inkscape-stroke:none"
         d="m 84.825348,176.6203 c 0,0 1.464445,0.98783 2.822503,0.18818 -1.312298,0.42142 -2.822503,-0.18818 -2.822503,-0.18818 z"
         id="path5193" /><path
         style="color:#000000;opacity:1;fill:#a04336;fill-opacity:1;stroke-width:1;-inkscape-stroke:none"
         d="m 84.621641,167.5965 c 0,0 -0.373562,0.91117 -0.0585,2.10338 -0.03955,-1.16243 0.0585,-2.10338 0.0585,-2.10338 z"
         id="path5058-3" /><path
         style="color:#000000;opacity:1;fill:#a04336;fill-opacity:1;stroke-width:1;-inkscape-stroke:none"
         d="m 83.605176,169.62632 c 0,0 -0.413448,0.89378 -0.151359,2.09874 0.01184,-1.16304 0.151359,-2.09874 0.151359,-2.09874 z"
         id="path5058-3-2" /><path
         style="color:#000000;opacity:1;fill:#a04336;fill-opacity:1;stroke-width:1;-inkscape-stroke:none"
         d="m 83.958016,168.14439 c 0.02056,1.14608 -0.100857,1.60562 -0.09647,2.67113 0.152172,-1.19183 0.256004,-1.37882 0.09647,-2.67113 z"
         id="path5270" /></g><g
       id="use5038"
       transform="matrix(-1,0,0,1,193.74194,0)"><path
         style="color:#000000;opacity:1;fill:#a04336;fill-opacity:1;-inkscape-stroke:none"
         d="m 90.65625,173.40915 c 0.323928,-1.18616 0.09961,-2.46778 -0.03125,-2.44531 0,0 0.08369,1.2792 0.03125,2.44531 z"
         id="path15031" /><path
         style="color:#000000;opacity:1;fill:#a04336;fill-opacity:1;-inkscape-stroke:none"
         d="m 88.875,168.50198 c 0.331499,0.73165 0.666391,1.45918 0.867187,2.48633 0.14564,0.96349 0.289753,1.95281 0.06738,2.93945 0.456208,-0.88185 0.356171,-2.127 0.192383,-2.99023 h 3e-6 c -0.20693,-1.05853 -0.553709,-1.81425 -0.884766,-2.54492 -0.331056,-0.73068 -0.846346,-1.84568 -1.104807,-3.63124 -0.06221,1.68542 0.531121,3.00896 0.86262,3.74061 z"
         id="path15033" /><path
         style="color:#000000;opacity:1;fill:#a04336;fill-opacity:1;-inkscape-stroke:none"
         d="m 89.605552,173.17385 c -0.01651,-1.77338 -0.781853,-3.52418 -1.7041,-5.10841 0.879662,2.52885 1.424196,3.28549 1.7041,5.10841 z"
         id="path15035" /><path
         style="color:#000000;opacity:1;fill:#a04336;fill-opacity:1;-inkscape-stroke:none"
         d="m 87.646484,162.84375 c -0.506158,1.48684 -0.469827,3.05138 0.201679,5.03698 -0.441769,-1.94409 -0.449151,-3.48972 0.04832,-4.95105 0.504106,-1.48081 0.78499,-2.60306 0.930853,-3.44178 0,0 -0.681325,1.88848 -1.180852,3.35585 z"
         id="path15037" /><path
         style="color:#000000;opacity:1;fill:#a04336;fill-opacity:1;-inkscape-stroke:none"
         d="m 87.349609,162.55861 c -0.661136,1.74154 -0.571178,3.02199 0.105469,5.44532 0.343538,1.07084 0.569654,1.88003 1.367187,3.02148 -0.452414,-0.93855 -0.864342,-2.2185 -1.111328,-3.09375 v -2e-5 c -0.671987,-2.40664 -0.756754,-3.58429 -0.113281,-5.2793 0.646803,-1.70376 0.780116,-2.62363 0.780116,-2.62363 0,0 -0.389058,0.84641 -1.028163,2.5299 z"
         id="path15039" /><path
         style="color:#000000;opacity:1;fill:#a04336;fill-opacity:1;-inkscape-stroke:none"
         d="m 88.11977,162.39005 c -0.618861,1.93699 -0.796666,3.56269 0.108749,5.73886 0.893395,2.14727 1.266239,3.12533 1.565429,4.02537 -0.04581,-0.98177 -0.42696,-1.97745 -1.321289,-4.12697 -0.882311,-2.12064 -0.700285,-3.69093 -0.08984,-5.60156 0.592626,-1.85487 0.832645,-2.40842 0.909176,-3.60057 -0.332685,1.12675 -0.577934,1.70479 -1.172225,3.56487 z"
         id="path15041" /><path
         style="color:#000000;opacity:1;fill:#a04336;fill-opacity:1;-inkscape-stroke:none"
         d="m 89.449219,159.70408 c -0.492414,0.805 -0.589151,2.45136 -0.589151,2.45136 0,0 0.409612,-1.53104 0.589151,-2.45136 z"
         id="path15043" /><path
         style="color:#000000;opacity:1;fill:#a04336;fill-opacity:1;-inkscape-stroke:none"
         d="m 89.542968,165.41115 c 0,0 -0.0654,-1.47681 0.140626,-3.08887 -0.703517,1.54649 -0.140626,3.08887 -0.140626,3.08887 z"
         id="path15045" /><path
         style="color:#000000;opacity:1;fill:#a04336;fill-opacity:1;-inkscape-stroke:none"
         d="m 90.59375,170.42967 c -0.144694,-1.37479 -1.023595,-2.60106 -1.023595,-2.60106 0,0 0.573631,1.63748 1.023595,2.60106 z"
         id="path15047" /><path
         style="color:#000000;opacity:1;fill:#a04336;fill-opacity:1;-inkscape-stroke:none"
         d="m 90.503906,169.30466 c 0.62166,1.4609 0.553099,1.9281 0.654297,2.58302 0.163923,-0.63097 0.220773,-1.19923 -0.412109,-2.68651 -0.623069,-1.46421 -1.296875,-3.209 -1.296875,-3.209 0,0 0.423213,1.82852 1.054687,3.31249 z"
         id="path15049" /><path
         style="color:#000000;opacity:1;fill:#a04336;fill-opacity:1;-inkscape-stroke:none"
         d="m 89.527344,167.5127 c -0.690711,-2.1807 -0.595704,-5.23731 -0.595704,-5.23731 0,0 -0.704057,2.56491 0.595704,5.23731 z"
         id="path15051" /><path
         style="color:#000000;opacity:1;fill:#a04336;fill-opacity:1;-inkscape-stroke:none"
         d="m 89.825195,159.79787 c 0,0 -0.826941,1.60002 -0.611328,3.29297 0.20262,-1.42503 0.611328,-3.29297 0.611328,-3.29297 z"
         id="path15053" /><path
         style="color:#000000;opacity:1;fill:#a04336;fill-opacity:1;-inkscape-stroke:none"
         d="m 89.533203,169.1387 c 1.19729,2.47133 0.542969,5.14943 0.542969,5.14943 0,0 0.944382,-2.68642 -0.304688,-5.26463 v -3e-5 c -1.213541,-2.50488 -1.487456,-4.66285 -1.106445,-6.68555 -0.653986,2.0232 -0.364654,4.25612 0.868164,6.80078 z"
         id="path15055" /><path
         style="color:#000000;opacity:1;fill:#a04336;fill-opacity:1;-inkscape-stroke:none"
         d="m 90.062595,175.43428 c 0,0 0.561239,-0.56228 0.510521,-1.77374 -0.205956,0.96192 -0.510521,1.77374 -0.510521,1.77374 z"
         id="path15057" /><path
         style="color:#000000;opacity:1;fill:#a04336;fill-opacity:1;-inkscape-stroke:none"
         d="m 89.252331,176.00035 c 0,0 0.733499,-0.35806 0.810579,-1.6416 -0.277759,0.74567 -0.810579,1.6416 -0.810579,1.6416 z"
         id="path15059" /><path
         style="color:#000000;opacity:1;fill:#a04336;fill-opacity:1;-inkscape-stroke:none"
         d="m 88.543914,176.16642 c 0,0 0.824134,-0.33826 0.819587,-1.23018 -0.181966,0.40546 -0.819587,1.23018 -0.819587,1.23018 z"
         id="path15061" /><path
         style="color:#000000;opacity:1;fill:#a04336;fill-opacity:1;-inkscape-stroke:none"
         d="m 83.409622,171.83124 c -0.123864,1.23864 0.02124,2.33168 0.233079,3.05302 0.211858,0.7214 0.603384,1.4673 1.607297,1.67043 -0.814634,-0.41784 -1.077324,-0.98016 -1.373061,-1.77269 -0.295738,-0.79252 -0.419667,-1.80721 -0.467315,-2.95076 z"
         id="path15063" /><path
         style="color:#000000;opacity:1;fill:#a04336;fill-opacity:1;-inkscape-stroke:none"
         d="m 83.304687,175.10547 c 0.262507,0.90165 0.768832,1.62103 1.462891,2.0293 0.694059,0.40827 1.570885,0.49766 2.499999,0.041 -0.955965,0.18649 -1.741693,0.0984 -2.367188,-0.26953 -0.625496,-0.36794 -1.094221,-1.02463 -1.341797,-1.875 -0.50171,-1.72326 -0.342929,-3.3605 -0.315429,-4.73047 -0.291668,1.34295 -0.456924,3.02393 0.06152,4.80469 z"
         id="path15065" /><path
         style="color:#000000;opacity:1;fill:#a04336;fill-opacity:1;-inkscape-stroke:none"
         d="m 86.115234,176.08886 c 0,0 1.895154,0.47304 2.938539,-0.95347 -0.974757,0.9354 -2.938539,0.95347 -2.938539,0.95347 z"
         id="path15067" /><path
         style="color:#000000;opacity:1;fill:#a04336;fill-opacity:1;-inkscape-stroke:none"
         d="m 84.195312,174.7833 c 0.377816,0.98461 1.037674,1.58054 1.806641,1.8086 0.768967,0.22806 1.636306,0.0931 2.375,-0.45801 -0.813724,0.29159 -1.609632,0.41045 -2.298828,0.20605 -0.689196,-0.2044 -1.28268,-0.72774 -1.636719,-1.65039 -0.72062,-1.87799 -0.821509,-4.156 -0.821509,-4.156 0,0 -0.167666,2.31323 0.575415,4.24975 z"
         id="path15069" /><path
         style="color:#000000;opacity:1;fill:#a04336;fill-opacity:1;-inkscape-stroke:none"
         d="m 84.496094,170.16799 c 0,0 -0.286366,1.78309 0.46582,3.34766 -0.323403,-1.21867 -0.46582,-3.34766 -0.46582,-3.34766 z"
         id="path15071" /><path
         style="color:#000000;opacity:1;fill:#a04336;fill-opacity:1;-inkscape-stroke:none"
         d="m 85.0293,174.77758 c -0.374443,-0.61367 -0.610813,-1.77776 -0.740235,-2.77734 -0.129421,-0.99958 -0.23655,-2.08805 -0.23655,-2.08805 0,0 -0.156331,1.10823 -0.02517,2.12125 0.131162,1.01302 0.3534,2.18802 0.777343,2.88282 0.421961,0.69154 1.035034,0.9031 1.525391,0.92968 0.490357,0.0266 0.82715,-0.24512 0.82715,-0.24512 0,0 -0.38347,0.0715 -0.813475,0.0481 -0.430006,-0.0234 -0.938027,-0.25442 -1.314454,-0.87135 z"
         id="path15073" /><path
         id="path15075"
         style="color:#000000;opacity:1;fill:#a04336;fill-opacity:1;-inkscape-stroke:none"
         d="m 86.970768,160.45419 c -2.866887,2.42644 -3.82755,5.44811 -3.228594,9.49125 -0.160651,-2.54181 0.173225,-4.47056 1.019576,-6.24019 -1.156807,3.17552 -0.487309,6.0402 -0.487309,6.0402 0,0 -0.417935,-2.96343 0.804086,-6.13683 -0.635594,2.02796 -0.427106,3.89821 -0.427106,3.89821 0,0 0.05566,-4.12462 2.319347,-7.05264 z" /><path
         style="color:#000000;opacity:1;fill:#a04336;fill-opacity:1;-inkscape-stroke:none"
         d="m 87.250479,160.40813 c 0,0 -1.622271,1.7337 -1.926955,3.88434 0.785437,-1.97509 1.926955,-3.88434 1.926955,-3.88434 z"
         id="path15077" /><path
         style="color:#000000;opacity:1;fill:#a04336;fill-opacity:1;-inkscape-stroke:none"
         d="m 87.730799,160.10457 c -0.711825,0.61952 -1.299489,2.16046 -1.299489,2.16046 0,0 0.851336,-1.33682 1.299489,-2.16046 z"
         id="path15079" /><path
         style="color:#000000;opacity:1;fill:#a04336;fill-opacity:1;-inkscape-stroke:none"
         d="m 86.804036,163.40202 c 0,0 0.425701,-1.41563 1.152258,-2.86935 -1.174526,1.22762 -1.152258,2.86935 -1.152258,2.86935 z"
         id="path15081" /><path
         style="color:#000000;opacity:1;fill:#a04336;fill-opacity:1;-inkscape-stroke:none"
         d="m 87.226331,175.7027 c 0,0 0.817429,0.0124 1.387227,-0.62598 -0.66388,0.29292 -0.993507,0.48769 -1.387227,0.62598 z"
         id="path15083" /><path
         style="color:#000000;opacity:1;fill:#a04336;fill-opacity:1;stroke-width:1;-inkscape-stroke:none"
         d="m 84.825348,176.6203 c 0,0 1.464445,0.98783 2.822503,0.18818 -1.312298,0.42142 -2.822503,-0.18818 -2.822503,-0.18818 z"
         id="path15085" /><path
         style="color:#000000;opacity:1;fill:#a04336;fill-opacity:1;stroke-width:1;-inkscape-stroke:none"
         d="m 84.621641,167.5965 c 0,0 -0.373562,0.91117 -0.0585,2.10338 -0.03955,-1.16243 0.0585,-2.10338 0.0585,-2.10338 z"
         id="path15087" /><path
         style="color:#000000;opacity:1;fill:#a04336;fill-opacity:1;stroke-width:1;-inkscape-stroke:none"
         d="m 83.605176,169.62632 c 0,0 -0.413448,0.89378 -0.151359,2.09874 0.01184,-1.16304 0.151359,-2.09874 0.151359,-2.09874 z"
         id="path15089" /><path
         style="color:#000000;opacity:1;fill:#a04336;fill-opacity:1;stroke-width:1;-inkscape-stroke:none"
         d="m 83.958016,168.14439 c 0.02056,1.14608 -0.100857,1.60562 -0.09647,2.67113 0.152172,-1.19183 0.256004,-1.37882 0.09647,-2.67113 z"
         id="path15091" /></g></g><g
     id="g14015"
     transform="translate(-30.725128,-56.659272)" /></svg>
