<?xml version="1.0" encoding="UTF-8" standalone="no"?>
<svg
   xmlns:dc="http://purl.org/dc/elements/1.1/"
   xmlns:cc="http://creativecommons.org/ns#"
   xmlns:rdf="http://www.w3.org/1999/02/22-rdf-syntax-ns#"
   xmlns:svg="http://www.w3.org/2000/svg"
   xmlns="http://www.w3.org/2000/svg"
   width="500"
   height="566.99994"
   viewBox="0 0 132.29166 150.01874"
   version="1.1"
   id="svg847">
  <defs
     id="defs841" />
  <metadata
     id="metadata844">
    <rdf:RDF>
      <cc:Work
         rdf:about="">
        <dc:format>image/svg+xml</dc:format>
        <dc:type
           rdf:resource="http://purl.org/dc/dcmitype/StillImage" />
        <dc:title></dc:title>
      </cc:Work>
    </rdf:RDF>
  </metadata>
  <g
     id="layer1"
     transform="translate(-34.773586,-48.30351)">
    <path
       id="circle848"
       style="opacity:1;fill:#cccccc;stroke:none;stroke-width:0.264583;stroke-miterlimit:10;stroke-dasharray:none"
       d="m 167.06525,48.30351 v 83.87291 c 0,36.53134 -29.6145,66.14583 -66.14583,66.14583 -36.531334,0 -66.145834,-29.6145 -66.145834,-66.14583 V 48.30351 Z" />
    <path
       id="path1826"
       style="font-variation-settings:normal;opacity:1;vector-effect:none;fill:#e40c0c;fill-opacity:1;stroke:none;stroke-width:0.264583;stroke-linecap:butt;stroke-linejoin:miter;stroke-miterlimit:10;stroke-dasharray:none;stroke-dashoffset:0;stroke-opacity:1;stop-color:#000000;stop-opacity:1"
       d="m 103.65989,183.57358 c 0.16397,-9.0648 10.34964,-14.4565 19.17469,-13.93145 8.82505,0.52505 12.65425,2.15404 19.04372,5.88123 3.82045,-4.779 6.09087,-7.05718 8.98107,-13.56042 -6.83537,-4.58633 -9.08294,-7.67545 -10.91413,-13.4657 -1.8312,-5.79024 1.1337,-9.92165 1.70067,-20.26875 0.56693,-10.3471 -4.37944,-19.03103 0.076,-29.127711 3.75925,-8.519104 9.96411,-11.750556 16.04953,-16.513056 -3.8032,-5.574561 -6.66529,-9.821251 -9.92167,-14.816666 -8.4386,6.250807 -13.48993,9.737521 -21.93701,9.126632 -8.44707,-0.610891 -11.58467,-9.797541 -10.73423,-15.608924 0,0 -6.65209,-1.949982 -14.25907,-7.93905 -7.606984,5.989068 -14.259074,7.93905 -14.259074,7.93905 0.85044,5.811383 -2.28716,14.998033 -10.73423,15.608924 -8.44708,0.610889 -13.49841,-2.875825 -21.93701,-9.126632 -3.25638,4.995415 -6.11847,9.242105 -9.92167,14.816666 6.08542,4.7625 11.76111,7.993952 15.52036,16.513056 4.4554,10.096681 0.0382,18.780611 0.60513,29.127711 0.56697,10.3471 3.39013,16.60463 1.55893,22.39487 -1.83119,5.79025 -4.57485,7.93582 -10.77239,11.33958 2.8902,6.50324 5.16062,8.78142 8.98107,13.56042 6.38947,-3.72719 10.21867,-5.35618 19.04372,-5.88123 8.82505,-0.52505 19.01072,4.86665 19.17469,13.93145 z" />
    <g
       id="g1683"
       transform="translate(-0.793744,-0.93453937)">
      <path
         id="path894"
         style="color:#000000;font-style:normal;font-variant:normal;font-weight:normal;font-stretch:normal;font-size:medium;line-height:normal;font-family:sans-serif;font-variant-ligatures:normal;font-variant-position:normal;font-variant-caps:normal;font-variant-numeric:normal;font-variant-alternates:normal;font-variant-east-asian:normal;font-feature-settings:normal;font-variation-settings:normal;text-indent:0;text-align:start;text-decoration:none;text-decoration-line:none;text-decoration-style:solid;text-decoration-color:#000000;letter-spacing:normal;word-spacing:normal;text-transform:none;writing-mode:lr-tb;direction:ltr;text-orientation:mixed;dominant-baseline:auto;baseline-shift:baseline;text-anchor:start;white-space:normal;shape-padding:0;shape-margin:0;inline-size:0;clip-rule:nonzero;display:inline;overflow:visible;visibility:visible;opacity:1;isolation:auto;mix-blend-mode:normal;color-interpolation:sRGB;color-interpolation-filters:linearRGB;solid-color:#000000;solid-opacity:1;vector-effect:none;fill:#900909;fill-opacity:1;fill-rule:nonzero;stroke:none;stroke-linecap:butt;stroke-linejoin:miter;stroke-miterlimit:10;stroke-dasharray:none;stroke-dashoffset:0;stroke-opacity:1;color-rendering:auto;image-rendering:auto;shape-rendering:auto;text-rendering:auto;enable-background:accumulate;stop-color:#000000;stop-opacity:1"
         d="m 374.77539,626.69531 v 6 h 25.30469 v -21.60547 l 14.15039,-14.15039 v -35.60156 l 72.75781,-61.5 3.02149,-36.01953 -5.97852,-0.50195 -69.80078,32.90429 v -39.26172 l 76.54687,-64.70117 3.01954,-36.02148 -5.97852,-0.50195 -73.58789,36.10742 v -63.3711 l -6,-6 -41.60547,82.29883 -82.77539,-15.49023 0.70898,8.45508 78.19336,66.09374 3.87305,45.32032 -78.98828,-12.28711 0.70898,8.45117 100.40625,84.87196 z"
         transform="scale(0.26458333)" />
      <path
         id="path858"
         style="font-variation-settings:normal;opacity:1;vector-effect:none;fill:#bf9f4f;fill-opacity:1;stroke:none;stroke-width:0.264583;stroke-linecap:butt;stroke-linejoin:miter;stroke-miterlimit:10;stroke-dasharray:none;stroke-dashoffset:0;stroke-opacity:1;stop-color:#000000;stop-opacity:1"
         d="m 101.71317,80.080899 -5.753376,6.033223 v 18.883598 l -13.52038,-10.531412 -7.28793,0.61104 1.66502,9.368992 18.59886,15.72048 0.8188,12.45698 -11.70936,-9.89789 -8.10673,0.91822 1.40095,9.2661 17.59634,14.87351 0.71896,9.19678 3.866256,3.66581 0.74624,5.1668 h 3.5202 v -4.78627 l 3.74396,-3.74396 v -9.49916 l 19.31097,-16.32303 0.61185,-7.2931 -8.21346,-1.26814 -11.70936,8.39226 v -11.12491 l 20.31349,-17.17001 0.61133,-7.293609 -8.21345,-1.267621 -12.71137,9.23923 V 87.565197 Z" />
      <path
         id="path909"
         style="color:#000000;font-style:normal;font-variant:normal;font-weight:normal;font-stretch:normal;font-size:medium;line-height:normal;font-family:sans-serif;font-variant-ligatures:normal;font-variant-position:normal;font-variant-caps:normal;font-variant-numeric:normal;font-variant-alternates:normal;font-variant-east-asian:normal;font-feature-settings:normal;font-variation-settings:normal;text-indent:0;text-align:start;text-decoration:none;text-decoration-line:none;text-decoration-style:solid;text-decoration-color:#000000;letter-spacing:normal;word-spacing:normal;text-transform:none;writing-mode:lr-tb;direction:ltr;text-orientation:mixed;dominant-baseline:auto;baseline-shift:baseline;text-anchor:start;white-space:normal;shape-padding:0;shape-margin:0;inline-size:0;clip-rule:nonzero;display:inline;overflow:visible;visibility:visible;opacity:1;isolation:auto;mix-blend-mode:normal;color-interpolation:sRGB;color-interpolation-filters:linearRGB;solid-color:#000000;solid-opacity:1;vector-effect:none;fill:#ffffff;fill-opacity:1;fill-rule:nonzero;stroke:none;stroke-width:0.264583;stroke-linecap:butt;stroke-linejoin:miter;stroke-miterlimit:10;stroke-dasharray:none;stroke-dashoffset:0;stroke-opacity:1;color-rendering:auto;image-rendering:auto;shape-rendering:auto;text-rendering:auto;enable-background:accumulate;stop-color:#000000;stop-opacity:1"
         d="m 101.71317,79.022566 -6.297806,6.297806 v 18.354438 l -12.1822,-10.297564 -8.87543,0.744141 0.74414,8.875423 1.71463,1.44953 -0.74414,-8.875431 6.63835,-0.556553 14.29215,12.080914 V 85.977697 l 4.710306,-4.710308 6.29781,6.297808 v -2.244825 z m 18.48001,14.35468 -12.1822,10.297564 v 2.07894 l 12.70465,-10.739394 8.22017,0.688845 0.13281,-1.581814 z M 95.415364,120.16734 v 11.12439 l -11.18019,-9.45059 -8.87543,0.74466 0.74466,8.87491 1.71462,1.44952 -0.74466,-8.87542 6.63836,-0.55656 13.29014,11.23394 v -13.20281 z m 23.775816,1.6738 -11.1802,9.45059 v 2.07842 l 11.70265,-9.8919 8.22017,0.68936 0.1328,-1.58181 z m -23.775816,25.9426 v 9.49916 l 3.74396,3.74396 v 4.78627 h 1.587496 v -5.44359 l -3.743956,-3.74396 v -7.4998 z" />
    </g>
    <path
       id="path1703-0"
       style="color:#000000;font-style:normal;font-variant:normal;font-weight:normal;font-stretch:normal;font-size:medium;line-height:normal;font-family:sans-serif;font-variant-ligatures:normal;font-variant-position:normal;font-variant-caps:normal;font-variant-numeric:normal;font-variant-alternates:normal;font-variant-east-asian:normal;font-feature-settings:normal;font-variation-settings:normal;text-indent:0;text-align:start;text-decoration:none;text-decoration-line:none;text-decoration-style:solid;text-decoration-color:#000000;letter-spacing:normal;word-spacing:normal;text-transform:none;writing-mode:lr-tb;direction:ltr;text-orientation:mixed;dominant-baseline:auto;baseline-shift:baseline;text-anchor:start;white-space:normal;shape-padding:0;shape-margin:0;inline-size:0;clip-rule:nonzero;display:inline;overflow:visible;visibility:visible;opacity:1;isolation:auto;mix-blend-mode:normal;color-interpolation:sRGB;color-interpolation-filters:linearRGB;solid-color:#000000;solid-opacity:1;vector-effect:none;fill:#900909;fill-opacity:1;fill-rule:nonzero;stroke:none;stroke-width:1;stroke-linecap:butt;stroke-linejoin:miter;stroke-miterlimit:10;stroke-dasharray:none;stroke-dashoffset:0;stroke-opacity:1;color-rendering:auto;image-rendering:auto;shape-rendering:auto;text-rendering:auto;enable-background:accumulate;stop-color:#000000;stop-opacity:1"
       d="m 114.17339,60.154983 c -0.34836,3.629247 0.29523,7.897244 2.14509,11.290268 1.00255,1.838892 2.3974,3.442669 4.28294,4.36149 1.56376,0.762018 3.43356,0.983295 5.43171,0.551389 -0.0405,-0.0027 -0.0798,-0.0038 -0.12041,-0.0067 -8.18248,-0.591756 -11.05551,-9.780431 -10.20506,-15.591813 0,0 -0.56987,-0.199483 -1.53427,-0.604615 z m 26.48055,89.476197 c -1.83118,-5.79025 1.13372,-10.20514 1.70068,-20.55224 0.56697,-10.3471 -2.9762,-18.85149 -0.85008,-27.35595 2.12611,-8.504475 10.63029,-14.032589 17.15037,-19.135267 -4.07485,-5.972744 -7.14138,-10.52277 -10.63036,-15.875 -0.42266,0.313085 -0.79517,0.583991 -1.20044,0.883151 2.98021,4.566578 6.31919,9.656746 9.68933,14.63063 -6.30903,4.824129 -14.35175,10.323054 -16.54886,19.111496 -2.28716,9.14864 1.34972,17.71525 0.80512,27.65413 -0.269,4.90927 -1.81458,9.57477 -2.18953,14.303 -0.37496,4.72823 0.58274,10.38516 6.13916,13.37593 -1.84859,-1.863 -3.14437,-4.12762 -4.06539,-7.03988 z M 44.108936,81.227598 c -0.31399,0.461002 -0.59883,0.882031 -0.92501,1.360125 6.18736,4.842283 14.15741,10.06983 16.7721,17.858337 -0.46761,-3.922778 -2.93988,-7.509927 -5.88956,-10.63759 -3.14501,-3.33478 -6.90357,-6.224167 -9.95753,-8.580872 z m 7.20214,79.368282 c -0.47178,0.22376 -0.95542,0.44419 -1.46554,0.65836 2.89021,6.50324 6.43629,10.76579 10.25674,15.54479 6.38947,-3.72719 10.78564,-5.92315 19.61069,-6.44819 4.2778,-0.25451 8.4563,0.51902 11.72073,2.58951 -3.52183,-3.38354 -8.47267,-4.37378 -11.81478,-4.17494 -8.44251,0.5023 -13.24939,2.65249 -19.06602,5.97276 -3.25161,-4.13379 -6.68547,-8.89293 -9.24182,-14.14229 z m 99.383604,0.0806 c -2.55908,5.31455 -6.05617,9.87408 -9.3922,14.06942 -5.82366,-3.3254 -10.63203,-5.47778 -19.08203,-5.98051 -4.67097,-0.2779 -9.32418,0.57836 -13.00955,3.05304 -3.34671,2.24727 -5.70296,5.94933 -6.44715,10.87686 h -5.198644 c 0.081,0.51257 0.14722,1.03854 0.18862,1.58698 h 6.331394 c 0.8018,-10.62396 9.21571,-14.4565 18.04076,-13.93145 8.82505,0.52504 13.22122,2.721 19.61069,6.44819 3.82045,-4.779 7.36652,-9.04155 10.25673,-15.54479 -0.4493,-0.18864 -0.87913,-0.38177 -1.29862,-0.57774 z" />
    <path
       id="path1703"
       style="color:#000000;font-style:normal;font-variant:normal;font-weight:normal;font-stretch:normal;font-size:medium;line-height:normal;font-family:sans-serif;font-variant-ligatures:normal;font-variant-position:normal;font-variant-caps:normal;font-variant-numeric:normal;font-variant-alternates:normal;font-variant-east-asian:normal;font-feature-settings:normal;font-variation-settings:normal;text-indent:0;text-align:start;text-decoration:none;text-decoration-line:none;text-decoration-style:solid;text-decoration-color:#000000;letter-spacing:normal;word-spacing:normal;text-transform:none;writing-mode:lr-tb;direction:ltr;text-orientation:mixed;dominant-baseline:auto;baseline-shift:baseline;text-anchor:start;white-space:normal;shape-padding:0;shape-margin:0;inline-size:0;clip-rule:nonzero;display:inline;overflow:visible;visibility:visible;opacity:1;isolation:auto;mix-blend-mode:normal;color-interpolation:sRGB;color-interpolation-filters:linearRGB;solid-color:#000000;solid-opacity:1;vector-effect:none;fill:#ffffff;fill-opacity:1;fill-rule:nonzero;stroke:none;stroke-width:0.264583;stroke-linecap:butt;stroke-linejoin:miter;stroke-miterlimit:10;stroke-dasharray:none;stroke-dashoffset:0;stroke-opacity:1;color-rendering:auto;image-rendering:auto;shape-rendering:auto;text-rendering:auto;enable-background:accumulate;stop-color:#000000;stop-opacity:1"
       d="m 100.91942,52.291382 c -7.606984,5.989068 -14.788244,8.468217 -14.788244,8.468217 0.85045,5.811382 -2.02257,15.000057 -10.20506,15.591813 -8.18249,0.591754 -13.07048,-2.941394 -22.11183,-9.638689 -3.48898,5.35223 -6.5555,9.902256 -10.63036,15.875 l 1.31155,0.894519 c 3.72293,-5.45692 6.58692,-9.734433 9.7224,-14.520044 3.84721,2.83919 7.09814,5.178308 10.27844,6.729822 3.57048,1.741853 7.20388,2.556669 11.54452,2.242757 4.66752,-0.337553 7.9607,-3.234931 9.77925,-6.680729 1.59054,-3.013777 2.15596,-6.425793 1.96422,-9.433534 2.16702,-0.872225 7.40782,-3.243664 13.135114,-7.556643 5.80592,4.372187 12.12545,7.107672 14.65285,8.111649 0.0158,-0.559252 0.0601,-1.10132 0.13539,-1.615921 0,0 -7.18126,-2.479149 -14.78824,-8.468217 z m 47.10513,14.421341 c -9.04135,6.697295 -13.92933,10.230443 -22.11182,9.638689 -2.03854,-0.147428 -3.74714,-0.828834 -5.15111,-1.858285 1.34373,1.799688 3.78953,2.84276 5.81308,3.039091 2.39276,0.232148 4.90466,-0.227811 7.44761,-1.086238 5.05948,-1.707939 10.29998,-5.021953 14.87454,-8.404657 -0.29199,-0.445714 -0.57505,-0.872617 -0.8723,-1.3286 z M 58.649646,97.475187 c 0.7294,1.332719 1.3084,2.742793 1.68466,4.247803 2.12611,8.50446 -1.41705,17.00885 -0.85008,27.35595 0.56696,10.3471 3.53186,14.76199 1.70067,20.55224 -1.83119,5.79025 -5.14182,9.02111 -11.33936,11.62306 0.20533,0.462 0.41451,0.90993 0.62632,1.3503 6.12666,-2.69399 10.3402,-6.52989 12.22664,-12.49484 1.03005,-3.25703 0.63414,-6.17507 0.0145,-9.34672 -0.61967,-3.17164 -1.46943,-6.71481 -1.64228,-11.73882 -0.17108,-4.97286 0.68361,-10.46091 0.9493,-15.8166 0.25558,-5.1518 0.61477,-10.46151 -3.37034,-15.732373 z m 83.814524,56.279763 c 0.36894,1.41993 0.9251,2.68931 1.72754,3.82458 1.43618,2.03183 3.92869,3.63383 7.16442,5.0462 0.21539,-0.44726 0.42848,-0.90191 0.63717,-1.37149 -4.5437,-1.90761 -7.53423,-4.15485 -9.52913,-7.49929 z m -54.711904,17.49041 c 5.35473,1.69556 9.45386,5.78123 10.00146,13.03693 h 1.50585 c -0.52352,-5.86274 -2.99468,-9.66301 -6.46317,-11.4546 -1.52571,-0.78807 -3.21722,-1.28622 -5.04414,-1.58233 z" />
  </g>
</svg>
