<?xml version="1.0" encoding="UTF-8" standalone="no"?>
<svg
   xmlns:dc="http://purl.org/dc/elements/1.1/"
   xmlns:cc="http://creativecommons.org/ns#"
   xmlns:rdf="http://www.w3.org/1999/02/22-rdf-syntax-ns#"
   xmlns:svg="http://www.w3.org/2000/svg"
   xmlns="http://www.w3.org/2000/svg"
   xmlns:sodipodi="http://sodipodi.sourceforge.net/DTD/sodipodi-0.dtd"
   xmlns:inkscape="http://www.inkscape.org/namespaces/inkscape"
   inkscape:version="1.0 (4035a4fb49, 2020-05-01)"
   sodipodi:docname="juva.svg"
   id="svg8"
   version="1.1"
   viewBox="0 0 132.29166 151.60625"
   height="573"
   width="500">
  <defs
     id="defs2" />
  <sodipodi:namedview
     inkscape:object-nodes="true"
     inkscape:showpageshadow="false"
     inkscape:window-maximized="1"
     inkscape:window-y="-8"
     inkscape:window-x="-8"
     inkscape:window-height="1017"
     inkscape:window-width="1920"
     units="px"
     showgrid="false"
     inkscape:document-rotation="0"
     inkscape:current-layer="g2996"
     inkscape:document-units="px"
     inkscape:cy="232.44259"
     inkscape:cx="211.23503"
     inkscape:zoom="0.64593752"
     inkscape:pageshadow="2"
     inkscape:pageopacity="0.0"
     borderopacity="1.0"
     bordercolor="#666666"
     pagecolor="#ffffff"
     id="base"
     inkscape:snap-others="false"
     inkscape:lockguides="true" />
  <metadata
     id="metadata5">
    <rdf:RDF>
      <cc:Work
         rdf:about="">
        <dc:format>image/svg+xml</dc:format>
        <dc:type
           rdf:resource="http://purl.org/dc/dcmitype/StillImage" />
        <dc:title></dc:title>
      </cc:Work>
    </rdf:RDF>
  </metadata>
  <g
     transform="translate(-9.933075,-21.094836)"
     id="layer1"
     inkscape:groupmode="layer"
     inkscape:label="Шар 1">
    <g
       style="stroke-width:1.10408"
       transform="matrix(0.90541461,0,0,0.90605111,0.93952379,1.9818365)"
       id="g2996">
      <path
         style="font-variation-settings:normal;opacity:1;vector-effect:none;fill:#000000;fill-opacity:1;fill-rule:evenodd;stroke:none;stroke-width:0.29212;stroke-linecap:butt;stroke-linejoin:miter;stroke-miterlimit:4;stroke-dasharray:none;stroke-dashoffset:0;stroke-opacity:1;marker:none;marker-start:none;marker-mid:none;marker-end:none;stop-color:#000000;stop-opacity:1"
         d="M 156.04477,21.094984 V 122.08281 c 0,28.04123 -27.85358,66.3384 -73.055847,66.3384 -45.202268,0 -73.055848,-38.29717 -73.055848,-66.3384 V 21.094984 Z"
         id="path2913"
         sodipodi:nodetypes="cszscc" />
      <path
         id="path2917"
         style="font-variation-settings:normal;opacity:1;vector-effect:none;fill:#bf9f4f;fill-opacity:1;fill-rule:evenodd;stroke:none;stroke-width:1.10408;stroke-linecap:butt;stroke-linejoin:miter;stroke-miterlimit:4;stroke-dasharray:none;stroke-dashoffset:0;stroke-opacity:1;marker:none;marker-start:none;marker-mid:none;marker-end:none;stop-color:#000000;stop-opacity:1"
         d="M 226.81641,79.728516 V 287.72852 H 37.542969 v 173.6875 H 226.81641 v 237.32617 c 26.59971,8.54839 55.61993,13.40039 86.84179,13.40039 31.22235,0 60.24371,-4.85176 86.84375,-13.40039 V 461.41602 H 589.77539 V 287.72852 H 400.50195 V 79.728516 Z"
         transform="scale(0.26458333)" />
      <path
         id="path2927"
         style="font-variation-settings:normal;opacity:1;vector-effect:none;fill:#ffffff;fill-opacity:1;fill-rule:evenodd;stroke:none;stroke-width:1.10408;stroke-linecap:butt;stroke-linejoin:miter;stroke-miterlimit:4;stroke-dasharray:none;stroke-dashoffset:0;stroke-opacity:1;marker:none;marker-start:none;marker-mid:none;marker-end:none;stop-color:#000000;stop-opacity:1"
         d="M 226.81641,79.728516 V 287.72852 H 37.542969 v 4 H 230.81641 V 79.728516 Z M 400.50195,287.72852 v 4 h 189.27344 v -4 z m -173.68554,173.6875 v 237.32617 c 1.32576,0.42606 2.66223,0.83463 4,1.24219 V 461.41602 Z"
         transform="scale(0.26458333)" />
      <path
         style="font-variation-settings:normal;opacity:1;vector-effect:none;fill:#bf9f4f;fill-opacity:1;fill-rule:evenodd;stroke:none;stroke-width:0.29212;stroke-linecap:butt;stroke-linejoin:miter;stroke-miterlimit:4;stroke-dasharray:none;stroke-dashoffset:0;stroke-opacity:1;marker:none;marker-start:none;marker-mid:none;marker-end:none;stop-color:#000000;stop-opacity:1"
         d="m 43.723836,57.181903 c 2.522714,4.611013 6.650204,7.364839 11.050966,3.887449 4.400761,-3.477387 1.059629,-10.999646 1.059629,-10.999646 0,0 3.888553,-7.254426 -0.242849,-11.0479 -4.131403,-3.793475 -7.876282,-1.399949 -10.561913,2.747183 -2.685632,4.147133 -4.609661,3.947669 -5.262818,3.269867 -0.653157,-0.677802 -1.038791,-3.064884 3.475668,-5.756572 4.514459,-2.691688 7.113594,-6.918298 3.475668,-11.187306 -3.637925,-4.269008 -11.031336,-0.651686 -11.031336,-0.651686 0,0 -7.39341,-3.617322 -11.031335,0.651686 -3.637926,4.269008 -1.038791,8.495618 3.475668,11.187306 4.514459,2.691688 4.128825,5.07877 3.475668,5.756572 -0.653157,0.677802 -2.577186,0.877266 -5.262818,-3.269867 -2.685631,-4.147132 -6.43051,-6.540658 -10.561913,-2.747183 -4.131402,3.793474 -0.242849,11.0479 -0.242849,11.0479 0,0 -3.341132,7.522259 1.059629,10.999646 4.400762,3.47739 8.528252,0.723564 11.050966,-3.887449 2.522713,-4.611013 5.480431,-2.826434 5.09642,-1.092826 -0.384011,1.733608 -0.815476,3.291743 0.803065,7.828926 1.618541,4.537182 1.026124,7.276335 0.90299,7.985823 -0.123134,0.709488 0.470223,1.119614 1.208239,0.526941 0.738016,-0.592672 3.822151,-3.588739 2.894086,-8.314169 -0.928065,-4.72543 -0.73712,-7.096112 -0.311262,-8.104324 0.425858,-1.008211 2.957718,-3.441384 5.480431,1.169629 z"
         id="path2936"
         sodipodi:nodetypes="zzczzzzzczzzzzczzzzzzzzz" />
      <path
         id="path2940"
         style="font-variation-settings:normal;opacity:1;vector-effect:none;fill:#ffffff;fill-opacity:1;fill-rule:evenodd;stroke:none;stroke-width:1.10408;stroke-linecap:butt;stroke-linejoin:miter;stroke-miterlimit:4;stroke-dasharray:none;stroke-dashoffset:0;stroke-opacity:1;marker:none;marker-start:none;marker-mid:none;marker-end:none;stop-color:#000000;stop-opacity:1"
         d="m 112.41992,98.316406 c -6.92607,-0.03974 -14.078259,1.818574 -19.234373,7.869144 -6.855895,8.0452 -7.848735,16.0502 -5.007813,23.3164 -0.768787,-6.15544 1.388582,-12.72239 7.007813,-19.3164 13.749633,-16.134836 41.693363,-2.46289 41.693363,-2.46289 0,0 27.94372,-13.671946 41.69336,2.46289 1.4521,1.704 2.5688,3.4493 3.41601,5.21679 -1.01851,-3.04023 -2.78137,-6.1251 -5.41601,-9.21679 -13.74964,-16.134836 -41.69336,-2.46289 -41.69336,-2.46289 0,0 -10.91554,-5.340021 -22.45899,-5.406254 z M 75.130859,140.30664 c -4.919047,0.0829 -10.114851,2.2492 -15.482421,7.17774 -15.614748,14.33753 -0.917969,41.75585 -0.917969,41.75585 0,0 -12.387202,27.91948 3.58789,41.21094 -10.151588,-14.81416 0.41211,-41.21094 0.41211,-41.21094 0,0 -15.69678,-24.33652 -1.082031,-37.75585 12.114937,-11.124 25.163012,-7.99843 35.054687,2.32226 -6.140312,-8.10969 -13.477411,-13.63636 -21.572266,-13.5 z m 119.498051,0 c -9.39091,-0.15819 -17.77629,7.27435 -24.4375,17.56055 -10.15042,15.6742 -17.422,14.92114 -19.89063,12.35937 -0.5934,-0.61579 -1.1221,-1.61373 -1.35547,-2.90234 -0.92211,3.46711 1.55446,5.72458 3.35547,6.90234 3.28965,2.15126 9.74021,3.31483 19.89063,-12.35937 10.15041,-15.6742 24.30321,-24.72036 39.91797,-10.38281 1.31402,1.20654 2.4253,2.49239 3.38476,3.82812 -1.12994,-2.83727 -2.85502,-5.5053 -5.38476,-7.82812 -5.36758,-4.92854 -10.56143,-7.09488 -15.48047,-7.17774 z m -75.76563,19.24024 c 3.20316,5.15416 2.09933,9.11932 0.5957,10.67968 -1.92486,1.99749 -6.7798,2.85631 -13.63281,-4.27539 8.17728,10.73106 13.45578,10.53457 15.63281,8.27539 1.87367,-1.94436 4.80949,-7.61348 -2.5957,-14.67968 z m 2.0586,44.78124 c -0.79941,0.046 -1.65224,0.29361 -2.54297,0.75196 3.73178,0.38922 6.10427,3.67077 5.38671,6.91015 -1.45138,6.55222 -3.08216,12.44144 3.03516,29.58985 6.11732,17.1484 3.8775,27.50011 3.41211,30.18164 -0.32322,1.86239 0.66136,3.17648 2.22656,3.05664 0.93257,-3.65606 4.00215,-13.57347 -1.58593,-29.23828 -6.11732,-17.14841 -6.35134,-21.62676 -3.85743,-30 1.5587,-5.23328 -1.34728,-11.52423 -6.07421,-11.25196 z"
         transform="scale(0.26458333)" />
      <path
         d="m 151.17499,22.125998 c -2.18363,-0.07915 -4.75066,3.476554 -4.80528,5.230271 -1.96596,-3.401684 -5.82144,-4.94814 -10.07434,-5.179839 1.70844,3.978116 7.67121,3.788551 10.28336,7.07717 0.24967,1.216301 -0.39695,0.800954 0.34293,2.843195 -2.46781,-2.00125 -5.42697,-3.31497 -8.44339,-4.000312 -1.73058,-4.82185 -10.35989,-5.087453 -14.82991,-5.456088 4.79936,6.680716 11.71556,2.311538 13.02156,5.120444 -1.15071,-0.166393 -2.29737,-0.243253 -3.41552,-0.234225 -0.98507,0.0081 -1.99914,0.08328 -3.02351,0.225817 -3.62633,-0.622868 -11.73126,3.883882 -15.21458,3.09087 -2.47999,-0.388978 -4.55193,-1.11154 -4.4573,-2.715436 l 0.4305,-0.53457 c -1.15453,-1.07691 0.37109,-1.782769 1.44393,-1.737632 1.28504,0.05418 3.95002,1.38033 5.88204,1.229959 1.93199,-0.15037 2.22715,0.308033 2.82631,-0.238149 0.33926,-0.213072 -0.74022,0.868667 -1.05809,1.794229 1.37235,-1.159372 2.73701,-2.421015 3.59912,-3.70725 l 0.0213,-1.261898 -3.64771,-0.03751 c -3.61469,-0.03724 1.13117,0.454106 2.37267,0.511036 -0.66433,0.630597 -2.8375,0.770724 -4.19627,0.64776 l -0.28416,-0.613019 c -0.47469,-0.13744 -1.11389,0.202874 -1.4253,-0.166423 l -0.41523,-0.491984 c -0.73691,-0.234623 -1.32984,0.06623 -2.03878,0.101444 l -0.50166,-0.630949 c -2.08387,0.509419 -3.89652,2.250451 -3.92967,4.178499 -0.0329,1.92806 1.272,3.932222 4.3014,4.281606 -8.53983,5.323635 -4.78189,11.560621 -2.64105,14.533135 -0.2523,-2.820358 0.67806,-2.99782 0.75642,-5.137812 0.12282,-3.352884 0.64737,-7.213332 3.24892,-9.004202 2.18928,-0.459978 4.70254,-0.767039 7.38639,-1.771814 -5.46251,2.729112 -9.8192,7.675516 -9.77377,14.952835 0.0732,11.751741 10.01375,15.636811 17.25117,15.670637 7.23742,0.03386 14.98834,-7.034147 14.97899,-13.904988 -0.009,-6.870843 -4.51028,-12.21541 -12.34817,-12.454251 -7.83782,-0.238853 -12.0639,5.992765 -11.7736,11.546491 0.29033,5.553699 4.26135,8.468752 10.19465,8.413035 5.93328,-0.05568 7.62979,-3.170285 7.944,-7.746784 0.31416,-4.576497 -4.49454,-7.359915 -7.75873,-3.603024 -0.82932,1.943833 -0.12135,3.787002 1.64338,3.785136 0.88233,-8.89e-4 1.5557,-0.936733 1.56316,-1.906298 0.007,-0.969558 -1.81708,-1.883501 -2.432,-1.040562 -1.01817,-0.183387 1.05826,-2.203196 2.86925,-2.091211 1.81099,0.111986 3.32802,1.749764 3.45057,4.049061 0.20466,3.839602 -1.68796,4.639239 -3.05114,5.942471 0.208,-1.116189 0.30542,-2.341444 -0.78301,-3.540269 -4.34383,9.099404 -14.17765,2.427009 -12.63288,-5.206173 0.36019,2.173415 3.63581,5.52788 6.80962,4.771906 -4.7833,-1.390336 -4.3092,-7.4347 -2.54896,-10.115926 -0.67189,2.406984 0.32708,4.736939 2.79414,5.680228 -1.85403,-4.102458 -0.46895,-9.453709 9.24275,-7.110792 -1.87984,0.870506 -3.09371,2.03686 -2.94721,3.60919 6.61726,-4.832181 12.89919,7.230878 5.45832,15.245895 1.55348,-2.595091 3.98437,-9.518584 -0.0813,-13.193909 -0.44537,1.301693 0.33397,1.463765 0.20903,3.424834 -0.12608,1.979132 -1.09851,4.316139 -1.40833,6.473119 -0.3624,2.522461 0.75599,3.795984 -0.21583,4.82514 -3.28532,2.607937 -8.7947,3.419198 -12.99217,2.768109 1.3417,-0.730464 1.51578,-1.550157 1.57615,-2.779877 0.0604,-1.229719 -1.27281,-2.4203 -2.51507,-2.481211 -1.24224,-0.0609 -2.53832,0.866598 -2.60882,2.189272 -0.0705,1.322675 1.07158,1.645329 1.71508,1.696729 0.64355,0.05139 1.4578,-0.779598 1.3033,-1.412633 -0.15447,-0.633038 -0.004,-1.215058 -1.31004,-1.083149 0.76129,-1.484185 2.60257,0.153832 2.49302,1.574012 -0.066,0.851882 -1.12467,1.51603 -2.73031,1.645175 -4.69791,0.378081 -11.15503,-8.684382 -10.60875,-12.088907 1.75918,3.844825 5.66717,6.88284 8.56034,9.003643 0.43583,-3.248535 -4.98092,-8.377393 -8.23494,-10.027396 -0.33694,-1.868757 0.27765,-4.259494 0.4367,-5.07001 0.6351,1.817241 1.20343,3.713885 3.3596,3.704448 2.22844,-0.0098 3.39417,-2.20192 3.40933,-3.626 0.0154,-1.424086 -1.53205,-2.634704 -2.38117,-2.744575 -0.84906,-0.109869 -2.31765,1.160759 -2.297,2.41341 0.0206,1.252654 0.56065,1.27705 1.279,1.331944 0.7184,0.05489 1.4278,-0.287265 1.41401,-1.238365 -0.0135,-0.9511 -1.11942,-1.360313 -1.75181,-1.220434 0.46879,-0.646044 0.826,-0.710657 1.49873,-0.635433 0.67276,0.07525 1.53702,1.255177 1.46431,2.132679 -0.0726,0.877497 -0.71442,2.815856 -2.6111,2.813495 -1.89666,-0.0022 -3.13521,-1.794303 -2.50601,-4.489491 0.74963,-3.21136 4.64752,-7.543495 11.1703,-9.608253 -2.65317,0.942918 -6.12476,5.015414 -5.1719,8.483638 3.17955,-0.603026 5.76281,-8.858329 8.03042,-9.42558 1.97432,0.05034 6.47561,-0.994741 10.33647,0.697069 -6.08583,-0.336036 -9.29834,2.89474 -11.74879,3.731906 5.2086,2.563776 12.29992,-2.741831 14.05424,-2.615697 1.43015,0.373772 4.01175,1.235675 5.24254,3.555396 -0.19178,0.335467 -1.13723,-0.450969 -2.39193,-0.391681 -1.2547,0.05929 -2.86965,1.089582 -2.90203,2.55742 -0.0322,1.467839 1.85323,2.979405 3.05571,2.981041 1.20244,0.0015 2.1744,-1.051422 2.17441,-2.083928 0,-1.032505 -0.52979,-1.817904 -1.4581,-1.81384 -0.92827,0.0037 -1.465,0.631954 -1.44057,1.24677 0.0241,0.614818 0.0167,1.452156 1.62757,1.213711 0.19991,0.474288 0.20907,0.673807 -0.85306,0.676896 -1.06207,0.0028 -2.16869,-0.855018 -2.24219,-2.07384 -0.0733,-1.218822 1.29502,-2.249107 2.51678,-2.139401 1.2217,0.109709 7.46404,2.025194 7.01071,14.132488 -0.65592,-2.185858 -2.41503,-5.863338 -5.53965,-8.584502 -1.66253,4.233455 4.73331,9.665334 4.81318,12.685677 0.0425,1.615284 -2.77268,5.722094 -3.93132,7.002086 2.55931,-6.101674 0.43616,-8.791893 -0.44744,-13.007875 -4.55362,8.59885 2.09496,13.962596 -3.57711,16.172709 -0.42938,0.329041 0.66641,-0.949066 0.61124,-2.388197 -0.0549,-1.439128 -1.55891,-2.182469 -3.07376,-2.151729 -1.51483,0.03075 -2.34823,1.23431 -2.38401,2.5591 -0.0359,1.324789 0.72306,2.293448 1.81345,2.378107 1.09036,0.08466 1.7469,-0.686628 1.78347,-1.495003 0.0369,-0.808375 -0.71733,-1.242386 -1.29821,-1.266383 -0.58089,-0.024 -0.94522,0.316546 -0.94851,0.727893 -0.003,0.411339 0.008,0.648418 0.31581,0.978922 -0.54491,0.286023 -1.13469,-0.459736 -1.09935,-1.551036 0.0349,-1.091301 0.93228,-1.776005 2.19131,-1.789746 1.25907,-0.01377 1.93335,1.130215 1.91342,2.02845 -0.0199,0.898242 -0.51446,2.49924 -3.26638,3.488717 -7.1815,2.582074 -18.41818,-4.216379 -23.6343,1.321297 1.67409,-7.012514 10.81312,-0.556779 14.24521,-3.617035 -3.78574,0.113859 -9.04477,-2.949556 -13.13115,0.34013 0.25269,-2.871178 -1.44576,-4.84719 -4.03135,-7.157862 -2.58555,-2.31069 -1.5945,-7.574674 -5.4634,-10.911058 -1.3976,4.405223 1.62142,9.057812 3.89799,11.095413 -2.31201,-0.08451 -4.9682,0.928112 -4.96511,2.3966 0.003,1.468489 0.85469,1.833971 1.89643,1.811042 1.04176,-0.02294 1.29787,-0.58869 1.28013,-1.266947 -0.0179,-0.678251 -0.38145,-1.632394 -1.68967,-1.105 3.31466,-3.150531 7.50494,1.225333 7.86999,3.255052 0.76308,4.242176 -2.84696,8.015837 -4.76856,9.908038 -0.39355,-0.63938 3.19388,-3.888738 3.65509,-6.958939 0.29556,-1.968072 -1.53881,-4.151165 -3.74944,-4.577465 l -0.16156,0.720605 c -1.75386,0.205018 -3.59723,1.611516 -3.46752,2.083368 0.011,0.248933 3.46865,0.168857 2.31054,2.748498 -2.35984,5.256212 -2.04561,6.808948 -0.66546,8.2354 -0.2039,-0.08556 -0.42801,-0.132802 -0.66325,-0.132802 -0.94108,0 -1.70438,0.757113 -1.70438,1.690565 0,0.933451 0.7633,1.690005 1.70438,1.690005 0.94108,0 1.70438,-0.756554 1.70438,-1.690005 0,-0.350022 -0.10782,-0.67555 -0.29149,-0.945304 h 6e-4 c 1.61634,1.534851 5.29876,1.255105 9.06139,-1.710175 2.24172,-1.766626 3.75894,1.69815 4.00308,1.714662 1.10008,-0.100986 1.99653,-2.223481 1.78177,-4.038978 -0.0705,-0.596196 1.03933,0.383706 0.88866,-0.07734 -0.62928,-1.925701 -3.08882,-4.100696 -5.7041,-3.452855 -3.58369,0.887746 -6.64253,5.386184 -8.20156,5.157986 0.0221,-0.03115 3.49441,-3.899861 6.52602,-5.878591 1.94209,-1.267616 5.99643,-0.841812 8.45581,-0.223574 5.66495,3.654522 3.36407,11.578858 -0.39825,8.826569 1.23837,0.310417 2.50092,-0.521122 2.51957,-1.52134 0.0187,-1.000216 -0.79658,-1.91574 -1.70102,-1.910782 -0.90443,0.0054 -1.85954,0.999866 -1.86705,2.043023 -0.007,1.043158 -0.03,2.504019 2.87489,2.535006 2.90484,0.03101 4.03355,-6.341924 0.33613,-9.72929 4.87445,1.431244 8.79221,14.496639 17.33871,8.183294 -0.39977,-0.528451 -8.86362,-1.482377 -12.96787,-6.257945 2.64501,1.526474 5.50299,2.949324 8.51907,3.051088 2.18095,0.07359 5.45182,-1.98008 7.7446,-2.083367 2.29278,-0.103301 3.07104,2.475002 3.05739,3.381125 -0.0134,0.906126 -0.69786,2.920665 -2.42127,2.972076 -1.72344,0.05139 -2.64805,-0.513398 -2.71563,-1.689443 -0.0678,-1.176041 0.3252,-1.876139 0.96266,-2.124832 -0.36906,1.481583 0.24379,1.715259 1.2784,1.738193 1.03464,0.02294 1.20476,-0.477372 1.19937,-1.321857 -0.005,-0.844481 -0.44414,-1.571279 -1.46768,-1.653581 -1.02359,-0.08232 -2.74262,0.767399 -2.64163,3.168757 0.10105,2.401372 1.56038,2.818886 3.00488,2.817419 1.4445,-0.0013 3.83498,-1.87783 3.79856,-4.171771 -0.0367,-2.293944 -1.87501,-3.749704 -4.40984,-4.033934 8.19147,-5.593634 4.30535,-10.661016 5.56849,-14.158266 -3.8277,3.180943 -2.10824,9.312285 -6.22325,13.350245 -3.93933,3.865538 -10.06036,4.287387 -16.11506,-0.796809 0.92795,0.07329 1.91273,0.130311 2.95796,0.161378 9.19384,0.273577 17.98879,-6.461828 17.83303,-19.26582 -0.0125,-1.038849 -0.095,-2.029983 -0.24179,-2.973754 2.40887,-4.887151 -0.69138,-10.224004 -0.0839,-13.219125 -0.86369,1.145386 -1.80139,1.657346 -2.09023,3.463499 -0.42216,2.639491 1.17023,3.316965 0.9276,5.391089 -0.74611,-1.721655 -1.74234,-3.225733 -2.91896,-4.521993 -0.71782,-1.88333 -1.59071,-4.533446 -1.51629,-6.533636 0.0742,-2.000191 1.84145,-4.076578 3.82569,-4.026084 1.98427,0.05049 2.53347,1.347556 2.54446,2.281168 0.0174,1.457186 -0.89114,2.511353 -1.91962,2.263799 0.96156,-0.850338 -0.0959,-2.186641 -0.98697,-2.257636 -0.89087,-0.07096 -1.56405,0.565178 -1.56256,1.553279 10e-4,0.988103 0.74514,1.612249 2.04558,1.680478 1.30043,0.06824 3.30467,-1.242974 3.33759,-2.872334 0.0327,-1.629352 -1.24942,-3.792303 -3.43307,-3.87143 z M 109.72068,60.27884 c 7.95313,1.082523 -1.71918,7.636565 1.25584,11.121187 3.64762,2.580126 9.85163,-8.407363 12.82665,-1.20082 -4.09623,-4.211278 -8.01322,4.833756 -13.23058,1.645736 -3.55802,-3.41046 3.91696,-7.488289 -0.85191,-11.566103 z m -0.88298,12.45425 a 0.26854146,0.75779202 30.209745 0 1 0.0524,0.01343 0.26854146,0.75779202 30.209745 0 1 -0.14745,0.788404 0.26854146,0.75779202 30.209745 0 1 -0.61347,0.522244 0.26854146,0.75779202 30.209745 0 1 0.14742,-0.788406 0.26854146,0.75779202 30.209745 0 1 0.56099,-0.535693 z"
         style="fill:#4d4d4d;fill-opacity:1;stroke-width:0.292119"
         id="path11" />
      <path
         style="fill:#4d4d4d;fill-opacity:1;stroke-width:0.29212"
         d="m 108.49793,122.90922 c -0.92693,0 -1.67876,0.75183 -1.67876,1.67876 0,0.92693 0.75183,1.67876 1.67876,1.67876 0.23171,0 0.4524,-0.0468 0.65324,-0.13185 -1.35935,1.41648 -1.66886,2.95837 0.65547,8.17786 1.14074,2.56165 -1.46984,3.27729 -1.48063,3.52446 -0.12777,0.46859 0.89272,1.06952 2.62025,1.27316 l 0.15914,0.71555 c 2.17736,-0.42334 3.98415,-2.5906 3.69305,-4.54496 -0.45427,-3.04878 -3.98833,-6.27541 -3.6007,-6.91034 1.40485,1.44548 3.07507,2.93491 4.21497,4.33627 1.78222,4.68115 -3.17932,7.47194 -3.66298,10.4437 1.73725,-1.58611 6.523,-3.22507 4.9417,-10.15323 3.10696,1.1616 4.61212,0.79511 8.40768,0.71277 3.71518,0.0769 5.1199,7.1258 12.06794,6.61882 -0.80167,-3.07474 -6.6916,-6.63607 -10.15326,-7.09012 13.78387,-0.54905 13.49177,6.6526 14.19297,8.13786 l -0.49301,2.05101 c -0.20853,0.86734 -0.64722,1.92456 -1.88409,2.01429 -2.58277,0.18743 -2.08284,-2.96862 -1.51737,-2.65474 -0.70243,0.76177 0.12958,1.09528 0.57869,1.07672 0.57207,-0.0236 1.27073,-0.54328 1.23472,-1.34604 -0.0359,-0.80272 -0.46232,-1.48016 -1.53631,-1.3961 -1.07399,0.084 -1.51199,1.00201 -1.47677,2.31758 0.0351,1.31553 0.8566,2.51014 2.3487,2.54068 1.49208,0.0308 3.12936,-0.51096 3.42485,-3.10824 2.4124,6.66079 -4.04506,19.78753 -17.5282,18.8525 -0.75193,2.3e-4 -2.03377,-1.54546 -2.27417,-2.98302 -0.24037,-1.43755 1.33741,-3.16781 3.64019,-1.94421 -0.97936,-0.0739 -1.47333,0.6928 -1.36379,1.77673 0.10947,1.08392 0.78795,1.45799 1.36769,1.41332 0.57975,-0.0447 1.44193,-0.69672 1.32767,-2.30974 -0.11427,-1.61308 -1.4357,-1.93193 -2.805,-1.93864 -1.36931,-0.006 -4.69056,1.33257 -1.84846,5.67731 -1.23038,-0.16037 -2.78039,-0.79759 -4.27786,-2.51176 -1.61992,-3.03815 1.849,-8.12315 -1.15682,-12.54143 -3.93968,6.34741 -0.67357,9.82942 -0.2382,11.68621 -1.92974,-0.88245 -4.5833,-7.22837 -3.65185,-10.50823 2.72969,-3.74022 7.01259,-3.77635 12.47693,-8.40551 -5.56467,0.21041 -9.01967,1.96509 -11.95108,6.65051 0.89885,-4.27361 4.97006,-7.9399 9.35864,-8.33647 4.54194,-0.41049 9.40315,2.93261 8.10113,10.59448 1.57021,0.23455 2.45105,-3.72666 2.26411,-4.64514 2.25543,5.70038 -1.46382,11.12337 -6.14245,8.1362 -0.0435,0.1329 -0.55356,0.34532 1.0544,1.94027 -0.94556,-0.24639 -2.69423,-0.70304 -3.41535,-2.27192 -0.43279,0.97678 0.37781,2.28041 0.96929,2.81946 -2.10334,-0.23648 -5.48488,-2.45781 -2.00096,-6.98546 -1.08754,-0.34428 -1.9958,0.54363 -3.14663,1.86404 -0.0712,-1.52531 1.98116,-3.38596 5.45361,-4.50599 -0.90946,-0.90249 -3.71444,-0.79935 -5.11636,0.70887 0.50775,-1.47752 2.13363,-2.25581 4.57165,-2.23238 2.43795,0.0233 5.10554,4.85486 2.44943,5.82752 0.57127,-0.79715 -0.79655,-2.29702 -1.52411,-2.26802 -0.72753,0.0293 -1.91758,1.03607 -1.85849,1.81062 0.0589,0.77456 0.77146,2.14156 2.32368,2.17289 1.55221,0.0315 2.70817,-1.76884 2.86284,-3.92676 0.15465,-2.15792 -2.14793,-4.54096 -4.83207,-4.60227 -2.68413,-0.0609 -5.94703,2.86887 -5.93604,5.79527 0.011,2.92638 2.61487,7.4316 6.40905,7.5241 3.79412,0.0922 7.035,-2.13505 7.80896,-3.34084 -0.54308,2.94636 -7.14753,6.38242 -6.27711,9.40818 8.19256,-2.65039 7.18863,-12.69268 7.89354,-15.25464 2.03526,1.44139 -1.32787,6.05087 1.3171,11.07584 5.51773,-7.647 -1.19165,-11.91239 -1.96648,-13.36109 -2.09002,-5.43102 -7.82658,-7.25313 -11.35454,-7.10178 -3.52798,0.15134 -9.89522,3.87025 -10.72526,11.4909 0.38221,-4.49275 -2.78075,-7.6542 -4.10259,-8.35986 -0.14643,1.62947 0.46911,1.77298 0.38059,2.82059 -0.31167,3.68513 1.97138,7.63761 3.76037,9.48051 1.04089,1.95053 1.72641,8.95861 12.41903,10.95283 0.85777,0.15992 -3.42217,0.15395 -3.69639,0.41232 -2.00891,0.46757 -4.96234,-0.3101 -5.27607,-0.16862 -8.26942,-3.69347 -0.928,-10.2304 -6.83466,-14.12725 0.65896,3.02055 -2.69208,9.12874 3.50442,13.25924 -6.53673,0.91554 -5.09442,8.73259 -4.96673,9.23901 3.07981,-1.79934 2.27925,-8.31103 5.53594,-8.40269 0.87737,-0.0245 4.23266,1.01682 3.97238,1.08839 -5.03213,1.38436 -7.44666,4.65069 -7.36108,10.06644 -1.31227,1.97014 -2.18547,5.31428 -1.34434,7.90691 0.82388,-1.61619 2.78631,-1.70989 2.14731,-7.48904 0.53203,2.21565 2.557,3.6703 5.25941,3.63574 2.70239,-0.0345 4.87624,-1.76634 4.881,-5.26833 0.004,-3.50197 -2.90448,-5.13596 -4.80535,-5.10636 -1.90088,0.0298 -3.1511,0.96127 -3.25627,3.02198 -0.10509,2.06068 1.43272,3.52235 2.77272,3.45378 1.34,-0.0685 1.97956,-1.06681 1.93308,-2.03712 -0.0464,-0.97028 -0.95562,-1.78523 -2.03268,-1.68209 -1.07703,0.10308 -0.96764,1.2753 -0.98262,2.27749 -1.2261,-0.16233 -0.96831,-1.03976 -1.01773,-2.05769 -0.0491,-1.01794 0.73941,-2.04748 2.71704,-2.10611 1.97768,-0.0585 3.93883,2.20085 4.0503,4.0414 0.11143,1.84053 -1.89095,4.5269 -4.06923,4.60225 -2.17826,0.0756 -5.12716,-0.59279 -5.2822,-5.50037 -0.15503,-4.90751 6.75415,-7.35353 7.46401,-7.50348 0.14713,-0.0312 2.79224,-0.25368 3.79707,-0.41456 -1.4735,1.99692 -2.62614,3.97345 -2.0972,4.94393 2.20046,-3.38138 6.90197,-6.22316 6.76847,-5.74742 -4.86323,3.98646 -3.75139,7.20136 -5.05854,11.07468 4.83829,-2.16452 2.67843,-8.91853 6.2254,-10.87715 1.57638,-0.87048 2.99452,-0.926 4.58776,-1.88127 -3.6204,3.04055 -6.2138,9.24346 -5.76405,10.55609 8.67761,-6.95053 4.1138,-8.3975 7.78613,-11.40188 2.60789,-1.02847 6.7189,-6.33446 7.39782,-7.64873 -0.48712,3.63033 -4.42725,4.78451 -4.96894,9.98797 1.23436,-0.92864 2.86277,-1.91839 3.1605,-4.02802 0.68872,-0.36884 1.00947,-0.19246 1.34991,-0.91589 0.27799,-0.5905 0.20843,-1.37893 0.4168,-2.01152 0.0779,-0.23663 0.55436,-0.38557 0.62597,-0.62489 0.38689,-1.29257 0.25183,-2.72159 0.45462,-4.08811 2.1534,-6.73588 0.19469,-19.20562 -13.55919,-19.45347 2.76019,-1.16161 5.87807,-1.67253 8.8,-1.45451 2.44625,0.92431 3.20725,7.97018 7.4473,10.84546 0.93607,-7.85178 -4.18376,-9.02379 -4.89048,-10.45151 2.10834,0.50626 4.07112,1.39021 5.44305,2.87568 0.13388,0.14494 1.70995,2.04759 1.6665,4.26617 -0.0338,1.72543 -1.55382,3.55537 -2.23185,5.46027 -0.83511,2.34629 -0.72006,7.71874 -0.58147,7.87242 1.84553,-1.84231 4.96076,-8.38693 3.6424,-14.79333 0.45443,0.69113 0.42401,0.8895 2.66252,2.76492 -0.53733,-2.3685 0.41948,-3.95494 -4.5566,-6.77071 2.58501,-0.0171 6.47195,-0.8438 6.55199,-4.00519 0.0799,-3.1614 -2.80499,-4.62694 -4.22777,-4.62845 -1.42279,-0.001 -4.18508,1.11931 -4.28454,3.50391 -0.0996,2.3846 1.72667,2.91954 2.73487,2.83782 1.00815,-0.0815 2.6325,-0.49404 2.68201,-1.68604 0.0492,-1.19196 -0.2947,-1.77719 -1.31376,-1.7544 -1.01907,0.0227 -1.84398,0.65237 -1.17129,2.5212 -1.33467,0.0184 -2.0747,-0.67726 -2.00814,-2.1985 0.0666,-1.52119 1.63993,-2.47986 3.33747,-2.42881 1.69753,0.0513 3.29917,0.99158 3.26849,3.70249 -0.0309,2.71094 -3.58036,3.28314 -5.83865,3.18061 -2.25832,-0.10246 -1.85805,-1.08153 -3.29909,-1.1852 -2.96453,-0.21339 -4.19547,-1.53436 -8.17011,-0.90199 3.20282,-1.11949 7.8587,-3.06768 9.41596,-5.50705 -8.41817,-0.55419 -7.06452,4.96923 -14.16289,6.88924 3.64182,-3.36371 2.08826,-7.48365 -0.77289,-7.45289 -2.86118,0.031 -4.4294,2.27711 -4.42201,3.31298 0.007,1.03587 1.56645,2.64207 2.89905,2.64697 1.33255,0.005 1.57599,-0.433 1.67542,-1.89745 0.0995,-1.46445 -3.17606,-2.0259 -2.74658,0.69725 -2.34429,-1.55732 -0.0598,-3.92832 1.86627,-3.8945 1.92634,0.0338 2.89345,0.83612 2.92575,2.40378 0.0324,1.56766 -1.77505,3.79607 -3.69305,5.04354 -2.42239,0.61393 -8.00563,2.09724 -9.91841,0.83854 -2.98592,-1.96484 -6.05263,-4.74661 -6.07463,-4.77757 1.53565,-0.22659 3.22317,3.35692 6.75289,4.23837 2.57588,0.64326 5.17491,-1.51648 5.79471,-3.42873 0.14841,-0.45781 -0.94415,0.51524 -0.87471,-0.0769 0.2115,-1.8028 -0.0535,-3.91044 -1.1368,-4.01079 -0.24052,0.0164 -1.20461,4.34052 -3.41263,2.58633 -3.706,-2.94458 -7.33367,-3.22239 -8.92574,-1.69822 v -6e-4 c 0.18099,-0.26788 0.28713,-0.59055 0.28713,-0.93815 0,-0.92693 -0.75183,-1.67875 -1.67876,-1.67875 z m -0.38392,0.44072 a 0.26504571,0.75096349 29.949596 0 1 0.0521,0.0132 0.26504571,0.75096349 29.949596 0 1 -0.1452,0.78286 0.26504571,0.75096349 29.949596 0 1 -0.60432,0.51862 0.26504571,0.75096349 29.949596 0 1 0.14527,-0.78289 0.26504571,0.75096349 29.949596 0 1 0.55251,-0.53194 z m 4.63341,2.32086 c 3.54236,0.1218 5.94529,4.65645 9.22342,1.25868 -2.25279,8.05963 -7.73591,-2.39802 -11.48535,-0.0445 -2.93004,3.46007 7.03688,9.96786 -0.79346,11.04355 -2.6e-4,2.8e-4 -8.7e-4,2.9e-4 -0.001,5.6e-4 l -5.3e-4,-5.6e-4 c 5.3e-4,-8e-5 0.001,9e-5 0.002,0 4.69517,-4.04909 -3.10812,-8.09836 0.39619,-11.48478 0.9635,-0.59359 1.84172,-0.801 2.65914,-0.77291 z"
         id="path27" />
      <path
         id="path2953"
         d="m 57.479915,122.90922 c 0.92693,0 1.67876,0.75183 1.67876,1.67876 0,0.92693 -0.75183,1.67876 -1.67876,1.67876 -0.23171,0 -0.4524,-0.0468 -0.65324,-0.13185 1.35935,1.41648 1.66886,2.95837 -0.65547,8.17786 -1.14074,2.56165 1.46984,3.27729 1.48063,3.52446 0.12777,0.46859 -0.89272,1.06952 -2.62025,1.27316 l -0.15914,0.71555 c -2.17736,-0.42334 -3.98415,-2.5906 -3.69305,-4.54496 0.45427,-3.04878 3.98833,-6.27541 3.6007,-6.91034 -1.40485,1.44548 -3.07507,2.93491 -4.21497,4.33627 -1.78222,4.68115 3.17932,7.47194 3.66298,10.4437 -1.73725,-1.58611 -6.523,-3.22507 -4.9417,-10.15323 -3.10696,1.1616 -4.61212,0.79511 -8.40768,0.71277 -3.71518,0.0769 -5.1199,7.1258 -12.06794,6.61882 0.80167,-3.07474 6.6916,-6.63607 10.15326,-7.09012 -13.78387,-0.54905 -13.49177,6.6526 -14.19297,8.13786 l 0.49301,2.05101 c 0.20853,0.86734 0.64722,1.92456 1.88409,2.01429 2.58277,0.18743 2.08284,-2.96862 1.51737,-2.65474 0.70243,0.76177 -0.12958,1.09528 -0.57869,1.07672 -0.57207,-0.0236 -1.27073,-0.54328 -1.23472,-1.34604 0.0359,-0.80272 0.46232,-1.48016 1.53631,-1.3961 1.07399,0.084 1.51199,1.00201 1.47677,2.31758 -0.0351,1.31553 -0.8566,2.51014 -2.3487,2.54068 -1.49208,0.0308 -3.12936,-0.51096 -3.42485,-3.10824 -2.4124,6.66079 4.04506,19.78753 17.5282,18.8525 0.75193,2.3e-4 2.03377,-1.54546 2.27417,-2.98302 0.24037,-1.43755 -1.33741,-3.16781 -3.64019,-1.94421 0.97936,-0.0739 1.47333,0.6928 1.36379,1.77673 -0.10947,1.08392 -0.78795,1.45799 -1.36769,1.41332 -0.57975,-0.0447 -1.44193,-0.69672 -1.32767,-2.30974 0.11427,-1.61308 1.4357,-1.93193 2.805,-1.93864 1.36931,-0.006 4.69056,1.33257 1.84846,5.67731 1.23038,-0.16037 2.78039,-0.79759 4.27786,-2.51176 1.61992,-3.03815 -1.849,-8.12315 1.15682,-12.54143 3.93968,6.34741 0.67357,9.82942 0.2382,11.68621 1.92974,-0.88245 4.5833,-7.22837 3.65185,-10.50823 -2.72969,-3.74022 -7.01259,-3.77635 -12.47693,-8.40551 5.56467,0.21041 9.01967,1.96509 11.95108,6.65051 -0.89885,-4.27361 -4.97006,-7.9399 -9.35864,-8.33647 -4.54194,-0.41049 -9.40315,2.93261 -8.10113,10.59448 -1.57021,0.23455 -2.45105,-3.72666 -2.26411,-4.64514 -2.25543,5.70038 1.46382,11.12337 6.14245,8.1362 0.0435,0.1329 0.55356,0.34532 -1.0544,1.94027 0.94556,-0.24639 2.69423,-0.70304 3.41535,-2.27192 0.43279,0.97678 -0.37781,2.28041 -0.96929,2.81946 2.10334,-0.23648 5.48488,-2.45781 2.00096,-6.98546 1.08754,-0.34428 1.9958,0.54363 3.14663,1.86404 0.0712,-1.52531 -1.98116,-3.38596 -5.45361,-4.50599 0.90946,-0.90249 3.71444,-0.79935 5.11636,0.70887 -0.50775,-1.47752 -2.13363,-2.25581 -4.57165,-2.23238 -2.43795,0.0233 -5.10554,4.85486 -2.44943,5.82752 -0.57127,-0.79715 0.79655,-2.29702 1.52411,-2.26802 0.72753,0.0293 1.91758,1.03607 1.85849,1.81062 -0.0589,0.77456 -0.77146,2.14156 -2.32368,2.17289 -1.55221,0.0315 -2.70817,-1.76884 -2.86284,-3.92676 -0.15465,-2.15792 2.14793,-4.54096 4.83207,-4.60227 2.68413,-0.0609 5.94703,2.86887 5.93604,5.79527 -0.011,2.92638 -2.61487,7.4316 -6.40905,7.5241 -3.79412,0.0922 -7.035,-2.13505 -7.80896,-3.34084 0.54308,2.94636 7.14753,6.38242 6.27711,9.40818 -8.19256,-2.65039 -7.18863,-12.69268 -7.89354,-15.25464 -2.03526,1.44139 1.32787,6.05087 -1.3171,11.07584 -5.51773,-7.647 1.19165,-11.91239 1.96648,-13.36109 2.09002,-5.43102 7.82658,-7.25313 11.35454,-7.10178 3.52798,0.15134 9.89522,3.87025 10.72526,11.4909 -0.38221,-4.49275 2.78075,-7.6542 4.10259,-8.35986 0.14643,1.62947 -0.46911,1.77298 -0.38059,2.82059 0.31167,3.68513 -1.97138,7.63761 -3.76037,9.48051 -1.04089,1.95053 -1.72641,8.95861 -12.41903,10.95283 -0.85777,0.15992 3.42217,0.15395 3.69639,0.41232 2.00891,0.46757 4.96234,-0.3101 5.27607,-0.16862 8.26942,-3.69347 0.928,-10.2304 6.83466,-14.12725 -0.65896,3.02055 2.69208,9.12874 -3.50442,13.25924 6.53673,0.91554 5.09442,8.73259 4.96673,9.23901 -3.07981,-1.79934 -2.27925,-8.31103 -5.53594,-8.40269 -0.87737,-0.0245 -4.23266,1.01682 -3.97238,1.08839 5.03213,1.38436 7.44666,4.65069 7.36108,10.06644 1.31227,1.97014 2.18547,5.31428 1.34434,7.90691 -0.82388,-1.61619 -2.78631,-1.70989 -2.14731,-7.48904 -0.53203,2.21565 -2.557,3.6703 -5.25941,3.63574 -2.70239,-0.0345 -4.87624,-1.76634 -4.881,-5.26833 -0.004,-3.50197 2.90448,-5.13596 4.80535,-5.10636 1.90088,0.0298 3.1511,0.96127 3.25627,3.02198 0.10509,2.06068 -1.43272,3.52235 -2.77272,3.45378 -1.34,-0.0685 -1.97956,-1.06681 -1.93308,-2.03712 0.0464,-0.97028 0.95562,-1.78523 2.03268,-1.68209 1.07703,0.10308 0.96764,1.2753 0.98262,2.27749 1.2261,-0.16233 0.96831,-1.03976 1.01773,-2.05769 0.0491,-1.01794 -0.73941,-2.04748 -2.71704,-2.10611 -1.97768,-0.0585 -3.93883,2.20085 -4.0503,4.0414 -0.11143,1.84053 1.89095,4.5269 4.06923,4.60225 2.17826,0.0756 5.12716,-0.59279 5.2822,-5.50037 0.15503,-4.90751 -6.75415,-7.35353 -7.46401,-7.50348 -0.14713,-0.0312 -2.79224,-0.25368 -3.79707,-0.41456 1.4735,1.99692 2.62614,3.97345 2.0972,4.94393 -2.20046,-3.38138 -6.90197,-6.22316 -6.76847,-5.74742 4.86323,3.98646 3.75139,7.20136 5.05854,11.07468 -4.83829,-2.16452 -2.67843,-8.91853 -6.2254,-10.87715 -1.57638,-0.87048 -2.99452,-0.926 -4.58776,-1.88127 3.6204,3.04055 6.2138,9.24346 5.76405,10.55609 -8.67761,-6.95053 -4.1138,-8.3975 -7.78613,-11.40188 -2.60789,-1.02847 -6.7189,-6.33446 -7.39782,-7.64873 0.48712,3.63033 4.42725,4.78451 4.96894,9.98797 -1.23436,-0.92864 -2.86277,-1.91839 -3.1605,-4.02802 -0.68872,-0.36884 -1.00947,-0.19246 -1.34991,-0.91589 -0.27799,-0.5905 -0.20843,-1.37893 -0.4168,-2.01152 -0.0779,-0.23663 -0.55436,-0.38557 -0.62597,-0.62489 -0.38689,-1.29257 -0.25183,-2.72159 -0.45462,-4.08811 -2.1534,-6.73588 -0.19469,-19.20562 13.55919,-19.45347 -2.76019,-1.16161 -5.87807,-1.67253 -8.8,-1.45451 -2.44625,0.92431 -3.20725,7.97018 -7.4473,10.84546 -0.93607,-7.85178 4.18376,-9.02379 4.89048,-10.45151 -2.10834,0.50626 -4.07112,1.39021 -5.44305,2.87568 -0.13388,0.14494 -1.70995,2.04759 -1.6665,4.26617 0.0338,1.72543 1.55382,3.55537 2.23185,5.46027 0.83511,2.34629 0.72006,7.71874 0.58147,7.87242 -1.84553,-1.84231 -4.96076,-8.38693 -3.6424,-14.79333 -0.45443,0.69113 -0.42401,0.8895 -2.66252,2.76492 0.53733,-2.3685 -0.41948,-3.95494 4.5566,-6.77071 -2.58501,-0.0171 -6.47195,-0.8438 -6.55199,-4.00519 -0.0799,-3.1614 2.80499,-4.62694 4.22777,-4.62845 1.42279,-0.001 4.18508,1.11931 4.28454,3.50391 0.0996,2.3846 -1.72667,2.91954 -2.73487,2.83782 -1.00815,-0.0815 -2.6325,-0.49404 -2.68201,-1.68604 -0.0492,-1.19196 0.2947,-1.77719 1.31376,-1.7544 1.01907,0.0227 1.84398,0.65237 1.17129,2.5212 1.33467,0.0184 2.0747,-0.67726 2.00814,-2.1985 -0.0666,-1.52119 -1.63993,-2.47986 -3.33747,-2.42881 -1.69753,0.0513 -3.29917,0.99158 -3.26849,3.70249 0.0309,2.71094 3.58036,3.28314 5.83865,3.18061 2.25832,-0.10246 1.85805,-1.08153 3.29909,-1.1852 2.96453,-0.21339 4.19547,-1.53436 8.17011,-0.90199 -3.20282,-1.11949 -7.8587,-3.06768 -9.41596,-5.50705 8.41817,-0.55419 7.06452,4.96923 14.16289,6.88924 -3.64182,-3.36371 -2.08826,-7.48365 0.77289,-7.45289 2.86118,0.031 4.4294,2.27711 4.42201,3.31298 -0.007,1.03587 -1.56645,2.64207 -2.89905,2.64697 -1.33255,0.005 -1.57599,-0.433 -1.67542,-1.89745 -0.0995,-1.46445 3.17606,-2.0259 2.74658,0.69725 2.34429,-1.55732 0.0598,-3.92832 -1.86627,-3.8945 -1.92634,0.0338 -2.89345,0.83612 -2.92575,2.40378 -0.0324,1.56766 1.77505,3.79607 3.69305,5.04354 2.42239,0.61393 8.00563,2.09724 9.91841,0.83854 2.98592,-1.96484 6.05263,-4.74661 6.07463,-4.77757 -1.53565,-0.22659 -3.22317,3.35692 -6.75289,4.23837 -2.57588,0.64326 -5.17491,-1.51648 -5.79471,-3.42873 -0.14841,-0.45781 0.94415,0.51524 0.87471,-0.0769 -0.2115,-1.8028 0.0535,-3.91044 1.1368,-4.01079 0.24052,0.0164 1.20461,4.34052 3.41263,2.58633 3.706,-2.94458 7.33367,-3.22239 8.92574,-1.69822 v -6e-4 c -0.18099,-0.26788 -0.28713,-0.59055 -0.28713,-0.93815 0,-0.92693 0.75183,-1.67875 1.67876,-1.67875 z m 0.38392,0.44072 a 0.75096349,0.26504571 60.050404 0 0 -0.0521,0.0132 0.75096349,0.26504571 60.050404 0 0 0.1452,0.78286 0.75096349,0.26504571 60.050404 0 0 0.60432,0.51862 0.75096349,0.26504571 60.050404 0 0 -0.14527,-0.78289 0.75096349,0.26504571 60.050404 0 0 -0.55251,-0.53194 z m -4.63341,2.32086 c -3.54236,0.1218 -5.94529,4.65645 -9.22342,1.25868 2.25279,8.05963 7.73591,-2.39802 11.48535,-0.0445 2.93004,3.46007 -7.03688,9.96786 0.79346,11.04355 2.6e-4,2.8e-4 8.7e-4,2.9e-4 10e-4,5.6e-4 l 5.3e-4,-5.6e-4 c -5.3e-4,-8e-5 -0.001,9e-5 -0.002,0 -4.69517,-4.04909 3.10812,-8.09836 -0.39619,-11.48478 -0.9635,-0.59359 -1.84172,-0.801 -2.65914,-0.77291 z"
         style="fill:#4d4d4d;fill-opacity:1;stroke-width:0.29212" />
    </g>
  </g>
</svg>
