<?xml version="1.0" encoding="UTF-8" standalone="no"?>
<svg xmlns:dc="http://purl.org/dc/elements/1.1/" xmlns:cc="http://creativecommons.org/ns#" xmlns:rdf="http://www.w3.org/1999/02/22-rdf-syntax-ns#" xmlns:svg="http://www.w3.org/2000/svg" xmlns="http://www.w3.org/2000/svg" xmlns:sodipodi="http://sodipodi.sourceforge.net/DTD/sodipodi-0.dtd" xmlns:inkscape="http://www.inkscape.org/namespaces/inkscape" width="500" height="550" viewBox="0 0 132.29166 145.52084" version="1.1" id="svg847" sodipodi:docname="piikkiö.svg" inkscape:version="1.0.2 (e86c870879, 2021-01-15, custom)">
  <defs id="defs841"/>
  <sodipodi:namedview id="base" pagecolor="#ffffff" bordercolor="#666666" borderopacity="1.0" inkscape:pageopacity="0.0" inkscape:pageshadow="2" inkscape:zoom="0.24748737" inkscape:cx="519.85873" inkscape:cy="-108.39035" inkscape:document-units="px" inkscape:current-layer="layer1" inkscape:document-rotation="0" showgrid="false" inkscape:snap-smooth-nodes="true" inkscape:showpageshadow="false" borderlayer="true" units="px" inkscape:window-width="1920" inkscape:window-height="1017" inkscape:window-x="-8" inkscape:window-y="-4" inkscape:window-maximized="1"/>
  <metadata id="metadata844">
    <rdf:RDF>
      <cc:Work rdf:about="">
        <dc:format>image/svg+xml</dc:format>
        <dc:type rdf:resource="http://purl.org/dc/dcmitype/StillImage"/>
        <dc:title/>
      </cc:Work>
    </rdf:RDF>
  </metadata>
  <g inkscape:label="Layer 1" inkscape:groupmode="layer" id="layer1" transform="translate(-27.710942,-45.171236)">
    <g id="g1146" transform="matrix(0.94310823,0,0,0.94310823,1.5765244,2.5698713)" style="stroke-width:1.06032">
      <path style="font-variation-settings:normal;opacity:1;vector-effect:none;fill:#da0606;fill-opacity:1;stroke:none;stroke-width:0.280544;stroke-linecap:butt;stroke-linejoin:miter;stroke-miterlimit:4;stroke-dasharray:none;stroke-dashoffset:0;stroke-opacity:1;stop-color:#000000;stop-opacity:1" d="m 167.98293,45.171236 c 0,0 -4.41142,69.428804 -6.06416,96.494484 -1.65272,27.06568 -26.22041,57.8047 -64.071837,57.8047 -37.851421,0 -62.419116,-30.73902 -64.07184,-57.8047 C 32.12237,114.60004 27.710942,45.171236 27.710942,45.171236 Z" id="path846" sodipodi:nodetypes="cszscc"/>
      <g id="g973" style="stroke-width:1.06032">
        <path id="path936" style="opacity:1;fill:#cb9c4d;fill-opacity:1;stroke:none;stroke-width:1.06032;stroke-linecap:round;stroke-miterlimit:4;stroke-dasharray:none" d="m 209.81445,212.04688 c -16.38242,-10e-6 -30.80308,15.15541 -30.80273,31.35742 5.3e-4,8.83927 6.32567,19.36591 11.19922,25.59765 -7.04616,-2.16776 -10.38363,-4.06144 -19.39649,-4.06054 -16.82422,-6e-5 -29.46294,13.08639 -29.46289,30.46289 -5e-5,17.3765 12.54668,30.46294 30.39063,30.46289 17.15334,-0.88139 23.23167,-9.26129 27.72265,-14.29102 l -47.7539,303.63672 c 25.56946,52.89686 72.53009,100.24275 135.54297,122.92773 L 220.16602,311.57617 c 4.49098,5.02973 10.56739,13.40963 27.7207,14.29102 17.84394,5e-5 30.39261,-13.08639 30.39258,-30.46289 3e-5,-17.3765 -12.63866,-30.46295 -29.46289,-30.46289 -9.01289,-9e-4 -12.35032,1.89278 -19.39649,4.06054 4.87355,-6.23174 11.19674,-16.75838 11.19727,-25.59765 3.4e-4,-16.20201 -14.42031,-31.35743 -30.80274,-31.35742 z m 160,0 c -16.38243,0 -30.80308,15.15541 -30.80273,31.35742 5.3e-4,8.83927 6.32567,19.36591 11.19922,25.59765 -7.04616,-2.16776 -10.38363,-4.06143 -19.39649,-4.06054 -16.82422,-5e-5 -29.46294,13.08639 -29.46289,30.46289 -5e-5,17.3765 12.54668,30.46294 30.39063,30.46289 17.15334,-0.88139 23.23167,-9.26129 27.72265,-14.29102 l -67.35156,428.25586 c 23.78606,7.97914 49.77182,12.47852 77.70117,12.47852 27.9307,0 53.91809,-4.50062 77.70508,-12.48047 L 380.16602,311.57617 c 4.49098,5.02973 10.56739,13.40963 27.7207,14.29102 17.84394,5e-5 30.39262,-13.08639 30.39258,-30.46289 4e-5,-17.3765 -12.63866,-30.46294 -29.46289,-30.46289 -9.01289,-8.9e-4 -12.35032,1.89278 -19.39649,4.06054 4.87355,-6.23174 11.19674,-16.75838 11.19727,-25.59765 3.4e-4,-16.20201 -14.42032,-31.35743 -30.80274,-31.35742 z m 160,0 c -16.38243,-10e-6 -30.80307,15.15541 -30.80273,31.35742 5.3e-4,8.83927 6.32567,19.36591 11.19922,25.59765 -7.04618,-2.16776 -10.3836,-4.06144 -19.39649,-4.06054 -16.82419,-6e-5 -29.46293,13.08639 -29.46289,30.46289 -4e-5,17.3765 12.54668,30.46294 30.39063,30.46289 17.15335,-0.88139 23.23167,-9.26129 27.72265,-14.29102 l -67.08593,426.56445 c 63.01156,-22.68535 109.9719,-70.0316 135.54101,-122.92773 l -47.7539,-303.63672 c 4.49094,5.02973 10.56739,13.40963 27.7207,14.29102 17.8439,5e-5 30.39265,-13.08639 30.39258,-30.46289 7e-5,-17.3765 -12.63867,-30.46295 -29.46289,-30.46289 -9.01293,-9e-4 -12.35035,1.89278 -19.39649,4.06054 4.87355,-6.23174 11.19674,-16.75838 11.19727,-25.59765 3.4e-4,-16.20201 -14.42034,-31.35743 -30.80274,-31.35742 z" transform="scale(0.26458333)"/>
        <path id="path848" style="font-variation-settings:normal;opacity:1;vector-effect:none;fill:#ffffff;fill-opacity:1;stroke:none;stroke-width:1.06032;stroke-linecap:butt;stroke-linejoin:miter;stroke-miterlimit:4;stroke-dasharray:none;stroke-dashoffset:0;stroke-opacity:1;stop-color:#000000;stop-opacity:1" d="m 209.86719,211.03516 c -17.9547,-0.0468 -32.46888,14.46621 -32.46875,32.36914 6.7e-4,9.04213 3.77802,17.67302 10.41992,23.80859 -4.87916,-2.76941 -10.39358,-4.22506 -16.00391,-4.22461 -17.90293,-1.3e-4 -32.41614,14.51309 -32.41601,32.41602 3.6e-4,6.88256 2.15235,13.25941 5.81054,18.50781 l 5.74414,2.29687 c -5.31507,-5.32948 -8.60158,-12.68314 -8.60156,-20.80468 -5e-5,-16.27193 13.19096,-29.46294 29.46289,-29.46289 5.86726,-5.9e-4 12.32852,1.79989 20.90821,4.43945 -5.93424,-7.58802 -12.37057,-18.13729 -12.3711,-26.97656 -3.5e-4,-16.20201 13.08046,-29.46289 29.46289,-29.46289 5.97074,0 11.49863,1.76769 16.11914,4.79101 l -0.84961,-3.88867 c -4.52925,-2.41505 -9.70493,-3.79424 -15.21679,-3.80859 z m 160,0 c -17.9547,-0.0468 -32.46888,14.46621 -32.46875,32.36914 6.7e-4,9.04213 3.77802,17.67302 10.41992,23.80859 -4.87916,-2.76941 -10.39358,-4.22506 -16.00391,-4.22461 -17.90293,-1.3e-4 -32.41614,14.51309 -32.41601,32.41602 3.6e-4,6.88256 2.15234,13.25941 5.81054,18.50781 l 5.74414,2.29687 c -5.31506,-5.32948 -8.60158,-12.68314 -8.60156,-20.80468 -5e-5,-16.27193 13.19096,-29.46294 29.46289,-29.46289 5.86726,-5.8e-4 12.32852,1.79989 20.90821,4.43945 -5.93424,-7.58802 -12.37057,-18.13729 -12.3711,-26.97656 -3.5e-4,-16.20201 13.08046,-29.46289 29.46289,-29.46289 5.97074,0 11.49863,1.76769 16.11914,4.79101 l -0.84961,-3.88867 c -4.52925,-2.41505 -9.70493,-3.79424 -15.21679,-3.80859 z m 160,0 c -17.95472,-0.0468 -32.4689,14.46621 -32.46875,32.36914 6.8e-4,9.04213 3.77804,17.67302 10.41992,23.80859 -4.87914,-2.76941 -10.39358,-4.22506 -16.00391,-4.22461 -17.90294,-1.3e-4 -32.41613,14.51309 -32.41601,32.41602 3.8e-4,6.88256 2.15234,13.25941 5.81054,18.50781 l 5.74414,2.29687 c -5.31506,-5.32948 -8.6016,-12.68314 -8.60156,-20.80468 -7e-5,-16.27193 13.19097,-29.46294 29.46289,-29.46289 5.86727,-5.9e-4 12.32853,1.79989 20.90821,4.43945 -5.93424,-7.58802 -12.37057,-18.13729 -12.3711,-26.97656 -3.4e-4,-16.20201 13.08049,-29.46289 29.46289,-29.46289 5.97075,0 11.49863,1.76769 16.11914,4.79101 l -0.84961,-3.88867 c -4.52927,-2.41505 -9.70496,-3.79424 -15.21679,-3.80859 z m -282.05274,51.95312 c -5.61033,-4.6e-4 -11.12472,1.4552 -16.0039,4.22461 l -4.90235,3.16797 c 8.57968,-2.63956 15.04095,-4.44004 20.90821,-4.43945 8.17126,-3e-5 15.56523,3.32668 20.90234,8.69921 l -0.75391,-4.61914 c -5.53353,-4.39887 -12.53214,-7.03325 -20.15039,-7.0332 z m 160,0 c -5.61033,-4.6e-4 -11.12472,1.4552 -16.0039,4.22461 l -4.90235,3.16797 c 8.57968,-2.63956 15.04095,-4.44003 20.90821,-4.43945 8.17126,-3e-5 15.56523,3.32668 20.90234,8.69921 l -0.75391,-4.61914 c -5.53354,-4.39888 -12.53214,-7.03325 -20.15039,-7.0332 z m 160,0 c -5.61033,-4.6e-4 -11.12476,1.4552 -16.0039,4.22461 l -4.90235,3.16797 c 8.57972,-2.63956 15.04094,-4.44004 20.90821,-4.43945 8.17126,-3e-5 15.56523,3.32668 20.90234,8.69921 l -0.75391,-4.61914 c -5.53353,-4.39887 -12.53214,-7.03325 -20.15039,-7.0332 z M 201.5,307.16602 l -3.52734,7.3789 -48.32227,296.29297 c 1.09214,2.38167 2.2243,4.75538 3.40234,7.11523 z m 160,0 -3.52734,7.3789 -69.17578,424.15235 c 1.70833,0.60155 3.43053,1.18307 5.1621,1.74804 z m 160,0 -3.52734,7.3789 -69.29688,424.90235 c 1.93362,-0.65983 3.85379,-1.34134 5.75781,-2.04688 z" transform="scale(0.26458333)"/>
        <path id="path964" style="font-variation-settings:normal;opacity:1;vector-effect:none;fill:#674c23;fill-opacity:1;stroke:none;stroke-width:1.06032;stroke-linecap:butt;stroke-linejoin:miter;stroke-miterlimit:4;stroke-dasharray:none;stroke-dashoffset:0;stroke-opacity:1;stop-color:#000000;stop-opacity:1" d="m 225.08398,214.84375 0.84961,3.88867 c 8.05719,5.27202 13.34591,14.37486 13.34571,24.67188 -5.3e-4,8.83927 -6.43686,19.38854 -12.3711,26.97656 l 4.90235,-3.16797 c 6.64191,-6.13557 10.41924,-14.76646 10.41992,-23.80859 2.3e-4,-12.36111 -6.92185,-23.10867 -17.14649,-28.56055 z m 160,0 0.84961,3.88867 c 8.05718,5.27202 13.34592,14.37486 13.34571,24.67188 -5.3e-4,8.83927 -6.43686,19.38854 -12.3711,26.97656 l 4.90235,-3.16797 c 6.64191,-6.13557 10.41924,-14.76646 10.41992,-23.80859 2.3e-4,-12.36111 -6.92185,-23.10867 -17.14649,-28.56055 z m 160,0 0.84961,3.88867 c 8.05716,5.27202 13.34593,14.37486 13.34571,24.67188 -5.3e-4,8.83927 -6.43682,19.38854 -12.3711,26.97656 l 4.90235,-3.16797 c 6.64187,-6.13557 10.41924,-14.76646 10.41992,-23.80859 2.3e-4,-12.36111 -6.92184,-23.10867 -17.14649,-28.56055 z m -277.11914,55.17773 0.75391,4.61914 c 5.29102,5.32616 8.56058,12.66299 8.56055,20.76368 7e-5,16.27193 -13.19092,29.46294 -29.46289,29.46289 -15.64215,-0.80374 -23.73245,-11.03394 -29.68555,-17.70117 l 67.06641,430.23437 c 1.51744,0.56229 3.05166,1.09785 4.58789,1.63086 l 0.0293,-6.56641 -68.1582,-417.91601 c 6.10511,8.3407 15.82188,13.26982 26.1582,13.26953 17.90215,1.2e-4 32.41507,-14.5119 32.41602,-32.41406 8e-5,-10.28467 -4.79531,-19.44429 -12.26563,-25.38282 z m 160,0 0.75391,4.61914 c 5.29102,5.32616 8.56058,12.66299 8.56055,20.76368 7e-5,16.27193 -13.19092,29.46294 -29.46289,29.46289 -15.64214,-0.80374 -23.73245,-11.03394 -29.68555,-17.70117 l 67.54102,433.27929 c 1.40033,-0.45691 2.78836,-0.93359 4.17382,-1.41406 l -0.0293,-6.56055 -68.16016,-417.92187 c 6.10511,8.3407 15.82188,13.26982 26.1582,13.26953 17.90215,1.2e-4 32.41507,-14.5119 32.41602,-32.41406 8e-5,-10.28467 -4.79532,-19.4443 -12.26563,-25.38282 z m 160,0 0.75391,4.61914 c 5.29104,5.32616 8.56058,12.66299 8.56055,20.76368 7e-5,16.27193 -13.19093,29.46294 -29.46289,29.46289 -15.64215,-0.80374 -23.73245,-11.03394 -29.68555,-17.70117 l 48.44726,310.7871 c 1.17739,-2.35851 2.30882,-4.73099 3.4004,-7.11132 L 541.65625,314.54883 c 6.10511,8.3407 15.82188,13.26982 26.1582,13.26953 17.90215,1.2e-4 32.41507,-14.5119 32.41602,-32.41406 7e-5,-10.28467 -4.79531,-19.44429 -12.26563,-25.38282 z M 201.5,307.16602 c -5.95309,6.66723 -14.04339,16.89743 -29.68555,17.70117 -8.15038,2e-5 -15.52735,-3.3098 -20.86133,-8.65821 l -5.74414,-2.29687 c 5.85713,8.40317 15.58588,13.90633 26.60547,13.90625 10.33702,-6.2e-4 20.05394,-4.93127 26.15821,-13.27344 z m 160,0 c -5.95309,6.66723 -14.04339,16.89743 -29.68555,17.70117 -8.15038,2e-5 -15.52736,-3.3098 -20.86133,-8.65821 l -5.74414,-2.29687 c 5.85712,8.40317 15.58587,13.90633 26.60547,13.90625 10.33702,-6.2e-4 20.05394,-4.93127 26.15821,-13.27344 z m 160,0 c -5.9531,6.66723 -14.04341,16.89743 -29.68555,17.70117 -8.1504,2e-5 -15.52735,-3.3098 -20.86133,-8.65821 l -5.74414,-2.29687 c 5.85714,8.40317 15.58584,13.90633 26.60547,13.90625 10.33701,-6.2e-4 20.05397,-4.93127 26.15821,-13.27344 z" transform="scale(0.26458333)"/>
      </g>
    </g>
  </g>
</svg>