<?xml version="1.0" encoding="UTF-8"?>
<svg width="500" height="572" version="1.0" xml:space="preserve" xmlns="http://www.w3.org/2000/svg" xmlns:cc="http://creativecommons.org/ns#" xmlns:dc="http://purl.org/dc/elements/1.1/" xmlns:rdf="http://www.w3.org/1999/02/22-rdf-syntax-ns#" xmlns:xlink="http://www.w3.org/1999/xlink"><metadata><rdf:RDF><cc:Work rdf:about=""><dc:format>image/svg+xml</dc:format><dc:type rdf:resource="http://purl.org/dc/dcmitype/StillImage"/></cc:Work></rdf:RDF></metadata><g transform="translate(-.47960956 -18.5)"><g transform="translate(-698.00001,128)"><path d="m698.47962-109.5v322c0 138.07119 111.92881 250 250 250 138.07118 0 249.99998-111.92881 249.99998-250v-322z" fill="#216db0"/><g transform="translate(698.00001,-128)"><g><path d="m45.47961 79.5v56h21v293h368v-293h21v-56h-31v21h-31v-21h-31v21h-31v-21h-31v56h21v105h-16v-16h-22v16h-21.99999v-16h-22v16h-22v-16h-22v16h-16v-105h21v-56h-31v21h-31.00001v-21h-31v21h-31v-21z" fill="#ffc61e"/><path d="m250.48009 309c-10.21727 0-18.50048 8.28273-18.50048 18.5v91h37v-91c0-10.21727-8.28225-18.5-18.49952-18.5z" fill="#db2927"/><path id="path14976-6-4" d="m98.47961 167.5c-6.07513 0-11 4.92487-11 11v30h22v-30c0-6.07513-4.92487-11-11-11z" fill="#db2927"/></g><g fill="#d40000"><use transform="translate(49)" xlink:href="#path14976-6-4"/><use transform="translate(255)" xlink:href="#path14976-6-4"/><use transform="translate(304)" xlink:href="#path14976-6-4"/><use transform="translate(0,83)" xlink:href="#path14976-6-4"/><use transform="translate(49,83)" xlink:href="#path14976-6-4"/><use transform="translate(255,83)" xlink:href="#path14976-6-4"/><use transform="translate(304,83)" xlink:href="#path14976-6-4"/></g></g><path d="m721.58607 252.5 226.89403 78.69141 226.8931-78.69141c-26.4709 0-30.2519 15.33594-56.7227 15.33594-26.4707 0-30.2538-15.33594-56.7246-15.33594s-30.2518 15.33594-56.7226 15.33594c-26.47091 0-30.25191-15.33594-56.72271-15.33594-26.47078 0-30.2538 15.33594-56.72461 15.33594s-30.25184-15.33594-56.72266-15.33594c-26.47085 0-30.25184 15.33594-56.72264 15.33594-26.47082 0-30.2538-15.33594-56.72461-15.33594z" fill="#216db0" stroke="#216db0" stroke-width="12"/><path d="m721.58509 252.5c-6.6749 0-11.87427 0.99744-16.39844 2.45117 4.71023 27.19443 13.81417 52.87401 26.63867 76.24024 17.7769 3.26561 23.87696 14.42578 46.48438 14.42578 26.47081 0 30.2518-15.33789 56.72265-15.33789 26.47082 0 30.25185 15.33789 56.72266 15.33789s30.25383-15.33789 56.72461-15.33789c26.47077 0 30.25187 15.33789 56.72268 15.33789 26.4708 0 30.2518-15.33789 56.7226-15.33789s30.2539 15.33789 56.7246 15.33789c22.6091 0 28.7069-11.16107 46.4864-14.42578 12.8242-23.36569 21.9283-49.04456 26.6386-76.23829-4.5254-1.45444-9.7251-2.45312-16.4023-2.45312-26.4709 0-30.2519 15.33594-56.7227 15.33594-26.4707 0-30.2538-15.33594-56.7246-15.33594s-30.2518 15.33594-56.7226 15.33594c-26.47081 0-30.25191-15.33594-56.72268-15.33594-26.47078 0-30.2538 15.33594-56.72461 15.33594s-30.25184-15.33594-56.72266-15.33594c-26.47085 0-30.25184 15.33594-56.72265 15.33594-26.47082 0-30.2538-15.33594-56.72461-15.33594z" fill="#cbcece"/></g></g></svg>
