<?xml version="1.0" encoding="UTF-8" standalone="no"?>
<svg
   xmlns:dc="http://purl.org/dc/elements/1.1/"
   xmlns:cc="http://creativecommons.org/ns#"
   xmlns:rdf="http://www.w3.org/1999/02/22-rdf-syntax-ns#"
   xmlns:svg="http://www.w3.org/2000/svg"
   xmlns="http://www.w3.org/2000/svg"
   xmlns:sodipodi="http://sodipodi.sourceforge.net/DTD/sodipodi-0.dtd"
   xmlns:inkscape="http://www.inkscape.org/namespaces/inkscape"
   inkscape:version="1.0 (4035a4fb49, 2020-05-01)"
   sodipodi:docname="svg.svg"
   id="svg275"
   version="1.0"
   viewBox="0 0 500 583.06305"
   style="clip-rule:evenodd;fill-rule:evenodd;image-rendering:optimizeQuality;shape-rendering:geometricPrecision;text-rendering:geometricPrecision"
   height="577"
   width="500"
   xml:space="preserve"><metadata
   id="metadata279"><rdf:RDF><cc:Work
       rdf:about=""><dc:format>image/svg+xml</dc:format><dc:type
         rdf:resource="http://purl.org/dc/dcmitype/StillImage" /></cc:Work></rdf:RDF></metadata><sodipodi:namedview
   inkscape:current-layer="Layer_x0020_1"
   inkscape:window-maximized="1"
   inkscape:window-y="-8"
   inkscape:window-x="-8"
   inkscape:cy="223.25447"
   inkscape:cx="258.89468"
   inkscape:zoom="1.0526108"
   showgrid="false"
   id="namedview277"
   inkscape:window-height="1017"
   inkscape:window-width="1920"
   inkscape:pageshadow="2"
   inkscape:pageopacity="0"
   guidetolerance="10"
   gridtolerance="10"
   objecttolerance="10"
   borderopacity="1"
   bordercolor="#666666"
   pagecolor="#ffffff" />
 <defs
   id="defs4"><style
     id="style2"
     type="text/css">
   <![CDATA[
    .str1 {stroke:#615128;stroke-width:0.216}
    .str0 {stroke:#1F1A17;stroke-width:0.510236}
    .fil0 {fill:#1F1A17}
    .fil4 {fill:#72706F}
    .fil2 {fill:#C2C1C1}
    .fil3 {fill:#DEDEDD}
    .fil6 {fill:#615128}
    .fil1 {fill:#BF9F4F}
    .fil5 {fill:#E8DD61}
   ]]>
  </style></defs>
 <g
   transform="matrix(1.0116959,0,0,1.0116959,-2.9395606,-0.35101856)"
   id="Layer_x0020_1"
   style="stroke-width:0.988439">
  <metadata
   id="CorelCorpID_0Corel-Layer" />
  <path
   style="fill:#000000;stroke:none"
   d="M 0.309827,0.34724374 499.72183,0.34696054 499.72098,343.64021 C 480.17208,653.64488 26.196977,655.06758 0.30897661,343.57537 V 0.34704706 Z"
   class="fil0 str0"
   id="path1937" />
  <path
   id="path8"
   d="m 232.333,565.091 -0.16186,-39.7899 c -7.99285,-4.80133 -8.33131,-10.5335 -9.3858,-17.5056 -12.8106,-1.21011 -12.5717,-11.4256 -16.0447,-21.0155 -1.56756,-2.73402 -6.40233,-4.17657 -13.5819,-7.02312 5.70246,-7.09824 7.99399,-7.68416 15.2473,-10.751 -40.724,-10.8369 -67.574,-29.7363 -87.3454,-53.5828 -49.691098,-59.9335 -46.425298,-159.363 -45.759098,-301.17 l 34.154898,0.36454 8.78117,14.171 c 1.58513,130.095 -4.8172,237.456 66.9028,274.498 15.0559,7.77629 33.5546,10.9715 56.2921,12.2752 l -0.44645,-13.0527 c -3.35906,-1.50151 -8.33386,-4.63465 -9.58027,-9.07994 -14.01959,-0.57544 -15.3043,-8.56829 -19.4729,-12.8704 -13.8042,-1.82041 -21.59459,-4.91641 -26.4053,-15.918 -13.8781,-0.26788 -21.6791,-6.55796 -25.4996,-14.1625 l 183.709,1.24044 c -3.82054,7.60451 -12.5518,15.4451 -26.43,15.713 -4.81068,11.0015 -12.6011,11.3066 -26.4053,13.127 -4.16863,4.92236 -8.24429,12.295 -22.2639,12.8704 -1.24639,4.44529 -6.2212,7.57843 -9.58026,9.07994 l -0.44645,13.0527 c 26.1488,0.24689 41.2362,-4.49915 56.2921,-12.2752 71.7197,-37.0423 65.6277,-129.208 68.1432,-271.707 l 14.6733,-16.3417 29.8134,-0.67465 c -4.27266,152.106 3.90218,240.666 -44.8288,298.999 -19.7714,23.8465 -49.4124,43.9864 -90.1364,54.8232 7.25329,3.0668 10.165,3.96284 15.8675,11.0611 -7.17959,2.84655 -9.8436,1.80822 -11.4112,4.54224 -3.47301,9.58989 -3.85427,23.5267 -16.6649,25.6672 -0.74438,8.21254 -4.49405,10.8437 -12.4869,15.645 l -0.16186,39.7899 h -35.3775 z"
   class="fil1"
   style="stroke-width:0.988439" />
  <path
   id="path10"
   d="m 182.526,161.1 134.948,1.24044 c 4.34183,7.53024 9.21742,12.4192 6.85389,21.7381 -2.08176,8.20829 10.1143,16.7859 5.37903,32.7994 -6.12596,20.7167 12.1861,24.7229 0.47622,45.7384 -8.83304,15.8528 4.86879,28.9942 -2.12287,40.4705 -6.99166,11.4764 -9.10319,12.2202 -7.291,23.7515 1.81219,11.5313 -0.008,15.3337 -5.77616,21.0294 h -124.887 c -7.61556,-5.38073 -12.8891,-13.8532 -10.404,-26.1556 2.48514,-12.3024 -12.0512,-25.8503 -7.55972,-39.3775 5.43515,-16.3684 -11.1722,-30.6374 -4.70636,-44.502 10.8672,-23.3022 -5.04737,-22.9587 5.84561,-42.3757 9.87336,-17.5995 0.44079,-16.7757 9.24492,-34.3571 z"
   class="fil2"
   style="stroke-width:0.988439" />
  <path
   id="path12"
   d="m 306.75,167.05 -5.27188,-1.24044 -113.811,-3.1011 c -1.7572,-0.7234 -2.27395,3.20457 0,3.41121 l 119.082,0.93033 z"
   class="fil3"
   style="stroke-width:0.988439;fill:#ffffff" />
  <path
   id="path14"
   d="m 270.777,173.873 -5.58199,-2.79099 -77.5276,-2.79099 c -1.7572,-0.7234 -2.27395,3.20457 0,3.41121 l 83.1096,2.17077 z"
   class="fil3"
   style="stroke-width:0.988439;fill:#ffffff" />
  <path
   id="path16"
   d="m 261.164,180.385 -10.8539,-2.17077 -64.1929,-2.79099 c -1.7572,-0.7234 -2.27395,3.20457 0,3.41121 l 75.0467,1.55055 z"
   class="fil3"
   style="stroke-width:0.988439;fill:#ffffff" />
  <path
   id="path18"
   d="m 247.519,195.891 -20.1572,-2.17077 -44.0357,-1.55055 c -1.7572,-0.7234 -2.89417,4.1349 1.86066,4.03144 l 62.3322,-0.31011 z"
   class="fil3"
   style="stroke-width:0.988439;fill:#ffffff" />
  <path
   id="path20"
   d="m 239.456,201.783 -20.1572,-2.17077 -40.9346,0.62022 c -1.7572,-0.7234 -1.96384,4.1349 2.79099,4.03144 l 58.3008,-2.48088 z"
   class="fil3"
   style="stroke-width:0.988439;fill:#ffffff" />
  <path
   id="path22"
   d="m 245.038,209.846 -23.5684,-2.17077 -43.7256,-0.93033 c -1.7572,-0.7234 -1.96384,4.1349 2.79099,4.03144 l 64.503,-0.93033 z"
   class="fil3"
   style="stroke-width:0.988439;fill:#ffffff" />
  <path
   id="path24"
   d="m 247.209,230.313 -23.5684,-2.17077 -43.7256,-0.93033 c -4.54819,-1.34362 -8.78627,5.06523 2.79099,4.03144 l 64.503,-0.93033 z"
   class="fil3"
   style="stroke-width:0.988439;fill:#ffffff" />
  <path
   id="path26"
   d="m 261.784,238.686 -44.3458,-3.1011 -43.7256,-0.93033 c -1.7572,-0.7234 -1.96384,4.1349 2.79099,4.03144 h 85.2804 z"
   class="fil3"
   style="stroke-width:0.988439;fill:#ffffff" />
  <path
   id="path28"
   d="m 240.387,247.369 -22.0178,-2.48088 -43.7256,-0.93033 c -1.7572,-0.7234 -1.96384,4.1349 2.79099,4.03144 l 62.9524,-0.62022 z"
   class="fil3"
   style="stroke-width:0.988439;fill:#ffffff" />
  <path
   id="path30"
   d="m 236.045,254.191 -36.9031,-2.79099 -22.3279,-0.62022 c -1.7572,-0.7234 -3.20429,4.44501 2.79099,3.72132 l 56.4401,-0.31011 z"
   class="fil3"
   style="stroke-width:0.988439;fill:#ffffff" />
  <path
   id="path32"
   d="m 251.551,273.728 -43.7256,-3.1011 h -24.8088 c -1.7572,-0.7234 -3.20429,4.44501 2.79099,3.72132 l 65.7434,-0.62022 z"
   class="fil3"
   style="stroke-width:0.988439;fill:#ffffff" />
  <path
   id="path34"
   d="m 252.791,281.791 -47.4469,-4.03144 h -24.8088 c -1.7572,-0.7234 -3.20429,5.06523 2.79099,4.34155 l 69.4647,-0.31011 z"
   class="fil3"
   style="stroke-width:0.988439;fill:#ffffff" />
  <path
   id="path36"
   d="m 233.874,288.614 -40.0042,-2.48088 -13.6449,-0.31011 c -1.7572,-0.7234 -3.20429,4.44501 2.79099,3.72132 l 50.8581,-0.93033 z"
   class="fil3"
   style="stroke-width:0.988439;fill:#ffffff" />
  <path
   id="path38"
   d="m 233.564,294.816 -43.1053,-2.48088 h -8.68309 c -1.7572,-0.7234 -2.58406,4.75512 3.41121,4.03144 l 48.3772,-1.55055 z"
   class="fil3"
   style="stroke-width:0.988439;fill:#ffffff" />
  <path
   id="path40"
   d="m 251.861,317.764 -4.34155,-1.24044 -58.3008,-1.86066 c -1.7572,-0.7234 -2.58406,4.75512 3.41121,4.03144 l 59.2311,-0.93033 z"
   class="fil3"
   style="stroke-width:0.988439;fill:#ffffff" />
  <path
   id="path42"
   d="m 257.443,324.896 4.03144,-1.24044 -74.4265,-2.48088 c -1.7572,-0.7234 -2.58406,4.75512 3.41121,4.03144 l 66.9838,-0.31011 z"
   class="fil3"
   style="stroke-width:0.988439;fill:#ffffff" />
  <path
   id="path44"
   d="m 246.589,330.789 -5.58199,-1.55055 -54.8895,-0.93033 c -1.7572,-0.7234 -2.58406,4.75512 3.41121,4.03144 l 57.0603,-1.55055 z"
   class="fil3"
   style="stroke-width:0.988439;fill:#ffffff" />
  <path
   id="path46"
   d="m 228.602,336.681 -0.62022,-1.55055 -39.6941,-0.93033 c -1.7572,-0.7234 -2.58406,4.75512 3.41121,4.03144 l 36.9031,-1.55055 z"
   class="fil3"
   style="stroke-width:0.988439;fill:#ffffff" />
  <path
   id="path48"
   d="m 268.018,173.252 -2.48088,-2.48088 49.9278,0.31011 c 1.7572,-0.7234 5.06495,6.30567 -4.34155,3.72132 l -43.1053,-1.55055 z"
   class="fil4"
   style="stroke-width:0.988439" />
  <path
   id="path50"
   d="m 261.195,180.385 -8.06287,-2.17077 62.9524,-0.93033 c 2.37742,-0.41329 5.06495,6.92589 -4.34155,4.34155 l -50.548,-1.24044 z"
   class="fil4"
   style="stroke-width:0.988439" />
  <path
   id="path52"
   d="m 256.233,187.828 -23.5684,-2.48088 85.2804,-0.62022 c 1.7572,-0.7234 3.82451,8.47645 -6.51232,5.27188 l -55.1996,-2.17077 z"
   class="fil4"
   style="stroke-width:0.988439" />
  <path
   id="path54"
   d="m 268.018,194.65 -12.7145,-0.93033 60.1614,0.31011 c 4.23808,-1.34362 6.6155,4.1349 -4.34155,2.17077 L 268.01805,194.65 Z"
   class="fil4"
   style="stroke-width:0.988439" />
  <path
   id="path56"
   d="m 246.31,210.156 19.8471,-2.79099 56.13,-0.31011 c 5.47852,-0.7234 9.09638,6.92589 -1.86066,4.96177 l -74.1164,-1.86066 z"
   class="fil4"
   style="stroke-width:0.988439" />
  <path
   id="path58"
   d="m 254.373,217.288 8.06287,-1.86066 h 57.6805 c 5.47852,-0.7234 8.47616,4.75512 -2.48088,2.79099 l -63.2625,-0.93033 z"
   class="fil4"
   style="stroke-width:0.988439" />
  <path
   id="path60"
   d="m 250.962,224.111 6.20221,-1.55055 61.4019,0.62022 c 5.47852,-0.7234 7.54583,5.37534 -3.41121,3.41121 z"
   class="fil4"
   style="stroke-width:0.988439" />
  <path
   id="path62"
   d="m 254.993,231.553 6.82243,-1.55055 49.6177,0.93033 c 5.47852,-0.7234 8.47616,4.75512 -2.48088,2.79099 l -53.9592,-2.17077 z"
   class="fil4"
   style="stroke-width:0.988439" />
  <path
   id="path64"
   d="m 258.094,252.331 16.746,-2.17077 50.8581,-0.31011 c 5.47852,-0.7234 7.54583,5.37534 -3.41121,3.41121 l -64.1929,-0.93033 z"
   class="fil4"
   style="stroke-width:0.988439" />
  <path
   id="path66"
   d="m 255.303,258.843 26.9796,-2.48088 h 40.6245 c 5.47852,-0.7234 7.54583,5.37534 -3.41121,3.41121 l -64.1929,-0.93033 z"
   class="fil4"
   style="stroke-width:0.988439" />
  <path
   id="path68"
   d="m 258.714,266.596 26.6695,-2.48088 h 32.8717 c 5.47852,-0.7234 7.54583,5.37534 -3.41121,3.41121 l -56.13,-0.93033 z"
   class="fil4"
   style="stroke-width:0.988439" />
  <path
   id="path70"
   d="m 260.575,272.178 22.0178,-1.24044 h 32.8717 c 5.47852,-0.7234 7.54583,5.37534 -3.41121,3.41121 l -51.4783,-2.17077 z"
   class="fil4"
   style="stroke-width:0.988439" />
  <path
   id="path72"
   d="m 258.094,291.094 22.6069,0.002 5.49496,-1.34306 -16.3176,-2.07043 48.9974,0.62022 c 5.47852,-0.7234 8.47616,6.61578 -2.48088,4.65166 l -58.3008,-1.86066 z"
   class="fil4"
   style="stroke-width:0.988439" />
  <path
   id="path74"
   d="m 265.537,300.088 13.6137,-0.61795 5.49496,-1.34306 -10.1154,-2.07043 42.7952,0.62022 c 5.47852,-0.7234 9.09638,9.71689 -2.48088,4.96177 l -49.3076,-1.55055 z"
   class="fil4"
   style="stroke-width:0.988439" />
  <path
   id="path76"
   d="m 262.436,308.771 13.6137,-0.61795 5.49496,-1.34306 -27.1715,-2.07043 59.8513,0.62022 c 5.47852,-0.7234 8.47616,5.37534 -2.48088,4.96177 l -49.3076,-1.55055 z"
   class="fil4"
   style="stroke-width:0.988439" />
  <path
   id="path78"
   d="m 252.822,315.593 19.1957,0.002 5.49496,-1.34306 -39.5759,-2.07043 72.2557,0.62022 c 5.47852,-0.7234 8.47616,5.37534 -2.48088,4.96177 l -54.8895,-2.17077 z"
   class="fil4"
   style="stroke-width:0.988439" />
  <path
   id="path80"
   d="m 265.227,334.2 8.65191,0.002 5.49496,-1.34306 -25.621,-2.38054 58.3008,0.93033 c 5.47852,-0.7234 9.40649,4.1349 -1.55055,3.72132 l -45.2761,-0.93033 z"
   class="fil4"
   style="stroke-width:0.988439" />
  <path
   id="path82"
   d="m 261.505,341.642 15.3873,-1.34079 -25.621,-2.38054 58.3008,0.93033 c 5.47852,-0.7234 9.40649,4.1349 -1.55055,3.72132 l -46.5166,-0.93033 z"
   class="fil4"
   style="stroke-width:0.988439" />
  <path
   id="path84"
   d="m 236.076,344.744 -17.3662,-2.48088 84.6601,1.86066 c 10.1075,-1.22145 5.7481,2.05909 -3.41121,2.79099 l -63.8827,-2.17077 z"
   class="fil4"
   style="stroke-width:0.988439" />
  <path
   id="path86"
   d="m 240.411,9.62845 -0.0278,27.7983 c -22.0646,-0.889512 -20.5302,13.1428 -52.6944,13.9039 l 0.0292,7.6921 c 13.8016,3.42227 32.8062,5.7481 34.8996,6.45676 l 0.34356,6.28838 c -11.7873,3.41263 -36.6758,7.39049 -36.6698,9.63553 l 0.1491,5.97487 c 15.698,0.995812 36.7892,0.411307 46.8014,1.32236 0.34611,4.41865 6.93922,6.7527 9.70526,8.42202 l -0.25087,2.28019 c -8.44186,0.09071 -14.7464,0.05924 -19.2135,5.98592 -19.8014,0.82375 -27.8802,-1.92217 -33.2309,6.97181 l -26.0093,0.48813 0.16753,7.8412 c 11.1716,3.41915 36.1157,4.11818 37.7853,8.09008 l 0.21232,8.17994 c -8.21566,4.37613 -44.4697,8.17937 -52.7465,11.8664 l -0.45667,8.47134 204.946,2.07468 -0.59641,-9.70838 c -8.27689,-3.68703 -47.9418,-9.08618 -56.1575,-13.4623 l -0.22677,-4.86822 c 1.66961,-3.97191 32.3589,-6.42643 43.5305,-9.84558 l 0.008,-7.94041 -26.947,-0.74778 c -5.35068,-9.03374 -15.8431,-6.74674 -35.6446,-7.57049 -4.46712,-5.926684 -9.49493,-5.576034 -17.9368,-5.666744 l 0.15647,-2.61666 c 4.7486,-1.79093 6.14523,-4.85859 9.93629,-7.60678 10.0123,-0.911056 32.6994,-0.0074 48.3973,-1.00318 l -0.0105,-6.45364 c 0.006,-2.24504 -28.4165,-7.24536 -40.2038,-10.658 l 0.0717,-6.56022 c 3.37011,-1.34702 24.7442,-1.74019 38.5458,-5.16246 l 0.18879,-8.33046 c -34.7176,0.196441 -35.2511,-14.9057 -57.3157,-14.0162 l 0.24406,-27.5264 c -6.83178,-6.46498 -13.3719,-5.0281 -19.779,0 z"
   class="fil1"
   style="stroke-width:0.988439" />
  <path
   id="path88"
   d="m 260.161,12.8361 0.0283,-3.20769 c -6.83178,-6.46498 -13.3719,-5.0281 -19.779,0 l -0.0252,25.5118 2.27395,1.69427 1.97632,-0.282331 v -26.5391 c 5.55251,-3.01153 9.97569,-1.88221 13.2695,3.38797 l 2.2561,-0.564945 z m -19.7785,24.5906 c -22.0646,-0.889512 -20.5302,13.1428 -52.6944,13.9039 l 0.0292,7.6921 2.14583,-0.731055 v -4.51729 l 74.8177,0.282331 -7.62293,-1.41165 h -37.55 l 35.2914,-1.12932 -51.1019,-0.282331 c 15.747,-3.89084 23.3456,-11.461 36.703,-11.2932 h 24.2805 c 9.88158,1.12932 22.5865,9.59925 33.0327,11.8579 l -29.9271,-0.282331 1.69399,2.25865 c 15.5798,0.233008 31.3943,0.231024 47.7278,-0.288567 l 0.0527,-2.31477 c -34.7176,0.196441 -35.2511,-14.9057 -57.3157,-14.0162 m 26.5969,36.1276 c 13.3588,3.13257 32.1211,6.77566 32.1163,8.59975 l -129.36,-0.157039 0.144,5.82208 c -1.01962,-0.05046 -2.02167,-0.106866 -3.00274,-0.168945 l -0.1491,-5.97487 c -0.006,-2.24504 24.8825,-6.2229 36.6698,-9.63553 l 47.367,0.640347 v 1.97632 l -12.7049,0.282331 v 1.97632 h -8.46993 l -3.6703,-2.54098 -13.5519,0.282331 -7.90526,-0.564662 v 1.69399 h 20.6102 l 3.95263,1.41165 h -21.1748 l 3.38797,1.41165 49.6902,1.97632 h 14.9635 l -18.3515,-2.82331 7.3406,-0.846993 16.0929,2.25865 6.77594,1.41165 -8.46993,-3.10564 -14.3989,-2.82331 2.09821,-1.10211 z m -48.3832,21.2658 c -1.37906,-0.814961 -2.71247,-1.76542 -3.64422,-2.9024 l 4.19159,-0.60378 10.4462,0.564662 1.41165,1.97632 -12.4053,0.965197 z m -1.29572,7.116953 h 30.8843 l -0.56778,-1.942023 c -2.05852,-0.147118 -4.36309,-0.132378 -7.00101,-0.160724 l -16.6076,0.146268 2.51547,-0.698741 -0.41924,-1.95647 -2.72098,0.06916 -0.25087,2.28019 c -7.38652,0.07937 -13.1369,0.0652 -17.4515,4.03058 l 0.43937,1.44595 1.95647,-0.13975 c 1.21124,-1.77052 4.2857,-2.79553 9.22337,-3.07446 z m 76.8969,11.2742 26.947,0.60803 -0.003,2.23228 -27.9578,-0.55899 25.2944,1.95647 -41.6449,-0.83849 -8.24514,1.95647 -117.388,-2.79496 -2.79496,1.11798 -0.41925,-0.97824 -0.83849,0.13975 v 3.63345 l -0.64233,1.74019 c -0.58053,-0.14882 -1.13443,-0.30331 -1.65799,-0.46347 l -0.16753,-7.8412 26.1491,-0.0689 123.369,0.15959 z m -114.489,43.507 -46.8156,-1.25773 0.13975,-5.86942 201.108,2.79411 -0.15024,-2.44942 c -8.27689,-3.68703 -47.9418,-9.08618 -56.1575,-13.4623 l -0.0213,3.05575 7.40665,2.37572 -21.2417,0.27949 -7.12715,1.11798 -0.13974,1.11798 h 34.0985 l 7.96564,2.51547 -35.3563,-0.69874 -10.2016,0.69874 18.1673,1.11798 -27.3906,0.41925 h -96.9852 l 6.56816,-1.53723 21.3815,-0.13975 0.97823,-0.55899 -4.47194,-0.41925 v -1.11798 l 12.2978,0.13975 4.89118,-1.11798 -8.52463,-1.11798 6.14892,-2.79496 55.8992,-1.11798 -53.1043,-0.97824 v -1.11798 l 38.291,-2.09622 -41.0859,-2.09622 -2.23597,3.63345 1.39748,0.69875 -2.5937,0.63722 c -8.21566,4.37613 -44.6094,8.03963 -52.8863,11.7267 l -0.31691,8.47134 47.1334,0.47708 2.93386,-1.32832 z m 78.8446,-51.2173 c 11.757,0.48897 20.2326,-0.16781 26.269,0.99156 l 3.88999,2.71134 -17.4685,-1.11798 -91.9543,0.97823 -2.93471,1.67698 -1.25773,-1.25773 1.83458,-2.3794 c 5.36797,-1.99786 13.3747,-0.87732 26.9881,-1.4434 l 54.6336,-0.15959 z"
   class="fil5"
   style="stroke-width:0.988439" />
  <polygon
   id="polygon90"
   points="214.709,76.9255 205.109,78.9018 218.097,79.4665 "
   class="fil1"
   style="stroke-width:0.988439" />
  <path
   id="path92"
   d="m 252.22,9.73078 -0.27751,17.7608 2.2201,-3.05263 -0.27751,-3.05263 1.11005,0.277512 -0.27752,11.933 1.66507,-1.11005 0.55503,-19.4258 c -1.57266,-2.2201 -3.14561,-3.33014 -4.7177,-3.33014 z"
   class="fil6 str1" />
  <path
   id="path94"
   d="m 241.675,43.3097 c -13.8756,1.38756 -17.4833,5.82775 -28.3062,6.66029 8.32536,-1.94258 11.933,-7.21531 28.3062,-6.66029 z"
   class="fil5"
   style="stroke-width:0.988439" />
  <polygon
   id="polygon96"
   points="287.742,49.415 278.306,44.4198 242.23,44.1423 235.569,44.6973 246.115,46.6399 225.024,47.7499 222.526,49.415 "
   class="fil6"
   style="stroke-width:0.988439" />
  <path
   id="path98"
   d="m 193.11,57.7403 c 41.4408,0.645166 83.1413,2.06986 123.77,0.277512 -3.79276,2.1274 -7.95572,3.14476 -12.488,3.05263 l -110.45,-1.66507 -0.83254,-1.66507 z"
   class="fil6"
   style="stroke-width:0.988439" />
  <polygon
   id="polygon100"
   points="270.312,70.4053 270.117,71.5802 248.27,71.4504 248.129,70.8126 264.019,70.6286 267.761,69.9509 241.12,69.6734 241.955,69.1662 268.989,68.823 261.944,67.906 237.022,67.7486 236.402,67.1758 241.622,66.8863 253.124,66.6856 224.161,66.1252 223.359,65.2332 275.531,64.4006 277.886,65.5036 276.609,66.4844 274.73,66.7968 274.061,67.6593 271.998,67.769 273.736,69.5727 "
   class="fil6"
   style="stroke-width:0.988439" />
  <polygon
   id="polygon102"
   points="244.734,83.7718 309.368,83.6122 309.368,84.8889 258.458,84.8889 "
   class="fil6"
   style="stroke-width:0.988439" />
  <polygon
   id="polygon104"
   points="252.713,86.804 303.303,86.804 302.824,86.1656 261.012,86.006 "
   class="fil6"
   style="stroke-width:0.988439" />
  <polygon
   id="polygon106"
   points="235.158,88.8787 270.108,88.8787 268.353,89.9958 235.318,89.9958 "
   class="fil6"
   style="stroke-width:0.988439" />
  <polygon
   id="polygon108"
   points="249.202,90.9533 263.406,90.9533 262.608,91.7513 251.277,91.7513 "
   class="fil6"
   style="stroke-width:0.988439" />
  <path
   id="path110"
   d="m 239.946,94.6239 3.83018,2.07468 15.9591,-0.319181 c 1.65005,-0.318047 3.19351,-0.742961 3.98977,-1.91509 l -23.779,0.159591 z"
   class="fil6"
   style="stroke-width:0.988439" />
  <polygon
   id="polygon112"
   points="253.83,93.1876 253.99,98.6137 252.394,98.6137 252.234,94.7835 "
   class="fil6"
   style="stroke-width:0.988439" />
  <polygon
   id="polygon114"
   points="256.384,93.028 256.543,98.4541 254.947,98.4541 254.788,94.6239 "
   class="fil6"
   style="stroke-width:0.988439" />
  <polygon
   id="polygon116"
   points="227.817,105.157 258.139,105.157 268.034,103.88 239.467,104.04 "
   class="fil6"
   style="stroke-width:0.988439" />
  <path
   id="path118"
   d="m 246.01,112.658 64.4746,-0.31918 -3.51099,-2.71304 c -29.0478,-2.34114 -51.7573,-0.67096 -76.1247,0.31918 l -3.3514,1.11713 60.3253,-0.79795 2.71304,1.11713 -42.7703,0.31918 -1.7555,0.95754 z"
   class="fil6"
   style="stroke-width:0.988439" />
  <polygon
   id="polygon120"
   points="167.811,120.478 265.959,120.318 167.97,119.36 167.651,117.445 340.009,120.956 337.456,121.914 310.006,121.595 309.846,123.35 232.285,123.031 282.716,121.914 172.12,121.595 "
   class="fil6"
   style="stroke-width:0.988439" />
  <polygon
   id="polygon122"
   points="245.212,136.117 248.245,136.756 294.845,136.117 287.185,137.713 221.752,137.235 217.124,136.756 245.851,136.756 240.744,135.32 282.716,134.522 247.925,134.043 249.202,133.085 240.744,133.404 246.968,132.287 206.272,131.649 238.669,131.17 228.934,130.532 253.192,130.053 218.082,128.936 204.038,127.18 296.281,128.617 298.675,129.734 295.803,131.968 295.643,133.245 254.469,132.606 290.376,133.883 290.217,135 "
   class="fil6"
   style="stroke-width:0.988439" />
  <polygon
   id="polygon124"
   points="287.663,156.066 301.069,155.588 242.978,154.63 246.489,153.832 307.931,154.47 321.018,155.268 322.773,156.226 "
   class="fil6"
   style="stroke-width:0.988439" />
  <polygon
   id="polygon126"
   points="289.259,152.875 241.861,152.715 256.703,151.917 326.763,152.715 334.743,154.79 286.706,153.353 "
   class="fil6"
   style="stroke-width:0.988439" />
  <polygon
   id="polygon128"
   points="185.685,149.523 337.456,152.077 352.936,153.672 322.614,152.077 182.972,150.321 "
   class="fil6"
   style="stroke-width:0.988439" />
  <polygon
   id="polygon130"
   points="240.078,529.155 239.379,528.037 265.792,528.456 265.652,529.714 264.394,530.552 255.45,530.692 254.751,530.273 243.991,529.853 247.345,529.294 "
   class="fil6"
   style="stroke-width:0.988439" />
  <polygon
   id="polygon132"
   points="240.497,535.583 240.916,535.024 266.211,534.884 266.071,536.142 263.695,536.701 256.289,536.841 255.45,536.142 244.41,536.282 247.764,535.723 "
   class="fil6"
   style="stroke-width:0.988439" />
  <polygon
   id="polygon134"
   points="240.078,529.155 239.379,528.037 265.792,528.456 265.652,529.714 264.394,530.552 255.45,530.692 254.751,530.273 243.991,529.853 247.345,529.294 "
   class="fil6"
   style="stroke-width:0.988439" />
  <polygon
   id="polygon136"
   points="240.497,532.648 239.798,531.53 266.211,531.95 266.071,533.207 264.813,534.046 255.869,534.186 255.171,533.766 244.41,533.347 247.764,532.788 "
   class="fil6"
   style="stroke-width:0.988439" />
  <polygon
   id="polygon138"
   points="265.372,539.496 251.817,539.775 256.568,538.937 242.593,538.797 242.174,537.959 265.512,538.238 "
   class="fil6"
   style="stroke-width:0.988439" />
  <polygon
   id="polygon140"
   points="251.397,543.549 242.034,543.409 241.895,542.71 265.093,542.011 264.953,543.269 "
   class="fil6"
   style="stroke-width:0.988439" />
  <polygon
   id="polygon142"
   points="253.913,547.741 243.572,547.462 241.475,546.763 264.953,546.483 264.813,547.741 "
   class="fil6"
   style="stroke-width:0.988439" />
  <polygon
   id="polygon144"
   points="255.59,551.514 246.506,551.375 244.41,550.536 264.674,551.095 264.534,552.353 "
   class="fil6"
   style="stroke-width:0.988439" />
  <polygon
   id="polygon146"
   points="265.512,554.309 257.668,554.036 256.289,553.191 245.249,552.772 243.152,551.934 265.512,552.912 "
   class="fil6"
   style="stroke-width:0.988439" />
  <polygon
   id="polygon148"
   points="258.367,556.691 245.528,555.288 243.572,554.449 265.372,555.707 265.372,557.104 "
   class="fil6"
   style="stroke-width:0.988439" />
  <polygon
   id="polygon150"
   points="264.953,560.458 250.699,560.458 255.171,559.759 242.593,559.899 240.637,559.2 264.953,559.061 "
   class="fil6"
   style="stroke-width:0.988439" />
  <rect
   id="rect152"
   height="0.69874102"
   width="12.4376"
   y="562.55402"
   x="250.55901"
   class="fil6"
   style="stroke-width:0.988439" />
  <path
   id="path154"
   d="m 232.951,525.801 h 33.819 c 2.32895,-1.16447 4.51843,-2.60844 6.56816,-4.33219 -5.45018,2.84173 -8.66438,2.60873 -13.1363,3.21421 l -27.9496,-0.13975 z"
   class="fil6"
   style="stroke-width:0.988439" />
  <polygon
   id="polygon156"
   points="243.572,522.307 264.813,522.447 270.822,521.329 243.851,521.329 "
   class="fil6"
   style="stroke-width:0.988439" />
  <polygon
   id="polygon158"
   points="246.646,516.857 264.394,517.695 264.394,518.534 232.811,517.556 231.553,518.534 254.751,519.372 246.926,520.211 269.285,520.211 265.372,519.512 272.08,518.813 271.242,516.857 248.603,516.298 "
   class="fil6"
   style="stroke-width:0.988439" />
  <path
   id="path160"
   d="m 224.007,507.773 12.0183,0.2795 -0.97824,0.83848 3.07446,0.13975 -0.69874,-0.69874 h 44.4399 l -1.11798,1.25773 c -13.6023,0.55899 -28.3224,0.2795 -42.4834,0.41925 l -9.50287,-0.83849 h -4.89118 z"
   class="fil6"
   style="stroke-width:0.988439" />
  <path
   id="path162"
   d="m 228.479,503.161 25.4342,0.2795 -6.84766,0.55899 32.9806,0.13975 c 2.09594,-0.2795 4.00592,-0.93175 5.72967,-1.95647 l -4.89118,-0.2795 -1.39748,0.41924 -49.3311,0.2795 -1.67698,0.55899 z"
   class="fil6"
   style="stroke-width:0.988439" />
  <polygon
   id="polygon164"
   points="237.842,500.786 244.829,499.808 233.51,500.087 240.218,498.69 245.947,499.109 276.971,498.829 284.099,498.41 286.754,499.249 285.077,500.786 277.67,501.764 267.608,501.345 264.394,501.624 "
   class="fil6"
   style="stroke-width:0.988439" />
  <polygon
   id="polygon166"
   points="276.692,487.51 247.065,487.23 247.205,487.929 223.588,488.069 220.793,488.767 279.627,488.907 "
   class="fil6"
   style="stroke-width:0.988439" />
  <rect
   id="rect168"
   height="0.69874102"
   width="20.4032"
   y="486.67099"
   x="222.74899"
   class="fil6"
   style="stroke-width:0.988439" />
  <rect
   id="rect170"
   height="0.41924399"
   width="49.051601"
   y="485.134"
   x="237.423"
   class="fil6"
   style="stroke-width:0.988439" />
  <polygon
   id="polygon172"
   points="209.054,482.758 230.156,483.317 214.923,484.156 292.903,483.736 295.278,482.619 "
   class="fil6"
   style="stroke-width:0.988439" />
  <polygon
   id="polygon174"
   points="199.97,479.963 296.396,479.963 296.396,481.64 207.796,481.501 "
   class="fil6"
   style="stroke-width:0.988439" />
  <path
   id="path176"
   d="m 208.406,469.006 c -7.25329,3.0668 -9.54482,3.65273 -15.2473,10.751 l 5.87594,0.97143 -1.32378,-1.72091 2.11805,-0.52951 106.432,1.32378 0.92665,-0.66189 -1.45616,-1.05902 h -40.9048 l 24.2252,-0.79427 -63.1443,0.26476 -1.45616,-0.39713 -23.0338,-0.66189 25.6813,-1.1914 -17.0765,-0.66558 -1.7212,-0.6582 5.29824,-0.57005 -1.45899,-1.32066 9.40706,-0.18057 16.2598,0.13465 -11.3581,1.30847 21.5654,-0.0337 41.5667,-0.26475 0.66189,-2.11805 h -80.7506 l 1.1914,1.98567 h -6.35414 c 0.4731,-1.30394 2.18608,-2.60759 4.07622,-3.9121 z m 23.7651,56.2952 0.16186,39.7899 h 3.40214 l 0.62022,-36.7623 -4.18422,-3.02769 z m 167.499,-404.77 24.8752,-0.69874 2.86951,-1.11543 c 0.038,-1.42583 0.0777,-2.71729 0.11792,-4.15389 l -29.8134,0.67465 -14.6733,16.34169 c -2.51547,142.499 3.57647,234.665 -68.1432,271.707 -15.0559,7.776 -30.1434,12.5221 -56.2921,12.2752 -6.1458,0.21005 -11.4525,0.48898 -17.1785,0 -21.3163,-1.22202 -38.9075,-4.10684 -53.4286,-10.87 l 6.09704,5.67666 2.23597,-0.55899 c 34.6502,16.0824 96.6765,26.8172 148.584,-23.5508 46.4916,-45.1128 43.433,-149.502 44.9674,-252.731 l 9.78237,-12.8568 m -55.9335,231.048 -183.709,-1.24044 c 3.82054,7.60451 12.8619,13.5845 27.0502,12.922 l 7.72243,-0.0505 v -3.41121 l -5.58199,0.62022 c -12.0376,3.10649 -19.4202,-0.35887 -25.1189,-6.20221 4.79849,2.85506 9.71405,4.77893 14.8853,4.65166 -7.34287,-2.02791 -12.2635,-4.35827 -13.6449,-7.13254 l 22.0178,0.93033 -17.5099,0.89972 3.86504,0.34072 56.7502,0.62022 -35.9728,-1.86066 14.5752,-0.31011 -19.2268,-0.62022 47.0795,-0.0306 -22.2707,0.65083 19.8471,0.93033 26.0493,-0.31011 -24.8088,2.17077 102.336,-0.62022 c 1.88844,-0.144 5.59361,-1.12677 5.66533,-2.94803 z m -222.676,63.7042 c -49.691099,-59.9335 -46.425299,-159.363 -45.759099,-301.17 l 34.154899,0.36454 8.78117,14.171 -2.20507,2.59909 h -1.24044 l -9.30331,-12.4044 -23.878499,-0.93033 c -5.37279,140.104 -2.13194,268.171 61.401899,311.971 l 3.41121,3.72132 -2.48088,0.62022 c -7.6269,-5.48674 -15.2541,-11.8006 -22.8818,-18.9422 z"
   class="fil5"
   style="stroke-width:0.988439" />
  <path
   id="path178"
   d="m 82.4468,144.447 c 3.57562,-8.77097 8.86621,-12.8863 17.9311,-6.76092 v 5.58511 l -1.46976,-0.58791 c -4.70353,-7.0543 -9.50486,-5.58425 -13.5218,1.76372 h -2.93953 z"
   class="fil5"
   style="stroke-width:0.988439" />
  <path
   id="path180"
   d="m 83.3287,147.387 c 5.53522,-8.77068 7.88599,-12.5921 14.9916,-6.46696 l -0.587906,3.23348 -2.35162,1.76372 c -4.70381,-5.88388 -5.09585,-5.42013 -9.11254,1.46976 h -2.93953 z"
   class="fil6"
   style="stroke-width:0.988439" />
  <path
   id="path182"
   d="m 93.6171,156.205 c 1.37169,-3.03732 2.44942,-6.95679 2.35162,-10.8763 h 2.35162 c 0.293669,3.91947 -0.196158,7.4469 -1.46976,10.5823 l -3.23348,0.29395 z"
   class="fil5"
   style="stroke-width:0.988439" />
  <path
   id="path184"
   d="m 95.6747,158.557 c 1.37169,-1.86151 5.09471,-7.83865 4.9972,-12.9339 h 2.35162 c 0.58904,5.10066 -2.93811,11.4721 -4.70325,12.64 l -2.64558,0.29395 z"
   class="fil6"
   style="stroke-width:0.988439" />
  <path
   id="path186"
   d="m 82.4468,173.247 c 0.925512,-12.4452 13.661,-18.4204 19.6948,-6.17301 l -0.88186,4.9972 -2.351619,-0.58791 c -2.64586,-13.5213 -10.9746,-7.64193 -15.2856,1.46976 l -1.17581,0.29396 z"
   class="fil5"
   style="stroke-width:0.988439" />
  <path
   id="path188"
   d="m 83.6227,173.835 c 4.1675,-7.53506 8.2406,-15.2257 13.8158,-6.76092 l 0.293953,5.87906 h -2.93953 c -2.05824,-6.47178 -5.09585,-7.4778 -7.93673,1.17581 l -3.23348,-0.29395 z"
   class="fil6"
   style="stroke-width:0.988439" />
  <path
   id="path190"
   d="m 91.5594,183.536 c 1.66224,-2.15462 2.1498,-5.28888 3.52743,-9.70045 l 2.05767,-0.88186 c 0.488977,6.53074 -1.34221,6.22035 -3.23348,10.8763 l -2.35162,-0.29395 z"
   class="fil5"
   style="stroke-width:0.988439" />
  <path
   id="path192"
   d="m 95.6747,187.357 c 0.486425,-1.56614 3.61984,-7.34655 4.9972,-12.9339 l 2.05767,-2.05767 c 0.25767,2.23143 0.0213,6.76403 -0.80447,8.93991 -1.06129,2.79723 -2.612133,5.10095 -3.604823,5.75774 l -2.64558,0.29395 z"
   class="fil6"
   style="stroke-width:0.988439" />
  <path
   id="path194"
   d="m 83.0348,204.112 c 0.925512,-12.4452 13.3671,-16.6567 19.4009,-4.40929 l 0.88186,4.9972 -2.35162,0.58791 c -2.645861,-13.5213 -13.326201,-11.7573 -16.755301,-1.46976 l -1.17581,0.29395 z"
   class="fil5"
   style="stroke-width:0.988439" />
  <path
   id="path196"
   d="m 85.5627,238.034 c 0.516756,-12.8531 13.0762,-17.4759 19.2246,-5.11455 l 0.88186,4.9972 -2.35162,0.58791 c -3.469321,-14.3447 -13.844401,-12.0986 -15.168501,0.29338 l -2.58633,-0.76394 z"
   class="fil5"
   style="stroke-width:0.988439" />
  <path
   id="path198"
   d="m 85.9153,266.774 c 0.516756,-12.8531 17.4841,-11.4812 19.9298,-0.17773 l 0.88186,5.17351 -2.35162,0.5879 c 0.108,-13.6536 -14.366601,-15.9613 -16.226401,-5.17238 l -2.2337,-0.4113 z"
   class="fil5"
   style="stroke-width:0.988439" />
  <path
   id="path200"
   d="m 89.4416,300.979 c 0.04564,-14.5619 21.0096,-16.4203 23.1035,-1.58825 l -1.76287,1.29458 -1.64636,-2.9384 c -3.23887,-11.2638 -17.1771,-6.29689 -18.3422,3.996 l -1.35213,-0.76394 z"
   class="fil5"
   style="stroke-width:0.988439" />
  <path
   id="path202"
   d="m 96.3179,329.542 c -1.27389,-15.8814 16.1782,-19.4882 18.8719,-4.05666 l 0.1766,3.41036 -1.47005,-4.52523 c -6.1081,-12.6017 -18.726201,-5.60948 -15.697401,6.64073 l -1.88107,-1.4692 z"
   class="fil5"
   style="stroke-width:0.988439" />
  <path
   id="path204"
   d="m 85.7384,203.104 c 3.10961,-7.00611 7.35903,-10.4652 12.9342,-2.00041 l -1.11657,4.82117 -3.29216,2.99736 c 3.23121,-8.05862 -3.86164,-14.5304 -6.70252,-5.87679 l -1.82296,0.0587 z"
   class="fil6"
   style="stroke-width:0.988439" />
  <path
   id="path206"
   d="m 88.2068,238.719 c 0.287433,-6.12454 6.53528,-14.4026 12.7579,-6.40829 l -1.29288,6.76063 -2.76321,1.23421 c 3.23121,-8.05862 -4.74321,-11.0041 -7.5841,-2.35049 l -1.1177,0.76394 z"
   class="fil6"
   style="stroke-width:0.988439" />
  <path
   id="path208"
   d="m 88.2068,267.988 c 0.288284,-5.55392 7.06366,-10.2453 13.2868,-4.29251 l 0.11764,6.23169 -2.763212,1.23421 c 3.230932,-7.26492 -6.68296,-11.9735 -9.52356,-3.93732 l -1.1177,0.76394 z"
   class="fil6"
   style="stroke-width:0.988439" />
  <path
   id="path210"
   d="m 91.9095,301.135 c 0.18,-6.64526 10.514,-14.6991 15.05,-3.23462 l -0.41131,6.05537 -2.76321,1.23421 c 3.75988,-10.9675 -7.917167,-12.8551 -10.757797,-4.8189 l -1.1177,0.76394 z"
   class="fil6"
   style="stroke-width:0.988439" />
  <path
   id="path212"
   d="m 98.2568,331.285 c -1.58315,-12.9926 10.1614,-14.8754 12.0526,-7.11355 l 0.11764,5.52643 -2.76321,1.23421 c 1.41279,-12.2312 -9.233302,-10.4837 -8.289362,-0.41102 l -1.1177,0.76393 z"
   class="fil6"
   style="stroke-width:0.988439" />
  <path
   id="path214"
   d="m 95.851,221.386 c 0.486425,-1.56614 3.44353,-7.52287 4.82088,-13.1102 l 2.4103,-3.11556 c 0.14542,3.79503 -1.04485,12.314 -4.58561,15.9319 l -2.64558,0.29395 z"
   class="fil6"
   style="stroke-width:0.988439" />
  <path
   id="path216"
   d="m 97.7905,253.123 c 0.486425,-1.56614 3.44353,-7.52287 4.82088,-13.1102 l 2.05767,-0.64715 c -0.38438,2.73742 -2.16255,9.19956 -5.29087,13.6398 l -1.58769,0.11764 z"
   class="fil6"
   style="stroke-width:0.988439" />
  <path
   id="path218"
   d="m 101.317,286.27 c 2.60221,-3.68192 2.20932,-6.99392 3.58668,-12.5813 l 2.05767,-3.46819 c -0.38438,2.73742 0.12954,10.6101 -3.88035,15.9319 l -1.764,0.11764 z"
   class="fil6"
   style="stroke-width:0.988439" />
  <path
   id="path220"
   d="m 106.606,314.48 c 2.60221,-3.68192 2.20932,-6.99392 3.58668,-12.5813 l 2.05767,-0.64715 c -0.38438,2.73742 0.12954,7.78904 -3.88035,13.1108 l -1.764,0.11764 z"
   class="fil6"
   style="stroke-width:0.988439" />
  <path
   id="path222"
   d="m 110.133,346.041 c 2.82246,-7.01433 4.73868,-10.5517 3.93931,-17.3418 l 1.52873,0.41074 c 0.36454,3.4869 0.96662,12.1533 -3.70403,16.8134 l -1.764,0.11764 z"
   class="fil6"
   style="stroke-width:0.988439" />
  <path
   id="path224"
   d="m 92.6173,217.212 c 1.66224,-2.15462 2.1498,-5.28888 3.52743,-9.70045 l 1.1761,-2.8e-4 c 0.488977,6.53074 -1.51852,7.9835 -2.35191,9.99468 l -2.35162,-0.29396 z"
   class="fil5"
   style="stroke-width:0.988439" />
  <path
   id="path226"
   d="m 95.4383,249.301 c 1.13329,-2.68356 0.915591,-4.93625 2.29323,-9.34782 l 1.1761,-2.8e-4 c 0.488977,6.53074 -1.51852,7.9835 -2.35191,9.99468 l -1.11742,-0.64659 z"
   class="fil5"
   style="stroke-width:0.988439" />
  <path
   id="path228"
   d="m 98.9646,282.096 c 1.13329,-2.68356 1.09191,-6.34677 1.58797,-10.9347 l 1.52873,-0.35291 c 0.48898,6.53074 -1.69484,11.8624 -2.52822,13.8736 l -0.588473,-2.58605 z"
   class="fil5"
   style="stroke-width:0.988439" />
  <path
   id="path230"
   d="m 103.372,311.355 c 1.13329,-1.59506 0.38665,-3.42 0.88271,-6.14693 l 1.88136,-0.20976 c 0.48898,3.88205 -1.69484,7.05118 -2.52822,8.24656 l -0.23584,-1.88986 z"
   class="fil5"
   style="stroke-width:0.988439" />
  <path
   id="path232"
   d="m 107.428,341.867 c 1.13329,-2.68356 1.09191,-6.34677 1.58797,-10.9347 l 1.52873,-0.35291 c 0.48898,6.53074 -1.69484,11.8624 -2.52822,13.8736 l -0.58847,-2.58605 z"
   class="fil5"
   style="stroke-width:0.988439" />
  <path
   id="path234"
   d="m 102.248,119.868 3.5263,0.17631 8.99207,12.5184 c -2.28954,130.28801 7.59374,233.86501 51.1314,263.59101 l -1.93947,0.17631 c -46.1259,-30.3137 -56.7281,-134.478 -54.4814,-265.354 l -7.22892,-11.1078 z"
   class="fil6"
   style="stroke-width:0.988439" />
  <path
   id="path236"
   d="m 423.432,120.931 h -3.82139 c -3.57676,129.781 6.12397,230.757 -41.0652,287.19 -43.31,51.7938 -116.337,61.1459 -173.117,50.5542 -17.9357,-3.34545 -33.6405,-8.69386 -53.0212,-21.1567 h -2.93953 c 13.445,11.2326 30.6403,21.0067 58.2027,26.7497 l 2.05767,1.17581 -2.35162,1.17581 8.23068,0.58791 -4.9972,0.88185 -3.52743,1.76372 25.2799,-0.5879 h 61.7301 l -1.76372,-1.17581 8.52463,-2.64558 -17.3432,0.29395 c 58.5494,-11.0806 101.216,-40.9598 122.845,-99.6537 17.3118,-46.9775 16.9659,-124.302 17.0762,-245.153 z"
   class="fil6"
   style="stroke-width:0.988439" />
  <polygon
   id="polygon238"
   points="212.669,358.151 174.16,355.212 177.688,357.269 "
   class="fil5"
   style="stroke-width:0.988439" />
  <polygon
   id="polygon240"
   points="325.84,359.033 325.546,360.797 287.038,360.209 322.606,359.621 277.926,358.739 279.689,357.563 250.882,358.151 258.525,356.975 240.887,356.387 297.032,356.093 260.288,355.212 332.601,354.918 332.895,356.975 331.425,356.975 331.131,359.033 "
   class="fil6"
   style="stroke-width:0.988439" />
  <polygon
   id="polygon242"
   points="185.33,363.442 277.044,365.206 317.021,366.382 316.433,368.439 187.976,366.676 191.797,365.206 256.173,366.382 187.682,364.324 "
   class="fil6"
   style="stroke-width:0.988439" />
  <polygon
   id="polygon244"
   points="261.17,374.025 248.236,372.555 266.755,371.379 268.225,372.849 274.398,371.673 302.618,371.967 305.263,373.143 304.381,374.906 298.208,374.319 299.09,376.67 268.519,376.082 269.107,375.494 249.706,374.613 "
   class="fil6"
   style="stroke-width:0.988439" />
  <polygon
   id="polygon246"
   points="232.363,380.492 248.824,379.904 240.594,378.728 290.272,379.61 289.39,382.549 284.099,381.667 285.862,383.431 284.392,384.607 244.415,382.843 259.994,381.667 "
   class="fil6"
   style="stroke-width:0.988439" />
  <polygon
   id="polygon248"
   points="254.703,386.959 275.868,387.252 279.983,388.134 278.219,389.898 269.989,390.192 254.409,388.722 239.418,387.84 "
   class="fil6"
   style="stroke-width:0.988439" />
  <polygon
   id="polygon250"
   points="232.069,393.132 266.461,394.013 265.873,391.662 234.127,391.956 "
   class="fil6"
   style="stroke-width:0.988439" />
  <polygon
   id="polygon252"
   points="264.992,398.129 260.288,399.305 238.83,400.186 244.415,402.832 258.231,402.244 "
   class="fil6"
   style="stroke-width:0.988439" />
  <polygon
   id="polygon254"
   points="257.055,398.717 257.055,412.826 254.997,409.299 255.291,402.244 253.821,402.538 253.821,413.12 252.058,409.299 251.764,401.068 "
   class="fil6"
   style="stroke-width:0.988439" />
  <rect
   id="rect256"
   height="0.587906"
   width="41.741299"
   y="359.327"
   x="231.481"
   class="fil6"
   style="stroke-width:0.988439" />
  <path
   id="path258"
   d="m 261.464,370.791 -65.5515,-1.76372 c -3.1354,-0.19587 -3.33128,2.54778 0,2.64558 h 57.3208 l 8.23068,-0.88186 z"
   class="fil5"
   style="stroke-width:0.988439" />
  <path
   id="path260"
   d="m 234.714,374.613 -37.9199,-1.46976 c -3.1354,-0.19587 -3.33128,2.54778 0,2.64558 h 57.3208 l -19.4009,-1.17581 z"
   class="fil5"
   style="stroke-width:0.988439" />
  <path
   id="path262"
   d="m 243.533,385.489 -22.3404,-1.17581 c -3.1354,-0.19587 -3.33128,2.54778 0,2.64558 l 31.159,-0.58791 -8.81859,-0.88186 z"
   class="fil5"
   style="stroke-width:0.988439" />
  <path
   id="path264"
   d="m 254.05,396.071 -18.0386,-1.17581 c -2.53162,-0.19587 -2.6898,2.54778 0,2.64558 l 25.1589,-0.58791 -7.12035,-0.88185 z"
   class="fil5"
   style="stroke-width:0.988439" />
  <path
   id="path266"
   d="m 232.816,389.604 -10.0213,-1.17581 c -1.40655,-0.19587 -1.49443,2.54778 0,2.64558 l 13.9771,-0.58791 -3.95575,-0.88186 z"
   class="fil5"
   style="stroke-width:0.988439" />
  <polygon
   id="polygon268"
   points="245.003,404.008 245.885,414.002 243.239,413.414 242.651,404.89 "
   class="fil5"
   style="stroke-width:0.988439" />
  <path
   id="path270"
   d="m 262.64,489.548 -44.6808,-0.88186 c -3.23348,-0.49011 -5.58511,3.72331 -2.35162,3.82139 -0.58791,2.74337 0,4.70268 1.76372,5.87906 l 1.17581,2.35162 23.2223,0.58791 -18.813,-2.35162 17.6372,-0.58791 -11.7581,-1.46976 6.76092,-1.46976 -16.1674,-1.46976 -0.88186,-1.46976 7.93673,0.29395 -7.05487,-1.17581 40.8595,-0.88186 2.35162,-1.17581 z"
   class="fil5"
   style="stroke-width:0.988439" />
  <polygon
   id="polygon272"
   points="230.305,518.355 230.011,517.18 248.53,515.416 230.893,514.828 234.42,513.652 262.346,513.064 275.574,512.476 230.599,510.419 225.602,511.301 227.366,515.416 227.954,520.119 230.893,521.001 240.887,521.295 244.709,520.707 "
   class="fil5"
   style="stroke-width:0.988439" />
 </g>
</svg>
