<?xml version="1.0" encoding="UTF-8" standalone="no"?>
<svg
   xmlns:dc="http://purl.org/dc/elements/1.1/"
   xmlns:cc="http://creativecommons.org/ns#"
   xmlns:rdf="http://www.w3.org/1999/02/22-rdf-syntax-ns#"
   xmlns:svg="http://www.w3.org/2000/svg"
   xmlns="http://www.w3.org/2000/svg"
   width="500"
   height="570"
   viewBox="0 0 132.29166 150.8125"
   version="1.1"
   id="svg847">
  <path
     id="path1582"
     style="fill:#ee0c0c;fill-opacity:1;fill-rule:evenodd;stroke:none;stroke-width:0.264583px;stroke-linecap:butt;stroke-linejoin:miter;stroke-opacity:1"
     d="m 0,0 v 84.666662 c 0,5.847949 0.76717,11.51515 2.19185,16.915488 0,0 16.9267,9.09461 63.95399,9.09461 47.0273,0 63.954,-9.09461 63.954,-9.09461 1.42466,-5.400338 2.19182,-11.067539 2.19182,-16.915488 V 0 Z" />
  <defs
     id="defs841" />
  <metadata
     id="metadata844">
    <rdf:RDF>
      <cc:Work
         rdf:about="">
        <dc:format>image/svg+xml</dc:format>
        <dc:type
           rdf:resource="http://purl.org/dc/dcmitype/StillImage" />
        <dc:title></dc:title>
      </cc:Work>
    </rdf:RDF>
  </metadata>
  <path
     style="fill:#d4d4d4;fill-opacity:1;fill-rule:evenodd;stroke:none;stroke-width:0.132292;stroke-linecap:butt;stroke-linejoin:miter;stroke-miterlimit:4;stroke-dasharray:none;stroke-opacity:1"
     d="m 72.1826,80.763031 c 1.59651,-1.737669 4.74903,-0.41663 6.54588,2.115909 1.79685,2.53254 1.97875,5.400227 5.25571,7.203655 3.27696,1.803428 11.16791,2.760021 12.07685,-2.187188 -5.14964,-0.06028 -9.34721,-1.558724 -10.57403,-6.675181 -0.80713,-3.36614 -1.89724,-5.746234 -4.88441,-6.88084 -2.98719,-1.134606 -6.51492,-1.944439 -6.60581,-4.402467 -0.0909,-2.458028 1.11468,-4.645599 2.28357,-5.812482 3.093,2.496487 4.45515,4.668272 9.3091,4.872472 4.85394,0.2042 6.4923,2.557422 6.85274,5.858573 0.36044,3.301152 1.13471,5.662044 4.29396,6.461134 3.15927,0.799091 4.41333,2.166624 5.37825,4.157479 0.96492,1.990856 1.80068,3.3192 2.47693,4.997014 1.02598,-0.539944 1.70717,-1.576181 1.85065,-3.454024 0.14347,-1.877844 -0.37443,-4.368406 -1.52146,-6.36746 -1.14702,-1.999054 -2.76211,-2.813011 -4.09981,-3.896718 -1.33769,-1.083706 -2.43151,-2.901803 -2.37528,-7.78409 6.13624,-3.269261 10.9054,-1.295156 11.19903,3.056712 0.29365,4.351869 3.47605,5.587873 6.06146,6.94325 2.97144,1.557752 4.12939,4.796156 1.3296,9.154494 3.03082,0.05442 5.5879,-1.79103 6.16994,-5.014953 0.58204,-3.223922 -0.81005,-6.211853 -3.25082,-7.911348 -2.44077,-1.699495 -2.59443,-2.730558 -2.91105,-4.207673 8.1643,-0.97814 10.6503,-7.518504 10.70497,-11.142846 0.0442,-2.931528 -0.88371,-8.051872 -6.8689,-8.50567 4.43869,8.76271 -1.36601,11.553215 -5.06323,11.496273 -3.69722,-0.05694 -6.28433,-4.375149 -11.81712,-4.57989 C 99.25311,58.08153 99.31516,60.227813 94.7781,59.717621 90.24102,59.207429 86.54485,54.895951 85.88733,46.670245 85.2298,38.44454 84.32505,12.110798 84.32505,12.110798 h -0.6817 l -7.53966,8.521507 -4.04961,-8.521507 H 47.96661 c 0,0 -0.90475,26.333742 -1.56227,34.559447 -0.65753,8.225706 -4.3537,12.537184 -8.89078,13.047376 -4.53706,0.510192 -4.47501,-1.636091 -9.22122,-1.460455 -5.53279,0.204741 -8.1199,4.522946 -11.81711,4.57989 -3.69723,0.05694 -9.50193,-2.733563 -5.06324,-11.496273 -5.98518,0.453798 -6.91309,5.574142 -6.8689,8.50567 0.0547,3.624342 2.54067,10.164706 10.70497,11.142846 -0.31662,1.477115 -0.47028,2.508178 -2.91105,4.207673 -2.44076,1.699495 -3.83286,4.687426 -3.25081,7.911348 0.58203,3.223923 3.13912,5.069372 6.16994,5.014953 -2.79979,-4.358338 -1.64185,-7.596742 1.3296,-9.154494 2.58541,-1.355377 5.7678,-2.591381 6.06145,-6.94325 0.29364,-4.351868 5.0628,-6.325973 11.19903,-3.056712 0.0562,4.882287 -1.03759,6.700384 -2.37528,7.78409 -1.3377,1.083707 -2.95279,1.897664 -4.09981,3.896718 -1.14703,1.999054 -1.66493,4.489616 -1.52145,6.36746 0.14347,1.877843 0.82466,2.91408 1.85065,3.454024 0.67624,-1.677814 1.512,-3.006158 2.47692,-4.997014 0.96492,-1.990855 2.21898,-3.358389 5.37825,-4.157479 3.15926,-0.79909 3.93353,-3.159982 4.29397,-6.461134 0.36044,-3.301151 1.99879,-5.654373 6.85273,-5.858573 4.85395,-0.2042 6.21611,-2.375985 9.3091,-4.872472 1.16889,1.166883 2.37445,3.354454 2.28357,5.812482 -0.0909,2.458028 -3.61862,3.267861 -6.6058,4.402467 -2.98718,1.134606 -4.07729,3.5147 -4.88441,6.88084 -1.22683,5.116457 -5.4244,6.614901 -10.57404,6.675181 0.90895,4.947209 8.79989,3.990616 12.07685,2.187188 3.27697,-1.803428 3.45886,-4.671115 5.25571,-7.203655 1.79685,-2.532539 4.94937,-3.853578 6.54589,-2.115909 1.59652,1.737668 -1.01006,12.473981 6.03676,19.04355 7.04683,-6.569569 4.44024,-17.305882 6.03677,-19.04355 z"
     id="use1538" />
  <path
     id="path1344"
     style="fill:#d4d4d4;fill-opacity:1;fill-rule:evenodd;stroke:none;stroke-width:0.264583px;stroke-linecap:butt;stroke-linejoin:miter;stroke-opacity:1"
     d="m 66.14584,150.8125 c 30.68339,0 56.47891,-20.89549 63.95856,-49.23048 -1.31157,-0.8286 -2.10124,-1.53873 -4.73347,-1.53873 -5.92251,0 -5.92251,4.73417 -11.84503,4.73417 -5.92251,0 -5.92251,-4.73417 -11.84503,-4.73417 -5.92252,0 -5.92252,4.73417 -11.84505,4.73417 -5.9225,0 -5.9225,-4.73417 -11.84503,-4.73417 -5.9225,0 -5.9225,4.73417 -11.84504,4.73417 -5.92251,0 -5.92251,-4.73417 -11.84502,-4.73417 -5.92253,0 -5.92253,4.73417 -11.84504,4.73417 -5.92252,0 -5.92252,-4.73417 -11.84503,-4.73417 -5.92252,0 -5.92252,4.73417 -11.84505,4.73417 -5.9225,0 -5.9225,-4.73417 -11.845,-4.73417 -2.63225,0 -3.42192,0.71013 -4.7334,1.53873 7.47971,28.33499 33.27524,49.23048 63.95863,49.23048 z" />
</svg>
