<?xml version="1.0" encoding="UTF-8" standalone="no"?>
<!-- Created with Inkscape (http://www.inkscape.org/) -->

<svg
   width="499.99997"
   height="535"
   viewBox="0 0 132.29166 141.55208"
   version="1.1"
   id="svg5"
   xml:space="preserve"
   xmlns="http://www.w3.org/2000/svg"
   xmlns:svg="http://www.w3.org/2000/svg"><defs
     id="defs2" /><path
     style="font-variation-settings:normal;vector-effect:none;fill:#045cd2;fill-opacity:1;stroke:none;stroke-width:0.166483;stroke-linecap:butt;stroke-linejoin:miter;stroke-miterlimit:4;stroke-dasharray:none;stroke-dashoffset:0;stroke-opacity:1;-inkscape-stroke:none;stop-color:#000000"
     d="m 0,0 c 0,0 4.805649,61.335265 6.90641,88.147585 2.100749,26.812335 26.157054,53.404485 59.239414,53.404485 33.082374,0 57.138676,-26.59215 59.239436,-53.404485 L 132.29166,0 Z"
     id="path1691" /><path
     style="color:#000000;fill:#033e8d;fill-opacity:1;stroke-width:1.26009;-inkscape-stroke:none"
     d="m 123.41913,13.14777 c 0.6558,7.979088 -1.89446,15.379785 -9.85678,21.694725 -7.89589,6.26226 -16.109472,5.24896 -22.730862,8.6779 -6.55995,3.39709 -9.34786,9.41882 -9.82724,15.665 -0.22829,2.97481 -0.64368,4.81364 -1.19856,5.94853 -0.55488,1.13487 -1.1902,1.62093 -2.19285,2.07471 l -0.49223,0.22396 0.003,0.53899 c 0,0 0.12248,34.710235 -0.67189,45.331305 -0.40374,5.3979 -1.29447,10.3786 -2.94842,13.9053 -1.65395,3.5267 -3.896237,5.54489 -7.356264,5.54489 l -3.39,0.094 c 4.5999,2.75054 9.466474,0.18195 11.590594,-3.5132 2.60155,-4.52565 3.35396,-10.4054 3.76534,-15.90552 0.80546,-10.76887 0.67996,-44.201715 0.67681,-45.013825 1.00045,-0.55035 1.90145,-1.29688 2.5128,-2.54725 0.71492,-1.46222 1.13014,-3.48167 1.36592,-6.55395 0.44881,-5.84797 2.90639,-11.19379 8.93139,-14.31386 5.96355,-3.08827 14.602022,-2.1904 22.999132,-8.85018 8.33068,-6.6071 11.17445,-14.713107 10.48189,-23.139398 -0.34647,-4.215366 -1.36452,-6.683985 -3.45421,-7.170437 0.41841,1.333848 1.46519,3.32099 1.79291,7.30831 z M 32.536268,17.235685 C 23.361749,13.820377 20.362856,9.777579 14.61442,6.505217 c 1.949171,3.021778 6.52274,8.833396 17.921848,10.730468 z m -14.326157,18.26024 c 4.991134,6.84171 16.107434,7.12259 22.866229,8.76403 -6.238707,-4.16851 -14.452282,-3.15521 -22.866229,-8.76403 z m 45.563873,82.542145 c 1.4e-4,-1.32018 1.05233,-2.37265 2.37252,-2.37252 1.31999,1.4e-4 2.70753,0.65621 3.205597,2.37126 0.832857,-2.22204 -0.984817,-4.03972 -3.205597,-4.03996 v 6e-5 c -2.2211,-2.2e-4 -4.04093,1.8176 -4.04116,4.0387 -2.1e-4,2.2214 1.81975,4.04136 4.04116,3.20806 -1.78242,-0.54091 -2.37265,-1.88522 -2.37252,-3.2056 z"
     id="path21742" /><path
     id="path10083"
     style="font-variation-settings:normal;fill:#cccccc;fill-opacity:1;stroke:none;stroke-width:0.1667;stroke-linecap:butt;stroke-linejoin:miter;stroke-miterlimit:4;stroke-dasharray:none;stroke-dashoffset:0;stroke-opacity:1;stop-color:#000000"
     d="m 12.144346,5.342139 c -1.860047,3.75e-4 -3.639517,2.097202 -4.103024,7.736554 -0.674192,8.202695 2.022164,15.956152 10.168676,22.417182 8.14651,6.46102 16.574017,5.50549 22.866495,8.7641 6.292478,3.25859 8.914722,8.9422 9.378807,14.98928 0.464081,6.04711 1.661695,7.71572 3.880323,8.71984 0,0 -0.130216,34.635885 0.674612,45.396335 0.815118,10.89804 3.534154,20.22014 11.135669,20.22014 7.601504,0 10.320544,-9.3221 11.135654,-20.22014 0.80483,-10.76045 0.67396,-45.396335 0.67396,-45.396335 2.21863,-1.00412 3.41689,-2.67273 3.88097,-8.71984 0.46409,-6.04708 3.08633,-11.73069 9.37881,-14.98928 6.29248,-3.25861 14.719332,-2.30308 22.865852,-8.7641 8.1465,-6.46103 10.84351,-14.214487 10.16933,-22.417182 -0.6742,-8.202695 -4.13295,-8.910329 -6.57357,-6.573564 -2.6406,2.52823 -6.92809,8.075094 -17.922162,10.731287 -10.99407,2.656194 -22.86112,2.92115 -33.608844,2.92115 -10.747746,0 -22.614787,-0.264956 -33.608858,-2.92115 C 21.542975,14.580223 17.254828,9.033359 14.614235,6.505129 13.85154,5.774891 12.989822,5.341969 12.144346,5.342139 Z M 66.145904,114.83122 a 3.2060415,3.2060415 0 0 1 3.205707,3.20571 3.2060415,3.2060415 0 0 1 -3.205707,3.20634 3.2060415,3.2060415 0 0 1 -3.20637,-3.20634 3.2060415,3.2060415 0 0 1 3.20637,-3.20571 z" /><g
     id="g1893"
     transform="matrix(1.2600915,0,0,1.2600915,-51.891091,-100.4229)"><path
       style="color:#000000;opacity:1;fill:#033e8d;fill-opacity:1;stroke-miterlimit:10;-inkscape-stroke:none"
       d="m 59.064453,142.3902 c 0.934835,4.51729 3.216617,4.90541 5.293922,4.26466 -2.508203,-0.93193 -3.241061,-2.46405 -3.241235,-4.26466 -2.57e-4,-1.80085 1.438211,-3.23844 3.240235,-3.23828 1.801779,8e-5 3.357123,0.64405 4.266602,3.23828 l 0.154968,4.37968 -15.470031,4.45226 -10.465171,3.58962 0.761229,0.90683 16.219572,-2.88001 4.533253,14.3952 1.151015,-0.16437 5.231937,-13.98574 17.146321,2.70798 -11.121445,-13.40103 9.426945,-11.2081 -0.319642,-1.21336 -14.869582,2.89769 -5.553144,-15.3167 -1.092129,-0.003 z"
       id="path2685"
       transform="matrix(0.64433642,0.01140197,-0.01140583,0.64455388,24.013781,40.407006)" /><path
       id="path1745"
       style="opacity:1;fill:#cccccc;stroke:none;stroke-width:0.205248;stroke-linecap:square;stroke-miterlimit:10;stop-color:#000000"
       d="m 64.358073,117.54757 -5.532409,15.26037 -15.982176,-2.83846 10.449509,12.4209 -10.449254,12.4218 15.981933,-2.83866 5.532121,15.26026 5.53321,-15.26038 15.981375,2.83847 -10.448708,-12.42092 10.449254,-12.42179 -15.981933,2.83866 z m 1.56e-4,20.57825 a 4.2661896,4.2647502 0.00156664 0 1 4.266004,4.26515 4.2661896,4.2647502 0.00156664 0 1 -4.265791,4.26455 4.2661896,4.2647502 0.00156664 0 1 -4.266791,-4.26434 4.2661896,4.2647502 0.00156664 0 1 4.266578,-4.26536 z"
       transform="matrix(0.64433642,0.01140197,-0.01140583,0.64455388,24.013781,40.407006)" /><path
       id="path1898"
       style="color:#000000;opacity:1;fill:#ffffff;stroke-miterlimit:10;-inkscape-stroke:none"
       d="m 64.358073,117.54757 -5.532409,15.26037 -15.982176,-2.83846 10.449509,12.4209 -10.449254,12.4218 1.575812,-0.27962 10.215211,-12.14186 -9.183765,-10.91598 14.044844,2.4943 5.407766,-14.91661 z m 21.514855,12.42159 -15.981933,2.83866 0.354977,0.97906 14.595627,-2.59126 z m -20.686431,8.00892 c -0.287651,0.008 -0.566662,0.0556 -0.828268,0.14774 a 4.2661896,4.2647502 0.00156664 0 1 4.266004,4.26515 4.2661896,4.2647502 0.00156664 0 1 -4.265791,4.26455 4.2661896,4.2647502 0.00156664 0 1 -4.266777,-4.26354 l -1.4e-5,-8e-4 -8.16e-4,-7.9e-4 c -0.73481,2.08413 1.358263,5.29174 4.26893,5.29133 2.910293,-2.7e-4 5.290092,-2.38138 5.29023,-5.29126 2.38e-4,-2.54647 -2.448085,-4.46673 -4.463498,-4.41238 z m -5.335072,13.81294 -1.025749,0.1825 5.532121,15.26026 0.545208,-1.50409 z"
       transform="matrix(0.64433642,0.01140197,-0.01140583,0.64455388,24.013781,40.407006)" /></g><g
     id="g2734"
     transform="matrix(1.2593817,-0.0422886,0.0422886,1.2593817,17.655343,-97.596215)"><path
       style="color:#000000;opacity:1;fill:#033e8d;fill-opacity:1;stroke-miterlimit:10;-inkscape-stroke:none"
       d="m 59.064453,142.3902 c 0.934835,4.51729 3.216617,4.90541 5.293922,4.26466 -2.508203,-0.93193 -3.241061,-2.46405 -3.241235,-4.26466 -2.57e-4,-1.80085 1.438211,-3.23844 3.240235,-3.23828 1.801779,8e-5 3.357123,0.64405 4.266602,3.23828 l 0.154968,4.37968 -15.470031,4.45226 -10.465171,3.58962 0.761229,0.90683 16.219572,-2.88001 4.533253,14.3952 1.151015,-0.16437 5.231937,-13.98574 17.146321,2.70798 -11.121445,-13.40103 9.426945,-11.2081 -0.319642,-1.21336 -14.869582,2.89769 -5.553144,-15.3167 -1.092129,-0.003 z"
       id="path2728"
       transform="matrix(0.64433642,0.01140197,-0.01140583,0.64455388,24.013781,40.407006)" /><path
       id="path2730"
       style="opacity:1;fill:#cccccc;stroke:none;stroke-width:0.205248;stroke-linecap:square;stroke-miterlimit:10;stop-color:#000000"
       d="m 64.358073,117.54757 -5.532409,15.26037 -15.982176,-2.83846 10.449509,12.4209 -10.449254,12.4218 15.981933,-2.83866 5.532121,15.26026 5.53321,-15.26038 15.981375,2.83847 -10.448708,-12.42092 10.449254,-12.42179 -15.981933,2.83866 z m 1.56e-4,20.57825 a 4.2661896,4.2647502 0.00156664 0 1 4.266004,4.26515 4.2661896,4.2647502 0.00156664 0 1 -4.265791,4.26455 4.2661896,4.2647502 0.00156664 0 1 -4.266791,-4.26434 4.2661896,4.2647502 0.00156664 0 1 4.266578,-4.26536 z"
       transform="matrix(0.64433642,0.01140197,-0.01140583,0.64455388,24.013781,40.407006)" /><path
       id="path2732"
       style="color:#000000;opacity:1;fill:#ffffff;stroke-miterlimit:10;-inkscape-stroke:none"
       d="m 64.358073,117.54757 -5.532409,15.26037 -15.982176,-2.83846 10.449509,12.4209 -10.449254,12.4218 1.575812,-0.27962 10.215211,-12.14186 -9.183765,-10.91598 14.044844,2.4943 5.407766,-14.91661 z m 21.514855,12.42159 -15.981933,2.83866 0.354977,0.97906 14.595627,-2.59126 z m -20.686431,8.00892 c -0.287651,0.008 -0.566662,0.0556 -0.828268,0.14774 a 4.2661896,4.2647502 0.00156664 0 1 4.266004,4.26515 4.2661896,4.2647502 0.00156664 0 1 -4.265791,4.26455 4.2661896,4.2647502 0.00156664 0 1 -4.266777,-4.26354 l -1.4e-5,-8e-4 -8.16e-4,-7.9e-4 c -0.73481,2.08413 1.358263,5.29174 4.26893,5.29133 2.910293,-2.7e-4 5.290092,-2.38138 5.29023,-5.29126 2.38e-4,-2.54647 -2.448085,-4.46673 -4.463498,-4.41238 z m -5.335072,13.81294 -1.025749,0.1825 5.532121,15.26026 0.545208,-1.50409 z"
       transform="matrix(0.64433642,0.01140197,-0.01140583,0.64455388,24.013781,40.407006)" /></g><circle
     style="fill:none;stroke:#666666;stroke-width:0.500099;stroke-linecap:butt;stroke-miterlimit:10;stroke-dasharray:none;stroke-opacity:1;stop-color:#000000"
     id="path3561-9"
     cx="61.107651"
     cy="42.660137"
     r="1.3667139" /><path
     style="color:#000000;fill:#666666;stroke-width:1.26009;stroke-miterlimit:10;-inkscape-stroke:none"
     d="m 61.290214,43.355535 c 0.76198,-0.31825 0.76202,-1.07255 0,-1.39079 0.20557,0.44982 0.20557,0.941 0,1.39079 z"
     id="circle3661-5" /><circle
     style="fill:none;stroke:#666666;stroke-width:0.500099;stroke-linecap:butt;stroke-miterlimit:10;stroke-dasharray:none;stroke-opacity:1;stop-color:#000000"
     id="circle3663"
     cx="58.87706"
     cy="26.283321"
     r="0.99635983" /><circle
     style="fill:none;stroke:#666666;stroke-width:0.500099;stroke-linecap:butt;stroke-miterlimit:10;stroke-dasharray:none;stroke-opacity:1;stop-color:#000000"
     id="circle3665"
     cx="64.041618"
     cy="26.367626"
     r="0.99635983" /><path
     id="path3697"
     style="font-variation-settings:normal;fill:none;fill-opacity:1;stroke:#666666;stroke-width:0.500099;stroke-linecap:butt;stroke-linejoin:miter;stroke-miterlimit:4;stroke-dasharray:none;stroke-dashoffset:0;stroke-opacity:1;stop-color:#000000"
     d="m 12.161652,19.143516 c 0,0 5.33282,-2.765069 7.416433,-4.33118 m 0,0 c 0,0 3.038233,11.554629 8.897433,21.737269 m -12.543284,-9.51261 c 0,0 7.876911,-5.394067 13.5177,-7.31145 m 0,0 c 0,0 2.602398,10.38774 7.592115,19.1186 m -15.197275,-5.63794 c 0,0 8.244891,-5.5912 16.204716,-10.959167 m 0,0 c 0,0 3.699931,11.206337 11.514646,23.262107 m -19.689394,-8.51052 c 0,0 7.677134,-2.4521 12.88089,-7.89156 m -1.115745,11.16986 c 0,0 4.164667,-1.67965 7.465095,-4.99057 m -0.146827,9.55372 c 0,0 4.081293,-1.35736 6.092699,-3.0666 m -2.087171,9.89284 c 0,0 2.764602,-1.32842 5.449993,-2.749" /><path
     style="color:#000000;fill:#666666;stroke-width:1.26009;-inkscape-stroke:none"
     d="m 14.381845,14.142062 c -0.614474,-0.03628 -1.703095,0.153822 -1.703095,0.153822 0,0 1.001989,0.306646 1.538197,0.3384 -0.252196,0.883954 -0.750641,2.229771 -0.505761,2.283917 0,0 0.740827,-1.302506 1.020134,-2.254381 0.853441,0.04994 1.321391,0.08044 2.117791,-0.129212 -0.716019,-0.287214 -1.132803,-0.315213 -1.952893,-0.363008 0.245328,-0.765512 0.247838,-1.110731 0.364244,-1.860606 -0.616507,0.620356 -0.61733,0.991096 -0.878617,1.831068 z m 9.871536,3.344657 -0.447922,-0.219041 c -0.661126,1.36239 -0.916767,3.146537 -0.916767,3.146537 0,0 0.733008,-1.625783 1.364689,-2.927496 z m -7.375964,3.681839 c 1.012737,0.54242 2.052013,1.13303 3.387728,1.19364 -1.155554,-0.53256 -2.157971,-1.10123 -3.136692,-1.624343 0.495103,-1.0628 0.957817,-2.20068 1.54804,-3.144077 -1.018802,0.66563 -1.626455,1.782423 -2.136249,2.888117 -1.362599,-0.783935 -2.51157,-1.298236 -2.51157,-1.298236 0,0 0.878301,0.934133 2.304836,1.751086 -0.539677,1.096653 -0.901898,2.26535 -0.953683,3.5317 0.515173,-1.32726 0.97846,-2.139397 1.49759,-3.297887 z m 10.085653,3.780257 c -0.430994,1.29024 -0.895846,3.21299 -0.895846,3.21299 0,0 0.930263,-1.74129 1.363459,-3.03333 1.083545,0.40828 1.605245,0.57433 2.608782,0.72972 -0.825658,-0.62372 -1.346504,-0.7908 -2.438966,-1.20224 0.509323,-1.49156 0.782577,-2.512687 1.009057,-3.525547 -0.70567,0.85143 -0.966074,1.849017 -1.476668,3.348337 -1.190818,-0.44372 -3.013637,-0.886 -3.013637,-0.886 0,0 1.648243,0.91038 2.843819,1.35607 z m 7.065865,-3.664597 -0.445463,-0.226423 c -0.617495,1.221493 -1.042283,3.16992 -1.042283,3.16992 0,0 0.898528,-1.777937 1.487746,-2.943497 z m 2.340522,7.201217 c -0.378209,1.26264 -0.888463,3.48986 -0.888463,3.48986 0,0 0.983378,-2.0683 1.356074,-3.31265 0.814238,0.34197 1.64487,0.73869 2.418045,0.65096 -0.801992,-0.43141 -1.240496,-0.77298 -2.231005,-1.21949 0.461434,-1.49831 0.579989,-2.1787 1.000446,-3.82579 -0.886074,1.4655 -0.997945,2.12846 -1.460669,3.6289 -1.177217,-0.55639 -2.989025,-1.00659 -2.989025,-1.00659 0,0 1.2376,0.90607 2.794597,1.5948 z m -16.319662,-0.0271 c -1.276893,-0.70587 -2.405741,-1.1309 -2.405741,-1.1309 0,0 0.885993,0.85968 2.213774,1.59112 -0.281845,1.07835 -0.147668,1.9443 -0.147668,1.9443 0,0 0.352493,-0.74338 0.607896,-1.73754 0.993499,0.52483 2.056448,1.09456 3.164996,1.14195 -0.931417,-0.51751 -1.994428,-1.0825 -2.97795,-1.60463 0.262197,-0.90916 0.582842,-1.92128 0.913073,-2.84508 -0.779882,0.69091 -1.097066,1.71489 -1.36838,2.64078 z m 10.021665,4.62932 c 1.081134,0.36041 1.801697,0.62675 2.510338,0.55621 -0.556298,-0.40539 -1.309491,-0.67922 -2.402049,-1.04351 0.251906,-1.33619 0.2551,-2.04717 0.494684,-3.32619 -0.608874,0.85911 -0.843146,2.02874 -1.080429,3.13425 -0.885808,-0.29908 -2.256844,-0.47253 -2.256844,-0.47253 0,0 1.233202,0.65217 2.128865,0.95492 -0.334452,1.66535 -0.300257,3.09729 -0.300257,3.09729 0,0 0.708754,-1.77697 0.905692,-2.90044 z m 16.238445,0.27812 c 0.262046,0.0407 0.306411,0.10017 0.561134,0.12059 l 0.03938,-0.4996 c -0.231087,-0.0185 -0.282553,-0.0759 -0.524219,-0.11329 0.02155,-0.12487 0.01695,-0.13718 0.03938,-0.26087 l -0.492223,-0.0886 c -0.02103,0.11593 -0.01667,0.12672 -0.03692,0.24365 -1.156236,-0.23444 -2.62847,-0.31622 -2.62847,-0.31622 0,0 1.356617,0.56679 2.552181,0.80852 -0.184183,1.15008 -0.127979,2.48941 -0.127979,2.48941 0,0 0.43809,-1.2579 0.617741,-2.3836 z m -6.50227,2.56204 c -0.702589,-0.2968 -2.419277,-0.5759 -2.419277,-0.5759 0,0 1.54919,0.74421 2.288839,1.05582 -0.204261,0.8381 -0.420852,2.48078 -0.420852,2.48078 0,0 0.694728,-1.50072 0.893386,-2.31594 1.113781,0.44734 1.463659,0.73292 3.196988,0.84539 -1.607388,-0.59743 -1.970696,-0.884 -3.066552,-1.3253 0.323061,-1.29126 0.453082,-2.04227 0.684192,-3.44308 -0.710468,1.25273 -0.832674,1.9839 -1.156724,3.27823 z m 10.280082,4.43 c -0.228571,1.4189 -0.303948,2.70231 -0.303948,2.70231 0,0 0.554224,-1.10019 0.79371,-2.53741 1.115849,0.39089 1.554104,0.5845 3.019789,0.7494 -1.374219,-0.65825 -1.864843,-0.87271 -2.990255,-1.2687 0.107814,-0.83724 0.276481,-1.67593 -0.108292,-2.46603 -0.125429,0.76592 -0.28782,1.53548 -0.381473,2.30359 -0.716288,-0.25606 -2.320832,-0.51682 -2.320832,-0.51682 0,0 1.497349,0.7509 2.291298,1.03366 z m 4.585062,6.54183 c 0.219996,-1.0173 0.46152,-2.10768 0.195658,-3.16376 -0.234708,0.99996 -0.468972,2.06061 -0.682961,3.05055 -1.538507,-0.44371 -2.813057,-0.6682 -2.813057,-0.6682 0,0 1.12028,0.69754 2.741685,1.16042 -0.311618,1.31099 -0.39747,2.41558 -0.39747,2.41558 0,0 0.564418,-0.95332 0.884771,-2.2999 0.729188,0.18948 1.324883,0.40956 2.253153,0.27317 -0.863723,-0.36033 -1.461017,-0.57883 -2.181779,-0.76786 z m 1.32654,7.17398 c -0.349504,0.55207 -0.813399,1.9369 -0.813399,1.9369 0,0 0.891496,-1.13012 1.244094,-1.68587 0.757783,0.45568 0.923467,0.66916 1.895059,0.81095 -0.73682,-0.58588 -0.908592,-0.79943 -1.648948,-1.2441 0.663863,-1.06938 1.141574,-1.68448 1.490206,-3.12561 -0.78775,1.19526 -1.263942,1.81436 -1.920901,2.87457 -0.850829,-0.53415 -2.370056,-1.08657 -2.370056,-1.08657 0,0 1.259128,0.97623 2.123945,1.51973 z"
     id="path3730" /><g
     id="g18308"
     transform="matrix(1.2600915,0,0,1.2600915,-51.891091,-100.4229)"><circle
       style="fill:none;stroke:#666666;stroke-width:0.396875;stroke-linecap:butt;stroke-miterlimit:10;stroke-dasharray:none;stroke-opacity:1;stop-color:#000000"
       id="circle3655"
       cx="85.890205"
       cy="106.58372"
       r="1.8678977" /><path
       style="color:#000000;fill:#666666;stroke-miterlimit:10;-inkscape-stroke:none"
       d="m 86.654297,106.58398 c -3e-6,0.42395 -0.339726,0.76368 -0.763672,0.96192 0.638431,0.19824 1.160151,-0.32348 1.160156,-0.96192 3e-6,-0.63843 -0.521719,-1.16015 -1.160156,-0.96191 0.423948,0.19824 0.763673,0.53797 0.763672,0.96191 z"
       id="circle3661" /><ellipse
       style="fill:#ffffff;stroke:none;stroke-width:0.396875;stroke-linecap:butt;stroke-miterlimit:10;stroke-dasharray:none;stroke-opacity:1;stop-color:#000000"
       id="circle18210"
       cx="112.4298"
       cy="76.945168"
       rx="0.544981"
       ry="0.61939508"
       transform="rotate(16.890795)" /></g><circle
     style="fill:none;stroke:#666666;stroke-width:0.500099;stroke-linecap:butt;stroke-miterlimit:10;stroke-dasharray:none;stroke-opacity:1;stop-color:#000000"
     id="circle10085"
     cx="-71.184006"
     cy="42.660137"
     r="1.3667139"
     transform="scale(-1,1)" /><path
     style="color:#000000;fill:#666666;stroke-width:1.26009;stroke-miterlimit:10;-inkscape-stroke:none"
     d="m 71.366568,43.355535 c 0.76198,-0.31825 0.76203,-1.07255 0,-1.39079 0.20557,0.44982 0.20557,0.941 0,1.39079 z"
     id="path10095" /><circle
     style="fill:none;stroke:#666666;stroke-width:0.500099;stroke-linecap:butt;stroke-miterlimit:10;stroke-dasharray:none;stroke-opacity:1;stop-color:#000000"
     id="circle10097"
     cx="-73.414597"
     cy="26.283321"
     r="0.99635983"
     transform="scale(-1,1)" /><circle
     style="fill:none;stroke:#666666;stroke-width:0.500099;stroke-linecap:butt;stroke-miterlimit:10;stroke-dasharray:none;stroke-opacity:1;stop-color:#000000"
     id="circle10099"
     cx="-68.250053"
     cy="26.367626"
     r="0.99635983"
     transform="scale(-1,1)" /><path
     id="path10101"
     style="font-variation-settings:normal;fill:none;fill-opacity:1;stroke:#666666;stroke-width:0.500099;stroke-linecap:butt;stroke-linejoin:miter;stroke-miterlimit:4;stroke-dasharray:none;stroke-dashoffset:0;stroke-opacity:1;stop-color:#000000"
     d="m 120.13001,19.143516 c 0,0 -5.33282,-2.765069 -7.41643,-4.331181 m 0,0 c 0,0 -3.03823,11.55463 -8.89743,21.73727 m 12.54328,-9.51261 c 0,0 -7.87691,-5.394067 -13.51769,-7.31145 m 0,0 c 0,0 -2.60241,10.38774 -7.592122,19.1186 m 15.197272,-5.63794 c 0,0 -8.24489,-5.5912 -16.204712,-10.959167 m 0,0 c 0,0 -3.69993,11.206337 -11.51465,23.262107 m 19.689392,-8.51052 c 0,0 -7.677132,-2.4521 -12.880882,-7.89156 m 1.11573,11.16986 c 0,0 -4.16466,-1.67965 -7.46509,-4.99057 m 0.14684,9.55372 c 0,0 -4.0813,-1.35736 -6.09271,-3.0666 m 2.08718,9.89284 c 0,0 -2.7646,-1.32842 -5.45,-2.749" /><path
     style="color:#000000;fill:#666666;stroke-width:1.26009;-inkscape-stroke:none"
     d="m 117.90982,14.142062 c 0.61447,-0.03628 1.70309,0.153822 1.70309,0.153822 0,0 -1.00199,0.306646 -1.53819,0.3384 0.25219,0.883954 0.75063,2.229771 0.50576,2.283917 0,0 -0.74083,-1.302506 -1.02013,-2.254381 -0.85345,0.04994 -1.3214,0.08044 -2.1178,-0.129212 0.71602,-0.287214 1.13281,-0.315213 1.9529,-0.363008 -0.24533,-0.765512 -0.24785,-1.110731 -0.36425,-1.860606 0.61651,0.620356 0.61733,0.991096 0.87862,1.831068 z m -9.87153,3.344657 0.44791,-0.219041 c 0.66113,1.36239 0.91677,3.146537 0.91677,3.146537 0,0 -0.73301,-1.625783 -1.36468,-2.927496 z m 7.37596,3.681839 c -1.01274,0.54242 -2.05201,1.13303 -3.38773,1.19364 1.15555,-0.53256 2.15797,-1.10123 3.13669,-1.624343 -0.4951,-1.0628 -0.95782,-2.20068 -1.54803,-3.144077 1.01879,0.66563 1.62645,1.782423 2.13624,2.888117 1.3626,-0.783935 2.51157,-1.298236 2.51157,-1.298236 0,0 -0.8783,0.934133 -2.30484,1.751086 0.53969,1.096653 0.9019,2.26535 0.95369,3.5317 -0.51517,-1.32726 -0.97846,-2.139397 -1.49759,-3.297887 z m -10.08566,3.780257 c 0.431,1.29024 0.89585,3.21299 0.89585,3.21299 0,0 -0.93026,-1.74129 -1.36346,-3.03333 -1.08354,0.40828 -1.60524,0.57433 -2.60878,0.72972 0.82566,-0.62372 1.34651,-0.7908 2.43897,-1.20224 -0.50933,-1.49156 -0.78258,-2.512687 -1.00907,-3.525547 0.70568,0.85143 0.96608,1.849017 1.47668,3.348337 1.19081,-0.44372 3.01363,-0.886 3.01363,-0.886 0,0 -1.64823,0.91038 -2.84382,1.35607 z m -7.065862,-3.664597 0.44546,-0.226423 c 0.6175,1.221493 1.04229,3.16992 1.04229,3.16992 0,0 -0.89853,-1.777937 -1.48775,-2.943497 z m -2.34052,7.201217 c 0.37821,1.26264 0.88846,3.48986 0.88846,3.48986 0,0 -0.98337,-2.0683 -1.35607,-3.31265 -0.81425,0.34197 -1.64487,0.73869 -2.41805,0.65096 0.802,-0.43141 1.2405,-0.77298 2.231,-1.21949 -0.46143,-1.49831 -0.57998,-2.1787 -1.00043,-3.82579 0.88607,1.4655 0.99794,2.12846 1.46066,3.6289 1.17721,-0.55639 2.98902,-1.00659 2.98902,-1.00659 0,0 -1.2376,0.90607 -2.79459,1.5948 z m 16.319662,-0.0271 c 1.2769,-0.70587 2.40574,-1.1309 2.40574,-1.1309 0,0 -0.886,0.85968 -2.21377,1.59112 0.28185,1.07835 0.14766,1.9443 0.14766,1.9443 0,0 -0.35249,-0.74338 -0.60789,-1.73754 -0.9935,0.52483 -2.05645,1.09456 -3.165,1.14195 0.93142,-0.51751 1.99443,-1.0825 2.97795,-1.60463 -0.26219,-0.90916 -0.58284,-1.92128 -0.91306,-2.84508 0.77987,0.69091 1.09706,1.71489 1.36837,2.64078 z m -10.02166,4.62932 c -1.08114,0.36041 -1.80171,0.62675 -2.510342,0.55621 0.556292,-0.40539 1.309482,-0.67922 2.402052,-1.04351 -0.25191,-1.33619 -0.2551,-2.04717 -0.49469,-3.32619 0.60888,0.85911 0.84315,2.02874 1.08043,3.13425 0.88582,-0.29908 2.25685,-0.47253 2.25685,-0.47253 0,0 -1.23321,0.65217 -2.12887,0.95492 0.33446,1.66535 0.30026,3.09729 0.30026,3.09729 0,0 -0.70875,-1.77697 -0.90569,-2.90044 z m -16.238452,0.27812 c -0.26205,0.0407 -0.30641,0.10017 -0.56113,0.12059 l -0.0393,-0.4996 c 0.23108,-0.0185 0.28255,-0.0759 0.52421,-0.11329 -0.0215,-0.12487 -0.017,-0.13718 -0.0393,-0.26087 l 0.49223,-0.0886 c 0.021,0.11593 0.0166,0.12672 0.0369,0.24365 1.15624,-0.23444 2.62846,-0.31622 2.62846,-0.31622 0,0 -1.35661,0.56679 -2.55217,0.80852 0.18419,1.15008 0.12797,2.48941 0.12797,2.48941 0,0 -0.43808,-1.2579 -0.61773,-2.3836 z m 6.50228,2.56204 c 0.70259,-0.2968 2.41927,-0.5759 2.41927,-0.5759 0,0 -1.54919,0.74421 -2.28884,1.05582 0.20426,0.8381 0.42086,2.48078 0.42086,2.48078 0,0 -0.69474,-1.50072 -0.8934,-2.31594 -1.11378,0.44734 -1.46366,0.73292 -3.19699,0.84539 1.60739,-0.59743 1.9707,-0.884 3.06656,-1.3253 -0.32306,-1.29126 -0.45309,-2.04227 -0.68419,-3.44308 0.71046,1.25273 0.83267,1.9839 1.15673,3.27823 z m -10.28009,4.43 c 0.22856,1.4189 0.30394,2.70231 0.30394,2.70231 0,0 -0.55421,-1.10019 -0.7937,-2.53741 -1.11585,0.39089 -1.55411,0.5845 -3.01979,0.7494 1.37422,-0.65825 1.86484,-0.87271 2.99025,-1.2687 -0.10787,-0.83724 -0.27648,-1.67593 0.10824,-2.46603 0.12538,0.76592 0.28782,1.53548 0.38148,2.30359 0.71629,-0.25606 2.32082,-0.51682 2.32082,-0.51682 0,0 -1.49734,0.7509 -2.2913,1.03366 z m -4.58506,6.54183 c -0.22,-1.0173 -0.46152,-2.10768 -0.19566,-3.16376 0.23471,0.99996 0.46897,2.06061 0.68296,3.05055 1.53851,-0.44371 2.81305,-0.6682 2.81305,-0.6682 0,0 -1.12027,0.69754 -2.74168,1.16042 0.31162,1.31099 0.39747,2.41558 0.39747,2.41558 0,0 -0.56442,-0.95332 -0.88477,-2.2999 -0.72919,0.18948 -1.32489,0.40956 -2.25316,0.27317 0.86373,-0.36033 1.46103,-0.57883 2.18179,-0.76786 z m -1.32654,7.17398 c 0.3495,0.55207 0.81339,1.9369 0.81339,1.9369 0,0 -0.89149,-1.13012 -1.24409,-1.68587 -0.75778,0.45568 -0.92347,0.66916 -1.89506,0.81095 0.73682,-0.58588 0.9086,-0.79943 1.64895,-1.2441 -0.66386,-1.06938 -1.14158,-1.68448 -1.49021,-3.12561 0.78775,1.19526 1.26395,1.81436 1.9209,2.87457 0.85084,-0.53415 2.37006,-1.08657 2.37006,-1.08657 0,0 -1.25912,0.97623 -2.12394,1.51973 z"
     id="path10103" /><path
     style="color:#000000;fill:#666666;stroke-width:1.26009;-inkscape-stroke:none"
     d="m 74.590588,122.73881 c 1.28491,-4.63541 1.91735,-10.83916 2.01811,-18.36732 0.22981,-17.169175 0.57541,-36.253385 0.80232,-45.744765 l -0.4996,-0.0126 c -0.22702,9.49528 -0.57248,28.57877 -0.80232,45.749685 -0.10043,7.50368 -0.73539,13.67647 -2.00089,18.24179 -1.2655,4.56531 -3.15439,7.49472 -5.612574,8.84401 2.866894,-0.98068 4.810024,-4.07571 6.094954,-8.71111 z"
     id="path17166" /><path
     style="color:#000000;fill:#ffffff;stroke-width:1.26009;-inkscape-stroke:none"
     d="m 55.807352,58.602065 c 0,0 0.537266,3.4261 0.487301,12.25882 -0.05013,8.86042 0.699882,36.938335 1.119808,42.552695 0.443324,5.92714 1.592413,11.92586 4.249113,15.07556 -2.12463,-3.27168 -2.899107,-9.22576 -3.339408,-15.11248 -0.413927,-5.53415 -1.164814,-33.687185 -1.114886,-42.513315 0.05009,-8.85382 -0.907244,-12.33758 -0.907244,-12.33757 z"
     id="path17162" /><path
     style="color:#000000;fill:#666666;stroke-width:1.26009;-inkscape-stroke:none"
     d="m 72.732438,123.66172 c 1.00532,-2.94787 1.59837,-6.54458 1.87537,-10.24808 0.41923,-5.60509 1.10589,-33.686395 1.05574,-42.552705 -0.0499,-8.83391 0.42577,-12.26128 0.42577,-12.26128 l -0.49715,-0.0689 c 0,0 -0.47829,3.48001 -0.42824,12.33266 0.0499,8.82023 -0.6411,36.969885 -1.05572,42.513325 -0.27484,3.67455 -0.86382,7.23824 -1.8483,10.12503 -0.98449,2.88678 -2.36551,5.08033 -4.049764,6.28569 2.100144,-0.86417 3.516984,-3.17785 4.522294,-6.12572 z"
     id="path10112" /><path
     style="font-variation-settings:normal;fill:none;fill-opacity:1;stroke:#666666;stroke-width:0.500099;stroke-linecap:butt;stroke-linejoin:miter;stroke-miterlimit:4;stroke-dasharray:none;stroke-dashoffset:0;stroke-opacity:1;stop-color:#000000"
     d="m 25.515899,35.360105 c 6.537116,3.07743 13.493375,2.93979 19.999214,6.76515 3.310475,1.94652 5.428008,4.72364 6.755754,7.74238"
     id="path16218" /><path
     style="font-variation-settings:normal;fill:none;fill-opacity:1;stroke:#ffffff;stroke-width:0.500099;stroke-linecap:butt;stroke-linejoin:miter;stroke-miterlimit:4;stroke-dasharray:none;stroke-dashoffset:0;stroke-opacity:1;stop-color:#000000"
     d="m 13.413603,11.304785 c -0.773028,0.324477 -1.226535,1.596556 -1.43968,4.18978 -0.426276,5.18645 3.95917,14.04542 11.011839,18.48416 0.834999,0.52552 1.679021,0.98071 2.530137,1.38138"
     id="path16210" /><path
     id="path16328"
     style="font-variation-settings:normal;fill:none;fill-opacity:1;stroke:#666666;stroke-width:0.500099;stroke-linecap:butt;stroke-linejoin:miter;stroke-miterlimit:4;stroke-dasharray:none;stroke-dashoffset:0;stroke-opacity:1;stop-color:#000000"
     d="m 72.310828,57.932735 c 0.23482,-6.22 1.63877,-14.12988 9.18454,-21.08867 7.54576,-6.95881 10.43247,-9.40016 11.78087,-14.400427 m -13.82882,1.570147 c -11.278474,11.92226 -13.070074,25.39011 -9.79563,33.67219 0,0 -0.516667,-13.0325 8.86588,-21.06666 9.23492,-7.90776 11.64121,-10.59209 11.92212,-13.682127" /><path
     id="path10120"
     style="font-variation-settings:normal;fill:none;fill-opacity:1;stroke:#666666;stroke-width:0.500099;stroke-linecap:butt;stroke-linejoin:miter;stroke-miterlimit:4;stroke-dasharray:none;stroke-dashoffset:0;stroke-opacity:1;stop-color:#000000"
     d="m 59.980824,57.932735 c -0.23481,-6.22 -1.638764,-14.12988 -9.184529,-21.08867 -7.545755,-6.95881 -10.432473,-9.40016 -11.780872,-14.400427 m 13.828823,1.570147 c 11.278478,11.92226 13.070078,25.39011 9.795628,33.67219 0,0 0.51666,-13.0325 -8.865882,-21.06666 -9.23492,-7.90776 -11.641203,-10.59209 -11.922116,-13.682127" /><path
     style="font-variation-settings:normal;fill:none;fill-opacity:1;stroke:#ffffff;stroke-width:0.500099;stroke-linecap:butt;stroke-linejoin:miter;stroke-miterlimit:4;stroke-dasharray:none;stroke-dashoffset:0;stroke-opacity:1;stop-color:#000000"
     d="m 118.87806,11.304785 c -0.77303,-0.324479 -1.86558,0.298645 -3.35679,1.495824 -3.46566,2.782284 -9.28678,6.247623 -18.178332,8.695889 -8.89156,2.448257 -20.44936,2.818777 -31.197104,2.818777 -9.170453,0 -18.930656,-0.26975 -27.121174,-1.869747"
     id="path16208" /><path
     style="font-variation-settings:normal;fill:none;fill-opacity:1;stroke:#666666;stroke-width:0.500099;stroke-linecap:butt;stroke-linejoin:miter;stroke-miterlimit:4;stroke-dasharray:none;stroke-dashoffset:0;stroke-opacity:1;stop-color:#000000"
     d="m 39.02466,22.445528 c -1.408745,-0.27519 -2.771042,-0.58974 -4.07593,-0.94903 C 26.057172,19.048233 20.236053,15.582893 16.770398,12.800609 15.279181,11.60343 14.186619,10.980306 13.413603,11.304785"
     id="path16214" /><path
     style="font-variation-settings:normal;fill:none;fill-opacity:1;stroke:#666666;stroke-width:0.500099;stroke-linecap:butt;stroke-linejoin:miter;stroke-miterlimit:4;stroke-dasharray:none;stroke-dashoffset:0;stroke-opacity:1;stop-color:#000000"
     d="M 54.169333,58.621305 H 78.122328"
     id="path3722" /><path
     style="font-variation-settings:normal;fill:none;fill-opacity:1;stroke:#ffffff;stroke-width:0.500099;stroke-linecap:butt;stroke-linejoin:miter;stroke-miterlimit:4;stroke-dasharray:none;stroke-dashoffset:0;stroke-opacity:1;stop-color:#000000"
     d="M 54.118287,57.954505 H 78.173388"
     id="path3724" /><path
     style="font-variation-settings:normal;fill:none;fill-opacity:1;stroke:#666666;stroke-width:0.500099;stroke-linecap:butt;stroke-linejoin:miter;stroke-miterlimit:4;stroke-dasharray:none;stroke-dashoffset:0;stroke-opacity:1;stop-color:#000000"
     d="M 54.24621,61.353305 H 78.045468"
     id="path3726" /><path
     style="color:#000000;fill:#ffffff;stroke-width:1.26009;-inkscape-stroke:none"
     d="m 52.499611,49.766705 -0.457767,0.20181 c 1.600924,3.63983 2.167751,9.12314 2.167751,10.77919 0,1.65607 0.229212,7.15891 0.229212,7.15891 l 0.798687,-0.46107 c 0,0 -0.525831,-5.0196 -0.525831,-6.69784 0,-1.67824 -0.57036,-7.24848 -2.212052,-10.981 z"
     id="path16273" /><path
     style="color:#000000;fill:#666666;stroke-width:1.26009;-inkscape-stroke:none"
     d="m 118.97436,11.07305 -0.19198,0.462689 c 0.29509,0.123855 0.56539,0.447125 0.79003,1.095197 0.22462,0.648073 0.39149,1.59892 0.49714,2.884428 0.20646,2.511869 -0.7636,5.993284 -2.67031,9.379301 -1.90672,3.38603 -4.74487,6.68045 -8.22751,8.87233 -3.58418,2.25578 -7.34545,3.20655 -11.151322,4.13221 -3.80587,0.92566 -7.6547,1.82686 -11.37036,4.01162 -7.46264,4.38792 -8.94369,12.91922 -8.94369,19.02442 l 0.24916,7.03385 0.43749,-0.21467 -0.18705,-6.81918 c -0.16518,-6.02224 1.45448,-14.33487 8.69758,-18.59372 3.63725,-2.13865 7.42649,-3.03119 11.23501,-3.95748 3.808512,-0.92629 7.637402,-1.8877 11.301442,-4.19374 3.57003,-2.24688 6.45226,-5.59977 8.39487,-9.04953 1.94261,-3.449737 2.95166,-6.992676 2.73184,-9.66725 -0.10749,-1.307713 -0.2731,-2.290093 -0.52175,-3.007483 -0.24867,-0.717392 -0.59265,-1.192374 -1.07059,-1.392992 z"
     id="path10105" /><g
     id="g18303"
     transform="matrix(1.2600915,0,0,1.2600915,-51.891091,-100.4229)"><circle
       style="fill:none;stroke:#666666;stroke-width:0.396875;stroke-linecap:butt;stroke-miterlimit:10;stroke-dasharray:none;stroke-opacity:1;stop-color:#000000"
       id="circle3657"
       cx="81.035004"
       cy="101.2932"
       r="1.9610175" /><path
       style="color:#000000;fill:#666666;stroke-miterlimit:10;-inkscape-stroke:none"
       d="m 82.25,101.29297 c 10e-7,-0.6685 -0.546347,-1.21485 -1.214844,-1.0166 0.454008,0.19824 0.81836,0.56259 0.81836,1.0166 0,0.454 -0.364352,0.81836 -0.81836,1.0166 0.668497,0.19824 1.214845,-0.34811 1.214844,-1.0166 z"
       id="circle3659" /><ellipse
       style="fill:#ffffff;stroke:none;stroke-width:0.396875;stroke-linecap:butt;stroke-miterlimit:10;stroke-dasharray:none;stroke-opacity:1;stop-color:#000000"
       id="ellipse18298"
       cx="106.24371"
       cy="73.153381"
       rx="0.544981"
       ry="0.61939508"
       transform="rotate(16.890795)" /></g><g
     id="g18316"
     transform="matrix(1.2600915,0,0,1.2600915,-32.276268,-100.4229)"><circle
       style="fill:none;stroke:#666666;stroke-width:0.396875;stroke-linecap:butt;stroke-miterlimit:10;stroke-dasharray:none;stroke-opacity:1;stop-color:#000000"
       id="circle18310"
       cx="85.890205"
       cy="106.58372"
       r="1.8678977" /><path
       style="color:#000000;fill:#666666;stroke-miterlimit:10;-inkscape-stroke:none"
       d="m 86.654297,106.58398 c -3e-6,0.42395 -0.339726,0.76368 -0.763672,0.96192 0.638431,0.19824 1.160151,-0.32348 1.160156,-0.96192 3e-6,-0.63843 -0.521719,-1.16015 -1.160156,-0.96191 0.423948,0.19824 0.763673,0.53797 0.763672,0.96191 z"
       id="path18312" /><ellipse
       style="fill:#ffffff;stroke:none;stroke-width:0.396875;stroke-linecap:butt;stroke-miterlimit:10;stroke-dasharray:none;stroke-opacity:1;stop-color:#000000"
       id="ellipse18314"
       cx="112.4298"
       cy="76.945168"
       rx="0.544981"
       ry="0.61939508"
       transform="rotate(16.890795)" /></g><g
     id="g18324"
     transform="matrix(1.2600915,0,0,1.2600915,-20.040272,-100.4229)"><circle
       style="fill:none;stroke:#666666;stroke-width:0.396875;stroke-linecap:butt;stroke-miterlimit:10;stroke-dasharray:none;stroke-opacity:1;stop-color:#000000"
       id="circle18318"
       cx="81.035004"
       cy="101.2932"
       r="1.9610175" /><path
       style="color:#000000;fill:#666666;stroke-miterlimit:10;-inkscape-stroke:none"
       d="m 82.25,101.29297 c 10e-7,-0.6685 -0.546347,-1.21485 -1.214844,-1.0166 0.454008,0.19824 0.81836,0.56259 0.81836,1.0166 0,0.454 -0.364352,0.81836 -0.81836,1.0166 0.668497,0.19824 1.214845,-0.34811 1.214844,-1.0166 z"
       id="path18320" /><ellipse
       style="fill:#ffffff;stroke:none;stroke-width:0.396875;stroke-linecap:butt;stroke-miterlimit:10;stroke-dasharray:none;stroke-opacity:1;stop-color:#000000"
       id="ellipse18322"
       cx="106.24371"
       cy="73.153381"
       rx="0.544981"
       ry="0.61939508"
       transform="rotate(16.890795)" /></g><path
     id="path18336"
     style="color:#000000;fill:#ffffff;stroke-width:1.26009;-inkscape-stroke:none"
     d="m 12.144346,5.342139 c -1.860047,3.75e-4 -3.639517,2.097202 -4.103024,7.736554 -0.674192,8.202695 2.022164,15.956152 10.168676,22.417182 1.838985,1.45851 3.692517,2.53659 5.532342,3.37305 C 11.710583,30.900085 8.215965,21.124198 8.871564,13.147717 9.199288,9.160392 10.248323,7.173091 11.155218,6.514897 11.608667,6.1858 12.339729,6.08478 12.824819,6.105962 c 0.512918,0.0224 1.144566,0.111916 2.299933,0.910336 C 14.955728,6.846587 14.770648,6.654888 14.614235,6.505129 13.85154,5.774891 12.989822,5.341969 12.144346,5.342139 Z m 108.003104,0 c -0.84548,-1.7e-4 -1.70785,0.432752 -2.47054,1.16299 -2.6406,2.52823 -6.92809,8.075094 -17.922162,10.731287 -10.99407,2.656194 -22.86112,2.92115 -33.608844,2.92115 -10.747544,0 -22.614308,-0.265094 -33.608207,-2.92115 3.584275,2.669375 22.84848,3.754649 33.608857,3.754649 10.761434,0 22.688704,-0.26052 33.803544,-2.945895 C 111.15354,15.338393 115.7269,9.52691 118.2532,7.108113 c 0.52394,-0.501654 1.0715,-0.803741 1.54783,-0.897964 0.47542,-0.09405 1.55389,-0.209527 2.61184,0.427169 -0.67395,-0.899445 -1.46178,-1.295017 -2.26542,-1.295179 z M 41.076493,44.259975 c 6.292478,3.25859 8.914722,8.9422 9.378807,14.98928 0.464081,6.04711 1.661695,7.71572 3.880323,8.71984 0,0 -0.130216,34.635885 0.674612,45.396335 0.679961,9.091 2.687574,17.08042 7.746319,19.48169 -2.86849,-2.73244 -3.80158,-4.70802 -4.884425,-7.95208 -1.084446,-3.24886 -1.708373,-7.28735 -2.030349,-11.59214 -0.794402,-10.62109 -0.604286,-45.857355 -0.604286,-45.857355 -1.434987,-0.64646 -2.195074,-1.17663 -2.749893,-2.31166 -0.554815,-1.13504 -0.973106,-2.9736 -1.201409,-5.94844 C 50.80683,52.939285 48.1025,46.500735 41.076493,44.259975 Z" /><path
     style="color:#000000;fill:#666666;fill-opacity:1;stroke-width:1.26009;stroke-miterlimit:10;-inkscape-stroke:none"
     d="m 62.203794,118.03807 c -1e-5,-2.18048 1.76222,-3.94272 3.94271,-3.94272 1.09024,0 2.07466,0.4405 2.964407,0.97706 -0.627747,-0.98092 -1.739027,-1.47912 -2.964407,-1.47912 -2.45076,0 -4.44232,1.99402 -4.44232,4.44478 0,1.22538 0.49575,2.33668 1.47667,2.96317 -0.53658,-0.89096 -0.97706,-1.87292 -0.97706,-2.96317 z"
     id="circle19867" /><path
     id="circle19857"
     style="color:#000000;fill:#ffffff;stroke-width:1.26009;stroke-miterlimit:10;-inkscape-stroke:none"
     d="m 67.018464,114.68729 c -0.28046,0.004 -0.57224,0.0501 -0.87191,0.14393 a 3.2060415,3.2060415 0 0 1 3.205057,3.20571 3.2060415,3.2060415 0 0 1 -3.205707,3.20634 3.2060415,3.2060415 0 0 1 -3.20637,-3.20506 c -0.66696,2.13103 1.07601,3.87121 3.20702,3.87121 2.13101,0 3.871204,-1.74019 3.871194,-3.87121 0,-1.83132 -1.285314,-3.37601 -2.999284,-3.35092 z" /></svg>
