<?xml version="1.0" encoding="UTF-8" standalone="no"?>
<!-- Created with Inkscape (http://www.inkscape.org/) -->

<svg
   width="500.00003"
   height="570"
   viewBox="0 0 132.29167 150.8125"
   version="1.1"
   id="svg5"
   xml:space="preserve"
   xmlns="http://www.w3.org/2000/svg"
   xmlns:svg="http://www.w3.org/2000/svg"><defs
     id="defs2"><style
       type="text/css"
       id="style3449">
   
    .str0 {stroke:#1F1A17;stroke-width:0.72}
    .fil0 {fill:#1F1A17}
    .fil2 {fill:#C0A062}
    .fil3 {fill:#C2C1C1}
    .fil1 {fill:white}
   
  </style><style
       type="text/css"
       id="style4456">
   
    .str0 {stroke:#1F1A17;stroke-width:0.72}
    .fil0 {fill:#1F1A17}
    .fil2 {fill:#C0A062}
    .fil3 {fill:#C2C1C1}
    .fil1 {fill:white}
   
  </style></defs><path
     id="path2357"
     style="fill:#e90606;fill-opacity:1;fill-rule:evenodd;stroke:none;stroke-width:0.132291;stroke-linecap:round;stroke-linejoin:round;stroke-miterlimit:10;stop-color:#000000"
     d="m 132.29167,0 v 84.667008 c 0,8.67559 -1.67298,16.959742 -4.70944,24.551102 -8.72018,12.41973 -35.468625,18.2705 -62.117745,17.83973 C 38.815367,126.62706 12.265566,119.91473 3.94265,107.20825 1.392568,100.17284 0,92.582908 0,84.667008 V 0 Z" /><path
     style="color:#000000;fill:#7c0303;fill-opacity:1;stroke-width:1;-inkscape-stroke:none"
     d="m 93.395415,39.710094 c -20.8152,17.088064 -57.012272,45.889444 -58.136391,46.812304 1.983988,1.1369 3.254118,1.29512 5.376072,-0.44683 7.236616,-5.94064 36.071679,-29.60566 54.446589,-44.690384 l 9.623335,12.610234 1.50399,0.31667 16.32649,-12.718854 -10.83807,-13.71875 2.88481,-2.49773 -9.13967,-11.570291 -1.46481,-0.371205 -0.94332,1.391639 -1.59221,0.583341 -5.962475,-7.926945 -1.75155,-0.802895"
     id="path11445" /><path
     style="color:#000000;fill:#7c0303;fill-opacity:1;stroke-width:1;-inkscape-stroke:none"
     d="m 11.333861,41.159584 0.206669,1.66645 16.241725,12.828614 10.546705,-13.357664 c 20.888378,17.148164 53.899225,44.247514 55.004205,45.154634 0.67517,0.55428 1.54938,0.70989 2.37775,0.62991 0.82835,-0.0799 1.66577,-0.37316 2.53209,-0.82162 1.73265,-0.8969 3.580985,-2.4387 5.275855,-4.52144 1.69042,-2.07739 2.77004,-4.09184 3.24666,-5.86343 0.23831,-0.88578 0.24843,-2.65981 -1.61051,-3.61366 L 48.626687,29.260544 63.256631,10.734087 62.329329,10.003152 19.156613,25.030594 l -0.0052,1.52384 c 0.8336,0.68459 2.628971,2.15555 2.776819,2.27693 z"
     id="path11447" /><path
     id="path6881"
     style="color:#000000;fill:#7c0303;fill-opacity:1;stroke-width:1;stroke-miterlimit:10;-inkscape-stroke:none"
     d="m 23.615018,90.406068 5.02827,29.474642 2.308274,-0.49012 -6.131025,-28.984522 z m 28.354093,0 5.02827,29.474642 2.308274,-0.49012 -6.131024,-28.984522 z m 28.353434,0 5.02827,29.474642 2.30827,-0.49012 -6.13101,-28.984522 z m 28.353445,0 5.02828,29.474642 2.30827,-0.49012 -6.13104,-28.984522 z m 13.67573,0.17852 c -0.18568,2.8e-4 -0.3632,0.009 -0.52897,0.0191 L 126.38,107.20824 h 1.96771 c 0.17022,-0.469 0.33704,-0.93973 0.4967,-1.41367 -0.0476,-0.0682 -0.0961,-0.13774 -0.14229,-0.20225 -0.58538,-0.81803 -1.00657,-1.34197 -1.27205,-2.58232 -0.54831,-2.56159 0.28539,-4.857472 -0.18446,-7.680402 -0.25955,-1.55944 -1.00903,-2.57526 -2.22725,-3.7358 -0.89699,-0.85454 -1.86203,-1.0104 -2.66664,-1.00922 z m -113.604783,0.003 c -0.119777,0.004 -0.235322,0.009 -0.345845,0.0164 l 8.196876,29.867262 1.667965,-1.67061 c -1.514128,-1.5151 -1.67172,-2.7622 -1.593526,-4.29243 0.07814,-1.53022 0.586264,-3.27168 0.236494,-5.21339 -0.321344,-1.78383 -1.043068,-2.88416 -1.628441,-3.70219 -0.585372,-0.81803 -1.006572,-1.34198 -1.272053,-2.58232 -0.548303,-2.5616 0.285401,-4.857472 -0.184451,-7.680412 -0.259543,-1.55944 -1.00969,-2.57526 -2.227907,-3.7358 -0.965999,-0.92026 -2.010645,-1.03049 -2.849112,-1.00658 z m 28.354094,0 c -0.119777,0.004 -0.235323,0.009 -0.345846,0.0164 l 8.196878,29.867262 1.667965,-1.67061 c -1.514128,-1.5151 -1.671725,-2.7622 -1.593527,-4.29243 0.0782,-1.53022 0.586269,-3.27168 0.236493,-5.21339 -0.321336,-1.78383 -1.043067,-2.88416 -1.62844,-3.70219 -0.585372,-0.81803 -1.006564,-1.34198 -1.272054,-2.58232 -0.548296,-2.5616 0.285398,-4.857472 -0.184452,-7.680412 -0.25955,-1.55944 -1.009698,-2.57526 -2.227906,-3.7358 -0.966002,-0.92026 -2.010644,-1.03049 -2.849111,-1.00658 z m 28.353444,0 c -0.11978,0.004 -0.23533,0.009 -0.34585,0.0164 l 8.19688,29.867262 1.66796,-1.67061 c -1.51413,-1.5151 -1.67172,-2.7622 -1.59352,-4.29243 0.0782,-1.53022 0.58626,-3.27168 0.23649,-5.21339 -0.32134,-1.78383 -1.04307,-2.88416 -1.62844,-3.70219 -0.58537,-0.81803 -1.00657,-1.34198 -1.27206,-2.58232 -0.54829,-2.5616 0.2854,-4.857472 -0.18445,-7.680412 -0.25955,-1.55944 -1.0097,-2.57526 -2.2279,-3.7358 -0.96601,-0.92026 -2.01065,-1.03049 -2.84911,-1.00658 z m 28.35343,0 c -0.11983,0.004 -0.23533,0.009 -0.34585,0.0164 l 8.196875,29.867262 1.66797,-1.67061 c -1.51413,-1.5151 -1.67173,-2.7622 -1.59353,-4.29243 0.0781,-1.53022 0.58626,-3.27168 0.23649,-5.21339 -0.32134,-1.78383 -1.04307,-2.88416 -1.62844,-3.70219 -0.585365,-0.81803 -1.006565,-1.34198 -1.272045,-2.58232 -0.5483,-2.5616 0.2854,-4.857472 -0.18446,-7.680412 -0.25953,-1.55944 -1.00968,-2.57526 -2.2279,-3.7358 -0.966,-0.92026 -2.01065,-1.03049 -2.84911,-1.00658 z" /><path
     id="path2594"
     style="font-variation-settings:normal;vector-effect:none;fill:#bf9f4f;fill-opacity:1;stroke:none;stroke-width:0.132291;stroke-linecap:butt;stroke-linejoin:miter;stroke-miterlimit:4;stroke-dasharray:none;stroke-dashoffset:0;stroke-opacity:1;-inkscape-stroke:none;stop-color:#000000"
     d="m 8.401092,90.603028 c 0,0 1.386643,3.05417 -0.309616,6.50323 -1.696258,3.449072 -3.025158,4.834232 -2.770719,9.357602 l 0.488796,5.3346 c 10.358369,22.99971 33.475781,39.01404 60.337272,39.01404 28.61528,0 52.984565,-18.17188 62.202845,-43.60425 -0.72729,-1.26049 -1.65475,-1.96902 -2.07902,-3.9512 -0.62121,-2.90225 0.2109,-5.291792 -0.19565,-7.734432 -0.33168,-1.99277 -2.1696,-4.28924 -4.25884,-4.91959 0,0 1.38664,3.05417 -0.30962,6.50323 h -6.6e-4 c -1.69624,3.449072 -3.02516,4.834232 -2.77072,9.357602 0.25443,4.52335 -0.0851,6.16301 -1.527,7.68964 -1.4418,1.52664 -2.34912,5.48215 -2.34912,5.48215 l -5.50783,-26.037922 -6.85435,26.026732 -0.003,0.0115 c -3.493385,-3.49564 -1.11347,-6.95968 -1.6851,-10.13296 -0.57163,-3.17328 -2.270695,-3.34338 -2.891915,-6.24564 -0.62121,-2.90225 0.21023,-5.291792 -0.19632,-7.734432 -0.3316,-1.99234 -2.16821,-4.28832 -4.25686,-4.91959 0,0 1.38597,3.05417 -0.31027,6.50323 -1.69627,3.449072 -3.02518,4.834232 -2.77073,9.357602 0.25444,4.52335 -0.0852,6.16301 -1.52698,7.68964 -1.44183,1.52664 -2.34913,5.48215 -2.34913,5.48215 l -6.5e-4,-0.009 c 1e-4,0.003 -1.1e-4,0.005 0,0.009 l -5.50851,-26.039232 -6.85697,26.039232 0.002,-0.0115 -0.003,0.0115 c -3.49339,-3.49564 -1.11281,-6.95968 -1.68444,-10.13296 -0.57162,-3.17328 -2.27071,-3.34338 -2.89193,-6.24564 -0.62121,-2.90225 0.21024,-5.291792 -0.1963,-7.734432 -0.33164,-1.99253 -2.16862,-4.28859 -4.25753,-4.91959 0,0 1.38598,3.05417 -0.31028,6.50323 -1.696264,3.449072 -3.025158,4.834232 -2.77072,9.357602 0.25444,4.52335 -0.08517,6.16301 -1.526992,7.68964 -1.441819,1.52664 -2.349117,5.48215 -2.349117,5.48215 l -6.59e-4,-0.009 c 1.09e-4,0.003 -1.11e-4,0.005 0,0.009 L 52.643615,93.595408 45.785984,119.63596 c -3.493389,-3.49564 -1.113464,-6.95968 -1.685093,-10.13296 -0.571624,-3.17328 -2.270718,-3.34338 -2.89193,-6.24564 -0.621214,-2.90225 0.210899,-5.291792 -0.19565,-7.734432 -0.331674,-1.99277 -2.168961,-4.28924 -4.258187,-4.91959 0,0 1.385987,3.05417 -0.310273,6.50323 -1.696258,3.449072 -3.025158,4.834232 -2.77072,9.357602 0.254438,4.52335 -0.08517,6.16301 -1.526991,7.68964 -1.44182,1.52664 -2.349118,5.48215 -2.349118,5.48215 l -5.508501,-26.040552 -6.854337,26.028032 -0.0027,0.0127 h -6.59e-4 v -6.6e-4 c -3.492407,-3.49539 -1.112842,-6.95922 -1.684434,-10.1323 -0.571623,-3.17328 -2.270718,-3.34338 -2.89193,-6.24564 -0.621214,-2.90225 0.210241,-5.291792 -0.196309,-7.734432 -0.331673,-1.99277 -2.169618,-4.28924 -4.258845,-4.91959 z" /><path
     id="path2747"
     style="font-variation-settings:normal;vector-effect:none;fill:#fff2cc;fill-opacity:1;stroke:none;stroke-width:0.132291;stroke-linecap:butt;stroke-linejoin:miter;stroke-miterlimit:4;stroke-dasharray:none;stroke-dashoffset:0;stroke-opacity:1;-inkscape-stroke:none;stop-color:#000000"
     d="m 23.615018,90.406068 -6.183067,29.229582 c 0.400129,0.41486 0.63649,0.66609 1.122517,1.07245 l 5.735113,-27.113002 z m 28.354093,0 -6.183067,29.229582 c 0.400131,0.41486 0.636492,0.66609 1.122518,1.07245 l 5.735113,-27.113002 z m 28.353434,0 -6.18306,29.229582 c 0.40013,0.41486 0.63649,0.66609 1.12252,1.07245 l 5.73511,-27.113002 z m 28.353445,0 -6.18307,29.229582 c 0.40012,0.41486 0.6365,0.66609 1.12252,1.07245 l 5.73511,-27.113002 z m -73.115126,0.0289 c -0.0819,0.003 -0.164428,0.008 -0.246374,0.0164 1.061538,0.95956 1.62287,3.83631 0.766789,6.29966 -0.85608,2.46337 -2.388583,2.96216 -3.140939,6.187032 -0.752364,3.22485 1.144043,7.50451 -0.691691,10.05522 -1.835735,2.55069 -2.540343,4.31548 -2.451224,6.64221 l 0.227269,1.07245 c 0.254887,-0.25187 0.478676,-1.03833 0.871533,-2.64292 0.392856,-1.60458 1.028463,-2.74704 2.70155,-5.07174 1.835736,-2.55071 -0.06068,-6.83037 0.691692,-10.05522 0.752356,-3.224872 2.284858,-3.723662 3.140939,-6.187032 0.768349,-2.21091 0.485207,-4.41239 -0.675223,-6.14749 -0.312088,-0.0943 -0.63011,-0.15321 -0.949265,-0.16666 -0.08185,-0.003 -0.163147,-0.004 -0.245056,-0.003 z m 56.706881,0 c -0.082,0.003 -0.16377,0.008 -0.24573,0.0164 1.06154,0.95956 1.62288,3.83631 0.7668,6.29966 -0.85608,2.46337 -2.38858,2.96216 -3.14094,6.187032 -0.75236,3.22485 1.14404,7.50451 -0.6917,10.05522 -1.83574,2.55069 -2.54034,4.31548 -2.45122,6.64221 l 0.22728,1.07245 c 0.25489,-0.25187 0.47867,-1.03833 0.87153,-2.64292 0.39286,-1.60458 1.02847,-2.74704 2.70155,-5.07174 1.83574,-2.55071 -0.0607,-6.83037 0.69169,-10.05522 0.75236,-3.224872 2.28485,-3.723662 3.14093,-6.187032 0.76834,-2.21091 0.48522,-4.41239 -0.67521,-6.14749 -0.31209,-0.0943 -0.63012,-0.15321 -0.94927,-0.16666 -0.0818,-0.003 -0.16381,-0.004 -0.24571,-0.003 z m 28.354085,0 c -0.082,0.003 -0.16443,0.008 -0.24637,0.0164 1.06153,0.95956 1.62286,3.83631 0.76678,6.29966 -0.85608,2.46337 -2.38858,2.96216 -3.14094,6.187032 -0.75236,3.22485 1.14404,7.50451 -0.69168,10.05522 -1.83573,2.55069 -2.54034,4.31548 -2.45123,6.64221 l 0.22727,1.07245 c 0.25489,-0.25187 0.47867,-1.03833 0.87154,-2.64292 0.39286,-1.60458 1.02846,-2.74704 2.70154,-5.07174 1.83574,-2.55071 -0.0607,-6.83037 0.69169,-10.05522 0.75238,-3.224872 2.28485,-3.723662 3.14094,-6.187032 0.76834,-2.21091 0.48521,-4.41239 -0.67522,-6.14749 -0.31209,-0.0943 -0.63012,-0.15321 -0.94927,-0.16666 -0.0818,-0.003 -0.16315,-0.004 -0.24505,-0.003 z m -113.41506,6.6e-4 c -0.0819,0.003 -0.163769,0.008 -0.245715,0.0158 1.061538,0.95955 1.62287,3.83631 0.76679,6.29965 -0.856081,2.46338 -2.388584,2.96217 -3.14094,6.187032 -0.447023,1.91608 0.0378,4.20299 0.12253,6.2799 0.34981,0.87456 0.715828,1.74049 1.101437,2.59615 0.780212,-2.56214 -0.520914,-6.10678 0.12517,-8.87605 0.752356,-3.224862 2.284859,-3.723652 3.140939,-6.187032 0.768349,-2.2109 0.485208,-4.41239 -0.675224,-6.14748 -0.312087,-0.0943 -0.63011,-0.15322 -0.949264,-0.16667 -0.08185,-0.003 -0.163806,-0.004 -0.245715,-10e-4 z m 56.707531,0 c -0.0819,0.003 -0.16377,0.008 -0.24572,0.0158 1.061544,0.95955 1.622874,3.83631 0.76679,6.29965 -0.85608,2.46338 -2.388582,2.96217 -3.140937,6.187032 -0.752365,3.22486 1.144043,7.50452 -0.691692,10.05523 -1.835734,2.55069 -2.540343,4.31548 -2.451224,6.64221 l 0.22727,1.07245 c 0.254887,-0.25187 0.478675,-1.03768 0.871532,-2.64226 0.392857,-1.60459 1.028464,-2.7477 2.701551,-5.0724 1.83573,-2.55071 -0.06068,-6.83037 0.691691,-10.05523 0.752359,-3.224862 2.284863,-3.723652 3.140943,-6.187032 0.76835,-2.2109 0.48521,-4.41239 -0.67522,-6.14748 -0.31209,-0.0943 -0.630114,-0.15322 -0.949274,-0.16667 -0.0819,-0.003 -0.1638,-0.004 -0.24571,-10e-4 z" /><g
     id="g6910"
     transform="matrix(1.274767,0,0,1.274767,-47.06798,-107.46324)"
     style="stroke-width:0.784457" /><g
     id="g6978"
     transform="matrix(-0.79007384,-1.0004071,-1.0004071,0.79007384,479.71934,302.36858)"
     style="stroke-width:0.784457"><path
       id="path6974"
       style="font-variation-settings:normal;opacity:1;vector-effect:none;fill:#bf9f4f;fill-opacity:1;stroke:none;stroke-width:0.103777;stroke-linecap:butt;stroke-linejoin:miter;stroke-miterlimit:4;stroke-dasharray:none;stroke-dashoffset:0;stroke-opacity:1;-inkscape-stroke:none;stop-color:#000000;stop-opacity:1"
       d="m 378.6625,101.77793 0.0695,7.75165 -18.54076,0.28727 c 0.0775,11.18972 0.6251,18.6092 0.70692,30.42456 l -12.80941,-3.07652 c 0.20968,-11.08431 0.32127,-16.98588 0.51177,-27.05376 l -13.36808,-0.97656 1.8e-4,-15.269775 13.67525,-2.34e-4 11.66897,-8.2e-5 8.12368,1.12e-4 c 2.3755,4.398049 6.90148,7.361349 9.96196,7.913339 z m -18.9278,-10.939182 0.83811,2.521209 -11.65539,-0.0027 c 0.0148,-0.780968 0.0479,-2.518311 0.0479,-2.518311 z m 0.20457,51.223432 c 0,0 0.54805,24.59272 0.55129,25.06163 0.01,1.43536 -2.27685,2.43858 -6.27206,2.38023 -3.02179,-0.0442 -5.20749,-0.48029 -6.20387,-1.54782 -0.32098,-0.3439 -0.49489,-0.71419 -0.48785,-1.08635 0.0104,-0.55054 0.31331,-16.56195 0.51841,-27.40471 z" /><path
       id="path8130"
       style="font-variation-settings:normal;vector-effect:none;fill:#fff2cc;fill-opacity:1;stroke:none;stroke-width:0.103777;stroke-linecap:butt;stroke-linejoin:miter;stroke-miterlimit:4;stroke-dasharray:none;stroke-dashoffset:0;stroke-opacity:1;-inkscape-stroke:none;stop-color:#000000"
       d="m 379.20669,101.39518 7e-5,8.71567 -43.97422,1.9e-4 -8e-5,-0.97647 43.14382,-2.4e-4 -1.4e-4,-7.08321 c -3.06047,-0.55199 -6.82393,-2.812182 -9.19943,-7.210238 l -0.47617,-0.976291 0.99705,-5.5e-5 c 2.3755,4.398056 6.44862,6.978664 9.5091,7.530644 z" /><path
       id="path8132"
       style="font-variation-settings:normal;vector-effect:none;fill:#fff2cc;fill-opacity:1;stroke:none;stroke-width:0.103777;stroke-linecap:butt;stroke-linejoin:miter;stroke-miterlimit:4;stroke-dasharray:none;stroke-dashoffset:0;stroke-opacity:1;-inkscape-stroke:none;stop-color:#000000"
       d="m 360.55591,90.838818 0.0169,2.521139 -0.82141,-0.01702 -0.0167,-2.504189 z" /><path
       id="path8177"
       style="font-variation-settings:normal;vector-effect:none;fill:#fff2cc;fill-opacity:1;stroke:none;stroke-width:0.103777;stroke-linecap:butt;stroke-linejoin:miter;stroke-miterlimit:4;stroke-dasharray:none;stroke-dashoffset:0;stroke-opacity:1;-inkscape-stroke:none;stop-color:#000000"
       d="m 360.68935,110.1107 -0.0207,0.50493 0.21766,29.62328 -0.94784,-0.22797 c -0.004,-9.88503 -0.0199,-20.6068 -0.0808,-29.39491 l 0.0152,-0.50521 z m -6.20677,59.04319 c 3.99522,0.0584 5.48409,-0.95469 5.47709,-2.00635 -0.0271,-3.95331 -0.0174,-13.81031 -0.0204,-25.08536 l 0.96207,0.21015 0.1836,24.95846 c 0.01,1.43536 -2.62106,2.73258 -6.61625,2.67423 -3.01919,-0.0441 -5.45605,-0.88258 -6.45406,-1.9488 0,0 2.47661,1.13933 6.46795,1.19767 z" /></g><g
     id="g6972"
     transform="matrix(0.79007385,-1.0004071,1.0004071,0.79007385,-347.42768,302.36858)"
     style="stroke-width:0.784457"><path
       id="path6968"
       style="font-variation-settings:normal;opacity:1;vector-effect:none;fill:#bf9f4f;fill-opacity:1;stroke:none;stroke-width:0.103777;stroke-linecap:butt;stroke-linejoin:miter;stroke-miterlimit:4;stroke-dasharray:none;stroke-dashoffset:0;stroke-opacity:1;-inkscape-stroke:none;stop-color:#000000;stop-opacity:1"
       d="m 378.37636,110.1108 0.29569,-8.38206 c -3.06048,-0.55197 -7.25022,-3.655021 -9.22518,-7.3115 l -9.30528,-0.114599 -0.1421,-2.9774 -11.05123,0.416748 -0.0404,2.122573 -13.67514,0.976704 -2.1e-4,15.269774 13.368,9e-5 12.0886,-2.7e-4 z m -29.78538,0.50775 c -0.40053,21.16684 -1.04282,55.12132 -1.0642,56.2514 -0.0289,1.52742 2.94665,2.97674 6.94189,3.03514 3.99522,0.0583 6.62625,-1.23887 6.61625,-2.67423 -0.007,-1.06376 -1.20299,-56.61504 -1.20299,-56.61504 z" /><path
       id="path6993"
       style="font-variation-settings:normal;opacity:1;vector-effect:none;fill:#fff2cc;fill-opacity:1;stroke:none;stroke-width:0.103777;stroke-linecap:butt;stroke-linejoin:miter;stroke-miterlimit:4;stroke-dasharray:none;stroke-dashoffset:0;stroke-opacity:1;-inkscape-stroke:none;stop-color:#000000;stop-opacity:1"
       d="m 379.20669,101.39518 c -3.06048,-0.55198 -7.1336,-3.132586 -9.5091,-7.530643 l -34.46496,2.59e-4 9e-5,0.97647 33.94399,-3.83e-4 c 2.3755,4.398056 6.13895,6.658247 9.19942,7.210237 l 2.3e-4,8.05968 0.83039,5e-5 z" /><path
       id="path6996"
       style="font-variation-settings:normal;opacity:1;vector-effect:none;fill:#fff2cc;fill-opacity:1;stroke:none;stroke-width:0.103777;stroke-linecap:butt;stroke-linejoin:miter;stroke-miterlimit:4;stroke-dasharray:none;stroke-dashoffset:0;stroke-opacity:1;-inkscape-stroke:none;stop-color:#000000;stop-opacity:1"
       d="m 360.57996,94.311879 -0.024,-3.47306 -11.5906,9e-5 -0.0171,0.90308 10.79258,-1.6e-5 0.0175,2.552591 z" /><path
       id="path7001"
       style="font-variation-settings:normal;opacity:1;vector-effect:none;fill:#fff2cc;fill-opacity:1;stroke:none;stroke-width:0.103777;stroke-linecap:butt;stroke-linejoin:miter;stroke-miterlimit:4;stroke-dasharray:none;stroke-dashoffset:0;stroke-opacity:1;-inkscape-stroke:none;stop-color:#000000;stop-opacity:1"
       d="m 359.88193,110.61582 c 0.13552,19.55768 0.0672,48.78139 0.1194,56.38895 0.007,1.04709 1.08711,0.73198 1.08359,0.22609 l -0.39196,-56.61524 z" /></g></svg>
