<?xml version="1.0" encoding="UTF-8" standalone="no"?>
<svg
   xmlns:dc="http://purl.org/dc/elements/1.1/"
   xmlns:cc="http://creativecommons.org/ns#"
   xmlns:rdf="http://www.w3.org/1999/02/22-rdf-syntax-ns#"
   xmlns:svg="http://www.w3.org/2000/svg"
   xmlns="http://www.w3.org/2000/svg"
   xmlns:sodipodi="http://sodipodi.sourceforge.net/DTD/sodipodi-0.dtd"
   xmlns:inkscape="http://www.inkscape.org/namespaces/inkscape"
   width="500"
   height="530"
   viewBox="0 0 132.29166 140.22917"
   version="1.1"
   id="svg847"
   sodipodi:docname="kärsämäki.svg"
   inkscape:version="1.0.2 (e86c870879, 2021-01-15, custom)">
  <defs
     id="defs841" />
  <sodipodi:namedview
     id="base"
     pagecolor="#ffffff"
     bordercolor="#666666"
     borderopacity="1.0"
     inkscape:pageopacity="0.0"
     inkscape:pageshadow="2"
     inkscape:zoom="0.7"
     inkscape:cx="266.24644"
     inkscape:cy="193.45485"
     inkscape:document-units="px"
     inkscape:current-layer="layer1"
     inkscape:document-rotation="0"
     showgrid="false"
     inkscape:snap-smooth-nodes="true"
     inkscape:showpageshadow="false"
     borderlayer="true"
     units="px"
     inkscape:window-width="1920"
     inkscape:window-height="1017"
     inkscape:window-x="-8"
     inkscape:window-y="-4"
     inkscape:window-maximized="1" />
  <metadata
     id="metadata844">
    <rdf:RDF>
      <cc:Work
         rdf:about="">
        <dc:format>image/svg+xml</dc:format>
        <dc:type
           rdf:resource="http://purl.org/dc/dcmitype/StillImage" />
        <dc:title></dc:title>
      </cc:Work>
    </rdf:RDF>
  </metadata>
  <g
     inkscape:label="Layer 1"
     inkscape:groupmode="layer"
     id="layer1"
     transform="translate(-22.484049,-60.73798)">
    <g
       id="g1719"
       transform="matrix(0.95165138,0,0,0.95165138,1.0870727,2.9365975)"
       style="stroke-width:1.0508">
      <path
         style="font-variation-settings:normal;opacity:1;vector-effect:none;fill:#005dbd;fill-opacity:1;stroke:none;stroke-width:0.139013;stroke-linecap:butt;stroke-linejoin:miter;stroke-miterlimit:4;stroke-dasharray:none;stroke-dashoffset:0;stroke-opacity:1;stop-color:#000000;stop-opacity:1"
         d="m 161.49679,60.73798 c 0,0 -5.4804,66.4685 -7.73813,93.70918 -2.25774,27.24067 -29.88724,53.64432 -61.768243,53.64432 -31.881008,0 -59.510498,-26.40365 -61.768238,-53.64432 -2.25774,-27.24068 -7.73813,-93.709178 -7.73813,-93.709178 z"
         id="path846"
         sodipodi:nodetypes="cszscc" />
      <path
         style="font-variation-settings:normal;opacity:1;vector-effect:none;fill:#d9d9d9;fill-opacity:1;stroke:none;stroke-width:0.139013;stroke-linecap:butt;stroke-linejoin:miter;stroke-miterlimit:4;stroke-dasharray:none;stroke-dashoffset:0;stroke-opacity:1;stop-color:#000000;stop-opacity:1"
         d="m 153.22949,154.19687 7.73813,-92.92972 -137.954404,-2e-6 7.73813,92.929722 z"
         id="path861"
         sodipodi:nodetypes="ccccc" />
      <path
         id="path1525"
         style="font-variation-settings:normal;opacity:1;vector-effect:none;fill:#d50606;fill-opacity:1;stroke:none;stroke-width:0.525402;stroke-linecap:butt;stroke-linejoin:miter;stroke-miterlimit:4;stroke-dasharray:none;stroke-dashoffset:0;stroke-opacity:1;stop-color:#000000;stop-opacity:1"
         d="m 191.78125,257.3125 c -1.60221,0.0295 -2.8583,0.13281 -3.64648,0.13281 14.77348,8.93407 18.25531,18.75792 13.48046,33.85352 -4.77484,15.0956 -10.51345,21.72897 -10.7832,36.80078 -0.26975,15.07182 6.41528,19.5221 3.90039,33.7793 -2.51488,14.25722 -10.03341,19.37203 -13.9668,37.37109 -3.93338,17.99909 5.93946,51.31641 5.93946,51.31641 l 49.1582,-0.28907 c -4.72529,-10.94778 -9.50139,-23.96414 -9.85156,-37.19336 -0.35018,-13.22921 11.14271,-30.19028 8.79297,-46.90625 -2.34975,-16.71596 -10.24526,-19.46001 -12.35547,-33.72461 -2.11021,-14.26459 11.34999,-36.05701 -0.60156,-56.99804 -9.71064,-17.01458 -23.12349,-18.27029 -30.06641,-18.14258 z m 279.53125,0 c -1.60221,0.0295 -2.86026,0.13281 -3.64844,0.13281 14.77346,8.93407 18.25534,18.75792 13.48047,33.85352 -4.77483,15.0956 -10.51139,21.72897 -10.78125,36.80078 -0.26974,15.07182 6.41334,19.5221 3.89844,33.7793 -2.51486,14.25722 -10.03341,19.37203 -13.9668,37.37109 -3.93335,17.99909 5.93946,51.31641 5.93946,51.31641 l 49.16015,-0.28907 c -4.72528,-10.94778 -9.5012,-23.96414 -9.85156,-37.19336 -0.35017,-13.22921 11.14274,-30.19028 8.79297,-46.90625 -2.34973,-16.71596 -10.2472,-19.46001 -12.35742,-33.72461 -2.11019,-14.26459 11.35193,-36.05701 -0.59961,-56.99804 -9.71064,-17.01458 -23.12349,-18.27029 -30.06641,-18.14258 z m -215.1582,0.002 c -1.60222,0.0328 -2.86026,0.14649 -3.64844,0.14649 14.77348,9.95305 20.39761,20.30094 14.01562,36.52148 -6.38199,16.22055 -14.64886,26.88648 -14.88281,41.44922 -0.23396,14.56275 12.12231,23.68504 9.60742,39.56836 -2.51488,15.88335 -12.52365,25.08269 -18.25195,43.42383 -5.72829,18.34114 6.47461,45.83008 6.47461,45.83008 l 58.34375,-1.25 c -4.72529,-8.01872 -13.96885,-17.44902 -14.39844,-35.5293 -0.42959,-18.08028 11.75956,-38.96613 8.03516,-56.47461 -3.7244,-17.50846 -12.44548,-19.45064 -14.85156,-37.57031 -2.40609,-18.11969 11.57459,-32.57676 -0.37696,-55.90625 -9.71063,-18.95522 -23.12348,-20.35126 -30.0664,-20.20899 z m 145.90429,0 c -1.60221,0.0328 -2.86025,0.14649 -3.64843,0.14649 14.77349,9.95305 20.39762,20.30094 14.01562,36.52148 -6.382,16.22055 -14.64886,26.88648 -14.88281,41.44922 -0.23395,14.56275 12.12423,23.68504 9.60937,39.56836 -2.51489,15.88335 -12.52561,25.08269 -18.2539,43.42383 -5.72829,18.34114 6.47461,45.83008 6.47461,45.83008 l 58.34375,-1.25 c -4.72528,-8.01872 -13.96886,-17.44902 -14.39844,-35.5293 C 438.88878,409.39433 451.0779,388.50848 447.35352,371 443.62909,353.49154 434.90999,351.54936 432.50391,333.42969 430.09782,315.31 444.07655,300.85293 432.125,277.52344 422.41434,258.56822 409.00152,257.17218 402.05859,257.31445 Z m -269.6914,0.0332 c -1.42509,0.006 -2.56079,0.0801 -3.30664,0.0801 13.98002,7.77832 18.88168,14.72248 14.36328,27.86524 -4.5184,13.14276 -14.77012,18.38381 -15.02539,31.50586 -0.25527,13.12206 6.07122,15.92507 3.6914,28.33789 -2.37981,12.41284 -9.93577,15.33024 -11.60937,33.07226 -1.6736,17.74205 7.22656,47.35547 7.22656,47.35547 l 46.51953,-0.25 c -4.4715,-9.53151 -10.00564,-21.54272 -10.39453,-35.06054 -0.38892,-13.51784 8.93643,-26.28634 6.71289,-40.83985 -2.22354,-14.5535 -7.92827,-18.08465 -10.08594,-31.5039 -2.15766,-13.41927 9.05066,-28.10784 -1.63867,-45.33985 -8.68509,-14.00099 -20.27773,-15.24747 -26.45312,-15.22265 z m 397.41601,0.0801 c 13.98002,7.77832 13.18022,25.90244 9.00558,38.04521 -4.17456,12.14276 -13.67848,20.59613 -13.95312,34.71818 -0.27463,14.12205 6.60711,22.13063 5.74246,35.30107 -0.8646,13.17043 -6.68888,20.23066 -8.17382,35.97265 -1.48494,15.74208 6.02539,24.09961 6.02539,24.09961 l 33.63867,-10.09961 c 0,0 9.75109,-16.51146 9.30469,-32.02929 -0.44652,-15.51784 -12.27647,-27.04415 -14.5,-41.59766 -2.22354,-14.5535 1.4406,-17.3299 3.77343,-31.42773 2.33284,-14.09783 2.28226,-25.67816 -5.92578,-38.91016 -8.20807,-13.232 -20.95962,-14.07227 -24.9375,-14.07227 z m -202.66015,0.0293 c -0.93419,-0.0153 -1.68353,0.006 -2.20899,0.006 14.01587,13.63706 18.88199,35.31933 12.5,53.41211 -6.38199,18.09278 -14.68098,24.61613 -14.88281,38.62891 -0.20183,14.01278 8.45967,24.9638 6.57813,38.21875 -1.88155,13.25499 -9.36119,17.53242 -14.46485,35.75976 -5.10366,18.22734 7.99024,41.04688 7.99024,41.04688 l 59.09961,-0.61719 c -4.72529,-8.94429 -9.11169,-18.85247 -10.60743,-33.71289 -1.49574,-14.86039 6.14168,-25.14406 1.21485,-42.71289 -4.92684,-17.56891 -13.46692,-18.85762 -15.60742,-36.83789 -2.14051,-17.98028 15.87204,-40.29004 3.4082,-67.42774 -10.90587,-23.74548 -26.48021,-25.65656 -33.01953,-25.76367 z"
         transform="scale(0.26458333)"
         sodipodi:nodetypes="scssssccsssssscscsscccssssscssssccsssssscssssccsssssscssssccssssscszssccsssscscssssccsssss" />
      <path
         id="path1673"
         style="font-variation-settings:normal;opacity:1;vector-effect:none;fill:#d9d9d9;fill-opacity:1;stroke:none;stroke-width:0.500001;stroke-linecap:butt;stroke-linejoin:miter;stroke-miterlimit:4;stroke-dasharray:none;stroke-dashoffset:0;stroke-opacity:1;stop-color:#000000;stop-opacity:1"
         d="m 128.41797,370.26172 c 0,0 -8.11314,15.41043 -7.11914,36.32031 l 1.75586,19.1543 34.50781,-5.76758 -6.78906,-18.19922 -5.53125,-2.95703 5.26758,-16.6543 1.10546,-2.71875 z m 410.68945,0.97851 -23.24414,9.38672 c 1.90224,6.42244 3.27134,12.86884 3.32227,21.14258 l -6.78907,18.19922 26.60547,-13.49219 C 537.47249,381.24078 540.2793,373.875 540.2793,373.875 Z"
         transform="matrix(0.27802548,0,0,0.27802548,-1.1423014,-3.0857912)" />
      <path
         id="path883"
         style="font-variation-settings:normal;opacity:1;vector-effect:none;fill:#005dbd;fill-opacity:1;stroke:none;stroke-width:0.525404;stroke-linecap:butt;stroke-linejoin:miter;stroke-miterlimit:4;stroke-dasharray:none;stroke-dashoffset:0;stroke-opacity:1;stop-color:#000000;stop-opacity:1"
         d="m 131.95117,381.20703 c 0,0 -21.4163,45.57843 18.22656,103.43555 39.64286,57.85716 115.71485,63.75 149.46485,63.75 h 96.07617 c 33.75001,0 109.82003,-5.89284 149.46289,-63.75 39.64286,-57.85712 18.22852,-103.43555 18.22852,-103.43555 l -21.88868,8.70313 c 0,0 1.60632,6.69613 2.67774,19.01757 0.72786,8.37045 4.14823,56.10382 -37.74024,88.33789 -40.67916,31.30356 -100.25316,38.1211 -128.92578,38.1211 h -59.70508 c -28.67259,0 -88.24661,-6.81754 -128.92578,-38.1211 -41.8885,-32.23407 -38.47006,-79.96744 -37.74218,-88.33789 1.07142,-12.32144 2.67968,-19.01757 2.67968,-19.01757 z m 22.16406,29.31055 c -0.44663,6.79378 -0.66481,18.01221 2.24024,30.96289 50.94365,43.74765 146.11478,55.83789 191.32422,55.83789 45.20943,0 140.38248,-12.09024 191.32617,-55.83789 2.905,-12.95063 2.68686,-24.1691 2.24023,-30.96289 -47.39211,25.5596 -98.99759,52.33984 -193.5664,52.33984 -94.56782,0 -146.17276,-26.78048 -193.56446,-52.33984 z m 3.48243,35.91015 c 4.45219,15.88135 13.85508,33.62482 33.13476,48.46094 39.71772,30.56368 98.90646,37.49414 127.0957,37.49414 h 59.70508 c 28.18925,0 87.37797,-6.93046 127.09571,-37.49414 19.27967,-14.83612 28.68259,-32.57959 33.13476,-48.46094 -52.74047,42.59105 -145.38483,54.45508 -190.08398,54.45508 -44.69916,0 -137.34157,-11.86403 -190.08203,-54.45508 z"
         transform="scale(0.26458333)" />
    </g>
  </g>
</svg>
