<?xml version="1.0" encoding="UTF-8" standalone="no"?>
<svg
   xmlns:dc="http://purl.org/dc/elements/1.1/"
   xmlns:cc="http://creativecommons.org/ns#"
   xmlns:rdf="http://www.w3.org/1999/02/22-rdf-syntax-ns#"
   xmlns:svg="http://www.w3.org/2000/svg"
   xmlns="http://www.w3.org/2000/svg"
   xmlns:sodipodi="http://sodipodi.sourceforge.net/DTD/sodipodi-0.dtd"
   xmlns:inkscape="http://www.inkscape.org/namespaces/inkscape"
   inkscape:version="1.0 (4035a4fb49, 2020-05-01)"
   sodipodi:docname="karstula.svg"
   id="svg8"
   version="1.1"
   viewBox="0 0 132.29166 148.16667"
   height="560"
   width="500">
  <defs
     id="defs2" />
  <sodipodi:namedview
     inkscape:object-nodes="true"
     inkscape:showpageshadow="false"
     inkscape:window-maximized="1"
     inkscape:window-y="-8"
     inkscape:window-x="-8"
     inkscape:window-height="1017"
     inkscape:window-width="1920"
     units="px"
     showgrid="false"
     inkscape:document-rotation="0"
     inkscape:current-layer="layer1"
     inkscape:document-units="px"
     inkscape:cy="319.76463"
     inkscape:cx="163.09982"
     inkscape:zoom="0.64593752"
     inkscape:pageshadow="2"
     inkscape:pageopacity="0.0"
     borderopacity="1.0"
     bordercolor="#666666"
     pagecolor="#ffffff"
     id="base"
     inkscape:snap-others="false"
     inkscape:lockguides="true" />
  <metadata
     id="metadata5">
    <rdf:RDF>
      <cc:Work
         rdf:about="">
        <dc:format>image/svg+xml</dc:format>
        <dc:type
           rdf:resource="http://purl.org/dc/dcmitype/StillImage" />
        <dc:title></dc:title>
      </cc:Work>
    </rdf:RDF>
  </metadata>
  <g
     transform="translate(-7.1945546,-17.203676)"
     id="layer1"
     inkscape:groupmode="layer"
     inkscape:label="Шар 1">
    <g
       style="stroke-width:1.11933"
       transform="matrix(0.9012003,0,0,0.88565395,0.71081983,1.9671725)"
       id="g1040">
      <path
         style="font-variation-settings:normal;opacity:1;vector-effect:none;fill:#ee1c25;fill-opacity:1;fill-rule:evenodd;stroke:none;stroke-width:0.296155;stroke-linecap:butt;stroke-linejoin:miter;stroke-miterlimit:4;stroke-dasharray:none;stroke-dashoffset:0;stroke-opacity:1;marker:none;marker-start:none;marker-mid:none;marker-end:none;stop-color:#000000;stop-opacity:1"
         d="M 153.98952,17.203676 V 111.511 c 0,36.92896 -27.9235,72.98902 -73.39748,72.98902 -45.473995,0 -73.3974854,-36.06006 -73.3974854,-72.98902 V 17.203676 Z"
         id="path844"
         sodipodi:nodetypes="cszscc" />
      <path
         d="M 63.118627,30.255002 C 59.438072,30.221532 55.60912,31.2399 51.920862,33.656345 40.210854,41.32842 47.422946,57.705006 47.422946,57.705006 h 3.087666 c 0,0 -2.031243,-9.335579 4.37751,-11.418424 6.408753,-2.082848 11.366749,1.672532 11.366749,11.673705 V 82.74172 h -22.11183 c -8.923866,0 -12.274904,-4.957998 -10.416418,-11.366749 1.858486,-6.408758 10.188527,-4.37751 10.188527,-4.37751 v -3.087666 c 0,0 -14.612985,-7.212095 -21.458639,4.497916 -6.899681,11.802425 -1.025607,25.045114 7.5029,30.258618 -8.528507,5.213511 -14.402581,18.456211 -7.5029,30.258631 6.845654,11.71001 21.458639,4.49791 21.458639,4.49791 v -3.08715 c 0,0 -8.330041,2.03072 -10.188527,-4.37802 -1.858486,-6.40876 1.492552,-11.36675 10.416418,-11.36675 h 22.11183 v 24.78143 c 0,10.00117 -4.957996,13.75706 -11.366749,11.67422 -6.408753,-2.08285 -4.37751,-11.41894 -4.37751,-11.41894 h -3.087666 c 0,0 -7.212092,16.37658 4.497916,24.04866 11.802422,7.73262 25.045114,1.14982 30.258618,-8.40827 5.213503,9.55809 18.4562,16.14089 30.25862,8.40827 11.71001,-7.67208 4.49792,-24.04866 4.49792,-24.04866 h -3.08715 c 0,0 2.03073,9.33609 -4.37803,11.41894 -6.40875,2.08284 -11.366751,-1.67305 -11.366751,-11.67422 v -24.78143 h 22.112351 c 8.92387,0 12.27491,4.95799 10.41642,11.36675 -1.85848,6.40874 -10.18904,4.37802 -10.18904,4.37802 v 3.08715 c 0,0 14.61298,7.2121 21.45863,-4.49791 6.89968,-11.80242 1.02561,-25.04512 -7.5029,-30.258631 8.52851,-5.213504 14.40258,-18.456193 7.5029,-30.258618 C 135.0568,56.6977 120.44382,63.909795 120.44382,63.909795 v 3.087666 c 0,0 8.33056,-2.031248 10.18904,4.37751 1.85849,6.408751 -1.49255,11.366749 -10.41642,11.366749 H 98.104089 V 57.960287 c 0,-10.001173 4.958001,-13.756553 11.366751,-11.673705 6.40876,2.082845 4.37803,11.418424 4.37803,11.418424 h 3.08715 c 0,0 7.21209,-16.376586 -4.49792,-24.048661 C 100.63568,25.923721 87.392983,32.506532 82.17948,42.064618 78.595196,35.493434 71.215853,30.328635 63.118627,30.255002 Z m 19.060853,49.53496 a 9.775314,9.775314 0 0 1 9.775632,9.775113 9.775314,9.775314 0 0 1 -5.400189,8.741585 l 5.787245,17.77463 c 0,0 -4.080272,2.04949 -10.162688,2.04949 -6.082416,0 -10.16217,-2.04949 -10.16217,-2.04949 l 5.787242,-17.77463 a 9.775314,9.775314 0 0 1 -5.400185,-8.741585 9.775314,9.775314 0 0 1 9.775113,-9.775113 z"
         style="font-variation-settings:normal;opacity:1;vector-effect:none;fill:#9f0c12;fill-opacity:1;fill-rule:evenodd;stroke:none;stroke-width:0.296155;stroke-linecap:butt;stroke-linejoin:miter;stroke-miterlimit:4;stroke-dasharray:none;stroke-dashoffset:0;stroke-opacity:1;marker:none;marker-start:none;marker-mid:none;marker-end:none;stop-color:#000000;stop-opacity:1"
         id="path1012" />
      <path
         id="path861"
         style="font-variation-settings:normal;opacity:1;vector-effect:none;fill:#cccccc;fill-opacity:1;fill-rule:evenodd;stroke:none;stroke-width:1.11933;stroke-linecap:butt;stroke-linejoin:miter;stroke-miterlimit:4;stroke-dasharray:none;stroke-dashoffset:0;stroke-opacity:1;marker:none;marker-start:none;marker-mid:none;marker-end:none;stop-color:#000000;stop-opacity:1"
         d="m 232.55859,108.34961 c -13.91076,-0.1265 -28.38239,3.72245 -42.32226,12.85547 -44.2583,28.99682 -17,90.89258 -17,90.89258 h 11.66992 c 0,0 -7.67714,-35.28408 16.54492,-43.15625 24.22206,-7.87218 42.96094,6.32138 42.96094,44.12109 v 93.66211 h -83.57227 c -33.728,0 -46.39334,-18.73889 -39.36914,-42.96094 7.0242,-24.22208 38.50782,-16.54492 38.50782,-16.54492 v -11.66992 c 0,0 -55.23018,-27.25831 -81.10352,17 -26.077534,44.60759 -3.876309,94.6587 28.35742,114.36328 -32.233729,19.70458 -54.434954,69.75571 -28.35742,114.36328 25.87334,44.25831 81.10352,17 81.10352,17 v -11.66797 c 0,0 -31.48362,7.67517 -38.50782,-16.54687 -7.0242,-24.22205 5.64114,-42.96094 39.36914,-42.96094 h 83.57227 v 93.66211 c 0,37.7997 -18.73888,51.9952 -42.96094,44.12305 -24.22206,-7.87219 -16.54492,-43.15821 -16.54492,-43.15821 h -11.66992 c 0,0 -27.2583,61.89574 17,90.89258 44.60758,29.22565 94.6587,4.34577 114.36328,-31.7793 19.70458,36.12507 69.75569,61.00495 114.36328,31.7793 44.25831,-28.99684 17,-90.89258 17,-90.89258 h -11.66797 c 0,0 7.67521,35.28602 -16.54687,43.15821 -24.22205,7.87215 -42.96094,-6.32335 -42.96094,-44.12305 v -93.66211 h 83.57422 c 33.72801,0 46.39335,18.73889 39.36914,42.96094 -7.02418,24.22204 -38.50977,16.54687 -38.50977,16.54687 v 11.66797 c 0,0 55.23016,27.25831 81.10352,-17 26.07753,-44.60757 3.87632,-94.6587 -28.35742,-114.36328 32.23374,-19.70458 54.43495,-69.75569 28.35742,-114.36328 -25.87336,-44.25831 -81.10352,-17 -81.10352,-17 v 11.66992 c 0,0 31.48559,-7.67716 38.50977,16.54492 7.02421,24.22205 -5.64113,42.96094 -39.36914,42.96094 H 364.78711 V 213.0625 c 0,-37.79971 18.73889,-51.99327 42.96094,-44.12109 24.22208,7.87217 16.54687,43.15625 16.54687,43.15625 h 11.66797 c 0,0 27.25831,-61.89576 -17,-90.89258 -44.60759,-29.225664 -94.6587,-4.34575 -114.36328,31.7793 -13.5469,-24.83597 -41.43733,-44.35647 -72.04102,-44.63477 z m 72.04102,187.21875 a 36.946069,36.946069 0 0 1 36.94727,36.94531 36.946069,36.946069 0 0 1 -20.41016,33.03906 l 21.87305,67.17969 c 0,0 -15.4215,7.7461 -38.41016,7.7461 -22.98866,0 -38.4082,-7.7461 -38.4082,-7.7461 l 21.87304,-67.17969 a 36.946069,36.946069 0 0 1 -20.41015,-33.03906 36.946069,36.946069 0 0 1 36.94531,-36.94531 z"
         transform="scale(0.26458333)" />
      <path
         id="path952"
         style="font-variation-settings:normal;opacity:1;vector-effect:none;fill:#ffffff;fill-opacity:1;fill-rule:evenodd;stroke:none;stroke-width:1.11933;stroke-linecap:butt;stroke-linejoin:miter;stroke-miterlimit:4;stroke-dasharray:none;stroke-dashoffset:0;stroke-opacity:1;marker:none;marker-start:none;marker-mid:none;marker-end:none;stop-color:#000000;stop-opacity:1"
         d="m 232.55859,108.34961 c -13.91076,-0.1265 -28.38239,3.72245 -42.32226,12.85547 -44.2583,28.99682 -17,90.89258 -17,90.89258 l 2.90234,-3.48243 c 0,0 -24.06303,-57.25563 18.20313,-84.94726 42.59972,-27.910169 90.96375,-0.65151 110.25781,36.70508 19.70458,-36.12505 66.47054,-66.751058 111.07812,-37.52539 7.89423,5.17208 13.6194,11.33683 17.69532,17.97851 0,0 -2.69977,-6.62115 -4.44141,-8.94336 0,0 4.50169,3.44156 9.79492,11.91407 -3.90981,-8.44172 -10.14931,-16.29273 -19.76367,-22.5918 -44.60759,-29.225665 -94.6587,-4.34575 -114.36328,31.7793 -13.5469,-24.83597 -41.43733,-44.35647 -72.04102,-44.63477 z m 175.18946,60.5918 c 24.22208,7.87216 16.54687,43.15625 16.54687,43.15625 l 4.99219,-4.64454 c 4.71065,-27.76669 -9.93555,-35.51367 -9.93555,-35.51367 4.9347,4.64442 6.38672,10.74024 6.38672,10.74024 -6.38608,-12.19158 -17.99023,-13.73828 -17.99023,-13.73828 z m -167.20703,8.80468 c 2.61248,5.51525 4.35546,15.38477 4.35546,15.38477 -2.90275,-8.418 -7.06445,-11.62891 -7.06445,-11.62891 4.18443,7.54994 6.58008,18.04678 6.58008,31.56055 v 93.66211 h -83.57227 c -20.02267,0 -32.62381,-6.60441 -38.08789,-17.03906 1.32045,5.21587 5.06641,9.29883 5.06641,9.29883 -2.61248,-1.74166 -7.25781,-6.67579 -7.25781,-6.67579 8.41799,14.51379 21.33981,17.80274 43.91797,17.80274 h 83.90039 c 0,0 0.87082,-94.92034 0,-111.17578 -0.87083,-16.25545 -7.83789,-21.18946 -7.83789,-21.18946 z m -116.07618,49.50196 c -0.61654,-0.007 -1.23569,-0.004 -1.85742,0.006 -15.47416,0.25721 -32.412833,5.93191 -43.73242,25.29492 -25.341902,43.34924 -5.090451,91.84016 25.6543,112.625 l -5.126956,-5.48438 c 4.293546,2.90645 6.561316,3.78827 9.312496,5.15235 C 78.71758,344.40174 55.44897,298.42222 80.060547,256.32227 105.34301,213.0747 157.70313,238.14844 157.70312,238.14844 l 2.2754,-2.59961 c 0,0 -16.4008,-8.09551 -35.51368,-8.30078 z m 360.26954,0 c -19.11288,0.20527 -35.51368,8.30078 -35.51368,8.30078 v 11.66992 l 2.46289,-9.20703 c 0,0 51.65463,-26.10848 77.98047,18.92383 -2.15728,-5.82491 -4.98675,-10.97117 -10.65234,-15.1875 3.77061,2.09194 7.54189,6.60813 11.3125,10.80078 -11.3196,-19.36301 -28.25826,-25.03771 -43.73242,-25.29492 -0.62173,-0.0103 -1.24088,-0.0125 -1.85742,-0.006 z m 2.99609,36.51562 c 7.02421,24.22205 -5.64113,42.96094 -39.36914,42.96094 h -83.57422 l -4.82031,3.45117 h 89.01172 c 35.9227,0 49.41099,-19.95961 41.92968,-45.75781 0.1217,6.48051 1.61516,8.03004 -0.86523,21.90625 0.1799,-7.99523 1.62407,-16.62363 -2.3125,-22.56055 z m -149.58399,47.02149 2.8418,9.54687 -3.49804,-5.13813 c 1.94141,3.0396 4.05652,10.10059 4.05664,17.31977 1e-5,13.98887 -7.90062,26.77808 -20.41016,33.03906 l 21.87305,67.17969 c 0,0 -15.4215,7.7461 -38.41016,7.7461 -22.98866,0 -38.4082,-7.7461 -38.4082,-7.7461 l -2.53125,3.16211 c 0,0 16.68166,8.58399 40.93945,8.58399 24.25778,0 43.4043,-9.81641 43.4043,-9.81641 L 323.75,366.71289 c 12.32932,-7.18718 20.65843,-18.48916 20.6582,-36.16016 -7e-5,-6.28516 -2.31345,-13.70623 -6.26172,-19.76757 z M 107.23242,366.91211 C 74.998693,386.61669 52.797473,436.66782 78.875,481.27539 c 4.097386,7.00891 8.932149,12.22495 14.166016,16.03906 -4.998138,-4.74618 -7.450448,-8.64423 -10.216797,-12.64648 4.373627,4.87476 8.747467,7.24813 13.121093,9.88476 -5.230271,-3.74551 -10.060163,-8.90539 -14.142578,-15.88867 -25.482,-43.58887 -1.378464,-92.49736 30.119146,-111.75195 z m 390.0957,0 c 6.16555,3.76902 11.97082,8.63036 17.15626,14.33984 l -9.16407,-10.53906 14.59766,11.51367 c -5.36738,-6.14182 -11.45613,-11.34402 -17.95117,-15.31445 z m -48.96679,56.49414 c 10.39963,1.70022 17.67758,2.08293 29.35156,8.79492 -15.37364,-7.28999 -23.66129,-5.64766 -29.35156,-5.10156 33.72801,0 46.39335,18.73889 39.36914,42.96094 -7.02418,24.22204 -38.50977,16.54687 -38.50977,16.54687 v 11.66797 l 2.875,-7.97461 c 0,0 31.43398,8.21424 39.32813,-19.00781 7.89418,-27.22205 -9.33449,-47.88672 -43.0625,-47.88672 z m -200.94922,0.87305 -3,2.82031 v 93.66211 c 0,37.7997 -18.73889,51.99523 -42.96094,44.12305 -5.97909,-1.94321 -10.01413,-5.55758 -12.70117,-9.89844 1.23657,3.01039 3.43603,6.14852 7.91406,10.14258 -5.99809,-3.18577 -7.67897,-6.37088 -10.85937,-9.55664 2.87849,5.91938 7.70917,11.06293 15.64648,13.64257 26.22205,8.5222 47.35269,-10.65546 46.96094,-48.45312 z m -125.94141,45.78125 1.52149,7.30078 -4.39258,-6.70899 c 8.02086,27.65889 39.31445,18.84571 39.31445,18.84571 l 2.06446,-2.89063 c 0,0 -31.48362,7.67517 -38.50782,-16.54687 z m 51.76563,51.66601 c 0,0 -27.2583,61.89574 17,90.89258 -7.43217,-5.97963 -11.97957,-12.24818 -15.38281,-17.9375 6.48986,8.21359 11.01895,10.98543 17.38281,14.21484 -41.27009,-27.03904 -17,-84.71289 -17,-84.71289 h 7.66992 l 2,-2.45703 z m 251.05859,0 c 0,0 7.67521,35.28605 -16.54687,43.15821 -14.70044,4.77762 -27.38019,1.42745 -35.07813,-10.39454 0.45318,2.25287 2.36653,5.82158 10.38477,11.23243 -11.63623,-6.37437 -13.01973,-11.10873 -16.45117,-15.43164 7.85653,17.3252 24.50725,23.46941 42.88671,17.49609 24.22209,-7.87219 18.28711,-43.73828 18.28711,-43.73828 l 8.18555,-2.32227 z m -119.69531,52.16797 v 6.94531 c 3.10783,5.69768 6.97008,11.11586 11.44727,16.08594 l -7.75977,-12.63672 11.19141,11.37891 c -5.59436,-6.59002 -10.60055,-13.92979 -14.87891,-21.77344 z"
         transform="scale(0.26458333)"
         sodipodi:nodetypes="ssccscscccscscccccccccscscccscscscscccsccssccccccsscsccscccccccccsccsccsccscccscccccccccccscccscccsscccssccccccccccccccccscccsccccccccc" />
    </g>
  </g>
</svg>
