<?xml version="1.0" encoding="UTF-8" standalone="no"?>
<svg
   xmlns:dc="http://purl.org/dc/elements/1.1/"
   xmlns:cc="http://creativecommons.org/ns#"
   xmlns:rdf="http://www.w3.org/1999/02/22-rdf-syntax-ns#"
   xmlns:svg="http://www.w3.org/2000/svg"
   xmlns="http://www.w3.org/2000/svg"
   width="500"
   height="575"
   viewBox="0 0 132.29166 152.13542"
   version="1.1"
   id="svg847">
  <defs
     id="defs841" />
  <metadata
     id="metadata844">
    <rdf:RDF>
      <cc:Work
         rdf:about="">
        <dc:format>image/svg+xml</dc:format>
        <dc:type
           rdf:resource="http://purl.org/dc/dcmitype/StillImage" />
        <dc:title></dc:title>
      </cc:Work>
    </rdf:RDF>
  </metadata>
  <g
     id="layer1"
     transform="translate(-34.978742,-49.271409)">
    <path
       id="path1790"
       style="opacity:1;fill:#0056c7;fill-opacity:0.996078;stroke:none;stroke-width:0.999999;stroke-linecap:round;stroke-linejoin:round;stroke-miterlimit:4;stroke-dasharray:none;paint-order:markers stroke fill"
       d="m 616.76172,597.86914 c 9.97703,-26.99815 15.4414,-56.18339 15.4414,-86.64844 V 186.22265 h -500 V 511.2207 c 0,30.46505 5.46439,59.65029 15.44141,86.64844 0,0 34.22954,30 234.5586,30 200.32905,0 234.55859,-30 234.55859,-30 z"
       transform="scale(0.26458333)" />
    <path
       style="color:#000000;font-style:normal;font-variant:normal;font-weight:normal;font-stretch:normal;font-size:medium;line-height:normal;font-family:sans-serif;font-variant-ligatures:normal;font-variant-position:normal;font-variant-caps:normal;font-variant-numeric:normal;font-variant-alternates:normal;font-variant-east-asian:normal;font-feature-settings:normal;font-variation-settings:normal;text-indent:0;text-align:start;text-decoration:none;text-decoration-line:none;text-decoration-style:solid;text-decoration-color:#000000;letter-spacing:normal;word-spacing:normal;text-transform:none;writing-mode:lr-tb;direction:ltr;text-orientation:mixed;dominant-baseline:auto;baseline-shift:baseline;text-anchor:start;white-space:normal;shape-padding:0;shape-margin:0;inline-size:0;clip-rule:nonzero;display:inline;overflow:visible;visibility:visible;opacity:1;isolation:auto;mix-blend-mode:normal;color-interpolation:sRGB;color-interpolation-filters:linearRGB;solid-color:#000000;solid-opacity:1;vector-effect:none;fill:#003580;fill-opacity:1;fill-rule:nonzero;stroke:none;stroke-width:0.264583;stroke-linecap:square;stroke-linejoin:miter;stroke-miterlimit:4;stroke-dasharray:none;stroke-dashoffset:0;stroke-opacity:1;paint-order:markers stroke fill;color-rendering:auto;image-rendering:auto;shape-rendering:auto;text-rendering:auto;enable-background:accumulate;stop-color:#000000;stop-opacity:1"
       d="m 105.19228,68.840241 2.39934,1.115695 2.81651,-6.057286 c 0.36048,-0.92452 0.0739,-1.497325 -0.42751,-2.217661 z m -33.918857,8.094596 5.328875,6.765997 1.802474,-1.936832 c 0,0 -3.234092,-2.60676 -4.461761,-3.723275 -1.22767,-1.116513 -2.669588,-1.10589 -2.669588,-1.10589 z m 29.850887,-1.571995 -19.575545,14.222386 7.588684,23.357752 2.516643,-0.81752 -6.995438,-21.529439 16.465656,-11.963096 17.2434,12.527918 1.07021,0.777732 1.55547,-2.14044 -1.07022,-0.777729 z m -27.035554,16.075504 -8.288901,2.341975 c 0.35288,0.740304 0.868016,1.231791 1.945013,1.095801 l 6.663764,-0.811065 z M 114.04446,120.49549 H 88.438267 l -12.993521,10.79572 c 0.09392,0.65486 0.76712,1.20073 1.839928,0.99645 l 11.99075,-2.28319 1.341522,-6.86315 h 23.427514 l 0.0558,5.73092 c -0.0103,1.19399 0.87594,1.51356 1.44951,1.62276 l 12.38995,2.35891 1.61979,-12.78417 c 0.15991,-1.13002 -0.60123,-1.54121 -1.1299,-1.60823 l -5.43326,-1.82418 7.23884,-22.280816 6.94273,0.845426 5.81192,-10.581206 c 0.64835,-1.19354 0.24426,-1.890538 -0.31458,-2.175121 l -14.28285,9.021154 -7.50394,23.094713 z"
       id="path940" />
    <path
       id="path2003"
       style="color:#000000;font-style:normal;font-variant:normal;font-weight:normal;font-stretch:normal;font-size:medium;line-height:normal;font-family:sans-serif;font-variant-ligatures:normal;font-variant-position:normal;font-variant-caps:normal;font-variant-numeric:normal;font-variant-alternates:normal;font-variant-east-asian:normal;font-feature-settings:normal;font-variation-settings:normal;text-indent:0;text-align:start;text-decoration:none;text-decoration-line:none;text-decoration-style:solid;text-decoration-color:#000000;letter-spacing:normal;word-spacing:normal;text-transform:none;writing-mode:lr-tb;direction:ltr;text-orientation:mixed;dominant-baseline:auto;baseline-shift:baseline;text-anchor:start;white-space:normal;shape-padding:0;shape-margin:0;inline-size:0;clip-rule:nonzero;display:inline;overflow:visible;visibility:visible;opacity:1;isolation:auto;mix-blend-mode:normal;color-interpolation:sRGB;color-interpolation-filters:linearRGB;solid-color:#000000;solid-opacity:1;vector-effect:none;fill:#003580;fill-opacity:1;fill-rule:nonzero;stroke:none;stroke-width:3.77953;stroke-linecap:butt;stroke-linejoin:round;stroke-miterlimit:4;stroke-dasharray:none;stroke-dashoffset:0;stroke-opacity:1;color-rendering:auto;image-rendering:auto;shape-rendering:auto;text-rendering:auto;enable-background:accumulate;stop-color:#000000"
       transform="scale(0.26458333)"
       d="m 586.28711,520.96094 -1.92578,31.60742 h 5.99414 v -27.42578 c 0,-2.16212 -2.75067,-3.91322 -4.06836,-4.18164 z m 30.47266,13.51367 -1.92579,12.21094 -29.59375,29.59375 c -0.56182,0.56201 -0.87822,1.3225 -0.8789,2.11718 v 12.91993 h 5.99414 v -11.67969 l 29.59375,-29.59375 c 0.56183,-0.56198 0.87822,-1.32254 0.8789,-2.11719 V 538 c 0,-1.87797 -2.00915,-3.52789 -4.06835,-3.52539 z m -79.21094,12.91406 c 0,0 0.13778,3.8429 2.62305,6.32813 l 28.79882,28.79882 2.24414,-6.23632 z m 79.21094,25.83203 c 0.002,4.24422 -3.04723,17.04905 0.002,24.64844 1.45702,-3.94273 2.80483,-7.93751 4.0664,-11.9707 v -8.88086 c 0,-2.01513 -2.41576,-3.79809 -4.06835,-3.79688 z m -322.90049,-52.2598 -1.92544,31.60725 h 5.99406 v -27.42463 c 0,-2.16212 -2.75092,-3.9142 -4.06862,-4.18262 z m 30.47263,13.51366 -1.92563,12.21022 -29.594,29.59401 c -0.56183,0.56201 -0.87776,1.32393 -0.87844,2.11861 v 12.91831 h 5.99406 v -11.67817 l 29.59401,-29.59401 c 0.56182,-0.56197 0.87776,-1.32393 0.87844,-2.11857 v -9.925 c 0,-1.87798 -2.00924,-3.52789 -4.06844,-3.5254 z m -79.21092,12.91408 c 0,0 0.13757,3.84386 2.62284,6.32909 l 28.79826,28.79826 2.24459,-6.2372 z m 79.21092,25.83202 -1.92563,31.60391 5.99407,3.99999 v -31.80744 c 0,-2.01513 -2.41584,-3.79767 -4.06844,-3.79646 z m -127.94725,-52.25976 -1.92544,31.60725 h 5.99406 v -27.42463 c 0,-2.16212 -2.75093,-3.9142 -4.06862,-4.18262 z m 30.47263,13.51366 -1.92563,12.21022 -29.59401,29.59401 c -0.56182,0.56201 -0.87775,1.32393 -0.87843,2.11861 v 12.91831 h 5.99406 v -11.67817 l 29.59401,-29.59401 c 0.56182,-0.56197 0.87775,-1.32393 0.87843,-2.11857 v -9.925 c 0,-1.87798 -2.00923,-3.52789 -4.06843,-3.5254 z m -79.21092,12.91408 c 0,0 0.13757,3.84386 2.62284,6.32909 l 28.79826,28.79826 2.24458,-6.2372 z m 79.21092,25.83202 -1.92563,31.60391 5.99406,3.99999 v -31.80744 c 0,-2.01513 -2.41583,-3.79767 -4.06843,-3.79646 z m 261.95521,-52.25972 -1.92544,31.60724 h 5.99407 v -27.42463 c 0,-2.16211 -2.75093,-3.91419 -4.06863,-4.18261 z m 30.47263,13.51366 -1.92563,12.21022 -29.594,29.594 c -0.56183,0.56202 -0.87776,1.32393 -0.87844,2.11862 v 12.91831 h 5.99407 v -11.67817 l 29.594,-29.59401 c 0.56183,-0.56198 0.87776,-1.32393 0.87844,-2.11857 v -9.92501 c 0,-1.87797 -2.00924,-3.52788 -4.06844,-3.52539 z m -79.21092,12.91408 c 0,0 0.13758,3.84386 2.62284,6.32908 l 28.79826,28.79827 2.24459,-6.23721 z m 79.21092,25.83201 -1.92563,31.60392 5.99407,3.99999 v -31.80745 c 0,-2.01513 -2.41584,-3.79767 -4.06844,-3.79646 z m -127.94918,-52.25975 -1.92544,31.60724 h 5.99407 v -27.42463 c 0,-2.16211 -2.75093,-3.91419 -4.06863,-4.18261 z m 30.47263,13.51366 -1.92563,12.21022 -29.594,29.594 c -0.56183,0.56202 -0.87776,1.32393 -0.87844,2.11862 v 12.91831 h 5.99407 v -11.67817 l 29.594,-29.59401 c 0.56183,-0.56198 0.87776,-1.32393 0.87844,-2.11857 v -9.92501 c 0,-1.87797 -2.00924,-3.52788 -4.06844,-3.52539 z m -79.21092,12.91408 c 0,0 0.13761,3.84386 2.62286,6.32908 l 28.79826,28.79827 2.24458,-6.23721 z m 79.21092,25.83201 -1.92563,31.60392 5.99407,3.99999 v -31.80745 c 0,-2.01513 -2.41584,-3.79767 -4.06844,-3.79646 z" />
    <path
       id="path844"
       style="opacity:1;fill:#bf9f4f;fill-opacity:1;stroke:none;stroke-width:0.999999;stroke-linecap:round;stroke-linejoin:round;stroke-miterlimit:4;stroke-dasharray:none;paint-order:markers stroke fill"
       d="M 616.76172,597.86914 V 573.2207 l -17.5586,17.55664 h -12.91601 v -12.91406 l 30.47461,-30.47461 V 534.47461 H 603.8457 l -17.55859,17.55664 v -31.07031 l -9.13086,-9.13282 -9.13281,9.13282 v 31.07031 l -17.5586,-17.55664 h -12.91406 v 12.91406 l 30.47266,30.47461 v 12.91406 H 555.10742 L 537.55078,573.2207 v 31.07032 l -9.13281,9.13281 -9.13281,-9.13281 V 573.2207 l -17.5586,17.55664 H 488.8125 v -12.91406 l 30.47266,-30.47461 v -12.91406 h -12.91602 l -17.55664,17.55664 v -31.07031 l -9.13281,-9.13282 -9.13281,9.13282 v 31.07031 l -17.55665,-17.55664 h -12.91601 v 12.91406 l 30.47266,30.47461 v 12.91406 H 457.63086 L 440.07422,573.2207 v 31.07032 l -9.13281,9.13281 -9.13282,-9.13281 V 573.2207 l -17.55664,17.55664 h -12.91601 v -12.91406 l 30.47265,-30.47461 v -12.91406 h -12.91601 l -17.55664,17.55664 v -31.07031 l -9.13282,-9.13282 -9.13281,9.13282 v 31.07031 l -17.55664,-17.55664 h -12.91601 v 12.91406 l 30.47265,30.47461 v 12.91406 H 360.1543 L 342.59766,573.2207 v 31.07032 l -9.13282,9.13281 -9.13281,-9.13281 V 573.2207 l -17.55664,17.55664 h -12.91601 v -12.91406 l 30.47265,-30.47461 v -12.91406 h -12.91406 l -17.55859,17.55664 v -31.07031 l -9.13282,-9.13282 -9.13281,9.13282 v 31.07031 l -17.55664,-17.55664 h -12.91602 v 12.91406 l 30.47266,30.47461 v 12.91406 h -12.91406 l -17.5586,-17.55664 v 31.07032 l -9.13281,9.13281 -9.13281,-9.13281 V 573.2207 l -17.55664,17.55664 h -12.91602 v -12.91406 l 30.47266,-30.47461 v -12.91406 h -12.91406 l -17.5586,17.55664 v -31.07031 l -9.13281,-9.13282 -9.13281,9.13282 v 31.07031 l -17.55664,-17.55664 h -12.91602 v 12.91406 l 30.47266,30.47461 v 12.91406 H 165.20312 L 147.64453,573.2207 v 24.64844 c 35.24003,95.36069 126.95245,163.35352 234.55859,163.35352 107.60617,0 199.31856,-67.99283 234.5586,-163.35352 z"
       transform="scale(0.26458333)" />
    <path
       id="path852"
       style="opacity:1;fill:#bf9f4f;fill-opacity:1;stroke:none;stroke-width:0.264583;stroke-linecap:butt;stroke-linejoin:miter;stroke-miterlimit:4;stroke-dasharray:none;paint-order:markers stroke fill"
       d="m 101.12432,53.459988 -8.208703,8.389602 3.185539,6.549282 -19.566038,13.432308 -4.747514,-4.417814 -11.211464,5.332926 6.10945,10.926304 6.249747,-0.760955 8.06904,22.259059 -6.483272,3.79194 1.696719,12.18132 11.931055,-2.27172 1.378728,-7.05383 h 23.193933 l 2.24947,7.21969 11.83339,2.25312 1.51302,-11.94501 -6.17061,-4.37596 7.167,-22.058609 7.13548,0.86868 5.87849,-10.702189 -11.25183,-5.341485 -5.46215,5.096794 -18.664,-14.635021 2.67599,-5.754687 z m 0,23.537895 18.02112,13.092742 -6.58262,21.886855 -22.575809,-0.70158 -6.883302,-21.185275 z" />
    <path
       id="path955"
       style="color:#000000;font-style:normal;font-variant:normal;font-weight:normal;font-stretch:normal;font-size:medium;line-height:normal;font-family:sans-serif;font-variant-ligatures:normal;font-variant-position:normal;font-variant-caps:normal;font-variant-numeric:normal;font-variant-alternates:normal;font-variant-east-asian:normal;font-feature-settings:normal;font-variation-settings:normal;text-indent:0;text-align:start;text-decoration:none;text-decoration-line:none;text-decoration-style:solid;text-decoration-color:#000000;letter-spacing:normal;word-spacing:normal;text-transform:none;writing-mode:lr-tb;direction:ltr;text-orientation:mixed;dominant-baseline:auto;baseline-shift:baseline;text-anchor:start;white-space:normal;shape-padding:0;shape-margin:0;inline-size:0;clip-rule:nonzero;display:inline;overflow:visible;visibility:visible;opacity:1;isolation:auto;mix-blend-mode:normal;color-interpolation:sRGB;color-interpolation-filters:linearRGB;solid-color:#000000;solid-opacity:1;vector-effect:none;fill:#ffffff;fill-opacity:1;fill-rule:nonzero;stroke:none;stroke-width:0.264583;stroke-linecap:square;stroke-linejoin:miter;stroke-miterlimit:4;stroke-dasharray:none;stroke-dashoffset:0;stroke-opacity:1;paint-order:markers stroke fill;color-rendering:auto;image-rendering:auto;shape-rendering:auto;text-rendering:auto;enable-background:accumulate;stop-color:#000000;stop-opacity:1"
       d="m 101.12431,52.257274 -8.855787,9.423715 3.030823,6.517431 -18.764228,13.632759 0.457853,0.425972 19.436022,-13.765938 -3.112471,-6.641623 7.808168,-8.189818 8.5011,8.783961 0.35483,-0.762744 z m 5.82549,15.941146 -0.32232,0.692981 19.15828,14.121103 5.35346,-5.028634 11.18856,5.094261 0.34749,-0.632518 -11.69955,-5.510776 -5.26169,4.896342 z m -35.676377,8.736417 -11.699544,5.510776 6.225976,11.334708 0.885735,-0.107725 -5.80378,-10.802043 10.905794,-5.457188 z m 47.872017,13.155787 -6.8833,21.185276 H 89.98701 l 0.257969,0.79375 h 22.593871 l 6.90293,-21.545868 z m -45.400848,2.722594 -0.809255,0.09842 7.167004,22.058602 -6.282819,3.49127 1.625224,12.8297 0.773078,-0.14725 -1.502749,-12.22899 6.452836,-3.52554 z m 48.157608,22.909952 6.41522,3.62304 0.1122,-0.8847 -6.28282,-3.49127 z m -9.18066,6.09524 1.37873,7.05383 0.87074,0.16586 -1.43092,-7.21969 z" />
    <g
       id="g1878">
      <path
         id="path1888"
         style="color:#000000;font-style:normal;font-variant:normal;font-weight:normal;font-stretch:normal;font-size:medium;line-height:normal;font-family:sans-serif;font-variant-ligatures:normal;font-variant-position:normal;font-variant-caps:normal;font-variant-numeric:normal;font-variant-alternates:normal;font-variant-east-asian:normal;font-feature-settings:normal;font-variation-settings:normal;text-indent:0;text-align:start;text-decoration:none;text-decoration-line:none;text-decoration-style:solid;text-decoration-color:#000000;letter-spacing:normal;word-spacing:normal;text-transform:none;writing-mode:lr-tb;direction:ltr;text-orientation:mixed;dominant-baseline:auto;baseline-shift:baseline;text-anchor:start;white-space:normal;shape-padding:0;shape-margin:0;inline-size:0;clip-rule:nonzero;display:inline;overflow:visible;visibility:visible;opacity:1;isolation:auto;mix-blend-mode:normal;color-interpolation:sRGB;color-interpolation-filters:linearRGB;solid-color:#000000;solid-opacity:1;vector-effect:none;fill:#ffffff;fill-opacity:1;fill-rule:nonzero;stroke:none;stroke-width:3.77953;stroke-linecap:round;stroke-linejoin:round;stroke-miterlimit:4;stroke-dasharray:none;stroke-dashoffset:0;stroke-opacity:1;color-rendering:auto;image-rendering:auto;shape-rendering:auto;text-rendering:auto;enable-background:accumulate;stop-color:#000000;stop-opacity:1"
         d="m 187.25,511.82812 -9.13281,9.13282 v 31.07031 l -17.55664,-17.55664 h -12.91602 v 12.91406 l 2.11914,2.11914 c 0.56287,-0.56175 0.8797,-1.32393 0.88086,-2.11914 v -9.91406 h 8.67383 l 16.67578,16.67578 c 1.88852,1.89067 5.12026,0.55513 5.12305,-2.11719 v -29.83008 l 6.13476,-6.13476 7.01172,7.01172 c 0.56236,0.56145 1.32449,0.8768 2.11914,0.87695 v -2.99609 z m 97.47656,0 -9.13086,9.13282 v 31.07031 h -0.002 v -0.002 l -17.55469,-17.55469 h -0.002 -12.91406 v 12.91406 l 2.11914,2.11914 c 0.56287,-0.56175 0.8797,-1.32393 0.88086,-2.11914 v -9.91406 h 8.67383 l 16.67578,16.67578 c 1.88852,1.89067 5.12025,0.55513 5.12304,-2.11719 v -29.83008 l 6.13477,-6.13476 7.01172,7.01172 c 0.56189,0.56099 1.32324,0.87628 2.11719,0.87695 v -2.99609 l -9.13086,-9.13282 z m 97.47656,0 -9.13281,9.13282 v 31.07031 l -17.55664,-17.55664 h -12.91601 v 12.91406 l 2.11914,2.11914 c 0.56287,-0.56175 0.8797,-1.32393 0.88086,-2.11914 v -9.91406 h 8.67382 l 16.67579,16.67578 c 1.88852,1.89067 5.12025,0.55513 5.12304,-2.11719 v -29.83008 l 6.13477,-6.13476 7.01172,7.01172 c 0.56235,0.56145 1.32449,0.8768 2.11914,0.87695 v -2.99609 z m 97.47657,0 -9.13281,9.13282 v 31.07031 l -17.55665,-17.55664 h -12.91601 v 12.91406 l 2.11914,2.11914 c 0.56288,-0.56175 0.87972,-1.32393 0.88086,-2.11914 v -9.91406 h 8.67383 l 16.67578,16.67578 c 1.88851,1.89067 5.12025,0.55513 5.12305,-2.11719 v -29.83008 l 6.13476,-6.13476 7.01172,7.01172 c 0.56236,0.56145 1.32449,0.8768 2.11914,0.87695 v -2.99609 z m 97.47656,0 v 0.002 l 0.002,-0.002 z m 0,0.002 -9.13086,9.13086 v 31.07031 h -0.002 v -0.002 l -17.5586,-17.55469 h -12.91211 v 12.91406 l 2.11915,2.11914 c 0.56288,-0.56175 0.87968,-1.32393 0.88085,-2.11914 v -9.91406 h 8.67383 l 16.67578,16.67578 c 1.88856,1.89067 5.12025,0.55513 5.12305,-2.11719 v -29.83008 l 6.13477,-6.13476 7.01172,7.01172 c 0.56143,0.56052 1.322,0.87577 2.11523,0.87695 v -2.99609 z m -363.2168,22.64453 -17.55664,17.55664 c 0,2.55258 1.33677,2.85388 2.11914,2.11914 l 16.6836,-16.67578 h 11.66992 v -3 z m 97.47852,0 -17.55664,17.55664 c 0,2.55258 1.33676,2.85388 2.11914,2.11914 l 16.68359,-16.67578 h 11.66797 v -3 z m 97.47461,0 -17.55664,17.55664 c 0,2.55258 1.33674,2.85388 2.11914,2.11914 l 16.68359,-16.67578 h 11.66992 v -3 z m 97.47656,0 -17.55664,17.55664 c 0,2.55258 1.33674,2.85388 2.11914,2.11914 l 16.68359,-16.67578 h 11.66993 v -3 z m 97.47656,0 -17.55468,17.55664 c 0,2.55258 1.33674,2.85388 2.11914,2.11914 l 16.68359,-16.67578 h 11.66797 v -3 z m -453.76938,58.93172 c 0.56821,-4.06863 0.56821,-12.93953 0.56821,-12.93953 l 12.43945,12.43164 c 0.56159,0.56167 1.32295,0.87769 2.11719,0.8789 h 12.91992 c 1.65449,-0.002 2.99486,-1.34355 2.9961,-2.99804 v -8.23047 c 0,-2.87524 -3,-4.68555 -3,-4.68555 v 12.91406 h -12.91407 -0.002 L 147.64453,573.2207 v 24.64844 c 0,0 1.86358,-0.39418 2.43179,-4.46281 z m 76.77915,-20.18563 -17.55664,17.55664 h -12.91602 c 0.45439,1.33081 1.06303,3 3.34766,3 h 9.57031 c 0.79492,-6.8e-4 1.55708,-0.3167 2.11914,-0.8789 l 15.43555,-15.43555 z m 115.74219,0 v 31.07032 l -9.13282,9.13281 -9.13281,-9.13281 c -1.29858,1.05996 -1.23141,3.01251 -0.24805,3.99609 l 7.25977,7.25977 c 1.17181,1.1724 3.07233,1.1724 4.24414,0 l 9.13086,-9.13282 c 0.56357,-0.56349 0.87979,-1.32805 0.87891,-2.125 v -23.8223 l 12.43945,12.43164 c 0.56158,0.56167 1.32295,0.87769 2.11719,0.8789 h 12.91992 c 1.65449,-0.002 2.99485,-1.34355 2.99609,-2.99804 v -8.23047 c 0,-2.87524 -3,-4.68555 -3,-4.68555 v 12.91406 H 360.1543 Z m 79.21093,0 -17.55664,17.55664 h -12.91601 c 0.45437,1.33081 1.063,3 3.34765,3 h 9.57032 c 0.79491,-6.8e-4 1.55708,-0.3167 2.11914,-0.8789 l 15.43554,-15.43555 z m 18.26563,0 v 31.07032 l -9.13281,9.13281 -9.13282,-9.13281 c -1.29857,1.05996 -1.23125,3.01251 -0.24804,3.99609 l 7.25976,7.25977 c 1.17181,1.1724 3.07234,1.1724 4.24414,0 l 9.13086,-9.13282 c 0.56357,-0.56349 0.87982,-1.32805 0.87891,-2.125 v -23.8223 l 12.43945,12.43164 c 0.5616,0.56167 1.32292,0.87769 2.11719,0.8789 h 12.91992 c 1.65449,-0.002 2.99485,-1.34355 2.9961,-2.99804 v -8.23047 c 0,-2.87524 -3,-4.68555 -3,-4.68555 v 12.91406 h -12.91602 z m 79.21094,0 -17.5586,17.55664 H 488.8125 c 0.45437,1.33081 1.06301,3 3.34766,3 h 9.57031 c 0.79491,-6.8e-4 1.55709,-0.3167 2.11914,-0.8789 l 15.43555,-15.43555 z m -274.16211,0.002 v 31.06836 h -0.002 l -9.13086,9.13281 h -0.002 v -0.002 l -9.13086,-9.12891 c -1.29742,1.06018 -1.23112,3.01084 -0.24804,3.99414 l 7.25976,7.25977 c 1.17181,1.1724 3.07233,1.1724 4.24414,0 l 9.13086,-9.13282 c 0.56357,-0.56349 0.87979,-1.32805 0.87891,-2.125 V 580.4668 l 12.43945,12.43164 c 0.56158,0.56167 1.32295,0.87769 2.11719,0.8789 h 12.91992 c 1.65449,-0.002 2.99485,-1.34355 2.99609,-2.99804 v -8.23047 c 0,-2.87524 -3,-4.68555 -3,-4.68555 v 12.91406 h -0.002 -12.91406 z m 79.20898,0 -17.55664,17.55468 h -12.91406 c 0.45439,1.33081 1.06302,3 3.34765,3 h 9.57032 c 0.79491,-6.8e-4 1.55708,-0.3167 2.11914,-0.8789 l 15.43359,-15.4336 z m 213.2207,0 v 31.06836 h -0.002 l -9.13086,9.13281 h -0.002 v -0.002 l -9.13086,-9.12891 c -1.29741,1.06018 -1.23097,3.01084 -0.24805,3.99414 l 7.25977,7.25977 c 1.1718,1.1724 3.07233,1.1724 4.24414,0 l 9.13086,-9.13282 c 0.56356,-0.56349 0.87977,-1.32805 0.8789,-2.125 V 580.4668 l 12.43946,12.43164 c 0.5616,0.56167 1.32296,0.87769 2.11719,0.8789 h 12.91992 c 1.65449,-0.002 2.99484,-1.34355 2.99609,-2.99804 v -8.23047 c 0,-2.87524 -3,-4.68555 -3,-4.68555 v 12.91406 h -0.002 -12.91406 -0.002 z m 79.20899,0 -17.55469,17.55468 h -0.004 -12.9121 c 0.45437,1.33081 1.063,3 3.34765,3 h 9.57031 c 0.79491,-6.8e-4 1.55705,-0.3167 2.11914,-0.8789 l 15.4336,-15.4336 z"
         transform="scale(0.26458333)" />
    </g>
  </g>
</svg>
