<?xml version="1.0" encoding="UTF-8" standalone="no"?>
<svg
   xmlns:dc="http://purl.org/dc/elements/1.1/"
   xmlns:cc="http://creativecommons.org/ns#"
   xmlns:rdf="http://www.w3.org/1999/02/22-rdf-syntax-ns#"
   xmlns:svg="http://www.w3.org/2000/svg"
   xmlns="http://www.w3.org/2000/svg"
   xmlns:sodipodi="http://sodipodi.sourceforge.net/DTD/sodipodi-0.dtd"
   xmlns:inkscape="http://www.inkscape.org/namespaces/inkscape"
   inkscape:output_extension="org.inkscape.output.svg.inkscape"
   sodipodi:docname="svg.svg"
   version="1.0"
   inkscape:version="1.0 (4035a4fb49, 2020-05-01)"
   sodipodi:version="0.32"
   id="svg2"
   height="560"
   width="500">
  <defs
     id="defs4">
    <inkscape:perspective
       id="perspective13"
       inkscape:persp3d-origin="250 : 188 : 1"
       inkscape:vp_z="500 : 281 : 1"
       inkscape:vp_y="0 : 1000 : 0"
       inkscape:vp_x="0 : 281 : 1"
       sodipodi:type="inkscape:persp3d" />
  </defs>
  <sodipodi:namedview
     inkscape:window-maximized="1"
     inkscape:document-rotation="0"
     showgrid="false"
     inkscape:window-y="-8"
     inkscape:window-x="-8"
     inkscape:window-height="1017"
     inkscape:window-width="1920"
     inkscape:current-layer="layer1"
     inkscape:document-units="px"
     inkscape:cy="295.18979"
     inkscape:cx="421.90762"
     inkscape:zoom="0.70710678"
     inkscape:pageshadow="2"
     inkscape:pageopacity="0.0"
     borderopacity="1.0"
     bordercolor="#666666"
     pagecolor="#ffffff"
     id="base" />
  <metadata
     id="metadata7">
    <rdf:RDF>
      <cc:Work
         rdf:about="">
        <dc:format>image/svg+xml</dc:format>
        <dc:type
           rdf:resource="http://purl.org/dc/dcmitype/StillImage" />
      </cc:Work>
    </rdf:RDF>
  </metadata>
  <g
     transform="translate(-0.5,-0.49999999)"
     id="layer1"
     inkscape:groupmode="layer"
     inkscape:label="Layer 1">
    <path
       sodipodi:nodetypes="cccccc"
       id="path1368"
       d="m 0.5,0.49999999 h 500 L 490.98096,356.90933 C 485.97094,452.42099 360.72044,560.49998 250.5,560.49998 140.27956,560.49998 15.029058,452.42099 10.019038,356.90933 Z"
       style="fill:#cccccc;fill-opacity:1;fill-rule:evenodd;stroke:none;stroke-width:0.5;stroke-linecap:butt;stroke-linejoin:miter;stroke-miterlimit:4;stroke-dasharray:none;stroke-opacity:1" />
    <path
       style="fill:#008bd0;fill-opacity:1;fill-rule:evenodd;stroke:none;stroke-width:0.5;stroke-linecap:butt;stroke-linejoin:miter;stroke-miterlimit:4;stroke-dasharray:none;stroke-opacity:1"
       d="m 0.5,0.49999999 h 250 V 560.49998 c -110.22044,0 -235.470942,-108.07899 -240.480962,-203.59065 z"
       id="path1310"
       sodipodi:nodetypes="ccccc" />
    <path
       d="m 97.074427,46.245057 h 86.410253 c 2.08166,0 3.75751,1.681509 3.75751,3.770198 v 19.605034 c 0,2.088689 -1.67585,3.770197 -3.75751,3.770197 H 97.074427 c -2.081663,0 -3.757515,-1.681508 -3.757515,-3.770197 V 50.015255 c 0,-2.088689 1.675852,-3.770198 3.757515,-3.770198 z"
       style="fill:#cccccc;fill-opacity:1;stroke:none;stroke-width:0.5;stroke-miterlimit:4;stroke-dasharray:none;stroke-opacity:1"
       id="rect1380" />
    <path
       sodipodi:nodetypes="ccccczzcccccccccccccccccccccccccccccccccccccscccccccccccccccccccsccccccccccccccccccccccccccccccc"
       id="path1372"
       d="m 273.82554,480.43875 29.25643,26.77027 c 22.38827,-24.92787 48.13398,-45.6445 73.8797,-66.78224 10.21744,-7.80214 21.27422,-13.91978 33.59006,-17.93179 6.55858,4.63237 11.01874,5.47462 18.83636,5.0535 11.75114,-0.26422 17.48528,-10.94947 15.5283,-22.27002 -1.95698,-11.32054 -11.02694,-16.07672 -21.58283,-14.5226 -10.55588,1.55413 -14.39164,9.78021 -15.50358,19.34694 -9.80015,5.18559 -19.60031,9.52895 -29.82013,12.18782 4.87811,-14.89933 9.33656,-28.5353 10.85722,-45.96137 4.73825,-5.07307 7.79776,-8.04057 14.21472,-11.42915 17.3181,3.39308 32.11811,2.99603 47.33779,-1.61225 14.38855,-7.20656 22.48185,-15.25539 33.93261,-40.1492 -14.29254,-2.43041 -22.28983,-3.59744 -37.42174,2.39464 -10.50374,2.70703 -18.48939,9.20416 -25.21597,13.17458 13.7412,-14.06501 18.66904,-23.0765 26.115,-36.72037 4.19682,-16.30271 7.97398,-31.7632 4.61651,-47.64479 -21.84685,8.2415 -29.42445,15.64075 -40.35953,29.778 -13.84133,23.6662 -14.67246,37.64654 -13.82486,64.68174 -2.90967,2.87149 -7.07839,6.58522 -9.98806,9.45671 0.79138,-24.43207 2.00243,-38.75715 -0.56369,-63.61035 3.60502,-15.09991 7.21005,-22.61959 12.4938,-31.40263 6.37892,1.19527 13.85856,-0.21565 18.71706,-5.25786 4.84974,-6.03794 7.12681,-16.79463 -1.20852,-24.39517 -8.95121,-6.00649 -19.55642,-1.77673 -24.69046,3.52064 -4.54452,6.28039 -3.63314,12.98189 -1.04303,18.84117 -3.72504,9.60534 -6.61071,16.68393 -11.1751,23.76252 -1.07116,-10.32302 -5.25392,-23.02831 -7.58413,-33.35134 7.21829,-12.42867 13.84303,-19.49729 24.62245,-28.35259 11.87045,3.62153 27.86572,5.73299 39.73618,5.98553 19.88009,-3.60913 34.72398,-9.745 51.66628,-26.83014 -16.61862,-7.80867 -29.46011,-8.03713 -47.75746,-7.84445 -10.01205,1.09478 -19.18475,3.87406 -29.61648,9.60121 13.59719,-11.51417 22.99754,-22.18608 33.23727,-35.38473 7.26626,-15.29188 11.59477,-33.95276 11.72643,-53.87701 -24.84429,14.24528 -39.19649,22.5948 -51.03059,44.4203 -6.07923,15.50865 -10.75541,26.44479 -12.6378,49.11254 -7.07838,12.65128 -14.8223,15.70133 -23.68124,25.37479 -1.60674,-11.4942 -3.21347,-22.14618 -2.30211,-34.48263 5.07598,-6.12004 7.21417,-13.92461 12.29015,-20.04466 7.95459,2.48833 13.59719,-2.23774 17.03832,-7.14673 4.03863,-6.20098 2.80358,-14.14175 -3.70516,-19.68339 -8.2613,-4.18718 -13.58483,-2.47859 -18.90835,3.44123 -5.06021,6.23222 -5.5039,11.20107 -2.17043,19.11779 0,0 -5.58637,13.07646 -5.93523,10.72006 -2.09841,-14.17372 -1.75074,-40.71483 -1.75074,-40.71483 3.37254,-2.08979 5.90572,-3.33732 8.85859,-5.006 19.70523,-8.16099 28.91837,-13.37411 42.74804,-25.74635 13.76521,-13.583298 22.91389,-30.956727 24.92795,-57.173765 -22.05051,1.178723 -36.9664,11.622192 -51.04293,25.013528 -11.24334,10.808494 -19.42193,26.759867 -22.69127,41.779617 l -1.96101,1.17295 c -0.3518,-11.56233 0.97514,-22.703534 2.72176,-34.686996 7.66198,-3.356602 9.02869,-2.501949 12.07412,-10.912032 2.13478,-10.660226 -0.76665,-18.793697 -13.32081,-22.715945 -15.16828,-0.710129 -19.42477,4.054358 -22.00252,15.556822 1.09105,7.59193 3.44114,13.499361 9.98806,15.195551 0.27979,11.97176 -0.2798,22.25902 -1.67875,34.65192 l -2.22537,-0.96496 c -2.03807,-12.30824 -8.14599,-23.531807 -20.25647,-43.841413 -8.02129,-12.873872 -17.7213,-25.326619 -39.17249,-29.777995 -3.1778,22.306483 1.1987,45.455224 11.87045,63.129358 10.88708,17.7106 28.48909,22.78747 43.57299,35.86571 0.39157,32.98253 1.6225,50.38345 8.30933,97.2631 0,0 -9.73238,0.11391 -9.9536,-4.73504 -0.34338,-7.52647 -3.12172,-33.85558 -7.50441,-53.35323 -6.34255,-18.08355 -19.81974,-30.69249 -39.17248,-42.88031 -5.87558,22.42693 -5.03621,36.85248 0,57.17375 4.75521,13.71613 15.17991,24.48438 22.35019,33.56813 -8.28531,-6.07602 -19.92811,-12.99429 -29.47247,-15.70131 -14.41254,-2.599 -22.94953,-1.40789 -34.42429,3.57334 10.16771,17.28948 22.59217,30.20892 39.05513,34.96818 16.59438,5.24351 30.41683,6.32399 48.2225,1.66754 3.16545,0 9.26869,5.05349 12.43415,5.05349 8.59734,21.00733 10.47974,32.74995 11.94246,49.12494 -9.29271,-5.28196 -12.70984,-8.87939 -19.06474,-14.58247 -0.17967,-7.6401 -3.7168,-13.17456 -11.87045,-17.8668 -10.57721,-4.78251 -17.27422,-1.50834 -23.3932,5.31772 -5.01077,8.36758 -3.06909,20.65997 5.58753,26.84252 7.93763,5.04785 16.79379,3.77882 23.81291,-0.49338 10.03605,3.33253 17.97368,10.03403 26.33101,17.57778 1.30705,15.00703 0.93537,30.01402 0.144,45.02102 -1.46684,11.21793 -3.35335,22.43588 -6.9186,33.65382 -5.52379,-2.81953 -8.10977,-4.79683 -11.53513,-8.45862 -0.62335,-18.0113 -2.08606,-30.12686 -6.90625,-45.61142 -14.3762,-24.65296 -32.52955,-41.30455 -56.97816,-51.21815 -2.96179,-0.44592 -4.24484,24.79674 1.18705,42.88031 7.51795,14.08908 14.19653,23.54578 29.2688,37.63485 -7.88964,-3.69377 -23.33357,-8.65093 -31.64289,-10.23908 -12.43414,-2.27423 -18.15336,-0.75832 -29.74814,4.5477 10.53941,13.69204 25.27563,29.48971 40.43154,34.75926 14.26855,4.21124 32.31424,4.63236 45.74341,0.84222 5.30777,2.4263 10.19584,6.11594 13.40518,11.06897 l -4.64634,9.92016 c -9.66268,11.30809 -18.06629,17.14155 -28.98801,25.08063 -15.65102,10.45102 -32.14141,18.37529 -48.63179,26.72069 z"
       style="fill:#00a650;fill-opacity:1;fill-rule:evenodd;stroke:none;stroke-width:0.5;stroke-linecap:butt;stroke-linejoin:miter;stroke-miterlimit:4;stroke-dasharray:none;stroke-opacity:1" />
    <path
       sodipodi:nodetypes="zczcczcczcz"
       id="path1374"
       d="m 140.27956,490.37431 c -15.09354,0 -36.07215,-17.8456 -36.07215,-17.8456 0,0 -15.395419,-125.74 -9.018037,-157.8456 6.377377,-32.10559 29.058117,-63.33931 29.058117,-63.33931 l 7.01403,71.3824 c 0,0 2.3344,24.8833 9.01804,24.8833 6.68364,0 9.01803,-24.8833 9.01803,-24.8833 l 7.01403,-71.3824 c 0,0 22.68074,31.23372 29.05812,63.33931 6.37737,32.1056 -9.01804,157.8456 -9.01804,157.8456 0,0 -20.97861,17.8456 -36.07214,17.8456 z"
       style="fill:#cccccc;fill-opacity:1;fill-rule:evenodd;stroke:none;stroke-width:0.5;stroke-linecap:butt;stroke-linejoin:miter;stroke-miterlimit:4;stroke-dasharray:none;stroke-opacity:1" />
    <path
       sodipodi:nodetypes="zcczccz"
       id="path1376"
       d="m 140.27955,339.81776 c -4.18962,0 -11.02205,-111.59784 -11.02205,-111.59784 l -2.004,-148.880904 c 0,0 5.67802,-1.759425 13.02605,-1.759425 7.34802,0 13.02605,1.759425 13.02605,1.759425 l -2.00401,148.880904 c 0,0 -6.83242,111.59784 -11.02204,111.59784 z"
       style="fill:#cccccc;fill-opacity:1;fill-rule:evenodd;stroke:none;stroke-width:0.5;stroke-linecap:butt;stroke-linejoin:miter;stroke-miterlimit:4;stroke-dasharray:none;stroke-opacity:1" />
  </g>
</svg>
