<?xml version="1.0" encoding="UTF-8"?>
<svg width="819.99335" height="937.78125" data-name="Layer 1" version="1.1" viewBox="0 0 819.99335 937.78129" xmlns="http://www.w3.org/2000/svg" xmlns:cc="http://creativecommons.org/ns#" xmlns:dc="http://purl.org/dc/elements/1.1/" xmlns:rdf="http://www.w3.org/1999/02/22-rdf-syntax-ns#" xmlns:xlink="http://www.w3.org/1999/xlink">
 <metadata>
  <rdf:RDF>
   <cc:Work rdf:about="">
    <dc:format>image/svg+xml</dc:format>
    <dc:type rdf:resource="http://purl.org/dc/dcmitype/StillImage"/>
    <dc:title/>
   </cc:Work>
  </rdf:RDF>
 </metadata>
 <defs>
  <style>.cls-1,.cls-15,.cls-2{fill:none;}.cls-2{clip-rule:evenodd;}.cls-3{clip-path:url(#clip-path);}.cls-4{fill:#005ba8;}.cls-11,.cls-12,.cls-16,.cls-4,.cls-6,.cls-7,.cls-8{fill-rule:evenodd;}.cls-5{fill:#1f1a17;}.cls-6{fill:#0a0a2b;}.cls-7{fill:#ff9;}.cls-8{fill:#1a1a1a;}.cls-9{clip-path:url(#clip-path-2);}.cls-10{fill:url(#linear-gradient);}.cls-11{fill:#b2b2b2;}.cls-12,.cls-19{fill:red;}.cls-13{clip-path:url(#clip-path-3);}.cls-14{fill:url(#linear-gradient-2);}.cls-15{stroke:#1f1a17;stroke-miterlimit:22.92558;stroke-width:0.216px;}.cls-16,.cls-23{fill:#fff;}.cls-17{clip-path:url(#clip-path-4);}.cls-18{fill:url(#linear-gradient-3);}.cls-20{clip-path:url(#clip-path-5);}.cls-21{fill:url(#linear-gradient-4);}.cls-22{fill:#383330;}.cls-24{clip-path:url(#clip-path-6);}.cls-25{fill:url(#linear-gradient-5);}.cls-26{clip-path:url(#clip-path-7);}.cls-27{fill:url(#linear-gradient-6);}.cls-28{clip-path:url(#clip-path-8);}.cls-29{fill:url(#linear-gradient-7);}.cls-30{clip-path:url(#clip-path-9);}.cls-31{fill:url(#linear-gradient-8);}.cls-32{clip-path:url(#clip-path-10);}.cls-33{fill:url(#linear-gradient-9);}.cls-34{clip-path:url(#clip-path-11);}.cls-35{fill:url(#linear-gradient-10);}.cls-36{clip-path:url(#clip-path-12);}.cls-37{fill:url(#linear-gradient-11);}.cls-38{clip-path:url(#clip-path-13);}.cls-39{fill:url(#linear-gradient-12);}.cls-40{clip-path:url(#clip-path-14);}.cls-41{fill:url(#linear-gradient-13);}.cls-42{clip-path:url(#clip-path-15);}.cls-43{fill:url(#linear-gradient-14);}.cls-44{clip-path:url(#clip-path-16);}.cls-45{fill:url(#linear-gradient-15);}</style>
  <clipPath id="clip-path" transform="translate(-4.71179 9.0813)">
   <rect class="cls-1" x="-9" y="8.5511503" width="860" height="1209"/>
  </clipPath>
  <clipPath id="clip-path-2" transform="translate(-4.71179 9.0813)">
   <path class="cls-2" d="m371.37231 359.38855c-10.27761-54.19623-32.6372-108.17261-59.5173-159.9931l227.4111 0.0936c-27.6882 51.37391-48.7128 103.48859-55.07571 157.23377 53.44638-11.77118 104.9697-30.27741 153.67972-58.62982l-1.762 228.30035c-43.37921-26.94873-91.95392-46.197-151.91769-54.18823q10.21486 77.28378 55.96408 151.0155h-229.1879a349.8097 349.8097 0 0 0 62.1828-150.12677c-45.7532 5.32367-102.2976 24.27558-159.89871 53.2995l-0.8847-226.5236c48.2655 27.24237 101.26462 46.48877 159.00631 59.5188"/>
  </clipPath>
  <linearGradient id="linear-gradient" x1=".029999999" x2=".97000003" y1="1208.0513" y2="1208.0513" gradientTransform="matrix(1e-5,-614.3967,611.52888,-1e-5,-738333.11,718.59386)" gradientUnits="userSpaceOnUse">
   <stop stop-color="#998169" offset="0"/>
   <stop stop-color="#fff974" offset=".6"/>
   <stop stop-color="#998169" offset="1"/>
  </linearGradient>
  <clipPath id="clip-path-3" transform="translate(-4.71179 9.0813)">
   <path class="cls-2" d="m501.1041 774.39993a29.31632 29.31632 0 1 1-29.31669 29.31653 29.31967 29.31967 0 0 1 29.31669-29.31653"/>
  </clipPath>
  <linearGradient id="linear-gradient-2" x1=".0099999998" x2=".99000001" y1="1208.0504" y2="1208.0504" gradientTransform="matrix(-4e-5,-90.05301,88.7896,-4e-5,-106761.21,848.95547)" xlink:href="#linear-gradient"/>
  <clipPath id="clip-path-4" transform="translate(-4.71179 9.0813)">
   <path class="cls-2" d="m452.28979 662.80756 38.291-5e-3c3.92029 0 7.2995-8.99707 10.94879-13.49566 3.27771 4.59808 5.86121 13.82446 9.832 13.79388l38.26291-0.29339c4.72309-0.0368 8.58869 3.55609 8.58869 7.9013v89.54758c0 4.34332-3.86762 7.88229-8.58869 7.90161l-38.26291 0.1568v22.17261h-20.78077v-22.30472l-38.291-0.0247c-4.7225-4e-3 -8.58749-3.55551-8.58749-7.90161v-89.54758c0-4.34552 3.86389-7.901 8.58749-7.9013"/>
  </clipPath>
  <linearGradient id="linear-gradient-3" y1="1208.0504" y2="1208.0504" gradientTransform="matrix(-2e-5,-202.40164,188.13969,-2e-5,-226781.28,821.46652)" xlink:href="#linear-gradient"/>
  <clipPath id="clip-path-5" transform="translate(-4.71179 9.0813)">
   <path class="cls-2" d="m459.3175 852.06586c4.97172-11.97193 23.9618-16.25193 31.26331-4.04682v-32.33929l10.85129 0.0329 10.8519-0.0329v32.33925c7.30169-12.20511 26.29193-7.92389 31.26361 4.04682 8.74426 21.056-31.14972 78.1163-42.001 94.8367l-0.2117-0.23783c-10.85129-16.72039-50.762-73.54287-42.0174-94.59887"/>
  </clipPath>
  <linearGradient id="linear-gradient-4" x1=".0099999998" x2=".99000001" y1="1208.0513" y2="1208.0513" gradientTransform="matrix(-1e-5,-162.61625,141.72973,-1e-5,-170715.34,962.63365)" xlink:href="#linear-gradient"/>
  <clipPath id="clip-path-6" transform="translate(-4.71179 9.0813)">
   <path class="cls-2" d="m652.67322 775.42914a29.31636 29.31636 0 1 1-29.31684 29.3168 29.32026 29.32026 0 0 1 29.31684-29.3168"/>
  </clipPath>
  <linearGradient id="linear-gradient-5" x1=".0099999998" x2=".99000001" y1="1208.0504" y2="1208.0504" gradientTransform="matrix(3e-5,-90.05216,88.78876,3e-5,-106608.62,849.90189)" xlink:href="#linear-gradient"/>
  <clipPath id="clip-path-7" transform="translate(-4.71179 9.0813)">
   <path class="cls-2" d="m603.85828 663.83716 38.29132-5e-3c3.92 0 7.29919-8.99719 10.94848-13.496 3.278 4.59827 5.86182 13.82538 9.83252 13.79419l38.26239-0.29309c4.72333-0.0363 8.589 3.55627 8.589 7.90161v89.54713c0 4.3432-3.86755 7.88229-8.589 7.90152l-38.26239 0.15738v22.17261h-20.781v-22.3053l-38.29132-0.0247c-4.72187-3e-3 -8.58777-3.55572-8.58777-7.90152v-89.54723c0-4.34674 3.8645-7.90082 8.58777-7.90161"/>
  </clipPath>
  <linearGradient id="linear-gradient-6" y1="1208.0504" y2="1208.0504" gradientTransform="matrix(0,-202.40164,188.13997,0,-226630.05,822.48247)" xlink:href="#linear-gradient"/>
  <clipPath id="clip-path-8" transform="translate(-4.71179 9.0813)">
   <path class="cls-2" d="m610.88629 853.09564c4.97193-11.9718 23.9621-16.2522 31.26331-4.04761v-32.3385l10.85132 0.0318 10.85186-0.0318v32.33847c7.30139-12.20459 26.29163-7.92367 31.263 4.04761 8.74463 21.05551-31.14911 78.11582-42.00067 94.83679l-0.21173-0.23837c-10.85126-16.72021-50.76166-73.54291-42.01709-94.59842"/>
  </clipPath>
  <linearGradient id="linear-gradient-7" x1=".0099999998" x2=".99000001" y1="1208.0513" y2="1208.0513" gradientTransform="matrix(1e-5,-162.61539,141.72889,1e-5,-170562.76,963.64953)" xlink:href="#linear-gradient"/>
  <clipPath id="clip-path-9" transform="translate(-4.71179 9.0813)">
   <path class="cls-2" d="m343.1503 776.45935a29.31615 29.31615 0 1 1-29.3165 29.31531 29.32048 29.32048 0 0 1 29.3165-29.31531"/>
  </clipPath>
  <linearGradient id="linear-gradient-8" x1=".0099999998" x2=".99000001" y1="1208.0504" y2="1208.0504" gradientTransform="matrix(-1e-5,-90.0513,88.7879,1e-5,-106917.12,850.9635)" xlink:href="#linear-gradient"/>
  <clipPath id="clip-path-10" transform="translate(-4.71179 9.0813)">
   <path class="cls-2" d="m294.33569 664.86725 38.2901-5e-3c3.9206-1e-3 7.30042-8.9975 10.95-13.49689 3.2771 4.5987 5.8612 13.826 9.83218 13.79511l38.2626-0.29309c4.72281-0.0369 8.58762 3.55609 8.58762 7.901v89.54761c0 4.343-3.8667 7.8826-8.58762 7.90127l-38.2626 0.157v22.17318h-20.7822v-22.30466l-38.2901-0.0255c-4.7222-3e-3 -8.58838-3.55548-8.58838-7.90127v-89.54761c0-4.34613 3.86448-7.901 8.58838-7.901"/>
  </clipPath>
  <linearGradient id="linear-gradient-9" y1="1208.0504" y2="1208.0504" gradientTransform="matrix(-1e-5,-202.40191,188.14026,0,-226939.92,823.51274)" xlink:href="#linear-gradient"/>
  <clipPath id="clip-path-11" transform="translate(-4.71179 9.0813)">
   <path class="cls-2" d="m301.3631 854.12494c4.972-11.97159 23.96179-16.25159 31.26269-4.04709v-32.33841l10.85282 0.0314 10.8515-0.0314v32.33841c7.30118-12.2045 26.29108-7.9245 31.26279 4.04709 8.744 21.056-31.14881 78.11572-42.0004 94.83639l-0.212-0.23748c-10.85159-16.7204-50.7612-73.54291-42.01739-94.59891"/>
  </clipPath>
  <linearGradient id="linear-gradient-10" x1=".0099999998" x2=".99000001" y1="1208.0513" y2="1208.0513" gradientTransform="matrix(1e-5,-162.61512,141.72917,1e-5,-170872.62,964.67101)" xlink:href="#linear-gradient"/>
  <clipPath id="clip-path-12" transform="translate(-4.71179 9.0813)">
   <path class="cls-2" d="m189.52209 774.39993a29.31632 29.31632 0 1 1-29.31639 29.31653 29.3196 29.3196 0 0 1 29.31639-29.31653"/>
  </clipPath>
  <linearGradient id="linear-gradient-11" x1=".0099999998" x2=".99000001" y1="1208.0504" y2="1208.0504" gradientTransform="matrix(1e-5,-90.0513,88.7879,2e-5,-107070.75,848.88901)" xlink:href="#linear-gradient"/>
  <clipPath id="clip-path-13" transform="translate(-4.71179 9.0813)">
   <path class="cls-2" d="m140.7081 662.80756 38.2904-5e-3c3.92029 0 7.2995-8.99707 10.9488-13.49566 3.27771 4.59808 5.861 13.82446 9.83261 13.79388l38.2623-0.29339c4.72338-0.0368 8.58839 3.55609 8.58839 7.9013v89.54758c0 4.34332-3.8679 7.88229-8.58839 7.90161l-38.2623 0.1568v22.17261h-20.78141v-22.30472l-38.2904-0.0247c-4.7231-4e-3 -8.589-3.55551-8.589-7.90161v-89.54758c0-4.34552 3.86512-7.901 8.589-7.9013"/>
  </clipPath>
  <linearGradient id="linear-gradient-12" y1="1208.0504" y2="1208.0504" gradientTransform="matrix(3e-5,-202.4025,188.1411,4e-5,-227094.56,821.40391)" xlink:href="#linear-gradient"/>
  <clipPath id="clip-path-14" transform="translate(-4.71179 9.0813)">
   <path class="cls-2" d="m147.7352 852.06586c4.9714-11.97193 23.9621-16.25193 31.2633-4.04682v-32.33929l10.85129 0.0329 10.85251-0.0329v32.33925c7.30119-12.20511 26.2905-7.92389 31.263 4.04682 8.744 21.056-31.14911 78.1163-42.0012 94.8367l-0.21151-0.23783c-10.85128-16.72039-50.762-73.54287-42.01739-94.59887"/>
  </clipPath>
  <linearGradient id="linear-gradient-13" x1=".0099999998" x2=".99000001" y1="1208.0513" y2="1208.0513" gradientTransform="matrix(0,-162.61625,141.72973,1e-5,-171026.92,962.6156)" xlink:href="#linear-gradient"/>
  <clipPath id="clip-path-15" transform="translate(-4.71179 9.0813)">
   <path class="cls-2" d="m53.4855 662.22363 32.946-0.2976c4.7228-0.0426 8.5884 3.55835 8.5884 7.90155v89.54757c0 4.34159-3.8702 7.9617-8.5884 7.90131l-21.9169-0.28061c-7.496-34.91351-9.0244-69.3587-11.0291-104.77222"/>
  </clipPath>
  <linearGradient id="linear-gradient-14" y1="1208.2257" y2="1208.2257" gradientTransform="matrix(3e-5,-201.72869,187.13056,3e-5,-226021.71,799.22103)" xlink:href="#linear-gradient"/>
  <clipPath id="clip-path-16" transform="translate(-4.71179 9.0813)">
   <path class="cls-2" d="m790.60931 662.13715-34.75952-0.21112c-4.72339-0.0287-8.58819 3.55743-8.58819 7.90155v89.54757c0 4.34159 3.86853 7.95829 8.58819 7.90131l23.10663-0.28061c7.497-34.91351 9.64935-69.4454 11.65289-104.8587"/>
  </clipPath>
  <linearGradient id="linear-gradient-15" y1="1207.8806" y2="1207.8806" gradientTransform="matrix(201.72813,0,-1e-5,187.12941,683.80319,-225315.37)" xlink:href="#linear-gradient"/>
  <linearGradient id="linearGradient1189" x1=".029999999" x2=".97000003" y1="1208.0513" y2="1208.0513" gradientTransform="matrix(1e-5,-614.3967,611.52888,-1e-5,-738333.11,718.59386)" gradientUnits="userSpaceOnUse" xlink:href="#linear-gradient"/>
 </defs>
 <g class="cls-3" transform="translate(-6.24351,-153.95943)" clip-path="url(#clip-path)">
  <path class="cls-4" transform="translate(-4.71179,9.0813)" d="m787.30951 723.40915c-20.30743 194.643-174.47614 353.63905-366.1583 354.83145-191.6827 1.1915-344.88821-155.69476-368.46281-351.70425l-38.0727-578.22605h812.6583z"/>
  <path class="cls-5" transform="translate(-4.71179,9.0813)" d="m790.7298 723.63715-0.0136 0.12069 0.0156-0.14969zm-0.0136 0.12069-6.827-0.5766 39.9646-575.09884 6.84045 0.45581-39.96444 575.09894zm36.5578-578.87967h3.67462l-0.25434 3.66zm3.42028 3.66-3.42028 3.20434h-812.6583v-6.86438h812.6583zm-819.49888-0.01327-0.2401-3.64673h3.6604zm3.4203-3.64673 3.4203 3.21753 38.0727 578.22605-6.8406 0.4292-38.0727-578.22605zm34.666 582.06049-0.0025-0.023-0.0111-0.1647zm-0.0136-0.18771 6.8406-0.4292-0.0136-0.18759 2.5605 18.11029 3.303 17.8724 4.0294 17.5864 4.7256 17.30529 5.4182 16.9888 6.0806 16.6507 6.7402 16.2908 7.3695 15.90882 8.0093 15.50549 8.5915 15.09369 9.1843 14.6466 9.7602 14.178 10.3196 13.68711 10.8481 13.1882 11.36129 12.64059 11.8701 12.0979 12.363 11.5203 12.82512 10.93446 13.2843 10.313 13.71339 9.6698 14.13921 9.0048 14.53438 8.3319 14.92721 7.6366 15.30261 6.9066 15.64859 6.1543 15.9906 5.3943 16.31589 4.5986 16.61191 3.8084 16.90381 2.9554 17.17938 2.1214 17.4379 1.2388 17.69412 0.3478 0.0267 6.8377-18.01562-0.3478-17.78708-1.2654-17.52811-2.1486-17.2525-3.0359-16.96051-3.8617-16.638-4.7058-16.3125-5.5015-15.97009-6.2887-15.59791-7.0404-15.22209-7.7709-14.82969-8.4929-14.40741-9.1925-13.9816-9.8575-13.5258-10.5006-13.06659-11.12199-12.5773-11.7346-12.0849-12.3129-11.57561-12.882-11.03639-13.4025-10.48051-13.92855-9.9207-14.419-9.3453-14.88813-8.7525-15.33517-8.1165-15.77362-7.5038-16.17709-6.8474-16.55881-6.1883-16.91884-5.4987-17.25711-4.8061-17.5733-4.0828-17.88129-3.3567-18.14059-2.6139-18.405zm371.89651 354.90845-0.0267-6.8378 17.6831-0.5703 17.44529-1.4593 17.1904-2.3256 16.91769-3.1833 16.6275-4.005 16.3327-4.8042 16.00721-5.595 15.6773-6.3496 15.30249-7.0949 14.95142-7.8052 14.54138-8.5062 14.14093-9.1845 13.72309-9.8274 13.2738-10.46127 12.80688-11.0591 12.33588-11.662 11.83405-12.2153 11.314-12.746 10.79035-13.28168 10.24863-13.7679 9.67584-14.245 9.08588-14.68661 8.49109-15.13269 7.8656-15.52961 7.22272-15.91708 6.5747-16.2825 5.89661-16.62582 5.21381-16.933 4.5-17.2449 3.78216-17.507 3.03284-17.7608 2.27954-17.99231 6.81342 0.69729-2.30628 18.2872-3.08661 18.05552-3.83565 17.80246-4.58044 17.5131-5.29431 17.22781-6.00373 16.89389-6.68237 16.55069-7.35651 16.18521-7.99994 15.79779-8.625 15.37372-9.24688 14.95468-9.8368 14.48651-10.40969 14.00935-10.978 13.496-11.52881 12.98749-12.04828 12.42961-12.55072 11.8497-13.04846 11.274-13.51532 10.64895-13.964 10.015-14.40961 9.3456-14.8363 8.6666-15.21948 7.9662-15.62464 7.2292-15.97259 6.4834-16.32868 5.7022-16.65472 4.9119-16.9761 4.085-17.26639 3.2372-17.5391 2.3794-17.79452 1.4859z"/>
  <path class="cls-6" transform="translate(-4.71179,9.0813)" d="m20.859 151.63831 797.30653 3.29821-39.5459 565.98181c-22.22083 181.06763-147.92371 335.50697-357.45932 351.31437l6.73 0.6393c190.4227-9.6348 326.8168-150.23455 352.6611-351.95367l40.877-565.58178z"/>
  <path class="cls-7" transform="translate(-4.71179,9.0813)" d="m363.69351 350.88916c-10.2778-54.195-33.7583-105.181-60.63812-157.002l243.53769 0.47168c-27.6897 51.37512-64.77957 105.17053-71.14218 158.91565 53.44717-11.77082 122.14-37.14521 170.85031-65.49762l-8.043 237.46771-0.0616 1.21299-19.40964-16.45244c-38.63336-24.00037-74.03809-33.26429-123.68329-40.64936-6.09561-0.90655-12.41772-1.79303-18.96631-2.65942 6.81107 51.5231 25.46627 101.86187 55.9656 151.0163l-229.76447 9.96835c32.57089-45.30475 57.41889-101.79443 66.30261-156.57361-46.82632 3.38739-108.678 23.88666-159.6988 64.75208l-2.88172-245.92261c49.24905 27.98389 102.369 48.52391 157.63292 60.95233"/>
  <path class="cls-8" transform="translate(-4.71179,9.0813)" d="m380.40491 363.64417 151.994-159.89893 13.875-7.87579 2.16168-0.37281c-26.60789 49.36682-50.40849 102.56936-57.873 154.34036-0.3035 2.10437-5.95209 5.06658-6.19989 7.16619 51.81418-9.8858 106.67081-32.34411 153.45383-58.644 0.46686-0.263 0.2699-0.63269 0.654-1.0896l7.92877-9.42828-4.7818 248.49267c-37.5545-29.04858-104.32428-51.03576-150.9165-58.74145 6.8099 50.3407 28.93768 100.451 59.43854 150.71667l-248.44022-0.13946 11.6467-6.99225c46.41138-27.86285 63.21338-95.34821 71.5422-146.70337l-12.04242-0.94373-5.931 4.22535c-50.6058 8.60717-118.98368 33.93188-153.09008 55.15734l-4.90311 2.93982 4.48579-9.82739 5.11231-218.018c48.26579 27.24151 104.14351 42.6076 161.88521 55.63672"/>
  <g class="cls-9" clip-path="url(#clip-path-2)">
   <rect class="cls-10" transform="rotate(-39.24713,435.4972,422.45626)" x="126.28765" y="112.59666" width="597.66071" height="597.42279" fill="url(#linearGradient1189)"/>
  </g>
  <path class="cls-11" transform="translate(-4.71179,9.0813)" d="m20.7842 153.39551 801.3007 0.3656-0.43 3.5116-797.3677-0.36571 39.4337 566.13453c24.5106 189.0813 147.10021 335.29487 356.63579 351.10267l-6.73 0.64c-190.4236-9.6353-328.28289-150.02385-354.12689-351.74267z"/>
  <polygon class="cls-12" points="50.024 694.682 778.547 694.682 778.547 753.383 55.568 753.041"/>
  <g class="cls-13" clip-path="url(#clip-path-3)">
   <rect class="cls-14" transform="rotate(-39.41128,511.42548,814.83462)" x="459.84122" y="762.45374" width="82.525169" height="82.52504" fill="url(#linear-gradient-2)"/>
  </g>
  <path class="cls-15" transform="translate(-4.71179,9.0813)" d="m501.1041 774.39993a29.31632 29.31632 0 1 1-29.31669 29.31653 29.31967 29.31967 0 0 1 29.31669-29.31653z"/>
  <path class="cls-4" transform="translate(-4.71179,9.0813)" d="m501.1041 782.53485a21.18116 21.18116 0 1 1-21.1807 21.18161 21.18374 21.18374 0 0 1 21.1807-21.18161z"/>
  <path class="cls-15" transform="translate(-4.71179,9.0813)" d="m501.1041 782.53485a21.18116 21.18116 0 1 1-21.1807 21.18161 21.18374 21.18374 0 0 1 21.1807-21.18161z"/>
  <path class="cls-16" transform="translate(-4.71179,9.0813)" d="m451.20221 661.80127c-4.722-0.01-9.22931 4.56378-9.22931 8.90759v89.54758c0 4.07312 3.87039 8.9895 11.40369 9.10351 0.2886 4e-3 -3.11069-1.2019-2.8162-1.2019l38.29071 0.0247-0.0465 23.84982 1.67331-1.6387 19.15539 0.0476v-22.12659l38.26178-0.1568c4.72113-0.0193 8.58862-3.55829 8.58862-7.90161v-89.54758c0-4.34521-3.86468-7.93811-8.58862-7.9013l-38.26178 0.29339c-3.96789 0.0301-8.07-9.58331-8.0918-14.43-4.6976 4.23859-6.5426 13.20227-12.59829 13.21z"/>
  <path class="cls-8" transform="translate(-4.71179,9.0813)" d="m551.75439 663.12085c4.718-0.0258 8.58454 3.17651 8.59723 7.51739l0.26679 89.54792c0.0122 4.34158-4.58173 9.80587-9.3039 9.80868l-37.95623 0.025-0.0417 22.14712-24.72968-0.0822 2.1175-1.8068 2.49188-22.03341-38.262-0.15769c-4.7211-0.0178-8.58869-3.55771-8.58869-7.90069v-89.54792c0-4.34521 3.865-7.9378 8.58869-7.90118l38.262 0.29358c3.7171 0.0281 8.9014-8.30969 8.411-13.34918l-0.0352-0.35883c-5e-3 -0.21258-0.01-0.42468-0.015-0.63751 2.9718 3.37433 4.11789 7.1654 6.53839 10.65771a11.38756 11.38756 0 0 0 2.27 2.2779 6.79967 6.79967 0 0 0 4.13687 1.70562z"/>
  <path class="cls-16" transform="translate(-4.71179,9.0813)" d="m457.59909 852.06586c4.42862-12.1828 24.5838-16.09342 31.88522-3.88861l-0.23782-33.92731 24.71439 0.0218-2.27988 2.6073-1.603 31.14c7.30152-12.20511 26.29138-7.92389 31.26282 4.04682 8.74487 21.056-28.9032 80.38537-39.75482 97.10589-13.7948-20.37231-52.077-74.85061-43.98691-97.10589"/>
  <path class="cls-8" transform="translate(-4.71179,9.0813)" d="m460.56979 852.06586c4.97171-11.97071 24.4386-16.25193 31.73981-4.04682l20.0676-32.2673 1.7782-1.7402-0.358 33.9421c7.3017-12.20459 26.29419-8.0065 31.47956 3.87439 9.31262 21.33973-32.12311 81.07453-43.70569 97.43073l-0.0176-2.3613-1e-3 -2.76092c-9e-3 -23.1973-49.3175-72.00168-40.98282-92.07068"/>
  <g class="cls-17" clip-path="url(#clip-path-4)">
   <rect class="cls-18" transform="rotate(-33.68401,513.60146,732.22051)" x="414.16479" y="629.40405" width="173.58585" height="180.98659" fill="url(#linear-gradient-3)"/>
  </g>
  <rect class="cls-19" x="462.46472" y="695.36316" width="66.988892" height="57.25589"/>
  <path class="cls-16" transform="translate(-4.71179,9.0813)" d="m510.84769 661.83643 38.54892-0.0524a10.18027 10.18027 0 0 1 5.12439 1.62311l-4.37128-0.6211-37.32324 0.28369a4.20517 4.20517 0 0 1-4.67707-2.03979 6.80882 6.80882 0 0 0 2.69828 0.80646"/>
  <polygon class="cls-8" points="445.562 777.045 485.891 777.279 484.126 778.527 448.898 778.449"/>
  <polygon class="cls-15" points="445.562 777.045 485.891 777.279 484.126 778.527 448.898 778.449"/>
  <polygon class="cls-8" points="464.008 751.16 462.503 752.578 462.503 695.427 529.442 695.4 528.324 696.516 464.002 696.457"/>
  <polygon class="cls-15" points="464.008 751.16 462.503 752.578 462.503 695.427 529.442 695.4 528.324 696.516 464.002 696.457"/>
  <polygon class="cls-16" points="527.459 696.886 529.442 695.4 529.511 752.619 462.435 752.646 463.759 751.12 527.738 750.975"/>
  <g class="cls-20" clip-path="url(#clip-path-5)">
   <rect class="cls-21" transform="rotate(-28.26699,517.109,895.18798)" x="425.56555" y="799.41785" width="151.7336" height="163.74667" fill="url(#linear-gradient-4)"/>
  </g>
  <polygon class="cls-22" points="515.261 835.018 516.855 833.607 518.319 832.097 519.656 830.495 520.863 828.808 521.938 827.048 522.884 825.222 523.696 823.338 524.373 821.409 524.918 819.44 525.324 817.441 525.594 815.421 525.726 813.392 525.719 811.354 525.57 809.328 525.283 807.316 524.851 805.33 524.28 803.376 523.561 801.463 522.699 799.604 521.693 797.803 520.54 796.071 519.24 794.416 517.79 792.846 516.189 791.371 514.436 789.996 512.531 788.734 510.468 787.594 508.25 786.582 508.766 785.327 511.08 786.381 513.232 787.575 515.229 788.895 517.067 790.334 518.747 791.884 520.272 793.533 521.641 795.274 522.853 797.095 523.912 798.987 524.816 800.942 525.567 802.946 526.17 804.995 526.618 807.077 526.922 809.184 527.075 811.306 527.083 813.429 526.945 815.554 526.664 817.665 526.237 819.754 525.671 821.813 524.962 823.833 524.112 825.802 523.124 827.713 521.996 829.558 520.731 831.325 519.33 833.006 517.791 834.592 516.122 836.071 514.318 837.436 512.382 838.674 510.315 839.783 508.122 840.746 507.627 839.481 509.725 838.559 511.696 837.504 513.541 836.319"/>
  <polygon class="cls-23" points="511.705 826.405 512.487 825.396 513.207 824.368 513.866 823.325 514.458 822.267 514.989 821.198 515.456 820.118 515.861 819.029 516.202 817.933 516.481 816.833 516.695 815.727 516.847 814.62 516.936 813.511 516.962 812.403 516.924 811.298 516.822 810.197 516.659 809.104 516.431 808.015 516.138 806.937 515.784 805.87 515.364 804.816 514.88 803.774 514.333 802.747 513.72 801.738 513.044 800.749 512.302 799.778 511.495 798.831 510.623 797.908 509.685 797.01 508.68 796.139 509.287 795.406 510.325 796.307 511.297 797.238 512.203 798.198 513.042 799.183 513.814 800.191 514.521 801.225 515.16 802.278 515.733 803.35 516.239 804.44 516.677 805.546 517.05 806.666 517.355 807.796 517.594 808.936 517.768 810.086 517.873 811.239 517.912 812.399 517.886 813.559 517.793 814.72 517.634 815.88 517.408 817.037 517.118 818.19 516.762 819.335 516.339 820.471 515.852 821.597 515.3 822.71 514.681 823.809 514.001 824.893 513.254 825.958 512.442 827.005 511.567 828.029 510.627 829.033 509.625 830.01 508.977 829.314 509.95 828.366 510.859 827.397"/>
  <polygon class="cls-22" points="480.284 827.061 479.391 826.018 478.581 824.941 477.855 823.834 477.211 822.702 476.649 821.544 476.168 820.366 475.765 819.169 475.442 817.959 475.197 816.735 475.029 815.502 474.938 814.265 474.921 813.024 474.976 811.782 475.107 810.543 475.308 809.31 475.58 808.084 475.923 806.869 476.334 805.669 476.813 804.485 477.359 803.321 477.969 802.178 478.646 801.06 479.386 799.971 480.189 798.913 481.053 797.886 481.978 796.898 482.964 795.948 484.006 795.039 484.613 795.772 483.604 796.648 482.655 797.564 481.764 798.519 480.93 799.505 480.157 800.526 479.446 801.574 478.796 802.647 478.208 803.745 477.684 804.864 477.225 806 476.831 807.152 476.504 808.315 476.243 809.488 476.049 810.669 475.926 811.853 475.87 813.039 475.887 814.224 475.975 815.405 476.135 816.579 476.369 817.743 476.677 818.897 477.058 820.035 477.516 821.157 478.053 822.258 478.667 823.339 479.359 824.394 480.132 825.422 480.987 826.421 481.925 827.387 482.945 828.317 484.05 829.211 485.242 830.062 484.713 830.851 483.477 829.967 482.327 829.039 481.262 828.069"/>
  <rect class="cls-23" x="484.59622" y="829.11908" width=".76257002" height="2.1196899"/>
  <rect class="cls-23" x="484.10049" y="794.75293" width=".66720998" height="1.77017"/>
  <g class="cls-24" clip-path="url(#clip-path-6)">
   <rect class="cls-25" transform="rotate(-39.41132,662.99453,815.8639)" x="611.41022" y="763.48297" width="82.525261" height="82.525208" fill="url(#linear-gradient-5)"/>
  </g>
  <path class="cls-15" transform="translate(-4.71179,9.0813)" d="m652.67322 775.42914a29.31636 29.31636 0 1 1-29.31684 29.3168 29.32026 29.32026 0 0 1 29.31684-29.3168z"/>
  <path class="cls-4" transform="translate(-4.71179,9.0813)" d="m652.67322 783.56464a21.18131 21.18131 0 1 1-21.18134 21.1813 21.18409 21.18409 0 0 1 21.18134-21.1813z"/>
  <path class="cls-15" transform="translate(-4.71179,9.0813)" d="m652.67322 783.56464a21.18131 21.18131 0 1 1-21.18134 21.1813 21.18409 21.18409 0 0 1 21.18134-21.1813z"/>
  <path class="cls-16" transform="translate(-4.71179,9.0813)" d="m602.77039 662.83087c-4.72138-9e-3 -9.22931 4.56317-9.22931 8.9079v89.54723c0 4.07221 3.87072 8.9895 11.40429 9.10339 0.28864 4e-3 -3.11035-1.20187-2.81646-1.20187l38.29132 0.0247-0.0465 23.8501 1.673-1.6387 19.15509 0.0465v-22.12517l38.26184-0.15738c4.72126-0.0192 8.58887-3.55832 8.58887-7.90152v-89.54727c0-4.34534-3.8653-7.93793-8.58887-7.90161l-38.26184 0.29309c-3.96771 0.0309-8.0697-9.58283-8.09149-14.4292-4.69757 4.23859-6.54242 13.20093-12.59827 13.20917z"/>
  <path class="cls-8" transform="translate(-4.71179,9.0813)" d="m703.32288 664.15063c4.718-0.0258 8.58483 3.17621 8.59784 7.51752l0.267 89.54761c0.0116 4.34088-4.5816 9.80609-9.30468 9.80838l-37.95588 0.0258-0.0417 22.14679-24.73029-0.0825 2.1181-1.80622 2.49189-22.03369-38.26227-0.1571c-4.72083-0.0192-8.58838-3.5589-8.58838-7.90149v-89.54761c0-4.34472 3.86438-7.93823 8.58838-7.9013l38.26227 0.29339c3.71679 0.0283 8.90142-8.30981 8.411-13.34949l-0.0346-0.35858q-8e-3 -0.31851-0.0153-0.63781c2.9715 3.37487 4.11755 7.16571 6.53809 10.65826a11.40861 11.40861 0 0 0 2.2705 2.278 6.79548 6.79548 0 0 0 4.13581 1.70557z"/>
  <path class="cls-16" transform="translate(-4.71179,9.0813)" d="m609.16821 853.09564c4.42829-12.18249 24.584-16.094 31.8852-3.88879l-0.23841-33.92761 24.715 0.0226-2.2807 2.60709-1.60251 31.13906c7.30121-12.20459 26.29114-7.92367 31.26361 4.04761 8.74408 21.05551-28.9043 80.38492-39.75561 97.10559-13.7945-20.37228-52.07728-74.8508-43.98658-97.10559"/>
  <path class="cls-8" transform="translate(-4.71179,9.0813)" d="m612.13922 853.09564c4.97168-11.97128 24.43768-16.2522 31.7395-4.04761l20.06757-32.26757 1.77789-1.74021-0.35766 33.9426c7.30139-12.2048 26.29376-8.00589 31.47869 3.87381 9.31269 21.34039-32.1228 81.0766-43.706 97.43158l-0.017-2.3609-6.1e-4 -2.76178c-9e-3 -23.19712-49.31769-72.00171-40.98236-92.06992"/>
  <g class="cls-26" clip-path="url(#clip-path-7)">
   <rect class="cls-27" transform="rotate(-33.68402,665.16984,733.24996)" x="565.73273" y="630.43292" width="173.58696" height="180.98787" fill="url(#linear-gradient-6)"/>
  </g>
  <rect class="cls-19" x="614.03381" y="696.39355" width="66.988892" height="57.25528"/>
  <path class="cls-16" transform="translate(-4.71179,9.0813)" d="m662.41638 662.86627 38.549-0.0521a10.18266 10.18266 0 0 1 5.12439 1.62219l-4.37127-0.62048-37.32319 0.28351c-2.52142 0.31146-3.55889-0.46833-4.67742-2.0401a6.79348 6.79348 0 0 0 2.69848 0.807"/>
  <polygon class="cls-8" points="597.13 778.074 637.46 778.309 635.695 779.558 600.467 779.478"/>
  <polygon class="cls-15" points="597.13 778.074 637.46 778.309 635.695 779.558 600.467 779.478"/>
  <polygon class="cls-8" points="615.577 752.19 614.072 753.607 614.072 696.457 681.01 696.429 679.892 697.545 615.57 697.486"/>
  <polygon class="cls-15" points="615.577 752.19 614.072 753.607 614.072 696.457 681.01 696.429 679.892 697.545 615.57 697.486"/>
  <polygon class="cls-16" points="679.027 697.915 681.01 696.429 681.079 753.648 614.004 753.676 615.327 752.149 679.307 752.004"/>
  <g class="cls-28" clip-path="url(#clip-path-8)">
   <rect class="cls-29" transform="rotate(-28.267,668.67756,896.2177)" x="577.13434" y="800.44769" width="151.73338" height="163.74666" fill="url(#linear-gradient-7)"/>
  </g>
  <polygon class="cls-22" points="666.829 836.048 668.424 834.638 669.887 833.127 671.225 831.525 672.432 829.838 673.507 828.078 674.452 826.252 675.264 824.368 675.942 822.439 676.486 820.47 676.892 818.471 677.163 816.451 677.295 814.421 677.287 812.383 677.139 810.357 676.852 808.346 676.419 806.359 675.848 804.406 675.129 802.492 674.268 800.633 673.262 798.832 672.108 797.101 670.808 795.445 669.358 793.876 667.757 792.4 666.005 791.026 664.099 789.764 662.036 788.623 659.818 787.611 660.334 786.356 662.648 787.411 664.801 788.604 666.797 789.925 668.635 791.363 670.316 792.913 671.84 794.563 673.209 796.303 674.421 798.125 675.48 800.016 676.384 801.971 677.135 803.975 677.738 806.024 678.187 808.107 678.49 810.214 678.643 812.336 678.651 814.459 678.514 816.584 678.233 818.694 677.806 820.784 677.24 822.843 676.53 824.863 675.681 826.832 674.693 828.743 673.564 830.588 672.299 832.355 670.898 834.036 669.36 835.622 667.691 837.101 665.887 838.466 663.95 839.704 661.884 840.813 659.691 841.777 659.196 840.511 661.294 839.589 663.264 838.534 665.11 837.349"/>
  <polygon class="cls-23" points="663.274 827.435 664.056 826.425 664.776 825.397 665.434 824.355 666.027 823.297 666.557 822.228 667.025 821.147 667.429 820.059 667.77 818.963 668.049 817.862 668.264 816.757 668.416 815.649 668.505 814.54 668.531 813.432 668.492 812.328 668.391 811.226 668.228 810.133 668 809.045 667.707 807.967 667.352 806.899 666.932 805.845 666.449 804.804 665.902 803.777 665.289 802.768 664.613 801.779 663.87 800.808 663.064 799.86 662.192 798.937 661.254 798.04 660.249 797.169 660.857 796.435 661.894 797.336 662.866 798.267 663.772 799.227 664.611 800.212 665.383 801.22 666.089 802.254 666.728 803.307 667.301 804.379 667.807 805.469 668.246 806.576 668.619 807.695 668.923 808.826 669.162 809.965 669.336 811.115 669.442 812.268 669.48 813.428 669.454 814.588 669.361 815.749 669.202 816.909 668.976 818.067 668.686 819.22 668.33 820.364 667.908 821.501 667.421 822.626 666.868 823.74 666.25 824.839 665.569 825.922 664.823 826.988 664.011 828.034 663.135 829.059 662.196 830.062 661.193 831.04 660.546 830.343 661.519 829.395 662.428 828.426"/>
  <polygon class="cls-22" points="631.853 828.091 630.96 827.047 630.15 825.971 629.424 824.863 628.78 823.731 628.218 822.573 627.737 821.395 627.333 820.198 627.011 818.988 626.766 817.764 626.598 816.532 626.506 815.294 626.49 814.053 626.545 812.811 626.676 811.572 626.877 810.339 627.149 809.113 627.492 807.898 627.903 806.698 628.382 805.514 628.928 804.35 629.538 803.207 630.214 802.089 630.955 801 631.757 799.942 632.621 798.915 633.546 797.927 634.532 796.977 635.574 796.068 636.181 796.801 635.173 797.677 634.224 798.593 633.332 799.548 632.498 800.534 631.726 801.555 631.015 802.603 630.365 803.677 629.776 804.774 629.253 805.893 628.793 807.029 628.4 808.181 628.072 809.344 627.811 810.518 627.618 811.698 627.495 812.882 627.439 814.068 627.456 815.253 627.544 816.435 627.704 817.608 627.938 818.772 628.246 819.926 628.627 821.064 629.086 822.186 629.621 823.288 630.236 824.368 630.928 825.424 631.701 826.452 632.556 827.45 633.494 828.417 634.514 829.347 635.619 830.24 636.811 831.092 636.282 831.881 635.046 830.996 633.896 830.069 632.831 829.098"/>
  <rect class="cls-23" x="636.16449" y="830.14825" width=".76300001" height="2.12009"/>
  <rect class="cls-23" x="635.66919" y="795.78241" width=".66790998" height="1.77029"/>
  <g class="cls-30" clip-path="url(#clip-path-9)">
   <rect class="cls-31" transform="rotate(-39.4113,353.47185,816.89392)" x="301.88776" y="764.51318" width="82.524773" height="82.524696" fill="url(#linear-gradient-8)"/>
  </g>
  <path class="cls-15" transform="translate(-4.71179,9.0813)" d="m343.1503 776.45935a29.31615 29.31615 0 1 1-29.3165 29.31531 29.32048 29.32048 0 0 1 29.3165-29.31531z"/>
  <path class="cls-4" transform="translate(-4.71179,9.0813)" d="m343.1503 784.59476a21.18089 21.18089 0 1 1-21.181 21.1799 21.183 21.183 0 0 1 21.181-21.1799z"/>
  <path class="cls-15" transform="translate(-4.71179,9.0813)" d="m343.1503 784.59476a21.18089 21.18089 0 1 1-21.181 21.1799 21.183 21.183 0 0 1 21.181-21.1799z"/>
  <path class="cls-16" transform="translate(-4.71179,9.0813)" d="m293.24719 663.86066c-4.7214-9e-3 -9.229 4.56317-9.229 8.90759v89.54761c0 4.0722 3.8707 8.98919 11.40491 9.1026 0.28768 4e-3 -3.11161-1.20133-2.81681-1.20133l38.291 0.0255-0.0468 23.849 1.6724-1.63809 19.1557 0.0462v-22.12562l38.2626-0.157c4.7211-0.0187 8.58872-3.55829 8.58872-7.90127v-89.54763c0-4.34491-3.86591-7.93793-8.58872-7.901l-38.2626 0.29309c-3.9679 0.0298-8.06879-9.58307-8.092-14.43012-4.69681 4.23871-6.5416 13.2024-12.59812 13.20954z"/>
  <path class="cls-8" transform="translate(-4.71179,9.0813)" d="m393.80029 665.18042c4.71741-0.0258 8.58472 3.17621 8.5972 7.51721l0.26621 89.54761c0.013 4.34131-4.58081 9.80621-9.303 9.80872l-37.9559 0.0255-0.0426 22.1466-24.7305-0.082 2.1186-1.80679 2.4913-22.03391-38.262-0.15649c-4.72082-0.019-8.58792-3.55829-8.58792-7.90161v-89.54761c0-4.34521 3.86481-7.93725 8.58792-7.90179l38.262 0.29364c3.7174 0.0284 8.9017-8.30976 8.411-13.34925l-0.034-0.358c-5e-3 -0.21258-0.0114-0.426-0.0167-0.63812 2.97268 3.37531 4.11951 7.166 6.53891 10.65723a11.31838 11.31838 0 0 0 2.27109 2.27789 6.79491 6.79491 0 0 0 4.13641 1.70667z"/>
  <path class="cls-16" transform="translate(-4.71179,9.0813)" d="m299.64471 854.12494c4.42829-12.18219 24.5846-16.09369 31.8855-3.88831l-0.23782-33.92819 24.71472 0.0233-2.2807 2.607-1.60272 31.1391c7.30121-12.2045 26.29162-7.9245 31.26272 4.04709 8.7446 21.056-28.90292 80.38541-39.75451 97.10611-13.7948-20.37171-52.0773-74.85129-43.98719-97.10611"/>
  <path class="cls-8" transform="translate(-4.71179,9.0813)" d="m302.6163 854.12494c4.97171-11.97159 24.438-16.25159 31.73889-4.04709l20.0676-32.26791 1.7785-1.74021-0.35769 33.9429c7.30169-12.20538 26.2944-8.00607 31.4787 3.87363 9.3132 21.34088-32.1225 81.07617-43.70539 97.43158l-0.0173-2.3613-2e-3 -2.7612c-8e-3 -23.1968-49.31629-72.00088-40.9813-92.0704"/>
  <g class="cls-32" clip-path="url(#clip-path-10)">
   <rect class="cls-33" transform="rotate(-33.68401,355.64653,734.27948)" x="256.20932" y="631.46228" width="173.58688" height="180.98807" fill="url(#linear-gradient-9)"/>
  </g>
  <rect class="cls-19" x="304.51062" y="697.42285" width="66.989502" height="57.255581"/>
  <path class="cls-16" transform="translate(-4.71179,9.0813)" d="m352.8924 663.89557 38.5498-0.0519a10.18208 10.18208 0 0 1 5.12469 1.62262l-4.37179-0.62079-37.32349 0.28308a4.20478 4.20478 0 0 1-4.67611-2.03949 6.7848 6.7848 0 0 0 2.6969 0.80652"/>
  <polygon class="cls-8" points="287.608 779.105 327.936 779.339 326.171 780.587 290.944 780.508"/>
  <polygon class="cls-15" points="287.608 779.105 327.936 779.339 326.171 780.587 290.944 780.508"/>
  <polygon class="cls-8" points="306.053 753.219 304.549 754.637 304.549 697.487 371.488 697.459 370.37 698.575 306.048 698.515"/>
  <polygon class="cls-15" points="306.053 753.219 304.549 754.637 304.549 697.487 371.488 697.459 370.37 698.575 306.048 698.515"/>
  <polygon class="cls-16" points="369.504 698.944 371.488 697.459 371.556 754.677 304.48 754.705 305.803 753.179 369.783 753.033"/>
  <g class="cls-34" clip-path="url(#clip-path-11)">
   <rect class="cls-35" transform="rotate(-28.267,359.15463,897.24707)" x="267.61209" y="801.47778" width="151.73198" height="163.74522" fill="url(#linear-gradient-10)"/>
  </g>
  <polygon class="cls-22" points="357.306 837.077 358.901 835.667 360.364 834.156 361.702 832.554 362.908 830.867 363.984 829.108 364.929 827.281 365.741 825.398 366.419 823.468 366.964 821.499 367.369 819.5 367.64 817.48 367.772 815.451 367.764 813.413 367.616 811.386 367.329 809.375 366.896 807.389 366.325 805.435 365.606 803.522 364.745 801.663 363.739 799.862 362.585 798.13 361.285 796.475 359.835 794.905 358.234 793.43 356.482 792.055 354.576 790.793 352.513 789.653 350.296 788.641 350.811 787.385 353.125 788.44 355.278 789.634 357.274 790.954 359.112 792.393 360.793 793.942 362.317 795.592 363.686 797.332 364.898 799.154 365.958 801.046 366.862 803.001 367.612 805.004 368.215 807.054 368.664 809.136 368.967 811.243 369.12 813.365 369.128 815.488 368.991 817.613 368.709 819.724 368.283 821.813 367.716 823.872 367.007 825.893 366.158 827.861 365.169 829.773 364.041 831.617 362.776 833.384 361.375 835.066 359.837 836.651 358.168 838.131 356.363 839.496 354.427 840.734 352.361 841.842 350.167 842.806 349.673 841.54 351.77 840.619 353.741 839.564 355.586 838.379"/>
  <polygon class="cls-23" points="353.751 828.465 354.533 827.455 355.253 826.427 355.911 825.384 356.504 824.326 357.034 823.258 357.502 822.177 357.906 821.089 358.247 819.993 358.526 818.892 358.741 817.787 358.893 816.679 358.982 815.57 359.008 814.462 358.969 813.358 358.868 812.257 358.705 811.163 358.477 810.075 358.184 808.996 357.829 807.929 357.409 806.875 356.926 805.834 356.379 804.807 355.766 803.798 355.09 802.809 354.347 801.838 353.541 800.89 352.669 799.968 351.731 799.07 350.726 798.199 351.334 797.465 352.371 798.366 353.343 799.297 354.249 800.257 355.088 801.242 355.86 802.25 356.567 803.284 357.205 804.337 357.778 805.409 358.284 806.499 358.723 807.605 359.096 808.725 359.4 809.855 359.639 810.995 359.813 812.145 359.919 813.298 359.957 814.458 359.931 815.618 359.838 816.779 359.679 817.939 359.453 819.097 359.163 820.249 358.807 821.394 358.385 822.531 357.898 823.656 357.345 824.77 356.727 825.869 356.046 826.952 355.299 828.017 354.488 829.064 353.612 830.089 352.673 831.092 351.67 832.069 351.022 831.373 351.996 830.425 352.905 829.456"/>
  <polygon class="cls-22" points="322.329 829.121 321.437 828.077 320.626 827.001 319.9 825.893 319.257 824.761 318.694 823.603 318.213 822.425 317.81 821.228 317.487 820.018 317.242 818.794 317.075 817.561 316.983 816.324 316.966 815.083 317.022 813.841 317.152 812.602 317.354 811.369 317.625 810.143 317.968 808.928 318.38 807.728 318.859 806.543 319.404 805.379 320.015 804.237 320.691 803.119 321.432 802.029 322.234 800.972 323.098 799.945 324.023 798.956 325.009 798.007 326.051 797.097 326.658 797.831 325.65 798.707 324.701 799.623 323.809 800.578 322.975 801.564 322.203 802.584 321.492 803.632 320.842 804.706 320.253 805.804 319.73 806.923 319.27 808.059 318.876 809.211 318.549 810.374 318.288 811.547 318.095 812.728 317.971 813.912 317.916 815.098 317.932 816.283 318.02 817.464 318.181 818.638 318.414 819.802 318.722 820.956 319.103 822.094 319.562 823.216 320.098 824.318 320.712 825.399 321.405 826.454 322.178 827.481 323.033 828.48 323.97 829.447 324.99 830.377 326.095 831.271 327.288 832.122 326.759 832.911 325.522 832.026 324.372 831.099 323.307 830.128"/>
  <rect class="cls-23" x="326.6416" y="831.17786" width=".76251" height="2.1199999"/>
  <rect class="cls-23" x="326.14661" y="796.81226" width=".66698998" height="1.77029"/>
  <g class="cls-36" clip-path="url(#clip-path-12)">
   <rect class="cls-37" transform="rotate(-39.41131,199.84351,814.8346)" x="148.25954" y="762.45392" width="82.524612" height="82.524712" fill="url(#linear-gradient-11)"/>
  </g>
  <path class="cls-15" transform="translate(-4.71179,9.0813)" d="m189.52209 774.39993a29.31632 29.31632 0 1 1-29.31639 29.31653 29.3196 29.3196 0 0 1 29.31639-29.31653z"/>
  <path class="cls-4" transform="translate(-4.71179,9.0813)" d="m189.52209 782.53485a21.18116 21.18116 0 1 1-21.18038 21.18161 21.184 21.184 0 0 1 21.18038-21.18161z"/>
  <path class="cls-15" transform="translate(-4.71179,9.0813)" d="m189.52209 782.53485a21.18116 21.18116 0 1 1-21.18038 21.18161 21.184 21.184 0 0 1 21.18038-21.18161z"/>
  <path class="cls-16" transform="translate(-4.71179,9.0813)" d="m139.6196 661.80127c-4.72161-0.01-9.229 4.56378-9.229 8.90759v89.54758c0 4.07312 3.87011 8.9895 11.404 9.10351 0.28861 4e-3 -3.1113-1.2019-2.8159-1.2019l38.2904 0.0247-0.0462 23.84982 1.6727-1.6387 19.1551 0.0476v-22.12659l38.26211-0.1568c4.72079-0.0193 8.58839-3.55829 8.58839-7.90161v-89.54758c0-4.34521-3.8645-7.93811-8.58839-7.9013l-38.26211 0.29339c-3.96791 0.0301-8.06961-9.58331-8.0912-14.43-4.69751 4.23859-6.54229 13.20227-12.5986 13.21z"/>
  <path class="cls-8" transform="translate(-4.71179,9.0813)" d="m240.17191 663.12085c4.7182-0.0258 8.58439 3.17651 8.59748 7.51739l0.26641 89.54792c0.0122 4.34158-4.5813 9.80587-9.30361 9.80868l-37.95619 0.025-0.0416 22.14712-24.73011-0.0822 2.11811-1.8068 2.49159-22.03341-38.2629-0.15769c-4.7205-0.0178-8.5881-3.55771-8.5881-7.90069v-89.54792c0-4.34521 3.8653-7.9378 8.5881-7.90118l38.2629 0.29358c3.71741 0.0281 8.9014-8.30969 8.411-13.34918l-0.0351-0.35883c-5e-3 -0.21258-0.01-0.42468-0.0156-0.63751 2.97271 3.37433 4.1187 7.1654 6.53859 10.65771a11.37685 11.37685 0 0 0 2.2706 2.2779 6.79834 6.79834 0 0 0 4.13631 1.70562z"/>
  <path class="cls-16" transform="translate(-4.71179,9.0813)" d="m146.0166 852.06586c4.4285-12.1828 24.584-16.09342 31.8855-3.88861l-0.23779-33.92731 24.71489 0.0218-2.2807 2.6073-1.60241 31.14c7.30121-12.20511 26.29131-7.92389 31.26271 4.04682 8.74489 21.056-28.90319 80.38537-39.7548 97.10589-13.79511-20.37231-52.0772-74.85061-43.9874-97.10589"/>
  <path class="cls-8" transform="translate(-4.71179,9.0813)" d="m148.98779 852.06586c4.972-11.97071 24.43811-16.25193 31.73992-4.04682l20.06749-32.2673 1.77771-1.7402-0.35721 33.9421c7.3009-12.20459 26.2939-8.0065 31.479 3.87439 9.3124 21.33973-32.1233 81.07453-43.7057 97.43073l-0.0179-2.3613-5e-4 -2.76092c-9e-3 -23.1973-49.31749-72.00168-40.98281-92.07068"/>
  <g class="cls-38" clip-path="url(#clip-path-13)">
   <rect class="cls-39" transform="rotate(-33.68403,202.01848,732.22034)" x="102.58162" y="629.40387" width="173.5864" height="180.98689" fill="url(#linear-gradient-12)"/>
  </g>
  <rect class="cls-19" x="150.88251" y="695.36316" width="66.989197" height="57.25589"/>
  <path class="cls-16" transform="translate(-4.71179,9.0813)" d="m199.2648 661.83643 38.54981-0.0524a10.18159 10.18159 0 0 1 5.12449 1.62311l-4.3714-0.6211-37.3237 0.28369a4.20508 4.20508 0 0 1-4.67691-2.03979 6.8127 6.8127 0 0 0 2.69771 0.80646"/>
  <polygon class="cls-8" points="133.98 777.045 174.309 777.279 172.544 778.527 137.316 778.449"/>
  <polygon class="cls-15" points="133.98 777.045 174.309 777.279 172.544 778.527 137.316 778.449"/>
  <polygon class="cls-8" points="152.426 751.16 150.921 752.578 150.921 695.427 217.86 695.4 216.741 696.516 152.42 696.457"/>
  <polygon class="cls-15" points="152.426 751.16 150.921 752.578 150.921 695.427 217.86 695.4 216.741 696.516 152.42 696.457"/>
  <polygon class="cls-16" points="215.877 696.886 217.86 695.4 217.928 752.619 150.852 752.646 152.177 751.12 216.156 750.975"/>
  <g class="cls-40" clip-path="url(#clip-path-14)">
   <rect class="cls-41" transform="rotate(-28.267,205.52649,895.18787)" x="113.98323" y="799.41791" width="151.73338" height="163.74655" fill="url(#linear-gradient-13)"/>
  </g>
  <polygon class="cls-22" points="203.678 835.018 205.273 833.607 206.737 832.097 208.074 830.495 209.28 828.808 210.356 827.048 211.301 825.222 212.113 823.338 212.791 821.409 213.335 819.44 213.741 817.441 214.012 815.421 214.144 813.392 214.136 811.354 213.988 809.328 213.701 807.316 213.268 805.33 212.697 803.376 211.978 801.463 211.117 799.604 210.111 797.803 208.957 796.071 207.657 794.416 206.207 792.846 204.607 791.371 202.854 789.996 200.948 788.734 198.886 787.594 196.668 786.582 197.184 785.327 199.497 786.381 201.65 787.575 203.646 788.895 205.484 790.334 207.165 791.884 208.689 793.533 210.058 795.274 211.27 797.095 212.329 798.987 213.234 800.942 213.984 802.946 214.587 804.995 215.036 807.077 215.339 809.184 215.492 811.306 215.5 813.429 215.363 815.554 215.082 817.665 214.655 819.754 214.089 821.813 213.379 823.833 212.53 825.802 211.542 827.713 210.413 829.558 209.148 831.325 207.747 833.006 206.209 834.592 204.54 836.071 202.736 837.436 200.8 838.674 198.733 839.783 196.54 840.746 196.045 839.481 198.143 838.559 200.114 837.504 201.959 836.319"/>
  <polygon class="cls-23" points="200.123 826.405 200.905 825.396 201.625 824.368 202.283 823.325 202.876 822.267 203.406 821.198 203.874 820.118 204.278 819.029 204.619 817.933 204.898 816.833 205.113 815.727 205.265 814.62 205.354 813.511 205.38 812.403 205.341 811.298 205.24 810.197 205.077 809.104 204.849 808.015 204.556 806.937 204.201 805.87 203.782 804.816 203.298 803.774 202.751 802.747 202.138 801.738 201.462 800.749 200.72 799.778 199.913 798.831 199.041 797.908 198.103 797.01 197.099 796.139 197.706 795.406 198.744 796.307 199.715 797.238 200.621 798.198 201.461 799.183 202.232 800.191 202.939 801.225 203.577 802.278 204.151 803.35 204.656 804.44 205.095 805.546 205.468 806.666 205.773 807.796 206.011 808.936 206.186 810.086 206.291 811.239 206.33 812.399 206.303 813.559 206.21 814.72 206.051 815.88 205.825 817.037 205.535 818.19 205.179 819.335 204.757 820.471 204.27 821.597 203.717 822.71 203.099 823.809 202.418 824.893 201.672 825.958 200.86 827.005 199.985 828.029 199.045 829.033 198.043 830.01 197.395 829.314 198.368 828.366 199.277 827.397"/>
  <polygon class="cls-22" points="168.702 827.061 167.809 826.018 166.999 824.941 166.272 823.834 165.629 822.702 165.067 821.544 164.585 820.366 164.182 819.169 163.86 817.959 163.615 816.735 163.447 815.502 163.356 814.265 163.339 813.024 163.394 811.782 163.525 810.544 163.726 809.31 163.998 808.084 164.341 806.869 164.752 805.669 165.231 804.485 165.777 803.321 166.387 802.178 167.064 801.06 167.805 799.971 168.607 798.913 169.47 797.886 170.396 796.898 171.382 795.948 172.424 795.039 173.031 795.772 172.022 796.648 171.073 797.564 170.181 798.519 169.348 799.505 168.575 800.526 167.864 801.574 167.214 802.647 166.626 803.745 166.102 804.864 165.643 806 165.249 807.152 164.922 808.315 164.66 809.488 164.467 810.667 164.344 811.853 164.288 813.039 164.305 814.224 164.393 815.405 164.553 816.579 164.787 817.743 165.095 818.897 165.476 820.035 165.934 821.157 166.47 822.258 167.084 823.339 167.777 824.394 168.55 825.422 169.405 826.421 170.342 827.387 171.362 828.317 172.467 829.211 173.66 830.062 173.131 830.851 171.894 829.967 170.744 829.039 169.68 828.069"/>
  <rect class="cls-23" x="173.01421" y="829.11908" width=".76169997" height="2.1196899"/>
  <rect class="cls-23" x="172.5182" y="794.75293" width=".66729999" height="1.77017"/>
  <path class="cls-8" transform="translate(-4.71179,9.0813)" d="m88.5614 662.23926c4.7163-0.0746 8.5845 3.17792 8.5972 7.51751l0.2662 89.54776c0.013 4.3396-4.5811 9.83713-9.3033 9.80881l-23.192-0.13839-8.6765-106.22153z"/>
  <g class="cls-42" clip-path="url(#clip-path-15)">
   <rect class="cls-43" transform="rotate(-33.68402,86.896423,726.93337)" x="27.729219" y="659.21802" width="93.046928" height="110.78426" fill="url(#linear-gradient-14)"/>
  </g>
  <path class="cls-12" transform="translate(-4.71179,9.0813)" d="m54.4833 685.59027 16.4889-0.18915v57.25531c-4.3135 0.14313-6.5535 0.54651-10.8667 0.68912a561.43587 561.43587 0 0 1-5.6222-57.75528"/>
  <path class="cls-16" transform="translate(-4.71179,9.0813)" d="m86.2038 660.903a10.18307 10.18307 0 0 1 5.1245 1.62262l-4.3719-0.62085-33.3788 0.28351-0.0615-1.3808z"/>
  <polygon class="cls-16" points="66.317 751.736 64.545 750.093 64.266 696.004 66.249 694.518"/>
  <path class="cls-16" transform="translate(-4.71179,9.0813)" d="m755.007 660.51154c-4.7168-0.04-9.19672 2.96453-9.24152 7.30322l-0.90991 89.5473c-0.0434 4.33917 4.58191 9.87528 9.30414 9.80869l24.67645-0.3458 12.33673-106.01379z"/>
  <g class="cls-44" clip-path="url(#clip-path-16)">
   <rect class="cls-45" transform="rotate(-56.31597,775.06276,723.55755)" x="713.04767" y="667.34235" width="111.77548" height="94.546112" fill="url(#linear-gradient-15)"/>
  </g>
  <path class="cls-12" transform="translate(-4.71179,9.0813)" d="m789.21161 685.49182-17.90283-0.0907v57.25531l12.39959 0.0363c2.19513-19.0676 4.35773-38.13422 5.50324-57.20093"/>
  <path class="cls-8" transform="translate(-4.71179,9.0813)" d="m757.23871 768.86755c-1.69031-0.0218-4.17059-1.47091-5.5091-2.39071l4.37189 0.6196 22.71057-0.28339-0.22369 1.95361z"/>
  <polygon class="cls-8" points="766.54 751.736 768.312 750.093 768.592 696.004 766.609 694.518"/>
  <polygon class="cls-8" points="766.594 694.42 784.523 694.47 784.424 696.215 768.482 696.215"/>
  <polygon class="cls-16" points="766.223 751.902 778.894 751.927 779.166 750.108 768.111 750.108"/>
  <rect class="cls-23" x="92.607811" y="693.28564" width="32.943401" height="2.4525101"/>
  <rect class="cls-23" x="244.12811" y="692.82556" width="35.27948" height="2.29041"/>
  <rect class="cls-23" x="397.71292" y="693.03394" width="39.52039" height="2.0443101"/>
  <rect class="cls-23" transform="rotate(-89.7663,579.87007,691.80995)" x="576.53033" y="667.48584" width="2.2729101" height="34.835861"/>
  <rect class="cls-23" transform="rotate(-89.76599,731.45312,691.56889)" x="728.11334" y="667.24506" width="2.27282" height="34.835251"/>
  <rect class="cls-22" transform="rotate(-89.75233,730.49694,751.658)" x="727.15601" y="728.29083" width="2.2729399" height="32.92078"/>
  <rect class="cls-22" transform="rotate(-89.75325,579.22725,751.76272)" x="575.82581" y="728.29883" width="2.39412" height="33.114349"/>
  <rect class="cls-22" transform="rotate(-.24396 2552.1349 1855.9945)" x="401.55176" y="743.6734" width="40.280972" height="2.39412"/>
  <polygon class="cls-22" points="279.31 755.206 243.873 755.376 243.865 752.982 279.302 752.812"/>
  <polygon class="cls-22" points="125.682 755.206 92.529 755.376 92.521 752.982 125.674 752.812"/>
 </g>
</svg>