<?xml version="1.0" encoding="UTF-8" standalone="no"?>
<svg
   version="1.0"
   height="580"
   width="500"
   id="svg1337"
   xml:space="preserve"
   xmlns="http://www.w3.org/2000/svg"
   xmlns:svg="http://www.w3.org/2000/svg"
   xmlns:rdf="http://www.w3.org/1999/02/22-rdf-syntax-ns#"
   xmlns:cc="http://creativecommons.org/ns#"
   xmlns:dc="http://purl.org/dc/elements/1.1/"><metadata
     id="metadata1342"><rdf:RDF><cc:Work
         rdf:about=""><dc:format>image/svg+xml</dc:format><dc:type
           rdf:resource="http://purl.org/dc/dcmitype/StillImage" /></cc:Work></rdf:RDF></metadata><defs
     id="defs1340" /><g
     transform="translate(-741.4771,46.57784)"
     id="layer1"><g
       transform="matrix(0.91624372,0,0,0.91624372,62.103388,-3.9011864)"
       id="g1526"><path
         style="fill:#045cd2;fill-opacity:1;fill-rule:evenodd;stroke:none;stroke-width:1.00721;stroke-linecap:butt;stroke-linejoin:miter;stroke-miterlimit:4;stroke-dasharray:none;stroke-opacity:1"
         d="m 1287.1834,-46.57784 c 0,0 -10.7816,271.87427 -17.6972,390.92969 -6.9157,119.05541 -95.3907,242.08966 -255.156,242.08966 -159.76539,0 -248.24033,-123.03425 -255.15597,-242.08966 -6.91564,-119.05542 -17.69716,-390.92969 -17.69716,-390.92969 z"
         id="path926" /><g
         id="g1313"
         style="stroke-width:2;stroke-miterlimit:4;stroke-dasharray:none"
         transform="translate(0.44156932)"><path
           id="path1330"
           style="font-variation-settings:normal;vector-effect:none;fill:#003166;fill-opacity:1;fill-rule:evenodd;stroke:none;stroke-width:2;stroke-linecap:butt;stroke-linejoin:miter;stroke-miterlimit:4;stroke-dasharray:none;stroke-dashoffset:0;stroke-opacity:1;marker:none;marker-start:none;marker-mid:none;marker-end:none;stop-color:#000000"
           d="m 962.96851,42.398376 -9.04357,10.486254 c 0,0 3.00946,3.130826 12.42673,3.891359 l 17.64401,17.109278 c 7.42391,5.393785 8.87385,13.61518 18.57312,14.138259 2.3203,0.125135 3.4873,-0.286579 5.262,-1.299764 2.8978,6.456787 7.1319,10.568278 7.1319,10.568278 0,0 5.1598,-4.804895 8.0575,-11.26162 1.7747,1.013189 3.8677,1.557146 6.188,1.432014 9.6992,-0.523115 10.1253,-6.879178 17.5493,-12.272962 8.959,-5.439079 17.2778,-6.695241 16.5238,-16.79389 5.9314,-0.641369 11.6651,-3.905147 11.6651,-3.905147 0,0 -1.8266,-6.216939 -8.3804,-10.780829 1.513,-1.374866 4.9217,-4.506483 5.5199,-6.752882 2.4998,-9.38617 -3.4147,-11.756521 -6.2504,-20.483848 -2.8357,-8.7273249 0.5568,-14.1196166 -6.9826,-20.2438325 -1.8037,-1.4651105 -3.8178,-2.2553847 -5.8491,-2.4787956 1.4508,-6.9268269 0.7725,-13.1946939 0.7725,-13.1946949 0,0 -5.798,1.103437 -12.3112,4.249264 -0.8402,-1.862961 -2.2141,-3.533504 -4.165,-4.796238 -8.1543,-5.277857 -12.2352,-0.385231 -21.4116,-0.385231 -5.7353,0 -9.4802,-1.910702 -13.4731,-2.055243 -2.3957,-0.08672 -4.88067,1.02237 -7.93855,3.001566 -1.95093,1.262743 -2.95074,2.185137 -3.79089,4.048116 -6.13917,-3.519888 -12.87237,-3.875203 -12.87237,-3.875203 l 0.95951,13.0076639 z" /><g
           id="g1405"
           style="stroke-width:2;stroke-miterlimit:4;stroke-dasharray:none"><g
             style="stroke:none;stroke-width:2;stroke-miterlimit:4;stroke-dasharray:none"
             id="g1230"
             transform="rotate(-72,1013.8887,32.741095)"><path
               transform="rotate(72,1013.8887,32.741094)"
               id="path1150"
               d="m 1004.5023,75.522519 c 0.9604,10.359264 9.3864,19.637569 9.3864,19.637569 0,0 8.426,-9.278305 9.3864,-19.637569 0.9605,-10.359262 -1.7694,-21.609475 -9.3864,-21.609475 -7.617,0 -10.3468,11.250213 -9.3864,21.609475 z"
               style="font-variation-settings:normal;opacity:1;vector-effect:none;fill:#bf9f4f;fill-opacity:1;fill-rule:evenodd;stroke:none;stroke-width:2;stroke-linecap:butt;stroke-linejoin:miter;stroke-miterlimit:4;stroke-dasharray:none;stroke-dashoffset:0;stroke-opacity:1;marker:none;marker-start:none;marker-mid:none;marker-end:none;stop-color:#000000;stop-opacity:1" /><path
               transform="rotate(144,1013.8887,32.741059)"
               style="font-variation-settings:normal;opacity:1;vector-effect:none;fill:#bf9f4f;fill-opacity:1;fill-rule:evenodd;stroke:none;stroke-width:2;stroke-linecap:butt;stroke-linejoin:miter;stroke-miterlimit:4;stroke-dasharray:none;stroke-dashoffset:0;stroke-opacity:1;marker:none;marker-start:none;marker-mid:none;marker-end:none;stop-color:#000000;stop-opacity:1"
               d="m 1004.5023,75.522519 c 0.9604,10.359264 9.3864,19.637569 9.3864,19.637569 0,0 8.426,-9.278305 9.3864,-19.637569 0.9605,-10.359262 -1.7694,-21.609475 -9.3864,-21.609475 -7.617,0 -10.3468,11.250213 -9.3864,21.609475 z"
               id="path1183" /><path
               transform="rotate(-144,1013.8887,32.74104)"
               id="path1193"
               d="m 1004.5023,75.522519 c 0.9604,10.359264 9.3864,19.637569 9.3864,19.637569 0,0 8.426,-9.278305 9.3864,-19.637569 0.9605,-10.359262 -1.7694,-21.609475 -9.3864,-21.609475 -7.617,0 -10.3468,11.250213 -9.3864,21.609475 z"
               style="font-variation-settings:normal;opacity:1;vector-effect:none;fill:#bf9f4f;fill-opacity:1;fill-rule:evenodd;stroke:none;stroke-width:2;stroke-linecap:butt;stroke-linejoin:miter;stroke-miterlimit:4;stroke-dasharray:none;stroke-dashoffset:0;stroke-opacity:1;marker:none;marker-start:none;marker-mid:none;marker-end:none;stop-color:#000000;stop-opacity:1" /><path
               transform="rotate(-72,1013.8887,32.741057)"
               style="font-variation-settings:normal;opacity:1;vector-effect:none;fill:#bf9f4f;fill-opacity:1;fill-rule:evenodd;stroke:none;stroke-width:2;stroke-linecap:butt;stroke-linejoin:miter;stroke-miterlimit:4;stroke-dasharray:none;stroke-dashoffset:0;stroke-opacity:1;marker:none;marker-start:none;marker-mid:none;marker-end:none;stop-color:#000000;stop-opacity:1"
               d="m 1004.5023,75.522519 c 0.9604,10.359264 9.3864,19.637569 9.3864,19.637569 0,0 8.426,-9.278305 9.3864,-19.637569 0.9605,-10.359262 -1.7694,-21.609475 -9.3864,-21.609475 -7.617,0 -10.3468,11.250213 -9.3864,21.609475 z"
               id="path1203" /><path
               id="path1213"
               d="m 1004.5023,75.522519 c 0.9604,10.359264 9.3864,19.637569 9.3864,19.637569 0,0 8.426,-9.278305 9.3864,-19.637569 0.9605,-10.359262 -1.7694,-21.609475 -9.3864,-21.609475 -7.617,0 -10.3468,11.250213 -9.3864,21.609475 z"
               style="font-variation-settings:normal;opacity:1;vector-effect:none;fill:#bf9f4f;fill-opacity:1;fill-rule:evenodd;stroke:none;stroke-width:2;stroke-linecap:butt;stroke-linejoin:miter;stroke-miterlimit:4;stroke-dasharray:none;stroke-dashoffset:0;stroke-opacity:1;marker:none;marker-start:none;marker-mid:none;marker-end:none;stop-color:#000000;stop-opacity:1" /></g><g
             style="stroke-width:2;stroke-miterlimit:4;stroke-dasharray:none"
             id="g1292"><path
               style="font-variation-settings:normal;vector-effect:none;fill:#bf9f4f;fill-opacity:1;fill-rule:evenodd;stroke:none;stroke-width:2;stroke-linecap:butt;stroke-linejoin:miter;stroke-miterlimit:4;stroke-dasharray:none;stroke-dashoffset:0;stroke-opacity:1;marker:none;marker-start:none;marker-mid:none;marker-end:none;stop-color:#000000"
               d="m 991.03678,5.0719381 c -1.86631,-8.7819401 -11.87995,-13.2334994 -18.75299,-7.6505387 -7.3009,5.9305625 -4.01705,11.152717 -6.76304,19.6039956 -2.74599,8.451278 -8.47218,10.745894 -6.05151,19.83512 2.27883,8.556606 12.99657,10.841135 19.66834,4.833395 6.67178,-6.007769 10.57328,-1.096989 10.57328,-1.096989 0,0 -0.26994,6.266082 -9.1987,5.327338 -8.92884,-0.938803 -16.25691,7.209125 -13.07109,15.471013 3.3842,8.776206 9.36553,7.266818 16.55461,12.489995 7.18909,5.223178 7.60191,11.378185 16.99432,11.884719 8.842,0.476845 14.3267,-9.010382 10.6747,-17.212104 -3.6521,-8.20174 2.224,-10.394763 2.224,-10.394763 0,0 5.876,2.193055 2.224,10.394724 -3.652,8.201728 1.8327,17.688984 10.6747,17.212151 9.3924,-0.506569 9.8052,-6.661577 16.9943,-11.884754 7.1891,-5.223177 13.1704,-3.713789 16.5546,-12.48996 3.1858,-8.261899 -4.1422,-16.409857 -13.0711,-15.47106 -8.9288,0.938814 -9.1987,-5.327326 -9.1987,-5.327326 0,0 3.9015,-4.910698 10.5733,1.096956 6.6717,6.00775 17.3895,3.723268 19.6683,-4.833319 2.4207,-9.089283 -3.3055,-11.383899 -6.0515,-19.835177 -2.746,-8.4512784 0.5379,-13.6734329 -6.763,-19.6039383 -6.8731,-5.5829797 -16.8867,-1.131468 -18.753,7.6504626 -1.8663,8.7819587 -7.9092,7.1022867 -7.9092,7.1022867 0,0 -3.4647,-5.2280413 4.3106,-9.7167759 7.7754,-4.4887347 8.9147,-15.3878781 1.4811,-20.1993061 -7.8964,-5.110917 -11.8482,-0.37406 -20.7344,-0.37406 -8.8862,0 -12.838,-4.736857 -20.73434,0.37406 -7.43362,4.811428 -6.29437,15.7105714 1.48102,20.1993061 7.77542,4.4887346 4.31058,9.7167909 4.31058,9.7167909 0,0 -6.04284,1.679603 -7.90918,-7.1022419 z"
               id="path1211" /><path
               style="font-variation-settings:normal;vector-effect:none;fill:none;fill-opacity:1;fill-rule:evenodd;stroke:#855f2d;stroke-width:2;stroke-linecap:butt;stroke-linejoin:miter;stroke-miterlimit:4;stroke-dasharray:none;stroke-dashoffset:0;stroke-opacity:1;marker:none;marker-start:none;marker-mid:none;marker-end:none;stop-color:#000000"
               d="m 1005.5023,22.597113 c 4.449,-4.519656 8.3864,-15.6375692 8.3864,-15.6375692 0,0 3.9374,11.1179132 8.3864,15.6375692 z"
               id="path1167" /><path
               style="color:#000000;font-style:normal;font-variant:normal;font-weight:normal;font-stretch:normal;font-size:medium;line-height:normal;font-family:sans-serif;font-variant-ligatures:normal;font-variant-position:normal;font-variant-caps:normal;font-variant-numeric:normal;font-variant-alternates:normal;font-variant-east-asian:normal;font-feature-settings:normal;font-variation-settings:normal;text-indent:0;text-align:start;text-decoration:none;text-decoration-line:none;text-decoration-style:solid;text-decoration-color:#000000;letter-spacing:normal;word-spacing:normal;text-transform:none;writing-mode:lr-tb;direction:ltr;text-orientation:mixed;dominant-baseline:auto;baseline-shift:baseline;text-anchor:start;white-space:normal;shape-padding:0;shape-margin:0;inline-size:0;clip-rule:nonzero;display:inline;overflow:visible;visibility:visible;isolation:auto;mix-blend-mode:normal;color-interpolation:sRGB;color-interpolation-filters:linearRGB;solid-color:#000000;solid-opacity:1;vector-effect:none;fill:#855f2d;fill-opacity:1;fill-rule:evenodd;stroke:none;stroke-width:2;stroke-linecap:butt;stroke-linejoin:miter;stroke-miterlimit:4;stroke-dasharray:none;stroke-dashoffset:0;stroke-opacity:1;marker:none;color-rendering:auto;image-rendering:auto;shape-rendering:auto;text-rendering:auto;enable-background:accumulate;stop-color:#000000"
               d="m 1001.596,-9.6550768 c -4.29759,-0.5723052 -5.70079,0.9369826 -7.92359,2.4934368 1.5911,-2.3406585 3.1519,-3.97268 7.91539,-3.682662 4.7634,0.290019 8.1492,2.7993801 12.3009,2.7993801 4.1517,0 7.5375,-2.5093611 12.3009,-2.7993801 4.7635,-0.290018 6.3243,1.3420035 7.9154,3.682662 -2.2228,-1.5564542 -3.626,-3.065742 -7.9236,-2.4934368 -4.2976,0.5723051 -7.8605,3.545308 -12.2927,3.545308 -4.4322,0 -7.9951,-2.9730029 -12.2927,-3.545308 z"
               id="path1173" /><path
               id="path1185"
               d="m 1020.9446,21.63045 c 5.6733,2.8346 17.4638,3.143666 17.4638,3.143666 0,0 -9.3571,7.180314 -12.2807,12.808215 z"
               style="font-variation-settings:normal;vector-effect:none;fill:none;fill-opacity:1;fill-rule:evenodd;stroke:#855f2d;stroke-width:2;stroke-linecap:butt;stroke-linejoin:miter;stroke-miterlimit:4;stroke-dasharray:none;stroke-dashoffset:0;stroke-opacity:1;marker:none;marker-start:none;marker-mid:none;marker-end:none;stop-color:#000000" /><path
               id="path1187"
               d="m 1050.4111,7.9488635 c -0.7837,-4.264103 -2.6527,-5.1322299 -4.8199,-6.7652675 2.7178,0.7899227 4.7523,1.7700094 5.9484,6.3899781 1.1962,4.6198829 -0.1441,8.6154059 1.1389,12.5639069 1.2829,3.948502 4.7157,6.393153 6.4635,10.833795 1.7478,4.440737 0.678,6.429469 -1.0564,8.665998 0.7934,-2.594979 1.7952,-4.395897 -0.077,-8.306306 -1.8724,-3.910408 -5.8009,-6.380219 -7.1705,-10.595492 -1.3696,-4.215272 0.3569,-8.5225 -0.4269,-12.7866125 z"
               style="color:#000000;font-style:normal;font-variant:normal;font-weight:normal;font-stretch:normal;font-size:medium;line-height:normal;font-family:sans-serif;font-variant-ligatures:normal;font-variant-position:normal;font-variant-caps:normal;font-variant-numeric:normal;font-variant-alternates:normal;font-variant-east-asian:normal;font-feature-settings:normal;font-variation-settings:normal;text-indent:0;text-align:start;text-decoration:none;text-decoration-line:none;text-decoration-style:solid;text-decoration-color:#000000;letter-spacing:normal;word-spacing:normal;text-transform:none;writing-mode:lr-tb;direction:ltr;text-orientation:mixed;dominant-baseline:auto;baseline-shift:baseline;text-anchor:start;white-space:normal;shape-padding:0;shape-margin:0;inline-size:0;clip-rule:nonzero;display:inline;overflow:visible;visibility:visible;isolation:auto;mix-blend-mode:normal;color-interpolation:sRGB;color-interpolation-filters:linearRGB;solid-color:#000000;solid-opacity:1;vector-effect:none;fill:#855f2d;fill-opacity:1;fill-rule:evenodd;stroke:none;stroke-width:2;stroke-linecap:butt;stroke-linejoin:miter;stroke-miterlimit:4;stroke-dasharray:none;stroke-dashoffset:0;stroke-opacity:1;marker:none;color-rendering:auto;image-rendering:auto;shape-rendering:auto;text-rendering:auto;enable-background:accumulate;stop-color:#000000" /><path
               style="font-variation-settings:normal;vector-effect:none;fill:none;fill-opacity:1;fill-rule:evenodd;stroke:#855f2d;stroke-width:2;stroke-linecap:butt;stroke-linejoin:miter;stroke-miterlimit:4;stroke-dasharray:none;stroke-dashoffset:0;stroke-opacity:1;marker:none;marker-start:none;marker-mid:none;marker-end:none;stop-color:#000000"
               d="m 1026.6359,36.018256 c -0.9427,6.271535 2.4068,17.580462 2.4068,17.580462 0,0 -9.7204,-6.680235 -15.9763,-7.721657 z"
               id="path1195" /><path
               style="color:#000000;font-style:normal;font-variant:normal;font-weight:normal;font-stretch:normal;font-size:medium;line-height:normal;font-family:sans-serif;font-variant-ligatures:normal;font-variant-position:normal;font-variant-caps:normal;font-variant-numeric:normal;font-variant-alternates:normal;font-variant-east-asian:normal;font-feature-settings:normal;font-variation-settings:normal;text-indent:0;text-align:start;text-decoration:none;text-decoration-line:none;text-decoration-style:solid;text-decoration-color:#000000;letter-spacing:normal;word-spacing:normal;text-transform:none;writing-mode:lr-tb;direction:ltr;text-orientation:mixed;dominant-baseline:auto;baseline-shift:baseline;text-anchor:start;white-space:normal;shape-padding:0;shape-margin:0;inline-size:0;clip-rule:nonzero;display:inline;overflow:visible;visibility:visible;isolation:auto;mix-blend-mode:normal;color-interpolation:sRGB;color-interpolation-filters:linearRGB;solid-color:#000000;solid-opacity:1;vector-effect:none;fill:#855f2d;fill-opacity:1;fill-rule:evenodd;stroke:none;stroke-width:2;stroke-linecap:butt;stroke-linejoin:miter;stroke-miterlimit:4;stroke-dasharray:none;stroke-dashoffset:0;stroke-opacity:1;marker:none;color-rendering:auto;image-rendering:auto;shape-rendering:auto;text-rendering:auto;enable-background:accumulate;stop-color:#000000"
               d="m 1048.7535,59.81476 c 3.8132,-2.063055 4.0613,-4.108875 4.9447,-6.674602 0.089,2.828858 -0.2148,5.066606 -4.239,7.631886 -4.0242,2.565226 -8.2383,2.525233 -11.5971,4.965541 -3.3588,2.440308 -4.623,6.460547 -8.3062,9.495034 -3.6833,3.034545 -5.9053,2.631627 -8.5683,1.673219 2.7131,-0.04733 4.7355,0.348928 7.8759,-2.640142 3.1405,-2.989071 4.2754,-7.488501 7.8611,-10.093682 3.5858,-2.605182 8.2157,-2.294192 12.0289,-4.357254 z"
               id="path1197" /><path
               id="path1205"
               d="m 1014.711,45.877088 c -6.2559,1.041422 -15.9763,7.721657 -15.9763,7.721657 0,0 3.3495,-11.308927 2.4068,-17.580462 z"
               style="font-variation-settings:normal;vector-effect:none;fill:none;fill-opacity:1;fill-rule:evenodd;stroke:#855f2d;stroke-width:2;stroke-linecap:butt;stroke-linejoin:miter;stroke-miterlimit:4;stroke-dasharray:none;stroke-dashoffset:0;stroke-opacity:1;marker:none;marker-start:none;marker-mid:none;marker-end:none;stop-color:#000000" /><path
               id="path1207"
               d="m 998.91388,74.265723 c 3.14042,2.989065 5.16282,2.592805 7.87592,2.640137 -2.663,0.958407 -4.885,1.361325 -8.5683,-1.673214 -3.6832,-3.034486 -4.9474,-7.054725 -8.3062,-9.495034 -3.35879,-2.440308 -7.57293,-2.400315 -11.59707,-4.965541 -4.02422,-2.565286 -4.32766,-4.803034 -4.23908,-7.631892 0.88342,2.565727 1.1315,4.611547 4.94472,6.674608 3.81323,2.063062 8.44316,1.752072 12.02889,4.357254 3.58572,2.605182 4.72068,7.104611 7.86112,10.093682 z"
               style="color:#000000;font-style:normal;font-variant:normal;font-weight:normal;font-stretch:normal;font-size:medium;line-height:normal;font-family:sans-serif;font-variant-ligatures:normal;font-variant-position:normal;font-variant-caps:normal;font-variant-numeric:normal;font-variant-alternates:normal;font-variant-east-asian:normal;font-feature-settings:normal;font-variation-settings:normal;text-indent:0;text-align:start;text-decoration:none;text-decoration-line:none;text-decoration-style:solid;text-decoration-color:#000000;letter-spacing:normal;word-spacing:normal;text-transform:none;writing-mode:lr-tb;direction:ltr;text-orientation:mixed;dominant-baseline:auto;baseline-shift:baseline;text-anchor:start;white-space:normal;shape-padding:0;shape-margin:0;inline-size:0;clip-rule:nonzero;display:inline;overflow:visible;visibility:visible;isolation:auto;mix-blend-mode:normal;color-interpolation:sRGB;color-interpolation-filters:linearRGB;solid-color:#000000;solid-opacity:1;vector-effect:none;fill:#855f2d;fill-opacity:1;fill-rule:evenodd;stroke:none;stroke-width:2;stroke-linecap:butt;stroke-linejoin:miter;stroke-miterlimit:4;stroke-dasharray:none;stroke-dashoffset:0;stroke-opacity:1;marker:none;color-rendering:auto;image-rendering:auto;shape-rendering:auto;text-rendering:auto;enable-background:accumulate;stop-color:#000000" /><path
               style="font-variation-settings:normal;vector-effect:none;fill:none;fill-opacity:1;fill-rule:evenodd;stroke:#855f2d;stroke-width:2;stroke-linecap:butt;stroke-linejoin:miter;stroke-miterlimit:4;stroke-dasharray:none;stroke-dashoffset:0;stroke-opacity:1;marker:none;marker-start:none;marker-mid:none;marker-end:none;stop-color:#000000"
               d="m 1001.6497,37.582372 c -2.92367,-5.627901 -12.28071,-12.808215 -12.28071,-12.808215 0,0 11.79051,-0.309066 17.46371,-3.143666 z"
               id="path1215" /><path
               style="color:#000000;font-style:normal;font-variant:normal;font-weight:normal;font-stretch:normal;font-size:medium;line-height:normal;font-family:sans-serif;font-variant-ligatures:normal;font-variant-position:normal;font-variant-caps:normal;font-variant-numeric:normal;font-variant-alternates:normal;font-variant-east-asian:normal;font-feature-settings:normal;font-variation-settings:normal;text-indent:0;text-align:start;text-decoration:none;text-decoration-line:none;text-decoration-style:solid;text-decoration-color:#000000;letter-spacing:normal;word-spacing:normal;text-transform:none;writing-mode:lr-tb;direction:ltr;text-orientation:mixed;dominant-baseline:auto;baseline-shift:baseline;text-anchor:start;white-space:normal;shape-padding:0;shape-margin:0;inline-size:0;clip-rule:nonzero;display:inline;overflow:visible;visibility:visible;isolation:auto;mix-blend-mode:normal;color-interpolation:sRGB;color-interpolation-filters:linearRGB;solid-color:#000000;solid-opacity:1;vector-effect:none;fill:#855f2d;fill-opacity:1;fill-rule:evenodd;stroke:none;stroke-width:2;stroke-linecap:butt;stroke-linejoin:miter;stroke-miterlimit:4;stroke-dasharray:none;stroke-dashoffset:0;stroke-opacity:1;marker:none;color-rendering:auto;image-rendering:auto;shape-rendering:auto;text-rendering:auto;enable-background:accumulate;stop-color:#000000"
               d="m 969.76889,31.331009 c -1.87232,3.910399 -0.87052,5.711317 -0.0771,8.306296 -1.73442,-2.236529 -2.80425,-4.22526 -1.05643,-8.665988 1.74779,-4.440642 5.18061,-6.885294 6.46355,-10.833795 1.28295,-3.948501 -0.0573,-7.944024 1.13882,-12.5639072 1.19618,-4.6199782 3.23064,-5.6000648 5.94842,-6.3899876 -2.16716,1.6330376 -4.03619,2.5011646 -4.81993,6.7652771 -0.78374,4.2641127 0.94276,8.5713397 -0.42687,12.7866127 -1.36962,4.215273 -5.29811,6.685084 -7.17044,10.595492 z"
               id="path1217" /></g><circle
             style="color:#000000;display:inline;overflow:visible;visibility:visible;fill:#bf9f4f;fill-opacity:1;fill-rule:evenodd;stroke:#855f2d;stroke-width:2;stroke-linecap:square;stroke-linejoin:miter;stroke-miterlimit:4;stroke-dasharray:none;stroke-dashoffset:0;stroke-opacity:1;marker:none;marker-start:none;marker-mid:none;marker-end:none;enable-background:accumulate"
             id="path1148"
             cx="1013.8887"
             cy="32.741035"
             r="16.663578" /><path
             style="color:#000000;fill:#855f2d;fill-rule:evenodd;-inkscape-stroke:none"
             d="m 231.90039,45.720703 c 3.37761,1.949892 4.10997,3.84783 4.18945,5.253906 0.0592,1.046386 -0.21727,1.683022 -0.39062,2.019532 -0.3737,0.06082 -1.06502,0.127486 -2.04102,-0.251954 -1.31216,-0.510128 -2.88847,-1.794499 -3.69922,-5.609375 -1.36903,-6.441993 -7.20308,-10.564162 -12.89062,-9.017578 4.89187,0.383138 9.91581,3.839245 11.09766,9.400391 0.89927,4.231426 2.94475,6.201395 4.82812,6.933594 1.88338,0.732198 3.56055,0.265625 3.56055,0.265625 l 0.32812,-0.0918 0.18946,-0.285156 c 0,0 0.96173,-1.448923 0.84765,-3.466797 -0.11407,-2.017874 -1.35501,-4.573448 -5.10156,-6.736328 -4.92386,-2.842546 -6.65616,-8.687013 -5.50977,-13.458984 -3.22966,4.930179 -1.11189,11.752188 4.5918,15.044924 z m 35.28125,-1.585937 c -3.7465,2.162881 -4.98747,4.71846 -5.10156,6.736328 -0.11409,2.017867 0.84765,3.466797 0.84765,3.466797 l 0.18946,0.285156 0.32812,0.0918 c 0,0 1.67716,0.46656 3.56055,-0.265625 1.88338,-0.732186 3.92887,-2.702116 4.82812,-6.933594 1.18184,-5.561139 6.20578,-9.017271 11.09766,-9.400391 -5.68755,-1.546607 -11.5216,2.57559 -12.89062,9.017578 -0.81074,3.814928 -2.38706,5.09926 -3.69922,5.609375 -0.976,0.37943 -1.66732,0.312779 -2.04102,0.251954 -0.17334,-0.33651 -0.44979,-0.973141 -0.39062,-2.019532 0.0795,-1.406083 0.81189,-3.304015 4.18945,-5.253906 5.7037,-3.292737 7.82144,-10.114748 4.59179,-15.044924 1.14638,4.771974 -0.58589,10.616439 -5.50976,13.458984 z m -47.85742,41.53125 c 4.30223,0.452324 6.80972,-0.886081 8.08789,-2.451172 1.27817,-1.565091 1.35156,-3.302735 1.35156,-3.302735 l 0.0137,-0.341797 -0.21289,-0.267578 c 0,0 -1.08108,-1.362301 -3.03515,-1.876953 -0.48852,-0.128663 -1.03033,-0.201031 -1.61914,-0.191406 h -3e-5 c -1.76645,0.02887 -3.95225,0.791813 -6.36329,2.962891 -4.2242,3.803772 -10.31923,3.646242 -14.50195,1.08203 3.69273,4.592585 10.83501,4.687706 15.72852,0.281251 2.89825,-2.609806 4.92763,-2.721845 6.28906,-2.363281 1.01319,0.266848 1.53447,0.727404 1.80078,0.996093 -0.0574,0.373722 -0.20812,1.05149 -0.87109,1.863282 -0.89047,1.090365 -2.59788,2.19295 -6.47657,1.785156 -6.54931,-0.688614 -12.2734,3.5871 -12.56055,9.472656 1.87663,-4.534501 6.71542,-8.242887 12.36915,-7.648437 z m 61.16018,-1.824219 c -3.8787,0.407825 -5.58609,-0.694786 -6.47656,-1.785156 -0.66296,-0.811795 -0.81371,-1.489555 -0.87109,-1.863282 0.26631,-0.268681 0.78758,-0.729252 1.80078,-0.996093 1.36143,-0.358554 3.3908,-0.246475 6.28906,2.363281 4.89346,4.40647 12.03579,4.311314 15.72851,-0.281251 -4.18271,2.564192 -10.27779,2.721739 -14.50195,-1.08203 -2.41104,-2.171036 -4.59684,-2.934014 -6.36328,-2.962891 h -3e-5 c -0.58881,-0.0096 -1.13062,0.06275 -1.61914,0.191406 -1.95407,0.514636 -3.03515,1.876953 -3.03515,1.876953 l -0.21289,0.267578 0.0137,0.341797 c 0,0 0.0734,1.737632 1.35156,3.302735 1.27816,1.565103 3.78564,2.90353 8.08789,2.451172 5.65378,-0.594446 10.49253,3.113921 12.36914,7.648437 -0.28713,-5.885567 -6.01119,-10.161263 -12.56055,-9.472656 z m -31.68362,21.277343 c -1.58649,-3.56288 -1.06445,-5.527156 -0.30273,-6.710937 0.56638,-0.880212 1.16372,-1.231815 1.50195,-1.402344 0.33823,0.170533 0.93558,0.522123 1.50195,1.402344 0.76171,1.183794 1.28372,3.148087 -0.30273,6.710937 -2.67852,6.01547 -0.3824,12.7786 5.12695,14.87109 -3.73053,-3.18608 -5.76343,-8.93208 -3.45117,-14.125 1.75967,-3.95187 1.26134,-6.749973 0.16797,-8.449214 -1.09337,-1.699241 -2.72266,-2.306641 -2.72266,-2.306641 L 250,94.990234 l -0.32031,0.119141 c 0,0 -1.62927,0.607403 -2.72266,2.306641 -1.09339,1.699237 -1.59174,4.497314 0.16797,8.449214 2.31226,5.19291 0.27936,10.93893 -3.45117,14.125 5.50936,-2.09248 7.80547,-8.85563 5.12695,-14.87109 z"
             id="path1211-5"
             transform="matrix(1.0914127,0,0,1.0914127,741.0355,-46.57784)" /></g></g><g
         id="g33358"><path
           id="path33222"
           style="font-variation-settings:normal;vector-effect:none;fill:#003166;fill-opacity:1;fill-rule:evenodd;stroke:none;stroke-width:2;stroke-linecap:butt;stroke-linejoin:miter;stroke-miterlimit:4;stroke-dasharray:none;stroke-dashoffset:0;stroke-opacity:1;marker:none;marker-start:none;marker-mid:none;marker-end:none;stop-color:#000000"
           d="m 791.68772,42.398376 -9.04357,10.486254 c 0,0 3.00946,3.130826 12.42673,3.891359 l 17.64401,17.109278 c 7.42391,5.393785 8.87385,13.61518 18.57312,14.138259 2.3203,0.125135 3.4873,-0.286579 5.262,-1.299764 2.8978,6.456787 7.1319,10.568278 7.1319,10.568278 0,0 5.1598,-4.804895 8.0575,-11.26162 1.7747,1.013189 3.8677,1.557146 6.188,1.432014 9.6992,-0.523115 10.1253,-6.879178 17.5493,-12.272962 8.959,-5.439079 17.2778,-6.695241 16.5238,-16.79389 5.9314,-0.641369 11.6651,-3.905147 11.6651,-3.905147 0,0 -1.8266,-6.216939 -8.3804,-10.780829 1.513,-1.374866 4.9217,-4.506483 5.5199,-6.752882 2.4998,-9.38617 -3.4147,-11.756521 -6.2504,-20.483848 -2.8357,-8.7273249 0.5568,-14.1196166 -6.9826,-20.2438325 -1.8037,-1.4651105 -3.8178,-2.2553847 -5.8491,-2.4787956 1.4508,-6.9268269 0.7725,-13.1946939 0.7725,-13.1946949 0,0 -5.798,1.103437 -12.3112,4.249264 -0.8402,-1.862961 -2.2141,-3.533504 -4.165,-4.796238 -8.1543,-5.277857 -12.2352,-0.385231 -21.4116,-0.385231 -5.7353,0 -9.4802,-1.910702 -13.4731,-2.055243 -2.3957,-0.08672 -4.88067,1.02237 -7.93855,3.001566 -1.95093,1.262743 -2.95074,2.185137 -3.79089,4.048116 -6.13917,-3.519888 -12.87237,-3.875203 -12.87237,-3.875203 l 0.95951,13.0076639 z" /><g
           id="g33264"
           style="fill:#003166;fill-opacity:1;stroke-width:2;stroke-miterlimit:4;stroke-dasharray:none"
           transform="translate(-171.28079)"><g
             style="stroke:none;stroke-width:2;stroke-miterlimit:4;stroke-dasharray:none"
             id="g33234"
             transform="rotate(-72,1013.8887,32.741095)"><path
               transform="rotate(72,1013.8887,32.741094)"
               id="path33224"
               d="m 1004.5023,75.522519 c 0.9604,10.359264 9.3864,19.637569 9.3864,19.637569 0,0 8.426,-9.278305 9.3864,-19.637569 0.9605,-10.359262 -1.7694,-21.609475 -9.3864,-21.609475 -7.617,0 -10.3468,11.250213 -9.3864,21.609475 z"
               style="font-variation-settings:normal;opacity:1;vector-effect:none;fill:#bf9f4f;fill-opacity:1;fill-rule:evenodd;stroke:none;stroke-width:2;stroke-linecap:butt;stroke-linejoin:miter;stroke-miterlimit:4;stroke-dasharray:none;stroke-dashoffset:0;stroke-opacity:1;marker:none;marker-start:none;marker-mid:none;marker-end:none;stop-color:#000000;stop-opacity:1" /><path
               transform="rotate(144,1013.8887,32.741059)"
               style="font-variation-settings:normal;opacity:1;vector-effect:none;fill:#bf9f4f;fill-opacity:1;fill-rule:evenodd;stroke:none;stroke-width:2;stroke-linecap:butt;stroke-linejoin:miter;stroke-miterlimit:4;stroke-dasharray:none;stroke-dashoffset:0;stroke-opacity:1;marker:none;marker-start:none;marker-mid:none;marker-end:none;stop-color:#000000;stop-opacity:1"
               d="m 1004.5023,75.522519 c 0.9604,10.359264 9.3864,19.637569 9.3864,19.637569 0,0 8.426,-9.278305 9.3864,-19.637569 0.9605,-10.359262 -1.7694,-21.609475 -9.3864,-21.609475 -7.617,0 -10.3468,11.250213 -9.3864,21.609475 z"
               id="path33226" /><path
               transform="rotate(-144,1013.8887,32.74104)"
               id="path33228"
               d="m 1004.5023,75.522519 c 0.9604,10.359264 9.3864,19.637569 9.3864,19.637569 0,0 8.426,-9.278305 9.3864,-19.637569 0.9605,-10.359262 -1.7694,-21.609475 -9.3864,-21.609475 -7.617,0 -10.3468,11.250213 -9.3864,21.609475 z"
               style="font-variation-settings:normal;opacity:1;vector-effect:none;fill:#bf9f4f;fill-opacity:1;fill-rule:evenodd;stroke:none;stroke-width:2;stroke-linecap:butt;stroke-linejoin:miter;stroke-miterlimit:4;stroke-dasharray:none;stroke-dashoffset:0;stroke-opacity:1;marker:none;marker-start:none;marker-mid:none;marker-end:none;stop-color:#000000;stop-opacity:1" /><path
               transform="rotate(-72,1013.8887,32.741057)"
               style="font-variation-settings:normal;opacity:1;vector-effect:none;fill:#bf9f4f;fill-opacity:1;fill-rule:evenodd;stroke:none;stroke-width:2;stroke-linecap:butt;stroke-linejoin:miter;stroke-miterlimit:4;stroke-dasharray:none;stroke-dashoffset:0;stroke-opacity:1;marker:none;marker-start:none;marker-mid:none;marker-end:none;stop-color:#000000;stop-opacity:1"
               d="m 1004.5023,75.522519 c 0.9604,10.359264 9.3864,19.637569 9.3864,19.637569 0,0 8.426,-9.278305 9.3864,-19.637569 0.9605,-10.359262 -1.7694,-21.609475 -9.3864,-21.609475 -7.617,0 -10.3468,11.250213 -9.3864,21.609475 z"
               id="path33230" /><path
               id="path33232"
               d="m 1004.5023,75.522519 c 0.9604,10.359264 9.3864,19.637569 9.3864,19.637569 0,0 8.426,-9.278305 9.3864,-19.637569 0.9605,-10.359262 -1.7694,-21.609475 -9.3864,-21.609475 -7.617,0 -10.3468,11.250213 -9.3864,21.609475 z"
               style="font-variation-settings:normal;opacity:1;vector-effect:none;fill:#bf9f4f;fill-opacity:1;fill-rule:evenodd;stroke:none;stroke-width:2;stroke-linecap:butt;stroke-linejoin:miter;stroke-miterlimit:4;stroke-dasharray:none;stroke-dashoffset:0;stroke-opacity:1;marker:none;marker-start:none;marker-mid:none;marker-end:none;stop-color:#000000;stop-opacity:1" /></g><g
             style="stroke-width:2;stroke-miterlimit:4;stroke-dasharray:none"
             id="g33258"><path
               style="font-variation-settings:normal;vector-effect:none;fill:#bf9f4f;fill-opacity:1;fill-rule:evenodd;stroke:none;stroke-width:2;stroke-linecap:butt;stroke-linejoin:miter;stroke-miterlimit:4;stroke-dasharray:none;stroke-dashoffset:0;stroke-opacity:1;marker:none;marker-start:none;marker-mid:none;marker-end:none;stop-color:#000000"
               d="m 991.03678,5.0719381 c -1.86631,-8.7819401 -11.87995,-13.2334994 -18.75299,-7.6505387 -7.3009,5.9305625 -4.01705,11.152717 -6.76304,19.6039956 -2.74599,8.451278 -8.47218,10.745894 -6.05151,19.83512 2.27883,8.556606 12.99657,10.841135 19.66834,4.833395 6.67178,-6.007769 10.57328,-1.096989 10.57328,-1.096989 0,0 -0.26994,6.266082 -9.1987,5.327338 -8.92884,-0.938803 -16.25691,7.209125 -13.07109,15.471013 3.3842,8.776206 9.36553,7.266818 16.55461,12.489995 7.18909,5.223178 7.60191,11.378185 16.99432,11.884719 8.842,0.476845 14.3267,-9.010382 10.6747,-17.212104 -3.6521,-8.20174 2.224,-10.394763 2.224,-10.394763 0,0 5.876,2.193055 2.224,10.394724 -3.652,8.201728 1.8327,17.688984 10.6747,17.212151 9.3924,-0.506569 9.8052,-6.661577 16.9943,-11.884754 7.1891,-5.223177 13.1704,-3.713789 16.5546,-12.48996 3.1858,-8.261899 -4.1422,-16.409857 -13.0711,-15.47106 -8.9288,0.938814 -9.1987,-5.327326 -9.1987,-5.327326 0,0 3.9015,-4.910698 10.5733,1.096956 6.6717,6.00775 17.3895,3.723268 19.6683,-4.833319 2.4207,-9.089283 -3.3055,-11.383899 -6.0515,-19.835177 -2.746,-8.4512784 0.5379,-13.6734329 -6.763,-19.6039383 -6.8731,-5.5829797 -16.8867,-1.131468 -18.753,7.6504626 -1.8663,8.7819587 -7.9092,7.1022867 -7.9092,7.1022867 0,0 -3.4647,-5.2280413 4.3106,-9.7167759 7.7754,-4.4887347 8.9147,-15.3878781 1.4811,-20.1993061 -7.8964,-5.110917 -11.8482,-0.37406 -20.7344,-0.37406 -8.8862,0 -12.838,-4.736857 -20.73434,0.37406 -7.43362,4.811428 -6.29437,15.7105714 1.48102,20.1993061 7.77542,4.4887346 4.31058,9.7167909 4.31058,9.7167909 0,0 -6.04284,1.679603 -7.90918,-7.1022419 z"
               id="path33236" /><path
               style="font-variation-settings:normal;vector-effect:none;fill:none;fill-opacity:1;fill-rule:evenodd;stroke:#855f2d;stroke-width:2;stroke-linecap:butt;stroke-linejoin:miter;stroke-miterlimit:4;stroke-dasharray:none;stroke-dashoffset:0;stroke-opacity:1;marker:none;marker-start:none;marker-mid:none;marker-end:none;stop-color:#000000"
               d="m 1005.5023,22.597113 c 4.449,-4.519656 8.3864,-15.6375692 8.3864,-15.6375692 0,0 3.9374,11.1179132 8.3864,15.6375692 z"
               id="path33238" /><path
               style="color:#000000;font-style:normal;font-variant:normal;font-weight:normal;font-stretch:normal;font-size:medium;line-height:normal;font-family:sans-serif;font-variant-ligatures:normal;font-variant-position:normal;font-variant-caps:normal;font-variant-numeric:normal;font-variant-alternates:normal;font-variant-east-asian:normal;font-feature-settings:normal;font-variation-settings:normal;text-indent:0;text-align:start;text-decoration:none;text-decoration-line:none;text-decoration-style:solid;text-decoration-color:#000000;letter-spacing:normal;word-spacing:normal;text-transform:none;writing-mode:lr-tb;direction:ltr;text-orientation:mixed;dominant-baseline:auto;baseline-shift:baseline;text-anchor:start;white-space:normal;shape-padding:0;shape-margin:0;inline-size:0;clip-rule:nonzero;display:inline;overflow:visible;visibility:visible;isolation:auto;mix-blend-mode:normal;color-interpolation:sRGB;color-interpolation-filters:linearRGB;solid-color:#000000;solid-opacity:1;vector-effect:none;fill:#855f2d;fill-opacity:1;fill-rule:evenodd;stroke:none;stroke-width:2;stroke-linecap:butt;stroke-linejoin:miter;stroke-miterlimit:4;stroke-dasharray:none;stroke-dashoffset:0;stroke-opacity:1;marker:none;color-rendering:auto;image-rendering:auto;shape-rendering:auto;text-rendering:auto;enable-background:accumulate;stop-color:#000000"
               d="m 1001.596,-9.6550768 c -4.29759,-0.5723052 -5.70079,0.9369826 -7.92359,2.4934368 1.5911,-2.3406585 3.1519,-3.97268 7.91539,-3.682662 4.7634,0.290019 8.1492,2.7993801 12.3009,2.7993801 4.1517,0 7.5375,-2.5093611 12.3009,-2.7993801 4.7635,-0.290018 6.3243,1.3420035 7.9154,3.682662 -2.2228,-1.5564542 -3.626,-3.065742 -7.9236,-2.4934368 -4.2976,0.5723051 -7.8605,3.545308 -12.2927,3.545308 -4.4322,0 -7.9951,-2.9730029 -12.2927,-3.545308 z"
               id="path33240" /><path
               id="path33242"
               d="m 1020.9446,21.63045 c 5.6733,2.8346 17.4638,3.143666 17.4638,3.143666 0,0 -9.3571,7.180314 -12.2807,12.808215 z"
               style="font-variation-settings:normal;vector-effect:none;fill:none;fill-opacity:1;fill-rule:evenodd;stroke:#855f2d;stroke-width:2;stroke-linecap:butt;stroke-linejoin:miter;stroke-miterlimit:4;stroke-dasharray:none;stroke-dashoffset:0;stroke-opacity:1;marker:none;marker-start:none;marker-mid:none;marker-end:none;stop-color:#000000" /><path
               id="path33244"
               d="m 1050.4111,7.9488635 c -0.7837,-4.264103 -2.6527,-5.1322299 -4.8199,-6.7652675 2.7178,0.7899227 4.7523,1.7700094 5.9484,6.3899781 1.1962,4.6198829 -0.1441,8.6154059 1.1389,12.5639069 1.2829,3.948502 4.7157,6.393153 6.4635,10.833795 1.7478,4.440737 0.678,6.429469 -1.0564,8.665998 0.7934,-2.594979 1.7952,-4.395897 -0.077,-8.306306 -1.8724,-3.910408 -5.8009,-6.380219 -7.1705,-10.595492 -1.3696,-4.215272 0.3569,-8.5225 -0.4269,-12.7866125 z"
               style="color:#000000;font-style:normal;font-variant:normal;font-weight:normal;font-stretch:normal;font-size:medium;line-height:normal;font-family:sans-serif;font-variant-ligatures:normal;font-variant-position:normal;font-variant-caps:normal;font-variant-numeric:normal;font-variant-alternates:normal;font-variant-east-asian:normal;font-feature-settings:normal;font-variation-settings:normal;text-indent:0;text-align:start;text-decoration:none;text-decoration-line:none;text-decoration-style:solid;text-decoration-color:#000000;letter-spacing:normal;word-spacing:normal;text-transform:none;writing-mode:lr-tb;direction:ltr;text-orientation:mixed;dominant-baseline:auto;baseline-shift:baseline;text-anchor:start;white-space:normal;shape-padding:0;shape-margin:0;inline-size:0;clip-rule:nonzero;display:inline;overflow:visible;visibility:visible;isolation:auto;mix-blend-mode:normal;color-interpolation:sRGB;color-interpolation-filters:linearRGB;solid-color:#000000;solid-opacity:1;vector-effect:none;fill:#855f2d;fill-opacity:1;fill-rule:evenodd;stroke:none;stroke-width:2;stroke-linecap:butt;stroke-linejoin:miter;stroke-miterlimit:4;stroke-dasharray:none;stroke-dashoffset:0;stroke-opacity:1;marker:none;color-rendering:auto;image-rendering:auto;shape-rendering:auto;text-rendering:auto;enable-background:accumulate;stop-color:#000000" /><path
               style="font-variation-settings:normal;vector-effect:none;fill:none;fill-opacity:1;fill-rule:evenodd;stroke:#855f2d;stroke-width:2;stroke-linecap:butt;stroke-linejoin:miter;stroke-miterlimit:4;stroke-dasharray:none;stroke-dashoffset:0;stroke-opacity:1;marker:none;marker-start:none;marker-mid:none;marker-end:none;stop-color:#000000"
               d="m 1026.6359,36.018256 c -0.9427,6.271535 2.4068,17.580462 2.4068,17.580462 0,0 -9.7204,-6.680235 -15.9763,-7.721657 z"
               id="path33246" /><path
               style="color:#000000;font-style:normal;font-variant:normal;font-weight:normal;font-stretch:normal;font-size:medium;line-height:normal;font-family:sans-serif;font-variant-ligatures:normal;font-variant-position:normal;font-variant-caps:normal;font-variant-numeric:normal;font-variant-alternates:normal;font-variant-east-asian:normal;font-feature-settings:normal;font-variation-settings:normal;text-indent:0;text-align:start;text-decoration:none;text-decoration-line:none;text-decoration-style:solid;text-decoration-color:#000000;letter-spacing:normal;word-spacing:normal;text-transform:none;writing-mode:lr-tb;direction:ltr;text-orientation:mixed;dominant-baseline:auto;baseline-shift:baseline;text-anchor:start;white-space:normal;shape-padding:0;shape-margin:0;inline-size:0;clip-rule:nonzero;display:inline;overflow:visible;visibility:visible;isolation:auto;mix-blend-mode:normal;color-interpolation:sRGB;color-interpolation-filters:linearRGB;solid-color:#000000;solid-opacity:1;vector-effect:none;fill:#855f2d;fill-opacity:1;fill-rule:evenodd;stroke:none;stroke-width:2;stroke-linecap:butt;stroke-linejoin:miter;stroke-miterlimit:4;stroke-dasharray:none;stroke-dashoffset:0;stroke-opacity:1;marker:none;color-rendering:auto;image-rendering:auto;shape-rendering:auto;text-rendering:auto;enable-background:accumulate;stop-color:#000000"
               d="m 1048.7535,59.81476 c 3.8132,-2.063055 4.0613,-4.108875 4.9447,-6.674602 0.089,2.828858 -0.2148,5.066606 -4.239,7.631886 -4.0242,2.565226 -8.2383,2.525233 -11.5971,4.965541 -3.3588,2.440308 -4.623,6.460547 -8.3062,9.495034 -3.6833,3.034545 -5.9053,2.631627 -8.5683,1.673219 2.7131,-0.04733 4.7355,0.348928 7.8759,-2.640142 3.1405,-2.989071 4.2754,-7.488501 7.8611,-10.093682 3.5858,-2.605182 8.2157,-2.294192 12.0289,-4.357254 z"
               id="path33248" /><path
               id="path33250"
               d="m 1014.711,45.877088 c -6.2559,1.041422 -15.9763,7.721657 -15.9763,7.721657 0,0 3.3495,-11.308927 2.4068,-17.580462 z"
               style="font-variation-settings:normal;vector-effect:none;fill:none;fill-opacity:1;fill-rule:evenodd;stroke:#855f2d;stroke-width:2;stroke-linecap:butt;stroke-linejoin:miter;stroke-miterlimit:4;stroke-dasharray:none;stroke-dashoffset:0;stroke-opacity:1;marker:none;marker-start:none;marker-mid:none;marker-end:none;stop-color:#000000" /><path
               id="path33252"
               d="m 998.91388,74.265723 c 3.14042,2.989065 5.16282,2.592805 7.87592,2.640137 -2.663,0.958407 -4.885,1.361325 -8.5683,-1.673214 -3.6832,-3.034486 -4.9474,-7.054725 -8.3062,-9.495034 -3.35879,-2.440308 -7.57293,-2.400315 -11.59707,-4.965541 -4.02422,-2.565286 -4.32766,-4.803034 -4.23908,-7.631892 0.88342,2.565727 1.1315,4.611547 4.94472,6.674608 3.81323,2.063062 8.44316,1.752072 12.02889,4.357254 3.58572,2.605182 4.72068,7.104611 7.86112,10.093682 z"
               style="color:#000000;font-style:normal;font-variant:normal;font-weight:normal;font-stretch:normal;font-size:medium;line-height:normal;font-family:sans-serif;font-variant-ligatures:normal;font-variant-position:normal;font-variant-caps:normal;font-variant-numeric:normal;font-variant-alternates:normal;font-variant-east-asian:normal;font-feature-settings:normal;font-variation-settings:normal;text-indent:0;text-align:start;text-decoration:none;text-decoration-line:none;text-decoration-style:solid;text-decoration-color:#000000;letter-spacing:normal;word-spacing:normal;text-transform:none;writing-mode:lr-tb;direction:ltr;text-orientation:mixed;dominant-baseline:auto;baseline-shift:baseline;text-anchor:start;white-space:normal;shape-padding:0;shape-margin:0;inline-size:0;clip-rule:nonzero;display:inline;overflow:visible;visibility:visible;isolation:auto;mix-blend-mode:normal;color-interpolation:sRGB;color-interpolation-filters:linearRGB;solid-color:#000000;solid-opacity:1;vector-effect:none;fill:#855f2d;fill-opacity:1;fill-rule:evenodd;stroke:none;stroke-width:2;stroke-linecap:butt;stroke-linejoin:miter;stroke-miterlimit:4;stroke-dasharray:none;stroke-dashoffset:0;stroke-opacity:1;marker:none;color-rendering:auto;image-rendering:auto;shape-rendering:auto;text-rendering:auto;enable-background:accumulate;stop-color:#000000" /><path
               style="font-variation-settings:normal;vector-effect:none;fill:none;fill-opacity:1;fill-rule:evenodd;stroke:#855f2d;stroke-width:2;stroke-linecap:butt;stroke-linejoin:miter;stroke-miterlimit:4;stroke-dasharray:none;stroke-dashoffset:0;stroke-opacity:1;marker:none;marker-start:none;marker-mid:none;marker-end:none;stop-color:#000000"
               d="m 1001.6497,37.582372 c -2.92367,-5.627901 -12.28071,-12.808215 -12.28071,-12.808215 0,0 11.79051,-0.309066 17.46371,-3.143666 z"
               id="path33254" /><path
               style="color:#000000;font-style:normal;font-variant:normal;font-weight:normal;font-stretch:normal;font-size:medium;line-height:normal;font-family:sans-serif;font-variant-ligatures:normal;font-variant-position:normal;font-variant-caps:normal;font-variant-numeric:normal;font-variant-alternates:normal;font-variant-east-asian:normal;font-feature-settings:normal;font-variation-settings:normal;text-indent:0;text-align:start;text-decoration:none;text-decoration-line:none;text-decoration-style:solid;text-decoration-color:#000000;letter-spacing:normal;word-spacing:normal;text-transform:none;writing-mode:lr-tb;direction:ltr;text-orientation:mixed;dominant-baseline:auto;baseline-shift:baseline;text-anchor:start;white-space:normal;shape-padding:0;shape-margin:0;inline-size:0;clip-rule:nonzero;display:inline;overflow:visible;visibility:visible;isolation:auto;mix-blend-mode:normal;color-interpolation:sRGB;color-interpolation-filters:linearRGB;solid-color:#000000;solid-opacity:1;vector-effect:none;fill:#855f2d;fill-opacity:1;fill-rule:evenodd;stroke:none;stroke-width:2;stroke-linecap:butt;stroke-linejoin:miter;stroke-miterlimit:4;stroke-dasharray:none;stroke-dashoffset:0;stroke-opacity:1;marker:none;color-rendering:auto;image-rendering:auto;shape-rendering:auto;text-rendering:auto;enable-background:accumulate;stop-color:#000000"
               d="m 969.76889,31.331009 c -1.87232,3.910399 -0.87052,5.711317 -0.0771,8.306296 -1.73442,-2.236529 -2.80425,-4.22526 -1.05643,-8.665988 1.74779,-4.440642 5.18061,-6.885294 6.46355,-10.833795 1.28295,-3.948501 -0.0573,-7.944024 1.13882,-12.5639072 1.19618,-4.6199782 3.23064,-5.6000648 5.94842,-6.3899876 -2.16716,1.6330376 -4.03619,2.5011646 -4.81993,6.7652771 -0.78374,4.2641127 0.94276,8.5713397 -0.42687,12.7866127 -1.36962,4.215273 -5.29811,6.685084 -7.17044,10.595492 z"
               id="path33256" /></g><circle
             style="color:#000000;display:inline;overflow:visible;visibility:visible;fill:#bf9f4f;fill-opacity:1;fill-rule:evenodd;stroke:#855f2d;stroke-width:2;stroke-linecap:square;stroke-linejoin:miter;stroke-miterlimit:4;stroke-dasharray:none;stroke-dashoffset:0;stroke-opacity:1;marker:none;marker-start:none;marker-mid:none;marker-end:none;enable-background:accumulate"
             id="circle33260"
             cx="1013.8887"
             cy="32.741035"
             r="16.663578" /><path
             style="color:#000000;fill:#855f2d;fill-rule:evenodd;-inkscape-stroke:none"
             d="m 231.90039,45.720703 c 3.37761,1.949892 4.10997,3.84783 4.18945,5.253906 0.0592,1.046386 -0.21727,1.683022 -0.39062,2.019532 -0.3737,0.06082 -1.06502,0.127486 -2.04102,-0.251954 -1.31216,-0.510128 -2.88847,-1.794499 -3.69922,-5.609375 -1.36903,-6.441993 -7.20308,-10.564162 -12.89062,-9.017578 4.89187,0.383138 9.91581,3.839245 11.09766,9.400391 0.89927,4.231426 2.94475,6.201395 4.82812,6.933594 1.88338,0.732198 3.56055,0.265625 3.56055,0.265625 l 0.32812,-0.0918 0.18946,-0.285156 c 0,0 0.96173,-1.448923 0.84765,-3.466797 -0.11407,-2.017874 -1.35501,-4.573448 -5.10156,-6.736328 -4.92386,-2.842546 -6.65616,-8.687013 -5.50977,-13.458984 -3.22966,4.930179 -1.11189,11.752188 4.5918,15.044924 z m 35.28125,-1.585937 c -3.7465,2.162881 -4.98747,4.71846 -5.10156,6.736328 -0.11409,2.017867 0.84765,3.466797 0.84765,3.466797 l 0.18946,0.285156 0.32812,0.0918 c 0,0 1.67716,0.46656 3.56055,-0.265625 1.88338,-0.732186 3.92887,-2.702116 4.82812,-6.933594 1.18184,-5.561139 6.20578,-9.017271 11.09766,-9.400391 -5.68755,-1.546607 -11.5216,2.57559 -12.89062,9.017578 -0.81074,3.814928 -2.38706,5.09926 -3.69922,5.609375 -0.976,0.37943 -1.66732,0.312779 -2.04102,0.251954 -0.17334,-0.33651 -0.44979,-0.973141 -0.39062,-2.019532 0.0795,-1.406083 0.81189,-3.304015 4.18945,-5.253906 5.7037,-3.292737 7.82144,-10.114748 4.59179,-15.044924 1.14638,4.771974 -0.58589,10.616439 -5.50976,13.458984 z m -47.85742,41.53125 c 4.30223,0.452324 6.80972,-0.886081 8.08789,-2.451172 1.27817,-1.565091 1.35156,-3.302735 1.35156,-3.302735 l 0.0137,-0.341797 -0.21289,-0.267578 c 0,0 -1.08108,-1.362301 -3.03515,-1.876953 -0.48852,-0.128663 -1.03033,-0.201031 -1.61914,-0.191406 h -3e-5 c -1.76645,0.02887 -3.95225,0.791813 -6.36329,2.962891 -4.2242,3.803772 -10.31923,3.646242 -14.50195,1.08203 3.69273,4.592585 10.83501,4.687706 15.72852,0.281251 2.89825,-2.609806 4.92763,-2.721845 6.28906,-2.363281 1.01319,0.266848 1.53447,0.727404 1.80078,0.996093 -0.0574,0.373722 -0.20812,1.05149 -0.87109,1.863282 -0.89047,1.090365 -2.59788,2.19295 -6.47657,1.785156 -6.54931,-0.688614 -12.2734,3.5871 -12.56055,9.472656 1.87663,-4.534501 6.71542,-8.242887 12.36915,-7.648437 z m 61.16018,-1.824219 c -3.8787,0.407825 -5.58609,-0.694786 -6.47656,-1.785156 -0.66296,-0.811795 -0.81371,-1.489555 -0.87109,-1.863282 0.26631,-0.268681 0.78758,-0.729252 1.80078,-0.996093 1.36143,-0.358554 3.3908,-0.246475 6.28906,2.363281 4.89346,4.40647 12.03579,4.311314 15.72851,-0.281251 -4.18271,2.564192 -10.27779,2.721739 -14.50195,-1.08203 -2.41104,-2.171036 -4.59684,-2.934014 -6.36328,-2.962891 h -3e-5 c -0.58881,-0.0096 -1.13062,0.06275 -1.61914,0.191406 -1.95407,0.514636 -3.03515,1.876953 -3.03515,1.876953 l -0.21289,0.267578 0.0137,0.341797 c 0,0 0.0734,1.737632 1.35156,3.302735 1.27816,1.565103 3.78564,2.90353 8.08789,2.451172 5.65378,-0.594446 10.49253,3.113921 12.36914,7.648437 -0.28713,-5.885567 -6.01119,-10.161263 -12.56055,-9.472656 z m -31.68362,21.277343 c -1.58649,-3.56288 -1.06445,-5.527156 -0.30273,-6.710937 0.56638,-0.880212 1.16372,-1.231815 1.50195,-1.402344 0.33823,0.170533 0.93558,0.522123 1.50195,1.402344 0.76171,1.183794 1.28372,3.148087 -0.30273,6.710937 -2.67852,6.01547 -0.3824,12.7786 5.12695,14.87109 -3.73053,-3.18608 -5.76343,-8.93208 -3.45117,-14.125 1.75967,-3.95187 1.26134,-6.749973 0.16797,-8.449214 -1.09337,-1.699241 -2.72266,-2.306641 -2.72266,-2.306641 L 250,94.990234 l -0.32031,0.119141 c 0,0 -1.62927,0.607403 -2.72266,2.306641 -1.09339,1.699237 -1.59174,4.497314 0.16797,8.449214 2.31226,5.19291 0.27936,10.93893 -3.45117,14.125 5.50936,-2.09248 7.80547,-8.85563 5.12695,-14.87109 z"
             id="path33262"
             transform="matrix(1.0914127,0,0,1.0914127,741.0355,-46.57784)" /></g></g><g
         id="g33404"><path
           id="path33268"
           style="font-variation-settings:normal;vector-effect:none;fill:#003166;fill-opacity:1;fill-rule:evenodd;stroke:none;stroke-width:2;stroke-linecap:butt;stroke-linejoin:miter;stroke-miterlimit:4;stroke-dasharray:none;stroke-dashoffset:0;stroke-opacity:1;marker:none;marker-start:none;marker-mid:none;marker-end:none;stop-color:#000000"
           d="m 1135.1324,42.398376 -9.0436,10.486254 c 0,0 3.0095,3.130826 12.4268,3.891359 l 17.644,17.109278 c 7.4239,5.393785 8.8738,13.61518 18.5731,14.138259 2.3203,0.125135 3.4873,-0.286579 5.262,-1.299764 2.8978,6.456787 7.1319,10.568278 7.1319,10.568278 0,0 5.1598,-4.804895 8.0575,-11.26162 1.7747,1.013189 3.8677,1.557146 6.188,1.432014 9.6992,-0.523115 10.1253,-6.879178 17.5493,-12.272962 8.959,-5.439079 17.2778,-6.695241 16.5238,-16.79389 5.9314,-0.641369 11.6651,-3.905147 11.6651,-3.905147 0,0 -1.8266,-6.216939 -8.3804,-10.780829 1.513,-1.374866 4.9217,-4.506483 5.5199,-6.752882 2.4998,-9.38617 -3.4147,-11.756521 -6.2504,-20.483848 -2.8357,-8.7273249 0.5568,-14.1196166 -6.9826,-20.2438325 -1.8037,-1.4651105 -3.8178,-2.2553847 -5.8491,-2.4787956 1.4508,-6.9268269 0.7725,-13.1946939 0.7725,-13.1946949 0,0 -5.798,1.103437 -12.3112,4.249264 -0.8402,-1.862961 -2.2141,-3.533504 -4.165,-4.796238 -8.1543,-5.277857 -12.2352,-0.385231 -21.4116,-0.385231 -5.7353,0 -9.4802,-1.910702 -13.4731,-2.055243 -2.3957,-0.08672 -4.8807,1.02237 -7.9385,3.001566 -1.951,1.262743 -2.9508,2.185137 -3.7909,4.048116 -6.1392,-3.519888 -12.8724,-3.875203 -12.8724,-3.875203 l 0.9595,13.0076639 z" /><g
           id="g33310"
           style="fill:#003166;fill-opacity:1;stroke-width:2;stroke-miterlimit:4;stroke-dasharray:none"
           transform="translate(172.1639)"><g
             style="stroke:none;stroke-width:2;stroke-miterlimit:4;stroke-dasharray:none"
             id="g33280"
             transform="rotate(-72,1013.8887,32.741095)"><path
               transform="rotate(72,1013.8887,32.741094)"
               id="path33270"
               d="m 1004.5023,75.522519 c 0.9604,10.359264 9.3864,19.637569 9.3864,19.637569 0,0 8.426,-9.278305 9.3864,-19.637569 0.9605,-10.359262 -1.7694,-21.609475 -9.3864,-21.609475 -7.617,0 -10.3468,11.250213 -9.3864,21.609475 z"
               style="font-variation-settings:normal;opacity:1;vector-effect:none;fill:#bf9f4f;fill-opacity:1;fill-rule:evenodd;stroke:none;stroke-width:2;stroke-linecap:butt;stroke-linejoin:miter;stroke-miterlimit:4;stroke-dasharray:none;stroke-dashoffset:0;stroke-opacity:1;marker:none;marker-start:none;marker-mid:none;marker-end:none;stop-color:#000000;stop-opacity:1" /><path
               transform="rotate(144,1013.8887,32.741059)"
               style="font-variation-settings:normal;opacity:1;vector-effect:none;fill:#bf9f4f;fill-opacity:1;fill-rule:evenodd;stroke:none;stroke-width:2;stroke-linecap:butt;stroke-linejoin:miter;stroke-miterlimit:4;stroke-dasharray:none;stroke-dashoffset:0;stroke-opacity:1;marker:none;marker-start:none;marker-mid:none;marker-end:none;stop-color:#000000;stop-opacity:1"
               d="m 1004.5023,75.522519 c 0.9604,10.359264 9.3864,19.637569 9.3864,19.637569 0,0 8.426,-9.278305 9.3864,-19.637569 0.9605,-10.359262 -1.7694,-21.609475 -9.3864,-21.609475 -7.617,0 -10.3468,11.250213 -9.3864,21.609475 z"
               id="path33272" /><path
               transform="rotate(-144,1013.8887,32.74104)"
               id="path33274"
               d="m 1004.5023,75.522519 c 0.9604,10.359264 9.3864,19.637569 9.3864,19.637569 0,0 8.426,-9.278305 9.3864,-19.637569 0.9605,-10.359262 -1.7694,-21.609475 -9.3864,-21.609475 -7.617,0 -10.3468,11.250213 -9.3864,21.609475 z"
               style="font-variation-settings:normal;opacity:1;vector-effect:none;fill:#bf9f4f;fill-opacity:1;fill-rule:evenodd;stroke:none;stroke-width:2;stroke-linecap:butt;stroke-linejoin:miter;stroke-miterlimit:4;stroke-dasharray:none;stroke-dashoffset:0;stroke-opacity:1;marker:none;marker-start:none;marker-mid:none;marker-end:none;stop-color:#000000;stop-opacity:1" /><path
               transform="rotate(-72,1013.8887,32.741057)"
               style="font-variation-settings:normal;opacity:1;vector-effect:none;fill:#bf9f4f;fill-opacity:1;fill-rule:evenodd;stroke:none;stroke-width:2;stroke-linecap:butt;stroke-linejoin:miter;stroke-miterlimit:4;stroke-dasharray:none;stroke-dashoffset:0;stroke-opacity:1;marker:none;marker-start:none;marker-mid:none;marker-end:none;stop-color:#000000;stop-opacity:1"
               d="m 1004.5023,75.522519 c 0.9604,10.359264 9.3864,19.637569 9.3864,19.637569 0,0 8.426,-9.278305 9.3864,-19.637569 0.9605,-10.359262 -1.7694,-21.609475 -9.3864,-21.609475 -7.617,0 -10.3468,11.250213 -9.3864,21.609475 z"
               id="path33276" /><path
               id="path33278"
               d="m 1004.5023,75.522519 c 0.9604,10.359264 9.3864,19.637569 9.3864,19.637569 0,0 8.426,-9.278305 9.3864,-19.637569 0.9605,-10.359262 -1.7694,-21.609475 -9.3864,-21.609475 -7.617,0 -10.3468,11.250213 -9.3864,21.609475 z"
               style="font-variation-settings:normal;opacity:1;vector-effect:none;fill:#bf9f4f;fill-opacity:1;fill-rule:evenodd;stroke:none;stroke-width:2;stroke-linecap:butt;stroke-linejoin:miter;stroke-miterlimit:4;stroke-dasharray:none;stroke-dashoffset:0;stroke-opacity:1;marker:none;marker-start:none;marker-mid:none;marker-end:none;stop-color:#000000;stop-opacity:1" /></g><g
             style="stroke-width:2;stroke-miterlimit:4;stroke-dasharray:none"
             id="g33304"><path
               style="font-variation-settings:normal;vector-effect:none;fill:#bf9f4f;fill-opacity:1;fill-rule:evenodd;stroke:none;stroke-width:2;stroke-linecap:butt;stroke-linejoin:miter;stroke-miterlimit:4;stroke-dasharray:none;stroke-dashoffset:0;stroke-opacity:1;marker:none;marker-start:none;marker-mid:none;marker-end:none;stop-color:#000000"
               d="m 991.03678,5.0719381 c -1.86631,-8.7819401 -11.87995,-13.2334994 -18.75299,-7.6505387 -7.3009,5.9305625 -4.01705,11.152717 -6.76304,19.6039956 -2.74599,8.451278 -8.47218,10.745894 -6.05151,19.83512 2.27883,8.556606 12.99657,10.841135 19.66834,4.833395 6.67178,-6.007769 10.57328,-1.096989 10.57328,-1.096989 0,0 -0.26994,6.266082 -9.1987,5.327338 -8.92884,-0.938803 -16.25691,7.209125 -13.07109,15.471013 3.3842,8.776206 9.36553,7.266818 16.55461,12.489995 7.18909,5.223178 7.60191,11.378185 16.99432,11.884719 8.842,0.476845 14.3267,-9.010382 10.6747,-17.212104 -3.6521,-8.20174 2.224,-10.394763 2.224,-10.394763 0,0 5.876,2.193055 2.224,10.394724 -3.652,8.201728 1.8327,17.688984 10.6747,17.212151 9.3924,-0.506569 9.8052,-6.661577 16.9943,-11.884754 7.1891,-5.223177 13.1704,-3.713789 16.5546,-12.48996 3.1858,-8.261899 -4.1422,-16.409857 -13.0711,-15.47106 -8.9288,0.938814 -9.1987,-5.327326 -9.1987,-5.327326 0,0 3.9015,-4.910698 10.5733,1.096956 6.6717,6.00775 17.3895,3.723268 19.6683,-4.833319 2.4207,-9.089283 -3.3055,-11.383899 -6.0515,-19.835177 -2.746,-8.4512784 0.5379,-13.6734329 -6.763,-19.6039383 -6.8731,-5.5829797 -16.8867,-1.131468 -18.753,7.6504626 -1.8663,8.7819587 -7.9092,7.1022867 -7.9092,7.1022867 0,0 -3.4647,-5.2280413 4.3106,-9.7167759 7.7754,-4.4887347 8.9147,-15.3878781 1.4811,-20.1993061 -7.8964,-5.110917 -11.8482,-0.37406 -20.7344,-0.37406 -8.8862,0 -12.838,-4.736857 -20.73434,0.37406 -7.43362,4.811428 -6.29437,15.7105714 1.48102,20.1993061 7.77542,4.4887346 4.31058,9.7167909 4.31058,9.7167909 0,0 -6.04284,1.679603 -7.90918,-7.1022419 z"
               id="path33282" /><path
               style="font-variation-settings:normal;vector-effect:none;fill:none;fill-opacity:1;fill-rule:evenodd;stroke:#855f2d;stroke-width:2;stroke-linecap:butt;stroke-linejoin:miter;stroke-miterlimit:4;stroke-dasharray:none;stroke-dashoffset:0;stroke-opacity:1;marker:none;marker-start:none;marker-mid:none;marker-end:none;stop-color:#000000"
               d="m 1005.5023,22.597113 c 4.449,-4.519656 8.3864,-15.6375692 8.3864,-15.6375692 0,0 3.9374,11.1179132 8.3864,15.6375692 z"
               id="path33284" /><path
               style="color:#000000;font-style:normal;font-variant:normal;font-weight:normal;font-stretch:normal;font-size:medium;line-height:normal;font-family:sans-serif;font-variant-ligatures:normal;font-variant-position:normal;font-variant-caps:normal;font-variant-numeric:normal;font-variant-alternates:normal;font-variant-east-asian:normal;font-feature-settings:normal;font-variation-settings:normal;text-indent:0;text-align:start;text-decoration:none;text-decoration-line:none;text-decoration-style:solid;text-decoration-color:#000000;letter-spacing:normal;word-spacing:normal;text-transform:none;writing-mode:lr-tb;direction:ltr;text-orientation:mixed;dominant-baseline:auto;baseline-shift:baseline;text-anchor:start;white-space:normal;shape-padding:0;shape-margin:0;inline-size:0;clip-rule:nonzero;display:inline;overflow:visible;visibility:visible;isolation:auto;mix-blend-mode:normal;color-interpolation:sRGB;color-interpolation-filters:linearRGB;solid-color:#000000;solid-opacity:1;vector-effect:none;fill:#855f2d;fill-opacity:1;fill-rule:evenodd;stroke:none;stroke-width:2;stroke-linecap:butt;stroke-linejoin:miter;stroke-miterlimit:4;stroke-dasharray:none;stroke-dashoffset:0;stroke-opacity:1;marker:none;color-rendering:auto;image-rendering:auto;shape-rendering:auto;text-rendering:auto;enable-background:accumulate;stop-color:#000000"
               d="m 1001.596,-9.6550768 c -4.29759,-0.5723052 -5.70079,0.9369826 -7.92359,2.4934368 1.5911,-2.3406585 3.1519,-3.97268 7.91539,-3.682662 4.7634,0.290019 8.1492,2.7993801 12.3009,2.7993801 4.1517,0 7.5375,-2.5093611 12.3009,-2.7993801 4.7635,-0.290018 6.3243,1.3420035 7.9154,3.682662 -2.2228,-1.5564542 -3.626,-3.065742 -7.9236,-2.4934368 -4.2976,0.5723051 -7.8605,3.545308 -12.2927,3.545308 -4.4322,0 -7.9951,-2.9730029 -12.2927,-3.545308 z"
               id="path33286" /><path
               id="path33288"
               d="m 1020.9446,21.63045 c 5.6733,2.8346 17.4638,3.143666 17.4638,3.143666 0,0 -9.3571,7.180314 -12.2807,12.808215 z"
               style="font-variation-settings:normal;vector-effect:none;fill:none;fill-opacity:1;fill-rule:evenodd;stroke:#855f2d;stroke-width:2;stroke-linecap:butt;stroke-linejoin:miter;stroke-miterlimit:4;stroke-dasharray:none;stroke-dashoffset:0;stroke-opacity:1;marker:none;marker-start:none;marker-mid:none;marker-end:none;stop-color:#000000" /><path
               id="path33290"
               d="m 1050.4111,7.9488635 c -0.7837,-4.264103 -2.6527,-5.1322299 -4.8199,-6.7652675 2.7178,0.7899227 4.7523,1.7700094 5.9484,6.3899781 1.1962,4.6198829 -0.1441,8.6154059 1.1389,12.5639069 1.2829,3.948502 4.7157,6.393153 6.4635,10.833795 1.7478,4.440737 0.678,6.429469 -1.0564,8.665998 0.7934,-2.594979 1.7952,-4.395897 -0.077,-8.306306 -1.8724,-3.910408 -5.8009,-6.380219 -7.1705,-10.595492 -1.3696,-4.215272 0.3569,-8.5225 -0.4269,-12.7866125 z"
               style="color:#000000;font-style:normal;font-variant:normal;font-weight:normal;font-stretch:normal;font-size:medium;line-height:normal;font-family:sans-serif;font-variant-ligatures:normal;font-variant-position:normal;font-variant-caps:normal;font-variant-numeric:normal;font-variant-alternates:normal;font-variant-east-asian:normal;font-feature-settings:normal;font-variation-settings:normal;text-indent:0;text-align:start;text-decoration:none;text-decoration-line:none;text-decoration-style:solid;text-decoration-color:#000000;letter-spacing:normal;word-spacing:normal;text-transform:none;writing-mode:lr-tb;direction:ltr;text-orientation:mixed;dominant-baseline:auto;baseline-shift:baseline;text-anchor:start;white-space:normal;shape-padding:0;shape-margin:0;inline-size:0;clip-rule:nonzero;display:inline;overflow:visible;visibility:visible;isolation:auto;mix-blend-mode:normal;color-interpolation:sRGB;color-interpolation-filters:linearRGB;solid-color:#000000;solid-opacity:1;vector-effect:none;fill:#855f2d;fill-opacity:1;fill-rule:evenodd;stroke:none;stroke-width:2;stroke-linecap:butt;stroke-linejoin:miter;stroke-miterlimit:4;stroke-dasharray:none;stroke-dashoffset:0;stroke-opacity:1;marker:none;color-rendering:auto;image-rendering:auto;shape-rendering:auto;text-rendering:auto;enable-background:accumulate;stop-color:#000000" /><path
               style="font-variation-settings:normal;vector-effect:none;fill:none;fill-opacity:1;fill-rule:evenodd;stroke:#855f2d;stroke-width:2;stroke-linecap:butt;stroke-linejoin:miter;stroke-miterlimit:4;stroke-dasharray:none;stroke-dashoffset:0;stroke-opacity:1;marker:none;marker-start:none;marker-mid:none;marker-end:none;stop-color:#000000"
               d="m 1026.6359,36.018256 c -0.9427,6.271535 2.4068,17.580462 2.4068,17.580462 0,0 -9.7204,-6.680235 -15.9763,-7.721657 z"
               id="path33292" /><path
               style="color:#000000;font-style:normal;font-variant:normal;font-weight:normal;font-stretch:normal;font-size:medium;line-height:normal;font-family:sans-serif;font-variant-ligatures:normal;font-variant-position:normal;font-variant-caps:normal;font-variant-numeric:normal;font-variant-alternates:normal;font-variant-east-asian:normal;font-feature-settings:normal;font-variation-settings:normal;text-indent:0;text-align:start;text-decoration:none;text-decoration-line:none;text-decoration-style:solid;text-decoration-color:#000000;letter-spacing:normal;word-spacing:normal;text-transform:none;writing-mode:lr-tb;direction:ltr;text-orientation:mixed;dominant-baseline:auto;baseline-shift:baseline;text-anchor:start;white-space:normal;shape-padding:0;shape-margin:0;inline-size:0;clip-rule:nonzero;display:inline;overflow:visible;visibility:visible;isolation:auto;mix-blend-mode:normal;color-interpolation:sRGB;color-interpolation-filters:linearRGB;solid-color:#000000;solid-opacity:1;vector-effect:none;fill:#855f2d;fill-opacity:1;fill-rule:evenodd;stroke:none;stroke-width:2;stroke-linecap:butt;stroke-linejoin:miter;stroke-miterlimit:4;stroke-dasharray:none;stroke-dashoffset:0;stroke-opacity:1;marker:none;color-rendering:auto;image-rendering:auto;shape-rendering:auto;text-rendering:auto;enable-background:accumulate;stop-color:#000000"
               d="m 1048.7535,59.81476 c 3.8132,-2.063055 4.0613,-4.108875 4.9447,-6.674602 0.089,2.828858 -0.2148,5.066606 -4.239,7.631886 -4.0242,2.565226 -8.2383,2.525233 -11.5971,4.965541 -3.3588,2.440308 -4.623,6.460547 -8.3062,9.495034 -3.6833,3.034545 -5.9053,2.631627 -8.5683,1.673219 2.7131,-0.04733 4.7355,0.348928 7.8759,-2.640142 3.1405,-2.989071 4.2754,-7.488501 7.8611,-10.093682 3.5858,-2.605182 8.2157,-2.294192 12.0289,-4.357254 z"
               id="path33294" /><path
               id="path33296"
               d="m 1014.711,45.877088 c -6.2559,1.041422 -15.9763,7.721657 -15.9763,7.721657 0,0 3.3495,-11.308927 2.4068,-17.580462 z"
               style="font-variation-settings:normal;vector-effect:none;fill:none;fill-opacity:1;fill-rule:evenodd;stroke:#855f2d;stroke-width:2;stroke-linecap:butt;stroke-linejoin:miter;stroke-miterlimit:4;stroke-dasharray:none;stroke-dashoffset:0;stroke-opacity:1;marker:none;marker-start:none;marker-mid:none;marker-end:none;stop-color:#000000" /><path
               id="path33298"
               d="m 998.91388,74.265723 c 3.14042,2.989065 5.16282,2.592805 7.87592,2.640137 -2.663,0.958407 -4.885,1.361325 -8.5683,-1.673214 -3.6832,-3.034486 -4.9474,-7.054725 -8.3062,-9.495034 -3.35879,-2.440308 -7.57293,-2.400315 -11.59707,-4.965541 -4.02422,-2.565286 -4.32766,-4.803034 -4.23908,-7.631892 0.88342,2.565727 1.1315,4.611547 4.94472,6.674608 3.81323,2.063062 8.44316,1.752072 12.02889,4.357254 3.58572,2.605182 4.72068,7.104611 7.86112,10.093682 z"
               style="color:#000000;font-style:normal;font-variant:normal;font-weight:normal;font-stretch:normal;font-size:medium;line-height:normal;font-family:sans-serif;font-variant-ligatures:normal;font-variant-position:normal;font-variant-caps:normal;font-variant-numeric:normal;font-variant-alternates:normal;font-variant-east-asian:normal;font-feature-settings:normal;font-variation-settings:normal;text-indent:0;text-align:start;text-decoration:none;text-decoration-line:none;text-decoration-style:solid;text-decoration-color:#000000;letter-spacing:normal;word-spacing:normal;text-transform:none;writing-mode:lr-tb;direction:ltr;text-orientation:mixed;dominant-baseline:auto;baseline-shift:baseline;text-anchor:start;white-space:normal;shape-padding:0;shape-margin:0;inline-size:0;clip-rule:nonzero;display:inline;overflow:visible;visibility:visible;isolation:auto;mix-blend-mode:normal;color-interpolation:sRGB;color-interpolation-filters:linearRGB;solid-color:#000000;solid-opacity:1;vector-effect:none;fill:#855f2d;fill-opacity:1;fill-rule:evenodd;stroke:none;stroke-width:2;stroke-linecap:butt;stroke-linejoin:miter;stroke-miterlimit:4;stroke-dasharray:none;stroke-dashoffset:0;stroke-opacity:1;marker:none;color-rendering:auto;image-rendering:auto;shape-rendering:auto;text-rendering:auto;enable-background:accumulate;stop-color:#000000" /><path
               style="font-variation-settings:normal;vector-effect:none;fill:none;fill-opacity:1;fill-rule:evenodd;stroke:#855f2d;stroke-width:2;stroke-linecap:butt;stroke-linejoin:miter;stroke-miterlimit:4;stroke-dasharray:none;stroke-dashoffset:0;stroke-opacity:1;marker:none;marker-start:none;marker-mid:none;marker-end:none;stop-color:#000000"
               d="m 1001.6497,37.582372 c -2.92367,-5.627901 -12.28071,-12.808215 -12.28071,-12.808215 0,0 11.79051,-0.309066 17.46371,-3.143666 z"
               id="path33300" /><path
               style="color:#000000;font-style:normal;font-variant:normal;font-weight:normal;font-stretch:normal;font-size:medium;line-height:normal;font-family:sans-serif;font-variant-ligatures:normal;font-variant-position:normal;font-variant-caps:normal;font-variant-numeric:normal;font-variant-alternates:normal;font-variant-east-asian:normal;font-feature-settings:normal;font-variation-settings:normal;text-indent:0;text-align:start;text-decoration:none;text-decoration-line:none;text-decoration-style:solid;text-decoration-color:#000000;letter-spacing:normal;word-spacing:normal;text-transform:none;writing-mode:lr-tb;direction:ltr;text-orientation:mixed;dominant-baseline:auto;baseline-shift:baseline;text-anchor:start;white-space:normal;shape-padding:0;shape-margin:0;inline-size:0;clip-rule:nonzero;display:inline;overflow:visible;visibility:visible;isolation:auto;mix-blend-mode:normal;color-interpolation:sRGB;color-interpolation-filters:linearRGB;solid-color:#000000;solid-opacity:1;vector-effect:none;fill:#855f2d;fill-opacity:1;fill-rule:evenodd;stroke:none;stroke-width:2;stroke-linecap:butt;stroke-linejoin:miter;stroke-miterlimit:4;stroke-dasharray:none;stroke-dashoffset:0;stroke-opacity:1;marker:none;color-rendering:auto;image-rendering:auto;shape-rendering:auto;text-rendering:auto;enable-background:accumulate;stop-color:#000000"
               d="m 969.76889,31.331009 c -1.87232,3.910399 -0.87052,5.711317 -0.0771,8.306296 -1.73442,-2.236529 -2.80425,-4.22526 -1.05643,-8.665988 1.74779,-4.440642 5.18061,-6.885294 6.46355,-10.833795 1.28295,-3.948501 -0.0573,-7.944024 1.13882,-12.5639072 1.19618,-4.6199782 3.23064,-5.6000648 5.94842,-6.3899876 -2.16716,1.6330376 -4.03619,2.5011646 -4.81993,6.7652771 -0.78374,4.2641127 0.94276,8.5713397 -0.42687,12.7866127 -1.36962,4.215273 -5.29811,6.685084 -7.17044,10.595492 z"
               id="path33302" /></g><circle
             style="color:#000000;display:inline;overflow:visible;visibility:visible;fill:#bf9f4f;fill-opacity:1;fill-rule:evenodd;stroke:#855f2d;stroke-width:2;stroke-linecap:square;stroke-linejoin:miter;stroke-miterlimit:4;stroke-dasharray:none;stroke-dashoffset:0;stroke-opacity:1;marker:none;marker-start:none;marker-mid:none;marker-end:none;enable-background:accumulate"
             id="circle33306"
             cx="1013.8887"
             cy="32.741035"
             r="16.663578" /><path
             style="color:#000000;fill:#855f2d;fill-rule:evenodd;-inkscape-stroke:none"
             d="m 231.90039,45.720703 c 3.37761,1.949892 4.10997,3.84783 4.18945,5.253906 0.0592,1.046386 -0.21727,1.683022 -0.39062,2.019532 -0.3737,0.06082 -1.06502,0.127486 -2.04102,-0.251954 -1.31216,-0.510128 -2.88847,-1.794499 -3.69922,-5.609375 -1.36903,-6.441993 -7.20308,-10.564162 -12.89062,-9.017578 4.89187,0.383138 9.91581,3.839245 11.09766,9.400391 0.89927,4.231426 2.94475,6.201395 4.82812,6.933594 1.88338,0.732198 3.56055,0.265625 3.56055,0.265625 l 0.32812,-0.0918 0.18946,-0.285156 c 0,0 0.96173,-1.448923 0.84765,-3.466797 -0.11407,-2.017874 -1.35501,-4.573448 -5.10156,-6.736328 -4.92386,-2.842546 -6.65616,-8.687013 -5.50977,-13.458984 -3.22966,4.930179 -1.11189,11.752188 4.5918,15.044924 z m 35.28125,-1.585937 c -3.7465,2.162881 -4.98747,4.71846 -5.10156,6.736328 -0.11409,2.017867 0.84765,3.466797 0.84765,3.466797 l 0.18946,0.285156 0.32812,0.0918 c 0,0 1.67716,0.46656 3.56055,-0.265625 1.88338,-0.732186 3.92887,-2.702116 4.82812,-6.933594 1.18184,-5.561139 6.20578,-9.017271 11.09766,-9.400391 -5.68755,-1.546607 -11.5216,2.57559 -12.89062,9.017578 -0.81074,3.814928 -2.38706,5.09926 -3.69922,5.609375 -0.976,0.37943 -1.66732,0.312779 -2.04102,0.251954 -0.17334,-0.33651 -0.44979,-0.973141 -0.39062,-2.019532 0.0795,-1.406083 0.81189,-3.304015 4.18945,-5.253906 5.7037,-3.292737 7.82144,-10.114748 4.59179,-15.044924 1.14638,4.771974 -0.58589,10.616439 -5.50976,13.458984 z m -47.85742,41.53125 c 4.30223,0.452324 6.80972,-0.886081 8.08789,-2.451172 1.27817,-1.565091 1.35156,-3.302735 1.35156,-3.302735 l 0.0137,-0.341797 -0.21289,-0.267578 c 0,0 -1.08108,-1.362301 -3.03515,-1.876953 -0.48852,-0.128663 -1.03033,-0.201031 -1.61914,-0.191406 h -3e-5 c -1.76645,0.02887 -3.95225,0.791813 -6.36329,2.962891 -4.2242,3.803772 -10.31923,3.646242 -14.50195,1.08203 3.69273,4.592585 10.83501,4.687706 15.72852,0.281251 2.89825,-2.609806 4.92763,-2.721845 6.28906,-2.363281 1.01319,0.266848 1.53447,0.727404 1.80078,0.996093 -0.0574,0.373722 -0.20812,1.05149 -0.87109,1.863282 -0.89047,1.090365 -2.59788,2.19295 -6.47657,1.785156 -6.54931,-0.688614 -12.2734,3.5871 -12.56055,9.472656 1.87663,-4.534501 6.71542,-8.242887 12.36915,-7.648437 z m 61.16018,-1.824219 c -3.8787,0.407825 -5.58609,-0.694786 -6.47656,-1.785156 -0.66296,-0.811795 -0.81371,-1.489555 -0.87109,-1.863282 0.26631,-0.268681 0.78758,-0.729252 1.80078,-0.996093 1.36143,-0.358554 3.3908,-0.246475 6.28906,2.363281 4.89346,4.40647 12.03579,4.311314 15.72851,-0.281251 -4.18271,2.564192 -10.27779,2.721739 -14.50195,-1.08203 -2.41104,-2.171036 -4.59684,-2.934014 -6.36328,-2.962891 h -3e-5 c -0.58881,-0.0096 -1.13062,0.06275 -1.61914,0.191406 -1.95407,0.514636 -3.03515,1.876953 -3.03515,1.876953 l -0.21289,0.267578 0.0137,0.341797 c 0,0 0.0734,1.737632 1.35156,3.302735 1.27816,1.565103 3.78564,2.90353 8.08789,2.451172 5.65378,-0.594446 10.49253,3.113921 12.36914,7.648437 -0.28713,-5.885567 -6.01119,-10.161263 -12.56055,-9.472656 z m -31.68362,21.277343 c -1.58649,-3.56288 -1.06445,-5.527156 -0.30273,-6.710937 0.56638,-0.880212 1.16372,-1.231815 1.50195,-1.402344 0.33823,0.170533 0.93558,0.522123 1.50195,1.402344 0.76171,1.183794 1.28372,3.148087 -0.30273,6.710937 -2.67852,6.01547 -0.3824,12.7786 5.12695,14.87109 -3.73053,-3.18608 -5.76343,-8.93208 -3.45117,-14.125 1.75967,-3.95187 1.26134,-6.749973 0.16797,-8.449214 -1.09337,-1.699241 -2.72266,-2.306641 -2.72266,-2.306641 L 250,94.990234 l -0.32031,0.119141 c 0,0 -1.62927,0.607403 -2.72266,2.306641 -1.09339,1.699237 -1.59174,4.497314 0.16797,8.449214 2.31226,5.19291 0.27936,10.93893 -3.45117,14.125 5.50936,-2.09248 7.80547,-8.85563 5.12695,-14.87109 z"
             id="path33308"
             transform="matrix(1.0914127,0,0,1.0914127,741.0355,-46.57784)" /></g></g><g
         id="g1488"><path
           style="font-variation-settings:normal;opacity:1;vector-effect:none;fill:#003166;fill-opacity:1;fill-rule:evenodd;stroke:none;stroke-width:0.999999;stroke-linecap:butt;stroke-linejoin:miter;stroke-miterlimit:4;stroke-dasharray:none;stroke-dashoffset:0;stroke-opacity:1;marker:none;marker-start:none;marker-mid:none;marker-end:none;stop-color:#000000;stop-opacity:1"
           d="m 937.72978,297.50554 c 12.69606,-18.51509 -68.24377,-137.52752 -62.68924,-148.37207 5.55453,-10.84455 7.98613,-29.09513 7.98613,-29.09513 h 6 c 0,0 3.74061,28.26901 27.30647,46.97207 23.56586,18.70306 90.45716,54.99951 121.07116,116.95647 30.614,61.95696 17.2068,123.44021 0.7481,158.60196 0,0 40.8974,-25.68554 42.3936,-74.3135 1.4963,-48.62796 -30.7771,-99.50042 -57.6054,-134.66204 -27.21272,-35.66551 -30.29282,-77.43665 -7.935,-101.29084 22.3577,-23.8542 40.3327,-22.14309 51.4018,-42.129549 0,0 20.8649,12.493919 -3.4537,33.071849 0,0 15.3411,-12.69606 41.7912,-9.52204 26.4502,3.17401 28.2679,-10.43612 29.8549,-18.371158 0,0 18.6052,18.178618 -4.9918,33.183218 31.1485,-12.2203 55.861,19.63078 72.1751,1.20194 7.2976,6.48819 6.3994,25.27165 -15.5718,24.19018 31.0557,6.91765 34.0622,34.64131 60.008,20.77503 0,0 8.2709,26.15125 -19.2748,21.01617 l -39.0872,12.31098 c -38.6172,-7.93503 -45.9616,6.44964 -45.6491,16.33491 0.3124,9.88527 7.5171,10.93188 9.677,22.81128 0,0 -1.7453,-11.65411 8.0902,-16.42686 9.8355,-4.77275 17.7903,-2.07231 19.4511,3.74061 0,0 -9.1512,-2.00645 -12.5177,6.97102 -3.3666,8.97747 5.4323,14.05855 8.2747,23.80378 2.8424,9.74523 0,21.69555 0,21.69555 0,0 0,-13.84026 10.0996,-16.45869 10.0997,-2.61843 13.2792,3.17952 13.2792,3.17952 0,0 -6.9201,2.43139 -10.2866,13.65323 -3.3666,11.22184 5.6109,22.81773 0.374,44.13922 0,0 -1.1221,-9.35153 8.6034,-12.71808 9.7256,-3.36655 12.7181,3.36656 12.7181,3.36656 0,0 -11.2219,2.61842 -10.8478,18.32899 0.3741,15.71057 4.4888,27.30647 -9.3515,46.75765 9.4038,-12.45316 18.2867,-13.646 24.9374,-3.24186 0,0 -10.0996,-3.74061 -12.7181,15.33651 -2.6184,19.07713 -16.0846,31.79521 -26.5583,36.28394 0,0 2.6034,-1.49624 11.9549,0.37406 9.3515,1.87031 9.3666,16.08463 9.3666,16.08463 0,0 -15.7106,-4.48873 -32.9174,11.5959 -17.2068,16.08463 -37.1488,34.58971 -70.8149,35.30935 -33.6264,0.71879 -57.2126,-13.35415 -60.8697,-10.61129 4.0295,5.21096 28.4604,11.7899 38.1542,26.29896 9.7404,14.57857 3.4574,31.22348 -22.2887,26.79893 -25.7461,-4.42456 -61.88265,-9.08972 -82.82622,-10.81608 -20.94357,-1.72635 -37.97601,2.87638 -30.55497,20.81826 l -10.53254,-3.85923 -1.01256,-20.47412 c 0,0 4.43785,-3.43301 12.96056,-8.46404 -6,0 -28.6927,-1.9828 -26.23187,22.65091 l -10.45483,-8.70119 2.83054,-15.80123 c 0,0 2.99304,-8.99304 20.18562,-8.72854 -14.31335,-0.19946 -40.19127,5.06192 -36.10234,22.91651 l -13.45242,-9.0234 9.53155,-19.18313 c 0,0 9.8961,-4.13024 37.40423,-2.80774 27.50813,1.32251 71.59229,8.08997 71.59229,8.08997 0,0 -64.29582,-24.94349 -96.03596,-56.15463 -31.74015,-31.21115 0.77659,-71.28697 17.70466,-92.97608 16.92808,-21.6891 -9.24526,-23.49263 -9.24526,-23.49263 -18.17206,-7.23024 -45.42791,-8.53764 -72.48183,9.38366 l 18.02796,-34.19527 z"
           id="path998" /><path
           id="path994"
           d="m 835.02215,388.57933 2.61842,-6.7331 c -7.85529,-0.74813 -8.22935,-10.09966 -8.22935,-10.09966 0,0 16.83276,-0.74812 21.32149,-16.08463 4.48874,-15.33651 3.77377,-52.62044 -1.49624,-68.07914 -5.27001,-15.4587 -13.93612,-19.04111 -19.07712,-19.45118 -5.141,-0.41007 -19.06561,0.37405 -24.67653,16.83275 -5.61092,16.4587 -10.09965,55.36106 -5.61091,70.69757 4.48873,15.33651 20.56185,15.71058 20.56185,15.71058 -1.12989,7.65796 1.39719,16.7146 14.58839,17.20681 z"
           style="font-variation-settings:normal;opacity:1;vector-effect:none;fill:#000000;fill-opacity:1;fill-rule:evenodd;stroke:none;stroke-width:0.999999;stroke-linecap:butt;stroke-linejoin:miter;stroke-miterlimit:4;stroke-dasharray:none;stroke-dashoffset:0;stroke-opacity:1;marker:none;marker-start:none;marker-mid:none;marker-end:none;stop-color:#000000;stop-opacity:1" /><path
           id="path928"
           d="m 906.96659,289.45311 c -4.48874,-7.10716 -10.47372,-19.07712 -31.04708,-25.81023 -20.57337,-6.7331 -36.94394,-1.39105 -36.94394,-1.39105 l -13.92839,-7.96048 c 0,0 -7.85529,-1.10889 -7.85529,-3.74061 0,-2.63172 1.59342,-43.756 14.28948,-62.27108 12.69606,-18.51509 32.00464,-28.30164 37.55917,-39.14619 5.55453,-10.84455 4.76103,-29.09513 4.76103,-29.09513 h 9.2251 c 0,0 1.49624,29.01713 25.0621,47.72019 23.56586,18.70306 92.70153,54.25139 123.31553,116.20835 30.614,61.95696 17.2068,123.44021 0.7481,158.60196 0,0 40.8974,-25.68554 42.3936,-74.3135 1.4963,-48.62796 -30.7771,-99.50042 -57.6054,-134.66204 -27.21272,-35.66551 -30.29282,-77.43665 -7.935,-101.29084 22.3577,-23.8542 46.3327,-22.14309 57.4018,-42.129549 0,0 10.0021,10.997679 -5.339,26.338749 0,0 15.3411,-12.69606 41.7912,-9.52204 26.4502,3.17401 30.1532,-3.70302 31.7402,-11.638058 0,0 11.109,14.812068 -6.8771,26.450118 31.1485,-12.2203 57.7463,26.36388 74.0604,7.93504 2.0607,2.74758 4.5141,18.53855 -17.4571,17.45708 31.0557,6.91765 35.9475,41.37441 61.8933,27.50813 0,0 0.7747,19.04409 -21.1601,14.28307 11.1762,10.09965 20.1688,28.97778 16.9281,53.95825 0,0 -21.5128,-26.97913 -60.13,-34.91417 -38.6172,-7.93503 -45.9616,6.44964 -45.6491,16.33491 0.3124,9.88527 7.5171,10.93188 9.677,22.81128 0,0 0.3707,-16.41513 10.2062,-21.18788 9.8355,-4.77275 17.7903,-2.07231 19.4511,3.74061 0,0 -10.0987,-0.62594 -13.8402,9.35153 -3.7416,9.97747 4.6388,16.43906 7.4812,26.18429 2.8424,9.74523 0,21.69555 0,21.69555 0,0 3.3666,-16.08463 13.4662,-18.70306 10.0997,-2.61843 13.8403,3.36655 13.8403,3.36655 0,0 -8.9775,1.49624 -12.344,12.71808 -3.3666,11.22184 3.7406,25.81022 -1.4963,47.13171 0,0 2.6185,-12.71808 12.344,-16.08463 9.7256,-3.36655 13.0922,4.48874 13.0922,4.48874 0,0 -13.0922,1.12218 -12.7181,16.83275 0.3741,15.71057 2.2444,31.04708 -11.5959,50.49826 9.4038,-12.45316 22.4014,-16.26443 29.0521,-5.86029 0,0 -14.2143,-1.12218 -16.8328,17.95494 -2.6184,19.07713 -16.0846,31.79521 -26.5583,36.28394 0,0 8.6034,-1.49624 17.9549,0.37406 9.3515,1.87031 8.9775,12.71808 8.9775,12.71808 0,0 -14.9625,-7.10716 -32.1693,8.97747 -17.2068,16.08463 -39.2758,35.81367 -72.9419,36.53331 -33.6264,0.71879 -55.4446,-12.59313 -59.1017,-9.85027 4.0295,5.21096 28.4604,15.7899 38.1542,30.29896 9.7404,14.57857 1.8703,24.31397 -22.8177,20.94742 -24.6881,-3.36655 -66.58288,-8.6034 -90.14873,-9.72559 -23.56586,-1.12218 -28.0546,10.09965 -28.0546,10.09965 l -12.19396,-8.85372 c 0,0 2.38051,-6.61253 12.96056,-8.46404 0,0 -12.16706,-3.70301 -23.54061,6.08353 l -10.31555,-7.93504 c 0,0 8.99304,-8.99304 26.18562,-8.72854 0,0 -23.80511,-6.08352 -37.29467,5.29003 l -8.72854,-10.58005 c 0,0 9.52204,-8.99304 37.03017,-7.67054 27.50813,1.32251 59.24827,8.46404 59.24827,8.46404 0,0 -51.57774,-20.45476 -83.31788,-51.6659 -31.74015,-31.21115 -34.38516,-73.53134 -17.45709,-95.22045 16.92808,-21.6891 49.35218,-22.52798 49.35218,-22.52798 -35.00482,-10.97085 -76.34482,-13.2429 -95.91752,10.66338 -6.43715,0.78886 -9.96089,-2.79241 -13.47643,-6.38598 0,0 6.34803,-14.01856 22.2181,-16.39908 0,0 -14.28307,-6.08352 -28.03713,8.99305 -6.74014,-0.50271 -7.1118,-5.25107 -9.78655,-8.46404 0,0 11.10906,-15.87008 35.97217,-13.22506 0,0 -15.60557,-7.40604 -31.74015,-1.32251 l -9.25754,-9.25754 c 0,0 16.13458,-11.10906 39.41068,-3.43852 0,0 -6.61253,-6.34803 -17.98608,-5.29002 -5.30907,-3.27514 -3.38003,-7.90743 -3.43852,-12.16706 0,0 9.63773,-5.23706 33.57765,6.35884 23.93992,11.5959 51.74513,6.73311 64.21384,5.23686 z"
           style="font-variation-settings:normal;opacity:1;vector-effect:none;fill:#bf9f4f;fill-opacity:1;fill-rule:evenodd;stroke:none;stroke-width:0.999999;stroke-linecap:butt;stroke-linejoin:miter;stroke-miterlimit:4;stroke-dasharray:none;stroke-dashoffset:0;stroke-opacity:1;marker:none;marker-start:none;marker-mid:none;marker-end:none;stop-color:#000000;stop-opacity:1" /><path
           transform="translate(0.24218472,2.4234645)"
           d="m 830.00391,246.86719 -5.19922,5 10.84765,8.97851 3.08008,-1.01758 c -3.70302,-7.40602 -8.72851,-12.96093 -8.72851,-12.96093 z m -21.07032,28.5664 c -7.54135,1.89073 -12.96996,7.24666 -10.7207,17.45703 3.03021,-1.07961 6.89704,-2.09381 11.49805,-2.5039 1.28446,-1.99666 2.66015,-2.78516 2.66015,-2.78516 z m -17.98632,20.89649 c -7.03235,4.85784 -7.19698,20.62535 5.02539,23.80469 -0.7935,-9.78655 4.23242,-14.54688 4.23242,-14.54688 z m 5.02539,23.80469 c -9.14836,10.94137 -2.90426,26.58481 10.64062,27.11914 -5.29002,-9.78655 -0.85351,-18.6543 -0.85351,-18.6543 z m 15.60546,15.86914 c -7.29682,15.70239 5.54721,27.68011 19.6211,23.98242 -10.31555,-7.67054 -6.14453,-17.59568 -6.14453,-17.59571 z m 64.53907,164.34375 c -11.27119,8.90816 -10.30869,27.92718 9.91992,28.20703 -8.80381,-9.34087 -1.19141,-17.62696 -1.19141,-17.62696 z m 19.83593,14.01953 c -9.94866,11.28867 -1.04908,26.0736 13.625,24.50195 -9.0683,-7.48937 -3.30859,-16.56836 -3.30859,-16.56836 z m 20.89649,10.31445 c -8.35485,14.90889 3.47103,28.03168 17.54492,24.33398 -9.52205,-6.08352 -5.35156,-15.48046 -5.35156,-15.48046 z"
           style="font-variation-settings:normal;opacity:1;vector-effect:none;fill:#e50000;fill-opacity:1;fill-rule:evenodd;stroke:none;stroke-width:0.999999;stroke-linecap:butt;stroke-linejoin:miter;stroke-miterlimit:4;stroke-dasharray:none;stroke-dashoffset:0;stroke-opacity:1;marker:none;marker-start:none;marker-mid:none;marker-end:none;stop-color:#000000;stop-opacity:1"
           id="path930" /><path
           transform="translate(0.24218472,2.4234645)"
           d="m 876.11719,500.34766 c -7.81337,6.17528 -9.74839,17.20836 -3.46094,23.49023 -2.28291,-7.19876 -0.71095,-15.08253 5.77148,-20.6875 z m 19.83593,14.01953 c -4.842,5.49419 -5.21866,11.8157 -2.63867,16.67773 0.004,-6.91023 1.70682,-12.04042 4.72266,-15.07422 z m 20.89649,10.31445 c -4.70456,8.39509 -3.01049,16.22452 1.88086,20.80274 -2.94815,-7.34267 -1.57042,-14.02608 2.13867,-17.88477 z"
           style="font-variation-settings:normal;opacity:1;vector-effect:none;fill:#ffffff;fill-opacity:1;fill-rule:evenodd;stroke:none;stroke-width:0.999999;stroke-linecap:butt;stroke-linejoin:miter;stroke-miterlimit:4;stroke-dasharray:none;stroke-dashoffset:0;stroke-opacity:1;marker:none;marker-start:none;marker-mid:none;marker-end:none;stop-color:#000000;stop-opacity:1"
           id="path962" /><path
           transform="translate(0.24218472,2.4234645)"
           d="m 808.93359,275.43359 c -7.54135,1.89073 -12.96996,7.24665 -10.7207,17.45703 1.1048,-6.30702 3.63528,-12.75318 11.78125,-13.70507 z m -17.98632,20.89649 c -5.49113,3.79319 -6.79436,14.23864 -1.28321,20.14844 -2.77384,-9.11348 1.09966,-15.68081 3.57422,-17.85743 z m 5.02539,23.80469 c -6.66618,7.97271 -5.1585,18.44139 1.39062,23.74218 -5.34032,-10.67871 -2.44625,-17.94921 0.43945,-22.1582 z m 15.60546,15.86914 c -3.92776,8.4523 -2.02088,15.82589 2.77344,20.25586 -3.56996,-8.81547 -2.57403,-14.86203 -0.59765,-19.22461 z"
           style="font-variation-settings:normal;opacity:1;vector-effect:none;fill:#ffffff;fill-opacity:1;fill-rule:evenodd;stroke:none;stroke-width:0.999999;stroke-linecap:butt;stroke-linejoin:miter;stroke-miterlimit:4;stroke-dasharray:none;stroke-dashoffset:0;stroke-opacity:1;marker:none;marker-start:none;marker-mid:none;marker-end:none;stop-color:#000000;stop-opacity:1"
           id="path971" /><path
           id="path986"
           d="m 846.55794,213.0546 c 0,0 -3.96751,-4.49652 -0.529,-14.28306 3.43852,-9.78655 16.39907,-12.16706 16.39907,-12.16706 0,0 5.81903,8.72854 2.64502,19.83759 -3.17402,11.10905 -16.66358,10.05105 -16.66358,10.05105 0,0 -2.11601,-0.7935 -1.85151,-3.43852 z"
           style="font-variation-settings:normal;opacity:1;vector-effect:none;fill:#000000;fill-opacity:1;fill-rule:evenodd;stroke:none;stroke-width:0.999999;stroke-linecap:butt;stroke-linejoin:miter;stroke-miterlimit:4;stroke-dasharray:none;stroke-dashoffset:0;stroke-opacity:1;marker:none;marker-start:none;marker-mid:none;marker-end:none;stop-color:#000000;stop-opacity:1" /><path
           id="path988"
           d="m 847.61594,199.82954 c 0,0 0.79351,-5.02552 6.34803,-5.81902 5.55453,-0.79351 6.87704,6.87703 4.76103,10.31554 0,0 -4.23204,-6.34804 -11.10906,-4.49652 z"
           style="font-variation-settings:normal;opacity:1;vector-effect:none;fill:#ffffff;fill-opacity:1;fill-rule:evenodd;stroke:none;stroke-width:0.999999;stroke-linecap:butt;stroke-linejoin:miter;stroke-miterlimit:4;stroke-dasharray:none;stroke-dashoffset:0;stroke-opacity:1;marker:none;marker-start:none;marker-mid:none;marker-end:none;stop-color:#000000;stop-opacity:1" /><path
           id="path990"
           d="m 921.21407,334.15079 c 0,0 18.34944,5.91788 26.81347,7.78269 0,0 -9.25753,-7.60636 -11.98002,-10.20599 -2.49421,-2.38165 -2.49652,-6.34803 3.17402,-6.34803 5.67053,0 20.92833,6.18278 29.88864,5.81903 0,0 -5.50914,-5.92859 -13.44418,-12.54112 15.49327,-4.89157 31.448,5.11698 45.4488,0.90307 -8.32435,9.05264 -20.74882,2.09842 -34.12063,3.17401 0,0 6.23847,6.03814 13.1155,12.12167 -11.74789,1.45854 -21.90752,1.21829 -36.12711,-3.12863 0,0 5.02461,4.22836 11.37355,14.01856 -15.13129,1.56189 -32.81109,-4.3848 -51.57773,-10.31554 L 909.8619,333.05 Z"
           style="font-variation-settings:normal;opacity:1;vector-effect:none;fill:#003166;fill-opacity:1;fill-rule:evenodd;stroke:none;stroke-width:0.999999;stroke-linecap:butt;stroke-linejoin:miter;stroke-miterlimit:4;stroke-dasharray:none;stroke-dashoffset:0;stroke-opacity:1;marker:none;marker-start:none;marker-mid:none;marker-end:none;stop-color:#000000;stop-opacity:1" /><path
           transform="translate(0.24218472,2.4234645)"
           d="m 1109.7148,235.16016 c -12.4872,6.62119 -7.9795,16.55205 -14.3261,25.28515 13.3389,-4.70073 9.6381,-18.1867 14.3261,-25.28515 z m 14.5879,12.34375 c -14.4872,7.68167 -13.7623,28.33443 -21.0605,38.37695 15.3389,-5.40555 15.6217,-30.14158 21.0605,-38.37695 z m 10.8125,15.21875 c -12.1713,10.30672 -13.2851,27.35281 -25.1386,43.35742 18.2421,-6.05204 20.172,-31.51669 25.1386,-43.35742 z m 8.1797,12.20507 c -8.9972,23.53179 -21.9941,44.24344 -33.8476,60.24805 18.2421,-6.05204 35.7581,-36.76926 33.8476,-60.24805 z m 11.0176,22.71094 c -14.8162,28.63477 -29.4183,47.48756 -45.8301,62.41211 18.9829,-3.0084 46.0174,-35.76079 45.8301,-62.41211 z m 8.0391,24.73047 c -17.634,28.29707 -34.2401,46.53028 -52.3887,60.5625 19.8167,-1.53637 50.3849,-33.07326 52.3887,-60.5625 z m 5.8945,25.31836 c -19.6996,26.89996 -36.5649,43.84002 -56.7695,56.47656 19.8761,-0.051 52.7168,-29.21397 56.7695,-56.47656 z m -264.26172,13.35156 c -16.62991,6.49418 -22.34059,51.57427 -7.78907,66.51172 -6.92972,-38.21522 7.78907,-66.51172 7.78907,-66.51172 z m 266.05272,17.875 c -27.2093,30.51414 -42.4892,39.88714 -66.1699,46.92383 19.5883,3.37059 54.8406,-12.30152 66.1699,-46.92383 z m -251.03319,6.6875 c -15.04825,9.60617 -11.8774,54.93565 5.30273,66.75586 -14.23382,-36.13616 -5.30273,-66.75586 -5.30273,-66.75586 z m 21.46679,15.66992 c -14.76195,10.04058 -10.27116,55.25769 7.2461,66.57227 -15.28074,-35.70606 -7.2461,-66.57227 -7.2461,-66.57227 z m 226.3418,7.26758 c -34.7031,29.52884 -52.5682,31.97284 -75.5117,35.23242 19.1745,7.01347 57.6868,-2.33066 75.5117,-35.23242 z m -201.2207,9.35938 c -15.51562,7.81446 -14.66131,48.71909 1.89062,60.27344 -12.37027,-33.2438 -1.89062,-60.27344 -1.89062,-60.27344 z m 21.10742,19.29492 c -15.15373,6.81565 -12.48565,39.57016 4.5625,48.24219 -13.83268,-26.20548 -4.5625,-48.24219 -4.5625,-48.24219 z m 162.97848,3.03516 c -36.8008,19.31597 -53.1149,22.06021 -81.0097,19.50976 17.3965,10.68701 56.997,9.18944 81.0097,-19.50976 z"
           style="color:#000000;font-style:normal;font-variant:normal;font-weight:normal;font-stretch:normal;font-size:medium;line-height:normal;font-family:sans-serif;font-variant-ligatures:normal;font-variant-position:normal;font-variant-caps:normal;font-variant-numeric:normal;font-variant-alternates:normal;font-variant-east-asian:normal;font-feature-settings:normal;font-variation-settings:normal;text-indent:0;text-align:start;text-decoration:none;text-decoration-line:none;text-decoration-style:solid;text-decoration-color:#000000;letter-spacing:normal;word-spacing:normal;text-transform:none;writing-mode:lr-tb;direction:ltr;text-orientation:mixed;dominant-baseline:auto;baseline-shift:baseline;text-anchor:start;white-space:normal;shape-padding:0;shape-margin:0;inline-size:0;clip-rule:nonzero;display:inline;overflow:visible;visibility:visible;isolation:auto;mix-blend-mode:normal;color-interpolation:sRGB;color-interpolation-filters:linearRGB;solid-color:#000000;solid-opacity:1;vector-effect:none;fill:#855f2d;fill-opacity:1;fill-rule:evenodd;stroke:none;stroke-width:5;stroke-linecap:butt;stroke-linejoin:miter;stroke-miterlimit:4;stroke-dasharray:none;stroke-dashoffset:0;stroke-opacity:1;marker:none;color-rendering:auto;image-rendering:auto;shape-rendering:auto;text-rendering:auto;enable-background:accumulate;stop-color:#000000"
           id="path1004" /></g></g></g></svg>
