<?xml version="1.0" encoding="UTF-8" standalone="no"?>
<svg
   xmlns:dc="http://purl.org/dc/elements/1.1/"
   xmlns:cc="http://creativecommons.org/ns#"
   xmlns:rdf="http://www.w3.org/1999/02/22-rdf-syntax-ns#"
   xmlns:svg="http://www.w3.org/2000/svg"
   xmlns="http://www.w3.org/2000/svg"
   xmlns:sodipodi="http://sodipodi.sourceforge.net/DTD/sodipodi-0.dtd"
   xmlns:inkscape="http://www.inkscape.org/namespaces/inkscape"
   xml:space="preserve"
   width="499.99994"
   height="564"
   shape-rendering="geometricPrecision"
   text-rendering="geometricPrecision"
   image-rendering="optimizeQuality"
   fill-rule="evenodd"
   clip-rule="evenodd"
   viewBox="0 0 499.99994 564"
   version="1.0"
   id="svg2"
   sodipodi:version="0.32"
   inkscape:version="1.0.2 (e86c870879, 2021-01-15, custom)"
   sodipodi:docname="svg.svg"
   inkscape:output_extension="org.inkscape.output.svg.inkscape"><metadata
   id="metadata16"><rdf:RDF><cc:Work
       rdf:about=""><dc:format>image/svg+xml</dc:format><dc:type
         rdf:resource="http://purl.org/dc/dcmitype/StillImage" /></cc:Work></rdf:RDF></metadata><defs
   id="defs14" /><sodipodi:namedview
   inkscape:window-height="1017"
   inkscape:window-width="1920"
   inkscape:pageshadow="2"
   inkscape:pageopacity="0.0"
   guidetolerance="10.0"
   gridtolerance="10.0"
   objecttolerance="10.0"
   borderopacity="1.0"
   bordercolor="#666666"
   pagecolor="#ffffff"
   id="base"
   showgrid="false"
   inkscape:zoom="0.4059754"
   inkscape:cx="116.17197"
   inkscape:cy="221.77044"
   inkscape:window-x="-8"
   inkscape:window-y="-4"
   inkscape:current-layer="svg2"
   inkscape:document-rotation="0"
   inkscape:snap-global="false"
   inkscape:snap-intersection-paths="false"
   inkscape:snap-smooth-nodes="true"
   inkscape:window-maximized="1" />
 
<path
   id="path853"
   style="opacity:1;fill:#000000;stroke:none;stroke-width:5;stroke-dashoffset:4.9;paint-order:fill markers stroke"
   d="M 499.99993,0 H 0 v 314 c 0,138.07117 111.92878,249.99997 249.99993,250 138.0712,0 250,-111.92881 250,-250 z"
   sodipodi:nodetypes="cccscc" /><g
   id="g1021"
   transform="translate(-807.75387,-25.83224)"><path
     fill="#CC9933"
     d="m 1047.47,118.00284 v 18.99449 c -22.9358,0 -55.23715,-2.65569 -87.66103,-9.17325 -32.42387,-6.51756 -45.2653,-10.11124 -65.62462,-18.56271 -20.35932,-8.45147 -35.13234,-15.947173 -35.75202,-16.522674 -0.61968,-0.575501 -0.69677,-1.910698 0.61966,-3.919496 1.31643,-2.008798 3.71689,-4.60976 5.75317,-6.701439 l 0.0976,-2.577754 -19.25812,-11.830716 -2.94354,0.244377 c -18.54483,40.439972 1.02662,73.206822 22.988,93.644782 21.96138,20.43795 48.20121,26.47727 69.9143,26.47727 h 280.5097 c 18.1906,0 30.4635,-1.09046 39.8604,-11.17451 9.3967,-10.08405 23.5149,-43.4208 30.8008,-64.491 l -1.8776,-3.34498 -16.6698,2.00385 -3.5313,10.82228 c -58.5969,14.88849 -133.3336,15.10597 -196.6576,15.10597 v -18.99449 h -10.284 z"
     id="path9"
     style="opacity:1;fill:#bf9f4f;fill-opacity:1;stroke-width:1"
     sodipodi:nodetypes="cczzzzzczzcccczzsccccc" /><path
     id="path897"
     style="opacity:1;fill:#bf9f4f;fill-opacity:1;stroke:none;stroke-width:5;stroke-dashoffset:4.9;paint-order:fill markers stroke"
     d="m 1029.1656,63.657161 c 0,0 -1.8303,1.030624 -3.5012,2.701366 -1.6706,1.670743 -2.7012,3.501002 -2.7012,3.501002 0,0 5.5709,6.615386 13.5333,15.376421 -2.3889,3.835306 -3.7733,8.360837 -3.7733,13.211928 0,4.851532 1.3841,9.378282 3.7733,13.213822 -7.9624,8.76103 -13.5333,15.37453 -13.5333,15.37453 0,0 1.0306,1.83215 2.7012,3.50289 1.6709,1.67074 3.5012,2.70136 3.5012,2.70136 0,0 6.6153,-5.5728 15.3763,-13.53517 3.8353,2.38882 8.361,3.7732 13.212,3.7732 4.8511,0 9.3766,-1.38438 13.2119,-3.7732 8.761,7.9624 15.3764,13.53517 15.3764,13.53517 0,0 1.8303,-1.03063 3.501,-2.70136 1.6707,-1.67074 2.7013,-3.50289 2.7013,-3.50289 0,0 -5.5708,-6.6135 -13.5333,-15.37453 2.3892,-3.83554 3.7733,-8.36229 3.7733,-13.213822 0,-4.851091 -1.3844,-9.376622 -3.7733,-13.211928 7.9625,-8.761036 13.5333,-15.376421 13.5333,-15.376421 0,0 -1.0305,-1.830259 -2.7013,-3.501002 -1.6706,-1.670742 -3.501,-2.701366 -3.501,-2.701366 0,0 -6.6158,5.571364 -15.3764,13.533294 -3.8352,-2.388763 -8.3609,-3.773214 -13.2119,-3.773216 -4.851,2e-6 -9.3768,1.384453 -13.212,3.773216 -8.7606,-7.961899 -15.3763,-13.533294 -15.3763,-13.533294 z" /><path
     style="font-variation-settings:normal;opacity:1;vector-effect:none;fill:#bf9f4f;fill-opacity:1;stroke:none;stroke-width:0.500001;stroke-linecap:butt;stroke-linejoin:miter;stroke-miterlimit:4;stroke-dasharray:none;stroke-dashoffset:0;stroke-opacity:1;stop-color:#000000;stop-opacity:1"
     d="m 959.80897,127.82408 c 0,0 2.22593,-9.74426 6.84444,-15.97925 4.61851,-6.23499 11.0702,-9.38333 12.15446,-7.93868 1.08427,1.44465 -3.61904,3.02078 -6.04168,10.2872 -2.42264,7.26641 -2.44933,13.2265 -2.28604,17.4719 z"
     id="path995"
     sodipodi:nodetypes="czzzcc" /><path
     style="font-variation-settings:normal;opacity:1;vector-effect:none;fill:#bf9f4f;fill-opacity:1;stroke:none;stroke-width:0.500001;stroke-linecap:butt;stroke-linejoin:miter;stroke-miterlimit:4;stroke-dasharray:none;stroke-dashoffset:0;stroke-opacity:1;stop-color:#000000"
     d="m 1165.7527,138.46479 c 0,0 -0.6529,-9.86358 1.0848,-17.38069 1.7377,-7.51711 6.1774,-12.40607 7.3463,-11.70852 1.169,0.69754 -1.4203,5.31806 -0.9689,12.96137 0.4514,7.64331 1.968,15.42573 1.968,15.42573 z"
     id="path995-5"
     sodipodi:nodetypes="czzzcc" /></g><g
   id="g1031"
   transform="translate(-807.75387,122.88366)"
   style="opacity:1"><path
     fill="#CC9933"
     d="m 1047.47,120.69156 v 18.26567 c -22.9358,0 -55.23715,-0.55379 -87.66103,-6.82127 -32.42387,-6.26748 -45.2653,-9.72327 -65.62462,-17.85045 -20.35932,-8.12719 -35.13234,-17.335277 -35.75202,-17.888696 -0.61968,-0.553419 -0.69677,-1.837384 0.61966,-3.769103 1.31643,-1.93172 3.71689,-4.432882 5.75317,-6.444302 l 0.0976,-2.478845 -19.25812,-11.376767 -2.94354,0.235 c -18.54483,38.888273 1.02662,70.397853 22.988,90.051593 21.96138,19.65374 48.20121,25.46133 69.9143,25.46133 h 280.5097 c 16.1906,0 30.352,-1.31055 39.8604,-11.12278 9.5083,-9.81223 23.5149,-43.37769 30.8008,-63.63942 l -1.8776,-3.21663 -16.6698,1.92696 -3.5313,10.40703 c -58.5969,14.31721 -133.3336,16.52635 -196.6576,16.52635 v -18.26567 h -10.284 z"
     id="path1023"
     style="opacity:1;fill:#bf9f4f;fill-opacity:1;stroke-width:1"
     sodipodi:nodetypes="cczzzzzczzcccczzsccccc" /><path
     id="path1025"
     style="opacity:1;fill:#bf9f4f;fill-opacity:1;stroke:none;stroke-width:5;stroke-dashoffset:4.9;paint-order:fill markers stroke"
     d="m 1029.1656,63.657173 c 0,0 -1.8303,1.030624 -3.5012,2.701366 -1.6706,1.670743 -2.7012,3.501002 -2.7012,3.501002 0,0 5.5709,6.615386 13.5333,15.376421 -2.3889,3.835306 -3.7733,8.360837 -3.7733,13.211928 0,4.85153 1.3841,9.37828 3.7733,13.21382 -7.9624,8.76103 -13.5333,15.37453 -13.5333,15.37453 0,0 1.0306,1.83215 2.7012,3.50289 1.6709,1.67074 3.5012,2.70136 3.5012,2.70136 0,0 6.6153,-5.5728 15.3763,-13.53517 3.8353,2.38882 8.361,3.7732 13.212,3.7732 4.8511,0 9.3766,-1.38438 13.2119,-3.7732 8.761,7.9624 15.3764,13.53517 15.3764,13.53517 0,0 1.8303,-1.03063 3.501,-2.70136 1.6707,-1.67074 2.7013,-3.50289 2.7013,-3.50289 0,0 -5.5708,-6.6135 -13.5333,-15.37453 2.3892,-3.83554 3.7733,-8.36229 3.7733,-13.21382 0,-4.851091 -1.3844,-9.376622 -3.7733,-13.211928 7.9625,-8.761036 13.5333,-15.376421 13.5333,-15.376421 0,0 -1.0305,-1.830259 -2.7013,-3.501002 -1.6706,-1.670742 -3.501,-2.701366 -3.501,-2.701366 0,0 -6.6158,5.571364 -15.3764,13.533294 -3.8352,-2.388763 -8.3609,-3.773214 -13.2119,-3.773216 -4.851,2e-6 -9.3768,1.384453 -13.212,3.773216 -8.7606,-7.961899 -15.3763,-13.533294 -15.3763,-13.533294 z" /><path
     style="font-variation-settings:normal;opacity:1;vector-effect:none;fill:#bf9f4f;fill-opacity:1;stroke:none;stroke-width:0.500001;stroke-linecap:butt;stroke-linejoin:miter;stroke-miterlimit:4;stroke-dasharray:none;stroke-dashoffset:0;stroke-opacity:1;stop-color:#000000;stop-opacity:1"
     d="m 959.67192,134.65425 c 0,0 0.88354,-9.95615 4.6136,-16.76 3.73004,-6.80387 9.69502,-10.79827 10.96523,-9.51405 1.27022,1.28421 -3.17583,3.48378 -4.59038,11.01166 -1.41456,7.52788 -0.63253,13.4365 0.10514,17.62051 z"
     id="path1027"
     sodipodi:nodetypes="czzzcc" /><path
     style="font-variation-settings:normal;opacity:1;vector-effect:none;fill:#bf9f4f;fill-opacity:1;stroke:none;stroke-width:0.500001;stroke-linecap:butt;stroke-linejoin:miter;stroke-miterlimit:4;stroke-dasharray:none;stroke-dashoffset:0;stroke-opacity:1;stop-color:#000000"
     d="m 1163.8279,138.96112 c 0,0 -0.2588,-9.88177 1.7775,-17.32356 2.0363,-7.44178 6.6675,-12.14969 7.8076,-11.40606 1.1403,0.74363 -1.6313,5.25715 -1.4853,12.91239 0.1461,7.65523 1.3509,15.49197 1.3509,15.49197 z"
     id="path1029"
     sodipodi:nodetypes="czzzcc" /></g><g
   id="g1041"
   transform="translate(-807.75387,271.59959)"
   style="opacity:1"><path
     style="opacity:1;fill:#bf9f4f;fill-opacity:1;stroke-width:1"
     d="m 964.51564,130.13596 c -29.73145,-6.26748 -41.50656,-9.72327 -60.17528,-17.85045 -18.66872,-8.12719 -32.215,-15.335277 -32.78323,-15.888696 -0.56822,-0.553419 -0.63891,-1.837384 0.56821,-3.769103 1.2071,-1.93172 3.40824,-4.432882 5.27543,-6.444302 l 0.0895,-2.478845 -17.65896,-11.376767 -2.69911,0.235 c -17.0049,38.888273 0.94137,70.397853 21.07912,90.051593 20.13775,19.65374 44.19866,25.46133 64.10874,25.46133 h 257.21674 c 13.5104,0 27.7747,-3.09212 34.7165,-10.90435 6.9415,-7.81223 23.3961,-41.59612 30.077,-61.85785 l -1.7216,-3.21663 -15.2856,1.92696 -3.2381,10.40703 c -53.731,14.31721 -118.8353,14.52635 -176.9011,14.52635 v -18.26567 h -9.43 -9.4301 v 18.26567 c -21.0312,0 -54.0767,-2.55379 -83.80816,-8.82127 z"
     id="path1033"
     sodipodi:nodetypes="ssssccccsssscccccccccs" /><path
     id="path1035"
     style="opacity:1;fill:#bf9f4f;fill-opacity:1;stroke:none;stroke-width:5;stroke-dashoffset:4.9;paint-order:fill markers stroke"
     d="m 1029.1656,63.657124 c 0,0 -1.8303,1.030624 -3.5012,2.701366 -1.6706,1.670743 -2.7012,3.501002 -2.7012,3.501002 0,0 5.5709,6.615386 13.5333,15.376421 -2.3889,3.835306 -3.7733,8.360837 -3.7733,13.211928 0,4.851529 1.3841,9.378279 3.7733,13.213819 -7.9624,8.76103 -13.5333,15.37453 -13.5333,15.37453 0,0 1.0306,1.83215 2.7012,3.50289 1.6709,1.67074 3.5012,2.70136 3.5012,2.70136 0,0 6.6153,-5.5728 15.3763,-13.53517 3.8353,2.38882 8.361,3.7732 13.212,3.7732 4.8511,0 9.3766,-1.38438 13.2119,-3.7732 8.761,7.9624 15.3764,13.53517 15.3764,13.53517 0,0 1.8303,-1.03063 3.501,-2.70136 1.6707,-1.67074 2.7013,-3.50289 2.7013,-3.50289 0,0 -5.5708,-6.6135 -13.5333,-15.37453 2.3892,-3.83554 3.7733,-8.36229 3.7733,-13.213819 0,-4.851091 -1.3844,-9.376622 -3.7733,-13.211928 7.9625,-8.761036 13.5333,-15.376421 13.5333,-15.376421 0,0 -1.0305,-1.830259 -2.7013,-3.501002 -1.6706,-1.670742 -3.501,-2.701366 -3.501,-2.701366 0,0 -6.6158,5.571364 -15.3764,13.533294 -3.8352,-2.388763 -8.3609,-3.773214 -13.2119,-3.773216 -4.851,2e-6 -9.3768,1.384453 -13.212,3.773216 -8.7606,-7.961899 -15.3763,-13.533294 -15.3763,-13.533294 z" /><path
     style="font-variation-settings:normal;opacity:1;vector-effect:none;fill:#bf9f4f;fill-opacity:1;stroke:none;stroke-width:0.500001;stroke-linecap:butt;stroke-linejoin:miter;stroke-miterlimit:4;stroke-dasharray:none;stroke-dashoffset:0;stroke-opacity:1;stop-color:#000000;stop-opacity:1"
     d="m 965.85806,133.72393 c 0,0 1.33787,-9.90532 5.37513,-16.53151 4.03725,-6.62617 10.17864,-10.34365 11.3888,-9.0027 1.21017,1.34095 -3.3318,3.33492 -5.0891,10.79025 -1.75729,7.45532 -1.24624,13.39352 -0.70067,17.60688 z"
     id="path1037"
     sodipodi:nodetypes="czzzcc" /><path
     style="font-variation-settings:normal;opacity:1;vector-effect:none;fill:#bf9f4f;fill-opacity:1;stroke:none;stroke-width:0.500001;stroke-linecap:butt;stroke-linejoin:miter;stroke-miterlimit:4;stroke-dasharray:none;stroke-dashoffset:0;stroke-opacity:1;stop-color:#000000"
     d="m 1152.2164,141.62145 c 0,0 -0.6081,-9.18696 1.0104,-16.18841 1.6185,-7.00145 5.7536,-11.55503 6.8424,-10.90533 1.0888,0.64969 -1.3229,4.95325 -0.9025,12.07224 0.4205,7.11899 1.833,14.36755 1.833,14.36755 z"
     id="path1039"
     sodipodi:nodetypes="czzzcc" /></g></svg>
