<?xml version="1.0" encoding="UTF-8" standalone="no"?>
<!-- Created with Inkscape (http://www.inkscape.org/) -->
<svg width="499.99997" height="570" viewBox="0 0 132.29166 150.8125" version="1.1" id="svg5" xml:space="preserve" xmlns="http://www.w3.org/2000/svg" xmlns:svg="http://www.w3.org/2000/svg"><defs id="defs2"/><path id="path905" style="fill:#045cd2;fill-opacity:1;stroke:none;stroke-width:0.264583;stroke-linecap:round;stroke-linejoin:round;stop-color:#000000" d="m 0,0 v 84.667326 c 2e-6,36.531154 29.614679,66.145174 66.145834,66.145174 36.531146,0 66.145816,-29.61402 66.145816,-66.145174 V 0 Z"/><path id="path1261" style="fill:#bf9f4f;fill-opacity:1;stroke:none;stroke-width:0.264583;stroke-linecap:round;stroke-linejoin:round;stop-color:#000000" d="m 45.880792,115.57055 c -8.805879,9.49566 -22.212453,9.45157 -29.717215,1.94681 C 8.658816,110.0126 8.600211,98.356616 15.767162,91.189666 22.934112,84.022716 33.256631,83.277116 49.301748,67.798296 37.444522,60.664216 27.606032,56.602346 18.110377,47.796476 8.614721,38.990596 8.658813,25.584022 16.163576,18.079262 c 7.504756,-7.504758 19.160734,-7.563363 26.327684,-0.39641 7.166951,7.16694 7.912553,17.489465 23.391364,33.534584 7.13408,-11.85722 11.19595,-21.695709 20.00181,-31.191364 8.80588,-9.495661 22.212456,-9.451568 29.717216,-1.94681 7.50476,7.50476 7.56337,19.160744 0.39642,26.327694 -7.16696,7.16695 -17.489466,7.91255 -33.534576,23.39136 11.85722,7.1341 21.695706,11.19596 31.191356,20.00182 9.49566,8.80588 9.45156,22.212464 1.9468,29.717224 -7.50475,7.50476 -19.160726,7.56336 -26.327686,0.39642 -7.16695,-7.16695 -7.91255,-17.48947 -23.39135,-33.534604 -7.13409,11.85723 -11.19596,21.695724 -20.001822,31.191374 z"/><path id="path5492" style="fill:#ffffff;stroke:none;stroke-width:0.264583;stroke-linecap:round;stroke-linejoin:round;stop-color:#000000" d="m 29.454016,12.379606 c -4.747948,0.05688 -9.537773,1.947536 -13.290145,5.699911 C 8.6591228,25.584259 8.6143703,38.990715 18.110006,47.796566 9.6337293,39.160615 9.3345348,26.25968 16.839282,18.754928 24.344024,11.250181 35.379186,11.646362 42.491463,17.682642 38.907995,14.099176 34.201965,12.322727 29.454016,12.379606 Z m 72.785224,0.278019 c -5.700312,-0.02845 -11.676961,2.323465 -16.355076,7.368026 -8.805841,9.495636 -12.86729,19.334687 -20.001363,31.191895 l 0.675411,0.675928 c 7.134072,-11.857199 11.196028,-21.69625 20.00188,-31.191895 8.800911,-9.490304 23.121048,-9.984141 31.863168,0.928109 -0.7818,-1.254289 -1.71955,-2.447672 -2.82205,-3.550171 -3.51785,-3.517852 -8.33228,-5.396788 -13.36197,-5.421892 z M 49.3019,67.798446 C 33.256816,83.277231 22.933933,84.022344 15.766996,91.189266 8.6000615,98.356209 8.6591238,110.01262 16.163871,117.51738 9.7351208,108.82336 9.3162949,98.711733 16.483232,91.5448 23.650168,84.377857 33.932227,83.952651 49.977311,68.473857 Z m 33.652727,0.291455 -0.0016,0.0021 c 0,0 -0.203006,0.256243 -0.414962,0.514181 11.52691,6.859136 19.944415,9.83882 31.116965,19.19366 C 104.29207,79.116961 94.590962,75.041243 82.954627,68.089901 Z m 6.319012,49.823849 c 0.752779,0.75278 1.558024,1.42074 2.399854,2.01383 -3.499889,-3.50966 -5.887694,-8.42141 -9.226336,-14.40128 C 79.108514,99.546431 74.868035,92.43897 66.681591,85.219461 81.379183,100.78275 82.232948,110.87308 89.273639,117.91375 Z"/><path id="circle1116" style="fill:#045cd2;fill-opacity:1;stroke:none;stroke-width:0.264583;stroke-linecap:round;stroke-linejoin:round;stop-color:#000000" d="m 60.874724,59.686136 c -1.26203,0.77938 -2.32495,1.84229 -3.10434,3.10433 l 1.44958,1.45023 c -1.56649,2.93372 -1.03009,6.54701 1.32157,8.89867 2.35165,2.35165 5.96494,2.88805 8.89865,1.32157 l 1.45023,1.45023 c 1.26235,-0.77949 2.32551,-1.84265 3.105,-3.10501 l -1.45023,-1.45022 c 1.56648,-2.93371 1.03016,-6.54712 -1.32157,-8.89866 -2.35173,-2.35154 -5.96508,-2.88757 -8.89866,-1.32092 z"/><path id="path1231" style="fill:#ffffff;stroke:none;stroke-width:0.264583;stroke-linecap:round;stroke-linejoin:round;stop-color:#000000" d="m 54.800954,56.765376 c 5.87626,-5.87626 19.12407,-6.61193 26.65609,5.33164 -2.32463,-6.34885 -8.42031,-10.87936 -15.57447,-10.87936 -9.15736,0 -16.580664,7.42332 -16.580665,16.58066 0,2.86167 0.724892,5.55429 2.001151,7.90361 -1.827308,-5.38261 -2.378361,-13.06028 3.497894,-18.93655 z"/><path id="path1241" style="fill:#ffffff;stroke:none;stroke-width:0.264583;stroke-linecap:round;stroke-linejoin:round;stop-color:#000000" d="m 71.223614,62.457276 c 2.35173,2.35153 2.88805,5.96495 1.32157,8.89866 l 0.45988,0.45987 c 2.25282,-3.25723 1.25149,-7.09048 -1.78145,-9.35853 z m 2.7718,10.34888 c -0.77949,1.26236 -1.84265,2.32552 -3.105,3.10501 l -1.45023,-1.45023 c -2.9337,1.56648 -6.547,1.03008 -8.89865,-1.32157 1.98354,3.45597 5.90853,3.64835 8.67234,2.19513 l 1.6198,1.5921 c 1.26235,-0.77949 2.58019,-2.01288 3.35968,-3.27523 z"/><path id="path1255" style="fill:#75510a;fill-opacity:1;stroke:none;stroke-width:0.264583;stroke-linecap:round;stroke-linejoin:round;stop-color:#000000" d="m 79.025044,57.689596 c 2.1555,2.79822 3.43819,6.30342 3.43819,10.10872 0.15453,-0.14908 0.30508,-0.28778 0.45856,-0.43415 -0.24038,-3.67427 -1.66569,-7.02473 -3.89675,-9.67457 z m 3.43819,10.10872 c 0,9.15735 -7.42333,16.58066 -16.58066,16.58066 0.27392,0.28395 0.53289,0.5622 0.7977,0.84257 9.03277,-0.25273 16.27781,-7.6537 16.27781,-16.7476 0,-0.12881 -0.001,-0.25719 -0.005,-0.38532 -0.1643,-0.0982 -0.32515,-0.19099 -0.49022,-0.29031 z m -16.58066,16.58066 c -7.84853,0 -14.422798,-5.45347 -16.1419,-12.7776 1.416337,7.50059 7.83053,13.2344 15.65035,13.60763 0.16486,-0.27729 0.32338,-0.55053 0.49155,-0.83003 z"/><path id="path5499" style="fill:#75510a;fill-opacity:1;stroke:none;stroke-width:0.264583;stroke-linecap:round;stroke-linejoin:round;stop-color:#000000" d="m 119.61389,25.241202 c 1.42121,6.307725 -0.95547,11.752174 -3.096,14.905994 -2.14052,3.15384 -6.26541,6.39127 -12.54847,9.66831 -6.283066,3.27704 -13.551036,7.77211 -20.156416,14.09402 l 0.25484,0.50968 c 5.25411,-5.02863 13.89881,-10.70598 20.181886,-13.98302 6.28305,-3.27704 10.36986,-6.01904 12.96894,-9.8485 2.59908,-3.82945 4.07671,-8.818519 2.39522,-15.346484 z"/><path style="color:#000000;fill:#75510a;fill-opacity:0.945;stroke-width:1;stroke-miterlimit:10;-inkscape-stroke:none" d="m 76.161474,36.538326 c 0.61389,0.16832 1.33039,0.39524 1.33039,0.39524 0,0 -0.3849,-1.004059 -1.33039,-0.39524 z m -0.97521,1.275 c 0.76954,0.25904 1.42484,0.41694 2.22081,0.5641 -0.52848,-0.53018 -1.50335,-1.16648 -2.22081,-0.5641 z m 1.44657,1.90822 c 0.70959,0.32158 1.34038,0.4975 1.34038,0.4975 0,0 -0.47329,-0.47456 -1.20072,-0.80423 -0.72745,-0.32968 -1.39835,-1.08879 -2.33912,-0.49874 0.61032,0.16957 1.48988,0.48387 2.19946,0.80547 z m -0.31171,1.27179 c 0.9013,0.45591 1.73687,0.78303 1.73687,0.78303 0,0 -0.66429,-0.62042 -1.58227,-1.08477 -0.86885,-0.37221 -1.64025,-1.21689 -2.6932,-0.69949 0.93567,0.21146 1.76598,0.61191 2.5386,1.00123 z m -0.31177,0.9551 c -0.88187,-0.33899 -1.61386,-1.35589 -2.70817,-0.6546 0.9366,0.21127 1.77892,0.59435 2.56603,0.96132 0.93034,0.43533 1.79547,0.73815 1.79547,0.73815 0,0 -0.70776,-0.60242 -1.65333,-1.04487 z m -1.1097,1.35159 c 0.91797,0.4115 1.79922,0.68577 1.79922,0.68577 0,0 -0.73243,-0.57826 -1.66207,-0.995 -0.83442,-0.34464 -1.42483,-1.13135 -2.49995,-0.61967 0.85452,0.24498 1.63501,0.60357 2.3628,0.9289 z m 0.008,1.03239 c -0.8946,-0.48142 -1.8247,-1.45031 -2.99371,-0.65957 0.87174,0.0636 1.96606,0.48918 2.83411,0.95633 0.86805,0.46714 1.61219,0.82791 1.61219,0.82791 0,0 -0.558,-0.64323 -1.45259,-1.12467 z m -0.28423,1.33165 c -0.9871,-0.41216 -1.86788,-1.4424 -3.02114,-0.88651 1.04516,0.27808 1.98711,0.7457 2.86903,1.18825 1.04085,0.52395 2.00244,0.90771 2.00244,0.90771 0,0 -0.79583,-0.67863 -1.85033,-1.20945 z m -0.70578,1.5112 c 0.99784,0.4708 1.84786,0.77429 1.84786,0.77429 0,0 -0.69313,-0.60326 -1.70571,-1.08103 -1.01259,-0.47777 -2.09418,-1.66146 -3.24931,-0.90147 0.87387,0.24914 2.10933,0.73739 3.10716,1.20821 z m -0.19699,1.32416 c 1.19317,0.60711 2.21442,1.09225 2.21442,1.09225 0,0 -0.84865,-0.77645 -2.06231,-1.39399 -1.21365,-0.61754 -2.60984,-1.83077 -3.8266,-0.98501 1.01532,0.10354 2.48131,0.67963 3.67449,1.28675 z m -0.93016,1.00497 c 1.21523,0.54244 2.32289,0.93638 2.32289,0.93638 0,0 -0.95874,-0.6979 -2.18574,-1.24561 -1.14545,-0.41583 -2.14417,-1.58979 -3.44881,-0.93514 1.18683,0.30477 2.27977,0.78521 3.31166,1.24437 z m 0.32917,1.5087 c 1.49755,0.76282 2.75805,1.40895 2.75805,1.40895 0,0 -1.08786,-0.93741 -2.60594,-1.7107 -1.51807,-0.77329 -3.06293,-2.17422 -4.7555,-1.26056 1.26942,0.0747 3.10584,0.79947 4.60339,1.56231 z m -0.91266,1.05233 c 1.45332,0.61582 2.6795,1.0935 2.6795,1.0935 0,0 -1.07954,-0.78221 -2.54982,-1.40521 -1.47029,-0.62299 -3.06052,-2.085 -4.52733,-1.02989 1.17683,0.12922 2.94434,0.7258 4.39765,1.3416 z m -41.996702,1.75558 c -0.445302,0.39382 -1.425117,0.58095 -0.866567,1.55483 0.243231,-0.4271 0.670343,-0.93096 1.091001,-1.30299 0.420659,-0.37203 0.731907,-0.75932 0.731907,-0.75932 0,0 -0.511038,0.11363 -0.956341,0.50748 z m 1.660814,0.53118 c -0.515812,0.58388 -1.754448,0.93462 -1.105962,2.04479 0.310459,-0.74818 0.847303,-1.30778 1.342865,-1.80551 0.609161,-0.60917 1.120926,-1.21811 1.120926,-1.21811 0,0 -0.730616,0.35162 -1.357829,0.97883 z m 1.937619,0.52621 c 0.74495,-0.73506 1.361568,-1.42517 1.361568,-1.42517 0,0 -0.836751,0.43164 -1.598472,1.18325 -0.761722,0.75159 -1.849377,1.33005 -1.523661,2.52116 0.2628,-0.61032 1.015613,-1.54418 1.760565,-2.27924 z m 5.341538,1.04985 c 1.103703,-1.14331 2.12714,-2.07479 2.12714,-2.07479 0,0 -1.240254,0.67108 -2.36903,1.84035 -1.128777,1.16927 -3.103714,2.36097 -2.036119,4.2069 0.112153,-1.33699 1.174307,-2.82917 2.278009,-3.97246 z m -3.955033,-0.82291 c -0.743197,0.7914 -2.014449,1.3777 -1.506205,2.85284 0.287161,-0.84584 1.029651,-1.85053 1.753082,-2.62088 0.723433,-0.77033 1.310448,-1.44263 1.310448,-1.44263 0,0 -0.814128,0.41928 -1.557325,1.21067 z m 1.820412,0.22694 c -0.90951,0.94 -2.51483,1.93051 -1.744354,3.6483 0.225194,-1.26251 1.106259,-2.49936 1.988739,-3.41141 0.882479,-0.91207 1.65458,-1.63463 1.65458,-1.63463 0,0 -0.989454,0.45775 -1.898965,1.39774 z m 3.872741,1.32173 c 1.064435,-1.22285 2.071031,-2.23939 2.071031,-2.23939 0,0 -1.237434,0.7675 -2.325389,2.0174 -1.087956,1.24988 -2.910937,2.51191 -1.799217,4.30916 9.54e-4,-1.3056 0.98914,-2.86431 2.053575,-4.08717 z m 2.119659,0.11185 c 1.117461,-1.30536 2.15457,-2.27163 2.15457,-2.27163 0,0 -1.266371,0.71488 -2.411423,2.05247 -1.145052,1.33758 -3.335105,2.90152 -2.034873,5.15561 0.09236,-1.8592 1.174266,-3.63111 2.291726,-4.93645 z m 1.493736,0.49903 c -1.20565,1.55373 -3.037725,3.13443 -2.183248,5.23789 0.111399,-1.56246 1.263068,-3.50152 2.450075,-5.03122 1.187007,-1.5297 2.275516,-2.77659 2.275516,-2.77659 0,0 -1.336694,1.01619 -2.542343,2.56992 z m 1.700714,0.69823 c -1.256195,1.67998 -3.462292,3.96368 -2.282997,5.86262 0.110582,-1.87213 1.318238,-4.00714 2.554811,-5.66086 1.236574,-1.65374 2.371524,-2.94869 2.371524,-2.94869 0,0 -1.387144,1.06697 -2.643338,2.74693 z m 2.047303,0.53622 c 1.150031,-1.61011 2.2369,-2.72318 2.2369,-2.72318 0,0 -1.335805,0.86887 -2.518348,2.52214 -1.182543,1.65326 -3.267632,4.27265 -1.9666,6.56745 -0.0079,-2.51942 1.098017,-4.75628 2.248048,-6.36641 z m 2.123,0.27971 c 1.270486,-1.79024 2.477939,-3.00293 2.477939,-3.00293 0,0 -1.455856,0.96947 -2.758588,2.803 -1.302732,1.83351 -3.578933,4.7412 -2.207643,7.32772 -0.0084,-2.8401 1.217807,-5.33755 2.488292,-7.12779 z m 31.791559,17.84211 c -1.12183,1.91661 -2.18074,3.49494 -2.18074,3.49494 0,0 1.33616,-1.38146 2.47251,-3.32288 1.13635,-1.9414 3.01729,-5.16819 1.76136,-6.3901 0.0891,1.73711 -0.93128,4.30143 -2.05313,6.21804 z m 1.55608,0.84781 c -1.07085,1.57643 -2.00869,2.78799 -2.00869,2.78799 0,0 1.19977,-0.99647 2.28799,-2.59846 1.08822,-1.60201 3.41562,-5.16535 2.00149,-5.83848 -0.21068,1.87528 -1.20994,4.07252 -2.28079,5.64895 z m 1.84785,0.47131 c -0.98035,1.44768 -1.81792,2.62838 -1.81792,2.62838 0,0 1.10254,-0.97003 2.09721,-2.43885 0.99467,-1.46884 3.02353,-4.57859 1.85311,-5.20575 -0.23598,1.45403 -1.15205,3.56855 -2.1324,5.01622 z m 1.78051,0.5985 c -0.8544,1.37125 -1.53113,2.4825 -1.53113,2.4825 0,0 0.95212,-0.91343 1.81791,-2.30296 0.86578,-1.38952 2.49244,-3.61415 1.72174,-4.77563 -0.34594,1.4011 -1.15412,3.22484 -2.00852,4.59609 z m 1.92266,0.3965 c -0.81054,1.36493 -1.55608,2.56728 -1.55608,2.56728 0,0 1.02315,-1.00645 1.84783,-2.39522 0.67469,-1.28485 2.24539,-3.00634 1.15336,-4.2019 -0.0303,1.52108 -0.75051,2.85358 -1.44511,4.02984 z m 1.95507,0.51866 c -0.74025,1.22789 -1.41643,2.36153 -1.41643,2.36153 0,0 0.95229,-0.93726 1.7057,-2.18698 0.54871,-1.07872 1.93861,-2.48309 1.01245,-3.59094 -0.0364,1.29743 -0.71155,2.43236 -1.30172,3.41639 z m 1.55359,0.63091 c -0.70373,1.09583 -1.32792,2.06852 -1.32792,2.06852 0,0 0.89306,-0.76663 1.61219,-1.88649 0.71915,-1.11986 1.99916,-2.5701 1.04861,-3.49245 -0.003,0.87572 -0.62917,2.21457 -1.33288,3.31042 z m 1.74061,0.64335 c -0.65902,1.0147 -1.25684,1.88027 -1.25684,1.88027 0,0 0.86222,-0.65044 1.54112,-1.69573 0.6789,-1.04528 1.87171,-2.37469 0.89525,-3.5149 0.0571,1.04011 -0.52051,2.31568 -1.17953,3.33036 z m 1.73812,0.43393 c -0.53276,0.89837 -0.98502,1.67202 -0.98502,1.67202 0,0 0.72397,-0.57197 1.27429,-1.49996 0.55032,-0.92799 1.54173,-2.13329 0.70946,-3.1159 0.003,0.91454 -0.46598,2.04546 -0.99873,2.94384 z m 1.45384,0.40405 c -0.50963,0.85869 -0.93765,1.66456 -0.93765,1.66456 0,0 0.70551,-0.60976 1.2294,-1.49249 0.42244,-0.81022 1.6994,-1.83104 0.63967,-2.64208 -0.0665,0.94921 -0.5077,1.75218 -0.93142,2.47001 z m -41.4705,0.98995 c -2.16432,-1.69274 -3.92261,-3.34656 -3.92261,-3.34656 0,0 1.52642,1.90118 3.71564,3.6134 2.18922,1.71222 4.92567,4.03012 7.12953,2.90019 -2.01518,-0.19551 -4.75823,-1.47428 -6.92256,-3.16703 z m 43.10632,-0.60598 c -0.36188,0.74812 -0.61843,1.42268 -0.61843,1.42268 0,0 0.54832,-0.50169 0.92266,-1.27555 0.374326,-0.77385 1.127856,-1.86414 0.407726,-2.46255 -0.0406,0.64749 -0.350076,1.56731 -0.711956,2.31542 z m 1.957506,0.26058 c 0.41889,-0.49246 0.95334,-1.22949 0.31177,-1.78426 -0.0345,0.67703 -0.19862,1.1542 -0.31177,1.78426 z m -45.956576,1.88654 c -1.8981,-1.53253 -3.312926,-2.93385 -3.312926,-2.93385 0,0 1.176396,1.64183 3.100916,3.1957 1.92452,1.55388 4.27327,3.93743 7.12187,2.87824 -2.3898,-0.25218 -5.01176,-1.60754 -6.90986,-3.14009 z m -0.13477,1.94013 c -1.85529,-1.43285 -3.403888,-2.75058 -3.403888,-2.75058 0,0 1.324168,1.56912 3.199468,3.0174 1.8753,1.44829 3.91131,3.42481 5.97367,2.73062 -1.51958,-0.45348 -3.91395,-1.56461 -5.76925,-2.99744 z m -0.28671,1.88524 c -1.83909,-1.24367 -3.291708,-2.47127 -3.401434,-2.34159 0,0 1.355804,1.3657 3.211904,2.62089 1.85611,1.25518 3.66196,2.93771 5.73555,2.44758 -1.38092,-0.49021 -3.70693,-1.4832 -5.54602,-2.72688 z m -0.55865,1.64585 c -1.78147,-1.23223 -3.295418,-2.34533 -3.295418,-2.34533 0,0 1.302988,1.37925 3.103458,2.62463 1.80046,1.24538 3.51768,2.88359 5.58964,2.30171 -1.34009,-0.38372 -3.6162,-1.34876 -5.39768,-2.58101 z m -0.44133,1.78302 c -1.42992,-1.01535 -2.483744,-2.01493 -2.599703,-1.89149 0,0 0.953983,1.13532 2.405193,2.16579 1.4512,1.03047 3.03886,2.72755 4.87272,1.99622 -1.45077,-0.5615 -3.2483,-1.25519 -4.67821,-2.27052 z m -0.2394,1.69072 c -1.44485,-0.96556 -2.595961,-1.87527 -2.700696,-1.74185 0,0 1.053657,1.04961 2.511176,2.02365 1.45751,0.97405 2.64763,2.33658 4.4837,2.08226 -1.00966,-0.65077 -2.84934,-1.39848 -4.29418,-2.36406 z m -0.15212,1.7506 c -1.25488,-0.7916 -2.34908,-1.45383 -2.34908,-1.45383 0,0 0.906863,0.92291 2.16704,1.73811 1.26018,0.8152 2.33955,2.03187 3.83533,1.60346 -1.07568,-0.63816 -2.41233,-1.10491 -3.65329,-1.88774 z m -0.84288,1.37653 c -0.967993,-0.72688 -1.733129,-1.30172 -1.733129,-1.30172 0,0 0.538275,0.82799 1.531149,1.57353 0.99287,0.74555 2.16525,2.12813 3.70815,1.51369 -1.10463,-0.69937 -2.53817,-1.05863 -3.50617,-1.7855 z m -0.39188,1.34229 c -0.960376,-0.69368 -1.680395,-1.1989 -1.680395,-1.1989 0,0 0.518507,0.79171 1.555173,1.53105 0.979232,0.69839 1.971982,1.87824 3.825022,1.5836 -1.30325,-0.76734 -2.73943,-1.22206 -3.6998,-1.91575 z m -0.27139,1.90453 c -0.88785,-0.53131 -1.635903,-0.92392 -1.635903,-0.92392 0,0 0.553588,0.66851 1.463784,1.21318 0.910199,0.544694 1.843929,1.319534 3.123409,0.967574 -0.97162,-0.734264 -2.06344,-0.725514 -2.95129,-1.256834 z m -0.366127,1.395974 c -0.800637,-0.47457 -1.383273,-0.903474 -1.383273,-0.903474 0,0 0.340873,0.668464 1.174634,1.171054 0.678756,0.40916 1.372536,1.12007 2.704336,0.61197 -0.95634,-0.77712 -1.86263,-0.50431 -2.495697,-0.87955 z m -0.387029,1.36457 c -0.582171,-0.3486 -1.108459,-0.54114 -1.108459,-0.54114 0,0 0.336379,0.47112 0.936388,0.83041 0.600009,0.3593 1.103049,1.04393 2.064797,0.67081 -0.43988,-0.57136 -1.310554,-0.61147 -1.892726,-0.96008 z m -0.446373,1.45134 c -0.524019,-0.25852 -1.002477,-0.34912 -1.002477,-0.34912 0,0 0.315026,0.38803 0.852847,0.65336 0.537821,0.26532 0.869296,0.85257 1.809199,0.47879 -0.490051,-0.71358 -1.135552,-0.5245 -1.659569,-0.78303 z" id="path6950"/><path style="color:#000000;fill:#ffffff;stroke-width:1;stroke-miterlimit:10;-inkscape-stroke:none" d="m 103.6659,48.928216 c 0.12436,-1.41038 -1.48127,-2.2431 -1.48127,-2.2431 0,0 0.93639,1.21079 1.48127,2.2431 z m -2.081,-1.18934 c -0.56454,-0.62558 -1.20197,-0.93267 -1.20197,-0.93267 0,0 0.40341,0.55376 0.9501,1.15956 0.54671,0.6058 0.89843,1.39726 1.4127,2.04362 0.15381,-1.05554 -0.59629,-1.64494 -1.16083,-2.27051 z m -1.51867,0.47626 c 0.60939,0.67327 0.86446,1.58026 1.31792,2.23563 0.35343,-0.98645 -0.43405,-1.76427 -1.06606,-2.46251 -0.631986,-0.69826 -1.377776,-1.0611 -1.377776,-1.0611 0,0 0.51654,0.61471 1.125916,1.28798 z m -1.556076,0.35161 c 0.84308,0.78391 1.35637,1.84021 1.751836,2.6446 0.51554,-1.15778 -0.653586,-2.08359 -1.522416,-2.89145 -0.86883,-0.80786 -1.84161,-1.23439 -1.84161,-1.23439 0,0 0.76912,0.69734 1.61219,1.48124 z m -1.40147,0.67581 c 0.6239,0.78137 1.51046,1.78194 1.91143,2.72939 0.51755,-1.46864 -0.87852,-2.1564 -1.67203,-2.96626 -0.92969,-0.94485 -1.97129,-1.5586 -1.97129,-1.5586 0,0 0.81953,0.86823 1.73189,1.79547 z m -1.19199,0.13716 c -0.94107,-0.93094 -1.94136,-1.4526 -1.94136,-1.4526 0,0 0.78096,0.78087 1.70196,1.69198 0.92101,0.9111 1.62634,2.11612 2.182,3.07351 0.29523,-1.44526 -1.00155,-2.38195 -1.9426,-3.31289 z m -1.34412,0.69571 c -1.03404,-1.05423 -2.15831,-1.74683 -2.15831,-1.74683 0,0 0.89819,0.94566 1.91642,1.98376 0.75814,0.93114 1.53085,2.03681 2.24809,3.10092 0.17116,-1.6786 -1.10509,-2.41535 -2.0062,-3.33785 z m -3.23684,0.86034 c -1.35133,-1.21014 -2.76553,-1.96753 -2.76553,-1.96753 0,0 1.20695,1.02689 2.5386,2.2194 1.07395,1.10021 2.17768,2.40918 2.94633,3.82661 0.42776,-1.92281 -1.50989,-2.99031 -2.7194,-4.07848 z m 1.34162,-0.12704 c 1.03227,0.98761 1.77062,2.29912 2.4987,3.2456 0.14745,-1.43617 -1.21425,-2.48532 -2.26429,-3.48993 -1.05004,-1.00462 -2.13961,-1.59476 -2.13961,-1.59476 0,0 0.87294,0.85149 1.9052,1.83909 z m -2.68323,1.0474 c -1.28948,-1.16858 -2.6259,-1.92641 -2.6259,-1.92641 0,0 1.12559,1.02423 2.39896,2.17824 1.00861,1.07222 2.11984,2.18907 2.92637,3.54732 0.17254,-1.89055 -1.56068,-2.76313 -2.69943,-3.79915 z m -1.67329,1.04732 c 1.21728,1.10799 2.18657,2.57135 2.89147,3.59344 0.24436,-1.74097 -1.42911,-2.71832 -2.66455,-3.84282 -0.83915,-0.74732 -1.63335,-1.40293 -2.62089,-1.88275 0.75379,0.72924 1.68653,1.49081 2.39397,2.13213 z m -0.99,0.65335 c -1.34284,-1.29252 -2.76679,-2.22563 -2.76679,-2.22563 0,0 1.20223,1.18969 2.53237,2.47002 0.89076,1.10132 1.9815,2.16317 2.91391,3.57724 0.11836,-1.67498 -1.57828,-2.75844 -2.67949,-3.82163 z m -1.71568,0.59601 c 1.39859,1.309 2.47193,2.94732 3.35529,4.18567 -0.0778,-2.18544 -1.70885,-3.10868 -3.12338,-4.4326 -1.41453,-1.32393 -2.84408,-2.17325 -2.84408,-2.17325 0,0 1.21357,1.11117 2.61217,2.42018 z m -1.45135,0.27435 c -1.62539,-1.50461 -3.32412,-2.53487 -3.32412,-2.53487 0,0 1.4865,1.293 3.0947,2.7817 1.20323,1.32461 2.72636,2.77856 3.47249,4.54607 0.16532,-2.16563 -1.86362,-3.5107 -3.24307,-4.7929 z m -1.8254,1.01739 c 1.55016,1.54518 3.1879,3.4609 3.70816,4.73679 0.44016,-2.00775 -1.90547,-3.41796 -3.46876,-4.97624 -1.56329,-1.55827 -3.1396,-2.63208 -3.1396,-2.63208 0,0 1.35005,1.32636 2.9002,2.87153 z m -0.96008,0.97255 c 1.09465,1.39551 3.03447,2.91338 3.5473,4.80545 0.53394,-2.19609 -1.91495,-3.6566 -3.31039,-5.04472 -1.73405,-1.71897 -3.57724,-3.00374 -3.57724,-3.00374 0,0 1.62055,1.53818 3.34033,3.24301 z m -0.79549,1.12716 c 1.07382,1.37843 2.9841,3.16758 3.02113,5.35897 1.01292,-2.48336 -1.42348,-4.13561 -2.77426,-5.59092 -1.74667,-1.87252 -3.71315,-3.25802 -3.71315,-3.25802 0,0 1.7391,1.63835 3.46628,3.48997 z m -31.748,11.81494 -0.259346,-0.21697 c 0,0 -1.241941,1.73257 -0.170313,3.85309 -0.690326,-2.08414 0.429659,-3.63612 0.429659,-3.63612 z m -1.508146,1.32433 -0.286821,-0.18192 c 0,0 -1.024731,1.65539 0.123439,3.59587 -0.773973,-1.94382 0.16338,-3.41395 0.16338,-3.41395 z m -1.546148,1.28937 -0.316702,-0.11964 c 0,0 -0.586896,1.57325 0.658341,3.08348 -0.877121,-1.5732 -0.341639,-2.96378 -0.341639,-2.96378 z m -1.359075,1.27429 -0.32169,-0.10227 c -0.217113,0.88902 -0.259587,2.10202 0.461339,2.61341 -0.409025,-0.88479 -0.355904,-1.65226 -0.139649,-2.51117 z m -1.498729,1.11206 -0.326671,-0.0872 c -0.171286,0.85899 -0.136265,2.01009 0.583529,2.44752 -0.435393,-0.81631 -0.425089,-1.5397 -0.256858,-2.36037 z m -1.246852,0.93278 -0.319196,-0.10725 c 0,0 -0.524774,1.48577 0.420191,2.43511 -0.536678,-0.97279 -0.100994,-2.32788 -0.100994,-2.32788 z m -1.468799,1.08228 -0.30174,-0.15211 c -0.349901,0.89611 -0.113416,1.97515 0.591011,2.43884 -0.471745,-0.80687 -0.587456,-1.4737 -0.289271,-2.28673 z m -1.448846,1.06232 -0.329173,-0.0723 c -0.120516,0.76051 -0.0046,1.7555 0.66582,2.05857 -0.424806,-0.68031 -0.435993,-1.28288 -0.336647,-1.98626 z m -1.423916,0.95011 -0.324182,-0.0898 c -0.15163,0.73608 -0.0073,1.67175 0.642135,1.94634 -0.415859,-0.64046 -0.437083,-1.19503 -0.317953,-1.85657 z m -1.538626,1.0299 -0.331659,-0.0698 c -0.0973,0.67495 0.04105,1.54052 0.645872,1.77677 -0.365195,-0.59273 -0.392858,-1.10272 -0.314213,-1.70694 z m -1.498722,0.77305 -0.336648,-0.0128 c 0.02336,0.71771 0.127723,1.72023 0.789258,1.98749 -0.386382,-0.68774 -0.438467,-1.26989 -0.45261,-1.97502 z m -1.466301,0.83789 -0.326677,-0.0873 c 0,0 -0.29947,1.14351 0.724424,1.90644 -0.657973,-0.87887 -0.397747,-1.81916 -0.397747,-1.81916 z m -1.45633,0.80547 -0.336652,-0.0175 c 0,0 -0.08904,1.18893 0.788014,1.69198 -0.484446,-0.61818 -0.451362,-1.67452 -0.451362,-1.67452 z m -1.324164,0.68078 -0.331663,-0.0549 c 0,0 -0.244411,1.30461 0.705721,1.78924 -0.531513,-0.59656 -0.374058,-1.73437 -0.374058,-1.73437 z m -1.518676,1.01245 h -0.339142 c 0.03284,0.5283 0.21796,1.2057 0.730654,1.30172 -0.29113,-0.46984 -0.353546,-0.8351 -0.391512,-1.30172 z m -1.047356,0.58602 -0.326678,-0.0898 c 0,0 -0.277588,1.08924 0.744374,1.56731 -0.659902,-0.64317 -0.417696,-1.47753 -0.417696,-1.47753 z m -1.546107,0.85772 -0.3167,-0.12206 c -0.1697,0.55574 -0.08125,1.27505 0.437645,1.44255 -0.265097,-0.50818 -0.243086,-0.85443 -0.120949,-1.32049 z m -1.57103,0.65846 h -0.339155 c 0.04235,0.62811 0.213439,1.46765 0.810462,1.64336 -0.355343,-0.57335 -0.436441,-1.04991 -0.471307,-1.64336 z m -1.192011,0.86034 -0.316695,-0.11721 c -0.17446,0.62242 0.01558,1.3671 0.578535,1.54111 -0.343069,-0.5265 -0.381183,-0.89373 -0.26184,-1.4239 z m -1.391495,0.7157 -0.336644,-0.0275 c -0.012,0.50455 0.128419,1.14976 0.608461,1.27554 -0.234327,-0.46574 -0.272856,-0.80878 -0.271817,-1.24811 z m -1.221916,0.78053 -0.336648,-0.0249 c -0.0033,0.52779 0.07745,1.28437 0.588515,1.39398 -0.24253,-0.51653 -0.251758,-0.891 -0.251867,-1.36904 z m -0.890243,0.50622 -0.316713,-0.11721 c -0.182791,0.61548 -0.03383,1.38758 0.538648,1.53988 -0.352753,-0.52518 -0.34565,-0.90044 -0.221935,-1.42267 z m -0.872811,0.67829 -0.334159,-0.0324 c -0.02428,0.57651 0.07823,1.37459 0.627213,1.51742 -0.292565,-0.53846 -0.312354,-0.96115 -0.293054,-1.485 z m -0.930145,0.70573 -0.314219,-0.12219 c -0.208007,0.68657 0.03842,1.48307 0.6571,1.64211 -0.444451,-0.52072 -0.481066,-0.94956 -0.342881,-1.51991 z" id="path10111"/><path style="color:#000000;fill:#75510a;fill-opacity:1;stroke-width:1;stroke-miterlimit:10;-inkscape-stroke:none" d="m 92.742194,57.224966 0.42159,-0.21747 c -0.006,-0.503 -0.13041,-0.77704 -0.38172,-1.24265 -0.0668,0.53776 -0.0557,0.95966 -0.0398,1.46012 z m -1.47377,0.93019 0.40744,-0.17994 c 0.0264,-0.52644 0.0148,-0.87624 -0.26656,-1.36242 -0.0771,0.56384 -0.10048,1.01725 -0.14088,1.54236 z m -1.21695,0.78295 0.46407,-0.10253 c 0,0 -0.0606,-0.65553 -0.38052,-1.17428 -0.0366,0.50065 -0.0835,1.27681 -0.0835,1.27681 z m -1.1472,0.95258 0.43575,-0.21159 c 0.0201,-0.502 -0.10086,-0.79048 -0.3658,-1.23977 -0.059,0.53417 -0.0617,0.95837 -0.07,1.45136 z m -1.52828,1.21201 0.53486,-0.28315 c -0.004,-0.63049 -0.0472,-1.12654 -0.43784,-1.57218 -0.10534,0.66771 -0.10278,1.20746 -0.097,1.85533 z m -1.45844,1.35092 0.61981,-0.43899 c 0.0336,-0.73595 -0.0197,-1.20008 -0.45215,-1.83339 0.0379,0.79284 -0.0918,1.53191 -0.16766,2.27238 z m -1.11752,0.86841 0.33664,0.0324 c 0.0151,-0.69306 0.20904,-1.3225 -0.23938,-1.96943 0.0338,0.72212 -0.0393,1.22996 -0.0973,1.937 z m -1.1169,1.48433 0.57233,-0.5581 c 0.0915,-0.78952 0.005,-1.2913 -0.37831,-2.02793 -0.0275,0.85528 -0.0595,1.78728 -0.19402,2.58603 z" id="path10213"/></svg>