<?xml version="1.0" encoding="UTF-8" standalone="no"?>
<svg
   xmlns:dc="http://purl.org/dc/elements/1.1/"
   xmlns:cc="http://creativecommons.org/ns#"
   xmlns:rdf="http://www.w3.org/1999/02/22-rdf-syntax-ns#"
   xmlns:svg="http://www.w3.org/2000/svg"
   xmlns="http://www.w3.org/2000/svg"
   xmlns:sodipodi="http://sodipodi.sourceforge.net/DTD/sodipodi-0.dtd"
   xmlns:inkscape="http://www.inkscape.org/namespaces/inkscape"
   inkscape:version="1.0 (4035a4fb49, 2020-05-01)"
   sodipodi:docname="kerava1.svg"
   id="svg8"
   version="1.1"
   viewBox="0 0 132.29166 150.8125"
   height="570"
   width="500">
  <defs
     id="defs2" />
  <sodipodi:namedview
     inkscape:object-nodes="true"
     inkscape:showpageshadow="false"
     inkscape:window-maximized="1"
     inkscape:window-y="-8"
     inkscape:window-x="-8"
     inkscape:window-height="1017"
     inkscape:window-width="1920"
     units="px"
     showgrid="false"
     inkscape:document-rotation="0"
     inkscape:current-layer="g2277"
     inkscape:document-units="px"
     inkscape:cy="307.95992"
     inkscape:cx="205.47542"
     inkscape:zoom="0.9134936"
     inkscape:pageshadow="2"
     inkscape:pageopacity="0.0"
     borderopacity="1.0"
     bordercolor="#666666"
     pagecolor="#ffffff"
     id="base"
     inkscape:snap-others="false"
     inkscape:lockguides="true" />
  <metadata
     id="metadata5">
    <rdf:RDF>
      <cc:Work
         rdf:about="">
        <dc:format>image/svg+xml</dc:format>
        <dc:type
           rdf:resource="http://purl.org/dc/dcmitype/StillImage" />
        <dc:title></dc:title>
      </cc:Work>
    </rdf:RDF>
  </metadata>
  <g
     transform="translate(-9.3120727,-22.18711)"
     id="layer1"
     inkscape:groupmode="layer"
     inkscape:label="Шар 1">
    <g
       style="stroke-width:1.11461"
       transform="matrix(0.89702441,0,0,0.89733768,1.126117,2.4679191)"
       id="g2277">
      <g
         style="stroke-width:1.14198"
         transform="matrix(0.97604273,0,0,0.9760273,0.2186263,0.52680518)"
         id="g2298">
        <path
           style="font-variation-settings:normal;opacity:1;vector-effect:none;fill:#005dbd;fill-opacity:1;fill-rule:evenodd;stroke:none;stroke-width:0.302146;stroke-linecap:butt;stroke-linejoin:miter;stroke-miterlimit:4;stroke-dasharray:none;stroke-dashoffset:0;stroke-opacity:1;marker:none;marker-start:none;marker-mid:none;marker-end:none;stop-color:#000000;stop-opacity:1"
           d="M 160.22391,21.975218 V 122.98229 c 0,33.07235 -29.78499,71.1875 -75.54911,71.1875 -45.764138,0 -75.5491222,-38.11515 -75.5491222,-71.1875 V 21.975218 Z"
           id="path846"
           sodipodi:nodetypes="cszscc" />
        <path
           transform="scale(0.26458333)"
           d="m 41.332031,249.92383 v 213.54101 c 0,18.57617 2.561808,37.58226 7.476563,56.45899 H 591.25391 c 4.91475,-18.87673 7.47656,-37.88282 7.47656,-56.45899 V 249.92383 h -56.45703 l 35.2539,99.56836 h -97.78711 l 35.25196,-99.56836 H 403.20508 l 35.2539,99.56836 h -97.7871 l 35.25195,-99.56836 H 264.13672 l 35.2539,99.56836 h -97.7871 l 35.25195,-99.56836 H 125.06836 l 35.25391,99.56836 H 62.535156 l 35.251953,-99.56836 z"
           style="font-variation-settings:normal;opacity:1;vector-effect:none;fill:#cba64d;fill-opacity:1;fill-rule:evenodd;stroke:none;stroke-width:1.14198;stroke-linecap:butt;stroke-linejoin:miter;stroke-miterlimit:4;stroke-dasharray:none;stroke-dashoffset:0;stroke-opacity:1;marker:none;marker-start:none;marker-mid:none;marker-end:none;stop-color:#000000;stop-opacity:1"
           id="path872-7" />
        <path
           transform="scale(0.26458333)"
           d="m 97.787109,249.92383 -6,4 -35.251953,99.56836 6,-4 z m 139.068361,0 -6,4 -35.25195,99.56836 6,-4 z m 139.06836,0 -6,4 -35.25195,99.56836 6,-4 z m 139.06836,0 -6,4 -35.25196,99.56836 6,-4 z M 47.794922,515.87891 c 0.326801,1.3487 0.662812,2.69733 1.013672,4.04492 H 591.25391 c 0.35086,-1.34759 0.68687,-2.69622 1.01367,-4.04492 z"
           style="font-variation-settings:normal;opacity:1;vector-effect:none;fill:#715c28;fill-opacity:1;fill-rule:evenodd;stroke:none;stroke-width:1.14198;stroke-linecap:butt;stroke-linejoin:miter;stroke-miterlimit:4;stroke-dasharray:none;stroke-dashoffset:0;stroke-opacity:1;marker:none;marker-start:none;marker-mid:none;marker-end:none;stop-color:#000000;stop-opacity:1"
           id="path907" />
        <path
           transform="scale(0.26458333)"
           d="m 41.332031,249.92383 v 4 h 50.455078 l 6,-4 z m 83.736329,0 35.25391,99.56836 H 62.535156 l -6,4 H 166.32227 l -35.25391,-99.56836 h 99.78711 l 6,-4 z m 139.06836,0 35.2539,99.56836 h -97.7871 l -6,4 h 109.7871 l -35.2539,-99.56836 h 99.78711 l 6,-4 z m 139.06836,0 35.2539,99.56836 h -97.7871 l -6,4 h 109.7871 l -35.2539,-99.56836 h 99.78711 l 6,-4 z m 139.06836,0 35.2539,99.56836 h -97.78711 l -6,4 h 109.78711 l -35.2539,-99.56836 h 50.45703 v -4 z"
           style="font-variation-settings:normal;opacity:1;vector-effect:none;fill:#fee6a9;fill-opacity:1;fill-rule:evenodd;stroke:none;stroke-width:1.14198;stroke-linecap:butt;stroke-linejoin:miter;stroke-miterlimit:4;stroke-dasharray:none;stroke-dashoffset:0;stroke-opacity:1;marker:none;marker-start:none;marker-mid:none;marker-end:none;stop-color:#000000;stop-opacity:1"
           id="path965" />
      </g>
    </g>
  </g>
</svg>
