<?xml version="1.0" encoding="UTF-8" standalone="no"?>
<svg
   xmlns:dc="http://purl.org/dc/elements/1.1/"
   xmlns:cc="http://creativecommons.org/ns#"
   xmlns:rdf="http://www.w3.org/1999/02/22-rdf-syntax-ns#"
   xmlns:svg="http://www.w3.org/2000/svg"
   xmlns="http://www.w3.org/2000/svg"
   xmlns:xlink="http://www.w3.org/1999/xlink"
   xmlns:sodipodi="http://sodipodi.sourceforge.net/DTD/sodipodi-0.dtd"
   xmlns:inkscape="http://www.inkscape.org/namespaces/inkscape"
   width="334.35471"
   height="383.61615"
   viewBox="0 0 88.464681 101.49844"
   version="1.1"
   id="svg8"
   sodipodi:docname="keuruu.svg"
   inkscape:version="1.0 (4035a4fb49, 2020-05-01)">
  <defs
     id="defs2" />
  <sodipodi:namedview
     inkscape:lockguides="true"
     inkscape:snap-others="false"
     id="base"
     pagecolor="#ffffff"
     bordercolor="#666666"
     borderopacity="1.0"
     inkscape:pageopacity="0.0"
     inkscape:pageshadow="2"
     inkscape:zoom="5.1675"
     inkscape:cx="98.4869"
     inkscape:cy="59.277545"
     inkscape:document-units="px"
     inkscape:current-layer="layer1"
     inkscape:document-rotation="0"
     showgrid="false"
     units="px"
     inkscape:window-width="1920"
     inkscape:window-height="1017"
     inkscape:window-x="-8"
     inkscape:window-y="-8"
     inkscape:window-maximized="1"
     inkscape:showpageshadow="false"
     inkscape:object-nodes="true"
     inkscape:snap-global="false" />
  <metadata
     id="metadata5">
    <rdf:RDF>
      <cc:Work
         rdf:about="">
        <dc:format>image/svg+xml</dc:format>
        <dc:type
           rdf:resource="http://purl.org/dc/dcmitype/StillImage" />
        <dc:title />
      </cc:Work>
    </rdf:RDF>
  </metadata>
  <g
     inkscape:label="Шар 1"
     inkscape:groupmode="layer"
     id="layer1"
     transform="translate(-30.068832,-26.303528)">
    <path
       style="font-variation-settings:normal;opacity:1;vector-effect:none;fill:#e20f00;fill-opacity:1;fill-rule:evenodd;stroke:none;stroke-width:0.264583;stroke-linecap:butt;stroke-linejoin:miter;stroke-miterlimit:4;stroke-dasharray:none;stroke-dashoffset:0;stroke-opacity:1;marker:none;marker-start:none;marker-mid:none;marker-end:none;stop-color:#000000;stop-opacity:1"
       d="m 30.267269,26.501965 v 60.729471 c 0,22.056674 22.041953,40.372094 44.033909,40.372094 21.991956,0 44.033902,-18.31542 44.033902,-40.372094 V 26.501965 Z"
       id="path846"
       sodipodi:nodetypes="cszscc" />
    <path
       sodipodi:nodetypes="ccccc"
       id="path850"
       d="M 118.33508,59.45059 V 26.501966 H 30.267269 V 59.45059 Z"
       style="font-variation-settings:normal;opacity:1;vector-effect:none;fill:#cccccc;fill-opacity:1;fill-rule:evenodd;stroke:none;stroke-width:0.264583;stroke-linecap:butt;stroke-linejoin:miter;stroke-miterlimit:4;stroke-dasharray:none;stroke-dashoffset:0;stroke-opacity:1;marker:none;marker-start:none;marker-mid:none;marker-end:none;stop-color:#000000;stop-opacity:1" />
    <g
       id="g894">
      <path
         transform="scale(0.26458333)"
         d="m 127.91406,115.24023 c 0,0 -3.28974,14.22181 -1.25781,28.44532 2.03193,14.22351 20.00171,56.37109 76.13672,56.37109 h 172.46484 c 19.18894,0 34.8427,-13.13778 40.58985,-18.67969 0,0 -2.43626,8.95959 3.90039,15.59961 6.33664,6.64003 19.5,8.41602 19.5,8.41602 l 2.05273,-18.67774 c -9.64702,-1.8473 -12.93096,-5.95294 -13.75195,-12.93164 -0.82103,-6.9787 4.51562,-24.42578 4.51562,-24.42578 l -3.08007,-1.84765 c 0,0 -25.65677,0.61683 -34.07227,1.02734 -8.4155,0.41051 -6.91016,5.40625 -6.91016,5.40625 l 33.38086,1.45117 -2.66015,5.52539 c -11.99567,3.52557 -18.41593,6.36057 -40.63868,8.07031 -0.24123,-1.03982 -0.58163,-2.45022 -1.04882,-4.16992 -0.84235,-3.10062 -3.19736,-2.90392 -3.53321,-0.26172 -0.27915,2.1952 -0.3222,4.0855 -0.33398,4.78125 -1.69736,0.10681 -3.48449,0.20718 -5.35547,0.30274 -0.14545,-0.98927 -0.35843,-2.34957 -0.63672,-3.85742 -0.55314,-2.99728 -2.91649,-3.00513 -3.49414,-0.53711 -0.50305,2.1493 -0.73055,4.08026 -0.79102,4.61718 -5.22711,0.22187 -10.98204,0.41091 -17.61328,0.55274 -0.24152,-1.03936 -0.58174,-2.44876 -1.04296,-4.14649 -0.84235,-3.10062 -3.19736,-2.90392 -3.53321,-0.26171 -0.25034,1.96862 -0.3053,3.59724 -0.32617,4.49218 -1.48414,0.026 -2.92774,0.054 -4.48438,0.0762 -0.14542,-0.99673 -0.35709,-2.35385 -0.64648,-3.92187 -0.55314,-2.99727 -2.91454,-3.00513 -3.49219,-0.53711 -0.48589,2.07601 -0.70728,3.89412 -0.77929,4.52148 -4.44575,0.0497 -9.16842,0.0849 -14.20118,0.10547 -0.24,-1.01864 -0.57309,-2.38064 -0.98437,-3.89453 -0.84235,-3.10062 -3.19735,-2.90392 -3.5332,-0.26172 -0.2177,1.7119 -0.28462,3.15273 -0.31641,4.16602 -1.57665,0.003 -3.12354,0.009 -4.75781,0.01 -0.14267,-0.9994 -0.35011,-2.36595 -0.67188,-4.10937 -0.55314,-2.99727 -2.91649,-3.00513 -3.49414,-0.53711 -0.50899,2.17471 -0.73867,4.14563 -0.79492,4.64844 -4.30393,-0.006 -8.50082,-0.0577 -12.625,-0.13867 -0.23536,-1.02728 -0.57707,-2.46275 -1.0918,-4.35743 -0.84234,-3.10062 -3.19735,-2.90392 -3.5332,-0.26171 -0.2519,1.98088 -0.30777,3.62126 -0.32813,4.50781 -1.58683,-0.0432 -3.16094,-0.0905 -4.7207,-0.14453 -0.13581,-0.97176 -0.34505,-2.37984 -0.69922,-4.29883 -0.55314,-2.99728 -2.91454,-3.00318 -3.49218,-0.53516 -0.50694,2.16592 -0.73525,4.12194 -0.79297,4.63672 -4.34347,-0.18599 -8.59693,-0.40564 -12.72657,-0.67383 -0.16824,-0.97747 -0.44292,-2.50335 -0.9082,-4.64648 -0.68167,-3.13987 -3.0423,-3.06478 -3.51367,-0.44336 -0.3886,2.1611 -0.52895,4.02392 -0.57813,4.73633 -1.5871,-0.11786 -3.15024,-0.24538 -4.70507,-0.375 -0.0865,-0.98313 -0.22283,-2.39209 -0.47461,-4.30274 -0.39818,-3.02176 -2.75705,-3.14987 -3.46094,-0.71484 -0.6167,2.1334 -0.94627,4.06999 -1.03125,4.58594 -4.66805,-0.43566 -9.18582,-0.92372 -13.55664,-1.46094 -0.13671,-0.94116 -0.37724,-2.52116 -0.80664,-4.76758 -0.60325,-3.15587 -2.96544,-3.14012 -3.50195,-0.53125 -0.43223,2.10173 -0.61877,3.89733 -0.69141,4.6582 -1.57974,-0.21294 -3.12423,-0.4385 -4.66406,-0.66406 -0.0496,-0.85622 -0.15009,-2.4182 -0.38868,-4.6582 -0.32277,-3.03075 -2.67708,-3.21752 -3.4414,-0.80078 -0.70246,2.22112 -1.10433,4.33281 -1.17188,4.69336 -3.58148,-0.57174 -7.05743,-1.17407 -10.41601,-1.81055 -0.0745,-0.96853 -0.20635,-2.53912 -0.47656,-4.76562 -0.3871,-3.18961 -2.74618,-3.33389 -3.45899,-0.76758 -0.56603,2.03789 -0.8685,3.78033 -0.99805,4.5625 -1.29184,-0.26487 -2.56473,-0.53472 -3.82226,-0.8086 0.005,-0.98397 10e-4,-2.40329 -0.0723,-4.34179 -0.11579,-3.04569 -2.45385,-3.39233 -3.38086,-1.03321 -0.75365,1.91796 -1.21403,3.592 -1.39648,4.27539 -5.51409,-1.2958 -10.69676,-2.67335 -15.52735,-4.12109 -0.0654,-0.87665 -0.19902,-2.54973 -0.49023,-4.94922 -0.38709,-3.18961 -2.74618,-3.33389 -3.45898,-0.76758 -0.48641,1.75121 -0.7643,3.22222 -0.9336,4.19141 -1.4295,-0.46337 -2.82708,-0.9319 -4.19336,-1.40625 0.0425,-0.99102 0.0899,-2.39922 0.0899,-4.30274 0,-3.04789 -2.32193,-3.48235 -3.33789,-1.16015 -0.67738,1.54828 -1.12576,2.8704 -1.41602,3.77344 -12.59295,-4.73008 -22.27464,-9.88698 -29.40234,-14.94922 -2.03193,-6.96661 0.87109,-15.09375 0.87109,-15.09375 z"
         style="font-variation-settings:normal;opacity:1;vector-effect:none;fill:#000000;fill-opacity:1;fill-rule:evenodd;stroke:none;stroke-width:0.999999;stroke-linecap:butt;stroke-linejoin:miter;stroke-miterlimit:4;stroke-dasharray:none;stroke-dashoffset:0;stroke-opacity:1;marker:none;marker-start:none;marker-mid:none;marker-end:none;stop-color:#000000;stop-opacity:1"
         id="path852" />
      <path
         transform="scale(0.26458333)"
         d="m 186.06641,165.84375 c 0,0 -39.18712,-11.90022 -53.01368,-24.94141 0,0 15.41491,11.67186 48.25586,20.70313 32.54624,8.95021 93.18744,11.9043 138.34375,11.9043 45.15631,0 74.98647,-4.03675 86.07032,-6.70508 11.0838,-2.66833 13,-5.88477 13,-5.88477 -11.99567,3.52557 -18.41593,6.36057 -40.63868,8.07031 l -4.91601,0.34961 c -1.69736,0.10681 -3.48449,0.20718 -5.35547,0.30274 l -4.92188,0.22265 c -5.2271,0.22187 -10.98204,0.41091 -17.61328,0.55274 l -4.90234,0.084 c -1.48414,0.026 -2.92774,0.054 -4.48438,0.0762 l -4.91796,0.0625 c -4.44575,0.0497 -9.16842,0.0849 -14.20118,0.10547 l -4.83398,0.01 c -1.57665,0.003 -3.12354,0.009 -4.75781,0.01 l -4.96094,0.002 c -4.30393,-0.006 -8.50082,-0.0577 -12.625,-0.13867 l -4.95313,-0.11133 c -1.58682,-0.0432 -3.16094,-0.0905 -4.7207,-0.14453 l -4.98437,-0.19727 c -4.34347,-0.18599 -8.59693,-0.40564 -12.72657,-0.67383 l -5,-0.35351 c -1.5871,-0.11786 -3.15024,-0.24538 -4.70507,-0.375 l -21.80664,-1.48242 c 0,0 -28.86218,-1.71874 -57.1875,-10.75 -28.32533,-9.03126 -44.33594,-20.5254 -44.33594,-20.5254 0,0 1.64338,8.54114 4.25586,13.18555 0,0 23.22293,12.77329 43.25195,16.54688 0,0 -31.06084,-10.15993 -42.91308,-20.9004 0,0 26.17303,16.93224 52.29785,20.9961 z m 242.91797,-18.33398 c 0,0 -25.65677,0.61683 -34.07227,1.02734 -8.4155,0.41051 -6.91016,5.40625 -6.91016,5.40625 0,0 1.30112,-3.28498 9.92188,-3.49024 8.62076,-0.20526 34.14062,-1.0957 34.14062,-1.0957 z m -293.61915,7.98046 c 0,0 2.32307,6.09677 4.93555,9.58008 0,0 33.38021,11.90072 65.31055,15.09375 0,0 -41.5085,-8.70768 -58.63477,-15.09375 0,0 31.63998,8.41762 63.57032,13.64258 0,0 -47.02407,-9.86979 -61.82813,-16.25586 0,0 36.28297,10.45055 65.31055,14.80469 29.02757,4.35414 66.18359,4.64453 66.18359,4.64453 0,0 -41.21831,-2.32313 -71.69727,-7.25781 -30.47895,-4.93469 -73.15039,-19.15821 -73.15039,-19.15821 z m 75.18165,12.58008 2.90234,1.45117 c 0,0 11.48995,2.6893 38.02539,4.64454 27.5762,2.03192 37.15625,0.28906 37.15625,0.28906 0,0 -34.8329,-0.28897 -78.08398,-6.38477 z m -67.92383,0.48242 c 0,0 3.48159,5.22568 9.28711,8.70899 5.80551,3.48331 54.57271,11.61186 81.56836,13.35351 0,0 -56.0238,-7.54894 -69.95704,-12.19335 0,0 23.80366,4.35505 50.21875,7.25781 26.4151,2.90276 41.50977,0.87109 41.50977,0.87109 0,0 -41.22041,-1.74231 -67.92578,-6.38672 -26.70537,-4.64441 -44.70117,-11.61133 -44.70117,-11.61133 z m 272.95117,0.98829 c 0,0 -11.69902,4.5158 -32.22461,6.56836 -20.52559,2.05255 -33.45703,2.87304 -33.45703,2.87304 0,0 17.65267,-1.7e-4 35.30469,-2.05273 17.65201,-2.05256 33.04631,-6.77344 33.66211,-6.77344 0.61576,0 -3.28516,-0.61523 -3.28516,-0.61523 z m 8.00586,2.87304 c 0,0 -0.61543,8.00604 4.10547,12.31641 4.72089,4.31038 10.46679,4.7207 10.46679,4.7207 0,0 -4.72088,-2.87393 -9.03125,-6.36328 -4.31036,-3.48935 -5.54101,-10.67383 -5.54101,-10.67383 z m -11.49414,2.875 c 0,0 -12.11027,5.33665 -29.14649,6.77344 -17.03625,1.43679 -37.15234,3.07812 -37.15234,3.07812 13.13638,0.41052 42.33943,-1.7539 52.95703,-3.90039 10.61764,-2.14648 13.3418,-5.95117 13.3418,-5.95117 z m -5.54297,5.7461 c 0,0 -5.33574,3.90038 -21.3457,6.1582 -16.00997,2.25781 -36.74024,3.07812 -36.74024,3.07812 0,0 7.38865,1.027 27.70899,-0.82031 20.32033,-1.8473 33.45703,-8.21094 33.45703,-8.21094 z m -250.56836,0.29101 c 0,0 5.51503,6.38489 20.60937,11.0293 15.09434,4.64441 50.21875,3.48437 50.21875,3.48437 0,0 -24.38358,-1.74245 -35.41406,-2.61328 -11.03048,-0.87083 -18.86719,-4.35351 -18.86719,-4.35351 0,0 9.57742,2.32253 20.02735,3.19336 l -17.41602,-4.35547 c 0,0 14.51471,2.03225 26.41602,3.19336 0,0 -34.83402,-6.67537 -45.57422,-9.57813 z m 244,6.89258 c 0,0 -6.56782,3.49077 -20.73047,5.13281 -14.16268,1.64205 -25.65625,1.64063 -25.65625,1.64063 0,0 6.7734,1.8473 24.83594,0 18.06251,-1.8473 21.55078,-6.77344 21.55078,-6.77344 z"
         style="font-variation-settings:normal;opacity:1;vector-effect:none;fill:#404040;fill-opacity:1;fill-rule:evenodd;stroke:none;stroke-width:0.500001;stroke-linecap:butt;stroke-linejoin:miter;stroke-miterlimit:4;stroke-dasharray:none;stroke-dashoffset:0;stroke-opacity:1;marker:none;marker-start:none;marker-mid:none;marker-end:none;stop-color:#000000;stop-opacity:1"
         id="path887"
         sodipodi:nodetypes="ccssscccccccccccccccccccccsccccccscsccccccccscscccscccsccscsccscssccscsccscsccscscccscsccccccscsc" />
    </g>
    <g
       id="g1062"
       style="stroke:none;stroke-width:0;stroke-miterlimit:4;stroke-dasharray:none">
      <use
         height="100%"
         width="100%"
         transform="matrix(-1,0,0,1,148.60235,0)"
         id="use986"
         xlink:href="#g957"
         y="0"
         x="0"
         style="stroke:none;stroke-width:0;stroke-miterlimit:4;stroke-dasharray:none" />
      <path
         style="font-variation-settings:normal;opacity:1;vector-effect:none;fill:#808080;fill-opacity:1;fill-rule:evenodd;stroke:none;stroke-width:0;stroke-linecap:butt;stroke-linejoin:miter;stroke-miterlimit:4;stroke-dasharray:none;stroke-dashoffset:0;stroke-opacity:1;marker:none;marker-start:none;marker-mid:none;marker-end:none;stop-color:#000000;stop-opacity:1"
         d="m 69.659529,92.623363 4.300919,4.531325 2.304063,-2.150459 -5.222544,-3.6097 z"
         id="path1033" />
      <g
         id="g957"
         style="stroke:none;stroke-width:0;stroke-miterlimit:4;stroke-dasharray:none">
        <path
           style="font-variation-settings:normal;opacity:1;vector-effect:none;fill:#cccccc;fill-opacity:1;fill-rule:evenodd;stroke:none;stroke-width:0;stroke-linecap:butt;stroke-linejoin:miter;stroke-miterlimit:4;stroke-dasharray:none;stroke-dashoffset:0;stroke-opacity:1;marker:none;marker-start:none;marker-mid:none;marker-end:none;stop-color:#000000;stop-opacity:1"
           d="m 98.82119,116.68829 c 1.82954,-1.46017 1.5206,-3.80151 -0.59738,-5.43073 -2.117985,-1.62922 -50.452887,-49.227042 -51.681721,-50.071866 -1.228835,-0.844824 -1.920055,-0.0768 -3.225689,1.382437 -1.305637,1.459241 -1.551585,2.333448 1.827813,5.342076 3.379397,3.008627 47.463668,46.981363 49.205676,48.723783 1.742009,1.74241 2.641756,1.51448 4.471301,0.0543 z"
           id="path905"
           sodipodi:nodetypes="zszszzz" />
        <path
           transform="scale(0.26458333)"
           d="m 185.00195,260.86133 c 7.2569,10.44993 21.48047,22.64062 21.48047,22.64062 0,0 -3.2e-4,-1.15974 -3.19336,-4.0625 -3.19303,-2.90275 -18.28711,-18.57812 -18.28711,-18.57812 z m 0.29102,3.77148 c 0,0 16.73322,18.1497 38.49609,39.50196 21.7513,21.3409 100.44336,100.08007 100.44336,100.08007 C 308.59546,386.7983 246.25319,324.77812 224.49023,303.42578 202.73884,282.0848 185.29297,264.63281 185.29297,264.63281 Z m 23.25,20.25977 c 3.32906,3.22246 9.80449,9.59256 15.3418,15.23242 5.53731,5.63986 10.51562,10.2207 10.51562,10.2207 0,0 -4.25232,-5.27265 -9.79883,-10.92187 -5.54651,-5.64922 -11.99843,-12.00656 -16.05859,-14.53125 z m 33.24805,32.8457 c 8.24879,8.54462 41.05273,41.04688 41.05273,41.04688 0,0 -27.41561,-31.13909 -41.05273,-41.04688 z m 42.2832,39.4082 c 8.18369,12.03627 29.5977,33.17748 29.9668,32.8379 0,0 -22.21096,-24.97038 -29.9668,-32.8379 z m 41.86914,37.76563 c 0,0 26.42586,29.41531 36.95117,40.64062 -8.69832,-12.29404 -36.95117,-40.64062 -36.95117,-40.64062 z m 3.28906,12.72656 c 0,0 10.65879,13.43762 17.24024,18.06055 -4.86308,-6.1002 -16.85638,-18.38166 -17.24024,-18.06055 z m 7.38477,4.51758 c 0,0 7.00706,10.99617 18.47461,20.52148 -10.11954,-11.34035 -18.47461,-20.52148 -18.47461,-20.52148 z m 19.63867,21.68555 c 0,0 1.64292,5.74768 10.26367,8.41601 0,0 -1.43678,1.02664 -4.51562,-0.41015 -3.07884,-1.43679 -8.41602,-6.97852 -8.41602,-6.97852 0,0 4.1051,5.95277 9.03125,8.62109 4.92614,2.66833 12.51953,-6.36328 12.51953,-6.36328 0,0 -3.69301,2.87287 -6.36133,3.07813 -2.66833,0.20526 -4.72265,-2.05274 -4.72265,-2.05274 0,0 0.41139,2.05362 3.49023,3.28516 0,0 -4.31035,0.20403 -11.28906,-7.5957 z"
           style="font-variation-settings:normal;opacity:1;vector-effect:none;fill:#808080;fill-opacity:1;fill-rule:evenodd;stroke:none;stroke-width:0;stroke-linecap:butt;stroke-linejoin:miter;stroke-miterlimit:4;stroke-dasharray:none;stroke-dashoffset:0;stroke-opacity:1;marker:none;marker-start:none;marker-mid:none;marker-end:none;stop-color:#000000;stop-opacity:1"
           id="path1015" />
        <path
           transform="scale(0.26458333)"
           d="m 172.01562,229.93945 c -2.61227,0.19021 -4.90818,2.74735 -8.30078,6.53907 -4.67094,5.22046 -5.73355,8.47036 4.9961,18.44531 -1.79322,-2.54594 -3.85429,-5.45932 -4.9961,-7.0293 -2.32221,-3.19303 -2.03125,-5.51367 -2.03125,-5.51367 0,0 0.87068,2.61281 3.77344,3.19336 0,0 -1.74219,-1.45319 -1.74219,-3.77539 0,-2.32221 1.74219,-4.35352 1.74219,-4.35352 l 4.93555,1.45117 -2.61328,-2.90234 1.45117,-1.16016 c 5.29923,4.66555 11.52564,10.40473 16.25586,15.67383 0,0 -6.0965,-8.41877 -8.70899,-11.03125 -2.61248,-2.61248 -6.38476,-5.80469 -6.38476,-5.80468 0,0 3.19247,1.16196 6.67578,4.93554 0,0 -1.40031,-2.76828 -3.52148,-4.8789 -0.84317,-0.72085 -1.41407,-1.2168 -1.41407,-1.2168 0.50317,0.35222 0.96928,0.77422 1.41407,1.2168 2.02662,1.73263 6.1997,5.21862 11.93945,9.52343 8.12772,6.0958 45.63244,43.69566 59.58984,56.83203 13.9574,13.13639 59.935,59.93411 76.35547,75.12305 16.42048,15.18893 48.02965,46.79954 52.13477,50.49414 2.60326,2.34293 2.72623,8.4636 2.4707,12.64258 3.85171,-5.42645 2.0124,-12.60388 -4.79688,-17.8418 -8.00498,-6.15768 -190.68957,-186.05501 -195.33398,-189.24804 -1.45138,-0.99783 -2.70323,-1.40092 -3.89063,-1.31446 z m 8.33594,11.98828 c 0,0 20.11575,22.98952 30.78906,32.8418 10.67332,9.85229 20.11524,16.83008 20.11524,16.83008 0,0 -16.42062,-17.24005 -24.63086,-24.21875 -8.21024,-6.9787 -26.27344,-25.45313 -26.27344,-25.45313 z m 38.17774,35.30469 c 0,0 17.65109,18.06161 25.86132,25.86133 8.21025,7.79973 36.94727,38.58984 36.94727,38.58984 0,0 -17.65322,-21.75744 -27.91601,-31.19921 -10.2628,-9.44178 -34.89258,-33.25196 -34.89258,-33.25196 z m 10.67382,15.59961 13.95704,14.36719 c 0,0 -5.7468,-9.03053 -13.95704,-14.36719 z m 24.63086,23.80859 c 0,0 6.97852,8.212 11.49414,11.4961 0,0 -2.87339,-5.74893 -11.49414,-11.4961 z m 25.2461,20.52735 11.69922,11.49414 c 4.51563,4.51563 9.4414,7.38867 9.4414,7.38867 z m 7.59375,9.44141 0.82226,1.23046 c 0.82103,2.46308 14.36682,15.18944 28.32422,28.73633 13.95741,13.54688 25.04102,24.22071 25.04102,24.22071 0,0 -13.95667,-16.01137 -23.39844,-25.45313 -9.44177,-9.44177 -30.78906,-28.73437 -30.78906,-28.73437 z m 40.64062,36.94531 c 0,0 15.18997,16.83168 25.86328,26.27343 10.67331,9.44179 15.59784,14.77754 17.65039,16.83008 0.58894,0.58895 0.99547,1.17244 1.29493,1.71289 -1.01952,-2.53916 -3.31153,-6.67785 -8.27344,-10.33398 -7.79973,-5.74719 -36.53516,-34.48242 -36.53516,-34.48242 z m 44.8086,44.8164 c 0.58308,1.4522 0.75781,2.39258 0.75781,2.39258 0,0 -0.0136,-1.04944 -0.75781,-2.39258 z"
           style="font-variation-settings:normal;opacity:1;vector-effect:none;fill:#ffffff;fill-opacity:1;fill-rule:evenodd;stroke:none;stroke-width:0;stroke-linecap:butt;stroke-linejoin:miter;stroke-miterlimit:4;stroke-dasharray:none;stroke-dashoffset:0;stroke-opacity:1;marker:none;marker-start:none;marker-mid:none;marker-end:none;stop-color:#000000;stop-opacity:1"
           id="path968" />
      </g>
      <g
         id="g912"
         style="stroke:none;stroke-width:0;stroke-miterlimit:4;stroke-dasharray:none">
        <path
           sodipodi:nodetypes="zccz"
           style="font-variation-settings:normal;opacity:1;vector-effect:none;fill:#808080;fill-opacity:1;fill-rule:evenodd;stroke:none;stroke-width:0;stroke-linecap:butt;stroke-linejoin:miter;stroke-miterlimit:4;stroke-dasharray:none;stroke-dashoffset:0;stroke-opacity:1;marker:none;marker-start:none;marker-mid:none;marker-end:none;stop-color:#000000;stop-opacity:1"
           d="m 46.389826,64.728301 c -1.799685,0.365804 -0.925544,2.627883 -0.925544,2.627883 0,0 2.434508,3.967257 2.651736,3.206956 1.493451,-3.489243 0.07349,-6.200642 -1.726192,-5.834839 z"
           id="path959" />
        <path
           sodipodi:nodetypes="csszszcccscc"
           id="path909"
           d="m 48.334138,75.035676 c 0,0 2.406224,1.191998 2.859546,7.330401 0.453323,6.138403 0.773727,12.314093 0.690867,16.944582 -0.101643,5.679791 -0.891266,9.340151 -4.600991,9.340151 -3.709725,0 -4.499348,-3.66036 -4.600991,-9.340146 -0.08286,-4.630489 0.237545,-10.806179 0.690867,-16.944582 0.292653,-3.962801 1.399213,-5.864102 2.146835,-6.714043 0,0 -0.69343,-1.691591 0.765811,-3.304436 0,0 -1.971255,-1.484841 -0.281608,-3.788905 0,0 -1.922806,-2.722906 0.0768,-3.456095 2.304064,-0.844824 2.764877,4.224117 1.689647,5.760159 0,0 1.203232,2.201658 0.563215,4.172914 z"
           style="font-variation-settings:normal;opacity:1;vector-effect:none;fill:#cccccc;fill-opacity:1;fill-rule:evenodd;stroke:none;stroke-width:0;stroke-linecap:butt;stroke-linejoin:miter;stroke-miterlimit:4;stroke-dasharray:none;stroke-dashoffset:0;stroke-opacity:1;marker:none;marker-start:none;marker-mid:none;marker-end:none;stop-color:#000000;stop-opacity:1" />
        <path
           transform="scale(0.26458333)"
           d="m 175.35742,247.88086 c 0,0.41051 -0.41176,3.48899 1.43555,4.92578 1.8473,1.43679 2.66992,2.05274 2.66992,2.05274 0,0 -2.05238,-2.25675 -2.46289,-3.48829 -0.41051,-1.23153 -1.64258,-3.49023 -1.64258,-3.49023 z m 3.90039,4.10547 c 0,0 2.66779,5.54225 2.87305,8.62109 0.20527,3.07884 0,3.69336 0,3.69336 0,0 2.46361,-7.59356 -2.87305,-12.31445 z m -4.31054,1.43555 c 0,0 0.2049,0.61647 2.66796,3.69531 2.46308,3.07884 2.46289,7.80078 2.46289,7.80078 0,0 1.64135,-5.33718 -1.4375,-8.41602 -3.07883,-3.07883 -3.69335,-3.08008 -3.69335,-3.08007 z m -1.07227,5.69726 c 0,0 0.72922,4.42968 4.42383,8.94531 3.69461,4.51564 4.72035,12.7255 2.87305,16.21485 0,0 -2.46147,-4.72089 -4.10352,-6.77344 0,0 -0.20634,3.89968 1.23047,6.97852 1.43679,3.07884 2.66797,6.97851 2.66797,6.97851 0,0 4.10618,4.31108 1.02734,8.21094 -3.07884,3.89987 -7.8006,0.20457 -8.00586,-8.21094 0,0 -5.32611,14.02173 4.7207,14.16406 9.70545,0.1375 8.00623,-13.34267 3.08008,-19.08984 0,0 0.3457,-1.15452 0.89063,-2.9375 0.54494,-1.78298 1.76564,-8.20827 -2.12891,-15.77149 -3.89455,-7.56321 -6.67578,-8.70898 -6.67578,-8.70898 z m -0.67773,22.64258 c 0,0 1.9e-4,2.1755 2.75781,5.51367 2.75762,3.33817 2.75781,4.64453 2.75781,4.64453 0,0 0.43475,-2.61152 -2.17773,-5.36914 -2.61249,-2.75762 -3.33789,-4.78906 -3.33789,-4.78906 z m 13.64648,18.38672 c 0.0749,3.49786 0.57813,7.83203 0.57813,7.83203 0,0 1.12371,-3.54225 -0.57813,-7.83203 z m 2.22461,6.67187 c 0.36026,4.76998 1.18648,18.27379 1.7832,30.52539 0.59672,12.25161 1.26758,24.10938 1.26758,24.10938 0,0 0.32568,-11.90187 -0.27148,-24.16211 -0.59715,-12.26024 -1.39792,-25.66353 -2.7793,-30.47266 z m -2.80859,3.19336 c 0,0 0.37488,7.59875 1.16211,13.64453 0.82245,-6.55633 -1.16211,-13.64453 -1.16211,-13.64453 z m 1.1582,20.625 c 0.49317,4.45241 0.87805,17.70396 0.8418,29.33985 -0.0363,11.63588 -0.47425,23.21231 -1.04102,27.17968 -0.52054,3.64381 -1.67239,7.01931 -2.50781,8.37696 1.0406,-3.24163 2.33789,-15.91696 2.33789,-36.46485 -0.76505,-9.12577 0.58045,-18.9352 -2.81836,-27.57422 1.59855,8.45918 1.80744,19.9908 1.82226,27.57422 0,15.0177 -0.70243,27.39976 -1.56445,34.09375 -0.41896,3.25342 -1.3457,5.39844 -1.3457,5.39844 3.10702,-3.08784 4.58445,-8.04533 5.0664,-11.26367 0.59435,-4.16039 1.01837,-15.66157 1.05469,-27.32031 0.0363,-11.65875 0.013,-25.17189 -1.8457,-29.33985 z m 2.64648,31.43555 c -0.12805,6.1386 -0.30314,19.6906 -1.46289,27.90234 -1.15973,8.21174 -6.74414,12.05274 -6.74414,12.05274 0,0 5.36075,-2.42871 7.02735,-9.4375 -0.77013,5.48753 -2.72717,12.08994 -8.66993,13.95117 5.57006,-0.98018 8.39947,-6.94613 9.11524,-11.41992 1.65171,-11.14904 1.64589,-26.26004 0.73437,-33.04883 z"
           style="font-variation-settings:normal;opacity:1;vector-effect:none;fill:#808080;fill-opacity:1;fill-rule:evenodd;stroke:none;stroke-width:0;stroke-linecap:butt;stroke-linejoin:miter;stroke-miterlimit:4;stroke-dasharray:none;stroke-dashoffset:0;stroke-opacity:1;marker:none;marker-start:none;marker-mid:none;marker-end:none;stop-color:#000000;stop-opacity:1"
           id="path927" />
        <path
           sodipodi:nodetypes="ccscscssccsccccccsccccccccccccscscsccccccscsccsscsccsccsscsscccccccccccscsccccccsccccscsccscsc"
           transform="scale(0.26458333)"
           d="m 173.7793,257.37695 c 5.51524,3.62845 5.94922,7.69336 5.94922,7.69336 0,0 -1.16096,-6.96733 -3.77344,-8.70898 -2.61248,-1.74165 -2.03125,-4.64453 -2.03125,-4.64453 0,0 0.14446,1.0165 2.03125,1.74218 1.88679,0.72569 4.06445,3.48438 4.06445,3.48438 0,0 -0.72588,-2.32327 -2.75781,-3.48438 -2.03193,-1.1611 -3.91831,-3.48235 -2.90234,-5.36914 1.01596,-1.88678 3.77343,-0.14648 3.77343,-0.14648 -1.0538,-1.10649 -2.23872,-1.72471 -3.32422,-2.07617 -0.2111,0.0527 -0.42259,0.10879 -0.64257,0.18945 -4.9258,1.80613 -3.55473,6.77136 -2.00196,10.03516 l 1.5604,3.27661 z m 0.0957,1.74219 c -6.38607,8.70827 1.06445,14.32031 1.06445,14.32031 0,0 4.4998,3.77335 5.95117,9.86914 0,0 -7.9e-4,-4.93405 -2.61328,-8.5625 -2.61248,-3.62844 -3.91897,-3.19368 -5.08007,-6.38671 0,0 2.17705,2.90369 4.20898,3.04882 0,0 -4.20885,-3.48436 -3.77344,-7.69336 0,0 1.4509,5.08109 4.78907,6.24219 0,0 -5.32095,-6.1451 -4.54688,-10.83789 z m 5.12891,13.88477 c 0,0 2.46606,2.46704 2.17578,7.54687 0,0 2.17835,-6.38577 -2.17578,-7.54687 z m -4.65039,1.14843 c -3.92955,4.9007 -2.92093,9.77745 -2.47071,11.27149 0.10618,0.0697 0.29883,0.20703 0.29883,0.20703 0,0 4.64419,2.90415 5.66016,6.67773 0,0 -1.16022,-4.50052 -3.48242,-6.24218 -2.32221,-1.74166 -1.01563,-6.38477 -1.01563,-6.38477 0,0 0.58061,3.33708 2.32227,4.93359 1.23669,1.13364 1.79413,2.16983 2.02539,2.68946 -0.19089,-0.49954 -1.02293,-2.63596 -2.31641,-4.57617 -1.40569,-2.10853 -1.04581,-8.18832 -1.02148,-8.57618 z m 3.33789,13.15235 c 0.0233,0.061 0.15039,0.35937 0.15039,0.35937 0,0 -0.056,-0.1472 -0.15039,-0.35937 z m 5.27929,-1.33399 -0.43554,0.8711 c 0,0 1.16055,1.30562 2.46679,4.35351 1.30624,3.0479 1.01563,7.11133 1.01563,7.11133 0,0 2.0328,-2.03171 0.72656,-5.66016 -1.30624,-3.62844 -3.77344,-6.67578 -3.77344,-6.67578 z m -10.64453,0.24024 c 0,0 1.01602,2.90287 2.32227,4.64453 1.30624,1.74165 -0.28952,4.06525 0.29101,6.67773 0.58055,2.61249 3.33789,3.19336 3.33789,3.19336 0,0 -2.17712,-1.01656 -2.32226,-4.06445 -0.14514,-3.0479 0.14648,-3.62891 0.14648,-3.62891 0,0 -0.14534,4.35527 1.45117,5.80664 0,0 -0.14527,-3.04888 -0.43554,-5.37109 -0.29027,-2.32221 -2.75909,-6.09671 -4.79102,-7.25781 z m -0.99609,0.61523 c -2.77305,3.5633 -6.38098,10.70113 -7.39844,24.47852 -1.71334,23.20026 -2.9245,46.54191 -2.61133,64.04297 0.32633,18.23501 2.53352,30.95594 11.78321,34.375 -7.68641,-7.03023 -9.5122,-20.51085 -8.76172,-40.39844 0.82102,-21.75713 1.43696,-51.31515 2.05273,-61.7832 0.61577,-10.46806 2.93359,-12.42774 2.93359,-12.42774 -1.88679,7.11176 -0.72656,11.4668 -0.72656,11.4668 0.43542,-7.83745 4.5,-15.0957 4.5,-15.0957 -0.93796,-1.87594 -1.48257,-3.60864 -1.77148,-4.65821 z m 0.27148,10.70703 -0.43554,3.19336 c -1.16111,7.40204 0.72656,10.30469 0.72656,10.30469 -0.58056,-3.48331 0.28906,-9.72461 0.28906,-9.72461 z m -2.06054,14.25 c 0,0 -1.4368,14.91583 0,26.41016 0,0 -1.43627,11.28816 -0.61524,19.08789 0.82102,7.79972 0.82031,12.31641 0.82031,12.31641 0,0 1.23278,-2.87339 0.82227,-11.49414 -0.41051,-8.62076 0.41016,-20.11524 0.41016,-20.11524 0,0 -1.02699,-18.33693 -1.4375,-26.20508 z m -2.05274,21.07422 c 0,0 0.41032,10.67205 0.20508,14.98242 0,0 2.25799,-8.20897 -0.20508,-14.98242 z m -1.02539,7.38867 c 0,0 -0.41176,24.01526 -0.82227,33.45703 -0.41051,9.4418 0.82227,19.91016 0.82227,19.91016 v -23.60547 z m 6.1582,9.85157 c 0,0 0.61524,14.57368 0.61524,17.44726 0,2.87358 -2.66833,16.83113 0,24.63086 0,0 -0.6163,-12.52165 0.61523,-21.34766 1.23154,-8.826 -1.23047,-20.73046 -1.23047,-20.73046 z m -4.92773,18.67968 c 0,0 -1.43573,18.47247 1.02734,27.70899 2.46308,9.23652 6.15821,10.67383 6.15821,10.67383 0,0 -4.10636,-4.72194 -5.33789,-14.57422 -1.23154,-9.85229 -1.84766,-23.8086 -1.84766,-23.8086 z"
           style="font-variation-settings:normal;opacity:1;vector-effect:none;fill:#ffffff;fill-opacity:1;fill-rule:evenodd;stroke:none;stroke-width:0;stroke-linecap:butt;stroke-linejoin:miter;stroke-miterlimit:4;stroke-dasharray:none;stroke-dashoffset:0;stroke-opacity:1;marker:none;marker-start:none;marker-mid:none;marker-end:none;stop-color:#000000;stop-opacity:1"
           id="path936" />
      </g>
      <use
         height="100%"
         width="100%"
         transform="translate(54.03523)"
         id="use916"
         xlink:href="#g912"
         y="0"
         x="0"
         style="stroke:none;stroke-width:0;stroke-miterlimit:4;stroke-dasharray:none" />
    </g>
    <path
       sodipodi:nodetypes="cszscc"
       id="path1064"
       d="m 30.267269,26.501965 v 60.729471 c 0,22.056674 22.041953,40.372094 44.033909,40.372094 21.991956,0 44.033902,-18.31542 44.033902,-40.372094 V 26.501965 Z"
       style="font-variation-settings:normal;opacity:1;vector-effect:none;fill:none;fill-opacity:1;fill-rule:evenodd;stroke:#e20f00;stroke-width:0.396875;stroke-linecap:butt;stroke-linejoin:miter;stroke-miterlimit:4;stroke-dasharray:none;stroke-dashoffset:0;stroke-opacity:1;marker:none;marker-start:none;marker-mid:none;marker-end:none;stop-color:#000000;stop-opacity:1" />
  </g>
</svg>
