<?xml version="1.0" encoding="UTF-8" standalone="no"?>
<svg
   xmlns:dc="http://purl.org/dc/elements/1.1/"
   xmlns:cc="http://creativecommons.org/ns#"
   xmlns:rdf="http://www.w3.org/1999/02/22-rdf-syntax-ns#"
   xmlns:svg="http://www.w3.org/2000/svg"
   xmlns="http://www.w3.org/2000/svg"
   width="500"
   height="572"
   viewBox="0 0 132.29166 151.34167"
   version="1.1"
   id="svg847">
  <defs
     id="defs841" />
  <metadata
     id="metadata844">
    <rdf:RDF>
      <cc:Work
         rdf:about="">
        <dc:format>image/svg+xml</dc:format>
        <dc:type
           rdf:resource="http://purl.org/dc/dcmitype/StillImage" />
        <dc:title></dc:title>
      </cc:Work>
    </rdf:RDF>
  </metadata>
  <g
     id="layer1"
     transform="translate(-38.006983,-58.571619)">
    <path
       id="path987"
       style="opacity:1;fill:#0056c7;fill-opacity:0.996078;stroke:none;stroke-width:1;stroke-miterlimit:10;stroke-dasharray:none"
       d="m 143.64844,500.64453 v 42.72852 c 0,138.07119 111.9288,250 250,250 11.28189,0 22.38547,-0.76117 33.27148,-2.20899 l 136.13281,-63.95508 c 30.75564,-28.3557 54.37756,-64.3269 67.87305,-104.92578 L 643.64844,441.23438 V 221.37305 h -500 v 86.43164 c 5.24822,64.27995 6.82965,128.55989 0,192.83984 z"
       transform="scale(0.26458333)" />
    <path
       id="path925"
       style="font-variation-settings:normal;vector-effect:none;fill:#bf9f4f;fill-opacity:1;stroke:none;stroke-width:0.999999;stroke-linecap:butt;stroke-linejoin:miter;stroke-miterlimit:10;stroke-dasharray:none;stroke-dashoffset:0;stroke-opacity:1;stop-color:#000000"
       d="m 238.13867,221.37305 -4.8457,27.29492 45.86523,-8.14258 -8.14258,45.86523 45.86719,-8.14257 -8.14258,45.86718 45.86524,-8.14257 -8.14258,45.86523 45.86719,-8.14258 -8.14258,45.86719 45.86719,-8.14258 -8.14258,45.86524 45.86523,-8.14258 -8.14257,45.86719 45.86718,-8.14258 -8.14257,45.86523 45.86523,-8.14062 -8.14258,45.86523 45.86719,-8.14258 -8.14258,45.86719 45.86524,-8.14258 -8.14258,45.86524 20.39648,-3.6211 c 8.2461,-24.80698 12.72266,-51.33411 12.72266,-78.91015 V 441.23438 L 423.78711,221.37305 Z m -94.49023,86.43164 v 192.83984 l 24.67968,-4.38086 -8.14257,45.86524 45.86523,-8.14258 -8.14258,45.86719 45.86719,-8.14258 -8.14258,45.86523 45.86524,-8.14062 -8.14258,45.86523 45.86719,-8.14258 -8.14258,45.86719 45.86523,-8.14258 -8.14062,45.86524 45.86523,-8.14258 -8.14258,45.86719 45.86719,-8.14258 -5.47461,30.83398 c 52.18479,-6.94046 99.27665,-29.97488 136.13281,-63.95508 z"
       transform="scale(0.26458333)" />
  </g>
</svg>
