<?xml version="1.0" encoding="UTF-8" standalone="no"?>
<svg xmlns:dc="http://purl.org/dc/elements/1.1/" xmlns:cc="http://creativecommons.org/ns#" xmlns:rdf="http://www.w3.org/1999/02/22-rdf-syntax-ns#" xmlns:svg="http://www.w3.org/2000/svg" xmlns="http://www.w3.org/2000/svg" xmlns:sodipodi="http://sodipodi.sourceforge.net/DTD/sodipodi-0.dtd" xmlns:inkscape="http://www.inkscape.org/namespaces/inkscape" inkscape:version="1.0 (4035a4fb49, 2020-05-01)" sodipodi:docname="kinnula.svg" id="svg8" version="1.1" viewBox="0 0 132.29166 147.6375" height="558" width="500">
  <defs id="defs2"/>
  <sodipodi:namedview inkscape:object-nodes="true" inkscape:showpageshadow="false" inkscape:window-maximized="1" inkscape:window-y="-8" inkscape:window-x="-8" inkscape:window-height="1017" inkscape:window-width="1920" units="px" showgrid="false" inkscape:document-rotation="0" inkscape:current-layer="layer1" inkscape:document-units="px" inkscape:cy="340.3508" inkscape:cx="110.03083" inkscape:zoom="0.64593752" inkscape:pageshadow="2" inkscape:pageopacity="0.0" borderopacity="1.0" bordercolor="#666666" pagecolor="#ffffff" id="base" inkscape:snap-others="false" inkscape:lockguides="true"/>
  <metadata id="metadata5">
    <rdf:RDF>
      <cc:Work rdf:about="">
        <dc:format>image/svg+xml</dc:format>
        <dc:type rdf:resource="http://purl.org/dc/dcmitype/StillImage"/>
        <dc:title/>
      </cc:Work>
    </rdf:RDF>
  </metadata>
  <g transform="translate(-18.330107,-34.407201)" id="layer1" inkscape:groupmode="layer" inkscape:label="Шар 1">
    <g style="stroke-width:1.1606" transform="matrix(0.86199207,0,0,0.86124926,2.5297001,4.7740246)" id="g1068">
      <path sodipodi:nodetypes="cszscc" id="path846" d="m 171.80213,34.407353 c 0,0 -2.45766,78.338167 -2.45766,101.993227 0,25.80551 -22.87014,69.42912 -74.27835,69.42912 -51.408208,0 -74.278345,-43.62361 -74.278345,-69.42912 0,-23.65506 -2.457668,-101.993227 -2.457668,-101.993227 z" style="font-variation-settings:normal;opacity:1;vector-effect:none;fill:#cccccc;fill-opacity:1;fill-rule:evenodd;stroke:none;stroke-width:0.307076;stroke-linecap:butt;stroke-linejoin:miter;stroke-miterlimit:4;stroke-dasharray:none;stroke-dashoffset:0;stroke-opacity:1;marker:none;marker-start:none;marker-mid:none;marker-end:none;stop-color:#000000;stop-opacity:1"/>
      <g style="stroke-width:1.1606" id="g894" transform="rotate(46.252487,238.13678,-189.94889)">
        <path id="path860" style="font-variation-settings:normal;opacity:1;vector-effect:none;fill:#d40000;fill-opacity:1;fill-rule:evenodd;stroke:none;stroke-width:1.1606;stroke-linecap:butt;stroke-linejoin:miter;stroke-miterlimit:4;stroke-dasharray:none;stroke-dashoffset:0;stroke-opacity:1;marker:none;marker-start:none;marker-mid:none;marker-end:none;stop-color:#000000;stop-opacity:1" d="m 290.10938,359.90039 -53.2129,50.9375 1.28711,51.00195 -56.54101,54.1211 -1.28711,-51.00391 -53.21485,50.9375 1.28711,51.00391 -32.999996,31.58789 c 8.541826,22.16698 20.402526,44.64347 35.714846,65.85156 l 47.25586,-45.23633 50.90039,3.51758 53.21484,-50.9375 -50.90039,-3.51758 56.53906,-54.11914 50.90039,3.51563 53.21485,-50.9375 -50.90039,-3.51563 24.80664,-23.74414 -49.97071,-52.20508 -24.80664,23.74414 z" transform="matrix(0.18295453,-0.19113341,0.19113341,0.18295453,210.68749,113.42587)"/>
        <path id="path888" style="font-variation-settings:normal;opacity:1;vector-effect:none;fill:#000000;fill-opacity:1;fill-rule:evenodd;stroke:none;stroke-width:1.1606;stroke-linecap:butt;stroke-linejoin:miter;stroke-miterlimit:4;stroke-dasharray:none;stroke-dashoffset:0;stroke-opacity:1;marker:none;marker-start:none;marker-mid:none;marker-end:none;stop-color:#000000;stop-opacity:1" d="m 567.02734,130.04297 0.41993,16.62305 -56.54102,54.12109 -1.28711,-51.00391 -53.21484,50.9375 1.28711,51.00391 -56.53907,54.12109 -1.28711,-51.0039 -53.21484,50.9375 1.28711,51.00195 -31.73438,30.37695 49.97071,52.20508 31.73437,-30.37695 50.89844,3.51758 53.21484,-50.9375 -50.89843,-3.51758 56.53906,-54.1211 50.90039,3.51758 53.21289,-50.9375 -50.89844,-3.51758 56.53907,-54.11914 29.7832,2.05664 c 1.21473,-41.31217 2.13086,-70.88476 2.13086,-70.88476 z" transform="matrix(0.18295453,-0.19113341,0.19113341,0.18295453,210.68749,113.42587)"/>
        <path id="path885" style="font-variation-settings:normal;opacity:1;vector-effect:none;fill:#ffffff;fill-opacity:1;fill-rule:evenodd;stroke:none;stroke-width:1.1606;stroke-linecap:butt;stroke-linejoin:miter;stroke-miterlimit:4;stroke-dasharray:none;stroke-dashoffset:0;stroke-opacity:1;marker:none;marker-start:none;marker-mid:none;marker-end:none;stop-color:#000000;stop-opacity:1" d="m 567.02734,130.04297 0.41993,16.62305 -56.54102,54.12109 0.0684,2.70703 59.30078,-56.76367 -0.42187,-16.6875 z m -57.4082,19.74023 -53.21484,50.9375 1.28711,51.00391 -56.53907,54.12109 0.0684,2.70508 59.30078,-56.76367 -1.28906,-51.00391 50.45508,-48.29687 z m 51.25586,103.20703 -2.88867,2.76563 50.90039,3.51758 2.88867,-2.76563 z m -161.00977,1.85157 -53.21484,50.9375 1.28711,51.00195 -56.54102,54.12109 0.0684,2.70704 59.30078,-56.76368 -1.2871,-51.0039 50.45507,-48.29688 z m 51.25586,103.20703 -2.88867,2.76562 50.89844,3.51563 2.89062,-2.76563 z m -161.01171,1.85156 -53.2129,50.9375 1.28711,51.00195 -56.54101,54.1211 0.0684,2.70703 59.30078,-56.76367 -1.28906,-51.00586 50.45507,-48.29492 z m 51.25781,103.20703 -2.89063,2.76563 50.90039,3.51562 2.88867,-2.76562 z m -161.01172,1.84961 -53.21485,50.9375 1.28711,51.00391 -32.999996,31.58789 c 0.258216,0.6701 0.528697,1.34109 0.792969,2.01172 l 35.037107,-33.53711 -1.28906,-51.00391 50.45508,-48.29492 z m 51.25781,103.20703 -2.89062,2.76563 50.90039,3.51758 2.88867,-2.76563 z" transform="matrix(0.18295453,-0.19113341,0.19113341,0.18295453,210.68749,113.42587)"/>
      </g>
      <g style="stroke-width:1.1606" transform="rotate(46.252487,211.67845,-127.99684)" id="use896">
        <path id="path971" style="font-variation-settings:normal;opacity:1;vector-effect:none;fill:#d40000;fill-opacity:1;fill-rule:evenodd;stroke:none;stroke-width:1.1606;stroke-linecap:butt;stroke-linejoin:miter;stroke-miterlimit:4;stroke-dasharray:none;stroke-dashoffset:0;stroke-opacity:1;marker:none;marker-start:none;marker-mid:none;marker-end:none;stop-color:#000000;stop-opacity:1" d="m 428.40625,504.37891 -53.21484,50.9375 1.28711,51.00195 -56.53907,54.12109 -1.28711,-51.0039 -53.21484,50.9375 1.28711,51.0039 -38.38281,36.74219 c 23.12014,11.7072 49.05958,20.54427 77.91797,25.45117 l 10.43554,-9.98828 50.89844,3.51563 53.21484,-50.9375 -50.89843,-3.51563 56.53906,-54.12109 50.90039,3.51562 53.21484,-50.9375 -50.90039,-3.51562 L 504.46875,583.8418 454.5,531.63672 429.69336,555.38086 Z" transform="matrix(0.18295453,-0.19113341,0.19113341,0.18295453,157.77082,113.42587)"/>
        <path id="path973" style="font-variation-settings:normal;opacity:1;vector-effect:none;fill:#000000;fill-opacity:1;fill-rule:evenodd;stroke:none;stroke-width:1.1606;stroke-linecap:butt;stroke-linejoin:miter;stroke-miterlimit:4;stroke-dasharray:none;stroke-dashoffset:0;stroke-opacity:1;marker:none;marker-start:none;marker-mid:none;marker-end:none;stop-color:#000000;stop-opacity:1" d="m 644.46875,297.5625 -49.76758,47.63672 1.28711,51.0039 -56.53906,54.1211 -1.28906,-51.00391 -53.21289,50.9375 1.28711,51.00391 -31.73438,30.375 49.96875,52.20508 31.73633,-30.37696 50.89844,3.51758 52.99023,-50.72265 c 4.1e-4,-0.0767 -4.2e-4,-0.15356 0,-0.23047 l -50.67578,-3.50196 51.36719,-49.16601 c 0.8255,-45.44501 2.2356,-102.21569 3.68359,-155.79883 z" transform="matrix(0.18295453,-0.19113341,0.19113341,0.18295453,157.77082,113.42587)"/>
        <path id="path975" style="font-variation-settings:normal;opacity:1;vector-effect:none;fill:#ffffff;fill-opacity:1;fill-rule:evenodd;stroke:none;stroke-width:1.1606;stroke-linecap:butt;stroke-linejoin:miter;stroke-miterlimit:4;stroke-dasharray:none;stroke-dashoffset:0;stroke-opacity:1;marker:none;marker-start:none;marker-mid:none;marker-end:none;stop-color:#000000;stop-opacity:1" d="m 644.46875,297.5625 -49.76758,47.63672 1.28711,51.0039 -56.53906,54.1211 0.0664,2.70508 59.30274,-56.76368 -1.28906,-51.0039 46.86328,-44.85742 c 0.0253,-0.94027 0.0508,-1.90364 0.0762,-2.8418 z m -106.30859,101.75781 -53.21289,50.9375 1.28711,51.00391 -56.54102,54.11914 0.0684,2.70703 59.30078,-56.76367 -1.28906,-51.00391 50.45508,-48.29687 z m 51.25781,103.20703 -2.89063,2.76563 50.90039,3.51758 2.66602,-2.55469 c 4.1e-4,-0.0761 -4.2e-4,-0.15225 0,-0.22852 z m -161.01172,1.85157 -53.21484,50.9375 1.28711,51.00195 -56.53907,54.12109 0.0684,2.70703 59.30078,-56.76367 -1.28906,-51.00586 50.45508,-48.29492 z m 51.25781,103.20703 -2.89062,2.76562 50.90039,3.51563 2.88867,-2.76563 z m -161.01172,1.84961 -53.21484,50.9375 1.28711,51.0039 -38.38281,36.74219 c 0.6307,0.31936 1.25963,0.64001 1.89453,0.95508 l 39.31836,-37.63477 -1.28907,-51.0039 50.45508,-48.29493 z m 51.25586,103.20703 -2.88867,2.76562 50.89844,3.51758 2.89062,-2.76562 z" transform="matrix(0.18295453,-0.19113341,0.19113341,0.18295453,157.77082,113.42587)"/>
      </g>
      <g style="stroke-width:1.1606" transform="rotate(46.252487,264.59511,-251.90094)" id="use898">
        <path id="path963" style="font-variation-settings:normal;opacity:1;vector-effect:none;fill:#d40000;fill-opacity:1;fill-rule:evenodd;stroke:none;stroke-width:1.1606;stroke-linecap:butt;stroke-linejoin:miter;stroke-miterlimit:4;stroke-dasharray:none;stroke-dashoffset:0;stroke-opacity:1;marker:none;marker-start:none;marker-mid:none;marker-end:none;stop-color:#000000;stop-opacity:1" d="m 151.81445,215.42188 -53.214841,50.93554 1.28711,51.00391 -24.607422,23.55469 c 1.277497,49.91608 2.400825,99.08988 2.939453,136.34179 l 12.783203,0.88281 53.214847,-50.9375 -50.900394,-3.51757 56.541014,-54.11914 50.89844,3.51562 53.21484,-50.9375 -50.89843,-3.51562 24.80468,-23.74414 -49.9707,-52.20508 -24.80469,23.74414 z" transform="matrix(0.18295453,-0.19113341,0.19113341,0.18295453,263.60416,113.42586)"/>
        <path id="path965" style="font-variation-settings:normal;opacity:1;vector-effect:none;fill:#000000;fill-opacity:1;fill-rule:evenodd;stroke:none;stroke-width:1.1606;stroke-linecap:butt;stroke-linejoin:miter;stroke-miterlimit:4;stroke-dasharray:none;stroke-dashoffset:0;stroke-opacity:1;marker:none;marker-start:none;marker-mid:none;marker-end:none;stop-color:#000000;stop-opacity:1" d="m 241.00977,130.04297 -32.65625,31.25781 1.2871,51.00195 -31.73437,30.37696 49.9707,52.20508 31.73438,-30.37696 50.90039,3.51563 53.21289,-50.9375 -50.89844,-3.51563 56.53906,-54.12109 50.90039,3.51758 34.39649,-32.92383 H 295.58008 l -32.72461,31.32226 -0.79102,-31.32226 z" transform="matrix(0.18295453,-0.19113341,0.19113341,0.18295453,263.60416,113.42586)"/>
        <path id="path967" style="font-variation-settings:normal;opacity:1;vector-effect:none;fill:#ffffff;fill-opacity:1;fill-rule:evenodd;stroke:none;stroke-width:1.1606;stroke-linecap:butt;stroke-linejoin:miter;stroke-miterlimit:4;stroke-dasharray:none;stroke-dashoffset:0;stroke-opacity:1;marker:none;marker-start:none;marker-mid:none;marker-end:none;stop-color:#000000;stop-opacity:1" d="m 241.00977,130.04297 -32.65625,31.25781 1.2871,51.00195 -56.53906,54.1211 0.0684,2.70703 59.30078,-56.76367 -1.28906,-51.00586 32.71875,-31.31836 z m 54.57031,0 -32.72461,31.32226 0.0684,2.70704 35.55078,-34.0293 z m 17.24414,83.52734 -2.88867,2.76563 50.90039,3.51562 2.88867,-2.76562 z m -161.00977,1.85157 -53.214841,50.93554 1.28711,51.00391 -24.607422,23.55469 c 0.02319,0.90598 0.04723,1.79749 0.07031,2.70312 l 27.365233,-26.19531 -1.28711,-51.00391 50.45508,-48.29492 z m 51.25586,103.20507 -2.88867,2.76758 50.89844,3.51563 2.89062,-2.76563 z m -109.753904,105.0586 -2.890625,2.76562 50.900389,3.51758 2.88867,-2.76563 z" transform="matrix(0.18295453,-0.19113341,0.19113341,0.18295453,263.60416,113.42586)"/>
      </g>
    </g>
  </g>
</svg>