<?xml version="1.0" encoding="UTF-8" standalone="no"?>
<svg
   xmlns:dc="http://purl.org/dc/elements/1.1/"
   xmlns:cc="http://creativecommons.org/ns#"
   xmlns:rdf="http://www.w3.org/1999/02/22-rdf-syntax-ns#"
   xmlns:svg="http://www.w3.org/2000/svg"
   xmlns="http://www.w3.org/2000/svg"
   width="382.00391"
   height="460.95898"
   viewBox="0 0 101.07186 121.96207"
   version="1.1"
   id="svg8">
  <defs
     id="defs2" />
  <metadata
     id="metadata5">
    <rdf:RDF>
      <cc:Work
         rdf:about="">
        <dc:format>image/svg+xml</dc:format>
        <dc:type
           rdf:resource="http://purl.org/dc/dcmitype/StillImage" />
        <dc:title></dc:title>
      </cc:Work>
    </rdf:RDF>
  </metadata>
  <g
     id="layer1"
     transform="translate(-22.938134,-31.744832)">
    <path
       d="M 22.938134,31.744832 V 96.787889 H 124.01 V 31.744832 Z"
       style="font-variation-settings:normal;vector-effect:none;fill:#0057f0;fill-opacity:1;fill-rule:evenodd;stroke:none;stroke-width:0.264583;stroke-linecap:butt;stroke-linejoin:miter;stroke-miterlimit:4;stroke-dasharray:none;stroke-dashoffset:0;stroke-opacity:1;marker:none;marker-start:none;marker-mid:none;marker-end:none;stop-color:#000000"
       id="path1059" />
    <path
       d="M 22.938134,31.744832 V 96.787889 H 124.01 V 31.744832 Z"
       style="font-variation-settings:normal;vector-effect:none;fill:#0057f0;fill-opacity:1;fill-rule:evenodd;stroke:none;stroke-width:0.264583;stroke-linecap:butt;stroke-linejoin:miter;stroke-miterlimit:4;stroke-dasharray:none;stroke-dashoffset:0;stroke-opacity:1;marker:none;marker-start:none;marker-mid:none;marker-end:none;stop-color:#000000"
       id="path866" />
    <path
       d="M 22.938134,31.744832 V 96.787889 H 124.01 V 31.744832 Z"
       style="font-variation-settings:normal;vector-effect:none;fill:#0056b8;fill-opacity:1;fill-rule:evenodd;stroke:none;stroke-width:0.264583;stroke-linecap:butt;stroke-linejoin:miter;stroke-miterlimit:4;stroke-dasharray:none;stroke-dashoffset:0;stroke-opacity:1;marker:none;marker-start:none;marker-mid:none;marker-end:none;stop-color:#000000"
       id="path868" />
    <path
       id="path848"
       style="font-variation-settings:normal;vector-effect:none;fill:#c7c7c7;fill-opacity:1;fill-rule:evenodd;stroke:none;stroke-width:0.999999;stroke-linecap:butt;stroke-linejoin:miter;stroke-miterlimit:4;stroke-dasharray:none;stroke-dashoffset:0;stroke-opacity:1;marker:none;marker-start:none;marker-mid:none;marker-end:none;stop-color:#000000"
       d="M 86.732422 216.75 C 64.828442 216.75 56.501636 229.33984 34.597656 229.33984 C 19.608336 229.33984 10.975065 223.44695 0 219.72461 L 0 245.83203 C 0 348.00911 53.435596 401.74274 191.00195 460.95898 C 328.56831 401.74274 382.00391 348.00911 382.00391 245.83203 L 382.00391 219.72461 C 371.02883 223.44695 362.39555 229.33984 347.40625 229.33984 C 325.50226 229.33984 317.17543 216.75 295.27148 216.75 C 273.36749 216.75 265.04068 229.33984 243.13672 229.33984 C 221.23273 229.33984 212.90594 216.75 191.00195 216.75 C 169.09797 216.75 160.77117 229.33984 138.86719 229.33984 C 116.9632 229.33984 108.63641 216.75 86.732422 216.75 z "
       transform="matrix(0.26458333,0,0,0.26458333,22.938134,31.744832)" />
    <path
       id="path885"
       style="font-variation-settings:normal;vector-effect:none;fill:#ffffff;fill-opacity:1;fill-rule:evenodd;stroke:none;stroke-width:0.999999;stroke-linecap:butt;stroke-linejoin:miter;stroke-miterlimit:4;stroke-dasharray:none;stroke-dashoffset:0;stroke-opacity:1;marker:none;marker-start:none;marker-mid:none;marker-end:none;stop-color:#000000"
       d="M 86.732422 214.75 C 64.828442 214.75 56.501636 227.33984 34.597656 227.33984 C 19.608336 227.33984 10.975065 221.44695 0 217.72461 L 0 221.72461 C 10.975065 225.44695 19.608336 231.33984 34.597656 231.33984 C 56.501636 231.33984 64.828442 218.75 86.732422 218.75 C 108.63641 218.75 116.9632 231.33984 138.86719 231.33984 C 160.77117 231.33984 169.09797 218.75 191.00195 218.75 C 212.90594 218.75 221.23273 231.33984 243.13672 231.33984 C 265.04068 231.33984 273.36749 218.75 295.27148 218.75 C 317.17543 218.75 325.50226 231.33984 347.40625 231.33984 C 362.39555 231.33984 371.02883 225.44695 382.00391 221.72461 L 382.00391 217.72461 C 371.02883 221.44695 362.39555 227.33984 347.40625 227.33984 C 325.50226 227.33984 317.17543 214.75 295.27148 214.75 C 273.36749 214.75 265.04068 227.33984 243.13672 227.33984 C 221.23273 227.33984 212.90594 214.75 191.00195 214.75 C 169.09797 214.75 160.77117 227.33984 138.86719 227.33984 C 116.9632 227.33984 108.63641 214.75 86.732422 214.75 z "
       transform="matrix(0.26458333,0,0,0.26458333,22.938134,31.744832)" />
    <g
       id="g909">
      <path
         id="path902"
         d="m 37.995977,103.03799 c 0,0 0.05957,15.71599 19.821037,27.78444 l 31.085697,0.0582 c 19.761459,-12.06845 20.269399,-27.96329 20.269399,-27.96329 0,0 -1.88259,0.47447 -4.16349,1.452 0,0 0.0735,0.85573 -0.045,2.17887 0,0 -9.877335,3.13392 -16.502826,4.22007 l -0.26222,3.80151 c 0,0 -7.0955,0.96622 -14.724508,0.96622 -7.629009,0 -14.532504,-1.27343 -14.532504,-1.27343 l -0.09034,-3.16858 -16.63631,-4.8146 c -0.07034,-0.78537 -0.08204,-1.13423 -0.0836,-1.50904 z"
         style="font-variation-settings:normal;vector-effect:none;fill:#0056b8;fill-opacity:1;fill-rule:evenodd;stroke:none;stroke-width:0.264583;stroke-linecap:butt;stroke-linejoin:miter;stroke-miterlimit:4;stroke-dasharray:none;stroke-dashoffset:0;stroke-opacity:1;marker:none;marker-start:none;marker-mid:none;marker-end:none;stop-color:#000000" />
      <path
         id="path999"
         style="font-variation-settings:normal;vector-effect:none;fill:#022f64;fill-opacity:1;fill-rule:evenodd;stroke:none;stroke-width:0.264583;stroke-linecap:butt;stroke-linejoin:miter;stroke-miterlimit:4;stroke-dasharray:none;stroke-dashoffset:0;stroke-opacity:1;marker:none;marker-start:none;marker-mid:none;marker-end:none;stop-color:#000000"
         d="m 108.86709,103.02103 c -0.27964,2.79444 -2.33957,16.63704 -20.022493,27.43612 H 56.797084 l 1.058334,0.74931 H 89.092787 C 108.85424,119.13801 109.4409,102.49503 109.4409,102.49503 Z m -66.08985,3.95058 -0.418729,0.002 c 0.322756,4.83341 3.82179,9.97518 7.598554,13.19421 7.410272,6.17524 14.024965,8.20312 23.517578,8.20312 9.492613,0 16.107307,-2.02788 23.517579,-8.20312 5.156088,-4.54043 7.528688,-7.53859 8.270118,-13.35935 l -0.5293,-0.0293 c 0,0 -0.17952,1.54696 -0.89453,3.6543 -6.008349,2.82055 -15.371155,3.8331 -15.371155,3.8331 l 0.06836,0.52539 c 0,0 8.953958,-0.96316 15.113555,-3.72537 -0.46005,1.19748 -1.22826,2.16562 -2.16834,3.60257 -0.35033,0.15619 -10.065611,4.21561 -28.006287,4.21561 -17.940676,0 -27.440682,-4.16803 -27.791015,-4.32422 -0.940083,-1.43695 -1.661046,-2.81034 -2.121094,-4.00782 6.159591,2.76221 15.37912,4.23923 15.37912,4.23923 v -0.52917 c 0,0 -9.560155,-1.5239 -15.568573,-4.34482 -0.714371,-2.10623 -0.595841,-2.94636 -0.595841,-2.94636 z m 3.423966,8.35066 c 2.044446,0.82028 11.106336,4.09179 27.273437,4.09179 16.165035,0 25.442621,-3.16234 27.488707,-3.98318 -1.048827,1.46179 -2.557368,2.85992 -4.289488,4.3074 -0.04023,0.02 -8.330041,4.14453 -23.199219,4.14453 -14.869178,0 -23.160944,-4.1245 -23.201171,-4.14453 -1.732121,-1.44748 -3.023432,-2.95422 -4.072266,-4.41601 z m 5.558594,5.48242 c 2.045236,0.8859 8.862727,3.60547 21.714843,3.60547 12.851501,0 19.897583,-2.7578 21.943297,-3.64387 -6.739118,5.18259 -13.164645,7.07551 -21.943297,7.07551 -8.778653,0 -14.975726,-1.85452 -21.714843,-7.03711 z" />
      <path
         id="path996"
         style="font-variation-settings:normal;vector-effect:none;fill:#ffffff;fill-opacity:1;fill-rule:evenodd;stroke:none;stroke-width:0.264583;stroke-linecap:butt;stroke-linejoin:miter;stroke-miterlimit:4;stroke-dasharray:none;stroke-dashoffset:0;stroke-opacity:1;marker:none;marker-start:none;marker-mid:none;marker-end:none;stop-color:#000000"
         d="m 37.507306,102.49503 c 0,0 0.586647,16.64298 20.348112,28.71143 h 1.058333 C 39.152287,119.13801 38.29692,103.47637 38.29692,103.47637 c 0,0 1.837637,0.50563 3.834392,1.29398 -0.0082,-0.41973 0,-0.66973 0,-0.66973 -2.280906,-0.97753 -4.624006,-1.60559 -4.624006,-1.60559 z m 71.933594,0 c 0,0 -2.34363,0.62806 -4.62453,1.60559 0,0 0.0353,0.85554 -0.0832,2.17868 0,0 -9.992621,3.09551 -16.618113,4.18166 l -0.108519,3.80183 c 0,0 -6.903439,1.04283 -14.532446,1.04283 -7.629009,0 -14.532448,-1.04283 -14.532448,-1.04283 v 0.52917 c 0,0 6.903439,1.04283 14.532448,1.04283 7.629007,0 15.061613,-1.04283 15.061613,-1.04283 l 0.108519,-3.80184 c 6.625492,-1.08615 16.618106,-4.18165 16.618106,-4.18165 0.1185,-1.32314 0.0832,-2.17868 0.0832,-2.17868 1.29279,-0.55406 2.59776,-0.99394 3.48431,-1.26898 z m -67.225874,3.78427 0.11679,0.71934 c 2.017633,0.61112 10.743843,3.09932 16.519406,4.09535 l -0.0181,-0.63303 c -6.62549,-1.08615 -16.618106,-4.18166 -16.618106,-4.18166 z" />
    </g>
    <g
       id="g903">
      <path
         id="path952"
         style="font-variation-settings:normal;vector-effect:none;fill:#fffdf9;fill-opacity:1;fill-rule:evenodd;stroke:none;stroke-width:0.264583;stroke-linecap:butt;stroke-linejoin:miter;stroke-miterlimit:4;stroke-dasharray:none;stroke-dashoffset:0;stroke-opacity:1;marker:none;marker-start:none;marker-mid:none;marker-end:none;stop-color:#000000"
         d="M 65.825438,42.549857 V 54.339836 H 54.035462 V 69.63761 l 1.058333,-1.058333 12.485026,-12.485545 12.485542,-12.485541 1.058333,-1.058334 z m 15.297258,11.789979 -1.058333,1.058333 -6.590295,6.590811 18.380274,-6.590811 1.058333,-1.058333 z m -7.648628,7.649144 -6.590297,6.590297 -1.058333,1.058333 v 11.789976 l 1.058333,-1.058333 z" />
      <path
         id="path962"
         style="font-variation-settings:normal;vector-effect:none;fill:#7a5d1e;fill-opacity:1;fill-rule:evenodd;stroke:none;stroke-width:0.264583;stroke-linecap:butt;stroke-linejoin:miter;stroke-miterlimit:4;stroke-dasharray:none;stroke-dashoffset:0;stroke-opacity:1;marker:none;marker-start:none;marker-mid:none;marker-end:none;stop-color:#000000"
         d="M 81.122696,42.549857 80.064363,43.608191 67.578821,56.093732 55.093795,68.579277 54.035462,69.63761 h 11.789976 l 1.058333,-1.058333 6.590297,-6.590297 6.590295,-6.590811 1.058333,-1.058333 z M 73.474068,61.98898 66.883771,80.369253 65.825438,81.427586 H 81.122696 V 69.63761 H 92.912675 V 54.339836 l -1.058333,1.058333 z" />
      <path
         d="M 66.883771,43.608191 V 55.398169 H 55.093795 V 68.579277 H 66.883771 V 80.369253 H 80.064363 V 68.579277 H 91.854342 V 55.398169 H 80.064363 V 43.608191 Z"
         style="font-variation-settings:normal;vector-effect:none;fill:#d1a348;fill-opacity:1;fill-rule:evenodd;stroke:none;stroke-width:0.264583;stroke-linecap:butt;stroke-linejoin:miter;stroke-miterlimit:4;stroke-dasharray:none;stroke-dashoffset:0;stroke-opacity:1;marker:none;marker-start:none;marker-mid:none;marker-end:none;stop-color:#000000"
         id="path950" />
    </g>
  </g>
</svg>
