<?xml version="1.0" encoding="UTF-8" standalone="no"?>
<svg
   xmlns:dc="http://purl.org/dc/elements/1.1/"
   xmlns:cc="http://creativecommons.org/ns#"
   xmlns:rdf="http://www.w3.org/1999/02/22-rdf-syntax-ns#"
   xmlns:svg="http://www.w3.org/2000/svg"
   xmlns="http://www.w3.org/2000/svg"
   xmlns:sodipodi="http://sodipodi.sourceforge.net/DTD/sodipodi-0.dtd"
   xmlns:inkscape="http://www.inkscape.org/namespaces/inkscape"
   inkscape:version="1.0 (4035a4fb49, 2020-05-01)"
   sodipodi:docname="kittilä.svg"
   id="svg8"
   version="1.1"
   viewBox="0 0 132.29166 148.16667"
   height="560"
   width="500">
  <defs
     id="defs2" />
  <sodipodi:namedview
     inkscape:snap-global="false"
     inkscape:object-nodes="true"
     inkscape:showpageshadow="false"
     inkscape:window-maximized="1"
     inkscape:window-y="-8"
     inkscape:window-x="-8"
     inkscape:window-height="1017"
     inkscape:window-width="1920"
     units="px"
     showgrid="false"
     inkscape:document-rotation="0"
     inkscape:current-layer="layer1"
     inkscape:document-units="px"
     inkscape:cy="340.43968"
     inkscape:cx="229.64643"
     inkscape:zoom="0.64593752"
     inkscape:pageshadow="2"
     inkscape:pageopacity="0.0"
     borderopacity="1.0"
     bordercolor="#666666"
     pagecolor="#ffffff"
     id="base"
     inkscape:snap-others="false"
     inkscape:lockguides="true" />
  <metadata
     id="metadata5">
    <rdf:RDF>
      <cc:Work
         rdf:about="">
        <dc:format>image/svg+xml</dc:format>
        <dc:type
           rdf:resource="http://purl.org/dc/dcmitype/StillImage" />
        <dc:title></dc:title>
      </cc:Work>
    </rdf:RDF>
  </metadata>
  <g
     transform="translate(-17.233518,-42.092356)"
     id="layer1"
     inkscape:groupmode="layer"
     inkscape:label="Шар 1">
    <g
       style="stroke-width:1.11932"
       transform="matrix(0.89352687,0,0,0.89327837,1.8349067,4.4921649)"
       id="g1083">
      <path
         id="path846"
         d="M 165.28913,42.092356 V 143.22646 c 0,23.89522 -25.19859,64.73431 -74.027805,64.73431 -48.829216,0 -74.027807,-40.83909 -74.027807,-64.73431 V 42.092356 Z"
         style="font-variation-settings:normal;opacity:1;vector-effect:none;fill:#cccccc;fill-opacity:1;fill-rule:evenodd;stroke:none;stroke-width:0.296152;stroke-linecap:butt;stroke-linejoin:miter;stroke-miterlimit:4;stroke-dasharray:none;stroke-dashoffset:0;stroke-opacity:1;marker:none;marker-start:none;marker-mid:none;marker-end:none;stop-color:#000000;stop-opacity:1"
         sodipodi:nodetypes="cszscc" />
      <path
         sodipodi:nodetypes="cczccc"
         style="font-variation-settings:normal;opacity:1;vector-effect:none;fill:#000000;fill-opacity:1;fill-rule:evenodd;stroke:none;stroke-width:0.296152;stroke-linecap:butt;stroke-linejoin:miter;stroke-miterlimit:4;stroke-dasharray:none;stroke-dashoffset:0;stroke-opacity:1;marker:none;marker-start:none;marker-mid:none;marker-end:none;stop-color:#000000;stop-opacity:1"
         d="m 165.28913,42.092356 v 63.591564 c 0,0 -25.19859,-27.097055 -74.027805,-27.097055 -48.829216,0 -74.027807,27.097055 -74.027807,27.097055 V 42.092356 Z"
         id="path848" />
      <path
         style="font-variation-settings:normal;opacity:1;vector-effect:none;fill:#ff0000;fill-opacity:1;fill-rule:evenodd;stroke:none;stroke-width:0.296152;stroke-linecap:butt;stroke-linejoin:miter;stroke-miterlimit:4;stroke-dasharray:none;stroke-dashoffset:0;stroke-opacity:1;marker:none;marker-start:none;marker-mid:none;marker-end:none;stop-color:#000000;stop-opacity:1"
         d="m 34.663358,114.01276 c 0,0 -0.268806,1.80485 0.192006,3.03368 0,0 0.824535,-1.71583 1.421915,-2.74767 0,0 -0.325843,1.73784 0.380152,2.9326 0,0 0.651687,-1.95506 1.19476,-2.71537 0,0 0.05431,1.79214 0.434459,2.9326 0,0 1.19476,-1.84645 1.792141,-2.60675 0,0 -0.271537,1.79214 0.380151,2.87828 0,0 1.031839,-1.84644 1.574912,-2.38952 0,0 -0.271537,1.68353 0.05431,2.66106 0,0 1.031836,-1.62922 1.466294,-2.06368 0,0 0.05431,1.95507 0.325844,2.66106 0,0 1.086146,-0.86892 1.466297,-1.68353 0.380151,-0.81461 -3.87953,-4.31923 -10.683241,-2.89276 z m 1.939765,10.49579 c 0,0 -0.488765,-1.14046 0.21723,-2.55245 0,0 0.434458,1.24907 1.19476,1.79214 0,0 -0.217229,-1.5206 0.488766,-3.31274 0,0 0.488766,1.84645 1.140453,2.82398 0,0 -0.05431,-1.95506 0.81461,-3.58428 0,0 0.380151,2.49813 0.760302,3.25844 0,0 0.325844,-1.4663 1.086146,-2.49814 0,0 0.325844,1.57491 0.543073,2.00937 0,0 0.434459,-1.68353 0.977532,-2.55244 0,0 0.488766,1.73783 0.868917,2.2266 0,0 0.488765,-1.95507 0.868917,-2.71537 0,0 0.814609,1.03184 0.651687,2.28091 -0.162922,1.24907 -8.689169,3.42136 -9.612393,2.82398 z m 2.552444,-4.56181 c 0,0 -1.303376,-2.11799 -4.453199,-0.97754 -3.149824,1.14046 -6.897028,-0.38015 -7.87456,-2.00937 0,0 -0.705992,1.95507 2.443829,3.04121 3.149824,1.08615 5.430731,0.0543 6.788413,-0.32584 1.357683,-0.38015 3.095517,0.27154 3.095517,0.27154 z m -8.037482,35.71609 c 0,0 -2.60675,-2.60674 -3.041209,-5.81087 l -1.19476,1.03183 c 0.158311,2.9326 3.27549,4.77904 4.235969,4.77904 z m 2.335215,-1.5206 c 0,0 -2.172293,-2.44383 -2.389522,-4.99627 l -1.466297,0.57022 c 0,0 0.977532,4.10021 3.855819,4.42605 z m -1.194761,-5.26781 c 0,0 0.868917,3.42136 3.964433,3.91013 0,0 -2.226599,-2.38952 -2.715365,-4.39889 z m 2.443829,-1.14045 c 0,0 0.651687,3.04121 3.529974,3.58428 0,0 -2.172292,-2.71536 -2.389521,-4.5075 z m 2.60675,-1.84645 c 0,0 0.868917,2.60675 3.584282,3.36706 0,0 -2.172292,-2.71537 -2.60675,-4.07305 z m 24.818438,41.65371 c 0,0 2.443829,-0.97754 3.04121,-3.58429 0,0 -1.955063,1.90076 -3.747204,2.55245 z m -1.466297,-2.82398 c 0,0 3.041209,-1.30338 3.584282,-3.52998 0,0 -2.063677,1.57491 -4.670428,2.49814 z m -1.955063,-2.38953 c 0,0 2.498136,-1.19476 3.910126,-3.25843 0,0 -2.878287,1.41199 -4.996272,2.11798 z m -1.303375,-2.33521 c 0,0 2.932594,-1.19476 4.344584,-3.09552 0,0 -3.367053,1.41199 -4.941964,1.73784 z m -1.194761,-2.2266 c 0,0 3.041209,-0.48877 4.344585,-2.44383 -0.760302,0.32585 -2.769673,1.03184 -4.724736,0.92323 z m 23.388346,13.14237 c 0,0 -0.488766,3.80151 1.629219,5.9738 0,0 -0.543073,-3.31274 -0.271536,-5.70227 z m 3.204131,0.54307 c 0,0 -0.814609,4.07305 1.249068,5.86519 0,0 -0.05431,-4.4532 0.325844,-5.86519 z m 3.149824,0.16292 c 0,0 -0.488766,3.63859 1.900755,5.32212 0,0 -0.543073,-3.04121 -0.434458,-5.15919 z m 3.095516,0.54308 c 0,0 -0.271536,4.34458 1.792141,5.64796 0,0 -0.59738,-3.47567 -0.325844,-5.75658 z m 3.529975,0.10861 c 0,0 -0.162922,3.7472 1.629219,4.88766 0,0 -0.651688,-3.04121 -0.380151,-4.94197 z m 18.300818,-4.20315 c 0,0 0.69122,4.76173 3.4561,5.99056 0,0 -1.76645,-4.22411 -1.99686,-6.37457 z m 2.68807,-0.23041 c 0,0 0.30721,4.30092 2.61128,5.52975 0,0 -1.30564,-4.22411 -1.45924,-5.99056 z m 2.68808,-0.1536 c 0,0 0.38401,4.30092 2.38087,5.29934 0,0 -0.84483,-3.45609 -0.84483,-5.45295 z m 2.76488,0.0768 c 0,0 0.76802,3.91691 2.53447,4.76173 0,0 -1.22884,-3.91691 -1.30564,-5.22254 z m 2.84167,-0.23041 c 0,0 0.38402,3.6865 2.22727,4.60813 0,0 -0.99843,-2.68807 -0.92163,-4.99214 z"
         id="path893"
         sodipodi:nodetypes="ccccccccccccscccccccccccccsccscszccccccccccccccccccccccccccccccccccccccccccccccccccccccccccccccccccccccccccccccccc" />
      <path
         id="path850"
         style="font-variation-settings:normal;opacity:1;vector-effect:none;fill:#000000;fill-opacity:1;fill-rule:evenodd;stroke:none;stroke-width:1.11932;stroke-linecap:butt;stroke-linejoin:miter;stroke-miterlimit:4;stroke-dasharray:none;stroke-dashoffset:0;stroke-opacity:1;marker:none;marker-start:none;marker-mid:none;marker-end:none;stop-color:#000000;stop-opacity:1"
         d="m 235.92188,400.59766 c -2.45443,-0.0341 -4.99254,0.33522 -7.4043,1.15625 -9.64703,3.28407 -19.70313,13.75195 -19.70313,13.75195 2.25782,-9.85228 8.96289,-13.82031 8.96289,-13.82031 -13.54689,-1.23156 -20.32118,-1.0263 -35.09961,2.25781 -14.77842,3.28407 -29.55627,6.8418 -41.25585,6.8418 -11.69959,0 -14.7793,1.64257 -14.7793,1.64257 -0.41051,10.26278 1.84765,19.70508 1.84765,19.70508 36.59893,-0.0297 49.33921,12.25323 53.80274,25.24414 -12.48186,4.64444 -43.83183,10.45077 -45.2832,13.35352 -1.45138,2.90275 1.16139,15.38381 11.61132,16.54492 10.44993,1.16111 17.70647,-5.8046 24.38282,-3.48242 6.67634,2.32222 4.64453,15.67578 4.64453,15.67578 6.09579,-3.19302 6.96679,-12.19336 6.96679,-12.19336 3.48331,9.28883 -0.87109,17.99805 -0.87109,17.99805 10.7402,-1.45138 13.35352,-10.16016 13.35352,-10.16016 4.64441,10.4499 -2.03321,20.60938 -2.03321,20.60938 11.61103,-0.29027 15.38477,-8.41797 15.38477,-8.41797 6.38607,10.15963 4.85088,28.60246 17.70703,36.57617 12.9013,8.00171 24.96484,14.51367 24.96484,14.51367 -9.84693,0.98472 -55.73284,-24.96533 -71.98828,-35.125 -16.25542,-10.15967 -25.83534,-11.32042 -40.92969,-5.22461 -15.09433,6.09578 -34.83395,22.351 -43.251948,29.02735 -8.417994,6.67634 -7.545483,17.99693 -0.869141,22.93164 6.676339,4.93466 12.480469,-2.32032 12.480469,-2.32032 5.88449,1.65664 9.91996,-0.69655 11.03125,-3.77539 7.54717,2.32222 8.99805,-3.48242 8.99805,-3.48242 8.12772,0.29027 10.45117,-6.0957 10.45117,-6.0957 8.70827,-0.87084 7.54572,-8.99884 10.1582,-11.61133 2.61248,-2.61249 13.64305,-2.6114 13.0625,3.48437 -0.58055,6.09582 -8.12695,4.64258 -8.12695,4.64258 4.35414,4.93467 15.09375,6.67774 15.09375,6.67774 -3.19304,0.87084 -10.44922,2.32226 -10.44922,2.32226 8.418,6.09581 22.35156,6.67578 22.35156,6.67578 -2.90275,1.45138 -6.67712,2.61233 -11.03125,3.77344 8.12773,6.67635 27.57617,7.54688 27.57617,7.54688 -3.19303,2.03195 -14.22265,6.0957 -14.22265,6.0957 14.22351,5.80551 30.47851,5.80664 30.47851,5.80664 -3.77357,3.19302 -8.1289,5.51563 -8.1289,5.51563 10.44993,3.19302 20.90039,1.45117 20.90039,1.45117 -4.35414,3.77359 -11.0293,7.25586 -11.0293,7.25586 37.73585,6.38608 53.12012,14.51487 62.69922,14.22461 9.5791,-0.29027 10.15847,-8.41946 11.0293,-19.74024 0.87083,-11.32074 6.67773,-17.125 6.67773,-17.125 -1.45138,15.38461 0.86914,29.31641 0.86914,29.31641 10.15965,7.83745 41.22071,17.70703 41.22071,17.70703 -1.16111,-7.83742 -0.58204,-17.70703 -0.58204,-17.70703 12.19159,13.35269 27.86719,15.9668 27.86719,15.9668 -1.74165,-2.32222 -3.19336,-10.74024 -3.19336,-10.74024 10.74021,8.12772 25.25391,10.1582 25.25391,10.1582 -2.90275,-4.06386 -6.0957,-14.80273 -6.0957,-14.80273 8.99856,7.83745 23.22265,11.32031 23.22265,11.32031 -2.32218,-3.19302 -6.38672,-14.22461 -6.38672,-14.22461 6.96662,4.35413 17.70703,4.83789 17.70703,4.83789 0,0 -10.4489,-7.54649 -17.99609,-21.18945 -7.23326,-13.0755 -2.32227,-19.1582 -2.32227,-19.1582 0,0 5.22523,20.31967 20.0293,33.09179 14.80407,12.77212 31.05955,17.41629 49.05664,26.70508 17.99713,9.28883 25.24681,28.83526 22.34961,36.28516 -2.8972,7.44994 -18.91855,14.78644 -35.12305,13.93359 -16.54571,-0.87084 -23.64134,-4.20398 -33.67187,1.74024 -10.79894,6.39961 -8.7086,17.70721 -3.19336,24.67382 5.51524,6.96662 12.19141,0.58008 12.19141,0.58008 3.77359,4.9347 9.28906,-0.87109 9.28906,-0.87109 5.22497,6.67635 10.74023,0.58203 10.74023,0.58203 5.51524,5.80551 10.45117,-0.29102 10.45117,-0.29102 6.96662,6.38605 12.19141,-3.48242 12.19141,-3.48242 0,0 24.38284,-2.32255 35.12305,-3.19336 10.74021,-0.87084 13.06229,-4.06502 14.51367,-16.54687 1.45138,-12.48189 5.22461,-14.51367 5.22461,-14.51367 4.93466,7.54718 13.93359,7.83789 13.93359,7.83789 -6.96661,-4.93471 -8.41797,-15.38477 -8.41797,-15.38477 6.09578,9.28883 12.77149,7.54688 12.77149,7.54688 -6.67635,-4.06387 -7.54688,-14.51368 -7.54688,-14.51368 4.06387,6.96662 9.86914,8.12891 9.86914,8.12891 -8.70829,-8.12772 -8.45976,-24.25386 -6.38476,-33.67187 1.80684,-8.20086 -2.90437,-12.48202 -15.9668,-15.38477 -13.06239,-2.90275 -16.2539,-8.41797 -16.2539,-8.41797 14.80406,1.74165 19.44726,-4.93555 19.44726,-4.93555 -5.80554,-0.58057 -17.70703,-4.06445 -17.70703,-4.06445 6.67631,-1.16111 9.58008,-5.22461 9.58008,-5.22461 0,0 -8.1288,0.87055 -14.22461,-0.87109 -6.09577,-1.74165 -10.1582,-6.9668 -10.1582,-6.9668 -0.58232,-3.77359 -0.59766,-13.46484 -0.59766,-13.46484 6.97871,3.2841 12.72461,11.49414 12.72461,11.49414 1.64205,-2.87358 1.64258,-7.80078 1.64258,-7.80078 5.74718,4.92616 11.08398,15.18945 11.08398,15.18945 4.51563,-6.97871 3.2832,-16.41992 3.2832,-16.41992 7.38925,8.62072 9.03144,16.01047 11.08399,24.2207 4.10509,-4.92616 4.92773,-15.59961 4.92773,-15.59961 5.33666,8.62076 7.42383,17.86328 7.42383,17.86328 6.96662,-17.99709 8.70703,-35.41406 8.70703,-35.41406 4.6444,10.44994 11.61133,32.51172 11.61133,32.51172 5.80554,-23.8026 4.06445,-53.99219 4.06445,-53.99219 8.12773,8.70826 15.67383,23.80274 15.67383,23.80274 2.90275,-41.79973 -20.31836,-78.95508 -20.31836,-78.95508 C 583.0674,496.56477 597,519.20703 597,519.20703 c -0.58054,-51.66905 -43.44336,-81.375 -43.44336,-81.375 26.12481,7.25688 43.19141,22.625 43.19141,22.625 -5.33666,-13.95742 -31.19935,-44.33431 -64.86133,-52.95508 -33.66199,-8.62072 -59.93464,-2.05222 -72.25,17.65235 -12.31536,19.70456 3.56597,41.98757 22.08079,58.03344 18.03337,15.62861 35.39115,24.30874 31.69655,34.57155 -3.6946,10.26278 -16.63311,2.70248 -43.51562,-16.25148 -25.21865,-17.78083 -35.3032,-22.57636 -68.55469,-20.11328 -33.25145,2.46308 -44.74535,18.06089 -68.14453,17.65039 -23.39918,-0.41049 -39.63281,-12.54297 -39.63281,-12.54297 5.80551,-3.19302 17.70507,-6.96679 17.70507,-6.96679 -5.51524,-3.48329 -17.125,-6.9668 -17.125,-6.9668 l 10.16016,-4.0625 c -6.96662,-5.51524 -25.54492,-10.16016 -25.54492,-10.16016 9.78585,-1.4547 13.93514,-1.93652 20.60937,-2.61328 -9.86937,-8.70826 -30.47851,-15.38476 -30.47851,-15.38476 l 17.125,-2.32227 c -15.38462,-17.99709 -33.07422,-15.95117 -33.07422,-15.95117 -7.18396,13.75215 -18.0625,12.52148 -18.0625,12.52148 9.03126,-6.56821 15.42329,-15.83162 15.18945,-24.01562 -0.17537,-6.13797 -6.78516,-9.88006 -14.14843,-9.98242 z m 1.57031,2.80859 c 1.96359,-0.0477 4.26473,0.78049 6.41992,3.20508 4.92615,5.54192 0.20508,11.28906 0.20508,11.28906 -0.20526,-11.0838 -11.49414,-11.49414 -11.49414,-11.49414 0.37816,-1.42902 2.34452,-2.93867 4.86914,-3 z m -49.48438,2.50781 c 3.32003,10e-6 6.62116,0.54502 8.94336,1.92383 -9.51181,3.80013 -12.15818,5.95013 -22.34961,4.64453 0,0 -0.43603,-3.6281 4.35352,-5.22461 2.39477,-0.79825 5.7327,-1.34375 9.05273,-1.34375 z m 31.73094,201.82662 c 0,0 30.47895,6.09579 45.28302,12.48186 0,0 -5.80552,12.77213 -8.70828,21.4804 0,0 -2.61248,-3.19303 -3.4833,-5.51524 0,0 -6.96662,10.74021 -9.5791,17.70682 0,0 -1.83842,-6.09579 -0.67731,-15.38461 0,0 -10.74021,12.19158 -16.836,22.06096 0,0 -3.19303,-4.35414 -3.48331,-12.48186 0,0 -8.12772,8.99855 -12.19158,14.51379 0,0 5.80552,2.03193 4.06386,11.03048 0,0 5.51524,1.45137 4.06386,8.70827 0,0 5.51524,-0.29028 5.51524,9.5791 0,0 8.70827,-0.29028 7.54717,10.44993 0,0 7.54717,3.19303 2.61248,11.03047 -4.93469,7.83745 -19.1582,7.54717 -25.54426,-1.45138 -6.38607,-8.99855 -23.22206,-26.99564 -27.86648,-35.12336 -4.64441,-8.12772 -6.96662,-14.80406 4.93469,-26.41509 11.90131,-11.61103 31.25303,-36.86502 34.3493,-42.67054 z m 163.32849,22.73827 c 0,0 6.38607,4.64441 11.61103,4.64441 0,0 -2.3222,-6.67634 -2.61248,-12.48186 0,0 10.44993,6.09579 18.57765,7.54717 0,0 -3.48331,-8.70827 -4.93469,-13.93324 0,0 19.73875,3.48331 29.31785,6.96662 0,0 5.22497,17.9971 17.9971,25.83455 0,0 -5.80552,0.29027 -13.06241,-3.19304 0,0 3.19303,13.35269 8.12772,17.9971 0,0 -8.70827,0.29027 -14.51379,-6.67634 0,0 1.16111,8.99855 4.93469,14.22351 0,0 -4.64441,-0.87083 -7.54717,-4.06386 0,0 2.61248,9.28882 -8.12772,10.15965 -10.7402,0.87083 -17.12627,10.44993 -17.41654,16.83599 -0.29028,6.38607 6.96661,17.70682 3.77358,23.80261 -3.19304,6.0958 -12.77213,8.99855 -24.09289,8.99855 -11.32075,0 -23.80261,-1.1611 -23.80261,-1.1611 0,0 -7.25689,6.67634 -13.35268,0.58055 0,0 -9.86938,5.22497 -14.22352,-0.87082 0,0 -6.09579,3.4833 -11.03048,-1.16111 0,0 -8.70827,4.06386 -12.19158,-2.03193 -2.01734,1.35178 -10.44992,4.11367 -13.64296,-3.72378 -3.19303,-7.83744 -3.70315,-14.10327 2.9732,-18.74769 6.67634,-4.64441 16.76555,-6.26583 34.76265,-1.33114 17.9971,4.93469 37.44557,6.67634 44.12192,-4.35414 6.67634,-11.03048 8.12772,-27.57619 4.64441,-42.08998 -3.48331,-14.51379 -0.29028,-21.77068 -0.29028,-21.77068 z"
         transform="scale(0.26458333)"
         sodipodi:nodetypes="ssccsscccsssccccccscssssccccsscccccccccccsscccccccccccscsssssscccccssccccccssccccscccccccccccccccccsssssssccccccccccssssccssccsscccccccccccccszsscccccccccccccsssscccccsssssc" />
    </g>
  </g>
</svg>
