<?xml version="1.0" encoding="UTF-8" standalone="no"?>
<svg
   xmlns:dc="http://purl.org/dc/elements/1.1/"
   xmlns:cc="http://creativecommons.org/ns#"
   xmlns:rdf="http://www.w3.org/1999/02/22-rdf-syntax-ns#"
   xmlns:svg="http://www.w3.org/2000/svg"
   xmlns="http://www.w3.org/2000/svg"
   width="500"
   height="528"
   viewBox="0 0 132.29166 139.7"
   version="1.1"
   id="svg847">
  <defs
     id="defs841" />
  <metadata
     id="metadata844">
    <rdf:RDF>
      <cc:Work
         rdf:about="">
        <dc:format>image/svg+xml</dc:format>
        <dc:type
           rdf:resource="http://purl.org/dc/dcmitype/StillImage" />
        <dc:title></dc:title>
      </cc:Work>
    </rdf:RDF>
  </metadata>
  <path
     style="font-variation-settings:normal;vector-effect:none;fill:#cccccc;fill-opacity:1;stroke:none;stroke-width:0.132292;stroke-linecap:butt;stroke-linejoin:miter;stroke-miterlimit:5;stroke-dasharray:none;stroke-dashoffset:0;stroke-opacity:1;stop-color:#000000"
     d="m 132.29166,-1e-6 c 0,0 -4.65216,64.332617 -6.22622,86.099557 C 124.49139,107.86651 104.94659,139.7 66.145831,139.7 27.345072,139.7 7.800271,107.86651 6.226215,86.099556 L 0,-1e-6 Z"
     id="path846" />
  <path
     style="font-variation-settings:normal;vector-effect:none;fill:#8a0000;fill-opacity:1;stroke:none;stroke-width:0.132292;stroke-linecap:butt;stroke-linejoin:miter;stroke-miterlimit:5;stroke-dasharray:none;stroke-dashoffset:0;stroke-opacity:1;stop-color:#000000"
     d="m 6.364919,20.916494 c 0,0 -0.01648,-1.398509 2.0049,-2.470448 2.021374,-1.071939 5.381365,-1.071656 7.815917,0.955859 2.434551,2.027514 2.486393,3.732539 2.486393,3.732539 l -3.163539,0.171279 c 0,0 -0.810781,-2.562985 -4.006059,-3.003457 C 8.307252,19.861793 6.99382,20.841479 6.511595,21.111142 6.397169,21.175132 6.364919,20.916494 6.364919,20.916494 Z"
     id="path1215" />
  <path
     id="path1213"
     style="font-variation-settings:normal;vector-effect:none;fill:#e90c0c;fill-opacity:1;stroke:none;stroke-width:0.132292;stroke-linecap:butt;stroke-linejoin:miter;stroke-miterlimit:5;stroke-dasharray:none;stroke-dashoffset:0;stroke-opacity:1;stop-color:#000000"
     d="m 10.93631,17.718935 c -1.087515,-0.02978 -2.102584,0.16171 -2.860597,0.563687 -2.021375,1.07194 -1.71064,2.634025 -1.71064,2.634025 0,0 1.446134,-1.768761 5.22441,-1.247921 2.187808,0.30159 3.429982,1.155585 4.121491,2.001152 0.794827,-0.02556 1.468522,-0.0035 2.044529,0.105404 C 17.445957,21.24262 16.9418,20.564818 16.120194,19.761165 14.762062,18.432704 12.74884,17.768569 10.93631,17.718935 Z" />
  <path
     style="font-variation-settings:normal;vector-effect:none;fill:#8a0000;fill-opacity:1;stroke:none;stroke-width:0.132292;stroke-linecap:butt;stroke-linejoin:miter;stroke-miterlimit:5;stroke-dasharray:none;stroke-dashoffset:0;stroke-opacity:1;stop-color:#000000"
     d="m 9.363576,45.030076 c 1.220843,0.378866 1.688796,-1.09768 2.179184,-1.09768 0.490389,0 0.490389,0.784161 -0.06538,1.339611 -0.54165,0.541341 -0.430049,0.801749 -0.250642,1.034662 0.179408,0.232904 2.859511,1.76643 6.211589,-9e-6 3.352076,-1.76642 5.459658,-6.763403 6.113509,-10.880263 0.653847,-4.116857 -0.03413,-7.640215 -0.03413,-7.640215 0,0 -0.09374,-1.771789 -1.100575,-3.047442 -1.006839,-1.275653 -5.295151,-1.864647 -7.235466,-1.400343 -1.940314,0.464302 -2.985053,2.024569 -2.985053,2.024569 0,0 0,0.294062 0.130771,0.326736 0.13077,0.03267 1.176932,-0.686143 2.81156,-0.816837 1.634628,-0.130693 3.007714,0.849509 3.20387,1.731694 0,0 1.788805,4.254046 0.71795,7.054504 -1.070854,2.800458 -6.602062,5.258378 -8.056514,7.342615 -1.45445,2.084237 -1.640672,4.028398 -1.640673,4.028398 z m 28.656406,-26.83981 c 0,0 3.236399,0.831729 6.6115,-0.231037 3.375102,-1.062768 6.230708,-3.444506 4.993302,-5.683496 -1.237407,-2.23899 -3.412587,-0.877543 -3.513805,-1.84829 C 46.009762,9.456694 47.264977,8.935883 47.63671,8.440529 48.008443,7.945175 49.069972,5.52947 45.371231,4.882568 L 34.922286,9.503297 c 0,0 -1.248325,0.138622 -1.109623,-0.924147 0.138703,-1.062767 1.571965,-1.617254 2.912759,-2.217949 1.340794,-0.600694 1.849371,-1.293804 1.6182,-2.5414 C 38.112451,2.572204 37.372708,2.017717 35.893209,2.063925 L 27.3861,6.823275 C 26.785055,7.331554 26.178919,7.469393 26.230243,6.54603 26.281563,5.622667 27.498096,5.285508 27.571037,4.374288 27.643977,3.463067 26.831289,3.403935 26.831289,3.403935 l -7.212546,6.838678 c 0,0 -0.09247,0.281095 -0.115586,0.292646 -0.02312,0.01155 -0.03467,-0.0308 -0.115585,-0.06161 l -3.698742,1.062769 c 0,0 -0.244028,-0.09776 -0.462343,-0.138621 l -5.501878,3.604168 c 0,0 -0.14769,0.403772 -0.05622,0.46094 0.09148,0.05717 1.463806,-0.329382 4.020245,0.328321 2.58822,0.665877 3.400967,2.917245 3.499045,3.145959 0.09808,0.228715 0.548448,-0.167097 2.085073,0.670967 1.536627,0.838063 1.590036,2.096709 1.590036,2.096709 0,0 0.637734,-6.479814 2.643981,-8.241002 2.006247,-1.761187 5.467479,-1.494921 8.64964,-0.253051 3.182161,1.241869 5.863576,4.97946 5.863576,4.97946 z"
     id="path1203" />
  <path
     id="path869"
     style="fill:#8a0000;fill-opacity:1;fill-rule:evenodd;stroke:none;stroke-width:0.132292;stroke-miterlimit:5"
     d="m 23.745598,115.83597 v 0.97585 c 1.141276,0.43759 2.304033,0.73999 3.514723,0.73999 4.542687,0 8.419166,-4.19978 12.961853,-4.19978 4.542687,0 8.419166,4.19978 12.961853,4.19978 4.542686,0 8.419166,-4.19978 12.961852,-4.19978 4.542687,0 8.419165,4.19978 12.961855,4.19978 4.54268,0 8.41916,-4.19978 12.96185,-4.19978 4.54269,0 8.419166,4.19978 12.961846,4.19978 1.21086,0 2.3733,-0.30277 3.51473,-0.74047 V 99.270376 l -69.408764,8.292034 z" />
  <path
     id="rect863"
     style="fill:#e90c0c;fill-opacity:1;fill-rule:evenodd;stroke:none;stroke-width:0.132292;stroke-miterlimit:5"
     d="m 23.745598,99.270376 v 16.565594 c 1.141276,0.4376 2.304033,0.73999 3.514723,0.73999 4.542687,0 8.419166,-4.19977 12.961853,-4.19977 4.542687,0 8.419166,4.19977 12.961853,4.19977 4.542686,0 8.419166,-4.19977 12.961852,-4.19977 4.542687,0 8.419165,4.19977 12.961855,4.19977 4.54268,0 8.41916,-4.19977 12.96185,-4.19977 4.54269,0 8.419166,4.19977 12.961846,4.19977 0.86772,0 1.71024,-0.15725 2.53831,-0.40644 v -15.5926 c 0,-1.155844 0.97642,-1.306544 0.97642,-1.306544 z" />
  <path
     id="path872"
     style="fill:#ffffff;fill-rule:evenodd;stroke:none;stroke-width:0.132292;stroke-miterlimit:5"
     d="m 107.08153,100.57672 c 0,0 0.13102,-0.751854 -0.70666,-0.751854 H 24.233759 l 4.9e-5,0.751854 z" />
  <path
     id="path1178"
     style="font-variation-settings:normal;vector-effect:none;fill:#8a0000;fill-opacity:1;stroke:none;stroke-width:0.132292;stroke-linecap:butt;stroke-linejoin:miter;stroke-miterlimit:5;stroke-dasharray:none;stroke-dashoffset:0;stroke-opacity:1;stop-color:#000000"
     d="m 72.737654,71.962836 -11.430956,24.30233 c 0,0 -4.808367,0.83181 -7.305017,0.27731 -2.496649,-0.55448 -6.041544,-3.66607 -7.705978,-3.61987 -1.664433,0.0462 -5.085621,2.44913 -4.900683,4.205 0.184936,1.75587 1.618147,2.15659 1.618147,2.15659 0,0 0.555003,0.0462 0.739939,-0.18488 0.184941,-0.23104 -1.036279,-0.46131 -1.109911,-2.01174 -0.06747,-1.42066 1.984223,-2.09347 3.16716,-0.5146 0,0 -0.537269,0.55363 -0.409133,1.16196 0.130764,0.62079 1.569584,0.58798 2.484976,0.0978 0,0 0.653851,0.88197 2.288479,1.33941 1.634629,0.45742 4.021048,-0.58812 4.478744,-0.68614 0.457696,-0.0981 2.392893,0.67718 4.894964,0.97489 2.502071,0.29768 3.474334,-0.28842 4.487802,-1.07258 0,0 1.111476,0.75142 2.582645,0.98014 1.471159,0.22871 3.040411,-0.033 3.432719,-0.65375 0.392308,-0.62079 0.08272,-1.14394 0.817179,-1.43756 0.734494,-0.29363 1.835974,0.27304 1.179524,1.86831 l -0.0491,0.11435 c 0,0 0.98897,0.11809 1.67154,-0.77762 0.68258,-0.89572 0.96348,-3.97663 -1.71731,-4.79347 l -3.928557,1.96551 -3.770747,-0.12436 c 0,0 0.4716,-1.42468 2.598377,-3.18056 2.126777,-1.75588 4.394437,-2.3376 6.521217,-2.15277 2.12677,0.18482 3.17858,0.66168 3.9357,1.10163 0.75714,0.43993 0.99096,0.73933 1.1657,0.50032 0,0 -1.06782,-2.98384 -3.94477,-3.37592 -2.87694,-0.39208 -4.936439,-1.74252 -4.936439,-1.74252 0,0 0.890701,-1.04026 1.994319,-2.43961 1.11655,-1.41578 2.91325,-3.40994 3.94333,-4.25553 1.03008,-0.84557 2.12683,-1.3401 2.08061,-2.17183 -0.0221,-0.39878 -0.65099,-1.1837 -1.10514,-2.12989 -0.45416,-0.94621 -0.6697,-1.93036 -1.48418,-2.81462 z" />
  <path
     id="path1176"
     style="font-variation-settings:normal;vector-effect:none;fill:#e90c0c;fill-opacity:1;stroke:none;stroke-width:0.132292;stroke-linecap:butt;stroke-linejoin:miter;stroke-miterlimit:5;stroke-dasharray:none;stroke-dashoffset:0;stroke-opacity:1;stop-color:#000000"
     d="m 74.529814,73.007296 -1.79223,-1.04467 -4.767595,8.35734 c -1.373088,3.00596 -8.962013,14.93369 -10.084566,15.05179 -1.122556,0.11809 -5.867989,-0.61532 -8.044961,-2.21806 -2.473823,-1.8213 -3.698837,-2.44867 -4.022478,-2.44867 -0.323639,0 -0.415742,0.55416 -0.415742,0.55416 -2.635352,-0.46208 -5.446225,1.58303 -5.640625,4.25122 -0.194397,2.66819 2.123311,3.77379 3.25155,3.77379 -0.503783,-0.60418 -1.426234,-1.99588 -0.785714,-3.14244 0.640523,-1.14655 2.774211,-1.61715 3.79125,0.4622 -2e-6,0 -0.369947,0.60092 -0.277478,0.92439 0.09247,0.32344 1.525416,0.27718 2.450103,-0.18489 0,0 1.345932,1.14986 2.543071,1.3861 1.307492,0.25802 3.236596,-0.92432 4.115048,-0.8319 0.878449,0.0925 2.542746,0.8319 5.224333,0.8319 2.681588,0 3.526898,-1.09714 4.253711,-1.06257 0.726817,0.0346 1.01701,1.10882 3.097552,1.20123 2.080546,0.0925 2.25814,-0.24746 2.404334,-0.83194 0.138695,-0.5545 0.517904,-1.19585 1.421718,-1.09783 0.903819,0.098 1.267429,1.07433 0.797159,2.20709 0.62667,-0.0697 1.70947,-0.74532 1.70873,-2.50204 -7.3e-4,-1.75671 -0.79084,-2.98076 -2.624604,-3.13529 -1.994392,-0.16808 -3.014117,1.3861 -3.014117,1.3861 0,0 -0.369564,-0.69329 -0.646972,-0.69329 -0.277408,0 -2.248625,0.82625 -3.217221,1.32893 -0.24936,0.56801 -1.175122,0.69635 -0.759014,-0.36642 0.41611,-1.06277 2.450645,-3.45767 4.531189,-4.52044 2.080537,-1.06277 7.628529,-1.84799 10.448819,1.15548 0,0 0.40368,-2.04713 -2.21172,-3.74615 -2.6154,-1.69902 -6.048331,-1.40493 -6.669489,-1.37229 -0.621158,0.0327 -0.555562,-0.55537 -0.19595,-0.98014 0.35962,-0.42475 1.756452,-2.11093 3.744519,-4.32889 1.98808,-2.21795 3.32887,-2.91101 3.65251,-3.41928 0.32364,-0.50828 -0.83185,-1.0169 -2.26512,-4.94452 z M 46.167775,93.030443 c 0.46396,0.35624 0.741939,0.935223 0.590392,1.832893 -0.15689,0.929323 -0.693267,0.73946 -0.878203,0.55463 -0.184941,-0.18482 0.554418,-0.476016 0.287811,-2.387523 z" />
  <path
     style="font-variation-settings:normal;vector-effect:none;fill:#ffffff;fill-opacity:1;stroke:none;stroke-width:0.132292;stroke-linecap:butt;stroke-linejoin:miter;stroke-miterlimit:5;stroke-dasharray:none;stroke-dashoffset:0;stroke-opacity:1;stop-color:#000000"
     d="m 41.502962,93.323296 c -1.381114,1.20108 -0.785982,2.40279 -0.785982,2.40279 0,0 0.369874,-1.34002 1.479496,-2.17174 1.109622,-0.83174 2.311714,-1.15519 2.311714,-1.15519 -0.458515,-0.22912 -1.621734,-0.27901 -3.005228,0.92414 z m 18.632412,1.47864 c 0,0 1.710669,-1.84829 3.883679,-4.80555 2.17301,-2.95727 4.669666,-7.11593 5.039536,-7.80903 0.36987,-0.69312 0.04622,-0.73932 -0.184935,-0.69312 -0.231176,0.0462 -2.042248,3.60417 -3.644578,5.97988 -1.493726,2.21468 -4.298426,5.93095 -5.093702,7.32782 z"
     id="path1183" />
  <path
     style="font-variation-settings:normal;vector-effect:none;fill:#e90c0c;fill-opacity:1;stroke:none;stroke-width:0.132292;stroke-linecap:butt;stroke-linejoin:miter;stroke-miterlimit:5;stroke-dasharray:none;stroke-dashoffset:0;stroke-opacity:1;stop-color:#000000"
     d="m 21.045193,24.361185 c 0,0 1.983554,1.393864 1.918168,5.249334 -0.06538,3.855471 -0.549111,10.029653 -3.519577,14.111659 -2.970468,4.082011 -7.84918,2.829059 -8.222341,2.184483 -0.199854,-0.34521 0.659461,-0.876585 0.986385,-1.660744 0.326927,-0.784165 -0.56016,-1.351435 -1.223167,-0.615191 -0.663005,0.736245 -1.261468,1.39935 -1.621086,1.39935 -0.359619,0 -2.46316,-1.239267 -1.743923,-4.637309 0.719236,-3.398042 4.773113,-5.55449 7.584675,-8.037675 2.81156,-2.483184 3.4032,-3.700194 3.138485,-5.750533 -0.264714,-2.050339 -3.334641,-3.659431 -6.146201,-1.241593 0,0 -0.147576,-1.533989 1.457911,-2.41335 1.524181,-0.834829 4.810068,-0.828325 7.120078,-0.415866 0.514307,-2.680912 -1.503243,-4.00028 -3.143931,-4.066241 -1.545772,-3.629261 -5.167961,-3.953337 -7.90606,-3.465546 0,0 0.424777,-1.48546 1.941839,-2.680023 1.525731,-1.201389 3.282633,-1.201389 3.560039,-0.924145 0.277406,0.277244 0.138702,1.940705 1.155857,3.003474 0,0 0.462343,-1.108976 -0.693514,-2.864853 0.757949,-1.341621 2.401445,-1.738042 3.698742,-1.062766 0,0 -0.693515,0.554487 -0.693515,1.340011 0,0.785523 0.32364,1.062766 0.508578,1.062766 0.184937,0 -0.277407,-0.508279 0.323639,-1.201389 0.601045,-0.693108 0.601045,-1.247596 0.09247,-1.432425 0,0 0.674837,-1.910734 2.542885,-3.881411 1.868047,-1.970678 4.068615,-3.142096 4.669661,-2.957267 0.601045,0.184829 0.624273,1.158034 -0.424041,1.894498 -1.048314,0.736465 -0.77805,2.125536 -0.177002,2.264157 0.601046,0.138622 1.017154,-1.01656 2.681587,-2.772437 1.664435,-1.755876 5.039536,-3.003472 6.981376,-2.726228 1.941838,0.277243 2.49665,2.448985 0.970919,3.419339 -1.525731,0.970352 -3.513804,1.478632 -3.606273,2.957265 -0.09247,1.478633 1.479497,1.062768 2.357948,0.231036 0.878451,-0.831731 3.46757,-2.864851 6.010455,-3.465547 2.542884,-0.600694 4.577193,-0.554486 5.363175,0.646904 0.785982,1.201389 0.462343,2.079326 -0.739748,3.234508 -1.202091,1.155183 -0.64728,1.940707 0.878451,2.125536 1.525731,0.184829 2.496651,1.571047 1.803136,3.188303 -0.693513,1.617254 -3.322856,2.597287 -7.049809,3.316104 -3.726952,0.718816 -6.211587,-1.241592 -6.211587,-1.241592 0,0 -0.719236,-1.895063 -2.419249,-2.809921 -1.621178,-0.872432 -5.426967,-1.568326 -7.25775,-1.372285 -1.830784,0.19604 -3.726953,2.091102 -3.792338,3.65943 -0.06538,1.568327 2.462427,6.752928 -1.155344,8.40818 z"
     id="path1205" />
  <path
     id="path1185"
     style="font-variation-settings:normal;vector-effect:none;fill:#000000;fill-opacity:1;stroke:none;stroke-width:0.132292;stroke-linecap:butt;stroke-linejoin:miter;stroke-miterlimit:5;stroke-dasharray:none;stroke-dashoffset:0;stroke-opacity:1;stop-color:#000000"
     d="m 128.1179,7.22857 c -1.03018,-0.08097 -2.28,3.9218 -11.33036,4.508056 0,0 -10.63382,-0.277202 -18.031306,-1.66342 -7.39748,-1.38622 -14.61009,-3.142126 -22.10004,-1.940738 -7.489946,1.201391 -13.037667,4.158496 -16.736409,8.50198 -3.69874,4.343485 -1.704255,8.635557 1.479407,12.106614 3.278506,3.574467 7.952394,5.082545 9.524366,8.132226 1.571966,3.049674 0.294607,5.970594 -3.606263,5.82221 -2.832163,-0.107735 -4.323241,-1.22156 -5.280666,-2.324788 -3.417575,1.583268 -6.926227,2.001206 -10.785414,0.185355 1.035374,0.923568 2.921791,2.194633 5.012246,2.997588 -2.309997,2.382687 -6.149998,2.527786 -9.36751,1.428034 -3.217507,-1.099751 -6.452928,-3.77874 -7.652101,-7.202595 2.129867,3.172167 5.238721,5.518196 8.228991,6.540277 2.704763,0.924497 5.31332,0.736539 7.132904,-0.593703 -2.305528,-1.055087 -4.837751,-2.920623 -5.530968,-5.403377 3.711696,3.319739 9.01283,3.180012 12.324415,1.231244 0,0 1.140473,-0.770124 1.325412,-1.232199 0.184931,-0.462071 -1.122522,-0.399799 -3.513772,-0.693291 -2.391247,-0.293483 -4.207524,-1.108883 -4.438696,-1.478541 0,0 2.542737,0.600659 4.900683,-0.138658 2.357949,-0.739317 3.560481,-2.125675 3.514248,-2.356712 -0.04623,-0.231037 -3.891233,0.443408 -8.141268,-2.105124 -4.250032,-2.548531 -9.943378,-6.789618 -14.470818,-11.233212 -4.388415,-4.307144 -4.380939,-5.776232 -7.863787,-7.486105 -3.482849,-1.709874 -7.069295,-1.286456 -9.096707,-0.0081 -1.964746,1.238846 -2.889177,0.983731 -3.811272,0.234432 -0.754183,-0.612854 -1.222065,0.252592 -0.842446,1.641504 0.375543,1.373999 1.401223,1.804399 2.476804,2.998064 1.093876,1.213966 1.765329,4.83588 -0.392381,6.665594 0,0 1.917702,1.299461 2.472512,3.424998 0,0 1.710784,1.293786 2.265595,1.755857 0,0 -1.433225,5.730301 -1.618147,15.248103 -0.184919,9.517803 1.535896,12.380353 4.029155,13.573243 0,0 1.092377,9.78378 11.442397,15.02939 10.557519,5.35079 23.167859,3.57238 24.214022,3.44168 1.046161,-0.13069 1.858094,0.91498 0.354237,1.69915 -1.503857,0.7842 -2.841818,0.1771 -2.969301,0.62658 -0.127486,0.4495 3.361655,2.94517 7.846145,0.77287 4.484487,-2.1723 3.726887,-6.75803 3.726887,-6.75803 0,0 2.22316,-0.54424 3.59625,0.0439 1.37309,0.58812 3.98176,3.7418 4.05395,6.33825 0.0722,2.59646 -1.50427,4.11686 -1.43889,5.03171 0.0654,0.91487 3.1316,-0.46408 4.57696,-2.9404 1.44537,-2.47632 1.41971,-5.30427 0.11204,-8.04884 -1.03031,-0.65934 -1.94735,-1.13337 -4.26753,-2.12657 -2.36983,-1.01444 -5.1891,-1.80084 -11.038104,-3.22773 -5.851375,-1.42745 -10.02727,-2.04669 -13.496786,-2.74315 -3.469515,-0.69644 -6.24791,-1.47962 -9.198733,-3.22724 -5.919451,-3.50579 -6.867184,-8.13823 -5.667325,-11.57581 0.912636,-2.6147 3.126673,-3.8752 5.223931,-3.861465 0.699089,0.0046 1.385142,0.151801 1.802177,0.879122 -2.15948,-0.452889 -5.058704,0.304928 -6.104994,3.302543 -1.06328,3.04628 -0.399509,7.07446 5.243479,10.41651 2.830394,1.67629 5.462182,2.41998 8.892648,3.1086 3.430466,0.68863 7.658556,1.26438 13.538264,2.75172 5.965653,1.50909 10.224613,2.80599 13.390943,4.48757 3.16632,1.68158 5.60254,3.6573 7.63685,6.42974 2.0343,2.77243 2.77382,5.63733 2.77382,7.48562 0,1.8483 0.18506,1.98696 0.46247,1.98696 0.2774,0 2.77413,-4.94698 3.0513,-8.5482 0.27719,-3.60123 -0.83203,-12.29109 -8.41445,-18.02079 -8.43156,-5.55876 -15.72402,-8.05634 -24.753719,-9.87235 0.16736,-0.60819 0.602613,-0.85699 2.034362,-0.56512 8.008867,1.79235 15.498107,4.69452 22.722217,9.29867 -0.0112,-0.91358 -0.0643,-2.20234 -0.28034,-3.38974 0,0 1.75694,1.29408 1.94187,4.71342 0,0 3.23654,2.957 4.16122,4.43563 0,0 4.06823,-4.71311 3.97576,-10.81247 -0.0925,-6.09936 -3.32867,-10.350434 -8.32196,-14.601506 0,0 0.22565,-0.715003 0.55257,-0.911044 0.32693,-0.19604 4.04014,1.71194 7.73887,6.887161 3.698746,5.175209 3.976046,9.241309 3.236296,14.046869 -0.739746,4.80556 -5.270656,8.96433 -5.270656,9.51881 0,0.55449 0.39055,1.13159 2.51733,0.85434 2.12678,-0.27723 7.099146,-2.70266 9.318396,-8.24753 2.21924,-5.54488 2.68196,-12.84549 -0.36949,-19.499329 -3.05146,-6.653849 -7.952266,-10.165721 -12.668166,-13.215402 0,0 0.0638,-0.15765 0.19453,-0.222998 0.13076,-0.06534 6.586096,2.441208 10.469786,6.692277 3.80787,4.168088 5.27113,9.610772 5.27113,16.911522 0,7.30075 -1.73293,10.64879 -1.66487,11.32899 0.0681,0.68018 1.20211,0.68491 3.69875,-2.17994 2.49665,-2.86485 5.7331,-5.91437 7.49001,-13.95443 1.75689,-8.040071 -1.47941,-13.862 -1.47941,-13.862 3.73758,0.242733 7.12838,-0.306794 9.1544,-3.973912 0,0 -6.3594,-0.01962 -12.05171,-4.03538 -5.69231,-4.015758 -12.76044,-7.578334 -19.233236,-8.594894 0,0 -0.0309,-0.923936 0.0615,-1.016349 0.0925,-0.09242 2.9886,0.594782 9.552496,2.032699 6.51143,1.426421 14.74065,1.348922 18.83514,-1.693917 4.09448,-3.042837 5.24495,-8.685892 4.06872,-9.796122 -0.11027,-0.104084 -0.21429,-0.156011 -0.32086,-0.164389 z m -94.690604,7.141606 c 2.123844,0.97611 1.595714,5.284788 0.23457,7.63382 -1.361141,2.349029 -3.694716,4.22974 -6.105949,4.148783 1.844346,-0.811552 3.881413,-2.451583 5.121903,-4.592394 1.24049,-2.14081 1.498003,-4.861601 0.749476,-7.190209 z" />
  <path
     style="color:#000000;font-style:normal;font-variant:normal;font-weight:normal;font-stretch:normal;font-size:medium;line-height:normal;font-family:sans-serif;font-variant-ligatures:normal;font-variant-position:normal;font-variant-caps:normal;font-variant-numeric:normal;font-variant-alternates:normal;font-variant-east-asian:normal;font-feature-settings:normal;font-variation-settings:normal;text-indent:0;text-align:start;text-decoration:none;text-decoration-line:none;text-decoration-style:solid;text-decoration-color:#000000;letter-spacing:normal;word-spacing:normal;text-transform:none;writing-mode:lr-tb;direction:ltr;text-orientation:mixed;dominant-baseline:auto;baseline-shift:baseline;text-anchor:start;white-space:normal;shape-padding:0;shape-margin:0;inline-size:0;clip-rule:nonzero;display:inline;overflow:visible;visibility:visible;isolation:auto;mix-blend-mode:normal;color-interpolation:sRGB;color-interpolation-filters:linearRGB;solid-color:#000000;solid-opacity:1;vector-effect:none;fill:#ffffff;fill-opacity:1;fill-rule:nonzero;stroke:none;stroke-width:0.999998;stroke-linecap:butt;stroke-linejoin:miter;stroke-miterlimit:5;stroke-dasharray:none;stroke-dashoffset:0;stroke-opacity:1;color-rendering:auto;image-rendering:auto;shape-rendering:auto;text-rendering:auto;enable-background:accumulate;stop-color:#000000"
     d="M 36.716035,2.927304 C 33.193239,2.04913 29.83888,4.474119 29.358142,5.31492 c 0,0 3.344614,-2.21087 7.357893,-2.387616 z M 25.861975,4.952418 C 23.452201,5.28005 21.093591,7.929186 21.023732,9.135009 22.507243,7.605064 23.444479,6.333618 25.861975,4.952418 Z m 17.988843,0.915758 c -2.987662,-0.110561 -5.917248,1.72079 -6.704685,2.845043 0,0 3.464352,-1.925339 6.704685,-2.845043 z M 17.59127,10.867219 c -1.203726,-0.207187 -1.560832,0.817177 -1.471551,1.273493 0.263472,-0.374582 0.870746,-0.988666 1.471551,-1.273493 z m -3.302335,1.273493 c -2.220123,-0.231187 -3.611381,1.402776 -3.726952,2.353006 1.299895,-0.899402 1.590805,-1.725236 3.726952,-2.353006 z m -0.353998,23.536561 c 2.818212,-2.08591 3.750243,-4.415572 3.750243,-4.415572 0,0 -1.653842,2.104237 -4.779014,4.300694 -3.1251723,2.196457 -3.998222,3.835147 -4.433601,5.245241 1.581851,-1.848078 2.64416,-3.044453 5.462372,-5.130363 z"
     id="path1207" />
  <path
     style="font-variation-settings:normal;vector-effect:none;fill:#ffffff;fill-opacity:1;stroke:none;stroke-width:0.132292;stroke-linecap:butt;stroke-linejoin:miter;stroke-miterlimit:5;stroke-dasharray:none;stroke-dashoffset:0;stroke-opacity:1;stop-color:#000000"
     d="M 11.38226,18.36027 C 8.407979,17.900619 6.853377,19.276176 6.786151,20.355676 7.935989,18.935544 9.775737,18.54313 11.38226,18.36027 Z"
     id="path1217" />
  <path
     id="path1312"
     style="font-variation-settings:normal;vector-effect:none;fill:#e6e6e6;fill-opacity:1;stroke:none;stroke-width:0.500001;stroke-linecap:butt;stroke-linejoin:miter;stroke-miterlimit:5;stroke-dasharray:none;stroke-dashoffset:0;stroke-opacity:1;stop-color:#000000"
     d="M 96.921875 48.365234 C 92.607503 48.365234 89.762768 51.836339 89.515625 56.507812 C 89.236216 61.789358 92.484463 64.279297 96.798828 64.279297 C 101.1132 64.279297 103.83398 60.749675 103.83398 56.382812 C 103.83398 52.015961 101.23624 48.365234 96.921875 48.365234 z M 96.429688 52.177734 C 98.666518 52.177734 100.51367 54.054495 100.51367 56.507812 C 100.51367 58.961127 98.666518 60.837891 96.429688 60.837891 C 94.192853 60.837891 92.341797 58.961127 92.341797 56.507812 C 92.341797 54.054495 94.192853 52.177734 96.429688 52.177734 z "
     transform="scale(0.26458333)" />
</svg>
