<?xml version="1.0" encoding="UTF-8" standalone="no"?>
<svg xmlns:dc="http://purl.org/dc/elements/1.1/" xmlns:cc="http://creativecommons.org/ns#" xmlns:rdf="http://www.w3.org/1999/02/22-rdf-syntax-ns#" xmlns:svg="http://www.w3.org/2000/svg" xmlns="http://www.w3.org/2000/svg" xmlns:sodipodi="http://sodipodi.sourceforge.net/DTD/sodipodi-0.dtd" xmlns:inkscape="http://www.inkscape.org/namespaces/inkscape" width="500" height="535" viewBox="0 0 132.29166 141.55209" version="1.1" id="svg847" sodipodi:docname="koskitl.svg" inkscape:version="1.0.2 (e86c870879, 2021-01-15, custom)">
  <defs id="defs841"/>
  <sodipodi:namedview id="base" pagecolor="#ffffff" bordercolor="#666666" borderopacity="1.0" inkscape:pageopacity="0.0" inkscape:pageshadow="2" inkscape:zoom="0.49497475" inkscape:cx="450.52478" inkscape:cy="248.41698" inkscape:document-units="px" inkscape:current-layer="layer1" inkscape:document-rotation="0" showgrid="false" inkscape:snap-smooth-nodes="true" inkscape:showpageshadow="false" borderlayer="true" units="px" inkscape:window-width="1920" inkscape:window-height="1017" inkscape:window-x="-8" inkscape:window-y="-4" inkscape:window-maximized="1" inkscape:snap-global="true"/>
  <metadata id="metadata844">
    <rdf:RDF>
      <cc:Work rdf:about="">
        <dc:format>image/svg+xml</dc:format>
        <dc:type rdf:resource="http://purl.org/dc/dcmitype/StillImage"/>
        <dc:title/>
      </cc:Work>
    </rdf:RDF>
  </metadata>
  <g inkscape:label="Layer 1" inkscape:groupmode="layer" id="layer1" transform="translate(-32.34787,-57.914458)">
    <g id="g1084" transform="matrix(0.94000805,0,0,0.94000805,1.9406116,3.474401)" style="stroke-width:1.06382">
      <path style="font-variation-settings:normal;opacity:1;vector-effect:none;fill:#db0606;fill-opacity:1;stroke:none;stroke-width:0.281469;stroke-linecap:butt;stroke-linejoin:miter;stroke-miterlimit:4;stroke-dasharray:none;stroke-dashoffset:0;stroke-opacity:1;stop-color:#000000;stop-opacity:1" d="m 32.34787,57.914458 c 0,0 5.02515,80.609652 6.069011,94.257902 1.606068,20.99899 21.477234,56.32813 64.298299,56.32813 42.82107,0 62.69222,-35.32914 64.2983,-56.32813 1.04386,-13.64825 6.069,-94.257902 6.069,-94.257902 z" id="path844" sodipodi:nodetypes="cszscc"/>
      <path id="path1062" style="opacity:1;fill:#8b0404;fill-opacity:1;stroke:none;stroke-width:1.06382;stroke-linecap:round" d="m 424.2168,297.54492 36.73047,-32.16797 -2.96875,-1.72656 -97.55664,36.16797 -80.66211,30.62695 2.95898,-49.78906 -2.78516,-1.05273 -45.05273,54.90234 -53.60938,43.75976 1.17774,2.39258 53.54101,-2.95898 -32.50585,79.05469 -34.43946,-40.51563 -3.72656,0.54492 7.19726,57.73633 -7.19726,81.79102 1.64607,3.33923 33.7207,-36.53711 34.76995,78.40491 -54.1836,-6.68946 -3.09179,2.10508 105.48202,103.58573 -2.6914,-56.13827 80.20938,27.42403 -42.72852,37.63867 -0.43945,2.86328 148.45117,0.37891 -37.76172,-33.30664 c 27.74627,-4.91539 52.63093,-15.82533 75.72656,-31.96875 l -7.93164,46.07812 2.58985,2.86328 99.41797,-99.41797 -3.34766,-2.10547 -44.74617,5.86645 c 16.14451,-23.09472 27.81364,-49.81266 32.73047,-77.55859 l 27.97078,33.17457 4.15234,2.48437 -0.3789,-142.17773 -3.77344,0.16601 -27.77511,40.50642 C 578.42,429.54384 569.96583,403.13952 553.82199,380.04464 l 49.86997,1.68527 -102.44727,-102.45117 -4.7486,0.32478 7.06641,54.88086 z m -32.0625,59.27344 c 75.86581,-0.006 135.79545,59.86959 135.79492,133.72852 C 527.94865,564.405 468.07493,624.27873 394.2168,624.2793 320.35789,624.27983 258.483,563.40586 258.48242,488.54688 258.4819,413.69564 316.28844,356.82389 392.1543,356.81836 Z m -0.97071,6.13086 -2.96875,0.16601 -20.45898,81.60352 -86.43555,-19.88672 -1.58203,1.89453 55.87891,65.33594 -54.29688,56.19922 0.31836,3.24219 85.73828,-16.26758 20.83789,74.74023 2.86328,1.83399 26.77065,-74.1038 82.87975,13.79716 -54.73438,-64.95703 53.11328,-60.85157 -4,-0.86328 -76.33008,19.50781 z m -0.96875,104.95117 c 11.40269,1.5e-4 20.64634,9.2438 20.64649,20.64649 -1.5e-4,11.40272 -9.2438,20.64633 -20.64649,20.64648 -11.40272,-1.5e-4 -20.64634,-9.24376 -20.64648,-20.64648 1.4e-4,-11.40269 9.24376,-20.64634 20.64648,-20.64649 z" transform="scale(0.26458333)" sodipodi:nodetypes="cccccccccccccccccccccccccccccccccccccccccccccccssscccccccccccccccccccccccc"/>
      <path id="path848" style="opacity:1;fill:#cccccc;stroke:none;stroke-width:1.06382;stroke-linecap:round" d="m 318.45117,263.65039 35.97071,32.16797 a 193.69805,193.69805 0 0 0 -77.17969,31.9668 l 2.6914,-48.18164 -98.66211,98.6621 48.1836,-2.6914 a 193.69805,193.69805 0 0 0 -31.9707,77.17969 L 165.31836,416.7832 v 139.52735 l 32.16797,-35.97461 a 193.69805,193.69805 0 0 0 31.96875,77.18164 l -48.1836,-2.68946 98.66211,98.66016 -2.6914,-48.18359 a 193.69805,193.69805 0 0 0 77.17969,31.9707 l -35.97071,32.16797 h 139.52735 l -35.97461,-32.16992 a 193.69805,193.69805 0 0 0 77.18164,-31.96875 l -2.68946,48.18359 98.66016,-98.66016 -48.18555,2.68946 a 193.69805,193.69805 0 0 0 31.97266,-77.17969 l 32.16797,35.97266 V 416.7832 l -32.16797,35.97071 a 193.69805,193.69805 0 0 0 -31.9707,-77.17969 l 48.18359,2.6914 -98.66016,-98.6621 2.68946,48.18359 a 193.69805,193.69805 0 0 0 -77.18164,-31.96875 l 35.97461,-32.16797 z m 69.74219,89.16211 a 133.73346,133.73346 0 0 1 0.0215,0 A 133.73346,133.73346 0 0 1 521.94727,486.54688 133.73346,133.73346 0 0 1 388.21484,620.2793 133.73346,133.73346 0 0 1 254.48047,486.54688 133.73346,133.73346 0 0 1 388.19336,352.8125 Z" transform="scale(0.26458333)"/>
      <path id="path854" style="opacity:1;fill:#cccccc;fill-opacity:1;stroke:none;stroke-width:1.06382;stroke-linecap:round" d="m 388.21484,363.11523 -26.45898,77.60352 -80.43555,-15.88672 53.97852,61.71485 -53.97852,61.71484 80.43555,-15.88867 26.45898,77.60351 26.45704,-77.60351 80.43554,15.88867 -53.97656,-61.71484 53.97656,-61.71485 -80.43554,15.88672 z m 0,101.78516 a 21.646763,21.646763 0 0 1 21.64649,21.64649 21.646763,21.646763 0 0 1 -21.64649,21.64648 21.646763,21.646763 0 0 1 -21.64648,-21.64648 21.646763,21.646763 0 0 1 21.64648,-21.64649 z" transform="scale(0.26458333)"/>
      <path id="circle899" style="opacity:1;fill:#ffffff;stroke:none;stroke-width:1.06382;stroke-linecap:round" d="m 277.20675,332.64443 c 23.53159,-17.03413 50.7154,-28.84916 80.63895,-33.76552 l 5.53711,-0.40821 -34.93164,-30.82031 h 125.05469 l 4.47266,-4 H 318.45117 l 35.94531,32.14453 c -28.3161,4.98603 -54.50763,16.12755 -77.15429,31.98633 m 2.6914,-48.17773 -98.66211,98.6621 5.99219,-0.33398 92.33594,-92.33594 z m 216.5625,0 2.68946,48.17382 c -22.6464,-15.85837 -48.83669,-26.99841 -77.15235,-31.98437 l -3.10937,2.7793 c 29.58943,4.55886 56.94089,15.86213 80.43359,32.28515 1.33854,1.29013 2.74332,2.34294 4.20508,3.62696 l -3.1582,-50.97266 z M 390.75,352.82031 c -0.27279,4.8e-4 -0.54558,0.002 -0.81836,0.004 73.18302,0.94013 132.01576,60.5336 132.01563,133.72266 -5.7e-4,73.85814 -59.87429,133.73185 -133.73243,133.73242 -61.23649,2.5e-4 -114.64973,-41.59165 -129.65625,-100.96094 14.30751,61.46091 69.08714,104.95309 132.19141,104.95312 74.95907,2.9e-4 135.72577,-60.76553 135.72656,-135.7246 3e-4,-74.95983 -60.76673,-135.72686 -135.72656,-135.72657 z m -161.30078,22.75391 c -15.85878,22.64666 -27.0003,48.83819 -31.98633,77.1543 l 3.03516,3.39453 c 4.91491,-29.64053 16.62672,-57.42864 33.54297,-80.80469 z m -64.13086,41.20898 v 139.52735 l 4,-4.47266 V 421.25586 Z m 445.79297,0 -32.16797,35.97071 0.4082,5.53711 31.75977,-35.98047 z m -410.89453,100.5 -2.75391,3.08008 c 4.98604,28.31632 16.12741,54.50752 31.98633,77.1543 l -48.17774,-2.68946 4.24219,4.24219 50.69336,2.51563 -3.29687,-3.875 C 216.29929,574.24772 204.8526,546.89126 200.2168,517.2832 Z m 394.93945,77.54492 -48.18555,2.68946 -3.62695,4.20508 47.9043,-2.98633 z m -91.76563,46.84961 -4.20507,3.62696 -2.68946,48.18359 3.90821,-3.9082 z m -226.31445,0.66797 0.16602,2.96485 c 22.6473,15.85928 48.83921,27.00046 77.15625,31.98633 l -35.94727,32.14648 h 5.52735 l 37.58203,-33.18945 -5.53907,-0.40821 c -29.11476,-5.14015 -55.95399,-16.84031 -78.94531,-33.5 z" transform="scale(0.26458333)" sodipodi:nodetypes="cccccccccccccccccccccccccccccccccccccccccccccccccccccccccccccccccccccccc"/>
      <path id="path1051" style="opacity:1;fill:#ffffff;stroke:none;stroke-width:1.06382;stroke-linecap:round" d="m 388.21484,363.11523 -26.45898,77.60352 -80.43555,-15.88672 3.81055,4.35742 78.625,15.5293 26.14062,-76.66992 z m 106.89258,61.7168 -80.43554,15.88672 1.40429,4.11719 74.38477,-14.69141 z m -95.17773,43.51367 a 21.646763,21.646763 0 0 1 9.93164,18.20118 21.646763,21.646763 0 0 1 -21.64649,21.64648 21.646763,21.646763 0 0 1 -18.19726,-9.92774 22.245386,22.245386 0 0 0 19.81836,12.14844 22.245386,22.245386 0 0 0 22.24609,-22.24609 22.245386,22.245386 0 0 0 -12.15234,-19.82227 z m -64.63086,18.20118 -53.97852,61.71484 6.64649,-1.3125 50.08203,-57.25977 z m 29.43164,44.95117 -2.97461,0.875 26.45898,77.60351 1.93946,-5.77539 z" transform="scale(0.26458333)"/>
    </g>
  </g>
</svg>