<?xml version="1.0" encoding="UTF-8" standalone="no"?>
<!-- Created with Inkscape (http://www.inkscape.org/) -->

<svg
   width="499.99997"
   height="574.99994"
   viewBox="0 0 132.29165 152.1354"
   version="1.1"
   id="svg5"
   xml:space="preserve"
   xmlns="http://www.w3.org/2000/svg"
   xmlns:svg="http://www.w3.org/2000/svg"><defs
     id="defs2" /><path
     id="path294"
     style="fill:#005dbd;fill-opacity:1;stroke:none;stroke-width:0.79375;stop-color:#000000"
     d="m 0,0 v 85.989585 c 0,36.531305 29.614555,66.145815 66.145829,66.145815 36.531301,0 66.145831,-29.61451 66.145831,-66.145815 V 0 Z" /><path
     id="path8393"
     style="fill:#cccccc;fill-opacity:1;fill-rule:evenodd;stroke:none;stroke-width:0.132292;stroke-linejoin:round;stroke-miterlimit:10;stroke-dasharray:none;paint-order:normal;stop-color:#000000"
     d="m 37.246821,94.687755 c -0.277808,0.41586 -0.444488,0.74152 -0.672827,1.17822 -0.932964,-0.12019 -1.890663,-0.39807 -2.638599,-0.94309 -1.202734,0.69695 -1.517385,1.4444 -1.738395,2.64428 -1.324908,-0.35883 -2.411669,-1.44165 -2.696993,-2.54144 -0.893148,0.66605 -1.638374,1.55695 -2.136304,2.64066 -1.587788,3.455695 -0.07365,7.544375 3.382223,9.132255 2.465278,1.13273 5.252594,0.6861 7.224365,-0.91726 1.847358,0.89518 3.733028,1.80878 5.341792,2.58796 -1.696233,3.69843 -3.083946,7.5673 -3.915006,11.64373 l 4.979541,2.41898 c 2.504486,-2.87898 4.872188,-6.33435 6.900354,-10.203 12.557637,6.08607 27.271697,13.22396 30.619837,14.89108 5.36346,2.67061 8.70777,4.81765 8.48268,7.07192 -0.22508,2.25427 -2.9215,3.90188 -7.03523,3.13521 1.18896,-0.96591 1.82631,-2.25353 2.31097,-3.63027 -4.09776,1.48629 -7.76756,3.48624 -11.27683,5.67872 3.19053,2.61684 8.02746,4.65963 11.69438,5.9061 -0.3113,-1.07964 -1.44859,-2.44373 -2.18281,-3.4463 12.24895,2.73442 14.00285,-7.45905 19.864931,-6.58616 l 1.00304,-2.12907 c -2.94405,-3.45804 -0.83475,-11.92506 -6.029081,-17.45526 1.1379,0.13893 2.346361,-0.0154 3.222021,-0.493 -2.365541,-2.22904 -5.955051,-4.26268 -9.600451,-5.39243 -1.01449,3.64788 -0.70791,7.43898 0.53485,10.63914 0.80478,-0.49284 1.55055,-1.45233 2.0252,-2.51354 2.44987,3.125 2.14857,5.69687 0.71676,6.41253 -1.43184,0.71565 -4.25657,-0.54051 -11.07426,-3.78427 -4.22953,-2.01231 -18.40925,-8.78434 -30.459125,-14.54019 1.107053,-2.89368 2.008615,-5.94154 2.638598,-9.094015 l -1.948718,-0.93069 c 0.341631,2.30399 -0.01104,3.74936 -2.436027,5.543835 -0.09866,-1.21104 -0.07767,-2.472995 -0.752408,-3.558945 -1.225083,0.0342 -1.829999,0.81186 -2.464449,-0.27544 -0.928244,1.52023 -1.845053,3.064545 -2.726449,4.642095 -1.003484,-0.4794 -2.140373,-1.02256 -3.314526,-1.58337 -0.07529,0.71733 0.0057,1.43393 0.06408,2.14871 -1.54924,-0.31306 -2.943962,-1.43547 -3.282144,-2.48523 -0.338182,-1.049755 -0.20111,-1.692485 -0.0086,-2.315505 -0.608837,-0.66044 -1.194643,-1.48966 -1.198377,-2.33164 -0.411275,-0.44284 -0.885493,-0.83637 -1.418001,-1.16531 z m -3.673678,3.16157 c 0.39181,-0.007 0.791533,0.0709 1.171505,0.24546 1.35101,0.62053 1.94353,2.219135 1.322917,3.570315 -0.620615,1.3512 -2.219766,1.94328 -3.570842,1.3224 -1.351074,-0.62088 -1.942675,-2.21943 -1.321883,-3.570315 0.446195,-0.97095 1.397013,-1.54947 2.398303,-1.56786 z" /><path
     id="circle8447-7"
     style="fill:#cccccc;fill-opacity:1;fill-rule:evenodd;stroke:none;stroke-width:0.132293;stroke-linejoin:round;stroke-miterlimit:10;stroke-dasharray:none;paint-order:normal;stop-color:#000000"
     d="m 83.839329,82.324685 c -1.61434,1.08926 -2.00943,4.80732 -0.1354,7.29982 -1.31794,-0.38336 -2.12163,-1.73159 -3.37912,-2.71457 -0.24819,0.64529 -0.50332,2.71616 0.56328,4.8426 0.66539,0.31538 1.28807,0.60323 1.96473,1.19735 0.0364,0.86546 -0.0569,1.81118 -0.31419,2.42207 0.31624,0.7752 0.42693,1.50918 0.40824,2.16318 0.48005,0.53315 0.9873,1.01757 1.37305,1.44745 0.8801,0.98078 1.73199,0.89518 2.25361,1.318265 -3.06085,2.66175 -6.50755,5.6591 -10.46706,9.109 0.57992,1.45629 1.11814,3.03021 1.53892,4.41162 4.45831,-3.85357 8.62992,-7.46981 12.03802,-10.42624 0.91884,0.36702 -0.0489,0.69245 0.80047,2.22157 0.96345,1.73452 3.08858,3.55147 5.11235,3.51297 -0.87819,-1.39569 -1.09812,-2.98845 -1.09812,-2.98845 1.24194,0.90928 1.6335,2.93541 3.74189,4.23592 2.108411,1.3005 3.765661,0.64182 3.765661,0.64182 -2.268721,-2.03545 -2.774881,-3.4493 -2.983281,-4.45658 1.463091,1.03487 1.662131,2.4227 4.385781,3.19981 2.72365,0.77711 4.39611,-1.20406 4.39611,-1.20406 -2.86089,-1.35282 -4.43529,-2.99367 -5.96553,-5.38882 -1.53023,-2.39516 -2.147121,-2.44135 -4.188371,-1.66088 -1.9026,0.72745 -3.49188,0.48808 -4.747,-0.90744 0.78178,-0.678915 1.23737,-1.074375 1.72083,-1.494475 a 3.7276242,3.7276242 0 0 0 0.91622,0.11678 3.7276242,3.7276242 0 0 0 3.72742,-3.72742 3.7276242,3.7276242 0 0 0 -3.72742,-3.72742 3.7276242,3.7276242 0 0 0 -3.72794,3.72742 3.7276242,3.7276242 0 0 0 0.009,0.24133 c -0.63013,0.54738 -1.04595,0.90881 -2.17765,1.89239 -1.15233,-1.13214 -1.65311,-2.96494 -0.73691,-4.07468 0.98244,-1.18995 1.24835,-1.83639 -0.70641,-3.70572 -1.95477,-1.86933 -3.46585,-4.48938 -4.36149,-7.52461 z m -12.0034,30.821375 c -0.15226,0.13281 -0.36635,0.30642 -0.51677,0.4377 0.18696,0.0892 0.48769,0.27489 0.67179,0.36277 -0.003,-0.22399 -0.0284,-0.411 -0.15502,-0.80047 z m -6.11178,6.92722 c -0.0937,1.28482 0.003,2.60644 0.16072,3.88245 0.90889,-0.78021 1.88892,-1.6251 2.82773,-2.43241 -0.9241,-0.44889 -2.01739,-0.97863 -2.98845,-1.45004 z m -5.175908,2.92747 c -2.798941,2.45423 -5.293424,4.64813 -7.084838,6.23942 -0.0466,1.54651 0.574321,3.01774 1.124479,4.31343 0.474567,-0.39555 0.953625,-0.79507 1.467094,-1.22525 1.350724,-1.13163 3.132474,-2.64569 5.070491,-4.29896 0.18726,-1.95923 -0.227509,-3.29169 -0.577226,-5.02864 z m -11.424625,10.12342 c -6.245413,5.63079 -7.72628,7.19472 -8.294584,7.76025 -0.682012,0.67868 -0.721942,1.4851 -0.272335,2.01486 0.44961,0.52977 1.463271,0.6319 2.172994,0.0987 0.564591,-0.42412 2.159523,-1.47738 7.967989,-6.22959 -0.424487,-1.60352 -1.060136,-1.97974 -1.574064,-3.64422 z" /><path
     id="path2018"
     style="font-variation-settings:normal;vector-effect:none;fill:#c4a177;fill-opacity:1;stroke:none;stroke-width:0.132292;stroke-linecap:butt;stroke-linejoin:miter;stroke-miterlimit:4;stroke-dasharray:none;stroke-dashoffset:0;stroke-opacity:1;-inkscape-stroke:none;stop-color:#000000"
     d="m 80.722199,1.935282 c -0.52087,-0.02998 -1.24699,1.309837 -3.59926,2.236039 -2.50909,0.987949 -7.09787,2.149147 -13.728878,4.743897 -6.631021,2.594746 -8.131582,6.255671 -9.458337,9.536368 -1.326754,3.2807 -0.928151,5.885769 1.526005,6.323128 2.476931,0.441421 4.254892,2.386415 4.306197,5.364531 0.05455,3.166283 -1.505033,5.095247 -2.759521,6.739123 1.221707,1.158831 2.929743,2.570936 4.651912,3.721736 3.686562,-4.058175 3.740702,-8.662629 2.610172,-11.347627 -1.130506,-2.684999 -2.472959,-2.816708 -2.994128,-3.648356 -0.521164,-0.831648 -0.518071,-2.459416 0.548287,-5.438944 1.066361,-2.979527 2.176491,-4.668221 5.066871,-6.148979 2.89039,-1.480757 7.95542,-3.310462 10.29808,-4.23385 2.34266,-0.923388 3.2891,-1.725005 4.08916,-3.839042 0.80272,-2.121081 0.0784,-3.747992 -0.45475,-3.983219 -0.0333,-0.0147 -0.0671,-0.0228 -0.10181,-0.02481 z m 22.746421,0.159164 c -0.66696,0.0213 -1.75887,0.606558 -3.494361,1.303796 -2.76383,1.110376 -5.33874,1.90279 -8.23154,2.369364 -0.47182,2.265314 -1.22094,4.068331 -2.7926,5.338176 3.81449,-0.75403 9.6858,-2.021224 12.505701,-3.477307 2.76517,-1.427827 3.17839,-3.557392 2.80138,-4.865853 -0.14138,-0.490675 -0.38841,-0.680955 -0.78858,-0.668176 z M 89.645169,2.278414 c -0.32754,0.01946 -0.44743,0.303443 -0.58084,0.582393 -0.48791,1.020154 -2.24995,4.228138 -8.49354,6.664709 -6.2436,2.436579 -9.65767,3.608858 -12.54807,5.089612 -2.8904,1.480755 -3.97829,2.415498 -5.044653,5.395019 -1.066356,2.979522 -1.291658,4.38509 -0.770496,5.216736 0.521169,0.831646 1.863599,0.963363 2.994129,3.648356 1.13053,2.684992 1.33063,7.916777 -3.171379,12.884485 -4.501986,4.967721 -8.947522,5.850121 -9.966833,5.912821 -1.019307,0.0627 -1.082104,-0.62736 -1.082104,-0.62736 4.20111,-1.06663 7.547652,-3.020353 10.146667,-5.770703 -3.573569,-2.387958 -5.944508,-4.999399 -8.374683,-7.652763 1.881802,0.250909 4.312915,-0.768428 4.312915,-0.768428 0,0 -1.693776,-0.29787 -4.610571,-1.866036 -2.916794,-1.568174 -3.685046,-2.760038 -3.685046,-2.760038 1.521121,0.784078 4.735628,0.04703 4.735628,0.04703 0,0 -2.728432,-1.082139 -5.410006,-3.073714 -2.681567,-1.991575 -4.09329,-3.277319 -4.09329,-3.277319 2.258165,0.925219 4.548043,-0.188102 4.548043,-0.188102 0,0 -3.403286,-1.31724 -5.363497,-2.948141 C 41.227331,17.156078 39.518,15.885857 39.518,15.885857 c 2.901112,0.439083 3.967716,-1.207679 3.967716,-1.207679 0,0 -3.591149,-0.658881 -5.708178,-1.882055 -2.11703,-1.223173 -3.607015,-1.834514 -3.607015,-1.834514 0,0 -2.828674,0.569362 -7.988143,0.179834 0,0 0.414011,1.215802 -0.409277,2.407605 -0.823287,1.191813 -3.200678,0.989617 -4.155819,-0.01602 -0.95514,-1.005633 -0.483174,-2.482019 -0.483174,-2.482019 -0.482746,0.0087 -1.030947,0.0015 -1.892391,-0.05788 3.434287,-1.285901 9.518596,0.517333 13.752648,-0.43925 4.234055,-0.956582 4.202844,-4.030244 4.202844,-4.030244 0,0 -3.246123,1.364417 -7.02541,0.988053 -3.779286,-0.376369 -8.687976,-1.976092 -11.259778,-0.345199 -2.555444,1.620531 -1.758032,4.277259 -1.758032,4.277259 -2.716713,-0.08871 -4.235682,0.121737 -5.167126,1.585432 -0.931445,1.463703 -0.97571,1.76299 -0.609782,3.758944 0.365927,1.995953 1.430404,3.992004 1.430404,3.992004 l 0.554488,-0.166398 c 0,0 0.06628,-1.485959 0.398942,-2.53938 0.332655,-1.053418 0.935478,-1.051473 1.696537,-0.986503 0.909267,0.07762 4.036667,0.576678 6.908622,2.92747 0,0 -0.287977,0.305245 -1.563729,-0.03359 -1.29606,-0.344221 -3.980893,-0.133172 -4.768184,1.652096 0,0 2.31789,-0.321276 5.31182,1.463993 2.993931,1.785268 4.978369,3.137856 6.486426,7.639844 1.50805,4.501981 1.553892,6.647409 3.948079,13.351122 2.394187,6.703713 4.734052,12.179713 10.334253,17.143133 5.6002,4.96343 14.481881,8.22773 19.51612,9.18136 0,0 -0.110926,-2.90531 0.243913,-5.27823 0.519118,6.66192 1.888095,13.01088 3.831805,19.07635 0,0 3.12842,-2.45826 4.50722,-4.70514 0,0 -0.37695,1.30812 -1.02009,2.19522 0,0 0.25094,5.84231 0.0977,7.04608 -0.15343,1.20376 -0.5789,1.60566 -2.48461,2.3089 -1.85195,0.68342 -4.52281,1.27194 -5.936585,2.04639 0,0 -0.02486,1.56802 0.116272,2.41484 0,0 -1.191599,0.84686 -1.332735,2.35231 -0.141136,1.50545 0.815216,2.870125 1.379761,3.230805 0.724472,-1.155225 0.484895,-2.556555 2.038635,-3.183785 0,0 0.674262,0.58067 1.364262,0.73742 2.29532,-2.15364 3.20679,-2.88439 4.93975,-4.40696 0,0 -0.49817,5.12428 -0.39171,5.833745 0.10647,0.70946 0.96706,1.33045 2.19521,0.48628 0,0 0.18849,1.28613 1.0666,2.07015 0.87818,0.78409 1.83466,0.53318 2.32079,0 0,0 -0.81565,-0.5959 -0.79995,-1.6309 0.0157,-1.034995 0.20381,-1.505765 0.95653,-2.101675 0,0 -0.54852,-3.48143 -1.20716,-5.56711 1.05121,0.52561 1.9647,0.98154 3.44992,2.43086 1.48523,1.44932 1.80347,1.16066 2.71301,1.16066 0.90955,0 1.50534,3.120215 1.50534,3.120215 0,0 2.07005,-1.912895 0.67437,-4.735625 0,0 0.39169,-0.59593 0.34469,-1.99161 -0.80521,-0.89467 -1.75651,-1.11407 -4.56303,-2.07016 -2.80704,-0.95659 -3.79501,-1.30173 -3.66955,-4.29689 0.12541,-2.99522 0.15658,-4.45348 0.15658,-4.45348 0,0 -0.98808,-1.08186 -1.03508,-2.46186 1.56514,1.11166 1.42475,2.4204 4.40697,2.91662 -0.15761,-1.79987 -0.60135,-2.85593 -1.69395,-4.40645 1.64185,0.40209 1.80109,1.17472 3.88917,1.30173 0,0 -0.31358,-2.68191 -2.17972,-4.18735 1.40586,-0.14059 2.43048,0.57237 3.70107,0.0786 0,0 -1.34871,-2.3053 -5.15938,-4.29689 1.18927,-0.12545 2.04889,0.64316 3.55948,0.43925 -0.9604,-2.06616 -2.90461,-3.679 -5.25343,-4.73615 0,0 0.59635,-0.0312 2.22726,0.894 1.63083,0.92523 3.22149,2.3261 4.08398,4.03542 0,0 -0.7701,0.45973 -1.60662,0.52813 0,0 1.40332,1.13629 2.80707,2.55592 1.62394,1.64225 4.2623,2.98066 9.92652,8.86044 5.7709,5.99037 8.516391,8.25877 12.055601,10.09757 3.52769,1.83285 4.87929,-0.3325 4.87929,-1.46347 0,-1.13105 -1.37514,-2.19563 -3.72587,-3.72588 -2.35081,-1.53017 -2.883,-2.4841 -3.12695,-3.28248 1.79518,0.82855 2.04044,1.53077 4.5682,3.32693 2.78298,1.97744 5.6109,3.41497 7.91735,2.46134 2.30638,-0.95356 0.90504,-3.56664 -1.3746,-5.23378 -2.27957,-1.66719 -5.21202,-2.92742 -6.49831,-4.74597 0,0 1.37497,0.48786 3.68143,1.8185 2.30645,1.33058 4.39119,3.10489 6.85281,3.45973 2.46169,0.35484 3.10493,-1.10878 2.68356,-2.59467 -0.42137,-1.48589 -3.03835,-3.43749 -5.30045,-4.47983 -2.26209,-1.04234 -4.01399,-1.9738 -4.94544,-2.90525 0,0 1.39993,0.1467 4.6793,1.84072 3.34879,1.72977 5.14356,2.55914 6.56446,1.17563 1.4209,-1.38343 -0.97561,-4.03646 -3.06028,-5.10098 -2.08461,-1.06451 -6.98573,-3.03845 -8.36073,-4.03644 0,0 0.88698,-0.11087 3.85868,1.06453 2.97177,1.1754 4.01658,2.15426 5.74642,1.8216 1.72984,-0.33266 1.64547,-2.11854 0.71055,-3.33675 -0.9349,-1.21821 -2.70386,-2.01498 -9.14104,-3.6928 -6.43717,-1.67781 -15.168971,-4.21761 -22.487521,-7.54424 -1.8318,0.73674 -4.73843,0.8163 -8.847,0.032 -4.19584,-0.80073 -9.76995,-3.51297 -9.76995,-3.51297 2.30523,1.70932 7.44508,4.4301 8.9855,5.06533 1.52113,0.62727 4.35952,2.52499 2.08566,3.55999 -2.27386,1.03499 -6.36659,0.14111 -11.71401,-1.99161 -5.352421,-2.13469 -8.593792,-5.30045 -8.593792,-5.30045 0,0 -1.552335,0.92497 -3.685047,0.2036 -2.288091,-0.77393 -2.713012,-2.13268 -2.713012,-2.13268 2.524755,1.78765 4.343812,1.53718 5.849255,1.09812 1.505442,-0.43906 0.470255,-2.18023 0.470255,-2.18023 1.550714,0.20043 1.460366,1.94549 0.674378,2.54041 3.528403,3.05795 9.079803,5.5203 13.360943,6.63371 4.28106,1.11341 6.24126,0.68993 6.35103,0.14107 0.10978,-0.5488 -0.23497,-0.92565 -4.04575,-2.74453 -3.79417,-1.811 -5.51516,-2.76196 -7.73131,-4.59455 0,0 -2.30947,0.62402 -4.56303,-0.14108 -2.253522,-0.76511 -2.085657,-1.70946 -2.085657,-1.70946 2.446357,1.47408 5.738127,1.51589 6.899837,0.79996 1.09221,-0.67311 -0.17262,-2.14871 -2.57194,-2.14871 0.36068,-1.14478 2.44657,-0.73712 3.60702,0.1881 1.16046,0.92523 0.4501,2.06913 0.4501,2.06913 0,0 4.95493,2.76339 10.6009,3.50418 5.72136,0.75061 7.60165,-1.15155 7.58455,-2.04019 -0.0171,-0.88865 -1.4639,-0.55483 -4.81262,-1.48621 -3.21831,-0.89516 -7.01714,-2.76779 -7.01714,-2.76779 -1.70931,1.34857 -5.20629,0.47017 -6.71174,-0.1571 -1.50546,-0.62727 -1.36426,-1.23868 -1.36426,-1.23868 3.23045,1.34866 7.35546,1.67614 8.02949,0.047 0.67402,-1.62881 -4.07366,-5.011577 -4.07366,-5.011577 5.03386,1.944537 9.07899,0.477177 8.99739,-0.665592 -0.0816,-1.142758 -3.73259,-3.512447 -3.73259,-3.512447 3.30879,-0.06273 8.02731,-0.866695 8.10751,-3.293339 0.0802,-2.426651 -4.39611,-3.973918 -4.39611,-3.973918 4.98204,-0.468871 7.914,-2.023443 8.19381,-4.154268 0.27981,-2.130825 -5.25601,-2.838586 -5.25601,-2.838586 0,0 6.21051,-2.374907 5.67718,-5.722132 -0.53638,-3.366479 -4.72375,-4.789888 -4.72375,-4.789888 3.57057,0.79838 4.94544,2.594674 4.94544,2.594674 10.573161,-2.484696 20.349791,-8.299349 22.593451,-11.052038 2.24365,-2.752696 1.56981,-5.551871 0.6289,-5.300969 -0.94091,0.250909 -8.42872,4.728647 -14.902961,6.670911 -6.47421,1.942264 -11.0107,2.282031 -11.0107,2.282031 -0.36126,0.226455 -0.75253,0.404246 -1.12293,0.525032 2.39786,-1.661063 4.10251,-4.901533 4.32429,-7.540624 0.15246,-1.814383 -0.69068,-2.541415 -1.15084,-2.613794 -0.0559,-0.0088 -0.10669,-0.0115 -0.15348,-0.0088 z m -67.441357,8.73125 -0.345199,0.01137 c 0,0 -0.494068,1.59508 0.642855,2.426209 1.136923,0.83113 3.7065,-0.03305 2.944006,-2.353345 -0.3542,-0.02325 -0.817736,-0.05691 -1.099157,-0.0708 0.08407,1.727111 -2.044892,1.689005 -2.142505,-0.01343 z m 91.154128,4.632792 c -1.38907,-0.0033 -5.94629,2.645228 -11.36934,4.031795 -5.784501,1.478997 -10.642241,2.01383 -10.642241,2.01383 0.36068,2.901113 -3.87315,5.174878 -3.87315,5.174878 0,0 2.1905,0.525892 3.0639,1.846399 8.61356,-0.03276 17.696101,-4.516135 20.660231,-7.041947 3.14919,-2.683453 3.41537,-5.588561 2.39521,-5.987748 -0.0638,-0.02495 -0.14201,-0.03699 -0.23461,-0.03721 z m -3.42253,13.938166 c -0.0732,-0.0024 -0.14876,-0.0015 -0.22738,0.0021 -1.3627,0.06236 -3.58924,0.990372 -8.20208,1.332736 -5.580791,0.414192 -11.053081,0.228409 -11.053081,0.228409 -1.63084,3.104972 -6.21047,3.575493 -6.21047,3.575493 0,0 2.18647,0.989097 2.7435,2.656168 4.41933,0.494329 11.26003,0.326173 16.626891,-1.204061 5.36694,-1.530228 8.20577,-5.96601 6.91948,-6.47609 -0.18089,-0.07173 -0.37735,-0.107477 -0.59686,-0.114722 z m -23.027021,9.561174 c -1.41136,2.775662 -6.79028,2.94814 -6.79028,2.94814 0.90551,0.489496 2.3449,1.63049 2.389,2.861324 3.24488,1.261705 9.82002,1.756065 14.63011,1.000455 4.737971,-0.744275 8.316361,-3.991903 7.562331,-5.256009 -0.75404,-1.264101 -3.21563,0.354744 -8.915221,-0.04444 -5.69953,-0.399193 -8.87594,-1.509468 -8.87594,-1.509468 z m -5.0338,7.119459 c -1.36179,1.28606 -3.64816,1.61974 -5.89628,1.23869 1.34608,0.9319 2.05085,2.21027 1.65571,3.35741 9.11486,4.10283 15.86222,2.03413 16.64239,0.52762 0.78016,-1.50652 -0.88706,-1.30816 -5.25601,-2.48357 -4.36888,-1.1754 -7.14581,-2.64015 -7.14581,-2.64015 z m -34.841286,19.29908 c -1.878614,3.42437 -4.48842,11.57441 -4.719608,14.7407 4.064897,-0.0578 4.241211,-3.67613 5.951058,-3.55327 0,0 -1.307859,2.43152 -2.176095,3.15743 0,0 -1.205632,4.90121 -1.720308,6.00015 -0.51468,1.09895 -1.654512,1.3198 -3.684013,1.4056 -1.972302,0.0834 -6.114184,0.29159 -7.697204,0.59583 0,0 -0.48347,1.79418 -0.451652,2.80035 0,0 -1.499888,0.44308 -2.208651,2.09754 -0.708763,1.65447 0.06964,3.45241 1.35909,3.8902 0.212334,-1.14437 1.024959,-2.08124 2.27273,-2.56315 0,0 0.809006,0.7903 2.248958,1.00976 1.511705,-2.88403 3.500115,-3.21233 6.259049,-4.17804 -0.541365,1.08274 -3.017807,4.02529 -3.129008,4.72374 -0.112792,0.70849 0.570218,1.68947 1.243852,2.3487 0,0 -0.442471,1.241 -0.169499,2.067565 0.330803,1.00169 1.513085,1.87685 2.006079,2.00608 0,0 -0.222139,-2.685085 0.794267,-2.880955 1.100334,-0.21206 1.595847,-0.21055 2.181262,-0.4532 0,0 0.152213,-3.87428 0.963766,-7.34736 1.608118,1.60639 3.115842,5.58774 3.386356,6.09937 0.270516,0.51163 1.188826,-0.38139 2.054655,-0.10283 0.865837,0.27857 1.088822,2.788455 1.088822,2.788455 0.998499,-0.922725 1.958994,-2.348605 1.041797,-4.348575 0,0 1.42127,-0.69568 1.267623,-1.88463 -0.153647,-1.18901 -1.783277,-1.54672 -4.086055,-3.4153 -2.171001,-1.76165 -2.01194,-2.21207 -1.565796,-4.71237 0.446139,-2.50036 0.932759,-5.39864 0.932759,-5.39864 0,0 -0.499761,-1.50536 -0.357084,-2.88044 0.804462,1.74141 1.163999,5.39061 3.850928,6.77633 0.495287,-1.36961 0.568862,-4.69022 0.0036,-6.5009 1.126165,1.08948 1.464397,2.81457 3.413228,3.57498 0.382089,-1.60266 0.196031,-3.88294 -0.46302,-5.67304 1.154997,0.52308 1.538836,2.40641 2.950207,2.27479 0,0 0.878101,-2.99813 0.189136,-7.10344 -2.934484,-0.6399 -8.23468,-2.70452 -13.031246,-5.36143 z" /><path
     id="path21381"
     style="color:#000000;fill:#cccccc;fill-opacity:1;stroke:none;-inkscape-stroke:none"
     d="m 76.831479,98.122685 c -0.49737,-7.8e-4 -1.02165,0.099 -1.54305,0.28784 0.0507,0.25642 0.10051,0.51424 0.14831,0.77412 -0.61814,0.48648 -1.03016,1.092215 -1.00976,1.831915 0.0204,0.73974 0.51131,1.11098 1.125,1.52136 -1.29419,1.30423 -2.86571,1.33739 -4.16099,0.0816 -0.50802,1.39239 -0.57511,2.67911 -0.55139,3.70416 0.0326,1.41014 0.74253,3.50531 1.20561,4.78938 0.35943,0.99662 0.85092,2.01149 0.77263,3.22844 1.67209,0.7981 3.45735,1.6083 4.80533,2.25132 -0.1327,-1.20317 -0.41609,-2.39699 -0.82269,-3.5264 -0.91031,-2.528 -1.60591,-3.80021 -1.88619,-5.25807 -0.28027,-1.45787 -0.37418,-2.90158 0.57619,-4.46278 0.95037,-1.5612 1.9509,-1.91743 3.7636,-1.63401 1.03324,-1.839745 -0.42752,-3.425365 -2.10375,-3.574965 -0.10477,-0.009 -0.21123,-0.0138 -0.31885,-0.014 z M 58.369562,120.48876 c -1.510981,-0.005 -3.143092,0.42087 -5.020365,1.5136 -1.781534,1.03701 -3.210951,3.03969 -3.622518,4.6731 -0.411571,1.6334 -0.924936,3.44229 0.09405,6.13606 1.018984,2.69377 2.143733,4.30341 1.652612,6.30608 -0.491117,2.00262 -2.508891,3.9796 -2.508891,3.9796 l 0.741557,1.14773 c 0,0 4.713715,-1.30185 5.183663,-6.18928 0.276758,-2.87828 -1.526843,-4.59274 -1.994193,-6.89571 -0.233677,-1.15149 -0.156852,-2.37535 0.03566,-3.13934 0.192504,-0.764 0.993441,-2.02551 2.00763,-2.70164 1.057839,-0.70524 2.02721,-0.92908 2.974495,-0.88625 0.747017,-0.65633 1.538231,-1.35028 2.351794,-2.06344 -0.09486,-0.5521 -0.167993,-1.11492 -0.186035,-1.69189 -0.556599,-0.11722 -1.123662,-0.18683 -1.709456,-0.18862 z m 12.731517,2.1947 c -0.73114,0.62632 -1.65798,0.98969 -2.85512,0.94568 -0.29904,-0.011 -0.5837,-0.0433 -0.85938,-0.0904 -0.44531,0.38266 -0.87351,0.75014 -1.30844,1.12345 0.20453,0.9708 0.42508,1.90725 0.52813,2.77967 0.64608,0.13863 1.34356,0.23626 2.11408,0.26459 2.80083,0.10297 5.1365,-1.10754 6.70088,-2.91972 -1.32944,-0.64779 -2.72447,-1.32752 -4.32015,-2.10323 z" /><path
     id="path22223"
     style="color:#000000;fill:#cccccc;fill-opacity:1;stroke:none;-inkscape-stroke:none"
     d="m 87.063419,108.63832 c -0.29755,-0.003 -0.60399,0.0485 -0.91209,0.16588 0.78958,2.47782 0.13642,3.52679 -1.28313,4.12533 -1.37514,0.5798 -3.30102,0.062 -4.69377,-0.41806 -0.76578,0.66223 -1.54233,1.33321 -2.32285,2.00763 0.11848,0.41655 0.22116,0.80544 0.293,1.12758 0.76053,0.3266 1.57183,0.6216 2.3828,0.8232 1.58956,0.39516 3.95902,0.54179 6.11281,-0.3762 2.15378,-0.91798 3.19289,-2.73578 3.29179,-4.41575 0.0834,-1.41749 -1.2618,-3.02349 -2.86856,-3.03961 z m -15.93443,1.64538 c -1.6684,0.14396 -3.45847,0.51844 -4.6731,0.97875 1.64409,0.78504 2.70254,1.28958 4.21318,2.01073 0.32915,-0.28718 0.67171,-0.6288 1.00111,-0.91613 -0.13585,-0.76618 -0.39421,-1.43505 -0.54119,-2.07335 z m -9.928592,7.59488 c -0.663983,2.42004 -0.170674,4.24688 0.316776,6.48333 0.582226,2.67128 0.290667,4.28945 -0.478007,6.12469 -0.744826,1.7783 -2.998367,3.02545 -4.470011,2.28513 -0.589376,0.49353 -1.151131,0.9621 -1.696537,1.41542 0.25457,0.59315 0.496883,1.19728 0.686263,1.85415 3.872707,0.40984 6.599494,-0.58173 8.238258,-2.6293 1.63876,-2.04757 2.30488,-4.21075 1.8824,-6.95035 -0.42248,-2.7396 -1.00072,-4.26488 -0.54295,-6.67362 -1.28896,-0.62567 -2.598479,-1.26051 -3.936192,-1.90945 z m -12.752193,11.49129 c -5.804913,-0.009 -8.056697,1.83537 -8.828918,4.63641 l 1.491898,0.68058 c 2.050343,-2.13191 4.667897,-2.11061 6.80837,-1.36581 0.330208,-0.29903 0.651041,-0.58954 1.011825,-0.91467 -0.271145,-1.12468 -0.365867,-2.1486 -0.483175,-3.03651 z" /></svg>
