<?xml version="1.0" encoding="UTF-8" standalone="no"?>
<svg
   xmlns:dc="http://purl.org/dc/elements/1.1/"
   xmlns:cc="http://creativecommons.org/ns#"
   xmlns:rdf="http://www.w3.org/1999/02/22-rdf-syntax-ns#"
   xmlns:svg="http://www.w3.org/2000/svg"
   xmlns="http://www.w3.org/2000/svg"
   xmlns:sodipodi="http://sodipodi.sourceforge.net/DTD/sodipodi-0.dtd"
   xmlns:inkscape="http://www.inkscape.org/namespaces/inkscape"
   width="532.45081"
   height="766"
   viewBox="0 0 140.8776 202.67084"
   version="1.1"
   id="svg847"
   sodipodi:docname="svg.svg"
   inkscape:version="1.0.2 (e86c870879, 2021-01-15, custom)">
  <defs
     id="defs841" />
  <sodipodi:namedview
     id="base"
     pagecolor="#ffffff"
     bordercolor="#666666"
     borderopacity="1.0"
     inkscape:pageopacity="0.0"
     inkscape:pageshadow="2"
     inkscape:zoom="0.24748737"
     inkscape:cx="285.44001"
     inkscape:cy="130.27201"
     inkscape:document-units="px"
     inkscape:current-layer="layer1"
     inkscape:document-rotation="0"
     showgrid="false"
     inkscape:snap-smooth-nodes="true"
     inkscape:showpageshadow="false"
     borderlayer="true"
     units="px"
     inkscape:window-width="1920"
     inkscape:window-height="1017"
     inkscape:window-x="-8"
     inkscape:window-y="-4"
     inkscape:window-maximized="1"
     inkscape:snap-global="true" />
  <metadata
     id="metadata844">
    <rdf:RDF>
      <cc:Work
         rdf:about="">
        <dc:format>image/svg+xml</dc:format>
        <dc:type
           rdf:resource="http://purl.org/dc/dcmitype/StillImage" />
        <dc:title />
      </cc:Work>
    </rdf:RDF>
  </metadata>
  <g
     inkscape:label="Layer 1"
     inkscape:groupmode="layer"
     id="layer1"
     transform="translate(-20.439782,-47.174014)">
    <path
       id="path1378"
       style="fill:#ffd81a;fill-opacity:1;stroke:#c2a100;stroke-width:0.529167;stroke-miterlimit:4;stroke-dasharray:none;stroke-opacity:1"
       d="m 30.203751,93.525336 c -1.063996,0 -1.920577,1.119924 -1.920577,2.22862 0,1.108692 0.856581,1.962854 1.920577,1.962854 H 151.55343 c 1.064,0 1.92058,-0.854162 1.92058,-1.962854 0,-1.108696 -0.85658,-2.22862 -1.92058,-2.22862 V 80.698477 c 1.064,0 1.92058,-1.129782 1.92058,-2.19078 v -0.09539 c 0,-1.060998 -0.85658,-1.915158 -1.92058,-1.915158 H 30.203751 c -1.063996,0 -1.920577,0.85416 -1.920577,1.962854 0,1.108692 0.856581,2.238474 1.920577,2.238473 z"
       sodipodi:nodetypes="czsszccsssszcc" />
    <path
       id="path1380"
       style="fill:#c2a100;fill-opacity:1;stroke:none;stroke-width:0.264583"
       d="M 151.55386,80.422899 V 81.23558 H 30.203962 v -0.812681 z m 0,12.555485 v 0.812675 H 30.203962 v -0.812675 z" />
    <ellipse
       style="fill:#f1f1f1;fill-opacity:1;stroke:none;stroke-width:0.264583"
       id="circle1382"
       cx="-106.681"
       cy="84.129601"
       transform="scale(-1,1)"
       rx="2.111285"
       ry="2.105329" />
    <ellipse
       style="fill:#f1f1f1;fill-opacity:1;stroke:none;stroke-width:0.264583"
       id="circle1384"
       cx="-106.681"
       cy="90.084366"
       transform="scale(-1,1)"
       rx="2.111285"
       ry="2.105329" />
    <ellipse
       style="fill:#f1f1f1;fill-opacity:1;stroke:none;stroke-width:0.264583"
       id="circle1388"
       cx="-136.25778"
       cy="84.425766"
       transform="scale(-1,1)"
       rx="1.9012756"
       ry="1.8959122" />
    <ellipse
       style="fill:#f1f1f1;fill-opacity:1;stroke:none;stroke-width:0.264583"
       id="circle1390"
       cx="-136.25778"
       cy="89.788208"
       transform="scale(-1,1)"
       rx="1.9012756"
       ry="1.8959122" />
    <ellipse
       style="fill:#f1f1f1;fill-opacity:1;stroke:none;stroke-width:0.264583"
       id="circle1394"
       cx="-45.499413"
       cy="84.129601"
       transform="scale(-1,1)"
       rx="2.111285"
       ry="2.105329" />
    <ellipse
       style="fill:#f1f1f1;fill-opacity:1;stroke:none;stroke-width:0.264583"
       id="circle1396"
       cx="-45.499413"
       cy="90.084366"
       transform="scale(-1,1)"
       rx="2.111285"
       ry="2.105329" />
    <ellipse
       style="fill:#f1f1f1;fill-opacity:1;stroke:none;stroke-width:0.264583"
       id="circle1400"
       cx="-75.076195"
       cy="84.129601"
       transform="scale(-1,1)"
       rx="2.111285"
       ry="2.105329" />
    <ellipse
       style="fill:#f1f1f1;fill-opacity:1;stroke:none;stroke-width:0.264583"
       id="circle1402"
       cx="-75.076195"
       cy="90.084366"
       transform="scale(-1,1)"
       rx="2.111285"
       ry="2.105329" />
    <path
       id="path1406"
       style="fill:#f90606;fill-opacity:1;stroke:none;stroke-width:0.264583"
       d="m 97.976684,87.106974 -7.098089,-4.550184 -7.098092,4.550189 7.098079,4.550189 z"
       sodipodi:nodetypes="ccccc" />
    <path
       id="path1408"
       style="fill:#0055cc;fill-opacity:1;stroke:none;stroke-width:0.264582"
       d="m 125.40939,84.042446 c -2.18276,-1.697749 -5.69725,-1.697747 -7.88,-4e-6 -2.18278,1.697766 -2.18276,4.431316 0,6.129067 2.18276,1.697749 5.69723,1.697764 7.88001,4e-6 2.18275,-1.697743 2.18276,-4.431309 -1e-5,-6.129067 z" />
    <path
       id="path1410"
       style="fill:#f90606;fill-opacity:1;stroke:none;stroke-width:0.264583"
       d="m 155.10223,87.106979 -3.54905,-4.550189 -6.59109,4.550191 6.59109,4.550187 z"
       sodipodi:nodetypes="ccccc" />
    <path
       id="path1412"
       style="fill:#f90606;fill-opacity:1;stroke:none;stroke-width:0.264583"
       d="M 26.654959,87.106979 30.204,82.55679 36.795102,87.106981 30.204,91.657168 Z"
       sodipodi:nodetypes="ccccc" />
    <path
       id="path1414"
       style="fill:#0055cc;fill-opacity:1;stroke:none;stroke-width:0.264582"
       d="m 64.227815,84.042444 c -2.182757,-1.697749 -5.697268,-1.697747 -7.880026,-4e-6 -2.182758,1.697766 -2.182739,4.431316 1.9e-5,6.129067 2.182777,1.697749 5.69723,1.697764 7.880007,4e-6 2.182739,-1.697743 2.182758,-4.431311 0,-6.129067 z" />
    <ellipse
       style="fill:#f1f1f1;fill-opacity:1;stroke:#b3b3b3;stroke-width:0.529167;stroke-miterlimit:4;stroke-dasharray:none"
       id="circle1420"
       cx="83.081635"
       cy="68.722"
       rx="7.7971354"
       ry="7.7751403" />
    <ellipse
       style="fill:#f1f1f1;fill-opacity:1;stroke:#b3b3b3;stroke-width:0.529167;stroke-miterlimit:4;stroke-dasharray:none"
       id="circle1422"
       cx="90.878578"
       cy="55.213737"
       rx="7.7971354"
       ry="7.7751403" />
    <ellipse
       style="fill:#f1f1f1;fill-opacity:1;stroke:#b3b3b3;stroke-width:0.529167;stroke-miterlimit:4;stroke-dasharray:none"
       id="circle1424"
       cx="67.487358"
       cy="68.722"
       rx="7.7971354"
       ry="7.7751403" />
    <ellipse
       style="fill:#f1f1f1;fill-opacity:1;stroke:#b3b3b3;stroke-width:0.529167;stroke-miterlimit:4;stroke-dasharray:none"
       id="circle1426"
       cx="51.893089"
       cy="68.722"
       rx="7.7971354"
       ry="7.7751403" />
    <ellipse
       style="fill:#f1f1f1;fill-opacity:1;stroke:#b3b3b3;stroke-width:0.529167;stroke-miterlimit:4;stroke-dasharray:none"
       id="circle1428"
       cx="36.298817"
       cy="68.722"
       rx="7.7971354"
       ry="7.7751403" />
    <ellipse
       style="fill:#f1f1f1;fill-opacity:1;stroke:#b3b3b3;stroke-width:0.529167;stroke-miterlimit:4;stroke-dasharray:none"
       id="circle1432"
       cx="-98.675896"
       cy="68.722"
       transform="scale(-1,1)"
       rx="7.7971354"
       ry="7.7751403" />
    <ellipse
       style="fill:#f1f1f1;fill-opacity:1;stroke:#b3b3b3;stroke-width:0.529167;stroke-miterlimit:4;stroke-dasharray:none"
       id="circle1434"
       cx="-114.27018"
       cy="68.722"
       transform="scale(-1,1)"
       rx="7.7971354"
       ry="7.7751403" />
    <ellipse
       style="fill:#f1f1f1;fill-opacity:1;stroke:#b3b3b3;stroke-width:0.529167;stroke-miterlimit:4;stroke-dasharray:none"
       id="circle1436"
       cx="-129.86446"
       cy="68.722"
       transform="scale(-1,1)"
       rx="7.7971354"
       ry="7.7751403" />
    <ellipse
       style="fill:#f1f1f1;fill-opacity:1;stroke:#b3b3b3;stroke-width:0.529167;stroke-miterlimit:4;stroke-dasharray:none"
       id="circle1438"
       cx="-145.45872"
       cy="68.722"
       transform="scale(-1,1)"
       rx="7.7971354"
       ry="7.7751403" />
    <path
       style="fill:#0055cc;fill-opacity:1;stroke:none;stroke-width:0.264583px;stroke-linecap:butt;stroke-linejoin:miter;stroke-opacity:1"
       d="m 24.732768,97.71681 v 85.78328 c 0,30.88445 23.612043,66.34476 66.145833,66.34476 42.533779,0 66.145829,-35.46031 66.145829,-66.34476 V 97.71681 Z"
       id="path1348"
       sodipodi:nodetypes="cszscc" />
    <path
       id="path1350"
       style="fill:#f1f1f1;fill-opacity:1;stroke:none;stroke-width:0.264583px;stroke-linecap:butt;stroke-linejoin:miter;stroke-opacity:1"
       d="m 25.176826,98.22798 v 85.20652 c 0,30.67692 23.453994,65.89887 65.701946,65.89887 1.680063,0 3.326946,-0.0614 4.947284,-0.17023 0.05557,-0.38254 0.09006,-0.78005 0.09006,-1.20009 0,-7.78662 -10.075766,-8.76223 -10.075766,-16.54885 0,-7.78662 10.075766,-8.76322 10.075766,-16.54984 0,-7.78662 -10.075766,-8.76225 -10.075766,-16.54883 0,-7.78661 10.075766,-8.76326 10.075766,-16.54988 0,-7.78659 -10.075772,-8.76325 -10.075766,-16.54985 0,-7.7866 10.075766,-8.76223 10.075766,-16.54884 0,-7.7866 -10.075766,-8.76323 -10.075766,-16.54985 0,-7.7866 10.075766,-8.76326 10.075766,-16.54985 0,-7.78661 -10.075766,-8.76224 -10.075766,-16.548849 0,-0.271976 0.01591,-0.534435 0.03959,-0.790374 z" />
    <path
       id="path1352"
       style="fill:#089113;fill-opacity:1;stroke:none;stroke-width:0.264583px;stroke-linecap:butt;stroke-linejoin:miter;stroke-opacity:1"
       d="m 41.848808,102.32579 -5.629282,26.16894 h 4.212382 v 4.47819 h 2.8338 v -4.47819 h 4.213384 z" />
    <path
       id="path1354"
       style="fill:#089113;fill-opacity:1;stroke:none;stroke-width:0.264583px;stroke-linecap:butt;stroke-linejoin:miter;stroke-opacity:1"
       d="m 57.477204,102.32579 -5.629282,26.16894 h 4.212383 v 4.47819 h 2.833799 v -4.47819 h 4.213385 z" />
    <path
       id="path1356"
       style="fill:#089113;fill-opacity:1;stroke:none;stroke-width:0.264583px;stroke-linecap:butt;stroke-linejoin:miter;stroke-opacity:1"
       d="m 73.105608,102.32579 -5.629282,26.16894 h 4.212383 v 4.47819 h 2.833801 v -4.47819 h 4.213382 z" />
    <path
       id="path1358"
       style="fill:#089113;fill-opacity:1;stroke:none;stroke-width:0.264583px;stroke-linecap:butt;stroke-linejoin:miter;stroke-opacity:1"
       d="m 41.848805,134.00751 -5.629281,26.16894 h 4.212383 v 4.47818 h 2.833799 v -4.47818 h 4.213384 z" />
    <path
       id="path1360"
       style="fill:#089113;fill-opacity:1;stroke:none;stroke-width:0.264583px;stroke-linecap:butt;stroke-linejoin:miter;stroke-opacity:1"
       d="m 57.477204,134.00751 -5.629282,26.16894 h 4.212383 v 4.47818 h 2.833799 v -4.47818 h 4.213385 z" />
    <path
       id="path1362"
       style="fill:#089113;fill-opacity:1;stroke:none;stroke-width:0.264583px;stroke-linecap:butt;stroke-linejoin:miter;stroke-opacity:1"
       d="m 73.105608,134.00751 -5.629282,26.16894 h 4.212383 v 4.47818 h 2.833801 v -4.47818 h 4.213382 z" />
    <path
       id="path1364"
       style="fill:#089113;fill-opacity:1;stroke:none;stroke-width:0.264583px;stroke-linecap:butt;stroke-linejoin:miter;stroke-opacity:1"
       d="m 41.848805,165.6892 -5.629281,26.16894 h 4.212383 v 4.47818 h 2.833799 v -4.47818 h 4.213384 z" />
    <path
       id="path1366"
       style="fill:#089113;fill-opacity:1;stroke:none;stroke-width:0.264583px;stroke-linecap:butt;stroke-linejoin:miter;stroke-opacity:1"
       d="m 57.477204,165.6892 -5.629282,26.16894 h 4.212383 v 4.47818 h 2.833799 v -4.47818 h 4.213385 z" />
    <path
       id="path1368"
       style="fill:#089113;fill-opacity:1;stroke:none;stroke-width:0.264583px;stroke-linecap:butt;stroke-linejoin:miter;stroke-opacity:1"
       d="m 73.105608,165.6892 -5.629282,26.16894 h 4.212383 v 4.47818 h 2.833801 v -4.47818 h 4.213382 z" />
    <path
       id="path1370"
       style="fill:#089113;fill-opacity:1;stroke:none;stroke-width:0.264583px;stroke-linecap:butt;stroke-linejoin:miter;stroke-opacity:1"
       d="m 49.662994,197.37091 -5.629282,26.16895 h 4.212383 v 4.47818 h 2.833799 v -4.47818 h 4.213385 z" />
    <path
       id="path1372"
       style="fill:#089113;fill-opacity:1;stroke:none;stroke-width:0.264583px;stroke-linecap:butt;stroke-linejoin:miter;stroke-opacity:1"
       d="m 65.291414,197.37091 -5.629282,26.16895 h 4.212383 v 4.47818 h 2.833799 v -4.47818 h 4.213385 z" />
    <ellipse
       style="fill:#f1f1f1;fill-opacity:1;stroke:#b3b3b3;stroke-width:0.529167;stroke-miterlimit:4;stroke-dasharray:none"
       id="ellipse891"
       cx="28.501501"
       cy="55.213737"
       rx="7.7971354"
       ry="7.7751403" />
    <ellipse
       style="fill:#f1f1f1;fill-opacity:1;stroke:#b3b3b3;stroke-width:0.529167;stroke-miterlimit:4;stroke-dasharray:none"
       id="ellipse908"
       cx="153.25568"
       cy="55.213737"
       rx="7.7971354"
       ry="7.7751403" />
  </g>
</svg>
