<?xml version="1.0" encoding="UTF-8" standalone="no"?>
<svg
   xmlns:dc="http://purl.org/dc/elements/1.1/"
   xmlns:cc="http://creativecommons.org/ns#"
   xmlns:rdf="http://www.w3.org/1999/02/22-rdf-syntax-ns#"
   xmlns:svg="http://www.w3.org/2000/svg"
   xmlns="http://www.w3.org/2000/svg"
   xmlns:xlink="http://www.w3.org/1999/xlink"
   xmlns:sodipodi="http://sodipodi.sourceforge.net/DTD/sodipodi-0.dtd"
   xmlns:inkscape="http://www.inkscape.org/namespaces/inkscape"
   inkscape:version="1.0 (4035a4fb49, 2020-05-01)"
   sodipodi:docname="kuhmo.svg"
   id="svg8"
   version="1.1"
   viewBox="0 0 132.29166 152.13542"
   height="575"
   width="500">
  <defs
     id="defs2" />
  <sodipodi:namedview
     inkscape:object-nodes="true"
     inkscape:showpageshadow="false"
     inkscape:window-maximized="1"
     inkscape:window-y="-8"
     inkscape:window-x="-8"
     inkscape:window-height="1017"
     inkscape:window-width="1920"
     units="px"
     showgrid="false"
     inkscape:document-rotation="0"
     inkscape:current-layer="layer1"
     inkscape:document-units="px"
     inkscape:cy="240.9053"
     inkscape:cx="218.63122"
     inkscape:zoom="0.9134936"
     inkscape:pageshadow="2"
     inkscape:pageopacity="0.0"
     borderopacity="1.0"
     bordercolor="#666666"
     pagecolor="#ffffff"
     id="base"
     inkscape:snap-others="false"
     inkscape:lockguides="true" />
  <metadata
     id="metadata5">
    <rdf:RDF>
      <cc:Work
         rdf:about="">
        <dc:format>image/svg+xml</dc:format>
        <dc:type
           rdf:resource="http://purl.org/dc/dcmitype/StillImage" />
        <dc:title />
      </cc:Work>
    </rdf:RDF>
  </metadata>
  <g
     transform="translate(-17.613287,-21.094984)"
     id="layer1"
     inkscape:groupmode="layer"
     inkscape:label="Шар 1">
    <g
       style="stroke:none;stroke-width:1.10433"
       transform="matrix(0.90556513,0,0,0.90547657,1.6633085,1.9939703)"
       id="g896">
      <path
         sodipodi:nodetypes="cszscc"
         id="path846"
         d="m 17.613287,21.094984 v 99.146146 c 0,30.76838 27.99382,68.87081 73.043706,68.87081 45.049887,0 73.043707,-38.10243 73.043707,-68.87081 V 21.094984 Z"
         style="font-variation-settings:normal;opacity:1;vector-effect:none;fill:#000000;fill-opacity:1;fill-rule:evenodd;stroke:none;stroke-width:0.292188;stroke-linecap:butt;stroke-linejoin:miter;stroke-miterlimit:4;stroke-dasharray:none;stroke-dashoffset:0;stroke-opacity:1;marker:none;marker-start:none;marker-mid:none;marker-end:none;stop-color:#000000;stop-opacity:1" />
      <path
         style="font-variation-settings:normal;opacity:1;vector-effect:none;fill:#bf9f4f;fill-opacity:1;fill-rule:evenodd;stroke:none;stroke-width:0.292188;stroke-linecap:butt;stroke-linejoin:miter;stroke-miterlimit:4;stroke-dasharray:none;stroke-dashoffset:0;stroke-opacity:1;marker:none;marker-start:none;marker-mid:none;marker-end:none;stop-color:#000000;stop-opacity:1"
         d="m 53.739176,108.12584 c 0.188523,-1.83809 -0.375664,-3.01106 -1.94811,-2.55244 -1.519995,0.44333 -2.389521,0.43446 -6.082418,0.27154 -3.692897,-0.16293 -4.996272,3.31274 -4.996272,3.31274 -1.737834,-4.88766 4.181662,-6.35395 7.548715,-6.19103 3.367053,0.16292 4.398892,-0.7603 4.398892,-2.17229 0,-1.411993 0.05431,-2.498139 -0.760302,-2.66106 -0.858674,-0.171734 -2.443829,1.411989 -5.64796,1.031838 -3.204131,-0.380151 -4.23597,-0.923224 -7.711637,0.705995 -3.475668,1.629217 -3.692897,5.647957 -3.692897,5.647957 0,0 -1.955063,-2.00937 -1.086146,-4.67043 0.868917,-2.661053 3.42136,-3.638585 3.42136,-3.638585 -1.086146,-0.543073 -3.367053,-0.868917 -5.756574,0.108615 -2.389521,0.977531 -3.363193,4.31277 -3.363193,4.31277 -1.84485,-5.063754 2.168432,-7.408286 6.675939,-7.625516 4.507506,-0.217229 6.408261,1.086146 10.26408,1.303376 3.855819,0.217229 7.005642,-1.520605 7.005642,-4.453199 V 82.67382 c -0.814609,2.280907 -2.498136,3.692897 -2.498136,3.692897 0.380152,-1.846449 -0.217229,-3.584282 -0.217229,-3.584282 0,0 -0.217229,1.846448 -1.574912,4.235969 -1.510508,2.658494 -3.747204,2.769673 -3.747204,2.769673 1.900756,-2.280907 1.357683,-5.756574 1.357683,-5.756574 0,0 -0.651688,2.389521 -2.280907,4.507506 -1.629219,2.117985 -4.344584,1.792141 -4.344584,1.792141 2.60675,-2.063678 2.00937,-4.996272 2.00937,-4.996272 0,0 -0.343078,1.61357 -2.335214,3.312746 -1.992136,1.699176 -4.616121,1.140453 -4.616121,1.140453 2.606751,-1.140453 2.878287,-3.367053 2.878287,-3.367053 0,0 -1.41199,1.683527 -3.747204,1.900756 -2.335214,0.217229 -3.475667,-0.923224 -3.475667,-0.923224 3.149823,-0.271537 3.529974,-2.063678 3.529974,-2.063678 0,0 -2.00937,1.140453 -4.290277,0.325844 -2.280906,-0.81461 -2.60675,-2.715361 -2.60675,-2.715361 2.769672,1.411986 3.928228,0.0362 3.928228,0.0362 -4.887657,-2.063677 -1.955063,-5.973803 -1.955063,-5.973803 3.041209,5.973803 10.209773,4.887657 17.052494,0.651688 6.84272,-4.23597 7.041847,-11.621764 7.041847,-11.621764 -0.705995,2.82398 -2.552443,4.398892 -2.552443,4.398892 0.380151,-1.574912 0,-3.529975 0,-3.529975 -1.249068,3.529975 -3.964434,5.919497 -3.964434,5.919497 0.760303,-2.389522 0.162922,-4.561814 0.162922,-4.561814 -2.226599,5.593652 -4.724735,6.136725 -4.724735,6.136725 1.140453,-1.900755 0.814609,-4.670428 0.814609,-4.670428 0,0 -0.135411,1.527558 -2.552443,3.747204 -2.444982,2.245314 -4.779043,2.00937 -4.779043,2.00937 2.986902,-1.629219 2.986902,-4.670428 2.986902,-4.670428 0,0 -1.466297,2.552444 -4.181662,3.041209 -2.715366,0.488766 -4.218577,-0.511903 -4.218577,-0.511903 4.070513,-0.768021 4.68493,-3.456096 4.68493,-3.456096 0,0 -2.245897,2.15046 -5.24118,1.766449 -2.99528,-0.38401 -3.05345,-1.996855 -3.05345,-1.996855 2.995283,0.537615 4.332732,-0.758704 4.332732,-0.758704 -6.220974,0.460813 -6.406389,-4.07983 -6.406389,-4.07983 2.380866,2.227262 4.838534,1.305636 4.838534,1.305636 0,0 -2.918479,-1.228834 -2.841679,-3.916908 0.0768,-2.688075 2.227262,-3.532898 2.227262,-3.532898 0,0 -0.768022,5.06894 4.531325,6.374576 5.299347,1.305636 12.28834,-0.691219 16.205249,-3.99371 3.916907,-3.302492 3.858287,-7.094333 3.858287,-7.094333 -2.986902,5.104887 -6.353954,5.539346 -6.353954,5.539346 2.063677,-2.443829 1.900755,-4.887658 1.900755,-4.887658 0,0 -0.879865,1.953871 -3.149824,3.801511 -2.269959,1.84764 -4.453199,1.303376 -4.453199,1.303376 3.149824,-2.117985 2.606751,-4.344585 2.606751,-4.344585 0,0 -1.086147,2.063678 -3.855819,2.552444 -2.769673,0.488765 -3.367052,-0.488766 -3.367052,-0.488766 2.280906,-0.543073 3.367052,-2.063678 3.367052,-2.063678 -1.031838,-0.108614 -3.475667,-0.59738 -3.910126,-2.878287 -0.434458,-2.280907 0.81461,-3.204131 0.81461,-3.204131 0,0 -0.07517,2.144105 3.041209,3.312746 3.116376,1.168641 7.3652,-0.630347 10.372695,-3.204131 3.007495,-2.573784 3.367053,-5.322116 3.367053,-5.322116 -1.65689,2.683174 -4.517443,3.145932 -6.028111,2.443829 2.063678,-0.543073 2.606751,-2.335214 2.606751,-2.335214 -2.977926,1.398996 -7.055037,0.782723 -7.385793,-1.574912 2.60675,1.41199 4.344584,-0.325844 4.344584,-0.325844 -3.413613,-0.41128 -3.755713,-3.481283 -2.498136,-4.561814 0.325844,1.086146 2.226599,2.715366 5.267808,2.009371 3.04121,-0.705995 3.704177,-3.535443 3.704177,-3.535443 -3.134536,1.71054 -5.52691,-0.768722 -5.068942,-2.150459 0.722041,0.621449 2.94311,1.726587 5.222545,-0.614418 2.273162,-2.334558 2.227262,-5.299348 2.227262,-5.299348 h 0.921626 c 0,0 -0.0459,2.96479 2.227262,5.299348 2.279435,2.341005 4.500504,1.235867 5.222545,0.614418 0.457968,1.381737 -1.934406,3.860999 -5.068942,2.150459 0,0 0.662967,2.829448 3.704177,3.535443 3.041209,0.705995 4.941964,-0.923225 5.267808,-2.009371 1.257577,1.080531 0.915477,4.150534 -2.498136,4.561814 0,0 1.737834,1.737834 4.344584,0.325844 -0.330756,2.357635 -4.407867,2.973908 -7.385793,1.574912 0,0 0.543073,1.792141 2.606751,2.335214 -1.510668,0.702103 -4.371221,0.239345 -6.028111,-2.443829 0,0 0.359558,2.748332 3.367053,5.322116 3.007495,2.573784 7.256319,4.372772 10.372695,3.204131 3.116376,-1.168641 3.041209,-3.312746 3.041209,-3.312746 0,0 1.249068,0.923224 0.81461,3.204131 -0.434459,2.280907 -2.878288,2.769673 -3.910126,2.878287 0,0 1.086146,1.520605 3.367052,2.063678 0,0 -0.597379,0.977531 -3.367052,0.488766 -2.769672,-0.488766 -3.855819,-2.552444 -3.855819,-2.552444 0,0 -0.543073,2.2266 2.606751,4.344585 0,0 -2.18324,0.544264 -4.453199,-1.303376 -2.269959,-1.84764 -3.149824,-3.801511 -3.149824,-3.801511 0,0 -0.162922,2.443829 1.900755,4.887658 0,0 -3.367052,-0.434459 -6.353954,-5.539346 0,0 -0.05862,3.791841 3.858287,7.094333 3.916909,3.302491 10.905902,5.299346 16.205249,3.99371 5.299347,-1.305636 4.531325,-6.374576 4.531325,-6.374576 0,0 2.15046,0.844823 2.227262,3.532898 0.0768,2.688074 -2.841679,3.916908 -2.841679,3.916908 0,0 2.457668,0.921626 4.838534,-1.305636 0,0 -0.185415,4.540643 -6.406389,4.07983 0,0 1.337449,1.296319 4.332732,0.758704 0,0 -0.05817,1.612845 -3.05345,1.996855 -2.995283,0.384011 -5.24118,-1.766449 -5.24118,-1.766449 0,0 0.614417,2.688075 4.68493,3.456096 0,0 -1.503211,1.000669 -4.218577,0.511903 -2.715365,-0.488765 -4.181662,-3.041209 -4.181662,-3.041209 0,0 0,3.041209 2.986902,4.670428 0,0 -2.334061,0.235944 -4.779043,-2.00937 -2.417032,-2.219646 -2.552443,-3.747204 -2.552443,-3.747204 0,0 -0.325844,2.769673 0.814609,4.670428 0,0 -2.498136,-0.543073 -4.724735,-6.136725 0,0 -0.597381,2.172292 0.162922,4.561814 0,0 -2.715366,-2.389522 -3.964434,-5.919497 0,0 -0.380151,1.955063 0,3.529975 0,0 -1.846448,-1.574912 -2.552443,-4.398892 0,0 0.199127,7.385794 7.041847,11.621764 6.842721,4.235969 14.011285,5.322115 17.052494,-0.651688 0,0 2.932594,3.910126 -1.955063,5.973803 0,0 1.158556,1.375786 3.928228,-0.0362 0,0 -0.325844,1.900751 -2.60675,2.715361 -2.280907,0.814609 -4.290277,-0.325844 -4.290277,-0.325844 0,0 0.380151,1.792141 3.529974,2.063678 0,0 -1.140453,1.140453 -3.475667,0.923224 -2.335214,-0.217229 -3.747204,-1.900756 -3.747204,-1.900756 0,0 0.271536,2.2266 2.878287,3.367053 0,0 -2.623985,0.558723 -4.616121,-1.140453 -1.992136,-1.699176 -2.335214,-3.312746 -2.335214,-3.312746 0,0 -0.59738,2.932594 2.00937,4.996272 0,0 -2.715365,0.325844 -4.344584,-1.792141 -1.629219,-2.117985 -2.280907,-4.507506 -2.280907,-4.507506 0,0 -0.543073,3.475667 1.357683,5.756574 0,0 -2.236696,-0.111179 -3.747204,-2.769673 -1.357683,-2.389521 -1.574912,-4.235969 -1.574912,-4.235969 0,0 -0.597381,1.737833 -0.217229,3.584282 0,0 -1.683527,-1.41199 -2.498136,-3.692897 v 8.182301 c 0,2.932594 3.149823,4.670428 7.005642,4.453199 3.855819,-0.21723 5.756574,-1.520605 10.26408,-1.303376 4.507507,0.21723 8.520789,2.561762 6.675939,7.625516 0,0 -0.973672,-3.335239 -3.363193,-4.31277 -2.389521,-0.977532 -4.670428,-0.651688 -5.756574,-0.108615 0,0 2.552443,0.977532 3.42136,3.638585 0.868917,2.66106 -1.086146,4.67043 -1.086146,4.67043 0,0 -0.217229,-4.01874 -3.692897,-5.647957 -3.475667,-1.629219 -4.507506,-1.086146 -7.711637,-0.705995 -3.204131,0.380151 -4.789286,-1.203572 -5.64796,-1.031838 -0.81461,0.162921 -0.760302,1.249067 -0.760302,2.66106 0,1.41199 1.031839,2.33521 4.398892,2.17229 3.367053,-0.16292 9.286549,1.30337 7.548715,6.19103 0,0 -1.303375,-3.47567 -4.996272,-3.31274 -3.692897,0.16292 -4.562423,0.17179 -6.082418,-0.27154 -1.572446,-0.45862 -2.136633,0.71435 -1.94811,2.55244 0.188523,1.8381 -0.06126,5.2135 -1.73756,7.27718 -1.6763,-2.06368 -1.926083,-5.43908 -1.73756,-7.27718 z"
         id="path848"
         sodipodi:nodetypes="ssscssssscscscssscccsccscczccsccscccscccccccsccsccsccccscssccczccsccscszccccccsccsccsccscccccczscsccscczcccsscsccccsccsccscccccccscccsccscczccsccscccssscscscssssscssscs" />
      <use
         style="stroke:none;stroke-width:1.10433"
         x="0"
         y="0"
         xlink:href="#path848"
         id="use852"
         transform="matrix(-1,0,0,1,181.31398,0)"
         width="100%"
         height="100%" />
      <use
         style="stroke:none;stroke-width:1.10433"
         height="100%"
         width="100%"
         transform="matrix(-1,0,0,1,146.13374,70.314296)"
         id="use854"
         xlink:href="#path848"
         y="0"
         x="0" />
    </g>
  </g>
</svg>
