<?xml version="1.0" encoding="UTF-8" standalone="no"?>
<svg
   xmlns:dc="http://purl.org/dc/elements/1.1/"
   xmlns:cc="http://creativecommons.org/ns#"
   xmlns:rdf="http://www.w3.org/1999/02/22-rdf-syntax-ns#"
   xmlns:svg="http://www.w3.org/2000/svg"
   xmlns="http://www.w3.org/2000/svg"
   xmlns:sodipodi="http://sodipodi.sourceforge.net/DTD/sodipodi-0.dtd"
   xmlns:inkscape="http://www.inkscape.org/namespaces/inkscape"
   width="500.00003"
   height="577"
   viewBox="0 0 132.29167 152.66459"
   version="1.1"
   id="svg847"
   sodipodi:docname="kuhmoinen.svg"
   inkscape:version="1.0.2 (e86c870879, 2021-01-15, custom)">
  <defs
     id="defs841" />
  <sodipodi:namedview
     id="base"
     pagecolor="#ffffff"
     bordercolor="#666666"
     borderopacity="1.0"
     inkscape:pageopacity="0.0"
     inkscape:pageshadow="2"
     inkscape:zoom="0.7"
     inkscape:cx="120.81227"
     inkscape:cy="218.3331"
     inkscape:document-units="px"
     inkscape:current-layer="layer1"
     inkscape:document-rotation="0"
     showgrid="false"
     inkscape:snap-smooth-nodes="true"
     inkscape:showpageshadow="false"
     borderlayer="true"
     units="px"
     inkscape:window-width="1920"
     inkscape:window-height="1017"
     inkscape:window-x="-8"
     inkscape:window-y="-4"
     inkscape:window-maximized="1" />
  <metadata
     id="metadata844">
    <rdf:RDF>
      <cc:Work
         rdf:about="">
        <dc:format>image/svg+xml</dc:format>
        <dc:type
           rdf:resource="http://purl.org/dc/dcmitype/StillImage" />
        <dc:title></dc:title>
      </cc:Work>
    </rdf:RDF>
  </metadata>
  <g
     inkscape:label="Layer 1"
     inkscape:groupmode="layer"
     id="layer1"
     transform="translate(-44.755408,-40.012546)">
    <path
       id="circle850"
       style="opacity:1;fill:#d9d9d9;fill-opacity:1;stroke:none;stroke-width:0.529168;stroke-miterlimit:4;stroke-dasharray:none;stroke-dashoffset:0"
       d="M 44.75541,40.012546 V 126.5313 c -3e-6,36.53133 29.614501,66.14583 66.14583,66.14583 36.53134,0 66.14584,-29.6145 66.14584,-66.14583 V 40.012546 Z" />
    <g
       id="g865">
      <path
         id="path887"
         style="font-variation-settings:normal;opacity:1;vector-effect:none;fill:#e40c0c;fill-opacity:1;stroke:none;stroke-width:0.999999;stroke-linecap:butt;stroke-linejoin:miter;stroke-miterlimit:10;stroke-dasharray:none;stroke-dashoffset:0;stroke-opacity:1;stop-color:#000000;stop-opacity:1"
         d="m 169.1543,207.18945 v 100.29102 l 250,2 250,-2 V 207.18164 l -3.87305,-2.30859 c -23.35151,0 -35.17967,32.60742 -61.53125,32.60742 -26.35158,0 -38.1797,-32.60743 -61.53125,-32.60742 -23.35155,0 -35.18162,32.60741 -61.5332,32.60742 -26.35159,0 -38.17967,-32.60742 -61.53125,-32.60742 -23.35159,0 -35.17971,32.60742 -61.53125,32.60742 -26.35155,0 -38.18164,-32.60742 -61.53321,-32.60742 -23.35156,0 -35.17968,32.60742 -61.53125,32.60742 -26.35156,0 -38.17969,-32.60742 -61.53125,-32.60742 z"
         transform="scale(0.26458333)"
         sodipodi:nodetypes="ccccccssssssscc" />
      <path
         id="path1001"
         style="font-variation-settings:normal;opacity:1;vector-effect:none;fill:#ffffff;fill-opacity:1;stroke:none;stroke-width:0.999999;stroke-linecap:butt;stroke-linejoin:miter;stroke-miterlimit:10;stroke-dasharray:none;stroke-dashoffset:0;stroke-opacity:1;stop-color:#000000;stop-opacity:1"
         d="m 173.02734,202.87305 c -1.3256,0 -2.61202,0.11218 -3.87304,0.29492 v 4.02148 c 1.25834,-0.19895 2.54495,-0.3164 3.87304,-0.3164 10.59619,0 16.46289,1.09375 16.46289,1.09375 -5.00762,-3.05706 -10.375,-5.09375 -16.46289,-5.09375 z m 123.0625,0 c -24.35156,0 -37.17968,32.60742 -61.53125,32.60742 -6.08789,0 -11.45526,-2.03669 -16.46289,-5.09375 0,0 5.5545,9.09375 16.46289,9.09375 26.35157,0 38.17969,-32.60742 61.53125,-32.60742 10.59619,0 16.46485,1.09375 16.46485,1.09375 -5.00763,-3.05706 -10.37696,-5.09375 -16.46485,-5.09375 z m 123.06446,0 c -24.35157,0 -37.17969,32.60742 -61.53125,32.60742 -6.08789,0 -11.45527,-2.03669 -16.46289,-5.09375 0,0 5.55449,9.09375 16.46289,9.09375 26.35158,0 38.1797,-32.60742 61.53125,-32.60742 10.59617,0 16.46289,1.09375 16.46289,1.09375 -5.00765,-3.05706 -10.37502,-5.09375 -16.46289,-5.09375 z m 123.06445,0 c -24.35157,0 -37.18163,32.60742 -61.5332,32.60742 -6.08788,0 -11.45528,-2.03669 -16.46289,-5.09375 0,0 5.55449,9.09375 16.46289,9.09375 26.35158,0 38.18165,-32.60742 61.5332,-32.60742 10.59617,0 16.46289,1.09375 16.46289,1.09375 -5.00765,-3.05706 -10.37502,-5.09375 -16.46289,-5.09375 z m 123.0625,0 c -24.35157,0 -37.17972,32.60742 -61.53125,32.60742 -6.08787,0 -11.45528,-2.03669 -16.46289,-5.09375 0,0 5.55446,9.09375 16.46289,9.09375 26.35155,0 38.1797,-32.60742 61.53125,-32.60742 1.32741,0 2.61528,0.10977 3.87305,0.30859 v -4.01367 c -1.26145,-0.18277 -2.54696,-0.29492 -3.87305,-0.29492 z"
         transform="scale(0.26458333)"
         sodipodi:nodetypes="sccscssscsscsssccscssscsscssscssccs" />
      <path
         id="path1009"
         style="font-variation-settings:normal;opacity:1;vector-effect:none;fill:#990000;fill-opacity:1;stroke:none;stroke-width:0.999999;stroke-linecap:butt;stroke-linejoin:miter;stroke-miterlimit:10;stroke-dasharray:none;stroke-dashoffset:0;stroke-opacity:1;stop-color:#000000;stop-opacity:1"
         d="m 179.54102,206.31836 c -2.80746,-0.0251 -5.04187,0.31707 -6.51368,0.55469 23.35157,0 35.17969,32.60742 61.53125,32.60742 -5.48381,-3.02265 -10.3029,-4.54968 -16.46289,-9.09375 -5.00763,-3.05706 -9.65519,-7.13291 -14.30273,-11.20899 -4.64754,-4.07608 -9.29511,-8.15387 -14.30274,-11.21093 -3.76159,-1.23229 -7.14176,-1.62334 -9.94921,-1.64844 z m 123.06445,0 c -2.80746,-0.0251 -5.04382,0.31707 -6.51563,0.55469 23.35157,0 35.18164,32.60742 61.53321,32.60742 -6.21932,-2.66573 -12.23523,-5.43317 -16.46485,-9.09375 -5.00763,-3.05706 -9.65324,-7.13291 -14.30078,-11.20899 -4.64754,-4.07608 -9.29511,-8.15387 -14.30273,-11.21093 -3.7616,-1.23229 -7.14176,-1.62334 -9.94922,-1.64844 z m 123.0625,0 c -2.80746,-0.0251 -5.04187,0.31707 -6.51367,0.55469 23.35154,0 35.17966,32.60742 61.53125,32.60742 -5.48763,-2.5202 -10.97526,-4.64734 -16.46289,-9.09375 -5.00761,-3.05706 -9.6552,-7.13291 -14.30274,-11.20899 -4.64753,-4.07608 -9.29512,-8.15387 -14.30273,-11.21093 -3.7616,-1.23229 -7.14176,-1.62334 -9.94922,-1.64844 z m 123.06445,0 c -2.80746,-0.0251 -5.04187,0.31707 -6.51367,0.55469 23.35158,0 35.1797,32.60742 61.53125,32.60742 -5.48763,-2.32977 -10.97526,-4.78095 -16.46289,-9.09375 -5.00761,-3.05706 -9.6552,-7.13291 -14.30273,-11.20899 -4.64754,-4.07608 -9.29513,-8.15387 -14.30274,-11.21093 -3.76159,-1.23229 -7.14176,-1.62334 -9.94922,-1.64844 z M 169.1543,307.48047 v 4 h 500 v -4 z"
         transform="scale(0.26458333)"
         sodipodi:nodetypes="scccscsscccscsscccscsscccscsccccc" />
    </g>
    <g
       id="use867"
       transform="translate(0,44.778715)">
      <path
         id="path1057"
         style="font-variation-settings:normal;opacity:1;vector-effect:none;fill:#e40c0c;fill-opacity:1;stroke:none;stroke-width:0.999999;stroke-linecap:butt;stroke-linejoin:miter;stroke-miterlimit:10;stroke-dasharray:none;stroke-dashoffset:0;stroke-opacity:1;stop-color:#000000;stop-opacity:1"
         d="m 169.1543,207.18945 v 100.29102 l 250,2 250,-2 V 207.18164 l -3.87305,-2.30859 c -23.35151,0 -35.17967,32.60742 -61.53125,32.60742 -26.35158,0 -38.1797,-32.60743 -61.53125,-32.60742 -23.35155,0 -35.18162,32.60741 -61.5332,32.60742 -26.35159,0 -38.17967,-32.60742 -61.53125,-32.60742 -23.35159,0 -35.17971,32.60742 -61.53125,32.60742 -26.35155,0 -38.18164,-32.60742 -61.53321,-32.60742 -23.35156,0 -35.17968,32.60742 -61.53125,32.60742 -26.35156,0 -38.17969,-32.60742 -61.53125,-32.60742 z"
         transform="scale(0.26458333)"
         sodipodi:nodetypes="ccccccssssssscc" />
      <path
         id="path1061"
         style="font-variation-settings:normal;opacity:1;vector-effect:none;fill:#ffffff;fill-opacity:1;stroke:none;stroke-width:0.999999;stroke-linecap:butt;stroke-linejoin:miter;stroke-miterlimit:10;stroke-dasharray:none;stroke-dashoffset:0;stroke-opacity:1;stop-color:#000000;stop-opacity:1"
         d="m 173.02734,202.87305 c -1.3256,0 -2.61202,0.11218 -3.87304,0.29492 v 4.02148 c 1.25834,-0.19895 2.54495,-0.3164 3.87304,-0.3164 10.59619,0 16.46289,1.09375 16.46289,1.09375 -5.00762,-3.05706 -10.375,-5.09375 -16.46289,-5.09375 z m 123.0625,0 c -24.35156,0 -37.17968,32.60742 -61.53125,32.60742 -6.08789,0 -11.45526,-2.03669 -16.46289,-5.09375 0,0 5.5545,9.09375 16.46289,9.09375 26.35157,0 38.17969,-32.60742 61.53125,-32.60742 10.59619,0 16.46485,1.09375 16.46485,1.09375 -5.00763,-3.05706 -10.37696,-5.09375 -16.46485,-5.09375 z m 123.06446,0 c -24.35157,0 -37.17969,32.60742 -61.53125,32.60742 -6.08789,0 -11.45527,-2.03669 -16.46289,-5.09375 0,0 5.55449,9.09375 16.46289,9.09375 26.35158,0 38.1797,-32.60742 61.53125,-32.60742 10.59617,0 16.46289,1.09375 16.46289,1.09375 -5.00765,-3.05706 -10.37502,-5.09375 -16.46289,-5.09375 z m 123.06445,0 c -24.35157,0 -37.18163,32.60742 -61.5332,32.60742 -6.08788,0 -11.45528,-2.03669 -16.46289,-5.09375 0,0 5.55449,9.09375 16.46289,9.09375 26.35158,0 38.18165,-32.60742 61.5332,-32.60742 10.59617,0 16.46289,1.09375 16.46289,1.09375 -5.00765,-3.05706 -10.37502,-5.09375 -16.46289,-5.09375 z m 123.0625,0 c -24.35157,0 -37.17972,32.60742 -61.53125,32.60742 -6.08787,0 -11.45528,-2.03669 -16.46289,-5.09375 0,0 5.55446,9.09375 16.46289,9.09375 26.35155,0 38.1797,-32.60742 61.53125,-32.60742 1.32741,0 2.61528,0.10977 3.87305,0.30859 v -4.01367 c -1.26145,-0.18277 -2.54696,-0.29492 -3.87305,-0.29492 z"
         transform="scale(0.26458333)" />
      <path
         id="path1059"
         style="font-variation-settings:normal;opacity:1;vector-effect:none;fill:#990000;fill-opacity:1;stroke:none;stroke-width:0.999999;stroke-linecap:butt;stroke-linejoin:miter;stroke-miterlimit:10;stroke-dasharray:none;stroke-dashoffset:0;stroke-opacity:1;stop-color:#000000;stop-opacity:1"
         d="m 179.54102,375.56055 c -2.80746,-0.0251 -5.04187,0.31706 -6.51368,0.55468 23.35157,0 35.17969,32.60743 61.53125,32.60743 -6.42723,-2.09165 -11.52912,-5.50864 -16.46289,-9.09375 -5.00763,-3.05706 -9.65519,-7.13291 -14.30273,-11.20899 -4.64754,-4.07608 -9.29511,-8.15388 -14.30274,-11.21094 -3.76159,-1.23229 -7.14176,-1.62333 -9.94921,-1.64843 z m 123.06445,0 c -2.80746,-0.0251 -5.04382,0.31706 -6.51563,0.55468 23.35157,0 35.18164,32.60743 61.53321,32.60743 -7.54844,-2.14832 -12.42941,-5.43985 -16.46485,-9.09375 -5.00763,-3.05706 -9.65324,-7.13291 -14.30078,-11.20899 -4.64754,-4.07608 -9.29511,-8.15388 -14.30273,-11.21094 -3.7616,-1.23229 -7.14176,-1.62333 -9.94922,-1.64843 z m 123.0625,0 c -2.80746,-0.0251 -5.04187,0.31706 -6.51367,0.55468 23.35154,0 35.17966,32.60743 61.53125,32.60743 -5.91525,-2.71053 -12.44267,-4.96194 -16.46289,-9.09375 -5.00761,-3.05706 -9.6552,-7.13291 -14.30274,-11.20899 -4.64753,-4.07608 -9.29512,-8.15388 -14.30273,-11.21094 -3.7616,-1.23229 -7.14176,-1.62333 -9.94922,-1.64843 z m 123.06445,0 c -2.80746,-0.0251 -5.04187,0.31706 -6.51367,0.55468 23.35158,0 35.1797,32.60743 61.53125,32.60743 -6.02361,-1.9593 -11.44863,-5.11576 -16.46289,-9.09375 -5.00761,-3.05706 -9.65521,-7.13291 -14.30273,-11.20899 -4.64754,-4.07608 -9.29513,-8.15388 -14.30274,-11.21094 -3.76159,-1.23229 -7.14176,-1.62333 -9.94922,-1.64843 z M 169.1543,476.72266 v 1.50586 c 0,0.83382 0.0231,1.66224 0.0312,2.49414 H 669.123 c 0.008,-0.8319 0.0312,-1.66032 0.0312,-2.49414 v -1.50586 z"
         transform="matrix(0.26458333,0,0,0.26458333,0,-44.778715)"
         sodipodi:nodetypes="scccscsscccscsscccscsscccscscsccscc" />
    </g>
    <g
       id="use873"
       transform="translate(0,89.55743)">
      <path
         id="path1049"
         style="font-variation-settings:normal;opacity:1;vector-effect:none;fill:#e40c0c;fill-opacity:1;stroke:none;stroke-width:0.999999;stroke-linecap:butt;stroke-linejoin:miter;stroke-miterlimit:10;stroke-dasharray:none;stroke-dashoffset:0;stroke-opacity:1;stop-color:#000000;stop-opacity:1"
         d="m 296.08984,543.35742 c -23.35156,0 -35.17968,32.60742 -61.53125,32.60742 -23.73979,0 -35.69808,-26.44458 -54.9082,-31.68945 l -1.18555,1.68359 c 10.64936,37.92205 29.52831,71.68119 55.31836,100.00586 l 185.3711,2 185.37109,-2 c 25.78789,-28.32229 44.66648,-62.07785 55.31641,-99.99609 l -2.30078,-1.34766 c -18.56154,5.9395 -30.51686,31.34375 -53.79102,31.34375 -26.35158,0 -38.1797,-32.60743 -61.53125,-32.60742 -23.35155,0 -35.18162,32.60741 -61.5332,32.60742 -26.35159,0 -38.17967,-32.60742 -61.53125,-32.60742 -23.35159,0 -35.17971,32.60742 -61.53125,32.60742 -26.35155,0 -38.18164,-32.60742 -61.53321,-32.60742 z"
         transform="matrix(0.26458333,0,0,0.26458333,0,-89.55743)"
         sodipodi:nodetypes="sscccccccssssss" />
      <path
         id="path1053"
         style="font-variation-settings:normal;opacity:1;vector-effect:none;fill:#ffffff;fill-opacity:1;stroke:none;stroke-width:0.999999;stroke-linecap:butt;stroke-linejoin:miter;stroke-miterlimit:10;stroke-dasharray:none;stroke-dashoffset:0;stroke-opacity:1;stop-color:#000000;stop-opacity:1"
         d="m 296.08984,541.35742 c -24.35156,0 -37.17968,32.60742 -61.53125,32.60742 -6.08789,0 -11.45526,-2.03669 -16.46289,-5.09375 0,0 5.5545,9.09375 16.46289,9.09375 26.35157,0 38.17969,-32.60742 61.53125,-32.60742 10.59619,0 16.46485,1.09375 16.46485,1.09375 -5.00763,-3.05706 -10.37696,-5.09375 -16.46485,-5.09375 z m 123.06446,0 c -24.35157,0 -37.17969,32.60742 -61.53125,32.60742 -6.08789,0 -11.45527,-2.03669 -16.46289,-5.09375 0,0 5.55449,9.09375 16.46289,9.09375 26.35158,0 38.1797,-32.60742 61.53125,-32.60742 10.59617,0 16.46289,1.09375 16.46289,1.09375 -5.00765,-3.05706 -10.37502,-5.09375 -16.46289,-5.09375 z m 123.06445,0 c -24.35157,0 -37.18163,32.60742 -61.5332,32.60742 -6.08788,0 -11.45528,-2.03669 -16.46289,-5.09375 0,0 5.55449,9.09375 16.46289,9.09375 26.35158,0 38.18165,-32.60742 61.5332,-32.60742 10.59617,0 16.46289,1.09375 16.46289,1.09375 -5.00765,-3.05706 -10.37502,-5.09375 -16.46289,-5.09375 z m -364.92383,0.3457 c 0.32904,1.25715 0.80821,3.02606 1.15625,4.2754 7.20711,0.26743 11.03906,0.47265 11.03906,0.47265 -3.80383,-2.32217 -7.81818,-4.04885 -12.19531,-4.74805 z m 483.71875,0 c -21.66452,3.46233 -34.37561,32.26172 -57.26367,32.26172 -6.08787,0 -11.45528,-2.03669 -16.46289,-5.09375 0,0 5.55446,9.09375 16.46289,9.09375 24.22957,0 36.18739,-27.54656 56.10742,-31.98632 0.3987,-1.41938 0.78211,-2.84591 1.15625,-4.2754 z"
         transform="matrix(0.26458333,0,0,0.26458333,0,-89.55743)"
         sodipodi:nodetypes="sscsscssscsscssscsscscccccscscc" />
      <path
         id="path1051"
         style="font-variation-settings:normal;opacity:1;vector-effect:none;fill:#990000;fill-opacity:1;stroke:none;stroke-width:0.999999;stroke-linecap:butt;stroke-linejoin:miter;stroke-miterlimit:10;stroke-dasharray:none;stroke-dashoffset:0;stroke-opacity:1;stop-color:#000000;stop-opacity:1"
         d="m 178.45117,545.97852 c 19.92005,4.43976 31.87784,31.98632 56.10742,31.98632 -6.13851,-2.38037 -11.83355,-5.20421 -16.46289,-9.09375 -5.00763,-3.05706 -9.65519,-7.1329 -14.30273,-11.20898 -4.64754,-4.07608 -9.29511,-8.15388 -14.30274,-11.21094 -3.76159,-1.23229 -7.14176,-1.62334 -9.94921,-1.64844 z m 124.1543,-1.17579 c -2.80746,-0.0251 -5.04382,0.31707 -6.51563,0.55469 23.35157,0 35.18164,32.60742 61.53321,32.60742 -6.30336,-2.62371 -12.91667,-5.09245 -16.46485,-9.09375 -5.00763,-3.05706 -9.65324,-7.1329 -14.30078,-11.20898 -4.64754,-4.07608 -9.29511,-8.15388 -14.30273,-11.21094 -3.7616,-1.23229 -7.14176,-1.62334 -9.94922,-1.64844 z m 123.0625,0 c -2.80746,-0.0251 -5.04187,0.31707 -6.51367,0.55469 23.35154,0 35.17966,32.60742 61.53125,32.60742 -7.59723,-2.32805 -13.15116,-5.3372 -16.46289,-9.09375 -5.00761,-3.05706 -9.6552,-7.1329 -14.30274,-11.20898 -4.64753,-4.07608 -9.29512,-8.15388 -14.30273,-11.21094 -3.7616,-1.23229 -7.14176,-1.62334 -9.94922,-1.64844 z m 123.06445,0 c -2.80746,-0.0251 -5.04187,0.31707 -6.51367,0.55469 23.35158,0 35.1797,32.60742 61.53125,32.60742 -6.32597,-1.56415 -11.55538,-5.04729 -16.46289,-9.09375 -5.00761,-3.05706 -9.65521,-7.1329 -14.30273,-11.20898 -4.64754,-4.07608 -9.29513,-8.15388 -14.30274,-11.21094 -3.76159,-1.23229 -7.14176,-1.62334 -9.94922,-1.64844 z M 233.7832,645.96484 c 1.22025,1.3477 2.45805,2.67929 3.70703,4 h 363.32813 c 1.24898,-1.32071 2.48679,-2.6523 3.70703,-4 z"
         transform="matrix(0.26458333,0,0,0.26458333,0,-89.55743)"
         sodipodi:nodetypes="cccscccscccscsscccscsscccscsccccc" />
    </g>
  </g>
</svg>
