<?xml version="1.0" encoding="UTF-8" standalone="no"?>
<svg xmlns:dc="http://purl.org/dc/elements/1.1/" xmlns:cc="http://creativecommons.org/ns#" xmlns:rdf="http://www.w3.org/1999/02/22-rdf-syntax-ns#" xmlns:svg="http://www.w3.org/2000/svg" xmlns="http://www.w3.org/2000/svg" xmlns:xlink="http://www.w3.org/1999/xlink" xmlns:sodipodi="http://sodipodi.sourceforge.net/DTD/sodipodi-0.dtd" xmlns:inkscape="http://www.inkscape.org/namespaces/inkscape" inkscape:version="1.0 (4035a4fb49, 2020-05-01)" sodipodi:docname="kumlinge.svg" id="svg8" version="1.1" viewBox="0 0 132.28608 149.48905" height="564.99799" width="499.97888">
  <defs id="defs2"/>
  <sodipodi:namedview inkscape:snap-global="true" inkscape:object-nodes="true" inkscape:showpageshadow="false" inkscape:window-maximized="1" inkscape:window-y="-8" inkscape:window-x="-8" inkscape:window-height="1017" inkscape:window-width="1920" units="px" showgrid="false" inkscape:document-rotation="0" inkscape:current-layer="layer1" inkscape:document-units="px" inkscape:cy="229.63344" inkscape:cx="162.64959" inkscape:zoom="0.9134936" inkscape:pageshadow="2" inkscape:pageopacity="0.0" borderopacity="1.0" bordercolor="#666666" pagecolor="#ffffff" id="base" inkscape:snap-others="false" inkscape:lockguides="true"/>
  <metadata id="metadata5">
    <rdf:RDF>
      <cc:Work rdf:about="">
        <dc:format>image/svg+xml</dc:format>
        <dc:type rdf:resource="http://purl.org/dc/dcmitype/StillImage"/>
        <dc:title/>
      </cc:Work>
    </rdf:RDF>
  </metadata>
  <g transform="translate(-14.176361,-15.073098)" id="layer1" inkscape:groupmode="layer" inkscape:label="Шар 1">
    <g style="stroke-width:1.00829" transform="matrix(0.98492392,0,0,0.99867829,0.21977355,0.02045041)" id="g1982">
      <path style="font-variation-settings:normal;opacity:1;vector-effect:none;fill:#dc0618;fill-opacity:1;fill-rule:evenodd;stroke:#000000;stroke-width:0.800332;stroke-linecap:butt;stroke-linejoin:miter;stroke-miterlimit:4;stroke-dasharray:none;stroke-dashoffset:0;stroke-opacity:1;marker:none;marker-start:none;marker-mid:none;marker-end:none;stop-color:#000000;stop-opacity:1" d="m 148.07375,15.472735 c 0,0 -0.93705,52.05824 -2.18645,85.791975 -1.24939,33.73374 -25.61265,63.09459 -64.5616,63.09459 -38.948948,0 -63.312218,-29.36085 -64.561598,-63.09459 -1.2494,-33.733735 -2.18645,-85.791975 -2.18645,-85.791975 z" id="path844" sodipodi:nodetypes="cszscc"/>
      <path id="path1619" style="font-variation-settings:normal;vector-effect:none;fill:#000000;fill-opacity:1;fill-rule:evenodd;stroke:none;stroke-width:0.533555;stroke-linecap:butt;stroke-linejoin:miter;stroke-miterlimit:4;stroke-dasharray:none;stroke-dashoffset:0;stroke-opacity:1;marker:none;marker-start:none;marker-mid:none;marker-end:none;stop-color:#000000" d="m 44.162678,23.409424 c 0,0 0.331563,3.202236 2.761073,5.300453 0,0 -9.618448,0.566893 -26.329142,-5.21157 0,0 0.780893,7.808725 22.333002,11.556918 0,0 -10.307688,1.249286 -23.582539,0.156062 0,0 0.31244,4.216781 7.808826,6.403226 7.496388,2.186448 15.773713,1.093475 15.773713,1.093475 0,0 -11.059358,5.43786 -22.875605,5.769155 0,0 0.601377,3.046273 7.399032,4.196644 6.797655,1.150374 16.343705,-0.993738 16.343705,-0.993738 0,0 -5.293069,3.955235 -11.486636,7.181474 -6.355928,3.310813 -11.704197,4.303096 -11.704197,4.303096 0,0 2.623959,4.730115 11.374499,3.526917 6.063769,-0.833768 11.747842,-3.79344 14.22549,-5.230688 0.795385,-0.514096 1.305346,-0.795301 1.305346,-0.795301 0,0 -0.472149,0.311971 -1.305346,0.795301 -2.771841,1.791565 -9.209119,6.56957 -11.354348,13.520105 0,0 5.08017,-0.33146 9.387025,-3.423566 4.306856,-3.0921 8.268745,-6.655924 8.268745,-6.655921 0,0 -6.243857,8.103928 -5.397603,17.478517 0,0 8.058433,-4.167166 11.3714,-14.437359 0,0 -1.653434,8.032342 0.334346,14.106114 0,0 5.343298,-3.674345 9.027872,-13.221414 0.251325,1.192583 0.675552,2.373619 1.323951,3.499527 -2.709423,4.337746 -1.27766,11.845237 -0.841809,13.788821 -0.456499,0.64919 -0.575159,1.583884 -0.575159,1.583884 0.04592,0.0078 0.09065,0.01802 0.135908,0.02739 -1.200845,-0.115189 -1.795182,-0.01839 -3.592028,0.484725 -1.920055,0.537615 -2.457834,8.7e-5 -3.917074,0.84491 -1.459238,0.844819 -1.996707,4.070207 -1.7663,5.759854 0.230407,1.689648 1.535824,1.996776 1.535824,1.996776 0,0 -0.614069,0.384223 -1.689304,0.691431 -1.493461,0.426704 -1.997292,1.84328 -1.997292,3.456118 0,1.61286 -1.074996,1.38229 -0.921393,3.99356 0.153604,2.61127 1.91978,4.14755 1.91978,4.14755 -0.768022,1.45924 -1.996363,0.92176 -3.455601,2.68821 -1.459243,1.76645 -1.382895,2.53421 -2.611729,4.76147 -1.228833,2.22726 0.461024,3.22583 0.691431,3.30264 -0.921626,2.53447 0.614434,3.45612 0.614434,3.45612 -4.992137,0 -5.836783,3.14869 -5.606376,4.99194 0.230405,1.84325 0.767633,3.76339 -0.153998,5.91385 -0.92162,2.15046 0.574644,2.95021 0.574644,2.95021 -2.28091,0.54307 -2.28086,2.17218 -1.846401,3.69279 0.434462,1.5206 0.217043,3.91022 0.217043,4.67052 0,0.76031 0.231225,2.96073 2.280997,3.6928 2.04977,0.73206 5.3222,-0.10852 8.254794,-0.10852 2.932594,0 2.606553,1.08614 7.385595,1.19476 4.779044,0.10861 5.539197,-0.76016 5.539197,-0.76016 3.149825,2.28091 5.756844,0.6514 9.232511,0.32556 3.475667,-0.32585 2.512177,0.6782 5.213636,0.54312 2.701459,-0.13507 4.792842,-0.56095 8.471834,-0.43409 3.678991,0.12687 4.561996,-0.76067 4.561996,-0.76067 0,0 0.325416,0.7602 2.28048,1.30328 1.955063,0.54307 7.059983,0.65197 10.101193,-0.32556 3.0412,-0.97753 4.34472,-1.41199 6.40839,-1.19476 2.06369,0.21723 3.91031,0.10843 4.562,-2.17248 0.65169,-2.28091 -1.41232,-4.1274 -1.41232,-4.1274 -0.39606,-1.13001 -1.52032,-1.95492 -1.52032,-1.95492 0,0 0.99524,-0.37323 1.08624,-1.73788 0.091,-1.36463 -0.21765,-3.58427 -0.10903,-5.97379 0.1086,-2.38952 1.13737,-4.44606 -0.81443,-6.78822 -1.95181,-2.34217 -4.07313,-2.00969 -4.07313,-2.00969 3.25844,-2.82398 2.06372,-4.34453 0.54312,-7.8202 -1.5206,-3.47567 -3.04116,-3.36672 -3.04116,-3.36672 -0.65168,-1.95507 -2.60656,-2.49855 -2.60656,-2.49855 0,0 1.33054,-0.8997 1.77095,-2.41122 0.50103,-1.71963 0.29088,-4.16673 -0.57619,-5.84306 -1.62922,-3.149826 -5.10511,-3.475758 -5.10511,-3.475758 0,0 2.12521,-0.278818 3.25871,-1.412317 1.13351,-1.133501 0.21699,-3.69284 -1.52084,-6.625434 -1.73784,-2.932602 -2.12715,-3.475431 -3.75636,-3.2582 0,0 -0.91425,-0.868778 -2.0004,-0.760159 -1.086141,0.108614 -2.715075,1.73736 -2.715075,1.73736 l -0.0186,-0.001 0.657842,-0.652674 c -0.10088,-0.640265 -0.297267,-1.092507 -0.557588,-1.411285 0.533299,-2.673995 0.271264,-8.880795 -1.367875,-12.887584 -0.0772,-0.188706 -0.160181,-0.372978 -0.24598,-0.555522 0.280651,-1.625084 0.397943,-3.541966 0.378272,-5.538163 3.678664,10.563773 9.528094,14.588257 9.528094,14.588257 1.83856,-5.617816 0.57616,-12.828301 0.37414,-13.891659 l 0.0367,0.0093 c 2.72325,8.195902 8.4585,12.448524 10.52908,13.761434 0.48221,0.305763 0.76584,0.452167 0.76584,0.452167 0.7828,-8.67161 -4.44106,-16.170184 -5.23792,-17.258895 l 0.0129,-0.06718 c 0.45434,0.405778 4.06063,3.60618 8.09615,6.503476 4.30686,3.092106 9.38651,3.423566 9.38651,3.423566 -0.0863,-0.279532 -0.17935,-0.555361 -0.27905,-0.827858 -2.37995,-6.505035 -8.41822,-10.975438 -11.07736,-12.693825 -0.59299,-0.34404 -0.92363,-0.551815 -1.1095,-0.670761 l 5.2e-4,-0.01137 c 0.1391,0.07857 0.3294,0.186857 0.73794,0.442868 0.10973,0.06877 0.24539,0.158064 0.37104,0.239262 2.47638,1.436733 8.16183,4.398204 14.22755,5.232239 8.75054,1.203198 11.3745,-3.526917 11.3745,-3.526917 0,0 -5.34776,-0.992283 -11.70368,-4.303096 -5.91554,-3.081414 -10.87531,-6.731418 -11.32075,-7.061584 l 0.0827,-0.06718 c 1.23726,0.264541 9.79647,2.006955 16.09514,0.941028 6.79765,-1.150371 7.39903,-4.196644 7.39903,-4.196644 -11.27715,-0.316182 -21.75109,-5.231265 -22.6937,-5.68389 l 0.0419,-0.05943 c 1.10775,0.129566 8.61953,0.902065 15.54996,-1.119312 7.49639,-2.186445 7.80883,-6.403226 7.80883,-6.403226 -12.65834,1.042453 -22.51055,-0.03367 -23.40839,-0.136943 l 0.003,-0.05168 C 143.39223,31.262355 144.1736,23.4983 144.1736,23.4983 c -16.71069,5.778463 -26.32914,5.21157 -26.32914,5.21157 2.42951,-2.098217 2.76055,-5.300453 2.76055,-5.300453 0,0 -3.89418,4.866496 -13.01522,4.873603 -0.29422,2.33e-4 -0.59402,-0.0048 -0.89917,-0.01499 -0.6103,-0.02043 -1.18333,-0.01191 -1.72083,0.02222 -8.062516,0.511749 -8.115496,6.845017 -5.567619,9.58546 2.717749,2.923143 -0.911897,3.374226 1.435569,6.9572 2.12739,3.247065 -1.079607,5.459508 -3.729486,5.724197 -0.274127,0.02738 -0.542729,0.03391 -0.798401,0.0186 -0.340897,-0.0204 -0.662551,-0.01824 -0.965316,0.0036 -1.438691,0.103942 -2.437525,0.647007 -2.954341,1.258322 -1.204441,-2.193184 -0.8847,-3.511931 -0.8847,-3.511931 0.384008,0.614415 1.843296,1.689819 1.843296,1.689819 1.228837,-1.536043 0.614434,-4.915463 0.614434,-4.915463 0.537615,0.384011 1.79214,1.331185 1.79214,1.331185 1.382437,-3.072085 -0.307475,-5.836854 -0.307475,-5.836854 l 2.073775,0.767913 c 0.768049,-4.454489 -2.688179,-7.065684 -2.688179,-7.065684 l 1.613339,-0.077 c -0.384011,-3.302463 -3.814755,-4.91546 -3.814755,-4.91546 2.457667,-0.307208 2.688207,-1.8433 2.688207,-1.8433 0,0 -1.843479,0.1537 -6.374802,-1.382343 -4.531328,-1.536042 -7.98744,-2.150491 -10.752317,-1.228866 -0.732571,0.24419 -1.165651,0.607941 -1.369426,1.035079 -0.237132,-0.02285 -0.487473,-0.0053 -0.755509,0.06615 -2.207612,0.588271 -3.046593,3.855005 -2.073257,6.067329 0,0 1.228651,-1.459468 2.764687,-1.305864 1.536044,0.153609 1.91978,1.843299 1.91978,1.843299 0,0 1.30588,-0.153517 1.920298,0.84491 0.182041,0.29582 0.289295,0.682225 0.289904,1.04903 -0.714304,-0.232915 -1.926831,-0.589695 -3.464388,-0.844391 -2.486406,-0.411871 -3.558278,0.165002 -7.373194,-0.230478 2.045586,1.818298 5.645301,1.842449 5.742802,1.842783 -0.454038,0.398052 -0.571024,0.947745 -0.571024,0.947745 1.996856,-0.230407 2.893261,0.864188 4.37751,0.99839 0.613167,0.05544 1.163458,0.06194 1.60042,-0.124542 0.353573,1.283356 0.918903,4.414559 -1.107943,6.863664 -2.606751,3.149825 -8.274946,3.424597 -8.274946,3.424597 1.305636,1.459241 3.148644,1.68982 3.148644,1.68982 -1.2905,0.817317 -2.2221,1.681123 -2.90835,2.503723 -0.710417,-0.594273 -1.927889,-1.045361 -3.601331,-0.945163 -2.727174,0.163301 -6.874835,-2.159831 -4.527373,-5.7428 2.347468,-3.582977 -1.282165,-4.034054 1.435571,-6.9572 2.717737,-2.923138 2.475823,-9.934424 -7.288958,-9.607682 -9.764784,0.326742 -13.914398,-4.858617 -13.914398,-4.858617 z"/>
      <g style="stroke-width:1.00829" id="g982">
        <g style="stroke-width:1.00829" id="g862">
          <path style="font-variation-settings:normal;opacity:1;vector-effect:none;fill:#c0a062;fill-opacity:1;fill-rule:evenodd;stroke:#000000;stroke-width:0.533555;stroke-linecap:butt;stroke-linejoin:miter;stroke-miterlimit:4;stroke-dasharray:none;stroke-dashoffset:0;stroke-opacity:1;marker:none;marker-start:none;marker-mid:none;marker-end:none;stop-color:#000000;stop-opacity:1" d="m 71.725561,52.182726 c -0.0768,-0.999539 -1.598765,-2.299676 -4.32594,-2.13638 -2.727175,0.163296 -6.875185,-2.159503 -4.527721,-5.742476 2.347467,-3.582973 -1.282117,-4.034086 1.435621,-6.957227 2.717735,-2.923141 2.476255,-9.934348 -7.288528,-9.607604 -9.764782,0.326744 -13.914457,-4.859018 -13.914457,-4.859018 0,0 0.331297,3.202535 2.760805,5.300749 0,0 -9.618578,0.566817 -26.329273,-5.211647 0,0 0.780874,7.808735 22.332985,11.556929 0,0 -10.307531,1.249398 -23.582382,0.156175 0,0 0.31235,4.216716 7.808736,6.403163 7.496387,2.186447 15.773646,1.093223 15.773646,1.093223 0,0 -11.059301,5.438222 -22.875547,5.769519 0,0 0.601302,3.046053 7.398957,4.196424 6.797655,1.150373 16.343967,-0.99389 16.343967,-0.99389 0,0 -5.293199,3.95549 -11.486767,7.18173 -6.355926,3.310814 -11.703997,4.30322 -11.703997,4.30322 0,0 2.623976,4.729758 11.374517,3.52656 8.102936,-1.114155 15.530665,-6.025887 15.530665,-6.025887 0,0 -9.898622,5.370563 -12.659427,14.315573 0,0 5.079881,-0.331298 9.386737,-3.423399 4.306855,-3.092103 8.268962,-6.656205 8.268962,-6.656205 0,0 -6.243978,8.103971 -5.397724,17.478561 0,0 8.058561,-4.167156 11.371527,-14.437352 0,0 -1.653494,8.032284 0.334285,14.106056 0,0 6.55367,-4.503634 10.149756,-16.501644 z" id="path859" sodipodi:nodetypes="czczssccccsccscscsccscccccc"/>
          <path sodipodi:nodetypes="ccccccccccccscccccsccccsccscsccsccccccccscccccccccccssssccssssssccscccccccccccccccc" id="path870" d="m 44.386719,29.977539 c -10.698738,-0.09019 -21.070313,-4.344727 -21.070313,-4.344727 0,0 9.991822,5.575375 21.070313,4.344727 z M 56.195142,62.91431 c -4.098495,4.787799 -7.02813,13.224367 -7.02813,13.224367 0,0 4.562164,-9.241301 7.02813,-13.224367 z m 1.361519,-1.638914 c -0.524098,0.976158 -1.696885,3.457792 -0.3125,6.226562 l 0.07031,0.142578 0.154297,-0.03906 c 0,0 4.401854,-0.668088 5.677388,-4.549743 -1.685772,2.826608 -5.280549,4.009466 -5.589497,4.090758 v -4e-6 c -1.403318,-3.093348 0.756764,-6.972879 0.756764,-6.972879 -2.789378,2.815732 -6.321827,3.862908 -6.672798,3.929908 -0.582337,-3.681214 1.675843,-5.594629 2.142824,-7.185707 -2.566928,2.690902 -6.756175,3.035541 -7.099808,3.007971 -0.06852,-4.843047 4.943172,-8.07025 4.943172,-8.07025 -2.813667,0.409221 -5.510682,0.404993 -6.829891,0.02729 -1.193009,-0.341578 -1.642606,-0.720211 -1.75,-0.802734 2.689412,-4.687704 8.361956,-5.9453 8.361956,-5.9453 -6.061282,1.051826 -9.086761,-2.732194 -9.250632,-2.959097 3.390861,-4.443768 7.502277,-3.546269 8.732638,-4.305664 -2.186643,-0.200798 -5.56721,-0.807263 -6.937716,-1.676758 l -4.3e-5,9.6e-5 c -1.300775,-0.825254 -1.763085,-1.596893 -1.816406,-1.68164 0.0424,-0.08867 0.363551,-0.804015 1.451172,-1.63086 1.153076,-0.876607 3.064116,-1.763671 6.121093,-1.961914 -3.24267,-0.415471 -5.142046,0.71857 -6.361328,1.645508 -1.219281,0.926938 -1.658203,1.878906 -1.658203,1.878906 l 0.0098,0.185547 c 0,0 0.606658,0.989149 2.042969,1.900391 1.109057,0.703622 2.528925,1.269377 4.748755,1.435166 -1.862939,0.183439 -4.319324,0.741941 -6.781959,4.096084 l -0.08398,0.115234 0.08203,0.117188 c 0,0 2.075725,3.515424 7.651047,3.335557 -1.598541,0.361877 -4.582499,1.347662 -6.795578,5.428115 l -0.07813,0.144531 0.126953,0.103516 c 0,0 0.696409,0.563935 2.076172,0.958984 1.264892,0.36216 3.191706,0.519293 5.648438,0.08984 -0.760049,0.522545 -4.284624,3.075984 -4.083985,7.791015 l 0.0078,0.171875 0.171875,0.01758 c 0,0 3.512453,0.223491 6.183593,-1.949218 -0.744493,1.025606 -1.950925,3.003217 -1.363281,6.02539 l 0.03711,0.191406 0.191407,-0.0332 c 0,0 2.16905,-0.370544 4.561523,-1.984375 0.577834,-0.416292 1.046041,-0.863511 1.514649,-1.308593 z m 3.371073,-28.617193 c 0.330446,0.253493 0.596632,0.559931 0.691407,0.902344 0.09477,0.342412 0.04119,0.737393 -0.335938,1.240234 -0.808236,1.077649 -1.300493,1.779688 -1.544922,2.482422 -0.244429,0.702734 -0.222143,1.385378 -0.02734,2.359375 0.08642,0.432116 0.0018,0.830784 -0.16211,1.263672 -0.16392,0.432888 -0.408339,0.892831 -0.615234,1.419922 -0.413791,1.054182 -0.64826,2.388533 0.43457,4.190429 -0.683619,-1.884605 -0.458061,-3.045623 -0.06543,-4.045898 0.196316,-0.500137 0.440299,-0.956691 0.617188,-1.423828 0.176889,-0.467137 0.285269,-0.954511 0.179687,-1.482422 -0.189211,-0.946056 -0.204665,-1.528287 0.01172,-2.150391 0.216384,-0.622103 0.683674,-1.302189 1.488281,-2.375 0.429292,-0.572388 0.530775,-1.119974 0.402344,-1.583984 -0.128431,-0.46401 -0.463611,-0.829159 -0.833984,-1.113281 -0.740747,-0.568244 -1.722659,-0.647461 -1.722659,-0.647461 0,0 0.821528,0.456882 1.48242,0.963867 z m -16.541017,5.031251 c -11.814089,1.424764 -23.89453,-1.520509 -23.89453,-1.520509 0,0 11.262617,4.122204 23.89453,1.520509 z m 1.413111,7.92871 c -9.575933,3.48767 -22.158203,3.800781 -22.158203,3.800781 0,0 15.574844,0.542364 22.158203,-3.800781 z m 1.194314,7.49414 c -7.41666,3.498763 -14.754676,8.919912 -23.134765,9.775391 5.299712,0.481931 17.308936,-5.292292 23.134765,-9.775391 z m 4.343748,7.060548 c -4.395024,3.337093 -12.380859,9.557616 -12.380859,9.557616 0,0 8.997525,-5.616333 12.380859,-9.557616 z m 11.482076,5.961001 c -2.304542,2.630658 -3.010396,9.028258 -3.010396,9.028258 0,0 1.799739,-6.16456 3.010396,-9.028258 z" style="color:#000000;font-style:normal;font-variant:normal;font-weight:normal;font-stretch:normal;font-size:medium;line-height:normal;font-family:sans-serif;font-variant-ligatures:normal;font-variant-position:normal;font-variant-caps:normal;font-variant-numeric:normal;font-variant-alternates:normal;font-variant-east-asian:normal;font-feature-settings:normal;font-variation-settings:normal;text-indent:0;text-align:start;text-decoration:none;text-decoration-line:none;text-decoration-style:solid;text-decoration-color:#000000;letter-spacing:normal;word-spacing:normal;text-transform:none;writing-mode:lr-tb;direction:ltr;text-orientation:mixed;dominant-baseline:auto;baseline-shift:baseline;text-anchor:start;white-space:normal;shape-padding:0;shape-margin:0;inline-size:0;clip-rule:nonzero;display:inline;overflow:visible;visibility:visible;opacity:1;isolation:auto;mix-blend-mode:normal;color-interpolation:sRGB;color-interpolation-filters:linearRGB;solid-color:#000000;solid-opacity:1;vector-effect:none;fill:#000000;fill-opacity:1;fill-rule:evenodd;stroke:none;stroke-width:0.400166;stroke-linecap:butt;stroke-linejoin:miter;stroke-miterlimit:4;stroke-dasharray:none;stroke-dashoffset:0;stroke-opacity:1;marker:none;color-rendering:auto;image-rendering:auto;shape-rendering:auto;text-rendering:auto;enable-background:accumulate;stop-color:#000000;stop-opacity:1"/>
        </g>
        <use style="stroke-width:1.00829" height="100%" width="100%" transform="matrix(-1,0,0,1,162.6514,0)" id="use864" xlink:href="#g862" y="0" x="0"/>
        <g style="stroke-width:1.00829" id="g878">
          <path style="font-variation-settings:normal;opacity:1;vector-effect:none;fill:#c0a062;fill-opacity:1;fill-rule:evenodd;stroke:#000000;stroke-width:0.533555;stroke-linecap:butt;stroke-linejoin:miter;stroke-miterlimit:4;stroke-dasharray:none;stroke-dashoffset:0;stroke-opacity:1;marker:none;marker-start:none;marker-mid:none;marker-end:none;stop-color:#000000;stop-opacity:1" d="m 92.597764,53.172672 c -2.665888,-3.293665 -2.150459,-5.376148 -2.150459,-5.376148 0.38401,0.614417 1.843251,1.689646 1.843251,1.689646 1.228834,-1.536042 0.614417,-4.915336 0.614417,-4.915336 0.537615,0.384011 1.792049,1.331237 1.792049,1.331237 1.382439,-3.072085 -0.307208,-5.836962 -0.307208,-5.836962 l 2.073657,0.76802 c 0.768021,-4.454524 -2.688074,-7.065796 -2.688074,-7.065796 l 1.612844,-0.0768 c -0.38401,-3.302491 -3.814505,-4.915336 -3.814505,-4.915336 2.457668,-0.307208 2.688074,-1.843251 2.688074,-1.843251 0,0 -1.843251,0.153604 -6.374576,-1.382439 -4.531326,-1.536042 -7.987422,-2.150459 -10.752298,-1.228834 -2.764877,0.921626 -1.305636,3.532898 0.921625,4.915337 2.227262,1.382438 2.457669,4.915336 2.457669,4.915336 0,0 -1.754721,-0.678898 -4.147315,-1.07523 -2.486405,-0.411872 -3.558089,0.165074 -7.373005,-0.230406 2.073658,1.843251 5.76016,1.843251 5.76016,1.843251 l 5.200525,1.214159 c 0,0 1.687386,4.32049 -0.919364,7.470314 -2.606751,3.149824 -8.274872,3.424662 -8.274872,3.424662 1.305637,1.45924 3.148886,1.689646 3.148886,1.689646 -4.608127,2.918481 -4.76173,6.451378 -4.76173,6.451378 0,0 -6.11857,11.213112 0.179205,18.586116 l 7.270599,15.488428 10.701098,2.022457 6.709157,-15.372521 c 2.5583,-4.698435 1.194221,-19.273686 -1.40981,-22.490928 z" id="path872" sodipodi:nodetypes="sccccccscsssccccccccccsccccs"/>
          <path sodipodi:nodetypes="cccccccccccccccccccccccccccccccscscccccccccccccccccccccccccccccccccccccccccsccccccccccccccccccccc" id="path889" d="m 85.301758,32.154297 c 0,0 1.218833,0.540358 1.766601,1.84375 -0.05733,-1.886625 -1.766601,-1.84375 -1.766601,-1.84375 z m -1.229493,0.921874 c 0,0 1.226142,0.700977 1.919922,2.150391 0.07305,-2.084277 -1.919922,-2.150391 -1.919922,-2.150391 z m 7.154297,5.431641 c 1.066157,-2.075258 0.539061,-4.062894 -0.548828,-4.817383 0.734639,1.116179 0.867854,2.360762 0.523438,3.512696 -0.336159,-1.802672 -1.905274,-2.207032 -1.905274,-2.207032 1.02855,1.118312 1.572919,1.538697 1.930664,3.511719 z m -8.459961,-4.125976 c 0,0 1.060999,0.461629 1.536133,1.613281 0.186565,-1.89408 -1.536133,-1.613281 -1.536133,-1.613281 z m 7.172852,8.155273 c -0.381374,-1.256284 -1.181641,-1.857422 -1.181641,-1.857422 0.579473,1.137816 0.803715,1.573123 1.03125,2.716797 1.0809,-1.225862 1.24535,-3.491604 0.658203,-4.713867 0.190293,1.306163 0.318619,2.818124 -0.507812,3.854492 z m -1.708984,5.763672 c 2.099845,-0.933033 1.856449,-2.84371 1.37207,-4.011719 0.06287,1.246184 0.0265,2.621734 -1.020508,3.302735 -0.05763,-0.95855 -0.27906,-1.730302 -0.822266,-2.53418 0.187529,1.262682 0.540665,2.142857 0.470704,3.243164 z M 80.956224,49.353948 80.925781,50.75 81.1875,50.705078 c 1.266677,-0.302939 2.661379,-0.890577 2.966135,-2.088583 0.193153,0.622687 0.420584,1.33663 0.420584,1.33663 l 0.07617,0.253906 0.222656,-0.144531 c 0.835372,-0.542992 1.103669,-1.440999 1.164062,-2.175781 0.06039,-0.734783 -0.275389,-1.292971 -0.275389,-1.292971 0,0 -0.06628,0.592907 -0.121089,1.259764 -0.04758,0.578884 -0.286088,1.190679 -0.791016,1.648437 -0.110268,-0.366577 -0.380415,-1.272103 -0.704101,-1.648435 -0.580853,1.182768 -1.650079,2.078413 -2.754883,2.359377 l 0.0078,-2.043238 c 0,0 -1.180447,1.990357 -3.777344,2.262964 2.125148,0.137692 2.899454,-0.56321 3.335126,-1.078669 z m -4.337083,6.276911 c 0.03744,-0.807361 -0.07227,-1.818361 -0.07227,-1.818361 0,0 -0.353516,1.282886 -0.353516,2.22656 v 0.341797 l 0.296875,-0.167968 c 0,0 1.816369,-0.998503 2.206055,-2.630858 -0.597489,1.047119 -1.653506,1.774976 -2.077148,2.04883 z m -7.515625,-0.884765 0.08789,0.386718 c 0,0 1.323478,-0.274398 1.748047,-1.396484 -0.650661,0.721166 -1.835937,1.009766 -1.835937,1.009766 z m 22.111328,2.398437 0.175781,0.07422 0.08008,-0.171875 c 0,0 0.648302,-1.422846 -0.562501,-3.00293 0.629689,1.393016 0.373391,2.268249 0.261718,2.575195 -0.921467,-0.516251 -2.105468,-1.423829 -2.105468,-1.423829 0,0 0.99759,1.455163 2.15039,1.949219 z m -8.185547,1.966797 v 0.314453 L 83.3125,59.291016 c 0,0 1.726563,-0.847978 1.52832,-3.097657 -0.198242,1.73399 -1.134317,2.361115 -1.46582,2.554688 -0.06465,-0.68196 -0.182996,-1.233394 -0.53125,-1.863281 -0.06349,0.770897 0.175771,1.433046 0.185547,2.226562 z m 9.464845,4.226563 c -0.533506,-0.61336 -1.030485,-1.518828 -1.586914,-1.844727 0.343319,0.907733 0.818899,1.697469 1.549804,2.444336 l 0.22461,0.222656 0.103515,-0.296875 c 0,0 0.572306,-1.585003 -0.187498,-2.908203 0.205873,1.022027 0.01219,1.939093 -0.103517,2.382813 z M 69.511719,64.18164 v 0.294921 l 0.27539,-0.111328 c 0,0 0.369021,-0.157175 0.767579,-0.576172 0.398557,-0.418996 0.842237,-1.11019 0.845702,-2.219728 -0.380544,0.964119 -0.782548,1.578061 -1.132812,1.946287 -0.215967,0.227043 -0.276568,0.230537 -0.390625,0.296875 -0.04623,-1.023159 -0.396484,-2.396483 -0.396484,-2.396483 0,0 0.03125,1.797729 0.03125,2.765628 z m 4.779297,3.347655 c -0.306391,-0.831085 -0.894531,-1.735351 -0.894531,-1.735351 0,0 0.356223,1.307931 0.658203,2.213868 l 0.105468,0.320313 0.228516,-0.25 c 0,0 0.810343,-0.885086 0.775391,-2.208009 -0.304937,0.836953 -0.659774,1.373756 -0.873047,1.659179 z m 7.769527,0.753913 c -0.332616,-0.850149 -1.213863,-2.259771 -1.213863,-2.259771 0,0 0.748799,2.030579 0.963867,2.675782 l 0.08984,0.269531 0.222656,-0.177734 c 0,0 1.213116,-0.950156 1.181641,-2.38281 -0.315352,0.980297 -0.989895,1.642125 -1.244141,1.875002 z" style="color:#000000;font-style:normal;font-variant:normal;font-weight:normal;font-stretch:normal;font-size:medium;line-height:normal;font-family:sans-serif;font-variant-ligatures:normal;font-variant-position:normal;font-variant-caps:normal;font-variant-numeric:normal;font-variant-alternates:normal;font-variant-east-asian:normal;font-feature-settings:normal;font-variation-settings:normal;text-indent:0;text-align:start;text-decoration:none;text-decoration-line:none;text-decoration-style:solid;text-decoration-color:#000000;letter-spacing:normal;word-spacing:normal;text-transform:none;writing-mode:lr-tb;direction:ltr;text-orientation:mixed;dominant-baseline:auto;baseline-shift:baseline;text-anchor:start;white-space:normal;shape-padding:0;shape-margin:0;inline-size:0;clip-rule:nonzero;display:inline;overflow:visible;visibility:visible;opacity:1;isolation:auto;mix-blend-mode:normal;color-interpolation:sRGB;color-interpolation-filters:linearRGB;solid-color:#000000;solid-opacity:1;vector-effect:none;fill:#000000;fill-opacity:1;fill-rule:evenodd;stroke:none;stroke-width:0.400166;stroke-linecap:butt;stroke-linejoin:miter;stroke-miterlimit:4;stroke-dasharray:none;stroke-dashoffset:0;stroke-opacity:1;marker:none;color-rendering:auto;image-rendering:auto;shape-rendering:auto;text-rendering:auto;enable-background:accumulate;stop-color:#000000;stop-opacity:1"/>
          <path style="font-variation-settings:normal;opacity:1;vector-effect:none;fill:#c0a062;fill-opacity:1;fill-rule:evenodd;stroke:#000000;stroke-width:0.533555;stroke-linecap:butt;stroke-linejoin:miter;stroke-miterlimit:4;stroke-dasharray:none;stroke-dashoffset:0;stroke-opacity:1;marker:none;marker-start:none;marker-mid:none;marker-end:none;stop-color:#000000;stop-opacity:1" d="m 74.165253,35.636188 c 0,0 0.475816,-2.272599 3.30249,-0.921627 2.486852,1.188559 2.688076,-0.844823 2.073658,-1.843252 -0.614416,-0.998426 -1.920052,-0.844822 -1.920052,-0.844822 0,0 -0.384011,-1.689648 -1.920055,-1.843252 -1.536041,-0.153604 -2.764876,1.305637 -2.764876,1.305637 -0.973334,-2.212325 -0.133957,-5.479097 2.073657,-6.067368 1.544348,-0.411528 2.521014,0.862025 3.560971,2.43454 1.374482,2.078349 2.583198,4.834119 2.583199,6.2441 2e-6,2.53447 -1.127022,2.66867 -2.611271,2.53447 -1.484249,-0.1342 -2.380866,-1.228834 -4.377721,-0.998426 z" id="path874" sodipodi:nodetypes="csscscssszc"/>
          <path transform="scale(0.26458333)" sodipodi:nodetypes="sccsccssccccc" d="m 309.44425,100.0534 c -8.66436,-0.232091 -12.68644,3.76887 -12.68644,3.76887 4.64441,-0.87082 8.25781,-0.26048 8.25781,-0.26048 10e-6,0 0.63288,8.34441 8.02938,8.80669 7.39651,0.46228 8.54875,-6.2168 8.54875,-6.2168 4.14442,0.77707 12.32031,3.76629 12.32031,3.76629 0,0 -7.40011,-7.39325 -20.35143,-9.46546 -1.51216,-0.24194 -2.88063,-0.36596 -4.11838,-0.39911 z m 1.64779,2.89981 c 4.0295,1.83159 4.57946,4.02807 4.57946,4.02807 -1.46527,2.38108 -4.57851,3.2975 -4.57851,3.2975 -2.74739,-4.76215 -8.9e-4,-7.32557 -8.9e-4,-7.32557 z" style="font-variation-settings:normal;opacity:1;vector-effect:none;fill:#000000;fill-opacity:1;fill-rule:evenodd;stroke:none;stroke-width:1.00829;stroke-linecap:butt;stroke-linejoin:miter;stroke-miterlimit:4;stroke-dasharray:none;stroke-dashoffset:0;stroke-opacity:1;marker:none;marker-start:none;marker-mid:none;marker-end:none;stop-color:#000000;stop-opacity:1" id="path880"/>
        </g>
      </g>
      <g style="stroke-width:1.00829" id="g987">
        <path sodipodi:nodetypes="csscscssccscsssccsssscssscssssscssccsscssscssscccsccc" id="path984" d="m 96.522183,87.977833 c 0,0 1.629219,-1.629219 2.715365,-1.737833 1.086142,-0.108615 2.000052,0.760301 2.000052,0.760301 1.62921,-0.217231 2.01868,0.325842 3.75652,3.258439 1.73783,2.932594 2.65411,5.491989 1.5206,6.62549 -1.1335,1.133498 -3.25843,1.411991 -3.25843,1.411991 0,0 3.47567,0.325845 5.10489,3.475669 0.86707,1.67633 1.07743,4.12363 0.5764,5.84325 -0.44041,1.51154 -1.77117,2.41146 -1.77117,2.41146 0,0 1.95507,0.54307 2.60676,2.49814 0,0 1.5206,-0.10862 3.0412,3.36705 1.52061,3.47567 2.71537,4.99627 -0.54307,7.82025 0,0 2.12124,-0.3328 4.07305,2.00937 1.9518,2.34217 0.92322,4.39889 0.81461,6.78841 -0.10862,2.38952 0.19959,4.60917 0.10861,5.97381 -0.091,1.36464 -1.08614,1.73783 -1.08614,1.73783 0,0 1.12454,0.82505 1.5206,1.95506 0,0 2.06368,1.84645 1.41199,4.12736 -0.65169,2.28091 -2.49813,2.38952 -4.56181,2.17229 -2.06368,-0.21723 -3.36706,0.21723 -6.40826,1.19476 -3.04121,0.97753 -8.1461,0.86892 -10.101163,0.32585 -1.955063,-0.54308 -2.280906,-1.30338 -2.280906,-1.30338 0,0 -0.882823,0.88717 -4.561814,0.7603 -3.678991,-0.12686 -5.770481,0.29939 -8.47194,0.43446 -2.701459,0.13508 -1.737833,-0.86892 -5.213501,-0.54307 -3.475667,0.32584 -6.082418,1.95506 -9.232242,-0.32585 0,0 -0.760302,0.86892 -5.539345,0.76031 -4.779043,-0.10862 -4.453199,-1.19476 -7.385793,-1.19476 -2.932595,0 -6.20494,0.84067 -8.25471,0.10861 -2.049772,-0.73207 -2.280907,-2.93259 -2.280907,-3.6929 0,-0.7603 0.217229,-3.14982 -0.217229,-4.67042 -0.434459,-1.52061 -0.434459,-3.14983 1.846448,-3.6929 0,0 -1.496003,-0.79982 -0.574378,-2.95028 0.921626,-2.15046 0.384011,-4.07051 0.153605,-5.91376 -0.230407,-1.84325 0.614417,-4.99214 5.606555,-4.99214 0,0 -1.536043,-0.92163 -0.614417,-3.4561 -0.230407,-0.0768 -1.920053,-1.07523 -0.691219,-3.30249 1.228834,-2.22726 1.152032,-2.99528 2.611272,-4.76173 1.45924,-1.76645 2.688074,-1.22883 3.456096,-2.68807 0,0 -1.766449,-1.53605 -1.920053,-4.14732 -0.153605,-2.61127 0.921625,-2.38086 0.921625,-3.99371 0,-1.612844 0.50339,-3.029392 1.996855,-3.456095 1.07523,-0.307208 1.689647,-0.691219 1.689647,-0.691219 0,0 -1.305636,-0.307208 -1.536042,-1.996855 -0.230407,-1.689647 0.307208,-4.915336 1.766449,-5.76016 1.45924,-0.844823 1.996854,-0.307208 3.916908,-0.844823 1.920053,-0.537615 2.457668,-0.614417 3.840106,-0.460811 l 9.241856,-0.921627 3.916909,1.152032 c 0,0 1.78951,0.326685 2.549813,1.304216 0.760302,0.977532 1.629219,0.977532 1.629219,0.977532 l 2.82398,-2.2266 z" style="font-variation-settings:normal;opacity:1;vector-effect:none;fill:#e6e6e6;fill-opacity:1;fill-rule:evenodd;stroke:#000000;stroke-width:0.533555;stroke-linecap:butt;stroke-linejoin:miter;stroke-miterlimit:4;stroke-dasharray:none;stroke-dashoffset:0;stroke-opacity:1;marker:none;marker-start:none;marker-mid:none;marker-end:none;stop-color:#000000;stop-opacity:1"/>
        <path id="path1645" style="color:#000000;font-style:normal;font-variant:normal;font-weight:normal;font-stretch:normal;font-size:medium;line-height:normal;font-family:sans-serif;font-variant-ligatures:normal;font-variant-position:normal;font-variant-caps:normal;font-variant-numeric:normal;font-variant-alternates:normal;font-variant-east-asian:normal;font-feature-settings:normal;font-variation-settings:normal;text-indent:0;text-align:start;text-decoration:none;text-decoration-line:none;text-decoration-style:solid;text-decoration-color:#000000;letter-spacing:normal;word-spacing:normal;text-transform:none;writing-mode:lr-tb;direction:ltr;text-orientation:mixed;dominant-baseline:auto;baseline-shift:baseline;text-anchor:start;white-space:normal;shape-padding:0;shape-margin:0;inline-size:0;clip-rule:nonzero;display:inline;overflow:visible;visibility:visible;opacity:1;isolation:auto;mix-blend-mode:normal;color-interpolation:sRGB;color-interpolation-filters:linearRGB;solid-color:#000000;solid-opacity:1;vector-effect:none;fill:#000000;fill-opacity:1;fill-rule:evenodd;stroke:none;stroke-width:2.01658;stroke-linecap:butt;stroke-linejoin:miter;stroke-miterlimit:4;stroke-dasharray:none;stroke-dashoffset:0;stroke-opacity:1;marker:none;color-rendering:auto;image-rendering:auto;shape-rendering:auto;text-rendering:auto;enable-background:accumulate;stop-color:#000000;stop-opacity:1" d="m 261.12695,332.48047 c -0.62047,7.00786 7.20407,17.1175 3.70508,25.84375 -2.45298,8.80933 -9.60369,14.68422 -15.69336,6.65039 -5.41425,-4.94478 -25.70708,-4.93055 -24.72461,-0.29883 9.63402,-2.30154 23.96672,-2.19829 29.06641,7.03125 6.51287,4.04201 10.95314,15.50055 6.08984,22.61914 -1.52501,13.43607 -19.0526,13.39734 -29.10547,17.22656 -5.98663,1.92908 -26.81604,-4.24702 -11.28906,2.08399 10.22628,3.22964 20.14271,-5.98613 29.55078,-0.70703 8.59935,7.41207 26.21653,8.08539 22.35938,24.04883 -1.6564,12.62362 -7.14145,23.07887 -18.51563,30.19531 -10.45781,5.68974 -22.44222,0.36751 -33.03906,-2.66602 -6.25459,-0.63265 -23.00441,-3.30213 -23.73828,0.63281 13.25801,-0.84521 25.70508,1.98032 38.35351,5.18555 8.04179,3.48556 1.93857,17.38607 4.20118,25.01758 -2.30206,12.97621 -10.67045,26.82643 -25.54493,25.18555 -12.54981,2.63157 -24.8524,1.94417 -35.73437,-4.97071 -4.83484,2.10872 10.29735,5.23073 12.86133,8.12891 15.65187,1.91471 31.59665,-5.05393 47.03711,-0.79883 10.29482,-6.57388 25.21881,1.58723 20.88867,14.6836 4.92368,7.88178 -2.66204,20.4842 1.19726,25.85937 4.7354,-10.51079 -0.50081,-23.46736 2.03907,-32.47266 4.94893,-9.83062 17.51895,-11.59826 26.87695,-15.5332 10.63495,1.12611 20.03287,5.56764 30.39453,0.0937 13.10133,-2.0259 29.97602,-2.37123 39.59961,8.05664 -0.011,13.05589 5.14333,25.02188 2.99023,38.21485 6.22659,-2.54283 -1.91997,-17.38676 6.85743,-22.10157 4.79836,-14.38212 19.09218,3.37154 29.60547,-2.63281 13.73975,-0.15269 26.59105,-11.041 40.18945,-6.8125 4.88723,-3.57747 -14.07025,-4.55319 -18.00977,-0.56836 -14.54861,4.01167 -31.9088,10.55287 -45.62304,0.73438 -12.17265,-5.2433 -16.43865,-16.40349 -13.66211,-28.66016 -5.60235,-9.88997 2.75617,-21.55273 3.86914,-30.45117 11.70818,-7.83209 25.85205,0.12987 38.72656,-0.90039 5.25604,0.10847 23.25742,0.71295 20.12695,-3.48633 -16.02519,3.84265 -32.46431,-0.10517 -48.52929,-1.04688 -16.8269,3.74215 -5.06938,-15.51116 -3.77149,-23.66406 -4.88496,-11.94425 6.42107,-22.21866 17.54492,-24.33984 4.09524,-1.63654 25.34437,-0.90131 12.00782,-3.27149 -12.89598,-2.45858 -23.30027,10.63708 -35.69922,4.41602 -7.02335,-4.54983 -18.41628,-5.46458 -17.44336,-15.33398 7.43757,-7.91245 4.21952,-22.70273 14.72656,-28.11329 8.11168,-6.03338 22.76388,-0.89996 28.53711,-5.03125 -6.60367,-3.82102 -26.06454,6.01011 -17.65234,-6.12304 4.60127,-11.01646 2.03776,-24.99165 -9.54297,-30.58789 1.44636,5.77126 14.33235,13.98887 9.07812,24.35547 -0.18909,10.71917 -12.12423,21.58384 -20.88086,15.8164 -9.15816,-0.3021 -26.53725,-1.47131 -30.42773,-2.48047 -3.99513,-11.15214 4.5172,-24.15692 -3.38086,-33.55859 -2.54971,2.00112 5.06611,14.26988 0.008,20.68555 5.4539,10.01659 -3.61877,27.27371 -14.2168,16.83789 -12.73069,-4.70581 -26.87952,5.38863 -38.72656,-0.95313 -5.22447,-9.75412 8.38961,-19.43286 1.2168,-29.37305 -0.27462,-4.50298 -1.29422,-9.48185 -4.75391,-12.66601 z m 64.83985,41.23437 c 0.87864,-0.009 1.80688,0.0813 2.78515,0.28125 9.14956,3.79996 32.24814,-3.39444 23.68164,12.67383 -3.97563,8.62965 -4.40133,22.04426 -15.6582,14.47852 -9.24638,0.0918 -21.13014,3.14269 -20.72656,-10.53516 -2.34257,-7.54458 1.42438,-16.81429 9.91797,-16.89844 z m -31.56055,2.49219 c 0.38207,-0.003 0.76627,9.8e-4 1.15039,0.0176 10.65073,-0.37595 16.45666,9.45004 18.69727,17.17773 5.15022,10.08042 -1.86016,26.59767 -14.10938,22.96875 -10.85594,0.40188 -19.3284,11.97887 -29.62695,7.54102 -6.54639,-5.07111 -19.96867,-11.94466 -11.16992,-22.24414 5.32241,-9.98925 1.13744,-25.96032 18.04882,-23.38281 5.76263,0.13677 11.27869,-2.02604 17.00977,-2.07813 z m 38.86133,26.15625 c 8.63923,-0.28251 21.24095,10.55105 8.18359,12.20899 -6.35935,10.67149 -24.67517,8.66885 -30.2207,1.74218 4.78567,-7.80245 8.67055,-15.37984 19.51562,-13.48437 0.77608,-0.28965 1.62777,-0.43757 2.52149,-0.4668 z m 15.74609,12.09961 c 0.60428,0.009 1.21581,0.0673 1.83203,0.17773 8.23367,2.78733 19.77578,8.10865 16.53516,19.12696 -5.87375,10.19335 2.59023,31.73634 -14.93945,30.02539 -12.22999,5.51996 -25.07637,0.91224 -37.81055,0.86133 -10.5384,1.71643 -22.73835,4.85538 -32.77539,0.41992 -13.50002,-2.05123 -13.90606,-19.37239 -7.83203,-29.03906 5.44607,-11.24572 17.70004,-17.11236 30.14258,-18.23243 10.85112,1.94911 23.89529,12.00324 34.17578,2.30274 2.57307,-3.37465 6.44195,-5.70498 10.67187,-5.64258 z m -87.14844,47.50977 c 8.58362,1.10022 24.71676,0.9796 19.96094,14.51367 2.87629,11.21253 -10.97443,19.0908 -19.99219,14.27734 -10.99045,1.40338 -24.85351,-7.41903 -15.49218,-19.06055 6.20314,-0.50901 10.51639,-6.13273 15.52343,-9.73046 z m 53.40039,4.57812 c 12.15588,1.0218 24.22234,2.94425 36.29883,1.33984 19.63777,3.87863 -0.9502,21.95525 6.31641,32.52735 1.6107,20.37517 -23.64126,10.26322 -35.5332,12.46094 -12.12365,4.04991 -23.06959,3.3031 -35.25196,0.002 -9.23517,-4.22064 -7.16294,-15.81158 -5.90429,-21.92383 2.37535,-6.61334 1.24328,-23.88606 14.0039,-21.92773 6.72495,-0.319 13.58763,-0.47393 20.07031,-2.47852 z m -64.95117,24.63672 c 0.39815,0.0111 0.79911,0.0383 1.20117,0.084 10.62058,1.89491 29.54986,1.73488 27.63868,16.99219 1.50471,16.41203 -17.34059,11.84032 -27.4961,11.19141 -11.3427,0.66002 -22.18266,-8.49877 -12.77734,-18.79492 0.0866,-5.97019 5.46138,-9.63944 11.43359,-9.47266 z" transform="scale(0.26458333)"/>
        <path sodipodi:nodetypes="ccccccccccscccsscccccccccccccccccccccccccccccccccccccccccccccccccccccccccccccccccccccccccccccccccccscccccccccscssccccsssccccsscccccccccccccccccccccccccccccsccssssscssccccccccccccccccccccccccc" d="m 99.408203,88.302734 c 0.818787,0.864582 3.424587,1.139677 2.932497,3.249558 0.86876,0.973292 1.63322,2.200449 0.88391,0.131302 -0.93972,-1.362556 -1.10199,-3.544947 -3.816407,-3.38086 z m -32.03711,0.78125 c 0.389342,1.178908 -0.05102,3.295206 1.59375,3.636719 -0.827031,1.373188 -0.998978,2.725423 0.234375,0.730469 0.42279,-1.758635 -1.841103,-1.539127 -1.175781,-3.632813 l -0.247715,-0.423846 z m 13.578126,2.0625 c 0.869344,0.953057 2.208064,2.348422 0.433591,3.464844 1.853467,1.74504 -3.463793,4.527635 -0.08878,2.952599 1.311947,-1.486291 0.01897,-3.27834 1.450107,-4.561974 -0.22614,-0.812593 -0.847117,-1.837925 -1.794923,-1.855469 z M 96.402343,91.625 c -1.688068,1.435352 1.335791,3.03778 -5.29e-4,4.553186 2.041282,-1.637913 -0.754457,-2.881185 5.29e-4,-4.553186 z M 64.46289,97.289062 c -1.606426,-0.264519 -2.700025,1.2506 -0.474629,0.408924 2.019671,0.02682 0.689136,3.345244 -0.720684,3.649674 0.89559,0.77536 2.03555,1.10143 0.580078,2.19453 1.260626,0.50417 1.613977,-2.45632 -0.128906,-2.25508 1.685972,-0.26355 2.408814,-3.555896 0.744141,-3.998048 z m 37.98438,2.769528 c 0.56235,0.74346 2.86155,1.11106 2.40234,3.14649 1.3848,0.22007 1.38482,4.35236 1.49414,1.21875 -1.66321,-1.39887 -0.83073,-4.560474 -3.89648,-4.36524 z m -36.308599,0.0527 c 0.426356,0.96051 2.506523,3.34493 0.621377,4.89331 2.130475,-0.58662 1.072314,-4.27434 -0.621377,-4.89331 z m 23.515625,0.0195 c 0.827939,0.75372 2.281124,1.32988 2.322571,2.92352 1.364197,0.62335 -2.377898,2.87182 0.236095,1.35458 1.149411,-1.17896 -0.515927,-4.46352 -2.558666,-4.2781 z m -11.537109,1.13867 c -1.480224,-0.0234 -6.263269,1.39495 -2.207032,0.78711 1.617125,-1.15119 7.710662,-0.15216 3.865234,1.78516 0.19617,1.07641 1.09532,2.61997 0.691407,0.40234 0.264041,-0.23736 2.245037,-2.52174 -0.205079,-2.93555 -0.70186,-0.17416 -1.434383,-0.12074 -2.14453,-0.0391 z m 3.507812,5.21875 c -0.717611,0.51146 -2.942876,2.87869 -0.560546,1.25 0.38351,-0.25854 0.729472,-0.76713 0.560546,-1.25 z m 12.437499,0.75977 c -1.47251,1.15167 3.466068,1.56856 0.576172,0.74414 l -0.324445,-0.28383 z m -5.341795,1.88867 c -1.127781,2.18779 -3.824742,0.47907 -4.763672,1.06836 1.550054,0.70978 4.490601,0.97671 4.763672,-1.06836 z m -10.81836,0.28711 c -0.979794,0.59863 -4.007125,0.1931 -1.432668,0.93276 0.397486,-0.33787 1.670756,-0.24462 1.432668,-0.93276 z m -14.794922,0.24219 c -3.408854,0.50231 1.852334,0.18072 2.458984,1.60742 3.462878,-1.21081 2.47392,3.12667 4.234375,4.15429 -0.860722,-2.11414 -1.082091,-5.45319 -4.438124,-4.67514 -0.645492,-0.55017 -1.324796,-1.17879 -2.255235,-1.08657 z m 29.835937,0.81445 c -0.332708,1.5318 4.682067,1.0354 2.734376,3.80273 2.087195,-1.10435 -0.64012,-3.51312 -2.371191,-3.42695 z m -36.816406,1.04883 c -1.518143,-0.35636 -2.73268,2.74336 -0.953728,0.68124 1.445061,-0.37686 5.345882,-0.44422 1.561587,-0.70973 z m 24.820314,0.81836 c -1.473089,0.78106 -4.845648,-0.72691 -4.118335,1.91022 -1.873761,0.11466 -4.816224,4.29154 -3.613261,3.59316 0.958371,-2.13834 4.314328,-3.03417 4.467923,-4.96042 1.898873,0.69913 4.430925,-1.12553 4.611328,1.68165 3.095678,-0.75494 -0.860925,3.81252 0.60547,2.95507 0.796544,-1.59504 2.158304,-3.3773 -0.595704,-3.48046 0.174501,-1.05407 -0.251381,-1.63315 -1.357421,-1.69922 z m 27.273434,0.73828 c -0.54395,2.10525 3.93651,2.52514 3.66016,4.98437 1.55357,2.4291 -4.87717,3.22583 -0.84629,2.87697 2.64337,-1.74209 0.9836,-5.00312 -1.2123,-6.25783 -1.0258,-0.12483 -1.14019,-0.83459 -1.60157,-1.60351 z m -12.597655,6.11718 c -0.658599,2.09595 -5.354717,-1.09959 -2.072265,1.07422 0.710518,0.5621 2.65633,-0.11345 2.072265,-1.07422 z m -26.904296,0.55665 c 0.404606,1.99941 -4.593647,1.43354 -0.886416,1.78965 0.660506,0.21051 2.035572,-2.03055 0.886416,-1.78965 z m 20.660155,0.21875 c -0.47504,1.9055 3.505536,0.0587 0.939454,0.54492 L 89.825333,120.274 Z m -16.609374,5.05664 c 0.688742,1.64865 -1.032357,2.90388 -2.839843,2.52343 -1.148428,0.82816 -2.424552,-1.8034 -1.356933,0.4875 1.716907,0.17821 5.479531,-0.14956 4.513183,-2.66914 z m 13.722657,0.23046 c -1.574613,-0.43782 -4.240348,1.48954 -1.073881,0.42262 0.39047,0.0866 1.55062,0.1744 1.924458,0.29455 2.117291,0.68048 3.522369,0.50118 5.707999,-0.0824 1.598245,-0.26048 -2.39418,-0.734 -3.052718,0.19338 -1.255572,0.25921 -2.300533,-0.70594 -3.505858,-0.82813 z m 15.615233,1.30665 c 0.34984,1.17028 3.53225,0.46024 4.5332,1.6289 2.49976,0.0919 7.1291,1.3536 3.9708,3.99466 2.80497,-1.23577 1.07433,-4.07474 -1.68865,-3.98771 -2.57833,-0.31314 -4.12864,-1.47939 -6.81535,-1.63585 z m -41.345702,0.0352 c 0.422827,0.74477 -0.523435,6.30804 0.587955,2.63034 0.163143,-0.8965 0.108132,-1.95485 -0.587955,-2.63034 z m 53.148442,0.1543 c -0.16789,1.1071 4.19066,2.45441 1.14606,4.19008 -1.15634,1.22212 0.9212,1.95473 -1.02119,3.07518 1.77289,0.77652 -2.69503,3.70711 0.38685,1.62927 1.68934,-1.14526 -1.26398,-1.85318 1.08789,-2.71289 -1.79166,-1.45465 2.72623,-3.38769 0.0406,-4.94252 -0.55081,-0.40751 -1.12206,-0.78907 -1.64023,-1.23912 z m -30.925785,0.34766 c 0.862195,1.47747 -1.86381,3.14613 -0.04687,4.87695 -1.730404,2.1358 -5.69432,3.28339 -6.111594,-0.68046 -1.139878,-1.72703 0.42799,4.16366 2.806607,2.88454 2.201751,-0.23956 4.995272,-1.74183 2.99444,-4.16697 0.597596,-0.80575 1.852563,-2.21732 0.357421,-2.91406 z m -21.779298,4.7832 c -0.681791,1.93455 -3.018139,4.57348 -5.755859,3.03125 -1.362938,0.0201 -3.982819,2.62941 -1.169922,0.91992 2.422472,-0.67295 5.388572,0.73125 6.755859,-2.56445 l 0.161602,-0.70563 z m 32.455077,0.51562 c -0.225655,1.06005 -2.282182,2.66147 -0.0098,1.23047 0.266989,-0.28515 0.494231,-0.99305 0.0098,-1.23047 z m -22.121093,0.98828 c 0.221459,1.52089 -1.348364,4.63023 -3.097656,2.07422 -1.171368,0.90549 -4.829221,-0.23296 -1.851044,0.98306 1.822762,-1.51742 4.238089,2.26855 5.16145,-1.24293 0.161825,-0.59746 0.145846,-1.28456 -0.21275,-1.81435 z m 39.939459,0.35547 c -1.34156,1.23799 -5.31992,0.16188 -4.16942,3.35116 -1.95645,1.43282 1.96508,-0.24606 0.31761,-1.73727 0.96361,-1.42423 4.24604,0.46088 3.85181,-1.61389 z m -21.576177,3.29297 c -2.511031,0.012 -6.031455,0.58913 -7.929687,1.11524 3.279778,0.52316 6.479778,-1.81666 9.627889,-0.20333 1.967846,0.63217 -1.333797,-1.36309 -1.698202,-0.91191 z m 10.710937,1.41211 c 0.13382,2.35972 5.10741,2.79142 5.67383,0.19727 -1.4086,1.9022 -4.54247,1.60305 -5.67383,-0.19727 z m -22.099609,0.0156 c -2.767341,0.42799 1.864045,4.42324 0,1.58984 -1.623478,-0.92517 0.585486,-0.80479 0,-1.58984 z m -31.933594,1.2246 c -0.636778,1.35665 1.964477,0.0796 2.427473,1.77191 1.543041,1.6738 5.838383,-2.06846 2.466814,-0.24379 -2.035657,0.89247 -3.588274,-1.47645 -4.894287,-1.52812 z m 46.433594,0.34765 c -0.07915,0.33472 -0.134247,1.29652 -0.170278,1.65401 -0.05376,0.53336 -0.449101,1.03877 -0.434607,1.53663 0.01572,0.5396 0.595333,0.60953 0.73275,1.15737 0.178268,0.7107 -0.07296,1.91099 -0.01654,2.73598 0.03848,2.14265 1.078724,-3.37675 -0.152345,-4.10743 0.405294,-0.91425 0.972243,-2.1607 0.04102,-2.97656 z m -20.035155,1.25977 c -1.406235,1.38821 -0.879724,3.28244 -0.38672,4.45898 -1.085341,0.57954 -3.871879,1.88503 -0.972656,1.02149 2.18036,-0.36598 1.225407,-2.06643 0.77539,-2.99414 0.204876,-0.68468 0.889289,-2.18521 0.583986,-2.48633 z m 6.201172,0.88281 c -0.649536,3.84869 -4.370239,-0.46936 -5.578126,0.73438 1.844911,0.8262 6.039705,2.55043 5.598705,-0.7258 z m -12.240236,0.20703 c -0.07647,0.63357 -1.63736,5.22497 -0.111626,2.25909 0.364007,-0.68493 0.543332,-1.55601 0.111626,-2.25909 z m -2.054687,1.66211 c -0.642806,2.75289 -5.163434,-0.80109 -2.482422,1.62109 0.717207,0.43956 3.644295,-1.11547 2.482422,-1.62109 z m 52.537115,0.2168 c -0.58654,3.20835 -4.35969,0.45321 -6.1836,2.2832 -2.73498,-0.87372 -5.77703,0.026 -8.28711,1.12305 -0.72212,-0.64216 -4.744813,0.63616 -2.07937,0.53447 2.31533,-0.33873 4.35409,-0.87982 6.72195,-1.53447 3.17368,0.4955 5.76367,-0.66036 8.91407,-0.35907 0.53736,-0.15648 1.8168,-1.89446 0.91406,-2.04718 z m -52.048834,2.34375 c -1.467176,2.38145 -5.499864,-0.79784 -6.080078,1.17187 1.64923,-1.03202 5.592687,1.64046 6.080078,-1.17187 z" style="color:#000000;font-style:normal;font-variant:normal;font-weight:normal;font-stretch:normal;font-size:medium;line-height:normal;font-family:sans-serif;font-variant-ligatures:normal;font-variant-position:normal;font-variant-caps:normal;font-variant-numeric:normal;font-variant-alternates:normal;font-variant-east-asian:normal;font-feature-settings:normal;font-variation-settings:normal;text-indent:0;text-align:start;text-decoration:none;text-decoration-line:none;text-decoration-style:solid;text-decoration-color:#000000;letter-spacing:normal;word-spacing:normal;text-transform:none;writing-mode:lr-tb;direction:ltr;text-orientation:mixed;dominant-baseline:auto;baseline-shift:baseline;text-anchor:start;white-space:normal;shape-padding:0;shape-margin:0;inline-size:0;clip-rule:nonzero;display:inline;overflow:visible;visibility:visible;opacity:1;isolation:auto;mix-blend-mode:normal;color-interpolation:sRGB;color-interpolation-filters:linearRGB;solid-color:#000000;solid-opacity:1;vector-effect:none;fill:#000000;fill-opacity:1;fill-rule:evenodd;stroke:none;stroke-width:0.400166;stroke-linecap:butt;stroke-linejoin:miter;stroke-miterlimit:4;stroke-dasharray:none;stroke-dashoffset:0;stroke-opacity:1;marker:none;color-rendering:auto;image-rendering:auto;shape-rendering:auto;text-rendering:auto;enable-background:accumulate;stop-color:#000000;stop-opacity:1" id="path998"/>
      </g>
      <g style="stroke-width:1.00829" id="g971">
        <g style="stroke-width:1.00829" id="g920">
          <path style="font-variation-settings:normal;opacity:1;vector-effect:none;fill:#c0a062;fill-opacity:1;fill-rule:evenodd;stroke:#000000;stroke-width:0.533555;stroke-linecap:butt;stroke-linejoin:miter;stroke-miterlimit:4;stroke-dasharray:none;stroke-dashoffset:0;stroke-opacity:1;marker:none;marker-start:none;marker-mid:none;marker-end:none;stop-color:#000000;stop-opacity:1" d="m 67.377262,86.058975 c 0,0 -2.82398,-10.861461 1.629219,-15.423275 4.453199,-4.561813 8.257857,-2.11633 10.101159,2.389522 1.955062,4.779041 1.955062,12.707908 0.97753,14.011285 l -3.801509,-1.629219 z" id="path917" sodipodi:nodetypes="cssccc"/>
          <path sodipodi:nodetypes="cssccc" id="path935" d="M 84.266011,88.448497 C 82.016801,86.668822 80.517304,75.44634 84.70047,70.6357 c 4.344584,-4.996271 8.692315,-2.11633 10.535617,2.389522 1.955062,4.779041 1.955062,12.707908 0.97753,14.011285 l -3.801509,-1.629219 z" style="font-variation-settings:normal;opacity:1;vector-effect:none;fill:#c0a062;fill-opacity:1;fill-rule:evenodd;stroke:#000000;stroke-width:0.533555;stroke-linecap:butt;stroke-linejoin:miter;stroke-miterlimit:4;stroke-dasharray:none;stroke-dashoffset:0;stroke-opacity:1;marker:none;marker-start:none;marker-mid:none;marker-end:none;stop-color:#000000;stop-opacity:1"/>
          <path sodipodi:nodetypes="cccccccccccccccccccccccccccccccccccccccsccscscccscscssccccsccccsccscssccscssccscsccscs" id="path957" d="M 89.341797,71.794922 C 88.370956,70.89983 88.357422,69.882813 88.15918,69.875 c 0,0 -0.235201,1.326828 1.024414,2.357422 l 0.103515,0.08594 0.117188,-0.06445 c 0,0 1.159658,-0.659755 1.144531,-2.270508 -0.339059,1.214007 -1.016144,1.689553 -1.207031,1.811524 z m -14.703125,0.873047 0.132812,0.130859 0.140625,-0.123047 c 0,0 0.738224,-0.657284 0.789062,-1.838867 -0.379825,0.828187 -0.797392,1.186443 -0.933593,1.321289 -0.737736,-0.856759 -1.370117,-1.705078 -1.370117,-1.705078 0,0 0.210401,1.184037 1.241211,2.214844 z m 19.302734,2.96875 0.119141,0.117187 0.136719,-0.0957 c 0,0 0.821731,-0.57053 0.960937,-1.697266 -0.429994,0.723164 -0.865206,1.01409 -1.03125,1.146485 -0.60021,-0.857706 -0.658203,-2.222657 -0.658203,-2.222657 0,0 -0.550308,1.728988 0.472656,2.751954 z m -24.429687,0.11914 0.138672,0.107422 0.123047,-0.125 c 0,0 1.210937,-1.166674 1.012695,-2.519531 -0.198242,0.937969 -0.887838,1.758708 -1.125977,2.027344 -0.39392,-0.519456 -0.487609,-1.002154 -0.717773,-1.644532 -0.147577,0.739507 0.01338,1.701254 0.569336,2.154297 z m 15.205078,2.277344 c -0.146823,-0.795126 -0.13509,-1.461303 -0.250977,-2.292969 -0.251222,0.920322 -0.371336,1.969683 -0.0791,2.886719 l 0.105469,0.316406 0.226562,-0.24414 c 0,0 1.532176,-1.630759 2.136718,-3.28418 -0.821747,1.199159 -1.834619,2.280987 -2.138672,2.618164 z m -9.583985,1.583985 0.561146,-0.158772 c 0,0 0.440008,-0.897383 -0.146107,-2.682049 0.0283,1.748232 -0.415038,2.840821 -0.415039,2.840821 z m -3.191406,-1.119141 c -0.01012,0.34401 0.0332,0.548828 0.0332,0.548828 l 0.386719,-0.08594 c 0,0 -0.03252,-0.142364 -0.02344,-0.451172 0.0091,-0.308809 0.0634,-0.770071 0.06055,-1.425782 -0.386864,0.573124 -0.446913,1.070053 -0.457031,1.414063 z m 14.538086,3.961914 c 0,0 3.390244,-1.461733 2.85037,-5.254338 -0.646891,3.580398 -2.85037,5.254338 -2.85037,5.254338 z m 5.413086,-3.016602 c 0.240112,1.030481 0.8945,2.281576 2.574219,2.939453 -1.392366,-0.954966 -1.966799,-2.084075 -2.1875,-3.03125 -0.220701,-0.947174 -0.270508,-1.729492 -0.270508,-1.729492 0,0 -0.356323,0.790809 -0.116211,1.821289 z m -24.917969,0.976563 c -0.250732,0.358189 -0.435546,0.460937 -0.435547,0.460937 l 0.199219,0.341797 c 0,0 0.275618,-0.16634 0.5625,-0.576172 0.286883,-0.409832 0.60594,-1.07435 0.567383,-2.129882 -0.345765,0.941323 -0.642822,1.545131 -0.893555,1.90332 z M 72.125,79.353516 71.751953,79.216797 c -0.81931,2.234479 -2.416016,2.800781 -2.348633,2.987304 0,0 1.851342,-0.476938 2.72168,-2.850585 z m 4.458984,2.201172 C 76.314173,81.087014 76.283203,80.75 76.283203,80.75 l -0.394531,0.03906 c 0,0 0.04536,0.432137 0.351562,0.962891 0.306205,0.530755 0.877355,1.178671 1.995117,1.475586 -0.879092,-0.62471 -1.381555,-1.205178 -1.651367,-1.672851 z m 16.400391,1.271484 c -0.269252,-0.620213 -0.302734,-1.195313 -0.302734,-1.195313 l -0.396485,0.02148 c 0,0 0.03576,0.640584 0.335938,1.332031 0.300176,0.691447 0.88709,1.461459 1.999023,1.472656 -0.88492,-0.372814 -1.36649,-1.010646 -1.635742,-1.630859 z m -9.488281,3.007812 c -0.223239,0.375042 -0.439453,0.539063 -0.439453,0.539063 l 0.240234,0.314453 c 0,0 0.282288,-0.21901 0.539063,-0.650391 0.256774,-0.43138 0.501171,-1.087505 0.262695,-1.963867 -0.161674,0.813285 -0.3793,1.385701 -0.602539,1.760742 z" style="color:#000000;font-style:normal;font-variant:normal;font-weight:normal;font-stretch:normal;font-size:medium;line-height:normal;font-family:sans-serif;font-variant-ligatures:normal;font-variant-position:normal;font-variant-caps:normal;font-variant-numeric:normal;font-variant-alternates:normal;font-variant-east-asian:normal;font-feature-settings:normal;font-variation-settings:normal;text-indent:0;text-align:start;text-decoration:none;text-decoration-line:none;text-decoration-style:solid;text-decoration-color:#000000;letter-spacing:normal;word-spacing:normal;text-transform:none;writing-mode:lr-tb;direction:ltr;text-orientation:mixed;dominant-baseline:auto;baseline-shift:baseline;text-anchor:start;white-space:normal;shape-padding:0;shape-margin:0;inline-size:0;clip-rule:nonzero;display:inline;overflow:visible;visibility:visible;opacity:1;isolation:auto;mix-blend-mode:normal;color-interpolation:sRGB;color-interpolation-filters:linearRGB;solid-color:#000000;solid-opacity:1;vector-effect:none;fill:#000000;fill-opacity:1;fill-rule:evenodd;stroke:none;stroke-width:0.400166;stroke-linecap:butt;stroke-linejoin:miter;stroke-miterlimit:4;stroke-dasharray:none;stroke-dashoffset:0;stroke-opacity:1;marker:none;color-rendering:auto;image-rendering:auto;shape-rendering:auto;text-rendering:auto;enable-background:accumulate;stop-color:#000000;stop-opacity:1"/>
        </g>
        <g style="stroke-width:1.00829" id="g907">
          <path style="font-variation-settings:normal;opacity:1;vector-effect:none;fill:#c0a062;fill-opacity:1;fill-rule:evenodd;stroke:#000000;stroke-width:0.533555;stroke-linecap:butt;stroke-linejoin:miter;stroke-miterlimit:4;stroke-dasharray:none;stroke-dashoffset:0;stroke-opacity:1;marker:none;marker-start:none;marker-mid:none;marker-end:none;stop-color:#000000;stop-opacity:1" d="m 66.689845,87.170412 c 0,0 0.230407,-1.843251 1.305637,-2.150459 1.075229,-0.307208 1.920052,0.384011 1.920052,0.384011 0,0 1.920055,-0.691219 1.612847,-2.995284 -0.307211,-2.304063 0.614415,-3.532897 0.614415,-3.532897 0,0 0.307208,2.073656 1.459241,2.995282 0,0 1.459242,-0.614415 1.996856,-3.072083 0,0 0.747055,1.138186 0.384011,3.225689 -0.23533,1.353153 0.768022,1.536043 1.152032,2.611273 0,0 1.305636,-0.921626 2.304064,0.307208 0.998427,1.228834 0.768021,2.53447 0.768021,2.53447 0,0 -1.45924,0.384011 -2.304064,-0.614417 l -0.691219,0.384011 c 0,0 0.614417,1.536042 -0.614417,1.766449 0,0 -0.307209,2.457668 -1.45924,3.379293 -0.756884,-1.059638 -0.655855,-2.193112 -1.382439,-3.225689 0,0 -1.612844,-0.0768 -1.612844,-1.766449 0,0 -1.152032,0.921626 -2.380866,0.153604 l -0.844824,0.614417 c 0,0 -1.003889,-0.79052 -2.227263,-0.998429 z" id="path894" sodipodi:nodetypes="cscscccscscccccccccc"/>
          <path style="font-variation-settings:normal;opacity:1;vector-effect:none;fill:none;fill-opacity:1;fill-rule:evenodd;stroke:#000000;stroke-width:0.400166;stroke-linecap:butt;stroke-linejoin:miter;stroke-miterlimit:4;stroke-dasharray:none;stroke-dashoffset:0;stroke-opacity:1;marker:none;marker-start:none;marker-mid:none;marker-end:none;stop-color:#000000;stop-opacity:1" d="m 73.755641,89.167268 c 0,0 1.075229,-1.843252 2.841678,-0.153604" id="path896"/>
          <path style="color:#000000;font-style:normal;font-variant:normal;font-weight:normal;font-stretch:normal;font-size:medium;line-height:normal;font-family:sans-serif;font-variant-ligatures:normal;font-variant-position:normal;font-variant-caps:normal;font-variant-numeric:normal;font-variant-alternates:normal;font-variant-east-asian:normal;font-feature-settings:normal;font-variation-settings:normal;text-indent:0;text-align:start;text-decoration:none;text-decoration-line:none;text-decoration-style:solid;text-decoration-color:#000000;letter-spacing:normal;word-spacing:normal;text-transform:none;writing-mode:lr-tb;direction:ltr;text-orientation:mixed;dominant-baseline:auto;baseline-shift:baseline;text-anchor:start;white-space:normal;shape-padding:0;shape-margin:0;inline-size:0;clip-rule:nonzero;display:inline;overflow:visible;visibility:visible;opacity:1;isolation:auto;mix-blend-mode:normal;color-interpolation:sRGB;color-interpolation-filters:linearRGB;solid-color:#000000;solid-opacity:1;vector-effect:none;fill:#000000;fill-opacity:1;fill-rule:evenodd;stroke:none;stroke-width:0.400166;stroke-linecap:butt;stroke-linejoin:miter;stroke-miterlimit:4;stroke-dasharray:none;stroke-dashoffset:0;stroke-opacity:1;marker:none;color-rendering:auto;image-rendering:auto;shape-rendering:auto;text-rendering:auto;enable-background:accumulate;stop-color:#000000;stop-opacity:1" d="m 72.757812,83.227539 c 0.718067,-0.04164 1.228165,-0.03144 1.842773,0.460937 -0.268966,-0.774566 -1.300717,-1.25401 -1.842773,-0.460937 z m 2.149415,1.84375 C 74.502462,84.456634 73.927233,84.275098 73.37207,84.6875 c 0.562877,0.0099 1.158619,0.236322 1.535157,0.383789 z m 2.16633,2.420206 0.315115,-0.335245 c 0,0 -0.496777,-0.981227 -1.666016,-1.024414 0.894438,0.391275 1.350901,1.359659 1.350901,1.359659 z m -5.126291,-0.128214 0.429026,0.383381 c 0,0 0.06777,-0.854128 0.486012,-1.452717 -0.77652,0.378944 -0.915038,1.069336 -0.915038,1.069336 z m 1.514994,-0.884796 c 0.567367,0.173337 1.270637,0.0227 1.637665,0.358492 -0.172904,-0.802218 -0.980217,-0.862538 -1.637665,-0.358492 z" id="path902" sodipodi:nodetypes="ccccccccccccccccc"/>
        </g>
        <g style="stroke-width:1.04608" transform="matrix(0.96387022,0,0,0.96387022,19.165921,3.8553463)" id="g915">
          <path sodipodi:nodetypes="cccccccccscccsccc" id="path909" d="m 79.653258,87.852689 c -0.725194,-0.505288 -1.285425,-0.716945 -2.264586,-0.696439 0,0 -0.0696,1.457979 -0.791351,1.857415 0,0 -0.307209,2.457668 -1.45924,3.379293 -0.756884,-1.059638 -0.655855,-2.193112 -1.382439,-3.225689 0,0 -1.612844,-0.0768 -1.612844,-1.766449 0,0 -1.311394,1.320031 -2.540228,0.552009 l -1.800996,0.933141 c -0.997373,-2.118046 0.02204,-4.523841 2.273322,-3.561687 0,0 2.159098,-0.611538 1.85189,-2.915603 -0.307211,-2.304063 0.534734,-3.851621 0.534734,-3.851621 0,0 0.147846,1.754932 1.299879,2.676558 0,0 1.29988,0.02303 1.837494,-2.434635 0,0 0.747055,1.138186 0.384011,3.225689 -0.23533,1.353153 0.210255,1.854767 1.152032,2.611273 1.596102,-0.330631 3.388067,-0.553477 3.784318,1.961414 z" style="font-variation-settings:normal;opacity:1;vector-effect:none;fill:#c0a062;fill-opacity:1;fill-rule:evenodd;stroke:#000000;stroke-width:0.553554;stroke-linecap:butt;stroke-linejoin:miter;stroke-miterlimit:4;stroke-dasharray:none;stroke-dashoffset:0;stroke-opacity:1;marker:none;marker-start:none;marker-mid:none;marker-end:none;stop-color:#000000;stop-opacity:1"/>
          <path sodipodi:nodetypes="czc" id="path911" d="m 73.755641,89.167268 c 0,0 0.695227,-1.935591 1.653063,-1.811075 0.957836,0.124516 1.188615,1.657471 1.188615,1.657471" style="font-variation-settings:normal;opacity:1;vector-effect:none;fill:none;fill-opacity:1;fill-rule:evenodd;stroke:#000000;stroke-width:0.415164;stroke-linecap:butt;stroke-linejoin:miter;stroke-miterlimit:4;stroke-dasharray:none;stroke-dashoffset:0;stroke-opacity:1;marker:none;marker-start:none;marker-mid:none;marker-end:none;stop-color:#000000;stop-opacity:1"/>
          <path sodipodi:nodetypes="ccccccccccccccccc" id="path913" d="m 73.5394,82.845457 c 0.504139,-0.02923 0.862268,-0.02207 1.293771,0.323614 -0.01981,-0.712835 -0.913206,-0.880414 -1.293771,-0.323614 z m 1.536856,2.169489 c -0.404765,-0.614655 -1.261709,-0.739848 -1.816872,-0.327446 0.562877,0.0099 1.440334,0.179979 1.816872,0.327446 z m 2.109987,2.701921 0.434999,-0.684633 c 0,0 -0.278603,-1.476984 -1.447842,-1.520171 0.894438,0.391275 1.012843,2.204804 1.012843,2.204804 z m -5.238977,-0.353586 0.429026,0.383381 c 0,0 0.06777,-0.966814 0.711384,-1.734432 -0.77652,0.378944 -1.14041,1.351051 -1.14041,1.351051 z m 1.62768,-1.560912 c 0.567367,0.173337 1.270637,0.0227 1.637665,0.358492 -0.172904,-0.802218 -0.980217,-0.862538 -1.637665,-0.358492 z" style="color:#000000;font-style:normal;font-variant:normal;font-weight:normal;font-stretch:normal;font-size:medium;line-height:normal;font-family:sans-serif;font-variant-ligatures:normal;font-variant-position:normal;font-variant-caps:normal;font-variant-numeric:normal;font-variant-alternates:normal;font-variant-east-asian:normal;font-feature-settings:normal;font-variation-settings:normal;text-indent:0;text-align:start;text-decoration:none;text-decoration-line:none;text-decoration-style:solid;text-decoration-color:#000000;letter-spacing:normal;word-spacing:normal;text-transform:none;writing-mode:lr-tb;direction:ltr;text-orientation:mixed;dominant-baseline:auto;baseline-shift:baseline;text-anchor:start;white-space:normal;shape-padding:0;shape-margin:0;inline-size:0;clip-rule:nonzero;display:inline;overflow:visible;visibility:visible;opacity:1;isolation:auto;mix-blend-mode:normal;color-interpolation:sRGB;color-interpolation-filters:linearRGB;solid-color:#000000;solid-opacity:1;vector-effect:none;fill:#000000;fill-opacity:1;fill-rule:evenodd;stroke:none;stroke-width:0.415164;stroke-linecap:butt;stroke-linejoin:miter;stroke-miterlimit:4;stroke-dasharray:none;stroke-dashoffset:0;stroke-opacity:1;marker:none;color-rendering:auto;image-rendering:auto;shape-rendering:auto;text-rendering:auto;enable-background:accumulate;stop-color:#000000;stop-opacity:1"/>
        </g>
      </g>
    </g>
  </g>
</svg>