<?xml version="1.0" encoding="UTF-8" standalone="no"?>
<!-- Created with Inkscape (http://www.inkscape.org/) -->
<svg xmlns:dc="http://purl.org/dc/elements/1.1/" xmlns:cc="http://creativecommons.org/ns#" xmlns:rdf="http://www.w3.org/1999/02/22-rdf-syntax-ns#" xmlns:svg="http://www.w3.org/2000/svg" xmlns="http://www.w3.org/2000/svg" xmlns:xlink="http://www.w3.org/1999/xlink" xmlns:sodipodi="http://sodipodi.sourceforge.net/DTD/sodipodi-0.dtd" xmlns:inkscape="http://www.inkscape.org/namespaces/inkscape" width="500" height="571" id="svg2" version="1.1" inkscape:version="0.48.5 r10040" sodipodi:docname="svg.svg">
  <defs id="defs4"/>
  <sodipodi:namedview id="base" pagecolor="#f6f3f1" bordercolor="#666666" borderopacity="1.0" inkscape:pageopacity="0" inkscape:pageshadow="2" inkscape:zoom="0.73736979" inkscape:cx="442.47933" inkscape:cy="350.40222" inkscape:document-units="px" inkscape:current-layer="layer1" showgrid="false" showborder="true" inkscape:window-width="1920" inkscape:window-height="1017" inkscape:window-x="-8" inkscape:window-y="-8" inkscape:window-maximized="1" inkscape:object-nodes="true" inkscape:showpageshadow="false" fit-margin-top="0" fit-margin-left="0" fit-margin-right="0" fit-margin-bottom="0"/>
  <metadata id="metadata7">
    <rdf:RDF>
      <cc:Work rdf:about="">
        <dc:format>image/svg+xml</dc:format>
        <dc:type rdf:resource="http://purl.org/dc/dcmitype/StillImage"/>
        <dc:title/>
      </cc:Work>
    </rdf:RDF>
  </metadata>
  <g inkscape:label="Layer 1" inkscape:groupmode="layer" id="layer1" transform="translate(-71.428572,-297.07647)">
    <g id="g4259" transform="matrix(0.96418733,0,0,0.96196536,2.558048,33.016981)">
      <path sodipodi:nodetypes="cszscc" inkscape:connector-curvature="0" id="path2993" d="m 71.428572,274.50504 c 0,0 0,227.14286 0,342.85714 0,128.57143 108.999998,250.71429 259.285718,250.71429 C 481,868.07647 590,745.93361 590,617.36218 c 0,-115.71428 0,-342.85714 0,-342.85714 z" style="color:#000000;fill:#ce2722;fill-opacity:1;stroke:none;stroke-width:1;marker:none;visibility:visible;display:inline;overflow:visible;enable-background:accumulate"/>
      <g id="g4229">
        <path style="color:#000000;fill:#c8c8c8;fill-opacity:1;stroke:none;stroke-width:1.42832232;marker:none;visibility:visible;display:inline;overflow:visible;enable-background:accumulate" d="m 71.4375,274.5 0,142.375 c 22.440517,19.35664 58.41274,21.88678 78.6875,43.9375 21.77786,23.68547 19.59715,63.53327 41.375,87.21875 21.77786,23.68548 61.65964,24.84577 83.4375,48.53125 21.77785,23.68548 19.59714,63.53328 41.375,87.21875 21.77785,23.68548 61.65964,24.84578 83.4375,48.53125 21.77785,23.68548 19.59714,63.53327 41.375,87.21875 5.55321,6.03964 12.28676,10.57946 19.59375,14.4375 C 515.2714,802.821 556.02562,753.12149 576.09375,696.6875 555.82192,672.84167 557.4175,634.25137 536.125,611.09375 514.34714,587.40828 474.46535,586.24798 452.6875,562.5625 430.90964,538.87703 433.09035,499.02923 411.3125,475.34375 389.53464,451.65827 349.65286,450.49798 327.875,426.8125 306.09715,403.12702 308.27786,363.27922 286.5,339.59375 264.72215,315.90827 224.84035,314.74797 203.0625,291.0625 c -4.5213,-4.91734 -7.99,-10.54186 -10.875,-16.5625 l -120.75,0 z" id="use3018" inkscape:connector-curvature="0"/>
        <path sodipodi:nodetypes="cssssssccccccsssssscc" inkscape:connector-curvature="0" id="path4234" d="M 576.09375,696.6875 C 555.82192,672.84167 557.4175,634.25137 536.125,611.09375 514.34714,587.40828 474.46535,586.24798 452.6875,562.5625 430.90964,538.87703 433.09035,499.02923 411.3125,475.34375 389.53464,451.65827 349.65286,450.49798 327.875,426.8125 306.09715,403.12702 308.27786,363.27922 286.5,339.59375 264.72215,315.90827 224.84035,314.74797 203.0625,291.0625 c -4.5213,-4.91734 -7.99,-10.54186 -10.875,-16.5625 l -120.758928,0.005 0.0089,142.37 3.342284,2.69364 0.421351,-141.09187 c 0,0 112.461293,-0.25505 112.670443,0.096 3.82994,6.42851 8.43452,13.49184 11.19092,16.48968 21.77787,23.68545 61.65965,24.84577 83.4375,48.53125 21.77786,23.68547 19.59715,63.53327 41.375,87.21875 21.77786,23.68548 61.65964,24.84577 83.4375,48.53125 21.77785,23.68548 19.59714,63.53328 41.375,87.21875 21.77785,23.68548 61.65964,24.84578 83.4375,48.53125 21.2925,23.15762 21.73118,62.76505 42.00301,86.61088 z" style="color:#000000;fill:#ffffff;stroke:none;stroke-width:1.42832232;marker:none;visibility:visible;display:inline;overflow:visible;enable-background:accumulate"/>
      </g>
      <g id="g3840">
        <g id="g4143">
          <path sodipodi:nodetypes="csscccccccsccscccccccsscc" inkscape:connector-curvature="0" id="path3821" d="m 465.68032,361.99416 c 0,0 0.27597,41.66295 0.27597,58.3768 0,16.71385 -4.1652,19.00863 -14.67064,16.30325 -10.50544,-2.70538 -17.04632,-18.18275 -17.04632,-18.18275 3.78807,0.37881 11.36421,1.13642 11.36421,1.13642 l 1.89404,-1.89404 c -17.42513,-34.47145 -46.59329,-38.25952 -46.59329,-38.25952 0,0 -12.35407,33.96831 -3.35751,59.84254 l 2.9787,0 c 0,0 7.19734,-8.70357 9.47018,-10.21879 0,0 2.60497,23.30238 26.89532,36.74429 24.29035,13.44191 37.1231,25.38008 39.77475,32.95623 l 10.78604,0 c 2.65165,-7.57615 15.4844,-19.51432 39.77475,-32.95623 24.29035,-13.44191 26.89532,-36.74429 26.89532,-36.74429 2.27284,1.51522 9.47018,10.21879 9.47018,10.21879 l 2.9787,0 c 8.99656,-25.87423 -3.35751,-59.84254 -3.35751,-59.84254 0,0 -29.16816,3.78807 -46.59329,38.25952 l 1.89404,1.89404 c 0,0 7.57614,-0.75761 11.36421,-1.13642 0,0 -6.54088,15.47737 -17.04632,18.18275 -10.50544,2.70538 -14.67064,0.4106 -14.67064,-16.30325 0,-16.71385 0.27597,-58.3768 0.27597,-58.3768 z" style="color:#000000;fill:#c7a859;fill-opacity:1;stroke:none;stroke-width:1;marker:none;visibility:visible;display:inline;overflow:visible;enable-background:accumulate"/>
          <path id="path4171" d="m 465.6875,362 c 0,0 0.28125,41.66115 0.28125,58.375 0,16.71385 -4.18206,19.01788 -14.6875,16.3125 -0.8429,-0.21707 -1.64697,-0.53933 -2.4375,-0.90625 1.49992,2.19063 3.11474,4.02255 4.96875,4.5 10.50544,2.70538 16.21875,-3.1924 16.21875,-19.90625 C 470.03125,403.66115 469.75,362 469.75,362 l -4.0625,0 z m 7.03125,2.90625 0,62.53125 c 0,3.56254 -0.0799,7.21034 -1.15625,10.125 -1.07632,2.91466 -3.06951,5.10071 -7.0625,5.96875 -8.03348,1.74641 -15.71875,-2.40625 -15.71875,-2.40625 0,0 7.42896,5.22469 15.9375,3.375 4.27803,-0.93 6.61906,-3.44658 7.78125,-6.59375 1.16219,-3.14717 1.21875,-6.89027 1.21875,-10.46875 l 0,-62.53125 -1,0 z m -71.8125,14.5625 c 0,0 -12.37156,33.96952 -3.375,59.84375 l 3,0 c -3.66976,-21.21695 -2.24076,-41.8044 3.625,-55.53125 0,0 10.99045,1.09705 22.71875,8.0625 -13.50026,-10.75037 -25.96875,-12.375 -25.96875,-12.375 z m 162.3125,0 c 0,0 -29.16862,3.77855 -46.59375,38.25 L 518.5,419.625 520.21875,417 c 14.86074,-29.39842 37.68168,-33.55543 44.09375,-34.15625 -0.65627,-2.1473 -1.09375,-3.375 -1.09375,-3.375 z m -158.125,5.8125 c 0,0 -7.88581,20.53926 -3.78125,42.90625 -1.16893,-27.05041 4.2096,-40.17204 4.65625,-41.4375 4.01602,1.18674 7.73232,2.74629 11.90625,4.40625 -3.84756,-3.14922 -8.15953,-4.24382 -12.78125,-5.875 z m 154.4375,1.375 c -21.61246,4.43825 -34.875,27.875 -34.875,27.875 0,0 15.3122,-19.36732 34.875,-27.875 z m -23,31.09375 c -2.08142,6.81117 -5.71872,13.69133 -10.03125,18.9375 -4.31253,5.24617 -9.32162,8.83317 -13.40625,9.34375 -8.41859,1.05233 -13.25,-3.4375 -13.25,-3.4375 0,0 4.53235,5.54283 13.375,4.4375 4.54599,-0.56825 9.62325,-4.32519 14.03125,-9.6875 4.408,-5.36231 8.12619,-12.38014 9.28125,-19.59375 z m -1.96875,0.375 c -1.06023,0.10602 -2.78677,0.28772 -4.71875,0.46875 -5.1e-4,10e-4 -0.0307,-10e-4 -0.0312,0 -0.24513,0.57206 -6.66478,15.44025 -16.96875,18.09375 -6.11994,1.57602 -10.09711,1.42981 -12.34375,-2.25 1.2891,5.71837 4.32097,7.625 11.25,7.625 15.20745,0 22.8125,-23.9375 22.8125,-23.9375 z m -121.03125,5.03125 c 0,0 2.21573,17.29394 17.625,29.84375 -11.38162,-11.00459 -17.625,-29.84375 -17.625,-29.84375 z m -1.375,2.71875 -2.25,3.03125 0.0312,0.25 c 0.0206,-0.0143 0.0426,-0.0492 0.0625,-0.0625 0,0 2.31807,20.67772 22.875,34.3125 -11.9706,-13.02418 -19.46627,-30.96425 -20.7187,-37.53125 z m 143.03125,0 -1.28125,3.40625 0.125,0.53125 c 0.0518,-0.32981 0.0937,-0.71875 0.0937,-0.71875 2.27284,1.51522 9.46875,10.21875 9.46875,10.21875 l 0.15625,0 0.90625,-3.21875 c 0,0 -7.19591,-8.70353 -9.46875,-10.21875 z m -83.03125,17.0625 c -1.17425,2.1015 -2.3184,3.52126 -3.6875,4.4375 -1.3691,0.91624 -3.13925,1.24351 -6.1875,1.34375 -3.04826,0.10024 -5.75,-0.53125 -5.75,-0.53125 0,0 2.80635,1.59203 5.84375,1.5 3.03739,-0.092 5.10352,-0.42962 6.65625,-1.46875 1.55273,-1.03913 2.86082,-2.70783 3.125,-5.28125 z m 22.3125,3.25 c 0,0 1.07638,2.77383 4.15625,4.59375 3.07987,1.81992 7.77441,2.94098 13.8125,-0.28125 -6.18861,2.17191 -10.45881,1.12372 -13.3125,-0.5625 -2.85369,-1.68627 -4.65625,-3.75 -4.65625,-3.75 z m -36.90625,32.59375 c 11.08401,8.02645 17.33542,15.00745 19.09375,20.03125 l 2.53125,0 c -1.08374,-8.69499 -4.66453,-13.27678 -21.625,-20.03125 z m 14.59375,4.0625 c 0,0 1.00182,0.89398 2.5625,2.28125 1.56068,1.38727 3.4488,3.73028 5.34375,7.4375 -0.98191,-4.20417 -3.0117,-6.6979 -4.6875,-8.1875 -1.6758,-1.4896 -3.21875,-1.53125 -3.21875,-1.53125 z" style="color:#000000;fill:#f7ecd1;fill-opacity:1;stroke:none;stroke-width:1;marker:none;visibility:visible;display:inline;overflow:visible;enable-background:accumulate" inkscape:connector-curvature="0"/>
          <path inkscape:connector-curvature="0" id="path4205" d="m 465.39439,365.56833 0,3.05668 25.35245,0 7.61825,2.0413 0,-6.35662 z" style="color:#000000;fill:#776739;fill-opacity:1;stroke:none;stroke-width:1;marker:none;visibility:visible;display:inline;overflow:visible;enable-background:accumulate"/>
          <path sodipodi:nodetypes="sccscscccccccccccccccccccsscsscssscccccsscscccscscsccc" inkscape:connector-curvature="0" id="path4225" d="m 490.34375,434.0625 0,-66.15625 -1,0 0,66.15625 c 0,6.30944 3.84029,11.0881 10.9375,12.0625 -6.56795,-1.90246 -9.9375,-6.14522 -9.9375,-12.0625 z m 4.5625,-3.5 0,-62.0625 -1.35961,0 0,62.0625 c 0.46391,7.36393 3.43504,10.12495 9.00023,11.1875 -4.81307,-2.11938 -7.57606,-7.02173 -7.64062,-11.1875 z m 69.1875,3.04685 c 0,0 5.32163,-24.13795 -3.32813,-48.5625 4.06436,19.82055 3.32813,48.5625 3.32813,48.5625 z M 441.3382,415.57963 c -4.95304,-0.99344 -11.27269,0.12929 -11.27269,0.12929 5.45214,18.28951 17.80949,23.57233 17.80949,23.57233 0,0 -11.51658,-9.07476 -15.79236,-22.40752 1.03754,-0.0791 7.29385,-0.0292 11.875,0.75856 0,0 -9.1189,-23.6232 -31.42639,-30.89792 16.42592,7.95495 27.55407,26.4646 28.80695,28.84526 z M 523.3906,416.5 c 0,0 7.412,-0.27072 12.46872,0.23437 -4.9461,-2.11506 -8.84874,-1.54852 -12.46872,-0.23437 z m 6.7969,35.46875 c -8.42065,7.42998 -17.91404,11.98582 -26.3125,17.09375 -8.39846,5.10793 -15.724,9.01441 -19.125,20.65625 4.22747,-9.2093 11.28728,-14.74151 19.625,-19.8125 8.33772,-5.07099 17.81238,-9.77029 26.46875,-17.1875 19.35492,-16.58426 20.26562,-30.39063 20.26562,-30.39063 0,0 -4.05147,14.75498 -20.92187,29.64063 z m 4.55822,1.86644 c -7.16651,6.72405 -17.00281,12.84414 -26.43322,18.91481 -9.32387,6.00208 -18.24829,11.97467 -22.81678,20.61644 l -5.05822,1.26284 5.59375,0.24572 0.28125,0 0.15625,-0.25 c 4.37521,-8.50039 13.01426,-15.01657 22.40625,-21.0625 9.39199,-6.04593 19.70082,-11.41342 26.8125,-18.46875 17.09245,-16.957 17.96875,-31.39063 17.96875,-31.39063 0,0 -4.60904,16.71356 -18.91053,30.13207 z M 401.09375,433.35937 c 0,0 4.98164,-5.97201 10.17187,-8.39062 -7.26957,0.3785 -10.17187,8.39062 -10.17187,8.39062 z m 35.5625,27.60938 c -8.23962,-3.72153 -13.70313,-14.0625 -13.70313,-14.0625 0,0 2.62497,9.28824 13.26563,14.96875 8.12954,4.33995 17.5,10.46875 17.5,10.46875 0,0 -3.52747,-5.26173 -17.0625,-11.375 z m 20.125,13.14062 c 7.5526,5.48655 15.5,10.9375 15.5,10.9375 0,0 -7.03282,-7.52417 -15.5,-10.9375 z" style="font-size:medium;font-style:normal;font-variant:normal;font-weight:normal;font-stretch:normal;text-indent:0;text-align:start;text-decoration:none;line-height:normal;letter-spacing:normal;word-spacing:normal;text-transform:none;direction:ltr;block-progression:tb;writing-mode:lr-tb;text-anchor:start;baseline-shift:baseline;color:#000000;fill:#776739;fill-opacity:1;stroke:none;stroke-width:1;marker:none;visibility:visible;display:inline;overflow:visible;enable-background:accumulate;font-family:Sans;-inkscape-font-specification:Sans"/>
        </g>
        <g id="g4146">
          <g id="g4060">
            <path style="color:#000000;fill:#c7a859;fill-opacity:1;stroke:none;stroke-width:1.00000011999999990;marker:none;visibility:visible;display:inline;overflow:visible;enable-background:accumulate" d="m 482.06216,289.875 c -13.31398,0 -24.1202,10.77565 -24.1202,24.08963 0,13.31397 10.80622,24.12019 24.1202,24.12019 13.31398,0 24.08963,-10.80622 24.08963,-24.12019 0,-13.31398 -10.77565,-24.08963 -24.08963,-24.08963 z m 0,11.76968 c 6.80479,0 12.31995,5.51516 12.31995,12.31995 0,6.80478 -5.51516,12.31994 -12.31995,12.31994 -6.80479,0 -12.31995,-5.51516 -12.31995,-12.31994 0,-6.80479 5.51516,-12.31995 12.31995,-12.31995 z" id="path3834" inkscape:connector-curvature="0"/>
            <path style="color:#000000;fill:#f7ecd1;fill-opacity:1;stroke:none;stroke-width:1.00000011999999990;marker:none;visibility:visible;display:inline;overflow:visible;enable-background:accumulate" d="m 482.0625,289.875 c -13.31398,0 -24.125,10.77977 -24.125,24.09375 0,13.31397 10.81102,24.125 24.125,24.125 l 2.34375,-1.5 c -12.18864,0 -23.53125,-9.90511 -23.53125,-22.09375 0,-12.18864 8.90511,-22.0625 22.09375,-22.0625 11.88733,0 21.41998,10.12631 23.1875,21.65625 0,-13.43898 -10.77977,-24.21875 -24.09375,-24.21875 z m -0.28125,5.03125 c -11.0311,0.52025 -18.375,9.02832 -18.375,19.4375 0,5.50844 2.61808,10.45769 6.625,14 -2.97682,-3.34785 -4.84375,-7.61199 -4.84375,-12.25 0,-10.76029 7.8558,-19.46875 19.5,-19.46875 4.61481,0 11.1385,4.24984 15.5625,10.875 -4.42921,-10.15991 -11.89017,-12.59375 -17.375,-12.59375 -0.36336,0 -0.73791,-0.0168 -1.09375,0 z m 8.21875,7.125 c 4.91958,2.36446 8.34375,7.36362 8.34375,13.1875 0,5.31541 -2.82868,9.9618 -7.0625,12.53125 l -0.125,3.53125 c 5.68717,-2.31256 9.6875,-7.91337 9.6875,-14.4375 0,-6.95639 -4.54601,-12.82209 -10.84375,-14.8125 z m 5.34375,13.5 c 0,0 -0.75255,6.372 -4.3125,8.40625 l 0,2.53125 c 0,0 6.85533,-3.56332 4.3125,-10.9375 z" id="path4063" inkscape:connector-curvature="0"/>
            <path style="color:#000000;fill:#776739;fill-opacity:1;stroke:none;stroke-width:1;marker:none;visibility:visible;display:inline;overflow:visible;enable-background:accumulate" d="m 491.78125,321.5 c -2.25359,2.90542 -5.75662,4.78125 -9.71875,4.78125 -2.09175,0 -4.05595,-0.51797 -5.78125,-1.4375 l 0,12.53125 c 1.85232,0.45621 3.78879,0.71875 5.78125,0.71875 3.47401,0 6.76797,-0.73846 9.75,-2.0625 l 0,-13.75 c 0,-0.25863 -0.007,-0.52925 -0.0312,-0.78125 z" id="path4093" inkscape:connector-curvature="0"/>
          </g>
          <g transform="translate(-0.007055,0)" id="g4116">
            <path style="color:#000000;fill:#c7a859;fill-opacity:1;stroke:none;stroke-width:1;marker:none;visibility:visible;display:inline;overflow:visible;enable-background:accumulate" d="m 474.29089,340.44592 0,-18.17303 c 0,-4.30339 3.46447,-7.76785 7.76786,-7.76785 4.30339,0 7.76786,3.46446 7.76786,7.76785 l 0,18.17303 z" id="rect3832" inkscape:connector-curvature="0" sodipodi:nodetypes="cssscc"/>
            <path inkscape:connector-curvature="0" style="color:#000000;fill:#f7ecd1;fill-opacity:1;stroke:none;stroke-width:1;marker:none;visibility:visible;display:inline;overflow:visible;enable-background:accumulate" d="m 482.0625,314.5 c -4.30339,0 -7.78125,3.47786 -7.78125,7.78125 l 0,18.15625 1.875,0 0,-16.78125 c 0,-1.68114 0.57397,-3.21453 1.53125,-4.4375 0.27342,2.71823 0.8125,6.375 0.8125,6.375 0,0 0.80537,-5.4702 0.9375,-8 0.33498,-0.21667 0.69167,-0.40363 1.0625,-0.5625 0.18839,2.85995 0.9375,8.5625 0.9375,8.5625 0,0 0.82272,-6.46433 0.9375,-9.0625 0.3048,-0.0394 0.62147,-0.0625 0.9375,-0.0625 0.0316,0 0.0623,-4.1e-4 0.0937,0 0.10698,2.55428 0.96875,9.125 0.96875,9.125 0,0 0.78709,-6.11176 0.9375,-8.84375 0.35048,0.10131 0.67401,0.25508 1,0.40625 0.0446,2.26407 0.96875,8.4375 0.96875,8.4375 0,0 0.78053,-4.67766 0.9375,-7.15625 0.47787,0.45246 0.9102,0.96434 1.25,1.53125 -0.98053,-3.1659 -3.9097,-5.46875 -7.4062,-5.46875 z" id="path4121"/>
          </g>
          <g transform="translate(-0.011875,0)" id="g3889">
            <path id="path3828" d="m 498.43718,365.99416 47.47717,-11.61675 0,-24.77937 -63.8556,0 -63.8556,0 0,24.77937 47.47717,11.61675 z" style="color:#000000;fill:#c7a859;fill-opacity:1;stroke:none;stroke-width:1;marker:none;visibility:visible;display:inline;overflow:visible;enable-background:accumulate" inkscape:connector-curvature="0" sodipodi:nodetypes="cccccccc"/>
            <path inkscape:connector-curvature="0" style="color:#000000;fill:#776739;fill-opacity:1;stroke:none;stroke-width:0.99999988;marker:none;visibility:visible;display:inline;overflow:visible;enable-background:accumulate" d="m 545.90625,348.03125 -48.5625,11.90625 -30.5625,0 -44.28125,-10.34375 0,2 44.28125,11.46875 30.5625,0 48.5625,-11.90625 0,-3.125 z" id="path3873"/>
            <path inkscape:connector-curvature="0" id="path3867" d="m 418.21875,329.59375 0,24.78125 0.5,0.125 c 1.91157,-0.74281 3.78125,-2.02912 3.78125,-4.21875 l 0,-11.46875 123.40625,0 0,-2.65625 -123.40625,0 0,-2.28125 123.40625,0 0,-4.28125 -63.84375,0 -63.84375,0 z" style="color:#000000;fill:#f7ecd1;fill-opacity:1;stroke:none;stroke-width:0.99999987999999995;marker:none;visibility:visible;display:inline;overflow:visible;enable-background:accumulate"/>
            <path inkscape:connector-curvature="0" style="color:#000000;fill:#776739;fill-opacity:1;stroke:none;stroke-width:1;marker:none;visibility:visible;display:inline;overflow:visible;enable-background:accumulate" d="m 435.75,329.59375 0,29.0625 17.15625,4.21875 0,-33.28125 -17.15625,0 z m 79.46875,0 0,30.28125 c 0,0.82111 0.0619,1.45282 0.1875,1.96875 l 16.96875,-4.15625 0,-28.09375 -17.15625,0 z" id="rect3823-1"/>
          </g>
          <g transform="translate(-0.011875,0)" id="g3897">
            <g id="g3999">
              <path sodipodi:nodetypes="ccszzzzsc" inkscape:connector-curvature="0" id="rect3823" d="m 434.75,325.95529 15.14286,0 c 0,0 1,0.68559 1,1.87219 0,7.3166 0,33.68141 0,35.82155 0,2.14014 -1.15862,2.71669 -3.08024,2.47795 -1.92162,-0.23873 -10.63785,-2.04131 -12.0621,-2.42294 -1.42425,-0.38163 -2.00052,-1.26509 -2.00052,-3.84308 0,-2.57799 0,-27.2376 0,-32.79633 0,-0.71085 1,-1.10934 1,-1.10934 z" style="color:#000000;fill:#c7a859;fill-opacity:1;stroke:none;stroke-width:1;marker:none;visibility:visible;display:inline;overflow:visible;enable-background:accumulate"/>
              <path inkscape:connector-curvature="0" id="path3924" d="m 434.75,325.96875 c 0,0 -1,0.3829 -1,1.09375 l 0,32.8125 c 0,1.13157 0.12997,1.88927 0.375,2.46875 0.88448,-0.39581 1.9375,-1.29356 1.9375,-3.46875 l 0,-29.0625 c 0,-0.60751 0.75,-0.9375 0.75,-0.9375 l 0.96875,0 0.96875,8.71875 0.96875,-8.71875 1,0 0.96875,8.71875 0.96875,-8.71875 0.96875,0 1,8.71875 0.96875,-8.71875 0.96875,0 0.96875,8.71875 0.96875,-8.71875 2.34375,-1.46875 c -0.19141,-0.92616 -0.9375,-1.4375 -0.9375,-1.4375 l -15.15625,0 z" style="color:#000000;fill:#f7ecd1;fill-opacity:1;stroke:none;stroke-width:0.99999987999999995;marker:none;visibility:visible;display:inline;overflow:visible;enable-background:accumulate"/>
              <path inkscape:connector-curvature="0" id="path3926" d="m 438.75,349.96875 c 0,0 -0.96875,4.16695 -0.96875,6.28125 0,2.1143 0.96875,6.28125 0.96875,6.28125 0,0 0.96875,-4.16695 0.96875,-6.28125 0,-2.1143 -0.96875,-6.28125 -0.96875,-6.28125 z m 2.9375,0 c 0,0 -0.96875,4.16695 -0.96875,6.28125 0,2.1143 0.96875,6.28125 0.96875,6.28125 0,0 0.96875,-4.16695 0.96875,-6.28125 0,-2.1143 -0.96875,-6.28125 -0.96875,-6.28125 z m 2.9375,0 c 0,0 -1,4.16695 -1,6.28125 0,2.1143 1,6.28125 1,6.28125 0,0 0.96875,-4.16695 0.96875,-6.28125 0,-2.1143 -0.96875,-6.28125 -0.96875,-6.28125 z m 2.90625,0 c 0,0 -0.96875,4.16695 -0.96875,6.28125 0,2.1143 0.96875,6.28125 0.96875,6.28125 0,0 0.96875,-4.16695 0.96875,-6.28125 0,-2.1143 -0.96875,-6.28125 -0.96875,-6.28125 z" style="color:#000000;fill:#776739;fill-opacity:1;stroke:none;stroke-width:0.99999988;marker:none;visibility:visible;display:inline;overflow:visible;enable-background:accumulate"/>
            </g>
            <g id="g4004" transform="translate(79.47464,0)">
              <path style="color:#000000;fill:#c7a859;fill-opacity:1;stroke:none;stroke-width:1;marker:none;visibility:visible;display:inline;overflow:visible;enable-background:accumulate" d="m 449.89286,325.95529 -15.14286,0 c 0,0 -1,0.68559 -1,1.87219 0,7.3166 0,33.68141 0,35.82155 0,2.14014 1.15862,2.71669 3.08024,2.47795 1.92162,-0.23873 10.63785,-2.04131 12.0621,-2.42294 1.42425,-0.38163 2.00052,-1.26509 2.00052,-3.84308 0,-2.57799 0,-27.2376 0,-32.79633 0,-0.71085 -1,-1.10934 -1,-1.10934 z" id="path4006" inkscape:connector-curvature="0" sodipodi:nodetypes="ccszzzzsc"/>
              <path style="color:#000000;fill:#f7ecd1;fill-opacity:1;stroke:none;stroke-width:0.99999987999999995;marker:none;visibility:visible;display:inline;overflow:visible;enable-background:accumulate" d="m 434.77456,325.96875 c 0,0 -1,0.3829 -1,1.09375 l 0,35.50957 c 0,1.13157 0.12997,1.88927 0.375,2.46875 0.88448,-0.39581 1.9375,-1.29356 1.9375,-3.46875 l 0,-31.75957 c 0,-0.60751 0.75,-0.9375 0.75,-0.9375 l 0.96875,0 0.96875,8.71875 0.96875,-8.71875 1,0 0.96875,8.71875 0.96875,-8.71875 0.96875,0 1,8.71875 0.96875,-8.71875 0.96875,0 0.96875,8.71875 0.96875,-8.71875 2.34375,-1.46875 c 0,-1.08553 -0.9375,-1.4375 -0.9375,-1.4375 z" id="path4008" inkscape:connector-curvature="0" sodipodi:nodetypes="csscsscccccccccccccccc"/>
              <path style="color:#000000;fill:#776739;fill-opacity:1;stroke:none;stroke-width:0.99999988;marker:none;visibility:visible;display:inline;overflow:visible;enable-background:accumulate" d="m 438.75,349.96875 c 0,0 -0.96875,4.16695 -0.96875,6.28125 0,2.1143 0.96875,6.28125 0.96875,6.28125 0,0 0.96875,-4.16695 0.96875,-6.28125 0,-2.1143 -0.96875,-6.28125 -0.96875,-6.28125 z m 2.9375,0 c 0,0 -0.96875,4.16695 -0.96875,6.28125 0,2.1143 0.96875,6.28125 0.96875,6.28125 0,0 0.96875,-4.16695 0.96875,-6.28125 0,-2.1143 -0.96875,-6.28125 -0.96875,-6.28125 z m 2.9375,0 c 0,0 -1,4.16695 -1,6.28125 0,2.1143 1,6.28125 1,6.28125 0,0 0.96875,-4.16695 0.96875,-6.28125 0,-2.1143 -0.96875,-6.28125 -0.96875,-6.28125 z m 2.90625,0 c 0,0 -0.96875,4.16695 -0.96875,6.28125 0,2.1143 0.96875,6.28125 0.96875,6.28125 0,0 0.96875,-4.16695 0.96875,-6.28125 0,-2.1143 -0.96875,-6.28125 -0.96875,-6.28125 z" id="path4010" inkscape:connector-curvature="0"/>
            </g>
          </g>
        </g>
      </g>
      <use height="1052.3622" width="744.09448" transform="translate(-278.31145,291.73315)" id="use3848" xlink:href="#g3840" y="0" x="0"/>
    </g>
  </g>
</svg>