<?xml version="1.0" encoding="UTF-8" standalone="no"?>
<svg
   xmlns:dc="http://purl.org/dc/elements/1.1/"
   xmlns:cc="http://creativecommons.org/ns#"
   xmlns:rdf="http://www.w3.org/1999/02/22-rdf-syntax-ns#"
   xmlns:svg="http://www.w3.org/2000/svg"
   xmlns="http://www.w3.org/2000/svg"
   width="499.99997"
   height="540"
   viewBox="0 0 132.29166 142.875"
   version="1.1"
   id="svg847">
  <defs
     id="defs841" />
  <metadata
     id="metadata844">
    <rdf:RDF>
      <cc:Work
         rdf:about="">
        <dc:format>image/svg+xml</dc:format>
        <dc:type
           rdf:resource="http://purl.org/dc/dcmitype/StillImage" />
        <dc:title></dc:title>
      </cc:Work>
    </rdf:RDF>
  </metadata>
  <path
     id="path864"
     style="fill:#c7c7c7;fill-opacity:1;fill-rule:evenodd;stroke:none;stroke-width:0.0661459;stroke-miterlimit:5"
     d="m 88.287612,0 c -8.08461,14.294617 -4.29717,112.12676 0.39463,138.94457 25.435358,-9.19218 43.609418,-33.49734 43.609418,-62.038385 V 0 Z" />
  <path
     id="path844"
     style="fill:#045cd2;fill-opacity:1;fill-rule:evenodd;stroke:none;stroke-width:0.0661459;stroke-miterlimit:5"
     d="M 0,0 V 76.906185 C -1.9999999e-6,113.33997 29.61467,142.875 66.146077,142.875 c 7.913895,0 15.502275,-1.38841 22.536165,-3.93042 1.61211,-5.70543 7.74287,-6.75246 7.74287,-14.34027 1e-5,-8.86226 -8.17539,-8.79644 -8.17539,-17.65871 0,-8.862285 8.17537,-8.796455 8.17539,-17.658715 0,-8.86229 -8.17539,-8.79644 -8.17539,-17.65872 0,-8.86227 8.17539,-8.79644 8.17539,-17.65872 0,-8.862269 -8.17539,-8.796444 -8.17539,-17.658728 10e-6,-8.862262 8.17539,-8.796437 8.17539,-17.658717 0,-8.862271 -8.17539,-8.796447 -8.17539,-17.65872 0,-0.345773 0.0155,-0.673629 0.0379,-0.99328 z" />
  <path
     id="path1066"
     style="font-variation-settings:normal;vector-effect:none;fill:#c7c7c7;fill-opacity:1;stroke:none;stroke-width:0.132292;stroke-linecap:butt;stroke-linejoin:miter;stroke-miterlimit:5;stroke-dasharray:none;stroke-dashoffset:0;stroke-opacity:1;stop-color:#000000"
     d="m 38.330034,15.887458 c -1.861002,0.04759 -2.5769,1.189621 -4.247028,1.332391 -1.670131,0.14277 -5.392269,0.237977 -6.155755,0.09521 -0.763488,-0.142771 -0.921937,-0.0525 -0.992319,0.423407 -0.07038,0.475908 -0.0095,0.956587 -0.0095,0.956587 -1.002076,2.284345 0.525037,3.807254 0.525037,3.807254 -0.04772,-1.189762 0.572273,-2.094039 0.572273,-2.094039 -0.143154,1.380125 0.811417,2.189243 0.811417,2.189243 1.049796,-2.474705 2.051765,-2.76034 3.340151,-2.236845 1.288385,0.523495 3.96067,2.379717 4.056107,2.617669 0.09544,0.237951 0,0.951568 0,0.951568 -0.524898,-0.333134 -2.337954,-1.141956 -4.771573,-1.046774 -2.433618,0.09519 -3.435878,0.761254 -6.346676,1.141979 -2.910801,0.380724 -4.39016,-0.903873 -4.151569,-2.426767 0.23859,-1.522896 1.670076,-2.332052 1.670076,-2.332052 -0.550029,-0.219425 -1.593174,-0.245712 -2.481002,0.903966 -0.920749,1.192307 -0.715958,2.427256 -0.715958,2.427256 0,0 -1.335975,-0.285512 -1.38369,-1.760817 -0.04772,-1.475303 0.667734,-2.379654 0.667734,-2.379654 -0.563779,0.112454 -1.508406,0.539252 -1.860996,1.951228 -0.41497,1.66178 0.537842,3.203547 2.338301,3.759648 1.800459,0.556102 1.68359,1.631044 4.199298,1.760817 2.515707,0.129776 4.533313,-1.237259 7.92129,-1.5228 3.387979,-0.285546 5.105686,1.142468 5.105686,1.142468 -1.908721,0.571085 -3.960645,2.045945 -3.960645,2.045945 -1.109397,-0.449843 -1.254551,-1.102041 -1.28823,-2.379165 -1.097513,0.428316 -0.906879,1.808421 -0.906879,1.808421 -0.668055,-0.428316 -1.033834,-1.570406 -1.033834,-1.570406 -1.064857,1.190102 -0.966493,3.09484 -0.143191,3.997173 0,0 -0.441006,0.870251 -0.334113,1.190073 0.106892,0.31982 0.811417,0.618345 0.811417,0.618345 0,0 1.448574,-1.282822 4.822747,-1.753944 3.374173,-0.471122 4.431873,0.610111 7.228954,-0.759684 3.001236,-1.469777 3.581755,-2.421581 8.49455,-3.41318 4.912795,-0.9916 11.405053,-0.269072 13.834458,2.221144 2.429402,2.490213 1.992587,7.141179 -5.736517,8.278489 -7.729101,1.137313 -17.208135,-0.6731 -25.643568,-1.346132 -8.43543,-0.67303 -13.738762,0.758424 -16.803096,4.105631 -3.064337,3.347205 -5.196298,8.21056 -2.294509,15.008164 2.901786,6.79761 7.760598,9.22064 15.588676,9.28797 7.828077,0.0673 13.428923,-0.80741 20.582171,-2.55731 7.153244,-1.74987 13.333815,-1.68292 16.370569,-0.13495 3.036748,1.54798 3.537049,5.46795 -0.781892,7.47072 -4.434654,2.05641 -11.134837,1.3464 -20.717491,-0.33617 -9.582648,-1.68257 -14.036205,-2.42327 -20.649583,-1.54832 -6.613375,0.87493 -11.151145,4.82303 -12.635781,9.13043 -1.484637,4.30739 -1.76517,9.8811 2.36192,14.78536 4.058634,4.8229 10.678764,7.64962 21.61108,5.96705 10.932317,-1.68258 16.185493,-3.19139 23.141902,-3.55108 6.956409,-0.35968 10.952764,2.43141 10.802344,4.82948 -0.150422,2.39809 -2.219659,5.324715 -9.17803,4.509525 -7.099654,-0.83174 -13.354413,-2.676835 -19.828325,-2.597055 -6.473913,0.0797 -11.237263,1.559775 -14.020459,4.560555 -2.705197,2.91666 -3.938908,6.90445 -2.864812,10.69838 1.074098,3.79392 4.246728,4.5689 6.871221,6.47252 2.624488,1.90362 3.245181,5.61568 3.245181,5.61568 0,0 2.207971,-2.30626 1.155864,-5.47875 -1.061264,-3.2001 -3.73775,-4.89479 -2.834304,-7.74014 1.076396,-3.39005 4.951336,-5.05591 13.969283,-4.37456 8.907816,0.67304 16.866227,4.61398 24.698801,2.28837 7.832585,-2.3256 10.942675,-9.37335 10.595185,-14.335835 -0.37045,-5.29035 -2.22703,-11.50875 -8.907889,-13.72975 -6.680862,-2.22104 -14.078803,-1.63821 -24.673704,0.31359 -10.5949,1.95182 -12.912744,2.01879 -17.694229,2.01404 -4.279594,-0.004 -7.930098,-2.81611 -6.152805,-5.60929 2.230329,-3.50516 9.098456,-2.84286 17.466402,-1.96791 8.367949,0.87495 16.815331,1.34621 24.913342,0.80778 8.098013,-0.53842 12.984483,-6.0162 13.890063,-11.82221 0.90558,-5.80602 -0.12358,-10.7244 -4.77994,-14.02224 -4.656349,-3.29787 -9.852441,-4.24011 -18.085421,-3.76898 -8.23298,0.47111 -14.441738,2.01922 -19.570479,2.69226 -5.128743,0.67303 -8.97516,0.67275 -10.999662,-0.20219 -2.024502,-0.87494 -3.441445,-4.105627 0.270146,-5.990116 3.711589,-1.884487 7.719333,-0.66996 12.393684,-0.0952 4.674355,0.574746 17.163854,2.114429 23.237364,0.902984 6.073478,-1.211456 11.134888,-5.182338 13.091898,-11.30692 1.95702,-6.124582 0.60721,-10.701122 -3.171863,-14.200882 C 68.400236,17.07634 63.001702,15.864954 56.455806,16.268772 49.909912,16.67259 46.108029,17.410198 43.817563,17.172245 41.5271,16.934295 40.191036,15.83987 38.330034,15.887458 Z m -0.366096,2.506269 c -0.106742,0.687767 -0.07174,1.304858 0,1.903624 -1.342546,-0.28382 -2.147393,-0.876978 -2.671923,-1.570404 0,0 0.381457,-0.33322 2.671923,-0.33322 z m 1.335469,0.02158 c 1.544887,0.04981 2.529713,0.16882 2.529713,0.16882 -0.490694,0.489384 -1.420775,1.310847 -2.527255,1.624388 -0.08211,-0.516629 -0.09995,-1.097443 -0.0025,-1.793208 z" />
</svg>
