<?xml version="1.0" encoding="UTF-8" standalone="no"?>
<!-- Created with Inkscape (http://www.inkscape.org/) -->

<svg
   width="500"
   height="565"
   viewBox="0 0 132.29166 149.48957"
   version="1.1"
   id="svg5"
   xml:space="preserve"
   xmlns="http://www.w3.org/2000/svg"
   xmlns:svg="http://www.w3.org/2000/svg"><defs
     id="defs2" /><path
     id="path905"
     style="fill:#cccccc;stroke:none;stroke-width:0.264583;stroke-miterlimit:10;stop-color:#000000"
     d="m 0,0 v 83.34374 c -3.9999996e-6,36.53134 29.614484,66.14583 66.145823,66.14583 36.531347,0 66.145837,-29.61449 66.145837,-66.14583 V 0 Z" /><path
     id="path1115"
     style="fill:#000000;stroke:none;stroke-width:0.264583;stroke-miterlimit:10;stroke-dasharray:none;paint-order:normal;stop-color:#000000"
     d="M 65.889953,21.162161 A 48.891119,48.891119 0 0 0 16.998972,70.05314 48.891119,48.891119 0 0 0 65.889953,118.94443 48.891119,48.891119 0 0 0 114.78092,70.05313 48.891119,48.891119 0 0 0 65.889953,21.162161 Z m 0,15.478659 A 33.412536,33.412536 0 0 1 99.302593,70.05314 33.412536,33.412536 0 0 1 65.889953,103.46578 33.412536,33.412536 0 0 1 32.477307,70.05314 33.412536,33.412536 0 0 1 65.889953,36.64082 Z" /><circle
     style="fill:#000000;stroke:none;stroke-width:0.264582;stroke-miterlimit:10;stroke-dasharray:none;paint-order:normal;stop-color:#000000"
     id="circle1123"
     cx="65.889946"
     cy="70.053192"
     r="13.521959" /><path
     id="circle1125"
     style="fill:#cccccc;stroke:none;stroke-width:0.264582;stroke-miterlimit:10;stroke-dasharray:none;paint-order:normal;stop-color:#000000"
     d="m 65.889953,62.19924 c -4.33756,6e-5 -7.85384,3.51634 -7.85389,7.8539 4e-5,4.33755 3.51632,7.85383 7.85389,7.8539 4.33756,-7e-5 7.85384,-3.51635 7.85389,-7.8539 -6e-5,-4.33756 -3.51633,-7.85384 -7.85389,-7.8539 z m 0,1.20431 c 3.67254,-7e-5 6.64979,2.97705 6.64991,6.64959 6e-5,3.67266 -2.97724,6.64998 -6.64991,6.64992 -3.67268,6e-5 -6.64998,-2.97726 -6.64992,-6.64992 1.2e-4,-3.67254 2.97737,-6.64966 6.64992,-6.64959 z" /><g
     id="g1306"
     transform="matrix(0.62361873,0,0,0.62361873,2.995773,-19.122512)"
     style="stroke-width:1.60354"><path
       style="font-variation-settings:normal;vector-effect:none;fill:#000000;fill-opacity:1;stroke:none;stroke-width:0.42427;stroke-linecap:butt;stroke-linejoin:miter;stroke-miterlimit:4;stroke-dasharray:none;stroke-dashoffset:0;stroke-opacity:1;-inkscape-stroke:none;stop-color:#000000"
       d="m 115.33752,91.413569 c -3.70866,-0.900166 -9.21811,0.427464 -9.21811,7.013821 v 24.14998 H 95.587696 V 98.42739 c 0,-6.586357 -5.509452,-7.913987 -9.218107,-7.013821 l -0.166353,-7.000717 h 14.650314 14.65032 z"
       id="path1299" /><path
       style="font-variation-settings:normal;vector-effect:none;fill:#e90606;fill-opacity:1;stroke:none;stroke-width:0.42427;stroke-linecap:butt;stroke-linejoin:miter;stroke-miterlimit:4;stroke-dasharray:none;stroke-dashoffset:0;stroke-opacity:1;-inkscape-stroke:none;stop-color:#000000"
       d="m 91.527839,73.925711 c 1.397092,-3.042452 2.615551,-7.913559 0.683683,-11.996091 -1.931868,-4.082531 -3.884794,-8.753523 1.041684,-13.19937 4.926479,-4.445846 7.657244,-7.909457 5.152772,-12.695321 2.963482,0.395131 9.798602,4.039564 11.332002,10.007285 1.53341,5.967721 -2.58165,8.189501 -1.99151,11.936832 0.59015,3.747331 2.65109,4.359549 3.14067,8.135149 0.48957,3.7756 -1.92792,7.658043 -1.92792,7.658043 z"
       id="path4692" /></g><g
     id="use1332"
     transform="matrix(0.38881985,0.48756481,-0.48756481,0.38881985,96.396463,-34.719576)"
     style="stroke-width:1.60354"><path
       style="font-variation-settings:normal;vector-effect:none;fill:#000000;fill-opacity:1;stroke:none;stroke-width:0.42427;stroke-linecap:butt;stroke-linejoin:miter;stroke-miterlimit:4;stroke-dasharray:none;stroke-dashoffset:0;stroke-opacity:1;-inkscape-stroke:none;stop-color:#000000"
       d="m 115.33752,91.413569 c -3.70866,-0.900166 -9.21811,0.427464 -9.21811,7.013821 v 24.14998 H 95.587696 V 98.42739 c 0,-6.586357 -5.509452,-7.913987 -9.218107,-7.013821 l -0.166353,-7.000717 h 14.650314 14.65032 z"
       id="path4841" /><path
       style="font-variation-settings:normal;vector-effect:none;fill:#e90606;fill-opacity:1;stroke:none;stroke-width:0.42427;stroke-linecap:butt;stroke-linejoin:miter;stroke-miterlimit:4;stroke-dasharray:none;stroke-dashoffset:0;stroke-opacity:1;-inkscape-stroke:none;stop-color:#000000"
       d="m 91.527839,73.925711 c 1.397092,-3.042452 2.615551,-7.913559 0.683683,-11.996091 -1.931868,-4.082531 -3.884794,-8.753523 1.041684,-13.19937 4.926479,-4.445846 7.657244,-7.909457 5.152772,-12.695321 2.963482,0.395131 9.798602,4.039564 11.332002,10.007285 1.53341,5.967721 -2.58165,8.189501 -1.99151,11.936832 0.59015,3.747331 2.65109,4.359549 3.14067,8.135149 0.48957,3.7756 -1.92792,7.658043 -1.92792,7.658043 z"
       id="path4843" /></g><g
     id="use2115"
     transform="matrix(-0.1387683,0.60798329,-0.60798329,-0.1387683,166.82509,28.579396)"
     style="stroke-width:1.60354"><path
       style="font-variation-settings:normal;vector-effect:none;fill:#000000;fill-opacity:1;stroke:none;stroke-width:0.42427;stroke-linecap:butt;stroke-linejoin:miter;stroke-miterlimit:4;stroke-dasharray:none;stroke-dashoffset:0;stroke-opacity:1;-inkscape-stroke:none;stop-color:#000000"
       d="m 115.33752,91.413569 c -3.70866,-0.900166 -9.21811,0.427464 -9.21811,7.013821 v 24.14998 H 95.587696 V 98.42739 c 0,-6.586357 -5.509452,-7.913987 -9.218107,-7.013821 l -0.166353,-7.000717 h 14.650314 14.65032 z"
       id="path4835" /><path
       style="font-variation-settings:normal;vector-effect:none;fill:#e90606;fill-opacity:1;stroke:none;stroke-width:0.42427;stroke-linecap:butt;stroke-linejoin:miter;stroke-miterlimit:4;stroke-dasharray:none;stroke-dashoffset:0;stroke-opacity:1;-inkscape-stroke:none;stop-color:#000000"
       d="m 91.527839,73.925711 c 1.397092,-3.042452 2.615551,-7.913559 0.683683,-11.996091 -1.931868,-4.082531 -3.884794,-8.753523 1.041684,-13.19937 4.926479,-4.445846 7.657244,-7.909457 5.152772,-12.695321 2.963482,0.395131 9.798602,4.039564 11.332002,10.007285 1.53341,5.967721 -2.58165,8.189501 -1.99151,11.936832 0.59015,3.747331 2.65109,4.359549 3.14067,8.135149 0.48957,3.7756 -1.92792,7.658043 -1.92792,7.658043 z"
       id="path4837" /></g><g
     id="use2117"
     transform="matrix(-0.56186104,0.27057807,-0.27057807,-0.56186104,161.2475,123.10896)"
     style="stroke-width:1.60354"><path
       style="font-variation-settings:normal;vector-effect:none;fill:#000000;fill-opacity:1;stroke:none;stroke-width:0.42427;stroke-linecap:butt;stroke-linejoin:miter;stroke-miterlimit:4;stroke-dasharray:none;stroke-dashoffset:0;stroke-opacity:1;-inkscape-stroke:none;stop-color:#000000"
       d="m 115.33752,91.413569 c -3.70866,-0.900166 -9.21811,0.427464 -9.21811,7.013821 v 24.14998 H 95.587696 V 98.42739 c 0,-6.586357 -5.509452,-7.913987 -9.218107,-7.013821 l -0.166353,-7.000717 h 14.650314 14.65032 z"
       id="path4829" /><path
       style="font-variation-settings:normal;vector-effect:none;fill:#e90606;fill-opacity:1;stroke:none;stroke-width:0.42427;stroke-linecap:butt;stroke-linejoin:miter;stroke-miterlimit:4;stroke-dasharray:none;stroke-dashoffset:0;stroke-opacity:1;-inkscape-stroke:none;stop-color:#000000"
       d="m 91.527839,73.925711 c 1.397092,-3.042452 2.615551,-7.913559 0.683683,-11.996091 -1.931868,-4.082531 -3.884794,-8.753523 1.041684,-13.19937 4.926479,-4.445846 7.657244,-7.909457 5.152772,-12.695321 2.963482,0.395131 9.798602,4.039564 11.332002,10.007285 1.53341,5.967721 -2.58165,8.189501 -1.99151,11.936832 0.59015,3.747331 2.65109,4.359549 3.14067,8.135149 0.48957,3.7756 -1.92792,7.658043 -1.92792,7.658043 z"
       id="path4831" /></g><g
     id="use2119"
     transform="matrix(-0.56186109,-0.27057797,0.27057797,-0.56186109,83.86373,177.68648)"
     style="stroke-width:1.60354"><path
       style="font-variation-settings:normal;vector-effect:none;fill:#000000;fill-opacity:1;stroke:none;stroke-width:0.42427;stroke-linecap:butt;stroke-linejoin:miter;stroke-miterlimit:4;stroke-dasharray:none;stroke-dashoffset:0;stroke-opacity:1;-inkscape-stroke:none;stop-color:#000000"
       d="m 115.33752,91.413569 c -3.70866,-0.900166 -9.21811,0.427464 -9.21811,7.013821 v 24.14998 H 95.587696 V 98.42739 c 0,-6.586357 -5.509452,-7.913987 -9.218107,-7.013821 l -0.166353,-7.000717 h 14.650314 14.65032 z"
       id="path4823" /><path
       style="font-variation-settings:normal;vector-effect:none;fill:#e90606;fill-opacity:1;stroke:none;stroke-width:0.42427;stroke-linecap:butt;stroke-linejoin:miter;stroke-miterlimit:4;stroke-dasharray:none;stroke-dashoffset:0;stroke-opacity:1;-inkscape-stroke:none;stop-color:#000000"
       d="m 91.527839,73.925711 c 1.397092,-3.042452 2.615551,-7.913559 0.683683,-11.996091 -1.931868,-4.082531 -3.884794,-8.753523 1.041684,-13.19937 4.926479,-4.445846 7.657244,-7.909457 5.152772,-12.695321 2.963482,0.395131 9.798602,4.039564 11.332002,10.007285 1.53341,5.967721 -2.58165,8.189501 -1.99151,11.936832 0.59015,3.747331 2.65109,4.359549 3.14067,8.135149 0.48957,3.7756 -1.92792,7.658043 -1.92792,7.658043 z"
       id="path4825" /></g><g
     id="use2270"
     transform="matrix(-0.1387683,-0.60798329,0.60798329,-0.1387683,-7.0546706,151.21393)"
     style="stroke-width:1.60354"><path
       style="font-variation-settings:normal;vector-effect:none;fill:#000000;fill-opacity:1;stroke:none;stroke-width:0.42427;stroke-linecap:butt;stroke-linejoin:miter;stroke-miterlimit:4;stroke-dasharray:none;stroke-dashoffset:0;stroke-opacity:1;-inkscape-stroke:none;stop-color:#000000"
       d="m 115.33752,91.413569 c -3.70866,-0.900166 -9.21811,0.427464 -9.21811,7.013821 v 24.14998 H 95.587696 V 98.42739 c 0,-6.586357 -5.509452,-7.913987 -9.218107,-7.013821 l -0.166353,-7.000717 h 14.650314 14.65032 z"
       id="path4817" /><path
       style="font-variation-settings:normal;vector-effect:none;fill:#e90606;fill-opacity:1;stroke:none;stroke-width:0.42427;stroke-linecap:butt;stroke-linejoin:miter;stroke-miterlimit:4;stroke-dasharray:none;stroke-dashoffset:0;stroke-opacity:1;-inkscape-stroke:none;stop-color:#000000"
       d="m 91.527839,73.925711 c 1.397092,-3.042452 2.615551,-7.913559 0.683683,-11.996091 -1.931868,-4.082531 -3.884794,-8.753523 1.041684,-13.19937 4.926479,-4.445846 7.657244,-7.909457 5.152772,-12.695321 2.963482,0.395131 9.798602,4.039564 11.332002,10.007285 1.53341,5.967721 -2.58165,8.189501 -1.99151,11.936832 0.59015,3.747331 2.65109,4.359549 3.14067,8.135149 0.48957,3.7756 -1.92792,7.658043 -1.92792,7.658043 z"
       id="path4819" /></g><g
     id="use2272"
     transform="matrix(0.3888199,-0.48756477,0.48756477,0.3888199,-43.044307,63.625687)"
     style="stroke-width:1.60354"><path
       style="font-variation-settings:normal;vector-effect:none;fill:#000000;fill-opacity:1;stroke:none;stroke-width:0.42427;stroke-linecap:butt;stroke-linejoin:miter;stroke-miterlimit:4;stroke-dasharray:none;stroke-dashoffset:0;stroke-opacity:1;-inkscape-stroke:none;stop-color:#000000"
       d="m 115.33752,91.413569 c -3.70866,-0.900166 -9.21811,0.427464 -9.21811,7.013821 v 24.14998 H 95.587696 V 98.42739 c 0,-6.586357 -5.509452,-7.913987 -9.218107,-7.013821 l -0.166353,-7.000717 h 14.650314 14.65032 z"
       id="path4811" /><path
       style="font-variation-settings:normal;vector-effect:none;fill:#e90606;fill-opacity:1;stroke:none;stroke-width:0.42427;stroke-linecap:butt;stroke-linejoin:miter;stroke-miterlimit:4;stroke-dasharray:none;stroke-dashoffset:0;stroke-opacity:1;-inkscape-stroke:none;stop-color:#000000"
       d="m 91.527839,73.925711 c 1.397092,-3.042452 2.615551,-7.913559 0.683683,-11.996091 -1.931868,-4.082531 -3.884794,-8.753523 1.041684,-13.19937 4.926479,-4.445846 7.657244,-7.909457 5.152772,-12.695321 2.963482,0.395131 9.798602,4.039564 11.332002,10.007285 1.53341,5.967721 -2.58165,8.189501 -1.99151,11.936832 0.59015,3.747331 2.65109,4.359549 3.14067,8.135149 0.48957,3.7756 -1.92792,7.658043 -1.92792,7.658043 z"
       id="path4813" /></g><path
     id="circle1117"
     style="fill:#cccccc;stroke:none;stroke-width:0.264582;stroke-miterlimit:10;stroke-dasharray:none;paint-order:normal;stop-color:#000000"
     d="M 65.889953,26.26811 A 43.785231,43.785231 0 0 0 22.104599,70.05313 43.785231,43.785231 0 0 0 65.889953,113.83848 43.785231,43.785231 0 0 0 109.67529,70.05313 43.785231,43.785231 0 0 0 65.889953,26.26811 Z m 0,1.15274 A 42.632437,42.632437 0 0 1 108.52224,70.05313 42.632437,42.632437 0 0 1 65.889953,112.68575 42.632437,42.632437 0 0 1 23.257659,70.05313 42.632437,42.632437 0 0 1 65.889953,27.42085 Z" /></svg>
