<?xml version="1.0" encoding="UTF-8" standalone="no"?>
<!-- Created with Inkscape (http://www.inkscape.org/) -->
<svg xmlns:dc="http://purl.org/dc/elements/1.1/" xmlns:cc="http://creativecommons.org/ns#" xmlns:rdf="http://www.w3.org/1999/02/22-rdf-syntax-ns#" xmlns:svg="http://www.w3.org/2000/svg" xmlns="http://www.w3.org/2000/svg" xmlns:sodipodi="http://sodipodi.sourceforge.net/DTD/sodipodi-0.dtd" xmlns:inkscape="http://www.inkscape.org/namespaces/inkscape" width="561.37506" height="611.9281" id="svg2" version="1.1" inkscape:version="0.48.5 r10040" sodipodi:docname="svg.svg">
  <defs id="defs4"/>
  <sodipodi:namedview id="base" pagecolor="#f6f3f1" bordercolor="#666666" borderopacity="1.0" inkscape:pageopacity="0" inkscape:pageshadow="2" inkscape:zoom="0.49497475" inkscape:cx="587.34939" inkscape:cy="518.43801" inkscape:document-units="px" inkscape:current-layer="layer1" showgrid="false" showborder="true" inkscape:window-width="1920" inkscape:window-height="1017" inkscape:window-x="-8" inkscape:window-y="-8" inkscape:window-maximized="1" showguides="true" inkscape:guide-bbox="true" inkscape:object-nodes="false" fit-margin-top="0" fit-margin-left="0" fit-margin-right="0" fit-margin-bottom="0" inkscape:showpageshadow="false"/>
  <metadata id="metadata7">
    <rdf:RDF>
      <cc:Work rdf:about="">
        <dc:format>image/svg+xml</dc:format>
        <dc:type rdf:resource="http://purl.org/dc/dcmitype/StillImage"/>
        <dc:title/>
      </cc:Work>
    </rdf:RDF>
  </metadata>
  <g inkscape:label="Layer 1" inkscape:groupmode="layer" id="layer1" transform="translate(-87.142857,-149.00504)">
    <path style="color:#000000;fill:#d72d2d;fill-opacity:1;stroke:none;stroke-width:1;marker:none;visibility:visible;display:inline;overflow:visible;enable-background:accumulate" d="m 87.142857,149.00504 c 0,0 7.567108,277.64136 9.831787,333.12603 2.264679,55.48467 6.038366,101.6419 46.782716,162.25678 40.74435,60.61488 118.7823,116.54532 224.07304,116.54532 105.29073,0 183.32868,-55.93044 224.07303,-116.54532 40.74435,-60.61488 44.51803,-106.77211 46.78271,-162.25678 2.26468,-55.48467 9.83179,-333.12603 9.83179,-333.12603 z" id="path3761" inkscape:connector-curvature="0" sodipodi:nodetypes="czzzzzcc"/>
    <g id="g3992">
      <g id="g3854">
        <path sodipodi:nodetypes="cccccscscccscscccscccccscccsccsssscsscsscscscccc" inkscape:connector-curvature="0" id="path3852" d="m 388.65625,600.6875 -4.62976,11.5644 -1.08006,-0.96115 L 373.125,601.0625 365.9375,617 c 0,0 3.78125,2.6388 3.78125,10.59375 0,7.95495 -2.28125,66.28125 -2.28125,66.28125 0,0 -14.00158,-6.79965 -20.0625,-17.40625 -6.06091,-10.6066 -15.14562,-10.62041 -19.3125,-7.96875 0,0 -10.62975,-8.70717 -28.8125,5.6875 0,0 14.41545,1.90324 19.71875,5.3125 0,0 -1.91989,10.21114 5.65625,10.96875 7.57615,0.75762 11,4.5625 11,4.5625 0,0 -7.72494,0.41035 -17.4375,-3.8125 -9.71257,-4.22285 -14.02062,-2.65165 -18.1875,0 0,0 -17.77903,-4.90531 -24.21875,13.65625 0,0 9.8309,-2.64784 20.4375,-0.375 0,0 -0.88404,8.50989 8.34375,10.21875 9.2278,1.70884 14.40625,-3.40625 14.40625,-3.40625 0,0 4.90324,3.03125 8.3125,3.03125 0,0 -6.03966,1.14181 -8.3125,5.6875 0,0 -21.23319,4.91481 -16.6875,22.71875 0,0 7.96732,-6.42989 17.4375,-7.1875 0,0 1.88119,5.28125 10.59375,5.28125 8.71257,0 12.125,-9.84375 12.125,-9.84375 0,0 11.37278,5.31393 17.8125,-4.15625 0,0 12.11897,6.80171 18.9375,-4.5625 0,0 1.8796,-1.1242 4.53125,1.90625 2.65165,3.03046 10.99699,3.01824 14.40625,-1.90625 0,0 6.81868,6.46716 15.53125,0.40625 0,0 12.13721,5.6653 14.03125,-4.5625 1.89403,-10.22779 1.89467,-22.33915 -12.5,-19.6875 -14.39468,2.65165 -23.8796,3.39547 -26.53125,-7.96875 -2.65165,-11.36421 -0.38706,-24.61358 13.25,-25.75 13.63706,-1.13642 29.9459,-0.37515 32.21875,-15.90625 0,0 -27.04885,4.66307 -35.625,0.375 -8.57614,-4.28807 -10.33572,-12.6065 -3.13839,-25.10714 7.19734,-12.50064 8.06812,-19.9836 -6.70536,-23.39286 z m 4.46875,4.65625 c 4.42017,-0.12451 6.14063,5.21875 3.5625,7.09375 -2.94643,2.14285 -3.46875,6.4375 -3.46875,6.4375 0,0 -2.42411,-1.86161 -0.28125,-5.34375 2.14286,-3.48215 -1.875,-7.78125 -1.875,-7.78125 0.73661,-0.26786 1.43105,-0.38846 2.0625,-0.40625 z m 37.0625,98.4375 c 0,0 2.14286,6.69196 1.875,13.65625 0,0 13.9241,-1.58036 19.28125,4.3125 0,0 0.54018,-18.23661 -21.15625,-17.96875 z" style="color:#000000;fill:#c2a854;fill-opacity:1;stroke:none;stroke-width:1;marker:none;visibility:visible;display:inline;overflow:visible;enable-background:accumulate"/>
        <path sodipodi:nodetypes="sccscsccscscccccsccccccsccccccscscccccsccccccscccccccccsccccsccccccccscccccccccccccccccccccccccccccccccscscccccscccccccscccccccccc" inkscape:connector-curvature="0" id="path3860" d="m 388.6875,613.03125 c -1.38723,0.0721 -3.44122,0.63908 -4.625,3.125 -2.34699,5.82705 4.98317,4.32628 1.3125,11.1875 0,0 5.11469,-2.45622 3.03125,-6.8125 -2.08344,-4.35628 1.6875,-7.40625 1.6875,-7.40625 0,0 -0.57391,-0.13703 -1.40625,-0.0937 z M 367.12214,614.4053 365.9375,617 c 0,0 3.78125,2.6388 3.78125,10.59375 0,7.95495 -2.28125,66.28125 -2.28125,66.28125 0,0 -14.00158,-6.79965 -20.0625,-17.40625 -6.06091,-10.6066 -15.14562,-10.62041 -19.3125,-7.96875 0,0 -10.62975,-8.70717 -28.8125,5.6875 0.57143,-0.12889 16.64732,-7.88393 27.09375,-3.0625 0,0 -6.0172,1.69783 -7.375,8.375 0,0 -1.91989,10.21114 5.65625,10.96875 -2.03572,-3.82086 -5.18303,-14.74107 6.28125,-18.5625 4.22035,-1.40678 6.79094,-0.64816 8.84375,1.21875 -4.39065,1.99515 -6.5625,6.90625 -6.5625,6.90625 0,0 4.59344,-3.52429 8.625,-4.5 1.4053,1.96871 2.73464,4.38958 4.5,6.78125 -2.55343,1.21987 -4.39553,3.30352 -5.34375,6.28125 2.78349,-0.87394 4.79166,-3.17417 7.28125,-3.9375 0.88697,0.97536 1.86036,1.90664 3,2.78125 1.2041,0.92408 2.33426,1.77579 3.40625,2.53125 -2.0817,1.0662 -3.77019,2.84897 -4.03125,5.0625 2.68389,-1.036 4.39557,-2.05528 6.4375,-2.875 0.21963,-0.0756 0.413,-0.12687 0.53125,-0.15625 l 0,-0.0312 c 5.5572,3.58857 8.65625,4.59375 8.65625,4.59375 -1.60714,1.875 -8.3125,3.4866 -15.8125,1.34375 -7.5,-2.14286 -14.8125,-2.875 -14.8125,-2.875 0,0 -7.72494,0.41035 -17.4375,-3.8125 -9.71257,-4.22285 -14.02062,-2.65165 -18.1875,0 0,0 -17.77903,-4.90531 -24.21875,13.65625 0,0 9.07408,-13.3742 23.46875,-10.34375 0,0 -3.03925,4.80082 -3.03125,9.96875 0,0 -0.88404,8.50989 8.34375,10.21875 -4.08793,-2.45276 -7.9954,-12.1071 -1.53125,-19.0625 2.16298,-2.32736 5.01298,-2.90309 8.25,-2.625 -1.32692,2.39838 -2.96227,6.82641 -0.5625,11.65625 -0.16991,-5.41265 2.89729,-9.98066 3.75,-11.15625 2.9194,0.61681 6.08113,1.61834 9.34375,2.53125 -0.99183,1.74109 -2.40874,5.27821 -0.5,9.40625 0.53571,-4.76269 3.35052,-8.43303 3.5,-8.625 2.17075,0.52171 4.34948,0.95299 6.53125,1.09375 0.70227,0.0453 1.3887,0.11123 2.0625,0.1875 -1.11603,2.78633 -1.1711,5.97264 -0.0625,8.15625 1.38785,-2.49804 1.84706,-5.2427 3.125,-7.71875 3.05102,0.53866 5.91254,1.26725 8.78125,1.90625 -0.66822,1.40624 -1.46501,4.16306 0.15625,7.6875 0.76145,-4.49381 2.78125,-6.8125 2.78125,-6.8125 L 349.75,701 c 2.05989,0.38722 4.18153,0.65407 6.4375,0.71875 0.39163,2.04378 1.2421,4.42705 1.46875,6.375 -5.66855,2.0869 -12.84054,3.02277 -17.75,3.65625 -8.80833,1.13656 -12.625,2.59375 -12.625,2.59375 0,0 -6.03966,1.14181 -8.3125,5.6875 0,0 -21.23319,4.91481 -16.6875,22.71875 3.22217,-18.60751 15.625,-19.25 15.625,-19.25 0.005,3.61461 -0.37565,7.12361 1.8125,12.0625 1.43532,3.23968 5.28125,4.25 5.28125,4.25 0,0 -6.75445,-13.9737 0.21875,-19.3125 0,0 0.15603,-0.11208 0.40625,-0.28125 0.32643,2.02567 0.97586,5.3274 2.34375,7.875 0.79875,-3.55071 0.50682,-8.17271 0.40625,-9.4375 1.91712,-0.94645 4.69676,-2.06563 8.4375,-2.96875 0.49932,0.82341 1.95015,3.36672 2.90625,7.09375 1.21774,-3.38098 0.64868,-6.13585 0.0625,-7.71875 1.7351,-0.31186 3.60192,-0.58888 5.65625,-0.75 1.1848,-0.0929 2.36899,-0.19983 3.53125,-0.34375 1.01657,2.0587 1.66761,4.40202 2.875,6.375 1.27167,-1.99712 0.68661,-4.92175 0.0312,-6.8125 2.87555,-0.49507 5.60695,-1.20072 8.0625,-2.1875 0.79155,1.96158 1.36973,4.37194 2.71875,6.15625 1.0881,-2.63945 0.91244,-5.0937 -0.0312,-7.40625 2.35646,-1.28606 4.34707,-2.91484 5.8125,-5 1.08447,0.33626 4.70571,1.5728 7.4375,4.0625 -0.95612,-4.15742 -4.21823,-6.00038 -6,-6.71875 0.93267,-2.20857 1.41958,-4.78044 1.28125,-7.84375 -0.005,-0.10396 0.004,-0.23754 0,-0.34375 3.52781,-0.39744 7.59375,-0.4375 7.59375,-0.4375 -2.62891,-1.7087 -5.03784,-2.4612 -7.6875,-2.4375 -0.0248,-2.69478 0.0417,-5.85565 0.15625,-9.3125 4.17826,-0.87775 8.28125,-1.3125 8.28125,-1.3125 -2.84523,-1.69337 -5.33196,-2.11908 -8.15625,-1.75 0.14151,-3.56284 0.3288,-7.36705 0.53125,-11.25 4.09203,-0.26052 7.8125,-0.25 7.8125,-0.25 0,0 -3.20262,-2.37833 -7.65625,-2.625 0.19638,-3.68192 0.37402,-7.35273 0.5625,-10.96875 4.4999,-0.34808 8.40625,-0.25 8.40625,-0.25 -2.76656,-2.03196 -5.29349,-2.73879 -8.25,-2.71875 0.14804,-2.9561 0.2721,-5.7823 0.375,-8.46875 4.5058,-0.7412 8.4375,-0.53125 8.4375,-0.53125 -2.84794,-1.92491 -5.42253,-2.6112 -8.34375,-2.40625 0.0859,-2.79577 0.17315,-5.48995 0.15625,-7.6875 4.62799,-0.24965 9.34375,-1.46875 9.34375,-1.46875 0,0 -4.82395,-1.07375 -9.4375,-1.40625 -0.13502,-3.13956 -0.50226,-5.60737 -1,-7.53125 2.83238,-0.76779 5.67546,-1.60545 8.34375,-3.5625 -3.18235,-0.60751 -6.4492,0.007 -9.3125,0.71875 -1.71796,-3.84581 -4.19036,-4.18845 -4.19036,-4.18845 z m 25.81536,30.2197 c 0,0 -4.14927,6.4459 7.59375,8.71875 11.74303,2.27284 27.79732,2.29354 33.59375,-4.53125 0,0 -27.04885,4.66307 -35.625,0.375 -2.3992,-1.1996 -4.27711,-2.72873 -5.5625,-4.5625 z m -4.1875,46.25 c 0,0 -1.12998,8.71083 6.90625,11.59375 0.84238,3.22074 1.40604,7.42904 1.84375,9.96875 1.6882,-3.01293 2.27969,-6.08983 1.71875,-9.1875 1.98402,0.21745 4.32999,0.17117 7.125,-0.25 0.19795,-0.0298 0.36799,-0.0348 0.5625,-0.0625 0.52061,1.42468 1.4988,4.52942 1.84375,8.6875 1.6788,-3.88331 1.42163,-7.17317 1.03125,-9.0625 3.12533,-0.30716 5.7189,-0.30985 7.90625,-0.125 0.38938,2.68507 0.21062,5.76133 1.5,7.875 1.91355,-2.20667 1.87771,-4.80683 1.53125,-7.4375 6.62332,1.34375 7.84375,4.65625 7.84375,4.65625 0,0 0.5023,-4.30815 -4,-8.03125 -3.14977,-2.60464 -9.375,-1.0625 -9.375,-1.0625 -14.39468,2.65165 -23.88951,3.39892 -26.4375,-7.5625 z m -22.3125,9.625 c -0.58928,2.94643 -3.14974,5.06455 -6.5625,6.65625 -0.10843,-1.91907 -0.44681,-4.10601 -0.6875,-5.46875 2.23151,-0.13685 4.63233,-0.49065 7.25,-1.1875 z m 63.75,3.28125 1.03125,3.5 c 13.13849,0.54095 16.6332,7.49668 20.125,14.46875 0,0 0.54018,-18.23661 -21.15625,-17.96875 z" style="color:#000000;fill:#f4ebcf;fill-opacity:1;stroke:none;stroke-width:1;marker:none;visibility:visible;display:inline;overflow:visible;enable-background:accumulate"/>
      </g>
      <g id="g3966">
        <g id="g3973">
          <path sodipodi:nodetypes="sscsscccccccccccccccccccccsssssccsccccccccccccsccccc" inkscape:connector-curvature="0" id="path3971" d="m 152.625,482.25 c -5.32698,0.1243 -10.8217,1.19781 -16.125,3.28125 -21.2132,8.33375 -21.96875,24.625 -21.96875,24.625 8.71257,-12.50064 29.67084,-13.63994 41.65625,-9.09375 11.98541,4.54619 17.42751,23.86214 9.09375,34.46875 -8.33376,10.6066 -2.5,21.21428 -2.5,21.75 -5.08929,1.875 -9.1875,6.90625 -9.1875,6.90625 2.63678,12.24826 6.80461,24.58288 11.6875,36.34375 l 6.8125,0.34375 2.65625,1.34375 c 0,0 -2.40978,3.15993 -7.625,2.65625 1.73427,3.98908 3.52999,7.91038 5.375,11.71875 l 7,0 0.1875,2.84375 -5.09375,1.34375 c 3.11641,6.21525 6.29805,12.10158 9.40625,17.5625 5.29373,-2.09782 35.28125,-10.53125 35.28125,-10.53125 l 1.375,-0.28125 c -0.88166,-1.94899 -1.75005,-3.89071 -2.65625,-5.875 -3.21742,-6.96151 -6.80466,-14.45556 -10.125,-22.25 4.23181,7.36744 7.81045,14.84367 11.03125,21.8125 0.89481,1.9399 1.82147,4.03024 2.75,6.09375 l 3.65625,-0.78125 C 209.80049,592.97721 186.96875,549.59375 186.96875,549.59375 181.6116,548.25447 176.25,549.0625 176.25,549.0625 c 0,0 0.17857,3.9375 -0.625,5.8125 0,0 -2.37881,-0.3888 -2,-8.34375 0.37881,-7.95496 17.42069,-18.56424 12.875,-40.15625 -3.40926,-16.19401 -17.89407,-24.49789 -33.875,-24.125 z m -0.9375,4.875 c 1.27023,-0.0125 2.58929,0.049 3.9375,0.15625 21.57143,1.71591 26.25,20.09375 26.25,20.09375 -23.57143,-34.28571 -59.46875,-7.25 -59.46875,-7.25 0,0 10.22782,-12.81282 29.28125,-13 z m 31.65625,68.5 c 3.26173,4.04523 6.41855,7.65427 8.5625,13.875 -3.27913,-4.6361 -6.12611,-9.28671 -8.5625,-13.875 z m 11.09375,18.3125 c 4.07253,7.03079 8.84337,13.25764 10.9375,20.46875 -4.23941,-6.5004 -8.03627,-13.95989 -10.9375,-20.46875 z m 32.78125,63.09375 c -0.41177,0.008 -0.81334,0.0394 -1.21875,0.0625 3.2414,7.38189 6.54223,14.99657 9.625,22.09375 -5.36758,6.90249 -15.55808,9.87968 -23.75,11.96875 8.48154,-2.75962 15.95293,-5.97617 22.34375,-12.4375 -3.03813,-7.36239 -6.09733,-14.44193 -9.25,-21.5625 -7.83286,0.70979 -14.32344,4.28035 -20.09375,6.40625 -5.90316,2.17485 -10.52832,7.60105 -12.0625,9.5625 8.38201,13.40606 14.6875,21.8125 14.6875,21.8125 20.89286,-0.80357 31.0625,-15.96875 31.0625,-15.96875 -1.35229,-4.9584 -4.46833,-12.75578 -8.46875,-21.84375 -0.97241,-0.0768 -1.94105,-0.11236 -2.875,-0.0937 z" style="color:#000000;fill:#cacaca;fill-opacity:1;stroke:none;stroke-width:1;marker:none;visibility:visible;display:inline;overflow:visible;enable-background:accumulate"/>
          <path sodipodi:nodetypes="cscccccccccccccccccccccssccccccc" inkscape:connector-curvature="0" style="color:#000000;fill:#ffffff;stroke:none;stroke-width:1;marker:none;visibility:visible;display:inline;overflow:visible;enable-background:accumulate" d="m 181.81912,495.43716 c -6.2962,-8.96099 -17.33308,-13.46392 -29.19412,-13.18716 -5.32698,0.1243 -10.8217,1.19781 -16.125,3.28125 -21.2132,8.33375 -21.96875,24.625 -21.96875,24.625 l 7.875,-10.03125 c 0,0 12.53223,-14.06042 28.74554,-14.33929 16.2133,-0.27886 21.6043,3.12117 30.66733,9.65145 z M 184,638.34375 c -3.1082,-5.46092 -6.28984,-11.34725 -9.40625,-17.5625 l 5.09375,-1.34375 c 5.6445,9.30708 2.875,12.60417 4.3125,18.90625 z m -4.5,-21.75 -7,0 c -1.84501,-3.80837 -3.64073,-7.72967 -5.375,-11.71875 2.60761,0.25184 4.51386,-0.41222 5.76821,-1.13924 3.93291,7.8444 6.60679,12.85799 6.60679,12.85799 z m -14.21875,-16.0625 c -4.88289,-11.76087 -9.05072,-24.09549 -11.6875,-36.34375 0,0 4.09821,-5.03125 9.1875,-6.90625 0,-0.53572 -5.83376,-11.1434 2.5,-21.75 8.33376,-10.60661 2.89166,-29.92256 -9.09375,-34.46875 0,0 15.50893,4.69254 16.04464,20.49611 0.53572,15.80357 -6.42857,14.73214 -7.76786,24.64285 -1.25548,9.29056 2.14286,12.32144 2.14286,12.32144 0,0 5.35715,-1.07143 9.19643,-3.56502 0.625,-1.95788 0.44643,-5.89538 0.44643,-5.89538 0,0 5.3616,-0.80803 10.71875,0.53125 0,0 -10.8234,12.71818 -28.62734,14.99102 0,0 8.53359,25.9917 13.68761,36.09632 z M 207.5,674.9375 c 0,0 -6.30549,-8.40644 -14.6875,-21.8125 0,0 3.47277,0.66887 6.69263,0.29006 0,0 9.28077,14.58408 10.98541,16.85692 0,0 0.26924,1.75489 -2.99054,4.66552 z" id="path3990"/>
        </g>
        <g id="g3940">
          <path style="color:#000000;fill:#c2a854;fill-opacity:1;stroke:none;stroke-width:1;marker:none;visibility:visible;display:inline;overflow:visible;enable-background:accumulate" d="m 159.46875,583 c 0,0 -9.66071,3.74553 -5.375,13.65625 4.28572,9.91071 18.21875,4.28125 18.21875,4.28125 C 162.13393,595.58036 159.46875,583 159.46875,583 z m 52.21875,7.03125 9.65625,20.375 c -8.57143,0.53571 -11.53125,10.71875 -11.53125,10.71875 -7.76786,-1.33928 -14.46875,2.9375 -14.46875,2.9375 -10.44643,-5.08929 -16.59375,0.53125 -16.59375,0.53125 -5.89286,-0.53571 -13.125,-4.28125 -13.125,-4.28125 -2.41071,14.19643 9.90625,14.375 9.90625,14.375 6.16072,10.98214 26.80017,10.11236 40.8125,1.375 14.01233,-8.73735 19.78141,-11.2538 35.3125,-10.875 15.5311,0.37881 15.53585,1.52458 18.1875,20.84375 2.65165,19.31917 15.53125,19.3125 15.53125,19.3125 -3.03045,-12.87945 -5.31695,-39.37881 7.5625,-39 12.87944,0.3788 27.66703,8.71034 39.03125,6.4375 11.36422,-2.27284 7.9375,-21.21875 7.9375,-21.21875 l -9.09375,-8.71875 -5.625,7.71875 -2.40625,-2.40625 -10.46875,-12.59375 -5.625,10.71875 -2.40625,-2.125 -2.125,-2.6875 c -1.31729,2.96389 -9.67711,3.36428 -21.59375,3.6875 -15.49799,0.42036 -37.2208,2.69903 -48.46875,-6.34375 -11.24795,-9.04277 -20.40625,-8.78125 -20.40625,-8.78125 z m -52.71875,13.3125 c -4.00997,14.56273 10.11678,16.60864 20.65625,13.25 -9.65958,-2.84106 -11.9375,-11.71875 -11.9375,-11.71875 -5.09486,0.22191 -8.71875,-1.53125 -8.71875,-1.53125 z m 173.8125,10.625 c 8.57143,3.75 -0.67411,13.66518 -5.09375,10.71875 -6.29464,4.55357 -7.78125,-0.28125 -7.78125,-0.28125 4.82143,1.07143 6.15625,-3.21875 6.15625,-3.21875 9.91071,1.33928 6.71875,-7.21875 6.71875,-7.21875 z m -159.375,22.84375 c 0,0 -2.76339,7.14567 3.46875,11.53125 6.23215,4.38559 15.53125,1.06696 17.40625,-3.21875 0,0 -14.46875,4.01786 -18.21875,-7.5 l -2.65625,-0.8125 z" id="path3938" inkscape:connector-curvature="0"/>
          <path style="color:#000000;fill:#f4ebcf;fill-opacity:1;stroke:none;stroke-width:1;marker:none;visibility:visible;display:inline;overflow:visible;enable-background:accumulate" d="m 159.46875,583 c 0,0 -9.66071,3.74553 -5.375,13.65625 1.41117,3.26333 3.8706,4.81877 6.53125,5.46875 -6.81973,-8.27474 -4.50687,-13.86393 -0.5,-16.84375 C 159.65285,583.8672 159.46875,583 159.46875,583 z m 52.21875,7.03125 2.09375,4.40625 c 0,0 5.54875,0.3326 11.8125,4.15625 -3.62222,2.43918 -4,7.4375 -4,7.4375 0,0 3.26839,-4.41466 6.8125,-5.5 0.76631,0.59376 1.52334,1.22232 2.28125,1.9375 1.047,0.98798 2.74095,1.82861 4.875,2.53125 -3.2629,3.64641 -2.4375,9.3125 -2.4375,9.3125 0,0 2.22523,-6.21521 5.84375,-8.34375 l -0.0312,-0.0625 c 2.45743,0.55774 5.28224,1.00112 8.34375,1.34375 -1.18434,3.86802 0.59375,8.15625 0.59375,8.15625 0,0 1.0556,-4.97588 2.5,-7.84375 3.13843,0.27307 6.46444,0.45424 9.84375,0.5625 -0.9721,2.71972 -0.75481,5.53769 0.75,8.34375 1.40005,-2.72288 0.98105,-5.93508 2.4375,-8.28125 3.33909,0.0619 6.68227,0.0892 9.9375,0.0312 0.2574,2.41501 0.35762,4.81811 1.5625,7.4375 1.20514,-2.52104 1.61477,-5.00192 1.4375,-7.53125 1.19994,-0.0338 2.43974,-0.0471 3.59375,-0.0937 2.55043,-0.1032 4.84171,-0.22005 7,-0.34375 0.7232,2.75784 1.06433,5.32741 2.4375,8.25 1.02426,-2.7526 1.26341,-5.73175 0.65625,-8.46875 4.08911,-0.31571 7.39468,-0.77132 9.84375,-1.59375 2.68385,3.4781 4.21875,9.53125 4.21875,9.53125 0,0 1.42697,-6.18903 -1.5,-10.8125 0.45253,-0.30151 0.87046,-0.63512 1.21875,-1 l -1.65625,-2.125 c -1.31729,2.96389 -9.67711,3.36428 -21.59375,3.6875 -15.49799,0.42036 -37.2208,2.69903 -48.46875,-6.34375 -11.24795,-9.04277 -20.40625,-8.78125 -20.40625,-8.78125 z m -52.71875,13.3125 c -2.49642,9.06606 2.02655,13.29277 8.34375,14.375 -3.96645,-3.17846 -6.88153,-7.64434 -5.65625,-13.46875 -1.68093,-0.42238 -2.6875,-0.90625 -2.6875,-0.90625 z m 62.375,7.0625 c -8.57143,0.53571 -11.53125,10.71875 -11.53125,10.71875 -7.76786,-1.33928 -14.46875,2.9375 -14.46875,2.9375 -10.44643,-5.08929 -16.59375,0.53125 -16.59375,0.53125 0,0 -3.34755,4.8198 -2.96875,10.3125 l 5.09375,4.9375 c 0,0 -4.9321,-8.33122 0.75,-12.6875 5.68211,-4.35629 12.14293,-0.96605 13.46875,1.875 0,0 6.80155,-6.61849 17.21875,-4.15625 0,0 3.97414,-11.35406 9.65625,-13.4375 l -0.625,-1.03125 z m 96.46875,2.78125 c -0.94701,5.3033 -7.5625,5.5 -7.5625,5.5 0,0 2.27712,5.8612 8.90625,-2.09375 10.03839,2.65165 8.3125,-3.21875 8.3125,-3.21875 -2.65165,1.51523 -9.65625,-0.1875 -9.65625,-0.1875 z m -96.21875,4.125 c 0,0 0.5679,7.7481 6.25,7.9375 0,0 -0.5679,-5.85406 -6.25,-7.9375 z m -55.96875,3 c -2.41071,14.19643 9.90625,14.375 9.90625,14.375 -7.80698,-3.6423 -7.28125,-13.15625 -7.28125,-13.15625 -1.59402,-0.69188 -2.625,-1.21875 -2.625,-1.21875 z m 44.21875,5.5 c 0,0 -2.26713,3.05758 -0.5625,6.65625 1.70463,3.59866 5.3125,2.25 5.3125,2.25 0,0 -4.18179,-4.54997 -4.75,-8.90625 z m 55.8125,2.78125 c 2.21548,2.76706 2.87567,7.87986 4.1875,17.4375 2.65165,19.31917 15.53125,19.3125 15.53125,19.3125 0,0 -9.97715,-4.53902 -12.25,-19.3125 -2.27284,-14.77348 -7.46875,-17.4375 -7.46875,-17.4375 z m -71.34375,1.59375 c 0,0 -2.63261,1.33503 -1.875,5.3125 0.75761,3.97748 4.53125,4.15625 4.53125,4.15625 0,0 -3.22446,-6.05948 -2.65625,-9.46875 z m -20.90625,6.625 c 0,0 -2.76339,7.14567 3.46875,11.53125 0.8544,0.60125 1.77595,1.04586 2.71875,1.375 -4.16814,-4.01709 -3.526,-8.83228 -3.53125,-12.09375 l -2.65625,-0.8125 z" id="path3943" inkscape:connector-curvature="0"/>
        </g>
      </g>
      <g id="g3832">
        <g id="g3782">
          <path style="color:#000000;fill:#cacaca;fill-opacity:1;stroke:none;stroke-width:1;marker:none;visibility:visible;display:inline;overflow:visible;enable-background:accumulate" d="m 508.75,228.8125 c -4.91666,0.0424 -9.72321,1.59375 -11.0625,5.34375 C 494.82439,242.17296 495,249.9375 495,249.9375 l 25.96875,0.8125 c 0,0 2.99256,-13.59375 -0.53125,-18.21875 -1.76191,-2.3125 -6.77084,-3.76116 -11.6875,-3.71875 z m -15.53125,1.84375 c -1.927,0.007 -9.70313,0.46875 -22.59375,7.5 0,0 -3.46875,4.2991 -3.46875,19.03125 13.92857,-2.14286 24.375,-6.6875 24.375,-6.6875 0,0 2.41071,-13.14732 1.6875,-19.84375 z m 18.1875,7.25 c 0,0 -1.09483,6.52691 -1.625,12.09375 L 508.25,249.9063 c 0.54125,-5.68316 3.15625,-12 3.15625,-12 z M 483.5625,239.5 c -0.82735,5.37181 -0.84375,13.125 -0.84375,13.125 l -1.28125,0 c 0,0 0.27376,-7.78253 2.125,-13.125 z m -18.84375,2.15625 c 0,0 -14.72321,7.22322 -23.5625,19.8125 -0.26785,0.80358 -0.25,15.28125 -0.25,15.28125 l 23.28125,-18.21875 c 0,0 0.53125,-9.91072 0.53125,-16.875 z m -11.9375,14.46875 c 0,0 0.49914,5.60016 1.28125,9.25 l -1.5,0.5 c -0.825,-3.85016 0.21875,-9.75 0.21875,-9.75 z m -14.84375,9.1875 c -13.125,13.92857 -16.34375,47.125 -16.34375,47.125 l 16.34375,-31.875 0,-15.25 z m -8.75,20.53125 c 0,0 0.52385,4.54401 1.53125,7.0625 l -1.4375,1.6875 c -1.13546,-2.83865 -0.0937,-8.75 -0.0937,-8.75 z m 81.125,4.28125 c -2.31458,-0.002 -12.47486,0.52468 -26.96875,8.9375 0,0 -4.71875,9.68562 -4.71875,27.3125 15.66094,-2.56391 29.90625,-9.96875 29.90625,-9.96875 0,0 2.51682,-14.46429 2.28125,-26.25 0,0 -0.16935,-0.031 -0.5,-0.0312 z m 12.625,4.15625 c -3.80478,0.0895 -7.27376,1.4375 -8.375,4.71875 C 511.87196,307.01671 511,315.59375 511,315.59375 l 23.59375,1.34375 c 0,0 3.87392,-13.59375 0.5625,-18.21875 -1.86267,-2.60156 -7.32689,-4.55258 -12.21875,-4.4375 z m -25.875,7 c -1.01435,7.00894 -1.03125,17.125 -1.03125,17.125 l -1.5625,0 c 0,0 0.32391,-10.15435 2.59375,-17.125 z M 526.96875,303 c 0,0 -1.59554,6.52696 -2.09375,12.09375 L 523.4375,315 c 0.50862,-5.68316 3.53125,-12 3.53125,-12 z M 477.25,304.5625 c 0,0 -13.98825,12.12975 -19.53125,23.09375 -5.54301,10.964 -3.75,23.03125 -3.75,23.03125 l 20.8125,-22.71875 c 0,0 2.46875,-15.07355 2.46875,-23.40625 z m -11.40625,18.09375 c 0,0 -1.0422,9.41294 -0.15625,13.8125 L 464,337.0625 c -0.93453,-4.64102 1.84375,-14.40625 1.84375,-14.40625 z m -14.625,21.96875 c -7.51249,16.33929 -6.78125,33.46875 -6.78125,33.46875 L 452,356.65625 451.21875,344.625 z m 64.1875,11.5 c -3.2494,-0.008 -9.35671,0.82584 -18.6875,5.4375 0,0 -2.71875,8.00371 -2.71875,21.53125 14.11495,-1.96764 19.9375,-6.3125 19.9375,-6.3125 0,0 4.55607,-11.29895 4.34375,-20.34375 0,0 -0.92536,-0.30789 -2.875,-0.3125 z m 11.625,1.6875 c -2.49775,0.1301 -4.54697,1.02422 -5.375,3.125 -2.83221,7.18562 -4.1875,15.96875 -4.1875,15.96875 l 23.75,4.4375 c 0,0 4.07828,-14.3881 1.09375,-17.9375 -2.05186,-2.44021 -9.7862,-5.87997 -15.28125,-5.59375 z m -19.0625,5.03125 c -1.1925,7.01606 -1.25,17.125 -1.25,17.125 l -1.8125,0 c 0,0 0.39408,-10.14728 3.0625,-17.125 z m -14.84375,1.625 c 0,0 -14.31668,9.49206 -19.3125,17.90625 -4.99582,8.41419 -4.125,20.90625 -4.125,20.90625 l 21.40625,-18.75 c 0,0 2.03125,-13.66767 2.03125,-20.0625 z m 40.59375,2.5625 c 0,0 -1.70421,6.08842 -2.25,11.28125 l -1.59375,-0.0937 c 0.55719,-5.30133 3.84375,-11.1875 3.84375,-11.1875 z m -50.28125,11.875 c 0,0 -0.95475,7.24861 -0.15625,10.625 l -1.53125,0.4375 c -0.84228,-3.5617 1.6875,-11.0625 1.6875,-11.0625 z M 467.03125,394.625 c -7.9073,11.97119 -8.21875,28.15625 -8.21875,28.15625 l 7.40625,-15.09375 0.8125,-13.0625 z m 53.25,20.09375 c -5.20281,0.14125 -13.12277,1.14732 -18.3125,5.5 0,0 -3.23214,8.02232 -3.5,14.71875 l 23.0625,-4.53125 c 1.60714,-6.42858 4,-15.53125 4,-15.53125 0,0 -2.12831,-0.241 -5.25,-0.15625 z m -6.1875,3.15625 c -0.75762,5.30329 -0.9375,11.71875 -0.9375,11.71875 l -1.71875,0.1875 c -0.1894,-7.19734 2.65625,-11.90625 2.65625,-11.90625 z m -16.40625,4.75 c 0,0 -18.75447,8.5759 -20.09375,21.96875 l 18.46875,-8.5625 c 0.26786,-6.16072 1.625,-13.40625 1.625,-13.40625 z m -9.15625,7.53125 c -0.3788,3.21986 0.5625,7.78125 0.5625,7.78125 l -1.5,0.5625 c -0.37881,-4.54569 0.9375,-7.77554 0.9375,-8.34375 z" id="path3771" inkscape:connector-curvature="0"/>
          <path sodipodi:nodetypes="ssczcsccccccccccccccccszcccscsccczcssccccccccccccccccc" inkscape:connector-curvature="0" id="path3824" d="m 508.75,228.8125 c -4.91666,0.0424 -9.72321,1.59375 -11.0625,5.34375 C 494.82439,242.17296 495,249.9375 495,249.9375 c 0,0 1.90621,-12.46138 6.64958,-15.85502 4.74338,-3.39363 10.56871,-2.60834 18.78792,-1.55123 -1.76191,-2.3125 -6.77084,-3.76116 -11.6875,-3.71875 z m -37.88088,27.22383 c -1.69949,0.006 -1.13001,-9.86173 4.10643,-20.10578 -1.37809,0.65704 -2.82868,1.39559 -4.35055,2.2257 0,0 -3.46875,4.2991 -3.46875,19.03125 z m -26.63078,1.49946 c -1.07971,1.24527 -2.11604,2.55707 -3.08209,3.93296 -0.26785,0.80358 -0.25,15.28125 -0.25,15.28125 2.62631,-10.04282 3.33209,-19.21421 3.33209,-19.21421 z m 39.10541,41.52671 c 0,0 -4.71875,9.68562 -4.71875,27.3125 l 3.65577,-1.39974 c -0.0338,-8.89681 0.38385,-19.6678 2.77593,-26.73645 z m 39.59375,-4.78125 c -3.80478,0.0895 -7.27376,1.4375 -8.375,4.71875 -2.69054,8.01671 -3.5625,16.59375 -3.5625,16.59375 0,0 3.56707,-14.66926 8.44146,-17.59661 4.8744,-2.92736 10.33023,-1.12628 15.71479,0.72161 -1.86267,-2.60156 -7.32689,-4.55258 -12.21875,-4.4375 z m -23.23911,65.88511 c -0.95407,0.42177 -1.94712,0.88583 -2.97964,1.39614 0,0 -2.71875,8.00371 -2.71875,21.53125 l 2.42857,-0.82085 c 0,0 0.37892,-14.74879 3.26982,-22.10654 z m 27.33286,-2.35386 c -2.49775,0.1301 -4.54697,1.02422 -5.375,3.125 -2.83221,7.18562 -4.1875,15.96875 -4.1875,15.96875 l 1.25,0.95536 c 0,0 2.27104,-11.15086 4.88036,-15.13773 2.60932,-3.98687 13.35677,-3.93531 19.80421,5.62455 0.0237,-2.12474 -0.25969,-3.95374 -1.09082,-4.94218 -2.05186,-2.44021 -9.7862,-5.87997 -15.28125,-5.59375 z M 473.8125,382.375 c -4.99582,8.41419 -4.125,20.90625 -4.125,20.90625 l 1.83036,-2.52621 c 0,0 1.64285,-15.06365 2.29464,-18.38004 z m 31.18794,35.80433 c -1.07912,0.58112 -2.10173,1.25629 -3.03615,2.03999 0,0 -3.21429,8.03572 -3.48215,14.73215 l 2.86862,-1.06697 c -0.0154,-5.64571 1.53326,-10.77007 3.64968,-15.70517 z m -22.28886,15.53759 c -2.65269,3.09731 -4.7105,6.75944 -5.12229,10.8774 l 1.25,-0.26785 c 0,0 2.92315,-8.62981 3.87229,-10.60955 z M 453.96875,350.6875 c 0,0 -1.79301,-12.06725 3.75,-23.03125 0,0 -2.7713,13.68481 -0.87726,20.88215 0,0 -2.27284,2.27284 -2.87274,2.1491 z" style="color:#000000;fill:#ffffff;stroke:none;stroke-width:1;marker:none;visibility:visible;display:inline;overflow:visible;enable-background:accumulate"/>
        </g>
        <g id="g3827">
          <path sodipodi:nodetypes="ccccccccsscsczscsscccczscsccscscscscscscccccccccccccscscccccccccccccccccccccccccccsccscccsc" inkscape:connector-curvature="0" id="path3797" d="m 489.82143,469.68361 c 0,0 15.53571,17.67857 20.89286,29.46429 0,0 22.5626,-6.55086 35.90451,17.70716 13.61165,24.74845 11.74302,46.9721 11.74302,46.9721 0,0 18.56155,-16.66752 10.22779,-46.9721 -8.33375,-30.30457 -30.90381,-63.92738 -78.76818,-47.17145 z M 270.08954,207.49585 c 0,0 42.58903,16.2949 53.83903,76.83062 l -9.10714,-2.14286 c 0,0 6.69643,38.83929 8.30357,71.51786 l -10.26786,-5.04333 c 0,0 6.34192,49.81879 36.25,59.77547 -1.93208,4.23825 -7.1705,7.53247 -7.1705,7.53247 0,0 24.77937,8.0659 47.88661,-10.11685 0,0 -20.73756,-80.15182 -4.82325,-128.84419 16.43507,-50.28572 64.94571,-104.71164 148.92857,-82.5 87.17697,23.05641 95.89286,149.46429 78.75001,179.46428 0,0 -10.39051,-162.50238 -118.89051,-148.03571 -108.5,14.46667 -79.8595,180 -79.8595,180 3.127,-15.24883 -15.23519,-127.94163 58.24114,-152.36488 73.47633,-24.42324 118.58598,29.32397 127.86091,82.84783 9.36932,54.06858 18.80939,54.41728 21.97081,57.5787 0,0 -11.42132,3.44417 -24.62247,-17.67767 -13.20114,-21.12183 -22.8547,-97.47972 -91.79761,-89.90358 -74.55883,8.19327 -69.32172,130.30969 -69.32172,130.30969 0,0 -2.53304,-3.85702 -6.27909,-4.32379 0,0 10.00983,7.04437 3.50117,18.33965 0,0 5.68211,-0.75762 4.54569,-11.74302 0,0 -1.86703,-69.1867 38.7646,-93.69165 40.63164,-24.50495 76.04021,-7.73123 98.54797,18.89124 22.52963,26.64835 36.31329,71.62602 24.18557,108.00917 0,0 -10.87193,-91.43679 -68.94292,-99.6263 -55.46702,-7.82227 -74.24621,46.21449 -78.79189,81.82236 0,0 -1.6415,-1.45209 -3.15673,-1.8309 0,0 3.59867,4.73509 3.59867,8.90197 0,4.16688 -2.27284,5.87151 -2.27284,5.87151 0,0 3.59866,1.13642 4.73509,-2.84105 1.13642,-3.97748 -1.51523,-8.52316 -1.51523,-8.52316 0,0 8.63391,-47.86232 53.09428,-58.77826 46.79102,-11.48816 102.6546,44.44643 87.11889,112.48214 0,0 -16.07143,-71.25 -61.07143,-78.75 -45,-7.5 -66.80738,43.30094 -66.80738,43.30094 5.89048,-8.59422 51.5907,-47.48936 93.59309,-9.55094 43.72505,39.49438 30,93.75 19.82143,96.96429 0,0 3.17858,-50.22483 -32.49999,-73.03572 -35.67858,-22.81089 -58.65117,-0.1813 -58.65117,-0.1813 0,0 -2.08344,-1.13643 -3.78807,-1.51523 0,0 53.41181,55.87406 38.25953,114.21037 0,0 -11.53458,-54.12098 -35.64173,-77.1567 0,0 30.53572,59.46429 19.28572,93.75 0,0 -14.46429,-59.46428 -35.89286,-83.03571 0,0 28.92857,60 15,101.78571 0,0 -14.46428,-69.10714 -32.14286,-90.53571 0,0 25.71429,70.17857 10.71429,101.25 0,0 -11.25,-75.53571 -32.14286,-96.96429 0,0 24.64286,65.89286 10.17857,100.17858 0,0 -8.9509,-40.35606 -17.32086,-58.91135 0,0 -0.0898,7.39349 -1.69699,10.60777 l -3.48215,-0.26785 c 0,0 -1.875,10.44643 -3.48214,14.19643 l -10.98214,-4.55358 c 0,0 -1.875,8.83929 -3.21429,12.32143 l -13.66071,-6.69643 -4.82143,14.19643 -11.78571,-10.44643 -6.69643,15.53572 c -8.57231,-4.375 -17.94643,-13.125 -17.94643,-13.125 l -5.625,5.98214 -11.51786,-9.91071 -6.69643,8.83928 -13.125,-13.66071 -5.35714,9.64286 c 0,0 -18.9546,-13.42543 -23.50029,-36.15386 0,0 11.36422,1.13642 19.69797,-0.37881 0,0 -48.27292,-3.489 -75.59435,-47.41757 0,0 -1.87172,3.53907 -2.62934,10.7364 0,0 -26.7059,-22.66529 -29.73636,-61.30363 0,0 -5.17703,5.80838 -6.69226,13.00572 0,0 -17.70609,-24.55968 -7.52751,-62.5954 0,0 -4.46429,1.25 -9.82143,4.73215 0,0 3.75,-33.125 30,-60.98215 l -10.80357,-1.33928 c 0,0 36.66775,-36.91072 45.80357,-72.94643 9.13581,-36.03572 6.51837,-44.94922 6.51837,-44.94922 l 0.81309,-0.5912 c 0,0 6.76305,8.16734 17.74846,8.54615 10.98541,0.37881 22.16022,-11.55362 22.16022,-11.55362 l -2.08344,-3.21986 -38.82773,-13.8896 c 0,0 -2.27285,-10.98541 9.47018,-17.04632 11.74302,-6.06092 20.89753,0.69448 20.89753,0.69448 z" style="color:#000000;fill:#cacaca;fill-opacity:1;stroke:none;stroke-width:1;marker:none;visibility:visible;display:inline;overflow:visible;enable-background:accumulate"/>
          <path sodipodi:nodetypes="sscccccccsscssscsscscccccccccccccccccccccccsccscsscsscssccscsscscscccccccccccsccssccssssscccssccscssccccccsccccsccscccccccccccccccccccccscscccccccccccccccccccccccscccscccccccccccccccccccccccccccccccccccccccccccccccccccccccccccccccccsccccccc" inkscape:connector-curvature="0" id="path3807" d="M 497.15625,189.40625 C 435.57877,189.20838 398.86709,234.57142 385,277 c -15.91431,48.69237 4.8125,128.84375 4.8125,128.84375 -23.10724,18.18275 -47.875,10.125 -47.875,10.125 0,0 5.22417,-3.293 7.15625,-7.53125 -12.15016,-4.0449 -20.41118,-14.68533 -25.9375,-25.875 1.97098,6.64096 7.4965,20.20701 20.28125,27.59375 0,0 -4.14942,3.78965 -7.9375,6.0625 0,0 19.70552,18.16817 60.53125,-7.875 0,0 -20.43691,-83.83828 -5.125,-130.6875 15.81295,-48.38226 62.50864,-100.74587 143.3125,-79.375 34.03177,9.00066 57.35405,35.12878 71.84375,64.96875 -12.84543,-31.2648 -35.58875,-59.08696 -72.125,-68.75 -13.12232,-3.47057 -25.37801,-5.05711 -36.78125,-5.09375 z M 474.4375,258.125 c 40.21888,-13.3686 72.45222,-4.32522 94.625,15.65625 C 553.61869,258.0004 532.9426,247.55289 507.5,247.5 c -10.91487,-0.0227 -22.71501,1.86476 -35.34375,6.0625 -73.47633,24.42325 -55.09175,137.12617 -58.21875,152.51562 5.07469,-14.24511 -11.01185,-124.18286 60.5,-147.95312 z m 110.71875,18.25 c 24.02416,43.07155 27.53125,97.59375 27.53125,97.59375 0,0 2.78077,-61.14227 -27.53125,-97.59375 z M 228.375,304.03125 c -13.31461,30.79416 -40.78125,58.40625 -40.78125,58.40625 l 10.8125,1.34375 c -26.25,27.85715 -30,61 -30,61 5.35714,-3.48215 9.8125,-4.75 9.8125,-4.75 -10.17858,38.03572 7.53125,62.59375 7.53125,62.59375 1.51523,-7.19734 6.6875,-13 6.6875,-13 3.03046,38.63834 29.71875,61.3125 29.71875,61.3125 0.75762,-7.19733 2.65625,-10.75 2.65625,-10.75 5.2282,8.40613 11.1912,15.32785 17.46875,21.03125 -11.12135,-13.92474 -16.375,-31.1875 -16.375,-31.1875 -4.16688,4.54569 -5.3125,11.75 -5.3125,11.75 -25.38008,-23.10724 -24.25,-61.375 -24.25,-61.375 -5.68211,3.78807 -10.96875,11 -10.96875,11 -8.33376,-21.59201 -2.65625,-56.84375 -2.65625,-56.84375 -4.16688,0.75761 -6.83994,2.28506 -7.21875,1.90625 6.06092,-30.68338 31.84375,-56.0625 31.84375,-56.0625 l -10.625,-0.75 c 19.30292,-16.78515 28.28345,-43.02419 31.65625,-55.625 z M 564.3125,309.25 c 18.59651,22.36307 25.20461,54.48987 33.0625,67.0625 C 610.57615,397.43434 622,394 622,394 c -0.13329,-0.13329 -0.28237,-0.27873 -0.4375,-0.40625 -5.29955,-1.89778 -12.84949,-6.69044 -20.40625,-18.78125 -8.81693,-14.1071 -15.37041,-46.14895 -36.84375,-65.5625 z m -47.78125,4.125 c -12.42091,-0.0551 -25.78287,3.51392 -39.75,11.9375 -40.63163,24.50495 -38.75,93.6875 -38.75,93.6875 0,0 2.52426,-64.83005 41.875,-88.5625 39.35075,-23.73244 73.63929,-7.47071 95.4375,18.3125 8.54534,10.10754 17.82989,26.56273 24.5,43.5625 -4.88314,-18.27797 -13.67631,-35.32259 -24.5,-48.125 -14.77072,-17.471 -35.09986,-30.70734 -58.8125,-30.8125 z m 16.75,39.65625 c 55.72044,10.5804 66.25,99.1875 66.25,99.1875 0,0 0.61525,-22.32247 -7.6875,-45.9375 -8.09021,-23.01051 -24.66189,-47.24471 -58.5625,-53.25 z m -13.6875,22.65625 c -4.47983,-0.0626 -8.92584,0.42298 -13.3125,1.5 -44.46037,10.91594 -53.09375,58.78125 -53.09375,58.78125 0,0 14.03121,-45.00981 54.59375,-54.96875 24.49967,-6.01517 57.60447,11.68008 76.4375,38.71875 -14.33383,-26.37738 -39.69197,-43.68303 -64.625,-44.03125 z m 14.8125,35.65625 c 0.68905,0.1478 1.38743,0.29137 2.0625,0.46875 -0.67706,-0.1626 -1.36934,-0.32364 -2.0625,-0.46875 z m 2.0625,0.46875 c 41.85438,10.99777 56.9375,77.875 56.9375,77.875 0,0 -4.09588,-65.18502 -56.9375,-77.875 z m -109.03125,0.21875 c -3.61543,0.002 -6.71875,2.03125 -6.71875,2.03125 0,0 13.20435,-0.93648 14.21875,13.5625 3.24124,-9.45209 -4.96875,-15.21875 -4.96875,-15.21875 -0.8602,-0.26761 -1.69692,-0.3754 -2.53125,-0.375 z M 269.375,425.625 c -6.1435,0.0559 -10.28125,3.09375 -10.28125,3.09375 0,0 23.50079,-3.40451 26.53125,18.1875 -0.75761,16.66752 -17.7711,13.11072 -24.25,32.1875 -6.47891,19.07678 3.80266,35.99778 11,42.4375 7.19734,6.43972 21.59375,18.5625 21.59375,18.5625 l 4.90625,1.5 c 0,0 -28.77062,-21.95066 -32.9375,-42.40625 -4.16688,-20.45558 3.76538,-25.7722 17.78125,-36 14.01586,-10.22779 6.07916,-29.53664 -4.90625,-35.21875 -3.43294,-1.77566 -6.645,-2.36918 -9.4375,-2.34375 z m 250.59375,2.71875 c -25.96851,-0.24617 -47.75813,17.71061 -53.5625,24.71875 -0.0537,0.0707 -0.10279,0.14792 -0.15625,0.21875 8.15652,-9.36268 53.40665,-37.52927 92.75,-8.6875 -13.09434,-11.78789 -26.5427,-16.13161 -39.03125,-16.25 z M 441.625,430.625 c -3.15673,0.0709 -5,1.5 -5,1.5 14.77348,0.37881 13.34375,15.21875 13.34375,15.21875 0,0 2.25,-1.70812 2.25,-5.875 0,-4.16688 -3.59375,-8.90625 -3.59375,-8.90625 -2.74635,-1.53891 -5.10596,-1.98004 -7,-1.9375 z m -27.1875,12.8125 c -0.77805,0.0146 -1.58277,0.0659 -2.375,0.0937 49.90055,-1.24794 84.65181,39.34718 84.96875,39.71875 C 489.79367,473.02224 484,466.90625 484,466.90625 c 0,0 -5.79054,-6.69198 -18.28125,-12.9375 -0.0652,0.0898 -0.1611,0.19713 -0.21875,0.28125 0,0 0.14203,-0.28003 0.15625,-0.3125 -11.33322,-5.65531 -28.16178,-10.93271 -51.21875,-10.5 z m -93.71875,12.6875 c 0,0 70.75475,20.88272 103.5625,115.375 8.36996,18.55529 17.3125,58.90625 17.3125,58.90625 0,0 -11.77852,-153.06804 -120.875,-174.28125 z m 193.4375,9.09375 c -7.26896,-0.0466 -15.36918,1.32701 -24.34375,4.46875 32.91388,-4.63208 53.73855,4.37762 66.5625,19.59375 -9.15671,-13.64303 -22.76256,-23.93788 -42.21875,-24.0625 z m 33.375,4.125 c 34.49747,23.13351 31.40625,72.3125 31.40625,72.3125 0,0 11.99107,-45.53799 -27.6875,-70.90625 0,0 -1.75366,-0.6756 -3.71875,-1.40625 z m -67.875,22.96875 6.9375,11.65625 C 510.7009,527.00447 522.25,581.125 522.25,581.125 c 0,0 -0.27231,-49.16963 -42.59375,-88.8125 z m -18.78125,4.46875 c 3.78807,8.33376 9.125,17.90625 9.125,17.90625 21.42857,23.57143 35.90625,83.03125 35.90625,83.03125 0,0 -1.08962,-57.75348 -45.03125,-100.9375 z m -22.71875,2.28125 c 5.3033,9.84898 14.6875,26.875 14.6875,26.875 C 470.52233,547.36607 485,616.46875 485,616.46875 483.35901,549.28157 438.15625,499.0625 438.15625,499.0625 z m -21.21875,2.78125 c 3.78807,10.60661 14.5,28.375 14.5,28.375 20.89286,21.42858 32.125,96.96875 32.125,96.96875 0,0 2.61994,-69.28029 -46.625,-125.34375 z m 120.90625,3.96875 c 3.11687,2.67715 6.14041,6.22972 8.78125,11.03125 13.61165,24.74845 11.75,46.96875 11.75,46.96875 0,0 7.22965,-17.99155 -6.9375,-43.75 -3.92926,-7.1441 -8.73786,-11.56571 -13.59375,-14.25 z m -221.9375,48.15625 c 18.75,42.85715 30.625,49.28125 30.625,49.28125 0,0 9.36519,8.75 17.9375,13.125 l 1.375,-3.21875 c -8.10257,-5.39252 -30.31779,-22.63955 -42.4375,-55.96875 z M 280.6875,568 c 4.54569,22.72843 23.5,36.15625 23.5,36.15625 l 1.625,-2.90625 C 292.49864,590.17467 286.10198,572.76134 284.625,568.28125 282.24802,568.16204 280.6875,568 280.6875,568 z m 30.375,24 -1.5,2.5 13.125,13.65625 2.3125,-3.0625 z m 61.09375,5.375 -1,3.46875 11.78125,10.4375 1.1875,-3.5 z M 398.125,407.00504 c 0,0 11.07963,-1.99941 14.29392,3.08988 3.21428,5.08928 2.04537,7.35655 2.04537,7.35655 0,0 -0.53572,-6.42857 -16.33929,-10.44643 z m 1.33929,18.21428 c 0,0 11.78571,-1.875 15.26785,3.48215 3.48215,5.35714 -2.14285,10.98214 -2.14285,10.98214 0,0 4.28571,-12.32143 -13.125,-14.46429 z m -60.93692,37.71885 c 0,0 -1.13642,7.19734 -12.87944,7.95495 0,0 6.43972,15.15229 -13.25826,18.18275 0,0 3.78808,15.53109 -13.25825,20.07678 0,0 3.40927,12.87945 -9.47018,18.18275 0,0 16.28871,1.13642 14.01587,-15.5311 0,0 15.53109,-5.3033 12.87944,-20.07678 0,0 15.5311,-3.78807 14.77349,-17.80394 0,0 8.71256,-1.51523 10.6066,-9.09137 z m 26.1377,17.80394 c 0,0 -4.16688,11.74302 -18.18275,11.74302 0,0 3.78808,12.50064 -6.81853,19.31917 l -7.19733,-0.75761 c 0,0 4.92449,12.50063 -12.87945,15.9099 0,0 3.40927,11.74302 -12.87944,17.80394 0,0 14.39467,1.13642 18.94036,-10.98541 0,0 41.13778,17.87278 56.13778,33.9442 l 4.82143,-0.53571 c 0,0 -15,-18.21429 -57.85714,-36.42857 0,0 10.71429,-5.35714 10.71429,-17.67857 l 5.35714,0 c 0,0 47.14286,23.57143 69.10714,55.71428 l 5.35714,-0.53571 c 0,0 -14.46428,-28.92857 -71.25,-57.85714 0,0 6.96429,-6.96429 5.35715,-14.46429 l 3.75,0.53571 c 0,0 28.92857,11.25 45.53571,29.46429 l -11.25,-16.07143 c 0,0 -11.78571,-9.64286 -31.60714,-16.60714 0,0 7.5,-3.75 8.57143,-9.64286 z m -100.25764,-215.79384 4.92449,23.10724 c 0,0 6.43973,-8.33376 6.06092,-17.04632 -0.75762,0 -4.54569,7.19734 -4.54569,7.19734 0,0 -0.75761,-8.71258 -6.43972,-13.25826 z m -18.94036,34.85027 c 0,0 2.27284,15.15228 0.37881,25.75889 0,0 9.09137,-6.06092 12.12183,-18.18275 0,0 -2.27285,4.16688 -7.95495,8.71257 0,-0.75762 1.13642,-10.6066 -4.54569,-16.28871 z m -11.23795,47.09836 c 0,0 -1.89403,12.87944 1.51523,18.56155 0.37881,-0.75761 5.3033,-6.81853 6.81853,-12.50064 0,0 1.89404,9.47018 -8.33376,18.94036 0,0 -7.95495,-15.15228 0,-25.00127 z m -29.54696,36.7443 c 0,0.75761 -6.43972,9.84898 -3.78807,19.31916 0,0 6.81853,-4.16687 9.47018,-11.36421 0,0 2.27284,9.47018 -11.74303,18.56155 0,0 -5.6821,-19.69797 6.06092,-26.5165 z m 25.38008,19.31916 c 0,0.75762 -3.03046,13.63706 3.03046,20.8344 0,0 4.54569,-5.68211 6.06092,-13.63706 0,0 3.03045,11.36422 -5.68211,18.94036 0,-0.75761 -12.87945,-9.47019 -3.40927,-26.1377 z m -29.54696,22.34963 c 0,0 -4.92449,9.47018 -1.89404,17.80394 0,0 5.30331,-4.9245 7.95496,-9.84899 0,0 1.89403,7.19734 -7.95496,14.39467 0,0 -10.6066,-12.12183 1.89404,-22.34962 z m 71.97337,-1.89404 c 0,0 14.39467,-1.13642 19.69797,7.57615 5.3033,8.71256 2.27285,17.04632 2.27285,17.04632 0,0 2.65165,-19.69797 -21.97082,-24.62247 z m -53.03301,35.60788 c 0,0 3.78807,14.77348 10.2278,17.04633 0,0 2.27284,-6.43973 1.13642,-13.25826 0,0 5.3033,10.98541 -0.75762,18.94036 0,0 -14.39467,-5.68211 -10.6066,-22.72843 z" style="color:#000000;fill:#ffffff;stroke:none;stroke-width:0.5;marker:none;visibility:visible;display:inline;overflow:visible;enable-background:accumulate"/>
          <path sodipodi:nodetypes="ccccccccccccccccccccccccccccscscsscccccsccccccccccccccccccscccscccscccccsccccccccccccccccccccccccccccccccccccccccsc" inkscape:connector-curvature="0" id="path3827" d="m 287.625,228.4375 c 0,0 1.88774,5.17932 4.53125,11 0.56008,-7.62696 -4.53125,-11 -4.53125,-11 z M 306,266.53125 c 2.28922,6.54782 2.18132,13.4346 1.6875,15.9375 -2.82628,-2.50055 -5.30494,-3.71202 -9.0625,-4.78125 3.84055,3.78891 6.95328,5.08829 10.03125,8.59375 1.85128,-7.09883 1.56857,-15.11268 -2.65625,-19.75 z m 1.4375,40.65625 c 0.95967,9.29424 -0.98275,16.33666 -2.09375,19.0625 -2.32029,-3.4015 -7.125,-6.9375 -7.125,-6.9375 2.41867,3.42583 5.56248,7.93523 7.59375,11.5625 5.28149,-8.1778 3.05451,-18.42956 1.625,-23.6875 z m -34.5625,29.96875 c 0.96678,5.76892 -0.0965,10.08513 -0.78125,12.3125 -2.41469,-3.60039 -6.0625,-5.09375 -6.0625,-5.09375 2.85991,4.10683 4.53654,5.97933 6.53125,9.96875 3.05267,-5.66803 2.76798,-12.82909 0.3125,-17.1875 z m 27.28125,27.28125 c 2.72793,10.21221 0.2043,17.25004 -1.1875,20.03125 -2.8348,-4.81207 -7.5625,-7.90625 -7.5625,-7.90625 2.88811,4.80935 5.2482,7.3714 7.46875,11.8125 5.36354,-7.87541 4.58898,-17.42175 1.28125,-23.9375 z m -31.84375,32.21875 c 0.18148,4.30104 1.96252,9.02325 0.53125,12.9375 -3.15368,-4.00915 -7.34375,-4.25 -7.34375,-4.25 3.02578,2.67203 5.15058,4.02588 7.40625,7.6875 4.50611,-4.44357 1.77102,-12.74381 -0.59375,-16.375 z m -2.375,31.03125 c -4.16586,-0.0209 -8.28091,1.04978 -12.125,3.0625 6.28613,-0.31478 14.33067,-1.63466 20.90625,1.4375 6.57558,3.07217 10.49746,10.7205 11.15625,15.21875 1.41641,-5.35075 -2.78786,-14.21988 -10.1875,-17.5625 -3.23734,-1.4624 -6.50989,-2.14 -9.75,-2.15625 z m 60.65625,31.625 c 5.35715,2.14285 13.71875,6.4375 13.71875,6.4375 -1.07143,7.23214 -14.25,6.4375 -14.25,6.4375 1.60714,2.94643 4.34375,3.28125 4.34375,3.28125 -0.80357,14.46429 -18,14.65625 -18,14.65625 0,0 2.15178,3.48661 6.4375,3.21875 4.28571,-0.26785 14.44643,-6.95536 13.375,-17.9375 0,0 8.69196,-1.89732 10.03125,-8.59375 0,0 18.6342,12.41925 23.9375,17.34375 0,0 -4.83482,11.76786 -19.03125,9.625 0,0 2.66518,3.21429 5.34375,3.75 0,0 0.8125,12.31696 -17.9375,13.65625 0,0 0.80357,2.68304 3.75,3.21875 0,0 -0.53125,13.65625 -17.40625,13.65625 3.97064,6.53471 12.64424,3.634 16.875,-3.75 2.84426,1.37403 29.80538,14.59963 45.6875,28.78125 -14.91496,-15.89424 -41.78633,-29.10387 -44.8125,-30.5625 1.03591,-2.38771 1.64534,-5.14733 1.53125,-8.125 7.32307,-1.38171 10.7899,-5.94272 12.4375,-10.0625 3.24837,1.65804 26.41381,13.6875 44.5,29.40625 -17.61583,-17.88015 -41.77611,-30.32651 -43.84375,-31.375 0.85665,-2.99921 0.8125,-5.375 0.8125,-5.375 12.85715,-1.33929 13.59375,-10.34375 13.59375,-10.34375 17.14286,11.78571 39.625,47.65625 39.625,47.65625 0,0 -10.71429,-25.16517 -37.5,-50.34375 -26.78572,-25.17857 -43.21875,-24.65625 -43.21875,-24.65625 z m -9.625,36.71875 c -5.08928,14.19643 -17.40625,14.1875 -17.40625,14.1875 0,0 1.66518,3.18172 7.21875,1.875 5.55357,-1.30673 11.52678,-9.63393 10.1875,-16.0625 z m -13.46875,21.25 c -4.08844,13.57207 -19.21875,9.28125 -19.21875,9.28125 0,0 1.39183,5.52401 9.6875,3.8125 9.9409,-2.05094 9.53125,-13.09375 9.53125,-13.09375 z m -31.78125,3.5 c 0,0 14.02034,17.77102 38.71875,31.4375 -4.95254,0.26266 -9.4375,0.59375 -9.4375,0.59375 1.7351,1.3448 7.80712,3.35206 11.5,0.53125 8.78784,4.66489 18.85307,8.77441 30.0625,11.375 44.3509,10.28941 82.25,7.90625 82.25,7.90625 l -1.875,-5.34375 c 0,0 -60.29798,5.53008 -112.84375,-19.75 0,0 5.2349,-0.88727 9.59375,-3.90625 3.27742,1.27794 22.42995,8.92696 32.53125,17.0625 -8.83618,-9.38324 -26.07248,-16.84105 -30.5,-18.65625 2.09634,-2.00223 3.63419,-4.69853 3.71875,-8.25 -8.83929,12.58929 -22.90625,9.875 -22.90625,9.875 -10.98915,-6.03201 -21.47981,-13.54231 -30.8125,-22.875 z m 23.375,35.5 c 0,0 4.49039,5.58743 13.65625,1.59375 -7.34937,0.0432 -13.65625,-1.59375 -13.65625,-1.59375 z m -5.90625,4.28125 c 0,0 6.70922,4.88388 15.25,1.625 -7.05993,-0.48283 -15.25,-1.625 -15.25,-1.625 z m 117,13.46875 c 1.31205,3.36321 2.45132,7.40965 3.4375,10.25 0.67695,-4.06411 -0.19117,-7.82457 -3.4375,-10.25 z m -18.5625,0.0312 c 0.79552,3.02975 1.53643,6.18195 3.0625,8.71875 1.07105,-3.40895 -0.5915,-6.37411 -3.0625,-8.71875 z m 28.8125,0.34375 c 0,0 -0.65758,3.14794 1.5,6.09375 1.39996,-4.06212 -1.5,-6.09375 -1.5,-6.09375 z M 397.5,580.125 c 0,0 -0.0326,5.60611 3.40625,10.96875 C 401.1253,583.95576 397.5,580.125 397.5,580.125 z m -16.6875,3.78125 c 0,0 0.90625,5.1043 1.90625,7.375 1.94702,-5.11604 -1.90625,-7.375 -1.90625,-7.375 z m 12.5,7.5625 c 0,0 -0.52119,3.89816 2.28125,6.25 1.09782,-3.14088 -2.28125,-6.25 -2.28125,-6.25 z m -99.38393,-23.12443 c 0,0 18.48214,15.80358 38.57143,17.67858 0.53571,0.26785 2.14286,4.28571 4.82143,7.5 0,0 -36.42857,-5.625 -53.83929,-26.51786 z M 409.28571,407.63004 c 0,0 6.69643,5.625 4.55358,14.46428 0,0 4.29917,-3.13582 2.15631,-9.29654 -2.14286,-6.16071 -6.70989,-5.16774 -6.70989,-5.16774 z" style="color:#000000;fill:#d72d2d;fill-opacity:1;stroke:none;stroke-width:1;marker:none;visibility:visible;display:inline;overflow:visible;enable-background:accumulate"/>
        </g>
      </g>
      <g id="g3810">
        <path style="color:#000000;fill:#c2a854;fill-opacity:1;stroke:none;stroke-width:1;marker:none;visibility:visible;display:inline;overflow:visible;enable-background:accumulate" d="m 279.68599,239.06312 c -9.51614,-20.85343 -21.14884,-21.80444 -29.62311,-21.61893 -8.47428,0.18551 -11.30284,7.49741 -11.30284,7.49741 0,0 -3.84498,-0.36528 -2.25808,-6.71288 1.5869,-6.34759 14.01587,-16.66751 34.47146,-10.60659 20.45559,6.06091 35.31655,20.92189 49.62374,35.22907 14.39468,14.39467 25.62247,16.53452 34.85026,14.14213 9.2278,-2.39239 17.37024,-12.50822 28.03174,-24.62246 10.66151,-12.11425 18.82647,-14.79145 17.2286,-20.49138 -1.59788,-5.69994 -10.81837,-5.2626 -22.15309,-3.37348 -17.90991,2.98498 -17.04633,-2.65165 -11.74303,-10.2278 5.3033,-7.57614 12.46059,-11.719 9.84899,-16.15872 -2.6116,-4.43972 -14.01587,-2.40283 -26.89531,3.65809 -12.87945,6.06091 -20.07678,7.95495 -21.97082,3.78807 -1.89403,-4.16688 7.0659,-12.72399 3.14141,-16.64848 -3.9245,-3.9245 -14.17277,-0.55475 -26.67341,9.29424 -12.50064,9.84899 -18.49656,6.59662 -14.61658,-7.13235 3.35411,-11.86823 -13.3692,-6.72663 -20.18773,0.0919 -6.81853,6.81853 -11.5663,10.50641 -17.76176,9.69122 -8.99431,-1.18347 3.36817,-20.63574 -11.67476,-16.875 -14.20972,3.55243 -23.84902,26.62922 -23.84902,26.62922 -43.18729,-9.18329 -58.71512,14.39467 -58.71512,14.39467 0,0 49.49747,1.01016 69.57425,40.0273 0,0 -12.12107,-12.56904 -18.01392,-15.78333 -4.89317,-2.66901 -11.51786,-4.82143 -21.69643,-4.55357 0,0 15.80357,9.91071 22.23214,19.55357 0,0 -24.10714,-2.41071 -47.94643,-16.33929 0,0 -3.34233,25.3069 44.21144,39.21971 0,0 -10.48033,10.98541 -38.51206,16.28871 -24.70329,4.6736 -36.41425,1.41031 -34.85026,22.72843 1.69996,23.17154 26.8953,36.36549 26.8953,36.36549 0,0 8.08122,10.98541 23.23351,6.43972 15.15229,-4.54568 60.27207,-65.7742 55.45064,-110.23849 0,0 0.89286,-1.07143 2.5,-1.07143 0,0 16.69341,18.9376 39.15028,-2.58477 z" id="path3765" inkscape:connector-curvature="0" sodipodi:nodetypes="ccssssssssssszzssszccccsccccsscsccc"/>
        <path style="color:#000000;fill:#f4ebcf;fill-opacity:1;stroke:none;stroke-width:1;marker:none;visibility:visible;display:inline;overflow:visible;enable-background:accumulate" d="m 243.5625,167.5 c -0.96872,-0.0213 -2.12098,0.14743 -3.53125,0.5 -14.20972,3.55243 -23.84375,26.625 -23.84375,26.625 C 173.00021,185.44171 157.46875,209 157.46875,209 c 0,0 1.72742,0.0601 4.6875,0.375 0.004,-0.005 0.0269,0.005 0.0312,0 3.82468,-4.75746 17.96721,-17.81122 53.71875,-9.34375 0,0 -1.13102,15.92084 5.6875,26.90625 6.81853,10.98541 5.6875,22.34375 5.6875,22.34375 0,0 -10.86152,0.3679 -17.71875,-1.03125 0,0 -24.12946,-2.41517 -47.96875,-16.34375 0,0 -1.06135,8.35561 7,18.09375 -1.11612,-4.15911 -2.07557,-8.56699 -1.90625,-10.9375 0,0 20.42797,13.625 58.6875,13.625 0,0 -5.67163,9.47112 -19.6875,18.5625 -0.64124,0.64936 -11.21926,11.04993 -38.375,16.1875 -24.70329,4.6736 -36.40774,1.40063 -34.84375,22.71875 1.69996,23.17154 26.875,36.375 26.875,36.375 0,0 2.00779,2.73028 5.90625,4.90625 -3.69331,-6.63303 -11.92455,-22.51563 -12.21875,-32.8125 -0.37881,-13.25826 22.37135,-18.18147 38.28125,-25 15.9099,-6.81853 17.40625,-20.09375 17.40625,-20.09375 0,0 17.94109,-8.61874 20.46875,-23.46875 2.60649,-15.31317 -5.13902,-23.40561 -9.09375,-37.90625 -3.95471,-14.50064 2.25618,-26.12738 10.96875,-35.21875 5.25556,-5.48406 11.73213,-7.24202 16.0625,-7.78125 -0.67335,-0.98064 -1.77549,-1.61697 -3.5625,-1.65625 z m 41.46875,0.5 c -4.7671,0.0453 -11.72708,3.32083 -15.5625,7.15625 -6.81853,6.81853 -11.58579,10.53394 -17.78125,9.71875 -1.33785,-0.17603 -2.19671,-0.77709 -2.75,-1.625 -0.005,0.003 -0.28125,0.1875 -0.28125,0.1875 0,0 1.08482,5.08482 7.78125,4.28125 6.69643,-0.80357 14.71429,-11.23661 22.75,-14.71875 4.64229,-2.01166 8.46284,-1.68529 10.875,-1.0625 -0.16367,-2.83745 -2.20307,-3.96438 -5.03125,-3.9375 z m 40.5,3.34375 c -5.14199,0.38144 -12.68706,4.10382 -21.28125,10.875 -7.73477,6.09406 -12.95076,7.15966 -14.90625,3.84375 0.22431,1.55827 1.38606,5.40348 7.5,3.875 7.57614,-1.89404 18.9513,-13.64102 26.90625,-15.15625 4.89122,-0.93166 7.05207,0.74297 8,2.15625 0.35033,-1.55548 0.246,-2.97275 -0.8125,-4.03125 -1.22641,-1.22641 -3.06898,-1.73588 -5.40625,-1.5625 z m 44.875,8.375 c -5.11067,0.0455 -12.6066,2.27443 -20.65625,6.0625 -12.87945,6.06091 -20.07471,7.94813 -21.96875,3.78125 -0.0317,-0.0697 -0.0368,-0.14665 -0.0625,-0.21875 l -0.3125,0.0937 c 0,0 -0.74842,6.44131 5.3125,6.0625 6.06091,-0.3788 18.56488,-7.56329 27.65625,-10.59375 8.24876,-2.74958 14.28686,-2.07227 16.1875,1.46875 0.76412,-1.46565 0.92118,-2.84338 0.0937,-4.25 -0.97935,-1.6649 -3.1836,-2.43357 -6.25,-2.40625 z m -163.125,23.9375 c -2.11044,0.13503 -5.09458,1.20634 -7.34375,3.21875 0,0 0.96003,1.68179 4.9375,2.25 3.97748,0.56821 5.66386,-3.20352 4.90625,-4.71875 -0.28411,-0.56821 -1.23373,-0.83102 -2.5,-0.75 z m 156.125,1.6875 c -0.37881,1.13642 -1.13943,5.67227 3.40625,7.1875 4.54569,1.51523 16.66624,-1.5 25,-1.5 4.54997,0 7.40286,1.47603 9.0625,2.8125 0.08,-0.62377 0.0373,-1.27844 -0.15625,-1.96875 -1.59788,-5.69994 -10.82153,-5.26412 -22.15625,-3.375 -11.50947,1.91824 -15.25495,0.27316 -15.0625,-3.15625 -0.002,2.8e-4 -0.0937,0 -0.0937,0 z M 250.0625,217.4375 c -8.47428,0.18551 -11.3125,7.5 -11.3125,7.5 -8.6e-4,0.12521 -0.002,0.24754 0,0.375 0,0 3.74554,-5.09375 15.53125,-5.09375 9.93366,0 20.15592,15.85137 23.15625,20.875 0.74142,-0.63428 1.49514,-1.3078 2.25,-2.03125 -9.51614,-20.85343 -21.15073,-21.81051 -29.625,-21.625 z m -62.75,11.25 c 0,0 3.32826,2.1365 7.5,5.28125 4.32235,0.30159 12.36403,1.16484 20.0625,3.59375 -2.16995,-1.83197 -4.23076,-3.43269 -5.84375,-4.3125 -4.89317,-2.66901 -11.54018,-4.83036 -21.71875,-4.5625 z m 18.25,45.46875 c 0,0 -1.50857,10.99397 -19.3125,17.8125 -16.67143,6.3848 -33.72335,8.34311 -36.375,20.84375 -2.65165,12.50064 6.8125,28.78125 6.8125,28.78125 -9.47018,-4.54568 -21.19131,-20.06647 -20.8125,-35.21875 0.3788,-15.15229 13.63515,-12.89562 37.5,-17.0625 23.86485,-4.16688 32.1875,-15.15625 32.1875,-15.15625 z" id="path3767" inkscape:connector-curvature="0"/>
        <path style="color:#000000;fill:#d72d2d;fill-opacity:1;stroke:none;stroke-width:1;marker:none;visibility:visible;display:inline;overflow:visible;enable-background:accumulate" d="m 204.4375,201.96875 c -0.7221,0.0369 -1.53784,0.21589 -2.4375,0.5 -3.59867,1.13643 -2.5,4.28125 -2.5,4.28125 2.46224,0.56821 6.67799,0.7454 7.625,-1.90625 0.71026,-1.98875 -0.5212,-2.98585 -2.6875,-2.875 z m 46.02986,20.01962 c -5.35879,0.59563 -8.55509,3.63471 -9.59236,7.04288 -2.00925,6.60181 3.65625,10.90625 3.65625,10.90625 0,0 -3.9595,-4.46789 -2.21875,-10.1875 0.83773,-2.75254 3.54005,-5.03087 6.8125,-5.875 3.27245,-0.84413 7.06326,-0.49506 9.78125,1.1875 5.43961,3.36739 7.19133,7.67159 8.6875,10.59375 -0.11099,-3.5064 -2.09586,-8.27809 -7.90625,-11.875 -1.77724,-1.1002 -3.86135,-2.3885 -9.22014,-1.79288 z m 3.18889,3.23038 c -4.58594,0 -8.3125,3.72656 -8.3125,8.3125 0,4.58594 3.72656,8.28125 8.3125,8.28125 4.58594,0 8.3125,-3.69531 8.3125,-8.28125 0,-4.58594 -3.72656,-8.3125 -8.3125,-8.3125 z" id="path3775" inkscape:connector-curvature="0" sodipodi:nodetypes="sscsscscssscscsssss"/>
        <path transform="matrix(0.44294309,-0.02839761,0,0.3461689,139.19116,157.74992)" d="m 262.5,234.32646 c 0,4.58594 -3.71764,8.30357 -8.30357,8.30357 -4.58594,0 -8.30358,-3.71763 -8.30358,-8.30357 0,-4.58593 3.71764,-8.30357 8.30358,-8.30357 4.58593,0 8.30357,3.71764 8.30357,8.30357 z" sodipodi:ry="8.3035717" sodipodi:rx="8.3035717" sodipodi:cy="234.32646" sodipodi:cx="254.19643" id="path3783" style="color:#000000;fill:#ffffff;stroke:none;stroke-width:2.5537715;marker:none;visibility:visible;display:inline;overflow:visible;enable-background:accumulate" sodipodi:type="arc"/>
      </g>
    </g>
  </g>
</svg>