<?xml version="1.0" encoding="UTF-8" standalone="no"?>
<!-- Created with Inkscape (http://www.inkscape.org/) -->

<svg
   width="500"
   height="554.00006"
   viewBox="0 0 132.29166 146.57918"
   version="1.1"
   id="svg5"
   xml:space="preserve"
   xmlns="http://www.w3.org/2000/svg"
   xmlns:svg="http://www.w3.org/2000/svg"><defs
     id="defs2" /><path
     id="path5260"
     style="font-variation-settings:normal;fill:#cccccc;fill-opacity:1;stroke:none;stroke-width:0.132291;stroke-linecap:butt;stroke-linejoin:miter;stroke-miterlimit:4;stroke-dasharray:none;stroke-dashoffset:0;stroke-opacity:1;stop-color:#000000"
     d="m 0,0 2.091382,85.175574 c 0.255595,10.40961 2.795253,19.812046 7.050554,27.953376 l 57.003902,33.45022 c 11.11248,-35.84714 8.61732,-130.857805 0,-146.57917 z" /><path
     id="path2420"
     style="font-variation-settings:normal;fill:#045cd2;fill-opacity:1;stroke:none;stroke-width:0.132291;stroke-linecap:butt;stroke-linejoin:miter;stroke-miterlimit:4;stroke-dasharray:none;stroke-dashoffset:0;stroke-opacity:1;stop-color:#000000"
     d="m 66.145838,0 v 146.57917 l 57.003902,-33.45022 c 4.25529,-8.14133 6.79496,-17.543766 7.05055,-27.953376 L 132.29167,0 Z" /><g
     id="g2867"
     style="fill:#045cd2;fill-opacity:1;stroke:none;stroke-width:0.806082"
     transform="matrix(1.2406707,0,0,1.2404685,-56.570488,-97.273073)"><path
       id="path2915"
       style="font-variation-settings:normal;opacity:1;vector-effect:none;fill:#045cd2;fill-opacity:1;stroke:none;stroke-width:0.106638;stroke-linecap:butt;stroke-linejoin:miter;stroke-miterlimit:4;stroke-dasharray:none;stroke-dashoffset:0;stroke-opacity:1;-inkscape-stroke:none;stop-color:#000000;stop-opacity:1"
       d="m 70.214835,92.461538 -0.328662,6.57686 v 26.553422 l -16.920931,44.02315 c 8.792113,16.824 26.673895,26.96579 45.946032,26.96579 L 76.50644,125.59182 V 99.038398 l -0.328145,-6.57686 z" /><path
       id="path2525"
       style="fill:#045cd2;fill-opacity:1;fill-rule:evenodd;stroke:none;stroke-width:0.106638;stroke-linejoin:round;stroke-miterlimit:10;stop-color:#000000"
       d="m 77.903775,88.818977 c 0,2.599757 -2.10752,4.707277 -4.707277,4.707277 -2.599757,-10e-7 -4.707276,-2.10752 -4.707276,-4.707277 0,-2.599757 2.107519,-4.707276 4.707276,-4.707276 2.599757,-10e-7 4.707277,2.107518 4.707277,4.707276 z" /><path
       id="circle2579"
       style="fill:#045cd2;fill-opacity:1;fill-rule:evenodd;stroke:none;stroke-width:0.106638;stroke-linejoin:round;stroke-miterlimit:10;stop-color:#000000"
       d="m 70.214842,92.461527 c 1.734019,1.734019 1.734019,4.54542 0,6.279439 -1.73402,1.734024 -4.545419,1.734024 -6.279438,0 -1.734018,-1.734019 -1.734018,-4.545419 0,-6.279438 1.734018,-1.734019 4.545418,-1.73402 6.279438,-10e-7 z" /><path
       id="path2604"
       style="fill:#045cd2;fill-opacity:1;fill-rule:evenodd;stroke:none;stroke-width:0.106638;stroke-linejoin:round;stroke-miterlimit:10;stop-color:#000000"
       d="m 76.178155,92.461527 c -1.734019,1.734019 -1.734019,4.54542 0,6.279439 1.73402,1.734024 4.545419,1.734024 6.279438,0 1.734018,-1.734019 1.734018,-4.545419 0,-6.279438 -1.734018,-1.734019 -4.545418,-1.73402 -6.279438,-10e-7 z" /><circle
       style="fill:#045cd2;fill-opacity:1;fill-rule:evenodd;stroke:none;stroke-width:0.106638;stroke-linejoin:round;stroke-miterlimit:10;stroke-dasharray:none;stop-color:#000000"
       id="circle2679"
       cx="-110.74158"
       cy="54.460426"
       r="4.2336512"
       transform="rotate(-90)" /><path
       id="path2681"
       style="fill:#045cd2;fill-opacity:1;fill-rule:evenodd;stroke:none;stroke-width:0.106638;stroke-linejoin:round;stroke-miterlimit:10;stop-color:#000000"
       d="m 57.627944,113.55061 a 4.0029245,4.0029245 0 0 1 5.660992,0 4.0029245,4.0029245 0 0 1 0,5.66099 4.0029245,4.0029245 0 0 1 -5.660991,0 4.0029245,4.0029245 0 0 1 -10e-7,-5.66099 z" /><path
       id="path2795"
       style="fill:#045cd2;fill-opacity:1;fill-rule:evenodd;stroke:none;stroke-width:0.106638;stroke-linejoin:round;stroke-miterlimit:10;stop-color:#000000"
       d="m 57.627944,107.93256 a 4.0029245,4.0029245 0 0 0 5.660992,0 4.0029245,4.0029245 0 0 0 0,-5.66099 4.0029245,4.0029245 0 0 0 -5.660991,0 4.0029245,4.0029245 0 0 0 -10e-7,5.66099 z" /><path
       style="font-variation-settings:normal;vector-effect:none;fill:#045cd2;fill-opacity:1;stroke:none;stroke-width:0.106638;stroke-linecap:butt;stroke-linejoin:miter;stroke-miterlimit:4;stroke-dasharray:none;stroke-dashoffset:0;stroke-opacity:1;-inkscape-stroke:none;stop-color:#000000"
       d="m 59.17042,114.05173 h 28.052162 l 1.54247,-0.50112 v -5.61805 l -1.54247,-0.50111 H 59.17042 l -1.542476,0.50111 v 5.61805 z"
       id="path2706" /><circle
       style="fill:#045cd2;fill-opacity:1;fill-rule:evenodd;stroke:none;stroke-width:0.106638;stroke-linejoin:round;stroke-miterlimit:10;stroke-dasharray:none;stop-color:#000000"
       id="circle2807"
       cx="-110.74158"
       cy="-91.932571"
       r="4.2336512"
       transform="matrix(0,-1,-1,0,0,0)" /><path
       id="path2809"
       style="fill:#045cd2;fill-opacity:1;fill-rule:evenodd;stroke:none;stroke-width:0.106638;stroke-linejoin:round;stroke-miterlimit:10;stop-color:#000000"
       d="m 88.765052,113.55061 a 4.0029245,4.0029245 0 0 0 -5.660992,0 4.0029245,4.0029245 0 0 0 0,5.66099 4.0029245,4.0029245 0 0 0 5.660991,0 4.0029245,4.0029245 0 0 0 10e-7,-5.66099 z" /><path
       id="path2811"
       style="fill:#045cd2;fill-opacity:1;fill-rule:evenodd;stroke:none;stroke-width:0.106638;stroke-linejoin:round;stroke-miterlimit:10;stop-color:#000000"
       d="m 88.765052,107.93256 a 4.0029245,4.0029245 0 0 1 -5.660992,0 4.0029245,4.0029245 0 0 1 0,-5.66099 4.0029245,4.0029245 0 0 1 5.660991,0 4.0029245,4.0029245 0 0 1 10e-7,5.66099 z" /></g><g
     id="g2943"
     transform="matrix(1.2406707,0,0,1.2404685,7.236645,-97.273073)"
     style="fill:#cccccc;fill-opacity:1;stroke:none;stroke-width:0.806082"><path
       id="path2917"
       style="fill:#cccccc;fill-opacity:1;fill-rule:evenodd;stroke:none;stroke-width:0.106638;stroke-linejoin:round;stroke-miterlimit:10;stop-color:#000000"
       d="m 77.903775,88.818977 c 0,2.599757 -2.10752,4.707277 -4.707277,4.707277 -2.599757,-10e-7 -4.707276,-2.10752 -4.707276,-4.707277 0,-2.599757 2.107519,-4.707276 4.707276,-4.707276 2.599757,-10e-7 4.707277,2.107518 4.707277,4.707276 z" /><path
       id="path2919"
       style="fill:#cccccc;fill-opacity:1;fill-rule:evenodd;stroke:none;stroke-width:0.106638;stroke-linejoin:round;stroke-miterlimit:10;stop-color:#000000"
       d="m 70.214842,92.461527 c 1.734019,1.734019 1.734019,4.54542 0,6.279439 -1.73402,1.734024 -4.545419,1.734024 -6.279438,0 -1.734018,-1.734019 -1.734018,-4.545419 0,-6.279438 1.734018,-1.734019 4.545418,-1.73402 6.279438,-10e-7 z" /><path
       id="path2921"
       style="fill:#cccccc;fill-opacity:1;fill-rule:evenodd;stroke:none;stroke-width:0.106638;stroke-linejoin:round;stroke-miterlimit:10;stop-color:#000000"
       d="m 76.178155,92.461527 c -1.734019,1.734019 -1.734019,4.54542 0,6.279439 1.73402,1.734024 4.545419,1.734024 6.279438,0 1.734018,-1.734019 1.734018,-4.545419 0,-6.279438 -1.734018,-1.734019 -4.545418,-1.73402 -6.279438,-10e-7 z" /><circle
       style="fill:#cccccc;fill-opacity:1;fill-rule:evenodd;stroke:none;stroke-width:0.106638;stroke-linejoin:round;stroke-miterlimit:10;stroke-dasharray:none;stop-color:#000000"
       id="circle2925"
       cx="-110.74158"
       cy="54.460426"
       r="4.2336512"
       transform="rotate(-90)" /><path
       id="path2927"
       style="fill:#cccccc;fill-opacity:1;fill-rule:evenodd;stroke:none;stroke-width:0.106638;stroke-linejoin:round;stroke-miterlimit:10;stop-color:#000000"
       d="m 57.627944,113.55061 a 4.0029245,4.0029245 0 0 1 5.660992,0 4.0029245,4.0029245 0 0 1 0,5.66099 4.0029245,4.0029245 0 0 1 -5.660991,0 4.0029245,4.0029245 0 0 1 -10e-7,-5.66099 z" /><path
       id="path2929"
       style="fill:#cccccc;fill-opacity:1;fill-rule:evenodd;stroke:none;stroke-width:0.106638;stroke-linejoin:round;stroke-miterlimit:10;stop-color:#000000"
       d="m 57.627944,107.93256 a 4.0029245,4.0029245 0 0 0 5.660992,0 4.0029245,4.0029245 0 0 0 0,-5.66099 4.0029245,4.0029245 0 0 0 -5.660991,0 4.0029245,4.0029245 0 0 0 -10e-7,5.66099 z" /><path
       style="font-variation-settings:normal;vector-effect:none;fill:#cccccc;fill-opacity:1;stroke:none;stroke-width:0.106638;stroke-linecap:butt;stroke-linejoin:miter;stroke-miterlimit:4;stroke-dasharray:none;stroke-dashoffset:0;stroke-opacity:1;-inkscape-stroke:none;stop-color:#000000"
       d="m 59.17042,114.05173 h 28.052162 l 1.54247,-0.50112 v -5.61805 l -1.54247,-0.50111 H 59.17042 l -1.542476,0.50111 v 5.61805 z"
       id="path2931" /><circle
       style="fill:#cccccc;fill-opacity:1;fill-rule:evenodd;stroke:none;stroke-width:0.106638;stroke-linejoin:round;stroke-miterlimit:10;stroke-dasharray:none;stop-color:#000000"
       id="circle2933"
       cx="-110.74158"
       cy="-91.932571"
       r="4.2336512"
       transform="matrix(0,-1,-1,0,0,0)" /><path
       id="path2935"
       style="fill:#cccccc;fill-opacity:1;fill-rule:evenodd;stroke:none;stroke-width:0.106638;stroke-linejoin:round;stroke-miterlimit:10;stop-color:#000000"
       d="m 88.765052,113.55061 a 4.0029245,4.0029245 0 0 0 -5.660992,0 4.0029245,4.0029245 0 0 0 0,5.66099 4.0029245,4.0029245 0 0 0 5.660991,0 4.0029245,4.0029245 0 0 0 10e-7,-5.66099 z" /><path
       id="path2937"
       style="fill:#cccccc;fill-opacity:1;fill-rule:evenodd;stroke:none;stroke-width:0.106638;stroke-linejoin:round;stroke-miterlimit:10;stop-color:#000000"
       d="m 88.765052,107.93256 a 4.0029245,4.0029245 0 0 1 -5.660992,0 4.0029245,4.0029245 0 0 1 0,-5.66099 4.0029245,4.0029245 0 0 1 5.660991,0 4.0029245,4.0029245 0 0 1 10e-7,5.66099 z" /><path
       id="path2939"
       style="font-variation-settings:normal;opacity:1;vector-effect:none;fill:#cccccc;fill-opacity:1;stroke:none;stroke-width:0.106638;stroke-linecap:butt;stroke-linejoin:miter;stroke-miterlimit:4;stroke-dasharray:none;stroke-dashoffset:0;stroke-opacity:1;-inkscape-stroke:none;stop-color:#000000;stop-opacity:1"
       d="m 70.214705,92.461538 -0.328145,6.57686 v 26.553422 l -22.404834,70.98894 c 19.272138,0 37.153918,-10.14179 45.946032,-26.96579 L 76.506828,125.59182 V 99.038398 l -0.328662,-6.57686 z" /></g></svg>
