<?xml version="1.0" encoding="UTF-8" standalone="no"?>
<svg
   xmlns:dc="http://purl.org/dc/elements/1.1/"
   xmlns:cc="http://creativecommons.org/ns#"
   xmlns:rdf="http://www.w3.org/1999/02/22-rdf-syntax-ns#"
   xmlns:svg="http://www.w3.org/2000/svg"
   xmlns="http://www.w3.org/2000/svg"
   id="svg8"
   version="1.1"
   viewBox="0 0 147.94276 172.33638"
   height="651.3501"
   width="559.15375">
  <defs
     id="defs2" />
  <metadata
     id="metadata5">
    <rdf:RDF>
      <cc:Work
         rdf:about="">
        <dc:format>image/svg+xml</dc:format>
        <dc:type
           rdf:resource="http://purl.org/dc/dcmitype/StillImage" />
        <dc:title></dc:title>
      </cc:Work>
    </rdf:RDF>
  </metadata>
  <g
     transform="translate(-13.68544,-15.880031)"
     id="layer1">
    <path
       style="font-variation-settings:normal;opacity:1;vector-effect:none;fill:#045cd2;fill-opacity:1;fill-rule:evenodd;stroke:none;stroke-width:0.999999;stroke-linecap:butt;stroke-linejoin:miter;stroke-miterlimit:4;stroke-dasharray:none;stroke-dashoffset:0;stroke-opacity:1;marker:none;marker-start:none;marker-mid:none;marker-end:none;stop-color:#000000;stop-opacity:1"
       d="M 532.27734,494.80859 C 549.47659,459.73275 559.1543,420.66983 559.1543,379.65234 V 0 H 0 v 379.65234 c 0,41.01749 9.6777026,80.08041 26.876953,115.15625 l 252.700197,4 z"
       transform="matrix(0.26458333,0,0,0.26458333,13.68544,15.880031)"
       id="path848" />
    <path
       transform="scale(0.26458333)"
       d="m 155.49023,466.75781 c 5.70109,11.03191 -0.21044,13.8061 -2.27148,23.51563 -2.01121,9.47478 5.62249,20.77204 1.42578,29.32031 -4.19672,8.54838 -9.49708,8.0538 -13.68359,18 -3.02163,7.17872 -0.60243,14.4723 -5.01758,19.61133 l -27.03125,-89.4707 h -4 l -22.310548,87.09374 c 44.803168,91.36955 140.748578,50.53008 250.373048,51.42849 110.03163,-0.64931 251.02734,-51.42849 251.02734,-51.42849 0,0 1.70647,-3.51918 2.45117,-5.12304 l -24.76367,-81.9707 h -4 l -23.02929,89.4707 c -7.17109,-4.19399 -12.77385,-14.38112 -11.07227,-24.83594 1.58506,-9.73909 3.8326,-19.71728 -5.41601,-28.16211 -9.24858,-8.44482 -5.13166,-17.70743 -7.41211,-27.57812 -2.28881,-9.90845 -15.6875,-9.8711 -15.6875,-9.8711 5.70103,11.03191 -0.21051,13.8061 -2.27149,23.51563 -2.0112,9.47478 5.62249,20.77204 1.42578,29.32031 -4.19671,8.54838 -9.49513,8.0538 -13.68164,18 -3.02162,7.17872 -0.6044,14.4723 -5.01953,19.61133 l -27.0293,-89.4707 h -4 l -23.03125,89.4707 c -7.17105,-4.19399 -12.77384,-14.38112 -11.07226,-24.83594 1.58509,-9.73909 3.8326,-19.71728 -5.41602,-28.16211 -9.24861,-8.44482 -5.12974,-17.70743 -7.41015,-27.57812 -2.28885,-9.90845 -15.6875,-9.8711 -15.6875,-9.8711 5.70107,11.03191 -0.21055,13.8061 -2.27149,23.51563 -2.01122,9.47478 5.62249,20.77204 1.42578,29.32031 -4.19674,8.54838 -9.49708,8.0538 -13.68359,18 -3.02163,7.17872 -0.60243,14.4723 -5.01758,19.61133 l -27.03125,-89.4707 h -4 l -23.0293,89.4707 c -7.17107,-4.19399 -12.77383,-14.38112 -11.07226,-24.83594 1.58507,-9.73909 3.83259,-19.71728 -5.41602,-28.16211 -9.24861,-8.44482 -5.13166,-17.70743 -7.41211,-27.57812 -2.28883,-9.90845 -15.6875,-9.8711 -15.6875,-9.8711 5.70109,11.03191 -0.21045,13.8061 -2.27148,23.51563 -2.01122,9.47478 5.62249,20.77204 1.42578,29.32031 -4.19672,8.54838 -9.49513,8.0538 -13.68164,18 -3.02163,7.17872 -0.60438,14.4723 -5.01953,19.61133 l -27.0293,-89.4707 h -4 l -23.03125,89.4707 c -7.17108,-4.19399 -12.77383,-14.38112 -11.07226,-24.83594 1.58507,-9.73909 3.83259,-19.71728 -5.41602,-28.16211 -9.24861,-8.44482 -5.12971,-17.70743 -7.41016,-27.57812 -2.28881,-9.90845 -15.6875,-9.8711 -15.6875,-9.8711 z"
       style="font-variation-settings:normal;opacity:1;vector-effect:none;fill:#003580;fill-opacity:1;fill-rule:evenodd;stroke:none;stroke-width:1.02363;stroke-linecap:butt;stroke-linejoin:miter;stroke-miterlimit:4;stroke-dasharray:none;stroke-dashoffset:0;stroke-opacity:1;marker:none;marker-start:none;marker-mid:none;marker-end:none;stop-color:#000000;stop-opacity:1"
       id="path1580" />
    <path
       transform="scale(0.26458333)"
       d="m 155.49023,466.75781 c 5.70109,11.03191 -4.21043,13.8061 -6.27148,23.51563 -2.01121,9.47478 5.62249,20.77204 1.42578,29.32031 -4.19672,8.54835 -9.49708,8.05376 -13.68359,18 -3.02163,7.17872 -0.60243,14.47234 -5.01758,19.61133 l -27.03125,-89.4707 -26.310548,87.09374 c 45.120138,92.01595 142.106108,156.54102 252.699218,156.54102 110.59322,0 207.5811,-64.52493 252.70117,-156.54102 l -26.3125,-87.09374 -27.02929,89.4707 c -7.17109,-4.19399 -12.77385,-14.38112 -11.07227,-24.83594 1.58506,-9.73909 3.8326,-19.71725 -5.41601,-28.16211 -9.24858,-8.44479 -5.13166,-17.70743 -7.41211,-27.57812 -2.28881,-9.90845 -11.6875,-9.8711 -11.6875,-9.8711 5.70107,11.03191 -4.21047,13.8061 -6.27149,23.51563 -2.0112,9.47478 5.62249,20.77204 1.42578,29.32031 -4.19671,8.54835 -9.49513,8.05376 -13.68164,18 -3.02162,7.17872 -0.6044,14.47234 -5.01953,19.61133 l -27.0293,-89.4707 -27.03125,89.4707 c -7.17108,-4.19399 -12.77384,-14.38112 -11.07226,-24.83594 1.58509,-9.73909 3.8326,-19.71725 -5.41602,-28.16211 -9.24861,-8.44479 -5.12974,-17.70743 -7.41015,-27.57812 -2.28885,-9.90845 -11.6875,-9.8711 -11.6875,-9.8711 5.70107,11.03191 -4.21043,13.8061 -6.27149,23.51563 -2.01121,9.47478 5.62251,20.77204 1.42578,29.32031 -4.19672,8.54835 -9.49708,8.05376 -13.68359,18 -3.02163,7.17872 -0.60243,14.47234 -5.01758,19.61133 l -27.03125,-89.4707 -27.0293,89.4707 c -7.17108,-4.19399 -12.77383,-14.38112 -11.07226,-24.83594 1.58507,-9.73909 3.83259,-19.71725 -5.41602,-28.16211 -9.24861,-8.44479 -5.13166,-17.70743 -7.41211,-27.57812 -2.28883,-9.90845 -11.6875,-9.8711 -11.6875,-9.8711 5.70109,11.03191 -4.21043,13.8061 -6.27148,23.51563 -2.01122,9.47478 5.62249,20.77204 1.42578,29.32031 -4.19672,8.54835 -9.49513,8.05376 -13.68164,18 -3.02163,7.17872 -0.60438,14.47234 -5.01953,19.61133 l -27.0293,-89.4707 -27.03125,89.4707 c -7.17108,-4.19399 -12.77383,-14.38112 -11.07226,-24.83594 1.58507,-9.73909 3.83259,-19.71725 -5.41602,-28.16211 -9.24861,-8.44479 -5.12971,-17.70743 -7.41016,-27.57812 -2.28882,-9.90845 -11.6875,-9.8711 -11.6875,-9.8711 z"
       style="font-variation-settings:normal;opacity:1;vector-effect:none;fill:#bf9f4f;fill-opacity:1;fill-rule:evenodd;stroke:none;stroke-width:1.02363;stroke-linecap:butt;stroke-linejoin:miter;stroke-miterlimit:4;stroke-dasharray:none;stroke-dashoffset:0;stroke-opacity:1;marker:none;marker-start:none;marker-mid:none;marker-end:none;stop-color:#000000;stop-opacity:1"
       id="path861" />
    <g
       id="g1165">
      <path
         id="path1299"
         style="font-variation-settings:normal;opacity:1;vector-effect:none;fill:#003580;fill-opacity:1;fill-rule:evenodd;stroke:none;stroke-width:0.264583;stroke-linecap:butt;stroke-linejoin:miter;stroke-miterlimit:4;stroke-dasharray:none;stroke-dashoffset:0;stroke-opacity:1;marker:none;marker-start:none;marker-mid:none;marker-end:none;stop-color:#000000;stop-opacity:1"
         d="m 114.05815,34.597885 c -2.71537,0 -4.88755,-2.349208 -4.88755,-2.349208 l -1.8464,0.06821 c -1.19476,1.411988 -3.0414,2.280996 -5.75676,2.280996 -2.557089,0 -4.608287,-2.059278 -4.841562,-2.302184 8.965452,-0.03551 17.605262,-0.09613 23.371702,-0.13901 -1.2075,1.37776 -3.36964,2.441194 -6.03943,2.441194 z m 12.25662,-2.487186 c 0.66439,-0.978755 0.95685,-2.926286 0,-4.138247 0,0 -17.92502,-0.812374 -36.322329,-0.864031 l -0.04806,-2.642216 c 0.628192,-0.522391 0.991576,-1.297064 0.991669,-2.114083 1.48e-4,-1.518965 -1.231255,-2.750367 -2.75022,-2.75022 -0.0053,-1.6e-5 -0.01069,-1.6e-5 -0.01601,0 -1.5125,0.0089 -2.733851,1.23769 -2.733679,2.75022 1.22e-4,0.816754 0.363292,1.591192 0.991156,2.113566 l -0.04806,2.642733 c -18.397212,0.05166 -36.321815,0.864031 -36.321815,0.864031 -0.956855,1.211961 -0.664395,3.159492 0,4.138247 0,0 17.791224,0.143737 31.053918,0.190685 l -0.350882,0.01551 c -1.194761,1.411988 -3.041393,2.280996 -5.756754,2.280996 -2.715366,0 -4.887558,-2.349208 -4.887558,-2.349208 l -1.8464,0.06821 c -1.194758,1.411988 -3.041388,2.280996 -5.756754,2.280996 -2.715366,0 -4.887558,-2.349208 -4.887555,-2.349208 h -1.952336 c 0,0 -4.127402,15.554926 0.39429,30.842561 4.18841,14.16081 9.068993,21.694958 12.931511,26.401488 -2.048558,-0.305184 -4.026189,-0.64911 -5.928321,-1.020609 l 0.291973,-5.054989 -4.050398,-0.707967 -0.503846,4.859137 C 57.501327,87.269102 56.24155,86.960299 55.027145,86.64536 l 0.497128,-4.872572 -4.018875,-0.86868 -0.6966,4.576979 C 41.515885,82.745412 35.937354,79.998732 35.937354,79.998732 l 0.760677,-3.692797 -9.66711,-3.149679 -1.52032,1.628841 c 0,0 3.186173,20.456146 8.182446,29.362553 4.981554,8.88017 13.634093,11.22617 20.239075,11.22617 h 58.523548 c 6.80785,0 11.13478,-2.1899 15.07567,-6.81275 l 1.60403,1.29191 c -1.43646,1.93308 -2.10643,2.87502 -2.10643,2.87502 l 0.65164,1.73788 c 0,0 6.22878,1.27933 12.37754,0.0264 6.14876,-1.25296 8.80661,-5.49348 9.22217,-9.44128 0.41557,-3.9478 -0.73377,-9.691282 0.44959,-15.892057 0.38785,-2.032336 0.89909,-4.092901 1.41128,-5.950543 1.0256,0.2086 1.92494,0.380804 2.53163,0.471805 l 0.98495,-4.147031 c 0,0 -0.92296,-0.15866 -2.29908,-0.415997 0.51563,-1.617787 0.88728,-2.661854 0.88728,-2.661854 l -6.59391,-1.380275 c 0,0 -0.43734,1.129212 -1.03353,2.648415 -2.59063,-0.593082 -5.29477,-1.289624 -7.46001,-2.030367 -6.10154,-2.08737 -10.90602,-4.070599 -19.50785,-0.84491 l 0.76843,3.763079 c 0,0 6.91178,-1.535901 14.43839,0.460954 3.30389,0.876544 6.91315,1.77505 10.20558,2.554883 -0.83583,2.077186 -1.76087,4.348911 -2.77347,6.736022 l -1.87121,-0.730184 c 0.6746,-1.602676 1.24423,-3.088629 1.65882,-4.362008 l -1.30587,-2.022615 -6.37429,1.228865 -0.30747,2.380734 c 0,0 -4.3742,1.947582 -14.22641,3.630785 -0.52375,-0.836224 -8.8934,-14.510139 -5.94693,-30.408997 3.02849,-16.341413 9.23755,-25.864558 9.29183,-25.938467 1.24474,-0.0096 4.10673,-0.03049 4.10673,-0.03049 z m -30.685982,0.189135 -0.510564,0.02482 c -1.131953,1.256972 -2.753344,2.130475 -4.986258,2.445326 l -0.04496,-2.45618 c 1.718035,-0.0021 3.555643,-0.0067 5.54178,-0.01394 z m -13.246219,0.0062 c 1.402686,0.0044 2.652006,0.0061 3.902086,0.0078 l -0.04134,2.279965 C 84.13887,33.954045 82.620709,32.538103 82.382571,32.306082 Z m 32.788181,56.734017 c -1.66469,0.255313 -2.98446,0.34553 -4.87826,0.570508 l -0.078,-3.877283 c 2.2224,1.237006 3.95984,2.432391 4.95629,3.306775 z m -8.86199,-3.930509 -0.0284,4.928896 c -1.14683,0.109022 -2.31952,0.212188 -3.53674,0.303858 l 0.17312,-4.989875 -3.891752,0.252698 -0.22066,4.989359 c -2.42765,0.132321 -4.210399,0.224806 -6.882265,0.269235 l -0.207228,-10.91459 c 5.983981,0.286287 12.063805,2.498762 16.664095,4.816761 z M 85.423211,79.756605 85.218053,90.87197 c -0.09068,4.913039 -9.598361,-0.490001 -13.995527,-1.068668 0.729853,-2.012059 3.959572,-8.805298 14.200685,-10.046697 z m 51.450829,13.475127 1.90118,0.855763 c -0.71204,1.563908 -1.21322,2.601488 -1.84559,3.82694 -1.10873,2.148545 -2.41122,4.296735 -3.70107,6.270415 l -1.78335,-1.01854 c 1.87651,-3.04415 3.68476,-6.328582 5.42883,-9.934578 z" />
      <g
         id="g1168">
        <path
           transform="scale(0.26458333)"
           d="m 192.66602,303.7793 -2.87305,18.88281 16.00976,4.51562 2.05274,-20.11523 z m 29.50586,6.82226 -2.11915,20.4336 16.17774,3.875 1.25,-21.63282 z m 191.89008,8.72869 -14.26527,0.34304 -0.11896,20.82085 15.2461,-2.26953 z m -27.0854,1.26155 -14.70898,0.95508 -0.91797,20.77734 14.91406,-1.20117 z"
           style="font-variation-settings:normal;opacity:1;vector-effect:none;fill:#cccccc;fill-opacity:1;fill-rule:evenodd;stroke:none;stroke-width:0.999999;stroke-linecap:butt;stroke-linejoin:miter;stroke-miterlimit:4;stroke-dasharray:none;stroke-dashoffset:0;stroke-opacity:1;marker:none;marker-start:none;marker-mid:none;marker-end:none;stop-color:#000000;stop-opacity:1"
           id="path898" />
        <path
           id="path1170"
           style="font-variation-settings:normal;opacity:1;vector-effect:none;fill:#ffffff;fill-opacity:1;fill-rule:evenodd;stroke:none;stroke-width:0.999999;stroke-linecap:butt;stroke-linejoin:miter;stroke-miterlimit:4;stroke-dasharray:none;stroke-dashoffset:0;stroke-opacity:1;marker:none;marker-start:none;marker-mid:none;marker-end:none;stop-color:#000000;stop-opacity:1"
           d="m 192.66602,303.7793 -2.87305,18.88281 3.08151,1.20202 2.47832,-15.8446 12.11818,2.81064 0.38449,-3.76767 z m 29.50586,6.82226 -2.11915,20.4336 3.0627,0.58602 2.37484,-17.03032 11.76499,2.58397 0.22521,-3.89749 z m 191.89008,8.72869 -14.26527,0.34304 -0.11896,20.82085 4.5059,0.0527 -0.57687,-17.87139 10.56843,-0.863 z m -27.0854,1.26155 -14.70898,0.95508 -0.91797,20.77734 4.17386,-0.33034 0.74857,-17.26275 10.60093,-1.15586 z"
           transform="scale(0.26458333)" />
      </g>
      <g
         id="g1287">
        <path
           style="font-variation-settings:normal;opacity:1;vector-effect:none;fill:#cccccc;fill-opacity:1;fill-rule:evenodd;stroke:none;stroke-width:0.264583;stroke-linecap:butt;stroke-linejoin:miter;stroke-miterlimit:4;stroke-dasharray:none;stroke-dashoffset:0;stroke-opacity:1;marker:none;marker-start:none;marker-mid:none;marker-end:none;stop-color:#000000;stop-opacity:1"
           d="M 84.683483,90.626508 85.906471,23.49696 h 3.500708 l 1.222988,67.129548 z"
           id="path909" />
        <path
           id="path1297"
           d="M 85.34289,90.626508 86.265605,23.49696 h 0.670319 l -0.254479,67.129548 z"
           style="font-variation-settings:normal;opacity:1;vector-effect:none;fill:#ffffff;fill-opacity:1;fill-rule:evenodd;stroke:none;stroke-width:0.264583;stroke-linecap:butt;stroke-linejoin:miter;stroke-miterlimit:4;stroke-dasharray:none;stroke-dashoffset:0;stroke-opacity:1;marker:none;marker-start:none;marker-mid:none;marker-end:none;stop-color:#000000;stop-opacity:1" />
        <path
           d="m 87.656664,27.120316 c -0.647485,0 -1.293343,0.0036 -1.940381,0.0055 l -0.10048,5.530692 c 0.665168,8.43e-4 1.427595,0.0033 2.040859,0.0033 0.613206,0 1.37576,-0.0025 2.040861,-0.0033 l -0.100481,-5.530692 c -0.646942,-0.002 -1.292991,-0.0055 -1.94038,-0.0055 z"
           style="font-variation-settings:normal;vector-effect:none;fill:#003580;fill-opacity:1;fill-rule:evenodd;stroke:none;stroke-width:0.264583;stroke-linecap:butt;stroke-linejoin:miter;stroke-miterlimit:4;stroke-dasharray:none;stroke-dashoffset:0;stroke-opacity:1;marker:none;marker-start:none;marker-mid:none;marker-end:none;stop-color:#000000"
           id="path1272" />
        <path
           id="path1295"
           style="font-variation-settings:normal;vector-effect:none;fill:#003580;fill-opacity:1;fill-rule:evenodd;stroke:none;stroke-width:0.264583;stroke-linecap:butt;stroke-linejoin:miter;stroke-miterlimit:4;stroke-dasharray:none;stroke-dashoffset:0;stroke-opacity:1;marker:none;marker-start:none;marker-mid:none;marker-end:none;stop-color:#000000"
           d="m 87.656668,74.745319 c -0.923159,0 -1.843997,0.0036 -2.766518,0.0055 l -0.565108,5.163152 c 0,0 1.928065,-0.414275 3.331623,-0.414275 1.403427,0 2.909778,0.347357 2.909778,0.347357 l -0.143261,-5.096234 c -0.922385,-0.002 -1.843496,-0.0055 -2.766517,-0.0055 z" />
      </g>
      <g
         id="g1265">
        <path
           id="path930"
           d="m 125.78539,31.581563 c 0.66439,-0.978754 0.95685,-2.926309 0,-4.138271 0,0 -19.11617,-0.868918 -38.128565,-0.868918 -19.012394,0 -38.128564,0.868918 -38.128564,0.868918 -0.956854,1.211962 -0.664394,3.159517 0,4.138271 0,0 25.418856,0.206312 38.128564,0.206312 12.709705,0 38.128565,-0.206312 38.128565,-0.206312 z"
           style="font-variation-settings:normal;vector-effect:none;fill:#cccccc;fill-opacity:1;fill-rule:evenodd;stroke:none;stroke-width:0.264583;stroke-linecap:butt;stroke-linejoin:miter;stroke-miterlimit:4;stroke-dasharray:none;stroke-dashoffset:0;stroke-opacity:1;marker:none;marker-start:none;marker-mid:none;marker-end:none;stop-color:#000000" />
        <path
           id="path1269"
           style="font-variation-settings:normal;vector-effect:none;fill:#ffffff;fill-opacity:1;fill-rule:evenodd;stroke:none;stroke-width:0.999999;stroke-linecap:butt;stroke-linejoin:miter;stroke-miterlimit:4;stroke-dasharray:none;stroke-dashoffset:0;stroke-opacity:1;marker:none;marker-start:none;marker-mid:none;marker-end:none;stop-color:#000000"
           d="m 331.30078,100.43945 c -71.85787,0 -144.10742,3.28321 -144.10742,3.28321 -3.61646,4.58064 -2.5111,11.94139 0,15.64062 0,0 3.39181,0.0237 3.59961,0.0254 -2.12409,-3.11967 -2.31759,-9.44043 0.0664,-12.92969 0,0 71.33776,-2.73632 142.28906,-2.73632 68.55,0 138.96811,2.50481 143.75586,2.67773 -0.36324,-0.95543 -0.85028,-1.8622 -1.49414,-2.67773 0,0 -72.25151,-3.28321 -144.10938,-3.28321 z"
           transform="scale(0.26458333)" />
      </g>
      <g
         id="g1253">
        <path
           id="path985"
           d="m 121.30441,32.05888 c 0,0 -6.64501,9.086317 -9.68532,25.491514 -3.0403,16.405197 6.04177,30.567246 6.04177,30.567246 l -2.30407,0.460813 c -3.07208,-2.764877 -12.33096,-9.677068 -27.187949,-9.677068 -14.856987,0 -17.659325,10.931681 -17.659325,10.931681 l -1.029193,0.332628 C 65.486613,85.557568 60.100084,77.985289 55.53827,62.562015 51.016574,47.27438 55.143926,31.719279 55.143926,31.719279 h 1.952344 c 0,0 2.172292,2.349503 4.887657,2.349503 2.715365,0 4.561814,-0.868916 5.756574,-2.280906 l 1.84646,-0.0686 c 0,0 2.172292,2.349503 4.887657,2.349503 2.715365,0 4.561814,-0.868916 5.756574,-2.280906 l 1.56102,-0.06969 c 0,0 2.611608,2.654066 5.876119,2.654066 3.264509,0 5.484378,-0.981553 6.920762,-2.576577 l 1.561766,-0.07639 c 0,0 2.172292,2.349503 4.887661,2.349503 2.71536,0 4.56181,-0.868916 5.75657,-2.280906 l 1.84644,-0.0686 c 0,0 2.17229,2.349503 4.88766,2.349503 2.71536,0 4.56181,-0.868916 5.75657,-2.280906 z"
           style="font-variation-settings:normal;opacity:1;vector-effect:none;fill:#cccccc;fill-opacity:1;fill-rule:evenodd;stroke:none;stroke-width:0.264583;stroke-linecap:butt;stroke-linejoin:miter;stroke-miterlimit:4;stroke-dasharray:none;stroke-dashoffset:0;stroke-opacity:1;marker:none;marker-start:none;marker-mid:none;marker-end:none;stop-color:#000000;stop-opacity:1" />
        <path
           id="path1255"
           style="font-variation-settings:normal;opacity:1;vector-effect:none;fill:#ffffff;fill-opacity:1;fill-rule:evenodd;stroke:none;stroke-width:0.999999;stroke-linecap:butt;stroke-linejoin:miter;stroke-miterlimit:4;stroke-dasharray:none;stroke-dashoffset:0;stroke-opacity:1;marker:none;marker-start:none;marker-mid:none;marker-end:none;stop-color:#000000;stop-opacity:1"
           d="m 309.13672,119.87891 -5.90039,0.26367 c -4.51563,5.33665 -11.49502,8.62109 -21.75781,8.62109 -10.2628,0 -18.47266,-8.8789 -18.47266,-8.8789 l -6.97852,0.25781 c -4.51562,5.33665 -11.49501,8.62109 -21.75781,8.62109 -10.2628,0 -18.47265,-8.8789 -18.47265,-8.8789 h -7.37891 c 0,0 -15.59964,58.79027 1.49023,116.57031 17.2415,58.29269 37.60098,86.91158 52.69532,104.32812 l 3.37109,-1.08789 0.66016,-0.66406 c 0.042,-0.13873 0.13041,-0.39436 0.19335,-0.58789 -14.95599,-17.28869 -34.94877,-44.44178 -51.98632,-102.04492 -16.95486,-57.32356 -1.47852,-115.65039 -1.47852,-115.65039 l 1.36719,1.54687 c 0,0 8.95632,9.68555 20.15039,9.68555 11.19406,0 18.80508,-3.58143 23.73047,-9.40235 -3.3173,4.81369 -9.2628,24.84304 -5.24414,41.10938 0.35966,-15.49298 2.43786,-29.75795 8.19922,-41.39258 0,0 8.95632,9.68555 20.15039,9.68555 11.19406,0 18.80508,-3.58143 23.73047,-9.40235 -2.2069,4.40342 -7.94446,22.81674 -4.00782,39.33399 0.66753,-15.10305 2.83102,-29.10691 7.34375,-39.5957 0,0 9.15112,10.77539 22.4043,10.77539 13.25317,0 21.44399,-3.98355 27.27539,-10.45899 -6.00507,11.14662 -8.6267,23.57327 -8.81445,38.03907 2.20776,-16.60705 6.87376,-28.29827 12.3457,-38.37696 0,0 8.13404,9.68555 19.32813,9.68555 11.19405,0 18.80502,-3.58143 23.73046,-9.40235 -5.95098,13.02323 -9.48337,27.85954 -11.05664,44.16602 4.21157,-16.99022 8.86177,-32.8861 15.24414,-44.44922 0,0 7.72388,9.68555 18.91797,9.68555 11.19406,0 18.80466,-3.58247 24.44727,-9.70703 0,0 -9.73768,13.18677 -21.3457,50.55859 0,0 14.00889,-37.50034 26.32421,-50.63672 l 0.29688,-1.10742 -7.03711,-0.94531 c -4.51563,5.33665 -11.49503,8.62109 -21.75781,8.62109 -10.26282,0 -18.47266,-8.8789 -18.47266,-8.8789 l -6.97851,0.25781 c -4.51563,5.33665 -11.49504,8.62109 -21.75782,8.62109 -10.26281,0 -18.47265,-8.8789 -18.47265,-8.8789 l -5.90235,0.28711 c -5.42885,6.02843 -13.81795,9.73828 -26.15625,9.73828 -12.33831,0 -22.20898,-10.03125 -22.20898,-10.03125 z"
           transform="scale(0.26458333)" />
      </g>
      <g
         id="g1239">
        <g
           id="g953">
          <path
             transform="scale(0.26458333)"
             d="m 312.9668,100.24414 c -2.72529,0.0191 -5.45273,0.036 -8.15821,0.0625 -1.4099,2.40003 -2.39843,5.827 -2.39843,9.94922 0,4.20658 1.0278,7.69267 2.48437,10.09766 2.74161,0.009 5.4649,0.0202 8.08789,0.0273 -0.23695,-2.47587 -3.1914,-4.76077 -3.1914,-10.125 0,-5.28334 2.86282,-7.57816 3.17578,-10.01172 z"
             style="color:#000000;font-style:normal;font-variant:normal;font-weight:normal;font-stretch:normal;font-size:medium;line-height:normal;font-family:sans-serif;font-variant-ligatures:normal;font-variant-position:normal;font-variant-caps:normal;font-variant-numeric:normal;font-variant-alternates:normal;font-variant-east-asian:normal;font-feature-settings:normal;font-variation-settings:normal;text-indent:0;text-align:start;text-decoration:none;text-decoration-line:none;text-decoration-style:solid;text-decoration-color:#000000;letter-spacing:normal;word-spacing:normal;text-transform:none;writing-mode:lr-tb;direction:ltr;text-orientation:mixed;dominant-baseline:auto;baseline-shift:baseline;text-anchor:start;white-space:normal;shape-padding:0;shape-margin:0;inline-size:0;clip-rule:nonzero;display:inline;overflow:visible;visibility:visible;opacity:1;isolation:auto;mix-blend-mode:normal;color-interpolation:sRGB;color-interpolation-filters:linearRGB;solid-color:#000000;solid-opacity:1;vector-effect:none;fill:#003580;fill-opacity:1;fill-rule:evenodd;stroke:none;stroke-width:0.999999;stroke-linecap:butt;stroke-linejoin:miter;stroke-miterlimit:4;stroke-dasharray:none;stroke-dashoffset:0;stroke-opacity:1;marker:none;color-rendering:auto;image-rendering:auto;shape-rendering:auto;text-rendering:auto;enable-background:accumulate;stop-color:#000000;stop-opacity:1"
             id="path1224" />
          <path
             d="m 80.679948,32.494203 c 0.649936,0.525016 1.540894,0.229594 1.603072,-0.490208 0.06218,-0.719803 -0.846541,-1.302821 -0.846541,-2.831885 0,-1.529064 0.908724,-2.112082 0.846541,-2.831885 -0.06218,-0.719802 -0.953136,-1.015224 -1.603072,-0.490208 -0.649936,0.525017 -1.196596,1.736586 -1.196596,3.322093 0,1.585507 0.54666,2.797076 1.196596,3.322093 z"
             style="color:#000000;font-style:normal;font-variant:normal;font-weight:normal;font-stretch:normal;font-size:medium;line-height:normal;font-family:sans-serif;font-variant-ligatures:normal;font-variant-position:normal;font-variant-caps:normal;font-variant-numeric:normal;font-variant-alternates:normal;font-variant-east-asian:normal;font-feature-settings:normal;font-variation-settings:normal;text-indent:0;text-align:start;text-decoration:none;text-decoration-line:none;text-decoration-style:solid;text-decoration-color:#000000;letter-spacing:normal;word-spacing:normal;text-transform:none;writing-mode:lr-tb;direction:ltr;text-orientation:mixed;dominant-baseline:auto;baseline-shift:baseline;text-anchor:start;white-space:normal;shape-padding:0;shape-margin:0;inline-size:0;clip-rule:nonzero;display:inline;overflow:visible;visibility:visible;opacity:1;isolation:auto;mix-blend-mode:normal;color-interpolation:sRGB;color-interpolation-filters:linearRGB;solid-color:#000000;solid-opacity:1;vector-effect:none;fill:#cccccc;fill-opacity:1;fill-rule:evenodd;stroke:none;stroke-width:0.264583;stroke-linecap:butt;stroke-linejoin:miter;stroke-miterlimit:4;stroke-dasharray:none;stroke-dashoffset:0;stroke-opacity:1;marker:none;color-rendering:auto;image-rendering:auto;shape-rendering:auto;text-rendering:auto;enable-background:accumulate;stop-color:#000000;stop-opacity:1"
             id="path950" />
          <path
             transform="scale(0.26458333)"
             d="m 307.86719,96.697266 c -0.96415,-0.04906 -2.01438,0.259789 -2.93555,1.003906 -2.45645,1.984316 -4.52148,6.562218 -4.52148,12.554688 0,5.99247 2.06503,10.57232 4.52148,12.55664 1.24498,1.00569 2.72358,1.21276 3.91016,0.82031 -0.6809,-0.0986 -1.37691,-0.38293 -2.00782,-0.89258 -2.28178,-1.84322 -4.20117,-6.09573 -4.20117,-11.66211 0,-5.56637 1.91939,-9.82083 4.20117,-11.664058 1.28499,-1.038008 2.83932,-1.161708 3.99024,-0.621093 -0.43066,-1.252817 -1.60672,-2.026989 -2.95703,-2.095703 z"
             style="color:#000000;font-style:normal;font-variant:normal;font-weight:normal;font-stretch:normal;font-size:medium;line-height:normal;font-family:sans-serif;font-variant-ligatures:normal;font-variant-position:normal;font-variant-caps:normal;font-variant-numeric:normal;font-variant-alternates:normal;font-variant-east-asian:normal;font-feature-settings:normal;font-variation-settings:normal;text-indent:0;text-align:start;text-decoration:none;text-decoration-line:none;text-decoration-style:solid;text-decoration-color:#000000;letter-spacing:normal;word-spacing:normal;text-transform:none;writing-mode:lr-tb;direction:ltr;text-orientation:mixed;dominant-baseline:auto;baseline-shift:baseline;text-anchor:start;white-space:normal;shape-padding:0;shape-margin:0;inline-size:0;clip-rule:nonzero;display:inline;overflow:visible;visibility:visible;opacity:1;isolation:auto;mix-blend-mode:normal;color-interpolation:sRGB;color-interpolation-filters:linearRGB;solid-color:#000000;solid-opacity:1;vector-effect:none;fill:#ffffff;fill-opacity:1;fill-rule:evenodd;stroke:none;stroke-width:0.999999;stroke-linecap:butt;stroke-linejoin:miter;stroke-miterlimit:4;stroke-dasharray:none;stroke-dashoffset:0;stroke-opacity:1;marker:none;color-rendering:auto;image-rendering:auto;shape-rendering:auto;text-rendering:auto;enable-background:accumulate;stop-color:#000000;stop-opacity:1"
             id="path1221" />
        </g>
        <g
           id="use955"
           style="fill:#003580;fill-opacity:1;stroke-width:1.02117"
           transform="matrix(1,0,0,0.9589639,-12.490679,1.3498061)">
          <path
             transform="scale(0.26458333)"
             d="m 312.9668,100.24414 c -2.72529,0.0191 -5.45273,0.036 -8.15821,0.0625 -1.4099,2.40003 -2.39843,5.827 -2.39843,9.94922 0,4.20658 1.0278,7.69267 2.48437,10.09766 2.74161,0.009 5.4649,0.0202 8.08789,0.0273 -0.23695,-2.47587 -3.1914,-4.76077 -3.1914,-10.125 0,-5.28334 2.86282,-7.57816 3.17578,-10.01172 z"
             style="color:#000000;font-style:normal;font-variant:normal;font-weight:normal;font-stretch:normal;font-size:medium;line-height:normal;font-family:sans-serif;font-variant-ligatures:normal;font-variant-position:normal;font-variant-caps:normal;font-variant-numeric:normal;font-variant-alternates:normal;font-variant-east-asian:normal;font-feature-settings:normal;font-variation-settings:normal;text-indent:0;text-align:start;text-decoration:none;text-decoration-line:none;text-decoration-style:solid;text-decoration-color:#000000;letter-spacing:normal;word-spacing:normal;text-transform:none;writing-mode:lr-tb;direction:ltr;text-orientation:mixed;dominant-baseline:auto;baseline-shift:baseline;text-anchor:start;white-space:normal;shape-padding:0;shape-margin:0;inline-size:0;clip-rule:nonzero;display:inline;overflow:visible;visibility:visible;opacity:1;isolation:auto;mix-blend-mode:normal;color-interpolation:sRGB;color-interpolation-filters:linearRGB;solid-color:#000000;solid-opacity:1;vector-effect:none;fill:#003580;fill-opacity:1;fill-rule:evenodd;stroke:none;stroke-width:0.999999;stroke-linecap:butt;stroke-linejoin:miter;stroke-miterlimit:4;stroke-dasharray:none;stroke-dashoffset:0;stroke-opacity:1;marker:none;color-rendering:auto;image-rendering:auto;shape-rendering:auto;text-rendering:auto;enable-background:accumulate;stop-color:#000000;stop-opacity:1"
             id="path2259" />
          <path
             d="m 80.679948,32.494203 c 0.649936,0.525016 1.540894,0.229594 1.603072,-0.490208 0.06218,-0.719803 -0.846541,-1.302821 -0.846541,-2.831885 0,-1.529064 0.908724,-2.112082 0.846541,-2.831885 -0.06218,-0.719802 -0.953136,-1.015224 -1.603072,-0.490208 -0.649936,0.525017 -1.196596,1.736586 -1.196596,3.322093 0,1.585507 0.54666,2.797076 1.196596,3.322093 z"
             style="color:#000000;font-style:normal;font-variant:normal;font-weight:normal;font-stretch:normal;font-size:medium;line-height:normal;font-family:sans-serif;font-variant-ligatures:normal;font-variant-position:normal;font-variant-caps:normal;font-variant-numeric:normal;font-variant-alternates:normal;font-variant-east-asian:normal;font-feature-settings:normal;font-variation-settings:normal;text-indent:0;text-align:start;text-decoration:none;text-decoration-line:none;text-decoration-style:solid;text-decoration-color:#000000;letter-spacing:normal;word-spacing:normal;text-transform:none;writing-mode:lr-tb;direction:ltr;text-orientation:mixed;dominant-baseline:auto;baseline-shift:baseline;text-anchor:start;white-space:normal;shape-padding:0;shape-margin:0;inline-size:0;clip-rule:nonzero;display:inline;overflow:visible;visibility:visible;opacity:1;isolation:auto;mix-blend-mode:normal;color-interpolation:sRGB;color-interpolation-filters:linearRGB;solid-color:#000000;solid-opacity:1;vector-effect:none;fill:#cccccc;fill-opacity:1;fill-rule:evenodd;stroke:none;stroke-width:0.264583;stroke-linecap:butt;stroke-linejoin:miter;stroke-miterlimit:4;stroke-dasharray:none;stroke-dashoffset:0;stroke-opacity:1;marker:none;color-rendering:auto;image-rendering:auto;shape-rendering:auto;text-rendering:auto;enable-background:accumulate;stop-color:#000000;stop-opacity:1"
             id="path2261" />
          <path
             transform="scale(0.26458333)"
             d="m 307.86719,96.697266 c -0.96415,-0.04906 -2.01438,0.259789 -2.93555,1.003906 -2.45645,1.984316 -4.52148,6.562218 -4.52148,12.554688 0,5.99247 2.06503,10.57232 4.52148,12.55664 1.24498,1.00569 2.72358,1.21276 3.91016,0.82031 -0.6809,-0.0986 -1.37691,-0.38293 -2.00782,-0.89258 -2.28178,-1.84322 -4.20117,-6.09573 -4.20117,-11.66211 0,-5.56637 1.91939,-9.82083 4.20117,-11.664058 1.28499,-1.038008 2.83932,-1.161708 3.99024,-0.621093 -0.43066,-1.252817 -1.60672,-2.026989 -2.95703,-2.095703 z"
             style="color:#000000;font-style:normal;font-variant:normal;font-weight:normal;font-stretch:normal;font-size:medium;line-height:normal;font-family:sans-serif;font-variant-ligatures:normal;font-variant-position:normal;font-variant-caps:normal;font-variant-numeric:normal;font-variant-alternates:normal;font-variant-east-asian:normal;font-feature-settings:normal;font-variation-settings:normal;text-indent:0;text-align:start;text-decoration:none;text-decoration-line:none;text-decoration-style:solid;text-decoration-color:#000000;letter-spacing:normal;word-spacing:normal;text-transform:none;writing-mode:lr-tb;direction:ltr;text-orientation:mixed;dominant-baseline:auto;baseline-shift:baseline;text-anchor:start;white-space:normal;shape-padding:0;shape-margin:0;inline-size:0;clip-rule:nonzero;display:inline;overflow:visible;visibility:visible;opacity:1;isolation:auto;mix-blend-mode:normal;color-interpolation:sRGB;color-interpolation-filters:linearRGB;solid-color:#000000;solid-opacity:1;vector-effect:none;fill:#ffffff;fill-opacity:1;fill-rule:evenodd;stroke:none;stroke-width:0.999999;stroke-linecap:butt;stroke-linejoin:miter;stroke-miterlimit:4;stroke-dasharray:none;stroke-dashoffset:0;stroke-opacity:1;marker:none;color-rendering:auto;image-rendering:auto;shape-rendering:auto;text-rendering:auto;enable-background:accumulate;stop-color:#000000;stop-opacity:1"
             id="path2263" />
        </g>
        <g
           id="use957"
           style="fill:#003580;fill-opacity:1;stroke-width:1.05718"
           transform="matrix(1,0,0,0.89475332,-24.981357,3.4534052)">
          <path
             transform="scale(0.26458333)"
             d="m 312.9668,100.24414 c -2.72529,0.0191 -5.45273,0.036 -8.15821,0.0625 -1.4099,2.40003 -2.39843,5.827 -2.39843,9.94922 0,4.20658 1.0278,7.69267 2.48437,10.09766 2.74161,0.009 5.4649,0.0202 8.08789,0.0273 -0.23695,-2.47587 -3.1914,-4.76077 -3.1914,-10.125 0,-5.28334 2.86282,-7.57816 3.17578,-10.01172 z"
             style="color:#000000;font-style:normal;font-variant:normal;font-weight:normal;font-stretch:normal;font-size:medium;line-height:normal;font-family:sans-serif;font-variant-ligatures:normal;font-variant-position:normal;font-variant-caps:normal;font-variant-numeric:normal;font-variant-alternates:normal;font-variant-east-asian:normal;font-feature-settings:normal;font-variation-settings:normal;text-indent:0;text-align:start;text-decoration:none;text-decoration-line:none;text-decoration-style:solid;text-decoration-color:#000000;letter-spacing:normal;word-spacing:normal;text-transform:none;writing-mode:lr-tb;direction:ltr;text-orientation:mixed;dominant-baseline:auto;baseline-shift:baseline;text-anchor:start;white-space:normal;shape-padding:0;shape-margin:0;inline-size:0;clip-rule:nonzero;display:inline;overflow:visible;visibility:visible;opacity:1;isolation:auto;mix-blend-mode:normal;color-interpolation:sRGB;color-interpolation-filters:linearRGB;solid-color:#000000;solid-opacity:1;vector-effect:none;fill:#003580;fill-opacity:1;fill-rule:evenodd;stroke:none;stroke-width:0.999999;stroke-linecap:butt;stroke-linejoin:miter;stroke-miterlimit:4;stroke-dasharray:none;stroke-dashoffset:0;stroke-opacity:1;marker:none;color-rendering:auto;image-rendering:auto;shape-rendering:auto;text-rendering:auto;enable-background:accumulate;stop-color:#000000;stop-opacity:1"
             id="path2251" />
          <path
             d="m 80.679948,32.494203 c 0.649936,0.525016 1.540894,0.229594 1.603072,-0.490208 0.06218,-0.719803 -0.846541,-1.302821 -0.846541,-2.831885 0,-1.529064 0.908724,-2.112082 0.846541,-2.831885 -0.06218,-0.719802 -0.953136,-1.015224 -1.603072,-0.490208 -0.649936,0.525017 -1.196596,1.736586 -1.196596,3.322093 0,1.585507 0.54666,2.797076 1.196596,3.322093 z"
             style="color:#000000;font-style:normal;font-variant:normal;font-weight:normal;font-stretch:normal;font-size:medium;line-height:normal;font-family:sans-serif;font-variant-ligatures:normal;font-variant-position:normal;font-variant-caps:normal;font-variant-numeric:normal;font-variant-alternates:normal;font-variant-east-asian:normal;font-feature-settings:normal;font-variation-settings:normal;text-indent:0;text-align:start;text-decoration:none;text-decoration-line:none;text-decoration-style:solid;text-decoration-color:#000000;letter-spacing:normal;word-spacing:normal;text-transform:none;writing-mode:lr-tb;direction:ltr;text-orientation:mixed;dominant-baseline:auto;baseline-shift:baseline;text-anchor:start;white-space:normal;shape-padding:0;shape-margin:0;inline-size:0;clip-rule:nonzero;display:inline;overflow:visible;visibility:visible;opacity:1;isolation:auto;mix-blend-mode:normal;color-interpolation:sRGB;color-interpolation-filters:linearRGB;solid-color:#000000;solid-opacity:1;vector-effect:none;fill:#cccccc;fill-opacity:1;fill-rule:evenodd;stroke:none;stroke-width:0.264583;stroke-linecap:butt;stroke-linejoin:miter;stroke-miterlimit:4;stroke-dasharray:none;stroke-dashoffset:0;stroke-opacity:1;marker:none;color-rendering:auto;image-rendering:auto;shape-rendering:auto;text-rendering:auto;enable-background:accumulate;stop-color:#000000;stop-opacity:1"
             id="path2253" />
          <path
             transform="scale(0.26458333)"
             d="m 307.86719,96.697266 c -0.96415,-0.04906 -2.01438,0.259789 -2.93555,1.003906 -2.45645,1.984316 -4.52148,6.562218 -4.52148,12.554688 0,5.99247 2.06503,10.57232 4.52148,12.55664 1.24498,1.00569 2.72358,1.21276 3.91016,0.82031 -0.6809,-0.0986 -1.37691,-0.38293 -2.00782,-0.89258 -2.28178,-1.84322 -4.20117,-6.09573 -4.20117,-11.66211 0,-5.56637 1.91939,-9.82083 4.20117,-11.664058 1.28499,-1.038008 2.83932,-1.161708 3.99024,-0.621093 -0.43066,-1.252817 -1.60672,-2.026989 -2.95703,-2.095703 z"
             style="color:#000000;font-style:normal;font-variant:normal;font-weight:normal;font-stretch:normal;font-size:medium;line-height:normal;font-family:sans-serif;font-variant-ligatures:normal;font-variant-position:normal;font-variant-caps:normal;font-variant-numeric:normal;font-variant-alternates:normal;font-variant-east-asian:normal;font-feature-settings:normal;font-variation-settings:normal;text-indent:0;text-align:start;text-decoration:none;text-decoration-line:none;text-decoration-style:solid;text-decoration-color:#000000;letter-spacing:normal;word-spacing:normal;text-transform:none;writing-mode:lr-tb;direction:ltr;text-orientation:mixed;dominant-baseline:auto;baseline-shift:baseline;text-anchor:start;white-space:normal;shape-padding:0;shape-margin:0;inline-size:0;clip-rule:nonzero;display:inline;overflow:visible;visibility:visible;opacity:1;isolation:auto;mix-blend-mode:normal;color-interpolation:sRGB;color-interpolation-filters:linearRGB;solid-color:#000000;solid-opacity:1;vector-effect:none;fill:#ffffff;fill-opacity:1;fill-rule:evenodd;stroke:none;stroke-width:0.999999;stroke-linecap:butt;stroke-linejoin:miter;stroke-miterlimit:4;stroke-dasharray:none;stroke-dashoffset:0;stroke-opacity:1;marker:none;color-rendering:auto;image-rendering:auto;shape-rendering:auto;text-rendering:auto;enable-background:accumulate;stop-color:#000000;stop-opacity:1"
             id="path2255" />
        </g>
        <g
           id="use961"
           style="fill:#003580;fill-opacity:1"
           transform="translate(14.073222)">
          <path
             transform="scale(0.26458333)"
             d="m 312.9668,100.24414 c -2.72529,0.0191 -5.45273,0.036 -8.15821,0.0625 -1.4099,2.40003 -2.39843,5.827 -2.39843,9.94922 0,4.20658 1.0278,7.69267 2.48437,10.09766 2.74161,0.009 5.4649,0.0202 8.08789,0.0273 -0.23695,-2.47587 -3.1914,-4.76077 -3.1914,-10.125 0,-5.28334 2.86282,-7.57816 3.17578,-10.01172 z"
             style="color:#000000;font-style:normal;font-variant:normal;font-weight:normal;font-stretch:normal;font-size:medium;line-height:normal;font-family:sans-serif;font-variant-ligatures:normal;font-variant-position:normal;font-variant-caps:normal;font-variant-numeric:normal;font-variant-alternates:normal;font-variant-east-asian:normal;font-feature-settings:normal;font-variation-settings:normal;text-indent:0;text-align:start;text-decoration:none;text-decoration-line:none;text-decoration-style:solid;text-decoration-color:#000000;letter-spacing:normal;word-spacing:normal;text-transform:none;writing-mode:lr-tb;direction:ltr;text-orientation:mixed;dominant-baseline:auto;baseline-shift:baseline;text-anchor:start;white-space:normal;shape-padding:0;shape-margin:0;inline-size:0;clip-rule:nonzero;display:inline;overflow:visible;visibility:visible;opacity:1;isolation:auto;mix-blend-mode:normal;color-interpolation:sRGB;color-interpolation-filters:linearRGB;solid-color:#000000;solid-opacity:1;vector-effect:none;fill:#003580;fill-opacity:1;fill-rule:evenodd;stroke:none;stroke-width:0.999999;stroke-linecap:butt;stroke-linejoin:miter;stroke-miterlimit:4;stroke-dasharray:none;stroke-dashoffset:0;stroke-opacity:1;marker:none;color-rendering:auto;image-rendering:auto;shape-rendering:auto;text-rendering:auto;enable-background:accumulate;stop-color:#000000;stop-opacity:1"
             id="path2267" />
          <path
             d="m 80.679948,32.494203 c 0.649936,0.525016 1.540894,0.229594 1.603072,-0.490208 0.06218,-0.719803 -0.846541,-1.302821 -0.846541,-2.831885 0,-1.529064 0.908724,-2.112082 0.846541,-2.831885 -0.06218,-0.719802 -0.953136,-1.015224 -1.603072,-0.490208 -0.649936,0.525017 -1.196596,1.736586 -1.196596,3.322093 0,1.585507 0.54666,2.797076 1.196596,3.322093 z"
             style="color:#000000;font-style:normal;font-variant:normal;font-weight:normal;font-stretch:normal;font-size:medium;line-height:normal;font-family:sans-serif;font-variant-ligatures:normal;font-variant-position:normal;font-variant-caps:normal;font-variant-numeric:normal;font-variant-alternates:normal;font-variant-east-asian:normal;font-feature-settings:normal;font-variation-settings:normal;text-indent:0;text-align:start;text-decoration:none;text-decoration-line:none;text-decoration-style:solid;text-decoration-color:#000000;letter-spacing:normal;word-spacing:normal;text-transform:none;writing-mode:lr-tb;direction:ltr;text-orientation:mixed;dominant-baseline:auto;baseline-shift:baseline;text-anchor:start;white-space:normal;shape-padding:0;shape-margin:0;inline-size:0;clip-rule:nonzero;display:inline;overflow:visible;visibility:visible;opacity:1;isolation:auto;mix-blend-mode:normal;color-interpolation:sRGB;color-interpolation-filters:linearRGB;solid-color:#000000;solid-opacity:1;vector-effect:none;fill:#cccccc;fill-opacity:1;fill-rule:evenodd;stroke:none;stroke-width:0.264583;stroke-linecap:butt;stroke-linejoin:miter;stroke-miterlimit:4;stroke-dasharray:none;stroke-dashoffset:0;stroke-opacity:1;marker:none;color-rendering:auto;image-rendering:auto;shape-rendering:auto;text-rendering:auto;enable-background:accumulate;stop-color:#000000;stop-opacity:1"
             id="path2269" />
          <path
             transform="scale(0.26458333)"
             d="m 307.86719,96.697266 c -0.96415,-0.04906 -2.01438,0.259789 -2.93555,1.003906 -2.45645,1.984316 -4.52148,6.562218 -4.52148,12.554688 0,5.99247 2.06503,10.57232 4.52148,12.55664 1.24498,1.00569 2.72358,1.21276 3.91016,0.82031 -0.6809,-0.0986 -1.37691,-0.38293 -2.00782,-0.89258 -2.28178,-1.84322 -4.20117,-6.09573 -4.20117,-11.66211 0,-5.56637 1.91939,-9.82083 4.20117,-11.664058 1.28499,-1.038008 2.83932,-1.161708 3.99024,-0.621093 -0.43066,-1.252817 -1.60672,-2.026989 -2.95703,-2.095703 z"
             style="color:#000000;font-style:normal;font-variant:normal;font-weight:normal;font-stretch:normal;font-size:medium;line-height:normal;font-family:sans-serif;font-variant-ligatures:normal;font-variant-position:normal;font-variant-caps:normal;font-variant-numeric:normal;font-variant-alternates:normal;font-variant-east-asian:normal;font-feature-settings:normal;font-variation-settings:normal;text-indent:0;text-align:start;text-decoration:none;text-decoration-line:none;text-decoration-style:solid;text-decoration-color:#000000;letter-spacing:normal;word-spacing:normal;text-transform:none;writing-mode:lr-tb;direction:ltr;text-orientation:mixed;dominant-baseline:auto;baseline-shift:baseline;text-anchor:start;white-space:normal;shape-padding:0;shape-margin:0;inline-size:0;clip-rule:nonzero;display:inline;overflow:visible;visibility:visible;opacity:1;isolation:auto;mix-blend-mode:normal;color-interpolation:sRGB;color-interpolation-filters:linearRGB;solid-color:#000000;solid-opacity:1;vector-effect:none;fill:#ffffff;fill-opacity:1;fill-rule:evenodd;stroke:none;stroke-width:0.999999;stroke-linecap:butt;stroke-linejoin:miter;stroke-miterlimit:4;stroke-dasharray:none;stroke-dashoffset:0;stroke-opacity:1;marker:none;color-rendering:auto;image-rendering:auto;shape-rendering:auto;text-rendering:auto;enable-background:accumulate;stop-color:#000000;stop-opacity:1"
             id="path2271" />
        </g>
        <g
           id="use963"
           style="fill:#003580;fill-opacity:1;stroke-width:1.02117"
           transform="matrix(1,0,0,0.9589639,26.5639,1.3498061)">
          <path
             transform="scale(0.26458333)"
             d="m 312.9668,100.24414 c -2.72529,0.0191 -5.45273,0.036 -8.15821,0.0625 -1.4099,2.40003 -2.39843,5.827 -2.39843,9.94922 0,4.20658 1.0278,7.69267 2.48437,10.09766 2.74161,0.009 5.4649,0.0202 8.08789,0.0273 -0.23695,-2.47587 -3.1914,-4.76077 -3.1914,-10.125 0,-5.28334 2.86282,-7.57816 3.17578,-10.01172 z"
             style="color:#000000;font-style:normal;font-variant:normal;font-weight:normal;font-stretch:normal;font-size:medium;line-height:normal;font-family:sans-serif;font-variant-ligatures:normal;font-variant-position:normal;font-variant-caps:normal;font-variant-numeric:normal;font-variant-alternates:normal;font-variant-east-asian:normal;font-feature-settings:normal;font-variation-settings:normal;text-indent:0;text-align:start;text-decoration:none;text-decoration-line:none;text-decoration-style:solid;text-decoration-color:#000000;letter-spacing:normal;word-spacing:normal;text-transform:none;writing-mode:lr-tb;direction:ltr;text-orientation:mixed;dominant-baseline:auto;baseline-shift:baseline;text-anchor:start;white-space:normal;shape-padding:0;shape-margin:0;inline-size:0;clip-rule:nonzero;display:inline;overflow:visible;visibility:visible;opacity:1;isolation:auto;mix-blend-mode:normal;color-interpolation:sRGB;color-interpolation-filters:linearRGB;solid-color:#000000;solid-opacity:1;vector-effect:none;fill:#003580;fill-opacity:1;fill-rule:evenodd;stroke:none;stroke-width:0.999999;stroke-linecap:butt;stroke-linejoin:miter;stroke-miterlimit:4;stroke-dasharray:none;stroke-dashoffset:0;stroke-opacity:1;marker:none;color-rendering:auto;image-rendering:auto;shape-rendering:auto;text-rendering:auto;enable-background:accumulate;stop-color:#000000;stop-opacity:1"
             id="path2283" />
          <path
             d="m 80.679948,32.494203 c 0.649936,0.525016 1.540894,0.229594 1.603072,-0.490208 0.06218,-0.719803 -0.846541,-1.302821 -0.846541,-2.831885 0,-1.529064 0.908724,-2.112082 0.846541,-2.831885 -0.06218,-0.719802 -0.953136,-1.015224 -1.603072,-0.490208 -0.649936,0.525017 -1.196596,1.736586 -1.196596,3.322093 0,1.585507 0.54666,2.797076 1.196596,3.322093 z"
             style="color:#000000;font-style:normal;font-variant:normal;font-weight:normal;font-stretch:normal;font-size:medium;line-height:normal;font-family:sans-serif;font-variant-ligatures:normal;font-variant-position:normal;font-variant-caps:normal;font-variant-numeric:normal;font-variant-alternates:normal;font-variant-east-asian:normal;font-feature-settings:normal;font-variation-settings:normal;text-indent:0;text-align:start;text-decoration:none;text-decoration-line:none;text-decoration-style:solid;text-decoration-color:#000000;letter-spacing:normal;word-spacing:normal;text-transform:none;writing-mode:lr-tb;direction:ltr;text-orientation:mixed;dominant-baseline:auto;baseline-shift:baseline;text-anchor:start;white-space:normal;shape-padding:0;shape-margin:0;inline-size:0;clip-rule:nonzero;display:inline;overflow:visible;visibility:visible;opacity:1;isolation:auto;mix-blend-mode:normal;color-interpolation:sRGB;color-interpolation-filters:linearRGB;solid-color:#000000;solid-opacity:1;vector-effect:none;fill:#cccccc;fill-opacity:1;fill-rule:evenodd;stroke:none;stroke-width:0.264583;stroke-linecap:butt;stroke-linejoin:miter;stroke-miterlimit:4;stroke-dasharray:none;stroke-dashoffset:0;stroke-opacity:1;marker:none;color-rendering:auto;image-rendering:auto;shape-rendering:auto;text-rendering:auto;enable-background:accumulate;stop-color:#000000;stop-opacity:1"
             id="path2285" />
          <path
             transform="scale(0.26458333)"
             d="m 307.86719,96.697266 c -0.96415,-0.04906 -2.01438,0.259789 -2.93555,1.003906 -2.45645,1.984316 -4.52148,6.562218 -4.52148,12.554688 0,5.99247 2.06503,10.57232 4.52148,12.55664 1.24498,1.00569 2.72358,1.21276 3.91016,0.82031 -0.6809,-0.0986 -1.37691,-0.38293 -2.00782,-0.89258 -2.28178,-1.84322 -4.20117,-6.09573 -4.20117,-11.66211 0,-5.56637 1.91939,-9.82083 4.20117,-11.664058 1.28499,-1.038008 2.83932,-1.161708 3.99024,-0.621093 -0.43066,-1.252817 -1.60672,-2.026989 -2.95703,-2.095703 z"
             style="color:#000000;font-style:normal;font-variant:normal;font-weight:normal;font-stretch:normal;font-size:medium;line-height:normal;font-family:sans-serif;font-variant-ligatures:normal;font-variant-position:normal;font-variant-caps:normal;font-variant-numeric:normal;font-variant-alternates:normal;font-variant-east-asian:normal;font-feature-settings:normal;font-variation-settings:normal;text-indent:0;text-align:start;text-decoration:none;text-decoration-line:none;text-decoration-style:solid;text-decoration-color:#000000;letter-spacing:normal;word-spacing:normal;text-transform:none;writing-mode:lr-tb;direction:ltr;text-orientation:mixed;dominant-baseline:auto;baseline-shift:baseline;text-anchor:start;white-space:normal;shape-padding:0;shape-margin:0;inline-size:0;clip-rule:nonzero;display:inline;overflow:visible;visibility:visible;opacity:1;isolation:auto;mix-blend-mode:normal;color-interpolation:sRGB;color-interpolation-filters:linearRGB;solid-color:#000000;solid-opacity:1;vector-effect:none;fill:#ffffff;fill-opacity:1;fill-rule:evenodd;stroke:none;stroke-width:0.999999;stroke-linecap:butt;stroke-linejoin:miter;stroke-miterlimit:4;stroke-dasharray:none;stroke-dashoffset:0;stroke-opacity:1;marker:none;color-rendering:auto;image-rendering:auto;shape-rendering:auto;text-rendering:auto;enable-background:accumulate;stop-color:#000000;stop-opacity:1"
             id="path2287" />
        </g>
        <g
           id="use965"
           style="fill:#003580;fill-opacity:1;stroke-width:1.05718"
           transform="matrix(1,0,0,0.89475332,39.05457,3.4534052)">
          <path
             transform="scale(0.26458333)"
             d="m 312.9668,100.24414 c -2.72529,0.0191 -5.45273,0.036 -8.15821,0.0625 -1.4099,2.40003 -2.39843,5.827 -2.39843,9.94922 0,4.20658 1.0278,7.69267 2.48437,10.09766 2.74161,0.009 5.4649,0.0202 8.08789,0.0273 -0.23695,-2.47587 -3.1914,-4.76077 -3.1914,-10.125 0,-5.28334 2.86282,-7.57816 3.17578,-10.01172 z"
             style="color:#000000;font-style:normal;font-variant:normal;font-weight:normal;font-stretch:normal;font-size:medium;line-height:normal;font-family:sans-serif;font-variant-ligatures:normal;font-variant-position:normal;font-variant-caps:normal;font-variant-numeric:normal;font-variant-alternates:normal;font-variant-east-asian:normal;font-feature-settings:normal;font-variation-settings:normal;text-indent:0;text-align:start;text-decoration:none;text-decoration-line:none;text-decoration-style:solid;text-decoration-color:#000000;letter-spacing:normal;word-spacing:normal;text-transform:none;writing-mode:lr-tb;direction:ltr;text-orientation:mixed;dominant-baseline:auto;baseline-shift:baseline;text-anchor:start;white-space:normal;shape-padding:0;shape-margin:0;inline-size:0;clip-rule:nonzero;display:inline;overflow:visible;visibility:visible;opacity:1;isolation:auto;mix-blend-mode:normal;color-interpolation:sRGB;color-interpolation-filters:linearRGB;solid-color:#000000;solid-opacity:1;vector-effect:none;fill:#003580;fill-opacity:1;fill-rule:evenodd;stroke:none;stroke-width:0.999999;stroke-linecap:butt;stroke-linejoin:miter;stroke-miterlimit:4;stroke-dasharray:none;stroke-dashoffset:0;stroke-opacity:1;marker:none;color-rendering:auto;image-rendering:auto;shape-rendering:auto;text-rendering:auto;enable-background:accumulate;stop-color:#000000;stop-opacity:1"
             id="path2275" />
          <path
             d="m 80.679948,32.494203 c 0.649936,0.525016 1.540894,0.229594 1.603072,-0.490208 0.06218,-0.719803 -0.846541,-1.302821 -0.846541,-2.831885 0,-1.529064 0.908724,-2.112082 0.846541,-2.831885 -0.06218,-0.719802 -0.953136,-1.015224 -1.603072,-0.490208 -0.649936,0.525017 -1.196596,1.736586 -1.196596,3.322093 0,1.585507 0.54666,2.797076 1.196596,3.322093 z"
             style="color:#000000;font-style:normal;font-variant:normal;font-weight:normal;font-stretch:normal;font-size:medium;line-height:normal;font-family:sans-serif;font-variant-ligatures:normal;font-variant-position:normal;font-variant-caps:normal;font-variant-numeric:normal;font-variant-alternates:normal;font-variant-east-asian:normal;font-feature-settings:normal;font-variation-settings:normal;text-indent:0;text-align:start;text-decoration:none;text-decoration-line:none;text-decoration-style:solid;text-decoration-color:#000000;letter-spacing:normal;word-spacing:normal;text-transform:none;writing-mode:lr-tb;direction:ltr;text-orientation:mixed;dominant-baseline:auto;baseline-shift:baseline;text-anchor:start;white-space:normal;shape-padding:0;shape-margin:0;inline-size:0;clip-rule:nonzero;display:inline;overflow:visible;visibility:visible;opacity:1;isolation:auto;mix-blend-mode:normal;color-interpolation:sRGB;color-interpolation-filters:linearRGB;solid-color:#000000;solid-opacity:1;vector-effect:none;fill:#cccccc;fill-opacity:1;fill-rule:evenodd;stroke:none;stroke-width:0.264583;stroke-linecap:butt;stroke-linejoin:miter;stroke-miterlimit:4;stroke-dasharray:none;stroke-dashoffset:0;stroke-opacity:1;marker:none;color-rendering:auto;image-rendering:auto;shape-rendering:auto;text-rendering:auto;enable-background:accumulate;stop-color:#000000;stop-opacity:1"
             id="path2277" />
          <path
             transform="scale(0.26458333)"
             d="m 307.86719,96.697266 c -0.96415,-0.04906 -2.01438,0.259789 -2.93555,1.003906 -2.45645,1.984316 -4.52148,6.562218 -4.52148,12.554688 0,5.99247 2.06503,10.57232 4.52148,12.55664 1.24498,1.00569 2.72358,1.21276 3.91016,0.82031 -0.6809,-0.0986 -1.37691,-0.38293 -2.00782,-0.89258 -2.28178,-1.84322 -4.20117,-6.09573 -4.20117,-11.66211 0,-5.56637 1.91939,-9.82083 4.20117,-11.664058 1.28499,-1.038008 2.83932,-1.161708 3.99024,-0.621093 -0.43066,-1.252817 -1.60672,-2.026989 -2.95703,-2.095703 z"
             style="color:#000000;font-style:normal;font-variant:normal;font-weight:normal;font-stretch:normal;font-size:medium;line-height:normal;font-family:sans-serif;font-variant-ligatures:normal;font-variant-position:normal;font-variant-caps:normal;font-variant-numeric:normal;font-variant-alternates:normal;font-variant-east-asian:normal;font-feature-settings:normal;font-variation-settings:normal;text-indent:0;text-align:start;text-decoration:none;text-decoration-line:none;text-decoration-style:solid;text-decoration-color:#000000;letter-spacing:normal;word-spacing:normal;text-transform:none;writing-mode:lr-tb;direction:ltr;text-orientation:mixed;dominant-baseline:auto;baseline-shift:baseline;text-anchor:start;white-space:normal;shape-padding:0;shape-margin:0;inline-size:0;clip-rule:nonzero;display:inline;overflow:visible;visibility:visible;opacity:1;isolation:auto;mix-blend-mode:normal;color-interpolation:sRGB;color-interpolation-filters:linearRGB;solid-color:#000000;solid-opacity:1;vector-effect:none;fill:#ffffff;fill-opacity:1;fill-rule:evenodd;stroke:none;stroke-width:0.999999;stroke-linecap:butt;stroke-linejoin:miter;stroke-miterlimit:4;stroke-dasharray:none;stroke-dashoffset:0;stroke-opacity:1;marker:none;color-rendering:auto;image-rendering:auto;shape-rendering:auto;text-rendering:auto;enable-background:accumulate;stop-color:#000000;stop-opacity:1"
             id="path2279" />
        </g>
      </g>
      <g
         id="g1211"
         transform="matrix(1.0591616,0,0,1.0591616,-5.1859286,-1.453763)"
         style="stroke-width:0.944143">
        <path
           id="circle1213"
           style="color:#000000;display:inline;overflow:visible;visibility:visible;fill:#003580;fill-opacity:1;fill-rule:evenodd;stroke:none;stroke-width:0.999998;stroke-linecap:square;stroke-linejoin:miter;stroke-miterlimit:4;stroke-dasharray:none;stroke-dashoffset:0;stroke-opacity:1;marker:none;marker-start:none;marker-mid:none;marker-end:none;enable-background:accumulate"
           d="m 324.58203,86.814453 -0.0996,5.507813 c 1.89096,1.644442 4.31239,2.550309 6.81836,2.550781 2.5069,-5.43e-4 5.36454,-0.762008 7.25572,-2.407597 l -0.53501,-5.650997 z"
           transform="matrix(0.2498045,0,0,0.2498045,4.8962574,1.3725589)" />
        <circle
           r="2.5963485"
           cy="21.976357"
           cx="87.656822"
           id="path911"
           style="color:#000000;display:inline;overflow:visible;visibility:visible;fill:#cccccc;fill-opacity:1;fill-rule:evenodd;stroke:none;stroke-width:0.249804;stroke-linecap:square;stroke-linejoin:miter;stroke-miterlimit:4;stroke-dasharray:none;stroke-dashoffset:0;stroke-opacity:1;marker:none;marker-start:none;marker-mid:none;marker-end:none;enable-background:accumulate" />
        <path
           transform="scale(0.26458333)"
           d="m 331.16602,73.248047 a 9.8129707,9.8129707 0 0 0 -9.67774,9.8125 9.8129707,9.8129707 0 0 0 9.8125,9.8125 9.8129707,9.8129707 0 0 0 0.92188,-0.04297 8.071316,8.071316 0 0 1 -7.25,-8.027344 8.071316,8.071316 0 0 1 8.07031,-8.072265 8.071316,8.071316 0 0 1 8.02734,7.24414 9.8129707,9.8129707 0 0 0 0.0449,-0.914062 9.8129707,9.8129707 0 0 0 -9.81445,-9.8125 9.8129707,9.8129707 0 0 0 -0.13476,0 z"
           style="color:#000000;display:inline;overflow:visible;visibility:visible;fill:#ffffff;fill-rule:evenodd;stroke:none;stroke-width:0.944142;stroke-linecap:square;stroke-linejoin:miter;stroke-miterlimit:4;stroke-dasharray:none;stroke-dashoffset:0;stroke-opacity:1;marker:none;marker-start:none;marker-mid:none;marker-end:none;enable-background:accumulate"
           id="circle1204" />
      </g>
      <g
         id="g1546">
        <path
           transform="scale(0.26458333)"
           d="m 100.16406,274.49609 -5.746091,6.15625 c 0,0 12.042231,77.31458 30.925781,110.97657 18.82792,33.56284 51.53043,40.10742 76.49414,40.10742 H 423.0293 c 25.73045,0 43.39043,-7.11572 58.28515,-24.58789 l 6.0625,4.88281 c -5.42912,7.30612 -9.26757,12.02734 -9.26757,12.02734 l 2.46289,6.56836 c 0,0 23.54184,4.83502 46.78125,0.0996 23.2394,-4.73559 33.28484,-20.76277 34.85546,-35.68359 1.57066,-14.92082 -2.77332,-36.62845 1.69922,-60.06445 4.47254,-23.43601 13.28907,-48.01368 13.28907,-48.01368 l -24.92188,-5.21679 c 0,0 -9.60351,25.08299 -20.26758,50.22265 l -7.07226,-2.75976 c 2.54967,-6.05736 4.70258,-11.67356 6.26953,-16.48633 l -4.93555,-7.64453 -24.0918,4.64453 -1.16211,8.99805 c 0,0 -60.18099,22.82422 -171.88281,22.82422 -111.70183,0 -195.30664,-41.18946 -195.30664,-41.18946 l 2.875,-13.95703 z m 415.88086,74.2793 7.18555,3.23438 c -2.69117,5.91083 -5.31109,11.42891 -7.70117,16.06054 -4.19046,8.12049 -9.11327,16.23967 -13.98828,23.69922 l -6.74024,-3.84961 c 7.09234,-11.50545 14.65235,-25.51557 21.24414,-39.14453 z"
           style="font-variation-settings:normal;opacity:1;vector-effect:none;fill:#cccccc;fill-opacity:1;fill-rule:evenodd;stroke:none;stroke-width:0.999999;stroke-linecap:butt;stroke-linejoin:miter;stroke-miterlimit:4;stroke-dasharray:none;stroke-dashoffset:0;stroke-opacity:1;marker:none;marker-start:none;marker-mid:none;marker-end:none;stop-color:#000000;stop-opacity:1"
           id="path892" />
        <path
           transform="scale(0.26458333)"
           d="m 100.16406,274.49609 -5.746091,6.15625 c 0,0 12.042231,77.31458 30.925781,110.97657 9.87481,17.60293 23.56728,27.76644 37.95703,33.45898 -11.06475,-7.05512 -27.70809,-20.38616 -37.95703,-41.39648 C 108.92327,350.02944 99.890625,282.70508 99.890625,282.70508 l 2.462895,-2.46289 33.45117,10.50586 0.89648,-4.34766 z m 452.11133,7.25196 c 0,0 -9.60351,25.08299 -20.26758,50.22265 l -7.07226,-2.75976 -1.95508,4.99414 c -1.45138,-9.28883 -10.60547,-3.66797 -10.60547,-3.66797 l -1.00586,3.08594 c 8.12772,-4.93469 9.88601,3.50124 9.88601,3.50124 l -1.51527,2.99272 6.87535,2.81268 0.76954,-2.71289 -3.57227,-1.95508 2.46289,-6.1582 8.62109,3.28515 1.23243,-2.46289 18.26757,7.79883 1.64258,-1.64258 -18.54492,-8.16797 16.83594,-44.41211 21.64844,4.00782 c 0.65937,-1.94063 1.21875,-3.54493 1.21875,-3.54493 z m -435.68164,11.04297 -4.93359,2.61328 c 0,0 1.45135,25.54489 8.41796,33.96289 l -3.77343,-31.06055 c 0,0 98.49907,48.08984 214.60937,48.08984 116.11032,0 183.73118,-26.47177 183.73118,-26.47177 l 1.84641,-4.92614 -10.46821,2.87448 1.64258,-4.51563 20.66992,-5.07812 -2.06641,-3.19922 -24.0918,4.64453 -1.16211,8.99805 c 0,0 -60.18099,22.82421 -171.88281,22.82422 -111.70183,0 -195.30664,-41.18946 -195.30664,-41.18946 z m 8.22461,47.89648 -3.19336,2.32227 c 0,0 1.16235,15.38491 10.45117,30.76953 l 2.08133,-1.6227 c 0,0 -7.01693,-16.95531 -9.33914,-31.4691 z m 401.9375,3.9375 -3.52539,7.38477 c -2.69117,5.91083 -5.31109,11.42891 -7.70117,16.06054 -4.19046,8.12049 -9.11327,16.23967 -13.98828,23.69922 l -6.74024,-3.84961 -3.42524,5.33043 c -0.87085,-8.99852 -10.33951,-7.23143 -10.33951,-7.23143 l -1.59658,1.3053 -0.7445,2.94485 c 8.70829,-4.35413 10.56286,6.50046 10.56286,6.50046 l -1.99928,2.75551 5.36061,4.26012 -5.24219,8.24609 c -5.42912,7.30612 -9.26757,12.02734 -9.26757,12.02734 l 2.46289,6.56836 c 0,0 1.5518,0.31419 4.20898,0.70313 l -0.98828,-7.91406 c 7.25692,-9.86937 14.32528,-21.36294 14.32528,-21.36294 l -6.77841,-3.98863 5.03125,-6.38476 7.25782,4.0625 2.61132,-2.61133 30.48047,18.28711 1.74024,-0.87109 -31.3418,-19.60352 C 521.89755,367.9547 531.2207,346.2168 531.2207,346.2168 Z m -394.67969,29.1543 c 0,0 8.70805,26.12348 29.02735,33.96093 0,0 -15.38575,-12.7722 -24.96485,-32.2207 z"
           style="font-variation-settings:normal;opacity:1;vector-effect:none;fill:#ffffff;fill-opacity:1;fill-rule:evenodd;stroke:none;stroke-width:0.999999;stroke-linecap:butt;stroke-linejoin:miter;stroke-miterlimit:4;stroke-dasharray:none;stroke-dashoffset:0;stroke-opacity:1;marker:none;marker-start:none;marker-mid:none;marker-end:none;stop-color:#000000;stop-opacity:1"
           id="path1035" />
        <g
           id="g1112">
          <g
             id="g1097">
            <path
               transform="scale(0.26458333)"
               d="m 536.94922,337.69336 a 3.5105153,3.5105153 0 0 0 -3.50977,3.50976 3.5105153,3.5105153 0 0 0 2.87696,3.45313 2.410435,2.7183189 0 0 1 -1.16211,-2.32422 2.410435,2.7183189 0 0 1 2.41015,-2.7168 2.410435,2.7183189 0 0 1 2.41211,2.7168 2.410435,2.7183189 0 0 1 -0.11718,0.83399 3.5105153,3.5105153 0 0 0 0.60156,-1.9629 3.5105153,3.5105153 0 0 0 -3.51172,-3.50976 z"
               style="color:#000000;display:inline;overflow:visible;visibility:visible;fill:#ffffff;fill-rule:evenodd;stroke:none;stroke-width:0.999999;stroke-linecap:square;stroke-linejoin:miter;stroke-miterlimit:4;stroke-dasharray:none;stroke-dashoffset:0;stroke-opacity:1;marker:none;marker-start:none;marker-mid:none;marker-end:none;enable-background:accumulate"
               id="path1037" />
            <path
               d="m 144.56595,90.379873 a 0.92882383,0.92882383 0 0 0 -0.92863,0.928623 0.92882383,0.92882383 0 0 0 0.7612,0.913641 0.63776092,0.71922187 0 0 1 -0.30748,-0.61495 0.63776092,0.71922187 0 0 1 0.63769,-0.71882 0.63776092,0.71922187 0 0 1 0.6382,0.71882 0.63776092,0.71922187 0 0 1 -0.031,0.22066 0.92882383,0.92882383 0 0 0 0.15916,-0.519351 0.92882383,0.92882383 0 0 0 -0.92914,-0.928623 z"
               style="color:#000000;display:inline;overflow:visible;visibility:visible;fill:#ffffff;fill-rule:evenodd;stroke:none;stroke-width:0.264583;stroke-linecap:square;stroke-linejoin:miter;stroke-miterlimit:4;stroke-dasharray:none;stroke-dashoffset:0;stroke-opacity:1;marker:none;marker-start:none;marker-mid:none;marker-end:none;enable-background:accumulate"
               id="use1055" />
          </g>
          <g
             id="g1063">
            <path
               d="m 136.25697,88.708577 a 0.80669549,0.80682595 0 0 0 -0.80653,0.806652 0.80669549,0.80682595 0 0 0 0.66111,0.793637 0.55390359,0.6247545 0 0 1 -0.26705,-0.534178 0.55390359,0.6247545 0 0 1 0.55384,-0.624406 0.55390359,0.6247545 0 0 1 0.55429,0.624406 0.55390359,0.6247545 0 0 1 -0.0269,0.191677 0.80669549,0.80682595 0 0 0 0.13824,-0.451136 0.80669549,0.80682595 0 0 0 -0.80697,-0.806652 z"
               style="color:#000000;display:inline;overflow:visible;visibility:visible;fill:#ffffff;fill-rule:evenodd;stroke:none;stroke-width:0.229812;stroke-linecap:square;stroke-linejoin:miter;stroke-miterlimit:4;stroke-dasharray:none;stroke-dashoffset:0;stroke-opacity:1;marker:none;marker-start:none;marker-mid:none;marker-end:none;enable-background:accumulate"
               id="use1057" />
            <path
               d="m 134.95359,91.152406 a 0.80669549,0.80682595 0 0 0 -0.80652,0.806652 0.80669549,0.80682595 0 0 0 0.6611,0.793637 0.55390359,0.6247545 0 0 1 -0.26704,-0.534178 0.55390359,0.6247545 0 0 1 0.55384,-0.624406 0.55390359,0.6247545 0 0 1 0.55429,0.624406 0.55390359,0.6247545 0 0 1 -0.0269,0.191677 0.80669549,0.80682595 0 0 0 0.13823,-0.451136 0.80669549,0.80682595 0 0 0 -0.80697,-0.806652 z"
               style="color:#000000;display:inline;overflow:visible;visibility:visible;fill:#ffffff;fill-rule:evenodd;stroke:none;stroke-width:0.229812;stroke-linecap:square;stroke-linejoin:miter;stroke-miterlimit:4;stroke-dasharray:none;stroke-dashoffset:0;stroke-opacity:1;marker:none;marker-start:none;marker-mid:none;marker-end:none;enable-background:accumulate"
               id="use1059" />
          </g>
          <g
             id="g1069"
             transform="translate(-8.654699,15.151574)">
            <path
               d="m 136.25697,88.708577 a 0.80669549,0.80682595 0 0 0 -0.80653,0.806652 0.80669549,0.80682595 0 0 0 0.66111,0.793637 0.55390359,0.6247545 0 0 1 -0.26705,-0.534178 0.55390359,0.6247545 0 0 1 0.55384,-0.624406 0.55390359,0.6247545 0 0 1 0.55429,0.624406 0.55390359,0.6247545 0 0 1 -0.0269,0.191677 0.80669549,0.80682595 0 0 0 0.13824,-0.451136 0.80669549,0.80682595 0 0 0 -0.80697,-0.806652 z"
               style="color:#000000;display:inline;overflow:visible;visibility:visible;fill:#ffffff;fill-rule:evenodd;stroke:none;stroke-width:0.229812;stroke-linecap:square;stroke-linejoin:miter;stroke-miterlimit:4;stroke-dasharray:none;stroke-dashoffset:0;stroke-opacity:1;marker:none;marker-start:none;marker-mid:none;marker-end:none;enable-background:accumulate"
               id="use1065" />
            <path
               d="m 134.57344,90.772255 a 0.80669549,0.80682595 0 0 0 -0.80652,0.806652 0.80669549,0.80682595 0 0 0 0.6611,0.793637 0.55390359,0.6247545 0 0 1 -0.26704,-0.534178 0.55390359,0.6247545 0 0 1 0.55384,-0.624406 0.55390359,0.6247545 0 0 1 0.55428,0.624406 0.55390359,0.6247545 0 0 1 -0.0269,0.191677 0.80669549,0.80682595 0 0 0 0.13823,-0.451136 0.80669549,0.80682595 0 0 0 -0.80697,-0.806652 z"
               style="color:#000000;display:inline;overflow:visible;visibility:visible;fill:#ffffff;fill-rule:evenodd;stroke:none;stroke-width:0.229812;stroke-linecap:square;stroke-linejoin:miter;stroke-miterlimit:4;stroke-dasharray:none;stroke-dashoffset:0;stroke-opacity:1;marker:none;marker-start:none;marker-mid:none;marker-end:none;enable-background:accumulate"
               id="use1067" />
          </g>
          <g
             id="g1093"
             style="stroke-width:1.00013;stroke-miterlimit:4;stroke-dasharray:none">
            <path
               d="m 134.40346,105.75811 a 0.92882383,0.92882383 0 0 0 -0.92862,0.92862 0.92882383,0.92882383 0 0 0 0.76119,0.91364 0.63776092,0.71922187 0 0 1 -0.30747,-0.61495 0.63776092,0.71922187 0 0 1 0.63768,-0.71882 0.63776092,0.71922187 0 0 1 0.63821,0.71882 0.63776092,0.71922187 0 0 1 -0.031,0.22066 0.92882383,0.92882383 0 0 0 0.15917,-0.51935 0.92882383,0.92882383 0 0 0 -0.92915,-0.92862 z"
               style="color:#000000;display:inline;overflow:visible;visibility:visible;fill:#ffffff;fill-rule:evenodd;stroke:none;stroke-width:0.264583;stroke-linecap:square;stroke-linejoin:miter;stroke-miterlimit:4;stroke-dasharray:none;stroke-dashoffset:0;stroke-opacity:1;marker:none;marker-start:none;marker-mid:none;marker-end:none;enable-background:accumulate"
               id="use1055-9" />
            <path
               d="m 136.86113,107.21735 a 0.92882383,0.92882383 0 0 0 -0.92862,0.92862 0.92882383,0.92882383 0 0 0 0.76119,0.91364 0.63776092,0.71922187 0 0 1 -0.30747,-0.61495 0.63776092,0.71922187 0 0 1 0.63768,-0.71882 0.63776092,0.71922187 0 0 1 0.63821,0.71882 0.63776092,0.71922187 0 0 1 -0.031,0.22066 0.92882383,0.92882383 0 0 0 0.15916,-0.51935 0.92882383,0.92882383 0 0 0 -0.92914,-0.92862 z"
               style="color:#000000;display:inline;overflow:visible;visibility:visible;fill:#ffffff;fill-rule:evenodd;stroke:none;stroke-width:0.264583;stroke-linecap:square;stroke-linejoin:miter;stroke-miterlimit:4;stroke-dasharray:none;stroke-dashoffset:0;stroke-opacity:1;marker:none;marker-start:none;marker-mid:none;marker-end:none;enable-background:accumulate"
               id="use1086" />
            <path
               d="m 139.3188,108.67659 a 0.92882383,0.92882383 0 0 0 -0.92863,0.92862 0.92882383,0.92882383 0 0 0 0.7612,0.91364 0.63776092,0.71922187 0 0 1 -0.30748,-0.61495 0.63776092,0.71922187 0 0 1 0.63769,-0.71882 0.63776092,0.71922187 0 0 1 0.6382,0.71882 0.63776092,0.71922187 0 0 1 -0.031,0.22066 0.92882383,0.92882383 0 0 0 0.15916,-0.51935 0.92882383,0.92882383 0 0 0 -0.92914,-0.92862 z"
               style="color:#000000;display:inline;overflow:visible;visibility:visible;fill:#ffffff;fill-rule:evenodd;stroke:none;stroke-width:0.264583;stroke-linecap:square;stroke-linejoin:miter;stroke-miterlimit:4;stroke-dasharray:none;stroke-dashoffset:0;stroke-opacity:1;marker:none;marker-start:none;marker-mid:none;marker-end:none;enable-background:accumulate"
               id="use1088" />
          </g>
        </g>
        <path
           transform="scale(0.26458333)"
           d="m 542.08008,303.71094 -2.25781,3.89844 c 0,0 19.91138,5.54349 32.02148,7.18554 l 1.02539,-3.49023 z m -22.09961,10.07812 -3.48828,1.20899 -9.86328,19.40039 4.74023,-0.77539 z m 7.01367,14.38086 -2.05859,1.04102 -4.5792,9.5712 6.13193,2.42098 -4.92443,10.45947 1.66662,0.34718 3.52539,-7.38477 22.71484,10.74219 8.00391,-6.15821 -1.43555,-10.12695 -1.64258,1.64258 0.82032,7.66406 -5.95118,4.10352 -21.43164,-9.52539 1.11133,-2.78907 -6.36328,-2.36132 z m -403.56783,3.25053 3.6955,5.33683 c 0,0 83.30197,41.76225 193.92897,41.76225 110.62697,0 176.91672,-26.46413 176.91672,-26.46413 l -14.27219,26.17312 2.49379,0.68021 20.14879,-36.09232 -2.37234,-0.63016 -2.51562,4.41797 c 0,0 -67.77218,28.75421 -180.39915,28.75421 -112.627,0 -197.62447,-43.93798 -197.62447,-43.93798 z m 380.10103,18.33541 c 0,0 -2.07598,4.56191 3.38672,6.1582 5.78956,1.69181 7.1836,-3.69531 7.1836,-3.69531 0,0 -3.48918,2.87411 -6.97852,1.64258 -3.48956,-1.23154 -3.5918,-4.10547 -3.5918,-4.10547 z m -5.43945,36.70703 -3.28711,1.45703 -6.6424,10.16957 4.96076,3.50035 -7.28722,9.30733 1.54503,1.13408 5.51172,-6.70898 c 0,0 21.21007,14.29063 33.52539,21.47461 0,0 7.59375,-1.84856 12.10938,-5.3379 l -0.0625,-10.9121 -1.74024,0.87109 -0.25,8.60351 c 0,0 -3.9011,2.6685 -9.85351,4.31055 0,0 -27.09303,-16.41973 -32.42969,-21.14062 l 1.64258,-2.46289 -5.20775,-3.48562 z"
           style="font-variation-settings:normal;opacity:1;vector-effect:none;fill:#003580;fill-opacity:1;fill-rule:evenodd;stroke:none;stroke-width:0.999999;stroke-linecap:butt;stroke-linejoin:miter;stroke-miterlimit:4;stroke-dasharray:none;stroke-dashoffset:0;stroke-opacity:1;marker:none;marker-start:none;marker-mid:none;marker-end:none;stop-color:#000000;stop-opacity:1"
           id="path1118" />
        <path
           id="path896"
           d="m 118.12167,74.318858 0.76802,3.763302 c 0,0 6.91219,-1.536041 14.4388,0.460814 7.52661,1.996856 16.74286,4.147315 19.81495,4.608127 l 0.98525,-4.147313 c 0,0 -10.39774,-1.752736 -16.49928,-3.840107 -6.10154,-2.08737 -10.90591,-4.070513 -19.50774,-0.844823 z"
           style="font-variation-settings:normal;opacity:1;vector-effect:none;fill:#cccccc;fill-opacity:1;fill-rule:evenodd;stroke:none;stroke-width:0.264583;stroke-linecap:butt;stroke-linejoin:miter;stroke-miterlimit:4;stroke-dasharray:none;stroke-dashoffset:0;stroke-opacity:1;marker:none;marker-start:none;marker-mid:none;marker-end:none;stop-color:#000000;stop-opacity:1" />
        <path
           style="font-variation-settings:normal;opacity:1;vector-effect:none;fill:#f9f9f9;fill-opacity:1;fill-rule:evenodd;stroke:none;stroke-width:0.264583;stroke-linecap:butt;stroke-linejoin:miter;stroke-miterlimit:4;stroke-dasharray:none;stroke-dashoffset:0;stroke-opacity:1;marker:none;marker-start:none;marker-mid:none;marker-end:none;stop-color:#000000;stop-opacity:1"
           d="m 118.12167,74.318858 0.76802,3.763302 c 0,0 0.31894,-0.07088 0.89439,-0.162384 l -0.7379,-2.981084 c 0,0 7.44637,-2.765644 17.54075,0.671688 10.09437,3.437331 17.32785,4.293838 17.32785,4.293838 l 0.21391,-0.90043 c 0,0 -10.39774,-1.752736 -16.49928,-3.840107 -6.10154,-2.08737 -10.90591,-4.070513 -19.50774,-0.844823 z"
           id="path1143" />
        <path
           style="font-variation-settings:normal;opacity:1;vector-effect:none;fill:#003580;fill-opacity:1;fill-rule:evenodd;stroke:none;stroke-width:0.264583;stroke-linecap:butt;stroke-linejoin:miter;stroke-miterlimit:4;stroke-dasharray:none;stroke-dashoffset:0;stroke-opacity:1;marker:none;marker-start:none;marker-mid:none;marker-end:none;stop-color:#000000;stop-opacity:1"
           d="m 123.46108,107.14696 c -1.66584,1.33842 -3.79734,2.3748 -6.49017,3.03578 -7.41407,1.81985 -18.617797,2.67637 -34.584277,2.72013 -27.554518,0.0755 -37.876214,-2.05392 -42.910155,-6.95376 l 2.605755,1.38909 c 7.265409,3.07056 12.984775,4.79891 40.725212,4.79891 13.482087,0 27.630485,-0.84696 36.104405,-3.17126 5.2696,-1.44539 8.15707,-7.35523 8.15707,-7.35523 0,0 -16.00829,6.91658 -43.161682,6.91658 -27.153393,0 -48.962085,-9.631428 -48.962085,-9.631428 l 0.550684,-0.429339 c 0,0 22.539464,9.314367 48.369941,9.314367 25.830472,0 43.935492,-7.20443 43.935492,-7.20443 -0.71271,2.30061 -1.8781,4.32702 -3.64218,5.96727 -0.22586,0.7529 0.13981,1.68876 1.82132,1.98689 -1.78155,0.63892 -2.56657,-0.68705 -2.51933,-1.38357 z"
           id="path1122" />
      </g>
    </g>
    <path
       id="path1568"
       style="font-variation-settings:normal;opacity:1;vector-effect:none;fill:#ffe996;fill-opacity:1;fill-rule:evenodd;stroke:none;stroke-width:1.02363;stroke-linecap:butt;stroke-linejoin:miter;stroke-miterlimit:4;stroke-dasharray:none;stroke-dashoffset:0;stroke-opacity:1;marker:none;marker-start:none;marker-mid:none;marker-end:none;stop-color:#000000;stop-opacity:1"
       d="M 103.76562 406.73828 C 109.46671 417.77019 99.555191 420.54438 97.494141 430.25391 C 95.482931 439.72869 103.11663 451.02595 98.919922 459.57422 C 94.723202 468.12257 89.422838 467.62798 85.236328 477.57422 C 82.943058 483.02252 83.778309 488.53453 82.386719 493.12305 L 80.21875 497.18555 C 85.86544 495.53591 86.214698 486.75294 89.236328 479.57422 C 93.422838 469.62798 98.723202 470.12257 102.91992 461.57422 C 107.11663 453.02595 99.482931 441.72869 101.49414 432.25391 C 103.55519 422.54438 113.46671 419.77019 107.76562 408.73828 C 107.76562 408.73828 109.11565 408.73528 110.91602 409.26758 C 107.56094 406.73385 103.76563 406.73828 103.76562 406.73828 z M 216.95898 406.73828 C 222.66007 417.77019 212.74855 420.54438 210.6875 430.25391 C 208.67628 439.72869 216.30999 451.02595 212.11328 459.57422 C 207.91656 468.12257 202.61815 467.62798 198.43164 477.57422 C 196.13837 483.02252 196.97222 488.53453 195.58008 493.12305 L 193.41211 497.18555 C 200.08508 496.15168 199.41001 486.75294 202.43164 479.57422 C 206.61815 469.62798 211.91656 470.12257 216.11328 461.57422 C 220.30999 453.02595 212.67628 441.72869 214.6875 432.25391 C 216.74855 422.54438 226.66007 419.77019 220.95898 408.73828 C 220.95898 408.73828 222.30901 408.73528 224.10938 409.26758 C 220.7543 406.73385 216.95898 406.73828 216.95898 406.73828 z M 330.1543 406.73828 C 335.85537 417.77019 325.94387 420.54438 323.88281 430.25391 C 321.8716 439.72869 329.50532 451.02595 325.30859 459.57422 C 321.11187 468.12257 315.81151 467.62798 311.625 477.57422 C 309.33173 483.02252 310.16699 488.53453 308.77539 493.12305 L 306.60742 497.18555 C 313.89615 496.35694 312.60337 486.75294 315.625 479.57422 C 319.81151 469.62798 325.11187 470.12257 329.30859 461.57422 C 333.50532 453.02595 325.8716 441.72869 327.88281 432.25391 C 329.94387 422.54438 339.85537 419.77019 334.1543 408.73828 C 334.1543 408.73828 335.50431 408.73528 337.30469 409.26758 C 333.9496 406.73385 330.1543 406.73828 330.1543 406.73828 z M 443.34766 406.73828 C 449.04873 417.77019 439.13719 420.54438 437.07617 430.25391 C 435.06497 439.72869 442.69866 451.02595 438.50195 459.57422 C 434.30524 468.12257 429.00682 467.62798 424.82031 477.57422 C 422.52705 483.02252 423.36089 488.53453 421.96875 493.12305 L 419.80078 497.18555 C 426.88424 496.35694 425.79869 486.75294 428.82031 479.57422 C 433.00682 469.62798 438.30524 470.12257 442.50195 461.57422 C 446.69866 453.02595 439.06497 441.72869 441.07617 432.25391 C 443.13719 422.54438 453.04873 419.77019 447.34766 408.73828 C 447.34766 408.73828 448.69767 408.73528 450.49805 409.26758 C 447.14296 406.73385 443.34766 406.73828 443.34766 406.73828 z M 53.1875 407.71484 L 26.876953 494.80859 C 26.877852 494.81043 26.878008 494.81262 26.878906 494.81445 C 27.771121 496.63392 28.684697 498.44061 29.617188 500.23828 L 55.490234 415.33398 L 53.1875 407.71484 z M 166.38281 407.71484 L 139.35156 497.18555 C 140.52259 498.31778 143.35156 499.18555 143.35156 499.18555 L 168.68555 415.33398 L 166.38281 407.71484 z M 279.57617 407.71484 L 252.54688 497.18555 L 256.54688 499.18555 L 281.87891 415.33398 L 279.57617 407.71484 z M 392.77148 407.71484 L 365.74023 497.18555 L 369.74023 499.18555 L 395.07422 415.33398 L 392.77148 407.71484 z M 505.96484 407.71484 L 478.93555 497.18555 L 482.93555 499.18555 L 508.26758 415.33398 L 505.96484 407.71484 z "
       transform="matrix(0.26458333,0,0,0.26458333,13.68544,15.880031)" />
  </g>
</svg>
