<?xml version="1.0" encoding="UTF-8" standalone="no"?>
<svg
   xmlns:dc="http://purl.org/dc/elements/1.1/"
   xmlns:cc="http://creativecommons.org/ns#"
   xmlns:rdf="http://www.w3.org/1999/02/22-rdf-syntax-ns#"
   xmlns:svg="http://www.w3.org/2000/svg"
   xmlns="http://www.w3.org/2000/svg"
   xmlns:xlink="http://www.w3.org/1999/xlink"
   width="500"
   height="536"
   viewBox="0 0 132.29166 141.81667"
   version="1.1"
   id="svg847">
  <defs
     id="defs841" />
  <metadata
     id="metadata844">
    <rdf:RDF>
      <cc:Work
         rdf:about="">
        <dc:format>image/svg+xml</dc:format>
        <dc:type
           rdf:resource="http://purl.org/dc/dcmitype/StillImage" />
        <dc:title></dc:title>
      </cc:Work>
    </rdf:RDF>
  </metadata>
  <path
     id="path862"
     style="font-variation-settings:normal;vector-effect:none;fill:#e90606;fill-opacity:1;stroke:none;stroke-width:0.27334;stroke-linecap:butt;stroke-linejoin:miter;stroke-miterlimit:5;stroke-dasharray:none;stroke-dashoffset:0;stroke-opacity:1;stop-color:#000000"
     d="m 0,3e-6 c 0,0 2.674621,47.977812 4.699585,84.298162 1.450868,26.023265 17.768643,44.281805 37.36398,52.543865 l 46.58218,0.64332 C 108.93827,129.55384 126.10232,111.01903 127.59208,84.298165 L 132.29167,3e-6 H 89.261275 c -14.93566,2.638352 -30.28002,2.954358 -46.19992,0 z" />
  <g
     id="g5528"
     clip-path="none"
     transform="matrix(1.033087,0,0,1.0331091,-74.406554,-50.861636)"
     style="stroke:none">
    <path
       id="path5817"
       style="font-variation-settings:normal;opacity:1;vector-effect:none;fill:#ffffff;fill-opacity:1;stroke:none;stroke-width:0.500001;stroke-linecap:butt;stroke-linejoin:miter;stroke-miterlimit:5;stroke-dasharray:none;stroke-dashoffset:0;stroke-opacity:1;stop-color:#000000;stop-opacity:1"
       d="M 595.84766,186.07227 566.90234,207.5 v 478.65234 l 27.23438,3.80664 c 0.79627,-0.30127 1.59301,-0.59993 2.38672,-0.91015 -5.90198,-9.82987 -10.96485,-19.78921 -10.96485,-30.52735 0,-25.84558 29.24805,-47.18957 29.24805,-73.03515 0,-25.84558 -29.24805,-47.19153 -29.24805,-73.03711 0,-25.84558 29.24805,-47.18958 29.24805,-73.03516 0,-25.84558 -29.24805,-47.18958 -29.24805,-73.03515 0,-25.84558 29.24805,-47.19154 29.24805,-73.03711 0,-25.84558 -29.24805,-47.18958 -29.24805,-73.03516 0,-12.08935 6.40511,-23.19326 13.2168,-34.23437 z"
       transform="scale(0.26458333)" />
    <path
       id="path5821"
       style="font-variation-settings:normal;opacity:1;vector-effect:none;fill:#604f23;fill-opacity:1;stroke:none;stroke-width:0.500001;stroke-linecap:butt;stroke-linejoin:miter;stroke-miterlimit:5;stroke-dasharray:none;stroke-dashoffset:0;stroke-opacity:1;stop-color:#000000;stop-opacity:1"
       d="M 457.80621,670.33915 V 206.97376 l -24.68512,-20.90149 h -3.36718 c -6.81138,11.04114 -13.21485,22.14527 -13.21485,34.23437 0,25.84558 29.2461,47.18958 29.2461,73.03516 0,25.84557 -29.2461,47.19153 -29.2461,73.03711 0,25.84557 29.2461,47.18957 29.2461,73.03515 0,25.84558 -29.2461,47.18958 -29.2461,73.03516 0,25.84558 29.2461,47.19153 29.2461,73.03711 0,25.84558 -29.2461,47.18957 -29.2461,73.03515 0,9.88191 4.28301,19.10451 9.56446,28.17383 1.44391,0.6088 2.89435,1.20025 4.34765,1.7793 z"
       transform="scale(0.26458333)" />
    <path
       id="path903"
       style="font-variation-settings:normal;opacity:1;vector-effect:none;fill:#bf9f4f;fill-opacity:1;stroke:none;stroke-width:0.500001;stroke-linecap:butt;stroke-linejoin:miter;stroke-miterlimit:5;stroke-dasharray:none;stroke-dashoffset:0;stroke-opacity:1;stop-color:#000000;stop-opacity:1"
       d="m 433.12109,186.07227 c -6.97368,11.01762 -13.65429,21.88518 -13.65429,34.23437 0,25.84558 29.24804,45.18958 29.24804,73.03516 0,27.84557 -29.24804,47.19153 -29.24804,73.03711 0,25.84557 29.24804,45.18957 29.24804,73.03515 0,27.84558 -29.24804,47.18958 -29.24804,73.03516 0,25.84558 29.24804,45.19153 29.24804,73.03711 0,27.84558 -29.24804,47.18957 -29.24804,73.03515 0,10.74096 5.06645,20.35727 10.9707,29.92969 27.10264,10.80175 55.77138,16.44336 83.77148,16.44336 26.67939,0 53.96685,-5.11262 79.92774,-14.9375 -6.13371,-10.12474 -11.50586,-20.36689 -11.50586,-31.43555 0,-25.84558 29.24609,-47.18957 29.24609,-73.03515 0,-25.84558 -29.24609,-47.19153 -29.24609,-73.03711 0,-25.84558 29.24609,-47.18958 29.24609,-73.03516 0,-25.84558 -29.24609,-47.18958 -29.24609,-73.03515 0,-25.84558 29.24609,-47.19154 29.24609,-73.03711 0,-25.84558 -29.24609,-47.18958 -29.24609,-73.03516 0,-12.08951 6.40501,-23.19312 13.2168,-34.23437 z"
       transform="scale(0.26458333)" />
  </g>
  <g
     id="g5284"
     transform="matrix(1.033087,0,0,1.0331091,-74.406554,-50.861636)"
     style="stroke:none">
    <path
       id="path5290"
       style="font-variation-settings:normal;opacity:1;vector-effect:none;fill:#000000;fill-opacity:1;stroke:none;stroke-width:0.500001;stroke-linecap:butt;stroke-linejoin:miter;stroke-miterlimit:5;stroke-dasharray:none;stroke-dashoffset:0;stroke-opacity:1;stop-color:#000000"
       d="m 470.33398,272.07812 c -7.65359,0.12206 -18.79565,1.01639 -29.9082,4.45118 -19.83439,6.13062 -44.80054,17.28864 -64.39648,37.12304 -19.08493,19.31718 -35.7442,47.001 -51.89649,52.6543 -16.15229,5.6533 -25.00099,-1.13585 -28.78906,-5.30273 -3.62158,-3.98375 -7.13698,-3.68251 -8.71289,-1.51563 -1.57592,2.16688 -1.30571,15.32379 5.72852,25.58203 7.03423,10.25828 23.92444,19.69157 54.12304,5.48047 30.19864,-14.21111 43.88847,-36.65353 69.70117,-51.51758 22.02316,-12.68186 42.05762,-15.25309 54.01368,-16.74218 v -48.36329 c 0,-0.65404 0.0485,-1.26819 0.13671,-1.84961 z"
       transform="scale(0.26458333)" />
    <path
       style="color:#000000;font-style:normal;font-variant:normal;font-weight:normal;font-stretch:normal;font-size:medium;line-height:normal;font-family:sans-serif;font-variant-ligatures:normal;font-variant-position:normal;font-variant-caps:normal;font-variant-numeric:normal;font-variant-alternates:normal;font-variant-east-asian:normal;font-feature-settings:normal;font-variation-settings:normal;text-indent:0;text-align:start;text-decoration:none;text-decoration-line:none;text-decoration-style:solid;text-decoration-color:#000000;letter-spacing:normal;word-spacing:normal;text-transform:none;writing-mode:lr-tb;direction:ltr;text-orientation:mixed;dominant-baseline:auto;baseline-shift:baseline;text-anchor:start;white-space:normal;shape-padding:0;shape-margin:0;inline-size:0;clip-rule:nonzero;display:inline;overflow:visible;visibility:visible;isolation:auto;mix-blend-mode:normal;color-interpolation:sRGB;color-interpolation-filters:linearRGB;solid-color:#000000;solid-opacity:1;vector-effect:none;fill:#bf9f4f;fill-opacity:1;fill-rule:nonzero;stroke:none;stroke-linecap:butt;stroke-linejoin:miter;stroke-miterlimit:5;stroke-dasharray:none;stroke-dashoffset:0;stroke-opacity:1;color-rendering:auto;image-rendering:auto;shape-rendering:auto;text-rendering:auto;enable-background:accumulate;stop-color:#000000"
       d="m 82.439453,101.01758 c 1.986626,0.24531 4.629524,-0.14601 7.748047,-2.197268 6.178339,-4.063907 9.483995,-9.026227 16.46484,-14.552734 7.11296,-5.631094 15.02771,-6.412388 18.39649,-6.412388 v -0.509487 c -3.4466,0 -11.56909,0.929372 -18.88867,6.724051 -7.065753,5.593721 -10.27012,10.618074 -16.307981,14.589579 -2.986454,1.964387 -5.724949,2.146137 -7.527682,1.923537 -1.802733,-0.22261 -2.82102,-0.834636 -3.580973,-1.743232 0.23642,0.861333 1.709303,1.932632 3.695929,2.177942 z"
       id="path5397" />
    <path
       id="path5288"
       style="font-variation-settings:normal;vector-effect:none;fill:#000000;fill-opacity:1;stroke:none;stroke-width:3;stroke-linecap:butt;stroke-linejoin:miter;stroke-miterlimit:5;stroke-dasharray:none;stroke-dashoffset:0;stroke-opacity:1;paint-order:markers stroke fill;stop-color:#000000"
       d="m 476.01562,267.24609 c -2.70644,1.06091 -4.31835,2.74742 -4.31835,6.68164 v 49.55469 c 0,4.08493 2.48324,7.4475 5.23828,9.58203 v -58.05273 c 0,-2.46647 -0.34906,-5.08804 -0.91993,-7.76563 z"
       transform="scale(0.26458333)" />
    <path
       id="path5281"
       style="font-variation-settings:normal;opacity:1;vector-effect:none;fill:#000000;fill-opacity:1;stroke:none;stroke-width:0.79375;stroke-linecap:butt;stroke-linejoin:miter;stroke-miterlimit:5;stroke-dasharray:none;stroke-dashoffset:0;stroke-opacity:1;paint-order:markers stroke fill;stop-color:#000000;stop-opacity:1"
       d="m 132.83582,181.2587 c 0,0 -0.27721,-2.55156 -0.36483,-9.35498 -0.0877,-6.80342 -0.24282,-11.95154 -1.31104,-22.3666 -1.06391,-10.37314 -3.03532,-13.95913 -4.07314,-22.45031 -1.03781,-8.49117 -2.21704,-17.80424 -2.10478,-18.14101 0.11226,-0.33677 1.04002,-0.59558 2.30632,-2.60604 1.10249,-1.75039 1.67791,-6.573614 1.61024,-10.55181 -0.0677,-3.978195 -2.31304,-5.283949 -2.31304,-7.388696 V 72.764033 c 0,-4.009044 -3.0348,-9.169689 -4.16873,-10.94145 -1.13393,-1.771764 -1.09953,-3.947337 1.20509,-4.535641 1.73593,-0.443132 6.18801,-0.890963 9.5219,-1.092956 -0.52543,1.142605 -1.0794,2.415971 -1.61851,3.76411 -1.42277,0.191815 -2.85884,0.477989 -4.27157,0.879018 2.20498,5.512432 1.90427,9.120888 1.90427,9.120888 h 13.78573 c 0,0 -0.30071,-3.608454 1.90427,-9.120888 -1.41273,-0.401029 -2.84879,-0.687203 -4.27157,-0.879018 -0.5391,-1.348139 -1.09308,-2.621505 -1.61851,-3.76411 3.3339,0.201993 7.78598,0.649824 9.5219,1.092956 2.30462,0.588304 2.33903,2.763877 1.2051,4.535641 -1.13393,1.771761 -4.16874,6.932406 -4.16874,10.94145 v 15.635221 c 0,2.104747 -2.24535,3.410501 -2.31304,7.388696 -0.0677,3.978196 0.50775,8.80142 1.61024,10.55181 1.2663,2.01046 2.19406,2.26927 2.30632,2.60604 0.11226,0.33677 -1.06697,9.64984 -2.10478,18.14101 -1.03781,8.49118 -3.00922,12.07717 -4.07314,22.45031 -1.06821,10.41506 -1.22325,15.56318 -1.31103,22.3666 -0.0877,6.80342 -0.36484,9.35498 -0.36484,9.35498 -0.012,0.92817 -1.01025,1.28571 -3.21504,1.28571 -2.20479,-7e-5 -3.20307,-0.35754 -3.21505,-1.28571 z" />
    <path
       id="path5685"
       style="color:#000000;font-style:normal;font-variant:normal;font-weight:normal;font-stretch:normal;font-size:medium;line-height:normal;font-family:sans-serif;font-variant-ligatures:normal;font-variant-position:normal;font-variant-caps:normal;font-variant-numeric:normal;font-variant-alternates:normal;font-variant-east-asian:normal;font-feature-settings:normal;font-variation-settings:normal;text-indent:0;text-align:start;text-decoration:none;text-decoration-line:none;text-decoration-style:solid;text-decoration-color:#000000;letter-spacing:normal;word-spacing:normal;text-transform:none;writing-mode:lr-tb;direction:ltr;text-orientation:mixed;dominant-baseline:auto;baseline-shift:baseline;text-anchor:start;white-space:normal;shape-padding:0;shape-margin:0;inline-size:0;clip-rule:nonzero;display:inline;overflow:visible;visibility:visible;opacity:1;isolation:auto;mix-blend-mode:normal;color-interpolation:sRGB;color-interpolation-filters:linearRGB;solid-color:#000000;solid-opacity:1;vector-effect:none;fill:#bf9f4f;fill-opacity:1;fill-rule:nonzero;stroke:none;stroke-width:3.77953;stroke-linecap:butt;stroke-linejoin:miter;stroke-miterlimit:5;stroke-dasharray:none;stroke-dashoffset:0;stroke-opacity:1;paint-order:markers stroke fill;color-rendering:auto;image-rendering:auto;shape-rendering:auto;text-rendering:auto;enable-background:accumulate;stop-color:#000000;stop-opacity:1"
       d="m 521.45703,463.14453 c 2.48092,0 5.14931,-0.56301 7.21289,-1.41601 1.21346,-0.50151 13.41339,-5.41877 31.28711,-12.05079 v -14.50585 c -16.51181,6.21626 -39.14258,14.51562 -39.14258,14.51562 h -13.21289 c 0,0 -22.63075,-8.29936 -39.14258,-14.51562 v 14.50585 c 17.87372,6.63203 30.07365,11.54926 31.28711,12.05079 2.06355,0.853 4.73197,1.41601 7.21289,1.41601 z"
       transform="scale(0.26458333)" />
    <path
       id="path5714"
       style="font-variation-settings:normal;vector-effect:none;fill:#000000;fill-opacity:1;stroke:none;stroke-width:0.132292;stroke-linecap:butt;stroke-linejoin:miter;stroke-miterlimit:5;stroke-dasharray:none;stroke-dashoffset:0;stroke-opacity:1;stop-color:#000000"
       d="m 147.65931,71.987335 c 2.02501,0.0323 4.97302,0.26892 7.91321,1.177708 5.24785,1.62206 11.85348,4.574286 17.03824,9.822138 5.04955,5.111003 9.45732,12.435681 13.73094,13.93145 4.27363,1.495769 6.61485,-0.300527 7.61711,-1.403014 0.95821,-1.054034 1.88832,-0.974331 2.30528,-0.401011 0.41696,0.573321 0.34547,4.05442 -1.51567,6.768574 -1.86114,2.71417 -6.33001,5.21007 -14.32005,1.45005 -7.99006,-3.760027 -11.61216,-9.697917 -18.44177,-13.630697 -5.82696,-3.355409 -11.12775,-4.035713 -14.29112,-4.429702 v -12.79612 c 0,-0.173048 -0.0128,-0.335542 -0.0362,-0.489376 z" />
    <path
       style="color:#000000;font-style:normal;font-variant:normal;font-weight:normal;font-stretch:normal;font-size:medium;line-height:normal;font-family:sans-serif;font-variant-ligatures:normal;font-variant-position:normal;font-variant-caps:normal;font-variant-numeric:normal;font-variant-alternates:normal;font-variant-east-asian:normal;font-feature-settings:normal;font-variation-settings:normal;text-indent:0;text-align:start;text-decoration:none;text-decoration-line:none;text-decoration-style:solid;text-decoration-color:#000000;letter-spacing:normal;word-spacing:normal;text-transform:none;writing-mode:lr-tb;direction:ltr;text-orientation:mixed;dominant-baseline:auto;baseline-shift:baseline;text-anchor:start;white-space:normal;shape-padding:0;shape-margin:0;inline-size:0;clip-rule:nonzero;display:inline;overflow:visible;visibility:visible;isolation:auto;mix-blend-mode:normal;color-interpolation:sRGB;color-interpolation-filters:linearRGB;solid-color:#000000;solid-opacity:1;vector-effect:none;fill:#bf9f4f;fill-opacity:1;fill-rule:nonzero;stroke:none;stroke-linecap:butt;stroke-linejoin:miter;stroke-miterlimit:5;stroke-dasharray:none;stroke-dashoffset:0;stroke-opacity:1;color-rendering:auto;image-rendering:auto;shape-rendering:auto;text-rendering:auto;enable-background:accumulate;stop-color:#000000"
       d="m 189.66239,101.01758 c -1.98663,0.24531 -4.62953,-0.14601 -7.74805,-2.197268 -6.17834,-4.063907 -9.484,-9.026227 -16.46484,-14.552734 -7.11296,-5.631094 -15.02771,-6.412388 -18.39649,-6.412388 v -0.509487 c 3.4466,0 11.56909,0.929372 18.88867,6.724051 7.06575,5.593721 10.27012,10.618074 16.30798,14.589579 2.98645,1.964387 5.72495,2.146137 7.52768,1.923537 1.80274,-0.22261 2.82102,-0.834636 3.58098,-1.743232 -0.23642,0.861333 -1.70931,1.932632 -3.69593,2.177942 z"
       id="path5716" />
    <path
       id="path5320"
       style="color:#000000;font-style:normal;font-variant:normal;font-weight:normal;font-stretch:normal;font-size:medium;line-height:normal;font-family:sans-serif;font-variant-ligatures:normal;font-variant-position:normal;font-variant-caps:normal;font-variant-numeric:normal;font-variant-alternates:normal;font-variant-east-asian:normal;font-feature-settings:normal;font-variation-settings:normal;text-indent:0;text-align:start;text-decoration:none;text-decoration-line:none;text-decoration-style:solid;text-decoration-color:#000000;letter-spacing:normal;word-spacing:normal;text-transform:none;writing-mode:lr-tb;direction:ltr;text-orientation:mixed;dominant-baseline:auto;baseline-shift:baseline;text-anchor:start;white-space:normal;shape-padding:0;shape-margin:0;inline-size:0;clip-rule:nonzero;display:inline;overflow:visible;visibility:visible;opacity:1;isolation:auto;mix-blend-mode:normal;color-interpolation:sRGB;color-interpolation-filters:linearRGB;solid-color:#000000;solid-opacity:1;vector-effect:none;fill:#000000;fill-opacity:1;fill-rule:nonzero;stroke:none;stroke-width:3;stroke-linecap:butt;stroke-linejoin:miter;stroke-miterlimit:5;stroke-dasharray:none;stroke-dashoffset:0;stroke-opacity:1;paint-order:markers stroke fill;color-rendering:auto;image-rendering:auto;shape-rendering:auto;text-rendering:auto;enable-background:accumulate;stop-color:#000000;stop-opacity:1"
       d="m 521.45898,462.04297 c 2.23945,0 4.79134,-0.54075 6.63477,-1.30274 1.84339,-0.76191 25.9324,-10.48545 57.56641,-21.51562 31.63396,-11.03021 66.893,-24.52115 90.70312,-33.15234 4.69829,0.0425 9.6962,-2.26854 14.91406,-6.25586 1.56163,-0.002 3.33179,-0.79093 4.6875,-1.74024 5.33885,3.11789 9.64163,3.11593 11.96094,-0.3457 -2.50019,-0.15205 -5.17694,-0.46265 -8.73828,-1.32227 11.11234,-12.39367 12.35907,-25.22305 24.49805,-29.1914 0.93275,-2.92633 -0.9158,-5.79003 -6.35352,-5.4961 -5.43772,0.29395 -10.6381,2.17522 -17.66601,15.1543 -3.81362,0.12194 -9.10324,2.30142 -14.24805,9.83398 -8.57775,1.93134 -12.47733,6.50114 -20.58789,9.64454 -21.30724,8.25804 -143.74024,54.30078 -143.74024,54.30078 h -13.76367 c 0,0 -122.43299,-46.04277 -143.74023,-54.30078 -8.11057,-3.1434 -12.01015,-7.71321 -20.58789,-9.64454 -5.14484,-7.53257 -10.43443,-9.71204 -14.24805,-9.83398 -7.02791,-12.97908 -12.2283,-14.86035 -17.66602,-15.1543 -0.33985,-0.0184 -0.6665,-0.0231 -0.97851,-0.0176 -4.68023,0.0831 -6.24945,2.77025 -5.375,5.51368 12.13897,3.96835 13.38571,16.79772 24.49805,29.1914 -3.56134,0.85961 -6.23811,1.17023 -8.73829,1.32227 2.3193,3.46165 6.62405,3.46373 11.96289,0.3457 1.35571,0.94929 3.12591,1.73843 4.6875,1.74024 5.21789,3.98732 10.21382,6.29838 14.91211,6.25586 23.81012,8.6312 59.06916,22.12213 90.70313,33.15234 31.634,11.03017 55.72302,20.75367 57.56641,21.51562 1.84342,0.76196 4.39532,1.30274 6.63476,1.30274 z"
       transform="scale(0.26458333)" />
    <path
       id="path5718"
       style="font-variation-settings:normal;vector-effect:none;fill:#000000;fill-opacity:1;stroke:none;stroke-width:0.79375;stroke-linecap:butt;stroke-linejoin:miter;stroke-miterlimit:5;stroke-dasharray:none;stroke-dashoffset:0;stroke-opacity:1;paint-order:markers stroke fill;stop-color:#000000"
       d="m 146.15604,70.70886 c 0.71608,0.2807 1.14257,0.726922 1.14257,1.767851 v 13.111345 c 0,1.080804 -0.65703,1.970484 -1.38597,2.535245 V 72.763517 c 0,-0.652587 0.0924,-1.346211 0.2434,-2.054657 z" />
    <path
       style="color:#000000;font-style:normal;font-variant:normal;font-weight:normal;font-stretch:normal;font-size:medium;line-height:normal;font-family:sans-serif;font-variant-ligatures:normal;font-variant-position:normal;font-variant-caps:normal;font-variant-numeric:normal;font-variant-alternates:normal;font-variant-east-asian:normal;font-feature-settings:normal;font-variation-settings:normal;text-indent:0;text-align:start;text-decoration:none;text-decoration-line:none;text-decoration-style:solid;text-decoration-color:#000000;letter-spacing:normal;word-spacing:normal;text-transform:none;writing-mode:lr-tb;direction:ltr;text-orientation:mixed;dominant-baseline:auto;baseline-shift:baseline;text-anchor:start;white-space:normal;shape-padding:0;shape-margin:0;inline-size:0;clip-rule:nonzero;display:inline;overflow:visible;visibility:visible;isolation:auto;mix-blend-mode:normal;color-interpolation:sRGB;color-interpolation-filters:linearRGB;solid-color:#000000;solid-opacity:1;vector-effect:none;fill:#bf9f4f;fill-opacity:1;fill-rule:nonzero;stroke:none;stroke-linecap:butt;stroke-linejoin:miter;stroke-miterlimit:5;stroke-dasharray:none;stroke-dashoffset:0;stroke-opacity:1;color-rendering:auto;image-rendering:auto;shape-rendering:auto;text-rendering:auto;enable-background:accumulate;stop-color:#000000"
       d="m 184.42801,101.75195 c -0.44163,1.57304 -1.05194,4.05951 -1.85349,4.20826 0.5946,-0.80185 1.02163,-2.71622 1.47068,-4.31568 0.17257,-0.61469 0.42867,-1.24505 0.69922,-1.869139 -1.63657,0.450059 -2.73928,1.560919 -3.53516,2.841799 -0.85397,1.37438 -1.38304,2.84762 -2.21973,3.51074 0.41435,-0.78038 1.01611,-2.24563 1.8372,-3.61064 -0.3454,0.0952 -0.5904,0.19535 -1.2289,0.40943 0.12403,-0.50591 1.39603,-0.80173 1.39603,-0.80173 0.85809,-1.2315 2.17739,-2.505725 3.94587,-2.871084 0.41075,-0.817198 1.402,-2.335295 1.96096,-2.154858 -1.28331,1.46281 -2.03105,3.079862 -2.47268,4.652902 z m -0.28752,3.5722 c 1.49731,-1.04742 2.58688,-2.74062 3.57072,-4.5136 0.49193,-0.886493 0.98451,-1.745135 1.57227,-2.437503 0.58776,-0.692368 1.70587,-1.497536 2.19196,-1.214228 -0.88205,0.304813 -1.33585,0.818216 -1.88923,1.470087 -0.55338,0.651871 -1.03737,1.492024 -1.52734,2.375004 -0.79056,1.42466 -1.69516,2.84178 -2.88867,3.88671 0.67316,0.18144 1.38033,0.28556 2.13536,0.34207 -0.18729,0.28544 -1.53472,0.11863 -2.29669,-0.1485 -0.22631,0.15202 -0.58735,0.36896 -0.86838,0.23998 z"
       id="path5726" />
    <path
       style="color:#000000;font-style:normal;font-variant:normal;font-weight:normal;font-stretch:normal;font-size:medium;line-height:normal;font-family:sans-serif;font-variant-ligatures:normal;font-variant-position:normal;font-variant-caps:normal;font-variant-numeric:normal;font-variant-alternates:normal;font-variant-east-asian:normal;font-feature-settings:normal;font-variation-settings:normal;text-indent:0;text-align:start;text-decoration:none;text-decoration-line:none;text-decoration-style:solid;text-decoration-color:#000000;letter-spacing:normal;word-spacing:normal;text-transform:none;writing-mode:lr-tb;direction:ltr;text-orientation:mixed;dominant-baseline:auto;baseline-shift:baseline;text-anchor:start;white-space:normal;shape-padding:0;shape-margin:0;inline-size:0;clip-rule:nonzero;display:inline;overflow:visible;visibility:visible;opacity:1;isolation:auto;mix-blend-mode:normal;color-interpolation:sRGB;color-interpolation-filters:linearRGB;solid-color:#000000;solid-opacity:1;vector-effect:none;fill:#bf9f4f;fill-opacity:1;fill-rule:nonzero;stroke:none;stroke-linecap:butt;stroke-linejoin:miter;stroke-miterlimit:5;stroke-dasharray:none;stroke-dashoffset:0;stroke-opacity:1;color-rendering:auto;image-rendering:auto;shape-rendering:auto;text-rendering:auto;enable-background:accumulate;stop-color:#000000;stop-opacity:1"
       d="m 87.673828,101.75195 c 0.441629,1.57304 1.051939,4.05951 1.853494,4.20826 -0.594598,-0.80185 -1.021636,-2.71622 -1.470681,-4.31568 -0.172573,-0.61469 -0.42867,-1.24505 -0.699219,-1.869139 1.63657,0.450059 2.739282,1.560919 3.535156,2.841799 0.853974,1.37438 1.383041,2.84762 2.219727,3.51074 -0.414347,-0.78038 -1.016101,-2.24563 -1.837193,-3.61064 0.345394,0.0952 0.590397,0.19535 1.228902,0.40943 -0.124035,-0.50591 -1.396034,-0.80173 -1.396034,-0.80173 -0.858091,-1.2315 -2.177386,-2.505725 -3.945871,-2.871084 -0.410754,-0.817198 -1.402,-2.335295 -1.960962,-2.154858 1.283311,1.46281 2.031052,3.079862 2.472681,4.652902 z m 0.287524,3.5722 c -1.497314,-1.04742 -2.58688,-2.74062 -3.570727,-4.5136 -0.491924,-0.886493 -0.984508,-1.745135 -1.572266,-2.437503 -0.587758,-0.692368 -1.705868,-1.497536 -2.191956,-1.214228 0.88205,0.304813 1.335843,0.818216 1.889223,1.470087 0.55338,0.651871 1.037369,1.492024 1.527344,2.375004 0.790563,1.42466 1.695161,2.84178 2.888672,3.88671 -0.673158,0.18144 -1.380337,0.28556 -2.135361,0.34207 0.187292,0.28544 1.534714,0.11863 2.296684,-0.1485 0.22631,0.15202 0.587351,0.36896 0.868387,0.23998 z"
       id="path5577" />
  </g>
  <g
     id="g5279"
     transform="matrix(1.033087,0,0,1.0331091,-75.137372,-50.861636)"
     style="stroke:none">
    <path
       style="font-variation-settings:normal;opacity:1;vector-effect:none;fill:#000000;fill-opacity:1;stroke:none;stroke-width:0.79375;stroke-linecap:butt;stroke-linejoin:round;stroke-miterlimit:5;stroke-dasharray:none;stroke-dashoffset:0;stroke-opacity:1;paint-order:markers stroke fill;stop-color:#000000;stop-opacity:1"
       d="m 139.61471,69.957799 c -0.20046,-1.904295 -0.60136,-6.013564 -0.60136,-6.013564 1.20271,1.403165 4.33784,3.76075 4.33784,3.76075 -1.64748,-7.578423 -6.59282,-16.441965 -6.59282,-16.441965 0,0 -4.94534,8.863542 -6.59282,16.441965 0,0 3.13513,-2.357585 4.33784,-3.76075 0,0 -0.4009,4.109269 -0.60136,6.013564 0,0 1.20264,0.378828 2.85634,0.378828 1.6537,0 2.85634,-0.378828 2.85634,-0.378828 z"
       id="path907" />
    <path
       style="font-variation-settings:normal;opacity:1;vector-effect:none;fill:#bf9f4f;fill-opacity:1;stroke:none;stroke-width:0.132292;stroke-linecap:butt;stroke-linejoin:miter;stroke-miterlimit:5;stroke-dasharray:none;stroke-dashoffset:0;stroke-opacity:1;stop-color:#000000;stop-opacity:1"
       d="m 134.35305,96.551116 c 0,0 -2.38467,2.284442 -3.88806,4.088514 0,0 -1.05539,10.20189 -1.90584,15.9424 0,0 3.6144,-1.63002 6.44922,-4.81919 h 3.5 c 2.83482,3.18917 6.44922,4.81919 6.44922,4.81919 -0.85045,-5.74051 -1.90584,-15.9424 -1.90584,-15.9424 -1.50339,-1.804072 -3.88806,-4.088514 -3.88806,-4.088514 z"
       id="path5222" />
    <g
       id="g5245"
       style="stroke:none">
      <path
         style="color:#000000;font-style:normal;font-variant:normal;font-weight:normal;font-stretch:normal;font-size:medium;line-height:normal;font-family:sans-serif;font-variant-ligatures:normal;font-variant-position:normal;font-variant-caps:normal;font-variant-numeric:normal;font-variant-alternates:normal;font-variant-east-asian:normal;font-feature-settings:normal;font-variation-settings:normal;text-indent:0;text-align:start;text-decoration:none;text-decoration-line:none;text-decoration-style:solid;text-decoration-color:#000000;letter-spacing:normal;word-spacing:normal;text-transform:none;writing-mode:lr-tb;direction:ltr;text-orientation:mixed;dominant-baseline:auto;baseline-shift:baseline;text-anchor:start;white-space:normal;shape-padding:0;shape-margin:0;inline-size:0;clip-rule:nonzero;display:inline;overflow:visible;visibility:visible;opacity:1;isolation:auto;mix-blend-mode:normal;color-interpolation:sRGB;color-interpolation-filters:linearRGB;solid-color:#000000;solid-opacity:1;vector-effect:none;fill:#604f23;fill-opacity:1;fill-rule:nonzero;stroke:none;stroke-linecap:butt;stroke-linejoin:miter;stroke-miterlimit:5;stroke-dasharray:none;stroke-dashoffset:0;stroke-opacity:1;color-rendering:auto;image-rendering:auto;shape-rendering:auto;text-rendering:auto;enable-background:accumulate;stop-color:#000000;stop-opacity:1"
         d="m 138.92188,99.886719 -0.21099,0.835781 c 0,0 2.48423,2.19413 4.21098,2.37027 -1.87401,-1.46962 -3.99999,-3.206051 -3.99999,-3.206051 z m -0.16016,3.029301 -0.0736,0.82082 c 0,0 3.32307,2.78525 4.72962,2.75813 -1.96441,-1.62631 -4.65597,-3.57895 -4.65597,-3.57895 z m -0.0644,3.19531 -0.23766,0.85922 c 0,0 3.5023,2.79089 5.24226,2.78419 -2.16858,-1.48136 -5.0046,-3.64341 -5.0046,-3.64341 z m 0.0156,3.13281 -0.11857,0.77981 c 0,0 3.48786,3.34043 5.46218,3.41605 -2.80186,-1.62023 -5.34361,-4.19586 -5.34361,-4.19586 z"
         id="path5249" />
      <path
         style="color:#000000;font-style:normal;font-variant:normal;font-weight:normal;font-stretch:normal;font-size:medium;line-height:normal;font-family:sans-serif;font-variant-ligatures:normal;font-variant-position:normal;font-variant-caps:normal;font-variant-numeric:normal;font-variant-alternates:normal;font-variant-east-asian:normal;font-feature-settings:normal;font-variation-settings:normal;text-indent:0;text-align:start;text-decoration:none;text-decoration-line:none;text-decoration-style:solid;text-decoration-color:#000000;letter-spacing:normal;word-spacing:normal;text-transform:none;writing-mode:lr-tb;direction:ltr;text-orientation:mixed;dominant-baseline:auto;baseline-shift:baseline;text-anchor:start;white-space:normal;shape-padding:0;shape-margin:0;inline-size:0;clip-rule:nonzero;display:inline;overflow:visible;visibility:visible;opacity:1;isolation:auto;mix-blend-mode:normal;color-interpolation:sRGB;color-interpolation-filters:linearRGB;solid-color:#000000;solid-opacity:1;vector-effect:none;fill:#ffffff;fill-opacity:1;fill-rule:nonzero;stroke:none;stroke-linecap:butt;stroke-linejoin:miter;stroke-miterlimit:5;stroke-dasharray:none;stroke-dashoffset:0;stroke-opacity:1;color-rendering:auto;image-rendering:auto;shape-rendering:auto;text-rendering:auto;enable-background:accumulate;stop-color:#000000;stop-opacity:1"
         d="m 138.99219,99.357422 -0.36133,0.384766 c 0,0 2.33801,2.197972 4.29101,3.350582 -1.59053,-1.54049 -3.92968,-3.735348 -3.92968,-3.735348 z m -0.16016,3.031248 -0.32422,0.41797 c 0,0 3.04728,2.55069 4.90988,3.68833 -1.5392,-1.55543 -4.58566,-4.1063 -4.58566,-4.1063 z m -0.0644,3.19336 -0.33594,0.4082 c 0,0 3.04485,2.69453 5.27023,3.76451 -1.88511,-1.48136 -4.93429,-4.17271 -4.93429,-4.17271 z m 0.0156,3.13281 -0.36914,0.37891 c 0,0 2.84456,2.98993 5.64244,4.34625 -2.44654,-1.76196 -5.2733,-4.72516 -5.2733,-4.72516 z"
         id="path5242" />
    </g>
    <path
       style="font-variation-settings:normal;opacity:1;vector-effect:none;fill:#ffffff;fill-opacity:1;stroke:none;stroke-width:0.132292;stroke-linecap:butt;stroke-linejoin:miter;stroke-miterlimit:5;stroke-dasharray:none;stroke-dashoffset:0;stroke-opacity:1;stop-color:#000000;stop-opacity:1"
       d="m 138.50837,111.76284 c 2.83482,3.18917 6.44922,4.81919 6.44922,4.81919 -0.0301,-0.20334 -0.0605,-0.41228 -0.0911,-0.62616 -1.45144,-0.73034 -4.24026,-2.51088 -6.16599,-4.59708 z"
       id="path5265" />
    <path
       id="path5259"
       style="font-variation-settings:normal;opacity:1;vector-effect:none;fill:#604f23;fill-opacity:1;stroke:none;stroke-width:0.500001;stroke-linecap:butt;stroke-linejoin:miter;stroke-miterlimit:5;stroke-dasharray:none;stroke-dashoffset:0;stroke-opacity:1;stop-color:#000000;stop-opacity:1"
       d="m 523.49609,422.41016 c 0.69758,0.78477 1.40953,1.53597 2.12855,2.26596 1.01698,-19.26659 2.02396,-38.53319 2.3428,-57.79978 -1.16957,-1.15444 -1.99478,-1.95837 -1.99478,-1.95837 z"
       transform="scale(0.26458333)" />
    <path
       style="font-variation-settings:normal;opacity:1;vector-effect:none;fill:#bf9f4f;fill-opacity:1;stroke:none;stroke-width:0.132292;stroke-linecap:butt;stroke-linejoin:miter;stroke-miterlimit:5;stroke-dasharray:none;stroke-dashoffset:0;stroke-opacity:1;stop-color:#000000;stop-opacity:1"
       d="m 139.61471,69.957799 v 15.606562 c 0,11.339285 -0.83522,22.145259 -1.03567,33.671259 h -3.64134 c -0.20045,-11.526 -1.03567,-22.331975 -1.03567,-33.67126 V 69.957798 Z"
       id="path911" />
    <use
       x="0"
       y="0"
       xlink:href="#g5245"
       id="use5247"
       transform="matrix(-1,0,0,1,273.51674,0)"
       width="100%"
       height="100%"
       style="stroke:none" />
    <path
       id="path5237"
       style="font-variation-settings:normal;opacity:1;vector-effect:none;fill:#ffffff;fill-opacity:1;stroke:none;stroke-width:0.500001;stroke-linecap:butt;stroke-linejoin:miter;stroke-miterlimit:5;stroke-dasharray:none;stroke-dashoffset:0;stroke-opacity:1;stop-color:#000000;stop-opacity:1"
       d="m 507.79102,364.91797 c 0,0 -9.01321,8.63458 -14.69532,15.45312 0,0 -3.98882,38.55749 -7.20312,60.25391 0,0 0.92931,-0.4241 2.45703,-1.23633 3.157,-22.12826 7.125,-57.77539 7.125,-57.77539 4.33211,-5.19856 10.38027,-11.01223 13.00965,-13.48128 z"
       transform="scale(0.26458333)" />
    <path
       style="font-variation-settings:normal;opacity:1;vector-effect:none;fill:#ffffff;fill-opacity:1;stroke:none;stroke-width:0.132292;stroke-linecap:butt;stroke-linejoin:miter;stroke-miterlimit:5;stroke-dasharray:none;stroke-dashoffset:0;stroke-opacity:1;stop-color:#000000;stop-opacity:1"
       d="m 135.46687,119.23562 c -0.20045,-11.526 -0.65142,-22.338488 -1.03567,-33.67126 V 69.957798 h -0.52917 V 85.56436 c 0,11.339285 0.83522,22.14526 1.03567,33.67126 z"
       id="path917" />
    <path
       id="path923"
       style="font-variation-settings:normal;opacity:1;vector-effect:none;fill:#604f23;fill-opacity:1;stroke:none;stroke-width:0.132292;stroke-linecap:butt;stroke-linejoin:miter;stroke-miterlimit:5;stroke-dasharray:none;stroke-dashoffset:0;stroke-opacity:1;stop-color:#000000;stop-opacity:1"
       d="m 137.27503,119.23562 c 0.27978,-14.44083 0.0835,-49.277821 0.0835,-49.277821 h 0.48393 c 0,0 0.0701,6.798595 0.0447,15.701114 -0.0318,11.145513 -0.17301,25.548467 -0.32866,33.576707 m 0.31657,0 c 0.20045,-11.526 0.61418,-22.332315 0.70208,-33.671259 l 0.0207,-15.606562 h 0.52916 l -0.0562,15.606562 c -0.0409,11.339211 -0.64337,22.145259 -0.84382,33.671259" />
  </g>
  <path
     id="path5375"
     style="color:#000000;font-style:normal;font-variant:normal;font-weight:normal;font-stretch:normal;font-size:medium;line-height:normal;font-family:sans-serif;font-variant-ligatures:normal;font-variant-position:normal;font-variant-caps:normal;font-variant-numeric:normal;font-variant-alternates:normal;font-variant-east-asian:normal;font-feature-settings:normal;font-variation-settings:normal;text-indent:0;text-align:start;text-decoration:none;text-decoration-line:none;text-decoration-style:solid;text-decoration-color:#000000;letter-spacing:normal;word-spacing:normal;text-transform:none;writing-mode:lr-tb;direction:ltr;text-orientation:mixed;dominant-baseline:auto;baseline-shift:baseline;text-anchor:start;white-space:normal;shape-padding:0;shape-margin:0;inline-size:0;clip-rule:nonzero;display:inline;overflow:visible;visibility:visible;isolation:auto;mix-blend-mode:normal;color-interpolation:sRGB;color-interpolation-filters:linearRGB;solid-color:#000000;solid-opacity:1;vector-effect:none;fill:#bf9f4f;fill-opacity:1;fill-rule:nonzero;stroke:none;stroke-width:1.0331;stroke-linecap:butt;stroke-linejoin:miter;stroke-miterlimit:5;stroke-dasharray:none;stroke-dashoffset:0;stroke-opacity:1;color-rendering:auto;image-rendering:auto;shape-rendering:auto;text-rendering:auto;enable-background:accumulate;stop-color:#000000"
     d="m 105.72968,59.079455 c 1.30798,-0.50953 3.37079,0.24093 4.33033,-0.67606 -1.05977,0.41396 -4.13462,-0.51328 -4.33033,0.67606 z m -4.65876,2.008 c 0.8464,-0.0681 4.49802,0.30199 4.6285,-0.37861 -0.95351,0.104 -4.592,-0.71469 -4.6285,0.37861 z m -4.880935,1.76759 c 0.86737,0.007 3.916135,0.63485 4.081795,-0.0941 -1.024355,0.05 -3.936715,-0.95629 -4.081795,0.0941 z m -4.3845,1.60212 c 0.83202,0.0606 3.18525,0.73441 3.36358,0.28047 -0.4715,-0.007 -3.20638,-1.284 -3.36358,-0.28047 z m -4.91126,1.75951 c 0.79713,-0.0384 3.38926,0.5053 3.56536,-0.0948 -0.86273,0.0219 -3.53008,-0.9662 -3.56536,0.0948 z m -4.56012,1.61423 c 0.82314,0.0314 3.30973,0.83309 3.523,0.19573 -0.92615,-0.0301 -3.37827,-1.24742 -3.523,-0.19573 z m -4.46523,1.77163 c 0.88378,-0.006 3.36888,0.53942 3.50685,0.0322 -0.49093,0.051 -3.43513,-1.05175 -3.50685,-0.0322 z m -4.2958,1.56983 c 0.67454,0.002 2.91932,0.81316 3.14365,0.22802 -0.47029,-0.0525 -3.05628,-1.01134 -3.14365,-0.22802 z m -4.31395,1.56985 c 0.7333,0.0149 2.95717,0.61639 3.56334,0.22742 -0.92044,-0.15849 -3.26087,-0.83533 -3.56334,-0.22742 z M 24.923152,58.561175 c 1.002774,0.83496 2.180733,2.6885 2.594823,2.52022 -0.167907,-0.28204 -1.958971,-3.52445 -2.594823,-2.52022 z m 5.41563,2.1207 c 0.939603,0.85048 1.978847,2.5708 2.316377,2.48995 -0.08492,-0.26136 -1.674427,-3.48128 -2.316377,-2.48995 z m 4.935418,1.99358 c 0.980927,0.78612 1.865353,2.32945 2.217501,2.27408 -0.0624,-0.24807 -1.616244,-2.82374 -2.217501,-2.27408 z m 4.989893,1.71714 c 0.655452,0.65734 1.525492,2.02578 1.906772,1.91286 -0.15715,-0.29464 -1.28767,-2.62242 -1.906772,-1.91286 z m 4.681182,1.75144 c 0.69452,0.76063 1.41428,2.19137 1.83816,2.0642 -0.16047,-0.29556 -1.17169,-2.78897 -1.83816,-2.0642 z m 3.81556,1.10776 c 0.81241,0.75718 2.06733,2.70852 2.47981,2.54646 -0.20375,-0.31072 -1.7758,-3.38323 -2.47981,-2.54646 z m 5.05445,1.97744 c 0.78126,0.78965 1.7474,2.45571 2.12066,2.35274 -0.13288,-0.281 -1.43634,-3.18429 -2.12066,-2.35274 z m 4.05568,1.85234 c 0.84264,0.63187 2.15705,2.2287 2.52218,2.08236 -0.17876,-0.29118 -1.95853,-2.98897 -2.52218,-2.08236 z m 4.5359,1.46087 c 0.78079,0.47588 2.40222,2.20522 2.80669,1.99964 -0.32539,-0.33676 -2.31233,-2.76305 -2.80669,-1.99964 z m 3.64607,0.62754 c 0.72831,0.27399 2.59223,1.50948 2.93986,1.1582 -0.36044,-0.22142 -2.57333,-1.65424 -2.93986,-1.1582 z" />
  <path
     style="font-variation-settings:normal;vector-effect:none;fill:#bf9f4f;fill-opacity:1;stroke:none;stroke-width:0.13667;stroke-linecap:butt;stroke-linejoin:miter;stroke-miterlimit:5;stroke-dasharray:none;stroke-dashoffset:0;stroke-opacity:1;stop-color:#000000"
     d="m 62.753025,75.371555 c 0,0 -0.0844,2.84829 0.0764,3.75123 0.16123,0.90293 0.52659,1.12014 0.52659,1.12014 v -4.71126 z m 1.70425,0.25451 c 0,0 0.0423,1.01357 0.14794,1.1544 0.10563,0.14084 0.40789,0.25258 0.40789,0.25258 v -1.3764 z"
     id="path5813" />
  <path
     style="font-variation-settings:normal;vector-effect:none;fill:#bf9f4f;fill-opacity:1;stroke:none;stroke-width:0.13667;stroke-linecap:butt;stroke-linejoin:miter;stroke-miterlimit:5;stroke-dasharray:none;stroke-dashoffset:0;stroke-opacity:1;stop-color:#000000"
     d="m 69.538645,75.371555 c 0,0 0.0844,2.84829 -0.0764,3.75123 -0.16123,0.90293 -0.52659,1.12014 -0.52659,1.12014 v -4.71126 z m -1.70424,0.25451 c 0,0 -0.0424,1.01357 -0.14795,1.1544 -0.10562,0.14084 -0.40789,0.25258 -0.40789,0.25258 v -1.3764 z"
     id="path5815" />
  <g
     id="g5963"
     transform="matrix(1.033087,0,0,1.0331091,-74.406554,-50.861636)"
     style="stroke:none">
    <path
       style="font-variation-settings:normal;opacity:1;vector-effect:none;fill:#bf9f4f;fill-opacity:1;stroke:none;stroke-width:0.132292;stroke-linecap:butt;stroke-linejoin:miter;stroke-miterlimit:5;stroke-dasharray:none;stroke-dashoffset:0;stroke-opacity:1;stop-color:#000000;stop-opacity:1"
       d="m 96.270533,151.56845 v 2.26786 c 2.057732,0.39032 4.111977,-0.16285 4.960937,-0.81753 v -7.82868 c 3.43618,-2.0846 6.66183,-3.96875 6.66183,-3.96875 -2.62693,-18.38854 -13.125221,-25.61734 -13.125221,-25.61734 0,0 -10.498287,7.2288 -13.125223,25.61734 0,0 3.225654,1.88415 6.661832,3.96875 v 7.82868 c 0.848957,0.65468 2.903205,1.20785 4.960937,0.81753 v -2.26786 z"
       id="path5889" />
    <path
       id="path5936"
       style="font-variation-settings:normal;opacity:1;vector-effect:none;fill:#604f23;fill-opacity:1;stroke:none;stroke-width:0.500001;stroke-linecap:butt;stroke-linejoin:miter;stroke-miterlimit:5;stroke-dasharray:none;stroke-dashoffset:0;stroke-opacity:1;stop-color:#000000;stop-opacity:1"
       d="m 358.17969,436.92773 c 0,0 -1.24671,0.87995 -3.25977,2.58985 5.10993,4.10608 37.82274,32.48435 48.04297,93.07031 -4.49943,2.65121 -11.95872,7.06813 -20.35547,12.16211 v 4 c 12.98714,-7.8788 25.17774,-15 25.17774,-15 -9.9286,-69.49999 -49.60547,-96.82227 -49.60547,-96.82227 z M 308.57227,533.75 c 0,0 12.1906,7.1212 25.17773,15 l 4.92383,1.71484 c -0.41631,-34.17972 11.75586,-59.65625 11.75586,-59.65625 -10.41318,10.7805 -16.06369,30.22371 -16.65235,53.9668 -8.75129,-5.31522 -16.87949,-10.12846 -21.27882,-12.71928 z M 352.5,554.37695 v 18.48047 h 11.35742 v -2 h -8.41015 v -10.16015 c 0,-4.35629 -2.94727,-6.32032 -2.94727,-6.32032 z m -18.75,21.96094 v 2 c 3.20866,2.47438 10.97275,4.56507 18.75,3.08984 v -2 c -7.77725,1.47523 -15.54134,-0.61546 -18.75,-3.08984 z m 48.85742,-1.32583 c -3.20867,2.47438 -10.21513,4.56507 -18.75,4.41567 v 2 c 7.77726,1.47523 15.54133,-0.61546 18.75,-3.08984 z"
       transform="scale(0.26458333)" />
    <path
       id="path5957"
       style="font-variation-settings:normal;opacity:1;vector-effect:none;fill:#604f23;fill-opacity:1;stroke:none;stroke-width:0.132292;stroke-linecap:butt;stroke-linejoin:miter;stroke-miterlimit:5;stroke-dasharray:none;stroke-dashoffset:0;stroke-opacity:1;stop-color:#000000;stop-opacity:1"
       d="m 100.44877,153.13657 0.004,-6.83932 0.779,-0.0695 -6e-5,6.79079 z" />
    <path
       id="path5893"
       style="font-variation-settings:normal;opacity:1;vector-effect:none;fill:#ffffff;fill-opacity:1;stroke:none;stroke-width:0.500001;stroke-linecap:butt;stroke-linejoin:miter;stroke-miterlimit:5;stroke-dasharray:none;stroke-dashoffset:0;stroke-opacity:1;stop-color:#000000;stop-opacity:1"
       d="m 358.17773,436.92773 c 0,0 -39.67689,27.32228 -49.60546,96.82227 0,0 2.63318,1.55236 4.22851,2.49023 9.48744,-63.11119 43.42477,-92.53461 48.63672,-96.72265 -2.01306,-1.70991 -3.25977,-2.58985 -3.25977,-2.58985 z m 7.75,53.88086 c 0,0 12.17217,25.47653 11.75586,59.65625 -5.91517,1.97165 -10.84922,3.27913 -13.82617,3.91211 v 27.05078 c 4.78112,-0.41207 4,-14.17441 4,-24.43164 5.40391,-0.88625 10.3252,-2.38364 14.75,-4.32421 V 548.75 c 0,-25.56332 -5.69426,-46.56848 -16.67969,-57.94141 z M 333.75,548.75 v 29.58789 c 5.30938,-0.89192 3.99189,-13.36398 3.98439,-24.14258 4.48194,1.7771 9.14723,2.55077 14.76562,3.34375 v -3.16211 c -3.77276,-0.8022 -10.66371,-2.66928 -18.75,-5.62695 z"
       transform="scale(0.26458333)" />
  </g>
  <g
     id="g5973"
     transform="matrix(1.033087,0,0,1.0331091,10.890871,-50.861636)"
     style="stroke:none">
    <path
       style="font-variation-settings:normal;opacity:1;vector-effect:none;fill:#bf9f4f;fill-opacity:1;stroke:none;stroke-width:0.132292;stroke-linecap:butt;stroke-linejoin:miter;stroke-miterlimit:5;stroke-dasharray:none;stroke-dashoffset:0;stroke-opacity:1;stop-color:#000000;stop-opacity:1"
       d="m 96.270533,151.56845 v 2.26786 c 2.057732,0.39032 4.111977,-0.16285 4.960937,-0.81753 v -7.82868 c 3.43618,-2.0846 6.66183,-3.96875 6.66183,-3.96875 -2.62693,-18.38854 -13.125221,-25.61734 -13.125221,-25.61734 0,0 -10.498287,7.2288 -13.125223,25.61734 0,0 3.225654,1.88415 6.661832,3.96875 v 7.82868 c 0.848957,0.65468 2.903205,1.20785 4.960937,0.81753 v -2.26786 z"
       id="path5965" />
    <path
       id="path5967"
       style="font-variation-settings:normal;opacity:1;vector-effect:none;fill:#604f23;fill-opacity:1;stroke:none;stroke-width:0.500001;stroke-linecap:butt;stroke-linejoin:miter;stroke-miterlimit:5;stroke-dasharray:none;stroke-dashoffset:0;stroke-opacity:1;stop-color:#000000;stop-opacity:1"
       d="m 358.17969,436.92773 c 0,0 -1.24671,0.87995 -3.25977,2.58985 5.10993,4.10608 37.82274,32.48435 48.04297,93.07031 -4.49943,2.65121 -11.95872,7.06813 -20.35547,12.16211 v 4 c 12.98714,-7.8788 25.17774,-15 25.17774,-15 -9.9286,-69.49999 -49.60547,-96.82227 -49.60547,-96.82227 z M 308.57227,533.75 c 0,0 12.1906,7.1212 25.17773,15 l 4.92383,1.71484 c -0.41631,-34.17972 11.75586,-59.65625 11.75586,-59.65625 -10.41318,10.7805 -16.06369,30.22371 -16.65235,53.9668 -8.75129,-5.31522 -16.87949,-10.12846 -21.27882,-12.71928 z M 352.5,554.37695 v 18.48047 h 11.35742 v -2 h -8.41015 v -10.16015 c 0,-4.35629 -2.94727,-6.32032 -2.94727,-6.32032 z m -18.75,21.96094 v 2 c 3.20866,2.47438 10.97275,4.56507 18.75,3.08984 v -2 c -7.77725,1.47523 -15.54134,-0.61546 -18.75,-3.08984 z m 48.85742,-1.32583 c -3.20867,2.47438 -10.21513,4.56507 -18.75,4.41567 v 2 c 7.77726,1.47523 15.54133,-0.61546 18.75,-3.08984 z"
       transform="scale(0.26458333)" />
    <path
       id="path5969"
       style="font-variation-settings:normal;opacity:1;vector-effect:none;fill:#604f23;fill-opacity:1;stroke:none;stroke-width:0.132292;stroke-linecap:butt;stroke-linejoin:miter;stroke-miterlimit:5;stroke-dasharray:none;stroke-dashoffset:0;stroke-opacity:1;stop-color:#000000;stop-opacity:1"
       d="m 100.44877,153.13657 0.004,-6.83932 0.779,-0.0695 -6e-5,6.79079 z" />
    <path
       id="path5971"
       style="font-variation-settings:normal;opacity:1;vector-effect:none;fill:#ffffff;fill-opacity:1;stroke:none;stroke-width:0.500001;stroke-linecap:butt;stroke-linejoin:miter;stroke-miterlimit:5;stroke-dasharray:none;stroke-dashoffset:0;stroke-opacity:1;stop-color:#000000;stop-opacity:1"
       d="m 358.17773,436.92773 c 0,0 -39.67689,27.32228 -49.60546,96.82227 0,0 2.63318,1.55236 4.22851,2.49023 9.48744,-63.11119 43.42477,-92.53461 48.63672,-96.72265 -2.01306,-1.70991 -3.25977,-2.58985 -3.25977,-2.58985 z m 7.75,53.88086 c 0,0 12.17217,25.47653 11.75586,59.65625 -5.91517,1.97165 -10.84922,3.27913 -13.82617,3.91211 v 27.05078 c 4.78112,-0.41207 4,-14.17441 4,-24.43164 5.40391,-0.88625 10.3252,-2.38364 14.75,-4.32421 V 548.75 c 0,-25.56332 -5.69426,-46.56848 -16.67969,-57.94141 z M 333.75,548.75 v 29.58789 c 5.30938,-0.89192 3.99189,-13.36398 3.98439,-24.14258 4.48194,1.7771 9.14723,2.55077 14.76562,3.34375 v -3.16211 c -3.77276,-0.8022 -10.66371,-2.66928 -18.75,-5.62695 z"
       transform="scale(0.26458333)" />
  </g>
</svg>
