<?xml version="1.0" encoding="UTF-8" standalone="no"?>
<!-- Created with Inkscape (http://www.inkscape.org/) -->

<svg
   width="500"
   height="520"
   viewBox="0 0 132.29166 137.58333"
   version="1.1"
   id="svg5"
   xml:space="preserve"
   xmlns="http://www.w3.org/2000/svg"
   xmlns:svg="http://www.w3.org/2000/svg"><defs
     id="defs2" /><path
     style="font-variation-settings:normal;vector-effect:none;fill:#cccccc;fill-opacity:1;stroke:none;stroke-width:0.132292;stroke-linecap:butt;stroke-linejoin:miter;stroke-miterlimit:4;stroke-dasharray:none;stroke-dashoffset:0;stroke-opacity:1;-inkscape-stroke:none;stop-color:#000000"
     d="m 132.29166,0 c 0,0 -4.31167,46.736066 -7.49236,81.212806 -3.18067,34.476764 -27.998297,56.370534 -58.653467,56.370534 -30.655171,0 -55.472785,-21.89377 -58.653474,-56.370534 L 0,0 Z"
     id="path1742" /><path
     style="font-variation-settings:normal;vector-effect:none;fill:#045cd2;fill-opacity:1;stroke:none;stroke-width:0.132292;stroke-linecap:butt;stroke-linejoin:miter;stroke-miterlimit:4;stroke-dasharray:none;stroke-dashoffset:0;stroke-opacity:1;-inkscape-stroke:none;stop-color:#000000"
     d="m 56.334733,112.83321 c -6.83309,6.26549 -16.053657,9.02074 -23.405495,6.8699 4.412516,-4.38105 10.495122,-12.21234 13.974934,-27.745994 3.479811,-15.53364 -0.136041,-31.98986 -4.0125,-39.46586 -3.876448,-7.47601 -11.449557,-9.068317 -12.922747,-4.229607 -1.43192,4.703217 4.36672,7.537017 7.815817,4.548637 1.512283,6.48076 -4.485384,13.19374 -12.056447,12.6764 -7.57108,-0.51735 -15.36375,-9.25515 -15.33451,-19.63197 0.02928,-10.37682 5.53047,-21.510216 19.65022,-23.032264 14.119765,-1.522048 24.242588,12.366754 27.244118,25.466594 l 1.0765,-0.11673 c -0.91603,-9.96237 -8.81408,-24.312708 -15.810953,-28.57369 0,0 9.537853,-6.383023 23.592163,-6.383023 14.05431,0 23.59216,6.383023 23.59216,6.383023 -6.99687,4.260982 -14.89492,18.61132 -15.81095,28.57369 l 1.0765,0.11673 c 3.00153,-13.09984 13.124357,-26.988642 27.244117,-25.466594 14.11975,1.522048 19.62094,12.655444 19.65022,23.032264 0.0292,10.37682 -7.76344,19.11462 -15.33451,19.63197 -7.571057,0.51734 -13.568727,-6.19564 -12.056447,-12.6764 3.4491,2.98838 9.278797,0.15458 7.846877,-4.548637 -1.47318,-4.83871 -9.077357,-3.246403 -12.953807,4.229607 -3.87646,7.476 -7.49231,23.93222 -4.0125,39.46586 3.47981,15.533654 9.56242,23.364944 13.97494,27.745994 -7.35184,2.15084 -16.57241,-0.60441 -23.4055,-6.8699 -1.07359,6.70786 -4.93442,12.76405 -9.8111,17.88142 -4.87667,-5.11737 -8.73751,-11.17356 -9.8111,-17.88142 z"
     id="path3993" /></svg>
