<?xml version="1.0" encoding="UTF-8" standalone="no"?>
<svg xmlns:dc="http://purl.org/dc/elements/1.1/" xmlns:cc="http://creativecommons.org/ns#" xmlns:rdf="http://www.w3.org/1999/02/22-rdf-syntax-ns#" xmlns:svg="http://www.w3.org/2000/svg" xmlns="http://www.w3.org/2000/svg" width="500" height="580" viewBox="0 0 132.29166 153.45834" version="1.1" id="svg847">
  <defs id="defs841"/>
  <metadata id="metadata844">
    <rdf:RDF>
      <cc:Work rdf:about="">
        <dc:format>image/svg+xml</dc:format>
        <dc:type rdf:resource="http://purl.org/dc/dcmitype/StillImage"/>
        <dc:title/>
      </cc:Work>
    </rdf:RDF>
  </metadata>
  <g id="layer1" transform="translate(-40.896211,-39.384155)">
    <path id="path886" style="opacity:1;fill:#e31212;fill-opacity:1;stroke:#e31212;stroke-width:0.79375;stroke-linecap:square;stroke-linejoin:miter;stroke-miterlimit:4;stroke-dasharray:none;stroke-opacity:1;paint-order:normal" d="M 172.791,126.8104 V 39.78103 H 41.293086 v 87.02937 c 0,36.24933 29.43681,65.63521 65.748954,65.63521 36.31215,0 65.74896,-29.38588 65.74896,-65.63521 z"/>
    <path style="font-variation-settings:normal;vector-effect:none;fill:#cccccc;fill-opacity:1;stroke:none;stroke-width:0.264583;stroke-linecap:butt;stroke-linejoin:miter;stroke-miterlimit:4;stroke-dasharray:none;stroke-dashoffset:0;stroke-opacity:1;stop-color:#000000" d="m 156.35376,122.33976 c -6.51656,0 -9.92068,-8.37079 -16.43724,-8.37079 -6.51656,0 -9.92068,8.37079 -16.43724,8.37079 -6.51656,0 -9.92068,-8.37079 -16.43724,-8.37079 -6.51656,0 -9.920678,8.37079 -16.437236,8.37079 -6.516558,0 -9.920682,-8.37079 -16.43724,-8.37079 -6.516558,0 -9.920681,8.37079 -16.437239,8.37079 -6.516558,0 -9.920681,-8.37079 -16.437239,-8.37079 v 12.72768 c 0,36.31215 29.43681,65.74896 65.748954,65.74896 36.31215,0 65.74896,-29.43681 65.74896,-65.74896 v -12.72768 c -6.51656,0 -9.92068,8.37079 -16.43724,8.37079 z" id="path914-9"/>
    <path style="font-variation-settings:normal;opacity:1;vector-effect:none;fill:#ffffff;fill-opacity:1;stroke:none;stroke-width:0.264583;stroke-linecap:butt;stroke-linejoin:miter;stroke-miterlimit:4;stroke-dasharray:none;stroke-dashoffset:0;stroke-opacity:1;stop-color:#000000;stop-opacity:1" d="m 172.791,113.96897 c -6.51656,0 -9.92068,8.37079 -16.43724,8.37079 -6.51656,0 -9.92068,-8.37079 -16.43724,-8.37079 -6.51656,0 -9.92068,8.37079 -16.43724,8.37079 -6.51656,0 -9.92068,-8.37079 -16.43724,-8.37079 -6.51656,0 -9.920678,8.37079 -16.437236,8.37079 -6.516558,0 -9.920682,-8.37079 -16.43724,-8.37079 -6.516558,0 -9.920681,8.37079 -16.437239,8.37079 -6.516558,0 -9.920681,-8.37079 -16.437239,-8.37079 v 1.05834 c 5.98739,0 9.39151,8.37079 16.43724,8.37079 7.04572,0 10.44985,-8.37079 16.43724,-8.37079 5.98739,0 9.39151,8.37079 16.43724,8.37079 7.04572,0 10.449844,-8.37079 16.437234,-8.37079 5.98739,0 9.39151,8.37079 16.43724,8.37079 7.04573,0 10.44985,-8.37079 16.43724,-8.37079 5.98739,0 9.39151,8.37079 16.43724,8.37079 7.04573,0 10.44985,-8.37079 16.43724,-8.37079 z" id="path914"/>
    <path id="path844" style="fill:#e31212;fill-opacity:1;stroke:none;stroke-width:0.264583;stroke-linecap:square;stroke-linejoin:miter;stroke-miterlimit:4;stroke-dasharray:none;paint-order:normal" d="m 141.93914,114.29917 c 0.19478,1.46923 0.29684,2.96767 0.29684,4.49014 0,18.69172 -14.92218,35.22609 -35.19394,35.22609 -20.271757,0 -35.193929,-16.53437 -35.193931,-35.22609 0,-1.52247 0.10206,-3.02091 0.296841,-4.49014 -5.453586,0.43614 -10.907173,5.05605 -16.360759,7.58569 1.599245,26.17539 24.161591,48.28563 51.257849,48.28563 27.09627,0 49.65861,-22.11024 51.25786,-48.28563 -5.45359,-2.52856 -9.11685,-7.44423 -16.36076,-7.58569 z"/>
    <path id="path4330" style="opacity:1;fill:#cccccc;fill-opacity:1;stroke:none;stroke-width:0.999999;stroke-linecap:square;stroke-linejoin:miter;stroke-miterlimit:4;stroke-dasharray:none;paint-order:normal" d="m 538.50637,432.42533 c 18.65827,6.62686 31.31466,29.96139 52.43699,29.96139 1.84439,0 3.58802,-0.16776 5.30922,-0.49908 1.02319,-0.19696 0.06,-0.46061 1.04625,-0.75678 0.24414,-3.99603 0.38279,-8.02066 0.38281,-12.07813 2.7e-4,-52.7765 -20.9631,-100.65081 -55.00586,-135.77343 l 29.51563,-38.32813 29.54492,21.89258 1.36133,-111.01563 -108.27149,31.01368 31.54688,23.89453 -29.54102,38.36328 c -27.47255,-14.77187 -59.94532,-24.16016 -92.26367,-24.16016 -104.34068,0 -193.11382,86.35539 -193.11328,194.11328 2e-5,4.05747 0.13866,8.0821 0.38281,12.07813 0.96335,0.28928 0.0464,0.54155 1.04492,0.73633 1.74344,0.3401 3.44065,0.51953 5.31055,0.51953 21.14232,0 33.74954,-23.35992 52.43723,-29.96148 1.03886,-0.36698 -0.0366,-0.63522 1.04324,-0.89204 C 280.24438,366.88518 337.70256,316 404.56836,316 c 66.8658,0 124.32398,50.88519 132.89453,115.5332 z" transform="scale(0.26458333)"/>
    <path id="path4098" style="fill:#9f0808;fill-opacity:1;stroke:none;stroke-width:0.264583;stroke-linecap:square;stroke-linejoin:miter;stroke-miterlimit:4;stroke-dasharray:none;paint-order:normal" d="m 160.09875,48.637856 -0.83561,0.984954 -0.33073,28.43444 -7.90959,-5.99085 -8.09511,10.739914 c 9.2349,9.202362 14.94645,21.934926 14.94637,36.005556 0,1.13968 -0.0414,2.26949 -0.11523,3.39049 -1.74534,26.49233 -23.78288,47.44103 -50.71681,47.44103 -15.4928,0 -29.339247,-6.95392 -38.661719,-17.8847 -0.06962,0.41879 -0.309052,0.51198 -0.643888,0.46664 9.467964,11.12852 23.548972,18.20974 39.305607,18.20974 27.43732,0 49.87147,-21.40554 51.52244,-48.42753 0.0646,-1.05728 0.10128,-2.12213 0.10129,-3.19567 7e-5,-13.96378 -5.54649,-26.63053 -14.55364,-35.92339 l 7.28018,-9.611817 8.34626,6.321578 z m -29.70516,8.73487 8.34678,6.322094 1.15083,-0.0584 -7.91011,-5.990847 z m -23.35155,25.709541 c -18.195109,0 -33.21084,13.601395 -35.441243,31.190863 -0.0011,1.5e-4 -0.0021,2.6e-4 -0.0031,5.3e-4 -0.0057,0.0453 -0.0094,0.0911 -0.01498,0.13642 -5.29e-4,0.005 -0.0016,0.01 -0.0021,0.0145 1.53e-4,-6e-5 2.64e-4,5e-5 5.29e-4,0 -0.176086,1.438 -0.268719,2.90173 -0.268719,4.38733 0,13.67604 7.690305,25.54568 18.976104,31.55104 -0.684217,-0.52054 -1.248925,-1.10084 -1.533758,-1.82108 -9.978196,-6.1515 -16.651694,-17.14754 -16.651697,-29.72996 0,-1.57172 0.105362,-3.11862 0.306443,-4.63538 2.267646,-17.104807 16.907978,-30.303594 34.632531,-30.303594 10.42675,0 19.76152,4.589581 26.16275,11.83287 0.39743,0.267758 0.46283,-0.07596 0.48782,-0.646991 -6.54318,-7.336876 -16.04615,-11.976548 -26.65058,-11.976548 z"/>
    <path id="path4116" style="fill:#ffffff;fill-opacity:1;stroke:none;stroke-width:0.999999;stroke-linecap:square;stroke-linejoin:miter;stroke-miterlimit:4;stroke-dasharray:none;paint-order:normal" d="m 605.09766,183.82812 -112.27149,33.01563 c 2,0.86476 4,1.23582 6,1.0293 l 103.11328,-30.32227 c 1.65252,-0.941 2.50741,-2.2808 3.15821,-3.72266 z m -78.6836,56.53126 c -0.72119,0.0443 -1.39774,0.17683 -2.04101,0.37695 l -27.54102,36.36328 c -27.47255,-14.77187 -58.88675,-23.16016 -92.26367,-23.16016 -107.75829,0 -195.11382,87.35542 -195.11328,195.11328 2e-5,4.05747 0.13866,8.0821 0.38281,12.07813 2.65646,43.47916 19.6462,83.02875 46.17383,114.20898 1.64639,0.74559 2.6932,-0.4866 2.43359,-1.76367 -26.01995,-30.50887 -42.76039,-69.17596 -45.5625,-111.70898 -0.27912,-4.23685 -0.43552,-8.50698 -0.43554,-12.81446 -5.4e-4,-106.10533 86.01543,-192.12109 192.12109,-192.12109 33.88501,0 65.76029,8.79389 93.40039,24.19141 l 30.75391,-40.60743 c -0.82158,-0.15648 -1.58741,-0.20052 -2.3086,-0.15624 z m -21.11914,118.91796 -1.84375,2.44532 c 16.93342,19.16095 28.48293,43.19273 32.01172,69.81054 0.76003,5.73264 1.1582,11.57918 1.1582,17.51953 0,72.93079 -59.12191,132.05274 -132.05273,132.05274 -25.37518,0 -48.99399,-7.28162 -69.11719,-19.6875 0.0997,1.91546 1.90138,4.45462 5.79688,6.88281 18.89141,10.05245 40.42786,15.79297 63.32031,15.79297 74.58145,0 135.04102,-60.45956 135.04102,-135.04102 0,-5.61588 -0.35359,-11.1481 -1.01954,-16.58398 0.002,6.8e-4 0.004,10e-4 0.006,0.002 -0.0125,-0.10191 -0.0283,-0.20285 -0.041,-0.30468 -0.0204,-0.16347 -0.0337,-0.32891 -0.0547,-0.49219 -0.003,-2.2e-4 -0.007,2.2e-4 -0.01,0 -3.55412,-27.64383 -15.5412,-52.60094 -33.19531,-72.39649 z" transform="scale(0.26458333)"/>
  </g>
</svg>