<?xml version="1.0" encoding="UTF-8" standalone="no"?>
<svg
   xmlns:dc="http://purl.org/dc/elements/1.1/"
   xmlns:cc="http://creativecommons.org/ns#"
   xmlns:rdf="http://www.w3.org/1999/02/22-rdf-syntax-ns#"
   xmlns:svg="http://www.w3.org/2000/svg"
   xmlns="http://www.w3.org/2000/svg"
   xmlns:xlink="http://www.w3.org/1999/xlink"
   width="500"
   height="523"
   viewBox="0 0 132.29166 138.37708"
   version="1.1"
   id="svg847">
  <defs
     id="defs841" />
  <metadata
     id="metadata844">
    <rdf:RDF>
      <cc:Work
         rdf:about="">
        <dc:format>image/svg+xml</dc:format>
        <dc:type
           rdf:resource="http://purl.org/dc/dcmitype/StillImage" />
        <dc:title></dc:title>
      </cc:Work>
    </rdf:RDF>
  </metadata>
  <path
     style="font-variation-settings:normal;opacity:1;vector-effect:none;fill:#0a702b;fill-opacity:1;stroke:none;stroke-width:0.264583;stroke-linecap:butt;stroke-linejoin:miter;stroke-miterlimit:5;stroke-dasharray:none;stroke-dashoffset:0;stroke-opacity:1;stop-color:#000000;stop-opacity:1"
     d="m 132.29167,0 -4.94496,79.269322 C 125.1407,114.63237 97.732736,138.37708 66.145826,138.37708 34.558931,138.37708 7.150972,114.63237 4.944967,79.269322 L 0,0 Z"
     id="path5268" />
  <g
     id="g5543"
     transform="matrix(0.90341149,0,0,0.90341149,-37.033061,-53.753777)"
     style="stroke-width:1.10692">
    <path
       id="path5302"
       style="font-variation-settings:normal;opacity:1;vector-effect:none;fill:#ffffff;fill-opacity:1;stroke:none;stroke-width:0.553459;stroke-linecap:butt;stroke-linejoin:miter;stroke-miterlimit:5;stroke-dasharray:none;stroke-dashoffset:0;stroke-opacity:1;stop-color:#000000;stop-opacity:1"
       transform="scale(0.26458333)"
       d="m 335.56445,301.32227 c 0,0 -17.72278,7.10142 -45.04492,9.28515 l -27.95117,3.44531 -3.44336,27.94922 c -2.18336,27.32359 -9.28711,45.04688 -9.28711,45.04688 5.42426,-1.72632 9.51369,-1.32746 14.78516,0 l 10.19922,20.70117 -9.8e-4,-71.26578 57.61088,-23.56568 z M 299.80664,265.5625 h -49.96875 c 0,0 7.10357,17.72396 9.28711,45.04688 -27.32334,-2.18354 -45.04688,-9.28711 -45.04688,-9.28711 v 49.96875 l 48.49024,-37.23829 z" />
    <path
       style="font-variation-settings:normal;opacity:1;vector-effect:none;fill:#75510a;fill-opacity:1;stroke:none;stroke-width:0.553459;stroke-linecap:butt;stroke-linejoin:miter;stroke-miterlimit:5;stroke-dasharray:none;stroke-dashoffset:0;stroke-opacity:1;stop-color:#000000;stop-opacity:1"
       d="m 285.01953,387.04883 h 14.78711 c 0,0 -7.1051,-17.7224 -9.28906,-45.04492 27.32325,2.18354 45.04687,9.28711 45.04687,9.28711 v -49.96875 l -3.51757,4.9707 -114.44922,40.02539 -3.51954,4.97266 c 10e-6,0 17.72354,-7.10553 45.04688,-9.28907 l 3.44336,-3.44336 24.50586,-24.50586 3.44531,-3.44531 c 2.18416,-27.32176 9.28711,-45.04492 9.28711,-45.04492 l -4.97266,3.51953 -40.02539,114.44924 -4.9707,3.51756 h 14.78516 l 1.68945,-3.51756 c 6.00625,2.12692 8.50873,5.34004 8.50977,17.27146 v 6.94726 z"
       transform="scale(0.26458333)"
       id="path5300" />
    <path
       id="path5276"
       style="font-variation-settings:normal;opacity:1;vector-effect:none;fill:#bf9f4f;fill-opacity:1;stroke:none;stroke-width:0.553459;stroke-linecap:butt;stroke-linejoin:miter;stroke-miterlimit:5;stroke-dasharray:none;stroke-dashoffset:0;stroke-opacity:1;stop-color:#000000;stop-opacity:1"
       d="m 254.80859,269.08203 c 0,0 6.11928,19.37295 7.75977,44.9707 -25.59873,-1.64021 -44.9707,-7.75976 -44.9707,-7.75976 v 40.02539 c 0,0 19.37197,-6.11955 44.9707,-7.75977 -1.6403,25.59874 -7.75977,44.97266 -7.75977,44.97266 h 11.50391 l 8.50977,17.27148 8.50781,-17.27148 h 11.5039 c 0,0 -6.11946,-19.37392 -7.75976,-44.97266 25.59873,1.64022 44.97266,7.75977 44.97266,7.75977 v -40.02539 c 0,0 -19.37393,6.11955 -44.97266,7.75976 1.64049,-25.59775 7.75976,-44.9707 7.75976,-44.9707 z"
       transform="scale(0.26458333)" />
  </g>
  <use
     x="0"
     y="0"
     xlink:href="#g5543"
     id="use5595"
     transform="translate(74.978036)"
     width="100%"
     height="100%"
     style="stroke-width:1.10692" />
  <use
     x="0"
     y="0"
     xlink:href="#g5543"
     id="use5611"
     transform="translate(37.489017,85.837022)"
     width="100%"
     height="100%"
     style="stroke-width:1.10692" />
  <path
     style="font-variation-settings:normal;opacity:1;vector-effect:none;fill:#75510a;fill-opacity:1;stroke:none;stroke-width:0.132292;stroke-linecap:butt;stroke-linejoin:miter;stroke-miterlimit:5;stroke-dasharray:none;stroke-dashoffset:0;stroke-opacity:1;stop-color:#000000;stop-opacity:1"
     d="m 21.107236,65.983252 c -1.626122,-2.09686 -4.927315,-3.07144 -7.218565,-2.51255 -2.29125,0.55889 -4.098395,0.50902 -6.28286,-1.1302 -0.197706,3.41977 4.418741,3.19395 6.655086,2.62582 2.308908,-0.63382 4.374974,-0.54329 6.140609,0.72435 z"
     id="path5866" />
  <path
     style="font-variation-settings:normal;opacity:1;vector-effect:none;fill:#bf9f4f;fill-opacity:1;stroke:none;stroke-width:0.132292;stroke-linecap:butt;stroke-linejoin:miter;stroke-miterlimit:5;stroke-dasharray:none;stroke-dashoffset:0;stroke-opacity:1;stop-color:#000000;stop-opacity:1"
     d="m 21.685619,65.554862 c -0.445654,-0.81703 -0.922967,-1.41509 -1.483837,-1.88051 -1.490304,-1.23668 -3.383645,-1.311934 -5.588748,-0.92801 -3.030389,0.527612 -4.682389,0.0617 -5.424953,-0.60796 -0.65041,-0.69391 -0.756899,-1.54901 -1.26536,-1.92571 -0.28536,0.41088 -0.421158,1.20367 -0.31691,2.12783 0.104249,0.92415 0.623159,1.73178 0.973993,1.90058 1.422584,0.68448 3.992669,0.66314 5.862183,0.14994 2.308909,-0.63381 4.746533,-0.61601 6.434882,1.3902 z"
     id="path5854" />
  <path
     style="font-variation-settings:normal;opacity:1;vector-effect:none;fill:#ffffff;fill-opacity:1;stroke:none;stroke-width:0.132292;stroke-linecap:butt;stroke-linejoin:miter;stroke-miterlimit:5;stroke-dasharray:none;stroke-dashoffset:0;stroke-opacity:1;stop-color:#000000;stop-opacity:1"
     d="m 8.579804,64.241082 c -0.348513,-0.17855 -0.622821,-0.40324 -0.792902,-0.67822 -0.85528,-1.38277 -0.330632,-3.23357 0.135819,-3.35019 0.220131,1.21145 -0.717902,2.0087 0.657083,4.02841 z m 6.259593,-1.22311 c 2.866921,-0.37404 3.946457,-0.21005 5.362385,0.65638 -1.49455,-1.25786 -3.532546,-1.410675 -5.759304,-1.074367 -2.829937,0.427405 -3.767398,0.347859 -5.254397,-0.461603 1.038118,1.21677 2.834056,1.24715 5.651316,0.87959 z"
     id="path5864" />
  <path
     style="font-variation-settings:normal;opacity:1;vector-effect:none;fill:#666666;fill-opacity:1;stroke:none;stroke-width:0.132292;stroke-linecap:butt;stroke-linejoin:miter;stroke-miterlimit:5;stroke-dasharray:none;stroke-dashoffset:0;stroke-opacity:1;stop-color:#000000;stop-opacity:1"
     d="m 22.215631,63.251442 c -1.052426,-0.79057 -2.661039,-1.3863 -4.613809,-1.32225 -1.952769,0.064 -2.690356,-0.45497 -2.690356,-0.45497 l -0.828546,-1.16601 c 1.739029,-1.02504 7.65464,-0.71793 8.132711,2.94323 z"
     id="path5918" />
  <path
     style="font-variation-settings:normal;opacity:1;vector-effect:none;fill:#ffffff;fill-opacity:1;stroke:none;stroke-width:0.0661459;stroke-linecap:butt;stroke-linejoin:miter;stroke-miterlimit:5;stroke-dasharray:none;stroke-dashoffset:0;stroke-opacity:1;stop-color:#000000;stop-opacity:1"
     d="m 82.192696,78.479852 c -1.60063,2.59301 -3.5534,1.76035 -5.82629,1.21614 -2.27291,-0.54421 -4.64793,0.20656 -5.60221,1.79271 -0.91368,1.51864 0.28804,2.62511 0.28804,2.62511 0,0 9.93479,-0.38423 10.19089,-0.38423 0.2561,0 3.20119,-5.24973 3.20119,-5.24973 z"
     id="path5926" />
  <path
     style="font-variation-settings:normal;opacity:1;vector-effect:none;fill:#666666;fill-opacity:1;stroke:none;stroke-width:0.132292;stroke-linecap:butt;stroke-linejoin:miter;stroke-miterlimit:5;stroke-dasharray:none;stroke-dashoffset:0;stroke-opacity:1;stop-color:#000000;stop-opacity:1"
     d="m 100.52046,81.611572 c -2.563854,-1.16364 -3.977734,-1.48985 -6.983424,-1.98057 -0.996,3.39545 -3.77639,4.31966 -3.77639,4.31966 l -0.18109,-0.31691 c -0.95073,2.67109 -3.60944,2.43296 -3.60944,2.43296 0.35214,-1.28051 0.12805,-2.36893 0.12805,-2.36893 0.064,1.31251 -1.5046,3.39336 -3.71347,3.42534 -2.20887,0.032 -3.61743,-1.08843 -3.61743,-1.08843 l 4.40169,-4.62996 0.0775,-2.71708 c 0,0 -6.11645,0.30542 -10.10044,1.02979 -3.984,0.72436 -8.75093,1.31891 -12.25149,1.15834 -3.500555,-0.16058 -6.099489,-1.01476 -6.099489,-1.01476 0,0 -1.433633,3.33509 -4.331087,6.32309 -2.897453,2.988 -6.813356,5.02422 -9.869448,3.16909 l 3.229444,-9.35636 c 0,0 -3.214361,-0.54327 -8.194357,0.6791 -4.979997,1.22236 -6.157087,1.53927 -7.56054,-0.0905 l 22.470355,-9.55254 56.438126,-18.96816 3.89551,1.73298 c 0,0 0.0883,0.38446 -0.0718,0.67258 0,0 -1.3445,-0.12805 -2.3689,0.032 l 6.35984,5.7943 c 0,0 0.17074,0.38416 0.10671,0.83234 0,0 -2.62503,-0.67227 -4.12963,-0.64025 l 5.3487,5.00173 c 0,0 0.008,0.42974 -0.088,0.68584 0,0 -2.46493,-0.38415 -4.70581,-0.19207 0.93421,4.45853 6.35469,5.60709 8.25614,1.07983 1.90146,-4.52728 -2.95781,-8.69237 -2.95781,-8.69237 0,0 2.8069,-0.1509 4.57254,2.3391 -0.0844,-0.30711 -0.16718,-0.68427 -0.53573,-1.04882 0.54094,-0.20285 3.07101,0.415 3.7501,3.71991 0.67908,3.3049 0.36805,6.73463 -3.01907,10.3002 -3.4048,3.58419 -9.30287,3.17552 -11.28711,2.51197 0,0 0.68739,0.94125 1.07155,1.3254 0,0 -0.26144,0.12802 -0.52288,0.19207 l -2.4543,-0.60824 c 0.23873,0.26704 0.67075,0.77642 1.61889,1.91277 0.94814,1.13634 1.73911,3.53126 0.42621,5.20636 l -0.40725,-0.19304 c 0.76368,1.18003 0.67631,4.07302 -2.14677,5.3994 l -0.0302,-0.58855 -0.28672,-0.54327 c -0.16007,0.60274 -1.03612,2.54853 -3.10601,2.71086 -2.06988,0.16235 -3.95654,-1.57904 -5.857984,-2.12232 -0.12809,-2.80875 6.435174,-4.8492 2.112714,-7.27381 z"
     id="path5914" />
  <path
     style="font-variation-settings:normal;opacity:1;vector-effect:none;fill:#ffffff;fill-opacity:1;stroke:none;stroke-width:0.0661459;stroke-linecap:butt;stroke-linejoin:miter;stroke-miterlimit:5;stroke-dasharray:none;stroke-dashoffset:0;stroke-opacity:1;stop-color:#000000;stop-opacity:1"
     d="m 41.547267,68.363662 -7.522835,0.32026 -0.469651,0.56535 c 0,0 2.977373,1.0885 4.73807,1.95284 -1.584689,0.99043 -3.476384,1.75393 -5.017247,2.16992 -1.540861,0.416 -2.80731,0.72433 -5.116219,-0.13585 -2.308906,-0.86018 -4.165083,0.13554 -5.342174,0.6788 -1.177089,0.54328 -1.176812,1.31297 -0.724084,2.03734 l 22.017618,2.95796 c -0.350709,1.05213 -0.594622,1.66847 -1.57889,2.70867 -0.984265,1.04021 -1.876857,1.23014 -2.329584,1.18487 -0.452728,-0.0453 -1.325652,-0.81512 -2.082622,-0.81512 -0.756974,0 -2.555454,0.97603 -3.033131,2.03734 -0.477675,1.06131 0.76937,2.62603 0.76937,2.62603 l 10.685283,-2.7941 1.536873,-13.95744 z"
     id="path5924" />
  <path
     style="font-variation-settings:normal;opacity:1;vector-effect:none;fill:#666666;fill-opacity:1;stroke:none;stroke-width:0.132292;stroke-linecap:butt;stroke-linejoin:miter;stroke-miterlimit:5;stroke-dasharray:none;stroke-dashoffset:0;stroke-opacity:1;stop-color:#000000;stop-opacity:1"
     d="m 34.16302,69.046662 c -2.263634,1.31291 -5.768821,0.52592 -8.463224,-0.47363 -2.694402,-0.99953 -4.660505,-0.95377 -6.529356,-0.80688 -1.832868,0.14407 -2.476996,-0.48554 -3.190592,-1.05641 1.457561,-0.5056 8.425821,-0.34952 8.425821,-0.34952 l 12.08441,0.0992 c 0.08054,1.49947 -1.01629,2.54536 -2.327059,2.58726 z"
     id="path5916" />
  <path
     id="path5931"
     style="font-variation-settings:normal;opacity:1;vector-effect:none;fill:#ffffff;fill-opacity:1;stroke:none;stroke-width:0.0661459;stroke-linecap:butt;stroke-linejoin:miter;stroke-miterlimit:5;stroke-dasharray:none;stroke-dashoffset:0;stroke-opacity:1;stop-color:#000000;stop-opacity:1"
     d="m 89.532996,45.931482 c -0.6058,-0.004 -1.21374,0.003 -1.82492,0.0201 -4.88945,0.13582 -9.18991,1.04135 -12.54008,2.03734 -3.35019,0.996 -7.19837,2.39961 -7.19837,2.39961 l 2.14284,-3.5616 c -1.20727,0.46781 -3.22981,1.16218 -5.53872,1.93183 -2.30891,0.76963 -3.66711,1.81091 -3.66711,1.81091 l 0.17787,-2.02753 c -0.9029,0.44824 -1.96976,0.74775 -3.584012,1.16526 -1.528943,0.39546 -2.925801,0.68477 -4.029389,1.76563 0.426346,-0.76153 0.963021,-1.56404 0.735289,-2.08029 -3.938723,1.35818 -10.977183,2.89395 -15.006452,3.33892 -4.02927,0.44495 -7.403252,0.14703 -10.708158,0.10177 -3.304906,-0.0453 -5.491036,0.59019 -6.791279,1.58449 -1.300243,0.99431 -1.674718,1.35818 -3.938353,1.76563 -2.263635,0.40746 -4.157773,0.9127 -4.157773,0.9127 -0.679092,-0.13581 -1.878669,-0.2957 -2.10503,0.79084 -0.226367,1.08654 0.407558,2.40101 0.407558,2.40101 0.04166,0.95607 0.322999,1.47266 1.394485,2.53734 0.05754,0.52288 0.153236,1.09063 0.659193,1.77357 -0.01379,1.1552 0.883633,1.10525 2.019131,2.11063 1.392202,0.67679 3.041533,0.32026 3.041533,0.32026 l 3.27589,-0.43697 7.746458,2.0518 5.465421,-1.27917 12.095171,0.35014 59.569241,-14.2058 c 1.12604,-0.41412 2.70993,-0.16323 3.69979,0.28757 -1.68996,-1.79719 -3.36212,-3.47304 -8.49669,-5.49156 -4.463814,-1.75483 -8.602964,-2.34524 -12.843534,-2.3744 z M 14.0829,60.308152 c 0,0 2.034123,1.03641 4.026122,1.03641 1.991999,0 3.427331,0.72999 4.10642,1.90708 0.679092,1.17709 0.189375,2.49187 -1.813715,2.43883 -2.003092,-0.053 -2.203008,-0.6681 -4.251145,-1.29598 l -1.209611,0.0532 z" />
  <path
     style="font-variation-settings:normal;opacity:1;vector-effect:none;fill:#666666;fill-opacity:1;stroke:none;stroke-width:0.132292;stroke-linecap:butt;stroke-linejoin:miter;stroke-miterlimit:5;stroke-dasharray:none;stroke-dashoffset:0;stroke-opacity:1;stop-color:#000000;stop-opacity:1"
     d="m 69.463396,47.566502 c 0,0 0.46782,-0.46781 0.64891,-0.73945 0,0 0.498,0.63382 -0.13582,1.58455 -0.63381,0.95072 -1.52418,1.79582 -2.95781,2.91254 0.002,-1.55741 1.58581,-2.52159 2.44472,-3.75764 z"
     id="path5912" />
  <path
     style="font-variation-settings:normal;opacity:1;vector-effect:none;fill:#666666;fill-opacity:1;stroke:none;stroke-width:0.132292;stroke-linecap:butt;stroke-linejoin:miter;stroke-miterlimit:5;stroke-dasharray:none;stroke-dashoffset:0;stroke-opacity:1;stop-color:#000000;stop-opacity:1"
     d="m 54.206502,49.392512 c 0,0 0.694181,0.19618 0.513092,0.83 -0.181089,0.63381 -0.905453,1.44872 -1.810909,2.08254 -0.371106,-0.97085 0.812856,-1.94169 1.297817,-2.91254 z"
     id="path5868" />
  <path
     style="font-variation-settings:normal;opacity:1;vector-effect:none;fill:#ffffff;fill-opacity:1;stroke:none;stroke-width:0.0661459;stroke-linecap:butt;stroke-linejoin:miter;stroke-miterlimit:5;stroke-dasharray:none;stroke-dashoffset:0;stroke-opacity:1;stop-color:#000000;stop-opacity:1"
     d="m 119.48755,71.010312 3.23154,-5.34972 c 0.498,-2.62581 -0.58855,-4.79892 -1.20728,-5.43274 -0.57632,-0.59039 -0.85247,-0.56582 -0.85247,-0.56582 0.97101,1.82649 0.87529,2.75624 0.96639,4.61715 -1.66775,-1.969177 -2.81431,-4.668012 -5.00324,-5.90753 l -0.26424,-0.0229 c 0,0 1.11911,2.08766 1.83379,4.14236 0.72436,2.08255 0.34045,4.35998 -1.81092,5.11622 -2.14654,0.75457 -4.02086,-1.05659 -4.66197,-2.1251 -0.62748,1.73891 -0.20767,7.42747 7.7684,5.52805 z"
     id="path5613" />
  <path
     id="path5884"
     style="font-variation-settings:normal;opacity:1;vector-effect:none;fill:#ffffff;fill-opacity:1;stroke:none;stroke-width:0.132292;stroke-linecap:butt;stroke-linejoin:miter;stroke-miterlimit:5;stroke-dasharray:none;stroke-dashoffset:0;stroke-opacity:1;stop-color:#000000;stop-opacity:1"
     d="m 85.837026,82.154842 c 0.27136,1.14895 0.45485,2.67097 0.13309,3.91187 0.15992,-0.23466 0.24565,-0.5135 0.36491,-0.74278 0.71751,-1.37951 0.72073,-2.87232 -0.498,-3.16909 z m 20.010534,2.656 c -0.0451,0.46215 0.10912,1.26654 0.94144,1.84276 0.83233,0.57624 0.86946,2.18651 0.86946,2.18651 l 0.87785,-2.00416 -1.2853,-3.94165 0.40745,-1.20727 c 0,0 0.0589,0.67689 0.92325,1.06104 0.86434,0.38414 1.66095,1.47423 1.66095,1.47423 0,0 -0.13264,-0.59216 -0.32056,-1.08655 l -1.06531,-2.4106 -10.770504,-1.2455 c 0.9009,0.46371 2.033514,1.12328 2.434174,2.13192 0.40927,1.03031 -1.604354,2.89981 -3.108724,1.52418 -1.57701,-1.44207 -3.07854,-1.26763 -4.3009,-0.95073 -1.22236,0.31691 -3.66709,2.03728 -3.8029,2.988 -0.13582,0.95072 0.67908,1.76564 0.67908,1.76564 l 11.743994,-0.51982 z" />
  <path
     style="font-variation-settings:normal;opacity:1;vector-effect:none;fill:#666666;fill-opacity:1;stroke:none;stroke-width:0.132292;stroke-linecap:butt;stroke-linejoin:miter;stroke-miterlimit:5;stroke-dasharray:none;stroke-dashoffset:0;stroke-opacity:1;stop-color:#000000;stop-opacity:1"
     d="m 60.816316,49.166142 c 0,0 0.17743,-0.30732 0.26797,-0.62422 0,0 0.56203,0.27713 0.47149,1.00149 -0.0906,0.72437 -0.61873,1.55437 -1.37328,2.3391 -0.62098,-0.90546 0.39238,-1.81092 0.63382,-2.71637 z"
     id="path5910" />
  <path
     id="path5629"
     style="font-variation-settings:normal;opacity:1;vector-effect:none;fill:#c4c4c4;fill-opacity:1;stroke:none;stroke-width:0.132292;stroke-linecap:butt;stroke-linejoin:miter;stroke-miterlimit:5;stroke-dasharray:none;stroke-dashoffset:0;stroke-opacity:1;stop-color:#000000;stop-opacity:1"
     d="m 89.351386,46.670972 c -2.46073,0.0138 -4.87391,0.25242 -7.16942,0.67133 -9.18207,1.67563 -11.35373,3.21205 -15.16332,3.98177 0.48224,-1.22237 1.66084,-2.26368 2.4449,-3.75768 -3.72624,2.02599 -5.23242,1.92242 -9.28099,4.31603 -0.0453,-0.93647 0.63398,-1.87907 0.63398,-2.71614 0,0 -0.81492,0.58839 -3.62183,1.17694 -2.806909,0.58854 -4.286157,1.9617 -4.286157,1.9617 0.03714,-0.87872 0.992961,-1.57073 1.297845,-2.91221 -0.242441,0.49772 -1.552584,1.32901 -2.638174,1.75909 -1.085589,0.4301 -7.130402,2.20072 -11.152132,2.76376 -5.207387,0.72903 -7.682898,0.51209 -8.151683,0.50233 3.443723,1.35152 3.105616,6.57126 -0.09057,7.28894 1.720361,1.08654 3.124096,1.58491 7.198372,2.2633 4.074276,0.67837 5.659576,1.54105 6.111544,2.3011 -3.400854,-0.85117 -4.296431,-0.66664 -7.243189,-1.16899 0,0 0.826089,0.53524 2.625567,0.95051 1.765635,0.40744 2.614654,0.86249 2.897276,1.20914 -1.478073,-0.42166 -3.576449,-1.02814 -6.790811,-1.57142 -3.214362,-0.54327 -4.271352,-0.31459 -5.936009,-0.82679 -1.664656,-0.51224 -2.497184,-0.44818 -2.497184,-0.44818 0,0 0.412939,0.4579 1.536874,0.80018 1.097753,0.33431 1.566058,0.65479 1.632575,1.12045 -1.384687,-0.45648 -2.6069,-0.87296 -3.841714,-0.96032 0.388707,0.62194 0.644875,0.77763 1.824918,1.0887 1.182353,0.31168 1.893023,0.57903 2.401016,0.89635 -0.35214,0.3201 -1.248561,0.38389 -2.401016,0.0318 -1.152452,-0.35214 -1.760959,-0.25583 -1.760959,-0.25583 0.86434,0.48018 1.50466,1.12044 1.50466,1.12044 -1.568619,-0.60824 -5.715122,-2.01233 -7.586794,-2.04901 -1.87167,-0.0367 -3.528082,0.27232 -4.295518,-0.30506 -0.757694,-0.57004 -0.648262,-1.09792 -1.402863,-1.50866 -0.7546,-0.41074 -0.756883,0.30222 -2.024456,0.23808 0.205334,0.56069 1.055273,0.40898 1.055273,0.40898 1.267636,2.17309 2.751354,2.27623 5.024249,1.9561 2.272897,-0.32013 3.969366,0.28832 6.466352,1.15266 2.496983,0.86434 4.930145,1.18439 6.530775,0.73622 1.600631,-0.44818 2.306243,-1.521 2.306243,-1.521 -0.128673,0.561 -0.381309,1.10991 -1.345931,1.68113 3.917935,1.30409 7.592256,3.09461 11.275382,4.86832 0.407454,-1.53927 0.860407,-3.62136 0.860407,-3.62136 0,0 0.769776,0.0452 0.543412,1.53921 -0.226361,1.494 -1.313055,7.6058 -2.354329,8.87343 -1.041271,1.26764 -3.259634,2.7614 -3.576544,2.71614 -0.316907,-0.0453 -1.525175,-0.55399 -2.010726,-0.66013 -0.485549,-0.10614 -2.12105,0.4245 -2.724074,1.16152 -0.603024,0.73704 -0.471642,1.76212 0.841265,2.57702 1.312909,0.81492 3.978502,2.15359 3.978502,2.15359 1.753318,0.64024 4.887195,0.26375 7.529839,-1.89402 2.723206,-2.22356 4.82057,-5.20589 6.082132,-7.93926 1.289628,-2.79419 0.960312,-4.60969 0.960312,-4.60969 1.344528,0.76831 -0.215218,4.71379 -0.215218,4.71379 0,10e-6 3.323118,1.30014 9.552701,0.99626 6.22959,-0.30388 11.23102,-1.60418 18.13342,-1.76562 6.9024,-0.16145 11.30042,0.47347 15.0466,1.32398 3.802904,0.86339 4.266674,2.77352 3.075624,3.94629 -1.412454,1.3908 -2.801864,1.20377 -3.886074,0.29832 -1.08559,-0.9066 -2.69552,-1.37286 -4.38326,-0.6872 -1.68777,0.68565 -2.9509,2.36195 -2.72454,2.95049 0.22636,0.58855 2.08254,1.40362 4.05039,1.63818 1.96786,0.23457 4.43089,0.80672 4.43089,0.80672 1.856174,0.8149 5.218884,2.54367 6.609674,1.53921 1.39079,-1.00447 1.45763,-2.8139 0.90569,-3.48598 -0.54974,-0.66939 -0.52694,-1.36015 -0.31699,-1.67506 0.49799,0.63382 0.95067,0.54324 1.58449,1.67506 0.63382,1.13182 0.22642,2.35433 0.22642,2.35433 0.72437,-0.498 1.37255,-1.65547 1.67506,-3.03359 0.30251,-1.37812 -0.72424,-2.48984 -1.31278,-2.94257 -0.58855,-0.45272 -0.36228,-1.17693 -0.36228,-1.17693 1.13182,0.22636 2.26376,1.44864 2.26376,1.44864 0.63383,-1.99199 -0.67944,-3.89327 -1.35853,-4.6629 -0.67909,-0.76964 -1.17693,-1.53968 -1.17693,-1.53968 1.6962,0.8889 2.58444,1.07153 3.26515,0.77824 -1.90764,-1.99648 -3.17443,-3.92988 -3.90567,-5.76234 1.32909,0.62096 1.55136,2.19914 3.05507,3.7166 4.50575,1.43874 9.27231,-0.38134 11.99293,-3.83705 2.72062,-3.45571 3.26718,-9.0591 -0.28245,-11.60077 0.97989,1.54687 0.93934,3.58317 0.49813,4.9799 -0.69018,-3.38234 -2.34355,-6.21683 -5.38745,-6.8361 0.63381,0.54328 2.12799,2.21829 2.49018,5.07047 0.36218,2.85218 -1.04141,5.25146 -4.07468,4.70819 -3.03327,-0.54328 -3.31884,-2.66806 -3.31884,-2.66806 l 4.39867,0.008 c -1.33458,-2.09682 -3.34326,-4.4046 -5.35291,-5.92434 1.34239,0.11423 2.68467,0.37521 4.02705,0.73063 -1.75883,-2.66323 -4.02513,-4.89097 -6.97848,-6.53031 1.08843,-0.19211 3.05974,0.0313 3.05974,0.0313 -6.33085,-5.18804 -14.139624,-7.16774 -21.521834,-7.12647 z m -66.093934,15.66378 c 0,0 -0.512468,0.2561 -0.416432,0.67226 0.09604,0.41617 0.629169,0.7974 0.480391,1.40849 -0.14808,0.60824 -0.55278,0.72443 -0.754897,1.07656 -0.175298,0.30541 0.293449,0.688 0.933702,0.14379 0.640252,-0.54422 0.973717,-1.89255 -0.242764,-3.3011 z m 17.442013,9.99807 c -0.529456,-0.25868 -1.051564,-0.50675 -1.523333,-0.71148 -2.399452,1.14691 -5.02562,2.29376 -6.700709,2.74649 -1.675091,0.45272 -3.226844,0.23976 -4.662908,-0.49767 -1.436061,-0.73743 -4.064402,0.16 -4.512578,0.51214 -0.448177,0.35214 -0.804919,1.16879 -0.143324,2.22734 0.661593,1.05855 5.276949,4.39914 7.628808,4.39914 2.351862,0 3.582898,-1.14001 6.888384,-1.56862 3.329313,-0.4317 6.43694,-0.52988 6.43694,-0.52988 0,0 0.478505,-1.64067 0.937904,-3.58681 -1.415919,-1.5125 -2.553781,-1.64809 -4.349184,-2.99065 z m 42.546921,6.35478 c 0,0 -0.91516,1.95843 -2.35573,2.18252 -1.44056,0.2241 -2.70005,-0.32247 -4.92995,-0.6083 -2.2299,-0.28583 -4.00158,0.60817 -4.70585,1.63258 -0.70429,1.0244 -0.0957,1.63257 -0.0957,1.63257 0.72717,1.15711 2.04485,1.31439 3.40334,1.29832 1.51895,-0.0179 3.08852,-0.25239 3.94022,0.45331 0,0 1.99227,1.85639 4.61809,0.76983 2.62581,-1.08654 2.71614,-3.89353 2.71614,-3.89353 0.99654,0.83 1.17444,1.88625 0.49813,3.16898 1.92507,-0.46227 2.55046,-1.51187 3.21427,-3.9841 0.40745,0.54326 0.27171,1.67506 0.27171,1.67506 2.21835,-1.08655 3.21426,-3.48598 3.21426,-3.48598 -2.99366,-0.62174 -5.81199,-0.81895 -9.78892,-0.84126 z" />
  <path
     id="path5615"
     style="font-variation-settings:normal;opacity:1;vector-effect:none;fill:#000000;fill-opacity:1;stroke:none;stroke-width:0.132292;stroke-linecap:butt;stroke-linejoin:miter;stroke-miterlimit:5;stroke-dasharray:none;stroke-dashoffset:0;stroke-opacity:1;stop-color:#000000;stop-opacity:1"
     d="m 48.803997,54.387552 c -5.251632,0.8149 -10.418504,0.96323 -12.206282,0.85013 -1.787779,-0.1131 -3.408751,-0.83388 -4.33331,-0.81979 0.836998,0.59253 2.214889,2.14002 1.578889,3.89634 -0.635999,1.75631 -2.113434,1.77963 -2.113434,1.77963 2.080826,-1.92075 1.333229,-4.49433 -0.319793,-5.05786 -1.57948,-0.53848 -3.356189,-0.75116 -5.343106,-0.46732 -1.986917,0.28385 -3.556671,1.17147 -5.381389,1.93977 -1.824722,0.7683 -2.848992,1.15242 -4.385597,1.1844 -1.536606,0.032 -2.112966,0.22409 -2.112966,0.22409 0.352138,1.05642 -0.09571,1.7927 -0.09571,1.7927 0.768302,0.67227 0.831926,-0.70447 0.831926,-0.70447 3.299036,0.0659 5.39313,-0.11117 6.210519,0.38422 0.817391,0.49538 1.276369,0.20447 1.276369,0.20447 0.731688,0.98302 1.897134,1.02584 2.716138,0.54342 1.189758,0.69403 1.843864,0.0787 4.482234,1.08636 2.605544,0.99515 8.222787,1.62757 11.864547,1.66759 3.64176,0.04 10.020657,-0.33557 10.990136,-0.59943 0.883444,-0.24045 1.00373,-0.84174 1.00373,-0.84174 0,0 -2.580588,0.0905 -5.523312,0.0453 -2.942726,-0.0453 -5.025183,-0.18114 -5.025183,-0.18114 2.263635,-0.27164 7.716842,-0.94326 8.705833,-1.09196 1.028013,-0.15457 1.209145,-0.76424 1.209145,-0.76424 0,0 -4.210292,0.36225 -6.881383,0.27171 -2.671088,-0.0905 -4.844509,-0.45285 -4.844509,-0.45285 2.444725,-0.13581 8.789964,-1.50558 10.096116,-1.81091 1.342518,-0.31382 1.448636,-0.90522 1.448636,-0.90522 -2.173088,0.18108 -8.420677,0.85996 -10.548494,0.90522 -2.127817,0.0453 -3.485974,-0.13585 -3.485974,-0.13585 1.856181,-0.45273 6.473814,-1.31289 8.239449,-1.72035 1.765638,-0.40746 1.94677,-1.22221 1.94677,-1.22221 z m -24.872413,2.55787 c 0.994885,0 1.329027,0.58084 1.363672,1.38095 0.03465,0.8001 -0.572801,1.44863 -1.328657,1.44863 -0.755855,0 -1.442003,-0.71669 -1.47665,-1.5168 -0.03464,-0.8001 0.446754,-1.31278 1.441635,-1.31278 z m -11.318331,0.55555 c 0,0 -0.272374,0.11205 -0.192343,0.44818 0,0 0.304189,-0.11213 0.38422,0.064 0.08003,0.17607 -0.352006,0.33613 -0.352006,0.33613 0,0 -0.01621,0.56029 0.07983,0.8324 0,0 0.208418,-0.0644 0.464517,-0.17647 0.256101,-0.11204 0.224088,-0.40009 0.224088,-0.40009 0,0 0.287782,0.0161 0.319793,-0.28805 0.03201,-0.30412 -0.31986,-0.76803 -0.928099,-0.81606 z m 11.319266,0.12185 c -0.06332,0.12284 -0.08944,0.25066 -0.03781,0.38235 0.09188,0.0466 0.185156,0.29848 0.05649,0.45238 -0.128669,0.1539 -0.301175,0.0889 -0.345472,0.0616 -0.148338,0.0665 -0.212674,0.15119 -0.301586,0.24604 0.134594,0.26883 0.370864,0.3478 0.627916,0.3478 0.402176,0 0.733978,-0.3625 0.706812,-0.77077 -0.02479,-0.37264 -0.292725,-0.71798 -0.706345,-0.71942 z" />
  <g
     id="g5643"
     transform="matrix(0.90341149,0,0,0.90341149,-37.033063,-53.753777)"
     style="stroke-width:1.10692">
    <path
       style="font-variation-settings:normal;opacity:1;vector-effect:none;fill:#75510a;fill-opacity:1;stroke:none;stroke-width:0.553459;stroke-linecap:butt;stroke-linejoin:miter;stroke-miterlimit:5;stroke-dasharray:none;stroke-dashoffset:0;stroke-opacity:1;stop-color:#000000;stop-opacity:1"
       d="m 530.39258,604.32422 c 4.29566,-3.36631 7.66426,-9.00327 9.66015,-12.69141 2.04885,-3.78603 1.32672,-8.71103 -3.97656,-8.90039 z"
       transform="scale(0.26458333)"
       id="path5703" />
    <path
       style="font-variation-settings:normal;opacity:1;vector-effect:none;fill:#75510a;fill-opacity:1;stroke:none;stroke-width:0.553459;stroke-linecap:butt;stroke-linejoin:miter;stroke-miterlimit:5;stroke-dasharray:none;stroke-dashoffset:0;stroke-opacity:1;stop-color:#000000;stop-opacity:1"
       d="m 539.88477,604.4043 c 4.22985,-2.5999 8.66026,-8.03584 10.41796,-11.42188 1.86342,-3.58968 2.39649,-8.2938 -2.54394,-8.67871 z"
       transform="scale(0.26458333)"
       id="path5633" />
    <path
       style="font-variation-settings:normal;opacity:1;vector-effect:none;fill:#75510a;fill-opacity:1;stroke:none;stroke-width:0.146436;stroke-linecap:butt;stroke-linejoin:miter;stroke-miterlimit:5;stroke-dasharray:none;stroke-dashoffset:0;stroke-opacity:1;stop-color:#000000;stop-opacity:1"
       d="m 145.04457,160.29098 c 0.52307,0.0256 1.52879,-0.37461 2.19156,-1.30515 0.66345,-0.93147 1.83517,-2.92393 0.86706,-3.699 -0.25982,-0.20801 -0.50787,-0.30974 -0.73993,-0.32529 z"
       id="path5635" />
    <path
       style="font-variation-settings:normal;opacity:1;vector-effect:none;fill:#75510a;fill-opacity:1;stroke:none;stroke-width:0.146436;stroke-linecap:butt;stroke-linejoin:miter;stroke-miterlimit:5;stroke-dasharray:none;stroke-dashoffset:0;stroke-opacity:1;stop-color:#000000;stop-opacity:1"
       d="m 147.50588,160.14587 c 0.47663,0.11113 1.27999,-0.18718 1.79709,-0.78968 0.51764,-0.60308 1.82338,-2.23044 1.07167,-3.0988 -0.24395,-0.2818 -0.49907,-0.41083 -0.74474,-0.42719 z"
       id="path5637" />
    <path
       style="font-variation-settings:normal;opacity:1;vector-effect:none;fill:#ffffff;fill-opacity:1;stroke:none;stroke-width:0.553459;stroke-linecap:butt;stroke-linejoin:miter;stroke-miterlimit:5;stroke-dasharray:none;stroke-dashoffset:0;stroke-opacity:1;stop-color:#000000;stop-opacity:1"
       d="m 536.07617,582.73242 c -5.30332,-0.18943 -7.36903,5.97868 -8.33398,11.17383 -0.96397,5.18986 0.53635,8.87214 2.65039,10.41797 1.02544,-9.30351 13.39489,-17.206 5.68359,-21.5918 z"
       transform="scale(0.26458333)"
       id="path5631" />
    <path
       style="font-variation-settings:normal;opacity:1;vector-effect:none;fill:#ffffff;fill-opacity:1;stroke:none;stroke-width:0.553459;stroke-linecap:butt;stroke-linejoin:miter;stroke-miterlimit:5;stroke-dasharray:none;stroke-dashoffset:0;stroke-opacity:1;stop-color:#000000;stop-opacity:1"
       d="m 547.75879,584.30371 c -4.94043,-0.38491 -6.92925,4.96536 -8.24902,9.27441 -1.40644,4.59168 -1.37648,8.26396 0.375,10.82618 2.62518,-6.70023 14.44538,-15.06421 7.87402,-20.10059 z"
       transform="scale(0.26458333)"
       id="path5699" />
    <path
       style="font-variation-settings:normal;opacity:1;vector-effect:none;fill:#ffffff;fill-opacity:1;stroke:none;stroke-width:0.146436;stroke-linecap:butt;stroke-linejoin:miter;stroke-miterlimit:5;stroke-dasharray:none;stroke-dashoffset:0;stroke-opacity:1;stop-color:#000000;stop-opacity:1"
       d="m 147.36326,154.96154 c -0.63263,-0.0424 -1.2173,0.57343 -1.52668,1.40477 -0.31654,0.8506 -1.09129,2.85614 -0.79201,3.92467 0.7729,-1.77648 4.28563,-3.87716 2.31869,-5.32944 z"
       id="path5691" />
    <path
       style="font-variation-settings:normal;opacity:1;vector-effect:none;fill:#ffffff;fill-opacity:1;stroke:none;stroke-width:0.146436;stroke-linecap:butt;stroke-linejoin:miter;stroke-miterlimit:5;stroke-dasharray:none;stroke-dashoffset:0;stroke-opacity:1;stop-color:#000000;stop-opacity:1"
       d="m 149.6299,155.8302 c -0.51131,-0.034 -0.98164,0.41995 -1.22492,1.00035 -0.35084,0.83703 -0.91464,2.13426 -0.8991,3.31532 0.70724,-1.43625 3.71304,-3.46748 2.12402,-4.31567 z"
       id="path5695" />
    <path
       style="font-variation-settings:normal;opacity:1;vector-effect:none;fill:#bf9f4f;fill-opacity:1;stroke:none;stroke-width:0.146436;stroke-linecap:butt;stroke-linejoin:miter;stroke-miterlimit:5;stroke-dasharray:none;stroke-dashoffset:0;stroke-opacity:1;stop-color:#000000;stop-opacity:1"
       d="m 140.3332,159.89399 c -0.48847,-0.62161 -0.51914,-2.15776 -0.24331,-3.05936 0.23053,-0.75343 0.71809,-2.13725 1.6303,-2.20863 0.94497,-0.074 1.11516,1.0001 0.60414,1.9444 -0.49781,0.91989 -1.49244,2.14944 -1.99117,3.32359"
       id="path5655" />
    <path
       id="path5670"
       style="font-variation-settings:normal;opacity:1;vector-effect:none;fill:#bf9f4f;fill-opacity:1;stroke:none;stroke-width:0.553459;stroke-linecap:butt;stroke-linejoin:miter;stroke-miterlimit:5;stroke-dasharray:none;stroke-dashoffset:0;stroke-opacity:1;stop-color:#000000;stop-opacity:1"
       d="m 541.10798,593.46069 c -1.20122,3.9217 -1.50148,7.17603 -1.22321,10.94361 2.62271,-3.93919 8.11526,-10.79455 9.22153,-12.92568 1.17282,-2.2593 -0.12646,-5.06801 -2.22841,-5.23177 -2.10195,-0.16377 -4.64271,3.53353 -5.76991,7.21384 z"
       transform="scale(0.26458333)" />
    <path
       style="font-variation-settings:normal;opacity:1;vector-effect:none;fill:#bf9f4f;fill-opacity:1;stroke:none;stroke-width:0.146436;stroke-linecap:butt;stroke-linejoin:miter;stroke-miterlimit:5;stroke-dasharray:none;stroke-dashoffset:0;stroke-opacity:1;stop-color:#000000;stop-opacity:1"
       d="m 145.04457,160.29098 c 0.62938,-0.15158 1.58151,-1.45349 2.05466,-2.11779 0.47362,-0.66497 1.3101,-1.98106 0.61897,-2.53437 -0.69111,-0.55332 -1.22264,0.27468 -1.49663,0.93515 -0.25061,0.60409 -1.01562,2.7748 -1.177,3.71701 z"
       id="path5672" />
    <path
       style="font-variation-settings:normal;opacity:1;vector-effect:none;fill:#bf9f4f;fill-opacity:1;stroke:none;stroke-width:0.146436;stroke-linecap:butt;stroke-linejoin:miter;stroke-miterlimit:5;stroke-dasharray:none;stroke-dashoffset:0;stroke-opacity:1;stop-color:#000000;stop-opacity:1"
       d="m 147.50588,160.14587 c 0.57256,-0.23892 1.23775,-0.82929 1.79536,-1.58099 0.78149,-1.05351 0.81036,-1.68189 0.63075,-1.9555 -0.17961,-0.27361 -0.57236,-0.28127 -0.96062,0.17322 -0.2875,0.33655 -1.16211,2.18221 -1.46549,3.36327 z"
       id="path5674" />
  </g>
  <g
     id="g5653"
     transform="matrix(0.80657521,-0.12483097,0.12483097,0.80657521,-62.394882,-23.520937)"
     style="stroke-width:1.22523">
    <path
       style="font-variation-settings:normal;opacity:1;vector-effect:none;fill:#75510a;fill-opacity:1;stroke:none;stroke-width:0.162087;stroke-linecap:butt;stroke-linejoin:miter;stroke-miterlimit:5;stroke-dasharray:none;stroke-dashoffset:0;stroke-opacity:1;stop-color:#000000;stop-opacity:1"
       d="m 141.9013,154.33205 c 1.04023,-0.002 1.18935,1.09354 0.82229,2.3611 -0.2938,1.01459 -1.08067,2.50478 -2.16579,3.10917 z"
       id="path5715" />
    <path
       style="font-variation-settings:normal;opacity:1;vector-effect:none;fill:#75510a;fill-opacity:1;stroke:none;stroke-width:0.162087;stroke-linecap:butt;stroke-linejoin:miter;stroke-miterlimit:5;stroke-dasharray:none;stroke-dashoffset:0;stroke-opacity:1;stop-color:#000000;stop-opacity:1"
       d="m 144.77484,154.28636 c 1.26313,0.18997 1.12039,1.25268 0.84193,2.35473 -0.24728,0.97864 -1.26874,2.9235 -2.25753,3.69171 z"
       id="path5647" />
    <path
       style="font-variation-settings:normal;opacity:1;vector-effect:none;fill:#75510a;fill-opacity:1;stroke:none;stroke-width:0.162087;stroke-linecap:butt;stroke-linejoin:miter;stroke-miterlimit:5;stroke-dasharray:none;stroke-dashoffset:0;stroke-opacity:1;stop-color:#000000;stop-opacity:1"
       d="m 147.16404,155.09485 c 1.23979,0.0296 1.47681,1.18508 1.17903,2.14144 -0.26984,0.86654 -1.36028,3.0936 -2.2097,3.91436 z"
       id="path5723" />
    <path
       style="font-variation-settings:normal;opacity:1;vector-effect:none;fill:#75510a;fill-opacity:1;stroke:none;stroke-width:0.162087;stroke-linecap:butt;stroke-linejoin:miter;stroke-miterlimit:5;stroke-dasharray:none;stroke-dashoffset:0;stroke-opacity:1;stop-color:#000000;stop-opacity:1"
       d="m 149.77564,155.89517 c 1.28203,-0.0486 1.60807,1.12074 1.41586,2.14362 -0.19509,1.03823 -1.07181,2.80658 -1.71362,3.58756 z"
       id="path5651" />
    <path
       style="font-variation-settings:normal;opacity:1;vector-effect:none;fill:#ffffff;fill-opacity:1;stroke:none;stroke-width:0.162087;stroke-linecap:butt;stroke-linejoin:miter;stroke-miterlimit:5;stroke-dasharray:none;stroke-dashoffset:0;stroke-opacity:1;stop-color:#000000;stop-opacity:1"
       d="m 140.5578,159.80232 c -0.70447,-0.63178 -0.87247,-1.58585 -0.67862,-2.90123 0.19403,-1.31673 0.98189,-2.56735 2.02212,-2.56904 1.22564,-0.0718 -1.02429,3.43286 -1.3435,5.47027 z"
       id="path5645" />
    <path
       style="font-variation-settings:normal;opacity:1;vector-effect:none;fill:#ffffff;fill-opacity:1;stroke:none;stroke-width:0.162087;stroke-linecap:butt;stroke-linejoin:miter;stroke-miterlimit:5;stroke-dasharray:none;stroke-dashoffset:0;stroke-opacity:1;stop-color:#000000;stop-opacity:1"
       d="m 143.35924,160.3328 c -0.73683,-0.85976 -0.8523,-2.38766 -0.63565,-3.63965 0.24142,-1.39515 0.78811,-2.59675 2.05125,-2.40679 1.14253,0.21466 -1.04249,3.09716 -1.4156,6.04644 z"
       id="path5719" />
    <path
       style="font-variation-settings:normal;opacity:1;vector-effect:none;fill:#ffffff;fill-opacity:1;stroke:none;stroke-width:0.162087;stroke-linecap:butt;stroke-linejoin:miter;stroke-miterlimit:5;stroke-dasharray:none;stroke-dashoffset:0;stroke-opacity:1;stop-color:#000000;stop-opacity:1"
       d="m 146.13337,161.15065 c -0.85166,-0.966 -0.85066,-2.0345 -0.75923,-3.17328 0.0915,-1.13992 0.55011,-2.91216 1.7899,-2.88252 1.3211,0.18207 -0.88744,3.24699 -1.03067,6.0558 z"
       id="path5649" />
    <path
       style="font-variation-settings:normal;opacity:1;vector-effect:none;fill:#ffffff;fill-opacity:1;stroke:none;stroke-width:0.162087;stroke-linecap:butt;stroke-linejoin:miter;stroke-miterlimit:5;stroke-dasharray:none;stroke-dashoffset:0;stroke-opacity:1;stop-color:#000000;stop-opacity:1"
       d="m 149.47788,161.62635 c -1.01158,-0.54937 -1.35584,-2.61941 -1.2584,-3.50098 0.0975,-0.88245 0.2741,-2.18157 1.55616,-2.2302 1.56913,0.12166 -0.62403,3.39883 -0.29776,5.73118 z"
       id="path5727" />
    <path
       style="font-variation-settings:normal;opacity:1;vector-effect:none;fill:#bf9f4f;fill-opacity:1;stroke:none;stroke-width:0.162087;stroke-linecap:butt;stroke-linejoin:miter;stroke-miterlimit:5;stroke-dasharray:none;stroke-dashoffset:0;stroke-opacity:1;stop-color:#000000;stop-opacity:1"
       d="m 140.5578,159.80232 c -0.38192,-1.1772 -0.13833,-2.6183 -0.0242,-3.39265 0.11423,-0.77514 0.57803,-1.51137 1.19041,-1.51236 0.61237,-0.001 0.71064,0.594 0.40332,1.65528 -0.24599,0.84947 -1.22962,2.33156 -1.56951,3.24973 z"
       id="path5705" />
    <path
       style="font-variation-settings:normal;opacity:1;vector-effect:none;fill:#bf9f4f;fill-opacity:1;stroke:none;stroke-width:0.162087;stroke-linecap:butt;stroke-linejoin:miter;stroke-miterlimit:5;stroke-dasharray:none;stroke-dashoffset:0;stroke-opacity:1;stop-color:#000000;stop-opacity:1"
       d="m 143.38869,156.22533 c 0.14026,-0.81056 0.45788,-1.50867 1.19174,-1.3983 0.73386,0.11037 0.62292,0.9545 0.46114,1.59478 -0.14367,0.56857 -1.33125,2.64719 -1.68233,3.91099 -0.39628,-1.52147 -0.0964,-3.38008 0.0294,-4.10747 z"
       id="path5707" />
    <path
       style="font-variation-settings:normal;opacity:1;vector-effect:none;fill:#bf9f4f;fill-opacity:1;stroke:none;stroke-width:0.162087;stroke-linecap:butt;stroke-linejoin:miter;stroke-miterlimit:5;stroke-dasharray:none;stroke-dashoffset:0;stroke-opacity:1;stop-color:#000000;stop-opacity:1"
       d="m 146.13337,161.15065 c -0.50834,-1.38914 -0.20387,-2.95965 -0.14674,-3.67119 0.0572,-0.71224 0.34371,-1.81957 1.11836,-1.80105 0.77465,0.0185 0.7317,0.94903 0.54564,1.54658 -0.1686,0.54144 -1.13851,2.55578 -1.51726,3.92566 z"
       id="path5709" />
    <path
       style="font-variation-settings:normal;opacity:1;vector-effect:none;fill:#bf9f4f;fill-opacity:1;stroke:none;stroke-width:0.162087;stroke-linecap:butt;stroke-linejoin:miter;stroke-miterlimit:5;stroke-dasharray:none;stroke-dashoffset:0;stroke-opacity:1;stop-color:#000000;stop-opacity:1"
       d="m 148.79956,157.95046 c 0.0574,-0.51914 0.25769,-1.43893 1.01192,-1.46754 0.75421,-0.0286 0.94574,0.72235 0.77896,1.60993 -0.16929,0.90091 -1.06047,1.94684 -1.11256,3.5335 -0.78732,-1.22907 -0.73564,-3.15726 -0.67832,-3.67589 z"
       id="path5711" />
  </g>
  <g
     id="g5810"
     style="opacity:1;stroke-width:1.10692"
     transform="matrix(0.90341149,0,0,0.90341149,-37.033063,-53.753777)">
    <path
       style="font-variation-settings:normal;vector-effect:none;fill:#75510a;fill-opacity:1;stroke:none;stroke-width:0.146436;stroke-linecap:butt;stroke-linejoin:miter;stroke-miterlimit:5;stroke-dasharray:none;stroke-dashoffset:0;stroke-opacity:1;stop-color:#000000"
       d="m 81.126457,153.2089 c 0.727301,0.89596 -0.08564,1.65237 -0.9426,2.21823 -0.760999,0.50249 -2.131365,0.72529 -3.152751,0.8484 z"
       id="path5647-9" />
    <path
       style="font-variation-settings:normal;vector-effect:none;fill:#ffffff;fill-opacity:1;stroke:none;stroke-width:0.146436;stroke-linecap:butt;stroke-linejoin:miter;stroke-miterlimit:5;stroke-dasharray:none;stroke-dashoffset:0;stroke-opacity:1;stop-color:#000000"
       d="m 77.031106,156.27553 c 0.03187,-1.02247 0.905396,-2.28429 1.544259,-2.81598 0.767274,-0.63856 1.823833,-1.14665 2.551092,-0.25065 0.631712,0.83905 -2.050294,1.32568 -4.095351,3.06663 z"
       id="path5719-7" />
    <path
       style="font-variation-settings:normal;vector-effect:none;fill:#bf9f4f;fill-opacity:1;stroke:none;stroke-width:0.146436;stroke-linecap:butt;stroke-linejoin:miter;stroke-miterlimit:5;stroke-dasharray:none;stroke-dashoffset:0;stroke-opacity:1;stop-color:#000000"
       d="m 80.667458,153.45132 c 0.422626,0.52048 -0.165575,1.01632 -0.663464,1.34508 -0.442124,0.29193 -1.968959,0.84955 -2.972888,1.47913 0.697539,-1.46928 1.462559,-2.20805 2.019646,-2.64019 0.557087,-0.43214 1.194191,-0.70459 1.616706,-0.18402 z"
       id="path5707-2" />
    <path
       style="font-variation-settings:normal;vector-effect:none;fill:#75510a;fill-opacity:1;stroke:none;stroke-width:0.146436;stroke-linecap:butt;stroke-linejoin:miter;stroke-miterlimit:5;stroke-dasharray:none;stroke-dashoffset:0;stroke-opacity:1;stop-color:#000000"
       d="m 83.355671,154.22263 c 0.781727,0.84889 0.0087,1.51303 -0.811354,2.1312 -0.728203,0.54895 -2.477707,1.34298 -3.608783,1.32393 z"
       id="path5762" />
    <path
       style="font-variation-settings:normal;vector-effect:none;fill:#ffffff;fill-opacity:1;stroke:none;stroke-width:0.146436;stroke-linecap:butt;stroke-linejoin:miter;stroke-miterlimit:5;stroke-dasharray:none;stroke-dashoffset:0;stroke-opacity:1;stop-color:#000000"
       d="m 78.935534,157.67776 c -0.03192,-1.02246 0.751906,-2.16348 1.61332,-2.92221 0.959903,-0.84548 2.025131,-1.38185 2.806817,-0.53292 0.682777,0.79805 -2.487557,1.59012 -4.420137,3.45513 z"
       id="path5764" />
    <path
       style="font-variation-settings:normal;vector-effect:none;fill:#bf9f4f;fill-opacity:1;stroke:none;stroke-width:0.146436;stroke-linecap:butt;stroke-linejoin:miter;stroke-miterlimit:5;stroke-dasharray:none;stroke-dashoffset:0;stroke-opacity:1;stop-color:#000000"
       d="m 81.281961,154.8028 c 0.55769,-0.49121 1.176575,-0.80284 1.630713,-0.30962 0.454242,0.49313 -0.101914,1.02467 -0.578345,1.38382 -0.423071,0.31892 -2.436056,1.10984 -3.398795,1.80076 0.582496,-1.29548 1.845973,-2.43414 2.346397,-2.87499 z"
       id="path5766" />
    <path
       style="font-variation-settings:normal;vector-effect:none;fill:#75510a;fill-opacity:1;stroke:none;stroke-width:0.146436;stroke-linecap:butt;stroke-linejoin:miter;stroke-miterlimit:5;stroke-dasharray:none;stroke-dashoffset:0;stroke-opacity:1;stop-color:#000000"
       d="m 85.195308,155.22918 c 0.836331,0.7435 0.189013,1.49985 -0.50796,2.21652 -0.618927,0.63642 -2.168628,1.6448 -3.234169,1.76858 z"
       id="path5770" />
    <path
       style="font-variation-settings:normal;vector-effect:none;fill:#ffffff;fill-opacity:1;stroke:none;stroke-width:0.146436;stroke-linecap:butt;stroke-linejoin:miter;stroke-miterlimit:5;stroke-dasharray:none;stroke-dashoffset:0;stroke-opacity:1;stop-color:#000000"
       d="m 81.453179,159.21428 c -0.152225,-1.01028 0.448216,-2.24105 1.167292,-3.10238 0.801289,-0.95981 1.738538,-1.62627 2.574837,-0.88272 0.737235,0.70554 -2.148347,1.8912 -3.742129,3.9851 z"
       id="path5772" />
    <path
       style="font-variation-settings:normal;vector-effect:none;fill:#bf9f4f;fill-opacity:1;stroke:none;stroke-width:0.146436;stroke-linecap:butt;stroke-linejoin:miter;stroke-miterlimit:5;stroke-dasharray:none;stroke-dashoffset:0;stroke-opacity:1;stop-color:#000000"
       d="m 83.315273,156.0663 c 0.465537,-0.55764 1.010068,-0.94485 1.495936,-0.51285 0.485955,0.43189 0.02668,1.02934 -0.378257,1.44572 -0.359584,0.36974 -2.157343,1.40826 -2.979773,2.21511 0.392718,-1.35862 1.444338,-2.64755 1.862062,-3.14801 z"
       id="path5774" />
    <path
       style="font-variation-settings:normal;vector-effect:none;fill:#75510a;fill-opacity:1;stroke:none;stroke-width:0.146436;stroke-linecap:butt;stroke-linejoin:miter;stroke-miterlimit:5;stroke-dasharray:none;stroke-dashoffset:0;stroke-opacity:1;stop-color:#000000"
       d="m 87.027028,156.22601 c 0.882879,0.68758 0.427821,1.59071 -0.221107,2.35116 -0.576262,0.67529 -2.234336,1.71137 -3.112405,2.01043 z"
       id="path5778" />
    <path
       style="font-variation-settings:normal;vector-effect:none;fill:#ffffff;fill-opacity:1;stroke:none;stroke-width:0.146436;stroke-linecap:butt;stroke-linejoin:miter;stroke-miterlimit:5;stroke-dasharray:none;stroke-dashoffset:0;stroke-opacity:1;stop-color:#000000"
       d="m 83.693516,160.5876 c -0.359295,-1.13998 0.159897,-2.40717 0.82148,-3.31341 0.737223,-1.00985 1.629183,-1.73581 2.512032,-1.04818 0.781527,0.65615 -1.879167,2.16855 -3.333512,4.36159 z"
       id="path5780" />
    <path
       style="font-variation-settings:normal;vector-effect:none;fill:#bf9f4f;fill-opacity:1;stroke:none;stroke-width:0.146436;stroke-linecap:butt;stroke-linejoin:miter;stroke-miterlimit:5;stroke-dasharray:none;stroke-dashoffset:0;stroke-opacity:1;stop-color:#000000"
       d="m 86.664814,156.57456 c 0.512993,0.39939 0.09351,1.02542 -0.283509,1.46724 -0.334798,0.39232 -1.919528,1.68722 -2.687789,2.5458 0.23273,-1.523 1.021191,-2.84211 1.427526,-3.39873 0.406334,-0.55661 1.030858,-1.01382 1.543772,-0.61431 z"
       id="path5782" />
  </g>
  <g
     id="g5836"
     style="opacity:1;stroke-width:1.10692"
     transform="matrix(0.90341149,0,0,0.90341149,-49.709417,-62.71777)">
    <path
       style="font-variation-settings:normal;vector-effect:none;fill:#75510a;fill-opacity:1;stroke:none;stroke-width:0.146436;stroke-linecap:butt;stroke-linejoin:miter;stroke-miterlimit:5;stroke-dasharray:none;stroke-dashoffset:0;stroke-opacity:1;stop-color:#000000"
       d="m 81.035506,152.71128 c 1.42604,0.72725 0.371854,1.99024 -0.45372,2.80377 -0.73313,0.72243 -2.060327,1.65782 -2.881068,2.05236 z"
       id="path5812" />
    <path
       style="font-variation-settings:normal;vector-effect:none;fill:#ffffff;fill-opacity:1;stroke:none;stroke-width:0.146436;stroke-linecap:butt;stroke-linejoin:miter;stroke-miterlimit:5;stroke-dasharray:none;stroke-dashoffset:0;stroke-opacity:1;stop-color:#000000"
       d="m 77.700718,157.56741 c -0.629805,-1.75816 0.253455,-3.29813 0.847881,-4.02217 0.714909,-0.8708 1.556999,-1.34864 2.486907,-0.83396 0.880103,0.78995 -2.553094,1.8386 -3.334788,4.85613 z"
       id="path5814" />
    <path
       style="font-variation-settings:normal;vector-effect:none;fill:#bf9f4f;fill-opacity:1;stroke:none;stroke-width:0.146436;stroke-linecap:butt;stroke-linejoin:miter;stroke-miterlimit:5;stroke-dasharray:none;stroke-dashoffset:0;stroke-opacity:1;stop-color:#000000"
       d="m 80.828133,153.22158 c 0.581531,0.48421 -0.03256,1.16157 -0.653961,1.5988 -0.48904,0.34411 -1.853378,1.61827 -2.473454,2.74703 -0.0441,-1.6729 0.854563,-3.18939 1.377225,-3.78943 0.522663,-0.60006 1.168765,-1.04072 1.75019,-0.5564 z"
       id="path5816" />
    <path
       style="font-variation-settings:normal;vector-effect:none;fill:#75510a;fill-opacity:1;stroke:none;stroke-width:0.146436;stroke-linecap:butt;stroke-linejoin:miter;stroke-miterlimit:5;stroke-dasharray:none;stroke-dashoffset:0;stroke-opacity:1;stop-color:#000000"
       d="m 83.438472,154.11887 c 0.865442,0.76336 0.165356,1.50399 -0.586265,2.20377 -0.667432,0.62141 -2.218985,1.80498 -3.345952,1.90318 z"
       id="path5818" />
    <path
       style="font-variation-settings:normal;vector-effect:none;fill:#ffffff;fill-opacity:1;stroke:none;stroke-width:0.146436;stroke-linecap:butt;stroke-linejoin:miter;stroke-miterlimit:5;stroke-dasharray:none;stroke-dashoffset:0;stroke-opacity:1;stop-color:#000000"
       d="m 79.506255,158.22582 c -0.137643,-1.01366 0.665251,-2.45319 1.372864,-3.35707 0.902612,-1.15296 1.693948,-1.51329 2.559353,-0.74988 0.761758,0.72304 -2.203187,2.05181 -3.932217,4.10695 z"
       id="path5820" />
    <path
       style="font-variation-settings:normal;vector-effect:none;fill:#bf9f4f;fill-opacity:1;stroke:none;stroke-width:0.146436;stroke-linecap:butt;stroke-linejoin:miter;stroke-miterlimit:5;stroke-dasharray:none;stroke-dashoffset:0;stroke-opacity:1;stop-color:#000000"
       d="m 83.025878,154.43384 c 0.502872,0.44344 0.0048,1.02972 -0.431914,1.43628 -0.387766,0.36102 -2.201705,1.56878 -3.087709,2.3557 0.445192,-1.34885 1.477639,-2.82485 1.955601,-3.34316 0.477962,-0.5183 1.061244,-0.89235 1.564022,-0.44882 z"
       id="path5822" />
    <path
       style="font-variation-settings:normal;vector-effect:none;fill:#75510a;fill-opacity:1;stroke:none;stroke-width:0.146436;stroke-linecap:butt;stroke-linejoin:miter;stroke-miterlimit:5;stroke-dasharray:none;stroke-dashoffset:0;stroke-opacity:1;stop-color:#000000"
       d="m 85.916593,155.07547 c 0.731957,0.84645 0.200706,1.53849 -1.041411,2.27283 -1.037151,0.61317 -2.825699,1.52436 -3.898278,1.50778 z"
       id="path5824" />
    <path
       style="font-variation-settings:normal;vector-effect:none;fill:#ffffff;fill-opacity:1;stroke:none;stroke-width:0.146436;stroke-linecap:butt;stroke-linejoin:miter;stroke-miterlimit:5;stroke-dasharray:none;stroke-dashoffset:0;stroke-opacity:1;stop-color:#000000"
       d="m 80.976904,158.85608 c 0.0098,-0.95064 1.224852,-1.99438 1.98807,-2.81685 0.884452,-0.95313 1.983878,-2.083 2.951619,-0.96376 0.844454,1.05229 -3.085851,1.91303 -4.939689,3.78061 z"
       id="path5826" />
    <path
       style="font-variation-settings:normal;vector-effect:none;fill:#bf9f4f;fill-opacity:1;stroke:none;stroke-width:0.146436;stroke-linecap:butt;stroke-linejoin:miter;stroke-miterlimit:5;stroke-dasharray:none;stroke-dashoffset:0;stroke-opacity:1;stop-color:#000000"
       d="m 85.528834,155.34674 c 0.425324,0.49171 -0.217622,1.1571 -0.953796,1.73821 -0.653721,0.51602 -2.3938,1.18503 -3.598134,1.77113 0.850442,-1.01214 2.132408,-2.29427 2.639425,-2.76103 0.507016,-0.46676 1.487282,-1.24012 1.912505,-0.74831 z"
       id="path5828" />
    <path
       style="font-variation-settings:normal;vector-effect:none;fill:#75510a;fill-opacity:1;stroke:none;stroke-width:0.146436;stroke-linecap:butt;stroke-linejoin:miter;stroke-miterlimit:5;stroke-dasharray:none;stroke-dashoffset:0;stroke-opacity:1;stop-color:#000000"
       d="m 87.790646,156.85023 c 0.614155,0.93545 -0.223609,1.94204 -1.144274,2.3316 -0.76316,0.32292 -2.843863,0.78283 -4.125815,0.65196 z"
       id="path5830" />
    <path
       style="font-variation-settings:normal;vector-effect:none;fill:#ffffff;fill-opacity:1;stroke:none;stroke-width:0.146436;stroke-linecap:butt;stroke-linejoin:miter;stroke-miterlimit:5;stroke-dasharray:none;stroke-dashoffset:0;stroke-opacity:1;stop-color:#000000"
       d="m 82.520557,159.83379 c 0.206256,-0.96157 1.596705,-2.0071 2.483406,-2.69465 1.023361,-0.79352 2.172573,-1.22439 2.786683,-0.28891 0.528341,0.87303 -3.186526,1.3763 -5.270089,2.98356 z"
       id="path5832" />
    <path
       style="font-variation-settings:normal;vector-effect:none;fill:#bf9f4f;fill-opacity:1;stroke:none;stroke-width:0.146436;stroke-linecap:butt;stroke-linejoin:miter;stroke-miterlimit:5;stroke-dasharray:none;stroke-dashoffset:0;stroke-opacity:1;stop-color:#000000"
       d="m 86.558708,158.60905 c -0.522424,0.41509 -2.821551,1.01395 -4.038151,1.22474 1.136404,-1.08323 2.343381,-2.04239 2.907434,-2.43835 0.564048,-0.39594 1.338041,-0.7692 1.694876,-0.22574 0.356836,0.54346 -0.04174,1.02426 -0.564159,1.43935 z"
       id="path5834" />
  </g>
  <path
     style="font-variation-settings:normal;opacity:1;vector-effect:none;fill:#75510a;fill-opacity:1;stroke:none;stroke-width:0.132292;stroke-linecap:butt;stroke-linejoin:miter;stroke-miterlimit:5;stroke-dasharray:none;stroke-dashoffset:0;stroke-opacity:1;stop-color:#000000;stop-opacity:1"
     d="m 14.09424,60.228982 c 0.5085,0.32917 0.695966,0.68367 0.801218,1.08518 0.105254,0.40151 -0.0894,1.24461 -0.0894,1.24461 0,0 0.443836,0.54863 0.650922,0.99239 0.224089,0.48019 0.170107,0.90412 -0.516085,0.89635 l -1.086617,-2.22315 z"
     id="path5858" />
  <path
     style="font-variation-settings:normal;opacity:1;vector-effect:none;fill:#bf9f4f;fill-opacity:1;stroke:none;stroke-width:0.132292;stroke-linecap:butt;stroke-linejoin:miter;stroke-miterlimit:5;stroke-dasharray:none;stroke-dashoffset:0;stroke-opacity:1;stop-color:#000000;stop-opacity:1"
     d="m 13.781648,62.516082 c 0.02541,0.51792 0.18198,1.09294 0.483916,1.56153 0.374191,0.58072 1.029975,0.47353 0.890194,-0.0565 -0.107772,-0.40865 -0.531112,-1.14127 -0.995452,-1.59172 -0.05639,-0.99721 0.471383,-1.73912 -0.06607,-2.20045 -0.537449,-0.46133 -1.578619,-0.75024 -1.732056,-0.33967 -0.153436,0.41057 0.584014,1.95316 1.419466,2.62677 z"
     id="path5839" />
  <path
     style="font-variation-settings:normal;opacity:1;vector-effect:none;fill:#ffffff;fill-opacity:1;stroke:none;stroke-width:0.132292;stroke-linecap:butt;stroke-linejoin:miter;stroke-miterlimit:5;stroke-dasharray:none;stroke-dashoffset:0;stroke-opacity:1;stop-color:#000000;stop-opacity:1"
     d="m 53.754751,72.386652 c -1.18447,-1.5046 -2.536245,-1.94234 -2.536245,-1.94234 l -0.679092,0.58854 c 0,0 -0.682464,-0.22502 -2.57895,-2.07156 -1.266701,-1.23333 -3.617427,-2.30491 -3.617427,-2.30491 0,0 0.2561,-0.19207 1.184466,0.12805 0.928367,0.32013 2.082955,0.91342 3.137238,2.04881 1.054282,1.13538 2.016795,1.21648 2.016795,1.21648 l -0.03201,-0.89635 c 0,0 1.536606,0.7683 2.913148,2.40095 1.376537,1.63264 3.297299,3.00918 5.410143,2.88113 l 0.03261,0.5814 c -1.600059,0.10121 -4.06621,-1.12561 -5.250672,-2.6302 z m 4.707388,-0.53889 c 0,0 3.184177,0.57345 6.036347,1.61473 2.85219,1.04127 5.11582,1.26763 6.29292,1.22236 l 0.21127,0.73945 c 0,0 -3.10873,-0.28673 -5.96091,-1.14691 -2.85218,-0.86017 -4.70836,-1.3129 -6.60981,-1.53927 z m 11.242707,0.52818 c 0,0 4.34618,0.63382 6.79091,1.44872 2.44472,0.81492 5.16108,1.35818 7.10781,1.22237 l 0.12073,0.60364 c 0,0 -2.11273,0.25655 -6.00618,-0.83 -3.87092,-1.08027 -5.34217,-1.26764 -7.92272,-1.67509 z m 12.58582,-0.498 c 0,0 2.08254,1.35818 5.38745,2.21836 3.3049,0.86018 6.47399,0.95073 7.87745,0.54328 l 0.79982,1.01109 c 0,0 -2.70128,0.34709 -6.95691,-0.5131 -4.25563,-0.86018 -6.51927,-2.3089 -7.06254,-2.71636 z m 11.69544,-0.95072 c 0,0 1.27302,1.13098 4.25563,2.39945 2.982624,1.26847 6.290274,1.96475 8.094554,2.57638 1.80428,0.61164 2.81979,1.42077 3.72163,1.90561 0,0 -1.17392,0.1081 -3.02328,-0.84347 -1.68939,-0.86926 -7.188824,-1.94475 -10.060544,-3.45743 -2.91626,-1.53615 -2.98799,-2.58054 -2.98799,-2.58054 z"
     id="path5894" />
  <path
     id="path5888"
     style="font-variation-settings:normal;opacity:1;vector-effect:none;fill:#666666;fill-opacity:1;stroke:none;stroke-width:0.132292;stroke-linecap:butt;stroke-linejoin:miter;stroke-miterlimit:5;stroke-dasharray:none;stroke-dashoffset:0;stroke-opacity:1;stop-color:#000000;stop-opacity:1"
     d="m 40.693917,72.326922 c 2.164044,1.05718 4.503319,2.37301 4.503319,2.37301 -0.04752,0.2117 -0.09587,0.42134 -0.144455,0.62738 -1.444519,-1.29955 -3.149527,-1.59021 -4.358864,-3.00039 z m 67.387093,-16.91315 c 0,0 2.67109,1.35819 3.93873,2.988 0,0 0.13581,-2.12782 -3.93873,-2.988 z m 5.97599,8.96399 c -0.8149,-0.99599 -3.66708,-2.85218 -3.66708,-2.85218 0,0 3.48598,0.90546 3.66708,2.85218 z m -4.59189,10.18088 c 0.58888,0.58886 4.80737,1.79504 8.53867,-0.48568 3.73162,-2.28093 4.30068,-4.1086 3.98055,-4.68483 0,0 -1.21515,2.733684 -4.93711,4.525736 -3.72194,1.792052 -7.58211,0.644774 -7.58211,0.644774 z m -16.686274,-4.61233 c 0,0 0.95073,3.44072 3.57655,5.70436 0,0 0.27162,-0.27164 0.3169,-0.45273 0,0 -1.494,-1.62982 -2.44473,-3.35018 -0.95072,-1.72036 -0.95071,-1.94672 -1.44872,-1.90145 z m -11.18235,1.26763 c 0,0 0.36218,2.49 2.12781,4.43673 0,0 0.31691,-0.0905 0.63382,-0.27164 0,0 -0.95073,-1.72036 -1.58454,-2.94273 -0.63383,-1.22236 -1.17709,-1.22236 -1.17709,-1.22236 z m -12.90272,-0.36218 c 0,0 -0.13581,0.36218 0.27163,1.3129 0.40745,0.95074 2.03728,3.25964 2.03728,3.25964 0,0 0.40745,-0.13581 0.72436,-0.36218 -1.8467,-2.05337 -1.42595,-2.92548 -3.03327,-4.21036 z m -11.13708,-0.90545 c 0,0 -0.181098,2.85218 1.448719,5.07054 l 0.679091,-0.13582 c 0,0 -0.724361,-1.53928 -1.222357,-3.03327 -0.498006,-1.494 -0.905453,-1.90145 -0.905453,-1.90145 z m -7.967999,-2.80691 c 0,0 0.950727,2.53527 0.950727,3.89345 0,0 0.362182,-0.0453 0.67909,-0.58854 0,0 -0.543272,-2.988 -1.629817,-3.30491 z" />
</svg>
