<?xml version="1.0" encoding="UTF-8" standalone="no"?>
<!-- Created with Inkscape (http://www.inkscape.org/) -->

<svg
   width="500"
   height="568.00006"
   viewBox="0 0 132.29166 150.28335"
   version="1.1"
   id="svg5"
   xml:space="preserve"
   xmlns="http://www.w3.org/2000/svg"
   xmlns:svg="http://www.w3.org/2000/svg"><defs
     id="defs2" /><path
     style="font-variation-settings:normal;vector-effect:none;fill:#bf9f4f;fill-opacity:1;stroke:none;stroke-width:0.264583;stroke-linecap:butt;stroke-linejoin:miter;stroke-miterlimit:10;stroke-dasharray:none;stroke-dashoffset:0;stroke-opacity:1;-inkscape-stroke:none;stop-color:#000000"
     d="m 132.29166,0 c 0,0 -3.48722,47.788101 -6.50196,87.483901 -3.01474,39.695799 -31.428516,62.799439 -59.643869,62.799439 -28.21536,0 -56.62914,-23.10364 -59.643876,-62.799439 C 3.487219,47.788101 0,0 0,0 Z"
     id="use1001" /><path
     style="color:#000000;opacity:1;fill:#000000;stroke-width:0.733588;stroke-miterlimit:10;-inkscape-stroke:none"
     d="m 100.53039,85.590608 -1.50974,1.094548 -10.359681,7.522917 4.534005,13.944087 h 14.670816 l 4.53162,-13.944087 z m 0,6.339744 5.83285,4.236879 -2.22865,6.854699 h -7.210793 l -2.226273,-6.854699 z"
     id="path968" /><path
     style="color:#000000;opacity:1;fill:#000000;stroke-width:0.948598;stroke-miterlimit:10;-inkscape-stroke:none"
     d="m 100.53076,82.445206 -0.42097,0.305194 -2.888582,2.0976 1.264218,3.888014 h 4.090624 L 103.83958,84.848 Z"
     id="path1245" /><g
     id="use1205"
     style="opacity:1;stroke-width:0.853297"
     transform="matrix(0.36214585,1.1145703,-1.1145703,0.36214585,228.85779,-96.669971)"><path
       style="color:#000000;opacity:1;fill:#000000;stroke-width:0.809433;stroke-miterlimit:10;-inkscape-stroke:none"
       d="m 124.19428,142.16358 -0.35921,0.26042 -2.46481,1.78987 1.07875,3.31762 h 3.49051 l 1.07816,-3.31762 z"
       id="path13470" /></g><g
     id="use1207"
     style="opacity:1;stroke-width:0.853297"
     transform="matrix(-0.94811015,0.68884235,-0.68884235,-0.94811015,325.38681,159.93387)"><path
       style="color:#000000;opacity:1;fill:#000000;stroke-width:0.809433;stroke-miterlimit:10;-inkscape-stroke:none"
       d="m 124.19428,142.16358 -0.35921,0.26042 -2.46481,1.78987 1.07875,3.31762 h 3.49051 l 1.07816,-3.31762 z"
       id="path13466" /></g><g
     id="use1209"
     style="opacity:1;stroke-width:0.853297"
     transform="matrix(-0.94811015,-0.68884235,0.68884235,-0.94811015,111.17117,331.03337)"><path
       style="color:#000000;opacity:1;fill:#000000;stroke-width:0.809433;stroke-miterlimit:10;-inkscape-stroke:none"
       d="m 124.19428,142.16358 -0.35921,0.26042 -2.46481,1.78987 1.07875,3.31762 h 3.49051 l 1.07816,-3.31762 z"
       id="path13462" /></g><g
     id="use1211"
     style="opacity:1;stroke-width:0.853297"
     transform="matrix(0.36214585,-1.1145703,1.1145703,0.36214585,-117.75039,180.17486)"><path
       style="color:#000000;opacity:1;fill:#000000;stroke-width:0.809433;stroke-miterlimit:10;-inkscape-stroke:none"
       d="m 124.19428,142.16358 -0.35921,0.26042 -2.46481,1.78987 1.07875,3.31762 h 3.49051 l 1.07816,-3.31762 z"
       id="path13458" /></g><path
     id="path6525"
     style="fill:#000000;stroke:none;stroke-width:0.132292;stroke-miterlimit:10;stroke-dasharray:none;stop-color:#000000"
     d="m 68.695581,38.284531 -0.14902,3.41395 a 55.051201,55.051201 0 0 0 -4.80185,0 l -0.14901,-3.41262 c -1.69843,0.078 -3.39265,0.23006 -5.07782,0.45573 l 0.4437,3.36918 a 55.051201,55.051201 0 0 0 -4.73102,0.82793 l -0.737719,-3.32776 c -1.658131,0.37622 -3.299068,0.82458 -4.91812,1.34381 l 1.020376,3.2362 a 55.051201,55.051201 0 0 0 -4.509835,1.64516 l -1.30103,-3.13997 c -1.570222,0.65172 -3.111275,1.37165 -4.618756,2.15769 l 1.566314,3.00901 a 55.051201,55.051201 0 0 0 -4.163029,2.3929 l -1.824248,-2.864 c -1.438005,0.9082 -2.835829,1.8787 -4.190425,2.90676 2.68314,3.16171 8.751502,7.75612 11.127915,9.26023 2.376412,1.5041 3.64903,1.43656 5.211469,0.39092 1.562453,-1.04563 3.572517,-2.28785 6.521187,-3.42531 2.948681,-1.13746 4.351291,-1.15345 6.253231,-0.93618 1.90194,0.21726 3.92179,0.67958 6.47775,0.67958 2.55596,0 4.575793,-0.46232 6.477753,-0.67958 1.90194,-0.21727 3.30453,-0.20128 6.25322,0.93618 2.94867,1.13746 4.95872,2.37968 6.52118,3.42531 1.56244,1.04564 2.83506,1.11318 5.21147,-0.39092 2.37641,-1.50411 8.44483,-6.09852 11.127906,-9.26023 -1.35463,-1.02806 -2.752416,-1.99856 -4.190406,-2.90676 l -1.82426,2.864 a 55.051201,55.051201 0 0 0 -4.16302,-2.3929 l 1.57567,-3.02706 c -1.5084,-0.78519 -3.05036,-1.50423 -4.62143,-2.15501 l -1.30705,3.15601 a 55.051201,55.051201 0 0 0 -4.51117,-1.64583 l 1.02439,-3.24823 c -1.61953,-0.51837 -3.26092,-0.96583 -4.91946,-1.34112 l -0.73973,3.3371 a 55.051201,55.051201 0 0 0 -4.731,-0.82793 l 0.44437,-3.37452 c -1.68545,-0.22435 -3.37991,-0.37506 -5.078493,-0.45172 z" /><path
     id="path2178"
     style="font-variation-settings:normal;fill:#000000;fill-opacity:1;stroke:none;stroke-width:0.132292;stroke-linecap:butt;stroke-linejoin:miter;stroke-miterlimit:10;stroke-dasharray:none;stroke-dashoffset:0;stroke-opacity:1;stop-color:#000000"
     d="m 54.709681,82.981811 c -0.85167,-0.64889 -0.91246,-0.79118 -1.17607,-0.79118 -0.263614,0 -0.466572,1.66309 -0.628797,2.96089 -0.162223,1.29779 -0.223008,3.95378 -0.121615,4.19711 0.101391,0.24334 1.547612,1.30904 2.235872,3.00099 0.67332,1.65525 1.34372,5.233 1.29903,7.63979 -0.0862,2.663939 -0.17772,5.475789 -0.23856,7.300999 -0.17206,5.16194 -1.66311,9.54976 -2.638144,10.32405 -1.471015,0.34278 -1.77349,1.58349 -2.76711,1.48211 -0.993619,-0.10138 -2.554875,-0.34462 -3.528216,0.284 -0.97334,0.62861 -1.885935,-0.0203 -2.980943,-0.3448 -1.095008,-0.32445 -3.203718,1.44002 -4.177061,1.44002 -0.973341,0 -2.534829,-0.83147 -3.508169,-0.93284 -0.973341,-0.10138 -4.947628,1.52041 -5.758744,2.08819 -0.811118,0.56779 -2.53519,0.10164 -4.238537,-0.14165 -1.703349,-0.24334 -3.507888,1.05441 -4.177062,1.70329 -0.669167,0.6489 -1.014027,1.64258 -0.750413,1.9873 0.263614,0.34473 1.378955,1.8e-4 1.987294,-0.42566 0.608337,-0.42582 1.439919,-0.46673 2.737708,-0.26394 1.297788,0.20278 2.696925,0.60862 3.812212,0.91279 1.115287,0.30417 3.488076,-0.34493 4.664196,-1.09522 1.176121,-0.75028 2.797849,-0.3448 2.797849,-0.3448 0,0 -2.108989,1.0548 -2.980943,2.37285 -0.87195,1.31808 -1.155339,2.51459 -1.216165,2.92014 -0.06083,0.40556 -0.912665,0.89195 -1.216834,1.19612 -0.304168,0.30417 -0.87198,0.26336 -0.993647,1.07449 -0.121667,0.81112 0.77046,2.02806 0.77046,2.02806 0,0 0.385644,-0.0607 0.730368,-0.36485 0.344724,-0.30416 1.013694,-0.95355 1.013694,-0.95355 0.973341,0.54751 1.865757,1.96704 2.210481,2.98094 0.344725,1.0139 1.480168,1.84528 2.412953,2.16973 0.932784,0.32445 2.940313,1.31816 4.217823,1.86567 1.277511,0.5475 3.021293,1.31848 3.994636,1.13598 0.973341,-0.1825 1.115263,-0.87204 1.115263,-0.87204 0,0 -1.703251,-1.0144 -2.352144,-1.41997 -0.648895,-0.40556 -2.940438,-1.54076 -3.386554,-1.90577 -0.446112,-0.365 -1.054455,-1.0344 -1.054455,-1.0344 0,0 0.689736,-0.12142 1.44002,-0.14167 0.750284,-0.0203 1.763749,-0.95308 2.088197,-1.58169 0.324448,-0.62862 -0.182426,-1.58168 -0.182426,-1.58168 -0.77056,-0.16222 -1.135595,0.26382 -1.520874,0.56799 -0.385281,0.30423 -1.723476,0.72985 -2.473762,0.36485 -0.750283,-0.365 -2.352273,-0.0613 -2.575331,-0.60875 -0.223055,-0.54751 -0.689731,-1.88539 -0.385564,-2.67623 0.304169,-0.79084 1.03467,-1.76438 2.00801,-2.14967 0.973341,-0.38528 3.406189,-1.15566 4.379533,-1.48011 0.97334,-0.32445 3.001656,-0.64885 3.001656,-0.64885 -0.608339,2.45363 1.236674,4.33952 1.723347,4.68425 0.486674,0.34472 0.750516,1.01358 0.507181,1.78415 -0.243337,0.77056 -0.56825,2.1294 -0.487134,2.6769 0.08111,0.54748 0.710219,2.35239 1.480782,2.79851 0.770561,0.44611 1.277641,-0.24389 1.277641,-0.24389 0,0 -0.162661,-1.31779 -0.547943,-1.72335 -0.385279,-0.40556 -0.122274,-1.17915 0.22185,-1.72402 0.344129,-0.54487 0.602463,-1.66339 0.803205,-2.78181 0.200742,-1.11842 -0.430624,-2.81067 -0.918138,-3.55628 -0.487516,-0.74562 -0.28676,-2.03614 0.688269,-2.40895 0.97503,-0.37279 2.724415,-0.37263 3.785485,-0.25793 1.06106,0.11469 2.43791,-0.28651 3.24088,-0.88873 0.80296,-0.60223 2.49046,-1.00434 2.49046,-1.00434 -0.48751,1.40518 0.51587,3.26945 0.51587,3.52755 0,0.2581 -0.0285,0.97466 -0.57333,1.1754 -0.54487,0.20075 -2.78183,1.0323 -3.47008,1.6632 -0.68826,0.63091 -1.92114,2.43766 -1.92114,3.44135 0,1.00371 1.08987,1.31907 1.08987,1.31907 0,0 0.57317,-1.49104 1.1754,-1.94988 0.60223,-0.45884 1.20443,-0.42978 1.69194,-0.83126 0.48752,-0.40149 1.86434,-0.68827 1.86434,-0.68827 -0.22942,1.1471 0.0285,2.06471 0.57334,3.03974 0.54486,0.97504 0.0286,1.89243 -0.0287,2.58069 -0.0574,0.68826 -0.20025,0.63104 -0.7738,1.08987 -0.57355,0.45884 -2.18009,2.69463 -2.69628,3.89908 -0.51619,1.20444 0.66021,2.06547 0.66021,2.06547 0,0 0.63749,-0.38307 0.98162,-1.15736 0.34412,-0.7743 1.19735,-0.84972 1.82825,-1.73872 0.6309,-0.889 1.63498,-1.08987 1.89308,-1.08987 0.2581,0 0.0575,0.48776 0.0575,1.14734 0,0.65958 0.25929,3.10957 0.84464,4.63146 0.58534,1.52189 1.56832,2.85531 1.56832,2.85531 0,0 0.98297,-1.33342 1.56831,-2.85531 0.58535,-1.52189 0.84464,-3.97188 0.84464,-4.63146 0,-0.65958 -0.20064,-1.14734 0.0575,-1.14734 0.2581,0 1.26217,0.20087 1.893093,1.08987 0.63089,0.889 1.48411,0.96442 1.82824,1.73872 0.34413,0.77429 0.98163,1.15736 0.98163,1.15736 0,0 1.1764,-0.86103 0.6602,-2.06547 -0.51616,-1.20445 -2.12274,-3.44024 -2.69628,-3.89908 -0.57355,-0.45883 -0.71651,-0.40161 -0.77379,-1.08987 -0.0574,-0.68826 -0.573583,-1.60565 -0.0287,-2.58069 0.54483,-0.97503 0.80275,-1.89264 0.57333,-3.03974 0,0 1.37683,0.28678 1.86434,0.68827 0.48752,0.40148 1.08972,0.37242 1.69194,0.83126 0.60223,0.45884 1.1754,1.94988 1.1754,1.94988 0,0 1.08987,-0.31536 1.08987,-1.31907 0,-1.00369 -1.23289,-2.81044 -1.92114,-3.44135 -0.68826,-0.6309 -2.9252,-1.46245 -3.47007,-1.6632 -0.54484,-0.20074 -0.574,-0.9173 -0.574,-1.1754 0,-0.2581 1.00403,-2.12237 0.51652,-3.52755 0,0 1.68751,0.40211 2.49048,1.00434 0.80295,0.60222 2.17979,1.00342 3.24086,0.88873 1.06106,-0.1147 2.81044,-0.11483 3.78548,0.25793 0.97503,0.37281 1.17579,1.66333 0.68828,2.40895 -0.48752,0.74561 -1.11887,2.43786 -0.91813,3.55628 0.20073,1.11842 0.45907,2.23694 0.8032,2.78181 0.34406,0.54487 0.60713,1.31846 0.22184,1.72402 -0.38528,0.40556 -0.54793,1.72335 -0.54793,1.72335 0,0 0.50707,0.69 1.27763,0.24389 0.77057,-0.44612 1.39904,-2.25103 1.48011,-2.79851 0.0811,-0.5475 -0.24312,-1.90634 -0.48646,-2.6769 -0.24334,-0.77057 0.0206,-1.43943 0.50718,-1.78415 0.48667,-0.34473 2.3317,-2.23062 1.72335,-4.68425 0,0 2.02766,0.3244 3.00098,0.64885 0.97335,0.32445 3.40688,1.09483 4.3802,1.48011 0.97335,0.38529 1.70319,1.35883 2.00734,2.14967 0.30418,0.79084 -0.16183,2.12872 -0.38489,2.67623 -0.22305,0.54744 -1.82505,0.24375 -2.57533,0.60875 -0.75029,0.365 -2.08848,-0.0606 -2.47376,-0.36485 -0.38529,-0.30417 -0.75031,-0.73021 -1.52088,-0.56799 0,0 -0.50685,0.95306 -0.18241,1.58168 0.32445,0.62861 1.33789,1.56138 2.08818,1.58169 0.75029,0.0203 1.44003,0.14167 1.44003,0.14167 0,0 -0.60834,0.6694 -1.05445,1.0344 -0.44612,0.36501 -2.73768,1.50021 -3.38656,1.90577 -0.64888,0.40557 -2.35215,1.41997 -2.35215,1.41997 0,0 0.14195,0.68954 1.11526,0.87204 0.97335,0.1825 2.71712,-0.58848 3.99464,-1.13598 1.27751,-0.54751 3.28505,-1.54122 4.21783,-1.86567 0.93279,-0.32445 2.06822,-1.15583 2.41294,-2.16973 0.34473,-1.0139 1.23715,-2.43343 2.21049,-2.98094 0,0 0.66897,0.64939 1.01369,0.95355 0.34474,0.30411 0.730376,0.36485 0.730376,0.36485 0,0 0.89213,-1.21694 0.77045,-2.02806 -0.12168,-0.81113 -0.68947,-0.77032 -0.99364,-1.07449 -0.304166,-0.30417 -1.156056,-0.79056 -1.216836,-1.19612 -0.0608,-0.40555 -0.34488,-1.60206 -1.21683,-2.92014 -0.87195,-1.31805 -2.98028,-2.37285 -2.98028,-2.37285 0,0 1.62172,-0.40548 2.79785,0.3448 1.17612,0.75029 3.548906,1.39939 4.664196,1.09522 1.11529,-0.30417 2.51443,-0.71001 3.81221,-0.91279 1.2978,-0.20279 2.12937,-0.16188 2.7377,0.26394 0.60835,0.42584 1.72369,0.77039 1.9873,0.42566 0.26361,-0.34472 -0.0812,-1.3384 -0.75042,-1.9873 -0.66917,-0.64888 -2.4737,-1.94663 -4.17705,-1.70329 -1.70335,0.24333 -3.42743,0.70944 -4.23854,0.14165 -0.81113,-0.56778 -4.785386,-2.18957 -5.758736,-2.08819 -0.97334,0.10137 -2.53485,0.93284 -3.50817,0.93284 -0.97333,0 -3.08205,-1.76447 -4.17707,-1.44002 -1.09501,0.32442 -2.0076,0.97341 -2.98093,0.3448 -0.97335,-0.62862 -2.5346,-0.38538 -3.52822,-0.284 -0.99363,0.10138 -1.29607,-1.13933 -2.76711,-1.48211 -0.97506,-0.77429 -2.46674,-5.16211 -2.63881,-10.32405 -0.1072,-3.2144 -0.27737,-8.296189 -0.42332,-13.395189 10e-4,-4.35364 1.42779,-9.30928 2.08719,-11.09517 0.68826,-1.86403 1.46202,-5.07595 1.77747,-5.82156 0.31539,-0.74562 0.60229,-1.83538 0.37287,-2.0648 -0.22942,-0.22942 -1.03191,-0.94618 -1.46207,-0.91748 -0.43016,0.0287 -0.86058,0.48742 -1.14734,1.31907 -0.28617,0.82987 -1.82704,3.19805 -1.83361,3.20815 0.0637,-4.50803 0.22243,-8.62508 0.37087,-9.46003 0.22942,-1.29048 0.88899,-2.55234 2.38021,-2.75308 1.49123,-0.20074 4.44493,-0.0283 6.10822,1.23353 1.66329,1.26181 1.69246,2.09355 2.63882,2.43768 0.94635,0.34413 1.83473,1.66321 3.09654,4.38755 1.2618,2.72434 2.89686,3.21205 4.64615,3.49881 1.74932,0.2868 3.097,0.2292 4.01468,-0.11495 0.91767,-0.34413 2.093326,-1.23309 2.666876,-1.00367 0.57355,0.22942 2.35144,0.68791 3.35515,-0.17241 1.00369,-0.86032 1.80712,-3.06821 2.61009,-3.26894 0.80294,-0.20074 0.65967,-0.54462 2.09353,-1.23288 1.43387,-0.68824 2.23655,-1.57767 2.23655,-1.57767 -0.33076,-1.25761 -1.70015,-1.59206 -2.97026,-2.01469 0,0 -1.29768,0.5272 -2.35214,1.64249 -1.05445,1.11528 -2.29169,1.41944 -2.49448,1.64249 -0.20278,0.22306 -0.36484,0.48653 -0.36484,0.36485 0,-0.12168 -0.12142,-0.34426 0.32474,-1.62177 0.44612,-1.27751 0.0807,-2.27114 -0.54793,-2.63614 -0.62862,-0.36502 -0.93285,-1.94653 -0.93285,-1.94653 l -2.45304,0.0401 c 0,0 -0.588556,1.76421 0.16171,2.57534 0.75031,0.81111 0.24383,1.31851 -0.10086,2.12962 -0.344666,0.81113 0.0401,2.06816 0.0401,2.06816 0,0 -0.729456,0.83138 -1.804196,0.52722 -1.07473,-0.30417 -2.83935,-2.29156 -3.71131,-3.32574 -0.87196,-1.03417 -3.10436,-3.63667 -4.11826,-5.25892 l -4.1129,-3.50683 c -0.91769,-0.61656 -2.46434,-1.23616 -4.47376,-1.67724 -2.00941,-0.44108 -5.21957,-1.19 -6.28063,-1.47676 -1.06106,-0.28679 -1.43382,-0.17244 -1.69192,-0.86069 -0.2581,-0.68826 -0.60208,-2.32273 -0.60208,-2.32273 l -2.8513,-15.71927 -0.13365,-3.53223 -2.420973,-14.068777 c 0.67226,-1.075623 1.12125,-1.960906 1.88573,-2.717659 0.784333,-0.776405 1.470473,-0.709098 2.573993,-1.429329 1.10352,-0.720228 1.58464,-1.451186 1.9639,-2.294009 l -3.09854,-0.960904 c -0.34529,0.992707 -1.02376,1.652931 -1.946543,2.149673 -0.92278,0.496743 -2.06501,0.216038 -3.14198,1.322414 -1.07697,-1.106376 -2.2192,-0.825671 -3.14198,-1.322414 -0.92278,-0.496742 -1.60125,-1.156966 -1.94654,-2.149673 l -3.09921,0.960904 c 0.37927,0.842823 0.86105,1.573781 1.96457,2.294009 1.10352,0.720231 1.78967,0.652924 2.574,1.429329 0.76446,0.756753 1.21345,1.642036 1.88572,2.717659 l -2.42097,14.068777 -0.13365,3.53223 -2.8513,15.71927 c 0,0 -0.34398,1.63447 -0.60207,2.32273 -0.2581,0.68825 -0.63088,0.5739 -1.69194,0.86069 -1.06106,0.28676 -4.271216,1.03568 -6.280627,1.47676 -2.009416,0.44108 -3.556076,1.06068 -4.473753,1.67724 l -4.112911,3.50683 c -1.013897,1.62225 -3.246307,4.22475 -4.118257,5.25892 -0.871954,1.03418 -2.63658,3.02157 -3.71131,3.32574 -1.074733,0.30416 -1.804202,-0.52722 -1.804202,-0.52722 0,0 0.38482,-1.25703 0.0401,-2.06816 -0.344727,-0.81111 -0.851185,-1.31851 -0.1009,-2.12962 0.750286,-0.81113 0.16171,-2.57534 0.16171,-2.57534 l -2.453713,-0.0401 c 0,0 -0.303556,1.58151 -0.932171,1.94653 -0.62862,0.365 -0.994059,1.35863 -0.547943,2.63614 0.446111,1.27751 0.324756,1.50009 0.324756,1.62177 0,0.12168 -0.162738,-0.14179 -0.365518,-0.36485 -0.20278,-0.22305 -1.439354,-0.52721 -2.493807,-1.64249 -1.054453,-1.11529 -2.352145,-1.64249 -2.352145,-1.64249 -1.270112,0.42263 -2.639494,0.75708 -2.97025,2.01469 0,0 0.802674,0.88943 2.236542,1.57767 1.433867,0.68826 1.290575,1.03214 2.093542,1.23288 0.802965,0.20073 1.605704,2.40862 2.60941,3.26894 1.003709,0.86032 2.782268,0.40183 3.355815,0.17241 0.573547,-0.22942 1.749203,0.65954 2.666877,1.00367 0.917675,0.34413 2.265366,0.40172 4.014683,0.11495 1.749318,-0.28676 3.383682,-0.77447 4.645485,-3.49881 1.261803,-2.72434 2.150861,-4.04342 3.097212,-4.38755 0.946355,-0.34413 0.975527,-1.17587 2.638813,-2.43768 1.663285,-1.26184 4.617002,-1.43427 6.108222,-1.23353 1.49122,0.20074 2.15079,1.4626 2.38021,2.75308 0.22942,1.29046 0.48758,10.4099 0.37283,16.71893 0,0 -1.14968,-2.15162 -2.00136,-2.80052 z m -19.564157,-39.38373 -3.097212,0.0863 c -0.2581,1.00371 0.207817,2.1323 0.207817,2.1323 -1.376512,-0.1147 -2.747384,0.33306 -3.820899,0.13298 -1.006183,-0.18753 -2.011863,-0.40038 -2.972254,-1.63514 l -2.161033,1.9218 c 1.141432,1.14144 2.128323,1.82894 3.665871,2.18642 1.84931,0.42998 3.015589,0.13632 3.646492,0.13632 0.6309,0 1.118519,0.77447 2.437676,0.77447 l 3.127283,1.99264 3.210143,-1.90644 c -0.630903,-1.72061 -1.691462,-2.46626 -2.809877,-3.41261 -1.118417,-0.94636 -1.434007,-2.40895 -1.434007,-2.40895 z m 62.00038,0 c 0,0 -0.31559,1.46259 -1.43401,2.40895 -1.11842,0.94635 -2.17965,1.692 -2.81055,3.41261 l 3.21081,1.90644 3.12729,-1.99264 c 1.319156,0 1.806776,-0.77447 2.437676,-0.77447 0.6309,0 1.7965,0.29366 3.64582,-0.13632 1.53754,-0.35748 2.52512,-1.04498 3.66654,-2.18642 l -2.16104,-1.9218 c -0.96039,1.23476 -1.96608,1.44761 -2.97226,1.63514 -1.07352,0.20008 -2.4444,-0.24769 -3.82088,-0.13298 0,0 0.46591,-1.12859 0.20781,-2.1323 z" /><path
     id="path7567"
     style="fill:#000000;stroke:none;stroke-width:0.132292;stroke-miterlimit:10;stroke-dasharray:none;stop-color:#000000"
     d="m 63.744481,19.42499 0.14835,3.399914 c -1.50484,0.066 -3.00157,0.19906 -4.48712,0.39492 l -0.44303,-3.367171 c -1.58835,0.203243 -3.16708,0.475692 -4.73168,0.816569 l 0.73905,3.333092 c -1.467657,0.32564 -2.919717,0.71307 -4.351466,1.16471 l -1.01904,-3.23286 c -1.527269,0.48007 -3.032869,1.02652 -4.512508,1.63782 l 1.299693,3.1373 c -1.386013,0.57424 -2.747695,1.21006 -4.081505,1.904427 l -1.566982,-3.010337 c -1.418456,0.74179 -2.803886,1.54509 -4.152337,2.4076 l 1.818234,2.853987 c -1.26294,0.80451 -2.495012,1.66418 -3.690595,2.58135 l 15.876975,4.88471 c 1.892668,0.62656 4.157161,0.0544 5.929811,-0.72236 1.82274,-0.79882 3.25243,-0.92214 4.6388,-0.76378 1.38636,0.15838 3.12253,1.00234 4.98561,1.00234 1.86308,0 3.59925,-0.84396 4.985613,-1.00234 1.38636,-0.15836 2.81605,-0.035 4.63878,0.76378 1.77264,0.77681 4.03714,1.34892 5.92981,0.72236 l 15.87831,-4.88605 c -1.19548,-0.91724 -2.42773,-1.77681 -3.6906,-2.58135 l 1.82626,-2.866677 c -1.34934,-0.86236 -2.73566,-1.66543 -4.15501,-2.40693 v 6.7e-4 l -1.57233,3.021017 c -1.33386,-0.694367 -2.69541,-1.330237 -4.0815,-1.904417 l 1.30304,-3.14533 c -1.4801,-0.61087 -2.98616,-1.15689 -4.51386,-1.63647 l -1.02171,3.24021 c -1.43189,-0.45157 -2.88365,-0.83921 -4.35147,-1.16471 l 0.7384,-3.331762 c -1.5646,-0.340877 -3.14333,-0.613326 -4.73168,-0.816569 l -0.44304,3.365841 c -1.48526,-0.19563 -2.981903,-0.32781 -4.486433,-0.39359 l 0.14835,-3.40125 c -0.79974,-0.03928 -1.60033,-0.06569 -2.40093,-0.06548 -0.80059,2.03e-4 -1.60075,0.0271 -2.40026,0.06683 z" /><path
     id="path2131"
     style="fill:#000000;stroke:none;stroke-width:0.132292;stroke-linejoin:miter;stroke-miterlimit:100;stroke-dasharray:none;stop-color:#000000"
     d="m 66.145651,2.665426 c -0.69272,0.01241 -1.38513,0.03826 -2.07684,0.07751 l 0.11427,2.938176 c -1.30968,0.0508 -2.61575,0.152156 -3.91512,0.30404 l -0.34146,-2.920801 c -1.37562,0.160737 -2.7445,0.374729 -4.10356,0.641493 l 0.56666,2.886055 c -1.2837,0.252109 -2.55786,0.553573 -3.819563,0.904773 L 51.780867,4.66274 c -1.334949,0.371013 -2.655016,0.793648 -3.957216,1.26695 l 1.007012,2.765775 c -1.97e-4,7.1e-5 -4.72e-4,-7.2e-5 -6.68e-4,0 0,0 0.01009,0.02602 0.01138,0.0294 0.05818,0.162256 1.500339,4.125132 4.227178,5.651161 2.783708,1.557853 6.598298,1.072271 8.345428,0.286667 1.83736,-0.826169 2.23477,0.0862 4.73169,0.0862 2.49692,0 2.89433,-0.91237 4.731683,-0.0862 1.74715,0.785604 5.56173,1.271186 8.34543,-0.286667 2.77718,-1.554204 4.22973,-5.657991 4.23653,-5.677222 l 10e-4,-0.0034 1.01637,-2.793171 c -1.30238,-0.474221 -2.62267,-0.897746 -3.95788,-1.269625 l -0.79719,2.864003 c -1.26173,-0.351215 -2.53654,-0.652656 -3.82023,-0.904774 l 0.57333,-2.91746 c -1.36014,-0.267074 -2.73014,-0.48129 -4.10688,-0.642162 l -0.3448,2.952876 C 70.723724,5.833214 69.417511,5.731864 68.107901,5.681051 l 0.1156,-2.970919 c -0.69237,-0.02836 -1.38522,-0.04328 -2.07817,-0.04477 z" /><path
     style="fill:#000000;stroke:none;stroke-width:0.132293;stroke-miterlimit:10;stop-color:#000000"
     d="m 30.471602,33.375551 c -1.506781,0.0787 -3.004672,0.23602 -4.488452,0.46842 l -0.530569,-3.40394 c -1.617173,0.25026 -3.207224,0.58227 -4.765765,0.99233 l 0.880717,3.3391 c -1.454747,0.38463 -2.889001,0.84386 -4.29734,1.37654 l -1.220844,-3.23486 c -1.52525,0.57621 -3.013135,1.22894 -4.458382,1.95387 l 1.547604,3.09187 c -1.341285,0.67242 -2.651849,1.4141 -3.924473,2.22585 l 2.497817,3.92047 c 1.083954,1.70179 1.824307,0.0428 3.258923,0.0521 1.434615,0.009 3.484913,1.98127 5.897733,2.40693 2.412823,0.42566 3.265209,-0.57182 5.422335,-1.72935 2.157126,-1.15754 3.293325,-0.12427 6.437285,-0.12427 3.143961,0 4.28016,-1.03327 6.437286,0.12427 2.157125,1.15753 3.009511,2.15503 5.422333,1.72937 2.412821,-0.42565 6.343849,-1.67693 6.343849,-1.67693 l 2.560546,-5.2768 c -0.900217,-0.59067 -1.819539,-1.14122 -2.755254,-1.65159 l 1.422457,-3.09187 c -1.32821,-0.72482 -2.695508,-1.3777 -4.097241,-1.95387 l -1.122734,3.23486 c -1.294265,-0.53262 -2.612309,-0.99191 -3.949221,-1.37653 l 0.809498,-3.33911 c -1.432513,-0.41009 -2.893991,-0.74202 -4.380381,-0.99233 l -0.487666,3.40394 c -1.363794,-0.23246 -2.740552,-0.3896 -4.125494,-0.46842 l 0.162761,-3.43201 c -0.741233,-0.041 -1.454059,-0.0628 -2.239111,-0.0628 -0.785053,-3e-5 -1.629232,0.0219 -2.435296,0.0628 z"
     id="path7910" /><path
     id="path1670"
     style="fill:#000000;stroke:none;stroke-width:0.132292;stroke-linejoin:miter;stroke-miterlimit:100;stop-color:#000000"
     d="m 31.17046,52.043771 c -1.456835,0.003 -2.911642,0.10888 -4.353471,0.3174 l 0.583358,4.08485 c -1.262749,0.17867 -2.496551,0.44614 -3.695941,0.79519 l -1.152015,-3.95254 c -1.398029,0.40895 -2.765299,0.91652 -4.091529,1.51888 l 1.697286,3.74672 c -1.153391,0.52356 -2.263095,1.12692 -3.321735,1.80287 l -2.210482,-3.47009 c -1.228027,0.78279 -2.399016,1.65166 -3.504161,2.60006 l 2.680243,3.12394 c -0.957191,0.82204 -1.855503,1.71061 -2.687593,2.65886 l -3.095876,-2.715 c -0.960784,1.094 -1.84282,2.25471 -2.63948,3.47343 l 3.448697,2.25058 c -0.687501,1.05159 -1.302903,2.15483 -1.838948,3.30236 l 3.750066,1.74873 c 0.452988,-0.96972 0.972631,-1.90186 1.553618,-2.7905 3.07199,2.28613 6.551893,2.24746 7.492115,1.38189 0.940221,-0.86557 1.127597,-1.63495 1.737379,-2.0735 0.609781,-0.43855 1.612536,-0.65652 2.871241,-1.13206 1.258706,-0.47553 1.503087,-1.43513 3.140852,-1.78817 1.637764,-0.35303 2.612812,0.35054 3.913578,0.26648 1.300765,-0.0841 2.336579,-0.33001 3.144098,-0.16816 0.80752,0.16186 1.224656,0.772 2.438345,1.17207 1.21369,0.40007 4.397987,-1.00141 6.251893,-4.35147 0.900231,0.57476 1.757523,1.21071 2.56464,1.90377 l 2.693606,-3.13999 c -0.955029,-0.82003 -1.969856,-1.57247 -3.035068,-2.25257 l 2.22184,-3.48812 c -1.229377,-0.78221 -2.51269,-1.47624 -3.840276,-2.07684 l -1.703968,3.76009 c -1.141095,-0.51791 -2.325465,-0.95596 -3.54559,-1.31105 l 1.156026,-3.96657 c -1.399117,-0.40701 -2.825343,-0.71428 -4.26794,-0.91948 l -0.584027,4.09019 c -1.231943,-0.17433 -2.490711,-0.26528 -3.770781,-0.26528 z" /><path
     id="path1302"
     style="font-variation-settings:normal;fill:#000000;fill-opacity:1;stroke:none;stroke-width:0.132292;stroke-linecap:butt;stroke-linejoin:miter;stroke-miterlimit:10;stroke-dasharray:none;stroke-dashoffset:0;stroke-opacity:1;stop-color:#000000"
     d="m 47.73411,10.908483 c -1.289084,0.0057 -2.577311,0.06772 -3.860991,0.185767 l 0.298027,3.411945 c -1.187311,0.104146 -2.366697,0.260163 -3.534898,0.46642 l -0.593382,-3.363834 c -1.268985,0.225009 -2.527558,0.505262 -3.772117,0.839956 l 0.88339,3.296343 c -1.149133,0.30822 -2.283694,0.666364 -3.400587,1.073167 l -1.16872,-3.210812 c -1.212474,0.437808 -2.405277,0.928305 -3.574992,1.470091 l 1.448707,3.106568 c -1.076242,0.502139 -2.131473,1.051494 -3.1627,1.647169 L 25.573169,16.84698 c -1.113536,0.649567 -2.198205,1.347414 -3.250904,2.091537 l 1.967247,2.809207 c -0.970678,0.67999 -1.914642,1.40389 -2.828586,2.17106 l 2.211817,2.63614 c 0.832679,-0.69985 1.696506,-1.36434 2.588696,-1.99064 3.256604,5.375207 7.734213,6.196467 12.142945,6.300677 l 8.635443,-3.594377 2.337444,-3.13262 c 4.029972,-2.56807 5.02763,-6.738035 5.45403,-9.156662 l 0.59873,-3.396576 c -1.2697,-0.223614 -2.548565,-0.391721 -3.832924,-0.503841 l -0.300032,3.429988 C 50.112864,14.405487 48.924132,14.351596 47.73411,14.349831 Z" /><path
     id="path2516"
     style="color:#000000;fill:#ffffff;stroke-width:1;stroke-miterlimit:10;-inkscape-stroke:none"
     d="m 49.823638,21.504634 -0.325425,0.10357 c -1.536754,0.48305 -3.052416,1.03141 -4.541242,1.6465 l -0.318074,0.13165 1.305707,3.15133 c -1.181087,0.49858 -2.345056,1.04087 -3.488123,1.62646 l -1.572997,-3.02304 -0.303373,0.15904 c -1.427266,0.74639 -2.822907,1.55444 -4.179734,2.4223 l -0.285331,0.18444 1.875703,2.944187 c 0.137914,0.005 0.275851,0.0103 0.413629,0.0141 l -1.818234,-2.853987 c 1.348448,-0.86253 2.733884,-1.66584 4.152336,-2.40762 l 1.566983,3.010347 c 1.333807,-0.694357 2.695494,-1.330197 4.081505,-1.904437 l -1.299693,-3.13736 c 1.479634,-0.61129 2.985242,-1.15775 4.512508,-1.63781 l 0.529232,1.67924 c 0.09811,-0.074 0.194364,-0.14849 0.288005,-0.22452 z" /><path
     id="path2373"
     style="color:#000000;fill:#ffffff;stroke-width:1;stroke-miterlimit:10;-inkscape-stroke:none"
     d="m 51.286377,10.709492 -0.174405,1.982617 c 0.101003,0.120205 0.205705,0.23847 0.313396,0.354159 l 0.171734,-1.965244 c 1.284358,0.112124 2.563219,0.280226 3.832929,0.50384 l -0.59873,3.396577 c -0.005,0.02903 -0.0114,0.06134 -0.0167,0.09088 0.11044,0.02925 0.22143,0.05639 0.33278,0.08153 0.007,-0.03681 0.0144,-0.0769 0.0207,-0.112925 l 0.65887,-3.732692 -0.33812,-0.06081 c -1.2795,-0.225347 -2.567392,-0.394865 -3.861661,-0.50785 z" /><path
     id="path2377"
     style="color:#000000;fill:#ffffff;stroke-width:1;stroke-miterlimit:10;-inkscape-stroke:none"
     d="m 32.730498,29.537341 c -0.36999,-3e-5 -0.753262,0.005 -1.13932,0.0147 0.260468,0.1209 0.523492,0.2313 0.788504,0.33144 0.117141,-9.3e-4 0.23524,-0.003 0.350148,-0.003 0.78505,0 1.497982,0.0219 2.239214,0.0628 l -0.0294,0.62011 c 0.113288,0.0193 0.226537,0.0378 0.340125,0.0548 l 0.04744,-0.99766 -0.33879,-0.02 c -0.746609,-0.0413 -1.466527,-0.0628 -2.257924,-0.0628 z" /><path
     id="path2381"
     style="color:#000000;fill:#ffffff;stroke-width:1;stroke-miterlimit:100;-inkscape-stroke:none"
     d="m 46.670962,60.749361 c -0.112408,0.0569 -0.218568,0.11431 -0.320078,0.17173 0.759309,0.52588 1.490154,1.08912 2.189098,1.68927 l -2.693606,3.13997 c -0.807117,-0.69305 -1.664409,-1.32901 -2.56464,-1.90376 -0.994808,1.79765 -2.372183,3.03315 -3.623104,3.73135 -0.175908,0.21901 -0.351147,0.43568 -0.527228,0.64885 0.311661,-0.13576 0.634709,-0.30428 0.964246,-0.50517 1.144056,-0.69749 2.321836,-1.85538 3.254913,-3.39925 0.790492,0.52039 1.557943,1.073 2.273294,1.68726 l 0.259939,0.22452 3.13931,-3.65986 -0.259938,-0.22452 c -0.666019,-0.57188 -1.368396,-1.10027 -2.092206,-1.60039 z m -17.143924,6.19376 c -0.04199,0.10681 -0.08918,0.21341 -0.143,0.32008 0.05564,0.0103 0.111425,0.0203 0.167055,0.0314 0.596292,0.11832 1.201967,0.28622 1.919136,0.23988 0.365858,-0.0237 0.704436,-0.0573 1.024386,-0.0916 0.0045,-0.11767 0.0022,-0.23344 -0.0047,-0.34615 -0.328317,0.037 -0.671979,0.0736 -1.042428,0.0976 -0.682087,0.0441 -1.274991,-0.12814 -1.920472,-0.25125 z m -5.409263,1.87303 c -1.128297,0.40673 -2.031921,0.62602 -2.596047,1.03173 -0.312854,0.22501 -0.515251,0.53796 -0.764446,0.90545 0.0729,0.0662 0.155424,0.13948 0.259269,0.22585 0.01386,-0.0204 0.02997,-0.0429 0.04343,-0.0628 0.241869,-0.35724 0.420158,-0.61689 0.661541,-0.7905 0.505878,-0.36383 1.499422,-0.60403 2.770452,-1.08253 -0.13445,-0.0866 -0.258678,-0.16086 -0.374204,-0.22719 z" /><path
     id="path2520"
     style="color:#000000;fill:#ffffff;stroke-width:1;stroke-miterlimit:10;-inkscape-stroke:none"
     d="m 39.130736,30.045181 -0.489807,3.42198 c -1.135626,-0.18278 -2.280961,-0.3153 -3.431325,-0.39292 -0.133993,0.10022 -0.268122,0.20032 -0.401601,0.30137 1.384267,0.0789 2.760466,0.23608 4.123603,0.46842 l 0.487803,-3.40394 c 1.486389,0.25031 2.947688,0.58224 4.3802,0.99233 l -0.809218,3.33911 c 1.33691,0.38462 2.654934,0.84391 3.949197,1.37653 l 1.122614,-3.23486 c 1.401732,0.57617 2.768665,1.22906 4.096874,1.95389 l -1.421978,3.09187 c 0.362905,0.19793 0.722034,0.40406 1.079848,0.61409 0.230064,0.0198 0.462384,0.0271 0.696288,0.0221 -0.442692,-0.26503 -0.889325,-0.52149 -1.33845,-0.77114 l 1.429997,-3.10389 -0.280654,-0.15436 c -1.339038,-0.73074 -2.718194,-1.38898 -4.131622,-1.96992 l -0.336115,-0.13631 -1.128629,3.25289 c -1.095617,-0.43887 -2.205952,-0.82693 -3.331759,-1.16136 l 0.813227,-3.35649 -0.3154,-0.0909 c -1.44474,-0.41361 -2.917942,-0.74791 -4.416954,-1.00035 z m -0.307382,14.62072 -0.02004,0.0103 c 0.05894,0.0264 0.118124,0.0547 0.178415,0.0842 0.0603,0.0295 0.121719,0.0603 0.183761,0.0936 v -6.7e-4 c 0.0058,-0.003 0.01151,-0.006 0.01738,-0.009 -0.0059,-0.003 -0.01138,-0.006 -0.01738,-0.009 -0.117192,-0.0628 -0.230483,-0.11857 -0.342129,-0.16905 z m 14.269116,-5.29519 c -1.55708,0.36253 -3.100388,0.78541 -4.622765,1.27363 l -0.322753,0.10629 1.022382,3.25024 c -1.315294,0.42479 -2.614558,0.898 -3.894403,1.41997 l -1.305707,-3.15468 -0.315402,0.13098 c -1.57941,0.65551 -3.130524,1.37907 -4.646821,2.16971 l -0.203808,0.10694 c 0.117891,0.0528 0.238102,0.11121 0.362177,0.17775 0.0062,0.004 0.0119,0.006 0.01804,0.0104 1.501822,-0.78244 3.036659,-1.49985 4.600714,-2.149 l 1.30103,3.13997 a 55.051201,55.051201 0 0 1 4.509836,-1.64516 l -1.020376,-3.23621 c 1.618844,-0.51916 3.259538,-0.96761 4.917451,-1.34379 -0.132487,-0.0869 -0.266291,-0.17141 -0.399597,-0.2566 z" /><path
     id="path2525"
     style="color:#000000;fill:#ffffff;stroke-width:1;stroke-miterlimit:10;-inkscape-stroke:none"
     d="m 35.45217,44.463431 c -0.746791,0.11638 -1.604857,0.24724 -2.723676,0.24724 -0.260161,0 -0.502671,-0.009 -0.73705,-0.0213 0.01151,0.12064 0.02853,0.23655 0.04878,0.34546 0.219813,0.0103 0.446758,0.0173 0.688271,0.0173 1.198641,0 2.115704,-0.14583 2.884717,-0.26594 -0.06035,-0.11147 -0.113637,-0.21955 -0.161042,-0.32276 z m -9.383186,0.49382 c -1.058309,0.58576 -1.805765,1.11627 -2.618096,1.42532 0.09168,0.0893 0.182917,0.17704 0.273302,0.2606 0.02946,-0.0116 0.05962,-0.0226 0.08887,-0.0354 0.80742,-0.35088 1.538732,-0.87267 2.549271,-1.42265 -0.09803,-0.0697 -0.195892,-0.14464 -0.293351,-0.22786 z" /><path
     id="path2560"
     style="color:#000000;fill:#ffffff;stroke-width:1;stroke-miterlimit:100;-inkscape-stroke:none"
     d="m 35.236333,51.969581 -0.352822,2.46641 c 0.102387,0.0864 0.204796,0.17255 0.307383,0.2586 l 0.334112,-2.33878 c 1.442595,0.2052 2.868823,0.51246 4.267939,0.91948 l -1.156025,3.96656 c 1.220124,0.3551 2.404496,0.79316 3.54559,1.31107 l 1.703968,-3.7601 c 1.327584,0.6006 2.610901,1.29464 3.840277,2.07684 l -2.221842,3.48813 c 0.08934,0.057 0.177997,0.11573 0.266621,0.17372 0.119831,-0.0418 0.239129,-0.0904 0.358837,-0.14634 -0.05549,-0.0369 -0.110029,-0.075 -0.16572,-0.11159 l 2.235206,-3.50817 -0.290678,-0.18376 c -1.243022,-0.79089 -2.539382,-1.49429 -3.881707,-2.10155 l -0.310723,-0.139 -1.714659,3.7808 c -0.955261,-0.41867 -1.938747,-0.78375 -2.947532,-1.0912 l 1.16204,-3.98795 -0.328097,-0.0956 c -1.414647,-0.41154 -2.855436,-0.72202 -4.314046,-0.9295 z" /><g
     id="use7711"
     transform="matrix(-1,0,0,1,170.4582,-69.310728)" /><path
     id="path2371"
     style="color:#000000;fill:#ffffff;stroke-width:1;stroke-miterlimit:100;-inkscape-stroke:none"
     d="m 61.323081,14.701456 c -0.7823,0.334005 -1.93786,0.606671 -3.22083,0.678915 0.0571,0.112576 0.11731,0.223638 0.18176,0.332774 1.28007,-0.08797 2.42341,-0.36527 3.22484,-0.717003 -0.0662,-0.0942 -0.12811,-0.192402 -0.18577,-0.294686 z m 9.645133,0 c -0.0574,0.102024 -0.1191,0.200076 -0.1851,0.294017 0.80158,0.352075 1.94363,0.629707 3.22418,0.717672 0.0644,-0.109137 0.12414,-0.220195 0.18109,-0.332774 -1.28271,-0.0723 -2.438,-0.344968 -3.22017,-0.678915 z" /><path
     id="path2379"
     style="color:#000000;fill:#ffffff;stroke-width:1;stroke-miterlimit:10;-inkscape-stroke:none"
     d="m 63.921801,37.928221 -0.34146,0.0154 c -0.57124,0.0262 -1.14162,0.0639 -1.71199,0.10694 l -0.0134,0.3448 c 0.5797,-0.044 1.15984,-0.0829 1.74072,-0.10953 l 0.14901,3.41261 a 55.051201,55.051201 0 0 1 4.80185,0 l 0.14901,-3.41395 c 0.58092,0.0263 1.16097,0.064 1.740723,0.10758 l -0.0133,-0.34279 c -0.570533,-0.0426 -1.141123,-0.0798 -1.712643,-0.10565 l -0.34147,-0.0154 -0.0147,0.3408 -0.13431,3.08651 c -1.38285,-0.0519 -2.76615,-0.0519 -4.149,0 z m -29.072368,8.99093 -0.287336,0.18444 c -0.96584,0.61 -1.912321,1.24982 -2.841284,1.91378 0.114232,0.056 0.237122,0.10927 0.371532,0.1557 0.868384,-0.61654 1.751521,-1.21266 2.652177,-1.78147 l 1.824248,2.864 a 55.051201,55.051201 0 0 1 2.525215,-1.49816 c -0.05107,-0.10203 -0.103525,-0.2006 -0.158369,-0.29469 -0.76065,0.4274 -1.513112,0.87042 -2.25258,1.3331 z m 62.591091,0 -1.83293,2.8767 c -0.74001,-0.463 -1.49153,-0.90713 -2.25192,-1.3351 -0.0552,0.0945 -0.10849,0.19334 -0.15971,0.29601 a 55.051201,55.051201 0 0 1 2.52656,1.49884 l 1.82425,-2.864 c 0.9005,0.56872 1.78326,1.16504 2.651506,1.78147 0.1344,-0.0465 0.2573,-0.0997 0.37153,-0.1557 -0.928966,-0.66396 -1.875456,-1.30378 -2.841276,-1.91378 z m -38.617263,8.59202 c -0.0233,0.10176 -0.0354,0.16052 -0.0782,0.33678 0.28571,0.0194 0.5752,0.045 0.88272,0.0802 1.8747,0.21417 3.92131,0.68159 6.51852,0.68159 2.5972,0 4.641793,-0.46742 6.516513,-0.68159 0.3076,-0.0352 0.5975,-0.0608 0.88339,-0.0802 -0.0428,-0.17626 -0.0548,-0.23499 -0.0782,-0.33678 -0.27518,0.0191 -0.55337,0.0436 -0.84463,0.0768 -1.90195,0.21726 -3.921803,0.67958 -6.477753,0.67958 -2.55596,0 -4.57582,-0.46232 -6.47776,-0.67958 -0.29125,-0.0332 -0.56945,-0.0577 -0.84463,-0.0768 z" /><path
     id="path2489"
     style="color:#000000;fill:#ffffff;stroke-width:1;stroke-miterlimit:10;-inkscape-stroke:none"
     d="m 66.144311,19.016839 c -0.8082,2.05e-4 -1.6138,0.02558 -2.41696,0.06548 l -0.33879,0.01804 0.0154,0.340793 0.0227,0.532575 c 0.12073,0.18371 0.24295,0.380238 0.36753,0.583358 l -0.0494,-1.13197 c 0.7995,-0.03972 1.59966,-0.06662 2.40026,-0.06683 0.80059,-2.07e-4 1.60119,0.0262 2.40092,0.06548 l -0.0495,1.133974 c 0.12468,-0.203345 0.24735,-0.400125 0.36819,-0.584026 l 0.0374,-0.876041 -0.33879,-0.01537 c -0.80341,-0.03947 -1.61079,-0.06569 -2.41897,-0.06548 z m -4.23586,17.967182 -0.0134,0.35282 c 1.18355,0.2904 2.65075,0.85132 4.24923,0.85132 1.59904,0 3.06751,-0.56102 4.251893,-0.85132 l -0.0133,-0.35282 c -1.242293,0.28887 -2.694873,0.86334 -4.237873,0.86334 -1.5425,0 -2.99453,-0.57437 -4.23654,-0.86334 z" /><path
     style="fill:#000000;stroke:none;stroke-width:0.132293;stroke-miterlimit:10;stop-color:#000000"
     d="m 101.81966,33.375551 c 1.50678,0.0787 3.00467,0.23602 4.48846,0.46842 l 0.53056,-3.40394 c 1.61717,0.25026 3.20723,0.58227 4.76576,0.99233 l -0.88071,3.3391 c 1.45474,0.38463 2.889,0.84386 4.29734,1.37654 l 1.22085,-3.23486 c 1.52524,0.57621 3.01313,1.22894 4.45838,1.95387 l -1.54761,3.09187 c 1.34128,0.67242 2.65184,1.4141 3.92448,2.22585 l -2.49783,3.92047 c -1.08394,1.70179 -1.8243,0.0428 -3.25892,0.0521 -1.43461,0.009 -3.4849,1.98127 -5.89773,2.40693 -2.41282,0.42566 -3.26521,-0.57182 -5.42233,-1.72935 -2.15713,-1.15754 -3.29333,-0.12427 -6.437286,-0.12427 -3.14396,0 -4.28016,-1.03327 -6.43728,0.12427 -2.15712,1.15753 -3.00952,2.15503 -5.42233,1.72937 -2.41283,-0.42565 -6.34386,-1.67693 -6.34386,-1.67693 l -2.56054,-5.2768 c 0.90021,-0.59067 1.81953,-1.14122 2.75525,-1.65159 l -1.42245,-3.09187 c 1.32821,-0.72482 2.6955,-1.3777 4.09723,-1.95387 l 1.12274,3.23486 c 1.29427,-0.53262 2.6123,-0.99191 3.94922,-1.37653 l -0.80949,-3.33911 c 1.43251,-0.41009 2.89399,-0.74202 4.38038,-0.99233 l 0.48766,3.40394 c 1.3638,-0.23246 2.74055,-0.3896 4.12549,-0.46842 l -0.16276,-3.43201 c 0.74124,-0.041 1.45407,-0.0628 2.23911,-0.0628 0.785046,-3e-5 1.629226,0.0219 2.435286,0.0628 z"
     id="path5118" /><path
     id="path5120"
     style="fill:#000000;stroke:none;stroke-width:0.132292;stroke-linejoin:miter;stroke-miterlimit:100;stop-color:#000000"
     d="m 101.12081,52.043771 c 1.45683,0.003 2.91164,0.10888 4.35347,0.3174 l -0.58337,4.08485 c 1.26276,0.17867 2.49656,0.44614 3.69594,0.79519 l 1.15203,-3.95254 c 1.39802,0.40895 2.7653,0.91652 4.09152,1.51888 l -1.69729,3.74672 c 1.1534,0.52356 2.2631,1.12692 3.32174,1.80287 l 2.21048,-3.47009 c 1.22803,0.78279 2.39901,1.65166 3.50417,2.60006 l -2.68026,3.12394 c 0.9572,0.82204 1.85551,1.71061 2.6876,2.65886 l 3.09588,-2.715 c 0.96078,1.094 1.84282,2.25471 2.63948,3.47343 l -3.4487,2.25058 c 0.6875,1.05159 1.30291,2.15483 1.83895,3.30236 l -3.75007,1.74873 c -0.45298,-0.96972 -0.97262,-1.90186 -1.55361,-2.7905 -3.07199,2.28613 -6.55189,2.24746 -7.49212,1.38189 -0.94022,-0.86557 -1.12759,-1.63495 -1.73737,-2.0735 -0.60979,-0.43855 -1.61254,-0.65652 -2.87125,-1.13206 -1.2587,-0.47553 -1.50308,-1.43513 -3.14085,-1.78817 -1.63776,-0.35303 -2.61281,0.35054 -3.91359,0.26648 -1.300746,-0.0841 -2.336566,-0.33001 -3.144086,-0.16816 -0.80751,0.16186 -1.22465,0.772 -2.43834,1.17207 -1.2137,0.40007 -4.39798,-1.00141 -6.2519,-4.35147 -0.90022,0.57476 -1.75752,1.21071 -2.56464,1.90377 l -2.69361,-3.13999 c 0.95504,-0.82003 1.96987,-1.57247 3.03508,-2.25257 l -2.22184,-3.48812 c 1.22938,-0.78221 2.51268,-1.47624 3.84027,-2.07684 l 1.70397,3.76009 c 1.1411,-0.51791 2.32547,-0.95596 3.54559,-1.31105 l -1.15602,-3.96657 c 1.39911,-0.40701 2.82533,-0.71428 4.26793,-0.91948 l 0.58404,4.09019 c 1.23194,-0.17433 2.49071,-0.26528 3.770776,-0.26528 z" /><path
     id="path5122"
     style="font-variation-settings:normal;fill:#000000;fill-opacity:1;stroke:none;stroke-width:0.132292;stroke-linecap:butt;stroke-linejoin:miter;stroke-miterlimit:10;stroke-dasharray:none;stroke-dashoffset:0;stroke-opacity:1;stop-color:#000000"
     d="m 84.557154,10.908483 c 1.28908,0.0057 2.57731,0.06772 3.861,0.185767 l -0.29803,3.411945 c 1.18731,0.104146 2.36669,0.260163 3.53489,0.46642 l 0.59339,-3.363834 c 1.26899,0.225009 2.52755,0.505262 3.77211,0.839956 l -0.88339,3.296343 c 1.14913,0.30822 2.2837,0.666364 3.40058,1.073167 l 1.16873,-3.210812 c 1.212466,0.437808 2.405266,0.928305 3.574986,1.470091 l -1.4487,3.106568 c 1.07624,0.502139 2.13146,1.051494 3.16269,1.647169 l 1.72268,-2.984283 c 1.11354,0.649567 2.19821,1.347414 3.25091,2.091537 l -1.96725,2.809207 c 0.97067,0.67999 1.91464,1.40389 2.82859,2.17106 l -2.21182,2.63614 c -0.83267,-0.69985 -1.69651,-1.36434 -2.58869,-1.99064 -3.25661,5.375207 -7.734216,6.196467 -12.142956,6.300677 l -8.63543,-3.594377 -2.33745,-3.13262 c -4.02997,-2.56807 -5.02762,-6.738035 -5.45403,-9.156662 l -0.59873,-3.396576 c 1.2697,-0.223614 2.54857,-0.391721 3.83293,-0.503841 l 0.30002,3.429988 c 1.18421,-0.105386 2.37295,-0.159277 3.56297,-0.161042 z" /><path
     id="path5124"
     style="color:#000000;fill:#ffffff;stroke-width:1;stroke-miterlimit:10;-inkscape-stroke:none"
     d="m 82.467624,21.504634 0.32543,0.10357 c 1.53675,0.48305 3.05242,1.03141 4.54124,1.6465 l 0.31808,0.13165 -1.30571,3.15133 c 1.18108,0.49858 2.34506,1.04087 3.48812,1.62645 l 1.57299,-3.02303 0.30338,0.15904 c 1.42727,0.74639 2.82291,1.55444 4.17974,2.42229 l 0.28532,0.18444 -1.87569,2.944187 c -0.13792,0.005 -0.27586,0.0104 -0.41363,0.0141 l 1.81822,-2.853987 c -1.34844,-0.86252 -2.73387,-1.66583 -4.15233,-2.40761 l -1.56698,3.010337 c -1.33381,-0.694357 -2.6955,-1.330187 -4.08151,-1.904427 l 1.2997,-3.13736 c -1.47963,-0.61129 -2.98524,-1.15775 -4.51251,-1.63781 l -0.52924,1.67924 c -0.0981,-0.074 -0.19436,-0.14849 -0.28799,-0.22452 z" /><path
     id="path5126"
     style="color:#000000;fill:#ffffff;stroke-width:1;stroke-miterlimit:10;-inkscape-stroke:none"
     d="m 81.004894,10.709492 0.1744,1.982617 c -0.10099,0.120205 -0.20571,0.23847 -0.31339,0.354159 l -0.17174,-1.965244 c -1.28436,0.112124 -2.56323,0.280226 -3.83293,0.50384 l 0.59873,3.396577 c 0.005,0.02903 0.0116,0.06134 0.0167,0.09088 -0.11043,0.02925 -0.22143,0.05639 -0.33278,0.08153 -0.006,-0.03681 -0.0144,-0.0769 -0.0207,-0.112925 l -0.65887,-3.732692 0.33813,-0.06081 c 1.2795,-0.225347 2.56738,-0.394865 3.86166,-0.50785 z" /><path
     id="path5128"
     style="color:#000000;fill:#ffffff;stroke-width:1;stroke-miterlimit:10;-inkscape-stroke:none"
     d="m 99.560764,29.537341 c 0.36999,-3e-5 0.753256,0.005 1.139326,0.0147 -0.26047,0.1209 -0.5235,0.2313 -0.788496,0.33144 -0.11716,-9.3e-4 -0.23526,-0.003 -0.35016,-0.003 -0.78505,0 -1.49798,0.0219 -2.23922,0.0628 l 0.0294,0.62011 c -0.11328,0.0193 -0.22654,0.0378 -0.34013,0.0548 l -0.0474,-0.99766 0.33879,-0.02 c 0.74661,-0.0413 1.46653,-0.0628 2.25793,-0.0628 z" /><path
     id="path5130"
     style="color:#000000;fill:#ffffff;stroke-width:1;stroke-miterlimit:100;-inkscape-stroke:none"
     d="m 85.620304,60.749361 c 0.11237,0.0569 0.21857,0.11431 0.32008,0.17173 -0.75931,0.52588 -1.49016,1.08912 -2.1891,1.68927 l 2.6936,3.13997 c 0.80712,-0.69305 1.66441,-1.32901 2.56465,-1.90376 0.9948,1.79765 2.37217,3.03315 3.6231,3.73135 0.17591,0.21901 0.35115,0.43568 0.52723,0.64885 -0.31166,-0.13576 -0.63471,-0.30428 -0.96425,-0.50517 -1.14406,-0.69749 -2.32183,-1.85538 -3.25491,-3.39925 -0.79049,0.52039 -1.55794,1.073 -2.27329,1.68726 l -0.25994,0.22452 -3.13931,-3.65986 0.25994,-0.22452 c 0.66602,-0.57188 1.3684,-1.10027 2.0922,-1.60039 z m 17.143916,6.19376 c 0.042,0.10681 0.0892,0.21341 0.143,0.32008 -0.0556,0.0103 -0.11146,0.0203 -0.16705,0.0314 -0.5963,0.11832 -1.20197,0.28622 -1.91914,0.23988 -0.36585,-0.0237 -0.70444,-0.0573 -1.024386,-0.0916 -0.005,-0.11767 -0.003,-0.23344 0.005,-0.34615 0.328306,0.037 0.671976,0.0736 1.042426,0.0976 0.68208,0.0441 1.27499,-0.12814 1.92048,-0.25125 z m 5.40927,1.87303 c 1.1283,0.40673 2.03192,0.62602 2.59605,1.03173 0.31285,0.22501 0.51524,0.53796 0.76444,0.90545 -0.0729,0.0662 -0.15543,0.13948 -0.25927,0.22585 -0.0138,-0.0204 -0.03,-0.0429 -0.0435,-0.0628 -0.24186,-0.35724 -0.42015,-0.61689 -0.66153,-0.7905 -0.50589,-0.36383 -1.49943,-0.60403 -2.77046,-1.08253 0.13445,-0.0866 0.25868,-0.16086 0.37421,-0.22719 z" /><path
     id="path5132"
     style="color:#000000;fill:#ffffff;stroke-width:1;stroke-miterlimit:10;-inkscape-stroke:none"
     d="m 93.160534,30.045181 0.4898,3.42198 c 1.13563,-0.18278 2.28097,-0.3153 3.43133,-0.39292 0.13399,0.10022 0.26812,0.20032 0.40159,0.30137 -1.38426,0.0789 -2.76046,0.23608 -4.1236,0.46842 l -0.4878,-3.40394 c -1.48638,0.25031 -2.94769,0.58224 -4.3802,0.99233 l 0.80923,3.33911 c -1.33692,0.38462 -2.65494,0.84391 -3.9492,1.37653 l -1.12263,-3.23486 c -1.40172,0.57617 -2.76866,1.22906 -4.09687,1.95389 l 1.42199,3.09187 c -0.36291,0.19793 -0.72204,0.40406 -1.07985,0.61409 -0.23006,0.0198 -0.46238,0.0271 -0.69629,0.0221 0.44269,-0.26503 0.88932,-0.52149 1.33845,-0.77114 l -1.43,-3.10389 0.28065,-0.15436 c 1.33905,-0.73074 2.71819,-1.38898 4.13163,-1.96992 l 0.33612,-0.13631 1.12862,3.25289 c 1.09562,-0.43887 2.20596,-0.82693 3.33176,-1.16136 l -0.81322,-3.35649 0.31539,-0.0909 c 1.44475,-0.41361 2.91794,-0.74791 4.41695,-1.00035 z m 0.30738,14.62072 0.02,0.0103 c -0.059,0.0264 -0.11818,0.0547 -0.17842,0.0842 -0.0602,0.0295 -0.12168,0.0603 -0.18376,0.0936 v -6.7e-4 c -0.006,-0.003 -0.0116,-0.006 -0.0173,-0.009 0.006,-0.003 0.0116,-0.006 0.0173,-0.009 0.11716,-0.0628 0.23048,-0.11857 0.34213,-0.16905 z m -14.26912,-5.29519 c 1.55708,0.36253 3.10039,0.78541 4.62277,1.27363 l 0.32275,0.10629 -1.02239,3.25024 c 1.3153,0.42479 2.61457,0.898 3.89442,1.41997 l 1.30569,-3.15468 0.31541,0.13098 c 1.57941,0.65551 3.13052,1.37907 4.64683,2.16971 l 0.2038,0.10694 c -0.11793,0.0528 -0.23811,0.11121 -0.36218,0.17775 -0.006,0.004 -0.0116,0.006 -0.0181,0.0104 -1.50182,-0.78244 -3.03666,-1.49985 -4.60071,-2.149 l -1.30103,3.13997 a 55.051201,55.051201 0 0 0 -4.50984,-1.64516 l 1.02038,-3.23621 c -1.61885,-0.51916 -3.25954,-0.96761 -4.91745,-1.34379 0.13249,-0.0869 0.26628,-0.17141 0.39959,-0.2566 z" /><path
     id="path5134"
     style="color:#000000;fill:#ffffff;stroke-width:1;stroke-miterlimit:10;-inkscape-stroke:none"
     d="m 96.839094,44.463431 c 0.7468,0.11638 1.60487,0.24724 2.72367,0.24724 0.26017,0 0.502676,-0.009 0.737056,-0.0213 -0.0116,0.12064 -0.0286,0.23655 -0.0487,0.34546 -0.21981,0.0103 -0.446756,0.0173 -0.688266,0.0173 -1.19864,0 -2.1157,-0.14583 -2.88471,-0.26594 0.0604,-0.11147 0.11366,-0.21955 0.16104,-0.32276 z m 9.383186,0.49382 c 1.0583,0.58576 1.80576,1.11627 2.61809,1.42532 -0.0917,0.0893 -0.18292,0.17704 -0.2733,0.2606 -0.0295,-0.0116 -0.0596,-0.0226 -0.0888,-0.0354 -0.80742,-0.35088 -1.53872,-0.87267 -2.54926,-1.42265 0.098,-0.0697 0.19589,-0.14464 0.29335,-0.22786 z" /><path
     id="path5136"
     style="color:#000000;fill:#ffffff;stroke-width:1;stroke-miterlimit:100;-inkscape-stroke:none"
     d="m 97.054934,51.969581 0.35282,2.46641 c -0.10241,0.0864 -0.2048,0.17255 -0.30738,0.2586 l -0.33411,-2.33878 c -1.4426,0.2052 -2.86882,0.51246 -4.26795,0.91948 l 1.15603,3.96656 c -1.22012,0.3551 -2.40449,0.79316 -3.54559,1.31107 l -1.70397,-3.7601 c -1.32758,0.6006 -2.61089,1.29464 -3.84027,2.07684 l 2.22184,3.48813 c -0.0894,0.057 -0.178,0.11573 -0.26663,0.17372 -0.11986,-0.0418 -0.23913,-0.0904 -0.35883,-0.14634 0.0555,-0.0369 0.11004,-0.075 0.16572,-0.11159 l -2.2352,-3.50817 0.29067,-0.18376 c 1.24302,-0.79089 2.53938,-1.49429 3.88171,-2.10155 l 0.31072,-0.139 1.71466,3.7808 c 0.95526,-0.41867 1.93875,-0.78375 2.94754,-1.0912 l -1.16205,-3.98795 0.32811,-0.0956 c 1.41464,-0.41154 2.85543,-0.72202 4.31404,-0.9295 z" /><path
     id="path4067"
     style="color:#000000;fill:#ffffff;stroke-width:1;stroke-miterlimit:10;-inkscape-stroke:none"
     d="m 60.212881,95.964061 c 0.79343,0.80139 1.03134,1.93465 0.86233,3.01927 v 5.170329 c -0.74674,1.01949 -1.49309,2.03924 -2.24018,3.05847 -0.38321,-0.46234 -0.80981,-0.89616 -1.10114,-1.42442 -0.78618,0.13838 0.13453,0.61373 0.28669,0.95495 1.05661,1.26457 0.43694,2.96724 0.61177,4.45026 -0.0393,1.02454 0.17646,2.24462 -0.78638,2.91686 -0.44927,0.261 -1.31463,1.69255 -0.43788,1.02253 0.3652,-0.70641 1.39338,-1.40245 2.00025,-0.56825 0.41236,1.03071 1.35948,1.82448 1.43199,2.99027 -1.06877,1.01921 -1.79188,2.54033 -3.26303,3.07613 -1.82078,0.30076 -3.78993,-0.27569 -5.510175,0.50658 -0.376158,0.34369 -1.552325,0.88913 -1.036093,1.35982 0.788678,-1.06748 2.121302,-1.60761 3.428298,-1.43731 1.56859,-0.0851 3.50903,0.39585 4.624,-1.03997 1.38231,-1.38579 2.55364,-2.99637 3.91636,-4.37711 1.06926,-0.62615 1.72357,0.73044 2.25069,1.42142 0.68817,0.67839 0.77533,1.70861 0.3759,2.55634 -0.33212,1.1281 0.0806,2.24917 0.17932,3.36153 -0.0201,0.91531 -1.02157,1.59191 -0.50764,2.51042 0.2816,0.52213 -0.37107,1.24089 0.027,1.56339 0.45559,-0.27175 0.37918,-1.23397 0.27358,-1.79826 -0.41304,-0.77768 0.59585,-1.24295 0.51995,-2.03828 0.12598,-1.13876 -0.51626,-2.21426 -0.16576,-3.34473 0.0603,-1.98672 1.61734,-3.36877 2.64618,-4.91626 1.900193,1.80491 3.387823,4.01521 5.361773,5.73556 0.9525,0.44036 1.98888,0.40284 3.02534,0.3649 1.03648,-0.0379 1.67979,-0.3683 0.81747,-0.35732 -0.86234,0.0103 -1.74023,0.095 -2.57942,-0.0345 -1.56502,-0.0284 -2.34039,-1.61531 -3.3154,-2.60283 -0.92145,-0.56434 -0.41659,-1.25641 0.0798,-1.94468 0.50075,-0.82397 1.0012,-1.64812 1.50241,-2.47181 0.61994,0.47541 1.13682,1.27992 1.66689,1.72244 0.62278,-0.30884 -0.50027,-0.80419 -0.63141,-1.1365 -0.82677,-0.68782 -0.96933,-1.75863 -0.85111,-2.76802 0.0427,-1.36738 -0.18406,-2.83377 0.20205,-4.13435 0.26392,-0.33861 1.34966,-1.70089 0.63392,-1.33855 -0.22842,0.43771 -1.03931,1.00217 -1.03931,1.00217 0,0 -0.93906,-0.77427 -1.13773,-1.25221 -0.64871,-0.87062 -1.39234,-1.86802 -1.1163,-3.02866 v -5.560789 c 0.74042,-1.01764 1.48506,-2.03222 2.22755,-3.04836 0.39551,0.4573 0.83698,0.88665 1.12134,1.42442 0.7888,-0.19382 -0.29964,-0.71636 -0.40331,-1.13246 -0.91035,-1.18376 -0.34923,-2.72567 -0.49579,-4.08586 0.0556,-1.23406 -0.10913,-2.54189 0.0778,-3.73201 1.33063,-1.55449 1.96449,-3.52722 2.9704,-5.28112 0.23419,-0.74044 0.28404,-1.58461 0.89418,-2.17463 -0.46397,-0.46924 -0.82076,0.70459 -1.04558,1.086 0.11444,1.02062 -0.76336,1.79557 -1.07073,2.73441 -0.55825,1.2252 -1.2361,2.38694 -1.99025,3.50121 -0.66637,-1.29317 -1.83922,-2.15652 -2.28564,-3.58126 v -6.63718 c 0.74043,-1.01765 1.48507,-2.03222 2.22756,-3.04836 0.3955,0.4573 0.83698,0.88664 1.12134,1.42442 0.7888,-0.19384 -0.29965,-0.71637 -0.40332,-1.13248 -0.92126,-1.20932 -0.33846,-2.77343 -0.49648,-4.16157 0.0392,-1.27406 -0.12827,-2.62237 0.17749,-3.84598 0.65925,-1.05904 1.34487,-2.10309 2.15935,-3.05088 1.07657,0.21109 1.72392,1.17143 2.65942,1.62141 0.90122,0.074 1.99343,-0.78555 2.69983,0.17174 0.59154,0.43949 1.18594,0.87467 1.77042,1.3234 0.48849,-0.44659 -0.71677,-0.75169 -0.97161,-1.16469 -0.67692,-0.42316 -1.43678,-1.43827 -2.30315,-0.89772 -0.7754,0.42787 -1.6539,0.0803 -2.17541,-0.56418 -0.65649,-0.54033 -1.84477,-1.18066 -2.3926,-0.15118 -0.6872,0.82241 -1.22403,1.75646 -1.83266,2.63634 -0.68387,-1.17627 -1.84422,-2.12965 -2.24018,-3.4373 v -3.96009 c -0.7176,-0.0975 -0.18607,1.19917 -0.33845,1.70011 -0.08,1.18941 0.29512,2.60699 -0.67004,3.52273 -0.548173,0.7496 -1.095623,1.49971 -1.645873,2.24779 -0.63381,-1.32277 -2.06425,-2.26125 -2.24776,-3.77118 v -3.69945 c -0.71413,-0.095 -0.18356,1.20011 -0.33593,1.70011 -0.0802,1.18927 0.29558,2.60731 -0.67053,3.52237 -0.54903,0.74958 -1.09763,1.49948 -1.64791,2.24815 -0.63739,-1.31895 -2.06187,-2.25995 -2.24523,-3.76866 v -3.70197 c -0.085,0.0177 -0.2972,-0.0698 -0.34095,-0.0103 l 10e-6,2.6e-4 c -0.0952,1.52442 0.21935,3.14504 -0.2071,4.60411 -0.67594,0.92273 -1.35118,1.84595 -2.02803,2.76802 -0.90377,-1.01655 -1.33162,-2.52673 -2.5887,-3.17716 -1.18548,0.003 -1.9251,1.26728 -2.963391,1.52893 -0.698995,-0.10771 -1.231928,-0.27499 -0.88161,0.0423 0.350321,0.31733 1.662721,0.34845 2.148231,-0.36092 0.59943,-0.61983 1.78209,-1.19855 2.35847,-0.23045 0.82261,1.23066 2.00964,2.4654 1.70981,4.0803 v 5.53201 c -0.23148,0.59886 -1.39511,1.30063 -0.95214,1.82599 0.19424,-0.56111 1.18976,-1.2865 1.18976,-1.2865 0,0 0.71782,0.7351 0.90646,1.06424 0.67812,0.97234 1.61617,2.00785 1.30824,3.29889 v 5.55827 c -0.74674,1.01949 -1.49309,2.03925 -2.24018,3.05847 -0.38321,-0.46234 -0.80981,-0.89616 -1.10114,-1.42443 -0.78618,0.13838 0.13453,0.61374 0.28669,0.95495 0.54102,0.66409 0.68829,1.52948 0.65548,2.36739 l 0.2903,-0.12039 v -1.37332 c 0.75723,-1.0404 1.51813,-2.07813 2.27806,-3.11656 l 0.5531,0.75514 c 0.54903,0.839 1.30613,1.61009 1.72749,2.49073 v 6.87155 c -0.77126,1.05307 -1.54026,2.10781 -2.31342,3.15949 -0.63739,-1.31894 -1.76251,-2.3241 -2.24523,-3.12717 -0.0422,-0.70811 -0.046,-2.12916 -0.35944,-2.33358 v -2e-5 c 0.0234,1.14441 0.0436,2.61254 0.0436,2.61254 0,0 1.19726,1.1845 1.56242,1.96245 z m 1.58463,-32.56292 c 0.54903,0.83898 1.30613,1.61009 1.72749,2.49071 v 6.87156 c -0.77126,1.05308 -1.54026,2.10781 -2.31342,3.15948 -0.65635,-1.26779 -1.81187,-2.11866 -2.24523,-3.52316 v -6.63719 c 0.75723,-1.04039 1.51813,-2.07812 2.27806,-3.11654 z m 4.8996,0 c 0.54892,0.83819 1.30652,1.60815 1.72749,2.48819 v 6.87661 c -0.77109,1.05236 -1.54091,2.10564 -2.31342,3.15695 -0.63739,-1.31894 -2.06187,-2.25993 -2.24523,-3.76864 v -6.39171 c 0.75723,-1.04039 1.51813,-2.07812 2.27806,-3.11654 z m 4.902123,0.003 c 0.54799,0.83738 1.30491,1.6065 1.72497,2.48567 v 6.87662 c -0.77032,1.05146 -1.53899,2.10413 -2.31089,3.15443 -0.65499,-1.26831 -1.813093,-2.11593 -2.245233,-3.52065 v -6.63971 c 0.75943,-1.03711 1.518383,-2.07457 2.278063,-3.11149 0.18437,0.25171 0.36873,0.50342 0.55309,0.75513 z m -7.351923,10.46091 c 0.54893,0.83819 1.30652,1.60815 1.72749,2.48819 v 6.8766 c -0.77109,1.05236 -1.54091,2.10564 -2.31342,3.15696 -0.63739,-1.31894 -2.06187,-2.25993 -2.24523,-3.76864 v -6.39171 c 0.75723,-1.04039 1.51813,-2.07812 2.27806,-3.11655 0.18437,0.25171 0.36874,0.50344 0.5531,0.75515 z m 4.90213,0 c 0.53275,0.87503 1.412213,1.63609 1.724973,2.58365 v 6.77862 c -0.76811,1.05476 -1.538723,2.10771 -2.310903,3.15948 -0.63381,-1.32276 -2.06425,-2.26125 -2.24776,-3.77118 v -6.38917 c 0.76039,-1.03871 1.51967,-2.07823 2.28059,-3.11655 0.18436,0.25171 0.36873,0.50344 0.5531,0.75515 z m -2.45233,10.46341 c 0.54892,0.8382 1.30652,1.60817 1.72749,2.48819 v 6.87662 c -0.77109,1.05235 -1.54091,2.10564 -2.31342,3.15696 -0.63739,-1.31894 -2.06187,-2.25995 -2.24523,-3.76866 v -6.39169 c 0.75723,-1.0404 1.51813,-2.07813 2.27806,-3.11656 z m 4.902123,0.003 c 0.54799,0.83738 1.30491,1.6065 1.72497,2.48565 v 6.87662 c -0.77032,1.05146 -1.53899,2.10413 -2.31089,3.15443 -0.65499,-1.2683 -1.813093,-2.11592 -2.245233,-3.52063 v -6.63972 c 0.75943,-1.03711 1.518383,-2.07456 2.278063,-3.1115 0.18437,0.25171 0.36873,0.50344 0.55309,0.75515 z m -17.042523,2.57355 c 0.83357,0.85919 1.65943,1.80815 2.49779,2.61143 0.6178,-0.28233 -0.46765,-0.66734 -0.56573,-1.06326 -0.5531,-0.58677 -1.1062,-1.17355 -1.6593,-1.76032 -0.0909,0.0707 -0.18184,0.14143 -0.27276,0.21215 z m 9.6906,7.88734 c 0.54893,0.83819 1.30652,1.60815 1.72749,2.48819 v 6.876619 c -0.77109,1.05235 -1.54091,2.10564 -2.31342,3.15695 -0.63739,-1.31894 -2.06187,-2.25994 -2.24523,-3.76865 v -6.391709 c 0.75723,-1.04039 1.51813,-2.07812 2.27806,-3.11654 z m 4.90213,0 c 0.53275,0.87504 1.412213,1.63611 1.724973,2.58366 v 6.778609 c -0.76811,1.05476 -1.538723,2.10771 -2.310903,3.15949 -0.63381,-1.32277 -2.06425,-2.26124 -2.24776,-3.77117 v -6.389189 c 0.76039,-1.0387 1.51967,-2.07823 2.28059,-3.11654 z m -7.35193,10.463429 c 0.54903,0.83898 1.30613,1.61008 1.72749,2.49071 v 6.90944 c -0.84252,0.53153 -1.28512,2.13106 -2.50789,1.69466 -0.6143,-0.45718 -0.87933,-1.31397 -1.36688,-1.92921 -0.70375,-0.91233 -0.75104,-2.04628 -0.67991,-3.14817 0.0389,-1.30439 -0.16609,-2.70124 0.20313,-3.94142 0.69026,-0.94377 1.37977,-1.88807 2.07096,-2.83116 0.18437,0.25171 0.36874,0.50343 0.5531,0.75515 z m 4.8996,0 c 0.54892,0.83819 1.30652,1.60815 1.72749,2.48819 v 6.87661 c -0.77109,1.05234 -1.54091,2.10563 -2.31342,3.15695 -0.63739,-1.31894 -2.06187,-2.25993 -2.24523,-3.76864 v -6.39171 c 0.75723,-1.04039 1.51813,-2.07813 2.27806,-3.11655 0.18437,0.25171 0.36874,0.50343 0.5531,0.75515 z m 4.902123,0.003 c 0.54786,0.83835 1.30694,1.60666 1.72497,2.48819 -0.0797,1.91279 0.16927,3.87962 -0.149,5.75807 -0.7316,1.20592 -1.46273,2.41217 -2.19726,3.61633 -0.60973,-1.10693 -2.003483,-1.72179 -2.209863,-3.03573 v -6.4705 c 0.75943,-1.03711 1.518383,-2.07457 2.278063,-3.1115 0.18437,0.25172 0.36873,0.50343 0.55309,0.75514 z" /><path
     style="font-variation-settings:normal;fill:#e90606;fill-opacity:1;stroke:none;stroke-width:0.132292;stroke-linecap:butt;stroke-linejoin:miter;stroke-miterlimit:10;stroke-dasharray:none;stroke-dashoffset:0;stroke-opacity:1;stop-color:#000000"
     d="m 28.87316,104.27159 c -0.06048,-0.0151 -1.345693,-0.60482 -3.96148,-0.65016 -2.615787,-0.0454 -4.218525,1.42128 -6.77383,1.76905 -2.555308,0.34776 -3.931243,-1.20961 -3.931243,-1.20961 0,0 -0.604804,1.54225 1.753941,2.67627 2.358744,1.13401 6.788948,-0.13609 6.788948,-0.13609 0,0 4.641889,-0.93745 6.123664,-2.44946 z"
     id="path8823" /><path
     id="path11966"
     style="font-variation-settings:normal;fill:#ffffff;fill-opacity:1;stroke:none;stroke-width:0.132292;stroke-linecap:butt;stroke-linejoin:miter;stroke-miterlimit:10;stroke-dasharray:none;stroke-dashoffset:0;stroke-opacity:1;stop-color:#000000"
     d="m 21.972334,106.91218 c 0.48042,-0.10616 0.776921,-0.19109 0.776921,-0.19109 -0.566631,-0.77686 -1.544434,-1.35951 -2.150342,-2.01202 -0.150569,0.0574 -0.302375,0.11405 -0.456127,0.16886 z" /><path
     style="font-variation-settings:normal;fill:#000000;fill-opacity:1;stroke:none;stroke-width:0.132292;stroke-linecap:butt;stroke-linejoin:miter;stroke-miterlimit:10;stroke-dasharray:none;stroke-dashoffset:0;stroke-opacity:1;stop-color:#000000"
     d="m 20.572185,107.92991 c -0.271096,0.45492 0.09939,1.34666 1.047766,1.24022 1.990886,1.05971 3.534096,0.34309 5.3244,1.24021 0,0 0.513195,-0.51319 0.149681,-1.34713 0,0 1.625125,-0.14968 2.694281,0.55597 0.344083,-0.77928 0.0307,-1.34783 -0.957941,-1.89684 1.546166,0.14496 2.540909,0.64652 3.459768,1.31949 1.115849,0.81724 2.140461,1.10417 3.421301,1.21884 l 0.04276,-0.96224 c 0,0 2.950872,1.41129 5.1961,1.2616 2.245229,-0.14969 3.848965,-1.30437 3.848965,-1.30437 l 1.090539,1.06916 c 0,0 1.197455,-0.5132 0.983624,-1.77481 -0.213831,-1.2616 -1.903099,-1.005 -1.903099,-1.005 0,0 0.855326,-1.28299 1.924482,-1.90311 0.0106,0.79453 -0.01293,1.31831 0.76979,1.71066 0,0 1.20409,-0.70216 0.96224,-2.28799 -0.241505,-1.58359 -1.441695,-2.22098 -3.314384,-2.11693 0,0 0.898091,-1.09055 1.240221,-2.1597 0.599266,0.41358 0.450331,0.93151 1.111929,1.36852 0,0 1.39645,-0.79118 0.662877,-2.544599 -0.733572,-1.75341 -3.592366,-1.32575 -3.592366,-1.32575 0,0 0.898093,-0.89809 1.047774,-2.07416 1.154081,0.0308 1.305608,0.92892 2.587359,1.00501 0,0 0.748409,-1.51821 -0.577345,-2.52321 -1.325754,-1.00502 -3.186086,-0.57735 -3.186086,-0.57735 0,-0.6332 1.36852,-0.8241 1.218839,-2.05278 0,0 1.261604,-1.19746 1.197454,-2.58736 -0.06415,-1.3899 -1.154688,-1.32575 -1.154688,-1.32575 0,0 0.235214,-1.43267 -0.598728,-1.92448 0,0 -1.111923,0.85532 -1.539585,2.37353 0,0 0.08554,-2.20247 -0.919475,-2.97226 -0.510692,-1.33925 -1.41335,-2.42262 -2.865339,-2.41629 0,0 0.08554,1.36851 0.02139,2.9081 -0.408132,-2.70764 -1.398788,-3.89814 -3.314391,-3.72066 0,0 1.02639,2.82257 0.491813,4.12694 -0.534579,1.30437 -0.74841,1.62512 -0.449046,2.52321 0,0 -4.768438,1.34714 -5.923128,1.66789 -1.154689,0.32074 -1.518201,0.51319 -1.796182,0.8767 -0.277981,0.36352 -0.427662,1.17608 -0.74841,1.21884 -0.320747,0.0428 -3.399917,0.0213 -5.388549,0 -1.98863,-0.0213 -3.613749,0.47043 -4.490457,0.89809 0,0 -0.482652,-0.64257 -0.996739,-0.96009 -0.514084,-0.31752 -1.043289,0.1209 -1.043289,0.1209 0,0 -0.181443,-0.42335 -0.453606,-0.52919 -0.272162,-0.10591 -0.680407,0.24192 -0.680407,0.24192 0,0 -0.786248,-1.05842 -1.572496,-1.05842 -0.786248,0 -1.300333,0.75601 -1.254972,1.6481 0.04536,0.89209 1.844659,2.38898 1.844659,2.38898 0,0 0.287283,2.19243 0.498964,2.6914 0.211683,0.49896 0.771128,0.8316 0.771128,0.8316 0,0 -0.01512,0.54432 0.786248,0.74089 0.801369,0.196559 2.525066,0.272169 2.525066,0.272169 0,0 5.337416,0.19656 5.443257,0.19656 0.105839,0 0.90721,0.0756 0.90721,0.0756 0,0 0.393124,0.68042 1.738818,0.52921 1.345693,-0.1512 2.509946,0.80137 2.585546,1.85978 0.07559,1.05842 -0.650167,1.5725 -1.587617,1.85978 -0.937449,0.28728 -3.221029,1.08305 -5.448975,2.07033 z"
     id="path8748" /><path
     id="path8744"
     style="font-variation-settings:normal;fill:#e90606;fill-opacity:1;stroke:none;stroke-width:0.132292;stroke-linecap:butt;stroke-linejoin:miter;stroke-miterlimit:10;stroke-dasharray:none;stroke-dashoffset:0;stroke-opacity:1;stop-color:#000000"
     d="m 22.821422,96.483921 c -0.294063,0.003 -0.576694,0.0839 -0.82726,0.20915 0.47043,0.38488 1.208146,1.42198 0.823251,2.53391 -0.384897,1.111909 -1.945864,0.72702 -2.074164,-0.40629 -0.1283,-1.13331 -1.256017,-2.0615 -2.330761,-1.60373 -1.074749,0.45776 -1.627842,2.64875 -0.08554,4.191099 1.5182,1.51824 3.660002,0.98856 5.089185,-0.0213 1.603733,-1.1333 1.576445,-2.869609 1.069156,-3.806199 -0.507288,-0.93658 -1.102479,-1.10086 -1.663874,-1.09655 z m -3.874355,6.185739 c 0,0 -0.524842,0.96742 -0.171066,2.75842 0.342131,1.73203 1.710651,2.45906 1.796183,2.50183 0.08552,0.0428 0.598727,-0.42766 1.304371,-0.42766 0.705643,0 0.620111,-0.55597 0.534579,-0.81257 -0.08554,-0.2566 -1.240224,-1.06915 -1.924482,-1.81756 -0.68426,-0.74841 -0.791177,-2.07416 -1.539585,-2.20246 z" /><path
     id="path8900"
     style="font-variation-settings:normal;fill:#ffffff;fill-opacity:1;stroke:none;stroke-width:0.132292;stroke-linecap:butt;stroke-linejoin:miter;stroke-miterlimit:10;stroke-dasharray:none;stroke-dashoffset:0;stroke-opacity:1;stop-color:#000000"
     d="m 21.994162,96.693071 c 0.47043,0.38488 1.208153,1.42198 0.823251,2.53391 -0.120904,0.34927 -0.450295,0.69938 -1.139409,0.63746 0.843748,0.290329 1.610555,-0.28546 1.581,-1.36714 -0.02956,-1.08169 -0.870529,-1.86932 -1.264842,-1.80423 z m -3.581674,0.52389 c -1.074749,0.45776 -1.627842,2.64875 -0.08554,4.191099 0.403165,0.40317 0.850305,0.66193 1.316399,0.80563 -2.546024,-1.65448 -2.205664,-4.089309 -1.360305,-4.554279 -0.09411,0.79484 0.246056,2.665329 1.162712,3.241559 -0.6284,-1.065629 -0.986279,-2.266539 -0.705847,-3.786589 z m 0.95828,5.703249 c -0.1178,-0.13113 -0.254318,-0.22151 -0.423701,-0.25055 0,0 -0.524842,0.96742 -0.171066,2.75842 0.342131,1.73203 1.710651,2.45906 1.796183,2.50183 0,0 -1.127002,-1.04681 -1.45167,-2.60931 -0.324668,-1.56251 0.250254,-2.40039 0.250254,-2.40039 z m 2.206423,4.60341 c -0.994315,-1.01569 -2.020705,-2.38421 -2.020705,-2.38421 0,0 0.456237,1.57063 1.575255,2.52804 z" /><path
     id="path11883"
     style="color:#000000;fill:#ffffff;stroke-width:1;stroke-miterlimit:10;-inkscape-stroke:none"
     d="m 39.835043,85.390741 c -0.07505,0.81974 -0.411324,2.04266 -0.651517,2.6876 l -2.570653,0.69496 0.08219,0.2753 2.427654,-0.63147 c -0.157505,0.37127 -0.311314,0.97504 -0.479784,1.27029 -0.308609,0.54864 -0.773929,1.11948 -1.133306,1.59105 -0.112382,0.32291 0.03187,0.56439 0.254593,0.87136 0.108154,-0.2883 0.108348,-0.50683 0.128959,-0.77314 0.356882,-0.47446 0.760015,-1.02413 1.045769,-1.51753 0.208725,-0.36582 0.296326,-0.93037 0.54527,-1.60641 0.248945,-0.67605 0.406113,-1.29971 0.482457,-2.13364 z m 1.671226,2.65353 c -0.614964,2.86841 -1.381884,3.5703 -1.574334,5.2275 0.226528,-0.10048 0.411872,-0.0382 0.688938,-0.3408 0,0 0.602269,-1.93892 0.885396,-4.8867 z m -8.629429,4.75975 c -0.311885,7.8e-4 -0.489809,0.022 -0.489809,0.022 v 6.7e-4 l -0.16171,0.3682 c 0,0 0.666338,-0.0843 1.347806,-0.36085 -0.27368,-0.0235 -0.509158,-0.0305 -0.696287,-0.03 z m -2.938845,0.45639 c -0.188311,0.41565 -0.01571,0.5565 0.213832,0.67223 l 0.10624,-0.42165 c 0.137391,0.0211 2.222713,0.44294 3.846292,1.14935 -0.447072,0.20716 -2.53567,0.89341 -3.841613,1.55628 -0.177127,0.13226 -0.266201,0.18808 -0.245907,0.62613 0.308021,-0.22301 0.661511,-0.36832 1.010238,-0.50619 2.171562,-0.85849 4.201232,-1.73569 4.201232,-1.73569 -1.776247,-1.09776 -5.29032,-1.34046 -5.29032,-1.34046 z m -14.672837,0.0943 c 0,0 -0.327925,0.63304 0.136318,1.40661 -0.110327,-0.7989 -0.152648,-1.02405 -0.136318,-1.40661 z m 15.300967,0.36752 c -0.09754,0.0167 0.03542,0.26997 0.03542,0.26997 0,0 0.550157,0.1807 1.023049,0.39024 -0.05697,0.31122 0.0047,0.49424 0.06282,0.60875 -0.464817,0.18619 -0.916965,0.30977 -1.439351,0.78382 l 1.863672,-0.58936 c -0.182737,-0.21954 -0.160048,-0.48484 -0.166387,-0.69496 0.380823,0.10616 0.369852,0.0641 1.003671,0.20983 -0.01465,-0.12479 -0.01764,-0.22062 -0.104236,-0.27131 -0.648965,-0.37979 -1.881736,-0.65765 -2.25592,-0.70698 -0.0087,-10e-4 -0.01622,-10e-4 -0.02272,0 z m -14.877982,2.06681 c 0,0 -0.209461,1.39006 0.557882,2.35295 0.03883,0.0487 0.07469,0.0377 0.182513,0.0366 -0.544811,-1.05285 -0.740391,-2.38957 -0.740391,-2.38957 z m 14.057404,5.105219 c 0.484364,0.52078 0.757859,1.23754 0.747741,1.84029 -0.01009,0.60275 -0.164667,1.19579 -0.597391,1.75276 0.698474,-0.2619 0.965728,-1.01081 0.940858,-1.75276 -0.02487,-0.74195 -0.309018,-1.52775 -1.091208,-1.84029 z" /></svg>
