<?xml version="1.0" encoding="UTF-8" standalone="no"?>
<!-- Created with Inkscape (http://www.inkscape.org/) -->

<svg
   width="500"
   height="550"
   viewBox="0 0 132.29167 145.52083"
   version="1.1"
   id="svg5"
   xml:space="preserve"
   xmlns="http://www.w3.org/2000/svg"
   xmlns:svg="http://www.w3.org/2000/svg"><defs
     id="defs2" /><g
     style="clip-rule:evenodd;fill-rule:evenodd;stroke-width:0.997922;image-rendering:optimizeQuality;shape-rendering:geometricPrecision;text-rendering:geometricPrecision"
     id="g40383"
     transform="matrix(0.26513429,0,0,0.26513429,-0.34148902,-0.2626067)"><g
       id="Layer_x0020_1"
       style="stroke-width:0.997922">
  <metadata
   id="CorelCorpID_0Corel-Layer" />
  <path
   id="path1937"
   style="fill:#045cd2;fill-opacity:1;stroke:none"
   d="M 1.2879851,0.99046674 V 300.36706 c 0,137.78412 111.6963749,249.48049 249.4804949,249.48049 137.78413,1e-5 249.48049,-111.69636 249.48049,-249.48049 V 1.0294481 Z" />
  <path
   fill="#000066"
   d="m 257.148,540.584 c -11.2037,0 -18.8308,-16.0427 -17.9334,-29.1388 -30.583,0.84246 -23.2756,-20.4988 -27.3799,-38.1011 -1.90403,-8.16633 -12.0002,-25.8089 5.11654,-35.8917 -7.68416,-42.2241 3.21874,-58.5564 -1.82948,-71.3203 -4.96602,-12.5552 -25.1637,-15.0721 -22.3982,-50.8006 l -1.63701,-7.20284 c -59.9145,1.20047 -61.2241,-28.0474 -83.16,-38.6334 29.1388,-12.6595 37.9786,-14.5148 87.4163,6.87544 l 2.29181,-1.63701 c 1.52674,-6.00265 -2.07553,-5.12986 -1.30961,-8.51245 -4.69389,-0.7149 -9.57487,-4.78375 -20.035,-7.11468 -6.90208,-1.53808 -41.9003,-12.6386 -50.6741,-20.9727 -6.38476,-6.06529 -41.4346,-16.6609 -54.906,-44.4025 -8.34662,-17.1882 -20.7332,-43.3063 -24.5639,-54.0848 -5.22596,-14.7039 -8.17881,-35.9745 -8.42117,-54.0343 -0.200976,-14.9635 0.789449,-28.1098 3.75052,-30.6114 5.32914,-4.50255 1.06498,-9.16215 8.82851,-14.3595 25.5373,26.7378 12.7687,71.8101 33.0676,85.1245 16.5461,-13.9071 -0.779811,-46.8148 20.9537,-68.7544 12.9152,14.235 13.5216,39.9079 12.7298,49.218 -1.31698,15.4874 3.00274,62.8013 17.0637,67.337 17.134,-15.0605 -1.74614,-59.5871 21.6085,-76.612 24.0095,17.3523 9.05811,84.4696 28.1565,95.9287 7.72952,-2.83918 3.816,-4.08501 7.42961,-10.2594 9.91389,-16.9379 -3.62523,-31.6208 12.2145,-52.2743 35.2026,35.7024 1.51058,93.6069 19.6441,109.352 13.2061,2.61921 20.5192,-5.56583 31.7611,-5.56583 10.5605,0 19.8113,7.53024 31.6811,6.22063 22.4816,-24.446 -24.7734,-73.4471 16.3701,-108.37 14.8575,16.7247 4.26473,35.3361 14.1789,52.2743 3.61389,6.17471 1.99191,0.54482 5.4652,2.7292 18.4436,-11.1317 4.47449,-78.249 28.484,-93.9643 24.0095,20.6263 5.7841,65.8077 25.2099,76.612 14.061,-4.53572 14.3909,-48.2196 13.4623,-63.7356 -0.79228,-13.2398 4.39824,-46.442 12.7298,-50.5276 25.9897,24.5588 5.3898,56.1569 24.8825,66.1352 20.2989,-13.3143 5.89323,-68.8635 30.4484,-84.7971 25.1257,25.5121 8.53115,95.7107 0.88384,111.774 -5.26082,11.0503 -17.657,38.6958 -21.6173,45.2449 -11.2187,18.5511 -47.8661,38.6646 -54.2512,44.7299 -8.7738,8.33443 -46.063,17.1422 -52.9659,18.6809 -10.4607,2.33178 -16.6507,7.70939 -20.035,8.09689 0.76592,3.38258 0.76507,6.76602 0.65481,10.1495 l 1.63701,-0.98221 c 22.5907,-9.93119 63.8433,-24.7734 86.7615,-6.87544 -28.6954,13.4359 -31.5343,43.8835 -84.1422,43.217 v 1.63701 c 2.76548,35.7285 -16.7771,35.6258 -21.7434,48.1813 -5.04851,12.7641 7.16429,29.751 -0.51988,71.9751 17.1167,13.0295 7.05374,33.2269 5.44394,41.4576 -3.12321,15.9661 0.91134,33.0503 -24.7606,36.7915 1.41874,11.7865 -4.83903,29.7936 -16.0427,29.7936 z"
   id="path40172"
   style="fill:#033e8d;fill-opacity:1;stroke-width:0.995848" />
  <path
   fill="#bf9f4f"
   d="m 253.929,538.437 c -11.2037,0 -16.8664,-16.6975 -15.969,-29.7936 -30.583,0.84246 -24.2575,-22.7903 -28.3621,-40.3929 -1.90432,-8.16662 -12.9824,-22.8623 4.13433,-32.9451 -7.68416,-42.2241 5.83796,-64.7771 0.78973,-77.5409 -4.96602,-12.5552 -26.1459,-13.7625 -23.3805,-49.491 l -1.96441,-3.27402 c -53.3665,2.18268 -55.6583,-25.1008 -77.5942,-35.6868 28.8114,-11.6773 32.0854,-14.1874 81.523,7.20284 l 1.30961,-3.92882 c 1.52674,-6.00265 -1.74813,-8.40388 -0.9822,-11.7865 -4.69389,-0.7149 -8.26498,-3.47386 -18.7254,-5.80507 -6.90237,-1.53836 -43.5373,-10.6741 -52.3111,-19.0083 -6.38476,-6.06529 -41.434602,-16.6609 -54.906002,-44.4025 -8.34662,-17.1882 -20.7332,-43.3063 -24.5639,-54.0848 -5.22596,-14.7039 -8.17881,-35.9745 -8.42117,-54.0343 -0.200976,-14.9635 0.789449,-28.1095 3.75052,-30.6114 5.32942,-4.50255 1.71978,-6.87033 9.48331,-12.0677 18.9893,23.1364 10.1495,69.1909 30.4484,82.5052 16.5461,-13.9071 1.1846,-43.5407 22.918102,-65.4803 10.6234,11.2884 12.2122,36.9607 11.4202,46.2714 -1.31754,15.4877 2.02054,62.1465 16.0815,66.6822 17.134,-15.0605 1.20047,-55.0035 24.5551,-72.0284 18.1162,10.8043 7.42111,80.5408 26.5195,91.9999 7.72952,-2.83918 4.79821,-4.08501 8.41182,-10.2594 9.91389,-16.9379 -3.29783,-28.0194 12.5419,-48.6729 35.2026,35.7024 -2.74564,89.3506 15.3879,105.096 13.2061,2.61921 24.448,-4.91103 35.6899,-4.91103 10.5605,0 19.8113,7.53024 31.6811,6.22063 22.4816,-24.446 -23.4638,-69.8457 17.6797,-104.769 9.61909,10.8315 1.64523,31.7342 11.5597,48.6729 3.61446,6.175 6.57553,4.47364 10.0488,6.65802 18.4436,-11.1317 1.20047,-76.2846 25.2099,-91.9999 21.3902,18.9893 4.14709,59.5871 23.5729,70.3914 14.061,-4.53572 16.0282,-47.8919 15.0993,-63.4082 -0.79257,-13.2401 5.38044,-42.8406 13.712,-46.9262 21.7335,21.9396 3.42539,53.5377 22.9181,63.5159 20.2989,-13.3143 6.87544,-67.2265 31.4306,-83.16 20.8695,21.5833 10.8232,83.5966 3.17566,99.66 -5.26111,11.0506 -19.9485,48.1904 -23.9091,54.7396 -11.2187,18.5513 -47.8661,38.6646 -54.2512,44.7299 -8.7738,8.33443 -46.063,17.1422 -52.9659,18.6809 -10.4607,2.33178 -16.6507,7.70939 -20.035,8.09689 0.76592,3.38258 0.76507,6.76602 0.6548,10.1495 l 2.94662,3.27402 c 22.5907,-9.93119 56.6405,-25.7556 85.4519,-11.1317 -28.484,13.86 -30.121,41.7983 -83.4874,39.6156 l -1.30961,2.94662 c 2.76548,35.7285 -16.1221,36.6075 -21.0886,49.1636 -5.04907,12.7644 6.18208,33.6799 -1.50208,75.9039 17.1167,13.0295 6.72633,30.2803 5.11654,38.5109 -3.12321,15.9661 2.22095,33.3777 -23.451,37.1189 1.41874,11.7865 -4.83903,29.7936 -16.0427,29.7936 z"
   id="path40174"
   style="stroke-width:0.995848" />
  <path
   fill="#000066"
   d="m 240.54733,68.211 1.64069,-2.24788 c -3.71962,-2.29918 -13.7279,-11.012 -13.9323,-20.95 -0.23046,-11.2198 3.44778,-21.5212 17.5672,-18.6409 5.16303,1.05307 10.2047,-0.922394 16.827,-1.38841 15.1937,-1.0698 20.9404,10.158 19.7374,17.9603 -1.61887,10.5004 -9.36142,15.2187 -14.2716,25.2669 l 1.2291,0.702709 c 24.7045,-28.0174 42.5322,-15.1878 40.5255,-1.54091 -0.52724,3.58753 -1.2685,12.409 0.18198,18.9142 4.02605,18.053901 -29.9829,39.645401 -47.1773,8.00051 l -1.9525,0.299622 c 0.83339,25.805199 3.80268,41.701099 8.23352,52.520599 -9.61144,2.54268 -21.0215,2.35389 -30.6318,0.0796 4.01103,-16.8662 10.5596,-35.6896 10.3751,-56.751095 l -2.61751,-0.15789 c -29.321,35.539695 -49.2222,13.877595 -46.4482,-0.574866 0.66785,-3.4801 1.68095,-7.23402 -0.15448,-12.426 -4.88495,-13.8166 10.4964,-41.7291 40.8682,-9.06662 z"
   id="path40176"
   style="fill:#033e8d;fill-opacity:1;stroke-width:0.995848" />
  
  
  <path
   fill="#000066"
   d="m 94.747074,362.2672 1.64069,-2.24788 c -3.71962,-2.29918 -13.7279,-11.012 -13.9323,-20.95 -0.23046,-11.2198 3.44778,-21.5212 17.567196,-18.6409 5.16303,1.05307 10.2047,-0.92239 16.827,-1.38841 15.1937,-1.0698 20.9404,10.158 19.7374,17.9603 -1.61887,10.5004 -9.36142,15.2187 -14.2716,25.2669 l 1.2291,0.70271 c 24.7045,-28.0174 42.5322,-15.1878 40.5255,-1.54091 -0.52724,3.58753 -1.2685,12.409 0.18198,18.9142 4.02605,18.0539 -29.9829,39.6454 -47.1773,8.00051 l -1.9525,0.29962 c 0.83339,25.8052 3.80268,41.7011 8.23352,52.5206 -9.61144,2.54268 -21.0215,2.35389 -30.631796,0.0796 4.01103,-16.8662 10.559596,-35.6896 10.375096,-56.75109 l -2.61751,-0.15789 c -29.320996,35.53969 -49.222196,13.87759 -46.448196,-0.57487 0.66785,-3.4801 1.68095,-7.23402 -0.15448,-12.426 -4.88495,-13.8166 10.4964,-41.7291 40.8682,-9.06662 z"
   id="path41033"
   style="fill:#033e8d;fill-opacity:1;stroke-width:0.995848" /><path
   fill="#cccccc"
   d="m 91.600078,362.492 1.64069,-2.24788 c -3.71962,-2.29918 -13.9524,-13.9337 -14.1571,-23.8723 -0.231024,-11.2201 4.57144,-20.3976 18.6911,-17.517 5.163312,1.05335 8.856002,-0.0232 15.478302,-0.48926 15.1937,-1.0698 21.1652,8.13459 19.9622,15.9372 -1.61915,10.5004 -9.36142,15.2187 -14.2716,25.2669 l 1.2291,0.70271 c 24.7045,-28.0174 41.6333,-12.041 39.6264,1.60611 -0.52753,3.58781 -1.2685,11.7346 0.18198,18.2398 4.02605,18.0539 -29.7581,33.1265 -46.9525,1.48167 l -1.9525,0.29962 c 0.83339,25.8052 3.12832,45.5224 7.55915,56.342 l -25.236898,-0.14513 c 4.01103,-16.8662 6.51345,-35.24 6.32892,-56.3015 l -2.61751,-0.15789 c -29.321,35.5397 -49.2222,13.8776 -46.4482,-0.57487 0.667843,-3.4801 1.68123,-7.23374 -0.154488,-12.426 -4.88523,-13.8169 10.7212,-38.8069 41.093,-6.14438 z"
   id="path40182"
   style="fill:#cccccc;fill-opacity:1;stroke-width:0.995848" />
  
  <path
   fill="#000066"
   d="m 386.34758,362.2672 1.64069,-2.24788 c -3.71962,-2.29918 -13.7279,-11.012 -13.9323,-20.95 -0.23046,-11.2198 3.44778,-21.5212 17.5672,-18.6409 5.16303,1.05307 10.2047,-0.92239 16.827,-1.38841 15.1937,-1.0698 20.9404,10.158 19.7374,17.9603 -1.61887,10.5004 -9.36142,15.2187 -14.2716,25.2669 l 1.2291,0.70271 c 24.7045,-28.0174 42.5322,-15.1878 40.5255,-1.54091 -0.52724,3.58753 -1.2685,12.409 0.18198,18.9142 4.02605,18.0539 -29.9829,39.6454 -47.1773,8.00051 l -1.9525,0.29962 c 0.83339,25.8052 3.80268,41.7011 8.23352,52.5206 -9.61144,2.54268 -21.0215,2.35389 -30.6318,0.0796 4.01103,-16.8662 10.5596,-35.6896 10.3751,-56.75109 l -2.61751,-0.15789 c -29.321,35.53969 -49.2222,13.87759 -46.4482,-0.57487 0.66785,-3.4801 1.68095,-7.23402 -0.15448,-12.426 -4.88495,-13.8166 10.4964,-41.7291 40.8682,-9.06662 z"
   id="path41037"
   style="fill:#033e8d;fill-opacity:1;stroke-width:0.995848" /><path
   fill="#cccccc"
   d="m 383.20058,362.492 1.64069,-2.24788 c -3.71962,-2.29918 -13.9524,-13.9337 -14.1571,-23.8723 -0.23102,-11.2201 4.57144,-20.3976 18.6911,-17.517 5.16331,1.05335 8.856,-0.0232 15.4783,-0.48926 15.1937,-1.0698 21.1652,8.13459 19.9622,15.9372 -1.61915,10.5004 -9.36142,15.2187 -14.2716,25.2669 l 1.2291,0.70271 c 24.7045,-28.0174 41.6333,-12.041 39.6264,1.60611 -0.52753,3.58781 -1.2685,11.7346 0.18198,18.2398 4.02605,18.0539 -29.7581,33.1265 -46.9525,1.48167 l -1.9525,0.29962 c 0.83339,25.8052 3.12832,45.5224 7.55915,56.342 l -25.2369,-0.14513 c 4.01103,-16.8662 6.51345,-35.24 6.32892,-56.3015 l -2.61751,-0.15789 c -29.321,35.5397 -49.2222,13.8776 -46.4482,-0.57487 0.66785,-3.4801 1.68123,-7.23374 -0.15448,-12.426 -4.88523,-13.8169 10.7212,-38.8069 41.093,-6.14438 z"
   id="path40186"
   style="fill:#cccccc;fill-opacity:1;stroke-width:0.995848" />
  <path
   fill="#644d36"
   d="m 301.879,314.744 c -2.28756,4.53515 -11.823,-1.46948 -20.7955,4.58844 -5.37364,3.62835 -4.51673,11.1093 -9.30473,18.0026 l 2.77965,0.40139 0.32457,2.62318 c 7.01178,-7.24819 24.4588,1.59987 25.0608,-17.8577 l -3.03506,2.03868 c 0.46204,2.31251 -2.088,3.66605 -4.98756,5.27896 -3.97361,2.21017 -8.5218,1.62794 -6.59906,-3.66577 2.67988,-7.3783 -3.49739,-5.67922 10.0797,-7.09087 8.21367,-0.8538 6.42388,-3.21477 6.47717,-4.31887 z"
   id="path40188"
   style="stroke-width:0.995848" />
  <path
   fill="#644d36"
   d="m 200.444,316.652 c 4.8617,3.75194 14.2044,-0.82857 22.3566,6.30057 7.17109,6.27081 3.492,8.27122 8.28,15.1645 l -1.70617,0.0592 0.16328,1.69342 c -3.64536,-0.39798 -15.2861,5.61232 -25.7437,-13.8453 l 2.01033,0.0814 c -0.0746,2.40917 2.2011,3.1989 4.93881,4.78942 3.89084,2.26091 9.21232,3.19436 7.86756,-2.24617 -1.02132,-4.1332 -0.94309,-5.72996 -9.5916,-6.79777 -8.19411,-1.01197 -8.5218,-4.09521 -8.57509,-5.19931 z"
   id="path40190"
   style="stroke-width:0.995848" />
  <path
   fill="#644d36"
   d="m 256.875,299.434 c -3.98325,4.6389 -10.9684,3.87468 -19.3167,0.6548 3.76441,3.98466 16.3142,7.25868 19.3167,-0.6548 z"
   id="path40192"
   style="stroke-width:0.995848" />
  <path
   fill="#644d36"
   d="m 258.84,295.505 c -3.98325,4.20208 -12.9331,3.43786 -21.2811,0.6548 3.3823,3.60255 17.7868,6.76715 21.2811,-0.6548 z"
   id="path40194"
   style="stroke-width:0.995848" />
  <path
   fill="#644d36"
   d="m 259.495,290.594 c -3.98325,4.20208 -12.9331,3.43786 -21.2811,0.6548 3.3823,3.60255 17.7868,6.76715 21.2811,-0.6548 z"
   id="path40196"
   style="stroke-width:0.995848" />
  <path
   fill="#644d36"
   d="m 259.495,285.683 c -3.98325,4.20208 -12.9331,3.43786 -21.2811,0.6548 3.3823,3.60255 17.7868,6.76715 21.2811,-0.6548 z"
   id="path40198"
   style="stroke-width:0.995848" />
  <path
   fill="#644d36"
   d="m 261.459,280.772 c -3.98353,3.43786 -10.3144,3.43729 -18.6619,1.63701 3.3823,2.72948 15.1673,4.91188 18.6619,-1.63701 z"
   id="path40200"
   style="stroke-width:0.995848" />
  <path
   fill="#644d36"
   d="m 256.549,277.661 c -7.26974,1.36573 -8.68593,0.26986 -15.0613,-0.49039 2.54778,1.61688 9.89349,4.75342 15.0613,0.49039 z"
   id="path40202"
   style="stroke-width:0.995848" />
  <path
   fill="#644d36"
   d="m 256.712,272.586 c -5.59162,1.19764 -5.21972,1.07263 -13.2602,0.32797 3.75137,1.55821 9.78577,3.8058 13.2602,-0.32797 z"
   id="path40204"
   style="stroke-width:0.995848" />
  <polygon
   fill="#644d36"
   points="254.907,267.531 249.836,267.367 249.836,268.676 "
   id="polygon40206"
   style="stroke-width:0.995848" />
  <polygon
   fill="#644d36"
   points="254.58,261.479 249.509,261.316 249.509,262.624 "
   id="polygon40208"
   style="stroke-width:0.995848" />
  <polygon
   fill="#644d36"
   points="202.241,299.261 210.582,293.046 211.4,289.448 201.096,299.261 "
   id="polygon40210"
   style="stroke-width:0.995848" />
  <path
   fill="#644d36"
   d="m 201.259,294.355 c 3.24425,-2.64473 7.3338,-6.02533 10.6313,-10.1407 -0.35348,3.87043 -4.60602,7.14161 -10.6313,10.1407 z"
   id="path40212"
   style="stroke-width:0.995848" />
  <path
   fill="#644d36"
   d="m 201.484,288.674 c 3.63288,-2.07893 8.21991,-4.74548 12.1456,-8.2664 -0.98136,3.76044 -5.71125,6.29263 -12.1456,8.2664 z"
   id="path40214"
   style="stroke-width:0.995848" />
  <path
   fill="#644d36"
   d="m 201.32,283.44 c 4.81351,-2.07865 9.7818,-4.0921 9.52867,-7.61216 1.9749,3.85087 -1.54573,5.43799 -9.52867,7.61216 z"
   id="path40216"
   style="stroke-width:0.995848" />
  <polygon
   fill="#644d36"
   points="204.531,276.69 213.199,270.475 212.709,272.765 207.965,276.036 "
   id="polygon40218"
   style="stroke-width:0.995848" />
  <polygon
   fill="#644d36"
   points="204.935,269.774 212.794,266.105 211.813,268.231 208.102,270.054 "
   id="polygon40220"
   style="stroke-width:0.995848" />
  <polygon
   fill="#644d36"
   points="210.582,260.171 206.657,263.115 207.638,264.26 210.255,262.461 "
   id="polygon40222"
   style="stroke-width:0.995848" />
  <path
   fill="#644d36"
   d="m 281.567,286.177 c 7.19689,2.18069 12.8673,6.26996 19.6271,13.2483 -3.42057,-6.54237 -10.0993,-12.3755 -19.6271,-13.2483 z"
   id="path40224"
   style="stroke-width:0.995848" />
  <path
   fill="#644d36"
   d="m 279.931,288.794 c 7.19689,2.18069 14.1758,6.76063 20.9356,13.739 -3.42057,-6.54237 -11.4078,-12.8662 -20.9356,-13.739 z"
   id="path40226"
   style="stroke-width:0.995848" />
  <path
   fill="#644d36"
   d="m 280.422,281.433 c 5.56158,1.77165 10.1962,4.4983 18.8093,11.9398 -2.64359,-5.52019 -15.1829,-13.9969 -18.8093,-11.9398 z"
   id="path40228"
   style="stroke-width:0.995848" />
  <path
   fill="#644d36"
   d="m 280.913,278.162 c 5.56158,1.77165 10.1962,4.4983 18.8093,11.9398 -2.64359,-5.52019 -15.1829,-13.9969 -18.8093,-11.9398 z"
   id="path40230"
   style="stroke-width:0.995848" />
  <path
   fill="#644d36"
   d="m 281.076,273.255 c 5.56158,1.77165 8.39708,3.68051 17.0102,11.122 -2.64359,-5.52019 -13.3838,-13.1791 -17.0102,-11.122 z"
   id="path40232"
   style="stroke-width:0.995848" />
  <path
   fill="#644d36"
   d="m 280.422,267.858 c 5.56158,1.77165 9.54199,4.4983 18.1551,11.9398 -2.64359,-5.52019 -14.5287,-13.9969 -18.1551,-11.9398 z"
   id="path40234"
   style="stroke-width:0.995848" />
  <path
   fill="#644d36"
   d="m 279.604,262.461 c 5.56158,1.77165 10.3598,6.13389 18.9729,13.5754 -2.64359,-5.52019 -15.3465,-15.6325 -18.9729,-13.5754 z"
   id="path40236"
   style="stroke-width:0.995848" />
  <path
   fill="#644d36"
   d="m 280.913,257.39 c 5.56158,1.77165 7.0886,3.51695 15.7017,10.9585 -2.64359,-5.52019 -12.0753,-13.0156 -15.7017,-10.9585 z"
   id="path40238"
   style="stroke-width:0.995848" />
  <path
   fill="#644d36"
   d="m 284.184,252.156 c 5.56158,1.77165 7.25216,4.00762 15.8652,11.4491 -2.64359,-5.52019 -12.2389,-13.5062 -15.8652,-11.4491 z"
   id="path40240"
   style="stroke-width:0.995848" />
  <path
   fill="#644d36"
   d="m 122.313,269.64 c 19.2736,-4.99833 59.2971,11.0962 70.7188,24.5551 l -3.92882,1.63701 -2.29181,-4.58362 -2.29181,0.3274 4.25622,5.23843 -2.03754,-0.14542 -6.1475,-7.05742 -4.58362,-1.96441 5.23843,6.22063 -2.61921,-0.3274 -8.83985,-10.8043 -2.29181,-0.3274 7.53024,9.82205 -2.14639,-0.3274 -10.9497,-13.0961 -2.94662,-0.3274 6.54803,8.18504 -2.29181,-0.32741 -9.82205,-10.8043 -3.27402,-1.30961 10.1495,10.4769 -4.40249,-1.89213 -8.36618,-8.58473 -2.29181,-0.3274 -3.27402,-2.29181 10.8043,9.82205 h -2.29181 l -13.0961,-10.1495 h -1.63701 l 10.8043,8.18504 h -2.61921 l -9.69336,-8.07506 -1.61943,-0.2554 8.03878,6.03865 h -2.21953 l -5.27074,-3.8194 -4.18649,-2.25581 -4.03852,-0.14542 -2.61921,-1.30961 z"
   id="path40242"
   style="stroke-width:0.995848" />
  <path
   fill="#644d36"
   d="m 389.164,267.29 c -15.0103,-8.53796 -73.6575,14.4493 -80.125,23.2668 v 2.18126 l 2.18126,-1.74501 -1.01792,2.18126 1.45417,1.45417 3.49002,-4.2171 3.19918,-1.01792 -5.8167,6.10753 2.32668,0.8725 6.39837,-9.45213 2.32668,0.29084 -6.83462,7.5617 1.89043,0.43625 7.12545,-8.72504 2.03584,-0.14542 -3.49852,3.88857 -3.04526,4.40022 1.89043,0.72709 2.25298,-4.01953 6.47207,-7.9047 h 2.76293 l -4.82032,5.19591 -1.43263,2.07496 0.29083,2.4721 2.8817,-4.38605 8.46085,-8.5561 2.18126,-0.43625 -5.34955,5.69821 -2.79383,3.60851 v 2.90835 l 4.32255,-6.30652 7.60167,-7.36271 4.50794,-2.61751 -8.57963,9.45213 v 2.4721 l 10.3246,-11.7788 4.65336,-2.4721 -9.01588,9.1613 0.87251,1.74501 9.45213,-10.6155 5.52586,-2.61751 -6.83462,6.54378 -1.30876,2.76293 2.76293,-1.74501 6.6892,-6.6892 4.65336,-3.63543 h 1.89043 l -6.39837,5.52586 -1.01792,2.18126 9.74297,-7.12545 0.72709,0.14542 -4.36252,3.3446 -0.58167,1.74501 3.63543,-1.59959 5.08961,-4.50794 10.0338,0.14541 0.72708,-0.8725 z"
   id="path40244"
   style="stroke-width:0.995848" />
  <path
   fill="#644d36"
   d="m 262.36,499.522 c -7.18725,-0.72567 -10.4108,-0.58025 -16.723,0.29083 3.18303,-2.32866 11.4934,-2.62063 16.723,-0.29083 z"
   id="path40246"
   style="stroke-width:0.995848" />
  <path
   fill="#644d36"
   d="m 262.36,501.994 c -6.49531,-1.41761 -12.7001,-0.036 -19.4859,1.30876 3.81402,-2.64416 15.1787,-4.09975 19.4859,-1.30876 z"
   id="path40248"
   style="stroke-width:0.995848" />
  <path
   fill="#644d36"
   d="m 260.179,496.322 c -7.3817,-0.53178 -7.6972,-0.38608 -13.8147,0.29084 2.27424,-2.25554 8.37808,-2.20763 13.8147,-0.29084 z"
   id="path40250"
   style="stroke-width:0.995848" />
  <path
   fill="#644d36"
   d="m 259.307,493.269 c -7.3817,-0.25965 -5.51622,-0.26221 -11.6334,0.29084 0.65055,-1.62482 10.6322,-1.77081 11.6334,-0.29084 z"
   id="path40252"
   style="stroke-width:0.995848" />
  <path
   fill="#644d36"
   d="m 257.707,491.233 c -3.60085,-0.69591 -6.38873,-1.42554 -9.74297,-0.29084 1.0868,-3.07899 8.74177,-1.18913 9.74297,0.29084 z"
   id="path40254"
   style="stroke-width:0.995848" />
  <path
   fill="#644d36"
   d="m 285.191,478.727 c 1.53156,18.286 -17.4047,23.364 -17.8268,9.36681 -0.62447,-20.7068 12.4002,-26.97 13.6097,-48.0478 l 1.16334,0.58167 -0.72709,5.52586 2.03584,-0.29084 -3.05377,11.6334 2.90835,-5.8167 0.43625,3.49002 -5.0896,8.57963 0.8725,-0.14541 -4.2171,10.4701 5.08961,-8.14337 -6.54378,15.1234 5.8167,-10.9063 -3.92627,11.9242 1.16334,0.72708 -1.45417,3.05377 c -0.63014,1.16334 1.21181,1.74501 1.74501,1.45417 l 1.16334,-2.61751 0.72709,0.43626 -0.29084,3.3446 h 0.8725 l 0.43626,-2.32668 2.4721,-3.78085 0.29083,2.90835 0.87251,-0.29084 0.43625,-3.49002 1.01792,-2.76293 z"
   id="path40256"
   style="stroke-width:0.995848" />
  <path
   fill="#644d36"
   d="m 219.793,479.308 c -1.75606,5.68403 2.21754,14.8538 4.54564,16.5373 5.29314,3.82706 14.3093,2.12882 15.0262,-6.1526 0.31436,-3.63345 -1.41137,-5.52331 -1.34391,-8.86904 0.17206,-8.51953 -10.6438,-19.425 -12.9929,-36.4159 l -1.16334,-0.29084 -0.8725,2.18126 0.0224,5.82549 0.70469,1.00913 -0.72708,2.32668 2.35701,3.84803 0.84217,3.85909 -4.94419,-6.39837 -0.29084,1.30876 9.88838,13.9601 -0.43625,1.89043 -7.12545,-10.0338 v 1.89043 l 6.6892,10.4701 -0.29083,2.6175 -4.84866,-5.67439 0.36935,1.36658 4.77014,7.36158 -0.14541,1.45416 -5.52586,-8.57963 -0.37956,1.70079 6.77792,10.2234 c 0.63014,1.16334 -1.50265,2.4721 -2.03584,2.18126 l -4.2171,-6.54378 0.8725,2.90835 2.61751,5.8167 -1.01792,1.89043 -2.61751,-4.94419 -1.12195,-0.76337 -0.91389,-5.19874 -1.45417,0.14542 -0.14542,-2.76293 -0.8725,-0.14542 z"
   id="path40258"
   style="stroke-width:0.995848" />
  <path
   fill="#644d36"
   d="m 235.922,354.11 c 0.72822,-22.7917 -7.98974,-41.5721 -28.484,-47.8007 l 0.3274,-1.96441 16.0427,9.16725 -14.7331,-10.8043 c 26.0422,10.3102 32.6234,38.706 25.6774,66.295 -6.52933,25.9339 -16.7117,35.4702 -12.9087,68.9219 l -2.29181,-3.60142 c -0.96463,-7.76126 -2.27395,-14.832 -3.92882,-21.2125 l -0.3274,-8.45944 1.09616,1.06554 0.54085,7.3253 0.6548,-0.3274 0.98221,3.92882 -0.0167,-9.68769 1.16617,-0.27354 0.81497,-7.06367 0.3274,-7.20284 1.69002,5.80904 -0.053,-6.79125 1.96441,-0.9822 0.3274,-1.30961 -1.96441,-1.63701 c 3.81657,-1.17865 5.0451,-4.94533 5.49723,-15.4409 0.057,-3.74684 1.56302,-0.79484 2.18976,-1.89156 3.38485,-5.92073 3.78425,-24.2422 1.48025,-35.7066 1.65458,0.68173 2.96447,7.23005 3.92882,19.6441 z"
   id="path40260"
   style="stroke-width:0.995848" />
  <path
   fill="#644d36"
   d="m 212.732,437.51 5.69367,-2.84684 c -0.30217,-5.17607 -0.82006,-9.92041 -1.81162,-13.7166 l -1.29402,0.51761 c 0.73304,3.27827 1.25065,6.98797 1.29402,11.6461 l -2.58803,0.2588 1.29402,1.03521 -2.58803,3.10564 z"
   id="path40262"
   style="stroke-width:0.995848" />
  <path
   fill="#644d36"
   d="m 277.951,398.431 0.51761,-19.669 -1.55282,2.84684 -1.93833,-8.42429 -0.36114,6.9738 -0.99071,0.13861 0.9309,-8.25081 -0.48756,-2.34227 -1.2257,8.18646 c -2.02365,-5.23077 -6.15544,-11.9537 -7.31481,-23.1971 l 3.88205,9.83452 3.10564,10.3521 c 0.22281,-5.69934 -0.86286,-8.45433 -1.29402,-12.6814 l -2.3023,-3.90898 c -0.42066,-7.8772 -1.90318,-17.5394 0.005,-25.4166 l -1.56302,-0.77499 c 0.93572,-10.4224 8.01326,-20.1226 20.6822,-29.1654 l -0.51761,-2.32923 -10.8697,8.54051 5.95248,-6.47008 -1.81162,0.2588 c -18.2937,14.7572 -18.0873,24.738 -19.1514,35.456 l 1.55282,-4.14085 c 0.86202,-8.8852 4.39937,-16.132 10.0933,-22.2571 -6.60076,10.6115 -8.67062,21.0495 -8.79931,30.7976 l -1.55282,0.77641 1.55282,15.2694 c 4.0544,24.2411 21.0492,57.0229 18.375,75.8294 l 1.55282,-2.32923 v 4.91726 l 1.29402,-1.03521 0.2588,-5.69367 h 1.03521 l -0.5176,-34.6796 -1.81162,-0.77641 -0.51761,17.5986 -0.51761,-14.7518 -0.61285,0.19049 -0.16356,-4.59014 -1.03521,-0.77641 -0.33165,8.10256 0.91757,7.79811 -1.43065,-7.04552 -0.39515,-7.4693 -1.60696,0.16696 -0.3033,2.79751 0.83055,5.07062 -1.56246,-3.72728 z"
   id="path40264"
   style="stroke-width:0.995848" />
  <path
   fill="#a88c46"
   d="m 210.582,240.38 c -19.6271,-25.1881 3.76186,-62.9703 -6.86948,-90.2846 l 1.30847,-6.86948 3.92542,5.39745 c 12.4852,33.8567 -7.25103,54.4652 1.63559,91.7567 z"
   id="path40266"
   style="stroke-width:0.995848" />
  <path
   fill="#644d36"
   d="m 200.769,140.282 v 2.94406 c 15.3746,26.8781 3.5983,51.4664 4.4161,70.8211 3.35509,-20.1858 11.1552,-48.9427 -0.8178,-70.494 l -3.5983,-3.27118 z"
   id="path40268"
   style="stroke-width:0.995848" />
  <path
   fill="#a88c46"
   d="m 173.715,195.975 v -2.94662 c -16.3851,-24.7964 -2.71559,-80.8376 -20.9537,-86.7615 10.586,28.5931 -2.40095,68.9726 20.9537,89.7081 z"
   id="path40270"
   style="stroke-width:0.995848" />
  <path
   fill="#644d36"
   d="m 162.256,167.491 c -3.49229,-15.7153 -1.74614,-42.8896 -7.53024,-55.0035 l 2.61921,0.3274 c 4.99436,13.3804 4.17515,33.8706 4.91103,54.6761 z"
   id="path40272"
   style="stroke-width:0.995848" />
  <path
   fill="#a88c46"
   d="M 123.95,175.021 C 100.7045,137.4789 117.40197,74.072 100.3771,65.341 l -2.29181,1.96441 c 12.0047,25.2099 -2.83748,81.8504 23.2455,108.043 l 2.61921,-0.3274 z"
   id="path40274"
   style="stroke-width:0.995848" />
  <path
   fill="#644d36"
   d="M 115.765,163.562 C 100.7045,133.441 112.16358,88.2596 103.9785,71.2347 l -1.63701,-0.327402 c 7.42111,24.0095 -4.14709,72.574102 13.4235,92.654702 z"
   id="path40276"
   style="stroke-width:0.995848" />
  <path
   fill="#a88c46"
   d="M 71.8935,125.256 C 52.4677,106.5941 59.234,67.9607 45.0466,46.6796 h 2.29181 c 10.8043,10.4769 11.7865,50.0925 24.5551,74.6476 v 3.92882 z"
   id="path40278"
   style="stroke-width:0.995848" />
  <path
   fill="#644d36"
   d="M 66.9824,114.125 C 63.08108,103.266 59.5338,91.6976 56.5055,79.093 c -0.103748,11.3678 4.3971,24.4837 10.4769,35.032 z"
   id="path40280"
   style="stroke-width:0.995848" />
  <path
   fill="#a88c46"
   d="m 191.395,257.854 c -11.5101,-5.20073 -23.4587,-8.39537 -38.0841,-11.5982 -12.2641,-2.68583 -45.1273,-18.6355 -50.3144,-28.3448 10.9678,9.60378 23.0831,12.9195 39.0835,19.8077 11.0903,4.77468 38.5107,10.2042 53.2437,17.1887 l -3.92882,2.94662 z"
   id="path40282"
   style="stroke-width:0.995848" />
  <path
   fill="#a88c46"
   d="m 299.765,140.317 c 8.51245,17.134 -1.30961,39.8339 15.7153,53.3665 l -2.94662,1.96441 c -16.3701,-16.8066 -9.82205,-34.9229 -14.7331,-52.3843 l 1.96441,-2.94662 z"
   id="path40284"
   style="stroke-width:0.995848" />
  <path
   fill="#644d36"
   d="m 305.986,183.861 c -4.39229,-12.5532 -2.91912,-30.2324 -6.87544,-41.2526 l 0.9822,-1.30961 c 4.25622,11.8956 2.94662,30.0118 5.89323,42.5622 z"
   id="path40286"
   style="stroke-width:0.995848" />
  <path
   fill="#a88c46"
   d="m 368.847,171.747 -8.18504,-1.96441 c -17.6797,-23.0273 -4.25622,-48.6737 -14.7331,-64.1707 l 0.6548,-2.61921 2.94662,0.6548 c 12.6595,16.4792 0.43654,53.5848 19.3167,68.0996 z"
   id="path40288"
   style="stroke-width:0.995848" />
  <path
   fill="#644d36"
   d="m 355.423,146.865 c -2.83748,-14.4057 0.54567,-27.8291 -8.51245,-43.217 12.6595,14.4057 6.00237,30.121 8.51245,43.217 z"
   id="path40290"
   style="stroke-width:0.995848" />
  <path
   fill="#a88c46"
   d="m 399.95,62.0677 c 16.261,17.5706 3.38315,53.4756 19.3167,62.5337 l -2.61921,2.94662 c -22.2633,-13.6417 -5.56583,-38.7425 -16.6975,-65.4803 z"
   id="path40292"
   style="stroke-width:0.995848" />
  <path
   fill="#644d36"
   d="m 406.498,89.2421 c -0.49096,-7.96678 -1.80085,-15.9341 -4.91103,-23.9003 4.58391,7.96621 5.56611,15.9333 4.91103,23.9003 z"
   id="path40294"
   style="stroke-width:0.995848" />
  <path
   fill="#644d36"
   d="m 426.797,184.189 c 7.85764,-14.6239 13.4235,-16.8066 22.5907,-41.9074 l -3.60142,0.6548 -4.58362,8.83985 -0.6548,5.23843 -13.7509,27.1743 z"
   id="path40296"
   style="stroke-width:0.995848" />
  <path
   fill="#a88c46"
   d="m 462.156,107.577 -2.29181,-2.61921 -6.54803,4.91103 c -1.44425,18.7039 -17.7018,52.4551 -26.8642,69.5104 -8.33301,15.512 -29.5756,28.9914 -40.0816,39.4733 -18.8277,18.7841 -56.3185,22.1817 -74.8191,32.4539 l -4.91103,6.54803 c 43.4146,-21.5674 57.6995,-11.3522 76.1701,-29.831 11.0605,-11.0656 35.2848,-20.0846 43.4018,-34.4872 16.0444,-28.4695 34.8449,-63.9944 35.9439,-85.9593 z"
   id="path40298"
   style="stroke-width:0.995848" />
  <path
   fill="#644d36"
   d="m 456.918,51.9183 c 4.69304,29.0566 1.09134,57.5952 -8.18504,85.7793 l 0.98221,1.96441 c 5.35408,-11.7865 8.96116,-22.373 10.8043,-32.4128 l -1.30962,-1.30961 c -0.43256,6.98854 -2.39839,12.4435 -4.58362,17.6797 7.83468,-25.9209 7.6697,-55.4959 2.29181,-71.701 z"
   id="path40300"
   style="stroke-width:0.995848" />
  <path
   fill="#644d36"
   d="m 306.313,263.42 c -1.08879,4.91273 2.29295,30.0127 2.94662,44.5266 l 1.96441,-6.87544 -1.30961,-10.8043 1.96441,1.63701 0.3274,9.49465 0.6548,2.94662 1.30961,-1.30961 -2.29181,-23.2455 -1.63701,8.51245 -0.6548,-9.82205 -1.30961,-1.96441 -1.96441,-13.0961 z"
   id="path40302"
   style="stroke-width:0.995848" />
  <path
   fill="#644d36"
   d="m 276.52,507.007 c -2.30173,0.0479 -5.49128,0.1114 -7.6612,-0.28148 -4.77468,-0.86428 -8.39424,-2.68441 -13.4564,-2.85931 -2.34652,-0.0811 -7.09059,1.55849 -12.5918,2.46444 -4.85405,0.79909 -10.444,0.80986 -13.4365,1.65855 13.4235,1.63701 17.5161,-2.12854 25.9464,-2.16907 8.43052,-0.0408 8.75821,5.60665 21.1995,1.18687 z"
   id="path40304"
   style="stroke-width:0.995848" />
 <path
   fill="#cccccc"
   d="m 237.40033,68.4358 1.64069,-2.24788 c -3.71962,-2.29918 -13.9524,-13.9337 -14.1571,-23.8723 -0.23102,-11.2201 4.57144,-20.3976 18.6911,-17.517 5.16331,1.05335 8.856,-0.02324 15.4783,-0.48926 15.1937,-1.0698 21.1652,8.13459 19.9622,15.9372 -1.61915,10.5004 -9.36142,15.2187 -14.2716,25.2669 l 1.2291,0.702709 c 24.7045,-28.0174 41.6333,-12.041 39.6264,1.60611 -0.52753,3.58781 -1.2685,11.7346 0.18198,18.2398 4.02605,18.053901 -29.7581,33.126501 -46.9525,1.48167 l -1.9525,0.299622 c 0.83339,25.805199 3.12832,45.522399 7.55915,56.341999 l -25.2369,-0.14513 c 4.01103,-16.8662 6.51345,-35.24 6.32892,-56.301503 l -2.61751,-0.15789 c -29.321,35.539703 -49.2222,13.877603 -46.4482,-0.574866 0.66785,-3.4801 1.68123,-7.23374 -0.15448,-12.426 -4.88523,-13.8169 10.7212,-38.8069 41.093,-6.14438 z"
   id="path40884"
   style="fill:#cccccc;fill-opacity:1;stroke-width:0.995848" /></g></g></svg>
