<?xml version="1.0" encoding="UTF-8" standalone="no"?>
<svg xmlns:dc="http://purl.org/dc/elements/1.1/" xmlns:cc="http://creativecommons.org/ns#" xmlns:rdf="http://www.w3.org/1999/02/22-rdf-syntax-ns#" xmlns:svg="http://www.w3.org/2000/svg" xmlns="http://www.w3.org/2000/svg" xmlns:sodipodi="http://sodipodi.sourceforge.net/DTD/sodipodi-0.dtd" xmlns:inkscape="http://www.inkscape.org/namespaces/inkscape" version="1.0" sodipodi:docname="svg.svg" height="575" width="500" inkscape:version="1.0 (4035a4fb49, 2020-05-01)" sodipodi:version="0.32" id="svg2">
  <metadata id="metadata7">
    <rdf:RDF>
      <cc:Work rdf:about="">
        <dc:format>image/svg+xml</dc:format>
        <dc:type rdf:resource="http://purl.org/dc/dcmitype/StillImage"/>
      </cc:Work>
    </rdf:RDF>
  </metadata>
  <defs id="defs5"/>
  <sodipodi:namedview inkscape:window-maximized="1" inkscape:document-rotation="0" inkscape:current-layer="g998" inkscape:window-y="-8" inkscape:window-x="-8" inkscape:cy="304.5876" inkscape:cx="289.41876" inkscape:zoom="0.70710678" gridtolerance="0.5px" inkscape:grid-points="true" inkscape:grid-bbox="true" showgrid="false" id="base" pagecolor="#ffffff" bordercolor="#666666" borderopacity="1.0" inkscape:pageopacity="0.0" inkscape:pageshadow="2" inkscape:window-width="1920" inkscape:window-height="1017">
    <inkscape:grid empspacing="5" empopacity="0.38" opacity="0.15" empcolor="#3f3fff" color="#3f3fff" spacingy="1" spacingx="1" originy="6.1360788" originx="-702.51718" type="xygrid" id="GridFromPre046Settings"/>
  </sodipodi:namedview>
  <g style="stroke-width:1.01305" transform="matrix(0.98626037,0,0,0.9879784,-692.86485,6.0623133)" id="g998">
    <path style="fill:#ee1c25;fill-opacity:1;fill-rule:evenodd;stroke:none;stroke-width:1.01305px;stroke-linecap:butt;stroke-linejoin:miter;stroke-opacity:1" d="M 1209.4827,-6.1360788 H 702.51718 V 336.15921 c 0,132.45105 131.56724,239.70124 253.4828,239.70124 121.91562,0 253.48272,-107.25019 253.48272,-239.70124 z" id="path6670" sodipodi:nodetypes="cccccc"/>
    <g transform="matrix(0.99644859,0,0,0.99644859,3.3951435,1.0095043)" style="stroke-width:1.01666" id="g991">
      <path d="M 830.5,-0.75 705.13086,258.74609 v 76.88477 c 0,20.54572 3.20118,40.47671 9.06055,59.48437 L 830.5,154.37109 Z m 0,155.12109 v 155.1211 L 956,569.25977 V 414.13867 Z M 956,414.13867 1081.5,154.37109 V -0.75 L 956,259.01758 Z m 125.5,-259.76758 v 155.1211 l 77.1328,159.65625 c 17.3441,-22.25285 30.9102,-47.21977 39.1758,-74.03321 z" style="font-variation-settings:normal;opacity:1;vector-effect:none;fill:#ffffff;fill-opacity:1;fill-rule:evenodd;stroke:none;stroke-width:1.01666;stroke-linecap:butt;stroke-linejoin:miter;stroke-miterlimit:4;stroke-dasharray:none;stroke-dashoffset:0;stroke-opacity:1;marker:none;marker-start:none;marker-mid:none;marker-end:none;stop-color:#000000;stop-opacity:1" id="path888"/>
      <path d="M 830.5,-0.75 V 154.37109 L 956,414.13867 V 259.01758 Z M 956,414.13867 v 155.1211 l 125.5,-259.76758 v -155.1211 z m 125.5,-259.76758 116.3086,240.74414 c 5.8594,-19.00766 9.0605,-38.93865 9.0605,-59.48437 V 258.74609 L 1081.5,-0.75 Z m -251,0 -116.30859,240.74414 c 8.26559,26.81344 21.83172,51.78036 39.17578,74.03321 L 830.5,309.49219 Z" style="font-variation-settings:normal;opacity:1;vector-effect:none;fill:#9f0c12;fill-opacity:1;fill-rule:evenodd;stroke:none;stroke-width:1.01666;stroke-linecap:butt;stroke-linejoin:miter;stroke-miterlimit:4;stroke-dasharray:none;stroke-dashoffset:0;stroke-opacity:1;marker:none;marker-start:none;marker-mid:none;marker-end:none;stop-color:#000000;stop-opacity:1" id="path928"/>
      <path d="M 830.5,9.25 705.13086,268.74609 v 66.88477 c 0,47.8577 17.36914,92.38123 45.2793,129.63867 L 830.5,299.49219 956,559.25977 l 125.5,-259.76758 80.0898,165.77734 c 27.9102,-37.25744 45.2793,-81.78097 45.2793,-129.63867 V 268.74609 L 1081.5,9.25 956,269.01758 Z" style="font-variation-settings:normal;opacity:1;vector-effect:none;fill:#cccccc;fill-opacity:1;fill-rule:evenodd;stroke:none;stroke-width:1.01666;stroke-linecap:butt;stroke-linejoin:miter;stroke-miterlimit:4;stroke-dasharray:none;stroke-dashoffset:0;stroke-opacity:1;marker:none;marker-start:none;marker-mid:none;marker-end:none;stop-color:#000000;stop-opacity:1" id="path890"/>
    </g>
  </g>
</svg>