<?xml version="1.0" encoding="UTF-8" standalone="no"?>
<svg
   xmlns:dc="http://purl.org/dc/elements/1.1/"
   xmlns:cc="http://creativecommons.org/ns#"
   xmlns:rdf="http://www.w3.org/1999/02/22-rdf-syntax-ns#"
   xmlns:svg="http://www.w3.org/2000/svg"
   xmlns="http://www.w3.org/2000/svg"
   width="500"
   height="568"
   viewBox="0 0 132.29166 150.28334"
   version="1.1"
   id="svg847">
  <defs
     id="defs841" />
  <metadata
     id="metadata844">
    <rdf:RDF>
      <cc:Work
         rdf:about="">
        <dc:format>image/svg+xml</dc:format>
        <dc:type
           rdf:resource="http://purl.org/dc/dcmitype/StillImage" />
        <dc:title></dc:title>
      </cc:Work>
    </rdf:RDF>
  </metadata>
  <path
     id="path844"
     style="fill:#df0c0c;fill-opacity:1;fill-rule:evenodd;stroke:none;stroke-width:0.264583;stroke-miterlimit:5;stroke-dasharray:none;stroke-opacity:1"
     d="m 132.29167,0 v 84.137248 c 0,36.531412 -29.61417,66.146082 -66.145583,66.146082 C 29.614669,150.28333 0,120.66866 0,84.137248 V 0 Z" />
  <path
     style="color:#000000;font-style:normal;font-variant:normal;font-weight:normal;font-stretch:normal;font-size:medium;line-height:normal;font-family:sans-serif;font-variant-ligatures:normal;font-variant-position:normal;font-variant-caps:normal;font-variant-numeric:normal;font-variant-alternates:normal;font-variant-east-asian:normal;font-feature-settings:normal;font-variation-settings:normal;text-indent:0;text-align:start;text-decoration:none;text-decoration-line:none;text-decoration-style:solid;text-decoration-color:#000000;letter-spacing:normal;word-spacing:normal;text-transform:none;writing-mode:lr-tb;direction:ltr;text-orientation:mixed;dominant-baseline:auto;baseline-shift:baseline;text-anchor:start;white-space:normal;shape-padding:0;shape-margin:0;inline-size:0;clip-rule:nonzero;display:inline;overflow:visible;visibility:visible;isolation:auto;mix-blend-mode:normal;color-interpolation:sRGB;color-interpolation-filters:linearRGB;solid-color:#000000;solid-opacity:1;vector-effect:none;fill:#ffffff;fill-opacity:1;fill-rule:nonzero;stroke:none;stroke-width:0.132292;stroke-linecap:butt;stroke-linejoin:miter;stroke-miterlimit:5;stroke-dasharray:none;stroke-dashoffset:0;stroke-opacity:1;color-rendering:auto;image-rendering:auto;shape-rendering:auto;text-rendering:auto;enable-background:accumulate;stop-color:#000000"
     d="m 58.932267,68.295378 -1.177067,-0.49541 2.895624,-3.57345 -1.555342,-0.98697 1.459332,-3.3795 c -1.250454,-0.71951 -2.617952,-1.18992 -4.015081,-1.54958 l 0.643255,-1.97011 c -1.422051,-0.0323 -2.839065,0.032 -4.25895,0.13249 l 0.493492,-1.84337 c -1.411332,0.16781 -2.817983,0.36268 -4.19751,0.72007 l 0.629773,-4.189829 h -1.45165 l -0.672087,-3.719378 -1.140577,0.380195 -0.914006,-3.675215 -1.263479,0.664381 -1.601419,-3.266217 -1.113709,0.852558 -2.415578,-2.824577 c -0.91083,0.627682 -1.731674,1.365955 -2.567118,2.090934 -0.287585,-0.405328 -0.721253,-0.999298 -1.113709,-1.459333 -0.854438,0.827097 -1.698493,1.601424 -2.215875,2.657522 -0.328808,-0.286584 -0.787851,-0.533074 -1.223151,-0.723906 -0.776515,1.291894 -1.469867,2.500972 -1.774244,3.963241 -0.322397,-0.146636 -0.831963,-0.329538 -1.246195,-0.453162 -0.548694,1.293147 -0.841323,2.658363 -0.865999,4.074611 -1.10778,-1.0429 -2.698091,-1.908755 -4.324236,-2.327252 l -0.230406,1.015768 c -1.059086,-0.682834 -2.362539,-1.270336 -3.661774,-1.641749 -0.0725,0.436592 -0.153545,0.872108 -0.20742,1.31148 -1.396663,-0.688925 -3.098952,-1.081433 -4.738989,-1.219309 -0.05833,0.472972 -0.129704,0.943359 -0.126755,1.42093 -1.187895,-0.297793 -2.566272,-0.408029 -3.871072,-0.307231 -0.196881,1.452356 -0.302774,2.794382 0.08062,4.209023 -0.429863,0.01251 -1.099453,0.06863 -1.628308,0.328355 0.202082,1.2939 0.414763,2.50895 0.983129,3.6733 -0.390577,0.0147 -1.027045,0.1488 -1.509251,0.28036 0.449821,1.2661 1.002851,2.48328 1.828002,3.56192 -0.336771,0.13114 -0.826252,0.40961 -1.20395,0.6279 0.711618,1.04192 1.376528,2.05989 2.281174,2.89755 l -1.04074,0.52036 c 0.875368,0.85335 1.759634,1.6955 2.732411,2.44055 -1.246795,0.0387 -2.76744,0.13079 -4.124533,0.55492 0.258003,0.46911 0.508219,0.94277 0.787271,1.39981 -1.254169,0.19126 -2.876745,0.78848 -4.212867,1.49386 0.284046,0.39802 0.563235,0.7996 0.862155,1.18666 -1.195396,0.34847 -2.465541,0.983 -3.581117,1.7128 l 1.253873,1.06761 c -0.891207,0.56651 -1.740296,1.47513 -2.242764,2.51352 l 2.592237,2.23508 c -0.192674,0.27204 -0.512476,0.73304 -0.675901,1.15594 l 3.285412,1.64752 c -0.15504,0.32427 -0.365538,0.7404 -0.543405,1.0945 l 3.826909,1.04264 c -0.07418,0.25661 -0.159139,0.80112 -0.188141,1.19436 l 4.207106,0.71815 c -0.08445,0.30727 -0.114437,0.85211 -0.08642,1.2769 l 3.853789,-0.0576 c -0.244691,1.23565 -0.15382,2.9916 0.311102,4.44329 l 0.985056,-0.0768 c -0.05816,1.13328 0.471804,2.64687 0.750609,3.88884 l 0.856522,-0.003 c 0.05537,0.62501 0.296207,2.23188 0.757374,3.14882 L 37.92176,77.096118 Z"
     id="path3661" />
  <path
     id="path3657"
     style="font-variation-settings:normal;vector-effect:none;fill:#990000;fill-opacity:1;stroke:none;stroke-width:0.132292;stroke-linecap:butt;stroke-linejoin:miter;stroke-miterlimit:5;stroke-dasharray:none;stroke-dashoffset:0;stroke-opacity:1;stop-color:#000000"
     d="m 39.277306,39.571431 -0.05233,1.140562 2.159704,3.065552 0.308385,-1.381378 c -0.569725,-1.022164 -1.419723,-2.05293 -2.415759,-2.824736 z m 3.529397,1.972235 -0.237258,1.328033 1.253857,3.274865 0.584762,-1.336669 C 44.067409,43.717868 43.495258,42.55587 42.806703,41.543666 Z m 2.864872,2.601704 -0.524303,1.304154 0.766641,3.553783 0.671636,-1.18273 c -0.176382,-1.155561 -0.45735,-2.485519 -0.913974,-3.675207 z m 2.054539,3.295188 -0.558344,1.144628 0.348521,3.483673 0.881967,-0.908895 C 48.376718,50.07899 48.245402,48.63697 47.726114,47.440558 Z m 2.123633,3.719406 -0.939885,0.908895 -1.115162,4.598329 1.425068,-1.31787 c 0.378831,-1.26456 0.629419,-2.758199 0.629979,-4.189354 z m 3.568009,3.469444 -1.233537,1.06233 -0.440983,1.74209 1.180698,-0.96122 c 0.125615,-0.49586 0.328518,-1.25289 0.493822,-1.8432 z m 3.76513,1.7111 -1.119734,0.88451 -0.766643,1.67198 1.24319,-0.58628 c 0.252852,-0.47044 0.582764,-1.25108 0.643187,-1.97021 z m 3.371903,3.51975 -1.077567,0.43031 -1.672488,3.20476 1.290945,-0.25555 c 0.638664,-0.98181 1.130139,-2.18795 1.45911,-3.37952 z m 0.09602,4.36615 -1.3133,0.24437 -3.065551,3.69298 1.482986,-0.36376 c 0.964201,-1.09107 2.002916,-2.31778 2.895865,-3.57359 z m -1.718719,4.06894 -1.336162,0.42574 -23.546419,5.7648 -11.201402,22.69087 -0.54056,0.97443 c 1.174485,0.0792 3.311531,-0.60136 3.98359,-0.81948 0.04471,0.43541 0.232292,0.93443 0.433871,1.37274 1.756518,-0.70101 3.398159,-1.6686 4.819835,-2.92838 l 0.819986,1.231 c 1.251454,-1.46358 2.377556,-2.83842 3.027957,-4.6471 l 1.591708,0.87384 c 0.725539,-1.68702 1.080079,-3.48607 1.115669,-5.33245 l 1.496195,0.26723 c -0.03322,-1.60567 -0.272907,-3.18524 -0.568504,-4.76598 l 1.18832,0.0518 c -0.297746,-1.56582 -0.625237,-3.13537 -1.213214,-4.61916 6.349497,4.14727 21.514712,15.85981 24.382154,22.749302 L 62.755136,92.317298 41.068677,76.129928 c 1.569939,1.08505 3.480104,1.49644 5.420852,1.99662 l 0.276377,-1.66284 c 1.852512,0.48863 3.855059,0.50738 5.768356,0.16156 l -0.606607,-1.28688 c 1.855845,-0.43407 3.691996,-1.29936 5.257263,-2.49044 -0.498527,-0.29864 -1.029176,-0.55956 -1.468763,-0.94242 1.27572,-0.86602 2.405282,-2.18998 3.215935,-3.61018 z m -55.495412,8.09064 -1.061308,0.0564 c 0.648374,0.9604 1.598577,1.6495 2.59256,2.2354 l 1.276719,-0.2718 z m 1.970711,3.25149 -1.115669,0.1961 c 0.94516,0.897 1.982151,1.42384 3.285535,1.6476 l 1.278753,-0.56292 z m 2.857253,2.5128 -1.230996,0.42523 c 1.209781,0.57043 2.475812,0.95324 3.827112,1.04251 l 1.099412,-0.77833 z m 3.399844,2.01999 -0.991706,0.64217 c 1.3631,0.43007 2.77832,0.64002 4.207131,0.71837 l 1.070452,-0.81896 z m 8.079967,1.52718 -4.039983,0.29569 -0.911434,0.8144 c 1.282983,0.14288 2.57132,0.12747 3.854037,-0.0574 z m 1.132943,4.43423 -1.280785,0.0981 -0.638614,0.96376 0.985102,-0.0772 z m 0.295684,3.94142 -0.479089,0.93227 0.856566,-0.003 0.755466,-0.92921 z" />
  <path
     style="font-variation-settings:normal;vector-effect:none;fill:#ffffff;fill-opacity:1;stroke:none;stroke-width:0.132292;stroke-linecap:butt;stroke-linejoin:miter;stroke-miterlimit:5;stroke-dasharray:none;stroke-dashoffset:0;stroke-opacity:1;stop-color:#000000"
     d="m 41.593846,75.386728 c 6.287165,4.08689 13.942929,8.98247 21.718849,15.46731 l -0.557559,1.46326 -23.064011,-16.71416 c -0.203867,-0.71164 1.438617,-0.95398 1.902721,-0.21641 z"
     id="path3325" />
  <path
     style="font-variation-settings:normal;vector-effect:none;fill:#c7c7c7;fill-opacity:1;stroke:none;stroke-width:0.132292;stroke-linecap:butt;stroke-linejoin:miter;stroke-miterlimit:5;stroke-dasharray:none;stroke-dashoffset:0;stroke-opacity:1;stop-color:#000000"
     d="m 63.017089,99.229528 c -3.44037,-6.0907 -18.808165,-18.04652 -25.095329,-22.13341 0,0 -0.515112,0.42281 -0.09634,1.30963 0.83755,1.77363 1.280959,4.08921 1.280959,4.08921 l -1.133155,-0.0493 c 0.640499,2.26631 0.689753,4.63116 0.689753,4.63116 l -1.379497,-0.24634 c 0.197068,2.95605 -0.739009,5.12383 -0.739009,5.12383 l -1.527301,-0.83754 c -0.492676,1.9707 -2.561917,4.38481 -2.561917,4.38481 l -0.689744,-1.03462 c -1.576566,1.87217 -4.53262,3.05459 -4.53262,3.05459 -0.197059,-0.49268 -0.147804,-1.37949 -0.147804,-1.37949 -2.069232,0.88681 -3.052538,0.99382 -4.237012,1.03462 -0.394137,-1.13316 -0.54194,-3.10386 -0.54194,-3.10386 0,0 -0.526506,0.0493 -1.133155,0 -0.492676,-1.3795 -0.295608,-3.9414 -0.295608,-3.9414 l -1.280958,0.0985 c -0.541941,-1.62584 0.147803,-4.53262 0.147803,-4.53262 -1.822899,0.54195 -4.039944,0.2956 -4.039944,0.2956 0,-0.49267 0.246343,-1.28096 0.246343,-1.28096 -2.414114,0.0493 -4.286287,-0.54194 -4.286287,-0.54194 0.09854,-0.83754 0.295607,-1.33022 0.295607,-1.33022 -1.921438,0.14779 -3.695072,-0.68975 -3.695072,-0.68975 0.197078,-0.39414 0.591215,-1.23169 0.591215,-1.23169 -2.512653,-0.39414 -3.44873,-1.28096 -3.44873,-1.28096 0.295598,-0.59121 0.837548,-1.23169 0.837548,-1.23169 -1.872173,-0.64048 -2.80825,-2.01997 -2.80825,-2.01997 0.837547,-1.57656 2.80825,-2.26631 2.80825,-2.26631 l -1.330223,-1.13315 c 1.872163,-1.13316 3.596533,-1.28096 3.596533,-1.28096 -0.344872,-0.39414 -1.08389,-1.42876 -1.08389,-1.42876 1.478026,-0.78829 4.335551,-1.13316 4.335551,-1.13316 -0.344872,-0.49267 -0.886822,-1.47802 -0.886822,-1.47802 1.576566,-0.39414 5.567246,-0.29561 5.567246,-0.29561 -1.822909,-0.93609 -3.99068,-3.05459 -3.99068,-3.05459 0.295607,-0.14781 1.034616,-0.44341 1.034616,-0.44341 -1.034616,-0.73901 -2.512643,-2.90679 -2.512643,-2.90679 0.443411,-0.24634 1.280959,-0.54195 1.280959,-0.54195 -1.231694,-1.08388 -2.019977,-3.30092 -2.019977,-3.30092 0.640479,-0.1478 1.576566,-0.1478 1.576566,-0.1478 -0.837548,-1.33023 -1.231684,-3.84288 -1.231684,-3.84288 0.739008,-0.246333 1.62583,-0.147794 1.62583,-0.147794 -0.640479,-1.576568 -0.295607,-4.138484 -0.295607,-4.138484 1.970702,-0.09853 3.941415,0.64048 3.941415,0.64048 -0.04927,-0.83755 0.04925,-1.625831 0.04925,-1.625831 2.80826,0.295605 4.680424,1.675098 4.680424,1.675098 0.04927,-0.689747 0.197068,-1.576563 0.197068,-1.576563 1.675105,0.541943 3.448739,1.921436 3.448739,1.921436 0.197069,-0.443408 0.394137,-1.330225 0.394137,-1.330225 3.251661,0.985352 4.631149,3.793599 4.631149,3.793599 0.427868,-0.656882 0.185399,-1.276128 -0.147794,-1.773627 -0.147803,-2.167775 0.54194,-3.793605 0.54194,-3.793605 0.443412,0.147802 1.280959,0.541943 1.280959,0.541943 0.09854,-1.527296 1.576566,-3.990676 1.576566,-3.990676 0.295607,0.147803 1.083881,0.886817 1.083881,0.886817 0.344872,-1.133155 1.921438,-2.66045 1.921438,-2.66045 0.394146,0.492676 1.034625,1.42876 1.034625,1.42876 0.886812,-1.034619 2.680424,-2.270506 2.680424,-2.270506 1.254149,1.045125 2.159925,3.065697 2.159925,3.065697 l 1.184475,-0.905774 c 0.836092,1.323823 1.254148,3.27472 1.254148,3.27472 l 1.323823,-0.696748 c 0.487721,1.463173 0.766419,3.55342 0.766419,3.55342 l 1.254148,-0.41805 c 0.348372,0.97545 0.348372,3.483746 0.348372,3.483746 h 1.393498 c -0.0697,2.159927 -1.11479,4.598537 -1.11479,4.598537 1.463171,-0.62707 4.389515,-0.97544 4.389515,-0.97544 -0.209023,0.76642 -0.441278,1.74187 -0.441278,1.74187 1.393498,-0.27873 4.319851,-0.20902 4.319851,-0.20902 -0.209033,0.97545 -0.766428,1.67219 -0.766428,1.67219 2.504796,0.43001 4.180496,1.3935 4.180496,1.3935 -0.5574,1.88123 -1.672198,3.20505 -1.672198,3.20505 l 1.532848,0.97544 c -1.184475,1.60253 -3.065695,3.69277 -3.065695,3.69277 l 1.323822,0.55741 c -1.254147,2.02057 -3.414073,3.06569 -3.414073,3.06569 0.62708,0.69675 1.323823,1.1148 1.323823,1.1148 -1.811543,1.25415 -4.877246,1.81154 -4.877246,1.81154 l 0.557405,1.18448 c -2.438623,0.34837 -5.155943,-0.5574 -5.155943,-0.5574 l -0.278698,1.6722 c 0,0 -2.810216,-0.67353 -4.157271,-1.62575 0,0 -0.731585,-0.60386 -1.114799,-0.0697 6.287164,4.08689 16.311878,11.35145 22.27625,17.00019 z"
     id="path3488" />
  <path
     style="color:#000000;font-style:normal;font-variant:normal;font-weight:normal;font-stretch:normal;font-size:medium;line-height:normal;font-family:sans-serif;font-variant-ligatures:normal;font-variant-position:normal;font-variant-caps:normal;font-variant-numeric:normal;font-variant-alternates:normal;font-variant-east-asian:normal;font-feature-settings:normal;font-variation-settings:normal;text-indent:0;text-align:start;text-decoration:none;text-decoration-line:none;text-decoration-style:solid;text-decoration-color:#000000;letter-spacing:normal;word-spacing:normal;text-transform:none;writing-mode:lr-tb;direction:ltr;text-orientation:mixed;dominant-baseline:auto;baseline-shift:baseline;text-anchor:start;white-space:normal;shape-padding:0;shape-margin:0;inline-size:0;clip-rule:nonzero;display:inline;overflow:visible;visibility:visible;isolation:auto;mix-blend-mode:normal;color-interpolation:sRGB;color-interpolation-filters:linearRGB;solid-color:#000000;solid-opacity:1;vector-effect:none;fill:#ffffff;fill-opacity:1;fill-rule:nonzero;stroke:none;stroke-width:1;stroke-linecap:butt;stroke-linejoin:miter;stroke-miterlimit:5;stroke-dasharray:none;stroke-dashoffset:0;stroke-opacity:1;color-rendering:auto;image-rendering:auto;shape-rendering:auto;text-rendering:auto;enable-background:accumulate;stop-color:#000000"
     d="m 39.70265,43.390345 c 0.0016,-0.155684 0.01233,-1.09884 -0.501167,-1.656168 -0.777843,1.240067 0.0916,1.652376 0.501167,1.656168 z m -1.050337,1.194315 c 0.146736,1.762008 -0.23207,2.347187 1.021535,2.354174 0.004,-0.622871 0.01326,-1.762372 0.02112,-2.646001 0.03898,-0.406482 -0.01176,-0.399506 -0.378228,-0.505006 -0.366273,-0.153669 -1.281738,-0.221799 -1.281738,-0.221799 0,0 0.264158,0.843512 0.617314,1.018632 z m -0.0288,4.051568 c 0.163862,1.788198 -0.244911,2.478501 1.0311,2.480912 0.0018,-0.659097 0.0066,-1.854815 0.01152,-2.784253 0.03911,-0.403296 -0.01341,-0.396243 -0.376308,-0.503086 -1.513981,-0.441323 -3.258536,-2.30997 -3.258536,-2.30997 0,0 0.690368,2.327531 2.592236,3.116444 z m -0.01152,4.201343 c 0.189854,1.835737 -0.274251,2.738177 1.042701,2.738177 -0.0011,-0.73126 -0.0029,-2.04171 -0.002,-3.064606 0.03708,-0.417936 -0.01191,-0.408195 -0.391715,-0.505008 -1.879591,-0.699085 -3.239058,-1.85447 -4.932928,-3.003153 0.909899,1.755277 2.485396,3.191859 4.283909,3.83459 z M 15.095609,52.601394 c 0.387838,0.407202 0.385774,0.355647 0.737347,-0.03647 1.159202,-1.288907 0.700863,-3.064603 0.700863,-3.064603 0,0 -0.691706,0.99601 -1.225072,1.885611 -0.561121,-0.51254 -1.121901,-1.024093 -2.003702,-1.128102 0.335598,1.015976 1.051589,1.669369 1.790564,2.343578 z m 3.104922,1.422844 c -1.223673,-0.952672 -1.391519,-1.48194 -2.198601,-0.59526 0.475085,0.43296 1.341826,1.22175 2.033466,1.85298 0.408721,0.42671 0.402039,0.37248 0.752708,-0.0556 1.642021,-2.00855 1.069537,-5.239198 1.069537,-5.239198 0,0 -0.703526,2.417078 -1.65711,4.037168 z m 3.141405,2.87642 c -1.210543,-0.95387 -1.366786,-1.46124 -2.171717,-0.58373 0.477425,0.43695 1.341964,1.23167 2.025785,1.86256 0.519967,0.53483 0.49084,0.48074 0.814154,-0.14209 1.767718,-3.39852 0.917842,-6.890542 0.917842,-6.890542 0,0 -0.335516,2.878302 -1.586064,5.753802 z m 3.154848,2.92827 c -1.382449,-1.07949 -1.500069,-1.74756 -2.379097,-0.79688 0.538856,0.49957 1.471245,1.36747 2.213962,2.06611 0.469515,0.49904 0.449199,0.44235 0.794951,-0.0999 1.325355,-2.52612 1.625578,-5.09423 0.890002,-7.81991 -0.399935,2.2702 -0.562048,4.64064 -1.519818,6.65053 z m 14.122884,-2.0469 c 0.177458,1.78441 -0.22285,2.46681 1.050368,2.4596 -0.0031,-0.65879 -0.0086,-1.85654 -0.01152,-2.78617 0.03498,-0.40941 -0.01551,-0.40114 -0.386001,-0.50117 -1.927565,-0.76076 -3.335985,-1.9125 -5.149908,-3.00412 1.054562,1.72253 2.645817,3.14706 4.497049,3.83172 z m -10.820185,5.18254 c -1.385264,-1.10485 -1.527367,-1.83914 -2.430941,-0.88711 0.549848,0.52148 1.490107,1.4196 2.235084,2.14099 0.453611,0.49739 0.435661,0.44173 0.791112,-0.0806 1.33514,-2.3551 1.719705,-4.76967 1.149224,-7.39459 -0.531383,2.12463 -0.776524,4.33966 -1.744479,6.22136 z m 10.841306,-0.66246 c 0.188521,1.79932 -0.22888,2.54609 1.058019,2.53637 -0.0053,-0.67721 -0.0133,-1.90275 -0.0192,-2.85531 0.03301,-0.41781 -0.01526,-0.40796 -0.39555,-0.50121 -2.052504,-0.75673 -3.450517,-2.16138 -5.05582,-3.67617 0.767612,2.03242 2.445482,3.79718 4.412561,4.49608 z m 16.390611,0.16705 c -1.375077,1.1038 -2.053927,1.13825 -1.359483,2.15829 0.50026,-0.33993 1.439696,-0.96798 2.164036,-1.44397 0.329314,-0.17471 0.301164,-0.21866 0.218901,-0.55686 -0.292937,-1.22178 -0.383075,-2.26005 -0.383075,-2.26005 0,0 -0.820033,0.79545 -0.640379,2.10259 z m -3.295019,2.22933 c -1.387533,1.19731 -2.359605,1.32076 -1.586064,2.39446 0.575894,-0.41569 1.600901,-1.14282 2.407898,-1.70128 0.309269,-0.17169 0.283816,-0.2189 0.213141,-0.54148 -0.441526,-1.99259 -0.44932,-4.49129 -0.44932,-4.49129 0,0 -0.956626,2.14415 -0.585653,4.33959 z m 5.06734,-2.14867 c 0.44181,-0.2863 1.315363,-0.84489 1.698394,-1.70129 -1.57161,0.31618 -2.329416,0.72685 -1.698394,1.70129 z m -25.807146,3.55039 c -1.38127,-1.13557 -1.53938,-1.93769 -2.469345,-0.98312 0.565439,0.55297 1.517741,1.49422 2.269647,2.25045 0.46929,0.53031 0.447564,0.47364 0.806472,-0.0864 1.69769,-2.64435 0.638458,-5.8383 0.638458,-5.8383 0,0 -0.228589,2.5381 -1.245232,4.65738 z m 17.337256,1.03306 c -1.341952,1.22279 -2.247484,1.34978 -1.445892,2.3887 0.546417,-0.41994 1.518238,-1.15306 2.285008,-1.71664 0.311531,-0.18477 0.283225,-0.22875 0.193941,-0.55492 -0.616862,-2.2883 -0.532848,-5.26993 -0.532848,-5.26993 0,0 -1.049022,2.61268 -0.500205,5.15279 z m -9.658479,-0.17473 c 0.17812,1.75928 -0.186791,2.35035 1.06378,2.33854 -0.0063,-0.62268 -0.0171,-1.76504 -0.02496,-2.64793 l -0.0038,-0.39171 -0.376355,-0.10369 c -1.648589,-0.6769 -2.739467,-1.86342 -4.092852,-3.08957 0.506916,1.74869 1.830467,3.24286 3.434232,3.89412 z m 4.831156,5.25551 c 0.533461,-0.44049 1.569188,-1.27701 2.361815,-1.89905 0.294224,-0.1879 0.267635,-0.23319 0.180496,-0.54725 -0.687255,-2.49621 -0.531888,-5.61651 -0.531888,-5.61651 0,0 -1.119829,2.76923 -0.501166,5.51282 h 4e-6 c -1.328258,1.25779 -2.09721,1.46605 -1.509261,2.54999 z m -1.190505,-3.7117 c 0,0 -0.82848,1.97105 -0.416678,3.70211 -0.527864,0.4452 -1.05427,0.89311 -1.234671,1.74159 0.925403,-0.11877 1.513584,-0.62143 2.104511,-1.11754 0.29327,-0.1993 0.262702,-0.24368 0.161295,-0.55877 m -8.506374,-2.65562 c -1.394973,-1.19112 -1.607355,-2.18428 -2.601837,-1.20779 0.64804,0.66131 1.696486,1.74892 2.52503,2.63064 0.533546,0.62723 0.499417,0.5701 0.844877,-0.12481 0.226273,-1.42428 0.471752,-2.62121 -0.02784,-3.87876 -0.399054,0.95024 -0.54772,1.73227 -0.740228,2.58072 z m 5.334237,1.56304 c 0.02945,-0.31005 -0.02483,-0.32556 -0.28418,-0.457 -1.090487,-0.55778 -2.662322,-1.8645 -2.662322,-1.8645 0,0 0.576684,1.72986 1.907693,2.5596 l 2e-6,-2e-5 c 0.01004,0.89954 0.0219,1.63838 0.553007,2.56345 0.508658,-1.02039 0.496605,-1.78794 0.4858,-2.80153 z m -15.730062,4.09955 c 0.04497,0.4792 0.08427,0.44907 0.53381,0.42819 0.982778,-0.0415 2.251891,-0.085 2.947469,-0.10562 0.120686,-1.24167 -1.298115,-1.00039 -2.617199,-0.94665 -0.789796,-3.16006 -4.062129,-5.37457 -4.062129,-5.37457 0,0 2.707879,3.20561 3.198051,5.99864 z m -4.629541,0.22466 c 0.04079,0.4941 0.07851,0.46256 0.541488,0.43583 0.983042,-0.0558 2.250742,-0.12175 2.949388,-0.15553 0.09725,-1.24621 -1.306602,-0.97606 -2.624878,-0.90248 -0.818865,-3.48573 -4.241666,-5.46194 -4.241666,-5.46194 0,0 2.850346,2.88662 3.375668,6.08407 z m 9.309007,-0.38787 c 0.03261,0.48106 0.0736,0.4511 0.524208,0.44141 0.851078,-0.0179 1.965778,-0.0306 2.553832,-0.0346 0.135992,-1.15835 -1.038276,-1.03228 -2.219709,-1.01006 -0.691871,-1.97586 -1.825205,-3.38296 -3.64834,-4.4652 0.793698,1.7381 2.45801,3.17774 2.790009,5.06846 z m -14.06336,0.79495 c 0.109769,0.36916 0.157783,0.34638 0.516528,0.32258 1.035177,-0.0674 2.361932,-0.15086 3.104922,-0.19586 0.09327,-1.28005 -1.522557,-0.94817 -2.851457,-0.86216 -1.442814,-3.15635 -4.338634,-4.08325 -4.338634,-4.08325 0,0 2.328689,1.75308 3.568644,4.81868 z m 20.459461,-4.06309 c 0.683929,0.73847 1.741464,1.90664 2.96859,2.52118 -0.913551,-1.51628 -1.818639,-3.58713 -2.96859,-2.52118 z m -1.054179,2.64037 c -0.378014,-1.90069 -2.210121,-2.5596 -2.210121,-2.5596 0,0 1.179687,1.44827 1.296118,3.10876 l 3e-6,-1.2e-4 c -0.0043,0.51304 0.03457,0.48198 0.514603,0.48393 1.171974,0.007 2.344991,0.0274 3.531202,-0.45696 -1.034538,-0.55261 -2.082796,-0.56736 -3.131805,-0.57601 z m -23.612384,1.74146 c 0.124899,0.32381 0.175985,0.30587 0.499245,0.28423 0.835101,-0.0555 1.918959,-0.12828 2.503908,-0.16706 0.06843,-1.17967 -1.109485,-0.96947 -2.290765,-0.89096 -1.274812,-2.16404 -3.417911,-2.20341 -3.417911,-2.20341 0,0 1.652803,0.89616 2.705526,2.97723 z m -4.103413,0.24963 c 0.119014,0.34188 0.167725,0.32335 0.505006,0.30151 0.737566,-0.0464 1.708431,-0.10911 2.212041,-0.14209 0.07268,-1.08762 -0.921122,-0.98348 -2.020025,-0.91401 -0.354208,-0.58548 -0.696839,-1.00618 -1.459332,-0.73064 0.256148,0.67848 0.605637,1.15253 0.76231,1.48523 z m 33.357273,-0.87368 c -0.681944,-0.26261 -0.881416,0.34046 -0.668221,0.7988 3.183467,2.093 5.501193,3.98554 10.513916,7.3809 -3.72291,-3.64578 -6.629527,-6.1018 -9.845695,-8.1797 z m -35.350412,0.80556 c 0.408292,0.49748 0.933977,0.4661 1.163624,0.45216 0.144104,-0.7947 -0.751159,-1.07267 -1.163624,-0.45216 z m 30.872565,1.40264 c -1.746653,-0.57576 -3.442873,0.38596 -3.442873,0.38596 0,0 2.075175,-0.0118 3.452474,0.62598 0.365443,0.21019 0.376118,0.16159 0.622136,-0.14594 0.576407,-0.71358 1.161229,-1.42052 1.356604,-2.45591 -0.934048,0.2991 -1.463506,0.94317 -1.988341,1.58991 z m -2.227403,3.99589 c 0.334728,0.13052 0.352798,0.0815 0.55493,-0.18621 0.491698,-0.64814 1.133515,-1.47329 1.495817,-1.9317 -0.816265,-0.85646 -1.478204,0.19614 -2.148675,1.0753 -2.510868,-0.51867 -5.089423,1.05514 -5.089423,1.05514 0,0 3.116968,-0.59066 5.187351,-0.0125 z m -2.382936,3.15869 c 0.378821,0.19105 0.38668,0.14256 0.616376,-0.18051 0.456425,-0.64307 1.058953,-1.47128 1.392126,-1.92209 -0.823292,-0.80285 -1.412209,0.1628 -2.052667,1.05994 -2.792205,-0.84381 -5.687557,1.10218 -5.687557,1.10218 0,0 3.468435,-0.96371 5.731722,-0.0595 z m -2.123713,3.18172 c 0.364368,0.14269 0.375275,0.0928 0.577972,-0.21122 0.419435,-0.63217 0.979548,-1.45656 1.282677,-1.8952 -0.829135,-0.75462 -1.368894,0.15234 -1.9797,1.0676 -2.713004,-0.55021 -5.369769,1.40078 -5.369769,1.40078 0,0 3.271945,-0.9969 5.48882,-0.36196 z m -2.217803,3.4256 c 0.395712,0.17454 0.399138,0.12545 0.610616,-0.21891 0.415259,-0.6758 0.972036,-1.55583 1.276916,-2.02962 -0.867181,-0.74295 -1.405139,0.26409 -1.98546,1.20203 -2.336705,-0.54954 -3.939238,1.18666 -3.939238,1.18666 0,0 2.029542,-0.82177 4.037166,-0.14016 z m -1.922094,3.11452 c 0.449652,0.26599 0.440927,0.21486 0.683582,-0.2093 0.360075,-0.63242 0.852949,-1.47057 1.109861,-1.90098 -0.840587,-0.66077 -1.294079,0.13813 -1.839524,1.08875 -0.920173,-0.22882 -1.558222,0.45124 -1.558222,0.45124 0,0 0.906131,0.22514 1.604306,0.57029 z m 0.105609,0.81991 c -0.598655,-0.55529 -1.323648,0.13297 -1.037854,0.81511 0.647919,-0.10605 0.920815,-0.60394 1.037854,-0.81511 z"
     id="path3525" />
  <path
     style="font-variation-settings:normal;vector-effect:none;fill:#ffffff;fill-opacity:1;stroke:none;stroke-width:0.132292;stroke-linecap:butt;stroke-linejoin:miter;stroke-miterlimit:5;stroke-dasharray:none;stroke-dashoffset:0;stroke-opacity:1;stop-color:#000000"
     d="m 69.31134,8.035986 h -7.501054 c 0.264266,-0.692355 2.72722,-4.431785 4.33555,-6.601859 z"
     id="path3115" />
  <path
     style="font-variation-settings:normal;vector-effect:none;fill:#990000;fill-opacity:1;stroke:none;stroke-width:0.132292;stroke-linecap:butt;stroke-linejoin:miter;stroke-miterlimit:5;stroke-dasharray:none;stroke-dashoffset:0;stroke-opacity:1;stop-color:#000000"
     d="M 66.943348,7.527906 66.145836,2.461825 c 0.130241,-0.4511 0.08597,-0.810153 0,-1.027698 1.60833,2.170074 4.071283,5.909504 4.335549,6.601859 z"
     id="path3123" />
  <path
     style="font-variation-settings:normal;vector-effect:none;fill:#c7c7c7;fill-opacity:1;stroke:none;stroke-width:0.132292;stroke-linecap:butt;stroke-linejoin:miter;stroke-miterlimit:5;stroke-dasharray:none;stroke-dashoffset:0;stroke-opacity:1;stop-color:#000000"
     d="m 62.720212,8.035986 c 0.208804,-0.632615 2.251339,-3.741898 3.425624,-5.574161 1.174285,1.832263 3.21682,4.941546 3.425623,5.574161 L 66.943348,7.527906 C 66.894738,7.243804 66.441683,5.709358 66.145835,4.818885 65.849987,5.709358 65.396937,7.243804 65.348321,7.527906 Z"
     id="path3119" />
  <path
     style="font-variation-settings:normal;vector-effect:none;fill:#ffffff;fill-opacity:1;stroke:none;stroke-width:0.132292;stroke-linecap:butt;stroke-linejoin:miter;stroke-miterlimit:5;stroke-dasharray:none;stroke-dashoffset:0;stroke-opacity:1;stop-color:#000000"
     d="m 86.073536,24.305991 -2.40228,-7.133926 c 0.76706,0.03738 5.24164,1.224244 7.89566,2.083266 z"
     id="path3178" />
  <path
     style="font-variation-settings:normal;vector-effect:none;fill:#990000;fill-opacity:1;stroke:none;stroke-width:0.132292;stroke-linecap:butt;stroke-linejoin:miter;stroke-miterlimit:5;stroke-dasharray:none;stroke-dashoffset:0;stroke-opacity:1;stop-color:#000000"
     d="m 85.815966,21.896892 4.738,-2.323985 c 0.48634,-0.01553 0.82606,-0.168584 1.01295,-0.317576 -1.62386,2.200203 -4.52087,5.698158 -5.11866,6.163439 z"
     id="path3180" />
  <path
     style="font-variation-settings:normal;vector-effect:none;fill:#c7c7c7;fill-opacity:1;stroke:none;stroke-width:0.132292;stroke-linecap:butt;stroke-linejoin:miter;stroke-miterlimit:5;stroke-dasharray:none;stroke-dashoffset:0;stroke-opacity:1;stop-color:#000000"
     d="m 83.958386,18.024725 c 0.69311,0.0031 4.41352,0.997571 6.59558,1.548182 -1.42991,1.683012 -3.83399,4.597591 -4.39283,4.993203 l -0.34517,-2.669218 c 0.26446,-0.134019 1.6318,-1.039074 2.41475,-1.595614 -0.97245,-0.0062 -2.62998,0.0371 -2.92558,0.07865 z"
     id="path3182" />
  <path
     style="font-variation-settings:normal;vector-effect:none;fill:#990000;fill-opacity:1;stroke:none;stroke-width:0.132292;stroke-linecap:butt;stroke-linejoin:miter;stroke-miterlimit:5;stroke-dasharray:none;stroke-dashoffset:0;stroke-opacity:1;stop-color:#000000"
     d="m 80.932446,40.201207 c 0.19316,0.715458 0.39857,5.188408 0.37295,7.889387 -2.57671,-0.810274 -6.767261,-2.387848 -7.388013,-2.792643 z"
     id="path3170" />
  <path
     style="font-variation-settings:normal;vector-effect:none;fill:#c7c7c7;fill-opacity:1;stroke:none;stroke-width:0.132292;stroke-linecap:butt;stroke-linejoin:miter;stroke-miterlimit:5;stroke-dasharray:none;stroke-dashoffset:0;stroke-opacity:1;stop-color:#000000"
     d="m 80.245986,40.699954 c 0.20655,0.645901 0.32838,4.386656 0.45534,6.559216 -2.02699,-0.792105 -5.547016,-2.063929 -6.097476,-2.459967 z"
     id="path3297" />
  <path
     style="font-variation-settings:normal;vector-effect:none;fill:#ffffff;fill-opacity:1;stroke:none;stroke-width:0.132292;stroke-linecap:butt;stroke-linejoin:miter;stroke-miterlimit:5;stroke-dasharray:none;stroke-dashoffset:0;stroke-opacity:1;stop-color:#000000"
     d="m 77.078356,43.62939 c 0.20631,0.201274 1.47477,1.176365 2.23753,1.722877 -0.28407,-0.894303 -0.81946,-2.401991 -0.94713,-2.660411 z"
     id="path3174" />
  <path
     style="font-variation-settings:normal;vector-effect:none;fill:#ffffff;fill-opacity:1;stroke:none;stroke-width:0.132292;stroke-linecap:butt;stroke-linejoin:miter;stroke-miterlimit:5;stroke-dasharray:none;stroke-dashoffset:0;stroke-opacity:1;stop-color:#000000"
     d="m 46.218079,24.305993 2.40228,-7.133926 c -0.767058,0.03738 -5.241631,1.224244 -7.895659,2.083266 z"
     id="path3130" />
  <path
     style="font-variation-settings:normal;vector-effect:none;fill:#990000;fill-opacity:1;stroke:none;stroke-width:0.132292;stroke-linecap:butt;stroke-linejoin:miter;stroke-miterlimit:5;stroke-dasharray:none;stroke-dashoffset:0;stroke-opacity:1;stop-color:#000000"
     d="m 46.475658,21.896894 -4.738002,-2.323985 c -0.48634,-0.01553 -0.826066,-0.168584 -1.012956,-0.317576 1.623864,2.200203 4.520871,5.698158 5.118661,6.163439 z"
     id="path3132" />
  <path
     style="font-variation-settings:normal;vector-effect:none;fill:#c7c7c7;fill-opacity:1;stroke:none;stroke-width:0.132292;stroke-linecap:butt;stroke-linejoin:miter;stroke-miterlimit:5;stroke-dasharray:none;stroke-dashoffset:0;stroke-opacity:1;stop-color:#000000"
     d="m 48.333234,18.024727 c -0.693109,0.0031 -4.413522,0.997571 -6.595578,1.548182 1.429906,1.683012 3.833987,4.597591 4.392831,4.993203 l 0.345171,-2.669218 c -0.264461,-0.134019 -1.6318,-1.039074 -2.414751,-1.595614 0.972447,-0.0062 2.629976,0.0371 2.925573,0.07865 z"
     id="path3134" />
  <path
     style="font-variation-settings:normal;vector-effect:none;fill:#ffffff;fill-opacity:1;stroke:none;stroke-width:0.132292;stroke-linecap:butt;stroke-linejoin:miter;stroke-miterlimit:5;stroke-dasharray:none;stroke-dashoffset:0;stroke-opacity:1;stop-color:#000000"
     d="m 57.427655,44.610213 -6.06848,-4.409008 c -0.19316,0.715459 -0.39857,5.188408 -0.372941,7.889388 z"
     id="path3200" />
  <path
     style="font-variation-settings:normal;vector-effect:none;fill:#990000;fill-opacity:1;stroke:none;stroke-width:0.132292;stroke-linecap:butt;stroke-linejoin:miter;stroke-miterlimit:5;stroke-dasharray:none;stroke-dashoffset:0;stroke-opacity:1;stop-color:#000000"
     d="m 55.213268,43.629388 -3.622969,3.62978 c -0.159783,0.441501 -0.406641,0.705962 -0.604065,0.831425 2.576704,-0.810275 6.767256,-2.387849 7.388008,-2.792644 z"
     id="path3202" />
  <path
     style="font-variation-settings:normal;vector-effect:none;fill:#c7c7c7;fill-opacity:1;stroke:none;stroke-width:0.132292;stroke-linecap:butt;stroke-linejoin:miter;stroke-miterlimit:5;stroke-dasharray:none;stroke-dashoffset:0;stroke-opacity:1;stop-color:#000000"
     d="m 52.045642,40.699952 c -0.206553,0.645901 -0.328382,4.386656 -0.455343,6.559216 2.026994,-0.792105 5.547016,-2.063928 6.097476,-2.459967 l -2.474507,-1.169813 c -0.206314,0.201274 -1.474771,1.176365 -2.237524,1.722877 0.28406,-0.894302 0.81946,-2.401991 0.94712,-2.66041 z"
     id="path3204" />
  <path
     style="font-variation-settings:normal;vector-effect:none;fill:#ffffff;fill-opacity:1;stroke:none;stroke-width:0.132292;stroke-linecap:butt;stroke-linejoin:miter;stroke-miterlimit:5;stroke-dasharray:none;stroke-dashoffset:0;stroke-opacity:1;stop-color:#000000"
     d="m 63.609724,49.003165 -0.929182,42.000183 0.833125,0.431067 4.7384,-4.64216 -1.291251,-37.799252 z"
     id="path3299" />
  <path
     style="font-variation-settings:normal;vector-effect:none;fill:#990000;fill-opacity:1;stroke:none;stroke-width:0.132292;stroke-linecap:butt;stroke-linejoin:miter;stroke-miterlimit:5;stroke-dasharray:none;stroke-dashoffset:0;stroke-opacity:1;stop-color:#000000"
     d="m 69.611125,86.216542 -0.611926,-38.297265 -2.038383,1.073726 1.291251,37.799252 z"
     id="path3301" />
  <path
     style="font-variation-settings:normal;vector-effect:none;fill:#c7c7c7;fill-opacity:1;stroke:none;stroke-width:0.132292;stroke-linecap:butt;stroke-linejoin:miter;stroke-miterlimit:5;stroke-dasharray:none;stroke-dashoffset:0;stroke-opacity:1;stop-color:#000000"
     d="m 68.452519,86.090672 -0.537794,-37.23531 -1.703804,0.287152 c 0.767621,3.330237 -0.531211,5.857314 -0.557402,11.705374 -0.856435,-4.89913 0.540033,-7.24304 -0.209023,-11.566024 l -0.724618,-0.418049 -0.734894,41.071769 z"
     id="path3323" />
  <path
     id="path2948"
     style="fill:#990000;fill-opacity:1;fill-rule:evenodd;stroke:none;stroke-width:0.264587;stroke-miterlimit:5;stroke-dasharray:none"
     d="m 67.747275,14.32279 c -0.02196,0.233649 -0.03433,0.47011 -0.03433,0.709503 0,4.136962 3.353674,7.490632 7.490635,7.490632 4.136956,0 7.490626,-3.35367 7.490626,-7.490632 0,-3.583357 -2.51682,-6.577307 -5.878719,-7.314893 z" />
  <path
     id="path2950"
     style="fill:#ffffff;fill-opacity:1;fill-rule:evenodd;stroke:none;stroke-width:0.264587;stroke-miterlimit:5;stroke-dasharray:none"
     d="m 75.203579,7.541658 c -3.860302,1.18e-4 -7.088344,2.933913 -7.456304,6.776638 0.0058,0.251774 0.02345,0.501407 0.05255,0.748055 0.404339,3.426912 3.013387,6.277244 6.512435,6.277361 3.812606,0 7.681896,-4.091238 7.439216,-7.234825 -0.24268,-3.143587 -1.6874,-4.970113 -4.0389,-6.134824 -0.805533,-0.286251 -1.65412,-0.432499 -2.509001,-0.432405 z" />
  <circle
     style="fill:#d6af5c;fill-opacity:1;fill-rule:evenodd;stroke:none;stroke-width:0.264584;stroke-miterlimit:5;stroke-dasharray:none"
     id="circle2952"
     cx="75.203552"
     cy="15.032114"
     r="6.6655316" />
  <path
     id="path2954"
     style="fill:#990000;fill-opacity:1;fill-rule:evenodd;stroke:none;stroke-width:0.264587;stroke-miterlimit:5;stroke-dasharray:none"
     d="m 77.141216,9.633789 a 5.1765064,5.1765064 0 0 1 2.84455,4.621157 5.1765064,5.1765064 0 0 1 -5.176583,5.17658 5.1765064,5.1765064 0 0 1 -5.170859,-4.942396 5.4847819,5.4847819 0 0 0 -0.0057,0.24236 5.4847819,5.4847819 0 0 0 5.484739,5.484738 5.4847819,5.4847819 0 0 0 5.484743,-5.484738 5.4847819,5.4847819 0 0 0 -3.46087,-5.097701 z" />
  <path
     id="path2837"
     style="fill:#990000;fill-opacity:1;fill-rule:evenodd;stroke:none;stroke-width:0.264582;stroke-miterlimit:5;stroke-dasharray:none"
     d="m 73.550911,31.263304 c -0.02205,0.230254 -0.03447,0.46328 -0.03447,0.699194 0,4.076858 3.367149,7.381803 7.520735,7.381803 4.15358,0 7.52073,-3.304945 7.52073,-7.381803 0,-3.531295 -2.52693,-6.481746 -5.90235,-7.208616 z" />
  <ellipse
     style="fill:#d6af5c;fill-opacity:1;fill-rule:evenodd;stroke:none;stroke-width:0.264584;stroke-miterlimit:5;stroke-dasharray:none"
     id="circle2841"
     cx="81.037148"
     cy="31.962324"
     rx="6.6923141"
     ry="6.5686898" />
  <path
     style="fill:#ffffff;fill-opacity:1;fill-rule:evenodd;stroke:none;stroke-width:0.264582;stroke-miterlimit:5;stroke-dasharray:none"
     d="m 80.252296,28.821399 a 1.2993265,1.2753245 0 0 1 -1.29933,1.275324 1.2993265,1.2753245 0 0 1 -1.29932,-1.275324 1.2993265,1.2753245 0 0 1 1.29932,-1.275325 1.2993265,1.2753245 0 0 1 1.29933,1.275325 z"
     id="path2845" />
  <path
     id="circle855-1-9"
     style="fill:#990000;fill-opacity:1;fill-rule:evenodd;stroke:none;stroke-width:0.264583;stroke-miterlimit:5;stroke-dasharray:none"
     d="m 85.344256,33.720536 c -1.49563,2.456493 -4.69948,3.23539 -7.15593,1.739696 l -0.14577,0.835422 c 2.60269,1.584663 5.99721,0.759416 7.58192,-1.843253 1.17597,-1.931426 1.05439,-4.384887 -0.30677,-6.190569 1.03828,1.668768 1.04854,3.779933 0.0265,5.458704 z" />
  <path
     id="path2849"
     style="fill:#990000;fill-opacity:1;fill-rule:evenodd;stroke:none;stroke-width:0.264582;stroke-miterlimit:5;stroke-dasharray:none"
     d="m 44.812464,35.921426 c 0.12133,0.196932 0.252013,0.390264 0.394342,0.578407 2.45961,3.251321 7.13884,3.855602 10.451351,1.349703 3.31251,-2.505899 4.003926,-7.173048 1.544316,-10.424369 -2.130466,-2.816231 -5.92575,-3.644711 -9.056191,-2.187975 z" />
  <path
     id="path2851"
     style="fill:#ffffff;fill-opacity:1;fill-rule:evenodd;stroke:none;stroke-width:0.264582;stroke-miterlimit:5;stroke-dasharray:none"
     d="m 46.751123,26.075461 c -3.090917,2.338409 -3.931373,6.599473 -1.941331,9.842433 0.154315,0.194376 0.316887,0.379861 0.486833,0.556077 2.361211,2.448357 5.813209,2.669569 8.615005,0.550168 3.052795,-2.309425 4.050297,-7.430039 1.986977,-9.753647 -2.063318,-2.323609 -4.306073,-2.883996 -6.881415,-2.374984 -0.815188,0.262968 -1.581612,0.662048 -2.266069,1.179953 z" />
  <ellipse
     style="fill:#d6af5c;fill-opacity:1;fill-rule:evenodd;stroke:none;stroke-width:0.264584;stroke-miterlimit:5;stroke-dasharray:none"
     id="circle2853"
     cx="21.552721"
     cy="56.382397"
     transform="rotate(-37.107337)"
     rx="6.6923141"
     ry="6.5686898" />
  <path
     id="path2855"
     style="fill:#990000;fill-opacity:1;fill-rule:evenodd;stroke:none;stroke-width:0.264583;stroke-miterlimit:5;stroke-dasharray:none"
     d="m 53.594172,35.505569 c -1.850699,1.242848 -4.598724,1.223879 -6.840086,-0.703545 1.590641,2.572105 5.088568,2.959122 7.539299,1.131303 z" />
  <path
     style="fill:#ffffff;fill-opacity:1;fill-rule:evenodd;stroke:none;stroke-width:0.264583;stroke-miterlimit:5;stroke-dasharray:none"
     d="m 47.937812,30.48218 a 1.1720525,1.1941108 52.892653 0 1 -0.245199,1.655138 1.1720525,1.1941108 52.892653 0 1 -1.659422,-0.214301 1.1720525,1.1941108 52.892653 0 1 0.2452,-1.655138 1.1720525,1.1941108 52.892653 0 1 1.659421,0.214301 z"
     id="path2857" />
  <path
     id="path2903"
     style="fill:#990000;fill-opacity:1;fill-rule:evenodd;stroke:none;stroke-width:0.264582;stroke-miterlimit:5;stroke-dasharray:none"
     d="m 57.695369,40.250039 c -0.02489,0.264802 -0.03891,0.532791 -0.03891,0.804103 0,4.688554 3.800827,8.489376 8.489379,8.489376 4.688551,0 8.489375,-3.800822 8.489375,-8.489376 0,-4.061135 -2.852394,-7.454275 -6.662549,-8.290205 z" />
  <path
     id="circle2907"
     style="fill:#d6af5c;fill-opacity:1;fill-rule:evenodd;stroke:none;stroke-width:0.264583;stroke-miterlimit:5;stroke-dasharray:none"
     d="m 73.700097,41.053939 c 0,4.172105 -3.382159,7.554263 -7.554263,7.554263 -4.172104,0 -7.554263,-3.382158 -7.554263,-7.554263 l 7.554265,-3.099397 z" />
  <path
     id="path2909"
     style="fill:#990000;fill-opacity:1;fill-rule:evenodd;stroke:none;stroke-width:0.264582;stroke-miterlimit:5;stroke-dasharray:none"
     d="m 61.998772,44.734962 c 2.347114,1.853261 6.061794,1.853261 8.543842,-1e-6 -2.236578,2.865391 -6.172329,2.865392 -8.543842,1e-6 z" />
  <path
     id="path2738"
     style="fill:#990000;fill-opacity:1;fill-rule:evenodd;stroke:none;stroke-width:0.264583;stroke-miterlimit:5;stroke-dasharray:none"
     d="m 50.619794,37.231164 c -0.02281,0.238218 -0.03566,0.479304 -0.03566,0.723378 0,4.217864 3.483608,7.637117 7.780852,7.637117 4.297243,0 7.780849,-3.419253 7.780849,-7.637117 0,-3.653432 -2.614333,-6.705931 -6.10649,-7.457941 z" />
  <path
     id="path2740"
     style="fill:#ffffff;fill-opacity:1;fill-rule:evenodd;stroke:none;stroke-width:0.264583;stroke-miterlimit:5;stroke-dasharray:none"
     d="m 60.971196,30.758283 c -0.836743,-0.291849 -1.718207,-0.440957 -2.60621,-0.440861 -4.009866,1.2e-4 -7.362975,2.991288 -7.745192,6.90916 0.006,0.256698 0.02436,0.511213 0.05459,0.762684 0.420005,3.493928 3.130138,5.831105 6.764754,5.831225 z" />
  <ellipse
     style="fill:#d6af5c;fill-opacity:1;fill-rule:evenodd;stroke:none;stroke-width:0.264583;stroke-miterlimit:5;stroke-dasharray:none"
     id="circle2742"
     cx="58.36496"
     cy="37.954357"
     rx="6.9237814"
     ry="6.7958813" />
  <path
     id="path2804"
     style="fill:#990000;fill-opacity:1;fill-rule:evenodd;stroke:none;stroke-width:0.264582;stroke-miterlimit:5;stroke-dasharray:none"
     d="m 58.125063,42.369384 c -2.784208,-1.89e-4 -5.075716,-2.190452 -5.201634,-4.971811 -0.0038,0.08121 -0.0057,0.162501 -0.0058,0.243801 2.4e-5,3.047156 2.470227,5.517358 5.517383,5.517381 3.047156,-2.3e-5 5.812964,-2.56876 5.010357,-6.545353 -0.01431,3.917246 -2.444295,5.756023 -5.320274,5.755982 z" />
  <path
     style="fill:#ffffff;fill-opacity:1;fill-rule:evenodd;stroke:none;stroke-width:0.264583;stroke-miterlimit:5;stroke-dasharray:none"
     d="m 57.552957,34.704801 a 1.3442663,1.3194342 0 0 1 -1.344266,1.319433 1.3442663,1.3194342 0 0 1 -1.344266,-1.319433 1.3442663,1.3194342 0 0 1 1.344266,-1.319434 1.3442663,1.3194342 0 0 1 1.344266,1.319434 z"
     id="path2746" />
  <path
     id="path3002"
     style="fill:#ffffff;fill-opacity:1;fill-rule:evenodd;stroke:none;stroke-width:0.264588;stroke-miterlimit:5;stroke-dasharray:none"
     d="m 57.088097,7.541657 c 4.136961,0 7.490632,3.353669 7.490632,7.490633 0,4.136964 -3.353671,7.490633 -7.490632,7.490633 -4.136961,0 -7.490634,-3.353669 -7.490634,-7.490633 0,-4.136964 3.353673,-7.490633 7.490634,-7.490633 z" />
  <circle
     style="fill:#d6af5c;fill-opacity:1;fill-rule:evenodd;stroke:none;stroke-width:0.264584;stroke-miterlimit:5;stroke-dasharray:none"
     id="circle2964"
     cx="57.088074"
     cy="15.032114"
     r="6.6655316" />
  <path
     style="fill:#ffffff;fill-opacity:1;fill-rule:evenodd;stroke:none;stroke-width:0.264587;stroke-miterlimit:5;stroke-dasharray:none"
     d="m 56.306358,11.844884 a 1.2941266,1.2941266 0 0 1 -1.294126,1.294126 1.2941266,1.2941266 0 0 1 -1.294127,-1.294126 1.2941266,1.2941266 0 0 1 1.294127,-1.294126 1.2941266,1.2941266 0 0 1 1.294126,1.294126 z"
     id="path2987" />
  <path
     id="path2626"
     style="fill:#990000;fill-opacity:1;fill-rule:evenodd;stroke:none;stroke-width:0.264584;stroke-miterlimit:5;stroke-dasharray:none"
     d="m 45.160349,24.612529 c 0.04412,0.26002 0.09947,0.520303 0.169104,0.78017 1.203306,4.490797 5.819289,7.155832 10.310083,5.952527 4.490794,-1.203304 7.155833,-5.819283 5.952527,-10.31008 -1.042279,-3.88984 -4.645204,-6.407801 -8.509189,-6.230607 z" />
  <path
     id="path2628"
     style="fill:#ffffff;fill-opacity:1;fill-rule:evenodd;stroke:none;stroke-width:0.264584;stroke-miterlimit:5;stroke-dasharray:none"
     d="m 54.328994,30.32441 c -3.798356,1.017631 -7.459621,-1.317604 -8.895319,-4.920011 -0.103334,-0.259278 -0.195131,-0.525122 -0.274633,-0.79675 -0.718289,-4.27842 1.932502,-8.402071 6.122941,-9.525032 4.490795,-1.203305 9.106777,1.46173 10.310082,5.952527 z" />
  <circle
     style="fill:#d6af5c;fill-opacity:1;fill-rule:evenodd;stroke:none;stroke-width:0.264584;stroke-miterlimit:5;stroke-dasharray:none"
     id="circle2630"
     cx="53.460732"
     cy="23.21372"
     r="7.4908781" />
  <path
     id="path2632"
     style="fill:#990000;fill-opacity:1;fill-rule:evenodd;stroke:none;stroke-width:0.264583;stroke-miterlimit:5;stroke-dasharray:none"
     d="m 57.306333,26.271094 c -1.06349,1.159737 -2.59124,1.886813 -4.288804,1.886789 -3.110445,-2.11e-4 -5.670457,-2.447117 -5.81113,-5.554378 -0.0041,0.09073 -0.0063,0.181545 -0.0064,0.27237 2.8e-5,3.404203 2.759674,6.163848 6.163877,6.163874 1.812366,-1.4e-5 3.442038,-0.782212 4.569853,-2.027436 z" />
  <path
     style="fill:#ffffff;fill-opacity:1;fill-rule:evenodd;stroke:none;stroke-width:0.264583;stroke-miterlimit:5;stroke-dasharray:none"
     d="m 52.582222,19.63184 a 1.4543693,1.4543693 0 0 1 -1.454369,1.454369 1.4543693,1.4543693 0 0 1 -1.454369,-1.454369 1.4543693,1.4543693 0 0 1 1.454369,-1.454369 1.4543693,1.4543693 0 0 1 1.454369,1.454369 z"
     id="path2653" />
  <path
     id="path2750"
     style="fill:#990000;fill-opacity:1;fill-rule:evenodd;stroke:none;stroke-width:0.264583;stroke-miterlimit:5;stroke-dasharray:none"
     d="m 66.181496,37.231164 c -0.02281,0.238218 -0.03566,0.479304 -0.03566,0.723378 0,4.217864 3.483609,7.637117 7.780852,7.637117 4.297238,0 7.780848,-3.419253 7.780848,-7.637117 0,-3.653432 -2.61433,-6.705931 -6.106489,-7.457941 z" />
  <path
     id="path2752"
     style="fill:#ffffff;fill-opacity:1;fill-rule:evenodd;stroke:none;stroke-width:0.264583;stroke-miterlimit:5;stroke-dasharray:none"
     d="m 73.926687,30.317422 c -4.009866,1.2e-4 -7.362975,2.991288 -7.745191,6.90916 0.006,0.256698 0.02436,0.511213 0.05459,0.762684 0.420005,3.493928 3.130138,5.831105 6.764753,5.831225 3.960321,0 7.979517,-3.602351 7.727437,-6.807413 -0.25208,-3.205062 -1.6831,-5.589869 -4.195379,-6.254795 -0.836742,-0.291849 -1.718207,-0.440957 -2.60621,-0.440861 z" />
  <ellipse
     style="fill:#d6af5c;fill-opacity:1;fill-rule:evenodd;stroke:none;stroke-width:0.264583;stroke-miterlimit:5;stroke-dasharray:none"
     id="circle2754"
     cx="73.926666"
     cy="37.954357"
     rx="6.9237814"
     ry="6.7958813" />
  <path
     id="circle855-1"
     style="fill:#990000;fill-opacity:1;fill-rule:evenodd;stroke:none;stroke-width:0.264582;stroke-miterlimit:5;stroke-dasharray:none"
     d="m 76.032679,32.513333 a 5.2073148,5.2073148 0 0 1 2.861477,4.64866 5.2073148,5.2073148 0 0 1 -5.207392,5.20739 5.2073148,5.2073148 0 0 1 -5.201633,-4.971811 5.517425,5.517425 0 0 0 -0.0058,0.243802 5.517425,5.517425 0 0 0 5.517383,5.517381 5.517425,5.517425 0 0 0 5.517382,-5.517381 5.517425,5.517425 0 0 0 -3.48146,-5.128041 z" />
  <path
     id="path2694"
     style="fill:#990000;fill-opacity:1;fill-rule:evenodd;stroke:none;stroke-width:0.264583;stroke-miterlimit:5;stroke-dasharray:none"
     d="m 70.452092,22.416568 c -0.02468,0.26258 -0.03858,0.528321 -0.03858,0.797356 0,4.649214 3.768935,8.418145 8.418144,8.418145 4.64921,0 8.41815,-3.768931 8.41815,-8.418145 0,-4.027059 -2.82846,-7.391729 -6.60665,-8.220645 z" />
  <path
     id="path2696"
     style="fill:#ffffff;fill-opacity:1;fill-rule:evenodd;stroke:none;stroke-width:0.264583;stroke-miterlimit:5;stroke-dasharray:none"
     d="m 78.831656,14.795776 c -4.338294,1.32e-4 -7.966042,3.297198 -8.379564,7.615741 0.0065,0.28295 0.02636,0.563494 0.05906,0.840682 0.454406,3.851243 3.386514,6.427437 7.318824,6.427569 4.2847,0 8.63309,-3.970754 8.36036,-7.503589 -0.27273,-3.532836 -1.89634,-5.585528 -4.539,-6.894457 -0.90528,-0.321695 -1.85894,-0.486052 -2.81968,-0.485946 z" />
  <circle
     style="fill:#d6af5c;fill-opacity:1;fill-rule:evenodd;stroke:none;stroke-width:0.264584;stroke-miterlimit:5;stroke-dasharray:none"
     id="circle2698"
     cx="78.831627"
     cy="23.21372"
     r="7.4908781" />
  <path
     id="path2700"
     style="fill:#990000;fill-opacity:1;fill-rule:evenodd;stroke:none;stroke-width:0.264583;stroke-miterlimit:5;stroke-dasharray:none"
     d="m 83.016636,27.29301 c 1.37773,-1.534604 1.88198,-2.857916 1.88199,-4.417135 0,-2.526227 -1.54145,-4.796721 -3.88939,-5.728915 h -1e-5 c 1.96026,0.989132 3.19662,2.997682 3.19676,5.193364 2e-5,1.515403 -0.34598,2.833746 -1.87713,4.279145 -1.53115,1.4454 -4.17005,2.087876 -6.656921,1.232167 2.476681,1.799131 5.966971,0.975979 7.344701,-0.558626 z" />
  <path
     style="fill:#ffffff;fill-opacity:1;fill-rule:evenodd;stroke:none;stroke-width:0.264583;stroke-miterlimit:5;stroke-dasharray:none"
     d="m 77.953116,19.63184 a 1.4543693,1.4543693 0 0 1 -1.454365,1.454369 1.4543693,1.4543693 0 0 1 -1.454369,-1.454369 1.4543693,1.4543693 0 0 1 1.454369,-1.454369 1.4543693,1.4543693 0 0 1 1.454365,1.454369 z"
     id="path2702" />
  <path
     id="path2596"
     style="fill:#990000;fill-opacity:1;fill-rule:evenodd;stroke:none;stroke-width:0.26458;stroke-miterlimit:5;stroke-dasharray:none"
     d="m 66.145837,21.2209 c 4.396122,0 7.959886,-3.264823 7.959886,-7.292188 0,-3.488426 -2.674489,-6.403059 -6.247,-7.121105 z" />
  <path
     id="path2725"
     style="fill:#ffffff;fill-opacity:1;fill-rule:evenodd;stroke:none;stroke-width:0.264581;stroke-miterlimit:5;stroke-dasharray:none"
     d="m 66.145837,21.2209 c -4.396123,0 -7.959888,-3.264823 -7.959888,-7.292189 0,-4.027367 3.563765,-7.29219 7.959888,-7.29219 0.908436,-9.2e-5 1.810184,0.142281 2.666179,0.420949 2.498807,1.133855 4.034032,2.911992 4.291913,5.972298 z" />
  <ellipse
     style="fill:#d6af5c;fill-opacity:1;fill-rule:evenodd;stroke:none;stroke-width:0.264583;stroke-miterlimit:5;stroke-dasharray:none"
     id="circle2600"
     cx="66.145813"
     cy="13.928537"
     rx="7.0830975"
     ry="6.4889469" />
  <path
     id="path2602"
     style="fill:#990000;fill-opacity:1;fill-rule:evenodd;stroke:none;stroke-width:0.264581;stroke-miterlimit:5;stroke-dasharray:none"
     d="m 66.166379,19.532712 c 3.156931,-2.3e-5 5.716123,-2.471394 5.716149,-5.519991 -10e-7,-2.262337 -1.429487,-4.295654 -3.606883,-5.13047 h 5e-6 c 1.817877,0.885806 2.96443,2.684541 2.964561,4.650861 4.3e-5,2.87734 -2.4154,5.209896 -5.394988,5.209855 z" />
  <path
     style="fill:#ffffff;fill-opacity:1;fill-rule:evenodd;stroke:none;stroke-width:0.264581;stroke-miterlimit:5;stroke-dasharray:none"
     d="m 65.454473,11.208953 a 1.3751978,1.2946797 0 0 1 -1.375197,1.29468 1.3751978,1.2946797 0 0 1 -1.375197,-1.29468 1.3751978,1.2946797 0 0 1 1.375197,-1.294679 1.3751978,1.2946797 0 0 1 1.375197,1.294679 z"
     id="path2612" />
  <path
     id="path851"
     style="fill:#990000;fill-opacity:1;fill-rule:evenodd;stroke:none;stroke-width:0.264583;stroke-miterlimit:5;stroke-dasharray:none"
     d="m 56.87704,26.343431 c -0.0273,0.290445 -0.04268,0.584385 -0.04268,0.88197 0,5.142584 4.168891,9.311469 9.311472,9.311469 5.142581,0 9.311469,-4.168885 9.311469,-9.311469 0,-4.454406 -3.128615,-8.17613 -7.307736,-9.093011 z" />
  <path
     id="circle874"
     style="fill:#ffffff;fill-opacity:1;fill-rule:evenodd;stroke:none;stroke-width:0.264583;stroke-miterlimit:5;stroke-dasharray:none"
     d="m 66.145837,17.913929 c -4.798672,1.46e-4 -8.811392,3.647093 -9.268797,8.423915 0.0072,0.312976 0.02915,0.623291 0.06533,0.929894 0.502627,4.259933 3.745887,7.803129 8.095491,7.803275 4.73938,0 9.549219,-5.085745 9.247547,-8.993481 -0.301668,-3.907736 -2.097573,-6.178258 -5.020676,-7.626089 -1.001343,-0.355833 -2.056206,-0.537631 -3.118894,-0.537514 z" />
  <circle
     style="fill:#d6af5c;fill-opacity:1;fill-rule:evenodd;stroke:none;stroke-width:0.264583;stroke-miterlimit:5;stroke-dasharray:none"
     id="circle853"
     cx="66.145805"
     cy="27.22518"
     r="8.2858019" />
  <path
     id="circle855"
     style="fill:#990000;fill-opacity:1;fill-rule:evenodd;stroke:none;stroke-width:0.264583;stroke-miterlimit:5;stroke-dasharray:none"
     d="m 68.554482,20.514618 a 6.4348214,6.4348214 0 0 1 3.536002,5.744477 6.4348214,6.4348214 0 0 1 -6.434913,6.434913 6.4348214,6.4348214 0 0 1 -6.427801,-6.143802 6.8180331,6.8180331 0 0 0 -0.0071,0.301273 6.8180331,6.8180331 0 0 0 6.81798,6.817978 6.8180331,6.8180331 0 0 0 6.817981,-6.817978 6.8180331,6.8180331 0 0 0 -4.302138,-6.336861 z" />
  <path
     id="circle865"
     style="fill:#ffffff;fill-opacity:1;fill-rule:evenodd;stroke:none;stroke-width:0.264583;stroke-miterlimit:5;stroke-dasharray:none"
     d="m 65.869967,20.82859 c 0.957631,0.633212 1.533697,1.704635 1.533793,2.852681 -4.9e-5,1.888884 -1.531283,3.420118 -3.420168,3.420165 -1.498408,1.3e-4 -2.334717,-0.905409 -3.266738,-2.406107 0.291505,1.75027 1.805823,3.033154 3.580203,3.033037 2.004157,-1.69e-4 3.628805,-1.624817 3.628974,-3.628974 8.8e-5,-1.394774 -0.799145,-2.666198 -2.056064,-3.270802 z m -2.043362,5.297397 c 1.532971,1.14e-4 2.775797,-1.242485 2.775966,-2.775456 0.04732,-1.533169 -0.980628,-2.169028 -1.510749,-2.169028 0.447364,0.372803 0.873658,0.988842 0.873658,1.887571 3.2e-5,1.322979 -1.07246,2.39547 -2.395439,2.395439 -1.148784,2.6e-5 -1.578624,-0.778033 -1.969693,-1.488288 -0.0426,1.153462 0.693286,2.149874 2.226257,2.149762 z m 1.347464,-2.862796 a 1.6087053,1.6087053 0 0 1 -1.608705,1.608704 1.6087053,1.6087053 0 0 1 -1.608705,-1.608704 1.6087053,1.6087053 0 0 1 1.608705,-1.608705 1.6087053,1.6087053 0 0 1 1.608705,1.608705 z" />
  <path
     style="fill:#ffffff;fill-opacity:1;fill-rule:evenodd;stroke:none;stroke-width:0.264587;stroke-miterlimit:5;stroke-dasharray:none"
     d="m 76.640242,10.635514 a 1.2941266,1.2941266 0 0 1 -1.294124,1.294127 1.2941266,1.2941266 0 0 1 -1.294127,-1.294127 1.2941266,1.2941266 0 0 1 1.294127,-1.294125 1.2941266,1.2941266 0 0 1 1.294124,1.294125 z"
     id="path3019" />
  <path
     style="font-variation-settings:normal;vector-effect:none;fill:#ffffff;fill-opacity:1;stroke:none;stroke-width:0.132292;stroke-linecap:butt;stroke-linejoin:miter;stroke-miterlimit:5;stroke-dasharray:none;stroke-dashoffset:0;stroke-opacity:1;stop-color:#000000"
     d="m 63.454933,118.6598 c 0,0 0.366956,-14.0189 -0.06967,-17.0753 -0.436631,-3.056412 -1.505261,-4.231592 -1.045125,-8.570022 0.460135,-4.33842 6.619116,-9.37127 10.869286,-8.22163 l -0.05763,2.46067 c 0.590565,0 1.392245,0.18264 1.8866,0.70418 0,0 -3.710189,1.92142 -5.521737,5.68386 -1.811547,3.76244 -3.506975,22.458542 -3.21666,26.209382 z"
     id="path3303" />
  <path
     style="font-variation-settings:normal;vector-effect:none;fill:#990000;fill-opacity:1;stroke:none;stroke-width:0.132292;stroke-linecap:butt;stroke-linejoin:miter;stroke-miterlimit:5;stroke-dasharray:none;stroke-dashoffset:0;stroke-opacity:1;stop-color:#000000"
     d="m 70.515331,108.01995 c -0.209025,-4.87724 -0.167908,-10.876072 1.323823,-14.378392 1.491731,-3.50233 3.199235,-5.68386 3.199235,-5.68386 -0.435467,0.19742 -0.820795,0.24225 -1.114799,0.20902 l -1.74725,-0.32096 c 0.186291,-0.24821 0.537049,-0.53838 0.975449,-0.59224 0.102108,-0.86117 0.131277,-1.50322 0.05763,-2.46067 -0.2295,0.36488 -0.560295,0.47036 -0.870937,0.52256 0,0 -4.401129,2.00896 -5.655277,9.53385 -1.254148,7.524892 1.532848,20.623772 1.532848,20.623772 z"
     id="path3309" />
  <path
     style="color:#000000;font-style:normal;font-variant:normal;font-weight:normal;font-stretch:normal;font-size:medium;line-height:normal;font-family:sans-serif;font-variant-ligatures:normal;font-variant-position:normal;font-variant-caps:normal;font-variant-numeric:normal;font-variant-alternates:normal;font-variant-east-asian:normal;font-feature-settings:normal;font-variation-settings:normal;text-indent:0;text-align:start;text-decoration:none;text-decoration-line:none;text-decoration-style:solid;text-decoration-color:#000000;letter-spacing:normal;word-spacing:normal;text-transform:none;writing-mode:lr-tb;direction:ltr;text-orientation:mixed;dominant-baseline:auto;baseline-shift:baseline;text-anchor:start;white-space:normal;shape-padding:0;shape-margin:0;inline-size:0;clip-rule:nonzero;display:inline;overflow:visible;visibility:visible;isolation:auto;mix-blend-mode:normal;color-interpolation:sRGB;color-interpolation-filters:linearRGB;solid-color:#000000;solid-opacity:1;vector-effect:none;fill:#ffffff;fill-opacity:1;fill-rule:nonzero;stroke:none;stroke-width:0.132292;stroke-linecap:butt;stroke-linejoin:miter;stroke-miterlimit:5;stroke-dasharray:none;stroke-dashoffset:0;stroke-opacity:1;color-rendering:auto;image-rendering:auto;shape-rendering:auto;text-rendering:auto;enable-background:accumulate;stop-color:#000000"
     d="m 93.624166,78.313078 c -0.82307,1.71748 -1.19584,3.28452 -1.54892,5.14133 l 1.18858,-0.0518 c -0.29559,1.58074 -0.5351,3.16021 -0.56832,4.76588 l 1.49581,-0.26691 c 0.0356,1.84638 0.39008,3.64531 1.11562,5.33233 l 1.59183,-0.87368 c 0.6504,1.80868 1.77666,3.18324 3.02811,4.64682 l 4.566304,-15.18735 25.42304,-5.37718 c -0.50246,-1.03839 -1.35155,-1.94701 -2.24276,-2.51352 l 1.25387,-1.06761 c -1.11557,-0.7298 -2.38572,-1.36433 -3.58111,-1.7128 l 0.86215,-1.18666 c -1.33612,-0.70538 -2.9587,-1.3026 -4.21287,-1.49386 l 0.78728,-1.39981 c -1.3571,-0.42413 -2.87774,-0.51619 -4.12454,-0.55492 l 2.73241,-2.44055 -1.04074,-0.52036 2.28118,-2.89755 c -0.3777,-0.21829 -0.86718,-0.49676 -1.20395,-0.6279 l 1.828,-3.56192 c -0.48221,-0.13156 -1.11867,-0.26565 -1.50925,-0.28036 l 0.98313,-3.6733 c -0.52886,-0.259723 -1.19845,-0.31585 -1.62831,-0.328355 l 0.0806,-4.209023 c -1.3048,-0.100798 -2.68318,0.0094 -3.87108,0.307231 l -0.12675,-1.42093 c -1.64004,0.137876 -3.34233,0.530384 -4.73899,1.219309 l -0.20742,-1.31148 c -1.29923,0.371413 -2.60269,0.958915 -3.66177,1.641749 l -0.23041,-1.015768 c -1.62614,0.418497 -3.21645,1.284352 -4.32424,2.327252 l -0.86599,-4.074611 c -0.41424,0.123624 -0.9238,0.306526 -1.2462,0.453162 l -1.77424,-3.963241 c -0.435304,0.190832 -0.894354,0.437322 -1.223154,0.723906 l -2.21588,-2.657522 c -0.39245,0.460035 -0.82612,1.054005 -1.11371,1.459333 -0.83544,-0.724979 -1.65629,-1.463252 -2.56712,-2.090934 -0.99603,0.771807 -1.84585,1.802411 -2.41557,2.824577 l -1.11371,-0.852558 c -0.68856,1.012204 -1.26077,2.174189 -1.60142,3.266217 l -1.26348,-0.664381 c -0.45663,1.189689 -0.73762,2.519654 -0.91401,3.675215 l -1.14057,-0.380195 c -0.51929,1.196411 -0.65055,2.638404 -0.67209,3.719378 h -1.45165 c 5.6e-4,1.431155 0.25094,2.925279 0.62977,4.189829 -1.37952,-0.35739 -2.78618,-0.55226 -4.19751,-0.72007 0.16531,0.59031 0.36788,1.34751 0.49349,1.84337 -1.41988,-0.10046 -2.836895,-0.16482 -4.258946,-0.13249 0.06042,0.71913 0.390404,1.49967 0.643255,1.97011 -1.397129,0.35966 -2.764627,0.83007 -4.015082,1.54958 0.328971,1.19157 0.82067,2.39769 1.459333,3.3795 l -1.555342,0.98697 c 0.892948,1.25581 1.931424,2.48237 2.895624,3.57345 l -1.177068,0.49541 3.21629,3.60992 c -0.439587,0.38287 -0.970403,0.64415 -1.46893,0.9428 l 5.257436,2.49047 -0.60678,1.28652 5.76821,-0.1613 0.27651,1.66288 4.89569,-2.73994 C 78.246056,89.128358 71.365203,103.1479 66.299972,119.85095 l 0.886817,1.13315 C 72.865936,103.79204 80.902646,88.833448 93.624146,78.313088 Z"
     id="path3460" />
  <path
     id="path3554"
     style="font-variation-settings:normal;vector-effect:none;fill:#990000;fill-opacity:1;stroke:none;stroke-width:0.132292;stroke-linecap:butt;stroke-linejoin:miter;stroke-miterlimit:5;stroke-dasharray:none;stroke-dashoffset:0;stroke-opacity:1;stop-color:#000000"
     d="m 96.695166,40.202931 0.0869,1.350895 1.92143,2.66013 0.20779,-1.353434 c -0.51738,-1.056099 -1.36166,-1.830493 -2.21609,-2.657591 z m 3.438964,1.933626 -0.346994,1.190859 1.576464,3.990704 0.54463,-1.218297 c -0.30438,-1.462268 -0.99759,-2.671374 -1.7741,-3.963266 z m 3.02034,3.510091 -0.50958,1.129385 0.54158,3.793582 0.83421,-0.848437 c -0.0247,-1.416248 -0.31752,-2.781384 -0.86621,-4.07453 z m 9.08285,1.121256 -0.72448,1.190354 0.19712,1.576466 0.73464,-1.455044 c -0.0539,-0.439371 -0.13479,-0.875183 -0.20728,-1.311776 z m 4.94633,0.09246 -0.79357,0.999327 0.0493,1.625748 c 0,0 0.83766,-1.198465 0.8708,-1.20407 0.003,-0.477569 -0.0682,-0.948032 -0.12651,-1.421005 z m -8.83899,0.533958 -0.67468,1.155295 0.39424,1.330065 0.5111,-1.469778 z m 12.83681,0.579679 -0.80068,0.871299 -0.29518,4.138546 1.01508,-0.800682 c 0.38339,-1.41464 0.27766,-2.756806 0.0808,-4.209163 z m 1.54751,4.537361 c 0.0168,0.04532 -1.01762,0.620326 -1.01762,0.620326 l -1.23201,3.84287 1.26656,-0.79002 c 0.56834,-1.16435 0.78098,-2.37927 0.98307,-3.673176 z m 0.52633,3.953616 -1.19899,0.65742 -2.01999,3.30077 1.39103,-0.39627 c 0.82515,-1.07864 1.37813,-2.29581 1.82795,-3.56192 z m -0.62439,4.18986 -1.3138,0.31041 -2.5128,2.90653 1.54548,-0.31955 c 0.90464,-0.83766 1.5695,-1.85547 2.28112,-2.89739 z m -1.24014,3.41813 -1.55157,0.24233 -3.9907,3.05438 2.80949,-0.85657 c 0.97278,-0.74504 1.85742,-1.58679 2.73278,-2.44014 z m 1.39205,2.99544 -1.36715,0.59696 -0.88705,1.4779 1.46673,-0.6752 c 0.27905,-0.45703 0.52947,-0.93055 0.78747,-1.39966 z m -49.423246,1.22693 c 0.81065,1.4202 1.940212,2.74416 3.215932,3.61018 l 1.5343,-0.11889 z m 52.848996,1.6664 -1.34428,0.31498 -1.08367,1.42862 1.5658,-0.55681 c 0.29892,-0.38707 0.57811,-0.78878 0.86215,-1.18679 z m -51.101824,2.88621 c 1.565265,1.19109 3.40142,2.05637 5.25726,2.49044 l 1.29907,-0.6254 -4.877239,-1.81119 z m 53.820384,0.0132 -1.55005,0.12497 -1.33057,1.13345 1.62676,-0.19051 z m -42.665214,2.47927 -5.15616,0.55732 -1.34836,0.72752 c 1.9133,0.34582 3.91585,0.32708 5.76836,-0.16155 z m 4.43575,0.0462 -4.15734,1.62574 -0.73819,1.11415 c 1.13228,-0.29181 2.25188,-0.55699 3.30179,-0.93988 0.52214,-0.60054 1.05072,-1.20074 1.59374,-1.80001 z m 38.157324,0.99933 -24.36183,5.43354 -4.656754,13.6822 0.0904,1.50534 0.819984,-1.231 c 1.42168,1.25977 3.06332,2.22737 4.81984,2.92838 0.20158,-0.43831 0.38914,-0.93733 0.43387,-1.37273 0.67206,0.2181 2.8091,0.89871 3.98359,0.81947 0.46117,-0.91694 0.70164,-2.52386 0.75699,-3.14887 l 0.85656,0.003 c 0.27881,-1.24197 0.8091,-2.75582 0.7509,-3.8891 l 0.9851,0.0772 c 0.46492,-1.45169 0.55561,-3.20773 0.31092,-4.44338 1.28272,0.18489 2.57106,0.2003 3.85404,0.0574 0.028,-0.4248 -0.002,-0.96944 -0.0869,-1.27672 1.42881,-0.0784 2.84403,-0.2883 4.20713,-0.71837 -0.029,-0.39324 -0.11376,-0.93781 -0.18798,-1.19442 1.3513,-0.0893 2.61733,-0.47208 3.82711,-1.04251 -0.17787,-0.35409 -0.38857,-0.77006 -0.54361,-1.09433 1.30338,-0.22376 2.34037,-0.7506 3.28554,-1.6476 -0.16343,-0.4229 -0.48354,-0.88376 -0.67621,-1.1558 0.99398,-0.5859 1.94418,-1.275 2.59256,-2.2354 z m -34.536474,6.05946 -1.13345,0.0493 -1.11009,0.95969 1.18883,-0.0518 z m 0.68941,4.38494 -1.37934,0.2464 -0.93328,1.0918 1.4962,-0.26723 z m 2.2664,4.28639 -1.52719,0.83777 -0.43997,1.27926 1.59171,-0.87384 z" />
  <path
     style="font-variation-settings:normal;vector-effect:none;fill:#990000;fill-opacity:1;stroke:none;stroke-width:0.132292;stroke-linecap:butt;stroke-linejoin:miter;stroke-miterlimit:5;stroke-dasharray:none;stroke-dashoffset:0;stroke-opacity:1;stop-color:#000000"
     d="M 93.318596,75.853898 C 80.515516,89.337358 72.450553,106.90523 67.186809,120.98409 l 4.55944,7.35557 c 2.642888,-20.4407 11.792747,-34.934302 21.877917,-50.026582 0.46733,-0.74529 0.81773,-1.34083 0.68974,-1.86505 z"
     id="path3654" />
  <path
     style="font-variation-settings:normal;vector-effect:none;fill:#c7c7c7;fill-opacity:1;stroke:none;stroke-width:0.132292;stroke-linecap:butt;stroke-linejoin:miter;stroke-miterlimit:5;stroke-dasharray:none;stroke-dashoffset:0;stroke-opacity:1;stop-color:#000000"
     d="m 64.848431,119.09825 c 0,0 0.08826,-15.01474 -0.348373,-18.07114 -0.436631,-3.056422 -1.687081,-3.765112 -0.905775,-7.942952 0.781305,-4.17784 4.853439,-7.38002 8.7442,-7.76875 0.07365,0.95745 -0.06004,1.66918 -0.162143,2.53035 0.590565,0 1.148382,-0.0264 1.74725,0.32096 0,0 -1.707504,2.18154 -3.199235,5.68387 -1.491731,3.50232 -1.532848,10.033182 -1.045123,16.303922 l -3.117305,9.59627 z"
     id="path3305" />
  <path
     style="font-variation-settings:normal;vector-effect:none;fill:#c7c7c7;fill-opacity:1;stroke:none;stroke-width:0.132292;stroke-linecap:butt;stroke-linejoin:miter;stroke-miterlimit:5;stroke-dasharray:none;stroke-dashoffset:0;stroke-opacity:1;stop-color:#000000"
     d="m 90.697826,75.386728 c -1.34706,0.95222 -4.15727,1.62575 -4.15727,1.62575 l -0.2787,-1.6722 c 0,0 -2.71732,0.90577 -5.15595,0.5574 l 0.55741,-1.18448 c 0,0 -3.0657,-0.55739 -4.877247,-1.81154 0,0 0.696747,-0.41805 1.323827,-1.1148 0,0 -2.159929,-1.04512 -3.414077,-3.06569 l 1.323822,-0.55741 c 0,0 -1.881221,-2.09024 -3.065695,-3.69277 l 1.532848,-0.97544 c 0,0 -1.114798,-1.32382 -1.672198,-3.20505 0,0 1.6757,-0.96349 4.180497,-1.3935 0,0 -0.557396,-0.69674 -0.766428,-1.67219 0,0 2.926351,-0.0697 4.319851,0.20902 0,0 -0.23226,-0.97545 -0.44128,-1.74187 0,0 2.92635,0.34837 4.38952,0.97544 0,0 -1.04509,-2.43861 -1.11479,-4.598537 h 1.39349 c 0,0 0,-2.508296 0.34838,-3.483746 l 1.25415,0.41805 c 0,0 0.27869,-2.090247 0.76641,-3.55342 l 1.32383,0.696748 c 0,0 0.41805,-1.950897 1.25415,-3.27472 l 1.18447,0.905774 c 0,0 0.90578,-2.020572 2.15992,-3.065697 0,0 1.79362,1.235887 2.68043,2.270506 0,0 0.64048,-0.936084 1.03462,-1.42876 0,0 1.57657,1.527295 1.92144,2.66045 0,0 0.78828,-0.739014 1.08388,-0.886817 0,0 1.478034,2.46338 1.576574,3.990676 0,0 0.83755,-0.394141 1.28096,-0.541943 0,0 0.68974,1.62583 0.54194,3.793605 -0.33319,0.497499 -0.57566,1.116745 -0.1478,1.773627 0,0 1.37949,-2.808247 4.63115,-3.793599 0,0 0.19707,0.886817 0.39414,1.330225 0,0 1.77363,-1.379493 3.44874,-1.921436 0,0 0.14779,0.886816 0.19707,1.576563 0,0 1.87216,-1.379493 4.68042,-1.675098 0,0 0.0985,0.788281 0.0493,1.625831 0,0 1.97071,-0.739015 3.94141,-0.64048 0,0 0.34487,2.561916 -0.29561,4.138484 0,0 0.88682,-0.09854 1.62583,0.147794 0,0 -0.39413,2.51265 -1.23168,3.84288 0,0 0.93609,0 1.57657,0.1478 0,0 -0.78829,2.21704 -2.01998,3.30092 0,0 0.83755,0.29561 1.28096,0.54195 0,0 -1.47803,2.16778 -2.51265,2.90679 0,0 0.73901,0.2956 1.03462,0.44341 0,0 -2.16777,2.1185 -3.99068,3.05459 0,0 3.99068,-0.0985 5.56725,0.29561 0,0 -0.54195,0.98535 -0.88683,1.47802 0,0 2.85753,0.34487 4.33556,1.13316 0,0 -0.73902,1.03462 -1.0839,1.42876 0,0 1.72437,0.1478 3.59654,1.28096 l -1.33023,1.13315 c 0,0 1.97071,0.68975 2.80825,2.26631 0,0 -0.93607,1.37949 -2.80825,2.01997 0,0 0.54195,0.64048 0.83755,1.23169 0,0 -0.93607,0.88682 -3.44873,1.28096 0,0 0.39414,0.83755 0.59122,1.23169 0,0 -1.77364,0.83754 -3.69507,0.68975 0,0 0.19706,0.49268 0.2956,1.33022 0,0 -1.87217,0.59121 -4.28628,0.54194 0,0 0.24634,0.78829 0.24634,1.28096 0,0 -2.21705,0.24635 -4.03995,-0.2956 0,0 0.68975,2.90678 0.14781,4.53262 l -1.28096,-0.0985 c 0,0 0.19707,2.5619 -0.29561,3.9414 -0.60665,0.0493 -1.13315,0 -1.13315,0 0,0 -0.14781,1.9707 -0.54194,3.10386 -1.18448,-0.0408 -2.16778,-0.14781 -4.23702,-1.03462 0,0 0.0493,0.88681 -0.1478,1.37949 0,0 -2.95605,-1.18242 -4.53262,-3.05459 l -0.689744,1.03462 c 0,0 -2.06924,-2.41411 -2.56192,-4.38481 l -1.5273,0.83754 c 0,0 -0.93608,-2.16778 -0.73901,-5.12383 l -1.3795,0.24634 c 0,0 0.0493,-2.36485 0.68976,-4.63116 l -1.13316,0.0493 c 0,0 0.4434,-2.31558 1.28096,-4.08921 0.83755,-1.77363 -0.6988,-2.28961 -1.18695,-1.44041 C 83.194166,92.057688 72.571165,109.586 70.91019,126.66753 l -3.723342,-5.68337 c 5.262301,-17.19572 12.174068,-31.925412 24.625818,-45.667062 -0.38322,-0.53416 -1.1148,0.0697 -1.1148,0.0697 z"
     id="path3448" />
  <path
     style="color:#000000;font-style:normal;font-variant:normal;font-weight:normal;font-stretch:normal;font-size:medium;line-height:normal;font-family:sans-serif;font-variant-ligatures:normal;font-variant-position:normal;font-variant-caps:normal;font-variant-numeric:normal;font-variant-alternates:normal;font-variant-east-asian:normal;font-feature-settings:normal;font-variation-settings:normal;text-indent:0;text-align:start;text-decoration:none;text-decoration-line:none;text-decoration-style:solid;text-decoration-color:#000000;letter-spacing:normal;word-spacing:normal;text-transform:none;writing-mode:lr-tb;direction:ltr;text-orientation:mixed;dominant-baseline:auto;baseline-shift:baseline;text-anchor:start;white-space:normal;shape-padding:0;shape-margin:0;inline-size:0;clip-rule:nonzero;display:inline;overflow:visible;visibility:visible;isolation:auto;mix-blend-mode:normal;color-interpolation:sRGB;color-interpolation-filters:linearRGB;solid-color:#000000;solid-opacity:1;vector-effect:none;fill:#ffffff;fill-opacity:1;fill-rule:nonzero;stroke:none;stroke-width:1;stroke-linecap:butt;stroke-linejoin:miter;stroke-miterlimit:5;stroke-dasharray:none;stroke-dashoffset:0;stroke-opacity:1;color-rendering:auto;image-rendering:auto;shape-rendering:auto;text-rendering:auto;enable-background:accumulate;stop-color:#000000"
     d="m 92.773666,42.925474 c -0.12575,-0.09851 -0.80384,-0.262911 -0.80384,-0.262911 0.0548,0.716058 0.52599,1.082969 0.99658,1.223152 l -3e-5,2e-6 c 0.72366,0.251084 0.6704,0.215543 0.66227,-0.505006 -0.006,-0.550257 -0.0123,-1.101824 -0.53954,-1.646551 -0.36962,0.352664 -0.31838,0.9441 -0.31544,1.191314 z m 0.21955,4.510645 c 0.72306,0.253052 0.67028,0.217684 0.6662,-0.503086 -0.006,-0.881916 -0.016,-2.070969 -0.0211,-2.64984 -0.98205,-0.104652 -1.03635,0.573315 -1.02726,1.659065 -1.16663,-0.750719 -2.58648,-1.816486 -2.58648,-1.816486 0,0 0.81744,2.683326 2.96859,3.310382 z m 0.0346,4.18406 c 0.70203,0.223398 0.651,0.187504 0.64898,-0.505006 -0.002,-0.927812 -0.007,-2.165923 -0.01,-2.788093 -1.04513,-0.128783 -1.03822,0.792182 -1.03484,1.889492 -1.60767,-0.71711 -2.72731,-1.620553 -4.28006,-2.607597 1.00161,1.802892 2.74221,3.486278 4.67563,4.011245 z m 25.131254,-1.311478 c -1.12422,1.240241 -1.81029,1.36517 -0.96393,2.292693 0.47248,-0.431071 1.29955,-1.186601 1.91825,-1.755045 0.42205,-0.333138 0.37011,-0.340437 0.0423,-0.721985 -0.23226,-0.270309 -0.77287,-0.552051 -0.77287,-0.552051 0,0 -0.32913,0.43789 -0.2237,0.736388 z m -2.8553,2.609516 c -1.19523,1.311941 -1.91717,1.409801 -1.0465,2.363741 0.50151,-0.4577 1.36917,-1.24932 2.03154,-1.85298 0.43467,-0.34356 0.38355,-0.34789 0.0365,-0.733499 -0.84744,-0.942262 -1.47373,-2.368537 -1.47373,-2.368537 0,0 -0.35385,1.386089 0.4522,2.591275 z m -3.18365,2.907141 c -1.18639,1.30907 -1.89541,1.41063 -1.02538,2.35413 0.49514,-0.45681 1.36132,-1.25268 2.02771,-1.86256 0.41177,-0.32366 0.36218,-0.33308 0.0518,-0.71239 -1.26592,-1.54849 -1.87602,-4.580573 -1.87602,-4.580573 0,0 -0.51108,2.793073 0.82184,4.801393 z m -19.098064,0.25346 c 0.70685,0.23454 0.65472,0.19667 0.65674,-0.50307 0.002,-1.02108 6.7e-4,-2.36897 0,-3.066533 -1.11208,-0.153938 -1.03992,1.063643 -1.04074,2.173683 -1.65984,-0.75532 -2.83808,-1.678028 -4.49417,-2.61432 1.1498,1.75569 2.88335,3.4372 4.87821,4.01028 z m 16.189004,2.4271 c -1.21027,1.38228 -2.18055,1.6042 -1.25004,2.59224 0.54955,-0.51694 1.48181,-1.38733 2.21397,-2.06611 0.32311,-0.25126 0.28367,-0.28282 0.10752,-0.62213 -1.60611,-3.08781 -1.84145,-6.410504 -1.84145,-6.410504 0,0 -0.77965,3.232434 0.77,6.506504 z m -3.25662,3.05884 c -1.19559,1.40476 -2.21717,1.671 -1.26732,2.65369 0.55344,-0.53592 1.49111,-1.4354 2.23508,-2.14099 0.34936,-0.28005 0.3064,-0.30311 0.0826,-0.65671 -1.18465,-2.32699 -1.44711,-4.65949 -1.76753,-7.26114 -0.64367,2.43868 -0.43295,5.24096 0.71719,7.40515 z m -12.936224,-0.81607 c 0.69082,0.21465 0.64122,0.17869 0.64528,-0.50116 0.005,-0.92834 0.01,-2.16223 0.0115,-2.7881 -1.06926,-0.14691 -1.0437,0.88345 -1.0486,1.98536 -1.98695,-0.9053 -3.41472,-2.09628 -5.24976,-3.38047 1.27963,2.06256 3.33303,4.07082 5.64147,4.68427 z m 9.766014,3.87491 c -1.18191,1.44191 -2.2765,1.76356 -1.28844,2.74394 0.56306,-0.5663 1.50908,-1.50666 2.26964,-2.25045 0.35204,-0.29191 0.30578,-0.31309 0.0653,-0.6663 -1.19222,-2.16983 -1.53232,-4.35992 -2.0085,-6.80799 -0.49964,2.34036 -0.1907,4.95862 0.96201,6.9808 z m -27.297207,-2.07378 c 0.657161,0.47692 0.611652,0.42918 0.789195,-0.31492 0.369647,-1.54173 -0.627899,-2.50198 -0.627899,-2.50198 0,0 -0.197421,0.94673 -0.20167,1.66024 -0.410073,-0.26296 -0.967002,-0.72467 -1.656101,-0.54462 0.383032,0.85639 1.040416,1.27617 1.696475,1.70128 z m 2.897543,0.67014 c -1.16564,-0.71747 -1.36023,-0.90227 -1.927855,-0.0365 0.504985,0.33184 1.445925,0.95603 2.164035,1.44397 0.67514,0.51174 0.6268,0.4631 0.79879,-0.31684 0.52607,-2.37407 -0.98409,-4.57673 -0.98409,-4.57673 0,0 0.0142,1.8265 -0.0509,3.48608 z m 3.62913,2.50775 c -1.33859,-0.79672 -1.57681,-1.35268 -2.28117,-0.33604 0.59126,0.40917 1.60998,1.12534 2.4079,1.70128 0.64777,0.51872 0.60271,0.46903 0.80647,-0.28611 0.73782,-2.73699 -1.16746,-5.54066 -1.16746,-5.54066 0,0 0.41648,2.42715 0.23426,4.46153 z m 10.98916,-0.37636 c 0.67307,0.19003 0.62392,0.15118 0.62995,-0.50501 0.008,-0.95183 0.0172,-2.21709 0.0211,-2.85722 -1.06441,-0.1479 -1.04792,0.87029 -1.05608,1.97188 -1.61472,-0.69262 -2.71307,-1.59808 -4.27335,-2.56919 1.01366,1.77244 2.7369,3.50109 4.67851,3.9594 z m 6.45179,2.60952 c -1.1739,1.53 -2.58005,2.07221 -1.51118,3.07612 0.63472,-0.67545 1.67306,-1.75926 2.526954,-2.63064 0.36248,-0.31596 0.31507,-0.33114 0.0384,-0.68551 -1.998824,-2.55736 -2.183244,-5.0971 -2.183244,-5.0971 0,0 -0.776,2.60733 1.12907,5.33713 z m -14.15745,0.1805 c -1.28686,-0.82941 -1.46737,-1.30539 -2.1794,-0.33604 0.55668,0.40917 1.52963,1.13465 2.28693,1.71664 0.65054,0.55574 0.60414,0.50288 0.81799,-0.27458 0.81262,-2.95155 -1.16842,-6.30971 -1.16842,-6.30971 0,0 0.48736,2.90797 0.2429,5.20369 z m 7.60005,1.64942 c 0.74379,0.31206 0.68912,0.27596 0.69524,-0.48388 0.009,-0.88224 0.0199,-2.07279 0.025,-2.64792 -0.97145,-0.12134 -1.04398,0.54449 -1.05415,1.62807 -1.19844,-0.81187 -2.61336,-1.86929 -2.61336,-1.86929 0,0 0.81824,2.61129 2.94748,3.37279 z m -4.42216,0.83912 c -1.14777,-0.83183 -1.36226,-1.19509 -2.05075,-0.31491 0.56941,0.44686 1.57895,1.25423 2.35989,1.89905 0.77562,0.698 0.71524,0.64745 0.8468,-0.33219 0.26209,-1.96024 -1.23274,-3.99684 -1.23274,-3.99684 0,0 -0.0755,1.48424 0.0768,2.74489 z m 8.71375,1.21547 c 0.34236,-0.31227 0.29397,-0.3298 0.0288,-0.67206 -1.23426,-1.59621 -1.40462,-3.3267 -1.40462,-3.3267 0,0 -0.80828,1.73972 0.36387,3.56864 -0.79912,0.86725 -1.58812,1.73702 -1.95858,2.95131 1.22714,-0.61455 2.08941,-1.56981 2.97052,-2.52119 z m 10.209574,2.80729 c -1.81255,0.10893 -2.57872,-0.3572 -2.61715,0.94665 0.7053,0.0209 1.96468,0.0641 2.94746,0.10562 0.47741,0.0583 0.45778,0.0148 0.53576,-0.42823 0.49017,-2.79303 3.19612,-5.99864 3.19612,-5.99864 0,0 -3.27232,2.21451 -4.06212,5.37457 z m 4.62762,0.22467 c -1.81105,0.0806 -2.56036,-0.39817 -2.62296,0.9044 0.70733,0.0342 1.96444,0.0997 2.94747,0.15553 0.49104,0.0675 0.46755,0.0212 0.54339,-0.43583 0.52532,-3.19745 3.37375,-6.08407 3.37375,-6.08407 0,0 -3.42213,1.97529 -4.24167,5.46002 z m -9.29941,-0.36676 c -1.65911,0.11993 -2.21259,-0.21131 -2.22182,1.01007 0.59756,0.004 1.70275,0.0167 2.55382,0.0346 0.47959,0.0489 0.45789,0.004 0.52613,-0.44142 0.60247,-1.92173 1.74519,-3.29396 2.79001,-5.0683 -1.68389,1.03558 -3.11364,2.606 -3.64834,4.46537 z m 14.15169,0.66246 c -1.85397,0.0755 -2.76965,-0.47884 -2.8515,0.86216 0.7524,0.0455 2.06975,0.1285 3.10493,0.19586 0.37933,0.0615 0.38073,0.01 0.51652,-0.32258 1.23996,-3.0656 3.56672,-4.81868 3.56672,-4.81868 0,0 -2.89381,0.92746 -4.33671,4.08325 z m -23.305164,-3.98438 c -1.90692,-0.36585 -0.89718,2.07895 -0.55301,2.79002 0.53206,-1.00715 0.54219,-1.77424 0.55301,-2.79003 z m 5.06734,4.32993 c 0.51151,0.0373 0.48222,-0.006 0.51657,-0.48393 0.11644,-1.6605 1.586084,-2.67672 1.295164,-3.10876 0,0 -1.831024,0.65911 -2.209154,2.55959 l -5e-5,1.3e-4 c -1.04929,0.009 -2.09925,0.0235 -3.13277,0.57602 1.18731,0.48438 2.35856,0.46334 3.53024,0.45695 z m -9.04501,-2.59154 c 0.59093,0.49611 1.59788,1.3929 2.52425,1.51168 -0.73326,-1.41629 -1.44155,-2.79912 -2.52425,-1.51168 z m 31.545624,2.52634 c -1.66593,0.0394 -2.20871,-0.33991 -2.29075,0.89096 0.59216,0.0392 1.67075,0.11148 2.50583,0.16706 0.34221,0.0578 0.3529,0.005 0.49924,-0.28423 1.05272,-2.08107 2.70457,-2.97723 2.70457,-2.97723 0,0 -2.14406,0.0393 -3.41887,2.20341 z m 4.11877,0.26882 c -1.53278,0.0171 -1.946,-0.23004 -2.02006,0.91401 0.51148,0.0335 1.47446,0.0957 2.21204,0.14209 0.35818,0.0583 0.36453,0.007 0.50501,-0.30151 0.20634,-0.42302 0.4711,-0.76308 0.76231,-1.48525 -0.74905,-0.31354 -1.12916,0.20619 -1.45934,0.73062 z m -31.926744,0.31683 c 0.4517,-0.64042 -0.21994,-1.11109 -0.79687,-0.6663 -2.44297,3.1635 -4.8844,6.44356 -6.15801,9.44342 1.96565,-2.60486 4.34023,-6.00205 6.95488,-8.77712 z m 33.455204,0.82184 c 0.37748,0.0228 0.75534,0.0452 1.16265,-0.45216 -0.63429,-0.46113 -1.1026,-0.56313 -1.16265,0.45216 z m -30.342604,1.81648 c 0.23484,0.35056 0.26645,0.3117 0.62406,0.14594 1.3773,-0.63775 3.452474,-0.62598 3.452474,-0.62598 0,0 -1.696904,-0.96239 -3.442874,-0.38788 -0.52453,-0.64635 -1.05461,-1.28927 -1.98931,-1.58798 0.19443,1.03538 0.77924,1.74231 1.35565,2.4559 z m 2.95707,2.08723 c -1.1171,-1.21885 -1.20322,-1.82275 -2.14867,-1.0753 0.3521,0.4455 1.00412,1.28356 1.49581,1.9317 0.18845,0.30525 0.23262,0.2773 0.55493,0.18621 2.070394,-0.57818 5.188314,0.0125 5.188314,0.0125 0,0 -2.57951,-1.57381 -5.090384,-1.05514 z m 2.329174,3.15869 c -1.00734,-1.18731 -1.12629,-1.74408 -2.052674,-1.05994 0.321894,0.43552 0.935714,1.27902 1.392134,1.92209 0.21593,0.36551 0.25002,0.32745 0.6183,0.18051 2.26329,-0.90419 5.7298,0.0595 5.7298,0.0595 0,0 -2.89495,-1.94704 -5.68756,-1.10218 z m 2.20053,3.18556 c -0.95492,-1.2098 -1.06006,-1.70271 -1.97971,-1.06761 0.29173,0.42216 0.86325,1.26112 1.28268,1.8933 0.18395,0.34619 0.22428,0.31443 0.57605,0.21313 2.21688,-0.63494 5.48978,0.36196 5.48978,0.36196 0,0 -2.65591,-1.95079 -5.3688,-1.40078 z m 2.19667,3.41792 c -0.92937,-1.25028 -1.03039,-1.81707 -1.98546,-1.20203 0.29287,0.45512 0.85974,1.35382 1.27499,2.02962 0.19345,0.38675 0.22839,0.34942 0.61063,0.2189 2.00762,-0.6816 4.03812,0.14017 4.03812,0.14017 0,0 -1.60158,-1.7362 -3.93828,-1.18666 z m 1.87025,3.13756 c -0.84431,-1.25113 -0.93591,-1.62704 -1.83952,-1.08682 0.24525,0.41086 0.74978,1.26856 1.10986,1.90098 0.22277,0.47224 0.24362,0.42545 0.68166,0.2093 0.69817,-0.34515 1.60527,-0.57029 1.60527,-0.57029 0,0 -0.6381,-0.68089 -1.55727,-0.45317 z m -0.15169,1.84337 c 0.19648,0.3545 0.38993,0.70906 1.03785,0.81512 0.32885,-1.36264 -0.45689,-1.36732 -1.03785,-0.81512 z"
     id="path3523" />
  <path
     id="path3327"
     style="font-variation-settings:normal;vector-effect:none;fill:#990000;fill-opacity:1;stroke:none;stroke-width:0.132292;stroke-linecap:butt;stroke-linejoin:miter;stroke-miterlimit:5;stroke-dasharray:none;stroke-dashoffset:0;stroke-opacity:1;stop-color:#000000"
     d="m 74.412765,138.53477 c -0.791862,0.0497 -1.453068,-0.13305 -1.946325,-0.64979 -1.71147,-1.79297 -0.975813,-4.11046 -0.627437,-8.1516 0.275792,-3.19921 -0.91211,-6.01323 -3.226095,-8.29386 l -4.090806,17.6237 c -2.607389,1.7454 -7.501796,2.38955 -10.282329,-1.99721 -2.287755,-2.14387 -3.128295,-5.78492 -2.862331,-8.66067 0.389189,-4.20815 3.280453,-7.08775 3.280455,-7.08775 -0.191372,-0.35144 -0.456557,-0.63154 -0.772233,-0.84691 l -1.730404,-0.51821 c -0.181608,-1.68478 -0.58547,-4.1675 -2.538705,-4.97377 l -2.818134,5.74295 0.809825,18.54318 c 0.783403,1.04662 1.78704,2.0365 3.075712,2.9426 6.045792,4.25095 13.991935,2.75907 17.243597,2.2664 1.252585,0.62629 3.94435,1.39098 7.55871,0.47248 3.614361,-0.91851 7.756411,-3.33379 11.100811,-4.79697 2.02271,0.0436 2.58633,-0.86951 4.47893,-0.97189 2.10715,-0.11399 4.62221,0.70502 6.08538,-0.13108 1.46317,-0.83609 2.55787,-4.11082 2.20949,-4.87724 -0.15751,-0.34655 -0.40757,-0.6503 -0.86723,-0.89061 -3.75552,-0.7205 -4.67178,0.3327 -8.78259,-0.29416 -1.29587,-0.22125 -2.61332,-4.48227 -2.19527,-8.10537 0.41804,-3.62309 2.55496,-5.08605 2.55496,-5.08605 -0.21808,-0.29277 -0.46698,-0.53551 -0.73362,-0.73666 l -1.80559,-0.6498 c -0.23316,-1.64727 -0.73174,-3.47695 -2.32736,-4.42965 l -2.50975,5.13736 0.45521,16.91997 c 0,0 -3.86604,2.78702 -8.736871,2.50061 z" />
  <path
     id="path3411"
     style="font-variation-settings:normal;vector-effect:none;fill:#ffffff;fill-opacity:1;stroke:none;stroke-width:0.132292;stroke-linecap:butt;stroke-linejoin:miter;stroke-miterlimit:5;stroke-dasharray:none;stroke-dashoffset:0;stroke-opacity:1;stop-color:#000000"
     d="m 85.204176,113.97683 c -1.68759,1.20826 -2.47048,2.89513 -2.85725,4.34481 -0.90878,-0.11313 -1.79203,0.0847 -2.26843,0.45521 1.60252,1.76578 1.84014,3.80498 1.35242,8.96092 -0.48772,5.15594 0.7199,7.63898 0.7199,7.63898 -3.02524,1.48783 -5.782373,3.03535 -7.738051,3.15802 -1.739571,0.32782 -3.211695,-0.48548 -3.990197,-1.95598 -1.609862,-2.39026 -0.505493,-4.7803 -0.162575,-7.17056 1.342819,-2.41152 0.361645,-6.20664 -1.647085,-7.96871 -0.608979,-0.6002 -1.291294,-1.16552 -2.050981,-1.68875 -3.646329,-2.51135 -6.189019,-1.81575 -6.189019,-1.81575 0.246336,1.03461 0.640646,2.26588 0.640646,2.26588 0,0 -0.870501,0.0906 -1.708052,0.48468 0,0 3.432489,5.16505 3.925166,9.99327 0.492675,4.82822 0.574199,8.57216 -4.845238,8.17802 -1.715929,-0.1248 -3.085682,-0.79756 -4.145657,-1.79086 -2.164398,-1.22306 -3.488753,-2.87352 -3.488753,-2.87352 -2.685463,-3.47492 -2.405746,-10.66418 2.740402,-12.95974 0.438736,-0.2299 0.836542,-0.39035 0.394242,-0.76207 -0.478552,-0.32652 -1.075961,-0.50044 -1.730404,-0.51821 -0.259071,-0.007 -0.510233,0.007 -0.782391,0.0483 l -1.718719,-4.12736 c 0.317028,-0.53414 -0.0376,-0.89467 -0.0376,-0.89467 -1.831586,0.74928 -2.985607,3.06401 -3.36784,4.59273 -0.88129,-0.11662 -2.035621,-0.006 -2.975625,0.25403 0,0 1.845733,1.62821 1.695857,6.85405 -0.117847,4.10901 -0.242998,8.7346 2.639299,12.58532 1.072718,0.91311 2.621658,1.92657 4.257428,1.96461 l 14.528598,0.10009 c 1.592286,2.58508 4.367092,3.7339 9.021376,1.94378 4.654283,-1.79011 9.212913,-5.1211 9.212913,-5.1211 0,0 0.29756,0.32542 0.70414,0.59236 2.5842,1.38097 4.78165,-2.80654 9.96381,-0.3485 0,0 -0.009,-1.08809 0.87791,-2.11754 0.88705,-1.02944 1.95466,-1.57436 2.41373,-2.36444 0.11185,-0.19251 0.0543,-0.41282 -0.0945,-0.63557 -0.55694,-0.29117 -1.4226,-0.48886 -2.81712,-0.55225 -2.54546,-0.11567 -4.53715,0.50196 -5.96547,0.25809 -0.80203,-0.15532 -1.68581,-0.31764 -2.8156,-2.05911 -2.01256,-2.70622 -1.19163,-11.01486 2.06064,-11.48083 0.29987,-0.0333 0.55482,-0.1859 0.38103,-0.38814 -0.54623,-0.41209 -1.17313,-0.63461 -1.80559,-0.6498 -0.25795,-0.006 -0.51947,0.0202 -0.77325,0.0823 l -1.40424,-3.59545 c 0.16054,-0.62613 -0.14987,-0.91651 -0.14987,-0.91651 z m -2.50975,5.13736 c 0.61622,0.18485 1.32202,0.61045 1.7868,1.56326 -0.0815,0.3927 -0.15047,0.78177 -0.21034,1.16698 z m -35.896005,1.60746 c 0.548876,0.20896 1.077059,0.56455 1.580531,1.05217 -0.13997,0.40884 -0.258574,0.81116 -0.362745,1.2066 z" />
  <path
     id="path3329"
     style="font-variation-settings:normal;vector-effect:none;fill:#c7c7c7;fill-opacity:1;stroke:none;stroke-width:0.132292;stroke-linecap:butt;stroke-linejoin:miter;stroke-miterlimit:5;stroke-dasharray:none;stroke-dashoffset:0;stroke-opacity:1;stop-color:#000000"
     d="m 61.860467,118.976 c -0.0205,0.68618 0.515667,1.96309 0.515667,1.96309 0,0 -0.895564,0.046 -1.499754,0.33531 2.089676,3.56927 3.51046,8.65016 3.578679,11.77296 0.06822,3.1228 -0.03272,4.55549 -1.83608,5.88927 -1.80336,1.33379 -3.723678,1.38057 -6.325684,0.55733 -2.602002,-0.82325 -5.028107,-3.88899 -5.732792,-7.33314 -0.704685,-3.44415 0.475314,-8.75601 2.930919,-10.92807 -1.26644,-0.77839 -3.326181,-0.12047 -4.001371,0.77375 -0.675193,0.89421 -1.042058,2.49442 -1.317366,4.91636 -0.275305,2.42194 -0.113683,4.64991 0.238275,6.99631 -0.551641,-0.88263 -1.070255,-3.53111 -1.053688,-5.4107 0.01246,-1.41323 0.08684,-3.35627 0.658935,-5.52805 -0.334995,-1.03673 -0.927284,-1.88354 -1.217786,-2.25877 -0.582561,-0.22178 -1.188448,-0.27822 -1.813216,-0.14632 1.627974,3.01301 0.631862,7.85976 1.10754,11.65001 0.346076,3.24702 1.664599,6.78911 4.318392,8.80597 2.766065,2.268 6.252936,3.04281 9.735181,3.11025 2.220485,0.0737 5.218611,-0.11452 7.103503,-0.6254 -0.455243,-0.71085 -0.677825,-1.38328 -0.855549,-2.18663 -1.073394,-1.79741 -1.360236,-3.34035 -1.192893,-4.80459 0.167343,-1.46425 -0.213379,-2.61136 -0.213379,-2.61136 0.919648,0.34459 0.803988,1.57276 0.902797,3.05488 0.09854,1.47803 0.613594,2.23084 1.429134,3.9907 0.81554,1.75984 2.413728,2.61136 2.413728,2.61136 -0.492674,0.0493 -2.26599,-0.44359 -3.339387,-2.24099 2.64414,4.69818 8.945585,2.78439 11.642384,1.66436 2.6968,-1.12003 5.0746,-2.44327 7.36413,-3.4979 0,0 -0.93796,-0.50975 -0.77223,-1.34378 0,0 -0.85612,-0.74496 -1.47892,-2.11805 -2.51583,1.18844 -6.825302,3.4858 -9.079803,3.56141 -2.254501,0.0756 -3.337051,-1.28329 -3.647265,-3.01678 -0.310213,-1.73349 0.07501,-4.34906 0.265203,-6.66201 0.190183,-2.31295 -0.226937,-4.67296 -1.851321,-6.65947 -1.624385,-1.98651 -3.880309,-4.13029 -6.975983,-4.28131 z m 19.904739,0.004 c -0.20938,7.8e-4 -0.33836,0.0223 -0.33836,0.0223 1.87218,2.61119 1.22949,6.98564 0.90737,10.66693 -0.22145,2.53096 0.24684,4.59031 0.5614,5.63017 0,0 -0.0239,-1.05691 0.0254,-1.74666 0,0 0.34507,0.49264 0.73921,1.77359 0.39414,1.28096 1.92126,3.25154 3.2515,3.44862 -0.40317,0.18091 -1.1512,0.19453 -1.57901,-0.0305 1.44575,1.09738 3.07156,-0.019 4.95243,-0.50804 1.87695,-0.48805 3.35752,0.0323 5.01137,0.15952 -1.04512,-2.43862 1.39357,-4.38951 1.39357,-4.38951 -2.09025,-0.90581 -6.18096,0.62692 -8.06218,-0.83625 -1.88119,-1.46317 -2.38934,-5.38783 -1.90162,-9.28962 0.48772,-3.9018 2.22981,-4.43626 2.22981,-4.43626 -0.48828,-0.24414 -2.85397,-0.47218 -3.76258,2.0901 -0.90862,2.56228 -0.73675,4.06989 -0.62693,7.80359 -0.58563,-1.70368 -0.76736,-4.45841 -0.29569,-7.49368 -0.40532,-1.19491 -1.26813,-2.34138 -1.57646,-2.73024 -0.36359,-0.10907 -0.69612,-0.13498 -0.92922,-0.13413 z m 16.82294,14.93402 c -0.35383,0.23836 -1.71169,0.7418 -2.41373,2.36445 -0.65995,1.52536 -0.14784,2.31567 -0.0493,2.31567 0.0985,0 2.51227,-1.08359 2.46301,-4.68012 z m -13.2341,-19.02074 c -0.99278,0.71081 -1.74378,2.62367 -1.84268,3.76462 0.52532,0.25157 0.9996,0.64018 1.33362,1.20458 0.5195,-0.74488 1.19739,-1.19682 1.9133,-1.37376 -0.0503,-1.07264 -0.56592,-2.71805 -1.40424,-3.59544 z M 49.65415,115.8733 c -1.411698,0.89199 -2.155744,2.79221 -2.359369,4.04913 0.553574,0.25218 1.059652,0.63293 1.493657,1.17104 0.821468,-0.60154 1.725584,-0.9663 2.584431,-1.0928 -0.07475,-1.10137 -0.692511,-3.10973 -1.718719,-4.12737 z" />
</svg>
