<?xml version="1.0" encoding="UTF-8" standalone="no"?>
<!-- Created with Inkscape (http://www.inkscape.org/) -->

<svg
   width="499.99997"
   height="537"
   viewBox="0 0 132.29166 142.08125"
   version="1.1"
   id="svg5"
   xml:space="preserve"
   xmlns="http://www.w3.org/2000/svg"
   xmlns:svg="http://www.w3.org/2000/svg"><defs
     id="defs2" /><path
     style="font-variation-settings:normal;vector-effect:none;fill:#045cd2;fill-opacity:1;stroke:none;stroke-width:0.166483;stroke-linecap:butt;stroke-linejoin:miter;stroke-miterlimit:4;stroke-dasharray:none;stroke-dashoffset:0;stroke-opacity:1;-inkscape-stroke:none;stop-color:#000000"
     d="M 126.79533,87.083072 C 128.57044,58.958302 132.29165,0 132.29165,0 H 0 l 5.496329,87.083072 c 1.775121,28.124778 27.56714,54.998168 60.649496,54.998168 33.08236,0 58.874385,-26.87339 60.649505,-54.998168 z"
     id="path3147" /><path
     style="color:#000000;fill:#033e8d;-inkscape-stroke:none"
     d="m 57.354755,2.881946 -1.01352,-0.776816 0.71979,3.617983 1.22852,-0.486328 z M 22.970593,3.176124 21.799308,6.412566 23.105949,6.615691 23.545118,3.999163 Z M 46.562728,4.087339 45.463485,3.620414 47.38134,7.566863 48.471183,6.81491 Z m 13.981917,-0.03667 -0.88505,-0.447836 -0.0693,1.395669 -2.1875,1.738281 0.82422,1.035156 3.00781,-2.392578 z m -10.709821,-0.09802 -1.142937,2.821243 1.304687,0.21875 0.512411,-2.510269 z M 26.905743,4.766286 26.036087,4.442565 25.869621,5.676236 25.367668,5.914517 28.539543,8.521939 29.379387,7.500455 27.416496,5.887173 Z m -7.911087,0.01322 -0.918917,0.07851 2.500913,2.488145 0.740235,-1.097656 z m 11.880825,-0.01537 -0.843751,3.15624 1.320313,0.07617 0.250126,-2.417149 z m 7.260899,2.268576 -1.186681,-0.917024 1.095703,3.578125 1.175781,-0.605469 z m 26.001335,-0.962231 -1.99661,3.3206 1.23242,0.478515 1.29216,-2.939579 z m -22.941922,0.152632 -1.94336,3.398438 1.242188,0.453125 1.167024,-2.84879 z m 11.475312,0.814338 -0.08469,0.425897 -0.609376,-0.107426 -0.796874,0.699223 -2.382813,0.273438 1.230469,2.52539 1.284781,-0.41916 -0.507437,-1.004668 1.503906,-0.171875 0.279297,-1.5625 3.644527,0.726563 0.25782,-1.296875 z m 18.59576,0.67426 -1.04177,-1.041333 0.25391,3.857423 1.28515,-0.3125 z m -55.198025,-0.28938 -1.089844,2.839845 1.308594,0.195313 0.498274,-2.49841 z m -3.173453,0.976997 -1.099985,-0.180122 2.009766,2.833986 0.914062,-0.957031 z m 64.722528,0.205212 -0.76977,-0.465412 0.38671,3.867189 1.2754,-0.355469 z m -43.698443,-0.487004 -0.911179,1.533307 1.293521,0.382189 0.315287,-1.481168 z m 23.143513,-0.01552 -1.07227,2.498047 -1.06077,0.313185 0.43508,0.864361 1.34444,0.500188 1.09766,-2.55664 2.36132,0.740234 0.71875,-0.07031 -0.1289,-1.316406 -0.45117,0.04492 z m 11.28137,0.665323 -1.18567,-0.163367 2.3125,2.861325 0.86328,-1.003906 z m 6.06194,0.08739 -0.73911,-0.18939 -0.31123,1.15543 -0.8711,0.513672 0.86719,2.744141 1.26172,-0.400391 -0.54883,-1.740234 0.88477,-0.523438 z m -55.260942,0.8779 -0.724951,-0.269282 -0.224609,1.460938 1.328112,0.02755 z M 7.669017,10.079527 6.877433,9.4653 7.201652,12.924286 8.471183,12.553192 Z m 45.973853,0.597279 -0.892053,-0.511479 -0.406587,1.323412 -1.699218,0.287109 0.21875,1.302735 3.046875,-0.511719 z m 32.396045,0.363848 -0.91734,-0.251132 1.40625,3.523436 1.125,-0.697266 z m -4.37607,0.392011 -0.77691,-0.490799 -0.42256,1.089842 -2.7793,0.830078 0.95118,2.941406 -1.38672,0.46875 0.90625,1.640625 1.1582,-0.640625 -0.14063,-0.253906 1.12305,-0.378906 -0.93555,-2.896485 2.67774,-0.802734 z M 10.712156,11.721196 9.93798,11.506316 9.703605,12.412567 8.28759,13.242645 8.957512,14.38327 11.512199,12.885223 Z m 78.825249,0.01559 -1.64044,2.04101 1.20704,0.542969 0.92621,-1.891129 z m -32.1857,0.329031 0.25078,0.998584 1.66948,0.844254 0.65039,-1.152344 z m -54.066068,1.229557 0.381121,1.026867 1.997785,0.562976 0.460937,-1.240234 z m 88.466228,0.59627 -0.68712,-0.482983 -0.48223,0.802728 -3.77734,0.945313 0.52539,2.210937 1.35555,-0.08184 -0.2911,-1.164258 3.79297,-0.949218 z m -84.784588,0.08732 -3.439453,3.16211 0.327919,0.713746 1.266932,0.781757 2.328977,-3.114644 3.326352,1.068256 0.150211,-1.3456 z m 25.31836,0.0625 -0.902344,0.947266 -1.580078,-0.902344 -0.976563,1.150391 1.007813,0.857422 0.265625,-0.314453 1.52539,0.871093 0.871094,-0.914062 0.475239,0.232043 0.703125,-1.11914 z m 51.154428,1.21875 -0.72083,-0.59375 -0.10938,3.927735 1.3086,-0.1875 z m -30.755991,-0.375 -0.238281,4.359375 1.320312,0.07227 0.117188,-2.119141 1.140622,0.716797 0.61064,-2.009765 -0.62186,-0.838441 -0.854012,0.744691 z m 31.191221,0.966798 0.59279,0.595577 1.96952,0.0233 -0.13839,-1.26341 z m -55.64044,-0.365235 -1.330078,1.90625 1.083985,0.757812 0.621093,-0.888672 1.578125,0.958985 0.719737,-0.715434 -0.22377,-0.820386 -0.744014,-0.161446 z m 64.92952,0.291116 -1.83772,2.845598 1.23047,0.486328 1.04524,-2.444746 z m -60.595272,0.619084 0.139886,0.887696 1.102038,0.383743 0.533203,-1.210937 z m 41.460682,-0.468795 -2.10352,3.296875 -0.85718,0.454407 0.38232,0.728053 1.06666,0.346837 2.62695,-4.115234 z m -9.05274,0.890625 -0.32204,3.553638 0.6365,0.180737 0.60937,-2.148437 -0.0996,-0.02344 0.31055,-1.285156 z m 31.15149,0.432902 -1.16321,2.094442 1.28907,0.296875 0.36429,-1.687753 z m -25.93469,-0.139899 -0.94727,1.826172 -0.0117,0.03125 c 0,0 -0.60497,1.519443 -0.95507,2.240234 -0.30318,0.624178 -0.34697,1.387117 -0.41211,2.197266 -0.0651,0.810148 -0.10537,1.638991 -0.15821,1.982422 -0.19054,1.238561 0.66211,2.148437 0.66211,2.148437 l 1.00586,-0.859375 c 0,0 -0.43495,-0.59662 -0.35937,-1.087891 0.0802,-0.521484 0.10561,-1.3006 0.16797,-2.076171 0.0624,-0.775572 0.20936,-1.574535 0.2832,-1.726563 0.39613,-0.815547 0.95246,-2.229141 0.97461,-2.285156 l 0.92383,-1.78125 z m -12.97524,1.288117 -0.9419,-0.228898 -0.16294,1.126328 -3.406253,1.691406 0.203125,3.34375 1.394922,-0.0054 -0.225001,-2.543455 3.824217,-1.900391 z m 5.05336,-0.336945 -0.65625,3.580078 0.008,2.955078 1.32422,-0.0039 -0.008,-2.833985 0.42773,-2.339843 0.45118,0.01367 0.041,-1.322265 z m -30.789617,0.595872 0.05308,1.052665 0.77035,0.434222 0.725947,-1.151115 z m 68.265047,0.256385 -0.71775,-0.502877 -0.22838,1.4182 -3.83789,1.515625 1.85937,3.523437 -0.81978,1.195497 0.95903,0.160476 1.64005,-0.814957 -1.78125,-3.376953 3.628915,-1.431641 z m -70.726396,-0.14528 -1.594737,1.023493 1.058593,0.792969 0.876271,-1.043559 z m 31.332996,-0.247991 -1.91211,2.607422 -1.01642,0.199586 0.14816,0.868017 1.25107,0.649194 2.13477,-2.91211 0.0977,0.01172 0.16992,-1.310547 z m -52.81284,0.704007 0.463607,0.808341 2.501578,0.710312 0.357422,-1.273437 z m 30.691747,-0.584867 -2.203125,0.123047 -0.152344,4.908203 1.322266,0.04102 0.115234,-3.695312 0.990235,-0.05469 z m 35.527353,1.980468 -0.51766,1.00919 0.50241,0.411048 0.62071,-0.244456 z m -63.037118,0.1875 -2.852131,1.85751 0.645856,0.380331 2.698462,-1.011278 z m 41.109375,0.716797 -3.427735,0.273438 1.685547,3.884765 -0.156389,0.759324 0.601764,0.377584 1.328063,-0.373236 -1.509766,-3.478515 1.583984,-0.125 z m 28.031253,0.363282 c -2.26309,0.418185 -3.94637,1.916712 -4.65039,2.455078 -0.93193,0.712647 -3.2698,3.035132 -4.11914,4.521484 -0.76186,1.333244 -0.9622,2.443806 -1.27148,3.990234 -0.27223,1.36109 -1.05665,2.207032 -1.05665,2.207032 l 0.96875,0.902343 c 0,0 1.03601,-1.105869 1.38477,-2.849609 0.31168,-1.558396 0.46555,-2.44313 1.12305,-3.59375 0.57,-0.99751 3.19924,-3.686375 3.77539,-4.126953 0.80404,-0.614851 2.2703,-1.869216 4.08789,-2.205078 z M 44.06884,22.855951 43.885246,23.33642 c -0.476788,1.246989 -0.675529,3.285493 -0.320313,5.998047 0.375238,2.865463 2.283178,6.213872 2.859375,7.335938 0.362186,0.70531 0.987046,1.428913 1.595704,1.996093 0.304329,0.283591 0.597937,0.520142 0.890625,0.691407 0.146343,0.08563 0.288537,0.160024 0.486328,0.201171 0.19779,0.04115 0.558805,0.0296 0.800781,-0.234375 l -0.974609,-0.894523 c 0.166116,-0.181216 0.404285,-0.174144 0.443359,-0.166015 0.03907,0.0081 -0.01372,-0.0035 -0.08789,-0.04687 -0.148335,-0.0868 -0.398749,-0.279578 -0.65625,-0.519532 -0.515001,-0.479906 -1.086592,-1.177673 -1.320312,-1.632812 -0.615618,-1.198832 -2.409854,-4.498744 -2.72461,-6.902344 -0.294611,-2.24975 -0.116904,-3.87188 0.154297,-4.863281 l 0.414529,0.117229 -0.0044,-1.402382 z m 50.105475,0.580079 -1.8418,1.164062 0.9375,2.166016 -0.29374,0.898402 0.81554,0.231134 1.18133,-0.524068 -0.97657,-2.257812 0.88477,-0.560547 z m -4.65821,0.402343 -0.6621,1.3125 -1.94727,-0.0039 -0.004,1.324219 2.76368,0.0059 1.03125,-2.042969 z m -41.638672,0.123047 -1.05664,2.677735 -0.568287,0.602646 0.393388,0.745827 1.034274,0.07926 1.427734,-3.621094 z m -12.59375,0.191406 -0.183593,2.636719 -1.0625,0.158203 -2.017578,1.19336 0.673828,1.136718 1.792968,-1.060546 1.857422,-0.275391 0.173828,-2.451172 0.15625,-1.148437 z m 20.543352,0.69506 -0.85878,-0.489121 -0.575201,0.907343 -2.30783,0.645025 0.594086,0.528545 3.174645,0.160405 z m 8.44492,-0.167756 -0.68749,0.634806 -2.23242,-0.0957 -0.8789,3.103515 -0.81643,0.456989 0.35064,0.81418 1.37594,0.363597 0.95703,-3.371094 2.50977,0.105469 0.10418,-1.34123 z m -18.728967,0.632073 0.274655,0.760142 0.643775,0.08833 0.248047,-1.298828 z m 33.545387,-0.323401 -1.57421,0.91923 0.5027,0.519971 2.00435,-0.259841 z m -41.810551,0.466797 -0.167969,1.199219 -0.415422,0.648995 0.465824,0.639373 1.094129,0.07296 0.333984,-2.376953 z m -32.183594,1.617119 0.445746,0.877866 2.331598,0.768623 0.427734,-1.251953 z m 79.748055,-0.560546 -3.16407,2.7793 0.68618,0.270285 3.18296,-1.930444 z m 2.08203,0.628907 -1.31446,0.140625 0.2168,2.042968 -0.5859,0.650394 0.34314,0.639927 1.71547,0.05929 z m 2.14492,0.371655 -0.39296,1.374443 0.77979,0.01682 0.56786,-0.62815 z m -8.26406,0.0053 -2.11485,1.432191 0.57125,0.535739 2.08679,-0.771729 z m -45.837898,1.738282 -0.792969,0.55664 -3.224609,-0.439453 0.398438,2.824218 -0.804688,0.105469 -2.113628,2.245658 0.927829,0.323584 1.670174,-1.299711 1.816406,-0.238281 -0.339843,-2.414062 2.71289,0.36914 0.307775,-1.410534 z m -27.685547,1.374996 0.269566,0.944611 1.951137,0.94797 0.648438,-1.152344 -1.367188,-0.767578 z m 17.988282,-0.263669 -1.636719,1.03125 2.060547,2.652344 -3.369141,0.574219 0.115234,1.365234 1.31836,-0.111328 -0.01367,-0.154297 4.347656,-0.742187 -2.519531,-3.244141 0.428435,-0.324047 z m -3.425782,2.689453 -4.43164,0.205078 0.308593,2.435547 1.3125,-0.166015 -0.128906,-1.013672 3,-0.138672 z m -16.769872,1.807096 0.197756,0.995333 2.517429,1.736634 0.763672,-1.080078 z m 68.767957,2.355014 c 0.14742,0.308246 0.3392,0.523635 0.64062,0.892578 0.30142,0.368942 0.6858,0.811996 1.10352,1.263672 0.83544,0.903351 1.7525,1.823719 2.52539,2.292968 l 1.80424,0.01487 c -1.59091,-1.093667 -2.55678,-2.341032 -3.35698,-3.20628 -0.4001,-0.432624 -0.77072,-0.858377 -1.05078,-1.201172 -0.28006,-0.342794 -0.49615,-0.682114 -0.4707,-0.628906 -0.0896,-0.187324 -0.72213,-1.163454 -1.48446,-1.243878 -0.48527,0.529403 0.13479,1.493388 0.28915,1.816144 z m -64.75785,0.0625 -2.302735,3.029298 0.8099,0.235418 1.629553,-1.588935 3.019532,2.09961 0.523437,-1.343751 z m 59.61914,1.544922 c -1.446,-0.124332 -2.9224,-0.147913 -3.92187,0.0039 -0.906,0.137617 -2.40749,0.427908 -3.86719,0.8125 -1.4597,0.384591 -2.82925,0.799382 -3.66602,1.445312 -0.70161,0.541596 -1.11342,1.089423 -1.32422,1.609375 -0.21079,0.519953 -0.20922,0.993964 -0.19726,1.292969 0.0302,0.754205 0.34134,1.642704 0.46289,2.128906 0.18869,0.754749 0.66356,1.339271 0.96289,1.917969 0.26534,0.512998 0.72979,0.972647 1.25391,1.513672 0.52411,0.541025 1.09672,1.104161 1.45898,1.507811 0.72461,0.80742 1.19758,1.65611 2.20313,2.48828 0.54245,0.44893 1.06161,0.62993 1.46679,0.66016 0.40518,0.0302 0.75586,-0.12305 0.75586,-0.12305 l -0.5918,-1.18359 c 0,0 0.0537,-0.005 -0.0664,-0.0137 -0.12009,-0.009 -0.35361,-0.0556 -0.7207,-0.35938 -0.81353,-0.67326 -1.2347,-1.4311 -2.0625,-2.35351 -0.41395,-0.461261 -0.98507,-1.019498 -1.49219,-1.542971 -0.50711,-0.523473 -0.96198,-1.071025 -1.02929,-1.201172 -0.366,-0.707586 -0.77803,-1.321093 -0.85547,-1.630859 -0.14458,-0.578306 -0.40964,-1.506662 -0.42383,-1.861328 -0.0102,-0.255427 -0.009,-0.471015 0.10156,-0.744141 0.11073,-0.273126 0.3418,-0.624387 0.9043,-1.058594 0.42733,-0.329873 1.79598,-0.843689 3.19726,-1.21289 1.40129,-0.369202 2.88249,-0.656648 3.72853,-0.785157 1.50507,-0.228619 7.50596,0.439259 8.89463,0.830434 l -1.42979,-1.543324 c -0.88026,-0.247961 -2.29618,-0.473325 -3.74219,-0.597656 z m 18.37814,1.633005 -0.50118,0.431448 c 0.41713,0.484406 0.42379,1.014047 0.4414,1.273437 -0.0456,0.02659 -0.0507,0.03611 -0.11523,0.06836 -0.36336,0.181736 -1.03616,0.442153 -2.1543,0.710937 -1.12901,0.271397 -2.60684,0.557193 -3.85742,0.765625 -0.62529,0.104216 -1.19346,0.190469 -1.63086,0.244141 -0.4374,0.05367 -0.83015,0.05248 -0.75,0.0625 l -0.58239,0.4736 c 0.62151,0.463778 1.02617,0.833653 1.49255,0.776403 0.46638,-0.05723 1.05055,-0.143516 1.68945,-0.25 1.2778,-0.212969 2.77179,-0.504074 3.94922,-0.78711 1.18829,-0.28565 1.94511,-0.567203 2.43555,-0.8125 0.24521,-0.122648 0.42271,-0.234793 0.5625,-0.347656 0.0699,-0.05643 0.12996,-0.112091 0.1914,-0.1875 0.0614,-0.07541 0.17774,-0.115146 0.17774,-0.470703 0,-0.08767 -0.37721,-1.410541 -0.37721,-1.410541 z M 25.645012,40.127408 c -1.287599,0.03248 -2.541563,0.204523 -3.667969,0.583984 l -0.714844,0.242188 0.818359,1.666015 1.260183,-0.358997 -0.162523,-0.408581 c 3.861379,-0.893552 9.616805,-0.11537 14.588818,2.067525 L 35.62353,41.875455 c -1.492308,-1.423093 -6.115718,-1.8455 -9.978515,-1.748047 z m 2.114474,2.324992 -0.954372,-0.53811 0.625054,3.875227 1.251953,-0.425779 z m 3.314418,0.912247 -2.592955,2.852605 1.117188,0.707031 1.956747,-2.70326 z m -25.078466,1.853857 0.430459,0.629493 2.902707,0.07238 0.01563,-1.322266 z m 11.831214,-0.05789 -0.205078,2.726562 -2.03125,-0.52539 -0.722656,1.71875 1.21875,0.513672 0.279297,-0.666016 2.455078,0.634766 0.203125,-2.699219 0.58971,0.177376 0.179821,-1.337532 z m 9.830078,1.716797 -1.386718,2.289062 0.234375,3.951169 1.320312,-0.0781 -0.210937,-3.541012 0.447265,-0.738282 3.046875,2.091794 0.766953,-1.388804 -0.419297,-0.796736 -0.853515,0.232418 z m 37.514585,0.671399 -0.78296,-0.01574 c 0,0 -0.17561,0.878257 0.20783,1.64512 0.47877,0.957522 1.26172,1.708982 1.26172,1.708982 l 0.92969,-0.939451 c 0,0 -0.67112,-0.687941 -1.00781,-1.361328 -0.43203,-0.864035 -0.60847,-1.037585 -0.60847,-1.037585 z m -57.140096,0.212914 0.240611,0.796054 1.652799,0.860041 0.814089,-1.073407 z m 60.857936,1.1567 -0.65866,0.05745 c 0,0 -0.40615,3.073758 0.18601,5.087078 0.55104,1.87353 1.42253,5.14358 2.53125,6.96681 0.95958,1.57797 1.61403,3.28876 2.99804,5.05273 1.27186,1.621 2.52368,3.82251 3.57422,4.87305 0.46696,0.46696 1.07607,1.00836 1.61914,1.53515 0.54307,0.5268 1.01959,1.06483 1.17188,1.34766 0.31499,0.58498 0.9225,1.27295 1.72851,2.14648 0.80602,0.87353 1.79689,1.88408 2.79492,2.9043 0.9684,0.98991 2.77436,3.03279 4.64454,4.89453 0.93508,0.93087 1.88783,1.82044 2.7832,2.52539 0.89537,0.70495 1.7061,1.24126 2.52539,1.42578 l 1.59091,-0.44487 c -1.44472,-0.20065 -2.46938,-1.36762 -3.29794,-2.01997 -0.82857,-0.65235 -1.75357,-1.51355 -2.66797,-2.42383 -1.82881,-1.82056 -3.60524,-3.83045 -4.63281,-4.88086 -0.99793,-1.02011 -1.98244,-2.02799 -2.76758,-2.8789 -0.78514,-0.85091 -1.38442,-1.59506 -1.53516,-1.875 -0.31343,-0.5821 -0.84662,-1.11765 -1.41797,-1.67188 -0.57135,-0.55423 -1.18337,-1.09939 -1.60351,-1.51953 -0.72366,-0.72366 -2.10742,-3.01887 -3.46875,-4.75391 -1.24919,-1.59212 -1.87181,-3.21954 -2.90821,-4.92382 -0.88724,-1.45904 -1.83474,-4.75574 -2.39257,-6.65236 -0.51672,-1.75683 -0.79688,-4.771481 -0.79688,-4.771482 z m -46.49219,0.392579 -1.201172,0.552734 1.455078,3.162105 -0.179859,0.85878 0.712495,0.37717 1.178301,-0.6793 z m -16.314453,1.087899 0.369914,0.9311 1.661336,1.31889 0.765625,-1.07812 z m 13.818359,0.51171 -0.292969,2.625 -1.073084,0.63116 0.535722,0.73943 1.71705,-0.0132 0.427734,-3.83594 z m -4.408245,4.52637 0.312505,1.78613 1.413743,0.20542 -0.90157,-1.70198 z m 1.867192,-0.30176 -0.207031,-2.63281 1.304711,0.0928 0.01951,-1.31546 -2.763637,-0.2168 0.232422,2.95118 0.09564,0.65442 0.413342,0.5076 z m 12.483425,-3.11899 -0.840526,-0.25244 -0.08622,1.18002 -2.087891,1.33203 1.033203,1.97852 -0.447776,1.12407 0.758386,0.16298 1.396422,-0.87299 -1.00586,-1.92968 2.128907,-1.35743 z m -15.71581,0.11899 -0.285156,1.23437 -3.740234,-0.57421 -1.166016,2.10156 -0.926519,0.98396 0.590049,0.41173 1.234908,-0.29022 0.976562,-1.75977 4.044922,0.6211 0.560547,-2.42969 z m 108.342317,1.35296 -0.79187,-0.80917 c 0,0 -0.25183,2.36479 -0.10122,3.44058 0.0799,0.57054 0.22935,1.48319 0.34961,2.39063 0.12026,0.90745 0.20389,1.83334 0.17773,2.26954 -0.0267,0.44597 -0.12342,0.66403 -0.33203,0.92382 -0.2086,0.2598 -0.57071,0.55041 -1.08789,0.93555 -0.99604,0.7417 -2.86328,1.92188 -2.86328,1.92188 l 0.70703,1.11914 c 0,0 1.85863,-1.16982 2.94727,-1.98047 0.52515,-0.39107 0.97135,-0.7217 1.32812,-1.16602 0.35677,-0.44431 0.58134,-1.01288 0.6211,-1.67578 0.0403,-0.67266 -0.0638,-1.58816 -0.1875,-2.52148 -0.12369,-0.93333 -0.27425,-1.86206 -0.34961,-2.4004 -0.15987,-1.14194 -0.41746,-2.44782 -0.41746,-2.44782 z m -113.582551,-0.79241 -2.207485,1.48339 0.926838,0.42017 1.722053,-0.65747 z m 17.035156,1.61328 -3.115859,1.03595 0.283139,0.83704 1.078814,0.52349 2.361328,-1.2207 z m -13.09358,0.97292 -0.705248,-0.55495 -0.447265,2.52148 1.318359,-0.11328 z m 25.06333,15.50646 c -0.142586,-0.1419 -0.21873,-0.27995 -0.493187,-0.66299 -0.258014,-0.36009 -0.603376,-1.21986 -0.814453,-2.33399 -0.211077,-1.11412 -0.313693,-2.49396 -0.207032,-3.97656 0.134763,-1.87321 0.835968,-3.77468 2.376145,-5.56889 0.87993,-1.02506 2.413979,-2.20524 3.313326,-2.84546 l -2.740252,0.48859 c -2.760336,1.96499 -4.035786,4.61013 -4.267578,7.83203 -0.115111,1.60006 -0.0091,3.08288 0.224609,4.31641 0.233699,1.23352 0.570308,2.20518 1.039063,2.85937 0.45231,0.63126 1.025389,0.93884 1.478516,1.05274 0.453126,0.1139 0.718899,-0.60514 0.718899,-0.60514 -0.137733,-0.21597 -0.388543,-0.31776 -0.628056,-0.55611 z m -18.620381,-14.86517 -0.786869,3.07718 1.324916,0.13987 0.06691,-2.72491 z m -11.822021,2.29204 0.662593,0.67777 2.884276,0.0409 0.02148,-1.32226 z m 15.55461,-0.34746 -1.109301,1.55057 1.277343,0.34765 0.315461,-1.22561 z m 2.578577,1.92412 -0.838115,-0.43481 -0.482576,0.73899 -1.052734,0.39844 0.466797,1.23828 2.179687,-0.82422 z m -14.246472,-0.50246 -2.030962,2.33715 1.084242,0.12231 1.735782,-1.39696 z m 8.734375,3.38477 -0.494141,1.82031 0.964844,0.50586 -0.09961,0.30859 -1.433594,2.15821 -1.90625,1.36523 0.06641,1.24023 1.273225,0.11091 0.01975,-0.69884 1.513672,-1.08203 1.669922,-2.51367 0.332031,-1.02539 c 0.492391,0.3041 0.891003,0.47577 1.466797,0.78516 0.66431,0.35695 1.386146,0.45841 2.001953,0.5332 0.615806,0.0748 1.161719,0.15646 1.261719,0.20312 l 0.560546,-1.19726 c -0.540716,-0.25233 -1.085313,-0.24831 -1.662109,-0.31836 -0.576796,-0.07 -1.150929,-0.17921 -1.537109,-0.38672 -0.935847,-0.50285 -1.995281,-1.55474 -3.427735,-1.73633 z m 101.158167,4.64453 c 0.16325,0.39604 0.33856,0.86102 0.45508,1.15234 0.2015,0.50373 0.46354,1.37332 0.53711,1.85156 0.069,0.44824 0.38771,3.73548 0.34766,4.97852 -0.0424,1.31201 0.35131,3.54743 0.35131,3.54743 l 0.6565,0.0815 c 0,0 0.26802,-2.14795 0.31445,-3.58594 0.0486,-1.50695 -0.25288,-4.51768 -0.36132,-5.22266 -0.10384,-0.67497 -0.37513,-1.53547 -0.61719,-2.14062 -0.10524,-0.26311 -0.69829,-1.55751 -1.47859,-1.70686 -0.7803,-0.14936 -0.28663,0.84672 -0.20501,1.04475 z m -113.415985,-0.4492 0.676336,0.6915 2.466251,0.0389 0.0293,-1.32227 z m 23.591802,-0.32619 c 0,0 -1.508869,0.38794 -3.105469,1.21094 -0.846686,0.43643 -1.646832,1.07668 -2.285156,1.67773 -0.319162,0.30052 -0.595113,0.59023 -0.814453,0.84766 -0.21934,0.25742 -0.376525,0.4466 -0.494141,0.70703 l 1.207032,0.54492 c -0.0078,0.0174 0.111902,-0.18008 0.292968,-0.39258 0.181067,-0.2125 0.428256,-0.47429 0.714844,-0.74414 0.573176,-0.53971 1.309934,-1.11719 1.984375,-1.46484 1.445662,-0.74519 2.832031,-1.10547 2.832031,-1.10547 z m 82.935553,0.55664 c -0.85529,0.0542 -1.57073,0.17514 -2.10742,0.6543 -0.4166,0.37197 -0.72255,0.86181 -0.95312,1.35156 -0.23058,0.48975 -0.39573,0.93467 -0.375,1.43164 0.0154,0.36936 -0.18961,1.81011 0.94726,2.59961 0.7235,0.50243 0.93508,0.76049 0.94727,1.44336 0.006,0.35094 -0.0671,1.12658 -0.13672,1.94726 -0.0696,0.82068 -0.1346,1.70294 -0.082,2.43946 l 1.25563,0.35907 c 0,0 0.0764,-1.88179 0.14473,-2.68719 0.0683,-0.80539 0.15211,-1.54743 0.14258,-2.08203 -0.0194,-1.08823 -0.64237,-1.89943 -1.51563,-2.50586 -0.45991,-0.31938 -0.35186,-0.8732 -0.38086,-1.56836 -0.001,-0.0353 0.076,-0.44494 0.25,-0.81445 0.17397,-0.36952 0.43236,-0.74527 0.63672,-0.92774 0.0843,-0.0752 0.5893,-0.2747 1.30859,-0.32031 0.7193,-0.0456 1.64488,0.0101 2.625,0.16992 0.9785,0.15954 1.548,0.35232 1.88672,0.54492 0.33872,0.19261 1.28512,0.53945 1.47994,0.85117 l 0.31694,-0.86874 c -0.24873,-0.39797 -0.59409,-0.81898 -1.14258,-1.13086 -0.54849,-0.31189 -1.26631,-0.53001 -2.32813,-0.70313 -1.06019,-0.17286 -2.06462,-0.23783 -2.91992,-0.18359 z m -92.590721,0.75684 -0.676868,1.00878 1.244645,0.52049 0.02672,-1.08606 z m 7.473926,2.80558 -0.762191,-0.40624 -0.540942,0.75983 -1.488281,0.88086 0.144531,2.83203 1.312227,0.3798 -0.09543,-2.47935 1.583984,-0.9375 z m -19.44181,0.74302 0.378662,0.67121 0.699468,0.14838 2.381186,0.92532 -0.105795,-1.32962 -1.896484,-0.87695 z m 29.947271,2.55004 c 0.08166,0.42883 0.208531,0.84707 0.330078,1.1914 0.121547,0.34433 0.206649,0.56708 0.333984,0.7793 0.01011,0.0168 0.05295,0.4362 -0.191406,0.80273 -0.38549,0.57824 -0.750751,1.37735 -0.820312,3.04688 -0.06863,1.64712 0.07424,2.29482 -0.07617,3.04687 -0.10481,0.52406 -0.503823,1.51119 0.295545,1.88587 1.057897,0.52895 1.008988,-0.98306 0.985724,-1.0594 -0.02326,-0.0764 -0.05698,-0.20532 0.01563,-0.56836 0.204428,-1.02215 0.03713,-1.70358 0.101562,-3.25 0.0635,-1.52403 0.275424,-1.88091 0.59961,-2.36719 0.465318,-0.69798 0.642072,-1.51971 0.222656,-2.21875 0.0163,0.0272 -0.116508,-0.24389 -0.220703,-0.53906 -0.104195,-0.29518 -0.211432,-0.66217 -0.275391,-0.99805 -0.122397,-0.64279 -0.809583,-1.35463 -0.809583,-1.35463 0,0 -0.640886,0.8164 -0.491224,1.60239 z m -10.924585,9.3904 -0.960181,0.6936 -3.445312,-0.13476 -0.105469,1.6582 -0.08398,1.33594 -0.701173,0.60741 0.322329,0.74891 1.684829,0.10917 -0.0013,-1.14514 1.34375,1.89062 1.078125,-0.76562 -2.175781,-3.0625 2.994141,0.11719 0.481413,-1.32523 z m 0.528585,-0.19036 1.062018,-0.74683 -0.958985,-2.59961 1.427735,-0.81836 -0.466627,-2.26547 -0.697109,-0.46269 v 0 l -2.189782,-0.5473 -1.369141,2.24219 0.861328,1.00781 1.089957,-0.74267 -0.322378,-0.39405 0.355468,-0.58203 0.926859,0.0757 -0.0011,-0.93509 0.34375,1.91992 -1.587891,0.91211 1.037109,2.81055 -0.106417,0.98796 z m -14.350094,-5.98323 -3.303188,1.56306 0.81333,0.46562 2.829702,-0.75133 z m 0.705078,0.80664 -2.132812,4.04101 0.880156,-0.0798 1.526094,-2.09205 1.519531,1.15234 0.798828,-1.05469 z m 11.25586,1.99219 -1.339844,0.82422 -1.037109,1.29688 -0.01172,1.17382 1.324219,0.0137 0.0059,-0.7168 0.609375,-0.76172 1.142578,-0.70312 z m 93.10352,3.05664 c 0.16459,0.44292 0.31547,0.8742 0.42969,1.21485 0.11423,0.34065 0.20096,0.6261 0.20508,0.64257 0.0623,0.24915 0.14428,0.39711 0.26562,0.66407 0.12135,0.26696 0.27024,0.58436 0.41993,0.90039 0.14969,0.31602 0.29978,0.63138 0.41406,0.88281 0.11428,0.25143 0.20348,0.50728 0.18555,0.43555 -0.0217,-0.0867 0.01,0.35529 -0.0586,0.79101 -0.0684,0.43573 -0.19386,0.95447 -0.35937,1.38281 -0.39859,1.03164 -1.09104,3.19797 -1.6211,4.29883 -0.3205,0.66567 -0.63805,1.59492 -0.9375,2.45703 -0.29945,0.86212 -0.6128,1.69948 -0.72265,1.88868 -0.42648,0.73447 -0.44887,2.284518 -0.44887,2.284518 l 0.5934,0.29165 c 0,0 0.62612,-1.271578 0.99805,-1.912108 0.28933,-0.4983 0.53063,-1.25705 0.83007,-2.11914 0.29944,-0.86209 0.62476,-1.7845 0.88086,-2.31641 0.62317,-1.29423 1.30666,-3.47455 1.66211,-4.39453 0.21154,-0.54747 0.3504,-1.13841 0.43164,-1.65625 0.0813,-0.51784 0.14552,-0.87491 0.0352,-1.31641 -0.0623,-0.24914 -0.14428,-0.3971 -0.26563,-0.66406 -0.12134,-0.26696 -0.27023,-0.58437 -0.41992,-0.90039 -0.14969,-0.31602 -0.29978,-0.62943 -0.41406,-0.88086 -0.11428,-0.25143 -0.20348,-0.50923 -0.18555,-0.4375 -0.0402,-0.16094 -0.1158,-0.38858 -0.23437,-0.74219 -0.11857,-0.3536 -0.27285,-0.79699 -0.44336,-1.25585 -0.34102,-0.91773 -0.6832,-1.8348 -1.6299,-2.01465 -0.38411,0.59789 0.0605,1.58976 0.38962,2.47558 z m -98.302739,-1.34179 -1.408203,0.73828 -0.06836,0.77539 -4.169921,0.33203 2.632812,2.97461 5.7e-5,1.31121 0.86821,0.004 0.758686,-1.47342 -1.511719,-1.70898 1.969318,-0.0955 0.229202,0.4491 2.727266,-0.0352 -0.0078,-1.32422 -1.851562,0.0137 z m -5.619141,2.03711 -3.581214,1.33861 0.763231,0.52422 3.060171,-0.56205 z m 98.76173,1.0664 c -0.93632,-0.0655 -1.99961,-0.0455 -2.80274,0.59375 -0.66041,0.52564 -1.36695,1.4102 -2.09765,2.40039 -0.73071,0.9902 -1.4566,2.07511 -2.01367,2.92188 -0.58432,0.88816 -0.87821,1.57874 -1.16407,2.20898 -0.28586,0.63025 -0.56199,1.20679 -1.16406,2.01758 -0.48342,0.65099 -1.47787,1.12557 -2.52344,1.38867 -1.04557,0.26311 -2.1227,0.32818 -2.63281,0.31836 -0.711115,-0.0137 -1.521615,0.16305 -2.210945,0.37109 -0.34466,0.10402 -0.65138,0.21612 -0.90234,0.33399 -0.12548,0.0589 -0.23431,0.11502 -0.34961,0.19922 -0.0576,0.0421 -0.1178,0.0903 -0.1875,0.17578 -0.0697,0.0855 -0.17187,0.228 -0.17188,0.46875 0,0.40261 0.11708,0.59358 0.26563,0.95312 0.14855,0.35955 0.35312,0.79609 0.60156,1.292968 0.23678,0.47355 0.61331,1.2721 1.00977,1.9961 0.19823,0.36199 0.40165,0.7058 0.60937,0.99804 0.20773,0.29225 0.36855,0.5469 0.75782,0.72657 l 0.929955,-0.49543 c 0.0981,-0.0523 -0.45287,-0.77615 -0.60964,-0.99676 -0.1568,-0.2206 -0.343045,-0.53061 -0.527355,-0.86719 -0.36862,-0.67317 -0.7352,-1.44891 -0.98632,-1.951168 -0.23946,-0.47893 -0.43383,-0.89756 -0.5625,-1.20899 -0.0438,-0.10609 -0.0319,-0.0672 -0.0566,-0.15234 0.15753,-0.0654 0.33019,-0.13497 0.5625,-0.20508 0.59695,-0.18016 1.360655,-0.32491 1.802735,-0.3164 0.64312,0.0124 1.78224,-0.0559 2.98047,-0.35743 1.19823,-0.30152 2.47673,-0.82307 3.26367,-1.88281 0.66829,-0.89996 1.01193,-1.61 1.30663,-2.25976 0.29471,-0.64977 0.5399,-1.23198 1.06445,-2.0293 0.55179,-0.83873 1.26737,-1.90556 1.97266,-2.86133 0.7053,-0.95576 1.43115,-1.81306 1.85742,-2.15234 0.28356,-0.22569 1.09701,-0.36381 1.88672,-0.3086 0.39486,0.0276 0.7799,0.088 1.08399,0.1543 0.30408,0.0663 1.39715,0.57135 1.38401,0.56455 l -0.22776,-1.58213 c -0.0407,-0.28266 -0.50956,-0.19572 -0.875,-0.27539 -0.36545,-0.0797 -0.80528,-0.14891 -1.27344,-0.18164 z m -98.384777,0.45703 -0.792968,2.68163 0.901583,-0.12273 1.035917,-1.89484 z m 12.585371,1.11039 -0.700605,-0.45219 -0.335937,2.7129 1.3125,-0.16016 z m 2.281313,2.05247 -0.726059,-0.26638 -0.515625,0.78126 -2.298828,0.46679 0.837891,3.14453 -0.466797,0.81054 0.582157,0.46126 1.503781,-0.3343 -0.816407,-3.0664 2.220703,-0.45117 z m -4.679184,1.14574 -1.4375,1.5039 -1.522734,0.11763 0.393072,0.70546 1.475366,0.72965 2.048828,-2.14063 z m 88.072237,14.453118 c -0.42565,0.6385 -0.55843,0.80009 -1.03321,1.00195 -0.47477,0.20186 -1.36881,0.39274 -3.0371,0.75977 -3.23087,0.71079 -4.89886,0.26393 -6.69922,1.00977 -0.90752,0.37596 -1.52804,0.98674 -1.75391,1.71289 -0.22587,0.72614 -0.0134,1.51552 0.5,2.07421 l 1.30606,0.0705 c -0.37862,-0.94695 -0.62697,-1.48019 -0.54239,-1.75212 0.0846,-0.27192 0.35119,-0.61564 0.9961,-0.88281 1.30447,-0.5404 3.05425,-0.1885 6.47656,-0.9414 1.65831,-0.36484 2.55976,-0.52943 3.27148,-0.83204 0.71172,-0.3026 1.11562,-0.8227 1.61719,-1.48632 0.53677,-0.71018 0.93902,-2.227 0.20364,-2.49664 0,0 -0.904,1.16045 -1.3052,1.76226 z m -26.162075,3.53906 -1.31445,0.15821 c 0,0 0.286,2.58927 -0.01,4.20898 -0.3104,1.69981 -0.99581,3.19502 -2.0957,4.7168 -0.52206,0.72229 -1.0455,1.15742 -1.50196,1.4707 -0.45645,0.31328 -0.82554,0.44908 -1.1875,0.7832 -0.36686,0.33865 -0.57419,0.77654 -0.82421,1.35352 -0.25003,0.57698 -0.49822,1.28239 -0.73829,2.05859 -0.41378,1.33793 -1.14,1.93858 -3.08398,2.78907 -0.90766,0.39709 -2.12556,0.66051 -3.13867,0.8125 -1.01312,0.15198 -1.9178,0.19726 -1.92774,0.19726 -0.55337,0 -1.06309,0.37119 -1.4375,0.91406 -0.10891,0.15794 -0.20518,0.33859 -0.23437,0.54883 -0.0292,0.21025 0.0145,0.36973 0.0332,0.45508 0.0373,0.17069 0.0728,0.25076 -0.002,0.72656 -0.0984,0.62596 -0.10995,1.37692 -0.0957,2.01172 0.007,0.3174 0.0214,0.60124 0.0391,0.82422 0.009,0.11149 0.0181,0.20759 0.0293,0.29102 0.006,0.0417 0.0106,0.0795 0.0195,0.12304 0.009,0.0435 0.003,0.0723 0.0703,0.20703 0.1064,0.21289 0.11833,0.17727 0.17187,0.23829 0.0536,0.061 0.11799,0.13108 0.19532,0.21093 0.15464,0.15972 0.35729,0.35932 0.58984,0.57032 0.4651,0.422 1.02392,0.88793 1.5957,1.17382 l 1.05184,-0.3846 c 0,0 -1.33816,-1.38797 -1.75887,-1.76969 -0.21035,-0.19087 -0.39685,-0.37299 -0.5293,-0.50977 -0.0455,-0.047 -0.0729,-0.0778 -0.10351,-0.11133 -0.005,-0.0431 -0.009,-0.0799 -0.0137,-0.14258 -0.0151,-0.19067 -0.0286,-0.45574 -0.0352,-0.75 -0.0132,-0.5885 0.006,-1.30558 0.0801,-1.77734 0.0955,-0.60792 0.0242,-1.00995 -0.0137,-1.1875 0.24921,-0.3602 0.30537,-0.33984 0.34765,-0.33984 0.28803,0 1.04649,-0.0494 2.12305,-0.21094 1.07656,-0.16151 2.375,-0.42908 3.47461,-0.91016 2.07056,-0.90586 3.28929,-1.90502 3.81641,-3.60937 0.23039,-0.74492 0.46888,-1.41286 0.68945,-1.92188 0.22057,-0.50901 0.46696,-0.87049 0.50781,-0.9082 0.0458,-0.0422 0.49392,-0.29125 1.03711,-0.66406 0.54319,-0.37282 1.20346,-0.92554 1.82617,-1.78711 1.18965,-1.64596 1.97794,-3.34885 2.32617,-5.25586 0.36286,-1.98711 0.0215,-4.60352 0.0215,-4.60352 z m 25.648445,5.06055 c -1.24749,0.94506 -3.01065,1.02 -4.67579,1.06445 -1.97438,0.0527 -3.71875,1.38868 -3.71875,1.38868 l -0.66015,0.47851 0.60547,0.54883 c 0.90037,0.81358 1.76201,1.6945 2.35937,2.50391 0.59736,0.8094 0.87736,1.54207 0.83985,1.92968 -0.0607,0.62731 0.10492,1.86089 0.10492,1.86089 l 0.46739,0.46724 c 0,0 0.21157,-0.23481 0.36524,-0.58399 0.15366,-0.34917 0.3085,-0.86754 0.38086,-1.61523 0.0956,-0.98739 -0.41038,-1.91779 -1.09375,-2.84375 -0.51903,-0.70326 -1.23246,-1.38109 -1.92774,-2.05078 0.58442,-0.32936 1.41852,-0.73786 2.3125,-0.76172 1.66148,-0.0444 3.75952,-0.0594 5.43945,-1.33203 0.8168,-0.61879 1.5198,-2.02428 1.17499,-2.83407 -0.68398,0.63129 -1.32695,1.2893 -1.97386,1.77938 z m -18.367195,0.73047 c 0,0 -0.46583,3.01237 -1.69922,4.70312 -1.36012,1.86444 -2.45124,2.8328 -3.49805,3.83204 -0.5748,0.54867 -0.90625,1.15625 -0.97265,1.86523 -0.0664,0.70898 0.0338,1.49853 0.0957,2.8457 0.12352,2.68667 -0.0756,4.3395 -1.19531,5.62696 -0.78404,0.90148 -1.73548,1.99547 -1.73548,1.99547 l 0.0675,0.65882 c 0,0 0.39257,-0.0575 0.85937,-0.30273 0.4668,-0.2452 1.08639,-0.68474 1.79102,-1.46485 1.49093,-1.65059 1.66058,-3.80367 1.5332,-6.57421 -0.0635,-1.38146 -0.143,-2.19882 -0.0996,-2.66211 0.0434,-0.4633 0.11012,-0.59198 0.57032,-1.03125 1.02318,-0.97669 2.22306,-2.04785 3.65429,-4.00977 1.55791,-2.1356 1.93946,-5.30273 1.93946,-5.30273 z m 6.845705,6.23437 c -0.0388,1.42255 -1.14337,2.97158 -1.88867,4.16407 -0.8084,1.29345 -1.513725,3.38655 -1.675785,4.31836 -0.0958,0.5508 0.14921,1.32152 0.14921,1.32152 l 0.52266,0.40504 c 0,0 0.475755,-0.60809 0.630865,-1.5 0.0889,-0.51088 0.8741,-2.85167 1.49414,-3.84375 0.68316,-1.09305 2.03461,-2.80067 2.08985,-4.82813 z M 53.408688,129.7407 c -0.361709,-0.53193 -0.459953,-0.84718 -0.488281,-1.05664 -0.02833,-0.20946 0.01041,-0.35269 0.04883,-0.65039 0.0436,-0.33787 -0.01957,-0.63376 -0.06055,-0.78711 -0.0038,-0.0143 -5.32e-4,-0.0209 -0.0039,-0.0332 0.331639,-0.14031 0.787146,-0.29612 1.359375,-0.75391 0.584263,-0.46741 1.333823,-0.94603 1.919923,-1.30078 0.52631,-0.31856 1.49585,-0.96301 2.25391,-1.61328 0.15991,0.0462 0.83912,0.25337 3.23046,0.74023 2.6796,0.54555 4.71169,0.57723 5.77735,0.8125 l 0.8497,-1.0401 c 0,0 -3.80527,-0.54846 -6.36337,-1.06927 -2.60499,-0.53036 -3.43555,-0.78516 -3.43555,-0.78516 l -0.37501,-0.11328 -0.2793,0.27344 c -0.57189,0.5586 -1.75481,1.30759 -2.34375,1.66406 -0.6057,0.36661 -1.39222,0.86221 -2.062498,1.39844 -0.490827,0.39266 -1.478515,0.81055 -1.478515,0.81055 l -0.388672,0.15625 -0.02539,0.41992 c -0.02073,0.35247 0.05031,0.63476 0.08789,0.77539 0.03758,0.14063 0.04452,0.12713 0.02539,0.27539 -0.02432,0.18844 -0.10869,0.54097 -0.04687,0.99805 0.06182,0.45707 0.267025,0.97884 0.705078,1.62304 0.411777,0.60556 2.681067,1.98817 2.681067,1.98817 0,0 -1.254644,-2.24308 -1.587317,-2.73231 z m -0.621098,3.79297 c -0.389942,-0.0974 -0.443008,0.0122 -0.5625,0.0566 -0.119493,0.0445 -0.235296,0.0992 -0.365235,0.16406 -0.259877,0.12981 -0.566234,0.3018 -0.888672,0.48633 -0.644874,0.36908 -1.366865,0.79521 -1.724609,0.97071 -0.774689,0.38003 -1.543511,1.34782 -1.543511,1.34782 l 0.215386,0.62483 c 0,0 1.022582,-0.34779 1.910156,-0.7832 0.47339,-0.23223 1.169606,-0.6516 1.798828,-1.01172 0.314612,-0.18006 0.611212,-0.34477 0.824219,-0.45117 0.0426,-0.0213 0.05886,-0.0269 0.09375,-0.043 0.03043,0.0207 0.04701,0.031 0.08398,0.0566 0.185846,0.12897 0.447849,0.31325 0.773437,0.52344 0.651176,0.42038 1.561366,0.94373 2.708986,1.37304 2.19718,0.82198 3.5726,1.25546 4.89453,1.0879 l -0.0834,-0.65583 c 0,0 -2.18589,-0.8614 -4.34823,-1.67035 -1.03214,-0.38611 -1.853432,-0.85894 -2.453129,-1.24609 -0.299849,-0.19358 -0.54424,-0.36535 -0.738281,-0.5 -0.09702,-0.0673 -0.180965,-0.12396 -0.263672,-0.17578 -0.08271,-0.0518 -0.12924,-0.10362 -0.332031,-0.1543 z m 29.980005,1.41011 c -0.43996,0.0245 -2.79216,-0.31902 -4.3843,0.36333 -0.58992,0.25282 -1.81214,0.53328 -2.87304,0.73047 -0.53046,0.0986 -1.02815,0.18097 -1.41016,0.24414 -0.19101,0.0316 -0.35176,0.058 -0.47852,0.0801 -0.12676,0.022 -0.40684,0.54811 -0.40684,0.54811 0.0134,0.29547 0.84346,0.7222 1.10216,0.6785 0.31254,-0.0528 0.88782,-0.14856 1.43359,-0.25 1.09153,-0.20289 2.31717,-0.45569 3.1543,-0.81445 1.26193,-0.54084 3.47704,-0.788 3.60156,-0.79493 0.12833,-0.007 0.15204,0.0433 0.4375,-0.0566 0.14273,-0.05 -0.17625,-0.72867 -0.17625,-0.72867 z"
     id="path12539" /><path
     id="path3738"
     style="font-variation-settings:normal;vector-effect:none;fill:#cccccc;fill-opacity:1;stroke:none;stroke-width:0.132292;stroke-linecap:butt;stroke-linejoin:miter;stroke-miterlimit:4;stroke-dasharray:none;stroke-dashoffset:0;stroke-opacity:1;-inkscape-stroke:none;stop-color:#000000"
     d="m 62.772945,5.490157 -1.69344,2.556433 -0.37517,-0.06821 -0.46715,1.812292 0.58549,-0.05788 -0.1664,3.473173 -3.85299,3.255616 1.84536,1.71514 -1.22318,3.152263 1.20768,0.658874 2.02313,-2.760038 0.48576,0.06253 -0.18655,2.415357 1.3224,-0.0041 0.54209,-2.960026 1.01957,0.03152 0.12557,1.379761 0.68989,0.219625 0.78393,-2.760038 0.5178,0.125573 0.46199,1.291911 c -0.36464,0.91651 -0.75934,1.916757 -0.93845,2.401404 -0.37698,1.020163 -0.93124,2.572467 -0.42116,3.370854 0.5101,0.798385 0.84288,2.306678 0.59893,3.016353 -0.24396,0.709676 -1.73987,4.691626 -2.33578,5.287532 -0.59591,0.595909 -4.01483,1.442848 -5.45755,1.756482 -1.44272,0.313636 -5.927725,2.195335 -6.523631,2.320789 -0.595909,0.125455 -1.28591,1.317073 -1.630908,1.693437 -0.303439,0.331023 -2.101086,-1.348439 -2.696993,-2.508891 -0.595908,-1.160451 -2.446563,-4.484925 -2.791561,-7.119462 -0.345,-2.634539 -0.125572,-4.610296 0.282153,-5.676656 l 0.861963,0.09922 0.17725,1.641243 1.042314,0.199471 -0.332796,1.730127 0.998388,0.111104 1.241785,-3.149678 1.441256,2.240173 1.042313,-0.377238 -1.596802,-3.681429 2.506307,-0.199471 0.199471,3.725871 3.038571,0.02222 -0.15554,-1.574581 -1.396816,-0.06666 -0.177767,-2.905249 3.615283,-1.796272 -0.73225,-1.419552 -3.171388,1.108976 0.177767,-3.238045 1.308447,0.820622 0.421164,-1.796273 -1.907378,-1.352889 -2.350761,-1.286226 2.372982,-0.398942 -0.376721,-1.862936 -2.129069,0.398942 -0.820622,-1.685168 1.943551,-0.222209 -3.052527,-1.241785 -5.375382,2.968295 -0.971517,-0.04289 -8.043437,-0.307474 -0.639237,-0.27957 -4.010092,-0.837158 -4.202327,-2.942456 -4.014225,1.840714 -1.912028,3.137276 -0.699182,-0.230476 -3.802869,0.367419 -3.322278,2.778642 -0.01137,0.926041 -0.535885,0.798401 0.149862,8.372616 -0.852661,-0.701766 -1.968356,7.929231 1.345655,0.756027 -0.183452,5.282364 2.755388,3.033924 -0.15813,0.792716 -2.581755,4.108276 -0.248047,3.190503 0.564307,0.49041 -0.31626,3.579626 4.690153,1.69085 0.422196,-1.83193 0.768429,0.36071 0.501778,2.02313 0.611332,-0.094 -0.219108,-2.79156 1.99161,0.15709 0.109554,2.22674 1.662431,0.047 0.360701,-3.23029 1.913062,2.90111 1.035079,-0.58033 -1.709457,-3.716564 3.991488,3.574974 1.37666,-0.0842 -0.222725,-3.746023 0.108003,-1.5012 0.59583,-0.830957 -0.840776,-5.085995 -4.130497,0.412895 -0.485759,-0.988053 c 4.153474,-1.399214 10.706918,0.290383 13.218832,1.160652 2.549954,0.883449 3.836926,2.905405 3.54862,4.30258 -0.288307,1.397173 -1.308463,2.372687 -2.106848,2.749703 -0.798385,0.377014 -1.486104,0.842728 -2.484086,1.574578 -0.997982,0.73186 -0.854472,0.46818 -1.873787,2.14613 -1.019315,1.67794 -1.662417,3.65398 -1.709457,4.20284 -0.04705,0.54887 3.38e-4,1.74087 -0.391707,2.43087 -0.392045,0.68998 -1.34858,2.16391 -2.995166,2.46186 -1.646585,0.29795 -3.952214,-1.2547 -3.952214,-1.2547 l 1.615406,-0.61134 -0.313676,-1.14515 -1.473812,0.5023 -0.737423,-0.26665 0.470773,-1.72496 -1.176156,-0.54933 -0.737423,2.03864 -1.944584,-0.32917 0.125574,-3.10473 -1.254187,-0.0941 -0.313676,1.91307 -1.333252,-0.86249 -0.877983,-1.4428 -0.68988,0.15657 0.361735,0.97152 -2.996716,1.64745 1.412833,3.84628 0.135393,0.56172 -1.892908,3.51142 -0.773596,5.45238 1.808675,0.83612 0.674377,1.28571 0.0067,3.09025 2.078943,1.19114 2.446362,1.94459 -0.329695,3.33984 3.228743,-0.43046 0.207223,-0.10852 2.868042,0.86868 0.812353,-0.80564 1.19786,-1.49706 1.241785,-0.76481 1.44694,2.48357 0.8816,-0.79841 -0.997872,-2.70526 1.507918,-0.86506 -0.429431,-2.38642 -2.461865,-1.56838 -0.125574,-2.43086 1.536857,-0.9095 -0.188102,-1.09761 -2.461865,1.17616 -0.690398,-0.1726 c 0.219546,-0.48613 1.772208,-2.13253 3.293339,-2.91662 1.521133,-0.78409 2.968811,-1.15962 2.968811,-1.15962 0.0998,0.86491 0.133026,1.44126 0.243913,1.70739 0.110886,0.26612 0.842635,0.46575 1.264006,1.5968 0.421368,1.13105 1.818731,1.79632 2.994132,2.35076 1.175402,0.55443 1.773918,1.41946 1.441256,3.48196 -0.33266,2.0625 -0.536106,4.40924 -0.127124,5.82703 0.408981,1.41781 2.127161,2.51779 2.213301,2.56109 0.223549,0.11225 0.484208,-0.29392 0.484208,-0.49351 0,-0.1996 -0.30816,-0.37639 -0.130741,-1.26349 0.17742,-0.8871 0.02235,-1.55239 0.08888,-3.14916 0.06653,-1.59678 0.354679,-2.17352 0.709517,-2.70578 0.354838,-0.53226 0.421468,-1.15308 0.206706,-1.51102 -0.111033,-0.18505 -0.434193,-0.98918 -0.57981,-1.7539 -0.136031,-0.71439 -0.08477,-1.38036 -0.159163,-1.47846 -0.07439,-0.0981 -0.605485,-0.268 -0.978752,-0.47077 -0.373267,-0.20278 -0.546245,-0.4161 -0.721403,-0.53795 -0.175157,-0.12185 -0.933078,0.18126 -1.659847,-0.83303 -0.72677,-1.01428 -1.363822,-3.66111 -1.142049,-6.74377 0.221774,-3.08266 1.375074,-5.47774 3.992004,-7.34064 2.616931,-1.86291 3.814725,-1.26411 6.697783,2.37298 2.883058,3.6371 8.560197,11.33264 8.560197,11.33264 0,0 -1.039631,0.31187 -2.498035,0.10801 -1.458406,-0.20387 -2.352454,-0.36097 -3.246314,-0.56483 0.125454,0.75272 0.705704,1.45837 1.583883,2.13269 0.878178,0.67431 0.815808,0.68998 0.784448,0.86248 -0.03136,0.1725 -0.70582,1.11351 -0.894002,1.80351 0,0 2.979289,0.4235 4.28088,0.98805 1.30158,0.56454 3.68527,1.67801 5.61412,3.57549 1.92886,1.8975 5.51997,5.62969 10.28724,12.46694 4.76724,6.83727 6.42959,10.851908 6.83731,14.490068 0.40773,3.63818 -1.1917,8.65632 -3.9517,10.28723 -2.76,1.63091 -7.15108,1.92876 -9.76995,1.91306 -2.61886,-0.0157 -3.58175,-0.35315 -4.57905,-1.39578 -1.035,-1.08204 -1.31698,-1.30121 -1.52084,-1.30121 -0.20386,0 -2.68189,1.01932 -2.96416,1.22318 -0.282273,0.20386 -0.673961,2.16399 -0.84646,2.68149 -0.1725,0.5175 -0.51774,0.87812 -1.066601,1.36426 -0.548863,0.48613 -2.916522,2.25799 -3.559473,2.91662 -0.642955,0.65864 -0.580326,0.92558 -0.580326,1.19217 0,0.26659 -0.282432,2.85411 -0.43925,3.62252 -0.156818,0.76841 0.04685,1.31688 0.470255,2.16369 0.423404,0.84682 0.721719,1.647 0.376722,2.72903 -0.345,1.08204 -1.20752,1.89755 -1.583883,3.16777 0,0 1.003379,-0.34521 1.834513,-0.75293 0.831135,-0.40773 2.83831,-1.6936 3.089217,-1.6309 0.250909,0.0627 1.53732,1.2387 3.717086,2.05413 2.17977,0.81546 3.46564,1.19172 4.57905,1.05059 0,0 -2.11747,-1.66183 -3.90519,-3.0732 -1.68925,-1.33362 -3.355531,-2.91715 -4.155301,-4.09329 -0.79977,-1.17613 -0.611534,-1.67807 -0.548804,-2.16421 0.06273,-0.48613 -0.141431,-0.56443 -0.110071,-1.09761 0,0 1.019139,-0.40768 1.646412,-0.9095 0.62727,-0.50182 1.395704,-0.98808 1.991614,-1.34876 0.5959,-0.36069 1.78806,-1.09732 2.46238,-1.75596 0,0 0.87809,0.26625 3.49694,0.79943 2.61886,0.53318 4.57924,0.54887 5.78674,0.81546 0,0 -0.42343,0.81547 -0.40773,1.58388 0.0157,0.76841 -0.0157,4.35958 -0.047,4.79867 -0.0314,0.43909 -0.18827,1.11374 -0.12557,1.2392 0.0627,0.12545 1.11361,0.36045 1.97611,0.97204 0.8625,0.61159 2.24212,2.08592 2.52439,2.28978 0.28227,0.20387 0.62735,0.32916 1.0821,0.78393 0.45477,0.45477 0.6586,1.01943 0.90951,0.94103 0.25091,-0.0784 3.71682,-0.53356 5.14387,-1.14515 1.42704,-0.61159 3.54387,-0.83076 3.82612,-0.84646 0.28225,-0.0157 0.29818,-1.3e-4 0.29818,-0.12558 0,-0.12546 -0.94114,-0.7055 -2.74454,-0.7369 -1.80341,-0.0314 -5.06529,0.0471 -5.97483,-0.40773 -0.90954,-0.45477 -2.19504,-1.77211 -2.25774,-1.89756 -0.0627,-0.12546 -0.1725,-1.96049 0,-3.05821 0.1725,-1.09773 -0.21959,-1.00354 0.094,-1.45831 0.31364,-0.45477 0.59554,-0.62735 0.89349,-0.62735 0.29796,0 3.3247,-0.1879 5.33197,-1.06608 2.00727,-0.87818 2.97947,-1.67815 3.44992,-3.19929 0.47046,-1.52113 0.97256,-2.74438 1.38028,-3.12074 0.40773,-0.37637 1.63077,-0.76845 2.77554,-2.35231 1.14477,-1.58387 1.88191,-3.18337 2.21123,-4.98678 0.32931,-1.80341 0.0155,-4.40645 0.0155,-4.40645 0,0 0.29789,-0.0785 0.5488,0.28216 0.25091,0.36068 0.90987,1.27045 1.28623,1.47432 0.37636,0.20386 1.23882,0.7841 1.72496,1.63091 0.48611,0.84682 0.28222,2.13253 0.094,2.50889 -0.18818,0.37637 -0.72154,2.8071 -1.20768,3.5755 -0.48614,0.76839 -0.7056,1.52127 -1.81901,2.93263 -1.11341,1.41136 -1.56828,1.45823 -1.80351,1.64641 -0.23522,0.18818 -0.78405,1.1133 -0.81545,1.50534 -0.0314,0.39205 0.89006,2.09086 1.64279,4.03541 0.75272,1.94454 0.86628,3.49222 0.44287,4.90358 -0.42341,1.41136 -1.16014,2.08566 -1.16014,2.08566 0,0 0.90947,-0.0945 2.22674,-1.55288 1.31732,-1.4584 1.48971,-3.37126 1.36426,-6.09988 -0.12546,-2.72863 -0.36063,-3.2149 0.67437,-4.20285 1.035,-0.98796 2.17982,-2.00751 3.5755,-3.92069 1.39566,-1.91318 1.81901,-5.00228 1.81901,-5.00228 0,0 1.66209,1.78763 2.46186,3.08922 0.79977,1.30159 1.297655,1.99801 1.156515,2.75074 -0.14114,0.75273 -0.750115,1.8046 -1.267615,2.88664 -0.51746,1.08205 -0.92382,3.50502 -0.48473,4.3832 0.43909,0.87818 0.90951,2.83858 0.90951,2.83858 0,0 0.37633,-0.48632 0.50178,-1.20768 0.12546,-0.72135 0.871205,-2.93915 1.585425,-4.08192 0.71423,-1.14277 1.94306,-2.77085 1.99006,-4.49585 0,0 0.83564,0.41872 2.43241,0.46302 1.59678,0.0444 2.74971,1.3084 3.28197,2.32854 0,0 0.42143,-0.42127 0.55449,-1.79627 0.13307,-1.375 -1.57457,-3.32658 -3.4153,-4.98987 0,0 1.68533,-1.21961 3.34863,-1.26401 1.66331,-0.0444 3.59283,-0.089 5.05654,-1.19786 1.46371,-1.10887 1.57458,-2.30632 1.57458,-2.30632 0,0 -1.64127,0.99809 -2.70578,1.37511 -1.0645,0.37701 -2.41726,-0.13299 -3.39307,-0.75396 -0.97581,-0.62096 -2.10665,-0.48816 -3.06028,-0.39946 -0.95363,0.0887 -3.08293,-0.11065 -3.83697,-0.93121 -0.75403,-0.82057 -0.53233,-2.08486 1.02009,-2.728 1.55242,-0.64313 3.26059,-0.2438 6.58719,-0.97565 3.32661,-0.73186 3.59275,-0.70954 4.47983,-2.04018 0.88709,-1.33065 0.75396,-2.12907 0.75396,-2.12907 0,0 -0.75428,0.62077 -2.24017,0.95343 -1.48589,0.33266 -2.52808,0.62118 -4.14703,-0.15503 -1.61895,-0.77621 -4.14746,-0.4657 -5.94383,0.0222 -1.79635,0.4879 -2.97149,0.75396 -3.5481,0.48783 -0.576615,-0.26613 -1.574505,-2.43949 -2.062405,-3.4153 -0.4879,-0.975808 -0.7984,-1.707868 -0.7984,-1.951818 0,-0.24395 1.99596,-0.90948 3.149155,-0.88728 1.15323,0.0222 4.42904,-0.26278 5.6994,-1.97352 1.27036,-1.71076 1.24189,-2.57266 2.35076,-4.25814 1.10887,-1.68549 2.88309,-4.30221 3.96978,-5.16713 1.08669,-0.86492 3.75488,-0.3155 4.23592,-0.0667 0.40218,0.20803 1.08701,2.68366 1.22008,3.5264 0.13306,0.84275 0.776,4.2359 0.6873,5.01209 -0.0887,0.77621 -0.90917,2.94937 -1.26401,3.83646 -0.35484,0.8871 -0.15539,2.062548 0.44338,2.661338 0,0 0.6209,-1.264318 1.0201,-1.951818 0.39919,-0.6875 1.10907,-3.19337 1.68568,-4.39095 0.57661,-1.19756 1.26423,-3.37121 1.64125,-4.34702 0.37705,-0.97581 0.53208,-2.21761 0.44338,-2.57245 -0.0887,-0.35484 -1.19753,-2.52819 -1.28623,-2.88303 -0.0887,-0.35484 -1.10343,-3.39565 -1.66604,-4.17339 -0.56263,-0.77777 -2.38297,-0.47699 -3.84938,-0.83767 -1.37827,-0.33901 -1.31375,-0.7853 -2.5678,-0.7953 -0.0936,-1.31143 0.23697,-3.46509 0.22117,-4.35064 -0.0158,-0.88555 -0.43255,-1.41961 -1.23093,-1.97404 -0.79839,-0.55444 -0.64288,-1.55237 -0.66508,-2.08463 -0.0222,-0.53226 0.4875,-1.70744 1.10846,-2.26188 0.62097,-0.55441 2.43951,-0.64323 4.47983,-0.31057 2.04032,0.33266 2.57281,0.82046 3.01636,1.53014 0.44355,0.70968 1.35293,3.96977 1.64124,5.54436 0.28831,1.5746 0.68761,3.25984 1.10898,3.83646 0,0 0.26617,-2.15088 0.31057,-3.52588 0.0443,-1.375 -0.26632,-4.52437 -0.35502,-5.10098 -0.0887,-0.57661 -0.35493,-1.44131 -0.57671,-1.99575 -0.22177,-0.55443 -0.70981,-1.88531 -0.86506,-1.95181 -0.15524,-0.0665 -1.37467,-0.15544 -3.25975,-1.15342 0,0 1.86291,-1.17511 2.90525,-1.9513 1.04233,-0.77621 1.61867,-1.2419 1.68517,-2.35077 0.0665,-1.10886 -0.37703,-3.68154 -0.53227,-4.79041 -0.15524,-1.10887 -0.55449,-3.34915 -0.55449,-3.34915 0,0 -0.37672,1.75229 -0.64285,2.77244 -0.26613,1.02016 -0.70958,3.45968 -1.53014,4.47984 -0.82057,1.02016 -3.12736,2.12907 -4.92373,2.3952 -1.79637,0.26613 -2.90509,0.53227 -3.8809,0.53227 -0.9758,0 -1.57441,-3e-4 -1.75183,0.11059 -0.17742,0.11088 -0.64351,0.75444 -0.97617,0.99839 -0.33266,0.24395 -1.8405,3.94726 -1.99574,4.32428 -0.15524,0.37701 -0.59893,2.83877 -0.3328,3.1936 0.26613,0.35484 1.00483,0.58933 1.77405,1.15342 0.66533,0.4879 0.42157,1.79621 0.0889,2.81637 -0.33266,1.02016 -1.08643,3.92574 -1.97353,6.23217 -0.88709,2.30645 -1.66455,4.28621 -3.85299,4.80281 -2.188445,0.51659 -4.284665,1.15337 -6.746355,0.59893 -2.4617,-0.55443 -7.63083,-6.62168 -9.6268,-8.662 -1.99597,-2.04033 -3.94744,-4.03659 -4.41317,-4.90151 -0.46572,-0.86492 -2.01815,-2.15096 -2.90525,-3.03806 -0.8871,-0.8871 -2.20618,-3.13614 -3.52278,-4.81417 -1.3166,-1.67805 -1.9548,-3.3472 -2.95279,-4.98833 -0.99798,-1.64113 -1.90743,-4.9233 -2.46187,-6.80838 -0.55444,-1.88507 -0.82062,-4.900989 -0.82062,-4.900989 0,0 -1.26424,0.376741 -1.90738,1.441259 0,0 -0.72708,-0.719857 -1.13481,-1.535311 -0.40773,-0.815451 -0.79995,-1.348754 -0.79995,-1.348754 0,0 -0.28215,1.160953 -0.32919,2.086177 -0.047,0.925228 -3.1e-4,3.779058 -0.063,3.873148 -0.0627,0.0941 -0.59579,0.29797 -1.50533,-0.45475 -0.90954,-0.75273 -1.357,-1.55613 -2.13321,-2.42104 -0.77621,-0.86492 -2.28423,-2.239886 -2.61689,-2.883031 -0.33266,-0.643144 -0.77644,-1.241794 -0.90951,-1.774052 -0.13306,-0.532256 -0.4212,-1.441308 -0.44338,-1.995744 -0.0222,-0.554433 -10e-5,-1.375473 1.26401,-2.351277 1.26411,-0.975805 5.47803,-1.862425 7.23005,-2.128552 1.75201,-0.266129 5.81048,0.132643 7.38508,0.576192 1.57459,0.443546 2.59455,1.973967 3.32641,2.727999 0.73185,0.75403 2.30633,1.818626 2.83859,1.885156 0.53224,0.06653 4.16964,-0.532321 6.47609,-1.086755 2.30644,-0.554435 2.8608,-1.086929 2.8608,-1.175639 0,-0.08871 2.1e-4,-1.152917 -0.68729,-1.951302 0,0 -1.57458,0.509969 -3.94757,0.997872 -2.37296,0.487901 -3.4379,0.399014 -4.67981,-0.355018 -1.24194,-0.75403 -3.77028,-3.659175 -4.01423,-4.169254 -0.24395,-0.51008 -0.4654,-1.419252 -0.88677,-1.530139 -0.42137,-0.110888 -2.77234,0.665539 -4.30258,0.111104 0,0 0.90959,-0.976111 1.22008,-2.528528 0.31048,-1.552416 0.48767,-2.550082 1.19735,-3.792016 0.70967,-1.241933 3.19352,-3.748188 3.94756,-4.324801 0.75403,-0.57661 2.3289,-1.951516 4.36924,-2.32854 l -0.0713,1.046965 -2.63447,1.176155 0.23513,1.144633 1.67794,-0.26665 0.95653,1.536857 -1.69344,0.894002 0.23513,0.877983 2.33164,-0.807186 5.88233,-2.334224 2.35541,0.0052 0.84697,-1.677934 1.27021,0.7059 1.59939,2.822567 1.14463,-0.595829 -0.95653,-2.211235 1.36426,-0.862479 1.47433,2.070158 1.70945,-0.925525 -1.81953,-3.449919 3.73259,-1.474328 -0.59583,-1.802991 -3.41891,1.082104 0.5178,-2.242757 -1.67793,-0.141076 -0.73743,2.320788 -1.77198,-0.564307 1.22318,-3.089217 -1.08211,-0.392224 -1.05058,2.132687 -3.63802,-0.360702 -1.45831,0.595829 -0.91932,-0.317293 -2.40554,2.105298 -3.87573,-1.949235 -0.52348,-0.947229 -0.82269,-3.596163 -3.40496,-0.170532 -0.70849,-2.241724 -3.77444,0.906922 -3.20549,-1.937867 -1.15394,-0.335896 -2.38383,0.360701 1.38028,-3.559989 z m -30.381092,9.39891 0.798527,0.520874 -0.621277,0.987044 1.508435,0.665592 -0.554488,1.352373 -1.530656,-0.398942 -0.510046,0.642854 1.153418,0.865064 -0.576709,1.086755 -1.72961,-0.908988 -1.220081,1.264005 -1.152901,-0.77618 1.064534,-1.419551 -1.57458,-0.997872 0.975651,-1.397331 1.641243,0.997872 0.620634,-0.687296 -1.352889,-1.020093 0.621151,-0.731738 1.55236,0.886767 z m 42.196392,1.394747 1.13688,0.675411 -3.1259,4.117061 0.64337,0.554488 0.82062,-0.421163 0.0191,1.072286 c -1.00765,0.642649 -2.17517,1.435519 -2.92437,2.099097 -1.55242,1.375001 -2.0845,2.527885 -2.2841,2.727482 -0.1996,0.199597 -0.6431,-0.753588 -0.51004,-1.618506 0.13306,-0.864917 0.13302,-3.215797 0.51004,-3.992004 0.37702,-0.77621 0.97565,-2.284615 0.97565,-2.284615 l 0.93121,-1.796273 0.53227,0.288354 -0.24391,1.97404 1.15342,0.310059 z m -36.319231,3.01842 -0.199988,4.280359 -1.530139,0.110587 0.133325,-4.302063 z m -2.374532,5.602242 0.68988,0.09405 0.110071,2.305286 0.988053,0.03152 0.250631,-1.788004 0.736906,0.909505 c 0,0.219545 -0.406149,3.610644 -0.239262,5.276164 0.166887,1.665517 1.138694,4.693754 2.743502,6.797001 -1.064514,-0.243952 -4.845844,-1.617468 -9.661426,-2.336809 -4.815581,-0.71934 -8.41344,-0.257865 -8.41344,-0.257865 l -0.06408,-0.759127 3.857646,-0.658874 -2.289266,-2.948141 1.019059,-0.642854 2.807064,3.622517 2.355929,-1.610754 0.220141,-4.173905 3.256132,-1.18184 1.459859,-0.216008 z m -14.019299,8.813415 0.203605,1.473812 -3.701066,0.42323 -0.219108,-1.724959 z m -3.449919,12.29434 1.191658,0.329179 -0.01602,3.402893 -1.207162,0.580329 -2.917134,-0.988056 0.502295,-1.191658 2.24224,0.580326 z m 2.132686,17.391191 c 1.113406,0.14114 2.148094,1.09736 3.198771,1.66191 1.050493,0.56446 2.590093,0.42241 3.230811,0.72141 -2.164085,1.27023 -4.736145,3.32486 -4.736145,3.32486 l -0.517281,-0.23513 0.0155,-1.01958 -0.658875,-0.0785 -0.658357,1.45882 -1.427303,1.08159 -1.176156,-0.28215 -0.04703,-0.87799 1.709457,-1.22318 1.55236,-2.33681 0.298173,-0.925 -0.988054,-0.5178 z m 7.260539,13.07827 1.12913,0.29817 0.172599,0.89401 -1.615405,0.86248 -0.548804,-0.64286 z" /><g
     id="g5496"
     transform="translate(-35.692879,-42.417512)"><path
       style="color:#000000;opacity:1;fill:#ffffff;-inkscape-stroke:none"
       d="m 75.646484,48.1875 -1.320312,3.621094 -1.683594,-3.275391 -1.42669,0.258516 1.848565,3.452422 -3.069609,0.206349 0.128679,1.716321 3.326967,-0.639353 0.04951,2.906136 1.322266,0.06055 0.140625,-3.007813 2.913472,0.876136 0.161655,-1.604652 -2.471612,-0.492187 1.322266,-3.625 z"
       id="path5493" /><path
       style="color:#000000;opacity:1;fill:#ffffff;-inkscape-stroke:none"
       d="m 84.320903,46.191157 -0.702285,3.416947 -2.462254,-3.570178 -1.299624,0.795036 2.058594,3.376704 -3.430959,1.378225 0.525391,1.21289 4.015625,-1.736328 0.958984,2.644531 1.242187,-0.449218 -0.95508,-2.735352 3.166014,0.549805 0.232422,-1.300782 -2.632813,-0.472656 0.490598,-2.930618 z"
       id="path5498" /><path
       style="color:#000000;opacity:1;fill:#ffffff;-inkscape-stroke:none"
       d="m 82.654297,55.992187 -1.240235,0.455079 1.183594,3.222656 -3.199219,-0.337891 -0.138671,1.316406 L 82.595703,61 l -1.072266,2.955078 1.244141,0.451172 1.073878,-3.530433 2.488622,1.745277 0.677734,-1.136719 -1.882812,-1.125 2.142578,-1.363281 -0.708984,-1.117188 -2.601563,1.65625 z"
       id="path5506" /><path
       style="color:#000000;opacity:1;fill:#ffffff;-inkscape-stroke:none"
       d="m 65.261719,46.970703 -0.609376,3.458988 -2.724609,-2.242184 -0.849609,1.015625 2.369141,1.984375 -1.009766,4.201172 1.287109,0.308594 0.810547,-3.371094 2.021485,2.535156 1.033203,-0.826172 -1.792969,-2.248047 3.558821,0.383835 0.256655,-1.635902 -3.228288,-0.158427 0.184297,-3.194971 z"
       id="path5508" /><path
       style="color:#000000;opacity:1;fill:#ffffff;-inkscape-stroke:none"
       d="m 58.663472,45.593636 -1.575127,-0.294106 -0.449087,3.915086 -2.87064,-1.939091 -0.62316,1.277684 2.913381,1.897735 -0.842046,2.918196 1.203125,0.552734 1.451172,-3.166016 2.039062,3.148438 1.109375,-0.720703 -2.03125,-3.132813 3.444155,-1.640511 -0.703466,-1.550192 -3.583168,2.071677 z"
       id="path5510" /><path
       style="color:#000000;opacity:1;fill:#ffffff;-inkscape-stroke:none"
       d="m 50.453125,49.646484 -0.498047,3.345703 -2.466797,-2.355468 -1.227698,0.988395 2.794104,2.335823 -2.257812,1.142579 0.595703,1.18164 2.804097,-1.385333 1.162224,3.139807 1.228515,-0.490234 -1.192315,-2.573061 2.222088,0.85179 0.416016,-1.255859 -1.953125,-0.648438 2.4375,-0.785156 -0.404297,-1.257813 -2.787109,0.896485 0.435547,-2.9375 z"
       id="path5512" /><path
       style="color:#000000;opacity:1;fill:#ffffff;-inkscape-stroke:none"
       d="m 58.65625,61.1875 -1.314453,0.134766 0.324219,3.15039 -3.361329,0.427735 0.166016,1.3125 3.226563,-0.410157 -0.05469,2.947266 1.324219,0.02344 0.05078,-2.927734 2.783203,0.498047 0.232422,-1.300781 -2.044922,-0.367188 1.234375,-2.146484 -1.146484,-0.660156 -1.146485,1.992187 z"
       id="path5595" /><path
       style="color:#000000;opacity:1;fill:#ffffff;-inkscape-stroke:none"
       d="m 66.347656,67.007812 -0.246094,2.939454 -2.376953,-1.916016 -0.986896,1.248842 2.959667,1.732558 -2.609489,1.516647 0.570312,1.193359 2.453125,-1.175781 0.367188,2.808594 1.310546,-0.171875 -0.36914,-2.618346 2.96875,0.403502 0.271484,-1.294922 L 68.050781,71.126953 69.955078,70 l -0.675781,-1.138672 -1.851563,1.097656 0.238282,-2.839843 z"
       id="path5597" /><path
       style="color:#000000;opacity:1;fill:#ffffff;-inkscape-stroke:none"
       d="m 42.570312,51.882812 -1.269531,0.371094 0.955078,3.263672 -2.816406,-1.044922 -0.460937,1.240235 2.609375,0.96875 -2.367188,2.876953 1.303756,0.716343 2.377885,-3.106968 4.074218,1.302734 0.404297,-1.259766 -3.064453,-0.980468 1.984375,-1.164063 -0.669922,-1.142578 -2.101562,1.232422 z"
       id="path5754" /><path
       style="color:#000000;opacity:1;fill:#ffffff;-inkscape-stroke:none"
       d="m 47.720703,57.947266 -1.318359,0.09375 0.224609,3.167968 -3.243664,-1.182094 -0.149255,1.616597 3.142919,0.881904 -3.254247,1.053778 0.441179,1.504929 3.098224,-1.244254 0.332871,2.542037 1.422783,-0.391782 -0.805618,-2.805347 3.133949,-0.57733 -0.359375,-1.273438 -2.376953,0.671875 z"
       id="path5840" /><path
       style="color:#000000;opacity:1;fill:#ffffff;-inkscape-stroke:none"
       d="m 46.142272,65.680482 -1.767272,-0.05158 0.441406,3.46875 -3.71875,-0.894531 -0.310547,1.287109 2.990484,1.020214 -0.802984,2.53838 1.199219,0.560547 1.265625,-2.710938 2.683594,1.740235 0.71875,-1.111328 -2.214276,-1.568474 2.300213,-1.402229 -0.667968,-1.142579 -2.164063,1.261719 z"
       id="path5916" /><path
       style="color:#000000;opacity:1;fill:#ffffff;-inkscape-stroke:none"
       d="m 45.519531,74.365234 -1.298828,0.251953 0.71875,3.701172 -3.618209,-2.351903 -0.554007,1.315248 3.096975,2.191293 -2.507585,2.159361 1.117982,1.096158 2.371094,-2.191407 3.246094,2.144532 0.728515,-1.103516 -2.964843,-2.337301 3.71875,-0.703715 -0.369141,-1.269531 -2.957031,0.857422 z"
       id="path5993" /><path
       style="color:#000000;opacity:1;fill:#ffffff;-inkscape-stroke:none"
       d="m 62.498047,84.332031 -1.257813,0.408203 0.943587,2.89711 -2.613509,0.653672 0.204341,1.022585 3.091547,-0.538835 -1.356434,2.279921 1.125,0.695313 0.917457,-1.512934 2.995447,2.056528 0.600767,-1.20961 -2.415333,-2.095817 2.033679,-3.206008 -1.648529,-0.789177 -1.369923,3.001273 z"
       id="path6071" /><path
       style="color:#000000;opacity:1;fill:#ffffff;-inkscape-stroke:none"
       d="m 45.667969,91.263672 -0.619368,2.592876 -2.509539,-2.118267 -0.763671,1.078125 2.414062,1.710938 -2.397847,0.756711 0.580987,1.312614 2.428188,-0.860341 -1.098394,2.562081 1.375568,-0.431143 1.072436,-1.929766 3.891647,0.596747 0.02046,-1.0362 -2.746094,-0.646485 2.374183,-0.9437 -0.503906,-1.222656 -3.194076,1.154808 0.960518,-2.263842 z"
       id="path6150" /><path
       style="color:#000000;opacity:1;fill:#ffffff;-inkscape-stroke:none"
       d="m 46.757812,82.869141 -1.742187,3.376953 -3.141534,-0.383211 -0.185774,1.773133 3.341434,0.04016 -1.305653,2.503054 1.379418,0.594204 1.098394,-2.296648 2.395746,1.146258 0.558594,-1.201172 -3.044922,-1.416016 1.822266,-3.53125 z"
       id="path6152" /><path
       style="color:#000000;opacity:1;fill:#ffffff;-inkscape-stroke:none"
       d="m 61.625,92.951172 -1.065952,0.325263 1.17728,2.942315 -3.236953,1.543764 1.058572,0.7738 2.36118,-1.222486 1.187784,2.482116 1.301292,-0.917038 -1.019133,-1.95468 2.107478,-1.343353 -0.800952,-1.399573 -1.838174,1.314794 z"
       id="path6154" /><path
       style="color:#000000;opacity:1;fill:#ffffff;-inkscape-stroke:none"
       d="m 92.034112,44.522642 -1.665539,0.596385 1.330646,3.646598 -3.030433,-0.887855 -0.304802,1.577194 3.690703,0.736442 -1.431867,3.139354 1.420717,0.525277 1.085255,-2.526549 2.801463,0.878793 0.466911,-1.812592 -2.889354,-0.723814 2.597998,-2.06527 -0.753339,-1.586257 -1.983807,1.876385 z"
       id="path6236" /><path
       style="color:#000000;opacity:1;fill:#ffffff;-inkscape-stroke:none"
       d="m 96.515625,52.150391 -0.621094,2.40625 -2.558685,-1.500341 -0.291265,1.427031 2.246435,1.266669 -3.453125,1.980469 0.658203,1.148437 3.679687,-2.109375 1.09777,3.186001 1.248047,-0.435547 -1.009879,-2.930141 2.794921,-0.892578 -0.402343,-1.261719 -2.833025,0.888672 0.725569,-2.841797 z"
       id="path933" /><path
       style="color:#000000;opacity:1;fill:#ffffff;-inkscape-stroke:none"
       d="m 105.91797,49.087891 -1.28516,0.310546 0.96289,3.982422 -2.74414,-2.359375 -0.86328,1.001953 2.46289,2.117188 -2.30273,1.427734 0.69531,1.125 2.58789,-1.603515 1.75195,2.496093 1.08399,-0.759765 -1.66602,-2.373047 3.24414,-1.917969 -0.48564,-1.452308 -2.54561,1.706214 z"
       id="path1031" /><path
       style="color:#000000;opacity:1;fill:#ffffff;-inkscape-stroke:none"
       d="m 112.54102,50.556641 -1.27344,0.355468 1.04687,3.765625 -3.20024,0.749886 0.27907,1.653708 2.3782,-0.889922 -1.49023,2.509766 1.13672,0.675781 1.6543,-2.785156 0.83203,2.470703 1.2539,-0.423828 -0.94291,-2.919013 2.72864,-0.816293 -0.36512,-1.543991 -3.0124,0.886719 z"
       id="path1033" /><path
       style="color:#000000;opacity:1;fill:#ffffff;-inkscape-stroke:none"
       d="m 97.970703,64.119141 -1.322266,0.0039 0.0078,2.638672 -3.621094,-0.460938 -0.166015,1.3125 3.373046,0.429688 -0.892578,3.154297 1.271485,0.361328 0.917968,-3.238282 2.371094,0.09961 0.05469,-1.322266 -1.986328,-0.08398 z"
       id="path1035" /><path
       style="color:#000000;opacity:1;fill:#ffffff;-inkscape-stroke:none"
       d="m 118.41211,57.083984 -1.37328,-6.82e-4 0.43142,3.88429 -2.24369,-2.012514 -0.79883,1.054688 2.77735,2.101562 -2.56836,1.269531 0.58594,1.1875 2.5664,-1.269531 0.50586,1.591797 1.25977,-0.402344 -0.63672,-1.998047 2.47851,-1.505859 -0.6875,-1.130859 -1.75195,1.064453 z"
       id="path1037" /><path
       style="color:#000000;opacity:1;fill:#ffffff;-inkscape-stroke:none"
       d="m 120.81445,53.207031 -1.12304,0.697266 1.89257,3.05664 -2.00781,-0.01367 -0.008,1.322265 2.41992,0.01758 0.6836,2.884766 1.2871,-0.304688 -0.66601,-2.810546 3.78516,-0.947266 -0.32032,-1.283203 -2.56445,0.640625 1.03711,-2.3125 -1.20899,-0.539063 -1.23828,2.767578 z"
       id="path1039" /><path
       style="color:#000000;opacity:1;fill:#ffffff;-inkscape-stroke:none"
       d="m 122.98828,64.476562 -1.35742,3.080079 -1.87305,-2.029297 -0.97265,0.896484 1.7832,1.933594 -3.85352,2.203125 0.65625,1.148437 3.51724,-2.219318 0.0453,2.902912 1.32227,0.02344 -0.2962,-2.78711 2.40945,1.675781 0.83399,-1.027343 -2.60604,-2.051009 1.60213,-3.214616 z"
       id="path1041" /><path
       style="color:#000000;opacity:1;fill:#ffffff;-inkscape-stroke:none"
       d="m 47.816406,97.144531 -1.318359,0.115235 0.191406,2.205078 -3.488281,-0.154297 -0.05859,1.322263 3.556925,0.0583 -2.698004,2.21609 0.996832,1.137 2.425099,-1.80607 1.850007,2.23847 1.115235,-0.71289 -1.859375,-2.91015 2.613281,-0.58008 -0.285156,-1.291018 -2.828125,0.626953 z"
       id="path1131" /><path
       style="color:#000000;opacity:1;fill:#ffffff;-inkscape-stroke:none"
       d="m 47.96674,104.72164 -0.852131,3.02808 -3.655625,0.21512 0.04687,1.32227 3.157635,0.069 -1.188885,4.46685 1.267578,0.17895 1.244141,-3.7075 2.166016,1.92625 0.970703,-0.89843 -2.119141,-2.28125 2.683594,-0.44922 -0.21875,-1.30469 -2.692961,0.31193 0.632925,-2.561 z"
       id="path1222" /><path
       style="color:#000000;opacity:1;fill:#ffffff;-inkscape-stroke:none"
       d="m 51.595703,115.4043 -0.564453,3.42383 -4.016307,0.86127 0.35765,1.46351 3.47311,-0.92439 -2.640625,3.39843 1.042969,0.81055 2.269531,-3.10615 2.261719,1.71553 0.740234,-1.09766 -2.633266,-1.55027 3.857876,-1.05129 -0.314454,-1.28516 -2.772415,0.57164 0.243119,-3.015 z"
       id="path1314" /><path
       style="color:#000000;opacity:1;fill:#ffffff;-inkscape-stroke:none"
       d="m 52.818359,122.73242 -0.564453,2.67774 -3.906307,0.46059 -0.110454,1.6085 3.702308,-0.68823 -1.679687,2.89062 1.142578,0.66406 1.365234,-2.34961 1.656307,2.23896 0.813658,-1.39071 -2.072191,-2.34168 3.406213,-0.27032 0.08472,-0.97336 -2.86277,0.0206 0.319801,-2.27573 z"
       id="path1498" /><path
       style="color:#000000;opacity:1;fill:#ffffff;-inkscape-stroke:none"
       d="m 59.621094,122.06055 -0.0332,3.33398 -2.723963,-0.24396 0.135845,1.57909 2.461164,-0.0168 -0.259765,3.21094 1.318359,0.10742 0.191122,-3.02236 3.281534,0.12783 0.5051,-1.37328 -3.587131,-0.0729 0.0332,-3.61631 z"
       id="path2318" /><path
       style="color:#000000;opacity:1;fill:#ffffff;-inkscape-stroke:none"
       d="m 60.794922,127.91602 -1.078125,0.76562 2.019531,2.84375 -2.31375,2.06881 1.696143,0.65914 1.742323,-1.8228 1.031534,3.33313 1.277344,-0.3418 -0.828125,-3.10546 2.259765,-0.45899 -0.265625,-1.29687 -1.935546,0.39453 -0.320313,-2.63281 -1.314453,-0.18485 0.324219,3.00711 z"
       id="path3139" /></g><path
     id="path3837"
     style="font-variation-settings:normal;vector-effect:none;fill:#ffffff;fill-opacity:1;stroke:none;stroke-width:0.132292;stroke-linecap:butt;stroke-linejoin:miter;stroke-miterlimit:4;stroke-dasharray:none;stroke-dashoffset:0;stroke-opacity:1;-inkscape-stroke:none;stop-color:#000000"
     d="m 67.289465,16.95354 -0.87074,2.076359 c -0.36464,0.91651 -0.75934,1.916757 -0.93845,2.401404 -0.37698,1.020163 -0.93124,2.572467 -0.42116,3.370854 0.5101,0.798385 0.84288,2.306678 0.59893,3.016353 -0.24396,0.709676 -1.73987,4.691626 -2.33578,5.287532 -0.59591,0.595909 -4.01483,1.442848 -5.45755,1.756482 -1.44272,0.313636 -5.927725,2.195335 -6.523631,2.320789 -0.595909,0.125455 -1.28591,1.317073 -1.630908,1.693437 0.815709,0.33153 1.458667,-0.783833 1.83503,-1.01906 0.376362,-0.235226 3.151668,-1.364277 4.563029,-1.724959 1.41136,-0.360681 5.80223,-1.505653 6.61768,-1.976107 0.81546,-0.470453 1.38026,-1.082106 1.83504,-1.897558 0.45477,-0.815453 1.88154,-4.171124 1.88154,-5.049304 0,-0.878181 -0.39195,-1.834793 -0.64286,-2.399337 -0.25091,-0.564545 -0.23495,-1.646393 0.1571,-2.916618 0.39204,-1.270225 1.69343,-4.924247 1.69343,-4.924247 z m 1.22318,0.392224 -0.94102,2.085661 1.70118,1.176672 c 0.0751,-0.175408 0.15109,-0.352852 0.21963,-0.517797 l -1.07384,-0.909506 0.61185,-1.66243 z m 7.41764,3.98322 -1.84795,0.952913 c -1.00765,0.642649 -2.17517,1.435519 -2.92437,2.099097 -1.55242,1.375001 -2.0845,2.527885 -2.2841,2.727482 -0.0129,0.196837 0.0936,0.328499 0.36019,0.297139 0.26659,-0.03136 1.4428,-1.544471 3.07371,-3.096968 1.63091,-1.552497 3.82612,-2.43086 3.82612,-2.43086 z m -33.166972,1.285709 -0.125574,2.807064 1.460893,0.157096 c 0,0 0.0046,5.04e-4 0.0047,5.17e-4 0.022,-0.256186 0.05038,-0.496118 0.08527,-0.720886 l -0.891935,-0.14211 -0.09457,-1.709457 z m -1.99161,0.517798 -0.157096,2.728516 1.317232,0.06253 -0.705383,-1.003556 0.0155,-1.301213 z m -2.650484,1.144633 -0.188102,1.270207 0.736906,0.909505 c 0,0.219545 -0.406149,3.610644 -0.239262,5.276164 0.166887,1.665517 1.138694,4.693754 2.743502,6.797001 -1.064514,-0.243952 -4.845844,-1.617468 -9.661426,-2.336809 -4.815581,-0.71934 -8.41344,-0.257865 -8.41344,-0.257865 l -0.001,0.761711 c 0,0 1.614951,-0.140914 3.920174,-0.109554 2.305222,0.03136 7.276223,0.799515 9.706901,1.426786 2.430676,0.627272 5.395019,1.740979 5.395019,1.740979 l 0.360702,-1.113627 c 0,0 -0.753086,-0.783774 -1.192176,-1.567863 -0.43909,-0.784089 -2.038433,-4.328479 -2.101163,-5.81825 -0.06273,-1.489769 0.297656,-4.626074 0.297656,-4.626074 l -0.595829,-1.37976 0.09405,-0.941028 z m 25.895576,10.061401 c 0,0 -1.15341,0.731618 -2.99413,1.197343 -1.84073,0.465726 -8.915398,2.883333 -9.270237,3.038574 -0.354838,0.155242 -0.820105,0.554489 -0.820105,0.554489 0,0 0.598592,-0.155334 0.95343,-0.310576 0.354838,-0.155242 9.558652,-2.838596 10.645342,-3.370853 1.0867,-0.532258 1.4857,-1.108977 1.4857,-1.108977 z m 9.29349,1.060401 c -0.75319,0.06675 -2.72074,0.600368 -4.0597,0.115238 0,0 -0.70643,0.633971 -1.06711,0.869198 0,0 0.83083,-0.01564 1.52083,-0.09405 0.69,-0.07841 2.46206,-0.219427 3.21479,-0.282154 0.74252,-0.06188 1.21856,0.217143 1.23145,0.224793 -0.15913,-0.391488 -0.33944,-0.761011 -0.59738,-0.82889 -0.0527,-0.01386 -0.13528,-0.01367 -0.24288,-0.0041 z m -47.91077,1.858801 c -0.951202,-2e-6 -2.011763,0.07493 -2.011763,0.07493 l -0.04444,0.465604 c 0,0 0.931746,-0.06657 1.99626,-0.02222 1.064515,0.04435 5.034251,0.599021 6.054411,0.643371 1.020161,0.04436 4.124813,0.576192 4.124813,0.576192 0,0 -1.241683,-0.443431 -2.771924,-0.731738 -1.53024,-0.288306 -5.478107,-0.886941 -6.47609,-0.975651 -0.249496,-0.02218 -0.554197,-0.03049 -0.871265,-0.03049 z m -4.007507,0.806669 0.155029,1.72961 2.261878,-0.3545 -0.77618,-0.377238 -0.886768,0.02222 -0.04444,-0.398942 1.286227,-0.133325 -0.820622,-0.487826 z m 50.704397,1.627808 c -0.6801,0.01175 -1.23868,0.07855 -1.23868,0.07855 l 0.001,0.0031 c 0.5561,0.08869 1.05141,0.185788 1.40819,0.286288 1.57459,0.443546 2.59455,1.973967 3.32641,2.727999 0.73185,0.75403 2.30633,1.818626 2.83859,1.885156 0.22174,0.02772 1.04011,-0.07647 2.01899,-0.22841 -1.35818,-0.296377 -3.34625,-1.241852 -3.73672,-1.788521 -0.39205,-0.548863 -1.6777,-2.273922 -2.64997,-2.713013 -0.48613,-0.219545 -1.28773,-0.262903 -1.96784,-0.251147 z m 14.98514,0.767395 c 0,0 -1.57458,0.509969 -3.94757,0.997872 -1.44797,0.297714 -2.40659,0.377705 -3.21789,0.225826 l -0.006,0.0021 c 0,0 0.66225,0.625682 2.44998,0.500227 1.33916,-0.09398 3.89148,-0.803582 5.08858,-1.153934 -0.0933,-0.194617 -0.21043,-0.390346 -0.3669,-0.572058 z m -51.144689,2.247408 -10e-4,0.0021 c 2.196603,0.963406 3.288067,2.796558 3.020487,4.09329 -0.288307,1.397173 -1.308463,2.372687 -2.106848,2.749703 -0.798385,0.377014 -1.486104,0.842722 -2.484086,1.574582 -0.997982,0.73185 -0.854472,0.46817 -1.873787,2.14612 -1.019315,1.67795 -1.662417,3.65398 -1.709457,4.20285 -0.04705,0.54886 3.38e-4,1.74086 -0.391707,2.43086 -0.392045,0.68998 -1.34858,2.16391 -2.995166,2.46186 -1.646585,0.29795 -3.952214,-1.2547 -3.952214,-1.2547 -0.830179,0.31418 -1.787707,0.54914 -2.08566,0.97255 -0.297955,0.42341 -0.799435,1.31723 -0.799435,1.31723 0.219103,0.0278 0.434295,0.094 0.648023,0.1757 l 0.0026,-0.006 c 0,0 0.6037,-1.0009 0.729154,-1.18908 0.125455,-0.18818 1.019576,-0.86248 1.019576,-0.86248 0,0 0.438714,0.25123 0.893485,0.47078 0.454773,0.21954 3.073816,1.28565 4.061768,1.01906 0.987953,-0.26659 1.80321,-1.08191 2.508891,-1.96009 0.70568,-0.87818 0.90982,-2.49373 0.97255,-3.32486 0.06273,-0.83114 0.736867,-2.88522 0.830957,-3.01067 0.09409,-0.12546 1.286188,-2.14831 1.380278,-2.27377 0.09409,-0.12545 1.787607,-1.50532 1.913061,-1.55236 0.125454,-0.047 1.974557,-1.159615 1.974557,-1.159615 1.349437,-0.48762 1.751836,-1.641254 2.017964,-2.173511 0.266129,-0.532257 0.04418,-2.040321 -0.08888,-2.372982 -0.133064,-0.33266 -0.687311,-1.818541 -1.485698,-2.106848 -0.798386,-0.288301 -1.999361,-0.369486 -1.999361,-0.369486 z m 28.451499,4.826062 c 0,0 -0.28214,1.160953 -0.32918,2.086177 -0.047,0.925226 -3.2e-4,3.779056 -0.0631,3.873146 0,0 0.25108,0.14094 0.39222,0.0625 0.14114,-0.0784 0.15709,-2.258 0.15709,-2.46186 0,-0.15343 0.44571,-1.315059 0.73174,-2.050523 -0.0298,-0.05353 -0.0616,-0.106138 -0.0889,-0.160714 -0.40773,-0.815451 -0.79995,-1.348754 -0.79995,-1.348754 z m -23.601149,0.596346 c 0,0 -1.113548,1.740562 -1.709456,2.320787 -0.595908,0.58023 -1.677717,0.94075 -2.602942,1.19166 -0.925225,0.25091 -2.274042,1.48965 -2.430859,1.91306 -0.156818,0.42341 -1.458309,2.66627 -1.458309,3.23081 0,0.56455 -0.423608,2.93227 -0.752926,3.82613 -0.329318,0.89386 -1.53656,2.50923 -2.649967,2.93264 -1.113408,0.4234 -2.195475,0.34491 -2.807064,0.1881 -0.61159,-0.15682 -2.571936,-1.23869 -2.571936,-1.23869 0,0 -0.01538,0.31362 0.110071,0.45476 0.125454,0.14113 0.86248,0.54851 1.677933,0.84646 0.815453,0.29794 2.273805,0.67435 3.402893,0.31367 1.129089,-0.36068 2.49323,-2.08546 2.869593,-2.55591 0.376362,-0.47046 1.223142,-3.52869 1.317232,-3.82664 0.09409,-0.29796 0.611631,-2.77567 0.721403,-2.90112 0.109773,-0.12546 1.192155,-1.89746 1.646928,-2.13269 0.454771,-0.23522 2.14829,-1.08202 2.728515,-1.2702 0.580227,-0.18819 1.693457,-1.22313 2.054139,-1.77199 0.360681,-0.548863 0.454752,-1.520837 0.454752,-1.520837 z m 27.443289,0.84646 c 0,0 -1.26424,0.376741 -1.90738,1.441257 l 0.55863,0.51935 c 0,0 0.43992,-0.58364 1.47174,-0.864034 -0.0739,-0.615294 -0.12299,-1.096573 -0.12299,-1.096573 z m 53.447375,3.703137 c 0,0 -0.37672,1.75228 -0.64285,2.77244 -0.26613,1.02016 -0.70958,3.45967 -1.53014,4.47983 -0.82057,1.02016 -3.12736,2.12907 -4.92373,2.3952 -1.79637,0.26613 -2.90509,0.53227 -3.8809,0.53227 -0.9758,0 -1.57441,-3e-4 -1.75183,0.11059 -0.17742,0.11088 -0.64351,0.75444 -0.97617,0.99839 -0.33266,0.24395 -1.8405,3.94726 -1.99574,4.32428 -0.15524,0.37701 -0.59893,2.83877 -0.3328,3.1936 0.26613,0.35484 1.00483,0.58933 1.77405,1.15342 0.66533,0.4879 0.42157,1.79621 0.0889,2.81637 -0.33266,1.02016 -1.08643,3.92574 -1.97353,6.23217 -0.88709,2.30645 -1.66455,4.28621 -3.85299,4.80281 -2.188445,0.51659 -4.284665,1.15337 -6.746355,0.59893 0,0 1.04069,0.51927 1.52859,0.74104 0.4879,0.22178 2.46157,0.53257 2.83859,0.42168 0.37702,-0.11088 3.349015,-1.37507 3.814745,-1.61902 0.46572,-0.24395 1.97362,-0.9535 2.2841,-2.30632 0.31048,-1.35282 1.37524,-3.61521 1.7079,-4.36924 0.33266,-0.75403 1.39708,-4.5683 1.53014,-5.41104 0,0 0.34958,-0.65174 0.0987,-1.23197 -0.25091,-0.58023 -1.8034,-1.3333 -2.08567,-1.5999 -0.28227,-0.26659 -0.39189,-1.47399 -0.3762,-1.86604 0.0157,-0.39204 -4e-4,-1.19166 0.53278,-2.00711 0.53318,-0.81545 1.11358,-2.35255 1.25471,-2.60346 0.14114,-0.25091 1.14475,-1.01924 2.08566,-1.41128 0.94091,-0.39205 3.5911,-0.29778 4.12429,-0.42323 0.53318,-0.12546 2.99525,-1.0509 3.2148,-1.11363 0.21953,-0.0627 2.38391,-0.67406 3.01118,-2.24224 0.62467,-1.56167 1.47296,-5.56892 1.48001,-5.60224 -0.15397,-0.92105 -0.30024,-1.7663 -0.30024,-1.7663 z m -78.834975,1.74098 c -0.399193,-0.0194 -0.854057,0.0447 -1.236617,0.29972 -0.765121,0.51008 -1.284676,1.30276 -1.284676,1.30276 l 0.0015,0.003 c 2.208527,-1.33687 3.437822,-0.56488 6.0849,2.77451 2.883058,3.6371 8.560203,11.33264 8.560203,11.33264 0,0 -1.039637,0.31187 -2.498041,0.10801 -1.458406,-0.20387 -2.352454,-0.36097 -3.246314,-0.56483 0.125454,0.75272 0.705704,1.45837 1.583883,2.13269 0.878178,0.67431 0.815808,0.68998 0.784448,0.86248 -0.03136,0.1725 -0.70582,1.11351 -0.894002,1.80351 0,0 0.259232,0.0393 0.622701,0.0992 0.257543,-0.64291 0.606499,-1.49624 0.719853,-1.62471 0.16633,-0.1885 0.399312,-0.68707 0.454752,-0.72037 0.05544,-0.0333 -0.598783,-0.77649 -0.654223,-0.83199 -0.05544,-0.0554 -0.886768,-0.37672 -0.886768,-0.37672 0,0 -0.05568,-0.11104 0.01085,-0.21084 0.06653,-0.0998 0.432599,-0.24393 0.59893,-0.26613 0.166331,-0.0221 0.991154,0.008 0.991154,0.008 0.333312,0.0489 2.810757,0.33583 3.188957,0.37983 0.37819,0.044 0.68777,-0.0219 0.66559,-0.11059 -0.0222,-0.0887 -2.705481,-4.19173 -2.816368,-4.3248 -0.110886,-0.13306 -4.887299,-6.10359 -5.906616,-7.54631 -1.019316,-1.44274 -3.618756,-4.17422 -3.940328,-4.32946 -0.160786,-0.0776 -0.504627,-0.18058 -0.90382,-0.19998 z m -15.855363,11.36675 c -2.164085,1.27023 -4.736145,3.32486 -4.736145,3.32486 l 0.141077,0.78393 c 0,0 0.831057,-0.90973 1.411283,-1.20768 0.580226,-0.29796 3.607015,-2.49339 3.607015,-2.49339 0,0 0.18832,-0.20355 0.07855,-0.29765 -0.109773,-0.0941 -0.501778,-0.11007 -0.501778,-0.11007 z m 4.986259,1.29346 c -0.165292,0.0157 -0.40256,0.10335 -0.40256,0.10335 0.0998,0.86491 0.133026,1.44126 0.243913,1.70739 0.110886,0.26612 0.842635,0.46575 1.264006,1.5968 0.421368,1.13105 1.818731,1.79632 2.994132,2.35076 1.175402,0.55443 1.773918,1.41946 1.441256,3.48196 -0.33266,2.0625 -0.536106,4.40924 -0.127124,5.82703 0.408981,1.41781 2.127161,2.51779 2.213301,2.56109 0.223549,0.11225 0.484208,-0.29392 0.484208,-0.49351 -0.689938,-0.13355 -1.040077,-0.50941 -1.217496,-0.709 -0.17742,-0.1996 -0.842408,-1.44196 -0.886768,-1.53066 -0.04435,-0.0887 -0.06649,-3.30406 0.02222,-3.76979 0.08871,-0.46572 0.332279,-2.83877 0.332279,-2.92747 0,-0.0887 0.0225,-2.15135 -1.152901,-2.70578 -1.175402,-0.55444 -2.595108,-1.50818 -2.816882,-1.64124 -0.221775,-0.13307 -0.931002,-1.44152 -1.352372,-1.84072 -0.421371,-0.39919 -0.798618,-1.92924 -0.909505,-1.99574 -0.02772,-0.0166 -0.07461,-0.0197 -0.129708,-0.0145 z m 87.902649,1.98127 0.002,0.01 c 0.10686,0.12448 0.20294,0.25474 0.29146,0.39636 0.44355,0.70968 1.35292,3.96977 1.64124,5.54436 0.28831,1.5746 0.68761,3.25984 1.10898,3.83646 0,0 0.10227,-0.85823 0.1912,-1.82624 -0.18196,-0.57667 -0.35554,-1.18543 -0.35554,-1.43402 0,-0.53318 -0.48585,-2.63494 -0.65835,-3.13676 -0.1725,-0.50182 -1.22349,-2.91641 -1.33326,-3.02618 -0.10977,-0.10977 -0.8878,-0.3638 -0.8878,-0.3638 z m -97.264352,1.14774 0.282154,0.64285 2.414839,0.40773 c 0.041,-0.0908 0.141019,-0.23108 0.266134,-0.38964 -0.722355,-0.0708 -2.109102,-0.21137 -2.194698,-0.28474 -0.109772,-0.0941 -0.768429,-0.3762 -0.768429,-0.3762 z m 32.569587,5.24619 c -0.12825,0.002 -0.20257,0.007 -0.20257,0.007 1.30159,0.56454 3.68527,1.67801 5.61413,3.57549 1.92886,1.8975 5.51996,5.62969 10.28723,12.46694 4.76724,6.83727 6.42959,10.851908 6.83731,14.490068 0.40773,3.63818 -1.1917,8.65632 -3.9517,10.28723 -2.76,1.63091 -7.15108,1.92876 -9.76995,1.91306 -1.55476,-0.009 -2.51963,-0.13684 -3.26078,-0.4532 6.8e-4,0.001 0.002,0.008 0.003,0.009 0.39154,0.46871 1.05029,1.33846 1.4273,1.38286 0.37702,0.0444 1.16383,-0.39903 1.59629,-0.32143 0.43245,0.0777 1.78543,0.11076 4.15841,-0.0667 2.37298,-0.17742 5.96589,-1.10895 6.94169,-1.88516 0.97581,-0.77621 1.95175,-2.61674 2.43964,-3.59254 0.4879,-0.97581 1.66317,-4.59085 1.50792,-6.65335 -0.15524,-2.06249 -0.51014,-4.21384 -0.82062,-5.34489 -0.31048,-1.13105 -2.772,-5.899268 -4.92321,-9.004098 -2.15121,-3.10484 -3.81488,-5.36655 -5.72213,-7.45122 -1.90726,-2.08467 -5.74356,-6.40931 -6.3867,-6.87504 -0.64315,-0.46572 -2.61696,-1.97409 -3.70365,-2.26239 -0.81502,-0.21624 -1.68644,-0.22891 -2.07119,-0.22169 z m 58.058485,3.46387 c -0.9066,0.21053 -0.944,0.33821 -1.27332,0.54208 -0.32932,0.20386 -1.3015,1.1604 -1.86604,1.77199 -0.56455,0.61159 -1.86618,1.80341 -2.30528,2.85409 -0.43909,1.05068 -2.08543,2.55621 -2.64997,3.07371 -0.56455,0.5175 -1.64693,1.14464 -1.64693,1.14464 0,0 0.97255,-0.31326 1.4273,-0.48576 0.45477,-0.1725 1.42715,-1.09801 1.80351,-1.38028 0.37636,-0.28227 2.0543,-1.86601 2.49339,-2.36781 0.4391,-0.50182 2.19531,-2.91664 2.36781,-3.27732 0.1725,-0.36068 1.36048,-0.96993 1.80403,-1.21388 0.44355,-0.24395 2.16222,0.67622 2.86081,0.83147 0.69858,0.15526 2.08467,0.13274 2.63911,0.23254 0.55033,0.0991 1.03866,0.40473 1.04593,0.40928 -0.10099,-0.204 -0.1981,-0.38416 -0.28318,-0.50178 -0.56263,-0.77777 -2.38297,-0.47699 -3.84938,-0.83767 -1.37827,-0.33901 -1.31375,-0.7853 -2.56779,-0.7953 z m 3.49229,6.91534 c 0.40217,0.20803 1.087,2.68366 1.22007,3.5264 0.13306,0.84275 0.77601,4.2359 0.6873,5.01209 -0.0887,0.77621 -0.90916,2.94937 -1.26401,3.83646 -0.35484,0.8871 -0.15539,2.062548 0.44338,2.661338 0.0442,-0.19195 -0.0811,-1.289588 0.0445,-1.901178 0.12545,-0.61159 1.14439,-3.43466 1.30121,-3.68556 0.15682,-0.25091 0.29805,-1.6622 0.1726,-2.63446 -0.12546,-0.97227 -0.64304,-4.07696 -1.03508,-5.23741 -0.39205,-1.16045 -0.9164,-1.37449 -1.56993,-1.57768 z m -0.66508,16.411398 c 0,0 -0.75428,0.62077 -2.24017,0.95343 -1.4859,0.33266 -2.52808,0.62118 -4.14703,-0.15503 -1.61896,-0.77621 -4.14746,-0.4657 -5.94383,0.0222 -1.79635,0.4879 -2.97149,0.75396 -3.5481,0.48783 0,0 0.0886,0.57625 0.44337,0.74259 0.35484,0.16633 2.04029,-0.46554 2.6169,-0.56534 0.57661,-0.0998 4.41357,-0.55461 5.14542,-0.35502 0.73186,0.1996 2.22871,0.69891 3.10472,0.95395 0.87601,0.25504 2.26217,-0.25505 2.53938,-0.53227 0.20228,-0.20227 1.22827,-0.46936 1.88464,-0.63097 0.19587,-0.5884 0.14469,-0.92139 0.14469,-0.92139 z m -28.123345,4.69739 c -0.12475,-0.0125 -0.13075,0.0372 -0.13075,0.0372 l 0.1292,0.64544 c 0,0 0.29789,-0.0785 0.5488,0.28216 0.25091,0.36068 0.90987,1.27045 1.28623,1.47432 0.37636,0.20386 1.23882,0.7841 1.72496,1.63091 0.48611,0.84682 0.28222,2.13253 0.094,2.50889 -0.18818,0.37637 -0.72154,2.8071 -1.20768,3.5755 -0.48614,0.76839 -0.7056,1.52127 -1.81901,2.93263 -1.11341,1.41136 -1.56828,1.45823 -1.80351,1.64641 -0.23522,0.18818 -0.78405,1.1133 -0.81545,1.50534 -0.0314,0.39205 0.89006,2.09086 1.64279,4.03541 0.75272,1.94454 0.86628,3.49222 0.44287,4.90358 -0.42341,1.41136 -1.16014,2.08566 -1.16014,2.08566 0,0 0.63658,-0.0776 1.60921,-0.9431 0.0109,-0.0318 0.63693,-1.85653 0.73587,-3.32951 0.0998,-1.48589 -0.55439,-4.21346 -1.16427,-5.1449 -0.60988,-0.93145 -0.98684,-1.58566 -1.0201,-1.96268 -0.0333,-0.37701 0.56539,-0.87639 0.8537,-1.12034 0.2883,-0.24395 1.34162,-0.98671 1.91823,-1.75183 0.57662,-0.76512 1.75231,-3.29314 1.99626,-3.98064 0.24395,-0.6875 0.83161,-3.53735 0.89814,-4.11396 0.0665,-0.57662 -0.19983,-1.47504 -0.64338,-1.97404 -0.44355,-0.49899 -1.45251,-1.44163 -2.18436,-1.7632 -0.73186,-0.32157 -1.47489,-1.05334 -1.7632,-1.14205 -0.0721,-0.0222 -0.12688,-0.0331 -0.16846,-0.0372 z m 15.282275,3.17551 c 0,0 0.0531,0.59639 0.47645,0.91003 0.4234,0.31363 1.80353,0.59615 2.16421,0.61184 0.36068,0.0157 2.52483,0.0465 3.12074,0.36019 0.59591,0.31363 1.96021,0.92534 3.30884,0.94103 1.34863,0.0157 2.35428,-0.99236 2.82257,-0.86248 0.15595,0.0433 0.34762,0.0395 0.53795,0.0233 0.50221,-0.70965 0.56534,-1.27434 0.56534,-1.27434 0,0 -1.64127,0.99809 -2.70578,1.37511 -1.0645,0.37701 -2.41726,-0.13299 -3.39307,-0.75396 -0.97581,-0.62096 -2.10665,-0.48816 -3.06028,-0.39946 -0.95363,0.0887 -3.08293,-0.11065 -3.83697,-0.93121 z m -6.608905,2.72749 -0.0811,0.58187 c 0,0 1.66209,1.78763 2.46186,3.08922 0.79977,1.30159 1.297665,1.99801 1.156525,2.75074 -0.14114,0.75273 -0.750125,1.8046 -1.267625,2.88664 -0.51746,1.08205 -0.92382,3.50502 -0.48473,4.3832 0.43909,0.87818 0.90951,2.83858 0.90951,2.83858 0,0 0.37633,-0.48632 0.50178,-1.20768 0,0 0.16229,-0.65322 -0.28216,-1.05058 -0.44445,-0.39737 -0.31385,-1.42687 -0.25115,-2.05414 0.0627,-0.62726 0.56453,-3.05781 0.862485,-3.59099 0.29795,-0.53318 0.84698,-2.61886 0.84698,-2.85409 0,-0.23523 -0.79975,-2.07048 -1.270215,-2.54093 -0.47045,-0.47046 -1.91529,-2.18945 -1.98179,-2.26705 -0.0665,-0.0776 -1.12034,-0.96479 -1.12034,-0.96479 z m -17.48834,2.58898 c 0,0 -0.26656,0.79999 -0.50178,1.11363 -0.23523,0.31364 -1.52117,2.03856 -1.94458,2.22674 -0.42341,0.18818 -1.83474,1.0349 -2.13269,1.05058 -0.29796,0.0157 -2.46202,1.69364 -2.90111,2.03864 -0.43909,0.345 -1.85047,1.36425 -1.99161,1.36425 -0.14113,0 -1.2697,0.68986 -2.06964,1.22319 0,0 -0.42343,0.81547 -0.40773,1.58388 0.0157,0.76841 -0.0157,4.35958 -0.047,4.79867 -0.0314,0.43909 -0.18827,1.11374 -0.12557,1.2392 0.0627,0.12545 1.11361,0.36045 1.97611,0.97204 0,0 -0.23529,-0.56481 -0.67438,-1.01958 -0.43909,-0.45477 -0.3452,-1.69321 -0.3452,-1.80299 0,-0.10977 0.17242,-3.04259 0.1881,-3.73259 0.0157,-0.69 0.23522,-1.39532 0.45476,-1.66191 0.21955,-0.26659 2.97963,-1.6466 3.48144,-2.03864 0.50182,-0.39205 3.05818,-2.02329 3.55999,-2.46238 0.50182,-0.4391 2.0699,-1.88194 2.68149,-2.57194 0.61159,-0.69 0.79943,-2.32079 0.79943,-2.32079 z m -21.23282,0.0631 c -0.20386,0 -2.68188,1.01932 -2.96416,1.22318 -0.282269,0.20386 -0.673957,2.16399 -0.846456,2.68149 -0.1725,0.5175 -0.51774,0.87812 -1.066601,1.36426 -0.548863,0.48613 -2.916522,2.25799 -3.559473,2.91662 -0.642955,0.65864 -0.580326,0.92558 -0.580326,1.19217 0,0.26659 -0.282432,2.85411 -0.43925,3.62252 -0.156818,0.76841 0.04685,1.31688 0.470255,2.16369 0.423404,0.84682 0.721719,1.647 0.376722,2.72903 -0.345,1.08204 -1.20752,1.89755 -1.583883,3.16777 0,0 0.672857,-0.23534 1.373043,-0.54312 0.188966,-0.64307 0.518246,-1.22311 0.759643,-1.46451 0.360681,-0.36068 0.878242,-1.58356 0.674378,-2.33629 -0.203863,-0.75272 -1.050841,-1.81916 -1.254704,-2.30529 -0.203868,-0.48614 -0.313397,-2.08569 -0.15658,-2.80706 0.156818,-0.72136 1.144554,-3.04263 1.332736,-3.23081 0.188181,-0.18818 1.47413,-1.34845 1.944584,-1.64641 0.470453,-0.29795 1.693398,-1.41129 1.787487,-1.41129 0.09409,0 0.658655,-0.549 0.768425,-0.894 0.10978,-0.345 0.39219,-1.58379 0.48628,-1.77198 0.0941,-0.18818 1.14493,-1.36421 2.07016,-1.45831 0.92522,-0.0941 1.92856,0.10955 1.92856,0.10955 -1.03499,-1.08204 -1.31697,-1.30121 -1.52084,-1.30121 z m 45.508345,3.18327 -0.0155,0.9095 c 0,0 0.83564,0.41872 2.43241,0.46302 1.59678,0.0444 2.74971,1.3084 3.28197,2.32854 0,0 0.28198,-0.29338 0.45733,-1.15445 -0.005,-0.004 -0.68544,-0.57242 -1.32601,-0.99425 -0.64295,-0.4234 -2.11693,-0.75256 -2.72852,-0.83096 -0.61159,-0.0784 -2.10168,-0.7214 -2.10168,-0.7214 z m -29.906185,14.77791 c 0,0 0.53134,0.72171 0.71985,0.87695 0.18851,0.15524 1.72986,0.24395 2.51716,0.26613 0.78729,0.0222 3.32666,-0.0222 3.84783,-0.0222 0.52116,0 1.29949,0.14607 1.88618,0.48886 0.28225,-0.0157 0.29818,-1.3e-4 0.29818,-0.12558 0,-0.12546 -0.94114,-0.7055 -2.74454,-0.7369 -1.80341,-0.0314 -5.06529,0.0471 -5.97483,-0.40773 -0.17086,-0.0854 -0.3558,-0.20682 -0.5426,-0.33951 z m -15.93159,-15.57773 c 0,0 -0.56454,0.47041 -0.64295,0.94086 -0.0784,0.47046 -0.36068,1.035 -0.39205,1.45841 -0.0314,0.42341 -0.26659,1.01932 -0.36068,1.12909 -0.0941,0.10977 -1.536817,1.09773 -1.709316,1.12909 -0.1725,0.0314 -1.285908,0.76841 -1.615226,0.98795 -0.329318,0.21955 -1.505453,1.92886 -1.599544,2.13273 -0.09409,0.20386 -0.470454,1.33295 -0.642954,1.50545 -0.1725,0.1725 -0.625594,1.16098 -0.625594,1.16098 0,0 0.02218,-1.02016 0.04435,-1.24194 0.02218,-0.22177 0.643146,-1.30846 0.754033,-1.59677 0.110887,-0.28831 0.953629,-1.44153 1.241935,-1.77419 0.288307,-0.33267 0.643145,-0.6875 1.264113,-1.04234 0.620968,-0.35484 1.429791,-0.96296 1.790473,-1.1825 0.36068,-0.21955 0.95659,-0.78409 0.98795,-1.2075 0.0314,-0.42341 0.047,-1.23886 0.40773,-1.74068 0.36068,-0.50182 0.75273,-0.67432 1.09773,-0.65864 m 11.41636,7.41745 c 0,0 -0.23523,0.81545 -0.29796,1.2859 -0.0627,0.47046 0.10978,2.50909 0.10978,2.50909 0,0 0.1725,-0.36068 0.18818,-0.61159 0.0157,-0.25091 -0.1725,-1.58386 0,-2.11704 0.1725,-0.53318 0.14113,-0.64295 0,-1.06636 z m -4.23409,-5.78659 c 0.12545,0 1.63091,0.1725 2.2425,0.0941 0.61159,-0.0784 2.27386,-0.14113 2.76,-0.21954 0.48613,-0.0784 2.39931,-0.53318 2.93249,-0.58023 0.53318,-0.047 1.80341,-0.42341 2.10136,-0.53318 0.29796,-0.10977 1.53682,-0.70568 2.10137,-1.30159 0.56454,-0.59591 0.98795,-1.41136 1.22318,-1.96023 0.23522,-0.54886 0.67431,-2.02295 0.8625,-2.55613 0.18818,-0.53318 0.0941,-1.45841 0.0941,-1.45841 0,0 -0.39205,1.58386 -0.50182,1.86614 -0.10977,0.28227 -0.95659,2.47772 -1.41136,2.97954 -0.45478,0.50182 -1.64659,1.59954 -2.415,1.92886 -0.76841,0.32932 -2.35227,0.97227 -2.80704,0.92523 -0.45478,-0.047 -1.38,0.1725 -1.97591,0.1725 -0.59591,0 -2.86977,0.32932 -3.26182,0.32932 -0.39204,0 -1.67795,0.0627 -1.83477,0.0627 -0.15681,0 -0.32931,0.0314 -0.32931,0.0314 z m 32.9774,-6.86579 c 0,0 1.46371,1.35283 1.66331,1.66331 0.1996,0.31048 1.596765,2.28427 1.663305,2.39516 0.0665,0.11089 0.82056,1.44153 0.82056,1.44153 0,0 0.17742,-0.46572 -0.0444,-0.93145 -0.22178,-0.46572 -0.6875,-1.39718 -0.90928,-1.70766 -0.22177,-0.31048 -1.153215,-1.46371 -1.397175,-1.77419 -0.24395,-0.31049 -0.77621,-0.73186 -0.95363,-0.84274 -0.17741,-0.11089 -0.84274,-0.24396 -0.84274,-0.24396 z m -10.2231,-15.088728 c 0,0 0.62727,-0.0314 0.75272,0.0157 0.12546,0.047 1.00364,1.035 1.00364,1.035 0,0 0.90954,1.819088 0.97227,1.913178 0.0627,0.0941 0.31364,0.26659 0.47046,0.28227 0.15681,0.0157 0.50181,0.28227 0.50181,0.28227 0,0 1.48977,1.69364 1.56818,1.88182 0.0784,0.18818 1.78773,2.68159 1.78773,2.68159 0,0 -0.0471,0.0157 -0.37636,-0.21955 -0.32932,-0.23522 -1.725,-1.66227 -2.16409,-2.22681 -0.43909,-0.56455 -1.23887,-1.33296 -1.39568,-1.41137 -0.15682,-0.0784 -0.28228,-0.48613 -0.28228,-0.61159 0,-0.12545 -0.047,-0.36068 -0.18818,-0.39204 -0.14113,-0.0314 -0.61159,-0.23523 -0.67432,-0.42341 -0.0627,-0.18818 -0.92522,-1.552498 -1.30159,-1.928858 -0.37636,-0.37637 -0.64295,-0.31364 -0.67431,-0.87818 z m 18.672695,-12.67739 c 0,0 0.97581,-1.35283 1.19758,-1.79638 0.22177,-0.44354 0.84274,-1.30846 0.8871,-1.64112 0.0444,-0.33267 0.82056,-2.55041 1.15322,-3.30444 0.33266,-0.75403 0.59879,-2.15121 0.62097,-2.52823 0.0222,-0.37701 -0.22177,-1.33064 -0.22177,-1.33064 0,0 -0.22178,1.08669 -0.3992,1.59677 -0.17742,0.51008 -0.99798,3.50404 -1.13105,3.8367 -0.13306,0.33266 -0.37701,1.06451 -0.4879,1.35282 -0.11089,0.28831 -0.1996,0.95363 -0.48789,1.375 -0.28831,0.42137 -0.64315,1.21976 -0.73187,1.33064 -0.0887,0.11089 -0.4879,0.53226 -0.39919,1.10888 z m 1.95161,-13.52823 c -0.0222,-0.17742 -0.15524,-1.1754 -0.0887,-1.95161 0.0665,-0.77621 0.8871,-2.52823 1.10887,-2.97178 0.22178,-0.44355 1.04234,-1.375 1.13105,-1.55242 0.0887,-0.17742 -0.33266,-0.19959 -0.55443,-0.0222 -0.22178,0.17742 -1.53025,1.75201 -1.68549,2.59475 -0.15524,0.84275 -0.88709,2.70565 -0.88709,3.12702 0,0.42137 0.53225,0.79839 0.9758,0.77621 z M 41.994775,36.759913 c -0.09409,-0.09409 -0.752727,-1.238862 -0.846818,-1.427044 -0.09409,-0.188182 -0.862499,-2.35227 -0.987953,-2.681588 -0.125455,-0.329318 -0.1725,-0.721363 -0.1725,-0.893863 0,-0.1725 -0.06273,-2.383634 -0.04705,-2.712952 0.01568,-0.329318 0.250908,-2.022953 0.250908,-2.022953 0,0 0.109773,0.705681 0.109773,0.831136 0,0.125454 0.1725,2.963861 0.219545,3.261815 0.04705,0.297954 0.203864,1.615226 0.313636,1.819089 0.109773,0.203864 1.034999,2.838407 1.160454,3.82636 z m 33.19838,54.431539 c 0,0 0.8625,0.62728 0.94091,0.72137 0.0784,0.0941 2.16409,2.93249 2.27386,3.07363 0.10977,0.14114 3.07363,3.76363 3.55977,4.24977 0.48614,0.48614 0.94091,1.129088 0.97227,1.442728 0.0314,0.31363 0.23523,2.19545 0.1725,2.36795 -0.0627,0.1725 -0.14113,0.42341 -0.18818,0.32932 -0.047,-0.0941 -0.29795,-0.75273 -0.42341,-1.08205 -0.12545,-0.32932 -0.37636,-1.67795 -0.45477,-1.78772 -0.0784,-0.10978 -0.58023,-0.862498 -0.69,-1.003638 -0.10977,-0.14114 -3.08931,-4.12431 -3.34022,-4.3909 -0.25091,-0.2666 -0.94091,-0.84682 -1.28591,-1.48978 -0.345,-0.64295 -0.25091,-0.95659 -0.90955,-1.37999 -0.65863,-0.42341 -0.83113,-0.5175 -0.8625,-0.59591 -0.0314,-0.0784 0.23523,-0.45478 0.23523,-0.45478 z m -1.12909,0.95659 c 0.0157,-0.0941 0.79977,-2.16408 0.95659,-2.69727 0.15682,-0.53318 0.92523,-2.24249 0.90955,-2.80704 -0.0157,-0.56454 -0.047,-1.00363 -0.047,-1.36432 0,-0.36068 -0.0157,-0.58022 -0.0157,-0.58022 0,0 1.12909,0.0784 1.30159,0.0784 0.1725,0 1.28591,-0.047 1.2075,-0.12546 -0.0784,-0.0784 -1.23886,-0.43909 -1.61523,-0.70568 -0.37636,-0.26659 -1.19182,-0.79977 -1.48977,-1.06636 -0.29795,-0.26659 -2.88545,-3.48136 -3.08931,-3.81068 -0.20387,-0.32932 -3.15205,-4.29681 -3.54409,-4.89272 -0.39205,-0.59591 -1.14477,-1.77205 -1.56818,-2.60318 -0.42341,-0.83114 -1.06637,-3.02659 -1.06637,-3.02659 0,0 -0.20386,0.29795 -0.15681,0.5175 0.047,0.21955 0.37636,1.5525 0.48613,1.92886 0.10978,0.37637 0.36068,1.11341 0.28228,1.09773 -0.0784,-0.0157 -1.66228,-0.12546 -2.05432,-0.26659 -0.39205,-0.14114 -2.03864,0.10977 -2.44637,-0.21955 -0.40772,-0.32932 -1.37999,-1.42704 -1.61522,-1.64659 -0.23523,-0.21954 -2.27386,-2.82272 -2.60318,-3.15204 -0.32932,-0.32932 -0.70568,-0.48614 -1.17614,-1.01932 -0.47045,-0.53318 -2.963858,-3.49704 -3.293175,-4.0459 -0.329318,-0.54887 -0.548864,-1.17614 -0.548864,-1.56818 0,-0.39205 -0.627272,-2.36795 -0.674317,-2.55614 -0.04705,-0.18818 -0.972272,-2.17977 -1.379999,-3.05795 -0.407727,-0.87818 -2.179771,-2.68159 -2.336589,-2.79136 -0.156818,-0.10978 -1.630907,-1.16046 -1.834771,-1.25455 -0.203863,-0.0941 -1.270226,-0.345 -1.270226,-0.345 0,0 0.219546,0.56455 0.972272,0.87818 0.752727,0.31364 1.254544,0.40773 1.254544,0.40773 0,0 2.148408,2.61886 2.43068,2.88545 0.282272,0.26659 1.379999,2.28955 1.552499,2.65023 0.172499,0.36068 0.580226,1.83477 0.61159,2.10136 0.03136,0.26659 0.501818,1.94455 0.26659,1.92886 -0.235227,-0.0157 -1.552498,-0.70568 -1.709316,-0.90954 -0.156818,-0.20386 -1.975907,-2.17977 -2.132725,-2.43068 -0.156818,-0.25091 -1.740681,-2.43068 -1.834771,-2.50909 -0.09409,-0.0784 -1.097727,-0.78409 -1.364317,-0.89386 -0.266591,-0.10978 -1.097726,-0.28228 -1.097726,-0.28228 0,0 1.442725,1.42705 1.615225,1.53682 0.1725,0.10977 3.355906,3.99886 3.434315,4.09295 0.07841,0.0941 1.050681,1.23887 1.332954,1.30159 0.282272,0.0627 0.705681,0.28228 0.768408,0.31364 0.06273,0.0314 1.317271,0.56455 1.427044,0.62727 0.109773,0.0627 1.097726,1.50546 1.097726,1.50546 0,0 2.430679,2.96386 2.587499,3.08931 0.15682,0.12546 1.17613,1.11341 1.27023,1.19182 0.0941,0.0784 1.89749,2.16409 2.00727,2.35227 0.10977,0.18818 2.10136,3.95181 2.1484,4.03022 0.047,0.0784 0,2.00727 0.0784,2.00727 0.0784,0 0.5175,-0.45477 0.5175,-0.73704 0,-0.28227 0.0627,-0.54887 0,-0.79977 -0.0627,-0.25091 -0.62727,-1.78773 -0.54886,-1.78773 0.0784,0 2.80704,0.0627 3.05795,0.047 0.25091,-0.0157 1.53682,0.47045 1.66227,0.56454 0.12546,0.0941 1.61832,1.39769 2.11703,2.00728 0.49871,0.60958 1.58384,2.39931 1.70929,2.52476 0.12546,0.12546 1.38,2.07 1.42705,2.13273 0.047,0.0627 2.39932,3.37158 2.50909,3.46568 0.10977,0.0941 0.58022,1.41136 0.54886,1.81908 -0.0314,0.40773 -0.0314,2.19546 -0.0941,2.38364 -0.0627,0.18818 -0.61159,2.2425 -0.64295,2.415 -0.0314,0.1725 -0.53319,1.66227 -0.29796,2.06999 z m 4.93977,-7.41749 1.19182,0.39205 c 0,0 0.61159,1.19181 0.72136,1.31727 0.10977,0.12545 0.58023,1.39568 0.42341,1.22318 -0.15682,-0.1725 -1.50545,-1.59955 -1.66227,-1.78773 -0.15682,-0.18818 -0.23523,-0.62727 -0.29796,-0.72136 -0.0627,-0.0941 -0.37636,-0.42341 -0.37636,-0.42341 z m -16.99908,-8.26431 c 0,0 0.1725,0.90955 0.25091,0.98795 0.0784,0.0784 0.39205,-0.47045 -0.25091,-0.98795 z m -8.922945,-4.07727 c 0.125454,0 0.940908,0.23523 1.521135,-0.0314 0.58023,-0.26659 1.34864,-0.21955 1.45841,-0.15682 0.10977,0.0627 0.50182,0.23523 0.28227,0.20386 -0.21954,-0.0314 -0.67432,-0.18818 -1.035,0 -0.36068,0.18819 -1.191816,0.5175 -1.505452,0.45478 -0.313636,-0.0627 -0.737045,-0.10978 -0.737045,-0.10978 z" /></svg>
