<?xml version="1.0" encoding="UTF-8" standalone="no"?>
<svg
   xmlns:dc="http://purl.org/dc/elements/1.1/"
   xmlns:cc="http://creativecommons.org/ns#"
   xmlns:rdf="http://www.w3.org/1999/02/22-rdf-syntax-ns#"
   xmlns:svg="http://www.w3.org/2000/svg"
   xmlns="http://www.w3.org/2000/svg"
   xmlns:xlink="http://www.w3.org/1999/xlink"
   xmlns:sodipodi="http://sodipodi.sourceforge.net/DTD/sodipodi-0.dtd"
   xmlns:inkscape="http://www.inkscape.org/namespaces/inkscape"
   inkscape:version="1.0 (4035a4fb49, 2020-05-01)"
   sodipodi:docname="naantali.svg"
   id="svg8"
   version="1.1"
   viewBox="0 0 132.29166 153.45834"
   height="580"
   width="500">
  <defs
     id="defs2" />
  <sodipodi:namedview
     inkscape:object-nodes="true"
     inkscape:showpageshadow="false"
     inkscape:window-maximized="1"
     inkscape:window-y="-8"
     inkscape:window-x="-8"
     inkscape:window-height="1017"
     inkscape:window-width="1920"
     units="px"
     showgrid="false"
     inkscape:document-rotation="0"
     inkscape:current-layer="layer1"
     inkscape:document-units="px"
     inkscape:cy="335.9968"
     inkscape:cx="250.338"
     inkscape:zoom="0.9134936"
     inkscape:pageshadow="2"
     inkscape:pageopacity="0.0"
     borderopacity="1.0"
     bordercolor="#666666"
     pagecolor="#ffffff"
     id="base"
     inkscape:snap-others="false"
     inkscape:lockguides="true" />
  <metadata
     id="metadata5">
    <rdf:RDF>
      <cc:Work
         rdf:about="">
        <dc:format>image/svg+xml</dc:format>
        <dc:type
           rdf:resource="http://purl.org/dc/dcmitype/StillImage" />
        <dc:title></dc:title>
      </cc:Work>
    </rdf:RDF>
  </metadata>
  <g
     transform="translate(-11.57152,-16.179648)"
     id="layer1"
     inkscape:groupmode="layer"
     inkscape:label="Шар 1">
    <g
       style="stroke-width:1.10192"
       transform="matrix(0.90678889,0,0,0.90822733,1.0785942,1.4848494)"
       id="g1171">
      <path
         sodipodi:nodetypes="cszscc"
         id="path848"
         d="m 157.46178,16.179648 v 98.136212 c 0,31.64248 -28.26319,70.82846 -72.945135,70.82846 -44.681949,0 -72.945125,-39.18598 -72.945125,-70.82846 V 16.179648 Z"
         style="font-variation-settings:normal;opacity:1;vector-effect:none;fill:#000000;fill-opacity:1;fill-rule:evenodd;stroke:none;stroke-width:0.291549;stroke-linecap:butt;stroke-linejoin:miter;stroke-miterlimit:4;stroke-dasharray:none;stroke-dashoffset:0;stroke-opacity:1;marker:none;marker-start:none;marker-mid:none;marker-end:none;stop-color:#000000;stop-opacity:1" />
      <path
         style="font-variation-settings:normal;vector-effect:none;fill:#bf9f4f;fill-opacity:1;fill-rule:evenodd;stroke:none;stroke-width:0.291549;stroke-linecap:butt;stroke-linejoin:miter;stroke-miterlimit:4;stroke-dasharray:none;stroke-dashoffset:0;stroke-opacity:1;marker:none;marker-start:none;marker-mid:none;marker-end:none;stop-color:#000000"
         d="m 38.170657,138.70464 c 0,0 2.764877,-3.30249 2.764877,-7.83382 V 93.007376 c 0,-5.810852 -5.990566,-7.757016 -5.990566,-7.757016 0,0 5.06894,-3.686503 9.139451,-7.219399 0,0 4.684931,2.995283 10.368289,5.145742 0,0 -2.611272,2.965382 -2.611272,8.674084 V 131.6228 l 13.641,5.87351 V 93.007376 c 0,-5.810852 -5.990566,-7.757016 -5.990566,-7.757016 0,0 5.06894,-3.686503 9.139451,-7.219399 0,0 4.684931,2.995283 10.368289,5.145742 0,0 -2.611272,2.965382 -2.611272,8.674084 v 43.682143 l -17.3744,12.03812 C 52.60759,144.5073 46.006853,141.48242 38.170657,138.70464 Z"
         id="path850"
         sodipodi:nodetypes="ccccccccccccccccc" />
      <path
         id="path854"
         style="font-variation-settings:normal;vector-effect:none;fill:#bf9f4f;fill-opacity:1;fill-rule:evenodd;stroke:none;stroke-width:0.291549;stroke-linecap:butt;stroke-linejoin:miter;stroke-miterlimit:4;stroke-dasharray:none;stroke-dashoffset:0;stroke-opacity:1;marker:none;marker-start:none;marker-mid:none;marker-end:none;stop-color:#000000"
         d="M 113.99149,135.93485 103.9766,131.62297 V 85.659888 l 13.64102,5.350576 v 42.317826 z m -7.47676,37.7037 c 7.6724,-5.83716 15.57915,-11.6114 25.52443,-17.1611 0,0 -3.51574,-2.86037 -3.51574,-9.14846 V 95.229845 c 0,-6.237869 4.07055,-9.749276 4.07055,-9.749276 l -21.16873,-7.992793 c -4.07051,3.532897 -20.869529,11.998751 -20.869529,11.998751 0,0 2.514576,1.564407 2.514576,5.258594 v 36.125439 c 0,4.53133 -2.764689,7.83415 -2.764689,7.83415 6.315421,2.23869 11.828232,4.63778 17.083712,7.08846 l 10.22831,-7.19595 v 22.48659 l -4.91186,3.43112 c 0,0 -6.40826,-5.2135 -16.183578,-8.03748 l -10.861461,7.16856 c 5.896938,2.27144 14.130986,5.2918 20.854009,9.99254 z"
         sodipodi:nodetypes="sscccsccccccccccccccccc" />
      <g
         style="stroke-width:1.10192"
         id="g1133"
         transform="translate(-0.6682475)">
        <path
           style="font-variation-settings:normal;opacity:1;vector-effect:none;fill:#bf9f4f;fill-opacity:1;fill-rule:evenodd;stroke:none;stroke-width:0.291549;stroke-linecap:butt;stroke-linejoin:miter;stroke-miterlimit:4;stroke-dasharray:none;stroke-dashoffset:0;stroke-opacity:1;marker:none;marker-start:none;marker-mid:none;marker-end:none;stop-color:#000000;stop-opacity:1"
           d="m 47.514875,71.067568 0.0583,-14.189718 c -6.40826,-4.127355 -4.54537,-14.79725 -4.54537,-14.79725 -1.38244,-1.612844 -2.86031,-3.858742 -2.70671,-6.70042 0.15361,-2.841679 -0.84482,-4.608128 -0.84482,-4.608128 1.30563,-1.689647 3.75232,-0.975444 3.75232,-0.975444 -3.25844,-2.389522 -4.71178,0.553602 -4.71178,0.553602 -1.4682,-0.05927 -2.2673,-1.25881 -2.10134,-2.538628 0.16597,-1.279817 1.25536,-2.276408 3.11136,-2.616668 2.75009,-0.50417 4.92505,1.212275 5.50391,2.995703 0,0 2.42925,-1.88674 4.53547,-0.872417 0,0 -1.2944,1.248239 -1.13808,3.728447 0.15633,2.480208 0.27149,3.668559 -0.97907,4.413114 -1.25057,0.744554 -2.52175,1.850192 -1.84834,2.715517 0.67341,0.865326 1.83671,-0.583125 2.56815,-1.888541 0.73145,-1.305417 2.06494,-2.637765 3.97257,-3.183865 1.90764,-0.546099 2.45892,-1.797003 2.45892,-1.797003 0,0 1.81783,2.075471 -0.13336,3.446255 0,0 1.83596,0.420212 2.79478,2.025986 0.95882,1.605776 1.83663,1.788353 2.62859,2.027167 l 0.1165,1.32613 c 0,0 -1.14622,0.409093 -1.31367,2.890938 -0.16745,2.481846 -2.22643,2.739833 -2.22643,2.739833 0,0 1.4485,1.568899 0.46892,3.582407 0,0 -1.53712,-2.103401 -5.18807,-2.011341 -3.65095,0.09206 -2.99809,-3.742435 -4.99658,-2.79588 -1.99848,0.946555 0.98147,7.637355 7.06622,7.637355 6.08475,0 8.35297,-4.460543 8.47337,-7.477941 l 3.48453,-0.253193 c 0.38401,2.995283 3.24433,7.731134 8.927684,7.731134 5.683357,0 9.446662,-7.219874 7.373004,-7.987895 -2.073657,-0.768022 -1.57755,2.383462 -5.222544,2.611272 -3.644994,0.22781 -4.992139,2.457668 -4.992139,2.457668 -1.152032,-1.920053 0.153604,-3.6097 0.153604,-3.6097 0,0 -2.073659,-0.0768 -2.457669,-2.53447 -0.38401,-2.457668 -1.56164,-2.764877 -1.56164,-2.764877 V 39.01548 c 0.76802,-0.307208 1.62648,-0.565908 2.441089,-2.249435 0.81461,-1.683526 2.606751,-2.262804 2.606751,-2.262804 -2.063678,-1.194761 -0.434459,-3.42136 -0.434459,-3.42136 0,0 0.658642,1.197858 2.606751,1.574911 1.94811,0.377054 3.393084,1.587587 4.23597,2.823981 0.842886,1.236394 2.128487,2.577478 2.723583,1.656538 0.595096,-0.92094 -0.767974,-1.911085 -2.078901,-2.543337 -1.310926,-0.632252 -2.490391,-1.72156 -2.551721,-4.205933 -0.06133,-2.484373 -1.460014,-3.61454 -1.460014,-3.61454 2.00937,-1.194761 3.149823,0.162921 3.149823,0.162921 0.05431,-1.031838 0.488765,-2.063677 2.878286,-2.823979 2.389525,-0.760302 2.335215,-2.335214 2.335215,-2.335214 h 1.474119 c 0,0 -0.05431,1.574912 2.335215,2.335214 2.389521,0.760302 2.823976,1.792141 2.878286,2.823979 0,0 1.140453,-1.357682 3.149823,-0.162921 0,0 -1.398684,1.130167 -1.460014,3.61454 -0.06133,2.484373 -1.240795,3.573681 -2.551721,4.205933 -1.310927,0.632252 -2.673997,1.622397 -2.078901,2.543337 0.595096,0.92094 1.880697,-0.420144 2.723583,-1.656538 0.842886,-1.236394 2.28786,-2.446927 4.23597,-2.823981 1.948109,-0.377053 2.606751,-1.574911 2.606751,-1.574911 0,0 1.629219,2.226599 -0.434459,3.42136 0,0 1.792141,0.579278 2.606751,2.262804 0.814609,1.683527 1.673069,1.942227 2.441089,2.249435 v 1.331237 c 0,0 -1.17763,0.307209 -1.56164,2.764877 -0.38401,2.45767 -2.457669,2.53447 -2.457669,2.53447 0,0 1.305636,1.689647 0.153604,3.6097 0,0 -1.347145,-2.229858 -4.992139,-2.457668 -3.644994,-0.22781 -3.148887,-3.379294 -5.222544,-2.611272 -2.073658,0.768021 1.689647,7.987895 7.373004,7.987895 5.683354,0 8.543674,-4.735851 8.927684,-7.731134 l 3.48453,0.253193 c 0.1204,3.017398 2.38862,7.477941 8.47337,7.477941 6.08475,0 9.0647,-6.6908 7.06622,-7.637355 -1.99849,-0.946555 -1.34563,2.88794 -4.99658,2.79588 -3.65095,-0.09206 -5.18807,2.011341 -5.18807,2.011341 -0.97958,-2.013508 0.46892,-3.582407 0.46892,-3.582407 0,0 -2.05898,-0.257987 -2.22643,-2.739833 -0.16745,-2.481845 -1.31367,-2.890938 -1.31367,-2.890938 l 0.1165,-1.32613 c 0.79196,-0.238814 1.66977,-0.421391 2.62859,-2.027167 0.95882,-1.605774 2.79478,-2.025986 2.79478,-2.025986 -1.95119,-1.370784 -0.13336,-3.446255 -0.13336,-3.446255 0,0 0.55128,1.250904 2.45892,1.797003 1.90763,0.5461 3.24112,1.878448 3.97257,3.183865 0.73144,1.305416 1.89474,2.753867 2.56815,1.888541 0.67341,-0.865325 -0.59777,-1.970963 -1.84834,-2.715517 -1.25056,-0.744555 -1.1354,-1.932906 -0.97907,-4.413114 0.15632,-2.480208 -1.13808,-3.728447 -1.13808,-3.728447 2.10622,-1.014323 4.53547,0.872417 4.53547,0.872417 0.57886,-1.783428 2.75382,-3.499873 5.50391,-2.995703 1.856,0.34026 2.94539,1.336851 3.11136,2.616668 0.16596,1.279818 -0.63314,2.479358 -2.10134,2.538628 0,0 -1.45334,-2.943124 -4.71178,-0.553602 0,0 2.44669,-0.714203 3.75232,0.975444 0,0 -0.99843,1.766449 -0.84482,4.608128 0.1536,2.841678 -1.32427,5.087576 -2.70671,6.70042 0,0 1.86289,10.669895 -4.54537,14.79725 v 14.189718 z"
           id="path965"
           sodipodi:nodetypes="ccsccczsszccsccsccszzzzcczccsszccsccsccszzzzccsccscczzzzsccsccscczsscczcczzzzsccsccscczsszcccsccccc" />
        <path
           style="color:#000000;font-style:normal;font-variant:normal;font-weight:normal;font-stretch:normal;font-size:medium;line-height:normal;font-family:sans-serif;font-variant-ligatures:normal;font-variant-position:normal;font-variant-caps:normal;font-variant-numeric:normal;font-variant-alternates:normal;font-variant-east-asian:normal;font-feature-settings:normal;font-variation-settings:normal;text-indent:0;text-align:start;text-decoration:none;text-decoration-line:none;text-decoration-style:solid;text-decoration-color:#000000;letter-spacing:normal;word-spacing:normal;text-transform:none;writing-mode:lr-tb;direction:ltr;text-orientation:mixed;dominant-baseline:auto;baseline-shift:baseline;text-anchor:start;white-space:normal;shape-padding:0;shape-margin:0;inline-size:0;clip-rule:nonzero;display:inline;overflow:visible;visibility:visible;opacity:1;isolation:auto;mix-blend-mode:normal;color-interpolation:sRGB;color-interpolation-filters:linearRGB;solid-color:#000000;solid-opacity:1;vector-effect:none;fill:#000000;fill-opacity:1;fill-rule:evenodd;stroke:none;stroke-width:0.437324;stroke-linecap:butt;stroke-linejoin:miter;stroke-miterlimit:4;stroke-dasharray:none;stroke-dashoffset:0;stroke-opacity:1;marker:none;color-rendering:auto;image-rendering:auto;shape-rendering:auto;text-rendering:auto;enable-background:accumulate;stop-color:#000000;stop-opacity:1"
           d="m 88.302466,25.600368 c 1.428434,0.108869 1.604194,1.126194 1.604194,1.126194 0,0 -0.383359,-0.759978 -1.609172,-0.803742 -1.225813,-0.04376 -1.196307,1.287737 -3.112571,1.287737 -1.916263,0 -1.886757,-1.331497 -3.11257,-1.287737 -1.225813,0.04376 -1.609172,0.803742 -1.609172,0.803742 0,0 0.17576,-1.017325 1.604194,-1.126194 1.428435,-0.108868 1.384292,1.159398 3.117548,1.159398 1.733257,0 1.689114,-1.268266 3.117549,-1.159398 z"
           id="path915"
           sodipodi:nodetypes="zczzzczzz" />
        <use
           style="stroke-width:1.21889"
           transform="matrix(-0.03973028,-0.81629427,0.99881764,-0.04861397,49.174747,111.11927)"
           height="100%"
           width="100%"
           x="0"
           y="0"
           xlink:href="#path915"
           id="use928" />
        <use
           id="use945"
           xlink:href="#path915"
           y="0"
           x="0"
           width="100%"
           height="100%"
           transform="matrix(-0.03180676,-0.84917265,-0.99924238,0.0404691,84.703153,111.87972)"
           style="stroke-width:1.19532" />
        <path
           sodipodi:nodetypes="zczcz"
           id="path951"
           d="m 73.883504,54.942166 c 5.232736,-0.112558 8.202109,-1.167732 10.444621,-5.37869 -2.800471,4.055783 -5.483616,4.944694 -10.598225,4.958008 -5.114608,0.01331 -9.215944,-5.265341 -9.215944,-5.265341 0.230406,0.934016 4.136814,5.798581 9.369548,5.686023 z"
           style="color:#000000;font-style:normal;font-variant:normal;font-weight:normal;font-stretch:normal;font-size:medium;line-height:normal;font-family:sans-serif;font-variant-ligatures:normal;font-variant-position:normal;font-variant-caps:normal;font-variant-numeric:normal;font-variant-alternates:normal;font-variant-east-asian:normal;font-feature-settings:normal;font-variation-settings:normal;text-indent:0;text-align:start;text-decoration:none;text-decoration-line:none;text-decoration-style:solid;text-decoration-color:#000000;letter-spacing:normal;word-spacing:normal;text-transform:none;writing-mode:lr-tb;direction:ltr;text-orientation:mixed;dominant-baseline:auto;baseline-shift:baseline;text-anchor:start;white-space:normal;shape-padding:0;shape-margin:0;inline-size:0;clip-rule:nonzero;display:inline;overflow:visible;visibility:visible;opacity:1;isolation:auto;mix-blend-mode:normal;color-interpolation:sRGB;color-interpolation-filters:linearRGB;solid-color:#000000;solid-opacity:1;vector-effect:none;fill:#000000;fill-opacity:1;fill-rule:evenodd;stroke:none;stroke-width:0.583099;stroke-linecap:butt;stroke-linejoin:miter;stroke-miterlimit:4;stroke-dasharray:none;stroke-dashoffset:0;stroke-opacity:1;marker:none;color-rendering:auto;image-rendering:auto;shape-rendering:auto;text-rendering:auto;enable-background:accumulate;stop-color:#000000;stop-opacity:1" />
        <path
           style="color:#000000;font-style:normal;font-variant:normal;font-weight:normal;font-stretch:normal;font-size:medium;line-height:normal;font-family:sans-serif;font-variant-ligatures:normal;font-variant-position:normal;font-variant-caps:normal;font-variant-numeric:normal;font-variant-alternates:normal;font-variant-east-asian:normal;font-feature-settings:normal;font-variation-settings:normal;text-indent:0;text-align:start;text-decoration:none;text-decoration-line:none;text-decoration-style:solid;text-decoration-color:#000000;letter-spacing:normal;word-spacing:normal;text-transform:none;writing-mode:lr-tb;direction:ltr;text-orientation:mixed;dominant-baseline:auto;baseline-shift:baseline;text-anchor:start;white-space:normal;shape-padding:0;shape-margin:0;inline-size:0;clip-rule:nonzero;display:inline;overflow:visible;visibility:visible;opacity:1;isolation:auto;mix-blend-mode:normal;color-interpolation:sRGB;color-interpolation-filters:linearRGB;solid-color:#000000;solid-opacity:1;vector-effect:none;fill:#000000;fill-opacity:1;fill-rule:evenodd;stroke:none;stroke-width:0.583099;stroke-linecap:butt;stroke-linejoin:miter;stroke-miterlimit:4;stroke-dasharray:none;stroke-dashoffset:0;stroke-opacity:1;marker:none;color-rendering:auto;image-rendering:auto;shape-rendering:auto;text-rendering:auto;enable-background:accumulate;stop-color:#000000;stop-opacity:1"
           d="m 53.945561,55.720148 c 4.773791,-0.284663 7.48273,-1.4375 9.528559,-5.722214 -2.554851,4.147891 -5.002667,5.12505 -9.668691,5.306584 -4.666023,0.181529 -8.407644,-4.962229 -8.407644,-4.962229 0.210198,0.926438 3.773988,5.662521 8.547776,5.377859 z"
           id="path953"
           sodipodi:nodetypes="zczcz" />
        <path
           sodipodi:nodetypes="cccc"
           id="path959"
           d="m 84.920269,38.324219 h 0.529297 l -0.264649,-4.300781 z"
           style="color:#000000;font-style:normal;font-variant:normal;font-weight:normal;font-stretch:normal;font-size:medium;line-height:normal;font-family:sans-serif;font-variant-ligatures:normal;font-variant-position:normal;font-variant-caps:normal;font-variant-numeric:normal;font-variant-alternates:normal;font-variant-east-asian:normal;font-feature-settings:normal;font-variation-settings:normal;text-indent:0;text-align:start;text-decoration:none;text-decoration-line:none;text-decoration-style:solid;text-decoration-color:#000000;letter-spacing:normal;word-spacing:normal;text-transform:none;writing-mode:lr-tb;direction:ltr;text-orientation:mixed;dominant-baseline:auto;baseline-shift:baseline;text-anchor:start;white-space:normal;shape-padding:0;shape-margin:0;inline-size:0;clip-rule:nonzero;display:inline;overflow:visible;visibility:visible;opacity:1;isolation:auto;mix-blend-mode:normal;color-interpolation:sRGB;color-interpolation-filters:linearRGB;solid-color:#000000;solid-opacity:1;vector-effect:none;fill:#000000;fill-opacity:1;fill-rule:evenodd;stroke:none;stroke-width:0.583099;stroke-linecap:butt;stroke-linejoin:miter;stroke-miterlimit:4;stroke-dasharray:none;stroke-dashoffset:0;stroke-opacity:1;marker:none;color-rendering:auto;image-rendering:auto;shape-rendering:auto;text-rendering:auto;enable-background:accumulate;stop-color:#000000;stop-opacity:1" />
        <use
           style="stroke-width:1.10192"
           height="100%"
           width="100%"
           transform="rotate(-91.700034,84.965066,40.78802)"
           id="use961"
           xlink:href="#path959"
           y="0"
           x="0" />
        <use
           style="stroke-width:1.10192"
           x="0"
           y="0"
           xlink:href="#path959"
           id="use963"
           transform="rotate(84.189644,62.995871,17.63776)"
           width="100%"
           height="100%" />
        <path
           style="color:#000000;font-style:normal;font-variant:normal;font-weight:normal;font-stretch:normal;font-size:medium;line-height:normal;font-family:sans-serif;font-variant-ligatures:normal;font-variant-position:normal;font-variant-caps:normal;font-variant-numeric:normal;font-variant-alternates:normal;font-variant-east-asian:normal;font-feature-settings:normal;font-variation-settings:normal;text-indent:0;text-align:start;text-decoration:none;text-decoration-line:none;text-decoration-style:solid;text-decoration-color:#000000;letter-spacing:normal;word-spacing:normal;text-transform:none;writing-mode:lr-tb;direction:ltr;text-orientation:mixed;dominant-baseline:auto;baseline-shift:baseline;text-anchor:start;white-space:normal;shape-padding:0;shape-margin:0;inline-size:0;clip-rule:nonzero;display:inline;overflow:visible;visibility:visible;isolation:auto;mix-blend-mode:normal;color-interpolation:sRGB;color-interpolation-filters:linearRGB;solid-color:#000000;solid-opacity:1;vector-effect:none;fill:#000000;fill-opacity:1;fill-rule:evenodd;stroke:none;stroke-width:0.395352;stroke-linecap:butt;stroke-linejoin:miter;stroke-miterlimit:4;stroke-dasharray:none;stroke-dashoffset:0;stroke-opacity:1;marker:none;color-rendering:auto;image-rendering:auto;shape-rendering:auto;text-rendering:auto;enable-background:accumulate;stop-color:#000000"
           d="m 99.133271,37.793938 c -0.05199,-1.171315 -1.061127,-1.364244 -1.061127,-1.364244 0,0 0.743848,0.34988 0.738859,1.352631 -0.005,1.002752 -1.333744,0.913937 -1.409878,2.478172 -0.07613,1.564235 1.254961,1.604879 1.162551,2.603375 -0.09241,0.998497 -0.866724,1.274485 -0.866724,1.274485 0,0 1.023105,-0.09402 1.188597,-1.254745 0.165492,-1.160731 -1.103029,-1.186353 -1.034166,-2.6012 0.06886,-1.414848 1.333875,-1.317159 1.281888,-2.488474 z"
           id="use969"
           sodipodi:nodetypes="zczzzczzz" />
        <path
           style="color:#000000;font-style:normal;font-variant:normal;font-weight:normal;font-stretch:normal;font-size:medium;line-height:normal;font-family:sans-serif;font-variant-ligatures:normal;font-variant-position:normal;font-variant-caps:normal;font-variant-numeric:normal;font-variant-alternates:normal;font-variant-east-asian:normal;font-feature-settings:normal;font-variation-settings:normal;text-indent:0;text-align:start;text-decoration:none;text-decoration-line:none;text-decoration-style:solid;text-decoration-color:#000000;letter-spacing:normal;word-spacing:normal;text-transform:none;writing-mode:lr-tb;direction:ltr;text-orientation:mixed;dominant-baseline:auto;baseline-shift:baseline;text-anchor:start;white-space:normal;shape-padding:0;shape-margin:0;inline-size:0;clip-rule:nonzero;display:inline;overflow:visible;visibility:visible;isolation:auto;mix-blend-mode:normal;color-interpolation:sRGB;color-interpolation-filters:linearRGB;solid-color:#000000;solid-opacity:1;vector-effect:none;fill:#000000;fill-opacity:1;fill-rule:evenodd;stroke:none;stroke-width:0.403149;stroke-linecap:butt;stroke-linejoin:miter;stroke-miterlimit:4;stroke-dasharray:none;stroke-dashoffset:0;stroke-opacity:1;marker:none;color-rendering:auto;image-rendering:auto;shape-rendering:auto;text-rendering:auto;enable-background:accumulate;stop-color:#000000"
           d="m 114.05627,37.931705 c 0.15422,-1.208581 1.17636,-1.316662 1.17636,-1.316662 0,0 -0.77159,0.294783 -0.85431,1.333939 -0.0827,1.039156 1.24871,1.067984 1.18776,2.695223 -0.061,1.627238 -1.3905,1.548298 -1.38576,2.590996 0.005,1.042698 0.75195,1.398992 0.75195,1.398992 0,0 -1.01097,-0.190421 -1.07432,-1.407814 -0.0633,-1.217394 1.20255,-1.128583 1.25768,-2.600417 0.0551,-1.471834 -1.21358,-1.485675 -1.05936,-2.694257 z"
           id="use971"
           sodipodi:nodetypes="zczzzczzz" />
        <path
           style="color:#000000;font-style:normal;font-variant:normal;font-weight:normal;font-stretch:normal;font-size:medium;line-height:normal;font-family:sans-serif;font-variant-ligatures:normal;font-variant-position:normal;font-variant-caps:normal;font-variant-numeric:normal;font-variant-alternates:normal;font-variant-east-asian:normal;font-feature-settings:normal;font-variation-settings:normal;text-indent:0;text-align:start;text-decoration:none;text-decoration-line:none;text-decoration-style:solid;text-decoration-color:#000000;letter-spacing:normal;word-spacing:normal;text-transform:none;writing-mode:lr-tb;direction:ltr;text-orientation:mixed;dominant-baseline:auto;baseline-shift:baseline;text-anchor:start;white-space:normal;shape-padding:0;shape-margin:0;inline-size:0;clip-rule:nonzero;display:inline;overflow:visible;visibility:visible;opacity:1;isolation:auto;mix-blend-mode:normal;color-interpolation:sRGB;color-interpolation-filters:linearRGB;solid-color:#000000;solid-opacity:1;vector-effect:none;fill:#000000;fill-opacity:1;fill-rule:evenodd;stroke:none;stroke-width:0.583099;stroke-linecap:butt;stroke-linejoin:miter;stroke-miterlimit:4;stroke-dasharray:none;stroke-dashoffset:0;stroke-opacity:1;marker:none;color-rendering:auto;image-rendering:auto;shape-rendering:auto;text-rendering:auto;enable-background:accumulate;stop-color:#000000;stop-opacity:1"
           d="m 96.486331,54.942166 c -5.232736,-0.112558 -8.202109,-1.167732 -10.444621,-5.37869 2.800471,4.055783 5.483616,4.944694 10.598225,4.958008 5.114605,0.01331 9.215945,-5.265341 9.215945,-5.265341 -0.23041,0.934016 -4.13682,5.798581 -9.369549,5.686023 z"
           id="path973"
           sodipodi:nodetypes="zczcz" />
        <path
           sodipodi:nodetypes="zczcz"
           id="path975"
           d="m 116.42427,55.720148 c -4.77379,-0.284663 -7.48273,-1.4375 -9.52856,-5.722214 2.55486,4.147891 5.00267,5.12505 9.6687,5.306584 4.66602,0.181529 8.40764,-4.962229 8.40764,-4.962229 -0.2102,0.926438 -3.77399,5.662521 -8.54778,5.377859 z"
           style="color:#000000;font-style:normal;font-variant:normal;font-weight:normal;font-stretch:normal;font-size:medium;line-height:normal;font-family:sans-serif;font-variant-ligatures:normal;font-variant-position:normal;font-variant-caps:normal;font-variant-numeric:normal;font-variant-alternates:normal;font-variant-east-asian:normal;font-feature-settings:normal;font-variation-settings:normal;text-indent:0;text-align:start;text-decoration:none;text-decoration-line:none;text-decoration-style:solid;text-decoration-color:#000000;letter-spacing:normal;word-spacing:normal;text-transform:none;writing-mode:lr-tb;direction:ltr;text-orientation:mixed;dominant-baseline:auto;baseline-shift:baseline;text-anchor:start;white-space:normal;shape-padding:0;shape-margin:0;inline-size:0;clip-rule:nonzero;display:inline;overflow:visible;visibility:visible;opacity:1;isolation:auto;mix-blend-mode:normal;color-interpolation:sRGB;color-interpolation-filters:linearRGB;solid-color:#000000;solid-opacity:1;vector-effect:none;fill:#000000;fill-opacity:1;fill-rule:evenodd;stroke:none;stroke-width:0.583099;stroke-linecap:butt;stroke-linejoin:miter;stroke-miterlimit:4;stroke-dasharray:none;stroke-dashoffset:0;stroke-opacity:1;marker:none;color-rendering:auto;image-rendering:auto;shape-rendering:auto;text-rendering:auto;enable-background:accumulate;stop-color:#000000;stop-opacity:1" />
        <path
           style="color:#000000;font-style:normal;font-variant:normal;font-weight:normal;font-stretch:normal;font-size:medium;line-height:normal;font-family:sans-serif;font-variant-ligatures:normal;font-variant-position:normal;font-variant-caps:normal;font-variant-numeric:normal;font-variant-alternates:normal;font-variant-east-asian:normal;font-feature-settings:normal;font-variation-settings:normal;text-indent:0;text-align:start;text-decoration:none;text-decoration-line:none;text-decoration-style:solid;text-decoration-color:#000000;letter-spacing:normal;word-spacing:normal;text-transform:none;writing-mode:lr-tb;direction:ltr;text-orientation:mixed;dominant-baseline:auto;baseline-shift:baseline;text-anchor:start;white-space:normal;shape-padding:0;shape-margin:0;inline-size:0;clip-rule:nonzero;display:inline;overflow:visible;visibility:visible;opacity:1;isolation:auto;mix-blend-mode:normal;color-interpolation:sRGB;color-interpolation-filters:linearRGB;solid-color:#000000;solid-opacity:1;vector-effect:none;fill:#000000;fill-opacity:1;fill-rule:evenodd;stroke:none;stroke-width:0.583099;stroke-linecap:butt;stroke-linejoin:miter;stroke-miterlimit:4;stroke-dasharray:none;stroke-dashoffset:0;stroke-opacity:1;marker:none;color-rendering:auto;image-rendering:auto;shape-rendering:auto;text-rendering:auto;enable-background:accumulate;stop-color:#000000;stop-opacity:1"
           d="m 85.449566,38.324219 h -0.529297 l 0.264649,-4.300781 z"
           id="path977"
           sodipodi:nodetypes="cccc" />
        <use
           style="stroke-width:1.10192"
           x="0"
           y="0"
           xlink:href="#path977"
           id="use979"
           transform="rotate(91.700034,85.404769,40.78802)"
           width="100%"
           height="100%" />
        <use
           style="stroke-width:1.10192"
           height="100%"
           width="100%"
           transform="rotate(-84.189644,107.37396,17.63776)"
           id="use981"
           xlink:href="#path977"
           y="0"
           x="0" />
        <circle
           r="3.0460927"
           cy="40.647717"
           cx="85.184921"
           id="path1014"
           style="color:#000000;display:inline;overflow:visible;visibility:visible;fill:#e6e6e6;fill-rule:evenodd;stroke:none;stroke-width:0.291549;stroke-linecap:square;stroke-linejoin:miter;stroke-miterlimit:4;stroke-dasharray:none;stroke-dashoffset:0;stroke-opacity:1;marker:none;marker-start:none;marker-mid:none;marker-end:none;enable-background:accumulate" />
        <circle
           style="color:#000000;display:inline;overflow:visible;visibility:visible;fill:#e6e6e6;fill-rule:evenodd;stroke:none;stroke-width:0.291549;stroke-linecap:square;stroke-linejoin:miter;stroke-miterlimit:4;stroke-dasharray:none;stroke-dashoffset:0;stroke-opacity:1;marker:none;marker-start:none;marker-mid:none;marker-end:none;enable-background:accumulate"
           id="circle1016"
           cx="63.896458"
           cy="42.494164"
           r="3.0460927" />
        <ellipse
           transform="rotate(-5.9871632)"
           ry="3.1073532"
           rx="2.6068933"
           cy="46.229218"
           cx="37.556423"
           id="circle1018"
           style="color:#000000;display:inline;overflow:visible;visibility:visible;fill:#e6e6e6;fill-rule:evenodd;stroke:none;stroke-width:0.291549;stroke-linecap:square;stroke-linejoin:miter;stroke-miterlimit:4;stroke-dasharray:none;stroke-dashoffset:0;stroke-opacity:1;marker:none;marker-start:none;marker-mid:none;marker-end:none;enable-background:accumulate" />
        <use
           style="stroke-width:1.10192"
           height="100%"
           width="100%"
           transform="matrix(-1,0,0,1,170.36983,0)"
           id="use1020"
           xlink:href="#circle1016"
           y="0"
           x="0" />
        <use
           style="stroke-width:1.10192"
           height="100%"
           width="100%"
           transform="matrix(-1,0,0,1,170.36983,0)"
           id="use1022"
           xlink:href="#circle1018"
           y="0"
           x="0" />
        <path
           d="m 47.679037,56.87785 h 75.011713 c 0.78197,0 1.4115,0.629529 1.4115,1.411501 0,0.781972 -0.62953,1.411501 -1.4115,1.411501 H 47.679037 c -0.781971,0 -1.411501,-0.629529 -1.411501,-1.411501 0,-0.781972 0.62953,-1.411501 1.411501,-1.411501 z"
           style="color:#000000;overflow:visible;opacity:1;fill:#bf9f4f;fill-opacity:1;fill-rule:evenodd;stroke:#000000;stroke-width:0.437324;stroke-miterlimit:4;stroke-dasharray:none"
           id="rect1024" />
        <path
           id="path1027"
           style="color:#000000;overflow:visible;opacity:1;fill:#bf9f4f;fill-opacity:1;fill-rule:evenodd;stroke:#000000;stroke-width:0.437324;stroke-miterlimit:4;stroke-dasharray:none"
           d="m 47.679037,69.16619 h 75.011713 c 0.78197,0 1.4115,0.629529 1.4115,1.411501 0,0.781972 -0.62953,1.411501 -1.4115,1.411501 H 47.679037 c -0.781971,0 -1.411501,-0.629529 -1.411501,-1.411501 0,-0.781972 0.62953,-1.411501 1.411501,-1.411501 z" />
        <path
           sodipodi:nodetypes="ssszs"
           d="m 85.184921,67.15457 c -2.1622,0 -3.915009,-1.12064 -3.915009,-2.50302 0,-1.38238 1.752809,-2.50302 3.915009,-2.50302 2.1622,0 3.91501,1.12064 3.91501,2.50302 0,1.38238 -1.75281,2.50302 -3.91501,2.50302 z"
           style="color:#000000;display:inline;overflow:visible;visibility:visible;fill:#ec1313;fill-opacity:1;fill-rule:evenodd;stroke:none;stroke-width:0.291549;stroke-linecap:square;stroke-linejoin:miter;stroke-miterlimit:4;stroke-dasharray:none;stroke-dashoffset:0;stroke-opacity:1;marker:none;marker-start:none;marker-mid:none;marker-end:none;enable-background:accumulate"
           id="circle1029" />
        <path
           id="path1032"
           style="color:#000000;display:inline;overflow:visible;visibility:visible;fill:#066af9;fill-opacity:1;fill-rule:evenodd;stroke:none;stroke-width:0.291549;stroke-linecap:square;stroke-linejoin:miter;stroke-miterlimit:4;stroke-dasharray:none;stroke-dashoffset:0;stroke-opacity:1;marker:none;marker-start:none;marker-mid:none;marker-end:none;enable-background:accumulate"
           d="m 65.446776,67.15457 -4.452624,-2.50302 4.452624,-2.50302 4.452625,2.50302 z"
           sodipodi:nodetypes="ccccc" />
        <path
           id="path1034"
           style="color:#000000;display:inline;overflow:visible;visibility:visible;fill:#ec1313;fill-opacity:1;fill-rule:evenodd;stroke:none;stroke-width:0.291549;stroke-linecap:square;stroke-linejoin:miter;stroke-miterlimit:4;stroke-dasharray:none;stroke-dashoffset:0;stroke-opacity:1;marker:none;marker-start:none;marker-mid:none;marker-end:none;enable-background:accumulate"
           d="m 48.866916,67.15457 c -1.860092,0 -3.367993,-1.12064 -3.367993,-2.50302 0,-1.38238 1.507901,-2.50302 3.367993,-2.50302 1.860091,0 3.367994,1.12064 3.367994,2.50302 0,1.38238 -1.507903,2.50302 -3.367994,2.50302 z"
           sodipodi:nodetypes="ssszs" />
        <path
           sodipodi:nodetypes="ccccc"
           d="m 104.92302,67.15457 4.45262,-2.50302 -4.45262,-2.50302 -4.45263,2.50302 z"
           style="color:#000000;display:inline;overflow:visible;visibility:visible;fill:#066af9;fill-opacity:1;fill-rule:evenodd;stroke:none;stroke-width:0.291549;stroke-linecap:square;stroke-linejoin:miter;stroke-miterlimit:4;stroke-dasharray:none;stroke-dashoffset:0;stroke-opacity:1;marker:none;marker-start:none;marker-mid:none;marker-end:none;enable-background:accumulate"
           id="path1036" />
        <path
           sodipodi:nodetypes="ssszs"
           d="m 121.50288,67.15457 c 1.86009,0 3.36799,-1.12064 3.36799,-2.50302 0,-1.38238 -1.5079,-2.50302 -3.36799,-2.50302 -1.86009,0 -3.368,1.12064 -3.368,2.50302 0,1.38238 1.50791,2.50302 3.368,2.50302 z"
           style="color:#000000;display:inline;overflow:visible;visibility:visible;fill:#ec1313;fill-opacity:1;fill-rule:evenodd;stroke:none;stroke-width:0.291549;stroke-linecap:square;stroke-linejoin:miter;stroke-miterlimit:4;stroke-dasharray:none;stroke-dashoffset:0;stroke-opacity:1;marker:none;marker-start:none;marker-mid:none;marker-end:none;enable-background:accumulate"
           id="path1038" />
      </g>
    </g>
  </g>
</svg>
