<?xml version="1.0" encoding="UTF-8" standalone="no"?>
<svg
   xmlns:dc="http://purl.org/dc/elements/1.1/"
   xmlns:cc="http://creativecommons.org/ns#"
   xmlns:rdf="http://www.w3.org/1999/02/22-rdf-syntax-ns#"
   xmlns:svg="http://www.w3.org/2000/svg"
   xmlns="http://www.w3.org/2000/svg"
   xmlns:sodipodi="http://sodipodi.sourceforge.net/DTD/sodipodi-0.dtd"
   xmlns:inkscape="http://www.inkscape.org/namespaces/inkscape"
   width="500"
   height="550"
   viewBox="0 0 132.29166 145.52084"
   version="1.1"
   id="svg847"
   sodipodi:docname="närpiö.svg"
   inkscape:version="1.0.2 (e86c870879, 2021-01-15, custom)">
  <defs
     id="defs841" />
  <sodipodi:namedview
     id="base"
     pagecolor="#ffffff"
     bordercolor="#666666"
     borderopacity="1.0"
     inkscape:pageopacity="0.0"
     inkscape:pageshadow="2"
     inkscape:zoom="0.98994949"
     inkscape:cx="286.92396"
     inkscape:cy="197.2088"
     inkscape:document-units="px"
     inkscape:current-layer="layer1"
     inkscape:document-rotation="0"
     showgrid="false"
     inkscape:snap-smooth-nodes="true"
     inkscape:showpageshadow="false"
     borderlayer="true"
     units="px"
     inkscape:window-width="1920"
     inkscape:window-height="1017"
     inkscape:window-x="-8"
     inkscape:window-y="-4"
     inkscape:window-maximized="1"
     inkscape:snap-global="true"
     showguides="false" />
  <metadata
     id="metadata844">
    <rdf:RDF>
      <cc:Work
         rdf:about="">
        <dc:format>image/svg+xml</dc:format>
        <dc:type
           rdf:resource="http://purl.org/dc/dcmitype/StillImage" />
        <dc:title></dc:title>
      </cc:Work>
    </rdf:RDF>
  </metadata>
  <g
     inkscape:label="Layer 1"
     inkscape:groupmode="layer"
     id="layer1"
     transform="translate(-18.180654,-34.074552)">
    <g
       id="g1541"
       transform="matrix(0.94491243,0,0,0.94197937,1.0015281,1.9770269)"
       style="stroke-width:1.05995">
      <path
         style="font-variation-settings:normal;opacity:1;vector-effect:none;fill:#e50000;fill-opacity:1;stroke:none;stroke-width:0.280444;stroke-linecap:butt;stroke-linejoin:miter;stroke-miterlimit:4;stroke-dasharray:none;stroke-dashoffset:0;stroke-opacity:1;stop-color:#000000;stop-opacity:1"
         d="m 18.180654,34.074552 c 0,0 0.9275,51.451695 1.32677,87.132178 0.39928,35.68048 28.9724,67.35192 68.67531,67.35192 39.702906,0 68.276036,-31.67144 68.675306,-67.35192 0.39928,-35.680483 1.32677,-87.132178 1.32677,-87.132178 z"
         id="path848"
         sodipodi:nodetypes="cszscc" />
      <path
         id="path1408"
         style="font-variation-settings:normal;vector-effect:none;fill:#800000;fill-opacity:1;stroke:none;stroke-width:0.280444;stroke-linecap:butt;stroke-linejoin:miter;stroke-miterlimit:4;stroke-dasharray:none;stroke-dashoffset:0;stroke-opacity:1;stop-color:#000000"
         d="m 119.43715,174.72732 c -1.52853,-2.49529 -6.46855,-13.21808 -7.1603,-28.26362 l 1.00912,-30.87386 c 0,0 0.99219,-6.37835 8.71707,-10.48884 0,0 -5.17355,-5.0318 -4.18136,-12.544081 -2.88392,3.052045 -12.02467,7.250303 -18.440582,0.252424 -6.698844,-7.306475 -0.300678,-16.537301 -4.810852,-25.457422 0,0 3.050264,1.152108 5.746294,5.980156 0,0 1.20271,-11.926903 1.00226,-22.550867 -0.20045,-10.623963 -3.329951,-13.555576 -3.329951,-13.555576 0,0 6.771051,-1.244474 10.479411,6.472934 3.70837,7.717408 1.9043,24.909741 1.9043,24.909741 l 1.16527,0.325099 c 0,0 3.85063,-11.436757 5.55152,-19.560268 1.52189,-7.268588 -0.32499,-12.757214 -0.32499,-12.757214 0,0 6.57077,0.801808 8.17439,8.41899 1.60361,7.617181 -3.0655,22.792833 -4.46866,26.100294 l 1.24947,0.160549 c 0,0 5.66964,-8.457217 9.63839,-17.386905 3.7583,-8.456185 3.62734,-14.569144 4.04846,-17.192701 l 1.05834,-10e-7 c 0,0 6.46872,3.018595 4.76783,14.641363 -1.70089,11.622768 -10.64239,25.277158 -10.64239,25.277158 l 0.0354,1.913505 c 0,0 8.15012,-8.339096 13.11105,-15.000931 4.62698,-6.213377 4.50849,-9.73518 5.4007,-12.933079 l 1.05834,-10e-7 c 0,0 4.00904,4.109269 2.60588,11.826677 -1.40317,7.717407 -9.68146,16.791429 -14.79299,21.201375 l 0.82619,-0.192164 c 0,0 3.50988,-0.73014 9.02231,-4.037596 4.69781,-2.818685 5.71848,-5.276101 6.65907,-6.61492 l 1.05834,-10e-7 c 0,0 2.20497,4.409947 -1.10249,9.621703 -3.30746,5.211755 -7.804,7.954829 -12.86541,10.410368 l -0.48703,1.048899 c 3.83154,0.181519 9.80567,0.225124 14.53245,-3.140377 l 1.05838,-1.27e-4 c 0,0 -0.57199,5.85824 -5.26543,9.616666 -4.72847,3.78646 -8.54354,4.17511 -8.54354,4.17511 l 1.95797,1.20775 c 0,0 7.67589,2.23432 10.7829,5.44155 0,0 -3.97601,5.2831 -13.06668,5.64364 0,0 8.77726,7.21564 11.68382,14.53215 0,0 -5.6005,1.34445 -16.22447,-4.46866 2.26204,2.92558 8.35926,13.99049 8.96668,25.44022 l -0.70411,-0.28352 c -4.376,-2.78795 -11.99898,-11.74453 -14.97771,-17.33907 2.80518,7.61604 6.27046,22.12338 5.57618,31.52466 0,0 -8.78342,-7.33677 -15.39834,-27.98334 0,0 3.40769,21.44838 -1.00226,36.48229 z M 82.853338,67.351959 c -1.124736,0.744295 -2.969723,2.903487 -4.687745,5.980118 0,0 -1.202713,-11.926903 -1.002261,-22.550867 0.200452,-10.623963 2.121452,-13.405483 2.121452,-13.405483 0,0 -0.310378,-0.154706 -0.908174,-0.150093 -1.783865,0.01376 -5.585171,0.692592 -8.362738,6.472934 -3.708365,7.717408 -1.904295,24.909741 -1.904295,24.909741 l -1.165268,0.325099 c 0,0 -3.850632,-11.436757 -5.551525,-19.560268 -1.52189,-7.268588 -0.683232,-13.057893 -0.683232,-13.057893 0,0 -0.682976,0.16244 -1.10854,0.300604 -1.528572,0.496268 -4.803237,2.460724 -6.057624,8.419065 -1.603617,7.617181 3.065493,22.792833 4.468658,26.100294 l -1.24947,0.160549 c 0,0 -5.669644,-8.457217 -9.638394,-17.386905 -3.96875,-8.929687 -4.806114,-15.188181 -5.207019,-17.593606 0,0 -0.478199,0.03984 -0.958108,0.400904 -1.675181,1.260324 -5.031628,5.606826 -3.709501,14.641363 1.700892,11.622768 10.642393,25.277158 10.642393,25.277158 l -0.03544,1.913505 c 0,0 -8.150111,-8.3391 -13.111049,-15.000931 -4.960937,-6.66183 -5.757462,-10.226976 -6.759723,-13.734889 0,0 -0.39413,0.278672 -0.757656,0.801809 -1.066134,1.53423 -2.593919,6.071612 -1.547544,11.826677 1.403165,7.717407 9.681458,16.791429 14.792988,21.201376 l -0.826186,-0.192164 c 0,0 -3.509881,-0.730137 -9.022315,-4.037597 -5.512434,-3.307461 -7.382337,-5.920461 -8.284372,-7.323626 0,0 -0.375226,0.379465 -0.491338,0.708788 -0.459454,1.303124 -0.833792,5.886485 1.806436,10.046843 3.307461,5.211756 7.166164,8.096571 12.227581,10.55211 l -13.752454,0.814213 c 0.128235,1.254538 0.941046,3.876365 4.126699,6.427363 3.858863,3.0901 8.330923,3.32466 8.330923,3.32466 l -1.036648,1.06601 -12.337123,5.65435 c 0,0 -0.416435,0.41386 -0.496094,0.49609 1.579931,2.3198 7.318364,6.24038 15.131301,6.21579 l -12.898363,14.10131 -0.0045,0.70895 c 0,0 6.947041,0.91923 17.571005,-4.89388 -2.234158,2.88952 -10.45012,24.73148 -10.45012,24.73148 l 0.136907,0.567 c 7.088788,-3.95989 13.758171,-11.89725 16.957489,-17.90607 -2.761537,7.49753 -7.272258,31.17027 -7.272258,31.17027 l 0.206319,0.50117 c 0,0 10.273173,-7.48355 16.888094,-28.13012 l -0.05617,36.48216 0.657532,1.00239 c 0,0 7.817633,-11.82667 8.619442,-29.26601 l -1.009115,-30.87386 c 0,0 -0.992188,-6.5788 -8.717074,-10.68929 0,0 4.872871,-4.43045 3.880684,-11.942726 2.883923,3.052045 12.024669,7.250306 18.440581,0.252424 6.698844,-7.306475 0.530485,-17.363429 5.040659,-26.28355 z m 21.425492,54.806071 c -1e-5,-3.66776 -3.13194,-6.64107 -6.240177,-6.64107 -3.108232,0 -4.821911,1.57306 -5.835053,4.08078 -0.213478,-0.162 -0.367882,-0.26948 -0.529167,-0.52917 l 0.05238,-6.12282 9.524037,-5.65339 c 2.70694,0.22878 5.62574,1.34081 8.27467,3.61004 6.38995,5.47401 9.70358,15.21207 6.58962,27.27868 -3.20724,12.42803 -11.70066,25.7667 -27.052451,32.58207 -0.244754,-0.10866 -0.638724,-0.26663 -0.879961,-0.37872 L 64.966421,124.77155 77.59141,107.42137 c 3.142697,-0.20964 5.887539,0.77783 7.421211,2.73376 3.046415,3.88517 0.813606,8.62397 -0.005,9.72609 -0.101642,-0.25158 -0.202677,-0.57539 -0.316555,-0.81265 -1.021224,-2.12767 -2.509485,-3.55161 -5.305886,-3.55161 -3.108234,0 -5.76297,2.6797 -5.762979,6.05521 9e-6,3.37551 2.736403,5.97016 6.111911,5.97016 1.469616,0 2.73712,-0.27508 4.189998,-0.89843 l 0.528971,0.31643 c -1.229497,4.51708 -0.215873,9.38598 4.684041,12.3806 l 12.662198,-7.97967 z" />
      <g
         id="g1145"
         style="stroke-width:1.05995">
        <path
           style="font-variation-settings:normal;opacity:1;vector-effect:none;fill:#cccccc;fill-opacity:1;stroke:none;stroke-width:0.280444;stroke-linecap:butt;stroke-linejoin:miter;stroke-miterlimit:4;stroke-dasharray:none;stroke-dashoffset:0;stroke-opacity:1;stop-color:#000000;stop-opacity:1"
           d="m 35.258091,116.42848 c 0,0 -9.399764,7.75162 -12.30632,15.06813 0,0 5.813112,1.20271 16.437076,-4.6104 -2.262036,2.92558 -8.571864,13.84875 -9.321025,25.15674 4.112225,-2.04639 12.836854,-11.33029 16.036172,-17.33911 -2.805186,7.61604 -6.199594,22.33599 -6.214017,31.17031 0,0 9.421251,-6.98242 16.036172,-27.62899 0,0 -3.407687,21.44838 1.002261,36.48229 0,0 7.416729,-10.82441 8.218538,-28.26375 l -1.009115,-30.87386 c 0,0 -0.992188,-6.37835 -8.717074,-10.48884 0,0 5.173549,-5.0318 4.181362,-12.54408 2.883923,3.052045 12.024669,7.250303 18.440581,0.252424 6.698844,-7.306475 0.300678,-16.537302 4.810852,-25.457423 0,0 -3.050264,1.152108 -5.746295,5.980156 0,0 -1.202713,-11.926903 -1.002261,-22.550867 0.200452,-10.623963 2.271791,-13.555822 2.271791,-13.555822 0,0 -5.712886,-1.244228 -9.421251,6.47318 -3.708364,7.717408 -1.904295,24.909741 -1.904295,24.909741 l -1.165268,0.325099 c 0,0 -3.850632,-11.436757 -5.551525,-19.560268 -1.52189,-7.268588 -0.733345,-12.757215 -0.733345,-12.757215 0,0 -5.512434,0.801809 -7.116051,8.418991 -1.603617,7.617181 3.065493,22.792833 4.468658,26.100294 l -1.24947,0.160549 c 0,0 -5.669644,-8.457217 -9.638394,-17.386905 -3.96875,-8.929687 -4.705888,-14.787277 -5.106793,-17.192702 0,0 -6.468727,3.018595 -4.767835,14.641363 1.700893,11.622768 10.642393,25.277158 10.642393,25.277158 l -0.03544,1.913505 c 0,0 -8.150111,-8.3391 -13.111049,-15.000931 -4.960937,-6.66183 -5.456784,-9.425167 -6.459045,-12.93308 0,0 -4.009043,4.109269 -2.605878,11.826677 1.403165,7.717407 9.681458,16.791429 14.792988,21.201376 l -0.826186,-0.192164 c 0,0 -3.509881,-0.730137 -9.022315,-4.037597 -5.512434,-3.307461 -6.815373,-5.211756 -7.717408,-6.614921 0,0 -2.204974,4.409947 1.102487,9.621703 3.30746,5.211756 7.803999,7.95483 12.865416,10.410369 l -1.733495,0.585659 c -4.021972,0.19054 -8.706637,0.41883 -13.370304,-2.677264 0,0 0.07587,5.007794 4.769337,8.76622 4.728468,3.786455 8.827017,3.891625 8.827017,3.891625 l -1.816224,1.63297 c 0,0 -8.171987,2.44694 -11.278995,5.65417 0,0 3.768118,5.24112 13.790726,5.54179 z"
           id="path1099"
           sodipodi:nodetypes="ccccccccccccsccscsccscsccscsccscsccscscccsccccc" />
        <path
           style="color:#000000;font-style:normal;font-variant:normal;font-weight:normal;font-stretch:normal;font-size:medium;line-height:normal;font-family:sans-serif;font-variant-ligatures:normal;font-variant-position:normal;font-variant-caps:normal;font-variant-numeric:normal;font-variant-alternates:normal;font-variant-east-asian:normal;font-feature-settings:normal;font-variation-settings:normal;text-indent:0;text-align:start;text-decoration:none;text-decoration-line:none;text-decoration-style:solid;text-decoration-color:#000000;letter-spacing:normal;word-spacing:normal;text-transform:none;writing-mode:lr-tb;direction:ltr;text-orientation:mixed;dominant-baseline:auto;baseline-shift:baseline;text-anchor:start;white-space:normal;shape-padding:0;shape-margin:0;inline-size:0;clip-rule:nonzero;display:inline;overflow:visible;visibility:visible;opacity:1;isolation:auto;mix-blend-mode:normal;color-interpolation:sRGB;color-interpolation-filters:linearRGB;solid-color:#000000;solid-opacity:1;vector-effect:none;fill:#808080;fill-opacity:1;fill-rule:nonzero;stroke:none;stroke-width:0.280444;stroke-linecap:butt;stroke-linejoin:miter;stroke-miterlimit:4;stroke-dasharray:none;stroke-dashoffset:0;stroke-opacity:1;color-rendering:auto;image-rendering:auto;shape-rendering:auto;text-rendering:auto;enable-background:accumulate;stop-color:#000000;stop-opacity:1"
           d="m 63.844309,75.442523 0.671316,-1.417132 C 58.930199,59.463386 56.67061,43.08524 56.67061,43.08524 c -0.339337,2.894278 1.511021,17.706434 7.173699,32.357283 z m -8.652098,5.562071 -0.06355,-2.732123 C 48.649079,66.908788 42.29456,52.943693 40.390265,44.299548 c 0.366219,7.84061 8.273779,25.182404 14.801946,36.705046 z m 18.30472,-5.334394 1.426897,1.894532 c 0,0 -2.833182,-20.155567 -0.555664,-32.475586 C 71.055252,54.081665 73.496931,75.6702 73.496931,75.6702 Z M 47.822266,86.871094 48.294305,85.969521 C 37.714147,74.990112 33.01151,68.144526 28.263671,60.737305 c 0.491401,4.011979 8.895744,15.112655 19.558595,26.133789 z m -4.677221,5.40296 -0.497121,-1.333778 C 32.19119,86.645871 26.687238,81.042726 24.355109,78.477385 c 0.946957,3.156521 8.066089,9.345261 18.789936,13.796669 z m -4.037069,6.414283 c -6.810454,-0.73426 -11.070187,-2.346701 -13.55026,-3.474007 1.503508,1.754093 7.228654,3.674277 14.310862,4.473729 z m 1.064179,11.825613 -0.98856,-1.04911 c -4.272862,1.16612 -12.56311,1.33874 -13.621094,1.51507 0.952432,0.57146 9.574567,0.48894 14.609654,-0.46596 z m 4.530971,6.69113 -1.113002,-0.47099 c -5.462122,3.23682 -12.408756,8.92036 -15.113839,11.85086 0,0 10.864547,-8.20221 16.226841,-11.37987 z m 3.880859,6.56054 -1.186663,-0.14899 c -5.621399,6.74049 -8.563908,12.76883 -12.318219,20.70856 4.378811,-6.32766 7.776646,-14.89034 13.504882,-20.55957 z m 5.708985,4.26368 -1.521764,0.99442 c -2.219897,5.85245 -9.273158,29.1335 -9.273158,29.1335 1.384252,-2.7685 8.604942,-24.3543 10.794922,-30.12792 z m 8.462332,9.07561 -1.206473,-0.0619 c -1.20991,7.0578 -3.017578,26.72656 -3.017578,26.72656 0.475223,-1.42567 3.056108,-19.7735 4.224051,-26.66462 z"
           id="path1136"
           sodipodi:nodetypes="ccccccccccccccccccccccccccccccccccccccccccccc" />
        <path
           id="path1198"
           style="font-variation-settings:normal;opacity:1;vector-effect:none;fill:#ffffff;fill-opacity:1;stroke:none;stroke-width:1.05995;stroke-linecap:butt;stroke-linejoin:miter;stroke-miterlimit:4;stroke-dasharray:none;stroke-dashoffset:0;stroke-opacity:1;stop-color:#000000;stop-opacity:1"
           transform="scale(0.26458333)"
           d="m 313.14648,254.55859 c 0,0 -20.28905,1.58398 -27.78906,42.83399 l 0.89453,6.66406 c 2.89335,-12.07305 8.97512,-39.31882 26.89453,-49.49805 z m -61.36523,6.3125 -0.88867,-4.08593 c 0,0 -11.59728,12.75222 -11.48633,39.4414 l 1.38867,7.07227 c 0,0 1.89496,-27.65425 10.98633,-42.42774 z m -38.63867,8.71289 -1.53516,-3.0664 c 0,0 -10.50687,18.07044 -2.88476,42.58984 l 4.04101,8.58594 c 0,0 -7.19724,-28.4114 0.37891,-48.10938 z m -33.33594,23.86524 -2.79687,-3.80664 c 0,0 -7.06304,16.95273 2.92382,35.75195 l 8.20703,8.58789 c 0,0 -12.87967,-18.94119 -8.33398,-40.5332 z m -30.30469,24.62305 -3.65429,-2.66993 c 0,0 1.88638,19.08531 15.52343,31.58594 0,0 -17.37945,-4.25133 -32.55078,6.07813 l 4.39258,1.75 c 0,0 13.6372,-6.44032 37.88086,-2.27344 0,0 -17.42492,-13.63631 -21.5918,-34.4707 z m 17.19532,66.21289 -10.62891,-2.44727 c 0,0 -23.47215,3.12201 -35.37891,14.29883 l 4.48828,0.73828 c 0,0 17.68025,-10.98271 41.51954,-12.58984 z m -7.76954,32.85742 -9.82031,0.0898 c 0,0 -14.05372,7.12055 -17.79883,22.96289 l 3.51368,-1.62304 c 0,0 9.10546,-17.14397 24.10546,-21.42969 z m 14.73243,22.5 -6.60743,3.03515 c 0,0 -14.73102,12.32144 -12.32031,33.75 l 3.125,-3.03515 c 0,0 -0.53655,-18.48215 15.80274,-33.75 z m 15.53711,21.69726 -7.94727,8.125 c 0,0 -9.37472,21.15933 -5.89258,36.96289 l 4.73242,-6.78515 c 0,0 -1.07114,-20.08847 9.10743,-38.30274 z m 18.21289,17.67774 -4.19532,9.19726 c 0,0 -1.07115,17.94672 7.23243,33.48243 l 2.32031,-4.64454 c 0,0 -8.30385,-19.01729 -5.35742,-38.03515 z" />
        <path
           id="path1397"
           style="font-variation-settings:normal;opacity:1;vector-effect:none;fill:#ffffff;fill-opacity:1;stroke:none;stroke-width:1.05995;stroke-linecap:butt;stroke-linejoin:miter;stroke-miterlimit:4;stroke-dasharray:none;stroke-dashoffset:0;stroke-opacity:1;stop-color:#000000;stop-opacity:1"
           d="m 225.26367,138.39062 c 0,0 -20.83361,3.03097 -26.89453,31.82032 -6.06091,28.78934 11.58537,86.14584 16.88867,98.64648 l 5.89453,4.65235 c -5.3033,-12.50064 -24.84411,-72.50949 -18.7832,-101.29883 4.32042,-20.52202 16.11621,-27.92912 22.55274,-30.50586 0.17604,-2.08693 0.34179,-3.31445 0.34179,-3.31446 z m -70.45703,0.37891 c 0,0 -24.45005,11.40932 -18.02148,55.33789 6.42857,43.92857 40.22461,95.53516 40.22461,95.53516 l 6.65039,3.51562 c 0,0 -35.68862,-54.63783 -42.11719,-98.5664 -4.8921,-33.42935 7.63918,-47.12308 13.91797,-51.77149 -0.25261,-1.55373 -0.46369,-2.90713 -0.6543,-4.05078 z m 137.82813,1.64649 c -6.72975,0.0446 -21.50373,2.86802 -32.01563,24.74414 -14.01586,29.16815 -7.19726,94.14648 -7.19726,94.14648 l 3.24218,3.51563 c 0,0 -6.06078,-66.49396 7.95508,-95.66211 9.15369,-19.04956 22.15007,-22.98116 30.08984,-23.4336 0.89679,-2.12085 1.51758,-3.03125 1.51758,-3.03125 0,0 -1.34855,-0.29418 -3.59179,-0.27929 z m -189.72461,50.88086 c 0,0 -15.152914,15.53106 -9.849613,44.69921 5.303301,29.16816 36.590983,63.4653 55.910153,80.13282 l 5.13672,0.48437 c -19.31917,-16.66751 -51.74357,-51.72052 -57.046873,-80.88867 -3.877584,-21.32671 3.167063,-34.11451 7.242183,-39.4668 -0.45869,-1.63191 -0.91061,-3.27406 -1.39257,-4.96093 z m -20.330082,83.84374 c 0,0 -8.334624,16.66726 4.166016,36.36524 7.908393,12.46171 17.620836,21.18333 28.529296,28.26367 -9.63502,-8.28208 -22.264386,-20.60061 -27.179687,-31.94531 -6.197325,-14.30366 -4.066056,-24.20415 -2.529297,-28.4082 -1.221866,-1.56956 -2.154249,-2.98105 -2.986328,-4.2754 z m -4.292969,67.80665 c 0,0 0.286303,18.92578 18.025391,33.13085 1.523605,1.22007 3.028893,2.33124 4.50977,3.35743 -14.853857,-13.97889 -19.671879,-32.2168 -19.671879,-32.2168 17.626458,11.70177 34.746109,10.25726 49.947269,9.53711 l -2.27735,-3.68945 c -15.20115,0.72015 -32.906743,1.58263 -50.533201,-10.11914 z m 146.980471,6.875 c 7.20492,7.62493 24.74292,17.13248 42.80859,15.07031 -18.92086,-1.04872 -37.58732,-12.96225 -44.49023,-20.26758 z m -102.45703,47.13671 c 0,0 -30.885887,9.24928 -42.628909,21.3711 0,0 6.442977,8.9375 22.150389,15.15039 -12.881866,-5.99935 -17.015624,-13.9082 -17.015624,-13.9082 11.743023,-12.12182 39.599614,-19.09766 39.599614,-19.09766 z m 10.44922,43.08594 c 0,0 -35.528268,29.29627 -46.513676,56.94922 0,0 1.620401,0.31686 4.689453,0.37305 11.703883,-27.19177 46.203123,-56.08008 46.203123,-56.08008 z m 21.97461,32.09961 -6.36329,7.42578 c -8.54942,11.05731 -32.39704,52.34122 -35.22851,95.08008 1.1342,-0.56442 2.37079,-1.29053 3.67578,-2.13086 4.39335,-41.38427 29.18932,-85.45442 37.41406,-96.0918 z m 24.15429,31.01758 -4.03125,3.26562 -1.10547,2.68946 c -10.60227,28.78503 -23.43181,84.41904 -23.48633,117.80859 0,0 1.54821,-1.17673 4.13086,-3.59961 1.40845,-34.48242 14.45475,-92.91254 24.49219,-120.16406 z m 35.98633,15.08984 -2.99023,1.34571 -1.00977,2.90429 c 0,0 -12.88041,81.06369 3.78711,137.88477 0,0 0.92338,-1.36073 2.41211,-3.88477 -14.21411,-56.76143 -2.19922,-138.25 -2.19922,-138.25 z"
           transform="scale(0.26458333)"
           sodipodi:nodetypes="csccscccsccsccssccsccscsccscccscscccscccccccccccccccccccccccccccccccccccccc" />
        <path
           id="path1200"
           style="font-variation-settings:normal;opacity:1;vector-effect:none;fill:#808080;fill-opacity:1;stroke:none;stroke-width:1.05995;stroke-linecap:butt;stroke-linejoin:miter;stroke-miterlimit:4;stroke-dasharray:none;stroke-dashoffset:0;stroke-opacity:1;stop-color:#000000;stop-opacity:1"
           transform="scale(0.26458333)"
           d="m 286.25195,304.05664 -0.89453,-6.66406 c 0,0 -7.19072,-24.16969 -34.46484,-40.60742 l 0.88867,4.08593 c 0,0 19.69723,13.25978 34.4707,43.18555 z m -45.45703,-0.75781 -1.38867,-7.07227 c 0,0 -9.16068,-21.79255 -27.79883,-29.70898 l 1.53516,3.0664 c 0,0 18.18216,14.39568 27.65234,33.71485 z m -28.03125,14.39453 -4.04101,-8.58594 c 0,0 -16.45464,-19.23069 -31.71289,-19.46484 l 2.79687,3.80664 c 0,0 17.80475,6.4402 32.95703,24.24414 z m -24.62305,16.28906 -8.20703,-8.58789 c 0,0 -16.78696,-11.74892 -34.08593,-9.99219 l 3.65429,2.66993 c 0,0 18.56189,0.75786 38.63867,15.91015 z m -54.92773,20.83399 -4.39258,-1.75 c 0,0 6.79246,18.16489 27.24805,28.77148 l 10.62891,2.44727 c 0,0 -20.98374,-8.63436 -33.48438,-29.46875 z m -8.03516,42.05859 -4.48828,-0.73828 c 0,0 8.06083,14.39929 28.41797,21.0957 l 9.82031,-0.0898 c 0,0 -18.75,-4.99972 -33.75,-20.26758 z m 9.64454,41.69727 -3.51368,1.62304 c 0,0 15.65486,7.036 35.74414,2.48242 l 6.60743,-3.03515 c 0,0 -21.42718,3.21541 -38.83789,-1.07031 z m 23.03515,34.82031 -3.125,3.03515 c 0,0 13.12473,1.34066 26.51758,-6.96289 l 7.94727,-8.125 c 0,0 -16.6077,10.71346 -31.33985,12.05274 z m 22.23242,26.25 -4.73242,6.78515 c 0.53572,0 16.07171,-8.30217 27.85742,-18.21289 l 4.19532,-9.19726 c 0,0 -14.73103,14.19644 -27.32032,20.625 z m 32.67774,17.41015 -2.32031,4.64454 c 0,0 11.78515,-3.48356 21.16015,-15.53711 l -1.04101,-5.50391 c 0,0 -6.54883,8.89647 -17.79883,16.39648 z" />
      </g>
      <g
         id="g1153"
         transform="matrix(-1,0,0,1,176.36546,0)"
         style="stroke-width:1.05995">
        <path
           style="font-variation-settings:normal;vector-effect:none;fill:#cccccc;fill-opacity:1;stroke:none;stroke-width:0.280444;stroke-linecap:butt;stroke-linejoin:miter;stroke-miterlimit:4;stroke-dasharray:none;stroke-dashoffset:0;stroke-opacity:1;stop-color:#000000"
           d="m 35.258086,116.42848 c 0,0 -9.39976,7.75162 -12.30632,15.06813 0,0 5.81311,1.20271 16.43708,-4.6104 -2.26204,2.92558 -8.57187,13.84875 -9.32103,25.15674 4.11223,-2.04639 12.83686,-11.33029 16.03617,-17.33911 -2.80518,7.61604 -6.19959,22.33599 -6.21401,31.17031 0,0 9.42125,-6.98242 16.03617,-27.62899 0,0 -3.40769,21.44838 1.00226,36.48229 0,0 7.41673,-10.82441 8.21854,-28.26375 l -1.00912,-30.87386 c 0,0 -0.99219,-6.37835 -8.71707,-10.48884 0,0 5.17355,-5.0318 4.18136,-12.54408 2.88392,3.052045 12.02467,7.250303 18.440581,0.252424 6.698844,-7.306475 0.300678,-16.537301 4.810852,-25.457422 0,0 -3.050264,1.152108 -5.746295,5.980156 0,0 -1.202708,-11.926903 -1.002258,-22.550867 0.20045,-10.623963 2.271788,-13.555822 2.271788,-13.555822 0,0 -5.712888,-1.244228 -9.421248,6.47318 -3.70837,7.717408 -1.9043,24.909741 -1.9043,24.909741 l -1.16527,0.325099 c 0,0 -3.85063,-11.436757 -5.55152,-19.560268 -1.52189,-7.268588 -0.73335,-12.757215 -0.73335,-12.757215 0,0 -5.51243,0.801809 -7.11605,8.418991 -1.60361,7.617181 3.0655,22.792833 4.46866,26.100294 l -1.24947,0.160549 c 0,0 -5.66964,-8.457217 -9.63839,-17.386905 -3.96875,-8.929687 -4.70589,-14.787277 -5.1068,-17.192702 0,0 -6.46872,3.018595 -4.76783,14.641363 1.70089,11.622768 10.64239,25.277158 10.64239,25.277158 l -0.0354,1.913505 c 0,0 -8.15011,-8.3391 -13.11105,-15.000931 -4.96093,-6.66183 -5.45678,-9.425167 -6.45904,-12.93308 0,0 -4.00904,4.109269 -2.60588,11.826677 1.40317,7.717407 9.68146,16.791429 14.79299,21.201375 l -0.82619,-0.192164 c 0,0 -3.50988,-0.730136 -9.02231,-4.037596 -5.51244,-3.307461 -6.81538,-5.211756 -7.71741,-6.614921 0,0 -2.20497,4.409947 1.10249,9.621703 3.30746,5.211755 7.804,7.954829 12.86541,10.410368 l -1.73349,0.585659 c -4.02197,0.19054 -8.70664,0.41883 -13.37031,-2.677264 0,0 0.0759,5.007794 4.76934,8.76622 4.72847,3.786455 8.82702,3.891625 8.82702,3.891625 l -1.81623,1.63297 c 0,0 -8.17198,2.44694 -11.27899,5.65417 0,0 3.76812,5.24112 13.79072,5.54179 z"
           id="path1267"
           sodipodi:nodetypes="ccccccccccccsccscsccscsccscsccscsccscscccsccccc" />
        <path
           id="path1386"
           style="font-variation-settings:normal;vector-effect:none;fill:#ffffff;fill-opacity:1;stroke:none;stroke-width:1.05995;stroke-linecap:butt;stroke-linejoin:miter;stroke-miterlimit:4;stroke-dasharray:none;stroke-dashoffset:0;stroke-opacity:1;stop-color:#000000"
           d="m 441.31445,138.39062 c 0,0 2.98054,20.74497 -2.77148,48.2168 -6.42856,30.70304 -20.98242,73.92774 -20.98242,73.92774 l 0.92773,3.625 c 0,0 16.96402,-48.8497 23.39258,-79.55274 4.59081,-21.92583 2.78324,-39.36679 1.85937,-45.5957 -1.48701,-0.46877 -2.42578,-0.6211 -2.42578,-0.6211 z m 70.45703,0.37891 C 510.25623,147.8609 507.4707,170 492.4707,203.75 c -15,33.75 -36.42773,65.71484 -36.42773,65.71484 l 0.66015,3.625 c 0,0 24.37501,-35.98242 39.375,-69.73242 13.87106,-31.20987 17.50198,-52.11948 19.17188,-62.30078 -2.05083,-1.60527 -3.47852,-2.28711 -3.47852,-2.28711 z m -137.82812,1.64649 c -2.24325,-0.0149 -3.5918,0.27929 -3.5918,0.27929 0,0 7.82833,11.08082 8.58594,51.23438 0.75761,40.15356 -3.78906,85.23047 -3.78906,85.23047 l 1.62109,5.95507 c 0,0 6.35722,-47.9187 5.59961,-88.07226 -0.6251,-33.13052 -6.33311,-49.7528 -8.33203,-54.62305 -0.0288,-2.9e-4 -0.0652,-0.004 -0.0937,-0.004 z m 189.72461,50.88086 c -3.78807,13.25825 -5.66214,23.70228 -24.41211,48.88085 -18.75001,25.17858 -49.55274,56.69727 -49.55274,56.69727 l 0.66016,2.28516 c 0,0 34.01757,-31.78432 52.76758,-56.96289 15.62303,-20.97954 21.58605,-36.26257 23.61133,-46.83008 -1.73282,-2.67475 -3.07422,-4.07031 -3.07422,-4.07031 z m -210.23633,63.26171 c 17.04633,33.71385 -7.13682,68.60178 18.18164,96.2168 4.14916,4.52551 8.60342,7.78695 13.18555,10.06836 -2.68797,-1.92955 -5.37695,-4.29084 -8.04883,-7.20508 -24.05874,-26.24103 -6.13815,-62.60709 -19.60547,-97.04297 -2.27838,-1.4805 -3.71289,-2.03711 -3.71289,-2.03711 z m 230.56641,20.58203 c -3.40925,5.30331 -8.33355,12.49937 -29.16797,25 -20.83438,12.50064 -34.09961,15.26172 -34.09961,15.26172 l -3.12305,0.72657 1.50586,2.63086 c 0,0 17.68515,-4.36851 38.51953,-16.86915 15.84802,-9.5088 23.40181,-17.63594 27.61914,-23.32421 -0.64264,-2.17148 -1.2539,-3.42579 -1.2539,-3.42579 z m -66.39063,40.98829 c 3.63629,-3.13719 7.69648,-6.90224 11.92774,-11.13672 -4.27711,4.27168 -8.34415,8.04499 -11.92774,11.13672 z m 70.6836,26.81836 c -17.62647,11.70177 -35.33206,10.83929 -50.53321,10.11914 l -3.35742,3.625 c 13.82951,1.18428 36.07718,0.58544 53.34961,-9.29883 0.50595,-2.73822 0.54102,-4.44531 0.54102,-4.44531 z m -146.98047,6.875 c -3.75001,28.39286 15.80273,47.41015 15.80273,47.41015 -29.1964,15.53571 -32.94531,39.64258 -32.94531,39.64258 l -3.81445,116.68945 c 3.03046,65.91247 31.0625,106.82227 31.0625,106.82227 0.4665,-1.59036 0.90502,-3.20209 1.32617,-4.82813 -6.2541,-10.48495 -27.80078,-50.38714 -30.38867,-106.67382 l 3.05664,-105.67579 c 0,0 6.40145,-30.16924 36.35546,-45.32617 0,0 -21.13477,-23.00752 -17.38476,-51.40039 z m 102.45703,47.13671 -3.35742,4.42969 c 0,0 25.13615,4.01603 45.98632,16.94141 -11.74303,-12.12182 -42.6289,-21.3711 -42.6289,-21.3711 z m -32.36524,72.84375 0.24219,2.64454 c 1.24869,1.8071 3.1866,3.81263 6.0625,7.12304 40.15359,21.97081 62.125,17.42383 62.125,17.42383 -0.27073,-0.6815 -0.5695,-1.36384 -0.86914,-2.04687 -9.2026,-0.3431 -39.56948,-3.17769 -67.56055,-25.14454 z m -20.10546,31.25391 -0.0762,5.37109 1.10547,2.68946 c 12.09188,22.7105 45.06709,57.79881 60.60938,65.5332 -0.0727,-1.09701 -0.16782,-2.1925 -0.26758,-3.28711 -16.52829,-10.19181 -49.83173,-48.63385 -61.37109,-70.30664 z m -33.71485,16.03516 c 0,0 -3.60529,0.88156 -2.37891,5.41015 25.00128,78.03428 60.60938,104.42383 60.60938,104.42383 -0.002,-1.2757 -0.0279,-2.59373 -0.0664,-3.93164 -7.79791,-7.58026 -36.71297,-38.94895 -58.16406,-105.90234 z"
           transform="matrix(-0.26458333,0,0,0.26458333,176.36546,0)"
           sodipodi:nodetypes="csccscccsccsccccsccscccsccscccscscccscccscccccccccccccccccccccccccccccccccccccccccc" />
        <path
           style="color:#000000;font-style:normal;font-variant:normal;font-weight:normal;font-stretch:normal;font-size:medium;line-height:normal;font-family:sans-serif;font-variant-ligatures:normal;font-variant-position:normal;font-variant-caps:normal;font-variant-numeric:normal;font-variant-alternates:normal;font-variant-east-asian:normal;font-feature-settings:normal;font-variation-settings:normal;text-indent:0;text-align:start;text-decoration:none;text-decoration-line:none;text-decoration-style:solid;text-decoration-color:#000000;letter-spacing:normal;word-spacing:normal;text-transform:none;writing-mode:lr-tb;direction:ltr;text-orientation:mixed;dominant-baseline:auto;baseline-shift:baseline;text-anchor:start;white-space:normal;shape-padding:0;shape-margin:0;inline-size:0;clip-rule:nonzero;display:inline;overflow:visible;visibility:visible;opacity:1;isolation:auto;mix-blend-mode:normal;color-interpolation:sRGB;color-interpolation-filters:linearRGB;solid-color:#000000;solid-opacity:1;vector-effect:none;fill:#808080;fill-opacity:1;fill-rule:nonzero;stroke:none;stroke-width:0.280444;stroke-linecap:butt;stroke-linejoin:miter;stroke-miterlimit:4;stroke-dasharray:none;stroke-dashoffset:0;stroke-opacity:1;color-rendering:auto;image-rendering:auto;shape-rendering:auto;text-rendering:auto;enable-background:accumulate;stop-color:#000000;stop-opacity:1"
           d="m 63.844309,75.442523 0.671316,-1.417132 C 58.930199,59.463386 56.67061,43.08524 56.67061,43.08524 c -0.339337,2.894278 1.511021,17.706434 7.173699,32.357283 z m -8.652098,5.562071 -0.06355,-2.732123 C 48.649079,66.908788 42.29456,52.943693 40.390265,44.299548 c 0.366219,7.84061 8.273779,25.182404 14.801946,36.705046 z m 18.30472,-5.334394 1.426897,1.894532 c 0,0 -2.833182,-20.155567 -0.555664,-32.475586 C 71.055252,54.081665 73.496931,75.6702 73.496931,75.6702 Z M 47.822266,86.871094 48.294305,85.969521 C 37.714147,74.990112 33.01151,68.144526 28.263671,60.737305 c 0.491401,4.011979 8.895744,15.112655 19.558595,26.133789 z m -4.677221,5.40296 -0.497121,-1.333778 C 32.19119,86.645871 26.687238,81.042726 24.355109,78.477385 c 0.946957,3.156521 8.066089,9.345261 18.789936,13.796669 z m -4.037069,6.414283 c -6.810454,-0.73426 -11.070187,-2.346701 -13.55026,-3.474007 1.503508,1.754093 7.228654,3.674277 14.310862,4.473729 z m 1.064179,11.825613 -0.98856,-1.04911 c -4.272862,1.16612 -12.56311,1.33874 -13.621094,1.51507 0.952432,0.57146 9.574567,0.48894 14.609654,-0.46596 z m 4.530971,6.69113 -1.113002,-0.47099 c -5.462122,3.23682 -12.408756,8.92036 -15.113839,11.85086 0,0 10.864547,-8.20221 16.226841,-11.37987 z m 3.880859,6.56054 -1.186663,-0.14899 c -5.621399,6.74049 -8.563908,12.76883 -12.318219,20.70856 4.378811,-6.32766 7.776646,-14.89034 13.504882,-20.55957 z m 5.708985,4.26368 -1.521764,0.99442 c -2.219897,5.85245 -9.273158,29.1335 -9.273158,29.1335 1.384252,-2.7685 8.604942,-24.3543 10.794922,-30.12792 z m 8.462332,9.07561 -1.206473,-0.0619 c -1.20991,7.0578 -3.017578,26.72656 -3.017578,26.72656 0.475223,-1.42567 3.056108,-19.7735 4.224051,-26.66462 z"
           id="path1151"
           sodipodi:nodetypes="ccccccccccccccccccccccccccccccccccccccccccccc" />
        <path
           style="font-variation-settings:normal;vector-effect:none;fill:#ffffff;fill-opacity:1;stroke:none;stroke-width:0.280444;stroke-linecap:butt;stroke-linejoin:miter;stroke-miterlimit:4;stroke-dasharray:none;stroke-dashoffset:0;stroke-opacity:1;stop-color:#000000"
           d="m 56.294751,136.80353 -0.61391,1.22887 c 0,0 3.11815,-0.92169 5.59862,-4.11086 l -0.27544,-1.45624 c 0,0 -1.73271,2.35386 -4.70927,4.33823 z"
           id="path1357" />
        <path
           style="font-variation-settings:normal;vector-effect:none;fill:#ffffff;fill-opacity:1;stroke:none;stroke-width:0.280444;stroke-linecap:butt;stroke-linejoin:miter;stroke-miterlimit:4;stroke-dasharray:none;stroke-dashoffset:0;stroke-opacity:1;stop-color:#000000"
           d="m 47.648771,132.1971 -1.25212,1.79524 c 0.14174,0 4.2523,-2.19662 7.37061,-4.81883 l 1.11001,-2.43344 c 0,0 -3.89759,3.75614 -7.2285,5.45703 z"
           id="path1355" />
        <path
           style="font-variation-settings:normal;vector-effect:none;fill:#ffffff;fill-opacity:1;stroke:none;stroke-width:0.280444;stroke-linecap:butt;stroke-linejoin:miter;stroke-miterlimit:4;stroke-dasharray:none;stroke-dashoffset:0;stroke-opacity:1;stop-color:#000000"
           d="m 41.766441,125.25179 -0.82683,0.80305 c 0,0 3.47259,0.35471 7.01611,-1.84227 l 2.10272,-2.14974 c 0,0 -4.39412,2.8346 -8.292,3.18896 z"
           id="path1353" />
        <path
           style="font-variation-settings:normal;vector-effect:none;fill:#808080;fill-opacity:1;stroke:none;stroke-width:0.280444;stroke-linecap:butt;stroke-linejoin:miter;stroke-miterlimit:4;stroke-dasharray:none;stroke-dashoffset:0;stroke-opacity:1;stop-color:#000000"
           d="m 33.119941,105.00651 -1.18753,-0.19534 c 0,0 2.13276,3.80981 7.51892,5.58157 l 2.59829,-0.0238 c 0,0 -4.96093,-1.32284 -8.92968,-5.36246 z"
           id="path1349" />
        <path
           style="font-variation-settings:normal;vector-effect:none;fill:#808080;fill-opacity:1;stroke:none;stroke-width:0.280444;stroke-linecap:butt;stroke-linejoin:miter;stroke-miterlimit:4;stroke-dasharray:none;stroke-dashoffset:0;stroke-opacity:1;stop-color:#000000"
           d="m 35.245911,93.878508 -1.16221,-0.463021 c 0,0 1.79717,4.806128 7.20938,7.612453 l 2.81223,0.64751 c 0,0 -5.55194,-2.284509 -8.8594,-7.796942 z"
           id="path1347" />
        <path
           style="font-variation-settings:normal;vector-effect:none;fill:#ffffff;fill-opacity:1;stroke:none;stroke-width:0.280444;stroke-linecap:butt;stroke-linejoin:miter;stroke-miterlimit:4;stroke-dasharray:none;stroke-dashoffset:0;stroke-opacity:1;stop-color:#000000"
           d="m 49.778871,88.366182 -2.17145,-2.272213 c 0,0 -4.44155,-3.108568 -9.01856,-2.643767 l 0.96686,0.706419 c 0,0 4.91117,0.200517 10.22315,4.209561 z"
           id="path1345" />
        <path
           style="font-variation-settings:normal;vector-effect:none;fill:#ffffff;fill-opacity:1;stroke:none;stroke-width:0.280444;stroke-linecap:butt;stroke-linejoin:miter;stroke-miterlimit:4;stroke-dasharray:none;stroke-dashoffset:0;stroke-opacity:1;stop-color:#000000"
           d="m 56.293721,84.056368 -1.06919,-2.271696 c 0,0 -4.35362,-5.08812 -8.3907,-5.150073 l 0.74001,1.007174 c 0,0 4.71084,1.703969 8.71988,6.414595 z"
           id="path1343" />
        <path
           style="font-variation-settings:normal;vector-effect:none;fill:#ffffff;fill-opacity:1;stroke:none;stroke-width:0.280444;stroke-linecap:butt;stroke-linejoin:miter;stroke-miterlimit:4;stroke-dasharray:none;stroke-dashoffset:0;stroke-opacity:1;stop-color:#000000"
           d="m 63.710321,80.247815 -0.36742,-1.871204 c 0,0 -2.42376,-5.765946 -7.35511,-7.860501 l 0.40618,0.811318 c 0,0 4.8107,3.808857 7.31635,8.920387 z"
           id="path1341" />
        <path
           style="font-variation-settings:normal;vector-effect:none;fill:#ffffff;fill-opacity:1;stroke:none;stroke-width:0.280444;stroke-linecap:butt;stroke-linejoin:miter;stroke-miterlimit:4;stroke-dasharray:none;stroke-dashoffset:0;stroke-opacity:1;stop-color:#000000"
           d="m 75.737491,80.448319 -0.23668,-1.763199 c 0,0 -1.90254,-6.394897 -9.11882,-10.744046 l 0.23513,1.081069 c 0,0 5.21156,3.508316 9.12037,11.426176 z"
           id="path1241" />
        <path
           id="path1239"
           style="font-variation-settings:normal;vector-effect:none;fill:#808080;fill-opacity:1;stroke:none;stroke-width:1.05995;stroke-linecap:butt;stroke-linejoin:miter;stroke-miterlimit:4;stroke-dasharray:none;stroke-dashoffset:0;stroke-opacity:1;stop-color:#000000"
           d="m 459.16797,479.01758 c 2.94644,19.01786 -5.35742,38.03515 -5.35742,38.03515 l 2.32031,4.64454 c 8.30358,-15.53571 7.23242,-33.48243 7.23242,-33.48243 z"
           transform="matrix(-0.26458333,0,0,0.26458333,176.36546,0)" />
        <path
           id="path1336"
           style="font-variation-settings:normal;vector-effect:none;fill:#808080;fill-opacity:1;stroke:none;stroke-width:1.05995;stroke-linecap:butt;stroke-linejoin:miter;stroke-miterlimit:4;stroke-dasharray:none;stroke-dashoffset:0;stroke-opacity:1;stop-color:#000000"
           d="m 477.38086,461.33984 c 10.17857,18.21427 9.10742,38.30274 9.10742,38.30274 l 4.73242,6.78515 c 3.48216,-15.80356 -5.89258,-36.96289 -5.89258,-36.96289 z"
           transform="matrix(-0.26458333,0,0,0.26458333,176.36546,0)" />
        <path
           id="path1334"
           style="font-variation-settings:normal;vector-effect:none;fill:#808080;fill-opacity:1;stroke:none;stroke-width:1.05995;stroke-linecap:butt;stroke-linejoin:miter;stroke-miterlimit:4;stroke-dasharray:none;stroke-dashoffset:0;stroke-opacity:1;stop-color:#000000"
           d="m 511.8457,476.42773 -3.125,-3.03515 c 0,0 0.53654,-18.48215 -15.80273,-33.75 0,0 21.4272,3.2154 38.8379,-1.07032 l 3.51368,1.62305 c 0,0 -15.65488,7.036 -35.74415,2.48242 0,0 14.731,12.32144 12.3203,33.75 z"
           transform="matrix(-0.26458333,0,0,0.26458333,176.36546,0)"
           sodipodi:nodetypes="ccccccc" />
        <path
           id="path1332"
           style="font-variation-settings:normal;vector-effect:none;fill:#ffffff;fill-opacity:1;stroke:none;stroke-width:1.05995;stroke-linecap:butt;stroke-linejoin:miter;stroke-miterlimit:4;stroke-dasharray:none;stroke-dashoffset:0;stroke-opacity:1;stop-color:#000000"
           d="m 507.65039,417.14258 c 15,4.28572 24.10547,21.42969 24.10547,21.42969 l 3.51367,1.62304 C 531.52444,424.35297 517.4707,417.23242 517.4707,417.23242 Z"
           transform="matrix(-0.26458333,0,0,0.26458333,176.36546,0)" />
        <path
           id="path1330"
           style="font-variation-settings:normal;vector-effect:none;fill:#ffffff;fill-opacity:1;stroke:none;stroke-width:1.05995;stroke-linecap:butt;stroke-linejoin:miter;stroke-miterlimit:4;stroke-dasharray:none;stroke-dashoffset:0;stroke-opacity:1;stop-color:#000000"
           d="m 510.50977,381.83789 -10.62891,2.44727 c 23.83926,1.60713 41.51953,12.58984 41.51953,12.58984 l 4.48828,-0.73828 c -11.90676,-11.17682 -35.3789,-14.29883 -35.3789,-14.29883 z"
           transform="matrix(-0.26458333,0,0,0.26458333,176.36546,0)" />
        <path
           id="path1328"
           style="font-variation-settings:normal;vector-effect:none;fill:#ffffff;fill-opacity:1;stroke:none;stroke-width:1.05995;stroke-linecap:butt;stroke-linejoin:miter;stroke-miterlimit:4;stroke-dasharray:none;stroke-dashoffset:0;stroke-opacity:1;stop-color:#000000"
           d="m 505.20703,346.98828 -9.72265,5.55469 c 24.24366,-4.16688 37.88085,2.27344 37.88085,2.27344 l 4.39258,-1.75 c -15.17132,-10.32946 -32.55078,-6.07813 -32.55078,-6.07813 z"
           transform="matrix(-0.26458333,0,0,0.26458333,176.36546,0)" />
        <path
           id="path1326"
           style="font-variation-settings:normal;vector-effect:none;fill:#808080;fill-opacity:1;stroke:none;stroke-width:1.05995;stroke-linecap:butt;stroke-linejoin:miter;stroke-miterlimit:4;stroke-dasharray:none;stroke-dashoffset:0;stroke-opacity:1;stop-color:#000000"
           d="m 454.9707,266.51758 -1.53515,3.0664 c 7.57614,19.69798 0.3789,48.10938 0.3789,48.10938 l 4.04102,-8.58594 c 7.6221,-24.5194 -2.88477,-42.58984 -2.88477,-42.58984 z m 34.59766,23.125 -2.79688,3.80664 c 4.54572,21.59201 -8.33398,40.5332 -8.33398,40.5332 l 8.20703,-8.58789 c 9.98684,-18.79922 2.92383,-35.75195 2.92383,-35.75195 z m 31.16211,25.75976 -3.6543,2.66993 c -4.16689,20.83439 -21.59179,34.4707 -21.59179,34.4707 l 9.72265,-5.55469 c 13.63707,-12.50063 15.52344,-31.58594 15.52344,-31.58594 z"
           transform="matrix(-0.26458333,0,0,0.26458333,176.36546,0)" />
        <path
           id="path1324"
           style="font-variation-settings:normal;vector-effect:none;fill:#808080;fill-opacity:1;stroke:none;stroke-width:1.05995;stroke-linecap:butt;stroke-linejoin:miter;stroke-miterlimit:4;stroke-dasharray:none;stroke-dashoffset:0;stroke-opacity:1;stop-color:#000000"
           d="m 353.43164,254.55859 c 17.91941,10.17924 24.00118,37.425 26.89453,49.49805 l 0.89453,-6.66406 c -7.50002,-41.25001 -27.78906,-42.83399 -27.78906,-42.83399 z m 62.25391,2.22657 -0.88867,4.08593 c 9.09138,14.77349 10.98632,42.42774 10.98632,42.42774 l 1.38868,-7.07227 c 0.11096,-26.68918 -11.48633,-39.4414 -11.48633,-39.4414 z"
           transform="matrix(-0.26458333,0,0,0.26458333,176.36546,0)" />
        <path
           id="path1359"
           style="fill:#808080;fill-opacity:1;stroke:none;stroke-width:1.05995;stroke-miterlimit:4;stroke-dasharray:none;paint-order:fill markers stroke"
           d="m 425.63086,431.66016 c -1.12738,3.19217 -1.46289,5.21484 -1.46289,5.21484 l -3.81445,116.68945 c 0.20702,4.50279 0.53941,8.87627 0.96289,13.14063 7.94404,-14.57359 13.73428,-29.67913 17.54492,-44.44531 9.68135,-37.51529 2.91453,-69.06647 -13.23047,-90.59961 z"
           transform="matrix(-0.26458333,0,0,0.26458333,176.36546,0)" />
      </g>
      <path
         id="path890"
         style="opacity:1;fill:#bf9f4f;fill-opacity:1;stroke:none;stroke-width:0.280444;stroke-miterlimit:4;stroke-dasharray:none;paint-order:fill markers stroke"
         d="m 92.44155,126.64377 c 1.379967,0.97237 2.947149,1.62616 4.667032,1.62616 3.667758,0 6.641068,-2.97331 6.641078,-6.64107 -1e-5,-3.66776 -3.13194,-6.64107 -6.240174,-6.64107 -3.108232,0 -4.821911,1.57306 -5.835053,4.08078 -0.818641,-1.10212 -2.555361,-5.27396 0.491059,-9.15913 2.999695,-3.82559 10.349248,-4.2298 16.530178,1.06515 6.38998,5.47398 9.57904,14.46897 6.46508,26.53558 -3.20724,12.42803 -11.62623,26.05878 -26.978018,32.87415 -15.351788,-6.81537 -23.770778,-20.44612 -26.978018,-32.87415 -3.11396,-12.06661 0.0751,-21.0616 6.46508,-26.53558 6.18093,-5.29495 13.530483,-4.89074 16.530178,-1.06515 3.04642,3.88517 1.3097,8.05701 0.491059,9.15913 -1.013142,-2.50772 -2.726821,-4.08078 -5.835053,-4.08078 -3.108234,0 -6.240164,2.97331 -6.240174,6.64107 1e-5,3.66776 2.97332,6.64107 6.641078,6.64107 1.719883,0 3.287065,-0.65379 4.667032,-1.62616 -1.229497,4.51708 -0.641096,9.74033 4.258818,12.73495 4.899914,-2.99462 5.488315,-8.21787 4.258818,-12.73495 z"
         sodipodi:nodetypes="csssczsscsszcsssccc" />
      <path
         id="path890-7"
         style="fill:#ffffff;stroke:none;stroke-width:0.280444;stroke-miterlimit:4;stroke-dasharray:none;paint-order:fill markers stroke"
         d="m 77.682597,107.01982 c -3.115852,-0.0624 -6.729209,1.14186 -10.012825,3.9548 -6.389981,5.47398 -9.5792,14.46872 -6.46524,26.53533 3.20724,12.42803 11.626411,26.05911 26.978197,32.87448 0.178726,-0.0794 0.351804,-0.16428 0.528651,-0.24546 -15.018858,-6.88953 -23.52413,-20.2415 -26.693979,-32.52463 -3.113958,-12.06661 -0.208444,-20.63657 6.181537,-26.11055 6.083263,-5.21129 13.613794,-4.2207 16.710091,-0.54106 -0.200808,-0.35175 -0.434909,-0.70361 -0.709001,-1.05316 -1.406107,-1.79325 -3.768154,-2.83464 -6.517431,-2.88975 z m 21.000267,0 c -2.74928,0.0551 -5.111324,1.0965 -6.517431,2.88975 -3.04642,3.88517 -1.309568,8.05701 -0.490926,9.15913 0.211651,-0.52388 0.455713,-1.00426 0.734838,-1.44074 -0.810586,-1.70088 -1.34085,-4.3127 0.914672,-7.18922 2.856574,-3.64307 9.715223,-3.19435 15.548923,0.69298 -0.0594,-0.052 -0.11727,-0.10572 -0.17725,-0.1571 -3.28362,-2.81294 -6.89698,-4.01725 -10.012826,-3.9548 z m -18.675347,7.84448 c -0.377984,0.008 -0.76282,0.0483 -1.15135,0.12351 3.108232,0 4.821645,1.57317 5.834787,4.08089 0.179936,-0.24224 0.403228,-0.63987 0.611331,-1.14308 -1.106403,-2.0044 -3.080851,-3.10527 -5.294768,-3.06132 z m 17.501775,0.12351 c 3.108238,0 6.240438,2.97318 6.240448,6.64094 -1e-5,3.66776 -2.97318,6.64094 -6.64094,6.64094 -0.992995,0 -1.933369,-0.22292 -2.817916,-0.59428 1.179142,0.68577 2.476069,1.12345 3.876249,1.12345 3.667767,0 6.412517,-2.97318 6.412527,-6.64094 -1e-5,-3.66776 -2.02979,-7.17011 -7.070368,-7.17011 z M 83.924075,126.6439 c -1.379966,0.97237 -2.947532,1.62574 -4.667416,1.62574 -1.26079,0 -2.439091,-0.35107 -3.4432,-0.96118 1.201941,0.93132 2.755953,1.49034 4.501533,1.49034 1.278906,0 2.331067,-0.30453 3.306776,-0.79995 0.08349,-0.45625 0.181091,-0.90962 0.302307,-1.35495 z m 8.517311,0 c 1.229495,4.51708 0.641257,9.74 -4.258657,12.73462 0.19408,0.13608 0.848659,0.40103 1.058334,0.52917 4.847097,-2.96235 5.472019,-8.10424 4.294827,-12.58735 -0.376518,-0.20128 -0.741862,-0.42796 -1.094504,-0.67644 z"
         sodipodi:nodetypes="ccsccsccscssccsccsccccccsscssccscsccccccc" />
      <path
         style="color:#000000;font-style:normal;font-variant:normal;font-weight:normal;font-stretch:normal;font-size:medium;line-height:normal;font-family:sans-serif;font-variant-ligatures:normal;font-variant-position:normal;font-variant-caps:normal;font-variant-numeric:normal;font-variant-alternates:normal;font-variant-east-asian:normal;font-feature-settings:normal;font-variation-settings:normal;text-indent:0;text-align:start;text-decoration:none;text-decoration-line:none;text-decoration-style:solid;text-decoration-color:#000000;letter-spacing:normal;word-spacing:normal;text-transform:none;writing-mode:lr-tb;direction:ltr;text-orientation:mixed;dominant-baseline:auto;baseline-shift:baseline;text-anchor:start;white-space:normal;shape-padding:0;shape-margin:0;inline-size:0;clip-rule:nonzero;display:inline;overflow:visible;visibility:visible;opacity:1;isolation:auto;mix-blend-mode:normal;color-interpolation:sRGB;color-interpolation-filters:linearRGB;solid-color:#000000;solid-opacity:1;vector-effect:none;fill:#808080;fill-opacity:1;fill-rule:nonzero;stroke:none;stroke-width:1.05995;stroke-linecap:butt;stroke-linejoin:miter;stroke-miterlimit:4;stroke-dasharray:none;stroke-dashoffset:0;stroke-opacity:1;color-rendering:auto;image-rendering:auto;shape-rendering:auto;text-rendering:auto;enable-background:accumulate;stop-color:#000000;stop-opacity:1"
         d="m 104.24414,94.789062 c 7.03877,2.312738 13.35449,-4.585937 13.35449,-4.585937 0,0 -6.64273,5.955819 -13.10644,3.832031 -6.533479,-2.146715 -6.938479,-8.341797 -6.938479,-8.341797 0,0 -0.278579,6.805885 6.690429,9.095703 z"
         id="path1389"
         sodipodi:nodetypes="scscs" />
      <path
         style="color:#000000;font-style:normal;font-variant:normal;font-weight:normal;font-stretch:normal;font-size:medium;line-height:normal;font-family:sans-serif;font-variant-ligatures:normal;font-variant-position:normal;font-variant-caps:normal;font-variant-numeric:normal;font-variant-alternates:normal;font-variant-east-asian:normal;font-feature-settings:normal;font-variation-settings:normal;text-indent:0;text-align:start;text-decoration:none;text-decoration-line:none;text-decoration-style:solid;text-decoration-color:#000000;letter-spacing:normal;word-spacing:normal;text-transform:none;writing-mode:lr-tb;direction:ltr;text-orientation:mixed;dominant-baseline:auto;baseline-shift:baseline;text-anchor:start;white-space:normal;shape-padding:0;shape-margin:0;inline-size:0;clip-rule:nonzero;display:inline;overflow:visible;visibility:visible;opacity:1;isolation:auto;mix-blend-mode:normal;color-interpolation:sRGB;color-interpolation-filters:linearRGB;solid-color:#000000;solid-opacity:1;vector-effect:none;fill:#808080;fill-opacity:1;fill-rule:nonzero;stroke:none;stroke-width:1.05995;stroke-linecap:butt;stroke-linejoin:miter;stroke-miterlimit:4;stroke-dasharray:none;stroke-dashoffset:0;stroke-opacity:1;color-rendering:auto;image-rendering:auto;shape-rendering:auto;text-rendering:auto;enable-background:accumulate;stop-color:#000000;stop-opacity:1"
         d="m 79.455078,82.496094 c 0.13883,3.18721 0.104424,5.743352 -1.722656,8.21875 -3.667463,4.968822 -9.744141,4.204101 -9.744141,4.204101 0,0 6.434058,1.616529 10.382813,-3.733398 1.981032,-2.683978 2.01688,-5.512211 1.876953,-8.724609 -0.139927,-3.212399 -0.447106,-6.854707 0.355468,-11.495118 -1.607025,4.572757 -1.287267,8.343063 -1.148437,11.530274 z M 53.008371,105.45703 c 0,0 7.429762,3.81704 9.594168,10.15625 -1.427945,-6.64852 -7.732626,-9.97119 -8.375977,-10.30273 6.400753,-7.834006 3.131836,-15.777347 3.131836,-15.777347 0,0 2.123393,7.968762 -4.350027,15.923827 z"
         id="path1400"
         sodipodi:nodetypes="sscsscsccccc" />
    </g>
  </g>
</svg>
