<?xml version="1.0" encoding="UTF-8" standalone="no"?>
<svg
   xmlns:dc="http://purl.org/dc/elements/1.1/"
   xmlns:cc="http://creativecommons.org/ns#"
   xmlns:rdf="http://www.w3.org/1999/02/22-rdf-syntax-ns#"
   xmlns:svg="http://www.w3.org/2000/svg"
   xmlns="http://www.w3.org/2000/svg"
   xmlns:sodipodi="http://sodipodi.sourceforge.net/DTD/sodipodi-0.dtd"
   xmlns:inkscape="http://www.inkscape.org/namespaces/inkscape"
   width="500"
   height="545"
   viewBox="0 0 132.29166 144.19792"
   version="1.1"
   id="svg847"
   sodipodi:docname="svg.svg"
   inkscape:version="1.0.2 (e86c870879, 2021-01-15, custom)">
  <defs
     id="defs841" />
  <sodipodi:namedview
     id="base"
     pagecolor="#ffffff"
     bordercolor="#666666"
     borderopacity="1.0"
     inkscape:pageopacity="0.0"
     inkscape:pageshadow="2"
     inkscape:zoom="0.9899495"
     inkscape:cx="436.99064"
     inkscape:cy="203.66152"
     inkscape:document-units="px"
     inkscape:current-layer="layer1"
     inkscape:document-rotation="0"
     showgrid="false"
     inkscape:snap-smooth-nodes="true"
     inkscape:showpageshadow="false"
     borderlayer="true"
     units="px"
     inkscape:window-width="1920"
     inkscape:window-height="1017"
     inkscape:window-x="-8"
     inkscape:window-y="-4"
     inkscape:window-maximized="1" />
  <metadata
     id="metadata844">
    <rdf:RDF>
      <cc:Work
         rdf:about="">
        <dc:format>image/svg+xml</dc:format>
        <dc:type
           rdf:resource="http://purl.org/dc/dcmitype/StillImage" />
        <dc:title />
      </cc:Work>
    </rdf:RDF>
  </metadata>
  <g
     inkscape:label="Layer 1"
     inkscape:groupmode="layer"
     id="layer1"
     style="opacity:1"
     transform="translate(-23.519718,-58.732477)">
    <g
       id="g1610"
       transform="matrix(0.92691664,0,0,0.92691664,1.7189001,4.2923669)"
       style="stroke-width:1.07885">
      <path
         style="font-variation-settings:normal;opacity:1;vector-effect:none;fill:#00824a;fill-opacity:1;stroke:none;stroke-width:0.285444;stroke-linecap:butt;stroke-linejoin:miter;stroke-miterlimit:4;stroke-dasharray:none;stroke-dashoffset:0;stroke-opacity:1;stop-color:#000000;stop-opacity:1"
         d="m 23.519718,58.732477 c 0,0 1.69959,66.268193 2.19266,92.099043 0.49308,25.83084 24.27052,63.46825 69.168485,63.46825 44.897967,0 68.675407,-37.63741 69.168487,-63.46825 0.49308,-25.83085 2.19266,-92.099043 2.19266,-92.099043 z"
         id="path859"
         sodipodi:nodetypes="czzzcc" />
      <path
         id="path861"
         style="font-variation-settings:normal;opacity:1;vector-effect:none;fill:#c0a062;fill-opacity:1;stroke:none;stroke-width:0.539424;stroke-linecap:butt;stroke-linejoin:miter;stroke-miterlimit:4;stroke-dasharray:none;stroke-dashoffset:0;stroke-opacity:1;stop-color:#000000;stop-opacity:1"
         d="m 377.11914,267.29492 c -86.99031,0 -140.84375,32.64258 -140.84375,32.64258 l -0.0312,-16.58789 c 0,0 -5.38077,-2.05469 -14.10352,-2.05469 -8.72274,0 -14.10351,2.05469 -14.10351,2.05469 l -0.0312,16.60547 h -8.75 l -0.041,-16.60547 c 0,0 -5.79791,-2.05469 -18.66211,-2.05469 -12.86419,0 -18.66015,2.05469 -18.66015,2.05469 l -0.041,16.60547 h -20.11133 v 32.8125 h 20.03125 l -0.8789,360.89258 h 39.32226 l -0.8789,-360.89258 h 8.60937 l -0.66406,360.89258 H 237 l -0.0293,-16.08594 243.28711,-0.67969 -0.0488,16.76563 h 29.72071 l -0.75586,-258.31055 c 0,0 -5.38274,-2.05469 -14.10547,-2.05469 -8.72273,0 -14.10352,2.05469 -14.10352,2.05469 l -0.0781,26.55469 H 341.33594 l -104.98828,-122.56641 -0.0117,-6.62109 c 0,0 54.0568,-32.60938 140.7832,-32.60938 86.59586,0 140.75586,32.5918 140.75586,32.5918 l -0.87891,360.96094 h 39.32032 L 555.4375,332.76758 h 20.03125 v -32.8125 h -20.11133 l -0.041,-16.60547 c 0,0 -5.79597,-2.05469 -18.66016,-2.05469 -12.86419,0 -18.66016,2.05469 -18.66016,2.05469 l -0.041,16.58203 c 0,0 -53.88915,-32.63672 -140.83594,-32.63672 z m -140.70508,107.96094 72.06446,86.64844 h -71.90625 z m 244.38867,115.63867 -0.0976,33.00977 h -86.25977 l -28.0039,-32.69141 z m -147.87109,0.41211 27.11133,32.59766 H 236.6875 l -0.0606,-32.33008 z m 147.68945,61.58789 -0.0976,33.00977 h -32.96875 l -28.13086,-32.83985 z m -96.24414,0.26758 27.23047,32.74219 H 236.80078 l -0.0586,-32.33008 z m 96.0625,61.73242 -0.0273,9.36914 -8.00586,-9.3457 z m -44.61718,0.125 27.34961,32.88477 H 236.91602 l -0.0606,-32.33008 z"
         transform="scale(0.26458333)"
         sodipodi:nodetypes="cccsccccsccccccccccccccccscccccsccccccccsccscccccccccccccccccccccccccccccccccc" />
      <path
         id="path928"
         style="font-variation-settings:normal;opacity:1;vector-effect:none;fill:#ffffff;fill-opacity:1;stroke:none;stroke-width:0.539424;stroke-linecap:butt;stroke-linejoin:miter;stroke-miterlimit:4;stroke-dasharray:none;stroke-dashoffset:0;stroke-opacity:1;stop-color:#000000;stop-opacity:1"
         d="m 377.11914,267.29492 c -86.99031,0 -140.84375,32.64258 -140.84375,32.64258 l -0.0312,-16.58789 c 0,0 -5.38077,-2.05469 -14.10352,-2.05469 -8.72273,0 -14.10351,2.05469 -14.10351,2.05469 l -0.0312,16.60547 h -8.75 l -0.041,-16.60547 c 0,0 -5.79791,-2.05469 -18.66211,-2.05469 -12.86419,0 -18.66015,2.05469 -18.66015,2.05469 l -0.041,16.60547 h -20.11133 v 32.8125 h 4 v -28.8125 h 20.11133 l 0.041,-16.60547 c 0,0 4.79597,-2.05469 16.66015,-2.05469 11.86421,0 16.66211,2.05469 16.66211,2.05469 v 16.60547 h 12.79102 l 0.0312,-16.60547 c 0,0 4.38078,-2.05469 12.10351,-2.05469 7.72276,0 12.10352,2.05469 12.10352,2.05469 v 16.58789 c 0,0 57.8847,-32.64258 144.875,-32.64258 86.94682,0 140.83594,34.63672 140.83594,34.63672 l 0.041,-18.58203 c 0,0 5.79597,-2.05469 18.66016,-2.05469 6.84639,0 11.63383,0.58051 14.66797,1.125 l -0.008,-3.07031 c 0,0 -5.79597,-2.05469 -18.66016,-2.05469 -12.86419,0 -18.66016,2.05469 -18.66016,2.05469 l -0.041,16.58203 c 0,0 -53.88915,-32.63672 -140.83594,-32.63672 z m 178.23828,32.66016 0.01,4 h 20.10157 v -4 z m -37.4824,32.74414 -0.87893,360.96094 h 4.00977 l 0.87307,-358.75391 c -0.0986,-0.0596 -1.5509,-0.91158 -4.00391,-2.20703 z m -356.1034,0.0684 -0.87904,360.89262 h 4.00976 l 0.87904,-360.89262 z m 46.17578,0 -0.66615,360.89262 h 4.00781 l 0.66615,-360.89262 z m 28.46666,36.86914 v 5.61914 l 72.06446,86.64848 h -71.89843 v 4 h 79.89843 z m 258.6543,63.65824 c -8.72273,0 -14.10352,2.05469 -14.10352,2.05469 l -0.0781,26.55469 -139.5508,-8e-5 3.42578,4 140.125,8e-5 0.0781,-27.62612 c 0,0 5.38079,-0.98326 14.10352,-0.98326 4.24794,0 7.68554,0.48831 10.11328,0.98828 l -0.008,-2.93359 c 0,0 -5.38274,-2.05469 -14.10547,-2.05469 z m -10.25391,57.58789 -4.01171,0.0117 -0.0977,33.00977 h -86.25972 l 3.42578,4 h 86.83394 z m -147.2207,0.41211 -4.66211,0.0117 27.11133,32.59766 H 236.68751 l 0.008,4 h 131.34765 z m 147.03906,61.58789 -4.01171,0.0117 -0.0977,33.00977 h -32.39453 l 3.42578,4 h 32.96875 z m -95.59375,0.26758 -4.66211,0.0117 27.23047,32.74219 H 236.80079 l 0.008,4 h 182.79882 z m 95.41211,61.73242 -4.01172,0.0117 -0.0273,9.36908 3.99805,4.66797 z m -43.95702,0.13477 -4.67188,0.002 27.34961,32.88477 H 236.91602 l 0.008,4 h 234.24804 z m 43.77538,61.86523 -4.01172,0.0117 -0.0488,16.76563 h 4.01172 z"
         transform="scale(0.26458333)"
         sodipodi:nodetypes="cccsccccsccccccccsccccsccsccsccsccscccccccccccccccccccccscccccsccccccsccsccccccccccccccccccccccccccccccccccccccccccccccc" />
    </g>
  </g>
</svg>
