<?xml version="1.0" encoding="UTF-8" standalone="no"?>
<svg
   xmlns:dc="http://purl.org/dc/elements/1.1/"
   xmlns:cc="http://creativecommons.org/ns#"
   xmlns:rdf="http://www.w3.org/1999/02/22-rdf-syntax-ns#"
   xmlns:svg="http://www.w3.org/2000/svg"
   xmlns="http://www.w3.org/2000/svg"
   width="500"
   height="563"
   viewBox="0 0 132.29166 148.96042"
   version="1.1"
   id="svg847">
  <defs
     id="defs841" />
  <metadata
     id="metadata844">
    <rdf:RDF>
      <cc:Work
         rdf:about="">
        <dc:format>image/svg+xml</dc:format>
        <dc:type
           rdf:resource="http://purl.org/dc/dcmitype/StillImage" />
        <dc:title></dc:title>
      </cc:Work>
    </rdf:RDF>
  </metadata>
  <path
     id="path844"
     style="font-variation-settings:normal;vector-effect:none;fill:#bf9f4f;fill-opacity:1;stroke:none;stroke-width:1.00973;stroke-linecap:butt;stroke-linejoin:miter;stroke-miterlimit:5;stroke-dasharray:none;stroke-dashoffset:0;stroke-opacity:1;stop-color:#000000"
     d="M 18.929688,318.9668 C 26.748319,385.01864 74.297697,452.07546 116.55273,488.49023 160.92917,526.7332 210.59678,549.61499 250,563 c 22.85937,-7.76517 49.1747,-18.73627 75.90625,-34.03906 l 87.72852,-70.96485 C 448.03913,418.00577 478.91748,362.67283 481.94336,309.03125 485.84561,239.85297 500,0 500,0 H 0 c 0,0 4.1607951,70.56258 8.5996094,146.26953 z"
     transform="scale(0.26458333)" />
  <path
     id="path1091"
     style="color:#000000;font-style:normal;font-variant:normal;font-weight:normal;font-stretch:normal;font-size:medium;line-height:normal;font-family:sans-serif;font-variant-ligatures:normal;font-variant-position:normal;font-variant-caps:normal;font-variant-numeric:normal;font-variant-alternates:normal;font-variant-east-asian:normal;font-feature-settings:normal;font-variation-settings:normal;text-indent:0;text-align:start;text-decoration:none;text-decoration-line:none;text-decoration-style:solid;text-decoration-color:#000000;letter-spacing:normal;word-spacing:normal;text-transform:none;writing-mode:lr-tb;direction:ltr;text-orientation:mixed;dominant-baseline:auto;baseline-shift:baseline;text-anchor:start;white-space:normal;shape-padding:0;shape-margin:0;inline-size:0;clip-rule:nonzero;display:inline;overflow:visible;visibility:visible;isolation:auto;mix-blend-mode:normal;color-interpolation:sRGB;color-interpolation-filters:linearRGB;solid-color:#000000;solid-opacity:1;vector-effect:none;fill:#780404;fill-opacity:1;fill-rule:nonzero;stroke:none;stroke-width:1.00973;stroke-linecap:butt;stroke-linejoin:miter;stroke-miterlimit:5;stroke-dasharray:none;stroke-dashoffset:0;stroke-opacity:1;paint-order:markers stroke fill;color-rendering:auto;image-rendering:auto;shape-rendering:auto;text-rendering:auto;enable-background:accumulate;stop-color:#000000"
     d="m 11.696933,14.528349 v 0.02974 c -1.194334,-0.113985 -1.84258,0.389432 -2.449694,0.790383 l -0.104374,0.06887 0.01566,0.124686 c 0,0 0.336198,2.856925 2.824404,4.116782 0.160917,0.08148 0.369428,0.132164 0.548493,0.199293 l 0.38097,0.07668 -0.113769,-0.271286 c 0,0 -0.851793,-1.329661 -0.851704,-3.727588 0.07793,0.0035 0.187401,0.01063 0.260938,0.01774 0.0093,0.259061 0.06557,1.330958 0.660698,2.135862 l 0.15604,0.210769 0.163348,-0.205029 c 0,0 0.256271,-0.394396 0.46395,-0.700131 0.02128,0.0932 0.01115,0.09107 0.04488,0.203466 0.112289,0.374173 0.296024,0.829633 0.623643,1.157143 l 0.167524,0.16747 0.138296,-0.193033 c 0,0 0.223281,-0.43611 0.396107,-0.796643 0.104238,0.261378 0.205387,0.641029 0.639298,0.981849 l 0.124209,0.09652 0.122119,-0.09652 c 0,0 0.283316,-0.283327 0.534923,-0.559789 0.08848,0.154565 0.175004,0.336675 0.382537,0.544137 l 0.149779,0.14973 0.141951,-0.15964 c 0,0 0.382189,-0.491986 0.672701,-1.068454 0.387284,0.03224 0.802558,0.04932 1.274425,0.03548 l 0.777075,-0.02191 -0.692533,-0.356847 C 16.841795,16.291786 14.545848,14.981766 11.927606,14.56383 Z" />
  <path
     id="path989"
     style="font-variation-settings:normal;vector-effect:none;fill:#ea0606;fill-opacity:1;stroke:none;stroke-width:0.133579;stroke-linecap:butt;stroke-linejoin:miter;stroke-miterlimit:5;stroke-dasharray:none;stroke-dashoffset:0;stroke-opacity:1;stop-color:#000000"
     d="m 9.357222,15.514954 c 0,0 0.410966,3.093341 3.245067,4.155776 0,0 -1.321928,-2.081493 -0.917057,-4.914659 -1.140969,-0.111885 -1.70834,0.34964 -2.32801,0.758883 z m 2.539592,-0.752523 v 0.965901 c 0.173549,0.0044 0.3369,0.01752 0.491934,0.03808 0,0 0.03292,1.380976 0.641287,2.20378 0,0 0.536788,-0.679708 0.715717,-1.073224 0,0 0.143144,1.144773 0.715718,1.717159 0,0 0.42943,-0.608161 0.536788,-1.073224 0,0 0.286287,0.822804 0.78729,1.216319 0,0 0.322074,-0.250418 0.679932,-0.715481 0,0 0.250502,0.465063 0.501003,0.715481 0,0 0.435318,-0.491023 0.718661,-1.139864 0.40794,0.03888 0.861752,0.05431 1.372119,0.03934 -2.31208,-1.188889 -4.588819,-2.483765 -7.160449,-2.894261 z" />
  <g
     id="use909"
     transform="matrix(1.247394,0.96443319,-0.96566812,1.2481689,-198.46295,-306.2025)">
    <path
       id="path1839"
       style="font-variation-settings:normal;opacity:1;vector-effect:none;fill:#012d65;fill-opacity:1;stroke:none;stroke-width:0.778702;stroke-linecap:butt;stroke-linejoin:miter;stroke-miterlimit:5;stroke-dasharray:none;stroke-dashoffset:0;stroke-opacity:1;stop-color:#000000;stop-opacity:1"
       d="m 107.16602,486.11719 c 0.13946,1.65366 0.29435,3.30739 0.49023,4.96289 20.87223,8.133 45.15873,6.05813 63.90234,20.55469 23.196,17.94008 23.95635,50.48374 47.15235,68.42382 23.19604,17.94012 54.88399,10.49149 78.08008,28.43164 23.19599,17.94009 23.95621,50.48559 47.15234,68.42579 19.88761,15.38134 46.01486,12.11222 67.68359,22.16992 1.41966,-0.81297 2.84218,-1.66214 4.26367,-2.50196 l -1.42968,-96.17382 -17.64453,-25.5586 c -7.39108,-11.70829 -11.97805,-25.24093 -19.36914,-36.94922 -10.32853,-11.39193 -17.89166,-20.36522 -54.02344,-26.58984 -36.13178,-6.22462 -44.94586,-20.94151 -51.83985,-33.31641 -7.39108,-11.70829 -11.97805,-25.24096 -19.36914,-36.94921 -10.32853,-11.39193 -17.89165,-20.36523 -54.02343,-26.58985 -36.13178,-6.22462 -44.94586,-20.94151 -51.83985,-33.31641 -7.39108,-11.70825 -11.97805,-25.24092 -19.36914,-36.94921 0,0 -9.24982,-12.69486 -24.2146,-16.81191 z"
       transform="matrix(0.13403329,-0.10356463,0.1036631,0.13390597,188.31338,62.33601)" />
    <path
       id="path1808"
       style="font-variation-settings:normal;vector-effect:none;fill:#ffffff;fill-opacity:1;stroke:none;stroke-width:0.500001;stroke-linecap:butt;stroke-linejoin:miter;stroke-miterlimit:5;stroke-dasharray:none;stroke-dashoffset:0;stroke-opacity:1;stop-color:#000000"
       d="m 97.429688,320.01953 c 0.07656,1.30629 0.150073,2.58022 0.224609,3.85938 l 13.263673,7.51953 c 0,0 10.66041,7.46 16.06445,12.79101 -3.69557,-5.85416 -8.09162,-11.25132 -13.89062,-15.73633 -4.89434,-3.78532 -10.17105,-6.43175 -15.662112,-8.43359 z m 48.921872,61.12109 c 2.87613,11.83919 10.06569,20.68264 17.64453,25.5586 20.77845,13.57208 72.1543,21.55664 72.1543,21.55664 0,0 10.66041,7.46001 16.06445,12.79102 -3.69557,-5.85416 -8.09162,-11.25132 -13.89062,-15.73633 -23.19604,-17.94013 -54.88604,-10.49351 -78.08203,-28.4336 -5.799,-4.48502 -10.1951,-9.88221 -13.89063,-15.73633 z m 125.23242,96.85547 c 2.87613,11.83919 10.0657,20.68264 17.64454,25.5586 20.77845,13.57208 72.15625,21.55664 72.15625,21.55664 0,0 10.65846,7.46 16.0625,12.79101 -3.69557,-5.85416 -8.09163,-11.25131 -13.89063,-15.73632 -23.19604,-17.94013 -54.88604,-10.49351 -78.08203,-28.4336 -5.799,-4.48502 -10.1951,-9.88221 -13.89063,-15.73633 z m 125.23243,96.85743 c 2.87613,11.83919 10.06569,20.68068 17.64453,25.55664 18.75284,12.24899 81.71679,31.04492 81.71679,31.04492 0.77549,-0.88223 1.55356,-1.75392 2.32618,-2.65235 -2.77648,-3.56041 -5.94606,-6.86447 -9.71485,-9.77929 -23.19604,-17.94013 -54.88604,-10.49351 -78.08203,-28.4336 -5.799,-4.48502 -10.19509,-9.8822 -13.89062,-15.73632 z"
       transform="matrix(0.13403329,-0.10356463,0.1036631,0.13390597,188.31338,62.33601)" />
    <path
       id="path1731"
       style="font-variation-settings:normal;opacity:1;vector-effect:none;fill:#005fcc;fill-opacity:1;stroke:none;stroke-width:0.778702;stroke-linecap:butt;stroke-linejoin:miter;stroke-miterlimit:5;stroke-dasharray:none;stroke-dashoffset:0;stroke-opacity:1;stop-color:#000000;stop-opacity:1"
       d="m 97.654297,323.87891 c 3.629863,61.9435 7.409193,126.68962 9.138673,157.35937 0.092,1.63102 0.21808,3.2647 0.36133,4.89844 20.91766,8.22601 45.30129,6.09723 64.10547,20.64062 23.19599,17.94009 23.9544,50.48375 47.15039,68.42383 23.19604,17.94012 54.88594,10.49149 78.08203,28.43164 23.19599,17.94009 23.95426,50.48364 47.15039,68.42383 21.30769,16.47964 49.77355,11.5607 72.24804,24.55274 17.76026,-10.46814 35.6334,-22.88593 52.71485,-37.61133 9.10101,-7.84571 18.44565,-17.14594 27.58398,-27.54102 -2.79621,-3.25432 -6.58959,-7.18145 -9.57226,-9.48828 -23.19604,-17.94012 -54.88603,-10.49351 -78.08203,-28.43359 -23.19613,-17.9402 -23.95439,-50.48375 -47.15039,-68.42383 -23.19608,-17.94016 -54.886,-10.49153 -78.08204,-28.43164 -23.196,-17.94008 -23.95635,-50.48375 -47.15234,-68.42383 -23.19604,-17.94012 -54.88409,-10.49351 -78.08008,-28.43359 -23.19604,-17.94012 -23.95634,-50.48375 -47.15234,-68.42383 -3.21584,-2.48718 -9.15589,-5.60156 -13.263673,-7.51953 z"
       transform="matrix(0.13403329,-0.10356463,0.1036631,0.13390597,188.31338,62.33601)" />
  </g>
  <path
     style="font-variation-settings:normal;vector-effect:none;fill:#780404;fill-opacity:1;stroke:none;stroke-width:0.133579;stroke-linecap:butt;stroke-linejoin:miter;stroke-miterlimit:5;stroke-dasharray:none;stroke-dashoffset:0;stroke-opacity:1;stop-color:#000000"
     d="m 24.226677,30.280828 0.0433,0.479254 c 0,0 2.401657,1.681946 2.466052,3.952396 0,0 0.359611,-0.04835 0.562046,-0.680763 0.202436,-0.632403 -1.714526,-3.580876 -3.071402,-3.750887 z M 20.76953,34.66412 c 0.03374,0.01685 0.185567,0.396305 0.185567,0.396305 0,0 2.859402,0.07588 4.14993,1.922505 0,0 0.421741,-0.06746 0.421741,-0.775748 0,-0.708291 -3.567929,-2.099576 -4.757238,-1.543062 z m 0.126523,5.362776 0.21087,0.143345 c 0,0 2.201487,-0.809476 4.074016,-0.32885 0,0 0.168697,-0.522786 -0.43861,-0.775748 -0.607306,-0.252961 -3.036533,0.151778 -3.846276,0.961253 z m 5.853763,2.521179 c -0.480784,0.303555 -2.226792,-0.151776 -3.036535,0.531219 -0.809739,0.682995 -0.835046,1.543064 -0.835046,1.543064 -0.202436,-0.126481 -0.48922,-0.446898 -0.48922,-0.446898 0,0 -0.101218,-0.556516 0.50609,-1.315399 0.607306,-0.758884 3.112447,-1.113029 3.669145,-0.809476 0.556698,0.303554 0.185566,0.49749 0.185566,0.49749 z m 6.857506,2.377836 c 0,0 0.582003,1.391288 -0.202435,2.554909 -0.784438,1.16362 -1.948443,1.16362 -1.948443,1.16362 l -0.362697,-0.404737 c 0,0 1.189309,-0.37101 1.59418,-1.15519 0.404872,-0.78418 0.354263,-2.175465 0.354263,-2.175465 z m -0.429826,9.474255 c 0,0 0.2505,-0.53661 1.145148,-1.180542 0.894648,-0.643934 2.612371,-0.804917 2.612371,-0.804917 l -0.644146,-0.518726 c 0,0 -2.606407,-0.125216 -3.530876,2.325315 z m 2.588513,3.00502 0.304281,0.076 c 0,0 0.05061,-0.78419 0.506088,-1.72014 0.45548,-0.93597 1.923138,-1.36599 1.923138,-1.36599 l -0.328957,-0.37945 -0.556698,-0.12648 c 0,0 -2.152132,1.18864 -1.847852,3.51602 z m 4.616381,2.43265 0.242701,0.0212 c 0,0 -0.45548,-1.03714 -0.227741,-2.32725 0.227741,-1.29009 0.978439,-1.9731 0.978439,-1.9731 0,0 -0.09278,-0.32884 -0.143392,-0.32884 -0.05061,0 -0.582002,0 -0.607306,0.0506 -0.02531,0.0506 -1.446972,2.46188 -0.242701,4.55738 z m 4.544814,-0.28619 0.455123,-0.072 c 0,0 -0.910959,-0.6324 -0.632611,-2.27666 0.278349,-1.64424 -0.151827,-1.9478 -0.151827,-1.9478 l -0.733829,0.35415 c 0,0 -0.176417,2.44601 1.063144,3.94234 z m 6.596529,-2.63536 0.328038,0.20272 c 0,0 1.43398,-0.68336 1.332762,-2.83353 -0.101217,-2.15017 -1.265222,-3.162015 -1.796616,-3.339088 -0.531394,-0.177072 -0.708524,0.78418 -0.708524,0.78418 0,0 2.700858,2.993388 0.84434,5.185718 z m -6.320377,5.54174 0.03254,0.34184 c 0,0 1.420956,0.26957 2.244031,1.16392 0.823076,0.89435 1.538794,1.71716 2.039796,1.50251 0.501003,-0.21464 -0.04667,-1.63099 -0.04667,-1.63099 0,0 -1.679383,-1.48785 -4.269695,-1.37728 z m -1.361659,3.2587 0.106712,0.29772 c 1.143265,0.0572 1.917164,0.1105 2.827728,0.42968 0.961114,0.3369 1.896653,1.60983 2.361869,1.60983 0.465218,0 0.608361,-1.18054 0.608361,-1.18054 0,0 -3.399654,-1.741 -5.90467,-1.15669 z m 0.14314,2.4684 0.128321,0.28331 c 0,0 1.498745,0.069 2.448264,0.51565 0.949519,0.44668 1.789295,1.32363 2.361869,1.18054 0.572575,-0.14309 0.322073,-0.89434 0.322073,-0.89434 0,0 -2.397656,-1.81257 -5.260527,-1.08516 z m 1.073576,4.1498 0.210375,0.16549 c 0.345847,-0.63384 0.896974,-0.9211 1.741229,-0.78703 0.854825,0.13577 1.660975,0.7137 1.984846,0.0254 0.312504,-0.66423 -3.471233,-1.741 -3.93645,0.59624 z m 8.360162,4.61595 c -1.433752,1.02686 -3.729991,1.54595 -5.151359,-0.21573 -0.07665,1.48409 1.223452,2.20702 2.648157,2.33724 1.424704,0.13021 2.755514,-0.39351 3.113373,-1.7887 z m 33.378125,27.437664 0.54872,0.32196 c 0,0 0.89465,-1.35941 2.18294,-1.46673 1.28829,-0.10732 2.11137,0.60816 2.86287,0.17887 0.7515,-0.42929 -0.7515,-1.03745 -2.32608,-1.00168 -1.57459,0.0358 -2.81517,0.75126 -3.26845,1.96758 z m 3.73366,5.3661 c 0,0 0.2505,-1.86024 0.89465,-2.57573 0.64415,-0.71548 1.96823,-0.82281 2.46923,-1.50251 0.501,-0.67971 -1.86086,-1.00168 -2.75552,0.25042 -0.89465,1.25209 -1.1728,2.7584 -0.90847,3.74028 z m 2.87957,1.93618 0.46416,0.15177 c 0,0 0.0506,-2.93435 2.68227,-3.94619 l -0.65791,-0.50593 c 0,0 -2.64902,0.55653 -2.48852,4.30035 z m 5.01896,1.97309 0.40488,0.0506 c 0,0 -1.12806,-1.77023 -0.65792,-3.18732 0.48205,-1.45302 0.96157,-1.61894 0.96157,-2.27664 0,-0.6577 -1.67009,0.86007 -1.82192,2.68139 -0.15183,1.82132 0.40486,2.27665 1.11339,2.73198 z m 3.81254,-4.46898 0.23618,0.67457 c 0,0 1.46766,0.91065 3.34019,-0.15178 1.87252,-1.06244 1.41704,-3.74383 1.41704,-3.74383 l -0.65792,0.30355 c 0,0 -0.0887,3.83142 -4.33549,2.91749 z"
     id="path1883" />
  <path
     style="font-variation-settings:normal;vector-effect:none;fill:#780404;fill-opacity:1;stroke:none;stroke-width:0.133579;stroke-linecap:butt;stroke-linejoin:miter;stroke-miterlimit:5;stroke-dasharray:none;stroke-dashoffset:0;stroke-opacity:1;stop-color:#000000"
     d="m 13.009498,24.486676 c -0.525193,-0.518433 -0.917183,-0.898916 -1.077418,-1.506213 0,0 -3.281881,0.168952 -6.025752,-1.39286 -2.336771,-1.330091 -2.803938,-3.704186 -2.1019,-5.299108 0.09758,-0.221675 0.287417,-0.437881 0.508774,-0.486821 0.530611,2.435475 3.567938,5.514339 7.941471,4.195719 l 1.095382,4.288645 z"
     id="path1079" />
  <path
     style="font-variation-settings:normal;vector-effect:none;fill:#ea0606;fill-opacity:1;stroke:none;stroke-width:0.133579;stroke-linecap:butt;stroke-linejoin:miter;stroke-miterlimit:5;stroke-dasharray:none;stroke-dashoffset:0;stroke-opacity:1;stop-color:#000000"
     d="m 12.075746,19.699276 0.117914,0.0025 0.03163,-0.05059 0.171043,0.05139 0.205951,-0.03188 0.19634,-0.0072 c 2.861966,-0.167075 6.11138,-0.44207 8.438306,1.669445 -2.160712,2.122257 -4.282291,4.325763 -8.151522,2.900723 -0.525194,-0.518432 -0.826447,-1.12838 -0.986682,-1.735676 0,0 -3.338927,0.270049 -6.104209,-1.303951 -2.765281,-1.573999 -2.491062,-4.380568 -1.681319,-5.392414 0.530611,2.435475 3.389011,5.216251 7.762544,3.897632 z"
     id="path1010" />
  <path
     id="path1006"
     style="font-variation-settings:normal;vector-effect:none;fill:#ffffff;fill-opacity:1;stroke:none;stroke-width:0.133579;stroke-linecap:butt;stroke-linejoin:miter;stroke-miterlimit:5;stroke-dasharray:none;stroke-dashoffset:0;stroke-opacity:1;stop-color:#000000"
     d="m 10.715805,14.810071 -0.715496,0.35789 c 0,1.967576 1.717501,3.398392 1.717501,3.398392 0,0 -1.359865,-1.645611 -1.002005,-3.756282 z m -6.402396,0.991763 c 0,0 0.136887,1.424171 1.497268,2.826602 1.360378,1.402428 3.163659,2.000399 6.165463,1.509295 l 0.09968,-0.438232 C 9.434142,20.170717 7.910861,19.792159 6.385788,18.616437 4.957137,17.515051 4.313412,15.801834 4.313412,15.801834 Z m 11.494356,3.601856 c -1.040629,-0.0091 -2.131169,0.08975 -3.205374,0.267114 l 0.04436,0.405889 c 2.454849,-0.33849 6.411249,-0.599291 8.327604,1.411213 l 0.262504,-0.154947 C 20.143824,19.964478 18.097152,19.423595 15.807765,19.40369 Z m -3.552945,0.593702 c 0,0 -0.53701,2.718683 1.467,4.149649 l 0.608509,-0.03548 C 13.435965,23.372359 12.590017,22.471634 12.25482,19.997392 Z" />
  <path
     style="color:#000000;font-style:normal;font-variant:normal;font-weight:normal;font-stretch:normal;font-size:medium;line-height:normal;font-family:sans-serif;font-variant-ligatures:normal;font-variant-position:normal;font-variant-caps:normal;font-variant-numeric:normal;font-variant-alternates:normal;font-variant-east-asian:normal;font-feature-settings:normal;font-variation-settings:normal;text-indent:0;text-align:start;text-decoration:none;text-decoration-line:none;text-decoration-style:solid;text-decoration-color:#000000;letter-spacing:normal;word-spacing:normal;text-transform:none;writing-mode:lr-tb;direction:ltr;text-orientation:mixed;dominant-baseline:auto;baseline-shift:baseline;text-anchor:start;white-space:normal;shape-padding:0;shape-margin:0;inline-size:0;clip-rule:nonzero;display:inline;overflow:visible;visibility:visible;isolation:auto;mix-blend-mode:normal;color-interpolation:sRGB;color-interpolation-filters:linearRGB;solid-color:#000000;solid-opacity:1;vector-effect:none;fill:#780404;fill-opacity:1;fill-rule:nonzero;stroke:none;stroke-width:1.00972;stroke-linecap:butt;stroke-linejoin:miter;stroke-miterlimit:5;stroke-dasharray:none;stroke-dashoffset:0;stroke-opacity:1;color-rendering:auto;image-rendering:auto;shape-rendering:auto;text-rendering:auto;enable-background:accumulate;stop-color:#000000"
     d="m 12.388748,15.766413 -0.02564,0.19718 c 0.915552,0.121425 1.532242,0.508359 2.280153,0.909001 0.747912,0.400641 1.625291,0.810798 3.022161,0.943917 l 0.01972,-0.199152 C 16.31872,17.487143 15.478758,17.093947 14.737937,16.697104 13.997116,16.30026 13.347765,15.893602 12.388748,15.766413 Z M 11.982944,19.6589 c -0.344803,0.801519 -0.356805,1.950453 -0.115471,2.86511 l 0.231257,-0.02596 c -0.234712,-0.889563 -0.214699,-2.076488 0.09493,-2.79624 z m 4.102699,4.284725 0.06707,-0.189292 c -0.920875,-0.331407 -1.568347,-0.94208 -2.104605,-1.583358 0.01322,-0.179327 0.03901,-0.277058 0.06312,-0.354923 0.413473,0.301298 0.796343,0.64228 1.157829,1.003647 0.0039,-0.436032 0.0042,-0.870113 0.102562,-1.295475 0.460563,0.425635 0.742995,0.771196 1.098655,1.216602 -0.02221,-0.529319 0.06307,-1.051173 0.238667,-1.549836 0.357429,0.394259 0.652248,0.838867 0.873797,1.321108 0.174018,-0.631993 0.303023,-1.191514 0.654853,-1.678005 0.472301,0.695554 0.945479,1.312546 0.945479,1.312546 l 0.243235,-0.167266 c -0.488573,-0.570888 -0.825651,-0.926068 -1.180824,-1.478514 -0.370558,0.430315 -0.559125,0.904999 -0.698584,1.391467 -0.309678,-0.528819 -0.518019,-0.765608 -0.934605,-1.101613 -0.155228,0.505998 -0.280747,0.899354 -0.32512,1.336259 -0.380642,-0.427314 -0.64453,-0.680527 -1.049681,-0.985282 -0.0924,0.425991 -0.144451,0.804264 -0.159769,1.175869 -0.374137,-0.342691 -0.683496,-0.594005 -1.086821,-0.832772 -0.06439,0.15571 -0.0793,0.330306 -0.106513,0.483091 -0.870803,-1.128664 -1.282094,-2.297148 -1.282094,-2.297148 l -0.231257,-0.0061 c 0,0 0.485198,1.361675 1.470942,2.571373 0.56325,0.689289 1.250696,1.35023 2.243663,1.70758 z"
     id="path1002" />
  <path
     style="font-variation-settings:normal;vector-effect:none;fill:#000000;fill-opacity:1;stroke:none;stroke-width:0.133579;stroke-linecap:butt;stroke-linejoin:miter;stroke-miterlimit:5;stroke-dasharray:none;stroke-dashoffset:0;stroke-opacity:1;stop-color:#000000"
     d="m 42.775969,36.207181 c 0,0 -2.985925,0.556515 -6.376722,1.214215 -3.390796,0.657699 -4.251148,0.252961 -5.56698,-0.45533 -1.315831,-0.708291 -1.734364,-1.108814 -1.591221,-2.146264 0.143144,-1.037449 -0.486179,-1.635132 -1.058753,-1.70668 0,0 -0.611259,-0.05818 -1.446262,1.599358 0,0 -0.738433,0.447686 -1.538221,2.000624 -0.06707,0.345957 -0.309809,0.342358 -0.354262,0.78418 0,0 -0.126524,1.290103 0.101217,2.048986 0,0 -0.07591,0.387873 0.227742,0.758883 l 1.062785,2.124874 c 0.96157,0.405872 1.754967,-0.12099 2.365037,0.755291 0.648787,0.931897 1.506546,1.462336 2.468114,1.259966 l 2.100269,0.632404 c 1.831244,0.320065 2.371622,0.57543 4.512628,1.855049 -0.101219,-0.809475 -0.455481,-1.467176 -0.455481,-1.467176 1.670094,0.354146 2.985925,1.214214 2.985925,1.214214 -0.101218,-0.809476 -0.556697,-1.113029 -0.556697,-1.113029 1.522327,0.117935 2.617964,0.942095 3.846276,1.770728 0.303654,-1.011844 -0.202435,-1.871913 -0.202435,-1.871913 1.164004,-0.05058 2.226789,0.758881 2.226789,0.758881 -0.809742,2.074283 -3.19896,3.847058 -5.167185,4.061703 -1.968224,0.214644 -1.825081,-0.572387 -3.006015,-0.572387 -1.180937,0 -1.324079,0.787031 -1.324079,0.787031 0,0 -0.194323,0.504624 -0.118411,0.959954 0.07591,0.455329 0.317811,0.750514 0.531394,0.885363 0.213584,0.134851 0.545392,0.230008 0.702872,0.709465 0.15748,0.479454 0.511742,0.757715 1.01783,1.187745 0.506089,0.43003 0.586088,0.93 1.361406,1.05122 0.775317,0.12121 1.295562,0.28947 1.85226,0.26417 0.556699,-0.0253 0.59909,0.32946 1.261114,0.37976 0.662025,0.0503 1.016287,-0.22798 2.129683,-0.22798 1.113395,0 1.902194,-0.60676 2.295838,-1.28647 1.29005,-0.859751 2.071545,-0.68099 2.815158,-1.47866 0,0 1.131678,-1.014536 1.503007,-1.681384 0.530824,-0.953274 0.90389,-1.570624 1.806057,-1.6385 0.902167,-0.06788 0.861739,-1.097727 1.569746,-2.201255 0.425834,0.202369 0.572575,0.321966 1.14515,0.465063 0,0 0.393645,-1.252094 0.715717,-2.575737 0,0 0.608361,0.286193 1.037792,0.357742 0,0 0.322072,-1.03745 0.286287,-1.609836 0,0 0.644146,0.250419 1.180934,0.393515 0,0 0.250502,-0.930127 0.250502,-1.574059 0,0 0.536788,0.10732 1.03779,0.17887 0,0 0.286288,-0.894354 0.501003,-3.005027 0,0 1.703092,0.790056 6.055458,0.08176 4.352366,-0.708291 6.605959,-1.120032 9.413259,-0.70829 2.807296,0.41174 4.371246,1.21072 5.566976,2.377835 0.58093,3.872605 1.5944,4.050032 1.82192,9.056011 0,0 -6.37672,-4.148564 -9.413255,-5.160409 0,0 -0.253044,0.404737 -0.455481,0.809476 0,0 -4.352365,-0.657699 -6.579156,-0.505922 0,0 0.607306,1.113029 1.771311,1.720135 0,0 -3.643841,0.455331 -6.376722,1.416583 0,0 1.36644,1.264806 2.884707,1.770729 0,0 -4.909063,1.416583 -6.730983,3.44028 0,0 1.518267,0.86007 2.530444,1.46718 0,0 -3.492014,1.21421 -4.656019,2.93434 0.811886,0.21309 1.577097,0.48512 2.277401,0.86008 0,0 -3.643841,2.5802 -4.757237,4.24974 0,0 1.36644,0.20236 2.682272,0.0506 0,0 -0.657915,1.56837 -0.151827,3.99679 0.506089,2.42843 2.78349,4.09797 4.200539,5.21101 0,0 -2.429227,-0.55652 -4.504192,-1.56837 -2.074966,-1.01184 -3.23897,-1.9731 -3.795668,-3.28848 -0.556698,-1.3154 -1.252049,-3.8375 -2.447945,-4.60015 -1.195896,-0.76264 -1.180717,1.00286 -0.96611,1.38983 0.214607,0.38697 0.107249,0.39889 -1.09e-4,0.66124 -0.107358,0.26233 -0.481196,0.99611 -0.457418,1.36016 0.02799,0.42854 0.03396,0.83194 0.206772,1.46576 0.188737,0.69225 -0.314156,0.89146 -0.500853,1.61006 -0.186698,0.7186 -0.428589,1.25892 0.39531,1.93281 0.8239,0.67388 0.327571,1.62675 1.632563,2.12159 1.304992,0.49483 -0.07157,1.96758 1.681938,2.39686 0,0 0.751493,0.66779 2.290287,1.2044 1.538793,0.53662 2.254512,0.60816 2.254512,0.60816 -0.615278,0.64704 -1.121344,0.93599 -1.57458,1.68138 0,0 0.858861,0.71548 2.862871,0.39352 0,0 -0.42943,0.50085 -0.608359,1.07323 1.392633,0.32757 3.131567,0.47775 4.759525,4e-5 0,0 -0.393646,1.00163 -1.037792,2.03908 0,0 2.469227,0.50083 4.544809,-0.1431 0,0 -0.679932,1.71716 -0.501002,3.00502 0,0 3.22073,-0.83472 6.226746,-2.33724 3.006015,-1.5025 2.958301,-2.7546 2.636228,-4.36444 -0.322074,-1.60983 -0.597134,-3.2011 -0.647742,-4.26353 0,0 0.615989,0.23815 1.307148,0.41956 1.243152,-1.5386 0.548972,-3.0869 1.52695,-4.77049 0,0 0.354267,1.01184 0.506087,2.5802 1.65361,-0.99185 2.87109,-2.77897 3.79927,-5.97707 0,0 -0.086,3.2586 0.20025,4.97576 l 0.64414,-0.0716 c 0,0 -0.21471,4.36444 1.57459,6.36779 0,0 1.07357,-1.50248 1.35986,-2.7188 0,0 0.35786,4.72218 1.93244,7.01173 0,0 0.93043,-1.57406 1.35986,-3.29123 0,0 0.7873,5.29457 4.22274,7.94186 0,0 0.28628,-1.07323 0.21471,-1.86025 0,0 1.7893,2.50419 3.36388,3.64896 0,0 0.35786,-0.71549 0.42943,-1.78871 0,0 1.29422,0.90549 2.40762,2.01851 1.1134,1.11304 1.36643,1.9731 1.31583,4.19916 -0.0506,2.22607 -0.10122,3.74383 -1.31583,5.31219 -1.21461,1.568364 -2.07496,1.770734 -3.23897,1.113024 -1.164,-0.657694 -2.17618,-0.809474 -2.63166,0.20238 0,0 -0.4851,1.84597 -0.4733,2.35874 0.0118,0.51276 0.44122,1.19247 0.65594,1.51443 0.21471,0.32198 0.36054,0.85224 0.73495,1.07006 0.3744,0.21781 0.94699,0.36092 1.19748,0.75442 0.2505,0.39352 0.70594,0.90921 1.49812,1.22376 0.79218,0.31453 1.11426,0.20721 1.36476,0.42186 0.25049,0.21465 0.50929,0.35926 1.3819,0.44793 0.87261,0.0887 1.78818,-1.34912 2.69914,-1.55149 0.91096,-0.20237 1.51826,-0.40473 2.2774,-1.01184 0.75913,-0.60711 1.55024,-0.17415 2.1586,-0.0669 0.60836,0.10732 1.68194,0.57239 2.43344,1.82449 0,0 0.82308,-1.07321 0.85886,-3.7205 0,0 1.04391,0.56313 1.65122,0.81608 0,-1.28602 -0.30221,-1.73271 -0.70854,-3.23791 -0.40632,-1.50518 0.10124,-2.479004 0.10124,-2.479004 0,0 0.96157,0.45533 2.22678,0.5565 0,-1.09427 -0.171,-2.0595 -1.11339,-3.54145 -1.04105,-1.63709 -0.65792,-3.18731 -0.65792,-3.18731 0,0 1.01218,0.60711 2.07496,0.75889 0,0 0.15183,-2.12488 -0.50609,-4.55331 -0.65792,-2.42842 -0.75913,-3.79442 -2.53044,-4.40152 -1.77132,-0.60711 -2.88471,-0.70829 -3.74506,-2.27666 -0.86036,-1.56835 -1.92314,-1.9225 -1.92314,-3.54146 0,0 1.21461,0.65771 2.8847,1.56837 0,0 0.15183,-1.21421 -0.45547,-3.2885 0,0 0.80974,0.35415 1.6701,0.6577 0,0 -0.10123,-3.03554 -0.70854,-5.9193 0,0 1.21462,0.7083 2.2268,1.06244 0,0 0.25304,-2.12487 -0.80974,-4.5533 -1.06279,-2.42843 -1.06279,-4.30034 -1.06279,-4.30034 0,0 2.42923,3.74384 5.82002,5.46396 l 0.50609,-0.80947 c 0,0 1.61949,0.96125 3.18837,1.31539 l 0.25304,-1.51776 c 0,0 1.01217,0.25296 1.97375,0.10119 l 0.0506,-0.91067 c 0,0 1.77132,0 3.23898,-1.26479 l -0.80974,-1.31541 c 0,0 1.31584,-1.06244 2.12558,-2.83316 l -0.80974,-0.50592 c 0,0 2.07496,-1.82132 3.34018,-4.55331 l -0.91096,-0.45532 c 0,0 1.01217,-1.77074 1.31583,-3.440285 l -0.6073,-0.708292 c 0,0 1.11339,-1.871913 0.80973,-4.553302 l -1.01217,0.809476 c 0,0 0.96157,-4.452118 0.10122,-6.071069 0,0 -0.40487,0.151776 -0.80975,0.354146 0,0 1.01218,-3.187312 0.20244,-6.576991 0,0 -0.5567,0.25296 -1.26522,0.91066 0,0 0.40487,-4.350933 -1.61949,-6.880545 0,0 -0.75913,0.860068 -0.65791,2.580204 0,0 -1.06279,-5.008632 -3.54262,-7.538243 0,0 -0.50609,0.910659 -0.70853,1.871912 0,0 -1.21238,-3.805974 -2.21439,-5.809324 0,0 -1.35987,1.287868 -1.71772,3.076573 0,0 -0.71573,-3.219669 -0.85887,-6.153147 0,0 -0.93042,0.143096 -1.43143,1.788705 0,0 -0.40961,-3.135966 0.14317,-4.543313 0.44906,-1.143284 1.48845,-0.935025 2.21873,-0.679708 0,0 0.28628,-0.286193 0.14314,-0.930127 0,0 2.57656,2.00335 4.72371,2.432641 l 0.21472,-0.787031 c 0,0 1.71772,0.643934 2.57658,0.787031 l 0.14315,-0.500838 c 0,0 2.14714,0.500838 3.65016,0 0,0 0,-1.359416 -2.07559,-3.720509 l 0.57257,-0.858578 c 0,0 -1.28829,-1.64561 -2.86287,-2.00335 0,0 0.64415,-0.620086 0.71573,-1.192471 0,0 -1.00201,-0.85858 -2.93445,-1.287869 0,0 1.002,-0.286193 1.43144,-1.001674 0,0 -2.21873,-1.574062 -4.93846,-2.003352 0,0 0.79685,-0.442605 1.15111,-1.049712 0,0 -2.2268,-0.556515 -3.9981,-0.05059 0,0 0.0506,-0.607109 -0.10122,-1.163625 0,0 -1.63636,-0.151777 -3.66071,0.657699 l -0.25305,-0.961252 c 0,0 -2.47983,0.05059 -4.60541,0.860069 l -0.30365,-0.910661 c 0,0 -2.12558,0.101184 -3.9981,1.618951 0,0 0.0506,-0.758883 -0.0506,-1.315398 0,0 -1.6195,0.860068 -2.7329,2.47902 0,0 -0.10121,-0.860068 -0.45547,-1.416583 0,0 -1.41705,1.264806 -2.47984,3.996787 0,0 -0.30365,-0.70829 -1.01217,-1.517767 0,0 -1.1134,2.782574 -1.1134,4.75567 0,0 -0.65792,-0.758883 -1.6701,-0.961251 0,0 0.20244,3.187311 1.16401,5.008631 0,0 -0.75914,-0.45533 -1.7207,-0.45533 0,0 1.164,3.59205 3.84627,5.8687 0,0 -0.80974,0 -1.41705,0.404738 0,0 2.22679,2.782574 3.74506,3.895602 l -0.65791,0.607108 c 0,0 1.26521,1.770728 2.8847,2.580204 0,0 -0.75914,0.607106 -1.164,1.416583 3.12622,1.628658 5.7965,4.112184 8.04681,6.576992 0,0 -0.70852,0.101187 -1.36644,0.556513 0,0 1.41706,1.821321 2.8341,2.681389 l -1.21461,0.151777 c 0,0 1.11339,1.973097 3.64384,3.38968 0,0 -0.40487,0.151777 -1.06279,0.303554 0,0 1.92314,2.327242 4.45359,3.84501 0,0 -0.60732,0.151777 -0.91097,0.455331 0,0 1.94359,1.659297 2.8847,3.187311 0.93702,1.521362 1.51511,3.702356 1.16402,5.41339 -0.36456,1.77667 -2.32801,3.1873 -4.14993,2.93434 -1.82192,-0.25297 -4.75724,-3.69323 -6.37672,-7.740624 C 103.21988,46.359294 102.2085,41.795691 99.98978,36.715766 97.77105,31.635841 95.55232,27.629141 90.75702,23.407794 85.9617,19.186448 77.37309,13.82033 72.076778,13.891879 c 0,0 0.727151,-0.636776 0.828368,-1.294475 0,0 -2.834098,0.05059 -6.073068,0.505923 0,0 0.759133,-0.860069 1.062786,-1.669545 0,0 -2.176182,-0.05059 -4.959672,0.252961 0,0 0.151824,-0.607107 0.101218,-1.36599 0,0 -2.378619,-0.202372 -3.69445,0.202368 0,0 0.151826,-0.556513 0.202435,-1.315397 0,0 -2.985925,0.708291 -5.668197,1.720135 0,0 0.202436,-0.404738 0.354263,-1.113028 0,0 -2.581054,1.214214 -6.174287,1.517767 -3.593232,0.303553 -7.490117,-1.467175 -7.490117,-1.467175 0,0 0.607307,-1.770729 -1.113396,-3.895603 -1.720702,-2.124874 -4.504192,-0.556515 -4.504192,-0.556515 0,0 -4.099321,-0.556515 -8.502297,-0.101185 -4.402974,0.455332 -3.947493,-0.05059 -5.769415,0.505924 -1.82192,0.556514 -3.896886,3.440272 -6.781593,4.30034 -2.884707,0.860068 -5.162107,1.214214 -6.073068,1.770728 -0.910961,0.556515 -0.506089,1.416583 0.202435,1.973099 0,0 -0.506088,1.315397 0.657917,1.720135 1.164004,0.404738 1.265221,-0.809476 3.390796,-0.556515 2.125574,0.252962 3.998103,1.821322 6.984029,2.630797 2.985925,0.809476 5.162108,2.023689 5.465761,3.086128 0.303653,1.062436 -0.646246,0.972404 -2.429226,0.556513 -1.816485,-0.423706 -3.795669,1.062437 -4.858456,1.922505 -1.062787,0.860069 -3.441406,0.657699 -4.14993,1.011845 -0.708525,0.354146 -0.961569,1.062438 0.151827,1.720136 1.113396,0.6577 3.18836,0.809477 4.706627,0 1.518267,-0.809475 2.176184,-1.214213 3.542624,-0.70829 1.366441,0.505921 5.415153,1.871912 7.996207,1.36599 0,0 1.84586,3.021035 6.498027,3.879614 3.150928,1.823621 4.201507,3.840335 6.795245,5.716047 z"
     id="path1874" />
  <path
     style="font-variation-settings:normal;vector-effect:none;fill:#ea0606;fill-opacity:1;stroke:none;stroke-width:0.133579;stroke-linecap:butt;stroke-linejoin:miter;stroke-miterlimit:5;stroke-dasharray:none;stroke-dashoffset:0;stroke-opacity:1;stop-color:#000000"
     d="m 24.226678,30.28083 c 0.6952,-0.0695 1.528067,0.06262 2.484048,0.715483 0.955982,0.652862 1.471566,1.484391 1.471566,2.116808 -0.733538,0.351456 -0.616708,1.092035 -1.446261,1.599359 0.425244,-2.415358 -1.679504,-3.644482 -2.509353,-4.43165 z m -3.457148,4.383289 c 0.328959,-0.480627 1.670094,-0.910658 3.365493,-0.860069 1.695398,0.05059 2.601008,0.90843 2.601008,0.90843 -0.614089,0.709827 -0.847172,1.501526 -1.538221,2.000624 -0.92265,-1.51159 -2.262766,-1.651127 -4.42828,-2.048985 z m 4.074018,2.833165 c -0.906781,-0.07294 -1.907505,0.203005 -2.707577,0.682996 -0.800072,0.47999 -1.265223,1.166469 -1.239918,1.846616 1.340909,-0.602126 2.494838,-0.582556 4.048712,-0.480626 -0.267202,-0.889867 0.259796,-1.022728 -0.101217,-2.048986 z m -1.923139,4.123269 c -0.80367,0.790606 -0.936265,1.796023 -0.531394,2.554907 0.890474,-1.481435 1.743555,-1.815019 3.846277,-1.745433 0.261479,-0.505918 0.06723,-1.956251 -1.062785,-2.124874 -0.69766,0.233469 -1.448429,0.524791 -2.252098,1.3154 z m 8.628818,4.190722 c 0.262373,0.589965 0.354262,1.467175 -0.45548,2.428428 0,0 0.860351,0.303554 1.695398,-0.632403 0.835047,-0.935956 1.039204,-2.277482 0.379567,-2.529612 -0.659636,-0.252131 -1.113396,-1.214214 -2.100269,-0.632404 -0.05529,0.27637 0.218411,0.776026 0.480784,1.365991 z m 1.210766,8.410021 c 0,0 -0.536788,-0.787027 0.250502,-2.325315 0.78729,-1.538287 2.672011,-1.609838 3.017943,-1.395192 -0.119285,0.679709 0.827848,0.868597 0.381718,1.538287 -0.46612,0.6997 -2.147155,-0.03577 -3.650163,2.18222 z m 3.006016,3.18389 c 0,0 -1.076668,-0.50109 -0.930433,-2.21799 0.143143,-1.680587 2.315767,-2.458199 2.61237,-2.182218 0.296603,0.275981 1.037791,1.001668 0.286287,1.430968 -0.751503,0.42929 -1.753509,0.89436 -1.968224,2.96924 z m 4.616381,2.43265 c -0.07157,0 -1.503008,-0.1431 -1.717724,-1.68138 -0.214714,-1.53829 0.216594,-2.35228 0.656427,-2.91251 0.520089,-0.0236 2.063302,-0.23562 1.490728,0.58718 -0.572574,0.82281 -1.037791,2.218 -0.429431,4.00671 z m 2.290302,-1.82449 c 0.572575,1.14478 2.254512,1.5383 2.254512,1.5383 -0.481929,-0.81339 -0.699922,-1.57375 -0.501002,-2.43264 0.22384,-0.96647 0.276173,-1.50369 -0.214716,-1.64561 -0.430577,-0.1245 -0.659291,0.31256 -1.574583,0.46507 0,0 -0.53679,0.93011 0.03579,2.07488 z m 8.851041,-1.09706 c 0,0 1.180935,-0.42929 1.288293,-2.25377 0.107357,-1.824483 -0.930434,-3.291222 -1.431437,-3.398544 -0.501003,-0.107323 -0.9861,0.08825 -1.109362,0.679709 -0.123263,0.591464 -0.393645,1.001675 -0.393645,1.001675 1.684819,1.34749 1.693865,2.48034 1.646151,3.97093 z m -6.320377,5.54174 c 0.424893,-0.49555 3.594919,-0.45566 5.044013,1.20763 0,0 -0.624126,-0.3827 -0.774155,0.16948 -0.152695,0.56199 0.176576,1.11475 -0.191955,1.22035 -0.368531,0.10561 -1.040784,-0.91246 -1.634306,-1.46537 -0.572447,-0.53329 -1.709116,-0.92232 -2.443597,-1.13209 z m -1.361663,3.2587 c 0,0 0.357859,-1.03746 2.111368,-1.18055 1.753509,-0.14311 3.328089,1.18055 3.328089,1.18055 0,0 -0.133389,0.41024 0.03579,0.96589 0.169177,0.55569 -0.174176,0.87994 -0.465218,0.82281 -0.291042,-0.0572 -0.894647,-1.28788 -2.719728,-1.60984 -1.825081,-0.32197 -2.290298,-0.17886 -2.290298,-0.17886 z m 0.143144,2.4684 c 0.366838,-0.45839 1.074764,-1.00316 2.7913,-0.8228 1.717555,0.18047 2.127478,0.73172 2.254512,1.18055 0.105065,0.37118 0.136044,1.18026 -0.322073,1.25209 -0.458119,0.0718 -0.587166,-0.49388 -1.807063,-0.99416 -0.776282,-0.31834 -1.900766,-0.56002 -2.916676,-0.61568 z m 4.544809,1.96758 c -0.520736,-0.2231 -1.370636,-0.35725 -2.540799,0.28619 -1.220046,0.67086 -0.930434,1.89603 -0.930434,1.89603 0.395512,-0.63261 0.7956,-0.89334 1.57458,-0.93013 0.809496,-0.0383 1.681938,0.60816 2.075583,0.32197 0.393645,-0.28619 -0.322074,-0.71548 -0.17893,-1.57406 z m -0.26243,6.58244 c 0,0 0.286287,1.68138 2.111369,1.93179 1.82508,0.25043 3.006015,-0.0716 3.22073,-1.53827 0.214715,-1.46675 -0.60836,-1.75293 -1.180934,-1.46675 -0.572575,0.2862 0.214715,1.3952 -1.395651,1.71716 -1.610365,0.32197 -2.755514,-0.64393 -2.755514,-0.64393 z M 86.7967,104.38854 c 0,0 -0.17893,-1.21632 1.32408,-2.68306 1.50301,-1.46673 3.63081,-1.21162 4.30253,-0.892 0,0 -0.22294,0.60581 -0.008,1.07087 0.21471,0.46506 -0.14315,1.2521 -0.46522,1.28787 -0.32207,0.0358 -1.93244,-0.64393 -3.2923,-0.0716 -1.35986,0.5724 -1.86087,1.28787 -1.86087,1.28787 z m 3.43355,5.27857 c 0,0 -1.16401,-1.16361 -0.91096,-3.08611 0.25304,-1.92252 1.56887,-3.13673 2.8341,-2.73199 1.26522,0.40474 1.33933,1.65473 1.18751,1.9077 -0.15183,0.25296 -1.38994,-0.0358 -2.19969,1.07725 -0.80974,1.11303 -0.91096,2.83315 -0.91096,2.83315 z m 3.17968,2.02371 c 0,0 -1.20593,-1.46718 -0.64924,-3.49087 0.55671,-2.0237 1.95884,-2.24695 2.51202,-1.77687 0.55677,0.47312 0.35278,0.80275 0.76379,1.31181 -1.20924,0.68093 -2.3034,1.46475 -2.62657,3.95593 z m 5.01896,1.97309 c 0,0 -1.67009,-0.20237 -2.12557,-2.32725 -0.45548,-2.12487 0.0506,-3.54145 0.70852,-3.59204 0.65792,-0.0506 0.75914,0.70828 1.77132,0.86006 0,0 -0.81442,1.07659 -1.06279,2.27666 -0.24838,1.20006 0.70852,2.78257 0.70852,2.78257 z m 3.81254,-4.46898 c 0.55829,0.78136 2.75941,1.13942 3.9981,-0.40475 1.22928,-1.53244 0.67691,-3.41316 0.0506,-3.59204 -0.62628,-0.17888 -1.31583,0.30355 -1.26522,1.3154 0.0506,1.01184 -0.20243,2.63079 -2.78349,2.68139 z"
     id="path1876" />
  <path
     id="path1935"
     style="font-variation-settings:normal;vector-effect:none;fill:#ffffff;fill-opacity:1;stroke:none;stroke-width:0.133579;stroke-linecap:butt;stroke-linejoin:miter;stroke-miterlimit:5;stroke-dasharray:none;stroke-dashoffset:0;stroke-opacity:1;stop-color:#000000"
     d="m 26.066836,31.266239 c 0.545751,0.40918 1.182594,1.256913 1.435163,2.576704 0.0039,-0.0069 0.0081,-0.01344 0.012,-0.02035 0.03059,-0.05369 0.06101,-0.106974 0.09289,-0.158599 0.01659,-0.02704 0.03572,-0.05249 0.05323,-0.07877 0.02333,-0.03475 0.04732,-0.06912 0.07306,-0.102253 0.07549,-0.09785 0.162934,-0.188844 0.275552,-0.267114 -0.0762,-0.20053 -0.627384,-1.550695 -1.941908,-1.949615 z m -2.180406,2.98781 c -0.298063,-0.0016 -0.600893,0.03083 -0.907023,0.09808 1.350487,0.155527 2.373368,0.540261 3.051942,1.383045 0.0038,-0.006 0.0081,-0.01216 0.012,-0.01827 8.01e-4,-0.0011 0.0013,-0.0024 0.0021,-0.0037 0.11463,-0.183275 0.230226,-0.371231 0.358531,-0.560312 5.34e-4,-8.02e-4 0.0011,-0.0019 0.0016,-0.0027 -0.773502,-0.582575 -1.625041,-0.891735 -2.519105,-0.896291 z m 0.775512,3.76202 c -0.708238,0.01149 -1.446233,0.275861 -1.758206,0.737693 0.814595,-0.162865 1.422703,-0.06533 1.985223,0.03965 0.0045,-0.02861 0.0093,-0.05701 0.01462,-0.08504 5.35e-4,-0.0031 0.0011,-0.0063 0.0016,-0.0094 0.037,-0.203059 0.08156,-0.40125 0.05741,-0.67039 -1.6e-5,-1.79e-4 -6e-6,-2.67e-4 0,-5.35e-4 -3e-5,-2.67e-4 2.9e-5,-8.01e-4 0,-0.0011 -0.09862,-0.0088 -0.199426,-0.01261 -0.300602,-0.01096 z m 1.262423,2.701393 c -0.423207,0.1083 -1.279142,0.435053 -1.603732,1.122188 0,0 1.017978,-0.304282 1.998791,-0.19929 -0.0214,-0.160613 -0.06324,-0.325604 -0.127858,-0.483099 -2.08e-4,-5.34e-4 -2.57e-4,-0.0011 -5.34e-4,-0.0016 -1.47e-4,-2.68e-4 -2.54e-4,-8.02e-4 -5.35e-4,-0.0011 -0.06493,-0.157562 -0.152738,-0.307555 -0.266157,-0.43719 z m 6.316285,5.04333 c 0,0 0.430368,0.910563 -0.02504,1.618855 0,0 0.506248,-0.202328 0.607466,-0.83473 0.101216,-0.632404 -0.582416,-0.784125 -0.582416,-0.784125 z m 3.83319,5.112719 c -2.02996,0.145999 -2.430904,1.594854 -2.430904,1.594854 0,0 1.133489,-0.946267 2.860409,-0.919246 -0.01788,-0.05252 -0.04582,-0.10215 -0.07672,-0.151293 -0.01579,-0.02487 -0.03273,-0.04959 -0.05062,-0.07409 -0.02464,-0.03414 -0.04856,-0.06855 -0.07515,-0.102775 -1.63e-4,-2.67e-4 -2.67e-4,-8.01e-4 -5.34e-4,-0.0011 -1.5e-4,-1.89e-4 -2.67e-4,-2.67e-4 -5.34e-4,-5.34e-4 -0.03701,-0.04702 -0.0727,-0.0952 -0.108027,-0.144513 -1.45e-4,-1.98e-4 -2.67e-4,-2.68e-4 -5.35e-4,-5.35e-4 -0.01082,-0.01528 -0.01999,-0.03131 -0.03027,-0.04695 -1.31e-4,-1.98e-4 -2.67e-4,-2.68e-4 -5.34e-4,-5.35e-4 -0.03251,-0.04905 -0.06337,-0.09914 -0.08663,-0.153382 z M 50.271,51.94353 c -0.02616,0.125564 -0.05954,0.240941 -0.09498,0.347976 -0.03619,0.109311 -0.07373,0.199484 -0.111161,0.284853 0.399958,0.233879 1.535614,1.047536 1.888154,2.956507 0,0 0.501075,-0.50084 -0.321999,-2.003351 C 50.807938,52.027 50.270999,51.94353 50.270999,51.94353 Z m -12.67432,1.212443 c -1.654492,0.44417 -2.164748,2.281413 -2.164748,2.281413 0,0 1.217351,-1.51371 2.524844,-1.819704 -0.09495,-0.177649 -0.228943,-0.328867 -0.35592,-0.457012 -8.01e-4,-8.02e-4 -0.0013,-0.0019 -0.0021,-0.0027 z m 2.575466,2.046653 c -0.108922,-8e-4 -0.218852,0.002 -0.326173,0.008 -5.34e-4,2e-5 -5.34e-4,-2e-5 -0.0011,0 -0.280371,0.5216 -0.920653,1.98628 -0.404976,3.1605 0.145537,-1.35791 0.276784,-2.06671 0.93364,-3.15632 -0.06613,-0.005 -0.131423,-0.0114 -0.201446,-0.012 z m 3.88538,0.24886 c -0.04553,2.6e-4 -0.08965,0.008 -0.134121,0.0193 -0.0068,0.002 -0.01355,0.003 -0.02036,0.005 -2.67e-4,8e-5 -8.02e-4,-9e-5 -0.0011,0 -0.027,0.008 -0.05488,0.019 -0.08246,0.0297 -0.0011,5.3e-4 -0.0021,0.001 -0.0031,0.002 -0.03349,0.013 -0.06744,0.0268 -0.102808,0.0433 -5.34e-4,2.5e-4 -0.0011,2.7e-4 -0.0016,5.3e-4 -0.0038,0.002 -0.0087,0.004 -0.01253,0.006 -0.06994,0.0333 -0.144802,0.0711 -0.22858,0.11113 -0.08346,0.0405 -0.174897,0.0812 -0.280249,0.12103 -0.0844,0.28501 -0.147361,0.63003 -0.100724,0.97194 0.107359,0.78702 0.716017,1.39504 0.716017,1.39504 -0.27697,-0.98638 -0.443573,-1.98906 0.251546,-2.70504 z m 4.0576,7.50213 c 0,0 0.821147,0.59878 1.316696,1.31052 -1.8e-5,-5.3e-4 1.9e-5,-10e-4 0,-0.002 -0.0019,-0.0565 -2.67e-4,-0.11394 0.0031,-0.17269 8.01e-4,-0.0132 -7.2e-5,-0.0259 0.0011,-0.0391 0.0062,-0.0712 0.01737,-0.14306 0.03706,-0.21547 0.01058,-0.039 0.02421,-0.0722 0.03914,-0.10225 0.0044,-0.009 0.0093,-0.0163 0.01408,-0.0245 0.01152,-0.0199 0.02375,-0.0384 0.03706,-0.0543 0.0056,-0.007 0.01186,-0.0123 0.01774,-0.0183 0.01518,-0.0155 0.03071,-0.0293 0.04749,-0.0407 0.0042,-0.003 0.0083,-0.006 0.01253,-0.008 0.02188,-0.0133 0.04469,-0.0243 0.06837,-0.0318 -0.485975,-0.49535 -1.594337,-0.60153 -1.594334,-0.60153 z m -1.012445,2.37793 c 0,0 1.659145,1.11076 2.215893,1.87449 0.0033,-0.008 0.0049,-0.0184 0.0078,-0.0271 0.0108,-0.0325 0.01937,-0.0671 0.02504,-0.10383 0.0028,-0.0179 0.0038,-0.0369 0.0052,-0.0558 0.0024,-0.0322 0.0029,-0.0658 0.0011,-0.10069 -0.0011,-0.0202 -0.0021,-0.04 -0.0047,-0.0611 -0.0069,-0.0557 -0.01726,-0.11322 -0.03601,-0.17477 -0.02343,-0.077 -0.04025,-0.15054 -0.05323,-0.22121 -0.0021,-0.0121 -0.0028,-0.0231 -0.0047,-0.035 -0.01015,-0.0618 -0.01798,-0.12025 -0.02191,-0.17582 -4.6e-5,-5.3e-4 4.5e-5,-10e-4 0,-0.002 -0.721658,-0.65082 -1.526645,-0.91716 -2.13448,-0.91716 z m 0.02402,2.61792 c -0.27801,0.002 -0.454034,0.0381 -0.454034,0.0381 0,0 1.458626,0.49385 2.326009,1.56564 0.111525,-0.23104 0.112439,-0.57648 0.06889,-0.8389 -0.01237,-0.0584 -0.02458,-0.11727 -0.03705,-0.17164 -0.693073,-0.50667 -1.440464,-0.59674 -1.90381,-0.59318 z m 0.621556,2.52036 c -0.511525,0.0222 -0.847531,0.2499 -0.847531,0.2499 0,0 1.051379,0.039 1.779604,0.35737 -0.02429,-0.0556 -0.04724,-0.11381 -0.06993,-0.17634 -0.0105,-0.0286 -0.01927,-0.0585 -0.0287,-0.0887 -0.02007,-0.0647 -0.03897,-0.12962 -0.05114,-0.2019 -2.22e-4,-0.001 -8.01e-4,-0.002 -0.0011,-0.004 -0.285849,-0.1118 -0.551597,-0.14667 -0.781251,-0.13669 z m 5.182245,5.10228 c -0.04087,0.4074 -0.177796,1.22542 -0.639822,1.72424 -0.63261,0.683 -1.164309,0.63283 -1.164309,0.63283 0,0 0.77318,0.32084 1.568764,-0.3798 0.523193,-0.46076 0.717107,-1.15169 0.790122,-1.57503 -0.03287,-0.0621 -0.07011,-0.11626 -0.111158,-0.1633 -0.04063,-0.0466 -0.08516,-0.0863 -0.132035,-0.11895 -5.34e-4,-2.6e-4 -0.0011,-8e-4 -0.0016,-0.001 -2.67e-4,-2.3e-4 -8.02e-4,-2.7e-4 -0.0011,-5.4e-4 -0.09461,-0.0654 -0.199754,-0.10367 -0.308952,-0.11843 z M 91.31252,101.23743 c -1.61384,-0.0591 -2.48779,0.90934 -2.48779,0.90934 1.10607,-0.47872 2.12576,-0.49415 3.65053,0.0511 -0.002,-0.11135 -0.0166,-0.21961 -0.06,-0.31354 -0.071,-0.15378 -0.0916,-0.32188 -0.0908,-0.47945 -0.36281,-0.10088 -0.70254,-0.15615 -1.01192,-0.16747 z m 1.37671,2.87826 c -1.90995,0.28464 -2.326,2.00178 -2.326,2.00178 0,0 1.10903,-1.20106 2.95017,-1.15715 -0.0964,-0.29299 -0.28804,-0.60569 -0.62417,-0.84463 z m 13.24213,2.00021 c -0.12414,0.0117 -0.23813,0.1092 -0.25155,0.21651 -0.0358,0.2862 0.32185,0.96568 -0.28651,2.21778 0,0 0.5725,-0.14317 0.823,-1.43104 0.15657,-0.80492 -0.0781,-1.02281 -0.28494,-1.00325 z m -10.65883,0.30729 c -2.03311,1.02094 -1.86728,2.80678 -1.86728,2.80678 0,0 0.77653,-1.70788 2.29574,-2.18594 -0.069,-0.19776 -0.15982,-0.39255 -0.42846,-0.62084 z m 2.13187,1.40391 c -0.17066,0.28302 -0.44863,0.90716 -0.24163,1.76076 0.0644,-0.0966 0.24848,-0.71474 0.83187,-1.30687 -0.22862,-0.16649 -0.39352,-0.34935 -0.59024,-0.45389 z" />
  <path
     id="path1942"
     style="font-variation-settings:normal;vector-effect:none;fill:#ffffff;fill-opacity:1;stroke:none;stroke-width:0.133579;stroke-linecap:butt;stroke-linejoin:miter;stroke-miterlimit:5;stroke-dasharray:none;stroke-dashoffset:0;stroke-opacity:1;stop-color:#000000"
     d="m 34.02234,5.314502 c -1.503739,0.839099 -2.715313,1.860493 -3.763782,3.049893 1.634607,-0.27845 2.84031,-1.860049 4.690114,-2.95077 0,0 -0.355678,-0.04553 -0.926332,-0.09913 z m 3.055071,0.90516 c -1.002625,-0.0091 -2.131347,0.590646 -2.945478,1.113841 -0.875042,0.562341 -1.646375,1.001528 -2.29052,1.395042 0,0 0.85901,0.250644 2.362018,-0.715257 1.503008,-0.965901 3.542804,-1.681682 4.759524,-0.214943 0,0 -0.107655,-1.073001 -1.217019,-1.466517 -0.212473,-0.07537 -0.43715,-0.110056 -0.668525,-0.112166 z M 20.139351,7.96529 c 0,0 -0.142996,0.07185 -0.8945,0.465362 -0.751504,0.393515 -2.254362,1.180396 -2.898509,1.645459 -0.644146,0.465063 -0.572498,0.894205 -0.572498,0.894205 0.27176,-0.248049 0.682988,-0.517298 1.133516,-0.780995 -0.09291,0.817247 -0.71743,1.523658 0.547971,2.85582 0,0 0.213094,-0.11184 0.525532,-0.286939 0,0 -0.543327,-0.253693 -0.745762,-0.810211 -0.202437,-0.556512 0.05071,-1.03687 0.404976,-0.96098 0,0 -0.151786,0.531176 0.151867,0.834729 0.303653,0.303553 0.506207,-0.05073 0.455599,-0.556662 0,0 0.455333,0.177193 0.430026,0.45545 -0.0253,0.278257 -0.401251,0.504925 -0.339741,0.834208 0.434905,-0.251799 0.954109,-0.567845 1.372015,-0.868639 0,0 -1.681637,-0.787031 -2.039497,-1.001675 -0.35786,-0.214644 -0.179004,-0.536837 -0.179004,-0.536837 0,0 0.07172,0.321818 0.85901,0.643786 0.78729,0.321965 1.896504,0.822728 1.896504,0.822728 0,0 -0.700882,0.486379 -1.953389,1.344959 -1.252506,0.858577 -2.155802,0.985131 -1.726369,1.593288 0.595255,-0.520675 1.124274,-0.690439 2.484136,-1.72789 1.359863,-1.037449 2.12613,-1.281828 2.12613,-1.281828 0,0 -0.322074,-0.03563 -1.252507,-0.393368 -0.930432,-0.357742 -1.753733,-0.822581 -2.040018,-0.965676 -0.167402,-0.08367 -0.184524,-0.282625 -0.172743,-0.439278 0.680773,-0.35719 1.345968,-0.671289 1.711759,-0.848815 0.876936,-0.425597 0.715496,-0.930201 0.715496,-0.930201 z m 20.426813,1.900053 c -0.347154,0.945234 -0.898436,1.681914 -1.782212,2.297591 0,0 0.465366,0.107249 1.109511,-0.429363 0.49238,-0.410179 0.87909,-1.070647 1.130387,-1.67885 C 40.752935,9.94647 40.566164,9.865343 40.566164,9.865343 Z m -29.947428,3.028502 c -0.578852,0.01279 -1.142209,0.0954 -1.634001,0.283808 -0.241812,0.128215 -0.08861,0.319318 0.122119,0.236334 2.002148,-0.579719 4.657195,0.180708 6.281322,0.922895 0,0 0.03148,-0.347925 -0.64713,-0.659436 -0.508965,-0.233631 -2.385758,-0.821967 -4.12231,-0.783601 z M 9.472169,13.51572 c -0.145892,-0.0022 -0.288652,3.7e-5 -0.427418,0.0073 -0.28886,0.01424 -0.19981,0.296702 0.02766,0.26607 2.370218,0.0029 5.105347,0.956453 6.995249,1.949615 0,0 0.0563,-0.314176 -0.753069,-0.744474 C 14.555803,14.590828 11.66054,13.54861 9.472168,13.515718 Z m 13.996238,4.399545 c -0.316997,-0.02043 -0.48065,0.112687 -0.48065,0.112687 0,0 1.670196,0.758396 2.37872,2.124387 0.708525,1.365991 -0.506223,2.377935 -0.506223,2.377935 0,0 0.810047,0.152009 1.164311,-1.112798 0.354261,-1.264806 -1.026291,-2.745885 -1.821875,-3.238229 -0.298346,-0.184628 -0.544084,-0.251727 -0.734283,-0.263982 z m 34.542041,9.954669 c -0.04349,0 -0.06889,0.0063 -0.06889,0.0063 0.556695,1.467176 0.809882,2.023593 2.530584,5.615643 1.720702,3.592047 2.378718,5.160713 2.378718,5.160713 -1.012178,0.151774 -1.872497,0.101213 -1.872497,0.101213 0,0.607106 -0.0668,1.301133 -0.0668,1.301133 0,0 0.16711,0.06853 0.483257,0.1466 0.03452,-0.362824 0.06419,-0.766718 0.06419,-0.840991 1.417049,0 2.252425,-0.201898 2.252425,-0.201898 -1.012181,-2.68139 -4.656286,-10.16925 -5.01055,-10.776358 -0.265697,-0.455328 -0.559968,-0.512314 -0.690443,-0.512314 z m -12.282392,4.72822 c 0.273077,1.931799 0.384976,3.511097 0.384102,5.470085 -1.568876,-0.556515 -3.336365,-1.860924 -3.336365,-1.860924 0,0 -0.390202,0.07332 -0.478039,0.08973 1.169663,1.214461 2.186696,1.862723 3.860852,2.520362 0.04673,2.492617 -0.337617,4.840389 -1.034361,7.151544 0.250189,0.140473 0.401323,0.255636 0.401323,0.255636 0.506088,-1.197351 1.063117,-2.749139 1.265554,-5.784675 0.202434,-3.035535 -0.0507,-6.273203 -0.354357,-7.08268 -0.30365,-0.809468 -0.708709,-0.75908 -0.708709,-0.75908 z m 36.219354,9.208107 c 0.69166,1.60209 1.18068,1.079352 1.93982,2.850082 0.75914,1.770729 1.31566,5.261402 1.31566,5.261402 -0.40875,0.756679 -0.83115,1.401541 -1.27443,1.999698 l -0.15917,-1.05541 c 0,0 -0.27743,-0.17576 -0.37158,-0.236333 l 0.16752,1.728933 c -0.92944,1.172382 -2.00196,2.335513 -3.16988,3.836623 -1.90606,2.44984 -2.31871,4.85083 -2.31871,4.85083 0.46522,0.17886 1.46752,0.60831 1.46752,0.60831 -0.57258,3.11234 -0.4295,4.79395 -0.4295,4.79395 l 1.18101,0.28589 v 1.93814 c 0.099,-0.29274 0.19559,-0.59514 0.2886,-0.91559 l 0.1409,-1.30844 c -0.35785,-0.10732 -1.12256,-0.2379 -1.12256,-0.2379 -0.15182,-2.93435 0.64922,-5.74867 0.64922,-5.74867 -0.35426,0.45533 -0.53127,0.82638 -0.53127,0.82638 -0.65792,-0.30356 -1.06307,-0.50606 -1.06307,-0.50606 0.91096,-3.23791 2.32819,-4.6037 4.6562,-7.234495 2.32801,-2.630798 3.4001,-5.095872 3.34001,-6.779568 -0.0601,-1.683696 -0.35383,-2.883468 -0.35383,-2.883468 -0.35426,0.556515 -0.20246,0.809079 -0.10124,2.478625 0.10122,1.669542 -0.60747,2.985201 -0.60747,2.985201 0,0 -0.65785,-4.603865 -1.77125,-5.868671 -1.1134,-1.264806 -1.8725,-1.669459 -1.8725,-1.669459 z" />
  <path
     style="color:#000000;font-style:normal;font-variant:normal;font-weight:normal;font-stretch:normal;font-size:medium;line-height:normal;font-family:sans-serif;font-variant-ligatures:normal;font-variant-position:normal;font-variant-caps:normal;font-variant-numeric:normal;font-variant-alternates:normal;font-variant-east-asian:normal;font-feature-settings:normal;font-variation-settings:normal;text-indent:0;text-align:start;text-decoration:none;text-decoration-line:none;text-decoration-style:solid;text-decoration-color:#000000;letter-spacing:normal;word-spacing:normal;text-transform:none;writing-mode:lr-tb;direction:ltr;text-orientation:mixed;dominant-baseline:auto;baseline-shift:baseline;text-anchor:start;white-space:normal;shape-padding:0;shape-margin:0;inline-size:0;clip-rule:nonzero;display:inline;overflow:visible;visibility:visible;isolation:auto;mix-blend-mode:normal;color-interpolation:sRGB;color-interpolation-filters:linearRGB;solid-color:#000000;solid-opacity:1;vector-effect:none;fill:#000000;fill-opacity:1;fill-rule:nonzero;stroke:none;stroke-width:1.00972;stroke-linecap:butt;stroke-linejoin:miter;stroke-miterlimit:5;stroke-dasharray:none;stroke-dashoffset:0;stroke-opacity:1;color-rendering:auto;image-rendering:auto;shape-rendering:auto;text-rendering:auto;enable-background:accumulate;stop-color:#000000"
     d="m 14.373283,7.678494 c -3.209113,1.811618 -5.702084,3.94137 -5.702084,3.94137 l 0.175548,0.203096 c 0,0 2.711306,-2.352606 6.130378,-4.168389 -0.09701,-0.122405 -0.446268,-0.06504 -0.603842,0.02393 z m -0.656357,1.535048 c -1.806829,0.890979 -4.244912,2.504913 -4.244912,2.504913 l 0.149906,0.220841 c 0,0 3.010991,-2.003664 4.77136,-2.742776 -0.114904,-0.140297 -0.4767,-0.08143 -0.676354,0.01703 z"
     id="path974" />
</svg>
