<?xml version="1.0" encoding="UTF-8" standalone="no"?>
<!-- Created with Inkscape (http://www.inkscape.org/) -->
<svg width="500" height="553" viewBox="0 0 132.29166 146.31458" version="1.1" id="svg5" xml:space="preserve" xmlns:xlink="http://www.w3.org/1999/xlink" xmlns="http://www.w3.org/2000/svg" xmlns:svg="http://www.w3.org/2000/svg"><defs id="defs2"/><path style="font-variation-settings:normal;fill:#045cd2;fill-opacity:1;stroke:none;stroke-width:0.264584;stroke-linecap:butt;stroke-linejoin:miter;stroke-miterlimit:4;stroke-dasharray:none;stroke-dashoffset:0;stroke-opacity:1;stop-color:#000000" d="M 127.45979,88.100678 C 129.29421,53.983648 132.29167,0 132.29167,0 H 0 c 0,0 2.997461,53.983648 4.831877,88.100678 1.834415,34.117022 29.15643,58.213902 61.31395,58.213902 32.15753,0 59.479553,-24.09688 61.313963,-58.213902 z" id="path4026"/><g id="g10195" transform="translate(-35.241848,-63.894522)"><path id="path12116" style="font-variation-settings:normal;opacity:1;vector-effect:none;fill:#003166;fill-opacity:1;stroke:none;stroke-width:0.132292;stroke-linecap:butt;stroke-linejoin:miter;stroke-miterlimit:4;stroke-dasharray:none;stroke-dashoffset:0;stroke-opacity:1;-inkscape-stroke:none;stop-color:#000000;stop-opacity:1" d="m 141.92926,78.083422 c -1.26411,-3.415315 -4.64606,-2.62808 -4.64606,-2.62808 0,0 0.20082,-1.438287 -0.23306,-3.204456 -0.43147,-1.756353 -1.71072,-2.488649 -2.67695,-2.414323 0.5988,1.35282 1.50165,4.144249 1.14687,4.831747 l -20.32943,31.30546 c 0.4895,0.50805 0.93987,0.70833 1.53564,0.84969 1.06563,0.25286 2.74274,-0.0789 4.14084,-0.41083 h 5.1e-4 c 0.28116,0.55468 0.29661,1.63603 0.64183,2.39468 0.34522,0.75865 -0.30232,0.78347 0.0743,2.47896 0.64323,0.66668 2.0073,0.31963 2.44849,0.20691 6.46896,-1.65278 8.43694,-4.02482 14.52447,-4.37485 0,0 -0.45359,-5.10751 -0.54849,-9.155835 0.82057,1.485883 1.4626,3.507275 1.4626,3.507275 l 1.15545,0.39307 c -0.56454,-4.673173 1.28594,-12.44899 0.84685,-17.40443 -0.43909,-4.95544 -2.38264,-6.663125 -3.49132,-7.572341 0.93116,-0.205801 2.56305,0.408555 3.94746,1.197353 z"/><path id="path4901" style="font-variation-settings:normal;opacity:1;vector-effect:none;fill:#bf9f4f;fill-opacity:1;stroke:none;stroke-width:0.132292;stroke-linecap:butt;stroke-linejoin:miter;stroke-miterlimit:4;stroke-dasharray:none;stroke-dashoffset:0;stroke-opacity:1;-inkscape-stroke:none;stop-color:#000000;stop-opacity:1" d="m 140.41468,83.929243 c -0.43909,-4.955445 -3.33627,-6.951431 -3.62458,-7.173206 -0.28831,-0.221773 -0.34995,-0.632948 0.73225,-0.731738 0.91892,-0.08389 2.45844,0.249864 3.80959,0.916687 -1.77419,-3.326609 -5.10718,-2.014811 -5.10718,-2.014811 0,0 0.25485,-1.452441 -0.23306,-3.204456 -0.4879,-1.752014 -1.61851,-1.885156 -1.61851,-1.885156 0.59878,1.352821 0.44321,3.615081 0.0884,4.30258 -0.35484,0.687499 -0.66508,0.144177 -0.66508,0.144177 -0.51008,-0.709675 -2.01844,-2.716727 -7.27449,-3.293339 -5.25604,-0.576613 -11.57663,0.509867 -15.56856,2.528011 -3.99193,2.018142 -5.63273,4.790405 -5.63273,4.790405 0,0 3.54053,-1.475037 5.21157,-1.596801 0,0 -2.66362,2.149221 -2.87218,3.648356 l 5.13612,-1.341004 19.28519,23.070582 3.4418,0.0192 1.42655,-4.675402 c 0.82057,1.485885 2.52104,4.036442 2.52104,4.036442 -0.27903,-4.776007 1.38295,-12.585082 0.94386,-17.540527 z"/><path id="path5051" style="font-variation-settings:normal;opacity:1;vector-effect:none;fill:#ffc9a3;fill-opacity:1;stroke:none;stroke-width:0.132292;stroke-linecap:butt;stroke-linejoin:miter;stroke-miterlimit:4;stroke-dasharray:none;stroke-dashoffset:0;stroke-opacity:1;-inkscape-stroke:none;stop-color:#000000;stop-opacity:1" d="m 121.07943,76.85629 -8.28322,2.162658 -0.39894,0.357601 c 0,0 -0.87422,1.017816 -1.24488,1.917713 -0.29386,0.713451 -0.10315,1.830122 -0.57361,3.257165 -0.47045,1.427045 -0.74336,2.18472 -0.5395,2.561084 0.20387,0.376362 1.0974,0.92503 1.16013,1.28571 0.0627,0.360682 -0.62687,1.772025 -0.94051,2.901114 -0.31364,1.129087 -0.86127,1.767396 -1.28467,2.033985 -0.42341,0.266592 -0.61313,0.553595 -0.45631,1.03973 0.15682,0.486134 0.23838,0.823625 0.37672,1.160652 0.12977,0.316154 3.04581,0.217558 3.04581,0.217558 0,0 0.11073,0.620601 -0.0667,1.13068 -0.17742,0.510082 -0.27686,0.64301 -0.47646,0.853695 -0.19066,0.201247 -0.17776,0.466121 -0.17776,0.466121 0,0 0.19577,0.168103 0.38809,0.358635 0.19232,0.190531 1.91306,0.940511 1.91306,0.940511 0,0 -0.44901,0.330496 -0.81494,0.607718 -0.3925,0.29735 -0.35902,0.5446 -0.0636,0.80357 0.29541,0.25896 1.85053,0.95704 1.85053,0.95704 0,0 0.19809,0.61249 -0.24546,1.06712 -0.44355,0.45464 -0.55446,0.65442 -0.41031,1.15342 0.14415,0.49899 0.44481,1.0144 0.68723,1.22922 0.24242,0.21483 0.9544,0.45665 1.31738,0.61181 l 3.96763,-0.0473 c 0.28116,0.55468 0.2966,1.63603 0.64182,2.39468 0.34523,0.75865 0.75617,1.3126 1.13275,3.00809 7.61856,-1.59338 9.34905,-4.66817 15.85175,-5.04207 0,0 -0.39086,-4.76251 -0.48576,-8.810832 0,0 -1.06155,1.112607 -1.49035,4.005952 0,0 -1.38231,-1.569172 -1.97146,-3.561018 -0.61341,1.003119 -0.98961,2.322098 -1.15548,3.694348 0,0 -1.35254,-1.885111 -1.41904,-3.969783 0,0 0.84491,-3.558864 1.66037,-5.832719 0.81545,-2.273858 -0.12451,-3.43653 -1.53686,-4.218347 -1.41235,-0.78182 -3.29282,0.391707 -3.29282,0.391707 0.20386,-0.737045 0.64285,-2.022616 0.64285,-2.022616 l -4.34392,2.101164 c 0.71907,-2.761778 1.78948,-5.195572 1.94459,-8.48372 l -7.51169,2.085661 c 0.70691,-2.16671 2.18163,-3.220946 2.60346,-4.767667 z"/><path style="font-variation-settings:normal;opacity:1;vector-effect:none;fill:#945638;fill-opacity:1;stroke:none;stroke-width:0.132292;stroke-linecap:butt;stroke-linejoin:miter;stroke-miterlimit:4;stroke-dasharray:none;stroke-dashoffset:0;stroke-opacity:1;-inkscape-stroke:none;stop-color:#000000;stop-opacity:1" d="m 110.53226,76.711693 0.57661,-0.754034 c 0,0 -3.1492,0.377016 -5.78831,2.350807 l 0.74295,0.299396 c 0,0 2.76109,-1.45262 4.46875,-1.896169 z m -2.87198,3.648185 c 4.37989,-2.546667 8.14037,-1.974903 13.6071,-4.334495 0,0 -0.0313,0.360682 -0.18818,0.831135 -3.89632,2.339418 -8.69636,1.826475 -12.63953,3.857724 z m 10.81574,1.263908 c 2.75526,-1.690975 4.57068,-0.966143 7.5508,-2.995223 -0.003,0.29274 -0.0157,0.595894 -0.0392,0.909544 -2.34443,1.943141 -4.87965,1.01389 -7.46454,2.744316 z m 5.56705,6.398177 0.40772,0.517499 c 0,0 2.76,-1.332953 3.93613,-2.618861 0,0 0.21955,-0.423409 0.21955,-0.893863 0,0 -3.21476,2.289544 -4.5634,2.995225 z m 6.2884,-0.909546 c 1.99159,0.1725 3.04501,2.253371 2.77567,3.857724 -0.27148,1.61714 -1.09087,2.762004 -1.48977,4.720223 -0.39889,1.958217 -1.19181,3.089315 -2.82272,2.807042 0,0 -0.40773,1.615224 -1.16045,2.901134 -0.75273,1.28591 -1.52114,1.48977 -1.52114,1.48977 0,0 0.81546,-1.00363 0.90955,-2.25818 0.0941,-1.254542 0.67432,-2.462041 0.67432,-2.462041 0,0 -0.50452,-0.411993 -0.37906,-0.866765 0.12545,-0.454773 0.71867,-0.102494 1.01663,0.336601 0.29795,0.43909 1.44811,0.514483 2.15379,-1.100743 0.70568,-1.615226 0.71752,-2.901434 1.47409,-4.359541 0.8625,-1.662272 0.50181,-3.152043 -0.47046,-3.99886 -0.97227,-0.846818 -2.415,-0.501818 -2.9325,-0.1725 -0.5175,0.329318 -0.81545,-0.06273 -0.81545,-0.06273 0,0 0.59591,-1.003635 2.5875,-0.831134 z m -1.77205,3.324543 c 0,0 -0.36068,-0.95659 0.67432,-1.097726 1.035,-0.141136 0.78409,1.254544 0.21955,1.850453 -0.56455,0.595908 -0.47663,1.264519 0,1.803407 -0.32235,0.05085 -0.68548,0.04931 -0.98225,0.756993 -0.29677,0.707689 -0.0268,1.520347 0.38096,1.80262 0.40772,0.282272 0.99333,0.121976 0.75811,-0.583706 0,0 0.81545,-0.909544 0.98795,-1.411362 0.1725,-0.501818 -0.5175,-1.003635 -0.28227,-1.56818 0.23522,-0.564545 0.92522,-1.709317 0.70568,-2.634543 -0.21955,-0.925227 -1.75636,-1.144772 -2.76,-0.392045 -1.00364,0.752726 -1.05705,1.130442 -0.76191,1.524613 0.31443,0.41993 0.80895,0.325839 1.05986,-0.05052 z m 4.70469,6.278765 c 0,0 -0.92185,2.051351 -0.93145,4.856855 l 0.64903,0.18664 c 0,0 0.0248,-2.492519 0.5064,-3.880801 z m 2.19557,4.723785 0.67406,0.16289 c 0,0 0.0487,-2.033779 0.81626,-4.16893 l -0.38146,-0.695568 c 0,0 -1.20269,1.81008 -1.10886,4.701608 z m -24.74615,-15.0955 c 0,0 0.36068,0.43909 0.89386,0.329317 0.53319,-0.109772 1.47409,-0.595908 2.5875,-0.548863 1.11341,0.04705 2.97955,0.439091 3.54409,0.470454 0.56454,0.03136 0.53318,-0.564544 0.53318,-0.564544 0,0 -0.47045,-0.03136 -2.28954,-0.423409 -1.81909,-0.392045 -2.21114,-0.407727 -3.43432,-0.125455 -1.22318,0.282273 -1.83477,0.8625 -1.83477,0.8625 z m 1.86614,1.05068 0.2509,0.533182 c 0.42262,0.02574 0.44879,0.03281 0.94137,0.226828 -0.26556,0.222472 -0.30144,0.407422 -0.28352,0.66323 0.0183,0.261897 0.48693,0.411531 0.62806,0.427213 0.14114,0.01568 2.49341,-0.43909 2.90114,-0.43909 0.40772,0 0.56454,-0.392045 0.75272,-0.580227 0.18819,-0.188182 -0.0157,-0.658636 -0.47045,-0.580227 -0.45477,0.07841 -0.84682,0.141137 -1.67795,-0.09409 -0.83114,-0.235227 -2.17977,-0.721362 -3.04227,-0.156818 z m -3.68523,8.138856 c 0,0 0.15682,-0.360681 0.43909,-0.344999 0.28228,0.01568 1.47409,0.09409 2.11705,-0.156818 0.64295,-0.250909 1.96022,-0.156818 2.21113,-0.01568 0.25091,0.141136 0.56455,-0.07841 0.39205,-0.470454 -0.1725,-0.392045 -0.56455,-0.721363 -0.50182,-0.940908 0.0627,-0.219546 1.25181,-0.09044 1.47409,0.61159 0.20854,0.658636 0.13516,1.615226 -0.56455,1.834771 -0.80575,0.25282 -1.16045,-0.188182 -1.61522,-0.266591 -0.45477,-0.07841 -1.39568,0.423409 -2.25818,0.392045 -0.8625,-0.03136 -1.47409,-0.188181 -1.69364,-0.642954 z m 2.71295,3.026588 c 0,0 0.75273,-0.203863 0.95659,-0.141136 0.20387,0.06273 0.85109,0.218757 1.6979,0.281485 0.84682,0.06273 1.21892,-0.218758 1.21892,-0.218758 0,0 -0.0784,-0.423408 0.12545,-0.423408 0.20387,0 0.89387,0.501817 1.12909,1.050681 0.23523,0.548863 -0.23522,0.798655 -0.50181,0.579112 -0.26659,-0.219545 -0.43909,-0.359567 -0.43909,-0.359567 0,0 -1.00364,0.329318 -2.27387,0.1725 -1.27022,-0.156818 -1.91318,-0.940909 -1.91318,-0.940909 z m 1.035,2.352266 c 0,0 0.42341,-0.31363 1.09773,-0.28227 0.67432,0.0314 1.31727,-0.59591 1.75636,-0.40772 0.43909,0.18818 0.51796,0.68999 -0.10931,0.81545 -0.62727,0.12545 -0.89432,0.83113 -0.89432,0.83113 0,0 -0.92523,-0.0627 -1.85046,-0.95659 z m 1.88182,4.40659 c 1.26725,0.57235 2.19545,0.34499 3.92045,-0.1725 1.725,-0.5175 3.32454,-0.56454 4.89272,-0.94091 1.56818,-0.37636 2.57182,-1.12909 2.57182,-1.12909 0,0 -0.36069,1.33296 -1.69363,1.8191 -1.33296,0.48613 -2.22682,0.47045 -4.40659,0.98795 -1.3981,0.33192 -3.07513,0.6638 -4.14076,0.41094 -0.59578,-0.14136 -0.6545,-0.46744 -1.14401,-0.97549 z" id="path4952"/></g><use x="0" y="0" xlink:href="#g10195" id="use10197" transform="translate(-46.591127,-0.044355)"/><use x="0" y="0" xlink:href="#g10195" id="use10199" transform="translate(-23.295564,42.404438)"/><use x="0" y="0" xlink:href="#g10195" id="use10201" transform="translate(-63.037499,42.404438)"/><use x="0" y="0" xlink:href="#g10195" id="use10203" transform="translate(16.446371,42.404438)"/><use x="0" y="0" xlink:href="#g10195" id="use10205" transform="translate(-46.591127,85.419088)"/><use x="0" y="0" xlink:href="#g10195" id="use10207" transform="translate(0,84.808888)"/></svg>