<?xml version="1.0" encoding="UTF-8" standalone="no"?>
<svg
   xmlns:dc="http://purl.org/dc/elements/1.1/"
   xmlns:cc="http://creativecommons.org/ns#"
   xmlns:rdf="http://www.w3.org/1999/02/22-rdf-syntax-ns#"
   xmlns:svg="http://www.w3.org/2000/svg"
   xmlns="http://www.w3.org/2000/svg"
   xmlns:sodipodi="http://sodipodi.sourceforge.net/DTD/sodipodi-0.dtd"
   xmlns:inkscape="http://www.inkscape.org/namespaces/inkscape"
   width="509.59854"
   height="675.36255"
   viewBox="0 0 134.83128 178.68968"
   version="1.1"
   id="svg8"
   sodipodi:docname="orivesi.svg"
   inkscape:version="1.0 (4035a4fb49, 2020-05-01)">
  <defs
     id="defs2" />
  <sodipodi:namedview
     inkscape:lockguides="true"
     inkscape:snap-others="false"
     id="base"
     pagecolor="#ffffff"
     bordercolor="#666666"
     borderopacity="1.0"
     inkscape:pageopacity="0.0"
     inkscape:pageshadow="2"
     inkscape:zoom="0.9134936"
     inkscape:cx="361.30093"
     inkscape:cy="288.23848"
     inkscape:document-units="px"
     inkscape:current-layer="layer1"
     inkscape:document-rotation="0"
     showgrid="false"
     units="px"
     inkscape:window-width="1920"
     inkscape:window-height="1017"
     inkscape:window-x="-8"
     inkscape:window-y="-8"
     inkscape:window-maximized="1"
     inkscape:showpageshadow="false"
     inkscape:object-nodes="true"
     inkscape:snap-smooth-nodes="true"
     inkscape:snap-global="false" />
  <metadata
     id="metadata5">
    <rdf:RDF>
      <cc:Work
         rdf:about="">
        <dc:format>image/svg+xml</dc:format>
        <dc:type
           rdf:resource="http://purl.org/dc/dcmitype/StillImage" />
        <dc:title />
      </cc:Work>
    </rdf:RDF>
  </metadata>
  <g
     transform="translate(-32.202541,-17.975181)"
     inkscape:label="Шар 1"
     inkscape:groupmode="layer"
     id="layer1">
    <g
       id="g879">
      <path
         sodipodi:nodetypes="cccccc"
         id="path1509"
         d="m 32.202541,125.20889 9.1e-5,-107.233709 H 167.03382 l -9e-5,107.233709 -67.415597,5.52975 z"
         style="font-variation-settings:normal;opacity:1;vector-effect:none;fill:#b2b2b2;fill-opacity:1;fill-rule:evenodd;stroke:none;stroke-width:0.264583;stroke-linecap:butt;stroke-linejoin:miter;stroke-miterlimit:4;stroke-dasharray:none;stroke-dashoffset:0;stroke-opacity:1;marker:none;marker-start:none;marker-mid:none;marker-end:none;stop-color:#000000;stop-opacity:1" />
      <g
         id="g1647">
        <path
           style="font-variation-settings:normal;opacity:1;vector-effect:none;fill:#e10f0f;fill-opacity:1;fill-rule:evenodd;stroke:none;stroke-width:0.264583;stroke-linecap:butt;stroke-linejoin:miter;stroke-miterlimit:4;stroke-dasharray:none;stroke-dashoffset:0;stroke-opacity:1;marker:none;marker-start:none;marker-mid:none;marker-end:none;stop-color:#000000;stop-opacity:1"
           d="m 96.41227,107.01096 c -6.694963,-2.53992 -10.522993,-4.34354 -12.749153,-6.91219 -2.226161,-2.568645 -3.577946,-11.143405 -3.577946,-11.143405 -2.004632,-2.543076 -12.396897,-3.653803 -18.843036,-1.15749 -6.446139,2.496313 -2.69886,10.806088 -1.170449,12.556905 1.528412,1.75081 4.590211,1.63434 2.394044,5.68336 -2.196168,4.04901 -3.234563,3.11954 -3.234563,3.11954 -3.899589,-2.36315 -3.489317,-5.7943 -4.400756,-11.437962 -0.576822,-3.571701 -1.814937,-9.522057 -1.157224,-12.571452 0.657712,-3.049396 1.608306,-3.555517 7.621657,-4.085563 4.021057,-0.354435 5.091153,-0.845789 8.218505,-1.339581 0,0 0.837399,-0.821737 -1.466665,-2.972197 -2.304064,-2.150459 -9.523463,-6.604983 -15.514029,-4.300919 -5.990566,2.304064 -3.221622,6.838659 -6.912192,7.680213 -3.69057,0.841554 -5.862563,-0.486414 -5.862563,-0.486414 0,0 -1.945526,-4.626047 3.865708,-7.193801 5.811231,-2.567752 9.677066,-9.677068 13.363569,-11.059505 3.686501,-1.382437 5.81679,2.394323 10.905903,5.836961 5.222543,3.532899 9.438212,4.589228 13.209966,4.454523 L 108.61461,45.762955 c 0,0 2.60675,10.861461 -1.73783,24.764131 -4.34459,13.90267 2.60675,35.191134 7.82025,39.970174 5.2135,4.77905 3.04121,18.68172 3.04121,18.68172 l -7.3858,-1.30338 c 0,0 -3.55067,-15.22732 -13.94017,-20.86464 z"
           id="path1597"
           sodipodi:nodetypes="cssscssscszscssscsc" />
        <path
           style="font-variation-settings:normal;opacity:1;vector-effect:none;fill:#bd0000;fill-opacity:1;fill-rule:evenodd;stroke:none;stroke-width:0.264583;stroke-linecap:butt;stroke-linejoin:miter;stroke-miterlimit:4;stroke-dasharray:none;stroke-dashoffset:0;stroke-opacity:1;marker:none;marker-start:none;marker-mid:none;marker-end:none;stop-color:#000000;stop-opacity:1"
           d="m 106.65255,83.893523 c 2.68808,-4.531325 6.04177,-7.833817 6.04177,-7.833817 0,-2.150459 -1.38244,-3.99371 -1.38244,-3.99371 2.22726,-0.153605 3.14889,1.612844 3.14889,1.612844 l 1.61284,-1.228834 c -0.99842,-3.686502 -5.60655,-6.220972 -5.60655,-6.220972 3.22568,-2.304063 6.98899,1.228834 6.98899,1.228834 -0.38401,-0.998428 -3.99371,-8.141025 -3.99371,-8.141025 3.07209,-0.537615 5.14574,1.228834 5.14574,1.228834 l 0.90419,-2.255837 c -1.62921,-1.19476 -3.80151,-2.063677 -3.80151,-2.063677 l 0.86892,-2.172292 c -2.71536,-0.651688 -5.2678,-2.673248 -5.2678,-2.673248 3.76331,-0.69122 6.22097,1.612844 6.22097,1.612844 l 1.38244,-1.920053 c -1.99019,-2.823187 -5.32602,-2.583854 -7.15086,-5.491483 2.82398,0 7.82025,1.955063 7.82025,1.955063 l 0.86892,-1.846448 c -1.95506,-1.520605 -6.19103,-3.801512 -6.19103,-3.801512 2.93259,-0.977531 7.82025,0.217229 7.82025,0.217229 l 0.32584,-0.651687 c -5.43073,-5.213501 -14.37339,-4.200002 -14.37339,-4.200002 0,0 -0.8195,-2.43761 -3.73798,-3.205631 0,0 -0.28161,-1.996853 -2.09926,-2.457667 0,0 0.40961,3.148886 0.0256,4.454522 l -3.635304,-1.152033 c -0.518415,-0.768023 -0.883838,-1.212496 -1.521223,-1.564728 -0.637386,-0.352233 -0.716893,-0.427862 -2.128883,-0.292093 0,0 0.760302,1.031838 0.868917,2.335214 0,0 -5.180627,1.582465 -6.831873,3.272112 l 0.160897,1.615288 17.445569,-0.19383 c 0,0 4.37174,6.373958 -0.8508,20.659153 0,0 -0.76755,8.703727 -1.99662,12.492889 -1.22907,3.789162 -1.10275,6.476109 -1.16591,9.510357 -0.0632,3.034248 -0.01,9.007087 2.49813,12.164838 0,0 3.71507,7.709585 4.417,12.345865 0.70192,4.63627 5.92447,10.16602 5.92447,10.16602 l 2.30406,9.83067 11.67392,-1.99685 c 0,0 1.22884,-3.84011 0.15361,-7.98742 0,0 6.46627,-4.77036 11.29735,-4.07483 0,0 -0.0842,2.38518 -2.54191,3.92122 l 0.30721,1.68965 c 0,0 -2.91848,4.76173 -2.15046,7.373 0.76802,2.61128 8.75544,0.76802 8.75544,0.76802 0,0 1.53604,-2.15045 2.45767,-4.45452 l -0.30721,-2.15046 c 0,0 1.68965,-1.68964 2.30406,-3.22569 l -0.46081,-2.61127 c 0,0 0.46081,-1.99686 1.99686,-3.07208 l -0.35841,-2.15046 c 0,0 -1.62063,-0.0795 -2.22726,0.61441 0,0 -0.0875,-1.86879 -0.38938,-2.89285 0,0 -1.76108,0.74239 -2.06829,0.9728 0,0 -0.33074,-1.64479 -1.62461,-2.81925 0,0 -5.13398,2.05123 -9.5885,4.89291 -4.45453,2.84168 -6.98649,4.02236 -8.9846,3.47042 -5.45935,-5.82331 -8.54734,-5.00671 -12.99755,-11.94761 0,0 -0.1226,-11.42706 -6.30664,-17.661137 z"
           id="path1581"
           sodipodi:nodetypes="ccccczcccccccccccccccccccccccccccsccscccccccscccccccccccsccc" />
        <path
           transform="scale(0.26458333)"
           id="path1549"
           style="font-variation-settings:normal;opacity:1;vector-effect:none;fill:#e10f0f;fill-opacity:1;fill-rule:evenodd;stroke:none;stroke-width:0.999999;stroke-linecap:butt;stroke-linejoin:miter;stroke-miterlimit:4;stroke-dasharray:none;stroke-dashoffset:0;stroke-opacity:1;marker:none;marker-start:none;marker-mid:none;marker-end:none;stop-color:#000000;stop-opacity:1"
           d="m 355.39453,124.52734 c 5.22496,2.61249 5.99805,8.62696 5.99805,8.62696 -20.16135,6.18685 -27.30469,12.30468 -27.30469,12.30468 l 2.80469,6.70313 0.21484,-5.57227 c 12.77213,-8.12772 25.97852,-12.33789 25.97852,-12.33789 0.14514,-5.66037 -2.75782,-8.70837 -2.75782,-8.70837 2.61249,-0.65312 6.53968,0.42444 6.53968,0.42444 -3.45823,-2.04528 -7.07781,-2.79499 -11.47327,-1.44068 z m 20.88672,19.0918 c -7.72821,-0.16172 -16.69047,1.25229 -27.27344,4.13086 -24.18964,6.57958 -40.47265,29.04687 -40.47265,29.04688 -3.16512,1.52942 -7.63645,1.27418 -9.8418,1.23828 0,0 -7.57245,1.29101 -7.36719,8.06445 0.20527,6.77345 5.74805,8.41406 5.74805,8.41406 0,0 2.62867,1.94598 3.26367,10.51758 5.12821,-5.90227 11.80525,-12.86777 20.5918,-12.09375 l 8.72656,0.19336 c 0,0 3.48399,7.54605 -2.03125,13.35156 -5.51524,5.80551 -6,13.0625 -6,13.0625 8.58233,-1.14431 7.1927,-7.31045 15.67969,-12.09961 0,0 29.50675,-5.8969 45.18164,-22.15234 15.67491,-16.25545 18.31054,-32.99219 18.31055,-32.99219 -6.68189,-5.65931 -14.57936,-8.47371 -24.51563,-8.68164 z m 9.97903,-24.21904 c 0,0 0,6.09579 -0.58055,14.80406 0,0 -7.2569,-2.61248 -13.06242,-2.32221 l 2.32221,3.77359 c 0,0 13.91064,1.062 20.89986,8.41799 0,0 -2.03193,-4.93468 -7.54717,-8.41799 0,0 1.16111,-10.15964 -2.03193,-16.25544 z"
           sodipodi:nodetypes="cccccccccssccsccccsccscsccccccc" />
        <path
           style="font-variation-settings:normal;opacity:1;vector-effect:none;fill:#bd0000;fill-opacity:1;fill-rule:evenodd;stroke:none;stroke-width:0.264583;stroke-linecap:butt;stroke-linejoin:miter;stroke-miterlimit:4;stroke-dasharray:none;stroke-dashoffset:0;stroke-opacity:1;marker:none;marker-start:none;marker-mid:none;marker-end:none;stop-color:#000000;stop-opacity:1"
           d="m 87.62907,49.927166 c 0.667163,0.02525 1.3725,0.124987 2.014187,0.361398 l 1.233239,3.561346 1.373686,1.326568 c 0,0 1.065858,-0.179404 2.505274,-0.716754 0,0 6.654384,0.788907 10.455894,-3.772906 3.80151,-4.561814 1.37038,-10.62109 1.37038,-10.62109 0,0 -3.7961,-1.833386 -8.466533,-1.290313 0,0 -0.543073,2.172293 1.086146,3.475668 0,0 0.543073,2.389521 -2.280907,3.475667 -2.82398,1.086147 -3.801511,1.955063 -3.801511,1.955063 l 0.543073,1.737834 c 0,0 -2.498136,0.325844 -3.692897,-1.086146 0,0 0.868917,-2.172292 3.801512,-3.801511 0,0 2.172292,0.217229 2.932594,-1.41199 0,0 -0.316538,-1.851657 -3.235019,-2.005261 0,0 -8.601838,3.225689 -9.369859,9.446661 0,0 2.222948,-0.03963 3.530741,-0.634234 z"
           id="path1551"
           sodipodi:nodetypes="cccccscccsccccc" />
        <path
           style="font-variation-settings:normal;opacity:1;vector-effect:none;fill:#bd0000;fill-opacity:1;fill-rule:evenodd;stroke:none;stroke-width:0.264583;stroke-linecap:butt;stroke-linejoin:miter;stroke-miterlimit:4;stroke-dasharray:none;stroke-dashoffset:0;stroke-opacity:1;marker:none;marker-start:none;marker-mid:none;marker-end:none;stop-color:#000000;stop-opacity:1"
           d="m 47.536994,76.030226 c 0.108615,-1.19476 1.737834,-4.887657 6.625491,-5.756574 4.887658,-0.868917 7.385794,0.760302 13.685441,4.23597 6.299647,3.475667 10.752846,2.280907 10.752846,2.280907 l -1.085984,1.991224 c 0,0 -4.743,0.398296 -8.001439,0.941369 0,0 -7.928866,-5.2135 -12.164835,-7.711636 0,0 0,1.737834 -0.325844,3.041209 0,0 -1.303375,-1.194761 -2.606751,-1.846448 0,0 0,2.280906 -0.217229,3.258438 L 52.135012,74.94408 c 0,0 -0.108614,1.846449 -0.543073,2.606751 0,0 -1.19476,-1.41199 -2.172292,-2.280907 0,0 -0.325844,1.737834 -0.108614,4.018741 0,0 -2.82398,4.670428 -8.906398,6.625491 0,0 -0.773479,-2.484959 -0.339021,-5.743398 0,0 5.03579,0.284511 7.47138,-4.140532 z m 11.694173,33.127454 c 0,0 1.846448,1.95507 4.23597,3.14983 0,0 2.172292,-4.56182 1.19476,-10.31839 0,0 -0.977531,-0.7603 -2.932594,-0.97753 0,0 0,4.34458 -2.498136,8.14609 z m -0.108615,-9.558083 c 0,0 1.955063,-1.086146 4.670428,-0.977532 0,0 -1.629219,-1.955063 -3.475667,-2.715365 0,0 2.280907,-0.325844 3.367053,-0.434459 0,0 -1.737834,-2.389521 -3.041209,-3.149823 2.061051,-0.211671 2.866408,1.427058 4.779043,0.325844 0,0 -2.280907,-0.977532 -3.258439,-4.23597 0,0 1.303376,-0.217229 3.801512,0.760302 2.498136,0.977532 5.973803,0.108615 5.973803,0.108615 0,0 0.543073,1.737834 0.434459,2.932594 0,0 1.303375,-1.303375 1.520604,-2.932594 0,0 0.977532,1.737834 1.629219,3.041209 0,0 1.41199,-1.194761 1.303376,-3.367053 0,0 0.977531,0.325844 3.910125,0.868917 2.932595,0.543073 5.64796,-0.325844 5.64796,-0.325844 0,0 0.217229,-5.213501 -6.299647,-4.561814 -6.516877,0.651688 -10.644232,0.868917 -13.794056,0.543073 -3.149823,-0.325843 -5.94272,0.758691 -7.666647,2.325897 -1.723928,1.567207 -0.588063,10.273399 0.498083,11.794003 z M 94.241276,90.40356 c -3.801511,1.737833 -9.123627,2.063677 -9.123627,2.063677 3.160286,1.339661 5.903447,1.423074 9.123627,-2.063677 z m 0,3.041209 c -2.932595,1.737834 -7.385794,2.60675 -7.385794,2.60675 1.995224,1.024104 5.333999,0.316093 7.385794,-2.60675 z m 0.868917,3.367053 c -2.172292,1.19476 -6.516877,2.389521 -6.516877,2.389521 1.896231,0.720128 4.57095,0.369956 6.516877,-2.389521 z m 2.82398,1.955063 c -1.194761,1.737835 -5.973804,3.258435 -5.973804,3.258435 2.062036,0.45093 4.252634,-0.42073 5.973804,-3.258435 z m 1.086138,9.123685 c 0,0 5.322119,2.06362 8.363329,5.10483 3.04121,3.04121 4.23545,14.18892 4.23545,14.18892 l -11.981131,-2.76487 c 0,0 0.665621,-4.76174 -0.71682,-6.68179 -1.382438,-1.92005 -1.530185,-2.57001 -1.530185,-2.57001 0,0 -1.881171,-6.75588 1.629357,-7.27708 z"
           id="path1593"
           sodipodi:nodetypes="cccccccccccccssccccccccccccccscccccscsssccccccccccccc" />
        <path
           transform="scale(0.26458333)"
           d="m 408.32227,140.80469 c 0,0 -3.28339,6.98011 -9.85157,7.39062 -6.56817,0.41052 -11.90625,1.64063 -11.90625,1.64063 -2.46308,6.56819 -11.63086,9.85351 -11.63086,9.85351 -5.17424,14.89046 -15.11923,9.58445 -24.49414,19.70508 l 1.23243,5.74609 c 0,0 -7.25207,1.8e-4 -11.63086,-2.46289 0,0 3.83077,7.80061 16.55664,5.74805 l -2.46289,-7.39062 c 9.74665,-6.5974 20.68959,-5.20323 24.63085,-19.29297 10e-6,0 8.62129,-2.46271 10.67383,-9.44141 0,0 5.47342,0.41051 11.35743,0 6.15765,25.45174 -13.54688,36.53516 -13.54688,36.53516 -2.46308,11.49433 -15.59961,9.85156 -15.59961,9.85156 -4.57286,3.3417 -9.44151,5.62216 -13.51953,7.14453 -2.01972,13.97597 -6.75811,26.75697 -37.24805,44.7168 -30.48994,17.95983 -27.91406,47.20898 -27.91406,47.20898 7.38921,-2.46307 15.11133,-4.77343 15.11133,-4.77343 7.54717,-45.28302 43.54042,-47.6043 77.79297,-77.79297 13.82296,-12.18296 19.87253,-24.6383 22.17773,-35.16602 -0.005,26.75927 -9.97461,50.03906 -9.97461,50.03906 -0.61939,19.74176 -6.00976,46.66407 -6.00976,46.66407 0,0 8.74482,-22.17702 8.55078,-46.18555 4.31085,-7.42809 19.34054,-46.40794 6.0625,-77.42188 4.10513,-3.6946 1.64258,-12.3164 1.64258,-12.3164 z M 349.00781,147.75 c -3.77358,0.87083 -12.11523,4.41211 -12.11523,4.41211 -22.16765,8.62075 -30.94141,24.13281 -30.94141,24.13281 -4.35413,0.29027 -7.25781,1.74024 -7.25781,1.74024 4.35414,1.45137 4.35547,5.80664 4.35547,5.80664 0,0 5.22475,4.6439 1.45117,8.99804 -3.77359,4.35414 -4.16211,12.19141 -4.16211,12.19141 1.74166,-1.45137 4.35547,-2.61133 4.35547,-2.61133 4.64441,3.48331 8.12695,2.32031 8.12695,2.32031 l -0.29101,-6.0957 c 6.67632,-2.03193 15.0957,-3.48242 15.0957,-3.48242 1.45138,11.03048 -9.28906,20.60937 -9.28906,20.60937 0,0 0.67658,2.32206 3.28906,3.77344 0,0 1.68931,-5.30994 8.41797,-11.0293 6.72867,-5.71933 8.12091,-14.29921 1.1543,-19.81445 -5.57794,-0.2111 -10.45118,0.95508 -10.45118,0.95508 5.53537,-18.55957 20.87578,-25.94837 33.66211,-32.01953 6.9787,0 11.08399,5.33594 11.08399,5.33594 -1.51288,-7.70892 -10.09766,-10.57813 -10.09766,-10.57813 -35.70391,13.93323 -40.63867,35.12305 -40.63867,35.12305 0.58055,-6.67634 -4.35352,-8.70703 -4.35352,-8.70703 C 323.46475,159.94262 349.00781,147.75 349.00781,147.75 Z m -10.19922,42.31641 c 0,0 3.01173,9.57917 -1.5039,17.3789 0,0 4.24188,1.77989 11.35742,1.09571 1.23153,-7.79973 -3.69531,-7.80079 -3.69531,-7.80079 0,0 1.64152,-7.80024 -6.15821,-10.67382 z m -134.09961,75.53515 c -14.04531,1.73737 -26.33875,7.87283 -28.02734,24.09375 0,0 -14.22443,15.96473 -26.41602,11.32031 0,0 -2.36723,16.91923 2.44532,23.69922 0,0 -0.73995,-10.97614 0.45898,-20.54687 0,0 13.93167,1.20229 24.67188,-12.15039 0,0 7.59001,1.59905 8.1289,-3.77344 0.52264,-5.21045 -4.64453,-4.64453 -4.64453,-4.64453 0,0 3.70826,-13.54826 23.38281,-17.99805 z m 13.04688,6.41406 c -0.21395,-0.0104 -0.38629,-0.004 -0.52344,0.0117 -0.36573,0.0407 -0.48242,0.14258 -0.48242,0.14258 l 45.97852,29.14649 c 0,0 -15.70355,-14.04005 -31.95899,-23.61914 -7.96772,-4.69528 -11.51599,-5.60859 -13.01367,-5.68165 z m -9.07617,3.42774 c -0.94053,-0.0604 -1.95121,0.29044 -3.01367,1.24219 l 9.85351,6.97851 c 0,0 -2.76424,-7.9591 -6.83984,-8.2207 z m -9.41992,5.97266 c -0.76773,-0.057 -1.52764,0.44987 -2.21485,1.83789 L 204.8457,289 c 0,0 -2.84407,-7.38061 -5.58593,-7.58398 z m -10.53711,2.12109 c -0.63238,-0.0377 -1.28329,0.23896 -1.93946,0.94727 l 8.20899,8.62109 c 0,0 -2.85472,-9.36493 -6.26953,-9.56836 z m 198.9375,29.13672 c 0,0 -7.38959,25.04044 9.4414,45.97656 -5.52541,-11.05082 -9.74353,-26.87624 -9.4414,-45.97656 z M 240.9707,323.20898 c 0,0 -15.1668,-0.002 -21.42968,8.94532 -6.26289,8.94699 -2.3798,31.49022 0.90429,40.52148 3.28409,9.03128 9.74414,10.29492 9.74414,10.29492 0.87083,13.93323 -6.32422,29.59375 -6.32422,29.59375 0,0 9.85192,-9.71611 9.44141,-30.78906 -14.31409,-3.42093 -16.57576,-40.20753 -11.63086,-47.85156 5.03763,-7.78737 19.29492,-10.71485 19.29492,-10.71485 z m 140.83789,58.2129 -13.35156,7.54687 c 15.51323,16.8284 41.53405,26.26082 52.96289,42.86328 11.42884,16.60247 6.17599,30.09531 13.3125,47.37305 l 17.24024,-0.82227 c 0.82102,-9.03127 -5.33594,-19.70508 -5.33594,-19.70508 9.85229,-25.86226 5.74805,-36.53515 5.74805,-36.53515 -10.2628,-10.26279 -30.78907,-24.21875 -30.78907,-24.21875 l -7.79882,7.38867 c -11.90422,-8.03922 -18.41889,-17.70166 -31.98829,-23.89062 z M 546.25391,397.375 c 0,0 -24.18493,-0.60769 -41.8711,15.18945 -18.77844,16.77275 -28.32617,16.41993 -28.32617,16.41993 0,0 6.56889,3.69513 12.72656,6.1582 0,0 8.61966,-8.21057 19.29297,-13.13672 10.67331,-4.92614 18.06357,-6.15696 21.34766,-5.33594 0,0 4.51507,6.15785 2.87305,11.08399 -1.64205,4.92615 -13.54688,13.13672 -13.54688,13.13671 l 2.46289,7.38868 c 0,0 -10.67242,9.4412 -7.79883,25.45117 l 4.10547,0.82226 c 0,0 -0.41088,-17.24166 9.44141,-24.63085 l -0.82227,-8.21094 c 0,0 13.54813,-9.8528 9.85352,-19.70508 -3.69461,-9.85229 2.87251,-22.16779 10.26172,-24.63086 z m -185.14063,5.88477 c 0,0 3.5e-4,16.4201 4.10547,27.5039 l 2.87305,4.51563 c 0,0 -2.46255,-22.57779 6.1582,-27.50391 -6.9787,-4.1051 -13.13672,-4.51562 -13.13672,-4.51562 z m 199.09961,1.09375 c 0,0 -14.77875,1.64362 -17.65234,13.95898 -2.87358,12.31536 1.23064,16.41903 -10.26367,24.21875 0,0 -1.64169,4.51615 -0.41016,10.67383 0,0 -7.39028,11.49448 -3.28516,24.63086 l 5.74805,2.05273 c -4.3876,-22.50299 5.28857,-22.50745 4.10547,-37.35742 6.76294,-7.24833 6.18395,-12.45746 7.79883,-20.93555 1.64205,-8.62075 6.56977,-13.13706 13.95898,-17.24218 z m 4.92578,9.03125 c 0,0 -14.36896,6.8e-4 -12.3164,21.75781 0,0 -10.26172,4.97921 -10.26172,19.70508 0,14.72587 -4.92774,24.2207 -4.92774,24.2207 l 4.9043,1.68164 c 0,0 6.59127,-9.48223 4.94922,-20.97656 -1.64204,-11.49434 3.69459,-18.06321 9.03125,-21.75782 0,0 -3.28375,-15.18907 8.62109,-24.63085 z"
           style="color:#000000;font-style:normal;font-variant:normal;font-weight:normal;font-stretch:normal;font-size:medium;line-height:normal;font-family:sans-serif;font-variant-ligatures:normal;font-variant-position:normal;font-variant-caps:normal;font-variant-numeric:normal;font-variant-alternates:normal;font-variant-east-asian:normal;font-feature-settings:normal;font-variation-settings:normal;text-indent:0;text-align:start;text-decoration:none;text-decoration-line:none;text-decoration-style:solid;text-decoration-color:#000000;letter-spacing:normal;word-spacing:normal;text-transform:none;writing-mode:lr-tb;direction:ltr;text-orientation:mixed;dominant-baseline:auto;baseline-shift:baseline;text-anchor:start;white-space:normal;shape-padding:0;shape-margin:0;inline-size:0;clip-rule:nonzero;display:inline;overflow:visible;visibility:visible;opacity:1;isolation:auto;mix-blend-mode:normal;color-interpolation:sRGB;color-interpolation-filters:linearRGB;solid-color:#000000;solid-opacity:1;vector-effect:none;fill:#ff3a3a;fill-opacity:1;fill-rule:evenodd;stroke:none;stroke-width:2;stroke-linecap:butt;stroke-linejoin:miter;stroke-miterlimit:4;stroke-dasharray:none;stroke-dashoffset:0;stroke-opacity:1;marker:none;color-rendering:auto;image-rendering:auto;shape-rendering:auto;text-rendering:auto;enable-background:accumulate;stop-color:#000000;stop-opacity:1"
           id="path1589" />
        <path
           transform="matrix(0.26458334,0,0,0.26458334,32.202541,17.975181)"
           d="M 324.56641 86.445312 C 323.9582 86.438417 323.33615 86.451997 322.70117 86.488281 C 312.54154 87.068828 310.14844 90.382812 310.14844 90.382812 C 322.55852 87.890804 339.70508 91.203125 339.70508 91.203125 C 339.70508 91.203125 333.68957 86.548749 324.56641 86.445312 z M 305.35547 103.32812 C 301.3617 103.31083 300.70703 104.33984 300.70703 104.33984 C 310.64194 105.06504 330.26367 111.73047 330.26367 111.73047 C 330.26367 111.73047 324.15352 106.22724 313.12305 104.19531 C 309.67601 103.56033 307.17082 103.33599 305.35547 103.32812 z M 306.04688 123.87305 C 300.2741 123.95688 298.99609 126.25586 298.99609 126.25586 C 312.15524 125.09476 322.50781 132.35352 322.50781 132.35352 C 322.50781 132.35352 320.67015 125.67599 310.80078 124.22461 C 308.95027 123.95248 307.37905 123.8537 306.04688 123.87305 z M 314.13867 154.41602 C 309.16833 154.46392 307.12305 156.25195 307.12305 156.25195 C 318.54055 155.18761 326.57227 160.89648 326.57227 160.89648 C 326.57227 160.89648 325.8941 155.86423 318.05664 154.70312 C 316.58712 154.48542 315.28567 154.40496 314.13867 154.41602 z M 306.00391 177.00781 C 305.73277 177.01285 305.46159 177.02747 305.18945 177.05469 C 296.48116 177.92551 295.80273 182.37695 295.80273 182.37695 C 307.89756 175.79737 322.21875 187.02148 322.21875 187.02148 C 322.21875 187.02148 314.40909 176.85174 306.00391 177.00781 z M 303.57422 202.97266 C 300.4004 203.03254 298.99609 204.4375 298.99609 204.4375 C 307.02706 205.11481 310.89648 210.5332 310.89648 210.5332 C 310.89648 210.5332 310.9933 204.05052 306.05859 203.17969 C 305.13334 203.01641 304.30664 202.95884 303.57422 202.97266 z M 274.70703 352.5625 C 274.70703 352.5625 271.01243 356.66797 270.19141 361.18359 C 270.19141 361.18359 275.11752 373.08984 279.22266 382.12109 C 279.22266 382.12109 275.11843 396.48809 275.93945 403.4668 L 278.40234 404.28711 C 278.40234 404.28711 280.45489 387.86824 282.91797 382.12109 L 271.83398 361.59375 L 274.70703 352.5625 z "
           style="font-variation-settings:normal;opacity:1;vector-effect:none;fill:#e10f0f;fill-opacity:1;fill-rule:evenodd;stroke:none;stroke-width:0.999999;stroke-linecap:butt;stroke-linejoin:miter;stroke-miterlimit:4;stroke-dasharray:none;stroke-dashoffset:0;stroke-opacity:1;marker:none;marker-start:none;marker-mid:none;marker-end:none;stop-color:#000000;stop-opacity:1"
           id="path1591" />
        <path
           style="font-variation-settings:normal;opacity:1;vector-effect:none;fill:#bd0000;fill-opacity:1;fill-rule:evenodd;stroke:none;stroke-width:0.264583;stroke-linecap:butt;stroke-linejoin:miter;stroke-miterlimit:4;stroke-dasharray:none;stroke-dashoffset:0;stroke-opacity:1;marker:none;marker-start:none;marker-mid:none;marker-end:none;stop-color:#000000;stop-opacity:1"
           d="m 82.587887,50.843008 c 0,0 -0.614417,-2.611272 -1.843251,-2.457668 -1.228834,0.153604 -1.597673,2.841679 0.0768,4.300919 0,0 1.459241,-0.844823 1.766451,-1.843251 z"
           id="path1533"
           sodipodi:nodetypes="cscc" />
      </g>
      <path
         sodipodi:nodetypes="ssssssssscscs"
         transform="scale(0.26458333)"
         d="m 153.49805,466.3418 c 23.54008,0 32.21188,11.125 55.75195,11.125 23.54006,0 32.21386,-11.125 55.75391,-11.125 23.54011,0 32.21389,11.125 55.7539,11.125 23.54009,0 32.21191,-11.125 55.75196,-11.125 23.54004,0 32.21383,11.125 55.7539,11.125 23.54007,0 32.2138,-11.125 55.75391,-11.125 23.54003,0 32.21188,11.125 55.75195,11.125 23.54007,0 32.2138,-11.125 55.75391,-11.125 13.6643,0 22.32409,3.74311 31.78515,6.88866 -1.5e-4,189.34114 -133.83844,270.06977 -254.79874,270.06977 -120.96031,0 -254.79962,-80.72863 -254.79918,-270.06977 9.46134,-3.14555 18.12308,-6.88866 31.78738,-6.88866 z"
         style="font-variation-settings:normal;opacity:1;vector-effect:none;fill:#0581ed;fill-opacity:1;fill-rule:evenodd;stroke:none;stroke-width:0.999999;stroke-linecap:butt;stroke-linejoin:miter;stroke-miterlimit:4;stroke-dasharray:none;stroke-dashoffset:0;stroke-opacity:1;marker:none;marker-start:none;marker-mid:none;marker-end:none;stop-color:#000000;stop-opacity:1"
         id="path1478" />
    </g>
  </g>
</svg>
