<?xml version="1.0" encoding="UTF-8" standalone="no"?>
<!-- Created with Inkscape (http://www.inkscape.org/) -->

<svg
   xmlns:dc="http://purl.org/dc/elements/1.1/"
   xmlns:cc="http://creativecommons.org/ns#"
   xmlns:rdf="http://www.w3.org/1999/02/22-rdf-syntax-ns#"
   xmlns:svg="http://www.w3.org/2000/svg"
   xmlns="http://www.w3.org/2000/svg"
   xmlns:xlink="http://www.w3.org/1999/xlink"
   xmlns:sodipodi="http://sodipodi.sourceforge.net/DTD/sodipodi-0.dtd"
   xmlns:inkscape="http://www.inkscape.org/namespaces/inkscape"
   width="500"
   height="570"
   id="svg2"
   version="1.1"
   inkscape:version="0.48.5 r10040"
   sodipodi:docname="padasjoki.svg">
  <defs
     id="defs4">
    <clipPath
       clipPathUnits="userSpaceOnUse"
       id="clipPath4238">
      <use
         x="0"
         y="0"
         xlink:href="#path4310"
         id="use4240"
         transform="translate(1.4999999e-6,0)"
         width="1"
         height="1" />
    </clipPath>
  </defs>
  <sodipodi:namedview
     id="base"
     pagecolor="#f6f3f1"
     bordercolor="#666666"
     borderopacity="1.0"
     inkscape:pageopacity="0"
     inkscape:pageshadow="2"
     inkscape:zoom="0.9899495"
     inkscape:cx="226.11917"
     inkscape:cy="302.57532"
     inkscape:document-units="px"
     inkscape:current-layer="g4253"
     showgrid="false"
     showborder="true"
     inkscape:window-width="1920"
     inkscape:window-height="1017"
     inkscape:window-x="-8"
     inkscape:window-y="-8"
     inkscape:window-maximized="1"
     fit-margin-top="0"
     fit-margin-left="0"
     fit-margin-right="0"
     fit-margin-bottom="0"
     inkscape:showpageshadow="false" />
  <metadata
     id="metadata7">
    <rdf:RDF>
      <cc:Work
         rdf:about="">
        <dc:format>image/svg+xml</dc:format>
        <dc:type
           rdf:resource="http://purl.org/dc/dcmitype/StillImage" />
        <dc:title />
      </cc:Work>
    </rdf:RDF>
  </metadata>
  <g
     inkscape:label="Layer 1"
     inkscape:groupmode="layer"
     id="layer1"
     transform="translate(-95.714286,-262.71933)">
    <g
       id="g4253"
       transform="matrix(0.96618359,0,0,0.94999998,3.2367139,41.635983)">
      <path
         sodipodi:nodetypes="cszscc"
         inkscape:connector-curvature="0"
         id="path4310"
         d="m 95.714286,232.71932 c 0,0 0,210 0,336.42858 0,126.42857 94.285714,263.57143 258.750004,263.57143 164.46428,0 258.74999,-137.14286 258.74999,-263.57143 0,-126.42858 0,-336.42858 0,-336.42858 z"
         style="color:#000000;fill:#dc1e1e;fill-opacity:1;stroke:none;stroke-width:1;marker:none;visibility:visible;display:inline;overflow:visible;enable-background:accumulate" />
      <g
         transform="translate(0.004458,0)"
         id="g4208">
        <g
           id="g3345"
           transform="translate(0.088635,0)">
          <g
             id="g4183">
            <path
               sodipodi:nodetypes="cszsccszcc"
               inkscape:connector-curvature="0"
               id="path3364"
               d="m 509.99238,430.75503 c 0,0 7.99609,-2.67856 22.5,-2.67856 13.65809,0 28.56375,7.01346 25.02168,25.77928 -3.54207,18.76583 -16.66454,34.70286 -32.52168,40.64929 -15.85715,5.94643 -17.14286,16.60714 -17.14286,16.60714 l -1.07143,-32.14286 c 0,0 8.57143,-2.14285 18.21429,-6.42856 9.64285,-4.28572 12.56499,-15.08548 9.10714,-21.96429 -3.45785,-6.87881 -17.69118,-8.42857 -23.57143,2.67857 -2.47098,-10.10606 -0.53571,-22.50001 -0.53571,-22.50001 z"
               style="color:#000000;fill:#c6c6c6;fill-opacity:1;stroke:none;stroke-width:1;marker:none;visibility:visible;display:inline;overflow:visible;enable-background:accumulate" />
            <path
               style="color:#000000;fill:#ffffff;stroke:none;stroke-width:1;marker:none;visibility:visible;display:inline;overflow:visible;enable-background:accumulate"
               d="m 536.6212,457.07004 c 3.13633,11.76582 -2.77168,18.57786 -11.62882,21.89929 -8.85715,3.32143 -15.53572,-0.53572 -15.53572,-0.53572 l -2.67857,0.53571 c 0,0 8.57143,-2.14285 18.21429,-6.42856 9.64285,-4.28572 12.56499,-15.08548 9.10714,-21.96429 z m 1.407,-24.52257 c -5.54393,-4.20571 -24.5302,2.30014 -28.03582,8.92186 -2.47098,-10.10606 0,-10.7143 0,-10.7143 0,0 7.99609,-2.67856 22.5,-2.67856 z"
               id="path4186"
               inkscape:connector-curvature="0"
               sodipodi:nodetypes="csccsccccccc" />
          </g>
          <g
             id="g4161">
            <path
               style="color:#000000;fill:#c6c6c6;fill-opacity:1;stroke:none;stroke-width:1;marker:none;visibility:visible;display:inline;overflow:visible;enable-background:accumulate"
               d="m 198.75,430.75503 c 0,0 -7.99609,-2.67856 -22.5,-2.67856 -13.65809,0 -28.56375,7.01346 -25.02168,25.77928 3.54207,18.76583 16.66454,34.70286 32.52168,40.64929 15.85715,5.94643 17.14286,16.60714 17.14286,16.60714 l 1.07143,-32.14286 c 0,0 -8.57143,-2.14285 -18.21429,-6.42856 -9.64285,-4.28572 -12.56499,-15.08548 -9.10714,-21.96429 3.45785,-6.87881 17.69118,-8.42857 23.57143,2.67857 2.47098,-10.10606 0.53571,-22.50001 0.53571,-22.50001 z"
               id="path3343"
               inkscape:connector-curvature="0"
               sodipodi:nodetypes="cszsccszcc" />
            <path
               sodipodi:nodetypes="cszcscc"
               inkscape:connector-curvature="0"
               id="path3366"
               d="m 198.75,430.75503 c 0,0 -7.99609,-2.67856 -22.5,-2.67856 -13.65809,0 -28.56375,7.01346 -25.02168,25.77928 3.54207,18.76583 14.0574,22.81001 15.91454,23.50643 0,0 -10.68737,-13.57142 -11.51721,-27.67857 -0.82983,-14.10714 17.14286,-21.96429 43.39286,-15.53571 z"
               style="color:#000000;fill:#ffffff;stroke:none;stroke-width:1;marker:none;visibility:visible;display:inline;overflow:visible;enable-background:accumulate" />
          </g>
          <g
             id="g4165">
            <path
               style="color:#000000;fill:#c6c6c6;fill-opacity:1;stroke:none;stroke-width:1;marker:none;visibility:visible;display:inline;overflow:visible;enable-background:accumulate"
               d="m 362.7031,252.5984 c 3.64425,0.14388 19.90114,0.76779 26.45304,1.44652 2.04798,0.21215 5.20676,-1.07228 7.20381,-0.82339 2.67933,0.33394 4.1767,2.2157 6.7657,2.61353 5.37165,0.82542 10.55052,1.78562 15.5435,2.86911 1.66168,0.3606 5.57563,-0.78038 7.19639,-0.3929 2.6033,0.62239 2.8813,2.79414 5.38073,3.48307 7.30199,2.01265 14.16521,4.30177 20.61591,6.82369 2.37418,0.92819 5.82891,0.37269 8.09264,1.36177 2.15384,0.94108 3.12186,3.42395 5.17803,4.4163 6.73647,3.25116 12.95476,6.76744 18.69453,10.4829 1.75728,1.13752 5.74254,1.53609 7.41125,2.70906 2.01078,1.41341 1.68524,3.6088 3.57107,5.06763 5.84994,4.52537 11.10822,9.25328 15.83424,14.08489 1.97699,2.02115 5.75487,2.92402 7.54992,4.97423 1.30725,1.49305 0.67337,4.12832 1.88811,5.63015 4.47578,5.53355 8.33509,11.10771 11.66196,16.58269 4.75517,2.04003 8.90628,4.28114 5.54245,9.93465 2.46604,4.83223 4.53242,9.51074 6.26282,13.92961 5.66216,6.55709 7.24084,7.25313 4.70854,13.96519 3.46809,12.22649 4.04213,20.26961 4.04213,20.26961 3.04406,4.16355 4.05698,7.86959 1.45024,13.23594 0,0 0.34423,19.82524 -3.46614,36.20978 -3.78808,16.28871 -10.92623,19.73089 -15.10529,19.14736 -4.17905,-0.58352 -12.38642,-2.36475 -8.63642,-16.29332 3.75,-13.92857 9.10714,-20.35715 10.17857,-37.5 1.07143,-17.14286 -14.8474,-138.09012 -180.36902,-138.09012 -165.52162,0 -181.44045,120.94726 -180.36902,138.09012 1.07143,17.14285 6.42857,23.57143 10.17857,37.5 3.75,13.92857 -4.45737,15.7098 -8.63642,16.29332 -4.17906,0.58353 -11.3172,-2.85865 -15.10529,-19.14736 -3.81037,-16.38454 -3.46614,-36.20978 -3.46614,-36.20978 -2.60674,-5.36635 -1.59381,-9.07239 1.45025,-13.23594 0,0 0.57404,-8.04312 4.04213,-20.26961 -2.5323,-6.71206 -0.95362,-7.4081 4.70854,-13.96519 1.7304,-4.41887 3.79678,-9.09738 6.26282,-13.92961 -3.36383,-5.65351 0.78728,-7.89462 5.54245,-9.93465 3.32687,-5.47498 7.18618,-11.04914 11.66196,-16.58269 1.21474,-1.50183 0.58086,-4.1371 1.88811,-5.63015 1.79505,-2.05021 5.57293,-2.95308 7.54992,-4.97423 4.72602,-4.83161 9.9843,-9.55952 15.83424,-14.08489 1.88583,-1.45883 1.56029,-3.65422 3.57107,-5.06763 1.66871,-1.17297 5.65397,-1.57154 7.41125,-2.70906 5.73977,-3.71546 11.95806,-7.23174 18.69453,-10.4829 2.05617,-0.99235 3.02419,-3.47522 5.17803,-4.4163 2.26373,-0.98908 5.71846,-0.43358 8.09264,-1.36177 6.45069,-2.52192 13.31392,-4.81104 20.6159,-6.82369 2.49944,-0.68893 2.77743,-2.86068 5.38074,-3.48307 1.62076,-0.38748 5.53471,0.7535 7.19639,0.3929 4.99298,-1.08349 10.17185,-2.04369 15.5435,-2.86911 2.589,-0.39783 4.08637,-2.27959 6.7657,-2.61353 1.99705,-0.24889 5.15582,1.03554 7.2038,0.82339 6.5519,-0.67873 22.80879,-1.30264 26.45304,-1.44652 1.40624,-0.0555 2.7524,-1.32137 6.35129,-1.32137 3.59889,0 4.94505,1.26584 6.35129,1.32137 z"
               id="path3381"
               inkscape:connector-curvature="0"
               sodipodi:nodetypes="ssssssssssssssssccccccszscccccsccccccsssssssssssssssscs" />
            <path
               inkscape:connector-curvature="0"
               id="path4158"
               transform="translate(-0.088635,0)"
               d="m 356.4375,251.28125 c -3.59889,0 -4.93751,1.257 -6.34375,1.3125 -3.64425,0.14388 -19.91685,0.75877 -26.46875,1.4375 -2.04798,0.21215 -5.19045,-1.06139 -7.1875,-0.8125 -2.67933,0.33394 -4.19225,2.22717 -6.78125,2.625 -5.37165,0.82542 -10.53827,1.79151 -15.53125,2.875 -1.66168,0.3606 -5.56674,-0.79373 -7.1875,-0.40625 -2.60331,0.62239 -2.90681,2.77982 -5.40625,3.46875 -7.30198,2.01265 -14.14306,4.32183 -20.59375,6.84375 -2.37418,0.92819 -5.83002,0.35467 -8.09375,1.34375 -2.15384,0.94108 -3.13133,3.44515 -5.1875,4.4375 -6.73647,3.25116 -12.94773,6.75329 -18.6875,10.46875 -1.75728,1.13752 -5.73754,1.54578 -7.40625,2.71875 -2.01078,1.41341 -1.70792,3.60367 -3.59375,5.0625 -5.84994,4.52537 -11.08648,9.26214 -15.8125,14.09375 -1.97699,2.02115 -5.76745,2.91854 -7.5625,4.96875 -1.30725,1.49305 -0.66026,4.12317 -1.875,5.625 -4.47578,5.53355 -8.32938,11.11877 -11.65625,16.59375 -4.75517,2.04003 -8.92633,4.28399 -5.5625,9.9375 -2.46604,4.83223 -4.5196,9.48738 -6.25,13.90625 -5.66216,6.55709 -7.25105,7.25669 -4.71875,13.96875 -3.46809,12.22649 -4.03125,20.28125 -4.03125,20.28125 -3.04406,4.16355 -4.07549,7.8524 -1.46875,13.21875 0,0 -0.34162,19.83421 3.46875,36.21875 2.06157,8.86473 5.1272,13.917 8.15625,16.59375 2.06516,0.3179 4.05633,0.46108 5.875,0.34375 -0.75762,-0.75762 -8.34073,-12.1396 -11.75,-23.125 -3.40926,-10.98541 -1.125,-28.78125 -1.125,-28.78125 0,0 -2.65625,-3.04045 -2.65625,-8.34375 1.86935,1.11774 6.4375,9.09375 6.4375,9.09375 0.81153,1.21729 -0.81612,-7.67158 -4.15625,-13.25 -0.61537,-1.02775 2.64483,-16.30108 3.78125,-17.4375 1.13642,-1.13642 4.53125,11 4.53125,11 0,0 1.14023,-4.54045 -0.375,-9.84375 -1.51523,-5.3033 -3.03125,-7.21574 -3.03125,-10.625 0,-3.40927 4.55108,-6.80187 5.6875,-10.96875 1.13642,-4.16688 3.40625,-9.09375 3.40625,-9.09375 l 1.90625,8.3125 c 0,0 2.25381,-3.78284 1.875,-9.84375 -0.3788,-6.06092 -0.74159,-8.32471 1.53125,-10.21875 2.27285,-1.89403 12.5,-14.03125 12.5,-14.03125 0.63135,3.40926 -1.87624,6.84074 1.875,10.25 -0.35495,-6.88016 1.33739,-14.92031 4.9375,-20.09375 9.80068,-5.6075 16.05037,-11.08483 24.625,-19.3125 -0.17459,3.06635 -7.49168,9.04812 -3.78125,11.375 0,0 4.51983,-4.93068 5.65625,-8.71875 1.13643,-3.78807 1.14483,-4.55488 2.28125,-5.3125 1.13642,-0.75761 17.05869,-9.47637 17.4375,-8.71875 0.20762,4.95343 -4.27576,8.29228 -7.21875,12.125 4.92185,-4.09805 8.89237,-7.67916 11.375,-13.625 1.13642,-2.65165 -0.38103,-3.03966 6.4375,-5.3125 6.81853,-2.27285 20.09375,-6.4375 20.09375,-6.4375 l -7.21875,7.96875 c 0,0 1.91545,1.89705 7.21875,-3.40625 5.3033,-5.3033 10.97033,-8.34375 17.03125,-8.34375 6.06091,0 10.21875,-0.375 10.21875,-0.375 l -9.46875,8.3125 c 0,0 1.13499,1.52966 9.46875,-4.53125 8.33376,-6.06092 17.8125,-9.84375 17.8125,-9.84375 l -2.28125,3.78125 c 0,0 2.29045,-1.51602 7.59375,-3.03125 5.3033,-1.51522 12.125,0.375 12.125,0.375 l -6.8125,5.3125 c 0,0 4.16545,0.76444 9.46875,-3.78125 5.3033,-4.54569 10.98255,-4.17529 18.9375,-2.28125 7.95495,1.89403 15.15625,0.75 15.15625,0.75 0,0 -5.31028,4.16656 -11.75,6.25 0.37881,0.94702 9.47795,-0.93449 14.78125,-4.34375 5.3033,-3.40927 6.04346,-3.40625 7.9375,-3.40625 1.89404,0 7.21574,2.64483 10.625,3.78125 3.40927,1.13643 9.0625,0.75 9.0625,0.75 -4.28755,3.32627 -11.24004,1.41938 -14,6.4375 0,0 12.11437,-1.50841 16.28125,-3.78125 4.16688,-2.27284 8.71954,-3.80028 11.75,-1.90625 3.03046,1.89404 5.30948,4.55869 8.71875,4.9375 3.40926,0.3788 2.63183,2.28125 -1.15625,2.28125 -3.78807,0 -11.71875,2.25 -11.71875,2.25 0,0 9.08771,0.38262 15.90625,-0.375 5.023,-0.55811 12.10136,3.41767 11.34375,2.28125 -0.75761,-1.13642 -2.2584,-3.40245 -4.53125,-3.78125 -2.27284,-0.37881 6.05949,-0.77665 9.46875,1.875 0,0 0.74699,2.27364 4.15625,3.03125 3.40927,0.75762 9.46875,4.1875 9.46875,4.1875 0,0 -9.08883,7.9e-4 -12.6875,3.03125 7.76555,0.75761 21.78664,-0.003 27.46875,3.40625 l 11.375,6.8125 c 0,0 -11.38151,-1.51904 -13.84375,0.375 5.4927,1.51523 13.21194,1.34589 23,7.21875 9.78809,5.87283 16,16.90625 16,16.90625 0,0 -11.52903,-3.67608 -17.96875,-4.8125 -7.86385,-7.98984 -18.95456,-13.14447 -29.125,-16.4375 26.84583,16.03008 43.37524,37.07769 53.4375,56.6875 -5.61014,-17.51041 -22,-37.34375 -22,-37.34375 6.06092,1.13642 21.125,6.40625 21.125,6.40625 0,0 -2.58995,-2.48858 -2.96875,-3.625 -0.18061,-0.54183 0.58584,-0.91781 1.4375,-1.15625 -0.50474,-1.4924 -0.32742,-3.39728 -1.375,-4.59375 -1.79505,-2.05021 -5.58551,-2.9476 -7.5625,-4.96875 -4.72602,-4.83161 -9.96256,-9.56838 -15.8125,-14.09375 -1.88583,-1.45883 -1.58297,-3.64909 -3.59375,-5.0625 -1.66871,-1.17297 -5.64897,-1.58123 -7.40625,-2.71875 -5.73977,-3.71546 -11.95103,-7.21759 -18.6875,-10.46875 -2.05617,-0.99235 -3.03366,-3.49642 -5.1875,-4.4375 -2.26373,-0.98908 -5.71957,-0.41556 -8.09375,-1.34375 -6.4507,-2.52192 -13.29176,-4.8311 -20.59375,-6.84375 -2.49943,-0.68893 -2.7717,-2.84636 -5.375,-3.46875 -1.62076,-0.38748 -5.55707,0.76685 -7.21875,0.40625 -4.99298,-1.08349 -10.1596,-2.04958 -15.53125,-2.875 -2.589,-0.39783 -4.10192,-2.29106 -6.78125,-2.625 -1.99705,-0.24889 -5.13952,1.02465 -7.1875,0.8125 -6.5519,-0.67873 -22.8245,-1.29362 -26.46875,-1.4375 -1.40624,-0.0555 -2.74486,-1.3125 -6.34375,-1.3125 z m 158.75,83.5 c 0,0 4.14562,4.91846 8.3125,6.8125 4.16688,1.89403 8.34375,6.44511 8.34375,5.6875 0,-0.75762 -3.79426,-6.82471 -8.71875,-8.71875 -4.92449,-1.89404 -7.9375,-3.78125 -7.9375,-3.78125 z M 525.78125,358.25 c 0,0 0.38801,3.80949 5.3125,7.21875 4.92449,3.40927 8.71875,8.6875 8.71875,8.6875 0,0 -1.13419,-8.32091 -6.4375,-10.59375 -5.3033,-2.27285 -7.59375,-5.3125 -7.59375,-5.3125 z m 9.84375,29.5625 c 0,0 0.77823,9.09454 4.1875,12.125 3.40926,3.03045 5.28125,9.09375 5.28125,9.09375 0,0 -2.2508,-9.84454 -5.28125,-12.875 -3.03046,-3.03045 -4.1875,-8.34375 -4.1875,-8.34375 z m 1.1875,15.71875 c 0.0441,1.30582 0.0523,2.44422 0,3.28125 -1.07143,17.14285 -6.4375,23.57143 -10.1875,37.5 -3.75,13.92857 4.4772,15.72898 8.65625,16.3125 0.16056,0.0224 0.33107,0.0212 0.5,0.0312 1.81688,-0.43143 3.68722,-1.12468 4.78125,-2.375 2.65165,-3.03046 -6.82091,-0.39181 -9.09375,-4.9375 -2.27284,-4.54568 0.37199,-19.31789 3.78125,-25 3.22313,-5.37187 5.7753,-18.8734 1.5625,-24.8125 z"
               style="color:#000000;fill:#ffffff;stroke:none;stroke-width:1;marker:none;visibility:visible;display:inline;overflow:visible;enable-background:accumulate" />
            <path
               sodipodi:nodetypes="cssccsscccsccsccccscccccccccc"
               inkscape:connector-curvature="0"
               id="path4153"
               transform="translate(-0.088635,0)"
               d="m 178.53125,423.28125 c 0,0 4.92989,15.55266 5.6875,22.75 0.75762,7.19733 -2.63801,11.33613 -7.5625,12.09375 C 171.73175,458.88261 163,443.375 163,443.375 c 0.005,0.0192 -0.005,0.0433 0,0.0625 3.88846,14.5741 10.6227,17.74635 14.625,17.1875 4.17905,-0.58352 12.375,-2.38393 8.625,-16.3125 -2.24375,-8.33394 -5.05531,-13.97826 -7.1875,-20.84375 -0.23198,-0.0876 -0.53125,-0.1875 -0.53125,-0.1875 z m 374.4375,1.375 c -2.10692,4.64426 -5.33383,12.40281 -7.96875,21.625 -2.49895,8.74632 -6.99259,12.57788 -10.3125,14.25 0.18978,0.0298 0.41715,0.0691 0.59375,0.0937 4.17906,0.58353 11.30567,-2.86754 15.09375,-19.15625 1.28242,-5.51438 2.08103,-11.40561 2.59375,-16.8125 z M 539.674,405.73828 c 0,0 4.16688,15.90991 4.16688,26.89532 0,0 2.27284,-10.60661 0.75761,-17.80394 -1.51523,-7.19734 -4.92449,-9.09138 -4.92449,-9.09138 z m -1.89404,-29.16815 c 0,0 7.95496,5.3033 11.74303,14.01587 0,0 -5.30331,-15.90991 -11.74303,-14.01587 z m 1.51523,-19.69798 c 0,0 -7.19734,-7.57614 -12.87945,-11.36422 10.22779,3.03045 12.87945,11.36422 12.87945,11.36422 z M 525.65813,333.0073 c 0,0 -6.06091,-6.06091 -10.22779,-9.84899 0,0 7.95495,1.13642 10.22779,9.84899 z M 412.77358,266.71604 c 0,0 -8.71256,1.89404 -10.22779,3.03046 -1.51523,1.13642 5.3033,1.89403 10.22779,-3.03046 z m -26.13769,-4.92449 c -1.13642,0 -10.6066,2.65165 -12.12183,4.54568 -1.51523,1.89404 7.57614,0 12.12183,-4.54568 z m -31.441,-0.37881 c 0,0 -6.43972,2.27284 -9.84899,4.16688 -3.40926,1.89403 1.13642,2.27284 3.40927,1.89403 2.27284,-0.3788 6.43972,-6.06091 6.43972,-6.06091 z m -30.30458,0 c 0,0 -8.33376,3.40926 -12.50064,6.43972 -4.16687,3.03046 -3.40926,4.16688 -2.27284,3.78807 1.13642,-0.3788 12.87945,-3.78807 12.87945,-3.78807 l -8.71257,0.75762 c 0,0 8.33376,-6.06092 10.6066,-7.19734 z m -33.33503,6.81853 c 0,0 -10.2278,6.43972 -12.50064,8.71256 -2.27284,2.27285 -0.75761,2.65165 -0.75761,2.65165 l 15.53109,-6.81853 -10.22779,3.40927 z m -29.54696,9.47018 c 0,0 -12.87945,10.98541 -13.63706,13.63706 -0.75762,2.65165 18.94036,-10.6066 18.18274,-10.6066 -0.75761,0 -11.74302,5.3033 -11.74302,5.3033 0,0 4.16688,-4.16688 7.19734,-8.33376 z m -28.03174,15.15229 c 0,0 -4.16688,3.03045 -7.19733,7.95495 -3.03046,4.92449 -2.27285,6.43972 -2.27285,6.43972 l 12.12183,-9.47018 -7.57614,3.40927 z m -29.54696,17.42513 c 0,0 -1.89403,10.22779 -1.13642,17.80394 l 7.19734,-11.74303 -5.68211,5.68211 c 0,0 0.3788,-8.71256 -0.37881,-11.74302 z m -17.80394,23.86485 c 0,0 -1.13642,15.5311 0,17.80394 1.13642,2.27284 6.81853,-11.36422 6.81853,-11.36422 l -5.3033,5.30331 c 0,0 0,-8.71257 -1.51523,-11.74303 z m -14.01586,31.441 c 0,0 1.13642,14.01587 3.03045,17.04632 1.89404,3.03046 3.03046,-8.33375 3.78808,-12.12183 0.75761,-3.78807 2.65165,-9.09137 2.65165,-9.09137 0,0 -3.03046,1.51523 -3.78808,5.68211 -0.75761,4.16688 -1.89403,9.47018 -2.27284,8.71256 -0.37881,-0.75761 -1.13642,-7.95495 -3.40926,-10.22779 z m -4.16688,29.54696 c 0,0 0,7.19734 2.27284,10.6066 2.27284,3.40927 3.78807,2.65165 3.40927,1.51523 -0.37881,-1.13642 -0.37881,-12.87944 -0.37881,-12.87944 l -1.89404,5.3033 z"
               style="color:#000000;fill:#919191;fill-opacity:1;stroke:none;stroke-width:1;marker:none;visibility:visible;display:inline;overflow:visible;enable-background:accumulate" />
          </g>
        </g>
        <g
           id="g3338">
          <path
             sodipodi:nodetypes="cszscccc"
             inkscape:connector-curvature="0"
             id="path3004"
             d="m 511.93751,417.00502 c 0,0 0,16.28571 0,73.17857 0,56.89286 -57.38155,111.10715 -157.47322,111.10715 -100.09167,0 -157.47322,-54.21429 -157.47322,-111.10715 0,-56.89286 0,-73.17857 0,-73.17857 0,0 -11.26339,-2.74113 -11.26339,-19.25018 l 337.47322,0 c 0,16.50905 -11.26339,19.25018 -11.26339,19.25018 z"
             style="color:#000000;fill:#c6c6c6;fill-opacity:1;stroke:none;stroke-width:1;marker:none;visibility:visible;display:inline;overflow:visible;enable-background:accumulate" />
          <path
             inkscape:connector-curvature="0"
             id="path3008"
             d="M 185.71875,397.75 C 185.71875,414.25905 197,417 197,417 l 0,73.1875 c 0,40.09098 28.48999,78.85249 80.34375,98.25 -33.96827,-16.19362 -56.76594,-42.34868 -67.65625,-69.96875 1.50203,1.20841 3.45059,2 6.34375,2 4.32992,0 85.99697,-0.40504 88.78125,-2.53125 -16.56277,-1.57707 -32.77662,-1.86884 -48.875,-1.8125 -15.7136,0.055 -31.31149,0.42666 -47.0625,0.28125 -0.70276,-1.89043 -1.34642,-3.78799 -1.9375,-5.6875 0.62902,-0.29723 1.43803,-0.559 2.53125,-0.6875 3.71317,-0.43646 87.90322,-0.43629 90.6875,-2.5625 -16.56277,-1.57707 -32.77662,-1.86885 -48.875,-1.8125 -15.24563,0.0534 -30.41129,0.4208 -45.6875,0.3125 -0.51284,-1.96098 -0.98173,-3.91496 -1.375,-5.875 0.57068,-0.22537 1.27121,-0.42722 2.15625,-0.53125 3.71317,-0.43646 86.30947,-0.40504 89.09375,-2.53125 -16.56277,-1.57707 -32.3659,-1.86885 -48.0625,-1.8125 -14.57542,0.0523 -29.07823,0.37254 -44,0.28125 -0.30371,-1.98421 -0.5392,-3.96514 -0.71875,-5.9375 0.50992,-0.18751 1.10213,-0.34675 1.84375,-0.4375 3.56698,-0.43646 83.60658,-0.40503 86.28125,-2.53125 -15.9107,-1.57706 -31.27893,-1.86884 -46.53125,-1.8125 -13.93321,0.0515 -27.79287,0.35718 -41.90625,0.28125 -0.0573,-1.32626 -0.0937,-2.65245 -0.0937,-3.96875 0,-0.64016 1.9e-4,-1.09111 0,-1.71875 0.62212,-0.29198 1.42187,-0.56077 2.5,-0.6875 3.71317,-0.43646 87.90322,-0.40504 90.6875,-2.53125 -16.56277,-1.57707 -32.77662,-1.86885 -48.875,-1.8125 -14.79845,0.0518 -29.49486,0.36294 -44.3125,0.28125 -0.002,-1.9429 -0.0272,-3.80987 -0.0312,-5.625 0.654,-0.31796 1.50729,-0.61447 2.6875,-0.75 3.80088,-0.43646 92.3687,-0.40503 95.21875,-2.53125 -16.95402,-1.57706 -34.14553,-1.9001 -51.21875,-1.84375 -15.74674,0.052 -31.38463,0.39317 -46.6875,0.3125 -0.006,-1.97555 -0.023,-3.74669 -0.0312,-5.5625 0.69132,-0.3466 1.6139,-0.66559 2.9375,-0.8125 3.93246,-0.43646 96.70754,-0.43628 99.65625,-2.5625 -17.54089,-1.57706 -35.61103,-1.86885 -53.5625,-1.8125 -16.62897,0.0522 -33.12783,0.3702 -49.0625,0.28125 -0.0108,-1.79332 -0.0187,-3.84492 -0.0312,-5.46875 0.72457,-0.38762 1.75885,-0.74668 3.25,-0.90625 4.07864,-0.43646 101.03542,-0.40503 104.09375,-2.53125 -18.19297,-1.57706 -37.10871,-1.86885 -55.90625,-1.8125 -17.48913,0.0524 -34.84971,0.37445 -51.46875,0.28125 -0.0181,-1.83721 -0.0426,-3.6581 -0.0625,-5.25 0.7717,-0.46269 1.94653,-0.93742 3.8125,-1.125 4.34178,-0.43646 105.02561,-0.40503 108.28125,-2.53125 -19.36671,-1.57706 -38.86393,-1.86885 -58.25,-1.8125 -18.15048,0.0528 -36.18621,0.38071 -53.90625,0.28125 -0.0284,-1.75564 -0.0646,-3.63983 -0.0937,-5.03125 0.79383,-0.53137 2.1753,-1.12549 4.5,-1.34375 4.64878,-0.43646 108.95167,-0.40503 112.4375,-2.53125 -20.73607,-1.57706 -40.74698,-1.86885 -60.625,-1.8125 -18.75654,0.0532 -37.41246,0.38869 -56.4375,0.28125 -0.13325,-4.34901 -0.25,-5.40625 -0.25,-5.40625 0,0 -2.52829,-2.24181 -4.78125,-5.375 0.74198,-0.42007 1.83238,-0.81726 3.5,-0.96875 4.16636,-0.37847 97.65715,0.95773 100.78125,-1.125 -36.85734,-3.64076 -71.16295,-2.22058 -107.0625,-3.03125 -0.4026,-1.14182 -0.65625,-2.29204 -0.65625,-3.4375 l 187.5,0 c 80.1804,0 131.64078,-4.17576 142.375,-5.125 3.4e-4,-0.064 0,-0.12304 0,-0.1875 l -337.46875,0 z m 64.6875,128.6875 c -19.18752,0.0123 -34.21875,0.40625 -34.21875,0.40625 0,0 0.91264,4.0625 6.40625,4.0625 5.49362,0 84.12197,-0.40504 86.90625,-2.53125 -16.56277,-1.57707 -39.90623,-1.94984 -59.09375,-1.9375 z M 257.875,537 c -17.78632,0.0123 -31.4375,0.40625 -31.4375,0.40625 0,0 -0.28128,4.0625 6.4375,4.0625 6.71877,0 78.49697,-0.40504 81.28125,-2.53125 C 297.59348,537.36043 275.66132,536.98766 257.875,537 z m 6.6875,10.3125 c -16.78632,0.0123 -29.4375,0.40625 -29.4375,0.40625 0,0 -0.31253,4.09375 6.40625,4.09375 6.71877,0 74.52822,-0.43629 77.3125,-2.5625 -16.56277,-1.57707 -37.49493,-1.94984 -54.28125,-1.9375 z m 30.5,9.5 c -16.09838,0.0563 -32.10539,0.48853 -48.25,0.3125 1.71572,2.33497 3.98258,4.0625 8.3125,4.0625 4.32992,0 85.99697,-0.43629 88.78125,-2.5625 -16.56277,-1.57707 -32.74537,-1.86884 -48.84375,-1.8125 z m 13.375,9.125 c -16.09838,0.0563 -32.07414,0.45728 -48.21875,0.28125 1.71572,2.33497 3.98258,4.0625 8.3125,4.0625 4.32992,0 85.99697,-0.40504 88.78125,-2.53125 -16.56277,-1.57707 -32.77662,-1.86884 -48.875,-1.8125 z m 11.8125,9.625 c -16.09838,0.0563 -32.10539,0.48853 -48.25,0.3125 1.71572,2.33497 3.98258,4.0625 8.3125,4.0625 4.32992,0 85.99697,-0.43629 88.78125,-2.5625 -16.56277,-1.57707 -32.74537,-1.86884 -48.84375,-1.8125 z m 17.65625,7.5 c -16.09838,0.0563 -32.07413,0.48853 -48.21875,0.3125 1.71572,2.33497 3.98258,4.0625 8.3125,4.0625 4.32992,0 85.99697,-0.43629 88.78125,-2.5625 -16.56277,-1.57707 -32.77662,-1.86884 -48.875,-1.8125 z"
             style="color:#000000;fill:#ffffff;stroke:none;stroke-width:1;marker:none;visibility:visible;display:inline;overflow:visible;enable-background:accumulate" />
          <path
             inkscape:connector-curvature="0"
             id="path3194"
             d="m 512.21875,410.625 c -32.28923,0.35206 -273.8432,2.15836 -306.96875,5.3125 2.78428,2.12621 295.78322,-1.46859 300.53125,-1.25 4.74803,0.21859 7.83004,-1.65055 6.4375,-4.0625 z m -3.03125,9.875 c -32.28923,0.35206 -63.7182,1.6613 -94.84375,4.625 14.93761,0.92641 83.65822,-0.78109 88.40625,-0.5625 4.74803,0.21859 7.83004,-1.65055 6.4375,-4.0625 z m 0,9.625 c -32.28923,0.35206 -48.7182,1.69255 -79.84375,4.65625 14.93761,0.92641 68.65822,-0.81234 73.40625,-0.59375 4.74803,0.21859 7.83004,-1.65055 6.4375,-4.0625 z m 0,10.1875 c -32.28923,0.35206 -40.12445,1.69255 -71.25,4.65625 14.93761,0.92641 60.06447,-0.81234 64.8125,-0.59375 4.74803,0.21859 7.83004,-1.65055 6.4375,-4.0625 z m 0,10.1875 c -32.28923,0.35206 -42.7807,2.42304 -65.90625,4.625 11.09829,0.6883 54.72072,-0.78109 59.46875,-0.5625 4.74803,0.21859 7.83004,-1.65055 6.4375,-4.0625 z m -2.6875,9.625 c -32.28923,0.35206 -32.0932,1.69255 -63.21875,4.65625 14.93761,0.92641 52.06447,-0.81234 56.8125,-0.59375 4.74803,0.21859 7.79879,-1.65055 6.40625,-4.0625 z m -1.0625,10.1875 c -32.28923,0.35206 -36.37445,1.69255 -67.5,4.65625 14.93761,0.92641 56.31447,-0.81234 61.0625,-0.59375 4.74803,0.21859 7.83004,-1.65055 6.4375,-4.0625 z m -1.09375,9.625 c -32.28923,0.35206 -35.2807,1.69255 -66.40625,4.65625 14.93761,0.92641 55.25197,-0.78109 60,-0.5625 4.74803,0.21859 7.79879,-1.6818 6.40625,-4.09375 z m -1.0625,9.125 c -32.28923,0.35206 -35.31195,1.69255 -66.4375,4.65625 14.93761,0.92641 55.28322,-0.81234 60.03125,-0.59375 4.74803,0.21859 7.79879,-1.65055 6.40625,-4.0625 z m -1.59375,9.09375 c -32.28923,0.35206 -33.7182,1.69255 -64.84375,4.65625 14.93761,0.92641 53.65822,-0.81234 58.40625,-0.59375 4.74803,0.21859 7.83004,-1.65055 6.4375,-4.0625 z M 499,508.875 c -32.28923,0.35206 -34.7807,0.0676 -65.90625,3.03125 14.93761,0.92641 54.75197,0.81266 59.5,1.03125 4.74803,0.21859 7.79879,-1.65055 6.40625,-4.0625 z M 495.25,518 c -32.28923,0.35206 -42.27177,0.60773 -63.21875,2.5 14.93761,0.92641 52.06447,1.34391 56.8125,1.5625 4.74803,0.21859 7.79879,-1.65055 6.40625,-4.0625 z m -4.28125,8.5625 c -32.28923,0.35206 -35.8432,0.0676 -66.96875,3.03125 14.93761,0.92641 55.81447,0.81266 60.5625,1.03125 4.74803,0.21859 7.79879,-1.65055 6.40625,-4.0625 z m -4.8125,8.03125 c -32.28923,0.35206 -41.74945,0.5988 -72.875,3.5625 14.93761,0.92641 61.68947,0.28141 66.4375,0.5 4.74803,0.21859 7.83004,-1.65055 6.4375,-4.0625 z m -6.4375,9.09375 c -32.28923,0.35206 -44.9682,1.71041 -72.34375,2.53125 17.08047,2.53356 61.18947,1.34391 65.9375,1.5625 4.74803,0.21859 7.79879,-1.6818 6.40625,-4.09375 z m -5.90625,8.0625 c -32.28923,0.35206 -44.49945,1.17011 -69.625,3.5625 12.05812,0.74783 58.47072,0.28141 63.21875,0.5 4.74803,0.21859 7.79879,-1.65055 6.40625,-4.0625 z m -7.5,8.03125 c -32.28923,0.35206 -44.9057,1.89179 -68.03125,4.09375 11.0983,0.6883 56.87697,-0.24982 61.625,-0.0312 4.74803,0.21859 7.79879,-1.65055 6.40625,-4.0625 z M 457.75,566.75 c -32.28923,0.35206 -41.99945,2.57342 -69.125,5.15625 13.01795,0.80736 57.97072,-1.31234 62.71875,-1.09375 4.74803,0.21859 7.79879,-1.65055 6.40625,-4.0625 z m -10.71875,8.03125 c -32.28923,0.35206 -40.12445,1.13005 -71.25,4.09375 14.93761,0.92641 60.09572,-0.24982 64.84375,-0.0312 4.74803,0.21859 7.79879,-1.65055 6.40625,-4.0625 z m -15,6.40625 c -32.28923,0.35206 -35.18695,1.84385 -42.3125,3.59375 3.41966,0.21208 31.15822,0.28141 35.90625,0.5 4.74803,0.21859 7.79879,-1.6818 6.40625,-4.09375 z M 416.5,587.625 c -32.28923,0.35206 -46.06195,3.25608 -55.1875,4.125 4.37948,0.27161 44.03322,-0.28107 48.78125,-0.0625 4.74803,0.21859 7.79879,-1.65055 6.40625,-4.0625 z"
             style="color:#000000;fill:#919191;fill-opacity:1;stroke:none;stroke-width:1;marker:none;visibility:visible;display:inline;overflow:visible;enable-background:accumulate" />
        </g>
      </g>
      <g
         clip-path="url(#clipPath4238)"
         transform="translate(-1.4999999e-6,0)"
         id="g4231">
        <path
           sodipodi:nodetypes="czzzzzzzzzcczzzzzzzzzcc"
           inkscape:connector-curvature="0"
           id="path4225"
           d="m 614.68755,728.6083 c -19.68323,0 -32.36142,-15.45432 -52.04465,-15.45432 -19.68323,0 -32.36142,15.45432 -52.04465,15.45432 -19.68323,0 -32.36143,-15.45432 -52.04466,-15.45432 -19.68323,0 -32.36142,15.45432 -52.04465,15.45432 -19.68323,0 -32.36142,-15.45432 -52.04465,-15.45432 -19.68323,0 -32.36143,15.45432 -52.04466,15.45432 -19.68323,0 -32.36142,-15.45432 -52.04465,-15.45432 -19.68323,0 -32.36142,15.45432 -52.04465,15.45432 -19.68323,0 -32.36143,-15.45432 -52.04466,-15.45432 -19.68323,0 -32.36142,15.45432 -52.044651,15.45432 l 0,-98.48987 c 19.683231,0 32.361421,-15.45432 52.044651,-15.45432 19.68323,0 32.36143,15.45432 52.04466,15.45432 19.68323,0 32.36142,-15.45432 52.04465,-15.45432 19.68323,0 32.36142,15.45432 52.04465,15.45432 19.68323,0 32.36143,-15.45432 52.04466,-15.45432 19.68323,0 32.36142,15.45432 52.04465,15.45432 19.68323,0 32.36142,-15.45432 52.04465,-15.45432 19.68323,0 32.36143,15.45432 52.04466,15.45432 19.68323,0 32.36142,-15.45432 52.04465,-15.45432 19.68323,0 32.36142,15.45432 52.04465,15.45432 z"
           style="color:#000000;fill:#c6c6c6;fill-opacity:1;stroke:none;stroke-width:1;marker:none;visibility:visible;display:inline;overflow:visible;enable-background:accumulate" />
        <path
           style="color:#000000;fill:#ffffff;stroke:none;stroke-width:1;marker:none;visibility:visible;display:inline;overflow:visible;enable-background:accumulate"
           d="m 614.68755,636.6083 c -19.68323,0 -32.36142,-15.45432 -52.04465,-15.45432 -19.68323,0 -32.36142,15.45432 -52.04465,15.45432 -19.68323,0 -32.36143,-15.45432 -52.04466,-15.45432 -19.68323,0 -32.36142,15.45432 -52.04465,15.45432 -19.68323,0 -32.36142,-15.45432 -52.04465,-15.45432 -19.68323,0 -32.36143,15.45432 -52.04466,15.45432 -19.68323,0 -32.36142,-15.45432 -52.04465,-15.45432 -19.68323,0 -32.36142,15.45432 -52.04465,15.45432 -19.68323,0 -32.36143,-15.45432 -52.04466,-15.45432 -19.68323,0 -32.36142,15.45432 -52.044651,15.45432 l 0,-6.48987 c 19.683231,0 32.361421,-15.45432 52.044651,-15.45432 19.68323,0 32.36143,15.45432 52.04466,15.45432 19.68323,0 32.36142,-15.45432 52.04465,-15.45432 19.68323,0 32.36142,15.45432 52.04465,15.45432 19.68323,0 32.36143,-15.45432 52.04466,-15.45432 19.68323,0 32.36142,15.45432 52.04465,15.45432 19.68323,0 32.36142,-15.45432 52.04465,-15.45432 19.68323,0 32.36143,15.45432 52.04466,15.45432 19.68323,0 32.36142,-15.45432 52.04465,-15.45432 19.68323,0 32.36142,15.45432 52.04465,15.45432 z"
           id="path4227"
           inkscape:connector-curvature="0"
           sodipodi:nodetypes="czzzzzzzzzcczzzzzzzzzcc" />
        <path
           sodipodi:nodetypes="czzzzzzzzzcczzzzzzzzzcc"
           inkscape:connector-curvature="0"
           id="path4229"
           d="m 614.68755,724.6083 c -19.68323,0 -32.36142,-15.45432 -52.04465,-15.45432 -19.68323,0 -32.36142,15.45432 -52.04465,15.45432 -19.68323,0 -32.36143,-15.45432 -52.04466,-15.45432 -19.68323,0 -32.36142,15.45432 -52.04465,15.45432 -19.68323,0 -32.36142,-15.45432 -52.04465,-15.45432 -19.68323,0 -32.36143,15.45432 -52.04466,15.45432 -19.68323,0 -32.36142,-15.45432 -52.04465,-15.45432 -19.68323,0 -32.36142,15.45432 -52.04465,15.45432 -19.68323,0 -32.36143,-15.45432 -52.04466,-15.45432 -19.68323,0 -32.36142,15.45432 -52.044651,15.45432 l 0,-3.27558 c 19.683231,0 32.361421,-15.45432 52.044651,-15.45432 19.68323,0 32.36143,15.45432 52.04466,15.45432 19.68323,0 32.36142,-15.45432 52.04465,-15.45432 19.68323,0 32.36142,15.45432 52.04465,15.45432 19.68323,0 32.36143,-15.45432 52.04466,-15.45432 19.68323,0 32.36142,15.45432 52.04465,15.45432 19.68323,0 32.36142,-15.45432 52.04465,-15.45432 19.68323,0 32.36143,15.45432 52.04466,15.45432 19.68323,0 32.36142,-15.45432 52.04465,-15.45432 19.68323,0 32.36142,15.45432 52.04465,15.45432 z"
           style="color:#000000;fill:#919191;fill-opacity:1;stroke:none;stroke-width:1;marker:none;visibility:visible;display:inline;overflow:visible;enable-background:accumulate" />
      </g>
    </g>
  </g>
</svg>
