<?xml version="1.0" encoding="UTF-8" standalone="no"?>
<svg xmlns:dc="http://purl.org/dc/elements/1.1/" xmlns:cc="http://creativecommons.org/ns#" xmlns:rdf="http://www.w3.org/1999/02/22-rdf-syntax-ns#" xmlns:svg="http://www.w3.org/2000/svg" xmlns="http://www.w3.org/2000/svg" id="svg8" version="1.1" viewBox="0 0 132.29166 152.13542" height="575" width="500">
  <defs id="defs2"/>
  <metadata id="metadata5">
    <rdf:RDF>
      <cc:Work rdf:about="">
        <dc:format>image/svg+xml</dc:format>
        <dc:type rdf:resource="http://purl.org/dc/dcmitype/StillImage"/>
        <dc:title/>
      </cc:Work>
    </rdf:RDF>
  </metadata>
  <g transform="translate(-12.309656,-12.744114)" id="layer1">
    <path id="path848" d="m 12.309656,12.744114 v 88.343076 c 0,33.28296 28.353725,63.79234 66.145834,63.79234 37.79211,0 66.14583,-30.50938 66.14583,-63.79234 V 12.744114 Z" style="font-variation-settings:normal;vector-effect:none;fill:#e00606;fill-opacity:1;fill-rule:evenodd;stroke:none;stroke-width:0.264583;stroke-linecap:butt;stroke-linejoin:miter;stroke-miterlimit:4;stroke-dasharray:none;stroke-dashoffset:0;stroke-opacity:1;marker:none;marker-start:none;marker-mid:none;marker-end:none;stop-color:#000000"/>
    <g id="g1027" style="stroke:none;stroke-width:1.10601" transform="matrix(0.90546626,0,0,0.90283309,1.1636778,1.2383061)">
      <path id="path1023" style="color:#000000;display:inline;overflow:visible;visibility:visible;fill:#800000;fill-opacity:1;fill-rule:evenodd;stroke:none;stroke-width:0.292632;stroke-linecap:square;stroke-linejoin:miter;stroke-miterlimit:4;stroke-dasharray:none;stroke-dashoffset:0;stroke-opacity:1;marker:none;marker-start:none;marker-mid:none;marker-end:none;enable-background:accumulate" d="m 29.800719,21.169062 c -2.255321,0 -4.083549,1.828229 -4.083549,4.083548 0,0.930747 0.314997,1.786098 0.839272,2.472901 -0.473012,-0.191531 -0.989046,-0.299778 -1.530743,-0.299778 -2.255321,0 -4.083549,1.828751 -4.083549,4.084071 0,2.255319 1.828228,4.08355 4.083549,4.083547 1.496943,0 2.801791,-0.807988 3.512718,-2.009133 0.372948,2.846489 -1.627488,6.324456 -1.627488,6.324456 l 0.47486,0.583474 h 4.829858 c 0,0 -1.601755,-3.479986 -1.152628,-6.90793 0.710928,1.201145 2.015778,2.009133 3.512719,2.009133 2.255319,0 4.08355,-1.828228 4.08355,-4.083547 0,-2.25532 -1.828231,-4.084071 -4.08355,-4.084071 -0.541671,0 -1.057229,0.108263 -1.530219,0.299778 0.524227,-0.686787 0.83875,-1.542198 0.83875,-2.472901 0,-2.255318 -1.828231,-4.083548 -4.08355,-4.083548 z"/>
      <path d="m 29.325859,20.585589 c -2.255321,0 -4.083549,1.828229 -4.083549,4.083548 0,0.930747 0.314997,1.786098 0.839272,2.472901 -0.473012,-0.191531 -0.989046,-0.299778 -1.530743,-0.299778 -2.255321,0 -4.083549,1.828751 -4.083549,4.084071 0,2.255319 1.828228,4.08355 4.083549,4.083547 1.496943,0 2.801791,-0.807988 3.512718,-2.009133 0.449131,3.427946 -1.152628,6.90793 -1.152628,6.90793 h 4.829858 c 0,0 -1.601755,-3.479986 -1.152628,-6.90793 0.710928,1.201145 2.015778,2.009133 3.512719,2.009133 2.255319,0 4.08355,-1.828228 4.08355,-4.083547 0,-2.25532 -1.828231,-4.084071 -4.08355,-4.084071 -0.541671,0 -1.057229,0.108263 -1.530219,0.299778 0.524227,-0.686787 0.83875,-1.542198 0.83875,-2.472901 0,-2.255318 -1.828231,-4.083548 -4.08355,-4.083548 z" style="color:#000000;display:inline;overflow:visible;visibility:visible;fill:#ccae66;fill-opacity:1;fill-rule:evenodd;stroke:none;stroke-width:0.292633;stroke-linecap:square;stroke-linejoin:miter;stroke-miterlimit:4;stroke-dasharray:none;stroke-dashoffset:0;stroke-opacity:1;marker:none;marker-start:none;marker-mid:none;marker-end:none;enable-background:accumulate" id="path850"/>
    </g>
    <g id="use1055" style="stroke:none;stroke-width:1.10601" transform="matrix(0.90546626,0,0,0.90283309,1.1636778,40.068427)">
      <path id="path870" style="color:#000000;display:inline;overflow:visible;visibility:visible;fill:#800000;fill-opacity:1;fill-rule:evenodd;stroke:none;stroke-width:0.292632;stroke-linecap:square;stroke-linejoin:miter;stroke-miterlimit:4;stroke-dasharray:none;stroke-dashoffset:0;stroke-opacity:1;marker:none;marker-start:none;marker-mid:none;marker-end:none;enable-background:accumulate" d="m 29.800719,21.169062 c -2.255321,0 -4.083549,1.828229 -4.083549,4.083548 0,0.930747 0.314997,1.786098 0.839272,2.472901 -0.473012,-0.191531 -0.989046,-0.299778 -1.530743,-0.299778 -2.255321,0 -4.083549,1.828751 -4.083549,4.084071 0,2.255319 1.828228,4.08355 4.083549,4.083547 1.496943,0 2.801791,-0.807988 3.512718,-2.009133 0.372948,2.846489 -1.627488,6.324456 -1.627488,6.324456 l 0.47486,0.583474 h 4.829858 c 0,0 -1.601755,-3.479986 -1.152628,-6.90793 0.710928,1.201145 2.015778,2.009133 3.512719,2.009133 2.255319,0 4.08355,-1.828228 4.08355,-4.083547 0,-2.25532 -1.828231,-4.084071 -4.08355,-4.084071 -0.541671,0 -1.057229,0.108263 -1.530219,0.299778 0.524227,-0.686787 0.83875,-1.542198 0.83875,-2.472901 0,-2.255318 -1.828231,-4.083548 -4.08355,-4.083548 z"/>
      <path d="m 29.325859,20.585589 c -2.255321,0 -4.083549,1.828229 -4.083549,4.083548 0,0.930747 0.314997,1.786098 0.839272,2.472901 -0.473012,-0.191531 -0.989046,-0.299778 -1.530743,-0.299778 -2.255321,0 -4.083549,1.828751 -4.083549,4.084071 0,2.255319 1.828228,4.08355 4.083549,4.083547 1.496943,0 2.801791,-0.807988 3.512718,-2.009133 0.449131,3.427946 -1.152628,6.90793 -1.152628,6.90793 h 4.829858 c 0,0 -1.601755,-3.479986 -1.152628,-6.90793 0.710928,1.201145 2.015778,2.009133 3.512719,2.009133 2.255319,0 4.08355,-1.828228 4.08355,-4.083547 0,-2.25532 -1.828231,-4.084071 -4.08355,-4.084071 -0.541671,0 -1.057229,0.108263 -1.530219,0.299778 0.524227,-0.686787 0.83875,-1.542198 0.83875,-2.472901 0,-2.255318 -1.828231,-4.083548 -4.08355,-4.083548 z" style="color:#000000;display:inline;overflow:visible;visibility:visible;fill:#ccae66;fill-opacity:1;fill-rule:evenodd;stroke:none;stroke-width:0.292633;stroke-linecap:square;stroke-linejoin:miter;stroke-miterlimit:4;stroke-dasharray:none;stroke-dashoffset:0;stroke-opacity:1;marker:none;marker-start:none;marker-mid:none;marker-end:none;enable-background:accumulate" id="path872"/>
    </g>
    <g id="use1057" style="stroke:none;stroke-width:1.10601" transform="matrix(0.90546626,0,0,0.90283309,30.09304,40.068427)">
      <path id="path877" style="color:#000000;display:inline;overflow:visible;visibility:visible;fill:#800000;fill-opacity:1;fill-rule:evenodd;stroke:none;stroke-width:0.292632;stroke-linecap:square;stroke-linejoin:miter;stroke-miterlimit:4;stroke-dasharray:none;stroke-dashoffset:0;stroke-opacity:1;marker:none;marker-start:none;marker-mid:none;marker-end:none;enable-background:accumulate" d="m 29.800719,21.169062 c -2.255321,0 -4.083549,1.828229 -4.083549,4.083548 0,0.930747 0.314997,1.786098 0.839272,2.472901 -0.473012,-0.191531 -0.989046,-0.299778 -1.530743,-0.299778 -2.255321,0 -4.083549,1.828751 -4.083549,4.084071 0,2.255319 1.828228,4.08355 4.083549,4.083547 1.496943,0 2.801791,-0.807988 3.512718,-2.009133 0.372948,2.846489 -1.627488,6.324456 -1.627488,6.324456 l 0.47486,0.583474 h 4.829858 c 0,0 -1.601755,-3.479986 -1.152628,-6.90793 0.710928,1.201145 2.015778,2.009133 3.512719,2.009133 2.255319,0 4.08355,-1.828228 4.08355,-4.083547 0,-2.25532 -1.828231,-4.084071 -4.08355,-4.084071 -0.541671,0 -1.057229,0.108263 -1.530219,0.299778 0.524227,-0.686787 0.83875,-1.542198 0.83875,-2.472901 0,-2.255318 -1.828231,-4.083548 -4.08355,-4.083548 z"/>
      <path d="m 29.325859,20.585589 c -2.255321,0 -4.083549,1.828229 -4.083549,4.083548 0,0.930747 0.314997,1.786098 0.839272,2.472901 -0.473012,-0.191531 -0.989046,-0.299778 -1.530743,-0.299778 -2.255321,0 -4.083549,1.828751 -4.083549,4.084071 0,2.255319 1.828228,4.08355 4.083549,4.083547 1.496943,0 2.801791,-0.807988 3.512718,-2.009133 0.449131,3.427946 -1.152628,6.90793 -1.152628,6.90793 h 4.829858 c 0,0 -1.601755,-3.479986 -1.152628,-6.90793 0.710928,1.201145 2.015778,2.009133 3.512719,2.009133 2.255319,0 4.08355,-1.828228 4.08355,-4.083547 0,-2.25532 -1.828231,-4.084071 -4.08355,-4.084071 -0.541671,0 -1.057229,0.108263 -1.530219,0.299778 0.524227,-0.686787 0.83875,-1.542198 0.83875,-2.472901 0,-2.255318 -1.828231,-4.083548 -4.08355,-4.083548 z" style="color:#000000;display:inline;overflow:visible;visibility:visible;fill:#ccae66;fill-opacity:1;fill-rule:evenodd;stroke:none;stroke-width:0.292633;stroke-linecap:square;stroke-linejoin:miter;stroke-miterlimit:4;stroke-dasharray:none;stroke-dashoffset:0;stroke-opacity:1;marker:none;marker-start:none;marker-mid:none;marker-end:none;enable-background:accumulate" id="path879"/>
    </g>
    <g id="use1059" style="stroke:none;stroke-width:1.10601" transform="matrix(0.90546626,0,0,0.90283309,15.628356,20.653367)">
      <path id="path883" style="color:#000000;display:inline;overflow:visible;visibility:visible;fill:#800000;fill-opacity:1;fill-rule:evenodd;stroke:none;stroke-width:0.292632;stroke-linecap:square;stroke-linejoin:miter;stroke-miterlimit:4;stroke-dasharray:none;stroke-dashoffset:0;stroke-opacity:1;marker:none;marker-start:none;marker-mid:none;marker-end:none;enable-background:accumulate" d="m 29.800719,21.169062 c -2.255321,0 -4.083549,1.828229 -4.083549,4.083548 0,0.930747 0.314997,1.786098 0.839272,2.472901 -0.473012,-0.191531 -0.989046,-0.299778 -1.530743,-0.299778 -2.255321,0 -4.083549,1.828751 -4.083549,4.084071 0,2.255319 1.828228,4.08355 4.083549,4.083547 1.496943,0 2.801791,-0.807988 3.512718,-2.009133 0.372948,2.846489 -1.627488,6.324456 -1.627488,6.324456 l 0.47486,0.583474 h 4.829858 c 0,0 -1.601755,-3.479986 -1.152628,-6.90793 0.710928,1.201145 2.015778,2.009133 3.512719,2.009133 2.255319,0 4.08355,-1.828228 4.08355,-4.083547 0,-2.25532 -1.828231,-4.084071 -4.08355,-4.084071 -0.541671,0 -1.057229,0.108263 -1.530219,0.299778 0.524227,-0.686787 0.83875,-1.542198 0.83875,-2.472901 0,-2.255318 -1.828231,-4.083548 -4.08355,-4.083548 z"/>
      <path d="m 29.325859,20.585589 c -2.255321,0 -4.083549,1.828229 -4.083549,4.083548 0,0.930747 0.314997,1.786098 0.839272,2.472901 -0.473012,-0.191531 -0.989046,-0.299778 -1.530743,-0.299778 -2.255321,0 -4.083549,1.828751 -4.083549,4.084071 0,2.255319 1.828228,4.08355 4.083549,4.083547 1.496943,0 2.801791,-0.807988 3.512718,-2.009133 0.449131,3.427946 -1.152628,6.90793 -1.152628,6.90793 h 4.829858 c 0,0 -1.601755,-3.479986 -1.152628,-6.90793 0.710928,1.201145 2.015778,2.009133 3.512719,2.009133 2.255319,0 4.08355,-1.828228 4.08355,-4.083547 0,-2.25532 -1.828231,-4.084071 -4.08355,-4.084071 -0.541671,0 -1.057229,0.108263 -1.530219,0.299778 0.524227,-0.686787 0.83875,-1.542198 0.83875,-2.472901 0,-2.255318 -1.828231,-4.083548 -4.08355,-4.083548 z" style="color:#000000;display:inline;overflow:visible;visibility:visible;fill:#ccae66;fill-opacity:1;fill-rule:evenodd;stroke:none;stroke-width:0.292633;stroke-linecap:square;stroke-linejoin:miter;stroke-miterlimit:4;stroke-dasharray:none;stroke-dashoffset:0;stroke-opacity:1;marker:none;marker-start:none;marker-mid:none;marker-end:none;enable-background:accumulate" id="path885"/>
    </g>
    <g id="use1080" style="stroke:none;stroke-width:1.10601" transform="matrix(0.90546626,0,0,0.90283309,1.1636778,78.902509)">
      <path id="path889" style="color:#000000;display:inline;overflow:visible;visibility:visible;fill:#800000;fill-opacity:1;fill-rule:evenodd;stroke:none;stroke-width:0.292632;stroke-linecap:square;stroke-linejoin:miter;stroke-miterlimit:4;stroke-dasharray:none;stroke-dashoffset:0;stroke-opacity:1;marker:none;marker-start:none;marker-mid:none;marker-end:none;enable-background:accumulate" d="m 29.800719,21.169062 c -2.255321,0 -4.083549,1.828229 -4.083549,4.083548 0,0.930747 0.314997,1.786098 0.839272,2.472901 -0.473012,-0.191531 -0.989046,-0.299778 -1.530743,-0.299778 -2.255321,0 -4.083549,1.828751 -4.083549,4.084071 0,2.255319 1.828228,4.08355 4.083549,4.083547 1.496943,0 2.801791,-0.807988 3.512718,-2.009133 0.372948,2.846489 -1.627488,6.324456 -1.627488,6.324456 l 0.47486,0.583474 h 4.829858 c 0,0 -1.601755,-3.479986 -1.152628,-6.90793 0.710928,1.201145 2.015778,2.009133 3.512719,2.009133 2.255319,0 4.08355,-1.828228 4.08355,-4.083547 0,-2.25532 -1.828231,-4.084071 -4.08355,-4.084071 -0.541671,0 -1.057229,0.108263 -1.530219,0.299778 0.524227,-0.686787 0.83875,-1.542198 0.83875,-2.472901 0,-2.255318 -1.828231,-4.083548 -4.08355,-4.083548 z"/>
      <path d="m 29.325859,20.585589 c -2.255321,0 -4.083549,1.828229 -4.083549,4.083548 0,0.930747 0.314997,1.786098 0.839272,2.472901 -0.473012,-0.191531 -0.989046,-0.299778 -1.530743,-0.299778 -2.255321,0 -4.083549,1.828751 -4.083549,4.084071 0,2.255319 1.828228,4.08355 4.083549,4.083547 1.496943,0 2.801791,-0.807988 3.512718,-2.009133 0.449131,3.427946 -1.152628,6.90793 -1.152628,6.90793 h 4.829858 c 0,0 -1.601755,-3.479986 -1.152628,-6.90793 0.710928,1.201145 2.015778,2.009133 3.512719,2.009133 2.255319,0 4.08355,-1.828228 4.08355,-4.083547 0,-2.25532 -1.828231,-4.084071 -4.08355,-4.084071 -0.541671,0 -1.057229,0.108263 -1.530219,0.299778 0.524227,-0.686787 0.83875,-1.542198 0.83875,-2.472901 0,-2.255318 -1.828231,-4.083548 -4.08355,-4.083548 z" style="color:#000000;display:inline;overflow:visible;visibility:visible;fill:#ccae66;fill-opacity:1;fill-rule:evenodd;stroke:none;stroke-width:0.292633;stroke-linecap:square;stroke-linejoin:miter;stroke-miterlimit:4;stroke-dasharray:none;stroke-dashoffset:0;stroke-opacity:1;marker:none;marker-start:none;marker-mid:none;marker-end:none;enable-background:accumulate" id="path891"/>
    </g>
    <g id="use1082" style="stroke:none;stroke-width:1.10601" transform="matrix(0.90546626,0,0,0.90283309,30.09304,117.73263)">
      <path id="path895" style="color:#000000;display:inline;overflow:visible;visibility:visible;fill:#800000;fill-opacity:1;fill-rule:evenodd;stroke:none;stroke-width:0.292632;stroke-linecap:square;stroke-linejoin:miter;stroke-miterlimit:4;stroke-dasharray:none;stroke-dashoffset:0;stroke-opacity:1;marker:none;marker-start:none;marker-mid:none;marker-end:none;enable-background:accumulate" d="m 29.800719,21.169062 c -2.255321,0 -4.083549,1.828229 -4.083549,4.083548 0,0.930747 0.314997,1.786098 0.839272,2.472901 -0.473012,-0.191531 -0.989046,-0.299778 -1.530743,-0.299778 -2.255321,0 -4.083549,1.828751 -4.083549,4.084071 0,2.255319 1.828228,4.08355 4.083549,4.083547 1.496943,0 2.801791,-0.807988 3.512718,-2.009133 0.372948,2.846489 -1.627488,6.324456 -1.627488,6.324456 l 0.47486,0.583474 h 4.829858 c 0,0 -1.601755,-3.479986 -1.152628,-6.90793 0.710928,1.201145 2.015778,2.009133 3.512719,2.009133 2.255319,0 4.08355,-1.828228 4.08355,-4.083547 0,-2.25532 -1.828231,-4.084071 -4.08355,-4.084071 -0.541671,0 -1.057229,0.108263 -1.530219,0.299778 0.524227,-0.686787 0.83875,-1.542198 0.83875,-2.472901 0,-2.255318 -1.828231,-4.083548 -4.08355,-4.083548 z"/>
      <path d="m 29.325859,20.585589 c -2.255321,0 -4.083549,1.828229 -4.083549,4.083548 0,0.930747 0.314997,1.786098 0.839272,2.472901 -0.473012,-0.191531 -0.989046,-0.299778 -1.530743,-0.299778 -2.255321,0 -4.083549,1.828751 -4.083549,4.084071 0,2.255319 1.828228,4.08355 4.083549,4.083547 1.496943,0 2.801791,-0.807988 3.512718,-2.009133 0.449131,3.427946 -1.152628,6.90793 -1.152628,6.90793 h 4.829858 c 0,0 -1.601755,-3.479986 -1.152628,-6.90793 0.710928,1.201145 2.015778,2.009133 3.512719,2.009133 2.255319,0 4.08355,-1.828228 4.08355,-4.083547 0,-2.25532 -1.828231,-4.084071 -4.08355,-4.084071 -0.541671,0 -1.057229,0.108263 -1.530219,0.299778 0.524227,-0.686787 0.83875,-1.542198 0.83875,-2.472901 0,-2.255318 -1.828231,-4.083548 -4.08355,-4.083548 z" style="color:#000000;display:inline;overflow:visible;visibility:visible;fill:#ccae66;fill-opacity:1;fill-rule:evenodd;stroke:none;stroke-width:0.292633;stroke-linecap:square;stroke-linejoin:miter;stroke-miterlimit:4;stroke-dasharray:none;stroke-dashoffset:0;stroke-opacity:1;marker:none;marker-start:none;marker-mid:none;marker-end:none;enable-background:accumulate" id="path897"/>
    </g>
    <g id="use1084" style="stroke:none;stroke-width:1.10601" transform="matrix(0.90546626,0,0,0.90283309,15.628356,98.317574)">
      <path id="path901" style="color:#000000;display:inline;overflow:visible;visibility:visible;fill:#800000;fill-opacity:1;fill-rule:evenodd;stroke:none;stroke-width:0.292632;stroke-linecap:square;stroke-linejoin:miter;stroke-miterlimit:4;stroke-dasharray:none;stroke-dashoffset:0;stroke-opacity:1;marker:none;marker-start:none;marker-mid:none;marker-end:none;enable-background:accumulate" d="m 29.800719,21.169062 c -2.255321,0 -4.083549,1.828229 -4.083549,4.083548 0,0.930747 0.314997,1.786098 0.839272,2.472901 -0.473012,-0.191531 -0.989046,-0.299778 -1.530743,-0.299778 -2.255321,0 -4.083549,1.828751 -4.083549,4.084071 0,2.255319 1.828228,4.08355 4.083549,4.083547 1.496943,0 2.801791,-0.807988 3.512718,-2.009133 0.372948,2.846489 -1.627488,6.324456 -1.627488,6.324456 l 0.47486,0.583474 h 4.829858 c 0,0 -1.601755,-3.479986 -1.152628,-6.90793 0.710928,1.201145 2.015778,2.009133 3.512719,2.009133 2.255319,0 4.08355,-1.828228 4.08355,-4.083547 0,-2.25532 -1.828231,-4.084071 -4.08355,-4.084071 -0.541671,0 -1.057229,0.108263 -1.530219,0.299778 0.524227,-0.686787 0.83875,-1.542198 0.83875,-2.472901 0,-2.255318 -1.828231,-4.083548 -4.08355,-4.083548 z"/>
      <path d="m 29.325859,20.585589 c -2.255321,0 -4.083549,1.828229 -4.083549,4.083548 0,0.930747 0.314997,1.786098 0.839272,2.472901 -0.473012,-0.191531 -0.989046,-0.299778 -1.530743,-0.299778 -2.255321,0 -4.083549,1.828751 -4.083549,4.084071 0,2.255319 1.828228,4.08355 4.083549,4.083547 1.496943,0 2.801791,-0.807988 3.512718,-2.009133 0.449131,3.427946 -1.152628,6.90793 -1.152628,6.90793 h 4.829858 c 0,0 -1.601755,-3.479986 -1.152628,-6.90793 0.710928,1.201145 2.015778,2.009133 3.512719,2.009133 2.255319,0 4.08355,-1.828228 4.08355,-4.083547 0,-2.25532 -1.828231,-4.084071 -4.08355,-4.084071 -0.541671,0 -1.057229,0.108263 -1.530219,0.299778 0.524227,-0.686787 0.83875,-1.542198 0.83875,-2.472901 0,-2.255318 -1.828231,-4.083548 -4.08355,-4.083548 z" style="color:#000000;display:inline;overflow:visible;visibility:visible;fill:#ccae66;fill-opacity:1;fill-rule:evenodd;stroke:none;stroke-width:0.292633;stroke-linecap:square;stroke-linejoin:miter;stroke-miterlimit:4;stroke-dasharray:none;stroke-dashoffset:0;stroke-opacity:1;marker:none;marker-start:none;marker-mid:none;marker-end:none;enable-background:accumulate" id="path903"/>
    </g>
    <g id="use1101" style="stroke:none;stroke-width:1.10601" transform="matrix(0.90546626,0,0,0.90283309,102.64015,1.2383061)">
      <path id="path907" style="color:#000000;display:inline;overflow:visible;visibility:visible;fill:#800000;fill-opacity:1;fill-rule:evenodd;stroke:none;stroke-width:0.292632;stroke-linecap:square;stroke-linejoin:miter;stroke-miterlimit:4;stroke-dasharray:none;stroke-dashoffset:0;stroke-opacity:1;marker:none;marker-start:none;marker-mid:none;marker-end:none;enable-background:accumulate" d="m 29.800719,21.169062 c -2.255321,0 -4.083549,1.828229 -4.083549,4.083548 0,0.930747 0.314997,1.786098 0.839272,2.472901 -0.473012,-0.191531 -0.989046,-0.299778 -1.530743,-0.299778 -2.255321,0 -4.083549,1.828751 -4.083549,4.084071 0,2.255319 1.828228,4.08355 4.083549,4.083547 1.496943,0 2.801791,-0.807988 3.512718,-2.009133 0.372948,2.846489 -1.627488,6.324456 -1.627488,6.324456 l 0.47486,0.583474 h 4.829858 c 0,0 -1.601755,-3.479986 -1.152628,-6.90793 0.710928,1.201145 2.015778,2.009133 3.512719,2.009133 2.255319,0 4.08355,-1.828228 4.08355,-4.083547 0,-2.25532 -1.828231,-4.084071 -4.08355,-4.084071 -0.541671,0 -1.057229,0.108263 -1.530219,0.299778 0.524227,-0.686787 0.83875,-1.542198 0.83875,-2.472901 0,-2.255318 -1.828231,-4.083548 -4.08355,-4.083548 z"/>
      <path d="m 29.325859,20.585589 c -2.255321,0 -4.083549,1.828229 -4.083549,4.083548 0,0.930747 0.314997,1.786098 0.839272,2.472901 -0.473012,-0.191531 -0.989046,-0.299778 -1.530743,-0.299778 -2.255321,0 -4.083549,1.828751 -4.083549,4.084071 0,2.255319 1.828228,4.08355 4.083549,4.083547 1.496943,0 2.801791,-0.807988 3.512718,-2.009133 0.449131,3.427946 -1.152628,6.90793 -1.152628,6.90793 h 4.829858 c 0,0 -1.601755,-3.479986 -1.152628,-6.90793 0.710928,1.201145 2.015778,2.009133 3.512719,2.009133 2.255319,0 4.08355,-1.828228 4.08355,-4.083547 0,-2.25532 -1.828231,-4.084071 -4.08355,-4.084071 -0.541671,0 -1.057229,0.108263 -1.530219,0.299778 0.524227,-0.686787 0.83875,-1.542198 0.83875,-2.472901 0,-2.255318 -1.828231,-4.083548 -4.08355,-4.083548 z" style="color:#000000;display:inline;overflow:visible;visibility:visible;fill:#ccae66;fill-opacity:1;fill-rule:evenodd;stroke:none;stroke-width:0.292633;stroke-linecap:square;stroke-linejoin:miter;stroke-miterlimit:4;stroke-dasharray:none;stroke-dashoffset:0;stroke-opacity:1;marker:none;marker-start:none;marker-mid:none;marker-end:none;enable-background:accumulate" id="path909"/>
    </g>
    <g id="use1103" style="stroke:none;stroke-width:1.10601" transform="matrix(0.90546626,0,0,0.90283309,102.64015,40.068427)">
      <path id="path913" style="color:#000000;display:inline;overflow:visible;visibility:visible;fill:#800000;fill-opacity:1;fill-rule:evenodd;stroke:none;stroke-width:0.292632;stroke-linecap:square;stroke-linejoin:miter;stroke-miterlimit:4;stroke-dasharray:none;stroke-dashoffset:0;stroke-opacity:1;marker:none;marker-start:none;marker-mid:none;marker-end:none;enable-background:accumulate" d="m 29.800719,21.169062 c -2.255321,0 -4.083549,1.828229 -4.083549,4.083548 0,0.930747 0.314997,1.786098 0.839272,2.472901 -0.473012,-0.191531 -0.989046,-0.299778 -1.530743,-0.299778 -2.255321,0 -4.083549,1.828751 -4.083549,4.084071 0,2.255319 1.828228,4.08355 4.083549,4.083547 1.496943,0 2.801791,-0.807988 3.512718,-2.009133 0.372948,2.846489 -1.627488,6.324456 -1.627488,6.324456 l 0.47486,0.583474 h 4.829858 c 0,0 -1.601755,-3.479986 -1.152628,-6.90793 0.710928,1.201145 2.015778,2.009133 3.512719,2.009133 2.255319,0 4.08355,-1.828228 4.08355,-4.083547 0,-2.25532 -1.828231,-4.084071 -4.08355,-4.084071 -0.541671,0 -1.057229,0.108263 -1.530219,0.299778 0.524227,-0.686787 0.83875,-1.542198 0.83875,-2.472901 0,-2.255318 -1.828231,-4.083548 -4.08355,-4.083548 z"/>
      <path d="m 29.325859,20.585589 c -2.255321,0 -4.083549,1.828229 -4.083549,4.083548 0,0.930747 0.314997,1.786098 0.839272,2.472901 -0.473012,-0.191531 -0.989046,-0.299778 -1.530743,-0.299778 -2.255321,0 -4.083549,1.828751 -4.083549,4.084071 0,2.255319 1.828228,4.08355 4.083549,4.083547 1.496943,0 2.801791,-0.807988 3.512718,-2.009133 0.449131,3.427946 -1.152628,6.90793 -1.152628,6.90793 h 4.829858 c 0,0 -1.601755,-3.479986 -1.152628,-6.90793 0.710928,1.201145 2.015778,2.009133 3.512719,2.009133 2.255319,0 4.08355,-1.828228 4.08355,-4.083547 0,-2.25532 -1.828231,-4.084071 -4.08355,-4.084071 -0.541671,0 -1.057229,0.108263 -1.530219,0.299778 0.524227,-0.686787 0.83875,-1.542198 0.83875,-2.472901 0,-2.255318 -1.828231,-4.083548 -4.08355,-4.083548 z" style="color:#000000;display:inline;overflow:visible;visibility:visible;fill:#ccae66;fill-opacity:1;fill-rule:evenodd;stroke:none;stroke-width:0.292633;stroke-linecap:square;stroke-linejoin:miter;stroke-miterlimit:4;stroke-dasharray:none;stroke-dashoffset:0;stroke-opacity:1;marker:none;marker-start:none;marker-mid:none;marker-end:none;enable-background:accumulate" id="path915"/>
    </g>
    <g id="use1105" style="stroke:none;stroke-width:1.10601" transform="matrix(0.90546626,0,0,0.90283309,73.710791,40.068427)">
      <path id="path919" style="color:#000000;display:inline;overflow:visible;visibility:visible;fill:#800000;fill-opacity:1;fill-rule:evenodd;stroke:none;stroke-width:0.292632;stroke-linecap:square;stroke-linejoin:miter;stroke-miterlimit:4;stroke-dasharray:none;stroke-dashoffset:0;stroke-opacity:1;marker:none;marker-start:none;marker-mid:none;marker-end:none;enable-background:accumulate" d="m 29.800719,21.169062 c -2.255321,0 -4.083549,1.828229 -4.083549,4.083548 0,0.930747 0.314997,1.786098 0.839272,2.472901 -0.473012,-0.191531 -0.989046,-0.299778 -1.530743,-0.299778 -2.255321,0 -4.083549,1.828751 -4.083549,4.084071 0,2.255319 1.828228,4.08355 4.083549,4.083547 1.496943,0 2.801791,-0.807988 3.512718,-2.009133 0.372948,2.846489 -1.627488,6.324456 -1.627488,6.324456 l 0.47486,0.583474 h 4.829858 c 0,0 -1.601755,-3.479986 -1.152628,-6.90793 0.710928,1.201145 2.015778,2.009133 3.512719,2.009133 2.255319,0 4.08355,-1.828228 4.08355,-4.083547 0,-2.25532 -1.828231,-4.084071 -4.08355,-4.084071 -0.541671,0 -1.057229,0.108263 -1.530219,0.299778 0.524227,-0.686787 0.83875,-1.542198 0.83875,-2.472901 0,-2.255318 -1.828231,-4.083548 -4.08355,-4.083548 z"/>
      <path d="m 29.325859,20.585589 c -2.255321,0 -4.083549,1.828229 -4.083549,4.083548 0,0.930747 0.314997,1.786098 0.839272,2.472901 -0.473012,-0.191531 -0.989046,-0.299778 -1.530743,-0.299778 -2.255321,0 -4.083549,1.828751 -4.083549,4.084071 0,2.255319 1.828228,4.08355 4.083549,4.083547 1.496943,0 2.801791,-0.807988 3.512718,-2.009133 0.449131,3.427946 -1.152628,6.90793 -1.152628,6.90793 h 4.829858 c 0,0 -1.601755,-3.479986 -1.152628,-6.90793 0.710928,1.201145 2.015778,2.009133 3.512719,2.009133 2.255319,0 4.08355,-1.828228 4.08355,-4.083547 0,-2.25532 -1.828231,-4.084071 -4.08355,-4.084071 -0.541671,0 -1.057229,0.108263 -1.530219,0.299778 0.524227,-0.686787 0.83875,-1.542198 0.83875,-2.472901 0,-2.255318 -1.828231,-4.083548 -4.08355,-4.083548 z" style="color:#000000;display:inline;overflow:visible;visibility:visible;fill:#ccae66;fill-opacity:1;fill-rule:evenodd;stroke:none;stroke-width:0.292633;stroke-linecap:square;stroke-linejoin:miter;stroke-miterlimit:4;stroke-dasharray:none;stroke-dashoffset:0;stroke-opacity:1;marker:none;marker-start:none;marker-mid:none;marker-end:none;enable-background:accumulate" id="path921"/>
    </g>
    <g id="use1107" style="stroke:none;stroke-width:1.10601" transform="matrix(0.90546626,0,0,0.90283309,88.175475,20.653367)">
      <path id="path925" style="color:#000000;display:inline;overflow:visible;visibility:visible;fill:#800000;fill-opacity:1;fill-rule:evenodd;stroke:none;stroke-width:0.292632;stroke-linecap:square;stroke-linejoin:miter;stroke-miterlimit:4;stroke-dasharray:none;stroke-dashoffset:0;stroke-opacity:1;marker:none;marker-start:none;marker-mid:none;marker-end:none;enable-background:accumulate" d="m 29.800719,21.169062 c -2.255321,0 -4.083549,1.828229 -4.083549,4.083548 0,0.930747 0.314997,1.786098 0.839272,2.472901 -0.473012,-0.191531 -0.989046,-0.299778 -1.530743,-0.299778 -2.255321,0 -4.083549,1.828751 -4.083549,4.084071 0,2.255319 1.828228,4.08355 4.083549,4.083547 1.496943,0 2.801791,-0.807988 3.512718,-2.009133 0.372948,2.846489 -1.627488,6.324456 -1.627488,6.324456 l 0.47486,0.583474 h 4.829858 c 0,0 -1.601755,-3.479986 -1.152628,-6.90793 0.710928,1.201145 2.015778,2.009133 3.512719,2.009133 2.255319,0 4.08355,-1.828228 4.08355,-4.083547 0,-2.25532 -1.828231,-4.084071 -4.08355,-4.084071 -0.541671,0 -1.057229,0.108263 -1.530219,0.299778 0.524227,-0.686787 0.83875,-1.542198 0.83875,-2.472901 0,-2.255318 -1.828231,-4.083548 -4.08355,-4.083548 z"/>
      <path d="m 29.325859,20.585589 c -2.255321,0 -4.083549,1.828229 -4.083549,4.083548 0,0.930747 0.314997,1.786098 0.839272,2.472901 -0.473012,-0.191531 -0.989046,-0.299778 -1.530743,-0.299778 -2.255321,0 -4.083549,1.828751 -4.083549,4.084071 0,2.255319 1.828228,4.08355 4.083549,4.083547 1.496943,0 2.801791,-0.807988 3.512718,-2.009133 0.449131,3.427946 -1.152628,6.90793 -1.152628,6.90793 h 4.829858 c 0,0 -1.601755,-3.479986 -1.152628,-6.90793 0.710928,1.201145 2.015778,2.009133 3.512719,2.009133 2.255319,0 4.08355,-1.828228 4.08355,-4.083547 0,-2.25532 -1.828231,-4.084071 -4.08355,-4.084071 -0.541671,0 -1.057229,0.108263 -1.530219,0.299778 0.524227,-0.686787 0.83875,-1.542198 0.83875,-2.472901 0,-2.255318 -1.828231,-4.083548 -4.08355,-4.083548 z" style="color:#000000;display:inline;overflow:visible;visibility:visible;fill:#ccae66;fill-opacity:1;fill-rule:evenodd;stroke:none;stroke-width:0.292633;stroke-linecap:square;stroke-linejoin:miter;stroke-miterlimit:4;stroke-dasharray:none;stroke-dashoffset:0;stroke-opacity:1;marker:none;marker-start:none;marker-mid:none;marker-end:none;enable-background:accumulate" id="path927"/>
    </g>
    <g id="use1109" style="stroke:none;stroke-width:1.10601" transform="matrix(0.90546626,0,0,0.90283309,102.64015,78.902509)">
      <path id="path931" style="color:#000000;display:inline;overflow:visible;visibility:visible;fill:#800000;fill-opacity:1;fill-rule:evenodd;stroke:none;stroke-width:0.292632;stroke-linecap:square;stroke-linejoin:miter;stroke-miterlimit:4;stroke-dasharray:none;stroke-dashoffset:0;stroke-opacity:1;marker:none;marker-start:none;marker-mid:none;marker-end:none;enable-background:accumulate" d="m 29.800719,21.169062 c -2.255321,0 -4.083549,1.828229 -4.083549,4.083548 0,0.930747 0.314997,1.786098 0.839272,2.472901 -0.473012,-0.191531 -0.989046,-0.299778 -1.530743,-0.299778 -2.255321,0 -4.083549,1.828751 -4.083549,4.084071 0,2.255319 1.828228,4.08355 4.083549,4.083547 1.496943,0 2.801791,-0.807988 3.512718,-2.009133 0.372948,2.846489 -1.627488,6.324456 -1.627488,6.324456 l 0.47486,0.583474 h 4.829858 c 0,0 -1.601755,-3.479986 -1.152628,-6.90793 0.710928,1.201145 2.015778,2.009133 3.512719,2.009133 2.255319,0 4.08355,-1.828228 4.08355,-4.083547 0,-2.25532 -1.828231,-4.084071 -4.08355,-4.084071 -0.541671,0 -1.057229,0.108263 -1.530219,0.299778 0.524227,-0.686787 0.83875,-1.542198 0.83875,-2.472901 0,-2.255318 -1.828231,-4.083548 -4.08355,-4.083548 z"/>
      <path d="m 29.325859,20.585589 c -2.255321,0 -4.083549,1.828229 -4.083549,4.083548 0,0.930747 0.314997,1.786098 0.839272,2.472901 -0.473012,-0.191531 -0.989046,-0.299778 -1.530743,-0.299778 -2.255321,0 -4.083549,1.828751 -4.083549,4.084071 0,2.255319 1.828228,4.08355 4.083549,4.083547 1.496943,0 2.801791,-0.807988 3.512718,-2.009133 0.449131,3.427946 -1.152628,6.90793 -1.152628,6.90793 h 4.829858 c 0,0 -1.601755,-3.479986 -1.152628,-6.90793 0.710928,1.201145 2.015778,2.009133 3.512719,2.009133 2.255319,0 4.08355,-1.828228 4.08355,-4.083547 0,-2.25532 -1.828231,-4.084071 -4.08355,-4.084071 -0.541671,0 -1.057229,0.108263 -1.530219,0.299778 0.524227,-0.686787 0.83875,-1.542198 0.83875,-2.472901 0,-2.255318 -1.828231,-4.083548 -4.08355,-4.083548 z" style="color:#000000;display:inline;overflow:visible;visibility:visible;fill:#ccae66;fill-opacity:1;fill-rule:evenodd;stroke:none;stroke-width:0.292633;stroke-linecap:square;stroke-linejoin:miter;stroke-miterlimit:4;stroke-dasharray:none;stroke-dashoffset:0;stroke-opacity:1;marker:none;marker-start:none;marker-mid:none;marker-end:none;enable-background:accumulate" id="path933"/>
    </g>
    <g id="use1111" style="stroke:none;stroke-width:1.10601" transform="matrix(0.90546626,0,0,0.90283309,73.710791,117.73263)">
      <path id="path937" style="color:#000000;display:inline;overflow:visible;visibility:visible;fill:#800000;fill-opacity:1;fill-rule:evenodd;stroke:none;stroke-width:0.292632;stroke-linecap:square;stroke-linejoin:miter;stroke-miterlimit:4;stroke-dasharray:none;stroke-dashoffset:0;stroke-opacity:1;marker:none;marker-start:none;marker-mid:none;marker-end:none;enable-background:accumulate" d="m 29.800719,21.169062 c -2.255321,0 -4.083549,1.828229 -4.083549,4.083548 0,0.930747 0.314997,1.786098 0.839272,2.472901 -0.473012,-0.191531 -0.989046,-0.299778 -1.530743,-0.299778 -2.255321,0 -4.083549,1.828751 -4.083549,4.084071 0,2.255319 1.828228,4.08355 4.083549,4.083547 1.496943,0 2.801791,-0.807988 3.512718,-2.009133 0.372948,2.846489 -1.627488,6.324456 -1.627488,6.324456 l 0.47486,0.583474 h 4.829858 c 0,0 -1.601755,-3.479986 -1.152628,-6.90793 0.710928,1.201145 2.015778,2.009133 3.512719,2.009133 2.255319,0 4.08355,-1.828228 4.08355,-4.083547 0,-2.25532 -1.828231,-4.084071 -4.08355,-4.084071 -0.541671,0 -1.057229,0.108263 -1.530219,0.299778 0.524227,-0.686787 0.83875,-1.542198 0.83875,-2.472901 0,-2.255318 -1.828231,-4.083548 -4.08355,-4.083548 z"/>
      <path d="m 29.325859,20.585589 c -2.255321,0 -4.083549,1.828229 -4.083549,4.083548 0,0.930747 0.314997,1.786098 0.839272,2.472901 -0.473012,-0.191531 -0.989046,-0.299778 -1.530743,-0.299778 -2.255321,0 -4.083549,1.828751 -4.083549,4.084071 0,2.255319 1.828228,4.08355 4.083549,4.083547 1.496943,0 2.801791,-0.807988 3.512718,-2.009133 0.449131,3.427946 -1.152628,6.90793 -1.152628,6.90793 h 4.829858 c 0,0 -1.601755,-3.479986 -1.152628,-6.90793 0.710928,1.201145 2.015778,2.009133 3.512719,2.009133 2.255319,0 4.08355,-1.828228 4.08355,-4.083547 0,-2.25532 -1.828231,-4.084071 -4.08355,-4.084071 -0.541671,0 -1.057229,0.108263 -1.530219,0.299778 0.524227,-0.686787 0.83875,-1.542198 0.83875,-2.472901 0,-2.255318 -1.828231,-4.083548 -4.08355,-4.083548 z" style="color:#000000;display:inline;overflow:visible;visibility:visible;fill:#ccae66;fill-opacity:1;fill-rule:evenodd;stroke:none;stroke-width:0.292633;stroke-linecap:square;stroke-linejoin:miter;stroke-miterlimit:4;stroke-dasharray:none;stroke-dashoffset:0;stroke-opacity:1;marker:none;marker-start:none;marker-mid:none;marker-end:none;enable-background:accumulate" id="path939"/>
    </g>
    <g id="use1113" style="stroke:none;stroke-width:1.10601" transform="matrix(0.90546626,0,0,0.90283309,88.175475,98.317574)">
      <path id="path943" style="color:#000000;display:inline;overflow:visible;visibility:visible;fill:#800000;fill-opacity:1;fill-rule:evenodd;stroke:none;stroke-width:0.292632;stroke-linecap:square;stroke-linejoin:miter;stroke-miterlimit:4;stroke-dasharray:none;stroke-dashoffset:0;stroke-opacity:1;marker:none;marker-start:none;marker-mid:none;marker-end:none;enable-background:accumulate" d="m 29.800719,21.169062 c -2.255321,0 -4.083549,1.828229 -4.083549,4.083548 0,0.930747 0.314997,1.786098 0.839272,2.472901 -0.473012,-0.191531 -0.989046,-0.299778 -1.530743,-0.299778 -2.255321,0 -4.083549,1.828751 -4.083549,4.084071 0,2.255319 1.828228,4.08355 4.083549,4.083547 1.496943,0 2.801791,-0.807988 3.512718,-2.009133 0.372948,2.846489 -1.627488,6.324456 -1.627488,6.324456 l 0.47486,0.583474 h 4.829858 c 0,0 -1.601755,-3.479986 -1.152628,-6.90793 0.710928,1.201145 2.015778,2.009133 3.512719,2.009133 2.255319,0 4.08355,-1.828228 4.08355,-4.083547 0,-2.25532 -1.828231,-4.084071 -4.08355,-4.084071 -0.541671,0 -1.057229,0.108263 -1.530219,0.299778 0.524227,-0.686787 0.83875,-1.542198 0.83875,-2.472901 0,-2.255318 -1.828231,-4.083548 -4.08355,-4.083548 z"/>
      <path d="m 29.325859,20.585589 c -2.255321,0 -4.083549,1.828229 -4.083549,4.083548 0,0.930747 0.314997,1.786098 0.839272,2.472901 -0.473012,-0.191531 -0.989046,-0.299778 -1.530743,-0.299778 -2.255321,0 -4.083549,1.828751 -4.083549,4.084071 0,2.255319 1.828228,4.08355 4.083549,4.083547 1.496943,0 2.801791,-0.807988 3.512718,-2.009133 0.449131,3.427946 -1.152628,6.90793 -1.152628,6.90793 h 4.829858 c 0,0 -1.601755,-3.479986 -1.152628,-6.90793 0.710928,1.201145 2.015778,2.009133 3.512719,2.009133 2.255319,0 4.08355,-1.828228 4.08355,-4.083547 0,-2.25532 -1.828231,-4.084071 -4.08355,-4.084071 -0.541671,0 -1.057229,0.108263 -1.530219,0.299778 0.524227,-0.686787 0.83875,-1.542198 0.83875,-2.472901 0,-2.255318 -1.828231,-4.083548 -4.08355,-4.083548 z" style="color:#000000;display:inline;overflow:visible;visibility:visible;fill:#ccae66;fill-opacity:1;fill-rule:evenodd;stroke:none;stroke-width:0.292633;stroke-linecap:square;stroke-linejoin:miter;stroke-miterlimit:4;stroke-dasharray:none;stroke-dashoffset:0;stroke-opacity:1;marker:none;marker-start:none;marker-mid:none;marker-end:none;enable-background:accumulate" id="path945"/>
    </g>
    <g id="use1132" style="stroke:none;stroke-width:1.10601" transform="matrix(0.90546626,0,0,0.90283309,30.09304,78.902509)">
      <path id="path949" style="color:#000000;display:inline;overflow:visible;visibility:visible;fill:#800000;fill-opacity:1;fill-rule:evenodd;stroke:none;stroke-width:0.292632;stroke-linecap:square;stroke-linejoin:miter;stroke-miterlimit:4;stroke-dasharray:none;stroke-dashoffset:0;stroke-opacity:1;marker:none;marker-start:none;marker-mid:none;marker-end:none;enable-background:accumulate" d="m 29.800719,21.169062 c -2.255321,0 -4.083549,1.828229 -4.083549,4.083548 0,0.930747 0.314997,1.786098 0.839272,2.472901 -0.473012,-0.191531 -0.989046,-0.299778 -1.530743,-0.299778 -2.255321,0 -4.083549,1.828751 -4.083549,4.084071 0,2.255319 1.828228,4.08355 4.083549,4.083547 1.496943,0 2.801791,-0.807988 3.512718,-2.009133 0.372948,2.846489 -1.627488,6.324456 -1.627488,6.324456 l 0.47486,0.583474 h 4.829858 c 0,0 -1.601755,-3.479986 -1.152628,-6.90793 0.710928,1.201145 2.015778,2.009133 3.512719,2.009133 2.255319,0 4.08355,-1.828228 4.08355,-4.083547 0,-2.25532 -1.828231,-4.084071 -4.08355,-4.084071 -0.541671,0 -1.057229,0.108263 -1.530219,0.299778 0.524227,-0.686787 0.83875,-1.542198 0.83875,-2.472901 0,-2.255318 -1.828231,-4.083548 -4.08355,-4.083548 z"/>
      <path d="m 29.325859,20.585589 c -2.255321,0 -4.083549,1.828229 -4.083549,4.083548 0,0.930747 0.314997,1.786098 0.839272,2.472901 -0.473012,-0.191531 -0.989046,-0.299778 -1.530743,-0.299778 -2.255321,0 -4.083549,1.828751 -4.083549,4.084071 0,2.255319 1.828228,4.08355 4.083549,4.083547 1.496943,0 2.801791,-0.807988 3.512718,-2.009133 0.449131,3.427946 -1.152628,6.90793 -1.152628,6.90793 h 4.829858 c 0,0 -1.601755,-3.479986 -1.152628,-6.90793 0.710928,1.201145 2.015778,2.009133 3.512719,2.009133 2.255319,0 4.08355,-1.828228 4.08355,-4.083547 0,-2.25532 -1.828231,-4.084071 -4.08355,-4.084071 -0.541671,0 -1.057229,0.108263 -1.530219,0.299778 0.524227,-0.686787 0.83875,-1.542198 0.83875,-2.472901 0,-2.255318 -1.828231,-4.083548 -4.08355,-4.083548 z" style="color:#000000;display:inline;overflow:visible;visibility:visible;fill:#ccae66;fill-opacity:1;fill-rule:evenodd;stroke:none;stroke-width:0.292633;stroke-linecap:square;stroke-linejoin:miter;stroke-miterlimit:4;stroke-dasharray:none;stroke-dashoffset:0;stroke-opacity:1;marker:none;marker-start:none;marker-mid:none;marker-end:none;enable-background:accumulate" id="path951"/>
    </g>
    <g id="use1148" style="stroke:none;stroke-width:1.10601" transform="matrix(0.90546626,0,0,0.90283309,73.710791,78.902509)">
      <path id="path955" style="color:#000000;display:inline;overflow:visible;visibility:visible;fill:#800000;fill-opacity:1;fill-rule:evenodd;stroke:none;stroke-width:0.292632;stroke-linecap:square;stroke-linejoin:miter;stroke-miterlimit:4;stroke-dasharray:none;stroke-dashoffset:0;stroke-opacity:1;marker:none;marker-start:none;marker-mid:none;marker-end:none;enable-background:accumulate" d="m 29.800719,21.169062 c -2.255321,0 -4.083549,1.828229 -4.083549,4.083548 0,0.930747 0.314997,1.786098 0.839272,2.472901 -0.473012,-0.191531 -0.989046,-0.299778 -1.530743,-0.299778 -2.255321,0 -4.083549,1.828751 -4.083549,4.084071 0,2.255319 1.828228,4.08355 4.083549,4.083547 1.496943,0 2.801791,-0.807988 3.512718,-2.009133 0.372948,2.846489 -1.627488,6.324456 -1.627488,6.324456 l 0.47486,0.583474 h 4.829858 c 0,0 -1.601755,-3.479986 -1.152628,-6.90793 0.710928,1.201145 2.015778,2.009133 3.512719,2.009133 2.255319,0 4.08355,-1.828228 4.08355,-4.083547 0,-2.25532 -1.828231,-4.084071 -4.08355,-4.084071 -0.541671,0 -1.057229,0.108263 -1.530219,0.299778 0.524227,-0.686787 0.83875,-1.542198 0.83875,-2.472901 0,-2.255318 -1.828231,-4.083548 -4.08355,-4.083548 z"/>
      <path d="m 29.325859,20.585589 c -2.255321,0 -4.083549,1.828229 -4.083549,4.083548 0,0.930747 0.314997,1.786098 0.839272,2.472901 -0.473012,-0.191531 -0.989046,-0.299778 -1.530743,-0.299778 -2.255321,0 -4.083549,1.828751 -4.083549,4.084071 0,2.255319 1.828228,4.08355 4.083549,4.083547 1.496943,0 2.801791,-0.807988 3.512718,-2.009133 0.449131,3.427946 -1.152628,6.90793 -1.152628,6.90793 h 4.829858 c 0,0 -1.601755,-3.479986 -1.152628,-6.90793 0.710928,1.201145 2.015778,2.009133 3.512719,2.009133 2.255319,0 4.08355,-1.828228 4.08355,-4.083547 0,-2.25532 -1.828231,-4.084071 -4.08355,-4.084071 -0.541671,0 -1.057229,0.108263 -1.530219,0.299778 0.524227,-0.686787 0.83875,-1.542198 0.83875,-2.472901 0,-2.255318 -1.828231,-4.083548 -4.08355,-4.083548 z" style="color:#000000;display:inline;overflow:visible;visibility:visible;fill:#ccae66;fill-opacity:1;fill-rule:evenodd;stroke:none;stroke-width:0.292633;stroke-linecap:square;stroke-linejoin:miter;stroke-miterlimit:4;stroke-dasharray:none;stroke-dashoffset:0;stroke-opacity:1;marker:none;marker-start:none;marker-mid:none;marker-end:none;enable-background:accumulate" id="path957"/>
    </g>
    <path d="m 50.346914,19.93677 c -0.670843,0.01923 -1.263286,0.261341 -1.615235,1.007286 -1.065624,2.258556 -2.139148,4.911662 -2.729801,7.044001 -0.255242,0.921447 -0.247357,1.687608 0.255948,2.336026 0.329191,0.424101 0.86819,0.798307 1.691035,1.130921 2.080906,0.841161 8.646563,3.314929 15.157564,4.272217 3.157123,0.464181 6.189818,0.706904 8.914671,0.836527 -4.142997,0.339434 -5.611677,0.979729 -5.611677,1.594208 0,0.892961 0.04398,6.245346 0.04398,7.46483 0,1.219484 3.835481,11.092739 3.835481,11.092739 -0.916178,0.585952 -2.683949,1.599234 -2.683949,2.279108 0,0.679872 -0.06972,4.401739 -0.06972,5.230977 0,0.829239 2.753665,2.982668 2.753665,2.982668 0,0 -2.295473,7.529408 -3.172448,11.963323 -21.239085,0.445342 -37.220384,1.881413 -39.449238,2.115347 -2.642587,0.277358 -2.990317,0.901711 -3.129401,2.49652 -0.139083,1.59481 -0.139438,2.698889 -0.139438,4.049671 0,1.350784 3.6e-4,2.455328 0.139438,4.050142 0.139084,1.59481 0.486814,2.218694 3.129401,2.496054 2.41305,0.253271 20.923276,2.318231 44.799831,2.675211 0.03229,0.855381 0.950518,25.196304 0.966704,28.471334 0.01646,3.33261 -1.870086,4.57074 -2.389158,8.93306 -0.519075,4.36232 -0.957596,14.1628 -0.659761,19.11231 0.297835,4.9495 6.982478,9.11969 9.028843,9.11969 2.046368,0 8.731478,-4.17019 9.029313,-9.11969 0.297835,-4.94951 -0.140682,-14.74999 -0.659756,-19.11231 -0.519075,-4.36232 -2.405633,-5.60045 -2.389163,-8.93306 0.0162,-3.27503 0.934421,-27.615953 0.966708,-28.471334 23.876549,-0.35698 42.386779,-2.42194 44.799839,-2.675211 2.64259,-0.27736 2.99031,-0.901244 3.1294,-2.496054 0.13907,-1.594814 0.13896,-2.699358 0.13896,-4.050142 0,-1.350782 1.1e-4,-2.454861 -0.13896,-4.049671 -0.13909,-1.594809 -0.48681,-2.219162 -3.1294,-2.49652 -2.22887,-0.233936 -18.21039,-1.670017 -39.449723,-2.115347 -0.876977,-4.433915 -3.172451,-11.963323 -3.172451,-11.963323 0,0 2.754128,-2.153429 2.754128,-2.982668 0,-0.829238 -0.06971,-4.551105 -0.06971,-5.230977 0,-0.679874 -1.768237,-1.693156 -2.684416,-2.279108 0,0 3.835958,-9.873255 3.835958,-11.092739 0,-1.219484 0.044,-6.571869 0.044,-7.46483 0,-0.6145 -1.468816,-1.254784 -5.612153,-1.594208 2.724627,-0.12964 5.756657,-0.372422 8.913275,-0.836527 6.511002,-0.957288 13.076192,-3.431056 15.157102,-4.272217 2.08091,-0.841159 2.36963,-1.942825 1.94745,-3.466947 -0.47561,-1.717019 -1.26522,-3.769109 -2.11074,-5.683536 -0.20452,-0.46307 -0.4115,-0.920561 -0.61905,-1.360465 -0.62569,-1.326126 -2.01152,-1.060522 -3.24685,-0.779608 -1.23532,0.280913 -16.032624,4.125718 -27.434667,4.125718 -11.402044,0 -26.199329,-3.844805 -27.434655,-4.125718 -0.540453,-0.1229 -1.109375,-0.242638 -1.631145,-0.227678 z" style="font-variation-settings:normal;vector-effect:none;fill:#800000;fill-opacity:1;fill-rule:evenodd;stroke:none;stroke-width:0.264583;stroke-linecap:butt;stroke-linejoin:miter;stroke-miterlimit:4;stroke-dasharray:none;stroke-dashoffset:0;stroke-opacity:1;marker:none;marker-start:none;marker-mid:none;marker-end:none;stop-color:#000000" id="path1106"/>
    <g style="stroke-width:1.10601" id="g1019" transform="matrix(0.90546626,0,0,0.90283309,1.1636777,1.3076456)">
      <path id="path1014" d="m 77.670594,104.48725 c 0,0 1.067955,28.35002 1.086145,32.04131 0.01819,3.69129 -2.065296,5.06304 -2.638563,9.89485 -0.573267,4.83181 -1.05742,15.68674 -0.728488,21.16893 0.328931,5.48219 7.711637,10.10116 9.97165,10.10116 2.260014,0 9.64272,-4.61897 9.97165,-10.10116 0.328932,-5.48219 -0.15522,-16.33712 -0.728488,-21.16893 -0.573267,-4.83181 -2.656752,-6.20356 -2.638563,-9.89485 0.01819,-3.69129 1.086145,-32.04131 1.086145,-32.04131 z" style="font-variation-settings:normal;opacity:1;vector-effect:none;fill:#cccccc;fill-opacity:1;fill-rule:evenodd;stroke:none;stroke-width:0.292632;stroke-linecap:butt;stroke-linejoin:miter;stroke-miterlimit:4;stroke-dasharray:none;stroke-dashoffset:0;stroke-opacity:1;marker:none;marker-start:none;marker-mid:none;marker-end:none;stop-color:#000000;stop-opacity:1"/>
      <path d="m 92.623288,104.50234 -10.675318,0.61392 0.07648,1.92029 c 0,0 2.178585,-0.41386 4.70204,-0.34881 v 25.18089 c 0.06375,1.48189 0.01508,2.99032 0.725536,4.30155 -0.120711,-1.37156 -0.193191,-3.1106 -0.196369,-4.30155 v -25.16022 c 0.378373,0.0201 0.76159,0.0511 1.143598,0.0977 0.160491,0.0196 0.310851,0.0483 0.455787,0.0817 -0.03426,2.44893 -0.296344,21.08035 -0.43925,24.51013 -0.155284,3.72682 0.879017,5.54075 0.879017,5.54075 0,0 -0.501259,-1.87338 -0.349332,-5.51956 0.144171,-3.46012 0.399933,-21.6953 0.437181,-24.36958 0.402421,0.15872 0.73428,0.37654 1.006139,0.63821 -0.03596,0.98211 -0.225718,6.17965 -0.41806,12.22974 -0.105616,3.32209 -0.20492,6.73084 -0.269753,9.48263 -0.06483,2.75179 -0.09471,4.82818 -0.05426,5.55625 0.115157,1.21621 0.220911,2.43864 1.030943,3.36465 -0.256198,-1.08744 -0.447119,-2.4471 -0.503846,-3.39359 -0.03635,-0.65437 -0.01,-2.76471 0.05478,-5.51388 0.06477,-2.74916 0.165711,-6.1572 0.271304,-9.47849 0.175757,-5.52844 0.335333,-9.98629 0.393774,-11.60498 0.710721,1.1596 0.762111,2.71506 0.808217,3.77548 0.0768,1.76644 -0.532109,13.93745 -0.70435,18.60921 -0.164216,4.45414 -0.524428,6.73542 0.320395,8.11785 0.844822,1.38244 1.382038,2.45754 2.073259,5.22242 0.691219,2.76488 1.075386,7.83414 1.075386,7.83414 0,0 0.153519,-5.06908 -0.84491,-8.37158 -0.998427,-3.30249 -1.382165,-3.84024 -1.91978,-5.52989 -0.537615,-1.68965 0.166534,-10.6569 0.306959,-13.59401 0.124759,-2.60943 0.614434,-19.89129 0.614434,-19.89129 z m -12.230261,0.19637 -0.597382,0.0548 0.217043,2.77037 0.488858,-0.0858 z m -0.916742,0.12454 -0.495575,0.0388 0.217556,2.87941 0.379823,-0.10852 z m 1.242301,0.3111 0.163298,2.23345 0.705901,-0.1695 -0.05426,-2.00918 z" style="font-variation-settings:normal;opacity:1;vector-effect:none;fill:#808080;fill-opacity:1;fill-rule:evenodd;stroke:none;stroke-width:0.292632;stroke-linecap:butt;stroke-linejoin:miter;stroke-miterlimit:4;stroke-dasharray:none;stroke-dashoffset:0;stroke-opacity:1;marker:none;marker-start:none;marker-mid:none;marker-end:none;stop-color:#000000;stop-opacity:1" id="path1072"/>
      <path id="path1021" style="font-variation-settings:normal;opacity:1;vector-effect:none;fill:#ffffff;fill-opacity:1;fill-rule:evenodd;stroke:none;stroke-width:1.10601;stroke-linecap:butt;stroke-linejoin:miter;stroke-miterlimit:4;stroke-dasharray:none;stroke-dashoffset:0;stroke-opacity:1;marker:none;marker-start:none;marker-mid:none;marker-end:none;stop-color:#000000;stop-opacity:1" d="m 295.13672,408.07617 c -0.4146,0.01 -0.77008,0.0507 -1.0918,0.0977 0.75045,20.07484 3.55863,95.56082 3.61914,107.83984 0.0687,13.95133 -7.80598,19.13648 -9.97265,37.39844 -2.16668,18.26196 -3.99712,59.28772 -2.75391,80.00781 1.04808,17.46797 21.04299,32.61625 32.41211,36.94141 19.82404,-4.61276 37.39591,-24.58863 38.1543,-34.06836 0.82102,-10.26278 1.82504,-79.25327 -3.98047,-92.02539 -5.80552,-12.77216 -12.48145,-20.61101 -22.06055,-25.83594 -9.5791,-5.22497 -11.9014,-8.41649 -13.0625,-16.25391 -1.1611,-7.83745 -0.28981,-66.18352 -0.58008,-72.27929 -0.29028,-6.09581 -2.03125,-6.09571 -2.03125,-6.09571 l -0.87109,87.08204 c 0,0 -2.32227,-1.16004 -2.32227,-4.9336 0,-3.77359 -0.87109,-76.63395 -0.87109,-82.43945 0,-5.80551 -2.0332,-6.38477 -2.0332,-6.38477 v 91.43555 c 0,0 -1.74099,-0.2904 -2.03125,-4.64453 -0.29029,-4.35413 -1.45144,-72.56844 -2.32227,-85.63086 -0.59869,-8.98039 -5.31294,-10.2772 -8.20117,-10.21094 z m 28.13281,119.06445 c 8.70827,0 18.80857,7.18248 22.3418,16.58399 3.53323,9.40151 4.25763,19.59731 3.87305,33.18164 -1.33305,-9.66129 -2.96117,-19.90798 -3.53126,-20.99219 -0.23484,1.77876 0.76003,13.76688 -0.0391,25.12891 -1.03968,-11.07345 -2.29026,-22.34755 -3.10351,-24.37305 -0.42076,2.74537 0.41994,18.39685 -0.47266,33.32031 -0.93761,-14.75933 -2.08714,-29.80416 -3.08984,-32.46484 -0.61692,3.56617 0.25427,22.58202 -0.58985,40.75586 -0.98204,-18.10794 -2.17977,-36.59675 -3.73437,-39.7168 -1.06975,7.3712 -0.44,27.8557 -1.19922,47.55469 -0.93216,-20.71394 -2.0081,-40.85839 -3.99805,-46.30469 -1.44548,6.3352 -0.72241,27.70417 -1.51758,48.33594 -0.95475,-21.21605 -2.08401,-42.28756 -4,-47.00977 -1.40845,6.32903 -0.63972,28.72057 -1.47265,50.33204 -0.99627,-22.13866 -2.17852,-44.21394 -4.20313,-48.96875 -1.52609,5.93255 -0.67662,29.69819 -1.55859,52.58203 -1.04493,-23.21995 -2.30119,-46.61301 -3.82031,-51.28906 -1.05287,5.13726 -0.0563,31.52481 -1.0293,56.77148 -1.0408,-23.12826 -2.2041,-45.02776 -3.30859,-51.38867 -0.74617,6.66832 -1.12075,38.62467 -1.25977,64.1875 -1.55581,-19.89177 -1.90899,-44.64653 -2.89844,-55.20313 -0.99263,9.58167 -1.17292,26.62795 -1.35156,51.52344 -0.0287,4.02421 0.44615,6.87985 1.34766,10.06641 -1.85611,-2.90926 -1.86379,-5.86608 -2.08789,-9.76368 -1.0566,-18.3758 -1.33913,-34.17981 -2.01953,-42.94335 -0.72222,11.18221 -0.86589,25.81807 -1.01368,46.41406 -0.0287,4.02421 0.88202,8.33121 4.97657,14.27539 -5.04915,-4.50577 -5.49269,-10.07506 -5.7168,-13.97266 -0.91258,-15.87115 -1.25099,-29.92435 -1.79688,-39.04687 0,0 -1.59179,17.18541 -1.59179,31.69922 0,14.5138 6.09529,24.09284 8.99804,27.57617 0,0 -9.86846,-5.5155 -11.90039,-20.0293 -2.03193,-14.51376 0.86929,-69.08586 5.51367,-85.92187 4.64442,-16.83599 16.54564,-20.90039 25.25391,-20.9004 z" transform="scale(0.26458333)"/>
      <path id="path1057" style="font-variation-settings:normal;opacity:1;vector-effect:none;fill:#808080;fill-opacity:1;fill-rule:evenodd;stroke:none;stroke-width:1.10601;stroke-linecap:butt;stroke-linejoin:miter;stroke-miterlimit:4;stroke-dasharray:none;stroke-dashoffset:0;stroke-opacity:1;marker:none;marker-start:none;marker-mid:none;marker-end:none;stop-color:#000000;stop-opacity:1" d="m 304.98243,564.29688 c 0,0 -0.50722,-9.5081 0.80469,-20.14551 l 2.43944,10.45019 0.85645,-15.78808 c 0.86399,5.23712 1.81152,11.47558 1.81152,11.47558 0,0 0.2971,-7.68725 1.8457,-14.99512 1.0442,5.26928 1.64258,12.53028 1.64258,12.53028 0,0 0.71636,-8.29355 1.92676,-14.59863 0.8457,5.00972 1.56543,12.5498 1.56543,12.5498 0,0 0.50874,-8.37325 1.88184,-13.88281 1.69273,3.75141 2.62793,10.80078 2.62793,10.80078 0,0 0.63921,-7.1639 1.24023,-11.65429 1.53693,5.30626 2.66602,12.68554 2.66602,12.68554 0,0 0.52453,-7.34061 0.66601,-12.86035 1.30606,4.47466 2.41211,11.21777 2.41211,11.21777 0,0 0.39339,-6.50405 0.41797,-10.91016 1.59619,4.61207 2.45312,11.11719 2.45312,11.11719 0,0 0.84118,-5.73917 0.58692,-10.32031 1.66201,4.2638 2.90527,10.93555 2.90527,10.93555 0,0 0.4056,-5.83226 0.0547,-9.71387 2.67865,5.01223 4.04883,11.55957 4.04883,11.55957 0,0 0.57084,-5.0808 -1.52539,-10.11328 1.47866,0.95845 2.75733,1.96888 3.79687,2.87695 -4.72869,-6.17236 -12.18425,-10.37305 -18.83789,-10.37305 -8.70827,10e-6 -20.60949,4.06441 -25.25391,20.9004 -2.53684,9.19614 -4.54661,29.64202 -5.52343,48.67773 0.38482,14.03585 1.16992,26.95484 1.16992,27.85742 -0.27967,-7.55105 0.12052,-26.21623 2.64844,-44.73633 0.48958,6.65754 1.125,12.32032 1.125,12.32032 -0.29185,-11.20027 -0.12867,-21.01976 2.39062,-31.28711 0.17744,9.0024 0.80469,17.64843 0.80469,17.64843 0,0 0.26266,-13.21551 1.64648,-26.01367 1.33015,5.08585 2.70508,11.78906 2.70508,11.78907 z" transform="scale(0.26458333)"/>
    </g>
    <g style="stroke-width:1.10601" id="g966" transform="matrix(0.90546626,0,0,0.90283309,1.163755,1.2383061)">
      <path id="path959" d="m 28.211981,102.10709 c -2.918481,-0.30721 -3.302492,-0.99843 -3.456096,-2.764877 -0.153604,-1.766451 -0.153604,-2.989695 -0.153604,-4.485857 0,-1.496161 0,-2.719405 0.153604,-4.485856 0.153604,-1.766448 0.537615,-2.457667 3.456096,-2.764875 2.918481,-0.30721 27.153615,-2.493121 57.149357,-2.493121 29.995742,0 54.230872,2.185911 57.149352,2.493121 2.91849,0.307208 3.3025,0.998427 3.4561,2.764875 0.1536,1.766451 0.1536,2.989695 0.1536,4.485856 0,1.496162 0,2.719406 -0.1536,4.485857 -0.1536,1.766447 -0.53761,2.457667 -3.4561,2.764877 -2.91848,0.30721 -27.15361,3.02229 -57.149352,3.02229 -29.995742,0 -54.230876,-2.71508 -57.149357,-3.02229 z" style="font-variation-settings:normal;opacity:1;vector-effect:none;fill:#cccccc;fill-opacity:1;fill-rule:evenodd;stroke:none;stroke-width:0.292632;stroke-linecap:butt;stroke-linejoin:miter;stroke-miterlimit:4;stroke-dasharray:none;stroke-dashoffset:0;stroke-opacity:1;marker:none;marker-start:none;marker-mid:none;marker-end:none;stop-color:#000000;stop-opacity:1"/>
      <path id="path970" style="font-variation-settings:normal;opacity:1;vector-effect:none;fill:#ffffff;fill-opacity:1;fill-rule:evenodd;stroke:none;stroke-width:1.10601;stroke-linecap:butt;stroke-linejoin:miter;stroke-miterlimit:4;stroke-dasharray:none;stroke-dashoffset:0;stroke-opacity:1;marker:none;marker-start:none;marker-mid:none;marker-end:none;stop-color:#000000;stop-opacity:1" d="m 322.625,321.68555 c -113.36973,0 -204.96561,8.26076 -215.99609,9.42187 -11.030487,1.1611 -12.481953,3.77483 -13.062504,10.45117 -0.58055,6.67635 -0.582031,11.29835 -0.582031,16.95313 0,5.65478 0.0015,10.27873 0.582031,16.95508 0.358488,4.1226 1.055926,6.69166 4.128906,8.33008 -1.559511,-3.24831 -1.566406,-7.01563 -1.566406,-7.01563 1.847305,3.69461 3.693004,3.69531 4.103514,3.69531 -2.25781,-1.84732 -1.640623,-4.31054 -1.640623,-4.31054 3.078263,3.77785 5.741963,3.16532 7.146483,2.39453 -5.03937,-1.15645 -5.955854,-3.21133 -6.382811,-7.01172 -0.565871,-5.03691 -0.564453,-8.52482 -0.564453,-12.79102 0,-4.26619 -0.0014,-7.7541 0.564453,-12.79101 0.565874,-5.0369 1.980801,-7.00879 12.732421,-7.88477 10.75162,-0.87599 100.03346,-7.10742 210.53711,-7.10742 110.50364,0 199.78553,6.23143 210.53711,7.10742 6.91483,0.56338 9.95742,1.58628 11.40625,3.58008 -0.35484,-1.55727 -0.995,-3.19744 -2.14453,-4.5625 0,0 3.69373,0.20437 5.54101,5.54101 0,10e-6 0.82122,-3.48916 -2.46289,-6.97851 0,0 3.48937,0.61558 4.51563,4.7207 0,0 0.44741,-1.58425 0.44531,-4.27148 -1.42756,-2.81397 -4.5182,-4.23321 -11.83984,-5.00391 -11.03048,-1.16111 -102.62832,-9.42187 -215.99805,-9.42187 z" transform="scale(0.26458333)"/>
      <path id="path979" style="font-variation-settings:normal;opacity:1;vector-effect:none;fill:#808080;fill-opacity:1;fill-rule:evenodd;stroke:none;stroke-width:1.10601;stroke-linecap:butt;stroke-linejoin:miter;stroke-miterlimit:4;stroke-dasharray:none;stroke-dashoffset:0;stroke-opacity:1;marker:none;marker-start:none;marker-mid:none;marker-end:none;stop-color:#000000;stop-opacity:1" d="m 545.50195,335.66211 c 3.28411,3.48935 2.46289,6.97852 2.46289,6.97851 -1.84728,-5.33664 -5.54101,-5.54101 -5.54101,-5.54101 1.14953,1.36506 1.78969,3.00523 2.14453,4.5625 0.80391,1.1063 1.12424,2.50722 1.32617,4.30469 0.56587,5.03691 0.56641,8.52482 0.56641,12.79101 0,4.2662 -5.4e-4,7.75411 -0.56641,12.79102 -0.56587,5.0369 -1.98076,7.00878 -12.73242,7.88476 -10.75158,0.87602 -100.03347,8.63297 -210.53711,8.63297 -110.50365,0 -199.78549,-7.75695 -210.53711,-8.63297 -2.63942,-0.21504 -4.70998,-0.49678 -6.34961,-0.87304 -1.40452,0.77079 -4.06822,1.38332 -7.146483,-2.39453 0,0 -0.617187,2.46322 1.640623,4.31054 -0.41051,0 -2.256209,-7e-4 -4.103514,-3.69531 0,0 0.0069,2.12527 1.566406,5.37358 1.903546,1.0149 4.714378,1.67501 8.933598,2.11914 11.03048,1.1611 105.62636,11.14932 215.99609,11.14932 110.36973,0 204.96757,-10.3781 215.99805,-11.5392 11.03051,-1.16111 10.91228,-6.02505 11.40586,-11.70139 0.49358,-5.67634 0.78533,-8.0162 0.78533,-13.67098 10e-6,-5.65478 -0.21613,-11.45256 -0.79666,-18.12891 -1.02626,-4.10512 -4.51563,-4.7207 -4.51563,-4.7207 z" transform="scale(0.26458333)"/>
      <path id="path994" style="font-variation-settings:normal;opacity:1;vector-effect:none;fill:#808080;fill-opacity:1;fill-rule:evenodd;stroke:none;stroke-width:1.10601;stroke-linecap:butt;stroke-linejoin:miter;stroke-miterlimit:4;stroke-dasharray:none;stroke-dashoffset:0;stroke-opacity:1;marker:none;marker-start:none;marker-mid:none;marker-end:none;stop-color:#000000;stop-opacity:1" d="m 356.93471,393.72689 c 0,0 14.43703,-2.44448 15.44224,-6.66634 2.05257,-8.6208 7.38901,-39.82066 6.97852,-52.95703 -0.0848,-2.71297 -0.77829,-6.90163 -1.79492,-11.77735 -17.53739,-0.39347 -16.0386,-0.64062 -16.0386,-0.64062 z" transform="scale(0.26458333)"/>
    </g>
    <g style="stroke-width:1.10601" id="g957" transform="matrix(0.90546626,0,0,0.90283309,1.1636778,1.2383061)">
      <path id="path1245" d="M 97.466318,101.88051 C 98.009391,99.599596 99.421381,91.344886 99.312767,87.869219 99.204152,84.393551 95.43884,72.011486 95.43884,72.011486 c 0,0 3.041209,-2.384943 3.041209,-3.303428 0,-0.918486 -0.0768,-5.040801 -0.0768,-5.793845 0,-0.753044 -1.952576,-1.875475 -2.964407,-2.52449 0,0 4.23597,-10.935899 4.23597,-12.286628 0,-1.35073 0.04865,-7.279327 0.04865,-8.268393 0,-0.989066 -3.42374,-2.037866 -14.362124,-2.037866 -10.938384,0 -14.362124,1.0488 -14.362124,2.037866 0,0.989066 0.04865,6.917663 0.04865,8.268393 0,1.350729 4.23597,12.286628 4.23597,12.286628 -1.011831,0.649015 -2.964407,1.771446 -2.964407,2.52449 0,0.753044 -0.0768,4.875359 -0.0768,5.793845 0,0.918485 3.041209,3.303428 3.041209,3.303428 0,0 -3.765312,12.382065 -3.873927,15.857733 -0.108614,3.475667 1.303376,11.730377 1.846449,14.011291 0.543073,2.2809 2.498136,3.58428 12.10498,3.58428 9.606844,0 11.561907,-1.30338 12.10498,-3.58428 z" style="font-variation-settings:normal;opacity:1;vector-effect:none;fill:#cccccc;fill-opacity:1;fill-rule:evenodd;stroke:none;stroke-width:0.292632;stroke-linecap:butt;stroke-linejoin:miter;stroke-miterlimit:4;stroke-dasharray:none;stroke-dashoffset:0;stroke-opacity:1;marker:none;marker-start:none;marker-mid:none;marker-end:none;stop-color:#000000;stop-opacity:1"/>
      <path transform="scale(0.26458333)" d="m 320.83008,142.86523 c -39.8749,0.11708 -52.48633,4.00971 -52.48633,7.69141 0,3.7382 0.18359,26.14488 0.18359,31.25 0,5.10512 16.00977,46.4375 16.00977,46.4375 -3.82424,2.45297 -11.20313,6.69487 -11.20313,9.54102 0,2.84615 -0.29101,18.42699 -0.29101,21.89843 l 6.11914,-0.0312 c 0,0 15.88505,-0.65158 28.6543,-0.71484 -12.7318,-2.66177 -28.94141,-1.50195 -28.94141,-1.50195 0,0 16.17216,-2.39963 28.94141,-2.46289 -12.7318,-2.66178 -28.94141,-1.5 -28.94141,-1.5 0,0 16.17216,-2.40159 28.94141,-2.46485 -12.7318,-2.66177 -28.94141,-1.5 -28.94141,-1.5 0,0 16.17216,-2.40158 28.94141,-2.46484 -12.7318,-2.66177 -28.94141,-1.5 -28.94141,-1.5 0,0 16.17216,-2.39963 28.94141,-2.46289 -12.7318,-2.66177 -28.94141,-1.50196 -28.94141,-1.50196 0,0 16.17216,-2.39962 28.94141,-2.46289 -11.9897,-2.50662 -26.49738,-1.12124 -28.30664,-0.93554 0.81939,-1.64887 2.49294,-2.95703 5.37304,-2.95703 h 53.31055 c 9.85228,0 18.67773,-1.84571 18.67773,-1.84571 h -26.0664 c -4.92615,0 -6.15821,-1.02734 -6.15821,-1.02734 H 348.25 c 5.95242,0 8.00586,-1.64258 8.00586,-1.64258 h -21.75781 c -5.1314,0 -7.59375,-1.02539 -7.59375,-1.02539 h 20.52539 c 10.46805,0 13.2832,-1.4375 13.2832,-1.4375 h -57.76367 c 0,0 -2.80434,-28.72855 -8.0293,-39.46875 -4.5222,-9.29564 -17.70279,-8.15474 -21.17578,-7.69336 -0.23399,0.0344 -0.7063,0.0984 -0.88281,0.125 -2.7e-4,0.003 0.3431,-0.0533 0.88281,-0.125 3.88076,-0.56981 15.12242,-2.10775 25.04102,-2.76367 -10.20654,-1.01155 -21.9971,0.35292 -25.62696,-0.11914 3.85824,-1.4979 15.56978,-3.10836 25.62696,-3.77344 -9.78475,-0.96975 -21.13109,0.25929 -25.29883,-0.16406 4.26176,-1.5543 15.59584,-3.08881 25.29883,-3.73047 -9.45761,-0.93733 -20.52255,0.19586 -25.04297,-0.19922 4.5343,-1.58924 15.61805,-3.07009 25.04297,-3.69336 -9.22577,-0.91435 -20.12312,0.15747 -24.85157,-0.22461 4.73401,-1.61407 15.64705,-3.05927 24.85157,-3.66797 -9.09195,-0.90108 -19.86077,0.13344 -24.70508,-0.24414 4.85774,-1.6308 15.66144,-3.05038 24.70508,-3.64843 -9.03214,-0.89516 -19.7018,0.11681 -24.60547,-0.25782 4.87877,-1.63394 15.6076,-3.04169 24.60547,-3.63672 -8.98998,-0.89098 -19.59122,0.1107 -24.52539,-0.26367 4.90676,-1.63813 15.56437,-3.03631 24.52539,-3.6289 -8.95901,-0.88791 -19.51074,0.10012 -24.48047,-0.10547 0,0 19.33472,-5.96617 46.52539,-8.09571 z m -38.60156,68.41211 c 0,0 7.81965,14.17697 4.83593,15.10157 -2.98371,0.9246 -4.83593,-15.10157 -4.83593,-15.10157 z m 5.27539,5.62696 c 0,0 6.30713,9.10611 3.20507,10.02734 -3.10207,0.92123 -3.20507,-10.02734 -3.20507,-10.02734 z m 5.1914,5.04297 c 0,0 4.16206,4.54417 1.58203,5.12109 -2.58002,0.57691 -1.58203,-5.12109 -1.58203,-5.12109 z m -8.1582,50.22265 c 0,0 -14.23011,46.79721 -14.64063,59.9336 -0.41051,13.13637 4.92596,44.33625 6.97852,52.95703 0.63466,2.66555 1.7825,4.97574 4.13477,6.89843 -2.26953,-6.0192 -1.51954,-10.73046 -1.51954,-10.73046 1.84731,6.77344 5.74805,8.62109 5.74805,8.62109 -2.87358,-4.51559 -2.25781,-9.23633 -2.25781,-9.23633 1.43679,5.33666 5.13086,7.59375 5.13086,7.59375 0,0 -3.07972,-7.18305 -3.49024,-14.57226 -0.41051,-7.38922 0.41123,-35.50994 1.4375,-42.07813 1.02629,-6.56819 13.75125,-51.10884 14.57227,-53.98242 0.82102,-2.87358 1.6424,-5.4043 -2.66797,-5.4043 z m 3.83008,4.63281 c 0.10715,-0.008 0.21614,0.003 0.32617,0.0352 3.52101,1.02987 -5.57617,19.2793 -5.57617,19.2793 0,0 1.92841,-19.05954 5.25,-19.31446 z m 3.95117,0.71289 c 0.0843,-0.003 0.16869,0.009 0.25586,0.0352 2.78938,0.8501 -4.12305,13.8457 -4.12305,13.8457 0,0 1.25295,-13.79169 3.86719,-13.88086 z m 30.30664,72.75 a 12.777484,12.777484 0 0 0 -12.77734,12.77735 12.777484,12.777484 0 0 0 4.49023,9.72265 l -0.86328,-2.91796 c -2.63882,-2.59548 -1.75195,-6.75196 -1.75195,-6.75196 0.60816,2.43268 1.55611,4.33722 2.40234,5.73828 l 1.52734,-0.18164 a 8.9478495,8.9478495 0 0 1 -1.97656,-5.60937 8.9478495,8.9478495 0 0 1 8.94922,-8.94922 8.9478495,8.9478495 0 0 1 7.95703,4.85937 l 1.49219,0.084 c -1.31043,-2.73224 -2.75586,-4.32031 -2.75586,-4.32031 1.92959,0.6432 2.85869,1.83206 3.47461,3.08984 l 0.23633,-2.17773 a 12.777484,12.777484 0 0 0 -10.4043,-5.36329 z" style="font-variation-settings:normal;opacity:1;vector-effect:none;fill:#ffffff;fill-opacity:1;fill-rule:evenodd;stroke:none;stroke-width:1.10601;stroke-linecap:butt;stroke-linejoin:miter;stroke-miterlimit:4;stroke-dasharray:none;stroke-dashoffset:0;stroke-opacity:1;marker:none;marker-start:none;marker-mid:none;marker-end:none;stop-color:#000000;stop-opacity:1" id="path876"/>
      <path transform="scale(0.26458333)" d="m 346.69141,146.25 c -6.68513,-0.0315 -12.84479,0.52561 -17.66602,1.19141 8.01146,0.80203 27.3086,0.48936 44.33594,2.87304 -8.61016,-3.00895 -18.07476,-4.02401 -26.66992,-4.06445 z m 0,4.75586 c -6.68513,-0.0315 -12.84479,0.52561 -17.66602,1.19141 8.01146,0.80203 27.3086,0.4874 44.33594,2.87109 -8.61016,-3.00895 -18.07476,-4.02206 -26.66992,-4.0625 z m 0,4.75391 c -6.68513,-0.0315 -12.84479,0.5276 -17.66602,1.19335 8.01146,0.80204 27.3086,0.48741 44.33594,2.8711 -8.61016,-3.00895 -18.07476,-4.02401 -26.66992,-4.06445 z m 0,4.75585 c -6.68513,-0.0314 -12.84479,0.52562 -17.66602,1.19141 8.01146,0.80204 27.3086,0.48745 44.33594,2.87109 -8.61016,-3.00891 -18.07476,-4.02205 -26.66992,-4.0625 z m 0,4.75586 c -6.68513,-0.0315 -12.84479,0.52561 -17.66602,1.19141 8.01146,0.80204 27.3086,0.48741 44.33594,2.87109 -8.61016,-3.00895 -18.07476,-4.02205 -26.66992,-4.0625 z m 0,4.75391 c -6.68513,-0.0314 -12.84479,0.52561 -17.66602,1.19141 8.01146,0.80203 27.3086,0.48936 44.33594,2.87304 -8.61016,-3.00895 -18.07476,-4.02401 -26.66992,-4.06445 z m 0,4.75586 c -6.68513,-0.0315 -12.84479,0.52561 -17.66602,1.19141 8.01146,0.80203 27.3086,0.4874 44.33594,2.87109 -8.61016,-3.00895 -18.07476,-4.02206 -26.66992,-4.0625 z m 21.63476,5.23047 c -5.32364,0.0873 -14.40198,1.37978 -17.99414,8.76367 -5.22496,10.7402 -8.0293,39.46875 -8.0293,39.46875 h 18.41211 c 0,0 -3.70595,-2.39453 -16.22656,-2.39453 0,0 2.54486,-23.56998 8.45117,-34.12891 -2.39548,10.72755 -4.96484,32.41993 -4.96484,32.41992 l 8.39062,-36.5371 -5.14257,36.5332 8.63672,-38.58789 -2.9336,27.30469 6.41406,-28.51368 -2.55664,24.20313 6.08594,-24.87305 -0.99219,13.375 c 0,0 3.54291,-12.36621 4.68555,-13.60937 1.14264,-1.24315 3.02259,-1.45315 4.71289,-2.53711 l -2.88477,-0.7168 c 0,0 -1.64461,-0.20959 -4.06445,-0.16992 z m -22.61523,56.68359 c -1.13415,-0.009 -2.25762,3.6e-4 -3.36719,0.0234 -6.90397,0.1437 -13.26703,0.86224 -18.24609,1.6543 8.27372,0.59223 28.20431,-0.22682 45.78906,1.71093 -7.78052,-2.43553 -16.23674,-3.32747 -24.17578,-3.38867 z m 0,4.75586 c -1.13415,-0.009 -2.25762,3.6e-4 -3.36719,0.0234 -6.90397,0.1437 -13.26703,0.86029 -18.24609,1.65234 8.27372,0.59224 28.20431,-0.2268 45.78906,1.71094 -7.78052,-2.43553 -16.23674,-3.32589 -24.17578,-3.38672 z m 0,4.75586 c -1.13415,-0.009 -2.25762,3.6e-4 -3.36719,0.0234 -6.90397,0.1437 -13.26703,0.86028 -18.24609,1.65234 8.27372,0.59223 28.20431,-0.2268 45.78906,1.71094 -7.78052,-2.43553 -16.23674,-3.32589 -24.17578,-3.38672 z m 0,4.75391 c -1.13415,-0.009 -2.25762,3.5e-4 -3.36719,0.0234 -6.90397,0.14367 -13.26703,0.86028 -18.24609,1.65234 8.27372,0.59222 28.20431,-0.22488 45.78906,1.71289 -7.78052,-2.43553 -16.23674,-3.32747 -24.17578,-3.38867 z m 0,4.75586 c -1.13415,-0.009 -2.25762,3.5e-4 -3.36719,0.0234 -6.90397,0.1437 -13.26703,0.86029 -18.24609,1.65235 8.27372,0.59222 28.20431,-0.22685 45.78906,1.71094 -7.78052,-2.43553 -16.23674,-3.3259 -24.17578,-3.38672 z m -52.91992,4.75781 c -11.61103,0 -15.38477,0.58008 -15.38477,0.58008 l 59.49805,1.51172 c 0,0 -0.42638,1.20312 -4.49024,1.20312 h -41.24804 c 0,0 0.17381,1.17383 4.38281,1.17383 h 44.00976 c 0,0 -0.46792,1.68164 -6.27343,1.68164 h -32.24805 c 0,0 0.462,1.05859 3.94531,1.05859 h 36.57617 c 0,0 -2.46874,1.45118 -6.67773,1.45118 H 295.4043 c 0,0 1.01513,1.45117 5.80468,1.45117 h 55.87891 c 5.22497,0 5.36914,-1.74219 5.36914,-1.74219 h -4.0625 c -2.75761,0 -2.61328,-1.16016 -2.61328,-1.16016 h 5.37109 c 3.4833,0 3.19141,-1.59765 3.19141,-1.59765 -4.06386,0 -5.51367,-1.16016 -5.51367,-1.16016 h 3.91797 c 3.77358,0 4.64453,-1.59766 4.64453,-1.59766 -5.37011,0 -6.24024,-1.45117 -6.24024,-1.45117 h 8.85157 c 0,0 -0.58033,-1.40234 -5.66016,-1.40234 z m 50.07031,12.73437 c -0.0851,-0.0113 -0.16957,-0.008 -0.25586,0.01 -2.76145,0.57487 2.97316,14.6434 6.5293,28.04297 1.77806,6.69978 3.56393,13.51473 4.96679,19.06055 1.40287,5.54581 2.43111,9.88723 2.66602,11.39062 0.97487,6.23924 1.88723,33.66848 1.43164,41.86914 -0.20969,3.77423 -3.00737,8.53146 -5.82422,12.24024 -2.58019,3.3972 -5.01382,5.82336 -5.42188,6.22461 -6.30999,0.9591 -14.25321,1.63476 -24.32812,1.63476 -36.30933,0 -45.75,-8.62109 -45.75,-8.62109 2.05227,8.62053 9.44067,13.54687 45.75,13.54687 36.30933,0 43.69939,-4.92615 45.75195,-13.54687 0,0 -1.72756,1.54747 -6.4375,3.33007 0.30624,-0.48217 0.60413,-0.92883 0.91797,-1.45507 2.28894,-3.83808 4.67871,-8.72466 4.92969,-13.24219 0.23286,-4.19149 0.74533,-13.0767 1.07227,-21.74024 0.32689,-8.66351 0.49714,-16.98165 -0.0605,-20.55078 -0.27825,-1.7807 -1.29496,-6.01516 -2.70117,-11.57422 -1.40622,-5.55903 -3.18953,-12.37789 -4.96875,-19.08203 -3.44725,-12.98926 -5.571,-27.18665 -8.20899,-27.53711 -0.0851,-0.0113 -0.17158,-0.008 -0.25781,0.01 -2.75923,0.57655 2.97707,14.6434 6.5332,28.04297 1.77807,6.69978 3.55807,13.51473 4.96094,19.06055 1.40287,5.54581 2.437,9.88723 2.67187,11.39062 0.4686,2.99906 0.36287,11.52399 0.0371,20.16016 -0.3259,8.63617 -0.84491,17.51124 -1.07812,21.70898 -0.21509,3.87164 -2.43714,8.62475 -4.65039,12.33594 -0.81795,1.37154 -1.58786,2.52377 -2.2832,3.5293 -0.72267,0.22227 -1.49228,0.44274 -2.31446,0.66211 0.68908,-0.92994 1.4228,-1.95561 2.19141,-3.13672 2.49859,-3.83955 5.10659,-8.72931 5.35937,-13.2793 0.23467,-4.22397 0.54271,-13.10555 0.66407,-21.76953 0.12136,-8.66398 0.0865,-16.99255 -0.46485,-20.52149 -0.27825,-1.7807 -1.30277,-6.01516 -2.70898,-11.57422 -1.40622,-5.55903 -3.18953,-12.37789 -4.96875,-19.08203 -3.44725,-12.98926 -5.571,-27.18665 -8.20899,-27.53711 -0.0851,-0.0113 -0.17158,-0.008 -0.25781,0.01 -2.75922,0.57655 2.97707,14.6434 6.5332,28.04297 1.77807,6.69978 3.56589,13.51473 4.96875,19.06055 1.40287,5.54581 2.42916,9.88723 2.66407,11.39062 0.47488,3.03925 0.56432,11.55372 0.44336,20.18945 -0.12095,8.63573 -0.42679,17.51443 -0.65821,21.67969 -0.21328,3.83917 -2.6269,8.58907 -5.04101,12.29883 -1.47381,2.26478 -2.70972,3.86215 -3.61719,4.98242 -1.00173,0.22269 -2.08545,0.43485 -3.21094,0.64258 1.05275,-1.15437 2.3791,-2.67795 3.74219,-4.47266 2.91687,-3.84045 5.96626,-8.72487 6.22266,-13.33984 0.47654,-8.57781 -0.36961,-35.39388 -1.44727,-42.29102 -0.27825,-1.7807 -1.29495,-6.01516 -2.70117,-11.57422 -1.40622,-5.55903 -3.19539,-12.37789 -4.97461,-19.08203 -3.44725,-12.98926 -5.56737,-27.18521 -8.20703,-27.53711 z m 14.16211,0 c -0.0851,-0.0113 -0.16964,-0.008 -0.25586,0.01 -2.75922,0.57655 2.97707,14.6434 6.5332,28.04297 h -0.002 c 1.77807,6.69978 3.56588,13.51473 4.96875,19.06055 1.40286,5.54581 2.42916,9.88723 2.66406,11.39062 0.47988,3.07127 0.36245,9.1568 0.0371,15.42773 -0.32546,6.27097 -1.71314,14.22637 -0.94727,18.50391 1.23197,-4.11169 2.61404,-12.09253 2.94141,-18.40039 0.32738,-6.30786 0.49365,-12.34488 -0.0527,-15.8418 -0.27825,-1.7807 -1.30277,-6.01516 -2.70899,-11.57422 -1.40622,-5.55903 -3.1876,-12.37789 -4.96679,-19.08203 -3.44725,-12.98926 -5.57296,-27.18665 -8.21094,-27.53711 z m -23.99414,82.41993 -0.23633,2.17773 c 1.19084,2.43185 0.73437,5.18359 0.73437,5.18359 -0.384,-1.53603 -0.90747,-2.81545 -1.45312,-3.95312 l -1.49219,-0.084 a 8.9478495,8.9478495 0 0 1 0.99024,4.08985 8.9478495,8.9478495 0 0 1 -8.94727,8.94726 8.9478495,8.9478495 0 0 1 -6.97266,-3.33789 l -1.52734,0.18164 c 0.97133,1.60819 1.80664,2.53516 1.80664,2.53516 -1.07895,-0.35965 -1.83557,-0.91023 -2.45703,-1.52148 l 0.86328,2.91796 a 12.777484,12.777484 0 0 0 8.28711,3.05469 12.777484,12.777484 0 0 0 12.77734,-12.77734 12.777484,12.777484 0 0 0 -2.37304,-7.41406 z" style="color:#000000;font-style:normal;font-variant:normal;font-weight:normal;font-stretch:normal;font-size:medium;line-height:normal;font-family:sans-serif;font-variant-ligatures:normal;font-variant-position:normal;font-variant-caps:normal;font-variant-numeric:normal;font-variant-alternates:normal;font-variant-east-asian:normal;font-feature-settings:normal;font-variation-settings:normal;text-indent:0;text-align:start;text-decoration:none;text-decoration-line:none;text-decoration-style:solid;text-decoration-color:#000000;letter-spacing:normal;word-spacing:normal;text-transform:none;writing-mode:lr-tb;direction:ltr;text-orientation:mixed;dominant-baseline:auto;baseline-shift:baseline;text-anchor:start;white-space:normal;shape-padding:0;shape-margin:0;inline-size:0;clip-rule:nonzero;display:inline;overflow:visible;visibility:visible;opacity:1;isolation:auto;mix-blend-mode:normal;color-interpolation:sRGB;color-interpolation-filters:linearRGB;solid-color:#000000;solid-opacity:1;vector-effect:none;fill:#808080;fill-opacity:1;fill-rule:evenodd;stroke:none;stroke-width:2.21203;stroke-linecap:butt;stroke-linejoin:miter;stroke-miterlimit:4;stroke-dasharray:none;stroke-dashoffset:0;stroke-opacity:1;marker:none;color-rendering:auto;image-rendering:auto;shape-rendering:auto;text-rendering:auto;enable-background:accumulate;stop-color:#000000;stop-opacity:1" id="path924"/>
    </g>
    <g style="stroke-width:1.10601" transform="matrix(0.90546626,0,0,0.90283309,1.1629697,1.2383061)" id="g1192">
      <path transform="scale(0.26458333)" d="m 453.27734,84.189453 c -0.85369,-1.938552 -1.71762,-3.853742 -2.58398,-5.695312 -2.61169,-5.551556 -8.39633,-4.439661 -13.55274,-3.263672 -5.15637,1.175985 -66.92209,17.271484 -114.51562,17.271484 -47.59353,0 -109.35922,-16.095499 -114.51562,-17.271484 -2.25592,-0.514495 -4.63067,-1.015754 -6.8086,-0.953125 -2.80019,0.08052 -5.27311,1.094047 -6.74219,4.216797 -4.44805,9.454987 -8.92907,20.561672 -11.39453,29.488279 -1.06541,3.85745 -1.0325,7.06483 1.06836,9.7793 l 136.81179,5.12133 133.14083,-28.349878 z" style="font-variation-settings:normal;opacity:1;vector-effect:none;fill:#ffffff;fill-opacity:1;fill-rule:evenodd;stroke:none;stroke-width:1.10601;stroke-linecap:butt;stroke-linejoin:miter;stroke-miterlimit:4;stroke-dasharray:none;stroke-dashoffset:0;stroke-opacity:1;marker:none;marker-start:none;marker-mid:none;marker-end:none;stop-color:#000000;stop-opacity:1" id="path1176"/>
      <path transform="scale(0.26458333)" d="m 448.92525,80.905005 c 2.39264,3.348486 2.64702,7.823511 2.64702,7.823511 -4.06387,-5.515238 -7.54688,-4.935547 -7.54688,-4.935547 L 331.49414,113.01367 192.25586,108.92188 c -4.51564,4.10511 -4.31055,8.41601 -4.31055,8.41601 -2.66833,-3.2841 -2.25781,-6.1582 -2.25781,-6.1582 -1.11145,2.42497 -1.4211,4.7952 -1.45508,6.58203 1.37408,1.77541 3.62394,3.34195 7.0586,4.73437 8.68595,3.52135 36.09181,13.87728 63.26953,17.88477 27.17772,4.0075 52.2587,4.11914 68.06445,4.11914 15.80575,0 40.88868,-0.11165 68.06641,-4.11914 27.17771,-4.00749 54.58162,-14.36342 63.26757,-17.88477 8.686,-3.52134 9.89115,-8.13324 8.12891,-14.51367 -1.98526,-7.18795 -5.28122,-15.778608 -8.81055,-23.792967 -2.09103,-2.435693 -4.35209,-3.284448 -4.35209,-3.284448 z" style="font-variation-settings:normal;opacity:1;vector-effect:none;fill:#808080;fill-opacity:1;fill-rule:evenodd;stroke:none;stroke-width:1.10601;stroke-linecap:butt;stroke-linejoin:miter;stroke-miterlimit:4;stroke-dasharray:none;stroke-dashoffset:0;stroke-opacity:1;marker:none;marker-start:none;marker-mid:none;marker-end:none;stop-color:#000000;stop-opacity:1" id="path1166"/>
      <path id="path1168" d="M 68.504518,36.074571 C 61.773804,35.082095 54.031141,32.256695 52.144591,31.49188 c -1.886545,-0.764816 -2.142086,-1.092645 -1.705663,-2.672792 0.610583,-2.210724 1.563163,-4.622747 2.369428,-6.336582 0.473405,-1.006288 0.885046,-1.1178 2.183364,-0.8217 1.298314,0.296096 18.386172,4.655572 30.369617,4.655572 11.983446,0 29.071303,-4.359476 30.369613,-4.655572 1.29832,-0.2961 2.68749,-0.510432 3.1609,0.495856 0.80626,1.713835 1.75884,4.125858 2.36943,6.336582 0.43642,1.580147 -0.79665,2.23382 -2.6832,2.998636 -1.88655,0.764815 -9.62921,3.590215 -16.35992,4.582691 -6.730713,0.992479 -12.942447,1.020281 -16.856823,1.020281 -3.914375,0 -10.126109,-0.0278 -16.856819,-1.020281 z" style="font-variation-settings:normal;opacity:1;vector-effect:none;fill:#cccccc;fill-opacity:1;fill-rule:evenodd;stroke:none;stroke-width:0.292632;stroke-linecap:butt;stroke-linejoin:miter;stroke-miterlimit:4;stroke-dasharray:none;stroke-dashoffset:0;stroke-opacity:1;marker:none;marker-start:none;marker-mid:none;marker-end:none;stop-color:#000000;stop-opacity:1"/>
      <path id="path1186" d="m 120.13672,28.255859 c 0.10387,0.364929 0.16142,0.647358 0.16797,0.859375 0.007,0.212018 -0.029,0.346514 -0.11524,0.47461 -0.17256,0.256192 -0.64702,0.518342 -1.55859,0.876953 -1.82049,0.71617 -10.35731,3.821864 -16.87109,4.753906 -6.541101,0.935952 -12.582817,0.962891 -16.398442,0.962891 -3.815625,0 -9.857346,-0.02693 -16.398437,-0.962891 -6.52147,-0.933141 -15.76756,-4.066469 -18.064869,-4.84224 1.246569,1.113417 11.384157,4.422604 17.988697,5.367631 6.584911,0.94223 12.656553,0.966797 16.474609,0.966797 3.818057,0 9.889694,-0.02457 16.474612,-0.966797 6.61221,-0.946126 15.12966,-4.05594 16.98828,-4.78711 0.92797,-0.36506 1.49916,-0.620609 1.80469,-1.074218 0.15276,-0.226805 0.21401,-0.49589 0.20507,-0.785157 -0.009,-0.289266 -0.0786,-0.605641 -0.1875,-0.988281 -0.26423,-0.928338 -0.5931,-1.890066 -1.19238,-2.722656 0.10068,1.008366 0.42363,1.95726 0.68262,2.867187 z" style="color:#000000;font-style:normal;font-variant:normal;font-weight:normal;font-stretch:normal;font-size:medium;line-height:normal;font-family:sans-serif;font-variant-ligatures:normal;font-variant-position:normal;font-variant-caps:normal;font-variant-numeric:normal;font-variant-alternates:normal;font-variant-east-asian:normal;font-feature-settings:normal;font-variation-settings:normal;text-indent:0;text-align:start;text-decoration:none;text-decoration-line:none;text-decoration-style:solid;text-decoration-color:#000000;letter-spacing:normal;word-spacing:normal;text-transform:none;writing-mode:lr-tb;direction:ltr;text-orientation:mixed;dominant-baseline:auto;baseline-shift:baseline;text-anchor:start;white-space:normal;shape-padding:0;shape-margin:0;inline-size:0;clip-rule:nonzero;display:inline;overflow:visible;visibility:visible;opacity:1;isolation:auto;mix-blend-mode:normal;color-interpolation:sRGB;color-interpolation-filters:linearRGB;solid-color:#000000;solid-opacity:1;vector-effect:none;fill:#808080;fill-opacity:1;fill-rule:evenodd;stroke:none;stroke-width:0.585266;stroke-linecap:butt;stroke-linejoin:miter;stroke-miterlimit:4;stroke-dasharray:none;stroke-dashoffset:0;stroke-opacity:1;marker:none;color-rendering:auto;image-rendering:auto;shape-rendering:auto;text-rendering:auto;enable-background:accumulate;stop-color:#000000;stop-opacity:1"/>
    </g>
  </g>
</svg>