<?xml version="1.0" encoding="UTF-8" standalone="no"?>
<svg xmlns:dc="http://purl.org/dc/elements/1.1/" xmlns:cc="http://creativecommons.org/ns#" xmlns:rdf="http://www.w3.org/1999/02/22-rdf-syntax-ns#" xmlns:svg="http://www.w3.org/2000/svg" xmlns="http://www.w3.org/2000/svg" width="500" height="570" id="svg2" version="1.1">
  <defs id="defs4"/>
  <metadata id="metadata7">
    <rdf:RDF>
      <cc:Work rdf:about="">
        <dc:format>image/svg+xml</dc:format>
        <dc:type rdf:resource="http://purl.org/dc/dcmitype/StillImage"/>
        <dc:title/>
      </cc:Work>
    </rdf:RDF>
  </metadata>
  <path id="path3761" d="M 21.190926,369.62838 C 15.982654,297.67227 0,5e-6 0,5e-6 h 500 c 0,0 -15.98266,297.672265 -21.19093,369.628375 C 473.44142,443.78644 411.97615,570 250,570 88.023849,570 26.558575,443.78644 21.190926,369.62838 Z" style="color:#000000;display:inline;overflow:visible;visibility:visible;fill:#002d9a;fill-opacity:1;stroke:none;stroke-width:0.761368;marker:none;enable-background:accumulate"/>
  <path style="color:#000000;display:inline;overflow:visible;visibility:visible;fill:#ffffff;stroke:none;stroke-width:0.760702;marker:none;enable-background:accumulate" d="M 218.58547,174.38488 C 224.19868,259.80546 250,255.17174 250,255.17174 c 0,0 25.80132,4.63372 31.41452,-80.78686 C 287.02774,88.96431 250,61.426711 250,61.426711 c 0,0 -37.02773,27.537599 -31.41453,112.958169 z" id="path4108"/>
  <path style="color:#000000;font-style:normal;font-variant:normal;font-weight:normal;font-stretch:normal;font-size:medium;line-height:normal;font-family:Sans;-inkscape-font-specification:Sans;text-indent:0;text-align:start;text-decoration:none;text-decoration-line:none;letter-spacing:normal;word-spacing:normal;text-transform:none;writing-mode:lr-tb;direction:ltr;baseline-shift:baseline;text-anchor:start;display:inline;overflow:visible;visibility:visible;fill:#002d9a;fill-opacity:1;stroke:none;stroke-width:3.0428;marker:none;enable-background:accumulate" d="m 248.08514,73.949924 -0.73693,-4.812107 c -15.60228,16.229293 -20.26722,47.912213 -20.26722,47.912213 0,0 8.55992,-28.42067 21.00415,-43.100106 z" id="path4117"/>
  <path style="color:#000000;font-style:normal;font-variant:normal;font-weight:normal;font-stretch:normal;font-size:medium;line-height:normal;font-family:Sans;-inkscape-font-specification:Sans;text-indent:0;text-align:start;text-decoration:none;text-decoration-line:none;letter-spacing:normal;word-spacing:normal;text-transform:none;writing-mode:lr-tb;direction:ltr;baseline-shift:baseline;text-anchor:start;display:inline;overflow:visible;visibility:visible;fill:#002d9a;fill-opacity:1;stroke:none;stroke-width:3.0428;marker:none;enable-background:accumulate" d="m 251.91487,73.949924 0.73692,-4.812107 c 15.60228,16.229293 20.26722,47.912213 20.26722,47.912213 0,0 -8.55992,-28.42067 -21.00414,-43.100106 z" id="use4121"/>
  <path style="color:#000000;display:inline;overflow:visible;visibility:visible;fill:#ffffff;stroke:none;stroke-width:0.760702;marker:none;enable-background:accumulate" d="M 218.58547,367.20779 C 224.19868,281.78722 250,286.42093 250,286.42093 c 0,0 25.80132,-4.63371 31.41452,80.78686 C 287.02774,452.62837 250,480.16597 250,480.16597 c 0,0 -37.02773,-27.5376 -31.41453,-112.95818 z" id="path1080"/>
  <path style="color:#000000;font-style:normal;font-variant:normal;font-weight:normal;font-stretch:normal;font-size:medium;line-height:normal;font-family:Sans;-inkscape-font-specification:Sans;text-indent:0;text-align:start;text-decoration:none;text-decoration-line:none;letter-spacing:normal;word-spacing:normal;text-transform:none;writing-mode:lr-tb;direction:ltr;baseline-shift:baseline;text-anchor:start;display:inline;overflow:visible;visibility:visible;fill:#002d9a;fill-opacity:1;stroke:none;stroke-width:3.0428;marker:none;enable-background:accumulate" d="m 248.08514,467.64275 -0.73693,4.81211 c -15.60228,-16.2293 -20.26722,-47.91221 -20.26722,-47.91221 0,0 8.55992,28.42066 21.00415,43.1001 z" id="path1082"/>
  <path style="color:#000000;font-style:normal;font-variant:normal;font-weight:normal;font-stretch:normal;font-size:medium;line-height:normal;font-family:Sans;-inkscape-font-specification:Sans;text-indent:0;text-align:start;text-decoration:none;text-decoration-line:none;letter-spacing:normal;word-spacing:normal;text-transform:none;writing-mode:lr-tb;direction:ltr;baseline-shift:baseline;text-anchor:start;display:inline;overflow:visible;visibility:visible;fill:#002d9a;fill-opacity:1;stroke:none;stroke-width:3.0428;marker:none;enable-background:accumulate" d="m 251.91487,467.64275 0.73692,4.81211 c 15.60228,-16.2293 20.26722,-47.91221 20.26722,-47.91221 0,0 -8.55992,28.42066 -21.00414,43.1001 z" id="use1084"/>
  <path style="color:#000000;display:inline;overflow:visible;visibility:visible;fill:#ffffff;stroke:none;stroke-width:0.760702;marker:none;enable-background:accumulate" d="m 317.7875,195.38483 c -71.16979,47.57146 -54.25621,67.59921 -54.25621,67.59921 0,0 8.88775,24.66146 85.67074,-13.18765 76.783,-37.84911 82.11738,-83.68486 82.11738,-83.68486 0,0 -42.36213,-18.29817 -113.53191,29.2733 z" id="path1053"/>
  <path style="color:#000000;font-style:normal;font-variant:normal;font-weight:normal;font-stretch:normal;font-size:medium;line-height:normal;font-family:Sans;-inkscape-font-specification:Sans;text-indent:0;text-align:start;text-decoration:none;text-decoration-line:none;letter-spacing:normal;word-spacing:normal;text-transform:none;writing-mode:lr-tb;direction:ltr;baseline-shift:baseline;text-anchor:start;display:inline;overflow:visible;visibility:visible;fill:#002d9a;fill-opacity:1;stroke:none;stroke-width:3.0428;marker:none;enable-background:accumulate" d="m 419.51656,170.71482 3.79895,-3.04426 c -21.85613,-5.39732 -51.62681,6.40417 -51.62681,6.40417 0,0 28.89298,-6.7972 47.82786,-3.35991 z" id="path1055"/>
  <path style="color:#000000;font-style:normal;font-variant:normal;font-weight:normal;font-stretch:normal;font-size:medium;line-height:normal;font-family:Sans;-inkscape-font-specification:Sans;text-indent:0;text-align:start;text-decoration:none;text-decoration-line:none;letter-spacing:normal;word-spacing:normal;text-transform:none;writing-mode:lr-tb;direction:ltr;baseline-shift:baseline;text-anchor:start;display:inline;overflow:visible;visibility:visible;fill:#002d9a;fill-opacity:1;stroke:none;stroke-width:3.0428;marker:none;enable-background:accumulate" d="m 421.43142,174.03146 4.53588,-1.76785 c -6.25384,21.62661 -31.35958,41.50803 -31.35958,41.50803 0,0 20.33305,-21.62345 26.8237,-39.74018 z" id="use1057"/>
  <path style="color:#000000;display:inline;overflow:visible;visibility:visible;fill:#ffffff;stroke:none;stroke-width:0.760702;marker:none;enable-background:accumulate" d="m 150.79796,291.79629 c 76.78299,-37.84911 85.67074,-13.18766 85.67074,-13.18766 0,0 16.91357,20.02775 -54.25622,67.59921 -71.16978,47.57147 -113.531901,29.2733 -113.531901,29.2733 0,0 5.33439,-45.83575 82.117381,-83.68485 z" id="path1100"/>
  <path style="color:#000000;font-style:normal;font-variant:normal;font-weight:normal;font-stretch:normal;font-size:medium;line-height:normal;font-family:Sans;-inkscape-font-specification:Sans;text-indent:0;text-align:start;text-decoration:none;text-decoration-line:none;letter-spacing:normal;word-spacing:normal;text-transform:none;writing-mode:lr-tb;direction:ltr;baseline-shift:baseline;text-anchor:start;display:inline;overflow:visible;visibility:visible;fill:#002d9a;fill-opacity:1;stroke:none;stroke-width:3.0428;marker:none;enable-background:accumulate" d="m 78.568569,367.56122 -4.53587,1.76786 c 6.25385,-21.62662 31.359581,-41.50803 31.359581,-41.50803 0,0 -20.333051,21.62344 -26.823711,39.74017 z" id="path1102"/>
  <path style="color:#000000;font-style:normal;font-variant:normal;font-weight:normal;font-stretch:normal;font-size:medium;line-height:normal;font-family:Sans;-inkscape-font-specification:Sans;text-indent:0;text-align:start;text-decoration:none;text-decoration-line:none;letter-spacing:normal;word-spacing:normal;text-transform:none;writing-mode:lr-tb;direction:ltr;baseline-shift:baseline;text-anchor:start;display:inline;overflow:visible;visibility:visible;fill:#002d9a;fill-opacity:1;stroke:none;stroke-width:3.0428;marker:none;enable-background:accumulate" d="m 80.483439,370.87787 -3.79894,3.04425 c 21.85612,5.39732 51.626801,-6.40418 51.626801,-6.40418 0,0 -28.892981,6.79722 -47.827861,3.35993 z" id="use1104"/>
  <path style="color:#000000;display:inline;overflow:visible;visibility:visible;fill:#ffffff;stroke:none;stroke-width:0.760702;marker:none;enable-background:accumulate" d="m 349.20203,291.79628 c -76.78299,-37.84911 -85.67074,-13.18765 -85.67074,-13.18765 0,0 -16.91357,20.02775 54.25621,67.59921 71.16978,47.57147 113.53192,29.2733 113.53192,29.2733 0,0 -5.33439,-45.83576 -82.11739,-83.68486 z" id="path1039"/>
  <path style="color:#000000;font-style:normal;font-variant:normal;font-weight:normal;font-stretch:normal;font-size:medium;line-height:normal;font-family:Sans;-inkscape-font-specification:Sans;text-indent:0;text-align:start;text-decoration:none;text-decoration-line:none;letter-spacing:normal;word-spacing:normal;text-transform:none;writing-mode:lr-tb;direction:ltr;baseline-shift:baseline;text-anchor:start;display:inline;overflow:visible;visibility:visible;fill:#002d9a;fill-opacity:1;stroke:none;stroke-width:3.0428;marker:none;enable-background:accumulate" d="m 421.43142,367.56122 4.53587,1.76785 c -6.25384,-21.62662 -31.35958,-41.50802 -31.35958,-41.50802 0,0 20.33306,21.62343 26.82371,39.74017 z" id="path1041"/>
  <path style="color:#000000;font-style:normal;font-variant:normal;font-weight:normal;font-stretch:normal;font-size:medium;line-height:normal;font-family:Sans;-inkscape-font-specification:Sans;text-indent:0;text-align:start;text-decoration:none;text-decoration-line:none;letter-spacing:normal;word-spacing:normal;text-transform:none;writing-mode:lr-tb;direction:ltr;baseline-shift:baseline;text-anchor:start;display:inline;overflow:visible;visibility:visible;fill:#002d9a;fill-opacity:1;stroke:none;stroke-width:3.0428;marker:none;enable-background:accumulate" d="m 419.51655,370.87786 3.79895,3.04425 c -21.85612,5.39732 -51.6268,-6.40417 -51.6268,-6.40417 0,0 28.89298,6.79722 47.82785,3.35992 z" id="use1043"/>
  <path style="color:#000000;display:inline;overflow:visible;visibility:visible;fill:#ffffff;stroke:none;stroke-width:0.760702;marker:none;enable-background:accumulate" d="m 182.21249,195.38482 c 71.16979,47.57147 54.25622,67.59921 54.25622,67.59921 0,0 -8.88775,24.66146 -85.67074,-13.18765 -76.782991,-37.84911 -82.117381,-83.68487 -82.117381,-83.68487 0,0 42.362121,-18.29816 113.531901,29.27331 z" id="path1090"/>
  <path style="color:#000000;font-style:normal;font-variant:normal;font-weight:normal;font-stretch:normal;font-size:medium;line-height:normal;font-family:Sans;-inkscape-font-specification:Sans;text-indent:0;text-align:start;text-decoration:none;text-decoration-line:none;letter-spacing:normal;word-spacing:normal;text-transform:none;writing-mode:lr-tb;direction:ltr;baseline-shift:baseline;text-anchor:start;display:inline;overflow:visible;visibility:visible;fill:#002d9a;fill-opacity:1;stroke:none;stroke-width:3.0428;marker:none;enable-background:accumulate" d="m 80.483439,170.7148 -3.79895,-3.04425 c 21.85613,-5.39732 51.626801,6.40418 51.626801,6.40418 0,0 -28.892971,-6.79722 -47.827851,-3.35993 z" id="path1092"/>
  <path style="color:#000000;font-style:normal;font-variant:normal;font-weight:normal;font-stretch:normal;font-size:medium;line-height:normal;font-family:Sans;-inkscape-font-specification:Sans;text-indent:0;text-align:start;text-decoration:none;text-decoration-line:none;letter-spacing:normal;word-spacing:normal;text-transform:none;writing-mode:lr-tb;direction:ltr;baseline-shift:baseline;text-anchor:start;display:inline;overflow:visible;visibility:visible;fill:#002d9a;fill-opacity:1;stroke:none;stroke-width:3.0428;marker:none;enable-background:accumulate" d="m 78.568579,174.03145 -4.53588,-1.76786 c 6.25385,21.62662 31.359581,41.50803 31.359581,41.50803 0,0 -20.333051,-21.62345 -26.823701,-39.74017 z" id="use1094"/>
  <path id="path4112" d="m 153.82627,298.09395 c 68.15183,-4.92569 84.15362,-27.56689 84.15362,-27.56689 0,0 -16.65842,-22.68864 -84.15362,-27.56689 -67.495221,-4.87826 -100.91705,27.56689 -100.91705,27.56689 0,0 32.765209,32.49262 100.91705,27.56689 z" style="color:#000000;display:inline;overflow:visible;visibility:visible;fill:#ffffff;stroke:#002d9a;stroke-width:3.8035;stroke-linecap:butt;stroke-linejoin:miter;stroke-miterlimit:4;stroke-dasharray:none;stroke-dashoffset:0;stroke-opacity:1;marker:none;enable-background:accumulate"/>
  <path id="path1076" d="m 346.17373,298.09395 c -68.15183,-4.92569 -84.15363,-27.56689 -84.15363,-27.56689 0,0 16.65841,-22.68864 84.15363,-27.56689 67.49521,-4.87826 100.91704,27.56689 100.91704,27.56689 0,0 -32.76521,32.49262 -100.91704,27.56689 z" style="color:#000000;display:inline;overflow:visible;visibility:visible;fill:#ffffff;stroke:#002d9a;stroke-width:3.8035;stroke-linecap:butt;stroke-linejoin:miter;stroke-miterlimit:4;stroke-dasharray:none;stroke-dashoffset:0;stroke-opacity:1;marker:none;enable-background:accumulate"/>
  <path id="path1031" d="m 225.78676,367.59941 c 29.81013,-61.48407 18.20317,-86.66263 18.20317,-86.66263 0,0 -27.97815,3.08229 -65.95044,59.09573 -37.9723,56.01344 -26.5849,101.18017 -26.5849,101.18017 0,0 44.52204,-12.12919 74.33217,-73.61327 z" style="color:#000000;display:inline;overflow:visible;visibility:visible;fill:#ffffff;stroke:#002d9a;stroke-width:3.8035;stroke-linecap:butt;stroke-linejoin:miter;stroke-miterlimit:4;stroke-dasharray:none;stroke-dashoffset:0;stroke-opacity:1;marker:none;enable-background:accumulate"/>
  <path id="path1138" d="m 321.96048,201.02162 c -38.3417,56.55837 -65.95045,59.09572 -65.95045,59.09572 0,0 -11.31973,-25.77093 18.20319,-86.66262 29.52291,-60.89169 74.33214,-73.61328 74.33214,-73.61328 0,0 11.75683,44.62182 -26.58488,101.18018 z" style="color:#000000;display:inline;overflow:visible;visibility:visible;fill:#ffffff;stroke:#002d9a;stroke-width:3.8035;stroke-linecap:butt;stroke-linejoin:miter;stroke-miterlimit:4;stroke-dasharray:none;stroke-dashoffset:0;stroke-opacity:1;marker:none;enable-background:accumulate"/>
  <path id="path1023" d="m 178.0395,201.02162 c 38.3417,56.55837 65.95046,59.09573 65.95046,59.09573 0,0 11.31973,-25.77093 -18.20319,-86.66262 -29.52292,-60.8917 -74.33215,-73.61328 -74.33215,-73.61328 0,0 -11.75683,44.62181 26.58488,101.18017 z" style="color:#000000;display:inline;overflow:visible;visibility:visible;fill:#ffffff;stroke:#002d9a;stroke-width:3.8035;stroke-linecap:butt;stroke-linejoin:miter;stroke-miterlimit:4;stroke-dasharray:none;stroke-dashoffset:0;stroke-opacity:1;marker:none;enable-background:accumulate"/>
  <path id="path1134" d="m 274.21324,367.59942 c -29.81014,-61.48408 -18.20318,-86.66263 -18.20318,-86.66263 0,0 27.97815,3.08228 65.95044,59.09573 37.97231,56.01343 26.5849,101.18017 26.5849,101.18017 0,0 -44.52204,-12.1292 -74.33216,-73.61327 z" style="color:#000000;display:inline;overflow:visible;visibility:visible;fill:#ffffff;stroke:#002d9a;stroke-width:3.8035;stroke-linecap:butt;stroke-linejoin:miter;stroke-miterlimit:4;stroke-dasharray:none;stroke-dashoffset:0;stroke-opacity:1;marker:none;enable-background:accumulate"/>
  <path id="path898" d="m 258.25233,303.18658 7.46435,-2.86529 c 0,0 4.38451,1.84024 8.34281,12.15198 3.95831,10.31175 1.93134,14.61311 1.93134,14.61311 l -7.46434,2.8653 c 0,0 -4.38451,-1.84024 -8.34281,-12.15198 -3.95831,-10.31175 -1.93135,-14.61312 -1.93135,-14.61312 z" style="color:#000000;display:inline;overflow:visible;visibility:visible;fill:#fab700;fill-opacity:1;stroke:#804b00;stroke-width:3.8035;stroke-miterlimit:4;stroke-dasharray:none;stroke-opacity:1;marker:none;enable-background:accumulate"/>
  <path id="path902" d="m 269.40611,298.0604 5.94174,-5.34997 c 0,0 4.75277,0.14675 12.14357,8.35506 7.39079,8.20832 7.03994,12.95038 7.03994,12.95038 l -5.94174,5.34997 c 0,0 -4.75277,-0.14674 -12.14357,-8.35505 -7.39079,-8.20831 -7.03994,-12.95039 -7.03994,-12.95039 z" style="color:#000000;display:inline;overflow:visible;visibility:visible;fill:#fab700;fill-opacity:1;stroke:#804b00;stroke-width:3.8035;stroke-miterlimit:4;stroke-dasharray:none;stroke-opacity:1;marker:none;enable-background:accumulate"/>
  <path id="path906" d="m 277.98201,289.27753 3.62983,-7.12395 c 0,0 4.48968,-1.56623 14.33118,3.44826 9.8415,5.01449 11.21335,9.56734 11.21335,9.56734 l -3.62983,7.12394 c 0,0 -4.48968,1.56624 -14.33118,-3.44825 -9.8415,-5.01449 -11.21335,-9.56734 -11.21335,-9.56734 z" style="color:#000000;display:inline;overflow:visible;visibility:visible;fill:#fab700;fill-opacity:1;stroke:#804b00;stroke-width:3.8035;stroke-miterlimit:4;stroke-dasharray:none;stroke-opacity:1;marker:none;enable-background:accumulate"/>
  <path id="path910" d="m 282.84078,278.0047 0.83574,-7.9516 c 0,0 3.6302,-3.07116 14.61506,-1.91661 10.98487,1.15455 13.89719,4.91338 13.89719,4.91338 l -0.83575,7.95159 c 0,0 -3.63018,3.07117 -14.61505,1.91662 -10.98486,-1.15456 -13.89719,-4.91338 -13.89719,-4.91338 z" style="color:#000000;display:inline;overflow:visible;visibility:visible;fill:#fab700;fill-opacity:1;stroke:#804b00;stroke-width:3.8035;stroke-miterlimit:4;stroke-dasharray:none;stroke-opacity:1;marker:none;enable-background:accumulate"/>
  <path id="path914" d="m 283.33703,265.73938 -2.06935,-7.72296 c 0,0 2.28846,-4.16813 12.95747,-7.02688 10.66901,-2.85876 14.73494,-0.39328 14.73494,-0.39328 l 2.06936,7.72296 c 0,0 -2.28846,4.16813 -12.95747,7.02688 -10.66901,2.85876 -14.73495,0.39328 -14.73495,0.39328 z" style="color:#000000;display:inline;overflow:visible;visibility:visible;fill:#fab700;fill-opacity:1;stroke:#804b00;stroke-width:3.8035;stroke-miterlimit:4;stroke-dasharray:none;stroke-opacity:1;marker:none;enable-background:accumulate"/>
  <path id="path918" d="m 279.40482,254.11087 -4.69957,-6.46841 c 0,0 0.64274,-4.7114 9.57863,-11.20371 8.9359,-6.49231 13.61532,-5.64768 13.61532,-5.64768 l 4.69957,6.46841 c 0,0 -0.64274,4.7114 -9.57863,11.2037 -8.9359,6.49231 -13.61532,5.64769 -13.61532,5.64769 z" style="color:#000000;display:inline;overflow:visible;visibility:visible;fill:#fab700;fill-opacity:1;stroke:#804b00;stroke-width:3.8035;stroke-miterlimit:4;stroke-dasharray:none;stroke-opacity:1;marker:none;enable-background:accumulate"/>
  <path id="path922" d="m 271.56649,244.6639 -6.70549,-4.35461 c 0,0 -1.08836,-4.6288 4.92737,-13.89222 6.01574,-9.26344 10.68705,-10.15187 10.68705,-10.15187 l 6.7055,4.35461 c 0,0 1.08836,4.62879 -4.92738,13.89223 -6.01574,9.26343 -10.68705,10.15186 -10.68705,10.15186 z" style="color:#000000;display:inline;overflow:visible;visibility:visible;fill:#fab700;fill-opacity:1;stroke:#804b00;stroke-width:3.8035;stroke-miterlimit:4;stroke-dasharray:none;stroke-opacity:1;marker:none;enable-background:accumulate"/>
  <path id="path926" d="m 260.24342,238.45127 -7.85044,-1.51554 c 0,0 -2.74807,-3.88052 -0.65442,-14.72565 2.09365,-10.84513 6.08869,-13.4239 6.08869,-13.4239 l 7.85044,1.51553 c 0,0 2.74808,3.88052 0.65443,14.72565 -2.09365,10.84513 -6.0887,13.42391 -6.0887,13.42391 z" style="color:#000000;display:inline;overflow:visible;visibility:visible;fill:#fab700;fill-opacity:1;stroke:#804b00;stroke-width:3.8035;stroke-miterlimit:4;stroke-dasharray:none;stroke-opacity:1;marker:none;enable-background:accumulate"/>
  <path id="path930" d="m 241.7477,303.18658 -7.46434,-2.86529 c 0,0 -4.38452,1.84024 -8.34281,12.15198 -3.95831,10.31175 -1.93135,14.61311 -1.93135,14.61311 l 7.46434,2.8653 c 0,0 4.38451,-1.84024 8.34282,-12.15198 3.9583,-10.31175 1.93134,-14.61312 1.93134,-14.61312 z" style="color:#000000;display:inline;overflow:visible;visibility:visible;fill:#fab700;fill-opacity:1;stroke:#804b00;stroke-width:3.8035;stroke-miterlimit:4;stroke-dasharray:none;stroke-opacity:1;marker:none;enable-background:accumulate"/>
  <path id="path934" d="m 230.59392,298.0604 -5.94174,-5.34997 c 0,0 -4.75277,0.14675 -12.14357,8.35506 -7.39079,8.20832 -7.03993,12.95038 -7.03993,12.95038 l 5.94173,5.34997 c 0,0 4.75278,-0.14674 12.14357,-8.35505 7.3908,-8.20831 7.03994,-12.95039 7.03994,-12.95039 z" style="color:#000000;display:inline;overflow:visible;visibility:visible;fill:#fab700;fill-opacity:1;stroke:#804b00;stroke-width:3.8035;stroke-miterlimit:4;stroke-dasharray:none;stroke-opacity:1;marker:none;enable-background:accumulate"/>
  <path id="path938" d="m 222.01803,289.27753 -3.62983,-7.12395 c 0,0 -4.48969,-1.56623 -14.33119,3.44826 -9.84149,5.01449 -11.21335,9.56734 -11.21335,9.56734 l 3.62984,7.12394 c 0,0 4.48968,1.56624 14.33118,-3.44825 9.8415,-5.01449 11.21335,-9.56734 11.21335,-9.56734 z" style="color:#000000;display:inline;overflow:visible;visibility:visible;fill:#fab700;fill-opacity:1;stroke:#804b00;stroke-width:3.8035;stroke-miterlimit:4;stroke-dasharray:none;stroke-opacity:1;marker:none;enable-background:accumulate"/>
  <path id="path942" d="m 217.15925,278.0047 -0.83575,-7.9516 c 0,0 -3.63019,-3.07116 -14.61505,-1.91661 -10.98487,1.15455 -13.89719,4.91338 -13.89719,4.91338 l 0.83575,7.95159 c 0,0 3.63018,3.07117 14.61505,1.91662 10.98486,-1.15456 13.89719,-4.91338 13.89719,-4.91338 z" style="color:#000000;display:inline;overflow:visible;visibility:visible;fill:#fab700;fill-opacity:1;stroke:#804b00;stroke-width:3.8035;stroke-miterlimit:4;stroke-dasharray:none;stroke-opacity:1;marker:none;enable-background:accumulate"/>
  <path id="path946" d="m 216.66301,265.73937 2.06935,-7.72295 c 0,0 -2.28846,-4.16814 -12.95747,-7.02689 -10.66901,-2.85875 -14.73494,-0.39327 -14.73494,-0.39327 l -2.06936,7.72296 c 0,0 2.28846,4.16812 12.95747,7.02688 10.66901,2.85875 14.73495,0.39327 14.73495,0.39327 z" style="color:#000000;display:inline;overflow:visible;visibility:visible;fill:#fab700;fill-opacity:1;stroke:#804b00;stroke-width:3.8035;stroke-miterlimit:4;stroke-dasharray:none;stroke-opacity:1;marker:none;enable-background:accumulate"/>
  <path id="path950" d="m 220.59522,254.11087 4.69957,-6.46841 c 0,0 -0.64275,-4.7114 -9.57864,-11.20371 -8.93589,-6.49231 -13.61531,-5.64768 -13.61531,-5.64768 l -4.69957,6.46841 c 0,0 0.64273,4.7114 9.57862,11.2037 8.9359,6.49231 13.61533,5.64769 13.61533,5.64769 z" style="color:#000000;display:inline;overflow:visible;visibility:visible;fill:#fab700;fill-opacity:1;stroke:#804b00;stroke-width:3.8035;stroke-miterlimit:4;stroke-dasharray:none;stroke-opacity:1;marker:none;enable-background:accumulate"/>
  <path id="path954" d="m 228.43354,244.6639 6.7055,-4.35461 c 0,0 1.08836,-4.6288 -4.92738,-13.89223 -6.01574,-9.26343 -10.68704,-10.15186 -10.68704,-10.15186 l -6.7055,4.3546 c 0,0 -1.08837,4.6288 4.92737,13.89223 6.01574,9.26343 10.68705,10.15187 10.68705,10.15187 z" style="color:#000000;display:inline;overflow:visible;visibility:visible;fill:#fab700;fill-opacity:1;stroke:#804b00;stroke-width:3.8035;stroke-miterlimit:4;stroke-dasharray:none;stroke-opacity:1;marker:none;enable-background:accumulate"/>
  <path id="path970" d="m 239.2875,238.45127 7.85045,-1.51553 c 0,0 2.74807,-3.88053 0.65442,-14.72566 -2.09365,-10.84513 -6.08868,-13.4239 -6.08868,-13.4239 l -7.85046,1.51553 c 0,0 -2.74807,3.88052 -0.65442,14.72565 2.09365,10.84514 6.08869,13.42391 6.08869,13.42391 z" style="color:#000000;display:inline;overflow:visible;visibility:visible;fill:#fab700;fill-opacity:1;stroke:#804b00;stroke-width:3.8035;stroke-miterlimit:4;stroke-dasharray:none;stroke-opacity:1;marker:none;enable-background:accumulate"/>
  <path id="rect3767" d="m 246.00232,303.97513 h 7.99539 c 0,0 3.43382,3.28928 3.43382,14.33465 0,11.04537 -3.43382,14.33464 -3.43382,14.33464 h -7.99539 c 0,0 -3.43381,-3.28927 -3.43381,-14.33464 0,-11.04537 3.43381,-14.33465 3.43381,-14.33465 z" style="color:#000000;display:inline;overflow:visible;visibility:visible;fill:#fab700;fill-opacity:1;stroke:#804b00;stroke-width:3.8035;stroke-miterlimit:4;stroke-dasharray:none;stroke-opacity:1;marker:none;enable-background:accumulate"/>
  <circle id="path3765" style="color:#000000;display:inline;overflow:visible;visibility:visible;fill:#fab700;fill-opacity:1;stroke:#804b00;stroke-width:2.2821;stroke-linecap:square;stroke-linejoin:miter;stroke-miterlimit:4;stroke-dasharray:none;stroke-dashoffset:0;stroke-opacity:1;marker:none;enable-background:accumulate" cx="250.00003" cy="270.52707" r="34.975666"/>
  <path d="m 225.04224,256.11771 22.60133,13.04888 m 4.71287,2.72099 22.60133,13.04888 m -49.91553,0 22.60133,-13.04888 m 4.71287,-2.72098 22.60133,-13.04889 m -24.95776,43.22812 v -26.09776 m 0,-5.44196 v -26.09777" style="color:#000000;display:inline;overflow:visible;visibility:visible;fill:none;stroke:#ffffff;stroke-width:3.0428;stroke-linecap:butt;stroke-linejoin:miter;stroke-miterlimit:4;stroke-dasharray:none;stroke-dashoffset:0;stroke-opacity:1;marker:none;enable-background:accumulate" id="path4088"/>
  <path id="path4104" style="color:#000000;display:inline;overflow:visible;visibility:visible;fill:none;stroke:#804b00;stroke-width:2.2821;stroke-linecap:butt;stroke-linejoin:miter;stroke-miterlimit:4;stroke-dasharray:none;stroke-dashoffset:0;stroke-opacity:1;marker:none;enable-background:accumulate" d="m 235.59063,245.56932 13.04888,22.60132 m 2.72098,4.71288 13.04889,22.60132 m -43.22812,-24.95776 h 26.09776 m 5.44197,10e-6 h 26.09776 m -43.22812,24.95776 13.04889,-22.60133 m 2.72097,-4.71287 13.04889,-22.60134"/>
</svg>