<?xml version="1.0" encoding="UTF-8" standalone="no"?>
<svg
   xmlns:dc="http://purl.org/dc/elements/1.1/"
   xmlns:cc="http://creativecommons.org/ns#"
   xmlns:rdf="http://www.w3.org/1999/02/22-rdf-syntax-ns#"
   xmlns:svg="http://www.w3.org/2000/svg"
   xmlns="http://www.w3.org/2000/svg"
   xmlns:xlink="http://www.w3.org/1999/xlink"
   xmlns:sodipodi="http://sodipodi.sourceforge.net/DTD/sodipodi-0.dtd"
   xmlns:inkscape="http://www.inkscape.org/namespaces/inkscape"
   sodipodi:docname="svg.svg"
   inkscape:version="1.0 (4035a4fb49, 2020-05-01)"
   version="1.1"
   id="svg2816"
   height="563"
   width="500">
  <metadata
     id="metadata3352">
    <rdf:RDF>
      <cc:Work
         rdf:about="">
        <dc:format>image/svg+xml</dc:format>
        <dc:type
           rdf:resource="http://purl.org/dc/dcmitype/StillImage" />
        <dc:title />
      </cc:Work>
    </rdf:RDF>
  </metadata>
  <sodipodi:namedview
     inkscape:document-rotation="0"
     inkscape:current-layer="g2826"
     inkscape:window-maximized="1"
     inkscape:window-y="-8"
     inkscape:window-x="-8"
     inkscape:cy="212.26473"
     inkscape:cx="227.90204"
     inkscape:zoom="0.82803968"
     showgrid="false"
     id="namedview3350"
     inkscape:window-height="1017"
     inkscape:window-width="1920"
     inkscape:pageshadow="2"
     inkscape:pageopacity="0"
     guidetolerance="10"
     gridtolerance="10"
     objecttolerance="10"
     borderopacity="1"
     bordercolor="#666666"
     pagecolor="#ffffff" />
  <defs
     id="defs2818" />
  <g
     transform="translate(-3.71445,-3.71445)"
     id="g2826">
    <path
       style="fill:#bf9f4f;fill-opacity:1;stroke:none;stroke-width:0.709;stroke-miterlimit:4;stroke-dasharray:none"
       d="M 3.71445,3.8353576 503.71446,3.71445 489.24707,347.89335 C 461.50699,638.71605 51.251576,640.7025 18.17197,347.56311 Z"
       id="path2830" />
    <g
       transform="matrix(1.00141,0,0,1.0007241,0.4626936,-0.00268962)"
       style="stroke:none;stroke-width:0.998934"
       id="g1193">
      <path
         id="path3004"
         d="m 16.7259,55.0557 11.143,2.4291 1.8629,8.9977 C 53.4631,73.31 82.2916,78.9579 106.023,82.5464 l 5.322,15.9098 24.247,4.2298 4.996,-14.5722 5.52,0.6835 1.856,-16.2989 3.095,0.1822 c 1.543,-1.9334 3.085,-1.843 4.627,0.2725 l 2.794,0.1647 c 1.25,-2.7361 4.152,-2.6382 4.99,0.294 l 8.926,0.5259 c 2.58,-3.4879 5.263,-5.7565 8.672,0.5109 l 8.981,0.529 c 1.798,-3.1123 3.853,-4.2001 6.477,-0.833 2.068,-2.7119 4.137,-2.1852 6.205,1.5803 2.681,-0.1236 4.125,0.1579 4.331,0.8445 l 1.201,15.5251 9.73,0.3569 0.191,-15.3966 c 0.935,-1.0649 2.282,-1.3197 4.042,-0.7643 1.35,-4.5437 3.216,-4.7351 6.218,-1.1811 2.884,-2.8191 5.357,-2.3995 7.417,1.2587 l 9.617,-0.3736 c 0.619,-5.056 6.19,-5.4557 7.429,-0.2886 l 7.12,-0.2764 c 1.235,-4.5375 3.088,-5.0265 6.8,-1.4666 2.575,-3.3269 4.738,-3.0102 6.489,0.9506 l 4.035,-0.1565 0.964,16.7974 13.529,-0.1075 -0.387,-14.5123 5.086,-1.0362 c 1.546,-4.4578 3.505,-4.8671 5.876,-1.2281 2.167,-2.8393 4.333,-2.4393 6.5,1.1997 l 9.287,-0.0884 c 0.616,-4.7923 5.463,-7.0493 6.499,-0.6662 l 8.351,0.1133 c 1.132,-3.6245 2.575,-6.3356 6.194,-2.6442 3.507,-2.7034 5.776,-2.0667 6.808,2.5175 1.5,-0.0796 4.032,-0.0578 4.81,0.3691 l 1.272,15.2325 3.2,-0.5381 3.794,15.3295 27.64,-3.156 7.267,-15.2982 c 27.236,-2.8892 60.354,-7.3977 82.02,-13.828 l 1.826,-9.7286 11.177,-0.5341 C 475.651,115.377 444.286,157.885 359.682,161.326 H 148.229 C 60.4753,156.338 28.5885,106.052 16.7259,55.0557 Z"
         style="fill:#000000;stroke:none;stroke-width:0.991193" />
      <path
         id="path3006"
         d="m 31.5832,81.7751 -6.9645,-3.1883 0.4645,-3.188 c 15.2569,7.2367 34.3696,13.309 60.3577,17.3069 v 1.5181 C 68.7519,92.3261 51.573,88.0242 34.0594,82.0787 c 2.0624,4.4529 4.2276,8.9061 7.1192,13.3596 51.6967,23.1707 90.1684,28.9517 145.7874,32.4887 -45.162,-0.14 -91.9506,-5.6 -144.5493,-30.0596 3.4045,6.0726 7.6347,12.1446 12.6906,18.2176 35.3244,12.891 69.2947,20.912 102.1437,24.898 -27.365,-1.845 -58.9874,-7.461 -101.2152,-23.076 16.1856,17.231 40.9732,29.325 76.1432,35.221 C 77.5472,147.106 49.793,123.625 31.5832,81.7751 Z"
         style="fill:#b2b2b2;stroke:none;stroke-width:0.991193" />
      <path
         id="path3008"
         d="m 100.298,145.841 c -7.5313,-2.176 -11.3494,-4.909 -18.881,-7.895 5.9842,3.441 5.4683,4.454 18.881,7.895 z"
         style="fill:#ffffff;stroke:none;stroke-width:0.991193" />
      <path
         id="path3010"
         d="m 88.8457,113.96 c -8.4639,-1.262 -17.2376,-3.993 -23.2145,-8.502 5.9842,3.441 9.8017,4.453 23.2145,8.502 z"
         style="fill:#ffffff;stroke:none;stroke-width:0.991193" />
      <path
         id="path3012"
         d="m 98.441,130.963 c -7.5315,-2.176 -15.0639,-3.998 -22.5954,-6.984 5.9841,3.442 9.1826,3.543 22.5954,6.984 z"
         style="fill:#ffffff;stroke:none;stroke-width:0.991193" />
      <path
         id="path3014"
         d="m 254.133,154.342 -35.286,-0.303 c 11.762,1.998 23.524,2.352 35.286,0.303 z"
         style="fill:#b2b2b2;stroke:none;stroke-width:0.215797" />
      <path
         id="path3016"
         d="m 260.633,144.019 c -14.806,-1.164 -28.632,-1.367 -41.786,-0.911 12.161,1.214 30.449,2.124 41.786,0.911 z"
         style="fill:#b2b2b2;stroke:none;stroke-width:0.215797" />
      <path
         id="path3018"
         d="m 262.49,130.659 c -17.901,-0.557 -38.536,-3.795 -46.429,-1.518 12.161,1.214 35.092,2.731 46.429,1.518 z"
         style="fill:#b2b2b2;stroke:none;stroke-width:0.215797" />
      <path
         id="path3020"
         d="m 409.206,98.7782 c 27.548,-3.466 52.723,-8.6782 73.667,-17.0031 l -1.238,-0.9109 c -17.794,6.3007 -42.867,11.412 -70.572,16.0923 z"
         style="fill:#b2b2b2;stroke:none;stroke-width:0.215797" />
      <path
         id="path3022"
         d="m 456.873,101.207 c -14.341,6.224 -32.397,11.285 -48.596,16.093 h 3.715 c 17.979,-3.555 35.27,-10.911 44.881,-16.093 z"
         style="fill:#b2b2b2;stroke:none;stroke-width:0.215797" />
      <path
         id="path3024"
         d="m 432.73,124.283 -40.548,11.538 c 13.516,-2.935 21.151,-1.316 40.548,-11.538 z"
         style="fill:#b2b2b2;stroke:none;stroke-width:0.215797" />
      <path
         id="path3026"
         d="m 135.894,101.207 c 11.968,2.075 23.936,3.492 35.905,3.947 l -0.31,1.822 c -11.865,-0.405 -23.73,-1.923 -35.595,-3.947 z"
         style="fill:#b2b2b2;stroke:none;stroke-width:0.215797" />
      <path
         id="path3028"
         d="m 252.152,107.801 c 29.925,1.67 63.512,-1.265 65.62,-1.215 l -0.31,1.822 c -5.956,0.178 -48.621,3.163 -65.31,0.911 z"
         style="fill:#b2b2b2;stroke:none;stroke-width:0.215797" />
      <path
         id="path3030"
         d="m 180.867,106.283 c 23.348,3.391 57.09,2.986 65.001,1.518 l -0.31,1.822 c -8.148,1.038 -49.936,1.189 -64.691,-1.822 z"
         style="fill:#b2b2b2;stroke:none;stroke-width:0.215797" />
      <path
         id="path3032"
         d="m 324.891,106.586 c 14.326,-0.095 23.328,-0.675 34.667,-2.732 l -0.31,1.822 c -8.061,1.696 -22.868,2.965 -34.357,2.429 z"
         style="fill:#b2b2b2;stroke:none;stroke-width:0.215797" />
      <path
         id="path3034"
         d="m 146.108,87.544 c 12.5,1.7962 17.72,2.1804 26.929,1.8218 l -0.31,1.8217 c -8.236,0.1415 -13.137,-0.3447 -26.619,-1.8217 z"
         style="fill:#b2b2b2;stroke:none;stroke-width:0.215797" />
      <path
         id="path3036"
         d="m 180.156,89.6694 c 13.753,1.614 20.366,1.6287 26.929,1.2145 l 2.198,1.8218 c -9.908,0.2781 -14.948,0.3991 -29.127,-1.2145 z"
         style="fill:#b2b2b2;stroke:none;stroke-width:0.215797" />
      <path
         id="path3038"
         d="m 224.109,91.1875 c 7.222,0.9506 13.618,0.552 21.667,0.6073 l -0.31,1.8218 C 235.28,93.2114 233.165,94.4257 218.847,92.402 Z"
         style="fill:#b2b2b2;stroke:none;stroke-width:0.215797" />
      <path
         id="path3040"
         d="m 255.371,91.1875 c 7.222,0.9506 15.475,0.552 23.524,0.6073 l -0.309,1.2145 c -10.187,-0.4051 -12.302,1.4164 -26.62,-0.6073 z"
         style="fill:#b2b2b2;stroke:none;stroke-width:0.215797" />
      <path
         id="path3042"
         d="m 296.848,89.973 c 7.532,0.3433 13.618,-0.0553 21.667,0 l -0.31,1.5182 c -10.187,0.8025 -16.016,1.5853 -26.619,0.3036 z"
         style="fill:#b2b2b2;stroke:none;stroke-width:0.215797" />
      <path
         id="path3044"
         d="m 329.967,88.5459 c 7.95,1.8768 13.618,0.461 21.667,0.5162 l -0.31,1.8218 c -8.724,0.8403 -17.107,0.8032 -27.547,0 z"
         style="fill:#b2b2b2;stroke:none;stroke-width:0.215797" />
      <path
         id="path3046"
         d="m 191.5,90.7473 c -0.103,-8.9065 -0.511,-14.0327 1.037,-15.6521 l 0.496,-2.7326 c -3.7,1.4518 -2.874,8.304 -2.972,18.324 z"
         style="fill:#b2b2b2;stroke:none;stroke-width:0.215797" />
      <path
         id="path3048"
         d="m 197.072,91.4912 c -0.103,-8.9065 -1.208,-15.9458 2.151,-17.0185 l -0.34,-2.3228 c -4.401,0.8582 -3.573,8.4398 -3.251,18.734 z"
         style="fill:#b2b2b2;stroke:none;stroke-width:0.215797" />
      <path
         id="path3050"
         d="m 191.387,80.6864 c 0.057,-2.8809 0.328,-4.731 1.15,-5.5912 l 0.496,-2.7326 c -1.85,0.7257 -2.568,2.8021 -2.836,5.9489 z"
         style="fill:#ffffff;stroke:none;stroke-width:0.215797" />
      <path
         id="path3052"
         d="m 196.849,80.0443 c 0.131,-3.0074 0.695,-5.0353 2.374,-5.5716 l -0.34,-2.3228 c -2.338,0.4559 -3.201,2.8095 -3.447,6.459 z"
         style="fill:#ffffff;stroke:none;stroke-width:0.215797" />
      <path
         id="path3054"
         d="m 224.933,91.4305 c -0.372,-7.7427 -1.267,-14.6462 1.037,-17.1552 l -0.202,-1.6394 c -4.535,0.3586 -3.152,14.4531 -2.275,18.7339 z"
         style="fill:#b2b2b2;stroke:none;stroke-width:0.215797" />
      <path
         id="path3056"
         d="m 224.472,79.7942 c 0.095,-2.4823 0.49,-4.4214 1.498,-5.5189 l -0.202,-1.6394 c -1.771,0.14 -2.64,2.376 -2.988,5.3045 z"
         style="fill:#ffffff;stroke:none;stroke-width:0.215797" />
      <path
         id="path3058"
         d="m 230.226,92.2504 c 0.134,-8.9067 0.01,-14.0321 1.037,-15.6521 l -0.34,-1.5028 c -2.307,1.1785 -2.038,7.0742 -2.136,17.0942 z"
         style="fill:#b2b2b2;stroke:none;stroke-width:0.215797" />
      <path
         id="path3060"
         d="m 230.595,79.1527 c 0.139,-1.1995 0.347,-2.0483 0.668,-2.5544 l -0.34,-1.5028 c -0.937,0.4786 -1.449,1.7362 -1.733,3.7323 z"
         style="fill:#ffffff;stroke:none;stroke-width:0.215797" />
      <path
         id="path3062"
         d="m 262.126,92.2504 c -0.371,-7.7427 -0.848,-16.6959 1.455,-19.2049 L 263.38,71.406 c -4.535,0.3587 -3.57,16.5029 -2.693,20.7837 z"
         style="fill:#b2b2b2;stroke:none;stroke-width:0.215797" />
      <path
         id="path3064"
         d="m 262.233,76.5215 c 0.272,-1.555 0.7,-2.7704 1.348,-3.476 L 263.38,71.406 c -1.346,0.1063 -2.208,1.6044 -2.731,3.77 z"
         style="fill:#ffffff;stroke:none;stroke-width:0.215797" />
      <path
         id="path3066"
         d="m 268.673,92.1137 c -0.149,-7.124 -1.764,-14.9898 -0.634,-17.4284 l -0.341,-1.5029 c -2.703,1.2758 -1.554,9.1426 -0.464,18.8707 z"
         style="fill:#b2b2b2;stroke:none;stroke-width:0.215797" />
      <path
         id="path3068"
         d="m 267.665,76.589 c 0.046,-0.7986 0.162,-1.4467 0.374,-1.9037 l -0.341,-1.5029 c -0.844,0.3986 -1.313,1.4408 -1.525,2.9827 z"
         style="fill:#ffffff;stroke:none;stroke-width:0.215797" />
      <path
         id="path3070"
         d="m 298.484,90.7473 c -0.15,-7.1241 -1.346,-14.8532 0.201,-16.3353 l -0.341,-1.5029 c -2.702,1.2758 -2.111,7.9128 -1.021,17.6408 z"
         style="fill:#b2b2b2;stroke:none;stroke-width:0.215797" />
      <path
         id="path3072"
         d="m 297.912,79.3707 c -0.055,-2.4662 0.096,-4.3104 0.773,-4.9587 l -0.341,-1.5029 c -1.139,0.4494 -1.693,1.9009 -1.871,4.1706 z"
         style="fill:#ffffff;stroke:none;stroke-width:0.215797" />
      <path
         id="path3074"
         d="m 303.917,90.8839 c -0.372,-7.7427 -0.709,-14.2362 1.594,-16.7452 l -0.201,-1.6395 c -4.14,-0.6092 -3.361,13.1893 -2.833,18.324 z"
         style="fill:#b2b2b2;stroke:none;stroke-width:0.215797" />
      <path
         id="path3076"
         d="m 303.966,78.0277 c 0.273,-1.6933 0.753,-3.0266 1.545,-3.889 l -0.201,-1.6395 c -1.424,-0.2092 -2.265,1.2837 -2.736,3.5421 z"
         style="fill:#ffffff;stroke:none;stroke-width:0.215797" />
      <path
         id="path3078"
         d="m 336.374,90.2007 c -0.15,-7.1241 -1.346,-15.1265 0.201,-16.6086 l -0.898,-2.0494 c -2.703,1.2757 -1.833,8.7326 -0.464,18.4607 z"
         style="fill:#b2b2b2;stroke:none;stroke-width:0.215797" />
      <path
         id="path3080"
         d="m 335.794,78.1309 c -0.023,-2.2586 0.152,-3.9369 0.781,-4.5388 0.443,-0.8652 0.144,-1.5482 -0.898,-2.0494 -1.351,0.6379 -1.809,2.8211 -1.759,6.0609 z"
         style="fill:#ffffff;stroke:none;stroke-width:0.215797" />
      <path
         id="path3082"
         d="m 341.528,90.2007 c -0.15,-7.1241 -1.346,-15.1265 0.201,-16.6086 0.629,-1.2295 0.33,-1.9125 -0.898,-2.0494 -2.702,1.2757 -1.833,8.7326 -0.464,18.4607 z"
         style="fill:#b2b2b2;stroke:none;stroke-width:0.215797" />
      <path
         id="path3084"
         d="m 340.967,76.6661 c 0.063,-1.5108 0.279,-2.611 0.762,-3.074 0.629,-1.2295 0.33,-1.9125 -0.898,-2.0494 -1.013,0.4783 -1.524,1.8263 -1.695,3.8369 z"
         style="fill:#ffffff;stroke:none;stroke-width:0.215797" />
      <path
         id="path3086"
         d="m 151.381,88.5609 c -0.103,-8.9064 0.325,-13.3494 1.873,-14.9688 l 0.495,-2.7326 c -3.699,1.4517 -3.709,7.6207 -3.807,17.6407 z"
         style="fill:#b2b2b2;stroke:none;stroke-width:0.215797" />
      <path
         id="path3088"
         d="m 152.498,74.8117 c 0.215,-0.5131 0.466,-0.916 0.756,-1.2196 l 0.495,-2.7326 c -0.924,0.3628 -1.619,1.0208 -2.141,1.9598 z"
         style="fill:#ffffff;stroke:none;stroke-width:0.215797" />
      <path
         id="path3090"
         d="m 157.65,89.7907 c 0.106,-7.7673 0.256,-10.3429 1.176,-12.3725 l 0.356,-4.5091 c -2.51,0.5775 -2.477,6.5095 -2.971,16.821 z"
         style="fill:#b2b2b2;stroke:none;stroke-width:0.215797" />
      <path
         id="path3092"
         d="m 158.385,78.6483 c 0.123,-0.4499 0.269,-0.8496 0.441,-1.2301 l 0.356,-4.5091 c -0.705,0.1622 -1.21,0.7485 -1.582,1.7365 z"
         style="fill:#ffffff;stroke:none;stroke-width:0.215797" />
      <path
         id="path3094"
         d="m 91.2742,94.3403 c 4.875,1.0473 15.5908,2.7775 19.7238,3.0973 V 99.214 C 106.029,98.4397 95.5457,96.5721 91.6921,95.4335 Z"
         style="fill:#b2b2b2;stroke:none;stroke-width:0.215797" />
      <path
         id="path3096"
         d="m 89.324,88.1912 c 0.9286,-1.0022 0.9286,-1.8218 0,-2.4596 -4.3412,0.5015 -5.1764,5.8299 -3.2039,16.5344 1.3002,2.596 2.8788,2.733 5.1541,2.869 l 0.4179,-1.913 c -2.0436,0.137 -3.3429,-0.638 -3.9004,-2.323 -1.4043,-6.1147 -1.1485,-10.6014 1.5323,-12.7078 z"
         style="fill:#b2b2b2;stroke:none;stroke-width:0.215797" />
      <path
         id="path3098"
         d="m 87.7917,88.3279 3.6218,4.9193 c -1.6248,0.4555 -4.0857,-2.0041 -3.6218,-4.9193 z"
         style="fill:#b2b2b2;stroke:none;stroke-width:0.215797" />
      <path
         id="path3100"
         d="m 89.324,88.1912 v -2.4596 c -3.1201,0.3603 -4.429,3.2146 -4.1863,8.7658 l 2.1531,-2.9722 c 0.3633,-1.4195 1.028,-2.5442 2.0332,-3.334 z"
         style="fill:#ffffff;stroke:none;stroke-width:0.215797" />
      <path
         id="path3102"
         d="m 86.538,92.4273 4.3183,5.4659 c -1.6248,0.4555 -4.7822,-2.5507 -4.3183,-5.4659 z"
         style="fill:#b2b2b2;stroke:none;stroke-width:0.215797" />
      <path
         id="path3104"
         d="m 86.8166,97.4832 4.3183,3.5528 c -1.8161,1.019 -4.962,-0.107 -4.3183,-3.5528 z"
         style="fill:#b2b2b2;stroke:none;stroke-width:0.215797" />
      <path
         id="path3106"
         d="m 176.945,73.0055 c 1.38,-0.2602 -0.106,-2.0825 -1.115,-1.7183 -2.555,-0.0742 -3.377,7.9976 -3.355,17.9385 0.026,11.3353 -2.018,22.5893 -0.307,27.5183 1.221,4.218 5.361,4.321 6.688,0.781 -2.867,1.354 -4.459,0.416 -4.777,-2.812 l 1.114,-37.3336 c -0.477,-1.6664 0.107,-3.1248 1.752,-4.3739 z"
         style="fill:#b2b2b2;stroke:none;stroke-width:0.215797" />
      <path
         id="path3108"
         d="m 251.452,75.0363 c -0.69,-6.04 -7.437,-1.129 -6.529,6.2483 0.261,2.1211 0.286,-1.6863 0.308,8.2535 0.024,11.3339 -0.108,23.2139 1.603,28.1429 1.062,5.467 4.247,5.571 5.892,2.031 -2.548,2.447 -4.459,-2.083 -4.777,-5.311 -0.16,-12.184 -1.434,-31.8667 -0.478,-36.553 0.319,-2.7599 1.221,-4.9992 3.981,-2.8117 z"
         style="fill:#b2b2b2;stroke:none;stroke-width:0.215797" />
      <path
         id="path3110"
         d="m 323.761,77.6918 c 1.38,-0.2603 -1.858,-5.6754 -2.867,-5.3111 -2.555,-0.0743 -2.58,6.5922 -2.558,16.5326 0.025,11.3347 -0.267,23.3707 1.444,28.2997 1.221,4.217 5.042,6.508 6.369,2.968 -2.866,1.353 -4.936,-2.24 -5.255,-5.468 l -0.477,-34.3657 c -0.478,-1.6664 -0.372,-7.4985 3.344,-2.6555 z"
         style="fill:#b2b2b2;stroke:none;stroke-width:0.215797" />
      <path
         id="path3112"
         d="m 176.945,73.0055 c 1.38,-0.2602 -0.106,-2.0825 -1.115,-1.7183 -4.512,-0.1542 -0.678,22.9664 -4.107,33.5568 -0.261,4.167 -0.391,7.778 0.058,10.352 2.23,-3.179 -0.767,-10.271 2.638,-11.885 l 0.774,-25.9316 c -0.477,-1.6664 0.107,-3.1248 1.752,-4.3739 z"
         style="fill:#ffffff;stroke:none;stroke-width:0.215797" />
      <path
         id="path3114"
         d="m 175.742,75.4005 4.318,5.4659 c -1.624,0.4556 -4.782,-2.5506 -4.318,-5.4659 z"
         style="fill:#b2b2b2;stroke:none;stroke-width:0.215797" />
      <path
         id="path3116"
         d="m 175.583,81.4927 4.318,5.4659 c -1.625,0.4555 -4.782,-2.5507 -4.318,-5.4659 z"
         style="fill:#b2b2b2;stroke:none;stroke-width:0.215797" />
      <path
         id="path3118"
         d="m 174.787,89.6155 c 1.758,1.8221 3.356,4.7376 5.273,5.4659 -1.624,1.7053 -5.737,-2.5507 -5.273,-5.4659 z"
         style="fill:#b2b2b2;stroke:none;stroke-width:0.215797" />
      <path
         id="path3120"
         d="m 174.946,97.7384 c 1.758,1.822 2.879,4.7376 4.796,5.4656 -1.625,1.706 -5.26,-2.55 -4.796,-5.4656 z"
         style="fill:#b2b2b2;stroke:none;stroke-width:0.215797" />
      <path
         id="path3122"
         d="m 174.15,104.299 c 1.758,1.822 3.038,4.581 4.955,5.31 -1.943,3.111 -5.419,-2.395 -4.955,-5.31 z"
         style="fill:#b2b2b2;stroke:none;stroke-width:0.215797" />
      <path
         id="path3124"
         d="m 173.353,110.079 c 1.758,1.822 2.88,4.737 4.797,5.466 -1.625,1.705 -5.26,-2.551 -4.797,-5.466 z"
         style="fill:#b2b2b2;stroke:none;stroke-width:0.215797" />
      <path
         id="path3126"
         d="m 247.615,102.584 c 0.15,4.202 0.288,8.319 0.334,11.817 l -1.667,1.159 c -0.686,-3.48 -0.918,-8.674 -1,-14.445 0.778,0.49 2.352,0.198 2.333,1.469 z m -0.235,-6.5971 c -0.278,-8.1223 -0.446,-15.5029 0.091,-18.1389 0.159,-1.3798 0.464,-2.63 1.075,-3.2614 l 0.298,-2.1727 c -2.066,0.6123 -4.488,4.2601 -3.921,8.8707 0.261,2.1209 0.286,-1.6863 0.308,8.2535 0.006,2.8333 0.003,5.7009 0.02,8.4857 l 0.805,-0.3373 z"
         style="fill:#ffffff;stroke:none;stroke-width:0.215797" />
      <path
         id="path3128"
         d="m 246.864,87.9336 c 1.622,0.8306 3.397,2.4373 4.866,2.4917 -0.694,1.525 -4.487,-0.4137 -4.866,-2.4917 z"
         style="fill:#b2b2b2;stroke:none;stroke-width:0.215797" />
      <path
         id="path3130"
         d="m 246.594,99.4567 c 1.758,1.8223 3.039,4.5813 4.956,5.3093 -1.944,3.111 -5.42,-2.394 -4.956,-5.3093 z"
         style="fill:#b2b2b2;stroke:none;stroke-width:0.215797" />
      <path
         id="path3132"
         d="m 246.762,80.9094 c 1.411,1.1436 2.805,3.0772 4.231,3.4305 -1.002,1.3499 -4.301,-1.3206 -4.231,-3.4305 z"
         style="fill:#b2b2b2;stroke:none;stroke-width:0.215797" />
      <path
         id="path3134"
         d="m 247.931,75.5872 c 1.288,1.2752 2.48,3.3349 3.864,3.8252 -1.134,1.2457 -4.147,-1.7325 -3.864,-3.8252 z"
         style="fill:#b2b2b2;stroke:none;stroke-width:0.215797" />
      <path
         id="path3136"
         d="m 247.072,95.8639 c 1.758,1.822 4.949,1.7696 4.796,4.3721 -1.943,-1.2624 -5.101,-2.7066 -4.796,-4.3721 z"
         style="fill:#b2b2b2;stroke:none;stroke-width:0.215797" />
      <path
         id="path3138"
         d="m 247.709,108.985 c 1.758,1.822 4.949,1.77 4.796,4.373 -1.943,-1.263 -5.101,-2.707 -4.796,-4.373 z"
         style="fill:#b2b2b2;stroke:none;stroke-width:0.215797" />
      <path
         id="path3140"
         d="m 247.558,114.338 c 1.411,1.144 2.805,3.077 4.231,3.43 -1.002,1.35 -4.301,-1.32 -4.231,-3.43 z"
         style="fill:#b2b2b2;stroke:none;stroke-width:0.215797" />
      <path
         id="path3142"
         d="m 320.894,114.713 -0.128,-9.214 -1.299,-6.8753 -1.13,0.8826 c 0.037,7.5697 0.266,14.3177 1.443,17.7067 l 1.114,-2.5 m -0.477,-34.3657 c -0.112,-0.3903 -0.192,-1.0101 -0.201,-1.6672 -0.014,-1.0952 0.168,-2.2955 0.728,-2.716 l 1.018,-2.9441 c -0.424,-0.4604 -0.816,-0.7303 -1.068,-0.6393 -1.836,-0.0533 -2.366,3.3756 -2.51,8.9994 z m -1.587,2.3432 -0.488,1.3032 c -0.012,1.5261 -0.01,3.1727 -0.006,4.9196 0.004,1.9919 -0.001,4.0061 -0.004,5.9994 l 1.135,-1.4438 v -9.8412 z"
         style="fill:#ffffff;stroke:none;stroke-width:0.215797" />
      <path
         id="path3144"
         d="m 320.35,77.7908 c 1.206,1.3497 2.268,3.4769 3.618,4.049 -1.209,1.1756 -4.031,-1.9772 -3.618,-4.049 z"
         style="fill:#b2b2b2;stroke:none;stroke-width:0.215797" />
      <path
         id="path3146"
         d="m 320.191,83.1019 c 1.206,1.3497 2.268,3.4769 3.618,4.0489 -1.209,1.1757 -4.031,-1.9772 -3.618,-4.0489 z"
         style="fill:#b2b2b2;stroke:none;stroke-width:0.215797" />
      <path
         id="path3148"
         d="m 319.872,89.5064 c 1.206,1.3497 2.268,3.477 3.619,4.049 -1.21,1.1756 -4.032,-1.9772 -3.619,-4.049 z"
         style="fill:#b2b2b2;stroke:none;stroke-width:0.215797" />
      <path
         id="path3150"
         d="m 320.35,95.4423 c 1.206,1.3498 2.268,3.477 3.618,4.049 -1.209,1.1757 -4.031,-1.9772 -3.618,-4.049 z"
         style="fill:#b2b2b2;stroke:none;stroke-width:0.215797" />
      <path
         id="path3152"
         d="m 320.191,101.534 c 1.206,1.35 2.268,3.477 3.618,4.049 -1.209,1.176 -4.031,-1.977 -3.618,-4.049 z"
         style="fill:#b2b2b2;stroke:none;stroke-width:0.215797" />
      <path
         id="path3154"
         d="m 320.828,108.251 c 1.206,1.35 2.268,3.477 3.618,4.049 -1.209,1.176 -4.031,-1.977 -3.618,-4.049 z"
         style="fill:#b2b2b2;stroke:none;stroke-width:0.215797" />
      <path
         id="path3156"
         d="m 321.305,113.094 c 1.207,1.35 2.269,3.477 3.619,4.049 -1.209,1.176 -4.031,-1.977 -3.619,-4.049 z"
         style="fill:#b2b2b2;stroke:none;stroke-width:0.215797" />
      <path
         id="path3158"
         d="m 406.789,94.067 c 0.928,-1.0021 0.371,-1.6851 -0.558,-2.323 -2.948,0.3649 -3.644,3.6436 -1.671,14.348 1.3,2.596 2.879,2.733 5.154,2.87 l 0.418,-1.913 c -2.044,0.136 -3.343,-0.639 -3.901,-2.323 -0.665,-6.1159 -1.736,-8.5528 0.558,-10.659 z"
         style="fill:#b2b2b2;stroke:none;stroke-width:0.215797" />
      <path
         id="path3160"
         d="m 406.789,94.067 c 0.928,-1.0021 0.371,-1.6851 -0.558,-2.323 -1.473,0.1823 -2.385,1.0932 -2.68,3.2966 0.213,3.6622 2.591,5.2464 1.849,2.852 -0.064,-1.6369 0.242,-2.7726 1.389,-3.8256 z"
         style="fill:#ffffff;stroke:none;stroke-width:0.215797" />
      <path
         id="path3162"
         d="m 405.742,96.8088 c 1.206,1.3497 2.268,3.4772 3.618,4.0492 -1.209,1.175 -4.031,-1.9774 -3.618,-4.0492 z"
         style="fill:#b2b2b2;stroke:none;stroke-width:0.215797" />
      <path
         id="path3164"
         d="m 406.02,100.908 c 1.207,1.35 3.94,3.34 4.455,4.322 -1.209,1.176 -4.867,-2.25 -4.455,-4.322 z"
         style="fill:#b2b2b2;stroke:none;stroke-width:0.215797" />
      <path
         id="path3166"
         d="m 406.578,93.5293 c 1.206,1.3497 1.432,1.9738 2.782,2.5458 -1.209,1.1757 -3.195,-0.474 -2.782,-2.5458 z"
         style="fill:#b2b2b2;stroke:none;stroke-width:0.215797" />
      <path
         id="path3168"
         d="m 387.716,100.574 c 5.875,-0.187 10.558,-0.493 15.861,-1.6396 l -0.588,1.6856 c -2.907,0.876 -8.242,1.735 -15.552,1.609 z"
         style="fill:#b2b2b2;stroke:none;stroke-width:0.215797" />
      <path
         id="path3170"
         d="m 476.172,72.288 c 3.646,0.0865 6.937,-0.22 10.708,-1.0929 l -0.589,1.6851 c -2.349,0.8763 -6.152,1.189 -10.397,1.0626 z"
         style="fill:#b2b2b2;stroke:none;stroke-width:0.215797" />
      <path
         id="path3172"
         d="m 19.2502,61.9202 c 2.6451,0.3452 6.2718,1.6849 10.0322,2.5993 l 1.4778,3.0112 C 28.262,67.2566 22.9228,65.8296 19.2063,63.8138 Z"
         style="fill:#b2b2b2;stroke:none;stroke-width:0.215797" />
      <path
         id="path3174"
         d="m 19.2502,61.9202 c 2.6451,0.3452 6.2718,1.6849 10.0322,2.5993 l 0.6341,1.2922 C 29.1692,65.628 17.8849,62.5643 19.2271,62.9076 Z"
         style="fill:#ffffff;stroke:none;stroke-width:0.215797" />
    </g>
    <use
       style="stroke-width:1.04295"
       height="100%"
       width="100%"
       transform="matrix(0.91738312,0,0,1,20.961097,303.15374)"
       id="use1195"
       xlink:href="#g1193"
       y="0"
       x="0" />
    <use
       style="stroke-width:1.00717"
       height="100%"
       width="100%"
       transform="matrix(0.98370002,0,0,1,4.1355405,151.57687)"
       id="use1373"
       xlink:href="#g1193"
       y="0"
       x="0" />
  </g>
  <g
     transform="translate(-3.71445,-3.71445)"
     id="g3348" />
</svg>
