<?xml version="1.0" encoding="UTF-8" standalone="no"?>
<!-- Created with Inkscape (http://www.inkscape.org/) -->
<svg width="500" height="538.00006" viewBox="0 0 132.29166 142.34585" version="1.1" id="svg5" xml:space="preserve" xmlns="http://www.w3.org/2000/svg" xmlns:svg="http://www.w3.org/2000/svg"><defs id="defs2"/><path style="font-variation-settings:normal;vector-effect:none;fill:#e90606;fill-opacity:1;stroke:none;stroke-width:0.264582;stroke-linecap:butt;stroke-linejoin:miter;stroke-miterlimit:10;stroke-dasharray:none;stroke-dashoffset:0;stroke-opacity:1;-inkscape-stroke:none;stop-color:#000000" d="m 0,0 4.12926,84.265906 c 1.719044,35.080264 31.638891,58.079934 62.016583,58.079934 30.37767,0 60.297507,-22.99967 62.016547,-58.079934 L 132.29166,0 Z" id="path2452"/><g id="g21400" transform="matrix(1.2062115,0,0,1.2062115,-61.08512,-64.26291)" style="stroke-width:0.829042"><path id="path20548" style="font-variation-settings:normal;opacity:1;fill:#900404;fill-opacity:1;stroke:none;stroke-width:0.109676;stroke-linecap:butt;stroke-linejoin:miter;stroke-miterlimit:10;stroke-dasharray:none;stroke-dashoffset:0;stroke-opacity:1;stop-color:#000000" d="m 124.28699,73.315421 c -1.33938,1.76032 -1.45414,5.338417 0.90929,6.357365 2.24153,0.966394 4.59076,-0.591261 4.65729,-2.675936 0.0665,-2.084676 1.44149,-2.794521 2.08463,-2.195732 0.64315,0.598791 0.95394,2.705991 -1.68517,4.923731 -2.63911,2.217739 -5.76635,2.860807 -10.1353,2.860807 -4.36895,0 -7.38497,-0.620798 -8.91521,-2.550232 -1.53024,-1.929433 -1.41281,-4.452619 -0.75035,-5.126302 0.66248,-0.673684 1.86931,0.09963 1.38421,2.070322 -0.48509,1.970697 2.33454,4.037353 5.28722,3.078201 2.95269,-0.959153 3.30081,-4.573776 2.08488,-6.365112 0.70656,-0.380451 1.8777,-1.470972 2.54075,-2.448883 -0.46483,-0.597638 -1.02304,-1.210466 -1.73226,-1.62051 0.82862,-0.911491 1.95666,-4.685721 0.30024,-6.867403 -1.65642,-2.181682 -5.22785,-0.714261 -6.19808,1.680639 -0.97022,2.394901 -1.79294,5.234838 -3.33778,4.255555 -1.54482,-0.979283 0.006,-3.081405 2.06241,-4.668966 2.05637,-1.587561 1.66303,-4.043167 0.11059,-4.923214 -1.55244,-0.880047 -2.73185,-0.833707 -4.34651,0.487787 -0.56073,-1.033201 -1.22604,-2.190809 -2.33244,-2.69597 l -0.79553,-0.09504 c -0.95331,0.623964 -1.29451,2.097083 -1.80351,3.034958 -1.61466,-1.321494 -3.06072,-1.611786 -4.613157,-0.731739 -1.552439,0.880047 -1.945258,3.335653 0.111104,4.923214 2.056503,1.587561 3.917723,2.869119 2.372893,3.848402 -1.54484,0.979283 -2.349075,-1.1747 -3.426493,-3.834185 -1.077419,-2.659483 -4.386407,-3.662724 -6.042829,-1.481042 -1.656424,2.181682 -0.905404,6.155509 -0.07678,7.067 l 0.941544,4.26899 c -1.160835,1.713041 -0.936396,5.29231 1.751705,6.165515 2.688101,0.873205 5.817203,-1.551052 5.332103,-3.521749 -0.485098,-1.970696 0.87697,-2.300458 1.53945,-1.626774 0.66246,0.673683 0.77989,3.196869 -0.75035,5.126302 -1.530246,1.929434 -4.546274,2.550232 -8.915221,2.550232 -4.368947,0 -6.144911,0.244593 -9.048605,-2.195484 -2.903694,-2.440079 -3.813171,-4.876991 -2.905444,-5.722119 0.907728,-0.845125 2.151679,0.244121 2.218209,2.328797 0.06653,2.084675 2.002427,3.575962 4.501534,2.498516 2.635013,-1.136037 2.403914,-4.641399 1.330663,-6.446074 0.752918,-0.5516 1.12665,-1.059673 1.43816,-1.852605 -0.580151,-1.002102 -1.549657,-1.684671 -2.378666,-2.264978 1.112022,-1.62683 2.317117,-4.758593 -0.345715,-6.150529 -2.662835,-1.391936 -4.929594,-0.156952 -5.743836,1.596802 -0.814242,1.753754 -0.354698,3.526095 -1.774052,3.370854 -1.419353,-0.155242 -1.375139,-1.152903 -0.598929,-3.525883 0.776209,-2.372982 -1.591907,-4.292092 -4.857068,-4.347022 l 3.185096,13.03391 c -0.65445,1.953435 -1.183952,5.546786 0.507702,7.845952 l 2.525427,10.461377 h -0.970106 c -0.728418,0 -1.315165,0.580133 -1.315165,1.301213 0,0.721079 0.586747,1.301729 1.315165,1.301729 h 53.719351 c 0.72843,0 1.31464,-0.58065 1.31464,-1.301729 0,-0.72108 -0.58621,-1.301213 -1.31464,-1.301213 h -0.64079 l 2.52543,-10.461377 c 1.69165,-2.299166 2.22799,-4.449791 1.57354,-6.403226 1.17608,-0.260386 2.58548,-1.376715 3.93723,-5.539197 1.35176,-4.162483 2.6976,-5.832521 4.33873,-6.786149 l -0.25479,-0.529239 c -1.39042,-0.772459 -3.38512,-0.772081 -5.59195,-0.734954 -2.20682,0.03713 -5.03397,1.308717 -4.25776,3.681699 0.7762,2.37298 0.17727,3.193222 -1.24207,3.348464 -1.41936,0.155241 -1.33683,-2.3046 -2.15108,-4.058354 -0.81424,-1.753754 -2.77102,-2.722609 -5.43386,-1.330673 -2.66283,1.391936 -1.05803,4.812005 0.054,6.438835 z"/><g id="g21381" transform="translate(0.52916666,0.52916666)" style="stroke-width:0.829042"><path id="path20871" style="opacity:1;fill:#900404;fill-opacity:1;stroke:none;stroke-width:0.109676;stop-color:#000000" d="m 87.080889,101.09067 c -0.999088,0 -1.803408,0.80432 -1.803408,1.80341 l 1e-6,9.83519 c 0,0.99908 0.80432,1.8034 1.803408,1.8034 0.999087,0 1.803407,-0.80432 1.803407,-1.8034 l -10e-7,-9.83519 c 0,-0.99909 -0.80432,-1.80341 -1.803407,-1.80341 z" transform="translate(-5.9009943e-5)"/><path id="path20873" style="opacity:1;fill:#900404;fill-opacity:1;stroke:none;stroke-width:0.109676;stop-color:#000000" d="m 87.080889,101.09067 c -0.999088,0 -1.803408,0.80432 -1.803408,1.80341 l -10e-7,10.63851 c 0,0.99908 0.80432,1.8034 1.803408,1.8034 0.999087,0 1.803407,-0.80432 1.803407,-1.8034 l 1e-6,-10.63851 c 0,-0.99909 -0.80432,-1.80341 -1.803407,-1.80341 z" transform="translate(3.606924,-0.40166001)"/><path id="path20875" style="opacity:1;fill:#900404;fill-opacity:1;stroke:none;stroke-width:0.109676;stop-color:#000000" d="m 87.080889,101.09067 c -0.999088,0 -1.803408,0.80432 -1.803408,1.80341 l 1e-6,9.83519 c 0,0.99908 0.80432,1.8034 1.803408,1.8034 0.999087,0 1.803407,-0.80432 1.803407,-1.8034 l -10e-7,-9.83519 c 0,-0.99909 -0.80432,-1.80341 -1.803407,-1.80341 z" transform="translate(36.79754)"/><path id="path20877" style="opacity:1;fill:#900404;fill-opacity:1;stroke:none;stroke-width:0.109676;stop-color:#000000" d="m 87.080889,101.09067 c -0.999088,0 -1.803408,0.80432 -1.803408,1.80341 l -10e-7,10.63851 c 0,0.99908 0.80432,1.8034 1.803408,1.8034 0.999087,0 1.803407,-0.80432 1.803407,-1.8034 l 1e-6,-10.63851 c 0,-0.99909 -0.80432,-1.80341 -1.803407,-1.80341 z" transform="translate(33.190563,-0.40166001)"/><path id="path20865" style="opacity:1;fill:#900404;fill-opacity:1;stroke:none;stroke-width:0.109676;stop-color:#000000" d="m 118.64175,92.742185 c -0.22177,5.700729 -4.09326,9.565895 -13.16195,9.565895 -9.068687,0 -12.984537,-3.066778 -12.984536,-8.723153 l 6.147267,-0.842742 c -1e-6,2.347357 2.267399,3.574392 6.837269,3.574392 4.56987,0 6.83726,-1.227036 6.83726,-3.574392 z"/><path style="font-variation-settings:normal;opacity:1;fill:#900404;fill-opacity:1;stroke:none;stroke-width:0.109676;stroke-linecap:butt;stroke-linejoin:miter;stroke-miterlimit:10;stroke-dasharray:none;stroke-dashoffset:0;stroke-opacity:1;stop-color:#000000;stop-opacity:1" d="m 105.4798,167.7953 c 2.74394,-3.08238 6.04435,-5.69964 14.21172,-11.38499 8.13807,-5.66496 12.66487,-10.97 15.29206,-15.27163 3.30443,2.19556 7.87928,4.09428 9.94178,2.85234 2.0625,-1.24193 2.34222,-10.19354 1.35907,-15.95239 -0.98315,-5.75885 -2.85061,-11.21955 -4.70112,-13.62419 l -0.87417,-0.15281 c 0,0 -17.40886,11.48279 -19.27977,13.79079 -1.8709,2.30799 -1.25281,4.40409 0.42741,5.49554 1.68021,1.09145 6.2119,3.51007 6.2119,3.51007 -2.83871,3.2379 -5.10907,5.63148 -8.87923,7.22826 -3.77016,1.59677 -5.99004,-0.11033 -6.32056,-2.99803 -0.33052,-2.8877 -1.10887,-28.11689 -1.10887,-28.11689 l -0.95364,-10.35685 -0.21031,-10.072335 h -10.23253 l -0.21031,10.072335 -0.953639,10.35685 c 0,0 -0.77835,26.07601 -1.10887,28.96371 -0.33052,2.8877 -1.77419,3.59274 -5.54435,1.99597 -3.77016,-1.59678 -6.808469,-4.30242 -9.647179,-7.54032 0,0 4.241159,-2.39041 5.921369,-3.48186 1.68022,-1.09145 2.713645,-3.21419 0.842745,-5.52218 -1.87091,-2.308 -11.213854,-12.07518 -19.21015,-13.03984 -1.85051,2.40464 -4.481185,8.07793 -5.464335,13.83678 -0.98315,5.75885 -0.950538,14.5207 1.111962,15.76263 2.0625,1.24194 6.5325,-1.28628 9.83693,-3.48184 2.627192,4.30163 8.079405,8.52851 16.217475,14.19347 8.167372,5.68535 10.051512,9.32586 12.795442,12.40824 z" id="path20867"/><path style="font-variation-settings:normal;opacity:1;fill:#900404;fill-opacity:1;stroke:none;stroke-width:0.109676;stroke-linecap:butt;stroke-linejoin:miter;stroke-miterlimit:10;stroke-dasharray:none;stroke-dashoffset:0;stroke-opacity:1;stop-color:#000000;stop-opacity:1" d="m 134.09136,104.41346 0.52917,0.52917 v 5.73809 c -9.90938,2.10857 -21.8918,3.33215 -29.14079,3.33215 -7.24898,0 -19.2314,-0.95745 -29.14078,-3.06602 l -0.529177,-0.79544 z" id="path20869"/></g></g><path id="path19902" style="fill:#cccccc;fill-opacity:1;stroke:none;stroke-width:0.132292;stop-color:#000000" d="m 81.807924,47.603776 c 0,6.82279 -4.72333,11.5385 -15.6621,11.5385 -10.938755,0 -15.662095,-4.71571 -15.662095,-11.5385 h 7.41491 c 0,2.83141 2.73496,4.31148 8.247195,4.31148 5.51223,0 8.24718,-1.48007 8.24718,-4.31148 z"/><path id="path20685" style="fill:#ffffff;stroke:none;stroke-width:0.132292;stop-color:#000000" d="m 50.548389,48.942006 c 0.34818,3.56159 2.13106,6.44475 5.59125,8.22543 -2.96409,-1.95757 -4.50337,-4.96253 -4.81532,-8.31905 z m 23.602275,0 c -0.20497,0.5147 -0.53991,0.96451 -1.00543,1.34764 l -0.0854,1.00605 c 1.0381,-0.58524 1.68933,-1.5244 1.99839,-2.454 z"/><path id="path21656" style="font-variation-settings:normal;fill:#808080;fill-opacity:1;stroke:none;stroke-width:0.132292;stroke-linecap:butt;stroke-linejoin:miter;stroke-miterlimit:10;stroke-dasharray:none;stroke-dashoffset:0;stroke-opacity:1;stop-color:#000000" d="m 70.021344,58.918336 c 1.19316,-0.14737 2.28883,-0.3657 3.29034,-0.64948 l -0.16644,-7.98108 c -0.65217,0.53735 -1.56041,0.94423 -2.72641,1.21677 z"/><path style="font-variation-settings:normal;fill:#cccccc;fill-opacity:1;stroke:none;stroke-width:0.132292;stroke-linecap:butt;stroke-linejoin:miter;stroke-miterlimit:10;stroke-dasharray:none;stroke-dashoffset:0;stroke-opacity:1;stop-color:#000000" d="m 59.974539,47.603776 -0.25368,12.14937 -1.15029,12.49255 c 0,0 -0.93886,31.453184 -1.33753,34.936364 -0.39868,3.48318 -3.07633,4.52086 -7.62394,2.59482 -4.547606,-1.92606 -7.891441,-5.00238 -11.315526,-8.90797 0,0 5.731,-3.257854 7.757689,-4.574374 2.026701,-1.31652 3.112725,-3.31522 0.856024,-6.09915 -2.256713,-2.78393 -14.756809,-14.61872 -23.893771,-15.99631 -2.232106,2.9005 -4.522485,9.44943 -5.708372,16.39582 -1.185887,6.9464 -1.226801,17.327794 1.26101,18.825824 2.487811,1.49804 7.665571,-1.28403 11.651412,-3.93234 3.168949,5.18868 8.969702,12.07949 18.785936,18.91263 9.851578,6.85773 13.832563,10.0147 17.142323,13.7327 3.30977,-3.718 7.29076,-6.87497 17.14234,-13.7327 9.81623,-6.83314 15.61699,-13.72395 18.785926,-18.91263 3.98585,2.64831 9.16361,5.43038 11.65142,3.93234 2.48781,-1.49803 2.44689,-11.879424 1.26101,-18.825824 -1.18589,-6.94639 -3.47627,-13.49532 -5.70838,-16.39582 -9.13695,1.37759 -21.637046,13.21238 -23.893766,15.99631 -2.2567,2.78393 -1.17067,4.78263 0.85603,6.09915 2.02669,1.31652 7.75769,4.574374 7.75769,4.574374 -3.42409,3.90559 -6.76792,6.98191 -11.31553,8.90797 -4.54761,1.92604 -7.22526,0.88836 -7.62394,-2.59482 -0.39867,-3.48318 -1.33753,-34.936364 -1.33753,-34.936364 l -1.15029,-12.49255 -0.25368,-12.14937 z" id="path7705"/><path id="path7760" style="color:#000000;fill:#ffffff;stroke-width:1;stroke-miterlimit:10;-inkscape-stroke:none" d="m 60.518509,59.797876 0.22689,-11.06987 -0.7991,0.214 -0.22565,10.81098 m -1.19305,13.89334 c -0.11618,3.84609 -0.92406,30.297904 -1.29465,33.535624 -0.32543,2.84328 -2.17068,4.05485 -5.31074,3.35724 1.2162,0.53141 2.60947,0.75097 3.59161,0.54417 0.80617,-0.16975 1.46464,-0.49101 1.93356,-1.1569 0.46892,-0.66592 0.657,-1.68905 0.76731,-2.65287 0.11107,-0.97043 0.23725,-3.54532 0.38148,-6.9875 0.14424,-3.442214 0.22296,-7.926514 0.36527,-12.076964 0.24302,-7.08751 0.34771,-12.83345 0.37898,-14.61279 z m -35.514055,0.55289 c -2.232099,2.90051 -4.522546,9.44899 -5.70843,16.39538 -1.185883,6.94636 -1.226813,17.328324 1.260991,18.826354 0.330909,0.19925 0.710642,0.32079 1.127599,0.37898 -0.491592,-0.49333 -0.924677,-1.2194 -1.272834,-2.16793 -0.501833,-1.36726 -0.818511,-3.14085 -0.968027,-5.0795 -0.299031,-3.877254 0.05587,-8.413004 0.638287,-11.824514 1.137811,-6.66477 3.382119,-12.8897 5.378689,-15.67605 1.559763,0.0387 2.992286,0.26964 4.264181,0.59215 -1.623892,-0.70534 -3.217952,-1.21833 -4.720456,-1.44487 z m 86.264726,0 c -9.13695,1.37759 -21.637286,13.21252 -23.894006,15.99645 -1.88609,2.32672 -1.43387,4.10312 -0.0523,5.39302 -0.35638,-0.54565 -0.56129,-1.08156 -0.61398,-1.61629 -0.0925,-0.93947 0.2427,-1.98723 1.28656,-3.27496 0.99422,-1.2265 5.18936,-5.27706 10.12782,-8.90484 4.489386,-3.29796 9.691236,-6.2652 13.665176,-6.84788 -0.17309,-0.267 -0.3463,-0.52078 -0.51921,-0.7455 z m -5.43605,10.24501 c -1.28404,3.26358 -6.420076,12.51908 -9.844206,16.424664 -3.42407,3.9056 -6.76763,6.98192 -11.31524,8.90797 -4.54615,1.92544 -7.2236,0.88875 -7.62453,-2.59304 0.0562,2.95892 0.68329,3.50324 1.99152,4.07594 1.30824,0.57269 3.57109,0.25577 5.94406,-0.74924 4.69917,-1.99026 8.14817,-5.17186 11.60509,-9.11491 3.42408,-3.905604 8.387286,-13.313294 9.243306,-16.951384 z m -80.070087,0.94871 c 0.578679,5.85996 3.276372,14.906474 6.445202,20.095434 3.168882,5.18893 8.970525,12.07943 18.786454,18.91237 9.85154,6.8577 13.832355,10.01514 17.142115,13.73314 v -21.56899 c 0,0 -0.34587,0.62736 -0.36216,1.61442 -0.0163,0.98707 -0.59153,17.85708 -0.59153,17.85708 -3.175545,-3.26572 -7.047975,-6.24568 -15.732145,-12.29077 -9.730743,-6.7736 -15.455088,-13.58521 -18.562061,-18.67238 -3.168947,-5.188674 -6.244547,-13.896004 -7.125875,-19.680304 z"/><path id="path11442" style="font-variation-settings:normal;fill:#808080;fill-opacity:1;stroke:none;stroke-width:0.132292;stroke-linecap:butt;stroke-linejoin:miter;stroke-miterlimit:10;stroke-dasharray:none;stroke-dashoffset:0;stroke-opacity:1;stop-color:#000000" d="m 28.449579,84.444226 c 1.284031,3.26358 6.420124,12.51907 9.844204,16.424664 0,0 0.604858,-0.34846 0.756719,-0.43508 C 35.607584,96.365666 30.197416,87.339906 28.449579,84.444226 Z m 80.069471,0.94871 c -0.57868,5.85996 -3.27626,14.906774 -6.44521,20.095434 0.23766,0.15791 0.49085,0.31457 0.73615,0.47249 3.06294,-5.49807 6.43296,-16.381474 5.70906,-20.567924 z M 58.570609,72.245726 c 0,0 -0.0342,1.10905 -0.043,1.4006 2.81629,0.1676 5.401975,0.25245 7.618305,0.25245 2.21649,0 4.80177,-0.0848 7.6183,-0.25245 -0.008,-0.29155 -0.0431,-1.4006 -0.0431,-1.4006 z m 1.40379,-24.642 -0.0281,1.33828 h 12.398605 l -0.0281,-1.33828 z"/><path style="font-variation-settings:normal;fill:#cccccc;fill-opacity:1;stroke:none;stroke-width:0.132292;stroke-linecap:butt;stroke-linejoin:miter;stroke-miterlimit:10;stroke-dasharray:none;stroke-dashoffset:0;stroke-opacity:1;stop-color:#000000" d="m 101.2957,62.320096 v 6.92135 c -11.952806,2.54338 -26.406126,3.85878 -35.149936,3.85878 -8.743815,0 -23.197144,-1.3154 -35.149953,-3.85878 v -6.92135 c 11.952809,-2.54338 26.406138,-3.85878 35.149953,-3.85878 8.74381,0 23.19713,1.3154 35.149936,3.85878 z" id="path2565"/><path id="path4961" style="color:#000000;fill:#ffffff;stroke-width:1;stroke-miterlimit:10;-inkscape-stroke:none" d="m 66.145844,58.461466 c -8.743805,0 -23.197249,1.31501 -35.150045,3.85839 v 6.92142 c 0.264108,0.0562 0.530773,0.11146 0.797235,0.16643 v -6.40343 c 11.761622,-2.44479 25.835915,-3.74621 34.35343,-3.74621 8.45454,0 23.38653,1.46363 35.149406,3.88956 v -0.82777 c -11.952796,-2.54338 -26.406226,-3.85839 -35.150026,-3.85839 z"/><g id="g4926" transform="matrix(1.2062115,0,0,1.2062115,-61.085191,-64.26291)" style="stroke-width:0.829042"><path id="rect2621" style="opacity:1;fill:#cccccc;stroke:none;stroke-width:0.109676;stop-color:#000000" d="m 87.080889,101.09067 c -0.999088,0 -1.803408,0.80432 -1.803408,1.80341 l 1e-6,9.83519 c 0,0.99908 0.80432,1.8034 1.803408,1.8034 0.999087,0 1.803407,-0.80432 1.803407,-1.8034 l -10e-7,-9.83519 c 0,-0.99909 -0.80432,-1.80341 -1.803407,-1.80341 z"/><path id="path2692" style="color:#000000;opacity:1;fill:#808080;fill-opacity:1;stroke-width:0.687311;-inkscape-stroke:none" d="m 87.080988,101.09047 -0.001,0.66146 c 0.671564,0 1.142566,0.49848 1.142566,1.14256 v 9.83403 c 0,0.64406 -0.398391,1.14256 -1.140499,1.14256 -0.671564,0 -1.142566,-0.49848 -1.142566,-1.14256 l -0.661975,5.1e-4 c 0,0.99909 0.804423,1.80351 1.803507,1.80351 0.999085,0 1.803508,-0.80443 1.803508,-1.80351 v -9.83505 c 0,-0.99909 -0.804424,-1.80351 -1.803508,-1.80351 z"/><path id="path2696" style="color:#000000;opacity:1;fill:#ffffff;stroke-width:0.829042;-inkscape-stroke:none" d="m 87.080988,101.09047 c -0.999086,0 -1.803507,0.80442 -1.803507,1.80351 v 9.83505 c 0,0.99908 0.804421,1.80351 1.803507,1.80351 -0.96288,-0.72131 -1.141532,-1.48199 -1.141532,-1.80402 v -9.83403 c 0,-0.64408 0.471,-1.14256 1.142566,-1.14256 0.518865,0 0.960798,0.0779 1.690336,0.51366 -0.254135,-0.68728 -0.913618,-1.17512 -1.69137,-1.17512 z"/></g><g id="g4934" transform="matrix(1.2062115,0,0,1.2062115,-56.734406,-64.747397)" style="stroke-width:0.829042"><path id="path4928" style="opacity:1;fill:#cccccc;stroke:none;stroke-width:0.109676;stop-color:#000000" d="m 87.080889,101.09067 c -0.999088,0 -1.803408,0.80432 -1.803408,1.80341 l -10e-7,10.63851 c 0,0.99908 0.80432,1.8034 1.803408,1.8034 0.999087,0 1.803407,-0.80432 1.803407,-1.8034 l 1e-6,-10.63851 c 0,-0.99909 -0.80432,-1.80341 -1.803407,-1.80341 z"/><path id="path4930" style="color:#000000;opacity:1;fill:#808080;fill-opacity:1;stroke-width:0.687311;-inkscape-stroke:none" d="m 87.080988,101.09047 -0.001,0.66146 c 0.671564,0 1.142566,0.49848 1.142566,1.14256 l -2e-6,10.63735 c 0,0.64406 -0.398391,1.14256 -1.140499,1.14256 -0.671564,0 -1.142566,-0.49848 -1.142566,-1.14256 l -0.661975,5.1e-4 c 0,0.99909 0.804423,1.80351 1.803507,1.80351 0.999085,0 1.803508,-0.80443 1.803508,-1.80351 l 2e-6,-10.63837 c 0,-0.99909 -0.804424,-1.80351 -1.803508,-1.80351 z"/><path id="path4932" style="color:#000000;opacity:1;fill:#ffffff;stroke-width:0.829042;-inkscape-stroke:none" d="m 87.080988,101.09047 c -0.999086,0 -1.803507,0.80442 -1.803507,1.80351 l -2e-6,10.63837 c 0,0.99908 0.804421,1.80351 1.803507,1.80351 -0.96288,-0.72131 -1.141532,-1.48199 -1.141532,-1.80402 l 2e-6,-10.63735 c 0,-0.64408 0.471,-1.14256 1.142566,-1.14256 0.518865,0 0.960798,0.0779 1.690336,0.51366 -0.254135,-0.68728 -0.913618,-1.17512 -1.69137,-1.17512 z"/></g><g id="g4951" transform="matrix(1.2062115,0,0,1.2062115,-16.699503,-64.26291)" style="stroke-width:0.829042"><path id="path4945" style="opacity:1;fill:#cccccc;stroke:none;stroke-width:0.109676;stop-color:#000000" d="m 87.080889,101.09067 c -0.999088,0 -1.803408,0.80432 -1.803408,1.80341 l 1e-6,9.83519 c 0,0.99908 0.80432,1.8034 1.803408,1.8034 0.999087,0 1.803407,-0.80432 1.803407,-1.8034 l -10e-7,-9.83519 c 0,-0.99909 -0.80432,-1.80341 -1.803407,-1.80341 z"/><path id="path4947" style="color:#000000;opacity:1;fill:#808080;fill-opacity:1;stroke-width:0.687311;-inkscape-stroke:none" d="m 87.080988,101.09047 -0.001,0.66146 c 0.671564,0 1.142566,0.49848 1.142566,1.14256 v 9.83403 c 0,0.64406 -0.398391,1.14256 -1.140499,1.14256 -0.671564,0 -1.142566,-0.49848 -1.142566,-1.14256 l -0.661975,5.1e-4 c 0,0.99909 0.804423,1.80351 1.803507,1.80351 0.999085,0 1.803508,-0.80443 1.803508,-1.80351 v -9.83505 c 0,-0.99909 -0.804424,-1.80351 -1.803508,-1.80351 z"/><path id="path4949" style="color:#000000;opacity:1;fill:#ffffff;stroke-width:0.829042;-inkscape-stroke:none" d="m 87.080988,101.09047 c -0.999086,0 -1.803507,0.80442 -1.803507,1.80351 v 9.83505 c 0,0.99908 0.804421,1.80351 1.803507,1.80351 -0.96288,-0.72131 -1.141532,-1.48199 -1.141532,-1.80402 v -9.83403 c 0,-0.64408 0.471,-1.14256 1.142566,-1.14256 0.518865,0 0.960798,0.0779 1.690336,0.51366 -0.254135,-0.68728 -0.913618,-1.17512 -1.69137,-1.17512 z"/></g><g id="g4959" transform="matrix(1.2062115,0,0,1.2062115,-21.050282,-64.747397)" style="stroke-width:0.829042"><path id="path4953" style="opacity:1;fill:#cccccc;stroke:none;stroke-width:0.109676;stop-color:#000000" d="m 87.080889,101.09067 c -0.999088,0 -1.803408,0.80432 -1.803408,1.80341 l -10e-7,10.63851 c 0,0.99908 0.80432,1.8034 1.803408,1.8034 0.999087,0 1.803407,-0.80432 1.803407,-1.8034 l 1e-6,-10.63851 c 0,-0.99909 -0.80432,-1.80341 -1.803407,-1.80341 z"/><path id="path4955" style="color:#000000;opacity:1;fill:#808080;fill-opacity:1;stroke-width:0.687311;-inkscape-stroke:none" d="m 87.080988,101.09047 -0.001,0.66146 c 0.671564,0 1.142566,0.49848 1.142566,1.14256 l -2e-6,10.63735 c 0,0.64406 -0.398391,1.14256 -1.140499,1.14256 -0.671564,0 -1.142566,-0.49848 -1.142566,-1.14256 l -0.661975,5.1e-4 c 0,0.99909 0.804423,1.80351 1.803507,1.80351 0.999085,0 1.803508,-0.80443 1.803508,-1.80351 l 2e-6,-10.63837 c 0,-0.99909 -0.804424,-1.80351 -1.803508,-1.80351 z"/><path id="path4957" style="color:#000000;opacity:1;fill:#ffffff;stroke-width:0.829042;-inkscape-stroke:none" d="m 87.080988,101.09047 c -0.999086,0 -1.803507,0.80442 -1.803507,1.80351 l -2e-6,10.63837 c 0,0.99908 0.804421,1.80351 1.803507,1.80351 -0.96288,-0.72131 -1.141532,-1.48199 -1.141532,-1.80402 l 2e-6,-10.63735 c 0,-0.64408 0.471,-1.14256 1.142566,-1.14256 0.518865,0 0.960798,0.0779 1.690336,0.51366 -0.254135,-0.68728 -0.913618,-1.17512 -1.69137,-1.17512 z"/></g><path id="path24836" style="fill:#808080;fill-opacity:1;stroke:none;stroke-width:0.132292;stop-color:#000000" d="m 50.483569,47.603726 c 0,0.4558 0.0222,0.90207 0.0648,1.33828 h 7.59212 c -0.16146,-0.40581 -0.24185,-0.85215 -0.24185,-1.33828 z m 23.909565,0 c 0,0.48613 -0.0803,0.93247 -0.24183,1.33828 h 7.59211 c 0.0426,-0.43621 0.0642,-0.88248 0.0642,-1.33828 z"/><path id="path4928-8" style="fill:#bf9f4f;fill-opacity:1;stroke:none;stroke-width:0.132292;stop-color:#000000" d="m 99.931774,46.695836 c 0,-0.86978 -0.70734,-1.57 -1.58599,-1.57 H 33.945871 c -0.878628,0 -1.585974,0.70022 -1.585974,1.57 0,0.86977 0.707346,1.56999 1.585974,1.56999 h 64.399913 c 0.87864,0 1.58599,-0.70022 1.58599,-1.56999 z"/><g id="g1835" transform="matrix(1.2062115,0,0,1.2062115,-61.08512,-64.26291)" style="stroke-width:0.829042"><path style="font-variation-settings:normal;opacity:1;fill:#bf9f4f;fill-opacity:1;stroke:none;stroke-width:0.109676;stroke-linecap:butt;stroke-linejoin:miter;stroke-miterlimit:10;stroke-dasharray:none;stroke-dashoffset:0;stroke-opacity:1;stop-color:#000000;stop-opacity:1" d="m 131.48683,90.883061 2.57258,-10.656249 c 1.69166,-2.299169 2.22826,-4.450128 1.57381,-6.403565 1.17608,-0.260386 2.58553,-1.376488 3.93728,-5.538974 1.35176,-4.162487 2.97177,-5.832662 4.6129,-6.786291 -1.39042,-0.77246 -3.16628,-2.206142 -6.43145,-2.15121 -3.26516,0.05493 -5.63306,1.973791 -4.85685,4.346775 0.77621,2.372983 0.82056,3.370967 -0.59879,3.526209 -1.41936,0.155242 -0.95995,-1.617211 -1.7742,-3.370967 -0.81424,-1.753756 -3.08111,-2.988712 -5.74395,-1.596774 -2.66283,1.391937 -1.45767,4.523922 -0.34565,6.150754 -0.82901,0.580307 -1.79821,1.262685 -2.37837,2.264788 0.31151,0.792933 0.95094,1.567131 1.70386,2.118731 -1.33938,1.760322 -1.84209,5.170713 1.06452,6.423841 2.75669,1.188497 4.43548,-0.657712 4.50201,-2.742389 0.0665,-2.084678 1.44154,-2.794355 2.08468,-2.195565 0.64315,0.598791 0.95363,2.705645 -1.68548,4.923387 -2.63912,2.217742 -5.76613,2.860887 -10.13508,2.860887 -4.36896,0 -7.38508,-0.620967 -8.91533,-2.550403 -1.53024,-1.929435 -1.4127,-4.452643 -0.75023,-5.126327 0.66248,-0.673685 2.02453,-0.343484 1.53943,1.627214 -0.48509,1.970699 2.17949,4.480444 5.13217,3.521291 2.95269,-0.959154 3.11245,-4.45228 1.95162,-6.165323 0.92859,-0.50001 2.17677,-1.570589 2.83982,-2.548501 -0.46483,-0.597639 -1.18925,-1.31033 -1.89848,-1.720375 0.82863,-0.911492 1.95656,-4.21993 0.30013,-6.401614 -1.65642,-2.181685 -5.22757,-1.180065 -6.1978,1.214838 -0.97023,2.394903 -1.79319,5.234658 -3.33803,4.255374 -1.54483,-0.979283 0.006,-3.08111 2.0625,-4.668673 2.05637,-1.587563 1.66333,-4.043339 0.11089,-4.923387 -1.55244,-0.880048 -2.99824,-0.58964 -4.6129,0.731855 -0.56073,-1.033202 -1.22623,-2.000888 -2.33264,-2.506049 -1.1064,0.505161 -1.7719,1.472847 -2.33263,2.506049 -1.61466,-1.321495 -3.06046,-1.611903 -4.612899,-0.731855 -1.55244,0.880048 -1.945476,3.335824 0.110888,4.923387 2.056501,1.587563 3.607331,3.68939 2.062501,4.668673 -1.544834,0.979284 -2.367799,-1.860471 -3.338029,-4.255374 -0.970231,-2.394903 -4.541377,-3.396523 -6.197801,-1.214838 -1.656425,2.181684 -0.528501,5.490122 0.300128,6.401614 -0.709227,0.410045 -1.433647,1.122736 -1.898478,1.720375 0.663047,0.977912 1.911234,2.048491 2.839824,2.548501 -1.160836,1.713043 -1.001075,5.206169 1.951613,6.165323 2.952687,0.959153 5.617265,-1.550592 5.13217,-3.521291 -0.485096,-1.970698 0.876953,-2.300899 1.539433,-1.627214 0.66247,0.673684 0.78001,3.196892 -0.75023,5.126327 -1.530244,1.929436 -4.546373,2.550403 -8.915325,2.550403 -4.368951,0 -7.495967,-0.643145 -10.13508,-2.860887 -2.639113,-2.217742 -2.328629,-4.324596 -1.685484,-4.923387 0.643145,-0.59879 2.018147,0.110887 2.084677,2.195565 0.06653,2.084677 1.745326,3.930886 4.502016,2.742389 2.906603,-1.253128 2.403898,-4.663519 1.064517,-6.423841 0.752918,-0.5516 1.392346,-1.325798 1.703856,-2.118731 -0.580152,-1.002103 -1.549355,-1.684481 -2.378365,-2.264788 1.112023,-1.626832 2.317183,-4.758817 -0.345652,-6.150754 -2.662837,-1.391938 -4.929709,-0.156982 -5.743952,1.596774 -0.814243,1.753756 -0.354839,3.526209 -1.774194,3.370967 -1.419355,-0.155242 -1.375,-1.153226 -0.59879,-3.526209 0.77621,-2.372984 -1.591691,-4.291845 -4.856855,-4.346775 -3.265163,-0.05493 -5.041023,1.37875 -6.431451,2.15121 1.641129,0.953629 3.261148,2.623804 4.612902,6.786291 1.351755,4.162486 2.761206,5.278588 3.937282,5.538974 -0.654451,1.953437 -0.117847,4.104396 1.573808,6.403565 l 2.572581,10.656249 z" id="path1956"/><path id="path1934" style="font-variation-settings:normal;opacity:1;fill:#725e2a;fill-opacity:1;stroke:none;stroke-width:0.109676;stroke-linecap:butt;stroke-linejoin:miter;stroke-miterlimit:10;stroke-dasharray:none;stroke-dashoffset:0;stroke-opacity:1;stop-color:#000000;stop-opacity:1" d="m 105.47987,65.048225 c -0.42165,3.538991 -2.73164,5.37227 -5.43016,5.896281 3.79498,0.752726 5.2064,2.76277 5.2064,5.437394 0,2.674624 -2.55549,7.883045 -11.556921,9.294523 -9.001413,1.411475 -15.107326,-3.150632 -16.798974,-5.449797 l 0.393774,1.630909 c 2.381338,2.20961 7.836438,4.934372 13.451375,4.711857 8.112166,-0.05334 14.957746,-4.274968 14.957746,-10.187492 0,-2.674624 -1.50171,-4.785531 -3.99141,-5.437394 1.53534,-0.43056 3.54575,-2.24337 4.07616,-4.430221 -0.14113,-0.451866 -0.24534,-0.940166 -0.30799,-1.46606 z"/><path style="font-variation-settings:normal;opacity:1;fill:#ffffff;fill-opacity:1;stroke:none;stroke-width:0.109676;stroke-linecap:butt;stroke-linejoin:miter;stroke-miterlimit:10;stroke-dasharray:none;stroke-dashoffset:0;stroke-opacity:1;stop-color:#000000;stop-opacity:1" d="m 75.479618,73.441346 0.707979,-0.105255 c 0.913537,-1.73902 2.867203,-2.830037 4.959578,-3.166737 -2.509247,0.131027 -4.83765,1.500415 -5.667557,3.271992 z" id="path1782"/><path id="path9254" style="font-variation-settings:normal;opacity:1;fill:#725e2a;fill-opacity:1;stroke:none;stroke-width:0.109676;stroke-linecap:butt;stroke-linejoin:miter;stroke-miterlimit:10;stroke-dasharray:none;stroke-dashoffset:0;stroke-opacity:1;stop-color:#000000;stop-opacity:1" d="m 110.9099,70.944506 c -1.33525,-0.374087 -2.58585,-0.975673 -3.56891,-1.817523 0.74361,1.097358 2.24819,1.962552 3.40671,2.094971 z"/><path id="path1958" style="font-variation-settings:normal;opacity:1;fill:#725e2a;fill-opacity:1;stroke:none;stroke-width:0.109676;stroke-linecap:butt;stroke-linejoin:miter;stroke-miterlimit:10;stroke-dasharray:none;stroke-dashoffset:0;stroke-opacity:1;stop-color:#000000;stop-opacity:1" d="m 106.50254,79.309887 c 0.25435,0.68267 1.30071,2.50921 2.86753,3.709334 1.56682,1.200125 4.46107,3.361615 10.8443,3.550171 5.6169,0.165918 11.07003,-2.502244 13.45137,-4.711857 l 0.39378,-1.630909 c -1.69165,2.299167 -7.79764,6.861154 -16.79898,5.449797 -1.79384,-0.281264 -3.33203,-0.713682 -4.64468,-1.246436 -1.31265,-0.532752 -2.33363,-1.321529 -3.22667,-2.005562 -1.34757,-1.032183 -2.19668,-2.068496 -2.88665,-3.114538 z"/><path id="path3422" style="color:#000000;opacity:1;fill:#ffffff;stroke-width:0.829042;stroke-miterlimit:10;-inkscape-stroke:none" d="m 105.47987,56.796532 c -1.1064,0.505161 -1.77195,1.472591 -2.33268,2.505791 -1.61466,-1.321493 -3.06072,-1.611785 -4.613154,-0.731739 -1.552438,0.880046 -1.945256,3.335655 0.111104,4.923214 2.0565,1.587559 3.60724,3.689683 2.06241,4.668966 -0.25887,0.164097 -0.49692,0.218932 -0.719339,0.188618 0.467259,0.175206 0.930159,0.193851 1.334289,-0.05633 0.57405,-0.355374 0.68144,-1.04049 0.58756,-1.648478 -0.18597,-1.204281 -1.12531,-2.634254 -2.877347,-3.689697 -1.742541,-1.359511 -1.302653,-3.169429 -0.171565,-3.81062 0.672425,-0.381186 1.241442,-0.484391 1.845882,-0.382406 0.60444,0.101985 1.27075,0.436083 2.02158,1.050582 l 0.61909,0.505912 0.38085,-0.703316 c 0.35229,-0.649119 1.49198,-1.812759 2.37298,-2.458248 -0.19111,-0.137389 -0.39702,-0.259678 -0.62166,-0.362252 z m 5.22965,1.270207 c -0.9445,-0.01363 -1.88782,0.40965 -2.89698,1.235584 0.10239,0.161685 0.27155,0.392244 0.40721,0.540018 1.30301,-1.066424 2.69384,-1.653467 4.74183,-0.860412 -0.15814,-0.159373 -0.33747,-0.298576 -0.5364,-0.411345 -0.58217,-0.330016 -1.14896,-0.495668 -1.71566,-0.503845 z m -37.502103,1.280025 c -3.265157,-0.05493 -5.040708,1.378832 -6.431132,2.15129 1.641125,0.953627 3.260886,2.62367 4.612638,6.786149 1.351753,4.162478 2.761155,5.278811 3.937227,5.539197 -0.654449,1.953433 -0.117588,4.104063 1.574065,6.403226 l 2.572452,10.656197 h 0.692465 l -2.653585,-10.94145 -0.07803,-0.107487 c -1.614508,-2.194324 -2.053919,-4.0892 -1.480529,-5.80068 l 0.234611,-0.697115 -0.71882,-0.15813 c -0.447737,-0.09913 -0.935402,-0.335372 -1.529105,-1.074353 -0.593704,-0.738982 -1.261466,-1.990006 -1.921847,-4.023527 -1.175635,-3.620158 -2.634854,-5.326604 -4.127396,-6.443534 1.293882,-0.779328 2.734242,-1.672116 5.306652,-1.628841 1.516578,0.02551 2.866882,0.456123 3.771863,1.162203 0.635296,0.495666 1.065835,1.103481 1.233517,1.863969 0.182856,-2.059561 -2.038496,-3.637376 -4.995044,-3.687114 z m 64.544383,0 c -3.26516,0.05493 -5.63276,1.974042 -4.85655,4.347022 0.77619,2.372977 0.8204,3.370641 -0.59893,3.525883 -0.42081,0.04603 -0.6743,-0.08033 -0.84698,-0.322461 0.11803,0.277091 0.28632,0.508001 0.52348,0.681095 0.2271,0.165755 0.53233,0.253593 0.82217,0.214457 0.28985,-0.03914 0.53922,-0.191948 0.72244,-0.386539 0.73288,-0.778373 0.77525,-2.141281 -0.0155,-3.974435 -0.38387,-0.889893 -0.12025,-1.585851 0.65629,-2.248441 0.77654,-0.662592 2.10491,-1.150395 3.60546,-1.175639 2.40254,-0.04042 4.36484,1.024782 5.81722,1.877405 0.20023,-0.141832 0.40122,-0.27007 0.60255,-0.387057 -1.39042,-0.772458 -3.1665,-2.206222 -6.43165,-2.15129 z m -44.146662,2.139921 c -0.921544,0.01722 -1.812286,0.387481 -2.433443,1.205611 -1.656423,2.18168 -0.528387,5.490187 0.30024,6.401677 -0.709227,0.410043 -1.433763,1.122671 -1.898592,1.720308 0.663045,0.97791 1.911548,2.048672 2.840136,2.548682 -1.160834,1.713039 -1.00138,5.206363 1.951302,6.165515 0.04408,0.01432 0.08783,0.02545 0.131775,0.03824 -1.261857,-0.758848 -1.854169,-1.79442 -2.059306,-2.847888 -0.221221,-1.136077 0.05971,-2.299924 0.523483,-2.984314 l 0.410311,-0.607714 -0.644406,-0.345716 c -0.671187,-0.361407 -1.552295,-1.213367 -2.187463,-1.962671 0.397949,-0.42724 0.825978,-0.899434 1.263489,-1.152384 l 0.711068,-0.410311 -0.552938,-0.607198 c -0.246848,-0.271533 -0.754483,-1.278802 -0.915707,-2.375049 -0.161223,-1.096246 -0.03288,-2.276724 0.654224,-3.181718 0.368419,-0.485245 0.793348,-0.885431 1.423686,-1.134814 0.470028,-0.185959 1.071181,-0.291158 1.875337,-0.236161 -0.451889,-0.160339 -0.926321,-0.24282 -1.393196,-0.234095 z m 23.749452,0 c -1.53591,-0.02871 -3.15823,0.923714 -3.76463,2.420524 -0.97021,2.394899 -1.79294,5.234837 -3.33778,4.255555 -0.15858,-0.100529 -0.28316,-0.21348 -0.3793,-0.335897 0.0493,0.160935 0.11086,0.307681 0.19172,0.446484 0.16172,0.277607 0.4929,0.555412 0.87075,0.570508 0.37785,0.0151 0.64495,-0.162382 0.85369,-0.340031 0.20874,-0.177648 0.38292,-0.390503 0.55656,-0.634587 0.69459,-0.976334 1.36458,-2.4956 1.85776,-3.712951 0.36772,-0.907695 1.56537,-1.784975 2.85513,-2.109432 0.72549,-0.182507 1.4326,-0.196874 2.02158,-0.03049 -0.51488,-0.350849 -1.11333,-0.518243 -1.72548,-0.529684 z m -33.521465,0.165882 c -1.589614,0.03025 -2.835867,0.990543 -3.395659,2.196248 -0.814241,1.753752 -0.354699,3.526094 -1.774052,3.370854 -0.661752,-0.07238 -1.002165,-0.331017 -1.101741,-0.823723 -0.598584,1.192825 0.726322,1.792803 1.600936,1.550293 0.874614,-0.24251 1.120102,-0.765993 1.333252,-1.469677 0.224933,-0.742586 0.305246,-1.585459 0.572575,-2.427759 0.523708,-1.650107 4.62925,-3.279121 6.687447,0.348299 -0.116086,-0.846458 -0.56972,-1.61982 -1.574581,-2.145089 -0.832135,-0.434979 -1.625626,-0.613197 -2.348177,-0.599446 z m 43.292965,0 c -0.72255,-0.01375 -1.51604,0.164467 -2.34818,0.599446 -2.66283,1.391935 -1.45722,4.523701 -0.3452,6.150529 -0.82901,0.580307 -1.7985,1.262877 -2.37866,2.264978 0.31151,0.792931 0.95085,1.567134 1.70377,2.118734 -1.33938,1.760318 -1.84206,5.170771 1.06453,6.423897 0.0253,0.01089 0.0499,0.01959 0.0749,0.02997 -1.13969,-0.7353 -1.54512,-1.735241 -1.59835,-2.812231 -0.0597,-1.207362 0.42141,-2.498625 0.98599,-3.240629 l 0.40669,-0.536918 -0.54312,-0.398425 c -0.54986,-0.402833 -0.94191,-0.977226 -1.23455,-1.523422 0.50338,-0.684342 1.17948,-1.279964 1.89859,-1.783353 l 0.53537,-0.374654 -0.36948,-0.541053 c -0.50724,-0.742058 -1.03954,-1.867187 -1.13068,-2.851505 -0.0911,-0.984318 0.1215,-1.757278 1.2361,-2.339909 1.19473,-0.624522 2.4807,-0.758312 3.5295,-0.550871 0.36878,0.07294 0.7007,0.18927 0.99167,0.334347 -0.64003,-0.57145 -1.49255,-0.950162 -2.47892,-0.968933 z M 110.7922,73.592406 c -0.27447,0.0048 -0.55289,0.101999 -0.75912,0.30024 -0.21713,0.208707 -0.31458,0.51952 -0.34004,0.84491 0.0658,-0.147044 0.14283,-0.268992 0.22996,-0.357601 0.66248,-0.673683 2.02455,-0.34392 1.53945,1.626774 -0.23858,0.969215 0.28571,2.068334 1.23041,2.821533 -0.2201,-0.328741 -0.43048,-0.735809 -0.51728,-1.082104 -0.14952,-0.596502 -0.1517,-1.251547 -0.0703,-1.582333 0.29001,-1.178165 -0.0647,-2.15301 -0.83974,-2.482019 -0.14531,-0.06169 -0.30868,-0.09227 -0.47336,-0.0894 z m -30.312876,0.09974 c -0.204879,0.004 -0.410031,0.05894 -0.58291,0.180867 -0.174758,0.123249 -0.302692,0.277739 -0.396358,0.454753 0.01681,-0.01832 0.03278,-0.03966 0.05013,-0.05581 0.643143,-0.598788 2.018614,0.111058 2.085144,2.195732 0.03257,1.02061 0.452016,1.98343 1.194759,2.561601 -0.538282,-0.877726 -0.503237,-1.640373 -0.533301,-2.582272 -0.03803,-1.19151 -0.401385,-2.08734 -1.09554,-2.550748 -0.195232,-0.130334 -0.458504,-0.20928 -0.72192,-0.204122 z m 50.639806,0.235127 c -0.0838,-3.54e-4 -0.16619,0.0088 -0.24392,0.02791 -0.24342,0.05972 -0.44561,0.181846 -0.63252,0.341064 0.4105,-0.294336 0.8672,-0.302798 1.16634,-0.02429 0.64315,0.598791 0.95394,2.705993 -1.68517,4.923731 -2.6391,2.217736 -5.76635,2.860807 -10.1353,2.860807 -4.36894,0 -7.38498,-0.6208 -8.91521,-2.550232 -0.40728,-0.513516 -0.69474,-1.068999 -0.88935,-1.620573 0.0522,0.850346 0.37841,1.608271 0.894,2.210201 0.6036,0.704673 1.43636,1.212868 2.38435,1.593701 1.89598,0.761668 4.28638,1.029395 6.5257,1.029395 4.43384,0 7.77269,-0.67513 10.56059,-3.017904 1.46224,-1.228774 2.10373,-2.783078 2.1699,-3.970817 0.0331,-0.593869 -0.0151,-1.151834 -0.5023,-1.562178 -0.18274,-0.15388 -0.44573,-0.23975 -0.69711,-0.240813 z m -30.04933,0.494544 c 0.63144,0.725343 0.71972,3.189179 -0.78342,5.084444 -1.530234,1.929432 -4.546272,2.550232 -8.915214,2.550232 -4.368943,0 -7.49619,-0.643071 -10.135299,-2.860807 -0.07877,-0.0662 -0.146555,-0.131961 -0.220141,-0.197921 0.947255,1.431334 2.397962,2.352713 4.056599,2.904732 1.892018,0.629692 4.076318,0.816488 6.298841,0.816488 4.431614,0 7.683274,-0.594024 9.433534,-2.800863 0.85912,-1.083223 1.32168,-2.381265 1.33015,-3.502112 0.004,-0.560423 -0.10048,-1.100196 -0.44338,-1.536857 -0.15742,-0.200447 -0.37518,-0.354955 -0.62167,-0.457336 z"/><path style="font-variation-settings:normal;opacity:1;fill:#ffffff;fill-opacity:1;stroke:none;stroke-width:0.109676;stroke-linecap:butt;stroke-linejoin:miter;stroke-miterlimit:10;stroke-dasharray:none;stroke-dashoffset:0;stroke-opacity:1;stop-color:#000000;stop-opacity:1" d="m 106.65995,74.280437 c -1.1134,2.071045 0.0476,5.112674 1.68216,6.933815 1.63456,1.821141 3.2741,2.596912 4.27393,3.215855 -1.31265,-0.532753 -2.40009,-1.166199 -3.29313,-1.850233 -2.69513,-2.064367 -3.61956,-4.589476 -3.61956,-6.198076 0,-2.674627 1.41136,-4.684594 5.20635,-5.437321 0.69923,-0.09114 1.32665,-0.133945 1.88964,-0.138223 -3.07135,0.478066 -5.02599,1.403137 -6.13939,3.474183 z" id="path3534"/><path id="path9252" style="font-variation-settings:normal;opacity:1;fill:#ffffff;fill-opacity:1;stroke:none;stroke-width:0.109676;stroke-linecap:butt;stroke-linejoin:miter;stroke-miterlimit:10;stroke-dasharray:none;stroke-dashoffset:0;stroke-opacity:1;stop-color:#000000;stop-opacity:1" d="m 110.9099,70.944506 c -2.69852,-0.524011 -5.00851,-2.35729 -5.43016,-5.896281 0.36782,-0.04636 0.47263,0.309474 0.76897,1.437592 0.29633,1.128118 1.31892,3.067409 4.66119,4.458689 z"/><path style="font-variation-settings:normal;opacity:1;fill:#725e2a;fill-opacity:1;stroke:none;stroke-width:0.109676;stroke-linecap:butt;stroke-linejoin:miter;stroke-miterlimit:10;stroke-dasharray:none;stroke-dashoffset:0;stroke-opacity:1;stop-color:#000000;stop-opacity:1" d="m 100.04991,70.944477 c -0.705857,-0.092 -1.33854,-0.134753 -1.897522,-0.138278 0,0 1.451604,-0.400283 3.422452,0.105013 z" id="path12247"/><path id="path13982" style="font-variation-settings:normal;opacity:1;fill:#725e2a;fill-opacity:1;stroke:none;stroke-width:0.109676;stroke-linecap:butt;stroke-linejoin:miter;stroke-miterlimit:10;stroke-dasharray:none;stroke-dashoffset:0;stroke-opacity:1;stop-color:#000000;stop-opacity:1" d="m 130.69228,70.099596 c -0.28865,0.0017 -0.58258,0.02411 -0.88005,0.06976 2.68684,0.140301 5.16638,1.700607 5.82083,3.654041 0.15257,-0.03378 0.30944,-0.08302 0.46922,-0.150379 -0.52637,-1.823996 -2.74622,-3.588737 -5.41,-3.573425 z"/></g><path id="path24799" style="fill:#ffffff;stroke:none;stroke-width:0.132292;stop-color:#000000" d="m 33.946077,45.126006 c -0.878626,0 -1.586367,0.69976 -1.586367,1.56953 0,0.83916 0.65931,1.51888 1.494738,1.5658 -0.137571,-0.23274 -0.218165,-0.5033 -0.218165,-0.79349 0,-0.86978 0.707741,-1.57016 1.586367,-1.57016 h 64.399654 c 0.0309,0 0.0612,0.003 0.0917,0.004 -0.2748,-0.46466 -0.78284,-0.77605 -1.36819,-0.77605 z"/></svg>