<?xml version="1.0" encoding="UTF-8" standalone="no"?>
<!-- Created with Inkscape (http://www.inkscape.org/) -->

<svg
   width="500.00003"
   height="580"
   viewBox="0 0 132.29167 153.45834"
   version="1.1"
   id="svg5"
   xml:space="preserve"
   xmlns="http://www.w3.org/2000/svg"
   xmlns:svg="http://www.w3.org/2000/svg"><defs
     id="defs2"><style
       type="text/css"
       id="style3449">
   
    .str0 {stroke:#1F1A17;stroke-width:0.72}
    .fil0 {fill:#1F1A17}
    .fil2 {fill:#C0A062}
    .fil3 {fill:#C2C1C1}
    .fil1 {fill:white}
   
  </style><style
       type="text/css"
       id="style4456">
   
    .str0 {stroke:#1F1A17;stroke-width:0.72}
    .fil0 {fill:#1F1A17}
    .fil2 {fill:#C0A062}
    .fil3 {fill:#C2C1C1}
    .fil1 {fill:white}
   
  </style></defs><path
     id="path14460"
     style="opacity:1;fill:#000000;stroke:none;stroke-width:0.264583;stroke-linecap:square;stroke-miterlimit:100;stroke-dasharray:none;stop-color:#000000"
     d="m 83.56545,142.62849 7.91631,5.79965 c 23.95819,-9.94343 40.80991,-33.5601 40.80991,-61.115636 V 0 H 84.62378 Z" /><path
     id="path13415"
     style="opacity:1;fill:#e6e6e6;fill-opacity:1;stroke:none;stroke-width:0.264583;stroke-linecap:square;stroke-miterlimit:100;stroke-dasharray:none;stop-color:#000000"
     d="M 84.62378,0 H 0 v 87.312504 c 0,36.531246 29.61457,66.145826 66.14583,66.145826 8.97573,0 17.53197,-1.79129 25.33593,-5.03019 l -6.85798,-6.85798 8.84803,-8.84803 5.89887,5.89886 8.84855,-8.84855 -8.84855,-8.84804 -5.89887,5.89886 -8.84803,-8.84804 8.84803,-8.84804 5.89887,5.89835 8.84855,-8.84804 -8.84855,-8.848036 -5.89887,5.898866 -8.84803,-8.848036 8.84803,-8.84804 5.89887,5.89835 8.84855,-8.848039 -8.84855,-8.848038 -5.89887,5.898865 -8.84803,-8.848039 8.84803,-8.848555 5.89887,5.898864 8.84855,-8.848038 -8.84855,-8.848039 -5.89887,5.898865 -8.84803,-8.848556 8.84803,-8.848038 5.89887,5.898864 8.84855,-8.848038 -8.84855,-8.848039 -5.89887,5.898348 -8.84803,-8.848039 8.84803,-8.848038 5.89887,5.898864 8.84855,-8.848038 -8.84855,-8.848556 -5.89887,5.898865 z" /><path
     id="path13530"
     style="fill:#e90606;fill-opacity:1;stroke:none;stroke-width:0.264583;stroke-linecap:square;stroke-miterlimit:100;stop-color:#000000"
     d="M 37.28455,4.114995 V 18.404562 H 22.99498 l 5.19141,5.191931 -5.19141,5.191414 h 14.28957 v 14.289567 l 5.19193,-5.191414 5.19141,5.191414 V 28.787907 h 14.28957 l -5.19141,-5.191414 5.19141,-5.191931 H 47.66789 V 4.114995 l -5.19141,5.191414 z" /><path
     id="path13714"
     style="fill:#e90606;fill-opacity:1;stroke:none;stroke-width:0.264583;stroke-linecap:square;stroke-miterlimit:100;stop-color:#000000"
     d="M 37.28455,51.305395 V 65.594962 H 22.99498 l 5.19141,5.191931 -5.19141,5.191415 h 14.28957 v 14.289566 l 5.19193,-5.19141 5.19141,5.19141 V 75.978308 h 14.28957 l -5.19141,-5.191415 5.19141,-5.191931 H 47.66789 V 51.305395 l -5.19141,5.191415 z" /><path
     id="path13718"
     style="fill:#e90606;fill-opacity:1;stroke:none;stroke-width:0.264583;stroke-linecap:square;stroke-miterlimit:100;stop-color:#000000"
     d="M 37.28455,98.495284 V 112.78484 H 22.99498 l 5.19141,5.19193 -5.19141,5.19142 h 14.28957 v 14.28956 l 5.19193,-5.19141 5.19141,5.19141 v -14.28956 h 14.28957 l -5.19141,-5.19142 5.19141,-5.19193 H 47.66789 V 98.495284 l -5.19141,5.191406 z" /></svg>
