<?xml version="1.0" encoding="UTF-8" standalone="no"?>
<svg xmlns:dc="http://purl.org/dc/elements/1.1/" xmlns:cc="http://creativecommons.org/ns#" xmlns:rdf="http://www.w3.org/1999/02/22-rdf-syntax-ns#" xmlns:svg="http://www.w3.org/2000/svg" xmlns="http://www.w3.org/2000/svg" xmlns:xlink="http://www.w3.org/1999/xlink" xmlns:sodipodi="http://sodipodi.sourceforge.net/DTD/sodipodi-0.dtd" xmlns:inkscape="http://www.inkscape.org/namespaces/inkscape" sodipodi:docname="pedersöre.svg" inkscape:version="1.0 (4035a4fb49, 2020-05-01)" version="1.1" id="svg2" height="550" width="500">
  <defs id="defs4"/>
  <sodipodi:namedview inkscape:showpageshadow="false" inkscape:document-rotation="0" inkscape:window-maximized="1" inkscape:window-y="-8" inkscape:window-x="-8" inkscape:window-height="1017" inkscape:window-width="1920" showborder="true" showgrid="false" inkscape:current-layer="layer1" inkscape:document-units="px" inkscape:cy="274.29509" inkscape:cx="233.56472" inkscape:zoom="0.9899495" inkscape:pageshadow="2" inkscape:pageopacity="0" borderopacity="1.0" bordercolor="#666666" pagecolor="#f6f3f1" id="base"/>
  <metadata id="metadata7">
    <rdf:RDF>
      <cc:Work rdf:about="">
        <dc:format>image/svg+xml</dc:format>
        <dc:type rdf:resource="http://purl.org/dc/dcmitype/StillImage"/>
        <dc:title/>
      </cc:Work>
    </rdf:RDF>
  </metadata>
  <g transform="translate(-60,-140.93362)" id="layer1" inkscape:groupmode="layer" inkscape:label="Layer 1">
    <path sodipodi:nodetypes="cszscc" inkscape:connector-curvature="0" id="path2993" d="m 60,140.93362 c 0,0 10.986136,225.04199 21.972273,344.44215 C 92.95841,604.77591 188.91012,690.93364 310,690.93364 c 121.08988,0 217.04159,-86.15773 228.02772,-205.55787 C 549.01386,365.97561 560,140.93362 560,140.93362 Z" style="color:#000000;display:inline;overflow:visible;visibility:visible;fill:#df0000;fill-opacity:1;stroke:none;stroke-width:1;stroke-linecap:butt;stroke-linejoin:miter;stroke-miterlimit:4;stroke-dasharray:none;stroke-dashoffset:0;stroke-opacity:1;marker:none;enable-background:accumulate"/>
    <g style="stroke-width:1.36466" transform="matrix(0.7324091,0,0,0.73315876,16.055454,37.606898)" id="g903">
      <path id="path846" d="m 381.64286,307.89336 c 0,0 -24.32143,2.53572 -52.17857,24.5 v -77.03622 c 27.85714,21.96428 55.17857,22.5 55.17857,22.5 0,0 -0.53572,-27.32143 -22.5,-55.17857 h 77.03622 c -21.96428,27.85714 -22.5,55.17857 -22.5,55.17857 0,0 27.32143,-0.53572 55.17857,-22.5 v 77.03622 c -27.85714,-21.96428 -52.17857,-24.5 -52.17857,-24.5 l -19.01811,92.83837 z" style="font-variation-settings:normal;opacity:1;vector-effect:none;fill:#bf9f4f;fill-opacity:1;fill-rule:evenodd;stroke:none;stroke-width:5.45864;stroke-linecap:butt;stroke-linejoin:miter;stroke-miterlimit:4;stroke-dasharray:none;stroke-dashoffset:0;stroke-opacity:1;marker:none;marker-start:none;marker-mid:none;marker-end:none;stop-color:#000000;stop-opacity:1" sodipodi:nodetypes="cccccccccccc"/>
      <path id="path858" style="color:#000000;font-style:normal;font-variant:normal;font-weight:normal;font-stretch:normal;font-size:medium;line-height:normal;font-family:sans-serif;font-variant-ligatures:normal;font-variant-position:normal;font-variant-caps:normal;font-variant-numeric:normal;font-variant-alternates:normal;font-variant-east-asian:normal;font-feature-settings:normal;font-variation-settings:normal;text-indent:0;text-align:start;text-decoration:none;text-decoration-line:none;text-decoration-style:solid;text-decoration-color:#000000;letter-spacing:normal;word-spacing:normal;text-transform:none;writing-mode:lr-tb;direction:ltr;text-orientation:mixed;dominant-baseline:auto;baseline-shift:baseline;text-anchor:start;white-space:normal;shape-padding:0;shape-margin:0;inline-size:0;clip-rule:nonzero;display:inline;overflow:visible;visibility:visible;opacity:1;isolation:auto;mix-blend-mode:normal;color-interpolation:sRGB;color-interpolation-filters:linearRGB;solid-color:#000000;solid-opacity:1;vector-effect:none;fill:#382b0b;fill-opacity:1;fill-rule:evenodd;stroke:none;stroke-width:5.45864;stroke-linecap:butt;stroke-linejoin:miter;stroke-miterlimit:4;stroke-dasharray:none;stroke-dashoffset:0;stroke-opacity:1;marker:none;color-rendering:auto;image-rendering:auto;shape-rendering:auto;text-rendering:auto;enable-background:accumulate;stop-color:#000000;stop-opacity:1" d="m 443.30273,220.67773 -7.96289,4 c -19.91687,27.19559 -20.66015,53.14063 -20.66015,53.14063 l -0.041,2.08008 4.24219,-4.24414 c 0.37542,-5.371 2.92661,-27.71361 21.86914,-51.73828 z m 30.55469,30.55469 -4,7.96485 v 69.30078 c -26.8663,-19.95774 -49.9707,-22.59375 -49.9707,-22.59375 l -1.82813,-0.19141 -17.39843,84.31055 v 21.68945 l 20.61718,-101.51562 c 4.39949,0.65059 24.87389,4.47557 49.3418,23.76757 l 3.23828,2.55274 z m -90.59375,54.48047 -1.82812,0.19141 c 0,0 -23.1044,2.63601 -49.97071,22.59375 l -4,8.01953 3.23828,-2.55274 c 24.46984,-19.29352 44.94465,-23.11941 49.3418,-23.76953 z"/>
      <path id="path870" style="color:#000000;font-style:normal;font-variant:normal;font-weight:normal;font-stretch:normal;font-size:medium;line-height:normal;font-family:sans-serif;font-variant-ligatures:normal;font-variant-position:normal;font-variant-caps:normal;font-variant-numeric:normal;font-variant-alternates:normal;font-variant-east-asian:normal;font-feature-settings:normal;font-variation-settings:normal;text-indent:0;text-align:start;text-decoration:none;text-decoration-line:none;text-decoration-style:solid;text-decoration-color:#000000;letter-spacing:normal;word-spacing:normal;text-transform:none;writing-mode:lr-tb;direction:ltr;text-orientation:mixed;dominant-baseline:auto;baseline-shift:baseline;text-anchor:start;white-space:normal;shape-padding:0;shape-margin:0;inline-size:0;clip-rule:nonzero;display:inline;overflow:visible;visibility:visible;opacity:1;isolation:auto;mix-blend-mode:normal;color-interpolation:sRGB;color-interpolation-filters:linearRGB;solid-color:#000000;solid-opacity:1;vector-effect:none;fill:#ffffff;fill-opacity:1;fill-rule:evenodd;stroke:none;stroke-width:5.45864;stroke-linecap:butt;stroke-linejoin:miter;stroke-miterlimit:4;stroke-dasharray:none;stroke-dashoffset:0;stroke-opacity:1;marker:none;color-rendering:auto;image-rendering:auto;shape-rendering:auto;text-rendering:auto;enable-background:accumulate;stop-color:#000000;stop-opacity:1" d="m 358.01953,220.67773 2.55274,3.23829 c 18.94252,24.02467 21.49176,46.36728 21.86718,51.73828 -5.3728,-0.37567 -27.71305,-2.92578 -51.73633,-21.86719 l -3.23828,-2.55469 v 85.28516 l 4,-8.01953 v -69.30078 c 27.19559,19.91687 53.13868,20.66015 53.13868,20.66015 l 2.08007,0.041 -0.041,-2.08008 c 0,0 -0.74328,-25.94504 -20.66016,-53.14063 h 69.35742 l 7.96289,-4 z m 115.83789,30.55469 -3.23828,2.55469 c -24.02615,18.94369 -46.36918,21.49203 -51.73828,21.86719 l -4.24219,4.24414 2.08008,-0.041 c 0,0 25.94309,-0.74328 53.13867,-20.66015 z m -90.59375,54.48047 -3.21875,4.48242 20.61524,101.51758 v -21.68945 z"/>
    </g>
    <use style="stroke-width:1.36466" height="100%" width="100%" transform="translate(-163.2226,177.52917)" id="use905" xlink:href="#g903" y="0" x="0"/>
    <use style="stroke-width:1.36466" x="0" y="0" xlink:href="#g903" id="use909" transform="translate(164.21596,177.52917)" width="100%" height="100%"/>
    <g style="stroke-width:1.36466" transform="matrix(0.7324091,0,0,0.73315876,16.193798,37.606898)" id="g1141">
      <path style="font-variation-settings:normal;opacity:1;vector-effect:none;fill:#bf9f4f;fill-opacity:1;fill-rule:evenodd;stroke:none;stroke-width:1.36466;stroke-linecap:butt;stroke-linejoin:miter;stroke-miterlimit:4;stroke-dasharray:none;stroke-dashoffset:0;stroke-opacity:1;marker:none;marker-start:none;marker-mid:none;marker-end:none;stop-color:#000000;stop-opacity:1" d="m 533.53606,166.17009 c 0,0 -60.50305,243.1875 -71.02636,283.34779 -10.52331,40.16029 -45.1309,46.71187 -61.17041,77.14669 -16.03952,-30.43482 -50.64711,-36.9864 -61.17042,-77.14669 -10.52331,-40.16029 -71.40516,-283.34779 -71.40516,-283.34779 h -13.39286 c 0,0 83.07457,331.14691 93.59788,371.3072 10.52331,40.16029 43.70759,39.72528 52.37056,66.4101 8.66296,-26.68482 41.84724,-26.24981 52.37055,-66.4101 10.52331,-40.16029 93.21908,-371.3072 93.21908,-371.3072 z" id="path971" sodipodi:nodetypes="czczcczczcc"/>
      <path id="path1064" style="color:#000000;font-style:normal;font-variant:normal;font-weight:normal;font-stretch:normal;font-size:medium;line-height:normal;font-family:sans-serif;font-variant-ligatures:normal;font-variant-position:normal;font-variant-caps:normal;font-variant-numeric:normal;font-variant-alternates:normal;font-variant-east-asian:normal;font-feature-settings:normal;font-variation-settings:normal;text-indent:0;text-align:start;text-decoration:none;text-decoration-line:none;text-decoration-style:solid;text-decoration-color:#000000;letter-spacing:normal;word-spacing:normal;text-transform:none;writing-mode:lr-tb;direction:ltr;text-orientation:mixed;dominant-baseline:auto;baseline-shift:baseline;text-anchor:start;white-space:normal;shape-padding:0;shape-margin:0;inline-size:0;clip-rule:nonzero;display:inline;overflow:visible;visibility:visible;opacity:1;isolation:auto;mix-blend-mode:normal;color-interpolation:sRGB;color-interpolation-filters:linearRGB;solid-color:#000000;solid-opacity:1;vector-effect:none;fill:#ffffff;fill-opacity:1;fill-rule:evenodd;stroke:none;stroke-width:5.45864;stroke-linecap:butt;stroke-linejoin:miter;stroke-miterlimit:4;stroke-dasharray:none;stroke-dashoffset:0;stroke-opacity:1;marker:none;color-rendering:auto;image-rendering:auto;shape-rendering:auto;text-rendering:auto;enable-background:accumulate;stop-color:#000000;stop-opacity:1" d="m 253.42969,166.16992 c 0,0 83.0496,331.53735 93.60351,371.81446 5.39277,20.58049 16.81012,31.01719 27.59766,39.33593 10.78754,8.31875 20.70772,14.55953 24.80664,27.18555 l 1.90234,5.85937 V 598.56055 C 396.05452,587.57086 386.41309,581.35547 377.07227,574.15234 366.4711,565.97732 356.03484,556.5505 350.9043,536.9707 340.41159,496.9272 257.31055,166.16992 257.31055,166.16992 Z m 278.16601,0 c 0,0 -60.52204,242.77259 -71.02148,282.8418 -5.13215,19.58592 -16.01069,30.83397 -27.89649,41.2207 -11.09134,9.69249 -23.06151,18.61431 -31.33789,32.50391 v 8.21875 l 1.76954,-3.35742 c 7.77073,-14.74492 20.14051,-23.81568 32.19921,-34.35352 12.05871,-10.53783 23.74556,-22.64438 29.13672,-43.21875 10.54718,-40.25137 71.03125,-283.85547 71.03125,-283.85547 z"/>
      <path id="path1077" style="color:#000000;font-style:normal;font-variant:normal;font-weight:normal;font-stretch:normal;font-size:medium;line-height:normal;font-family:sans-serif;font-variant-ligatures:normal;font-variant-position:normal;font-variant-caps:normal;font-variant-numeric:normal;font-variant-alternates:normal;font-variant-east-asian:normal;font-feature-settings:normal;font-variation-settings:normal;text-indent:0;text-align:start;text-decoration:none;text-decoration-line:none;text-decoration-style:solid;text-decoration-color:#000000;letter-spacing:normal;word-spacing:normal;text-transform:none;writing-mode:lr-tb;direction:ltr;text-orientation:mixed;dominant-baseline:auto;baseline-shift:baseline;text-anchor:start;white-space:normal;shape-padding:0;shape-margin:0;inline-size:0;clip-rule:nonzero;display:inline;overflow:visible;visibility:visible;opacity:1;isolation:auto;mix-blend-mode:normal;color-interpolation:sRGB;color-interpolation-filters:linearRGB;solid-color:#000000;solid-opacity:1;vector-effect:none;fill:#382b0b;fill-opacity:1;fill-rule:evenodd;stroke:none;stroke-width:5.45864;stroke-linecap:butt;stroke-linejoin:miter;stroke-miterlimit:4;stroke-dasharray:none;stroke-dashoffset:0;stroke-opacity:1;marker:none;color-rendering:auto;image-rendering:auto;shape-rendering:auto;text-rendering:auto;enable-background:accumulate;stop-color:#000000;stop-opacity:1" d="m 266.82227,166.16992 c 0,0 60.86491,243.6041 71.41211,283.85547 5.39114,20.57437 17.07605,32.68092 29.13476,43.21875 12.05871,10.53784 24.43042,19.6086 32.20117,34.35352 l 1.76953,3.35742 v -8.21875 c -8.27639,-13.88986 -20.24642,-22.81132 -31.33789,-32.50391 -11.88579,-10.38673 -22.76628,-21.63478 -27.89843,-41.2207 -10.49945,-40.06921 -71.39844,-282.8418 -71.39844,-282.8418 z m 278.16601,0 c 0,0 -82.72018,330.75728 -93.21289,370.80078 -5.13055,19.5798 -15.56875,29.00662 -26.16992,37.18164 -9.34083,7.20313 -18.98031,13.41852 -24.26563,24.40821 v 11.80468 l 1.90235,-5.85937 c 4.09891,-12.62602 14.0191,-18.8668 24.80664,-27.18555 10.78754,-8.31874 22.20294,-18.75547 27.5957,-39.33593 10.55391,-40.27709 93.22461,-371.81446 93.22461,-371.81446 z"/>
      <path sodipodi:nodetypes="czczcczczcc" id="path1003" d="m 572.1075,166.17009 c 0,0 -78.76392,314.47321 -91.3835,362.6335 -12.61958,48.16029 -61.82996,59.44285 -79.38471,99.72666 -17.55475,-40.28381 -66.76513,-51.56637 -79.38471,-99.72666 -12.61958,-48.16029 -91.7623,-362.6335 -91.7623,-362.6335 h -13.39286 c 0,0 104.28777,415.99972 114.81108,456.16001 10.52331,40.16029 61.06582,55.0614 69.72879,81.74622 8.66297,-26.68482 59.20548,-41.58593 69.72879,-81.74622 10.52331,-40.16029 114.43228,-456.16001 114.43228,-456.16001 z" style="font-variation-settings:normal;opacity:1;vector-effect:none;fill:#bf9f4f;fill-opacity:1;fill-rule:evenodd;stroke:none;stroke-width:1.36466;stroke-linecap:butt;stroke-linejoin:miter;stroke-miterlimit:4;stroke-dasharray:none;stroke-dashoffset:0;stroke-opacity:1;marker:none;marker-start:none;marker-mid:none;marker-end:none;stop-color:#000000;stop-opacity:1"/>
      <path sodipodi:nodetypes="czczcczcccczcc" id="path1040" d="m 614.96464,166.17009 c 0,0 -99.12106,381.97321 -118.16921,448.34779 -19.04815,66.37457 -80.60203,69.4793 -95.45614,124.91558 C 386.48518,683.99718 324.9313,680.89245 305.88315,614.51788 286.835,548.1433 187.33514,166.17009 187.33514,166.17009 h -13.39286 c 0,0 135.3592,532.78543 145.88251,572.94572 10.52331,40.16029 39.04519,68.88908 71.87164,75.31765 v 47.70939 h 19.28572 V 814.43346 C 443.8086,808.00489 472.33048,779.2761 482.85379,739.11581 493.3771,698.95552 628.3575,166.17009 628.3575,166.17009 Z" style="font-variation-settings:normal;opacity:1;vector-effect:none;fill:#bf9f4f;fill-opacity:1;fill-rule:evenodd;stroke:none;stroke-width:1.36466;stroke-linecap:butt;stroke-linejoin:miter;stroke-miterlimit:4;stroke-dasharray:none;stroke-dashoffset:0;stroke-opacity:1;marker:none;marker-start:none;marker-mid:none;marker-end:none;stop-color:#000000;stop-opacity:1"/>
      <path id="path1044" style="color:#000000;font-style:normal;font-variant:normal;font-weight:normal;font-stretch:normal;font-size:medium;line-height:normal;font-family:sans-serif;font-variant-ligatures:normal;font-variant-position:normal;font-variant-caps:normal;font-variant-numeric:normal;font-variant-alternates:normal;font-variant-east-asian:normal;font-feature-settings:normal;font-variation-settings:normal;text-indent:0;text-align:start;text-decoration:none;text-decoration-line:none;text-decoration-style:solid;text-decoration-color:#000000;letter-spacing:normal;word-spacing:normal;text-transform:none;writing-mode:lr-tb;direction:ltr;text-orientation:mixed;dominant-baseline:auto;baseline-shift:baseline;text-anchor:start;white-space:normal;shape-padding:0;shape-margin:0;inline-size:0;clip-rule:nonzero;display:inline;overflow:visible;visibility:visible;opacity:1;isolation:auto;mix-blend-mode:normal;color-interpolation:sRGB;color-interpolation-filters:linearRGB;solid-color:#000000;solid-opacity:1;vector-effect:none;fill:#ffffff;fill-opacity:1;fill-rule:evenodd;stroke:none;stroke-width:5.45864;stroke-linecap:butt;stroke-linejoin:miter;stroke-miterlimit:4;stroke-dasharray:none;stroke-dashoffset:0;stroke-opacity:1;marker:none;color-rendering:auto;image-rendering:auto;shape-rendering:auto;text-rendering:auto;enable-background:accumulate;stop-color:#000000;stop-opacity:1" d="m 214.85938,166.16992 c 0,0 104.25445,416.36021 114.8164,456.66797 5.44529,20.78094 21.14732,34.84705 36.24414,46.97852 15.09682,12.13146 29.50506,22.51704 33.51758,34.87695 l 1.90234,5.85937 V 699 c -6.05978,-12.09603 -19.54793,-21.56201 -32.91406,-32.30273 -14.971,-12.03037 -29.80283,-25.49565 -34.88086,-44.875 C 323.06025,581.80945 218.74023,166.16992 218.74023,166.16992 Z m 355.30859,0 c 0,0 -78.78198,314.05307 -91.37891,362.12696 -6.15792,23.50057 -21.19308,37.98151 -37.21289,51.81054 -15.03876,12.98216 -30.877,25.39419 -40.23633,43.98633 v 9.44336 l 1.83204,-4.20703 c 8.53127,-19.57716 24.8886,-32.27204 41.01757,-46.19531 16.12897,-13.92327 32.0071,-29.1645 38.46875,-53.82422 12.64223,-48.24673 91.38868,-363.14063 91.38868,-363.14063 z"/>
      <path id="path1082" style="color:#000000;font-style:normal;font-variant:normal;font-weight:normal;font-stretch:normal;font-size:medium;line-height:normal;font-family:sans-serif;font-variant-ligatures:normal;font-variant-position:normal;font-variant-caps:normal;font-variant-numeric:normal;font-variant-alternates:normal;font-variant-east-asian:normal;font-feature-settings:normal;font-variation-settings:normal;text-indent:0;text-align:start;text-decoration:none;text-decoration-line:none;text-decoration-style:solid;text-decoration-color:#000000;letter-spacing:normal;word-spacing:normal;text-transform:none;writing-mode:lr-tb;direction:ltr;text-orientation:mixed;dominant-baseline:auto;baseline-shift:baseline;text-anchor:start;white-space:normal;shape-padding:0;shape-margin:0;inline-size:0;clip-rule:nonzero;display:inline;overflow:visible;visibility:visible;opacity:1;isolation:auto;mix-blend-mode:normal;color-interpolation:sRGB;color-interpolation-filters:linearRGB;solid-color:#000000;solid-opacity:1;vector-effect:none;fill:#382b0b;fill-opacity:1;fill-rule:evenodd;stroke:none;stroke-width:5.45864;stroke-linecap:butt;stroke-linejoin:miter;stroke-miterlimit:4;stroke-dasharray:none;stroke-dashoffset:0;stroke-opacity:1;marker:none;color-rendering:auto;image-rendering:auto;shape-rendering:auto;text-rendering:auto;enable-background:accumulate;stop-color:#000000;stop-opacity:1" d="m 228.25195,166.16992 c 0,0 79.12535,314.8939 91.76758,363.14063 6.46166,24.65972 22.34174,39.90095 38.4707,53.82422 16.12897,13.92327 32.48436,26.61815 41.01563,46.19531 l 1.83398,4.20703 v -9.44336 c -9.35929,-18.59237 -25.19745,-31.00408 -40.23632,-43.98633 -16.01981,-13.82903 -31.05693,-28.31 -37.21485,-51.81054 -12.59693,-48.07387 -91.75586,-362.12696 -91.75586,-362.12696 z m 355.3086,0 c 0,0 -103.94307,415.63953 -114.42774,455.65235 -5.07802,19.37935 -19.9079,32.84463 -34.8789,44.875 C 420.88799,677.43781 407.39978,686.90425 401.33984,699 v 11.55273 l 1.90235,-5.85937 c 4.01252,-12.35991 18.42075,-22.74549 33.51758,-34.87695 15.09682,-12.13147 30.7969,-26.19758 36.24218,-46.97852 10.56196,-40.30776 114.43946,-456.66797 114.43946,-456.66797 z"/>
      <path id="path1056" style="color:#000000;font-style:normal;font-variant:normal;font-weight:normal;font-stretch:normal;font-size:medium;line-height:normal;font-family:sans-serif;font-variant-ligatures:normal;font-variant-position:normal;font-variant-caps:normal;font-variant-numeric:normal;font-variant-alternates:normal;font-variant-east-asian:normal;font-feature-settings:normal;font-variation-settings:normal;text-indent:0;text-align:start;text-decoration:none;text-decoration-line:none;text-decoration-style:solid;text-decoration-color:#000000;letter-spacing:normal;word-spacing:normal;text-transform:none;writing-mode:lr-tb;direction:ltr;text-orientation:mixed;dominant-baseline:auto;baseline-shift:baseline;text-anchor:start;white-space:normal;shape-padding:0;shape-margin:0;inline-size:0;clip-rule:nonzero;display:inline;overflow:visible;visibility:visible;opacity:1;isolation:auto;mix-blend-mode:normal;color-interpolation:sRGB;color-interpolation-filters:linearRGB;solid-color:#000000;solid-opacity:1;vector-effect:none;fill:#ffffff;fill-opacity:1;fill-rule:evenodd;stroke:none;stroke-width:5.45864;stroke-linecap:butt;stroke-linejoin:miter;stroke-miterlimit:4;stroke-dasharray:none;stroke-dashoffset:0;stroke-opacity:1;marker:none;color-rendering:auto;image-rendering:auto;shape-rendering:auto;text-rendering:auto;enable-background:accumulate;stop-color:#000000;stop-opacity:1" d="m 172.00391,166.16992 c 0,0 135.32848,533.15948 145.88671,573.45313 10.5164,40.13383 38.78753,69.17116 71.80665,76.38672 v 48.13281 l 4,-4 v -47.35547 l -1.61719,-0.31641 C 360.14206,806.21612 332.11775,778.13873 321.75977,738.60938 311.2714,698.58244 175.88086,166.16992 175.88086,166.16992 Z m 441.02539,0 c 0,0 -99.16088,381.60619 -118.15625,447.79688 -9.36879,32.64619 -29.04605,49.58224 -48.64258,65.56054 -18.20118,14.84059 -36.2955,29.00973 -44.89063,53.66797 v 13.96485 l 1.93164,-7.20899 c 7.25072,-27.06004 25.83036,-41.29744 45.48633,-57.32422 19.65598,-16.02677 40.28158,-33.82826 49.96094,-67.55664 19.10092,-66.55847 118.18164,-448.90039 118.18164,-448.90039 z"/>
      <path id="path1087" style="color:#000000;font-style:normal;font-variant:normal;font-weight:normal;font-stretch:normal;font-size:medium;line-height:normal;font-family:sans-serif;font-variant-ligatures:normal;font-variant-position:normal;font-variant-caps:normal;font-variant-numeric:normal;font-variant-alternates:normal;font-variant-east-asian:normal;font-feature-settings:normal;font-variation-settings:normal;text-indent:0;text-align:start;text-decoration:none;text-decoration-line:none;text-decoration-style:solid;text-decoration-color:#000000;letter-spacing:normal;word-spacing:normal;text-transform:none;writing-mode:lr-tb;direction:ltr;text-orientation:mixed;dominant-baseline:auto;baseline-shift:baseline;text-anchor:start;white-space:normal;shape-padding:0;shape-margin:0;inline-size:0;clip-rule:nonzero;display:inline;overflow:visible;visibility:visible;opacity:1;isolation:auto;mix-blend-mode:normal;color-interpolation:sRGB;color-interpolation-filters:linearRGB;solid-color:#000000;solid-opacity:1;vector-effect:none;fill:#382b0b;fill-opacity:1;fill-rule:evenodd;stroke:none;stroke-width:5.45864;stroke-linecap:butt;stroke-linejoin:miter;stroke-miterlimit:4;stroke-dasharray:none;stroke-dashoffset:0;stroke-opacity:1;marker:none;color-rendering:auto;image-rendering:auto;shape-rendering:auto;text-rendering:auto;enable-background:accumulate;stop-color:#000000;stop-opacity:1" d="m 185.40039,166.16992 c 0,0 99.27016,382.34192 118.37109,448.90039 9.67936,33.72838 30.49247,51.52987 50.14844,67.55664 19.65598,16.02678 38.23757,30.26418 45.48828,57.32422 l 1.93164,7.20899 V 733.19531 C 392.74471,708.53707 374.64845,694.36793 356.44727,679.52734 336.85074,663.54904 316.98402,646.61299 307.61523,613.9668 288.61985,547.77611 189.27148,166.16992 189.27148,166.16992 Z m 441.01758,0 c 0,0 -135.00968,532.41251 -145.49805,572.43946 -10.35799,39.52935 -38.38424,67.60674 -70.32226,73.86132 l -1.61524,0.31641 v 47.35547 h -15.28515 l -4,4 h 23.28515 v -48.13281 c 33.01892,-7.21573 61.29032,-36.25308 71.80664,-76.38672 10.55826,-40.29365 145.5078,-573.45313 145.50782,-573.45313 z"/>
    </g>
  </g>
</svg>