<?xml version="1.0" encoding="UTF-8" standalone="no"?>
<svg
   xmlns:dc="http://purl.org/dc/elements/1.1/"
   xmlns:cc="http://creativecommons.org/ns#"
   xmlns:rdf="http://www.w3.org/1999/02/22-rdf-syntax-ns#"
   xmlns:svg="http://www.w3.org/2000/svg"
   xmlns="http://www.w3.org/2000/svg"
   width="500.00003"
   height="570"
   viewBox="0 0 132.29167 150.8125"
   version="1.1"
   id="svg847">
  <defs
     id="defs841" />
  <metadata
     id="metadata844">
    <rdf:RDF>
      <cc:Work
         rdf:about="">
        <dc:format>image/svg+xml</dc:format>
        <dc:type
           rdf:resource="http://purl.org/dc/dcmitype/StillImage" />
        <dc:title></dc:title>
      </cc:Work>
    </rdf:RDF>
  </metadata>
  <g
     id="layer1"
     transform="translate(-40.616199,-51.487743)">
    <g
       id="g1707"
       transform="matrix(0.97186032,0,0,0.97230033,1.1429261,1.4261936)"
       style="stroke-width:1.02871">
      <path
         id="path844"
         style="opacity:1;fill:#cccccc;fill-opacity:1;stroke:none;stroke-width:0.816548;stroke-linejoin:round;stroke-miterlimit:4;stroke-dasharray:none;stroke-opacity:1;paint-order:fill markers stroke"
         d="m 40.6162,51.487743 0.79375,87.841667 c 0.35239,38.99825 30.1166,67.2673 67.2673,67.2673 37.1507,0 66.91491,-28.26905 67.2673,-67.2673 0.35239,-38.99825 0.79375,-87.841667 0.79375,-87.841667 z" />
      <path
         id="path863"
         style="font-variation-settings:normal;opacity:1;vector-effect:none;fill:#005dbd;fill-opacity:1;stroke:none;stroke-width:0.514361;stroke-linecap:butt;stroke-linejoin:miter;stroke-miterlimit:4;stroke-dasharray:none;stroke-dashoffset:0;stroke-opacity:1;stop-color:#000000;stop-opacity:1"
         d="m 306.91211,263.69727 v 117.67382 c 13.87664,-10.09212 36.02245,-21.98159 65.16601,-28.83789 l 38.66993,120.09927 38.67187,-120.09927 c 29.1429,6.85635 51.28959,18.74592 65.16602,28.83789 V 263.69727 c -15.5695,11.32327 -41.52566,24.92865 -76.125,31.125 6.19634,-34.59937 19.80172,-60.55549 31.125,-76.125 H 351.91211 c 11.32328,15.56951 24.92668,41.52563 31.12305,76.125 -34.59935,-6.19635 -60.55356,-19.80173 -76.12305,-31.125 z"
         transform="scale(0.26458333)" />
      <path
         id="path1610"
         style="opacity:1;fill:#005dbd;fill-opacity:1;stroke:none;stroke-width:3.08616;stroke-linejoin:round;stroke-miterlimit:4;stroke-dasharray:none;paint-order:fill markers stroke"
         d="m 650.39258,599.29297 c 0,-41.07776 -33.2992,-74.37891 -74.37696,-74.37891 -25.75816,0 -48.45379,13.09763 -61.80273,32.99219 C 500.32002,513.99706 459.2543,482.16797 410.75,482.16797 c -48.50429,0 -89.57197,31.82909 -103.46484,75.73828 -13.34893,-19.89459 -36.04453,-32.99219 -61.80274,-32.99219 -41.07776,0 -74.37889,33.30115 -74.3789,74.37891 -1e-5,8.58771 0.32971,14.74966 5.07128,26.88183 4.74158,12.13218 11.68607,25.48698 18.25098,36.18653 h 432.64453 c 6.56495,-10.69958 13.50937,-24.05435 18.25098,-36.18653 4.74161,-12.13217 5.07129,-18.29408 5.07129,-26.88183 z"
         transform="scale(0.26458333)" />
    </g>
  </g>
</svg>
