<?xml version="1.0" encoding="UTF-8" standalone="no"?>
<svg
   xmlns:dc="http://purl.org/dc/elements/1.1/"
   xmlns:cc="http://creativecommons.org/ns#"
   xmlns:rdf="http://www.w3.org/1999/02/22-rdf-syntax-ns#"
   xmlns:svg="http://www.w3.org/2000/svg"
   xmlns="http://www.w3.org/2000/svg"
   width="500"
   height="580"
   viewBox="0 0 132.29166 153.45834"
   version="1.1"
   id="svg847">
  <defs
     id="defs841" />
  <metadata
     id="metadata844">
    <rdf:RDF>
      <cc:Work
         rdf:about="">
        <dc:format>image/svg+xml</dc:format>
        <dc:type
           rdf:resource="http://purl.org/dc/dcmitype/StillImage" />
        <dc:title></dc:title>
      </cc:Work>
    </rdf:RDF>
  </metadata>
  <path
     id="path963"
     style="opacity:1;fill:#cccccc;fill-opacity:1;fill-rule:evenodd;stroke:none;stroke-width:0.132292;stroke-linejoin:round;stroke-miterlimit:5;stroke-dasharray:none;stroke-dashoffset:0"
     d="m 0,0 v 87.312499 c 0,8.117452 1.465272,15.891941 4.1406812,23.077331 0,0 7.0170178,9.00893 62.0051538,9.00893 54.988135,0 62.005155,-9.00893 62.005155,-9.00893 2.67541,-7.18539 4.14068,-14.959879 4.14068,-23.077331 V 0 Z" />
  <path
     id="path989"
     style="opacity:1;fill:#e90c0c;fill-opacity:1;fill-rule:evenodd;stroke:none;stroke-width:0.132292;stroke-linejoin:round;stroke-miterlimit:5;stroke-dasharray:none;stroke-dashoffset:0"
     d="m 125.65375,109.96072 c 0.91178,0 1.73251,0.1641 2.49724,0.42911 -9.36487,25.15135 -33.591247,43.0685 -62.005157,43.0685 -28.413905,0 -52.640287,-17.91715 -62.0051517,-43.0685 0.7647194,-0.26501 1.5854548,-0.42911 2.4972371,-0.42911 4.8083506,0 7.0933426,4.54711 11.9016936,4.54711 4.808362,0 7.093333,-4.54711 11.901694,-4.54711 4.808357,0 7.092781,4.54711 11.901139,4.54711 4.808359,0 7.093336,-4.54711 11.901693,-4.54711 4.808361,0 7.093337,4.54711 11.901695,4.54711 4.808359,0 7.093337,-4.54711 11.901693,-4.54711 4.80836,0 7.093337,4.54711 11.901694,4.54711 4.808358,0 7.092782,-4.54711 11.90114,-4.54711 4.80836,0 7.09333,4.54711 11.9017,4.54711 4.80836,0 7.09333,-4.54711 11.90169,-4.54711 z" />
  <g
     id="g998"
     transform="matrix(1.0700731,0,0,1.0700731,-2.6454352,-5.6487809)"
     style="stroke-width:0.934516">
    <path
       id="path1015"
       style="opacity:1;fill:#000000;fill-opacity:1;fill-rule:evenodd;stroke:none;stroke-width:0.467259;stroke-linejoin:miter;stroke-miterlimit:5;stroke-dasharray:none;stroke-dashoffset:0"
       d="m 235.89258,72.322266 c 0,0 0.046,15.515641 -0.4707,18.794922 -0.50201,3.186122 -10.40067,2.823102 -15.75782,-1.730469 C 214.30692,84.833148 213.125,76.072266 213.125,76.072266 l -9.91016,0.535156 c 0,0 2.93988,11.355254 9.64258,18.214844 6.12822,6.271664 17.20508,9.160154 17.20508,9.160154 -0.13393,10.85937 -0.75781,20.26563 -0.75781,20.26563 0,0 -8.71215,2.46314 -20.83399,3.41015 -12.12183,0.94702 -25.62287,0.73646 -31.4414,-3.78906 -5.81853,-4.52552 -10.41797,-15.9082 -10.41797,-15.9082 l -13.25781,-0.18946 c 3.5481,7.8132 6.1729,12.38121 10.41796,20.45508 -6.81852,3.97748 -16.34207,1.68338 -23.86523,-4.16797 -7.52316,-5.85135 -10.98633,-11.93164 -10.98633,-11.93164 l -9.08984,3.41016 c 0,0 5.75626,9.20457 13.44726,15.71875 7.90198,6.69286 15.36534,8.63978 24.05469,9.0918 9.03839,0.47017 14.58399,-3.21875 14.58399,-3.21875 7.97224,2.43324 14.84453,3.20782 24.81054,3.97656 9.96602,0.76874 26.01172,0.12695 26.01172,0.12695 0,4.73509 -0.3789,17.99219 -0.3789,17.99219 2.73467,-0.62347 5.45205,-1.11378 7.93164,-1.60156 l 3.8125,-10.51953 c 0,0 4.86482,-0.51075 8.85156,-0.51368 h 0.0351 c 3.98675,0.003 8.85157,0.51368 8.85157,0.51368 l 3.8125,10.51953 c 2.47958,0.48778 5.19696,0.97809 7.93164,1.60156 0,0 -0.37891,-13.2571 -0.37891,-17.99219 0,0 16.0457,0.64179 26.01172,-0.12695 9.96602,-0.76874 16.8383,-1.54332 24.81055,-3.97656 0,0 5.54559,3.68892 14.58398,3.21875 8.68935,-0.45202 16.15272,-2.39894 24.05469,-9.0918 7.691,-6.51418 13.44726,-15.71875 13.44726,-15.71875 l -9.08984,-3.41016 c 0,0 -3.46317,6.08029 -10.98633,11.93164 -7.52316,5.85135 -17.0467,8.14545 -23.86523,4.16797 4.24506,-8.07387 6.86986,-12.64188 10.41797,-20.45508 l -13.25782,0.18946 c 0,0 -4.59943,11.38268 -10.41796,15.9082 -5.81854,4.52552 -19.31958,4.73608 -31.44141,3.78906 -12.12183,-0.94701 -20.83399,-3.41015 -20.83399,-3.41015 0,0 -0.62388,-9.40626 -0.75781,-20.26563 0,0 11.07686,-2.88849 17.20508,-9.160154 6.7027,-6.85959 9.64258,-18.214844 9.64258,-18.214844 l -9.91016,-0.535156 c 0,0 -1.18192,8.760882 -6.53906,13.314453 -5.35714,4.553571 -15.25581,4.916591 -15.75781,1.730469 -0.51668,-3.279281 -0.47071,-18.794922 -0.47071,-18.794922 l -7.08007,2.568359 z M 117.17773,195.40234 c 0,0 -0.75761,5.68113 0,11.17383 0.75762,5.49271 1.51563,8.71289 1.51563,8.71289 -3.40926,0 -9.85026,-0.94805 -12.3125,-3.97851 -2.46225,-3.03046 -3.4082,-9.08985 -3.4082,-9.08985 l -7.324222,3.84961 c 2.083441,4.16688 3.427842,8.76707 7.765622,13.25977 4.33779,4.4927 10.79572,4.92393 13.82617,5.30273 3.03046,0.37881 5.11408,0.56785 8.14454,6.06055 3.03045,5.4927 4.72543,13.13213 8.14453,15.91016 3.03046,2.46224 14.58376,7.0079 21.21289,7.38671 6.62912,0.37883 13.07031,-0.18945 13.07031,-0.18945 -2.08344,4.54569 -2.46289,9.0918 -2.46289,9.0918 -4.35628,2.27284 -10.60752,6.25049 -10.98633,8.14453 -0.37881,1.89403 2.46283,5.68184 2.27344,6.43945 -0.18939,0.75762 -4.16602,2.65074 -4.16602,3.97656 0,1.32583 2.46094,6.81836 2.46094,6.81836 0,0 -2.15194,4.03205 -1.13672,6.0625 1.01523,2.03046 4.92588,5.30294 5.30469,6.06055 0.37882,0.75762 -0.56826,5.11343 -0.18945,5.68164 0.3788,0.56822 3.21875,2.65235 3.21875,2.65235 -0.1894,1.70463 -0.56787,5.49208 1.32617,5.11328 1.89404,-0.37879 3.97866,0.3788 4.54687,0 0.56822,-0.37881 1.32422,-4.92383 1.32422,-4.92383 3.97748,-4.9245 7.00791,-3.41055 7.38672,-4.92578 0.37881,-1.51523 -0.75781,-5.30274 -0.75781,-5.30274 1.70463,-3.21986 6.0625,-3.78755 6.0625,-5.49218 0,-1.70464 -1.70508,-5.49415 -1.70508,-5.49415 1.89404,-3.59866 4.92358,-4.54566 3.97656,-7.38671 -0.94701,-2.84106 -3.4082,-4.35547 -3.4082,-4.35547 2.08344,-4.35629 2.35638,-7.3957 0.37891,-8.90235 -1.97748,-1.50664 -7.38672,-4.86132 -7.38672,-4.86132 0.3788,-3.03046 2.02984,-9.00672 5.11328,-9.84766 3.08344,-0.84094 6.62975,-0.94855 9.84961,-5.87305 3.21986,-4.92449 4.73541,-7.00761 8.71289,-6.25 3.97747,0.75762 8.85231,2.45638 14.39453,2.65235 5.35628,0.18939 6.629,1.13665 7.00781,8.33398 0.37882,7.19734 -0.57122,20.42162 -0.72656,36.00586 -0.15318,15.37096 -1.60649,36.69836 -2.30469,44.88867 -0.67222,7.88566 -8.14259,11.79827 -19.50781,11.91211 -11.51661,0.11539 -19.84566,1.43194 -29.35742,7.00781 -10.06325,5.89917 -12.50067,9.84951 -22.53907,9.47071 -10.03839,-0.37881 -13.77376,-7.28403 -23.48632,-6.43946 -9.71257,0.84457 -17.04745,6.4399 -26.707034,8.14453 -9.659585,1.70464 -15.719197,-1.51597 -17.423828,-2.84179 -1.704635,-1.32583 -5.115235,0.0531 -5.115235,0.56836 0,0.51523 1.51637,3.40934 4.357422,7.76562 2.841056,4.35629 4.787928,6.5469 14.394531,7.57617 9.606604,1.02928 23.296874,-3.4082 23.296874,-3.4082 -4.54569,7.38673 -5.32089,12.6968 -9.4707,15.71875 -4.14981,3.02195 -6.438988,3.22062 -12.121096,2.8418 -5.682107,-0.37879 -8.144531,-3.22071 -8.144531,-3.22071 0,0 -5.682207,1.89407 -0.378906,7.57618 5.303301,5.6821 13.54278,5.69371 23.296873,4.35742 9.7541,-1.33629 14.07508,-8.75928 15.53125,-14.58399 1.45618,-5.8247 5.11328,-8.71289 5.11328,-8.71289 5.3033,3.03047 15.91016,3.59961 15.91016,3.59961 -7.04197,17.34289 3.3512,30.57087 16.9668,33.82032 0.93745,-0.93748 0.93164,-2.91602 0.93164,-2.91602 -6.92948,-6.98888 -8.74476,-17.64695 -3.63086,-26.92773 5.11389,-9.28078 15.53182,-14.39518 25.1914,-16.85743 9.65959,-2.46224 21.03124,-2.5993 29.16797,-2.08203 7.83434,0.49805 11.53268,-1.85777 17.04688,-4.35742 0.3788,3.78807 0.94726,12.12305 0.94726,12.12305 -4.73509,2.08344 -4.55546,6.30682 -14.77539,2.83984 -9.8802,-3.35171 -13.04052,0.56232 -23.86328,5.87109 -7.93304,3.89133 -18.65625,0.66407 -18.65625,0.66407 -0.74728,0.99004 -1.48633,2.37695 -1.48633,2.37695 0.92262,2.53716 3.36574,4.69977 7.45118,6.80859 4.08543,2.10883 13.39606,3.61096 20.26757,-0.3789 6.87151,-3.98994 9.8359,-2.782 16.09961,-0.94727 6.22517,1.8234 12.607,0.61118 16.33594,-1.66406 1.14632,13.98055 5.70278,27.96021 11.41016,32.83398 5.70737,-4.87377 10.26383,-18.85343 11.41015,-32.83398 3.72894,2.27524 10.11077,3.48746 16.33594,1.66406 6.26371,-1.83473 9.2281,-3.04267 16.09961,0.94727 6.87152,3.98986 16.18214,2.48773 20.26758,0.3789 4.08543,-2.10882 6.52856,-4.27143 7.45117,-6.80859 0,0 -0.73905,-1.38691 -1.48633,-2.37695 0,0 -10.72321,3.22726 -18.65625,-0.66407 -10.82276,-5.30877 -13.98308,-9.2228 -23.86328,-5.87109 -10.21993,3.46698 -10.0403,-0.7564 -14.77539,-2.83984 0,0 0.56846,-8.33498 0.94726,-12.12305 5.5142,2.49965 9.21254,4.85547 17.04688,4.35742 8.13673,-0.51727 19.50838,-0.38021 29.16797,2.08203 9.65958,2.46225 20.07751,7.57665 25.19141,16.85743 5.11389,9.28078 3.29862,19.93885 -3.63086,26.92773 0,0 -0.006,1.97854 0.93164,2.91602 13.6156,-3.24945 24.00877,-16.47743 16.96679,-33.82032 0,0 10.60686,-0.56914 15.91016,-3.59961 0,0 3.6571,2.88819 5.11328,8.71289 1.45618,5.82471 5.77717,13.2477 15.53125,14.58399 9.75413,1.33629 17.99356,1.32468 23.29688,-4.35742 5.30328,-5.68211 -0.37891,-7.57618 -0.37891,-7.57618 0,0 -2.46243,2.84192 -8.14453,3.22071 -5.68211,0.37882 -7.97129,0.18015 -12.1211,-2.8418 -4.14981,-3.02195 -4.92501,-8.33202 -9.4707,-15.71875 0,0 13.69026,4.43748 23.29688,3.4082 9.60661,-1.02927 11.55346,-3.21988 14.39453,-7.57617 2.84103,-4.35628 4.35742,-7.25039 4.35742,-7.76562 0,-0.51522 -3.41059,-1.89419 -5.11523,-0.56836 -1.70465,1.32582 -7.76427,4.54643 -17.42383,2.84179 -9.65961,-1.70463 -16.99447,-7.29996 -26.70703,-8.14453 -9.71257,-0.84457 -13.44794,6.06065 -23.48633,6.43946 -10.03839,0.3788 -12.47582,-3.57154 -22.53907,-9.47071 -9.51176,-5.57587 -17.84081,-6.89242 -29.35742,-7.00781 -11.36522,-0.11384 -18.83558,-4.02645 -19.50781,-11.91211 -0.6982,-8.19031 -2.1515,-29.51771 -2.30469,-44.88867 -0.15534,-15.58424 -1.10538,-28.80852 -0.72656,-36.00586 0.37881,-7.19733 1.65153,-8.14459 7.00781,-8.33398 5.54222,-0.19597 10.41706,-1.89473 14.39453,-2.65235 3.97748,-0.75761 5.49303,1.32551 8.7129,6.25 3.21985,4.9245 6.76616,5.03211 9.8496,5.87305 3.08344,0.84094 4.73448,6.8172 5.11329,9.84766 0,0 -5.40925,3.35468 -7.38672,4.86132 -1.97748,1.50665 -1.70453,4.54606 0.3789,8.90235 0,0 -2.46118,1.51441 -3.4082,4.35547 -0.94702,2.84105 2.08252,3.78805 3.97656,7.38671 0,0 -1.70508,3.78951 -1.70508,5.49415 0,1.70463 4.35787,2.27232 6.0625,5.49218 0,0 -1.13662,3.78751 -0.75781,5.30274 0.37881,1.51523 3.40924,0.001 7.38672,4.92578 0,0 0.756,4.54502 1.32422,4.92383 0.56821,0.3788 2.65284,-0.37879 4.54687,0 1.89404,0.3788 1.51557,-3.40865 1.32618,-5.11328 0,0 2.83994,-2.08413 3.21875,-2.65235 0.3788,-0.56821 -0.56828,-4.92402 -0.18946,-5.68164 0.37881,-0.75761 4.28946,-4.03009 5.30469,-6.06055 1.01523,-2.03045 -1.13672,-6.0625 -1.13672,-6.0625 0,0 2.46094,-5.49253 2.46094,-6.81836 0,-1.32582 -3.97662,-3.21894 -4.16602,-3.97656 -0.18939,-0.75761 2.65225,-4.54542 2.27344,-6.43945 -0.37881,-1.89404 -6.63004,-5.87169 -10.98633,-8.14453 0,0 -0.37945,-4.54611 -2.46289,-9.0918 0,0 6.44119,0.56828 13.07031,0.18945 6.62913,-0.37881 18.18244,-4.92447 21.2129,-7.38671 3.4191,-2.77803 5.11407,-10.41746 8.14453,-15.91016 3.03046,-5.4927 5.11407,-5.68174 8.14453,-6.06055 3.03045,-0.3788 9.48841,-0.81003 13.82617,-5.30273 4.3378,-4.4927 5.68216,-9.09289 7.76563,-13.25977 l -7.32422,-3.84961 c 0,0 -0.94596,6.05939 -3.40821,9.08985 -2.46225,3.03046 -8.90323,3.97851 -12.3125,3.97851 0,0 0.75801,-3.22018 1.51563,-8.71289 0.75761,-5.4927 0,-11.17383 0,-11.17383 h -7.57617 c 0,0 0.20625,7.24949 -0.56836,11.74219 -0.77461,4.49271 -3.97666,9.47077 -4.35547,9.66016 -0.37881,0.18939 -5.87159,-1.89518 -7.76563,-4.35742 -1.89403,-2.46225 -0.94771,-7.57615 -2.65234,-14.96289 l -7.19727,2.27343 c 0,0 0.75797,4.35676 1.32618,9.28125 0.56821,4.9245 2.46168,9.65875 5.30273,11.74219 2.84106,2.08344 4.73633,3.2207 4.73633,3.2207 0,0 -1.51627,4.92312 -3.97852,9.65821 -2.46225,4.73509 -7.62838,5.78718 -12.12109,6.25195 -4.49271,0.46476 -15.39759,0.81709 -19.88867,-0.94727 -4.32244,-1.6981 -8.14412,-9.09123 -14.01563,-14.39453 -5.87151,-5.3033 -12.50008,-1.13648 -20.26562,-0.18945 -7.76555,0.94702 -15.72086,-2.46299 -16.28907,-2.8418 -0.56821,-0.3788 -0.4493,-10.25418 -0.82812,-18.77734 -6.0812,-1.33315 -12.73937,-2.22656 -19.6582,-2.22656 -6.91883,0 -13.57701,0.89341 -19.65821,2.22656 -0.37882,8.52316 -0.25991,18.39854 -0.82812,18.77734 -0.56821,0.37881 -8.52351,3.78882 -16.28906,2.8418 -7.76555,-0.94703 -14.39412,-5.11385 -20.26563,0.18945 -5.87151,5.3033 -9.69319,12.69643 -14.01562,14.39453 -4.49109,1.76436 -15.39597,1.41203 -19.88868,0.94727 -4.49271,-0.46477 -9.65884,-1.51686 -12.12109,-6.25195 -2.46225,-4.73509 -3.97852,-9.65821 -3.97852,-9.65821 0,0 1.89528,-1.13726 4.73633,-3.2207 2.84105,-2.08344 4.73452,-6.81769 5.30274,-11.74219 0.56821,-4.92449 1.32617,-9.28125 1.32617,-9.28125 l -7.19727,-2.27343 c -1.70463,7.38674 -0.75831,12.50064 -2.65234,14.96289 -1.89404,2.46224 -7.38681,4.54681 -7.76563,4.35742 -0.3788,-0.18939 -3.58086,-5.16745 -4.35546,-9.66016 -0.77461,-4.4927 -0.56836,-11.74219 -0.56836,-11.74219 z"
       transform="scale(0.26458333)" />
    <path
       id="path1057"
       style="opacity:1;fill:#000000;fill-opacity:1;fill-rule:evenodd;stroke:none;stroke-width:0.467259;stroke-linejoin:miter;stroke-miterlimit:5;stroke-dasharray:none;stroke-dashoffset:0"
       d="m 242.95703,149.05078 c -3.43809,0.002 -6.96289,0.34375 -6.96289,0.34375 0,0 -2.47142,7.38354 -3.50976,11.16992 -5.76638,0.62905 -10.13498,1.7794 -15.22852,3.20117 l -6.10547,-9.8164 c -5.36587,1.60078 -10.40081,3.4767 -15.00781,5.4414 l 1.97656,11.51368 c -7.63456,3.57554 -12.29297,6.66015 -12.29297,6.66015 l -7.55469,-8.64257 c -6.34961,3.11665 -10.83789,6.59179 -10.83789,6.59179 l 5.30274,20.45508 19.9082,15.71289 c 0,0 23.1491,-13.79883 50.32813,-13.79883 27.17903,0 50.32812,13.79883 50.32812,13.79883 l 19.9082,-15.71289 5.30274,-20.45508 c 0,0 -4.48828,-3.47514 -10.83789,-6.59179 l -7.55469,8.64257 c 0,0 -4.65841,-3.08461 -12.29297,-6.66015 l 1.97656,-11.51368 c -4.60699,-1.96471 -9.64194,-3.84062 -15.00781,-5.4414 l -6.10547,9.8164 c -5.09354,-1.42177 -9.46213,-2.57212 -15.22851,-3.20117 -1.03835,-3.78638 -3.50977,-11.16992 -3.50977,-11.16992 0,0 -3.5248,-0.34165 -6.96289,-0.34375 -0.0106,-1e-5 -0.0207,0 -0.0312,0 z"
       transform="scale(0.26458333)" />
    <path
       id="path1074"
       style="opacity:1;fill:#000000;fill-opacity:1;fill-rule:evenodd;stroke:none;stroke-width:0.467259;stroke-linejoin:miter;stroke-miterlimit:5;stroke-dasharray:none;stroke-dashoffset:0"
       d="m 242.95703,25.833984 c -3.78942,0.0043 -7.32812,0.785157 -7.32812,0.785157 0,0 -2.10619,8.058908 -3.14453,12.298828 -4.02018,0.57064 -7.13302,1.347101 -10.14454,1.726562 l -5.96679,-11.080078 c -5.36587,0.731968 -8.52582,1.366621 -13.13282,2.59375 l -2.30859,12.683594 c -2.76684,0.809344 -5.62882,1.765392 -7.98242,2.484375 l -7.66992,-10.00586 c -5.40259,1.946625 -11.57617,5.488282 -11.57618,5.488282 l 2.06446,17.277344 c 4.77377,6.949557 9.82366,13.602491 14.03515,20.109374 0,0 30.05181,-5.304687 53.16993,-5.304687 23.11811,0 53.16992,5.304687 53.16992,5.304687 4.21149,-6.506883 9.26138,-13.159817 14.03515,-20.109374 l 2.06446,-17.277344 c 0,0 -6.17359,-3.541657 -11.57617,-5.488282 l -7.66993,10.00586 c -2.3536,-0.718983 -5.21558,-1.675031 -7.98242,-2.484375 l -2.30859,-12.683594 c -4.607,-1.227129 -7.76695,-1.861782 -13.13281,-2.59375 l -5.9668,11.080078 c -3.01152,-0.379461 -6.12436,-1.155922 -10.14453,-1.726562 -1.03835,-4.23992 -3.14453,-12.298828 -3.14453,-12.298828 0,0 -3.53871,-0.780836 -7.32813,-0.785157 -0.0105,-1.2e-5 -0.0207,0 -0.0312,0 z"
       transform="scale(0.26458333)" />
    <path
       id="path1074-8"
       style="opacity:1;fill:#000000;fill-opacity:1;fill-rule:evenodd;stroke:none;stroke-width:0.123629;stroke-linejoin:miter;stroke-miterlimit:5;stroke-dasharray:none;stroke-dashoffset:0"
       d="m 49.80295,30.306336 c -5.911149,-1.068559 -12.934146,-3.3144 -22.986329,3.836048 -3.125788,-1.60689 -5.486519,-2.624194 -7.168165,-3.628523 l -2.200509,-3.648927 c 0,0 1.400126,-1.397171 2.816046,-2.4666 l 2.379156,1.96153 c 0.53466,-0.371634 1.779491,-0.994382 2.811832,-1.672794 l -0.69554,-3.782461 c 1.061146,-0.682046 2.256658,-1.398717 3.549043,-2.017466 l 2.750723,2.658805 c 0.72787,-0.339368 2.100664,-0.987004 3.067134,-1.45618 0.07011,-0.679768 0.358434,-3.467729 0.358434,-3.467729 0,0 1.860861,-0.729643 4.435449,-0.778603 l 1.554405,3.5169 2.906556,0.150339 0.680825,-3.292782 1.824827,0.135661 c 1.291393,1.937704 3.880452,5.913338 3.880452,5.913338 l 2.963539,-0.461396 0.27206,0.862301 c -0.688488,2.999969 -1.845908,5.43722 -3.199938,7.638539 z" />
    <path
       id="path1057-9"
       style="opacity:1;fill:#000000;fill-opacity:1;fill-rule:evenodd;stroke:none;stroke-width:0.123629;stroke-linejoin:miter;stroke-miterlimit:5;stroke-dasharray:none;stroke-dashoffset:0"
       d="m 47.106254,39.990203 c -0.200452,1.302939 -0.601356,3.858704 -0.601356,3.858704 -1.002261,0.801808 -3.006783,2.054634 -3.006783,2.054634 0.100226,1.403165 1.052374,4.610399 1.052374,4.610399 L 41.51384,54.106866 C 34.449745,51.601741 28.478827,52.34002 22.384746,56.454868 l -6.755659,-2.843746 -3.795635,-8.769255 c 0,0 1.14408,-1.592316 3.748019,-2.977091 l 2.735342,2.651521 c 0,0 1.997025,-1.074496 4.284356,-2.145735 l -0.01159,-3.762361 c 1.380266,-0.588631 2.942421,-0.970963 4.446258,-1.22935 l 2.029664,3.54237 c 1.215715,-0.125289 2.360483,-0.369706 3.660549,-0.457946 0.912448,-1.936217 1.452469,-3.246321 1.452469,-3.246321 0,0 2.028063,0.250333 3.769828,0.640121 0,0 0.287895,1.631998 0.488347,3.536293 0,0 1.954408,0.400904 3.107008,0.751695 0,0 1.252826,-1.904294 2.104748,-3.207234 1.203766,0.299625 2.348386,0.658396 3.457799,1.052374 z" />
    <path
       id="path1122"
       style="opacity:1;fill:#000000;fill-opacity:1;fill-rule:evenodd;stroke:none;stroke-width:0.123629;stroke-linejoin:miter;stroke-miterlimit:5;stroke-dasharray:none;stroke-dashoffset:0"
       d="m 78.77008,30.306336 c 5.911149,-1.068559 12.934146,-3.3144 22.98633,3.836048 3.12579,-1.60689 5.48652,-2.624194 7.16816,-3.628523 l 2.20051,-3.648927 c 0,0 -1.40012,-1.397171 -2.81604,-2.4666 l -2.37916,1.96153 c -0.53466,-0.371634 -1.77949,-0.994382 -2.81183,-1.672794 l 0.69554,-3.782461 c -1.06115,-0.682046 -2.25666,-1.398717 -3.54904,-2.017466 l -2.750727,2.658805 c -0.72787,-0.339368 -2.100664,-0.987004 -3.067134,-1.45618 -0.07011,-0.679768 -0.358434,-3.467729 -0.358434,-3.467729 0,0 -1.860861,-0.729643 -4.435449,-0.778603 l -1.554405,3.5169 -2.906556,0.150339 -0.680825,-3.292782 -1.824827,0.135661 c -1.291393,1.937704 -3.880452,5.913338 -3.880452,5.913338 l -2.963539,-0.461396 -0.27206,0.862301 c 0.688488,2.999969 1.845908,5.43722 3.199938,7.638539 z" />
    <path
       id="path1124"
       style="opacity:1;fill:#000000;fill-opacity:1;fill-rule:evenodd;stroke:none;stroke-width:0.123629;stroke-linejoin:miter;stroke-miterlimit:5;stroke-dasharray:none;stroke-dashoffset:0"
       d="m 81.466776,39.990203 c 0.200452,1.302939 0.601356,3.858704 0.601356,3.858704 1.002261,0.801808 3.006783,2.054634 3.006783,2.054634 -0.100226,1.403165 -1.052374,4.610399 -1.052374,4.610399 l 3.036649,3.592926 c 7.064095,-2.505125 13.03501,-1.766846 19.12909,2.348002 l 6.75566,-2.843746 3.79564,-8.769255 c 0,0 -1.14408,-1.592316 -3.74802,-2.977091 l -2.73534,2.651521 c 0,0 -1.99703,-1.074496 -4.28436,-2.145735 l 0.0116,-3.762361 c -1.38027,-0.588631 -2.94242,-0.970963 -4.44626,-1.22935 l -2.029661,3.54237 c -1.215715,-0.125289 -2.360483,-0.369706 -3.660549,-0.457946 -0.912448,-1.936217 -1.452469,-3.246321 -1.452469,-3.246321 0,0 -2.028063,0.250333 -3.769828,0.640121 0,0 -0.287895,1.631998 -0.488347,3.536293 0,0 -1.954408,0.400904 -3.107008,0.751695 0,0 -1.252826,-1.904294 -2.104748,-3.207234 -1.203766,0.299625 -2.348386,0.658396 -3.457799,1.052374 z" />
  </g>
</svg>
