<?xml version="1.0" encoding="UTF-8" standalone="no"?>
<!-- Created with Inkscape (http://www.inkscape.org/) -->

<svg
   xmlns:dc="http://purl.org/dc/elements/1.1/"
   xmlns:cc="http://creativecommons.org/ns#"
   xmlns:rdf="http://www.w3.org/1999/02/22-rdf-syntax-ns#"
   xmlns:svg="http://www.w3.org/2000/svg"
   xmlns="http://www.w3.org/2000/svg"
   xmlns:xlink="http://www.w3.org/1999/xlink"
   xmlns:sodipodi="http://sodipodi.sourceforge.net/DTD/sodipodi-0.dtd"
   xmlns:inkscape="http://www.inkscape.org/namespaces/inkscape"
   width="500"
   height="574"
   id="svg2"
   version="1.1"
   inkscape:version="0.48.5 r10040"
   sodipodi:docname="pieksämäki.svg">
  <defs
     id="defs4" />
  <sodipodi:namedview
     id="base"
     pagecolor="#f6f3f1"
     bordercolor="#666666"
     borderopacity="1.0"
     inkscape:pageopacity="0"
     inkscape:pageshadow="2"
     inkscape:zoom="0.7"
     inkscape:cx="254.48274"
     inkscape:cy="401.1009"
     inkscape:document-units="px"
     inkscape:current-layer="layer1"
     showgrid="false"
     showborder="true"
     inkscape:window-width="1920"
     inkscape:window-height="1017"
     inkscape:window-x="-8"
     inkscape:window-y="-8"
     inkscape:window-maximized="1"
     fit-margin-top="0"
     fit-margin-left="0"
     fit-margin-right="0"
     fit-margin-bottom="0"
     inkscape:showpageshadow="false" />
  <metadata
     id="metadata7">
    <rdf:RDF>
      <cc:Work
         rdf:about="">
        <dc:format>image/svg+xml</dc:format>
        <dc:type
           rdf:resource="http://purl.org/dc/dcmitype/StillImage" />
        <dc:title></dc:title>
      </cc:Work>
    </rdf:RDF>
  </metadata>
  <g
     inkscape:label="Layer 1"
     inkscape:groupmode="layer"
     id="layer1"
     transform="translate(-111.03723,-273.30121)">
    <g
       id="g4157"
       transform="matrix(0.9538481,0,0,0.95790437,5.1245794,35.667678)">
      <path
         style="color:#000000;fill:#000000;stroke:none;stroke-width:0.99999994;marker:none;visibility:visible;display:inline;overflow:visible;enable-background:accumulate"
         d="m 635.22971,248.07647 c 0,0 0,251.32289 0,359.94549 0,108.62261 -101.92198,239.27925 -262.09624,239.27925 -160.17426,0 -262.09624,-130.65664 -262.09624,-239.27925 0,-108.6226 0,-359.94549 0,-359.94549 z"
         id="path3774"
         inkscape:connector-curvature="0"
         sodipodi:nodetypes="cszscc" />
      <g
         transform="translate(1.7516466,0)"
         id="g4116">
        <g
           id="g4063"
           transform="translate(0,-4.9999999e-6)">
          <g
             transform="translate(0,-0.253985)"
             id="g3870">
            <g
               id="g3945">
              <path
                 sodipodi:nodetypes="ccczcc"
                 inkscape:connector-curvature="0"
                 id="path3868"
                 d="m 419.91072,360.30861 34.01785,-34.01786 133.79081,0 c 0,0 0.92839,1.33459 -0.1894,2.67594 -1.11779,1.34135 -29.83107,29.83107 -29.83107,29.83107 z"
                 style="color:#000000;fill:#e6e6e6;stroke:none;stroke-width:1;marker:none;visibility:visible;display:inline;overflow:visible;enable-background:accumulate" />
              <path
                 style="font-size:medium;font-style:normal;font-variant:normal;font-weight:normal;font-stretch:normal;text-indent:0;text-align:start;text-decoration:none;line-height:normal;letter-spacing:normal;word-spacing:normal;text-transform:none;direction:ltr;block-progression:tb;writing-mode:lr-tb;text-anchor:start;baseline-shift:baseline;color:#000000;fill:#999999;fill-opacity:1;stroke:none;stroke-width:2;marker:none;visibility:visible;display:inline;overflow:visible;enable-background:accumulate;font-family:Sans;-inkscape-font-specification:Sans"
                 d="m 586.33482,326.81648 -32,32 1.40625,1.4375 32,-32.03125 -1.40625,-1.40625 z"
                 id="path3891-1"
                 inkscape:connector-curvature="0" />
              <g
                 id="g3914">
                <g
                   id="g3897">
                  <path
                     style="font-size:medium;font-style:normal;font-variant:normal;font-weight:normal;font-stretch:normal;text-indent:0;text-align:start;text-decoration:none;line-height:normal;letter-spacing:normal;word-spacing:normal;text-transform:none;direction:ltr;block-progression:tb;writing-mode:lr-tb;text-anchor:start;baseline-shift:baseline;color:#000000;fill:#999999;fill-opacity:1;stroke:none;stroke-width:2;marker:none;visibility:visible;display:inline;overflow:visible;enable-background:accumulate;font-family:Sans;-inkscape-font-specification:Sans"
                     d="m 474.46875,326.81648 -32,32 1.40625,1.4375 32,-32.03125 -1.40625,-1.40625 z"
                     id="path3891"
                     inkscape:connector-curvature="0" />
                  <path
                     inkscape:connector-curvature="0"
                     id="path3895"
                     d="m 479.34346,327.94177 -30.87471,30.87471 -4.59375,1.4375 32,-32.03125 z"
                     style="font-size:medium;font-style:normal;font-variant:normal;font-weight:normal;font-stretch:normal;text-indent:0;text-align:start;text-decoration:none;line-height:normal;letter-spacing:normal;word-spacing:normal;text-transform:none;direction:ltr;block-progression:tb;writing-mode:lr-tb;text-anchor:start;baseline-shift:baseline;color:#000000;fill:#ffffff;fill-opacity:1;stroke:none;stroke-width:2;marker:none;visibility:visible;display:inline;overflow:visible;enable-background:accumulate;font-family:Sans;-inkscape-font-specification:Sans"
                     sodipodi:nodetypes="ccccc" />
                </g>
                <use
                   x="0"
                   y="0"
                   xlink:href="#g3897"
                   id="use3919"
                   transform="translate(22.500961,0)"
                   width="744.09448"
                   height="1052.3622" />
                <use
                   height="1052.3622"
                   width="744.09448"
                   transform="translate(45.001938,0)"
                   id="use3921"
                   xlink:href="#g3897"
                   y="0"
                   x="0" />
                <use
                   x="0"
                   y="0"
                   xlink:href="#g3897"
                   id="use3923"
                   transform="translate(67.502914,0)"
                   width="744.09448"
                   height="1052.3622" />
                <use
                   height="1052.3622"
                   width="744.09448"
                   transform="translate(90.003891,0)"
                   id="use3925"
                   xlink:href="#g3897"
                   y="0"
                   x="0" />
              </g>
              <path
                 style="color:#000000;fill:#ffffff;stroke:none;stroke-width:1;marker:none;visibility:visible;display:inline;overflow:visible;enable-background:accumulate"
                 d="m 453.9375,326.03125 -34.03125,34.03125 4.03125,-0.0312 32,-32 131.96875,0 c 0.41791,-1.07748 -0.1875,-2 -0.1875,-2 l -133.78125,0 z"
                 transform="translate(0,0.253985)"
                 id="path3886"
                 inkscape:connector-curvature="0" />
            </g>
            <g
               transform="matrix(1,0,0,-1,0,739.36924)"
               id="g3958">
              <path
                 style="color:#000000;fill:#e6e6e6;stroke:none;stroke-width:1;marker:none;visibility:visible;display:inline;overflow:visible;enable-background:accumulate"
                 d="m 419.91072,360.30861 34.01785,-34.01786 133.79081,0 c 0,0 0.92839,1.33459 -0.1894,2.67594 -1.11779,1.34135 -29.83107,29.83107 -29.83107,29.83107 z"
                 id="path3960"
                 inkscape:connector-curvature="0"
                 sodipodi:nodetypes="ccczcc" />
              <g
                 id="g3964">
                <g
                   id="g3966">
                  <path
                     inkscape:connector-curvature="0"
                     id="path3968"
                     d="m 474.46875,326.81648 -32,32 1.40625,1.4375 32,-32.03125 -1.40625,-1.40625 z"
                     style="font-size:medium;font-style:normal;font-variant:normal;font-weight:normal;font-stretch:normal;text-indent:0;text-align:start;text-decoration:none;line-height:normal;letter-spacing:normal;word-spacing:normal;text-transform:none;direction:ltr;block-progression:tb;writing-mode:lr-tb;text-anchor:start;baseline-shift:baseline;color:#000000;fill:#999999;fill-opacity:1;stroke:none;stroke-width:2;marker:none;visibility:visible;display:inline;overflow:visible;enable-background:accumulate;font-family:Sans;-inkscape-font-specification:Sans" />
                  <path
                     sodipodi:nodetypes="ccccc"
                     style="font-size:medium;font-style:normal;font-variant:normal;font-weight:normal;font-stretch:normal;text-indent:0;text-align:start;text-decoration:none;line-height:normal;letter-spacing:normal;word-spacing:normal;text-transform:none;direction:ltr;block-progression:tb;writing-mode:lr-tb;text-anchor:start;baseline-shift:baseline;color:#000000;fill:#ffffff;fill-opacity:1;stroke:none;stroke-width:2;marker:none;visibility:visible;display:inline;overflow:visible;enable-background:accumulate;font-family:Sans;-inkscape-font-specification:Sans"
                     d="m 479.34346,327.94177 -30.87471,30.87471 -4.59375,1.4375 32,-32.03125 z"
                     id="path3970"
                     inkscape:connector-curvature="0" />
                </g>
                <use
                   height="1052.3622"
                   width="744.09448"
                   transform="translate(22.500961,0)"
                   id="use3972"
                   xlink:href="#g3897"
                   y="0"
                   x="0" />
                <use
                   x="0"
                   y="0"
                   xlink:href="#g3897"
                   id="use3974"
                   transform="translate(45.001938,0)"
                   width="744.09448"
                   height="1052.3622" />
                <use
                   height="1052.3622"
                   width="744.09448"
                   transform="translate(67.502914,0)"
                   id="use3976"
                   xlink:href="#g3897"
                   y="0"
                   x="0" />
                <use
                   x="0"
                   y="0"
                   xlink:href="#g3897"
                   id="use3978"
                   transform="translate(90.003891,0)"
                   width="744.09448"
                   height="1052.3622" />
              </g>
              <use
                 height="1052.3622"
                 width="744.09448"
                 transform="translate(-67.61709,0.25398738)"
                 id="use4020"
                 xlink:href="#path4014"
                 y="0"
                 x="0" />
              <use
                 height="1052.3622"
                 width="744.09448"
                 transform="translate(-110.2329,0.25398738)"
                 id="use4024"
                 xlink:href="#path4014"
                 y="0"
                 x="0" />
              <path
                 transform="matrix(1,0,0,-1,0,739.11526)"
                 id="path3997"
                 d="m 419.90625,378.8125 34.03125,34.03125 2,-2 -32,-32 -4.03125,-0.0312 z"
                 style="color:#000000;fill:#ffffff;stroke:none;stroke-width:1;marker:none;visibility:visible;display:inline;overflow:visible;enable-background:accumulate"
                 inkscape:connector-curvature="0" />
              <path
                 id="path3980"
                 d="m 453.9375,326.28528 0,-5e-5"
                 style="color:#000000;fill:#ffffff;stroke:none;stroke-width:1;marker:none;visibility:visible;display:inline;overflow:visible;enable-background:accumulate"
                 inkscape:connector-curvature="0" />
              <path
                 sodipodi:nodetypes="cccccccc"
                 inkscape:connector-curvature="0"
                 id="path3962"
                 transform="matrix(1,0,0,-1,0,739.11526)"
                 d="m 555.75,378.875 -1.40625,1.4375 29.75,29.75 -128.15625,0 -2,2.1875 133.78125,0 c 0,0 0.38603,-1.20348 -0.18198,-1.66424 C 587.53115,410.58136 555.75,378.875 555.75,378.875 z"
                 style="font-size:medium;font-style:normal;font-variant:normal;font-weight:normal;font-stretch:normal;text-indent:0;text-align:start;text-decoration:none;line-height:normal;letter-spacing:normal;word-spacing:normal;text-transform:none;direction:ltr;block-progression:tb;writing-mode:lr-tb;text-anchor:start;baseline-shift:baseline;color:#000000;fill:#999999;fill-opacity:1;stroke:none;stroke-width:2;marker:none;visibility:visible;display:inline;overflow:visible;enable-background:accumulate;font-family:Sans;-inkscape-font-specification:Sans" />
              <use
                 x="0"
                 y="0"
                 xlink:href="#path4014"
                 id="use4022"
                 transform="translate(-89.96671,0.25398738)"
                 width="744.09448"
                 height="1052.3622" />
              <path
                 inkscape:connector-curvature="0"
                 id="path4014"
                 d="m 556.60714,357.21338 c 0,0 -11.65178,0 -14.46428,0 -2.8125,0 -4.95536,-1.07143 -4.95536,-1.07143 l -2.8125,2.54464 21.69643,0.13393 z"
                 style="color:#000000;fill:#999999;fill-opacity:1;stroke:none;stroke-width:1;marker:none;visibility:visible;display:inline;overflow:visible;enable-background:accumulate" />
              <use
                 height="1052.3622"
                 width="744.09448"
                 transform="translate(-22.34963,0.25398738)"
                 id="use4016"
                 xlink:href="#path4014"
                 y="0"
                 x="0" />
              <use
                 x="0"
                 y="0"
                 xlink:href="#path4014"
                 id="use4018"
                 transform="translate(-45.07806,0.25398738)"
                 width="744.09448"
                 height="1052.3622" />
            </g>
          </g>
          <g
             id="g3863">
            <path
               sodipodi:nodetypes="cssssssccccsssssscc"
               inkscape:connector-curvature="0"
               id="path3789"
               d="m 593.63964,377.42245 c 0,2.17814 0.0947,3.31456 -3.50397,3.31456 -3.59866,0 -212.02852,0 -230.21126,0 -18.18275,0 -30.30458,0 -59.09393,11.36422 -28.78934,11.36421 -45.26189,15.53109 -69.50555,15.53109 -24.24366,0 -59.40973,0 -64.66798,0 -5.25825,0 -5.41135,-2.65165 -5.41135,-6.06091 0,-3.40927 0,-17.80394 0,-17.80394 l -12.12183,-8.47018 0,-12.2278 12.12183,-8.47018 c 0,0 0,-14.39467 0,-17.80394 0,-3.40926 0.1531,-6.06091 5.41135,-6.06091 5.25825,0 40.42432,0 64.66798,0 24.24366,0 40.71621,4.16688 69.50555,15.53109 28.78935,11.36422 40.91118,11.36422 59.09393,11.36422 18.18274,0 226.6126,0 230.21126,0 3.59867,0 3.50397,1.13642 3.50397,3.31456 z"
               style="color:#000000;fill:#cca85e;fill-opacity:1;stroke:none;stroke-width:1;marker:none;visibility:visible;display:inline;overflow:visible;enable-background:accumulate" />
            <path
               style="color:#000000;fill:#9f7b32;fill-opacity:1;stroke:none;stroke-width:1;marker:none;visibility:visible;display:inline;overflow:visible;enable-background:accumulate"
               d="m 150.25,369.6875 11.375,2.28125 0,1.6875 -11.5625,-1.125 11.75,3.40625 0,2.09375 -11.5625,-3.6875 11.9375,7.34375 0.0312,-0.84375 0.15625,0.375 70.28125,0 c 35.09393,0 53.09311,-3.59151 76.5,-6.09375 -22.97219,1.24142 -39.781,5.3284 -79.4375,5.25 l -67.5,0 0.34375,-10.25 z m 166.125,6.1875 c -24.0958,3.01424 -41.74759,12.94026 -83.34375,12.75 l -71.03125,0 0.40625,2.0625 73.71875,0 c 36.81043,0 55.69824,-8.7369 80.25,-14.8125 z m 237.0625,0.25 c -60.40507,-0.0191 -179.86294,0.0625 -193.5,0.0625 -18.18275,0 -34.09025,-0.76205 -65.53125,12.875 -28.39521,12.31599 -53.62357,12.5 -77.86723,12.5 l -52.53902,0 -0.46875,3.65625 65.375,0 c 24.24366,0 39.11691,-3.10454 67.90625,-14.46875 28.78935,-11.36422 44.94225,-11.875 63.125,-11.875 18.18274,0 224.52634,-0.125 228.125,-0.125 3.59867,0 3.5,-1.16465 3.5,-2.4375 l -3.5,-0.125 c -0.89902,-0.034 -14.48998,-0.0561 -34.625,-0.0625 z m -231.78125,1.625 c -24.0958,3.01424 -45.90384,18.65901 -87.5,18.46875 l -71,0 0.375,2.03125 73.71875,0 c 36.81043,0 59.85449,-14.4244 84.40625,-20.5 z"
               id="path3810"
               inkscape:connector-curvature="0"
               sodipodi:nodetypes="ccccccccccscccccccccscssssccssssccsccccsc" />
            <path
               style="color:#000000;fill:#faedd3;fill-opacity:1;stroke:none;stroke-width:1;marker:none;visibility:visible;display:inline;overflow:visible;enable-background:accumulate"
               d="m 166.9375,333.53125 c -5.25825,0 -5.6875,-0.15926 -5.6875,3.25 l 0,17.8125 -12.125,8.46875 0,2.5625 12.125,-5.71875 0,41.65625 c 0,2.75272 0.0999,5.01335 2.90625,5.78125 0.4861,0.13301 0.21875,-50.55647 0.21875,-54.375 0,-3.81853 0.92938,-6.01339 3.84375,-6.01339 l 63.09375,0 c 24.24366,0 29.24202,1.34461 55.44643,8.36607 30.57557,8.19269 54.99582,9.42857 73.17857,9.42857 l 227.53125,0 c 3.5237,0 3.50225,-1.09728 3.5,-3.1875 -0.34635,-0.7352 -1.17827,-1.125 -3.25,-1.125 l -227.53125,0 c -18.18275,0 -30.3044,-0.0108 -59.09375,-11.375 -28.78934,-11.36421 -45.25634,-15.53125 -69.5,-15.53125 z m 0,7.25 64.65625,0 c 24.24366,0 39.49878,4.74533 67.09375,13.375 10.52349,3.29097 35.40477,7.8382 42.91846,8.97636 -15.52482,-0.2066 -41.01597,-6.06206 -54.57471,-9.69511 -26.20441,-7.02146 -31.47509,-9.15625 -55.71875,-9.15625 -24.24366,0 -66.1875,0.0625 -66.1875,0.0625 0,0 -0.98146,-3.5625 1.8125,-3.5625 z"
               id="path3804"
               inkscape:connector-curvature="0"
               sodipodi:nodetypes="ssccccsssssssscsssssssscsscs" />
          </g>
        </g>
        <use
           x="0"
           y="0"
           xlink:href="#g4063"
           id="use4101"
           transform="translate(0,153.21813)"
           width="744.09448"
           height="1052.3622" />
        <use
           height="1052.3622"
           width="744.09448"
           transform="translate(0,306.43622)"
           id="use4103"
           xlink:href="#g4063"
           y="0"
           x="0" />
      </g>
    </g>
  </g>
</svg>
