<?xml version="1.0" encoding="UTF-8" standalone="no"?>
<svg
   xmlns:dc="http://purl.org/dc/elements/1.1/"
   xmlns:cc="http://creativecommons.org/ns#"
   xmlns:rdf="http://www.w3.org/1999/02/22-rdf-syntax-ns#"
   xmlns:svg="http://www.w3.org/2000/svg"
   xmlns="http://www.w3.org/2000/svg"
   width="500.00003"
   height="575"
   viewBox="0 0 132.29167 152.13542"
   version="1.1"
   id="svg847">
  <defs
     id="defs841" />
  <metadata
     id="metadata844">
    <rdf:RDF>
      <cc:Work
         rdf:about="">
        <dc:format>image/svg+xml</dc:format>
        <dc:type
           rdf:resource="http://purl.org/dc/dcmitype/StillImage" />
        <dc:title></dc:title>
      </cc:Work>
    </rdf:RDF>
  </metadata>
  <path
     id="path881"
     style="fill:#d9d9d9;fill-opacity:1;fill-rule:evenodd;stroke:none;stroke-width:0.132292;stroke-linejoin:round;stroke-miterlimit:5;stroke-dasharray:1.5875, 1.5875"
     d="m 13.53589,126.03085 c 12.08496,15.86171 31.14943,26.10456 52.610209,26.10456 21.46077,0 40.524871,-10.24285 52.609691,-26.10456 L 132.29167,10e-7 H 0 Z" />
  <path
     id="path883"
     style="fill:#000000;fill-rule:evenodd;stroke:none;stroke-width:0.132292;stroke-linejoin:round;stroke-miterlimit:5;stroke-dasharray:1.5875, 1.5875"
     d="m 132.29168,3e-6 v 85.89439 c 0,15.092177 -5.04938,28.997777 -13.53588,40.136457 L 66.146099,70.197843 Z M 66.146099,70.197843 13.53589,126.03085 C 5.04949,114.89217 0,100.98657 0,85.894393 V 3e-6 Z" />
  <path
     style="font-variation-settings:normal;vector-effect:none;fill:#d9d9d9;fill-opacity:1;stroke:none;stroke-width:0.132292;stroke-linecap:butt;stroke-linejoin:miter;stroke-miterlimit:5;stroke-dasharray:none;stroke-dashoffset:0;stroke-opacity:1;stop-color:#000000"
     d="m 43.766465,75.96925 c -3.94329,0.0624 -8.48901,-1.7372 -12.25309,-5.73302 l 1.50653,21.62456 h -12.60449 l 1.50652,-21.62456 c -3.76408,3.99582 -8.30979,5.79544 -12.25309,5.73302 l 17.04881,-35.93497 z"
     id="path885" />
  <path
     style="font-variation-settings:normal;vector-effect:none;fill:#d9d9d9;fill-opacity:1;stroke:none;stroke-width:0.132292;stroke-linecap:butt;stroke-linejoin:miter;stroke-miterlimit:5;stroke-dasharray:none;stroke-dashoffset:0;stroke-opacity:1;stop-color:#000000"
     d="m 88.525194,75.96925 c 3.94331,0.0624 8.48902,-1.7372 12.253106,-5.73302 l -1.506536,21.62456 h 12.604496 l -1.50652,-21.62456 c 3.76408,3.99582 8.3098,5.79544 12.25309,5.73302 L 105.57402,40.03428 Z"
     id="path887" />
</svg>
