<?xml version="1.0" encoding="UTF-8" standalone="no"?>
<svg
   xmlns:dc="http://purl.org/dc/elements/1.1/"
   xmlns:cc="http://creativecommons.org/ns#"
   xmlns:rdf="http://www.w3.org/1999/02/22-rdf-syntax-ns#"
   xmlns:svg="http://www.w3.org/2000/svg"
   xmlns="http://www.w3.org/2000/svg"
   width="500"
   height="577.00006"
   viewBox="0 0 132.29166 152.6646"
   version="1.1"
   id="svg847">
  <defs
     id="defs841" />
  <metadata
     id="metadata844">
    <rdf:RDF>
      <cc:Work
         rdf:about="">
        <dc:format>image/svg+xml</dc:format>
        <dc:type
           rdf:resource="http://purl.org/dc/dcmitype/StillImage" />
        <dc:title></dc:title>
      </cc:Work>
    </rdf:RDF>
  </metadata>
  <path
     id="path1484"
     style="font-variation-settings:normal;opacity:1;vector-effect:none;fill:#ea0606;fill-opacity:1;stroke:none;stroke-width:0.264583;stroke-linecap:butt;stroke-linejoin:miter;stroke-miterlimit:5;stroke-dasharray:none;stroke-dashoffset:0;stroke-opacity:1;stop-color:#000000;stop-opacity:1"
     d="m 6.52373,81.034872 0.89002,11.036804 c 3.13291,38.850054 34.76852,53.426514 58.73233,60.592914 L 125.95691,78.689565 132.29166,0 H 67.20897 L 13.61825,53.065856 Z" />
  <path
     id="path1565"
     style="font-variation-settings:normal;opacity:1;vector-effect:none;fill:#990000;fill-opacity:1;stroke:none;stroke-width:0.264583;stroke-linecap:butt;stroke-linejoin:miter;stroke-miterlimit:5;stroke-dasharray:none;stroke-dashoffset:0;stroke-opacity:1;stop-color:#000000;stop-opacity:1"
     d="M 66.14608,0 45.93201,80.396518 46.9949,81.009961 57.1022,75.174975 V 55.388032 l 10.10677,-5.835504 7.19318,26.289866 11.95749,4.554124 1.06288,-0.613964 -10.10677,-5.834986 V 54.160625 L 67.20897,48.325642 V 0 Z m 42.55289,48.939085 h -2.12526 v 30.923393 h 19.2887 l 0.0945,-1.172913 -8.2135,-4.741997 V 54.160625 Z m -82.98051,0 -12.10021,4.126994 -7.18902,26.796399 0.0945,1.172394 10.15037,-5.859897 V 55.388032 l 10.1073,-5.835504 z" />
  <path
     id="path1578"
     style="font-variation-settings:normal;opacity:1;vector-effect:none;fill:#e6e6e6;fill-opacity:1;stroke:none;stroke-width:0.264583;stroke-linecap:butt;stroke-linejoin:miter;stroke-miterlimit:5;stroke-dasharray:none;stroke-dashoffset:0;stroke-opacity:1;stop-color:#000000;stop-opacity:1"
     d="m 0,0 6.42923,79.862478 9.18193,-5.301464 V 54.774068 l 10.1073,-5.834983 10.10678,5.834983 v 19.786946 l 10.10677,5.835504 10.1073,-5.835504 V 54.774068 L 66.14608,48.939085 V 0 Z M 125.86241,79.862478 116.6805,74.561014 V 54.774068 L 106.57371,48.939085 96.46693,54.774068 V 74.561014 L 86.35964,80.396518 76.25286,74.561014 V 54.774068 L 66.14608,48.939085 V 152.66459 c 23.96382,-7.1664 55.59894,-21.74286 58.73183,-60.592914 z" />
  <path
     id="path1500"
     style="font-variation-settings:normal;opacity:1;vector-effect:none;fill:#ffffff;fill-opacity:1;stroke:none;stroke-width:0.264583;stroke-linecap:butt;stroke-linejoin:miter;stroke-miterlimit:5;stroke-dasharray:none;stroke-dashoffset:0;stroke-opacity:1;stop-color:#000000;stop-opacity:1"
     d="M 66.14608,48.939085 V 152.66459 c 0.35096,-0.10496 0.70876,-0.21722 1.06289,-0.32541 V 49.552528 Z m 40.42763,0 -10.10678,5.834983 v 19.786946 l -10.10729,5.835504 1.06288,0.613443 10.1073,-5.834986 V 55.388032 l 10.10678,-5.835504 z m -79.79236,-0.613443 -1.06289,0.613443 10.10678,5.834983 V 74.561014 L 45.93201,80.396518 46.9949,79.782554 36.88812,73.947568 V 54.160625 Z" />
</svg>
