<?xml version="1.0" encoding="UTF-8" standalone="no"?>
<svg
   xmlns:dc="http://purl.org/dc/elements/1.1/"
   xmlns:cc="http://creativecommons.org/ns#"
   xmlns:rdf="http://www.w3.org/1999/02/22-rdf-syntax-ns#"
   xmlns:svg="http://www.w3.org/2000/svg"
   xmlns="http://www.w3.org/2000/svg"
   xmlns:sodipodi="http://sodipodi.sourceforge.net/DTD/sodipodi-0.dtd"
   xmlns:inkscape="http://www.inkscape.org/namespaces/inkscape"
   width="500"
   height="570"
   viewBox="0 0 132.29166 150.8125"
   version="1.1"
   id="svg847"
   sodipodi:docname="polvijärvi.svg"
   inkscape:version="1.0.2 (e86c870879, 2021-01-15, custom)">
  <defs
     id="defs841" />
  <sodipodi:namedview
     id="base"
     pagecolor="#ffffff"
     bordercolor="#666666"
     borderopacity="1.0"
     inkscape:pageopacity="0.0"
     inkscape:pageshadow="2"
     inkscape:zoom="0.98994949"
     inkscape:cx="319.07225"
     inkscape:cy="263.76798"
     inkscape:document-units="px"
     inkscape:current-layer="layer1"
     inkscape:document-rotation="0"
     showgrid="false"
     inkscape:snap-smooth-nodes="true"
     inkscape:showpageshadow="false"
     borderlayer="true"
     units="px"
     inkscape:window-width="1920"
     inkscape:window-height="1017"
     inkscape:window-x="-8"
     inkscape:window-y="-4"
     inkscape:window-maximized="1"
     inkscape:object-paths="false"
     inkscape:snap-intersection-paths="false"
     inkscape:object-nodes="true" />
  <metadata
     id="metadata844">
    <rdf:RDF>
      <cc:Work
         rdf:about="">
        <dc:format>image/svg+xml</dc:format>
        <dc:type
           rdf:resource="http://purl.org/dc/dcmitype/StillImage" />
        <dc:title />
      </cc:Work>
    </rdf:RDF>
  </metadata>
  <g
     inkscape:label="Layer 1"
     inkscape:groupmode="layer"
     id="layer1"
     transform="translate(-43.160156,-43.750743)">
    <g
       id="g1168"
       transform="matrix(0.9947028,0,0,0.99483883,0.22862545,0.22580477)"
       style="stroke-width:1.00526">
      <path
         style="font-variation-settings:normal;opacity:1;vector-effect:none;fill:#cccccc;fill-opacity:1;stroke:none;stroke-width:0.265974;stroke-linecap:butt;stroke-linejoin:miter;stroke-miterlimit:4;stroke-dasharray:none;stroke-dashoffset:0;stroke-opacity:1;stop-color:#000000;stop-opacity:1"
         d="m 176.15633,43.750743 v 86.298227 c 0,27.60213 -21.47071,65.29668 -66.49809,65.29668 -45.027364,0 -66.498084,-37.69455 -66.498084,-65.29668 V 43.750743 h 66.498094 z"
         id="path846"
         sodipodi:nodetypes="cszsccc" />
      <path
         id="path1170"
         style="font-variation-settings:normal;opacity:1;vector-effect:none;fill:#df0606;fill-opacity:1;stroke:none;stroke-width:0.265974;stroke-linecap:butt;stroke-linejoin:miter;stroke-miterlimit:4;stroke-dasharray:none;stroke-dashoffset:0;stroke-opacity:1;stop-color:#000000;stop-opacity:1"
         d="M 66.174236,179.77173 C 50.69144,166.27179 43.159791,146.38968 43.159997,130.04891 l 1.59e-4,-12.6044 65.969094,-73.107165 2.45189,2.316125 64.57503,71.96384 1.6e-4,11.4316 c 2.3e-4,16.55133 -7.72035,36.7315 -23.61044,50.23724 l -42.88747,-47.63533 -43.021072,47.12091 z"
         sodipodi:nodetypes="csccccscccc" />
      <g
         id="g859"
         transform="translate(0.25772176)"
         style="stroke-width:1.00526">
        <path
           id="path888"
           style="font-variation-settings:normal;opacity:1;vector-effect:none;fill:#800000;fill-opacity:1;stroke:none;stroke-width:0.50263;stroke-linecap:butt;stroke-linejoin:miter;stroke-miterlimit:4;stroke-dasharray:none;stroke-dashoffset:0;stroke-opacity:1;stop-color:#000000;stop-opacity:1"
           d="m 456.11133,237.44922 c -0.13682,0.006 -1.32617,0.56836 -1.32617,0.56836 0,0 4.22407,15.55357 -2.74024,29.75 -6.96427,14.19643 -12.60156,66.4668 -12.60156,66.4668 -3.84748,-11.81626 -5.37671,-15.68173 -13.54688,-27.3711 -8.1702,-11.68936 -16.36681,-16.17938 -18.36679,-18.70282 -1.99994,-2.52345 1.24806,-7.60505 0.71485,-23.41993 -0.53322,-15.81487 -8.88321,-19.596 -8.88321,-19.596 l -1.70313,0.56836 c 0,0 3.49442,5.17997 3.22657,14.28711 -0.26797,9.10714 -5.39649,12.05469 -5.39649,12.05469 0,0 1.62237,-11.67822 -1.88476,-20.98242 -3.50714,-9.30422 -9.91407,-10.17579 -9.91407,-10.17579 l -1.51562,1.13672 c 0,0 3.7115,4.03823 5.05078,12.3418 1.33931,8.30357 -2.13281,14.12891 -2.13281,14.12891 0,0 -0.30564,-9.83698 -4.85547,-18.62891 -4.5498,-8.79194 -9.65404,-10.16907 -12.02735,-9.85938 l -1.32421,1.32618 c 0,0 5.07114,3.65904 8.01757,10.35547 2.94643,6.69643 0.91211,15.47851 0.91211,15.47851 -1.47755,-5.229 -3.26528,-11.83466 -8.97265,-17.86719 -5.70738,-6.03252 -11.19532,-5.46484 -11.19532,-5.46484 l -1.32617,1.32617 10.71289,11.0957 59.1543,121.41211 -101.32422,5.70118 -3.36328,1.88867 c -0.16592,0.78731 -0.17855,1.28514 -0.16797,2.07245 4.0737,-0.79824 9.85484,-0.51086 15.85788,0.0717 7.02826,0.68203 11.13981,3.11173 18.17553,3.22889 7.03571,0.11717 9.19874,-1.46801 14.46484,-1.33789 5.2661,0.13002 16.95073,3.37781 33.95789,9.83204 16.59726,6.29865 24.59891,7.44343 35.98927,6.80673 11.39036,-0.6367 21.50201,-3.97074 21.50201,-3.97074 6.5046,2.81212 14.79164,5.68026 20.9686,7.20893 4.02081,-3.75489 7.87135,-7.68747 11.46875,-11.82813 l -1.81922,-0.67288 3.06726,-0.78415 c 2.91999,-3.45861 6.03883,-7.5362 8.55459,-11.30163 l -1.64528,-0.24229 2.26452,-0.80569 c 2.80759,-4.35696 5.31294,-8.92824 7.44531,-13.74219 l -1.45117,-0.40234 c 0,0 -15.06027,4.66183 -27.51562,5.86719 -12.45536,1.20536 -22.04463,-3.02534 -22.04463,-3.02534 3.40925,-1.76769 11.34571,-5.85552 11.34571,-5.85552 2.27849,-7.59494 3.90959,-14.7219 3.95117,-31.47266 0.0416,-16.75076 -2.98423,-24.35606 -2.98423,-27.57592 0,-3.21986 4.78653,-5.92804 14.39424,-16.66606 9.60767,-10.73803 5.87094,-22.72872 5.87094,-22.72872 l -2.46094,-0.18945 c 0,0 -1.24302,5.5943 -6.06445,12.55859 -4.82143,6.96429 -10.98242,7.13867 -10.98242,7.13867 0,0 7.95391,-7.76615 10.98437,-17.23633 3.03047,-9.47018 -1.51562,-15.33984 -1.51562,-15.33984 l -2.27149,0.37695 c 0,0 0.57087,6.04325 -2.77734,13.27539 -3.34821,7.23215 -10.30273,9.18555 -10.30273,9.18555 0,0 5.92278,-7.91103 7.20703,-16.77734 1.30631,-9.01837 0.26511,-13.09999 -3.78711,-16.09961 -0.4825,-0.0144 -1.89453,0.3789 -1.89453,0.3789 0,0 0.60771,6.83817 -0.59766,13.13282 -1.20537,6.29464 -7.54688,11.49023 -7.54688,11.49023 2.09027,-5.01577 4.51485,-13.13164 2.8418,-21.7832 -1.5767,-8.1535 -5.87109,-10.60547 -5.87109,-10.60547 z m 28.60351,145.71484 c 4.82979,1.04153 11.22461,1.10742 11.22461,1.10742 l -16.52734,2.96485 z m -13.00586,10.73242 c 0,0 1.00162,1.24682 2.5586,1.41993 1.5569,0.17299 11.70898,1.04492 11.70898,1.04492 0,0 -2.05116,1.41782 -7.25976,0.84961 -5.20861,-0.56822 -9.08985,-1.70508 -9.08985,-1.70508 z"
           transform="matrix(0.26458333,0,0,0.26458333,-0.25772176,0)"
           sodipodi:nodetypes="ccscsssccccsccscsccscscccccccsssssccccccccccsccsssccscsccscsccscsccccccscscc" />
        <path
           style="font-variation-settings:normal;opacity:1;vector-effect:none;fill:#cccccc;fill-opacity:1;stroke:none;stroke-width:0.132988;stroke-linecap:butt;stroke-linejoin:miter;stroke-miterlimit:4;stroke-dasharray:none;stroke-dashoffset:0;stroke-opacity:1;stop-color:#000000;stop-opacity:1"
           d="m 124.14599,104.81337 c -0.32759,-0.0208 -0.26768,-0.41068 -0.37061,-0.5746 0.28978,-0.24148 0.5589,-0.46402 0.817,-0.67816 0.1878,0.29124 0.27798,0.45315 0.54089,0.48595 0.26291,0.0328 2.57522,0.23607 4.38494,0.33985 0.75168,-0.86796 1.13445,-1.32869 1.80039,-2.25414 l -0.60949,-0.38508 c -1.28912,0.31429 -3.56336,0.76636 -3.90216,0.82476 -0.3388,0.0584 -0.36437,-0.23447 -0.62677,-0.36294 0.48945,-0.43409 1.01382,-0.91982 1.64146,-1.5319 1.29078,0.27404 2.72358,0.43531 4.23716,0.42521 0.75928,-1.09415 1.20814,-1.783844 1.86997,-2.928985 -3.12229,-0.148986 -6.89963,0.488962 -9.12226,0.415732 -2.22263,-0.07323 -3.23573,-0.366092 -4.08421,-0.801808 0.90203,-0.467702 2.50566,-1.386481 2.50566,-1.386481 0.60285,-2.009493 1.09149,-3.435774 1.10249,-7.867746 0.011,-4.431972 -1.00226,-6.715147 -1.00226,-7.567069 0,-0.851921 1.76769,-1.969745 4.30972,-4.810852 1.4407,-1.610204 1.69998,-3.04295 1.65342,-4.032899 -0.0356,-0.756753 -0.2857,-0.853859 -0.2857,-0.853859 -1.46401,2.137562 -3.15011,3.411753 -5.27654,4.385628 0,0 2.25508,-2.154861 3.05689,-4.660512 0.29333,-0.916657 0.33253,-1.546992 0.25484,-2.077264 -0.13466,-0.919208 -0.57019,-0.919878 -0.57019,-0.919878 -0.88285,2.089458 -2.456,3.909918 -4.34516,5.252228 0,0 1.54879,-2.067077 2.05463,-4.660512 0.16538,-0.847924 0.19233,-1.484471 0.13427,-1.997277 -0.11641,-1.02825 -0.46744,-1.068471 -0.82976,-1.285865 -0.72422,2.283749 -1.40269,4.185873 -3.21332,6.089472 0.55295,-1.32709 1.19435,-3.62428 1.00226,-5.813112 -0.19209,-2.188832 -1.06097,-1.826302 -1.06097,-1.826302 -0.15035,1.403165 -0.0941,2.775931 -2.09867,6.584522 -2.00452,3.808591 -4.23278,5.045696 -4.23278,7.952252 0,2.906556 2.942,5.437569 1.37885,10.842655 -0.35046,-1.594958 -1.27202,-4.09875 -3.43371,-7.191562 -2.1617,-3.092811 -4.53118,-4.781965 -5.06034,-5.449626 -0.52915,-0.667662 0.16191,-2.641671 0.38946,-6.447196 0.10709,-1.790882 -0.35037,-2.970005 -0.88953,-3.760128 -0.60651,-0.888844 -1.02671,-0.601207 -1.02671,-0.601207 0.18033,2.584566 -0.52309,4.096027 -1.45842,6.396451 0,0 0.4289,-3.089471 -0.49903,-5.551209 -0.23834,-0.63229 -0.53432,-1.1259 -0.8125,-1.47807 -0.8049,-1.018958 -1.25578,-0.624183 -1.25578,-0.624183 0.60591,2.185894 0.45287,4.628959 -0.18354,6.764342 0,0 -0.0807,-2.602481 -1.284506,-4.928682 -0.288317,-0.557138 -0.568954,-0.985624 -0.840302,-1.32103 -0.861604,-1.065005 -1.365839,-0.901518 -1.843381,-0.839203 0.850926,2.239632 1.55998,4.109588 1.363375,6.787441 -0.390935,-1.383507 -0.864085,-3.131216 -2.374161,-4.727322 -0.307487,-0.325005 -0.598094,-0.57021 -0.862519,-0.756464 -1.034173,-0.728441 -1.344271,-0.361591 -1.344271,-0.361591 0.7537,1.193065 1.525679,1.982112 2.320313,6.212008 0.794633,4.229897 -0.04946,7.031532 1.755875,9.309438 1.80533,2.277906 4.631297,3.292794 7.277137,7.552268 2.64584,4.259475 3.14349,8.050886 -0.59073,10.183692 -3.91349,0.525587 -6.055807,0.671086 -8.352706,0.55005 -1.169378,-1.948942 -3.260058,-1.559152 -4.642034,-0.425223 -1.381975,1.133929 -2.674448,1.715278 -4.748327,1.948948 -2.073879,0.23367 -2.287002,0.82643 -2.586774,1.55914 0,0 1.027623,-0.22438 3.508092,-0.18898 2.480469,0.0354 3.260044,0.6733 5.38616,0.7087 2.126117,0.0354 2.267858,-0.49609 3.89788,-0.35435 1.630022,0.14174 3.862449,0.74414 8.929689,2.55134 5.06724,1.8072 6.94531,1.98437 10.52427,1.70089 3.57897,-0.28348 5.56334,-1.24023 5.56334,-1.24023 0.25866,0.41527 0.41036,0.67588 0.6024,0.77957 0.19204,0.10369 2.33443,1.01295 3.96875,1.41741 0.82856,-0.74533 1.3212,-1.21813 2.05924,-2.03304 l -0.33486,-0.15193 c -1.01646,0.0532 -3.90826,-0.29068 -4.23584,-0.31148 z"
           id="path869"
           sodipodi:nodetypes="sccscccsccccsccssssccssccssccscsscssssscssscssccsscszzccsscssssscscccs" />
        <path
           id="path884"
           style="font-variation-settings:normal;opacity:1;vector-effect:none;fill:#ffffff;fill-opacity:1;stroke:none;stroke-width:0.50263;stroke-linecap:butt;stroke-linejoin:miter;stroke-miterlimit:4;stroke-dasharray:none;stroke-dashoffset:0;stroke-opacity:1;stop-color:#000000;stop-opacity:1"
           d="m 453.81055,238.01758 c -0.56826,5.3033 -0.75785,12.49985 -8.33399,26.89453 -7.57614,14.39467 -16.66601,21.21381 -16.66601,32.19922 0,10.98541 10.98525,16.66815 6.81836,39.77539 -1.24672,6.43944 -4.64648,15.79213 -14.02149,24.0957 -9.37497,8.30357 -20.51953,9.2832 -20.51953,9.2832 9.40827,-8.32587 7.53634,-22.33912 -3.42187,-39.98046 -10.95822,-17.64135 -18.26699,-16.69528 -25.88282,-26.30469 -7.61584,-9.60941 -2.60799,-16.38018 -5.61132,-32.36719 -3.00335,-15.98701 -6.56589,-20.04005 -9.41452,-24.54927 0,0 1.1189,-0.16322 3.00977,0.14257 -3.90104,-2.74209 -6.41992,-2.03711 -6.41992,-2.03711 2.84863,4.50923 6.03421,8.56422 9.03756,24.55123 3.00333,15.98702 -0.45417,26.97653 6.36914,35.58594 6.82329,8.60941 17.80871,12.57112 26.5664,26.66992 8.7577,14.0988 13.88898,30.56205 -0.22461,38.62305 -14.79114,1.98647 -23.02193,2.26801 -31.70312,1.81055 -4.4197,-7.36608 -12.18694,-6.02595 -17.41016,-1.74024 -5.22321,4.28572 -10.64414,7.152 -18.48242,8.03516 -7.83828,0.88316 -8.64323,3.7932 -8.97266,6.5625 0,0 0.66055,-0.10932 1.6543,-0.23633 0.56844,-1.44159 1.88897,-2.80919 5.10156,-3.39063 4.09079,-0.74033 7.17894,-0.79632 11.10157,-2.24218 3.92263,-1.44582 7.51567,-0.80406 9.9707,1.86523 1.13292,-0.78262 1.6913,-1.33235 2.13476,-2.83789 -2.8555,0.53012 -2.47355,-0.78349 -5.42773,-1.53906 2.2425,-3.37492 5.72789,-6.21243 9.67188,-6.66406 3.94397,-0.45164 7.42994,0.3754 10.6582,4.27148 8.68119,0.45746 19.76151,0.42468 37.38476,-1.32617 17.6233,-1.75085 33.09541,-11.71023 37.66407,-35.68359 4.56865,-23.97337 -6.41797,-29.65522 -6.41797,-40.64063 0,-10.98541 8.01074,-15.85728 15.06054,-29.25195 7.04984,-13.39468 8.03488,-18.91406 8.20118,-24.61914 0,0 2.06215,0.78883 3.07226,4.89257 -0.72601,-8.27275 -4.54687,-9.84765 -4.54687,-9.84765 z m -86.92969,3.26562 c -0.3497,-0.004 -0.67404,0.0199 -0.9707,0.0586 3.21609,8.46475 5.62756,16.06899 6.08984,26.59179 1.02173,4.03035 2.08398,5.11328 2.08398,5.11329 0.249,-10.52281 -1.69204,-20.96689 -5.71093,-29.43165 0,0 2.21687,-0.21129 5.4414,1.83594 -2.7232,-3.36879 -5.15466,-4.14516 -6.93359,-4.16797 z m 14.31836,0.75 c 2.29005,8.26165 2.38216,18.16475 0.64648,27.03907 -0.0707,3.35339 1.00586,4.70703 1.00586,4.70703 2.653,-9.06543 3.14154,-20.87483 0.81055,-29.09571 0,0 1.56262,0.0632 3.62305,1.18164 -3.01791,-3.757 -6.08594,-3.83203 -6.08594,-3.83203 z m 85.11328,3.18164 c -2.73721,8.6315 -5.57047,16.08906 -11.74414,24.62305 -0.82069,2.33598 -0.18945,3.59766 -0.18945,3.59766 6.44541,-7.99048 10.56381,-16.47346 13.06836,-25.57032 0,0 1.49058,0.7968 2.40234,3.81641 -0.42711,-3.93607 -2.15953,-5.64025 -3.53711,-6.4668 z m -69.62891,0.49805 c 0.68157,9.76844 -0.9063,18.02423 -4.4414,26.71875 0,0 -0.51763,2.0915 0.75781,3.78906 4.10332,-8.50511 6.06828,-17.33117 5.38672,-27.09961 1.09486,0.31282 2.19309,0.75256 3.24805,1.40821 -2.31485,-3.45989 -4.95118,-4.81641 -4.95118,-4.81641 z m 81.18164,9.53906 c -3.33675,7.89717 -9.41678,15.71688 -16.28906,21.59375 -1.95719,2.71479 -1.51562,4.73438 -1.51562,4.73438 7.44045,-6.44508 15.22574,-15.39971 18.5625,-23.29688 0,0 0.79524,0.68005 1.53125,2.1875 -0.45239,-3.67789 -2.28907,-5.21875 -2.28907,-5.21875 z m 9.84961,12.50196 c -5.53326,8.07897 -11.90727,13.56335 -20.07812,18.18164 -1.06711,1.04255 -1.73072,1.81204 -1.13477,3.2207 8.17081,-4.61829 15.49017,-10.10462 21.02344,-18.18359 0,0 0.51622,0.569 1.13477,1.61523 -0.10265,-2.98709 -0.94532,-4.83398 -0.94532,-4.83398 z m -20.07812,18.18164 c 0,0 0.57697,-0.55692 1.46875,-1.52149 z m 39.52344,83.46484 c -12.06864,0.10655 -26.57607,2.55021 -34.97657,2.27344 -8.40049,-0.27678 -11.66159,-1.1948 -15.91015,-2.08399 l -2.00977,1.07032 c 5.98965,1.69276 8.31435,2.34236 16.71485,2.61914 8.09316,0.26665 23.31183,-1.96964 35.20898,-2.23047 0.32438,-0.54927 0.65379,-1.09671 0.97266,-1.64844 z m -56.02735,4.83984 c -1.57974,0.0625 -2.60547,0.625 -2.60547,0.625 7.23217,0.66965 9.91016,5.625 9.91016,5.625 5.75894,-1.07145 5.089,2.00894 6.83008,2.8125 1.74108,0.80357 8.39644,3.8253 10.16015,4.60547 1.76372,0.78002 3.532,0.64651 4.8125,0.42578 1.28051,-0.22072 8.67071,-1.7965 13.54297,-2.98437 l 2.53907,0.66211 c 0.40909,-0.5528 0.82134,-1.10442 1.22265,-1.66211 l -2.95898,-0.74023 c -4.87227,1.18786 -13.46755,2.89646 -14.74805,3.11718 -1.2805,0.22073 -1.9438,0.0617 -2.93555,-0.42383 -4.57175,-2.09109 -11.5,-4.74023 -11.5,-4.74023 -1.87502,-4.82143 -6.42968,-2.8125 -6.42968,-2.8125 -2.86273,-3.84208 -5.80875,-4.5901 -7.83985,-4.50977 z m 16.67969,19.73243 -1.47266,0.80468 c 0.38903,0.61954 1.49429,1.96631 2.73243,2.04493 1.23809,0.0786 10.50119,0.90039 12.80273,0.90039 2.30158,0 3.34766,-0.40039 3.34766,-0.40039 l 1.26562,0.57421 c 0.36331,-0.39126 0.7319,-0.7786 1.08984,-1.17382 l -1.81835,-0.74024 c 0,0 -0.78045,0.40235 -3.08204,0.40235 -2.30154,0 -11.56268,-0.82373 -12.80078,-0.90235 -1.23813,-0.0786 -1.67542,-0.89022 -2.06445,-1.50976 z"
           transform="scale(0.26458333)"
           sodipodi:nodetypes="csscscssscccsssccssccsscccscssssccccccccccccccccccccccccccccccccccccccccccccsccsccsccscsccccscccsccssccccssc" />
      </g>
      <g
         id="use1004"
         transform="translate(-36.653411,40.905199)"
         style="stroke-width:1.00526">
        <path
           id="path1137"
           style="font-variation-settings:normal;opacity:1;vector-effect:none;fill:#800000;fill-opacity:1;stroke:none;stroke-width:0.50263;stroke-linecap:butt;stroke-linejoin:miter;stroke-miterlimit:4;stroke-dasharray:none;stroke-dashoffset:0;stroke-opacity:1;stop-color:#000000;stop-opacity:1"
           d="m 456.11133,237.44922 c -0.13682,0.006 -1.32617,0.56836 -1.32617,0.56836 0,0 4.22407,15.55357 -2.74024,29.75 -6.96427,14.19643 -12.60156,66.4668 -12.60156,66.4668 -3.84748,-11.81626 -5.37671,-15.68173 -13.54688,-27.3711 -8.1702,-11.68936 -16.36681,-16.17938 -18.36679,-18.70282 -1.99994,-2.52345 1.24806,-7.60505 0.71485,-23.41993 -0.53322,-15.81487 -8.88321,-19.596 -8.88321,-19.596 l -1.70313,0.56836 c 0,0 3.49442,5.17997 3.22657,14.28711 -0.26797,9.10714 -5.39649,12.05469 -5.39649,12.05469 0,0 1.62237,-11.67822 -1.88476,-20.98242 -3.50714,-9.30422 -9.91407,-10.17579 -9.91407,-10.17579 l -1.51562,1.13672 c 0,0 3.7115,4.03823 5.05078,12.3418 1.33931,8.30357 -2.13281,14.12891 -2.13281,14.12891 0,0 -0.30564,-9.83698 -4.85547,-18.62891 -4.5498,-8.79194 -9.65404,-10.16907 -12.02735,-9.85938 l -1.32421,1.32618 c 0,0 5.07114,3.65904 8.01757,10.35547 2.94643,6.69643 0.91211,15.47851 0.91211,15.47851 -1.47755,-5.229 -3.26528,-11.83466 -8.97265,-17.86719 -5.70738,-6.03252 -11.19532,-5.46484 -11.19532,-5.46484 l -1.32617,1.32617 10.71289,11.0957 59.1543,121.41211 -101.32422,5.70118 -3.36328,1.88867 c -0.16592,0.78731 -0.17855,1.28514 -0.16797,2.07245 4.0737,-0.79824 9.85484,-0.51086 15.85788,0.0717 7.02826,0.68203 11.13981,3.11173 18.17553,3.22889 7.03571,0.11717 9.19874,-1.46801 14.46484,-1.33789 5.2661,0.13002 16.95073,3.37781 33.95789,9.83204 16.59726,6.29865 24.59891,7.44343 35.98927,6.80673 11.39036,-0.6367 21.50201,-3.97074 21.50201,-3.97074 6.5046,2.81212 14.79164,5.68026 20.9686,7.20893 4.02081,-3.75489 7.87135,-7.68747 11.46875,-11.82813 l -1.81922,-0.67288 3.06726,-0.78415 c 2.91999,-3.45861 6.03883,-7.5362 8.55459,-11.30163 l -1.64528,-0.24229 2.26452,-0.80569 c 2.80759,-4.35696 5.31294,-8.92824 7.44531,-13.74219 l -1.45117,-0.40234 c 0,0 -15.06027,4.66183 -27.51562,5.86719 -12.45536,1.20536 -22.04463,-3.02534 -22.04463,-3.02534 3.40925,-1.76769 11.34571,-5.85552 11.34571,-5.85552 2.27849,-7.59494 3.90959,-14.7219 3.95117,-31.47266 0.0416,-16.75076 -2.98423,-24.35606 -2.98423,-27.57592 0,-3.21986 4.78653,-5.92804 14.39424,-16.66606 9.60767,-10.73803 5.87094,-22.72872 5.87094,-22.72872 l -2.46094,-0.18945 c 0,0 -1.24302,5.5943 -6.06445,12.55859 -4.82143,6.96429 -10.98242,7.13867 -10.98242,7.13867 0,0 7.95391,-7.76615 10.98437,-17.23633 3.03047,-9.47018 -1.51562,-15.33984 -1.51562,-15.33984 l -2.27149,0.37695 c 0,0 0.57087,6.04325 -2.77734,13.27539 -3.34821,7.23215 -10.30273,9.18555 -10.30273,9.18555 0,0 5.92278,-7.91103 7.20703,-16.77734 1.30631,-9.01837 0.26511,-13.09999 -3.78711,-16.09961 -0.4825,-0.0144 -1.89453,0.3789 -1.89453,0.3789 0,0 0.60771,6.83817 -0.59766,13.13282 -1.20537,6.29464 -7.54688,11.49023 -7.54688,11.49023 2.09027,-5.01577 4.51485,-13.13164 2.8418,-21.7832 -1.5767,-8.1535 -5.87109,-10.60547 -5.87109,-10.60547 z m 28.60351,145.71484 c 4.82979,1.04153 11.22461,1.10742 11.22461,1.10742 l -16.52734,2.96485 z m -13.00586,10.73242 c 0,0 1.00162,1.24682 2.5586,1.41993 1.5569,0.17299 11.70898,1.04492 11.70898,1.04492 0,0 -2.05116,1.41782 -7.25976,0.84961 -5.20861,-0.56822 -9.08985,-1.70508 -9.08985,-1.70508 z"
           transform="matrix(0.26458333,0,0,0.26458333,-0.25772176,0)"
           sodipodi:nodetypes="ccscsssccccsccscsccscscccccccsssssccccccccccsccsssccscsccscsccscsccccccscscc" />
        <path
           style="font-variation-settings:normal;opacity:1;vector-effect:none;fill:#cccccc;fill-opacity:1;stroke:none;stroke-width:0.132988;stroke-linecap:butt;stroke-linejoin:miter;stroke-miterlimit:4;stroke-dasharray:none;stroke-dashoffset:0;stroke-opacity:1;stop-color:#000000;stop-opacity:1"
           d="m 124.14599,104.81337 c -0.32759,-0.0208 -0.26768,-0.41068 -0.37061,-0.5746 0.28978,-0.24148 0.5589,-0.46402 0.817,-0.67816 0.1878,0.29124 0.27798,0.45315 0.54089,0.48595 0.26291,0.0328 2.57522,0.23607 4.38494,0.33985 0.75168,-0.86796 1.13445,-1.32869 1.80039,-2.25414 l -0.60949,-0.38508 c -1.28912,0.31429 -3.56336,0.76636 -3.90216,0.82476 -0.3388,0.0584 -0.36437,-0.23447 -0.62677,-0.36294 0.48945,-0.43409 1.01382,-0.91982 1.64146,-1.5319 1.29078,0.27404 2.72358,0.43531 4.23716,0.42521 0.75928,-1.09415 1.20814,-1.783844 1.86997,-2.928985 -3.12229,-0.148986 -6.89963,0.488962 -9.12226,0.415732 -2.22263,-0.07323 -3.23573,-0.366092 -4.08421,-0.801808 0.90203,-0.467702 2.50566,-1.386481 2.50566,-1.386481 0.60285,-2.009493 1.09149,-3.435774 1.10249,-7.867746 0.011,-4.431972 -1.00226,-6.715147 -1.00226,-7.567069 0,-0.851921 1.76769,-1.969745 4.30972,-4.810852 1.4407,-1.610204 1.69998,-3.04295 1.65342,-4.032899 -0.0356,-0.756753 -0.2857,-0.853859 -0.2857,-0.853859 -1.46401,2.137562 -3.15011,3.411753 -5.27654,4.385628 0,0 2.25508,-2.154861 3.05689,-4.660512 0.29333,-0.916657 0.33253,-1.546992 0.25484,-2.077264 -0.13466,-0.919208 -0.57019,-0.919878 -0.57019,-0.919878 -0.88285,2.089458 -2.456,3.909918 -4.34516,5.252228 0,0 1.54879,-2.067077 2.05463,-4.660512 0.16538,-0.847924 0.19233,-1.484471 0.13427,-1.997277 -0.11641,-1.02825 -0.46744,-1.068471 -0.82976,-1.285865 -0.72422,2.283749 -1.40269,4.185873 -3.21332,6.089472 0.55295,-1.32709 1.19435,-3.62428 1.00226,-5.813112 -0.19209,-2.188832 -1.06097,-1.826302 -1.06097,-1.826302 -0.15035,1.403165 -0.0941,2.775931 -2.09867,6.584522 -2.00452,3.808591 -4.23278,5.045696 -4.23278,7.952252 0,2.906556 2.942,5.437569 1.37885,10.842655 -0.35046,-1.594958 -1.27202,-4.09875 -3.43371,-7.191562 -2.1617,-3.092811 -4.53118,-4.781965 -5.06034,-5.449626 -0.52915,-0.667662 0.16191,-2.641671 0.38946,-6.447196 0.10709,-1.790882 -0.35037,-2.970005 -0.88953,-3.760128 -0.60651,-0.888844 -1.02671,-0.601207 -1.02671,-0.601207 0.18033,2.584566 -0.52309,4.096027 -1.45842,6.396451 0,0 0.4289,-3.089471 -0.49903,-5.551209 -0.23834,-0.63229 -0.53432,-1.1259 -0.8125,-1.47807 -0.8049,-1.018958 -1.25578,-0.624183 -1.25578,-0.624183 0.60591,2.185894 0.45287,4.628959 -0.18354,6.764342 0,0 -0.0807,-2.602481 -1.284506,-4.928682 -0.288317,-0.557138 -0.568954,-0.985624 -0.840302,-1.32103 -0.861604,-1.065005 -1.365839,-0.901518 -1.843381,-0.839203 0.850926,2.239632 1.55998,4.109588 1.363375,6.787441 -0.390935,-1.383507 -0.864085,-3.131216 -2.374161,-4.727322 -0.307487,-0.325005 -0.598094,-0.57021 -0.862519,-0.756464 -1.034173,-0.728441 -1.344271,-0.361591 -1.344271,-0.361591 0.7537,1.193065 1.525679,1.982112 2.320313,6.212008 0.794633,4.229897 -0.04946,7.031532 1.755875,9.309438 1.80533,2.277906 4.631297,3.292794 7.277137,7.552268 2.64584,4.259475 3.14349,8.050886 -0.59073,10.183692 -3.91349,0.525587 -6.055807,0.671086 -8.352706,0.55005 -1.169378,-1.948942 -3.260058,-1.559152 -4.642034,-0.425223 -1.381975,1.133929 -2.674448,1.715278 -4.748327,1.948948 -2.073879,0.23367 -2.287002,0.82643 -2.586774,1.55914 0,0 1.027623,-0.22438 3.508092,-0.18898 2.480469,0.0354 3.260044,0.6733 5.38616,0.7087 2.126117,0.0354 2.267858,-0.49609 3.89788,-0.35435 1.630022,0.14174 3.862449,0.74414 8.929689,2.55134 5.06724,1.8072 6.94531,1.98437 10.52427,1.70089 3.57897,-0.28348 5.56334,-1.24023 5.56334,-1.24023 0.25866,0.41527 0.41036,0.67588 0.6024,0.77957 0.19204,0.10369 2.33443,1.01295 3.96875,1.41741 0.82856,-0.74533 1.3212,-1.21813 2.05924,-2.03304 l -0.33486,-0.15193 c -1.01646,0.0532 -3.90826,-0.29068 -4.23584,-0.31148 z"
           id="path1139"
           sodipodi:nodetypes="sccscccsccccsccssssccssccssccscsscssssscssscssccsscszzccsscssssscscccs" />
        <path
           id="path1141"
           style="font-variation-settings:normal;opacity:1;vector-effect:none;fill:#ffffff;fill-opacity:1;stroke:none;stroke-width:0.50263;stroke-linecap:butt;stroke-linejoin:miter;stroke-miterlimit:4;stroke-dasharray:none;stroke-dashoffset:0;stroke-opacity:1;stop-color:#000000;stop-opacity:1"
           d="m 453.81055,238.01758 c -0.56826,5.3033 -0.75785,12.49985 -8.33399,26.89453 -7.57614,14.39467 -16.66601,21.21381 -16.66601,32.19922 0,10.98541 10.98525,16.66815 6.81836,39.77539 -1.24672,6.43944 -4.64648,15.79213 -14.02149,24.0957 -9.37497,8.30357 -20.51953,9.2832 -20.51953,9.2832 9.40827,-8.32587 7.53634,-22.33912 -3.42187,-39.98046 -10.95822,-17.64135 -18.26699,-16.69528 -25.88282,-26.30469 -7.61584,-9.60941 -2.60799,-16.38018 -5.61132,-32.36719 -3.00335,-15.98701 -6.56589,-20.04005 -9.41452,-24.54927 0,0 1.1189,-0.16322 3.00977,0.14257 -3.90104,-2.74209 -6.41992,-2.03711 -6.41992,-2.03711 2.84863,4.50923 6.03421,8.56422 9.03756,24.55123 3.00333,15.98702 -0.45417,26.97653 6.36914,35.58594 6.82329,8.60941 17.80871,12.57112 26.5664,26.66992 8.7577,14.0988 13.88898,30.56205 -0.22461,38.62305 -14.79114,1.98647 -23.02193,2.26801 -31.70312,1.81055 -4.4197,-7.36608 -12.18694,-6.02595 -17.41016,-1.74024 -5.22321,4.28572 -10.64414,7.152 -18.48242,8.03516 -7.83828,0.88316 -8.64323,3.7932 -8.97266,6.5625 0,0 0.66055,-0.10932 1.6543,-0.23633 0.56844,-1.44159 1.88897,-2.80919 5.10156,-3.39063 4.09079,-0.74033 7.17894,-0.79632 11.10157,-2.24218 3.92263,-1.44582 7.51567,-0.80406 9.9707,1.86523 1.13292,-0.78262 1.6913,-1.33235 2.13476,-2.83789 -2.8555,0.53012 -2.47355,-0.78349 -5.42773,-1.53906 2.2425,-3.37492 5.72789,-6.21243 9.67188,-6.66406 3.94397,-0.45164 7.42994,0.3754 10.6582,4.27148 8.68119,0.45746 19.76151,0.42468 37.38476,-1.32617 17.6233,-1.75085 33.09541,-11.71023 37.66407,-35.68359 4.56865,-23.97337 -6.41797,-29.65522 -6.41797,-40.64063 0,-10.98541 8.01074,-15.85728 15.06054,-29.25195 7.04984,-13.39468 8.03488,-18.91406 8.20118,-24.61914 0,0 2.06215,0.78883 3.07226,4.89257 -0.72601,-8.27275 -4.54687,-9.84765 -4.54687,-9.84765 z m -86.92969,3.26562 c -0.3497,-0.004 -0.67404,0.0199 -0.9707,0.0586 3.21609,8.46475 5.62756,16.06899 6.08984,26.59179 1.02173,4.03035 2.08398,5.11328 2.08398,5.11329 0.249,-10.52281 -1.69204,-20.96689 -5.71093,-29.43165 0,0 2.21687,-0.21129 5.4414,1.83594 -2.7232,-3.36879 -5.15466,-4.14516 -6.93359,-4.16797 z m 14.31836,0.75 c 2.29005,8.26165 2.38216,18.16475 0.64648,27.03907 -0.0707,3.35339 1.00586,4.70703 1.00586,4.70703 2.653,-9.06543 3.14154,-20.87483 0.81055,-29.09571 0,0 1.56262,0.0632 3.62305,1.18164 -3.01791,-3.757 -6.08594,-3.83203 -6.08594,-3.83203 z m 85.11328,3.18164 c -2.73721,8.6315 -5.57047,16.08906 -11.74414,24.62305 -0.82069,2.33598 -0.18945,3.59766 -0.18945,3.59766 6.44541,-7.99048 10.56381,-16.47346 13.06836,-25.57032 0,0 1.49058,0.7968 2.40234,3.81641 -0.42711,-3.93607 -2.15953,-5.64025 -3.53711,-6.4668 z m -69.62891,0.49805 c 0.68157,9.76844 -0.9063,18.02423 -4.4414,26.71875 0,0 -0.51763,2.0915 0.75781,3.78906 4.10332,-8.50511 6.06828,-17.33117 5.38672,-27.09961 1.09486,0.31282 2.19309,0.75256 3.24805,1.40821 -2.31485,-3.45989 -4.95118,-4.81641 -4.95118,-4.81641 z m 81.18164,9.53906 c -3.33675,7.89717 -9.41678,15.71688 -16.28906,21.59375 -1.95719,2.71479 -1.51562,4.73438 -1.51562,4.73438 7.44045,-6.44508 15.22574,-15.39971 18.5625,-23.29688 0,0 0.79524,0.68005 1.53125,2.1875 -0.45239,-3.67789 -2.28907,-5.21875 -2.28907,-5.21875 z m 9.84961,12.50196 c -5.53326,8.07897 -11.90727,13.56335 -20.07812,18.18164 -1.06711,1.04255 -1.73072,1.81204 -1.13477,3.2207 8.17081,-4.61829 15.49017,-10.10462 21.02344,-18.18359 0,0 0.51622,0.569 1.13477,1.61523 -0.10265,-2.98709 -0.94532,-4.83398 -0.94532,-4.83398 z m -20.07812,18.18164 c 0,0 0.57697,-0.55692 1.46875,-1.52149 z m 39.52344,83.46484 c -12.06864,0.10655 -26.57607,2.55021 -34.97657,2.27344 -8.40049,-0.27678 -11.66159,-1.1948 -15.91015,-2.08399 l -2.00977,1.07032 c 5.98965,1.69276 8.31435,2.34236 16.71485,2.61914 8.09316,0.26665 23.31183,-1.96964 35.20898,-2.23047 0.32438,-0.54927 0.65379,-1.09671 0.97266,-1.64844 z m -56.02735,4.83984 c -1.57974,0.0625 -2.60547,0.625 -2.60547,0.625 7.23217,0.66965 9.91016,5.625 9.91016,5.625 5.75894,-1.07145 5.089,2.00894 6.83008,2.8125 1.74108,0.80357 8.39644,3.8253 10.16015,4.60547 1.76372,0.78002 3.532,0.64651 4.8125,0.42578 1.28051,-0.22072 8.67071,-1.7965 13.54297,-2.98437 l 2.53907,0.66211 c 0.40909,-0.5528 0.82134,-1.10442 1.22265,-1.66211 l -2.95898,-0.74023 c -4.87227,1.18786 -13.46755,2.89646 -14.74805,3.11718 -1.2805,0.22073 -1.9438,0.0617 -2.93555,-0.42383 -4.57175,-2.09109 -11.5,-4.74023 -11.5,-4.74023 -1.87502,-4.82143 -6.42968,-2.8125 -6.42968,-2.8125 -2.86273,-3.84208 -5.80875,-4.5901 -7.83985,-4.50977 z m 16.67969,19.73243 -1.47266,0.80468 c 0.38903,0.61954 1.49429,1.96631 2.73243,2.04493 1.23809,0.0786 10.50119,0.90039 12.80273,0.90039 2.30158,0 3.34766,-0.40039 3.34766,-0.40039 l 1.26562,0.57421 c 0.36331,-0.39126 0.7319,-0.7786 1.08984,-1.17382 l -1.81835,-0.74024 c 0,0 -0.78045,0.40235 -3.08204,0.40235 -2.30154,0 -11.56268,-0.82373 -12.80078,-0.90235 -1.23813,-0.0786 -1.67542,-0.89022 -2.06445,-1.50976 z"
           transform="scale(0.26458333)"
           sodipodi:nodetypes="csscscssscccsssccssccsscccscssssccccccccccccccccccccccccccccccccccccccccccccsccsccsccscsccccscccsccssccccssc" />
      </g>
      <g
         id="use1032"
         transform="translate(37.168848,40.905199)"
         style="stroke-width:1.00526">
        <path
           id="path1145"
           style="font-variation-settings:normal;opacity:1;vector-effect:none;fill:#800000;fill-opacity:1;stroke:none;stroke-width:0.50263;stroke-linecap:butt;stroke-linejoin:miter;stroke-miterlimit:4;stroke-dasharray:none;stroke-dashoffset:0;stroke-opacity:1;stop-color:#000000;stop-opacity:1"
           d="m 456.11133,237.44922 c -0.13682,0.006 -1.32617,0.56836 -1.32617,0.56836 0,0 4.22407,15.55357 -2.74024,29.75 -6.96427,14.19643 -12.60156,66.4668 -12.60156,66.4668 -3.84748,-11.81626 -5.37671,-15.68173 -13.54688,-27.3711 -8.1702,-11.68936 -16.36681,-16.17938 -18.36679,-18.70282 -1.99994,-2.52345 1.24806,-7.60505 0.71485,-23.41993 -0.53322,-15.81487 -8.88321,-19.596 -8.88321,-19.596 l -1.70313,0.56836 c 0,0 3.49442,5.17997 3.22657,14.28711 -0.26797,9.10714 -5.39649,12.05469 -5.39649,12.05469 0,0 1.62237,-11.67822 -1.88476,-20.98242 -3.50714,-9.30422 -9.91407,-10.17579 -9.91407,-10.17579 l -1.51562,1.13672 c 0,0 3.7115,4.03823 5.05078,12.3418 1.33931,8.30357 -2.13281,14.12891 -2.13281,14.12891 0,0 -0.30564,-9.83698 -4.85547,-18.62891 -4.5498,-8.79194 -9.65404,-10.16907 -12.02735,-9.85938 l -1.32421,1.32618 c 0,0 5.07114,3.65904 8.01757,10.35547 2.94643,6.69643 0.91211,15.47851 0.91211,15.47851 -1.47755,-5.229 -3.26528,-11.83466 -8.97265,-17.86719 -5.70738,-6.03252 -11.19532,-5.46484 -11.19532,-5.46484 l -1.32617,1.32617 10.71289,11.0957 59.1543,121.41211 -101.32422,5.70118 -3.36328,1.88867 c -0.16592,0.78731 -0.17855,1.28514 -0.16797,2.07245 4.0737,-0.79824 9.85484,-0.51086 15.85788,0.0717 7.02826,0.68203 11.13981,3.11173 18.17553,3.22889 7.03571,0.11717 9.19874,-1.46801 14.46484,-1.33789 5.2661,0.13002 16.95073,3.37781 33.95789,9.83204 16.59726,6.29865 24.59891,7.44343 35.98927,6.80673 11.39036,-0.6367 21.50201,-3.97074 21.50201,-3.97074 6.5046,2.81212 14.79164,5.68026 20.9686,7.20893 4.02081,-3.75489 7.87135,-7.68747 11.46875,-11.82813 l -1.81922,-0.67288 3.06726,-0.78415 c 2.91999,-3.45861 6.03883,-7.5362 8.55459,-11.30163 l -1.64528,-0.24229 2.26452,-0.80569 c 2.80759,-4.35696 5.31294,-8.92824 7.44531,-13.74219 l -1.45117,-0.40234 c 0,0 -15.06027,4.66183 -27.51562,5.86719 -12.45536,1.20536 -22.04463,-3.02534 -22.04463,-3.02534 3.40925,-1.76769 11.34571,-5.85552 11.34571,-5.85552 2.27849,-7.59494 3.90959,-14.7219 3.95117,-31.47266 0.0416,-16.75076 -2.98423,-24.35606 -2.98423,-27.57592 0,-3.21986 4.78653,-5.92804 14.39424,-16.66606 9.60767,-10.73803 5.87094,-22.72872 5.87094,-22.72872 l -2.46094,-0.18945 c 0,0 -1.24302,5.5943 -6.06445,12.55859 -4.82143,6.96429 -10.98242,7.13867 -10.98242,7.13867 0,0 7.95391,-7.76615 10.98437,-17.23633 3.03047,-9.47018 -1.51562,-15.33984 -1.51562,-15.33984 l -2.27149,0.37695 c 0,0 0.57087,6.04325 -2.77734,13.27539 -3.34821,7.23215 -10.30273,9.18555 -10.30273,9.18555 0,0 5.92278,-7.91103 7.20703,-16.77734 1.30631,-9.01837 0.26511,-13.09999 -3.78711,-16.09961 -0.4825,-0.0144 -1.89453,0.3789 -1.89453,0.3789 0,0 0.60771,6.83817 -0.59766,13.13282 -1.20537,6.29464 -7.54688,11.49023 -7.54688,11.49023 2.09027,-5.01577 4.51485,-13.13164 2.8418,-21.7832 -1.5767,-8.1535 -5.87109,-10.60547 -5.87109,-10.60547 z m 28.60351,145.71484 c 4.82979,1.04153 11.22461,1.10742 11.22461,1.10742 l -16.52734,2.96485 z m -13.00586,10.73242 c 0,0 1.00162,1.24682 2.5586,1.41993 1.5569,0.17299 11.70898,1.04492 11.70898,1.04492 0,0 -2.05116,1.41782 -7.25976,0.84961 -5.20861,-0.56822 -9.08985,-1.70508 -9.08985,-1.70508 z"
           transform="matrix(0.26458333,0,0,0.26458333,-0.25772176,0)"
           sodipodi:nodetypes="ccscsssccccsccscsccscscccccccsssssccccccccccsccsssccscsccscsccscsccccccscscc" />
        <path
           style="font-variation-settings:normal;opacity:1;vector-effect:none;fill:#cccccc;fill-opacity:1;stroke:none;stroke-width:0.132988;stroke-linecap:butt;stroke-linejoin:miter;stroke-miterlimit:4;stroke-dasharray:none;stroke-dashoffset:0;stroke-opacity:1;stop-color:#000000;stop-opacity:1"
           d="m 124.14599,104.81337 c -0.32759,-0.0208 -0.26768,-0.41068 -0.37061,-0.5746 0.28978,-0.24148 0.5589,-0.46402 0.817,-0.67816 0.1878,0.29124 0.27798,0.45315 0.54089,0.48595 0.26291,0.0328 2.57522,0.23607 4.38494,0.33985 0.75168,-0.86796 1.13445,-1.32869 1.80039,-2.25414 l -0.60949,-0.38508 c -1.28912,0.31429 -3.56336,0.76636 -3.90216,0.82476 -0.3388,0.0584 -0.36437,-0.23447 -0.62677,-0.36294 0.48945,-0.43409 1.01382,-0.91982 1.64146,-1.5319 1.29078,0.27404 2.72358,0.43531 4.23716,0.42521 0.75928,-1.09415 1.20814,-1.783844 1.86997,-2.928985 -3.12229,-0.148986 -6.89963,0.488962 -9.12226,0.415732 -2.22263,-0.07323 -3.23573,-0.366092 -4.08421,-0.801808 0.90203,-0.467702 2.50566,-1.386481 2.50566,-1.386481 0.60285,-2.009493 1.09149,-3.435774 1.10249,-7.867746 0.011,-4.431972 -1.00226,-6.715147 -1.00226,-7.567069 0,-0.851921 1.76769,-1.969745 4.30972,-4.810852 1.4407,-1.610204 1.69998,-3.04295 1.65342,-4.032899 -0.0356,-0.756753 -0.2857,-0.853859 -0.2857,-0.853859 -1.46401,2.137562 -3.15011,3.411753 -5.27654,4.385628 0,0 2.25508,-2.154861 3.05689,-4.660512 0.29333,-0.916657 0.33253,-1.546992 0.25484,-2.077264 -0.13466,-0.919208 -0.57019,-0.919878 -0.57019,-0.919878 -0.88285,2.089458 -2.456,3.909918 -4.34516,5.252228 0,0 1.54879,-2.067077 2.05463,-4.660512 0.16538,-0.847924 0.19233,-1.484471 0.13427,-1.997277 -0.11641,-1.02825 -0.46744,-1.068471 -0.82976,-1.285865 -0.72422,2.283749 -1.40269,4.185873 -3.21332,6.089472 0.55295,-1.32709 1.19435,-3.62428 1.00226,-5.813112 -0.19209,-2.188832 -1.06097,-1.826302 -1.06097,-1.826302 -0.15035,1.403165 -0.0941,2.775931 -2.09867,6.584522 -2.00452,3.808591 -4.23278,5.045696 -4.23278,7.952252 0,2.906556 2.942,5.437569 1.37885,10.842655 -0.35046,-1.594958 -1.27202,-4.09875 -3.43371,-7.191562 -2.1617,-3.092811 -4.53118,-4.781965 -5.06034,-5.449626 -0.52915,-0.667662 0.16191,-2.641671 0.38946,-6.447196 0.10709,-1.790882 -0.35037,-2.970005 -0.88953,-3.760128 -0.60651,-0.888844 -1.02671,-0.601207 -1.02671,-0.601207 0.18033,2.584566 -0.52309,4.096027 -1.45842,6.396451 0,0 0.4289,-3.089471 -0.49903,-5.551209 -0.23834,-0.63229 -0.53432,-1.1259 -0.8125,-1.47807 -0.8049,-1.018958 -1.25578,-0.624183 -1.25578,-0.624183 0.60591,2.185894 0.45287,4.628959 -0.18354,6.764342 0,0 -0.0807,-2.602481 -1.284506,-4.928682 -0.288317,-0.557138 -0.568954,-0.985624 -0.840302,-1.32103 -0.861604,-1.065005 -1.365839,-0.901518 -1.843381,-0.839203 0.850926,2.239632 1.55998,4.109588 1.363375,6.787441 -0.390935,-1.383507 -0.864085,-3.131216 -2.374161,-4.727322 -0.307487,-0.325005 -0.598094,-0.57021 -0.862519,-0.756464 -1.034173,-0.728441 -1.344271,-0.361591 -1.344271,-0.361591 0.7537,1.193065 1.525679,1.982112 2.320313,6.212008 0.794633,4.229897 -0.04946,7.031532 1.755875,9.309438 1.80533,2.277906 4.631297,3.292794 7.277137,7.552268 2.64584,4.259475 3.14349,8.050886 -0.59073,10.183692 -3.91349,0.525587 -6.055807,0.671086 -8.352706,0.55005 -1.169378,-1.948942 -3.260058,-1.559152 -4.642034,-0.425223 -1.381975,1.133929 -2.674448,1.715278 -4.748327,1.948948 -2.073879,0.23367 -2.287002,0.82643 -2.586774,1.55914 0,0 1.027623,-0.22438 3.508092,-0.18898 2.480469,0.0354 3.260044,0.6733 5.38616,0.7087 2.126117,0.0354 2.267858,-0.49609 3.89788,-0.35435 1.630022,0.14174 3.862449,0.74414 8.929689,2.55134 5.06724,1.8072 6.94531,1.98437 10.52427,1.70089 3.57897,-0.28348 5.56334,-1.24023 5.56334,-1.24023 0.25866,0.41527 0.41036,0.67588 0.6024,0.77957 0.19204,0.10369 2.33443,1.01295 3.96875,1.41741 0.82856,-0.74533 1.3212,-1.21813 2.05924,-2.03304 l -0.33486,-0.15193 c -1.01646,0.0532 -3.90826,-0.29068 -4.23584,-0.31148 z"
           id="path1147"
           sodipodi:nodetypes="sccscccsccccsccssssccssccssccscsscssssscssscssccsscszzccsscssssscscccs" />
        <path
           id="path1149"
           style="font-variation-settings:normal;opacity:1;vector-effect:none;fill:#ffffff;fill-opacity:1;stroke:none;stroke-width:0.50263;stroke-linecap:butt;stroke-linejoin:miter;stroke-miterlimit:4;stroke-dasharray:none;stroke-dashoffset:0;stroke-opacity:1;stop-color:#000000;stop-opacity:1"
           d="m 453.81055,238.01758 c -0.56826,5.3033 -0.75785,12.49985 -8.33399,26.89453 -7.57614,14.39467 -16.66601,21.21381 -16.66601,32.19922 0,10.98541 10.98525,16.66815 6.81836,39.77539 -1.24672,6.43944 -4.64648,15.79213 -14.02149,24.0957 -9.37497,8.30357 -20.51953,9.2832 -20.51953,9.2832 9.40827,-8.32587 7.53634,-22.33912 -3.42187,-39.98046 -10.95822,-17.64135 -18.26699,-16.69528 -25.88282,-26.30469 -7.61584,-9.60941 -2.60799,-16.38018 -5.61132,-32.36719 -3.00335,-15.98701 -6.56589,-20.04005 -9.41452,-24.54927 0,0 1.1189,-0.16322 3.00977,0.14257 -3.90104,-2.74209 -6.41992,-2.03711 -6.41992,-2.03711 2.84863,4.50923 6.03421,8.56422 9.03756,24.55123 3.00333,15.98702 -0.45417,26.97653 6.36914,35.58594 6.82329,8.60941 17.80871,12.57112 26.5664,26.66992 8.7577,14.0988 13.88898,30.56205 -0.22461,38.62305 -14.79114,1.98647 -23.02193,2.26801 -31.70312,1.81055 -4.4197,-7.36608 -12.18694,-6.02595 -17.41016,-1.74024 -5.22321,4.28572 -10.64414,7.152 -18.48242,8.03516 -7.83828,0.88316 -8.64323,3.7932 -8.97266,6.5625 0,0 0.66055,-0.10932 1.6543,-0.23633 0.56844,-1.44159 1.88897,-2.80919 5.10156,-3.39063 4.09079,-0.74033 7.17894,-0.79632 11.10157,-2.24218 3.92263,-1.44582 7.51567,-0.80406 9.9707,1.86523 1.13292,-0.78262 1.6913,-1.33235 2.13476,-2.83789 -2.8555,0.53012 -2.47355,-0.78349 -5.42773,-1.53906 2.2425,-3.37492 5.72789,-6.21243 9.67188,-6.66406 3.94397,-0.45164 7.42994,0.3754 10.6582,4.27148 8.68119,0.45746 19.76151,0.42468 37.38476,-1.32617 17.6233,-1.75085 33.09541,-11.71023 37.66407,-35.68359 4.56865,-23.97337 -6.41797,-29.65522 -6.41797,-40.64063 0,-10.98541 8.01074,-15.85728 15.06054,-29.25195 7.04984,-13.39468 8.03488,-18.91406 8.20118,-24.61914 0,0 2.06215,0.78883 3.07226,4.89257 -0.72601,-8.27275 -4.54687,-9.84765 -4.54687,-9.84765 z m -86.92969,3.26562 c -0.3497,-0.004 -0.67404,0.0199 -0.9707,0.0586 3.21609,8.46475 5.62756,16.06899 6.08984,26.59179 1.02173,4.03035 2.08398,5.11328 2.08398,5.11329 0.249,-10.52281 -1.69204,-20.96689 -5.71093,-29.43165 0,0 2.21687,-0.21129 5.4414,1.83594 -2.7232,-3.36879 -5.15466,-4.14516 -6.93359,-4.16797 z m 14.31836,0.75 c 2.29005,8.26165 2.38216,18.16475 0.64648,27.03907 -0.0707,3.35339 1.00586,4.70703 1.00586,4.70703 2.653,-9.06543 3.14154,-20.87483 0.81055,-29.09571 0,0 1.56262,0.0632 3.62305,1.18164 -3.01791,-3.757 -6.08594,-3.83203 -6.08594,-3.83203 z m 85.11328,3.18164 c -2.73721,8.6315 -5.57047,16.08906 -11.74414,24.62305 -0.82069,2.33598 -0.18945,3.59766 -0.18945,3.59766 6.44541,-7.99048 10.56381,-16.47346 13.06836,-25.57032 0,0 1.49058,0.7968 2.40234,3.81641 -0.42711,-3.93607 -2.15953,-5.64025 -3.53711,-6.4668 z m -69.62891,0.49805 c 0.68157,9.76844 -0.9063,18.02423 -4.4414,26.71875 0,0 -0.51763,2.0915 0.75781,3.78906 4.10332,-8.50511 6.06828,-17.33117 5.38672,-27.09961 1.09486,0.31282 2.19309,0.75256 3.24805,1.40821 -2.31485,-3.45989 -4.95118,-4.81641 -4.95118,-4.81641 z m 81.18164,9.53906 c -3.33675,7.89717 -9.41678,15.71688 -16.28906,21.59375 -1.95719,2.71479 -1.51562,4.73438 -1.51562,4.73438 7.44045,-6.44508 15.22574,-15.39971 18.5625,-23.29688 0,0 0.79524,0.68005 1.53125,2.1875 -0.45239,-3.67789 -2.28907,-5.21875 -2.28907,-5.21875 z m 9.84961,12.50196 c -5.53326,8.07897 -11.90727,13.56335 -20.07812,18.18164 -1.06711,1.04255 -1.73072,1.81204 -1.13477,3.2207 8.17081,-4.61829 15.49017,-10.10462 21.02344,-18.18359 0,0 0.51622,0.569 1.13477,1.61523 -0.10265,-2.98709 -0.94532,-4.83398 -0.94532,-4.83398 z m -20.07812,18.18164 c 0,0 0.57697,-0.55692 1.46875,-1.52149 z m 39.52344,83.46484 c -12.06864,0.10655 -26.57607,2.55021 -34.97657,2.27344 -8.40049,-0.27678 -11.66159,-1.1948 -15.91015,-2.08399 l -2.00977,1.07032 c 5.98965,1.69276 8.31435,2.34236 16.71485,2.61914 8.09316,0.26665 23.31183,-1.96964 35.20898,-2.23047 0.32438,-0.54927 0.65379,-1.09671 0.97266,-1.64844 z m -56.02735,4.83984 c -1.57974,0.0625 -2.60547,0.625 -2.60547,0.625 7.23217,0.66965 9.91016,5.625 9.91016,5.625 5.75894,-1.07145 5.089,2.00894 6.83008,2.8125 1.74108,0.80357 8.39644,3.8253 10.16015,4.60547 1.76372,0.78002 3.532,0.64651 4.8125,0.42578 1.28051,-0.22072 8.67071,-1.7965 13.54297,-2.98437 l 2.53907,0.66211 c 0.40909,-0.5528 0.82134,-1.10442 1.22265,-1.66211 l -2.95898,-0.74023 c -4.87227,1.18786 -13.46755,2.89646 -14.74805,3.11718 -1.2805,0.22073 -1.9438,0.0617 -2.93555,-0.42383 -4.57175,-2.09109 -11.5,-4.74023 -11.5,-4.74023 -1.87502,-4.82143 -6.42968,-2.8125 -6.42968,-2.8125 -2.86273,-3.84208 -5.80875,-4.5901 -7.83985,-4.50977 z m 16.67969,19.73243 -1.47266,0.80468 c 0.38903,0.61954 1.49429,1.96631 2.73243,2.04493 1.23809,0.0786 10.50119,0.90039 12.80273,0.90039 2.30158,0 3.34766,-0.40039 3.34766,-0.40039 l 1.26562,0.57421 c 0.36331,-0.39126 0.7319,-0.7786 1.08984,-1.17382 l -1.81835,-0.74024 c 0,0 -0.78045,0.40235 -3.08204,0.40235 -2.30154,0 -11.56268,-0.82373 -12.80078,-0.90235 -1.23813,-0.0786 -1.67542,-0.89022 -2.06445,-1.50976 z"
           transform="scale(0.26458333)"
           sodipodi:nodetypes="csscscssscccsssccssccsscccscssssccccccccccccccccccccccccccccccccccccccccccccsccsccsccscsccccscccsccssccccssc" />
      </g>
      <path
         id="path1069"
         style="font-variation-settings:normal;opacity:1;vector-effect:none;fill:#800000;fill-opacity:1;stroke:none;stroke-width:1.00525;stroke-linecap:butt;stroke-linejoin:miter;stroke-miterlimit:4;stroke-dasharray:none;stroke-dashoffset:0;stroke-opacity:1;stop-color:#000000;stop-opacity:1"
         d="m 414.45703,165.35742 -2,2.2168 253.33008,280.74316 v -4.43261 z m -164.34968,514.0948 c 0.74595,0.65232 1.49681,1.3007 2.25398,1.94426 l 162.0957,-180.03904 -2,-2.22168 z"
         transform="scale(0.26458333)"
         sodipodi:nodetypes="cccccccccc" />
    </g>
  </g>
</svg>
