<?xml version="1.0" encoding="UTF-8" standalone="no"?>
<svg
   xmlns:dc="http://purl.org/dc/elements/1.1/"
   xmlns:cc="http://creativecommons.org/ns#"
   xmlns:rdf="http://www.w3.org/1999/02/22-rdf-syntax-ns#"
   xmlns:svg="http://www.w3.org/2000/svg"
   xmlns="http://www.w3.org/2000/svg"
   xmlns:sodipodi="http://sodipodi.sourceforge.net/DTD/sodipodi-0.dtd"
   xmlns:inkscape="http://www.inkscape.org/namespaces/inkscape"
   inkscape:version="1.0 (4035a4fb49, 2020-05-01)"
   sodipodi:docname="pomarkku.svg"
   id="svg8"
   version="1.1"
   viewBox="0 0 132.29166 139.43542"
   height="527"
   width="500">
  <defs
     id="defs2" />
  <sodipodi:namedview
     inkscape:object-nodes="true"
     inkscape:showpageshadow="false"
     inkscape:window-maximized="1"
     inkscape:window-y="-8"
     inkscape:window-x="-8"
     inkscape:window-height="1017"
     inkscape:window-width="1920"
     units="px"
     showgrid="false"
     inkscape:document-rotation="0"
     inkscape:current-layer="layer1"
     inkscape:document-units="px"
     inkscape:cy="225.61413"
     inkscape:cx="367.56146"
     inkscape:zoom="0.64593752"
     inkscape:pageshadow="2"
     inkscape:pageopacity="0.0"
     borderopacity="1.0"
     bordercolor="#666666"
     pagecolor="#ffffff"
     id="base"
     inkscape:snap-others="false"
     inkscape:lockguides="true" />
  <metadata
     id="metadata5">
    <rdf:RDF>
      <cc:Work
         rdf:about="">
        <dc:format>image/svg+xml</dc:format>
        <dc:type
           rdf:resource="http://purl.org/dc/dcmitype/StillImage" />
        <dc:title></dc:title>
      </cc:Work>
    </rdf:RDF>
  </metadata>
  <g
     transform="translate(-10.841715,-19.648413)"
     id="layer1"
     inkscape:groupmode="layer"
     inkscape:label="Шар 1">
    <g
       style="stroke-width:1.1897"
       transform="matrix(0.84073907,0,0,0.84036379,1.7266617,3.1365981)"
       id="g1137">
      <path
         id="path868"
         style="font-variation-settings:normal;opacity:1;vector-effect:none;fill:#0055d4;fill-opacity:1;fill-rule:evenodd;stroke:none;stroke-width:1.1897;stroke-linecap:butt;stroke-linejoin:miter;stroke-miterlimit:4;stroke-dasharray:none;stroke-dashoffset:0;stroke-opacity:1;marker:none;marker-start:none;marker-mid:none;marker-end:none;stop-color:#000000;stop-opacity:1"
         d="m 40.976562,74.261719 c 10e-7,0 11.504382,140.392841 22.142579,264.300781 L 338.33399,361.78456 613.54883,338.5625 C 624.18703,214.65456 635.69141,74.261719 635.69141,74.261719 Z"
         transform="scale(0.26458333)"
         sodipodi:nodetypes="cccccc" />
      <path
         id="path914"
         style="font-variation-settings:normal;opacity:1;vector-effect:none;fill:#002255;fill-opacity:1;fill-rule:evenodd;stroke:none;stroke-width:1.1897;stroke-linecap:butt;stroke-linejoin:miter;stroke-miterlimit:4;stroke-dasharray:none;stroke-dashoffset:0;stroke-opacity:1;marker:none;marker-start:none;marker-mid:none;marker-end:none;stop-color:#000000;stop-opacity:1"
         d="m 116.07422,256.16016 55.56445,86.46289 1.64258,-2.55664 -53.92187,-83.90625 z m 111.13086,0 55.56445,86.46289 1.64258,-2.55664 -53.92188,-83.90625 z m 111.1289,0 55.56446,86.46289 1.64258,-2.55664 -53.92188,-83.90625 z m 111.13086,0 55.56446,86.46289 1.64258,-2.55664 L 452.75,256.16016 Z m 111.12891,0 52.95508,82.40234 c 0.12834,-1.4949 0.25423,-3.0162 0.38281,-4.51562 l -50.05273,-77.88672 z"
         transform="scale(0.26458333)" />
      <path
         id="path846"
         style="font-variation-settings:normal;opacity:1;vector-effect:none;fill:#bf9f4f;fill-opacity:1;fill-rule:evenodd;stroke:none;stroke-width:1.1897;stroke-linecap:butt;stroke-linejoin:miter;stroke-miterlimit:4;stroke-dasharray:none;stroke-dashoffset:0;stroke-opacity:1;marker:none;marker-start:none;marker-mid:none;marker-end:none;stop-color:#000000;stop-opacity:1"
         d="m 613.54883,338.5625 -52.95508,-82.40234 -55.56641,86.46289 -55.56445,-86.46289 -55.56445,86.46289 -55.56446,-86.46289 -55.56445,86.46289 -55.56445,-86.46289 -55.56641,86.46289 -55.56445,-86.46289 -52.955079,82.40234 c 3.915244,45.60264 7.705949,89.00053 10.773437,122.30469 11.402226,123.79559 113.439912,240.5039 264.441402,240.5039 151.00151,0 253.03918,-116.70831 264.44141,-240.5039 3.06749,-33.30416 6.85819,-76.70205 10.77344,-122.30469 z"
         transform="scale(0.26458333)" />
      <path
         id="path871"
         style="font-variation-settings:normal;opacity:1;vector-effect:none;fill:#ffffff;fill-opacity:1;fill-rule:evenodd;stroke:none;stroke-width:1.1897;stroke-linecap:butt;stroke-linejoin:miter;stroke-miterlimit:4;stroke-dasharray:none;stroke-dashoffset:0;stroke-opacity:1;marker:none;marker-start:none;marker-mid:none;marker-end:none;stop-color:#000000;stop-opacity:1"
         d="M 116.07422,256.16016 63.119141,338.5625 c 0.13407,1.56157 0.256871,2.94782 0.390625,4.50391 L 117.7168,258.7168 Z m 111.13086,0 -55.56446,86.46289 1.64258,2.55664 55.56446,-86.46289 z m 111.1289,0 -55.56445,86.46289 1.64258,2.55664 55.56445,-86.46289 z m 111.12891,0 -55.56445,86.46289 1.64258,2.55664 55.56445,-86.46289 z m 111.13086,0 -55.56445,86.46289 1.64258,2.55664 55.56445,-86.46289 z"
         transform="scale(0.26458333)" />
    </g>
  </g>
</svg>
