<?xml version="1.0" encoding="UTF-8" standalone="no"?>
<svg xmlns:dc="http://purl.org/dc/elements/1.1/" xmlns:cc="http://creativecommons.org/ns#" xmlns:rdf="http://www.w3.org/1999/02/22-rdf-syntax-ns#" xmlns:svg="http://www.w3.org/2000/svg" xmlns="http://www.w3.org/2000/svg" xmlns:sodipodi="http://sodipodi.sourceforge.net/DTD/sodipodi-0.dtd" xmlns:inkscape="http://www.inkscape.org/namespaces/inkscape" width="500" height="584.99951" viewBox="0 0 132.29166 154.78113" version="1.1" id="svg847" sodipodi:docname="pori.svg" inkscape:version="1.0.2 (e86c870879, 2021-01-15, custom)">
  <defs id="defs841"/>
  <sodipodi:namedview id="base" pagecolor="#ffffff" bordercolor="#666666" borderopacity="1.0" inkscape:pageopacity="0.0" inkscape:pageshadow="2" inkscape:zoom="0.98994949" inkscape:cx="364.21893" inkscape:cy="248.10581" inkscape:document-units="px" inkscape:current-layer="layer1" inkscape:document-rotation="0" showgrid="false" inkscape:snap-smooth-nodes="true" inkscape:showpageshadow="false" borderlayer="true" units="px" inkscape:window-width="1920" inkscape:window-height="1017" inkscape:window-x="-8" inkscape:window-y="-4" inkscape:window-maximized="1" inkscape:snap-global="false" inkscape:object-paths="false"/>
  <metadata id="metadata844">
    <rdf:RDF>
      <cc:Work rdf:about="">
        <dc:format>image/svg+xml</dc:format>
        <dc:type rdf:resource="http://purl.org/dc/dcmitype/StillImage"/>
        <dc:title/>
      </cc:Work>
    </rdf:RDF>
  </metadata>
  <g inkscape:label="Layer 1" inkscape:groupmode="layer" id="layer1" transform="translate(-37.828833,-42.792608)">
    <g id="g1811" transform="translate(-176.89286,17.008929)">
      <g id="g1144" transform="matrix(1.4231953,0,0,1.423192,-85.026977,-48.304862)" style="stroke-width:0.702645">
        <path id="path1168" style="font-variation-settings:normal;opacity:1;vector-effect:none;fill:#e0b96b;fill-opacity:1;stroke:#000000;stroke-width:0.185908;stroke-linecap:butt;stroke-linejoin:miter;stroke-miterlimit:4;stroke-dasharray:none;stroke-dashoffset:0;stroke-opacity:1;stop-color:#000000;stop-opacity:1" d="m 263.41096,60.816295 c 0.77682,0.05233 1.51364,0.11271 2.21898,0.1788 l -0.26923,2.292515 -2.12597,-0.14211 z m 3.9036,0.386525 c 0.82006,0.09279 1.58637,0.191034 2.28668,0.292489 l -0.33383,2.125599 -2.19676,-0.283186 z m 3.98429,0.586012 c 0.89411,0.155977 1.63433,0.304798 2.22415,0.434597 l -0.5519,2.186075 -2.08204,-0.413411 z" sodipodi:nodetypes="ccccccccccccccc"/>
        <path id="path1048" style="font-variation-settings:normal;opacity:1;vector-effect:none;fill:#e0b96b;fill-opacity:1;stroke:#000000;stroke-width:0.702644;stroke-linecap:butt;stroke-linejoin:miter;stroke-miterlimit:4;stroke-dasharray:none;stroke-dashoffset:0;stroke-opacity:1;stop-color:#000000;stop-opacity:1" d="m 947.81641,229.85687 c -2.93601,0.19779 -5.72087,0.42599 -8.38672,0.67578 l 1.01758,8.66462 8.03515,-0.53711 z m -14.75376,1.46088 c -3.09944,0.3507 -5.99573,0.72202 -8.64258,1.10547 l 1.26172,8.03376 8.30273,-1.07031 z m -15.05874,2.21485 c -3.37931,0.58952 -6.17701,1.15199 -8.40625,1.64257 l 2.08593,8.26233 7.86914,-1.5625 z" transform="scale(0.26458333)" sodipodi:nodetypes="ccccccccccccccc"/>
        <path style="font-variation-settings:normal;opacity:1;vector-effect:none;fill:#e0b96b;fill-opacity:1;stroke:#000000;stroke-width:0.185908;stroke-linecap:butt;stroke-linejoin:miter;stroke-miterlimit:4;stroke-dasharray:none;stroke-dashoffset:0;stroke-opacity:1;stop-color:#000000;stop-opacity:1" d="m 238.13849,64.684835 c 0,0 7.36988,-2.305717 18.9552,-2.305717 11.58532,0 18.9552,2.305717 18.9552,2.305717 l -2.33385,8.606123 c 0,0 -11.0809,-1.5875 -16.62135,-1.5875 -5.54045,0 -16.62135,1.5875 -16.62135,1.5875 z" id="path1029" sodipodi:nodetypes="czcczcc"/>
        <path id="path1072" style="font-variation-settings:normal;opacity:1;vector-effect:none;fill:none;fill-opacity:1;stroke:#000000;stroke-width:0.185908;stroke-linecap:butt;stroke-linejoin:miter;stroke-miterlimit:4;stroke-dasharray:none;stroke-dashoffset:0;stroke-opacity:1;stop-color:#000000;stop-opacity:1" d="m 238.93067,69.093526 c 0,0 6.88239,-2.295254 18.16302,-2.295254 11.28064,0 18.16302,2.295254 18.16302,2.295254 m -36.32604,2.23433 c 0,0 6.88239,-2.355442 18.16302,-2.355442 11.28064,0 18.16302,2.355442 18.16302,2.355442 M 238.9312,66.815103 c 0,0 7.24703,-2.261843 18.16249,-2.261843 10.91547,0 18.16249,2.261843 18.16249,2.261843" sodipodi:nodetypes="csccsccsc"/>
        <g id="g998" style="stroke-width:0.702645">
          <path style="font-variation-settings:normal;opacity:1;vector-effect:none;fill:#e0b96b;fill-opacity:1;stroke:#000000;stroke-width:0.185908;stroke-linecap:butt;stroke-linejoin:miter;stroke-miterlimit:4;stroke-dasharray:none;stroke-dashoffset:0;stroke-opacity:1;stop-color:#000000;stop-opacity:1" d="M 261.73459,71.444485 V 58.114417 l 1.75396,-2.405424 v -3.558027 h -2.82253 v 1.779014 h -2.02878 v -1.779018 h -3.08712 v 1.779018 h -2.02878 v -1.779018 h -2.82253 v 3.558027 l 1.75396,2.405424 v 13.330068 z" id="path900" sodipodi:nodetypes="ccccccccccccccccc"/>
          <path id="path957" style="font-variation-settings:normal;opacity:1;vector-effect:none;fill:none;fill-opacity:1;stroke:#000000;stroke-width:0.185908;stroke-linecap:butt;stroke-linejoin:miter;stroke-miterlimit:4;stroke-dasharray:none;stroke-dashoffset:0;stroke-opacity:1;stop-color:#000000;stop-opacity:1" d="m 250.69881,53.92998 h 2.82253 m 2.02878,0 h 3.08712 m 2.02878,0 2.82253,-2e-6 m -11.03578,15.162672 9.28182,-1e-6 m -9.28182,-2.195646 9.28182,-10e-7 m -9.28182,-2.195646 9.28182,-2e-6 m -9.28182,-2.195645 9.28182,-3e-6 m -9.28182,-2.195644 9.28182,-3e-6 m -9.28182,-2.195644 9.28182,-4e-6 m -11.03578,-2.405418 12.78974,-2e-6" sodipodi:nodetypes="cccccccccccccccccccc"/>
          <path id="path978" style="font-variation-settings:normal;opacity:1;vector-effect:none;fill:none;fill-opacity:1;stroke:#000000;stroke-width:0.185908;stroke-linecap:butt;stroke-linejoin:miter;stroke-miterlimit:4;stroke-dasharray:none;stroke-dashoffset:0;stroke-opacity:1;stop-color:#000000;stop-opacity:1" d="m 254.77322,69.092649 v 2.21008 m 4.64091,-2.21008 v 2.21008 m -4.64091,-6.601376 v 2.195648 m 4.64091,-2.195648 v 2.195648 m -2.32045,-4.391296 v 2.195648 m -2.32046,-4.391296 v 2.195648 m 4.64091,-2.195648 v 2.195648 m -2.32045,-4.391296 v 2.195648 m 1.81155,-2.195646 0.68026,-2.405422 m -4.29995,2.405422 -0.68366,-2.405422 m 7.47541,-1.779011 v 1.779011 m -9.96722,-1.779011 v 1.779011 m 4.98361,-1.779011 v 1.779011" sodipodi:nodetypes="cccccccccccccccccccccccccc"/>
          <path id="rect894" style="opacity:1;fill:#df0606;fill-opacity:1;stroke:#000000;stroke-width:0.702645;stroke-miterlimit:4;stroke-dasharray:none" d="m 978.04297,269.50195 v -12.27734 c 0,-3.5185 -2.83114,-6.88672 -6.34961,-6.88672 -3.51851,0 -6.35156,3.36822 -6.35156,6.88672 v 12.27734 z" transform="scale(0.26458333)" sodipodi:nodetypes="cssscc"/>
        </g>
        <g id="g1008" transform="rotate(-15.637155,257.343,143.9782)" style="stroke-width:0.702645">
          <path style="font-variation-settings:normal;opacity:1;vector-effect:none;fill:#e0b96b;fill-opacity:1;stroke:#000000;stroke-width:0.185908;stroke-linecap:butt;stroke-linejoin:miter;stroke-miterlimit:4;stroke-dasharray:none;stroke-dashoffset:0;stroke-opacity:1;stop-color:#000000;stop-opacity:1" d="M 261.73459,71.444485 V 58.114417 l 1.75396,-2.405424 v -3.558027 h -2.82253 v 1.779014 h -2.02878 v -1.779018 h -3.08712 v 1.779018 h -2.02878 v -1.779018 h -2.82253 v 3.558027 l 1.75396,2.405424 v 13.330068 z" id="path1000" sodipodi:nodetypes="ccccccccccccccccc"/>
          <path id="path1002" style="font-variation-settings:normal;opacity:1;vector-effect:none;fill:none;fill-opacity:1;stroke:#000000;stroke-width:0.185908;stroke-linecap:butt;stroke-linejoin:miter;stroke-miterlimit:4;stroke-dasharray:none;stroke-dashoffset:0;stroke-opacity:1;stop-color:#000000;stop-opacity:1" d="m 250.69881,53.92998 h 2.82253 m 2.02878,0 h 3.08712 m 2.02878,0 2.82253,-2e-6 m -11.03578,15.162672 9.28182,-1e-6 m -9.28182,-2.195646 9.28182,-10e-7 m -9.28182,-2.195646 9.28182,-2e-6 m -9.28182,-2.195645 9.28182,-3e-6 m -9.28182,-2.195644 9.28182,-3e-6 m -9.28182,-2.195644 9.28182,-4e-6 m -11.03578,-2.405418 12.78974,-2e-6" sodipodi:nodetypes="cccccccccccccccccccc"/>
          <path id="path1004" style="font-variation-settings:normal;opacity:1;vector-effect:none;fill:none;fill-opacity:1;stroke:#000000;stroke-width:0.185908;stroke-linecap:butt;stroke-linejoin:miter;stroke-miterlimit:4;stroke-dasharray:none;stroke-dashoffset:0;stroke-opacity:1;stop-color:#000000;stop-opacity:1" d="m 254.77322,69.092649 v 2.21008 m 4.64091,-2.21008 v 2.21008 m -4.64091,-6.601376 v 2.195648 m 4.64091,-2.195648 v 2.195648 m -2.32045,-4.391296 v 2.195648 m -2.32046,-4.391296 v 2.195648 m 4.64091,-2.195648 v 2.195648 m -2.32045,-4.391296 v 2.195648 m 1.81155,-2.195646 0.68026,-2.405422 m -4.29995,2.405422 -0.68366,-2.405422 m 7.47541,-1.779011 v 1.779011 m -9.96722,-1.779011 v 1.779011 m 4.98361,-1.779011 v 1.779011" sodipodi:nodetypes="cccccccccccccccccccccccccc"/>
        </g>
        <g id="g1027" transform="matrix(-0.96298798,-0.26954435,-0.26954435,0.96298798,543.47109,74.694277)" style="stroke-width:0.702645">
          <path style="font-variation-settings:normal;opacity:1;vector-effect:none;fill:#e0b96b;fill-opacity:1;stroke:#000000;stroke-width:0.185908;stroke-linecap:butt;stroke-linejoin:miter;stroke-miterlimit:4;stroke-dasharray:none;stroke-dashoffset:0;stroke-opacity:1;stop-color:#000000;stop-opacity:1" d="M 261.73459,71.444485 V 58.114417 l 1.75396,-2.405424 v -3.558027 h -2.82253 v 1.779014 h -2.02878 v -1.779018 h -3.08712 v 1.779018 h -2.02878 v -1.779018 h -2.82253 v 3.558027 l 1.75396,2.405424 v 13.330068 z" id="path1021" sodipodi:nodetypes="ccccccccccccccccc"/>
          <path id="path1023" style="font-variation-settings:normal;opacity:1;vector-effect:none;fill:none;fill-opacity:1;stroke:#000000;stroke-width:0.185908;stroke-linecap:butt;stroke-linejoin:miter;stroke-miterlimit:4;stroke-dasharray:none;stroke-dashoffset:0;stroke-opacity:1;stop-color:#000000;stop-opacity:1" d="m 250.69881,53.92998 h 2.82253 m 2.02878,0 h 3.08712 m 2.02878,0 2.82253,-2e-6 m -11.03578,15.162672 9.28182,-1e-6 m -9.28182,-2.195646 9.28182,-10e-7 m -9.28182,-2.195646 9.28182,-2e-6 m -9.28182,-2.195645 9.28182,-3e-6 m -9.28182,-2.195644 9.28182,-3e-6 m -9.28182,-2.195644 9.28182,-4e-6 m -11.03578,-2.405418 12.78974,-2e-6" sodipodi:nodetypes="cccccccccccccccccccc"/>
          <path id="path1025" style="font-variation-settings:normal;opacity:1;vector-effect:none;fill:none;fill-opacity:1;stroke:#000000;stroke-width:0.185908;stroke-linecap:butt;stroke-linejoin:miter;stroke-miterlimit:4;stroke-dasharray:none;stroke-dashoffset:0;stroke-opacity:1;stop-color:#000000;stop-opacity:1" d="m 254.77322,69.092649 v 2.21008 m 4.64091,-2.21008 v 2.21008 m -4.64091,-6.601376 v 2.195648 m 4.64091,-2.195648 v 2.195648 m -2.32045,-4.391296 v 2.195648 m -2.32046,-4.391296 v 2.195648 m 4.64091,-2.195648 v 2.195648 m -2.32045,-4.391296 v 2.195648 m 1.81155,-2.195646 0.68026,-2.405422 m -4.29995,2.405422 -0.68366,-2.405422 m 7.47541,-1.779011 v 1.779011 m -9.96722,-1.779011 v 1.779011 m 4.98361,-1.779011 v 1.779011" sodipodi:nodetypes="cccccccccccccccccccccccccc"/>
        </g>
        <path style="font-variation-settings:normal;opacity:1;vector-effect:none;fill:none;fill-opacity:1;stroke:#000000;stroke-width:0.185908;stroke-linecap:butt;stroke-linejoin:miter;stroke-miterlimit:4;stroke-dasharray:none;stroke-dashoffset:0;stroke-opacity:1;stop-color:#000000;stop-opacity:1" d="m 244.06719,63.422164 0.34566,2.163099 m 0.34925,2.185521 0.34112,2.134668 m 2.76396,-6.990262 0.27232,2.102922 m 0.28859,2.228518 0.28954,2.235853 m 1.4174,-4.672362 0.19197,2.248732 m 0.18637,2.183116 0.18863,2.20948 m -6.87444,0.904644 -0.40564,-2.185617 m -0.39539,-2.130398 -0.40377,-2.175541 m 3.61439,-0.624634 0.28746,2.242512 m 0.27973,2.182201 0.28326,2.209802" id="path1108" sodipodi:nodetypes="cccccccccccccccccccc"/>
        <path style="font-variation-settings:normal;opacity:1;vector-effect:none;fill:#e0b96b;fill-opacity:1;stroke:#000000;stroke-width:0.185908;stroke-linecap:butt;stroke-linejoin:miter;stroke-miterlimit:4;stroke-dasharray:none;stroke-dashoffset:0;stroke-opacity:1;stop-color:#000000;stop-opacity:1" d="m 281.86735,77.717201 c 0.68891,-1.271077 0.12841,-2.00858 -0.85192,-2.432262 -0.98034,-0.423682 -9.12483,-3.996642 -23.92175,-3.996642 -14.79692,0 -22.94141,3.57296 -23.92175,3.996642 -0.98033,0.423682 -1.54083,1.161185 -0.85192,2.432262 z" id="path879" sodipodi:nodetypes="czzzcc"/>
        <path style="font-variation-settings:normal;opacity:1;vector-effect:none;fill:#df0606;fill-opacity:1;stroke:#000000;stroke-width:0.185908;stroke-linecap:butt;stroke-linejoin:miter;stroke-miterlimit:4;stroke-dasharray:none;stroke-dashoffset:0;stroke-opacity:1;stop-color:#000000;stop-opacity:1" d="m 281.86735,77.717201 c 0,0 -8.38924,-4.424383 -24.77366,-4.424383 -16.38443,0 -24.77368,4.424383 -24.77368,4.424383 z" id="path877" sodipodi:nodetypes="czcc"/>
        <path style="font-variation-settings:normal;opacity:1;vector-effect:none;fill:none;fill-opacity:1;stroke:#000000;stroke-width:0.185908;stroke-linecap:butt;stroke-linejoin:miter;stroke-miterlimit:4;stroke-dasharray:none;stroke-dashoffset:0;stroke-opacity:1;stop-color:#000000;stop-opacity:1" d="m 270.12019,63.422164 -0.34566,2.163099 m -0.34925,2.185521 -0.34112,2.134668 m -2.76396,-6.990262 -0.27232,2.102922 m -0.28859,2.228518 -0.28954,2.235853 m -1.4174,-4.672362 -0.19197,2.248732 m -0.18637,2.183116 -0.18863,2.20948 m 6.87444,0.904644 0.40564,-2.185617 m 0.39539,-2.130398 0.40377,-2.175541 m -3.61439,-0.624634 -0.28746,2.242512 m -0.27973,2.182201 -0.28326,2.209802" id="path1170" sodipodi:nodetypes="cccccccccccccccccccc"/>
      </g>
      <path style="font-variation-settings:normal;opacity:1;vector-effect:none;fill:#e0b96b;fill-opacity:1;stroke:#000000;stroke-width:0.264583;stroke-linecap:butt;stroke-linejoin:miter;stroke-miterlimit:4;stroke-dasharray:none;stroke-dashoffset:0;stroke-opacity:1;stop-color:#000000;stop-opacity:1" d="m 258.84728,156.02603 c -11.9287,-2.93328 -18.67841,-13.45125 -20.37426,-24.20697 -1.69584,-10.75572 -1.73912,-13.9178 -3.63105,-16.94488 0,0 8.75335,-2.17865 8.16988,-15.431948 -0.5835,-13.253325 -9.58196,-16.642293 -9.58196,-16.642293 l 10.69144,-21.382823 c 5.81418,0.946192 9.80524,0.779577 17.20882,-0.934137 7.40357,-1.713716 14.19804,-3.001124 19.53737,0.934137 5.33933,-3.935261 12.1338,-2.647853 19.53737,-0.934137 7.40358,1.713714 11.39464,1.880329 17.20882,0.934137 l 10.69144,21.382823 c 0,0 -8.99846,3.388968 -9.58196,16.642293 -0.58347,13.253298 8.16988,15.431948 8.16988,15.431948 -1.89193,3.02708 -1.93521,6.18916 -3.63106,16.94488 -1.69584,10.75572 -8.44555,21.27369 -20.37425,24.20697 -11.92869,2.93329 -15.15629,2.50961 -22.02024,9.76634 -6.86395,-7.25673 -10.09155,-6.83305 -22.02024,-9.76634 z" id="path875" sodipodi:nodetypes="zzczsczczcszczzcz"/>
      <g id="g1566" transform="matrix(1.0076222,0,0,1.0076199,-7.2931133,-0.19632906)" style="stroke-width:0.992437">
        <path style="font-variation-settings:normal;opacity:1;vector-effect:none;fill:#df0606;fill-opacity:1;stroke:#000000;stroke-width:0.262582;stroke-linecap:butt;stroke-linejoin:miter;stroke-miterlimit:4;stroke-dasharray:none;stroke-dashoffset:0;stroke-opacity:1;stop-color:#000000;stop-opacity:1" d="m 304.76562,95.001531 1.42806,-4.826381 0.21262,-1.839457 c 1.5091,-0.897591 2.81817,-2.451568 3.33438,-4.991943 0.52788,-2.597803 1.53498,-2.358938 1.97577,-4.385375 0.44354,-2.039066 1.78037,-2.559937 3.12691,-2.063843 0.0875,-0.524982 0.007,-1.654043 -0.77958,-2.421758 -0.96616,-0.94265 -2.41339,-1.082252 -3.32232,-0.617077 -1.08045,-1.247697 -3.04739,-0.874849 -3.42524,0.339416 1.16083,0.237216 1.58253,1.304071 1.32281,2.083913 -0.25973,0.779844 -1.10247,1.201478 -1.88231,0.941754 -0.77982,-0.259721 -1.48103,-1.337116 -0.67417,-2.709045 -1.19834,-0.425665 -2.59973,0.0871 -2.96069,1.47979 -1.04503,0.08663 -2.22029,0.830197 -2.84633,2.122189 0.0398,1.431183 0.8187,2.583302 1.74149,3.081339 -0.22716,1.420654 0.43815,2.27121 1.70664,2.36127 -0.0346,-1.184313 0.58229,-2.047495 1.52561,-2.014995 0.94327,0.0325 1.65661,0.980814 1.04307,2.13787 -0.61355,1.157056 -2.25858,1.955197 -4.5469,1.366677 -2.28832,-0.588522 -3.43859,-2.981021 -3.88085,-5.430486 l -1.25642,-0.21056 c -1.00341,2.247558 -2.89525,3.52573 -5.26023,3.360468 -2.36499,-0.165262 -3.42592,-1.663059 -3.76661,-2.936896 -0.34069,-1.273836 0.5884,-2.115218 1.49168,-1.909602 0.90328,0.205617 1.22258,1.18844 0.81551,2.301135 1.23195,0.315378 2.13194,-0.281371 2.36532,-1.701018 1.03289,-0.180929 2.13597,-1.027886 2.62592,-2.37318 -0.18571,-1.423612 -1.0658,-2.500445 -2.02991,-2.912852 0.0976,-1.43539 -0.64206,-2.222191 -1.9135,-2.196991 0.14175,1.176311 -0.73719,1.91352 -1.55914,1.913517 -0.82196,-3e-6 -1.48829,-0.666327 -1.48829,-1.488284 0,-0.821957 0.73721,-1.700898 1.91352,-1.559155 0.0252,-1.271446 -0.69073,-2.294536 -2.12612,-2.196986 -0.45902,-0.964105 -1.07517,-1.277238 -1.69549,-1.488281 -0.62032,0.211043 -1.23647,0.524176 -1.69549,1.488281 -1.43539,-0.09755 -2.15132,0.92554 -2.12612,2.196986 1.17631,-0.141743 1.91352,0.737198 1.91352,1.559155 0,0.821957 -0.66633,1.488281 -1.48829,1.488284 -0.82195,3e-6 -1.70089,-0.737206 -1.55914,-1.913517 -1.27144,-0.0252 -2.0111,0.761601 -1.9135,2.196991 -0.96411,0.412407 -1.8442,1.48924 -2.02991,2.912852 0.48995,1.345294 1.59303,2.192251 2.62592,2.37318 0.23338,1.419647 1.13337,2.016396 2.36532,1.701018 -0.40707,-1.112695 -0.0878,-2.095518 0.81551,-2.301135 0.90328,-0.205616 1.83237,0.635766 1.49168,1.909602 -0.34069,1.273837 -1.40162,2.771634 -3.76661,2.936896 -2.36498,0.165262 -4.25682,-1.11291 -5.26023,-3.360468 l -1.25642,0.21056 c -0.44226,2.449465 -1.59253,4.841964 -3.88085,5.430486 -2.28832,0.58852 -3.93335,-0.209621 -4.5469,-1.366677 -0.61354,-1.157056 0.0998,-2.10537 1.04307,-2.13787 0.94332,-0.0325 1.56021,0.830682 1.52561,2.014995 1.26849,-0.09006 1.9338,-0.940616 1.70664,-2.36127 0.92279,-0.498037 1.70169,-1.650156 1.74149,-3.081339 -0.62604,-1.291992 -1.8013,-2.035559 -2.84633,-2.122189 -0.36096,-1.39269 -1.76235,-1.905455 -2.96069,-1.47979 0.80686,1.371929 0.10565,2.449324 -0.67417,2.709045 -0.77984,0.259724 -1.62258,-0.16191 -1.88231,-0.941754 -0.25972,-0.779842 0.16198,-1.846697 1.32281,-2.083913 -0.37785,-1.214265 -2.34479,-1.587113 -3.42524,-0.339416 -0.90893,-0.465175 -2.35616,-0.325573 -3.32232,0.617077 -0.78658,0.767715 -0.86708,1.896776 -0.77958,2.421758 1.34654,-0.496094 2.68337,0.02478 3.12691,2.063843 0.44079,2.026437 1.44789,1.787572 1.97577,4.385375 0.51621,2.540375 1.82528,4.094352 3.33438,4.991943 l 0.21262,1.839457 1.42806,4.826381 z" id="path1393" sodipodi:nodetypes="cccsscsccszccccczzzcczzzccccczscccccszccccczzzcczzzccccczsccscsscccc"/>
        <circle style="opacity:1;fill:#d9d9d9;fill-opacity:1;stroke:#000000;stroke-width:0.262582;stroke-miterlimit:4;stroke-dasharray:none" id="path1319" cx="285.98083" cy="75.009598" r="1.7008928"/>
        <circle style="opacity:1;fill:#d9d9d9;fill-opacity:1;stroke:#000000;stroke-width:0.262582;stroke-miterlimit:4;stroke-dasharray:none" id="circle1321" cx="274.64923" cy="78.44664" r="1.7008928"/>
        <ellipse style="opacity:1;fill:#d9d9d9;fill-opacity:1;stroke:#000000;stroke-width:0.262582;stroke-miterlimit:4;stroke-dasharray:none" id="circle1323" cx="231.71933" cy="146.92871" rx="1.2205317" ry="1.7008928" transform="rotate(-15)"/>
        <path id="circle1325" style="opacity:1;fill:none;fill-opacity:1;stroke:#000000;stroke-width:0.262582;stroke-miterlimit:4;stroke-dasharray:none" d="m 288.3332,90.467972 a 2.3523624,1.7008928 0 0 1 -2.35237,1.700893 2.3523624,1.7008928 0 0 1 -2.35236,-1.700893 2.3523624,1.7008928 0 0 1 2.35236,-1.700893 2.3523624,1.7008928 0 0 1 2.35237,1.700893 z"/>
        <path id="ellipse1327" style="opacity:1;fill:#1265a1;fill-opacity:1;stroke:#000000;stroke-width:0.262582;stroke-miterlimit:4;stroke-dasharray:none" d="m 278.08994,90.611527 -2.10986,1.993773 -2.5545,-1.378823 2.10986,-1.993782 z" sodipodi:nodetypes="ccccc"/>
        <path id="path1331" style="opacity:1;fill:#df0606;fill-opacity:1;stroke:#000000;stroke-width:0.262582;stroke-miterlimit:4;stroke-dasharray:none" d="m 267.81847,92.329577 a 1.7008928,1.3266733 75 0 1 -0.84125,1.986307 1.7008928,1.3266733 75 0 1 -1.72168,-1.299569 1.7008928,1.3266733 75 0 1 0.84124,-1.986304 1.7008928,1.3266733 75 0 1 1.72169,1.299566 z"/>
        <circle style="fill:#d9d9d9;fill-opacity:1;stroke:#000000;stroke-width:0.262582;stroke-miterlimit:4;stroke-dasharray:none" id="circle1321-4" cx="281.20093" cy="89.381325" r="0.84939486"/>
        <circle style="fill:#d9d9d9;fill-opacity:1;stroke:#000000;stroke-width:0.262582;stroke-miterlimit:4;stroke-dasharray:none" id="circle1353" cx="281.20093" cy="91.539444" r="0.84939486"/>
        <circle style="fill:#d9d9d9;fill-opacity:1;stroke:#000000;stroke-width:0.262582;stroke-miterlimit:4;stroke-dasharray:none" id="circle1355" cx="-254.33989" cy="129.91701" r="0.84939486" transform="matrix(-0.98874107,0.14963653,0.14963653,0.98874107,0,0)"/>
        <circle style="fill:#d9d9d9;fill-opacity:1;stroke:#000000;stroke-width:0.262582;stroke-miterlimit:4;stroke-dasharray:none" id="circle1357" cx="-254.33989" cy="132.07513" r="0.84939486" transform="matrix(-0.98874107,0.14963653,0.14963653,0.98874107,0,0)"/>
        <circle style="opacity:1;fill:#d9d9d9;fill-opacity:1;stroke:#000000;stroke-width:0.262582;stroke-miterlimit:4;stroke-dasharray:none" id="circle1395" cx="-297.31244" cy="78.44664" r="1.7008928" transform="scale(-1,1)"/>
        <ellipse style="opacity:1;fill:#d9d9d9;fill-opacity:1;stroke:#000000;stroke-width:0.262582;stroke-miterlimit:4;stroke-dasharray:none" id="ellipse1397" cx="-320.7532" cy="-1.1058598" rx="1.2205317" ry="1.7008928" transform="matrix(-0.96592583,-0.25881905,-0.25881905,0.96592583,0,0)"/>
        <path id="path1399" style="opacity:1;fill:#1265a1;fill-opacity:1;stroke:#000000;stroke-width:0.262582;stroke-miterlimit:4;stroke-dasharray:none" d="m 293.87172,90.611527 2.10986,1.993773 2.5545,-1.378823 -2.10986,-1.993782 z" sodipodi:nodetypes="ccccc"/>
        <path id="path1401" style="opacity:1;fill:#df0606;fill-opacity:1;stroke:#000000;stroke-width:0.262582;stroke-miterlimit:4;stroke-dasharray:none" d="m 304.14319,92.329577 a 1.3266733,1.7008928 15 0 0 0.84125,1.986307 1.3266733,1.7008928 15 0 0 1.72168,-1.299569 1.3266733,1.7008928 15 0 0 -0.84124,-1.986304 1.3266733,1.7008928 15 0 0 -1.72169,1.299566 z"/>
        <circle style="fill:#d9d9d9;fill-opacity:1;stroke:#000000;stroke-width:0.262582;stroke-miterlimit:4;stroke-dasharray:none" id="circle1403" cx="-290.76074" cy="89.381325" r="0.84939486" transform="scale(-1,1)"/>
        <circle style="fill:#d9d9d9;fill-opacity:1;stroke:#000000;stroke-width:0.262582;stroke-miterlimit:4;stroke-dasharray:none" id="circle1405" cx="-290.76074" cy="91.539444" r="0.84939486" transform="scale(-1,1)"/>
        <circle style="fill:#d9d9d9;fill-opacity:1;stroke:#000000;stroke-width:0.262582;stroke-miterlimit:4;stroke-dasharray:none" id="circle1407" cx="311.1821" cy="44.33065" r="0.84939486" transform="rotate(8.6058636)"/>
        <circle style="fill:#d9d9d9;fill-opacity:1;stroke:#000000;stroke-width:0.262582;stroke-miterlimit:4;stroke-dasharray:none" id="circle1409" cx="311.1821" cy="46.488777" r="0.84939486" transform="rotate(8.6058636)"/>
        <path style="font-variation-settings:normal;opacity:1;vector-effect:none;fill:none;fill-opacity:1;stroke:#000000;stroke-width:0.262582;stroke-linecap:butt;stroke-linejoin:miter;stroke-miterlimit:4;stroke-dasharray:none;stroke-dashoffset:0;stroke-opacity:1;stop-color:#000000;stop-opacity:1" d="m 307.2946,84.815682 c -0.91423,1.257282 -3.02274,2.337521 -5.54916,1.826292 -2.52642,-0.511229 -4.00573,-2.379495 -4.90996,-4.49199 -1.70161,2.154108 -3.59261,2.570762 -5.82432,2.320236 -2.2317,-0.250526 -4.29378,-1.549976 -5.03033,-3.650967 -0.73655,2.100991 -2.79863,3.400441 -5.03033,3.650967 -2.23171,0.250526 -4.12271,-0.166128 -5.82432,-2.320236 -0.90423,2.112495 -2.38354,3.980761 -4.90996,4.49199 -2.52642,0.511229 -4.63493,-0.56901 -5.54916,-1.826292" id="path1413" sodipodi:nodetypes="czczczczc"/>
        <path style="font-variation-settings:normal;vector-effect:none;fill:#df0606;fill-opacity:1;stroke:#000000;stroke-width:0.262582;stroke-linecap:butt;stroke-linejoin:miter;stroke-miterlimit:4;stroke-dasharray:none;stroke-dashoffset:0;stroke-opacity:1;stop-color:#000000" d="m 305.1681,97.110688 c 0.53354,-0.97754 0.36722,-1.778793 -0.40252,-2.109157 -0.76982,-0.330365 -6.79159,-2.178206 -18.78477,-2.178206 -11.99316,0 -18.01491,1.847841 -18.78477,2.178206 -0.76978,0.330364 -0.93606,1.131616 -0.40249,2.109157 z" id="path879-3" sodipodi:nodetypes="czzzcc"/>
        <path id="path1267" style="font-variation-settings:normal;vector-effect:none;fill:#df0606;fill-opacity:1;stroke:#000000;stroke-width:0.992436;stroke-linecap:butt;stroke-linejoin:miter;stroke-miterlimit:4;stroke-dasharray:none;stroke-dashoffset:0;stroke-opacity:1;stop-color:#000000" d="m 1003.6738,333.86719 c -3.1319,1.05305 -3.3677,3.02066 -2.9513,4.58893 0.4165,1.56827 1.5264,3.0074 3.7549,2.36336 2.2284,-0.64404 27.1078,-8.17886 76.395,-8.17886 49.2873,0 74.1667,7.53482 76.3951,8.17886 2.2285,0.64404 3.3384,-0.79509 3.7549,-2.36336 0.4164,-1.56827 0.1806,-3.53588 -2.9513,-4.58893 -3.1319,-1.05305 -27.9114,-8.04492 -77.1987,-8.04492 -49.2872,0 -74.0667,6.99187 -77.1986,8.04492 z" transform="scale(0.26458333)" sodipodi:nodetypes="zzzzzzzzz"/>
        <path style="font-variation-settings:normal;opacity:1;vector-effect:none;fill:#000000;fill-opacity:1;stroke:none;stroke-width:0.262582;stroke-linecap:butt;stroke-linejoin:miter;stroke-miterlimit:4;stroke-dasharray:none;stroke-dashoffset:0;stroke-opacity:1;stop-color:#000000;stop-opacity:1" d="m 267.5599,96.714658 c -3.33092,-3.189174 -9.20387,-2.249438 -9.76798,-2.146873 -0.5641,0.102565 -0.25026,0.651853 0.27133,1.579909 0.52159,0.928056 -0.0851,2.008344 0.80893,4.497756 0.88087,2.45283 3.37728,3.97845 4.34099,4.62092 -0.69992,0.72278 -1.4535,1.89196 -1.61042,4.21753 -0.15692,2.32557 0.53451,4.27251 0.40562,6.11028 -0.12889,1.83776 -2.14309,3.23278 -3.47266,2.91994 0.14803,1.05475 1.25061,0.5878 1.65365,3.40683 1.15117,0.002 2.10656,-0.46677 3.04743,-1.34654 0.26932,1.2714 -0.83253,2.35525 -2.40959,2.26785 0.46998,1.50217 1.32639,1.70859 1.84263,2.83483 0.56432,0.22573 2.00211,-0.0638 2.48047,-0.99219 0.28312,0.7078 0.0657,1.86514 -1.48828,2.12611 0.93154,1.1396 1.26891,1.14811 2.19698,2.05525 0,0 1.48829,-0.21261 1.91351,-1.48828 0,0 1.13393,1.55915 -1.06306,2.12611 0.8453,0.95268 1.33751,0.54051 2.26786,1.41741 0,0 1.34654,-0.7087 1.84263,-1.98437 0,0 1.2048,1.63002 -0.42522,2.4096 1.42699,0.31711 2.60697,0.80038 4.08687,2.90569 1.54141,2.19281 1.77615,4.51681 2.33872,7.72489 0.56257,3.20808 0.61606,3.69854 1.30858,4.07506 0.69252,0.37652 1.4813,0.58819 2.23495,0.815 0.30243,1.20973 1.02805,3.20771 1.59711,4.11909 0.61574,0.98614 2.28591,1.83404 4.01988,1.83404 1.73397,0 3.40414,-0.8479 4.01988,-1.83404 0.56906,-0.91138 1.29468,-2.90936 1.59711,-4.11909 0.75365,-0.22681 1.54243,-0.43848 2.23495,-0.815 0.69252,-0.37652 0.74601,-0.86698 1.30858,-4.07506 0.56257,-3.20808 0.79731,-5.53208 2.33872,-7.72489 1.4799,-2.10531 2.65988,-2.58858 4.08687,-2.90569 -1.63002,-0.77958 -0.42522,-2.4096 -0.42522,-2.4096 0.49609,1.27567 1.84263,1.98437 1.84263,1.98437 0.93035,-0.8769 1.42256,-0.46473 2.26786,-1.41741 -2.19699,-0.56696 -1.06306,-2.12611 -1.06306,-2.12611 0.42522,1.27567 1.91351,1.48828 1.91351,1.48828 0.92807,-0.90714 1.26544,-0.91565 2.19698,-2.05525 -1.55398,-0.26097 -1.7714,-1.41831 -1.48828,-2.12611 0.47836,0.92839 1.91615,1.21792 2.48047,0.99219 0.51624,-1.12624 1.37265,-1.33266 1.84263,-2.83483 -1.57706,0.0874 -2.67891,-0.99645 -2.40959,-2.26785 0.94087,0.87977 1.89626,1.34854 3.04743,1.34654 0.40304,-2.81903 1.50562,-2.35208 1.65365,-3.40683 -1.32957,0.31284 -3.34377,-1.08218 -3.47266,-2.91994 -0.12889,-1.83777 0.56254,-3.78471 0.40562,-6.11028 -0.15692,-2.32557 -0.9105,-3.49475 -1.61042,-4.21753 0.96371,-0.64247 3.46012,-2.16809 4.34099,-4.62092 0.89402,-2.489412 0.28734,-3.5697 0.80893,-4.497756 0.52159,-0.928056 0.83543,-1.477344 0.27133,-1.579909 -0.56411,-0.102565 -6.43706,-1.042301 -9.76798,2.146873 0,0 -6.7947,-2.191338 -18.42093,-2.191338 -11.62623,0 -18.42093,2.191338 -18.42093,2.191338 z" id="path1194" sodipodi:nodetypes="czzscsczzsccccccccccccczzzzzcccccccccccccszzcscszzczc"/>
        <g id="g1489" transform="translate(0.32541265)" style="stroke-width:0.992437">
          <path id="path1419" style="font-variation-settings:normal;opacity:1;vector-effect:none;fill:#d9d9d9;fill-opacity:1;stroke:none;stroke-width:0.262582;stroke-linecap:butt;stroke-linejoin:miter;stroke-miterlimit:4;stroke-dasharray:none;stroke-dashoffset:0;stroke-opacity:1;stop-color:#000000;stop-opacity:1" d="m 290.73417,103.99055 c 0.46011,0.92021 1.15922,2.31441 4.53618,2.69338 3.37695,0.37897 5.03158,-0.28378 6.6616,-1.70119 0.1551,0.31021 0.29591,1.80116 -1.91357,2.76417 -2.20951,0.96301 -5.03153,0.99233 -7.72459,-0.14159 -2.69309,-1.13392 -2.12657,-2.83519 -1.55962,-3.61477 z m -10.15801,0 c 0.56695,0.77958 1.13397,2.48085 -1.55909,3.61477 -2.69308,1.13392 -5.5151,1.1046 -7.72459,0.14159 -2.20951,-0.96301 -2.06869,-2.45396 -1.9136,-2.76417 1.63002,1.41741 3.28465,2.08016 6.66163,1.70119 3.37696,-0.37897 4.07554,-1.77317 4.53565,-2.69338 z m 12.73307,6.61458 c -0.99221,2.55134 -1.34636,4.93896 -1.6423,7.25692 -0.29593,2.31798 -0.48368,10.74412 -0.48368,14.14591 0,3.40178 0.20434,7.48723 -1.13379,9.1426 -1.34202,1.66021 -3.87033,0.67746 -4.39404,-0.0708 -0.52372,0.74826 -3.05203,1.73101 -4.39404,0.0708 -1.33814,-1.65537 -1.1338,-5.74082 -1.1338,-9.1426 0,-3.40179 -0.18827,-11.82793 -0.48418,-14.14591 -0.29594,-2.31796 -0.65011,-4.70558 -1.6423,-7.25692 1.1021,0.77146 2.17035,3.42525 3.00604,6.80889 0.83566,3.38364 0.75012,10.41288 0.96271,15.79904 0,0 1.59253,-0.5669 3.68557,-0.5669 2.09304,0 3.68506,0.5669 3.68506,0.5669 0.21259,-5.38616 0.12705,-12.4154 0.96271,-15.79904 0.83569,-3.38364 1.90394,-6.03743 3.00604,-6.80889 z m 5.87095,3.68608 c 0.20873,0.20871 0.22706,1.13786 -0.60101,1.7539 -0.82806,0.61603 -2.05499,0.75184 -3.30779,0.55139 -1.25283,-0.20045 -1.75387,-0.90243 -1.5534,-1.50379 0.43694,0.3277 1.22802,0.73273 2.95694,0.55139 1.72891,-0.18134 2.06861,-0.80708 2.50526,-1.35289 z m -27.05003,0 c 0.43665,0.54581 0.77687,1.17155 2.50579,1.35289 1.72892,0.18134 2.52,-0.22369 2.95693,-0.55139 0.20045,0.60136 -0.30109,1.30334 -1.55392,1.50379 -1.2528,0.20045 -2.47923,0.0646 -3.30729,-0.55139 -0.82807,-0.61604 -0.81024,-1.54519 -0.60151,-1.7539 z m 15.81248,20.90312 c -0.70879,-0.0116 -1.08175,0.59652 -0.70591,1.865 0.4009,1.35306 0.15037,2.50528 0.15037,2.50528 0,0 0.98753,-0.71565 1.45314,-2.15491 0.46567,-1.43925 0.0504,-2.10429 -0.75136,-2.20452 -0.0501,-0.006 -0.099,-0.0101 -0.14624,-0.0109 z m -4.5744,0 c -0.0473,7.7e-4 -0.0961,0.005 -0.14624,0.0109 -0.80182,0.10023 -1.21756,0.76527 -0.75189,2.20452 0.46561,1.43926 1.45364,2.15491 1.45364,2.15491 0,0 -0.2505,-1.15222 0.15039,-2.50528 0.37584,-1.26848 0.003,-1.87657 -0.7059,-1.865 z m -1.14831,-31.31 c 0,0 -0.85192,2.15486 1.70384,3.00678 2.55577,0.85192 5.11153,-0.70159 4.56029,-2.55577 0,0 -1.11651,1.40919 -3.40769,1.30295 -2.29118,-0.10624 -2.85644,-1.75396 -2.85644,-1.75396 z" sodipodi:nodetypes="cscssccsscsccssscssscscscsccsscsccscsscsscscssscscssscsczc"/>
          <path style="font-variation-settings:normal;opacity:1;vector-effect:none;fill:#df0606;fill-opacity:1;stroke:none;stroke-width:0.262582;stroke-linecap:butt;stroke-linejoin:miter;stroke-miterlimit:4;stroke-dasharray:none;stroke-dashoffset:0;stroke-opacity:1;stop-color:#000000;stop-opacity:1" d="m 288.1122,148.63914 c 0.36334,-1.62466 0.7339,-3.82259 0.7087,-4.96094 -0.98139,-0.75376 -1.97993,-0.55166 -3.16547,-1.39364 -1.18554,0.84198 -2.18408,0.63988 -3.16547,1.39364 -0.0252,1.13835 0.34536,3.33628 0.7087,4.96094 0.42866,1.91672 1.41741,2.83482 2.45677,3.18917 1.03936,-0.35435 2.02811,-1.27245 2.45677,-3.18917 z" id="path1430" sodipodi:nodetypes="scccscs"/>
          <path id="path1432" style="font-variation-settings:normal;opacity:1;vector-effect:none;fill:#df0606;fill-opacity:1;stroke:none;stroke-width:0.992436;stroke-linecap:butt;stroke-linejoin:miter;stroke-miterlimit:4;stroke-dasharray:none;stroke-dashoffset:0;stroke-opacity:1;stop-color:#000000;stop-opacity:1" d="m 1037.5801,416.48828 c -2.0702,-0.76323 -4.0939,-1.0652 -5.9571,-1.03711 -4.0989,0.0618 -7.4221,1.71908 -8.7656,3.56641 3.995,4.03793 4.7583,7.94949 7.7266,11.11719 1.4387,0.0504 2.9042,-0.18778 4.4336,-1.01172 -1.1541,-0.97168 -1.8203,-2.4034 -1.8203,-3.91211 3e-4,-2.82381 2.2894,-5.11289 5.166,-5.11231 0.143,-1.302 -0.061,-2.37646 -0.7832,-3.61035 z m 3.7148,1.84961 c -0.6501,0.60659 -1.013,1.29717 -1.1484,2.10156 1.9741,0.75966 3.2768,2.65627 3.2773,4.77149 0,2.22441 -1.4378,4.19371 -3.5566,4.87109 0.1184,1.20433 0.701,2.22817 1.4746,2.9668 2.1402,-0.14589 4.5459,-0.59563 7.2305,-1.44141 -0.4194,-5.03319 -1.5413,-9.67701 -7.2774,-13.26953 z" transform="scale(0.26458333)" sodipodi:nodetypes="csccccccccccccc"/>
          <ellipse style="opacity:1;fill:#d9d9d9;fill-opacity:1;stroke:none;stroke-width:0.267173;stroke-miterlimit:4;stroke-dasharray:none" id="circle1436" cx="242.45979" cy="116.31683" rx="0.45101735" ry="1.0894974" transform="matrix(1,0,0.25881905,0.96592583,0,0)"/>
          <path id="path1438" style="font-variation-settings:normal;opacity:1;vector-effect:none;fill:#df0606;fill-opacity:1;stroke:none;stroke-width:0.992436;stroke-linecap:butt;stroke-linejoin:miter;stroke-miterlimit:4;stroke-dasharray:none;stroke-dashoffset:0;stroke-opacity:1;stop-color:#000000;stop-opacity:1" d="m 1125.459,420.56055 c 1.8218,0.8307 2.9912,2.64816 2.9922,4.65039 -10e-5,1.98754 -1.1518,3.79499 -2.9532,4.63476 0.3194,0.67843 0.7932,1.24005 1.6836,1.49024 1.6066,-0.87213 2.7955,-1.97482 3.6016,-3.09375 2.5374,-3.5223 2.4072,-7.08071 5.6445,-9.22461 -1.2051,-1.6571 -4.0048,-3.33993 -7.5273,-3.83497 -2.1699,1.18022 -3.1309,3.25295 -3.4414,5.37794 z m -5.6836,-3.79688 c -7.2997,3.70976 -8.6028,9.32678 -9.0625,14.84375 1.175,0.37021 2.298,0.66461 3.3672,0.89063 1.9393,-1.86458 3.1852,-2.5989 5.5351,-3.78125 -0.894,-0.94847 -1.3921,-2.20249 -1.3925,-3.50586 2e-4,-2.49755 1.8044,-4.6296 4.2675,-5.04297 -0.1544,-1.36161 -0.7877,-2.81452 -2.7148,-3.4043 z" transform="scale(0.26458333)" sodipodi:nodetypes="ccccscccccccccc"/>
          <ellipse style="opacity:1;fill:#d9d9d9;fill-opacity:1;stroke:none;stroke-width:0.267173;stroke-miterlimit:4;stroke-dasharray:none" id="ellipse1442" cx="-325.37897" cy="116.31683" rx="0.45101735" ry="1.0894974" transform="matrix(-1,0,-0.25881905,0.96592583,0,0)"/>
        </g>
        <path id="path1491" style="font-variation-settings:normal;vector-effect:none;fill:#d9d9d9;fill-opacity:1;stroke:none;stroke-width:0.262582;stroke-linecap:butt;stroke-linejoin:miter;stroke-miterlimit:4;stroke-dasharray:none;stroke-dashoffset:0;stroke-opacity:1;stop-color:#000000" d="m 310.39701,95.849523 c -0.89835,0.851924 -1.62497,1.338991 -2.65583,2.405381 -1.02466,1.059975 -2.30548,2.305446 -2.30548,2.305446 0,-0.667208 0.45574,-1.23937 1.65391,-2.505616 1.24701,-1.317868 2.7835,-2.205211 3.3074,-2.205211 z m -47.22874,0.300678 c 0.5239,0 1.08085,0.0065 1.80403,0.902272 0.76026,0.94166 0.601,1.854149 0.601,1.854149 0,0 -0.40068,-2.48e-4 -1.05214,-0.952396 -0.65146,-0.952146 -1.00211,-0.952101 -1.35289,-1.804025 z m 48.632,-0.150311 c -0.95214,1.202712 -2.19394,2.125127 -3.3577,3.357365 -1.16376,1.232235 -1.64358,1.730305 -2.4555,2.105195 0,-0.8052 0.83928,-1.597065 2.40528,-3.107214 1.52271,-1.4684 2.63437,-2.088787 3.40792,-2.355346 z m -50.9874,0.250565 c 0.77356,0.266559 1.38356,0.636381 2.90629,2.104781 1.56598,1.510149 1.45364,1.951224 1.45364,2.756424 -0.66159,-0.0241 -0.93337,-0.36377 -1.90428,-1.704292 -0.98772,-1.363711 -2.40554,-2.004314 -2.45565,-3.156913 z m 46.87792,0.05018 c -0.60137,0.751694 -0.77455,0.893074 -1.35278,1.603703 -0.60343,0.741611 -0.78883,1.045642 -1.2029,1.603477 0,0 -0.42844,-0.446922 0.15029,-1.453308 0.50864,-0.884506 1.81765,-1.557958 2.40539,-1.753872 z m -42.11749,0.200452 c 0,0 1.25331,0.350708 1.90479,1.653646 0.65146,1.302938 -0.2005,2.104777 -0.2005,2.104777 -0.36399,-0.307269 -0.36774,-0.577612 -0.75189,-1.453137 -0.37778,-0.860968 -1.00251,-1.503479 -0.9524,-2.305286 z m 41.61094,5.579173 c 0,0 -0.1431,-0.81615 1.35305,-2.204978 1.49615,-1.388831 2.28391,-1.598296 2.7061,-1.703843 -0.23987,0.62274 -1.14601,1.519621 -2.10474,2.355311 -0.95873,0.83569 -1.36565,1.35726 -1.95441,1.55351 z" sodipodi:nodetypes="cscsccscscczcsccscsccscsccscscczczc"/>
      </g>
      <path id="path1579" style="opacity:1;fill:#1265a1;fill-opacity:1;stroke:#000000;stroke-width:0.264583;stroke-miterlimit:4;stroke-dasharray:none" d="m 221.24398,121.79932 c 0,0 9.10303,-3.96961 10.46269,-3.78737 0.71714,0.0961 1.21482,0.27467 1.45773,0.65231 0.24291,0.37763 0.14343,1.16486 0.1776,3.13506 0,25.9899 21.2779,47.05889 47.52552,47.05889 26.24762,0 47.52551,-21.06899 47.52551,-47.05889 0.0342,-1.9702 -0.0653,-2.75743 0.1776,-3.13506 0.24291,-0.37764 0.74059,-0.55618 1.45773,-0.65231 1.35966,-0.18224 10.4627,3.78737 10.4627,3.78737 0,32.38221 -26.69437,58.63319 -59.62354,58.63319 -32.92917,0 -59.62354,-26.25098 -59.62354,-58.63319 z" sodipodi:nodetypes="cszczczsczc"/>
      <path style="font-variation-settings:normal;opacity:1;vector-effect:none;fill:#d9d9d9;fill-opacity:1;stroke:#000000;stroke-width:0.264583;stroke-linecap:butt;stroke-linejoin:miter;stroke-miterlimit:4;stroke-dasharray:none;stroke-dashoffset:0;stroke-opacity:1;stop-color:#000000;stop-opacity:1" d="m 231.60245,103.5899 c 1.77907,0.33357 3.41201,0.75595 5.76336,1.80619 1.37358,-1.2933 2.30482,-3.01949 2.78502,-5.21805 0.49746,-2.277653 0.45529,-3.819075 -1.17216,-4.517593 -1.62745,-0.698517 -7.01917,4.073282 -7.37622,7.929453 z m -1.01203,17.39384 c 0.15231,-2.13007 0.51054,-2.95518 1.8739,-2.80369 -0.91126,-0.27328 -1.69081,-0.36583 -3.58386,-0.70645 -1.9453,-0.35002 -2.77289,-0.48149 -2.77289,-0.48149 0,0 -1.02388,6.15519 2.61176,6.82791 0.95549,-0.16046 1.72121,-0.74039 1.87109,-2.83628 z" id="path1587" sodipodi:nodetypes="ccszcscsccs"/>
      <path style="font-variation-settings:normal;opacity:1;vector-effect:none;fill:#1265a1;fill-opacity:1;stroke:#000000;stroke-width:0.264583;stroke-linecap:butt;stroke-linejoin:miter;stroke-miterlimit:4;stroke-dasharray:none;stroke-dashoffset:0;stroke-opacity:1;stop-color:#000000;stop-opacity:1" d="m 228.71933,123.82002 c -0.98793,-0.65013 -2.08522,-1.59713 -1.83287,-6.45077 0.2521,-4.84895 2.43298,-9.45793 5.51564,-14.4336 3.08267,-4.975665 5.21977,-6.561096 6.57657,-7.275203 -2.75482,-1.402038 -4.95028,-1.215888 -8.24758,-2.576553 -3.2973,-1.360666 -5.17473,-1.092075 -8.03117,2.621275 -2.85643,3.713349 -6.33464,10.262201 -7.4058,16.046451 -1.07117,5.78426 -0.13603,8.65595 2.27289,9.61952 2.40892,0.96357 4.04696,0.52079 6.76057,1.59195 2.71361,1.07116 3.48127,1.03546 4.39175,0.85693 z" id="path1585" sodipodi:nodetypes="cszczzszsc"/>
      <path style="font-variation-settings:normal;opacity:1;vector-effect:none;fill:#d9d9d9;fill-opacity:1;stroke:#000000;stroke-width:0.264583;stroke-linecap:butt;stroke-linejoin:miter;stroke-miterlimit:4;stroke-dasharray:none;stroke-dashoffset:0;stroke-opacity:1;stop-color:#000000;stop-opacity:1" d="m 330.1326,103.5899 c -1.77907,0.33357 -3.41201,0.75595 -5.76336,1.80619 -1.37358,-1.2933 -2.30482,-3.01949 -2.78502,-5.21805 -0.49746,-2.277653 -0.45529,-3.819075 1.17216,-4.517593 1.62745,-0.698517 7.01917,4.073282 7.37622,7.929453 z m 1.01203,17.39384 c -0.15231,-2.13007 -0.51054,-2.95518 -1.8739,-2.80369 0.91126,-0.27328 1.69081,-0.36583 3.58386,-0.70645 1.9453,-0.35002 2.77289,-0.48149 2.77289,-0.48149 0,0 1.02388,6.15519 -2.61176,6.82791 -0.95549,-0.16046 -1.72121,-0.74039 -1.87109,-2.83628 z" id="path1593" sodipodi:nodetypes="ccszcscsccs"/>
      <path style="font-variation-settings:normal;opacity:1;vector-effect:none;fill:#1265a1;fill-opacity:1;stroke:#000000;stroke-width:0.264583;stroke-linecap:butt;stroke-linejoin:miter;stroke-miterlimit:4;stroke-dasharray:none;stroke-dashoffset:0;stroke-opacity:1;stop-color:#000000;stop-opacity:1" d="m 333.01572,123.82002 c 0.98793,-0.65013 2.08522,-1.59713 1.83287,-6.45077 -0.25211,-4.84895 -2.43298,-9.45793 -5.51564,-14.4336 -3.08267,-4.975665 -5.21977,-6.561096 -6.57657,-7.275203 2.75482,-1.402038 4.95028,-1.215888 8.24758,-2.576553 3.2973,-1.360666 5.17473,-1.092075 8.03117,2.621275 2.85643,3.713349 6.33464,10.262201 7.4058,16.046451 1.07117,5.78426 0.13603,8.65595 -2.27289,9.61952 -2.40892,0.96357 -4.04696,0.52079 -6.76057,1.59195 -2.71361,1.07116 -3.48127,1.03546 -4.39175,0.85693 z" id="path1595" sodipodi:nodetypes="cszczzszsc"/>
      <g aria-label=" DEUS PROTECTOR  NOSTER" id="text1610" style="font-size:10.5833px;line-height:1.25;font-family:Arial;-inkscape-font-specification:Arial;text-align:center;letter-spacing:0.79375px;text-anchor:middle;fill:#b9c1c9;fill-opacity:1;stroke-width:0.26258" transform="matrix(1.0075493,0.01211971,-0.01211968,1.007547,-5.4169777,-3.6556834)">
        <path d="m 235.47045,137.37786 q -0.83638,0.25727 -1.54763,0.13209 -0.71123,-0.12519 -1.25894,-0.50804 -0.54913,-0.38749 -0.93794,-0.96085 -0.38881,-0.57337 -0.59632,-1.24803 l -0.83578,-2.7171 0.32809,-0.10092 q 0.0413,0.134 0.12971,0.33946 0.0945,0.20865 0.1482,0.26802 0.10271,0.12015 0.23671,0.14469 0.14004,0.0278 0.30639,-0.0234 l 4.73183,-1.45549 q 0.15711,-0.0484 0.26482,-0.14215 0.10913,-0.0893 0.13474,-0.26907 0.0253,-0.16456 0.007,-0.34087 -0.0188,-0.1763 -0.0465,-0.29929 l 0.32809,-0.10092 0.88126,2.86497 q 0.18193,0.59148 0.17335,1.22133 -0.004,0.62843 -0.1828,1.14878 -0.23359,0.70413 -0.79809,1.23689 -0.56449,0.53277 -1.46557,0.80994 z m -0.34362,-1.13355 q 0.66079,-0.20326 1.13819,-0.54232 0.48201,-0.34046 0.77566,-0.80003 0.28083,-0.4354 0.35446,-0.96892 0.075,-0.5289 -0.0998,-1.09727 -0.0583,-0.18946 -0.14143,-0.4269 -0.0771,-0.23425 -0.11727,-0.34835 l -5.04142,1.55073 q -0.4205,0.12934 -0.5069,0.424 -0.0864,0.29465 0.07,0.80296 0.18051,0.58685 0.52349,0.96188 0.34297,0.37502 0.79651,0.53395 0.47628,0.1671 1.02437,0.14014 0.55415,-0.0238 1.22418,-0.22987 z" style="font-style:normal;font-variant:normal;font-weight:normal;font-stretch:normal;font-size:10.5833px;font-family:Georgia;-inkscape-font-specification:'Georgia, Normal';font-variant-ligatures:normal;font-variant-caps:normal;font-variant-numeric:normal;font-variant-east-asian:normal;fill:#d9d9d9;fill-opacity:1;stroke-width:0.26258" id="path1670"/>
        <path d="m 237.13435,144.62465 -1.91417,0.70031 -2.31238,-5.24511 0.31614,-0.13936 q 0.0678,0.12964 0.19265,0.3405 0.12933,0.20888 0.18993,0.26193 0.12961,0.11304 0.26002,0.11935 0.13238,0.0107 0.29713,-0.0619 l 4.5416,-2.00223 q 0.14693,-0.0648 0.23665,-0.16283 0.0942,-0.10002 0.0967,-0.28726 0.005,-0.14574 -0.0409,-0.37018 -0.0438,-0.22 -0.0879,-0.34414 l 0.31613,-0.13938 2.15534,4.8889 -1.52276,0.67133 -0.14723,-0.33393 q 0.29913,-0.23825 0.54608,-0.70342 0.25336,-0.46268 0.17121,-0.74553 -0.043,-0.14589 -0.11855,-0.34127 -0.0755,-0.19539 -0.18347,-0.44028 l -0.43774,-0.99292 -2.51123,1.10712 0.31408,0.7124 q 0.15114,0.34286 0.28219,0.47121 0.13745,0.13084 0.34183,0.18433 0.17231,0.0411 0.41548,0.0136 0.24958,-0.025 0.45086,-0.0871 l 0.14722,0.33394 -2.47116,1.08945 -0.14723,-0.33394 q 0.20587,-0.11203 0.40653,-0.29622 0.20706,-0.18169 0.27662,-0.3134 0.1128,-0.21458 0.0878,-0.41625 -0.0232,-0.19719 -0.15072,-0.48661 l -0.31407,-0.7124 -1.89678,0.83622 q -0.28496,0.12562 -0.43205,0.23833 -0.14707,0.1127 -0.18063,0.26577 -0.0335,0.15306 0.0281,0.3652 0.0661,0.21018 0.229,0.57974 0.0648,0.14694 0.17078,0.38737 0.106,0.24044 0.19644,0.39733 0.0924,0.16135 0.21544,0.31982 0.12946,0.16096 0.24299,0.20132 0.30401,0.1106 0.83405,0.14281 0.53647,0.0348 0.76877,0.007 z" style="font-style:normal;font-variant:normal;font-weight:normal;font-stretch:normal;font-size:10.5833px;font-family:Georgia;-inkscape-font-specification:'Georgia, Normal';font-variant-ligatures:normal;font-variant-caps:normal;font-variant-numeric:normal;font-variant-east-asian:normal;fill:#d9d9d9;fill-opacity:1;stroke-width:0.26258" id="path1672"/>
        <path d="m 245.37386,150.02134 q -0.0769,-0.11979 -0.26491,-0.32733 -0.188,-0.20756 -0.37225,-0.29917 -0.18864,-0.089 -0.53705,0.0407 -0.34841,0.12972 -0.80302,0.39919 l -2.69704,1.59863 q -0.51582,0.30572 -1.02306,0.31695 -0.50726,0.0112 -0.95933,-0.19338 -0.44074,-0.20541 -0.76926,-0.53049 -0.33034,-0.31811 -0.53762,-0.66782 -0.33165,-0.55951 -0.44211,-1.08472 -0.11485,-0.52263 -0.0419,-0.96756 0.0756,-0.44056 0.30658,-0.77832 0.23538,-0.34036 0.58507,-0.54764 l 3.66748,-2.17381 q 0.15297,-0.0907 0.22242,-0.20273 0.0764,-0.11028 0.0732,-0.31509 -0.004,-0.14555 -0.0696,-0.33676 -0.0617,-0.19378 -0.11772,-0.30825 l 0.31036,-0.18397 1.53125,2.58341 -0.31036,0.18396 q -0.0769,-0.11981 -0.2233,-0.28705 -0.14379,-0.16286 -0.22621,-0.23214 -0.14055,-0.11754 -0.29403,-0.0975 -0.15089,0.0245 -0.29515,0.10997 l -3.42704,2.03132 q -0.24915,0.14768 -0.49345,0.36337 -0.23734,0.21747 -0.37752,0.51912 -0.13937,0.31297 -0.11877,0.69653 0.0205,0.38355 0.32375,0.89499 0.285,0.48083 0.62972,0.71363 0.34732,0.23714 0.70789,0.27743 0.34228,0.0394 0.64422,-0.0393 0.30196,-0.0786 0.56423,-0.23402 l 2.54406,-1.50794 q 0.48522,-0.2876 0.74975,-0.5389 0.26889,-0.2539 0.28475,-0.44641 0.0186,-0.21777 -0.0783,-0.52068 -0.0943,-0.29855 -0.16842,-0.44362 l 0.31036,-0.18395 1.50276,2.53532 z" style="font-style:normal;font-variant:normal;font-weight:normal;font-stretch:normal;font-size:10.5833px;font-family:Georgia;-inkscape-font-specification:'Georgia, Normal';font-variant-ligatures:normal;font-variant-caps:normal;font-variant-numeric:normal;font-variant-east-asian:normal;fill:#d9d9d9;fill-opacity:1;stroke-width:0.26258" id="path1674"/>
        <path d="m 245.99523,156.33731 q -0.0619,0.34206 -0.24054,0.61772 -0.1714,0.27659 -0.49416,0.52658 -0.76803,0.59493 -1.70632,0.41314 -0.93827,-0.18178 -1.59016,-1.02336 -0.30063,-0.38811 -0.48279,-0.868 -0.17807,-0.48304 -0.22484,-0.89784 l -0.4343,0.0554 -0.25316,-0.32683 1.94118,-1.59516 0.25631,0.33091 q -0.28857,0.38695 -0.48236,0.75278 -0.18656,0.36674 -0.26988,0.7908 -0.0764,0.39915 -0.001,0.79179 0.0785,0.39674 0.36966,0.77259 0.21835,0.28188 0.45327,0.43327 0.2381,0.15548 0.47418,0.18178 0.23608,0.0263 0.46331,-0.0516 0.23447,-0.077 0.47142,-0.26058 0.34725,-0.26898 0.49358,-0.69609 0.15042,-0.43027 0.005,-0.93863 -0.0995,-0.34783 -0.23865,-0.7891 -0.13509,-0.44442 -0.21374,-0.78224 -0.15913,-0.66113 -0.0156,-1.21016 0.15065,-0.54811 0.72669,-0.99431 0.33091,-0.25631 0.72131,-0.34303 0.3904,-0.0867 0.80813,-0.0115 0.39599,0.0724 0.76445,0.30337 0.37256,0.22781 0.64471,0.57915 0.31014,0.40036 0.43123,0.80986 0.12428,0.4136 0.16339,0.80165 l 0.40755,-0.0477 0.25316,0.32682 -1.89888,1.52317 -0.25633,-0.33091 q 0.26131,-0.34621 0.47502,-0.69477 0.21687,-0.34447 0.32274,-0.7141 0.10084,-0.35921 0.0436,-0.72011 -0.0532,-0.36404 -0.33802,-0.73172 -0.30063,-0.38811 -0.76186,-0.46879 -0.46122,-0.0807 -0.82074,0.1978 -0.37585,0.29113 -0.48898,0.65984 -0.10905,0.36554 -0.009,0.82396 0.0881,0.40898 0.20333,0.77724 0.12255,0.36916 0.21293,0.73057 0.0837,0.32741 0.12288,0.65652 0.0424,0.33321 -0.009,0.63994 z" style="font-style:normal;font-variant:normal;font-weight:normal;font-stretch:normal;font-size:10.5833px;font-family:Georgia;-inkscape-font-specification:'Georgia, Normal';font-variant-ligatures:normal;font-variant-caps:normal;font-variant-numeric:normal;font-variant-east-asian:normal;fill:#d9d9d9;fill-opacity:1;stroke-width:0.26258" id="path1676"/>
        <path d="m 255.07814,162.09396 q -0.35656,0.40189 -0.79213,0.57194 -0.42872,0.16963 -0.88741,0.12505 -0.45506,-0.0414 -0.86805,-0.23954 -0.41301,-0.19818 -0.78232,-0.52582 l -0.57569,-0.51074 -1.38127,1.5569 q -0.11243,0.12673 -0.15932,0.25982 -0.0401,0.13269 0.0453,0.29902 0.0427,0.0832 0.18635,0.24943 0.14728,0.16949 0.28165,0.29518 l -0.22807,0.25707 -2.20502,-1.95624 0.22807,-0.25708 q 0.0933,0.0699 0.27232,0.1963 0.18261,0.12966 0.27348,0.15851 0.15038,0.0493 0.27775,5.4e-4 0.131,-0.0455 0.25628,-0.18675 l 3.28932,-3.70762 q 0.11243,-0.12672 0.16616,-0.26023 0.0538,-0.1335 -0.0352,-0.30304 -0.0958,-0.16913 -0.21736,-0.3093 -0.11469,-0.14059 -0.20603,-0.23455 l 0.22807,-0.25707 2.34623,2.08152 q 0.7169,0.63602 0.85387,1.37872 0.14381,0.74228 -0.36694,1.31798 z m -1.87806,-0.10031 q 0.2773,-0.0646 0.48094,-0.2139 0.20687,-0.15295 0.33857,-0.3014 0.1831,-0.20637 0.32193,-0.46497 0.14245,-0.25537 0.16431,-0.52069 0.0243,-0.28261 -0.0986,-0.55984 -0.12286,-0.27723 -0.43062,-0.55028 l -0.51053,-0.45292 -2.01406,2.27019 0.36931,0.32765 q 0.39104,0.34692 0.73963,0.44265 0.35542,0.0953 0.63914,0.0235 z" style="font-style:normal;font-variant:normal;font-weight:normal;font-stretch:normal;font-size:10.5833px;font-family:Georgia;-inkscape-font-specification:'Georgia, Normal';font-variant-ligatures:normal;font-variant-caps:normal;font-variant-numeric:normal;font-variant-east-asian:normal;fill:#d9d9d9;fill-opacity:1;stroke-width:0.26258" id="path1678"/>
        <path d="m 258.97844,170.92877 -1.57986,-1.00147 q -0.004,-1.15596 -0.0494,-2.02567 -0.0417,-0.86711 -0.13428,-1.81861 l -0.59969,-0.38014 -1.17973,1.8611 q -0.0917,0.14476 -0.11705,0.28526 -0.0226,0.13637 0.0894,0.28864 0.0561,0.0761 0.22646,0.21894 0.17039,0.14278 0.29597,0.22819 l -0.18614,0.29365 -2.48146,-1.57299 0.18613,-0.29364 q 0.1045,0.0546 0.30371,0.15194 0.20336,0.0999 0.29878,0.11403 0.15816,0.0249 0.27746,-0.0444 0.12345,-0.0667 0.22568,-0.22799 l 2.6898,-4.24331 q 0.0917,-0.14475 0.12119,-0.28263 0.0295,-0.13789 -0.0869,-0.29279 -0.0798,-0.10276 -0.22687,-0.23658 -0.14446,-0.13795 -0.25502,-0.21962 l 0.18613,-0.29365 2.70894,1.71717 q 0.37222,0.23595 0.64914,0.52163 0.27954,0.28156 0.43674,0.61891 0.15154,0.32797 0.13417,0.6938 -0.0148,0.3617 -0.25334,0.73805 -0.21497,0.33913 -0.48352,0.53415 -0.26856,0.19501 -0.59181,0.2568 -0.29885,0.0599 -0.64329,0.027 -0.34182,-0.0369 -0.71382,-0.1452 0.0699,0.85014 0.10613,1.42393 0.0405,0.57642 0.10167,1.40367 0.0246,0.3635 0.0933,0.5752 0.0755,0.21017 0.17305,0.37638 0.0735,0.12192 0.2164,0.25312 0.14294,0.13119 0.24784,0.2035 z m 0.59827,-5.75465 q 0.33819,-0.5335 0.22877,-1.03768 -0.10681,-0.50833 -0.66514,-0.86226 l -0.70308,-0.44568 -1.59658,2.51871 0.54179,0.34343 q 0.57074,0.36178 1.18193,0.23902 0.61382,-0.12689 1.01231,-0.75554 z" style="font-style:normal;font-variant:normal;font-weight:normal;font-stretch:normal;font-size:10.5833px;font-family:Georgia;-inkscape-font-specification:'Georgia, Normal';font-variant-ligatures:normal;font-variant-caps:normal;font-variant-numeric:normal;font-variant-east-asian:normal;fill:#d9d9d9;fill-opacity:1;stroke-width:0.26258" id="path1680"/>
        <path d="m 267.96587,167.96272 q 0.23655,0.60917 0.21516,1.32473 -0.0196,0.71111 -0.33002,1.45757 -0.31232,0.75091 -0.8073,1.26428 -0.49496,0.51338 -1.10078,0.76695 -0.59062,0.2547 -1.23325,0.25843 -0.64262,0.004 -1.26023,-0.25315 -0.6576,-0.27351 -1.11581,-0.75075 -0.4519,-0.47983 -0.66884,-1.08604 -0.22063,-0.59732 -0.19665,-1.30659 0.0303,-0.71186 0.32227,-1.4139 0.31971,-0.76866 0.80914,-1.26872 0.49127,-0.50448 1.09635,-0.7688 0.59877,-0.26172 1.24583,-0.26361 0.65151,-4e-5 1.25578,0.2513 0.62651,0.26057 1.08397,0.72707 0.45745,0.4665 0.68438,1.06123 z m -2.52121,4.19455 q 0.41699,-0.30084 0.74061,-0.76561 0.32805,-0.46292 0.59048,-1.09387 0.26982,-0.64872 0.36642,-1.24439 0.10105,-0.59382 0.0155,-1.07757 -0.0873,-0.47933 -0.36922,-0.84155 -0.28008,-0.36667 -0.75551,-0.56441 -0.53318,-0.22177 -1.00806,-0.13263 -0.47488,0.0891 -0.88039,0.39997 -0.3848,0.29861 -0.71395,0.7767 -0.3247,0.47996 -0.56496,1.05758 -0.26613,0.63984 -0.36497,1.2033 -0.0989,0.56347 -0.0164,1.06684 0.0773,0.49081 0.34925,0.86451 0.27379,0.36927 0.78033,0.57995 0.47543,0.19773 0.94995,0.13451 0.47452,-0.0632 0.88077,-0.36333 z" style="font-style:normal;font-variant:normal;font-weight:normal;font-stretch:normal;font-size:10.5833px;font-family:Georgia;-inkscape-font-specification:'Georgia, Normal';font-variant-ligatures:normal;font-variant-caps:normal;font-variant-numeric:normal;font-variant-east-asian:normal;fill:#d9d9d9;fill-opacity:1;stroke-width:0.26258" id="path1682"/>
        <path d="m 275.29832,171.11127 -0.32329,-0.0843 q 0.002,-0.17967 -0.0507,-0.4386 -0.0466,-0.26238 -0.12869,-0.50399 -0.0843,-0.2522 -0.21141,-0.45552 -0.12119,-0.20678 -0.26969,-0.27055 -0.14035,-0.0567 -0.35812,-0.12349 -0.21775,-0.0668 -0.40516,-0.11575 l -0.27175,-0.0709 -1.3878,5.31777 q -0.0404,0.15461 -0.009,0.30291 0.0326,0.14363 0.17822,0.2567 0.0758,0.0548 0.32816,0.18072 0.25707,0.12715 0.40578,0.17096 l -0.0868,0.33266 -3.13912,-0.81924 0.0868,-0.33265 q 0.13363,0.0248 0.40803,0.0664 0.27908,0.0428 0.39316,0.0275 0.17051,-0.0205 0.27014,-0.11466 0.10552,-0.0976 0.15565,-0.28967 l 1.39882,-5.35993 -0.27175,-0.0709 q -0.14525,-0.0379 -0.36321,-0.0848 -0.21674,-0.0515 -0.41964,-0.0795 -0.1595,-0.0216 -0.37219,0.10303 -0.20678,0.1212 -0.40236,0.29535 -0.19558,0.17416 -0.3657,0.38498 -0.1689,0.20614 -0.25142,0.34975 l -0.32796,-0.0856 0.47075,-1.80383 5.79097,1.51131 z" style="font-style:normal;font-variant:normal;font-weight:normal;font-stretch:normal;font-size:10.5833px;font-family:Georgia;-inkscape-font-specification:'Georgia, Normal';font-variant-ligatures:normal;font-variant-caps:normal;font-variant-numeric:normal;font-variant-east-asian:normal;fill:#d9d9d9;fill-opacity:1;stroke-width:0.26258" id="path1684"/>
        <path d="m 282.6914,175.09182 -0.36491,1.98917 -5.64866,-0.66351 0.04,-0.34046 q 0.14497,0.007 0.38811,0.007 0.2437,-0.005 0.31958,-0.0306 0.16188,-0.0539 0.23295,-0.16223 0.0759,-0.10776 0.0967,-0.28517 l 0.57451,-4.89104 q 0.0186,-0.15824 -0.0201,-0.28432 -0.0381,-0.13088 -0.19693,-0.2273 -0.12214,-0.0775 -0.3371,-0.15141 -0.21014,-0.0733 -0.33848,-0.0981 l 0.04,-0.34045 5.26505,0.61844 -0.19262,1.63995 -0.35963,-0.0422 q -0.0531,-0.37569 -0.3265,-0.82102 -0.26804,-0.44956 -0.55125,-0.52172 -0.14639,-0.0366 -0.35145,-0.0704 -0.20506,-0.0338 -0.4688,-0.0648 l -1.06932,-0.12561 -0.31767,2.70446 0.76722,0.0901 q 0.36922,0.0434 0.54495,-0.004 0.18107,-0.0517 0.32968,-0.19949 0.12183,-0.12667 0.22081,-0.34838 0.10431,-0.22596 0.1525,-0.42933 l 0.35964,0.0422 -0.3126,2.6613 -0.35964,-0.0422 q 0.007,-0.23243 -0.0486,-0.4967 -0.0511,-0.26852 -0.1287,-0.3943 -0.12667,-0.20447 -0.31173,-0.28454 -0.18025,-0.0795 -0.49193,-0.11612 l -0.76722,-0.0902 -0.23995,2.04274 q -0.036,0.30688 -0.0137,0.48937 0.0223,0.18248 0.13628,0.28825 0.11398,0.10575 0.32637,0.15986 0.21298,0.0492 0.61097,0.0961 0.15823,0.0186 0.41717,0.049 0.25894,0.0305 0.43861,0.032 0.18447,0.002 0.38191,-0.0232 0.20279,-0.0297 0.29444,-0.1064 0.24762,-0.20426 0.54202,-0.64122 0.29975,-0.4412 0.39279,-0.65389 z" style="font-style:normal;font-variant:normal;font-weight:normal;font-stretch:normal;font-size:10.5833px;font-family:Georgia;-inkscape-font-specification:'Georgia, Normal';font-variant-ligatures:normal;font-variant-caps:normal;font-variant-numeric:normal;font-variant-east-asian:normal;fill:#d9d9d9;fill-opacity:1;stroke-width:0.26258" id="path1686"/>
        <path d="m 287.61157,177.26582 q -0.61107,0.0183 -1.18128,-0.20516 -0.56539,-0.22373 -1.01208,-0.66295 -0.44187,-0.43936 -0.71648,-1.08122 -0.27476,-0.64668 -0.29945,-1.46464 -0.0248,-0.81796 0.20549,-1.4895 0.23003,-0.67635 0.65816,-1.17086 0.42348,-0.48955 1.01227,-0.76738 0.58879,-0.27782 1.26722,-0.29829 0.50522,-0.0149 0.91795,0.0975 0.41277,0.11275 0.79008,0.32772 l 0.1874,-0.33315 0.38491,-0.0119 0.11676,2.43334 -0.39453,0.0123 q -0.0878,-0.35375 -0.25418,-0.76289 -0.16659,-0.41395 -0.3822,-0.6964 -0.24084,-0.32021 -0.5639,-0.49348 -0.32323,-0.17805 -0.73221,-0.16571 -0.46672,0.0143 -0.86465,0.23317 -0.39311,0.21894 -0.67442,0.63196 -0.26731,0.39816 -0.40795,1.00439 -0.14062,0.60624 -0.11826,1.34721 0.02,0.65436 0.19988,1.19795 0.18482,0.53863 0.50524,0.94312 0.32028,0.39969 0.74585,0.61801 0.43038,0.21818 0.95004,0.2025 0.38971,-0.0121 0.71328,-0.14193 0.32341,-0.13497 0.55789,-0.3443 0.23418,-0.21898 0.40889,-0.49394 0.17471,-0.27496 0.28061,-0.596 l 0.36608,0.16232 q -0.38315,1.02772 -1.05318,1.48619 -0.67017,0.45365 -1.61322,0.48211 z" style="font-style:normal;font-variant:normal;font-weight:normal;font-stretch:normal;font-size:10.5833px;font-family:Georgia;-inkscape-font-specification:'Georgia, Normal';font-variant-ligatures:normal;font-variant-caps:normal;font-variant-numeric:normal;font-variant-east-asian:normal;fill:#d9d9d9;fill-opacity:1;stroke-width:0.26258" id="path1688"/>
        <path d="m 297.78728,170.97584 -0.3302,0.0417 q -0.0649,-0.16684 -0.20938,-0.38681 -0.14033,-0.22536 -0.30574,-0.41838 -0.1714,-0.20199 -0.36425,-0.34292 -0.18869,-0.14631 -0.34965,-0.15027 -0.15077,-7.4e-4 -0.37691,0.0182 -0.22614,0.0189 -0.41756,0.0431 l -0.27757,0.0351 0.68685,5.43174 q 0.02,0.15792 0.10391,0.28345 0.0834,0.12074 0.25991,0.17135 0.0905,0.0226 0.37043,0.0456 0.28483,0.0224 0.43858,0.007 l 0.0429,0.33979 -3.2064,0.40546 -0.0429,-0.33979 q 0.13279,-0.0265 0.40195,-0.0897 0.27392,-0.0639 0.37378,-0.1202 0.15005,-0.0821 0.20731,-0.20613 0.0614,-0.12932 0.0366,-0.32553 l -0.69229,-5.4748 -0.27758,0.0351 q -0.14835,0.0188 -0.36728,0.0562 -0.21954,0.0326 -0.4175,0.082 -0.15552,0.0391 -0.30601,0.23318 -0.14632,0.18868 -0.26266,0.42219 -0.11634,0.23351 -0.19555,0.4915 -0.0798,0.2532 -0.10292,0.41657 l -0.33499,0.0424 -0.23298,-1.84248 5.91509,-0.74798 z" style="font-style:normal;font-variant:normal;font-weight:normal;font-stretch:normal;font-size:10.5833px;font-family:Georgia;-inkscape-font-specification:'Georgia, Normal';font-variant-ligatures:normal;font-variant-caps:normal;font-variant-numeric:normal;font-variant-east-asian:normal;fill:#d9d9d9;fill-opacity:1;stroke-width:0.26258" id="path1690"/>
        <path d="m 304.14061,167.92499 q 0.55978,0.33764 0.9804,0.91725 0.41936,0.57496 0.63,1.35581 0.21189,0.7855 0.13396,1.49461 -0.078,0.70912 -0.40255,1.28033 -0.3119,0.56279 -0.81839,0.95871 -0.5065,0.39591 -1.15256,0.57018 -0.68788,0.18557 -1.34249,0.0879 -0.6512,-0.10356 -1.19364,-0.45087 -0.53992,-0.338 -0.95464,-0.91421 -0.41131,-0.58212 -0.60942,-1.31649 -0.2169,-0.80409 -0.13521,-1.49926 0.0805,-0.69983 0.39789,-1.27908 0.31404,-0.57335 0.82518,-0.97051 0.51579,-0.39842 1.14791,-0.56894 0.65535,-0.17678 1.30279,-0.0872 0.64744,0.0896 1.19077,0.42172 z m 0.56878,4.86261 q 0.14619,-0.49317 0.11821,-1.05902 -0.0229,-0.56713 -0.20139,-1.22712 -0.18306,-0.6786 -0.4708,-1.20928 -0.28311,-0.53194 -0.64657,-0.8627 -0.3622,-0.32612 -0.80691,-0.4405 -0.44596,-0.11903 -0.94329,0.0151 -0.55775,0.15046 -0.87921,0.51141 -0.32147,0.36095 -0.45246,0.85502 -0.12207,0.4717 -0.0903,1.0515 0.0364,0.57855 0.19939,1.18278 0.18055,0.66929 0.44684,1.17585 0.26629,0.50656 0.63941,0.85466 0.36132,0.34132 0.80514,0.4709 0.44256,0.12493 0.97243,-0.018 0.49732,-0.13417 0.83436,-0.47439 0.33702,-0.34022 0.47517,-0.82623 z" style="font-style:normal;font-variant:normal;font-weight:normal;font-stretch:normal;font-size:10.5833px;font-family:Georgia;-inkscape-font-specification:'Georgia, Normal';font-variant-ligatures:normal;font-variant-caps:normal;font-variant-numeric:normal;font-variant-east-asian:normal;fill:#d9d9d9;fill-opacity:1;stroke-width:0.26258" id="path1692"/>
        <path d="m 314.7115,169.72586 -1.6771,0.8191 q -0.98428,-0.60135 -1.7474,-1.01709 -0.75872,-0.41787 -1.61578,-0.83668 l -0.63659,0.31092 0.96492,1.97564 q 0.0751,0.15366 0.18122,0.24861 0.10405,0.0906 0.29212,0.0748 0.0941,-0.008 0.30446,-0.078 0.21044,-0.0702 0.34867,-0.13223 l 0.15224,0.31171 -2.63418,1.28655 -0.15224,-0.31171 q 0.10107,-0.0602 0.28792,-0.17868 0.19123,-0.12059 0.2531,-0.19431 0.10384,-0.1214 0.10731,-0.25904 0.008,-0.13977 -0.0757,-0.31099 l -2.2,-4.50447 q -0.0751,-0.15366 -0.17683,-0.25076 -0.1018,-0.0971 -0.29427,-0.0792 -0.12903,0.0146 -0.31968,0.0691 -0.19276,0.0507 -0.31998,0.1019 l -0.15225,-0.31171 2.87567,-1.40448 q 0.39512,-0.19298 0.7827,-0.27897 0.38543,-0.0904 0.75434,-0.0473 0.35798,0.0427 0.65979,0.2487 0.29968,0.20164 0.49481,0.60116 0.17581,0.36001 0.20115,0.6902 0.0251,0.33021 -0.0911,0.63723 -0.10537,0.28526 -0.31334,0.56084 -0.21012,0.27119 -0.49661,0.53074 0.75903,0.3851 1.26566,0.65424 0.51104,0.26698 1.24607,0.64749 0.32184,0.16907 0.53768,0.22134 0.21809,0.0457 0.41034,0.0497 0.14203,9.5e-4 0.32826,-0.0515 0.18623,-0.0529 0.30253,-0.10424 z m -4.57792,-3.51708 q -0.27661,-0.56635 -0.76231,-0.73696 -0.48784,-0.17498 -1.08055,0.11447 l -0.74634,0.36453 1.30584,2.6737 0.57514,-0.2809 q 0.60586,-0.29591 0.82107,-0.87952 0.21307,-0.58801 -0.1128,-1.25534 z" style="font-style:normal;font-variant:normal;font-weight:normal;font-stretch:normal;font-size:10.5833px;font-family:Georgia;-inkscape-font-specification:'Georgia, Normal';font-variant-ligatures:normal;font-variant-caps:normal;font-variant-numeric:normal;font-variant-east-asian:normal;fill:#d9d9d9;fill-opacity:1;stroke-width:0.26258" id="path1694"/>
        <path d="m 320.16093,157.71529 q -0.10257,0.0917 -0.27443,0.33062 -0.17185,0.23887 -0.21597,0.37783 -0.0574,0.2075 0.11663,0.51641 0.17778,0.30578 0.52025,0.71732 l 3.26457,3.92282 -0.32847,0.27336 -6.8949,-1.68132 2.29997,2.76373 q 0.38646,0.4644 0.65047,0.66645 0.26778,0.19892 0.47658,0.20409 0.15596,0.0108 0.4875,-0.14369 0.33154,-0.15449 0.42153,-0.22298 l 0.22308,0.26806 -2.19739,1.82866 -0.22309,-0.26807 q 0.0957,-0.0924 0.28389,-0.35765 0.18507,-0.26906 0.2015,-0.37218 0.0442,-0.21569 -0.0858,-0.47175 -0.13316,-0.25982 -0.5699,-0.78464 l -2.19627,-2.63913 q -0.14454,-0.17367 -0.34948,-0.29707 -0.20494,-0.12341 -0.38544,-0.13296 -0.23961,-0.0115 -0.54595,0.0965 -0.30573,0.10105 -0.45548,0.21288 l -0.22308,-0.26806 1.52911,-1.27252 6.41258,1.57784 -2.12087,-2.54851 q -0.38961,-0.46817 -0.65739,-0.66709 -0.27092,-0.20269 -0.45332,-0.19149 -0.16541,0.0163 -0.46361,0.14937 -0.29441,0.12999 -0.42529,0.22612 l -0.22309,-0.26806 2.17852,-1.81295 z" style="font-style:normal;font-variant:normal;font-weight:normal;font-stretch:normal;font-size:10.5833px;font-family:Georgia;-inkscape-font-specification:'Georgia, Normal';font-variant-ligatures:normal;font-variant-caps:normal;font-variant-numeric:normal;font-variant-east-asian:normal;fill:#d9d9d9;fill-opacity:1;stroke-width:0.26258" id="path1696"/>
        <path d="m 324.67322,153.34736 q 0.6518,-0.0328 1.3234,0.21231 0.66799,0.24198 1.27805,0.77087 0.6137,0.53203 0.94482,1.16256 0.33112,0.63054 0.38114,1.28452 0.0558,0.63993 -0.14256,1.25028 -0.19839,0.61036 -0.63598,1.11512 -0.46592,0.53744 -1.06231,0.82184 -0.59688,0.27762 -1.23971,0.29277 -0.63557,0.0215 -1.3004,-0.22416 -0.66531,-0.25239 -1.23906,-0.74979 -0.62822,-0.54463 -0.94845,-1.16572 -0.32386,-0.62424 -0.38429,-1.28088 -0.06,-0.64987 0.14159,-1.26386 0.20469,-0.61761 0.63284,-1.11148 0.44389,-0.51202 1.02986,-0.79908 0.58597,-0.28706 1.22106,-0.3153 z m 3.18406,3.70809 q -0.15416,-0.48983 -0.49306,-0.94265 -0.33575,-0.45644 -0.8514,-0.90348 -0.53017,-0.45963 -1.06449,-0.7384 -0.53117,-0.28239 -1.01661,-0.3534 -0.48182,-0.0679 -0.91379,0.0856 -0.43559,0.15029 -0.77244,0.53884 -0.37778,0.43576 -0.4425,0.91394 -0.0647,0.47818 0.10251,0.96026 0.16215,0.45861 0.51195,0.92088 0.35294,0.45862 0.82501,0.86789 0.52291,0.45332 1.026,0.7241 0.50309,0.27076 1.0062,0.35074 0.48956,0.0809 0.92927,-0.0594 0.43608,-0.14351 0.79497,-0.55748 0.33685,-0.38855 0.42603,-0.85826 0.0892,-0.46969 -0.0676,-0.94913 z" style="font-style:normal;font-variant:normal;font-weight:normal;font-stretch:normal;font-size:10.5833px;font-family:Georgia;-inkscape-font-specification:'Georgia, Normal';font-variant-ligatures:normal;font-variant-caps:normal;font-variant-numeric:normal;font-variant-east-asian:normal;fill:#d9d9d9;fill-opacity:1;stroke-width:0.26258" id="path1698"/>
        <path d="m 330.80264,149.57153 q 0.32099,-0.0477 0.61822,0.0277 0.29587,0.0688 0.61355,0.2793 0.75598,0.50102 0.87613,1.38509 0.12015,0.88408 -0.42885,1.71244 -0.25317,0.38201 -0.62296,0.68673 -0.37381,0.30207 -0.72659,0.4676 l 0.17896,0.36745 -0.2132,0.3217 -1.99161,-1.2389 0.21587,-0.32571 q 0.42853,0.13932 0.81002,0.20116 0.38014,0.0552 0.78004,0.002 0.37584,-0.0519 0.70046,-0.23605 0.3273,-0.18821 0.57247,-0.55816 0.18389,-0.27746 0.24742,-0.53051 0.0662,-0.25707 0.0188,-0.47369 -0.0474,-0.21663 -0.18438,-0.3942 -0.13832,-0.18427 -0.37154,-0.33883 -0.3418,-0.22653 -0.76327,-0.22807 -0.42548,-0.004 -0.83146,0.27655 -0.27778,0.19209 -0.6263,0.44726 -0.35253,0.2525 -0.62769,0.42316 -0.53695,0.33864 -1.06534,0.3762 -0.52976,0.0309 -1.09675,-0.34489 -0.32571,-0.21587 -0.51925,-0.53511 -0.19353,-0.31925 -0.25214,-0.71112 -0.0545,-0.37181 0.0394,-0.76677 0.0899,-0.39762 0.31908,-0.74344 0.26118,-0.39408 0.58702,-0.62375 0.3285,-0.23371 0.65992,-0.38447 l -0.16418,-0.34608 0.21319,-0.3217 1.9153,1.22305 -0.21587,0.32572 q -0.38434,-0.1274 -0.75653,-0.21202 -0.36952,-0.0887 -0.72805,-0.0716 -0.34783,0.0183 -0.64978,0.17704 -0.30597,0.15603 -0.54582,0.51794 -0.25317,0.38201 -0.18643,0.814 0.0667,0.43198 0.4206,0.6665 0.36994,0.24518 0.72983,0.23484 0.35587,-0.013 0.73122,-0.23882 0.33529,-0.20027 0.62639,-0.41246 0.28975,-0.21887 0.58225,-0.40699 0.26445,-0.17198 0.54372,-0.3052 0.28194,-0.13724 0.56815,-0.18484 z" style="font-style:normal;font-variant:normal;font-weight:normal;font-stretch:normal;font-size:10.5833px;font-family:Georgia;-inkscape-font-specification:'Georgia, Normal';font-variant-ligatures:normal;font-variant-caps:normal;font-variant-numeric:normal;font-variant-east-asian:normal;fill:#d9d9d9;fill-opacity:1;stroke-width:0.26258" id="path1700"/>
        <path d="m 332.80764,141.88819 -0.15443,0.29754 q -0.17539,-0.0417 -0.44039,-0.048 -0.26709,-0.0127 -0.52174,0.0138 -0.2655,0.0264 -0.49269,0.10556 -0.22926,0.0726 -0.32468,0.2037 -0.0867,0.12472 -0.20045,0.32292 -0.11382,0.1982 -0.20334,0.37068 l -0.12981,0.25011 4.89434,2.54029 q 0.1423,0.0739 0.29438,0.0762 0.14776,6e-5 0.29078,-0.1173 0.0705,-0.0619 0.24979,-0.28088 0.18157,-0.22325 0.25749,-0.359 l 0.30617,0.1589 -1.49956,2.88917 -0.30616,-0.1589 q 0.0541,-0.12522 0.15575,-0.38445 0.10393,-0.26354 0.11436,-0.37855 0.0178,-0.17139 -0.0521,-0.28979 -0.072,-0.12495 -0.24879,-0.21671 l -4.93316,-2.56044 -0.12981,0.25011 q -0.0694,0.13367 -0.16371,0.33651 -0.0986,0.2006 -0.17109,0.39291 -0.0566,0.15125 0.0181,0.38707 0.0726,0.22926 0.19949,0.45933 0.12691,0.23009 0.29536,0.44341 0.16413,0.21109 0.28629,0.32376 l -0.15667,0.30186 -1.6602,-0.86169 2.76635,-5.32987 z" style="font-style:normal;font-variant:normal;font-weight:normal;font-stretch:normal;font-size:10.5833px;font-family:Georgia;-inkscape-font-specification:'Georgia, Normal';font-variant-ligatures:normal;font-variant-caps:normal;font-variant-numeric:normal;font-variant-east-asian:normal;fill:#d9d9d9;fill-opacity:1;stroke-width:0.26258" id="path1702"/>
        <path d="m 338.21295,136.52141 1.84715,0.86325 -2.08783,5.34045 -0.32187,-0.12583 q 0.0441,-0.13955 0.10551,-0.37687 0.0569,-0.23907 0.0517,-0.31948 -0.0113,-0.17167 -0.0988,-0.2686 -0.0857,-0.10147 -0.25351,-0.16705 l -4.62415,-1.8078 q -0.14961,-0.0585 -0.28244,-0.0529 -0.13737,0.004 -0.27193,0.1341 -0.10679,0.0994 -0.23366,0.29018 -0.12509,0.18629 -0.18202,0.30514 l -0.32187,-0.12583 1.94604,-4.97777 1.55045,0.60614 -0.13292,0.34002 q -0.37999,-0.0441 -0.88408,0.10905 -0.50687,0.1468 -0.64947,0.40463 -0.0731,0.13344 -0.15836,0.32483 -0.0852,0.19141 -0.18275,0.44074 l -0.39523,1.01097 2.55688,0.99961 0.28357,-0.72536 q 0.13648,-0.34908 0.13504,-0.53257 -0.004,-0.18978 -0.11048,-0.37245 -0.0925,-0.15114 -0.28351,-0.30421 -0.19378,-0.15938 -0.37986,-0.25826 l 0.13293,-0.34001 2.51609,0.98366 -0.13293,0.34001 q -0.22469,-0.067 -0.49688,-0.0793 -0.27493,-0.0186 -0.41741,0.025 -0.23175,0.0714 -0.35704,0.23149 -0.12353,0.15554 -0.23873,0.45021 l -0.28357,0.72536 1.93126,0.75502 q 0.29014,0.11343 0.47383,0.13821 0.18369,0.0248 0.31591,-0.0594 0.13221,-0.0842 0.23917,-0.27757 0.10243,-0.19515 0.24953,-0.57142 0.0585,-0.1496 0.1542,-0.39442 0.0957,-0.24481 0.14315,-0.41963 0.0493,-0.17937 0.0748,-0.37843 0.0228,-0.20537 -0.0286,-0.31434 -0.13608,-0.29361 -0.48721,-0.6922 -0.35389,-0.4049 -0.53761,-0.5499 z" style="font-style:normal;font-variant:normal;font-weight:normal;font-stretch:normal;font-size:10.5833px;font-family:Georgia;-inkscape-font-specification:'Georgia, Normal';font-variant-ligatures:normal;font-variant-caps:normal;font-variant-numeric:normal;font-variant-east-asian:normal;fill:#d9d9d9;fill-opacity:1;stroke-width:0.26258" id="path1704"/>
        <path d="m 342.41189,128.97722 -0.47004,1.79711 q -1.09247,0.35261 -1.90135,0.65875 -0.80767,0.30144 -1.67981,0.67649 l -0.17843,0.68215 2.11702,0.55371 q 0.16466,0.0431 0.30521,0.0246 0.13586,-0.0198 0.24602,-0.17189 0.055,-0.076 0.13868,-0.28039 0.0836,-0.20432 0.12645,-0.34892 l 0.33402,0.0873 -0.7383,2.8227 -0.33401,-0.0873 q 0.0201,-0.11537 0.0519,-0.33323 0.0331,-0.22255 0.0176,-0.31708 -0.0243,-0.15713 -0.12586,-0.24905 -0.10039,-0.0966 -0.28387,-0.14461 l -4.8268,-1.26247 q -0.16466,-0.0431 -0.30399,-0.0293 -0.13932,0.0138 -0.25071,0.17066 -0.0731,0.10654 -0.15526,0.28611 -0.0869,0.17833 -0.13071,0.3076 l -0.33402,-0.0873 0.80596,-3.08145 q 0.11075,-0.4234 0.29734,-0.77168 0.18188,-0.3495 0.45352,-0.60014 0.26447,-0.24247 0.61578,-0.33655 0.34662,-0.0953 0.77473,0.0167 0.38577,0.1009 0.65139,0.29603 0.26563,0.19513 0.42174,0.48226 0.14692,0.26461 0.21994,0.60037 0.0683,0.33453 0.0783,0.71914 0.78313,-0.32294 1.31496,-0.53065 0.53306,-0.21242 1.29715,-0.52023 0.33641,-0.13317 0.5159,-0.26215 0.17603,-0.1349 0.30378,-0.27741 0.0932,-0.10632 0.17407,-0.28118 0.0809,-0.17486 0.11761,-0.29595 z m -5.62458,1.17271 q -0.60688,-0.15873 -1.05078,0.0971 -0.44859,0.25462 -0.61471,0.88972 l -0.20917,0.79977 2.86503,0.74935 0.16119,-0.61629 q 0.16981,-0.64921 -0.13099,-1.19031 -0.30549,-0.54232 -1.02057,-0.72936 z" style="font-style:normal;font-variant:normal;font-weight:normal;font-stretch:normal;font-size:10.5833px;font-family:Georgia;-inkscape-font-specification:'Georgia, Normal';font-variant-ligatures:normal;font-variant-caps:normal;font-variant-numeric:normal;font-variant-east-asian:normal;fill:#d9d9d9;fill-opacity:1;stroke-width:0.26258" id="path1706"/>
      </g>
    </g>
  </g>
</svg>