<?xml version="1.0" encoding="UTF-8" standalone="no"?>
<svg
   xmlns:dc="http://purl.org/dc/elements/1.1/"
   xmlns:cc="http://creativecommons.org/ns#"
   xmlns:rdf="http://www.w3.org/1999/02/22-rdf-syntax-ns#"
   xmlns:svg="http://www.w3.org/2000/svg"
   xmlns="http://www.w3.org/2000/svg"
   xml:space="preserve"
   width="500"
   height="540"
   shape-rendering="geometricPrecision"
   text-rendering="geometricPrecision"
   image-rendering="optimizeQuality"
   fill-rule="evenodd"
   clip-rule="evenodd"
   viewBox="0 0 500 540"
   version="1.0"
   id="svg38"><metadata
   id="metadata44"><rdf:RDF><cc:Work
       rdf:about=""><dc:format>image/svg+xml</dc:format><dc:type
         rdf:resource="http://purl.org/dc/dcmitype/StillImage" /><dc:title></dc:title></cc:Work></rdf:RDF></metadata><defs
   id="defs42" />
 
<g
   id="g1650"
   transform="matrix(0.94476458,0,0,0.94476458,-720.16752,115.62521)"
   style="stroke-width:1.05846"><path
     style="font-variation-settings:normal;opacity:1;vector-effect:none;fill:#000000;fill-opacity:1;stroke:none;stroke-width:0.529233;stroke-linecap:butt;stroke-linejoin:miter;stroke-miterlimit:4;stroke-dasharray:none;stroke-dashoffset:0;stroke-opacity:1;stop-color:#000000;stop-opacity:1"
     d="m 1291.5043,-122.38521 -16.9597,340.96888 c -6.9439,139.60298 -125.3652,230.60208 -247.6565,230.60208 -122.29127,0 -240.71257,-90.9991 -247.65647,-230.60208 l -16.9597,-340.96888 z"
     id="path914" /><g
     id="g980"
     style="stroke-width:1.05846"><path
       id="path1231"
       style="font-variation-settings:normal;opacity:1;vector-effect:none;fill:#bfbfbf;fill-opacity:1;stroke:none;stroke-width:0.529235;stroke-linecap:butt;stroke-linejoin:miter;stroke-miterlimit:4;stroke-dasharray:none;stroke-dashoffset:0;stroke-opacity:1;stop-color:#000000;stop-opacity:1"
       d="M 868.89442,-75.408203 806.21875,129.08984 h 65.25 l 38.50488,-8 38.50487,8 h 64 l -63.94725,-203.769528 -11.23047,-0.728515 7.47838,28.687615 -29.1776,-1.375115 -1.30468,-26.583985 -10.51172,-0.728515 -3.15835,28.687615 -29.17954,-1.375115 8.34375,-26.583985 z" /><path
       id="path1464"
       style="font-variation-settings:normal;opacity:1;vector-effect:none;fill:#f90606;fill-opacity:1;stroke:none;stroke-width:0.529235;stroke-linecap:butt;stroke-linejoin:miter;stroke-miterlimit:4;stroke-dasharray:none;stroke-dashoffset:0;stroke-opacity:1;stop-color:#000000;stop-opacity:1"
       d="M 875.46875,129.08984 H 944.4785 L 909.97266,43.115234 Z" /><path
       id="path1289"
       style="font-variation-settings:normal;opacity:1;vector-effect:none;fill:#666666;fill-opacity:1;stroke:none;stroke-width:0.529233;stroke-linecap:butt;stroke-linejoin:miter;stroke-miterlimit:4;stroke-dasharray:none;stroke-dashoffset:0;stroke-opacity:1;stop-color:#000000;stop-opacity:1"
       d="m 875.49414,-74.679688 -9.19922,29.310547 2.75196,-0.0039 1.46364,-1.445638 -0.61013,-1.277018 8.34375,-26.583985 -1.375,-0.541471 z m 34.50391,0 1.43554,29.253907 2.75,-0.002 0.78768,-1.408576 -0.91854,-1.259393 -1.30468,-26.583985 -1.375,-0.541471 z m 34.23633,0 63.94722,203.769528 h 2.75 l -63.94722,-203.769528 -1.375,-0.541471 z" /><path
       id="path1390"
       style="font-variation-settings:normal;opacity:1;vector-effect:none;fill:#ffffff;fill-opacity:1;stroke:none;stroke-width:0.529233;stroke-linecap:butt;stroke-linejoin:miter;stroke-miterlimit:4;stroke-dasharray:none;stroke-dashoffset:0;stroke-opacity:1;stop-color:#000000;stop-opacity:1"
       d="m 868.26953,-77.408203 -64.80273,206.496093 2.75195,0.002 63.94727,-203.769528 h 9.625 l 0.85546,-2.728515 z m 33.51563,0 -1.43946,29.3125 h -30.44531 l -0.85351,2.722656 33.91796,-0.04102 1.43555,-29.265626 h 9.89649 l -0.13477,-2.728515 z m 33.51562,0 9.19727,29.3125 h -30.44532 l 0.13086,2.667969 33.88868,-0.04297 -9.16602,-29.208985 h 9.625 l -0.85547,-2.728515 z" /><path
       id="path1474"
       style="font-variation-settings:normal;opacity:1;vector-effect:none;fill:#aa0000;fill-opacity:1;stroke:none;stroke-width:0.529235;stroke-linecap:butt;stroke-linejoin:miter;stroke-miterlimit:4;stroke-dasharray:none;stroke-dashoffset:0;stroke-opacity:1;stop-color:#000000;stop-opacity:1"
       d="m 907.97266,40.248047 -36.50391,88.841793 h 4 l 34.50391,-83.974606 -0.5507,-2.434625 z" /><path
       id="path1468"
       style="font-variation-settings:normal;opacity:1;vector-effect:none;fill:#ffffff;fill-opacity:1;stroke:none;stroke-width:0.529235;stroke-linecap:butt;stroke-linejoin:miter;stroke-miterlimit:4;stroke-dasharray:none;stroke-dashoffset:0;stroke-opacity:1;stop-color:#000000;stop-opacity:1"
       d="M 948.4785,129.08984 899.04431,8.7831116 h -4 L 944.4785,129.08984 Z" /></g><g
     id="g1578"
     transform="translate(237.8309)"
     style="stroke-width:1.05846"><path
       id="path1566"
       style="font-variation-settings:normal;opacity:1;vector-effect:none;fill:#bfbfbf;fill-opacity:1;stroke:none;stroke-width:0.529235;stroke-linecap:butt;stroke-linejoin:miter;stroke-miterlimit:4;stroke-dasharray:none;stroke-dashoffset:0;stroke-opacity:1;stop-color:#000000;stop-opacity:1"
       d="M 868.89442,-75.408203 806.21875,129.08984 h 65.25 l 38.50488,-8 38.50487,8 h 64 l -63.94725,-203.769528 -11.23047,-0.728515 7.47838,28.687615 -29.1776,-1.375115 -1.30468,-26.583985 -10.51172,-0.728515 -3.15835,28.687615 -29.17954,-1.375115 8.34375,-26.583985 z" /><path
       id="path1568"
       style="font-variation-settings:normal;opacity:1;vector-effect:none;fill:#f90606;fill-opacity:1;stroke:none;stroke-width:0.529235;stroke-linecap:butt;stroke-linejoin:miter;stroke-miterlimit:4;stroke-dasharray:none;stroke-dashoffset:0;stroke-opacity:1;stop-color:#000000;stop-opacity:1"
       d="M 875.46875,129.08984 H 944.4785 L 909.97266,43.115234 Z" /><path
       id="path1570"
       style="font-variation-settings:normal;opacity:1;vector-effect:none;fill:#666666;fill-opacity:1;stroke:none;stroke-width:0.529233;stroke-linecap:butt;stroke-linejoin:miter;stroke-miterlimit:4;stroke-dasharray:none;stroke-dashoffset:0;stroke-opacity:1;stop-color:#000000;stop-opacity:1"
       d="m 875.49414,-74.679688 -9.19922,29.310547 2.75196,-0.0039 1.46364,-1.445638 -0.61013,-1.277018 8.34375,-26.583985 -1.375,-0.541471 z m 34.50391,0 1.43554,29.253907 2.75,-0.002 0.78768,-1.408576 -0.91854,-1.259393 -1.30468,-26.583985 -1.375,-0.541471 z m 34.23633,0 63.94722,203.769528 h 2.75 l -63.94722,-203.769528 -1.375,-0.541471 z" /><path
       id="path1572"
       style="font-variation-settings:normal;opacity:1;vector-effect:none;fill:#ffffff;fill-opacity:1;stroke:none;stroke-width:0.529233;stroke-linecap:butt;stroke-linejoin:miter;stroke-miterlimit:4;stroke-dasharray:none;stroke-dashoffset:0;stroke-opacity:1;stop-color:#000000;stop-opacity:1"
       d="m 868.26953,-77.408203 -64.80273,206.496093 2.75195,0.002 63.94727,-203.769528 h 9.625 l 0.85546,-2.728515 z m 33.51563,0 -1.43946,29.3125 h -30.44531 l -0.85351,2.722656 33.91796,-0.04102 1.43555,-29.265626 h 9.89649 l -0.13477,-2.728515 z m 33.51562,0 9.19727,29.3125 h -30.44532 l 0.13086,2.667969 33.88868,-0.04297 -9.16602,-29.208985 h 9.625 l -0.85547,-2.728515 z" /><path
       id="path1574"
       style="font-variation-settings:normal;opacity:1;vector-effect:none;fill:#aa0000;fill-opacity:1;stroke:none;stroke-width:0.529235;stroke-linecap:butt;stroke-linejoin:miter;stroke-miterlimit:4;stroke-dasharray:none;stroke-dashoffset:0;stroke-opacity:1;stop-color:#000000;stop-opacity:1"
       d="m 907.97266,40.248047 -36.50391,88.841793 h 4 l 34.50391,-83.974606 -0.5507,-2.434625 z" /><path
       id="path1576"
       style="font-variation-settings:normal;opacity:1;vector-effect:none;fill:#ffffff;fill-opacity:1;stroke:none;stroke-width:0.529235;stroke-linecap:butt;stroke-linejoin:miter;stroke-miterlimit:4;stroke-dasharray:none;stroke-dashoffset:0;stroke-opacity:1;stop-color:#000000;stop-opacity:1"
       d="M 948.4785,129.08984 899.04431,8.7831116 h -4 L 944.4785,129.08984 Z" /></g><g
     id="g1609"
     transform="translate(118.91555,248.65981)"
     style="stroke-width:1.05846"><path
       id="path1597"
       style="font-variation-settings:normal;opacity:1;vector-effect:none;fill:#bfbfbf;fill-opacity:1;stroke:none;stroke-width:0.529235;stroke-linecap:butt;stroke-linejoin:miter;stroke-miterlimit:4;stroke-dasharray:none;stroke-dashoffset:0;stroke-opacity:1;stop-color:#000000;stop-opacity:1"
       d="M 868.89442,-75.408203 806.21875,129.08984 h 65.25 l 38.50488,-8 38.50487,8 h 64 l -63.94725,-203.769528 -11.23047,-0.728515 7.47838,28.687615 -29.1776,-1.375115 -1.30468,-26.583985 -10.51172,-0.728515 -3.15835,28.687615 -29.17954,-1.375115 8.34375,-26.583985 z" /><path
       id="path1599"
       style="font-variation-settings:normal;opacity:1;vector-effect:none;fill:#f90606;fill-opacity:1;stroke:none;stroke-width:0.529235;stroke-linecap:butt;stroke-linejoin:miter;stroke-miterlimit:4;stroke-dasharray:none;stroke-dashoffset:0;stroke-opacity:1;stop-color:#000000;stop-opacity:1"
       d="M 875.46875,129.08984 H 944.4785 L 909.97266,43.115234 Z" /><path
       id="path1601"
       style="font-variation-settings:normal;opacity:1;vector-effect:none;fill:#666666;fill-opacity:1;stroke:none;stroke-width:0.529233;stroke-linecap:butt;stroke-linejoin:miter;stroke-miterlimit:4;stroke-dasharray:none;stroke-dashoffset:0;stroke-opacity:1;stop-color:#000000;stop-opacity:1"
       d="m 875.49414,-74.679688 -9.19922,29.310547 2.75196,-0.0039 1.46364,-1.445638 -0.61013,-1.277018 8.34375,-26.583985 -1.375,-0.541471 z m 34.50391,0 1.43554,29.253907 2.75,-0.002 0.78768,-1.408576 -0.91854,-1.259393 -1.30468,-26.583985 -1.375,-0.541471 z m 34.23633,0 63.94722,203.769528 h 2.75 l -63.94722,-203.769528 -1.375,-0.541471 z" /><path
       id="path1603"
       style="font-variation-settings:normal;opacity:1;vector-effect:none;fill:#ffffff;fill-opacity:1;stroke:none;stroke-width:0.529233;stroke-linecap:butt;stroke-linejoin:miter;stroke-miterlimit:4;stroke-dasharray:none;stroke-dashoffset:0;stroke-opacity:1;stop-color:#000000;stop-opacity:1"
       d="m 868.26953,-77.408203 -64.80273,206.496093 2.75195,0.002 63.94727,-203.769528 h 9.625 l 0.85546,-2.728515 z m 33.51563,0 -1.43946,29.3125 h -30.44531 l -0.85351,2.722656 33.91796,-0.04102 1.43555,-29.265626 h 9.89649 l -0.13477,-2.728515 z m 33.51562,0 9.19727,29.3125 h -30.44532 l 0.13086,2.667969 33.88868,-0.04297 -9.16602,-29.208985 h 9.625 l -0.85547,-2.728515 z" /><path
       id="path1605"
       style="font-variation-settings:normal;opacity:1;vector-effect:none;fill:#aa0000;fill-opacity:1;stroke:none;stroke-width:0.529235;stroke-linecap:butt;stroke-linejoin:miter;stroke-miterlimit:4;stroke-dasharray:none;stroke-dashoffset:0;stroke-opacity:1;stop-color:#000000;stop-opacity:1"
       d="m 907.97266,40.248047 -36.50391,88.841793 h 4 l 34.50391,-83.974606 -0.5507,-2.434625 z" /><path
       id="path1607"
       style="font-variation-settings:normal;opacity:1;vector-effect:none;fill:#ffffff;fill-opacity:1;stroke:none;stroke-width:0.529235;stroke-linecap:butt;stroke-linejoin:miter;stroke-miterlimit:4;stroke-dasharray:none;stroke-dashoffset:0;stroke-opacity:1;stop-color:#000000;stop-opacity:1"
       d="M 948.4785,129.08984 899.04431,8.7831116 h -4 L 944.4785,129.08984 Z" /></g></g></svg>
