<?xml version="1.0" encoding="UTF-8" standalone="no"?>
<svg
   xmlns:dc="http://purl.org/dc/elements/1.1/"
   xmlns:cc="http://creativecommons.org/ns#"
   xmlns:rdf="http://www.w3.org/1999/02/22-rdf-syntax-ns#"
   xmlns:svg="http://www.w3.org/2000/svg"
   xmlns="http://www.w3.org/2000/svg"
   id="svg8"
   version="1.1"
   viewBox="0 0 132.29166 137.58334"
   height="520"
   width="500">
  <defs
     id="defs2" />
  <metadata
     id="metadata5">
    <rdf:RDF>
      <cc:Work
         rdf:about="">
        <dc:format>image/svg+xml</dc:format>
        <dc:type
           rdf:resource="http://purl.org/dc/dcmitype/StillImage" />
        <dc:title></dc:title>
      </cc:Work>
    </rdf:RDF>
  </metadata>
  <g
     transform="translate(-21.713394,-28.945695)"
     id="layer1">
    <path
       id="path846"
       d="m 21.713394,28.945695 c 0,0 3.816337,57.51009 5.788786,82.421775 1.97246,24.91168 22.657951,55.16156 60.357046,55.16156 37.699094,0 58.384594,-30.24988 60.357034,-55.16156 1.97247,-24.911685 5.7888,-82.421775 5.7888,-82.421775 z"
       style="font-variation-settings:normal;vector-effect:none;fill:#0058c7;fill-opacity:0.996078;fill-rule:evenodd;stroke:none;stroke-width:0.264582;stroke-linecap:butt;stroke-linejoin:miter;stroke-miterlimit:4;stroke-dasharray:none;stroke-dashoffset:0;stroke-opacity:1;marker:none;marker-start:none;marker-mid:none;marker-end:none;stop-color:#000000" />
    <path
       id="path1741"
       style="color:#000000;overflow:visible;fill:#4f2900;fill-opacity:1;fill-rule:evenodd;stroke:none;stroke-width:0.264584;stroke-miterlimit:4;stroke-dasharray:none"
       d="m 28.776748,114.95855 0.131882,0.83213 29.549515,6.96455 1.514104,-6.4534 -1.06663,0.54965 z" />
    <path
       id="path1743"
       style="color:#000000;overflow:visible;fill:#ffffff;fill-opacity:1;fill-rule:evenodd;stroke:none;stroke-width:0.264584;stroke-miterlimit:4;stroke-dasharray:none"
       d="m 28.151577,108.80201 0.0634,0.81589 2.315925,1.62051 28.37472,5.61307 1.06663,-0.54965 z" />
    <path
       id="path1745"
       style="color:#000000;overflow:visible;fill:#bf9f4f;fill-opacity:1;fill-rule:evenodd;stroke:none;stroke-width:0.264584;stroke-miterlimit:4;stroke-dasharray:none"
       d="m 28.214974,109.6179 c 0.03962,0.50741 0.08252,1.07808 0.120777,1.56129 0.09878,1.24761 0.247248,2.5092 0.440997,3.77936 l 28.971547,6.82818 1.157324,-4.93525 z" />
    <path
       id="path1894"
       style="color:#000000;overflow:visible;fill:#4f2900;fill-opacity:1;fill-rule:evenodd;stroke:none;stroke-width:0.264584;stroke-miterlimit:4;stroke-dasharray:none"
       d="m 27.753154,103.57964 0.06108,0.8159 77.898986,18.35969 1.5141,-6.4534 -1.06663,0.54965 z" />
    <path
       id="path1896"
       style="color:#000000;overflow:visible;fill:#ffffff;fill-opacity:1;fill-rule:evenodd;stroke:none;stroke-width:0.264584;stroke-miterlimit:4;stroke-dasharray:none"
       d="m 27.301979,97.464844 0.05923,0.814966 5.342346,2.44059 69.583705,16.88856 3.87343,-0.75748 1.06663,-0.54965 z" />
    <path
       id="path1898"
       style="color:#000000;overflow:visible;fill:#bf9f4f;fill-opacity:1;fill-rule:evenodd;stroke:none;stroke-width:0.264584;stroke-miterlimit:4;stroke-dasharray:none"
       d="m 27.36121,98.27981 c 0.133397,1.81589 0.265866,3.62082 0.391944,5.29983 l 77.250216,18.20709 1.15732,-4.93525 z" />
    <path
       id="path2158"
       style="color:#000000;overflow:visible;fill:#4f2900;fill-opacity:1;fill-rule:evenodd;stroke:none;stroke-width:0.264584;stroke-miterlimit:4;stroke-dasharray:none"
       d="m 26.115495,80.918761 0.05738,0.814966 49.378145,11.637733 71.89856,16.94545 0.0611,-0.78667 -67.391892,-18.17138 -2.564072,-0.966178 z" />
    <path
       id="path2160"
       style="color:#000000;overflow:visible;fill:#ffffff;fill-opacity:1;fill-rule:evenodd;stroke:none;stroke-width:0.264584;stroke-miterlimit:4;stroke-dasharray:none"
       d="m 25.68468,74.808602 0.05738,0.814503 57.512987,16.231326 64.648033,12.560119 0.0588,-0.78667 z" />
    <path
       id="path2110"
       style="color:#000000;overflow:visible;fill:#bf9f4f;fill-opacity:1;fill-rule:evenodd;stroke:none;stroke-width:0.264584;stroke-miterlimit:4;stroke-dasharray:none"
       d="m 25.74206,75.623105 c 0.124444,1.781443 0.248568,3.522945 0.373435,5.295656 L 147.51067,109.53024 c 0.12495,-1.60126 0.25573,-3.30324 0.39241,-5.11569 z" />
    <path
       id="path2630"
       style="color:#000000;overflow:visible;fill:#4f2900;fill-opacity:1;fill-rule:evenodd;stroke:none;stroke-width:0.264584;stroke-miterlimit:4;stroke-dasharray:none"
       d="M 26.982224,93.061617 145.66663,121.03439 145.8633,120.27972 102.97148,107.3311 26.922992,92.246651 Z" />
    <path
       id="path2632"
       style="color:#000000;overflow:visible;fill:#ffffff;fill-opacity:1;fill-rule:evenodd;stroke:none;stroke-width:0.264584;stroke-miterlimit:4;stroke-dasharray:none"
       d="m 26.483384,86.134171 0.05738,0.814503 54.598532,14.852816 65.746204,13.51097 0.11939,-0.77322 z" />
    <path
       id="path2634"
       style="color:#000000;overflow:visible;fill:#bf9f4f;fill-opacity:1;fill-rule:evenodd;stroke:none;stroke-width:0.264584;stroke-miterlimit:4;stroke-dasharray:none"
       d="m 26.540765,86.948674 c 0.13097,1.838573 0.254013,3.520652 0.382227,5.297977 L 145.8633,120.27972 c 0.41988,-1.66352 0.76026,-3.32241 1.0222,-4.96726 z" />
    <path
       id="path2472"
       style="color:#000000;overflow:visible;fill:#4f2900;fill-opacity:1;fill-rule:evenodd;stroke:none;stroke-width:0.264584;stroke-miterlimit:4;stroke-dasharray:none"
       d="m 60.647852,77.920036 -1.06663,0.550115 88.696678,20.904321 0.0574,-0.7876 -43.90808,-13.106044 z" />
    <path
       id="path2474"
       style="color:#000000;overflow:visible;fill:#ffffff;fill-opacity:1;fill-rule:evenodd;stroke:none;stroke-width:0.264584;stroke-miterlimit:4;stroke-dasharray:none"
       d="m 61.095326,72.016751 -1.514104,6.4534 1.06663,-0.550115 88.059008,15.546976 0.0574,-0.787601 -24.44451,-5.76135 z" />
    <path
       id="path2476"
       style="color:#000000;overflow:visible;fill:#bf9f4f;fill-opacity:1;fill-rule:evenodd;stroke:none;stroke-width:0.264584;stroke-miterlimit:4;stroke-dasharray:none"
       d="m 61.80564,72.985249 -1.157788,4.934787 87.687428,20.666836 c 0.12045,-1.637909 0.24662,-3.393336 0.37158,-5.11986 z" />
    <path
       id="path2480"
       style="color:#000000;overflow:visible;fill:#4f2900;fill-opacity:1;fill-rule:evenodd;stroke:none;stroke-width:0.264584;stroke-miterlimit:4;stroke-dasharray:none"
       d="m 107.90292,77.920035 -1.06662,0.550115 42.2366,9.954462 0.0564,-0.788064 -25.51466,-7.651535 z" />
    <path
       id="path2482"
       style="color:#000000;overflow:visible;fill:#ffffff;fill-opacity:1;fill-rule:evenodd;stroke:none;stroke-width:0.264584;stroke-miterlimit:4;stroke-dasharray:none"
       d="m 108.3504,72.01675 -1.5141,6.4534 1.06662,-0.550115 41.58737,4.593867 0.0555,-0.788063 z" />
    <path
       id="path2484"
       style="color:#000000;overflow:visible;fill:#bf9f4f;fill-opacity:1;fill-rule:evenodd;stroke:none;stroke-width:0.264584;stroke-miterlimit:4;stroke-dasharray:none"
       d="m 109.06071,72.985248 -1.15779,4.934787 41.22643,9.716513 c 0.11946,-1.674584 0.24028,-3.414415 0.36094,-5.122646 z" />
    <path
       d="m 37.101528,49.473684 v 71.402536 h -7.092031 c 5.817613,22.07225 25.467931,44.703 57.849621,44.703 32.381702,0 52.032472,-22.63074 57.850082,-44.703 h -7.09203 V 49.473684 h -7.0055 V 120.87622 H 91.361635 V 49.473684 H 84.3566 V 120.87622 H 44.106565 V 49.473684 Z"
       style="font-variation-settings:normal;vector-effect:none;fill:#bf9f4f;fill-opacity:1;fill-rule:evenodd;stroke:none;stroke-width:0.264584;stroke-linecap:butt;stroke-linejoin:miter;stroke-miterlimit:4;stroke-dasharray:none;stroke-dashoffset:0;stroke-opacity:1;marker:none;marker-start:none;marker-mid:none;marker-end:none;stop-color:#000000"
       id="path850" />
    <path
       d="m 37.101528,49.473684 v 71.402536 h -7.092493 c 0.07127,0.27042 0.142987,0.5407 0.218414,0.81125 h 7.580228 V 50.338745 h 5.592738 l 0.70615,-0.865061 z"
       style="color:#000000;overflow:visible;fill:#ffffff;fill-rule:evenodd;stroke:none;stroke-width:0.264584;stroke-miterlimit:4;stroke-dasharray:none"
       id="path1564" />
    <path
       id="path884"
       d="M 43.400599,121.68766 V 50.338512 l 0.705969,-0.864826 -4e-6,71.402524 z"
       style="color:#000000;overflow:visible;fill:#4f2900;fill-opacity:1;fill-rule:evenodd;stroke:none;stroke-width:0.264582;stroke-miterlimit:4;stroke-dasharray:none" />
    <path
       id="rect858"
       d="M 84.356599,120.87621 V 49.473683 h 7.005038 l -0.705969,0.864826 H 85.062716 V 121.68766 H 43.400599 l 0.705965,-0.81145 z"
       style="color:#000000;overflow:visible;fill:#ffffff;fill-rule:evenodd;stroke:none;stroke-width:0.264582;stroke-miterlimit:4;stroke-dasharray:none" />
    <path
       style="color:#000000;overflow:visible;fill:#4f2900;fill-opacity:1;fill-rule:evenodd;stroke:none;stroke-width:0.264582;stroke-miterlimit:4;stroke-dasharray:none"
       d="M 90.655668,121.68766 V 50.338515 l 0.705969,-0.864826 -4e-6,71.402521 z"
       id="path884-4" />
    <path
       style="color:#000000;overflow:visible;fill:#ffffff;fill-rule:evenodd;stroke:none;stroke-width:0.264582;stroke-miterlimit:4;stroke-dasharray:none"
       d="M 131.61166,120.87621 V 49.473686 h 7.00504 l -0.70597,0.864826 h -5.59295 V 121.68766 H 90.655668 l 0.705965,-0.81145 z"
       id="rect858-6" />
    <path
       id="path1562"
       d="M 137.9112,121.68766 V 50.338517 l 0.70597,-0.864826 v 71.402519 z"
       style="color:#000000;overflow:visible;fill:#4f2900;fill-opacity:1;fill-rule:evenodd;stroke:none;stroke-width:0.264582;stroke-miterlimit:4;stroke-dasharray:none" />
    <path
       d="m 138.61717,120.87622 -0.70615,0.81125 h 7.57977 c 0.0754,-0.27055 0.14714,-0.54083 0.21841,-0.81125 z"
       style="color:#000000;overflow:visible;fill:#ffffff;fill-rule:evenodd;stroke:none;stroke-width:0.264584;stroke-miterlimit:4;stroke-dasharray:none"
       id="path1568" />
  </g>
</svg>
