<?xml version="1.0" encoding="UTF-8" standalone="no"?>
<svg
   xmlns:dc="http://purl.org/dc/elements/1.1/"
   xmlns:cc="http://creativecommons.org/ns#"
   xmlns:rdf="http://www.w3.org/1999/02/22-rdf-syntax-ns#"
   xmlns:svg="http://www.w3.org/2000/svg"
   xmlns="http://www.w3.org/2000/svg"
   xmlns:xlink="http://www.w3.org/1999/xlink"
   xmlns:sodipodi="http://sodipodi.sourceforge.net/DTD/sodipodi-0.dtd"
   xmlns:inkscape="http://www.inkscape.org/namespaces/inkscape"
   inkscape:version="1.0 (4035a4fb49, 2020-05-01)"
   sodipodi:docname="puolanka.svg"
   id="svg8"
   version="1.1"
   viewBox="0 0 132.29166 144.19792"
   height="545"
   width="500">
  <defs
     id="defs2" />
  <sodipodi:namedview
     inkscape:object-nodes="true"
     inkscape:showpageshadow="false"
     inkscape:window-maximized="1"
     inkscape:window-y="-8"
     inkscape:window-x="-8"
     inkscape:window-height="1017"
     inkscape:window-width="1920"
     units="px"
     showgrid="false"
     inkscape:document-rotation="0"
     inkscape:current-layer="g1419"
     inkscape:document-units="px"
     inkscape:cy="276.43489"
     inkscape:cx="212.73645"
     inkscape:zoom="0.9134936"
     inkscape:pageshadow="2"
     inkscape:pageopacity="0.0"
     borderopacity="1.0"
     bordercolor="#666666"
     pagecolor="#ffffff"
     id="base"
     inkscape:snap-others="false"
     inkscape:lockguides="true" />
  <metadata
     id="metadata5">
    <rdf:RDF>
      <cc:Work
         rdf:about="">
        <dc:format>image/svg+xml</dc:format>
        <dc:type
           rdf:resource="http://purl.org/dc/dcmitype/StillImage" />
        <dc:title></dc:title>
      </cc:Work>
    </rdf:RDF>
  </metadata>
  <g
     transform="translate(-12.28834,-31.028058)"
     id="layer1"
     inkscape:groupmode="layer"
     inkscape:label="Шар 1">
    <g
       style="stroke-width:1.16803"
       transform="matrix(0.8566867,0,0,0.8556055,1.7610826,4.4802811)"
       id="g1419">
      <path
         id="path846"
         d="m 12.28834,31.028058 c 0,0 4.22108,72.952322 5.95891,97.282002 1.73784,24.32967 16.94388,59.95526 71.251184,71.25118 54.307306,-11.29592 69.513346,-46.92151 71.251186,-71.25118 1.73783,-24.32968 5.95891,-97.282002 5.95891,-97.282002 z"
         style="font-variation-settings:normal;opacity:1;vector-effect:none;fill:#000000;fill-opacity:1;fill-rule:evenodd;stroke:none;stroke-width:0.30904;stroke-linecap:butt;stroke-linejoin:miter;stroke-miterlimit:4;stroke-dasharray:none;stroke-dashoffset:0;stroke-opacity:1;marker:none;marker-start:none;marker-mid:none;marker-end:none;stop-color:#000000;stop-opacity:1"
         sodipodi:nodetypes="cscscc" />
      <path
         id="path918"
         style="font-variation-settings:normal;opacity:1;vector-effect:none;fill:#bf9f4f;fill-opacity:1;fill-rule:evenodd;stroke:none;stroke-width:0.30904;stroke-linecap:butt;stroke-linejoin:miter;stroke-miterlimit:4;stroke-dasharray:none;stroke-dashoffset:0;stroke-opacity:1;marker:none;marker-start:none;marker-mid:none;marker-end:none;stop-color:#000000;stop-opacity:1"
         d="m 12.28834,31.028058 c 0,0 0.645349,11.048798 1.44642,24.614823 l 0.704864,-1.154465 7.096192,11.61804 h -3.380147 l 6.776314,11.095067 H 20.491955 L 26.949426,87.773619 33.4069,77.201523 h -4.440029 l 6.77683,-11.095067 h -3.380662 l 7.096191,-11.61804 7.09619,11.61804 h -3.380147 l 6.776314,11.095067 H 45.51156 l 6.457472,10.572096 6.457471,-10.572096 h -4.440028 l 6.776831,-11.095067 h -3.380664 l 7.096191,-11.61804 7.096191,11.61804 h -3.380148 l 6.776317,11.095067 h -4.440031 l 6.457473,10.572096 6.457471,-10.572096 h -4.440029 l 6.776317,-11.095067 h -3.380148 l 7.096191,-11.61804 7.096191,11.61804 H 93.21448 l 6.776316,11.095067 h -4.440029 l 6.457473,10.572096 6.45747,-10.572096 h -4.44003 l 6.77631,-11.095067 h -3.38014 l 7.09619,-11.61804 7.09619,11.61804 h -3.38015 l 6.77631,11.095067 h -4.44002 l 6.45747,10.572096 6.45747,-10.572096 h -4.44002 l 6.77631,-11.095067 h -3.38015 l 7.0962,-11.61804 7.09618,11.61804 h -3.38066 L 150.03,77.201523 h -4.44003 l 6.45748,10.572096 6.45747,-10.572096 h -4.44002 l 6.77631,-11.095067 h -3.38014 l 7.09618,-11.61804 0.70485,1.154465 c 0.80108,-13.566025 1.44643,-24.614823 1.44643,-24.614823 z" />
      <g
         id="g1387"
         style="stroke:none;stroke-width:1.16803">
        <g
           id="g1363"
           style="stroke:none;stroke-width:1.16803">
          <path
             sodipodi:nodetypes="ccccc"
             id="path1330"
             d="m 66.564037,132.29259 -2.608927,8.36333 H 53.186042 l -2.608927,-8.36333 z"
             style="font-variation-settings:normal;opacity:1;vector-effect:none;fill:#bf9f4f;fill-opacity:1;fill-rule:evenodd;stroke:none;stroke-width:0.30904;stroke-linecap:butt;stroke-linejoin:miter;stroke-miterlimit:4;stroke-dasharray:none;stroke-dashoffset:0;stroke-opacity:1;marker:none;marker-start:none;marker-mid:none;marker-end:none;stop-color:#000000;stop-opacity:1" />
          <path
             id="path1154"
             style="font-variation-settings:normal;opacity:1;vector-effect:none;fill:#ffffff;fill-opacity:1;fill-rule:evenodd;stroke:none;stroke-width:1.16803;stroke-linecap:butt;stroke-linejoin:miter;stroke-miterlimit:4;stroke-dasharray:none;stroke-dashoffset:0;stroke-opacity:1;marker:none;marker-start:none;marker-mid:none;marker-end:none;stop-color:#000000;stop-opacity:1"
             d="m 191.1582,500.00391 9.85938,31.60937 h 2.93554 l -0.3496,-1.09961 h 7.23046 c 0,0 0.20651,-2.25781 -3.69336,-2.25781 h -4.2539 l -0.5332,-1.67578 h 7.08789 c 0,0 0.20651,-2.25781 -3.69336,-2.25781 h -4.11328 l -0.53125,-1.67383 h 6.94726 c 0,0 0.20455,-2.25781 -3.69531,-2.25782 h -3.9707 l -0.53125,-1.67382 h 6.80468 c 0,0 0.20455,-2.25782 -3.69531,-2.25782 h -3.82812 l -0.53125,-1.67578 h 6.6621 c 0,0 0.20456,-2.25781 -3.69531,-2.25781 h -3.68554 l -0.53125,-1.67383 h 6.51953 c 0,0 0.20455,-2.25781 -3.69532,-2.25781 h -3.54296 l -0.53321,-1.67578 h 6.37891 c 0,0 0.20455,-2.25781 -3.69531,-2.25781 h -3.40039 l -1.48047,-4.65625 z"
             transform="scale(0.26458333)" />
          <path
             id="path1327"
             style="font-variation-settings:normal;opacity:1;vector-effect:none;fill:#675425;fill-opacity:1;fill-rule:evenodd;stroke:none;stroke-width:1.16803;stroke-linecap:butt;stroke-linejoin:miter;stroke-miterlimit:4;stroke-dasharray:none;stroke-dashoffset:0;stroke-opacity:1;marker:none;marker-start:none;marker-mid:none;marker-end:none;stop-color:#000000;stop-opacity:1"
             d="m 191.1582,500.00391 1.48242,4.7539 h 49.75977 c -2.57345,0.43216 -2.41797,2.16016 -2.41797,2.16016 h 7.06446 l 0.68554,-2.16016 h 2.36524 l 1.48242,-4.7539 z m 51.12696,8.58984 c -3.89988,0 -3.69532,2.25781 -3.69532,2.25781 h 7.20508 l 0.71875,-2.25781 z m -1.39258,3.93164 c -3.89985,0 -3.69531,2.25781 -3.69531,2.25781 h 7.34765 l 0.71875,-2.25781 z M 239.5,516.45898 c -3.89986,0 -3.69531,2.25782 -3.69531,2.25782 h 7.49023 l 0.71875,-2.25782 z m -1.39258,3.93164 c -3.89986,4e-5 -3.69531,2.25782 -3.69531,2.25782 h 7.63281 l 0.71875,-2.25782 z m -1.39258,3.93165 c -3.89988,0 -3.69336,2.25781 -3.69336,2.25781 h 7.77344 l 0.71875,-2.25781 z m -1.39257,3.93359 c -3.89988,0 -3.69336,2.25781 -3.69336,2.25781 h 7.91601 l 0.70703,-2.22656 -0.002,-0.0293 z"
             transform="scale(0.26458333)" />
        </g>
        <g
           transform="translate(2.6657308e-5)"
           id="g1368"
           style="stroke:none;stroke-width:1.16803">
          <path
             id="path951"
             d="m 46.747076,104.20583 0.512088,-3.25388 h 22.622824 l 0.512088,3.25388 3.584282,-0.42056 -0.614418,-3.904105 -2.565021,-2.652988 H 46.342233 l -2.565021,2.652988 -0.614418,3.904105 z"
             style="font-variation-settings:normal;opacity:1;vector-effect:none;fill:#bf9f4f;fill-opacity:1;fill-rule:evenodd;stroke:none;stroke-width:0.30904;stroke-linecap:butt;stroke-linejoin:miter;stroke-miterlimit:4;stroke-dasharray:none;stroke-dashoffset:0;stroke-opacity:1;marker:none;marker-start:none;marker-mid:none;marker-end:none;stop-color:#000000;stop-opacity:1"
             sodipodi:nodetypes="ccccccccccc" />
          <path
             id="path987"
             style="font-variation-settings:normal;opacity:1;vector-effect:none;fill:#ffffff;fill-opacity:1;fill-rule:evenodd;stroke:none;stroke-width:1.16803;stroke-linecap:butt;stroke-linejoin:miter;stroke-miterlimit:4;stroke-dasharray:none;stroke-dashoffset:0;stroke-opacity:1;marker:none;marker-start:none;marker-mid:none;marker-end:none;stop-color:#000000;stop-opacity:1"
             d="m 167.13477,392.25977 2.32226,-14.75586 5.69531,-6.02735 h 96.30078 l -3.86718,-4 h -92.4336 l -9.69531,10.02735 -2.32226,14.75586 z m 96.98632,-10.70899 1.93555,12.29883 3.27344,-0.38477 -2.11328,-10.64648 z"
             transform="scale(0.26458333)"
             sodipodi:nodetypes="cccccccccccccc" />
          <path
             id="path1014"
             d="m 46.214017,103.82195 0.603101,-3.19352 0.47877,-0.47254 h 22.533296 l 0.967535,0.74407 -0.0735,-0.53641 -0.669737,-0.663239 h -22.96582 l -0.669737,0.663239 -0.625899,3.45699 z m 26.159187,-3.47997 0.691219,3.45609 0.576016,-0.0384 -0.652818,-3.14888 z"
             style="font-variation-settings:normal;opacity:1;vector-effect:none;fill:#675425;fill-opacity:1;fill-rule:evenodd;stroke:none;stroke-width:0.30904;stroke-linecap:butt;stroke-linejoin:miter;stroke-miterlimit:4;stroke-dasharray:none;stroke-dashoffset:0;stroke-opacity:1;marker:none;marker-start:none;marker-mid:none;marker-end:none;stop-color:#000000;stop-opacity:1"
             sodipodi:nodetypes="cccccccccccccccc" />
        </g>
        <g
           id="g1373"
           style="stroke:none;stroke-width:1.16803">
          <path
             style="font-variation-settings:normal;opacity:1;vector-effect:none;fill:#bf9f4f;fill-opacity:1;fill-rule:evenodd;stroke:none;stroke-width:0.30904;stroke-linecap:butt;stroke-linejoin:miter;stroke-miterlimit:4;stroke-dasharray:none;stroke-dashoffset:0;stroke-opacity:1;marker:none;marker-start:none;marker-mid:none;marker-end:none;stop-color:#000000;stop-opacity:1"
             d="m 82.938605,133.02128 -4.377722,-26.49673 -3.148885,-2.76488 H 41.729154 l -3.148885,2.76488 -4.377722,26.49673 z"
             id="path957"
             sodipodi:nodetypes="ccccccc" />
          <path
             id="path1104"
             style="font-variation-settings:normal;opacity:1;vector-effect:none;fill:#ffffff;fill-opacity:1;fill-rule:evenodd;stroke:none;stroke-width:1.16803;stroke-linecap:butt;stroke-linejoin:miter;stroke-miterlimit:4;stroke-dasharray:none;stroke-dashoffset:0;stroke-opacity:1;marker:none;marker-start:none;marker-mid:none;marker-end:none;stop-color:#000000;stop-opacity:1"
             d="m 157.7168,392.16211 -11.90235,10.45117 -16.54492,100.14453 h 4.66016 l 0.60156,-3.64453 h 9.55859 c 0,0 0.20456,-2.25781 -3.69531,-2.25781 h -5.49023 l 0.42968,-2.5957 h 9.55664 c 0,0 0.20456,-2.25782 -3.69531,-2.25782 h -5.48828 l 0.42774,-2.5957 h 9.55664 c 0,0 0.20455,-2.25781 -3.69532,-2.25781 h -5.48828 l 0.42969,-2.59766 h 9.55273 c 0,0 0.20651,-2.25781 -3.69335,-2.25781 h -5.48633 l 0.42968,-2.5957 h 9.55079 c 0,0 0.2065,-2.25782 -3.69336,-2.25782 h -5.48438 l 0.42774,-2.59765 h 9.55078 c 0,0 0.20651,-2.25782 -3.69336,-2.25782 h -5.48438 l 0.42969,-2.5957 h 9.54883 c 0,0 0.20455,-2.25781 -3.69531,-2.25781 h -5.48047 l 0.42968,-2.5957 h 9.54688 c 0,0 0.20455,-2.25782 -3.69531,-2.25782 h -5.47852 l 0.42774,-2.59765 h 9.54687 c 0,0 0.20456,-2.25782 -3.69531,-2.25782 h -5.47852 l 0.42969,-2.5957 h 9.54492 c 0,0 0.20456,-2.25781 -3.69531,-2.25781 h -5.47656 l 0.42968,-2.59766 h 9.54102 c 0,0 0.20651,-2.25781 -3.69336,-2.25781 h -5.47461 l 0.42774,-2.5957 h 9.54101 c 0,0 0.20651,-2.25782 -3.69336,-2.25782 h -5.47461 l 0.42969,-2.5957 h 9.53906 c 0,0 0.20651,-2.25781 -3.69336,-2.25781 h -5.47265 l 0.42773,-2.59766 h 9.53906 c 0,0 0.20456,-2.25781 -3.69531,-2.25781 h -5.4707 l 0.42969,-2.5957 h 9.53711 c 0,0 0.20455,-2.25782 -3.69532,-2.25782 h -5.46875 l 0.42969,-2.59765 h 9.53516 c 0,0 0.20455,-2.25781 -3.69532,-2.25781 h -5.46679 l 0.42773,-2.59571 h 9.53516 c 0,0 0.20455,-2.25781 -3.69532,-2.25781 h -5.46679 l 0.42969,-2.5957 h 9.53125 c 0,0 0.2065,-2.25782 -3.69336,-2.25782 h -5.46485 l 0.42969,-2.59765 h 9.5293 c 0,0 0.20651,-2.25781 -3.69336,-2.25781 h -5.46289 l 0.42773,-2.59571 h 9.5293 c 0,0 0.20651,-2.25781 -3.69336,-2.25781 h -3.52735 l 2.95899,-2.59766 h 5.0625 c 0,0 0.15503,-1.79236 -2.58008,-2.17968 l 4.19727,-3.68555 h 127.85937 l -4.55469,-4 z"
             transform="scale(0.26458333)" />
          <path
             id="path1120"
             style="font-variation-settings:normal;opacity:1;vector-effect:none;fill:#675425;fill-opacity:1;fill-rule:evenodd;stroke:none;stroke-width:1.16803;stroke-linecap:butt;stroke-linejoin:miter;stroke-miterlimit:4;stroke-dasharray:none;stroke-dashoffset:0;stroke-opacity:1;marker:none;marker-start:none;marker-mid:none;marker-end:none;stop-color:#000000;stop-opacity:1"
             d="m 285.11328,399.76953 c -3.89987,0 -3.69531,2.25781 -3.69531,2.25781 h 10.67383 l -0.20508,-2.25781 z m 0.80078,4.85547 c -3.89987,0 -3.69531,2.25781 -3.69531,2.25781 h 10.67383 L 292.6875,404.625 Z m 0.79883,4.85352 c -3.89987,0 -3.69336,2.25781 -3.69336,2.25781 h 10.67383 l -0.20703,-2.25781 z m 0.80078,4.85546 c -3.89987,0 -3.69336,2.25782 -3.69336,2.25782 h 10.67188 l -0.20508,-2.25782 z m 0.80078,4.85352 c -3.89986,0 -3.69336,2.25781 -3.69336,2.25781 h 10.67188 l -0.20508,-2.25781 z m 0.80078,4.85352 c -3.89986,0 -3.69531,2.25781 -3.69531,2.25781 h 10.67383 l -0.20508,-2.25781 z m 0.80079,4.85546 c -3.89987,0 -3.69532,2.25782 -3.69532,2.25782 h 10.67383 l -0.20508,-2.25782 z m 0.80078,4.85352 c -3.89987,0 -3.69532,2.25781 -3.69532,2.25781 h 10.67383 L 297.49023,433.75 Z m 0.80078,4.85547 c -3.89987,0 -3.69531,2.25781 -3.69531,2.25781 h 10.67382 l -0.20507,-2.25781 z m 0.79883,4.85351 c -3.89987,0 -3.69336,2.25782 -3.69336,2.25782 h 10.67383 l -0.20704,-2.25782 z m 0.80078,4.85352 c -3.89987,0 -3.69336,2.25781 -3.69336,2.25781 h 10.67187 l -0.20508,-2.25781 z m 0.80078,4.85547 c -3.89987,0 -3.69336,2.25781 -3.69336,2.25781 h 10.67187 l -0.20507,-2.25781 z m 0.80078,4.85351 c -3.89987,0 -3.69531,2.25782 -3.69531,2.25782 h 10.67383 l -0.20508,-2.25782 z m 0.80078,4.85547 c -3.89987,0 -3.69531,2.25782 -3.69531,2.25782 h 10.67383 l -0.20508,-2.25782 z m 0.80078,4.85352 c -3.89987,0 -3.69531,2.25781 -3.69531,2.25781 h 10.67383 l -0.20508,-2.25781 z m 0.80078,4.85351 c -3.89986,0 -3.69531,2.25782 -3.69531,2.25782 h 10.67383 l -0.20508,-2.25782 z m 0.79883,4.85547 c -3.89987,0 -3.69336,2.25782 -3.69336,2.25782 h 10.67383 l -0.20703,-2.25782 z m 0.80078,4.85352 c -3.89986,0 -3.69336,2.25781 -3.69336,2.25781 h 10.67188 l -0.20508,-2.25781 z m 0.80078,4.85547 c -3.89986,0 -3.69336,2.25781 -3.69336,2.25781 H 306.5 l -0.20508,-2.25781 z m 0.80079,4.85351 c -3.89987,0 -3.69532,2.25782 -3.69532,2.25782 h 10.67383 l -0.20508,-2.25782 z m 0.80078,4.85352 c -3.89987,0 -3.69532,2.25781 -3.69532,2.25781 h 10.67383 l -0.20508,-2.25781 z"
             transform="scale(0.26458333)" />
        </g>
      </g>
      <use
         style="stroke-width:1.16803"
         x="0"
         y="0"
         xlink:href="#g1387"
         id="use1389"
         transform="translate(61.855718)"
         width="100%"
         height="100%" />
      <use
         style="stroke-width:1.16803"
         height="100%"
         width="100%"
         transform="translate(30.927863,46.487053)"
         id="use1391"
         xlink:href="#g1387"
         y="0"
         x="0" />
    </g>
  </g>
</svg>
