<?xml version="1.0" encoding="UTF-8" standalone="no"?>
<svg
   xmlns:dc="http://purl.org/dc/elements/1.1/"
   xmlns:cc="http://creativecommons.org/ns#"
   xmlns:rdf="http://www.w3.org/1999/02/22-rdf-syntax-ns#"
   xmlns:svg="http://www.w3.org/2000/svg"
   xmlns="http://www.w3.org/2000/svg"
   xmlns:xlink="http://www.w3.org/1999/xlink"
   xmlns:sodipodi="http://sodipodi.sourceforge.net/DTD/sodipodi-0.dtd"
   xmlns:inkscape="http://www.inkscape.org/namespaces/inkscape"
   inkscape:version="1.0 (4035a4fb49, 2020-05-01)"
   sodipodi:docname="puumala.svg"
   id="svg8"
   version="1.1"
   viewBox="0 0 132.29166 146.31459"
   height="553"
   width="500">
  <defs
     id="defs2" />
  <sodipodi:namedview
     inkscape:object-paths="true"
     inkscape:snap-global="true"
     inkscape:object-nodes="true"
     inkscape:showpageshadow="false"
     inkscape:window-maximized="1"
     inkscape:window-y="-8"
     inkscape:window-x="-8"
     inkscape:window-height="1017"
     inkscape:window-width="1920"
     units="px"
     showgrid="false"
     inkscape:document-rotation="0"
     inkscape:current-layer="g1080"
     inkscape:document-units="px"
     inkscape:cy="320.69715"
     inkscape:cx="281.06947"
     inkscape:zoom="1.291875"
     inkscape:pageshadow="2"
     inkscape:pageopacity="0.0"
     borderopacity="1.0"
     bordercolor="#666666"
     pagecolor="#ffffff"
     id="base"
     inkscape:snap-others="false"
     inkscape:lockguides="true" />
  <metadata
     id="metadata5">
    <rdf:RDF>
      <cc:Work
         rdf:about="">
        <dc:format>image/svg+xml</dc:format>
        <dc:type
           rdf:resource="http://purl.org/dc/dcmitype/StillImage" />
        <dc:title></dc:title>
      </cc:Work>
    </rdf:RDF>
  </metadata>
  <g
     transform="translate(-40.860688,-44.144427)"
     id="layer1"
     inkscape:groupmode="layer"
     inkscape:label="Шар 1">
    <g
       style="stroke-width:1.04221"
       transform="matrix(0.95950402,0,0,0.95950402,1.6546935,1.7876717)"
       id="g1080">
      <path
         sodipodi:nodetypes="csscsscc"
         id="path846"
         d="m 178.73574,44.144427 c 0,0 -0.21649,70.291093 -0.64944,93.673333 -0.43296,23.38226 -12.0438,33.20925 -26.98774,41.49629 -15.22701,8.444 -41.30035,17.32018 -41.30035,17.32018 0,0 -26.073332,-8.87618 -41.300332,-17.32018 -14.94394,-8.28704 -26.55479,-18.11403 -26.98775,-41.49629 -0.43296,-23.38224 -0.64944,-93.673333 -0.64944,-93.673333 z"
         style="font-variation-settings:normal;opacity:1;vector-effect:none;fill:#000000;fill-opacity:1;fill-rule:evenodd;stroke:none;stroke-width:0.27575;stroke-linecap:butt;stroke-linejoin:miter;stroke-miterlimit:4;stroke-dasharray:none;stroke-dashoffset:0;stroke-opacity:1;marker:none;marker-start:none;marker-mid:none;marker-end:none;stop-color:#000000;stop-opacity:1" />
      <path
         id="path1042"
         style="font-variation-settings:normal;opacity:1;vector-effect:none;fill:#cccccc;fill-opacity:1;fill-rule:evenodd;stroke:none;stroke-width:0.27575;stroke-linecap:butt;stroke-linejoin:miter;stroke-miterlimit:4;stroke-dasharray:none;stroke-dashoffset:0;stroke-opacity:1;marker:none;marker-start:none;marker-mid:none;marker-end:none;stop-color:#000000;stop-opacity:1"
         d="M 67.464618,44.93679 50.328708,163.9409 c 4.7628,6.25105 11.27553,10.68601 18.59835,14.74638 5.5128,3.05675 12.45918,6.16657 19.0562,8.8868 z m 42.333332,0 -20.590472,143.13907 c 10.939132,4.46076 20.590992,7.74991 20.590992,7.74991 0,0 9.651,-3.28925 20.58995,-7.74991 z m 42.33385,0 -20.51916,142.6378 c 6.59721,-2.72027 13.54373,-5.83046 19.05671,-8.88731 7.32264,-4.06027 13.83558,-8.49506 18.59835,-14.74587 z" />
      <g
         style="stroke-width:1.04221"
         id="g1034"
         transform="translate(0.651708)">
        <g
           style="stroke-width:1.04221"
           id="g1025">
          <path
             style="font-variation-settings:normal;opacity:1;vector-effect:none;fill:#990000;fill-opacity:1;fill-rule:evenodd;stroke:none;stroke-width:0.137875;stroke-linecap:butt;stroke-linejoin:miter;stroke-miterlimit:4;stroke-dasharray:none;stroke-dashoffset:0;stroke-opacity:1;marker:none;marker-start:none;marker-mid:none;marker-end:none;stop-color:#000000;stop-opacity:1"
             d="m 101.48121,152.09381 c -0.54614,-4.23256 1.07891,-7.77449 1.68965,-10.6755 0.61441,-2.91848 -0.15361,-4.30091 -0.15361,-4.30091 0,0 2.44276,0.3416 2.99528,4.76173 0.53761,4.30092 1.07523,6.37457 1.07523,6.37457 0,0 -0.0312,-3.37645 1.30564,-9.21625 1.30877,-5.71729 -0.19201,-11.40511 -0.72962,-12.32674 0.83647,0 3.16789,1.96216 4.56973,6.10577 1.40184,4.14362 0.99843,8.37143 0.53761,10.8291 -0.45688,2.43671 -0.2304,4.83853 -0.2304,4.83853 0,0 3.07208,-5.68336 3.14888,-9.67707 1.03598,0.69122 3.6574,5.68335 2.38087,10.90591 -1.27389,5.21173 -3.99371,6.68178 -6.06737,7.2194 -2.07366,0.53761 -6.14417,-1e-5 -6.14417,-1e-5 0,0 -3.83158,-0.60597 -4.37772,-4.83853 z"
             id="path1011"
             sodipodi:nodetypes="sscscsczsccsscs" />
          <path
             id="path1013"
             style="font-variation-settings:normal;opacity:1;vector-effect:none;fill:#fe0101;fill-opacity:1;fill-rule:evenodd;stroke:none;stroke-width:0.521104;stroke-linecap:butt;stroke-linejoin:miter;stroke-miterlimit:4;stroke-dasharray:none;stroke-dashoffset:0;stroke-opacity:1;marker:none;marker-start:none;marker-mid:none;marker-end:none;stop-color:#000000;stop-opacity:1"
             d="m 410.70703,483.61719 c 3.95671,15.66712 3.82356,31.96142 -0.11523,47.04687 -2.15709,10.02002 -5.46625,22.5704 -3.73242,39 -3.89197,-5.91137 -5.16853,-15.22465 -6.5879,-22.0625 -1.41936,-6.83784 -1.34081,-19.47563 -7.76367,-24.55078 0.84148,14.40877 -5.8804,25.46931 -7.125,37.61524 -0.77389,8.0533 -0.99125,16.62147 4.74414,23.09765 3.90414,4.57966 9.94665,6.89792 15.81055,6.90821 8.70614,0.63972 18.35984,0.60121 25.69727,-4.97461 8.596,-6.47517 11.12487,-14.96947 12.44921,-25.2793 0.93748,-10.25031 -0.51106,-21.04973 -5.69921,-29.94727 -2.20585,13.77294 -7.99377,25.68527 -14.53125,37.86914 -0.95645,-9.56719 -1.10657,-19.2816 0.89257,-28.73242 2.65153,-16.46279 0.77802,-34.69848 -7.94921,-48.81445 -1.76123,-2.77047 -3.73312,-5.45515 -6.08985,-7.17578 z m 11.30078,59.76367 c -2.9777,16.43822 -1.23633,27.70703 -1.23633,27.70703 0,0 -4.2015,-11.71479 1.23633,-27.70703 z m -23.19726,9.375 c -0.71562,11.58387 3.90039,19.70508 3.90039,19.70508 0,0 -7.28984,-6.86346 -3.90039,-19.70508 z m 18.0625,3.76172 c -0.30917,6.35784 -0.40821,12.3164 -0.40821,12.3164 0,0 -1.95097,-6.35888 0.40821,-12.3164 z m 24.63476,5.54297 c 0,0 -0.13283,7.34955 -5.12695,15.04883 -5.0304,7.75521 -13.14453,9.7832 -13.14453,9.7832 0,0 7.48866,-2.89635 12.31055,-10.33008 4.85812,-7.48966 5.96093,-14.50195 5.96093,-14.50195 z m -45.97851,1.56836 c 0,0 0.52143,5.64269 2.87109,10.26562 -4.01329,-4.40829 -2.87109,-10.26562 -2.87109,-10.26562 z m 18.26562,2.74218 c 0,0 0.5437,3.31008 0.41406,5.54102 -1.77176,-2.69518 -0.41406,-5.54102 -0.41406,-5.54102 z m 21.3457,3.48829 c -0.80734,9.8324 -10.05859,11.69726 -10.05859,11.69726 0,0 6.76077,-4.49345 10.05859,-11.69726 z"
             transform="scale(0.26458333)" />
        </g>
        <g
           style="stroke-width:1.04221"
           id="g1009">
          <path
             id="path907"
             style="color:#000000;display:inline;overflow:visible;visibility:visible;fill:#000000;fill-rule:evenodd;stroke:none;stroke-width:0.27575;stroke-linecap:square;stroke-linejoin:miter;stroke-miterlimit:4;stroke-dasharray:none;stroke-dashoffset:0;stroke-opacity:1;marker:none;marker-start:none;marker-mid:none;marker-end:none;enable-background:accumulate"
             d="m 109.14651,183.07936 c -7.53349,0 -13.640583,-6.10709 -13.640583,-13.64058 0,-7.53349 6.107093,-13.64058 13.640583,-13.64058 7.53348,0 13.64058,6.1071 13.64058,13.64058 0,7.53348 -6.1071,13.64058 -13.64058,13.64058 z"
             sodipodi:nodetypes="ssszs" />
          <path
             id="path949"
             style="font-variation-settings:normal;opacity:1;vector-effect:none;fill:#666666;fill-opacity:1;fill-rule:evenodd;stroke:none;stroke-width:0.521104;stroke-linecap:butt;stroke-linejoin:miter;stroke-miterlimit:4;stroke-dasharray:none;stroke-dashoffset:0;stroke-opacity:1;marker:none;marker-start:none;marker-mid:none;marker-end:none;stop-color:#000000;stop-opacity:1"
             d="m 402.71289,597.63672 c -0.99734,0.18671 0.74718,0.1628 -1.04492,0.14844 -2.99093,2.8473 2.90672,2.48321 1.04492,-0.14844 z m 10.77539,0.61523 c -3.62241,1.04614 1.54533,3.86774 0.88281,0.39844 l -0.3457,-0.24023 z m -18.61328,0.35157 c -0.30268,-0.0245 -1.11544,1.65019 0.24219,1.18945 0.28308,-0.2691 0.356,-0.99283 -0.15235,-1.06445 -0.0146,-0.0841 -0.0466,-0.12151 -0.0898,-0.125 z m 13.27734,1.18945 c -2.99943,2.3585 2.66595,2.79125 0.4375,0.0606 z m 9.74805,0.30664 c -2.71087,3.81388 4.87884,-0.23093 0,0 z m -18.09375,0.98828 c -0.16642,0.0248 -0.35985,0.10241 -0.58398,0.24414 -3.51504,-1.15105 -2.5369,4.70768 0.66406,2.44922 0.88554,-0.491 1.08487,-2.86679 -0.0801,-2.69336 z m -6.50391,1.55664 c -0.0282,-0.026 -0.097,0.004 -0.23828,0.12305 -2.64514,-0.39322 -0.50978,3.29763 0.20508,0.82226 -0.16838,-0.27722 0.11777,-0.8674 0.0332,-0.94531 z m 30.96094,0.32813 c -4.12894,1.13665 2.16061,3.70369 0.28321,0.002 z m -12.0625,0.21093 c -1.32568,0.12249 -0.97517,3.9291 0.95703,1.97266 0.0113,-0.49327 0.41561,-0.97801 -0.28515,-1.77148 -0.25806,-0.16039 -0.4825,-0.21867 -0.67188,-0.20118 z m -6.51562,0.25391 c -0.0293,0.012 -0.0566,0.0372 -0.0801,0.0762 -2.19655,0.64728 -2.4838,6.46716 0.38672,3.57227 1.13279,-1.11947 0.13251,-3.82843 -0.30664,-3.64844 z m -11.32032,1.04883 c -0.18369,-0.0272 -0.4003,0.0362 -0.65429,0.2539 -1.01594,0.87085 -0.4957,2.40806 0.81054,1.97266 0,0 -0.23032,0.78541 0.20508,1.65625 0,0 -0.73775,-0.12778 -1.35351,0.89844 0,0 -0.41087,-0.61595 -0.71875,-0.92383 0,0 0.82102,-2.25691 -1.12891,-2.1543 -1.94993,0.10281 -1.84713,2.25797 -1.33398,3.18164 0,0 -0.82084,-0.20522 -1.33399,0 0,0 -0.20556,-1.33417 -1.84765,-1.1289 -1.64206,0.20523 -1.02592,3.28354 0.71875,2.87304 0,0 -0.51244,1.1282 0.10351,1.94922 0,0 -1.02644,0.41211 -0.92383,1.54102 0,0 -1.33522,-1.23205 -2.15625,0.61523 0,0 -1.33327,0.40982 -1.02539,1.94922 0,0 -0.61613,0.30927 -0.71875,0.82227 0,0 -1.33383,-0.51371 -1.53906,0.61523 -0.20523,1.12891 1.12819,1.23118 1.94922,0.41016 0,0 -0.4111,0.9233 -0.30859,1.53906 0,0 -0.92259,-1.12838 -2.35938,-0.61523 -1.43679,0.51314 -0.41016,2.05273 -0.41016,2.05273 0,0 -0.82117,1.33413 0.20508,2.25781 1.02629,0.92364 2.87305,-0.71875 2.87305,-0.71875 0,0 7.1e-4,2.05289 2.56641,1.84766 l -0.61719,0.82031 c 0,0 -0.9224,-1.12748 -2.56446,-0.51172 -1.64205,0.61576 -1.95102,2.56412 -1.02734,4.10352 0.92364,1.53944 4.41406,-0.41016 4.41406,-0.41016 0,0 -1.84765,1.74467 -0.71875,3.38672 1.12891,1.64205 3.38653,0.61595 2.46289,-1.33398 0,0 0.92349,1.12838 2.46289,0.61523 0,0 -0.13724,1.19764 1.60743,1.91602 1.74466,0.71841 3.08007,-1.02539 3.08007,-1.02539 0,0 0.51244,1.33398 1.94922,1.33398 0,0 -0.40959,1.43731 1.23242,1.64258 1.64206,0.20523 1.33399,-1.84766 1.33399,-1.84766 0,0 2.25691,-0.41192 2.1543,-1.74609 -0.10281,-1.33414 -2.15396,-0.9224 -2.56446,0.82226 l -0.82226,-0.20507 c 0,0 0.1019,-1.02768 -0.51367,-1.7461 0,0 0.7189,-0.61576 0.51367,-2.25781 0,0 0.20613,1.74553 1.23242,2.36133 0,0 3.38582,0.61647 3.2832,-3.07813 0,0 3.07922,1.84571 4.10547,-0.41211 1.02629,-2.25781 -0.20508,-2.56445 -0.20508,-2.56445 0,0 0.41121,-0.61613 0.10352,-1.84766 0,0 0.5119,0.30819 1.43555,-0.20507 0,0 -0.20452,1.43731 1.4375,1.64257 1.64205,0.20523 1.94955,-0.92472 1.53906,-2.15625 -0.41053,-1.23152 -1.94922,-0.82031 -1.94922,-0.82031 0,0 0.10243,-1.95083 -2.25781,-2.36133 0,0 1.12804,-2.15519 0.10156,-4.51562 0,0 1.3347,-0.30747 1.64258,-1.74414 0,0 -0.40993,1.02663 0.30859,1.84765 0,0 -1.33507,0.10314 -1.23242,1.84766 0.10242,1.74467 2.46289,1.33398 2.46289,1.33398 0,0 0.10261,0.82137 1.33398,0.71876 1.23156,-0.10281 2.15592,-2.56712 0.10352,-2.875 l -0.41211,-0.71876 c 0,0 3.07918,0.30894 2.97656,-2.15429 0,0 0.82141,-0.30822 0.71875,-0.92383 0,0 2.2571,0.10243 1.94922,-2.25781 -0.30803,-2.36043 -3.89934,-2.66884 -4.00195,0.61523 0,0 -1.26262,-0.12351 -1.04492,1.40039 0,0 -1.01682,-0.43559 -1.66993,0.50781 0,0 0.87176,-2.17697 -1.16015,-2.83007 -2.03195,-0.65314 -2.4668,0.21875 -2.4668,0.21875 0,0 0.43526,-1.08999 -0.43555,-1.52539 -0.87084,-0.43544 -1.30664,0.65429 -1.30664,0.65429 0,0 -1.08828,-1.08903 -2.39453,0.58008 0,0 1.16092,-5.51618 -2.75781,-3.04883 0,0 -0.58077,-1.88557 -2.75781,-0.28906 0,0 -0.14508,-1.74193 -1.88672,-0.87109 0,0 -0.24579,-0.89883 -0.79688,-0.98047 z m -6.27539,0.13672 c -0.17789,-0.0779 -3.39968,2.19943 -0.25976,2.41601 1.90635,0.49686 1.39482,-2.67373 0.12304,-2.22461 0.12625,-0.12009 0.16214,-0.18028 0.13672,-0.1914 z m 41.5918,0.10937 c -0.35481,-0.0178 -0.45247,0.3337 0.19727,1.40625 l 0.30664,0.2168 0.33789,0.10742 c 1.96212,0.13512 -0.0612,-1.69131 -0.8418,-1.73047 z M 409.75,605.07617 c -0.13682,0.004 -0.29872,0.0477 -0.49023,0.14063 -2.79969,1.25907 -1.02563,6.01809 0.78125,2.32031 0.3695,-0.58238 0.66672,-2.49074 -0.29102,-2.46094 z m 11.53711,2.51563 c -2.3941,0.77038 -0.60314,5.33384 1.25,2.21093 0.37002,-0.95682 -0.48601,-1.8007 -1.25,-2.21093 z m -39.89844,0.72656 c -2.91343,-0.13697 0.062,4.81672 1.27344,1.74609 0.0779,-0.57021 0.0138,-1.39692 -0.61133,-1.64648 -0.24884,-0.0583 -0.46788,-0.0905 -0.66211,-0.0996 z m 42.34961,1.69922 -0.5,0.14062 c -2.90944,2.13476 3.14563,2.5428 1.12891,0.10157 z m 6.65625,0.36133 c -3.49206,-0.0528 3.81977,5.27102 1.08203,0.17578 l -0.23437,-0.0899 c -0.33502,-0.056 -0.61485,-0.0824 -0.84766,-0.0859 z m 5.72656,0.0605 c -1.98117,0.0878 0.56332,3.20212 1.38282,0.84766 -0.0718,-0.43151 -0.42282,-0.89529 -0.92383,-0.82227 -0.17415,-0.0236 -0.32691,-0.0312 -0.45899,-0.0254 z m -50.00586,0.5918 c -0.71089,0.1251 -1.12891,1.70203 -2.32226,0.43555 -2.39346,0.81271 0.22471,3.08479 0.95117,1.07226 0.76861,2.70444 3.16172,-0.0747 1.37109,-1.50781 z m -9.69726,1.30859 c -0.33017,0.0316 -0.28664,0.32382 -0.60742,0.86719 -0.12692,2.97902 3.88262,-0.48861 1.08984,-0.81055 -0.22065,-0.0478 -0.37236,-0.0672 -0.48242,-0.0566 z m 4.48242,1.87696 c -0.10324,-0.008 -0.20509,-0.008 -0.30078,0.006 -2.87878,0.15571 0.99842,4.38466 0.78125,1.20117 1.01881,-0.58436 0.2422,-1.14901 -0.48047,-1.20703 z m 52.06641,0.77734 c -1.05473,0.0816 -2.72812,0.92925 -0.69727,1.62891 1.96406,-1.29226 1.51761,-1.69239 0.69727,-1.62891 z m -13.83399,0.19141 c -3.62721,0.17915 -0.41342,5.23034 1.41602,2.20898 0.28762,-0.96246 -0.48372,-1.99404 -1.41602,-2.20898 z m -3.73828,0.73047 c -2.51899,-0.0596 -1.14938,5.56522 0.99414,2.13671 0.1852,-0.66512 0.16938,-1.59187 -0.4375,-2.04492 -0.20343,-0.0589 -0.38871,-0.0878 -0.55664,-0.0918 z m 9.54102,0.82031 c -0.87354,0.1834 -1.46986,2.76579 0.86328,2.49219 1.92733,0.37606 1.4738,-1.57688 0.004,-1.68164 -0.25488,-0.66681 -0.576,-0.87169 -0.86718,-0.81055 z m 12.56836,1.42578 c -3.9447,0.76048 2.40722,3.29004 0,0 z m -63.20899,0.2207 c -0.0705,-4.2e-4 -0.14555,0.0139 -0.22656,0.0488 -2.92091,2.01078 2.30831,4.80508 1.12695,1.0957 -0.1589,-0.35921 -0.40681,-1.14158 -0.90039,-1.14453 z m 39.60352,1.42188 c -2.84519,1.33806 1.33464,3.75856 0.83594,0.46289 -0.0805,-0.3583 -0.81285,-0.0185 -0.83594,-0.46289 z m 6.92383,0.88086 c -0.38523,-0.0587 -0.85055,0.21037 -1.31446,1.04883 -0.36321,0.5608 -0.42398,1.62109 0.44531,1.76562 2.46161,0.48385 2.02481,-2.63834 0.86915,-2.81445 z m -42.81641,0.004 c -0.32198,-0.0575 -0.58605,0.8238 -0.88867,1.08203 -1.24015,3.36764 3.37707,2.0249 1.23242,-0.65429 -0.12371,-0.2853 -0.23642,-0.40857 -0.34375,-0.42774 z m 54.00781,0.24219 c -1.52067,-0.0615 -1.5264,2.38752 1.03906,1.50391 0.91348,-0.0847 0.62283,-1.5989 0.24219,-0.98828 -0.49943,-0.35354 -0.93032,-0.50144 -1.28125,-0.51563 z m 9.53321,1.80859 c -1.74245,0.0162 -1.93361,3.20013 0.5371,1.74415 0.76026,-0.43442 0.34983,-1.29921 -0.16796,-1.70313 -0.12963,-0.0294 -0.25298,-0.0421 -0.36914,-0.041 z m -69.21094,0.93946 c -0.46025,-0.0416 -0.90988,0.301 -1.07813,1.28906 -0.0753,0.61247 0.425,2.53952 1.35938,1.73633 1.79123,-0.98878 0.73128,-2.93396 -0.28125,-3.02539 z m 38.96289,3.05469 c -0.18216,-8.2e-4 -0.38481,0.0142 -0.61133,0.0508 -0.77314,0.19502 -2.15497,1.25999 -1.09961,2.05078 2.33968,1.81321 4.44338,-2.0893 1.71094,-2.10156 z m -33.7461,0.26171 c -3.25071,0.92633 2.71942,3.34831 1.51954,0.49805 -0.41866,-0.35716 -0.98804,-0.46346 -1.51954,-0.49805 z m 0.49415,2.15821 c -0.99118,0.0602 -1.85343,2.7555 0.75,2.0625 1.61348,0.15571 0.61647,-1.40952 -0.084,-1.60938 -0.20141,-0.34082 -0.43728,-0.46703 -0.66601,-0.45312 z m -4.5586,0.59961 c -2.46905,1.71205 3.4474,2.822 1.06836,0.17187 l -0.45117,-0.043 z m 10.34961,0.95898 -0.42773,0.0625 -0.63282,-0.006 c -2.50537,1.63143 2.42209,1.30951 1.06055,-0.0566 z m 22.88281,0.85156 c -1.8748,-0.0418 -3.53528,0.35953 -4.42968,2.07227 1.00709,2.5189 2.7692,-1.72213 4.01757,0.44531 1.97292,0.21468 2.02083,-1.50482 1.22657,-2.47461 -0.275,-0.0215 -0.54663,-0.037 -0.81446,-0.043 z m -33.8164,1.75586 c -2.52761,0.0711 0.59475,5.47958 1.25781,1.5586 0.12601,-0.48197 0.23382,-1.82377 -0.67383,-1.49805 -0.22113,-0.0471 -0.41548,-0.0653 -0.58398,-0.0606 z m 9.25195,0.25196 c -0.14607,-0.0516 -0.34569,0.044 -0.68555,0.53515 -1.07671,2.99928 2.97581,-0.0455 1.3711,-0.1914 -0.34673,0.23778 -0.4421,-0.25769 -0.68555,-0.34375 z m -4.01172,0.35937 c -1.4554,0.0785 -1.39482,3.22657 0.99219,1.97461 0.39674,-0.5421 1.0339,-2.08241 -0.2793,-1.79883 -0.26744,-0.13584 -0.50497,-0.18699 -0.71289,-0.17578 z m 7.33985,0.25391 c -0.46799,-0.0878 -0.9261,0.26875 -1.0625,1.44922 0.0113,0.59353 0.21595,1.49306 0.96679,1.52148 2.20092,-0.43524 1.12527,-2.77752 0.0957,-2.9707 z m 10.35156,0.5 c -3.48393,0.63129 2.07404,3.68291 0.49609,0.16406 l -0.20898,-0.16406 z m -6.40039,0.52148 c -1.88662,0.0547 -3.08084,3.5855 0.12109,3.29297 1.0201,-0.25323 1.96078,-1.74157 1.25,-2.68555 -0.46339,-0.4472 -0.93572,-0.62004 -1.37109,-0.60742 z m 11.57422,0.69531 c -1.52762,-0.17233 -1.02933,3.29566 1.26953,1.8086 1.34902,-0.0782 -0.36479,-1.13895 -0.49024,-1.48633 -0.30159,-0.19826 -0.56106,-0.29765 -0.77929,-0.32227 z m -7.60547,0.66016 c -0.38075,0.0217 -0.69115,0.34492 -0.85157,1.20117 2.1038,0.19049 -0.95709,3.73985 2.08399,2.80664 0.77359,-0.39564 1.65322,-1.22431 1.4043,-2.18945 -0.62734,-0.44781 -1.79907,-1.86609 -2.63672,-1.81836 z m -9.16992,0.39453 c -0.0886,0.005 -0.18784,0.0222 -0.29688,0.0527 -2.57654,1.15305 1.24886,3.42242 1.01562,1.01562 0.0417,-0.55146 -0.0984,-1.10283 -0.71874,-1.06836 z m -9.93555,3.33203 c -0.1869,-0.007 -0.36925,0.0144 -0.51953,0.0586 -2.77408,1.16114 0.98356,4.01637 1.51562,0.89062 0.15871,-0.65636 -0.4354,-0.92883 -0.99609,-0.94922 z m 11.23633,0.35352 c -0.76982,-0.0803 -1.45245,0.39075 -1.12696,1.92383 0.15383,0.58813 0.86126,0.89383 1.41602,0.68554 2.51577,-0.81238 0.99397,-2.4756 -0.28906,-2.60937 z m -7.39454,0.0996 c -0.0488,7e-5 -0.0991,0.0123 -0.15234,0.041 -2.50087,1.60241 1.56738,4.009 0.7832,0.75196 -0.0598,-0.169 -0.28905,-0.79345 -0.63086,-0.79297 z m 11.8418,1.79101 c -1.22928,0.0331 -2.63956,0.91721 -2.27148,2.16992 1.47953,3.1911 6.23799,0.37645 3.36914,-1.90234 -0.29711,-0.1961 -0.6879,-0.27859 -1.09766,-0.26758 z m 6.24219,0.13868 c -1.97823,0.0947 -0.77669,5.51327 1.54492,2.29492 0.25399,-0.67004 0.0464,-1.50047 -0.49609,-1.96875 -0.41838,-0.24446 -0.76623,-0.3397 -1.04883,-0.32617 z m -11.79492,1.24218 c -2.16721,-0.0525 -1.48099,4.72712 1.28906,2.39063 0.46477,-0.56591 0.58788,-1.6578 -0.18359,-2.03711 -0.42839,-0.23955 -0.79587,-0.34601 -1.10547,-0.35352 z m -9.50586,5.16992 c -1.01172,0.19943 -1.57502,3.28444 0.79101,2.27735 0.6574,-0.3103 0.94661,-2.12437 -0.0488,-1.86914 -0.25064,-0.34707 -0.50872,-0.45423 -0.74219,-0.40821 z m 5.26953,0.89258 c -0.12185,-0.004 -0.26107,0.003 -0.42188,0.0234 0.90683,2.05712 -2.98762,2.97316 -0.49609,4.55859 0.83928,0.0998 2.41366,-0.16141 2.33984,-1.29297 -1.87391,-0.57699 0.40589,-3.22495 -1.42187,-3.28906 z m 8.09961,2.12891 c -3.41511,1.54979 1.89158,3.49589 0.42187,0.20312 z m -0.28516,8.80469 c -0.89341,0.11079 -0.27971,3.14653 1.44531,1.5 0.39009,-0.75153 -0.007,-0.98534 -0.58007,-1.01758 -0.37146,-0.37946 -0.65906,-0.50799 -0.86524,-0.48242 z"
             transform="scale(0.26458333)" />
          <path
             id="path954"
             style="color:#000000;display:inline;overflow:visible;visibility:visible;fill:#ffffff;fill-rule:evenodd;stroke:none;stroke-width:2.08441;stroke-linecap:square;stroke-linejoin:miter;stroke-miterlimit:4;stroke-dasharray:none;stroke-dashoffset:0;stroke-opacity:1;marker:none;marker-start:none;marker-mid:none;marker-end:none;enable-background:accumulate"
             d="m 394.47656,609.88672 a 1.1802217,1.2315358 13.390334 0 0 -1.20898,0.95508 1.1802217,1.2315358 13.390334 0 0 0.86328,1.4707 1.1802217,1.2315358 13.390334 0 0 1.43359,-0.92383 1.1802217,1.2315358 13.390334 0 0 -0.86328,-1.4707 1.1802217,1.2315358 13.390334 0 0 -0.22461,-0.0312 z m 3.91602,0.33398 a 0.79688319,0.83153042 13.390334 0 0 -0.75781,0.64453 0.79688319,0.83153042 13.390334 0 0 0.58203,0.99219 0.79688319,0.83153042 13.390334 0 0 0.96875,-0.62304 0.79688319,0.83153042 13.390334 0 0 -0.58399,-0.99415 0.79688319,0.83153042 13.390334 0 0 -0.20898,-0.0195 z m -0.36328,2.93946 a 1.0104679,1.1917086 40.867922 0 0 -0.67774,0.22461 1.0104679,1.1917086 40.867922 0 0 -0.45898,1.5664 1.0104679,1.1917086 40.867922 0 0 1.47265,0.22071 1.0104679,1.1917086 40.867922 0 0 0.46094,-1.56641 1.0104679,1.1917086 40.867922 0 0 -0.79687,-0.44531 z m -7.3418,0.24023 a 0.94167655,0.98261911 13.390334 0 0 -0.95898,0.76367 0.94167655,0.98261911 13.390334 0 0 0.68945,1.17383 0.94167655,0.98261911 13.390334 0 0 1.14258,-0.73828 0.94167655,0.98261911 13.390334 0 0 -0.6875,-1.17383 0.94167655,0.98261911 13.390334 0 0 -0.18555,-0.0254 z m 3.61133,0.78125 a 1.261604,1.4878893 13.996947 0 0 -1.17188,0.76758 1.261604,1.4878893 13.996947 0 0 0.36914,2.00195 1.261604,1.4878893 13.996947 0 0 1.76563,-0.58594 1.261604,1.4878893 13.996947 0 0 -0.36914,-2.00195 1.261604,1.4878893 13.996947 0 0 -0.59375,-0.18164 z m 7.68555,1.07227 a 0.90283818,1.0647741 13.996952 0 0 -0.86133,0.54882 0.90283818,1.0647741 13.996952 0 0 0.26367,1.4336 0.90283818,1.0647741 13.996952 0 0 1.26367,-0.41797 0.90283818,1.0647741 13.996952 0 0 -0.26367,-1.43359 0.90283818,1.0647741 13.996952 0 0 -0.40234,-0.13086 z m -11.16993,1.10547 a 1.261604,1.4878893 13.996947 0 0 -1.17187,0.76562 1.261604,1.4878893 13.996947 0 0 0.37109,2.00391 1.261604,1.4878893 13.996947 0 0 1.76563,-0.58594 1.261604,1.4878893 13.996947 0 0 -0.3711,-2.00391 1.261604,1.4878893 13.996947 0 0 -0.59375,-0.17968 z m 4.67969,1.14062 a 1.3127147,1.5481674 40.867918 0 0 -0.86914,0.29102 1.3127147,1.5481674 40.867918 0 0 -0.59766,2.0332 1.3127147,1.5481674 40.867918 0 0 1.91407,0.28711 1.3127147,1.5481674 40.867918 0 0 0.59765,-2.03321 1.3127147,1.5481674 40.867918 0 0 -1.04492,-0.57812 z m 3.35547,0.54688 a 1.0462234,1.0917115 13.390333 0 0 -0.99023,0.8457 1.0462234,1.0917115 13.390333 0 0 0.76562,1.30469 1.0462234,1.0917115 13.390333 0 0 1.26953,-0.82032 1.0462234,1.0917115 13.390333 0 0 -0.76367,-1.30468 1.0462234,1.0917115 13.390333 0 0 -0.28125,-0.0254 z m 3.00195,0.60546 a 0.39465343,0.41181233 13.390333 0 0 -0.38281,0.31836 0.39465343,0.41181233 13.390333 0 0 0.28906,0.49219 0.39465343,0.41181233 13.390333 0 0 0.47852,-0.30859 0.39465343,0.41181233 13.390333 0 0 -0.28711,-0.49219 0.39465343,0.41181233 13.390333 0 0 -0.0977,-0.01 z m -10.09765,1.28125 a 0.90143006,0.94062278 13.390333 0 0 -0.86524,0.72852 0.90143006,0.94062278 13.390333 0 0 0.66016,1.12305 0.90143006,0.94062278 13.390333 0 0 1.09375,-0.70508 0.90143006,0.94062278 13.390333 0 0 -0.6582,-1.125 0.90143006,0.94062278 13.390333 0 0 -0.23047,-0.0215 z m 7.79492,0.6543 a 1.1447999,1.3501347 40.867916 0 0 -0.8125,0.25391 1.1447999,1.3501347 40.867916 0 0 -0.52149,1.77343 1.1447999,1.3501347 40.867916 0 0 1.66993,0.25 1.1447999,1.3501347 40.867916 0 0 0.52148,-1.77343 1.1447999,1.3501347 40.867916 0 0 -0.85742,-0.50391 z m -10.91602,0.43359 a 0.90143006,0.94062278 13.390333 0 0 -0.86523,0.72852 0.90143006,0.94062278 13.390333 0 0 0.66015,1.125 0.90143006,0.94062278 13.390333 0 0 1.09375,-0.70703 0.90143006,0.94062278 13.390333 0 0 -0.6582,-1.12305 0.90143006,0.94062278 13.390333 0 0 -0.23047,-0.0234 z m 5.21094,0.43555 a 1.0462234,1.0917115 13.390333 0 0 -0.99023,0.8457 1.0462234,1.0917115 13.390333 0 0 0.76367,1.30469 1.0462234,1.0917115 13.390333 0 0 1.27148,-0.82031 1.0462234,1.0917115 13.390333 0 0 -0.76562,-1.30273 1.0462234,1.0917115 13.390333 0 0 -0.2793,-0.0273 z m 2.56445,1.67188 a 1.1447999,1.3501347 40.867916 0 0 -0.7207,0.2539 1.1447999,1.3501347 40.867916 0 0 -0.52148,1.77344 1.1447999,1.3501347 40.867916 0 0 1.66992,0.25 1.1447999,1.3501347 40.867916 0 0 0.52148,-1.77344 1.1447999,1.3501347 40.867916 0 0 -0.94922,-0.5039 z m -5.32226,0.72265 a 1.0462234,1.0917115 13.390333 0 0 -0.99024,0.84571 1.0462234,1.0917115 13.390333 0 0 0.76368,1.30468 1.0462234,1.0917115 13.390333 0 0 1.27148,-0.82031 1.0462234,1.0917115 13.390333 0 0 -0.76563,-1.30273 1.0462234,1.0917115 13.390333 0 0 -0.27929,-0.0274 z m 8.3457,0.0723 a 1.0462234,1.0917115 13.390333 0 0 -0.99023,0.84765 1.0462234,1.0917115 13.390333 0 0 0.76367,1.30274 1.0462234,1.0917115 13.390333 0 0 1.27148,-0.81836 1.0462234,1.0917115 13.390333 0 0 -0.76562,-1.30469 1.0462234,1.0917115 13.390333 0 0 -0.2793,-0.0273 z"
             transform="scale(0.26458333)" />
        </g>
      </g>
      <use
         style="stroke-width:1.04221"
         x="0"
         y="0"
         xlink:href="#g1034"
         id="use1036"
         transform="translate(-42.333595,-13.887457)"
         width="100%"
         height="100%" />
      <use
         style="stroke-width:1.04221"
         height="100%"
         width="100%"
         transform="translate(42.333593,-13.887457)"
         id="use1056"
         xlink:href="#g1034"
         y="0"
         x="0" />
    </g>
  </g>
</svg>
