<?xml version="1.0" encoding="UTF-8" standalone="no"?>
<svg xmlns:dc="http://purl.org/dc/elements/1.1/" xmlns:cc="http://creativecommons.org/ns#" xmlns:rdf="http://www.w3.org/1999/02/22-rdf-syntax-ns#" xmlns:svg="http://www.w3.org/2000/svg" xmlns="http://www.w3.org/2000/svg" xmlns:sodipodi="http://sodipodi.sourceforge.net/DTD/sodipodi-0.dtd" xmlns:inkscape="http://www.inkscape.org/namespaces/inkscape" width="500" height="540" viewBox="0 0 132.29166 142.875" version="1.1" id="svg847" sodipodi:docname="pyhäntä.svg" inkscape:version="1.0.2 (e86c870879, 2021-01-15, custom)">
  <defs id="defs841"/>
  <sodipodi:namedview id="base" pagecolor="#ffffff" bordercolor="#666666" borderopacity="1.0" inkscape:pageopacity="0.0" inkscape:pageshadow="2" inkscape:zoom="0.7" inkscape:cx="315.67028" inkscape:cy="201.74938" inkscape:document-units="px" inkscape:current-layer="layer1" inkscape:document-rotation="0" showgrid="false" inkscape:snap-smooth-nodes="true" inkscape:showpageshadow="false" borderlayer="true" units="px" inkscape:window-width="1920" inkscape:window-height="1017" inkscape:window-x="-8" inkscape:window-y="-4" inkscape:window-maximized="1"/>
  <metadata id="metadata844">
    <rdf:RDF>
      <cc:Work rdf:about="">
        <dc:format>image/svg+xml</dc:format>
        <dc:type rdf:resource="http://purl.org/dc/dcmitype/StillImage"/>
        <dc:title/>
      </cc:Work>
    </rdf:RDF>
  </metadata>
  <g inkscape:label="Layer 1" inkscape:groupmode="layer" id="layer1" transform="translate(-25.925144,-68.449036)">
    <g id="g1836" transform="matrix(0.94464227,0,0,0.94464227,1.4351572,3.7891833)" style="stroke-width:1.0586">
      <path style="font-variation-settings:normal;opacity:1;vector-effect:none;fill:#df0000;fill-opacity:1;stroke:none;stroke-width:0.140045;stroke-linecap:butt;stroke-linejoin:miter;stroke-miterlimit:4;stroke-dasharray:none;stroke-dashoffset:0;stroke-opacity:1;stop-color:#000000;stop-opacity:1" d="m 25.925144,68.449036 v 82.727354 c 0,30.68129 25.21844,68.52038 70.022099,68.52038 44.803657,0 70.022097,-37.83909 70.022097,-68.52038 V 68.449036 Z" id="path859" sodipodi:nodetypes="cszscc"/>
      <g id="g1589" transform="matrix(0,1,-1.3137594,0,316.50994,40.283493)" style="stroke-width:0.92358">
        <path id="path1583" style="font-variation-settings:normal;opacity:1;vector-effect:none;fill:#cfcfcf;fill-opacity:1;stroke:none;stroke-width:0.529302;stroke-linecap:butt;stroke-linejoin:miter;stroke-miterlimit:4;stroke-dasharray:none;stroke-dashoffset:0;stroke-opacity:1;stop-color:#000000;stop-opacity:1" d="m 100.75586,483.1543 v 63.46679 H 624.51367 V 483.1543 Z" transform="matrix(0,-0.20139406,0.26458333,0,-40.283493,240.91926)"/>
        <path id="path1585" style="font-variation-settings:normal;opacity:1;vector-effect:none;fill:#666666;fill-opacity:1;stroke:none;stroke-width:0.529302;stroke-linecap:butt;stroke-linejoin:miter;stroke-miterlimit:4;stroke-dasharray:none;stroke-dashoffset:0;stroke-opacity:1;stop-color:#000000;stop-opacity:1" d="m 100.75586,544.62109 v 3 h 523.75781 v -3 z" transform="matrix(0,-0.20139406,0.26458333,0,-40.283493,240.91926)"/>
        <path id="path1587" style="font-variation-settings:normal;opacity:1;vector-effect:none;fill:#ffffff;fill-opacity:1;stroke:none;stroke-width:0.529302;stroke-linecap:butt;stroke-linejoin:miter;stroke-miterlimit:4;stroke-dasharray:none;stroke-dashoffset:0;stroke-opacity:1;stop-color:#000000;stop-opacity:1" d="m 100.75586,482.15234 v 3 h 523.75781 v -3 z" transform="matrix(0,-0.20139406,0.26458333,0,-40.283493,240.91926)"/>
      </g>
      <g id="g1645" transform="matrix(0,1,-1.3137594,0,316.50994,71.710725)" style="stroke-width:0.92358">
        <path id="path1639" style="font-variation-settings:normal;opacity:1;vector-effect:none;fill:#cfcfcf;fill-opacity:1;stroke:none;stroke-width:0.529302;stroke-linecap:butt;stroke-linejoin:miter;stroke-miterlimit:4;stroke-dasharray:none;stroke-dashoffset:0;stroke-opacity:1;stop-color:#000000;stop-opacity:1" d="m 102.89453,601.93359 c 2.89367,21.08771 8.71313,42.56074 17.36719,63.4668 h 484.74805 c 8.65403,-20.90601 14.47155,-42.37914 17.36523,-63.4668 z" transform="matrix(0,-0.20139406,0.26458333,0,-71.710725,240.91926)"/>
        <path id="path1641" style="font-variation-settings:normal;opacity:1;vector-effect:none;fill:#666666;fill-opacity:1;stroke:none;stroke-width:0.529302;stroke-linecap:butt;stroke-linejoin:miter;stroke-miterlimit:4;stroke-dasharray:none;stroke-dashoffset:0;stroke-opacity:1;stop-color:#000000;stop-opacity:1" d="m 119.45898,663.40039 c 0.40495,1.00065 0.80874,2.00192 1.22657,3 h 483.90039 c 0.41786,-0.99817 0.82158,-1.99927 1.22656,-3 z" transform="matrix(0,-0.20139406,0.26458333,0,-71.710725,240.91926)"/>
        <path id="path1643" style="font-variation-settings:normal;opacity:1;vector-effect:none;fill:#ffffff;fill-opacity:1;stroke:none;stroke-width:0.529302;stroke-linecap:butt;stroke-linejoin:miter;stroke-miterlimit:4;stroke-dasharray:none;stroke-dashoffset:0;stroke-opacity:1;stop-color:#000000;stop-opacity:1" d="m 102.75977,600.93164 c 0.13283,0.99964 0.26214,1.99865 0.4082,3 h 518.93555 c 0.14606,-1.00139 0.27536,-2.00031 0.4082,-3 z" transform="matrix(0,-0.20139406,0.26458333,0,-71.710725,240.91926)"/>
      </g>
      <g id="g1653" transform="matrix(0,1,-1.3137594,0,316.50994,103.13796)" style="stroke-width:0.92358">
        <path id="path1647" style="font-variation-settings:normal;opacity:1;vector-effect:none;fill:#cfcfcf;fill-opacity:1;stroke:none;stroke-width:0.529302;stroke-linecap:butt;stroke-linejoin:miter;stroke-miterlimit:4;stroke-dasharray:none;stroke-dashoffset:0;stroke-opacity:1;stop-color:#000000;stop-opacity:1" d="m 151.0918,720.71484 c 17.35829,24.10848 39.04599,45.90897 64.83593,63.4668 h 293.41602 c 25.78994,-17.55783 47.47765,-39.35832 64.83594,-63.4668 z" transform="matrix(0,-0.20139406,0.26458333,0,-103.13796,240.91926)"/>
        <path id="path1649" style="font-variation-settings:normal;opacity:1;vector-effect:none;fill:#666666;fill-opacity:1;stroke:none;stroke-width:0.529302;stroke-linecap:butt;stroke-linejoin:miter;stroke-miterlimit:4;stroke-dasharray:none;stroke-dashoffset:0;stroke-opacity:1;stop-color:#000000;stop-opacity:1" d="m 213.04883,782.18164 c 1.44189,1.01134 2.89124,2.01571 4.35937,3 h 290.45508 c 1.46813,-0.98429 2.91748,-1.98866 4.35938,-3 z" transform="matrix(0,-0.20139406,0.26458333,0,-103.13796,240.91926)"/>
        <path id="path1651" style="font-variation-settings:normal;opacity:1;vector-effect:none;fill:#ffffff;fill-opacity:1;stroke:none;stroke-width:0.529302;stroke-linecap:butt;stroke-linejoin:miter;stroke-miterlimit:4;stroke-dasharray:none;stroke-dashoffset:0;stroke-opacity:1;stop-color:#000000;stop-opacity:1" d="m 150.36914,719.71289 c 0.71545,1.00325 1.43563,2.00476 2.16602,3 h 420.20117 c 0.73039,-0.99524 1.45056,-1.99675 2.16601,-3 z" transform="matrix(0,-0.20139406,0.26458333,0,-103.13796,240.91926)"/>
      </g>
      <g id="g1549" transform="translate(1.34e-4)" style="stroke-width:1.0586">
        <path id="path880" style="font-variation-settings:normal;opacity:1;vector-effect:none;fill:#cfcfcf;fill-opacity:1;stroke:none;stroke-width:0.529302;stroke-linecap:butt;stroke-linejoin:miter;stroke-miterlimit:4;stroke-dasharray:none;stroke-dashoffset:0;stroke-opacity:1;stop-color:#000000;stop-opacity:1" d="m 362.63672,396.38281 -31.73438,38.73438 v 391.20312 c 10.26518,1.15065 20.84274,1.75391 31.73243,1.75391 10.89036,0 21.46859,-0.60312 31.73437,-1.75391 V 435.11719 Z" transform="matrix(0.26458333,0,0,0.26458333,-1.3068514e-4,0)"/>
        <path id="path885" style="font-variation-settings:normal;opacity:1;vector-effect:none;fill:#666666;fill-opacity:1;stroke:none;stroke-width:0.529302;stroke-linecap:butt;stroke-linejoin:miter;stroke-miterlimit:4;stroke-dasharray:none;stroke-dashoffset:0;stroke-opacity:1;stop-color:#000000;stop-opacity:1" d="m 362.63477,393.49023 v 4.88868 l 29.73437,36.40039 v 391.75781 c 1.00324,-0.10503 2.00273,-0.21652 3,-0.33203 V 433.5625 Z" transform="matrix(0.26458333,0,0,0.26458333,-1.3068514e-4,0)"/>
        <path id="path863" style="font-variation-settings:normal;opacity:1;vector-effect:none;fill:#ffffff;fill-opacity:1;stroke:none;stroke-width:0.529302;stroke-linecap:butt;stroke-linejoin:miter;stroke-miterlimit:4;stroke-dasharray:none;stroke-dashoffset:0;stroke-opacity:1;stop-color:#000000;stop-opacity:1" d="m 362.63477,393.49023 -32.73438,40.07227 v 392.64258 c 0.99727,0.11551 1.99676,0.227 3,0.33203 V 434.7793 l 29.73438,-36.40039 z" transform="matrix(0.26458333,0,0,0.26458333,-1.3068514e-4,0)"/>
      </g>
      <g id="g1573" transform="translate(27.516864)" style="stroke-width:1.0586">
        <path id="path1567" style="font-variation-settings:normal;opacity:1;vector-effect:none;fill:#cfcfcf;fill-opacity:1;stroke:none;stroke-width:0.529302;stroke-linecap:butt;stroke-linejoin:miter;stroke-miterlimit:4;stroke-dasharray:none;stroke-dashoffset:0;stroke-opacity:1;stop-color:#000000;stop-opacity:1" d="m 466.63672,396.38281 -31.73438,38.73438 v 383.43945 c 23.14921,-6.3662 44.33364,-15.69949 63.4668,-27.31445 v -356.125 z" transform="matrix(0.26458333,0,0,0.26458333,-27.516862,0)"/>
        <path id="path1569" style="font-variation-settings:normal;opacity:1;vector-effect:none;fill:#666666;fill-opacity:1;stroke:none;stroke-width:0.529302;stroke-linecap:butt;stroke-linejoin:miter;stroke-miterlimit:4;stroke-dasharray:none;stroke-dashoffset:0;stroke-opacity:1;stop-color:#000000;stop-opacity:1" d="m 466.63477,393.49023 v 4.88868 l 29.73437,36.40039 v 357.6582 c 1.0065,-0.59822 2.00468,-1.20574 3,-1.81641 V 433.5625 Z" transform="matrix(0.26458333,0,0,0.26458333,-27.516862,0)"/>
        <path id="path1571" style="font-variation-settings:normal;opacity:1;vector-effect:none;fill:#ffffff;fill-opacity:1;stroke:none;stroke-width:0.529302;stroke-linecap:butt;stroke-linejoin:miter;stroke-miterlimit:4;stroke-dasharray:none;stroke-dashoffset:0;stroke-opacity:1;stop-color:#000000;stop-opacity:1" d="m 466.63477,393.49023 -32.73438,40.07227 v 385.25977 c 1.00268,-0.27139 2.00466,-0.54372 3,-0.82618 V 434.7793 l 29.73438,-36.40039 z" transform="matrix(0.26458333,0,0,0.26458333,-27.516862,0)"/>
      </g>
      <g id="g1581" transform="translate(55.033594)" style="stroke-width:1.0586">
        <path id="path1575" style="font-variation-settings:normal;opacity:1;vector-effect:none;fill:#cfcfcf;fill-opacity:1;stroke:none;stroke-width:0.529302;stroke-linecap:butt;stroke-linejoin:miter;stroke-miterlimit:4;stroke-dasharray:none;stroke-dashoffset:0;stroke-opacity:1;stop-color:#000000;stop-opacity:1" d="m 570.63672,396.38281 -31.73242,38.73438 v 325.54687 c 27.7395,-25.6346 49.04444,-56.56204 63.46484,-89.11328 V 435.11719 Z" transform="matrix(0.26458333,0,0,0.26458333,-55.033593,0)"/>
        <path id="path1577" style="font-variation-settings:normal;opacity:1;vector-effect:none;fill:#666666;fill-opacity:1;stroke:none;stroke-width:0.529302;stroke-linecap:butt;stroke-linejoin:miter;stroke-miterlimit:4;stroke-dasharray:none;stroke-dashoffset:0;stroke-opacity:1;stop-color:#000000;stop-opacity:1" d="m 570.63672,393.49023 v 4.88868 l 29.73242,36.40039 v 241.17968 c 1.03515,-2.22935 2.03005,-4.46973 3,-6.71484 V 433.5625 Z" transform="matrix(0.26458333,0,0,0.26458333,-55.033593,0)"/>
        <path id="path1579" style="font-variation-settings:normal;opacity:1;vector-effect:none;fill:#ffffff;fill-opacity:1;stroke:none;stroke-width:0.529302;stroke-linecap:butt;stroke-linejoin:miter;stroke-miterlimit:4;stroke-dasharray:none;stroke-dashoffset:0;stroke-opacity:1;stop-color:#000000;stop-opacity:1" d="m 570.63672,393.49023 -32.73633,40.07227 v 328.01172 c 1.01068,-0.92424 2.00622,-1.86075 3,-2.79883 V 434.7793 l 29.73633,-36.40039 z" transform="matrix(0.26458333,0,0,0.26458333,-55.033593,0)"/>
      </g>
      <g id="g1713" transform="matrix(-1,0,0,1,164.37762,0)" style="stroke-width:1.0586">
        <path id="path1707" style="font-variation-settings:normal;opacity:1;vector-effect:none;fill:#cfcfcf;fill-opacity:1;stroke:none;stroke-width:0.529302;stroke-linecap:butt;stroke-linejoin:miter;stroke-miterlimit:4;stroke-dasharray:none;stroke-dashoffset:0;stroke-opacity:1;stop-color:#000000;stop-opacity:1" d="m 466.63672,396.38281 -31.73438,38.73438 v 383.43945 c 23.14921,-6.3662 44.33364,-15.69949 63.4668,-27.31445 v -356.125 z" transform="matrix(0.26458333,0,0,0.26458333,-27.516862,0)"/>
        <path id="path1709" style="font-variation-settings:normal;opacity:1;vector-effect:none;fill:#ffffff;fill-opacity:1;stroke:none;stroke-width:0.529302;stroke-linecap:butt;stroke-linejoin:miter;stroke-miterlimit:4;stroke-dasharray:none;stroke-dashoffset:0;stroke-opacity:1;stop-color:#000000;stop-opacity:1" d="m 466.63477,393.49023 v 4.88868 l 29.73437,36.40039 v 357.6582 c 1.0065,-0.59822 2.00468,-1.20574 3,-1.81641 V 433.5625 Z" transform="matrix(0.26458333,0,0,0.26458333,-27.516862,0)"/>
        <path id="path1711" style="font-variation-settings:normal;opacity:1;vector-effect:none;fill:#666666;fill-opacity:1;stroke:none;stroke-width:0.529302;stroke-linecap:butt;stroke-linejoin:miter;stroke-miterlimit:4;stroke-dasharray:none;stroke-dashoffset:0;stroke-opacity:1;stop-color:#000000;stop-opacity:1" d="m 466.63477,393.49023 -32.73438,40.07227 v 385.25977 c 1.00268,-0.27139 2.00466,-0.54372 3,-0.82618 V 434.7793 l 29.73438,-36.40039 z" transform="matrix(0.26458333,0,0,0.26458333,-27.516862,0)"/>
      </g>
      <g id="g1721" transform="matrix(-1,0,0,1,136.86089,0)" style="stroke-width:1.0586">
        <path id="path1715" style="font-variation-settings:normal;opacity:1;vector-effect:none;fill:#cfcfcf;fill-opacity:1;stroke:none;stroke-width:0.529302;stroke-linecap:butt;stroke-linejoin:miter;stroke-miterlimit:4;stroke-dasharray:none;stroke-dashoffset:0;stroke-opacity:1;stop-color:#000000;stop-opacity:1" d="m 570.63672,396.38281 -31.73242,38.73438 v 325.54687 c 27.7395,-25.6346 49.04444,-56.56204 63.46484,-89.11328 V 435.11719 Z" transform="matrix(0.26458333,0,0,0.26458333,-55.033593,0)"/>
        <path id="path1717" style="font-variation-settings:normal;opacity:1;vector-effect:none;fill:#ffffff;fill-opacity:1;stroke:none;stroke-width:0.529302;stroke-linecap:butt;stroke-linejoin:miter;stroke-miterlimit:4;stroke-dasharray:none;stroke-dashoffset:0;stroke-opacity:1;stop-color:#000000;stop-opacity:1" d="m 570.63672,393.49023 v 4.88868 l 29.73242,36.40039 v 241.17968 c 1.03515,-2.22935 2.03005,-4.46973 3,-6.71484 V 433.5625 Z" transform="matrix(0.26458333,0,0,0.26458333,-55.033593,0)"/>
        <path id="path1719" style="font-variation-settings:normal;opacity:1;vector-effect:none;fill:#666666;fill-opacity:1;stroke:none;stroke-width:0.529302;stroke-linecap:butt;stroke-linejoin:miter;stroke-miterlimit:4;stroke-dasharray:none;stroke-dashoffset:0;stroke-opacity:1;stop-color:#000000;stop-opacity:1" d="m 570.63672,393.49023 -32.73633,40.07227 v 328.01172 c 1.01068,-0.92424 2.00622,-1.86075 3,-2.79883 V 434.7793 l 29.73633,-36.40039 z" transform="matrix(0.26458333,0,0,0.26458333,-55.033593,0)"/>
      </g>
    </g>
  </g>
</svg>