<?xml version="1.0" encoding="UTF-8" standalone="no"?>
<!-- Created with Inkscape (http://www.inkscape.org/) -->

<svg
   width="499.99997"
   height="570"
   viewBox="0 0 132.29166 150.8125"
   version="1.1"
   id="svg5"
   xml:space="preserve"
   xmlns="http://www.w3.org/2000/svg"
   xmlns:svg="http://www.w3.org/2000/svg"><defs
     id="defs2" /><path
     id="path2357"
     style="fill:#005dbd;fill-opacity:1;fill-rule:evenodd;stroke:none;stroke-width:0.132292;stroke-linecap:square;stroke-opacity:1;paint-order:markers stroke fill;stop-color:#000000"
     d="M 0,0 V 84.666662 C 0,113.58358 18.557777,138.16274 44.411761,147.15431 H 87.879909 C 113.73389,138.16274 132.29166,113.58358 132.29166,84.666662 V 0 Z" /><path
     id="path3129"
     style="font-variation-settings:normal;vector-effect:none;fill:#cccccc;fill-opacity:1;stroke:none;stroke-width:0.264583;stroke-linecap:butt;stroke-linejoin:miter;stroke-miterlimit:4;stroke-dasharray:none;stroke-dashoffset:0;stroke-opacity:1;-inkscape-stroke:none;stop-color:#000000"
     d="M 66.145829,3.33003 44.411761,30.674095 V 147.15431 c 6.80782,2.36765 14.11972,3.65818 21.734068,3.65818 7.61435,0 14.92626,-1.29053 21.73408,-3.65818 V 30.674095 Z" /><path
     style="font-variation-settings:normal;vector-effect:none;fill:#cccccc;fill-opacity:1;stroke:none;stroke-width:0.264583;stroke-linecap:butt;stroke-linejoin:miter;stroke-miterlimit:4;stroke-dasharray:none;stroke-dashoffset:0;stroke-opacity:1;-inkscape-stroke:none;stop-color:#000000"
     d="m 32.069734,54.201762 c -2.703308,4.49462 -3.84733,8.06203 -4.328179,13.48636 3.681577,-0.33971 6.778626,-1.76601 10.689468,-4.68886 v 18.99806 c -3.63146,-2.71405 -6.561245,-4.13773 -9.908896,-4.59927 L 22.205879,104.61876 15.889631,77.398052 c -3.347651,0.46154 -6.277436,1.88522 -9.908896,4.59927 v -18.99806 c 3.910842,2.92285 7.007891,4.34915 10.689468,4.68886 -0.480849,-5.42433 -1.624871,-8.99174 -4.328179,-13.48636 z"
     id="path3195" /><path
     style="font-variation-settings:normal;vector-effect:none;fill:#cccccc;fill-opacity:1;stroke:none;stroke-width:0.264583;stroke-linecap:butt;stroke-linejoin:miter;stroke-miterlimit:4;stroke-dasharray:none;stroke-dashoffset:0;stroke-opacity:1;-inkscape-stroke:none;stop-color:#000000"
     d="m 100.22193,54.201762 c 2.7033,4.49462 3.84733,8.06203 4.32818,13.48636 -3.68158,-0.33971 -6.778631,-1.76601 -10.689471,-4.68886 v 18.99806 c 3.63146,-2.71405 6.561241,-4.13773 9.908891,-4.59927 l 6.31625,27.220708 6.31625,-27.220708 c 3.34765,0.46154 6.27743,1.88522 9.90889,4.59927 v -18.99806 c -3.91084,2.92285 -7.00789,4.34915 -10.68946,4.68886 0.48085,-5.42433 1.62487,-8.99174 4.32818,-13.48636 z"
     id="path3199" /></svg>
