<?xml version="1.0" encoding="UTF-8" standalone="no"?>
<svg
   xmlns:dc="http://purl.org/dc/elements/1.1/"
   xmlns:cc="http://creativecommons.org/ns#"
   xmlns:rdf="http://www.w3.org/1999/02/22-rdf-syntax-ns#"
   xmlns:svg="http://www.w3.org/2000/svg"
   xmlns="http://www.w3.org/2000/svg"
   xmlns:sodipodi="http://sodipodi.sourceforge.net/DTD/sodipodi-0.dtd"
   xmlns:inkscape="http://www.inkscape.org/namespaces/inkscape"
   width="500"
   height="575"
   viewBox="0 0 132.29166 152.13542"
   version="1.1"
   id="svg847"
   sodipodi:docname="pyhäjoki.svg"
   inkscape:version="1.0.2 (e86c870879, 2021-01-15, custom)">
  <defs
     id="defs841" />
  <sodipodi:namedview
     id="base"
     pagecolor="#ffffff"
     bordercolor="#666666"
     borderopacity="1.0"
     inkscape:pageopacity="0.0"
     inkscape:pageshadow="2"
     inkscape:zoom="0.35"
     inkscape:cx="318.5278"
     inkscape:cy="179.32765"
     inkscape:document-units="px"
     inkscape:current-layer="layer1"
     inkscape:document-rotation="0"
     showgrid="false"
     inkscape:snap-smooth-nodes="true"
     inkscape:showpageshadow="false"
     borderlayer="true"
     units="px"
     inkscape:window-width="1920"
     inkscape:window-height="1017"
     inkscape:window-x="-8"
     inkscape:window-y="-4"
     inkscape:window-maximized="1" />
  <metadata
     id="metadata844">
    <rdf:RDF>
      <cc:Work
         rdf:about="">
        <dc:format>image/svg+xml</dc:format>
        <dc:type
           rdf:resource="http://purl.org/dc/dcmitype/StillImage" />
        <dc:title></dc:title>
      </cc:Work>
    </rdf:RDF>
  </metadata>
  <g
     inkscape:label="Layer 1"
     inkscape:groupmode="layer"
     id="layer1"
     transform="translate(-28.938104,-40.24904)">
    <g
       id="g1636"
       transform="matrix(1.0060978,0,0,1.0060978,-0.17645946,-0.23897803)"
       style="stroke-width:0.993939">
      <path
         style="font-variation-settings:normal;opacity:1;vector-effect:none;fill:#005dbd;fill-opacity:1;stroke:none;stroke-width:0.13149;stroke-linecap:butt;stroke-linejoin:miter;stroke-miterlimit:4;stroke-dasharray:none;stroke-dashoffset:0;stroke-opacity:1;stop-color:#000000;stop-opacity:1"
         d="m 160.42797,40.242627 v 87.072523 c 0,28.67607 -24.17671,64.14083 -65.744937,64.14083 -41.56823,0 -65.744928,-35.46476 -65.744928,-64.14083 V 40.242627 Z"
         id="path860"
         sodipodi:nodetypes="cszscc" />
      <path
         id="path866"
         style="font-variation-settings:normal;opacity:1;vector-effect:none;fill:#bf9f4f;fill-opacity:1;stroke:none;stroke-width:0.13149;stroke-linecap:butt;stroke-linejoin:miter;stroke-miterlimit:4;stroke-dasharray:none;stroke-dashoffset:0;stroke-opacity:1;stop-color:#000000;stop-opacity:1"
         d="m 94.683037,153.65935 c -1.573832,0 -3.086729,0.0696 -4.523789,0.18655 l 0.283181,3.17087 c -2.425482,0.21181 -4.589529,0.57799 -6.376929,0.96428 l -0.683805,-3.17965 c -4.299434,0.86157 -6.978881,1.89498 -6.978881,1.89498 l 2.85927,9.40046 c 0,0 6.603514,-2.56212 15.420953,-2.56212 8.817433,0 15.420953,2.56212 15.420953,2.56212 l 2.85927,-9.40046 c 0,0 -2.67973,-1.03343 -6.97888,-1.89498 l -0.68381,3.17965 c -1.7874,-0.38629 -3.95144,-0.75247 -6.376922,-0.96428 l 0.283181,-3.17087 c -1.437063,-0.11697 -2.94996,-0.18655 -4.523792,-0.18655 z" />
      <path
         id="path874"
         style="font-variation-settings:normal;opacity:1;vector-effect:none;fill:#bf9f4f;fill-opacity:1;stroke:none;stroke-width:0.13149;stroke-linecap:butt;stroke-linejoin:miter;stroke-miterlimit:4;stroke-dasharray:none;stroke-dashoffset:0;stroke-opacity:1;stop-color:#000000;stop-opacity:1"
         d="m 90.637549,166.98257 v 6.7262 h -6.726721 v 8.0915 h 6.726721 v 6.72672 h 8.091495 v -6.72672 h 6.726206 v -8.0915 h -6.726206 v -6.7262 z" />
      <path
         style="font-variation-settings:normal;opacity:1;vector-effect:none;fill:#bf9f4f;fill-opacity:1;stroke:none;stroke-width:0.13149;stroke-linecap:butt;stroke-linejoin:miter;stroke-miterlimit:4;stroke-dasharray:none;stroke-dashoffset:0;stroke-opacity:1;stop-color:#000000;stop-opacity:1"
         d="m 91.824589,145.1901 c 0,0 -0.312813,1.08192 -2.589976,1.40723 -2.277163,0.32531 -12.578373,1.95442 -12.578373,1.95442 0.567948,-0.94331 1.085784,-2.06416 1.653732,-2.75623 -1.734969,-1.12376 -3.596518,-1.99436 -5.462323,-2.85644 0,0 2.405427,-1.40316 5.211757,-2.10474 0,0 -1.453277,-1.70385 -1.703842,-2.95667 2.119279,0.44616 3.639503,1.38076 7.166164,2.30519 3.656594,0.9585 3.996933,0.41703 5.893265,1.18024 z m 4.576189,-4.00497 c 1.311896,-0.23853 3.692632,-0.19619 7.065932,0.70159 3.05323,0.81259 4.6581,0.39769 4.6581,0.39769 l 3.68527,3.26005 c 0,0 0.32619,1.20322 -1.62822,1.65423 -1.95441,0.45102 -8.87,2.3052 -12.327804,3.40769 0,0 0.400905,-1.35305 1.252826,-2.7061 -2.484065,-0.53563 -3.533106,-1.30505 -5.762999,-1.70385 1.25705,-1.13286 2.843695,-1.977 5.161643,-2.45554 -0.747828,-1.19019 -1.455747,-1.38887 -2.104748,-2.55576 z"
         id="path936"
         sodipodi:nodetypes="cscccccscccsccsccccc" />
      <path
         style="font-variation-settings:normal;opacity:1;vector-effect:none;fill:#d9d9d9;fill-opacity:1;stroke:none;stroke-width:0.13149;stroke-linecap:butt;stroke-linejoin:miter;stroke-miterlimit:4;stroke-dasharray:none;stroke-dashoffset:0;stroke-opacity:1;stop-color:#000000;stop-opacity:1"
         d="m 139.41447,99.958802 c -5.15569,2.162058 -9.37857,3.958878 -16.33686,0.801808 -7.54616,-3.423799 -10.24303,-6.665743 -17.13865,-9.020345 -6.895624,-2.354602 -14.101516,-0.565339 -21.247929,-1.202712 -7.021922,-0.62627 -10.122834,-3.10701 -9.822156,-11.525999 0.300678,-8.418991 0.690999,-13.293975 0.501131,-18.040695 -0.18987,-4.74672 -1.286674,-11.550474 -5.893257,-15.093999 -4.606587,-3.543527 -8.940201,-3.514642 -12.147435,-2.612607 -3.207234,0.902035 -6.113792,2.138156 -6.113792,2.138156 l -0.968312,2.813179 3.273513,5.739448 c 2.104676,1.785291 3.744432,2.270941 7.71142,4.465909 3.966988,2.194968 5.128206,6.227559 3.981622,13.107063 -1.146584,6.879504 -3.522673,12.318537 -4.6104,16.737754 -1.087726,4.419216 -1.437334,6.964784 -0.5898,10.70375 0.847534,3.738968 3.803389,10.908558 7.562364,14.156898 5.331113,4.6069 7.237362,4.76873 10.775271,7.43587 3.53791,2.66714 6.621989,6.20917 12.12685,8.04412 0.792174,2.73087 2.828152,3.21857 3.472658,4.46484 0.644506,1.24628 0,2.83482 -1.700893,5.24443 -1.538462,2.17949 -2.834822,3.04743 -2.834822,3.04743 -0.406813,1.57045 0.125855,3.93376 2.409598,3.827 0,0 1.072592,-1.74005 3.685268,-5.31529 2.69308,-3.68526 4.110491,-4.96093 3.685268,-6.52009 -0.425223,-1.55915 -0.425224,-1.98437 -10e-7,-2.76395 1.062034,0.0759 1.038444,-0.20424 3.401784,0.14175 2.47922,0.36296 3.11831,0.21261 4.03962,-0.0709 0,0 0.83155,1.30942 2.62221,2.97659 1.79067,1.66717 0.82743,3.66637 0.21261,5.95312 -0.53239,1.98013 -1.34654,2.69308 -1.34654,2.69308 0.28925,1.6715 1.36308,3.26713 3.68527,3.26005 0.6308,-2.52322 1.25519,-4.45408 1.91351,-6.52009 0.69652,-2.18592 1.68861,-2.60331 0.99218,-4.8192 -0.69641,-2.21588 -1.06305,-3.18917 -1.06305,-3.18917 0,0 3.96875,-0.92132 12.33147,0.42522 8.36272,1.34654 14.41608,0.73807 20.29833,-4.36461 5.88226,-5.10268 8.09904,-11.3155 8.60017,-12.91911 -3.57473,1.19158 -7.09865,5.20595 -11.02487,2.90655 -4.49725,-2.63383 -9.52147,-5.61266 -13.73097,-7.01582 0,0 7.6506,-2.83974 9.28762,-10.089428 z"
         id="path934"
         sodipodi:nodetypes="czssssssccczszzszczsccsscscssccsscsscscc" />
      <path
         style="font-variation-settings:normal;opacity:1;vector-effect:none;fill:#bf9f4f;fill-opacity:1;stroke:none;stroke-width:0.13149;stroke-linecap:butt;stroke-linejoin:miter;stroke-miterlimit:4;stroke-dasharray:none;stroke-dashoffset:0;stroke-opacity:1;stop-color:#000000;stop-opacity:1"
         d="m 51.215522,45.402409 c -3.908816,1.553507 -9.464045,3.145135 -11.074981,3.507915 -1.610936,0.362779 -1.323772,1.671212 -0.672226,1.862779 0,0 0.413604,1.020738 1.574262,1.377864 1.160659,0.357125 5.516344,0.911883 7.717408,1.052374 2.355312,0.150336 4.760738,0.751695 4.760738,0.751695 1.083287,-1.072456 3.123397,-1.473848 3.4578,-2.555765 0.341647,-1.105355 -0.943745,-1.992761 -3.056896,-2.906556 -2.204791,-0.953424 -2.706106,-2.271795 -2.706105,-3.090306 z"
         id="path932"
         sodipodi:nodetypes="czcsscssc" />
      <path
         id="path1594"
         style="opacity:1;fill:#005dbd;fill-opacity:1;stroke:none;stroke-width:0.131489;stroke-linecap:square;stroke-miterlimit:4;stroke-dasharray:none;stroke-dashoffset:10.8;paint-order:markers fill stroke"
         d="m 61.324094,46.267357 c 0,0.802775 -1.089318,1.453552 -2.433061,1.453552 -1.343743,0 -2.433061,-0.650777 -2.433061,-1.453552 0,-0.802775 0.989092,-1.378382 2.332835,-1.378382 1.343743,0 2.533287,0.575607 2.533287,1.378382 z"
         sodipodi:nodetypes="sssss" />
      <path
         id="path1587"
         style="color:#000000;font-style:normal;font-variant:normal;font-weight:normal;font-stretch:normal;font-size:medium;line-height:normal;font-family:sans-serif;font-variant-ligatures:normal;font-variant-position:normal;font-variant-caps:normal;font-variant-numeric:normal;font-variant-alternates:normal;font-variant-east-asian:normal;font-feature-settings:normal;font-variation-settings:normal;text-indent:0;text-align:start;text-decoration:none;text-decoration-line:none;text-decoration-style:solid;text-decoration-color:#000000;letter-spacing:normal;word-spacing:normal;text-transform:none;writing-mode:lr-tb;direction:ltr;text-orientation:mixed;dominant-baseline:auto;baseline-shift:baseline;text-anchor:start;white-space:normal;shape-padding:0;shape-margin:0;inline-size:0;clip-rule:nonzero;display:inline;overflow:visible;visibility:visible;opacity:1;isolation:auto;mix-blend-mode:normal;color-interpolation:sRGB;color-interpolation-filters:linearRGB;solid-color:#000000;solid-opacity:1;vector-effect:none;fill:#005dbd;fill-opacity:1;fill-rule:nonzero;stroke:none;stroke-width:3.75662;stroke-linecap:butt;stroke-linejoin:miter;stroke-miterlimit:4;stroke-dasharray:none;stroke-dashoffset:0;stroke-opacity:1;color-rendering:auto;image-rendering:auto;shape-rendering:auto;text-rendering:auto;enable-background:accumulate;stop-color:#000000;stop-opacity:1"
         d="m 196.08008,190.00391 c -6.51018,0.0439 -13.18973,0.82171 -23.9375,1.82617 -14.29495,1.33596 -22.9707,0.0684 -22.9707,0.0684 l -1.13672,1.40429 c 0,0 3.74497,0.34766 10.3789,0.34766 6.63392,0 19.98354,-0.23643 30.22461,-1.12695 10.24107,-0.89055 24.48633,-0.29102 24.48633,-0.29102 0,0 -1.34013,-1.34011 -10.44727,-2.00976 -2.27678,-0.16741 -4.42759,-0.2334 -6.59765,-0.21875 z m 124.01367,162.79101 c 3.16537,3.78039 6.06022,7.11527 6.31055,11.58203 0.0485,1.30991 -0.86401,3.53082 -2.74219,4.93946 -4.34302,3.25726 -7.81862,3.79289 -10.91406,6.5625 -3.09545,2.76959 -5.53448,5.08575 -4.53125,11.70703 1.13205,7.47159 11.12414,13.90336 22.79297,19.15429 11.66881,5.25098 16.08601,11.10857 44.27929,11.96289 28.19327,0.85437 46.09853,4.41885 76.48438,6.16211 30.38589,1.74327 52.68581,-10.18154 52.68581,-10.18154 l -12.64089,1.246 c -8.05493,3.17098 -17.48915,5.96914 -37.82422,6.02734 -20.33507,0.0582 -49.98535,-5.86843 -78.04492,-6.71875 -28.05959,-0.85028 -31.96578,-6.09741 -43.02539,-11.07422 -11.05961,-4.9768 -19.98802,-10.53928 -20.75,-15.56836 -0.89081,-5.87932 0.93766,-7.67419 3.24023,-9.73437 2.30256,-2.06017 6.43525,-2.51882 11.1836,-6.08008 2.66751,-2.00063 3.89431,-6.02527 3.80078,-8.55078 -0.70079,-5.677 -4.67151,-11.28885 -10.30469,-11.43555 z m 57.95508,12.50196 c -3.87879,4.34748 -4.61397,4.95939 -11.69922,6.23242 -7.08525,1.27303 -16.3081,-2.397 -21.44531,-0.17188 10.08714,3.27239 17.4478,6.44848 28.46875,1.02344 2.17168,1.15701 5.42765,2.15211 7.7832,2.86914 4.71107,1.43406 11.17528,3.37864 18.36719,5.41992 14.38382,4.08253 31.63132,8.55111 43.81054,10.09766 12.02948,1.52757 21.43263,2.30178 27.18946,-1.79492 -9.3007,1.77494 -14.85218,-0.67293 -26.6875,-2.17578 -11.68562,-1.48389 -28.90986,-5.91086 -43.22071,-9.97266 -7.1554,-2.03091 -13.59305,-3.97363 -18.29296,-5.4043 -2.34996,-0.71533 -4.26515,-1.29987 -5.66797,-1.72656 1.01066,-1.02167 2.10561,-1.92315 1.39453,-4.39648 z m -2.65039,9.84765 c -4.34605,4.21047 -5.65559,5.97775 -10.76367,7.27735 -5.10808,1.29959 -15.33975,-1.65796 -21.62305,1.81445 8.8933,1.92325 17.0421,3.48921 25.03906,-0.10156 9.19851,1.48569 46.26213,14.75561 77.63281,17.43359 15.68138,1.33863 32.56206,1.46079 33.79297,-6.10938 -9.37572,5.59321 -19.01811,4.19952 -36.29297,2.12891 -28.67603,-3.43722 -64.5248,-15.19484 -69.46875,-16.78516 1.49949,-1.44733 1.74521,-2.78538 1.6836,-5.6582 z m -0.38086,14.01758 c -5.08611,4.13102 -7.80407,5.79515 -13.47852,6.73047 -5.67444,0.93528 -13.92571,-2.83646 -23.45117,0.46484 9.188,2.13098 20.5776,4.77372 29.26563,1.18555 0,0 46.21023,11.19714 79.07031,14.25391 16.45028,1.53025 32.40437,2.30982 37.02734,-5.77735 -9.96106,4.41347 -20.5233,3.29896 -36.65039,1.79883 -29.84772,-2.77652 -68.0862,-11.7618 -74.33789,-13.24609 1.69998,-1.36509 2.89649,-2.24828 2.55469,-5.41016 z m 51.41015,63.51562 c 0,0 2.14397,10.71486 0.80469,21.96485 -1.33931,11.24999 2.32031,20.53515 2.32031,20.53515 l 4.10743,1.96485 c 0,0 -4.82142,-9.64257 -3.75,-22.76758 1.07142,-13.12501 -3.48243,-21.69727 -3.48243,-21.69727 z m -43.32812,15.27539 c 0,0 4.51475,5.16042 8.68164,13.6836 4.16689,8.52314 5.14573,10.55959 9.69141,14.34766 l 1.5625,-2.14454 c 0,0 -2.50904,-3.15861 -7.24414,-12.25 -4.73511,-9.09135 -8.90334,-12.1215 -12.69141,-13.63672 z m -41.13477,18.11915 -1.51869,1.78515 c 5.13652,1.50157 8.31222,0.99119 19.01758,4.28516 10.70535,3.29397 16.60742,4.15234 16.60742,4.15234 l -1.16043,-2.7235 c -6.65179,-0.7143 -8.66571,-1.87827 -17.45564,-4.37415 -8.29214,-2.40552 -9.12076,-1.96692 -15.49024,-3.125 z"
         transform="scale(0.26458333)"
         sodipodi:nodetypes="csccsscssccsssssscccsssssccccccssscsssccccccscsccccccscsccccccscccccsccccccccc" />
      <ellipse
         style="opacity:1;fill:#bf9f4f;fill-opacity:1;stroke:none;stroke-width:0.131489;stroke-linecap:square;stroke-miterlimit:4;stroke-dasharray:none;stroke-dashoffset:10.8;paint-order:markers fill stroke"
         id="ellipse1596"
         cx="58.979511"
         cy="46.060467"
         rx="1.9940956"
         ry="1.2466601" />
      <path
         id="ellipse1598"
         style="opacity:1;fill:#ffffff;fill-opacity:1;stroke:none;stroke-width:0.496967;stroke-linecap:square;stroke-miterlimit:4;stroke-dasharray:none;stroke-dashoffset:10.8;paint-order:markers fill stroke"
         d="m 220.62891,171.28516 a 5.0213345,3.507053 0 0 0 -3.47852,3.33789 5.0213345,3.507053 0 0 0 5.01953,3.50586 5.0213345,3.507053 0 0 0 4.10742,-1.48829 5.0213345,3.2391959 0 0 1 -2.80468,0.55079 5.0213345,3.2391959 0 0 1 -5.01954,-3.23829 5.0213345,3.2391959 0 0 1 2.17579,-2.66796 z"
         transform="scale(0.26458333)" />
    </g>
  </g>
</svg>
