<?xml version="1.0" encoding="UTF-8" standalone="no"?>
<svg xmlns:dc="http://purl.org/dc/elements/1.1/" xmlns:cc="http://creativecommons.org/ns#" xmlns:rdf="http://www.w3.org/1999/02/22-rdf-syntax-ns#" xmlns:svg="http://www.w3.org/2000/svg" xmlns="http://www.w3.org/2000/svg" xmlns:sodipodi="http://sodipodi.sourceforge.net/DTD/sodipodi-0.dtd" xmlns:inkscape="http://www.inkscape.org/namespaces/inkscape" inkscape:version="1.0 (4035a4fb49, 2020-05-01)" sodipodi:docname="pyhäranta.svg" id="svg8" version="1.1" viewBox="0 0 132.29166 152.13542" height="575" width="500">
  <defs id="defs2"/>
  <sodipodi:namedview inkscape:snap-global="true" inkscape:snap-smooth-nodes="true" inkscape:object-nodes="true" inkscape:showpageshadow="false" inkscape:window-maximized="1" inkscape:window-y="-8" inkscape:window-x="-8" inkscape:window-height="1017" inkscape:window-width="1920" units="px" showgrid="false" inkscape:document-rotation="0" inkscape:current-layer="layer1" inkscape:document-units="px" inkscape:cy="214.95443" inkscape:cx="145.95513" inkscape:zoom="0.4567468" inkscape:pageshadow="2" inkscape:pageopacity="0.0" borderopacity="1.0" bordercolor="#666666" pagecolor="#ffffff" id="base" inkscape:snap-others="false" inkscape:lockguides="true"/>
  <metadata id="metadata5">
    <rdf:RDF>
      <cc:Work rdf:about="">
        <dc:format>image/svg+xml</dc:format>
        <dc:type rdf:resource="http://purl.org/dc/dcmitype/StillImage"/>
        <dc:title/>
      </cc:Work>
    </rdf:RDF>
  </metadata>
  <g transform="translate(-27.392758,-32.154489)" id="layer1" inkscape:groupmode="layer" inkscape:label="Шар 1">
    <g style="stroke-width:1.107" transform="matrix(0.90298926,0,0,0.90368388,2.6573917,3.0969955)" id="g3564">
      <path sodipodi:nodetypes="cszscc" id="path846" d="m 27.392758,32.154489 v 93.710491 c 0,41.60985 32.73588,74.63977 73.252072,74.63977 40.51619,0 73.25207,-33.02992 73.25207,-74.63977 V 32.154489 Z" style="font-variation-settings:normal;opacity:1;vector-effect:none;fill:#e30811;fill-opacity:1;fill-rule:evenodd;stroke:none;stroke-width:0.292895;stroke-linecap:butt;stroke-linejoin:miter;stroke-miterlimit:4;stroke-dasharray:none;stroke-dashoffset:0;stroke-opacity:1;marker:none;marker-start:none;marker-mid:none;marker-end:none;stop-color:#000000;stop-opacity:1"/>
      <g style="stroke-width:1.107" id="g3557">
        <path sodipodi:nodetypes="ccccssccssscssscssscccssscssscssscccssscssscsssccssccccccsccsccc" id="path2837" style="color:#000000;display:inline;overflow:visible;visibility:visible;fill:#830805;fill-opacity:1;fill-rule:evenodd;stroke:none;stroke-width:0.292895;stroke-linecap:square;stroke-linejoin:miter;stroke-miterlimit:4;stroke-dasharray:none;stroke-dashoffset:0;stroke-opacity:1;marker:none;marker-start:none;marker-mid:none;marker-end:none;enable-background:accumulate" d="m 42.215317,165.13543 c -6.682808,-14.27529 -4.929409,-44.12495 -4.929409,-44.12495 18.94073,8.37104 35.516737,25.74149 35.516737,25.74149 -7.76755,1.43063 -12.382095,-0.32575 -12.382095,-0.32575 1.30338,2.60675 9.232468,13.68495 19.876688,13.90279 10.64433,0.21784 12.63954,-9.20649 12.63954,-16.94987 v -35.99263 h -15.82643 c 0.49457,1.22205 0.76946,2.55647 0.76946,3.95583 0,5.82895 -4.72544,10.55388 -10.55439,10.55388 -5.82895,-1e-5 -10.55439,-4.72492 -10.5544,-10.55388 0,-1.60056 0.35823,-3.11707 0.99581,-4.47622 -1.67744,1.12336 -3.6943,1.77922 -5.86476,1.77922 -5.82895,0 -10.55439,-4.72544 -10.55439,-10.554396 -1e-5,-5.828961 4.72544,-10.553877 10.55439,-10.553877 2.17047,0 4.18732,0.655854 5.86476,1.779219 -0.63758,-1.359154 -0.99581,-2.87565 -0.99581,-4.476212 0,-5.828959 4.72544,-10.554396 10.5544,-10.554396 5.82895,0 10.5544,4.725437 10.55439,10.554396 0,1.399357 -0.27489,2.733783 -0.76946,3.95583 h 15.82643 V 72.846489 c -1.22206,0.494575 -2.55648,0.769461 -3.95584,0.769461 -5.82896,8e-6 -10.55439,-4.725439 -10.55439,-10.554393 0,-5.828956 4.72543,-10.554398 10.55439,-10.554395 1.60057,0 3.11706,0.358224 4.47622,0.995804 -1.12337,-1.67744 -1.77922,-3.694287 -1.77922,-5.864757 0,-5.828956 4.7249,-10.554396 10.553892,-10.554396 5.82894,6e-6 10.55439,4.725445 10.55439,10.554396 0,2.170459 -0.65587,4.187322 -1.77922,5.864757 1.35915,-0.63758 2.87565,-0.995804 4.47621,-0.995804 5.82895,2e-6 10.55388,4.725442 10.55388,10.554395 0,5.828951 -4.72493,10.554393 -10.55388,10.554393 -1.39936,0 -2.73379,-0.274886 -3.95583,-0.769461 v 15.949414 h 15.82642 c -0.49457,-1.222047 -0.76946,-2.556473 -0.76946,-3.95583 -1e-5,-5.828959 4.72544,-10.554396 10.5544,-10.554396 5.82895,0 10.55439,4.725437 10.55439,10.554396 0,1.600562 -0.35822,3.117058 -0.9958,4.476212 1.67743,-1.123365 3.69428,-1.779219 5.86475,-1.779219 5.82896,0 10.5544,4.724916 10.5544,10.553877 -1e-5,5.828957 -4.72544,10.554397 -10.5544,10.554397 -2.17046,0 -4.18732,-0.65586 -5.86475,-1.77922 0.63758,1.35915 0.9958,2.87566 0.9958,4.47622 0,5.82896 -4.72544,10.55387 -10.55439,10.55388 -5.82896,0 -10.5544,-4.72493 -10.5544,-10.55388 0,-1.39936 0.27489,-2.73378 0.76946,-3.95583 h -15.82642 v 35.99263 c 0,7.74338 1.99572,17.16771 12.64005,16.94987 10.64422,-0.21784 18.73623,-12.76234 20.03961,-15.36909 0,0 -6.84115,3.65713 -15.15177,1.35759 0,0 17.75255,-17.92799 36.53616,-26.36514 l 1.58733,0.21329 c 0,0 0.10086,32.80348 -7.28493,46.48892 0,0 -3.40564,-5.52751 -4.48087,-12.90051 0,0 -5.54081,17.0592 -25.16321,25.47353 -19.6224,8.41433 -25.22,12.86905 -26.7193,18.4645 h -3.902386 c -1.499302,-5.59545 -4.561912,-12.04703 -24.184312,-20.46136 -19.6224,-8.41433 -27.160584,-23.93748 -27.160584,-23.93748 -1.07523,7.373 -5.094767,13.20772 -5.094767,13.20772 z"/>
        <path d="m 100.64432,36.025479 c 5.82894,6e-6 10.55439,4.725445 10.55439,10.554396 0,2.170459 -0.65587,4.187322 -1.77922,5.864757 1.35915,-0.63758 2.87565,-0.995804 4.47621,-0.995804 5.82895,2e-6 10.55388,4.725442 10.55388,10.554395 0,5.828951 -4.72493,10.554393 -10.55388,10.554393 -1.39936,0 -2.73379,-0.274886 -3.95583,-0.769461 v 15.949414 h 15.82642 c -0.49457,-1.222047 -0.76946,-2.556473 -0.76946,-3.95583 -1e-5,-5.828959 4.72544,-10.554396 10.5544,-10.554396 5.82895,0 10.55439,4.725437 10.55439,10.554396 0,1.600562 -0.35822,3.117058 -0.9958,4.476212 1.67743,-1.123365 3.69428,-1.779219 5.86475,-1.779219 5.82896,0 10.5544,4.724916 10.5544,10.553877 -10e-6,5.828951 -4.72544,10.554391 -10.5544,10.554391 -2.17046,0 -4.18732,-0.65586 -5.86475,-1.77922 0.63758,1.35915 0.9958,2.87566 0.9958,4.47622 0,5.82896 -4.72544,10.55387 -10.55439,10.55388 -5.82896,0 -10.5544,-4.72493 -10.5544,-10.55388 0,-1.39936 0.27489,-2.73378 0.76946,-3.95583 h -15.82642 v 35.99263 c 0,7.74338 1.99572,17.16771 12.64005,16.94987 10.64422,-0.21784 19.33361,-12.16496 20.63699,-14.77171 0,0 -5.91793,2.73391 -13.68547,1.30328 0,0 17.11908,-17.47906 36.05981,-25.8501 0,0 0.86888,31.49785 -6.51691,45.18329 0,0 -3.40564,-5.52751 -4.48087,-12.90051 0,0 -6.30883,17.52001 -25.93123,25.93434 -19.6224,8.41433 -25.22,12.86905 -26.7193,18.4645 h -2.596743 c -1.4993,-5.59545 -7.09638,-10.05017 -26.71878,-18.4645 -19.6224,-8.41433 -25.93175,-25.93434 -25.93175,-25.93434 -1.07523,7.373 -4.48035,12.90051 -4.48035,12.90051 -7.38579,-13.68544 -6.51691,-45.18329 -6.51691,-45.18329 18.94073,8.37104 36.05981,25.8501 36.05981,25.8501 -7.76755,1.43063 -13.68547,-1.30328 -13.68547,-1.30328 1.30338,2.60675 9.99277,14.55387 20.63699,14.77171 10.64433,0.21784 12.63954,-9.20649 12.63954,-16.94987 v -35.99263 h -15.82643 c 0.49457,1.22205 0.76946,2.55647 0.76946,3.95583 0,5.82895 -4.72544,10.55388 -10.55439,10.55388 -5.82895,-1e-5 -10.55439,-4.72492 -10.5544,-10.55388 0,-1.60056 0.35823,-3.11707 0.99581,-4.47622 -1.67744,1.12336 -3.6943,1.77922 -5.86476,1.77922 -5.82895,0 -10.55439,-4.72544 -10.55439,-10.55439 -10e-6,-5.828961 4.72544,-10.553877 10.55439,-10.553877 2.17047,0 4.18732,0.655854 5.86476,1.779219 -0.63758,-1.359154 -0.99581,-2.87565 -0.99581,-4.476212 0,-5.828959 4.72544,-10.554396 10.5544,-10.554396 5.82895,0 10.5544,4.725437 10.55439,10.554396 0,1.399357 -0.27489,2.733783 -0.76946,3.95583 h 15.82643 V 71.788155 c -1.22206,0.494575 -2.55648,0.769461 -3.95584,0.769461 -5.82896,8e-6 -10.55439,-4.725439 -10.55439,-10.554393 0,-5.828956 4.72543,-10.554398 10.55439,-10.554395 1.60057,0 3.11706,0.358224 4.47622,0.995804 -1.12337,-1.67744 -1.77922,-3.694287 -1.77922,-5.864757 0,-5.828956 4.7249,-10.554396 10.553883,-10.554396 z" style="color:#000000;display:inline;overflow:visible;visibility:visible;fill:#b4985a;fill-opacity:1;fill-rule:evenodd;stroke:none;stroke-width:0.292895;stroke-linecap:square;stroke-linejoin:miter;stroke-miterlimit:4;stroke-dasharray:none;stroke-dashoffset:0;stroke-opacity:1;marker:none;marker-start:none;marker-mid:none;marker-end:none;enable-background:accumulate" id="path848"/>
        <path sodipodi:nodetypes="sscssccccccccssccccscccccccsscssccccccccsssccccccccscccccccccscccccsscccccccccsccsccccccccccccccccccccsccccccccccccccscccc" d="m 100.64449,36.025709 c -5.828976,0 -10.553866,4.725438 -10.553866,10.554393 0,2.17047 0.65585,4.18732 1.77922,5.86476 -1.35916,-0.63758 -2.87565,-0.995807 -4.47622,-0.995807 -5.82895,0 -10.55439,4.72544 -10.55439,10.554396 0,3.038644 1.3022,5.756452 3.35742,7.682219 -2.810468,-4.715919 -2.699203,-6.373828 -2.14251,-9.452136 0.55974,-3.046778 2.72473,-5.709555 5.58881,-6.968051 2.87376,-1.272104 6.42327,-0.544851 9.5529,0.54002 -0.56332,-1.926596 -1.63013,-3.828926 -1.89962,-5.622396 -0.71062,-3.667048 1.05863,-7.607519 4.21421,-9.583396 1.69908,-1.112168 3.65261,-1.502233 5.134566,-1.502233 6.63222,0.399978 8.34749,3.55915 9.22476,4.41559 -1.79115,-3.277047 -5.22754,-5.487356 -9.22528,-5.487359 z m 13.25139,15.423346 c -1.60056,0 -3.11706,0.358227 -4.47621,0.995807 l -1.32602,1.360641 c 3.12964,-1.084871 6.67966,-1.812124 9.55342,-0.54002 3.14647,1.475138 4.83347,3.116898 5.9583,4.602303 -1.60896,-3.7727 -5.34893,-6.418729 -9.70949,-6.418731 z m -21.487566,18.777667 -1.05886,1.561661 v 15.949414 h -15.82642 l -1.56993,1.058852 h 18.45521 z m -26.67021,3.000848 c -5.82896,3e-6 -10.5544,4.725438 -10.5544,10.554396 0,1.600563 0.35823,3.117059 0.99581,4.476213 -1.67744,-1.123365 -3.69429,-1.77922 -5.86476,-1.77922 -5.82895,0 -10.5544,4.724916 -10.55439,10.553878 0,3.005883 1.27058,5.702053 3.28713,7.624343 -2.652422,-5.143484 -3.2916,-7.639231 -1.22421,-11.865429 1.48497,-2.993543 4.56099,-5.07892 7.93905,-5.238956 2.44851,-0.161706 5.06133,0.975251 7.64708,2.257226 0.003,-1.111961 -0.49394,-2.192581 -0.7245,-3.193087 -0.9583,-2.919351 -0.34559,-6.435026 1.70067,-8.833567 2.36895,-2.980401 6.62497,-4.286665 10.2371,-3.040642 2.444135,0.871562 4.016767,1.961187 6.40322,4.125328 -1.77203,-3.340026 -5.2434,-5.640483 -9.2878,-5.640483 z m 69.813306,0 c -5.82896,0 -10.55441,4.725438 -10.5544,10.554396 0,1.399358 0.27489,2.733784 0.76946,3.955831 h -15.82642 l -1.05885,1.058852 h 18.4552 c -0.86136,-1.787806 -1.41663,-3.768469 -1.24385,-5.767092 0.22065,-3.77222 2.976,-7.181503 6.57428,-8.286832 7.87856,-1.892674 11.19039,2.963346 11.92226,3.712435 -0.3943,-0.818475 -0.78856,-1.111041 -1.18287,-1.661914 -1.93315,-2.17139 -4.71893,-3.565673 -7.85481,-3.565676 z m 15.42334,13.251389 c -2.17047,0 -4.18733,0.655855 -5.86476,1.77922 l -1.22938,1.551842 c 2.58575,-1.281975 5.19805,-2.418932 7.64656,-2.257226 4.77742,0.553624 6.64351,2.398311 8.93066,4.926835 -1.70391,-3.539088 -5.2923,-6.000668 -9.48314,-6.000668 z m -93.390676,17.693491 -1.40456,1.63556 c -0.63758,1.35915 -0.99581,2.87566 -0.99581,4.47622 1e-5,2.77884 1.09602,5.28696 2.85151,7.17165 -2.288302,-4.92504 -2.247068,-7.33065 -1.26866,-10.26759 0.23396,-0.90573 0.80619,-2.11798 0.81752,-3.01584 z m 34.82424,1.09709 -1.05886,1.05885 v 35.99264 c 0,7.74338 -1.9952,17.16771 -12.63953,16.94987 -6.13473,-0.12555 -11.56403,-4.14483 -15.36031,-8.02897 1.040452,3.53341 11.435102,8.55278 12.95223,8.84906 3.97382,0.69889 8.44134,-0.029 11.44116,-2.89594 3.15464,-3.10163 4.25512,-7.63946 4.55424,-11.91814 0.17458,-3.23727 0.0752,-6.48605 0.11421,-9.72809 -0.006,-10.0931 -0.003,-20.18619 -0.003,-30.27929 z m 34.930156,0 -1.572,1.05885 c -0.49457,1.22206 -0.76946,2.55648 -0.76946,3.95584 0,3.56264 1.77681,6.69822 4.48035,8.60929 -1.04822,-1.33573 -1.35497,-1.7541 -2.72335,-5.04725 -1.18763,-2.75814 -0.74121,-5.95321 0.58446,-8.57674 z m -91.639876,14.68283 c 0,0 -0.86888,31.49785 6.51691,45.18329 l -0.0703,-2.61586 c -1.51518,-3.52998 -2.40526,-7.24404 -3.144,-11.0753 -1.44464,-7.86534 -2.04884,-15.97587 -2.21123,-24.0254 -0.0365,-1.92744 -0.0794,-3.9607 -0.0357,-5.82342 9.00705,4.28804 17.19138,10.08139 24.84293,16.42639 2.70117,2.25167 5.32151,4.60003 7.86825,7.02489 l 2.29288,0.75551 c 0,0 -17.11908,-17.47906 -36.05981,-25.8501 z m 129.892836,0 c -18.94073,8.37104 -36.05981,25.8501 -36.05981,25.8501 l 2.29236,-0.75551 c 2.54675,-2.42486 5.16709,-4.77322 7.86825,-7.02489 7.65154,-6.345 15.83588,-12.13835 24.84293,-16.42639 z m -19.96622,22.34075 -2.40813,2.20607 c -1.30338,2.60675 -9.99276,14.55387 -20.63698,14.77171 -1.04443,0.0214 -1.98281,-0.0748 -2.867,-0.22841 0.43709,0.62651 3.74901,0.97348 5.42821,0.6645 5.50388,-0.9766 10.04755,-4.0518 13.85898,-7.98963 2.71484,-2.7476 4.91911,-5.96409 6.62492,-9.42424 z m -99.339666,5.84564 0.41031,4.09639 c 0,0 2.14135,5.88385 7.73803,12.46694 -4.261957,-6.68515 -5.310826,-9.70619 -5.97225,-11.06651 -0.85593,-1.77842 -1.4815,-3.65268 -2.17609,-5.49682 z m 108.718416,0 -0.41031,4.09639 c 1.07523,7.373 4.48086,12.90051 4.48086,12.90051 l 0.0698,-2.61586 c -0.22873,0.59248 -0.50449,-0.75004 -0.72864,-1.0294 -1.96107,-4.1988 -2.76485,-8.79831 -3.41168,-13.35164 z m -62.220996,40.32002 c 4.03948,2.8649 5.81377,5.37749 6.56342,8.17521 -0.296389,-5.83952 -4.294596,-7.59459 -6.56342,-8.17521 z" style="color:#000000;display:inline;overflow:visible;visibility:visible;fill:#fbe180;fill-opacity:1;fill-rule:evenodd;stroke:none;stroke-width:0.292895;stroke-linecap:square;stroke-linejoin:miter;stroke-miterlimit:4;stroke-dasharray:none;stroke-dashoffset:0;stroke-opacity:1;marker:none;marker-start:none;marker-mid:none;marker-end:none;enable-background:accumulate" id="path940"/>
      </g>
    </g>
  </g>
</svg>