<?xml version="1.0" encoding="UTF-8" standalone="no"?>
<svg
   xmlns:dc="http://purl.org/dc/elements/1.1/"
   xmlns:cc="http://creativecommons.org/ns#"
   xmlns:rdf="http://www.w3.org/1999/02/22-rdf-syntax-ns#"
   xmlns:svg="http://www.w3.org/2000/svg"
   xmlns="http://www.w3.org/2000/svg"
   xmlns:sodipodi="http://sodipodi.sourceforge.net/DTD/sodipodi-0.dtd"
   xmlns:inkscape="http://www.inkscape.org/namespaces/inkscape"
   width="500"
   height="565.00006"
   viewBox="0 0 132.29166 149.4896"
   version="1.1"
   id="svg847"
   sodipodi:docname="rääkkylä.svg"
   inkscape:version="1.0.2 (e86c870879, 2021-01-15, custom)">
  <defs
     id="defs841" />
  <sodipodi:namedview
     id="base"
     pagecolor="#ffffff"
     bordercolor="#666666"
     borderopacity="1.0"
     inkscape:pageopacity="0.0"
     inkscape:pageshadow="2"
     inkscape:zoom="2.8284271"
     inkscape:cx="311.5351"
     inkscape:cy="218.82188"
     inkscape:document-units="px"
     inkscape:current-layer="g1904"
     inkscape:document-rotation="0"
     showgrid="false"
     inkscape:snap-smooth-nodes="true"
     inkscape:showpageshadow="false"
     borderlayer="true"
     units="px"
     inkscape:window-width="1920"
     inkscape:window-height="1017"
     inkscape:window-x="-8"
     inkscape:window-y="-4"
     inkscape:window-maximized="1"
     inkscape:object-paths="false"
     inkscape:snap-global="true" />
  <metadata
     id="metadata844">
    <rdf:RDF>
      <cc:Work
         rdf:about="">
        <dc:format>image/svg+xml</dc:format>
        <dc:type
           rdf:resource="http://purl.org/dc/dcmitype/StillImage" />
        <dc:title></dc:title>
      </cc:Work>
    </rdf:RDF>
  </metadata>
  <g
     inkscape:label="Layer 1"
     inkscape:groupmode="layer"
     id="layer1"
     transform="translate(-20.379294,-31.671441)">
    <g
       id="g1904"
       transform="matrix(0.96178077,0,0,0.96178077,0.77887945,1.2104582)"
       style="stroke-width:1.03974">
      <path
         style="font-variation-settings:normal;opacity:1;vector-effect:none;fill:#e50606;fill-opacity:1;stroke:none;stroke-width:0.275097;stroke-linecap:butt;stroke-linejoin:miter;stroke-miterlimit:4;stroke-dasharray:none;stroke-dashoffset:0;stroke-opacity:1;stop-color:#000000;stop-opacity:1"
         d="m 20.379296,31.671441 c 0,0 1.38808,67.603848 1.92129,93.573209 0.53322,25.96936 25.75911,61.8568 66.853063,61.8568 41.093961,0 66.319811,-35.88744 66.853031,-61.8568 l 1.92129,-93.573209 z"
         id="path846"
         sodipodi:nodetypes="czzzcc" />
      <path
         style="font-variation-settings:normal;vector-effect:none;fill:#800000;fill-opacity:1;stroke:none;stroke-width:0.275097;stroke-linecap:butt;stroke-linejoin:miter;stroke-miterlimit:4;stroke-dasharray:none;stroke-dashoffset:0;stroke-opacity:1;stop-color:#000000"
         d="m 120.22005,56.356249 c -2.04104,-2.38125 -1.22199,-4.983289 -2.04381,-7.924436 -0.77037,-2.757033 -0.4325,-4.6769 1.29836,-6.613609 -0.23738,-0.08141 -0.36023,-0.13754 -0.59933,-0.146279 -1.31524,-0.04807 -2.91119,2.058538 -4.50866,4.318831 -1.82998,2.589283 -3.1897,6.099315 -3.39576,8.561494 -0.27424,3.27671 0.48904,4.833323 -0.42508,5.570353 -1.0321,-2.507639 -0.14716,-4.467764 -0.66548,-6.870168 -0.51829,-2.402405 -1.74301,-4.067446 -3.3948,-4.732916 0.5619,1.996315 0.43338,4.126449 -1.08207,6.811523 -1.61807,2.866892 -1.94537,4.247231 -1.5875,7.540626 0.3438,3.163957 0.33666,4.907002 -0.19844,5.977199 -0.76533,-1.6242 -0.0556,-4.997688 -0.82281,-8.646135 -0.79276,-3.770003 -2.72458,-4.799298 -4.159865,-5.36577 0.993785,2.347671 0.353631,4.678338 -1.130109,7.777039 -1.366135,2.85309 -1.773994,4.927039 -0.821312,7.500636 0.915022,2.471867 1.004152,3.765205 0.644921,4.663281 -1.438672,-2.282033 -0.76562,-4.160329 -2.083594,-5.953125 -1.420286,-1.931969 -2.676977,-1.644037 -3.833755,-1.234087 1.320969,1.432224 1.1959,3.890311 0.52923,6.831972 -0.587427,2.592002 -1.55499,3.717284 -1.52646,6.894597 0.02853,3.177313 0.89727,3.808754 -0.09947,5.945439 -1.066898,-1.645576 -1.461006,-2.9786 -1.151843,-6.296229 0.309163,-3.31763 -0.700354,-4.120266 -1.456302,-7.455863 -0.857925,-3.785566 -0.198433,-4.972726 1.122533,-6.40495 -0.239761,-0.216218 -0.450068,-0.349606 -0.669686,-0.356775 -3.737933,2.759023 -3.816483,5.518046 -5.724724,8.277069 h 10e-7 c -0.359231,-0.898076 -0.596818,-2.930569 0.318204,-5.402436 0.952682,-2.573597 1.157392,-4.464039 -0.330204,-7.570794 -1.615658,-3.374203 -2.082271,-5.436975 -1.088486,-7.784646 -0.222613,0.08786 -0.617935,0.0399 -0.879989,0.204463 -1.427533,0.896465 -3.142799,3.527118 -3.812602,6.712396 -0.767199,3.648447 -0.12764,6.039719 -0.89297,7.663919 -0.5351,-1.070197 -0.54224,-2.813242 -0.19844,-5.977199 0.35787,-3.293395 0.662024,-5.305158 -0.956076,-8.17205 -1.51545,-2.685074 -1.875819,-4.786673 -1.313919,-6.782988 -0.225063,0.09772 -0.500467,0.02658 -0.739479,0.204462 -1.217132,0.905828 -2.411208,3.614377 -2.844426,5.622451 -0.51829,2.402406 0.08602,4.081896 -0.455003,6.098427 -0.91412,-0.73703 -0.291154,-2.293643 -0.565394,-5.570353 -0.20606,-2.462179 -0.953444,-6.088453 -2.783424,-8.677736 -1.82998,-2.589282 -3.767974,-3.226677 -4.740174,-3.161276 1.2786,1.430675 0.898655,4.042976 0.128285,6.800009 -0.82182,2.941147 -0.268597,5.164361 -1.756887,7.148736 -0.25086,-4.264692 1.842785,-8.03973 -0.834845,-13.079852 -2.68621,-5.056277 -6.582957,-5.804613 -8.837187,-5.173594 3.94657,1.184176 3.839839,5.897664 2.370949,9.563294 -1.45253,3.624786 -1.09141,6.44922 -1.68672,8.73125 -0.80859,-2.746599 0.118851,-7.449394 -4.375019,-11.396848 -4.5149,-3.965931 -7.93286,-3.064953 -9.61666,-0.679572 6.382077,1.133811 6.757326,6.507737 8.997791,10.565038 1.7435,3.237504 0.694377,6.836068 -0.633494,8.510803 -1.51328,-2.378011 -1.287344,-4.551129 -3.368454,-7.230931 -2.41059,-3.104071 -4.725286,-3.412589 -7.247956,-6.025348 -2.52266,-2.612761 -3.402948,-4.233334 -2.930471,-7.540626 0,0 -0.388552,0.0073 -0.669519,0.204462 -0.990238,0.695002 -1.852055,5.721668 -1.852055,5.721668 l 15.875001,20.439063 -13.196095,5.457031 c 3.01821,5.09323 7.705991,6.661306 13.295311,6.548438 0,0 0.1104,2.083593 -2.66773,2.976562 -2.77812,0.892969 -7.375094,-1.752919 -7.375094,-1.752919 0,0 0.198277,6.415807 5.390724,7.548705 5.192447,1.132897 8.33437,-0.140317 10.12031,-1.033286 0,0 0.0992,2.480469 -2.87734,3.770313 -2.97656,1.289843 -6.879006,-1.157607 -6.879006,-1.157607 0.322205,1.933232 1.433799,6.090264 6.978226,7.408387 5.571952,1.324668 8.83047,-2.38125 8.83047,-2.38125 0,0 0.49609,1.686719 -1.88516,3.175 -2.38125,1.488288 -5.986037,0.727548 -5.986037,0.727548 1.467602,2.43386 4.032197,3.39183 8.199977,2.44745 4.16778,-0.94438 6.12233,-0.87838 9.11167,1.92802 -3.3661,-0.75745 -5.37249,-0.50588 -9.24202,1.28006 -3.022494,1.395 -6.468195,-0.46528 -7.57363,-0.85995 0,0 0.752167,3.82447 5.850806,3.82447 5.486078,10e-6 7.483314,-0.0262 9.389774,2.09211 -3.25351,-0.66632 -5.858484,-0.22612 -9.075097,0.25459 -3.216614,0.48073 -5.379791,0.96411 -8.447611,-1.90527 -0.140317,2.80405 0.553005,4.34439 3.01465,5.89105 2.466829,1.54991 7.634858,1.51734 7.634858,1.51734 -0.84254,0.42127 -1.79949,0.86906 -6.44922,0.59531 -4.64972,-0.27375 -6.47607,0.3691 -8.63203,2.48047 -2.12759,2.0836 -4.165238,1.2527 -5.782798,1.2527 0.432589,2.25199 2.918498,3.93648 6.874208,2.83935 3.95571,-1.09713 6.7498,-1.333 8.70511,0.68043 -2.19233,-0.73078 -6.98156,-0.23428 -11.04028,4.4088 -4.20033,4.8051 -6.39608,5.4039 -9.47186,3.8164 0,0 0.33073,2.75075 3.47265,3.07578 3.14193,0.32502 5.15938,-1.09141 5.15938,-1.09141 0,0 -1.719631,1.22361 -5.589161,2.01736 0.499598,1.69653 2.982911,3.10417 5.787601,2.54671 2.83052,-0.5626 3.175,-1.68672 5.15937,-2.38125 0,0 -1.05951,3.63846 -3.86584,5.60289 -2.80633,1.96443 -6.24408,1.54348 -6.24408,1.54348 0,0 1.37543,4.60375 5.79104,4.20949 4.4156,-0.39425 5.5746,-2.03458 7.60918,-2.45553 2.03459,-0.42095 2.94665,-1.54349 2.94665,-1.54349 0,0 0.63143,1.19269 -3.0168,2.59586 -3.64823,1.40316 -7.08599,4.41997 -6.94567,9.19073 0.124272,4.22515 2.098758,5.81513 4.381882,6.93965 0.294829,0.14521 0.723429,0.22843 1.020306,0.35681 0,0 -1.333012,-3.85871 -0.350798,-6.73519 0,0 0.282604,1.35608 2.417217,2.66024 0.219765,0.13427 0.477956,0.22558 0.739908,0.35656 0,0 -0.07012,-3.71838 2.946643,-5.1917 3.01681,-1.47333 5.051402,0.4911 7.015832,-2.45555 0,0 1.26284,1.54348 -1.96443,2.94665 -3.22728,1.40316 -3.43776,2.03459 -3.43776,5.47234 0,2.91722 -1.689692,4.13395 -2.984571,4.90493 -0.231056,0.13757 -0.623379,0.39102 -0.803976,0.49725 0,0 7.015829,1.75397 11.716429,-2.03457 4.7006,-3.78855 5.963453,-9.33105 4.840923,-13.75103 0,0 2.977481,3.05486 2.245061,6.59488 -0.73242,3.54001 -4.107264,4.8349 -4.107264,4.8349 1.944303,0.63142 6.111904,-0.64545 8.597394,-4.69459 2.46485,-4.01552 1.376804,-8.40814 0.841894,-9.61168 0,0 1.145922,1.33301 1.91766,4.77076 0.552245,2.46001 -1.045196,4.16929 -1.511408,5.1857 -0.1853,0.40398 -0.41338,0.95917 -0.41338,0.95917 0,0 5.730796,-0.2521 7.855655,-6.48009 2.12486,-6.22804 -0.482596,-10.31326 -0.482596,-10.31326 1.253727,0.66194 2.207958,3.55097 2.409455,6.85994 0.162269,2.66478 -1.273013,4.83409 -2.353312,6.37838 -0.194961,0.2787 -0.361472,0.54084 -0.523176,0.77776 2.256656,-0.28353 5.546342,-2.5297 6.524718,-5.75298 1.003149,-3.3049 1.092312,-7.52298 0.491107,-11.50595 -0.601203,-3.98297 1.210193,-6.3844 1.210193,-6.3844 0,0 1.420667,3.0168 0.859401,6.73519 -0.561268,3.71839 -0.867239,4.73902 0.379852,8.84759 0.974019,3.20893 3.231166,6.86928 4.70361,7.28279 0.366251,0.10286 0.604473,0.13095 0.83038,0.18743 -1.057722,-1.54972 -2.020513,-4.09896 -1.844663,-6.98676 0.184978,-3.03769 1.27197,-5.23135 2.525697,-5.89329 0,0 -0.373716,5.59792 0.60881,8.47771 0.982526,2.8798 3.461919,6.8089 4.895599,6.81077 0.4418,5.8e-4 0.79281,-0.023 0.79281,-0.023 0,0 -1.5695,-3.20418 -1.03535,-5.58361 0.53416,-2.37942 1.91767,-3.71839 1.91767,-3.71839 -0.53491,1.20354 -0.50043,4.193 1.96442,8.20852 2.04887,3.33784 4.44402,5.40879 6.20599,5.46633 0.37549,0.0123 0.73184,-0.023 0.95015,-0.023 0,0 -2.60434,-2.22196 -3.22728,-5.23281 -0.62293,-3.01085 1.6838,-5.26187 1.6838,-5.26187 -1.12253,4.13934 0.56127,8.48916 5.26187,12.2777 3.39188,2.73375 7.30586,2.46028 9.2228,2.09872 0.73963,-0.1395 1.18263,-0.28811 1.18263,-0.28811 -2.18488,-1.44572 -3.15485,-2.93385 -3.15485,-5.04869 0,-2.11483 0.38654,-2.97943 -0.46493,-4.69333 -0.85147,-1.71391 -3.16684,-1.68039 -4.29607,-3.54197 l 7.03635,0.78079 c 2.29434,1.12049 2.01225,5.60968 2.01209,6.75762 -5e-5,0.36147 -0.0165,0.76073 -0.0165,0.76073 3.05437,-1.05589 3.49235,-3.42072 3.49235,-3.42072 1.24864,2.38377 0.10256,5.28037 -0.38876,6.37836 -0.11602,0.25927 -0.21507,0.61193 -0.21507,0.61193 4.18336,-1.07293 5.90367,-3.72663 5.72538,-9.09504 -0.17605,-5.30094 -4.1098,-7.43727 -4.1098,-7.43727 0,0 2.82719,1.43786 6.6982,0.29964 3.87101,-1.13823 4.07663,-4.43851 4.07663,-4.43851 0,0 -0.48914,-0.0481 -0.87996,0.0642 -1.19046,0.34209 -3.60218,0.99379 -5.71491,-0.48512 -2.80633,-1.96443 -4.36193,-5.35484 -4.36193,-5.35484 1.98437,0.69453 2.79835,1.82729 5.65546,2.1332 3.02388,0.32377 5.19345,-1.33171 5.57328,-2.37274 l -0.84385,-0.17388 c -3.13517,-0.15918 -4.53099,-2.01745 -4.53099,-2.01745 0,0 2.53372,1.54854 5.7908,0.45999 3.33966,-1.11615 2.98155,-3.77737 2.98155,-3.77737 -0.19572,0.10102 -0.47909,0.18177 -0.66949,0.27467 -2.80179,1.36704 -5.00963,1.74128 -8.94269,-2.75806 -4.05871,-4.64309 -9.40922,-5.20974 -11.60155,-4.47896 1.95531,-2.01343 4.95988,-1.77756 8.91559,-0.68043 3.95571,1.09713 6.26321,-0.93213 6.76596,-2.76317 -0.16284,0 -0.43687,-0.019 -0.59952,-0.006 -1.45302,0.11533 -2.81084,0.62122 -4.72424,-1.25262 -2.15595,-2.11138 -3.98231,-2.75422 -8.63203,-2.48047 -4.64973,0.27375 -6.09779,-0.59499 -6.94033,-1.01626 0,0 5.16803,0.17289 7.63486,-1.37702 2.46164,-1.54666 3.39751,-3.01083 2.9064,-5.81488 l -0.45901,0.20439 c -2.93087,2.51395 -5.45916,1.9792 -8.3013,1.55443 -2.95203,-0.44119 -5.33048,-0.71044 -8.58399,-0.0441 1.90646,-2.11834 3.96749,-1.74131 9.1793,-1.74132 4.84374,0 6.1636,-3.67813 6.1636,-3.67813 0,0 -0.47767,-0.45537 -0.73964,-0.35677 -0.96759,0.36418 -3.24944,1.65802 -6.51536,0.85991 -4.13996,-1.01171 -5.87592,-2.03751 -9.24202,-1.28006 2.98934,-2.8064 4.94389,-2.8724 9.11167,-1.92802 4.16778,0.94438 6.69448,-0.639 8.23224,-2.1608 0,0 -0.54698,-0.27765 -1.09044,-0.2866 -1.03359,-0.017 -2.59546,0.1075 -4.15612,-0.867916 -2.38125,-1.488279 -3.42864,-2.894366 -3.42864,-2.894366 0,0 4.13217,3.275188 9.953,1.819983 5.82083,-1.455208 6.72985,-7.402373 6.72985,-7.402373 0,0 -0.76667,0.246789 -1.16059,0.414987 -1.2284,0.524506 -3.70733,1.6431 -5.96115,0.666448 -2.97656,-1.289843 -3.36844,-3.559838 -3.36844,-3.559838 1.71578,1.103444 6.2861,2.41282 11.52347,0.472019 5.10624,-1.892207 4.19522,-6.893726 4.19522,-6.893726 0,0 -0.41471,0.106921 -0.63442,0.186972 -1.11761,0.407187 -4.38384,2.001995 -6.70553,1.255736 -2.77813,-0.892972 -2.84038,-2.47943 -2.84038,-2.47943 5.58932,0.112868 10.9344,-1.159441 13.9558,-6.250782 3.01935,-5.087898 2.16369,-9.454282 1.61656,-12.007533 l -0.45902,0.134354 c -0.51033,2.176117 -2.04124,4.07532 -5.22551,5.523179 -3.43439,1.561585 -6.75265,1.664567 -7.9375,1.488281 4.36563,-0.992187 5.12629,-3.571874 8.03672,-5.754687 2.91041,-2.182812 8.3306,-7.408333 8.23516,-14.089063 -0.0955,-6.680727 -4.53908,-7.195428 -4.53908,-7.195428 0.39688,2.778125 0.4141,5.971731 -2.10858,8.584492 -2.52267,2.612759 -4.9316,2.849053 -7.34219,5.953124 -2.08111,2.679802 -1.33999,3.802612 -2.85327,6.180623 -0.20634,-2.682467 -0.90367,-4.85235 0.83983,-8.089854 1.89185,-3.512968 5.13883,-5.18491 5.13883,-5.18491 -0.34587,-0.08235 -0.66439,-0.19646 -0.97566,-0.214977 -1.56382,-0.09303 -2.64582,0.562243 -2.64582,0.562243 1.81087,-5.523177 7.62927,-5.063384 7.62927,-5.063384 -0.17982,-0.254737 -0.42092,-0.577663 -0.678,-0.810289 -2.15026,-1.945711 -6.74559,-2.58329 -10.77834,0.959116 -4.49387,3.947456 -4.26096,7.955718 -5.06955,10.702317 -0.59531,-2.28203 0.1166,-5.808047 -1.33593,-9.432833 -1.46889,-3.66563 -0.54407,-7.68739 3.4025,-8.871566 -0.25188,-0.07051 -0.4994,-0.202816 -0.8098,-0.216437 -2.46752,-0.108283 -6.60977,1.726411 -8.99583,6.217711 z"
         id="path1585-2"
         sodipodi:nodetypes="cscsssczcsscscsscscszczsccccsscsscsscsscszcscscscscccsscsccccscscscscsczcscsczcsczsczcscsccscscsscsssccscscssscscscscsscscsscsscssscsczscscsscscsscszccsccscsczcsscscccscssczcsszcsccscscssczcsscscsscscsscsccscsscsscscsccsscscscc" />
      <g
         id="use1590"
         transform="matrix(-1,0,0,1,178.30731,0)"
         style="stroke-width:1.03974">
        <path
           style="font-variation-settings:normal;vector-effect:none;fill:#cccccc;fill-opacity:1;stroke:none;stroke-width:0.275097;stroke-linecap:butt;stroke-linejoin:miter;stroke-miterlimit:4;stroke-dasharray:none;stroke-dashoffset:0;stroke-opacity:1;stop-color:#000000"
           d="m 89.884569,80.25889 c -0.02853,-3.177313 0.939033,-4.302595 1.52646,-6.894597 0.66667,-2.941661 0.05812,-5.1832 -1.262849,-6.615424 1.156778,-0.40995 2.799822,-0.418336 4.220108,1.513633 1.317974,1.792796 0.79375,3.373436 2.033985,5.705078 0.359231,-0.898076 0.666976,-2.439461 -0.248046,-4.911328 -0.952682,-2.573597 -0.544823,-4.647546 0.821312,-7.500636 1.48374,-3.098701 1.871796,-4.735392 0.878011,-7.083063 1.435289,0.566472 3.54904,1.884007 4.3418,5.65401 0.7672,3.648447 0.12764,6.039719 0.89297,7.663919 0.5351,-1.070197 0.54224,-2.813242 0.19844,-5.977199 -0.35787,-3.293395 -0.0306,-4.673734 1.5875,-7.540626 1.51545,-2.685074 1.45487,-4.155248 0.89297,-6.151563 1.37116,0.595312 2.85514,2.161659 3.37343,4.564064 0.5183,2.402404 0.0543,4.432687 0.59532,6.449218 0.91412,-0.73703 0.43147,-2.363801 0.70571,-5.640511 0.20606,-2.462179 1.56578,-5.972211 3.39576,-8.561494 1.82998,-2.589282 4.06563,-3.325896 5.03783,-3.260495 -1.2786,1.430675 -2.08928,3.74532 -1.31891,6.502353 0.82182,2.941147 0.12828,5.304678 1.61657,7.289053 0.25086,-4.264692 -1.28857,-7.362222 1.38906,-12.402344 2.68621,-5.056277 7.27077,-5.790394 9.525,-5.159375 -3.94657,1.184176 -4.94155,5.06562 -3.47266,8.73125 1.45253,3.624786 1.09141,6.44922 1.68672,8.73125 0.80859,-2.746599 0.57568,-6.754863 5.06955,-10.702317 4.5149,-3.965931 9.62371,-2.286161 11.30751,0.09922 0,0 -5.59529,-0.641694 -7.57966,5.41065 0,0 1.19062,-0.595313 3.27422,-0.09922 0,0 -2.87066,1.249533 -4.76251,4.762501 -1.7435,3.237504 -1.39696,5.056595 -1.19062,7.739062 1.51328,-2.378011 1.19311,-3.570979 3.27422,-6.250781 2.41059,-3.104071 4.81952,-3.340365 7.34219,-5.953124 2.52266,-2.612761 2.97656,-4.762501 2.57968,-7.540626 0,0 3.67866,0.628387 3.77032,7.044531 0.0917,6.416146 -5.39089,11.310938 -8.03672,13.295313 -2.64584,1.984375 -2.97656,4.365625 -7.14375,5.754687 1.18485,0.176286 3.70936,-0.02591 7.14375,-1.5875 3.43439,-1.561584 4.95563,-3.26891 5.75469,-4.464843 0,0 1.33149,5.721614 -1.68672,10.814843 -3.01821,5.09323 -7.80521,6.36365 -13.39453,6.250782 0,0 -0.1104,2.083593 2.66773,2.976562 2.77812,0.892969 6.84609,-0.694531 6.84609,-0.694531 0,0 0.59531,5.159375 -4.86172,6.35 -5.45703,1.190625 -8.33437,0 -10.12031,-0.892969 0,0 -0.0992,2.480469 2.87734,3.770313 2.97656,1.289843 6.35,-0.09922 6.35,-0.09922 0,0 -0.89297,4.960937 -6.44922,6.35 -5.55625,1.389062 -8.83047,-2.38125 -8.83047,-2.38125 0,0 -0.49609,1.686719 1.88516,3.175 2.38125,1.488281 5.45703,1.785934 5.45703,1.785934 -1.53776,1.5218 -3.50319,2.33344 -7.67097,1.38906 -4.16778,-0.94438 -6.12233,-0.87838 -9.11167,1.92802 3.3661,-0.75745 5.37249,-0.50588 9.24202,1.28006 3.86953,1.78594 7.04453,0.19844 7.04453,0.19844 0,0 -1.10939,2.97655 -5.95313,2.97655 -5.21181,1e-5 -6.85189,-0.2367 -8.75835,1.88164 3.25351,-0.66632 5.21101,-0.53737 8.16304,-0.0962 2.95203,0.44119 5.76265,2.37329 8.83047,-0.49609 0,1.40088 -0.25061,3.04978 -2.97656,4.7625 -2.73169,1.71633 -7.14375,1.5875 -7.14375,1.5875 0.84254,0.42127 1.79949,0.86906 6.44922,0.59531 4.64972,-0.27375 6.47607,0.3691 8.63203,2.48047 2.12759,2.0836 3.63604,2.31109 5.2536,2.31109 -0.78338,1.41009 -2.3893,2.87809 -6.34501,1.78096 -3.95571,-1.09713 -6.7498,-1.333 -8.70511,0.68043 2.19233,-0.73078 6.98156,-0.23428 11.04028,4.4088 4.20033,4.8051 6.39608,5.4039 9.47186,3.8164 0,0 -0.33073,2.75075 -3.47265,3.07578 -3.14193,0.32502 -5.15938,-1.09141 -5.15938,-1.09141 0,0 1.19063,2.28204 5.06016,3.07579 -0.42944,0.64416 -2.45391,2.04574 -5.2586,1.48828 -2.83052,-0.5626 -3.175,-1.68672 -5.15937,-2.38125 0,0 1.05951,3.63846 3.86584,5.60289 2.80633,1.96443 6.24408,1.54348 6.24408,1.54348 0,0 -1.37543,4.60375 -5.79104,4.20949 -4.4156,-0.39425 -5.5746,-2.03458 -7.60918,-2.45553 -2.03459,-0.42095 -2.94665,-1.54349 -2.94665,-1.54349 0,0 -0.63143,1.19269 3.0168,2.59586 3.64823,1.40316 7.08599,4.41997 6.94567,9.19073 -0.14032,4.77076 -2.31522,6.87551 -4.91108,7.99804 0,0 1.40317,-4.49013 -0.14031,-7.43677 0,0 -0.14032,2.31522 -2.94665,3.71838 0,0 -0.0702,-4.20949 -3.08696,-5.68281 -3.01681,-1.47333 -5.40219,0.84189 -7.08599,-2.66602 0,0 -1.26284,1.54348 1.96443,2.94665 3.22728,1.40316 3.43776,2.03459 3.43776,5.47234 0,3.43776 1.26285,5.26187 2.45554,5.96345 0,0 -5.75298,1.47333 -10.45358,-2.31521 -4.7006,-3.78855 -5.68282,-8.98026 -4.56029,-13.1196 0,0 -2.62669,2.56375 -1.89427,6.10377 0.73242,3.54001 3.0168,5.47234 3.0168,5.47234 -1.24272,0 -5.02144,-0.79178 -7.50693,-4.84092 -2.46485,-4.01552 -1.51712,-8.12751 -0.98221,-9.33105 0,0 -1.56687,0.14032 -2.33861,3.57807 -0.77174,3.43776 0.98221,6.24409 0.98221,6.24409 0,0 -4.630441,-0.0702 -6.66503,-6.03361 -2.03459,-5.96345 0.631424,-10.31326 0.631424,-10.31326 -1.253727,0.66194 -2.604833,3.00527 -2.80633,6.31424 -0.191554,3.14569 0.766392,5.88705 1.824114,7.43677 -1.134124,-0.28353 -4.115733,-1.60555 -5.332027,-5.61266 -1.247092,-4.10857 -0.841901,-7.85772 -0.280633,-11.57611 0.561266,-3.71839 -1.210193,-5.96345 -1.210193,-5.96345 0,0 -1.771458,2.24506 -1.210192,5.96345 0.561268,3.71839 0.966459,7.46754 -0.280633,11.57611 -1.216294,4.00711 -4.197903,5.32913 -5.332027,5.61266 1.057722,-1.54972 2.015668,-4.29108 1.824114,-7.43677 -0.201497,-3.30897 -1.552603,-5.6523 -2.80633,-6.31424 0,0 2.666014,4.34981 0.631424,10.31326 -2.034589,5.96341 -6.665033,6.03361 -6.665033,6.03361 0,0 1.753956,-2.80633 0.982215,-6.24409 -0.771741,-3.43775 -2.338608,-3.57807 -2.338608,-3.57807 0.534907,1.20354 1.482633,5.31553 -0.982216,9.33105 -2.485487,4.04914 -6.264213,4.84092 -7.506933,4.84092 0,0 2.284389,-1.93233 3.016805,-5.47234 0.732416,-3.54002 -1.894273,-6.10377 -1.894273,-6.10377 1.122532,4.13934 0.140317,9.33105 -4.560286,13.1196 -4.700603,3.78854 -10.453579,2.31521 -10.453579,2.31521 1.19269,-0.70158 2.455538,-2.52569 2.455538,-5.96345 0,-3.43775 0.210475,-4.06918 3.437755,-5.47234 3.227279,-1.40317 1.964431,-2.94665 1.964431,-2.94665 -1.683798,3.50791 -4.069179,1.19269 -7.085984,2.66602 -3.016803,1.47332 -3.086963,5.68281 -3.086963,5.68281 -2.80633,-1.40316 -2.946646,-3.71838 -2.946646,-3.71838 -1.543482,2.94664 -0.140317,7.43677 -0.140317,7.43677 -2.595855,-1.12253 -4.770761,-3.22728 -4.911077,-7.99804 -0.140317,-4.77076 3.297438,-7.78757 6.945667,-9.19073 3.648229,-1.40317 3.016804,-2.59586 3.016804,-2.59586 0,0 -0.912057,1.12254 -2.946646,1.54349 -2.034589,0.42095 -3.193581,2.06128 -7.60919,2.45553 -4.41561,0.39426 -5.791036,-4.20949 -5.791036,-4.20949 0,0 3.437754,0.42095 6.244084,-1.54348 2.80633,-1.96443 3.86584,-5.60289 3.86584,-5.60289 -1.984375,0.69453 -2.328849,1.81865 -5.159375,2.38125 -2.804692,0.55746 -4.829156,-0.84412 -5.258594,-1.48828 3.869531,-0.79375 5.060156,-3.07579 5.060156,-3.07579 0,0 -2.017448,1.41643 -5.159375,1.09141 -3.141926,-0.32503 -3.472656,-3.07578 -3.472656,-3.07578 3.075781,1.5875 5.271535,0.9887 9.471865,-3.8164 4.058719,-4.64308 8.847945,-5.13958 11.040276,-4.4088 -1.955314,-2.01343 -4.749397,-1.77756 -8.705109,-0.68043 -3.955712,1.09713 -5.561631,-0.37087 -6.345015,-1.78096 1.617564,0 3.126015,-0.22749 5.253608,-2.31109 2.155952,-2.11137 3.98231,-2.75422 8.632031,-2.48047 4.649721,0.27375 5.606677,-0.17404 6.449219,-0.59531 0,0 -4.412066,0.12883 -7.143749,-1.5875 -2.725953,-1.71272 -2.976564,-3.36162 -2.976564,-4.7625 3.067819,2.86938 5.878436,0.93728 8.83047,0.49609 2.952034,-0.44117 4.909533,-0.57012 8.163044,0.0962 -1.906465,-2.11834 -3.54654,-1.88163 -8.758357,-1.88164 -4.843736,0 -5.953125,-2.97655 -5.953125,-2.97655 0,0 3.175,1.5875 7.044531,-0.19844 3.869531,-1.78594 5.875915,-2.03751 9.242019,-1.28006 -2.989342,-2.8064 -4.943894,-2.8724 -9.111674,-1.92802 -4.16778,0.94438 -6.133209,0.13274 -7.67097,-1.38906 0,0 3.075781,-0.297654 5.457031,-1.785935 2.38125,-1.488281 1.885157,-3.175 1.885157,-3.175 0,0 -3.274219,3.770312 -8.830469,2.38125 -5.55625,-1.389063 -6.449219,-6.35 -6.449219,-6.35 0,0 3.373438,1.389063 6.35,0.09922 2.976564,-1.289844 2.877344,-3.770313 2.877344,-3.770313 -1.785938,0.892969 -4.663281,2.083594 -10.120313,0.892969 -5.457031,-1.190625 -4.861718,-6.35 -4.861718,-6.35 0,0 4.067968,1.5875 6.846093,0.694531 2.778125,-0.892969 2.66773,-2.976562 2.66773,-2.976562 -5.589323,0.112868 -10.376321,-1.157552 -13.394531,-6.250782 -3.01821,-5.093229 -1.686719,-10.814843 -1.686719,-10.814843 0.799058,1.195933 2.320296,2.903259 5.754688,4.464843 3.434392,1.56159 5.958895,1.763786 7.14375,1.5875 -4.167188,-1.389062 -4.497917,-3.770312 -7.14375,-5.754687 -2.645833,-1.984375 -8.128379,-6.879167 -8.036719,-13.295313 0.09166,-6.416144 3.770313,-7.044531 3.770313,-7.044531 -0.396875,2.778125 0.05702,4.927865 2.579687,7.540626 2.522665,2.612759 4.931597,2.849053 7.342187,5.953124 2.081108,2.679802 1.76094,3.87277 3.27422,6.250781 0.206344,-2.682467 0.552875,-4.501558 -1.190625,-7.739062 -1.891847,-3.512968 -4.762501,-4.762501 -4.762501,-4.762501 2.083594,-0.496093 3.274219,0.09922 3.274219,0.09922 -1.984375,-6.052344 -7.579666,-5.41065 -7.579666,-5.41065 1.683798,-2.385381 6.792616,-4.065151 11.307516,-0.09922 4.493864,3.947454 4.260959,7.955718 5.069546,10.702317 0.595313,-2.28203 0.234191,-5.106464 1.686719,-8.73125 1.468895,-3.66563 0.473916,-7.547074 -3.472657,-8.73125 2.254226,-0.631019 6.838785,0.103098 9.525,5.159375 2.677633,5.040122 1.138199,8.137652 1.389063,12.402344 1.488281,-1.984375 0.794745,-4.347906 1.616561,-7.289053 0.770371,-2.757033 -0.0403,-5.071678 -1.318905,-6.502353 0.972195,-0.0654 3.207847,0.671213 5.03783,3.260495 1.829982,2.589283 3.189696,6.099315 3.395764,8.561494 0.27424,3.27671 -0.20841,4.903481 0.705709,5.640511 0.540993,-2.016531 0.07702,-4.046814 0.595313,-6.449218 0.518295,-2.402405 2.002275,-3.968752 3.373437,-4.564064 -0.561903,1.996315 -0.622484,3.466489 0.892969,6.151563 1.61807,2.866892 1.945368,4.247231 1.5875,7.540626 -0.343803,3.163957 -0.336662,4.907002 0.198436,5.977199 0.765328,-1.6242 0.125772,-4.015472 0.892969,-7.663919 0.792758,-3.770003 2.906514,-5.087538 4.341803,-5.65401 -0.993785,2.347671 -0.605729,3.984362 0.878011,7.083063 1.366135,2.85309 1.773994,4.927039 0.821312,7.500636 -0.915022,2.471867 -0.607277,4.013252 -0.248046,4.911328 1.240235,-2.331642 0.716011,-3.912282 2.033985,-5.705078 1.420286,-1.931969 3.06333,-1.923583 4.220108,-1.513633 -1.320969,1.432224 -1.929519,3.673763 -1.262849,6.615424 0.587427,2.592002 1.55499,3.717284 1.52646,6.894597 -0.02853,3.177313 -0.265846,4.019229 0.730893,6.155914 0.99674,-2.136684 0.759428,-2.9786 0.730894,-6.155913 z"
           id="path1585"
           sodipodi:nodetypes="zscscsscscssczcszcscscscscccscsscssczcscscscscscsczcscsczcsczsczcscsccscscsscsscccscsscscscscscscscsscsscscscscscscscsscscccsscsscscsccscsczcszcsczcscsczcscscscscscsczcsscsscscccscscscsczsczcsscscsscscszcz" />
        <path
           id="path1834"
           style="font-variation-settings:normal;vector-effect:none;fill:#ffffff;fill-opacity:1;stroke:none;stroke-width:0.51987;stroke-linecap:butt;stroke-linejoin:miter;stroke-miterlimit:4;stroke-dasharray:none;stroke-dashoffset:0;stroke-opacity:1;stop-color:#000000"
           d="m 187.86523,142.52539 c -2.11141,0.0107 -4.01774,0.27743 -5.61523,0.72461 14.91617,4.47563 18.67671,19.14565 13.125,33 -5.48988,13.69998 -4.12501,24.375 -6.375,33 1.26818,-1.45563 2.00856,-2.77103 3.35547,-7.26758 1.34687,-4.49655 1.03323,-14.19417 6.40039,-27.58789 5.36716,-13.39371 -0.97363,-27.47812 -10.3418,-30.28906 0,0 3.55251,-0.1717 8.67383,-0.10742 -3.2688,-1.05206 -6.42588,-1.48687 -9.22266,-1.47266 z m 298.18555,0 c -9.14945,-0.0465 -22.1338,4.69746 -30.38281,20.22461 -10.12019,19.04928 -4.30185,30.75648 -5.25,46.875 1.37194,2.14005 1.85547,3.71289 1.85547,3.71289 3.60686,-22.32219 -4.07527,-31.00736 6.04492,-50.05664 8.25451,-15.5375 20.97005,-19.22837 30.00195,-18.76758 1.04799,-0.48062 2.15889,-0.90698 3.34766,-1.26367 -1.59748,-0.44718 -3.50578,-0.71388 -5.61719,-0.72461 z M 199.125,149.75 c 0.74997,1.125 8.57223,8.6071 3,25.125 -5.17659,15.34513 -5.6894,25.92615 -9,33.375 5.77663,-6.7394 5.64274,-16.89568 10.5,-30.375 4.86588,-13.50328 3.74999,-24.75 -4.5,-28.125 z m 26.24414,7.74023 c -0.26542,-0.009 -0.51449,-0.006 -0.74414,0.01 4.8325,5.40728 7.89601,14.15589 4.98438,24.57617 -3.1061,11.11615 -0.48435,20.04883 -6.10938,27.54883 1.54874,0.68504 4.06147,-1.45028 5.28906,-5.70312 1.22759,-4.25285 1.31156,-15.29908 3.76953,-24.09571 2.36058,-8.44801 0.24791,-16.06085 -3.21093,-21.52148 -1.53969,-0.52512 -2.90035,-0.77708 -3.97852,-0.81446 z m 223.17969,0 c -3.98129,0.13804 -11.81269,3.15741 -18.29688,12.33204 -6.91646,9.78626 -12.05514,23.0535 -12.83398,32.35937 -1.0365,12.38442 0.78697,18.53273 -2.66797,21.31836 -0.16621,2.13369 1.06055,3.71289 1.06055,3.71289 5.57626,-4.64178 3.714,-11.65681 4.78906,-24.50195 1.07506,-12.84515 4.85697,-20.97936 11.77344,-30.76563 5.39414,-7.63229 11.38891,-11.47854 15.51367,-12.68945 0.44933,-0.61538 0.91615,-1.20747 1.40625,-1.75586 -0.22965,-0.0154 -0.47872,-0.019 -0.74414,-0.01 z M 464.875,158.25 c -2.61852,1.74568 -9.82519,11.30013 -8.625,25.5 1.20389,14.24355 0.37501,23.625 -1.875,29.25 0,0 5.25,-4.5 6,-14.625 0.75,-10.125 -3.375,-20.25 4.5,-40.125 z M 208.5,159.125 c 1.1187,7.27158 1.64912,12.96912 -2.625,22.5 0,0 4.52172,-2.68897 5.25,-10.5 0.72291,-7.75369 -2.625,-12 -2.625,-12 z m -61.07422,0.69141 c -9.06801,0.0606 -16.74449,4.28809 -20.32422,9.35937 0,0 21.14846,-2.42578 28.64844,20.44922 0,0 -4.49998,-2.25 -12.375,-0.375 0,0 10.8497,4.72264 18,18 6.58961,12.23624 5.27987,19.11154 4.5,29.25 0.25134,0.86776 0.91695,2.70978 1.21289,3.57227 3.20406,-10.93786 3.24354,-21.44047 -3.08789,-33.19727 -6.33143,-11.7568 -13.3125,-15.75 -13.3125,-15.75 6.93751,-0.75 10.875,5.4375 10.875,5.4375 -4.82158,-22.63151 -16.7516,-28.55519 -27.52344,-30.01172 6.97495,-4.64997 16.31336,-6.10914 26.13672,-4.01953 -4.36759,-1.93414 -8.69732,-2.74192 -12.75,-2.71484 z m 379.06641,0 c -7.05291,-0.0471 -14.94848,2.42653 -22.41407,8.98437 -16.98468,14.91951 -16.10407,30.06837 -19.16015,40.44922 -0.81703,3.23647 -1.06055,8.2207 -1.06055,8.2207 4.04711,-6.91399 4.71253,-14.34923 7.22461,-22.32226 2.51208,-7.97303 9.71319,-24.78107 25.45899,-30.58985 6.12371,-2.25909 13.77563,-3.06191 20.51367,-2.66797 -3.13621,-1.26865 -6.72097,-2.04855 -10.5625,-2.07421 z M 116,161.875 c 0,0 -13.90357,2.37501 -14.25,26.625 -0.34658,24.25 20.37501,42.75 30.375,50.25 10.00003,7.5 11.24999,16.5 27,21.75 -4.47817,0.66628 -14.01963,-0.0979 -27,-6 -12.98037,-5.90205 -18.72993,-12.35494 -21.75,-16.875 0,0 -5.03241,21.625 6.375,40.875 5.2534,8.86512 11.92788,14.65977 19.66016,18.29688 -5.93775,-4.11127 -11.14186,-10.10146 -15.6836,-17.76563 -11.17965,-18.86566 -8.23047,-35.04297 -8.23047,-35.04297 3.28521,5.05039 14.36017,12.8753 25.99219,16.61133 11.63199,3.73603 20.93198,2.9535 25.41016,1.22656 -15.75001,-5.25 -19.12107,-17.69726 -29.1211,-25.19726 -9.99998,-7.5 -30.44354,-24.87891 -30.11132,-48.12891 0.21885,-15.31657 6.66566,-21.63626 11.04882,-24.18359 0.0761,-0.80203 0.16664,-1.61177 0.28516,-2.44141 z m 441.91797,0 c 0.0309,0.21656 0.0519,0.42605 0.0801,0.64062 0.039,-0.19534 0.0955,-0.39059 0.13867,-0.58593 -0.0556,-0.0118 -0.21875,-0.0547 -0.21875,-0.0547 z m -29.82227,2.59375 c -4.45666,0.0336 -14.17659,2.38303 -23.31054,13.01563 -9.74289,11.34143 -11.24224,19.94704 -12.46289,27.57617 -1.22067,7.62912 -6.09766,13.78906 -6.09766,13.78906 0,0 6.6105,-1.83428 8.48437,-14.31836 1.97584,-13.16342 6.83389,-19.9167 15.91016,-29.16797 9.07627,-9.25127 18.29688,-10.87305 18.29688,-10.87305 -0.2486,-0.0166 -0.52321,-0.0237 -0.82032,-0.0215 z m -373.0664,0.43164 c -1.06888,0.005 -1.6543,0.22461 -1.6543,0.22461 0,0 16.87498,6.375 21.75,25.125 0,0 1.5,-7.875 -7.125,-17.625 -5.92968,-6.70313 -10.61917,-7.73468 -12.9707,-7.72461 z m -10.73633,1.92969 C 143.39062,166.85938 142.875,167 142.875,167 c 0,0 17.625,5.25 21,23.25 3.375,18 12.74999,26.625 10.875,43.125 0,0 5.25001,-7.125 -1.875,-23.625 -7.04859,-16.32306 -5.25001,-21.75 -13.5,-33.375 -6.18749,-8.71875 -12.37499,-9.63281 -15.08203,-9.54492 z m 91.96875,1.37304 c 0,10e-6 2.6834,4.88469 0.79492,12.72852 -1.43267,5.95061 -1.87277,12.16351 -0.79492,15.91016 0,0 2.1e-4,-5.30471 2.38672,-14.32032 2.38647,-9.01561 -2.38672,-14.31836 -2.38672,-14.31836 z M 112.75,168.875 c -3.16154,2.37114 -7.55071,10.81926 -5.25,26.25 2.33904,15.68779 14.23826,28.61736 23.86328,34.89453 C 140.98826,236.29671 143.875,242 143.875,242 c 0,0 3.41994,-4.29883 -9.70508,-13.29883 -13.12497,-9 -21.04492,-18.95117 -24.04492,-34.32617 -3,-15.375 2.625,-25.5 2.625,-25.5 z m 444.25391,7.98438 c -1.47857,4.40646 -4.24243,8.75805 -8.83594,13.51562 -9.53448,9.87499 -18.63911,10.76808 -27.75,22.5 -7.86561,10.12839 -6.65552,14.63724 -12.375,23.625 -2.4357,4.32824 -4.54688,8.74805 -4.54688,8.74805 12.09449,-9.45927 9.88045,-17.75539 19.92188,-30.68555 10.04143,-12.93015 18.21551,-12.625 27.75,-22.5 4.48963,-4.64997 5.51747,-9.80945 5.83594,-15.20312 z m -125.49219,3.1875 c -2.28625,1.71468 -6.34061,5.41516 -6.36328,24.92578 -0.0231,19.68447 -3.97749,23.33479 -9.01563,29.43359 4.661,-2.26393 11.83963,-8.59592 11.40235,-23.07031 -0.43729,-14.47439 0.79458,-24.92511 3.97656,-31.28906 z M 234.43945,180.875 c 0,0 -2.26807,7.1512 -2.40625,15.68555 -0.13833,8.53434 -2.12215,12.71782 -4.7832,14.31445 0,0 6.13941,0.0152 6.50391,-11.73438 0.37341,-12.03952 0.68554,-18.26562 0.68554,-18.26562 z m 327.53321,0.76367 c -1.06066,4.24264 -3.39636,11.6813 -21.21289,22.80274 -16.85209,10.5194 -24.39454,25.10701 -24.39454,29.43359 0,0 6.65321,-12.0932 15.11329,-19.62109 9.14453,-8.13693 16.99438,-11.23906 24.39648,-18.29688 7.40209,-7.05781 6.09766,-14.31836 6.09766,-14.31836 z M 274.16797,181.875 c -5.18234,2.25 -10.79111,8.17004 -12.75,17.25 -1.95893,9.07995 -0.2052,16.75347 -2.25,24.375 1.43959,0.43992 2.84033,-0.47425 3.10742,-3.45117 0.26706,-2.97824 0.60591,-13.62517 2.20117,-21.01953 1.53324,-7.10679 4.57146,-11.39958 8.9375,-14.13868 0.2098,-0.97932 0.46191,-1.97822 0.75391,-3.01562 z m 125.58203,0 c 2.12373,7.54513 2.3527,13.10169 -3.375,23.25 -6.11554,10.8355 -7.35257,16.05252 -6,28.5 1.29941,11.95826 1.27242,18.54696 -0.75,22.5918 0.17497,4.05699 5.07008,-9.21335 3.66602,-22.5918 -1.41213,-13.45522 -0.37922,-16.60396 5.73632,-27.43945 5.0688,-8.98088 5.9074,-15.0878 3.4375,-22.80469 -0.90349,-0.60864 -1.81573,-1.1155 -2.71484,-1.50586 z m 124.43164,6.63086 c -3.88834,0.0554 -6.01367,1.11914 -6.01367,1.11914 -1.62254,1.71137 -1.3125,2.625 -1.3125,2.625 1.99952,-1.12466 7.21502,-2.57824 11.11523,-1.57812 1.53904,-0.93804 2.57227,-1.42188 2.57227,-1.42188 -2.46094,-0.58594 -4.5939,-0.76932 -6.36133,-0.74414 z m -403.53125,15.40625 c 1.08204,5.41019 4.40359,10.34885 13.78906,15.37891 9.37996,5.02712 12.72657,12.19726 12.72657,12.19726 0,0 2.53868,-4.92034 -9.2793,-12.72656 -9.56156,-6.31579 -11.54372,-6.05195 -17.23633,-14.84961 z m 281.42773,1.85547 c 0,0 -6.90245,7.14522 -4.77343,21.74414 2.1492,14.73736 -0.26392,19.09272 -2.65039,24.13086 0,0 5.87152,-2.44775 5.30273,-17.23633 -0.56879,-14.78858 -2.38671,-15.91075 2.12109,-28.63867 z m -98,0.11328 c -5.42471,2.141 -13.41389,7.12031 -16.41015,21.36914 -2.89965,13.78941 -0.48242,22.82809 -3.375,28.9668 -3.02026,9.15349 3.75,13.3125 3.75,13.3125 -3.64161,-7.23599 -1.93561,-9.85385 -0.22266,-16.65235 1.71296,-6.79849 0.34521,-15.26902 2.60938,-25.39453 2.26409,-10.1255 6.26286,-14.64041 10.46484,-16.29883 -0.3623,1.44917 -2.0144,3.26711 -4.45703,6.94141 -2.65074,3.98739 -4.00641,7.9375 -2.8125,17.25 1.19391,9.3125 -2.52096,14.58189 -4.5,19.875 -1.97904,5.29311 -0.4223,9.28225 1.3125,10.875 0,0 -2.06248,-5.8125 2.25,-13.5 4.31252,-7.6875 4.2556,-14.45826 3,-21.9375 -1.24411,-7.41069 2.65882,-12.44724 4.3125,-13.6875 0,0 -1.6875,4.3125 0.1875,7.6875 0,0 0.0103,-2.89406 2.24219,-5.33789 -0.88631,-4.57811 -0.40191,-8.62511 1.64843,-13.46875 z m 65.76172,0 c 3.75604,8.87309 2.28948,15.0579 -3.31836,26.76953 -5.16334,10.78333 -6.7042,18.62263 -3.10351,28.34961 3.45835,9.34249 2.29522,15.1682 0.9375,18.5625 -1.04076,3.68748 -0.35742,4.91602 -0.35742,4.91602 4.59759,-6.19067 6.07454,-13.58929 2.46875,-23.33008 -3.7542,-10.14168 -2.37887,-17.03476 3.23632,-28.76172 5.00831,-10.45951 6.90502,-17.13679 3.08985,-25.12891 -1.03271,-0.55923 -2.03141,-1.01317 -2.95313,-1.37695 z m 4.57227,25.07812 c 0,0 -8.48518,8.48555 -5.56836,20.41797 2.91682,11.93243 3.18279,15.37972 1.5918,21.47852 2.93344,-2.34676 4.54985,-7.40316 1.32617,-19.35742 -3.22368,-11.95427 1.0594,-19.09192 2.65039,-22.53907 z m 189.13086,6.66602 c -3.02006,4.52006 -8.76962,10.97295 -21.75,16.875 -12.98038,5.90207 -22.52181,6.66628 -27,6 -4.50634,-0.16373 -6.89453,1.06055 -6.89453,1.06055 6.06918,1.72693 18.11727,3.19816 33.09765,-3.61328 11.39135,-5.17954 18.88661,-11.76791 23.15625,-16.61719 -0.29437,-2.34222 -0.60937,-3.70508 -0.60937,-3.70508 z m -4.2207,12.86719 c 0,0 -5.56965,8.48645 -20.94922,11.93359 -15.37958,3.44715 -24.65936,3.71221 -27.57617,10.07617 5.85113,-4.25537 15.84333,-4.95171 28.10742,-7.6914 14.02738,-3.13359 19.88779,-7.03409 20.41797,-14.31836 z m -230.67774,0.95703 c -3.61559,-0.0226 -7.70402,1.5307 -11.39453,6.55078 -4.98132,6.77592 -3,12.74999 -7.6875,21.5625 -1.25209,2.63911 -1.32617,5.56836 -1.32617,5.56836 7.00931,-6.46612 6.48692,-19.00734 11.12109,-25.70898 4.13145,-5.97465 8.63022,-6.38536 12.50586,-5.51563 0.4225,-0.5668 0.86339,-1.11461 1.33594,-1.62695 -1.36627,-0.4842 -2.91124,-0.81981 -4.55469,-0.83008 z m 16.62891,0 c -1.64345,0.0103 -3.19037,0.34588 -4.55664,0.83008 4.99264,5.41313 7.29313,13.88581 4.77343,25.0039 -2.22019,9.79655 -5.87736,14.0479 -5.76953,26.05664 0.10783,12.00875 1.00549,15.19192 -2.76172,23.26758 -1.66775,4.13117 -1.32617,5.83399 -1.32617,5.83399 5.09303,-6.21951 7.5195,-13.98847 6.51758,-25.44922 -1.00192,-11.46076 2.7886,-17.73812 5.15234,-26.99805 2.36375,-9.25993 2.38465,-17.26392 -1.8125,-24.5332 0,0 4.15022,3.11 5.76563,12.5332 1.59099,9.28077 0.52975,15.37835 -3.71289,25.18945 -4.02837,9.31559 -3.71312,20.68314 -1.5918,24.92579 0,-10e-6 -1.59041,-12.19694 3.71289,-24.39454 5.3033,-12.19759 6.09881,-27.5771 0,-37.12304 0,0 4.24346,1.32469 6.09961,10.60547 0,-0.26518 1.59076,-5.56734 -2.38672,-10.60547 0,0 1.90665,0.80131 4.04102,2.51562 -0.23354,-0.36735 -0.47684,-0.73585 -0.75,-1.10742 -3.69051,-5.02008 -7.77894,-6.57339 -11.39453,-6.55078 z M 117.625,253 c 0,0 5.85364,8.983 18.31641,12.69531 12.46276,3.71231 19.62304,1.32617 19.62304,1.32617 0,0 -11.13764,-1.32583 -20.68359,-4.50781 C 125.33494,259.33169 117.625,253 117.625,253 Z m 207.02539,5.53516 c -4.24264,2.65164 -5.59416,4.78652 -6.89453,15.11523 -1.30037,10.32871 -5.87418,13.27912 -8.75,14.84961 6.0988,0.26516 9.94715,-4.96755 10.87109,-13.78906 0.92395,-8.82151 2.51378,-12.78629 4.77344,-16.17578 z m -205.41406,2.38672 c 0,0 1.97741,6.20912 14.58398,12.19726 12.60662,5.98814 19.0918,4.50781 19.0918,4.50781 0,0 -11.60596,-2.95758 -19.88672,-7.68945 -8.28079,-4.73187 -13.78906,-9.01562 -13.78906,-9.01562 z m -1.32617,4.77343 c 0,0 7.48483,18.22803 26.78125,24.66016 19.29637,6.43213 29.96289,3.44726 29.96289,3.44726 0,0 -18.29554,-1.06044 -31.02344,-6.6289 -12.72794,-5.56847 -25.7207,-21.47852 -25.7207,-21.47852 z M 167.375,302.125 c 0,0 0.41799,7.875 -10.08203,11.25 -10.49998,3.375 -25.875,-2.625 -25.875,-2.625 0,0 -2.17964,19.01695 17.64648,23.81836 -9.84838,-4.86557 -14.79344,-12.56152 -14.99609,-20.37109 0,0 11.25391,5.84793 23.75391,1.83007 12.50006,-4.01786 12.73437,-13.90234 12.73437,-13.90234 z m 349.25,11.25 c -10.5,-3.375 -10.08203,-11.25 -10.08203,-11.25 0,0 -0.85527,9.65992 10.61328,13.37109 6.9963,2.26398 18.75182,1.0335 25.28711,-0.66015 0.20586,-2.15901 0.26678,-3.72975 0.0566,-4.08594 -1.93094,0.61128 -16.04137,5.78581 -25.87501,2.625 z m -336.25195,-6.08203 c -2.33677,0.0994 -8.10501,1.09307 -16.85547,7.45703 -11.66725,8.48528 -21.47656,4.77344 -21.47656,4.77344 2.12129,3.18198 13.52199,4.50906 22.80273,-2.65039 9.28078,-7.15946 16.70508,-9.54688 16.70508,-9.54688 0,0 -0.39686,-0.0663 -1.17578,-0.0332 z m 327.94922,6.17578 c 0,0 4.50725,8.08732 14.31835,8.88281 9.81111,0.7955 14.58399,-4.77148 14.58399,-4.77148 0,0 -18.03058,7.42335 -28.90234,-4.11133 z m -325.89844,1.6543 c -11.86012,0.18207 -20.76172,8.11328 -20.76172,8.11328 7.12687,-2.85075 16.39323,-7.61893 31.28906,-6.09961 -3.6543,-1.50813 -7.20651,-2.06465 -10.52734,-2.01367 z m 8.26953,13.86523 -2.65039,2.38672 c 0,0 0.37491,9.375 -10.875,14.25 -11.24999,4.875 -24,-0.375 -24,-0.375 0,0 3.04352,16.83976 21.24609,23.06641 -15.46246,-6.92945 -17.79883,-19.88477 -17.79883,-19.88477 0,0 11.1129,4.3492 22.40821,-0.41992 11.24938,-4.74975 11.6548,-15.25424 11.66992,-19.02344 z M 485.875,331.375 c 0,0 -1.90625,11.32839 10.34375,16.63672 8.83713,3.82942 18.90478,1.39079 23.84375,-0.26758 0.49912,-1.51974 0.6875,-2.49414 0.6875,-2.49414 0,0 -12.75,5.25 -24,0.375 -11.25001,-4.875 -10.875,-14.25 -10.875,-14.25 z m -293.71875,5.11914 c 0,0 -1.32493,6.89397 -8.48437,12.19727 -7.15945,5.3033 -16.70704,3.97851 -16.70704,3.97851 0,0 10.87216,4.50654 19.35743,-1.85742 8.4853,-6.36396 5.83398,-14.31836 5.83398,-14.31836 z m 294.42187,7.07227 c 0,0 0.53046,7.95485 7.95508,10.07617 7.42462,2.12132 15.64453,-1.85742 15.64453,-1.85742 0,0 -18.56147,3.18334 -23.59961,-8.21875 z m -274.07031,13.50195 c 0,0 -0.45545,1.61597 -1.58984,3.18164 0,0 1.875,6.375 -7.125,12 -9,5.625 -20.625,6.75 -20.625,6.75 3.15647,3.12371 6.80189,5.44439 11.98633,6.35156 -2.85795,-1.30563 -5.21697,-3.04825 -7.21485,-5.02539 0,0 8.2383,0.29551 18.23828,-6.75 10.00003,-7.04549 6.33008,-16.50781 6.33008,-16.50781 z M 463,360.25 c 0,0 -3.40625,9.19727 6.59375,15.44727 6.51999,4.07502 14.48305,4.9058 19.2793,4.99804 0.64665,-0.53546 1.27277,-1.0974 1.87695,-1.69531 0,0 -11.625,-1.125 -20.625,-6.75 -9,-5.625 -7.125,-12 -7.125,-12 z m -248.74609,6.65039 c -5.30332,10.6066 -17.76758,13.78906 -17.76758,13.78906 0,0 4.2445,2.12008 10.07812,-1.85742 5.83363,-3.97746 6.89398,-8.21933 7.68946,-11.93164 z m 19.55664,23.12891 c -6.61307,0.17289 -13.00196,2.12694 -22.14258,6.3457 -14.625,6.75001 -26.625,0.75 -26.625,0.75 0,0 2.32426,6.22112 11.04687,9.41016 -4.52293,-2.66638 -6.00976,-5.69727 -6.00976,-5.69727 0,0 10.19724,3.3035 22.82226,-2.52344 12.62499,-5.82693 22.28558,-9.07765 38.38282,-2.83984 -1.37825,-1.29392 -3.26617,-2.85179 -4.6875,-3.9375 -4.77085,-1.07355 -8.81927,-1.61155 -12.78711,-1.50781 z m 206.29492,0 c -3.96784,-0.10374 -8.0143,0.43426 -12.78516,1.50781 -7.36378,2.50492 -11.13867,4.77344 -11.13867,4.77344 19.88174,-4.98414 29.58789,-4.56447 44.21289,2.18554 10.89089,5.02658 20.89618,4.31873 26.62109,1.64844 1.35455,-1.71271 1.85938,-3.01953 1.85938,-3.01953 0,0 -12,6.00001 -26.625,-0.75 -9.14062,-4.21876 -15.53147,-6.17281 -22.14453,-6.3457 z m -206.45117,3.64843 c -4.19715,-0.005 -8.50304,1.18839 -13.65625,3.7168 -8.64707,4.24267 -14.45107,5.56836 -18.29493,5.56836 0,0 5.89401,2.58056 16.70508,-2.38672 10.81111,-4.96724 18.03001,-6.36443 25.18946,-4.77344 -3.48028,-1.39213 -6.67891,-2.12079 -9.94336,-2.125 z m -57.23633,19.57032 c 0,5.11324 0.90986,11.10122 10.25,17.33593 -4.2237,-4.26631 -6.29114,-8.54021 -6.80274,-13.09375 5.76114,4.55925 12.59206,5.93008 25.35938,1.45508 12.76732,-4.475 19.86911,-4.23209 29.16992,-2.30469 9.30081,1.92741 8.30629,5.8157 15.40039,5.13868 -4.11367,-1.09164 -4.5628,-1.51202 -9.15039,-6.29297 -12.29673,-2.51838 -19.69428,-2.0307 -30.85156,-0.36328 -11.15728,1.66749 -21.78009,8.9699 -33.375,-1.875 z m 321.08203,0 c -11.59491,10.8449 -22.21771,3.54249 -33.375,1.875 -11.15729,-1.66742 -18.55483,-2.1551 -30.85156,0.36328 l -2.12305,2.12109 c 12.29674,-2.51837 24.20289,-2.56072 36.95117,0.96289 11.24583,3.10834 21.48793,5.68544 28.94727,-0.50195 0.36298,-1.67343 0.45117,-3.28718 0.45117,-4.82031 z m -47.25,3.71484 c -1.6045,-0.0265 -3.31269,0.0646 -5.30273,0.23047 10.45989,1.65158 14.34113,3.74603 22.80468,6.89453 12.1842,4.53256 17.76563,0 17.76563,0 0,0 -7.38599,2.16924 -18.82617,-2.65234 -7.7481,-3.26557 -11.62792,-4.3932 -16.44141,-4.47266 z m -228.40625,0.66016 c -5.53533,0.1657 -11.30309,1.8228 -17.13672,4.34179 -11.66725,5.03815 -19.88672,1.5918 -19.88672,1.5918 0,0 3.56787,4.87064 14.31836,2.91602 10.75045,-1.95462 20.15279,-10.87129 38.44922,-4.24219 -4.90556,-3.44714 -10.20881,-4.77313 -15.74414,-4.60742 z m -0.0762,17.96875 c 0,0 -3.2228,1.32365 -7.09961,1.65625 -3.1844,1.5922 -6.80122,3.28464 -24.375,2.25 -17.57375,-1.03465 -24.47649,1.39502 -32.625,9.375 -8.04129,7.87502 -13.74381,8.73437 -19.85742,8.73437 2.20044,3.96081 6.1268,8.03683 14.13086,8.16992 -4.53512,-1.16333 -7.13623,-3.80617 -9.0918,-6.04882 6.11361,0 10.70004,-2.39674 18.79492,-10.32422 8.09492,-7.92752 15.25632,-8.4953 31.83008,-7.51953 16.57376,0.97579 23.89258,-2.12676 28.29297,-6.29297 z m 232.70898,1.65625 c 5.18441,2.59219 10.51414,5.67136 28.08789,4.63672 17.57375,-1.03465 24.53011,1.44751 32.625,9.375 6.6118,6.47509 12.4768,8.37586 19.46875,8.5664 0.55095,-0.72627 1.0335,-1.47397 1.44727,-2.21875 -6.11363,0 -11.81417,-0.85935 -19.85547,-8.73437 -8.14848,-7.97998 -15.05125,-10.40965 -32.625,-9.375 -17.57375,1.03464 -21.19059,-0.6578 -24.375,-2.25 -2.75589,-0.008 -4.77344,0 -4.77344,0 z m -0.42578,3.98633 c 0,0 7.05068,8.8208 27.04688,6.89453 19.99619,-1.92628 27.84179,3.71289 27.84179,3.71289 0,0 -5.04733,-7.3526 -22.00781,-6.36524 -16.06309,0.93513 -17.87773,2.18641 -32.88086,-4.24218 z m -269.11523,1.79687 c -7.49511,-0.0279 -12.42681,1.79676 -16.73243,5.27539 -6.88898,5.56581 -10.59885,8.87853 -15.11523,11.13672 4.59432,-0.53034 10.22837,-3.44717 17.23633,-9.01563 7.00796,-5.56845 12.7275,-6.36533 31.28906,-5.30468 -6.76171,-1.39211 -12.18067,-2.07504 -16.67773,-2.0918 z m 8.58789,22.78711 c 0.39649,0.34673 0.79032,0.70091 1.16992,1.0918 0,0 -0.40147,-0.49212 -1.16992,-1.0918 z m 1.16992,1.0918 c -8.28597,-2.76201 -26.38652,-0.88459 -41.72656,16.66406 -15.87527,18.16101 -24.17384,20.42383 -35.79883,14.42383 0,0 0.96694,8.02578 9.25781,10.80664 -3.42555,-3.09567 -4.75,-6.83008 -4.75,-6.83008 10.4205,3.64191 18.86499,-0.54556 34.47266,-18.40039 15.60767,-17.85483 32.11442,-17.03935 40.40039,-14.27734 0,-10e-6 -0.66205,-1.10089 -1.85547,-2.38672 z m 292.38867,-1.0293 c -3.10187,-0.0617 -5.78593,0.3388 -7.85742,1.0293 -5.85145,2.87198 -7.95508,4.77343 -7.95508,4.77343 12.14399,-4.5346 34.97462,-4.95098 49.68164,11.89063 -11.50503,-13.16149 -24.56352,-17.50821 -33.86914,-17.69336 z m 33.86914,17.69336 c 14.09928,16.14566 23.84771,23.24915 34.62305,18.0918 0.96836,-2.03908 1.17578,-3.66797 1.17578,-3.66797 -11.625,6 -19.92357,3.73718 -35.79883,-14.42383 z M 193.6582,472.70117 c 0,0 -4.65301,1.35263 -14.31836,1.32617 -8.99353,-0.0239 -16.36183,3.04983 -21.47851,11.66602 5.3729,-5.1538 10.91368,-8.71448 21.21289,-9.2793 12.12193,-0.66474 14.58398,-3.71289 14.58398,-3.71289 z m 299.31641,1.4668 c -7.82196,0.045 -14.55236,1.95494 -21.42188,1.00781 11.91065,4.75544 14.1697,-0.0506 27.04688,1.5918 12.87718,1.64239 22.53906,10.33984 22.53906,10.33984 0,0 -3.51757,-7.58171 -16.70703,-11.40039 -4.12171,-1.19333 -7.90159,-1.55952 -11.45703,-1.53906 z m -14.9707,6.48828 c 2.83084,2.26469 8.80937,3.17563 20.68359,3.44727 11.87422,0.27174 22.00781,7.1582 22.00781,7.1582 -0.54581,-1.63744 -9.37625,-10.36296 -22.27343,-9.54492 -12.89719,0.81804 -20.41797,-1.06055 -20.41797,-1.06055 z m -310.33203,10.60547 c 0,0 -9.77319,-0.16571 -17.87891,14.23633 0,0 -4.50001,8.625 -19.125,11.625 0.90177,1.35266 3.66826,3.58613 7.76367,4.94531 -1.78933,-1.89692 -3.16992,-3.59375 -3.16992,-3.59375 7.19852,-0.83067 13.03106,-5.26355 17.29297,-11.93555 4.26191,-6.672 6.89705,-11.56501 15.11719,-15.27734 z m -16.97071,1.5918 c 0,0 -5.03698,5.56906 -10.60547,8.2207 -5.56845,2.65164 -11.66797,3.44726 -11.66797,3.44726 0,0 1.85744,2.65119 10.87305,-0.26562 9.01561,-2.91681 11.40039,-11.40234 11.40039,-11.40234 z m 187.58399,1.76562 c 0,0 -1.33641,0.94895 -1.32618,2.12109 0,0 6.69554,8.48531 4.57422,22.53907 -2.12132,14.05375 -3.65287,28.2235 1.06055,43.75195 4.59702,15.14498 15.86589,20.14323 20.15234,21.21484 -8.15673,-4.85204 -14.6657,-11.74928 -17.47656,-21.00976 -5.23621,-17.25079 -3.5933,-30.52649 -1.375,-45.22266 2.21829,-14.6962 -5.60937,-23.39453 -5.60937,-23.39453 z m 6.87109,8.39844 c 0,0 4.77286,7.42476 1.06055,21.47851 -3.71231,14.05376 -3.18106,24.66053 0.53125,35.00196 -1.32755,-10.35436 -2.45445,-19.55761 1.06054,-32.88086 4.2569,-16.1353 1.85547,-17.50082 -2.65234,-23.59961 z m -172.19727,9.66992 -2.91601,1.06055 c 0,0 -4.00473,13.75116 -14.61133,21.17578 -10.6066,7.42462 -23.59961,5.83398 -23.59961,5.83398 0,0 5.1978,17.40028 21.88672,15.91016 -10.75945,-2.54034 -15.85277,-8.34711 -17.91016,-12.99219 0,0 11.72736,0.16951 23.33399,-7.95508 11.60659,-8.12466 13.8164,-23.0332 13.8164,-23.0332 z m -1.39648,12.69336 c -14.05376,19.88738 -30.23047,18.82617 -30.23047,18.82617 0,0 1.85719,2.65154 8.48633,1.06055 6.62914,-1.59099 18.56216,-8.74978 21.74414,-19.88672 z m 133.95898,4.15625 1.9375,2.73633 c 4.7385,2.50182 9.84586,11.35694 10.60743,23.86328 0.72398,11.88922 -2.89685,22.25216 -6.89453,28.10937 1.18915,-0.29728 2.92407,-0.9149 4.89648,-1.94921 3.00832,-6.0771 5.17692,-14.17944 4.46484,-25.87305 -0.95031,-15.60597 -7.72618,-25.42658 -15.01172,-26.88672 z m 64.38282,0.87891 c 0,0 -1.58916,0.35313 -3.44532,1.85742 0,0 -10.0765,16.43949 -2.38671,38.97851 2.77957,8.14697 6.84107,13.37421 10.89453,16.74024 -2.79224,-4.05501 -6.07084,-9.8989 -8.77344,-17.80078 C 360.2,552.668 367.8778,534.46903 369.9043,530.41602 Z m 148.58203,4.50781 c 8.27651,6.99335 16.98495,8.73671 22.57031,8.43359 0.71374,-1.55034 1.0293,-2.59961 1.0293,-2.59961 0,0 -12.99301,1.59064 -23.59961,-5.83398 z m -202.67383,0.44531 c 0,0 8.48414,10.87158 6.09766,29.16797 0,0 2.91704,-3.18361 2.38672,-12.19922 -0.53034,-9.01561 -5.03724,-15.11259 -8.48438,-16.96875 z m 54.88867,4.24219 c 0,0 -5.56904,10.07675 -3.71289,22.80469 1.85616,12.72793 6.89453,17.23437 6.89453,17.23437 0,0 -4.77343,-8.96664 -4.77343,-20.41797 0,-11.66725 1.59179,-19.62109 1.59179,-19.62109 z m -177.08594,1.9414 c 0,0 2.38625,4.50918 -11.40234,9.8125 -13.78859,5.30329 -26.7823,16.70511 -26.25195,34.73633 0.53034,18.03122 8.75137,25.98589 18.5625,30.22852 0,0 -0.30236,-0.99682 -0.67383,-2.57031 -9.68154,-5.86033 -15.25228,-17.56023 -14.70703,-30.57618 0.61856,-14.76604 10.87352,-24.39398 24.66211,-29.69726 13.78858,-5.30332 9.81054,-11.9336 9.81054,-11.9336 z m -1.72461,10.43165 c -3.6012,3.21399 -5.64562,2.4763 -14.8496,6.89453 -9.30146,4.46502 -18.29527,18.03267 -15.11329,32.35156 1.57679,-13.26739 3.11086,-19.54639 11.13672,-26.25195 9.22564,-7.70794 17.37801,-6.77403 18.82617,-12.99414 z m 85.64454,2.40234 1.99414,2.54687 c 0,0 5.92107,0.53037 8.83789,13.52344 2.91681,12.99311 -3.71289,23.59961 -3.71289,23.59961 0,0 1.80975,-0.0374 4.50586,-0.81641 1.94738,-5.29692 3.81662,-13.23058 2.03515,-21.61914 -3.13648,-14.7688 -9.76558,-17.26461 -13.66015,-17.23437 z m 8.7539,1.04492 c 0,0 5.83524,5.83481 7.69141,16.44141 1.85612,10.6066 -0.53125,14.58398 -0.53125,14.58398 0,0 5.3025,-2.12076 2.91601,-14.31836 -2.35588,-12.04112 -10.07617,-16.70703 -10.07617,-16.70703 z m 109.79102,0.58203 c -0.52985,0.006 -1.18579,0.19424 -1.69141,0.91992 -2.02169,4.54882 -5.60307,20.08886 3.71289,35.26563 5.39144,8.78326 12.38628,13.50106 18.26172,15.93555 2.96799,-3.96932 -10.54129,-19.96926 -16.75976,-35.29493 -0.33753,-2.33947 -0.61816,-4.79785 -0.79493,-7.41992 0,0 -0.24466,1.68956 -0.36523,4.31641 -1.62092,-4.80681 -2.35734,-9.46013 -1.42969,-13.55274 0,0 -0.40375,-0.176 -0.93359,-0.16992 z m -147.2461,7.20117 2.85157,3.5293 c 0,0 9.92835,9.69071 7.16015,23.07031 -2.7682,13.37957 -11.40234,20.68164 -11.40234,20.68164 0.97742,0 2.3873,-0.14316 4.06445,-0.48632 3.92031,-4.35404 8.78719,-11.33403 10.24024,-20.29688 2.54899,-15.72287 -7.42676,-25.88833 -12.91407,-26.49805 z m 178.25782,0.96875 c 0,0 -4.22005,12.83375 1.06054,27.8418 5.39372,15.3295 16.44027,25.72095 22.53907,28.10742 0,0 -14.84859,-13.78853 -19.88672,-28.10742 -5.03814,-14.31893 -3.71289,-27.8418 -3.71289,-27.8418 z m -1.94336,0.17383 c 0,0 -1.43683,0.5685 -2.91797,2.38672 -4.24264,15.64475 -0.52973,35.26701 17.23633,49.58594 1.95906,1.57895 3.96697,2.90376 5.98828,4.0332 -18.98021,-16.7774 -24.8585,-35.64231 -20.30664,-56.00586 z m -166.78906,2.03516 c 0,0 6.36418,6.09893 6.89453,16.9707 0.5303,10.87177 -5.56836,18.56055 -5.56836,18.56055 0,0 5.83378,-1.85514 7.95507,-14.05274 2.12134,-12.19759 -5.56892,-19.88752 -9.28124,-21.47851 z m -31.86329,3.5332 -1.85742,0.79688 c 0,0 4.77373,5.8334 -7.42383,11.13672 -12.19759,5.30328 -12.99414,7.68856 -12.99414,20.68164 0,12.9931 -4.77149,19.88742 -9.27929,22.53906 0,0 1.19499,0.29614 3.1914,0.57617 5.21276,-4.66722 8.47461,-10.99525 8.47461,-20.72852 0,-12.99307 2.85708,-17.67057 14.05469,-22.53906 11.19757,-4.86856 5.83398,-12.46289 5.83398,-12.46289 z m 272.81055,9.2832 c 0,0 3.97634,5.03758 6.09766,14.31836 1.19124,5.2117 0.87143,9.86394 0.36718,12.99219 0.0251,-7.40136 -2.76713,-16.46864 -6.64257,-24.13086 0,0 0.35308,2.91536 -0.26563,5.83399 5.83363,11.1369 0.53125,28.10742 0.53125,28.10742 1.81527,-0.78498 3.57448,-1.69984 5.24219,-2.7793 0.45344,-1.1986 0.75677,-2.51567 0.9375,-3.91797 1.25266,-1.78834 3.66706,-6.48793 2.74805,-15.31054 -1.22166,-11.72788 -9.01563,-15.11329 -9.01563,-15.11329 z m -23.24609,1.58985 c 11.40209,5.56845 11.66601,21.47851 11.66601,21.47851 1.16441,-0.5822 2.18694,-1.21217 3.1211,-1.86132 -0.25447,-8.23844 -3.93073,-16.63742 -14.78711,-19.61719 z m -298.08985,3.97656 c 0,0 -2.54285,0.98403 -2.91797,3.44727 l 0.22852,1.33398 c 0.59904,2.63898 2.80963,8.67143 10.9082,12.7207 -9.81112,-7.95492 -8.21875,-17.50195 -8.21875,-17.50195 z m 38.22657,3.44922 c 0,0 -7.15922,5.56758 -6.62891,17.5 0.53034,11.93242 -5.83398,17.23633 -5.83398,17.23633 0,0 4.50942,-0.26499 7.6914,-7.68946 3.18199,-7.42461 -1.59248,-13.25828 4.77149,-27.04687 z"
           transform="matrix(-0.26458333,0,0,0.26458333,178.30731,0)"
           sodipodi:nodetypes="scscssccsssccsccscscscscscsscssssccssccscscscccscscccsccsccccsssccsscsccscscscscscssccccccssscsscssccssscscssscscsccsscssccssccssccccscccccccscssccsccscccsscssccsccccscscsccscsccsccsccssscsscccccssccsscccscsccsccscccscscssccsccsscssccsscssssccccsscscsccscsccscsccscsccscccsccscsccssscscscsccsccsccscccsccsccsccscsccsccccscccsccsccscccscsscccsccssccsccsssscscscccssccsccsccsccscscsssccscsccsscccssccssccsscccscscsscscsccccscccsscscccscccccccscscscsscscsccccccsccscscccsscssccscscccscccscccscccsccscccscscccccccsccscsccssccssccscscccsccsccscscscscccccsccsccsccscscccscccscscccssccssccsccccccscccccccccccscsc" />
      </g>
      <g
         id="use1043"
         transform="matrix(-0.99892349,0.04638808,0.04638808,0.99892349,173.79779,-3.8995586)"
         style="stroke-width:1.03974">
        <path
           id="path1509"
           style="font-variation-settings:normal;opacity:1;vector-effect:none;fill:#000000;fill-opacity:1;stroke:none;stroke-width:1.03974;stroke-linecap:butt;stroke-linejoin:miter;stroke-miterlimit:4;stroke-dasharray:none;stroke-dashoffset:0;stroke-opacity:1;stop-color:#000000;stop-opacity:1"
           d="m 466.86914,208.72656 -65.17383,65.08985 -1.88281,-19.39844 -31.58789,32.03711 1.86719,25.4043 -137.17383,147.17187 -1.87305,-19.30664 -31.60156,32.08008 2.40039,24.74219 -16.22266,20.33007 c 3.22771,4.47956 10.22782,13.17126 23.32227,25.10352 19.75135,17.99833 30.79492,22.86914 30.79492,22.86914 l 49.61133,-54.41602 24.85742,0.0977 29.43945,-32.2832 -20.83789,-4.53125 135.33203,-148.48828 24.85743,0.0976 29.43164,-32.27148 -20.83008,-4.54297 12.46289,-13.73047 c 1.29354,-1.41853 1.9584,-2.76489 0.91992,-4.44141 -0.80076,-1.29273 -19.56407,-31.62636 -30.08008,-48.625 z"
           transform="matrix(-0.26429851,0.01227351,0.01227351,0.26429851,173.79159,-4.1667851)" />
        <path
           id="path1773"
           style="font-variation-settings:normal;vector-effect:none;fill:#ffffff;fill-opacity:1;stroke:none;stroke-width:1.03974;stroke-linecap:butt;stroke-linejoin:miter;stroke-miterlimit:4;stroke-dasharray:none;stroke-dashoffset:0;stroke-opacity:1;stop-color:#000000"
           d="m 464.22461,206.05273 c -0.4377,0.0345 -0.94386,0.2813 -1.5332,0.83789 l -0.65039,0.70313 -60.31055,66.18359 0.51953,5.36914 64.61914,-70.41992 c -0.0546,-0.0881 -0.87947,-1.41993 -0.89648,-1.44726 -0.18526,-0.29757 -0.39041,-0.57302 -0.62305,-0.78907 -0.31794,-0.29479 -0.68731,-0.47203 -1.125,-0.4375 z m -64.93164,42.99805 -33.45508,36.74219 2.40039,24.74219 -135.32031,148.49609 0.52344,5.36523 139.41797,-152.99414 -2.39258,-24.65429 29.3457,-32.33008 z m 92.30664,39.46094 -4.02539,4.44531 24.85547,0.0977 4.05078,-4.44727 z m -261.08399,145.7539 -33.45703,36.74219 2.39844,24.74414 -16.125,17.69922 c 0,0 0.73068,1.24657 2.29102,3.42383 l -0.002,0.002 c 3.22771,4.47956 10.22782,13.17126 23.32227,25.10352 19.75135,17.99833 30.79492,22.86914 30.79492,22.86914 l 2.39453,-2.62695 c -3.33102,-1.7277 -13.92039,-7.80556 -30.69336,-23.08985 -12.64068,-11.5188 -19.7427,-20.06116 -23.37109,-24.9414 5.85964,-6.43137 16.01172,-17.57422 16.01172,-17.57422 l -2.39258,-24.65235 29.35742,-32.24023 z m 92.29297,39.45118 -4.04101,4.43359 24.8789,0.0977 4.04297,-4.43555 z"
           transform="matrix(-0.26429851,0.01227351,0.01227351,0.26429851,173.79159,-4.1667851)" />
        <path
           id="path1582"
           style="font-variation-settings:normal;opacity:1;vector-effect:none;fill:#cccccc;fill-opacity:1;stroke:none;stroke-width:1.03974;stroke-linecap:butt;stroke-linejoin:miter;stroke-miterlimit:4;stroke-dasharray:none;stroke-dashoffset:0;stroke-opacity:1;stop-color:#000000;stop-opacity:1"
           d="m 337.78287,339.79552 -4.6019,0.89123 59.22009,64.98978 0.81216,-5.05017 z"
           transform="matrix(-0.26429851,0.01227351,0.01227351,0.26429851,173.79159,-4.1667851)"
           sodipodi:nodetypes="ccccc" />
      </g>
      <g
         id="use1290"
         transform="rotate(2.658795,86.273336,95.210083)"
         style="stroke-width:1.03974">
        <path
           id="path1292"
           style="font-variation-settings:normal;opacity:1;vector-effect:none;fill:#000000;fill-opacity:1;stroke:none;stroke-width:1.03974;stroke-linecap:butt;stroke-linejoin:miter;stroke-miterlimit:4;stroke-dasharray:none;stroke-dashoffset:0;stroke-opacity:1;stop-color:#000000;stop-opacity:1"
           d="m 867.22465,633.92578 c 5.4389,1.13668 16.56161,2.84766 34.16601,2.84766 26.72183,0 38.16602,-3.83789 38.16602,-3.83789 v -73.63672 l 18.43945,-16.67188 0.0156,-43.6914 -18.45502,10.68554 V 308.71875 l 18.43945,-16.67187 0.0156,-43.67579 -18.45502,10.67188 -8e-5,-39.9082 -75.17578,19.4121 -0.2505,123.21744 -16.81948,-13.76032 1.4743,47.0214 14.43945,13.07813 1.54593,156.2071 -17.28106,-15.6159 1.36406,47.21739 14.37109,13.07812 z"
           transform="matrix(0.18708867,-0.18708867,0.18708867,0.18708867,-162.55288,191.14918)"
           sodipodi:nodetypes="cscccccccccccccccccccc" />
        <path
           id="path1294"
           style="font-variation-settings:normal;opacity:1;vector-effect:none;fill:#ffffff;fill-opacity:1;stroke:none;stroke-width:1.03974;stroke-linecap:butt;stroke-linejoin:miter;stroke-miterlimit:4;stroke-dasharray:none;stroke-dashoffset:0;stroke-opacity:1;stop-color:#000000;stop-opacity:1"
           d="m 863.22463,408.10352 v 151.21093 l -18.45703,-16.6875 0.0176,49.69141 18.43945,16.67187 v 23.94532 c 0,0 1.37885,0.43162 4,0.99023 v -21.4043 l -18.37109,-16.60937 -0.0176,-43.28516 18.38867,16.62305 V 411.69727 Z m -14.43945,-13.07813 -0.0176,-43.28516 18.45703,16.6875 V 243.74805 c -6.7e-4,-1.91976 0.41571,-3.36262 2.3125,-3.90235 1.83047,-0.52085 65.41547,-19.34777 70.01953,-20.71093 v -0.45508 c -7e-4,-2.03204 -0.76831,-2.59223 -1.7207,-2.58399 -0.31747,0.003 -0.65483,0.0689 -0.99219,0.16407 -1.34947,0.38071 -69.40985,19.79621 -71.30664,20.33593 -1.89679,0.53973 -2.31317,1.98259 -2.3125,3.90235 v 117.92968 l -18.45703,-16.6875 0.0176,49.69141 z m 109.22849,-152.66992 -18.45703,16.6875 0.0176,5.99805 18.4375,-16.66993 z m 0,250.57812 -18.45703,16.6875 v 6 l 18.45508,-16.68554 z"
           transform="matrix(0.18708867,-0.18708867,0.18708867,0.18708867,-162.55288,191.14918)"
           sodipodi:nodetypes="cccccccccccccccccscccssccccccccccccccc" />
      </g>
    </g>
  </g>
</svg>
