<?xml version="1.0" encoding="UTF-8" standalone="no"?>
<!-- Created with Inkscape (http://www.inkscape.org/) -->

<svg
   width="499.99997"
   height="575"
   viewBox="0 0 132.29165 152.13542"
   version="1.1"
   id="svg5"
   xml:space="preserve"
   xmlns="http://www.w3.org/2000/svg"
   xmlns:svg="http://www.w3.org/2000/svg"><defs
     id="defs2"><style
       type="text/css"
       id="style3449">
   
    .str0 {stroke:#1F1A17;stroke-width:0.72}
    .fil0 {fill:#1F1A17}
    .fil2 {fill:#C0A062}
    .fil3 {fill:#C2C1C1}
    .fil1 {fill:white}
   
  </style><style
       type="text/css"
       id="style4456">
   
    .str0 {stroke:#1F1A17;stroke-width:0.72}
    .fil0 {fill:#1F1A17}
    .fil2 {fill:#C0A062}
    .fil3 {fill:#C2C1C1}
    .fil1 {fill:white}
   
  </style></defs><path
     id="path11258"
     style="fill:#bf9f4f;fill-opacity:1;stroke:none;stroke-width:0.132292;stroke-linecap:round;stroke-linejoin:round;stroke-miterlimit:10;paint-order:markers stroke fill;stop-color:#000000"
     d="m 131.82761,93.731743 c 0.30328,-2.57374 0.46405,-5.19115 0.46405,-7.84655 V 0 H 45.298526 L 0,36.025707 v 49.859486 c 0,36.588897 29.61461,66.250217 66.145831,66.250217 12.45934,0 24.11279,-3.45249 34.062519,-9.4511 z" /><path
     id="path2089"
     style="fill:#000000;stroke:none;stroke-width:0.132292;stroke-linecap:round;stroke-linejoin:round;stroke-miterlimit:10;paint-order:markers stroke fill;stop-color:#000000"
     d="m 0,0 v 36.025707 c 6.480199,6.974761 4.560704,15.965686 11.100097,22.926246 6.56235,6.98499 15.696758,5.59306 22.259106,12.57805 6.562341,6.98497 4.603893,16.01515 11.166243,23.00014 6.56235,6.984987 15.696765,5.593067 22.259105,12.578037 6.56235,6.985 4.6039,16.01517 11.16624,23.00015 6.56167,6.98426 15.69535,5.59344 22.257559,12.57598 17.10602,-10.31309 29.16887,-28.1579 31.61926,-48.952567 -5.07024,-2.10737 -10.58799,-2.84874 -14.85956,-7.39541 -6.28352,-6.68821 -4.17218,-15.55592 -10.45569,-22.24412 -6.28353,-6.68821 -15.265549,-5.13382 -21.549069,-11.82202 -6.28354,-6.68821 -4.1727,-15.556437 -10.45621,-22.244637 C 68.223551,23.337359 59.241531,24.891744 52.958006,18.203539 47.874581,12.792723 48.283259,5.955743 45.298526,0 Z" /></svg>
