<?xml version="1.0" encoding="UTF-8" standalone="no"?>
<svg
   xmlns:dc="http://purl.org/dc/elements/1.1/"
   xmlns:cc="http://creativecommons.org/ns#"
   xmlns:rdf="http://www.w3.org/1999/02/22-rdf-syntax-ns#"
   xmlns:svg="http://www.w3.org/2000/svg"
   xmlns="http://www.w3.org/2000/svg"
   width="500"
   height="570"
   viewBox="0 0 132.29166 150.8125"
   version="1.1"
   id="svg847">
  <defs
     id="defs841" />
  <metadata
     id="metadata844">
    <rdf:RDF>
      <cc:Work
         rdf:about="">
        <dc:format>image/svg+xml</dc:format>
        <dc:type
           rdf:resource="http://purl.org/dc/dcmitype/StillImage" />
        <dc:title></dc:title>
      </cc:Work>
    </rdf:RDF>
  </metadata>
  <g
     id="layer1"
     transform="translate(-297.17883,-28.933566)">
    <g
       id="g2001"
       transform="matrix(-1.0008366,0,0,1.0003668,726.89795,-0.01061147)"
       style="stroke-width:0.999399">
      <path
         style="opacity:1;fill:#004d27;fill-opacity:1;stroke:none;stroke-width:2.99819;stroke-linejoin:round;stroke-miterlimit:4;stroke-dasharray:none;stroke-opacity:1;paint-order:fill markers stroke"
         d="m 1001.6191,357.01562 c 42.8038,76.10875 124.3195,127.53126 217.8575,127.53126 93.5378,0 175.0516,-51.42269 217.8554,-127.53126 l -217.8565,-19.99267 z"
         transform="matrix(0.26458333,0,0,0.26458333,40.616199,51.487743)"
         id="path1944" />
      <path
         style="opacity:1;fill:#004d27;fill-opacity:1;stroke:none;stroke-width:2.99819;stroke-linejoin:round;stroke-miterlimit:4;stroke-dasharray:none;stroke-opacity:1;paint-order:fill markers stroke"
         d="M 1469.2676,234.75391 V -85.244141 H 969.68555 V 234.75391 l 25.49995,12.83593 h 448.5821 z"
         transform="matrix(0.26458333,0,0,0.26458333,40.616199,51.487743)"
         id="path1737" />
      <path
         id="path1755"
         style="font-variation-settings:normal;opacity:1;vector-effect:none;fill:#d9d9d9;fill-opacity:1;stroke:none;stroke-width:0.4997;stroke-linecap:butt;stroke-linejoin:miter;stroke-miterlimit:4;stroke-dasharray:none;stroke-dashoffset:0;stroke-opacity:1;stop-color:#000000;stop-opacity:1"
         d="m 1441.1973,223.44727 c -22.4389,0 -32.9909,22.14257 -55.4297,22.14257 -22.4389,0 -32.9909,-22.14257 -55.4297,-22.14257 -22.4388,0 -32.9928,22.14257 -55.4317,22.14257 -22.4388,0 -32.9908,-22.14257 -55.4296,-22.14257 -22.4388,0 -32.9909,22.14257 -55.4297,22.14257 -22.4389,0 -32.9929,-22.14257 -55.4317,-22.14257 -22.4388,0 -32.9908,22.14257 -55.4297,22.14257 -22.4387,0 -32.9928,-22.14257 -55.43159,-22.14257 -11.37955,0 -19.70212,5.69304 -28.06836,11.30761 0,44.4187 11.60766,86.11952 31.93355,122.26074 19.8632,2.3219 30.4569,21.91407 51.5664,21.91407 22.4389,0 32.9909,-22.14258 55.4297,-22.14258 22.4388,0 32.9928,22.14258 55.4317,22.14258 22.4388,0 32.9909,-22.14258 55.4297,-22.14258 22.4388,0 32.9908,22.14258 55.4296,22.14258 22.4389,0 32.9929,-22.14258 55.4317,-22.14258 22.4388,0 32.9908,22.14258 55.4297,22.14258 21.1088,0 31.7025,-19.59114 51.5644,-21.91407 20.3261,-36.1413 31.9356,-77.8419 31.9356,-122.26074 -8.3667,-5.61483 -16.6902,-11.30761 -28.0703,-11.30761 z"
         transform="matrix(0.26458333,0,0,0.26458333,40.616199,51.487743)" />
      <path
         id="path1861"
         style="font-variation-settings:normal;opacity:1;vector-effect:none;fill:#d9d9d9;fill-opacity:1;stroke:none;stroke-width:0.132212;stroke-linecap:butt;stroke-linejoin:miter;stroke-miterlimit:4;stroke-dasharray:none;stroke-dashoffset:0;stroke-opacity:1;stop-color:#000000;stop-opacity:1"
         d="m 414.77164,38.943806 c 1.9513,0 4.15136,1.143199 4.04008,2.692859 -0.0505,0.702993 -0.56531,7.872274 -1.10123,15.335498 h -5.87716 c -0.53591,-7.463224 -1.05074,-14.632505 -1.10122,-15.335498 -0.11128,-1.54966 2.08822,-2.692859 4.03953,-2.692859 z m 2.09446,29.786295 c -0.14724,2.050204 -0.48215,6.711735 -0.48215,6.711735 h -3.2241 c 0,0 -0.31346,-4.361938 -0.43717,-6.0849 z M 311.7671,38.943806 c -1.95131,0 -4.15137,1.143199 -4.04009,2.692859 0.0505,0.702993 0.56531,7.872274 1.10123,15.335498 h 5.87716 c 0.53591,-7.463224 1.05074,-14.632505 1.10122,-15.335498 0.11129,-1.54966 -2.08822,-2.692859 -4.03952,-2.692859 z m -2.09447,29.786295 c 0.14724,2.050204 0.48215,6.711735 0.48215,6.711735 h 3.2241 c 0,0 0.31346,-4.361938 0.43718,-6.0849 z M 422.66212,57.501329 v 9.82214 l -13.37077,2.023649 -1.54512,6.094718 c 0,0 -1.23192,0.304363 -3.28972,0.762744 l -3.80545,8.275982 -3.14452,-6.838344 c -0.54874,0.105903 -1.09215,0.210627 -1.67328,0.318844 l -3.8659,8.407754 -3.30057,-7.176822 c -0.61762,0.09683 -1.24251,0.192095 -1.87638,0.286289 l -4.03645,8.778791 -3.5786,-7.78247 c -0.68381,0.07654 -1.37046,0.149571 -2.06084,0.219109 l -4.1026,8.922451 -3.82405,-8.315253 c -0.58375,0.02912 -1.16626,0.05319 -1.74771,0.07441 l -4.17081,9.070763 -4.17078,-9.070763 c -0.58158,-0.02123 -1.16383,-0.04528 -1.74771,-0.07441 l -3.82355,8.315253 -4.1031,-8.922451 c -0.69006,-0.06951 -1.37681,-0.142602 -2.06034,-0.219109 l -3.5791,7.78247 -4.03645,-8.778791 c -0.63373,-0.09418 -1.25889,-0.189484 -1.87637,-0.286289 l -3.30007,7.176822 -3.86641,-8.407754 c -0.58089,-0.108175 -1.12424,-0.212981 -1.67278,-0.318844 l -3.14502,6.838344 -3.80545,-8.275982 c -2.05766,-0.458351 -3.28972,-0.762744 -3.28972,-0.762744 l -1.54461,-6.094718 -13.37128,-2.023649 v -9.82214 z" />
    </g>
  </g>
</svg>
