<?xml version="1.0" encoding="UTF-8" standalone="no"?>
<!-- Created with Inkscape (http://www.inkscape.org/) -->

<svg
   xmlns:dc="http://purl.org/dc/elements/1.1/"
   xmlns:cc="http://creativecommons.org/ns#"
   xmlns:rdf="http://www.w3.org/1999/02/22-rdf-syntax-ns#"
   xmlns:svg="http://www.w3.org/2000/svg"
   xmlns="http://www.w3.org/2000/svg"
   xmlns:xlink="http://www.w3.org/1999/xlink"
   xmlns:sodipodi="http://sodipodi.sourceforge.net/DTD/sodipodi-0.dtd"
   xmlns:inkscape="http://www.inkscape.org/namespaces/inkscape"
   width="359.02432"
   height="628.45422"
   id="svg2"
   version="1.1"
   inkscape:version="0.48.5 r10040"
   sodipodi:docname="New document 88">
  <defs
     id="defs4" />
  <sodipodi:namedview
     id="base"
     pagecolor="#f6f3f1"
     bordercolor="#666666"
     borderopacity="1.0"
     inkscape:pageopacity="0"
     inkscape:pageshadow="2"
     inkscape:zoom="0.98994949"
     inkscape:cx="131.78218"
     inkscape:cy="307.11921"
     inkscape:document-units="px"
     inkscape:current-layer="g4903"
     showgrid="false"
     showborder="true"
     inkscape:window-width="1920"
     inkscape:window-height="1017"
     inkscape:window-x="-8"
     inkscape:window-y="-8"
     inkscape:window-maximized="1"
     inkscape:showpageshadow="false"
     fit-margin-top="0"
     fit-margin-left="0"
     fit-margin-right="0"
     fit-margin-bottom="-0.2" />
  <metadata
     id="metadata7">
    <rdf:RDF>
      <cc:Work
         rdf:about="">
        <dc:format>image/svg+xml</dc:format>
        <dc:type
           rdf:resource="http://purl.org/dc/dcmitype/StillImage" />
        <dc:title></dc:title>
      </cc:Work>
    </rdf:RDF>
  </metadata>
  <g
     inkscape:label="Layer 1"
     inkscape:groupmode="layer"
     id="layer1"
     transform="translate(-34.77355,-127.17471)">
    <g
       id="g4903"
       inkscape:label="rauman kaupunki Graafinen ohjeisto"
       transform="matrix(1.25,0,0,-1.25,-288.9397,968.19056)">
      <path
         id="path4913"
         style="fill:#006cb7;fill-opacity:1;fill-rule:nonzero;stroke:none"
         d="m 544.19007,553.36745 -141.61723,0 -141.60224,0 0,-294.97032 c 0.54844,-8.18649 2.04391,-12.7518 6.50635,-19.73421 4.83106,-7.57399 8.78402,-11.1623 16.80981,-15.142 l 118.28608,-51.63161 118.28608,51.63161 c 8.03479,3.9797 11.97876,7.56801 16.8248,15.142 4.43846,6.98241 5.95491,11.54772 6.50635,19.73421 l 0,294.97032 z"
         inkscape:connector-curvature="0" />
      <path
         id="path4917"
         style="fill:none;stroke:#006cb7;stroke-width:1.12815177;stroke-linecap:butt;stroke-linejoin:miter;stroke-miterlimit:3.86400008;stroke-opacity:1;stroke-dasharray:none"
         d="m 544.19007,553.36745 -141.61723,0 -141.60224,0 0,-294.97032 c 0.54844,-8.18649 2.04391,-12.7518 6.50635,-19.73421 4.83106,-7.57399 8.78402,-11.1623 16.80981,-15.142 l 118.28608,-51.63161 118.28608,51.63161 c 8.03479,3.9797 11.97876,7.56801 16.8248,15.142 4.43846,6.98241 5.95491,11.54772 6.50635,19.73421 l 0,294.97032 z"
         inkscape:connector-curvature="0" />
      <path
         id="path4923"
         style="fill:#ffc20e;fill-opacity:1;fill-rule:nonzero;stroke:#000000;stroke-width:3.20000005;stroke-miterlimit:4;stroke-dasharray:none"
         d="m 261.20004,409.82127 0,-35.32434 123.72128,0 0,-194.49338 17.65191,-7.7066 17.67536,7.7066 0,194.49338 123.67475,0 0,35.32434 -123.67475,0 0,143.06198 -35.32727,0 0,-143.06198 z"
         inkscape:connector-curvature="0"
         sodipodi:nodetypes="cccccccccccccc" />
      <g
         id="g7182">
        <path
           style="font-size:medium;font-style:normal;font-variant:normal;font-weight:normal;font-stretch:normal;text-indent:0;text-align:start;text-decoration:none;line-height:normal;letter-spacing:normal;word-spacing:normal;text-transform:none;direction:ltr;block-progression:tb;writing-mode:lr-tb;text-anchor:start;baseline-shift:baseline;color:#000000;fill:#ffc20e;fill-opacity:1;stroke:#000000;stroke-width:2.4000001;marker:none;visibility:visible;display:inline;overflow:visible;enable-background:accumulate;font-family:Sans;-inkscape-font-specification:Sans"
           d="m 320.82351,442.11215 17.12373,17.36751 c 0,0 -2.20088,0.038 -7.79491,0 -5.59403,-0.038 -7.8906,3.03874 -7.90572,10.36495 -0.0151,7.32621 -0.14111,31.05602 -0.14111,31.05602 l 4.3954,4.57854 6.18493,-6.14305 c -2.53287,-2.7236 -4.95659,-6.76097 -2.29302,-10.97246 2.66357,-4.2115 8.12184,-5.13912 11.21509,-2.36426 3.09324,2.77487 10.53284,10.22335 10.53284,10.22335 -4.07647,-0.58432 -8.27783,1.08388 -10.21405,4.39536 -1.93621,3.31148 -0.9501,6.80144 1.69797,9.71431 l -11.08006,11.44635 -11.62949,-11.44635 -11.99577,11.62949 -11.35478,-11.62949 11.26321,-11.53792 0.0916,-32.69076 -6.13524,-6.22681 z"
           id="path5085"
           inkscape:connector-curvature="0"
           sodipodi:nodetypes="cczzccczzczccccccccc" />
        <use
           height="1052.3622"
           width="744.09448"
           transform="translate(158.50739,0)"
           id="use7140"
           xlink:href="#path5085"
           y="0"
           x="0" />
        <use
           x="0"
           y="0"
           xlink:href="#path5085"
           id="use7154"
           transform="translate(158.50739,-179.20616)"
           width="744.09448"
           height="1052.3622" />
        <use
           height="1052.3622"
           width="744.09448"
           transform="translate(0,-179.20616)"
           id="use7168"
           xlink:href="#path5085"
           y="0"
           x="0" />
      </g>
      <path
         inkscape:connector-curvature="0"
         d="m 544.19007,553.36743 -141.61723,0 -141.60224,0 0,-294.97031 c 0.54844,-8.18648 2.04391,-12.75179 6.50635,-19.7342 4.83106,-7.57399 8.78402,-11.16231 16.80981,-15.142 l 118.28608,-51.63162 118.28608,51.63162 c 8.03479,3.97969 11.97876,7.56801 16.8248,15.142 4.43846,6.98241 5.95491,11.54772 6.50635,19.7342 l 0,294.97031 z"
         style="fill:none;stroke:#000000;stroke-width:4;stroke-miterlimit:4;stroke-dasharray:none"
         id="path7208" />
      <g
         id="g5531"
         transform="translate(0.30530712,-4.3407538)">
        <path
           sodipodi:nodetypes="cccccccccccccccccccccccccccccccccccccccccccccccccccccccccccccccccccccccccccccccccccc"
           id="path6653"
           style="fill:#ffc20e;fill-opacity:1;fill-rule:nonzero;stroke:#000000;stroke-width:2.4000001;stroke-miterlimit:4;stroke-dasharray:none"
           d="m 532.0857,559.14701 0,99.69342 c 1.09299,2.94492 2.14202,4.54484 4.58,6.52277 2.03654,1.67025 3.45772,2.38524 5.99533,3.01231 -2.18012,5.23639 -6.76306,8.01428 -12.38623,7.52199 -5.02541,-0.41902 -8.49777,-2.9918 -10.37021,-7.67143 l -4.00567,0 c -0.009,-5.44443 0.70912,-8.68823 3.00645,-13.64331 2.30319,-4.94922 4.33679,-7.59818 8.51828,-11.09398 l -0.85607,-4.46584 -2.93809,0.33416 c -3.36395,3.69214 -6.81873,6.19458 -10.09183,7.8326 -6.85682,3.43134 -7.69781,3.11487 -14.79198,4.23716 l 0,-5.10745 -6.38798,-10.51965 6.38798,-11.10277 -0.14358,-4.95215 c 6.41728,0.30768 10.22955,1.45341 15.79119,4.68257 3.99981,2.32956 6.10374,4.1053 9.09554,7.65678 l 3.04275,0.74481 0.9049,-4.05519 c -4.21958,-12.76424 -15.31467,-21.93678 -28.72063,-21.27161 -12.7027,0.66224 -22.45083,8.33363 -26.53652,21.66352 l -9.24198,0 c -3.97802,-14.40895 -16.22491,-23.14917 -30.1085,-21.95069 -12.61479,1.07248 -21.6488,8.76442 -24.70213,21.06274 l -0.91582,3.82562 3.88418,-0.0192 c 2.9918,-3.55148 5.09573,-5.32722 9.09554,-7.65678 5.56164,-3.22916 9.37391,-4.37489 15.79119,-4.68257 l -0.14358,4.95215 6.38798,11.10277 -6.38798,10.51965 0,5.10745 c -7.09417,-1.12229 -7.93516,-0.80582 -14.79198,-4.23716 -3.2731,-1.63802 -6.72788,-4.14046 -10.09183,-7.8326 l -4.46394,0.45275 -0.39151,4.39098 c 3.4753,2.78375 5.83709,4.43056 7.56595,8.53586 2.69584,6.39384 3.53683,9.53508 4.98145,16.3626 l -5.25397,0 -11.11891,6.50226 -11.11891,-6.50226 -5.25397,0 c 1.44462,-6.82752 2.28561,-9.96876 4.98145,-16.3626 1.72886,-4.1053 4.09065,-5.75211 7.56595,-8.53586 l -0.39151,-4.39098 -4.46394,-0.45275 c -3.36395,3.69214 -6.81873,6.19458 -10.09183,7.8326 -6.85682,3.43134 -7.69781,3.11487 -14.79198,4.23716 l 0,-5.10745 -6.38798,-10.51965 6.38798,-11.10277 -0.14358,-4.95215 c 6.41728,0.30768 10.22955,1.45341 15.79119,4.68257 3.99981,2.32956 6.10374,4.1053 9.09554,7.65678 l 3.88418,0.0192 -0.91582,-3.82562 c -3.05333,-12.29832 -12.08734,-19.99026 -24.70213,-21.06274 -13.88359,-1.19848 -26.13048,7.54174 -30.1085,21.95069 l -9.24198,0 c -4.08569,-13.32989 -13.83382,-21.00128 -26.53652,-21.66352 -13.40596,-0.66517 -24.50105,8.50737 -28.72063,21.27161 l 0.9049,4.05519 3.04275,-0.74481 c 2.9918,-3.55148 5.09573,-5.32722 9.09554,-7.65678 5.56164,-3.22916 9.37391,-4.37489 15.79119,-4.68257 l -0.14358,4.95215 6.38798,11.10277 -6.38798,10.51965 0,5.10745 c -7.09417,-1.12229 -7.93516,-0.80582 -14.79198,-4.23716 -3.2731,-1.63802 -6.72788,-4.14046 -10.09183,-7.8326 l -2.93809,-0.33416 -0.85607,4.46584 c 4.18149,3.4958 6.21509,6.14476 8.51828,11.09398 2.29733,4.95508 3.01545,8.19888 3.00645,13.64331 l -4.00567,0 c -1.87244,4.67963 -5.3448,7.25241 -10.37021,7.67143 -5.62317,0.49229 -10.20611,-2.2856 -12.38623,-7.52199 2.53761,-0.62707 3.95879,-1.34206 5.99533,-3.01231 2.43798,-1.97793 3.48701,-3.57785 4.58,-6.52277 l 0,-99.69342 z"
           inkscape:connector-curvature="0" />
        <path
           inkscape:connector-curvature="0"
           d="m 411.04224,634.16293 23.5975,1.57648 -23.56526,1.60285 z"
           style="fill:#000000;fill-opacity:1;fill-rule:nonzero;stroke:none"
           id="path4935"
           sodipodi:nodetypes="cccc" />
        <path
           inkscape:connector-curvature="0"
           d="m 393.49538,634.16293 -23.58871,1.57648 23.57405,1.60285 z"
           style="fill:#000000;fill-opacity:1;fill-rule:nonzero;stroke:none"
           id="path4939"
           sodipodi:nodetypes="cccc" />
        <path
           inkscape:connector-curvature="0"
           d="m 403.87341,644.53275 -1.60285,23.61508 -1.59699,-23.58871 z"
           style="fill:#000000;fill-opacity:1;fill-rule:nonzero;stroke:none"
           id="path4943"
           sodipodi:nodetypes="cccc" />
        <path
           style="fill:#ffc20e;fill-opacity:1;fill-rule:nonzero;stroke:#000000;stroke-width:2.4000001;stroke-miterlimit:4;stroke-opacity:1;stroke-dasharray:none"
           d="m 273.04307,557.88202 c -2.9028,0 -5.25007,2.27019 -5.25007,5.0442 0,2.77983 2.34727,5.0558 5.25007,5.0558 l 258.30912,0 c 2.90572,0 5.2588,-2.27597 5.2588,-5.0558 0,-2.77401 -2.35308,-5.0442 -5.2588,-5.0442 z"
           id="path5035"
           inkscape:connector-curvature="0"
           sodipodi:nodetypes="ssssscs" />
        <path
           inkscape:connector-curvature="0"
           d="m 281.04456,637.35105 23.54475,-1.59993 -23.54475,-1.59699 z"
           style="fill:#000000;fill-opacity:1;fill-rule:nonzero;stroke:none"
           id="path5079"
           sodipodi:nodetypes="cccc" />
        <path
           inkscape:connector-curvature="0"
           d="m 379.78412,578.21493 22.37858,-8.15476 22.37858,8.15476 -22.37858,8.18894 z"
           style="fill:#ee0a5b;fill-opacity:1;fill-rule:nonzero;stroke:#000000;stroke-width:2.4000001;stroke-miterlimit:4;stroke-dasharray:none"
           id="path5137"
           sodipodi:nodetypes="ccccc" />
        <path
           inkscape:connector-curvature="0"
           d="m 342.35696,584.91208 -11.20745,0 c -4.13829,0 -6.98316,-3.2979 -6.98316,-6.69471 0,-3.39318 2.84487,-6.66541 6.98316,-6.66541 l 11.20745,0 c 4.12836,0 6.96992,3.27223 6.96992,6.66541 0,3.39681 -2.84156,6.69471 -6.96992,6.69471"
           style="fill:#006cb7;fill-opacity:1;fill-rule:nonzero;stroke:#000000;stroke-width:2.4000001;stroke-miterlimit:4;stroke-dasharray:none"
           id="path5173" />
        <path
           inkscape:connector-curvature="0"
           d="m 393.71647,635.75578 c 0,-4.73658 3.82999,-8.55066 8.5602,-8.55066 4.71431,0 8.55384,3.81408 8.55384,8.55066 0,4.73339 -3.83157,8.54429 -8.55384,8.54429 -4.72227,0 -8.5602,-3.8109 -8.5602,-8.54429 z"
           style="fill:#ffffff;fill-opacity:1;fill-rule:nonzero;stroke:#000000;stroke-width:2.93026471"
           id="path5183"
           sodipodi:nodetypes="ssszs" />
        <use
           x="0"
           y="0"
           xlink:href="#path5035"
           id="use6387"
           transform="translate(0,30.599975)"
           width="744.09448"
           height="1052.3622" />
        <g
           id="g6414"
           transform="translate(0.87770855,0.0463535)">
          <path
             id="path5153"
             style="fill:#ffffff;fill-opacity:1;fill-rule:nonzero;stroke:#000000;stroke-width:2.4000001;stroke-miterlimit:4;stroke-dasharray:none"
             d="m 363.67384,587.43806 c 2.20816,0 3.9897,-1.8171 3.9897,-4.00157 0,-2.22001 -1.78154,-4.00156 -3.9897,-4.00156 -2.1884,0 -3.9818,1.78155 -3.9818,4.00156 0,2.18447 1.7934,4.00157 3.9818,4.00157"
             inkscape:connector-curvature="0" />
          <use
             height="1052.3622"
             width="744.09448"
             transform="translate(0,-10.501657)"
             id="use6412"
             xlink:href="#path5153"
             y="0"
             x="0" />
        </g>
        <use
           x="0"
           y="0"
           xlink:href="#g6414"
           id="use6429"
           transform="translate(-55.617768,0)"
           width="744.09448"
           height="1052.3622" />
        <path
           id="path6453"
           style="fill:#ee0a5b;fill-opacity:1;fill-rule:nonzero;stroke:#000000;stroke-width:2.4000001;stroke-miterlimit:4;stroke-dasharray:none"
           d="m 266.55195,578.21493 5.52739,-8.15476 21.62977,8.15476 -21.62977,8.18894 z"
           inkscape:connector-curvature="0"
           sodipodi:nodetypes="ccccc" />
        <use
           x="0"
           y="0"
           xlink:href="#path5183"
           id="use6621"
           transform="translate(-65.01846,0)"
           width="744.09448"
           height="1052.3622" />
        <use
           height="1052.3622"
           width="744.09448"
           transform="translate(-130.03693,0)"
           id="use6634"
           xlink:href="#path5183"
           y="0"
           x="0" />
        <path
           inkscape:connector-curvature="0"
           d="m 434.94337,601.30147 c 15.2792,0 26.6043,7.85311 32.66959,21.66462 6.0653,-13.81151 17.39039,-21.66462 32.66959,-21.66462 15.27921,0 26.6043,7.85311 32.66371,21.66462 l 0.006,-5.63637 c -5.00476,-10.22047 -17.75632,-19.00833 -32.66973,-19.00833 -14.91342,0 -27.66497,8.78786 -32.66974,19.00833 -5.00477,-10.22047 -17.75632,-19.00833 -32.66973,-19.00833 -14.91342,0 -27.66497,8.78786 -32.66974,19.00833 -5.00477,-10.22047 -17.75632,-19.00833 -32.66974,-19.00833 -14.91341,0 -27.66496,8.78786 -32.66973,19.00833 -5.00477,-10.22047 -17.75632,-19.00833 -32.66974,-19.00833 -14.91341,0 -27.66497,8.78786 -32.66973,19.00833 l 0.006,5.63637 c 6.05941,-13.81151 17.3845,-21.66462 32.66371,-21.66462 15.2792,0 26.60429,7.85311 32.66959,21.66462 6.06529,-13.81151 17.39039,-21.66462 32.66959,-21.66462 15.2792,0 26.60429,7.85311 32.66988,21.66462 6.06559,-13.81151 17.39068,-21.66462 32.66988,-21.66462 z"
           style="fill:#000000;fill-opacity:1;fill-rule:nonzero;stroke:none"
           id="path6663"
           sodipodi:nodetypes="zczcczczczczcczczcz" />
        <path
           inkscape:connector-curvature="0"
           d="m 523.50242,637.35105 -23.54475,-1.59993 23.54475,-1.59699 z"
           style="fill:#000000;fill-opacity:1;fill-rule:nonzero;stroke:none"
           id="path6665"
           sodipodi:nodetypes="cccc" />
        <path
           inkscape:connector-curvature="0"
           d="m 462.19002,584.91208 11.20745,0 c 4.13829,0 6.98316,-3.2979 6.98316,-6.69471 0,-3.39318 -2.84487,-6.66541 -6.98316,-6.66541 l -11.20745,0 c -4.12836,0 -6.96992,3.27223 -6.96992,6.66541 0,3.39681 2.84156,6.69471 6.96992,6.69471"
           style="fill:#006cb7;fill-opacity:1;fill-rule:nonzero;stroke:#000000;stroke-width:2.4000001;stroke-miterlimit:4;stroke-dasharray:none"
           id="path6669" />
        <g
           id="g6675"
           transform="matrix(-1,0,0,1,803.66927,0.0463535)">
          <path
             id="path6677"
             style="fill:#ffffff;fill-opacity:1;fill-rule:nonzero;stroke:#000000;stroke-width:2.4000001;stroke-miterlimit:4;stroke-dasharray:none"
             d="m 363.67384,587.43806 c 2.20816,0 3.9897,-1.8171 3.9897,-4.00157 0,-2.22001 -1.78154,-4.00156 -3.9897,-4.00156 -2.1884,0 -3.9818,1.78155 -3.9818,4.00156 0,2.18447 1.7934,4.00157 3.9818,4.00157"
             inkscape:connector-curvature="0" />
          <use
             height="1052.3622"
             width="744.09448"
             transform="translate(0,-10.501657)"
             id="use6679"
             xlink:href="#path6677"
             y="0"
             x="0" />
        </g>
        <use
           x="0"
           y="0"
           xlink:href="#g6675"
           id="use6681"
           transform="translate(55.617768,0)"
           width="744.09448"
           height="1052.3622" />
        <path
           id="path6683"
           style="fill:#ee0a5b;fill-opacity:1;fill-rule:nonzero;stroke:#000000;stroke-width:2.4000001;stroke-miterlimit:4;stroke-dasharray:none"
           d="m 537.99503,578.21493 -5.52739,-8.15476 -21.62977,8.15476 21.62977,8.18894 z"
           inkscape:connector-curvature="0"
           sodipodi:nodetypes="ccccc" />
        <path
           sodipodi:nodetypes="ssszs"
           id="use6685"
           style="fill:#ffffff;fill-opacity:1;fill-rule:nonzero;stroke:#000000;stroke-width:2.93026471"
           d="m 475.84897,635.75578 c 0,-4.73658 -3.82999,-8.55066 -8.5602,-8.55066 -4.71431,0 -8.55384,3.81408 -8.55384,8.55066 0,4.73339 3.83157,8.54429 8.55384,8.54429 4.72227,0 8.5602,-3.8109 8.5602,-8.54429 z"
           inkscape:connector-curvature="0" />
        <path
           sodipodi:nodetypes="ssszs"
           id="use6687"
           style="fill:#ffffff;fill-opacity:1;fill-rule:nonzero;stroke:#000000;stroke-width:2.93026471"
           d="m 540.86744,635.75578 c 0,-4.73658 -3.82999,-8.55066 -8.5602,-8.55066 -4.71431,0 -8.55384,3.81408 -8.55384,8.55066 0,4.73339 3.83157,8.54429 8.55384,8.54429 4.72227,0 8.5602,-3.8109 8.5602,-8.54429 z"
           inkscape:connector-curvature="0" />
      </g>
    </g>
  </g>
</svg>
