<?xml version="1.0" encoding="UTF-8" standalone="no"?>
<!-- Created with Inkscape (http://www.inkscape.org/) -->

<svg
   width="500"
   height="530"
   viewBox="0 0 132.29166 140.22917"
   version="1.1"
   id="svg5"
   xml:space="preserve"
   xmlns="http://www.w3.org/2000/svg"
   xmlns:svg="http://www.w3.org/2000/svg"><defs
     id="defs2" /><path
     id="path2143"
     style="font-variation-settings:normal;vector-effect:none;fill:#cccccc;fill-opacity:1;stroke:none;stroke-width:0.264583;stroke-linecap:butt;stroke-linejoin:miter;stroke-miterlimit:10;stroke-dasharray:none;stroke-dashoffset:0;stroke-opacity:1;-inkscape-stroke:none;stop-color:#000000"
     d="M 128.89797,32.32253 132.29167,0 H 0 L 3.394261,32.32142 22.45834,58.29171 h 87.375 z" /><path
     style="font-variation-settings:normal;vector-effect:none;fill:#045cd2;fill-opacity:1;stroke:none;stroke-width:0.264583;stroke-linecap:butt;stroke-linejoin:miter;stroke-miterlimit:10;stroke-dasharray:none;stroke-dashoffset:0;stroke-opacity:1;-inkscape-stroke:none;stop-color:#000000"
     d="m 9.572381,89.93961 c 3.770797,34.26913 33.935744,50.28955 56.573446,50.28955 22.63771,0 52.802673,-16.02042 56.573473,-50.28955 1.87883,-17.07495 4.26031,-39.44956 6.17867,-57.61708 l -2.72098,-4.90742 2.49116,2.55791 -0.11239,-1.21144 0.64658,0.66351 0.38616,-3.68098 -5.19266,-9.36584 -9.03097,16.28824 2.49172,-2.5579 -0.11239,1.21089 2.49172,-2.55792 -0.1124,1.21144 2.49117,-2.55791 -11.0002,19.83975 2.49172,-2.55792 -0.11239,1.21089 2.49116,-2.5579 -0.11185,1.21142 2.49117,-2.5579 -9.03096,16.28826 -9.03097,-16.28826 2.49117,2.5579 -0.11184,-1.21142 2.49116,2.5579 -0.1124,-1.21089 2.49173,2.55792 -11.000203,-19.83975 2.49117,2.55791 -0.1124,-1.21144 2.491723,2.55792 -0.11241,-1.21089 2.49174,2.5579 -9.030973,-16.28824 -9.03096,16.28824 2.49172,-2.5579 -0.11241,1.21089 2.49173,-2.55792 -0.11241,1.21144 2.49118,-2.55791 -11.0002,19.83975 2.49172,-2.55792 -0.1124,1.21089 2.49117,-2.5579 -0.11185,1.21142 2.49118,-2.5579 -9.03098,16.28826 -9.03095,-16.28826 2.49116,2.5579 -0.11185,-1.21142 2.49117,2.5579 -0.1124,-1.21089 2.49172,2.55792 -11.00019,-19.83975 2.49117,2.55791 -0.11241,-1.21144 2.49173,2.55792 -0.1124,-1.21089 2.49172,2.5579 -9.03097,-16.28824 -9.03095,16.28824 2.49172,-2.5579 -0.1124,1.21089 2.49172,-2.55792 -0.1124,1.21144 2.49116,-2.55791 -11.00018,19.83975 2.49172,-2.55792 -0.11241,1.21089 2.49118,-2.5579 -0.11185,1.21142 2.49116,-2.5579 -9.03095,16.28826 -9.030974,-16.28826 2.491162,2.5579 -0.111844,-1.21142 2.491176,2.5579 -0.11241,-1.21089 2.49172,2.55792 -11.000185,-19.83975 2.491162,2.55791 -0.112393,-1.21144 2.491722,2.55792 -0.112404,-1.21089 2.491718,2.5579 -9.030955,-16.28824 -9.03097,16.28824 2.491722,-2.5579 -0.112394,1.21089 2.491722,-2.55792 -0.112404,1.21144 2.491163,-2.55791 -11.00019,19.83975 2.491722,-2.55792 -0.112404,1.21089 2.491173,-2.5579 -0.111844,1.21142 2.491162,-2.5579 -9.03096,16.28826 -9.03097,-16.28826 2.491173,2.5579 -0.111844,-1.21142 2.491162,2.5579 -0.112404,-1.21089 2.491722,2.55792 -11.000189,-19.83975 2.491162,2.55791 -0.112393,-1.21144 2.491722,2.55792 -0.112404,-1.21089 2.491722,2.5579 -9.03096,-16.28824 -5.192111,9.36474 0.386722,3.68152 0.64547,-0.66295 -0.112404,1.21144 2.491173,-2.55791 -2.720418,4.90631 c 1.915521,18.1397 4.304616,40.59182 6.17811,57.61819 z"
     id="path2145" /><g
     id="g1252"
     transform="matrix(1.0767704,0,0,1.0767704,-41.885597,-85.012925)"
     style="stroke-width:0.928703"><path
       id="path1100"
       style="opacity:1;fill:#cccccc;stroke:none;stroke-width:0.245719;stroke-linecap:square;stroke-miterlimit:100;stroke-dasharray:none;stop-color:#000000"
       d="m 100.32928,146.85873 a 23.19758,23.19758 0 0 0 -23.197555,23.19755 23.19758,23.19758 0 0 0 23.197555,23.19755 23.19758,23.19758 0 0 0 23.19755,-23.19755 23.19758,23.19758 0 0 0 -23.19755,-23.19755 z m 0,7.67344 a 15.524194,15.524194 0 0 1 15.52411,15.52411 15.524194,15.524194 0 0 1 -15.52411,15.52412 15.524194,15.524194 0 0 1 -15.524638,-15.52412 15.524194,15.524194 0 0 1 15.524638,-15.52411 z" /><path
       id="path1240"
       style="opacity:1;fill:#cccccc;stroke:none;stroke-width:0.245719;stroke-linecap:square;stroke-miterlimit:100;stop-color:#000000"
       d="m 124.02724,150.1712 1.98049,3.01445 1.98048,3.01443 -11.50728,7.56026 -1.98047,-3.01443 -1.98049,-3.01445 z" /><path
       id="path1242"
       style="opacity:1;fill:#cccccc;stroke:none;stroke-width:0.245718;stroke-linecap:square;stroke-miterlimit:100;stop-color:#000000"
       d="m 134.84132,147.38198 -8.03833,14.32516 -2.05714,-7.69244 -6.24362,-4.94194 z" /></g></svg>
