<?xml version="1.0" encoding="UTF-8" standalone="no"?>
<!-- Created with Inkscape (http://www.inkscape.org/) -->

<svg
   width="500"
   height="574"
   viewBox="0 0 132.29166 151.87083"
   version="1.1"
   id="svg5"
   xml:space="preserve"
   xmlns="http://www.w3.org/2000/svg"
   xmlns:svg="http://www.w3.org/2000/svg"><defs
     id="defs2" /><path
     id="path1873"
     style="font-variation-settings:normal;vector-effect:none;fill:#d1d1d1;fill-opacity:1;stroke:none;stroke-width:0.209065;stroke-linecap:butt;stroke-linejoin:miter;stroke-miterlimit:4;stroke-dasharray:none;stroke-dashoffset:0;stroke-opacity:1;-inkscape-stroke:none;stop-color:#000000"
     d="m 98.163387,143.61429 c 15.260663,-8.45847 26.824803,-22.7726 31.654203,-39.91207 L 123.43265,75.486429 65.615917,12.400516 37.804934,0 H 0 v 41.784099 l 1.099748,9.611298 78.641519,93.658883 z" /><path
     style="fill:#e90606;fill-opacity:1;stroke:none;stroke-width:0.264584;stroke-linecap:round;stroke-linejoin:round;stroke-miterlimit:10;paint-order:markers stroke fill;stop-color:#000000"
     d="m 0,41.784099 v 43.94121 c 5e-6,36.531291 29.614872,66.145521 66.146167,66.145521 11.61581,0 22.52977,-2.99798 32.01722,-8.25655 -4.12118,-1.07361 -8.38204,-1.82449 -11.48748,-5.24287 -5.54097,-6.09938 -2.27709,-15.04809 -7.81804,-21.14745 -5.54095,-6.09936 -14.76037,-3.70702 -20.30131,-9.80636 -5.540959,-6.09936 -2.27711,-15.047461 -7.818044,-21.146801 -5.540958,-6.09935 -14.761012,-3.70766 -20.30197,-9.80701 C 24.895599,70.364449 28.159444,61.416337 22.6185,55.316997 17.077556,49.217657 7.858147,51.609997 2.317186,45.510637 1.269633,44.357511 0.53715,43.102368 0,41.784099 Z"
     id="path1986" /><path
     style="fill:#000000;stroke:none;stroke-width:0.264584;stroke-linecap:round;stroke-linejoin:round;stroke-miterlimit:10;paint-order:markers stroke fill;stop-color:#000000"
     d="m 37.804935,0 c 0.529909,2.796914 1.36877,5.535051 3.452805,7.829107 5.540961,6.09936 14.760357,3.70701 20.301317,9.80636 5.54093,6.099342 2.27708,15.048092 7.81803,21.147447 5.54097,6.099353 14.76038,3.70702 20.30132,9.806363 5.54095,6.09934 2.27774,15.04743 7.8187,21.146792 5.540953,6.09934 14.760363,3.70766 20.301313,9.80702 5.54097,6.09935 2.27709,15.04743 7.81805,21.146791 1.24266,1.36789 2.67144,2.30708 4.20113,3.01234 1.61065,-5.716161 2.47407,-11.745581 2.47407,-17.976911 V 0 Z"
     id="path1631" /><path
     id="path1938"
     style="fill:#d1d1d1;fill-opacity:1;stroke:none;stroke-width:0.264583;stroke-linecap:round;stroke-linejoin:round;stroke-miterlimit:10;stroke-dasharray:none;paint-order:markers stroke fill;stop-color:#000000"
     d="m 125.82128,8.216399 -11.17633,0.806091 2.80491,2.804912 -3.78955,3.789553 0.004,0.0039 A 17.015383,17.015383 0 0 0 104.6844,13.056852 17.015383,17.015383 0 0 0 87.668487,30.072093 17.015383,17.015383 0 0 0 104.6844,47.087327 17.015383,17.015383 0 0 0 121.69963,30.072093 17.015383,17.015383 0 0 0 118.5652,20.23291 l 3.64514,-3.645138 2.8049,2.804912 z M 104.68433,19.034313 A 11.037606,11.037606 0 0 1 115.72149,30.072131 11.037606,11.037606 0 0 1 104.68433,41.109948 11.037606,11.037606 0 0 1 93.646517,30.072131 11.037606,11.037606 0 0 1 104.68433,19.034313 Z" /><path
     id="path1979"
     style="fill:#d1d1d1;fill-opacity:1;stroke:none;stroke-width:0.264583;stroke-linecap:round;stroke-linejoin:round;stroke-miterlimit:10;stroke-dasharray:none;paint-order:markers stroke fill;stop-color:#000000"
     d="m 49.329961,88.749869 -11.176324,0.80609 2.804907,2.80492 -3.789552,3.78955 0.0039,0.004 a 17.015383,17.015383 0 0 0 -8.979912,-2.564 17.015383,17.015383 0 0 0 -17.015904,17.015241 17.015383,17.015383 0 0 0 17.015904,17.01523 17.015383,17.015383 0 0 0 17.01523,-17.01523 17.015383,17.015383 0 0 0 -3.134426,-9.83918 l 3.645136,-3.645151 2.804907,2.80492 z M 28.193018,99.567779 A 11.037606,11.037606 0 0 1 39.230172,110.60561 11.037606,11.037606 0 0 1 28.193018,121.64342 11.037606,11.037606 0 0 1 17.155203,110.60561 11.037606,11.037606 0 0 1 28.193018,99.567779 Z" /></svg>
