<?xml version="1.0" encoding="UTF-8" standalone="no"?>
<svg
   xmlns:dc="http://purl.org/dc/elements/1.1/"
   xmlns:cc="http://creativecommons.org/ns#"
   xmlns:rdf="http://www.w3.org/1999/02/22-rdf-syntax-ns#"
   xmlns:svg="http://www.w3.org/2000/svg"
   xmlns="http://www.w3.org/2000/svg"
   xmlns:sodipodi="http://sodipodi.sourceforge.net/DTD/sodipodi-0.dtd"
   xmlns:inkscape="http://www.inkscape.org/namespaces/inkscape"
   width="499.99997"
   height="575"
   viewBox="0 0 132.29166 152.13542"
   version="1.1"
   id="svg847"
   sodipodi:docname="rautavaara.svg"
   inkscape:version="1.0.2 (e86c870879, 2021-01-15, custom)">
  <defs
     id="defs841" />
  <sodipodi:namedview
     id="base"
     pagecolor="#ffffff"
     bordercolor="#666666"
     borderopacity="1.0"
     inkscape:pageopacity="0.0"
     inkscape:pageshadow="2"
     inkscape:zoom="0.49497475"
     inkscape:cx="431.70631"
     inkscape:cy="134.60812"
     inkscape:document-units="px"
     inkscape:current-layer="layer1"
     inkscape:document-rotation="0"
     showgrid="false"
     inkscape:snap-smooth-nodes="true"
     inkscape:showpageshadow="false"
     borderlayer="true"
     units="px"
     inkscape:window-width="1920"
     inkscape:window-height="1017"
     inkscape:window-x="-8"
     inkscape:window-y="-4"
     inkscape:window-maximized="1"
     inkscape:snap-global="true" />
  <metadata
     id="metadata844">
    <rdf:RDF>
      <cc:Work
         rdf:about="">
        <dc:format>image/svg+xml</dc:format>
        <dc:type
           rdf:resource="http://purl.org/dc/dcmitype/StillImage" />
        <dc:title />
      </cc:Work>
    </rdf:RDF>
  </metadata>
  <g
     inkscape:label="Layer 1"
     inkscape:groupmode="layer"
     id="layer1"
     transform="translate(-20.741442,-56.696424)">
    <g
       id="g2563"
       transform="matrix(1.0079193,0,0,1.0079193,-0.16425837,-0.44899782)"
       style="stroke-width:0.992143">
      <path
         style="font-variation-settings:normal;opacity:1;vector-effect:none;fill:#000000;fill-opacity:1;stroke:none;stroke-width:0.131253;stroke-linecap:butt;stroke-linejoin:miter;stroke-miterlimit:4;stroke-dasharray:none;stroke-dashoffset:0;stroke-opacity:1;stop-color:#000000;stop-opacity:1"
         d="m 20.741443,56.696426 v 87.811944 c 0,11.06515 3.9577,26.74316 15.92081,40.28852 11.96311,13.54536 30.06065,22.83961 49.705307,22.83961 19.64466,0 37.7422,-9.29425 49.7053,-22.83961 11.96312,-13.54536 15.92082,-29.22337 15.92082,-40.28852 V 56.696426 Z"
         id="path844"
         sodipodi:nodetypes="csszsscc" />
      <path
         id="path848"
         style="font-variation-settings:normal;opacity:1;vector-effect:none;fill:#cfcfcf;fill-opacity:1;stroke:none;stroke-width:0.496072;stroke-linecap:butt;stroke-linejoin:miter;stroke-miterlimit:4;stroke-dasharray:none;stroke-dashoffset:0;stroke-opacity:1;stop-color:#000000;stop-opacity:1"
         d="m 326.42773,527 c -76.76245,0 -110.36113,51.36657 -116.41992,61.8418 -11.97987,-10.2506 -29.41021,-19.41602 -53.46875,-19.41602 -36.80847,0 -58.101292,19.43678 -68.080076,33.41406 8.643047,30.54835 24.717656,63.59 51.423826,93.80274 44.89785,50.79311 112.81797,85.64453 186.54492,85.64453 73.7269,0 141.649,-34.85142 186.54688,-85.64453 26.70614,-30.21274 42.78079,-63.25439 51.42383,-93.80274 -9.97879,-13.97728 -31.27161,-33.41406 -68.08008,-33.41406 -24.05854,0 -41.48887,9.16542 -53.46875,19.41602 C 436.79083,578.36657 403.19019,527 326.42773,527 Z"
         transform="scale(0.26458333)"
         sodipodi:nodetypes="scscssscscs" />
      <path
         id="path889"
         style="font-variation-settings:normal;opacity:1;vector-effect:none;fill:#ffffff;fill-opacity:1;stroke:none;stroke-width:0.496072;stroke-linecap:butt;stroke-linejoin:miter;stroke-miterlimit:4;stroke-dasharray:none;stroke-dashoffset:0;stroke-opacity:1;stop-color:#000000;stop-opacity:1"
         d="m 326.42773,525 c -76.76244,0 -110.36113,51.36657 -116.41992,61.8418 -11.97987,-10.2506 -29.41021,-19.41602 -53.46875,-19.41602 -36.80847,0 -58.101292,21.43678 -68.080076,35.41406 0.585057,2.06785 1.211082,4.14924 1.865235,6.23828 9.865731,-14.45288 30.999681,-36.73437 67.599611,-36.73437 23.86234,0 41.15102,11.09081 53.0332,21.25781 6.00938,-10.38981 39.33422,-63.33789 115.4707,-63.33789 76.13648,0 109.46333,52.94808 115.47266,63.33789 11.88223,-10.167 29.17093,-21.25781 53.0332,-21.25781 36.59995,0 57.73388,22.28149 67.59961,36.73437 0.65416,-2.08904 1.28018,-4.17043 1.86524,-6.23828 -9.97879,-13.97728 -31.27161,-35.41406 -68.08008,-35.41406 -24.05854,0 -41.48887,9.16542 -53.46875,19.41602 C 436.79083,576.36657 403.19019,525 326.42773,525 Z"
         transform="scale(0.26458333)" />
      <path
         id="path892"
         style="opacity:1;fill:#df0000;fill-opacity:1;stroke:none;stroke-width:0.262504;stroke-miterlimit:4;stroke-dasharray:none"
         d="m 97.954483,153.38857 3.211687,3.21169 -4.071067,4.07107 a 22.959695,22.959695 0 0 0 -12.062827,-3.4246 22.959695,22.959695 0 0 0 -0.0021,0 22.959695,22.959695 0 0 0 -22.957255,22.95984 22.959695,22.959695 0 0 0 22.959324,22.95984 22.959695,22.959695 0 0 0 22.959835,-22.95984 22.959695,22.959695 0 0 0 -4.37803,-13.48548 l 3.83646,-3.83646 3.21169,3.21117 V 153.38857 Z M 85.032276,167.4182 A 12.788328,12.788328 0 0 1 97.820641,180.20657 12.788328,12.788328 0 0 1 85.032276,192.99494 12.788328,12.788328 0 0 1 72.243908,180.20657 12.788328,12.788328 0 0 1 85.032276,167.4182 Z" />
      <g
         id="g2512"
         transform="matrix(-1,0,0,1,172.73512,0)"
         style="stroke-width:0.992143">
        <path
           style="font-variation-settings:normal;opacity:1;vector-effect:none;fill:#cfcfcf;fill-opacity:1;stroke:none;stroke-width:0.131253;stroke-linecap:butt;stroke-linejoin:miter;stroke-miterlimit:4;stroke-dasharray:none;stroke-dashoffset:0;stroke-opacity:1;stop-color:#000000;stop-opacity:1"
           d="m 143.65458,134.44141 c 0.99218,2.4096 0.7087,4.60658 0.7087,4.60658 -4.46484,4.3231 -13.25279,7.08705 -13.25279,7.08705 0,0 -2.12611,-2.90569 -7.4414,-1.55915 -0.94549,-1.26066 -2.16364,-4.31228 -3.49803,-10.8409 -1.3344,-6.52862 -4.05389,-7.10243 -8.61944,-9.22079 -4.56555,-2.11837 -4.99121,-2.05566 -10.31177,-4.97136 -5.320559,-2.9157 -12.459206,-7.19481 -20.115442,-13.2526 -7.656236,-6.0578 -17.079945,-16.855174 -17.079945,-16.855174 0,0 -0.75707,0.924868 -2.24536,1.704443 -6.24786,-4.07483 -8.53425,-7.868426 -11.25175,-8.728374 -1.7491,4.966373 -0.50622,8.765496 2.00452,11.868191 -1.7276,6.985504 -1.18632,14.251854 0.30068,19.544084 0,0 -6.34429,1.34051 -15.84094,-5.17958 -9.49665,-6.52009 -12.20692,-12.307148 -12.20692,-12.307148 0,0 3.52588,-1.856904 8.2365,-9.674537 4.71063,-7.817634 7.21628,-15.134137 7.21628,-15.134137 0,0 -1.84558,-1.532747 -2.84784,-2.635233 0,0 0.94354,-2.676749 1.34445,-5.683531 0,0 2.37445,1.093956 3.9336,1.944402 0.58457,-1.37406 0.7098,-3.390743 1.53553,-4.819197 1.49681,0.598722 8.55924,4.543449 10.41797,5.811385 0,0 0.18248,0.671548 -0.56922,1.172679 -0.75169,0.50113 -0.90203,0.551243 -1.1526,1.252826 6.59002,3.320997 11.46869,6.912474 20.549759,10.378438 0,0 -0.496093,1.630023 -0.850449,2.55134 2.440932,1.533501 4.881865,2.636752 7.322797,3.607032 0,0 1.976641,1.94581 4.644791,4.852366 2.573101,2.803015 10.812256,10.800095 14.520621,13.506205 3.708368,2.7061 6.564808,5.61266 10.824418,7.96797 4.25961,2.35531 6.41447,3.8587 10.67407,6.1639 4.25961,2.3052 4.56029,3.20723 6.81538,6.21402 2.25508,3.00678 4.89892,8.83709 8.85785,10.84161 3.95893,2.00452 7.37598,-0.21281 7.37598,-0.21281 z"
           id="path2506"
           sodipodi:nodetypes="cccczzzzcccccscsccccccsccccssssssc" />
        <path
           id="path1119"
           style="font-variation-settings:normal;opacity:1;vector-effect:none;fill:#ffffff;fill-opacity:1;stroke:none;stroke-width:0.500001;stroke-linecap:butt;stroke-linejoin:miter;stroke-miterlimit:4;stroke-dasharray:none;stroke-dashoffset:0;stroke-opacity:1;stop-color:#000000;stop-opacity:1"
           d="M 410.54688 13.857422 C 404.84482 16.138222 377.94208 31.167896 370.86133 35.998047 C 370.86133 35.998047 370.34508 37.905545 372.05078 39.65625 C 387.77685 32.845397 408.56641 18.988281 408.56641 18.988281 C 410.70942 17.277995 410.28884 15.567708 410.54688 13.857422 z M 431.38086 24.810547 C 431.38086 24.810547 424.82267 27.858295 419.21875 30.748047 L 418.64648 35.818359 C 418.64648 35.818359 423.77515 32.578239 428.63477 30.148438 C 431.28572 28.369139 430.53189 26.589844 431.38086 24.810547 z M 377.41992 45.238281 C 352.31552 57.889482 333.73068 71.569985 299.13672 84.773438 L 302.375 94.492188 L 300.10938 95.865234 C 291.56595 100.99483 283.02387 104.83638 274.48047 108.23242 C 274.48047 108.23242 266.95131 115.64439 256.78711 126.7168 C 246.98498 137.39476 215.59561 167.85915 201.46875 178.16797 C 187.34187 188.47675 176.46118 199.55098 160.23438 208.52344 C 144.00755 217.49589 135.79903 223.22234 119.57227 232.00391 C 103.34546 240.78546 102.20004 244.22154 93.609375 255.67578 C 85.018738 267.12999 74.948573 289.34042 59.867188 296.97656 C 44.78581 304.6127 31.767578 296.16602 31.767578 296.16602 C 31.082737 297.82922 30.561258 299.46423 30.160156 301.0293 C 28.31744 308.14561 29.068359 313.71484 29.068359 313.71484 C 30.35209 314.95782 31.737615 316.1626 33.1875 317.33594 C 33.001428 313.71341 32.484423 309.64805 33.974609 304.15039 C 38.886945 307.73932 46.090116 311.72811 55.435547 316.05469 C 69.773622 322.69267 79.193359 321.72461 79.193359 321.72461 C 66.504402 317.40495 49.226562 306.33594 49.226562 306.33594 C 62.995467 304.44611 68.393646 300.66559 81.892578 282.03711 C 95.39151 263.40859 102.41294 245.59018 120.77148 238.30078 C 139.12999 231.01135 155.86899 219.6732 177.19727 205.9043 C 198.52555 192.13542 233.89138 162.43691 245.23047 152.17773 C 256.56956 141.91855 272.49937 121.12943 281.13867 114.91992 C 289.77798 108.71042 303.27539 102.23242 303.27539 102.23242 L 305.5293 101.33789 C 308.21973 106.58261 311.46484 112.2207 311.46484 112.2207 C 311.46484 112.2207 319.02532 113.03158 324.96484 115.19141 C 330.90436 117.35123 335.03906 124.7168 335.03906 124.7168 C 335.03906 124.7168 337.92222 128.23923 343.5918 131.20898 C 344.3422 130.71958 345.03494 130.23501 345.75586 129.74805 C 340.16905 126.12156 337.05113 118.02966 334.35156 115.33008 C 327.6021 108.58063 314.6582 108.60156 314.6582 108.60156 L 305.6543 87.876953 C 315.15981 84.757259 326.82186 80.867697 341.34375 72.984375 C 360.24224 62.725182 375.35924 54.354969 377.78906 51.115234 C 380.21881 47.87549 377.41992 45.238281 377.41992 45.238281 z "
           transform="matrix(-0.26250449,0,0,0.26250449,151.99368,56.696426)" />
        <path
           id="path2508"
           style="font-variation-settings:normal;opacity:1;vector-effect:none;fill:#808080;fill-opacity:1;stroke:none;stroke-width:0.500001;stroke-linecap:butt;stroke-linejoin:miter;stroke-miterlimit:4;stroke-dasharray:none;stroke-dashoffset:0;stroke-opacity:1;stop-color:#000000;stop-opacity:1"
           d="m 413.00828,25.467491 c -6.39114,4.565108 -24.91523,14.63777 -29.16062,16.014931 -5.16697,1.676109 -5.86541,3.48033 -4.00977,4.964844 1.85564,1.484503 8.40025,-0.765142 19.47266,-7.25586 11.19908,-6.564961 13.69773,-13.723915 13.69773,-13.723915 z m 6.21047,5.280556 c -0.95855,0.495103 -1.95783,0.997238 -2.82227,1.46875 C 418.82631,41.126078 425.6543,56.5 425.6543,56.5 c 0,0 1.15511,-0.977405 2.61328,-2.244141 -3.87113,-8.930016 -6.45401,-16.036146 -9.04883,-23.507812 z m 44.48828,105.546873 c 0,0 -1.69663,0.96854 -3.74219,3.20508 -6.03239,6.59566 -19.5047,21.28093 -36.35742,31.39258 -17.09801,10.25883 -29.13119,14.56578 -34.68554,16 -2.53832,0.65546 -4.44336,2.66797 -4.44336,2.66797 0,0 1.58103,1.02346 4.77734,0.25 0.52235,-0.12641 1.16856,-0.31025 1.81055,-0.49219 -0.15581,0.59145 -0.49716,1.88471 -0.89649,3.4043 -1.89438,0.62139 -3.83466,1.2287 -6.00781,1.86523 2.1117,-0.43943 4.02739,-0.876 5.875,-1.35351 -0.48985,1.86502 -0.70392,2.70495 -1.26953,4.87109 -2.42197,0.95518 -3.83985,1.44726 -3.83985,1.44726 0,0 1.39529,-0.38465 3.76954,-1.18359 -0.3326,1.27427 -0.5854,2.25879 -0.875,3.37695 -0.31777,0.10797 -1.36524,0.47852 -1.36524,0.47852 0,0 0.51806,-0.15132 1.3457,-0.4043 -0.33316,1.28663 -0.80955,3.09571 -1.01367,3.9043 0.48492,-0.96676 1.04362,-2.44143 1.61524,-4.09375 0.8446,-0.26148 1.91124,-0.60616 3.26172,-1.05274 -0.37124,1.44872 -0.74268,2.85252 -1.09766,4.06446 0.57405,-1.24948 1.11623,-2.72348 1.63672,-4.24805 1.43472,-0.47851 3.05337,-1.04293 4.89258,-1.70508 -0.29538,1.06041 -0.58027,2.06372 -0.875,3.06055 -2.30165,0.82455 -3.66016,1.23633 -3.66016,1.23633 0.0354,0.14065 1.33092,-0.10153 3.51172,-0.73438 -0.40791,1.36289 -0.80866,2.65654 -1.1836,3.74024 0.55729,-1.10956 1.10874,-2.45801 1.65235,-3.88086 1.43379,-0.42918 3.15928,-0.99624 5.32422,-1.80078 -0.81221,2.59541 -1.70362,5.12706 -2.66016,7.30468 1.25464,-2.23216 2.37681,-4.86506 3.35938,-7.5625 1.2237,-0.46374 2.566,-0.99777 3.99023,-1.58789 -0.72631,2.34994 -1.47396,4.66425 -2.2168,6.72071 1.00221,-2.11651 1.95683,-4.52735 2.85157,-6.98047 1.80362,-0.75685 3.76,-1.61883 5.85156,-2.58789 -1.4849,4.90104 -2.76563,7.94726 -2.76563,7.94726 0,0 1.60743,-3.14752 3.39649,-8.24023 1.44239,-0.67475 2.96829,-1.41674 4.53515,-2.19727 -0.87888,2.73577 -1.89156,5.46789 -3.07226,8.00782 1.46849,-2.63143 2.69799,-5.48854 3.74219,-8.34571 2.03419,-1.02215 4.15687,-2.12982 6.38281,-3.33789 -0.68851,4.13895 -1.21484,7.0918 -1.21484,7.0918 -10e-6,0 0.76607,-3.03375 1.71679,-7.36524 0.84486,-0.46109 1.68206,-0.91354 2.55274,-1.40234 0.85917,-0.48234 1.71499,-0.98772 2.57031,-1.50195 -0.49733,3.23516 -0.9043,5.41211 -0.9043,5.41211 0.18862,0.0414 0.82686,-2.30554 1.52344,-5.78711 1.44854,-0.88419 2.8862,-1.81458 4.3125,-2.77149 -0.0695,0.9635 -0.12731,1.92703 -0.16602,2.88867 0.23041,-1.08031 0.43955,-2.1425 0.63282,-3.19335 1.30541,-0.88387 2.5951,-1.79387 3.87109,-2.72071 -0.007,0.23979 -0.0105,0.49037 -0.0176,0.72852 0.0554,-0.27182 0.0943,-0.54426 0.14453,-0.81641 1.62392,-1.18206 3.20888,-2.3951 4.76758,-3.61719 0.0399,1.13788 0.0547,1.78907 0.0547,1.78907 0,0 0.0531,-0.71979 0.11133,-1.91797 1.92776,-1.51509 3.79592,-3.04332 5.58984,-4.5625 -0.0147,0.83382 -0.0312,1.62109 -0.0312,1.62109 0,0 0.0788,-0.78517 0.16602,-1.73242 11.78614,-9.99749 20.27148,-19.38672 20.27148,-19.38672 0,0 -8.5138,8.82235 -20.19141,18.4043 0.10112,-1.18117 0.21515,-2.61287 0.32422,-4.36524 10.20406,-9.17668 17.96485,-17.47265 17.96485,-17.47265 0,1e-5 -7.7765,7.77837 -17.91016,16.54492 0.0711,-1.24182 0.1274,-2.57004 0.17578,-3.95703 9.49809,-8.55722 15.82422,-15.64649 15.82422,-15.64649 0,0 -6.3636,6.68176 -15.80078,14.85938 0.034,-1.13463 0.0545,-2.27842 0.0606,-3.45117 7.96588,-7.71321 12.70117,-13.94532 12.70117,-13.94532 0,0 -4.79759,5.83007 -12.69727,13.15821 -0.001,-1.51863 -0.0294,-3.03086 -0.0976,-4.51758 4.4102,-4.6322 7.84795,-8.80473 10.0039,-11.66797 1.89274,-2.51368 2.13672,-3.85547 2.13672,-3.85547 z m -13.09765,16.51953 c 0.0644,1.44308 0.11636,2.89614 0.15234,4.35743 -1.72531,1.5771 -3.59801,3.21154 -5.58399,4.86914 -0.0599,-1.19224 -0.14256,-2.41459 -0.24023,-3.66797 2.02648,-1.88281 3.91764,-3.7486 5.67188,-5.5586 z m 0.17187,5.16211 c 0.0249,1.14918 0.0293,2.16688 0.041,3.27149 -1.74058,1.49613 -3.58052,3.03247 -5.5,4.58789 -0.0219,-0.91306 -0.0593,-1.85877 -0.10157,-2.83203 1.97951,-1.70409 3.84735,-3.39528 5.56055,-5.02735 z m 19.29102,0.72071 c 0,0 -9.32494,11.84529 -26.34571,23.67187 17.91459,-10.31819 26.34571,-23.67187 26.34571,-23.67187 z m -26.05665,0.51757 c 0.10325,1.22267 0.19784,2.40692 0.28321,3.56641 -0.97647,0.80283 -1.9907,1.60557 -3.02149,2.41016 0.001,-1.17402 0.003,-2.35965 0.006,-3.54688 0.93324,-0.80912 1.84449,-1.61869 2.73242,-2.42969 z m 6.8125,2.82422 c 0.0104,1.27053 0.0313,2.6127 0.0293,3.74805 -1.77369,1.52774 -3.61114,3.072 -5.49414,4.61719 0.007,-1.12615 -0.003,-2.3363 -0.0254,-3.63282 1.91314,-1.59915 3.75922,-3.1866 5.49023,-4.73242 z m -10.52343,0.45508 c 0.014,1.11985 0.0282,2.24085 0.0312,3.43359 -0.86024,0.66019 -1.74854,1.31498 -2.64258,1.96875 -0.002,-1.04482 -0.0269,-2.10673 -0.0723,-3.18164 0.91195,-0.73494 1.80746,-1.47561 2.6836,-2.2207 z m 4.0625,1.24805 c 0.0692,0.97716 0.12028,1.80515 0.17773,2.71679 -1.08396,0.87069 -2.18754,1.73962 -3.3164,2.61133 0.0171,-0.92343 0.035,-1.84669 0.0391,-2.77734 1.06311,-0.84835 2.0966,-1.70126 3.09961,-2.55078 z m -7.61133,1.6582 c 0.0588,1.04832 0.0832,2.09375 0.0781,3.13477 -1.06046,0.7627 -2.1527,1.51384 -3.25586,2.25781 0.0696,-1.04189 0.11745,-2.06876 0.14063,-3.06836 1.03095,-0.76469 2.04448,-1.53839 3.03711,-2.32422 z m 14.09766,1.29102 c -0.007,1.59308 -0.0196,3.00365 -0.0352,4.08398 -1.78602,1.46232 -3.65555,2.93543 -5.56836,4.40234 0.0438,-1.06293 0.0891,-2.16113 0.10938,-3.71289 1.88308,-1.59127 3.72482,-3.18981 5.49414,-4.77343 z m -10.51954,0.32617 c 0,0.90876 0.002,1.80971 -0.004,2.74219 -0.89816,0.68582 -1.80533,1.36418 -2.72656,2.04296 0.0453,-0.91258 0.072,-1.83177 0.084,-2.75781 0.90307,-0.67036 1.77967,-1.34812 2.64648,-2.02734 z m 4.26368,0.36914 c 0.0727,1.2039 0.15155,2.43256 0.20507,3.47656 -1.24201,1.01363 -2.49507,2.01501 -3.76171,3.00781 0.0863,-1.24344 0.13821,-2.49342 0.17187,-3.74804 1.15278,-0.91238 2.28075,-1.8222 3.38477,-2.73633 z m -11.89454,1.07812 c -0.0275,0.98085 -0.091,1.99816 -0.15429,3.01758 -1.29387,0.85403 -2.60967,1.69246 -3.95508,2.50586 0.14667,-0.98045 0.28678,-1.96386 0.41602,-2.94922 1.25648,-0.83442 2.48376,-1.69717 3.69335,-2.57422 z m 4.09961,1.22266 c -0.0218,0.92937 -0.0605,1.85872 -0.11523,2.7832 -1.15097,0.83746 -2.31303,1.65966 -3.49219,2.47461 0.10774,-0.97391 0.216,-1.94036 0.29492,-2.91211 1.13271,-0.76724 2.22751,-1.55507 3.3125,-2.3457 z m 3.51954,1.14258 c -0.01,1.20789 -0.0257,2.42558 -0.0449,3.64453 -1.02705,0.79772 -2.05823,1.57615 -3.08984,2.3457 0.14837,-1.28587 0.25784,-2.57006 0.3418,-3.85937 0.94236,-0.70698 1.8761,-1.41427 2.79297,-2.13086 z m -12.41211,0.93164 c -0.1243,0.95515 -0.24626,1.9096 -0.37696,2.85937 -0.91013,0.53657 -1.82694,1.06615 -2.75781,1.57813 -0.62797,0.34538 -1.1143,0.60352 -1.7168,0.93359 0.22457,-1.22121 0.34163,-1.90019 0.46094,-2.68554 0.54715,-0.32192 1.086,-0.63089 1.64258,-0.96485 0.92828,-0.55697 1.84143,-1.13515 2.74805,-1.7207 z m 16.94922,0.12695 c 0.0702,1.4429 0.11094,2.48761 0.14843,3.47656 -1.47289,1.12605 -2.96911,2.24236 -4.49609,3.33985 0.18532,-1.19505 0.3239,-2.3964 0.42969,-3.59961 1.32181,-1.05627 2.62591,-2.13132 3.91797,-3.2168 z m -12.38868,0.81641 c -0.0716,0.97509 -0.15431,1.93345 -0.24804,2.9082 -1.43708,0.97807 -2.88575,1.9307 -4.35157,2.85547 0.18331,-1.05704 0.36493,-2.11577 0.53516,-3.20117 1.38396,-0.82897 2.73911,-1.68547 4.06445,-2.5625 z m 4.14453,0.93945 c -0.0908,1.28819 -0.20242,2.56884 -0.31835,3.84961 -1.27255,0.93706 -2.53937,1.83948 -3.80079,2.71094 0.20074,-1.30108 0.3795,-2.62462 0.54688,-3.99805 1.2067,-0.84137 2.39745,-1.69354 3.57226,-2.5625 z m -14.19921,1.45313 c -0.11882,0.74865 -0.27286,1.65538 -0.44727,2.6289 -1.51142,0.82574 -3.0637,1.67435 -4.42187,2.40625 0.12996,-0.81773 0.24616,-1.64728 0.35156,-2.48828 1.4671,-0.80404 2.96948,-1.64806 4.51758,-2.54687 z m 17.8457,0.55664 c -0.0202,1.10891 -0.0487,2.19817 -0.0762,3.29101 -1.21179,0.8667 -2.43856,1.71382 -3.67383,2.54688 0.19041,-1.1198 0.36038,-2.23272 0.50586,-3.33594 1.08426,-0.81582 2.1673,-1.64971 3.24414,-2.50195 z m -12.91016,0.24414 c -0.1514,1.07643 -0.30457,2.14663 -0.45898,3.19336 -1.58991,0.98426 -3.18785,1.94019 -4.79492,2.83593 -0.0122,0.007 -0.0231,0.0125 -0.0352,0.0195 0.29245,-1.26456 0.54706,-2.45777 0.75977,-3.53711 0.84041,-0.45944 1.54485,-0.8363 2.43554,-1.32618 0.70431,-0.38737 1.40271,-0.78297 2.09375,-1.18554 z m 4.75,0.96679 c -0.14068,1.34548 -0.29165,2.63774 -0.45312,3.90625 -0.77628,0.52748 -1.55454,1.06208 -2.32032,1.55664 -0.79982,0.51656 -1.62543,1.01548 -2.44726,1.51758 0.2563,-1.29825 0.51267,-2.64397 0.76367,-4.04101 1.50455,-0.94533 2.98698,-1.93154 4.45703,-2.93946 z m -15.27734,1.36719 c -0.10867,0.83929 -0.22981,1.66528 -0.35742,2.48242 -1.65,0.88524 -3.13126,1.66351 -4.57813,2.41993 0.43511,-1.62225 0.65336,-2.49387 0.69922,-2.67969 1.36619,-0.69459 2.78343,-1.43786 4.23633,-2.22266 z m 19.35937,0.53711 c -0.0955,1.04492 -0.18116,2.08943 -0.26562,3.13086 -1.37936,0.9206 -2.76847,1.81442 -4.16406,2.67383 0.18182,-0.96299 0.356,-1.94993 0.5332,-3.02734 1.2956,-0.88842 2.59355,-1.81108 3.89648,-2.77735 z m -14.45703,0.23828 c -0.20698,1.09662 -0.43764,2.24947 -0.71094,3.51367 -1.49663,0.8279 -2.94988,1.62005 -4.36523,2.37891 0.25064,-1.13665 0.48271,-2.3092 0.69336,-3.50977 1.33083,-0.71366 2.90493,-1.57743 4.38281,-2.38281 z m 4.96875,1.38867 c -0.21299,1.41794 -0.40879,2.63823 -0.61523,3.94727 -1.78453,1.07173 -3.61078,2.09973 -5.45117,3.09766 0.41926,-1.44041 0.7889,-2.83456 1.11523,-4.16797 0.28522,-0.1577 0.55578,-0.30043 0.84375,-0.46094 1.37789,-0.768 2.7473,-1.57882 4.10742,-2.41602 z m -15.29101,0.65235 c -0.14659,0.5859 -0.33514,1.30391 -0.70118,2.71289 -1.47216,0.76331 -2.77068,1.40923 -4.06445,2.05273 0.37278,-1.66544 0.55277,-2.60441 0.58008,-2.74804 1.34247,-0.62511 2.73521,-1.29356 4.18555,-2.01758 z m 4.86914,0.90429 c -0.20281,1.19999 -0.42579,2.36105 -0.65821,3.49805 -1.77518,0.94446 -3.49886,1.84838 -5.13671,2.68555 0.40322,-1.37248 0.75004,-2.59299 1.05078,-3.6875 1.46767,-0.75655 3.06833,-1.60267 4.74414,-2.4961 z m 15.21289,0.13477 c -0.13814,1.03195 -0.27421,1.9656 -0.41016,2.88477 -1.08229,0.65682 -2.1654,1.30906 -3.25,1.91796 -0.60506,0.33969 -1.17923,0.64771 -1.77148,0.97461 0.17987,-0.84194 0.36739,-1.75156 0.55469,-2.67382 1.10428,-0.65641 2.1954,-1.32501 3.26171,-2.01368 0.53413,-0.34496 1.07731,-0.72784 1.61524,-1.08984 z m -25.39844,1.48633 c -0.10692,0.54096 -0.25124,1.24583 -0.5957,2.82031 -1.70003,0.83349 -3.27524,1.57797 -4.74805,2.24024 0.40764,-1.54232 0.59756,-2.30636 0.7832,-3.06446 1.43358,-0.59527 2.95389,-1.26365 4.56055,-1.99609 z m 14.62305,0.26367 c -0.30065,1.32677 -0.61339,2.67081 -0.98828,4.09375 -1.47372,0.78705 -2.95202,1.55424 -4.42578,2.28906 0.36845,-1.28389 0.72434,-2.6342 1.05859,-4.04687 1.41235,-0.74043 2.86355,-1.51923 4.35547,-2.33594 z m -10.34961,1.20899 c -0.30806,1.17194 -0.57316,2.2 -0.9668,3.64062 -1.38156,0.69983 -2.66197,1.32912 -3.9375,1.95312 0.35106,-1.34092 0.64685,-2.53828 0.89649,-3.60937 1.26217,-0.60897 2.58081,-1.25723 4.00781,-1.98437 z m 15.51953,0.56835 c -0.13256,0.82929 -0.2797,1.80792 -0.4043,2.56836 -2.12122,1.16443 -4.16271,2.25701 -6.10937,3.26172 0.31717,-0.92037 0.60879,-1.83246 0.88672,-2.73828 1.89718,-0.98515 3.78211,-2.01371 5.62695,-3.0918 z m -25.49609,0.41993 c -0.19743,0.81093 -0.46483,1.86593 -0.77149,3.09179 -1.64855,0.72117 -3.21422,1.353 -4.73047,1.92969 0.355,-1.44989 0.60896,-2.47981 0.77149,-3.2168 1.42727,-0.50375 3.01868,-1.11287 4.73047,-1.80468 z m 14.97461,0.66211 c -0.29978,1.38432 -0.61643,2.69747 -0.9375,3.95703 -1.86856,0.91988 -3.71242,1.78794 -5.52344,2.61523 0.43976,-1.35543 0.84761,-2.67339 1.22461,-3.92773 1.67012,-0.81829 3.42467,-1.70447 5.23633,-2.64453 z m -10.12891,0.88476 c -0.24338,1.08055 -0.5217,2.26925 -0.83985,3.57031 -1.767,0.8556 -3.47274,1.67224 -5.01562,2.38282 0.3946,-1.352 0.76104,-2.64236 1.07812,-3.81641 1.49191,-0.62435 3.06898,-1.32837 4.77735,-2.13672 z m -10.68555,0.65235 c -0.14361,0.67203 -0.36761,1.67038 -0.71094,3.21484 -0.85308,0.31344 -1.72762,0.62749 -2.58593,0.91797 0.46439,-1.64847 0.76355,-2.71101 0.9414,-3.37696 0.73012,-0.22208 1.50491,-0.46736 2.35547,-0.75585 z m 24.85352,0.92382 c -0.24328,0.88229 -0.50432,1.77135 -0.77735,2.66602 -1.56685,0.80218 -3.07606,1.55746 -4.51953,2.25976 0.2927,-0.87285 0.58466,-1.79015 0.875,-2.75586 1.47063,-0.69449 2.94768,-1.4168 4.42188,-2.16992 z m -10.32813,0.68946 c -0.34285,1.23984 -0.7011,2.51798 -1.08398,3.84375 -1.32061,0.59634 -2.61425,1.16515 -3.87305,1.70703 0.3905,-1.2771 0.75336,-2.5268 1.07422,-3.71094 1.24522,-0.57415 2.53719,-1.18875 3.88281,-1.83984 z m -9.71875,0.32031 c -0.31547,1.24952 -0.61607,2.39764 -0.99023,3.82422 -1.76699,0.80419 -3.37314,1.51872 -4.80664,2.13281 0.44828,-1.56236 0.78623,-2.89028 1.125,-4.24023 1.5118,-0.49548 3.05308,-1.06495 4.67187,-1.7168 z m 14.79688,1.54297 c -0.25777,0.97248 -0.51375,1.85229 -0.76953,2.72851 -2.06919,0.99828 -3.99629,1.8883 -5.78711,2.68946 0.34809,-0.98215 0.6698,-1.95915 0.99218,-2.9336 1.81878,-0.77562 3.68243,-1.60789 5.56446,-2.48437 z m -10.01367,0.46094 c -0.29222,1.16664 -0.60228,2.37038 -0.94336,3.61523 -1.85945,0.79143 -3.52306,1.46472 -5.16993,2.12305 0.39053,-1.19733 0.75865,-2.37287 1.10938,-3.55274 1.57546,-0.66547 3.19384,-1.36235 5.00391,-2.18554 z m -10.4668,0.0293 c -0.32858,1.46077 -0.6011,2.60187 -1.00586,4.30078 -1.10559,0.46732 -2.11741,0.89331 -2.99023,1.24414 0.537,-1.73895 0.97479,-3.26312 1.4082,-4.78906 0.86887,-0.23649 1.72934,-0.48866 2.58789,-0.75586 z m 14.0625,2.35742 c -0.28132,0.96362 -0.56282,1.91974 -0.85742,2.88868 -1.44563,0.64001 -2.74722,1.19072 -3.99024,1.70703 0.35501,-1.0111 0.69531,-2.02295 1.00977,-3.02539 1.24923,-0.49693 2.52526,-1.0177 3.83789,-1.57032 z m -9.57617,0.20118 c -0.3065,1.15902 -0.60862,2.30277 -0.93164,3.4707 -1.84803,0.73182 -3.478,1.36224 -4.92383,1.90039 0.38458,-1.14134 0.74969,-2.2974 1.08984,-3.46094 1.4222,-0.54082 3.01175,-1.18133 4.76563,-1.91015 z m 4.83593,1.72265 c -0.27777,0.9953 -0.56235,1.99529 -0.86718,2.9961 -2.19337,0.89991 -3.90912,1.54883 -5.375,2.08203 0.38108,-1.02299 0.75115,-2.06274 1.11133,-3.15039 1.63192,-0.59396 3.2844,-1.20288 5.13085,-1.92774 z m -10.44335,0.50586 c -0.2747,1.14482 -0.53471,2.23913 -0.82032,3.35938 -1.82891,0.67579 -2.4071,0.87695 -3.28515,1.17968 0.37835,-1.09849 0.7598,-2.25755 1.13281,-3.45703 0.87116,-0.30136 1.86547,-0.66873 2.97266,-1.08203 z"
           transform="matrix(-0.26250449,0,0,0.26250449,151.99368,56.696426)"
           sodipodi:nodetypes="cssscccccccssscsccccccccccccccccccccccccccccccccccccscccccccccccccccccccccccccccscccccccccccccccccccccccccccccccccccccccccccccccccccccccccccccccccccccccsccsccccccccccccccccccccccccccccsccscccsccccccccccccccccccccccscccccccccccccsccsccccccccccccccccccccccccccccccccccccccccccccccccccccccccccccccccccccccccccccccccccccccccccc" />
        <path
           id="path2514"
           style="font-variation-settings:normal;vector-effect:none;fill:#808080;fill-opacity:1;stroke:none;stroke-width:0.496072;stroke-linecap:butt;stroke-linejoin:miter;stroke-miterlimit:4;stroke-dasharray:none;stroke-dashoffset:0;stroke-opacity:1;stop-color:#000000"
           d="m 321.51367,351.93945 c -12.28627,12.18065 -29.48607,28.35803 -40.24219,36.83399 6.69845,6.28903 13.53334,12.35405 20.03711,17.5 6.53855,5.17345 12.96987,9.98515 19.25196,14.49023 8.29071,-5.75792 16.89613,-12.08272 25.68554,-19.03711 4.82204,-3.81531 9.82691,-8.151 14.82422,-12.68945 -12.25158,-10.36433 -28.96722,-26.37418 -39.55664,-37.09766 z"
           transform="matrix(-0.26458333,0,0,0.26458333,172.73512,0)" />
      </g>
      <g
         id="g2504"
         style="stroke-width:0.992143">
        <path
           style="font-variation-settings:normal;opacity:1;vector-effect:none;fill:#cfcfcf;fill-opacity:1;stroke:none;stroke-width:0.131253;stroke-linecap:butt;stroke-linejoin:miter;stroke-miterlimit:4;stroke-dasharray:none;stroke-dashoffset:0;stroke-opacity:1;stop-color:#000000;stop-opacity:1"
           d="m 143.65458,134.44141 c 0.99218,2.4096 0.7087,4.60658 0.7087,4.60658 -4.46484,4.3231 -13.25279,7.08705 -13.25279,7.08705 0,0 -2.12611,-2.90569 -7.4414,-1.55915 -0.94549,-1.26066 -2.16364,-4.31228 -3.49803,-10.8409 -1.3344,-6.52862 -4.05389,-7.10243 -8.61944,-9.22079 -4.56555,-2.11837 -4.99121,-2.05566 -10.31177,-4.97136 -5.320559,-2.9157 -12.459206,-7.19481 -20.115442,-13.2526 -7.656236,-6.0578 -17.079945,-16.855174 -17.079945,-16.855174 0,0 -0.75707,0.924868 -2.24536,1.704443 -6.24786,-4.07483 -8.53425,-7.868426 -11.25175,-8.728374 -1.7491,4.966373 -0.50622,8.765496 2.00452,11.868191 -1.7276,6.985504 -1.18632,14.251854 0.30068,19.544084 0,0 -6.34429,1.34051 -15.84094,-5.17958 -9.49665,-6.52009 -12.20692,-12.307148 -12.20692,-12.307148 0,0 3.52588,-1.856904 8.2365,-9.674537 4.71063,-7.817634 7.21628,-15.134137 7.21628,-15.134137 0,0 -1.84558,-1.532747 -2.84784,-2.635233 0,0 0.94354,-2.676749 1.34445,-5.683531 0,0 2.37445,1.093956 3.9336,1.944402 0.58457,-1.37406 0.7098,-3.390743 1.53553,-4.819197 1.49681,0.598722 8.55924,4.543449 10.41797,5.811385 0,0 0.18248,0.671548 -0.56922,1.172679 -0.75169,0.50113 -0.90203,0.551243 -1.1526,1.252826 6.59002,3.320997 11.46869,6.912474 20.549759,10.378438 0,0 -0.496093,1.630023 -0.850449,2.55134 2.440932,1.533501 4.881865,2.636752 7.322797,3.607032 0,0 1.976641,1.94581 4.644791,4.852366 2.573101,2.803015 10.812256,10.800095 14.520621,13.506205 3.708368,2.7061 6.564808,5.61266 10.824418,7.96797 4.25961,2.35531 6.41447,3.8587 10.67407,6.1639 4.25961,2.3052 4.56029,3.20723 6.81538,6.21402 2.25508,3.00678 4.89892,8.83709 8.85785,10.84161 3.95893,2.00452 7.37598,-0.21281 7.37598,-0.21281 z"
           id="path2440"
           sodipodi:nodetypes="cccczzzzcccccscsccccccsccccssssssc" />
        <path
           id="path2442"
           style="font-variation-settings:normal;opacity:1;vector-effect:none;fill:#ffffff;fill-opacity:1;stroke:none;stroke-width:0.496072;stroke-linecap:butt;stroke-linejoin:miter;stroke-miterlimit:4;stroke-dasharray:none;stroke-dashoffset:0;stroke-opacity:1;stop-color:#000000;stop-opacity:1"
           d="m 167.14258,228.03516 c -3.12087,5.39888 -3.59334,13.02154 -5.80274,18.21484 -5.89285,-3.21428 -14.86718,-7.34961 -14.86718,-7.34961 -1.51525,11.36422 -5.08204,21.48242 -5.08204,21.48242 0.53602,0.58962 1.14445,1.21199 1.7793,1.84571 4.32181,-8.32691 6.02735,-18.03125 6.02735,-18.03125 4.82143,2.41071 9.91015,5.625 9.91015,5.625 -2.41073,8.83928 -6.95312,20.51953 -6.95312,20.51953 0,0 -9.46948,27.65225 -27.27344,57.19922 -17.80392,29.54695 -31.13086,36.5664 -31.13086,36.5664 0,0 0.352455,0.74608 1.132812,2.09375 2.978653,-1.57992 12.383358,-7.19272 22.794918,-20.04101 12.58927,-15.53573 26.25002,-45.53461 33.75,-61.07032 7.50002,-15.53572 11.51927,-32.41127 13.66211,-35.08984 2.14284,-2.67857 4.82032,-2.67773 4.82032,-2.67773 0,0 -3.48133,-6.16156 -0.80274,-14.19727 0,0 20.62601,13.74852 36.22852,20.50586 1.6923,-1.73695 1.18164,-3.63086 1.18164,-3.63086 -7.02512,-4.7922 -33.71777,-19.70196 -39.375,-21.96484 z m 32.86719,31.13281 c 0,0 -2.77785,2.61774 -0.36719,5.83203 2.41073,3.21428 17.41014,11.5187 36.16015,21.69727 16.98043,9.21796 30.15565,12.96967 40.375,16.41015 0.81998,-2.50066 1.5,-4.71484 1.5,-4.71484 -34.32215,-13.09971 -52.7608,-26.67281 -77.66796,-39.22461 z m 76.70312,50.23047 -3.14062,6.3164 c 0,0 13.39146,6.42718 21.96289,12.58789 8.57142,6.16072 24.375,26.78627 35.625,36.96485 11.25,10.17857 46.33929,39.644 67.5,53.30469 21.1607,13.66072 37.76816,24.91041 55.98242,32.14257 18.2143,7.23213 25.17939,24.91043 38.57226,43.39258 13.39287,18.48212 18.74944,22.23244 32.41016,24.10742 0,0 -17.14316,10.98186 -29.73242,15.26758 0,0 9.34684,0.96083 23.57226,-5.625 12.05238,-5.57979 20.55574,-10.59921 25.07618,-14.9082 -0.39795,-1.55277 -0.91429,-3.17408 -1.59375,-4.82422 0,0 -12.91603,8.38083 -27.87891,0.80469 -14.96289,-7.57614 -24.95538,-29.61236 -33.47852,-40.97657 -8.52317,-11.36424 -9.6585,-14.77376 -25.75781,-23.48632 -16.09927,-8.71257 -24.24444,-14.39492 -40.34375,-23.29688 -16.09931,-8.90196 -26.89428,-19.88745 -40.91016,-30.11523 -14.01586,-10.22782 -45.1577,-40.45281 -54.88281,-51.04688 -10.08434,-10.98541 -17.55469,-18.33984 -17.55469,-18.33984 -8.47628,-3.36936 -16.95145,-7.18024 -25.42773,-12.26953 z m 170.38672,177.49218 c 3.02346,4.30912 5.3633,10.11726 7.08984,18.56446 5.04337,24.6751 9.6472,36.20796 13.22071,40.97265 1.22103,-0.30933 2.39641,-0.55529 3.52929,-0.75195 -4.40083,-9.16515 -6.66248,-19.47965 -10.81445,-36.43359 -2.95015,-12.04646 -9.0777,-18.96332 -13.02539,-22.35157 z"
           transform="scale(0.26458333)" />
        <path
           id="path2465"
           style="font-variation-settings:normal;opacity:1;vector-effect:none;fill:#808080;fill-opacity:1;stroke:none;stroke-width:0.496072;stroke-linecap:butt;stroke-linejoin:miter;stroke-miterlimit:4;stroke-dasharray:none;stroke-dashoffset:0;stroke-opacity:1;stop-color:#000000;stop-opacity:1"
           d="m 170.33789,242.18359 c 0,0 -3.15796,4.47295 7.95313,10.98633 10.98541,6.43972 17.47925,8.67011 19.32031,7.19727 1.84106,-1.47285 1.14785,-3.26284 -3.97852,-4.92578 -4.21204,-1.36634 -16.95399,-8.72858 -23.29492,-13.25782 z m 104.12695,65.85157 c -1.71345,4.9283 -9.01757,17.58984 -9.01757,17.58984 0,0 -7.50168,0.80441 -13.39454,2.94727 -5.89285,2.14285 -9.99414,9.44921 -9.99414,9.44921 0,0 1.28553,1.45515 3.07618,3.45899 1.99918,-1.63249 4.64655,-3.93952 7.72265,-7.01563 6.69643,-6.69642 17.67774,-4.01757 17.67774,-4.01757 2.4842,-8.16239 5.66767,-15.76195 7.61718,-20.1836 -1.22929,-0.71721 -2.45821,-1.45622 -3.6875,-2.22851 z m -160.06445,41.47461 c 0,0 0.24322,1.33028 2.12109,3.82421 2.13901,2.84074 5.54828,6.98233 9.92383,11.57813 -0.0677,1.47504 -0.0946,2.97377 -0.0957,4.48047 -7.83761,-7.27056 -12.59766,-13.05469 -12.59766,-13.05469 0,0 4.69827,6.18334 12.60157,13.83594 0.006,1.16354 0.0249,2.29812 0.0586,3.42383 -9.36303,-8.11337 -15.67578,-14.74219 -15.67578,-14.74219 0,0 6.27576,7.03346 15.69922,15.52344 0.048,1.37609 0.10521,2.69372 0.17578,3.92578 -10.05404,-8.69767 -17.76953,-16.41406 -17.76953,-16.41407 0,0 7.69838,8.23136 17.82226,17.33594 0.10822,1.7386 0.22195,3.15819 0.32227,4.33008 -11.58585,-9.50666 -20.03321,-18.25976 -20.03321,-18.25976 0,0 8.41975,9.31543 20.11329,19.23437 0.0865,0.93981 0.16406,1.71875 0.16406,1.71875 0,0 -0.0166,-0.78015 -0.0312,-1.60742 1.77983,1.50725 3.63425,3.02221 5.54687,4.52539 0.0578,1.18877 0.10938,1.90234 0.10938,1.90234 0,0 0.0151,-0.64449 0.0547,-1.77343 1.54645,1.21248 3.1193,2.41512 4.73046,3.58789 0.0498,0.27001 0.0876,0.54086 0.14258,0.81054 -0.007,-0.23628 -0.011,-0.48475 -0.0176,-0.72265 1.26596,0.91956 2.54664,1.8223 3.8418,2.69922 0.19175,1.0426 0.39836,2.09613 0.62696,3.16796 -0.0384,-0.95409 -0.0951,-1.9093 -0.16407,-2.86523 1.41509,0.94939 2.84214,1.87081 4.2793,2.74805 0.69111,3.45422 1.32263,5.7833 1.50977,5.74218 0,0 -0.40307,-2.1594 -0.89649,-5.36914 0.8486,0.51019 1.69836,1.01169 2.55078,1.49024 0.86384,0.48496 1.69303,0.93315 2.53125,1.39062 0.94325,4.29745 1.70508,7.3086 1.70508,7.3086 0,0 -0.52393,-2.93068 -1.20703,-7.03711 2.20845,1.19858 4.31577,2.29838 6.33398,3.3125 1.03599,2.83472 2.25594,5.66854 3.71289,8.27929 -1.17142,-2.51997 -2.17684,-5.23104 -3.04882,-7.94531 1.55455,0.77439 3.06894,1.51219 4.5,2.18164 1.775,5.0527 3.36914,8.17383 3.36914,8.17383 0,0 -1.27091,-3.02224 -2.74414,-7.88477 2.07513,0.96145 4.01719,1.81746 5.80664,2.56836 0.88771,2.43385 1.83379,4.82591 2.82812,6.92579 -0.737,-2.0403 -1.47862,-4.3365 -2.19922,-6.66797 1.41304,0.58548 2.7449,1.11607 3.95899,1.57617 0.97485,2.67624 2.0892,5.28732 3.33398,7.50195 -0.94902,-2.16051 -1.83479,-4.67303 -2.64062,-7.24805 2.14793,0.79822 3.86067,1.3613 5.2832,1.78711 0.53934,1.41167 1.08576,2.75073 1.63867,3.85157 -0.37199,-1.07518 -0.76913,-2.35876 -1.17383,-3.71094 2.16366,0.62787 3.44922,0.86806 3.48438,0.72851 0,0 -1.3473,-0.40849 -3.63086,-1.22656 -0.29242,-0.989 -0.57608,-1.98503 -0.86914,-3.03711 1.82476,0.65694 3.43006,1.21666 4.85351,1.69141 0.5164,1.51259 1.05546,2.97518 1.625,4.21484 -0.35219,-1.20242 -0.72152,-2.59587 -1.08984,-4.0332 1.33986,0.44307 2.39836,0.7855 3.23633,1.04492 0.56713,1.63934 1.1224,3.10334 1.60351,4.0625 -0.20251,-0.80224 -0.67531,-2.59848 -1.00586,-3.875 0.82114,0.25099 1.33399,0.40235 1.33399,0.40235 0,0 -1.03825,-0.36749 -1.35352,-0.47461 -0.28733,-1.10938 -0.53916,-2.08731 -0.86914,-3.35157 2.35559,0.79266 3.74024,1.17578 3.74024,1.17578 0,0 -1.40566,-0.48982 -3.8086,-1.4375 -0.56117,-2.14912 -0.77376,-2.98166 -1.25976,-4.83203 1.83309,0.47376 3.73301,0.90582 5.82812,1.3418 -2.15608,-0.63153 -4.08143,-1.2331 -5.96093,-1.84961 -0.39619,-1.50765 -0.7341,-2.79015 -0.88868,-3.37695 0.63694,0.18051 1.27863,0.36287 1.79688,0.48828 3.1712,0.76739 4.73828,-0.24805 4.73828,-0.24805 0,0 -1.88983,-1.99813 -4.4082,-2.64844 -5.51071,-1.42295 -17.44844,-5.69481 -34.41211,-15.87304 -16.72031,-10.0322 -30.08727,-24.60265 -36.07227,-31.14649 -2.02948,-2.21897 -3.71289,-3.17968 -3.71289,-3.17968 z m 12.99414,16.39062 c 1.74045,1.79578 3.61835,3.64566 5.62891,5.51367 -0.0969,1.24354 -0.17883,2.4558 -0.23828,3.63867 -1.97037,-1.64457 -3.82927,-3.26536 -5.54102,-4.83007 0.0357,-1.4498 0.0865,-2.89053 0.15039,-4.32227 z m -0.16992,5.12109 c 1.69974,1.61924 3.55363,3.29759 5.51758,4.98829 -0.0419,0.96562 -0.0799,1.90271 -0.10157,2.80859 -1.9044,-1.5432 -3.73013,-3.0664 -5.45703,-4.55078 0.0116,-1.09593 0.0163,-2.10595 0.041,-3.2461 z m -19.13867,0.71485 c 0,0 8.36484,13.24921 26.13867,23.48633 C 117.33758,383.489 108.08594,371.73633 108.08594,371.73633 Z M 133.9375,372.25 c 0.88096,0.80462 1.78504,1.6074 2.71094,2.41016 0.003,1.1779 0.005,2.35474 0.006,3.51953 -1.02269,-0.79826 -2.02925,-1.59606 -2.99805,-2.39258 0.0847,-1.15038 0.17882,-2.32405 0.28125,-3.53711 z m -6.75977,2.80078 c 1.71741,1.53367 3.54916,3.10872 5.44727,4.69531 -0.0227,1.28633 -0.0325,2.48817 -0.0254,3.60547 -1.8682,-1.53305 -3.69141,-3.06629 -5.45117,-4.58203 -0.002,-1.12643 0.019,-2.45821 0.0293,-3.71875 z m 10.44141,0.45313 c 0.86925,0.73924 1.75733,1.47395 2.66211,2.20312 -0.045,1.06646 -0.0702,2.11963 -0.0723,3.15625 -0.88702,-0.64864 -1.76761,-1.29812 -2.62109,-1.95312 0.003,-1.18337 0.0173,-2.2952 0.0312,-3.40625 z m -4.03125,1.23828 c 0.99513,0.84285 2.02141,1.68761 3.07617,2.52929 0.004,0.92334 0.0221,1.83968 0.0391,2.75586 -1.11999,-0.86486 -2.21556,-1.726 -3.29101,-2.58984 0.057,-0.90448 0.10708,-1.72583 0.17578,-2.69531 z m 7.55273,1.64453 c 0.98483,0.77966 1.98887,1.54796 3.01172,2.30664 0.023,0.99175 0.0716,2.00927 0.14063,3.04297 -1.09449,-0.73812 -2.17834,-1.48353 -3.23047,-2.24024 -0.005,-1.03284 0.0198,-2.06929 0.0781,-3.10937 z m -13.98828,1.28125 c 1.75541,1.57118 3.58289,3.15756 5.45118,4.73633 0.0201,1.53956 0.0659,2.62901 0.10937,3.68359 -1.89778,-1.45539 -3.7534,-2.91831 -5.52539,-4.36914 -0.0154,-1.07184 -0.0287,-2.47021 -0.0352,-4.05078 z m 10.4375,0.32226 c 0.86,0.67389 1.72903,1.34663 2.625,2.01172 0.0119,0.91876 0.039,1.83092 0.084,2.73633 -0.914,-0.67345 -1.81398,-1.3469 -2.70508,-2.02734 -0.006,-0.92515 -0.004,-1.81909 -0.004,-2.72071 z m -4.23046,0.36719 c 1.09534,0.90695 2.21565,1.80964 3.35937,2.71485 0.0334,1.24477 0.0843,2.48508 0.16992,3.71875 -1.25669,-0.985 -2.50016,-1.97872 -3.73242,-2.98438 0.0531,-1.0358 0.13104,-2.25478 0.20313,-3.44922 z m 11.80078,1.07031 c 1.20009,0.87016 2.4194,1.72487 3.66601,2.55274 0.12822,0.97762 0.26659,1.95303 0.41211,2.92578 -1.33484,-0.80701 -2.64013,-1.63901 -3.92383,-2.48633 -0.0628,-1.01141 -0.12702,-2.01905 -0.15429,-2.99219 z m -4.06641,1.21289 c 1.07647,0.78442 2.1633,1.56497 3.28711,2.32618 0.0783,0.96411 0.18413,1.92436 0.29102,2.89062 -1.16989,-0.80855 -2.32292,-1.62615 -3.46485,-2.45703 -0.0543,-0.91722 -0.0916,-1.8377 -0.11328,-2.75977 z m -3.49219,1.13282 c 0.90966,0.71096 1.83653,1.41186 2.77149,2.11328 0.0833,1.27918 0.19069,2.55431 0.33789,3.83008 -1.0235,-0.76351 -2.04548,-1.53668 -3.06446,-2.32813 -0.0191,-1.20937 -0.035,-2.41683 -0.0449,-3.61523 z m 12.31446,0.92383 c 0.89949,0.58095 1.80557,1.15443 2.72656,1.70703 0.55221,0.33133 1.08605,0.63959 1.6289,0.95898 0.11837,0.77918 0.23619,1.45244 0.45899,2.66406 -0.59776,-0.32748 -1.08009,-0.58506 -1.70313,-0.92773 -0.92356,-0.50796 -1.83334,-1.0321 -2.73632,-1.56445 -0.12967,-0.94231 -0.25168,-1.89024 -0.375,-2.83789 z m -16.81641,0.12695 c 1.2819,1.07695 2.57724,2.14343 3.88867,3.1914 0.10496,1.19376 0.24191,2.38466 0.42578,3.57032 -1.51498,-1.08887 -2.99962,-2.1953 -4.46094,-3.3125 0.0372,-0.98118 0.0768,-2.01766 0.14649,-3.44922 z m 12.29101,0.81055 c 1.31493,0.87014 2.66012,1.71856 4.03321,2.54101 0.16889,1.07687 0.34938,2.12705 0.53125,3.17578 -1.4543,-0.9175 -2.89257,-1.86165 -4.31836,-2.83203 -0.093,-0.96709 -0.17505,-1.91733 -0.2461,-2.88476 z m -4.11132,0.93164 c 1.16558,0.86213 2.3477,1.70625 3.54492,2.54101 0.16606,1.36264 0.34381,2.67594 0.54297,3.9668 -1.25151,-0.86461 -2.50894,-1.75975 -3.77149,-2.68945 -0.11502,-1.27071 -0.22635,-2.54029 -0.3164,-3.81836 z m 14.08789,1.4414 c 1.53593,0.89175 3.02684,1.72963 4.48242,2.52735 0.10457,0.83439 0.21872,1.65744 0.34766,2.46875 -1.3475,-0.72615 -2.88718,-1.56943 -4.38672,-2.38868 -0.17304,-0.96587 -0.32548,-1.86465 -0.44336,-2.60742 z m -17.70508,0.55274 c 1.06838,0.84555 2.14301,1.67301 3.21875,2.48242 0.14434,1.09455 0.31303,2.19759 0.50195,3.30859 -1.22557,-0.82651 -2.44226,-1.66745 -3.64453,-2.52734 -0.0273,-1.08426 -0.0562,-2.16347 -0.0762,-3.26367 z m 12.80859,0.24218 c 0.68561,0.39941 1.37741,0.79146 2.07618,1.17579 0.88369,0.48603 1.58415,0.86057 2.41796,1.3164 0.21103,1.07086 0.46376,2.25319 0.75391,3.50781 -0.012,-0.007 -0.0231,-0.0128 -0.0352,-0.0195 -1.59445,-0.88871 -3.18039,-1.83597 -4.75781,-2.8125 -0.1532,-1.0385 -0.30487,-2.1 -0.45508,-3.16797 z m -4.71289,0.95899 c 1.4585,1 2.92915,1.97811 4.42188,2.91601 0.24903,1.38607 0.50352,2.72172 0.75781,4.00977 -0.81537,-0.49816 -1.63419,-0.99336 -2.42773,-1.50586 -0.75976,-0.49068 -1.53256,-1.02159 -2.30274,-1.54492 -0.1602,-1.25855 -0.30964,-2.5401 -0.44922,-3.875 z m 15.15821,1.35547 c 1.44148,0.77863 2.84571,1.51595 4.20117,2.20508 0.0455,0.18436 0.26362,1.05065 0.69531,2.66015 -1.4355,-0.75047 -2.90594,-1.52406 -4.54297,-2.40234 -0.12661,-0.81072 -0.2457,-1.6302 -0.35351,-2.46289 z m -19.20899,0.5332 c 1.2927,0.95868 2.58177,1.87443 3.86719,2.75586 0.17581,1.06895 0.3489,2.04849 0.5293,3.00391 -1.38463,-0.85266 -2.7643,-1.73898 -4.13282,-2.65235 -0.0838,-1.03325 -0.16893,-2.07071 -0.26367,-3.10742 z m 14.34375,0.23633 c 1.46627,0.79905 3.02924,1.65717 4.34961,2.36523 0.20899,1.19113 0.43883,2.35275 0.6875,3.48047 -1.40423,-0.7529 -2.84715,-1.53798 -4.33203,-2.35937 -0.27115,-1.25427 -0.49972,-2.39833 -0.70508,-3.48633 z m -4.92969,1.3789 c 1.34944,0.83062 2.70912,1.63452 4.07618,2.39649 0.28571,0.15925 0.55295,0.30057 0.83593,0.45703 0.32377,1.32294 0.69145,2.70568 1.10742,4.13477 -1.82593,-0.99009 -3.63769,-2.00896 -5.4082,-3.07227 -0.20482,-1.29875 -0.40001,-2.50923 -0.61133,-3.91602 z m 15.17188,0.64649 c 1.43894,0.71833 2.82042,1.38176 4.15234,2.00195 0.0271,0.14251 0.20632,1.0742 0.57617,2.72656 -1.2836,-0.63845 -2.5726,-1.27979 -4.0332,-2.0371 -0.36316,-1.39791 -0.54987,-2.11011 -0.69531,-2.69141 z m -4.83203,0.89648 c 1.66264,0.88641 3.25089,1.72597 4.70703,2.47657 0.29837,1.08591 0.64291,2.2965 1.04297,3.6582 -1.62499,-0.83059 -3.33447,-1.72702 -5.09571,-2.66406 -0.23059,-1.12807 -0.45308,-2.28015 -0.65429,-3.47071 z m -15.0918,0.13477 c 0.5337,0.35916 1.07163,0.73783 1.60156,1.08008 1.05794,0.68325 2.14072,1.34679 3.23633,1.99804 0.18582,0.91502 0.37232,1.81897 0.55078,2.6543 -0.5876,-0.32434 -1.1575,-0.63173 -1.75781,-0.96875 -1.07608,-0.60412 -2.15082,-1.25068 -3.22461,-1.90234 -0.13488,-0.91194 -0.2692,-1.83749 -0.40625,-2.86133 z m 25.19727,1.47461 c 1.59404,0.72669 3.10308,1.38987 4.52539,1.98047 0.18419,0.75214 0.3729,1.50886 0.77734,3.03906 -1.46124,-0.65706 -3.02427,-1.39572 -4.71094,-2.22266 -0.34176,-1.56211 -0.48571,-2.26016 -0.59179,-2.79687 z m -14.50782,0.26172 c 1.4802,0.81029 2.92102,1.58179 4.32227,2.3164 0.33162,1.40157 0.68327,2.74182 1.04883,4.01563 -1.46219,-0.72905 -2.92849,-1.49062 -4.39063,-2.27149 -0.37195,-1.41176 -0.68218,-2.7442 -0.98047,-4.06054 z m 10.26953,1.19922 c 1.41579,0.72143 2.72235,1.36456 3.97461,1.96875 0.24767,1.06267 0.54233,2.24968 0.89063,3.58007 -1.26551,-0.6191 -2.53554,-1.24317 -3.90625,-1.9375 -0.39055,-1.4293 -0.65335,-2.44858 -0.95899,-3.61132 z m -15.39843,0.56445 c 1.83034,1.06962 3.69975,2.089 5.58203,3.06641 0.27574,0.8987 0.56618,1.80365 0.88086,2.71679 -1.93137,-0.99682 -3.95794,-2.08105 -6.0625,-3.23633 -0.12362,-0.75447 -0.26887,-1.7241 -0.40039,-2.54687 z m 25.29492,0.41602 c 1.69834,0.68638 3.2773,1.29121 4.69336,1.79101 0.16125,0.7312 0.41341,1.75291 0.76562,3.19141 -1.50433,-0.57216 -3.05776,-1.20052 -4.69336,-1.91602 -0.30425,-1.21623 -0.56975,-2.26184 -0.76562,-3.0664 z m -14.85547,0.65624 c 1.79742,0.93268 3.53831,1.81314 5.19531,2.625 0.37403,1.24449 0.77854,2.55171 1.21485,3.89649 -1.79679,-0.82079 -3.6266,-1.68304 -5.48047,-2.5957 -0.31855,-1.24966 -0.63227,-2.55234 -0.92969,-3.92579 z m 10.04883,0.87891 c 1.69495,0.802 3.26005,1.4997 4.74023,2.11914 0.31459,1.16483 0.67686,2.44574 1.06836,3.78711 -1.53076,-0.70499 -3.22149,-1.51636 -4.97461,-2.36523 -0.31565,-1.29084 -0.59251,-2.46896 -0.83398,-3.54102 z m 10.60156,0.64649 c 0.84388,0.28623 1.61156,0.52966 2.33594,0.75 0.17646,0.66071 0.47481,1.71408 0.93555,3.3496 -0.85157,-0.2882 -1.72003,-0.59917 -2.56641,-0.91015 -0.34063,-1.53232 -0.5626,-2.5227 -0.70508,-3.18945 z m -24.6582,0.91601 c 1.46261,0.7472 2.92765,1.46526 4.38672,2.1543 0.28806,0.95812 0.57874,1.86837 0.86914,2.73437 -1.43213,-0.69679 -2.92984,-1.4463 -4.48438,-2.24218 -0.27088,-0.88764 -0.53011,-1.77114 -0.77148,-2.64649 z m 10.24609,0.68555 c 1.33505,0.64598 2.61808,1.25458 3.85352,1.82422 0.31834,1.17484 0.67702,2.41458 1.06445,3.68164 -1.24891,-0.53762 -2.53157,-1.1017 -3.8418,-1.69336 -0.37987,-1.31535 -0.73601,-2.5824 -1.07617,-3.8125 z m 9.64258,0.3164 c 1.60607,0.64673 3.13485,1.21155 4.63477,1.70313 0.33611,1.33935 0.67242,2.65695 1.11718,4.20703 -1.42224,-0.60927 -3.01643,-1.31736 -4.76953,-2.11523 -0.37122,-1.41537 -0.66943,-2.55523 -0.98242,-3.79493 z m -14.67969,1.53125 c 1.86724,0.8696 3.71504,1.69532 5.51953,2.46485 0.31985,0.96679 0.63902,1.93572 0.98438,2.91015 -1.77675,-0.79486 -3.68731,-1.67753 -5.74024,-2.66796 -0.25377,-0.86934 -0.50793,-1.7422 -0.76367,-2.70704 z m 9.9336,0.45704 c 1.79584,0.81673 3.40176,1.50772 4.96484,2.16796 0.34797,1.1706 0.7141,2.33747 1.10156,3.52539 -1.63393,-0.65315 -3.28406,-1.32025 -5.1289,-2.10546 -0.3384,-1.23507 -0.64758,-2.43041 -0.9375,-3.58789 z m 10.38476,0.0293 c 0.8518,0.2651 1.70631,0.51537 2.56836,0.75 0.43,1.51395 0.8637,3.02667 1.39649,4.75196 -0.86597,-0.34808 -1.8699,-0.77073 -2.9668,-1.23438 -0.40158,-1.68556 -0.67205,-2.81829 -0.99805,-4.26758 z m -13.95117,2.33985 c 1.30232,0.54827 2.56917,1.06362 3.80859,1.55664 0.31199,0.99457 0.64778,1.9988 1,3.00195 -1.23325,-0.51225 -2.52471,-1.05837 -3.95898,-1.69336 -0.29229,-0.96132 -0.5705,-1.90918 -0.84961,-2.86523 z m 9.5,0.19921 c 1.7401,0.7231 3.3175,1.35797 4.72852,1.89454 0.33748,1.1544 0.70047,2.30122 1.08203,3.43359 -1.43447,-0.53392 -3.05126,-1.1587 -4.88477,-1.88477 -0.32049,-1.15875 -0.62169,-2.29344 -0.92578,-3.44336 z m -4.79688,1.70899 c 1.83195,0.71916 3.47075,1.32282 5.08985,1.91211 0.35735,1.07911 0.72542,2.11005 1.10351,3.125 -1.45437,-0.52901 -3.15785,-1.17161 -5.33398,-2.06445 -0.30244,-0.99294 -0.58379,-1.98518 -0.85938,-2.97266 z m 10.36133,0.50195 c 1.09849,0.41005 2.0849,0.77328 2.94922,1.07227 0.37008,1.19005 0.74767,2.34178 1.12305,3.43164 -0.87115,-0.30036 -1.44327,-0.5014 -3.25781,-1.17188 -0.28336,-1.11144 -0.54192,-2.19621 -0.81446,-3.33203 z"
           transform="scale(0.26458333)" />
      </g>
    </g>
  </g>
</svg>
