<?xml version="1.0" encoding="UTF-8" standalone="no"?>
<svg
   xmlns:dc="http://purl.org/dc/elements/1.1/"
   xmlns:cc="http://creativecommons.org/ns#"
   xmlns:rdf="http://www.w3.org/1999/02/22-rdf-syntax-ns#"
   xmlns:svg="http://www.w3.org/2000/svg"
   xmlns="http://www.w3.org/2000/svg"
   width="500"
   height="650"
   viewBox="0 0 132.29166 171.97917"
   version="1.1"
   id="svg847">
  <defs
     id="defs841" />
  <metadata
     id="metadata844">
    <rdf:RDF>
      <cc:Work
         rdf:about="">
        <dc:format>image/svg+xml</dc:format>
        <dc:type
           rdf:resource="http://purl.org/dc/dcmitype/StillImage" />
        <dc:title></dc:title>
      </cc:Work>
    </rdf:RDF>
  </metadata>
  <g
     id="layer1"
     transform="translate(-13.611802,-63.489105)">
    <path
       id="path1212"
       style="opacity:1;fill:#bfbfbf;fill-opacity:1;fill-rule:evenodd;stroke:none;stroke-width:0.383769;stroke-linejoin:miter;stroke-miterlimit:4;stroke-dasharray:none"
       d="M 145.90347,141.1915 V 63.489105 H 13.611802 V 141.1915 l 66.145829,1.53508 z" />
    <g
       id="g1841"
       style="opacity:1"
       transform="matrix(1.450466,0,0,1.450466,-56.140487,-48.365725)">
      <path
         style="font-variation-settings:normal;opacity:1;vector-effect:none;fill:#e90c0c;fill-opacity:1;stroke:none;stroke-width:0.132292;stroke-linecap:butt;stroke-linejoin:miter;stroke-miterlimit:5;stroke-dasharray:none;stroke-dashoffset:0;stroke-opacity:1;stop-color:#000000;stop-opacity:1"
         d="m 51.345704,130.83882 c 0,0 1.434877,-3.04174 0.744139,-6.90987 -0.708704,-3.96875 -1.41741,-7.51229 0.141741,-11.3393 1.559153,-3.827 1.075133,-6.28857 0.283483,-9.851 -0.791651,-3.562423 0.30149,-6.127937 1.275669,-9.354909 0.974179,-3.226973 -0.0191,-6.575778 0.466738,-9.112944 0.485841,-2.537163 1.374075,-3.517447 2.3452,-4.106644 0,0 -0.262778,2.480342 1.13319,5.636443 1.395967,3.156101 2.141284,5.934226 1.34654,9.709263 -0.794745,3.775038 -0.777274,5.111971 0.921317,8.433601 1.697527,3.31954 1.689365,7.32463 0.921316,11.19753 -0.753998,3.80207 -0.54372,5.16622 0.566965,8.29186 0.928445,2.61278 0.496094,6.1303 -0.07087,7.40597"
         id="path1221" />
      <path
         style="font-variation-settings:normal;opacity:1;vector-effect:none;fill:#e90c0c;fill-opacity:1;stroke:none;stroke-width:0.132292;stroke-linecap:butt;stroke-linejoin:miter;stroke-miterlimit:5;stroke-dasharray:none;stroke-dashoffset:0;stroke-opacity:1;stop-color:#000000;stop-opacity:1"
         d="m 125.40112,130.83882 c 0,0 1.43488,-3.04174 0.74414,-6.90987 -0.7087,-3.96875 -1.41741,-7.51229 0.14174,-11.3393 1.55916,-3.827 1.07514,-6.28857 0.28349,-9.851 -0.79165,-3.562423 0.30149,-6.127937 1.27567,-9.354909 0.97417,-3.226973 -0.0191,-6.575778 0.46673,-9.112944 0.48584,-2.537163 1.37408,-3.517447 2.3452,-4.106644 0,0 -0.26277,2.480342 1.13319,5.636443 1.39597,3.156101 2.14129,5.934226 1.34654,9.709263 -0.79474,3.775038 -0.77727,5.111971 0.92132,8.433601 1.69753,3.31954 1.68937,7.32463 0.92132,11.19753 -0.754,3.80207 -0.54372,5.16622 0.56696,8.29186 0.92845,2.61278 0.49609,6.1303 -0.0709,7.40597"
         id="path1843" />
      <path
         style="font-variation-settings:normal;opacity:1;vector-effect:none;fill:#e90c0c;fill-opacity:1;stroke:none;stroke-width:0.132292;stroke-linecap:butt;stroke-linejoin:miter;stroke-miterlimit:5;stroke-dasharray:none;stroke-dashoffset:0;stroke-opacity:1;stop-color:#000000;stop-opacity:1"
         d="m 113.05855,130.83882 c 0,0 1.43488,-3.04174 0.74414,-6.90987 -0.7087,-3.96875 -1.41741,-7.51229 0.14174,-11.3393 1.55916,-3.827 1.07514,-6.28857 0.28349,-9.851 -0.79165,-3.562423 0.30149,-6.127937 1.27567,-9.354909 0.97417,-3.226973 -0.0191,-6.575778 0.46673,-9.112944 0.48584,-2.537163 1.37408,-3.517447 2.3452,-4.106644 0,0 -0.26277,2.480342 1.13319,5.636443 1.39597,3.156101 2.14129,5.934226 1.34654,9.709263 -0.79474,3.775038 -0.77727,5.111971 0.92132,8.433601 1.69753,3.31954 1.68937,7.32463 0.92132,11.19753 -0.754,3.80207 -0.54372,5.16622 0.56696,8.29186 0.92845,2.61278 0.49609,6.1303 -0.0709,7.40597"
         id="path1845" />
      <path
         style="font-variation-settings:normal;opacity:1;vector-effect:none;fill:#e90c0c;fill-opacity:1;stroke:none;stroke-width:0.132292;stroke-linecap:butt;stroke-linejoin:miter;stroke-miterlimit:5;stroke-dasharray:none;stroke-dashoffset:0;stroke-opacity:1;stop-color:#000000;stop-opacity:1"
         d="m 100.71598,130.83882 c 0,0 1.43488,-3.04174 0.74414,-6.90987 -0.7087,-3.96875 -1.41741,-7.51229 0.14174,-11.3393 1.55916,-3.827 1.07514,-6.28857 0.28349,-9.851 -0.79165,-3.562423 0.30149,-6.127937 1.27567,-9.354909 0.97417,-3.226973 -0.0191,-6.575778 0.46673,-9.112944 0.48584,-2.537163 1.37408,-3.517447 2.3452,-4.106644 0,0 -0.26277,2.480342 1.13319,5.636443 1.39597,3.156101 2.14129,5.934226 1.34654,9.709263 -0.79474,3.775038 -0.77727,5.111971 0.92132,8.433601 1.69753,3.31954 1.68937,7.32463 0.92132,11.19753 -0.754,3.80207 -0.54372,5.16622 0.56696,8.29186 0.92845,2.61278 0.49609,6.1303 -0.0709,7.40597"
         id="path1847" />
      <path
         style="font-variation-settings:normal;opacity:1;vector-effect:none;fill:#e90c0c;fill-opacity:1;stroke:none;stroke-width:0.132292;stroke-linecap:butt;stroke-linejoin:miter;stroke-miterlimit:5;stroke-dasharray:none;stroke-dashoffset:0;stroke-opacity:1;stop-color:#000000;stop-opacity:1"
         d="m 88.373412,130.83882 c 0,0 1.43488,-3.04174 0.74414,-6.90987 -0.7087,-3.96875 -1.41741,-7.51229 0.14174,-11.3393 1.55916,-3.827 1.07514,-6.28857 0.28349,-9.851 -0.79165,-3.562423 0.30149,-6.127937 1.27567,-9.354909 0.97417,-3.226973 -0.0191,-6.575778 0.46673,-9.112944 0.48584,-2.537163 1.37408,-3.517447 2.3452,-4.106644 0,0 -0.26277,2.480342 1.13319,5.636443 1.39597,3.156101 2.14129,5.934226 1.34654,9.709263 -0.79474,3.775038 -0.77727,5.111971 0.92132,8.433601 1.69753,3.31954 1.68937,7.32463 0.92132,11.19753 -0.754,3.80207 -0.54372,5.16622 0.56696,8.29186 0.92845,2.61278 0.49609,6.1303 -0.0709,7.40597"
         id="path1849" />
      <path
         style="font-variation-settings:normal;opacity:1;vector-effect:none;fill:#e90c0c;fill-opacity:1;stroke:none;stroke-width:0.132292;stroke-linecap:butt;stroke-linejoin:miter;stroke-miterlimit:5;stroke-dasharray:none;stroke-dashoffset:0;stroke-opacity:1;stop-color:#000000;stop-opacity:1"
         d="m 76.030843,130.83882 c 0,0 1.43488,-3.04174 0.74414,-6.90987 -0.7087,-3.96875 -1.41741,-7.51229 0.14174,-11.3393 1.55916,-3.827 1.07514,-6.28857 0.28349,-9.851 -0.79165,-3.562423 0.30149,-6.127937 1.27567,-9.354909 0.97417,-3.226973 -0.0191,-6.575778 0.46673,-9.112944 0.48584,-2.537163 1.37408,-3.517447 2.3452,-4.106644 0,0 -0.26277,2.480342 1.13319,5.636443 1.39597,3.156101 2.14129,5.934226 1.34654,9.709263 -0.79474,3.775038 -0.77727,5.111971 0.92132,8.433601 1.69753,3.31954 1.68937,7.32463 0.92132,11.19753 -0.754,3.80207 -0.54372,5.16622 0.56696,8.29186 0.92845,2.61278 0.49609,6.1303 -0.0709,7.40597"
         id="path1851" />
      <path
         style="font-variation-settings:normal;opacity:1;vector-effect:none;fill:#e90c0c;fill-opacity:1;stroke:none;stroke-width:0.132292;stroke-linecap:butt;stroke-linejoin:miter;stroke-miterlimit:5;stroke-dasharray:none;stroke-dashoffset:0;stroke-opacity:1;stop-color:#000000;stop-opacity:1"
         d="m 63.688274,130.83882 c 0,0 1.43488,-3.04174 0.74414,-6.90987 -0.7087,-3.96875 -1.41741,-7.51229 0.14174,-11.3393 1.55916,-3.827 1.07514,-6.28857 0.28349,-9.851 -0.79165,-3.562423 0.30149,-6.127937 1.27567,-9.354909 0.97417,-3.226973 -0.0191,-6.575778 0.46673,-9.112944 0.48584,-2.537163 1.37408,-3.517447 2.3452,-4.106644 0,0 -0.26277,2.480342 1.13319,5.636443 1.39597,3.156101 2.14129,5.934226 1.34654,9.709263 -0.79474,3.775038 -0.77727,5.111971 0.92132,8.433601 1.69753,3.31954 1.68937,7.32463 0.92132,11.19753 -0.754,3.80207 -0.54372,5.16622 0.56696,8.29186 0.92845,2.61278 0.49609,6.1303 -0.0709,7.40597"
         id="path1853" />
    </g>
    <path
       id="path1855"
       style="opacity:1;fill:#e90c0c;fill-opacity:1;fill-rule:evenodd;stroke:none;stroke-width:0.383769;stroke-linejoin:miter;stroke-miterlimit:4;stroke-dasharray:none"
       d="m 13.611802,146.41977 v 22.90229 c 0,36.53135 29.614865,66.14621 66.146209,66.14621 36.531339,0 66.145459,-29.61486 66.145459,-66.14621 v -22.90229 l -5.53987,-5.00824 H 18.33471 Z" />
    <path
       id="path1219"
       style="opacity:1;fill:#bf9f4f;fill-opacity:1;fill-rule:evenodd;stroke:none;stroke-width:0.383769;stroke-linejoin:round;stroke-miterlimit:4;stroke-dasharray:none"
       d="M 145.90347,146.41978 V 141.1915 H 13.611802 v 5.22828 z" />
    <g
       id="g1119"
       transform="matrix(1.450466,0,0,1.450466,-56.140487,-48.365725)">
      <g
         id="g1115">
        <path
           style="font-variation-settings:normal;opacity:1;vector-effect:none;fill:#bf9f4f;fill-opacity:1;stroke:none;stroke-width:0.132292;stroke-linecap:butt;stroke-linejoin:miter;stroke-miterlimit:5;stroke-dasharray:none;stroke-dashoffset:0;stroke-opacity:1;stop-color:#000000;stop-opacity:1"
           d="m 82.879626,155.33726 c 3.900106,8.35096 6.420152,19.1493 3.768098,33.35736 -2.687866,1.94575 -5.999163,2.03482 -7.999613,0.0665 3.304258,-11.88154 0.16447,-20.91169 -4.694766,-27.89521 0,0 -2.090622,0.61261 -2.728457,-1.61982 0,0 -1.063058,-0.0709 -1.275669,-1.41741 0,0 -0.885882,-0.0354 -0.992188,-1.3111 0,0 -1.098493,-0.14174 -1.027623,-1.13393 0,0 -1.133928,0.10631 -1.098493,-1.06306 0,0 -0.992187,-0.1063 -0.921317,-1.13393 0,0 -1.594587,-0.99218 -2.799386,-1.38197 0,0 -0.6024,-2.97657 2.62221,-3.89788 0.02484,-1.69904 1.336283,-3.40653 3.437221,-3.57896 0.335391,-2.44696 2.138358,-3.60808 4.897425,-2.84204 l 3.146381,3.77516 c 0,0 0.956752,-0.28348 1.204799,1.2048 0,0 0.992187,0.0355 1.027622,1.27567 0,0 0.921317,0.24805 0.921317,1.48828 0,0 0.992188,0.0354 0.956753,1.38198 0,0 1.063058,0.0709 0.956752,1.84263 0,0 1.375045,0.34426 0.598934,2.88293 z"
           id="path1146" />
        <path
           id="path1286"
           style="color:#000000;font-style:normal;font-variant:normal;font-weight:normal;font-stretch:normal;font-size:medium;line-height:normal;font-family:sans-serif;font-variant-ligatures:normal;font-variant-position:normal;font-variant-caps:normal;font-variant-numeric:normal;font-variant-alternates:normal;font-variant-east-asian:normal;font-feature-settings:normal;font-variation-settings:normal;text-indent:0;text-align:start;text-decoration:none;text-decoration-line:none;text-decoration-style:solid;text-decoration-color:#000000;letter-spacing:normal;word-spacing:normal;text-transform:none;writing-mode:lr-tb;direction:ltr;text-orientation:mixed;dominant-baseline:auto;baseline-shift:baseline;text-anchor:start;white-space:normal;shape-padding:0;shape-margin:0;inline-size:0;clip-rule:nonzero;display:inline;overflow:visible;visibility:visible;opacity:1;isolation:auto;mix-blend-mode:normal;color-interpolation:sRGB;color-interpolation-filters:linearRGB;solid-color:#000000;solid-opacity:1;vector-effect:none;fill:#684808;fill-opacity:1;fill-rule:nonzero;stroke:none;stroke-width:3.77953;stroke-linecap:butt;stroke-linejoin:miter;stroke-miterlimit:5;stroke-dasharray:none;stroke-dashoffset:0;stroke-opacity:1;color-rendering:auto;image-rendering:auto;shape-rendering:auto;text-rendering:auto;enable-background:accumulate;stop-color:#000000;stop-opacity:1"
           d="m 274.4668,533.87305 c -0.30217,-0.008 -0.58772,0.0106 -0.88086,0.0176 2.03327,2.16011 10.88052,11.63729 16.55859,19.15235 l 0.79883,-0.60352 c -5.1489,-6.8147 -12.91311,-15.2542 -15.97266,-18.52929 -0.16613,-0.009 -0.34038,-0.0326 -0.5039,-0.0371 z m -4.14844,0.44922 c -0.37214,0.0956 -0.73254,0.20811 -1.08398,0.33398 6.41468,6.74208 13.64586,13.90835 18.83007,20.47656 l 0.78907,-0.61328 c -6.29913,-7.64219 -12.44789,-14.02622 -18.53516,-20.19726 z m -5.83984,3.65429 c -0.21156,0.25614 -0.41162,0.52429 -0.60352,0.80274 3.03533,2.74396 13.26713,12.13878 19.83984,20.15429 l 0.77539,-0.63476 c -6.71158,-8.18488 -17.07702,-17.67543 -20.01171,-20.32227 z M 262.5,541.37695 c -0.13748,0.34509 -0.27295,0.69206 -0.38867,1.0586 6.52355,5.71018 13.47763,10.98834 18.93945,18.36718 l 0.80469,-0.59179 C 275.76557,552.85497 269.67511,547.33472 262.5,541.37695 Z m -3.03516,4.41993 c -0.40413,0.0873 -0.80039,0.18683 -1.18554,0.30468 1.66572,1.42785 11.15797,9.62294 15.5957,14.91406 l 0.76172,-0.64257 c -4.2037,-5.01208 -12.52081,-12.28917 -15.17188,-14.57617 z m -2.83593,0.92773 c -0.32946,0.14797 -0.65099,0.30441 -0.96289,0.47461 3.1618,2.86577 10.82217,9.91071 16.5996,16.08984 l 0.73047,-0.68554 c -5.5618,-5.94852 -12.95597,-12.77935 -16.36718,-15.87891 z m -5.08985,3.91601 c -0.21215,0.26189 -0.41386,0.52993 -0.60547,0.80469 2.74087,2.13321 10.97076,8.59186 14.06836,11.68946 l 0.70899,-0.70899 c -3.23634,-3.23631 -11.44538,-9.66753 -14.17188,-11.78516 z m -1.58203,2.41016 c -0.15691,0.30517 -0.29627,0.61733 -0.42969,0.93164 1.88182,1.44832 12.7671,9.84107 18.30274,14.72656 l 0.65625,-0.74609 c -5.67532,-5.0088 -16.89355,-13.65346 -18.5293,-14.91211 z m -0.9082,2.22461 c -0.10674,0.34294 -0.19639,0.68835 -0.27539,1.03711 2.74404,1.97232 11.56011,8.40137 16.82617,13.44336 l 0.69531,-0.71484 c -5.61284,-5.37402 -15.02268,-12.17601 -17.24609,-13.76563 z m -2.54297,4.41016 c -0.36627,0.14866 -0.72,0.30294 -1.05469,0.46679 2.83974,2.04839 9.83346,7.26212 14.9961,12.57227 l 0.71679,-0.69531 c -4.9016,-5.04165 -11.47939,-10.02716 -14.6582,-12.34375 z m -2.23828,1.11718 c -0.30792,0.18731 -0.59765,0.38224 -0.875,0.58204 1.33599,1.04211 9.96948,7.79148 16.3164,13.45117 l 0.66407,-0.7461 c -6.24284,-5.56687 -14.4411,-11.98749 -16.10547,-13.28711 z m -4.59375,4.97071 c -0.15053,0.30878 -0.29313,0.61652 -0.41211,0.92383 1.85777,1.18474 11.50407,7.34776 16.46875,10.98046 l 0.5918,-0.80468 c -5.08435,-3.72041 -14.95626,-10.02123 -16.64844,-11.09961 z m -1.06445,3.18945 c -0.069,0.36518 -0.12439,0.72036 -0.16211,1.06055 3.05857,1.77778 10.18874,6.06171 14.16796,9.63281 l 0.66407,-0.74609 c -4.37562,-3.9268 -11.99345,-8.41328 -14.66992,-9.94727 z"
           transform="scale(0.26458333)" />
        <path
           id="path1129"
           style="color:#000000;font-style:normal;font-variant:normal;font-weight:normal;font-stretch:normal;font-size:medium;line-height:normal;font-family:sans-serif;font-variant-ligatures:normal;font-variant-position:normal;font-variant-caps:normal;font-variant-numeric:normal;font-variant-alternates:normal;font-variant-east-asian:normal;font-feature-settings:normal;font-variation-settings:normal;text-indent:0;text-align:start;text-decoration:none;text-decoration-line:none;text-decoration-style:solid;text-decoration-color:#000000;letter-spacing:normal;word-spacing:normal;text-transform:none;writing-mode:lr-tb;direction:ltr;text-orientation:mixed;dominant-baseline:auto;baseline-shift:baseline;text-anchor:start;white-space:normal;shape-padding:0;shape-margin:0;inline-size:0;clip-rule:nonzero;display:inline;overflow:visible;visibility:visible;opacity:1;isolation:auto;mix-blend-mode:normal;color-interpolation:sRGB;color-interpolation-filters:linearRGB;solid-color:#000000;solid-opacity:1;vector-effect:none;fill:#473106;fill-opacity:1;fill-rule:nonzero;stroke:none;stroke-width:3.77953;stroke-linecap:butt;stroke-linejoin:miter;stroke-miterlimit:5;stroke-dasharray:none;stroke-dashoffset:0;stroke-opacity:1;color-rendering:auto;image-rendering:auto;shape-rendering:auto;text-rendering:auto;enable-background:accumulate;stop-color:#000000;stop-opacity:1"
           d="m 267.33398,535.52148 c -0.30507,0.1786 -0.5911,0.38167 -0.875,0.5879 l 0.13086,0.0898 c 52.62193,45.89492 67.88614,127.32891 55.00196,180.2793 l -0.0312,0.0937 c 0.38974,-0.1695 0.77527,-0.36849 1.16211,-0.55665 12.67741,-53.33747 -2.69559,-134.46305 -55.38868,-180.49414 z m -5.71875,8.92774 c -0.0658,0.34425 -0.13828,0.68197 -0.1875,1.04101 -0.0407,0.003 -0.0786,0.012 -0.11914,0.0156 l 0.084,0.0742 0.0156,0.008 c 23.43516,17.48436 40.7111,46.65767 50.24805,78.41016 9.53695,31.75249 11.33004,66.08111 3.88281,93.80859 l -0.23633,0.66406 c 0.3807,-0.067 0.76118,-0.15932 1.14258,-0.24414 l 0.0527,-0.14648 0.008,-0.0137 c 7.51118,-27.9656 5.69346,-62.44606 -3.89063,-94.35547 -9.58018,-31.89646 -26.92155,-61.2341 -50.58007,-78.89844 l -0.0293,-0.0215 z m -8.17968,4.26758 c -0.25784,0.21513 -0.51049,0.43483 -0.75,0.66601 l 0.0117,0.0137 0.0371,0.0293 c 53.77226,42.74147 73.48827,120.59126 57.74023,168.61133 l -0.008,0.0215 -0.16797,0.75782 c 0.33677,0.0116 0.67204,0.0346 1.01172,0.0312 l 0.10937,-0.50196 0.0137,-0.0508 c 15.88636,-48.535 -3.94022,-126.54343 -57.99804,-169.57812 z m -4.97071,9.86132 c -0.007,0.14657 -0.0252,0.29286 -0.0273,0.43946 -0.27154,0.0776 -0.52779,0.16491 -0.78516,0.25 l 0.58594,0.32422 c 24.05675,15.43283 41.73048,41.96327 51.77734,71.09375 10.04687,29.13048 12.45974,60.85296 6.09571,86.58398 l -0.22852,0.94531 c 0.32268,0.0806 0.65068,0.14601 0.97852,0.21094 l 0.22461,-0.91992 h -0.006 c 6.4241,-25.9739 3.98253,-57.84945 -6.1211,-87.14453 -10.10361,-29.29504 -27.87402,-56.0176 -52.18164,-71.61133 l -0.0156,-0.008 z m -7,4.52149 c -0.23341,0.25837 -0.45366,0.52091 -0.65429,0.78711 l 0.17773,0.0977 c 56.98935,37.11511 71.97701,105.72231 60.70313,151.97851 l -0.1836,0.58399 c 0.29703,0.15831 0.60342,0.29763 0.90821,0.43945 l 0.24218,-0.77344 0.006,-0.0137 c 11.37651,-46.67724 -3.73525,-115.67938 -61.13672,-153.05664 l -0.0137,-0.0156 z"
           transform="scale(0.26458333)" />
        <g
           id="g1228"
           transform="matrix(1.0092973,0.02491997,-0.02492115,1.0092496,3.1921463,-3.4690764)"
           style="stroke-width:0.99051">
          <path
             id="path1190"
             style="fill:#bf9f4f;fill-opacity:1;fill-rule:evenodd;stroke:#473106;stroke-width:0.262072;stroke-linejoin:miter;stroke-miterlimit:4;stroke-dasharray:none;stroke-opacity:1"
             d="m 72.514988,148.42326 c -0.704279,0.69623 -0.621322,2.28632 0.387899,2.73741 0.844195,-0.71346 0.482113,-2.26404 -0.387899,-2.73741 z" />
          <path
             id="path1192"
             style="fill:#bf9f4f;fill-opacity:1;fill-rule:evenodd;stroke:#473106;stroke-width:0.262072;stroke-linejoin:miter;stroke-miterlimit:4;stroke-dasharray:none;stroke-opacity:1"
             d="m 74.06935,149.64127 c -0.819305,0.55636 -1.02734,2.13496 -0.117159,2.76227 0.960023,-0.5478 0.8864,-2.13837 0.117159,-2.76227 z" />
          <path
             id="path1194"
             style="fill:#bf9f4f;fill-opacity:1;fill-rule:evenodd;stroke:#473106;stroke-width:0.262072;stroke-linejoin:miter;stroke-miterlimit:4;stroke-dasharray:none;stroke-opacity:1"
             d="m 70.017216,151.07081 c 0.537321,0.80231 2.110836,1.07117 2.75906,0.23631 -0.525541,-0.93539 -2.117527,-0.93765 -2.75906,-0.23631 z" />
          <path
             id="path1196"
             style="fill:#bf9f4f;fill-opacity:1;fill-rule:evenodd;stroke:#473106;stroke-width:0.262072;stroke-linejoin:miter;stroke-miterlimit:4;stroke-dasharray:none;stroke-opacity:1"
             d="m 71.063045,152.43114 c 0.558909,0.70284 2.138256,0.87443 2.762825,0.0876 -0.550795,-0.82406 -2.141252,-0.75305 -2.762825,-0.0876 z" />
          <path
             id="path1198"
             style="fill:#bf9f4f;fill-opacity:1;fill-rule:evenodd;stroke:#473106;stroke-width:0.262072;stroke-linejoin:miter;stroke-miterlimit:4;stroke-dasharray:none;stroke-opacity:1"
             d="m 75.120384,151.01622 c -0.819994,0.55534 -1.029987,2.13369 -0.120585,2.76213 0.960701,-0.54661 0.889052,-2.13728 0.120585,-2.76213 z" />
          <path
             id="path1200"
             style="fill:#bf9f4f;fill-opacity:1;fill-rule:evenodd;stroke:#473106;stroke-width:0.262072;stroke-linejoin:miter;stroke-miterlimit:4;stroke-dasharray:none;stroke-opacity:1"
             d="m 72.123425,153.53289 c 0.490805,0.75198 2.047217,1.07034 2.742554,0.34535 -0.471402,-0.87191 -2.061538,-0.94977 -2.742554,-0.34535 z" />
          <path
             id="path1202"
             style="fill:#bf9f4f;fill-opacity:1;fill-rule:evenodd;stroke:#473106;stroke-width:0.262072;stroke-linejoin:miter;stroke-miterlimit:4;stroke-dasharray:none;stroke-opacity:1"
             d="m 73.156773,154.75656 c 0.425346,0.79085 1.949199,1.23988 2.703448,0.57638 -0.395854,-0.90869 -1.973681,-1.12095 -2.703448,-0.57638 z" />
          <path
             id="path1204"
             style="fill:#bf9f4f;fill-opacity:1;fill-rule:evenodd;stroke:#473106;stroke-width:0.262072;stroke-linejoin:miter;stroke-miterlimit:4;stroke-dasharray:none;stroke-opacity:1"
             d="m 76.27168,152.50847 c -0.858926,0.49299 -1.185409,2.05142 -0.325124,2.74557 0.998598,-0.47386 1.045129,-2.06546 0.325124,-2.74557 z" />
          <path
             id="path1206"
             style="fill:#bf9f4f;fill-opacity:1;fill-rule:evenodd;stroke:#473106;stroke-width:0.262072;stroke-linejoin:miter;stroke-miterlimit:4;stroke-dasharray:none;stroke-opacity:1"
             d="m 77.311156,154.13562 c -0.809167,0.46728 -1.116736,1.94442 -0.30629,2.60237 0.940748,-0.44914 0.984582,-1.95773 0.30629,-2.60237 z" />
          <path
             id="path1208"
             style="fill:#bf9f4f;fill-opacity:1;fill-rule:evenodd;stroke:#473106;stroke-width:0.262072;stroke-linejoin:miter;stroke-miterlimit:4;stroke-dasharray:none;stroke-opacity:1"
             d="m 74.101203,156.11842 c 0.43469,0.89294 2.014757,1.41125 2.805277,0.67189 -0.402905,-1.02519 -2.041347,-1.27775 -2.805277,-0.67189 z" />
          <path
             id="path1210"
             style="fill:#bf9f4f;fill-opacity:1;fill-rule:evenodd;stroke:#473106;stroke-width:0.262072;stroke-linejoin:miter;stroke-miterlimit:4;stroke-dasharray:none;stroke-opacity:1"
             d="m 78.265182,155.66227 c -0.82643,0.43602 -1.190219,1.90033 -0.405505,2.58876 0.957222,-0.41287 1.05867,-1.91868 0.405505,-2.58876 z" />
          <path
             id="path1213"
             style="fill:#bf9f4f;fill-opacity:1;fill-rule:evenodd;stroke:#473106;stroke-width:0.262072;stroke-linejoin:miter;stroke-miterlimit:4;stroke-dasharray:none;stroke-opacity:1"
             d="m 75.249993,157.53799 c 0.315447,0.8795 1.714128,1.44566 2.506175,0.76568 -0.274127,-1.00572 -1.750802,-1.31802 -2.506175,-0.76568 z" />
          <path
             id="path1168-0"
             style="fill:#bf9f4f;fill-opacity:1;fill-rule:evenodd;stroke:#473106;stroke-width:0.262072;stroke-linejoin:miter;stroke-miterlimit:4;stroke-dasharray:none;stroke-opacity:1"
             d="m 69.811739,148.25982 c -0.191854,1.12269 0.951127,2.55359 2.19681,2.29917 0.311121,-1.23251 -1.066315,-2.43947 -2.19681,-2.29917 z" />
        </g>
        <g
           id="g1256"
           transform="rotate(5.105054,103.24075,196.74304)">
          <path
             id="path1230"
             style="fill:#bf9f4f;fill-opacity:1;fill-rule:evenodd;stroke:#473106;stroke-width:0.264583;stroke-linejoin:miter;stroke-miterlimit:4;stroke-dasharray:none;stroke-opacity:1"
             d="m 72.642254,148.45055 c -0.729448,0.66981 -0.705121,2.26188 0.286799,2.74984 0.869903,-0.68188 0.565185,-2.24475 -0.286799,-2.74984 z" />
          <path
             id="path1232"
             style="fill:#bf9f4f;fill-opacity:1;fill-rule:evenodd;stroke:#473106;stroke-width:0.264583;stroke-linejoin:miter;stroke-miterlimit:4;stroke-dasharray:none;stroke-opacity:1"
             d="m 74.06935,149.64127 c -0.819305,0.55636 -1.02734,2.13496 -0.117159,2.76227 0.960023,-0.5478 0.8864,-2.13837 0.117159,-2.76227 z" />
          <path
             id="path1234"
             style="fill:#bf9f4f;fill-opacity:1;fill-rule:evenodd;stroke:#473106;stroke-width:0.264583;stroke-linejoin:miter;stroke-miterlimit:4;stroke-dasharray:none;stroke-opacity:1"
             d="m 70.04865,151.00429 c 0.507402,0.82156 2.069946,1.1482 2.748483,0.33778 -0.490728,-0.95411 -2.08155,-1.01501 -2.748483,-0.33778 z" />
          <path
             id="path1236"
             style="fill:#bf9f4f;fill-opacity:1;fill-rule:evenodd;stroke:#473106;stroke-width:0.264583;stroke-linejoin:miter;stroke-miterlimit:4;stroke-dasharray:none;stroke-opacity:1"
             d="m 71.063045,152.43114 c 0.558909,0.70284 2.138256,0.87443 2.762825,0.0876 -0.550795,-0.82406 -2.141252,-0.75305 -2.762825,-0.0876 z" />
          <path
             id="path1238"
             style="fill:#bf9f4f;fill-opacity:1;fill-rule:evenodd;stroke:#473106;stroke-width:0.264583;stroke-linejoin:miter;stroke-miterlimit:4;stroke-dasharray:none;stroke-opacity:1"
             d="m 75.120384,151.01622 c -0.819994,0.55534 -1.029987,2.13369 -0.120585,2.76213 0.960701,-0.54661 0.889052,-2.13728 0.120585,-2.76213 z" />
          <path
             id="path1240"
             style="fill:#bf9f4f;fill-opacity:1;fill-rule:evenodd;stroke:#473106;stroke-width:0.264583;stroke-linejoin:miter;stroke-miterlimit:4;stroke-dasharray:none;stroke-opacity:1"
             d="m 72.123425,153.53289 c 0.490805,0.75198 2.047217,1.07034 2.742554,0.34535 -0.471402,-0.87191 -2.061538,-0.94977 -2.742554,-0.34535 z" />
          <path
             id="path1242"
             style="fill:#bf9f4f;fill-opacity:1;fill-rule:evenodd;stroke:#473106;stroke-width:0.264583;stroke-linejoin:miter;stroke-miterlimit:4;stroke-dasharray:none;stroke-opacity:1"
             d="m 73.156773,154.75656 c 0.425346,0.79085 1.949199,1.23988 2.703448,0.57638 -0.395854,-0.90869 -1.973681,-1.12095 -2.703448,-0.57638 z" />
          <path
             id="path1244"
             style="fill:#bf9f4f;fill-opacity:1;fill-rule:evenodd;stroke:#473106;stroke-width:0.264583;stroke-linejoin:miter;stroke-miterlimit:4;stroke-dasharray:none;stroke-opacity:1"
             d="m 76.27168,152.50847 c -0.858926,0.49299 -1.185409,2.05142 -0.325124,2.74557 0.998598,-0.47386 1.045129,-2.06546 0.325124,-2.74557 z" />
          <path
             id="path1246"
             style="fill:#bf9f4f;fill-opacity:1;fill-rule:evenodd;stroke:#473106;stroke-width:0.264583;stroke-linejoin:miter;stroke-miterlimit:4;stroke-dasharray:none;stroke-opacity:1"
             d="m 77.311156,154.13562 c -0.809167,0.46728 -1.116736,1.94442 -0.30629,2.60237 0.940748,-0.44914 0.984582,-1.95773 0.30629,-2.60237 z" />
          <path
             id="path1248"
             style="fill:#bf9f4f;fill-opacity:1;fill-rule:evenodd;stroke:#473106;stroke-width:0.264583;stroke-linejoin:miter;stroke-miterlimit:4;stroke-dasharray:none;stroke-opacity:1"
             d="m 74.098291,156.13029 c 0.442247,0.88922 2.026653,1.39411 2.810874,0.64807 -0.411584,-1.02173 -2.052109,-1.26039 -2.810874,-0.64807 z" />
          <path
             id="path1250"
             style="fill:#bf9f4f;fill-opacity:1;fill-rule:evenodd;stroke:#473106;stroke-width:0.264583;stroke-linejoin:miter;stroke-miterlimit:4;stroke-dasharray:none;stroke-opacity:1"
             d="m 78.265182,155.66227 c -0.82643,0.43602 -1.190219,1.90033 -0.405505,2.58876 0.957222,-0.41287 1.05867,-1.91868 0.405505,-2.58876 z" />
          <path
             id="path1252"
             style="fill:#bf9f4f;fill-opacity:1;fill-rule:evenodd;stroke:#473106;stroke-width:0.264583;stroke-linejoin:miter;stroke-miterlimit:4;stroke-dasharray:none;stroke-opacity:1"
             d="m 75.249993,157.53799 c 0.315447,0.8795 1.714128,1.44566 2.506175,0.76568 -0.274127,-1.00572 -1.750802,-1.31802 -2.506175,-0.76568 z" />
          <path
             id="path1254"
             style="fill:#bf9f4f;fill-opacity:1;fill-rule:evenodd;stroke:#473106;stroke-width:0.264583;stroke-linejoin:miter;stroke-miterlimit:4;stroke-dasharray:none;stroke-opacity:1"
             d="m 69.90015,148.23082 c -0.188715,1.12322 0.958263,2.55091 2.20323,2.293 0.307673,-1.23337 -1.073132,-2.43647 -2.20323,-2.293 z" />
        </g>
        <g
           id="g1284"
           transform="matrix(0.95220407,-0.03460646,0.03461283,0.95238555,-5.0317444,12.046099)"
           style="fill:#bf9f4f;fill-opacity:1;stroke-width:1.0494">
          <path
             id="path1258"
             style="fill:#bf9f4f;fill-opacity:1;fill-rule:evenodd;stroke:#473106;stroke-width:0.277655;stroke-linejoin:miter;stroke-miterlimit:4;stroke-dasharray:none;stroke-opacity:1"
             d="m 72.808334,148.39843 c -0.804631,0.57739 -0.97173,2.16086 -0.0456,2.76437 0.94552,-0.5725 0.830748,-2.16063 0.0456,-2.76437 z" />
          <path
             id="path1260"
             style="fill:#bf9f4f;fill-opacity:1;fill-rule:evenodd;stroke:#473106;stroke-width:0.277655;stroke-linejoin:miter;stroke-miterlimit:4;stroke-dasharray:none;stroke-opacity:1"
             d="m 74.093163,149.83637 c -0.839416,0.48075 -1.106052,1.92419 -0.219881,2.53504 0.979712,-0.46759 0.965342,-1.9326 0.219881,-2.53504 z" />
          <path
             id="path1262"
             style="fill:#bf9f4f;fill-opacity:1;fill-rule:evenodd;stroke:#473106;stroke-width:0.277655;stroke-linejoin:miter;stroke-miterlimit:4;stroke-dasharray:none;stroke-opacity:1"
             d="m 69.998758,150.83645 c 0.470111,0.84345 2.016465,1.23967 2.730607,0.46042 -0.44752,-0.97512 -2.034022,-1.10712 -2.730607,-0.46042 z" />
          <path
             id="path1264"
             style="fill:#bf9f4f;fill-opacity:1;fill-rule:evenodd;stroke:#473106;stroke-width:0.277655;stroke-linejoin:miter;stroke-miterlimit:4;stroke-dasharray:none;stroke-opacity:1"
             d="m 70.98527,152.28568 c 0.531123,0.72406 2.102593,0.95698 2.757321,0.19506 -0.518296,-0.84488 -2.110312,-0.83581 -2.757321,-0.19506 z" />
          <path
             id="path1266"
             style="fill:#bf9f4f;fill-opacity:1;fill-rule:evenodd;stroke:#473106;stroke-width:0.277655;stroke-linejoin:miter;stroke-miterlimit:4;stroke-dasharray:none;stroke-opacity:1"
             d="m 75.086798,151.13666 c -0.798868,0.5091 -1.011107,2.01832 -0.131769,2.64841 0.935394,-0.4966 0.874331,-2.02592 0.131769,-2.64841 z" />
          <path
             id="path1268"
             style="fill:#bf9f4f;fill-opacity:1;fill-rule:evenodd;stroke:#473106;stroke-width:0.277655;stroke-linejoin:miter;stroke-miterlimit:4;stroke-dasharray:none;stroke-opacity:1"
             d="m 72.0977,153.42844 c 0.46667,0.81693 2.012227,1.20451 2.730279,0.45305 -0.443466,-0.94419 -2.030374,-1.07641 -2.730279,-0.45305 z" />
          <path
             id="path1270"
             style="fill:#bf9f4f;fill-opacity:1;fill-rule:evenodd;stroke:#473106;stroke-width:0.277655;stroke-linejoin:miter;stroke-miterlimit:4;stroke-dasharray:none;stroke-opacity:1"
             d="m 73.156773,154.75656 c 0.425346,0.79085 1.949199,1.23988 2.703448,0.57638 -0.395854,-0.90869 -1.973681,-1.12095 -2.703448,-0.57638 z" />
          <path
             id="path1272"
             style="fill:#bf9f4f;fill-opacity:1;fill-rule:evenodd;stroke:#473106;stroke-width:0.277655;stroke-linejoin:miter;stroke-miterlimit:4;stroke-dasharray:none;stroke-opacity:1"
             d="m 76.27168,152.50847 c -0.858926,0.49299 -1.185409,2.05142 -0.325124,2.74557 0.998598,-0.47386 1.045129,-2.06546 0.325124,-2.74557 z" />
          <path
             id="path1274"
             style="fill:#bf9f4f;fill-opacity:1;fill-rule:evenodd;stroke:#473106;stroke-width:0.277655;stroke-linejoin:miter;stroke-miterlimit:4;stroke-dasharray:none;stroke-opacity:1"
             d="m 77.311156,154.13562 c -0.809167,0.46728 -1.116736,1.94442 -0.30629,2.60237 0.940748,-0.44914 0.984582,-1.95773 0.30629,-2.60237 z" />
          <path
             id="path1276"
             style="fill:#bf9f4f;fill-opacity:1;fill-rule:evenodd;stroke:#473106;stroke-width:0.277655;stroke-linejoin:miter;stroke-miterlimit:4;stroke-dasharray:none;stroke-opacity:1"
             d="m 74.098291,156.13029 c 0.442247,0.88922 2.026653,1.39411 2.810874,0.64807 -0.411584,-1.02173 -2.052109,-1.26039 -2.810874,-0.64807 z" />
          <path
             id="path1278"
             style="fill:#bf9f4f;fill-opacity:1;fill-rule:evenodd;stroke:#473106;stroke-width:0.277655;stroke-linejoin:miter;stroke-miterlimit:4;stroke-dasharray:none;stroke-opacity:1"
             d="m 78.250895,155.71286 c -0.805745,0.44145 -1.10273,1.83134 -0.287664,2.44805 0.937442,-0.42473 0.970494,-1.84353 0.287664,-2.44805 z" />
          <path
             id="path1280"
             style="fill:#bf9f4f;fill-opacity:1;fill-rule:evenodd;stroke:#473106;stroke-width:0.277655;stroke-linejoin:miter;stroke-miterlimit:4;stroke-dasharray:none;stroke-opacity:1"
             d="m 75.32521,157.56054 c 0.353135,0.86506 1.774962,1.37031 2.536905,0.65677 -0.317305,-0.99294 -1.80609,-1.2412 -2.536905,-0.65677 z" />
          <path
             id="path1282"
             style="fill:#bf9f4f;fill-opacity:1;fill-rule:evenodd;stroke:#473106;stroke-width:0.277655;stroke-linejoin:miter;stroke-miterlimit:4;stroke-dasharray:none;stroke-opacity:1"
             d="m 69.865242,148.53528 c -0.04612,1.03574 1.150958,2.19879 2.249559,1.828 0.1416,-1.14844 -1.242256,-2.08269 -2.249559,-1.828 z" />
        </g>
      </g>
      <g
         id="use1121"
         transform="matrix(-1,0,0,1,187.38546,0)">
        <path
           style="font-variation-settings:normal;opacity:1;vector-effect:none;fill:#bf9f4f;fill-opacity:1;stroke:none;stroke-width:0.132292;stroke-linecap:butt;stroke-linejoin:miter;stroke-miterlimit:5;stroke-dasharray:none;stroke-dashoffset:0;stroke-opacity:1;stop-color:#000000;stop-opacity:1"
           d="m 82.879626,155.33726 c 3.900106,8.35096 6.420152,19.1493 3.768098,33.35736 -2.687866,1.94575 -5.999163,2.03482 -7.999613,0.0665 3.304258,-11.88154 0.16447,-20.91169 -4.694766,-27.89521 0,0 -2.090622,0.61261 -2.728457,-1.61982 0,0 -1.063058,-0.0709 -1.275669,-1.41741 0,0 -0.885882,-0.0354 -0.992188,-1.3111 0,0 -1.098493,-0.14174 -1.027623,-1.13393 0,0 -1.133928,0.10631 -1.098493,-1.06306 0,0 -0.992187,-0.1063 -0.921317,-1.13393 0,0 -1.594587,-0.99218 -2.799386,-1.38197 0,0 -0.6024,-2.97657 2.62221,-3.89788 0.02484,-1.69904 1.336283,-3.40653 3.437221,-3.57896 0.335391,-2.44696 2.138358,-3.60808 4.897425,-2.84204 l 3.146381,3.77516 c 0,0 0.956752,-0.28348 1.204799,1.2048 0,0 0.992187,0.0355 1.027622,1.27567 0,0 0.921317,0.24805 0.921317,1.48828 0,0 0.992188,0.0354 0.956753,1.38198 0,0 1.063058,0.0709 0.956752,1.84263 0,0 1.375045,0.34426 0.598934,2.88293 z"
           id="path1736" />
        <path
           id="path1738"
           style="color:#000000;font-style:normal;font-variant:normal;font-weight:normal;font-stretch:normal;font-size:medium;line-height:normal;font-family:sans-serif;font-variant-ligatures:normal;font-variant-position:normal;font-variant-caps:normal;font-variant-numeric:normal;font-variant-alternates:normal;font-variant-east-asian:normal;font-feature-settings:normal;font-variation-settings:normal;text-indent:0;text-align:start;text-decoration:none;text-decoration-line:none;text-decoration-style:solid;text-decoration-color:#000000;letter-spacing:normal;word-spacing:normal;text-transform:none;writing-mode:lr-tb;direction:ltr;text-orientation:mixed;dominant-baseline:auto;baseline-shift:baseline;text-anchor:start;white-space:normal;shape-padding:0;shape-margin:0;inline-size:0;clip-rule:nonzero;display:inline;overflow:visible;visibility:visible;opacity:1;isolation:auto;mix-blend-mode:normal;color-interpolation:sRGB;color-interpolation-filters:linearRGB;solid-color:#000000;solid-opacity:1;vector-effect:none;fill:#684808;fill-opacity:1;fill-rule:nonzero;stroke:none;stroke-width:3.77953;stroke-linecap:butt;stroke-linejoin:miter;stroke-miterlimit:5;stroke-dasharray:none;stroke-dashoffset:0;stroke-opacity:1;color-rendering:auto;image-rendering:auto;shape-rendering:auto;text-rendering:auto;enable-background:accumulate;stop-color:#000000;stop-opacity:1"
           d="m 274.4668,533.87305 c -0.30217,-0.008 -0.58772,0.0106 -0.88086,0.0176 2.03327,2.16011 10.88052,11.63729 16.55859,19.15235 l 0.79883,-0.60352 c -5.1489,-6.8147 -12.91311,-15.2542 -15.97266,-18.52929 -0.16613,-0.009 -0.34038,-0.0326 -0.5039,-0.0371 z m -4.14844,0.44922 c -0.37214,0.0956 -0.73254,0.20811 -1.08398,0.33398 6.41468,6.74208 13.64586,13.90835 18.83007,20.47656 l 0.78907,-0.61328 c -6.29913,-7.64219 -12.44789,-14.02622 -18.53516,-20.19726 z m -5.83984,3.65429 c -0.21156,0.25614 -0.41162,0.52429 -0.60352,0.80274 3.03533,2.74396 13.26713,12.13878 19.83984,20.15429 l 0.77539,-0.63476 c -6.71158,-8.18488 -17.07702,-17.67543 -20.01171,-20.32227 z M 262.5,541.37695 c -0.13748,0.34509 -0.27295,0.69206 -0.38867,1.0586 6.52355,5.71018 13.47763,10.98834 18.93945,18.36718 l 0.80469,-0.59179 C 275.76557,552.85497 269.67511,547.33472 262.5,541.37695 Z m -3.03516,4.41993 c -0.40413,0.0873 -0.80039,0.18683 -1.18554,0.30468 1.66572,1.42785 11.15797,9.62294 15.5957,14.91406 l 0.76172,-0.64257 c -4.2037,-5.01208 -12.52081,-12.28917 -15.17188,-14.57617 z m -2.83593,0.92773 c -0.32946,0.14797 -0.65099,0.30441 -0.96289,0.47461 3.1618,2.86577 10.82217,9.91071 16.5996,16.08984 l 0.73047,-0.68554 c -5.5618,-5.94852 -12.95597,-12.77935 -16.36718,-15.87891 z m -5.08985,3.91601 c -0.21215,0.26189 -0.41386,0.52993 -0.60547,0.80469 2.74087,2.13321 10.97076,8.59186 14.06836,11.68946 l 0.70899,-0.70899 c -3.23634,-3.23631 -11.44538,-9.66753 -14.17188,-11.78516 z m -1.58203,2.41016 c -0.15691,0.30517 -0.29627,0.61733 -0.42969,0.93164 1.88182,1.44832 12.7671,9.84107 18.30274,14.72656 l 0.65625,-0.74609 c -5.67532,-5.0088 -16.89355,-13.65346 -18.5293,-14.91211 z m -0.9082,2.22461 c -0.10674,0.34294 -0.19639,0.68835 -0.27539,1.03711 2.74404,1.97232 11.56011,8.40137 16.82617,13.44336 l 0.69531,-0.71484 c -5.61284,-5.37402 -15.02268,-12.17601 -17.24609,-13.76563 z m -2.54297,4.41016 c -0.36627,0.14866 -0.72,0.30294 -1.05469,0.46679 2.83974,2.04839 9.83346,7.26212 14.9961,12.57227 l 0.71679,-0.69531 c -4.9016,-5.04165 -11.47939,-10.02716 -14.6582,-12.34375 z m -2.23828,1.11718 c -0.30792,0.18731 -0.59765,0.38224 -0.875,0.58204 1.33599,1.04211 9.96948,7.79148 16.3164,13.45117 l 0.66407,-0.7461 c -6.24284,-5.56687 -14.4411,-11.98749 -16.10547,-13.28711 z m -4.59375,4.97071 c -0.15053,0.30878 -0.29313,0.61652 -0.41211,0.92383 1.85777,1.18474 11.50407,7.34776 16.46875,10.98046 l 0.5918,-0.80468 c -5.08435,-3.72041 -14.95626,-10.02123 -16.64844,-11.09961 z m -1.06445,3.18945 c -0.069,0.36518 -0.12439,0.72036 -0.16211,1.06055 3.05857,1.77778 10.18874,6.06171 14.16796,9.63281 l 0.66407,-0.74609 c -4.37562,-3.9268 -11.99345,-8.41328 -14.66992,-9.94727 z"
           transform="scale(0.26458333)" />
        <path
           id="path1740"
           style="color:#000000;font-style:normal;font-variant:normal;font-weight:normal;font-stretch:normal;font-size:medium;line-height:normal;font-family:sans-serif;font-variant-ligatures:normal;font-variant-position:normal;font-variant-caps:normal;font-variant-numeric:normal;font-variant-alternates:normal;font-variant-east-asian:normal;font-feature-settings:normal;font-variation-settings:normal;text-indent:0;text-align:start;text-decoration:none;text-decoration-line:none;text-decoration-style:solid;text-decoration-color:#000000;letter-spacing:normal;word-spacing:normal;text-transform:none;writing-mode:lr-tb;direction:ltr;text-orientation:mixed;dominant-baseline:auto;baseline-shift:baseline;text-anchor:start;white-space:normal;shape-padding:0;shape-margin:0;inline-size:0;clip-rule:nonzero;display:inline;overflow:visible;visibility:visible;opacity:1;isolation:auto;mix-blend-mode:normal;color-interpolation:sRGB;color-interpolation-filters:linearRGB;solid-color:#000000;solid-opacity:1;vector-effect:none;fill:#473106;fill-opacity:1;fill-rule:nonzero;stroke:none;stroke-width:3.77953;stroke-linecap:butt;stroke-linejoin:miter;stroke-miterlimit:5;stroke-dasharray:none;stroke-dashoffset:0;stroke-opacity:1;color-rendering:auto;image-rendering:auto;shape-rendering:auto;text-rendering:auto;enable-background:accumulate;stop-color:#000000;stop-opacity:1"
           d="m 267.33398,535.52148 c -0.30507,0.1786 -0.5911,0.38167 -0.875,0.5879 l 0.13086,0.0898 c 52.62193,45.89492 67.88614,127.32891 55.00196,180.2793 l -0.0312,0.0937 c 0.38974,-0.1695 0.77527,-0.36849 1.16211,-0.55665 12.67741,-53.33747 -2.69559,-134.46305 -55.38868,-180.49414 z m -5.71875,8.92774 c -0.0658,0.34425 -0.13828,0.68197 -0.1875,1.04101 -0.0407,0.003 -0.0786,0.012 -0.11914,0.0156 l 0.084,0.0742 0.0156,0.008 c 23.43516,17.48436 40.7111,46.65767 50.24805,78.41016 9.53695,31.75249 11.33004,66.08111 3.88281,93.80859 l -0.23633,0.66406 c 0.3807,-0.067 0.76118,-0.15932 1.14258,-0.24414 l 0.0527,-0.14648 0.008,-0.0137 c 7.51118,-27.9656 5.69346,-62.44606 -3.89063,-94.35547 -9.58018,-31.89646 -26.92155,-61.2341 -50.58007,-78.89844 l -0.0293,-0.0215 z m -8.17968,4.26758 c -0.25784,0.21513 -0.51049,0.43483 -0.75,0.66601 l 0.0117,0.0137 0.0371,0.0293 c 53.77226,42.74147 73.48827,120.59126 57.74023,168.61133 l -0.008,0.0215 -0.16797,0.75782 c 0.33677,0.0116 0.67204,0.0346 1.01172,0.0312 l 0.10937,-0.50196 0.0137,-0.0508 c 15.88636,-48.535 -3.94022,-126.54343 -57.99804,-169.57812 z m -4.97071,9.86132 c -0.007,0.14657 -0.0252,0.29286 -0.0273,0.43946 -0.27154,0.0776 -0.52779,0.16491 -0.78516,0.25 l 0.58594,0.32422 c 24.05675,15.43283 41.73048,41.96327 51.77734,71.09375 10.04687,29.13048 12.45974,60.85296 6.09571,86.58398 l -0.22852,0.94531 c 0.32268,0.0806 0.65068,0.14601 0.97852,0.21094 l 0.22461,-0.91992 h -0.006 c 6.4241,-25.9739 3.98253,-57.84945 -6.1211,-87.14453 -10.10361,-29.29504 -27.87402,-56.0176 -52.18164,-71.61133 l -0.0156,-0.008 z m -7,4.52149 c -0.23341,0.25837 -0.45366,0.52091 -0.65429,0.78711 l 0.17773,0.0977 c 56.98935,37.11511 71.97701,105.72231 60.70313,151.97851 l -0.1836,0.58399 c 0.29703,0.15831 0.60342,0.29763 0.90821,0.43945 l 0.24218,-0.77344 0.006,-0.0137 c 11.37651,-46.67724 -3.73525,-115.67938 -61.13672,-153.05664 l -0.0137,-0.0156 z"
           transform="scale(0.26458333)" />
        <g
           id="g1768"
           transform="matrix(1.0092973,0.02491997,-0.02492115,1.0092496,3.1921463,-3.4690764)"
           style="stroke-width:0.99051">
          <path
             id="path1742"
             style="fill:#bf9f4f;fill-opacity:1;fill-rule:evenodd;stroke:#473106;stroke-width:0.262072;stroke-linejoin:miter;stroke-miterlimit:4;stroke-dasharray:none;stroke-opacity:1"
             d="m 72.514988,148.42326 c -0.704279,0.69623 -0.621322,2.28632 0.387899,2.73741 0.844195,-0.71346 0.482113,-2.26404 -0.387899,-2.73741 z" />
          <path
             id="path1744"
             style="fill:#bf9f4f;fill-opacity:1;fill-rule:evenodd;stroke:#473106;stroke-width:0.262072;stroke-linejoin:miter;stroke-miterlimit:4;stroke-dasharray:none;stroke-opacity:1"
             d="m 74.06935,149.64127 c -0.819305,0.55636 -1.02734,2.13496 -0.117159,2.76227 0.960023,-0.5478 0.8864,-2.13837 0.117159,-2.76227 z" />
          <path
             id="path1746"
             style="fill:#bf9f4f;fill-opacity:1;fill-rule:evenodd;stroke:#473106;stroke-width:0.262072;stroke-linejoin:miter;stroke-miterlimit:4;stroke-dasharray:none;stroke-opacity:1"
             d="m 70.017216,151.07081 c 0.537321,0.80231 2.110836,1.07117 2.75906,0.23631 -0.525541,-0.93539 -2.117527,-0.93765 -2.75906,-0.23631 z" />
          <path
             id="path1748"
             style="fill:#bf9f4f;fill-opacity:1;fill-rule:evenodd;stroke:#473106;stroke-width:0.262072;stroke-linejoin:miter;stroke-miterlimit:4;stroke-dasharray:none;stroke-opacity:1"
             d="m 71.063045,152.43114 c 0.558909,0.70284 2.138256,0.87443 2.762825,0.0876 -0.550795,-0.82406 -2.141252,-0.75305 -2.762825,-0.0876 z" />
          <path
             id="path1750"
             style="fill:#bf9f4f;fill-opacity:1;fill-rule:evenodd;stroke:#473106;stroke-width:0.262072;stroke-linejoin:miter;stroke-miterlimit:4;stroke-dasharray:none;stroke-opacity:1"
             d="m 75.120384,151.01622 c -0.819994,0.55534 -1.029987,2.13369 -0.120585,2.76213 0.960701,-0.54661 0.889052,-2.13728 0.120585,-2.76213 z" />
          <path
             id="path1752"
             style="fill:#bf9f4f;fill-opacity:1;fill-rule:evenodd;stroke:#473106;stroke-width:0.262072;stroke-linejoin:miter;stroke-miterlimit:4;stroke-dasharray:none;stroke-opacity:1"
             d="m 72.123425,153.53289 c 0.490805,0.75198 2.047217,1.07034 2.742554,0.34535 -0.471402,-0.87191 -2.061538,-0.94977 -2.742554,-0.34535 z" />
          <path
             id="path1754"
             style="fill:#bf9f4f;fill-opacity:1;fill-rule:evenodd;stroke:#473106;stroke-width:0.262072;stroke-linejoin:miter;stroke-miterlimit:4;stroke-dasharray:none;stroke-opacity:1"
             d="m 73.156773,154.75656 c 0.425346,0.79085 1.949199,1.23988 2.703448,0.57638 -0.395854,-0.90869 -1.973681,-1.12095 -2.703448,-0.57638 z" />
          <path
             id="path1756"
             style="fill:#bf9f4f;fill-opacity:1;fill-rule:evenodd;stroke:#473106;stroke-width:0.262072;stroke-linejoin:miter;stroke-miterlimit:4;stroke-dasharray:none;stroke-opacity:1"
             d="m 76.27168,152.50847 c -0.858926,0.49299 -1.185409,2.05142 -0.325124,2.74557 0.998598,-0.47386 1.045129,-2.06546 0.325124,-2.74557 z" />
          <path
             id="path1758"
             style="fill:#bf9f4f;fill-opacity:1;fill-rule:evenodd;stroke:#473106;stroke-width:0.262072;stroke-linejoin:miter;stroke-miterlimit:4;stroke-dasharray:none;stroke-opacity:1"
             d="m 77.311156,154.13562 c -0.809167,0.46728 -1.116736,1.94442 -0.30629,2.60237 0.940748,-0.44914 0.984582,-1.95773 0.30629,-2.60237 z" />
          <path
             id="path1760"
             style="fill:#bf9f4f;fill-opacity:1;fill-rule:evenodd;stroke:#473106;stroke-width:0.262072;stroke-linejoin:miter;stroke-miterlimit:4;stroke-dasharray:none;stroke-opacity:1"
             d="m 74.101203,156.11842 c 0.43469,0.89294 2.014757,1.41125 2.805277,0.67189 -0.402905,-1.02519 -2.041347,-1.27775 -2.805277,-0.67189 z" />
          <path
             id="path1762"
             style="fill:#bf9f4f;fill-opacity:1;fill-rule:evenodd;stroke:#473106;stroke-width:0.262072;stroke-linejoin:miter;stroke-miterlimit:4;stroke-dasharray:none;stroke-opacity:1"
             d="m 78.265182,155.66227 c -0.82643,0.43602 -1.190219,1.90033 -0.405505,2.58876 0.957222,-0.41287 1.05867,-1.91868 0.405505,-2.58876 z" />
          <path
             id="path1764"
             style="fill:#bf9f4f;fill-opacity:1;fill-rule:evenodd;stroke:#473106;stroke-width:0.262072;stroke-linejoin:miter;stroke-miterlimit:4;stroke-dasharray:none;stroke-opacity:1"
             d="m 75.249993,157.53799 c 0.315447,0.8795 1.714128,1.44566 2.506175,0.76568 -0.274127,-1.00572 -1.750802,-1.31802 -2.506175,-0.76568 z" />
          <path
             id="path1766"
             style="fill:#bf9f4f;fill-opacity:1;fill-rule:evenodd;stroke:#473106;stroke-width:0.262072;stroke-linejoin:miter;stroke-miterlimit:4;stroke-dasharray:none;stroke-opacity:1"
             d="m 69.811739,148.25982 c -0.191854,1.12269 0.951127,2.55359 2.19681,2.29917 0.311121,-1.23251 -1.066315,-2.43947 -2.19681,-2.29917 z" />
        </g>
        <g
           id="g1796"
           transform="rotate(5.105054,103.24075,196.74304)">
          <path
             id="path1770"
             style="fill:#bf9f4f;fill-opacity:1;fill-rule:evenodd;stroke:#473106;stroke-width:0.264583;stroke-linejoin:miter;stroke-miterlimit:4;stroke-dasharray:none;stroke-opacity:1"
             d="m 72.642254,148.45055 c -0.729448,0.66981 -0.705121,2.26188 0.286799,2.74984 0.869903,-0.68188 0.565185,-2.24475 -0.286799,-2.74984 z" />
          <path
             id="path1772"
             style="fill:#bf9f4f;fill-opacity:1;fill-rule:evenodd;stroke:#473106;stroke-width:0.264583;stroke-linejoin:miter;stroke-miterlimit:4;stroke-dasharray:none;stroke-opacity:1"
             d="m 74.06935,149.64127 c -0.819305,0.55636 -1.02734,2.13496 -0.117159,2.76227 0.960023,-0.5478 0.8864,-2.13837 0.117159,-2.76227 z" />
          <path
             id="path1774"
             style="fill:#bf9f4f;fill-opacity:1;fill-rule:evenodd;stroke:#473106;stroke-width:0.264583;stroke-linejoin:miter;stroke-miterlimit:4;stroke-dasharray:none;stroke-opacity:1"
             d="m 70.04865,151.00429 c 0.507402,0.82156 2.069946,1.1482 2.748483,0.33778 -0.490728,-0.95411 -2.08155,-1.01501 -2.748483,-0.33778 z" />
          <path
             id="path1776"
             style="fill:#bf9f4f;fill-opacity:1;fill-rule:evenodd;stroke:#473106;stroke-width:0.264583;stroke-linejoin:miter;stroke-miterlimit:4;stroke-dasharray:none;stroke-opacity:1"
             d="m 71.063045,152.43114 c 0.558909,0.70284 2.138256,0.87443 2.762825,0.0876 -0.550795,-0.82406 -2.141252,-0.75305 -2.762825,-0.0876 z" />
          <path
             id="path1778"
             style="fill:#bf9f4f;fill-opacity:1;fill-rule:evenodd;stroke:#473106;stroke-width:0.264583;stroke-linejoin:miter;stroke-miterlimit:4;stroke-dasharray:none;stroke-opacity:1"
             d="m 75.120384,151.01622 c -0.819994,0.55534 -1.029987,2.13369 -0.120585,2.76213 0.960701,-0.54661 0.889052,-2.13728 0.120585,-2.76213 z" />
          <path
             id="path1780"
             style="fill:#bf9f4f;fill-opacity:1;fill-rule:evenodd;stroke:#473106;stroke-width:0.264583;stroke-linejoin:miter;stroke-miterlimit:4;stroke-dasharray:none;stroke-opacity:1"
             d="m 72.123425,153.53289 c 0.490805,0.75198 2.047217,1.07034 2.742554,0.34535 -0.471402,-0.87191 -2.061538,-0.94977 -2.742554,-0.34535 z" />
          <path
             id="path1782"
             style="fill:#bf9f4f;fill-opacity:1;fill-rule:evenodd;stroke:#473106;stroke-width:0.264583;stroke-linejoin:miter;stroke-miterlimit:4;stroke-dasharray:none;stroke-opacity:1"
             d="m 73.156773,154.75656 c 0.425346,0.79085 1.949199,1.23988 2.703448,0.57638 -0.395854,-0.90869 -1.973681,-1.12095 -2.703448,-0.57638 z" />
          <path
             id="path1784"
             style="fill:#bf9f4f;fill-opacity:1;fill-rule:evenodd;stroke:#473106;stroke-width:0.264583;stroke-linejoin:miter;stroke-miterlimit:4;stroke-dasharray:none;stroke-opacity:1"
             d="m 76.27168,152.50847 c -0.858926,0.49299 -1.185409,2.05142 -0.325124,2.74557 0.998598,-0.47386 1.045129,-2.06546 0.325124,-2.74557 z" />
          <path
             id="path1786"
             style="fill:#bf9f4f;fill-opacity:1;fill-rule:evenodd;stroke:#473106;stroke-width:0.264583;stroke-linejoin:miter;stroke-miterlimit:4;stroke-dasharray:none;stroke-opacity:1"
             d="m 77.311156,154.13562 c -0.809167,0.46728 -1.116736,1.94442 -0.30629,2.60237 0.940748,-0.44914 0.984582,-1.95773 0.30629,-2.60237 z" />
          <path
             id="path1788"
             style="fill:#bf9f4f;fill-opacity:1;fill-rule:evenodd;stroke:#473106;stroke-width:0.264583;stroke-linejoin:miter;stroke-miterlimit:4;stroke-dasharray:none;stroke-opacity:1"
             d="m 74.098291,156.13029 c 0.442247,0.88922 2.026653,1.39411 2.810874,0.64807 -0.411584,-1.02173 -2.052109,-1.26039 -2.810874,-0.64807 z" />
          <path
             id="path1790"
             style="fill:#bf9f4f;fill-opacity:1;fill-rule:evenodd;stroke:#473106;stroke-width:0.264583;stroke-linejoin:miter;stroke-miterlimit:4;stroke-dasharray:none;stroke-opacity:1"
             d="m 78.265182,155.66227 c -0.82643,0.43602 -1.190219,1.90033 -0.405505,2.58876 0.957222,-0.41287 1.05867,-1.91868 0.405505,-2.58876 z" />
          <path
             id="path1792"
             style="fill:#bf9f4f;fill-opacity:1;fill-rule:evenodd;stroke:#473106;stroke-width:0.264583;stroke-linejoin:miter;stroke-miterlimit:4;stroke-dasharray:none;stroke-opacity:1"
             d="m 75.249993,157.53799 c 0.315447,0.8795 1.714128,1.44566 2.506175,0.76568 -0.274127,-1.00572 -1.750802,-1.31802 -2.506175,-0.76568 z" />
          <path
             id="path1794"
             style="fill:#bf9f4f;fill-opacity:1;fill-rule:evenodd;stroke:#473106;stroke-width:0.264583;stroke-linejoin:miter;stroke-miterlimit:4;stroke-dasharray:none;stroke-opacity:1"
             d="m 69.90015,148.23082 c -0.188715,1.12322 0.958263,2.55091 2.20323,2.293 0.307673,-1.23337 -1.073132,-2.43647 -2.20323,-2.293 z" />
        </g>
        <g
           id="g1824"
           transform="matrix(0.95220407,-0.03460646,0.03461283,0.95238555,-5.0317444,12.046099)"
           style="fill:#bf9f4f;fill-opacity:1;stroke-width:1.0494">
          <path
             id="path1798"
             style="fill:#bf9f4f;fill-opacity:1;fill-rule:evenodd;stroke:#473106;stroke-width:0.277655;stroke-linejoin:miter;stroke-miterlimit:4;stroke-dasharray:none;stroke-opacity:1"
             d="m 72.808334,148.39843 c -0.804631,0.57739 -0.97173,2.16086 -0.0456,2.76437 0.94552,-0.5725 0.830748,-2.16063 0.0456,-2.76437 z" />
          <path
             id="path1800"
             style="fill:#bf9f4f;fill-opacity:1;fill-rule:evenodd;stroke:#473106;stroke-width:0.277655;stroke-linejoin:miter;stroke-miterlimit:4;stroke-dasharray:none;stroke-opacity:1"
             d="m 74.093163,149.83637 c -0.839416,0.48075 -1.106052,1.92419 -0.219881,2.53504 0.979712,-0.46759 0.965342,-1.9326 0.219881,-2.53504 z" />
          <path
             id="path1802"
             style="fill:#bf9f4f;fill-opacity:1;fill-rule:evenodd;stroke:#473106;stroke-width:0.277655;stroke-linejoin:miter;stroke-miterlimit:4;stroke-dasharray:none;stroke-opacity:1"
             d="m 69.998758,150.83645 c 0.470111,0.84345 2.016465,1.23967 2.730607,0.46042 -0.44752,-0.97512 -2.034022,-1.10712 -2.730607,-0.46042 z" />
          <path
             id="path1804"
             style="fill:#bf9f4f;fill-opacity:1;fill-rule:evenodd;stroke:#473106;stroke-width:0.277655;stroke-linejoin:miter;stroke-miterlimit:4;stroke-dasharray:none;stroke-opacity:1"
             d="m 70.98527,152.28568 c 0.531123,0.72406 2.102593,0.95698 2.757321,0.19506 -0.518296,-0.84488 -2.110312,-0.83581 -2.757321,-0.19506 z" />
          <path
             id="path1806"
             style="fill:#bf9f4f;fill-opacity:1;fill-rule:evenodd;stroke:#473106;stroke-width:0.277655;stroke-linejoin:miter;stroke-miterlimit:4;stroke-dasharray:none;stroke-opacity:1"
             d="m 75.086798,151.13666 c -0.798868,0.5091 -1.011107,2.01832 -0.131769,2.64841 0.935394,-0.4966 0.874331,-2.02592 0.131769,-2.64841 z" />
          <path
             id="path1808"
             style="fill:#bf9f4f;fill-opacity:1;fill-rule:evenodd;stroke:#473106;stroke-width:0.277655;stroke-linejoin:miter;stroke-miterlimit:4;stroke-dasharray:none;stroke-opacity:1"
             d="m 72.0977,153.42844 c 0.46667,0.81693 2.012227,1.20451 2.730279,0.45305 -0.443466,-0.94419 -2.030374,-1.07641 -2.730279,-0.45305 z" />
          <path
             id="path1810"
             style="fill:#bf9f4f;fill-opacity:1;fill-rule:evenodd;stroke:#473106;stroke-width:0.277655;stroke-linejoin:miter;stroke-miterlimit:4;stroke-dasharray:none;stroke-opacity:1"
             d="m 73.156773,154.75656 c 0.425346,0.79085 1.949199,1.23988 2.703448,0.57638 -0.395854,-0.90869 -1.973681,-1.12095 -2.703448,-0.57638 z" />
          <path
             id="path1812"
             style="fill:#bf9f4f;fill-opacity:1;fill-rule:evenodd;stroke:#473106;stroke-width:0.277655;stroke-linejoin:miter;stroke-miterlimit:4;stroke-dasharray:none;stroke-opacity:1"
             d="m 76.27168,152.50847 c -0.858926,0.49299 -1.185409,2.05142 -0.325124,2.74557 0.998598,-0.47386 1.045129,-2.06546 0.325124,-2.74557 z" />
          <path
             id="path1814"
             style="fill:#bf9f4f;fill-opacity:1;fill-rule:evenodd;stroke:#473106;stroke-width:0.277655;stroke-linejoin:miter;stroke-miterlimit:4;stroke-dasharray:none;stroke-opacity:1"
             d="m 77.311156,154.13562 c -0.809167,0.46728 -1.116736,1.94442 -0.30629,2.60237 0.940748,-0.44914 0.984582,-1.95773 0.30629,-2.60237 z" />
          <path
             id="path1816"
             style="fill:#bf9f4f;fill-opacity:1;fill-rule:evenodd;stroke:#473106;stroke-width:0.277655;stroke-linejoin:miter;stroke-miterlimit:4;stroke-dasharray:none;stroke-opacity:1"
             d="m 74.098291,156.13029 c 0.442247,0.88922 2.026653,1.39411 2.810874,0.64807 -0.411584,-1.02173 -2.052109,-1.26039 -2.810874,-0.64807 z" />
          <path
             id="path1818"
             style="fill:#bf9f4f;fill-opacity:1;fill-rule:evenodd;stroke:#473106;stroke-width:0.277655;stroke-linejoin:miter;stroke-miterlimit:4;stroke-dasharray:none;stroke-opacity:1"
             d="m 78.250895,155.71286 c -0.805745,0.44145 -1.10273,1.83134 -0.287664,2.44805 0.937442,-0.42473 0.970494,-1.84353 0.287664,-2.44805 z" />
          <path
             id="path1820"
             style="fill:#bf9f4f;fill-opacity:1;fill-rule:evenodd;stroke:#473106;stroke-width:0.277655;stroke-linejoin:miter;stroke-miterlimit:4;stroke-dasharray:none;stroke-opacity:1"
             d="m 75.32521,157.56054 c 0.353135,0.86506 1.774962,1.37031 2.536905,0.65677 -0.317305,-0.99294 -1.80609,-1.2412 -2.536905,-0.65677 z" />
          <path
             id="path1822"
             style="fill:#bf9f4f;fill-opacity:1;fill-rule:evenodd;stroke:#473106;stroke-width:0.277655;stroke-linejoin:miter;stroke-miterlimit:4;stroke-dasharray:none;stroke-opacity:1"
             d="m 69.865242,148.53528 c -0.04612,1.03574 1.150958,2.19879 2.249559,1.828 0.1416,-1.14844 -1.242256,-2.08269 -2.249559,-1.828 z" />
        </g>
      </g>
    </g>
    <g
       id="g1335"
       transform="matrix(1.450466,0,0,1.450466,-56.140487,-48.365725)">
      <g
         id="g1340">
        <path
           id="path1478"
           style="font-variation-settings:normal;opacity:1;vector-effect:none;fill:#bf9f4f;fill-opacity:1;stroke:none;stroke-width:0.500001;stroke-linecap:butt;stroke-linejoin:miter;stroke-miterlimit:5;stroke-dasharray:none;stroke-dashoffset:0;stroke-opacity:1;stop-color:#000000;stop-opacity:1"
           d="m 354.11523,517.41992 c -7.47748,0 -12.49414,5.27149 -12.49414,5.27149 -17.04632,-5.49268 -22.72851,5.11328 -22.72851,5.11328 0,0 2.44754,9.29412 4.05469,13.84765 0,0 -1.34013,2.54325 0.80273,5.08789 0,0 -3.08092,2.94643 0.53516,7.5 0,0 -1.7408,2.01034 0.66992,6.16211 0,0 -1.74107,3.21398 0.9375,6.83008 0,0 -1.20534,3.61581 0.9375,7.76758 0,0 -2.12987,4.00694 1.6582,8.17383 3.53666,43.52504 9.4407,86.17068 4.36914,129.68359 0,0 3.21433,10.67383 21.25781,10.67383 18.04349,0 21.25586,-10.67383 21.25586,-10.67383 -5.07156,-43.51291 0.83249,-86.15855 4.36914,-129.68359 3.78807,-4.16689 1.65821,-8.17383 1.65821,-8.17383 2.14284,-4.15177 0.9375,-7.76758 0.9375,-7.76758 2.67859,-3.6161 0.9375,-6.83008 0.9375,-6.83008 2.41069,-4.15177 0.66992,-6.16211 0.66992,-6.16211 3.6161,-4.55357 0.53516,-7.5 0.53516,-7.5 2.14284,-2.54464 0.80273,-5.08789 0.80273,-5.08789 1.60713,-4.55353 4.05469,-13.84765 4.05469,-13.84765 0,0 -5.6822,-10.60596 -22.72852,-5.11328 0,0 -5.0147,-5.27149 -12.49219,-5.27149 z"
           transform="scale(0.26458333)" />
        <path
           id="path1476"
           style="color:#000000;font-style:normal;font-variant:normal;font-weight:normal;font-stretch:normal;font-size:medium;line-height:normal;font-family:sans-serif;font-variant-ligatures:normal;font-variant-position:normal;font-variant-caps:normal;font-variant-numeric:normal;font-variant-alternates:normal;font-variant-east-asian:normal;font-feature-settings:normal;font-variation-settings:normal;text-indent:0;text-align:start;text-decoration:none;text-decoration-line:none;text-decoration-style:solid;text-decoration-color:#000000;letter-spacing:normal;word-spacing:normal;text-transform:none;writing-mode:lr-tb;direction:ltr;text-orientation:mixed;dominant-baseline:auto;baseline-shift:baseline;text-anchor:start;white-space:normal;shape-padding:0;shape-margin:0;inline-size:0;clip-rule:nonzero;display:inline;overflow:visible;visibility:visible;opacity:1;isolation:auto;mix-blend-mode:normal;color-interpolation:sRGB;color-interpolation-filters:linearRGB;solid-color:#000000;solid-opacity:1;vector-effect:none;fill:#473106;fill-opacity:1;fill-rule:nonzero;stroke:none;stroke-width:3.77953;stroke-linecap:butt;stroke-linejoin:miter;stroke-miterlimit:5;stroke-dasharray:none;stroke-dashoffset:0;stroke-opacity:1;color-rendering:auto;image-rendering:auto;shape-rendering:auto;text-rendering:auto;enable-background:accumulate;stop-color:#000000;stop-opacity:1"
           d="m 354.11523,517.41992 c -0.17018,0 -0.33239,0.0161 -0.5,0.0215 v 206.08007 c 0.16838,0.002 0.32897,0.01 0.5,0.01 0.1697,0 0.32902,-0.008 0.4961,-0.01 V 517.44141 c -0.16632,-0.005 -0.32724,-0.0215 -0.4961,-0.0215 z m -4.125,0.54297 c -0.33318,0.0871 -0.6637,0.17842 -0.98046,0.28125 0.12897,1.72674 1.05995,14.19317 1.76953,23.24024 l 0.99804,-0.082 c -0.71561,-9.12413 -1.67314,-21.91689 -1.78711,-23.43945 z m 8.25,0 c -0.11454,1.52268 -1.0754,14.31537 -1.79101,23.43945 l 0.99609,0.082 c 0.70958,-9.04704 1.64727,-21.5134 1.77735,-23.24024 -0.31728,-0.10304 -0.64866,-0.19402 -0.98243,-0.28125 z m 4.22852,1.69727 c -0.48964,3.38348 -1.7707,12.72444 -2.23242,21.18945 l 0.99609,0.0508 c 0.43107,-7.90277 1.61984,-16.83761 2.16797,-20.68945 -0.29763,-0.18536 -0.59729,-0.36701 -0.93164,-0.55078 z m -16.71289,0.002 c -0.33433,0.18383 -0.6321,0.3654 -0.92969,0.55078 0.54782,3.85379 1.73508,12.78711 2.16602,20.6875 l 0.99804,-0.0508 c -0.46159,-8.46262 -1.74391,-17.80141 -2.23437,-21.1875 z m -12.83594,1.46094 c 0.24828,1.97018 1.8367,14.58742 2.71289,22.64843 l 0.9961,-0.10937 c -0.86918,-7.9964 -2.41628,-20.31205 -2.69141,-22.49805 -0.34531,-0.0211 -0.68605,-0.0349 -1.01758,-0.041 z m 42.11524,0 c -0.24002,0.007 -0.49119,0.026 -0.73828,0.041 -0.27541,2.186 -1.82419,14.50165 -2.69336,22.49805 l 0.99804,0.10937 c 0.8762,-8.06098 2.45778,-20.67816 2.70508,-22.64843 -0.0917,0.002 -0.17872,-0.003 -0.27148,0 z m -45.09571,0.14648 c -0.33805,0.0419 -0.66602,0.0914 -0.98633,0.14844 6.91819,39.25303 19.59978,142.35322 12.62696,199.80664 0.30951,0.13605 0.63018,0.26696 0.96094,0.39453 7.08121,-57.67911 -5.65335,-160.92584 -12.60157,-200.34961 z m 48.34571,0 c -6.94823,39.4242 -19.68136,142.67283 -12.59961,200.35156 0.33274,-0.12828 0.65554,-0.25963 0.96679,-0.39648 -6.97269,-57.45253 5.71061,-160.55028 12.62891,-199.80469 -0.32336,-0.0577 -0.65463,-0.10817 -0.99609,-0.15039 z m -41.58594,0.21289 c 0.59515,3.81763 1.94441,12.96982 2.52734,21.13086 l 0.99805,-0.0742 c -0.56443,-7.90197 -1.85196,-16.78623 -2.48047,-20.86133 -0.35379,-0.0715 -0.70279,-0.13851 -1.04492,-0.19531 z m 34.82617,0 c -0.33896,0.0563 -0.68476,0.12265 -1.03516,0.19336 -0.63064,4.07443 -1.92378,12.96036 -2.48828,20.86328 l 0.9961,0.0742 c 0.58292,-8.16101 1.93166,-17.3132 2.52734,-21.13086 z m -29.23437,0.5957 c -0.33072,0.29695 -0.66993,0.61329 -0.66993,0.61329 -0.0971,-0.0313 -0.18875,-0.0557 -0.28515,-0.0859 3.78683,39.44881 10.83333,143.88259 5.27929,200.20508 0.31965,0.0667 0.65227,0.12715 0.98633,0.18554 5.61161,-56.70469 -1.5259,-161.71921 -5.31054,-200.91797 z m 23.65039,0.004 c -3.78474,39.20165 -10.92197,144.21114 -5.31055,200.91406 0.33191,-0.058 0.6628,-0.11736 0.98047,-0.18359 -5.55441,-56.323 1.50008,-160.76129 5.28711,-200.20898 -0.0984,0.0309 -0.19186,0.0559 -0.29102,0.0879 0,0 -0.33932,-0.31563 -0.66601,-0.60938 z m -39.77149,0.0918 c -0.32017,0.11513 -0.6509,0.22364 -0.94726,0.35156 0.83814,3.60596 3.31346,14.57502 3.78125,20.65625 L 330,543.10742 c -0.48881,-6.3546 -3.03055,-17.5185 -3.83008,-20.93359 z m 55.89258,0.002 c -0.80076,3.4187 -3.34139,14.57879 -3.83008,20.93164 l 0.99805,0.0742 c 0.46757,-6.07849 2.9419,-17.04092 3.78125,-20.65234 -0.29716,-0.12842 -0.62811,-0.23796 -0.94922,-0.35352 z m 4.08789,2.19336 c -1.45539,4.94428 -3.26454,12.68217 -4.69141,19.81641 l 0.98243,0.1914 c 1.3835,-6.91749 3.14018,-14.42795 4.55273,-19.31836 -0.25716,-0.22903 -0.53896,-0.45709 -0.84375,-0.68945 z m -64.07422,0.002 c -0.30478,0.23244 -0.58663,0.46037 -0.84375,0.68946 1.41486,4.89046 3.17724,12.39989 4.56055,19.3164 l 0.97461,-0.1914 c -1.42669,-7.1334 -3.23611,-14.87009 -4.69141,-19.81446 z m 10.69922,56.65821 -0.99609,0.0879 c 3.86284,43.8156 9.16747,101.34941 5.19726,137.27929 0.29325,0.24631 0.59423,0.49328 0.92774,0.73633 4.1277,-36.10521 -1.24403,-94.03804 -5.12891,-138.10351 z m 42.68164,0 c -3.88481,44.06469 -9.25619,101.99621 -5.12891,138.10156 0.33139,-0.24162 0.63028,-0.48758 0.92188,-0.73242 -3.97039,-35.92976 1.34216,-93.46487 5.20508,-137.28125 z"
           transform="scale(0.26458333)" />
        <path
           id="path1421"
           style="fill:#bf9f4f;fill-opacity:1;fill-rule:evenodd;stroke:#473106;stroke-width:0.264583;stroke-linejoin:miter;stroke-miterlimit:4;stroke-dasharray:none;stroke-opacity:1"
           d="m 90.953555,150.57686 c 0.294258,0.86946 -0.490807,2.23284 -1.562672,2.25695 -0.407067,-0.93606 0.600727,-2.1621 1.562672,-2.25695 z" />
        <path
           id="path1337"
           style="fill:#bf9f4f;fill-opacity:1;fill-rule:evenodd;stroke:#473106;stroke-width:0.264583;stroke-linejoin:miter;stroke-miterlimit:4;stroke-dasharray:none;stroke-opacity:1"
           d="m 91.659005,142.61912 c -0.274222,0.99308 0.679054,2.60069 1.869995,2.67191 0.395403,-1.06548 -0.796777,-2.52337 -1.869995,-2.67191 z" />
        <path
           id="path1342"
           style="fill:#bf9f4f;fill-opacity:1;fill-rule:evenodd;stroke:#473106;stroke-width:0.264583;stroke-linejoin:miter;stroke-miterlimit:4;stroke-dasharray:none;stroke-opacity:1"
           d="m 91.679513,144.72788 c -0.240747,0.93966 0.697339,2.31283 1.830569,2.25199 0.354463,-1.0189 -0.807671,-2.22946 -1.830569,-2.25199 z" />
        <path
           id="path1344"
           style="fill:#bf9f4f;fill-opacity:1;fill-rule:evenodd;stroke:#473106;stroke-width:0.264583;stroke-linejoin:miter;stroke-miterlimit:4;stroke-dasharray:none;stroke-opacity:1"
           d="m 91.679513,146.58206 c -0.240747,0.93966 0.697339,2.31283 1.830569,2.25199 0.354463,-1.0189 -0.807671,-2.22946 -1.830569,-2.25199 z" />
        <path
           id="path1346"
           style="fill:#bf9f4f;fill-opacity:1;fill-rule:evenodd;stroke:#473106;stroke-width:0.264583;stroke-linejoin:miter;stroke-miterlimit:4;stroke-dasharray:none;stroke-opacity:1"
           d="m 91.679513,148.38613 c -0.240747,0.93966 0.697339,2.31283 1.830569,2.25199 0.354463,-1.0189 -0.807671,-2.22946 -1.830569,-2.25199 z" />
        <path
           id="path1348"
           style="fill:#bf9f4f;fill-opacity:1;fill-rule:evenodd;stroke:#473106;stroke-width:0.264583;stroke-linejoin:miter;stroke-miterlimit:4;stroke-dasharray:none;stroke-opacity:1"
           d="m 91.679513,150.29043 c -0.240747,0.93966 0.697339,2.31283 1.830569,2.25199 0.354463,-1.0189 -0.807671,-2.22946 -1.830569,-2.25199 z" />
        <path
           id="path1350"
           style="fill:#bf9f4f;fill-opacity:1;fill-rule:evenodd;stroke:#473106;stroke-width:0.264583;stroke-linejoin:miter;stroke-miterlimit:4;stroke-dasharray:none;stroke-opacity:1"
           d="m 91.679513,151.99427 c -0.240747,0.93966 0.697339,2.31283 1.830569,2.25199 0.354463,-1.0189 -0.807671,-2.22946 -1.830569,-2.25199 z" />
        <path
           id="path1401"
           style="fill:#bf9f4f;fill-opacity:1;fill-rule:evenodd;stroke:#473106;stroke-width:0.264583;stroke-linejoin:miter;stroke-miterlimit:4;stroke-dasharray:none;stroke-opacity:1"
           d="m 86.154244,143.29086 c -0.141064,1.02054 1.015604,2.48862 2.205553,2.40239 0.251655,-1.10826 -1.12212,-2.39647 -2.205553,-2.40239 z" />
        <path
           id="path1403"
           style="fill:#bf9f4f;fill-opacity:1;fill-rule:evenodd;stroke:#473106;stroke-width:0.264583;stroke-linejoin:miter;stroke-miterlimit:4;stroke-dasharray:none;stroke-opacity:1"
           d="m 86.392205,145.44629 c -0.05508,0.96844 1.130135,2.13501 2.230378,1.85684 0.151386,-1.06812 -1.222324,-2.03193 -2.230378,-1.85684 z" />
        <path
           id="path1405"
           style="fill:#bf9f4f;fill-opacity:1;fill-rule:evenodd;stroke:#473106;stroke-width:0.264583;stroke-linejoin:miter;stroke-miterlimit:4;stroke-dasharray:none;stroke-opacity:1"
           d="m 86.69642,147.21659 c -0.114915,0.96318 0.995823,2.20086 2.111174,1.99132 0.217206,-1.0567 -1.094217,-2.10369 -2.111174,-1.99132 z" />
        <path
           id="path1407"
           style="fill:#bf9f4f;fill-opacity:1;fill-rule:evenodd;stroke:#473106;stroke-width:0.264583;stroke-linejoin:miter;stroke-miterlimit:4;stroke-dasharray:none;stroke-opacity:1"
           d="m 86.933982,149.00495 c -0.114914,0.96318 0.995824,2.20086 2.111175,1.99132 0.217206,-1.0567 -1.094217,-2.10369 -2.111175,-1.99132 z" />
        <path
           id="path1409"
           style="fill:#bf9f4f;fill-opacity:1;fill-rule:evenodd;stroke:#473106;stroke-width:0.264583;stroke-linejoin:miter;stroke-miterlimit:4;stroke-dasharray:none;stroke-opacity:1"
           d="m 87.134631,150.84255 c -0.114915,0.96318 0.995823,2.20087 2.111174,1.99133 0.217206,-1.0567 -1.094217,-2.10369 -2.111174,-1.99133 z" />
        <path
           id="path1411"
           style="fill:#bf9f4f;fill-opacity:1;fill-rule:evenodd;stroke:#473106;stroke-width:0.264583;stroke-linejoin:miter;stroke-miterlimit:4;stroke-dasharray:none;stroke-opacity:1"
           d="m 87.231932,152.58167 c -0.114915,0.96318 0.995824,2.20086 2.111174,1.99132 0.217206,-1.0567 -1.094217,-2.10369 -2.111174,-1.99132 z" />
        <path
           id="path1413"
           style="fill:#bf9f4f;fill-opacity:1;fill-rule:evenodd;stroke:#473106;stroke-width:0.264583;stroke-linejoin:miter;stroke-miterlimit:4;stroke-dasharray:none;stroke-opacity:1"
           d="m 90.237036,142.8487 c 0.348912,0.96936 -0.479413,2.64478 -1.661497,2.80631 -0.475243,-1.03234 0.602673,-2.57663 1.661497,-2.80631 z" />
        <path
           id="path1415"
           style="fill:#bf9f4f;fill-opacity:1;fill-rule:evenodd;stroke:#473106;stroke-width:0.264583;stroke-linejoin:miter;stroke-miterlimit:4;stroke-dasharray:none;stroke-opacity:1"
           d="m 90.458515,144.9258 c 0.286757,0.92665 -0.582525,2.34438 -1.717377,2.33946 -0.404239,-1.0002 0.696832,-2.26655 1.717377,-2.33946 z" />
        <path
           id="path1417"
           style="fill:#bf9f4f;fill-opacity:1;fill-rule:evenodd;stroke:#473106;stroke-width:0.264583;stroke-linejoin:miter;stroke-miterlimit:4;stroke-dasharray:none;stroke-opacity:1"
           d="m 90.618035,146.80173 c 0.311474,0.91865 -0.519525,2.35914 -1.654102,2.38461 -0.430883,-0.989 0.635874,-2.2844 1.654102,-2.38461 z" />
        <path
           id="path1419"
           style="fill:#bf9f4f;fill-opacity:1;fill-rule:evenodd;stroke:#473106;stroke-width:0.264583;stroke-linejoin:miter;stroke-miterlimit:4;stroke-dasharray:none;stroke-opacity:1"
           d="m 90.805275,148.60058 c 0.311473,0.91865 -0.519526,2.35914 -1.654103,2.38461 -0.430883,-0.989 0.635875,-2.2844 1.654103,-2.38461 z" />
        <path
           id="path1423"
           style="fill:#bf9f4f;fill-opacity:1;fill-rule:evenodd;stroke:#473106;stroke-width:0.264583;stroke-linejoin:miter;stroke-miterlimit:4;stroke-dasharray:none;stroke-opacity:1"
           d="m 91.105857,152.34508 c 0.277032,0.87297 -0.532327,2.21795 -1.602311,2.22144 -0.388324,-0.94156 0.640655,-2.14528 1.602311,-2.22144 z" />
        <path
           id="path1168-8"
           style="fill:#bf9f4f;fill-opacity:1;fill-rule:evenodd;stroke:#473106;stroke-width:0.264583;stroke-linejoin:miter;stroke-miterlimit:4;stroke-dasharray:none;stroke-opacity:1"
           d="m 87.780018,141.25295 c -0.780851,0.87588 -0.640537,2.6763 0.52029,3.07056 0.939485,-0.91203 0.482867,-2.63447 -0.52029,-3.07056 z" />
        <path
           id="path1486"
           style="fill:#bf9f4f;fill-opacity:1;fill-rule:evenodd;stroke:#473106;stroke-width:0.264583;stroke-linejoin:miter;stroke-miterlimit:4;stroke-dasharray:none;stroke-opacity:1"
           d="m 96.431915,150.57686 c -0.294258,0.86946 0.490807,2.23284 1.562672,2.25695 0.407067,-0.93606 -0.600727,-2.1621 -1.562672,-2.25695 z" />
        <path
           id="path1488"
           style="fill:#bf9f4f;fill-opacity:1;fill-rule:evenodd;stroke:#473106;stroke-width:0.264583;stroke-linejoin:miter;stroke-miterlimit:4;stroke-dasharray:none;stroke-opacity:1"
           d="m 95.726465,142.61912 c 0.274222,0.99308 -0.679054,2.60069 -1.869995,2.67191 -0.395403,-1.06548 0.796777,-2.52337 1.869995,-2.67191 z" />
        <path
           id="path1490"
           style="fill:#bf9f4f;fill-opacity:1;fill-rule:evenodd;stroke:#473106;stroke-width:0.264583;stroke-linejoin:miter;stroke-miterlimit:4;stroke-dasharray:none;stroke-opacity:1"
           d="m 95.705957,144.72788 c 0.240747,0.93966 -0.697339,2.31283 -1.830569,2.25199 -0.354463,-1.0189 0.807671,-2.22946 1.830569,-2.25199 z" />
        <path
           id="path1492"
           style="fill:#bf9f4f;fill-opacity:1;fill-rule:evenodd;stroke:#473106;stroke-width:0.264583;stroke-linejoin:miter;stroke-miterlimit:4;stroke-dasharray:none;stroke-opacity:1"
           d="m 95.705957,146.58206 c 0.240747,0.93966 -0.697339,2.31283 -1.830569,2.25199 -0.354463,-1.0189 0.807671,-2.22946 1.830569,-2.25199 z" />
        <path
           id="path1494"
           style="fill:#bf9f4f;fill-opacity:1;fill-rule:evenodd;stroke:#473106;stroke-width:0.264583;stroke-linejoin:miter;stroke-miterlimit:4;stroke-dasharray:none;stroke-opacity:1"
           d="m 95.705957,148.38613 c 0.240747,0.93966 -0.697339,2.31283 -1.830569,2.25199 -0.354463,-1.0189 0.807671,-2.22946 1.830569,-2.25199 z" />
        <path
           id="path1496"
           style="fill:#bf9f4f;fill-opacity:1;fill-rule:evenodd;stroke:#473106;stroke-width:0.264583;stroke-linejoin:miter;stroke-miterlimit:4;stroke-dasharray:none;stroke-opacity:1"
           d="m 95.705957,150.29043 c 0.240747,0.93966 -0.697339,2.31283 -1.830569,2.25199 -0.354463,-1.0189 0.807671,-2.22946 1.830569,-2.25199 z" />
        <path
           id="path1498"
           style="fill:#bf9f4f;fill-opacity:1;fill-rule:evenodd;stroke:#473106;stroke-width:0.264583;stroke-linejoin:miter;stroke-miterlimit:4;stroke-dasharray:none;stroke-opacity:1"
           d="m 95.705957,151.99427 c 0.240747,0.93966 -0.697339,2.31283 -1.830569,2.25199 -0.354463,-1.0189 0.807671,-2.22946 1.830569,-2.25199 z" />
        <path
           id="path1500"
           style="fill:#bf9f4f;fill-opacity:1;fill-rule:evenodd;stroke:#473106;stroke-width:0.264583;stroke-linejoin:miter;stroke-miterlimit:4;stroke-dasharray:none;stroke-opacity:1"
           d="m 101.23123,143.29086 c 0.14106,1.02054 -1.01561,2.48862 -2.205557,2.40239 -0.251655,-1.10826 1.122117,-2.39647 2.205557,-2.40239 z" />
        <path
           id="path1502"
           style="fill:#bf9f4f;fill-opacity:1;fill-rule:evenodd;stroke:#473106;stroke-width:0.264583;stroke-linejoin:miter;stroke-miterlimit:4;stroke-dasharray:none;stroke-opacity:1"
           d="m 100.99326,145.44629 c 0.0551,0.96844 -1.13013,2.13501 -2.230373,1.85684 -0.151386,-1.06812 1.222324,-2.03193 2.230373,-1.85684 z" />
        <path
           id="path1504"
           style="fill:#bf9f4f;fill-opacity:1;fill-rule:evenodd;stroke:#473106;stroke-width:0.264583;stroke-linejoin:miter;stroke-miterlimit:4;stroke-dasharray:none;stroke-opacity:1"
           d="m 100.68905,147.21659 c 0.11491,0.96318 -0.995823,2.20086 -2.111174,1.99132 -0.217206,-1.0567 1.094217,-2.10369 2.111174,-1.99132 z" />
        <path
           id="path1506"
           style="fill:#bf9f4f;fill-opacity:1;fill-rule:evenodd;stroke:#473106;stroke-width:0.264583;stroke-linejoin:miter;stroke-miterlimit:4;stroke-dasharray:none;stroke-opacity:1"
           d="m 100.45149,149.00495 c 0.11491,0.96318 -0.995826,2.20086 -2.111177,1.99132 -0.217206,-1.0567 1.094217,-2.10369 2.111177,-1.99132 z" />
        <path
           id="path1508"
           style="fill:#bf9f4f;fill-opacity:1;fill-rule:evenodd;stroke:#473106;stroke-width:0.264583;stroke-linejoin:miter;stroke-miterlimit:4;stroke-dasharray:none;stroke-opacity:1"
           d="m 100.25084,150.84255 c 0.11491,0.96318 -0.995824,2.20087 -2.111175,1.99133 -0.217206,-1.0567 1.094217,-2.10369 2.111175,-1.99133 z" />
        <path
           id="path1510"
           style="fill:#bf9f4f;fill-opacity:1;fill-rule:evenodd;stroke:#473106;stroke-width:0.264583;stroke-linejoin:miter;stroke-miterlimit:4;stroke-dasharray:none;stroke-opacity:1"
           d="m 100.15354,152.58167 c 0.11491,0.96318 -0.995826,2.20086 -2.111176,1.99132 -0.217206,-1.0567 1.094217,-2.10369 2.111176,-1.99132 z" />
        <path
           id="path1512"
           style="fill:#bf9f4f;fill-opacity:1;fill-rule:evenodd;stroke:#473106;stroke-width:0.264583;stroke-linejoin:miter;stroke-miterlimit:4;stroke-dasharray:none;stroke-opacity:1"
           d="m 97.148434,142.8487 c -0.348912,0.96936 0.479413,2.64478 1.661497,2.80631 0.475243,-1.03234 -0.602673,-2.57663 -1.661497,-2.80631 z" />
        <path
           id="path1514"
           style="fill:#bf9f4f;fill-opacity:1;fill-rule:evenodd;stroke:#473106;stroke-width:0.264583;stroke-linejoin:miter;stroke-miterlimit:4;stroke-dasharray:none;stroke-opacity:1"
           d="m 96.926955,144.9258 c -0.286757,0.92665 0.582525,2.34438 1.717377,2.33946 0.404239,-1.0002 -0.696832,-2.26655 -1.717377,-2.33946 z" />
        <path
           id="path1516"
           style="fill:#bf9f4f;fill-opacity:1;fill-rule:evenodd;stroke:#473106;stroke-width:0.264583;stroke-linejoin:miter;stroke-miterlimit:4;stroke-dasharray:none;stroke-opacity:1"
           d="m 96.767435,146.80173 c -0.311474,0.91865 0.519525,2.35914 1.654102,2.38461 0.430883,-0.989 -0.635874,-2.2844 -1.654102,-2.38461 z" />
        <path
           id="path1518"
           style="fill:#bf9f4f;fill-opacity:1;fill-rule:evenodd;stroke:#473106;stroke-width:0.264583;stroke-linejoin:miter;stroke-miterlimit:4;stroke-dasharray:none;stroke-opacity:1"
           d="m 96.580195,148.60058 c -0.311473,0.91865 0.519526,2.35914 1.654103,2.38461 0.430883,-0.989 -0.635875,-2.2844 -1.654103,-2.38461 z" />
        <path
           id="path1520"
           style="fill:#bf9f4f;fill-opacity:1;fill-rule:evenodd;stroke:#473106;stroke-width:0.264583;stroke-linejoin:miter;stroke-miterlimit:4;stroke-dasharray:none;stroke-opacity:1"
           d="m 96.279613,152.34508 c -0.277032,0.87297 0.532327,2.21795 1.602311,2.22144 0.388324,-0.94156 -0.640655,-2.14528 -1.602311,-2.22144 z" />
        <path
           id="path1522"
           style="fill:#bf9f4f;fill-opacity:1;fill-rule:evenodd;stroke:#473106;stroke-width:0.264583;stroke-linejoin:miter;stroke-miterlimit:4;stroke-dasharray:none;stroke-opacity:1"
           d="m 99.605452,141.25295 c 0.780848,0.87588 0.640538,2.6763 -0.52029,3.07056 -0.939485,-0.91203 -0.482867,-2.63447 0.52029,-3.07056 z" />
        <path
           id="path1168"
           style="fill:#bf9f4f;fill-opacity:1;fill-rule:evenodd;stroke:#473106;stroke-width:0.264583;stroke-linejoin:miter;stroke-miterlimit:4;stroke-dasharray:none;stroke-opacity:1"
           d="m 93.692733,141.03988 c -0.904385,0.67403 -1.064732,2.48392 0,3.15503 1.064733,-0.67111 0.904385,-2.481 0,-3.15503 z" />
      </g>
    </g>
    <g
       id="g1472"
       transform="matrix(1.450466,0,0,1.450466,-56.140487,-48.365725)">
      <path
         id="rect1857"
         style="opacity:1;fill:#bf9f4f;fill-opacity:1;fill-rule:evenodd;stroke:none;stroke-width:0.264498;stroke-linejoin:miter;stroke-miterlimit:4;stroke-dasharray:none;stroke-opacity:1"
         d="m 79.310291,170.08364 h 28.764879 c 0.69407,0 1.25283,0.58111 1.25283,1.30294 0,0.72182 -0.55876,1.30294 -1.25283,1.30294 H 79.310291 c -0.694066,0 -1.252826,-0.58112 -1.252826,-1.30294 0,-0.72183 0.55876,-1.30294 1.252826,-1.30294 z" />
      <path
         id="path1860"
         style="opacity:1;fill:#bf9f4f;fill-opacity:1;fill-rule:evenodd;stroke:none;stroke-width:0.264583;stroke-linejoin:miter;stroke-miterlimit:4;stroke-dasharray:none;stroke-opacity:1"
         d="m 79.574874,172.68952 h 28.235706 c 0.69407,0 1.25283,0.58111 1.25283,1.30294 0,0.72183 -0.55876,1.30295 -1.25283,1.30295 H 79.574874 c -0.694066,0 -1.252826,-0.58112 -1.252826,-1.30295 0,-0.72183 0.55876,-1.30294 1.252826,-1.30294 z" />
      <path
         id="path1862"
         style="opacity:1;fill:#bf9f4f;fill-opacity:1;fill-rule:evenodd;stroke:none;stroke-width:0.264583;stroke-linejoin:miter;stroke-miterlimit:4;stroke-dasharray:none;stroke-opacity:1"
         d="M 79.839458,175.29541 H 107.546 c 0.69407,0 1.25283,0.58111 1.25283,1.30294 0,0.72182 -0.55876,1.30294 -1.25283,1.30294 H 79.839458 c -0.694066,0 -1.252826,-0.58112 -1.252826,-1.30294 0,-0.72183 0.55876,-1.30294 1.252826,-1.30294 z" />
      <g
         id="g1948"
         style="stroke:#5d3d00;stroke-opacity:1"
         transform="matrix(1.0000449,0,0,1.000125,-0.00417784,-0.15887098)">
        <path
           style="font-variation-settings:normal;opacity:1;vector-effect:none;fill:none;fill-opacity:1;stroke:#473106;stroke-width:0.264583;stroke-linecap:butt;stroke-linejoin:miter;stroke-miterlimit:5;stroke-dasharray:none;stroke-dashoffset:0;stroke-opacity:1;stop-color:#000000;stop-opacity:1"
           d="m 82.349053,170.08364 c -0.753497,0.23746 -1.125086,0.76765 -1.519381,1.30294 -0.394295,0.53528 -0.765884,1.06547 -1.519381,1.30294"
           id="path1931" />
        <path
           style="font-variation-settings:normal;opacity:1;vector-effect:none;fill:none;fill-opacity:1;stroke:#473106;stroke-width:0.264583;stroke-linecap:butt;stroke-linejoin:miter;stroke-miterlimit:5;stroke-dasharray:none;stroke-dashoffset:0;stroke-opacity:1;stop-color:#000000;stop-opacity:1"
           d="m 86.312047,170.08364 c -0.753497,0.23746 -1.125086,0.76765 -1.519381,1.30294 -0.394295,0.53528 -0.765884,1.06547 -1.519381,1.30294"
           id="path1961" />
        <path
           style="font-variation-settings:normal;opacity:1;vector-effect:none;fill:none;fill-opacity:1;stroke:#473106;stroke-width:0.264583;stroke-linecap:butt;stroke-linejoin:miter;stroke-miterlimit:5;stroke-dasharray:none;stroke-dashoffset:0;stroke-opacity:1;stop-color:#000000;stop-opacity:1"
           d="m 90.275054,170.08364 c -0.753497,0.23746 -1.125086,0.76765 -1.519381,1.30294 -0.394295,0.53528 -0.765884,1.06547 -1.519381,1.30294"
           id="path1963" />
        <path
           style="font-variation-settings:normal;opacity:1;vector-effect:none;fill:none;fill-opacity:1;stroke:#473106;stroke-width:0.264583;stroke-linecap:butt;stroke-linejoin:miter;stroke-miterlimit:5;stroke-dasharray:none;stroke-dashoffset:0;stroke-opacity:1;stop-color:#000000;stop-opacity:1"
           d="m 94.238047,170.08364 c -0.753497,0.23746 -1.125086,0.76765 -1.519381,1.30294 -0.394295,0.53528 -0.765884,1.06547 -1.519381,1.30294"
           id="path1965" />
        <path
           style="font-variation-settings:normal;opacity:1;vector-effect:none;fill:none;fill-opacity:1;stroke:#473106;stroke-width:0.264583;stroke-linecap:butt;stroke-linejoin:miter;stroke-miterlimit:5;stroke-dasharray:none;stroke-dashoffset:0;stroke-opacity:1;stop-color:#000000;stop-opacity:1"
           d="m 98.201046,170.08364 c -0.753497,0.23746 -1.125086,0.76765 -1.519381,1.30294 -0.394295,0.53528 -0.765884,1.06547 -1.519381,1.30294"
           id="path1967" />
        <path
           style="font-variation-settings:normal;opacity:1;vector-effect:none;fill:none;fill-opacity:1;stroke:#473106;stroke-width:0.264583;stroke-linecap:butt;stroke-linejoin:miter;stroke-miterlimit:5;stroke-dasharray:none;stroke-dashoffset:0;stroke-opacity:1;stop-color:#000000;stop-opacity:1"
           d="m 102.16405,170.08364 c -0.7535,0.23746 -1.12509,0.76765 -1.51938,1.30294 -0.3943,0.53528 -0.765884,1.06547 -1.519385,1.30294"
           id="path1969" />
        <path
           style="font-variation-settings:normal;opacity:1;vector-effect:none;fill:none;fill-opacity:1;stroke:#473106;stroke-width:0.264583;stroke-linecap:butt;stroke-linejoin:miter;stroke-miterlimit:5;stroke-dasharray:none;stroke-dashoffset:0;stroke-opacity:1;stop-color:#000000;stop-opacity:1"
           d="m 106.12705,170.08364 c -0.7535,0.23746 -1.12509,0.76765 -1.51938,1.30294 -0.3943,0.53528 -0.76588,1.06547 -1.51938,1.30294"
           id="path1971" />
        <path
           style="font-variation-settings:normal;opacity:1;vector-effect:none;fill:none;fill-opacity:1;stroke:#473106;stroke-width:0.264583;stroke-linecap:butt;stroke-linejoin:miter;stroke-miterlimit:5;stroke-dasharray:none;stroke-dashoffset:0;stroke-opacity:1;stop-color:#000000;stop-opacity:1"
           d="m 82.613636,172.68953 c -0.753497,0.23746 -1.125086,0.76765 -1.519381,1.30294 -0.394295,0.53528 -0.765884,1.06547 -1.519381,1.30294"
           id="path1973" />
        <path
           style="font-variation-settings:normal;opacity:1;vector-effect:none;fill:none;fill-opacity:1;stroke:#473106;stroke-width:0.264583;stroke-linecap:butt;stroke-linejoin:miter;stroke-miterlimit:5;stroke-dasharray:none;stroke-dashoffset:0;stroke-opacity:1;stop-color:#000000;stop-opacity:1"
           d="m 86.57663,172.68953 c -0.753497,0.23746 -1.125086,0.76765 -1.519381,1.30294 -0.394295,0.53528 -0.765884,1.06547 -1.519381,1.30294"
           id="path1975" />
        <path
           style="font-variation-settings:normal;opacity:1;vector-effect:none;fill:none;fill-opacity:1;stroke:#473106;stroke-width:0.264583;stroke-linecap:butt;stroke-linejoin:miter;stroke-miterlimit:5;stroke-dasharray:none;stroke-dashoffset:0;stroke-opacity:1;stop-color:#000000;stop-opacity:1"
           d="m 90.539637,172.68953 c -0.753497,0.23746 -1.125086,0.76765 -1.519381,1.30294 -0.394295,0.53528 -0.765884,1.06547 -1.519381,1.30294"
           id="path1977" />
        <path
           style="font-variation-settings:normal;opacity:1;vector-effect:none;fill:none;fill-opacity:1;stroke:#473106;stroke-width:0.264583;stroke-linecap:butt;stroke-linejoin:miter;stroke-miterlimit:5;stroke-dasharray:none;stroke-dashoffset:0;stroke-opacity:1;stop-color:#000000;stop-opacity:1"
           d="m 94.50263,172.68953 c -0.753497,0.23746 -1.125086,0.76765 -1.519381,1.30294 -0.394295,0.53528 -0.765884,1.06547 -1.519381,1.30294"
           id="path1979" />
        <path
           style="font-variation-settings:normal;opacity:1;vector-effect:none;fill:none;fill-opacity:1;stroke:#473106;stroke-width:0.264583;stroke-linecap:butt;stroke-linejoin:miter;stroke-miterlimit:5;stroke-dasharray:none;stroke-dashoffset:0;stroke-opacity:1;stop-color:#000000;stop-opacity:1"
           d="m 98.465629,172.68953 c -0.753497,0.23746 -1.125086,0.76765 -1.519381,1.30294 -0.394295,0.53528 -0.765884,1.06547 -1.519381,1.30294"
           id="path1981" />
        <path
           style="font-variation-settings:normal;opacity:1;vector-effect:none;fill:none;fill-opacity:1;stroke:#473106;stroke-width:0.264583;stroke-linecap:butt;stroke-linejoin:miter;stroke-miterlimit:5;stroke-dasharray:none;stroke-dashoffset:0;stroke-opacity:1;stop-color:#000000;stop-opacity:1"
           d="m 102.42863,172.68953 c -0.7535,0.23746 -1.12509,0.76765 -1.51938,1.30294 -0.3943,0.53528 -0.76588,1.06547 -1.519382,1.30294"
           id="path1983" />
        <path
           style="font-variation-settings:normal;opacity:1;vector-effect:none;fill:none;fill-opacity:1;stroke:#473106;stroke-width:0.264583;stroke-linecap:butt;stroke-linejoin:miter;stroke-miterlimit:5;stroke-dasharray:none;stroke-dashoffset:0;stroke-opacity:1;stop-color:#000000;stop-opacity:1"
           d="m 106.39163,172.68953 c -0.7535,0.23746 -1.12509,0.76765 -1.51938,1.30294 -0.3943,0.53528 -0.76588,1.06547 -1.51938,1.30294"
           id="path1985" />
        <path
           style="font-variation-settings:normal;opacity:1;vector-effect:none;fill:none;fill-opacity:1;stroke:#473106;stroke-width:0.264583;stroke-linecap:butt;stroke-linejoin:miter;stroke-miterlimit:5;stroke-dasharray:none;stroke-dashoffset:0;stroke-opacity:1;stop-color:#000000;stop-opacity:1"
           d="m 82.878219,175.29542 c -0.753497,0.23746 -1.125086,0.76765 -1.519381,1.30294 -0.394295,0.53528 -0.765884,1.06547 -1.519381,1.30294"
           id="path2041" />
        <path
           style="font-variation-settings:normal;opacity:1;vector-effect:none;fill:none;fill-opacity:1;stroke:#473106;stroke-width:0.264583;stroke-linecap:butt;stroke-linejoin:miter;stroke-miterlimit:5;stroke-dasharray:none;stroke-dashoffset:0;stroke-opacity:1;stop-color:#000000;stop-opacity:1"
           d="m 86.841213,175.29542 c -0.753497,0.23746 -1.125086,0.76765 -1.519381,1.30294 -0.394295,0.53528 -0.765884,1.06547 -1.519381,1.30294"
           id="path2043" />
        <path
           style="font-variation-settings:normal;opacity:1;vector-effect:none;fill:none;fill-opacity:1;stroke:#473106;stroke-width:0.264583;stroke-linecap:butt;stroke-linejoin:miter;stroke-miterlimit:5;stroke-dasharray:none;stroke-dashoffset:0;stroke-opacity:1;stop-color:#000000;stop-opacity:1"
           d="m 90.80422,175.29542 c -0.753497,0.23746 -1.125086,0.76765 -1.519381,1.30294 -0.394295,0.53528 -0.765884,1.06547 -1.519381,1.30294"
           id="path2045" />
        <path
           style="font-variation-settings:normal;opacity:1;vector-effect:none;fill:none;fill-opacity:1;stroke:#473106;stroke-width:0.264583;stroke-linecap:butt;stroke-linejoin:miter;stroke-miterlimit:5;stroke-dasharray:none;stroke-dashoffset:0;stroke-opacity:1;stop-color:#000000;stop-opacity:1"
           d="m 94.767213,175.29542 c -0.753497,0.23746 -1.125086,0.76765 -1.519381,1.30294 -0.394295,0.53528 -0.765884,1.06547 -1.519381,1.30294"
           id="path2047" />
        <path
           style="font-variation-settings:normal;opacity:1;vector-effect:none;fill:none;fill-opacity:1;stroke:#473106;stroke-width:0.264583;stroke-linecap:butt;stroke-linejoin:miter;stroke-miterlimit:5;stroke-dasharray:none;stroke-dashoffset:0;stroke-opacity:1;stop-color:#000000;stop-opacity:1"
           d="m 98.730212,175.29542 c -0.753497,0.23746 -1.125086,0.76765 -1.519381,1.30294 -0.394295,0.53528 -0.765884,1.06547 -1.519381,1.30294"
           id="path2049" />
        <path
           style="font-variation-settings:normal;opacity:1;vector-effect:none;fill:none;fill-opacity:1;stroke:#473106;stroke-width:0.264583;stroke-linecap:butt;stroke-linejoin:miter;stroke-miterlimit:5;stroke-dasharray:none;stroke-dashoffset:0;stroke-opacity:1;stop-color:#000000;stop-opacity:1"
           d="m 102.69321,175.29542 c -0.7535,0.23746 -1.12509,0.76765 -1.51938,1.30294 -0.3943,0.53528 -0.76588,1.06547 -1.519379,1.30294"
           id="path2051" />
        <path
           style="font-variation-settings:normal;opacity:1;vector-effect:none;fill:none;fill-opacity:1;stroke:#473106;stroke-width:0.264583;stroke-linecap:butt;stroke-linejoin:miter;stroke-miterlimit:5;stroke-dasharray:none;stroke-dashoffset:0;stroke-opacity:1;stop-color:#000000;stop-opacity:1"
           d="m 106.65621,175.29542 c -0.7535,0.23746 -1.12509,0.76765 -1.51938,1.30294 -0.3943,0.53528 -0.76588,1.06547 -1.51938,1.30294"
           id="path2053" />
      </g>
      <path
         style="color:#000000;font-style:normal;font-variant:normal;font-weight:normal;font-stretch:normal;font-size:medium;line-height:normal;font-family:sans-serif;font-variant-ligatures:normal;font-variant-position:normal;font-variant-caps:normal;font-variant-numeric:normal;font-variant-alternates:normal;font-variant-east-asian:normal;font-feature-settings:normal;font-variation-settings:normal;text-indent:0;text-align:start;text-decoration:none;text-decoration-line:none;text-decoration-style:solid;text-decoration-color:#000000;letter-spacing:normal;word-spacing:normal;text-transform:none;writing-mode:lr-tb;direction:ltr;text-orientation:mixed;dominant-baseline:auto;baseline-shift:baseline;text-anchor:start;white-space:normal;shape-padding:0;shape-margin:0;inline-size:0;clip-rule:nonzero;display:inline;overflow:visible;visibility:visible;opacity:1;isolation:auto;mix-blend-mode:normal;color-interpolation:sRGB;color-interpolation-filters:linearRGB;solid-color:#000000;solid-opacity:1;vector-effect:none;fill:#473106;fill-opacity:1;fill-rule:nonzero;stroke:none;stroke-linecap:butt;stroke-linejoin:miter;stroke-miterlimit:5;stroke-dasharray:none;stroke-dashoffset:0;stroke-opacity:1;color-rendering:auto;image-rendering:auto;shape-rendering:auto;text-rendering:auto;enable-background:accumulate;stop-color:#000000;stop-opacity:1"
         d="m 79.164062,169.81836 v 0.26562 h 29.058598 v -0.26562 z"
         id="path1844" />
      <path
         id="path1846"
         style="color:#000000;font-style:normal;font-variant:normal;font-weight:normal;font-stretch:normal;font-size:medium;line-height:normal;font-family:sans-serif;font-variant-ligatures:normal;font-variant-position:normal;font-variant-caps:normal;font-variant-numeric:normal;font-variant-alternates:normal;font-variant-east-asian:normal;font-feature-settings:normal;font-variation-settings:normal;text-indent:0;text-align:start;text-decoration:none;text-decoration-line:none;text-decoration-style:solid;text-decoration-color:#000000;letter-spacing:normal;word-spacing:normal;text-transform:none;writing-mode:lr-tb;direction:ltr;text-orientation:mixed;dominant-baseline:auto;baseline-shift:baseline;text-anchor:start;white-space:normal;shape-padding:0;shape-margin:0;inline-size:0;clip-rule:nonzero;display:inline;overflow:visible;visibility:visible;opacity:1;isolation:auto;mix-blend-mode:normal;color-interpolation:sRGB;color-interpolation-filters:linearRGB;solid-color:#000000;solid-opacity:1;vector-effect:none;fill:#473106;fill-opacity:1;fill-rule:nonzero;stroke:none;stroke-width:5.48208;stroke-linecap:butt;stroke-linejoin:miter;stroke-miterlimit:5;stroke-dasharray:none;stroke-dashoffset:0;stroke-opacity:1;color-rendering:auto;image-rendering:auto;shape-rendering:auto;text-rendering:auto;enable-background:accumulate;stop-color:#000000;stop-opacity:1"
         d="m 171.77734,523.99609 h 156.44532 l 0.62304,-0.0566 c 1.60028,0 3.0655,-0.56787 4.23047,-1.51562 H 166.92383 c 1.16497,0.94775 2.6302,1.51562 4.23047,1.51562 z m 1.60938,14.26368 h 153.22656 l 0.78125,-0.0352 c 1.58309,0 3.03407,-0.55734 4.19336,-1.48633 H 168.41211 c 1.15929,0.92899 2.61029,1.48633 4.19336,1.48633 z m -3.48438,12.79492 c 1.15235,0.90993 2.58727,1.45508 4.15235,1.45508 h 151.89062 c 1.56509,0 3,-0.54515 4.15235,-1.45508 z"
         transform="matrix(0.18241264,0,0,0.18241264,48.089572,77.116478)" />
    </g>
  </g>
</svg>
