<?xml version="1.0" encoding="UTF-8" standalone="no"?>
<svg xmlns:dc="http://purl.org/dc/elements/1.1/" xmlns:cc="http://creativecommons.org/ns#" xmlns:rdf="http://www.w3.org/1999/02/22-rdf-syntax-ns#" xmlns:svg="http://www.w3.org/2000/svg" xmlns="http://www.w3.org/2000/svg" xmlns:sodipodi="http://sodipodi.sourceforge.net/DTD/sodipodi-0.dtd" xmlns:inkscape="http://www.inkscape.org/namespaces/inkscape" width="500" height="594" viewBox="0 0 132.29166 157.1625" version="1.1" id="svg8" sodipodi:docname="ristijärvi.svg" inkscape:version="1.0 (4035a4fb49, 2020-05-01)">
  <defs id="defs2">
    <inkscape:perspective id="perspective10" inkscape:persp3d-origin="249.99999 : 48.495833 : 1" inkscape:vp_z="499.99999 : 142.6625 : 1" inkscape:vp_y="0 : 999.99997 : 0" inkscape:vp_x="0 : 142.6625 : 1" sodipodi:type="inkscape:persp3d"/>
    <style type="text/css" id="style835">
   <![CDATA[
    .str0 {stroke:#006EC7;stroke-width:0.708662}
    .str1 {stroke:#006EC7;stroke-width:0.992126}
    .str3 {stroke:#006EC7;stroke-width:1.98425}
    .str2 {stroke:#006EC7;stroke-width:2.26772}
    .fil3 {fill:none}
    .fil2 {fill:#C0A062}
    .fil0 {fill:#D0CFCF}
    .fil1 {fill:#006EC7}
   ]]>
  </style>
  </defs>
  <sodipodi:namedview inkscape:lockguides="true" inkscape:snap-others="false" id="base" pagecolor="#ffffff" bordercolor="#666666" borderopacity="1.0" inkscape:pageopacity="0.0" inkscape:pageshadow="2" inkscape:zoom="0.64593752" inkscape:cx="267.56259" inkscape:cy="245.61353" inkscape:document-units="px" inkscape:current-layer="layer1" inkscape:document-rotation="0" showgrid="false" units="px" inkscape:window-width="1920" inkscape:window-height="1017" inkscape:window-x="-8" inkscape:window-y="-8" inkscape:window-maximized="1" inkscape:showpageshadow="false" inkscape:object-nodes="true"/>
  <metadata id="metadata5">
    <rdf:RDF>
      <cc:Work rdf:about="">
        <dc:format>image/svg+xml</dc:format>
        <dc:type rdf:resource="http://purl.org/dc/dcmitype/StillImage"/>
        <dc:title/>
      </cc:Work>
    </rdf:RDF>
  </metadata>
  <g inkscape:label="Шар 1" inkscape:groupmode="layer" id="layer1" transform="translate(-45.749312,-38.84508)">
    <g id="layer1-7" inkscape:label="Layer 1" transform="matrix(-0.26040379,0,0,0.2605048,176.99609,45.057061)" style="opacity:1;stroke:none;stroke-width:1.01586">
      <path sodipodi:nodetypes="cccccc" id="path6670" d="M -4.012576,-23.845938 H 504.01255 V 343.33022 c 0,130.47372 -131.84219,236.1228 -254.01256,236.1228 -122.17037,0 -254.012566,-105.64908 -254.012566,-236.1228 z" style="fill:#006ec7;fill-opacity:1;fill-rule:evenodd;stroke:none;stroke-width:0.507927;stroke-linecap:butt;stroke-linejoin:miter;stroke-miterlimit:4;stroke-dasharray:none;stroke-opacity:1"/>
      <path id="path3221" style="fill:#cccccc;fill-opacity:1;fill-rule:evenodd;stroke:none;stroke-width:0.508886;stroke-linecap:butt;stroke-linejoin:miter;stroke-miterlimit:4;stroke-dasharray:none;stroke-opacity:1" d="m 227.23828,545.29297 c -24.01288,0 -31.90836,21.04545 -43.43164,33.85351 34.03192,99.32148 142.15583,172.03907 243.625,172.03907 101.25603,0 209.13945,-72.41297 243.41016,-171.41407 -11.17444,-12.93809 -19.17425,-34.47851 -42.88672,-34.47851 -35.61922,0 -33.39215,44.76953 -66.78516,44.76953 -33.39302,0 -33.3941,-44.76953 -66.78711,-44.76953 -33.39303,0 -33.39216,44.76953 -66.78515,44.76953 -33.39302,0 -33.3941,-44.76953 -66.78711,-44.76953 -33.39302,0 -33.39213,44.76953 -66.78516,44.76953 -33.39301,0 -33.3941,-44.76953 -66.78711,-44.76953 z" transform="matrix(-0.998,0,0,0.9982301,676.5775,-170.40214)"/>
      <path sodipodi:nodetypes="ccccccccccccccccccccccccccccccccccccccccccccccccccccccccc" d="m 229.99999,219.51062 h -24 l -52,52 h -24 v -24 l 30,-30 h -50 l -20.000003,-18 20.000003,-18 h 50 l -30,-30 v -24 h 24 l 52,52 h 24 v -24 l -52,-52 V 79.510617 h 24 l 30,30.000003 v -50 l 18,-20 18,20 v 50 l 30,-30.000003 h 24 v 24.000003 l -52,52 v 24 h 24 l 52,-52 h 24 v 24 l -30,30 h 50 l 20,18 -20,18 h -50 l 30,30 v 24 h -24 l -52,-52 h -24 v 24 l 52,52 v 24 h -24 l -30,-30 v 50 l -18,20 -18,-20 v -50 l -30,30 h -24 v -24 l 52,-52 z" style="fill:#cccccc;fill-opacity:1;fill-rule:evenodd;stroke:none;stroke-width:0.507927;stroke-linecap:butt;stroke-linejoin:miter;stroke-miterlimit:4;stroke-dasharray:none;stroke-opacity:1" id="path3226"/>
    </g>
  </g>
</svg>