<?xml version="1.0" encoding="UTF-8" standalone="no"?>
<svg
   xmlns:dc="http://purl.org/dc/elements/1.1/"
   xmlns:cc="http://creativecommons.org/ns#"
   xmlns:rdf="http://www.w3.org/1999/02/22-rdf-syntax-ns#"
   xmlns:svg="http://www.w3.org/2000/svg"
   xmlns="http://www.w3.org/2000/svg"
   xmlns:sodipodi="http://sodipodi.sourceforge.net/DTD/sodipodi-0.dtd"
   xmlns:inkscape="http://www.inkscape.org/namespaces/inkscape"
   inkscape:version="1.0 (4035a4fb49, 2020-05-01)"
   sodipodi:docname="rova.svg"
   id="svg8"
   version="1.1"
   viewBox="0 0 132.29166 150.28334"
   height="568"
   width="500">
  <defs
     id="defs2">
    <inkscape:perspective
       sodipodi:type="inkscape:persp3d"
       inkscape:vp_x="0 : 137.28334 : 1"
       inkscape:vp_y="0 : 1000 : 0"
       inkscape:vp_z="499.99999 : 137.28334 : 1"
       inkscape:persp3d-origin="249.99999 : 42.616668 : 1"
       id="perspective13" />
  </defs>
  <sodipodi:namedview
     inkscape:snap-global="true"
     inkscape:object-nodes="true"
     inkscape:showpageshadow="false"
     inkscape:window-maximized="1"
     inkscape:window-y="-8"
     inkscape:window-x="-8"
     inkscape:window-height="1017"
     inkscape:window-width="1920"
     units="px"
     showgrid="false"
     inkscape:document-rotation="0"
     inkscape:current-layer="layer1"
     inkscape:document-units="px"
     inkscape:cy="263.24909"
     inkscape:cx="236.33151"
     inkscape:zoom="0.69918668"
     inkscape:pageshadow="2"
     inkscape:pageopacity="0.0"
     borderopacity="1.0"
     bordercolor="#666666"
     pagecolor="#ffffff"
     id="base"
     inkscape:snap-others="false"
     inkscape:lockguides="true" />
  <metadata
     id="metadata5">
    <rdf:RDF>
      <cc:Work
         rdf:about="">
        <dc:format>image/svg+xml</dc:format>
        <dc:type
           rdf:resource="http://purl.org/dc/dcmitype/StillImage" />
        <dc:title></dc:title>
      </cc:Work>
    </rdf:RDF>
  </metadata>
  <g
     transform="translate(-22.342288,-14.314829)"
     id="layer1"
     inkscape:groupmode="layer"
     inkscape:label="Шар 1">
    <g
       style="stroke-width:1.11544"
       transform="matrix(0.89555775,0,0,0.8974501,2.3334789,1.4679843)"
       id="g1072">
      <path
         sodipodi:nodetypes="cszscc"
         id="path846"
         d="m 170.06215,14.314829 c 0,0 -1.97228,71.127979 -3.01801,99.552051 -1.17107,31.83131 -22.76728,67.90387 -70.841916,67.90387 -48.074643,0 -69.670853,-36.07256 -70.841923,-67.90387 C 24.314584,85.442808 22.342288,14.314829 22.342288,14.314829 Z"
         style="font-variation-settings:normal;opacity:1;vector-effect:none;fill:#008021;fill-opacity:1;fill-rule:evenodd;stroke:none;stroke-width:0.295127;stroke-linecap:butt;stroke-linejoin:miter;stroke-miterlimit:4;stroke-dasharray:none;stroke-dashoffset:0;stroke-opacity:1;marker:none;marker-start:none;marker-mid:none;marker-end:none;stop-color:#000000;stop-opacity:1" />
      <g
         style="stroke-width:1.11544"
         id="g969">
        <path
           transform="scale(0.26458333)"
           d="m 86.207031,56.103516 c 0,0 0.637364,22.762851 1.544922,54.748044 L 368.36523,388.61719 v 296.33398 c 28.38161,-0.37982 54.26554,-4.13165 77.73633,-10.66601 V 451.95898 l 62.29688,-88.55078 2,-8.83984 0.48633,-13.78516 19.74023,13.9336 -12.83594,53.21875 -2,8 119.69336,-168.53907 c 1.44414,-48.54049 2.71072,-92.5921 3.7168,-127.9707 l -270.5586,270.56055 -5.04101,-83.30664 v -6 l -121.75586,-171.29492 2,8 9.08398,64.0664 -12.1914,2.90235 -4.28125,-13.60157 -2,-8 -89.22461,-126.648434 z m 399.146489,73.281254 -2,8 -5.92774,21.07226 10.26172,44.74609 3.05469,-12.45117 2,-8 z m -277.51563,207.33593 -13.93359,3.48242 15.50586,67.73243 2,8 7.38867,-52.52735 -2,-8.83984 z"
           style="font-variation-settings:normal;opacity:1;vector-effect:none;fill:#999999;fill-opacity:1;fill-rule:evenodd;stroke:none;stroke-width:1.11544;stroke-linecap:butt;stroke-linejoin:miter;stroke-miterlimit:4;stroke-dasharray:none;stroke-dashoffset:0;stroke-opacity:1;marker:none;marker-start:none;marker-mid:none;marker-end:none;stop-color:#000000;stop-opacity:1"
           id="path906" />
        <path
           transform="scale(0.26458333)"
           d="m 581.9668,56.103516 -89.22461,126.648434 -2,8 -3.05469,12.45117 -10.26172,-44.74609 5.92774,-21.07226 2,-8 -121.75391,171.29492 v 6 l 5.04101,83.30664 270.5586,-270.56055 c 1.02809,-36.152681 1.79101,-63.322264 1.79101,-63.322264 z M 87.751953,110.85156 c 1.022205,36.02569 2.418159,84.55963 3.964844,136.54688 l 119.693363,168.53711 -2,-8 -15.50586,-67.73243 13.93359,-3.48242 8.96094,17.84766 2,8.83984 62.29687,88.55078 v 222.32618 c 24.78292,6.89966 52.24009,10.72265 82.50391,10.72265 1.60231,0 3.17897,-0.0354 4.76562,-0.0566 V 388.61719 Z m 154.091797,18.53321 -7.38867,53.36718 2,8 4.28125,13.60157 12.1914,-2.90235 -9.08398,-64.0664 z m 269.04102,211.39843 -0.48633,13.78516 -2,8.83984 7.39062,52.52735 2,-8 12.83594,-53.21875 z"
           style="font-variation-settings:normal;opacity:1;vector-effect:none;fill:#ffffff;fill-opacity:1;fill-rule:evenodd;stroke:none;stroke-width:1.11544;stroke-linecap:butt;stroke-linejoin:miter;stroke-miterlimit:4;stroke-dasharray:none;stroke-dashoffset:0;stroke-opacity:1;marker:none;marker-start:none;marker-mid:none;marker-end:none;stop-color:#000000;stop-opacity:1"
           id="path931" />
        <path
           transform="scale(0.26458333)"
           d="m 86.207031,56.103516 c 0,0 2.484323,89.357844 5.328125,185.197264 l 117.875004,166.63477 7.38867,-53.36719 68.29687,96.55078 v 224.25391 c 23.72838,6.21465 49.86082,9.63476 78.50391,9.63476 28.64309,0 54.77357,-3.42011 78.50195,-9.63476 V 451.11914 l 68.29688,-96.55078 7.39062,53.36719 117.87305,-166.63672 c 2.84377,-95.83869 5.32812,-185.195314 5.32812,-185.195314 h -55 L 490.74219,190.75195 483.35352,137.38477 363.59961,306.67969 243.84375,137.38477 236.45508,190.75195 141.20703,56.103516 Z"
           style="font-variation-settings:normal;opacity:1;vector-effect:none;fill:#d2d3d3;fill-opacity:1;fill-rule:evenodd;stroke:none;stroke-width:1.11544;stroke-linecap:butt;stroke-linejoin:miter;stroke-miterlimit:4;stroke-dasharray:none;stroke-dashoffset:0;stroke-opacity:1;marker:none;marker-start:none;marker-mid:none;marker-end:none;stop-color:#000000;stop-opacity:1"
           id="path848" />
      </g>
      <g
         style="stroke-width:1.11544"
         id="g1061"
         transform="translate(8.1539854e-5)">
        <path
           d="m 95.864433,19.975525 c -0.117615,0.499421 0.104351,0.996244 0.206282,1.477788 0.213633,0.764356 0.29082,1.583151 0.07532,2.356527 -0.166851,0.750811 -0.653849,1.379492 -1.225386,1.874026 -0.646306,0.561174 -1.230146,1.207037 -1.6241,1.972738 -0.433639,0.774483 -0.703379,1.659041 -0.634333,2.553285 0.07042,1.287296 0.635246,2.541984 0.403503,3.843322 -0.159083,0.95269 -0.748938,1.750838 -1.078415,2.644399 -0.463788,1.122111 -0.532649,2.377728 -0.300395,3.562464 0.03324,0.570851 0.06649,1.141706 0.09974,1.712558 -0.443963,-0.571138 -0.922361,-1.116923 -1.32584,-1.717464 -0.42681,-0.594428 -1.111313,-0.920763 -1.577784,-1.478047 -0.737098,-0.790429 -1.093918,-1.88464 -1.050902,-2.956957 0.02342,-1.23345 0.429692,-2.411978 0.817505,-3.569041 0.477218,-1.541619 0.67452,-3.247866 0.119554,-4.79692 -0.510217,-1.458028 -1.642237,-2.596584 -2.882566,-3.468739 -0.955813,-0.70409 -1.929196,-1.464376 -2.525909,-2.512938 -0.08364,-0.22195 -0.05754,0.09058 -0.05693,0.174341 0.05666,0.675713 0.443875,1.25888 0.735711,1.853123 0.457147,0.819189 0.775872,1.721177 0.856041,2.659636 0.08604,0.957654 0.111413,1.948231 -0.204248,2.870391 -0.467577,1.416828 -1.329836,2.653374 -1.954469,3.999436 -0.78658,1.629889 -1.270892,3.422187 -1.294286,5.237044 -0.0058,1.467601 0.522581,2.882659 1.265245,4.130103 0.911738,1.577049 2.144966,2.982502 2.773765,4.71248 0.267586,0.702948 0.347577,1.456802 0.364474,2.203704 0.02484,0.472327 0.04764,0.94061 0.08179,1.404123 0.01418,0.195165 0.03517,0.457816 0.05503,0.646742 0.204642,2.127208 0.674254,4.300157 1.867892,6.107502 0.948532,1.465236 2.419268,2.559997 4.067855,3.116468 1.842582,0.635593 3.828823,0.739349 5.759104,0.583684 1.927235,-0.168648 3.881419,-0.754993 5.381269,-2.019038 1.46175,-1.208545 2.36468,-2.964563 2.84349,-4.774647 0.27524,-1.020098 0.43022,-2.068578 0.52983,-3.119249 0.0102,-0.119301 0.032,-0.367477 0.0411,-0.495618 0.0327,-0.436726 0.0529,-0.853826 0.0778,-1.302205 0.0245,-0.722087 0.0648,-1.471999 0.30845,-2.166744 0.55319,-1.676897 1.70968,-3.047503 2.61895,-4.534522 0.79822,-1.27273 1.42581,-2.706282 1.47612,-4.228145 0.0367,-1.173421 -0.17237,-2.344851 -0.49488,-3.46961 -0.45477,-1.576533 -1.28843,-2.999799 -2.0555,-4.437738 -0.54252,-1.026892 -0.99211,-2.153361 -0.94932,-3.335014 -0.0102,-1.150824 0.15618,-2.327078 0.69065,-3.359657 0.31807,-0.671261 0.74704,-1.303385 0.92269,-2.032779 0.03,-0.154199 0.0545,-0.40477 0.0202,-0.507462 -0.56626,1.05622 -1.52824,1.821358 -2.47234,2.525062 -1.22248,0.851766 -2.35636,1.938858 -2.9094,3.351452 -0.59686,1.479539 -0.47105,3.141501 -0.0506,4.649375 0.27877,0.954931 0.65777,1.884486 0.81323,2.87229 0.20395,1.131109 0.14373,2.369404 -0.48086,3.366688 -0.37079,0.623218 -0.93698,1.110162 -1.50255,1.532107 -0.91786,0.76096 -1.37831,1.95486 -1.43283,3.124559 -0.0661,0.554284 -0.13219,1.108565 -0.19828,1.662846 -0.28631,-0.59834 -0.61075,-1.179891 -0.872345,-1.789142 -0.590619,-1.646539 -0.515543,-3.540651 0.297185,-5.099807 0.54228,-1.084273 0.67969,-2.359091 0.37299,-3.532676 -0.31145,-1.278025 -1.013943,-2.410669 -1.738279,-3.491738 -0.501695,-0.805979 -0.69741,-1.784753 -0.559139,-2.72283 0.154903,-1.161375 0.634868,-2.298668 0.461447,-3.487724 -0.08957,-0.778858 -0.436124,-1.5281 -1.011738,-2.066539 -0.627684,-0.612064 -1.312646,-1.195913 -1.729801,-1.982795 -0.07184,-0.09305 -0.14047,-0.334637 -0.200255,-0.351021 l -0.0097,0.02462 z"
           style="font-variation-settings:normal;opacity:1;vector-effect:none;fill:#e8c300;fill-opacity:1;fill-rule:evenodd;stroke:none;stroke-width:0.295127;stroke-linecap:butt;stroke-linejoin:miter;stroke-miterlimit:4;stroke-dasharray:none;stroke-dashoffset:0;stroke-opacity:1;marker:none;marker-start:none;marker-mid:none;marker-end:none;stop-color:#000000;stop-opacity:1"
           id="path980" />
        <path
           transform="scale(0.26458333)"
           d="m 363.23242,71.839844 c -0.8228,0.455105 -1.44218,0.945232 -1.90234,1.466797 1.26983,2.714604 3.87793,7.141598 8.57812,11.841797 7.25689,7.256893 0.58082,14.51317 0.8711,23.511722 0.29026,8.99855 7.20961,10.83143 8.99804,20.02929 2.03192,10.44993 -2.03177,10.15946 -3.77343,20.60938 -1.74165,10.44993 5.70898,22.64062 5.70898,22.64062 l -0.58594,-16.27148 c -1.11082,3.06902 -1.13281,5.55469 -1.13281,5.55469 0,0 -3.9393,-8.77379 0.65039,-17.95313 4.92612,-9.85229 1.64206,-18.88475 -4.51562,-27.91601 -6.15768,-9.03128 1.01026,-14.95933 -0.82227,-24.580082 -1.83251,-9.62075 -9.0306,-8.811664 -12.07422,-18.933594 z m -47.92773,3.728515 c 0,0 -1.45869,1.24436 -2.13281,3.521485 1.80774,3.012631 5.16586,7.655928 10.41796,11.373047 7.99492,5.658323 13.94436,12.872269 12.60352,23.867189 -1.34084,10.99492 -7.50886,17.96643 -3.48633,27.88867 4.02253,9.92224 10.72724,7.24077 16.62695,21.18555 l 0.53711,-4.02344 -5.69336,-14.80274 c -0.23573,2.30452 -0.17693,4.90539 0.38477,7.92383 -0.98779,-1.64232 -2.33305,-3.27503 -4.20312,-4.65429 -6.79742,-5.01338 -8.23898,-11.38227 -4.0586,-23.32618 6.09717,-17.42047 0.31508,-27.741475 -10.26367,-35.30273 -9.51553,-6.801339 -10.06443,-10.338432 -10.73242,-13.650391 z m 96.58789,0 c -0.33487,1.660306 -0.6409,3.378822 -2.06055,5.535157 l 1.00586,2.011718 c -1.02882,4.337057 -5.59489,9.893823 -5.62891,21.882816 -0.034,12.15959 13.46485,20.81972 13.46485,37.91406 0,17.09434 -10.65773,23.67433 -14.80274,34.83398 -4.14504,11.15966 -0.25609,24.38016 -9.58007,39.1875 -7.7602,12.32416 -28.15923,18.79273 -55.06641,10.24219 5.80594,3.83006 13.66131,6.26953 24.375,6.26953 40.84594,0 40.46091,-35.23936 41.25586,-49.26172 0.79498,-14.02235 18.05978,-23.01488 16.41992,-42.2832 -1.63986,-19.26832 -12.9316,-27.07885 -13.13672,-37.76758 -0.20523,-10.688714 2.72823,-12.58423 5.36328,-18.785154 2.63505,-6.200923 -1.60937,-9.779297 -1.60937,-9.779297 z"
           style="font-variation-settings:normal;opacity:1;vector-effect:none;fill:#8c7600;fill-opacity:1;fill-rule:evenodd;stroke:none;stroke-width:1.11544;stroke-linecap:butt;stroke-linejoin:miter;stroke-miterlimit:4;stroke-dasharray:none;stroke-dashoffset:0;stroke-opacity:1;marker:none;marker-start:none;marker-mid:none;marker-end:none;stop-color:#000000;stop-opacity:1"
           id="path1020" />
        <path
           transform="scale(0.26458333)"
           d="m 363.23242,71.839844 c -6.38528,3.531821 -0.65069,9.138513 -1.42187,15.677734 -1.02837,8.719986 -6.99012,7.009282 -12.00586,18.203122 -4.66146,10.40318 2.57567,17.16956 -0.76953,25.23242 -2.05591,4.95531 -6.51692,10.56348 -4.47266,21.54883 0,0 6.08978,11.31005 3.76758,20.3086 0,0 4.64521,-6.6767 2.61328,-13.9336 -2.03193,-7.25689 -6.09504,-12.77246 0.29102,-22.35156 6.38606,-9.5791 0.23425,-17.28676 0.58007,-23.51172 0.34583,-6.22496 3.0326,-10.12416 8.41797,-15.384764 5.64441,-5.513639 4.9338,-12.771871 3.48242,-18.287109 -0.49778,-1.891577 -0.13366,-3.50238 0.54883,-4.8125 -0.37523,-0.811024 -0.72875,-1.683443 -1.03125,-2.689453 z m -47.92773,3.728515 c 0,0 -4.24443,3.578374 -1.60938,9.779297 2.63505,6.200924 5.56851,8.09644 5.36328,18.785154 -0.20511,10.68873 -11.49686,18.49926 -13.13671,37.76758 -1.63987,19.26832 15.62493,28.26085 16.41992,42.2832 0.78604,13.86548 0.42626,48.47141 39.9082,49.24414 -5.91433,-1.22382 -12.9998,-3.44057 -19.14453,-7.49609 -13.51379,-8.9191 -16.54567,-21.48116 -16.83594,-38.60742 -0.29027,-17.12627 -12.46785,-23.06017 -15.96484,-35.70313 -3.49698,-12.64296 1.70997,-22.52484 8.70898,-35.12304 7.2569,-13.06241 2.32167,-22.062206 -1.74219,-29.609378 -2.19217,-4.071184 -1.93057,-6.780233 -1.22851,-8.421875 -0.36623,-1.026826 -0.55164,-1.973054 -0.73828,-2.898438 z m 96.58789,0 c -0.668,3.311959 -1.2169,6.849052 -10.73242,13.650391 -10.57875,7.561255 -16.35889,17.88226 -10.26172,35.30273 4.18038,11.94391 2.73686,18.3128 -4.06055,23.32618 -5.85797,4.32045 -6.69695,11.09928 -6.81836,12.89843 l -0.0254,0.47657 c -0.26721,4.66727 1.71875,10.71679 1.71875,10.71679 -0.58057,-22.35123 10.1588,-18.86775 14.22266,-31.34961 4.06386,-12.48185 -4.06325,-18.2866 -4.35352,-27.28515 -0.29027,-8.99855 2.90358,-16.2553 13.35352,-22.931643 6.10984,-3.903518 8.3379,-8.192995 9.14453,-11.091797 -0.64593,-2.399489 -2.1875,-3.712891 -2.1875,-3.712891 z"
           style="font-variation-settings:normal;opacity:1;vector-effect:none;fill:#ffffff;fill-opacity:1;fill-rule:evenodd;stroke:none;stroke-width:1.11544;stroke-linecap:butt;stroke-linejoin:miter;stroke-miterlimit:4;stroke-dasharray:none;stroke-dashoffset:0;stroke-opacity:1;marker:none;marker-start:none;marker-mid:none;marker-end:none;stop-color:#000000;stop-opacity:1"
           id="path1002" />
      </g>
    </g>
  </g>
</svg>
