<?xml version="1.0" encoding="UTF-8" standalone="no"?>
<svg
   xmlns:dc="http://purl.org/dc/elements/1.1/"
   xmlns:cc="http://creativecommons.org/ns#"
   xmlns:rdf="http://www.w3.org/1999/02/22-rdf-syntax-ns#"
   xmlns:svg="http://www.w3.org/2000/svg"
   xmlns="http://www.w3.org/2000/svg"
   width="500"
   height="570"
   viewBox="0 0 132.29166 150.8125"
   version="1.1"
   id="svg847">
  <defs
     id="defs841" />
  <metadata
     id="metadata844">
    <rdf:RDF>
      <cc:Work
         rdf:about="">
        <dc:format>image/svg+xml</dc:format>
        <dc:type
           rdf:resource="http://purl.org/dc/dcmitype/StillImage" />
        <dc:title></dc:title>
      </cc:Work>
    </rdf:RDF>
  </metadata>
  <path
     id="path851"
     style="fill:#cccccc;fill-opacity:1;fill-rule:evenodd;stroke:none;stroke-width:0.264582;stroke-miterlimit:5;paint-order:markers stroke fill"
     d="M 132.29167,50.352832 V 0 H 0 v 50.352832 c 0,0 44.097223,2.116667 66.145835,2.116667 22.048612,0 66.145835,-2.116667 66.145835,-2.116667 z" />
  <path
     id="path844"
     style="fill:#ea0606;fill-opacity:1;fill-rule:evenodd;stroke:none;stroke-width:0.264582;stroke-miterlimit:5;paint-order:markers stroke fill"
     d="m 0,50.352832 v 34.313576 c 0,36.531342 29.614746,66.146092 66.146087,66.146092 36.531353,0 66.145583,-29.61475 66.145583,-66.146092 V 50.352832 Z" />
  <path
     style="font-variation-settings:normal;vector-effect:none;fill:#ffffff;fill-opacity:1;stroke:none;stroke-width:0.132292;stroke-linecap:butt;stroke-linejoin:miter;stroke-miterlimit:5;stroke-dasharray:none;stroke-dashoffset:0;stroke-opacity:1;stop-color:#000000"
     d="m 124.10972,35.57445 c 0.0767,0.36027 0.26073,0.531324 0.70855,0.570775 0.8869,0.07814 5.27754,0.08228 5.27754,0.08228 l -0.52572,0.558841 -9.42881,3.466338 c -0.40173,-0.532199 -0.54871,-1.348552 -0.54871,-2.485167 0,-2.273228 0.47892,-6.013532 0.47892,-6.013532 z"
     id="path1647" />
  <path
     style="font-variation-settings:normal;vector-effect:none;fill:#ffffff;fill-opacity:1;stroke:none;stroke-width:0.132292;stroke-linecap:butt;stroke-linejoin:miter;stroke-miterlimit:5;stroke-dasharray:none;stroke-dashoffset:0;stroke-opacity:1;stop-color:#000000"
     d="m 106.08267,18.081334 c -0.71325,-1.49765 -0.10712,-2.603826 -0.10712,-2.603826 l 21.8278,-0.650061 -0.54861,0.548618 -20.94828,2.257056 z"
     id="path1641" />
  <path
     style="font-variation-settings:normal;vector-effect:none;fill:#630303;fill-opacity:1;stroke:none;stroke-width:0.132292;stroke-linecap:butt;stroke-linejoin:miter;stroke-miterlimit:5;stroke-dasharray:none;stroke-dashoffset:0;stroke-opacity:1;stop-color:#000000"
     d="m 121.36571,17.892266 -15.28308,0.189068 c 0,0 -0.1053,-0.365924 0.22383,-0.448213 0.32912,-0.08229 20.94828,-2.257056 20.94828,-2.257056 0,0 -0.0431,-0.521216 0.54861,-0.548618 0.17633,0.987463 0,3.057553 0,3.057553 l -2.53314,0.04987 c -1.17698,10.335055 -1.27428,13.832978 -1.22518,15.933505 0.0186,0.796318 -0.012,1.345804 0.0647,1.706074 0,0 -0.61675,0.185659 -0.40514,1.278921 l 5.86551,-0.06703 c 0,0 0.0752,-0.514646 0.52572,-0.558841 0,0 0.23644,2.870995 0.009,4.805425 h -7.88623 c -1.01904,0 -1.67553,-0.248045 -2.07726,-0.780245 0,0 -0.21023,-1.283318 0.17771,-1.741783 l 2.06084,-20.577493 z"
     id="path1653" />
  <g
     id="g861"
     transform="matrix(0.99523764,0,0,0.99523764,-37.697386,-44.847045)"
     style="stroke-width:1.00479">
    <path
       style="font-variation-settings:normal;opacity:1;vector-effect:none;fill:#cccccc;fill-opacity:1;stroke:none;stroke-width:0.132925;stroke-linecap:butt;stroke-linejoin:miter;stroke-miterlimit:5;stroke-dasharray:none;stroke-dashoffset:0;stroke-opacity:1;stop-color:#000000;stop-opacity:1"
       d="m 103.48996,176.67922 c -0.40303,0.076 -0.80773,0.14201 -1.21235,0.19701 0.87092,1.61378 1.5646,3.25712 0.85502,5.13432 -3.808591,-1.05237 -6.130495,-5.14494 -6.130495,-5.14494 -5.247851,-0.90645 -9.57159,-3.10701 -12.428033,-6.66503 0,0 -1.703844,0.0501 -3.006783,-1.20272 -1.302939,-1.25282 -1.503391,-1.40316 -2.956669,-2.00452 -1.453278,-0.60135 -3.006782,-1.80155 -2.555765,-3.95641 0.216466,-0.0722 0.46774,0.12205 1.002261,0.54873 0.534521,0.42668 2.484894,0.41557 2.885798,-0.0354 0.400905,-0.45102 -0.223727,-1.11716 -1.677005,-0.91671 -1.453278,0.20045 -2.428215,-0.0501 -2.695482,-1.05238 v -4e-5 c 0,0 0.300678,-1.1526 1.80407,-2.20497 1.503391,-1.05237 1.603618,-0.45102 3.006783,-1.60362 1.403165,-1.1526 1.753955,-1.50339 3.958929,-2.3052 2.204974,-0.80181 2.956671,-1.5535 4.860964,-2.95667 1.904296,-1.40316 7.817633,-3.00678 11.024867,-3.10701 2.38559,-3.96063 4.59267,-6.91451 8.30207,-9.77203 2.71753,4.0849 5.99666,8.20548 10.57384,11.62622 0,0 -2.75622,3.05689 -3.30746,4.40994 0,0 3.00679,2.95668 5.06142,3.40769 2.05463,0.45102 3.60814,-0.75169 6.1639,-3.4578 2.55577,-2.7061 6.36436,-5.36209 10.07272,-5.763 -2.80561,5.61438 -4.98678,8.64613 -6.51469,13.48041 1.86889,4.36918 4.37651,8.56934 6.76526,12.6786 -0.96723,0.5527 -4.69987,0.12793 -8.06819,-2.75622 -3.36832,-2.88415 -5.45239,-4.53341 -7.15646,-4.70762 -1.70408,-0.17421 -2.56626,0.12494 -3.46805,0.54896 0,0 1.97165,1.90358 3.07414,2.95595 -2.30964,1.58816 -4.40627,3.1445 -6.33672,4.97265 -1.93045,1.82814 -3.69472,3.92809 -5.13917,6.20256 -0.20118,-0.11619 -0.39992,-0.2359 -0.59617,-0.35906 -2.48505,-1.55953 -4.57072,-3.67174 -6.16255,-6.19169 z"
       id="path857" />
    <circle
       style="opacity:1;fill:#333333;fill-opacity:1;fill-rule:evenodd;stroke:none;stroke-width:0.132925;stroke-miterlimit:5;stroke-dasharray:none;paint-order:markers stroke fill"
       id="path867"
       cx="83.73053"
       cy="158.1985"
       r="1.6787866" />
    <path
       id="path926"
       style="font-variation-settings:normal;opacity:1;vector-effect:none;fill:#ffffff;fill-opacity:1;stroke:none;stroke-width:0.502394;stroke-linecap:butt;stroke-linejoin:miter;stroke-miterlimit:5;stroke-dasharray:none;stroke-dashoffset:0;stroke-opacity:1;stop-color:#000000;stop-opacity:1"
       d="m 408.28711,529.24414 c -12.88306,10.33958 -20.8812,21.15488 -29.48047,35.43164 -12.12183,0.37882 -34.47063,6.43891 -41.66797,11.74219 -7.19733,5.30332 -10.03929,8.14532 -18.37305,11.17578 -8.33374,3.03046 -9.65958,4.35465 -14.96289,8.71094 -5.3033,4.35628 -5.68117,2.08504 -11.36328,6.0625 -5.68211,3.97746 -6.81836,8.33398 -6.81836,8.33398 l 2.14649,1.19922 c 0,0 0.567,-2.93528 2.83984,-5.68164 2.27284,-2.74632 5.55763,-4.05417 9.75977,-5.22461 3.96942,-1.10562 6.48315,-6.40115 10.83789,-8.94141 4.82143,-2.81246 12.72294,-4.95394 17.14258,-7.90039 4.41964,-2.9464 8.67166,-7.18595 17.00976,-10.44726 8.27576,-3.23694 21.00561,-6.341 36.02735,-7.09766 0,0 10.1522,-18.18601 26.07421,-34.52344 0,0 1.64935,-1.07144 0.82813,-2.83984 z m 107.20703,37.52148 c -13.15908,2.39459 -26.36851,11.81267 -35.41992,21.39649 -9.65957,10.22782 -15.52939,14.773 -23.29492,13.06836 0,0 2.33497,2.20892 6.12304,2.01953 3.78807,-0.18935 11.86325,-5.29819 18.5625,-12.87891 5.21099,-5.89663 14.69002,-14.77218 25.13282,-19.07812 3.98071,-1.64137 6.52384,-1.60142 8.89648,-4.52735 z m -213.28516,47.02344 c -0.90898,0.0173 -2.06481,0.38457 -3.17187,0.83789 3.12394,0.39864 4.28178,2.19667 3.10937,3.51563 -1.51522,1.70445 -8.88601,1.74741 -10.90625,0.13476 -2.02023,-1.61265 -2.97092,-2.34709 -3.78906,-2.07422 -0.19379,0.92589 -0.27746,1.79822 -0.28711,2.63282 0,0 2.07617,1.16491 4.88867,2.23633 2.81251,1.07142 9.77735,1.33858 11.65235,-0.40235 1.875,-1.74104 1.4738,-4.64172 -0.13281,-6.42773 -0.30124,-0.33488 -0.78183,-0.46416 -1.36329,-0.45313 z m 186.38868,41.04297 c 12.73065,10.90073 26.83846,12.50496 30.49414,10.41602 -4.3774,-1.00717 -9.85933,-0.83508 -17.92974,-5.42969 -8.07041,-4.59461 -13.33555,-8.44143 -18.36459,-12.45639 -5.02904,-4.01495 -12.00506,-9.31372 -15.22325,-10.20767 -1.27847,-0.35513 -2.44524,-0.46068 -3.4043,-0.45313 -1.59843,0.0126 -2.61914,0.33789 -2.61914,0.33789 4.5404,0.46417 9.83469,3.752 17.00293,9.44141 3.00028,2.38125 6.29013,5.13733 10.04395,8.35156 z m -169.08789,-13.17969 0.14062,1.625 c 5.21986,6.50193 11.7455,11.7936 19.32617,15.92383 h 0.002 l 6.33398,1.42383 c 0,0 -7.98556,-4.02636 -12.53125,-7.625 -4.54568,-3.59868 -9.68694,-10.00577 -13.27148,-11.34766 z m 42.25195,17.0293 c 0,0 1.95794,5.7468 4.86133,9.78711 0,0 8.77524,15.46785 23.16992,19.44531 0,0 -8.5e-4,-2.52597 -3.2207,-4.79883 -3.21986,-2.27285 -13.44745,-9.84924 -21.5918,-23.29687 0,0 -1.13531,-0.94733 -3.21875,-1.13672 z m 32.19726,8.33398 -2.8164,0.74805 c 6.01636,9.52422 13.90065,17.50806 23.29297,23.40235 0,0 0.7377,-1.23105 -1.53516,-3.50391 -2.27286,-2.27282 -11.93348,-7.95646 -18.94141,-20.64649 z"
       transform="scale(0.26458333)" />
    <path
       id="circle869"
       style="opacity:1;fill:#ffffff;fill-rule:evenodd;stroke:none;stroke-width:0.502394;stroke-miterlimit:5;stroke-dasharray:none;paint-order:markers stroke fill"
       d="m 315.98828,593.97852 a 3.8425385,3.8425385 0 0 0 -3.8418,3.84179 3.8425385,3.8425385 0 0 0 3.8418,3.84375 3.8425385,3.8425385 0 0 0 3.8418,-3.84375 3.8425385,3.8425385 0 0 0 -3.8418,-3.84179 z m -0.0352,1.04296 a 2.7989975,2.7989975 0 0 1 0.0352,0 2.7989975,2.7989975 0 0 1 2.79883,2.79883 2.7989975,2.7989975 0 0 1 -2.79883,2.79883 2.7989975,2.7989975 0 0 1 -1.21289,-0.27734 2.3637296,2.3637296 0 0 0 0.44336,0.043 2.3637296,2.3637296 0 0 0 2.36328,-2.36329 2.3637296,2.3637296 0 0 0 -2.36328,-2.36328 2.3637296,2.3637296 0 0 0 -1.51563,0.54883 2.7989975,2.7989975 0 0 1 2.25,-1.18555 z"
       transform="scale(0.26458333)" />
    <path
       id="path885"
       style="color:#000000;font-style:normal;font-variant:normal;font-weight:normal;font-stretch:normal;font-size:medium;line-height:normal;font-family:sans-serif;font-variant-ligatures:normal;font-variant-position:normal;font-variant-caps:normal;font-variant-numeric:normal;font-variant-alternates:normal;font-variant-east-asian:normal;font-feature-settings:normal;font-variation-settings:normal;text-indent:0;text-align:start;text-decoration:none;text-decoration-line:none;text-decoration-style:solid;text-decoration-color:#000000;letter-spacing:normal;word-spacing:normal;text-transform:none;writing-mode:lr-tb;direction:ltr;text-orientation:mixed;dominant-baseline:auto;baseline-shift:baseline;text-anchor:start;white-space:normal;shape-padding:0;shape-margin:0;inline-size:0;clip-rule:nonzero;display:inline;overflow:visible;visibility:visible;opacity:1;isolation:auto;mix-blend-mode:normal;color-interpolation:sRGB;color-interpolation-filters:linearRGB;solid-color:#000000;solid-opacity:1;vector-effect:none;fill:#333333;fill-opacity:1;fill-rule:nonzero;stroke:none;stroke-width:0.132925;stroke-linecap:butt;stroke-linejoin:miter;stroke-miterlimit:5;stroke-dasharray:none;stroke-dashoffset:0;stroke-opacity:1;color-rendering:auto;image-rendering:auto;shape-rendering:auto;text-rendering:auto;enable-background:accumulate;stop-color:#000000"
       d="m 87.998047,154.55273 c 1.695596,-1.0211 4.919621,-2.50594 8.788784,-2.80357 3.836909,-0.29514 9.775549,0.96138 13.519809,2.98131 3.77595,2.03702 6.80454,4.87216 10.90039,5.3808 -3.82201,-0.99472 -6.8072,-3.7734 -10.64844,-5.84565 -3.87291,-2.08933 -9.79662,-3.2437 -13.77734,-2.9375 -3.948476,0.30374 -6.932276,1.65491 -8.762835,2.8499 -0.838679,0.54749 -1.837368,1.21483 -2.699777,1.23075 0.612672,0.33661 1.767369,-0.3068 2.679409,-0.85604 z m 0.250558,12.12752 c 0.37511,-0.86322 0.851283,-2.00708 0.851283,-2.98996 0,-0.96083 -0.487549,-2.668 -0.79241,-3.58259 -0.304862,-0.91458 -0.709822,-1.28348 -0.709822,-1.28348 0,0 0.05312,0.77262 0.34961,1.66211 0.296494,0.88948 0.58789,2.00637 0.58789,2.84961 0,0.82119 -0.453034,2.20651 -0.841797,3.06445 -0.388763,0.85794 -0.630338,1.67069 -1.202009,2.39454 0.841305,-0.12283 1.382144,-1.25146 1.757255,-2.11468 z m -1.773996,-1.31111 c 0.599475,-0.8813 0.830363,-1.63293 0.518694,-2.59124 -0.299353,-0.92045 -0.57296,-2.13312 -0.999163,-2.49958 -0.07541,0.53557 0.275785,1.67793 0.402903,2.5738 0.127117,0.89588 -0.05535,1.49619 -0.383371,2.25726 -0.774689,1.79744 -1.333073,2.5284 -1.419922,3.57059 0,0 0.863554,-1.81527 1.880859,-3.31083 z m 36.988281,-1.14062 c -0.24278,1.01136 -1.02005,1.96832 -1.91908,2.7666 1.17712,-0.45261 2.22564,-1.56784 2.50792,-2.74379 0.28228,-1.17595 -0.3384,-2.65456 -1.69333,-3.67028 -0.0302,0.21468 0.004,0.37124 0.38557,0.7525 0.38117,0.38127 0.93524,1.99382 0.71892,2.89497 z m -41.482421,-1.09766 c 0.213446,-0.54886 -0.09809,-0.97248 -0.338728,-1.27874 -0.240636,-0.30626 -0.558733,-0.32087 -0.558733,-0.32087 0,0 0.07623,0.35625 0.249023,0.57617 0.172798,0.21993 0.293595,0.47886 0.15625,0.83203 -0.372386,0.95758 -0.104492,1.89844 -0.104492,1.89844 0,0 0.267484,-0.86052 0.59668,-1.70703 z m 15.955695,0.16594 c 3.825066,-0.32857 7.319796,-0.51639 12.079896,-0.43894 4.7601,0.0774 9.49634,1.02176 11.93151,0.45169 -3.22762,0.0171 -7.40764,-0.85313 -12.16632,-0.95996 -4.75868,-0.10683 -8.11012,0.16977 -11.913446,0.42182 -3.803323,0.25205 -7.649752,0.99838 -7.649752,0.99838 0,0 3.89305,-0.14442 7.718112,-0.47299 z m -5.926398,1.14361 c 1.19426,0.87071 2.550261,2.04489 3.27383,3.21179 0.723569,1.1669 1.098188,2.22021 1.180132,2.53026 -2.080013,-0.44231 -3.123317,-1.77457 -3.992187,-3.04465 -0.940338,-1.37454 -1.389789,-2.10714 -1.475307,-2.82101 -0.323947,0.16198 -0.02647,1.61263 0.874581,3.15555 0.900615,1.54218 2.423786,3.20315 5.381975,3.06698 -0.212777,-1.33201 -1.697859,-5.46162 -5.243024,-6.09892 z m 16.518494,-24.80862 c -0.17162,0.1322 -0.33695,0.26468 -0.5023,0.39739 0.79392,1.30705 2.37945,3.71551 4.57802,6.1004 2.95667,3.20724 5.61257,5.21157 5.61257,5.21157 -1.2027,1.1526 -3.00653,3.9088 -3.00653,3.9088 -5.31198,-4.10927 -11.32557,-5.16147 -13.93145,-5.26169 -2.605879,-0.10023 -3.773118,0.3889 -3.773118,0.3889 3.157118,-0.45102 7.846068,-0.008 12.793238,2.41765 4.94718,2.42602 5.67071,3.67448 7.4166,4.96093 1.7459,1.28644 3.1409,1.31982 3.1409,1.31982 -2.05463,-0.45101 -5.06171,-3.40755 -5.06171,-3.40755 0.55124,-1.35305 3.30729,-4.41006 3.30729,-4.41006 -4.57718,-3.42074 -7.85598,-7.54126 -10.57351,-11.62616 z m 28.56415,10.22314 c -0.23349,0.0252 -0.46731,0.0592 -0.70125,0.10181 -0.51786,1.03082 -1.6168,3.16312 -3.02359,5.54384 -1.9544,3.30746 -3.60805,7.86774 -3.60805,7.86774 1.60362,3.8086 5.71251,10.82436 6.46421,11.62616 0.75168,0.80181 1.11931,1.01906 1.11931,1.01906 -2.38875,-4.10926 -4.89608,-8.30911 -6.76496,-12.67829 1.52791,-4.83428 3.70872,-7.86594 6.51433,-13.48032 z m -61.422612,11.467 c -0.06968,0.15815 -0.09922,0.25942 -0.09922,0.25942 0.267269,1.00228 1.242166,1.25258 2.695443,1.05213 1.128022,-0.15558 1.754148,0.211 1.791623,0.59377 0.69796,-0.31591 0.568706,-0.99103 -0.162782,-1.18185 -0.815012,-0.21264 -1.949307,0.14197 -2.870626,0.0357 -0.662763,-0.0765 -1.137568,-0.51638 -1.354439,-0.75913 z m 0.309025,2.41174 c -0.0199,1.72158 1.343819,2.72677 2.631882,3.25975 1.453277,0.60136 1.653469,0.75171 2.956409,2.00453 1.302938,1.25282 3.007051,1.20251 3.007051,1.20251 0.0019,-0.34938 -0.03721,-0.42995 -0.03721,-0.42995 -0.99219,0.17717 -1.94931,-0.24797 -2.870626,-1.31103 -0.921319,-1.06306 -2.444813,-1.80765 -3.188954,-2.05569 -0.744141,-0.24805 -1.098717,-0.77942 -1.523937,-1.62987 -0.229391,-0.45877 -0.641014,-0.80996 -0.974619,-1.04025 z m 44.874777,4.40955 c -0.91552,0.0331 -2.05571,0.41867 -2.77244,0.7612 -1.14676,0.54803 -3.34531,2.28861 -5.79448,3.95221 -2.09433,1.42258 -6.46752,3.18002 -10.32753,3.52847 -1.16937,-1.59458 -2.764023,-2.51628 -3.649906,-2.87063 -0.885881,-0.35436 -1.52394,-0.70848 -1.52394,-0.70848 0,0 0.03558,0.63806 0.850596,1.02784 0.815009,0.38979 2.65831,1.65047 3.64991,3.29541 1.00397,1.66546 1.2311,2.55112 1.38182,3.437 0.15601,0.91697 0.46509,1.44435 0.46509,1.44435 0.70958,-1.8772 0.0157,-3.52079 -0.85524,-5.13457 0.40462,-0.055 0.8093,-0.12088 1.21233,-0.19688 3.54109,-0.66737 6.95316,-2.09917 9.04751,-3.52175 2.09757,-1.42478 3.79219,-2.76771 5.34386,-3.65353 0,0 1.79538,1.60131 2.64583,2.48719 0,0 -2.29366,1.91786 -5.25033,4.47363 -2.95667,2.55576 -4.4964,4.62731 -5.62394,6.40633 0.19625,0.12316 0.39465,0.24296 0.59583,0.35915 1.44445,-2.27447 3.20877,-4.37459 5.13922,-6.20272 1.93045,-1.82816 4.02692,-3.38467 6.33656,-4.97283 -1.10249,-1.05237 -3.07371,-2.95589 -3.07371,-2.95589 0.90179,-0.42402 1.76392,-0.72301 3.468,-0.5488 -0.2471,-0.31929 -0.71572,-0.42654 -1.26504,-0.4067 z m -31.166053,6.27042 c 2.142617,1.16738 4.604282,1.98387 7.3148,2.45205 l -0.322979,-0.58705 c 0,0 -2.622357,-0.24805 -5.315437,-1.48828 0,0 -0.802317,-0.25713 -1.676384,-0.37672 z" />
    <path
       style="color:#000000;font-style:normal;font-variant:normal;font-weight:normal;font-stretch:normal;font-size:medium;line-height:normal;font-family:sans-serif;font-variant-ligatures:normal;font-variant-position:normal;font-variant-caps:normal;font-variant-numeric:normal;font-variant-alternates:normal;font-variant-east-asian:normal;font-feature-settings:normal;font-variation-settings:normal;text-indent:0;text-align:start;text-decoration:none;text-decoration-line:none;text-decoration-style:solid;text-decoration-color:#000000;letter-spacing:normal;word-spacing:normal;text-transform:none;writing-mode:lr-tb;direction:ltr;text-orientation:mixed;dominant-baseline:auto;baseline-shift:baseline;text-anchor:start;white-space:normal;shape-padding:0;shape-margin:0;inline-size:0;clip-rule:nonzero;display:inline;overflow:visible;visibility:visible;opacity:1;isolation:auto;mix-blend-mode:normal;color-interpolation:sRGB;color-interpolation-filters:linearRGB;solid-color:#000000;solid-opacity:1;vector-effect:none;fill:#333333;fill-opacity:1;fill-rule:nonzero;stroke:none;stroke-width:0.0664623;stroke-linecap:butt;stroke-linejoin:miter;stroke-miterlimit:5;stroke-dasharray:none;stroke-dashoffset:0;stroke-opacity:1;color-rendering:auto;image-rendering:auto;shape-rendering:auto;text-rendering:auto;enable-background:accumulate;stop-color:#000000;stop-opacity:1"
       d="m 108.1861,141.45815 -0.37946,-0.67774 c -2.93945,2.11435 -4.15625,5.93345 -4.15625,5.93345 0,0 1.76229,-3.26078 4.53571,-5.25571 z m 0.85554,1.2423 -0.50972,-0.6913 c -2.54322,2.33976 -3.97919,5.50745 -3.97919,5.50745 0,0 2.02083,-2.54552 4.48891,-4.81615 z m 1.29949,1.70508 -0.55397,-0.74532 c -1.98701,1.78322 -3.33111,4.50678 -3.33111,4.50678 0,0 1.96327,-2.03676 3.88508,-3.76146 z m 1.29554,1.51043 -0.63857,-0.75899 c -1.81103,1.50056 -2.83795,4.26295 -2.83795,4.26295 0,0 1.77962,-2.09796 3.47652,-3.50396 z m 1.16668,1.44074 -0.6158,-0.68349 c -1.14635,1.09425 -2.3731,3.59925 -2.3731,3.59925 0,0 1.93028,-1.90525 2.9889,-2.91576 z m 1.28582,1.36786 -0.48237,-0.66268 c -0.98776,0.90859 -1.55918,1.95434 -2.03844,3.21253 0.89659,-0.83361 1.56467,-1.75764 2.52081,-2.54985 z m 1.23762,1.11914 -0.50062,-0.49604 c -0.97288,1.12649 -1.7041,2.77832 -1.7041,2.77832 0,0 1.27332,-1.20381 2.20472,-2.28228 z m 1.53649,1.22075 -0.6158,-0.53315 c -1.09733,1.04508 -1.77287,3.14839 -1.77287,3.14839 0,0 1.38126,-1.65579 2.38867,-2.61524 z m 17.38282,1.5625 1.13309,-1.60826 c -3.49516,0.9766 -6.67216,4.4149 -6.67216,4.4149 0,0 2.21887,-1.87893 5.53907,-2.80664 z m -42.303717,6.54785 c 1.578259,-2.26289 3.292787,-4.97541 5.52832,-6.59082 -2.708281,1.51654 -4.392969,3.75406 -5.52832,6.59082 z m 2.725997,0.19171 c 0.06319,0.0316 2.525135,-3.70295 5.42439,-6.62751 -3.769388,2.38733 -5.42439,6.62751 -5.42439,6.62751 z m 3.511307,0.0915 c 0.06429,0.09 2.536363,-3.12732 5.172843,-6.23535 -3.634331,2.03182 -5.172843,6.23535 -5.172843,6.23535 z m -7.938476,-1.41699 c 0,0 1.459358,-2.96033 3.473632,-4.46386 -2.521439,1.18955 -3.473632,4.46386 -3.473632,4.46386 z m 11.198239,1.27637 c 0,0.13501 2.43849,-2.69967 4.53613,-5.31543 -2.57979,1.47576 -4.53613,5.31543 -4.53613,5.31543 z m 3.04688,0.21191 c 1.54305,-1.30347 2.60722,-3.26819 4.39453,-4.46484 -2.01685,0.99455 -3.25141,2.51773 -4.39453,4.46484 z m 27.56054,-3.4453 0.83204,-1.38979 c -2.96923,1.20371 -5.52442,3.49623 -5.52442,3.49623 0,0 1.94264,-1.22259 4.69238,-2.10644 z m -24.79589,3.65819 c 1.26421,-1.0213 2.24519,-2.46155 3.61425,-3.47265 -1.66089,0.72607 -2.7197,1.90097 -3.61425,3.47265 z m 2.55078,0.14161 c 1.0513,-0.77038 2.07082,-2.03832 3.22447,-2.72838 -1.46323,0.35856 -2.50964,1.41973 -3.22447,2.72838 z m 2.69335,0.35449 c 0.82609,-0.48012 1.41431,-1.06401 2.12598,-1.98437 -0.99102,0.45643 -1.62342,1.10642 -2.12598,1.98437 z m 17.66505,-0.8178 0.68973,-1.15932 c -2.56491,0.73138 -4.39774,2.23395 -4.39774,2.23395 0,0 1.42056,-0.68527 3.70801,-1.07463 z m -0.78962,2.60268 0.21707,-0.91518 c -1.61439,0.20179 -3.78781,0.99065 -3.78781,0.99065 0,0 1.97789,0.12363 3.57074,-0.0755 z m -0.44476,1.69364 0.0692,-0.60017 c -1.68549,0.11781 -3.79576,0.73688 -3.79576,0.73688 0,0 2.07077,-0.021 3.72656,-0.13671 z m 1.39063,3.43777 -0.48299,-1.1967 c -2.11,-0.34349 -4.53459,-0.70201 -4.53459,-0.70201 0,0 2.81786,1.54062 5.01758,1.89871 z m 1.4322,2.34878 -0.57144,-0.8778 c -1.59334,-0.31233 -2.57907,-0.60227 -4.17424,-0.96344 1.36476,0.77092 3.13858,1.61889 4.74568,1.84124 z m 2.10574,2.95786 -0.71372,-1.11411 c -2.21007,-0.58935 -5.16825,-1.65807 -5.16825,-1.65807 0,0 3.58185,2.15883 5.88197,2.77218 z m -15.59738,0.35966 0.54967,-0.35993 c -0.79131,-1.21335 -1.97656,-1.5088 -1.97656,-1.5088 0,0 0.71481,0.77687 1.42689,1.86873 z m 17.21847,2.11468 -0.7154,-1.05301 c -2.15953,-0.58265 -3.42612,-1.17985 -5.45145,-2.11203 1.7186,1.25687 4.03068,2.73105 6.16685,3.16504 z m -18.54296,-1.07115 0.5558,-0.47182 c -0.64615,-0.80769 -1.91114,-1.33789 -1.91114,-1.33789 0,0 0.79877,1.114 1.35534,1.80971 z m -1.2913,1.29882 0.70341,-0.60379 c -0.68492,-0.89566 -2.27037,-1.70299 -2.27037,-1.70299 0,0 0.94894,1.49861 1.56696,2.30678 z m -1.31612,1.18499 0.66602,-0.50335 c -0.74057,-0.94946 -2.2196,-1.6847 -2.2196,-1.6847 0,0 0.86911,1.31051 1.55358,2.18805 z m -1.35715,1.16407 0.53823,-0.49331 c -0.81999,-0.92249 -2.08818,-1.55608 -2.08818,-1.55608 0,0 0.76632,1.1678 1.54995,2.04939 z m -1.5452,1.88309 0.65626,-0.61943 c -0.9745,-1.17964 -2.7655,-2.16071 -2.7655,-2.16071 0,0 1.17943,1.65459 2.10924,2.78014 z m -1.40234,1.65235 0.62081,-0.65291 c -1.18014,-1.4367 -3.28181,-2.57646 -3.28181,-2.57646 0,0 1.53594,1.85973 2.661,3.22937 z"
       id="path912" />
    <path
       style="color:#000000;font-style:normal;font-variant:normal;font-weight:normal;font-stretch:normal;font-size:medium;line-height:normal;font-family:sans-serif;font-variant-ligatures:normal;font-variant-position:normal;font-variant-caps:normal;font-variant-numeric:normal;font-variant-alternates:normal;font-variant-east-asian:normal;font-feature-settings:normal;font-variation-settings:normal;text-indent:0;text-align:start;text-decoration:none;text-decoration-line:none;text-decoration-style:solid;text-decoration-color:#000000;letter-spacing:normal;word-spacing:normal;text-transform:none;writing-mode:lr-tb;direction:ltr;text-orientation:mixed;dominant-baseline:auto;baseline-shift:baseline;text-anchor:start;white-space:normal;shape-padding:0;shape-margin:0;inline-size:0;clip-rule:nonzero;display:inline;overflow:visible;visibility:visible;opacity:1;isolation:auto;mix-blend-mode:normal;color-interpolation:sRGB;color-interpolation-filters:linearRGB;solid-color:#000000;solid-opacity:1;vector-effect:none;fill:#333333;fill-opacity:1;fill-rule:nonzero;stroke:none;stroke-width:0.0664623;stroke-linecap:butt;stroke-linejoin:miter;stroke-miterlimit:5;stroke-dasharray:none;stroke-dashoffset:0;stroke-opacity:1;color-rendering:auto;image-rendering:auto;shape-rendering:auto;text-rendering:auto;enable-background:accumulate;stop-color:#000000;stop-opacity:1"
       d="m 106.87402,159.96093 c -2.93458,-5.32089 -8.268551,-6.71484 -8.268551,-6.71484 0,0 4.576071,2.27231 8.268551,6.71484 z m -4.81055,-0.75195 c -3.240283,-4.88861 -8.348627,-5.63183 -8.348627,-5.63183 0,0 3.964622,1.71774 8.348627,5.63183 z m 8.16797,0.65137 c -1.95781,-4.00368 -6.51464,-6.31445 -6.51464,-6.31445 0,0 3.70816,3.06641 6.51464,6.31445 z M 98.179687,159.458 c -2.09961,-3.04584 -7.144531,-4.75487 -7.241211,-4.50879 0,0 4.692262,2.16237 7.241211,4.50879 z m 15.810543,1.3545 c -1.5409,-3.6397 -5.21191,-5.36231 -5.21191,-5.36231 0,0 2.80249,2.45189 5.21191,5.36231 z m -20.195308,-1.7041 c -1.285533,-1.60709 -4.109375,-2.55567 -4.109375,-2.55567 0,0 2.588578,1.45665 4.109375,2.55567 z"
       id="path918" />
  </g>
  <g
     id="use863"
     transform="matrix(0.99523764,0,0,0.99523764,-9.064731,-82.934878)"
     style="stroke-width:1.00479">
    <path
       style="font-variation-settings:normal;opacity:1;vector-effect:none;fill:#cccccc;fill-opacity:1;stroke:none;stroke-width:0.132925;stroke-linecap:butt;stroke-linejoin:miter;stroke-miterlimit:5;stroke-dasharray:none;stroke-dashoffset:0;stroke-opacity:1;stop-color:#000000;stop-opacity:1"
       d="m 103.48996,176.67922 c -0.40303,0.076 -0.80773,0.14201 -1.21235,0.19701 0.87092,1.61378 1.5646,3.25712 0.85502,5.13432 -3.808591,-1.05237 -6.130495,-5.14494 -6.130495,-5.14494 -5.247851,-0.90645 -9.57159,-3.10701 -12.428033,-6.66503 0,0 -1.703844,0.0501 -3.006783,-1.20272 -1.302939,-1.25282 -1.503391,-1.40316 -2.956669,-2.00452 -1.453278,-0.60135 -3.006782,-1.80155 -2.555765,-3.95641 0.216466,-0.0722 0.46774,0.12205 1.002261,0.54873 0.534521,0.42668 2.484894,0.41557 2.885798,-0.0354 0.400905,-0.45102 -0.223727,-1.11716 -1.677005,-0.91671 -1.453278,0.20045 -2.428215,-0.0501 -2.695482,-1.05238 v -4e-5 c 0,0 0.300678,-1.1526 1.80407,-2.20497 1.503391,-1.05237 1.603618,-0.45102 3.006783,-1.60362 1.403165,-1.1526 1.753955,-1.50339 3.958929,-2.3052 2.204974,-0.80181 2.956671,-1.5535 4.860964,-2.95667 1.904296,-1.40316 7.817633,-3.00678 11.024867,-3.10701 2.38559,-3.96063 4.59267,-6.91451 8.30207,-9.77203 2.71753,4.0849 5.99666,8.20548 10.57384,11.62622 0,0 -2.75622,3.05689 -3.30746,4.40994 0,0 3.00679,2.95668 5.06142,3.40769 2.05463,0.45102 3.60814,-0.75169 6.1639,-3.4578 2.55577,-2.7061 6.36436,-5.36209 10.07272,-5.763 -2.80561,5.61438 -4.98678,8.64613 -6.51469,13.48041 1.86889,4.36918 4.37651,8.56934 6.76526,12.6786 -0.96723,0.5527 -4.69987,0.12793 -8.06819,-2.75622 -3.36832,-2.88415 -5.45239,-4.53341 -7.15646,-4.70762 -1.70408,-0.17421 -2.56626,0.12494 -3.46805,0.54896 0,0 1.97165,1.90358 3.07414,2.95595 -2.30964,1.58816 -4.40627,3.1445 -6.33672,4.97265 -1.93045,1.82814 -3.69472,3.92809 -5.13917,6.20256 -0.20118,-0.11619 -0.39992,-0.2359 -0.59617,-0.35906 -2.48505,-1.55953 -4.57072,-3.67174 -6.16255,-6.19169 z"
       id="path1806" />
    <circle
       style="opacity:1;fill:#333333;fill-opacity:1;fill-rule:evenodd;stroke:none;stroke-width:0.132925;stroke-miterlimit:5;stroke-dasharray:none;paint-order:markers stroke fill"
       id="circle1808"
       cx="83.73053"
       cy="158.1985"
       r="1.6787866" />
    <path
       id="path1810"
       style="font-variation-settings:normal;opacity:1;vector-effect:none;fill:#ffffff;fill-opacity:1;stroke:none;stroke-width:0.502394;stroke-linecap:butt;stroke-linejoin:miter;stroke-miterlimit:5;stroke-dasharray:none;stroke-dashoffset:0;stroke-opacity:1;stop-color:#000000;stop-opacity:1"
       d="m 408.28711,529.24414 c -12.88306,10.33958 -20.8812,21.15488 -29.48047,35.43164 -12.12183,0.37882 -34.47063,6.43891 -41.66797,11.74219 -7.19733,5.30332 -10.03929,8.14532 -18.37305,11.17578 -8.33374,3.03046 -9.65958,4.35465 -14.96289,8.71094 -5.3033,4.35628 -5.68117,2.08504 -11.36328,6.0625 -5.68211,3.97746 -6.81836,8.33398 -6.81836,8.33398 l 2.14649,1.19922 c 0,0 0.567,-2.93528 2.83984,-5.68164 2.27284,-2.74632 5.55763,-4.05417 9.75977,-5.22461 3.96942,-1.10562 6.48315,-6.40115 10.83789,-8.94141 4.82143,-2.81246 12.72294,-4.95394 17.14258,-7.90039 4.41964,-2.9464 8.67166,-7.18595 17.00976,-10.44726 8.27576,-3.23694 21.00561,-6.341 36.02735,-7.09766 0,0 10.1522,-18.18601 26.07421,-34.52344 0,0 1.64935,-1.07144 0.82813,-2.83984 z m 107.20703,37.52148 c -13.15908,2.39459 -26.36851,11.81267 -35.41992,21.39649 -9.65957,10.22782 -15.52939,14.773 -23.29492,13.06836 0,0 2.33497,2.20892 6.12304,2.01953 3.78807,-0.18935 11.86325,-5.29819 18.5625,-12.87891 5.21099,-5.89663 14.69002,-14.77218 25.13282,-19.07812 3.98071,-1.64137 6.52384,-1.60142 8.89648,-4.52735 z m -213.28516,47.02344 c -0.90898,0.0173 -2.06481,0.38457 -3.17187,0.83789 3.12394,0.39864 4.28178,2.19667 3.10937,3.51563 -1.51522,1.70445 -8.88601,1.74741 -10.90625,0.13476 -2.02023,-1.61265 -2.97092,-2.34709 -3.78906,-2.07422 -0.19379,0.92589 -0.27746,1.79822 -0.28711,2.63282 0,0 2.07617,1.16491 4.88867,2.23633 2.81251,1.07142 9.77735,1.33858 11.65235,-0.40235 1.875,-1.74104 1.4738,-4.64172 -0.13281,-6.42773 -0.30124,-0.33488 -0.78183,-0.46416 -1.36329,-0.45313 z m 186.38868,41.04297 c 12.73065,10.90073 26.83846,12.50496 30.49414,10.41602 -4.3774,-1.00717 -9.85933,-0.83508 -17.92974,-5.42969 -8.07041,-4.59461 -13.33555,-8.44143 -18.36459,-12.45639 -5.02904,-4.01495 -12.00506,-9.31372 -15.22325,-10.20767 -1.27847,-0.35513 -2.44524,-0.46068 -3.4043,-0.45313 -1.59843,0.0126 -2.61914,0.33789 -2.61914,0.33789 4.5404,0.46417 9.83469,3.752 17.00293,9.44141 3.00028,2.38125 6.29013,5.13733 10.04395,8.35156 z m -169.08789,-13.17969 0.14062,1.625 c 5.21986,6.50193 11.7455,11.7936 19.32617,15.92383 h 0.002 l 6.33398,1.42383 c 0,0 -7.98556,-4.02636 -12.53125,-7.625 -4.54568,-3.59868 -9.68694,-10.00577 -13.27148,-11.34766 z m 42.25195,17.0293 c 0,0 1.95794,5.7468 4.86133,9.78711 0,0 8.77524,15.46785 23.16992,19.44531 0,0 -8.5e-4,-2.52597 -3.2207,-4.79883 -3.21986,-2.27285 -13.44745,-9.84924 -21.5918,-23.29687 0,0 -1.13531,-0.94733 -3.21875,-1.13672 z m 32.19726,8.33398 -2.8164,0.74805 c 6.01636,9.52422 13.90065,17.50806 23.29297,23.40235 0,0 0.7377,-1.23105 -1.53516,-3.50391 -2.27286,-2.27282 -11.93348,-7.95646 -18.94141,-20.64649 z"
       transform="scale(0.26458333)" />
    <path
       id="path1812"
       style="opacity:1;fill:#ffffff;fill-rule:evenodd;stroke:none;stroke-width:0.502394;stroke-miterlimit:5;stroke-dasharray:none;paint-order:markers stroke fill"
       d="m 315.98828,593.97852 a 3.8425385,3.8425385 0 0 0 -3.8418,3.84179 3.8425385,3.8425385 0 0 0 3.8418,3.84375 3.8425385,3.8425385 0 0 0 3.8418,-3.84375 3.8425385,3.8425385 0 0 0 -3.8418,-3.84179 z m -0.0352,1.04296 a 2.7989975,2.7989975 0 0 1 0.0352,0 2.7989975,2.7989975 0 0 1 2.79883,2.79883 2.7989975,2.7989975 0 0 1 -2.79883,2.79883 2.7989975,2.7989975 0 0 1 -1.21289,-0.27734 2.3637296,2.3637296 0 0 0 0.44336,0.043 2.3637296,2.3637296 0 0 0 2.36328,-2.36329 2.3637296,2.3637296 0 0 0 -2.36328,-2.36328 2.3637296,2.3637296 0 0 0 -1.51563,0.54883 2.7989975,2.7989975 0 0 1 2.25,-1.18555 z"
       transform="scale(0.26458333)" />
    <path
       id="path1814"
       style="color:#000000;font-style:normal;font-variant:normal;font-weight:normal;font-stretch:normal;font-size:medium;line-height:normal;font-family:sans-serif;font-variant-ligatures:normal;font-variant-position:normal;font-variant-caps:normal;font-variant-numeric:normal;font-variant-alternates:normal;font-variant-east-asian:normal;font-feature-settings:normal;font-variation-settings:normal;text-indent:0;text-align:start;text-decoration:none;text-decoration-line:none;text-decoration-style:solid;text-decoration-color:#000000;letter-spacing:normal;word-spacing:normal;text-transform:none;writing-mode:lr-tb;direction:ltr;text-orientation:mixed;dominant-baseline:auto;baseline-shift:baseline;text-anchor:start;white-space:normal;shape-padding:0;shape-margin:0;inline-size:0;clip-rule:nonzero;display:inline;overflow:visible;visibility:visible;opacity:1;isolation:auto;mix-blend-mode:normal;color-interpolation:sRGB;color-interpolation-filters:linearRGB;solid-color:#000000;solid-opacity:1;vector-effect:none;fill:#333333;fill-opacity:1;fill-rule:nonzero;stroke:none;stroke-width:0.132925;stroke-linecap:butt;stroke-linejoin:miter;stroke-miterlimit:5;stroke-dasharray:none;stroke-dashoffset:0;stroke-opacity:1;color-rendering:auto;image-rendering:auto;shape-rendering:auto;text-rendering:auto;enable-background:accumulate;stop-color:#000000"
       d="m 87.998047,154.55273 c 1.695596,-1.0211 4.919621,-2.50594 8.788784,-2.80357 3.836909,-0.29514 9.775549,0.96138 13.519809,2.98131 3.77595,2.03702 6.80454,4.87216 10.90039,5.3808 -3.82201,-0.99472 -6.8072,-3.7734 -10.64844,-5.84565 -3.87291,-2.08933 -9.79662,-3.2437 -13.77734,-2.9375 -3.948476,0.30374 -6.932276,1.65491 -8.762835,2.8499 -0.838679,0.54749 -1.837368,1.21483 -2.699777,1.23075 0.612672,0.33661 1.767369,-0.3068 2.679409,-0.85604 z m 0.250558,12.12752 c 0.37511,-0.86322 0.851283,-2.00708 0.851283,-2.98996 0,-0.96083 -0.487549,-2.668 -0.79241,-3.58259 -0.304862,-0.91458 -0.709822,-1.28348 -0.709822,-1.28348 0,0 0.05312,0.77262 0.34961,1.66211 0.296494,0.88948 0.58789,2.00637 0.58789,2.84961 0,0.82119 -0.453034,2.20651 -0.841797,3.06445 -0.388763,0.85794 -0.630338,1.67069 -1.202009,2.39454 0.841305,-0.12283 1.382144,-1.25146 1.757255,-2.11468 z m -1.773996,-1.31111 c 0.599475,-0.8813 0.830363,-1.63293 0.518694,-2.59124 -0.299353,-0.92045 -0.57296,-2.13312 -0.999163,-2.49958 -0.07541,0.53557 0.275785,1.67793 0.402903,2.5738 0.127117,0.89588 -0.05535,1.49619 -0.383371,2.25726 -0.774689,1.79744 -1.333073,2.5284 -1.419922,3.57059 0,0 0.863554,-1.81527 1.880859,-3.31083 z m 36.988281,-1.14062 c -0.24278,1.01136 -1.02005,1.96832 -1.91908,2.7666 1.17712,-0.45261 2.22564,-1.56784 2.50792,-2.74379 0.28228,-1.17595 -0.3384,-2.65456 -1.69333,-3.67028 -0.0302,0.21468 0.004,0.37124 0.38557,0.7525 0.38117,0.38127 0.93524,1.99382 0.71892,2.89497 z m -41.482421,-1.09766 c 0.213446,-0.54886 -0.09809,-0.97248 -0.338728,-1.27874 -0.240636,-0.30626 -0.558733,-0.32087 -0.558733,-0.32087 0,0 0.07623,0.35625 0.249023,0.57617 0.172798,0.21993 0.293595,0.47886 0.15625,0.83203 -0.372386,0.95758 -0.104492,1.89844 -0.104492,1.89844 0,0 0.267484,-0.86052 0.59668,-1.70703 z m 15.955695,0.16594 c 3.825066,-0.32857 7.319796,-0.51639 12.079896,-0.43894 4.7601,0.0774 9.49634,1.02176 11.93151,0.45169 -3.22762,0.0171 -7.40764,-0.85313 -12.16632,-0.95996 -4.75868,-0.10683 -8.11012,0.16977 -11.913446,0.42182 -3.803323,0.25205 -7.649752,0.99838 -7.649752,0.99838 0,0 3.89305,-0.14442 7.718112,-0.47299 z m -5.926398,1.14361 c 1.19426,0.87071 2.550261,2.04489 3.27383,3.21179 0.723569,1.1669 1.098188,2.22021 1.180132,2.53026 -2.080013,-0.44231 -3.123317,-1.77457 -3.992187,-3.04465 -0.940338,-1.37454 -1.389789,-2.10714 -1.475307,-2.82101 -0.323947,0.16198 -0.02647,1.61263 0.874581,3.15555 0.900615,1.54218 2.423786,3.20315 5.381975,3.06698 -0.212777,-1.33201 -1.697859,-5.46162 -5.243024,-6.09892 z m 16.518494,-24.80862 c -0.17162,0.1322 -0.33695,0.26468 -0.5023,0.39739 0.79392,1.30705 2.37945,3.71551 4.57802,6.1004 2.95667,3.20724 5.61257,5.21157 5.61257,5.21157 -1.2027,1.1526 -3.00653,3.9088 -3.00653,3.9088 -5.31198,-4.10927 -11.32557,-5.16147 -13.93145,-5.26169 -2.605879,-0.10023 -3.773118,0.3889 -3.773118,0.3889 3.157118,-0.45102 7.846068,-0.008 12.793238,2.41765 4.94718,2.42602 5.67071,3.67448 7.4166,4.96093 1.7459,1.28644 3.1409,1.31982 3.1409,1.31982 -2.05463,-0.45101 -5.06171,-3.40755 -5.06171,-3.40755 0.55124,-1.35305 3.30729,-4.41006 3.30729,-4.41006 -4.57718,-3.42074 -7.85598,-7.54126 -10.57351,-11.62616 z m 28.56415,10.22314 c -0.23349,0.0252 -0.46731,0.0592 -0.70125,0.10181 -0.51786,1.03082 -1.6168,3.16312 -3.02359,5.54384 -1.9544,3.30746 -3.60805,7.86774 -3.60805,7.86774 1.60362,3.8086 5.71251,10.82436 6.46421,11.62616 0.75168,0.80181 1.11931,1.01906 1.11931,1.01906 -2.38875,-4.10926 -4.89608,-8.30911 -6.76496,-12.67829 1.52791,-4.83428 3.70872,-7.86594 6.51433,-13.48032 z m -61.422612,11.467 c -0.06968,0.15815 -0.09922,0.25942 -0.09922,0.25942 0.267269,1.00228 1.242166,1.25258 2.695443,1.05213 1.128022,-0.15558 1.754148,0.211 1.791623,0.59377 0.69796,-0.31591 0.568706,-0.99103 -0.162782,-1.18185 -0.815012,-0.21264 -1.949307,0.14197 -2.870626,0.0357 -0.662763,-0.0765 -1.137568,-0.51638 -1.354439,-0.75913 z m 0.309025,2.41174 c -0.0199,1.72158 1.343819,2.72677 2.631882,3.25975 1.453277,0.60136 1.653469,0.75171 2.956409,2.00453 1.302938,1.25282 3.007051,1.20251 3.007051,1.20251 0.0019,-0.34938 -0.03721,-0.42995 -0.03721,-0.42995 -0.99219,0.17717 -1.94931,-0.24797 -2.870626,-1.31103 -0.921319,-1.06306 -2.444813,-1.80765 -3.188954,-2.05569 -0.744141,-0.24805 -1.098717,-0.77942 -1.523937,-1.62987 -0.229391,-0.45877 -0.641014,-0.80996 -0.974619,-1.04025 z m 44.874777,4.40955 c -0.91552,0.0331 -2.05571,0.41867 -2.77244,0.7612 -1.14676,0.54803 -3.34531,2.28861 -5.79448,3.95221 -2.09433,1.42258 -6.46752,3.18002 -10.32753,3.52847 -1.16937,-1.59458 -2.764023,-2.51628 -3.649906,-2.87063 -0.885881,-0.35436 -1.52394,-0.70848 -1.52394,-0.70848 0,0 0.03558,0.63806 0.850596,1.02784 0.815009,0.38979 2.65831,1.65047 3.64991,3.29541 1.00397,1.66546 1.2311,2.55112 1.38182,3.437 0.15601,0.91697 0.46509,1.44435 0.46509,1.44435 0.70958,-1.8772 0.0157,-3.52079 -0.85524,-5.13457 0.40462,-0.055 0.8093,-0.12088 1.21233,-0.19688 3.54109,-0.66737 6.95316,-2.09917 9.04751,-3.52175 2.09757,-1.42478 3.79219,-2.76771 5.34386,-3.65353 0,0 1.79538,1.60131 2.64583,2.48719 0,0 -2.29366,1.91786 -5.25033,4.47363 -2.95667,2.55576 -4.4964,4.62731 -5.62394,6.40633 0.19625,0.12316 0.39465,0.24296 0.59583,0.35915 1.44445,-2.27447 3.20877,-4.37459 5.13922,-6.20272 1.93045,-1.82816 4.02692,-3.38467 6.33656,-4.97283 -1.10249,-1.05237 -3.07371,-2.95589 -3.07371,-2.95589 0.90179,-0.42402 1.76392,-0.72301 3.468,-0.5488 -0.2471,-0.31929 -0.71572,-0.42654 -1.26504,-0.4067 z m -31.166053,6.27042 c 2.142617,1.16738 4.604282,1.98387 7.3148,2.45205 l -0.322979,-0.58705 c 0,0 -2.622357,-0.24805 -5.315437,-1.48828 0,0 -0.802317,-0.25713 -1.676384,-0.37672 z" />
    <path
       style="color:#000000;font-style:normal;font-variant:normal;font-weight:normal;font-stretch:normal;font-size:medium;line-height:normal;font-family:sans-serif;font-variant-ligatures:normal;font-variant-position:normal;font-variant-caps:normal;font-variant-numeric:normal;font-variant-alternates:normal;font-variant-east-asian:normal;font-feature-settings:normal;font-variation-settings:normal;text-indent:0;text-align:start;text-decoration:none;text-decoration-line:none;text-decoration-style:solid;text-decoration-color:#000000;letter-spacing:normal;word-spacing:normal;text-transform:none;writing-mode:lr-tb;direction:ltr;text-orientation:mixed;dominant-baseline:auto;baseline-shift:baseline;text-anchor:start;white-space:normal;shape-padding:0;shape-margin:0;inline-size:0;clip-rule:nonzero;display:inline;overflow:visible;visibility:visible;opacity:1;isolation:auto;mix-blend-mode:normal;color-interpolation:sRGB;color-interpolation-filters:linearRGB;solid-color:#000000;solid-opacity:1;vector-effect:none;fill:#333333;fill-opacity:1;fill-rule:nonzero;stroke:none;stroke-width:0.0664623;stroke-linecap:butt;stroke-linejoin:miter;stroke-miterlimit:5;stroke-dasharray:none;stroke-dashoffset:0;stroke-opacity:1;color-rendering:auto;image-rendering:auto;shape-rendering:auto;text-rendering:auto;enable-background:accumulate;stop-color:#000000;stop-opacity:1"
       d="m 108.1861,141.45815 -0.37946,-0.67774 c -2.93945,2.11435 -4.15625,5.93345 -4.15625,5.93345 0,0 1.76229,-3.26078 4.53571,-5.25571 z m 0.85554,1.2423 -0.50972,-0.6913 c -2.54322,2.33976 -3.97919,5.50745 -3.97919,5.50745 0,0 2.02083,-2.54552 4.48891,-4.81615 z m 1.29949,1.70508 -0.55397,-0.74532 c -1.98701,1.78322 -3.33111,4.50678 -3.33111,4.50678 0,0 1.96327,-2.03676 3.88508,-3.76146 z m 1.29554,1.51043 -0.63857,-0.75899 c -1.81103,1.50056 -2.83795,4.26295 -2.83795,4.26295 0,0 1.77962,-2.09796 3.47652,-3.50396 z m 1.16668,1.44074 -0.6158,-0.68349 c -1.14635,1.09425 -2.3731,3.59925 -2.3731,3.59925 0,0 1.93028,-1.90525 2.9889,-2.91576 z m 1.28582,1.36786 -0.48237,-0.66268 c -0.98776,0.90859 -1.55918,1.95434 -2.03844,3.21253 0.89659,-0.83361 1.56467,-1.75764 2.52081,-2.54985 z m 1.23762,1.11914 -0.50062,-0.49604 c -0.97288,1.12649 -1.7041,2.77832 -1.7041,2.77832 0,0 1.27332,-1.20381 2.20472,-2.28228 z m 1.53649,1.22075 -0.6158,-0.53315 c -1.09733,1.04508 -1.77287,3.14839 -1.77287,3.14839 0,0 1.38126,-1.65579 2.38867,-2.61524 z m 17.38282,1.5625 1.13309,-1.60826 c -3.49516,0.9766 -6.67216,4.4149 -6.67216,4.4149 0,0 2.21887,-1.87893 5.53907,-2.80664 z m -42.303717,6.54785 c 1.578259,-2.26289 3.292787,-4.97541 5.52832,-6.59082 -2.708281,1.51654 -4.392969,3.75406 -5.52832,6.59082 z m 2.725997,0.19171 c 0.06319,0.0316 2.525135,-3.70295 5.42439,-6.62751 -3.769388,2.38733 -5.42439,6.62751 -5.42439,6.62751 z m 3.511307,0.0915 c 0.06429,0.09 2.536363,-3.12732 5.172843,-6.23535 -3.634331,2.03182 -5.172843,6.23535 -5.172843,6.23535 z m -7.938476,-1.41699 c 0,0 1.459358,-2.96033 3.473632,-4.46386 -2.521439,1.18955 -3.473632,4.46386 -3.473632,4.46386 z m 11.198239,1.27637 c 0,0.13501 2.43849,-2.69967 4.53613,-5.31543 -2.57979,1.47576 -4.53613,5.31543 -4.53613,5.31543 z m 3.04688,0.21191 c 1.54305,-1.30347 2.60722,-3.26819 4.39453,-4.46484 -2.01685,0.99455 -3.25141,2.51773 -4.39453,4.46484 z m 27.56054,-3.4453 0.83204,-1.38979 c -2.96923,1.20371 -5.52442,3.49623 -5.52442,3.49623 0,0 1.94264,-1.22259 4.69238,-2.10644 z m -24.79589,3.65819 c 1.26421,-1.0213 2.24519,-2.46155 3.61425,-3.47265 -1.66089,0.72607 -2.7197,1.90097 -3.61425,3.47265 z m 2.55078,0.14161 c 1.0513,-0.77038 2.07082,-2.03832 3.22447,-2.72838 -1.46323,0.35856 -2.50964,1.41973 -3.22447,2.72838 z m 2.69335,0.35449 c 0.82609,-0.48012 1.41431,-1.06401 2.12598,-1.98437 -0.99102,0.45643 -1.62342,1.10642 -2.12598,1.98437 z m 17.66505,-0.8178 0.68973,-1.15932 c -2.56491,0.73138 -4.39774,2.23395 -4.39774,2.23395 0,0 1.42056,-0.68527 3.70801,-1.07463 z m -0.78962,2.60268 0.21707,-0.91518 c -1.61439,0.20179 -3.78781,0.99065 -3.78781,0.99065 0,0 1.97789,0.12363 3.57074,-0.0755 z m -0.44476,1.69364 0.0692,-0.60017 c -1.68549,0.11781 -3.79576,0.73688 -3.79576,0.73688 0,0 2.07077,-0.021 3.72656,-0.13671 z m 1.39063,3.43777 -0.48299,-1.1967 c -2.11,-0.34349 -4.53459,-0.70201 -4.53459,-0.70201 0,0 2.81786,1.54062 5.01758,1.89871 z m 1.4322,2.34878 -0.57144,-0.8778 c -1.59334,-0.31233 -2.57907,-0.60227 -4.17424,-0.96344 1.36476,0.77092 3.13858,1.61889 4.74568,1.84124 z m 2.10574,2.95786 -0.71372,-1.11411 c -2.21007,-0.58935 -5.16825,-1.65807 -5.16825,-1.65807 0,0 3.58185,2.15883 5.88197,2.77218 z m -15.59738,0.35966 0.54967,-0.35993 c -0.79131,-1.21335 -1.97656,-1.5088 -1.97656,-1.5088 0,0 0.71481,0.77687 1.42689,1.86873 z m 17.21847,2.11468 -0.7154,-1.05301 c -2.15953,-0.58265 -3.42612,-1.17985 -5.45145,-2.11203 1.7186,1.25687 4.03068,2.73105 6.16685,3.16504 z m -18.54296,-1.07115 0.5558,-0.47182 c -0.64615,-0.80769 -1.91114,-1.33789 -1.91114,-1.33789 0,0 0.79877,1.114 1.35534,1.80971 z m -1.2913,1.29882 0.70341,-0.60379 c -0.68492,-0.89566 -2.27037,-1.70299 -2.27037,-1.70299 0,0 0.94894,1.49861 1.56696,2.30678 z m -1.31612,1.18499 0.66602,-0.50335 c -0.74057,-0.94946 -2.2196,-1.6847 -2.2196,-1.6847 0,0 0.86911,1.31051 1.55358,2.18805 z m -1.35715,1.16407 0.53823,-0.49331 c -0.81999,-0.92249 -2.08818,-1.55608 -2.08818,-1.55608 0,0 0.76632,1.1678 1.54995,2.04939 z m -1.5452,1.88309 0.65626,-0.61943 c -0.9745,-1.17964 -2.7655,-2.16071 -2.7655,-2.16071 0,0 1.17943,1.65459 2.10924,2.78014 z m -1.40234,1.65235 0.62081,-0.65291 c -1.18014,-1.4367 -3.28181,-2.57646 -3.28181,-2.57646 0,0 1.53594,1.85973 2.661,3.22937 z"
       id="path1816" />
    <path
       style="color:#000000;font-style:normal;font-variant:normal;font-weight:normal;font-stretch:normal;font-size:medium;line-height:normal;font-family:sans-serif;font-variant-ligatures:normal;font-variant-position:normal;font-variant-caps:normal;font-variant-numeric:normal;font-variant-alternates:normal;font-variant-east-asian:normal;font-feature-settings:normal;font-variation-settings:normal;text-indent:0;text-align:start;text-decoration:none;text-decoration-line:none;text-decoration-style:solid;text-decoration-color:#000000;letter-spacing:normal;word-spacing:normal;text-transform:none;writing-mode:lr-tb;direction:ltr;text-orientation:mixed;dominant-baseline:auto;baseline-shift:baseline;text-anchor:start;white-space:normal;shape-padding:0;shape-margin:0;inline-size:0;clip-rule:nonzero;display:inline;overflow:visible;visibility:visible;opacity:1;isolation:auto;mix-blend-mode:normal;color-interpolation:sRGB;color-interpolation-filters:linearRGB;solid-color:#000000;solid-opacity:1;vector-effect:none;fill:#333333;fill-opacity:1;fill-rule:nonzero;stroke:none;stroke-width:0.0664623;stroke-linecap:butt;stroke-linejoin:miter;stroke-miterlimit:5;stroke-dasharray:none;stroke-dashoffset:0;stroke-opacity:1;color-rendering:auto;image-rendering:auto;shape-rendering:auto;text-rendering:auto;enable-background:accumulate;stop-color:#000000;stop-opacity:1"
       d="m 106.87402,159.96093 c -2.93458,-5.32089 -8.268551,-6.71484 -8.268551,-6.71484 0,0 4.576071,2.27231 8.268551,6.71484 z m -4.81055,-0.75195 c -3.240283,-4.88861 -8.348627,-5.63183 -8.348627,-5.63183 0,0 3.964622,1.71774 8.348627,5.63183 z m 8.16797,0.65137 c -1.95781,-4.00368 -6.51464,-6.31445 -6.51464,-6.31445 0,0 3.70816,3.06641 6.51464,6.31445 z M 98.179687,159.458 c -2.09961,-3.04584 -7.144531,-4.75487 -7.241211,-4.50879 0,0 4.692262,2.16237 7.241211,4.50879 z m 15.810543,1.3545 c -1.5409,-3.6397 -5.21191,-5.36231 -5.21191,-5.36231 0,0 2.80249,2.45189 5.21191,5.36231 z m -20.195308,-1.7041 c -1.285533,-1.60709 -4.109375,-2.55567 -4.109375,-2.55567 0,0 2.588578,1.45665 4.109375,2.55567 z"
       id="path1818" />
  </g>
  <g
     id="use865"
     transform="matrix(0.99523764,0,0,0.99523764,-70.543221,-82.934878)"
     style="stroke-width:1.00479">
    <path
       style="font-variation-settings:normal;opacity:1;vector-effect:none;fill:#cccccc;fill-opacity:1;stroke:none;stroke-width:0.132925;stroke-linecap:butt;stroke-linejoin:miter;stroke-miterlimit:5;stroke-dasharray:none;stroke-dashoffset:0;stroke-opacity:1;stop-color:#000000;stop-opacity:1"
       d="m 103.48996,176.67922 c -0.40303,0.076 -0.80773,0.14201 -1.21235,0.19701 0.87092,1.61378 1.5646,3.25712 0.85502,5.13432 -3.808591,-1.05237 -6.130495,-5.14494 -6.130495,-5.14494 -5.247851,-0.90645 -9.57159,-3.10701 -12.428033,-6.66503 0,0 -1.703844,0.0501 -3.006783,-1.20272 -1.302939,-1.25282 -1.503391,-1.40316 -2.956669,-2.00452 -1.453278,-0.60135 -3.006782,-1.80155 -2.555765,-3.95641 0.216466,-0.0722 0.46774,0.12205 1.002261,0.54873 0.534521,0.42668 2.484894,0.41557 2.885798,-0.0354 0.400905,-0.45102 -0.223727,-1.11716 -1.677005,-0.91671 -1.453278,0.20045 -2.428215,-0.0501 -2.695482,-1.05238 v -4e-5 c 0,0 0.300678,-1.1526 1.80407,-2.20497 1.503391,-1.05237 1.603618,-0.45102 3.006783,-1.60362 1.403165,-1.1526 1.753955,-1.50339 3.958929,-2.3052 2.204974,-0.80181 2.956671,-1.5535 4.860964,-2.95667 1.904296,-1.40316 7.817633,-3.00678 11.024867,-3.10701 2.38559,-3.96063 4.59267,-6.91451 8.30207,-9.77203 2.71753,4.0849 5.99666,8.20548 10.57384,11.62622 0,0 -2.75622,3.05689 -3.30746,4.40994 0,0 3.00679,2.95668 5.06142,3.40769 2.05463,0.45102 3.60814,-0.75169 6.1639,-3.4578 2.55577,-2.7061 6.36436,-5.36209 10.07272,-5.763 -2.80561,5.61438 -4.98678,8.64613 -6.51469,13.48041 1.86889,4.36918 4.37651,8.56934 6.76526,12.6786 -0.96723,0.5527 -4.69987,0.12793 -8.06819,-2.75622 -3.36832,-2.88415 -5.45239,-4.53341 -7.15646,-4.70762 -1.70408,-0.17421 -2.56626,0.12494 -3.46805,0.54896 0,0 1.97165,1.90358 3.07414,2.95595 -2.30964,1.58816 -4.40627,3.1445 -6.33672,4.97265 -1.93045,1.82814 -3.69472,3.92809 -5.13917,6.20256 -0.20118,-0.11619 -0.39992,-0.2359 -0.59617,-0.35906 -2.48505,-1.55953 -4.57072,-3.67174 -6.16255,-6.19169 z"
       id="path1822" />
    <circle
       style="opacity:1;fill:#333333;fill-opacity:1;fill-rule:evenodd;stroke:none;stroke-width:0.132925;stroke-miterlimit:5;stroke-dasharray:none;paint-order:markers stroke fill"
       id="circle1824"
       cx="83.73053"
       cy="158.1985"
       r="1.6787866" />
    <path
       id="path1826"
       style="font-variation-settings:normal;opacity:1;vector-effect:none;fill:#ffffff;fill-opacity:1;stroke:none;stroke-width:0.502394;stroke-linecap:butt;stroke-linejoin:miter;stroke-miterlimit:5;stroke-dasharray:none;stroke-dashoffset:0;stroke-opacity:1;stop-color:#000000;stop-opacity:1"
       d="m 408.28711,529.24414 c -12.88306,10.33958 -20.8812,21.15488 -29.48047,35.43164 -12.12183,0.37882 -34.47063,6.43891 -41.66797,11.74219 -7.19733,5.30332 -10.03929,8.14532 -18.37305,11.17578 -8.33374,3.03046 -9.65958,4.35465 -14.96289,8.71094 -5.3033,4.35628 -5.68117,2.08504 -11.36328,6.0625 -5.68211,3.97746 -6.81836,8.33398 -6.81836,8.33398 l 2.14649,1.19922 c 0,0 0.567,-2.93528 2.83984,-5.68164 2.27284,-2.74632 5.55763,-4.05417 9.75977,-5.22461 3.96942,-1.10562 6.48315,-6.40115 10.83789,-8.94141 4.82143,-2.81246 12.72294,-4.95394 17.14258,-7.90039 4.41964,-2.9464 8.67166,-7.18595 17.00976,-10.44726 8.27576,-3.23694 21.00561,-6.341 36.02735,-7.09766 0,0 10.1522,-18.18601 26.07421,-34.52344 0,0 1.64935,-1.07144 0.82813,-2.83984 z m 107.20703,37.52148 c -13.15908,2.39459 -26.36851,11.81267 -35.41992,21.39649 -9.65957,10.22782 -15.52939,14.773 -23.29492,13.06836 0,0 2.33497,2.20892 6.12304,2.01953 3.78807,-0.18935 11.86325,-5.29819 18.5625,-12.87891 5.21099,-5.89663 14.69002,-14.77218 25.13282,-19.07812 3.98071,-1.64137 6.52384,-1.60142 8.89648,-4.52735 z m -213.28516,47.02344 c -0.90898,0.0173 -2.06481,0.38457 -3.17187,0.83789 3.12394,0.39864 4.28178,2.19667 3.10937,3.51563 -1.51522,1.70445 -8.88601,1.74741 -10.90625,0.13476 -2.02023,-1.61265 -2.97092,-2.34709 -3.78906,-2.07422 -0.19379,0.92589 -0.27746,1.79822 -0.28711,2.63282 0,0 2.07617,1.16491 4.88867,2.23633 2.81251,1.07142 9.77735,1.33858 11.65235,-0.40235 1.875,-1.74104 1.4738,-4.64172 -0.13281,-6.42773 -0.30124,-0.33488 -0.78183,-0.46416 -1.36329,-0.45313 z m 186.38868,41.04297 c 12.73065,10.90073 26.83846,12.50496 30.49414,10.41602 -4.3774,-1.00717 -9.85933,-0.83508 -17.92974,-5.42969 -8.07041,-4.59461 -13.33555,-8.44143 -18.36459,-12.45639 -5.02904,-4.01495 -12.00506,-9.31372 -15.22325,-10.20767 -1.27847,-0.35513 -2.44524,-0.46068 -3.4043,-0.45313 -1.59843,0.0126 -2.61914,0.33789 -2.61914,0.33789 4.5404,0.46417 9.83469,3.752 17.00293,9.44141 3.00028,2.38125 6.29013,5.13733 10.04395,8.35156 z m -169.08789,-13.17969 0.14062,1.625 c 5.21986,6.50193 11.7455,11.7936 19.32617,15.92383 h 0.002 l 6.33398,1.42383 c 0,0 -7.98556,-4.02636 -12.53125,-7.625 -4.54568,-3.59868 -9.68694,-10.00577 -13.27148,-11.34766 z m 42.25195,17.0293 c 0,0 1.95794,5.7468 4.86133,9.78711 0,0 8.77524,15.46785 23.16992,19.44531 0,0 -8.5e-4,-2.52597 -3.2207,-4.79883 -3.21986,-2.27285 -13.44745,-9.84924 -21.5918,-23.29687 0,0 -1.13531,-0.94733 -3.21875,-1.13672 z m 32.19726,8.33398 -2.8164,0.74805 c 6.01636,9.52422 13.90065,17.50806 23.29297,23.40235 0,0 0.7377,-1.23105 -1.53516,-3.50391 -2.27286,-2.27282 -11.93348,-7.95646 -18.94141,-20.64649 z"
       transform="scale(0.26458333)" />
    <path
       id="path1828"
       style="opacity:1;fill:#ffffff;fill-rule:evenodd;stroke:none;stroke-width:0.502394;stroke-miterlimit:5;stroke-dasharray:none;paint-order:markers stroke fill"
       d="m 315.98828,593.97852 a 3.8425385,3.8425385 0 0 0 -3.8418,3.84179 3.8425385,3.8425385 0 0 0 3.8418,3.84375 3.8425385,3.8425385 0 0 0 3.8418,-3.84375 3.8425385,3.8425385 0 0 0 -3.8418,-3.84179 z m -0.0352,1.04296 a 2.7989975,2.7989975 0 0 1 0.0352,0 2.7989975,2.7989975 0 0 1 2.79883,2.79883 2.7989975,2.7989975 0 0 1 -2.79883,2.79883 2.7989975,2.7989975 0 0 1 -1.21289,-0.27734 2.3637296,2.3637296 0 0 0 0.44336,0.043 2.3637296,2.3637296 0 0 0 2.36328,-2.36329 2.3637296,2.3637296 0 0 0 -2.36328,-2.36328 2.3637296,2.3637296 0 0 0 -1.51563,0.54883 2.7989975,2.7989975 0 0 1 2.25,-1.18555 z"
       transform="scale(0.26458333)" />
    <path
       id="path1830"
       style="color:#000000;font-style:normal;font-variant:normal;font-weight:normal;font-stretch:normal;font-size:medium;line-height:normal;font-family:sans-serif;font-variant-ligatures:normal;font-variant-position:normal;font-variant-caps:normal;font-variant-numeric:normal;font-variant-alternates:normal;font-variant-east-asian:normal;font-feature-settings:normal;font-variation-settings:normal;text-indent:0;text-align:start;text-decoration:none;text-decoration-line:none;text-decoration-style:solid;text-decoration-color:#000000;letter-spacing:normal;word-spacing:normal;text-transform:none;writing-mode:lr-tb;direction:ltr;text-orientation:mixed;dominant-baseline:auto;baseline-shift:baseline;text-anchor:start;white-space:normal;shape-padding:0;shape-margin:0;inline-size:0;clip-rule:nonzero;display:inline;overflow:visible;visibility:visible;opacity:1;isolation:auto;mix-blend-mode:normal;color-interpolation:sRGB;color-interpolation-filters:linearRGB;solid-color:#000000;solid-opacity:1;vector-effect:none;fill:#333333;fill-opacity:1;fill-rule:nonzero;stroke:none;stroke-width:0.132925;stroke-linecap:butt;stroke-linejoin:miter;stroke-miterlimit:5;stroke-dasharray:none;stroke-dashoffset:0;stroke-opacity:1;color-rendering:auto;image-rendering:auto;shape-rendering:auto;text-rendering:auto;enable-background:accumulate;stop-color:#000000"
       d="m 87.998047,154.55273 c 1.695596,-1.0211 4.919621,-2.50594 8.788784,-2.80357 3.836909,-0.29514 9.775549,0.96138 13.519809,2.98131 3.77595,2.03702 6.80454,4.87216 10.90039,5.3808 -3.82201,-0.99472 -6.8072,-3.7734 -10.64844,-5.84565 -3.87291,-2.08933 -9.79662,-3.2437 -13.77734,-2.9375 -3.948476,0.30374 -6.932276,1.65491 -8.762835,2.8499 -0.838679,0.54749 -1.837368,1.21483 -2.699777,1.23075 0.612672,0.33661 1.767369,-0.3068 2.679409,-0.85604 z m 0.250558,12.12752 c 0.37511,-0.86322 0.851283,-2.00708 0.851283,-2.98996 0,-0.96083 -0.487549,-2.668 -0.79241,-3.58259 -0.304862,-0.91458 -0.709822,-1.28348 -0.709822,-1.28348 0,0 0.05312,0.77262 0.34961,1.66211 0.296494,0.88948 0.58789,2.00637 0.58789,2.84961 0,0.82119 -0.453034,2.20651 -0.841797,3.06445 -0.388763,0.85794 -0.630338,1.67069 -1.202009,2.39454 0.841305,-0.12283 1.382144,-1.25146 1.757255,-2.11468 z m -1.773996,-1.31111 c 0.599475,-0.8813 0.830363,-1.63293 0.518694,-2.59124 -0.299353,-0.92045 -0.57296,-2.13312 -0.999163,-2.49958 -0.07541,0.53557 0.275785,1.67793 0.402903,2.5738 0.127117,0.89588 -0.05535,1.49619 -0.383371,2.25726 -0.774689,1.79744 -1.333073,2.5284 -1.419922,3.57059 0,0 0.863554,-1.81527 1.880859,-3.31083 z m 36.988281,-1.14062 c -0.24278,1.01136 -1.02005,1.96832 -1.91908,2.7666 1.17712,-0.45261 2.22564,-1.56784 2.50792,-2.74379 0.28228,-1.17595 -0.3384,-2.65456 -1.69333,-3.67028 -0.0302,0.21468 0.004,0.37124 0.38557,0.7525 0.38117,0.38127 0.93524,1.99382 0.71892,2.89497 z m -41.482421,-1.09766 c 0.213446,-0.54886 -0.09809,-0.97248 -0.338728,-1.27874 -0.240636,-0.30626 -0.558733,-0.32087 -0.558733,-0.32087 0,0 0.07623,0.35625 0.249023,0.57617 0.172798,0.21993 0.293595,0.47886 0.15625,0.83203 -0.372386,0.95758 -0.104492,1.89844 -0.104492,1.89844 0,0 0.267484,-0.86052 0.59668,-1.70703 z m 15.955695,0.16594 c 3.825066,-0.32857 7.319796,-0.51639 12.079896,-0.43894 4.7601,0.0774 9.49634,1.02176 11.93151,0.45169 -3.22762,0.0171 -7.40764,-0.85313 -12.16632,-0.95996 -4.75868,-0.10683 -8.11012,0.16977 -11.913446,0.42182 -3.803323,0.25205 -7.649752,0.99838 -7.649752,0.99838 0,0 3.89305,-0.14442 7.718112,-0.47299 z m -5.926398,1.14361 c 1.19426,0.87071 2.550261,2.04489 3.27383,3.21179 0.723569,1.1669 1.098188,2.22021 1.180132,2.53026 -2.080013,-0.44231 -3.123317,-1.77457 -3.992187,-3.04465 -0.940338,-1.37454 -1.389789,-2.10714 -1.475307,-2.82101 -0.323947,0.16198 -0.02647,1.61263 0.874581,3.15555 0.900615,1.54218 2.423786,3.20315 5.381975,3.06698 -0.212777,-1.33201 -1.697859,-5.46162 -5.243024,-6.09892 z m 16.518494,-24.80862 c -0.17162,0.1322 -0.33695,0.26468 -0.5023,0.39739 0.79392,1.30705 2.37945,3.71551 4.57802,6.1004 2.95667,3.20724 5.61257,5.21157 5.61257,5.21157 -1.2027,1.1526 -3.00653,3.9088 -3.00653,3.9088 -5.31198,-4.10927 -11.32557,-5.16147 -13.93145,-5.26169 -2.605879,-0.10023 -3.773118,0.3889 -3.773118,0.3889 3.157118,-0.45102 7.846068,-0.008 12.793238,2.41765 4.94718,2.42602 5.67071,3.67448 7.4166,4.96093 1.7459,1.28644 3.1409,1.31982 3.1409,1.31982 -2.05463,-0.45101 -5.06171,-3.40755 -5.06171,-3.40755 0.55124,-1.35305 3.30729,-4.41006 3.30729,-4.41006 -4.57718,-3.42074 -7.85598,-7.54126 -10.57351,-11.62616 z m 28.56415,10.22314 c -0.23349,0.0252 -0.46731,0.0592 -0.70125,0.10181 -0.51786,1.03082 -1.6168,3.16312 -3.02359,5.54384 -1.9544,3.30746 -3.60805,7.86774 -3.60805,7.86774 1.60362,3.8086 5.71251,10.82436 6.46421,11.62616 0.75168,0.80181 1.11931,1.01906 1.11931,1.01906 -2.38875,-4.10926 -4.89608,-8.30911 -6.76496,-12.67829 1.52791,-4.83428 3.70872,-7.86594 6.51433,-13.48032 z m -61.422612,11.467 c -0.06968,0.15815 -0.09922,0.25942 -0.09922,0.25942 0.267269,1.00228 1.242166,1.25258 2.695443,1.05213 1.128022,-0.15558 1.754148,0.211 1.791623,0.59377 0.69796,-0.31591 0.568706,-0.99103 -0.162782,-1.18185 -0.815012,-0.21264 -1.949307,0.14197 -2.870626,0.0357 -0.662763,-0.0765 -1.137568,-0.51638 -1.354439,-0.75913 z m 0.309025,2.41174 c -0.0199,1.72158 1.343819,2.72677 2.631882,3.25975 1.453277,0.60136 1.653469,0.75171 2.956409,2.00453 1.302938,1.25282 3.007051,1.20251 3.007051,1.20251 0.0019,-0.34938 -0.03721,-0.42995 -0.03721,-0.42995 -0.99219,0.17717 -1.94931,-0.24797 -2.870626,-1.31103 -0.921319,-1.06306 -2.444813,-1.80765 -3.188954,-2.05569 -0.744141,-0.24805 -1.098717,-0.77942 -1.523937,-1.62987 -0.229391,-0.45877 -0.641014,-0.80996 -0.974619,-1.04025 z m 44.874777,4.40955 c -0.91552,0.0331 -2.05571,0.41867 -2.77244,0.7612 -1.14676,0.54803 -3.34531,2.28861 -5.79448,3.95221 -2.09433,1.42258 -6.46752,3.18002 -10.32753,3.52847 -1.16937,-1.59458 -2.764023,-2.51628 -3.649906,-2.87063 -0.885881,-0.35436 -1.52394,-0.70848 -1.52394,-0.70848 0,0 0.03558,0.63806 0.850596,1.02784 0.815009,0.38979 2.65831,1.65047 3.64991,3.29541 1.00397,1.66546 1.2311,2.55112 1.38182,3.437 0.15601,0.91697 0.46509,1.44435 0.46509,1.44435 0.70958,-1.8772 0.0157,-3.52079 -0.85524,-5.13457 0.40462,-0.055 0.8093,-0.12088 1.21233,-0.19688 3.54109,-0.66737 6.95316,-2.09917 9.04751,-3.52175 2.09757,-1.42478 3.79219,-2.76771 5.34386,-3.65353 0,0 1.79538,1.60131 2.64583,2.48719 0,0 -2.29366,1.91786 -5.25033,4.47363 -2.95667,2.55576 -4.4964,4.62731 -5.62394,6.40633 0.19625,0.12316 0.39465,0.24296 0.59583,0.35915 1.44445,-2.27447 3.20877,-4.37459 5.13922,-6.20272 1.93045,-1.82816 4.02692,-3.38467 6.33656,-4.97283 -1.10249,-1.05237 -3.07371,-2.95589 -3.07371,-2.95589 0.90179,-0.42402 1.76392,-0.72301 3.468,-0.5488 -0.2471,-0.31929 -0.71572,-0.42654 -1.26504,-0.4067 z m -31.166053,6.27042 c 2.142617,1.16738 4.604282,1.98387 7.3148,2.45205 l -0.322979,-0.58705 c 0,0 -2.622357,-0.24805 -5.315437,-1.48828 0,0 -0.802317,-0.25713 -1.676384,-0.37672 z" />
    <path
       style="color:#000000;font-style:normal;font-variant:normal;font-weight:normal;font-stretch:normal;font-size:medium;line-height:normal;font-family:sans-serif;font-variant-ligatures:normal;font-variant-position:normal;font-variant-caps:normal;font-variant-numeric:normal;font-variant-alternates:normal;font-variant-east-asian:normal;font-feature-settings:normal;font-variation-settings:normal;text-indent:0;text-align:start;text-decoration:none;text-decoration-line:none;text-decoration-style:solid;text-decoration-color:#000000;letter-spacing:normal;word-spacing:normal;text-transform:none;writing-mode:lr-tb;direction:ltr;text-orientation:mixed;dominant-baseline:auto;baseline-shift:baseline;text-anchor:start;white-space:normal;shape-padding:0;shape-margin:0;inline-size:0;clip-rule:nonzero;display:inline;overflow:visible;visibility:visible;opacity:1;isolation:auto;mix-blend-mode:normal;color-interpolation:sRGB;color-interpolation-filters:linearRGB;solid-color:#000000;solid-opacity:1;vector-effect:none;fill:#333333;fill-opacity:1;fill-rule:nonzero;stroke:none;stroke-width:0.0664623;stroke-linecap:butt;stroke-linejoin:miter;stroke-miterlimit:5;stroke-dasharray:none;stroke-dashoffset:0;stroke-opacity:1;color-rendering:auto;image-rendering:auto;shape-rendering:auto;text-rendering:auto;enable-background:accumulate;stop-color:#000000;stop-opacity:1"
       d="m 108.1861,141.45815 -0.37946,-0.67774 c -2.93945,2.11435 -4.15625,5.93345 -4.15625,5.93345 0,0 1.76229,-3.26078 4.53571,-5.25571 z m 0.85554,1.2423 -0.50972,-0.6913 c -2.54322,2.33976 -3.97919,5.50745 -3.97919,5.50745 0,0 2.02083,-2.54552 4.48891,-4.81615 z m 1.29949,1.70508 -0.55397,-0.74532 c -1.98701,1.78322 -3.33111,4.50678 -3.33111,4.50678 0,0 1.96327,-2.03676 3.88508,-3.76146 z m 1.29554,1.51043 -0.63857,-0.75899 c -1.81103,1.50056 -2.83795,4.26295 -2.83795,4.26295 0,0 1.77962,-2.09796 3.47652,-3.50396 z m 1.16668,1.44074 -0.6158,-0.68349 c -1.14635,1.09425 -2.3731,3.59925 -2.3731,3.59925 0,0 1.93028,-1.90525 2.9889,-2.91576 z m 1.28582,1.36786 -0.48237,-0.66268 c -0.98776,0.90859 -1.55918,1.95434 -2.03844,3.21253 0.89659,-0.83361 1.56467,-1.75764 2.52081,-2.54985 z m 1.23762,1.11914 -0.50062,-0.49604 c -0.97288,1.12649 -1.7041,2.77832 -1.7041,2.77832 0,0 1.27332,-1.20381 2.20472,-2.28228 z m 1.53649,1.22075 -0.6158,-0.53315 c -1.09733,1.04508 -1.77287,3.14839 -1.77287,3.14839 0,0 1.38126,-1.65579 2.38867,-2.61524 z m 17.38282,1.5625 1.13309,-1.60826 c -3.49516,0.9766 -6.67216,4.4149 -6.67216,4.4149 0,0 2.21887,-1.87893 5.53907,-2.80664 z m -42.303717,6.54785 c 1.578259,-2.26289 3.292787,-4.97541 5.52832,-6.59082 -2.708281,1.51654 -4.392969,3.75406 -5.52832,6.59082 z m 2.725997,0.19171 c 0.06319,0.0316 2.525135,-3.70295 5.42439,-6.62751 -3.769388,2.38733 -5.42439,6.62751 -5.42439,6.62751 z m 3.511307,0.0915 c 0.06429,0.09 2.536363,-3.12732 5.172843,-6.23535 -3.634331,2.03182 -5.172843,6.23535 -5.172843,6.23535 z m -7.938476,-1.41699 c 0,0 1.459358,-2.96033 3.473632,-4.46386 -2.521439,1.18955 -3.473632,4.46386 -3.473632,4.46386 z m 11.198239,1.27637 c 0,0.13501 2.43849,-2.69967 4.53613,-5.31543 -2.57979,1.47576 -4.53613,5.31543 -4.53613,5.31543 z m 3.04688,0.21191 c 1.54305,-1.30347 2.60722,-3.26819 4.39453,-4.46484 -2.01685,0.99455 -3.25141,2.51773 -4.39453,4.46484 z m 27.56054,-3.4453 0.83204,-1.38979 c -2.96923,1.20371 -5.52442,3.49623 -5.52442,3.49623 0,0 1.94264,-1.22259 4.69238,-2.10644 z m -24.79589,3.65819 c 1.26421,-1.0213 2.24519,-2.46155 3.61425,-3.47265 -1.66089,0.72607 -2.7197,1.90097 -3.61425,3.47265 z m 2.55078,0.14161 c 1.0513,-0.77038 2.07082,-2.03832 3.22447,-2.72838 -1.46323,0.35856 -2.50964,1.41973 -3.22447,2.72838 z m 2.69335,0.35449 c 0.82609,-0.48012 1.41431,-1.06401 2.12598,-1.98437 -0.99102,0.45643 -1.62342,1.10642 -2.12598,1.98437 z m 17.66505,-0.8178 0.68973,-1.15932 c -2.56491,0.73138 -4.39774,2.23395 -4.39774,2.23395 0,0 1.42056,-0.68527 3.70801,-1.07463 z m -0.78962,2.60268 0.21707,-0.91518 c -1.61439,0.20179 -3.78781,0.99065 -3.78781,0.99065 0,0 1.97789,0.12363 3.57074,-0.0755 z m -0.44476,1.69364 0.0692,-0.60017 c -1.68549,0.11781 -3.79576,0.73688 -3.79576,0.73688 0,0 2.07077,-0.021 3.72656,-0.13671 z m 1.39063,3.43777 -0.48299,-1.1967 c -2.11,-0.34349 -4.53459,-0.70201 -4.53459,-0.70201 0,0 2.81786,1.54062 5.01758,1.89871 z m 1.4322,2.34878 -0.57144,-0.8778 c -1.59334,-0.31233 -2.57907,-0.60227 -4.17424,-0.96344 1.36476,0.77092 3.13858,1.61889 4.74568,1.84124 z m 2.10574,2.95786 -0.71372,-1.11411 c -2.21007,-0.58935 -5.16825,-1.65807 -5.16825,-1.65807 0,0 3.58185,2.15883 5.88197,2.77218 z m -15.59738,0.35966 0.54967,-0.35993 c -0.79131,-1.21335 -1.97656,-1.5088 -1.97656,-1.5088 0,0 0.71481,0.77687 1.42689,1.86873 z m 17.21847,2.11468 -0.7154,-1.05301 c -2.15953,-0.58265 -3.42612,-1.17985 -5.45145,-2.11203 1.7186,1.25687 4.03068,2.73105 6.16685,3.16504 z m -18.54296,-1.07115 0.5558,-0.47182 c -0.64615,-0.80769 -1.91114,-1.33789 -1.91114,-1.33789 0,0 0.79877,1.114 1.35534,1.80971 z m -1.2913,1.29882 0.70341,-0.60379 c -0.68492,-0.89566 -2.27037,-1.70299 -2.27037,-1.70299 0,0 0.94894,1.49861 1.56696,2.30678 z m -1.31612,1.18499 0.66602,-0.50335 c -0.74057,-0.94946 -2.2196,-1.6847 -2.2196,-1.6847 0,0 0.86911,1.31051 1.55358,2.18805 z m -1.35715,1.16407 0.53823,-0.49331 c -0.81999,-0.92249 -2.08818,-1.55608 -2.08818,-1.55608 0,0 0.76632,1.1678 1.54995,2.04939 z m -1.5452,1.88309 0.65626,-0.61943 c -0.9745,-1.17964 -2.7655,-2.16071 -2.7655,-2.16071 0,0 1.17943,1.65459 2.10924,2.78014 z m -1.40234,1.65235 0.62081,-0.65291 c -1.18014,-1.4367 -3.28181,-2.57646 -3.28181,-2.57646 0,0 1.53594,1.85973 2.661,3.22937 z"
       id="path1832" />
    <path
       style="color:#000000;font-style:normal;font-variant:normal;font-weight:normal;font-stretch:normal;font-size:medium;line-height:normal;font-family:sans-serif;font-variant-ligatures:normal;font-variant-position:normal;font-variant-caps:normal;font-variant-numeric:normal;font-variant-alternates:normal;font-variant-east-asian:normal;font-feature-settings:normal;font-variation-settings:normal;text-indent:0;text-align:start;text-decoration:none;text-decoration-line:none;text-decoration-style:solid;text-decoration-color:#000000;letter-spacing:normal;word-spacing:normal;text-transform:none;writing-mode:lr-tb;direction:ltr;text-orientation:mixed;dominant-baseline:auto;baseline-shift:baseline;text-anchor:start;white-space:normal;shape-padding:0;shape-margin:0;inline-size:0;clip-rule:nonzero;display:inline;overflow:visible;visibility:visible;opacity:1;isolation:auto;mix-blend-mode:normal;color-interpolation:sRGB;color-interpolation-filters:linearRGB;solid-color:#000000;solid-opacity:1;vector-effect:none;fill:#333333;fill-opacity:1;fill-rule:nonzero;stroke:none;stroke-width:0.0664623;stroke-linecap:butt;stroke-linejoin:miter;stroke-miterlimit:5;stroke-dasharray:none;stroke-dashoffset:0;stroke-opacity:1;color-rendering:auto;image-rendering:auto;shape-rendering:auto;text-rendering:auto;enable-background:accumulate;stop-color:#000000;stop-opacity:1"
       d="m 106.87402,159.96093 c -2.93458,-5.32089 -8.268551,-6.71484 -8.268551,-6.71484 0,0 4.576071,2.27231 8.268551,6.71484 z m -4.81055,-0.75195 c -3.240283,-4.88861 -8.348627,-5.63183 -8.348627,-5.63183 0,0 3.964622,1.71774 8.348627,5.63183 z m 8.16797,0.65137 c -1.95781,-4.00368 -6.51464,-6.31445 -6.51464,-6.31445 0,0 3.70816,3.06641 6.51464,6.31445 z M 98.179687,159.458 c -2.09961,-3.04584 -7.144531,-4.75487 -7.241211,-4.50879 0,0 4.692262,2.16237 7.241211,4.50879 z m 15.810543,1.3545 c -1.5409,-3.6397 -5.21191,-5.36231 -5.21191,-5.36231 0,0 2.80249,2.45189 5.21191,5.36231 z m -20.195308,-1.7041 c -1.285533,-1.60709 -4.109375,-2.55567 -4.109375,-2.55567 0,0 2.588578,1.45665 4.109375,2.55567 z"
       id="path1834" />
  </g>
  <path
     style="font-variation-settings:normal;vector-effect:none;fill:#ea0606;fill-opacity:1;stroke:none;stroke-width:0.132292;stroke-linecap:butt;stroke-linejoin:miter;stroke-miterlimit:5;stroke-dasharray:none;stroke-dashoffset:0;stroke-opacity:1;stop-color:#000000"
     d="m 121.96623,17.36996 -15.65977,0.263161 c -0.3527,-0.740596 -0.0706,-1.692792 -0.0706,-1.692792 l 21.01884,-0.564264 c 0.17632,0.987462 0,2.010192 0,2.010192 h -2.4334 c -1.17699,10.335054 -1.27853,15.073135 -1.23432,16.963194 0.0446,1.906806 -0.0478,2.249907 1.23432,2.362856 1.2696,0.111846 4.74875,0.07403 4.74875,0.07403 0,0 0.0332,1.820417 0.008,3.516146 H 122.482 c -1.83386,0 -2.36286,-0.533752 -2.36286,-2.57921 0,-2.045457 0.54004,-6.107245 0.54004,-6.107245 z"
     id="path1639" />
  <path
     style="font-variation-settings:normal;vector-effect:none;fill:#ffffff;fill-opacity:1;stroke:none;stroke-width:0.132292;stroke-linecap:butt;stroke-linejoin:miter;stroke-miterlimit:5;stroke-dasharray:none;stroke-dashoffset:0;stroke-opacity:1;stop-color:#000000"
     d="M 22.740458,40.74493 C 17.646307,39.716367 13.458178,37.577846 11.155311,35.530851 7.938192,32.671188 5.364496,28.810647 4.506597,22.519392 3.648699,16.228135 4.837771,12.38373 5.765245,9.2390603 c 0,0 3.790454,0.8977377 6.832791,1.2468597 l -0.648199,0.648536 -2.22796,2.003214 0.106975,2.861524 c 6.463608,4.482255 9.399405,6.147697 15.325724,7.564374 1.74215,-1.367453 3.492323,-2.75358 3.586237,-2.75358 l 2.992217,0.498359 -1.918866,3.226226 c 1.90518,0.354285 4.0316,0.664411 6.319759,0.93603 0.950241,-0.782207 2.057413,-1.79961 3.229825,-2.91507 h 3.042617 l -1.839664,3.374343 c 2.495139,0.22468 5.124187,0.410999 7.844669,0.560078 1.593225,-1.478761 2.872383,-2.937187 2.872383,-2.937187 l 2.992733,0.149662 -1.531596,2.991703 c 2.190889,0.08738 4.414662,0.155564 6.655599,0.201092 1.762868,-1.46858 3.454058,-3.292571 3.454058,-3.292571 1.09724,-0.04987 2.69341,0 2.69341,0 l -2.02018,3.351202 c 1.24048,0.01166 2.48022,0.01958 3.71532,0.01954 1.63675,0 3.09745,0.0013 4.65342,0.0026 0.93115,-1.060937 2.57923,-2.974215 2.57923,-2.974215 1.24686,0 2.84255,-0.04989 2.84255,-0.04989 l -1.35673,3.026159 c 3.33292,-3.82e-4 6.5062,-0.01065 9.43696,-0.04834 1.28357,-1.366604 2.9917,-3.077591 2.9917,-3.077591 l 2.74329,-0.04989 -1.69,3.052905 c 2.31111,-0.05859 4.47936,-0.144918 6.50851,-0.270009 1.36185,-1.52203 3.01176,-3.480805 3.01176,-3.480805 l 2.793183,-0.349214 -1.48376,3.480805 c 8.1659,-0.854906 13.87349,-2.586225 15.21566,-3.081705 1.34216,-0.495479 1.34645,-1.236985 1.34645,-3.004561 h 4.4122 l 0.11823,-2.257361 0.60048,-0.522306 c 0,0 -0.0823,2.747419 -0.31373,5.544711 0,0 2.75979,0.04066 4.19158,0.03194 l -0.50546,0.705331 -4.11547,2.943593 -0.36416,4.152963 4.69119,0.121325 -0.52897,0.576017 -5.34878,0.05878 z"
     id="path1592" />
  <path
     style="font-variation-settings:normal;vector-effect:none;fill:#630303;fill-opacity:1;stroke:none;stroke-width:0.132292;stroke-linecap:butt;stroke-linejoin:miter;stroke-miterlimit:5;stroke-dasharray:none;stroke-dashoffset:0;stroke-opacity:1;stop-color:#000000"
     d="m 9.820264,16.546612 c 0.105625,-1.783173 0.383802,-2.719107 0.383802,-2.719107 l 2.244347,0.09975 0.149623,-3.441333 c 0,0 -0.490865,0.02729 -0.648366,0.648368 0,0 -2.69669,1.714344 -2.69669,1.784876 0,0.07053 0.02354,3.359604 0.02354,3.359604 z"
     id="path1572" />
  <path
     style="font-variation-settings:normal;vector-effect:none;fill:#630303;fill-opacity:1;stroke:none;stroke-width:0.132292;stroke-linecap:butt;stroke-linejoin:miter;stroke-miterlimit:5;stroke-dasharray:none;stroke-dashoffset:0;stroke-opacity:1;stop-color:#000000"
     d="m 14.384604,37.20671 c 2.854626,1.608141 4.434447,2.480006 8.355854,3.53822 2.022408,0.408346 4.187616,0.641752 6.434352,0.625022 0,0 69.028967,-0.571932 76.83214,-0.571932 7.80317,0 10.4524,-2.394046 12.80101,-6.380045 l 6.60116,0.04903 c 0,0 0.17633,-2.151257 0.14106,-3.597184 -0.0706,0 -0.4584,0.05877 -0.52897,0.576013 l -5.26364,0.464509 c 0.6848,-1.731093 1.15033,-3.471845 1.46558,-5.31481 h 4.47986 c 0,0 0.1058,-1.462398 0.14107,-3.648923 0,0 -0.50546,0.141065 -0.50546,0.70533 l -5.8764,1.862795 z"
     id="path1633" />
  <path
     id="path1601"
     style="font-variation-settings:normal;vector-effect:none;fill:#630303;fill-opacity:1;stroke:none;stroke-width:0.132292;stroke-linecap:butt;stroke-linejoin:miter;stroke-miterlimit:5;stroke-dasharray:none;stroke-dashoffset:0;stroke-opacity:1;stop-color:#000000"
     d="m 100.7905,23.360904 0.96647,-0.605764 c -0.54863,1.196986 -1.48377,3.480804 -1.48377,3.480804 l -0.478123,1.090894 -1.04267,-0.273151 z m -11.346983,3.494264 c 0.22591,-0.423293 1.15817,-2.166506 1.69,-3.052905 l -0.93963,0.447958 -1.83452,3.247824 0.51322,0.377411 z m -12.12522,-2.903242 c -0.51884,1.12415 -1.16795,2.597189 -1.35673,3.026158 l -0.40544,0.997119 -0.66688,-0.432928 1.47554,-3.063703 z m -13.79052,3.00193 c 0.14779,-0.246226 0.96427,-1.606662 2.02018,-3.351202 l -0.95352,0.451101 -2.18887,3.43812 0.53234,0.483328 z M 52.74489,26.694132 c 0.282544,-0.522122 1.070978,-1.986716 1.531597,-2.991703 l -0.78997,0.421273 -1.961553,3.044675 0.390708,0.557456 z M 42.406365,22.555533 c -0.521433,1.042865 -1.548299,2.859857 -1.839663,3.374343 l -0.52113,0.798467 -0.721424,-0.424509 2.1287,-3.240624 z m -12.592201,1.97904 c 0.393007,-0.650329 1.312814,-2.175737 1.918866,-3.226226 l -1.017292,0.373442 -1.977497,3.140336 0.484588,0.609485 z" />
  <path
     id="path1525"
     style="font-variation-settings:normal;vector-effect:none;fill:#ea0606;fill-opacity:1;stroke:none;stroke-width:0.132292;stroke-linecap:butt;stroke-linejoin:miter;stroke-miterlimit:5;stroke-dasharray:none;stroke-dashoffset:0;stroke-opacity:1;stop-color:#000000"
     d="m 6.253929,10.103793 c -0.725988,2.284806 -1.809171,6.247977 -0.962776,12.454884 0.846397,6.206906 3.385953,10.015691 6.559939,12.83701 3.173985,2.821322 9.555496,5.462415 16.316272,5.413042 l 77.263276,-0.564191 c 5.23666,-0.03824 9.51902,-1.336913 11.37176,-4.389065 1.90732,-3.142086 3.08245,-6.498697 3.64075,-9.762503 0.5583,-3.263807 0.66345,-5.344127 0.66345,-5.344127 h -3.74515 c 0,1.784958 -0.004,2.519638 -1.35982,3.019989 -1.35537,0.500353 -7.11912,2.248738 -15.36533,3.112049 -0.6107,0.06394 -1.242033,0.12021 -1.883893,0.172806 0.38633,-0.655996 1.374663,-2.346042 2.038183,-3.692696 l -1.436443,0.137318 c 0,0 -1.78204,2.352617 -2.92536,3.717899 -2.48146,0.148698 -5.16713,0.235334 -8.06942,0.281837 0.26303,-0.473487 1.43924,-2.58901 1.83452,-3.247824 l -1.57017,0.03651 c 0,0 -1.96252,2.041166 -3.0961,3.243711 -3.27135,0.02686 -6.87184,0.02228 -10.63837,0.01182 0.25206,-0.516456 1.14356,-2.344443 1.47554,-3.063703 0,0 -0.7655,0.03189 -1.55834,0.03189 0,0 -1.49811,1.688847 -2.5206,3.026161 -1.66761,-0.0043 -3.24408,-0.01035 -5.00417,-0.0103 -1.62026,4.7e-5 -3.24876,-0.01211 -4.87611,-0.03446 0.2006,-0.306845 1.47718,-2.262279 2.18887,-3.43812 0,0 -0.67042,-0.08331 -1.40559,-0.04989 0,0 -2.204344,2.285669 -3.525034,3.43966 -2.745051,-0.0593 -5.472569,-0.150115 -8.138849,-0.275152 0.556726,-0.791039 1.661006,-2.388942 1.961553,-3.044675 l -1.766634,-0.111091 c 0,0 -1.702975,1.824991 -2.954671,3.01176 -3.297429,-0.186751 -6.474375,-0.425975 -9.441064,-0.720537 0.42776,-0.60944 1.781582,-2.546389 2.1287,-3.240625 l -1.804692,-0.04989 c -0.797777,0.75903 -1.560132,1.726034 -3.078104,2.991189 -2.663468,-0.310637 -5.125914,-0.668035 -7.294363,-1.077979 -0.187926,-0.03553 -0.355247,-0.06939 -0.537448,-0.104405 0.501765,-0.778426 1.606722,-2.497659 1.977497,-3.140336 l -1.847379,-0.307554 c 0,0 -2.176106,1.76503 -3.436574,2.764381 C 19.145613,22.719337 16.565034,21.223774 9.820108,16.546441 L 9.27649,16.278489 c 0.134348,-1.982074 0.445388,-3.140849 0.445388,-3.140849 0.648368,0.04988 2.22796,0.09977 2.22796,0.09977 V 11.134423 C 9.156873,10.785304 6.253929,10.10376 6.253929,10.10376 Z" />
  <path
     style="font-variation-settings:normal;vector-effect:none;fill:#630303;fill-opacity:1;stroke:none;stroke-width:0.132292;stroke-linecap:butt;stroke-linejoin:miter;stroke-miterlimit:5;stroke-dasharray:none;stroke-dashoffset:0;stroke-opacity:1;stop-color:#000000"
     d="m 118.69672,20.74889 c -0.0706,4.161448 -0.76565,7.917945 -2.57445,11.590365 -1.80881,3.67242 -5.43104,5.57211 -11.14423,5.713177 C 99.264867,38.193497 36.631548,37.7703 31.271039,37.7703 c -5.360512,0 -9.945157,-0.775864 -14.106606,-3.526653 C 13.002986,31.492859 10.181664,27.260877 9.476334,21.970902 9.174417,19.70652 9.175974,17.762169 9.276521,16.278768 l 0.173386,-0.144607 0.370357,0.412451 c -0.07841,1.323743 -0.06172,3.114389 0.234441,5.335649 0.695126,5.213452 3.485173,9.859042 7.788486,12.236278 4.524448,2.499398 10.382901,3.087706 15.66587,3.087706 5.282966,0 65.246936,0.417075 70.877459,0.27805 5.63054,-0.139025 9.20038,-1.623304 10.98302,-5.2426 1.78264,-3.619296 2.68166,-7.391555 2.75116,-11.492805"
     id="path1548" />
  <path
     style="font-variation-settings:normal;vector-effect:none;fill:#630303;fill-opacity:1;stroke:none;stroke-width:0.132292;stroke-linecap:butt;stroke-linejoin:miter;stroke-miterlimit:5;stroke-dasharray:none;stroke-dashoffset:0;stroke-opacity:1;stop-color:#000000"
     d="m 11.142553,26.341097 c 9.461761,6.590314 22.694391,6.972633 28.079683,7.249155 5.385292,0.276521 49.729661,0.346542 55.360191,0.207517 5.630543,-0.139026 16.324223,-0.07158 22.268303,-4.889935 l -0.30526,1.01449 c -5.24819,3.981926 -15.65834,4.302514 -21.371523,4.443581 -5.71317,0.141065 -48.949906,-0.07053 -54.522016,-0.141066 -5.572109,-0.07053 -18.832317,-0.2116 -29.13014,-6.912237 z"
     id="path1558" />
  <path
     style="font-variation-settings:normal;vector-effect:none;fill:#630303;fill-opacity:1;stroke:none;stroke-width:0.132292;stroke-linecap:butt;stroke-linejoin:miter;stroke-miterlimit:5;stroke-dasharray:none;stroke-dashoffset:0;stroke-opacity:1;stop-color:#000000"
     d="m 9.74607,20.432195 c 10.060254,8.186295 25.487356,9.266856 31.371392,9.543377 5.884037,0.276521 45.041475,0.44629 50.671995,0.307265 5.63054,-0.139025 20.214423,-1.069065 26.158513,-5.288929 l -0.30526,1.014489 c -6.84418,4.081676 -19.548553,4.70151 -25.261733,4.842577 -5.71317,0.141065 -44.062212,0.128965 -49.83382,-0.240815 C 36.77555,30.24038 21.620116,30.398559 9.626565,21.104453 Z"
     id="path1560" />
  <path
     style="color:#000000;font-style:normal;font-variant:normal;font-weight:normal;font-stretch:normal;font-size:medium;line-height:normal;font-family:sans-serif;font-variant-ligatures:normal;font-variant-position:normal;font-variant-caps:normal;font-variant-numeric:normal;font-variant-alternates:normal;font-variant-east-asian:normal;font-feature-settings:normal;font-variation-settings:normal;text-indent:0;text-align:start;text-decoration:none;text-decoration-line:none;text-decoration-style:solid;text-decoration-color:#000000;letter-spacing:normal;word-spacing:normal;text-transform:none;writing-mode:lr-tb;direction:ltr;text-orientation:mixed;dominant-baseline:auto;baseline-shift:baseline;text-anchor:start;white-space:normal;shape-padding:0;shape-margin:0;inline-size:0;clip-rule:nonzero;display:inline;overflow:visible;visibility:visible;isolation:auto;mix-blend-mode:normal;color-interpolation:sRGB;color-interpolation-filters:linearRGB;solid-color:#000000;solid-opacity:1;vector-effect:none;fill:#630303;fill-opacity:1;fill-rule:nonzero;stroke:none;stroke-width:1;stroke-linecap:butt;stroke-linejoin:miter;stroke-miterlimit:5;stroke-dasharray:none;stroke-dashoffset:0;stroke-opacity:1;color-rendering:auto;image-rendering:auto;shape-rendering:auto;text-rendering:auto;enable-background:accumulate;stop-color:#000000"
     d="m 9.731345,17.461324 -0.322674,0.414035 c 3.211079,2.497505 6.657796,4.472105 9.310249,5.356257 C 16.632465,22.023668 12.7147,19.812239 9.731345,17.461324 Z M 9.53923,19.528177 c 3.02353,2.136601 5.881576,3.969057 9.371464,5.031326 C 15.235286,22.704628 12.518025,21.254372 9.5253,18.874484 Z m 0.555611,2.876291 -0.342113,0.402371 c 3.171505,2.332031 6.205635,3.824014 9.90378,5.08893 -3.142638,-1.79934 -6.653002,-3.063739 -9.561667,-5.491301 z m 108.101859,1.903003 -0.11691,-0.51789 c -2.55041,2.021075 -7.42902,3.254793 -7.42902,3.254793 0,0 4.80965,-0.568531 7.54593,-2.736903 z M 10.233685,23.78014 l 0.08303,0.860836 c 3.728791,2.71899 7.82985,4.666132 11.705018,5.532647 C 17.83807,28.493481 13.600057,26.563828 10.233689,23.78014 Z m 107.477065,3.260347 -0.10691,-0.602308 c -2.55755,2.316276 -7.15231,3.648278 -7.15231,3.648278 0,0 4.53009,-0.574307 7.25922,-3.04597 z m -0.39765,1.302362 -0.0932,-0.508172 c -2.88834,2.017277 -5.81248,2.951744 -8.11437,3.648418 1.63509,-0.301376 4.87844,-0.811236 8.20767,-3.140246 z M 11.919257,28.217056 12.19417,29.019021 c 4.027576,3.164524 10.710468,4.774308 10.777529,4.519667 0,0 -7.18032,-2.279252 -11.052442,-5.321632 z m 104.277243,3.27673 -0.0719,-0.560932 c -2.80329,1.738036 -5.7892,2.71977 -8.91439,3.69146 3.03535,-0.58135 6.41464,-1.234634 8.9863,-3.130528 z m -102.503087,-0.75337 0.464575,0.83501 c 5.568842,3.426981 11.917997,3.656332 11.917997,3.656332 0,0 -6.948264,-1.147154 -12.382572,-4.491342 z m 101.447597,2.804104 -0.0897,-0.504006 c -3.25327,1.584749 -6.38282,2.57965 -9.53903,3.220499 3.14146,-0.33291 7.28214,-1.194046 9.62873,-2.716493 z"
     id="path1562" />
  <path
     style="font-variation-settings:normal;vector-effect:none;fill:#ea0606;fill-opacity:1;stroke:none;stroke-width:0.132292;stroke-linecap:butt;stroke-linejoin:miter;stroke-miterlimit:5;stroke-dasharray:none;stroke-dashoffset:0;stroke-opacity:1;stop-color:#000000"
     d="m 120.44315,26.092971 h 4.8249 c 0,0 0.0706,-1.418303 0.0706,-2.441032 l -4.93735,-0.141066 z"
     id="path1635" />
  <path
     style="font-variation-settings:normal;vector-effect:none;fill:#ea0606;fill-opacity:1;stroke:none;stroke-width:0.132292;stroke-linecap:butt;stroke-linejoin:miter;stroke-miterlimit:5;stroke-dasharray:none;stroke-dashoffset:0;stroke-opacity:1;stop-color:#000000"
     d="m 117.62183,33.851603 7.32882,0.03526 c 0,0 0.0706,-1.418303 0.0706,-2.441032 l -6.31273,-0.211598 z"
     id="path1637" />
</svg>
