<?xml version="1.0" encoding="UTF-8" standalone="no"?>
<svg xmlns:dc="http://purl.org/dc/elements/1.1/" xmlns:cc="http://creativecommons.org/ns#" xmlns:rdf="http://www.w3.org/1999/02/22-rdf-syntax-ns#" xmlns:svg="http://www.w3.org/2000/svg" xmlns="http://www.w3.org/2000/svg" width="499.99997" height="569.99994" viewBox="0 0 132.29165 150.81249" version="1.1" id="svg847">
  <defs id="defs841"/>
  <metadata id="metadata844">
    <rdf:RDF>
      <cc:Work rdf:about="">
        <dc:format>image/svg+xml</dc:format>
        <dc:type rdf:resource="http://purl.org/dc/dcmitype/StillImage"/>
        <dc:title/>
      </cc:Work>
    </rdf:RDF>
  </metadata>
  <g id="layer1" transform="translate(-216.29014,-29.797292)">
    <path style="font-variation-settings:normal;opacity:1;vector-effect:none;fill:#e00606;fill-opacity:1;stroke:none;stroke-width:0.264582;stroke-linecap:butt;stroke-linejoin:miter;stroke-miterlimit:10;stroke-dasharray:none;stroke-dashoffset:0;stroke-opacity:1;stop-color:#000000;stop-opacity:1" d="M 216.29014,29.797292 V 130.85286 c 0,22.13937 12.13833,35.49414 31.28747,35.49414 19.14914,0 29.60277,0 33.57387,14.26278 h 2.56899 c 3.9711,-14.26278 14.42473,-14.26278 33.57387,-14.26278 19.14913,0 31.28746,-13.35477 31.28746,-35.49414 V 29.797292 Z" id="path2546"/>
    <g id="g2551" transform="matrix(1.2734816,0,0,1.2734816,-77.923829,-21.145347)" style="stroke-width:0.785249">
      <path id="path2548" style="font-variation-settings:normal;opacity:1;vector-effect:none;fill:#bf9f4f;fill-opacity:1;stroke:none;stroke-width:0.785248;stroke-linecap:butt;stroke-linejoin:miter;stroke-miterlimit:10;stroke-dasharray:none;stroke-dashoffset:0;stroke-opacity:1;stop-color:#000000;stop-opacity:1" d="m 1003.5195,111.47461 c 1.5233,-11.960762 2.7794,-19.640068 5.5489,-27.421876 3.3159,-9.317608 9.1331,-12.177732 14.4316,-14.320312 -3.3868,-4.957746 -8.0551,-6.991209 -14.2168,-6.585938 -6.1617,0.405272 -9.89117,6.049947 -7.4805,14.353516 -4.12419,-4.931097 -8.9377,-9.427466 -12.96872,-6.427734 -4.03098,2.999731 -6.79444,14.880581 -3.44921,19.898437 3.34526,5.017856 9.72242,1.528738 15.61523,-3.560547 -0.431,3.447969 -2.04908,9.732562 -7.1875,12.779294 -5.13842,3.04674 -11.1607,-1.528455 -11.5625,-9.832028 h -6.07227 c -0.66965,8.839294 -6.42603,12.076038 -11.56445,9.029297 -5.13842,-3.046738 -6.75457,-8.528594 -7.18555,-11.976563 5.89285,5.089285 11.73287,7.775669 15.07813,2.757813 3.34522,-5.017856 2.45624,-16.133118 -1.03906,-18.828125 -3.49531,-2.695011 -6.8565,-0.227375 -12.11719,4.396484 2.74662,-4.537092 5.45832,-8.38484 4.85937,-12.214844 -0.59894,-3.830003 -3.75167,-4.914062 -10.21875,-4.914062 -6.46703,0 -9.61785,1.084059 -10.21679,4.914062 -0.59894,3.830004 2.11275,7.677752 4.85937,12.214844 -5.26068,-4.623851 -8.62383,-7.091495 -12.11914,-4.396484 -3.49531,2.695007 -4.38428,13.810269 -1.03906,18.828125 3.34526,5.017856 9.18527,2.331472 15.07812,-2.757813 -0.43098,3.447969 -2.04712,8.929825 -7.18554,11.976563 -5.13842,3.046741 -10.8948,-0.190003 -11.56446,-9.029297 h -6.07031 c -0.4018,8.303573 -6.42603,12.878768 -11.56445,9.832028 -5.13842,-3.046732 -6.75457,-9.331325 -7.18555,-12.779294 5.89285,5.089285 12.26802,8.578403 15.61328,3.560547 3.34523,-5.017856 0.58176,-16.898706 -3.44922,-19.898437 -4.03101,-2.999732 -8.84449,1.496637 -12.96875,6.427734 2.41074,-8.303569 -1.31874,-13.948244 -7.48046,-14.353516 -6.16173,-0.405271 -10.82801,1.628192 -14.21485,6.585938 5.29852,2.14258 11.11571,5.002704 14.43164,14.320312 2.92934,8.231301 4.15993,16.236166 5.8125,29.464846 l 0.3711,2.89453 c -40.34871,4.88575 -69.54727,14.07746 -92.05078,25.17773 -28.53143,14.07365 -31.3243,28.94407 -31.08204,47.33789 34.05033,-18.51219 80.02904,-31.8381 131.14258,-35.6289 51.1135,-3.7908 107.36118,1.95451 161.94728,21.58398 5.866,-14.55946 13.1364,-19.71544 18.1172,-20.1875 4.9808,-0.47205 7.4858,1.37232 5.9043,11.49414 -1.5815,10.12183 -6.5957,37.86133 -6.5957,37.86133 l 19.3183,1.13672 3.4102,-9.84961 -10.6074,-1.13672 c 0,0 5.7564,-24.02176 8.9707,-36.8789 3.2143,-12.85714 3.75,-21.16155 -22.5,-29.19727 -16.9687,-5.19449 -50.4266,-11.0656 -87.9317,-13.75195 z m 62.7598,32.4082 h 3.9766 v 6.34571 h 6.3457 v 3.97851 h -6.3457 v 6.34375 h -3.9766 v -6.34375 h -6.3457 v -3.97851 h 6.3457 z" transform="matrix(0.26458333,0,0,0.26458333,30.56196,27.340449)"/>
      <path id="path2657" style="font-variation-settings:normal;opacity:1;vector-effect:none;fill:#9f7139;fill-opacity:1;stroke:none;stroke-width:0.785248;stroke-linecap:butt;stroke-linejoin:miter;stroke-miterlimit:10;stroke-dasharray:none;stroke-dashoffset:0;stroke-opacity:1;stop-color:#000000;stop-opacity:1" d="m 965.55078,109.9707 c -4.31298,-0.008 -8.8251,0.0482 -13.73633,0.17188 -19.15746,0.48254 -35.89333,2.04759 -47.08789,3.375 0.12605,1.00901 0.239,1.81944 0.3711,2.89453 10.80801,-1.30872 25.40778,-2.92358 46.71679,-3.4668 21.30902,-0.54323 38.06453,0.47785 51.32615,1.42774 0.1325,-1.0671 0.2514,-1.89702 0.3789,-2.89844 -14.3013,-0.91373 -25.30768,-1.48109 -37.96872,-1.50391 z m -5.34375,9.94922 c -4.02638,0.004 -8.12924,0.058 -12.30664,0.16602 -66.83841,1.72815 -105.29373,11.13627 -146.10351,34.46875 47.55325,-22.86791 82.0858,-29.49044 146.10351,-31.25391 64.01771,-1.76347 116.03711,10.98438 139.00581,18.01563 3.3703,-2.93901 7.2647,-5.36494 13.6348,-5.30469 -5.4431,-2.21161 -10.3979,-2.42416 -15.1504,1.52344 -21.5332,-6.5918 -64.7878,-17.67918 -125.18357,-17.61524 z" transform="matrix(0.26458333,0,0,0.26458333,30.56196,27.340449)"/>
    </g>
    <g id="use2553" transform="matrix(1.2734816,0,0,1.2734816,-77.923829,14.76273)" style="stroke-width:0.785249">
      <path id="path2701" style="font-variation-settings:normal;opacity:1;vector-effect:none;fill:#bf9f4f;fill-opacity:1;stroke:none;stroke-width:0.785248;stroke-linecap:butt;stroke-linejoin:miter;stroke-miterlimit:10;stroke-dasharray:none;stroke-dashoffset:0;stroke-opacity:1;stop-color:#000000;stop-opacity:1" d="m 1003.5195,111.47461 c 1.5233,-11.960762 2.7794,-19.640068 5.5489,-27.421876 3.3159,-9.317608 9.1331,-12.177732 14.4316,-14.320312 -3.3868,-4.957746 -8.0551,-6.991209 -14.2168,-6.585938 -6.1617,0.405272 -9.89117,6.049947 -7.4805,14.353516 -4.12419,-4.931097 -8.9377,-9.427466 -12.96872,-6.427734 -4.03098,2.999731 -6.79444,14.880581 -3.44921,19.898437 3.34526,5.017856 9.72242,1.528738 15.61523,-3.560547 -0.431,3.447969 -2.04908,9.732562 -7.1875,12.779294 -5.13842,3.04674 -11.1607,-1.528455 -11.5625,-9.832028 h -6.07227 c -0.66965,8.839294 -6.42603,12.076038 -11.56445,9.029297 -5.13842,-3.046738 -6.75457,-8.528594 -7.18555,-11.976563 5.89285,5.089285 11.73287,7.775669 15.07813,2.757813 3.34522,-5.017856 2.45624,-16.133118 -1.03906,-18.828125 -3.49531,-2.695011 -6.8565,-0.227375 -12.11719,4.396484 2.74662,-4.537092 5.45832,-8.38484 4.85937,-12.214844 -0.59894,-3.830003 -3.75167,-4.914062 -10.21875,-4.914062 -6.46703,0 -9.61785,1.084059 -10.21679,4.914062 -0.59894,3.830004 2.11275,7.677752 4.85937,12.214844 -5.26068,-4.623851 -8.62383,-7.091495 -12.11914,-4.396484 -3.49531,2.695007 -4.38428,13.810269 -1.03906,18.828125 3.34526,5.017856 9.18527,2.331472 15.07812,-2.757813 -0.43098,3.447969 -2.04712,8.929825 -7.18554,11.976563 -5.13842,3.046741 -10.8948,-0.190003 -11.56446,-9.029297 h -6.07031 c -0.4018,8.303573 -6.42603,12.878768 -11.56445,9.832028 -5.13842,-3.046732 -6.75457,-9.331325 -7.18555,-12.779294 5.89285,5.089285 12.26802,8.578403 15.61328,3.560547 3.34523,-5.017856 0.58176,-16.898706 -3.44922,-19.898437 -4.03101,-2.999732 -8.84449,1.496637 -12.96875,6.427734 2.41074,-8.303569 -1.31874,-13.948244 -7.48046,-14.353516 -6.16173,-0.405271 -10.82801,1.628192 -14.21485,6.585938 5.29852,2.14258 11.11571,5.002704 14.43164,14.320312 2.92934,8.231301 4.15993,16.236166 5.8125,29.464846 l 0.3711,2.89453 c -40.34871,4.88575 -69.54727,14.07746 -92.05078,25.17773 -28.53143,14.07365 -31.3243,28.94407 -31.08204,47.33789 34.05033,-18.51219 80.02904,-31.8381 131.14258,-35.6289 51.1135,-3.7908 107.36118,1.95451 161.94728,21.58398 5.866,-14.55946 13.1364,-19.71544 18.1172,-20.1875 4.9808,-0.47205 7.4858,1.37232 5.9043,11.49414 -1.5815,10.12183 -6.5957,37.86133 -6.5957,37.86133 l 19.3183,1.13672 3.4102,-9.84961 -10.6074,-1.13672 c 0,0 5.7564,-24.02176 8.9707,-36.8789 3.2143,-12.85714 3.75,-21.16155 -22.5,-29.19727 -16.9687,-5.19449 -50.4266,-11.0656 -87.9317,-13.75195 z m 62.7598,32.4082 h 3.9766 v 6.34571 h 6.3457 v 3.97851 h -6.3457 v 6.34375 h -3.9766 v -6.34375 h -6.3457 v -3.97851 h 6.3457 z" transform="matrix(0.26458333,0,0,0.26458333,30.56196,27.340449)"/>
      <path id="path2703" style="font-variation-settings:normal;opacity:1;vector-effect:none;fill:#9f7139;fill-opacity:1;stroke:none;stroke-width:0.785248;stroke-linecap:butt;stroke-linejoin:miter;stroke-miterlimit:10;stroke-dasharray:none;stroke-dashoffset:0;stroke-opacity:1;stop-color:#000000;stop-opacity:1" d="m 965.55078,109.9707 c -4.31298,-0.008 -8.8251,0.0482 -13.73633,0.17188 -19.15746,0.48254 -35.89333,2.04759 -47.08789,3.375 0.12605,1.00901 0.239,1.81944 0.3711,2.89453 10.80801,-1.30872 25.40778,-2.92358 46.71679,-3.4668 21.30902,-0.54323 38.06453,0.47785 51.32615,1.42774 0.1325,-1.0671 0.2514,-1.89702 0.3789,-2.89844 -14.3013,-0.91373 -25.30768,-1.48109 -37.96872,-1.50391 z m -5.34375,9.94922 c -4.02638,0.004 -8.12924,0.058 -12.30664,0.16602 -66.83841,1.72815 -105.29373,11.13627 -146.10351,34.46875 47.55325,-22.86791 82.0858,-29.49044 146.10351,-31.25391 64.01771,-1.76347 116.03711,10.98438 139.00581,18.01563 3.3703,-2.93901 7.2647,-5.36494 13.6348,-5.30469 -5.4431,-2.21161 -10.3979,-2.42416 -15.1504,1.52344 -21.5332,-6.5918 -64.7878,-17.67918 -125.18357,-17.61524 z" transform="matrix(0.26458333,0,0,0.26458333,30.56196,27.340449)"/>
    </g>
    <g id="use2555" transform="matrix(1.2734816,0,0,1.2734816,-77.923829,50.670801)" style="stroke-width:0.785249">
      <path id="path2695" style="font-variation-settings:normal;opacity:1;vector-effect:none;fill:#bf9f4f;fill-opacity:1;stroke:none;stroke-width:0.785248;stroke-linecap:butt;stroke-linejoin:miter;stroke-miterlimit:10;stroke-dasharray:none;stroke-dashoffset:0;stroke-opacity:1;stop-color:#000000;stop-opacity:1" d="m 1003.5195,111.47461 c 1.5233,-11.960762 2.7794,-19.640068 5.5489,-27.421876 3.3159,-9.317608 9.1331,-12.177732 14.4316,-14.320312 -3.3868,-4.957746 -8.0551,-6.991209 -14.2168,-6.585938 -6.1617,0.405272 -9.89117,6.049947 -7.4805,14.353516 -4.12419,-4.931097 -8.9377,-9.427466 -12.96872,-6.427734 -4.03098,2.999731 -6.79444,14.880581 -3.44921,19.898437 3.34526,5.017856 9.72242,1.528738 15.61523,-3.560547 -0.431,3.447969 -2.04908,9.732562 -7.1875,12.779294 -5.13842,3.04674 -11.1607,-1.528455 -11.5625,-9.832028 h -6.07227 c -0.66965,8.839294 -6.42603,12.076038 -11.56445,9.029297 -5.13842,-3.046738 -6.75457,-8.528594 -7.18555,-11.976563 5.89285,5.089285 11.73287,7.775669 15.07813,2.757813 3.34522,-5.017856 2.45624,-16.133118 -1.03906,-18.828125 -3.49531,-2.695011 -6.8565,-0.227375 -12.11719,4.396484 2.74662,-4.537092 5.45832,-8.38484 4.85937,-12.214844 -0.59894,-3.830003 -3.75167,-4.914062 -10.21875,-4.914062 -6.46703,0 -9.61785,1.084059 -10.21679,4.914062 -0.59894,3.830004 2.11275,7.677752 4.85937,12.214844 -5.26068,-4.623851 -8.62383,-7.091495 -12.11914,-4.396484 -3.49531,2.695007 -4.38428,13.810269 -1.03906,18.828125 3.34526,5.017856 9.18527,2.331472 15.07812,-2.757813 -0.43098,3.447969 -2.04712,8.929825 -7.18554,11.976563 -5.13842,3.046741 -10.8948,-0.190003 -11.56446,-9.029297 h -6.07031 c -0.4018,8.303573 -6.42603,12.878768 -11.56445,9.832028 -5.13842,-3.046732 -6.75457,-9.331325 -7.18555,-12.779294 5.89285,5.089285 12.26802,8.578403 15.61328,3.560547 3.34523,-5.017856 0.58176,-16.898706 -3.44922,-19.898437 -4.03101,-2.999732 -8.84449,1.496637 -12.96875,6.427734 2.41074,-8.303569 -1.31874,-13.948244 -7.48046,-14.353516 -6.16173,-0.405271 -10.82801,1.628192 -14.21485,6.585938 5.29852,2.14258 11.11571,5.002704 14.43164,14.320312 2.92934,8.231301 4.15993,16.236166 5.8125,29.464846 l 0.3711,2.89453 c -40.34871,4.88575 -69.54727,14.07746 -92.05078,25.17773 -28.53143,14.07365 -31.3243,28.94407 -31.08204,47.33789 34.05033,-18.51219 80.02904,-31.8381 131.14258,-35.6289 51.1135,-3.7908 107.36118,1.95451 161.94728,21.58398 5.866,-14.55946 13.1364,-19.71544 18.1172,-20.1875 4.9808,-0.47205 7.4858,1.37232 5.9043,11.49414 -1.5815,10.12183 -6.5957,37.86133 -6.5957,37.86133 l 19.3183,1.13672 3.4102,-9.84961 -10.6074,-1.13672 c 0,0 5.7564,-24.02176 8.9707,-36.8789 3.2143,-12.85714 3.75,-21.16155 -22.5,-29.19727 -16.9687,-5.19449 -50.4266,-11.0656 -87.9317,-13.75195 z m 62.7598,32.4082 h 3.9766 v 6.34571 h 6.3457 v 3.97851 h -6.3457 v 6.34375 h -3.9766 v -6.34375 h -6.3457 v -3.97851 h 6.3457 z" transform="matrix(0.26458333,0,0,0.26458333,30.56196,27.340449)"/>
      <path id="path2697" style="font-variation-settings:normal;opacity:1;vector-effect:none;fill:#9f7139;fill-opacity:1;stroke:none;stroke-width:0.785248;stroke-linecap:butt;stroke-linejoin:miter;stroke-miterlimit:10;stroke-dasharray:none;stroke-dashoffset:0;stroke-opacity:1;stop-color:#000000;stop-opacity:1" d="m 965.55078,109.9707 c -4.31298,-0.008 -8.8251,0.0482 -13.73633,0.17188 -19.15746,0.48254 -35.89333,2.04759 -47.08789,3.375 0.12605,1.00901 0.239,1.81944 0.3711,2.89453 10.80801,-1.30872 25.40778,-2.92358 46.71679,-3.4668 21.30902,-0.54323 38.06453,0.47785 51.32615,1.42774 0.1325,-1.0671 0.2514,-1.89702 0.3789,-2.89844 -14.3013,-0.91373 -25.30768,-1.48109 -37.96872,-1.50391 z m -5.34375,9.94922 c -4.02638,0.004 -8.12924,0.058 -12.30664,0.16602 -66.83841,1.72815 -105.29373,11.13627 -146.10351,34.46875 47.55325,-22.86791 82.0858,-29.49044 146.10351,-31.25391 64.01771,-1.76347 116.03711,10.98438 139.00581,18.01563 3.3703,-2.93901 7.2647,-5.36494 13.6348,-5.30469 -5.4431,-2.21161 -10.3979,-2.42416 -15.1504,1.52344 -21.5332,-6.5918 -64.7878,-17.67918 -125.18357,-17.61524 z" transform="matrix(0.26458333,0,0,0.26458333,30.56196,27.340449)"/>
    </g>
  </g>
</svg>