<?xml version="1.0" encoding="UTF-8" standalone="no"?>
<svg
   xmlns:dc="http://purl.org/dc/elements/1.1/"
   xmlns:cc="http://creativecommons.org/ns#"
   xmlns:rdf="http://www.w3.org/1999/02/22-rdf-syntax-ns#"
   xmlns:svg="http://www.w3.org/2000/svg"
   xmlns="http://www.w3.org/2000/svg"
   xmlns:sodipodi="http://sodipodi.sourceforge.net/DTD/sodipodi-0.dtd"
   xmlns:inkscape="http://www.inkscape.org/namespaces/inkscape"
   width="499.99997"
   height="580.00012"
   viewBox="0 0 132.29166 153.45837"
   version="1.1"
   id="svg847"
   sodipodi:docname="svg.svg"
   inkscape:version="1.0.2 (e86c870879, 2021-01-15, custom)">
  <defs
     id="defs841" />
  <sodipodi:namedview
     id="base"
     pagecolor="#ffffff"
     bordercolor="#666666"
     borderopacity="1.0"
     inkscape:pageopacity="0.0"
     inkscape:pageshadow="2"
     inkscape:zoom="0.7"
     inkscape:cx="187.45985"
     inkscape:cy="192.82546"
     inkscape:document-units="px"
     inkscape:current-layer="layer1"
     inkscape:document-rotation="0"
     showgrid="false"
     inkscape:snap-smooth-nodes="true"
     inkscape:showpageshadow="false"
     borderlayer="true"
     units="px"
     inkscape:window-width="1920"
     inkscape:window-height="1017"
     inkscape:window-x="-8"
     inkscape:window-y="-4"
     inkscape:window-maximized="1" />
  <metadata
     id="metadata844">
    <rdf:RDF>
      <cc:Work
         rdf:about="">
        <dc:format>image/svg+xml</dc:format>
        <dc:type
           rdf:resource="http://purl.org/dc/dcmitype/StillImage" />
        <dc:title></dc:title>
      </cc:Work>
    </rdf:RDF>
  </metadata>
  <g
     inkscape:label="Layer 1"
     inkscape:groupmode="layer"
     id="layer1"
     transform="translate(-41.33033,-47.546748)">
    <g
       id="g892"
       transform="matrix(1.3736107,0,0,1.3665234,-15.639665,-17.620441)"
       style="stroke-width:0.729895">
      <path
         style="font-variation-settings:normal;opacity:1;vector-effect:none;fill:#d9d9d9;fill-opacity:1;stroke:none;stroke-width:0.579353;stroke-linecap:butt;stroke-linejoin:miter;stroke-miterlimit:4;stroke-dasharray:none;stroke-dashoffset:0;stroke-opacity:1;stop-color:#000000;stop-opacity:1"
         d="m 41.860864,48.074543 v 64.467867 c 0,31.01295 26.525553,47.05804 47.768475,47.05804 21.242921,0 47.768481,-16.04509 47.768481,-47.05804 V 48.074543 Z"
         id="path863"
         sodipodi:nodetypes="cszscc" />
      <path
         style="font-variation-settings:normal;opacity:1;vector-effect:none;fill:#f90606;fill-opacity:1;stroke:none;stroke-width:0.193117;stroke-linecap:butt;stroke-linejoin:miter;stroke-miterlimit:4;stroke-dasharray:none;stroke-dashoffset:0;stroke-opacity:1;stop-color:#000000;stop-opacity:1"
         d="M 137.39782,112.54241 V 98.345376 l -5.30761,-7.9375 -5.30761,7.9375 -5.30761,-7.9375 -5.3076,7.9375 -5.30761,-7.9375 -5.30761,7.9375 -5.30761,-7.9375 -5.307609,7.9375 -5.307609,-7.9375 -5.307609,7.9375 -5.307608,-7.9375 -5.307609,7.9375 -5.307609,-7.9375 -5.307608,7.9375 -5.307609,-7.9375 -5.307609,7.9375 -5.307608,-7.9375 -5.307609,7.9375 v 14.197034 z"
         id="path848"
         sodipodi:nodetypes="cccccccccccccccccccccc" />
      <path
         style="font-variation-settings:normal;opacity:1;vector-effect:none;fill:none;fill-opacity:1;stroke:#000000;stroke-width:0.772469;stroke-linecap:butt;stroke-linejoin:miter;stroke-miterlimit:4;stroke-dasharray:none;stroke-dashoffset:0;stroke-opacity:1;stop-color:#000000;stop-opacity:1"
         d="m 41.860864,48.074543 v 64.467867 c 0,31.01295 26.525553,47.05804 47.768475,47.05804 21.242921,0 47.768481,-16.04509 47.768481,-47.05804 V 48.074543 Z"
         id="path844"
         sodipodi:nodetypes="cszscc" />
      <path
         style="font-variation-settings:normal;vector-effect:none;fill:#000000;fill-opacity:1;stroke:none;stroke-width:0.193117;stroke-linecap:butt;stroke-linejoin:miter;stroke-miterlimit:4;stroke-dasharray:none;stroke-dashoffset:0;stroke-opacity:1;stop-color:#000000"
         d="M 137.39782,80.069164 V 65.872129 l -5.30761,-7.9375 -5.30761,7.9375 -5.30761,-7.9375 -5.3076,7.9375 -5.30761,-7.9375 -5.30761,7.9375 -5.30761,-7.9375 -5.307609,7.9375 -5.307609,-7.9375 -5.307609,7.9375 -5.307608,-7.9375 -5.307609,7.9375 -5.307609,-7.9375 -5.307608,7.9375 -5.307609,-7.9375 -5.307609,7.9375 -5.307608,-7.9375 -5.307609,7.9375 v 14.197035 z"
         id="path850"
         sodipodi:nodetypes="cccccccccccccccccccccc" />
      <path
         id="path852"
         style="font-variation-settings:normal;vector-effect:none;fill:#000000;fill-opacity:1;stroke:none;stroke-width:0.729893;stroke-linecap:butt;stroke-linejoin:miter;stroke-miterlimit:4;stroke-dasharray:none;stroke-dashoffset:0;stroke-opacity:1;stop-color:#000000"
         d="m 178.27539,464.43164 -11.5,17.19727 c 8.51459,26.39826 22.86159,48.57604 40.63867,66.46093 h 262.68555 c 17.77709,-17.88489 32.12408,-40.06267 40.63867,-66.46093 l -11.5,-17.19727 -20.06055,30 -20.06054,-30 -20.0586,30 -20.06054,-30 -20.06055,30 -20.06055,-30 -20.06054,30 -20.06055,-30 -20.05859,30 -20.06055,-30 -20.06055,30 -20.06055,-30 -20.06054,30 -20.06055,-30 -20.06055,30 z"
         transform="scale(0.26458333)" />
    </g>
  </g>
</svg>
