<?xml version="1.0" encoding="UTF-8" standalone="no"?>
<svg xmlns:dc="http://purl.org/dc/elements/1.1/" xmlns:cc="http://creativecommons.org/ns#" xmlns:rdf="http://www.w3.org/1999/02/22-rdf-syntax-ns#" xmlns:svg="http://www.w3.org/2000/svg" xmlns="http://www.w3.org/2000/svg" xmlns:xlink="http://www.w3.org/1999/xlink" xmlns:sodipodi="http://sodipodi.sourceforge.net/DTD/sodipodi-0.dtd" xmlns:inkscape="http://www.inkscape.org/namespaces/inkscape" sodipodi:docname="svg.svg" inkscape:version="1.0 (4035a4fb49, 2020-05-01)" version="1.1" id="svg2" height="564.86151" width="500">
  <defs id="defs4"/>
  <sodipodi:namedview inkscape:document-rotation="0" inkscape:showpageshadow="false" fit-margin-bottom="0" fit-margin-right="0" fit-margin-left="0" fit-margin-top="0" inkscape:window-maximized="1" inkscape:window-y="-8" inkscape:window-x="-8" inkscape:window-height="1017" inkscape:window-width="1920" showborder="true" showgrid="false" inkscape:current-layer="layer1" inkscape:document-units="px" inkscape:cy="305.13505" inkscape:cx="324.87109" inkscape:zoom="1.4" inkscape:pageshadow="2" inkscape:pageopacity="0" borderopacity="1.0" bordercolor="#666666" pagecolor="#f6f3f1" id="base"/>
  <metadata id="metadata7">
    <rdf:RDF>
      <cc:Work rdf:about="">
        <dc:format>image/svg+xml</dc:format>
        <dc:type rdf:resource="http://purl.org/dc/dcmitype/StillImage"/>
        <dc:title/>
      </cc:Work>
    </rdf:RDF>
  </metadata>
  <g transform="translate(-37.84375,-260.73225)" id="layer1" inkscape:groupmode="layer" inkscape:label="Layer 1">
    <g transform="matrix(0.90636152,0,0,0.90636152,3.543631,77.30734)" id="g4377">
      <path style="color:#000000;fill:#aa0000;fill-opacity:1;stroke:none;stroke-width:1;marker:none;visibility:visible;display:inline;overflow:visible;enable-background:accumulate" d="m 584.21875,333.09375 -541.0625,0 c 3.422731,80.89756 7.63787,172.78619 11.125,219.28125 6.428572,85.71429 54.31835,163.87964 112.46875,199.5 61.2353,37.51004 111.89965,51.51026 146.9375,73.71875 35.03785,-22.20849 85.7022,-36.20871 146.9375,-73.71875 58.1504,-35.62036 106.04018,-113.78571 112.46875,-199.5 3.48713,-46.49509 7.70227,-138.38365 11.125,-219.28125 z" id="path3770" inkscape:connector-curvature="0" sodipodi:nodetypes="ccsscssc"/>
      <path style="color:#000000;fill:#caa62f;fill-opacity:1;stroke:none;stroke-width:1;marker:none;visibility:visible;display:inline;overflow:visible;enable-background:accumulate" d="m 37.84375,202.375 c 0,0 2.42538,62.48055 5.3125,130.71875 l 45.65625,0 0,40.84375 64.25,0 0,-40.84375 64.25,0 0,40.84375 64.25,0 0,-40.84375 64.25,-0.125 0,40.96875 64.25,0 0,-40.84375 64.25,0 0,40.84375 64.25,0 0,-40.84375 45.65625,0 C 587.10587,264.85563 589.5,202.375 589.5,202.375 l -551.65625,0 z" id="path3763" inkscape:connector-curvature="0"/>
      <path style="color:#000000;fill:#000000;stroke:none;stroke-width:1;marker:none;visibility:visible;display:inline;overflow:visible;enable-background:accumulate" d="m 249.80712,217.36218 c 0,0 0,2.14286 -1.33929,5.08929 -1.33928,2.94642 2.58132,46.69542 36.33929,50.98214 33.75797,4.28672 54.10714,-12.32143 45.53571,-43.39286 0,0 28.39286,-15.53571 60,-1.07143 0,0 4.43009,74.8693 -56.51287,83.88525 -60.94295,9.01594 -89.92095,-24.82669 -95.7219,-60.94145 -5.80095,-36.11477 11.69906,-34.55094 11.69906,-34.55094 z" id="path3765" inkscape:connector-curvature="0" sodipodi:nodetypes="cszcczzc"/>
      <g id="g4356" transform="translate(-0.48798016,0)">
        <path style="color:#000000;fill:#caa62f;fill-opacity:1;stroke:none;stroke-width:1;marker:none;visibility:visible;display:inline;overflow:visible;enable-background:accumulate" d="m 322.85826,358.16548 c 5.95479,2.36548 2.65166,9.21578 3.40928,14.32968 0.75761,5.1139 3.43472,4.33284 9.39172,7.15138 6.14505,2.90752 4.16688,10.93945 2.08344,14.72753 -2.08344,3.78807 -0.1894,8.90197 5.87151,11.17481 6.06092,2.27284 8.71257,12.50064 2.08344,17.04632 -6.62913,4.54569 -8.11185,6.62913 -7.73305,9.09138 0.37881,2.46224 6.97732,5.87995 3.86652,15.66108 -3.23006,10.15613 -7.39172,10.28721 -9.09635,14.8329 -1.70464,4.54568 0,9.09137 -6.81853,13.06885 -6.81853,3.97747 -9.61886,15.32706 -5.60099,29.79134 5.63742,-5.63742 11.42967,-17.48011 25.06673,-19.37415 0,0 7.16541,-11.16156 12.52255,-29.91156 0,0 -9.57787,-7.76786 -7.97072,-22.23214 0,0 2.61358,-1.07143 6.89929,-0.53571 0,0 3.48214,-19.55358 17.41072,-19.55358 1.09035,-2.85084 4.01785,-3.48214 4.01785,-3.48214 0,0 1.20905,2.41072 0.26786,4.82143 6.5551,4.13666 7.47713,11.24133 1.07143,26.51785 0,0 3.21428,2.41071 4.28571,3.75 0,0 -4.82142,14.46429 -19.28571,12.58929 0,0 -3.75,17.14286 -12.58929,27.85714 11.85295,-0.7577 16.63733,4.18177 30,-2.67857 0,0 2.94643,-11.78571 8.03572,-16.60714 0,0 0.80357,-4.10715 -1.33929,-9.19643 -2.14285,-5.08929 1.875,-9.91072 3.75,-10.17857 0,0 2.23215,-7.23215 -0.98214,-13.39286 -3.21429,-6.16071 0,-17.41071 11.25,-14.73214 0,0 3.75,-5.89286 1.875,-15 -1.875,-9.10715 7.5,-12.85715 11.25,-12.58929 0,0 3.75,-4.82143 3.21429,-13.92857 -0.53572,-9.10714 6.69642,-10.44643 11.78571,-8.83928 3.25797,-5.08929 0.53787,-9.35345 4.55357,-14.46429 3.50286,-4.45813 15.01985,-4.08929 18.48214,2.14285 3.46231,6.23214 -0.80357,10.44643 -0.53571,16.33929 0,0 1.60714,1.33929 6.69643,3.48214 5.08928,2.14286 7.23214,9.91072 3.48214,14.73215 -3.75,4.82143 -3.75,7.23214 -1.33928,9.10714 2.41071,1.875 6.42857,6.69643 3.48214,14.19643 -2.94643,7.5 -11.25,6.42857 -14.73214,13.125 -3.48215,6.69643 -2.14286,10.17857 -1.875,15.26786 0.26785,5.08928 -5.89286,8.83928 -13.66072,9.10714 -7.76786,0.26786 -11.25,5.35714 -13.39286,10.17857 -2.14286,4.82143 -7.23214,6.69643 -13.92857,5.625 -6.08908,-0.97425 -12.58928,5.625 -15.26785,12.85714 0,0 0.98214,0.98215 6.60714,-1.16071 5.625,-2.14286 10.17857,1.875 14.46428,1.60714 4.28572,-0.26786 4.28572,-4.82143 11.25,-4.01786 6.96429,0.80358 9.10715,-4.01785 12.85715,-6.42857 3.75,-2.41071 9.10714,-2.41071 14.46428,-6.42857 5.35715,-4.01786 10.71429,-15 12.05357,-20.35714 1.33929,-5.35714 3.75,-16.875 10.17858,-18.75 6.42857,-1.875 11.25,1.07143 14.46428,-4.82143 3.21429,-5.89286 1.33929,-15.80357 7.76786,-19.55357 6.42857,-3.75 12.05357,2.67857 16.875,1.60714 4.82143,-1.07143 3.75,-13.66071 9.91071,-15.53571 6.16072,-1.875 10.71429,2.94643 15,1.60714 4.28572,-1.33929 2.41072,-9.64286 8.30357,-12.85714 5.89286,-3.21429 13.125,1.875 16.07143,4.55357 2.94643,2.67857 2.41072,8.83928 -0.53571,11.78571 -2.94643,2.94643 -5.01786,5.7619 -1.60714,8.03572 3.41071,2.27381 4.55357,8.83928 -0.80358,13.125 -5.35714,4.28571 -8.30357,9.10714 -8.30357,12.58928 0,3.48215 3.75,8.57143 0,15.26786 -3.75,6.69643 -16.33928,6.42857 -18.48214,10.17857 -2.14286,3.75 0.80357,3.21429 1.875,6.96429 1.07143,3.75 -3.75,14.19643 -14.73214,10.71428 -10.98215,-3.48214 -18.35,-2.875 -19.28572,-0.53571 -0.93571,2.33928 0.66965,6.42857 -6.96428,8.30357 -7.63393,1.875 -11.80358,1.17857 -23.30358,-3.75 -11.5,-4.92857 -22.76785,1.07143 -24.91071,2.41071 -2.14286,1.33929 -2.41071,6.96429 -5.89286,9.375 -3.48214,2.41072 -8.83928,1.33929 -12.05357,2.14286 -3.21428,0.80357 -2.94643,4.55357 -5.625,6.42857 -2.67857,1.875 -10.98214,0.26786 -17.14285,-0.26785 -6.16072,-0.53572 -14.46429,2.67857 -17.14286,5.08928 -2.67857,2.41072 -4.01786,10.44643 -18.75,9.64286 -14.73215,-0.80357 -24.64286,1.07143 -30,9.375 -5.35715,8.30357 -2.67857,14.73214 -2.67857,14.73214 0,0 13.94146,-7.94366 26.06329,-6.80724 0,0 -0.75762,10.22779 -1.51523,17.04632 0,0 -15.15229,0.75762 -23.10724,6.81853 0,0 -0.37881,9.47018 0,16.28871 0,0 4.98775,-6.29274 15.43418,-4.95346 10.44643,1.33929 22.78079,2.80357 31.875,-6.96429 9.09421,-9.76786 8.03571,-21.16071 18.75,-24.64285 0,0 -6.71272,-19.88167 8.06076,-26.32139 0,0 3.40927,1.51523 5.68211,3.78807 0,0 15.9099,-14.77348 30.30458,-4.54569 0,0 2.4704,-0.68885 4.61326,-0.68885 0,0 -0.26786,2.67857 -2.41071,4.55357 0,0 6.42857,15 -16.07143,23.57143 0,0 1.875,5.08929 1.60714,8.83929 0,0 -16.60714,6.69642 -27.85714,-2.94643 0,0 -9.91071,3.74999 -10.71429,17.94642 0,0 12.87619,-3.79596 23.05476,-0.58167 10.17857,3.21428 20.80978,0.69407 29.52927,-10.59544 8.25623,-10.68972 9.02311,-28.73359 18.66597,-31.14431 9.64286,-2.41071 13.5688,0.48975 16.07143,-8.19262 2.55489,-8.86369 4.82143,-16.45024 12.05357,-15.91453 7.23215,0.53572 5.56029,4.92936 11.51786,3.21429 5.58596,-1.60809 4.29215,-11.33548 12.79215,-11.94262 8.5,-0.60714 7.53952,3.40713 12.70024,2.67857 5.57214,-0.78664 2.64552,-7.55784 10.56526,-7.56499 7.91974,-0.007 7.60306,7.18618 7.60306,7.18618 0,0 8.42079,0.61509 8.19263,7.83285 -0.20242,6.4031 -7.33496,7.74829 -5.78191,12.70024 1.72121,5.48816 2.20286,12.48345 -8.36857,16.11738 -10.57143,3.63393 -3.20917,4.8988 -3.41715,10.28952 -0.19192,4.97462 -5.89285,9.04215 -14.46428,8.7743 -8.57143,-0.26786 -11.15626,4.42996 -11.29596,10.06762 -0.15638,6.31119 -6.11476,8.68238 -14.15047,6.27166 -8.03571,-2.41071 -11.83168,-0.75761 -12.63525,2.18882 -0.80357,2.94643 -5.48712,9.53191 -13.25498,4.17476 -7.76786,-5.35714 -18.37119,-7.16715 -28.70667,-2.43763 0,0 22.38556,3.9385 39.05308,16.06033 0,0 13.25825,-15.15229 34.09265,-4.16688 0,0 0.37881,4.54569 -0.37881,8.33376 0,0 25.38009,7.95495 19.31917,25.00127 0,0 2.27284,1.51524 2.27284,4.54569 0,0 -2.27284,0.75762 -5.3033,0.37881 0,0 -12.50064,11.36422 -31.441,-4.54569 0,0 -3.78807,3.78808 -7.57614,6.06092 0,0 -17.42513,-9.84899 -13.63706,-29.92577 0,0 -23.86485,-17.42513 -53.41181,-14.77348 0,0 3.03045,12.50064 13.63706,15.9099 10.6066,3.40927 23.86104,1.37881 28.78934,9.47018 4.49524,7.38037 -4.16688,9.84899 2.27285,16.66752 6.43972,6.81853 19.37076,6.44927 18.56155,18.18274 -0.75762,10.98542 -10.6066,8.33376 -2.65165,15.5311 7.95495,7.19734 10.60659,8.33375 9.09136,14.77348 -1.51523,6.43973 -11.45996,7.35759 -6.81852,10.6066 6.23645,4.36551 5.68211,17.80394 -5.3033,15.15229 0,0 -2.65165,9.09137 -11.36422,5.68211 -8.71256,-3.40927 -9.09137,-14.39467 -17.42513,-13.25825 -8.33376,1.13642 -14.01586,2.27284 -15.53109,-6.43973 -1.51523,-8.71256 -0.75762,-14.39467 -11.74303,-15.9099 -10.9854,-1.51523 -4.92449,-17.04632 -3.03045,-22.72843 1.89403,-5.68211 -3.03046,-10.98541 -6.81853,-14.39467 -3.78808,-3.40927 2.65165,-15.5311 7.57614,-22.34963 4.92449,-6.81853 -1.51523,-18.94036 -9.47018,-23.48604 -7.95496,-4.54569 -19.45559,2.46795 -26.5165,6.43972 -7.06092,3.97177 -17.04633,3.03045 -17.04633,3.03045 0,0 1.13642,4.9245 3.03046,7.19734 0,0 15.13531,-3.11454 23.70674,16.17117 0,0 -1.86219,3.27427 -4.89265,5.1683 0,0 7.95495,13.63706 6.43972,22.72844 -1.51523,9.09137 -6.81853,11.36421 -6.81853,11.36421 0,0 0.37881,3.03046 -0.75761,4.9245 0,0 -2.65165,0 -4.54569,-3.40927 0,0 -17.80394,-0.75761 -21.97082,-25.00127 0,0 -4.54568,0.3788 -6.81852,0 0,0 -6.06092,-19.69798 8.33375,-29.54697 0,0 -2.65165,-3.40926 -3.40926,-7.95495 0,0 -18.94036,-1.89403 -25.00128,14.39468 0,0 -3.03045,16.66751 -2.65165,42.4264 0.37881,25.75889 -0.50909,53.33085 3.52111,60.88807 4.0302,7.55722 13.2281,8.36481 21.53163,5.78191 8.30353,-2.5829 10.90207,3.07514 16.2093,3.05738 5.30723,-0.0178 6.83431,-3.27928 15.96048,-2.45668 7.28156,0.65634 10.36241,5.18121 14.64812,5.44907 4.28571,0.26786 7.36856,-1.28744 16.67213,3.21428 9.30358,4.50173 13.01405,-1.6531 18.10334,-5.4031 5.08928,-3.75 11.78571,-2.94643 20.89285,0.26786 9.10715,3.21428 16.33929,1.60714 16.33929,1.60714 0,0 0.80357,9.10714 -10.17857,8.03571 -10.98214,-1.07142 -18.21429,-2.14285 -21.16072,2.14286 -2.94642,4.28572 -6.42857,10.17857 -11.51785,10.44643 0,0 -0.625,3.39286 6.60714,4.19643 7.23214,0.80357 10.98214,7.23214 9.375,13.125 0,0 -5.89286,-4.28572 -18.75,-3.21429 -12.85714,1.07143 -15.53571,-6.96428 -16.875,-10.71428 -1.33929,-3.75 -7.5,-6.42857 -14.19643,-4.01786 -6.69643,2.41071 -8.30357,-2.94643 -12.58928,-3.48214 -4.28572,-0.53572 -6.42858,1.07143 -6.42858,1.07143 0,0 -2.41071,17.67857 4.28572,19.28571 6.69642,1.60714 6.16071,-4.55358 13.12499,-2.41072 6.96429,2.14286 7.50001,9.10715 13.12501,8.03572 5.625,-1.07143 11.51786,-1.87499 12.32143,3.48215 0,0 -5.84169,-0.81426 -9.64286,4.82142 -3.38445,5.01786 -16.875,2.67857 -20.35714,-0.53571 0,0 -3.75,3.48214 -3.21429,10.17857 0.53572,6.69643 -4.28571,7.76786 -6.42857,7.76786 -2.14286,0 -5.08929,5.35714 -5.08929,5.35714 0,0 -4.01785,-4.82143 -0.26785,-9.375 3.75,-4.55357 3.21428,-10.44643 -2.94643,-12.85714 -6.16072,-2.41072 -12.58929,-8.83929 -13.92857,-18.75 -1.33929,-9.91072 -10.71429,-10.98215 -18.21429,-8.03572 -7.5,2.94643 -19.55357,1.60714 -23.03571,-2.67857 0,0 -1.875,10.53571 -0.80358,17.76786 0,0 12.05358,-1.60715 18.75,7.76785 6.69643,9.375 6.69643,11.25 17.14286,12.85715 10.44643,1.60714 9.64286,14.73214 9.64286,14.73214 0,0 -4.82143,-6.16071 -17.94643,-5.08929 -13.125,1.07143 -15.53571,-8.03571 -19.01786,-10.71428 -3.48214,-2.67857 -13.125,-2.41072 -13.125,-2.41072 0,0 -0.80357,11.25 -2.94643,17.14286 -2.14285,5.89286 -0.80357,11.25 -2.41071,16.60714 -1.60714,5.35715 1.07143,10.98215 -4.97905,15.80357 -6.05048,-4.82142 -3.37191,-10.44642 -4.97905,-15.80357 -1.60714,-5.35714 -0.26786,-10.71428 -2.41071,-16.60714 -2.14286,-5.89286 -2.94643,-17.14286 -2.94643,-17.14286 0,0 -9.64286,-0.26785 -13.125,2.41072 -3.48215,2.67857 -5.89286,11.78571 -19.01786,10.71428 -13.125,-1.07142 -17.94643,5.08929 -17.94643,5.08929 0,0 -0.80357,-13.125 9.64286,-14.73214 10.44643,-1.60715 10.44643,-3.48215 17.14286,-12.85715 6.69642,-9.375 18.75,-7.76785 18.75,-7.76785 1.07142,-7.23215 -0.80358,-17.76786 -0.80358,-17.76786 -3.48214,4.28571 -15.53571,5.625 -23.03571,2.67857 -7.5,-2.94643 -16.875,-1.875 -18.21429,8.03572 -1.33928,9.91071 -7.76785,16.33928 -13.92857,18.75 -6.16071,2.41071 -6.69643,8.30357 -2.94643,12.85714 3.75,4.55357 -0.26785,9.375 -0.26785,9.375 0,0 -2.94643,-5.35714 -5.08929,-5.35714 -2.14286,0 -6.96429,-1.07143 -6.42857,-7.76786 0.53571,-6.69643 -3.21429,-10.17857 -3.21429,-10.17857 -3.48214,3.21428 -16.97269,5.55357 -20.35714,0.53571 -3.80117,-5.63568 -9.64286,-4.82142 -9.64286,-4.82142 0.80357,-5.35714 6.69643,-4.55358 12.32143,-3.48215 5.625,1.07143 6.16072,-5.89286 13.12501,-8.03572 6.96428,-2.14286 6.42857,4.01786 13.12499,2.41072 6.69643,-1.60714 4.28572,-19.28571 4.28572,-19.28571 0,0 -2.14286,-1.60715 -6.42858,-1.07143 -4.28571,0.53571 -5.89285,5.89285 -12.58928,3.48214 C 212.5,723.5229 206.33929,726.20147 205,729.95147 c -1.33929,3.75 -4.01786,11.78571 -16.875,10.71428 -12.85714,-1.07143 -18.75,3.21429 -18.75,3.21429 -1.60714,-5.89286 2.14286,-12.32143 9.375,-13.125 7.23214,-0.80357 6.60714,-4.19643 6.60714,-4.19643 -5.08928,-0.26786 -8.57143,-6.16071 -11.51785,-10.44643 -2.94643,-4.28571 -10.17858,-3.21428 -21.16072,-2.14286 -10.98214,1.07143 -10.17857,-8.03571 -10.17857,-8.03571 0,0 7.23214,1.60714 16.33929,-1.60714 9.10714,-3.21429 15.80357,-4.01786 20.89285,-0.26786 5.08929,3.75 8.79976,9.90483 18.10334,5.4031 9.30357,-4.50172 12.38642,-2.94642 16.67213,-3.21428 4.28571,-0.26786 7.36656,-4.79273 14.64812,-5.44907 9.12617,-0.8226 10.65325,2.43888 15.96048,2.45668 5.30723,0.0178 7.90577,-5.64028 16.2093,-3.05738 8.30353,2.5829 17.50143,1.77531 21.53163,-5.78191 4.0302,-7.55722 3.1423,-35.12918 3.52111,-60.88807 0.3788,-25.75889 -2.65165,-42.4264 -2.65165,-42.4264 -6.06092,-16.28871 -25.00128,-14.39468 -25.00128,-14.39468 -0.75761,4.54569 -3.40926,7.95495 -3.40926,7.95495 14.39467,9.84899 8.33375,29.54697 8.33375,29.54697 -2.27284,0.3788 -6.81852,0 -6.81852,0 -4.16688,24.24366 -21.97082,25.00127 -21.97082,25.00127 -1.89404,3.40927 -4.54569,3.40927 -4.54569,3.40927 -1.13642,-1.89404 -0.75761,-4.9245 -0.75761,-4.9245 0,0 -5.3033,-2.27284 -6.81853,-11.36421 -1.51523,-9.09138 6.43972,-22.72844 6.43972,-22.72844 -3.03046,-1.89403 -4.89265,-5.1683 -4.89265,-5.1683 8.57143,-19.28571 23.70674,-16.17117 23.70674,-16.17117 1.89404,-2.27284 3.03046,-7.19734 3.03046,-7.19734 0,0 -9.98541,0.94132 -17.04633,-3.03045 -7.06091,-3.97177 -18.56154,-10.98541 -26.5165,-6.43972 -7.95495,4.54568 -14.39467,16.66751 -9.47018,23.48604 4.92449,6.81853 11.36422,18.94036 7.57614,22.34963 -3.78807,3.40926 -8.71256,8.71256 -6.81853,14.39467 1.89404,5.68211 7.95495,21.2132 -3.03045,22.72843 -10.98541,1.51523 -10.2278,7.19734 -11.74303,15.9099 -1.51523,8.71257 -7.19733,7.57615 -15.53109,6.43973 -8.33376,-1.13642 -8.71257,9.84898 -17.42513,13.25825 -8.71257,3.40926 -11.36422,-5.68211 -11.36422,-5.68211 -10.98541,2.65165 -11.53975,-10.78678 -5.3033,-15.15229 4.64144,-3.24901 -5.30329,-4.16687 -6.81852,-10.6066 -1.51523,-6.43973 1.13641,-7.57614 9.09136,-14.77348 7.95495,-7.19734 -1.89403,-4.54568 -2.65165,-15.5311 -0.80921,-11.73347 12.12183,-11.36421 18.56155,-18.18274 6.43973,-6.81853 -2.22239,-9.28715 2.27285,-16.66752 4.9283,-8.09137 18.18274,-6.06091 28.78934,-9.47018 10.60661,-3.40926 13.63706,-15.9099 13.63706,-15.9099 -29.54696,-2.65165 -53.41181,14.77348 -53.41181,14.77348 3.78807,20.07678 -13.63706,29.92577 -13.63706,29.92577 -3.78807,-2.27284 -7.57614,-6.06092 -7.57614,-6.06092 -18.94036,15.90991 -31.441003,4.54569 -31.441003,4.54569 -3.030457,0.37881 -5.303301,-0.37881 -5.303301,-0.37881 0,-3.03045 2.272844,-4.54569 2.272844,-4.54569 -6.060916,-17.04632 19.31917,-25.00127 19.31917,-25.00127 -0.75762,-3.78807 -0.37881,-8.33376 -0.37881,-8.33376 20.8344,-10.98541 34.09265,4.16688 34.09265,4.16688 16.66752,-12.12183 39.05308,-16.06033 39.05308,-16.06033 -10.33548,-4.72952 -20.93881,-2.91951 -28.70667,2.43763 -7.76786,5.35715 -12.45141,-1.22833 -13.25498,-4.17476 -0.80357,-2.94643 -4.59954,-4.59953 -12.63525,-2.18882 -8.03571,2.41072 -13.99409,0.0395 -14.15047,-6.27166 -0.1397,-5.63766 -2.72453,-10.33548 -11.29596,-10.06762 -8.571427,0.26785 -14.272359,-3.79968 -14.464284,-8.7743 -0.207979,-5.39072 7.154279,-6.65559 -3.41715,-10.28952 -10.571428,-3.63393 -10.089777,-10.62922 -8.368564,-16.11738 1.553044,-4.95195 -5.579492,-6.29714 -5.781908,-12.70024 -0.228169,-7.21776 8.192622,-7.83285 8.192622,-7.83285 0,0 -0.316675,-7.19318 7.603065,-7.18618 7.91974,0.007 4.993123,6.77835 10.565263,7.56499 5.160715,0.72856 4.200237,-3.28571 12.700236,-2.67857 8.5,0.60714 7.20619,10.33453 12.79215,11.94262 5.95757,1.71507 4.28571,-2.67857 11.51786,-3.21429 7.23214,-0.53571 9.49868,7.05084 12.05357,15.91453 2.50263,8.68237 6.42857,5.78191 16.07143,8.19262 9.64286,2.41072 10.40974,20.45459 18.66597,31.14431 8.71949,11.28951 19.3507,13.80972 29.52927,10.59544 10.17857,-3.21429 23.05476,0.58167 23.05476,0.58167 -0.80358,-14.19643 -10.71429,-17.94642 -10.71429,-17.94642 -11.25,9.64285 -27.85714,2.94643 -27.85714,2.94643 -0.26786,-3.75 1.60714,-8.83929 1.60714,-8.83929 -22.5,-8.57143 -16.07143,-23.57143 -16.07143,-23.57143 -2.14285,-1.875 -2.41071,-4.55357 -2.41071,-4.55357 2.14286,0 4.61326,0.68885 4.61326,0.68885 14.39468,-10.22779 30.30458,4.54569 30.30458,4.54569 2.27284,-2.27284 5.68211,-3.78807 5.68211,-3.78807 14.77348,6.43972 8.06076,26.32139 8.06076,26.32139 10.71429,3.48214 9.65579,14.87499 18.75,24.64285 9.09421,9.76786 21.42857,8.30358 31.875,6.96429 10.44643,-1.33928 16.5706,4.95346 16.5706,4.95346 0.37881,-6.81853 0,-16.28871 0,-16.28871 -7.95495,-6.06091 -23.48605,-6.81853 -23.48605,-6.81853 -0.75761,-6.81853 -1.51523,-17.04632 -1.51523,-17.04632 12.12183,-1.13642 25.30568,6.80724 25.30568,6.80724 0,0 2.67858,-6.42857 -2.67857,-14.73214 -5.35714,-8.30357 -15.26785,-10.17857 -30,-9.375 -14.73214,0.80357 -16.07143,-7.23214 -18.75,-9.64286 -2.67857,-2.41071 -10.98214,-5.625 -17.14286,-5.08928 -6.16071,0.53571 -14.46428,2.14285 -17.14285,0.26785 -2.67857,-1.875 -2.41072,-5.625 -5.625,-6.42857 -3.21429,-0.80357 -8.57143,0.26786 -12.05357,-2.14286 -3.48215,-2.41071 -3.75,-8.03571 -5.89286,-9.375 -2.14286,-1.33928 -13.41071,-7.33928 -24.91071,-2.41071 -11.5,4.92857 -15.66965,5.625 -23.30358,3.75 -7.63393,-1.875 -6.02857,-5.96429 -6.96428,-8.30357 -0.93572,-2.33929 -8.30357,-2.94643 -19.28572,0.53571 C 96.875,471.6479 92.053572,461.20147 93.125,457.45147 c 1.071429,-3.75 4.017857,-3.21429 1.875,-6.96429 -2.142857,-3.75 -14.732143,-3.48214 -18.482143,-10.17857 -3.75,-6.69643 0,-11.78571 0,-15.26786 0,-3.48214 -2.946428,-8.30357 -8.303571,-12.58928 -5.357143,-4.28572 -4.214286,-10.85119 -0.803572,-13.125 3.410715,-2.27382 1.339286,-5.08929 -1.607142,-8.03572 -2.946429,-2.94643 -3.482143,-9.10714 -0.535715,-11.78571 2.946429,-2.67857 10.178572,-7.76786 16.071429,-4.55357 5.892857,3.21428 4.017857,11.51785 8.303571,12.85714 4.285715,1.33929 8.839286,-3.48214 15.000003,-1.60714 6.16071,1.875 5.08928,14.46428 9.91071,15.53571 4.82143,1.07143 10.44643,-5.35714 16.875,-1.60714 6.42857,3.75 4.55357,13.66071 7.76786,19.55357 3.21428,5.89286 8.03571,2.94643 14.46428,4.82143 6.42858,1.875 8.83929,13.39286 10.17858,18.75 1.33928,5.35714 6.69642,16.33928 12.05357,20.35714 5.35714,4.01786 10.71428,4.01786 14.46428,6.42857 3.75,2.41072 5.89286,7.23215 12.85715,6.42857 6.96428,-0.80357 6.96428,3.75 11.25,4.01786 4.28571,0.26786 8.83928,-3.75 14.46428,-1.60714 5.625,2.14286 6.60714,1.16071 6.60714,1.16071 -2.67857,-7.23214 -9.17877,-13.83139 -15.26785,-12.85714 -6.69643,1.07143 -11.78571,-0.80357 -13.92857,-5.625 -2.14286,-4.82143 -5.625,-9.91071 -13.39286,-10.17857 -7.76786,-0.26786 -13.92857,-4.01786 -13.66072,-9.10714 0.26786,-5.08929 1.60715,-8.57143 -1.875,-15.26786 -3.48214,-6.69643 -11.78571,-5.625 -14.73214,-13.125 -2.94643,-7.5 1.07143,-12.32143 3.48214,-14.19643 2.41072,-1.875 2.41072,-4.28571 -1.33928,-9.10714 -3.75,-4.82143 -1.60714,-12.58929 3.48214,-14.73215 5.08929,-2.14285 6.69643,-3.48214 6.69643,-3.48214 0.26786,-5.89286 -3.99802,-10.10715 -0.53571,-16.33929 3.46229,-6.23214 14.97928,-6.60098 18.48214,-2.14285 4.0157,5.11084 1.2956,9.375 4.55357,14.46429 5.08929,-1.60715 12.32143,-0.26786 11.78571,8.83928 -0.53571,9.10714 3.21429,13.92857 3.21429,13.92857 3.75,-0.26786 13.125,3.48214 11.25,12.58929 -1.875,9.10714 1.875,15 1.875,15 11.25,-2.67857 14.46429,8.57143 11.25,14.73214 -3.21429,6.16071 -0.98214,13.39286 -0.98214,13.39286 1.875,0.26785 5.89285,5.08928 3.75,10.17857 -2.14286,5.08928 -1.33929,9.19643 -1.33929,9.19643 5.08929,4.82143 8.03572,16.60714 8.03572,16.60714 13.36267,6.86034 18.14705,1.92087 30,2.67857 C 267.5,474.7729 263.75,457.63004 263.75,457.63004 c -14.46429,1.875 -19.28571,-12.58929 -19.28571,-12.58929 1.07143,-1.33929 4.28571,-3.75 4.28571,-3.75 -6.4057,-15.27652 -5.48367,-22.38119 1.07143,-26.51785 -0.94119,-2.41071 0.26786,-4.82143 0.26786,-4.82143 0,0 2.9275,0.6313 4.01785,3.48214 13.92858,0 17.41072,19.55358 17.41072,19.55358 4.28571,-0.53572 6.89929,0.53571 6.89929,0.53571 1.60715,14.46428 -7.97072,22.23214 -7.97072,22.23214 5.35714,18.75 12.52255,29.91156 12.52255,29.91156 13.63706,1.89404 19.42931,13.73673 25.06673,19.37415 4.01787,-14.46428 1.21754,-25.81387 -5.60099,-29.79134 -6.81853,-3.97748 -5.11389,-8.52317 -6.81853,-13.06885 -1.70463,-4.54569 -5.86629,-4.67677 -9.09635,-14.8329 -3.1108,-9.78113 3.48771,-13.19884 3.86652,-15.66108 0.3788,-2.46225 -1.10392,-4.54569 -7.73305,-9.09138 -6.62913,-4.54568 -3.97748,-14.77348 2.08344,-17.04632 6.06091,-2.27284 7.95495,-7.38674 5.87151,-11.17481 -2.08344,-3.78808 -4.06161,-11.82001 2.08344,-14.72753 5.957,-2.81854 8.63411,-2.03748 9.39172,-7.15138 0.75762,-5.1139 -2.54551,-11.9642 3.40928,-14.32968 6.42705,-2.55307 8.68278,1.73713 8.68278,1.73713 0,0 2.25573,-4.2902 8.68278,-1.73713 z" id="path3862" inkscape:connector-curvature="0" sodipodi:nodetypes="ssssssssssccccccccccccccscscscscsscssssssssscssssssssssssssssssssssszzsssssssscccccszccccccccccsszssssszcssssssssscccccccccccssssszscsssssssszccccsccccccccszzzssssscsscscsssscssscscsscssssccsscsscsscsscsscssccsssscsscscssscsssscscsscssssszzzsccccccccscccczsssssssscszssssscccccccccccsssssssssczssssszsscccccccccczscccccsssssssszzssssssssssssssssssssssscssssssssscsscscscscsccccccccccccccsssssssssscs"/>
        <path id="path4295" d="m 185.09375,350.875 c -4.18475,-0.0204 -8.67746,1.65067 -10.625,5.15625 -3.46231,6.23214 0.79911,10.45089 0.53125,16.34375 0,0 -1.59821,1.3259 -6.6875,3.46875 -5.08928,2.14286 -7.25,9.89732 -3.5,14.71875 3.75,4.82143 3.75447,7.25 1.34375,9.125 -2.41071,1.875 -6.41518,6.6875 -3.46875,14.1875 2.94643,7.5 11.23661,6.42857 14.71875,13.125 3.48215,6.69643 2.14286,10.19196 1.875,15.28125 -0.26785,5.08928 5.88839,8.82589 13.65625,9.09375 7.76786,0.26786 11.26339,5.36607 13.40625,10.1875 1.9068,4.2903 6.15204,6.2195 11.78125,5.84375 -5.80973,-2.0108 -9.32942,-5.75617 -10.96875,-8.625 -2.27285,-3.97747 -4.73905,-7.94971 -15.15625,-9.84375 -10.4172,-1.89403 -10.03125,-3.78855 -10.03125,-9.28125 0,-5.49271 0.16418,-14.79996 -6.84375,-19.15625 -7.00794,-4.35628 -10.40244,-7.38611 -10.78125,-12.5 -0.3788,-5.1139 5.4981,-4.72033 5.6875,-10.78125 0.1894,-6.06091 -5.12881,-9.29426 -4.75,-14.21875 0.37881,-4.92449 10.04346,-4.35866 11.9375,-9.09375 1.89403,-4.73509 -0.9356,-10.02252 -1.125,-14 -0.18941,-3.97747 5.28665,-6.81821 10.96875,-6.25 3.62084,0.36208 6.67968,4.46017 8.4375,7.40625 -0.22894,-2.32054 -0.5723,-4.65455 -2.5625,-7.1875 -1.5325,-1.95043 -4.58895,-2.98418 -7.84375,-3 z m 258.15625,0 c -3.2548,0.0158 -6.31125,1.04957 -7.84375,3 -4.0157,5.11084 -1.30453,9.37946 -4.5625,14.46875 -5.08929,-1.60715 -12.31697,-0.26339 -11.78125,8.84375 0.53571,9.10714 -3.21875,13.9375 -3.21875,13.9375 -3.75,-0.26786 -13.125,3.45535 -11.25,12.5625 1.875,9.10714 -1.875,15 -1.875,15 -11.25,-2.67857 -14.46429,8.58929 -11.25,14.75 3.21429,6.16071 1,13.375 1,13.375 -1.875,0.26785 -5.89285,5.09821 -3.75,10.1875 2.14286,5.08928 1.34375,9.1875 1.34375,9.1875 -5.08929,4.82143 -8.0625,16.625 -8.0625,16.625 -12.68508,6.51247 -17.6404,2.41149 -28.25,2.625 -2.59383,1.17734 -3.375,2.5 -3.375,2.5 6.43972,-0.37881 17.21843,2.07583 23.46875,0.75 6.25032,-1.32582 12.69271,-4.45741 13.0625,-10.25 0.36979,-5.79259 4.53125,-11.59375 4.53125,-11.59375 1.89404,-7.57614 -1.50381,-11.72716 -1.125,-14 0.37881,-2.27285 4.15625,-4.9375 4.15625,-4.9375 0,0 1.89404,-9.84454 0,-12.875 -1.89404,-3.03046 -3.77665,-5.28664 -1.125,-10.96875 2.65165,-5.68211 10.21113,-4.5625 10.96875,-4.5625 5.3033,-7.19733 1.51983,-16.29807 2.65625,-20.84375 1.13642,-4.54569 10.96875,-6.8125 10.96875,-6.8125 6.43972,-6.81853 1.91085,-16.65323 4.5625,-20.0625 2.65165,-3.40926 4.92687,-1.16006 9.09375,-0.78125 4.16687,0.37881 1.89562,-6.04886 6.0625,-13.625 3.32414,-6.04389 10.42371,-5.10189 13.1875,-4.46875 -2.17312,-1.37292 -4.94469,-2.04413 -7.59375,-2.03125 z m -134.5625,6.5 c -0.9244,0.0709 -1.98243,0.30255 -3.1875,0.78125 -5.95479,2.36548 -2.64863,9.22985 -3.40625,14.34375 -0.75761,5.1139 -3.44925,4.33771 -9.40625,7.15625 -6.14505,2.90752 -4.17719,10.93067 -2.09375,14.71875 2.08344,3.78807 0.21716,8.91466 -5.84375,11.1875 -6.06092,2.27284 -8.72288,12.48557 -2.09375,17.03125 6.62913,4.54569 8.09755,6.6315 7.71875,9.09375 -0.37881,2.46224 -6.95455,5.87512 -3.84375,15.65625 3.23006,10.15613 7.38912,10.29806 9.09375,14.84375 1.70464,4.54568 -0.006,9.08502 6.8125,13.0625 6.81853,3.97747 9.61162,15.31697 5.59375,29.78125 -5.63742,-5.63742 -11.42544,-17.48096 -25.0625,-19.375 -0.64921,1.67819 -0.65625,3.125 -0.65625,3.125 14.46429,0.53572 26,20.09375 26,20.09375 8.30357,-10.44643 1.85268,-30.52679 -1.09375,-32.9375 -2.94642,-2.41071 -8.28125,-5.62054 -8.28125,-9.90625 0,-4.28572 -2.9509,-10.73214 -6.96875,-12.875 -4.01786,-2.14285 -5.35715,-10.44643 -3.75,-13.125 1.60714,-2.67857 4.54018,-6.15625 3.46875,-11.78125 -1.07143,-5.625 -6.68304,-5.61161 -9.09375,-9.09375 -2.41072,-3.48215 -1.34375,-9.91964 4.28125,-12.0625 5.625,-2.14285 7.2366,-10.19197 5.09375,-13.40625 -2.14286,-3.21429 -2.42411,-10.95536 1.59375,-12.5625 4.01786,-1.60714 10.1875,-2.96875 10.1875,-8.59375 0,-5.625 -0.81696,-9.62053 3.46875,-12.03125 4.28572,-2.41071 8.0625,2.65625 8.0625,2.65625 0,0 0.58036,-2.9375 5.0625,-2.9375 2.99232,0 5.05763,2.95603 6.125,4.9375 0.1145,-2.992 -0.33835,-5.69441 -3.625,-7 -6.42705,-2.55307 -8.65625,1.75 -8.65625,1.75 0,0 -1.49425,-2.83858 -5.5,-2.53125 z m 144.71875,15.03125 c 0.63924,5.91294 8.90795,6.51814 11.75,10.125 -0.6443,-2.93978 -2.45567,-5.57672 -5.09375,-6.6875 -4.87225,-2.05146 -6.52175,-3.32907 -6.65625,-3.4375 z M 76.75,373.9375 c -4.658203,0.20089 -9.258928,3.55357 -11.46875,5.5625 -2.946428,2.67857 -2.415179,8.83482 0.53125,11.78125 2.946428,2.94643 5.004465,5.75743 1.59375,8.03125 -3.410714,2.27381 -4.544643,8.83928 0.8125,13.125 5.357143,4.28571 8.3125,9.11161 8.3125,12.59375 0,3.48215 -3.75,8.58482 0,15.28125 1.660172,2.96459 5.048332,4.56242 8.5,5.75 -8.993321,-6.07448 -8.125166,-13.30532 -6,-16.375 2.410715,-3.48214 0.535715,-10.97768 -5.625,-15.53125 -6.160714,-4.55358 -8.575893,-9.63839 -5.09375,-11.78125 3.482142,-2.14286 3.209821,-9.13393 0.53125,-13.6875 -2.678572,-4.55357 -0.526785,-9.91072 6.4375,-11.25 6.964286,-1.33929 5.874999,0.80357 9.625,7.5 3.75,6.69643 7.223214,6.98214 14.1875,5.375 6.96429,-1.60714 9.12947,2.66518 10.46875,9.09375 1.33929,6.42857 6.16518,5.91518 14.46875,2.96875 5.73923,-2.0365 9.37542,0.51152 11.28125,2.46875 -0.79533,-1.93993 -1.96113,-3.60232 -3.875,-4.71875 -6.42857,-3.75 -12.05357,2.69643 -16.875,1.625 -4.82143,-1.07143 -3.74554,-13.6875 -9.90625,-15.5625 -6.160717,-1.875 -10.714285,2.96429 -15,1.625 -4.285714,-1.33929 -2.419643,-9.66072 -8.3125,-12.875 -1.473214,-0.80357 -3.041016,-1.06696 -4.59375,-1 z m 473.6875,0 c -1.162,0.0895 -2.33259,0.39732 -3.4375,1 -5.89285,3.21428 -3.99553,11.53571 -8.28125,12.875 -4.28571,1.33929 -8.83928,-3.5 -15,-1.625 -6.16071,1.875 -5.08482,14.49107 -9.90625,15.5625 -4.82143,1.07143 -10.44643,-5.375 -16.875,-1.625 -1.91387,1.11643 -3.11092,2.77882 -3.90625,4.71875 1.91505,-1.95723 5.57327,-4.50525 11.3125,-2.46875 8.30357,2.94643 13.12946,3.45982 14.46875,-2.96875 1.33928,-6.42857 3.47321,-10.70089 10.4375,-9.09375 6.96428,1.60714 10.4375,1.32143 14.1875,-5.375 3.75,-6.69643 2.69197,-8.83929 9.65625,-7.5 6.32784,1.21689 8.68308,5.78127 10.96875,11.625 1.48555,-3.15994 1.35653,-7.44861 -0.96875,-9.5625 -2.39397,-2.17634 -7.62091,-5.95016 -12.65625,-5.5625 z m -223.09375,1.59375 c 1.15347,3.20173 4.25669,4.32143 7.4375,5.59375 2.1997,0.87988 4.0302,4.17531 4.875,7.5 0.49539,-3.48001 -0.22751,-7.1838 -4,-8.96875 -4.34365,-2.05519 -6.92918,-2.2166 -8.3125,-4.125 z m 134.0625,18.25 c -1.12902,1.51483 -2.00455,3.16678 -1.9375,5.3125 0.11437,3.66 3.93351,5.1084 6.875,6.8125 -0.80137,-3.03671 -2.75259,-5.12701 -4.15625,-6.21875 -1.80804,-1.40625 -2.25028,-3.10631 -0.78125,-5.90625 z m -123.8125,6.65625 c -0.32562,2.66331 0.5077,5.37347 3.875,6.65625 3.7339,1.42244 6.95776,5.71553 8,9.46875 0.67366,-4.51784 -1.83461,-9.49658 -5.84375,-11 -3.07487,-1.15307 -5.0766,-3.05355 -6.03125,-5.125 z m -82.875,13.09375 -4.96875,1.0625 c 0.0218,0.0632 0.0378,0.12424 0.0625,0.1875 -6.5551,4.13666 -7.4682,11.22348 -1.0625,26.5 0,0 -3.20982,2.41071 -4.28125,3.75 0,0 3.69971,11.0813 14.3125,12.59375 -6.82991,-3.60605 -11.8125,-11.4375 -11.8125,-11.4375 12.36637,-9.32547 25.7863,-10.82546 31.59375,-11 -0.0299,-0.54972 -0.0928,-1.08561 -0.15625,-1.65625 0,0 -2.58929,-1.06697 -6.875,-0.53125 0,0 -0.0275,-0.13597 -0.0312,-0.15625 -9.87837,2.1548 -19.71875,7.1875 -19.71875,7.1875 -4.28571,-7.23214 -8.28572,-22.20982 1.625,-23.28125 8.67187,-0.9375 12.81421,8.97119 13.71875,11.46875 -3.44949,-11.07428 -7.66736,-14.45258 -12.40625,-14.6875 z m 119.25,2.21875 c -5.74333,-0.24829 -15.50557,7.08894 -15.21875,16.84375 0,0 7.04018,-16.18304 16.28125,-16.71875 -0.34319,-0.0855 -0.67961,-0.10845 -1.0625,-0.125 z M 138,416.53125 c -0.0191,0.0957 -0.0493,0.17864 -0.0625,0.28125 -1.07143,8.30357 5.09821,8.86607 12.0625,9.9375 6.96429,1.07143 9.36161,7.5 10.96875,13.125 0.93412,3.26941 2.68034,5.5955 4.09375,7 -0.51935,-1.34255 -0.96349,-2.60396 -1.21875,-3.625 -1.33929,-5.35714 -3.75892,-16.875 -10.1875,-18.75 -6.42857,-1.875 -11.25447,1.08036 -14.46875,-4.8125 -0.52118,-0.95551 -0.87683,-2.03287 -1.1875,-3.15625 z m 352.34375,0.0312 c -0.30917,1.11157 -0.67125,2.17855 -1.1875,3.125 -3.21428,5.89286 -8.04018,2.9375 -14.46875,4.8125 -6.42858,1.875 -8.84821,13.39286 -10.1875,18.75 -1.33928,5.35714 -6.6741,16.35714 -12.03125,20.375 -5.35714,4.01786 -10.71875,3.99554 -14.46875,6.40625 -3.75,2.41072 -5.91071,7.24108 -12.875,6.4375 -6.96428,-0.80357 -6.96428,3.76339 -11.25,4.03125 -4.28571,0.26786 -8.8125,-3.76786 -14.4375,-1.625 -4.35938,1.66072 -5.9201,1.46263 -6.40625,1.28125 -2.88951,2.17398 -4.59375,4.1875 -4.59375,4.1875 1.32583,-0.75761 15.54807,-4.17719 20.09375,-2.09375 4.54569,2.08344 6.98557,1.33724 11.53125,-1.125 4.54569,-2.46225 10.06139,-0.37198 13.28125,-3.78125 3.21987,-3.40926 7.73826,-5.12008 15.125,-8.71875 7.38674,-3.59867 15.74899,-13.83443 17.6875,-22.34375 1.93852,-8.50932 5.22321,-18.45982 12.1875,-19.53125 6.96429,-1.07143 13.13393,-1.63393 12.0625,-9.9375 -0.0118,-0.0917 -0.046,-0.16385 -0.0625,-0.25 z m -136.40625,16.2813 c -2.5431,0.0753 -4,0.6875 -4,0.6875 -1.60715,14.46428 7.96875,22.21875 7.96875,22.21875 -5.35714,18.75 -12.53125,29.90625 -12.53125,29.90625 -13.63706,1.89404 -19.42508,13.73758 -25.0625,19.375 -0.0946,-0.34057 -0.16292,-0.66294 -0.25,-1 -0.20598,1.73791 -0.23272,3.38478 0,4.84375 0,0 12.25446,-20.68303 26.71875,-21.21875 0,0 7.21154,-9.28613 13.78125,-32.53125 -8.59295,-6.51311 -8.8125,-19.53125 -8.8125,-19.53125 0,0 10.74146,0.17511 31.96875,9.90625 0.0878,-0.22663 0.15625,-0.46875 0.15625,-0.46875 -1.07143,-1.33929 -4.28125,-3.75 -4.28125,-3.75 0.036,-0.0858 0.0582,-0.16475 0.0937,-0.25 -0.0127,-0.008 -0.0185,-0.0236 -0.0312,-0.0312 -5.01369,-2.99586 -12.44398,-6.27786 -22.78125,-8.15625 -0.004,0.0206 -0.0312,0.15625 -0.0312,0.15625 -1.07143,-0.13393 -2.05855,-0.18136 -2.90625,-0.15625 z M 95.75,452.71875 c -0.0505,1.52656 -1.838054,1.96444 -2.625,4.71875 -0.758507,2.65478 1.444209,8.66961 6.6875,10.71875 -2.465867,-3.00608 -4.747479,-8.30318 -3.90625,-10.40625 1.092074,-2.73018 -0.06249,-4.86473 -0.15625,-5.03125 z m 170.6875,3.96875 -2.65625,0.9375 c -0.009,0.021 -0.0224,0.0414 -0.0312,0.0625 0.0729,0.3306 3.84112,17.20326 12.59375,27.8125 -0.075,-0.005 -0.1443,0.004 -0.21875,0 1.09328,0.47656 2.2481,0.9375 2.4375,0.9375 0.37881,0 -0.59375,-1.15625 -0.59375,-1.15625 -7.38679,-9.84899 -11.5313,-28.59375 -11.5313,-28.59375 z M 171.5625,459 c 1.53347,3.36629 4.19264,7.61789 8.3125,9.625 7.38674,3.59867 11.93638,5.30949 15.15625,8.71875 3.21986,3.40927 8.70431,1.319 13.25,3.78125 4.54568,2.46224 7.01681,3.20844 11.5625,1.125 4.54568,-2.08344 18.73667,1.33614 20.0625,2.09375 0,0 -3.14947,-14.04792 -12.84375,-15.4375 3.62637,2.33116 6.79464,6.60491 8.46875,11.125 0,0 -0.96875,0.98661 -6.59375,-1.15625 -5.625,-2.14286 -10.18304,1.89286 -14.46875,1.625 -4.28572,-0.26786 -4.28572,-4.83482 -11.25,-4.03125 -6.96429,0.80358 -9.125,-4.02678 -12.875,-6.4375 -3.75,-2.41071 -9.08036,-2.38839 -14.4375,-6.40625 -1.46899,-1.10174 -2.9576,-2.73551 -4.34375,-4.625 z m -87.625,13.0625 c -7.91974,-0.007 -7.59375,7.1875 -7.59375,7.1875 0,0 -8.415669,0.59474 -8.1875,7.8125 0.06175,1.95324 0.748023,3.42962 1.65625,4.6875 -1.154288,-11.50827 8.59375,-10.375 8.59375,-10.375 0,0 0.522322,-5.09822 3.46875,-6.4375 2.946429,-1.33929 8.5625,4.01785 12.3125,7.5 3.75,3.48214 7.10714,-3.45864 13.125,-2.65625 6.01786,0.80237 6.04464,9.89523 12.0625,11.5 6.01786,1.60476 5.62054,-1.58929 11.78125,-2.125 6.16072,-0.53572 7.23215,7.50447 11.25,16.34375 4.01786,8.83929 6.71428,2.3884 16.625,6.40625 9.91071,4.01786 7.20982,11.78572 12.03125,22.5 4.82143,10.71429 12.60267,16.34375 22.78125,20.09375 10.17857,3.75 15.53125,-1.60267 23.03125,-2.40625 7.5,-0.80357 16.59375,4.03125 16.59375,4.03125 -0.85714,-2.14286 -2.1755,-3.5585 -2.6875,-4.0625 -0.64735,-0.18668 -13.02592,-3.69248 -22.9375,-0.5625 -10.17857,3.21428 -20.81176,0.69576 -29.53125,-10.59375 -8.25623,-10.68972 -9.01339,-28.71428 -18.65625,-31.125 -9.64286,-2.41071 -13.59112,0.49487 -16.09375,-8.1875 -2.55489,-8.86369 -4.79911,-16.47321 -12.03125,-15.9375 -7.23215,0.53572 -5.57368,4.93382 -11.53125,3.21875 -5.58596,-1.60809 -4.28125,-11.33036 -12.78125,-11.9375 -8.499999,-0.60714 -7.558035,3.41606 -12.71875,2.6875 -5.57214,-0.78664 -2.64276,-7.5555 -10.5625,-7.5625 z m 460.46875,0 c -7.91974,0.007 -4.99036,6.77586 -10.5625,7.5625 -5.16072,0.72856 -4.1875,-3.29464 -12.6875,-2.6875 -8.5,0.60714 -7.22654,10.32941 -12.8125,11.9375 -5.95757,1.71507 -4.26785,-2.68303 -11.5,-3.21875 -7.23214,-0.53571 -9.50761,7.07381 -12.0625,15.9375 -2.50263,8.68237 -6.41964,5.77679 -16.0625,8.1875 -9.64286,2.41072 -10.43127,20.43528 -18.6875,31.125 -8.71949,11.28951 -19.35268,13.80803 -29.53125,10.59375 -9.96348,-3.14637 -22.41161,0.41018 -22.9375,0.5625 -0.512,0.504 -1.83036,1.91964 -2.6875,4.0625 0,0 9.09375,-4.83482 16.59375,-4.03125 7.5,0.80358 12.85268,6.15625 23.03125,2.40625 10.17858,-3.75 17.95982,-9.37946 22.78125,-20.09375 4.82143,-10.71428 2.15179,-18.48214 12.0625,-22.5 9.91072,-4.01785 12.57589,2.43304 16.59375,-6.40625 4.01785,-8.83928 5.08928,-16.87947 11.25,-16.34375 6.16071,0.53571 5.76339,3.72976 11.78125,2.125 6.01786,-1.60477 6.04464,-10.69763 12.0625,-11.5 6.01786,-0.80239 9.375,6.13839 13.125,2.65625 3.75,-3.48215 9.77232,-10.95293 15.71875,-8.25 0.20218,0.0919 0.35566,0.18548 0.53125,0.28125 -1.09038,-1.33448 -2.91008,-2.40898 -6,-2.40625 z m 7.59375,7 c -0.75479,1.31952 -2.03125,2.3125 -2.03125,2.3125 0,0 5.93388,-0.50271 9.6875,2.59375 C 557.83051,479.66598 552,479.25 552,479.25 c 0,0 5e-5,-0.11265 0,-0.1875 z m -306.03125,3.75 c 0,0 2.28093,4.54918 8.53125,5.875 6.25032,1.32583 13.24778,-1.12881 19.6875,-0.75 0,0 -0.74649,-1.27738 -3.21875,-2.4375 -8.28768,0.54152 -13.46255,3.01909 -24.59375,-2.6875 -0.004,-8e-5 -0.0271,8e-5 -0.0312,0 -0.0498,-9.1e-4 -0.375,0 -0.375,0 z M 73.8125,496.84375 c 0.365346,0.8579 0.479686,1.80657 0.125,2.9375 -1.721213,5.48816 -2.196428,12.45982 8.375,16.09375 3.964286,1.36272 5.39088,2.39857 5.65625,3.4375 l 0.03125,0 c 0,0 -0.735564,-4.35977 -5.28125,-5.875 -4.545687,-1.51523 -7.601364,-3.59343 -6.84375,-9.84375 0.6454,-5.32454 -1.430088,-6.51233 -2.0625,-6.75 z m 117.0625,0.375 c -2.68794,0.0407 -5.47615,0.64389 -8.25,2.0625 -0.47803,0.5288 -0.94538,1.08604 -1.375,1.75 -3.59349,5.55357 -0.8125,9.625 -0.8125,9.625 0,0 -0.9241,-10.48954 8.84375,-11.5 9.76786,-1.01047 19.8125,8.03125 19.8125,8.03125 -6.3674,5.30617 -15.02223,20.76705 -15.1875,21.0625 0.009,0.004 0.0219,-0.004 0.0312,0 0,0 -1.89286,5.09375 -1.625,8.84375 0,0 0.62437,0.22819 1.46875,0.5 3.14207,-9.17468 11.53997,-25.04424 17.75,-29.0625 4.91518,-3.18041 5.15123,-5.67357 4.96875,-6.71875 -0.002,-0.0127 0.002,-0.019 0,-0.0312 -0.15469,-0.0727 -0.30908,-0.14915 -0.46875,-0.21875 0,0 -3.38341,1.53966 -5.65625,3.8125 0,0 -8.95258,-8.31606 -19.5,-8.15625 z m 246.59375,0 c -5.76617,-0.0874 -11.01519,2.32874 -14.625,4.5625 -1.54298,2.09258 -2.28125,3.96875 -2.28125,3.96875 0,0 8.73214,-7.60422 18.5,-6.59375 9.76785,1.01046 8.84375,11.5 8.84375,11.5 0,0 2.78099,-4.07143 -0.8125,-9.625 -0.42111,-0.65081 -0.87732,-1.22925 -1.34375,-1.75 -2.77479,-1.41967 -5.59238,-2.02176 -8.28125,-2.0625 z m -25.15625,4.34375 c -14.77348,6.43972 -8.0625,26.34375 -8.0625,26.34375 -10.71429,3.48214 -9.65579,14.85714 -18.75,24.625 -9.09421,9.76786 -21.42857,8.30804 -31.875,6.96875 -8.70493,-1.11601 -13.57208,3.0429 -14.96875,4.46875 l -1.59375,4.65625 c 0,0 6.05424,-8.89975 19.3125,-6.4375 13.25825,2.46225 26.97768,0.70983 33.40625,-9.46875 6.42857,-10.17857 6.50446,-18.44643 17.21875,-23 L 406.09375,527.5 c -0.19375,-7.86189 -3.59233,-13.87655 6.28125,-25.90625 -0.005,-0.002 -0.0625,-0.0312 -0.0625,-0.0312 z m -143.71875,22.625 c -0.76243,0.004 -1.52364,0.054 -2.28125,0.125 0,0 0.7209,9.93475 1.46875,16.75 0.0754,-0.0768 0.13985,-0.13986 0.21875,-0.21875 2.84105,-2.84106 0.9375,-14 0.9375,-14 10.9854,0.75761 22,6.4375 22,6.4375 L 291.5,531.0625 c -0.50976,-0.30362 -11.73018,-6.93721 -22.90625,-6.875 z m 91.9375,0 c -11.21903,-0.062 -23.04186,6.52933 -23.65625,6.875 l 0.5625,2.21875 c 0,0 10.98335,-5.67989 21.96875,-6.4375 l 3.375,-2.21875 c 10e-4,-0.0138 0.0312,-0.3125 0.0312,-0.3125 -0.75761,-0.071 -1.51327,-0.12076 -2.28125,-0.125 z m -136.375,3.75 L 222.5,530.5 c 10.71429,4.55357 9.63393,12.04018 16.0625,22.21875 6.42857,10.17858 20.148,11.931 33.40625,9.46875 13.25826,-2.46225 20.84375,6.4375 20.84375,6.4375 0,0 0.5644,-15.54156 0.375,-17.625 -0.18941,-2.08344 -1.6875,-2.84375 -1.6875,-2.84375 0,0 -0.18521,0.0309 -0.1875,0.0312 0.004,0.0921 0.37695,9.49613 0,16.28125 0,0 -6.14732,-6.30803 -16.59375,-4.96875 -10.44643,1.33929 -22.78079,2.79911 -31.875,-6.96875 -9.07504,-9.74727 -8.04524,-21.08571 -18.6875,-24.59375 z m -44.625,27 c 0.2286,0.0982 0.45912,0.17675 0.6875,0.28125 0,0 -22.39498,3.94067 -39.0625,16.0625 0,0 -0.14865,-0.14507 -0.1875,-0.1875 2.5e-4,0.0285 -0.005,0.0689 0,0.0937 0.26786,1.33928 1.875,1.09375 1.875,1.09375 11.25,-8.57143 39.9375,-16.625 39.9375,-16.625 l -3.25,-0.71875 z m 269.28125,0 -3.21875,0.71875 c 0,0 28.65625,8.05357 39.90625,16.625 l 1,1.65625 c 0,0 -0.97988,1.38187 -2,3.3125 -2.16415,12.05135 3.27835,20.36885 7.9375,25.0625 -3.57834,-6.97164 -9.21033,-20.30454 -2.5,-29.53125 6.33463,-8.71011 18.35155,-8.93432 25.0625,-8.28125 -17.18388,-5.34955 -27.8125,6.78125 -27.8125,6.78125 -16.66752,-12.12183 -39.0625,-16.0625 -39.0625,-16.0625 0.22838,-0.1045 0.4589,-0.1831 0.6875,-0.28125 z m -248.46875,6.34375 -3.125,0.90625 c 0,0 -3.01839,12.49699 -13.625,15.90625 -10.6066,3.40927 -23.85295,1.37738 -28.78125,9.46875 -4.49524,7.38037 4.15848,9.83772 -2.28125,16.65625 -6.43972,6.81853 -19.37171,6.45403 -18.5625,18.1875 0.75762,10.98542 10.6112,8.33391 2.65625,15.53125 -7.95495,7.19734 -10.60898,8.34152 -9.09375,14.78125 1.51523,6.43973 11.45394,7.34474 6.8125,10.59375 -5.00112,3.50078 -5.61009,12.83773 0,15.03125 -0.67223,-2.11355 -1.57031,-5.57031 -1.21875,-8.03125 0.53571,-3.75 5.08929,-5.08483 3.75,-9.90625 -1.33929,-4.82143 -5.61607,-3.77232 -6.6875,-8.59375 -1.07143,-4.82143 4.01786,-8.8125 9.375,-12.5625 5.35714,-3.75 2.41518,-8.85714 -0.53125,-11 -2.94643,-2.14286 -4.01786,-10.18303 0,-12.59375 4.01785,-2.41071 16.84822,-8.30357 18.1875,-13.125 1.33929,-4.82143 -3.45536,-9.09821 0.5625,-14.1875 4.01785,-5.08928 22.20982,-6.70535 30.78125,-10.1875 8.57143,-3.48214 11.78125,-16.875 11.78125,-16.875 z m 227.65625,0 c 0,0 3.20982,13.39286 11.78125,16.875 8.57143,3.48215 27.87196,5.00447 33.46875,12.09375 0.73074,0.92561 1.24697,1.74951 1.59375,2.5 0.17181,-1.48577 -0.0692,-3.14621 -1.3125,-5.1875 -4.9283,-8.09137 -18.17465,-6.05948 -28.78125,-9.46875 -10.60661,-3.40926 -13.625,-15.90625 -13.625,-15.90625 L 428,561.28125 z m -305.875,3.875 c -0.39489,-0.005 -0.81051,0.0159 -1.21875,0.0312 -3.65782,0.13733 -7.84766,1.11719 -12.59375,3.34375 0,0 -0.27233,5.08928 0.53125,7.5 0,0 -21.6875,7.23661 -19.8125,20.09375 0,0 4.531249,-13.94196 21.40625,-17.15625 0,0 5.35268,17.9375 19.28125,27.3125 0,0 -16.32143,-20.60715 -19,-35.875 0,0 13.39732,-8.04018 29.46875,4.28125 0,0 -5.82101,-9.39116 -18.0625,-9.53125 z m 304.1875,4.96875 c 4.99296,5.6507 7.77809,13.82409 4.0625,18.96875 -4.92449,6.81853 -11.38183,18.93448 -7.59375,22.34375 3.78807,3.40926 8.70653,8.69289 6.8125,14.375 -1.89404,5.68211 -7.95415,21.23477 3.03125,22.75 10.98541,1.51523 10.23477,7.19369 11.75,15.90625 1.30622,7.51075 5.7213,7.69311 12.25,6.875 -3.06556,-1.41694 -8.94215,-4.52794 -9.5,-7.875 -0.75761,-4.54568 -1.89562,-9.48937 -6.0625,-13.65625 -4.16688,-4.16688 -10.98858,-4.14943 -12.125,-7.9375 -1.13643,-3.78807 -0.75302,-9.09914 2.65625,-14.78125 3.40926,-5.68211 -1.90323,-9.48937 -5.3125,-13.65625 -3.40926,-4.16688 -2.65546,-6.42385 0.375,-14 3.03046,-7.57614 8.33154,-13.27522 6.4375,-20.09375 -1.31192,-4.72293 -4.76446,-7.76988 -6.78125,-9.21875 z M 252.59375,574.3125 251,575.15625 c -0.0643,0.2739 -1.16147,4.88753 -3,7.09375 0,0 -11.41574,-2.33071 -20.03125,9.65625 -0.0692,2.11822 0.1875,3.8125 0.1875,3.8125 0,0 3.02982,-7.38721 12.5,-9.28125 9.47018,-1.89404 17.25,6.0625 17.25,6.0625 -1.51523,-5.87152 -7,-8.53125 -7,-8.53125 3.40926,-4.73509 1.6875,-9.65625 1.6875,-9.65625 z m 116.96875,1.875 c -0.0552,0.17479 -0.087,0.35789 -0.125,0.53125 0.0304,0.003 0.1875,0 0.1875,0 0.75761,4.54569 3.40625,7.9375 3.40625,7.9375 -0.0998,0.0683 -0.18343,0.14955 -0.28125,0.21875 0.61563,0.60858 1.09375,0.96875 1.09375,0.96875 -12.32143,9.10715 -8.3125,23.03125 -8.3125,23.03125 0,0 1.08035,-18.74107 12.0625,-23.5625 6.73052,-2.95486 15.16069,0.73503 20.6875,4.03125 -8.25999,-9.05843 -17.9375,-7.09375 -17.9375,-7.09375 -2.87808,0.62625 -4.90625,1.1875 -4.90625,1.1875 l -5.875,-7.25 z M 518.71875,577.5 c 13.41978,5.06631 20.625,18.625 20.625,18.625 -2.67069,-17.78163 -20.625,-18.625 -20.625,-18.625 z M 277.125,581.875 c 2.67868,2.12002 5.05484,5.08294 6.59375,9.21875 0,0 3.03505,16.67861 2.65625,42.4375 -0.37881,25.75889 0.49895,53.31778 -3.53125,60.875 -4.0302,7.55722 -13.22772,8.36415 -21.53125,5.78125 -8.30353,-2.5829 -10.88027,3.0803 -16.1875,3.0625 -5.30723,-0.0178 -6.84258,-3.2601 -15.96875,-2.4375 -7.28156,0.65634 -10.37054,5.16964 -14.65625,5.4375 -4.28571,0.26786 -7.35268,-1.28297 -16.65625,3.21875 -9.30358,4.50173 -13.03571,-1.65625 -18.125,-5.40625 -5.08928,-3.75 -11.76786,-2.96429 -20.875,0.25 -9.10715,3.21428 -16.34375,1.625 -16.34375,1.625 0,0 -0.0201,0.34425 0,0.8125 3.64086,3.47209 10.72075,2.49481 14.03125,1.3125 3.75,-1.33929 16.33035,-5.89286 21.6875,-1.875 5.35714,4.01785 13.375,10.73214 19,7.25 5.625,-3.48214 9.38393,-4.5625 17.6875,-4.5625 8.30358,0 8.04911,-4.80357 15.28125,-5.875 7.23214,-1.07143 9.10714,4.2634 16.875,2.65625 7.76786,-1.60714 10.96875,-4.79911 16.59375,-2.65625 5.625,2.14286 6.42857,0.80357 13.125,0 6.69642,-0.80357 10.71428,-9.64286 11.25,-15 0.53571,-5.35714 2.40625,-87.85714 -1.34375,-97.5 -3.08594,-7.93527 -7.92602,-8.63035 -9.5625,-8.625 z m 196.4375,18.71875 c -0.38714,1.09116 -0.58175,2.31197 -0.15625,3.84375 1.49164,5.36993 13.90221,8.35292 20.96875,17.875 0.73163,-11.63479 -12.14052,-11.294 -18.5625,-18.09375 -1.28209,-1.35751 -1.94209,-2.53924 -2.25,-3.625 z m -242.5,4.96875 c -2.27284,2.08344 -6.2538,10.77712 -5.875,17.40625 0.37881,6.62912 5.5,9.6875 5.5,9.6875 -5.49271,-6.81853 0.375,-27.09375 0.375,-27.09375 z m 142.5,8.6875 c 0,0 1.60714,10.6875 9.375,16.3125 0,0 -5.35714,-12.83036 -9.375,-16.3125 z m 91.09375,57.625 c 4.20527,2.65551 6.02092,9.67258 12.6875,12.28125 1.3885,0.54332 2.62432,0.78551 3.71875,0.78125 -3.76597,-2.32791 -8.54401,-7.23088 -11.21875,-10.5 -1.29957,-1.58837 -3.25736,-2.29337 -5.1875,-2.5625 z m -325.09375,6.1875 c 0,0 -0.047,0.34245 -0.0625,0.4375 0.0529,-0.0121 0.10282,-0.0184 0.15625,-0.0312 0,0 1.96382,6.73126 8.03125,6.46875 -1.46983,-1.00624 -3.35777,-2.40304 -3.84375,-3.375 -0.80358,-1.60714 -4.28125,-3.5 -4.28125,-3.5 z m 207.3125,18.40625 c 0.34048,3.3625 1.45116,6.14289 4.6875,6.53125 6.69643,0.80357 7.5,2.14286 13.125,0 5.625,-2.14286 8.85714,1.04911 16.625,2.65625 7.76786,1.60715 9.64286,-3.72768 16.875,-2.65625 7.23214,1.07143 6.94642,5.875 15.25,5.875 8.30357,0 12.0625,1.08036 17.6875,4.5625 5.625,3.48214 13.64286,-3.23215 19,-7.25 5.35715,-4.01786 17.96875,0.53571 21.71875,1.875 3.3105,1.18231 10.36485,2.15959 14,-1.3125 0.0201,-0.46864 0,-0.8125 0,-0.8125 0,0 -7.2366,1.58928 -16.34375,-1.625 -9.10714,-3.21429 -15.78572,-4 -20.875,-0.25 -5.08929,3.75 -8.82142,9.90798 -18.125,5.40625 -9.30357,-4.50172 -12.37054,-2.95089 -16.65625,-3.21875 -4.28571,-0.26786 -7.37469,-4.78116 -14.65625,-5.4375 -9.12617,-0.8226 -10.63027,2.4197 -15.9375,2.4375 -5.30723,0.0178 -7.91522,-5.6454 -16.21875,-3.0625 -7.47149,2.32409 -15.65279,1.89444 -20.15625,-3.71875 z m -108.65625,26.71875 -0.28125,0.15625 c 0.13433,0.0799 0.28125,0.1875 0.28125,0.1875 0,0 2.41518,17.67411 -4.28125,19.28125 -6.69642,1.60714 -6.16072,-4.54911 -13.125,-2.40625 -6.96429,2.14286 -7.5,9.10268 -13.125,8.03125 -5.625,-1.07143 -11.54018,-1.88839 -12.34375,3.46875 0,0 0.11657,0.0101 0.25,0 l 0.0312,0 0.15625,-0.125 c 3.78807,-3.40927 6.05267,-1.72066 13.25,-1.53125 7.19734,0.1894 7.7611,-6.80298 12.875,-7.75 5.1139,-0.94702 6.27713,3.41957 12.90625,2.09375 6.62913,-1.32583 5.84565,-8.72414 5.65625,-14.40625 -0.1894,-5.6821 -2.25,-7 -2.25,-7 z M 187.875,725.875 c -1.39365,0.0707 -2.6875,0.53125 -2.6875,0.53125 l -0.375,0.0937 c 0.17591,0.0232 0.35138,0.053 0.53125,0.0625 0,0 0.63839,3.38393 -6.59375,4.1875 -7.07644,0.78627 -10.81645,6.96423 -9.46875,12.75 1.7442,-5.43584 7.01771,-9.71719 11.90625,-10.28125 4.9245,-0.56821 10.98207,-4.16656 9.65625,-6.25 -0.49719,-0.78129 -1.41503,-1.05491 -2.375,-1.09375 -0.19999,-0.008 -0.39466,-0.0101 -0.59375,0 z m 254.625,0.25 c 0,0 -1.0759,2.93304 2.40625,5.34375 3.48214,2.41072 7.50893,1.34821 10.1875,4.5625 1.57452,1.88942 3.12959,3.08573 4.15625,3.625 -0.64557,-4.41 -4.15412,-8.2949 -9.65625,-8.90625 C 442.36161,729.94643 443,726.5625 443,726.5625 c 0.10556,-0.006 0.20831,-0.0209 0.3125,-0.0312 -0.27222,-0.12554 -0.54713,-0.2603 -0.8125,-0.40625 z m -143.9375,1.40625 -0.0937,0.28125 c 0,0 1.88392,10.51785 0.8125,17.75 0,0 -12.05358,-1.59375 -18.75,7.78125 -6.69643,9.375 -6.67857,11.2366 -17.125,12.84375 -9.4308,1.45089 -9.69445,12.21882 -9.65625,14.3125 0.0331,0.0179 0.0601,0.0451 0.0937,0.0625 0,0 1.08035,-10.42857 12.0625,-11.5 10.98214,-1.07143 14.06387,-6.90847 16.59375,-12.59375 3.42481,-7.69644 11.77679,-9.38393 17.9375,-8.3125 0,0 1.36161,-4.28571 1.09375,-11.25 -0.26786,-6.96428 -2.96875,-9.375 -2.96875,-9.375 z m 68.65625,3.40625 -0.0625,0.21875 c 2.02199,1.5091 3.49859,3.89583 3.96875,7.375 1.33928,9.91071 7.77678,16.33928 13.9375,18.75 6.16071,2.41071 6.6875,8.29018 2.9375,12.84375 -3.47762,4.22282 -0.32737,8.62536 0.15625,9.25 l 0.25,-0.21875 c -1.60714,-6.16072 2.66518,-9.37053 3.46875,-13.65625 0.80357,-4.28571 -1.875,-8.85714 -7.5,-11 -5.625,-2.14286 -8.85267,-7.24107 -9.65625,-13.9375 -0.80357,-6.69643 -7.5,-9.625 -7.5,-9.625 z m 38.03125,9 c -4.65454,-0.27832 -4.95313,4.28125 -10.8125,2.875 -0.59782,-0.14348 -1.1329,-0.40561 -1.59375,-0.78125 0.87012,1.15639 3.125,3.36607 7.34375,2.5625 5.625,-1.07142 8.29017,-3.48214 10.96875,1.875 2.67857,5.35715 6.96428,5.63839 11.25,4.03125 4.19347,-1.57255 8.13641,-1.36375 10.5625,1.40625 0.003,3.7e-4 0.0312,0 0.0312,0 -0.80357,-5.35714 -6.6875,-4.54018 -12.3125,-3.46875 -5.625,1.07143 -6.16071,-5.88839 -13.125,-8.03125 -0.87054,-0.26786 -1.64757,-0.42899 -2.3125,-0.46875 z m -74.1875,5.53125 c -0.94515,0.003 -1.491,0.066 -1.75,0.0937 l -0.125,0.0937 c 0,0 -0.25447,2.95089 5.90625,3.21875 6.16071,0.26786 12.84821,7.50447 14.1875,12.59375 1.33928,5.08929 7.23214,6.16964 13.125,6.4375 4.29774,0.19535 8.83653,3.66837 11,5.53125 -1.20538,-3.24805 -3.58355,-6.50324 -8.4375,-7.25 -10.44643,-1.60715 -10.45982,-3.46875 -17.15625,-12.84375 -5.02231,-7.03125 -13.04604,-7.88756 -16.75,-7.875 z m -105.625,10.1875 c -0.0412,0.17969 -0.0554,0.35331 -0.0937,0.53125 0,0 3.75446,3.49107 3.21875,10.1875 -0.53572,6.69643 4.29464,7.78125 6.4375,7.78125 1.90573,0 4.3359,4.031 4.875,4.96875 0.0126,-0.0531 0.0203,-0.10137 0.0312,-0.15625 1.07143,-5.35714 -2.13393,-5.61161 -6.6875,-7.21875 -4.55358,-1.60714 -3.20536,-5.64732 -2.9375,-10.46875 0.26785,-4.82143 -4.84375,-5.625 -4.84375,-5.625 z m 78.40625,7.0625 c 0,0 0.79464,11.26339 2.9375,17.15625 2.14285,5.89286 0.79911,11.23661 2.40625,16.59375 1.60714,5.35715 -1.05048,10.99108 5,15.8125 0.0915,-0.0729 0.16245,-0.14547 0.25,-0.21875 L 314.46875,812 c 0,0 -3.22322,-6.70089 -2.6875,-10.71875 0.53571,-4.01785 -1.59375,-6.16071 -1.59375,-9.375 0,-3.21428 0.25,-9.625 -1.625,-13.375 -1.875,-3.75 -1.34375,-6.97768 -1.34375,-11.53125 0,-4.35337 -3.09622,-4.29472 -3.375,-4.28125 z" style="color:#000000;fill:#ffffff;stroke:none;stroke-width:1;marker:none;visibility:visible;display:inline;overflow:visible;enable-background:accumulate" inkscape:connector-curvature="0"/>
        <path id="path3915" d="m 205.53125,721.71875 c -2.0904,0.30504 -2.88519,2.59935 -2.90625,4.3125 0,0.90774 -0.0979,1.47784 -0.21875,1.84375 -0.12082,0.36591 -0.25526,0.51949 -0.46875,0.71875 -0.42699,0.39852 -1.22314,0.85252 -1.9375,2.28125 -1.35292,2.16862 -3.04759,3.53668 -4.90625,5.3125 2.28752,-0.98087 4.67225,-2.64808 5.8125,-4.84375 0.62492,-1.24984 1.14127,-1.46102 1.71875,-2 0.28874,-0.26949 0.57785,-0.63488 0.75,-1.15625 0.17215,-0.52137 0.25,-1.18899 0.25,-2.15625 0.0935,-1.72535 0.49472,-3.06793 1.90625,-4.3125 z M 265.5,721.875 c -3.1725,-0.0254 -5.85648,1.63387 -6.625,4.5625 -0.37642,1.50569 -1.33834,3.36652 -2.3125,5.28125 -0.97416,1.91473 -1.96398,3.89086 -2.25,5.75 -0.23666,1.53826 -1.36368,2.56315 -2.59375,3.59375 -1.23007,1.0306 -2.58882,2.04439 -2.75,3.65625 -0.0497,0.49724 -0.43801,1.30876 -1.03125,2.15625 -0.59324,0.84749 -1.3796,1.73628 -2.15625,2.5625 -1.5533,1.65244 -3.875,4.3125 -3.875,4.3125 3.68955,-0.92839 7.26006,-2.91534 9.09375,-6.15625 -1.90775,1.66766 -4.12363,3.26156 -6.25,4.28125 0.51477,-0.49264 1.13821,-1.09917 1.75,-1.75 0.79701,-0.84788 1.61277,-1.77718 2.25,-2.6875 0.63723,-0.91032 1.13454,-1.78295 1.21875,-2.625 0.10667,-1.06672 1.15864,-1.92345 2.40625,-2.96875 1.24761,-1.0453 2.63844,-2.27486 2.9375,-4.21875 0.24969,-1.623 1.1572,-3.53527 2.125,-5.4375 0.9678,-1.90223 2.01035,-3.7914 2.4375,-5.5 0.96771,-3.53791 4.34138,-3.93289 7,-4.6875 -0.46951,-0.0731 -0.92179,-0.12137 -1.375,-0.125 z m -7.875,0.375 c -1.48156,0.11555 -2.54518,0.9783 -3.34375,2 -0.91265,1.16766 -1.46611,2.54138 -1.8125,3.875 -0.69279,2.66723 -0.0625,5.125 -0.0625,5.125 0,0 0.38475,-2.35473 1.03125,-4.84375 0.32325,-1.24451 0.83006,-2.5142 1.625,-3.53125 0.79494,-1.01705 1.83963,-1.83052 3.21875,-2.625 -0.22939,-0.0156 -0.4446,-0.0165 -0.65625,0 z" style="font-size:medium;font-style:normal;font-variant:normal;font-weight:normal;font-stretch:normal;text-indent:0;text-align:start;text-decoration:none;line-height:normal;letter-spacing:normal;word-spacing:normal;text-transform:none;direction:ltr;block-progression:tb;writing-mode:lr-tb;text-anchor:start;baseline-shift:baseline;color:#000000;fill:#473c18;fill-opacity:1;stroke:none;stroke-width:1;marker:none;visibility:visible;display:inline;overflow:visible;enable-background:accumulate;font-family:Sans;-inkscape-font-specification:Sans" inkscape:connector-curvature="0"/>
        <g id="g4339">
          <path sodipodi:nodetypes="scscsccsccscssscsscccsscsssscsssccscsscscscscsssscssscscscscccsccccscscssccccsscscscsscscccsscscsscscscscssscsscscscccccccccsccssccsscscssccsccccscccccssccscscssccsccsccccccccccccccsccccccccccccccccccccscccccccccccccccccccccccccccccccccscccccscccccccccccccccccccccccccccscccscscccsccccsssccsccccscccscccscsccccccccscccccccccscccsccccccccccccccccccccccccccccccccccccccccccccccccscccccccccccscsccccscccccccccccccccccscc" inkscape:connector-curvature="0" id="path3856" d="m 201.2812,415.0312 c 0,0.22316 0.0536,0.43473 0.0625,0.65625 -3.02825,-4.20106 -9.40584,-10.77467 -14.53125,-14.875 -4.5287,-3.62296 -15.09375,-14.39063 -15.09375,-14.39063 0,0 9.73749,11.38686 14.46875,15.17188 5.60457,4.48366 13.12661,12.43902 15.34375,16.09375 0.85045,5.45018 4.08935,10.31367 6.9375,14.03125 -2.17883,-1.28654 -4.15056,-2.73179 -6.1875,-4.15625 -2.68107,-1.87491 -5.61543,-3.61018 -9.59375,-4.5 l -0.0312,0 c -3.75569,-0.8346 -8.66843,-3.82731 -12.59375,-6.625 -3.92532,-2.79769 -7.20313,-5.03125 -7.20313,-5.03125 0,0 2.67159,3.01489 6.64063,5.84375 3.96904,2.82886 8.87466,5.8784 12.9375,6.78125 3.82413,0.84981 6.60069,2.5223 9.25,4.375 2.63149,1.84023 5.15319,3.86388 8.40625,5.40625 0.49805,0.62966 1.07196,1.34595 1.46875,1.875 1.53314,2.04419 2.60145,5.09738 3.8125,8.125 0.39442,0.98606 0.86181,1.92632 1.3125,2.875 -1.54239,-0.84498 -9.3535,-4.97093 -18.07813,-3.0625 9.31082,-0.97722 18.70313,4.40625 18.70313,4.40625 0.79337,1.45185 1.72718,2.78082 2.90625,3.8125 2.14952,1.88083 3.44843,2.94436 4.40625,4.09375 0.95782,1.14939 1.61146,2.42814 2.875,4.64062 -0.3436,-2.60894 -1.04264,-4.00429 -2.09375,-5.26562 -1.05111,-1.26133 -2.39505,-2.34958 -4.53125,-4.21875 -2.0252,-1.77205 -3.36284,-4.65709 -4.5625,-7.65625 -1.19966,-2.99916 -2.25636,-6.10223 -3.9375,-8.34375 -0.97535,-1.30047 -2.41312,-3.33057 -3.75,-5.125 -0.0209,-0.59872 -0.19768,-6.15915 2.5,-9.53125 0.84776,-1.0597 1.46125,-2.71017 1.9375,-4.6875 0.47625,-1.97733 0.80139,-4.26727 0.96875,-6.5625 0.16736,-2.29523 0.18162,-4.58961 0.0312,-6.5625 -0.15037,-1.97289 -0.43263,-3.61526 -1.42188,-4.46875 -0.0422,1.04055 0.27631,2.62136 0.42188,4.53125 0.14557,1.90989 0.13285,4.18705 -0.0312,6.4375 -0.1641,2.25045 -0.47857,4.5008 -0.9375,6.40625 -0.45893,1.90545 -1.08254,3.44692 -1.75,4.28125 -2.50544,3.1318 -2.65614,6.99696 -2.65625,8.90625 -2.80134,-3.96741 -5.40625,-8.48679 -5.40625,-13.6875 0,-3.88739 -1.0372,-7.07615 -2.4219,-10.125 0,0 -1.08115,-7.47685 1.8906,-14.90625 3.10623,-7.76557 0.65625,-16.45313 0.65625,-16.45313 0,0 1.36094,8.72267 -1.59375,16.10938 -2.31686,5.79216 -2.21407,10.47538 -2.03125,13 -1.59593,-3.0158 -3.45837,-5.94798 -5.125,-9.28125 -1.82602,-3.65204 -1.95975,-6.89122 -2.09375,-9.90625 -0.134,-3.01503 -0.27189,-5.83172 -2.25,-8.375 -1.72781,-2.22147 -2.83879,-7.14475 -3.4375,-11.46875 -0.59871,-4.324 -1.21873,-8.04688 -1.21873,-8.04688 0,0 -0.38787,3.79052 0.21878,8.17188 0.60665,4.38136 1.63406,9.36879 3.65625,11.96875 1.77189,2.27814 1.89739,4.80075 2.03125,7.8125 0.10016,2.25366 0.46131,4.83401 1.3125,7.5625 -1.40729,-1.39767 -3.09862,-2.864 -4.75,-4.09375 -2.23935,-1.6676 -4.42188,-2.48438 -4.42188,-2.48438 0,0 1.61649,1.64992 3.82813,3.29688 2.21164,1.64696 4.74423,3.72918 6.12497,5.6875 3.90905,7.9119 8.62498,13.14732 8.62498,21.53125 z M 72.984375,379.98437 c 0,0 -0.703449,5.30798 4.15625,8.32813 -2.905849,-3.60897 -4.15625,-8.32813 -4.15625,-8.32813 z m 36.984375,48.92188 c 5.24331,6.81631 7.27558,9.06638 9.53125,11.5 -14.7804,-0.22735 -31.75,-3.98438 -31.75,-3.98438 0,0 17.52144,4.99842 32.71875,5.04688 2.60034,2.98277 6.50867,5.69501 9.9375,6.8437 -3.03772,0.6077 -6.62427,2.51728 -13.71875,6.21875 -8.43505,4.40089 -16.796875,-1.0625 -16.796875,-1.0625 0,0 8.275535,6.65924 17.265625,1.96875 8.71563,-4.54729 12.08842,-6.40625 14.94238,-6.21093 2.85396,0.19531 5.36709,0.56293 7.68262,0.77343 2.658,0.24163 6.72568,3.12356 11.28125,6.40625 0.45371,0.32694 0.97316,0.63687 1.4375,0.96875 -5.96137,2.74596 -15.875,4.04687 -15.875,4.04687 0,0 10.63519,-0.20822 16.875,-3.32812 3.92638,2.77015 8.08917,5.51171 12.5625,6.40625 -4.81894,-2.03987 -9.88593,-5.62644 -14.4375,-8.90625 -4.55157,-3.27981 -8.51514,-6.29967 -11.75,-6.59375 -5.77092,-0.52463 -12.45102,-1.57934 -17.125,-6.5625 0.0573,-0.41074 0.66236,-4.45665 0.84375,-10.125 0.19033,-5.94779 -0.0898,-13.16434 -2.5,-18.23435 1.37787,5.15779 1.68848,12.31321 1.5,18.20315 -0.16494,5.15442 -0.65262,8.22448 -0.78125,9.1875 -3.12868,-3.42367 -4.67887,-4.85752 -11.0625,-13.15625 -6.82898,-8.87765 -12.390304,-22.26207 -22.09375,-28.5 -9.424081,-6.05832 -17.9375,-14.59375 -17.9375,-14.59375 0,0 3.778972,6.55117 16.080425,14.45923 5.752188,3.69783 9.377886,8.44439 12.700825,13.41577 -15.001761,-1.22925 -25.75,-5.07813 -25.75,-5.07813 0,0 10.857986,5.02963 26.46875,6.14063 3.30203,5.01812 6.37858,10.36716 9.75,14.75 z M 106.5625,409.9375 c 0.37675,4.33261 0.90625,7.9375 0.90625,7.9375 0,0 0.4746,-3.62004 0.0937,-8 -0.38087,-4.37996 -1.10146,-9.51542 -3.14062,-12.46875 0.99129,3.10759 1.76387,8.19864 2.14062,12.53125 z m -13.875,13.15625 c -3.722999,-1.97932 -6.828125,-3.32813 -6.828125,-3.32813 0,0 2.600932,2.20497 6.359375,4.20313 3.758443,1.99816 8.39082,4.22044 12.20313,4.5 -3.38504,-1.23567 -8.011381,-3.39568 -11.73438,-5.375 z m 129.42187,1.57812 c 1.38344,10.91143 -1.51562,21.60938 -1.51562,21.60938 0,0 4.86729,-8.08773 1.51562,-21.60938 z M 149.375,442.15625 c 0.76166,5.7124 2.39062,10.17187 2.39062,10.17187 0,0 -0.63704,-4.64507 -1.39062,-10.29687 -0.79878,-5.99088 -6.98556,-10.92547 -9.57813,-12.42188 1.95312,2.29166 7.86169,7.17354 8.57813,12.54688 z m -14.59375,-4.9375 c -0.98541,-3.37854 -1.9375,-6.10938 -1.9375,-6.10938 0,0 -0.0346,2.95065 0.96875,6.39063 1.00333,3.43998 2.52056,7.47698 5.07812,9.53125 -1.60931,-2.49142 -3.12396,-6.43396 -4.10937,-9.8125 z m 93,3.75 c -2.01705,6.82005 0,12.125 0,12.125 0,0 0.12301,-5.30799 0,-12.125 z M 105.1875,462.17187 c 0,0 3.59875,-2.14062 8.34375,-2.64062 -5.10398,-0.5 -8.34375,2.64062 -8.34375,2.64062 z m 61.78125,83.95313 c 2.99123,1.42763 5.82589,2.28125 7.84375,1.78125 -1.73214,-0.5 -4.50462,-1.27138 -7.40625,-2.65625 -2.90163,-1.38487 -5.95416,-3.39166 -8.3125,-5.75 -4.78651,-4.78651 -9.74365,-11.25265 -15.85938,-13 -0.14037,-0.3817 -0.29171,-2.21652 -0.95312,-4.90625 -0.72047,-2.92991 -1.9496,-6.41835 -4.15625,-8.625 -1.92809,-1.92809 -3.11054,-5.74074 -3.71875,-9.0625 -0.60821,-3.32176 -1.1875,-6.1094 -1.1875,-6.1094 0,0 -0.4042,2.89478 0.21875,6.29685 0.62291,3.40207 1.72996,7.35496 3.96875,9.59375 1.96023,1.96023 3.20619,5.2781 3.90625,8.125 0.58178,2.36592 0.65856,3.70133 0.71875,4.3125 -5.6535,-1.60257 -12.97299,-3.66724 -18.875,-8.09375 -0.3349,-0.25118 -0.86244,-0.5844 -1.21875,-0.84375 -0.0459,-0.33589 -0.79425,-5.65533 -3.03125,-10.875 -1.08945,-2.54204 -1.18463,-5.33485 -1.375,-8 -0.19037,-2.66515 -0.49677,-5.24596 -2.5,-6.96875 1.02723,2.06528 1.31156,4.42435 1.5,7.0625 0.18844,2.63815 0.2541,5.51999 1.4375,8.28125 1.84533,4.30577 2.54404,8.18032 2.78125,9.65625 -4.42819,-3.42812 -9.47405,-6.55505 -13.73437,-9.8593 -0.40416,-13.19779 -5.625,-22.3281 -5.625,-22.3281 0,0 3.83929,11.11869 4.70312,21.8125 -2.21589,-1.69077 -4.26597,-3.39097 -5.90625,-5.03125 -9.913188,-11.23905 -22.023239,-17.45928 -22.023239,-17.45928 0,0 12.877099,10.17941 19.429489,16.45923 -4.770648,0 -12.859375,-1.76563 -12.859375,-1.76563 0,0 7.781035,2.76563 13.796875,3.125 5.58869,5.01057 12.72517,9.71163 18.84375,13.92188 -1.83896,0.66167 -5.74026,1.81806 -9.6875,-0.4375 C 104.91674,513.19796 99.280508,511.42373 94.25,510 c -5.030508,-1.42373 -9.515625,-1.98438 -9.515625,-1.98438 0,0 4.22649,1.5358 9.234375,2.95313 5.007885,1.41733 10.71746,3.24033 13.25,4.6875 4.88491,2.79137 9.84769,0.8429 11.1875,0.28125 1.35974,0.94379 3.02005,2.0541 4.15625,2.90625 3.43206,2.57405 7.29787,4.31673 11.0625,5.6875 -2.31322,-0.12681 -8.23053,-0.33709 -14.5625,1.5625 -3.6504,1.09512 -8.92282,0.9391 -13.25,0.46875 -4.32718,-0.47035 -7.828125,-0.73438 -7.828125,-0.73438 0,0 3.317745,1.25771 7.703125,1.73438 4.38538,0.47667 9.73051,0.67773 13.65625,-0.5 7.44579,-2.23374 16.10935,-1.71875 16.10935,-1.71875 2.70351,0.67406 5.41801,1.53015 7.60935,2.15625 5.49365,1.56962 10.4874,7.8624 15.34375,12.71875 1.20081,1.20081 2.57763,2.27398 4,3.25 -10.24884,-0.92963 -22.7656,2.42187 -22.7656,2.42187 0,0 13.36945,-2.51103 23.4844,-1.67187 1.29357,0.53457 2.56758,1.29717 3.84375,1.90625 z m 71.04682,-55.46875 c -1.71506,-2.21392 -3.96872,-1.51563 -3.96872,-1.51563 0,0 2.08518,1.0779 3.96872,1.51563 z m 20.26568,5.2969 c -3.79475,1.86188 -8.14063,0.0156 -8.14063,0.0156 0,0 3.98043,3.80458 8.14063,-0.0156 z m 13.28125,1.42185 c 4.57005,1.82987 8.27267,2.80507 11.5625,5.65625 -0.48904,-3.30194 -1.77731,-5.96346 -4.01558,-6.70313 1.70277,1.28696 2.29274,3.11471 2.57813,4.32813 -2.99698,-2.1089 -6.63044,-3.05792 -9.78125,-4.21875 -0.96108,-0.35408 -2.00628,-0.52597 -3.03125,-0.59375 l -5e-5,0 c -3.07492,-0.20334 -5.84375,1.04687 -5.84375,1.04687 0,0 5.17823,-0.75094 8.53125,0.48438 z m -19.15625,3.3125 c -3.25106,-1.54474 -6.23438,-4.34375 -6.23438,-4.34375 0,0 1.15168,4.37326 6.23438,4.34375 z m 9.67187,-1.5 c -3.42646,1.33589 -7,0.5625 -7,0.5625 0,0 3.60795,3.02611 7,-0.5625 z m -15.67187,2.49995 c 1.61717,1.02911 3.8155,2.00798 6,1.09375 -1.98238,-0.15661 -3.96076,-0.97787 -5.46875,-1.9375 -1.50799,-0.95963 -2.85938,-1.65625 -2.85938,-1.65625 0,0 0.71096,1.47089 2.32813,2.5 z M 273.125,500.6562 c -1.03494,-0.67271 -2.17986,-0.97756 -3.34375,-1.0625 -1.16389,-0.0849 -2.31753,0.0423 -3.34375,0.25 -2.05243,0.41537 -3.42188,1.60937 -3.42188,1.60937 0,0 1.68434,-0.25103 3.60938,-0.64062 1.92504,-0.38959 4.25055,-0.42933 5.96875,0.6875 3.87354,2.5178 7.46875,2.59375 7.46875,2.59375 0,0 -3.2349,-1.0308 -6.9375,-3.4375 z M 292,510.34375 c -1.74677,-4.02283 -6.64063,-6.42188 -6.64063,-6.42188 0,0 2.70529,3.62618 6.64063,6.42188 z M 274.375,505.125 c -2.19452,-1.29843 -4.52883,-1.5013 -6.28125,-1.5 -1.75242,10e-4 -2.82813,0.70312 -2.82813,0.70312 0,0 4.54754,-0.28928 9.10938,0.79688 z m 9.09375,2.76562 c 0,0 4.26155,2.73128 6.625,5.29688 -1.4246,-4.25293 -6.625,-5.29688 -6.625,-5.29688 z m 13.9375,3.67188 C 296.06327,508.78917 295,508.34375 295,508.34375 c 0,0 1.19505,1.67387 2.40625,3.21875 z m -0.53125,8.29687 c -0.36015,-5.03082 -4.29688,-5.89062 -4.29688,-5.89062 0,0 2.54668,2.47443 4.29688,5.89062 z m -139.90625,8.32813 c 1.15543,6.1623 4.28125,9.75 4.28125,9.75 0,0 -2.19509,-3.97796 -3.3125,-9.9375 -1.14453,-6.10418 -3.51563,-11.65625 -3.51563,-11.65625 0,0 1.41857,5.82611 2.54688,11.84375 z m 139.375,4.53125 c 0,0 2.14072,-8.48347 -3.21875,-13.125 2.93064,5.15824 3.21875,13.125 3.21875,13.125 z m 2.6875,-5.90625 c 1.25761,-2.28647 -0.54688,-5.34375 -0.54688,-5.34375 0,0 0.0469,3.84771 0.54688,5.34375 z M 129.4375,538.70312 c 0,0 13.77703,-2.9176 21.57812,-3.04687 -8.86643,-1.64448 -21.57812,3.04687 -21.57812,3.04687 z m 87.78125,21.76563 c 0.8586,-0.0878 1.51928,-0.21463 3.46875,-0.125 2.86281,0.13162 6.34291,0.72635 9.04687,2.10937 -2.38531,-2.36697 -6.02129,-2.97313 -8.98437,-3.10937 -2.15825,-0.12997 -4.30982,0.03 -6.4375,0.375 4.40979,2.85344 7.2386,5.61379 12.75,4.34375 -4.9167,-0.5 -8.32169,-2.56977 -9.84375,-3.59375 z m 28.84375,4.65625 c -5.3869,-0.5 -11.78125,-4.01563 -11.78125,-4.01563 0,0 4.57886,5.3192 11.78125,4.01563 z m -7.5,1.0625 c -4.06289,-0.75589 -7.48438,-2.9375 -7.48438,-2.9375 0,0 2.70797,3.96124 7.48438,2.9375 z m 1.60935,3.75 c -5.68983,-0.75934 -9.375,-3.73438 -9.375,-3.73438 0,0 2.20768,4.76157 9.375,3.73438 z m 33.75005,0.0156 c -7.43233,0.30693 -14.45313,-1.0625 -14.45313,-1.0625 0,0 6.6176,3.43415 14.45313,1.0625 z m -21.68753,0.26563 C 248.5129,568.62956 244.1875,570.5 244.1875,570.5 c 0,0 4.80408,0.77224 8.04687,-0.28125 z m 38.5625,10.71875 c -3.00546,-4.32362 -5.28429,-7.96055 -11.78125,-9.39063 4.40194,2.18674 8.75049,6.30623 11.78125,9.39063 z m -6.57817,-1.375 c 2.16534,3.47095 4.89418,6.39873 9,6.46875 -3.55684,-1.10238 -6.6162,-4.30581 -8.125,-6.9375 -4.04518,-5.3154 -10.25592,-6.4951 -16.51563,-5.9375 5.38539,0.69373 12.89453,1.80187 15.64063,6.40625 z m -17.5312,-4.79688 c 0,0 -2.86295,-1.02583 -5.09375,-0.79687 2.32278,1.83611 5.09375,0.79687 5.09375,0.79687 z M 282.875,582 c 3.3119,5.24113 8.46875,7.76562 8.46875,7.76562 0,0 -5.31189,-4.69871 -7.625,-8.29687 C 281.12518,577.43431 275,577.1875 275,577.1875 c 0,0 5.64715,1.34694 7.875,4.8125 z m -135.4375,88.34375 c 3.65138,-4.53042 8.38453,-11.96702 12.6875,-23.53125 3.13778,-8.4328 6.05385,-17.49254 9.15625,-26.34375 0.20272,0.14895 1.03742,0.68113 2.1875,2.40625 1.28316,1.92474 2.65946,4.97601 3.53125,9.39065 0.11417,-4.67673 -1.31901,-7.90036 -2.6875,-9.9531 -1.34067,-2.01101 -2.60418,-2.90068 -2.65625,-2.9375 1.0235,-2.88925 1.99123,-5.86071 3.09375,-8.625 4.60737,-11.55182 10.08137,-21.67488 17.42187,-27.8594 -2.75138,1.47139 -4.91458,3.85406 -6.95312,6.4531 -10.86206,-1.05028 -22.23438,8.0625 -22.23438,8.0625 0,0 11.4142,-7.67721 21.51563,-7.0625 -4.17842,5.6103 -7.63863,12.46533 -10.65625,20.03125 -4.6337,11.61783 -8.38014,24.60171 -12.65625,36.09375 -4.26846,11.47148 -8.95049,18.8072 -12.53125,23.25 -3.58076,4.4428 -5.76563,6.39062 -5.76563,6.39062 0,0 2.8955,-1.2352 6.54688,-5.76562 z m 42.71875,-63.82813 c -1.71352,-9.87468 -9.84375,-11 -9.84375,-11 0,0 6.78968,2.646 9.84375,11 z m -38.1875,8.73438 c -5.61619,4.14075 -9.15625,8.29687 -9.15625,8.29687 0,0 4.19138,-3.38606 9.75,-7.48437 5.55862,-4.09831 12.82172,-8.51395 19.40625,-10.3125 -7.05253,0.8531 -14.38381,5.35925 -20,9.5 z m 37.15625,18.8125 c -0.78403,-3.72413 -2.65275,-4.95347 -6.07615,-7.78012 -2.85519,-3.20546 -2.38473,-8.63019 -8.03323,-10.68863 4.30353,3.06484 4.93771,9.18777 7.9125,11.67437 2.97479,2.48659 4.49693,3.50867 5.22813,6.98188 0.7537,3.58007 1.03221,5.93677 1.625,7.34375 0.4034,-1.52877 0.10528,-3.91398 -0.65625,-7.53125 z m -43.28125,3.125 c 0,0 10.93799,-8.6883 18.9375,-11.75 -8.98181,0.74541 -18.9375,11.75 -18.9375,11.75 z m 25.75,20.84375 c 1.03571,-15.98273 -6.04688,-20.84375 -6.04688,-20.84375 0,0 5.54688,8.12117 6.04688,20.84375 z m -30.0313,-8 c 3.59878,-2.75751 8.83926,-5.75535 15.26565,-7.54688 -6.83186,0.86013 -12.19734,3.93573 -15.8906,6.76563 -1.84663,1.41495 -4.34748,5.70029 -4.94645,7.10268 1.3069,-0.66921 3.77201,-4.94268 5.5714,-6.32143 z m 17.7813,8.8125 c 0.73577,7.35776 -3.28125,12.4375 -3.28125,12.4375 0,0 5.0607,-4.76798 4.28125,-12.5625 -0.14969,-3.31766 -0.47054,-6.85324 0.65625,-10.17188 -1.92713,2.87214 -1.94251,7.26764 -1.65625,10.29688 z M 236.25,714.3125 c -1.74674,-0.62883 -3.59411,-0.83614 -5.40625,-0.75 -1.81214,0.0861 -3.6053,0.45177 -5.25,1 -3.28939,1.09646 -5.99951,2.83274 -7.3125,4.4375 -1.8195,1.71583 -3.6421,1.702 -6.04688,1.39062 2.21988,1.38116 5.32896,1.01824 6.82813,-0.73437 1.09773,-1.34167 3.70457,-3.10986 6.84375,-4.15625 3.13918,-1.04639 6.79705,-1.40306 10,-0.25 2.86594,1.20582 5.873,2.69599 7.40625,5.6875 -0.66728,-3.40069 -4.31787,-5.60993 -7.0625,-6.625 z m -53.20313,5.28125 c -0.012,-4.48555 -4.5625,-4.54688 -4.5625,-4.54688 0,0 3.34614,1.49994 4.5625,4.54688 z M 270.59375,717.5 c -2.16538,-0.13123 -3.98438,-0.0469 -3.98438,-0.0469 0,0 1.66761,0.91026 3.92188,1.04688 2.25427,0.13662 4.99373,0.008 6.78125,-1.59375 -1.96248,0.54106 -4.55337,0.72498 -6.71875,0.59375 z m -44.17188,0.21875 c 0,0 3.84209,-0.16471 7.25,-0.53125 -3.55636,-1.05915 -7.25,0.53125 -7.25,0.53125 z m 51.48438,3.40625 c 1.31667,-0.0356 3.07589,-0.38449 5.03125,-2.0625 -2.33035,0.7327 -3.90149,1.03112 -5.0625,1.0625 -0.83744,0.0157 -3.01353,-0.12814 -3.77679,0.2813 0.82192,0.65286 3.05252,0.69805 3.80804,0.7187 z M 236.1875,719 c -0.90979,-0.0345 -1.45313,0.5937 -1.45313,0.5937 0,0 2.32564,0.0339 4.28125,0.81252 -0.74875,-1.1531 -1.91833,-1.37174 -2.82812,-1.40622 z m -55.84375,0.32807 c 2.48955,3.10349 7.85231,3.77671 11,3.48438 -4.09762,-1.13877 -7.71809,-1.73905 -11,-3.48438 z m 112.28125,1.23438 c -0.79376,0.0603 -1.42009,0.24766 -2.03125,0.5625 -1.22232,0.62968 -2.2242,1.70889 -4.21875,3.4375 -2.56773,1.91459 -5.17924,1.69254 -7.98438,0.39062 2.50927,2.28983 6.3919,2.263 8.64063,0.39063 2.02331,-1.75354 3.0125,-2.83504 4,-3.34375 0.9875,-0.50871 2.05406,-0.57733 4.5,-0.79688 -1.15649,-0.61982 -2.11249,-0.70096 -2.90625,-0.64062 z m -73.25,2.59375 c -3.46918,-1.44548 -7.67188,0.45317 -7.67188,0.45317 0,0 4.33748,-0.77995 7.29688,0.45318 2.99497,0.7066 5.17284,-0.52229 6.89062,-2.85943 -1.96581,1.12706 -4.53599,2.71651 -6.51562,1.95308 z m 77.46875,-0.2813 c -1.63123,0.17354 -3.56605,0.62957 -4.65625,2.03125 -1.65949,1.63355 -3.51877,2.07822 -5.75,2.71875 2.30414,0.34056 5.14034,-0.37723 6.53125,-2.09375 0.7848,-1.00903 2.48391,-1.49496 4,-1.65625 1.22975,-0.13083 1.91574,-0.0584 2.28125,-0.0312 l 0.3125,2.17185 0.53125,-2.89062 c 0,0 -1.61877,-0.42352 -3.25,-0.25003 z m -30.5,1.54697 c 3.0439,-0.11112 6.04093,-0.009 8.82812,-0.28125 -2.63041,-1.62612 -6.52614,-0.80036 -8.82812,0.28125 z m -3.12881,-0.17758 c -0.74217,0.77876 0.11864,1.80387 0.81631,2.38071 1.09263,0.6405 2.97122,1.09886 6.0625,0.20312 -2.32967,-0.18361 -5.32207,-0.74506 -6.87881,-2.58383 z M 272.5,726.8125 c 0,0 3.96681,0.5306 7.21875,1.09375 C 276.67606,725.79083 272.5,726.8125 272.5,726.8125 z m -50.625,23.85937 c 0,0 4.08453,-0.57812 9.375,-1.07812 -4.6662,-1.25761 -9.375,1.07812 -9.375,1.07812 z m 2.59375,2.29688 c -1.43874,-0.18872 -2.87631,-0.0309 -4.125,0.28125 -2.49737,0.62434 -4.09375,2.23437 -4.09375,2.23437 0,0 2.01969,-0.68461 4.34375,-1.26562 2.32406,-0.58101 5.12279,-0.62696 7.70312,1 -0.95648,-1.51687 -2.38938,-2.06128 -3.82812,-2.25 z m 69.8125,6.79687 c -6.97254,-0.87044 -8.03125,6.17188 -8.03125,6.17188 0,0 2.55237,-5.05263 8.03125,-6.17188 z m 9.10937,0.81253 c -1.0092,-1.06638 -2.12033,-1.27312 -3.20312,-0.53128 1.07452,0.24568 2.26351,0.6381 3.20312,0.53128 z M 275.3297,539.26782 c 0,0 10.21433,2.5732 15.76646,7.11888 0,0 -5.34927,-7.11888 -15.76646,-7.11888 z m 3.40927,-3.21986 c 0,0 8.33376,2.27285 12.50064,5.3033 0,0 -4.54569,-5.87151 -12.50064,-5.3033 z m 11.74302,6.81853 c 0,0 2.54071,1.27987 4.9245,3.40927 0,0 -0.94703,-3.21987 -4.9245,-3.40927 z m 2.46225,3.40927 c 0,0 1.13642,0.75761 1.51523,1.51523 0.3788,0.75761 0,2.84105 0,2.84105 0,0 -0.37881,-3.21986 -1.51523,-4.35628 z" style="font-size:medium;font-style:normal;font-variant:normal;font-weight:normal;font-stretch:normal;text-indent:0;text-align:start;text-decoration:none;line-height:normal;letter-spacing:normal;word-spacing:normal;text-transform:none;direction:ltr;block-progression:tb;writing-mode:lr-tb;text-anchor:start;baseline-shift:baseline;color:#000000;fill:#473c18;fill-opacity:1;stroke:none;stroke-width:1;marker:none;visibility:visible;display:inline;overflow:visible;enable-background:accumulate;font-family:Sans;-inkscape-font-specification:Sans"/>
          <use style="fill:#473c18;fill-opacity:1" x="0" y="0" xlink:href="#path3856" id="use3870" transform="matrix(-1,0,0,1,628.35096,0)" width="744.09448" height="1052.3622"/>
          <path style="font-size:medium;font-style:normal;font-variant:normal;font-weight:normal;font-stretch:normal;text-indent:0;text-align:start;text-decoration:none;line-height:normal;letter-spacing:normal;word-spacing:normal;text-transform:none;direction:ltr;block-progression:tb;writing-mode:lr-tb;text-anchor:start;baseline-shift:baseline;color:#000000;fill:#473c18;fill-opacity:1;stroke:none;stroke-width:1;marker:none;visibility:visible;display:inline;overflow:visible;enable-background:accumulate;font-family:Sans;-inkscape-font-specification:Sans" d="m 315.42989,379.52665 c -2.11114,-7.91678 -0.25802,-16.44853 -0.25802,-16.44853 0,0 -2.88531,8.54387 -0.71073,16.69853 2.09189,7.8446 0.71073,14.36397 0.71073,14.36397 0,0 2.45183,-6.38715 0.25802,-14.61397 z m -8.39864,16.09835 c -2.66233,-4.39284 -5.28125,-9.7381 -5.78125,-13.25 -0.5,3.9881 2.24268,9.3348 4.9375,13.78125 2.69482,4.44645 5.78125,7.64062 5.78125,7.64062 0,0 -2.27517,-3.77903 -4.9375,-8.17187 z M 321.75,415.78125 c 3.17884,-3.24648 6.49501,-7.39887 6.78125,-11.40625 0.25484,-3.56772 2.45369,-6.42397 4.65625,-9.09375 2.20256,-2.66978 4.46875,-5.14851 3.96875,-8.09375 -0.5,2.4119 -2.53292,4.75013 -4.75,7.4375 -2.21708,2.68737 -4.59412,5.72397 -4.875,9.65625 -0.24947,3.49262 -3.35295,7.63041 -6.46875,10.8125 -3.1158,3.18209 -5.89063,5.84375 -5.89063,5.84375 0,0 3.39929,-1.90977 6.57813,-5.15625 z M 315.1875,401.125 c -0.92275,6.34006 0.53125,13.90625 0.53125,13.90625 0,0 0.5159,-9.59143 -0.53125,-13.90625 z m -17.625,23.1875 c 3.32497,9.97489 16,12.70312 16,12.70312 0,0 -11.95889,-3.70481 -15.0625,-13.01562 -1.97761,-4.95505 -3.76411,-10.71392 -8.90014,-13.08193 3.82427,3.7175 6.50843,9.11086 7.96264,13.39443 z m 31.5,6.8125 c 5.49977,-5.83513 11.42246,-12.50581 12.90625,-17.15625 -2.26621,3.92099 -8.14263,10.65209 -13.625,16.46875 -3.54285,3.94023 -7.2699,7.22823 -10.28125,11.60937 3.49779,-3.42749 7.77556,-7.5047 11,-10.92187 z m -13.90625,39.64291 c 0,-3.44368 0.37947,-17.27693 0.78125,-25.11161 0.40178,-7.83468 0.8125,-15.5878 0.3125,-18.84377 -0.5,3.17259 -0.91071,10.9775 -1.3125,18.81247 -0.40179,7.83497 -0.78125,21.62226 -0.78125,25.14286 0,6.98993 1.03125,17.12279 1.03125,17.12279 0,0 -0.0312,-10.18409 -0.0312,-17.12274 z m -11.83482,-13.87059 c 4.70357,4.70358 7.03794,9.57143 7.03794,9.57143 0,0 -1.41117,-5.31965 -6.35044,-10.25893 -2.76967,-2.47309 -6.28984,-8.13637 -8.64956,-13.30357 -0.0261,3.55619 5.71748,11.71424 7.96206,13.99107 z m 30.60044,-11.3192 c -5.17479,9.76485 -16.0625,15.53125 -16.0625,15.53125 0,0 12.39801,-3.59966 16.0625,-15.53125 z m -6.51562,97.79683 c -0.39778,0.55405 -0.66186,1.23038 -0.46875,1.90625 0.0873,0.30547 0.10528,1.20779 0.0312,2.28125 -0.25464,2.82623 -0.64904,5.36066 -0.625,8.28125 1.00352,-2.83306 1.4151,-5.27813 1.625,-8.21875 0.0766,-1.11124 0.11808,-1.99297 -0.0625,-2.625 -0.0747,-0.26163 0.007,-0.60595 0.3125,-1.03125 0.30534,-0.4253 0.79861,-0.87977 1.3125,-1.28125 0.18178,-0.14202 0.19476,-0.12345 0.375,-0.25 -1.36968,2.92175 -0.0937,5.64062 -0.0937,5.64062 0,0 -0.75519,-3.88497 1.62502,-7.23437 -1.87747,0.42514 -2.94323,1.32303 -4.03122,2.53125 z m 3.65625,6.0313 c -0.13579,2.00284 -0.13637,4.44743 0.90625,6.17187 -0.0288,-1.7577 -0.0383,-4.16131 0.0937,-6.10937 0.13207,-1.94806 -0.0937,-3.53125 -0.0937,-3.53125 0,0 -0.77046,1.46591 -0.90625,3.46875 z m -1.5,13.39055 c 0,0 0.77403,-7.45335 0,-10.96875 -1.71152,3.71674 0,10.96875 0,10.96875 z m 4.54687,4.56252 c 0,0 1.29353,-3.74997 0,-4.5625 -0.22209,2.66962 0,4.5625 0,4.5625 z m -7.76562,26.01568 c -0.57451,3.87791 -0.0625,7.3125 -0.0625,7.3125 0,0 0.50058,-3.36332 1.0625,-7.15625 0.56192,-3.79293 1.7644,-7.95611 3.48437,-9.875 -2.82571,1.49038 -3.90986,5.84084 -4.48437,9.71875 z m 11.1876,61.7187 c 0,0 -0.5522,1.82555 -1.03125,4.125 -0.47905,2.29945 -0.87836,5.07696 -0.46875,7.125 0.77647,3.88236 2.96962,9.42255 1.15625,14.5 -1.9884,5.5675 1.96875,10.01562 1.96875,10.01562 0,0 -2.83093,-4.63277 -1.03125,-9.67187 1.97469,-5.52915 -0.38625,-11.36872 -1.125,-15.0625 -0.34801,-1.74003 7.8e-4,-4.47251 0.46875,-6.71875 0.33229,-1.59498 0.52678,-2.19004 0.71875,-2.84375 1.54963,4.83013 0.96875,8.90625 0.96875,8.90625 0,0 1.75358,-4.72318 -0.5,-10.375 0.55027,-0.63353 3.1141,-3.74419 0.96875,-8.75 -1.1019,-2.57109 -1.01472,-4.13341 -0.875,-5.4375 0.0699,-0.65205 0.15519,-1.24692 0.0937,-1.875 -0.0614,-0.62808 -0.28477,-1.27297 -0.8125,-1.90625 -0.86481,-1.03777 -1.10691,-2.10025 -1.0625,-3.34375 0.0444,-1.2435 0.40126,-2.66751 0.78125,-4.1875 0.42993,-1.71972 -0.31274,-3.23496 -0.875,-4.59375 -0.28113,-0.6794 -0.51034,-1.34844 -0.59375,-1.9375 -0.0834,-0.58906 -0.0397,-1.09463 0.28125,-1.65625 0.43923,-0.76866 0.52847,-1.59523 0.4375,-2.375 -0.091,-0.77977 -0.35788,-1.52647 -0.59375,-2.28125 -0.47174,-1.50957 -0.86626,-2.97279 -0.1875,-4.5 0.74226,-1.67009 1.69047,-3.27219 2.28125,-5.09375 0.59078,-1.82156 0.79187,-3.87438 0,-6.25 -0.73785,-2.21355 -1.01996,-4.39151 -0.75,-6.28125 0.26996,-1.88974 1.07352,-3.45358 2.17185,-4.90623 -1.93213,0.8202 -2.8424,2.6623 -3.14065,4.75003 -0.29825,2.08773 0.004,4.44912 0.78125,6.78125 0.72335,2.17007 0.5144,3.91134 -0.0312,5.59375 -0.54565,1.68241 -1.47703,3.26083 -2.25,5 -0.83647,1.88206 -0.28778,3.66661 0.1875,5.1875 0.23764,0.76044 0.45649,1.48424 0.53125,2.125 0.0748,0.64076 0.006,1.19284 -0.3125,1.75 -0.43669,0.76421 -0.51225,1.5639 -0.40625,2.3125 0.106,0.7486 0.36917,1.46247 0.65625,2.15625 0.57416,1.38756 1.17144,2.68927 0.84375,4 -0.37762,1.51047 -0.76221,2.9356 -0.8125,4.34375 -0.0503,1.40815 0.25202,2.79618 1.28125,4.03125 0.41928,0.50314 0.5799,0.91401 0.625,1.375 0.0451,0.46099 -0.0528,1.01372 -0.125,1.6875 -0.14438,1.34756 -0.23345,3.17404 0.9375,5.90625 1.71998,4.01329 0.29189,6.30056 -0.46875,7.28125 -0.21001,-0.43675 -0.27153,-0.83973 -0.95313,-1.03125 -0.0605,0.86436 0.50406,1.40904 0.29688,2.03125 m -4.0938,-57.71875 c 0.52282,-1.355 0.95388,-2.69462 1.14062,-4.17188 -1.30648,1.1203 -1.53253,2.54442 -1.14062,4.17188 z m -14.125,4.65625 c 0.76892,3.84464 1.58376,6.17772 0.125,11.64062 2.78002,-5.60628 1.6213,-8.09662 0.875,-11.82812 -0.70104,-3.50522 1.39062,-7.5 1.39062,-7.5 0,0 -3.2048,3.61656 -2.39062,7.6875 z m 13.46875,2.03125 c 0.36878,1.7056 0.47161,3.71375 -0.15625,4.8125 -0.85812,1.5017 -1.09148,3.90427 -1.1875,5.96875 -0.096,2.06448 0.5,3.75 0.5,3.75 0,0 0.4066,-1.71105 0.5,-3.71875 0.0934,-2.0077 0.40539,-4.35005 1.0625,-5.5 0.88737,-1.5529 0.63883,-3.73289 0.25,-5.53125 -0.38883,-1.79836 -1.4375,-3.0625 -1.4375,-3.0625 0,0 0.1,1.57565 0.46875,3.28125 z m -7.46875,7.21875 c 0.37462,-3.18427 0.54687,-5.9375 0.54687,-5.9375 0,0 -1.13263,2.55705 -1.51562,5.8125 -0.38299,3.25545 -0.48521,7.54883 1.14062,9.34375 -0.57894,-2.2829 -0.54649,-6.03448 -0.17187,-9.21875 z m 3.28125,3.53125 c -0.0234,-1.49668 0.0266,-3.0939 0.25,-4.46875 0.22341,-1.37485 0.63531,-2.52517 0.8125,-3.48438 -1.14863,0.55603 -1.54299,1.86192 -1.78125,3.32813 -0.23826,1.46621 -0.30522,3.09122 -0.28125,4.625 0.0479,3.06755 0.9375,5.67187 0.9375,5.67187 0,0 0.10927,-2.67851 0.0625,-5.67187 z m -11.15625,13.875 0.96875,0.28125 c 1.18096,-4.33015 -0.48438,-8.48438 -0.48438,-8.48438 0,0 0.60753,4.19952 -0.48437,8.20313 z m 15.4062,2.50005 c 0.0433,0.51409 0.0278,1.04524 0.125,1.53125 0.35178,1.75889 -0.0871,3.36312 -0.46875,4.9375 -0.38167,1.57438 -0.73566,3.18135 0.125,4.6875 0.79196,1.38593 1.61417,2.20589 2,3.40625 0.38583,1.20036 -3.70597,5.10956 -0.0469,6.17187 -1.39542,-2.18059 1.48212,-5.03307 1.01563,-6.48437 -0.46649,-1.4513 -1.37048,-2.32803 -2.09375,-3.59375 -0.65457,-1.1455 -0.4072,-2.41797 -0.0312,-3.96875 0.37595,-1.55078 0.87458,-3.34582 0.46875,-5.375 -0.36058,-1.80289 -0.84906,-2.70937 -0.66191,-4.58042 0.1456,-1.32431 0.91006,-3.88317 0.53701,-5.16958 -0.62139,1.22317 -0.85012,2.51882 -0.96875,3.65625 l -3e-5,0 c -0.78142,-2.50832 -2.7969,-3.26565 -2.7969,-3.26565 0,0 2.68952,2.0763 2.33,6.3906 -0.16478,1.99113 -1.00005,4.13406 -2.29653,6.15207 1.17528,-0.85721 2.55018,-3.40166 2.76333,-4.49577 z M 321.25,633.03125 c 0.99279,2.44511 0.41853,4.41654 -0.0937,5.625 1.92197,-1.26678 1.41834,-4.40234 1.06255,-5.875 -1.07619,-4.30474 1.03122,-8.21875 1.03122,-8.21875 0,0 -3.19669,3.68211 -2.00002,8.46875 z m 2.28125,-1.875 c 0.52956,1.58869 0.64046,3.92852 0.59375,5.84375 -0.0467,1.91523 0.25,3.46875 0.25,3.46875 0,0 0.70201,-1.46996 0.75,-3.4375 0.048,-1.96754 -0.0494,-4.36692 -0.65625,-6.1875 -0.48287,-1.97689 -0.0224,-3.39004 1.04687,-5.15625 -1.97639,1.09665 -2.56403,3.62763 -1.98437,5.46875 z m 3.15625,4.25 c 0.24343,2.14222 0.80875,3.8896 1.4375,4.9375 0.47237,0.78729 0.68415,2.22269 0.5,4.15625 -0.18415,1.93356 -0.74891,4.37174 -1.6875,7.1875 -1.97836,5.93509 1.25,13.01562 1.25,13.01562 0,0 -2.1222,-7.27399 -0.3125,-12.70312 0.95545,-2.86635 1.55534,-5.36233 1.75,-7.40625 0.19466,-2.04392 0.008,-3.64325 -0.65625,-4.75 -0.50768,-0.84613 -1.05117,-2.50659 -1.28125,-4.53125 -0.23008,-2.02466 -0.13976,-4.42861 0.10937,-6.95313 -1.26609,2.39998 -1.3528,4.90466 -1.10937,7.04688 z m -9.89063,0.89062 c 0,0 1.37586,4.21941 0.76563,10.23438 2.42022,-6.67508 -0.76563,-10.23438 -0.76563,-10.23438 z m 5.67188,23.32813 c -0.32655,-2.6124 -0.39908,-5.85758 0.5,-8.375 1.96963,-5.51494 -0.85938,-10.39063 -0.85938,-10.39063 0,0 1.74033,4.95522 -0.0781,10.04688 -0.99496,2.78588 -0.89886,6.15284 -0.5625,8.84375 0.33636,2.69091 1.39062,4.57812 1.39062,4.57812 0,0 -0.0641,-2.09072 -0.39062,-4.70312 z m -3.9375,2.53125 c 0.49198,-1.82033 0.69719,-4.17296 -0.5625,-6.0625 -2.13062,-3.19591 -1.92188,-7.67188 -1.92188,-7.67188 0,0 -1.3057,4.61177 1.10938,8.23438 1.01315,1.51973 0.86129,3.53511 0.40625,5.21875 -0.45504,1.68364 -0.75,3.21875 -0.75,3.21875 0,0 1.22677,-1.11717 1.71875,-2.9375 z m 14.53125,22.0625 c -0.31867,-1.72995 -0.39557,-4.28844 0.53125,-7.625 0.98562,-3.54823 0.0738,-6.36161 -0.9375,-8.625 -0.50565,-1.1317 -1.03017,-2.13243 -1.375,-3.03125 -0.34483,-0.89882 -0.5021,-1.66241 -0.34375,-2.375 0.73805,-3.32122 2.72255,-7.638 0.65625,-11.85938 0.96416,4.11239 -0.84781,8.14331 -1.625,11.64063 -0.22045,0.99204 -0.002,1.95412 0.375,2.9375 0.37727,0.98338 0.91753,1.99995 1.40625,3.09375 0.97744,2.1876 1.78342,4.6672 0.875,7.9375 -0.96721,3.48197 -0.87549,6.22503 -0.53125,8.09375 0.34424,1.86872 1.39062,2.65625 1.39062,2.65625 0,0 -0.1032,-1.1138 -0.42187,-2.84375 z m -2.1875,6.84375 c -1.49239,-2.33185 -2.96875,-5.32008 -2.96875,-7.78125 0,-2.5207 1.04373,-4.96491 1.53125,-7.5 0.48752,-2.53509 0.33666,-5.20619 -2.40625,-7.65625 1.80277,2.85324 1.86575,5.07935 1.40625,7.46875 -0.4595,2.3894 -1.53125,4.90489 -1.53125,7.6875 0,2.84213 1.58693,5.90926 3.125,8.3125 1.53807,2.40324 3.4375,3.79687 3.4375,3.79687 0,0 -1.10136,-1.99627 -2.59375,-4.32812 z M 316.5,678.1875 c -0.51684,-3.19503 -0.88147,-7.08439 -0.82813,-9.6875 -1.08307,2.7002 -0.69675,6.59906 -0.17187,9.84375 0.52488,3.24469 1.70312,5.6875 1.70312,5.6875 0,0 -0.18628,-2.64872 -0.70312,-5.84375 z m 7.25,0.65625 c 1.17078,-5.85392 -1.625,-9.95313 -1.625,-9.95313 0,0 1.72706,4.22408 0.625,9.73438 -1.17582,5.87906 1.625,12.23437 1.625,12.23437 0,0 -1.72204,-6.53046 -0.625,-12.01562 z m 13.51562,15.04687 c -0.94269,-1.54287 -1.2839,-3.05353 -2.26562,-4.54687 -0.42554,1.80863 0.61999,4.1974 2.26562,4.54687 z m -17.79687,-3.04687 c -0.39505,1.94434 0.94725,3.47727 2.26562,4.5625 -0.0766,-1.77624 -1.31434,-3.20541 -2.26562,-4.5625 z m 7.95312,1.14062 c -0.12619,7.42406 6.4375,9.10938 6.4375,9.10938 0,0 -4.4862,-2.98435 -6.4375,-9.10938 z m 16.04688,3.45313 c 0.73918,1.06258 1.75,1.85937 1.75,1.85937 0,0 -0.13021,-1.30631 -0.90625,-2.42187 -0.72861,-1.15042 -1.69827,-2.0353 -2.875,-2.14063 0.83627,0.9782 1.43781,1.89719 2.03125,2.70313 z m -4.28125,4.09375 c 0.87547,0.87547 2.33697,1.54787 3.59375,2.03125 1.25678,0.48338 2.4375,0.26562 2.4375,0.26562 0,0 -0.88829,-0.73948 -2.09375,-1.20312 -1.20546,-0.46364 -2.57899,-1.14149 -3.21875,-1.78125 -1.27952,-1.27953 -1.5,-3.82813 -1.5,-3.82813 0,0 -0.96967,2.7647 0.78125,4.51563 z m 12.34375,3.25 c -1.56308,-0.45973 -3.16557,-1.20679 -4.40625,-2.07813 0.65335,1.78032 2.43697,2.55959 4.09375,3.04688 1.38146,0.57376 3.17986,0.54884 3.84375,0.35937 -0.85138,-1.02447 -2.3715,-1.02084 -3.53125,-1.32812 z m 73.625,18.375 c -2.17549,-1.90371 -4.73117,-2.95022 -7.21875,-1.51563 2.49613,-0.30136 5.3162,0.86259 7.21875,1.51563 z m 9.09375,2.26562 c 0,0 3.7395,3.76878 5.29687,7.57813 0.23156,-6.03964 -5.29687,-7.57813 -5.29687,-7.57813 z m -47.875,10.98438 c 0,5.971 5.4375,9.85937 5.4375,9.85937 0,0 -4.4375,-4.46615 -4.4375,-9.85937 0,-5.79322 -2.375,-10.59375 -2.375,-10.59375 0,0 1.375,5.02275 1.375,10.59375 z m -64.5625,2.4375 c 0.0661,-2.28146 0.334,-4.59 0.46875,-5.9375 0.20383,-2.12966 -0.77105,-3.98137 -2.21875,-5.4375 -1.1673,2.30025 -1.36172,4.47332 -0.96875,6.96875 0.51138,-1.74208 0.65007,-3.72576 1.17857,-5.37054 0.48486,0.70424 1.16623,2.14128 1.00893,3.71429 -0.13311,1.33108 -0.40095,3.69217 -0.46875,6.03125 -0.0678,2.33908 0.0268,4.64822 1.25,5.8125 -0.11608,-1.24644 -0.31613,-3.49979 -0.25,-5.78125 z m 10.68747,-10.54688 c 0,0 1.90973,3.95496 7.23438,3.73438 -4.05034,-1.42592 -7.23438,-3.73438 -7.23438,-3.73438 z m -7.46872,8.14063 c 0.19924,-3.81872 0.23437,-7.07813 0.23437,-7.07813 0,0 -1.03182,3.1647 -1.23437,7.04688 -0.20255,3.88218 -0.10195,8.37816 1.78125,10.89062 -0.79537,-2.57682 -0.98049,-7.04065 -0.78125,-10.85937 z M 384.5,737.46875 c 0.39578,5.9367 5.40625,8.3125 5.40625,8.3125 0,0 -4.04441,-2.9475 -4.40625,-8.375 -0.38686,-5.80279 -3.15625,-8.67188 -3.15625,-8.67188 0,0 1.78549,3.17295 2.15625,8.73438 z m -60.82813,9.4375 c -3.0479,-0.98092 -4.5625,-4.54688 -4.5625,-4.54688 0,0 -0.42532,4.45638 4.5625,4.54688 z m 5.89063,7.6875 c 0,0 2.69456,0.98729 6.42187,3.75 -2.83517,-4.60335 -6.42187,-3.75 -6.42187,-3.75 z m 67.17187,7.84375 c 3.15387,-4.48091 1.14063,-7.1875 1.14063,-7.1875 0,0 -0.12761,3.33466 -1.14063,7.1875 z m -75.01562,-5.65625 c 0,0 -0.503,9.07709 -1.125,15.51562 2.72186,-7.91411 1.125,-15.51562 1.125,-15.51562 z m 5.6875,1.03125 c 1.85574,0.50034 4.01671,0.53214 5.89062,1.07807 -1.76104,-1.46968 -3.70623,-1.63866 -5.89062,-1.07807 z m -9.07813,0.85937 c 0,0 0.2586,4.96092 0.375,8.70313 1.6776,-5.03931 -0.375,-8.70313 -0.375,-8.70313 z m 0.39063,28.76563 c 0.5,-6.76297 1.10937,-10.96875 1.10937,-10.96875 0,0 -2.41294,3.69287 -1.10937,10.96875 z" id="path3883" inkscape:connector-curvature="0" sodipodi:nodetypes="scscsscscsssscssscsccccccccccccccscsscscccccccccccccccscccccccccccccccccccccccscccsccccccsssscccsssssccccssccsssssscscccccccccccccscccscccscccccccccccccccccssccccsccccccccccsccccscscccscccccscccscccccsccccccsccccssccccsscscssscccscsssscccsccccccccccccccccccccccsccsccscccccccccccccccccccccsccccccccccccccccccccccccccccccccccccc"/>
          <path style="font-size:medium;font-style:normal;font-variant:normal;font-weight:normal;font-stretch:normal;text-indent:0;text-align:start;text-decoration:none;line-height:normal;letter-spacing:normal;word-spacing:normal;text-transform:none;direction:ltr;block-progression:tb;writing-mode:lr-tb;text-anchor:start;baseline-shift:baseline;color:#000000;fill:#473c18;fill-opacity:1;stroke:none;stroke-width:1;marker:none;visibility:visible;display:inline;overflow:visible;enable-background:accumulate;font-family:Sans;-inkscape-font-specification:Sans" d="m 377.54687,436.54687 c 0,0 7.4443,-9.72077 2.65625,-18.17187 2.20643,9.01999 -2.65625,18.17187 -2.65625,18.17187 z m -107.89955,15.77897 c 7.3884,-5.13975 4.82143,-11.93527 4.82143,-11.93527 0,0 -0.25685,7.26496 -6.1875,11.39063 -5.90033,4.10457 -13.375,1.20312 -13.375,1.20312 0,0 7.31759,4.50567 14.74107,-0.65848 z m 101.35273,1.14291 c 3.45526,-0.92465 7.50236,-3.10479 9.2031,-8.20313 -2.46613,4.37185 -6.18458,6.35969 -9.45315,7.23438 -3.26857,0.87469 -6.0781,1.09375 -6.0781,1.09375 0,0 2.87289,0.79965 6.32815,-0.125 z m 78.15625,55.0625 c -0.22608,-4.58206 -3.25188,-6.98748 -7.45313,-7.25 3.58764,1.25824 6.51979,4.07806 6.45313,7.21875 -1.62905,5.97659 -6.94939,8.65224 -11.82813,11.79687 5.07743,-2.00716 12.41536,-6.21248 12.82813,-11.76562 z m -14.42193,26.51562 c 0,0 -2.18107,-21.9982 -21.96875,-31.07812 16.10518,9.13437 21.96875,31.07812 21.96875,31.07812 z m -216.39955,-5.86383 c -5.86098,6.33662 -13.13827,7.1968 -21.24107,6.86388 9.54792,2.07048 19.10526,-0.62891 23.15625,-6.60049 3.59292,-7.50896 4.43119,-17.79301 -1.5625,-24.08706 4.05149,7.30246 3.64604,17.2751 -0.35268,23.82367 z m -23.79018,-2.87947 0.375,-1.17411 C 184.09612,520.37767 180,511.65625 180,511.65625 c 0,0 0.99317,8.68482 14.54464,14.64732 z m 234.29911,7.39955 c -6.54609,2.03818 -12.37952,-0.58702 -17.6875,-4.03125 4.82444,3.99753 11.31645,8.89801 17.6875,4.03125 z m 69.1875,70.70313 c 0,0 20.3055,-10.94767 20.90625,-36.42188 -3.68495,23.54367 -20.90625,36.42188 -20.90625,36.42188 z m -364.20313,-7.3125 c 0,0 10.4624,-2.745 6.4375,-17.15625 1.33225,9.69588 -6.4375,17.15625 -6.4375,17.15625 z m 395.01563,8.34375 c 5.14905,0 7.72531,-3.06633 8.875,-6.0625 1.14969,-2.99617 0.5,-5.9375 0.5,-5.9375 0,0 -0.37737,2.79974 -1.4375,5.5625 -1.06013,2.76276 -3.17584,5.4375 -7.9375,5.4375 -7.71846,-0.14278 -14.34755,-3.78204 -20.35938,-6.98438 5.26269,5.21407 13.92185,7.90834 20.35938,7.98438 z M 259.82812,594.14062 c 2.61864,5.07978 1.34375,13.125 1.34375,13.125 0,0 4.34118,-8.56192 -1.34375,-13.125 z m -141.79017,2.15402 c 0,0 -8.25605,7.26458 -17.95759,7.52679 -4.011163,-0.11051 -7.339911,-0.9266 -8.566967,-5.375 0.637159,4.95618 4.301734,7.23534 8.0625,7.17857 8.086407,-0.21855 16.912757,-5.57745 19.379837,-7.29166 z M 380.375,610.125 c -7.70635,1.82694 -14.21875,2.3125 -14.21875,2.3125 0,0 6.60814,0.5123 14.4375,-1.34375 4.87016,-1.15456 9.9526,-2.39711 14.4981,-5.46114 0.16816,0.35925 2.47118,4.12997 3.97065,9.61739 0.77981,2.85376 1.36276,5.9015 1.375,8.59375 0.0122,2.69225 -0.56121,5.00002 -1.96875,6.46875 -4.29603,3.90534 -8.72796,3.0898 -13.54688,1.15625 4.45154,3.49873 10.85994,2.94462 14.26563,-0.46875 1.67282,-1.74555 2.26287,-4.32395 2.25,-7.15625 -0.0129,-2.8323 -0.61239,-5.93858 -1.40625,-8.84375 -1.55617,-5.69491 -3.62615,-10.11612 -3.71685,-10.30869 2.42285,-1.75378 4.47892,-4.13162 5.73247,-6.97256 -5.12944,6.91088 -13.96552,10.57931 -21.67187,12.40625 z m -153.5,-10.07813 c 0,0 14.73814,13.88829 34.8125,12.32813 -15.55064,-1.2923 -34.8125,-12.32813 -34.8125,-12.32813 z m 13.44643,32.48438 c 4.14453,-1.76142 8.9747,-5.84963 10.13169,-15.07813 -3.12871,8.71794 -7.68694,12.51813 -11.57812,14.17188 -3.89118,1.65375 -7.17188,1.625 -7.17188,1.625 0,0 4.47378,1.04267 8.61831,-0.71875 z" id="path4278" inkscape:connector-curvature="0" sodipodi:nodetypes="cccscscsscscscccccccccccccccccccccccccccscsccccccccccccscscscccccsccscccscscs"/>
        </g>
      </g>
    </g>
  </g>
</svg>