<?xml version="1.0" encoding="UTF-8" standalone="no"?>
<!-- Created with Inkscape (http://www.inkscape.org/) -->

<svg
   width="500"
   height="560.00024"
   viewBox="0 0 132.29166 148.16673"
   version="1.1"
   id="svg5"
   xml:space="preserve"
   xmlns="http://www.w3.org/2000/svg"
   xmlns:svg="http://www.w3.org/2000/svg"><defs
     id="defs2"><style
       id="style6"
       type="text/css">
   
    .str0 {stroke:#0033AB;stroke-width:0.750048}
    .fil5 {fill:#00923F}
    .fil4 {fill:#1F1A17}
    .fil1 {fill:#C0A062}
    .fil3 {fill:white}
    .fil2 {fill:#752B19}
    .fil0 {fill:#594FBF}
   
  </style></defs><path
     id="path11147"
     style="font-variation-settings:normal;opacity:1;fill:#dc0618;fill-opacity:1;stroke:#000000;stroke-width:0.500101;stroke-linecap:butt;stroke-linejoin:miter;stroke-miterlimit:4;stroke-dasharray:none;stroke-dashoffset:0;stroke-opacity:1;stop-color:#000000;stop-opacity:1"
     d="M 10.80735,103.81858 C 4.3853505,93.854402 0.25005049,82.640584 0.25005049,70.481344 V 0.25054041 L 132.04161,0.25005141 V 70.481344 c 0,12.159241 -4.13529,23.373058 -10.55729,33.337236 z" /><path
     id="path11141"
     style="font-variation-settings:normal;opacity:1;fill:#c0a062;fill-opacity:1;stroke:#000000;stroke-width:0.5001;stroke-linecap:butt;stroke-linejoin:miter;stroke-miterlimit:4;stroke-dasharray:none;stroke-dashoffset:0;stroke-opacity:1;stop-color:#000000;stop-opacity:1"
     d="M 121.48431,103.81858 66.14607,32.669952 10.80734,103.81858 c 13.94662,21.63918 38.68682,37.38004 55.33873,44.07863 16.65191,-6.69859 41.39162,-22.43945 55.33824,-44.07863 z" /><path
     id="path11177"
     style="font-variation-settings:normal;opacity:1;fill:none;fill-opacity:1;stroke:#000000;stroke-width:0.5001;stroke-linecap:butt;stroke-linejoin:miter;stroke-miterlimit:4;stroke-dasharray:none;stroke-dashoffset:0;stroke-opacity:1;stop-color:#000000;stop-opacity:1"
     d="m 29.60603,79.649328 c 3.18303,-0.693254 5.24616,-2.424704 5.24616,-2.424704 0,0 3.21679,2.708957 7.82335,2.708957 4.60656,0 7.82335,-2.708957 7.82335,-2.708957 0,0 3.21679,2.708957 7.82335,2.708957 4.60655,0 7.82334,-2.708957 7.82334,-2.708957 0,0 3.21728,2.708957 7.82384,2.708957 4.60656,0 7.82334,-2.708957 7.82334,-2.708957 0,0 3.21678,2.708957 7.82335,2.708957 4.60656,0 7.82334,-2.708957 7.82334,-2.708957 0,0 2.06314,1.731574 5.24666,2.424704 M 90.58798,64.094725 c -0.31664,0.02608 -0.64014,0.04159 -0.97187,0.04159 -4.60657,0 -7.82335,-2.708957 -7.82335,-2.708957 0,0 -3.21678,2.708957 -7.82334,2.708957 -4.60656,0 -7.82384,-2.708957 -7.82384,-2.708957 0,0 -3.21679,2.708957 -7.82334,2.708957 -4.60656,0 -7.82335,-2.708957 -7.82335,-2.708957 0,0 -3.21679,2.708957 -7.82335,2.708957 -0.33155,0 -0.65491,-0.01506 -0.97138,-0.0411 M 31.28605,126.55336 c 2.20755,-0.80091 3.56614,-1.9379 3.56614,-1.9379 0,0 3.21679,2.70896 7.82335,2.70896 4.60656,0 7.82335,-2.70896 7.82335,-2.70896 0,0 3.21679,2.70896 7.82335,2.70896 4.60655,0 7.82334,-2.70896 7.82334,-2.70896 0,0 3.21728,2.70896 7.82384,2.70896 4.60656,0 7.82334,-2.70896 7.82334,-2.70896 0,0 3.21678,2.70896 7.82335,2.70896 4.60656,0 7.82334,-2.70896 7.82334,-2.70896 0,0 1.35884,1.13699 3.56664,1.9379 m 15.52215,-15.8413 c -2.13516,-0.79788 -3.44161,-1.89387 -3.44161,-1.89387 0,0 -3.21728,2.70895 -7.82383,2.70895 -4.60656,0 -7.82335,-2.70895 -7.82335,-2.70895 0,0 -3.21678,2.70895 -7.82334,2.70895 -4.60657,0 -7.82335,-2.70895 -7.82335,-2.70895 0,0 -3.21678,2.70895 -7.82334,2.70895 -4.60656,0 -7.82384,-2.70895 -7.82384,-2.70895 0,0 -3.21679,2.70895 -7.82334,2.70895 -4.60656,0 -7.82335,-2.70895 -7.82335,-2.70895 0,0 -3.21679,2.70895 -7.82335,2.70895 -4.60656,0 -7.82335,-2.70895 -7.82335,-2.70895 0,0 -3.21677,2.70895 -7.82334,2.70895 -4.60656,0 -7.82384,-2.70895 -7.82384,-2.70895 0,0 -1.30644,1.09599 -3.44161,1.89387 m 3.44181,-17.690668 c 0,0 3.21686,2.708993 7.82343,2.708993 4.60657,0 7.82344,-2.708993 7.82344,-2.708993 0,0 3.21686,2.708993 7.82343,2.708993 4.60656,0 7.82345,-2.708993 7.82345,-2.708993 0,0 3.21686,2.708993 7.82342,2.708993 4.60656,0 7.82344,-2.708993 7.82344,-2.708993 0,0 3.21687,2.708993 7.82343,2.708993 4.60657,0 7.82344,-2.708993 7.82344,-2.708993 0,0 3.21686,2.708993 7.82343,2.708993 4.60657,0 7.82345,-2.708993 7.82345,-2.708993 0,0 3.21686,2.708993 7.82342,2.708993 4.60656,0 7.82344,-2.708993 7.82344,-2.708993 M 54.45133,47.705465 c 1.11573,0.366359 2.42468,0.633574 3.87091,0.633574 4.60654,0 7.82334,-2.708957 7.82334,-2.708957 0,0 3.21728,2.708957 7.82384,2.708957 1.44622,0 2.75516,-0.267215 3.87089,-0.633574" /><g
     id="g12885"
     transform="matrix(-0.94507143,0,0,0.94674918,232.63353,14.359913)"
     style="stroke-width:0.528698;stroke-dasharray:none"><path
       style="font-variation-settings:normal;opacity:1;fill:#c0a062;fill-opacity:1;stroke:#000000;stroke-width:0.528698;stroke-linecap:butt;stroke-linejoin:miter;stroke-miterlimit:4;stroke-dasharray:none;stroke-dashoffset:0;stroke-opacity:1;stop-color:#000000;stop-opacity:1"
       d="m 215.40469,42.060071 c -1.31541,-1.281413 -3.81451,-1.660078 -2.48885,-5.458202 -2.07249,2.487375 -4.42602,2.901677 -4.68894,6.533469 -2.19761,-2.72691 -0.17865,-5.505506 2.43799,-7.91178 2.66424,-2.450054 2.79417,-5.039543 2.95846,-6.930078 -2.07668,-0.434662 -3.14652,-1.051958 -3.64401,-2.324414 -0.49749,-1.272456 0.79171,-2.459139 1.80294,-1.910372 0.0252,-2.661672 -0.39178,-6.000012 -3.21599,-8.206568 -2.82421,-2.206556 -3.99102,0.836056 -3.01521,3.275572 0.97581,2.439516 1.18904,4.526422 -1.36739,5.69041 0.0659,-0.989294 0.85187,-2.578703 -2.49909,-4.274208 -3.41856,-1.729706 -4.21104,-4.24759 -3.55154,-7.127215 0.65951,-2.879626 3.4848,-4.445907 6.86554,-3.7948375 2.86297,0.5513565 3.90593,1.1290815 5.50946,2.7087975 0,0 -1.50807,-3.1491937 -0.57661,-5.5887097 0.93145,-2.4395161 2.79435,-2.4395161 3.94758,-1.4193548 0.0965,-3.8581043 1.82512,-6.7862901 3.28225,-6.7862901 1.45713,0 3.18575,2.9281858 3.28225,6.7862901 1.15323,-1.0201613 3.01613,-1.0201613 3.94758,1.4193548 0.93146,2.439516 -0.57661,5.5887097 -0.57661,5.5887097 1.60353,-1.579716 2.64649,-2.157441 5.50946,-2.7087975 3.38074,-0.6510695 6.20603,0.9152115 6.86554,3.7948375 0.6595,2.879625 -0.13298,5.397509 -3.55154,7.127215 -3.35096,1.695505 -2.56504,3.284914 -2.49909,4.274208 -2.55643,-1.163988 -2.3432,-3.250894 -1.36739,-5.69041 0.97581,-2.439516 -0.191,-5.482128 -3.01521,-3.275572 -2.82421,2.206556 -3.24122,5.544896 -3.21599,8.206568 1.01123,-0.548767 2.30043,0.637916 1.80294,1.910372 -0.49749,1.272456 -1.56733,1.889752 -3.64401,2.324414 0.16429,1.890535 0.29422,4.480024 2.95846,6.930078 2.61664,2.406274 4.6356,5.18487 2.43799,7.91178 -0.26292,-3.631792 -2.61645,-4.046094 -4.68894,-6.533469 1.32566,3.798124 -1.17344,4.176789 -2.48885,5.458202 -0.003,1.889809 -0.93091,2.631233 -1.75659,3.669766 -0.82568,-1.038533 -1.75359,-1.779957 -1.75659,-3.669766 z"
       id="path12088" /><path
       id="path12917"
       style="font-variation-settings:normal;opacity:1;fill:none;fill-opacity:1;stroke:#000000;stroke-width:0.528698;stroke-linecap:butt;stroke-linejoin:miter;stroke-miterlimit:4;stroke-dasharray:none;stroke-dashoffset:0;stroke-opacity:1;stop-color:#000000;stop-opacity:1"
       d="m 221.40672,36.601869 c -2.07249,-2.487374 -2.41304,-4.673718 -2.28758,-8.060987 m -6.2033,8.060987 c 2.07249,-2.487374 2.41304,-4.673718 2.28758,-8.060987 m -1.58007,-0.247402 c 0.95125,0.199101 2.18805,0.310129 3.53793,0.310129 1.34988,0 2.58668,-0.111028 3.53793,-0.310129 m -8.91693,-4.234786 c -0.006,1.244882 2.11044,1.659463 5.379,1.659463 3.26856,0 5.385,-0.414581 5.379,-1.659463" /><path
       style="color:#000000;fill:#000000;stroke-width:0.528698;stroke-dasharray:none"
       d="m 214.12149,4.8341794 -0.42973,0.3634742 c -0.11543,2.9140169 0.64152,2.957178 1.19593,6.0513734 -0.13667,-3.1098594 -0.75856,-2.8420079 -0.7662,-6.4148476 z m -3.55095,7.0511256 -0.32224,0.08073 -0.16806,0.297433 c 1.27268,1.710464 2.04265,3.157884 3.01746,5.70918 0.97321,2.547135 1.14792,4.705277 1.09277,6.929689 0.49371,-1.774443 0.33115,-4.574378 -0.65542,-7.156371 -0.98657,-2.581994 -1.93909,-4.084955 -2.96451,-5.860665 z"
       id="path12897" /><path
       style="color:#000000;fill:#000000;stroke-width:0.528698;stroke-dasharray:none"
       d="m 220.20107,4.8341794 0.42973,0.3634742 c 0.11543,2.9140169 -0.64152,2.957178 -1.19593,6.0513734 0.13667,-3.1098594 0.75856,-2.8420079 0.7662,-6.4148476 z m 3.55095,7.0511256 0.32224,0.08073 0.16806,0.297433 c -1.27268,1.710464 -2.04265,3.157884 -3.01746,5.70918 -0.97321,2.547135 -1.14792,4.705277 -1.09277,6.929689 -0.49371,-1.774443 -0.33115,-4.574378 0.65542,-7.156371 0.98657,-2.581994 1.93909,-4.084955 2.96451,-5.860665 z"
       id="path13636" /></g><g
     id="g13646"
     transform="matrix(0.94507143,0,0,0.94674918,-100.34187,14.359913)"
     style="stroke-width:0.528698;stroke-dasharray:none"><path
       style="font-variation-settings:normal;opacity:1;fill:#c0a062;fill-opacity:1;stroke:#000000;stroke-width:0.528698;stroke-linecap:butt;stroke-linejoin:miter;stroke-miterlimit:4;stroke-dasharray:none;stroke-dashoffset:0;stroke-opacity:1;stop-color:#000000;stop-opacity:1"
       d="m 215.40469,42.060071 c -1.31541,-1.281413 -3.81451,-1.660078 -2.48885,-5.458202 -2.07249,2.487375 -4.42602,2.901677 -4.68894,6.533469 -2.19761,-2.72691 -0.17865,-5.505506 2.43799,-7.91178 2.66424,-2.450054 2.79417,-5.039543 2.95846,-6.930078 -2.07668,-0.434662 -3.14652,-1.051958 -3.64401,-2.324414 -0.49749,-1.272456 0.79171,-2.459139 1.80294,-1.910372 0.0252,-2.661672 -0.39178,-6.000012 -3.21599,-8.206568 -2.82421,-2.206556 -3.99102,0.836056 -3.01521,3.275572 0.97581,2.439516 1.18904,4.526422 -1.36739,5.69041 0.0659,-0.989294 0.85187,-2.578703 -2.49909,-4.274208 -3.41856,-1.729706 -4.21104,-4.24759 -3.55154,-7.127215 0.65951,-2.879626 3.4848,-4.445907 6.86554,-3.7948375 2.86297,0.5513565 3.90593,1.1290815 5.50946,2.7087975 0,0 -1.50807,-3.1491937 -0.57661,-5.5887097 0.93145,-2.4395161 2.79435,-2.4395161 3.94758,-1.4193548 0.0965,-3.8581043 1.82512,-6.7862901 3.28225,-6.7862901 1.45713,0 3.18575,2.9281858 3.28225,6.7862901 1.15323,-1.0201613 3.01613,-1.0201613 3.94758,1.4193548 0.93146,2.439516 -0.57661,5.5887097 -0.57661,5.5887097 1.60353,-1.579716 2.64649,-2.157441 5.50946,-2.7087975 3.38074,-0.6510695 6.20603,0.9152115 6.86554,3.7948375 0.6595,2.879625 -0.13298,5.397509 -3.55154,7.127215 -3.35096,1.695505 -2.56504,3.284914 -2.49909,4.274208 -2.55643,-1.163988 -2.3432,-3.250894 -1.36739,-5.69041 0.97581,-2.439516 -0.191,-5.482128 -3.01521,-3.275572 -2.82421,2.206556 -3.24122,5.544896 -3.21599,8.206568 1.01123,-0.548767 2.30043,0.637916 1.80294,1.910372 -0.49749,1.272456 -1.56733,1.889752 -3.64401,2.324414 0.16429,1.890535 0.29422,4.480024 2.95846,6.930078 2.61664,2.406274 4.6356,5.18487 2.43799,7.91178 -0.26292,-3.631792 -2.61645,-4.046094 -4.68894,-6.533469 1.32566,3.798124 -1.17344,4.176789 -2.48885,5.458202 -0.003,1.889809 -0.93091,2.631233 -1.75659,3.669766 -0.82568,-1.038533 -1.75359,-1.779957 -1.75659,-3.669766 z"
       id="path13638" /><path
       id="path13640"
       style="font-variation-settings:normal;opacity:1;fill:none;fill-opacity:1;stroke:#000000;stroke-width:0.528698;stroke-linecap:butt;stroke-linejoin:miter;stroke-miterlimit:4;stroke-dasharray:none;stroke-dashoffset:0;stroke-opacity:1;stop-color:#000000;stop-opacity:1"
       d="m 221.40672,36.601869 c -2.07249,-2.487374 -2.41304,-4.673718 -2.28758,-8.060987 m -6.2033,8.060987 c 2.07249,-2.487374 2.41304,-4.673718 2.28758,-8.060987 m -1.58007,-0.247402 c 0.95125,0.199101 2.18805,0.310129 3.53793,0.310129 1.34988,0 2.58668,-0.111028 3.53793,-0.310129 m -8.91693,-4.234786 c -0.006,1.244882 2.11044,1.659463 5.379,1.659463 3.26856,0 5.385,-0.414581 5.379,-1.659463" /><path
       style="color:#000000;fill:#000000;stroke-width:0.528698;stroke-dasharray:none"
       d="m 214.12149,4.8341794 -0.42973,0.3634742 c -0.11543,2.9140169 0.64152,2.957178 1.19593,6.0513734 -0.13667,-3.1098594 -0.75856,-2.8420079 -0.7662,-6.4148476 z m -3.55095,7.0511256 -0.32224,0.08073 -0.16806,0.297433 c 1.27268,1.710464 2.04265,3.157884 3.01746,5.70918 0.97321,2.547135 1.14792,4.705277 1.09277,6.929689 0.49371,-1.774443 0.33115,-4.574378 -0.65542,-7.156371 -0.98657,-2.581994 -1.93909,-4.084955 -2.96451,-5.860665 z"
       id="path13642" /><path
       style="color:#000000;fill:#000000;stroke-width:0.528698;stroke-dasharray:none"
       d="m 220.20107,4.8341794 0.42973,0.3634742 c 0.11543,2.9140169 -0.64152,2.957178 -1.19593,6.0513734 0.13667,-3.1098594 0.75856,-2.8420079 0.7662,-6.4148476 z m 3.55095,7.0511256 0.32224,0.08073 0.16806,0.297433 c -1.27268,1.710464 -2.04265,3.157884 -3.01746,5.70918 -0.97321,2.547135 -1.14792,4.705277 -1.09277,6.929689 -0.49371,-1.774443 -0.33115,-4.574378 0.65542,-7.156371 0.98657,-2.581994 1.93909,-4.084955 2.96451,-5.860665 z"
       id="path13644" /></g></svg>
