<?xml version="1.0" encoding="UTF-8" standalone="no"?>
<svg xmlns:dc="http://purl.org/dc/elements/1.1/" xmlns:cc="http://creativecommons.org/ns#" xmlns:rdf="http://www.w3.org/1999/02/22-rdf-syntax-ns#" xmlns:svg="http://www.w3.org/2000/svg" xmlns="http://www.w3.org/2000/svg" width="500" height="569.99994" viewBox="0 0 132.29166 150.81249" version="1.1" id="svg847">
  <defs id="defs841"/>
  <metadata id="metadata844">
    <rdf:RDF>
      <cc:Work rdf:about="">
        <dc:format>image/svg+xml</dc:format>
        <dc:type rdf:resource="http://purl.org/dc/dcmitype/StillImage"/>
        <dc:title/>
      </cc:Work>
    </rdf:RDF>
  </metadata>
  <path id="path844" style="fill:#005fcc;fill-opacity:1;fill-rule:evenodd;stroke:none;stroke-width:0.264582;stroke-linecap:round;stroke-linejoin:bevel;stroke-miterlimit:5;stroke-dasharray:none" d="m 0,0 v 84.785958 c 0,36.465602 29.614748,66.026532 66.146091,66.026532 36.531339,0 66.145569,-29.56093 66.145569,-66.026532 V 0 Z"/>
  <path id="circle877" style="fill:#bf9f4f;fill-opacity:1;fill-rule:evenodd;stroke:none;stroke-width:0.264582;stroke-linecap:round;stroke-linejoin:bevel;stroke-miterlimit:5;stroke-dasharray:none" d="m 66.145834,117.69853 c 25.132285,0 45.506026,-20.373742 45.506026,-45.506023 0,-25.132284 -20.373741,-45.50603 -45.506026,-45.50603 -25.132283,0 -45.506023,20.373746 -45.506023,45.50603 0,25.132283 20.37374,45.506023 45.506023,45.506023 z m 0,-7.14339 c -21.187104,0 -38.362635,-17.175534 -38.362635,-38.362633 0,-21.187105 17.175531,-38.362643 38.362635,-38.362643 21.187096,0 38.362636,17.175538 38.362636,38.362643 0,21.187096 -17.17554,38.362633 -38.362636,38.362633 z"/>
  <g id="g944" style="fill:#bf9f4f;fill-opacity:1;stroke:none;stroke-width:1.00005" transform="matrix(0.99994924,0,0,0.99994924,-28.329389,-44.763385)">
    <path id="path1002" style="font-variation-settings:normal;opacity:1;vector-effect:none;fill:#bf9f4f;fill-opacity:1;stroke:none;stroke-width:0.132299;stroke-linecap:butt;stroke-linejoin:miter;stroke-miterlimit:5;stroke-dasharray:none;stroke-dashoffset:0;stroke-opacity:1;stop-color:#000000;stop-opacity:1" d="m 94.479992,56.504561 c -0.844722,0 -1.68448,0.02201 -2.520775,0.05633 l 0.671793,16.403645 h 3.697448 l 0.671793,-16.403647 c -0.836292,-0.03431 -1.675534,-0.05633 -2.520259,-0.05633 z m -16.272911,2.217952 c -1.62716,0.453702 -3.22632,0.974212 -4.79505,1.557528 l 5.71334,15.409394 3.51659,-1.142566 z m 32.545309,0 -4.43488,15.824356 3.51658,1.142566 5.71335,-15.409912 c -1.56876,-0.583322 -3.16785,-1.103308 -4.79505,-1.55701 z m -49.740119,7.886856 c -1.40088,0.932982 -2.76095,1.92223 -4.07624,2.965712 l 10.18698,12.8788 2.99154,-2.17351 z m 66.934929,0 -9.10229,13.671002 2.99155,2.17351 10.18698,-12.8788 c -1.31529,-1.043482 -2.67536,-2.03273 -4.07624,-2.965712 z M 47.093221,79.417891 c -1.04361,1.315426 -2.03262,2.67571 -2.96571,4.076752 l 13.671,9.10177 2.17351,-2.99103 z m 94.773029,0 -12.8788,10.187492 2.17351,2.99103 13.671,-9.10177 c -0.93309,-1.401042 -1.9221,-2.761326 -2.96571,-4.076752 z M 37.797661,95.893886 c -0.58339,1.568963 -1.10326,3.168677 -1.55701,4.796094 l 15.82384,4.43435 1.14257,-3.51658 z m 113.364139,0 -15.40939,5.713864 1.14256,3.51658 15.82384,-4.43435 c -0.45374,-1.627417 -0.97361,-3.227131 -1.55701,-4.796094 z M 34.079031,114.44107 c -0.0343,0.83641 -0.0563,1.67595 -0.0563,2.52078 0,0.84483 0.022,1.68438 0.0563,2.52078 l 16.40365,-0.6718 v -3.69796 z m 120.801409,0 -16.40313,0.6718 v 3.69796 l 16.40313,0.6718 c 0.0343,-0.8364 0.0568,-1.67595 0.0568,-2.52078 0,-0.84483 -0.0225,-1.68437 -0.0568,-2.52078 z m -102.815949,14.3583 -15.82384,4.43436 c 0.45375,1.62741 0.97362,3.22713 1.55701,4.79609 l 15.4094,-5.71387 z m 84.830489,0 -1.14257,3.51658 15.40939,5.71387 c 0.5834,-1.56896 1.10327,-3.16868 1.55701,-4.79609 z m -79.096469,12.52792 -13.67152,9.10177 c 0.93316,1.40116 1.92253,2.76122 2.96623,4.07675 l 12.8788,-10.18749 z m 73.362449,0 -2.17351,2.99103 12.8788,10.18749 c 1.04369,-1.31553 2.03307,-2.67559 2.96622,-4.07675 z m -64.037949,10.14253 -10.18698,12.8788 c 1.31529,1.04348 2.67536,2.03273 4.07624,2.96571 l 9.10228,-13.671 z m 54.713449,0 -2.99155,2.17351 9.10229,13.671 c 1.40088,-0.93298 2.76095,-1.92223 4.07624,-2.96571 z m -42.711089,6.76445 -5.71334,15.40939 c 1.56888,0.58338 3.16824,1.1038 4.79557,1.55753 l 4.43436,-15.82384 z m 30.708719,0 -3.51658,1.14308 4.43436,15.82384 c 1.62737,-0.45373 3.22665,-0.97363 4.79557,-1.55701 z m -17.20308,2.7249 -0.671793,16.40365 c 0.836295,0.0343 1.676053,0.0563 2.520775,0.0563 0.844725,0 1.683967,-0.022 2.520259,-0.0563 l -0.671793,-16.40365 z"/>
  </g>
  <path id="circle1087" style="fill:#bf9f4f;fill-opacity:1;fill-rule:evenodd;stroke:none;stroke-width:0.264583;stroke-linecap:round;stroke-linejoin:bevel;stroke-miterlimit:5;stroke-dasharray:none" d="m 66.145834,128.54589 a 56.353386,56.353386 0 0 1 -6.695891,-0.39943 l 0.551877,-3.93083 a 52.38484,52.38484 0 0 0 6.144014,0.36171 52.38484,52.38484 0 0 0 6.143501,-0.36171 l 0.551874,3.93134 a 56.353386,56.353386 0 0 1 -6.695375,0.39892 z m 10.922811,-1.06861 -0.690363,-3.90912 a 52.38484,52.38484 0 0 0 11.686549,-3.79699 l 1.739341,3.56755 a 56.353386,56.353386 0 0 1 -12.735527,4.13856 z m -21.846137,-5.3e-4 a 56.353386,56.353386 0 0 1 -12.735525,-4.13804 l 1.739338,-3.56808 a 52.38484,52.38484 0 0 0 11.68655,3.79753 z m -16.549054,-6.08097 a 56.353386,56.353386 0 0 1 -10.833412,-7.87096 l 2.756797,-2.85601 a 52.38484,52.38484 0 0 0 9.941007,7.22245 z m 54.944245,0 -1.863874,-3.50452 a 52.38484,52.38484 0 0 0 9.941005,-7.22193 l 2.7568,2.8555 a 56.353386,56.353386 0 0 1 -10.833931,7.87096 z m 13.860461,-10.89698 -2.85601,-2.75679 a 52.38484,52.38484 0 0 0 7.22245,-9.941528 l 3.50452,1.863874 a 56.353386,56.353386 0 0 1 -7.87096,10.834444 z m -82.664655,-5.3e-4 A 56.353386,56.353386 0 0 1 16.94255,99.664342 l 3.50452,-1.864389 a 52.38484,52.38484 0 0 0 7.222448,9.941527 z m 92.478545,-14.646938 -3.56807,-1.739341 a 52.38484,52.38484 0 0 0 3.79751,-11.686547 l 3.90912,0.689845 a 56.353386,56.353386 0 0 1 -4.13856,12.736069 z M 14.999615,95.850803 A 56.353386,56.353386 0 0 1 10.861062,83.115275 l 3.909123,-0.689844 a 52.38484,52.38484 0 0 0 3.796991,11.686031 z M 10.191369,78.88784 A 56.353386,56.353386 0 0 1 9.7924456,72.192465 56.353386,56.353386 0 0 1 10.191885,65.496574 l 3.930826,0.551877 a 52.38484,52.38484 0 0 0 -0.361717,6.144014 52.38484,52.38484 0 0 0 0.361717,6.143501 z m 111.908421,0 -3.93083,-0.551358 a 52.38484,52.38484 0 0 0 0.36171,-6.144017 52.38484,52.38484 0 0 0 -0.36171,-6.144014 l 3.93134,-0.551877 a 56.353386,56.353386 0 0 1 0.39892,6.695891 56.353386,56.353386 0 0 1 -0.39943,6.695375 z M 14.770185,61.959502 10.861062,61.269657 A 56.353386,56.353386 0 0 1 14.999615,48.53413 l 3.568077,1.73934 a 52.38484,52.38484 0 0 0 -3.797507,11.686071 z m 102.751305,0 a 52.38484,52.38484 0 0 0 -3.79751,-11.68655 l 3.56807,-1.739341 a 56.353386,56.353386 0 0 1 4.13856,12.736046 z M 20.44707,46.584477 16.94255,44.720085 a 56.353386,56.353386 0 0 1 7.870955,-10.833413 l 2.856013,2.756797 a 52.38484,52.38484 0 0 0 -7.222448,9.941008 z m 91.39753,0 a 52.38484,52.38484 0 0 0 -7.22245,-9.941008 l 2.85601,-2.756797 a 56.353386,56.353386 0 0 1 7.87096,10.833413 z M 30.596839,33.716149 27.840042,30.860135 a 56.353386,56.353386 0 0 1 10.833412,-7.870954 l 1.864392,3.504519 a 52.38484,52.38484 0 0 0 -9.941007,7.222449 z m 71.097991,-5.29e-4 a 52.38484,52.38484 0 0 0 -9.941005,-7.22193 l 1.863874,-3.50452 a 56.353386,56.353386 0 0 1 10.833931,7.870955 z M 44.22684,24.613796 42.486983,21.046235 a 56.353386,56.353386 0 0 1 12.735525,-4.138553 l 0.690363,3.909123 A 52.38484,52.38484 0 0 0 44.22684,24.613796 Z m 43.837991,0 A 52.38484,52.38484 0 0 0 76.378282,20.816805 l 0.690363,-3.909123 a 56.353386,56.353386 0 0 1 12.735527,4.138553 z M 60.00182,20.169331 59.449943,16.237989 a 56.353386,56.353386 0 0 1 6.695891,-0.398923 56.353386,56.353386 0 0 1 6.695375,0.399439 l -0.551874,3.930826 a 52.38484,52.38484 0 0 0 -6.143501,-0.361717 52.38484,52.38484 0 0 0 -6.144014,0.361717 z"/>
  <path id="circle1115" style="fill:#bf9f4f;fill-opacity:1;fill-rule:evenodd;stroke:none;stroke-width:0.264583;stroke-linecap:round;stroke-linejoin:bevel;stroke-miterlimit:5;stroke-dasharray:none" d="m 66.122581,121.13794 a 48.945432,48.945432 0 0 1 -5.642778,-0.32917 l 0.551877,-3.93031 c 1.678799,0.19005 3.384539,0.29093 5.114154,0.29093 1.729441,0 3.435007,-0.10091 5.113642,-0.29093 l 0.551877,3.93031 a 48.945432,48.945432 0 0 1 -5.665519,0.32917 48.945432,48.945432 0 0 1 -0.02325,0 z m -9.611843,-0.95752 a 48.945432,48.945432 0 0 1 -10.777091,-3.50193 l 1.735724,-3.56033 c 3.073554,1.40491 6.332066,2.47453 9.730178,3.16037 z m 19.269679,0 -0.688813,-3.90189 c 3.398136,-0.6858 6.6566,-1.75548 9.73018,-3.16037 l 1.735721,3.56033 a 48.945432,48.945432 0 0 1 -10.777088,3.50193 z M 42.15317,114.85388 a 48.945432,48.945432 0 0 1 -9.166934,-6.66023 l 2.758347,-2.85705 c 2.510906,2.30436 5.284332,4.3263 8.270394,6.01742 z m 47.984815,0 -1.861807,-3.49986 c 2.986208,-1.69116 5.759895,-3.71296 8.27091,-6.01742 l 2.757832,2.85705 a 48.945432,48.945432 0 0 1 -9.166935,6.66023 z m -59.993294,-9.50177 a 48.945432,48.945432 0 0 1 -6.660753,-9.167455 l 3.500384,-1.861807 c 1.691163,2.986208 3.712958,5.759892 6.017415,8.270912 z m 72.001769,0 -2.857044,-2.75784 c 2.304664,-2.51115 4.326644,-5.284999 6.017934,-8.271422 l 3.49986,1.861807 a 48.945432,48.945432 0 0 1 -6.66075,9.167455 z M 21.659853,92.604175 A 48.945432,48.945432 0 0 1 18.157918,81.827603 l 3.90189,-0.68881 c 0.685795,3.397882 1.755083,6.656287 3.159854,9.729661 z m 88.971967,0 -3.56033,-1.735721 c 1.40482,-3.073432 2.47457,-6.331705 3.16037,-9.729661 l 3.90137,0.68881 a 48.945432,48.945432 0 0 1 -3.50141,10.776572 z M 17.529565,77.858023 a 48.945432,48.945432 0 0 1 -0.329162,-5.665519 48.945432,48.945432 0 0 1 0.329162,-5.666031 l 3.93031,0.551877 c -0.190051,1.678799 -0.290924,3.384539 -0.290924,5.114154 0,1.729618 0.100873,3.435359 0.290924,5.114158 z m 97.232535,0 -3.93031,-0.551361 c 0.19005,-1.678799 0.29093,-3.38454 0.29093,-5.114158 0,-1.729615 -0.10088,-3.435355 -0.29093,-5.114154 l 3.93031,-0.551877 a 48.945432,48.945432 0 0 1 0.32917,5.666031 48.945432,48.945432 0 0 1 -0.32917,5.665519 z M 22.059808,63.246219 18.158437,62.557406 a 48.945432,48.945432 0 0 1 3.501416,-10.776572 l 3.559809,1.735724 c -1.404771,3.073371 -2.474059,6.331779 -3.159854,9.729661 z m 88.172052,0 c -0.6858,-3.397956 -1.75555,-6.656232 -3.16037,-9.729661 l 3.56033,-1.735724 a 48.945432,48.945432 0 0 1 3.50193,10.776572 z M 26.984322,50.062164 23.483938,48.200356 a 48.945432,48.945432 0 0 1 6.660753,-9.16745 l 2.857046,2.758348 c -2.304457,2.511014 -4.326252,5.284699 -6.017415,8.27091 z m 78.323028,0 c -1.69116,-2.986211 -3.71296,-5.759896 -6.017418,-8.27091 l 2.857048,-2.758348 a 48.945432,48.945432 0 0 1 6.66023,9.16745 z M 35.744583,39.048407 32.986236,36.191362 a 48.945432,48.945432 0 0 1 9.166934,-6.660235 l 1.861807,3.499865 c -2.986062,1.691118 -5.759488,3.713059 -8.270394,6.017415 z m 60.802505,0 c -2.511015,-2.304457 -5.284702,-4.326252 -8.27091,-6.017415 l 1.861807,-3.500384 a 48.945432,48.945432 0 0 1 9.166935,6.660754 z M 47.469887,31.266332 45.734163,27.706523 a 48.945432,48.945432 0 0 1 10.776575,-3.501934 l 0.688811,3.90189 c -3.397882,0.685794 -6.656291,1.755082 -9.729662,3.159853 z m 37.351897,0 c -3.073522,-1.40484 -6.332116,-2.474064 -9.73018,-3.159853 l 0.688813,-3.901372 a 48.945432,48.945432 0 0 1 10.777088,3.501416 z M 61.03168,27.506545 60.479803,23.576235 a 48.945432,48.945432 0 0 1 5.666031,-0.329162 48.945432,48.945432 0 0 1 5.665519,0.329162 l -0.551877,3.93031 c -1.678635,-0.190011 -3.384201,-0.290924 -5.113642,-0.290924 -1.729615,0 -3.435355,0.100873 -5.114154,0.290924 z"/>
  <path style="fill:#bf9f4f;fill-opacity:1;fill-rule:evenodd;stroke:none;stroke-width:0.264582;stroke-linecap:round;stroke-linejoin:bevel;stroke-miterlimit:5;stroke-dasharray:none" d="m 47.039534,110.55514 c 0,0 12.681029,-17.175534 12.681029,-38.362633 0,-21.187105 -12.681029,-38.362643 -12.681029,-38.362643 l 19.1063,-1.322852 19.106301,1.322852 c 0,0 -12.681026,17.175538 -12.681026,38.362643 0,21.187099 12.681026,38.362633 12.681026,38.362633 l -19.106301,1.32285 z" id="path1249"/>
  <path style="fill:#bf9f4f;fill-opacity:1;fill-rule:evenodd;stroke:none;stroke-width:0.264582;stroke-linecap:round;stroke-linejoin:bevel;stroke-miterlimit:5;stroke-dasharray:none" d="m 104.50848,53.086197 c 0,0 -17.17554,12.68103 -38.362639,12.68103 -21.187104,0 -38.362642,-12.68103 -38.362642,-12.68103 l -1.322853,19.106304 1.322853,19.1063 c 0,0 17.175538,-12.681026 38.362642,-12.681026 21.187099,0 38.362639,12.681026 38.362639,12.681026 l 1.32284,-19.1063 z" id="path1264"/>
</svg>