<?xml version="1.0" encoding="UTF-8" standalone="no"?>
<svg
   xmlns:dc="http://purl.org/dc/elements/1.1/"
   xmlns:cc="http://creativecommons.org/ns#"
   xmlns:rdf="http://www.w3.org/1999/02/22-rdf-syntax-ns#"
   xmlns:svg="http://www.w3.org/2000/svg"
   xmlns="http://www.w3.org/2000/svg"
   xmlns:sodipodi="http://sodipodi.sourceforge.net/DTD/sodipodi-0.dtd"
   xmlns:inkscape="http://www.inkscape.org/namespaces/inkscape"
   xml:space="preserve"
   width="506.12408"
   height="822.38989"
   shape-rendering="geometricPrecision"
   text-rendering="geometricPrecision"
   image-rendering="optimizeQuality"
   fill-rule="evenodd"
   clip-rule="evenodd"
   viewBox="0 0 506.12408 822.38989"
   version="1.0"
   id="svg177"
   sodipodi:docname="svg.svg"
   inkscape:version="1.0 (4035a4fb49, 2020-05-01)"><metadata
   id="metadata183"><rdf:RDF><cc:Work
       rdf:about=""><dc:format>image/svg+xml</dc:format><dc:type
         rdf:resource="http://purl.org/dc/dcmitype/StillImage" /></cc:Work></rdf:RDF></metadata><defs
   id="defs181" /><sodipodi:namedview
   inkscape:document-rotation="0"
   pagecolor="#ffffff"
   bordercolor="#666666"
   borderopacity="1"
   objecttolerance="10"
   gridtolerance="10"
   guidetolerance="10"
   inkscape:pageopacity="0"
   inkscape:pageshadow="2"
   inkscape:window-width="1920"
   inkscape:window-height="1017"
   id="namedview179"
   showgrid="false"
   inkscape:zoom="0.9088894"
   inkscape:cx="198.37254"
   inkscape:cy="441.53421"
   inkscape:window-x="-8"
   inkscape:window-y="-8"
   inkscape:window-maximized="1"
   inkscape:current-layer="svg177"
   inkscape:snap-smooth-nodes="true" />
 <g
   id="Layer_x0020_1"
   transform="translate(3.6439738,0.68582433)"
   style="opacity:1">
  <metadata
   id="CorelCorpID_0Corel-Layer" />
  
  
  
  
  
  
  
  
  
  
  
  
  
  
  
  
  
  
  
  
  
  
  
  
  
  
  
  
  
  
  
  
  
  
  
  
  
  
  
  
  
  
  
  
  
  
  
  
  
  
  
  
  
  
  
  
  
  
  
  
  
  
  
  
  
  
  
  
  
  
  
  
  
  
  
  
  
  
  
  
  
  
  
  
  
  
  
  
  
  
  
  
  
 <g
   id="g1678"><path
     id="path1588"
     fill="none"
     stroke="#000000"
     stroke-width="2.00034"
     d="M 499.48844,622.88478 500.4783,177.28601 H -1.6421689 v 445.59877 z"
     sodipodi:nodetypes="ccccc"
     style="fill:#0581ed;fill-opacity:1;stroke:none;stroke-width:4;stroke-miterlimit:4;stroke-dasharray:none" /><path
     style="fill:#000000;fill-opacity:1;stroke:none;stroke-width:4;stroke-miterlimit:4;stroke-dasharray:none"
     sodipodi:nodetypes="cccccccccc"
     d="m -1.6421689,622.88478 0.4949309,103.08723 c 0.038517,40.9031 20.776326,72.47631 62.699922,76.2356 l 158.803446,-0.40214 c 20.00675,-0.0392 29.06194,15.85779 29.06194,15.85779 0,0 9.05519,-15.89699 29.06194,-15.85779 l 158.80344,0.40214 c 41.92359,-3.75929 62.6614,-35.3325 62.69992,-76.2356 l 0.49493,-103.08723 z"
     stroke-width="2.00034"
     stroke="#000000"
     fill="none"
     id="path1608" /><path
     d="m 39.41124,586.54883 c -14.04662,0 -27.10366,7.43997 -40.67383,10.89844 l 0.04492,51.15625 c 13.55406,-3.46339 26.59789,-10.88648 40.62891,-10.88672 18.09387,-3.1e-4 34.47262,12.63476 52.5664,12.63476 18.09378,0 34.47263,-12.63476 52.56641,-12.63476 18.09378,0 34.47101,12.63484 52.56445,12.63476 18.09344,-8e-5 34.47101,-12.63467 52.56446,-12.63476 18.09346,-9e-5 34.54176,12.37559 52.56636,12.63476 18.0247,0.25917 34.6047,-11.03515 52.5645,-11.03515 17.9598,0 34.6069,11.03522 52.5664,11.03515 17.9595,-7e-5 34.605,-11.03508 52.5645,-11.03515 13.7583,-6e-5 26.7097,6.61317 40.1191,9.59765 l 0.0449,-51.1582 c -13.4254,-2.97966 -26.3903,-9.60748 -40.164,-9.60742 -17.9595,7e-5 -34.6051,11.03476 -52.5645,11.03515 -17.9594,3.9e-4 -34.6067,-11.0332 -52.5664,-11.0332 -17.9597,0 -34.5399,11.29268 -52.5645,11.0332 -18.0245,-0.25948 -34.4729,-12.63485 -52.56636,-12.63476 -18.09345,9e-5 -34.47102,12.63468 -52.56446,12.63476 -18.09344,8e-5 -34.47058,-12.63508 -52.56445,-12.63476 -18.09387,3.2e-4 -34.47245,12.63672 -52.56641,12.63672 -18.09396,0 -34.47244,-12.63672 -52.5664,-12.63672 z"
     style="fill:#cccccc;fill-opacity:1;stroke:none;stroke-width:1.03515"
     id="path1937_4" /><g
     transform="translate(-0.71403696)"
     id="g1135"><g
       style="stroke-width:4;stroke-miterlimit:4;stroke-dasharray:none"
       id="g1320"><g
         transform="matrix(-1,0,0,1,500.2642,0)"
         style="stroke-width:4;stroke-miterlimit:4;stroke-dasharray:none"
         id="use1162">
   
   <path
   id="path1449"
   style="fill:#bf9f4f;stroke:#000000;stroke-width:4;stroke-miterlimit:4;stroke-dasharray:none"
   d="M 143.3884,464.351 138.8233,311.757 H 52.8819 l -4.5651,152.594 z"
   sodipodi:nodetypes="ccccc" />
   <path
   sodipodi:nodetypes="cccccc"
   d="m 147.794,288.127 -8.9707,23.63 H 52.8819 l -8.9707,-23.63 51.9414,-22.028 z"
   style="fill:#bf9f4f;stroke:#000000;stroke-width:4;stroke-miterlimit:4;stroke-dasharray:none"
   id="path1451" />
   
   
   
   
   <g
   style="stroke-width:4;stroke-miterlimit:4;stroke-dasharray:none"
   transform="translate(0.01691999)"
   id="g1463"><circle
     style="stroke-width:4;stroke-miterlimit:4;stroke-dasharray:none"
     r="4.4055901"
     cy="300.543"
     cx="63.135487"
     fill="#000000"
     id="circle1453" /><circle
     style="stroke-width:4;stroke-miterlimit:4;stroke-dasharray:none"
     r="4.4055901"
     cy="300.543"
     cx="79.48558"
     fill="#000000"
     id="circle1455" /><circle
     style="stroke-width:4;stroke-miterlimit:4;stroke-dasharray:none"
     r="4.4055901"
     cy="300.543"
     cx="95.835678"
     fill="#000000"
     id="circle1457" /><circle
     style="stroke-width:4;stroke-miterlimit:4;stroke-dasharray:none"
     r="4.4055901"
     cy="300.543"
     cx="112.18578"
     fill="#000000"
     id="circle1459" /><circle
     style="stroke-width:4;stroke-miterlimit:4;stroke-dasharray:none"
     r="4.4055901"
     cy="300.543"
     cx="128.53587"
     fill="#000000"
     id="circle1461" /></g>
   <line
   style="stroke-width:4;stroke-miterlimit:4;stroke-dasharray:none"
   id="line1465"
   fill="none"
   stroke="#000000"
   stroke-width="3.96851"
   x1="45.1884"
   y1="291.33099"
   x2="146.5168"
   y2="291.33099" />
   
   
  <path
   style="stroke-width:4;stroke-miterlimit:4;stroke-dasharray:none"
   d="m 98.80121,266.099 -0.400536,-8.01015 c 5.473706,0.40054 6.141266,-11.6147 -0.400536,-12.0152 l -0.400252,-13.6174 h -3.494578 l -0.400252,13.6174 c -6.541794,0.4005 -5.874234,12.41574 -0.400536,12.0152 l -0.400536,8.01015 z"
   fill="#000000"
   id="path1467"
   sodipodi:nodetypes="ccccccccc" /><path
   d="M 103.81136,365.425 H 91.3956 c 0,-7.0894 -1.68539,-22.8288 6.20788,-22.8288 7.89327,0 6.20788,15.7394 6.20788,22.8288 z"
   fill="#000000"
   id="path1469"
   sodipodi:nodetypes="cczc"
   style="stroke-width:4;stroke-miterlimit:4;stroke-dasharray:none" /></g><path
         id="use1213"
         style="fill:#bf9f4f;stroke:#000000;stroke-width:4;stroke-miterlimit:4;stroke-dasharray:none"
         d="M 330.72519,464.117 H 451.6783 l 6.0078,9.612 2.4029,51.666 H 331.12519 Z" /><g
         id="_58109216"
         style="stroke-width:4;stroke-miterlimit:4;stroke-dasharray:none">
   
   <path
   sodipodi:nodetypes="ccccc"
   d="M 143.3884,464.351 138.8233,311.757 H 52.8819 l -4.5651,152.594 z"
   style="fill:#bf9f4f;stroke:#000000;stroke-width:4;stroke-miterlimit:4;stroke-dasharray:none"
   id="path1246" />
   <path
   id="_58068840"
   style="fill:#bf9f4f;stroke:#000000;stroke-width:4;stroke-miterlimit:4;stroke-dasharray:none"
   d="m 147.794,288.127 -8.9707,23.63 H 52.8819 l -8.9707,-23.63 51.9414,-22.028 z"
   sodipodi:nodetypes="cccccc" />
   
   
   
   
   <g
   id="g1160"
   transform="translate(0.01691999)"
   style="stroke-width:4;stroke-miterlimit:4;stroke-dasharray:none"><circle
     id="_107610784"
     fill="#000000"
     cx="63.135487"
     cy="300.543"
     r="4.4055901"
     style="stroke-width:4;stroke-miterlimit:4;stroke-dasharray:none" /><circle
     id="_57803216"
     fill="#000000"
     cx="79.48558"
     cy="300.543"
     r="4.4055901"
     style="stroke-width:4;stroke-miterlimit:4;stroke-dasharray:none" /><circle
     id="_58035832"
     fill="#000000"
     cx="95.835678"
     cy="300.543"
     r="4.4055901"
     style="stroke-width:4;stroke-miterlimit:4;stroke-dasharray:none" /><circle
     id="_57714224"
     fill="#000000"
     cx="112.18578"
     cy="300.543"
     r="4.4055901"
     style="stroke-width:4;stroke-miterlimit:4;stroke-dasharray:none" /><circle
     id="_56738632"
     fill="#000000"
     cx="128.53587"
     cy="300.543"
     r="4.4055901"
     style="stroke-width:4;stroke-miterlimit:4;stroke-dasharray:none" /></g>
   <line
   y2="291.33099"
   x2="146.5168"
   y1="291.33099"
   x1="45.1884"
   stroke-width="3.96851"
   stroke="#000000"
   fill="none"
   id="_57891744"
   style="stroke-width:4;stroke-miterlimit:4;stroke-dasharray:none" />
   
   
  <path
   sodipodi:nodetypes="ccccccccc"
   id="path1153"
   fill="#000000"
   d="m 98.80121,266.099 -0.400536,-8.01015 c 5.473706,0.40054 6.141266,-11.6147 -0.400536,-12.0152 l -0.400252,-13.6174 h -3.494578 l -0.400252,13.6174 c -6.541794,0.4005 -5.874234,12.41574 -0.400536,12.0152 l -0.400536,8.01015 z"
   style="stroke-width:4;stroke-miterlimit:4;stroke-dasharray:none" /><path
   style="stroke-width:4;stroke-miterlimit:4;stroke-dasharray:none"
   sodipodi:nodetypes="cczc"
   id="path1332"
   fill="#000000"
   d="M 103.81136,365.425 H 91.3956 c 0,-7.0894 -1.68539,-22.8288 6.20788,-22.8288 7.89327,0 6.20788,15.7394 6.20788,22.8288 z" /></g><path
         d="M 169.53901,464.117 H 48.585904 l -6.0078,9.612 -2.4029,51.666 H 169.13901 Z"
         style="opacity:1;fill:#bf9f4f;stroke:#000000;stroke-width:4;stroke-miterlimit:4;stroke-dasharray:none"
         id="_57718848" /></g><g
       style="stroke-width:4;stroke-miterlimit:4;stroke-dasharray:none"
       transform="translate(0.88910201)"
       id="g1303"><g
         style="stroke-width:4;stroke-miterlimit:4;stroke-dasharray:none"
         id="_58111576">
   <polygon
   style="stroke-width:4;stroke-miterlimit:4;stroke-dasharray:none"
   points="109.282,480.538 112.886,420.862 234.742,420.862 234.742,480.538 "
   stroke-width="3.96851"
   stroke="#000000"
   fill="#bf9f4f"
   id="_58101968" />
   <polygon
   style="stroke-width:4;stroke-miterlimit:4;stroke-dasharray:none"
   points="158.881,397.84 158.881,389.831 137.531,389.831 137.531,397.84 124.355,397.84 124.355,389.831 102.254,389.831 102.254,421.263 195.31,421.263 195.033,389.831 174.934,389.831 174.934,397.84 "
   stroke-width="3.96851"
   stroke="#000000"
   fill="#bf9f4f"
   id="_56614664" />
   <polygon
   style="stroke-width:4;stroke-miterlimit:4;stroke-dasharray:none"
   points="101.892,539.31 234.769,539.31 234.742,480.138 109.282,480.138 105.096,488.417 "
   stroke-width="3.96851"
   stroke="#000000"
   fill="#bf9f4f"
   id="_58117560" />
   
  <path
   d="m 152.31678,468.51895 h -12.41576 c 0,-7.0894 -1.68539,-22.8288 6.20788,-22.8288 7.89327,0 6.20788,15.7394 6.20788,22.8288 z"
   fill="#000000"
   id="path1332-3"
   sodipodi:nodetypes="cczc"
   style="opacity:1;stroke-width:4;stroke-miterlimit:4;stroke-dasharray:none" /></g><g
         style="stroke-width:4;stroke-miterlimit:4;stroke-dasharray:none"
         id="_57212280">
   <polygon
   style="stroke-width:4;stroke-miterlimit:4;stroke-dasharray:none"
   points="389.204,480.538 385.6,420.862 263.744,420.862 263.744,480.538 "
   stroke-width="3.96851"
   stroke="#000000"
   fill="#bf9f4f"
   id="_58034640" />
   <polygon
   style="stroke-width:4;stroke-miterlimit:4;stroke-dasharray:none"
   points="339.605,397.84 339.605,389.831 360.955,389.831 360.955,397.84 374.13,397.84 374.13,389.831 396.232,389.831 396.232,421.263 303.175,421.263 303.453,389.831 323.552,389.831 323.552,397.84 "
   stroke-width="3.96851"
   stroke="#000000"
   fill="#bf9f4f"
   id="_58051464" />
   <polygon
   style="stroke-width:4;stroke-miterlimit:4;stroke-dasharray:none"
   points="396.594,539.31 263.717,539.31 263.744,480.138 389.204,480.138 393.39,488.417 "
   stroke-width="3.96851"
   stroke="#000000"
   fill="#bf9f4f"
   id="_58496600" />
   
  <path
   style="opacity:1;stroke-width:4;stroke-miterlimit:4;stroke-dasharray:none"
   sodipodi:nodetypes="cczc"
   id="path1332-3-5"
   fill="#000000"
   d="m 358.58398,468.51895 h -12.41576 c 0,-7.0894 -1.68539,-22.8288 6.20788,-22.8288 7.89327,0 6.20788,15.7394 6.20788,22.8288 z" /></g></g><g
       transform="matrix(-1,0,0,1,345.9847,-34.677)"
       id="use1248"
       style="stroke-width:4;stroke-miterlimit:4;stroke-dasharray:none">
   
   <path
   sodipodi:nodetypes="ccccc"
   d="M 150.3884,464.351 138.8233,311.757 H 52.8819 L 41.3168,464.351 Z"
   style="fill:#bf9f4f;stroke:#000000;stroke-width:4;stroke-miterlimit:4;stroke-dasharray:none"
   id="path1269" /><path
   d="m 89.64472,365.425 c 0.4527,-7.4922 -1.68539,-22.8288 6.20788,-22.8288 7.89327,0 5.75518,15.3366 6.20788,22.8288 z"
   fill="#000000"
   id="path1271"
   sodipodi:nodetypes="czcc"
   style="stroke-width:4;stroke-miterlimit:4;stroke-dasharray:none" />
   <path
   id="path1273"
   style="fill:#bf9f4f;stroke:#000000;stroke-width:4;stroke-miterlimit:4;stroke-dasharray:none"
   d="m 147.794,288.127 -8.9707,23.63 H 52.8819 l -8.9707,-23.63 51.9414,-22.028 z"
   sodipodi:nodetypes="cccccc" />
   
   
   
   
   <g
   id="g1285"
   transform="translate(0.01691999)"
   style="stroke-width:4;stroke-miterlimit:4;stroke-dasharray:none"><circle
     id="circle1275"
     fill="#000000"
     cx="63.135487"
     cy="300.543"
     r="4.4055901"
     style="stroke-width:4;stroke-miterlimit:4;stroke-dasharray:none" /><circle
     id="circle1277"
     fill="#000000"
     cx="79.48558"
     cy="300.543"
     r="4.4055901"
     style="stroke-width:4;stroke-miterlimit:4;stroke-dasharray:none" /><circle
     id="circle1279"
     fill="#000000"
     cx="95.835678"
     cy="300.543"
     r="4.4055901"
     style="stroke-width:4;stroke-miterlimit:4;stroke-dasharray:none" /><circle
     id="circle1281"
     fill="#000000"
     cx="112.18578"
     cy="300.543"
     r="4.4055901"
     style="stroke-width:4;stroke-miterlimit:4;stroke-dasharray:none" /><circle
     id="circle1283"
     fill="#000000"
     cx="128.53587"
     cy="300.543"
     r="4.4055901"
     style="stroke-width:4;stroke-miterlimit:4;stroke-dasharray:none" /></g>
   <line
   y2="291.33099"
   x2="146.5168"
   y1="291.33099"
   x1="45.1884"
   stroke-width="3.96851"
   stroke="#000000"
   fill="none"
   id="line1287"
   style="stroke-width:4;stroke-miterlimit:4;stroke-dasharray:none" />
   
   
  <path
   sodipodi:nodetypes="ccccccccc"
   id="path1289"
   fill="#000000"
   d="m 98.80121,266.099 -0.400536,-8.01015 c 5.473706,0.40054 6.141266,-11.6147 -0.400536,-12.0152 l -0.400252,-13.6174 h -3.494578 l -0.400252,13.6174 c -6.541794,0.4005 -5.874234,12.41574 -0.400536,12.0152 l -0.400536,8.01015 z"
   style="stroke-width:4;stroke-miterlimit:4;stroke-dasharray:none" /></g><g
       style="stroke-width:4;stroke-miterlimit:4;stroke-dasharray:none"
       transform="translate(-0.30989799)"
       id="_58132856">
   <path
   sodipodi:nodetypes="ccccccccccccccccccccc"
   d="m 224.27533,381.612 h -17.44444 v 7.757 h -17.44445 v -7.757 H 171.942 v 30.439 h 157 v -30.439 h -17.44444 v 7.757 h -17.44445 v -7.757 h -17.44444 v 7.757 h -17.44445 v -7.757 h -17.44444 v 7.757 h -17.44445 z"
   style="fill:#bf9f4f;stroke:#000000;stroke-width:4;stroke-miterlimit:4;stroke-dasharray:none"
   id="_56620248" />
   <rect
   style="stroke-width:4;stroke-miterlimit:4;stroke-dasharray:none"
   id="_57797016"
   fill="#bf9f4f"
   stroke="#000000"
   stroke-width="3.96851"
   x="178.55099"
   y="412.05099"
   width="143.782"
   height="80.502098" />
   
   
   <polygon
   style="stroke-width:4;stroke-miterlimit:4;stroke-dasharray:none"
   transform="translate(0.6965)"
   id="_58085296"
   fill="#bf9f4f"
   stroke="#000000"
   stroke-width="3.96851"
   points="177.95,492.553 169.94,500.964 169.94,550.627 329.551,550.627 329.551,500.964 321.732,492.553 " />
  <path
   d="m 224.00878,481.73594 h -12.41576 c 0,-7.0894 -1.68539,-22.8288 6.20788,-22.8288 7.89327,0 6.20788,15.7394 6.20788,22.8288 z"
   fill="#000000"
   id="path1332-8"
   sodipodi:nodetypes="cczc"
   style="opacity:1;stroke-width:4;stroke-miterlimit:4;stroke-dasharray:none" /><path
   style="opacity:1;stroke-width:4;stroke-miterlimit:4;stroke-dasharray:none"
   sodipodi:nodetypes="cczc"
   id="path1412"
   fill="#000000"
   d="m 289.09078,481.73594 h -12.41576 c 0,-7.0894 -1.68539,-22.8288 6.20788,-22.8288 7.89327,0 6.20788,15.7394 6.20788,22.8288 z" /></g></g><path
     style="stroke:#000000;stroke-width:4;stroke-miterlimit:4;stroke-dasharray:none"
     sodipodi:nodetypes="cccccccccc"
     d="m -1.6421689,177.28601 0.4949309,548.686 c 0.038517,40.9031 20.776326,72.47631 62.699922,76.2356 l 158.803446,-0.40214 c 20.00675,-0.0392 29.06194,15.85779 29.06194,15.85779 0,0 9.05519,-15.89699 29.06194,-15.85779 l 158.80344,0.40214 c 41.92359,-3.75929 62.6614,-35.3325 62.69992,-76.2356 l 0.49493,-548.686 z"
     stroke-width="2.00034"
     stroke="#000000"
     fill="none"
     id="path1937_5" /><g
     transform="translate(-2.3255265,2)"
     id="g1065"><path
       fill="#bf9f4f"
       d="m 227.56813,690.004 c -0.55077,-18.023 -14.9315,-19.1928 -24.8817,-13.2168 -16.6711,10.0125 -31.7404,44.4566 -44.807,51.6657 -8.74404,6.87515 -15.4491,-2.93159 -11.8953,-6.63534 2.45622,-2.55969 6.97663,-2.22265 5.99755,-0.23641 -1.36063,2.76038 -0.12728,6.66964 3.0943,1.66507 18.3181,-21.8668 19.9052,-40.3759 35.767,-54.9457 13.2591,-12.1802 36.1894,-17.3041 47.9393,8.88719 h 25.9226 c 11.7502,-26.1913 34.6802,-21.0674 47.9396,-8.88719 15.8616,14.5698 17.4487,33.0789 35.7667,54.9457 3.22186,5.00457 4.45493,1.09531 3.0943,-1.66507 -0.97909,-1.98624 3.54132,-2.32328 5.99755,0.23641 3.5538,3.70375 -3.15099,13.5105 -11.8953,6.63534 -13.0666,-7.20907 -28.1359,-41.6532 -44.807,-51.6657 -9.95018,-5.976 -24.3309,-4.80614 -24.8814,13.2168 h -48.3511 z"
       id="path83" /><path
       id="path87"
       d="m 154.17766,719.5918 c -1.88715,0.25717 -4.05363,3.61228 -1.99414,4.58789 l 5.80273,4.40234 c 1.40088,1.60101 5.80386,-2.00098 3.40235,-4.00195 l -6.00391,-4.60352 c -0.3502,-0.33771 -0.77154,-0.44411 -1.20703,-0.38476 z m 194.70317,0 c -0.2796,0.0387 -0.5459,0.15962 -0.7793,0.38476 l -6.002,4.60352 c -2.4015,2.00097 1.9995,5.60296 3.4004,4.00195 l 5.8047,-4.40234 c 2.2179,-1.05066 -0.4668,-4.85882 -2.4238,-4.58789 z"
       style="fill:#cccccc;fill-opacity:1;stroke:#000000;stroke-width:1.5;stroke-miterlimit:4;stroke-dasharray:none" /><polygon
       fill="#cccccc"
       points="252.045,730.182 264.653,740.388 264.653,777.408 252.045,769.003 240.439,777.208 239.839,739.988 "
       id="polygon102"
       transform="translate(-0.50241)" /><path
       fill="#cccccc"
       d="m 251.24174,642.334 c -3.86873,10.2056 -11.5396,26.4144 -11.6065,30.6167 2.13477,-1.93465 5.26989,-3.06851 7.80435,-4.40249 l -0.20013,5.00287 h 8.40473 v -4.80274 c 2.73458,1.33398 5.26933,1.86775 8.20432,4.00224 0.20013,-2.73487 -8.40445,-20.2779 -12.6068,-30.4166 z"
       id="path104" /><path
       fill="#bf9f4f"
       stroke="#000000"
       stroke-width="1.41732"
       d="m 247.4413,674.552 c 2.8681,-0.66954 5.73591,-0.40167 8.60457,0 v 108.459 c -2.86838,2.40151 -5.73676,2.40151 -8.60457,0 z"
       id="path106" /><path
       fill="#cccccc"
       stroke="#000000"
       stroke-width="1.41732"
       d="m 155.9927,720.5769 c -3.25626,-3.32191 1.00616,-6.6052 3.60199,-4.40249 70.4384,53.0955 88.848,69.238 92.1489,69.238 3.3009,0 21.7105,-16.1425 92.1489,-69.238 2.59583,-2.20271 6.85825,1.08058 3.60199,4.40249 -32.9502,24.4344 -91.09352,71.4391 -95.75089,71.4391 -4.65737,0 -62.80069,-47.0047 -95.75089,-71.4391 z"
       id="path85"
       sodipodi:nodetypes="cczcczc" /></g></g><g
   id="g2007"
   transform="translate(2.3852611e-5)"><g
     transform="translate(0,-1.2377744)"
     id="g1861"><g
       id="g1811"
       transform="matrix(0.99992606,0,0,0.99992606,0.01843983,2.8906675)"
       style="stroke-width:1.00007"><circle
         r="28.333773"
         cy="34.184357"
         cx="249.41805"
         id="path1741-9-6"
         style="color:#000000;display:inline;overflow:visible;visibility:visible;opacity:1;fill:#cccccc;fill-opacity:1;fill-rule:evenodd;stroke:#000000;stroke-width:4.00029;stroke-linecap:butt;stroke-linejoin:miter;stroke-miterlimit:4;stroke-dasharray:none;stroke-dashoffset:0;stroke-opacity:1;marker:none;marker-start:none;marker-mid:none;marker-end:none;enable-background:accumulate" /><circle
         style="color:#000000;display:inline;overflow:visible;visibility:visible;opacity:1;fill:#ffffff;fill-opacity:1;fill-rule:evenodd;stroke:none;stroke-width:4.00029;stroke-linecap:butt;stroke-linejoin:miter;stroke-miterlimit:4;stroke-dasharray:none;stroke-dashoffset:0;stroke-opacity:1;marker:none;marker-start:none;marker-mid:none;marker-end:none;enable-background:accumulate"
         id="circle1807"
         cx="239.75754"
         cy="25.590727"
         r="7.6669354" /></g><g
       id="g1817"
       transform="matrix(0.99992606,0,0,0.99992606,-29.989758,52.658425)"
       style="stroke-width:1.00007"><circle
         style="color:#000000;display:inline;overflow:visible;visibility:visible;opacity:1;fill:#cccccc;fill-opacity:1;fill-rule:evenodd;stroke:#000000;stroke-width:4.00029;stroke-linecap:butt;stroke-linejoin:miter;stroke-miterlimit:4;stroke-dasharray:none;stroke-dashoffset:0;stroke-opacity:1;marker:none;marker-start:none;marker-mid:none;marker-end:none;enable-background:accumulate"
         id="circle1813"
         cx="249.41805"
         cy="34.184357"
         r="28.333773" /><circle
         r="7.6669354"
         cy="25.590727"
         cx="239.75754"
         id="circle1815"
         style="color:#000000;display:inline;overflow:visible;visibility:visible;opacity:1;fill:#ffffff;fill-opacity:1;fill-rule:evenodd;stroke:none;stroke-width:4.00029;stroke-linecap:butt;stroke-linejoin:miter;stroke-miterlimit:4;stroke-dasharray:none;stroke-dashoffset:0;stroke-opacity:1;marker:none;marker-start:none;marker-mid:none;marker-end:none;enable-background:accumulate" /></g><g
       transform="matrix(0.99992606,0,0,0.99992606,-90.006116,52.658425)"
       id="g1823"
       style="stroke-width:1.00007"><circle
         r="28.333773"
         cy="34.184357"
         cx="249.41805"
         id="circle1819"
         style="color:#000000;display:inline;overflow:visible;visibility:visible;opacity:1;fill:#cccccc;fill-opacity:1;fill-rule:evenodd;stroke:#000000;stroke-width:4.00029;stroke-linecap:butt;stroke-linejoin:miter;stroke-miterlimit:4;stroke-dasharray:none;stroke-dashoffset:0;stroke-opacity:1;marker:none;marker-start:none;marker-mid:none;marker-end:none;enable-background:accumulate" /><circle
         style="color:#000000;display:inline;overflow:visible;visibility:visible;opacity:1;fill:#ffffff;fill-opacity:1;fill-rule:evenodd;stroke:none;stroke-width:4.00029;stroke-linecap:butt;stroke-linejoin:miter;stroke-miterlimit:4;stroke-dasharray:none;stroke-dashoffset:0;stroke-opacity:1;marker:none;marker-start:none;marker-mid:none;marker-end:none;enable-background:accumulate"
         id="circle1821"
         cx="239.75754"
         cy="25.590727"
         r="7.6669354" /></g><g
       id="g1829"
       transform="matrix(0.99992606,0,0,0.99992606,-150.02247,52.658425)"
       style="stroke-width:1.00007"><circle
         style="color:#000000;display:inline;overflow:visible;visibility:visible;opacity:1;fill:#cccccc;fill-opacity:1;fill-rule:evenodd;stroke:#000000;stroke-width:4.00029;stroke-linecap:butt;stroke-linejoin:miter;stroke-miterlimit:4;stroke-dasharray:none;stroke-dashoffset:0;stroke-opacity:1;marker:none;marker-start:none;marker-mid:none;marker-end:none;enable-background:accumulate"
         id="circle1825"
         cx="249.41805"
         cy="34.184357"
         r="28.333773" /><circle
         r="7.6669354"
         cy="25.590727"
         cx="239.75754"
         id="circle1827"
         style="color:#000000;display:inline;overflow:visible;visibility:visible;opacity:1;fill:#ffffff;fill-opacity:1;fill-rule:evenodd;stroke:none;stroke-width:4.00029;stroke-linecap:butt;stroke-linejoin:miter;stroke-miterlimit:4;stroke-dasharray:none;stroke-dashoffset:0;stroke-opacity:1;marker:none;marker-start:none;marker-mid:none;marker-end:none;enable-background:accumulate" /></g><g
       id="g1841"
       transform="matrix(0.99992606,0,0,0.99992606,-222.71192,-3.2982043)"
       style="stroke-width:1.00007"><circle
         style="color:#000000;display:inline;overflow:visible;visibility:visible;opacity:1;fill:#cccccc;fill-opacity:1;fill-rule:evenodd;stroke:#000000;stroke-width:4.00029;stroke-linecap:butt;stroke-linejoin:miter;stroke-miterlimit:4;stroke-dasharray:none;stroke-dashoffset:0;stroke-opacity:1;marker:none;marker-start:none;marker-mid:none;marker-end:none;enable-background:accumulate"
         id="circle1837"
         cx="249.41805"
         cy="34.184357"
         r="28.333773" /><circle
         r="7.6669354"
         cy="25.590727"
         cx="239.75754"
         id="circle1839"
         style="color:#000000;display:inline;overflow:visible;visibility:visible;opacity:1;fill:#ffffff;fill-opacity:1;fill-rule:evenodd;stroke:none;stroke-width:4.00029;stroke-linecap:butt;stroke-linejoin:miter;stroke-miterlimit:4;stroke-dasharray:none;stroke-dashoffset:0;stroke-opacity:1;marker:none;marker-start:none;marker-mid:none;marker-end:none;enable-background:accumulate" /></g><g
       transform="matrix(0.99992606,0,0,0.99992606,-210.03883,52.658425)"
       id="g1835"
       style="stroke-width:1.00007"><circle
         r="28.333773"
         cy="34.184357"
         cx="249.41805"
         id="circle1831"
         style="color:#000000;display:inline;overflow:visible;visibility:visible;opacity:1;fill:#cccccc;fill-opacity:1;fill-rule:evenodd;stroke:#000000;stroke-width:4.00029;stroke-linecap:butt;stroke-linejoin:miter;stroke-miterlimit:4;stroke-dasharray:none;stroke-dashoffset:0;stroke-opacity:1;marker:none;marker-start:none;marker-mid:none;marker-end:none;enable-background:accumulate" /><circle
         style="color:#000000;display:inline;overflow:visible;visibility:visible;opacity:1;fill:#ffffff;fill-opacity:1;fill-rule:evenodd;stroke:none;stroke-width:4.00029;stroke-linecap:butt;stroke-linejoin:miter;stroke-miterlimit:4;stroke-dasharray:none;stroke-dashoffset:0;stroke-opacity:1;marker:none;marker-start:none;marker-mid:none;marker-end:none;enable-background:accumulate"
         id="circle1833"
         cx="239.75754"
         cy="25.590727"
         r="7.6669354" /></g><g
       style="stroke-width:1.00007"
       transform="matrix(0.99992606,0,0,0.99992606,30.026599,52.658425)"
       id="g1905"><circle
         r="28.333773"
         cy="34.184357"
         cx="249.41805"
         id="circle1901"
         style="color:#000000;display:inline;overflow:visible;visibility:visible;opacity:1;fill:#cccccc;fill-opacity:1;fill-rule:evenodd;stroke:#000000;stroke-width:4.00029;stroke-linecap:butt;stroke-linejoin:miter;stroke-miterlimit:4;stroke-dasharray:none;stroke-dashoffset:0;stroke-opacity:1;marker:none;marker-start:none;marker-mid:none;marker-end:none;enable-background:accumulate" /><circle
         style="color:#000000;display:inline;overflow:visible;visibility:visible;opacity:1;fill:#ffffff;fill-opacity:1;fill-rule:evenodd;stroke:none;stroke-width:4.00029;stroke-linecap:butt;stroke-linejoin:miter;stroke-miterlimit:4;stroke-dasharray:none;stroke-dashoffset:0;stroke-opacity:1;marker:none;marker-start:none;marker-mid:none;marker-end:none;enable-background:accumulate"
         id="circle1903"
         cx="239.75754"
         cy="25.590727"
         r="7.6669354" /></g><g
       style="stroke-width:1.00007"
       id="g1911"
       transform="matrix(0.99992606,0,0,0.99992606,90.043017,52.658425)"><circle
         style="color:#000000;display:inline;overflow:visible;visibility:visible;opacity:1;fill:#cccccc;fill-opacity:1;fill-rule:evenodd;stroke:#000000;stroke-width:4.00029;stroke-linecap:butt;stroke-linejoin:miter;stroke-miterlimit:4;stroke-dasharray:none;stroke-dashoffset:0;stroke-opacity:1;marker:none;marker-start:none;marker-mid:none;marker-end:none;enable-background:accumulate"
         id="circle1907"
         cx="249.41805"
         cy="34.184357"
         r="28.333773" /><circle
         r="7.6669354"
         cy="25.590727"
         cx="239.75754"
         id="circle1909"
         style="color:#000000;display:inline;overflow:visible;visibility:visible;opacity:1;fill:#ffffff;fill-opacity:1;fill-rule:evenodd;stroke:none;stroke-width:4.00029;stroke-linecap:butt;stroke-linejoin:miter;stroke-miterlimit:4;stroke-dasharray:none;stroke-dashoffset:0;stroke-opacity:1;marker:none;marker-start:none;marker-mid:none;marker-end:none;enable-background:accumulate" /></g><g
       style="stroke-width:1.00007"
       transform="matrix(0.99992606,0,0,0.99992606,150.05937,52.658425)"
       id="g1917"><circle
         r="28.333773"
         cy="34.184357"
         cx="249.41805"
         id="circle1913"
         style="color:#000000;display:inline;overflow:visible;visibility:visible;opacity:1;fill:#cccccc;fill-opacity:1;fill-rule:evenodd;stroke:#000000;stroke-width:4.00029;stroke-linecap:butt;stroke-linejoin:miter;stroke-miterlimit:4;stroke-dasharray:none;stroke-dashoffset:0;stroke-opacity:1;marker:none;marker-start:none;marker-mid:none;marker-end:none;enable-background:accumulate" /><circle
         style="color:#000000;display:inline;overflow:visible;visibility:visible;opacity:1;fill:#ffffff;fill-opacity:1;fill-rule:evenodd;stroke:none;stroke-width:4.00029;stroke-linecap:butt;stroke-linejoin:miter;stroke-miterlimit:4;stroke-dasharray:none;stroke-dashoffset:0;stroke-opacity:1;marker:none;marker-start:none;marker-mid:none;marker-end:none;enable-background:accumulate"
         id="circle1915"
         cx="239.75754"
         cy="25.590727"
         r="7.6669354" /></g><g
       style="stroke-width:1.00007"
       transform="matrix(0.99992606,0,0,0.99992606,222.7488,-3.2982043)"
       id="g1923"><circle
         r="28.333773"
         cy="34.184357"
         cx="249.41805"
         id="circle1919"
         style="color:#000000;display:inline;overflow:visible;visibility:visible;opacity:1;fill:#cccccc;fill-opacity:1;fill-rule:evenodd;stroke:#000000;stroke-width:4.00029;stroke-linecap:butt;stroke-linejoin:miter;stroke-miterlimit:4;stroke-dasharray:none;stroke-dashoffset:0;stroke-opacity:1;marker:none;marker-start:none;marker-mid:none;marker-end:none;enable-background:accumulate" /><circle
         style="color:#000000;display:inline;overflow:visible;visibility:visible;opacity:1;fill:#ffffff;fill-opacity:1;fill-rule:evenodd;stroke:none;stroke-width:4.00029;stroke-linecap:butt;stroke-linejoin:miter;stroke-miterlimit:4;stroke-dasharray:none;stroke-dashoffset:0;stroke-opacity:1;marker:none;marker-start:none;marker-mid:none;marker-end:none;enable-background:accumulate"
         id="circle1921"
         cx="239.75754"
         cy="25.590727"
         r="7.6669354" /></g><g
       style="stroke-width:1.00007"
       id="g1929"
       transform="matrix(0.99992606,0,0,0.99992606,210.07573,52.658425)"><circle
         style="color:#000000;display:inline;overflow:visible;visibility:visible;opacity:1;fill:#cccccc;fill-opacity:1;fill-rule:evenodd;stroke:#000000;stroke-width:4.00029;stroke-linecap:butt;stroke-linejoin:miter;stroke-miterlimit:4;stroke-dasharray:none;stroke-dashoffset:0;stroke-opacity:1;marker:none;marker-start:none;marker-mid:none;marker-end:none;enable-background:accumulate"
         id="circle1925"
         cx="249.41805"
         cy="34.184357"
         r="28.333773" /><circle
         r="7.6669354"
         cy="25.590727"
         cx="239.75754"
         id="circle1927"
         style="color:#000000;display:inline;overflow:visible;visibility:visible;opacity:1;fill:#ffffff;fill-opacity:1;fill-rule:evenodd;stroke:none;stroke-width:4.00029;stroke-linecap:butt;stroke-linejoin:miter;stroke-miterlimit:4;stroke-dasharray:none;stroke-dashoffset:0;stroke-opacity:1;marker:none;marker-start:none;marker-mid:none;marker-end:none;enable-background:accumulate" /></g></g><g
     id="g1893"><path
       d="M 466.90376,170.48264 H 31.932372 V 120.5942 H 466.90376 Z"
       style="color:#000000;overflow:visible;opacity:1;fill:#bf9f4f;fill-opacity:1;fill-rule:evenodd;stroke:#000000;stroke-width:4;stroke-linejoin:round;stroke-miterlimit:4;stroke-dasharray:none;stroke-opacity:1"
       id="path1685"
       sodipodi:nodetypes="ccccc" /><path
       id="rect1680"
       style="color:#000000;overflow:visible;opacity:1;fill:#bf9f4f;fill-opacity:1;fill-rule:evenodd;stroke:#000000;stroke-width:4;stroke-linejoin:round;stroke-miterlimit:4;stroke-dasharray:none;stroke-opacity:1"
       d="M 23.073542,114.02271 H 475.76259 c 1.80113,0 3.25115,1.47213 3.25115,3.30073 v 6.91898 c 0,1.8286 -1.45002,3.30073 -3.25115,3.30073 H 23.073542 c -1.801141,0 -3.251157,-1.47213 -3.251157,-3.30073 v -6.91898 c 0,-1.8286 1.450016,-3.30073 3.251157,-3.30073 z" /><path
       d="M 23.073542,163.53369 H 475.76259 c 1.80113,0 3.25115,1.47213 3.25115,3.30073 v 6.91898 c 0,1.8286 -1.45002,3.30073 -3.25115,3.30073 H 23.073542 c -1.801141,0 -3.251157,-1.47213 -3.251157,-3.30073 v -6.91898 c 0,-1.8286 1.450016,-3.30073 3.251157,-3.30073 z"
       style="color:#000000;overflow:visible;opacity:1;fill:#bf9f4f;fill-opacity:1;fill-rule:evenodd;stroke:#000000;stroke-width:4;stroke-linejoin:round;stroke-miterlimit:4;stroke-dasharray:none;stroke-opacity:1"
       id="path1683" /><path
       d="m 205.45223,145.53842 43.96583,-13.60396 43.96583,13.60396 -43.96583,13.60395 z"
       style="color:#000000;overflow:visible;fill:#e61b4e;fill-opacity:1;fill-rule:evenodd;stroke:#000000;stroke-width:3;stroke-linejoin:miter;stroke-miterlimit:4;stroke-dasharray:none;stroke-opacity:1;paint-order:normal"
       id="rect1687" /><path
       id="rect1689"
       style="color:#000000;overflow:visible;fill:#000000;fill-opacity:1;fill-rule:evenodd;stroke:none;stroke-width:3;stroke-linejoin:miter;stroke-miterlimit:4;stroke-dasharray:none;stroke-opacity:1"
       d="m 249.41905,133.93359 -0.98242,10.55664 -35.12891,1.04883 35.12891,1.04883 0.98242,10.55469 0.98047,-10.55469 35.1289,-1.04883 -35.1289,-1.04883 z" /><path
       d="m 31.57045,131.93359 -8.48437,13.60547 8.48437,13.60352 43.96485,-13.60352 z"
       style="color:#000000;overflow:visible;fill:#e61b4e;fill-opacity:1;fill-rule:evenodd;stroke:#000000;stroke-width:3;stroke-linejoin:miter;stroke-miterlimit:4;stroke-dasharray:none;stroke-opacity:1;paint-order:fill markers stroke"
       id="rect1700" /><path
       sodipodi:nodetypes="ccccc"
       d="m 24.75345,145.53906 6.81636,1.04883 36.11035,-1.04883 -36.11035,-1.04883 z"
       style="color:#000000;overflow:visible;fill:#000000;fill-opacity:1;fill-rule:evenodd;stroke:none;stroke-width:3;stroke-linejoin:miter;stroke-miterlimit:4;stroke-dasharray:none;stroke-opacity:1"
       id="path1702" /><path
       id="path1711"
       style="color:#000000;overflow:visible;fill:#e61b4e;fill-opacity:1;fill-rule:evenodd;stroke:#000000;stroke-width:3;stroke-linejoin:miter;stroke-miterlimit:4;stroke-dasharray:none;stroke-opacity:1;paint-order:fill markers stroke"
       d="m 467.26561,131.93359 8.48437,13.60547 -8.48437,13.60352 -43.96485,-13.60352 z" /><path
       id="path1713"
       style="color:#000000;overflow:visible;fill:#000000;fill-opacity:1;fill-rule:evenodd;stroke:none;stroke-width:3;stroke-linejoin:miter;stroke-miterlimit:4;stroke-dasharray:none;stroke-opacity:1"
       d="m 474.08261,145.53906 -6.81636,1.04883 -36.11035,-1.04883 36.11035,-1.04883 z"
       sodipodi:nodetypes="ccccc" /><path
       d="m 116.01232,145.14825 c 0,-10.64917 16.34964,-11.21707 25.11179,-11.21707 8.76215,0 25.11179,0.5679 25.11179,11.21707 0,10.64917 -16.34964,11.21707 -25.11179,11.21707 -8.76215,0 -25.11179,-0.5679 -25.11179,-11.21707 z"
       style="color:#000000;overflow:visible;fill:#0581ed;fill-opacity:1;fill-rule:evenodd;stroke:#000000;stroke-width:3;stroke-linejoin:miter;stroke-miterlimit:4;stroke-dasharray:none;stroke-opacity:1"
       id="rect1687-7"
       sodipodi:nodetypes="zzzzz" /><circle
       style="color:#000000;display:inline;overflow:visible;visibility:visible;fill:#ffffff;fill-rule:evenodd;stroke:none;stroke-width:3;stroke-linecap:square;stroke-linejoin:miter;stroke-miterlimit:4;stroke-dasharray:none;stroke-dashoffset:0;stroke-opacity:1;marker:none;marker-start:none;marker-mid:none;marker-end:none;enable-background:accumulate"
       id="path1741"
       cx="128.02681"
       cy="142.66391"
       r="5.1266704" /><path
       sodipodi:nodetypes="zzzzz"
       id="path1747"
       style="color:#000000;overflow:visible;fill:#0581ed;fill-opacity:1;fill-rule:evenodd;stroke:#000000;stroke-width:3;stroke-linejoin:miter;stroke-miterlimit:4;stroke-dasharray:none;stroke-opacity:1"
       d="m 332.60021,145.14825 c 0,-10.64917 16.34964,-11.21707 25.11179,-11.21707 8.76215,0 25.11179,0.5679 25.11179,11.21707 0,10.64917 -16.34964,11.21707 -25.11179,11.21707 -8.76215,0 -25.11179,-0.5679 -25.11179,-11.21707 z" /><circle
       r="5.1266704"
       cy="142.66391"
       cx="344.61469"
       id="circle1749"
       style="color:#000000;display:inline;overflow:visible;visibility:visible;fill:#ffffff;fill-rule:evenodd;stroke:none;stroke-width:3;stroke-linecap:square;stroke-linejoin:miter;stroke-miterlimit:4;stroke-dasharray:none;stroke-dashoffset:0;stroke-opacity:1;marker:none;marker-start:none;marker-mid:none;marker-end:none;enable-background:accumulate" /><g
       style="stroke-width:2.5;stroke-miterlimit:4;stroke-dasharray:none"
       id="g1772"
       transform="translate(-1.7094969,-0.52919427)"><circle
         r="5.1266704"
         cy="138.48221"
         cx="186.39676"
         id="path1741-9"
         style="color:#000000;display:inline;overflow:visible;visibility:visible;opacity:1;fill:#cccccc;fill-opacity:1;fill-rule:evenodd;stroke:#000000;stroke-width:2.5;stroke-linecap:butt;stroke-linejoin:miter;stroke-miterlimit:4;stroke-dasharray:none;stroke-dashoffset:0;stroke-opacity:1;marker:none;marker-start:none;marker-mid:none;marker-end:none;enable-background:accumulate" /><circle
         style="color:#000000;display:inline;overflow:visible;visibility:visible;opacity:1;fill:#cccccc;fill-opacity:1;fill-rule:evenodd;stroke:#000000;stroke-width:2.5;stroke-linecap:butt;stroke-linejoin:miter;stroke-miterlimit:4;stroke-dasharray:none;stroke-dashoffset:0;stroke-opacity:1;marker:none;marker-start:none;marker-mid:none;marker-end:none;enable-background:accumulate"
         id="circle1768"
         cx="186.39676"
         cy="153.65302"
         r="5.1266704" /></g><g
       style="stroke-width:2.5;stroke-miterlimit:4;stroke-dasharray:none"
       transform="translate(-88.83584,-0.52919427)"
       id="g1778"><circle
         style="color:#000000;display:inline;overflow:visible;visibility:visible;opacity:1;fill:#cccccc;fill-opacity:1;fill-rule:evenodd;stroke:#000000;stroke-width:2.5;stroke-linecap:butt;stroke-linejoin:miter;stroke-miterlimit:4;stroke-dasharray:none;stroke-dashoffset:0;stroke-opacity:1;marker:none;marker-start:none;marker-mid:none;marker-end:none;enable-background:accumulate"
         id="circle1774"
         cx="186.39676"
         cy="138.48221"
         r="5.1266704" /><circle
         r="5.1266704"
         cy="153.65302"
         cx="186.39676"
         id="circle1776"
         style="color:#000000;display:inline;overflow:visible;visibility:visible;opacity:1;fill:#cccccc;fill-opacity:1;fill-rule:evenodd;stroke:#000000;stroke-width:2.5;stroke-linecap:butt;stroke-linejoin:miter;stroke-miterlimit:4;stroke-dasharray:none;stroke-dashoffset:0;stroke-opacity:1;marker:none;marker-start:none;marker-mid:none;marker-end:none;enable-background:accumulate" /></g><g
       style="stroke-width:2.5;stroke-miterlimit:4;stroke-dasharray:none"
       transform="translate(214.87845,-0.52919427)"
       id="g1784"><circle
         style="color:#000000;display:inline;overflow:visible;visibility:visible;opacity:1;fill:#cccccc;fill-opacity:1;fill-rule:evenodd;stroke:#000000;stroke-width:2.5;stroke-linecap:butt;stroke-linejoin:miter;stroke-miterlimit:4;stroke-dasharray:none;stroke-dashoffset:0;stroke-opacity:1;marker:none;marker-start:none;marker-mid:none;marker-end:none;enable-background:accumulate"
         id="circle1780"
         cx="186.39676"
         cy="138.48221"
         r="5.1266704" /><circle
         r="5.1266704"
         cy="153.65302"
         cx="186.39676"
         id="circle1782"
         style="color:#000000;display:inline;overflow:visible;visibility:visible;opacity:1;fill:#cccccc;fill-opacity:1;fill-rule:evenodd;stroke:#000000;stroke-width:2.5;stroke-linecap:butt;stroke-linejoin:miter;stroke-miterlimit:4;stroke-dasharray:none;stroke-dashoffset:0;stroke-opacity:1;marker:none;marker-start:none;marker-mid:none;marker-end:none;enable-background:accumulate" /></g><g
       style="stroke-width:2.5;stroke-miterlimit:4;stroke-dasharray:none"
       id="g1790"
       transform="translate(127.75211,-0.52919427)"><circle
         r="5.1266704"
         cy="138.48221"
         cx="186.39676"
         id="circle1786"
         style="color:#000000;display:inline;overflow:visible;visibility:visible;opacity:1;fill:#cccccc;fill-opacity:1;fill-rule:evenodd;stroke:#000000;stroke-width:2.5;stroke-linecap:butt;stroke-linejoin:miter;stroke-miterlimit:4;stroke-dasharray:none;stroke-dashoffset:0;stroke-opacity:1;marker:none;marker-start:none;marker-mid:none;marker-end:none;enable-background:accumulate" /><circle
         style="color:#000000;display:inline;overflow:visible;visibility:visible;opacity:1;fill:#cccccc;fill-opacity:1;fill-rule:evenodd;stroke:#000000;stroke-width:2.5;stroke-linecap:butt;stroke-linejoin:miter;stroke-miterlimit:4;stroke-dasharray:none;stroke-dashoffset:0;stroke-opacity:1;marker:none;marker-start:none;marker-mid:none;marker-end:none;enable-background:accumulate"
         id="circle1788"
         cx="186.39676"
         cy="153.65302"
         r="5.1266704" /></g></g></g></g>
</svg>
