<?xml version="1.0" encoding="UTF-8" standalone="no"?>
<svg
   xmlns:dc="http://purl.org/dc/elements/1.1/"
   xmlns:cc="http://creativecommons.org/ns#"
   xmlns:rdf="http://www.w3.org/1999/02/22-rdf-syntax-ns#"
   xmlns:svg="http://www.w3.org/2000/svg"
   xmlns="http://www.w3.org/2000/svg"
   width="500.00043"
   height="572"
   viewBox="0 0 132.29177 151.34168"
   version="1.1"
   id="svg847">
  <defs
     id="defs841" />
  <metadata
     id="metadata844">
    <rdf:RDF>
      <cc:Work
         rdf:about="">
        <dc:format>image/svg+xml</dc:format>
        <dc:type
           rdf:resource="http://purl.org/dc/dcmitype/StillImage" />
        <dc:title></dc:title>
      </cc:Work>
    </rdf:RDF>
  </metadata>
  <path
     id="circle848"
     style="fill:#d4d4d4;fill-opacity:1;stroke:none;stroke-width:0.264583"
     d="m 1.14e-4,0 v 85.195831 c 1e-5,36.531339 29.6145,66.145839 66.145836,66.145839 36.53132,0 66.14583,-29.6145 66.14583,-66.145839 V 0 Z" />
  <path
     id="path1588"
     style="font-variation-settings:normal;vector-effect:none;fill:#044daf;fill-opacity:1;stroke:none;stroke-width:0.132292;stroke-linecap:butt;stroke-linejoin:miter;stroke-miterlimit:10;stroke-dasharray:none;stroke-dashoffset:0;stroke-opacity:1;stop-color:#000000"
     d="m 132.29167,41.468751 v 7.06831 h -9.46764 v -7.06831 z m -25.66148,0 v 7.06831 H 90.43634 v -7.06831 z m -32.38769,0 v 7.06831 H 58.04866 v -7.06831 z m -32.38769,0 v 7.06831 H 25.66097 v -7.06831 z m -32.38769,0 v 7.06831 H 0 v -7.06831 z m 122.82455,8.65632 v 7.06831 H 115.5206 v -7.06831 z m -18.35702,0 v 7.06831 H 99.32727 v -7.06831 z m -16.19539,0 v 7.06831 H 83.13395 v -7.06831 z m -16.19333,0 v 7.06831 H 66.94114 v -7.06831 z m -16.19333,0 v 7.06831 H 50.74522 v -7.06831 z m -16.19488,0 v 7.06831 H 34.55241 v -7.06831 z m -16.19384,0 v 7.06831 H 18.35857 v -7.06831 z m -16.19333,0 v 7.06831 H 0 v -7.06831 z m 115.52112,8.65632 v 7.07037 h -8.67337 v -7.07037 z m -10.26139,0 v 7.07037 h -14.60531 v -7.07037 z m -16.19333,0 v 7.07037 H 91.22958 v -7.07037 z m -16.19332,0 v 7.07037 H 75.03677 v -7.07037 z m -16.1954,0 v 7.07037 H 58.84292 v -7.07037 z m -16.19332,0 v 7.07037 H 42.64959 v -7.07037 z m -16.19282,0 v 7.07037 H 26.4542 v -7.07037 z m -16.19384,0 v 7.07037 H 10.26087 v -7.07037 z m -16.19539,0 v 7.07037 H 0 v -7.07037 z m 123.61881,8.65632 v 7.07037 H 115.5206 v -7.07037 z m -18.35702,0 v 7.07037 H 99.32727 v -7.07037 z m -16.19539,0 v 7.07037 H 83.13395 v -7.07037 z m -16.19333,0 v 7.07037 H 66.94114 v -7.07037 z m -16.19333,0 v 7.07037 H 50.74522 v -7.07037 z m -16.19488,0 v 7.07037 H 34.55241 v -7.07037 z m -16.19384,0 v 7.07037 H 18.35857 v -7.07037 z m -16.19333,0 v 7.07037 H 0 v -7.07037 z m 115.52112,8.65839 v 7.0683 h -8.67337 v -7.0683 z m -10.26139,0 v 7.0683 h -14.60531 v -7.0683 z m -16.19333,0 v 7.0683 H 91.22958 v -7.0683 z m -16.19332,0 v 7.0683 H 75.03677 v -7.0683 z m -16.1954,0 v 7.0683 H 58.84292 v -7.0683 z m -16.19332,0 v 7.0683 H 42.64959 v -7.0683 z m -16.19282,0 v 7.0683 H 26.4542 v -7.0683 z m -16.19384,0 v 7.0683 H 10.26087 v -7.0683 z m -16.19539,0 v 7.0683 H 0 v -7.0683 z m 123.61881,8.65632 v 0.44338 c 0,2.23687 -0.11464,4.4469 -0.33228,6.62647 H 115.5206 v -7.06985 z m -18.35702,0 v 7.06985 H 99.32727 v -7.06985 z m -16.19539,0 v 7.06985 H 83.13395 v -7.06985 z m -16.19333,0 v 7.06985 H 66.94114 v -7.06985 z m -16.19333,0 v 7.06985 H 50.74522 v -7.06985 z m -16.19488,0 v 7.06985 H 34.55241 v -7.06985 z m -16.19384,0 v 7.06985 H 18.35857 v -7.06985 z m -16.19333,0 v 7.06985 H 0.33228 C 0.11477,89.642701 0,87.432671 0,85.195801 v -0.44338 z m 115.01004,8.6558 c -0.22779,1.83381 -0.52658,3.64537 -0.90072,5.42964 -3.01314,1.616289 -5.93221,3.393589 -9.89397,3.393589 -7.26235,0 -11.01766,-5.975339 -18.28002,-5.975339 -7.26235,0 -11.01766,5.975339 -18.28002,5.975339 -7.26237,0 -11.01768,-5.975339 -18.28003,-5.975339 -7.26236,0 -11.01768,5.975339 -18.28002,5.975339 -7.26236,0 -11.01819,-5.975339 -18.28054,-5.975339 -7.26235,0 -11.01768,5.975339 -18.28002,5.975339 -3.96193,0 -6.88068,-1.77724 -9.89397,-3.393589 -0.37414,-1.78427 -0.67302,-3.59582 -0.90072,-5.42964 h 8.1623 v 7.596439 c 0.51148,0.10538 1.04057,0.18017 1.58801,0.22427 v -7.820709 h 14.60738 v 2.76056 c 0.51403,-0.18723 1.04054,-0.35302 1.58595,-0.4868 v -2.27376 h 14.60789 v 6.10144 c 0.51894,0.25298 1.04652,0.490999 1.5875,0.706419 v -6.807859 h 14.60532 v 4.74493 c 0.526,-0.28492 1.05399,-0.56642 1.58801,-0.83767 v -3.90726 h 14.60531 v 3.90726 c 0.53417,0.27131 1.0624,0.55268 1.58854,0.83767 v -4.74493 h 14.60686 v 6.807339 c 0.54043,-0.21526 1.06752,-0.453159 1.58595,-0.705899 v -6.10144 h 14.60737 v 2.27376 c 0.54612,0.13393 1.07335,0.2998 1.58802,0.48731 v -2.76107 h 14.60531 v 7.820709 c 0.54727,-0.0441 1.07669,-0.11894 1.58802,-0.22427 v -7.596439 z" />
</svg>
