<?xml version="1.0" encoding="UTF-8" standalone="no"?>
<!-- Created with Inkscape (http://www.inkscape.org/) -->

<svg
   width="500.00003"
   height="533"
   viewBox="0 0 132.29167 141.02292"
   version="1.1"
   id="svg5"
   xml:space="preserve"
   xmlns="http://www.w3.org/2000/svg"
   xmlns:svg="http://www.w3.org/2000/svg"><defs
     id="defs2" /><path
     id="path2368"
     style="font-variation-settings:normal;vector-effect:none;fill:#057939;fill-opacity:1;stroke:none;stroke-width:0.132292;stroke-linecap:butt;stroke-linejoin:miter;stroke-miterlimit:4;stroke-dasharray:none;stroke-dashoffset:0;stroke-opacity:1;-inkscape-stroke:none;stop-color:#000000"
     d="m 125.88017,83.575768 4.81108,-62.716059 -1.35186,-1.230933 H 2.811198 l -1.211295,1.224215 c 0,0 1.983498,25.853357 4.812109,62.722777 l 7.924064,27.729062 c 11.468965,20.1037 33.194651,29.71808 51.809752,29.71808 18.451998,0 39.980532,-9.72598 51.522442,-29.42249 z" /><path
     id="path2427"
     style="font-variation-settings:normal;vector-effect:none;fill:#bf9f4f;fill-opacity:1;stroke:none;stroke-width:0.132292;stroke-linecap:butt;stroke-linejoin:miter;stroke-miterlimit:4;stroke-dasharray:none;stroke-dashoffset:0;stroke-opacity:1;-inkscape-stroke:none;stop-color:#000000"
     d="m 6.493661,84.636168 0.02015,0.26562 c 0.741319,9.66269 3.359792,18.058872 7.267256,25.208282 l 1.082621,1.08882 c 3.707333,1.95361 7.339612,4.26331 11.459766,4.26331 7.12506,0 12.786386,-6.92723 19.911446,-6.92723 7.125061,0 12.785888,6.92723 19.910928,6.92723 7.12509,0 12.78641,-6.92723 19.911448,-6.92723 7.12506,0 12.78637,6.92723 19.911454,6.92723 4.17915,0 7.85618,-2.3774 11.61893,-4.34806 l 1.05574,-1.06246 c 3.8252,-7.11231 6.39302,-15.478992 7.13497,-25.149892 0.009,-0.11939 0.0142,-0.18754 0.0202,-0.26562 l -0.51211,-0.51211 c -6.84838,0.36615 -12.39195,6.90811 -19.31768,6.90811 -7.125084,0 -12.786394,-6.92775 -19.911454,-6.92775 -7.125038,0 -12.786358,6.92775 -19.911448,6.92775 -7.12504,0 -12.785867,-6.92775 -19.910928,-6.92775 -7.12506,0 -12.786386,6.92775 -19.911446,6.92775 -6.925749,0 -12.469301,-6.54195 -19.317684,-6.90811 z" /><path
     id="path2429"
     style="font-variation-settings:normal;vector-effect:none;fill:#684808;fill-opacity:1;stroke:none;stroke-width:0.132292;stroke-linecap:butt;stroke-linejoin:miter;stroke-miterlimit:4;stroke-dasharray:none;stroke-dashoffset:0;stroke-opacity:1;-inkscape-stroke:none;stop-color:#000000"
     d="m 46.234904,108.00581 c -7.125074,0 -12.786372,6.92722 -19.911446,6.92722 -4.521301,0 -8.453989,-2.78628 -12.544454,-4.82503 0.274757,0.5028 0.556014,0.99942 0.843359,1.48984 3.791564,1.97894 7.491333,4.39353 11.701095,4.39353 7.125074,0 12.786372,-6.92723 19.911446,-6.92723 7.125075,0 12.785864,6.92723 19.910924,6.92723 7.12509,0 12.78639,-6.92723 19.911448,-6.92723 7.12508,0 12.78637,6.92723 19.911454,6.92723 4.2712,0 8.01719,-2.48564 11.86697,-4.47983 0.27953,-0.48523 0.55379,-0.97575 0.82114,-1.4733 -4.14216,2.04433 -8.11394,4.89479 -12.68811,4.89479 -7.125084,0 -12.786374,-6.92722 -19.911454,-6.92722 -7.125058,0 -12.786358,6.92722 -19.911448,6.92722 -7.12506,0 -12.785849,-6.92722 -19.910924,-6.92722 z" /><path
     id="path8583"
     style="fill:#bf9f4f;fill-opacity:1;fill-rule:evenodd;stroke:none;stroke-width:0.13229;stroke-linecap:square;stroke-miterlimit:10;stop-color:#000000"
     d="m 2.08178,20.21585 c 2.786764,-0.466897 5.692867,1.542959 6.218163,4.324073 0.29981,1.358463 0.05901,2.833086 -0.669335,4.019677 2.831477,-0.120464 5.460038,2.260785 5.623569,5.089038 0.312708,2.87146 -1.987858,5.68416 -4.859897,5.9637 -1.285876,0.15488 -2.623776,-0.15357 -3.703125,-0.8711 0.188105,1.7581 1.698706,2.9917 3.295916,3.48645 2.573167,0.90515 5.513933,0.77312 7.827131,2.38465 1.645258,1.0493 2.309443,3.07471 2.232709,4.9499 0.02211,0.6189 0.186183,1.56571 -0.460617,0.63961 -1.085126,-1.34139 -2.851469,-2.17354 -4.582639,-1.80826 -2.488134,0.40792 -4.211261,3.15478 -3.494141,5.57227 0.576455,2.38335 3.291552,3.88928 5.623183,3.14902 0.345356,0.0183 1.751229,-0.57591 1.30089,-0.0981 -1.04955,1.0955 -2.210188,2.3198 -2.215003,3.94183 -0.225158,2.56369 2.141056,4.93307 4.704572,4.72499 2.55562,-0.0544 4.661391,-2.61672 4.211556,-5.13434 -0.156661,-1.57054 -1.39191,-2.64978 -2.377151,-3.75526 1.519701,0.33512 3.173574,0.85195 4.658203,0.0918 2.341077,-0.99596 3.350702,-4.12705 2.029574,-6.30177 -1.17087,-2.20287 -4.284054,-2.95778 -6.337725,-1.54757 -0.694343,0.44494 -0.918328,0.55539 -1.514353,1.11458 0.01235,-1.8349 -0.271358,-3.35149 1.090082,-4.7672 1.881778,-1.96375 4.749574,-2.21521 7.266806,-2.73411 1.848499,-0.41348 4.016286,-1.25521 4.597744,-3.25875 0.265214,-0.62599 0.08919,-0.69061 -0.425269,-0.3171 -2.475351,1.2958 -5.819328,0.32753 -7.206692,-2.10247 -1.554547,-2.43662 -0.749948,-5.992545 1.715207,-7.507811 0.918798,-0.6077 2.026648,-0.930161 3.128376,-0.903977 -1.537846,-2.413505 -0.750178,-5.90828 1.650391,-7.455078 2.311175,-1.628538 5.800258,-1.078149 7.481129,1.199695 1.399015,1.743391 1.556935,4.358343 0.37434,6.255383 2.830069,-0.119028 5.460384,2.260564 5.621615,5.089038 0.314991,2.87145 -1.987777,5.6821 -4.857943,5.9637 -1.287066,0.15435 -2.625872,-0.15376 -3.707032,-0.8711 0.19151,1.75706 1.702164,2.99208 3.299822,3.48645 2.600555,0.91447 5.589729,0.7715 7.905993,2.44355 1.631935,1.07715 2.234512,3.12052 2.156975,4.99096 0.0849,0.76058 0.08436,1.32468 -0.536291,0.46298 -1.197924,-1.47537 -3.284182,-2.24115 -5.110258,-1.56785 -2.457895,0.74769 -3.779669,3.8189 -2.634179,6.11854 0.889462,2.08199 3.44217,3.11235 5.560956,2.39737 0.400258,-0.0131 1.787189,-0.59387 0.974245,0.0911 -1.026188,1.03599 -2.077003,2.24893 -2.085927,3.79421 -0.226605,2.56462 2.141759,4.93299 4.704571,4.72496 2.555673,-0.0556 4.659485,-2.61663 4.209604,-5.13431 -0.155193,-1.57429 -1.394732,-2.6531 -2.384964,-3.75721 1.544842,0.34247 3.239937,0.86986 4.737081,0.0572 2.344817,-1.03903 3.289163,-4.23198 1.890293,-6.37951 -1.24346,-2.18219 -4.405613,-2.83606 -6.416436,-1.33397 -0.615766,0.44968 -0.827945,0.585065 -1.381574,1.105035 0.02114,-1.83409 -0.256136,-3.444285 1.106183,-4.858945 1.88249,-1.96287 4.749914,-2.21273 7.266748,-2.73241 1.846852,-0.41395 4.011962,-1.25341 4.594322,-3.25448 0.28379,-0.65569 0.0949,-0.69942 -0.42374,-0.32112 -2.517535,1.32169 -5.923196,0.28691 -7.275221,-2.21738 -1.487314,-2.4657 -0.612118,-5.981422 1.869581,-7.447325 0.900133,-0.57543 1.976605,-0.873566 3.044482,-0.849553 -1.557931,-2.440077 -0.730198,-5.995648 1.735658,-7.507325 2.36407,-1.616268 5.90013,-0.952989 7.51437,1.41305 1.29204,1.737906 1.39783,4.255193 0.25388,6.094275 2.83008,-0.118705 5.4583,2.258917 5.62315,5.086908 0.31163,2.86489 -1.97545,5.6734 -4.83995,5.96387 -1.29311,0.15869 -2.63993,-0.14781 -3.72656,-0.86914 0.19614,1.79536 1.76307,3.03155 3.3939,3.52034 2.57847,0.87349 5.52444,0.76053 7.81387,2.40966 1.62988,1.07887 2.23264,3.12076 2.15502,4.99096 0.0849,0.76058 0.0844,1.32468 -0.53629,0.46298 -1.17589,-1.45044 -3.20895,-2.21936 -5.01502,-1.59834 -2.48129,0.69222 -3.86751,3.74503 -2.76438,6.0714 0.84922,2.08421 3.37337,3.1876 5.49811,2.49584 0.35145,0.015 1.80736,-0.60547 1.13922,-0.004 -1.04127,1.0638 -2.14647,2.28376 -2.1531,3.86829 -0.22664,2.56518 2.14158,4.93189 4.70458,4.72496 2.549278,-0.0561 4.652018,-2.60507 4.211848,-5.11873 -0.14996,-1.57788 -1.38783,-2.66256 -2.37745,-3.77084 1.54191,0.34241 3.23309,0.86579 4.72759,0.0558 2.31265,-1.02709 3.26346,-4.13978 1.94819,-6.29408 -1.19179,-2.17497 -4.27557,-2.92863 -6.32399,-1.51959 -0.69511,0.44491 -0.959225,0.81077 -1.555305,1.37088 0.0137,-1.83456 -0.234803,-3.60853 1.129295,-5.02317 1.8552,-1.93706 4.68077,-2.21275 7.16931,-2.7119 1.8816,-0.41288 4.10209,-1.24006 4.69388,-3.28666 0.28276,-0.65542 0.0888,-0.67985 -0.42586,-0.3114 -2.51743,1.32137 -5.92303,0.2866 -7.27522,-2.21738 -1.48529,-2.46593 -0.61148,-5.980846 1.86958,-7.447325 0.90152,-0.572435 1.97621,-0.874936 3.04448,-0.849553 -1.55813,-2.440041 -0.72979,-5.995348 1.73566,-7.507325 2.36356,-1.61543 5.901644,-0.953756 7.514374,1.41305 1.29276,1.738059 1.39925,4.255122 0.25388,6.094275 2.83095,-0.120089 5.46115,2.260237 5.62357,5.089038 0.3127,2.87152 -1.98785,5.68407 -4.8599,5.9637 -1.28587,0.15488 -2.62377,-0.15357 -3.703124,-0.8711 0.1881,1.7581 1.698704,2.9917 3.295914,3.48645 2.57317,0.90515 5.51394,0.77312 7.82713,2.38465 1.646,1.04923 2.30924,3.07423 2.23271,4.94991 0.0221,0.6189 0.18619,1.56571 -0.46061,0.63961 -1.105,-1.36697 -2.927,-2.20413 -4.68198,-1.78557 -2.5127,0.46224 -4.18302,3.3279 -3.33333,5.73988 0.65256,2.2876 3.30234,3.67122 5.56171,2.95871 0.34536,0.0183 1.75123,-0.57591 1.30089,-0.0981 -1.0511,1.09618 -2.21092,2.32203 -2.21509,3.94573 -0.2213,2.56155 2.14225,4.92983 4.70466,4.72109 2.54967,-0.054 4.65386,-2.60596 4.21224,-5.11882 -0.14808,-1.57791 -1.38957,-2.66212 -2.37784,-3.77078 1.5197,0.33512 3.17358,0.85195 4.65821,0.0918 2.34512,-0.99595 3.3513,-4.13354 2.02628,-6.30795 -1.18831,-2.23018 -4.36682,-2.96517 -6.4142,-1.48662 -0.65143,0.44472 -0.8904,0.69636 -1.46469,1.23003 0.0123,-1.83255 -0.23931,-3.52381 1.12019,-4.93742 1.88134,-1.96377 4.7497,-2.21505 7.2668,-2.73411 1.84947,-0.41447 4.01425,-1.25415 4.59774,-3.25875 0.26522,-0.62599 0.0892,-0.69061 -0.42526,-0.3171 -2.47542,1.29614 -5.81882,0.32663 -7.2067,-2.10247 -1.55534,-2.43563 -0.74952,-5.992804 1.71521,-7.507811 0.91883,-0.609621 2.0282,-0.929179 3.13033,-0.903977 -1.58013,-2.468195 -0.70657,-6.079862 1.82092,-7.559571 1.09554,-0.691849 2.4445,-0.975534 3.72596,-0.780273 L 130.76876,19.852018 132.29167,0 H 0 c 0,0 1.147869,14.961226 1.517737,19.782255 z" /><path
     id="path8653"
     style="color:#000000;fill:#684808;fill-opacity:1;fill-rule:evenodd;stroke-linejoin:round;stroke-miterlimit:10;-inkscape-stroke:none"
     d="m 2.811198,19.628776 c -0.0538,-3.9e-5 -0.10689,0.0011 -0.15968,0.0031 -0.384408,0.0144 -0.763733,0.06534 -1.133781,0.150378 0.01817,0.236809 0.06318,0.82327 0.08217,1.070736 0.354238,-0.09337 0.719926,-0.149386 1.091406,-0.163298 0.544287,-0.02039 1.081284,0.05088 1.593701,0.200505 l 0.0021,-0.0026 0.01395,0.0078 c 0.679157,0.20071 1.310863,0.545231 1.85415,1.013892 L 7.77527,22.795023 C 6.602029,20.604014 4.478555,19.629973 2.811198,19.628776 Z m 31.633728,0 c -0.0538,-3.9e-5 -0.10689,0.0011 -0.15968,0.0031 -1.531878,0.05737 -2.986565,0.691654 -4.070553,1.775602 -1.802236,1.802305 -2.210454,4.468236 -1.265556,6.68538 -2.392234,0.290778 -4.496906,1.977675 -5.156274,4.439522 -0.865468,3.230498 1.301203,7.335508 5.645133,7.448128 l -2.654101,-1.77044 c -1.676796,-1.17669 -2.529752,-3.31125 -1.968872,-5.404836 0.717348,-2.678289 3.470286,-4.26795 6.148462,-3.550171 -1.960266,-1.960345 -1.960266,-5.138447 0,-7.098792 0.895418,-0.895386 2.096135,-1.419187 3.361551,-1.466577 0.54429,-0.02039 1.081282,0.05088 1.593702,0.200505 l 0.0016,-0.0026 0.01447,0.0078 c 0.67916,0.20071 1.310861,0.54523 1.854151,1.013892 l 1.620056,0.885734 c -1.173259,-2.191011 -3.296733,-3.16505 -4.964089,-3.166247 z m 31.632692,0 c -0.0538,-3.9e-5 -0.10689,0.0011 -0.15968,0.0031 -1.53188,0.05737 -2.98656,0.691654 -4.070551,1.775602 -1.802232,1.802305 -2.210451,4.468236 -1.265556,6.68538 -2.392238,0.290778 -4.496903,1.977675 -5.156274,4.439522 -0.865463,3.230498 1.301205,7.335508 5.645133,7.448128 l -2.653584,-1.77044 c -1.676799,-1.17669 -2.529753,-3.31125 -1.968872,-5.404836 0.717342,-2.678289 3.470284,-4.26795 6.148464,-3.550171 -1.960274,-1.960345 -1.960274,-5.138447 0,-7.098792 0.89542,-0.895386 2.09613,-1.419187 3.36155,-1.466577 0.54429,-0.02039 1.08128,0.05088 1.5937,0.200505 l 0.002,-0.0026 0.014,0.0078 c 0.67916,0.20071 1.31086,0.54523 1.85415,1.013892 l 1.62006,0.885734 c -1.17321,-2.190979 -3.29668,-3.165018 -4.96404,-3.166215 z m 31.626488,0 c -0.0538,-3.9e-5 -0.10689,0.0011 -0.15968,0.0031 -1.53186,0.05737 -2.98656,0.691654 -4.07055,1.775602 -1.80224,1.802305 -2.21045,4.468236 -1.26555,6.68538 -2.39224,0.290778 -4.49691,1.977675 -5.15628,4.439522 -0.86547,3.230498 1.3012,7.335508 5.64514,7.448128 l -2.65411,-1.77044 c -1.67678,-1.17669 -2.52975,-3.31125 -1.96887,-5.404836 0.71735,-2.678289 3.4703,-4.26795 6.14846,-3.550171 -1.96025,-1.960345 -1.96025,-5.138447 0,-7.098792 0.89542,-0.895386 2.09614,-1.419187 3.36156,-1.466577 0.54427,-0.02039 1.08128,0.05088 1.5937,0.200505 l 0.002,-0.0026 0.014,0.0078 c 0.67916,0.20071 1.310864,0.54523 1.854154,1.013892 l 1.62005,0.885734 c -1.17321,-2.190979 -3.296684,-3.165018 -4.964044,-3.166215 z m 31.635284,0 c -0.0538,-3.9e-5 -0.10689,0.0011 -0.15968,0.0031 -1.53188,0.05737 -2.98656,0.691655 -4.07055,1.775602 -1.80224,1.802303 -2.21043,4.468238 -1.26556,6.68538 -2.39221,0.290778 -4.4969,1.977678 -5.15627,4.439522 -0.86547,3.230488 1.30122,7.335508 5.64513,7.448128 l -2.6541,-1.77044 c -1.6768,-1.17668 -2.52975,-3.31125 -1.96887,-5.404836 0.71735,-2.678287 3.47028,-4.26795 6.14846,-3.550171 -1.96027,-1.960343 -1.96027,-5.138449 0,-7.098792 0.89542,-0.895385 2.09613,-1.419187 3.36155,-1.466577 0.50159,-0.01879 0.99608,0.04354 1.47175,0.170016 l 0.0775,-1.007691 c -0.4912,-0.148282 -0.9772,-0.222917 -1.42937,-0.223242 z M 8.239807,28.063403 7.886341,29.08763 l -0.0052,0.0031 c 0.390214,0.013 0.774002,0.06897 1.144116,0.168465 l 0.0062,-0.0036 3.10317,0.917256 C 10.99136,28.702363 9.345659,28.191844 8.562752,28.083056 c -0.0979,-0.0136 -0.206288,-0.01972 -0.322978,-0.01964 z m 31.633728,0 -0.353467,1.024227 -0.0052,0.0031 c 0.390214,0.013 0.774001,0.06897 1.144116,0.168465 l 0.0057,-0.0036 3.10317,0.917256 c -1.143268,-1.47049 -2.788967,-1.981007 -3.571875,-2.089795 -0.09775,-0.01358 -0.205975,-0.0197 -0.322461,-0.01964 z m 31.633213,0 -0.35347,1.024227 -0.005,0.0031 c 0.39022,0.013 0.774,0.06896 1.14412,0.168465 l 0.006,-0.0036 3.10317,0.917256 c -1.14327,-1.47049 -2.78898,-1.981007 -3.57187,-2.089795 -0.0979,-0.0136 -0.20629,-0.01972 -0.32298,-0.01964 z m 31.625972,0 -0.35346,1.024227 -0.005,0.0031 c 0.39022,0.013 0.774,0.06897 1.14412,0.168465 l 0.006,-0.0036 3.10317,0.917256 c -1.14327,-1.47049 -2.78897,-1.981007 -3.57188,-2.089795 -0.0979,-0.0136 -0.20629,-0.01972 -0.32298,-0.01964 z M 4.061768,37.528978 c 0.32708,0.88718 0.7114,1.47687 1.308447,2.00194 1.675794,0.5906 3.794193,0.62897 5.32629,-0.29455 l -2.824634,-0.11834 c -0.23417,0.006 -0.467221,-0.004 -0.698148,-0.0295 -1.174027,-0.13151 -2.284888,-0.67143 -3.111955,-1.5596 z m 31.633727,0 c 0.32708,0.88718 0.711398,1.47686 1.308448,2.00194 1.675796,0.5906 3.794192,0.62897 5.32629,-0.29455 l -2.824634,-0.11834 c -0.23417,0.006 -0.467219,-0.004 -0.698149,-0.0295 -1.174028,-0.13151 -2.284885,-0.67143 -3.111955,-1.5596 z m 31.633213,0 c 0.32708,0.88718 0.7114,1.47686 1.30845,2.00194 1.67578,0.5906 3.79419,0.62897 5.32629,-0.29455 l -2.82464,-0.11834 c -0.23417,0.006 -0.46722,-0.004 -0.69815,-0.0295 -1.17403,-0.13151 -2.28488,-0.67143 -3.11195,-1.5596 z m 31.625968,0 c 0.32708,0.88718 0.7114,1.47686 1.308454,2.00194 1.6758,0.5906 3.79419,0.62897 5.32629,-0.29455 l -2.82463,-0.11834 c -0.23417,0.006 -0.46722,-0.004 -0.69815,-0.0295 -1.17403,-0.13151 -2.284894,-0.67143 -3.111964,-1.5596 z m -65.625444,5.1e-4 -1.401465,2.05414 c -0.16408,0.38325 -0.385493,0.69187 -0.703833,1.00149 -0.776538,0.75529 -2.234442,1.42128 -4.785238,1.82418 -2.774464,0.43823 -4.676632,1.17743 -5.92987,2.39624 -1.253248,1.2188 -1.476609,2.84608 -1.456759,4.04937 0.0198,1.20321 0.257957,1.87599 0.527617,1.92649 l 0.298689,-1.4025 5.17e-4,-10e-4 c 0.007,-3.11129 1.400801,-5.08267 6.725171,-5.92366 5.32529,-0.84114 6.719171,-2.81325 6.725171,-5.92471 z m 31.633206,0 -1.40146,2.05414 c -0.16408,0.38325 -0.38549,0.69187 -0.70383,1.00149 -0.77654,0.75529 -2.234443,1.42128 -4.785241,1.82418 -2.774465,0.43823 -4.676629,1.17743 -5.92987,2.39624 -1.253245,1.2188 -1.476609,2.84608 -1.456759,4.04937 0.01985,1.20321 0.257955,1.87599 0.527616,1.92649 l 0.29869,-1.4025 5.17e-4,-10e-4 c 0.0069,-3.11129 1.400802,-5.08267 6.725171,-5.92366 5.325276,-0.84114 6.719166,-2.81325 6.725166,-5.92471 z m 31.625978,0 -1.40146,2.05414 c -0.16408,0.38325 -0.3855,0.69187 -0.70384,1.00149 -0.77654,0.75529 -2.23445,1.42128 -4.78523,1.82418 -2.77447,0.43823 -4.67664,1.17743 -5.92988,2.39624 -1.253228,1.2188 -1.476598,2.84608 -1.456748,4.04937 0.0198,1.20321 0.25795,1.87599 0.52761,1.92649 l 0.29869,-1.4025 5.2e-4,-10e-4 c 0.007,-3.11129 1.400808,-5.08267 6.725168,-5.92366 5.32528,-0.84114 6.71917,-2.81325 6.72517,-5.92471 z m 31.635284,0 -1.40147,2.05414 c -0.16408,0.38325 -0.38549,0.69187 -0.70383,1.00149 -0.77654,0.75529 -2.23444,1.42128 -4.78524,1.82418 -2.77444,0.43823 -4.67663,1.17743 -5.92987,2.39624 -1.25325,1.2188 -1.47661,2.84607 -1.45676,4.04937 0.0198,1.2032 0.25796,1.87599 0.52762,1.92649 l 0.29869,-1.4025 5.2e-4,-10e-4 c 0.007,-3.11129 1.40079,-5.08267 6.72517,-5.92366 5.32527,-0.84114 6.71917,-2.81326 6.72517,-5.92471 z M 5.651852,40.345858 c 0.17309,0.56984 0.174406,1.07504 1.136364,1.94355 0.984158,0.50508 2.285843,0.89415 3.999239,1.16479 2.608536,0.41202 4.269299,1.09739 5.290117,2.0531 0.287558,0.0317 0.559553,0.0507 0.810803,0.0501 -0.939248,-1.8365 -3.161598,-2.70989 -5.936072,-3.14813 -2.550794,-0.4029 -4.069035,-0.61805 -5.300451,-2.06344 z m 31.63321,0 c 0.173085,0.56984 0.174406,1.07504 1.136365,1.94355 0.984157,0.50508 2.285843,0.89415 3.999239,1.16479 2.608535,0.41202 4.269294,1.09739 5.290117,2.0531 0.287556,0.0317 0.559561,0.0507 0.810803,0.0501 -0.939249,-1.8365 -3.161606,-2.70989 -5.936072,-3.14813 -2.550795,-0.4029 -4.069037,-0.61805 -5.300452,-2.06344 z m 31.625976,0 c 0.17309,0.56984 0.17441,1.07504 1.13637,1.94355 0.98414,0.50508 2.28585,0.89415 3.99923,1.16479 2.60854,0.41202 4.2693,1.09739 5.29012,2.0531 0.28756,0.0317 0.55955,0.0507 0.8108,0.0501 -0.93925,-1.8365 -3.16159,-2.70989 -5.93607,-3.14813 -2.5508,-0.4029 -4.06903,-0.61805 -5.30045,-2.06344 z m 31.635282,0 c 0.17309,0.56984 0.1744,1.07504 1.13636,1.94355 0.98416,0.50508 2.28584,0.89415 3.99924,1.16479 2.60854,0.41202 4.2693,1.09739 5.29012,2.0531 0.28756,0.0317 0.55955,0.0507 0.8108,0.0501 -0.93925,-1.8365 -3.16159,-2.70989 -5.93607,-3.14813 -2.5508,-0.4029 -4.06903,-0.61805 -5.30045,-2.06344 z m -86.410232,7.45122 c -0.953978,0.26464 -1.695902,0.65146 -2.19108,1.15136 2.029624,-0.62876 3.800954,0.0883 4.792472,1.15238 0.328018,0.35318 0.804166,0.73104 1.073836,0.68058 l -0.29869,-1.4025 c -0.889488,-0.95454 -2.106,-1.50731 -3.376538,-1.58182 z m 31.633211,0 c -0.953982,0.26464 -1.6959,0.65146 -2.191081,1.15136 2.029625,-0.62876 3.800956,0.0883 4.792473,1.15238 0.328019,0.35318 0.80417,0.73104 1.073836,0.68058 l -0.29869,-1.4025 c -0.889486,-0.95454 -2.106002,-1.50731 -3.376538,-1.58182 z m 31.625979,0 c -0.95398,0.26464 -1.6959,0.65146 -2.19108,1.15136 2.02961,-0.62876 3.80095,0.0883 4.79247,1.15238 0.32802,0.35318 0.80418,0.73104 1.07383,0.68058 l -0.29868,-1.4025 c -0.88949,-0.95454 -2.106,-1.50731 -3.37654,-1.58182 z m 31.635282,0 c -0.95398,0.26464 -1.69591,0.65146 -2.19109,1.15136 2.02963,-0.62876 3.80096,0.0883 4.79248,1.15238 0.32802,0.35318 0.80416,0.73104 1.07383,0.68058 l -0.29869,-1.4025 c -0.88949,-0.95453 -2.10602,-1.50731 -3.37653,-1.58182 z m -83.709625,0.31213 c -0.547598,0.0535 -1.136748,0.23488 -1.762166,0.57775 2.901834,-0.0232 4.381373,3.01679 3.811653,5.14231 -0.569528,2.12537 -2.726007,3.37189 -4.851383,2.80241 -0.52187,-0.13822 -1.823733,-0.38232 -2.043803,-10e-4 -0.22008,0.38124 0.64146,1.38816 1.02216,1.77095 1.555836,1.55591 1.555836,4.0453 0,5.60121 -0.779688,0.77964 -1.847336,1.19986 -2.949174,1.15858 -0.998848,-0.0373 -2.263911,-0.11158 -3.566707,-1.50843 0.173798,0.58066 0.657809,1.56866 2.110465,2.30477 0.45359,0.15303 0.930103,0.24278 1.416451,0.26096 1.395558,0.0523 2.749722,-0.4791 3.73724,-1.46657 1.960266,-1.96035 1.960266,-5.13845 0,-7.0988 2.677854,0.7175 5.430365,-0.87182 6.147945,-3.54965 0.674078,-2.5149 -0.686535,-5.09511 -3.072681,-5.99446 z m 31.633211,0 c -0.547593,0.0535 -1.136747,0.23488 -1.762166,0.57775 2.901834,-0.0232 4.381372,3.01679 3.811653,5.14231 -0.569532,2.12537 -2.72601,3.37189 -4.851383,2.80241 -0.521875,-0.13822 -1.823727,-0.38229 -2.043803,-10e-4 -0.220076,0.38124 0.641465,1.38816 1.02216,1.77095 1.555839,1.55591 1.555839,4.0453 0,5.60121 -0.779686,0.77964 -1.847344,1.19986 -2.949174,1.15858 -0.998852,-0.0373 -2.263901,-0.11158 -3.566708,-1.50843 0.173808,0.58066 0.657808,1.56866 2.110466,2.30477 0.453582,0.15303 0.930099,0.24278 1.416451,0.26096 1.395555,0.0523 2.749715,-0.4791 3.737239,-1.46657 1.960269,-1.96035 1.960269,-5.13845 0,-7.0988 2.67785,0.7175 5.430367,-0.87182 6.147945,-3.54965 0.674085,-2.5149 -0.686537,-5.09511 -3.07268,-5.99446 z m 31.62597,0 c -0.5476,0.0535 -1.13674,0.23488 -1.76216,0.57775 2.90182,-0.0232 4.38137,3.01679 3.81165,5.14231 -0.56953,2.12537 -2.726,3.37189 -4.85138,2.80241 -0.52187,-0.13822 -1.82374,-0.38232 -2.04381,-10e-4 -0.22006,0.38124 0.64148,1.38816 1.02216,1.77095 1.55584,1.55591 1.55584,4.0453 0,5.60121 -0.77967,0.77964 -1.847328,1.19986 -2.949168,1.15858 -0.99885,-0.0373 -2.26391,-0.11158 -3.56671,-1.50843 0.1738,0.58066 0.65781,1.56866 2.11047,2.30477 0.45359,0.15303 0.9301,0.24278 1.41645,0.26096 1.39556,0.0523 2.749718,-0.4791 3.737238,-1.46657 1.96027,-1.96035 1.96027,-5.13845 0,-7.0988 2.67786,0.7175 5.43038,-0.87182 6.14794,-3.54965 0.67408,-2.5149 -0.68653,-5.09511 -3.07268,-5.99446 z m 31.635284,0 c -0.5476,0.0535 -1.13677,0.23488 -1.76216,0.57775 2.90181,-0.0232 4.38137,3.01679 3.81165,5.14231 -0.56953,2.12537 -2.72603,3.37189 -4.85138,2.80241 -0.52187,-0.13822 -1.82374,-0.38232 -2.04381,-10e-4 -0.22008,0.38124 0.64146,1.38816 1.02216,1.77095 1.55584,1.55591 1.55584,4.0453 0,5.60121 -0.77969,0.77964 -1.84733,1.19986 -2.94917,1.15858 -0.99885,-0.0373 -2.26391,-0.11158 -3.56671,-1.50843 0.1738,0.58066 0.65781,1.56866 2.11047,2.30477 0.45359,0.15303 0.9301,0.24278 1.41645,0.26096 1.39556,0.0523 2.74972,-0.4791 3.73724,-1.46657 1.96027,-1.96035 1.96027,-5.13845 0,-7.0988 2.67783,0.7175 5.43036,-0.87182 6.14794,-3.54965 0.67408,-2.5149 -0.68653,-5.09511 -3.07268,-5.99446 z m -109.774177,6.9329 c 0.0833,0.85592 0.496042,1.59673 1.16427,2.24793 1.059408,0.52995 2.307198,0.69406 3.541386,0.36328 l 1.771468,-1.02267 c -0.220078,-0.38123 -1.521933,-0.13711 -2.043803,10e-4 -1.393756,0.37345 -3.047693,0.27724 -4.433321,-1.58956 z m 31.633211,0 c 0.08331,0.85592 0.496039,1.59673 1.16427,2.24793 1.059404,0.52995 2.307199,0.69406 3.541386,0.36328 l 1.771468,-1.02267 c -0.220076,-0.38123 -1.521928,-0.13714 -2.043803,10e-4 -1.393755,0.37345 -3.047693,0.27724 -4.433321,-1.58956 z m 31.625974,0 c 0.0833,0.85592 0.49604,1.59673 1.16427,2.24793 1.05941,0.52995 2.3072,0.69406 3.54139,0.36328 l 1.77147,-1.02267 c -0.22008,-0.38123 -1.52194,-0.13711 -2.04381,10e-4 -1.39376,0.37345 -3.04769,0.27724 -4.43332,-1.58956 z m 31.635282,0 c 0.0833,0.85592 0.49604,1.59673 1.16427,2.24793 1.05941,0.52995 2.3072,0.69406 3.54139,0.36328 l 1.77146,-1.02267 c -0.22008,-0.38123 -1.52193,-0.13711 -2.0438,10e-4 -1.39376,0.37345 -3.04769,0.27724 -4.43332,-1.58956 z" /><path
     id="path2419"
     style="font-variation-settings:normal;vector-effect:none;fill:#ffffff;fill-opacity:1;stroke:none;stroke-width:0.132292;stroke-linecap:butt;stroke-linejoin:miter;stroke-miterlimit:4;stroke-dasharray:none;stroke-dashoffset:0;stroke-opacity:1;-inkscape-stroke:none;stop-color:#000000"
     d="m 6.412012,83.575258 0.08165,1.06091 c 7.086532,0.0528 12.7321,6.92516 19.829797,6.92516 7.125074,0 12.786372,-6.92774 19.911446,-6.92774 7.125075,0 12.785864,6.92774 19.910923,6.92774 7.12509,0 12.78639,-6.92774 19.911448,-6.92774 7.12508,0 12.78637,6.92774 19.911454,6.92774 7.09769,0 12.74327,-6.87233 19.82979,-6.92516 0.0366,-0.47755 0.0448,-0.58085 0.0816,-1.06091 -7.12506,0 -12.78637,6.92774 -19.91144,6.92774 -7.125084,0 -12.786374,-6.92774 -19.911454,-6.92774 -7.125058,0 -12.786358,6.92774 -19.911448,6.92774 -7.125059,0 -12.785848,-6.92774 -19.910923,-6.92774 -7.125074,0 -12.786372,6.92774 -19.911446,6.92774 -7.125076,0 -12.786371,-6.92774 -19.911446,-6.92774 z" /><path
     id="path13321"
     style="color:#000000;fill:#ffffff;fill-rule:evenodd;stroke-linejoin:round;stroke-miterlimit:10;-inkscape-stroke:none"
     d="m 4.286604,20.887614 c 3.9e-4,0.0011 6.4e-4,0.0025 0.001,0.0036 0.8004,0.234188 1.53925,0.663366 2.14096,1.265039 1.96026,1.960349 1.96026,5.138443 0,7.098792 0.48781,-0.130703 0.97778,-0.182456 1.45779,-0.167432 1.63677,-2.700345 1.28051,-7.405864 -3.59978,-8.200016 z m 5.41776,8.30957 c -0.21704,-0.0011 -0.44128,0.01742 -0.67283,0.05839 0.003,0.0025 0.005,0.0052 0.008,0.0078 1.66744,0.453672 3.0572,1.751904 3.53673,3.541386 0.7178,2.678018 -0.87105,5.430898 -3.54913,6.148458 -0.61434,0.16371 -1.24224,0.20376 -1.85312,0.1354 -9.9e-4,8.4e-4 -0.002,0.002 -0.003,0.003 5.85727,1.64662 7.29288,-3.33033 6.427,-6.560844 -0.39225,-1.463726 -1.79581,-3.322707 -3.89382,-3.33313 z m -5.64255,8.331794 c 0.004,2.11216 0.65189,3.69776 2.72955,4.7625 -0.76289,-1.01809 -1.19104,-1.92894 -1.42126,-2.76073 z m 10.435791,6.94583 c -8.9e-4,0.002 -10e-4,0.004 -0.002,0.006 2.30313,1.06355 3.01262,2.69302 3.01687,4.89789 -0.026,0.57026 0.0638,1.07496 0.29869,1.4025 0.26967,-0.0505 0.50777,-0.72324 0.52762,-1.92649 0.0199,-1.20328 -1.00372,-4.17103 -3.84111,-4.38011 z m -0.59376,3.31142 c -0.45123,-0.006 -0.90738,0.0494 -1.35599,0.16898 -2.67803,0.71735 -4.2671,3.46994 -3.54965,6.14794 0.38733,1.44614 1.3702,2.57053 2.61224,3.18999 -0.83586,-1.2517 -1.3924,-2.73388 -1.58801,-3.46387 -0.56943,-2.12444 0.63649,-4.83136 4.11447,-6.03219 -0.0776,-0.005 -0.15514,-0.01 -0.23306,-0.0108 z m 9.58391,0 c -1.35421,0.0168 -2.66593,0.58037 -3.60908,1.59318 0,-5.3e-4 0,-10e-4 0,-0.002 l -5.2e-4,10e-4 c -0.23985,0.44879 -0.37177,0.91198 -0.29869,1.4025 0.26967,0.0505 0.74582,-0.32738 1.07384,-0.68058 0.99017,-1.06259 2.95786,-1.99596 6.13038,-1.12551 -0.54786,-0.46418 -1.20032,-0.82191 -1.93994,-1.02009 -0.4488,-0.11959 -0.90458,-0.17458 -1.35599,-0.16898 z m -6.56962,8.84442 c -0.55531,0.1133 -1.25274,0.53826 -1.77147,1.02267 -1.96026,1.96036 -1.96026,5.13845 0,7.0988 0.55207,0.55202 1.22042,0.96163 1.9482,1.20664 -3.32109,-2.16119 -3.17792,-5.90778 -1.19941,-7.55716 0.3807,-0.38279 1.24275,-1.38971 1.02268,-1.77095 z m 19.00194,-35.743034 c 3.9e-4,0.0011 6.4e-4,0.0025 0.001,0.0036 0.8004,0.234188 1.53925,0.663366 2.14096,1.265039 1.96026,1.960349 1.96026,5.138443 0,7.098792 0.48781,-0.130703 0.97778,-0.182456 1.45779,-0.167432 1.63677,-2.700345 1.28051,-7.405864 -3.59978,-8.200016 z m 5.41776,8.30957 c -0.21704,-0.0011 -0.44128,0.01742 -0.67283,0.05839 0.003,0.0025 0.005,0.0052 0.008,0.0078 1.66744,0.453672 3.0572,1.751904 3.53673,3.541386 0.7178,2.678018 -0.87105,5.430898 -3.54913,6.148458 -0.61434,0.16371 -1.24224,0.20376 -1.85312,0.1354 -9.9e-4,8.4e-4 -0.002,0.002 -0.003,0.003 5.85727,1.64662 7.29288,-3.33033 6.427,-6.560844 -0.39225,-1.463726 -1.79581,-3.322707 -3.89382,-3.33313 z m -5.64255,8.331794 c 0.004,2.11216 0.65189,3.69776 2.72955,4.7625 -0.76289,-1.01809 -1.19104,-1.92894 -1.42126,-2.76073 z m -3.7675,2.05447 c 0.70994,-0.51768 1.16434,-1.21105 1.40123,-2.05396 -1.25808,1.3501 -3.1696,1.90184 -4.96404,1.42369 -0.58203,-0.15591 -1.10893,-0.41246 -1.57896,-0.73767 1.06443,2.02037 3.31466,2.04645 5.14177,1.36794 z m 77.464565,4.89136 c -8.9e-4,0.002 -10e-4,0.004 -0.002,0.006 2.30313,1.06355 3.01262,2.69302 3.01687,4.89788 -0.026,0.57026 0.0638,1.07496 0.29869,1.4025 0.26967,-0.0505 0.50777,-0.72324 0.52762,-1.92649 0.0199,-1.20327 -1.00372,-4.17103 -3.84111,-4.3801 z m -0.59376,3.31142 c -0.45123,-0.006 -0.90738,0.0494 -1.35599,0.16898 -2.67803,0.71735 -4.2671,3.46994 -3.54965,6.14794 0.38733,1.44614 1.3702,2.57053 2.61224,3.18999 -0.83586,-1.2517 -1.3924,-2.73388 -1.58801,-3.46387 -0.56943,-2.12444 0.63649,-4.83136 4.11447,-6.03219 -0.0776,-0.005 -0.15514,-0.01 -0.23306,-0.0108 z m 9.58391,0 c -1.35421,0.0168 -2.66593,0.58037 -3.60908,1.59318 v -0.002 l -5.2e-4,10e-4 c -0.23985,0.44879 -0.37177,0.91198 -0.29869,1.4025 0.26967,0.0505 0.74582,-0.32739 1.07384,-0.68058 0.99017,-1.06259 2.95786,-1.99596 6.13038,-1.12551 -0.54786,-0.46418 -1.20032,-0.82191 -1.93994,-1.02009 -0.4488,-0.11959 -0.90458,-0.17458 -1.35599,-0.16898 z m -6.56962,8.84442 c -0.55531,0.1133 -1.25274,0.53826 -1.77147,1.02267 -1.96026,1.96035 -1.96026,5.13845 0,7.0988 0.55207,0.55202 1.22042,0.96163 1.9482,1.20664 -3.32109,-2.16119 -3.17792,-5.90778 -1.19941,-7.55716 0.3807,-0.38279 1.24275,-1.38971 1.02268,-1.77095 z m 15.00965,-17.0472 c 0.70994,-0.51768 1.16434,-1.21105 1.40123,-2.05396 -1.25808,1.3501 -3.1696,1.90184 -4.96404,1.42369 -0.58203,-0.15591 -1.10893,-0.41246 -1.57896,-0.73767 1.06443,2.02037 3.31466,2.04645 5.14177,1.36794 z m -49.065462,4.89136 c -8.9e-4,0.002 -0.001,0.004 -0.002,0.006 2.30313,1.06355 3.01262,2.69302 3.01687,4.89788 -0.026,0.57026 0.0638,1.07496 0.29869,1.4025 0.26967,-0.0505 0.50777,-0.72324 0.52762,-1.92649 0.0199,-1.20327 -1.00372,-4.17103 -3.84111,-4.3801 z m -0.59376,3.31142 c -0.45123,-0.006 -0.90738,0.0494 -1.35599,0.16898 -2.67803,0.71735 -4.2671,3.46994 -3.54965,6.14794 0.38733,1.44614 1.3702,2.57053 2.61224,3.18999 -0.83586,-1.2517 -1.3924,-2.73388 -1.58801,-3.46387 -0.56943,-2.12444 0.63649,-4.83136 4.11447,-6.03219 -0.0776,-0.005 -0.15514,-0.01 -0.23306,-0.0108 z m 9.583908,0 c -1.35421,0.0168 -2.66593,0.58037 -3.609078,1.59318 0,-5.3e-4 0,-10e-4 0,-0.002 l -5.2e-4,10e-4 c -0.23985,0.44879 -0.37177,0.91198 -0.29869,1.4025 0.26967,0.0505 0.745818,-0.32739 1.073838,-0.68058 0.99017,-1.06259 2.95786,-1.99596 6.13038,-1.12551 -0.54786,-0.46418 -1.20032,-0.82191 -1.93994,-1.02009 -0.4488,-0.11959 -0.90458,-0.17458 -1.35599,-0.16898 z m -6.569618,8.84442 c -0.55531,0.1133 -1.25274,0.53826 -1.77147,1.02267 -1.96026,1.96035 -1.96026,5.13845 0,7.0988 0.55207,0.55202 1.22042,0.96163 1.9482,1.20664 -3.32109,-2.16119 -3.17792,-5.90778 -1.19941,-7.55716 0.3807,-0.38279 1.24275,-1.38971 1.02268,-1.77095 z M 99.179536,20.887614 c 3.9e-4,0.0011 6.4e-4,0.0025 0.001,0.0036 0.8004,0.234188 1.539254,0.663366 2.140964,1.265039 1.96026,1.960349 1.96026,5.138443 0,7.098792 0.48781,-0.130703 0.97778,-0.182456 1.45779,-0.167432 1.63677,-2.700345 1.28051,-7.405864 -3.599784,-8.200016 z m 5.417764,8.30957 c -0.21704,-0.0011 -0.44128,0.01742 -0.67283,0.05839 0.003,0.0025 0.005,0.0052 0.008,0.0078 1.66744,0.453672 3.0572,1.751904 3.53673,3.541386 0.7178,2.678018 -0.87105,5.430898 -3.54913,6.148458 -0.61434,0.16371 -1.24224,0.20376 -1.85312,0.1354 -9.9e-4,8.4e-4 -0.002,0.002 -0.003,0.003 5.85727,1.64662 7.29288,-3.33033 6.427,-6.560844 -0.39225,-1.463726 -1.79581,-3.322707 -3.89382,-3.33313 z m -5.642554,8.331794 c 0.004,2.11216 0.65189,3.69776 2.729554,4.7625 -0.76289,-1.01809 -1.19104,-1.92894 -1.42126,-2.76073 z m -3.7675,2.05447 c 0.70994,-0.51768 1.16434,-1.21105 1.40123,-2.05396 -1.25808,1.3501 -3.1696,1.90184 -4.96404,1.42369 -0.58203,-0.15591 -1.10893,-0.41246 -1.57896,-0.73767 1.06443,2.02037 3.31466,2.04645 5.14177,1.36794 z m -49.056212,4.89136 c -8.96e-4,0.002 -0.0012,0.004 -0.0021,0.006 2.303123,1.06355 3.012618,2.69302 3.01687,4.89788 -0.02603,0.57026 0.06378,1.07496 0.29869,1.4025 0.269666,-0.0505 0.507768,-0.72324 0.527616,-1.92649 0.01985,-1.20327 -1.003723,-4.17103 -3.841109,-4.3801 z m -0.593762,3.31142 c -0.451232,-0.006 -0.907381,0.0494 -1.35599,0.16898 -2.678037,0.71735 -4.267105,3.46994 -3.549654,6.14794 0.387328,1.44614 1.370205,2.57053 2.612244,3.18999 -0.835858,-1.2517 -1.392401,-2.73388 -1.588017,-3.46387 -0.569427,-2.12444 0.636494,-4.83136 4.114478,-6.03219 -0.07757,-0.005 -0.155147,-0.01 -0.233061,-0.0108 z m 9.583911,0 c -1.354218,0.0168 -2.665933,0.58037 -3.609082,1.59318 10e-7,-5.3e-4 -1e-6,-10e-4 0,-0.002 l -5.17e-4,10e-4 c -0.23985,0.44879 -0.37177,0.91198 -0.29869,1.4025 0.269666,0.0505 0.745813,-0.32739 1.073837,-0.68058 0.990169,-1.06259 2.957854,-1.99596 6.130375,-1.12551 -0.547855,-0.46418 -1.200321,-0.82191 -1.939934,-1.02009 -0.4488,-0.11959 -0.904583,-0.17458 -1.355989,-0.16898 z m -6.569625,8.84443 c -0.555304,0.1133 -1.252743,0.53826 -1.771468,1.02267 -1.960264,1.96035 -1.960264,5.13845 0,7.09879 0.55207,0.55202 1.220415,0.96163 1.948201,1.20664 -3.321096,-2.16119 -3.177918,-5.90777 -1.199409,-7.55715 0.380693,-0.38279 1.242752,-1.38971 1.022676,-1.77095 z m 19.00194,-35.743044 c 3.9e-4,0.0011 6.4e-4,0.0025 10e-4,0.0036 0.8004,0.234188 1.53925,0.663366 2.14096,1.265039 1.96026,1.960349 1.96026,5.138443 0,7.098792 0.48781,-0.130703 0.97778,-0.182456 1.45779,-0.167432 1.63677,-2.700345 1.28051,-7.405864 -3.59978,-8.200016 z m 5.41776,8.30957 c -0.21704,-0.0011 -0.44128,0.01742 -0.67283,0.05839 0.003,0.0025 0.005,0.0052 0.008,0.0078 1.66744,0.453672 3.0572,1.751904 3.53673,3.541386 0.7178,2.678028 -0.87105,5.430898 -3.54913,6.148458 -0.61434,0.16371 -1.24224,0.20376 -1.85312,0.1354 -9.9e-4,8.5e-4 -0.002,0.002 -0.003,0.003 5.85727,1.64662 7.29288,-3.33033 6.427,-6.560844 -0.39225,-1.463726 -1.79581,-3.322707 -3.89382,-3.33313 z m -5.64255,8.331794 c 0.004,2.11216 0.65189,3.69777 2.72955,4.7625 -0.76289,-1.01809 -1.19104,-1.92894 -1.42126,-2.76073 z m -3.7675,2.05447 c 0.70994,-0.51768 1.16434,-1.21105 1.40123,-2.05396 -1.25808,1.3501 -3.169596,1.90184 -4.964034,1.42369 -0.582032,-0.15591 -1.10893,-0.41246 -1.578964,-0.73767 1.06443,2.02037 3.314658,2.04645 5.141768,1.36794 z" /></svg>
