<?xml version="1.0" encoding="UTF-8" standalone="no"?>
<svg xmlns:dc="http://purl.org/dc/elements/1.1/" xmlns:cc="http://creativecommons.org/ns#" xmlns:rdf="http://www.w3.org/1999/02/22-rdf-syntax-ns#" xmlns:svg="http://www.w3.org/2000/svg" xmlns="http://www.w3.org/2000/svg" xmlns:xlink="http://www.w3.org/1999/xlink" xmlns:sodipodi="http://sodipodi.sourceforge.net/DTD/sodipodi-0.dtd" xmlns:inkscape="http://www.inkscape.org/namespaces/inkscape" width="500" height="570" viewBox="0 0 132.29166 150.8125" version="1.1" id="svg8" sodipodi:docname="svg.svg" inkscape:version="1.0.2 (e86c870879, 2021-01-15, custom)">
  <defs id="defs2"/>
  <sodipodi:namedview inkscape:snap-global="true" inkscape:object-nodes="true" inkscape:showpageshadow="false" inkscape:window-maximized="1" inkscape:window-y="-4" inkscape:window-x="-8" inkscape:window-height="1017" inkscape:window-width="1920" units="px" showgrid="false" inkscape:document-rotation="0" inkscape:current-layer="g2102" inkscape:document-units="px" inkscape:cy="205.88605" inkscape:cx="545.74897" inkscape:zoom="0.64593752" inkscape:pageshadow="2" inkscape:pageopacity="0.0" borderopacity="1.0" bordercolor="#666666" pagecolor="#ffffff" id="base" inkscape:snap-others="false" inkscape:lockguides="true" showguides="false" inkscape:object-paths="false" inkscape:snap-to-guides="false"/>
  <metadata id="metadata5">
    <rdf:RDF>
      <cc:Work rdf:about="">
        <dc:format>image/svg+xml</dc:format>
        <dc:type rdf:resource="http://purl.org/dc/dcmitype/StillImage"/>
        <dc:title/>
      </cc:Work>
    </rdf:RDF>
  </metadata>
  <g id="layer1" inkscape:groupmode="layer" inkscape:label="Шар 1" transform="translate(-2.2850561,-16.832133)">
    <g id="g2102" transform="matrix(1.8025828,0,0,1.8025828,-69.046289,-57.305814)">
      <path id="path862" d="m 112.96181,41.128733 v 47.300389 c 0,15.279108 -11.01508,36.364288 -36.694948,36.364288 -25.679868,0 -36.694938,-21.08518 -36.694938,-36.364288 V 41.128733 Z" style="font-variation-settings:normal;opacity:1;vector-effect:none;fill:#005dbd;fill-opacity:1;fill-rule:evenodd;stroke:none;stroke-width:0.263882;stroke-linecap:butt;stroke-linejoin:miter;stroke-miterlimit:4;stroke-dasharray:none;stroke-dashoffset:0;stroke-opacity:1;marker:none;marker-start:none;marker-mid:none;marker-end:none;stop-color:#000000;stop-opacity:1" sodipodi:nodetypes="cszscc"/>
      <g style="opacity:1" transform="matrix(0.86441993,0.01325856,-0.01325856,0.86441993,10.59781,55.343112)" id="g1635">
        <g id="g1324">
          <g id="g1344">
            <path id="path868" d="m 88.642455,51.111815 c 0,0 1.152032,-1.344037 3.26409,-1.728047 2.112059,-0.384011 2.53447,0.38401 2.265663,0.960026 -0.268808,0.576016 -1.996856,1.113631 -2.304064,1.728048 z m 9.400332,0.824071 c 2.721883,-1.302204 7.242193,-4.593011 10.789053,-4.30838 -0.53989,2.185116 -3.15207,4.083155 -5.26781,6.571184 0.54456,3.243063 3.2533,2.504979 4.56181,7.277179 -2.71113,0.09068 -5.94178,-3.063281 -9.974438,-4.489404 z m -6.263442,4.76094 c 0,0 1.792141,1.249068 3.095516,1.955063 0,0 -4.453199,0.941327 -7.114257,4.036843 0,0 -2.986901,-2.063678 -4.398891,-3.529975 z M 76.162109,48.999757 c 0.384011,-0.883225 2.035256,-2.188861 2.035256,-2.188861 -0.736059,-0.759803 -2.753566,-1.044239 -3.651538,-4.161559 -3.149824,2.117984 -6.402952,6.231734 -6.402952,6.231734 z" style="font-variation-settings:normal;opacity:1;vector-effect:none;fill:#cccccc;fill-opacity:1;fill-rule:evenodd;stroke:none;stroke-width:0.132292;stroke-linecap:butt;stroke-linejoin:miter;stroke-miterlimit:4;stroke-dasharray:none;stroke-dashoffset:0;stroke-opacity:1;marker:none;marker-start:none;marker-mid:none;marker-end:none;stop-color:#000000;stop-opacity:1" sodipodi:nodetypes="cccccsscccccccc"/>
            <path transform="scale(0.26458333)" d="m 281.74805,161.19531 c -11.90485,8.00498 -24.19922,23.55274 -24.19922,23.55274 l 2.29492,0.0332 c 0.78833,-0.89021 12.9621,-14.55503 22.79687,-20.99609 -0.31869,-0.80752 -0.62279,-1.65331 -0.89257,-2.58985 z m 128.31836,18.75196 c -13.19939,-0.24385 -29.54577,11.57779 -39.51172,16.3457 l 0.0332,1.55859 c 1.43119,-0.6869 5.15366,-2.46549 13.73633,-6.46289 10.59503,-4.93469 16.40202,-7.40126 21.62695,-8.12695 1.8258,-0.25358 3.25437,-0.49613 4.48828,-0.71875 0.36858,-0.83576 0.68124,-1.67785 0.89258,-2.5332 -0.41892,-0.0336 -0.83984,-0.0546 -1.26562,-0.0625 z m -58.86133,6.30859 c -1.07259,-5.3e-4 -2.34506,0.11849 -3.8418,0.39062 -7.98258,1.45138 -12.33594,6.53125 -12.33594,6.53125 l 1.85938,0.55274 c 2.07273,-1.21293 6.47507,-3.65872 9.70312,-4.51953 4.35414,-1.1611 6.53091,-1.16023 7.54688,0.72656 0.28495,0.5292 0.72254,0.89179 1.20508,1.11133 0.25967,-0.25631 0.46279,-0.51374 0.58398,-0.77344 0.82547,-1.76887 -0.0728,-4.01723 -4.7207,-4.01953 z m -35.60352,37.17969 -0.5332,0.15625 c 5.33665,5.54191 16.625,13.34179 16.625,13.34179 0.4942,-0.57488 1.00909,-1.12404 1.5332,-1.66015 -0.88973,-0.60003 -15.84011,-10.6768 -17.625,-11.83789 z" style="font-variation-settings:normal;opacity:1;vector-effect:none;fill:#ffffff;fill-opacity:1;fill-rule:evenodd;stroke:none;stroke-width:0.999999;stroke-linecap:butt;stroke-linejoin:miter;stroke-miterlimit:4;stroke-dasharray:none;stroke-dashoffset:0;stroke-opacity:1;marker:none;marker-start:none;marker-mid:none;marker-end:none;stop-color:#000000;stop-opacity:1" id="path1336"/>
            <path sodipodi:nodetypes="cccccccsccscccccccccscccscccscccscccscccsccccccccccccccccccccccccccccccccccccccccccccccccccsccscccccccccccssssccssssccccsscssssccssccccssssccssscccccccccccccccccccccccccccc" transform="scale(0.26458333)" d="m 282.92383,164.46875 c -11.7583,9.53363 -20.98438,19.7168 -20.98438,19.7168 l 0.70703,0.63867 h 0.0684 c 0.085,-0.0938 9.10365,-10.02634 20.63282,-19.40625 -0.14561,-0.30295 -0.2852,-0.62586 -0.42383,-0.94922 z m 1.40039,2.75781 c -3.0065,2.00869 -7.04869,5.74579 -10.60352,9.22266 -4.14611,4.05519 -7.5664,7.72851 -7.5664,7.72851 l 0.73047,0.67969 c 0,0 3.41036,-3.65515 7.53711,-7.6914 3.52466,-3.44738 7.60363,-7.16849 10.4375,-9.08594 -0.18194,-0.27007 -0.35921,-0.56187 -0.53516,-0.85352 z m 1.54101,2.22071 c -2.7439,2.50348 -11.09005,10.23016 -14.80273,15.05664 l 0.58594,0.45312 0.33008,0.004 c 3.64361,-4.6698 11.81689,-12.26797 14.54296,-14.76563 -0.22012,-0.2426 -0.44042,-0.48237 -0.65625,-0.74804 z m 2.17383,2.25 c -1.97752,1.74591 -4.63871,4.43805 -7.04101,6.95898 -2.94396,3.08934 -5.41016,5.81641 -5.41016,5.81641 l 0.60547,0.55078 0.24023,0.004 c 0.15784,-0.17393 2.45361,-2.70225 5.28907,-5.67773 2.44478,-2.56552 5.17979,-5.32376 7.09179,-7.00391 -0.25786,-0.20388 -0.51729,-0.4223 -0.77539,-0.64843 z m 2.15625,1.65234 c -1.62053,1.5077 -3.8502,3.80644 -5.89648,5.96484 -2.65256,2.7979 -4.93945,5.29883 -4.93945,5.29883 l 0.5039,0.46484 0.42774,0.006 c 0.27189,-0.29724 2.26637,-2.47663 4.73828,-5.08398 2.12936,-2.24603 4.46865,-4.63864 6.03515,-6.08203 -0.28732,-0.18061 -0.57346,-0.36825 -0.86914,-0.56836 z m 2.6211,1.63477 c -1.25703,1.20873 -3.05882,3.02338 -4.80469,4.79492 -2.46919,2.5055 -4.72461,4.82617 -4.72461,4.82617 l 0.54687,0.53125 0.32618,0.004 c 0.14227,-0.14646 2.17684,-2.2414 4.56054,-4.66015 1.81063,-1.83726 3.74917,-3.77834 4.97266,-4.94922 -0.2866,-0.17987 -0.56244,-0.35965 -0.87695,-0.54687 z m 117.02343,8.79296 c -19.11947,2.46573 -37.72656,14.82422 -37.72656,14.82422 l 0.55469,0.83399 c 0,0 18.04467,-11.9179 36.56055,-14.5625 0.21913,-0.36392 0.41774,-0.72971 0.61132,-1.09571 z m -37.35329,30.94975 c 3.09544,1.69453 16.84337,8.97436 35.14431,14.35103 -0.14575,-0.40415 -0.29378,-0.7962 -0.44531,-1.17578 -16.26407,-4.85642 -28.75547,-11.13266 -33.21289,-13.50195 0.29721,-0.11857 0.59424,-0.2404 0.92773,-0.41211 4.72935,2.34164 17.75422,8.3873 30.67773,10.48438 -0.21162,-0.38753 -0.42514,-0.76176 -0.64257,-1.11914 -11.64509,-2.04507 -23.71258,-7.41977 -29.01367,-9.97657 0.22046,-0.14789 0.43953,-0.3089 0.6582,-0.48437 4.83139,2.05117 15.64342,6.21619 26.08203,7.29687 -0.3247,-0.38819 -0.6511,-0.76358 -0.97852,-1.11523 -9.66423,-1.19617 -19.49038,-4.9267 -24.27148,-6.93164 0.23857,-0.24615 0.46926,-0.51155 0.6875,-0.80078 4.34584,1.49434 12.97912,4.22812 20.14648,5 l 0.0566,-0.50977 c -0.21646,-0.193 -0.42457,-0.38548 -0.63671,-0.57617 -6.76001,-0.83577 -14.75249,-3.33604 -19,-4.7793 0.1701,-0.29458 0.32745,-0.60809 0.46875,-0.9414 3.68648,1.16739 9.92262,2.80812 15.43945,2.58203 -0.25401,-0.31505 -0.50737,-0.63039 -0.74024,-0.97266 -5.10244,0.052 -10.86508,-1.46656 -14.35546,-2.5625 0.0889,-0.29953 0.1637,-0.61384 0.22656,-0.94141 3.3441,0.52241 8.3834,1.18484 12.83398,1.12891 -0.13774,-0.32283 -0.26604,-0.66243 -0.38672,-1.01367 -4.2679,0.0133 -9.08187,-0.61599 -12.30859,-1.11328 0.0285,-0.30596 0.0379,-0.59704 0.0371,-0.88086 l 11.63281,-0.44922 c -0.03,-0.15653 -0.0627,-0.30511 -0.0898,-0.4668 0.15711,-0.18475 0.31808,-0.36381 0.47656,-0.54687 l -12.08008,0.46679 c -0.0367,-0.29197 -0.0874,-0.57052 -0.15234,-0.83593 3.6594,-0.46049 9.73501,-1.21068 13.9707,-1.58399 0.33244,-0.36342 0.66497,-0.72465 1,-1.08203 -4.12068,0.30374 -11.45786,1.21752 -15.27734,1.70117 -0.0888,-0.21815 -0.18646,-0.42446 -0.29102,-0.62109 4.39258,-1.22134 12.16601,-3.23383 18.25781,-3.87891 0.36663,-0.37496 0.72183,-0.74359 1.08594,-1.11328 -6.43603,0.49212 -15.25339,2.78472 -19.90429,4.09375 -0.18246,-0.2429 -0.37351,-0.45826 -0.56641,-0.6582 4.93844,-1.84069 15.24901,-5.43963 23.68945,-6.72852 0.37756,-0.38916 0.75059,-0.7765 1.11719,-1.16211 -9.22203,1.16695 -20.80386,5.29325 -25.66211,7.13282 -0.24839,-0.18821 -0.48763,-0.35561 -0.69336,-0.47852 2.15908,-1.02546 5.36438,-2.5039 9.92969,-4.34375 6.23777,-2.51385 13.73694,-5.10478 19.72461,-5.96289 0.31668,-0.37811 0.6191,-0.75521 0.91601,-1.13281 -6.34152,0.70619 -14.3819,3.49181 -21.01757,6.16601 -7.05143,2.84177 -12.50391,5.57227 -12.50391,5.57227 z m -27.79514,0.20064 -0.19532,0.0566 -0.43359,0.72851 11.39062,6.81445 c 0.53112,-0.16118 0.90677,-0.26722 1.31446,-0.3789 z m -2.60157,0.76172 -0.0879,0.0254 -0.65625,0.65625 c 0.0812,0.0812 0.14278,0.11443 0.25196,0.19922 0.10917,0.0848 0.25457,0.1951 0.42773,0.32422 0.34631,0.25823 0.80885,0.59746 1.35742,0.99609 1.09714,0.7973 2.52122,1.82088 3.92774,2.82813 2.19311,1.57055 3.49584,2.49905 4.33984,3.10156 0.38607,-0.14516 0.77389,-0.29119 1.13672,-0.41992 -0.54999,-0.39116 -2.42066,-1.72393 -4.89258,-3.49414 -1.40553,-1.00654 -2.82638,-2.02563 -3.91992,-2.82031 -0.54677,-0.39734 -1.01131,-0.74238 -1.35156,-0.9961 -0.17013,-0.12685 -0.31383,-0.23269 -0.41407,-0.31054 -0.0772,-0.06 -0.10506,-0.0806 -0.11914,-0.0899 z m -3.91601,1.14453 -0.96875,0.28321 v 0.26562 c 10e-4,0 -0.0643,-0.005 -0.082,-0.008 -0.0178,-0.003 -0.0276,-0.005 -0.0371,-0.008 -0.0189,-0.005 -0.0244,-0.006 -0.0293,-0.008 0.0192,0.009 0.0662,0.0307 0.11914,0.0586 0.10579,0.0558 0.26109,0.14808 0.45703,0.25976 0.39188,0.22337 0.94194,0.54268 1.59375,0.92969 1.30362,0.77403 3.01405,1.8081 4.71875,2.8418 2.71346,1.64539 4.41275,2.68809 5.39844,3.29101 0.38958,-0.16412 0.77198,-0.32145 1.14648,-0.4707 -0.63491,-0.38988 -2.99253,-1.83907 -6.02148,-3.67578 -1.70604,-1.03451 -3.42356,-2.07247 -4.73242,-2.84961 -0.63537,-0.37725 -1.16386,-0.68266 -1.5625,-0.91016 z m -3.71094,1.08594 -0.79883,0.23242 -0.16601,0.33594 c -0.0862,-0.0431 0.0467,0.0341 0.15625,0.10352 0.10957,0.0694 0.25733,0.16542 0.44922,0.28906 0.38377,0.24728 0.91838,0.59251 1.55078,1.00391 1.26478,0.82279 2.92539,1.90892 4.57617,2.98828 2.73725,1.78974 4.59933,3.00794 5.44726,3.5625 0.34427,-0.17268 0.69245,-0.35572 1.03125,-0.51758 -0.54584,-0.35816 -2.95035,-1.93546 -5.93164,-3.88477 -1.6511,-1.07957 -3.31011,-2.1588 -4.57617,-2.98242 -0.63303,-0.4118 -1.16465,-0.76292 -1.55078,-1.01172 -0.0779,-0.0502 -0.12155,-0.0773 -0.1875,-0.11914 z m -3.54101,1.03516 -1.23243,0.35937 -0.0137,0.0234 13.17578,8.61328 c 0.33124,-0.19058 0.66089,-0.37029 0.99024,-0.55078 z m -3.54297,1.03515 -0.10547,0.0312 -0.50586,0.76368 13.24609,8.91601 c 0.30511,-0.20313 0.61006,-0.38795 0.91602,-0.58203 z m -2.82032,1.26758 -0.54492,0.83399 13.96875,9.03906 c 0.29083,-0.21677 0.58759,-0.41118 0.88086,-0.61914 z m -3.76367,0.8711 -0.56054,0.83398 15.19921,10.22461 c 0.2641,-0.23048 0.53454,-0.44572 0.80274,-0.66797 z m -3.625,1.02539 -0.57617,0.8125 16.34961,11.59961 c 0.23199,-0.2427 0.46186,-0.48759 0.69922,-0.72266 z" style="color:#000000;font-style:normal;font-variant:normal;font-weight:normal;font-stretch:normal;font-size:medium;line-height:normal;font-family:sans-serif;font-variant-ligatures:normal;font-variant-position:normal;font-variant-caps:normal;font-variant-numeric:normal;font-variant-alternates:normal;font-variant-east-asian:normal;font-feature-settings:normal;font-variation-settings:normal;text-indent:0;text-align:start;text-decoration:none;text-decoration-line:none;text-decoration-style:solid;text-decoration-color:#000000;letter-spacing:normal;word-spacing:normal;text-transform:none;writing-mode:lr-tb;direction:ltr;text-orientation:mixed;dominant-baseline:auto;baseline-shift:baseline;text-anchor:start;white-space:normal;shape-padding:0;shape-margin:0;inline-size:0;clip-rule:nonzero;display:inline;overflow:visible;visibility:visible;opacity:1;isolation:auto;mix-blend-mode:normal;color-interpolation:sRGB;color-interpolation-filters:linearRGB;solid-color:#000000;solid-opacity:1;vector-effect:none;fill:#808080;fill-opacity:1;fill-rule:evenodd;stroke:none;stroke-width:0.999999;stroke-linecap:butt;stroke-linejoin:miter;stroke-miterlimit:4;stroke-dasharray:none;stroke-dashoffset:0;stroke-opacity:1;marker:none;color-rendering:auto;image-rendering:auto;shape-rendering:auto;text-rendering:auto;enable-background:accumulate;stop-color:#000000;stop-opacity:1" id="path1328"/>
          </g>
        </g>
        <path sodipodi:nodetypes="csszzcscszcccszc" id="path864" d="m 53.510797,59.647523 c 4.344585,1.249068 9.611901,1.708058 15.31466,1.574912 5.702759,-0.133146 15.097431,-1.520605 20.093703,-3.367053 4.996272,-1.846448 9.232242,-0.868917 9.232242,-0.868917 0,0 1.900758,-0.868917 1.900758,-2.498136 0,-1.629219 -2.009373,-2.552443 -2.009373,-2.552443 -2.932594,1.41199 -6.100091,-0.06006 -11.221249,-1.439943 -5.121157,-1.379881 -11.475731,-1.682454 -17.94725,-1.664144 -6.471519,0.01831 -14.024769,2.382419 -16.290433,3.227241 -2.265662,0.844825 -4.303235,1.616709 -5.683356,2.035257 -1.380121,0.418548 -2.088746,1.3488 -2.205588,1.86938 0,0 1.430093,0.796508 3.711,1.475349 -0.363443,0.70776 -1.25067,0.08274 -2.60675,0 0,0 -0.102003,0.405251 0.488765,0.733148 0.740101,0.410783 2.478958,1.036708 4.263123,1.249069 1.784165,0.212362 2.959748,0.22628 2.959748,0.22628 z" style="font-variation-settings:normal;opacity:1;vector-effect:none;fill:#cccccc;fill-opacity:1;fill-rule:evenodd;stroke:none;stroke-width:0.132292;stroke-linecap:butt;stroke-linejoin:miter;stroke-miterlimit:4;stroke-dasharray:none;stroke-dashoffset:0;stroke-opacity:1;marker:none;marker-start:none;marker-mid:none;marker-end:none;stop-color:#000000;stop-opacity:1"/>
        <path transform="scale(0.26458333)" d="m 206.88477,197.44531 c -0.3979,-0.009 -0.7817,0.0288 -1.11524,0.0801 0,0 2.66868,1.33345 2.97656,3.07813 0.24843,1.40769 -0.41211,2.5664 -0.41211,2.5664 0,0 1.95065,-1.12979 1.4375,-3.49023 -0.38276,-1.76072 -1.69301,-2.20732 -2.88671,-2.23438 z m -6.45313,3.77344 c 0,0 2.5666,3.0799 0.10352,5.54297 0,0 1.84765,2.56427 -0.41016,5.02734 0,0 3.07813,-1.43678 1.94922,-4.51562 0,0 2.46254,-4.10474 -1.64258,-6.05469 z m -19.49414,2.0332 c -1.30725,0.44297 -2.57471,0.8653 -3.67578,1.19922 -5.21621,1.58192 -7.89433,5.09691 -8.33594,7.06445 0,0 5.40464,3.01048 14.02539,5.57618 -1.37364,2.675 -4.72622,0.31271 -9.85156,0 0,0 -0.30433,1.31914 1.43555,2.5 1.17374,-0.229 2.7291,-0.3952 4.22656,-0.0957 2.90276,0.58056 5.36914,-0.28906 5.36914,-0.28906 -0.43542,-1.1611 0.14648,-1.74219 0.14648,-1.74219 5.07983,3.19304 9.4336,0.72657 9.4336,0.72657 -3.62845,0.43541 -5.51467,-1.9e-4 -10.88477,-2.75782 -5.3701,-2.75762 -11.36914,-4.69336 -11.36914,-4.69336 0,0 0.19458,-0.30386 0.66016,-0.78515 1.57081,-0.0107 3.14208,0.47668 4.71289,1.0039 -1.18866,-1.02808 -2.37775,-1.54348 -3.56641,-2.03515 0.48772,-0.38754 1.08782,-0.81036 1.81641,-1.24414 1.46129,0.83864 2.26889,1.98856 4.70898,2.33593 -1.4586,-0.98049 -2.9782,-1.94699 -3.10742,-3.19335 2.12244,-1.02192 3.45861,-2.45786 4.25586,-3.57032 z m 29.34766,0.63477 c 0,0 -0.51403,0.82173 -1.23243,1.4375 0,0 1.7461,1.64275 0.61719,4.82422 -1.12891,3.18146 -2.97656,5.02734 -2.97656,5.02734 0,0 4.2065,-3.48916 4.82226,-6.97851 0.61577,-3.48935 -1.23046,-4.31055 -1.23046,-4.31055 z m -0.10352,10.26367 c 0,0 -0.92276,1.64222 -5.54102,3.18164 0,0 2.7706,-0.10297 4.92579,-0.71875 0,0 -0.30734,3.6946 -5.13086,5.64453 0,0 2.15518,0.5135 4.51562,-1.53906 2.36045,-2.05256 1.84624,-5.33682 1.23047,-6.56836 z" style="font-variation-settings:normal;opacity:1;vector-effect:none;fill:#ffffff;fill-opacity:1;fill-rule:evenodd;stroke:none;stroke-width:0.500001;stroke-linecap:butt;stroke-linejoin:miter;stroke-miterlimit:4;stroke-dasharray:none;stroke-dashoffset:0;stroke-opacity:1;marker:none;marker-start:none;marker-mid:none;marker-end:none;stop-color:#000000;stop-opacity:1" id="path872"/>
        <path d="m 47.818124,58.126713 a 1.5209702,1.3099076 0 0 1 -1.520971,1.309907 1.5209702,1.3099076 0 0 1 -1.52097,-1.309907 1.5209702,1.3099076 0 0 1 1.52097,-1.309908 1.5209702,1.3099076 0 0 1 1.520971,1.309908 z" transform="matrix(0.99792118,-0.06444618,0.06609826,0.99781312,0,0)" style="color:#000000;display:inline;overflow:visible;visibility:visible;fill:#ffffff;fill-rule:evenodd;stroke:none;stroke-width:0.132292;stroke-linecap:square;stroke-linejoin:miter;stroke-miterlimit:4;stroke-dasharray:none;stroke-dashoffset:0;stroke-opacity:1;marker:none;marker-start:none;marker-mid:none;marker-end:none;enable-background:accumulate" id="path883"/>
        <path d="m 47.160799,58.054592 a 0.87839675,0.75279886 0 0 1 -0.878397,0.752799 0.87839675,0.75279886 0 0 1 -0.878397,-0.752799 0.87839675,0.75279886 0 0 1 0.878397,-0.752799 0.87839675,0.75279886 0 0 1 0.878397,0.752799 z" transform="matrix(0.9979416,-0.06412923,0.06642486,0.99779143,0,0)" style="color:#000000;display:inline;overflow:visible;visibility:visible;fill:#808080;fill-opacity:1;fill-rule:evenodd;stroke:none;stroke-width:0.132292;stroke-linecap:square;stroke-linejoin:miter;stroke-miterlimit:4;stroke-dasharray:none;stroke-dashoffset:0;stroke-opacity:1;marker:none;marker-start:none;marker-mid:none;marker-end:none;enable-background:accumulate" id="ellipse885"/>
        <path transform="scale(0.26458333)" d="m 189.10938,204.87109 a 2.8451957,3.319949 86.687715 0 0 -0.15821,0.006 2.8451957,3.319949 86.687715 0 0 -3.09375,2.47852 2.8451957,3.319949 86.687715 0 0 1.73047,0.29687 2.8451957,3.319949 86.687715 0 0 3.09375,-2.48046 2.8451957,3.319949 86.687715 0 0 -1.57226,-0.30079 z" style="color:#000000;display:inline;overflow:visible;visibility:visible;fill:#cccccc;fill-rule:evenodd;stroke:none;stroke-width:0.500001;stroke-linecap:square;stroke-linejoin:miter;stroke-miterlimit:4;stroke-dasharray:none;stroke-dashoffset:0;stroke-opacity:1;marker:none;marker-start:none;marker-mid:none;marker-end:none;enable-background:accumulate" id="ellipse887"/>
        <path sodipodi:nodetypes="ssszs" d="m 46.247627,58.351148 c -0.217349,0 -0.393545,-0.151003 -0.393545,-0.337274 0,-0.186271 0.176196,-0.337274 0.393545,-0.337274 0.217349,0 0.393545,0.151003 0.393545,0.337274 0,0.186271 -0.176196,0.337274 -0.393545,0.337274 z" transform="matrix(0.9979416,-0.06412924,0.06642485,0.99779143,0,0)" style="color:#000000;display:inline;overflow:visible;visibility:visible;fill:#ffffff;fill-rule:evenodd;stroke:none;stroke-width:0.132292;stroke-linecap:square;stroke-linejoin:miter;stroke-miterlimit:4;stroke-dasharray:none;stroke-dashoffset:0;stroke-opacity:1;marker:none;marker-start:none;marker-mid:none;marker-end:none;enable-background:accumulate" id="ellipse889"/>
        <g id="g964">
          <path style="font-variation-settings:normal;opacity:1;vector-effect:none;fill:#808080;fill-opacity:1;fill-rule:evenodd;stroke:none;stroke-width:0.264583;stroke-linecap:butt;stroke-linejoin:miter;stroke-miterlimit:4;stroke-dasharray:none;stroke-dashoffset:0;stroke-opacity:1;marker:none;marker-start:none;marker-mid:none;marker-end:none;stop-color:#000000;stop-opacity:1" d="m 58.733348,53.148748 c 0,0 0.407306,0.13577 0.461612,0.51592 0.05431,0.380151 -0.135767,0.59738 -0.135767,0.59738 0,0 0.608142,-0.198183 0.461612,-0.733148 -0.14653,-0.534964 -0.787457,-0.380152 -0.787457,-0.380152 z" id="path961" sodipodi:nodetypes="csczc"/>
          <use height="100%" width="100%" transform="translate(1.3033753,-0.02715365)" id="use966" xlink:href="#path961" y="0" x="0" style="fill:#808080;fill-opacity:1"/>
          <use x="0" y="0" xlink:href="#path961" id="use968" transform="translate(2.8778189,-0.1807579)" width="100%" height="100%" style="fill:#808080;fill-opacity:1"/>
          <use style="stroke-width:0.967768;fill:#808080;fill-opacity:1" height="100%" width="100%" transform="matrix(1,0,0,1.0677204,2.8778189,-5.122642)" id="use970" xlink:href="#path961" y="0" x="0"/>
          <use x="0" y="0" xlink:href="#path961" id="use972" transform="matrix(1,0,0,1.169301,4.4138614,-10.519412)" width="100%" height="100%" style="stroke-width:0.924777;fill:#808080;fill-opacity:1"/>
          <use style="stroke-width:0.924777;fill:#808080;fill-opacity:1" height="100%" width="100%" transform="matrix(1,0,0,1.169301,4.797872,-9.0601716)" id="use974" xlink:href="#path961" y="0" x="0"/>
          <use style="stroke-width:1.05105;fill:#808080;fill-opacity:1" height="100%" width="100%" transform="matrix(0.90510024,0.01415544,-0.01563773,0.99987772,11.633777,-1.8561468)" id="use976" xlink:href="#path961" y="0" x="0"/>
          <use x="0" y="0" xlink:href="#path961" id="use978" transform="matrix(1,0,0,1.169301,5.5274922,-11.17223)" width="100%" height="100%" style="stroke-width:0.924777;fill:#808080;fill-opacity:1"/>
          <use x="0" y="0" xlink:href="#path961" id="use980" transform="matrix(0.90510024,0.01415544,-0.01563773,0.99987772,13.016215,-1.97135)" width="100%" height="100%" style="stroke-width:1.05105;fill:#808080;fill-opacity:1"/>
          <use style="stroke-width:1.05105;fill:#808080;fill-opacity:1" height="100%" width="100%" transform="matrix(0.90510024,0.01415544,-0.01563773,0.99987772,12.555402,-0.74251597)" id="use982" xlink:href="#path961" y="0" x="0"/>
          <use x="0" y="0" xlink:href="#path961" id="use984" transform="matrix(0.90510024,0.01415544,-0.01563773,0.99987772,13.899439,-0.93452129)" width="100%" height="100%" style="stroke-width:1.05105;fill:#808080;fill-opacity:1"/>
          <use style="stroke-width:0.924777;fill:#808080;fill-opacity:1" height="100%" width="100%" transform="matrix(1,0,0,1.169301,7.6011496,-10.634615)" id="use986" xlink:href="#path961" y="0" x="0"/>
          <use x="0" y="0" xlink:href="#path961" id="use988" transform="matrix(1,0,0,1.0677204,-1.307897,-4.3162197)" width="100%" height="100%" style="stroke-width:0.967768;fill:#808080;fill-opacity:1"/>
          <use style="stroke-width:0.967768;fill:#808080;fill-opacity:1" height="100%" width="100%" transform="matrix(1,0,0,1.0677204,-1.3846991,-5.4298505)" id="use990" xlink:href="#path961" y="0" x="0"/>
          <use x="0" y="0" xlink:href="#path961" id="use992" transform="matrix(1,0,0,1.0677204,-2.9591427,-5.0074388)" width="100%" height="100%" style="stroke-width:0.967768;fill:#808080;fill-opacity:1"/>
          <use x="0" y="0" xlink:href="#path961" id="use994" transform="translate(-0.65507893,-1.3327898)" width="100%" height="100%" style="fill:#808080;fill-opacity:1"/>
          <use height="100%" width="100%" transform="translate(-0.23266723,-2.2160143)" id="use996" xlink:href="#path961" y="0" x="0" style="fill:#808080;fill-opacity:1"/>
          <use x="0" y="0" xlink:href="#path961" id="use998" transform="translate(0.34334872,-1.4863941)" width="100%" height="100%" style="fill:#808080;fill-opacity:1"/>
          <use x="0" y="0" xlink:href="#path961" id="use1000" transform="matrix(1,0,0,1.0677204,1.4953806,-4.8538346)" width="100%" height="100%" style="stroke-width:0.967768;fill:#808080;fill-opacity:1"/>
          <use style="stroke-width:0.967768;fill:#808080;fill-opacity:1" height="100%" width="100%" transform="matrix(1,0,0,1.0677204,0.91936465,-6.1210697)" id="use1002" xlink:href="#path961" y="0" x="0"/>
          <use x="0" y="0" xlink:href="#path961" id="use1004" transform="matrix(1,0,0,1.0677204,1.764188,-5.8906633)" width="100%" height="100%" style="stroke-width:0.967768;fill:#808080;fill-opacity:1"/>
          <use style="stroke-width:0.967768;fill:#808080;fill-opacity:1" height="100%" width="100%" transform="matrix(1,0,0,1.0677204,3.4154337,-5.8522622)" id="use1006" xlink:href="#path961" y="0" x="0"/>
          <use x="0" y="0" xlink:href="#path961" id="use1008" transform="matrix(1,0,0,1.0677204,2.5322092,-6.5050803)" width="100%" height="100%" style="stroke-width:0.967768;fill:#808080;fill-opacity:1"/>
          <use style="stroke-width:0.967768;fill:#808080;fill-opacity:1" height="100%" width="100%" transform="matrix(1,0,0,1.0677204,3.9914496,-6.4282782)" id="use1010" xlink:href="#path961" y="0" x="0"/>
          <use x="0" y="0" xlink:href="#path961" id="use1012" transform="matrix(1,0,0,1.0677204,6.6027219,-6.313075)" width="100%" height="100%" style="stroke-width:0.967768;fill:#808080;fill-opacity:1"/>
          <use style="stroke-width:0.967768;fill:#808080;fill-opacity:1" height="100%" width="100%" transform="matrix(1,0,0,1.0677204,5.6810964,-7.0042941)" id="use1014" xlink:href="#path961" y="0" x="0"/>
          <use x="0" y="0" xlink:href="#path961" id="use1016" transform="matrix(1,0,0,1.0677204,4.7210698,-6.3898771)" width="100%" height="100%" style="stroke-width:0.967768;fill:#808080;fill-opacity:1"/>
          <use x="0" y="0" xlink:href="#path961" id="use1018" transform="matrix(1,0,0,1.169301,8.7531815,-10.557813)" width="100%" height="100%" style="stroke-width:0.924777;fill:#808080;fill-opacity:1"/>
          <use x="0" y="0" xlink:href="#path961" id="use1020" transform="matrix(1,0,0,1.169301,7.9851602,-11.748246)" width="100%" height="100%" style="stroke-width:0.924777;fill:#808080;fill-opacity:1"/>
          <use style="stroke-width:0.924777;fill:#808080;fill-opacity:1" height="100%" width="100%" transform="matrix(1,0,0,1.169301,7.1403368,-12.516267)" id="use1022" xlink:href="#path961" y="0" x="0"/>
          <use x="0" y="0" xlink:href="#path961" id="use1024" transform="matrix(0.83793621,0,0,0.97979964,16.014122,-2.8402067)" width="100%" height="100%" style="stroke-width:1.10363;fill:#808080;fill-opacity:1"/>
          <use x="0" y="0" xlink:href="#path961" id="use1026" transform="matrix(0.90510024,0.01271968,-0.01563773,0.89846206,9.828927,1.081996)" width="100%" height="100%" style="stroke-width:1.10878;fill:#808080;fill-opacity:1"/>
          <use style="stroke-width:0.924777;fill:#808080;fill-opacity:1" height="100%" width="100%" transform="matrix(1,0,0,1.169301,9.5212028,-10.44261)" id="use1028" xlink:href="#path961" y="0" x="0"/>
          <use x="0" y="0" xlink:href="#path961" id="use1030" transform="matrix(0.85521173,0,0,0.99999993,17.968556,-0.29596089)" width="100%" height="100%" style="stroke-width:1.08134;fill:#808080;fill-opacity:1"/>
          <use style="stroke-width:1.2036;fill:#808080;fill-opacity:1" height="100%" width="100%" transform="matrix(0.76833877,0,0,0.89841929,23.682106,5.4848201)" id="use1032" xlink:href="#path961" y="0" x="0"/>
          <use x="0" y="0" xlink:href="#path961" id="use1034" transform="matrix(0.82625408,0,0,0.96613972,21.21711,0.88854555)" width="100%" height="100%" style="stroke-width:1.11924;fill:#808080;fill-opacity:1"/>
          <use x="0" y="0" xlink:href="#path961" id="use1036" transform="matrix(1,0,0,1.169301,10.51963,-11.287433)" width="100%" height="100%" style="stroke-width:0.924777;fill:#808080;fill-opacity:1"/>
          <use style="stroke-width:0.924777;fill:#808080;fill-opacity:1" height="100%" width="100%" transform="matrix(1,0,0,1.169301,9.2139938,-11.786647)" id="use1038" xlink:href="#path961" y="0" x="0"/>
          <use x="0" y="0" xlink:href="#path961" id="use1040" transform="matrix(1,0,0,1.169301,9.9820151,-12.324262)" width="100%" height="100%" style="stroke-width:0.924777;fill:#808080;fill-opacity:1"/>
          <use style="stroke-width:1.11924;fill:#808080;fill-opacity:1" height="100%" width="100%" transform="matrix(0.82625408,0,0,0.96613972,21.601121,2.2709838)" id="use1042" xlink:href="#path961" y="0" x="0"/>
          <use style="stroke-width:1.11924;fill:#808080;fill-opacity:1" height="100%" width="100%" transform="matrix(0.82625408,0,0,0.96613972,22.599548,1.5413636)" id="use1044" xlink:href="#path961" y="0" x="0"/>
          <use x="0" y="0" xlink:href="#path961" id="use1046" transform="matrix(0.82625408,0,0,0.96613972,22.714751,0.73494127)" width="100%" height="100%" style="stroke-width:1.11924;fill:#808080;fill-opacity:1"/>
          <use style="stroke-width:0.954916;fill:#808080;fill-opacity:1" height="100%" width="100%" transform="matrix(0.96843769,0,0,1.1323952,13.864618,-9.1905712)" id="use1048" xlink:href="#path961" y="0" x="0"/>
          <use style="stroke-width:0.924777;fill:#808080;fill-opacity:1" height="100%" width="100%" transform="matrix(1,0,0,1.169301,11.326052,-10.941823)" id="use1050" xlink:href="#path961" y="0" x="0"/>
          <use x="0" y="0" xlink:href="#path961" id="use1052" transform="matrix(1,0,0,1.169301,13.591715,-10.634614)" width="100%" height="100%" style="stroke-width:0.924777;fill:#808080;fill-opacity:1"/>
          <use style="stroke-width:1.11924;fill:#808080;fill-opacity:1" height="100%" width="100%" transform="matrix(0.82625408,0,0,0.96613972,23.597975,1.195754)" id="use1054" xlink:href="#path961" y="0" x="0"/>
          <use x="0" y="0" xlink:href="#path961" id="use1056" transform="matrix(0.82625408,0,0,0.96613972,23.981986,2.2325827)" width="100%" height="100%" style="stroke-width:1.11924;fill:#808080;fill-opacity:1"/>
          <use style="stroke-width:0.924777;fill:#808080;fill-opacity:1" height="100%" width="100%" transform="matrix(1,0,0,1.169301,14.743747,-9.9433949)" id="use1069" xlink:href="#path961" y="0" x="0"/>
          <use style="stroke-width:0.924777;fill:#808080;fill-opacity:1" height="100%" width="100%" transform="matrix(1,0,0,1.169301,15.242961,-10.941823)" id="use1071" xlink:href="#path961" y="0" x="0"/>
          <use x="0" y="0" xlink:href="#path961" id="use1073" transform="matrix(1.0947891,0,0,1.280138,10.71251,-16.77801)" width="100%" height="100%" style="stroke-width:0.844708;fill:#808080;fill-opacity:1"/>
          <use x="0" y="0" xlink:href="#path961" id="use1075" transform="matrix(1,0,0,1.169301,14.321335,-11.671443)" width="100%" height="100%" style="stroke-width:0.924777;fill:#808080;fill-opacity:1"/>
          <use style="stroke-width:0.924777;fill:#808080;fill-opacity:1" height="100%" width="100%" transform="matrix(1,0,0,1.169301,13.553314,-12.055454)" id="use1077" xlink:href="#path961" y="0" x="0"/>
          <use x="0" y="0" xlink:href="#path961" id="use1079" transform="matrix(1,0,0,1.169301,12.785293,-12.593069)" width="100%" height="100%" style="stroke-width:0.924777;fill:#808080;fill-opacity:1"/>
          <use style="stroke-width:0.924777;fill:#808080;fill-opacity:1" height="100%" width="100%" transform="matrix(1,0,0,1.169301,12.67009,-11.441037)" id="use1081" xlink:href="#path961" y="0" x="0"/>
          <use x="0" y="0" xlink:href="#path961" id="use1083" transform="matrix(1,0,0,1.169301,11.441256,-12.209058)" width="100%" height="100%" style="stroke-width:0.924777;fill:#808080;fill-opacity:1"/>
          <use style="stroke-width:0.844708;fill:#808080;fill-opacity:1" height="100%" width="100%" transform="matrix(1.0947891,0,0,1.280138,10.789312,-18.23725)" id="use1085" xlink:href="#path961" y="0" x="0"/>
          <use x="0" y="0" xlink:href="#path961" id="use1087" transform="matrix(0.80521257,0,0,0.94153587,26.992799,0.09759399)" width="100%" height="100%" style="stroke-width:1.14849;fill:#808080;fill-opacity:1"/>
          <use style="stroke-width:1.14849;fill:#808080;fill-opacity:1" height="100%" width="100%" transform="matrix(0.80521257,0,0,0.94153587,26.147976,-0.78563047)" id="use1089" xlink:href="#path961" y="0" x="0"/>
          <use x="0" y="0" xlink:href="#path961" id="use1091" transform="matrix(0.80521257,0,0,0.94153587,25.379955,-1.0160369)" width="100%" height="100%" style="stroke-width:1.14849;fill:#808080;fill-opacity:1"/>
          <use style="stroke-width:0.844708;fill:#808080;fill-opacity:1" height="100%" width="100%" transform="matrix(1.0869261,0.13097636,-0.15315079,1.2709438,20.476176,-24.644486)" id="use1093" xlink:href="#path961" y="0" x="0"/>
          <use x="0" y="0" xlink:href="#path961" id="use1095" transform="matrix(1.0947891,0,0,1.280138,12.594162,-16.470801)" width="100%" height="100%" style="stroke-width:0.844708;fill:#808080;fill-opacity:1"/>
          <use style="stroke-width:0.844708;fill:#808080;fill-opacity:1" height="100%" width="100%" transform="matrix(1.0840922,0.15266735,-0.17851409,1.2676301,23.080882,-25.979734)" id="use1097" xlink:href="#path961" y="0" x="0"/>
          <use x="0" y="0" xlink:href="#path961" id="use1099" transform="matrix(1.0840922,0.15266735,-0.17851409,1.2676301,22.27446,-27.054964)" width="100%" height="100%" style="stroke-width:0.844708;fill:#808080;fill-opacity:1"/>
          <use style="stroke-width:0.844708;fill:#808080;fill-opacity:1" height="100%" width="100%" transform="matrix(1.0840922,0.15266735,-0.17851409,1.2676301,24.194513,-24.789301)" id="use1101" xlink:href="#path961" y="0" x="0"/>
          <use style="stroke-width:1.14849;fill:#808080;fill-opacity:1" height="100%" width="100%" transform="matrix(0.77214483,0.22838488,-0.26705067,0.90286972,48.164594,-9.1820999)" id="use1103" xlink:href="#path961" y="0" x="0"/>
          <use x="0" y="0" xlink:href="#path961" id="use1105" transform="matrix(0.77214483,0.22838488,-0.26705067,0.90286972,45.092509,-8.7596882)" width="100%" height="100%" style="stroke-width:1.14849;fill:#808080;fill-opacity:1"/>
          <use style="stroke-width:1.28569;fill:#808080;fill-opacity:1" height="100%" width="100%" transform="matrix(0.68974861,0.20401374,-0.23855347,0.80652374,47.097937,-1.900413)" id="use1107" xlink:href="#path961" y="0" x="0"/>
          <use x="0" y="0" xlink:href="#path961" id="use1109" transform="matrix(0.68974861,0.20401374,-0.23855347,0.80652374,48.902787,-1.3627981)" width="100%" height="100%" style="stroke-width:1.28569;fill:#808080;fill-opacity:1"/>
          <use x="0" y="0" xlink:href="#path961" id="use1111" transform="matrix(1.0840922,0.15266735,-0.17851409,1.2676301,23.925705,-26.517349)" width="100%" height="100%" style="stroke-width:0.844708;fill:#808080;fill-opacity:1"/>
          <use style="stroke-width:0.844708;fill:#808080;fill-opacity:1" height="100%" width="100%" transform="matrix(1.0840922,0.15266735,-0.17851409,1.2676301,26.114566,-25.134911)" id="use1113" xlink:href="#path961" y="0" x="0"/>
          <use x="0" y="0" xlink:href="#path961" id="use1115" transform="matrix(1.0272874,0.14466781,-0.16916022,1.2012082,29.857675,-20.482259)" width="100%" height="100%" style="stroke-width:0.891417;fill:#808080;fill-opacity:1"/>
          <use style="stroke-width:0.891417;fill:#808080;fill-opacity:1" height="100%" width="100%" transform="matrix(1.0272874,0.14466781,-0.16916022,1.2012082,28.936049,-19.79104)" id="use1117" xlink:href="#path961" y="0" x="0"/>
          <use x="0" y="0" xlink:href="#path961" id="use1119" transform="matrix(1.0272874,0.14466781,-0.16916022,1.2012082,30.932904,-19.099821)" width="100%" height="100%" style="stroke-width:0.891417;fill:#808080;fill-opacity:1"/>
          <use style="stroke-width:1.28569;fill:#808080;fill-opacity:1" height="100%" width="100%" transform="matrix(0.68974861,0.20401374,-0.23855347,0.80652374,53.280508,-1.324397)" id="use1121" xlink:href="#path961" y="0" x="0"/>
          <use style="stroke-width:0.891417;fill:#808080;fill-opacity:1" height="100%" width="100%" transform="matrix(1.0272874,0.14466781,-0.16916022,1.2012082,31.316915,-20.213452)" id="use1123" xlink:href="#path961" y="0" x="0"/>
          <use x="0" y="0" xlink:href="#path961" id="use1125" transform="matrix(1.0272874,0.14466781,-0.16916022,1.2012082,30.011279,-21.826297)" width="100%" height="100%" style="stroke-width:0.891417;fill:#808080;fill-opacity:1"/>
          <use style="stroke-width:0.772518;fill:#808080;fill-opacity:1" height="100%" width="100%" transform="matrix(1.1853976,0.16693369,-0.19519574,1.3860866,19.958232,-33.296705)" id="use1127" xlink:href="#path961" y="0" x="0"/>
          <use x="0" y="0" xlink:href="#path961" id="use1129" transform="matrix(0.77214483,0.22838488,-0.26705067,0.90286972,48.779011,-10.410934)" width="100%" height="100%" style="stroke-width:1.14849;fill:#808080;fill-opacity:1"/>
          <use style="stroke-width:1.14849;fill:#808080;fill-opacity:1" height="100%" width="100%" transform="matrix(0.77214483,0.22838488,-0.26705067,0.90286972,49.393428,-11.447763)" id="use1131" xlink:href="#path961" y="0" x="0"/>
          <use x="0" y="0" xlink:href="#path961" id="use1133" transform="matrix(0.77214483,0.22838488,-0.26705067,0.90286972,53.041529,-9.604512)" width="100%" height="100%" style="stroke-width:1.14849;fill:#808080;fill-opacity:1"/>
          <use x="0" y="0" xlink:href="#path961" id="use1135" transform="matrix(1.0090424,0.24100141,-0.2818032,1.1798743,40.246998,-23.732996)" width="100%" height="100%" style="stroke-width:0.891417;fill:#808080;fill-opacity:1"/>
          <use style="stroke-width:0.891417;fill:#808080;fill-opacity:1" height="100%" width="100%" transform="matrix(1.0090424,0.24100141,-0.2818032,1.1798743,40.861415,-24.846627)" id="use1137" xlink:href="#path961" y="0" x="0"/>
          <use x="0" y="0" xlink:href="#path961" id="use1139" transform="matrix(1.0090424,0.24100141,-0.2818032,1.1798743,39.094966,-26.190664)" width="100%" height="100%" style="stroke-width:0.891417;fill:#808080;fill-opacity:1"/>
          <use style="stroke-width:0.891417;fill:#808080;fill-opacity:1" height="100%" width="100%" transform="matrix(1.0090424,0.24100141,-0.2818032,1.1798743,37.866132,-26.459471)" id="use1141" xlink:href="#path961" y="0" x="0"/>
          <use x="0" y="0" xlink:href="#path961" id="use1143" transform="matrix(1.0090424,0.24100141,-0.2818032,1.1798743,41.898244,-24.501017)" width="100%" height="100%" style="stroke-width:0.891417;fill:#808080;fill-opacity:1"/>
          <use style="stroke-width:0.891417;fill:#808080;fill-opacity:1" height="100%" width="100%" transform="matrix(1.0090424,0.24100141,-0.2818032,1.1798743,42.781468,-25.000231)" id="use1145" xlink:href="#path961" y="0" x="0"/>
          <use x="0" y="0" xlink:href="#path961" id="use1147" transform="matrix(1.0090424,0.24100141,-0.2818032,1.1798743,43.434286,-24.078605)" width="100%" height="100%" style="stroke-width:0.891417;fill:#808080;fill-opacity:1"/>
          <use style="stroke-width:1.43795;fill:#808080;fill-opacity:1" height="100%" width="100%" transform="matrix(0.62552666,0.14940185,-0.17469574,0.73142895,61.050285,5.3233687)" id="use1149" xlink:href="#path961" y="0" x="0"/>
          <use x="0" y="0" xlink:href="#path961" id="use1151" transform="matrix(0.62552666,0.14940185,-0.17469574,0.73142895,62.355921,5.9377857)" width="100%" height="100%" style="stroke-width:1.43795;fill:#808080;fill-opacity:1"/>
          <use style="stroke-width:0.891417;fill:#808080;fill-opacity:1" height="100%" width="100%" transform="matrix(1.0090424,0.24100141,-0.2818032,1.1798743,44.778323,-24.462616)" id="use1153" xlink:href="#path961" y="0" x="0"/>
          <use x="0" y="0" xlink:href="#path961" id="use1155" transform="matrix(1.0090424,0.24100141,-0.2818032,1.1798743,44.087104,-25.461044)" width="100%" height="100%" style="stroke-width:0.891417;fill:#808080;fill-opacity:1"/>
          <use style="stroke-width:1.07087;fill:#808080;fill-opacity:1" height="100%" width="100%" transform="matrix(0.83994871,0.20061478,-0.23457908,0.98215288,53.159885,-11.810911)" id="use1157" xlink:href="#path961" y="0" x="0"/>
          <use x="0" y="0" xlink:href="#path961" id="use1159" transform="matrix(0.83994871,0.20061478,-0.23457908,0.98215288,53.6975,-11.196494)" width="100%" height="100%" style="stroke-width:1.07087;fill:#808080;fill-opacity:1"/>
          <use style="stroke-width:1.07087;fill:#808080;fill-opacity:1" height="100%" width="100%" transform="matrix(0.83994871,0.20061478,-0.23457908,0.98215288,54.388719,-10.812483)" id="use1161" xlink:href="#path961" y="0" x="0"/>
          <use x="0" y="0" xlink:href="#path961" id="use1163" transform="matrix(0.83994871,0.20061478,-0.23457908,0.98215288,55.271943,-10.889285)" width="100%" height="100%" style="stroke-width:1.07087;fill:#808080;fill-opacity:1"/>
          <use style="stroke-width:1.07087;fill:#808080;fill-opacity:1" height="100%" width="100%" transform="matrix(0.83994871,0.20061478,-0.23457908,0.98215288,54.887932,-11.849312)" id="use1165" xlink:href="#path961" y="0" x="0"/>
          <use x="0" y="0" xlink:href="#path961" id="use1167" transform="matrix(0.83994871,0.20061478,-0.23457908,0.98215288,54.235114,-12.079718)" width="100%" height="100%" style="stroke-width:1.07087;fill:#808080;fill-opacity:1"/>
          <use style="stroke-width:1.43795;fill:#808080;fill-opacity:1" height="100%" width="100%" transform="matrix(0.62552666,0.14940185,-0.17469574,0.73142895,65.620011,5.7457804)" id="use1169" xlink:href="#path961" y="0" x="0"/>
          <use x="0" y="0" xlink:href="#path961" id="use1171" transform="matrix(0.62552666,0.14940185,-0.17469574,0.73142895,65.888818,5.0929623)" width="100%" height="100%" style="stroke-width:1.43795;fill:#808080;fill-opacity:1"/>
          <use style="stroke-width:1.07087;fill:#808080;fill-opacity:1" height="100%" width="100%" transform="matrix(0.83994871,0.20061478,-0.23457908,0.98215288,57.038392,-10.582076)" id="use1173" xlink:href="#path961" y="0" x="0"/>
          <use x="0" y="0" xlink:href="#path961" id="use1175" transform="matrix(0.83994871,0.20061478,-0.23457908,0.98215288,58.152023,-10.505274)" width="100%" height="100%" style="stroke-width:1.07087;fill:#808080;fill-opacity:1"/>
          <use style="stroke-width:1.07087;fill:#808080;fill-opacity:1" height="100%" width="100%" transform="matrix(0.83994871,0.20061478,-0.23457908,0.98215288,57.69121,-11.196493)" id="use1177" xlink:href="#path961" y="0" x="0"/>
          <use x="0" y="0" xlink:href="#path961" id="use1179" transform="matrix(0.75645472,0.18067293,-0.21126106,0.88452327,62.766648,-4.2603481)" width="100%" height="100%" style="stroke-width:1.18907;fill:#808080;fill-opacity:1"/>
          <use style="stroke-width:1.18907;fill:#808080;fill-opacity:1" height="100%" width="100%" transform="matrix(0.75645472,0.18067293,-0.21126106,0.88452327,62.190632,-4.9515672)" id="use1181" xlink:href="#path961" y="0" x="0"/>
          <use x="0" y="0" xlink:href="#path961" id="use1183" transform="matrix(0.77772483,-0.00324626,0.00379584,0.90939444,50.662578,5.142058)" width="100%" height="100%" style="stroke-width:1.18907;fill:#808080;fill-opacity:1"/>
          <use style="stroke-width:1.18907;fill:#808080;fill-opacity:1" height="100%" width="100%" transform="matrix(0.77772483,-0.00324626,0.00379584,0.90939444,50.278567,4.4124378)" id="use1185" xlink:href="#path961" y="0" x="0"/>
          <use x="0" y="0" xlink:href="#path961" id="use1187" transform="matrix(0.77772483,-0.00324626,0.00379584,0.90939444,51.737807,4.6428442)" width="100%" height="100%" style="stroke-width:1.18907;fill:#808080;fill-opacity:1"/>
          <use style="stroke-width:1.18907;fill:#808080;fill-opacity:1" height="100%" width="100%" transform="matrix(0.77772483,-0.00324626,0.00379584,0.90939444,51.469,5.142058)" id="use1189" xlink:href="#path961" y="0" x="0"/>
          <use x="0" y="0" xlink:href="#path961" id="use1191" transform="matrix(0.67912723,0.07494935,-0.08763835,0.79410415,63.284613,6.8235662)" width="100%" height="100%" style="stroke-width:1.3535;fill:#808080;fill-opacity:1"/>
          <use style="stroke-width:1.3535;fill:#808080;fill-opacity:1" height="100%" width="100%" transform="matrix(0.67912723,0.07494935,-0.08763835,0.79410415,63.015806,6.0171439)" id="use1193" xlink:href="#path961" y="0" x="0"/>
        </g>
        <path sodipodi:nodetypes="ccccccccscsccczcczcccszcsccccccccccccccsccccccscc" id="path910" d="m 56.380859,55.419921 c 0.23092,-0.798943 0.01955,-1.48983 -0.642578,-1.939453 0.238402,-0.653071 0.116178,-1.137106 -0.479493,-1.523438 0.470708,0.815956 0.3204,1.628952 -0.15332,2.149415 0.303961,-0.06812 0.532823,-0.339437 0.532823,-0.339437 0.561672,0.323553 0.562048,1.074848 0.385906,1.561117 -0.437375,1.166334 -1.723062,1.954888 -1.723062,1.954888 0,0 0.829261,-0.136291 1.380506,-0.739421 0.40777,0.983363 0.07432,1.488487 -0.384766,1.97008 -0.46684,0.489725 -0.998047,0.854492 -0.998047,0.854492 0,0 0.814788,-0.08104 1.327174,-0.618545 0.512387,-0.537503 0.935728,-1.551233 0.361139,-2.584987 0.144181,-0.230541 0.249997,-0.361454 0.393718,-0.744711 z m -4.219185,-2.469156 c 0.962748,0.297016 1.164041,0.411042 1.461939,0.916179 0.297898,0.505137 0.01311,0.999266 0.01311,0.999266 0.368117,0.904257 -0.493591,1.752917 -1.213106,2.438666 1.283519,-0.371493 1.990257,-1.602616 1.99104,-2.60432 7.83e-4,-1.001704 -0.936091,-1.945582 -2.252983,-1.749791 z m -0.620652,2.142987 c -0.03087,0.336498 -0.182955,0.73009 -0.744141,1.023438 -1.121738,0.586362 -2.194323,-0.191723 -2.194323,-0.191723 0,0.281082 1.049579,1.187918 2.317364,0.483697 0.624969,-0.347154 0.924557,-0.773333 0.961568,-1.330377 0.03701,-0.557044 -0.28969,-0.75063 -0.28969,-0.75063 0,0 -0.01991,0.429097 -0.05078,0.765595 z m -4.878911,-0.357421 c 0.203654,0.395085 0.65285,0.659717 1.019534,0.657226 -0.302871,-0.228548 -0.571286,-0.443176 -0.773435,-0.754882 z m -0.763645,0.492514 c 0,0 0.679366,0.116928 1.181264,0.605108 -0.290216,-0.726349 -0.949532,-0.818658 -0.949532,-0.818658 z m 2.245096,1.27799 c -0.658006,-0.691766 -2.086568,-0.686854 -2.086568,-0.686854 0,0 1.265664,0.359393 2.086568,0.686854 z m 4.615213,1.276367 c -0.658732,0.02772 -1.506156,-0.0536 -1.506156,-0.0536 0,0 0.644285,0.650411 1.506156,0.0536 z m -2.147483,1.07812 c 0.60551,0.269116 1.566249,0.466919 2.962893,0.08887 -1.400182,0.110717 -2.300157,-0.08425 -2.855466,-0.331051 -0.400731,-0.178103 -0.546875,-0.384766 -0.546875,-0.384766 0,0 0.370415,-0.102885 0.36712,-0.249673 -0.883909,0.05199 -1.77692,-0.400689 -1.77692,-0.400689 -0.04389,0.414394 0.530208,0.536001 0.86492,0.637332 0,0 0.378818,0.370863 0.984328,0.639977 z" style="color:#000000;font-style:normal;font-variant:normal;font-weight:normal;font-stretch:normal;font-size:medium;line-height:normal;font-family:sans-serif;font-variant-ligatures:normal;font-variant-position:normal;font-variant-caps:normal;font-variant-numeric:normal;font-variant-alternates:normal;font-variant-east-asian:normal;font-feature-settings:normal;font-variation-settings:normal;text-indent:0;text-align:start;text-decoration:none;text-decoration-line:none;text-decoration-style:solid;text-decoration-color:#000000;letter-spacing:normal;word-spacing:normal;text-transform:none;writing-mode:lr-tb;direction:ltr;text-orientation:mixed;dominant-baseline:auto;baseline-shift:baseline;text-anchor:start;white-space:normal;shape-padding:0;shape-margin:0;inline-size:0;clip-rule:nonzero;display:inline;overflow:visible;visibility:visible;opacity:1;isolation:auto;mix-blend-mode:normal;color-interpolation:sRGB;color-interpolation-filters:linearRGB;solid-color:#000000;solid-opacity:1;vector-effect:none;fill:#808080;fill-opacity:1;fill-rule:evenodd;stroke:none;stroke-width:0.264583;stroke-linecap:butt;stroke-linejoin:miter;stroke-miterlimit:4;stroke-dasharray:none;stroke-dashoffset:0;stroke-opacity:1;marker:none;color-rendering:auto;image-rendering:auto;shape-rendering:auto;text-rendering:auto;enable-background:accumulate;stop-color:#000000;stop-opacity:1"/>
        <g id="g978">
          <path style="font-variation-settings:normal;opacity:1;vector-effect:none;fill:#ffffff;fill-opacity:1;fill-rule:evenodd;stroke:none;stroke-width:0.264583;stroke-linecap:butt;stroke-linejoin:miter;stroke-miterlimit:4;stroke-dasharray:none;stroke-dashoffset:0;stroke-opacity:1;marker:none;marker-start:none;marker-mid:none;marker-end:none;stop-color:#000000;stop-opacity:1" d="m 59.078126,55.537741 c 0,0 0.464908,0.114945 0.519214,0.598071 0.05431,0.483127 -0.193369,0.816801 -0.193369,0.816801 0,0 0.589519,-0.343646 0.461612,-0.931744 -0.127907,-0.588098 -0.787457,-0.483128 -0.787457,-0.483128 z" id="path961-5" sodipodi:nodetypes="csczc"/>
          <use x="0" y="0" xlink:href="#path961-5" id="use981" transform="translate(2.9184808,0.07680213)" width="100%" height="100%"/>
          <use height="100%" width="100%" transform="rotate(4.4685386,59.573956,121.79088)" id="use983" xlink:href="#path961-5" y="0" x="0"/>
          <use x="0" y="0" xlink:href="#path961-5" id="use985" transform="rotate(4.4685386,81.189291,119.9618)" width="100%" height="100%"/>
          <use height="100%" width="100%" transform="rotate(4.4685386,86.480438,103.98322)" id="use987" xlink:href="#path961-5" y="0" x="0"/>
          <use x="0" y="0" xlink:href="#path961-5" id="use989" transform="rotate(4.4685386,104.40125,95.890845)" width="100%" height="100%"/>
          <use height="100%" width="100%" transform="rotate(4.4685386,78.560864,90.491578)" id="use991" xlink:href="#path961-5" y="0" x="0"/>
          <use x="0" y="0" xlink:href="#path961-5" id="use993" transform="rotate(4.4685386,88.888518,77.273777)" width="100%" height="100%"/>
          <use height="100%" width="100%" transform="matrix(0.83273936,0.06507794,-0.06507794,0.83273936,15.303606,1.9548297)" id="use995" xlink:href="#path961-5" y="0" x="0" style="stroke-width:1.1972"/>
          <use style="stroke-width:1.1972" x="0" y="0" xlink:href="#path961-5" id="use997" transform="matrix(0.83273936,0.06507794,-0.06507794,0.83273936,14.189975,1.8012254)" width="100%" height="100%"/>
          <use height="100%" width="100%" transform="matrix(0.93929325,0.07340504,-0.07340504,0.93929325,8.0886323,-3.5331261)" id="use999" xlink:href="#path961-5" y="0" x="0" style="stroke-width:1.06139"/>
          <use style="stroke-width:1.06139" x="0" y="0" xlink:href="#path961-5" id="use1001" transform="matrix(0.93929325,0.07340504,-0.07340504,0.93929325,6.8981994,-2.6883027)" width="100%" height="100%"/>
          <use height="100%" width="100%" transform="matrix(0.93929325,0.07340504,-0.07340504,0.93929325,8.5110441,-2.0354846)" id="use1003" xlink:href="#path961-5" y="0" x="0" style="stroke-width:1.06139"/>
          <use style="stroke-width:1.16009" x="0" y="0" xlink:href="#path961-5" id="use1005" transform="matrix(0.85937783,0.06715971,-0.06715971,0.85937783,13.914129,3.7317279)" width="100%" height="100%"/>
          <use height="100%" width="100%" transform="matrix(0.85937783,0.06715971,-0.06715971,0.85937783,11.648466,2.9637066)" id="use1007" xlink:href="#path961-5" y="0" x="0" style="stroke-width:1.16009"/>
          <use style="stroke-width:1.16009" x="0" y="0" xlink:href="#path961-5" id="use1009" transform="matrix(0.85937783,0.06715971,-0.06715971,0.85937783,10.957247,4.0005353)" width="100%" height="100%"/>
          <use height="100%" width="100%" transform="matrix(0.85937783,0.06715971,-0.06715971,0.85937783,9.6900119,3.4245193)" id="use1011" xlink:href="#path961-5" y="0" x="0" style="stroke-width:1.16009"/>
          <use style="stroke-width:0.985601" x="0" y="0" xlink:href="#path961-5" id="use1013" transform="matrix(1.0115208,0.07904956,-0.07904956,1.0115208,1.2852256,-7.8723176)" width="100%" height="100%"/>
          <use style="stroke-width:1.16009" x="0" y="0" xlink:href="#path961-5" id="use1031" transform="matrix(0.85937783,0.06715971,-0.06715971,0.85937783,10.803643,1.5044662)" width="100%" height="100%"/>
          <use height="100%" width="100%" transform="matrix(0.85937783,0.06715971,-0.06715971,0.85937783,10.419632,2.3108885)" id="use1033" xlink:href="#path961-5" y="0" x="0" style="stroke-width:1.16009"/>
          <use x="0" y="0" xlink:href="#path961-5" id="use1035" transform="rotate(4.4685386,62.442853,106.89257)" width="100%" height="100%"/>
          <use height="100%" width="100%" transform="rotate(4.4685386,90.700456,136.34862)" id="use1037" xlink:href="#path961-5" y="0" x="0"/>
          <use x="0" y="0" xlink:href="#path961-5" id="use1039" transform="rotate(4.4685386,75.290811,133.00679)" width="100%" height="100%"/>
          <use height="100%" width="100%" transform="rotate(4.4685386,55.701599,136.23546)" id="use1041" xlink:href="#path961-5" y="0" x="0"/>
          <use x="0" y="0" xlink:href="#path961-5" id="use1043" transform="rotate(4.4685386,74.339917,159.1665)" width="100%" height="100%"/>
          <use height="100%" width="100%" transform="rotate(4.4685386,90.388214,153.61158)" id="use1045" xlink:href="#path961-5" y="0" x="0"/>
          <use x="0" y="0" xlink:href="#path961-5" id="use1047" transform="rotate(4.4685386,89.903167,166.44537)" width="100%" height="100%"/>
          <use height="100%" width="100%" transform="matrix(0.84481733,0.06602182,-0.06602182,0.84481733,20.954886,1.6109923)" id="use1049" xlink:href="#path961-5" y="0" x="0" style="stroke-width:1.18009"/>
          <use style="stroke-width:1.18009" x="0" y="0" xlink:href="#path961-5" id="use1051" transform="matrix(0.84481733,0.06602182,-0.06602182,0.84481733,19.764453,0.76616891)" width="100%" height="100%"/>
          <use height="100%" width="100%" transform="matrix(0.84481733,0.06602182,-0.06602182,0.84481733,18.266812,1.4573881)" id="use1053" xlink:href="#path961-5" y="0" x="0" style="stroke-width:1.18009"/>
          <use style="stroke-width:1.18009" x="0" y="0" xlink:href="#path961-5" id="use1055" transform="matrix(0.84481733,0.06602182,-0.06602182,0.84481733,18.689224,0.22855407)" width="100%" height="100%"/>
          <use height="100%" width="100%" transform="matrix(0.84481733,0.06602182,-0.06602182,0.84481733,17.345187,0.76616896)" id="use1057" xlink:href="#path961-5" y="0" x="0" style="stroke-width:1.18009"/>
          <use style="stroke-width:1" x="0" y="0" xlink:href="#path961-5" id="use1059" transform="rotate(4.4685387,113.07877,179.34182)" width="100%" height="100%"/>
          <use height="100%" width="100%" transform="rotate(4.4685387,94.531421,184.00848)" id="use1061" xlink:href="#path961-5" y="0" x="0" style="stroke-width:1"/>
          <use style="stroke-width:1" x="0" y="0" xlink:href="#path961-5" id="use1063" transform="rotate(4.4685387,74.5774,177.88668)" width="100%" height="100%"/>
          <use height="100%" width="100%" transform="rotate(4.4685387,82.458569,190.39406)" id="use1065" xlink:href="#path961-5" y="0" x="0" style="stroke-width:1"/>
          <use style="stroke-width:1" x="0" y="0" xlink:href="#path961-5" id="use1067" transform="rotate(4.4685387,88.882548,203.45117)" width="100%" height="100%"/>
          <use height="100%" width="100%" transform="matrix(0.89553164,0.0699851,-0.0699851,0.89553164,21.481385,-1.5146021)" id="use1070" xlink:href="#path961-5" y="0" x="0" style="stroke-width:1.11326"/>
          <use style="stroke-width:1.11326" x="0" y="0" xlink:href="#path961-5" id="use1072" transform="matrix(0.89553164,0.0699851,-0.0699851,0.89553164,21.519786,-2.7050351)" width="100%" height="100%"/>
          <use height="100%" width="100%" transform="matrix(0.89553164,0.0699851,-0.0699851,0.89553164,22.74862,-1.2073936)" id="use1074" xlink:href="#path961-5" y="0" x="0" style="stroke-width:1.11326"/>
          <use style="stroke-width:1.11326" x="0" y="0" xlink:href="#path961-5" id="use1076" transform="matrix(0.89553164,0.0699851,-0.0699851,0.89553164,22.825422,-2.5130298)" width="100%" height="100%"/>
          <use height="100%" width="100%" transform="matrix(0.89553164,0.0699851,-0.0699851,0.89553164,22.979026,-0.01696068)" id="use1078" xlink:href="#path961-5" y="0" x="0" style="stroke-width:1.11326"/>
          <use style="stroke-width:1.11326" x="0" y="0" xlink:href="#path961-5" id="use1080" transform="matrix(0.89553164,0.0699851,-0.0699851,0.89553164,23.977454,-1.5146022)" width="100%" height="100%"/>
          <use height="100%" width="100%" transform="matrix(0.89553164,0.0699851,-0.0699851,0.89553164,24.361465,-0.20896605)" id="use1082" xlink:href="#path961-5" y="0" x="0" style="stroke-width:1.11326"/>
          <use style="stroke-width:1.11326" x="0" y="0" xlink:href="#path961-5" id="use1084" transform="matrix(0.89553164,0.0699851,-0.0699851,0.89553164,25.206288,-1.3225969)" width="100%" height="100%"/>
          <use height="100%" width="100%" transform="matrix(0.89553164,0.0699851,-0.0699851,0.89553164,25.359892,0.05984138)" id="use1086" xlink:href="#path961-5" y="0" x="0" style="stroke-width:1.11326"/>
          <use style="stroke-width:1.11326" x="0" y="0" xlink:href="#path961-5" id="use1088" transform="matrix(0.89553164,0.0699851,-0.0699851,0.89553164,25.628699,-2.6282331)" width="100%" height="100%"/>
          <use height="100%" width="100%" transform="matrix(0.89553164,0.0699851,-0.0699851,0.89553164,26.473522,-1.1689927)" id="use1090" xlink:href="#path961-5" y="0" x="0" style="stroke-width:1.11326"/>
          <use style="stroke-width:1.11326" x="0" y="0" xlink:href="#path961-5" id="use1092" transform="matrix(0.89553164,0.0699851,-0.0699851,0.89553164,26.319918,0.17504452)" width="100%" height="100%"/>
          <use height="100%" width="100%" transform="matrix(0.89553164,0.0699851,-0.0699851,0.89553164,27.087939,-0.20896611)" id="use1094" xlink:href="#path961-5" y="0" x="0" style="stroke-width:1.11326"/>
          <use style="stroke-width:1.11326" x="0" y="0" xlink:href="#path961-5" id="use1096" transform="matrix(0.89553164,0.0699851,-0.0699851,0.89553164,24.476667,-3.1274469)" width="100%" height="100%"/>
          <use height="100%" width="100%" transform="matrix(0.89553164,0.0699851,-0.0699851,0.89553164,26.665528,-3.0506448)" id="use1098" xlink:href="#path961-5" y="0" x="0" style="stroke-width:1.11326"/>
          <use style="stroke-width:1.11326" x="0" y="0" xlink:href="#path961-5" id="use1100" transform="matrix(0.89553164,0.0699851,-0.0699851,0.89553164,27.587154,-1.7066076)" width="100%" height="100%"/>
          <use height="100%" width="100%" transform="matrix(0.89553164,0.0699851,-0.0699851,0.89553164,28.316774,-1.0537895)" id="use1102" xlink:href="#path961-5" y="0" x="0" style="stroke-width:1.11326"/>
          <use style="stroke-width:1.11326" x="0" y="0" xlink:href="#path961-5" id="use1104" transform="matrix(0.89553164,0.0699851,-0.0699851,0.89553164,28.086368,0.29024772)" width="100%" height="100%"/>
          <use style="stroke-width:1.11326" x="0" y="0" xlink:href="#path961-5" id="use1106" transform="matrix(0.89553164,0.0699851,-0.0699851,0.89553164,29.353603,-0.59297668)" width="100%" height="100%"/>
          <use style="stroke-width:1.11326" x="0" y="0" xlink:href="#path961-5" id="use1108" transform="matrix(0.89553164,0.0699851,-0.0699851,0.89553164,30.35203,-0.32416925)" width="100%" height="100%"/>
          <use height="100%" width="100%" transform="matrix(0.89553164,0.0699851,-0.0699851,0.89553164,31.312056,0.05984133)" id="use1110" xlink:href="#path961-5" y="0" x="0" style="stroke-width:1.11326"/>
          <use style="stroke-width:1.11326" x="0" y="0" xlink:href="#path961-5" id="use1112" transform="matrix(0.89553164,0.0699851,-0.0699851,0.89553164,32.464088,-0.74658099)" width="100%" height="100%"/>
          <use height="100%" width="100%" transform="matrix(0.89553164,0.0699851,-0.0699851,0.89553164,33.923329,-0.01696078)" id="use1114" xlink:href="#path961-5" y="0" x="0" style="stroke-width:1.11326"/>
          <use height="100%" width="100%" transform="matrix(0.89553164,0.0699851,-0.0699851,0.89553164,30.812843,-1.360998)" id="use1116" xlink:href="#path961-5" y="0" x="0" style="stroke-width:1.11326"/>
          <use style="stroke-width:1.11326" x="0" y="0" xlink:href="#path961-5" id="use1118" transform="matrix(0.89553164,0.0699851,-0.0699851,0.89553164,29.929619,-2.589832)" width="100%" height="100%"/>
          <use height="100%" width="100%" transform="matrix(0.89553164,0.0699851,-0.0699851,0.89553164,28.931191,-2.2826235)" id="use1120" xlink:href="#path961-5" y="0" x="0" style="stroke-width:1.11326"/>
          <use style="stroke-width:1.11326" x="0" y="0" xlink:href="#path961-5" id="use1122" transform="matrix(0.89553164,0.0699851,-0.0699851,0.89553164,32.848099,-2.0522171)" width="100%" height="100%"/>
          <use height="100%" width="100%" transform="matrix(0.89553164,0.0699851,-0.0699851,0.89553164,34.153735,-1.6682065)" id="use1124" xlink:href="#path961-5" y="0" x="0" style="stroke-width:1.11326"/>
          <use style="stroke-width:1.11326" x="0" y="0" xlink:href="#path961-5" id="use1126" transform="matrix(0.89553164,0.0699851,-0.0699851,0.89553164,34.960157,-0.63137779)" width="100%" height="100%"/>
          <use height="100%" width="100%" transform="matrix(0.89553164,0.0699851,-0.0699851,0.89553164,35.612975,-2.0522171)" id="use1128" xlink:href="#path961-5" y="0" x="0" style="stroke-width:1.11326"/>
          <use style="stroke-width:1.11326" x="0" y="0" xlink:href="#path961-5" id="use1130" transform="matrix(0.89553164,0.0699851,-0.0699851,0.89553164,29.66081,0.75106053)" width="100%" height="100%"/>
          <use height="100%" width="100%" transform="matrix(0.89553164,0.0699851,-0.0699851,0.89553164,36.380996,-0.55457566)" id="use1132" xlink:href="#path961-5" y="0" x="0" style="stroke-width:1.11326"/>
          <use style="stroke-width:1.11326" x="0" y="0" xlink:href="#path961-5" id="use1134" transform="matrix(0.89553164,0.0699851,-0.0699851,0.89553164,36.380996,0.6358573)" width="100%" height="100%"/>
          <use height="100%" width="100%" transform="matrix(0.89553164,0.0699851,-0.0699851,0.89553164,36.380996,0.6358573)" id="use1136" xlink:href="#path961-5" y="0" x="0" style="stroke-width:1.11326"/>
          <use style="stroke-width:1.11326" x="0" y="0" xlink:href="#path961-5" id="use1138" transform="matrix(0.89553164,0.0699851,-0.0699851,0.89553164,37.110616,-0.13216396)" width="100%" height="100%"/>
          <use height="100%" width="100%" transform="matrix(0.89553164,0.0699851,-0.0699851,0.89553164,37.763434,-0.74658097)" id="use1140" xlink:href="#path961-5" y="0" x="0" style="stroke-width:1.11326"/>
          <use style="stroke-width:1.11326" x="0" y="0" xlink:href="#path961-5" id="use1142" transform="matrix(0.89553164,0.0699851,-0.0699851,0.89553164,38.301049,-0.20896608)" width="100%" height="100%"/>
          <use height="100%" width="100%" transform="matrix(0.89553164,0.0699851,-0.0699851,0.89553164,37.60983,-2.0906182)" id="use1144" xlink:href="#path961-5" y="0" x="0" style="stroke-width:1.11326"/>
          <use height="100%" width="100%" transform="matrix(0.89553164,0.0699851,-0.0699851,0.89553164,39.145872,-0.17056502)" id="use1146" xlink:href="#path961-5" y="0" x="0" style="stroke-width:1.11326"/>
          <use style="stroke-width:1.11326" x="0" y="0" xlink:href="#path961-5" id="use1148" transform="matrix(0.89553164,0.0699851,-0.0699851,0.89553164,40.105898,0.0214403)" width="100%" height="100%"/>
          <use height="100%" width="100%" transform="matrix(0.89553164,0.0699851,-0.0699851,0.89553164,40.451508,-1.399399)" id="use1150" xlink:href="#path961-5" y="0" x="0" style="stroke-width:1.11326"/>
          <use height="100%" width="100%" transform="matrix(0.89553164,0.0699851,-0.0699851,0.89553164,41.065925,-0.28576821)" id="use1152" xlink:href="#path961-5" y="0" x="0" style="stroke-width:1.11326"/>
          <use style="stroke-width:1.11326" x="0" y="0" xlink:href="#path961-5" id="use1154" transform="matrix(0.89553164,0.0699851,-0.0699851,0.89553164,42.640369,-0.59297672)" width="100%" height="100%"/>
          <use height="100%" width="100%" transform="matrix(0.89553164,0.0699851,-0.0699851,0.89553164,43.523593,0.05984136)" id="use1156" xlink:href="#path961-5" y="0" x="0" style="stroke-width:1.11326"/>
          <use style="stroke-width:1.11326" x="0" y="0" xlink:href="#path961-5" id="use1158" transform="matrix(0.89553164,0.0699851,-0.0699851,0.89553164,44.48362,-0.28576821)" width="100%" height="100%"/>
          <use height="100%" width="100%" transform="matrix(0.89553164,0.0699851,-0.0699851,0.89553164,45.290042,-0.05536183)" id="use1160" xlink:href="#path961-5" y="0" x="0" style="stroke-width:1.11326"/>
          <use style="stroke-width:1.11326" x="0" y="0" xlink:href="#path961-5" id="use1162" transform="matrix(0.89553164,0.0699851,-0.0699851,0.89553164,46.326871,-0.09376289)" width="100%" height="100%"/>
          <use height="100%" width="100%" transform="matrix(0.89553164,0.0699851,-0.0699851,0.89553164,47.286898,-0.32416927)" id="use1164" xlink:href="#path961-5" y="0" x="0" style="stroke-width:1.11326"/>
          <use style="stroke-width:1.11326" x="0" y="0" xlink:href="#path961-5" id="use1166" transform="matrix(0.89553164,0.0699851,-0.0699851,0.89553164,49.053347,0.98146688)" width="100%" height="100%"/>
          <use height="100%" width="100%" transform="matrix(0.89553164,0.0699851,-0.0699851,0.89553164,49.859769,-0.24736714)" id="use1168" xlink:href="#path961-5" y="0" x="0" style="stroke-width:1.11326"/>
          <use height="100%" width="100%" transform="matrix(0.89553164,0.0699851,-0.0699851,0.89553164,48.938144,-0.24736715)" id="use1170" xlink:href="#path961-5" y="0" x="0" style="stroke-width:1.11326"/>
          <use x="0" y="0" xlink:href="#path961-5" id="use1172" transform="rotate(4.4685386,57.638803,147.98899)" width="100%" height="100%"/>
          <use height="100%" width="100%" transform="rotate(10.493443,52.708941,94.808728)" id="use1174" xlink:href="#path961-5" y="0" x="0"/>
          <use x="0" y="0" xlink:href="#path961-5" id="use1176" transform="rotate(18.414871,52.981361,76.736031)" width="100%" height="100%"/>
          <use height="100%" width="100%" transform="rotate(18.414871,51.464237,71.876323)" id="use1178" xlink:href="#path961-5" y="0" x="0"/>
          <use x="0" y="0" xlink:href="#path961-5" id="use1180" transform="rotate(18.414871,50.062316,67.727317)" width="100%" height="100%"/>
          <use height="100%" width="100%" transform="rotate(18.414871,49.563102,64.64761)" id="use1182" xlink:href="#path961-5" y="0" x="0"/>
          <use x="0" y="0" xlink:href="#path961-5" id="use1184" transform="rotate(18.414871,48.449471,57.777495)" width="100%" height="100%"/>
          <use height="100%" width="100%" transform="matrix(0.85937783,0.06715971,-0.06715971,0.85937783,9.5181034,5.4125252)" id="use1186" xlink:href="#path961-5" y="0" x="0" style="stroke-width:1.16009"/>
          <use style="stroke-width:1.16009" x="0" y="0" xlink:href="#path961-5" id="use1188" transform="matrix(0.79059234,0.34351774,-0.34351774,0.79059234,28.361915,-5.7271236)" width="100%" height="100%"/>
          <use x="0" y="0" xlink:href="#path961-5" id="use1190" transform="rotate(10.493443,52.830494,103.02081)" width="100%" height="100%"/>
          <use height="100%" width="100%" transform="rotate(10.493443,44.673899,101.45045)" id="use1192" xlink:href="#path961-5" y="0" x="0"/>
          <use x="0" y="0" xlink:href="#path961-5" id="use1194" transform="rotate(10.493443,59.941643,104.68717)" width="100%" height="100%"/>
          <use height="100%" width="100%" transform="rotate(10.493443,60.630745,109.8952)" id="use1196" xlink:href="#path961-5" y="0" x="0"/>
          <use x="0" y="0" xlink:href="#path961-5" id="use1198" transform="rotate(10.493443,50.515545,107.66129)" width="100%" height="100%"/>
          <use height="100%" width="100%" transform="rotate(10.493443,52.365297,114.02785)" id="use1200" xlink:href="#path961-5" y="0" x="0"/>
          <use x="0" y="0" xlink:href="#path961-5" id="use1202" transform="rotate(10.493443,59.440161,117.59522)" width="100%" height="100%"/>
          <use height="100%" width="100%" transform="rotate(10.493443,56.098967,122.54079)" id="use1204" xlink:href="#path961-5" y="0" x="0"/>
          <use x="0" y="0" xlink:href="#path961-5" id="use1206" transform="rotate(10.493443,64.618255,125.76466)" width="100%" height="100%"/>
          <use height="100%" width="100%" transform="rotate(10.493443,68.97496,129.58163)" id="use1208" xlink:href="#path961-5" y="0" x="0"/>
          <use x="0" y="0" xlink:href="#path961-5" id="use1210" transform="rotate(10.493443,65.881257,134.92618)" width="100%" height="100%"/>
          <use height="100%" width="100%" transform="rotate(10.493443,66.209783,140.79988)" id="use1212" xlink:href="#path961-5" y="0" x="0"/>
          <use x="0" y="0" xlink:href="#path961-5" id="use1214" transform="rotate(10.493443,63.323052,143.80605)" width="100%" height="100%"/>
          <use height="100%" width="100%" transform="rotate(10.493443,57.846216,141.5679)" id="use1216" xlink:href="#path961-5" y="0" x="0"/>
          <use x="0" y="0" xlink:href="#path961-5" id="use1218" transform="rotate(10.493443,52.919845,138.4358)" width="100%" height="100%"/>
          <use height="100%" width="100%" transform="rotate(10.493443,56.54693,134.30738)" id="use1220" xlink:href="#path961-5" y="0" x="0"/>
          <use x="0" y="0" xlink:href="#path961-5" id="use1222" transform="rotate(10.493443,58.67199,129.89519)" width="100%" height="100%"/>
          <use height="100%" width="100%" transform="rotate(10.493443,55.266845,127.25595)" id="use1224" xlink:href="#path961-5" y="0" x="0"/>
          <use x="0" y="0" xlink:href="#path961-5" id="use1226" transform="rotate(10.493443,51.39227,130.98539)" width="100%" height="100%"/>
          <use height="100%" width="100%" transform="rotate(10.493443,47.829287,122.03507)" id="use1228" xlink:href="#path961-5" y="0" x="0"/>
          <use x="0" y="0" xlink:href="#path961-5" id="use1230" transform="rotate(10.493443,43.205891,117.61003)" width="100%" height="100%"/>
          <use height="100%" width="100%" transform="rotate(10.493443,42.781363,110.69089)" id="use1232" xlink:href="#path961-5" y="0" x="0"/>
          <use height="100%" width="100%" transform="rotate(10.493443,52.37573,146.2873)" id="use1234" xlink:href="#path961-5" y="0" x="0"/>
          <use x="0" y="0" xlink:href="#path961-5" id="use1236" transform="rotate(10.493443,53.559813,152.29328)" width="100%" height="100%"/>
          <use height="100%" width="100%" transform="rotate(10.493443,61.940464,149.41517)" id="use1238" xlink:href="#path961-5" y="0" x="0"/>
          <use x="0" y="0" xlink:href="#path961-5" id="use1240" transform="rotate(10.493443,70.397917,147.37341)" width="100%" height="100%"/>
          <use height="100%" width="100%" transform="rotate(10.493443,68.921442,154.25627)" id="use1242" xlink:href="#path961-5" y="0" x="0"/>
          <use x="0" y="0" xlink:href="#path961-5" id="use1244" transform="rotate(10.493443,66.988388,160.75935)" width="100%" height="100%"/>
          <use height="100%" width="100%" transform="rotate(10.493443,65.187621,166.40687)" id="use1246" xlink:href="#path961-5" y="0" x="0"/>
          <use x="0" y="0" xlink:href="#path961-5" id="use1248" transform="rotate(10.493443,59.40781,165.46166)" width="100%" height="100%"/>
          <use height="100%" width="100%" transform="rotate(10.493443,57.750064,161.18599)" id="use1250" xlink:href="#path961-5" y="0" x="0"/>
          <use x="0" y="0" xlink:href="#path961-5" id="use1252" transform="rotate(10.493443,63.867019,156.61808)" width="100%" height="100%"/>
          <use height="100%" width="100%" transform="rotate(10.493443,55.179159,156.15077)" id="use1254" xlink:href="#path961-5" y="0" x="0"/>
          <use x="0" y="0" xlink:href="#path961-5" id="use1256" transform="matrix(0.93506162,0.182123,-0.44242944,0.98327576,47.396329,-6.6314682)" width="100%" height="100%"/>
          <use height="100%" width="100%" transform="matrix(0.93506162,0.182123,-0.44242944,0.98327576,46.397901,-6.4394629)" id="use1258" xlink:href="#path961-5" y="0" x="0"/>
          <use x="0" y="0" xlink:href="#path961-5" id="use1260" transform="matrix(0.93506162,0.182123,-0.44242944,0.98327576,45.130666,-6.2474576)" width="100%" height="100%"/>
          <use height="100%" width="100%" transform="matrix(0.93506162,0.182123,-0.44242944,0.98327576,48.356355,-6.7850725)" id="use1262" xlink:href="#path961-5" y="0" x="0"/>
          <use height="100%" width="100%" transform="rotate(10.493443,60.099029,172.98887)" id="use1264" xlink:href="#path961-5" y="0" x="0"/>
          <use x="0" y="0" xlink:href="#path961-5" id="use1266" transform="rotate(10.493443,67.931331,173.3239)" width="100%" height="100%"/>
          <use height="100%" width="100%" transform="rotate(10.493443,69.781083,179.69046)" id="use1268" xlink:href="#path961-5" y="0" x="0"/>
          <use x="0" y="0" xlink:href="#path961-5" id="use1270" transform="rotate(10.493443,72.750966,184.47819)" width="100%" height="100%"/>
          <use height="100%" width="100%" transform="rotate(10.493443,65.927825,185.94816)" id="use1272" xlink:href="#path961-5" y="0" x="0"/>
          <use x="0" y="0" xlink:href="#path961-5" id="use1274" transform="rotate(10.493443,58.58627,181.77273)" width="100%" height="100%"/>
          <use height="100%" width="100%" transform="rotate(10.493443,57.365903,177.66775)" id="use1276" xlink:href="#path961-5" y="0" x="0"/>
          <use height="100%" width="100%" transform="rotate(10.493443,66.732131,192.41073)" id="use1278" xlink:href="#path961-5" y="0" x="0"/>
          <use x="0" y="0" xlink:href="#path961-5" id="use1280" transform="rotate(10.493443,73.041091,189.93371)" width="100%" height="100%"/>
          <use height="100%" width="100%" transform="rotate(10.493443,67.954615,198.83489)" id="use1282" xlink:href="#path961-5" y="0" x="0"/>
          <use x="0" y="0" xlink:href="#path961-5" id="use1284" transform="rotate(10.493443,71.741654,203.33673)" width="100%" height="100%"/>
          <use height="100%" width="100%" transform="rotate(10.493443,73.250029,210.57805)" id="use1286" xlink:href="#path961-5" y="0" x="0"/>
          <use x="0" y="0" xlink:href="#path961-5" id="use1288" transform="rotate(10.493443,76.827979,215.09909)" width="100%" height="100%"/>
          <use height="100%" width="100%" transform="rotate(10.493443,76.394833,219.56676)" id="use1290" xlink:href="#path961-5" y="0" x="0"/>
          <use x="0" y="0" xlink:href="#path961-5" id="use1292" transform="rotate(10.493443,76.932448,225.42126)" width="100%" height="100%"/>
          <use height="100%" width="100%" transform="rotate(10.493443,78.248818,230.57169)" id="use1294" xlink:href="#path961-5" y="0" x="0"/>
          <use x="0" y="0" xlink:href="#path961-5" id="use1296" transform="rotate(10.493443,78.538943,236.02721)" width="100%" height="100%"/>
          <use height="100%" width="100%" transform="matrix(0.87330352,0.16175387,-0.16175387,0.87330352,45.364266,-1.4282324)" id="use1298" xlink:href="#path961-5" y="0" x="0" style="stroke-width:1.12593"/>
          <use style="stroke-width:1.19972" x="0" y="0" xlink:href="#path961-5" id="use1300" transform="matrix(0.85401786,0.14246822,-0.26587645,0.76918094,53.553594,5.3402564)" width="100%" height="100%"/>
          <use height="100%" width="100%" transform="matrix(0.85401786,0.14246822,-0.26587645,0.76918094,55.281642,4.7258394)" id="use1302" xlink:href="#path961-5" y="0" x="0" style="stroke-width:1.19972"/>
          <use style="stroke-width:1.19972" x="0" y="0" xlink:href="#path961-5" id="use1304" transform="matrix(0.85401786,0.14246822,-0.26587645,0.76918094,50.86552,6.1850798)" width="100%" height="100%"/>
          <use height="100%" width="100%" transform="matrix(0.85401786,0.14246822,-0.26587645,0.76918094,48.753462,6.7226947)" id="use1306" xlink:href="#path961-5" y="0" x="0" style="stroke-width:1.19972"/>
          <use height="100%" width="100%" transform="matrix(0.85401786,0.14246822,-0.26587645,0.76918094,49.867092,6.4538872)" id="use1308" xlink:href="#path961-5" y="0" x="0" style="stroke-width:1.19972"/>
          <use style="stroke-width:1.19972" x="0" y="0" xlink:href="#path961-5" id="use1310" transform="matrix(0.85401786,0.14246822,-0.26587645,0.76918094,57.777711,4.2650266)" width="100%" height="100%"/>
          <use height="100%" width="100%" transform="matrix(0.85401786,0.14246822,-0.26587645,0.76918094,58.776139,3.9578181)" id="use1312" xlink:href="#path961-5" y="0" x="0" style="stroke-width:1.19972"/>
          <use style="stroke-width:1.19972" x="0" y="0" xlink:href="#path961-5" id="use1314" transform="matrix(0.85401786,0.14246822,-0.26587645,0.76918094,60.120176,4.2650266)" width="100%" height="100%"/>
          <use height="100%" width="100%" transform="matrix(0.85401786,0.34596643,-0.26587645,0.70582702,61.233807,-4.6378156)" id="use1316" xlink:href="#path961-5" y="0" x="0" style="stroke-width:1.19972"/>
          <use style="stroke-width:1.19972" x="0" y="0" xlink:href="#path961-5" id="use1318" transform="matrix(0.85401786,0.34596643,-0.26587645,0.70582702,62.193834,-4.0617996)" width="100%" height="100%"/>
        </g>
        <path sodipodi:nodetypes="cccccccccccsczc" transform="scale(0.26458333)" d="m 246.81561,219.01838 c -10.58626,-5.05849 -21.42971,-4.26446 -32.15741,-3.24592 8.85334,0.064 17.78117,0.13246 26.29297,2.4834 -11.0227,-0.94643 -23.39258,-0.30567 -23.39258,-0.30567 0,0 14.52116,0.68597 25.53516,1.25684 -9.81991,0.63365 -23.50097,1.20898 -23.50097,1.20898 0,0 15.28509,1.04906 24.20214,-0.58007 -7.12109,1.74463 -15.0143,1.40177 -22.3164,1.59472 0,0 10.73332,1.17749 20.13476,-0.25293 -9.08559,2.18337 -17.16493,1.77905 -25.94061,0.40135 6.05661,2.34578 14.13683,2.17171 20.15332,1.77832 -1.64245,0.41134 -3.52299,0.73891 -5.66601,0.89649 -9.78829,0.71972 -16.22559,-1.66016 -16.22559,-1.66016 0,0 6.25737,3.31406 17.2209,2.50793 10.96353,-0.80612 15.66032,-6.08328 15.66032,-6.08328 z" style="color:#000000;font-style:normal;font-variant:normal;font-weight:normal;font-stretch:normal;font-size:medium;line-height:normal;font-family:sans-serif;font-variant-ligatures:normal;font-variant-position:normal;font-variant-caps:normal;font-variant-numeric:normal;font-variant-alternates:normal;font-variant-east-asian:normal;font-feature-settings:normal;font-variation-settings:normal;text-indent:0;text-align:start;text-decoration:none;text-decoration-line:none;text-decoration-style:solid;text-decoration-color:#000000;letter-spacing:normal;word-spacing:normal;text-transform:none;writing-mode:lr-tb;direction:ltr;text-orientation:mixed;dominant-baseline:auto;baseline-shift:baseline;text-anchor:start;white-space:normal;shape-padding:0;shape-margin:0;inline-size:0;clip-rule:nonzero;display:inline;overflow:visible;visibility:visible;opacity:1;isolation:auto;mix-blend-mode:normal;color-interpolation:sRGB;color-interpolation-filters:linearRGB;solid-color:#000000;solid-opacity:1;vector-effect:none;fill:#808080;fill-opacity:1;fill-rule:evenodd;stroke:none;stroke-width:0.749998;stroke-linecap:butt;stroke-linejoin:miter;stroke-miterlimit:4;stroke-dasharray:none;stroke-dashoffset:0;stroke-opacity:1;marker:none;color-rendering:auto;image-rendering:auto;shape-rendering:auto;text-rendering:auto;enable-background:accumulate;stop-color:#000000;stop-opacity:1" id="path942"/>
        <path sodipodi:nodetypes="czc" id="path915" d="m 56.588209,54.995196 c 0,0 8.785302,0.961381 19.007558,0.434459 10.222256,-0.526922 24.329673,-0.868918 24.329673,-0.868918" style="font-variation-settings:normal;opacity:1;vector-effect:none;fill:none;fill-opacity:1;fill-rule:evenodd;stroke:#808080;stroke-width:0.264583;stroke-linecap:butt;stroke-linejoin:miter;stroke-miterlimit:4;stroke-dasharray:1.05833, 1.05832999999999999;stroke-dashoffset:0;stroke-opacity:1;marker:none;marker-start:none;marker-mid:none;marker-end:none;stop-color:#000000;stop-opacity:1"/>
        <path d="m 71.074315,48.960111 c -0.820628,0.518327 -1.473009,0.197888 -2.12011,0.30672 -0.521322,-0.443856 -1.66899,0.780031 -2.236093,-0.141922 -0.104724,0.889225 -0.814829,-0.294012 -0.304927,0.763916 -0.313634,-0.121912 -0.812074,1.354621 -0.653813,0.14185 -0.408692,-0.424107 -0.478419,0.225604 -1.013232,-0.516647 -0.827385,0.189401 -0.490917,0.870697 -1.44868,0.116792 -0.136616,0.753881 0.999684,0.474764 1.029364,0.901418 0.637001,-0.42835 0.233542,1.458295 0.885682,0.09077 0.483748,0.55015 0.911702,-0.661264 1.203369,0.349364 0.620566,-0.861551 1.032754,0.392399 0.107422,0.361569 0.311084,0.84202 1.143585,-0.550095 1.21018,-0.25309 0.135656,-0.819127 0.173535,-0.676171 -0.391371,-0.44476 -0.474703,-0.931705 1.607411,-1.023399 0.691693,-0.11684 -0.119885,0.52941 0.929822,0.897333 0.185766,1.649656 0.490603,-0.729334 1.400807,-0.391282 1.50005,-0.804821 0.148311,-0.485846 -0.613072,0.05084 -0.465766,-0.671955 -1.150918,1.010184 -0.924055,-1.40792 -0.04932,-0.872003 0.187582,0.788368 1.356629,-0.301263 0.865319,0.67813 -1.002658,0.145474 0.68543,0.571293 -0.106906,1.489775 0.258232,-0.418079 0.974606,0.535946 0.481067,-0.469883 -0.390155,-0.530453 0.560526,-0.958386 0.0036,-1.531094 0.840406,-0.954175 1.135958,0.259054 0.564452,0.760987 0.0709,1.075114 1.443357,-0.594224 0.717185,0.78831 -0.301262,1.165179 0.321202,0.38426 0.46755,-0.164667 0.718698,-0.200556 0.959606,0.559324 1.057171,1.017444 0.462235,-0.623721 0.501457,-1.473132 -0.09116,-1.015975 0.370019,-0.877063 -1.580445,0.116125 -0.689096,-0.819055 0.620976,-0.108066 -1.227108,-1.199274 0.02816,-0.986657 0.838287,-0.966471 0.262286,1.893962 0.788099,0.147018 0.447418,-0.770198 2.199909,0.123479 0.607009,0.400243 -0.666469,0.877217 1.12162,-0.18239 0.346329,1.043726 0.01654,-0.969104 1.975841,-2.315367 2.104627,-1.21718 0.841352,-0.303635 -0.621153,1.609754 0.323638,0.867905 0.265705,-0.794842 0.601975,-0.669689 0.751124,-0.116829 0.940293,-0.770273 0.0728,1.657777 -0.564997,0.927422 -0.613059,0.589117 -0.322244,1.15917 0.07525,0.198603 0.912619,-0.383116 0.776621,1.327566 1.369633,0.330861 -0.954471,-0.01896 -0.08857,-2.299688 0.302837,-0.69301 0.102415,0.359248 0.413934,-0.960473 0.575585,0.22987 -0.01836,-0.839575 0.790782,-0.531182 -0.05277,-1.225351 -0.382624,-0.987034 1.357017,-0.847351 -0.07666,-0.902372 -0.793234,-1.086879 -1.508438,1.608933 -1.507761,0.254155 0.849209,-0.763382 -0.78977,-0.155036 -1.152325,-0.678666 -1.014628,0.300613 -2.460032,-0.272296 -3.25685,0.249264 0.134515,-0.809204 -1.720395,0.191887 -2.060284,-0.42299 z m -2.408935,0.202637 c 0.919655,0.829712 -1.452072,0.969131 0,0 z m 1.072509,0.229004 c 0.552947,0.599905 -0.82905,0.43778 0,0 z m -2.737061,0.141358 c 0.992696,1.277374 -1.017666,0.767401 0,0 z M 80.60117,49.48648 c -0.380875,0.364716 -0.577118,0.0072 -0.434321,0.785645 -0.55006,1.12897 0.568171,-0.761252 0.233126,0.657418 0.04382,1.181044 0.294787,-2.304721 0.70724,-0.526651 -0.126071,0.511235 0.680946,2.025959 0.461272,0.663429 0.280739,-0.288579 0.232214,-1.322791 0.586853,-0.312962 0.39942,0.5472 0.945289,2.010489 1.342459,0.619985 0.579079,0.339309 -0.06831,1.93003 0.606488,0.794668 0.244929,0.305268 -0.02712,-0.709985 0.589216,-0.550038 0.418724,-1.84631 0.980734,2.077479 0.959489,-0.04025 -0.202341,-1.205731 1.080549,1.453761 0.605019,1.365503 0.159486,-0.696381 -0.05039,-1.901286 0.630935,-0.667987 0.748632,0.557088 -0.194461,-2.456871 -0.553561,-0.975021 -0.210797,-0.802797 -0.306287,-0.414901 -0.786863,-0.382526 -0.56732,-0.956316 -1.266471,-0.03693 -1.615053,-0.904491 -0.366237,0.409797 -0.953744,-8.17e-4 -0.680207,0.749814 0.589303,1.248452 -1.205746,-0.06207 -0.2938,-0.64834 -0.414282,-0.461088 -1.838983,0.0076 -2.313741,-0.594937 l -0.04449,-0.03331 z m -18.254394,0.329834 c -0.05462,0.995301 -0.73475,0.140898 -0.714012,0.392407 -0.200355,0.296924 -0.85331,0.120848 -0.402402,0.689801 0.552075,0.470377 0.08987,2.705872 0.701098,0.974118 0.08765,-0.836149 1.083976,-0.70139 0.184504,-1.183666 1.018121,0.423889 1.281731,-0.526991 0.230812,-0.87266 z m -1.758545,0.487304 c -0.664753,0.194088 -0.976233,-0.03812 -1.275107,0.605013 -0.473942,-0.629265 -0.847568,-0.03935 -1.353521,0.101245 -0.791113,-0.735055 -0.462886,1.563154 -0.359267,0.370162 0.584909,-0.357063 1.763629,-0.156814 1.374131,0.959223 -0.229095,-0.894242 1.526817,-2.418716 1.293453,-0.788327 -1.022724,0.300261 -0.08366,0.403258 0.360111,0.156508 0.0076,0.04465 0.42634,-0.253634 0.494932,-0.217042 -0.43803,0.05322 -1.289863,-0.853561 -0.330863,-0.890861 l -0.162597,-0.298584 -0.04126,0.0027 z m 26.808839,0.490968 c -0.117032,0.590064 0.08678,0.811774 0.48294,0.707194 0.34808,0.339501 -0.291232,1.767724 0.192802,1.526105 0.146751,-1.85364 1.023039,0.165452 1.105025,0.882684 -0.25133,-0.805952 -0.162816,-1.53805 0.593075,-1.291551 0.883323,-0.733044 0.809922,0.944863 1.542171,-0.05463 0.682482,0.243023 0.502466,0.661383 1.146767,0.414831 0.96857,-0.08417 1.305714,0.310528 1.192553,1.138523 0.19705,-0.915336 0.785741,-0.706058 1.028659,-0.74085 0.535385,-0.767664 0.794676,0.806884 1.371761,-0.193847 0.45925,-0.05717 1.546799,0.111394 0.834715,0.924319 0.790487,-0.340987 1.138419,-2.291644 1.46656,-0.629395 0.35103,-0.449038 0.682292,0.123576 1.060885,-0.510245 -0.437048,-0.557666 -1.933755,-1.12798 -0.882905,-0.128657 -0.609215,-0.187516 -1.648747,-0.609141 -2.007774,0.104181 -1.187467,-0.41889 -2.641153,0.271634 -3.727326,-0.626646 -0.511289,0.863761 -1.946901,-0.872391 -2.716383,-0.314398 -1.009535,-0.874501 -1.548534,-0.120849 -2.649327,-1.20682 l -0.03419,-7.5e-4 z m -30.356935,0.230468 c -0.607154,-0.1245 -0.602858,0.741109 -1.028846,0.166815 -0.296199,0.483389 -1.054457,0.822124 -1.377129,0.537855 -0.109341,-0.323258 -0.415638,0.515792 -0.884064,0.05778 0.1381,0.492024 -1.206489,1.652439 -0.250346,0.954399 0.06704,-0.562081 0.714382,0.02719 0.981924,-0.754731 0.134042,0.803529 0.8375,-0.84042 1.036,0.22736 0.403838,-0.165652 0.810064,-0.650291 1.347137,-0.716484 0.292154,0.677885 -0.321892,1.665237 0.340973,0.560756 -0.163607,-0.346783 0.175087,-0.766605 -0.165649,-1.033747 z m 31.490723,0.664063 c 0.824172,0.677005 -0.555441,0.759219 0,0 z" style="color:#000000;display:inline;overflow:visible;visibility:visible;fill:#808080;fill-opacity:1;fill-rule:evenodd;stroke:none;stroke-width:0.132292;stroke-linecap:butt;stroke-linejoin:miter;stroke-miterlimit:4;stroke-dasharray:none;stroke-dashoffset:0;stroke-opacity:1;marker:none;marker-start:none;marker-mid:none;marker-end:none;enable-background:accumulate" id="path1195"/>
        <g id="g1649">
          <path id="path1637" d="m 70.27365,61.041409 c 0,0 2.560365,3.625979 4.173209,4.3556 1.612845,0.72962 2.53447,-1.49764 2.227263,-2.649673 C 76.366914,61.595303 74.907674,60.36647 73.909245,59.828855 72.910818,59.29124 72.2964,59.368044 72.2964,59.368044 Z" style="font-variation-settings:normal;opacity:1;vector-effect:none;fill:#cccccc;fill-opacity:1;fill-rule:evenodd;stroke:none;stroke-width:0.264583;stroke-linecap:butt;stroke-linejoin:miter;stroke-miterlimit:4;stroke-dasharray:none;stroke-dashoffset:0;stroke-opacity:1;marker:none;marker-start:none;marker-mid:none;marker-end:none;stop-color:#000000;stop-opacity:1"/>
          <path style="color:#000000;font-style:normal;font-variant:normal;font-weight:normal;font-stretch:normal;font-size:medium;line-height:normal;font-family:sans-serif;font-variant-ligatures:normal;font-variant-position:normal;font-variant-caps:normal;font-variant-numeric:normal;font-variant-alternates:normal;font-variant-east-asian:normal;font-feature-settings:normal;font-variation-settings:normal;text-indent:0;text-align:start;text-decoration:none;text-decoration-line:none;text-decoration-style:solid;text-decoration-color:#000000;letter-spacing:normal;word-spacing:normal;text-transform:none;writing-mode:lr-tb;direction:ltr;text-orientation:mixed;dominant-baseline:auto;baseline-shift:baseline;text-anchor:start;white-space:normal;shape-padding:0;shape-margin:0;inline-size:0;clip-rule:nonzero;display:inline;overflow:visible;visibility:visible;opacity:1;isolation:auto;mix-blend-mode:normal;color-interpolation:sRGB;color-interpolation-filters:linearRGB;solid-color:#000000;solid-opacity:1;vector-effect:none;fill:#666666;fill-opacity:1;fill-rule:evenodd;stroke:none;stroke-linecap:butt;stroke-linejoin:miter;stroke-miterlimit:4;stroke-dasharray:none;stroke-dashoffset:0;stroke-opacity:1;marker:none;color-rendering:auto;image-rendering:auto;shape-rendering:auto;text-rendering:auto;enable-background:accumulate;stop-color:#000000;stop-opacity:1" d="m 74.446193,60.469386 c -0.568985,-0.390643 -1.13904,-0.707001 -1.842679,-0.794581 0.674602,0.379373 1.210077,0.666877 1.811905,1.096766 0.481702,0.344082 1.023344,0.804019 1.682236,1.322179 -0.524083,-0.763396 -1.124334,-1.262457 -1.651462,-1.624364 z m -0.162981,0.962261 c 0.803363,0.642563 1.673176,1.370614 2.160151,1.623044 -0.318769,-0.458329 -1.156978,-1.225307 -1.994144,-1.830082 -0.617342,-0.445973 -1.562335,-1.249241 -2.192169,-1.366915 0.52195,0.452655 1.550789,1.19373 2.026162,1.573953 z M 73.972656,61.625 c -0.811194,-0.731932 -1.704037,-1.530199 -2.029834,-1.620621 0.133625,0.275089 1.04076,1.08387 1.8521,1.815933 0.81134,0.732064 1.733313,1.562853 2.495119,2.040043 C 75.706771,63.186024 74.78385,62.356932 73.972656,61.625 Z m -0.780691,0.463966 c 0.856903,0.840965 1.85709,1.827096 2.752371,2.500878 -0.685211,-0.837994 -1.648948,-1.779703 -2.481695,-2.605213 -1.05442,-1.045256 -1.782866,-1.700851 -2.011469,-1.810803 0.187103,0.378513 0.737005,0.930019 1.740793,1.915138 z m -0.635324,0.375878 c 0.922454,1.032852 2.0393,2.199322 2.964844,2.625 -0.7257,-0.61115 -1.851695,-1.772012 -2.765626,-2.800782 -0.91393,-1.028769 -1.570745,-1.731379 -1.726562,-1.845703 0.06218,0.287878 0.609189,0.993446 1.527344,2.021485 z" id="path1639" sodipodi:nodetypes="scscsscscsscscsscscsscscs"/>
          <path transform="scale(0.26458333)" d="m 267.36719,229.24609 -1.76563,1.46094 c 0,0 9.6757,13.70527 15.77149,16.46289 1.82669,0.82636 3.41398,0.6359 4.71679,-0.13476 -1.57421,-0.64856 -3.69058,-1.70849 -5.77929,-3.34961 -3.43698,-2.70049 -10.68365,-11.62076 -12.94336,-14.43946 z" style="font-variation-settings:normal;opacity:1;vector-effect:none;fill:#ffffff;fill-opacity:1;fill-rule:evenodd;stroke:none;stroke-width:0.999999;stroke-linecap:butt;stroke-linejoin:miter;stroke-miterlimit:4;stroke-dasharray:none;stroke-dashoffset:0;stroke-opacity:1;marker:none;marker-start:none;marker-mid:none;marker-end:none;stop-color:#000000;stop-opacity:1" id="path1641"/>
        </g>
      </g>
      <g id="g2163" transform="translate(0,1.9281596)">
        <path id="path1675" style="color:#000000;display:inline;overflow:visible;visibility:visible;fill:#cccccc;fill-opacity:1;fill-rule:evenodd;stroke:none;stroke-width:0.506618;stroke-linecap:round;stroke-linejoin:miter;stroke-miterlimit:4;stroke-dasharray:none;stroke-dashoffset:0;stroke-opacity:1;marker:none;enable-background:accumulate" d="m 76.266869,46.654952 2.143632,3.79465 4.35808,-0.04088 -2.214447,3.753765 2.214447,3.753766 -4.35808,-0.04089 -2.143633,3.79465 -2.143632,-3.79465 -4.35808,0.04089 2.214447,-3.753766 -2.214447,-3.753766 4.35808,0.04089 z"/>
        <use x="0" y="0" xlink:href="#path1675" id="use1678" transform="translate(-18.350627)" width="100%" height="100%"/>
        <use height="100%" width="100%" transform="matrix(-1,0,0,1,170.87778,0)" id="use1682" xlink:href="#path1675" y="0" x="0"/>
      </g>
      <path sodipodi:nodetypes="ccccccccccccccccccccccssssssssscc" id="path1801" d="m 112.95851,69.348933 -3.66963,4.717023 -3.66962,-4.717023 -3.6691,4.717023 -3.669628,-4.717023 -3.669624,4.717023 -3.669625,-4.717023 -3.669096,4.717023 -3.669627,-4.717023 -3.669625,4.717023 -3.669625,-4.717023 -3.669096,4.717023 -3.669627,-4.717023 -3.669625,4.717023 -3.669624,-4.717023 -3.669097,4.717023 -3.669624,-4.717023 -3.669624,4.717023 -3.66963,-4.717023 -3.66909,4.717023 -3.66963,-4.717023 -1.9e-4,19.554877 c 1.20367,-0.814683 2.42126,-1.583879 3.87263,-1.583879 3.08781,0 5.11789,3.478854 8.2057,3.478854 3.087812,0 5.117893,-3.478854 8.205703,-3.478854 3.087811,0 5.11789,3.478854 8.2057,3.478854 3.087809,0 5.117367,-3.478854 8.205184,-3.478854 3.08782,0 5.117891,3.478854 8.2057,3.478854 3.087812,0 5.117891,-3.478854 8.205703,-3.478854 3.087809,0 5.117885,3.478854 8.205697,3.478854 3.08781,0 5.11789,-3.478854 8.2057,-3.478854 1.45131,0 2.66851,0.769239 3.87212,1.583879 z" style="font-variation-settings:normal;opacity:1;vector-effect:none;fill:#cccccc;fill-opacity:1;fill-rule:evenodd;stroke:none;stroke-width:0.180099;stroke-linecap:butt;stroke-linejoin:miter;stroke-miterlimit:4;stroke-dasharray:none;stroke-dashoffset:0;stroke-opacity:1;marker:none;marker-start:none;marker-mid:none;marker-end:none;stop-color:#000000;stop-opacity:1"/>
    </g>
  </g>
</svg>