<?xml version="1.0" encoding="UTF-8" standalone="no"?>
<!-- Created with Inkscape (http://www.inkscape.org/) -->

<svg
   width="500"
   height="572"
   viewBox="0 0 132.29166 151.34167"
   version="1.1"
   id="svg5"
   xml:space="preserve"
   xmlns="http://www.w3.org/2000/svg"
   xmlns:svg="http://www.w3.org/2000/svg"><defs
     id="defs2" /><path
     style="font-variation-settings:normal;vector-effect:none;fill:#005dbd;fill-opacity:1;stroke:none;stroke-width:0.264583;stroke-linecap:butt;stroke-linejoin:miter;stroke-miterlimit:4;stroke-dasharray:none;stroke-dashoffset:0;stroke-opacity:1;-inkscape-stroke:none;stop-color:#000000"
     d="m 0,0 6.0343,89.942127 c 2.02565,30.040893 24.15533,61.399543 60.111538,61.399543 35.956192,0 58.085872,-31.35865 60.111522,-61.399543 C 128.28302,59.901227 132.29167,0 132.29167,0 Z"
     id="path13630" /><path
     id="path13634"
     style="font-variation-settings:normal;fill:#d9d9d9;fill-opacity:1;stroke:none;stroke-width:0.291042;stroke-linecap:butt;stroke-linejoin:miter;stroke-miterlimit:4;stroke-dasharray:none;stroke-dashoffset:0;stroke-opacity:1;stop-color:#000000"
     d="m 12.029344,95.120287 c -1.75849,0 -3.16732,0.69165 -4.44259,1.6468 4.68184,27.358603 25.819474,53.671783 58.559114,53.671783 32.73963,0 53.877292,-26.31318 58.559122,-53.671783 -1.27526,-0.95515 -2.6841,-1.6468 -4.44259,-1.6468 -5.75028,0 -7.77896,7.356273 -13.52925,7.356273 -5.75027,0 -7.778522,-7.356273 -13.528792,-7.356273 -5.75028,0 -7.77896,7.356273 -13.52925,7.356273 -5.75029,0 -7.77896,-7.356273 -13.52924,-7.356273 -5.75028,0 -7.77896,7.356273 -13.529241,7.356273 -5.750281,0 -7.778958,-7.356273 -13.529242,-7.356273 -5.750282,0 -7.778961,7.356273 -13.529241,7.356273 -5.75028,0 -7.77852,-7.356273 -13.5288,-7.356273 z" /><path
     id="path15215"
     style="font-variation-settings:normal;fill:#d9d9d9;fill-opacity:1;stroke:none;stroke-width:0.132292;stroke-linecap:butt;stroke-linejoin:miter;stroke-miterlimit:4;stroke-dasharray:none;stroke-dashoffset:0;stroke-opacity:1;stop-color:#000000"
     d="m 103.4053,59.097447 c -0.83429,0.92842 -0.92828,2.849 -0.92828,2.849 -0.53092,-1.28842 -1.66835,-1.70507 -1.66835,-1.70507 0.97116,2.44329 -0.0265,5.09757 0.24654,7.7492 -2.408092,3.23998 -2.003242,9.27856 -2.003242,9.27856 0.61206,-1.25667 1.779332,-3.26271 3.655242,-5.03178 3.03383,-2.86103 4.79477,-4.87059 5.44201,-7.33242 0.24789,-0.94305 0.28735,-2.02896 0.15419,-2.68167 -0.54982,0.2401 -0.89646,0.89801 -0.89646,0.89801 0.038,-1.21263 -0.45509,-2.33068 -0.45509,-2.33068 -0.986,0.62527 -1.3838,1.49713 -1.3838,1.49713 -0.0569,-1.06105 -0.49308,-2.21721 -0.49308,-2.21721 -0.79639,0.64421 -1.27071,1.97085 -1.27071,1.97085 0.0474,-1.094 -0.0698,-2.13658 -0.39897,-2.94392 z m 5.1018,1.5607 c 0,0 0.59024,2.06663 -0.057,4.52847 -0.64724,2.46183 -2.40817,4.47137 -5.44201,7.33242 -3.00346,2.83242 -4.190302,6.2715 -4.190302,6.2715 0,0 -3.76208,0.0465 -7.60387,-1.00397 -3.81127,-1.04209 -7.39495,-2.74744 -9.67031,-4.0927 -2.27538,-1.34526 -4.38045,-2.26581 -5.70756,-2.31169 -1.32709,-0.0459 -1.74,0.50301 -1.97187,0.96644 -1.61173,0.30316 -2.65451,0.87152 -2.65451,0.87152 0.18441,0.3455 0.93346,0.55346 2.33197,0.80265 1.63419,0.29119 3.15782,0.45655 6.20195,1.75187 3.06505,1.30422 5.47853,2.0498 9.68799,3.58454 4.20943,1.53474 6.48478,2.51991 9.6703,4.90726 3.185542,2.38737 4.986972,3.24965 6.579722,3.69491 1.59277,0.44525 2.41506,0.37931 3.18558,1.13686 0.82122,0.80737 1.21346,1.2694 1.76334,1.53466 0.54988,0.26526 1.4247,0.1295 1.5928,0.0944 0.2276,-0.0475 0.18965,-0.22706 0.019,-0.40706 -0.10432,-0.11003 -0.36021,-0.46417 -0.64463,-0.99471 -0.28442,-0.53052 -0.41729,-1.8761 1.72534,-2.40661 2.14265,-0.53051 5.66955,-0.34084 5.66955,-0.34084 -0.58812,-1.4481 -3.72583,-2.07018 -5.38501,-2.5863 -1.65496,-0.5148 -2.35127,-1.12734 -2.50296,-1.67682 -0.15169,-0.54946 0.26559,-1.4024 1.42224,-4.66135 1.15665,-3.25895 2.14266,-7.18076 2.25643,-8.18495 0.11376,-1.00421 0.24641,-1.91371 0.85317,-2.70949 0.60679,-0.79579 0.58763,-1.42119 0.58763,-1.42119 -0.77741,-0.0947 -1.61135,0.45475 -1.61135,0.45475 0.34132,-0.77684 0.0946,-1.38322 0.0946,-1.38322 -0.72054,0 -1.64979,0.64414 -1.64979,0.64414 0.56885,-1.04209 0.13298,-2.10286 0.13298,-2.10286 -0.83431,0.17053 -1.02416,0.68212 -1.02416,0.68212 0.0569,-1.44 -0.83417,-2.17924 -0.83417,-2.17924 -0.83431,0.45473 -1.40325,1.93288 -1.40325,1.93288 -0.15169,-2.15999 -1.4218,-2.72846 -1.4218,-2.72846 z m -32.511982,11.67017 c 0.0654,-7.3e-4 0.13713,0.002 0.21076,0.002 0.2618,0 0.43608,0.0514 0.43608,0.20838 0,0.15696 -0.16015,0.27946 -0.42195,0.27947 -0.26181,0 -0.51649,-0.19844 -0.51649,-0.3554 0,-0.11282 0.12445,-0.13192 0.2916,-0.13378 z" /><path
     id="path15276"
     style="font-variation-settings:normal;fill:#d9d9d9;fill-opacity:1;stroke:none;stroke-width:0.132292;stroke-linecap:butt;stroke-linejoin:miter;stroke-miterlimit:4;stroke-dasharray:none;stroke-dashoffset:0;stroke-opacity:1;stop-color:#000000"
     d="m 81.536354,41.084813 c -0.8343,0.928419 -0.92829,2.848998 -0.92829,2.848998 -0.53091,-1.28842 -1.66834,-1.705072 -1.66834,-1.705072 0.97116,2.443292 -0.0265,5.097572 0.24654,7.749202 -2.40809,3.23998 -2.00325,9.27856 -2.00325,9.27856 0.61207,-1.25667 1.77934,-3.26271 3.65525,-5.03178 3.03383,-2.86103 4.79477,-4.8706 5.442,-7.33242 0.2479,-0.94305 0.28736,-2.02896 0.1542,-2.68167 -0.54982,0.2401 -0.89647,0.89801 -0.89647,0.89801 0.038,-1.21263 -0.45508,-2.330677 -0.45508,-2.330677 -0.986,0.625257 -1.3838,1.497127 -1.3838,1.497127 -0.0569,-1.061052 -0.49309,-2.217213 -0.49309,-2.217213 -0.79638,0.644211 -1.2707,1.970853 -1.2707,1.970853 0.0474,-1.093996 -0.0698,-2.136583 -0.39897,-2.943918 z m 5.1018,1.560702 c 0,0 0.59024,2.066626 -0.057,4.528466 -0.64724,2.46183 -2.40817,4.47137 -5.44201,7.33242 -3.00346,2.83241 -4.1903,6.27151 -4.1903,6.27151 0,0 -3.76208,0.0465 -7.60388,-1.00398 -3.81126,-1.04209 -7.39494,-2.74744 -9.6703,-4.0927 -2.275384,-1.34526 -4.380449,-2.26581 -5.707557,-2.31169 -1.327092,-0.0459 -1.740001,0.50301 -1.971875,0.96644 -1.611726,0.30316 -2.654508,0.87152 -2.654508,0.87152 0.184405,0.3455 0.933454,0.55346 2.331972,0.80265 1.634187,0.29119 3.157815,0.45655 6.201951,1.75187 3.065047,1.30422 5.478527,2.0498 9.687977,3.58453 4.20944,1.53475 6.48479,2.51991 9.67031,4.90727 3.18554,2.38737 4.98697,3.24966 6.57971,3.69492 1.59278,0.44525 2.41506,0.3793 3.18559,1.13686 0.82122,0.80737 1.21345,1.2694 1.76334,1.53466 0.54988,0.26526 1.4247,0.1295 1.5928,0.0945 0.2276,-0.0473 0.18964,-0.22706 0.019,-0.40706 -0.10433,-0.11003 -0.36021,-0.46417 -0.64463,-0.9947 -0.28442,-0.53053 -0.41729,-1.8761 1.72534,-2.40662 2.14265,-0.53051 5.66955,-0.34084 5.66955,-0.34084 -0.58812,-1.44809 -3.72583,-2.07018 -5.38501,-2.5863 -1.65496,-0.5148 -2.35127,-1.12733 -2.50296,-1.67682 -0.15169,-0.54947 0.26558,-1.40241 1.42224,-4.66135 1.15665,-3.25895 2.14266,-7.18076 2.25643,-8.18496 0.11376,-1.00421 0.2464,-1.9137 0.85317,-2.70949 0.60678,-0.79579 0.58763,-1.42118 0.58763,-1.42118 -0.77742,-0.0947 -1.61135,0.45474 -1.61135,0.45474 0.34131,-0.77683 0.0945,-1.38322 0.0945,-1.38322 -0.72053,0 -1.64979,0.64415 -1.64979,0.64415 0.56886,-1.0421 0.13299,-2.10286 0.13299,-2.10286 -0.83431,0.17052 -1.02416,0.68211 -1.02416,0.68211 0.0569,-1.43999 -0.83417,-2.17924 -0.83417,-2.17924 -0.83431,0.45474 -1.40325,1.93289 -1.40325,1.93289 -0.15169,-2.159998 -1.42181,-2.72847 -1.42181,-2.72847 z m -32.51198,11.670166 c 0.06541,-7.3e-4 0.137123,0.001 0.210755,0.001 0.261807,0 0.43608,0.0514 0.43608,0.20838 0,0.15696 -0.160149,0.27946 -0.421947,0.27947 -0.261807,0 -0.516492,-0.19844 -0.516492,-0.3554 0,-0.11282 0.124453,-0.13193 0.291604,-0.13378 z" /><path
     id="path15278"
     style="font-variation-settings:normal;fill:#d9d9d9;fill-opacity:1;stroke:none;stroke-width:0.132292;stroke-linecap:butt;stroke-linejoin:miter;stroke-miterlimit:4;stroke-dasharray:none;stroke-dashoffset:0;stroke-opacity:1;stop-color:#000000"
     d="m 59.667411,23.072191 c -0.83429,0.928419 -0.92828,2.848997 -0.92828,2.848997 -0.530914,-1.28842 -1.668343,-1.705071 -1.668343,-1.705071 0.971159,2.443293 -0.0265,5.097569 0.246537,7.749203 -2.408091,3.239982 -2.003244,9.278556 -2.003244,9.278556 0.612062,-1.256669 1.779339,-3.262709 3.65525,-5.031777 3.03382,-2.861035 4.79476,-4.870595 5.442,-7.332424 0.24789,-0.943044 0.28735,-2.028953 0.1542,-2.681667 -0.54982,0.240103 -0.89647,0.898011 -0.89647,0.898011 0.0379,-1.21263 -0.45508,-2.330677 -0.45508,-2.330677 -0.98601,0.625262 -1.38381,1.497126 -1.38381,1.497126 -0.0569,-1.061051 -0.49308,-2.217212 -0.49308,-2.217212 -0.79638,0.644211 -1.2707,1.970854 -1.2707,1.970854 0.0473,-1.093997 -0.0698,-2.136584 -0.39898,-2.943919 z m 5.1018,1.560701 c 0,0 0.59024,2.066625 -0.057,4.528463 -0.64724,2.46183 -2.40817,4.471372 -5.44201,7.332424 -3.003454,2.832414 -4.190301,6.271505 -4.190301,6.271505 0,0 -3.76208,0.04648 -7.603872,-1.003977 -3.811268,-1.04209 -7.394946,-2.74744 -9.670308,-4.092697 -2.275379,-1.345265 -4.380444,-2.265815 -5.707553,-2.311694 -1.327091,-0.04588 -1.740001,0.50301 -1.971874,0.966446 -1.611727,0.303158 -2.654508,0.871518 -2.654508,0.871518 0.184404,0.3455 0.933454,0.553459 2.331971,0.802648 1.634187,0.291189 3.157816,0.45655 6.201951,1.75187 3.065049,1.304222 5.478527,2.0498 9.687981,3.584537 4.209438,1.53474 6.484783,2.51991 9.670309,4.90726 3.185534,2.38737 4.986964,3.24966 6.579714,3.69492 1.59277,0.44525 2.41506,0.3793 3.18558,1.13686 0.82122,0.80737 1.21346,1.2694 1.76334,1.53465 0.54988,0.26526 1.4247,0.12951 1.5928,0.0945 0.2276,-0.0474 0.18965,-0.22705 0.019,-0.40705 -0.10432,-0.11003 -0.36021,-0.46417 -0.64463,-0.9947 -0.28442,-0.53053 -0.41729,-1.8761 1.72534,-2.40662 2.14265,-0.53051 5.66955,-0.34084 5.66955,-0.34084 -0.58811,-1.44809 -3.72583,-2.07018 -5.38501,-2.5863 -1.65496,-0.51481 -2.35127,-1.12734 -2.50296,-1.67681 -0.15169,-0.54947 0.26559,-1.40242 1.42224,-4.661359 1.15665,-3.25895 2.14266,-7.18076 2.25643,-8.184959 0.11376,-1.004207 0.24641,-1.913701 0.85317,-2.709489 0.60678,-0.795788 0.58763,-1.421183 0.58763,-1.421183 -0.77741,-0.09473 -1.61135,0.454747 -1.61135,0.454747 0.34132,-0.776839 0.0945,-1.383223 0.0945,-1.383223 -0.72053,0 -1.64979,0.644147 -1.64979,0.644147 0.56885,-1.042098 0.13299,-2.102861 0.13299,-2.102861 -0.83431,0.170525 -1.02416,0.682116 -1.02416,0.682116 0.0569,-1.439998 -0.83418,-2.179242 -0.83418,-2.179242 -0.8343,0.454735 -1.40324,1.932886 -1.40324,1.932886 -0.15169,-2.159995 -1.42181,-2.728468 -1.42181,-2.728468 z M 32.257237,36.303054 c 0.06541,-7.27e-4 0.137123,0.0014 0.210755,0.0014 0.261807,0 0.43608,0.0514 0.43608,0.208385 0,0.156962 -0.160148,0.279459 -0.421947,0.279468 -0.261807,0 -0.516491,-0.198441 -0.516491,-0.355403 0,-0.112818 0.124452,-0.131921 0.291603,-0.133774 z" /><path
     id="path15280"
     style="font-variation-settings:normal;fill:#d9d9d9;fill-opacity:1;stroke:none;stroke-width:0.132292;stroke-linecap:butt;stroke-linejoin:miter;stroke-miterlimit:4;stroke-dasharray:none;stroke-dashoffset:0;stroke-opacity:1;stop-color:#000000"
     d="M 37.798523,5.059565 C 36.964231,5.987984 36.870242,7.908561 36.870242,7.908561 36.339327,6.620142 35.201898,6.20349 35.201898,6.20349 c 0.971159,2.443293 -0.02651,5.09757 0.246537,7.749203 -2.408091,3.239983 -2.003244,9.278557 -2.003244,9.278557 0.612062,-1.25667 1.779339,-3.26271 3.655249,-5.031777 3.033825,-2.861036 4.794764,-4.870595 5.442001,-7.332425 0.247896,-0.943044 0.287354,-2.028953 0.154198,-2.681666 -0.549819,0.240102 -0.896467,0.89801 -0.896467,0.89801 C 41.838132,7.870762 41.345086,6.752715 41.345086,6.752715 40.359085,7.377977 39.961283,8.249841 39.961283,8.249841 39.904423,7.18879 39.468201,6.032629 39.468201,6.032629 38.671819,6.67684 38.197496,8.003483 38.197496,8.003483 38.244866,6.909486 38.127726,5.866899 37.798523,5.059565 Z m 5.1018,1.560701 c 0,0 0.590243,2.066624 -0.05703,4.528463 -0.647236,2.461829 -2.408168,4.471372 -5.442009,7.332424 -3.003456,2.832414 -4.190303,6.271504 -4.190303,6.271504 0,0 -3.762081,0.04648 -7.603872,-1.003977 -3.811268,-1.042089 -7.394948,-2.747439 -9.67031,-4.092697 -2.275379,-1.345265 -4.380444,-2.265815 -5.707553,-2.311694 -1.327091,-0.04587 -1.74,0.50301 -1.971874,0.966446 -1.611727,0.303159 -2.654508,0.871518 -2.654508,0.871518 0.184405,0.345501 0.933454,0.553459 2.331971,0.802648 1.634187,0.29119 3.157816,0.45655 6.201952,1.75187 3.065049,1.304223 5.478526,2.0498 9.687982,3.584536 4.209438,1.534744 6.484783,2.519908 9.670308,4.907267 3.185535,2.387364 4.986967,3.249655 6.579712,3.694918 1.592772,0.445247 2.41506,0.379299 3.185586,1.136855 0.821219,0.807373 1.213455,1.2694 1.763342,1.534659 0.549879,0.26526 1.424698,0.129503 1.592797,0.09448 0.227599,-0.04733 0.189646,-0.227053 0.01898,-0.407057 -0.104326,-0.110033 -0.360208,-0.464171 -0.644629,-0.994699 -0.284421,-0.530528 -0.417295,-1.876101 1.725338,-2.406621 2.14265,-0.530511 5.669548,-0.340836 5.669548,-0.340836 -0.588114,-1.448095 -3.725829,-2.070185 -5.385007,-2.5863 -1.654964,-0.514808 -2.351268,-1.127338 -2.502961,-1.676819 -0.151692,-0.549469 0.265586,-1.402413 1.422244,-4.661355 1.156649,-3.258949 2.142659,-7.180759 2.256424,-8.184958 0.113765,-1.004208 0.246408,-1.913702 0.85317,-2.70949 0.606787,-0.795788 0.587635,-1.421183 0.587635,-1.421183 -0.777418,-0.09473 -1.61135,0.454747 -1.61135,0.454747 0.341312,-0.776839 0.09455,-1.383223 0.09455,-1.383223 -0.720535,0 -1.649791,0.644147 -1.649791,0.644147 0.568851,-1.042098 0.132986,-2.102861 0.132986,-2.102861 -0.834309,0.170525 -1.02416,0.682117 -1.02416,0.682117 C 46.616351,8.155097 45.725319,7.415853 45.725319,7.415853 44.89101,7.870587 44.322073,9.348738 44.322073,9.348738 44.170381,7.188743 42.900266,6.620271 42.900266,6.620271 Z M 10.388345,18.290427 c 0.06541,-7.27e-4 0.137124,0.0014 0.210756,0.0014 0.261806,0 0.436079,0.0514 0.436079,0.208385 0,0.156962 -0.160148,0.27946 -0.421946,0.279468 -0.261807,0 -0.516492,-0.198441 -0.516492,-0.355403 0,-0.112817 0.124452,-0.131921 0.291603,-0.133774 z" /></svg>
