<?xml version="1.0" encoding="UTF-8" standalone="no"?>
<svg
   xmlns:dc="http://purl.org/dc/elements/1.1/"
   xmlns:cc="http://creativecommons.org/ns#"
   xmlns:rdf="http://www.w3.org/1999/02/22-rdf-syntax-ns#"
   xmlns:svg="http://www.w3.org/2000/svg"
   xmlns="http://www.w3.org/2000/svg"
   width="500"
   height="570"
   viewBox="0 0 132.29166 150.8125"
   version="1.1"
   id="svg847">
  <defs
     id="defs841" />
  <metadata
     id="metadata844">
    <rdf:RDF>
      <cc:Work
         rdf:about="">
        <dc:format>image/svg+xml</dc:format>
        <dc:type
           rdf:resource="http://purl.org/dc/dcmitype/StillImage" />
        <dc:title></dc:title>
      </cc:Work>
    </rdf:RDF>
  </metadata>
  <g
     id="layer1"
     transform="translate(-42.791701,-54.007556)">
    <path
       id="circle911"
       style="opacity:1;fill:#000000;stroke:none;stroke-width:0.264582;stroke-linejoin:round;paint-order:markers stroke fill"
       d="m 175.08337,54.007556 v 84.666664 c 0,36.53134 -29.6145,66.14583 -66.14584,66.14583 -36.531337,0 -66.145829,-29.61449 -66.145829,-66.14583 V 54.007556 Z" />
    <path
       id="path2312"
       style="font-variation-settings:normal;opacity:1;vector-effect:none;fill:#bf9f4f;fill-opacity:1;stroke:none;stroke-width:0.999999;stroke-linecap:butt;stroke-linejoin:miter;stroke-miterlimit:4;stroke-dasharray:none;stroke-dashoffset:0;stroke-opacity:1;stop-color:#000000;stop-opacity:1"
       transform="scale(0.26458333)"
       d="m 460.22852,372.53711 c 8.67393,-8.66477 18.0983,-17.64455 28.41406,-27.17969 32.48712,-30.02875 68.63704,-48.09769 90.66601,-40.27148 20.09925,5.17364 20.88211,23.13295 18.48243,29.67187 12.4652,-2.58727 30.58852,-17.4325 27.40039,-45.30273 -6.7225,-25.85414 -33.04108,-50.52087 -90.12919,-44.77212 -57.08811,5.74876 -90.7444,39.30008 -127.46358,72.70669 17.09665,15.48291 35.3166,34.70771 52.62988,55.14746 z M 287.3563,443.58036 c -40.53237,45.45687 -73.29832,116.97903 -77.64257,140.87248 -3.49578,19.22679 -5.06194,42.18287 11.67689,54.37919 4.64796,2.4482 10.45921,4.1219 17.71485,4.76172 37.12709,3.27394 53.27148,-24.24414 53.27148,-24.24414 -15.0873,-19.69799 -3.78757,-58.33592 9.47071,-80.68555 13.25828,-22.34963 34.97656,-55.17968 34.97656,-55.17968 12.56338,7.03127 25.88254,11.03332 36.9668,11.90039 11.27783,-23.37653 19.31514,-39.57626 34.91015,-62.17774 -13.84497,-18.46587 -30.7765,-37.86011 -51.04687,-58.08398 -21.01517,22.63133 -39.53239,49.6955 -55.00164,73.96158 z" />
    <path
       style="font-variation-settings:normal;vector-effect:none;fill:#bf9f4f;fill-opacity:1;stroke:none;stroke-width:0.264583;stroke-linecap:butt;stroke-linejoin:miter;stroke-miterlimit:4;stroke-dasharray:none;stroke-dashoffset:0;stroke-opacity:1;stop-color:#000000"
       d="m 112.12497,166.53402 c 0.74938,-0.50637 1.65318,-0.8015 2.62568,-0.8015 3.69541,0 5.5419,2.7451 4.75072,6.42648 -0.79119,3.68138 -4.88461,3.96948 -7.70188,2.5209 -0.01,4.67926 1.53472,8.82506 5.87346,12.37121 4.22927,-0.6414 12.20014,-3.99347 13.5599,-16.80311 0.81976,-7.72255 -3.18985,-16.76901 -9.0731,-23.94712 -3.61948,-3.91471 -9.24018,-8.98286 -13.16633,-10.35767 -11.736017,5.51367 -22.949326,21.53216 -21.859764,34.12511 1.085702,12.54834 9.222833,16.22742 13.068524,16.98279 4.6212,-2.98002 6.53401,-8.2229 6.3159,-12.3703 -0.91843,0.43839 -2.39521,0.78837 -3.68811,0.71997 -2.5893,-0.13698 -4.400302,-1.72907 -4.400304,-4.97346 -6e-6,-2.59293 2.101894,-4.6948 4.694824,-4.6948 0.97248,0 1.8763,0.29513 2.62568,0.8015 l 0.56172,-0.83303 c -1.24867,-0.84373 -2.06913,-2.27287 -2.06913,-3.8933 0,-2.59292 2.10189,-4.6948 4.69481,-4.6948 4.71895,0 7.3048,5.20956 2.99536,9.13633 z"
       id="path2256" />
    <path
       id="path972"
       style="font-variation-settings:normal;vector-effect:none;fill:#f9f9f9;fill-opacity:1;stroke:none;stroke-width:0.264583;stroke-linecap:butt;stroke-linejoin:miter;stroke-miterlimit:4;stroke-dasharray:none;stroke-dashoffset:0;stroke-opacity:1;stop-color:#000000"
       d="m 108.93757,135.46408 c -11.736021,5.51367 -23.65504,21.97428 -22.29528,34.78392 1.35976,12.80964 9.330634,16.16171 13.55989,16.80311 -3.633083,-1.03885 -11.415855,-4.57619 -12.501557,-17.12453 -1.089562,-12.59295 9.757241,-28.11891 21.493267,-33.63258 5.04884,3.00145 9.4177,6.37599 12.96613,10.00715 -3.8753,-4.72827 -8.56173,-8.64743 -13.22245,-10.83707 z m 0,21.64881 c 2.59292,0 4.6948,2.10188 4.6948,4.6948 0,1.62043 -0.82046,3.04956 -2.06912,3.8933 l 0.36968,0.54823 c 4.19669,-3.15969 2.55235,-9.13633 -2.99536,-9.13633 z m 5.81308,8.61963 c 2.59292,0 4.6948,2.10188 4.6948,4.6948 0,2.59292 -2.10188,4.69481 -4.6948,4.69481 -1.29319,0 -2.46017,-0.526 -3.30781,-1.37253 -0.5822,4.26296 1.25556,10.09362 6.23011,13.30151 -3.68727,-3.54615 -5.28186,-7.09059 -5.57278,-11.87007 2.81727,1.44858 7.01092,0.65934 7.80211,-3.02204 0.79118,-3.68138 -1.45622,-6.42648 -5.15163,-6.42648 z m 2.9223,21.31859 c 0.16833,-0.0255 0.34448,-0.0569 0.524,-0.0915 -0.17739,0.0318 -0.36027,0.0666 -0.524,0.0915 z M 102.98031,175.8518 c 1.2929,0.0684 2.61934,-0.48203 3.53777,-1.17099 -0.0167,-0.31713 -0.0444,-0.6284 -0.0858,-0.93121 -0.84764,0.84653 -2.01462,1.37253 -3.30781,1.37253 -2.59292,0 -4.694801,-2.10189 -4.694794,-4.69481 1.3e-5,3.59518 1.961334,5.2875 4.550634,5.42448 z" />
    <path
       id="path2361"
       style="color:#000000;font-style:normal;font-variant:normal;font-weight:normal;font-stretch:normal;font-size:medium;line-height:normal;font-family:sans-serif;font-variant-ligatures:normal;font-variant-position:normal;font-variant-caps:normal;font-variant-numeric:normal;font-variant-alternates:normal;font-variant-east-asian:normal;font-feature-settings:normal;font-variation-settings:normal;text-indent:0;text-align:start;text-decoration:none;text-decoration-line:none;text-decoration-style:solid;text-decoration-color:#000000;letter-spacing:normal;word-spacing:normal;text-transform:none;writing-mode:lr-tb;direction:ltr;text-orientation:mixed;dominant-baseline:auto;baseline-shift:baseline;text-anchor:start;white-space:normal;shape-padding:0;shape-margin:0;inline-size:0;clip-rule:nonzero;display:inline;overflow:visible;visibility:visible;opacity:1;isolation:auto;mix-blend-mode:normal;color-interpolation:sRGB;color-interpolation-filters:linearRGB;solid-color:#000000;solid-opacity:1;vector-effect:none;fill:#ffffff;fill-opacity:1;fill-rule:nonzero;stroke:none;stroke-width:3.77953;stroke-linecap:butt;stroke-linejoin:miter;stroke-miterlimit:4;stroke-dasharray:none;stroke-dashoffset:0;stroke-opacity:1;color-rendering:auto;image-rendering:auto;shape-rendering:auto;text-rendering:auto;enable-background:accumulate;stop-color:#000000;stop-opacity:1"
       d="m 548.25391,242.47656 c -10.78558,0.14613 -22.60818,1.48893 -35.41016,4.25391 -32.90678,7.10723 -70.39408,33.95161 -106.51367,69.5 0.84648,0.76706 1.69131,1.54037 2.53711,2.31836 35.45063,-34.56579 72.13738,-60.54097 104.51172,-67.53321 68.2772,-14.74655 101.75309,7.77053 111.8125,38.43946 -2.95006,-25.78904 -30.20001,-47.61174 -76.9375,-46.97852 z m 31.05468,62.60938 c 22.02902,7.8262 18.44102,23.5108 13.6875,30.04687 1.44012,0.11157 3.06248,-0.0122 4.79297,-0.37109 4.75351,-6.53607 3.54855,-24.50123 -18.48047,-29.67578 z M 355.4043,372.86328 c -19.68704,24.43232 -37.89797,50.0424 -53.40039,74.58789 0,0 -7.22867,-2.98324 -15.1836,-6.01367 -40.53237,45.45687 -75.50705,118.819 -80.05273,143.82031 -3.66055,20.13305 -4.5319,43.5466 14.65625,53.61133 -15.43815,-17.029 -12.26201,-34.90754 -8.76367,-54.14844 4.34425,-23.89345 35.2352,-94.07633 75.76757,-139.5332 7.95493,3.03043 13.68608,4.78382 23.36133,9.80273 9.67525,5.01895 20.70186,12.20037 25.03516,28.49415 0,0 3.08594,-0.61025 3.08594,-4.55665 0,-3.94643 -5.48215,-13.14545 -16.875,-20.89257 -11.39286,-7.74717 -18.27149,-9.49219 -18.27149,-9.49219 15.47134,-24.26936 33.48741,-49.45615 52.89844,-73.42969 -0.75196,-0.75018 -1.49658,-1.49753 -2.25781,-2.25 z m -61.44336,78.56445 c -6.53349,5.6815 -30.50415,41.57242 -50.60938,79.78125 -20.72348,39.38378 -27.22197,79.73428 -16.0664,102.15625 -8.27453,-32.55424 -0.11155,-60.82399 18.7832,-100.88085 18.84692,-39.95551 47.89258,-81.05665 47.89258,-81.05665 z"
       transform="scale(0.26458333)" />
    <path
       style="font-variation-settings:normal;opacity:1;vector-effect:none;fill:#bf9f4f;fill-opacity:1;stroke:none;stroke-width:0.999999;stroke-linecap:butt;stroke-linejoin:miter;stroke-miterlimit:4;stroke-dasharray:none;stroke-dashoffset:0;stroke-opacity:1;stop-color:#000000;stop-opacity:1"
       d="m 521.46094,447.45117 c -11.33697,-17.95019 -24.13438,-36.4684 -37.88477,-54.68164 -70.30791,-81.59778 -114.78588,-131.0279 -175.94726,-144.23759 -11.47567,-2.47852 -22.22783,-3.70409 -32.14649,-3.86914 -42.98085,-0.7152 -72.71604,21.1263 -75.38727,44.47782 -3.28768,28.74036 18.82778,44.49677 30.3736,45.99219 -4.75351,-6.53607 -8.3415,-22.22067 13.6875,-30.04687 22.029,-7.82621 58.17891,10.24273 90.66602,40.27148 48.58247,40.76967 88.69933,90.27903 118.10546,149.68164 10.38402,-1.3265 22.3541,-5.19757 33.71289,-11.55468 0,0 21.68052,25.85516 34.9388,50.47765 13.25828,24.62248 28.9076,57.41934 13.28455,85.15306 0,0 13.97349,24.53836 49.49345,24.47866 37.12709,-3.27394 36.88552,-33.33467 32.33985,-58.33594 -4.38911,-24.14016 -37.15044,-93.36156 -75.88868,-139.02148 z"
       transform="scale(0.26458333)"
       id="path2511" />
    <path
       id="path2337"
       style="color:#000000;font-style:normal;font-variant:normal;font-weight:normal;font-stretch:normal;font-size:medium;line-height:normal;font-family:sans-serif;font-variant-ligatures:normal;font-variant-position:normal;font-variant-caps:normal;font-variant-numeric:normal;font-variant-alternates:normal;font-variant-east-asian:normal;font-feature-settings:normal;font-variation-settings:normal;text-indent:0;text-align:start;text-decoration:none;text-decoration-line:none;text-decoration-style:solid;text-decoration-color:#000000;letter-spacing:normal;word-spacing:normal;text-transform:none;writing-mode:lr-tb;direction:ltr;text-orientation:mixed;dominant-baseline:auto;baseline-shift:baseline;text-anchor:start;white-space:normal;shape-padding:0;shape-margin:0;inline-size:0;clip-rule:nonzero;display:inline;overflow:visible;visibility:visible;opacity:1;isolation:auto;mix-blend-mode:normal;color-interpolation:sRGB;color-interpolation-filters:linearRGB;solid-color:#000000;solid-opacity:1;vector-effect:none;fill:#ffffff;fill-opacity:1;fill-rule:nonzero;stroke:none;stroke-width:3.77953;stroke-linecap:butt;stroke-linejoin:miter;stroke-miterlimit:4;stroke-dasharray:none;stroke-dashoffset:0;stroke-opacity:1;color-rendering:auto;image-rendering:auto;shape-rendering:auto;text-rendering:auto;enable-background:accumulate;stop-color:#000000;stop-opacity:1"
       d="m 275.21094,242.47656 c -46.7375,-0.63322 -73.98744,21.18948 -76.9375,46.97852 -3.63085,31.74035 20.38164,46.59302 32.19531,45.67773 -10.20653,-2.83471 -31.25057,-17.25183 -27.96289,-45.99219 3.28767,-28.74034 43.91947,-51.17582 105.12305,-37.95703 61.20357,13.2188 106.23337,61.65861 176.08789,141.74805 C 431.28738,323.4488 364.75103,258.42149 310.62109,246.73047 c -12.80196,-2.76498 -24.62458,-4.10778 -35.41015,-4.25391 z m 59.61133,102.88086 c 32.48711,30.02875 56.20422,54.58232 75.10742,80.96289 18.90323,26.38058 27.35065,43.37542 39.74414,69.06446 1.06276,-0.0831 2.1527,-0.20473 3.2539,-0.34571 -25.78306,-59.607 -68.14684,-109.60004 -118.10546,-149.68164 z m 201.82031,96.08008 c -8.22278,2.76257 -15.18164,6.01367 -15.18164,6.01367 -15.08255,8.1394 -28.7163,21.40572 -34.82032,36.03321 0,0 21.71829,32.83005 34.97657,55.17968 13.25828,22.34963 24.55801,60.98756 9.4707,80.68555 0,0 16.14244,27.51808 53.26953,24.24414 -35.51996,0.0597 -46.8418,-25.04687 -46.8418,-25.04687 11.33734,-22.37658 2.24657,-55.79549 -11.01171,-80.41797 -13.25828,-24.62249 -33.97071,-55.17969 -33.97071,-55.17969 0,0 3.3583,-10.85955 21.63477,-23.96094 10.17316,-7.29256 19.93219,-10.93974 26.64062,-12.75195 -1.3819,-1.62879 -2.76993,-3.23312 -4.16601,-4.79883 z m -33.76563,41.91211 c 8.5318,11.02632 26.977,36.65776 36.61328,62.73242 12.81211,34.6681 9.8887,57.68455 2.07422,72.94141 9.61059,-11.25967 12.75458,-38.60305 -0.20507,-73.66992 -7.72819,-20.9116 -21.19598,-41.59323 -30.78321,-54.90235 -6.08095,-8.44164 -10.47936,-13.35154 -13.16336,-13.54576 0.98145,1.20119 2.25517,2.29241 5.46414,6.4442 z"
       transform="scale(0.26458333)" />
  </g>
</svg>
