<?xml version="1.0" encoding="UTF-8" standalone="no"?>
<svg
   xmlns:dc="http://purl.org/dc/elements/1.1/"
   xmlns:cc="http://creativecommons.org/ns#"
   xmlns:rdf="http://www.w3.org/1999/02/22-rdf-syntax-ns#"
   xmlns:svg="http://www.w3.org/2000/svg"
   xmlns="http://www.w3.org/2000/svg"
   xmlns:sodipodi="http://sodipodi.sourceforge.net/DTD/sodipodi-0.dtd"
   xmlns:inkscape="http://www.inkscape.org/namespaces/inkscape"
   width="500"
   height="570"
   viewBox="0 0 132.29166 150.8125"
   version="1.1"
   id="svg847"
   sodipodi:docname="simo.svg"
   inkscape:version="1.0.2 (e86c870879, 2021-01-15, custom)">
  <defs
     id="defs841" />
  <sodipodi:namedview
     id="base"
     pagecolor="#ffffff"
     bordercolor="#666666"
     borderopacity="1.0"
     inkscape:pageopacity="0.0"
     inkscape:pageshadow="2"
     inkscape:zoom="0.49497475"
     inkscape:cx="198.2145"
     inkscape:cy="-0.13756579"
     inkscape:document-units="px"
     inkscape:current-layer="layer1"
     inkscape:document-rotation="0"
     showgrid="false"
     inkscape:snap-smooth-nodes="true"
     inkscape:showpageshadow="false"
     borderlayer="true"
     units="px"
     inkscape:window-width="1920"
     inkscape:window-height="1017"
     inkscape:window-x="-8"
     inkscape:window-y="-4"
     inkscape:window-maximized="1"
     showguides="false"
     inkscape:snap-global="true" />
  <metadata
     id="metadata844">
    <rdf:RDF>
      <cc:Work
         rdf:about="">
        <dc:format>image/svg+xml</dc:format>
        <dc:type
           rdf:resource="http://purl.org/dc/dcmitype/StillImage" />
        <dc:title></dc:title>
      </cc:Work>
    </rdf:RDF>
  </metadata>
  <g
     inkscape:label="Layer 1"
     inkscape:groupmode="layer"
     id="layer1"
     transform="translate(-42.084883,-50.38832)">
    <path
       style="font-variation-settings:normal;vector-effect:none;fill:#0556c7;fill-opacity:1;stroke:none;stroke-width:0.264583;stroke-linecap:butt;stroke-linejoin:miter;stroke-miterlimit:4;stroke-dasharray:none;stroke-dashoffset:0;stroke-opacity:1;stop-color:#000000"
       d="m 42.084883,50.38832 v 85.87107 c 0,36.17717 30.176808,64.94143 66.145837,64.94143 35.96904,0 66.14583,-28.76426 66.14583,-64.94143 V 50.38832 Z"
       id="path1862"
       sodipodi:nodetypes="cszscc" />
    <g
       id="g2090"
       transform="matrix(0,0.9426541,-0.9428062,0,222.42013,18.750024)"
       style="stroke-width:1.06075">
      <path
         id="path2074"
         style="font-variation-settings:normal;opacity:1;vector-effect:none;fill:#ffffff;fill-opacity:1;stroke:none;stroke-width:1.02454;stroke-linecap:butt;stroke-linejoin:miter;stroke-miterlimit:4;stroke-dasharray:none;stroke-dashoffset:0;stroke-opacity:1;stop-color:#000000;stop-opacity:1"
         d="m 658.29297,389.14453 c -13.71715,2.06954 -24.3082,1.98819 -62.20313,17.56055 -37.89493,15.57232 -60.61442,33.12032 -91.38867,25.39648 -30.77423,-7.72381 -41.50168,-10.27734 -50.0332,-10.27734 v 101.8789 l 2.92773,-4.75585 194.48828,-124.11133 z"
         transform="matrix(0,-0.27391117,0.27395536,0,-18.609898,234.83701)" />
      <path
         id="path2197"
         style="font-variation-settings:normal;opacity:1;vector-effect:none;fill:#666666;fill-opacity:1;stroke:none;stroke-width:1.02454;stroke-linecap:butt;stroke-linejoin:miter;stroke-miterlimit:4;stroke-dasharray:none;stroke-dashoffset:0;stroke-opacity:1;stop-color:#000000;stop-opacity:1"
         d="m 658.29297,389.14453 -6.20899,5.69141 -194.48828,124.11133 -2.92773,4.75585 c 8.53152,0 19.25897,-2.55353 50.0332,-10.27734 30.77425,-7.72385 53.49374,9.82218 91.38867,25.39453 37.89493,15.57236 48.48598,15.49102 62.20313,17.56055 -3.86893,-22.03965 -8.78125,-51.87994 -8.78125,-83.61719 0,-31.73725 4.91232,-61.57953 8.78125,-83.61914 z"
         transform="matrix(0,-0.27391117,0.27395536,0,-18.609898,234.83701)" />
      <path
         style="font-variation-settings:normal;opacity:1;vector-effect:none;fill:#cccccc;fill-opacity:1;stroke:none;stroke-width:0.280656;stroke-linecap:butt;stroke-linejoin:miter;stroke-miterlimit:4;stroke-dasharray:none;stroke-dashoffset:0;stroke-opacity:1;stop-color:#000000;stop-opacity:1"
         d="m 98.253834,109.49636 c 0.4009,-3.33914 1.63302,-7.5001 3.416916,-14.60659 1.7839,-7.106493 -3.716716,-14.155324 -7.656606,-23.741419 -3.9399,-9.586094 -4.19021,-11.969004 -4.4565,-14.924475 6.03787,1.059742 12.653886,2.063543 21.348476,2.063543 8.69459,0 15.3106,-1.003801 21.34848,-2.063543 -0.26629,2.955471 -0.51661,5.338381 -4.4565,14.924475 -3.93989,9.586095 -9.44051,16.634926 -7.65661,23.741419 1.7839,7.10649 3.01602,11.26745 3.41692,14.60659 z"
         id="path2076"
         sodipodi:nodetypes="czzczczzcc" />
      <path
         id="path2078"
         style="font-variation-settings:normal;opacity:1;vector-effect:none;fill:#ffffff;fill-opacity:1;stroke:none;stroke-width:0.280656;stroke-linecap:butt;stroke-linejoin:miter;stroke-miterlimit:4;stroke-dasharray:none;stroke-dashoffset:0;stroke-opacity:1;stop-color:#000000;stop-opacity:1"
         d="m 110.25093,78.808034 c -0.0658,-11.933692 0.0181,-17.016408 0.65519,-20.520615 v 20.520617 z m 3.31864,0.177725 c 1.11199,-8.71988 1.72771,-13.456716 2.6839,-20.701272 -0.2255,7.108543 -1.01086,12.873559 -2.04318,20.783879 z m 2.88589,0.817013 c 2.44087,-9.205833 3.51505,-14.345695 5.58389,-21.991036 -1.12841,7.566734 -2.74714,13.935334 -4.99121,22.284343 z m 2.69789,1.736665 c 3.90261,-10.072837 5.8626,-15.940591 8.77333,-24.276045 -2.10327,8.368371 -4.70896,15.497422 -8.28656,24.62966 z m -12.15233,-2.365928 c -1.08558,-7.159169 -1.9688,-13.678652 -1.44225,-20.889022 0.2255,7.108543 1.01086,12.873559 2.04318,20.783879 z m -5.40519,3.145504 C 98.118453,74.08881 95.237143,65.882328 93.885568,57.263392 c 2.103271,8.368371 4.708958,15.497422 8.286552,24.62966 z m 2.57117,-1.851146 c -2.22235,-7.542419 -3.77503,-13.918756 -4.394107,-22.656131 1.128407,7.566734 2.747137,13.935334 4.991207,22.284343 z" />
      <path
         id="path2080"
         style="font-variation-settings:normal;opacity:1;vector-effect:none;fill:#666666;fill-opacity:1;stroke:none;stroke-width:0.280656;stroke-linecap:butt;stroke-linejoin:miter;stroke-miterlimit:4;stroke-dasharray:none;stroke-dashoffset:0;stroke-opacity:1;stop-color:#000000;stop-opacity:1"
         d="m 111.56131,78.808034 c 0.0658,-11.933692 -0.0181,-17.016408 -0.65519,-20.520615 v 20.520617 z m 3.24991,0.365475 c 1.08558,-7.159169 1.9688,-13.678652 1.44225,-20.889022 -0.2255,7.108543 -1.01086,12.873559 -2.04318,20.783879 z m 5.40519,3.145504 c 3.47738,-8.230203 6.35869,-16.436685 7.71027,-25.055621 -2.10327,8.368371 -4.70896,15.497422 -8.28656,24.62966 z m -2.57117,-1.851146 c 2.22235,-7.542419 3.77503,-13.918756 4.39411,-22.656131 -1.12841,7.566734 -2.74714,13.935334 -4.99121,22.284343 z m -9.40257,-1.482108 c -1.11199,-8.71988 -1.72771,-13.456716 -2.6839,-20.701272 0.2255,7.108543 1.01086,12.873559 2.04318,20.783879 z m -2.88589,0.817013 c -2.44087,-9.205833 -3.51505,-14.345695 -5.583887,-21.991036 1.128407,7.566734 2.747137,13.935334 4.991207,22.284343 z m -2.69789,1.736665 C 98.756288,71.4666 96.796295,65.598846 93.885568,57.263392 c 2.103271,8.368371 4.708958,15.497422 8.286552,24.62966 z" />
      <path
         style="font-variation-settings:normal;opacity:1;vector-effect:none;fill:#ffffff;fill-opacity:1;stroke:none;stroke-width:0.280656;stroke-linecap:butt;stroke-linejoin:miter;stroke-miterlimit:4;stroke-dasharray:none;stroke-dashoffset:0;stroke-opacity:1;stop-color:#000000;stop-opacity:1"
         d="m 98.004393,107.94348 c 0,0 0.902034,-2.10474 2.655987,-0.85192 0,0 1.15261,-2.50565 4.00905,-0.85192 0,0 1.10249,-1.35305 2.7061,-0.15034 0,0 -2.00452,-0.20045 -2.7061,1.00226 0,0 -1.20271,-0.70158 -2.25509,-0.60136 -1.05237,0.10023 -1.40316,0.85192 -1.40316,0.85192 0,0 0.30067,0.30068 0.35079,0.7517 0,0 -1.904301,-1.05238 -3.357577,-0.15034 z m 2.706107,1.25283 c 0,0 1.60361,-0.60136 3.50791,-0.57631 -2.40542,-1.22776 -3.50791,0.57631 -3.50791,0.57631 z m 7.3165,-5.763 c -1.90429,-1.45328 -3.00678,0.20045 -3.00678,0.20045 -2.20497,-1.35305 -3.60814,0.45102 -3.60814,0.45102 -1.904294,-1.00226 -2.906554,0.75169 -2.906554,0.75169 0,0 2.305204,-0.60135 4.159384,0.40091 0,0 -0.40091,-0.55125 -0.80181,-0.85192 0,0 1.50339,-0.9142 3.20723,-0.0501 1.05238,-1.30295 2.95667,-0.90204 2.95667,-0.90204 z m -5.31198,-1.70384 c 0,0 1.35305,-2.305205 3.30746,-0.15033 0,0 -2.05463,-0.85194 -3.00678,0.40089 0,0 0.30068,0.20045 0.50113,0.50113 0,0 -2.40543,-0.65147 -4.309722,0.82686 0.915512,-1.83671 2.094052,-2.31553 3.507912,-1.57855 z m 5.3621,-1.15261 c -1.35306,-0.90203 -2.15486,0.30068 -2.15486,0.30068 0.10022,0 1.25283,-0.3508 2.15486,-0.30068 z m -8.318768,0.25057 c 0,0 0.350788,-1.403165 1.603618,-1.753957 1.25282,-0.350791 2.00452,0.451018 2.20497,1.002257 0,0 -2.3052,-0.952143 -3.808588,0.7517 z m 6.765258,-2.054635 c -1.85418,-1.503391 -2.80633,0.451018 -2.80633,0.451018 0,0 1.5535,-0.851923 2.80633,-0.451018 z m -3.75848,-1.854182 c 0,0 1.05238,-2.054635 3.0569,-0.551243 0,0 1.1526,-1.302939 2.55576,0.05011 0,0 -1.35305,-0.400902 -2.50565,0.551246 0,0 -1.30294,-1.1526 -2.65599,0.250565 0,0 0.35079,0.200452 0.65147,0.551244 0,0 -1.90429,-0.551244 -3.43275,0.275621 0,0 0.72665,-1.678786 2.33026,-1.127543 z m 1.50339,-2.255087 c 0,0 1.05238,-1.403165 2.50566,-0.200452 0,0 -1.80407,-0.150339 -2.50566,0.701583 0,0 -1.71194,-0.8276 -3.03183,-1e-6 0.80915,-0.988959 1.73217,-1.535239 3.03183,-0.50113 z m 4.25961,-0.851921 c -1.20271,-1.202713 -2.10474,-0.150339 -2.10474,-0.150339 0,0 1.30293,-0.250565 2.10474,0.150339 z m -3.05689,-0.451018 c -0.74466,-0.638278 -2.04613,-1.030765 -3.20724,0.200449 0.31453,-1.717489 2.555,-2.431803 3.20724,-0.200449 z m 2.10475,-1.904295 c -2.15487,-1.904295 -3.35758,0.300678 -3.35758,0.300678 0,0 1.90431,-1.00226 3.35758,-0.300678 z m -4.30973,-1.353052 c 0,0 1.30294,-2.054635 3.20724,-0.701583 0,0 0.95215,-2.004521 2.60588,-0.400904 0,0 -1.65373,-0.651469 -2.50566,1.102487 0,0 -1.60361,-1.1526 -2.7061,0.200452 0,0 0.50113,0.200452 0.65147,0.801809 0,0 -1.95441,-0.801809 -3.03184,0.175395 0,0 0.47608,-1.227769 1.77901,-1.177656 z M 101.274,89.119699 c 0,0 0.31891,-1.771763 2.23242,-1.381975 0,0 0.6024,-1.94894 2.79938,-0.992188 0,0 1.2048,-1.311105 2.87026,-0.03544 0,0 -1.77176,-0.354348 -2.5159,0.354358 0,0 0.28348,0.212611 0.49609,0.566964 0,0 -2.23242,-1.381976 -3.22461,0.354353 0,0 0.46066,0.248046 0.63784,0.850446 0,0 -1.77176,-1.27567 -3.29548,0.283482 z m 0.81501,-4.004185 c 0.14805,-0.666218 0.73085,-1.977741 2.55133,-1.630022 0.40387,-0.646183 1.96581,-1.869608 3.96876,-0.07088 0,0 -2.3033,-0.744136 -3.57897,0.248052 0,0 0.38979,0.177176 0.67327,0.566964 0,0 -1.98437,-1.098493 -3.08286,1.027623 0,0 0.42522,0 0.92131,0.248047 0,0 0.35436,-0.779572 1.48828,-0.885878 1.13393,-0.106306 1.73633,1.063058 1.73633,1.063058 0,0 -2.30329,-1.063058 -3.43722,1.063058 0,0 -0.0709,-0.389788 0,-0.74414 0,0 -1.55915,-0.389789 -2.6222,0.956752 0,0 0.31891,-1.559152 1.38197,-1.842634 z m 8.36272,-0.885882 c -1.94894,-1.559152 -3.18917,0.389788 -3.18917,0.389788 0,0 1.9135,-0.815011 3.18917,-0.389788 z M 106.8577,108.4112 c -1.60362,-1.05237 -2.20498,0 -2.20498,0 0,0 1.40317,-0.30068 2.20498,0 z"
         id="path2082"
         sodipodi:nodetypes="cccccscccccccccccccccccccccccccccccccccccccccccccccccccccccccccccccccccccccccccccccsccccccccccc" />
      <path
         style="font-variation-settings:normal;opacity:1;vector-effect:none;fill:#666666;fill-opacity:1;stroke:none;stroke-width:0.280656;stroke-linecap:butt;stroke-linejoin:miter;stroke-miterlimit:4;stroke-dasharray:none;stroke-dashoffset:0;stroke-opacity:1;stop-color:#000000;stop-opacity:1"
         d="m 112.61593,80.080632 c 0.99842,-0.85764 1.7654,-0.497827 2.18687,-0.08288 -0.47839,0.143881 -0.95678,0.427815 -1.43517,0.934802 2.7181,-1.250032 3.62586,-0.473164 4.26767,0.5334 -0.72424,0.239434 -1.36112,0.669313 -1.36112,0.669313 1.75296,-0.539616 3.24647,0.111002 4.2095,1.65373 -0.38165,0.06199 -0.57799,0.218774 -0.7517,0.501131 1.5034,-0.100226 2.45555,0.701582 2.45555,0.701582 -0.15034,-0.952148 -1.20272,-1.252827 -1.20272,-1.252827 -0.57058,-1.498411 -1.25866,-2.139379 -2.65599,-2.405425 -0.70203,-1.441499 -1.69572,-1.983586 -3.10701,-1.703845 -0.84115,-0.994758 -1.93386,-0.682073 -2.85644,-0.250564 z"
         id="path2086"
         sodipodi:nodetypes="ccccccccccccc" />
      <path
         style="font-variation-settings:normal;opacity:1;vector-effect:none;fill:#666666;fill-opacity:1;stroke:none;stroke-width:0.280656;stroke-linecap:butt;stroke-linejoin:miter;stroke-miterlimit:4;stroke-dasharray:none;stroke-dashoffset:0;stroke-opacity:1;stop-color:#000000;stop-opacity:1"
         d="m 123.80785,107.94348 c 0,0 -0.90203,-2.10474 -2.65599,-0.85192 0,0 -1.15261,-2.50565 -4.00905,-0.85192 0,0 -1.10249,-1.35305 -2.7061,-0.15034 0,0 2.00452,-0.20045 2.7061,1.00226 0,0 1.20271,-0.70158 2.25509,-0.60136 1.05237,0.10023 1.40316,0.85192 1.40316,0.85192 0,0 -0.30067,0.30068 -0.35079,0.7517 0,0 1.90431,-1.05238 3.35758,-0.15034 z m -2.70611,1.25283 c 0,0 -1.60361,-0.60136 -3.50791,-0.57631 2.40542,-1.22776 3.50791,0.57631 3.50791,0.57631 z m -7.3165,-5.763 c 1.90429,-1.45328 3.00678,0.20045 3.00678,0.20045 2.20497,-1.35305 3.60814,0.45102 3.60814,0.45102 1.9043,-1.00226 2.90656,0.75169 2.90656,0.75169 0,0 -2.30521,-0.60135 -4.15939,0.40091 0,0 0.40091,-0.55125 0.80181,-0.85192 0,0 -1.50339,-0.9142 -3.20723,-0.0501 -1.05238,-1.30295 -2.95667,-0.90204 -2.95667,-0.90204 z m 5.31198,-1.70384 c 0,0 -1.35305,-2.305205 -3.30746,-0.15033 0,0 2.05463,-0.85194 3.00678,0.40089 0,0 -0.30068,0.20045 -0.50113,0.50113 0,0 2.40543,-0.65147 4.30973,0.82686 -0.91552,-1.83671 -2.09406,-2.31553 -3.50792,-1.57855 z m -5.3621,-1.15261 c 1.35306,-0.90203 2.15486,0.30068 2.15486,0.30068 -0.10022,0 -1.25283,-0.3508 -2.15486,-0.30068 z m 8.31877,0.25057 c 0,0 -0.35079,-1.403165 -1.60362,-1.753957 -1.25282,-0.350791 -2.00452,0.451018 -2.20497,1.002257 0,0 2.3052,-0.952143 3.80859,0.7517 z m -6.76526,-2.054635 c 1.85418,-1.503391 2.80633,0.451018 2.80633,0.451018 0,0 -1.5535,-0.851923 -2.80633,-0.451018 z m 3.75848,-1.854182 c 0,0 -1.05238,-2.054635 -3.0569,-0.551243 0,0 -1.1526,-1.302939 -2.55576,0.05011 0,0 1.35305,-0.400902 2.50565,0.551246 0,0 1.30294,-1.1526 2.65599,0.250565 0,0 -0.35079,0.200452 -0.65147,0.551244 0,0 1.90429,-0.551244 3.43275,0.275621 0,0 -0.72665,-1.678786 -2.33026,-1.127543 z m -1.50339,-2.255087 c 0,0 -1.05238,-1.403165 -2.50566,-0.200452 0,0 1.80407,-0.150339 2.50566,0.701583 0,0 1.71194,-0.8276 3.03183,-1e-6 -0.80915,-0.988959 -1.73217,-1.535239 -3.03183,-0.50113 z m -4.25961,-0.851921 c 1.20271,-1.202713 2.10474,-0.150339 2.10474,-0.150339 0,0 -1.30293,-0.250565 -2.10474,0.150339 z m 3.05689,-0.451018 c 0.74466,-0.638278 2.04613,-1.030765 3.20724,0.200449 -0.31453,-1.717489 -2.555,-2.431803 -3.20724,-0.200449 z m -2.10475,-1.904295 c 2.15487,-1.904295 3.35758,0.300678 3.35758,0.300678 0,0 -1.90431,-1.00226 -3.35758,-0.300678 z m 4.30973,-1.353052 c 0,0 -1.30294,-2.054635 -3.20724,-0.701583 0,0 -0.95215,-2.004521 -2.60588,-0.400904 0,0 1.65373,-0.651469 2.50566,1.102487 0,0 1.60361,-1.1526 2.7061,0.200452 0,0 -0.50113,0.200452 -0.65147,0.801809 0,0 1.95441,-0.801809 3.03184,0.175395 0,0 -0.47608,-1.227769 -1.77901,-1.177656 z m 1.99226,-0.983541 c 0,0 -0.31891,-1.771763 -2.23242,-1.381975 0,0 -0.6024,-1.94894 -2.79938,-0.992188 0,0 -1.2048,-1.311105 -2.87026,-0.03544 0,0 1.77176,-0.354348 2.5159,0.354358 0,0 -0.28348,0.212611 -0.49609,0.566964 0,0 2.23242,-1.381976 3.22461,0.354353 0,0 -0.46066,0.248046 -0.63784,0.850446 0,0 1.77176,-1.27567 3.29548,0.283482 z m -0.81501,-4.004185 c -0.14805,-0.666218 -0.73085,-1.977741 -2.55133,-1.630022 -0.40387,-0.646183 -1.96581,-1.869608 -3.96876,-0.07088 0,0 2.3033,-0.744136 3.57897,0.248052 0,0 -0.38979,0.177176 -0.67327,0.566964 0,0 1.98437,-1.098493 3.08286,1.027623 0,0 -0.42522,0 -0.92131,0.248047 0,0 -0.35436,-0.779572 -1.48828,-0.885878 -1.13393,-0.106306 -1.73633,1.063058 -1.73633,1.063058 0,0 2.30329,-1.063058 3.43722,1.063058 0,0 0.0709,-0.389788 0,-0.74414 0,0 1.55915,-0.389789 2.6222,0.956752 0,0 -0.31891,-1.559152 -1.38197,-1.842634 z m -8.36272,-0.885882 c 1.94894,-1.559152 3.18917,0.389788 3.18917,0.389788 0,0 -1.9135,-0.815011 -3.18917,-0.389788 z m 3.59403,24.181568 c 1.60362,-1.05237 2.20498,0 2.20498,0 0,0 -1.40317,-0.30068 -2.20498,0 z"
         id="path2088"
         sodipodi:nodetypes="cccccscccccccccccccccccccccccccccccccccccccccccccccccccccccccccccccccccccccccccccccsccccccccccc" />
      <path
         id="path2084"
         style="font-variation-settings:normal;opacity:1;vector-effect:none;fill:#ffffff;fill-opacity:1;stroke:none;stroke-width:0.280656;stroke-linecap:butt;stroke-linejoin:miter;stroke-miterlimit:4;stroke-dasharray:none;stroke-dashoffset:0;stroke-opacity:1;stop-color:#000000;stop-opacity:1"
         d="m 110.90612,78.457245 c -0.99447,0 -1.6597,0.821578 -1.6597,0.821578 -0.92258,-0.431509 -1.81484,-0.643968 -2.65599,0.35079 -1.41129,-0.279741 -2.40498,0.262346 -3.10701,1.703845 -1.39733,0.266046 -2.08541,0.907014 -2.65599,2.405425 0,0 -1.052374,0.300679 -1.202713,1.252827 0,0 0.952143,-0.801808 2.455543,-0.701582 -0.17371,-0.282357 -0.37005,-0.439143 -0.7517,-0.501131 0.96303,-1.542728 2.45654,-2.193346 4.2095,-1.65373 0,0 -0.63688,-0.429879 -1.36112,-0.669313 0.64181,-1.006564 1.54957,-1.783432 4.26767,-0.5334 -0.47839,-0.506987 -0.95678,-0.790921 -1.43517,-0.934802 0.42147,-0.414947 1.18845,-0.77476 2.18687,0.08288 0,0 0.81519,-0.771467 1.86015,-0.671241 1.04496,0.100226 2.0606,1.072145 2.0606,1.072145 -0.4684,-1.293032 -1.22577,-1.994913 -2.21094,-2.024291 z m -2.36131,3.527682 c 0,0 0.65147,-0.952148 2.36131,-0.952148 1.70984,0 2.36131,0.952148 2.36131,0.952148 0,0 -1.10248,-0.300678 -2.36131,-0.300678 -1.25883,0 -2.36131,0.300678 -2.36131,0.300678 z"
         sodipodi:nodetypes="ccccccccccccczcccscsc" />
    </g>
    <g
       id="g2108"
       transform="matrix(0,0.9426541,0.9428062,0,-5.9587005,18.750024)"
       style="stroke-width:1.06075">
      <path
         id="path2092"
         style="font-variation-settings:normal;opacity:1;vector-effect:none;fill:#666666;fill-opacity:1;stroke:none;stroke-width:1.02454;stroke-linecap:butt;stroke-linejoin:miter;stroke-miterlimit:4;stroke-dasharray:none;stroke-dashoffset:0;stroke-opacity:1;stop-color:#000000;stop-opacity:1"
         d="m 375.67773,421.82422 -2.92773,4.75586 -194.48828,124.10937 -6.20899,5.69141 c 11.91368,-1.6108 28.50695,-3.7136 62.20313,-17.56055 37.89493,-15.57235 60.61442,-33.11838 91.38867,-25.39453 30.77424,7.72381 41.50168,10.27734 50.0332,10.27734 z"
         transform="matrix(0,0.27391117,0.27395536,0,-18.609898,7.3960528)"
         sodipodi:nodetypes="ccccsscc" />
      <path
         id="path2202"
         style="font-variation-settings:normal;opacity:1;vector-effect:none;fill:#ffffff;fill-opacity:1;stroke:none;stroke-width:1.02454;stroke-linecap:butt;stroke-linejoin:miter;stroke-miterlimit:4;stroke-dasharray:none;stroke-dashoffset:0;stroke-opacity:1;stop-color:#000000;stop-opacity:1"
         d="m 172.05273,389.14453 c 3.86893,22.03961 8.78125,51.88189 8.78125,83.61914 0,31.73725 -4.91232,61.57754 -8.78125,83.61719 1.51986,-0.2293 6.20899,-5.69141 6.20899,-5.69141 L 372.75,426.58008 l 2.92773,-4.75586 c -8.53152,0 -19.25896,2.55353 -50.0332,10.27734 -30.77425,7.72384 -53.49374,-9.82416 -91.38867,-25.39648 -37.89493,-15.57236 -48.48598,-15.49101 -62.20313,-17.56055 z"
         transform="matrix(0,0.27391117,0.27395536,0,-18.609898,7.3960528)"
         sodipodi:nodetypes="csccccssc" />
      <path
         style="font-variation-settings:normal;opacity:1;vector-effect:none;fill:#cccccc;fill-opacity:1;stroke:none;stroke-width:0.280656;stroke-linecap:butt;stroke-linejoin:miter;stroke-miterlimit:4;stroke-dasharray:none;stroke-dashoffset:0;stroke-opacity:1;stop-color:#000000;stop-opacity:1"
         d="m 98.253834,109.49636 c 0.4009,-3.33914 1.63302,-7.5001 3.416916,-14.60659 1.7839,-7.106493 -3.716716,-14.155324 -7.656606,-23.741419 -3.9399,-9.586094 -4.19021,-11.969004 -4.4565,-14.924475 6.03787,1.059742 12.653886,2.063543 21.348476,2.063543 8.69459,0 15.3106,-1.003801 21.34848,-2.063543 -0.26629,2.955471 -0.51661,5.338381 -4.4565,14.924475 -3.93989,9.586095 -9.44051,16.634926 -7.65661,23.741419 1.7839,7.10649 3.01602,11.26745 3.41692,14.60659 z"
         id="path2094"
         sodipodi:nodetypes="czzczczzcc" />
      <path
         id="path2096"
         style="font-variation-settings:normal;opacity:1;vector-effect:none;fill:#ffffff;fill-opacity:1;stroke:none;stroke-width:0.280656;stroke-linecap:butt;stroke-linejoin:miter;stroke-miterlimit:4;stroke-dasharray:none;stroke-dashoffset:0;stroke-opacity:1;stop-color:#000000;stop-opacity:1"
         d="m 110.25093,78.808034 c -0.0658,-11.933692 0.0181,-17.016408 0.65519,-20.520615 v 20.520617 z m 3.31864,0.177725 c 1.11199,-8.71988 1.72771,-13.456716 2.6839,-20.701272 -0.2255,7.108543 -1.01086,12.873559 -2.04318,20.783879 z m 2.88589,0.817013 c 2.44087,-9.205833 3.51505,-14.345695 5.58389,-21.991036 -1.12841,7.566734 -2.74714,13.935334 -4.99121,22.284343 z m 2.69789,1.736665 c 3.90261,-10.072837 5.8626,-15.940591 8.77333,-24.276045 -2.10327,8.368371 -4.70896,15.497422 -8.28656,24.62966 z m -12.15233,-2.365928 c -1.08558,-7.159169 -1.9688,-13.678652 -1.44225,-20.889022 0.2255,7.108543 1.01086,12.873559 2.04318,20.783879 z m -5.40519,3.145504 C 98.118453,74.08881 95.237143,65.882328 93.885568,57.263392 c 2.103271,8.368371 4.708958,15.497422 8.286552,24.62966 z m 2.57117,-1.851146 c -2.22235,-7.542419 -3.77503,-13.918756 -4.394107,-22.656131 1.128407,7.566734 2.747137,13.935334 4.991207,22.284343 z" />
      <path
         id="path2098"
         style="font-variation-settings:normal;opacity:1;vector-effect:none;fill:#666666;fill-opacity:1;stroke:none;stroke-width:0.280656;stroke-linecap:butt;stroke-linejoin:miter;stroke-miterlimit:4;stroke-dasharray:none;stroke-dashoffset:0;stroke-opacity:1;stop-color:#000000;stop-opacity:1"
         d="m 111.56131,78.808034 c 0.0658,-11.933692 -0.0181,-17.016408 -0.65519,-20.520615 v 20.520617 z m 3.24991,0.365475 c 1.08558,-7.159169 1.9688,-13.678652 1.44225,-20.889022 -0.2255,7.108543 -1.01086,12.873559 -2.04318,20.783879 z m 5.40519,3.145504 c 3.47738,-8.230203 6.35869,-16.436685 7.71027,-25.055621 -2.10327,8.368371 -4.70896,15.497422 -8.28656,24.62966 z m -2.57117,-1.851146 c 2.22235,-7.542419 3.77503,-13.918756 4.39411,-22.656131 -1.12841,7.566734 -2.74714,13.935334 -4.99121,22.284343 z m -9.40257,-1.482108 c -1.11199,-8.71988 -1.72771,-13.456716 -2.6839,-20.701272 0.2255,7.108543 1.01086,12.873559 2.04318,20.783879 z m -2.88589,0.817013 c -2.44087,-9.205833 -3.51505,-14.345695 -5.583887,-21.991036 1.128407,7.566734 2.747137,13.935334 4.991207,22.284343 z m -2.69789,1.736665 C 98.756288,71.4666 96.796295,65.598846 93.885568,57.263392 c 2.103271,8.368371 4.708958,15.497422 8.286552,24.62966 z" />
      <path
         style="font-variation-settings:normal;opacity:1;vector-effect:none;fill:#ffffff;fill-opacity:1;stroke:none;stroke-width:0.280656;stroke-linecap:butt;stroke-linejoin:miter;stroke-miterlimit:4;stroke-dasharray:none;stroke-dashoffset:0;stroke-opacity:1;stop-color:#000000;stop-opacity:1"
         d="m 98.004393,107.94348 c 0,0 0.902034,-2.10474 2.655987,-0.85192 0,0 1.15261,-2.50565 4.00905,-0.85192 0,0 1.10249,-1.35305 2.7061,-0.15034 0,0 -2.00452,-0.20045 -2.7061,1.00226 0,0 -1.20271,-0.70158 -2.25509,-0.60136 -1.05237,0.10023 -1.40316,0.85192 -1.40316,0.85192 0,0 0.30067,0.30068 0.35079,0.7517 0,0 -1.904301,-1.05238 -3.357577,-0.15034 z m 2.706107,1.25283 c 0,0 1.60361,-0.60136 3.50791,-0.57631 -2.40542,-1.22776 -3.50791,0.57631 -3.50791,0.57631 z m 7.3165,-5.763 c -1.90429,-1.45328 -3.00678,0.20045 -3.00678,0.20045 -2.20497,-1.35305 -3.60814,0.45102 -3.60814,0.45102 -1.904294,-1.00226 -2.906554,0.75169 -2.906554,0.75169 0,0 2.305204,-0.60135 4.159384,0.40091 0,0 -0.40091,-0.55125 -0.80181,-0.85192 0,0 1.50339,-0.9142 3.20723,-0.0501 1.05238,-1.30295 2.95667,-0.90204 2.95667,-0.90204 z m -5.31198,-1.70384 c 0,0 1.35305,-2.305205 3.30746,-0.15033 0,0 -2.05463,-0.85194 -3.00678,0.40089 0,0 0.30068,0.20045 0.50113,0.50113 0,0 -2.40543,-0.65147 -4.309722,0.82686 0.915512,-1.83671 2.094052,-2.31553 3.507912,-1.57855 z m 5.3621,-1.15261 c -1.35306,-0.90203 -2.15486,0.30068 -2.15486,0.30068 0.10022,0 1.25283,-0.3508 2.15486,-0.30068 z m -8.318768,0.25057 c 0,0 0.350788,-1.403165 1.603618,-1.753957 1.25282,-0.350791 2.00452,0.451018 2.20497,1.002257 0,0 -2.3052,-0.952143 -3.808588,0.7517 z m 6.765258,-2.054635 c -1.85418,-1.503391 -2.80633,0.451018 -2.80633,0.451018 0,0 1.5535,-0.851923 2.80633,-0.451018 z m -3.75848,-1.854182 c 0,0 1.05238,-2.054635 3.0569,-0.551243 0,0 1.1526,-1.302939 2.55576,0.05011 0,0 -1.35305,-0.400902 -2.50565,0.551246 0,0 -1.30294,-1.1526 -2.65599,0.250565 0,0 0.35079,0.200452 0.65147,0.551244 0,0 -1.90429,-0.551244 -3.43275,0.275621 0,0 0.72665,-1.678786 2.33026,-1.127543 z m 1.50339,-2.255087 c 0,0 1.05238,-1.403165 2.50566,-0.200452 0,0 -1.80407,-0.150339 -2.50566,0.701583 0,0 -1.71194,-0.8276 -3.03183,-1e-6 0.80915,-0.988959 1.73217,-1.535239 3.03183,-0.50113 z m 4.25961,-0.851921 c -1.20271,-1.202713 -2.10474,-0.150339 -2.10474,-0.150339 0,0 1.30293,-0.250565 2.10474,0.150339 z m -3.05689,-0.451018 c -0.74466,-0.638278 -2.04613,-1.030765 -3.20724,0.200449 0.31453,-1.717489 2.555,-2.431803 3.20724,-0.200449 z m 2.10475,-1.904295 c -2.15487,-1.904295 -3.35758,0.300678 -3.35758,0.300678 0,0 1.90431,-1.00226 3.35758,-0.300678 z m -4.30973,-1.353052 c 0,0 1.30294,-2.054635 3.20724,-0.701583 0,0 0.95215,-2.004521 2.60588,-0.400904 0,0 -1.65373,-0.651469 -2.50566,1.102487 0,0 -1.60361,-1.1526 -2.7061,0.200452 0,0 0.50113,0.200452 0.65147,0.801809 0,0 -1.95441,-0.801809 -3.03184,0.175395 0,0 0.47608,-1.227769 1.77901,-1.177656 z M 101.274,89.119699 c 0,0 0.31891,-1.771763 2.23242,-1.381975 0,0 0.6024,-1.94894 2.79938,-0.992188 0,0 1.2048,-1.311105 2.87026,-0.03544 0,0 -1.77176,-0.354348 -2.5159,0.354358 0,0 0.28348,0.212611 0.49609,0.566964 0,0 -2.23242,-1.381976 -3.22461,0.354353 0,0 0.46066,0.248046 0.63784,0.850446 0,0 -1.77176,-1.27567 -3.29548,0.283482 z m 0.81501,-4.004185 c 0.14805,-0.666218 0.73085,-1.977741 2.55133,-1.630022 0.40387,-0.646183 1.96581,-1.869608 3.96876,-0.07088 0,0 -2.3033,-0.744136 -3.57897,0.248052 0,0 0.38979,0.177176 0.67327,0.566964 0,0 -1.98437,-1.098493 -3.08286,1.027623 0,0 0.42522,0 0.92131,0.248047 0,0 0.35436,-0.779572 1.48828,-0.885878 1.13393,-0.106306 1.73633,1.063058 1.73633,1.063058 0,0 -2.30329,-1.063058 -3.43722,1.063058 0,0 -0.0709,-0.389788 0,-0.74414 0,0 -1.55915,-0.389789 -2.6222,0.956752 0,0 0.31891,-1.559152 1.38197,-1.842634 z m 8.36272,-0.885882 c -1.94894,-1.559152 -3.18917,0.389788 -3.18917,0.389788 0,0 1.9135,-0.815011 3.18917,-0.389788 z M 106.8577,108.4112 c -1.60362,-1.05237 -2.20498,0 -2.20498,0 0,0 1.40317,-0.30068 2.20498,0 z"
         id="path2100"
         sodipodi:nodetypes="cccccscccccccccccccccccccccccccccccccccccccccccccccccccccccccccccccccccccccccccccccsccccccccccc" />
      <path
         style="font-variation-settings:normal;opacity:1;vector-effect:none;fill:#666666;fill-opacity:1;stroke:none;stroke-width:0.280656;stroke-linecap:butt;stroke-linejoin:miter;stroke-miterlimit:4;stroke-dasharray:none;stroke-dashoffset:0;stroke-opacity:1;stop-color:#000000;stop-opacity:1"
         d="m 112.61593,80.080632 c 0.99842,-0.85764 1.7654,-0.497827 2.18687,-0.08288 -0.47839,0.143881 -0.95678,0.427815 -1.43517,0.934802 2.7181,-1.250032 3.62586,-0.473164 4.26767,0.5334 -0.72424,0.239434 -1.36112,0.669313 -1.36112,0.669313 1.75296,-0.539616 3.24647,0.111002 4.2095,1.65373 -0.38165,0.06199 -0.57799,0.218774 -0.7517,0.501131 1.5034,-0.100226 2.45555,0.701582 2.45555,0.701582 -0.15034,-0.952148 -1.20272,-1.252827 -1.20272,-1.252827 -0.57058,-1.498411 -1.25866,-2.139379 -2.65599,-2.405425 -0.70203,-1.441499 -1.69572,-1.983586 -3.10701,-1.703845 -0.84115,-0.994758 -1.93386,-0.682073 -2.85644,-0.250564 z"
         id="path2104"
         sodipodi:nodetypes="ccccccccccccc" />
      <path
         style="font-variation-settings:normal;opacity:1;vector-effect:none;fill:#666666;fill-opacity:1;stroke:none;stroke-width:0.280656;stroke-linecap:butt;stroke-linejoin:miter;stroke-miterlimit:4;stroke-dasharray:none;stroke-dashoffset:0;stroke-opacity:1;stop-color:#000000;stop-opacity:1"
         d="m 123.80785,107.94348 c 0,0 -0.90203,-2.10474 -2.65599,-0.85192 0,0 -1.15261,-2.50565 -4.00905,-0.85192 0,0 -1.10249,-1.35305 -2.7061,-0.15034 0,0 2.00452,-0.20045 2.7061,1.00226 0,0 1.20271,-0.70158 2.25509,-0.60136 1.05237,0.10023 1.40316,0.85192 1.40316,0.85192 0,0 -0.30067,0.30068 -0.35079,0.7517 0,0 1.90431,-1.05238 3.35758,-0.15034 z m -2.70611,1.25283 c 0,0 -1.60361,-0.60136 -3.50791,-0.57631 2.40542,-1.22776 3.50791,0.57631 3.50791,0.57631 z m -7.3165,-5.763 c 1.90429,-1.45328 3.00678,0.20045 3.00678,0.20045 2.20497,-1.35305 3.60814,0.45102 3.60814,0.45102 1.9043,-1.00226 2.90656,0.75169 2.90656,0.75169 0,0 -2.30521,-0.60135 -4.15939,0.40091 0,0 0.40091,-0.55125 0.80181,-0.85192 0,0 -1.50339,-0.9142 -3.20723,-0.0501 -1.05238,-1.30295 -2.95667,-0.90204 -2.95667,-0.90204 z m 5.31198,-1.70384 c 0,0 -1.35305,-2.305205 -3.30746,-0.15033 0,0 2.05463,-0.85194 3.00678,0.40089 0,0 -0.30068,0.20045 -0.50113,0.50113 0,0 2.40543,-0.65147 4.30973,0.82686 -0.91552,-1.83671 -2.09406,-2.31553 -3.50792,-1.57855 z m -5.3621,-1.15261 c 1.35306,-0.90203 2.15486,0.30068 2.15486,0.30068 -0.10022,0 -1.25283,-0.3508 -2.15486,-0.30068 z m 8.31877,0.25057 c 0,0 -0.35079,-1.403165 -1.60362,-1.753957 -1.25282,-0.350791 -2.00452,0.451018 -2.20497,1.002257 0,0 2.3052,-0.952143 3.80859,0.7517 z m -6.76526,-2.054635 c 1.85418,-1.503391 2.80633,0.451018 2.80633,0.451018 0,0 -1.5535,-0.851923 -2.80633,-0.451018 z m 3.75848,-1.854182 c 0,0 -1.05238,-2.054635 -3.0569,-0.551243 0,0 -1.1526,-1.302939 -2.55576,0.05011 0,0 1.35305,-0.400902 2.50565,0.551246 0,0 1.30294,-1.1526 2.65599,0.250565 0,0 -0.35079,0.200452 -0.65147,0.551244 0,0 1.90429,-0.551244 3.43275,0.275621 0,0 -0.72665,-1.678786 -2.33026,-1.127543 z m -1.50339,-2.255087 c 0,0 -1.05238,-1.403165 -2.50566,-0.200452 0,0 1.80407,-0.150339 2.50566,0.701583 0,0 1.71194,-0.8276 3.03183,-1e-6 -0.80915,-0.988959 -1.73217,-1.535239 -3.03183,-0.50113 z m -4.25961,-0.851921 c 1.20271,-1.202713 2.10474,-0.150339 2.10474,-0.150339 0,0 -1.30293,-0.250565 -2.10474,0.150339 z m 3.05689,-0.451018 c 0.74466,-0.638278 2.04613,-1.030765 3.20724,0.200449 -0.31453,-1.717489 -2.555,-2.431803 -3.20724,-0.200449 z m -2.10475,-1.904295 c 2.15487,-1.904295 3.35758,0.300678 3.35758,0.300678 0,0 -1.90431,-1.00226 -3.35758,-0.300678 z m 4.30973,-1.353052 c 0,0 -1.30294,-2.054635 -3.20724,-0.701583 0,0 -0.95215,-2.004521 -2.60588,-0.400904 0,0 1.65373,-0.651469 2.50566,1.102487 0,0 1.60361,-1.1526 2.7061,0.200452 0,0 -0.50113,0.200452 -0.65147,0.801809 0,0 1.95441,-0.801809 3.03184,0.175395 0,0 -0.47608,-1.227769 -1.77901,-1.177656 z m 1.99226,-0.983541 c 0,0 -0.31891,-1.771763 -2.23242,-1.381975 0,0 -0.6024,-1.94894 -2.79938,-0.992188 0,0 -1.2048,-1.311105 -2.87026,-0.03544 0,0 1.77176,-0.354348 2.5159,0.354358 0,0 -0.28348,0.212611 -0.49609,0.566964 0,0 2.23242,-1.381976 3.22461,0.354353 0,0 -0.46066,0.248046 -0.63784,0.850446 0,0 1.77176,-1.27567 3.29548,0.283482 z m -0.81501,-4.004185 c -0.14805,-0.666218 -0.73085,-1.977741 -2.55133,-1.630022 -0.40387,-0.646183 -1.96581,-1.869608 -3.96876,-0.07088 0,0 2.3033,-0.744136 3.57897,0.248052 0,0 -0.38979,0.177176 -0.67327,0.566964 0,0 1.98437,-1.098493 3.08286,1.027623 0,0 -0.42522,0 -0.92131,0.248047 0,0 -0.35436,-0.779572 -1.48828,-0.885878 -1.13393,-0.106306 -1.73633,1.063058 -1.73633,1.063058 0,0 2.30329,-1.063058 3.43722,1.063058 0,0 0.0709,-0.389788 0,-0.74414 0,0 1.55915,-0.389789 2.6222,0.956752 0,0 -0.31891,-1.559152 -1.38197,-1.842634 z m -8.36272,-0.885882 c 1.94894,-1.559152 3.18917,0.389788 3.18917,0.389788 0,0 -1.9135,-0.815011 -3.18917,-0.389788 z m 3.59403,24.181568 c 1.60362,-1.05237 2.20498,0 2.20498,0 0,0 -1.40317,-0.30068 -2.20498,0 z"
         id="path2106"
         sodipodi:nodetypes="cccccscccccccccccccccccccccccccccccccccccccccccccccccccccccccccccccccccccccccccccccsccccccccccc" />
      <path
         id="path2102"
         style="font-variation-settings:normal;opacity:1;vector-effect:none;fill:#ffffff;fill-opacity:1;stroke:none;stroke-width:0.280656;stroke-linecap:butt;stroke-linejoin:miter;stroke-miterlimit:4;stroke-dasharray:none;stroke-dashoffset:0;stroke-opacity:1;stop-color:#000000;stop-opacity:1"
         d="m 110.90612,78.457245 c -0.99447,0 -1.6597,0.821578 -1.6597,0.821578 -0.92258,-0.431509 -1.81484,-0.643968 -2.65599,0.35079 -1.41129,-0.279741 -2.40498,0.262346 -3.10701,1.703845 -1.39733,0.266046 -2.08541,0.907014 -2.65599,2.405425 0,0 -1.052374,0.300679 -1.202713,1.252827 0,0 0.952143,-0.801808 2.455543,-0.701582 -0.17371,-0.282357 -0.37005,-0.439143 -0.7517,-0.501131 0.96303,-1.542728 2.45654,-2.193346 4.2095,-1.65373 0,0 -0.63688,-0.429879 -1.36112,-0.669313 0.64181,-1.006564 1.54957,-1.783432 4.26767,-0.5334 -0.47839,-0.506987 -0.95678,-0.790921 -1.43517,-0.934802 0.42147,-0.414947 1.18845,-0.77476 2.18687,0.08288 0,0 0.81519,-0.771467 1.86015,-0.671241 1.04496,0.100226 2.0606,1.072145 2.0606,1.072145 -0.4684,-1.293032 -1.22577,-1.994913 -2.21094,-2.024291 z m -2.36131,3.527682 c 0,0 0.65147,-0.952148 2.36131,-0.952148 1.70984,0 2.36131,0.952148 2.36131,0.952148 0,0 -1.10248,-0.300678 -2.36131,-0.300678 -1.25883,0 -2.36131,0.300678 -2.36131,0.300678 z"
         sodipodi:nodetypes="ccccccccccccczcccscsc" />
    </g>
    <g
       id="g2154"
       transform="matrix(0.9426541,0,0,-0.9428062,3.6846127,242.39195)"
       style="stroke-width:1.06075">
      <path
         id="path2138"
         style="font-variation-settings:normal;opacity:1;vector-effect:none;fill:#666666;fill-opacity:1;stroke:none;stroke-width:1.02454;stroke-linecap:butt;stroke-linejoin:miter;stroke-miterlimit:4;stroke-dasharray:none;stroke-dashoffset:0;stroke-opacity:1;stop-color:#000000;stop-opacity:1"
         d="m 466.11328,531.25977 -4.75586,2.92578 -124.11133,194.48828 -5.6914,6.21094 c 21.60507,-3.7427 53.68689,-8.78321 83.61914,-8.78321 31.73725,0 61.57754,4.91428 83.61719,8.78321 -2.06954,-13.71715 -1.9882,-24.31015 -17.56055,-62.20508 -15.57236,-37.89493 -33.11838,-60.61443 -25.39453,-91.38867 7.72381,-30.77424 10.27734,-41.49973 10.27734,-50.03125 z"
         transform="matrix(0.27395536,0,0,-0.27391117,-2.8327132,255.81597)"
         sodipodi:nodetypes="ccccscssc" />
      <path
         id="path2192"
         style="font-variation-settings:normal;opacity:1;vector-effect:none;fill:#ffffff;fill-opacity:1;stroke:none;stroke-width:1.02454;stroke-linecap:butt;stroke-linejoin:miter;stroke-miterlimit:4;stroke-dasharray:none;stroke-dashoffset:0;stroke-opacity:1;stop-color:#000000;stop-opacity:1"
         d="m 364.23242,531.25977 c 0,8.53152 2.55353,19.25701 10.27735,50.03125 7.72384,30.77424 -9.82222,53.49374 -25.39454,91.38867 -15.57235,37.89493 -15.49101,48.48793 -17.56054,62.20508 1.25347,-0.22004 5.6914,-6.21094 5.6914,-6.21094 l 124.11133,-194.48828 4.75586,-2.92578 z"
         transform="matrix(0.27395536,0,0,-0.27391117,-2.8327132,255.81597)"
         sodipodi:nodetypes="cssccccc" />
      <path
         style="font-variation-settings:normal;opacity:1;vector-effect:none;fill:#cccccc;fill-opacity:1;stroke:none;stroke-width:0.280656;stroke-linecap:butt;stroke-linejoin:miter;stroke-miterlimit:4;stroke-dasharray:none;stroke-dashoffset:0;stroke-opacity:1;stop-color:#000000;stop-opacity:1"
         d="m 98.253834,109.49636 c 0.4009,-3.33914 1.63302,-7.5001 3.416916,-14.60659 1.7839,-7.106493 -3.716716,-14.155324 -7.656606,-23.741419 -3.9399,-9.586094 -4.19021,-11.969004 -4.4565,-14.924475 6.03787,1.059742 12.653886,2.063543 21.348476,2.063543 8.69459,0 15.3106,-1.003801 21.34848,-2.063543 -0.26629,2.955471 -0.51661,5.338381 -4.4565,14.924475 -3.93989,9.586095 -9.44051,16.634926 -7.65661,23.741419 1.7839,7.10649 3.01602,11.26745 3.41692,14.60659 z"
         id="path2140"
         sodipodi:nodetypes="czzczczzcc" />
      <path
         id="path2142"
         style="font-variation-settings:normal;opacity:1;vector-effect:none;fill:#ffffff;fill-opacity:1;stroke:none;stroke-width:0.280656;stroke-linecap:butt;stroke-linejoin:miter;stroke-miterlimit:4;stroke-dasharray:none;stroke-dashoffset:0;stroke-opacity:1;stop-color:#000000;stop-opacity:1"
         d="m 110.25093,78.808034 c -0.0658,-11.933692 0.0181,-17.016408 0.65519,-20.520615 v 20.520617 z m 3.31864,0.177725 c 1.11199,-8.71988 1.72771,-13.456716 2.6839,-20.701272 -0.2255,7.108543 -1.01086,12.873559 -2.04318,20.783879 z m 2.88589,0.817013 c 2.44087,-9.205833 3.51505,-14.345695 5.58389,-21.991036 -1.12841,7.566734 -2.74714,13.935334 -4.99121,22.284343 z m 2.69789,1.736665 c 3.90261,-10.072837 5.8626,-15.940591 8.77333,-24.276045 -2.10327,8.368371 -4.70896,15.497422 -8.28656,24.62966 z m -12.15233,-2.365928 c -1.08558,-7.159169 -1.9688,-13.678652 -1.44225,-20.889022 0.2255,7.108543 1.01086,12.873559 2.04318,20.783879 z m -5.40519,3.145504 C 98.118453,74.08881 95.237143,65.882328 93.885568,57.263392 c 2.103271,8.368371 4.708958,15.497422 8.286552,24.62966 z m 2.57117,-1.851146 c -2.22235,-7.542419 -3.77503,-13.918756 -4.394107,-22.656131 1.128407,7.566734 2.747137,13.935334 4.991207,22.284343 z" />
      <path
         id="path2144"
         style="font-variation-settings:normal;opacity:1;vector-effect:none;fill:#666666;fill-opacity:1;stroke:none;stroke-width:0.280656;stroke-linecap:butt;stroke-linejoin:miter;stroke-miterlimit:4;stroke-dasharray:none;stroke-dashoffset:0;stroke-opacity:1;stop-color:#000000;stop-opacity:1"
         d="m 111.56131,78.808034 c 0.0658,-11.933692 -0.0181,-17.016408 -0.65519,-20.520615 v 20.520617 z m 3.24991,0.365475 c 1.08558,-7.159169 1.9688,-13.678652 1.44225,-20.889022 -0.2255,7.108543 -1.01086,12.873559 -2.04318,20.783879 z m 5.40519,3.145504 c 3.47738,-8.230203 6.35869,-16.436685 7.71027,-25.055621 -2.10327,8.368371 -4.70896,15.497422 -8.28656,24.62966 z m -2.57117,-1.851146 c 2.22235,-7.542419 3.77503,-13.918756 4.39411,-22.656131 -1.12841,7.566734 -2.74714,13.935334 -4.99121,22.284343 z m -9.40257,-1.482108 c -1.11199,-8.71988 -1.72771,-13.456716 -2.6839,-20.701272 0.2255,7.108543 1.01086,12.873559 2.04318,20.783879 z m -2.88589,0.817013 c -2.44087,-9.205833 -3.51505,-14.345695 -5.583887,-21.991036 1.128407,7.566734 2.747137,13.935334 4.991207,22.284343 z m -2.69789,1.736665 C 98.756288,71.4666 96.796295,65.598846 93.885568,57.263392 c 2.103271,8.368371 4.708958,15.497422 8.286552,24.62966 z" />
      <path
         style="font-variation-settings:normal;opacity:1;vector-effect:none;fill:#ffffff;fill-opacity:1;stroke:none;stroke-width:0.280656;stroke-linecap:butt;stroke-linejoin:miter;stroke-miterlimit:4;stroke-dasharray:none;stroke-dashoffset:0;stroke-opacity:1;stop-color:#000000;stop-opacity:1"
         d="m 98.004393,107.94348 c 0,0 0.902034,-2.10474 2.655987,-0.85192 0,0 1.15261,-2.50565 4.00905,-0.85192 0,0 1.10249,-1.35305 2.7061,-0.15034 0,0 -2.00452,-0.20045 -2.7061,1.00226 0,0 -1.20271,-0.70158 -2.25509,-0.60136 -1.05237,0.10023 -1.40316,0.85192 -1.40316,0.85192 0,0 0.30067,0.30068 0.35079,0.7517 0,0 -1.904301,-1.05238 -3.357577,-0.15034 z m 2.706107,1.25283 c 0,0 1.60361,-0.60136 3.50791,-0.57631 -2.40542,-1.22776 -3.50791,0.57631 -3.50791,0.57631 z m 7.3165,-5.763 c -1.90429,-1.45328 -3.00678,0.20045 -3.00678,0.20045 -2.20497,-1.35305 -3.60814,0.45102 -3.60814,0.45102 -1.904294,-1.00226 -2.906554,0.75169 -2.906554,0.75169 0,0 2.305204,-0.60135 4.159384,0.40091 0,0 -0.40091,-0.55125 -0.80181,-0.85192 0,0 1.50339,-0.9142 3.20723,-0.0501 1.05238,-1.30295 2.95667,-0.90204 2.95667,-0.90204 z m -5.31198,-1.70384 c 0,0 1.35305,-2.305205 3.30746,-0.15033 0,0 -2.05463,-0.85194 -3.00678,0.40089 0,0 0.30068,0.20045 0.50113,0.50113 0,0 -2.40543,-0.65147 -4.309722,0.82686 0.915512,-1.83671 2.094052,-2.31553 3.507912,-1.57855 z m 5.3621,-1.15261 c -1.35306,-0.90203 -2.15486,0.30068 -2.15486,0.30068 0.10022,0 1.25283,-0.3508 2.15486,-0.30068 z m -8.318768,0.25057 c 0,0 0.350788,-1.403165 1.603618,-1.753957 1.25282,-0.350791 2.00452,0.451018 2.20497,1.002257 0,0 -2.3052,-0.952143 -3.808588,0.7517 z m 6.765258,-2.054635 c -1.85418,-1.503391 -2.80633,0.451018 -2.80633,0.451018 0,0 1.5535,-0.851923 2.80633,-0.451018 z m -3.75848,-1.854182 c 0,0 1.05238,-2.054635 3.0569,-0.551243 0,0 1.1526,-1.302939 2.55576,0.05011 0,0 -1.35305,-0.400902 -2.50565,0.551246 0,0 -1.30294,-1.1526 -2.65599,0.250565 0,0 0.35079,0.200452 0.65147,0.551244 0,0 -1.90429,-0.551244 -3.43275,0.275621 0,0 0.72665,-1.678786 2.33026,-1.127543 z m 1.50339,-2.255087 c 0,0 1.05238,-1.403165 2.50566,-0.200452 0,0 -1.80407,-0.150339 -2.50566,0.701583 0,0 -1.71194,-0.8276 -3.03183,-1e-6 0.80915,-0.988959 1.73217,-1.535239 3.03183,-0.50113 z m 4.25961,-0.851921 c -1.20271,-1.202713 -2.10474,-0.150339 -2.10474,-0.150339 0,0 1.30293,-0.250565 2.10474,0.150339 z m -3.05689,-0.451018 c -0.74466,-0.638278 -2.04613,-1.030765 -3.20724,0.200449 0.31453,-1.717489 2.555,-2.431803 3.20724,-0.200449 z m 2.10475,-1.904295 c -2.15487,-1.904295 -3.35758,0.300678 -3.35758,0.300678 0,0 1.90431,-1.00226 3.35758,-0.300678 z m -4.30973,-1.353052 c 0,0 1.30294,-2.054635 3.20724,-0.701583 0,0 0.95215,-2.004521 2.60588,-0.400904 0,0 -1.65373,-0.651469 -2.50566,1.102487 0,0 -1.60361,-1.1526 -2.7061,0.200452 0,0 0.50113,0.200452 0.65147,0.801809 0,0 -1.95441,-0.801809 -3.03184,0.175395 0,0 0.47608,-1.227769 1.77901,-1.177656 z M 101.274,89.119699 c 0,0 0.31891,-1.771763 2.23242,-1.381975 0,0 0.6024,-1.94894 2.79938,-0.992188 0,0 1.2048,-1.311105 2.87026,-0.03544 0,0 -1.77176,-0.354348 -2.5159,0.354358 0,0 0.28348,0.212611 0.49609,0.566964 0,0 -2.23242,-1.381976 -3.22461,0.354353 0,0 0.46066,0.248046 0.63784,0.850446 0,0 -1.77176,-1.27567 -3.29548,0.283482 z m 0.81501,-4.004185 c 0.14805,-0.666218 0.73085,-1.977741 2.55133,-1.630022 0.40387,-0.646183 1.96581,-1.869608 3.96876,-0.07088 0,0 -2.3033,-0.744136 -3.57897,0.248052 0,0 0.38979,0.177176 0.67327,0.566964 0,0 -1.98437,-1.098493 -3.08286,1.027623 0,0 0.42522,0 0.92131,0.248047 0,0 0.35436,-0.779572 1.48828,-0.885878 1.13393,-0.106306 1.73633,1.063058 1.73633,1.063058 0,0 -2.30329,-1.063058 -3.43722,1.063058 0,0 -0.0709,-0.389788 0,-0.74414 0,0 -1.55915,-0.389789 -2.6222,0.956752 0,0 0.31891,-1.559152 1.38197,-1.842634 z m 8.36272,-0.885882 c -1.94894,-1.559152 -3.18917,0.389788 -3.18917,0.389788 0,0 1.9135,-0.815011 3.18917,-0.389788 z M 106.8577,108.4112 c -1.60362,-1.05237 -2.20498,0 -2.20498,0 0,0 1.40317,-0.30068 2.20498,0 z"
         id="path2146"
         sodipodi:nodetypes="cccccscccccccccccccccccccccccccccccccccccccccccccccccccccccccccccccccccccccccccccccsccccccccccc" />
      <path
         style="font-variation-settings:normal;opacity:1;vector-effect:none;fill:#666666;fill-opacity:1;stroke:none;stroke-width:0.280656;stroke-linecap:butt;stroke-linejoin:miter;stroke-miterlimit:4;stroke-dasharray:none;stroke-dashoffset:0;stroke-opacity:1;stop-color:#000000;stop-opacity:1"
         d="m 112.61593,80.080632 c 0.99842,-0.85764 1.7654,-0.497827 2.18687,-0.08288 -0.47839,0.143881 -0.95678,0.427815 -1.43517,0.934802 2.7181,-1.250032 3.62586,-0.473164 4.26767,0.5334 -0.72424,0.239434 -1.36112,0.669313 -1.36112,0.669313 1.75296,-0.539616 3.24647,0.111002 4.2095,1.65373 -0.38165,0.06199 -0.57799,0.218774 -0.7517,0.501131 1.5034,-0.100226 2.45555,0.701582 2.45555,0.701582 -0.15034,-0.952148 -1.20272,-1.252827 -1.20272,-1.252827 -0.57058,-1.498411 -1.25866,-2.139379 -2.65599,-2.405425 -0.70203,-1.441499 -1.69572,-1.983586 -3.10701,-1.703845 -0.84115,-0.994758 -1.93386,-0.682073 -2.85644,-0.250564 z"
         id="path2150"
         sodipodi:nodetypes="ccccccccccccc" />
      <path
         style="font-variation-settings:normal;opacity:1;vector-effect:none;fill:#666666;fill-opacity:1;stroke:none;stroke-width:0.280656;stroke-linecap:butt;stroke-linejoin:miter;stroke-miterlimit:4;stroke-dasharray:none;stroke-dashoffset:0;stroke-opacity:1;stop-color:#000000;stop-opacity:1"
         d="m 123.80785,107.94348 c 0,0 -0.90203,-2.10474 -2.65599,-0.85192 0,0 -1.15261,-2.50565 -4.00905,-0.85192 0,0 -1.10249,-1.35305 -2.7061,-0.15034 0,0 2.00452,-0.20045 2.7061,1.00226 0,0 1.20271,-0.70158 2.25509,-0.60136 1.05237,0.10023 1.40316,0.85192 1.40316,0.85192 0,0 -0.30067,0.30068 -0.35079,0.7517 0,0 1.90431,-1.05238 3.35758,-0.15034 z m -2.70611,1.25283 c 0,0 -1.60361,-0.60136 -3.50791,-0.57631 2.40542,-1.22776 3.50791,0.57631 3.50791,0.57631 z m -7.3165,-5.763 c 1.90429,-1.45328 3.00678,0.20045 3.00678,0.20045 2.20497,-1.35305 3.60814,0.45102 3.60814,0.45102 1.9043,-1.00226 2.90656,0.75169 2.90656,0.75169 0,0 -2.30521,-0.60135 -4.15939,0.40091 0,0 0.40091,-0.55125 0.80181,-0.85192 0,0 -1.50339,-0.9142 -3.20723,-0.0501 -1.05238,-1.30295 -2.95667,-0.90204 -2.95667,-0.90204 z m 5.31198,-1.70384 c 0,0 -1.35305,-2.305205 -3.30746,-0.15033 0,0 2.05463,-0.85194 3.00678,0.40089 0,0 -0.30068,0.20045 -0.50113,0.50113 0,0 2.40543,-0.65147 4.30973,0.82686 -0.91552,-1.83671 -2.09406,-2.31553 -3.50792,-1.57855 z m -5.3621,-1.15261 c 1.35306,-0.90203 2.15486,0.30068 2.15486,0.30068 -0.10022,0 -1.25283,-0.3508 -2.15486,-0.30068 z m 8.31877,0.25057 c 0,0 -0.35079,-1.403165 -1.60362,-1.753957 -1.25282,-0.350791 -2.00452,0.451018 -2.20497,1.002257 0,0 2.3052,-0.952143 3.80859,0.7517 z m -6.76526,-2.054635 c 1.85418,-1.503391 2.80633,0.451018 2.80633,0.451018 0,0 -1.5535,-0.851923 -2.80633,-0.451018 z m 3.75848,-1.854182 c 0,0 -1.05238,-2.054635 -3.0569,-0.551243 0,0 -1.1526,-1.302939 -2.55576,0.05011 0,0 1.35305,-0.400902 2.50565,0.551246 0,0 1.30294,-1.1526 2.65599,0.250565 0,0 -0.35079,0.200452 -0.65147,0.551244 0,0 1.90429,-0.551244 3.43275,0.275621 0,0 -0.72665,-1.678786 -2.33026,-1.127543 z m -1.50339,-2.255087 c 0,0 -1.05238,-1.403165 -2.50566,-0.200452 0,0 1.80407,-0.150339 2.50566,0.701583 0,0 1.71194,-0.8276 3.03183,-1e-6 -0.80915,-0.988959 -1.73217,-1.535239 -3.03183,-0.50113 z m -4.25961,-0.851921 c 1.20271,-1.202713 2.10474,-0.150339 2.10474,-0.150339 0,0 -1.30293,-0.250565 -2.10474,0.150339 z m 3.05689,-0.451018 c 0.74466,-0.638278 2.04613,-1.030765 3.20724,0.200449 -0.31453,-1.717489 -2.555,-2.431803 -3.20724,-0.200449 z m -2.10475,-1.904295 c 2.15487,-1.904295 3.35758,0.300678 3.35758,0.300678 0,0 -1.90431,-1.00226 -3.35758,-0.300678 z m 4.30973,-1.353052 c 0,0 -1.30294,-2.054635 -3.20724,-0.701583 0,0 -0.95215,-2.004521 -2.60588,-0.400904 0,0 1.65373,-0.651469 2.50566,1.102487 0,0 1.60361,-1.1526 2.7061,0.200452 0,0 -0.50113,0.200452 -0.65147,0.801809 0,0 1.95441,-0.801809 3.03184,0.175395 0,0 -0.47608,-1.227769 -1.77901,-1.177656 z m 1.99226,-0.983541 c 0,0 -0.31891,-1.771763 -2.23242,-1.381975 0,0 -0.6024,-1.94894 -2.79938,-0.992188 0,0 -1.2048,-1.311105 -2.87026,-0.03544 0,0 1.77176,-0.354348 2.5159,0.354358 0,0 -0.28348,0.212611 -0.49609,0.566964 0,0 2.23242,-1.381976 3.22461,0.354353 0,0 -0.46066,0.248046 -0.63784,0.850446 0,0 1.77176,-1.27567 3.29548,0.283482 z m -0.81501,-4.004185 c -0.14805,-0.666218 -0.73085,-1.977741 -2.55133,-1.630022 -0.40387,-0.646183 -1.96581,-1.869608 -3.96876,-0.07088 0,0 2.3033,-0.744136 3.57897,0.248052 0,0 -0.38979,0.177176 -0.67327,0.566964 0,0 1.98437,-1.098493 3.08286,1.027623 0,0 -0.42522,0 -0.92131,0.248047 0,0 -0.35436,-0.779572 -1.48828,-0.885878 -1.13393,-0.106306 -1.73633,1.063058 -1.73633,1.063058 0,0 2.30329,-1.063058 3.43722,1.063058 0,0 0.0709,-0.389788 0,-0.74414 0,0 1.55915,-0.389789 2.6222,0.956752 0,0 -0.31891,-1.559152 -1.38197,-1.842634 z m -8.36272,-0.885882 c 1.94894,-1.559152 3.18917,0.389788 3.18917,0.389788 0,0 -1.9135,-0.815011 -3.18917,-0.389788 z m 3.59403,24.181568 c 1.60362,-1.05237 2.20498,0 2.20498,0 0,0 -1.40317,-0.30068 -2.20498,0 z"
         id="path2152"
         sodipodi:nodetypes="cccccscccccccccccccccccccccccccccccccccccccccccccccccccccccccccccccccccccccccccccccsccccccccccc" />
      <path
         id="path2148"
         style="font-variation-settings:normal;opacity:1;vector-effect:none;fill:#ffffff;fill-opacity:1;stroke:none;stroke-width:0.280656;stroke-linecap:butt;stroke-linejoin:miter;stroke-miterlimit:4;stroke-dasharray:none;stroke-dashoffset:0;stroke-opacity:1;stop-color:#000000;stop-opacity:1"
         d="m 110.90612,78.457245 c -0.99447,0 -1.6597,0.821578 -1.6597,0.821578 -0.92258,-0.431509 -1.81484,-0.643968 -2.65599,0.35079 -1.41129,-0.279741 -2.40498,0.262346 -3.10701,1.703845 -1.39733,0.266046 -2.08541,0.907014 -2.65599,2.405425 0,0 -1.052374,0.300679 -1.202713,1.252827 0,0 0.952143,-0.801808 2.455543,-0.701582 -0.17371,-0.282357 -0.37005,-0.439143 -0.7517,-0.501131 0.96303,-1.542728 2.45654,-2.193346 4.2095,-1.65373 0,0 -0.63688,-0.429879 -1.36112,-0.669313 0.64181,-1.006564 1.54957,-1.783432 4.26767,-0.5334 -0.47839,-0.506987 -0.95678,-0.790921 -1.43517,-0.934802 0.42147,-0.414947 1.18845,-0.77476 2.18687,0.08288 0,0 0.81519,-0.771467 1.86015,-0.671241 1.04496,0.100226 2.0606,1.072145 2.0606,1.072145 -0.4684,-1.293032 -1.22577,-1.994913 -2.21094,-2.024291 z m -2.36131,3.527682 c 0,0 0.65147,-0.952148 2.36131,-0.952148 1.70984,0 2.36131,0.952148 2.36131,0.952148 0,0 -1.10248,-0.300678 -2.36131,-0.300678 -1.25883,0 -2.36131,0.300678 -2.36131,0.300678 z"
         sodipodi:nodetypes="ccccccccccccczcccscsc" />
    </g>
    <g
       id="g2172"
       transform="matrix(0.9426541,0,0,0.9428062,3.6846029,4.1997882)"
       style="stroke-width:1.06075">
      <path
         id="path2156"
         style="font-variation-settings:normal;opacity:1;vector-effect:none;fill:#666666;fill-opacity:1;stroke:none;stroke-width:1.02454;stroke-linecap:butt;stroke-linejoin:miter;stroke-miterlimit:4;stroke-dasharray:none;stroke-dashoffset:0;stroke-opacity:1;stop-color:#000000;stop-opacity:1"
         d="m 498.79102,210.64258 -5.69141,6.20898 -124.11133,194.48828 -4.75586,2.92774 h 101.88086 c 0,-8.53153 -2.55353,-19.25897 -10.27734,-50.0332 -7.72385,-30.77425 9.82217,-53.49374 25.39453,-91.38868 15.57235,-37.89493 15.49101,-48.48597 17.56055,-62.20312 z"
         transform="matrix(0.27395536,0,0,0.27391117,-2.8327028,-3.1742658)"
         sodipodi:nodetypes="cccccssc" />
      <path
         id="path2187"
         style="font-variation-settings:normal;opacity:1;vector-effect:none;fill:#ffffff;fill-opacity:1;stroke:none;stroke-width:1.02454;stroke-linecap:butt;stroke-linejoin:miter;stroke-miterlimit:4;stroke-dasharray:none;stroke-dashoffset:0;stroke-opacity:1;stop-color:#000000;stop-opacity:1"
         d="m 331.55469,210.64258 c 2.06953,13.71715 1.98819,24.30819 17.56054,62.20312 15.57232,37.89494 33.11838,60.61443 25.39454,91.38868 -7.72382,30.77423 -10.27735,41.50167 -10.27735,50.0332 l 4.75586,-2.92774 124.11133,-194.48828 5.69141,-6.20898 c -22.03965,3.86892 -51.88189,8.78125 -83.61914,8.78125 -31.73726,0 -61.57758,-4.91233 -83.61719,-8.78125 z"
         transform="matrix(0.27395536,0,0,0.27391117,-2.8327028,-3.1742658)"
         sodipodi:nodetypes="cssccccsc" />
      <path
         style="font-variation-settings:normal;opacity:1;vector-effect:none;fill:#cccccc;fill-opacity:1;stroke:none;stroke-width:0.280656;stroke-linecap:butt;stroke-linejoin:miter;stroke-miterlimit:4;stroke-dasharray:none;stroke-dashoffset:0;stroke-opacity:1;stop-color:#000000;stop-opacity:1"
         d="m 98.253834,109.49636 c 0.4009,-3.33914 1.63302,-7.5001 3.416916,-14.60659 1.7839,-7.106493 -3.716716,-14.155324 -7.656606,-23.741419 -3.9399,-9.586094 -4.19021,-11.969004 -4.4565,-14.924475 6.03787,1.059742 12.653886,2.063543 21.348476,2.063543 8.69459,0 15.3106,-1.003801 21.34848,-2.063543 -0.26629,2.955471 -0.51661,5.338381 -4.4565,14.924475 -3.93989,9.586095 -9.44051,16.634926 -7.65661,23.741419 1.7839,7.10649 3.01602,11.26745 3.41692,14.60659 z"
         id="path2158"
         sodipodi:nodetypes="czzczczzcc" />
      <path
         id="path2160"
         style="font-variation-settings:normal;opacity:1;vector-effect:none;fill:#ffffff;fill-opacity:1;stroke:none;stroke-width:0.280656;stroke-linecap:butt;stroke-linejoin:miter;stroke-miterlimit:4;stroke-dasharray:none;stroke-dashoffset:0;stroke-opacity:1;stop-color:#000000;stop-opacity:1"
         d="m 110.25093,78.808034 c -0.0658,-11.933692 0.0181,-17.016408 0.65519,-20.520615 v 20.520617 z m 3.31864,0.177725 c 1.11199,-8.71988 1.72771,-13.456716 2.6839,-20.701272 -0.2255,7.108543 -1.01086,12.873559 -2.04318,20.783879 z m 2.88589,0.817013 c 2.44087,-9.205833 3.51505,-14.345695 5.58389,-21.991036 -1.12841,7.566734 -2.74714,13.935334 -4.99121,22.284343 z m 2.69789,1.736665 c 3.90261,-10.072837 5.8626,-15.940591 8.77333,-24.276045 -2.10327,8.368371 -4.70896,15.497422 -8.28656,24.62966 z m -12.15233,-2.365928 c -1.08558,-7.159169 -1.9688,-13.678652 -1.44225,-20.889022 0.2255,7.108543 1.01086,12.873559 2.04318,20.783879 z m -5.40519,3.145504 C 98.118453,74.08881 95.237143,65.882328 93.885568,57.263392 c 2.103271,8.368371 4.708958,15.497422 8.286552,24.62966 z m 2.57117,-1.851146 c -2.22235,-7.542419 -3.77503,-13.918756 -4.394107,-22.656131 1.128407,7.566734 2.747137,13.935334 4.991207,22.284343 z" />
      <path
         id="path2162"
         style="font-variation-settings:normal;opacity:1;vector-effect:none;fill:#666666;fill-opacity:1;stroke:none;stroke-width:0.280656;stroke-linecap:butt;stroke-linejoin:miter;stroke-miterlimit:4;stroke-dasharray:none;stroke-dashoffset:0;stroke-opacity:1;stop-color:#000000;stop-opacity:1"
         d="m 111.56131,78.808034 c 0.0658,-11.933692 -0.0181,-17.016408 -0.65519,-20.520615 v 20.520617 z m 3.24991,0.365475 c 1.08558,-7.159169 1.9688,-13.678652 1.44225,-20.889022 -0.2255,7.108543 -1.01086,12.873559 -2.04318,20.783879 z m 5.40519,3.145504 c 3.47738,-8.230203 6.35869,-16.436685 7.71027,-25.055621 -2.10327,8.368371 -4.70896,15.497422 -8.28656,24.62966 z m -2.57117,-1.851146 c 2.22235,-7.542419 3.77503,-13.918756 4.39411,-22.656131 -1.12841,7.566734 -2.74714,13.935334 -4.99121,22.284343 z m -9.40257,-1.482108 c -1.11199,-8.71988 -1.72771,-13.456716 -2.6839,-20.701272 0.2255,7.108543 1.01086,12.873559 2.04318,20.783879 z m -2.88589,0.817013 c -2.44087,-9.205833 -3.51505,-14.345695 -5.583887,-21.991036 1.128407,7.566734 2.747137,13.935334 4.991207,22.284343 z m -2.69789,1.736665 C 98.756288,71.4666 96.796295,65.598846 93.885568,57.263392 c 2.103271,8.368371 4.708958,15.497422 8.286552,24.62966 z" />
      <path
         style="font-variation-settings:normal;opacity:1;vector-effect:none;fill:#ffffff;fill-opacity:1;stroke:none;stroke-width:0.280656;stroke-linecap:butt;stroke-linejoin:miter;stroke-miterlimit:4;stroke-dasharray:none;stroke-dashoffset:0;stroke-opacity:1;stop-color:#000000;stop-opacity:1"
         d="m 98.004393,107.94348 c 0,0 0.902034,-2.10474 2.655987,-0.85192 0,0 1.15261,-2.50565 4.00905,-0.85192 0,0 1.10249,-1.35305 2.7061,-0.15034 0,0 -2.00452,-0.20045 -2.7061,1.00226 0,0 -1.20271,-0.70158 -2.25509,-0.60136 -1.05237,0.10023 -1.40316,0.85192 -1.40316,0.85192 0,0 0.30067,0.30068 0.35079,0.7517 0,0 -1.904301,-1.05238 -3.357577,-0.15034 z m 2.706107,1.25283 c 0,0 1.60361,-0.60136 3.50791,-0.57631 -2.40542,-1.22776 -3.50791,0.57631 -3.50791,0.57631 z m 7.3165,-5.763 c -1.90429,-1.45328 -3.00678,0.20045 -3.00678,0.20045 -2.20497,-1.35305 -3.60814,0.45102 -3.60814,0.45102 -1.904294,-1.00226 -2.906554,0.75169 -2.906554,0.75169 0,0 2.305204,-0.60135 4.159384,0.40091 0,0 -0.40091,-0.55125 -0.80181,-0.85192 0,0 1.50339,-0.9142 3.20723,-0.0501 1.05238,-1.30295 2.95667,-0.90204 2.95667,-0.90204 z m -5.31198,-1.70384 c 0,0 1.35305,-2.305205 3.30746,-0.15033 0,0 -2.05463,-0.85194 -3.00678,0.40089 0,0 0.30068,0.20045 0.50113,0.50113 0,0 -2.40543,-0.65147 -4.309722,0.82686 0.915512,-1.83671 2.094052,-2.31553 3.507912,-1.57855 z m 5.3621,-1.15261 c -1.35306,-0.90203 -2.15486,0.30068 -2.15486,0.30068 0.10022,0 1.25283,-0.3508 2.15486,-0.30068 z m -8.318768,0.25057 c 0,0 0.350788,-1.403165 1.603618,-1.753957 1.25282,-0.350791 2.00452,0.451018 2.20497,1.002257 0,0 -2.3052,-0.952143 -3.808588,0.7517 z m 6.765258,-2.054635 c -1.85418,-1.503391 -2.80633,0.451018 -2.80633,0.451018 0,0 1.5535,-0.851923 2.80633,-0.451018 z m -3.75848,-1.854182 c 0,0 1.05238,-2.054635 3.0569,-0.551243 0,0 1.1526,-1.302939 2.55576,0.05011 0,0 -1.35305,-0.400902 -2.50565,0.551246 0,0 -1.30294,-1.1526 -2.65599,0.250565 0,0 0.35079,0.200452 0.65147,0.551244 0,0 -1.90429,-0.551244 -3.43275,0.275621 0,0 0.72665,-1.678786 2.33026,-1.127543 z m 1.50339,-2.255087 c 0,0 1.05238,-1.403165 2.50566,-0.200452 0,0 -1.80407,-0.150339 -2.50566,0.701583 0,0 -1.71194,-0.8276 -3.03183,-1e-6 0.80915,-0.988959 1.73217,-1.535239 3.03183,-0.50113 z m 4.25961,-0.851921 c -1.20271,-1.202713 -2.10474,-0.150339 -2.10474,-0.150339 0,0 1.30293,-0.250565 2.10474,0.150339 z m -3.05689,-0.451018 c -0.74466,-0.638278 -2.04613,-1.030765 -3.20724,0.200449 0.31453,-1.717489 2.555,-2.431803 3.20724,-0.200449 z m 2.10475,-1.904295 c -2.15487,-1.904295 -3.35758,0.300678 -3.35758,0.300678 0,0 1.90431,-1.00226 3.35758,-0.300678 z m -4.30973,-1.353052 c 0,0 1.30294,-2.054635 3.20724,-0.701583 0,0 0.95215,-2.004521 2.60588,-0.400904 0,0 -1.65373,-0.651469 -2.50566,1.102487 0,0 -1.60361,-1.1526 -2.7061,0.200452 0,0 0.50113,0.200452 0.65147,0.801809 0,0 -1.95441,-0.801809 -3.03184,0.175395 0,0 0.47608,-1.227769 1.77901,-1.177656 z M 101.274,89.119699 c 0,0 0.31891,-1.771763 2.23242,-1.381975 0,0 0.6024,-1.94894 2.79938,-0.992188 0,0 1.2048,-1.311105 2.87026,-0.03544 0,0 -1.77176,-0.354348 -2.5159,0.354358 0,0 0.28348,0.212611 0.49609,0.566964 0,0 -2.23242,-1.381976 -3.22461,0.354353 0,0 0.46066,0.248046 0.63784,0.850446 0,0 -1.77176,-1.27567 -3.29548,0.283482 z m 0.81501,-4.004185 c 0.14805,-0.666218 0.73085,-1.977741 2.55133,-1.630022 0.40387,-0.646183 1.96581,-1.869608 3.96876,-0.07088 0,0 -2.3033,-0.744136 -3.57897,0.248052 0,0 0.38979,0.177176 0.67327,0.566964 0,0 -1.98437,-1.098493 -3.08286,1.027623 0,0 0.42522,0 0.92131,0.248047 0,0 0.35436,-0.779572 1.48828,-0.885878 1.13393,-0.106306 1.73633,1.063058 1.73633,1.063058 0,0 -2.30329,-1.063058 -3.43722,1.063058 0,0 -0.0709,-0.389788 0,-0.74414 0,0 -1.55915,-0.389789 -2.6222,0.956752 0,0 0.31891,-1.559152 1.38197,-1.842634 z m 8.36272,-0.885882 c -1.94894,-1.559152 -3.18917,0.389788 -3.18917,0.389788 0,0 1.9135,-0.815011 3.18917,-0.389788 z M 106.8577,108.4112 c -1.60362,-1.05237 -2.20498,0 -2.20498,0 0,0 1.40317,-0.30068 2.20498,0 z"
         id="path2164"
         sodipodi:nodetypes="cccccscccccccccccccccccccccccccccccccccccccccccccccccccccccccccccccccccccccccccccccsccccccccccc" />
      <path
         style="font-variation-settings:normal;opacity:1;vector-effect:none;fill:#666666;fill-opacity:1;stroke:none;stroke-width:0.280656;stroke-linecap:butt;stroke-linejoin:miter;stroke-miterlimit:4;stroke-dasharray:none;stroke-dashoffset:0;stroke-opacity:1;stop-color:#000000;stop-opacity:1"
         d="m 112.61593,80.080632 c 0.99842,-0.85764 1.7654,-0.497827 2.18687,-0.08288 -0.47839,0.143881 -0.95678,0.427815 -1.43517,0.934802 2.7181,-1.250032 3.62586,-0.473164 4.26767,0.5334 -0.72424,0.239434 -1.36112,0.669313 -1.36112,0.669313 1.75296,-0.539616 3.24647,0.111002 4.2095,1.65373 -0.38165,0.06199 -0.57799,0.218774 -0.7517,0.501131 1.5034,-0.100226 2.45555,0.701582 2.45555,0.701582 -0.15034,-0.952148 -1.20272,-1.252827 -1.20272,-1.252827 -0.57058,-1.498411 -1.25866,-2.139379 -2.65599,-2.405425 -0.70203,-1.441499 -1.69572,-1.983586 -3.10701,-1.703845 -0.84115,-0.994758 -1.93386,-0.682073 -2.85644,-0.250564 z"
         id="path2168"
         sodipodi:nodetypes="ccccccccccccc" />
      <path
         style="font-variation-settings:normal;opacity:1;vector-effect:none;fill:#666666;fill-opacity:1;stroke:none;stroke-width:0.280656;stroke-linecap:butt;stroke-linejoin:miter;stroke-miterlimit:4;stroke-dasharray:none;stroke-dashoffset:0;stroke-opacity:1;stop-color:#000000;stop-opacity:1"
         d="m 123.80785,107.94348 c 0,0 -0.90203,-2.10474 -2.65599,-0.85192 0,0 -1.15261,-2.50565 -4.00905,-0.85192 0,0 -1.10249,-1.35305 -2.7061,-0.15034 0,0 2.00452,-0.20045 2.7061,1.00226 0,0 1.20271,-0.70158 2.25509,-0.60136 1.05237,0.10023 1.40316,0.85192 1.40316,0.85192 0,0 -0.30067,0.30068 -0.35079,0.7517 0,0 1.90431,-1.05238 3.35758,-0.15034 z m -2.70611,1.25283 c 0,0 -1.60361,-0.60136 -3.50791,-0.57631 2.40542,-1.22776 3.50791,0.57631 3.50791,0.57631 z m -7.3165,-5.763 c 1.90429,-1.45328 3.00678,0.20045 3.00678,0.20045 2.20497,-1.35305 3.60814,0.45102 3.60814,0.45102 1.9043,-1.00226 2.90656,0.75169 2.90656,0.75169 0,0 -2.30521,-0.60135 -4.15939,0.40091 0,0 0.40091,-0.55125 0.80181,-0.85192 0,0 -1.50339,-0.9142 -3.20723,-0.0501 -1.05238,-1.30295 -2.95667,-0.90204 -2.95667,-0.90204 z m 5.31198,-1.70384 c 0,0 -1.35305,-2.305205 -3.30746,-0.15033 0,0 2.05463,-0.85194 3.00678,0.40089 0,0 -0.30068,0.20045 -0.50113,0.50113 0,0 2.40543,-0.65147 4.30973,0.82686 -0.91552,-1.83671 -2.09406,-2.31553 -3.50792,-1.57855 z m -5.3621,-1.15261 c 1.35306,-0.90203 2.15486,0.30068 2.15486,0.30068 -0.10022,0 -1.25283,-0.3508 -2.15486,-0.30068 z m 8.31877,0.25057 c 0,0 -0.35079,-1.403165 -1.60362,-1.753957 -1.25282,-0.350791 -2.00452,0.451018 -2.20497,1.002257 0,0 2.3052,-0.952143 3.80859,0.7517 z m -6.76526,-2.054635 c 1.85418,-1.503391 2.80633,0.451018 2.80633,0.451018 0,0 -1.5535,-0.851923 -2.80633,-0.451018 z m 3.75848,-1.854182 c 0,0 -1.05238,-2.054635 -3.0569,-0.551243 0,0 -1.1526,-1.302939 -2.55576,0.05011 0,0 1.35305,-0.400902 2.50565,0.551246 0,0 1.30294,-1.1526 2.65599,0.250565 0,0 -0.35079,0.200452 -0.65147,0.551244 0,0 1.90429,-0.551244 3.43275,0.275621 0,0 -0.72665,-1.678786 -2.33026,-1.127543 z m -1.50339,-2.255087 c 0,0 -1.05238,-1.403165 -2.50566,-0.200452 0,0 1.80407,-0.150339 2.50566,0.701583 0,0 1.71194,-0.8276 3.03183,-1e-6 -0.80915,-0.988959 -1.73217,-1.535239 -3.03183,-0.50113 z m -4.25961,-0.851921 c 1.20271,-1.202713 2.10474,-0.150339 2.10474,-0.150339 0,0 -1.30293,-0.250565 -2.10474,0.150339 z m 3.05689,-0.451018 c 0.74466,-0.638278 2.04613,-1.030765 3.20724,0.200449 -0.31453,-1.717489 -2.555,-2.431803 -3.20724,-0.200449 z m -2.10475,-1.904295 c 2.15487,-1.904295 3.35758,0.300678 3.35758,0.300678 0,0 -1.90431,-1.00226 -3.35758,-0.300678 z m 4.30973,-1.353052 c 0,0 -1.30294,-2.054635 -3.20724,-0.701583 0,0 -0.95215,-2.004521 -2.60588,-0.400904 0,0 1.65373,-0.651469 2.50566,1.102487 0,0 1.60361,-1.1526 2.7061,0.200452 0,0 -0.50113,0.200452 -0.65147,0.801809 0,0 1.95441,-0.801809 3.03184,0.175395 0,0 -0.47608,-1.227769 -1.77901,-1.177656 z m 1.99226,-0.983541 c 0,0 -0.31891,-1.771763 -2.23242,-1.381975 0,0 -0.6024,-1.94894 -2.79938,-0.992188 0,0 -1.2048,-1.311105 -2.87026,-0.03544 0,0 1.77176,-0.354348 2.5159,0.354358 0,0 -0.28348,0.212611 -0.49609,0.566964 0,0 2.23242,-1.381976 3.22461,0.354353 0,0 -0.46066,0.248046 -0.63784,0.850446 0,0 1.77176,-1.27567 3.29548,0.283482 z m -0.81501,-4.004185 c -0.14805,-0.666218 -0.73085,-1.977741 -2.55133,-1.630022 -0.40387,-0.646183 -1.96581,-1.869608 -3.96876,-0.07088 0,0 2.3033,-0.744136 3.57897,0.248052 0,0 -0.38979,0.177176 -0.67327,0.566964 0,0 1.98437,-1.098493 3.08286,1.027623 0,0 -0.42522,0 -0.92131,0.248047 0,0 -0.35436,-0.779572 -1.48828,-0.885878 -1.13393,-0.106306 -1.73633,1.063058 -1.73633,1.063058 0,0 2.30329,-1.063058 3.43722,1.063058 0,0 0.0709,-0.389788 0,-0.74414 0,0 1.55915,-0.389789 2.6222,0.956752 0,0 -0.31891,-1.559152 -1.38197,-1.842634 z m -8.36272,-0.885882 c 1.94894,-1.559152 3.18917,0.389788 3.18917,0.389788 0,0 -1.9135,-0.815011 -3.18917,-0.389788 z m 3.59403,24.181568 c 1.60362,-1.05237 2.20498,0 2.20498,0 0,0 -1.40317,-0.30068 -2.20498,0 z"
         id="path2170"
         sodipodi:nodetypes="cccccscccccccccccccccccccccccccccccccccccccccccccccccccccccccccccccccccccccccccccccsccccccccccc" />
      <path
         id="path2166"
         style="font-variation-settings:normal;opacity:1;vector-effect:none;fill:#ffffff;fill-opacity:1;stroke:none;stroke-width:0.280656;stroke-linecap:butt;stroke-linejoin:miter;stroke-miterlimit:4;stroke-dasharray:none;stroke-dashoffset:0;stroke-opacity:1;stop-color:#000000;stop-opacity:1"
         d="m 110.90612,78.457245 c -0.99447,0 -1.6597,0.821578 -1.6597,0.821578 -0.92258,-0.431509 -1.81484,-0.643968 -2.65599,0.35079 -1.41129,-0.279741 -2.40498,0.262346 -3.10701,1.703845 -1.39733,0.266046 -2.08541,0.907014 -2.65599,2.405425 0,0 -1.052374,0.300679 -1.202713,1.252827 0,0 0.952143,-0.801808 2.455543,-0.701582 -0.17371,-0.282357 -0.37005,-0.439143 -0.7517,-0.501131 0.96303,-1.542728 2.45654,-2.193346 4.2095,-1.65373 0,0 -0.63688,-0.429879 -1.36112,-0.669313 0.64181,-1.006564 1.54957,-1.783432 4.26767,-0.5334 -0.47839,-0.506987 -0.95678,-0.790921 -1.43517,-0.934802 0.42147,-0.414947 1.18845,-0.77476 2.18687,0.08288 0,0 0.81519,-0.771467 1.86015,-0.671241 1.04496,0.100226 2.0606,1.072145 2.0606,1.072145 -0.4684,-1.293032 -1.22577,-1.994913 -2.21094,-2.024291 z m -2.36131,3.527682 c 0,0 0.65147,-0.952148 2.36131,-0.952148 1.70984,0 2.36131,0.952148 2.36131,0.952148 0,0 -1.10248,-0.300678 -2.36131,-0.300678 -1.25883,0 -2.36131,0.300678 -2.36131,0.300678 z"
         sodipodi:nodetypes="ccccccccccccczcccscsc" />
    </g>
  </g>
</svg>
