<?xml version="1.0" encoding="UTF-8" standalone="no"?>
<!-- Created with Inkscape (http://www.inkscape.org/) -->

<svg
   width="499.99997"
   height="580"
   viewBox="0 0 132.29166 153.45833"
   version="1.1"
   id="svg5"
   xml:space="preserve"
   xmlns="http://www.w3.org/2000/svg"
   xmlns:svg="http://www.w3.org/2000/svg"><defs
     id="defs2" /><path
     style="font-variation-settings:normal;vector-effect:none;fill:#045cd2;fill-opacity:1;stroke:none;stroke-width:0.132292;stroke-linecap:butt;stroke-linejoin:miter;stroke-miterlimit:4;stroke-dasharray:none;stroke-dashoffset:0;stroke-opacity:1;-inkscape-stroke:none;stop-color:#000000"
     d="m 132.29166,0 v 20.957758 l -1.34676,11.509769 1.34676,11.50978 v 57.324753 l -0.89785,10.8753 0.89785,10.87529 c 0,16.18123 -10.15973,16.10598 -28.37197,17.76173 -18.212231,1.65575 -29.425551,3.76308 -37.773868,12.64395 -8.348301,-8.88087 -19.561621,-10.9882 -37.77386,-12.64395 C 10.15972,139.15863 2e-6,139.23388 2e-6,123.05265 L 0.897842,112.17736 0,101.30206 V 43.977307 L 1.346762,32.467527 0,20.957758 2e-6,0 Z"
     id="path4781" /><path
     id="path15322"
     style="fill:#003166;fill-opacity:1;fill-rule:evenodd;stroke:none;stroke-width:0.132292;stroke-miterlimit:10;stop-color:#000000"
     d="m 102.51969,50.245487 c -5.014471,3.4e-4 -10.512661,3.86297 -10.894221,8.86317 -3.25471,0.24839 -6.02584,2.10248 -7.56501,4.74901 v -0.002 h -5.36952 v -1.59936 c 0,-0.65658 -0.44618,-1.18462 -1.65099,-1.18462 -1.2048,0 -1.62587,0.5285 -1.65014,1.18462 l -0.0587,1.59936 H 16.946845 c -0.810139,0 -1.390337,0.65581 -1.461624,1.46346 l -0.592714,6.70702 c -0.07128,0.80763 0.65236,1.46347 1.462499,1.46347 h 6.048151 l -0.897842,16.2673 0.897842,0.89788 h 7.548353 v -4.83669 l -0.897842,-0.8979 -3.29939,0.8979 v -4.83583 h 4.197232 v -4.83669 h 4.197231 l -0.897841,3.93881 0.897841,0.89788 h 4.198107 v 4.83583 l -5.095948,3.93881 0.897841,0.89788 h 7.549228 v -17.16518 h 33.27712 l -0.0307,0.83738 c -0.0243,0.65612 0.44621,1.18462 1.65101,1.18462 h 0.44454 c 1.20481,0 1.651,-0.52806 1.651,-1.18462 v -0.83738 c 1.68871,-0.515 3.41506,-0.44048 5.06614,0 1.28926,2.77714 3.85947,4.74813 7.86838,4.74813 0.0102,5.39902 4.54998,8.86201 9.564121,8.86232 5.01379,-7.6e-4 9.18128,-3.86278 9.56324,-8.86232 4.99989,-0.38158 8.86231,-4.54993 8.86267,-9.56466 1.5e-4,-5.01478 -3.0612,-9.56554 -8.86181,-9.56554 0.12352,-5.15951 -3.21985,-8.862 -8.234,-8.86232 z m -1.3301,4.32811 c 2.90761,0 5.26429,2.3577 5.26429,5.26548 0,1.4539 -0.0986,3.26048 -1.05128,4.21326 l 1.14334,0.38056 c 0,0 1.19786,-1.02504 3.4765,-1.02504 2.90762,0 5.26518,2.3577 5.26518,5.26547 0,2.90778 -2.35756,5.2646 -5.26518,5.2646 -1.4538,0 -2.76928,-0.5887 -3.72199,-1.5415 l -1.38886,1.38805 c 0.95273,0.95278 1.54229,2.26921 1.54229,3.72311 0,2.90778 -2.35668,5.2646 -5.26429,5.2646 -2.907611,0 -5.265171,-2.35682 -5.265171,-5.2646 0,-2.332 0.92151,-3.10229 0.92151,-3.10229 l -0.27707,-1.51871 c -0.95272,0.95279 -2.7592,1.05134 -4.21301,1.05134 -2.90761,0 -5.26517,-2.35682 -5.26517,-5.2646 0,-2.90777 2.35756,-5.26547 5.26517,-5.26547 1.45381,0 2.31686,0.93593 3.26957,1.88873 l 1.94737,-1.94749 c -0.95274,-0.95276 -1.64837,-2.05612 -1.64837,-3.51002 0,-2.90778 2.35756,-5.26548 5.265171,-5.26548 z" /><path
     id="path6462"
     style="font-variation-settings:normal;vector-effect:none;fill:#003166;fill-opacity:1;stroke:none;stroke-width:0.132292;stroke-linecap:butt;stroke-linejoin:miter;stroke-miterlimit:4;stroke-dasharray:none;stroke-dashoffset:0;stroke-opacity:1;-inkscape-stroke:none;stop-color:#000000"
     d="m 127.75029,36.811467 4.54137,5.89686 v 1.26898 c -7.92113,0 -14.1278,-4.90551 -22.04927,-4.90551 -7.92144,0 -14.126741,4.90551 -22.047951,4.90551 -7.92127,0 -14.12663,-4.90551 -22.047947,-4.90551 -7.921301,0 -14.127961,4.90551 -22.049261,4.90551 -7.921325,0 -14.127952,-4.90551 -22.049273,-4.90551 -7.921307,0 -14.12665,4.90551 -22.047958,4.90551 v -1.26898 l 4.540059,-5.89686 z" /><path
     id="path20012"
     style="font-variation-settings:normal;vector-effect:none;fill:#c7c7c7;fill-opacity:1;stroke:none;stroke-width:0.132292;stroke-linecap:butt;stroke-linejoin:miter;stroke-miterlimit:4;stroke-dasharray:none;stroke-dashoffset:0;stroke-opacity:1;-inkscape-stroke:none;stop-color:#000000"
     d="m 110.24239,16.686549 v 21.116278 c 7.92131,0 14.12751,4.90597 22.04883,4.90597 V 21.592525 c -7.92132,0 -14.12752,-4.905976 -22.04883,-4.905976 z m -44.095898,0 v 21.116278 c 7.921317,0 14.127517,4.90597 22.048827,4.90597 V 21.592525 c -7.92131,0 -14.12751,-4.905976 -22.048827,-4.905976 z m -44.098439,-1.7e-4 v 21.116278 c 7.921314,0 14.127522,4.90597 22.048838,4.90597 V 21.592355 c -7.921316,0 -14.127524,-4.905976 -22.048838,-4.905976 z" /><path
     id="path4858"
     style="font-variation-settings:normal;vector-effect:none;fill:#d1d1d1;fill-opacity:1;stroke:none;stroke-width:0.132292;stroke-linecap:butt;stroke-linejoin:miter;stroke-miterlimit:4;stroke-dasharray:none;stroke-dashoffset:0;stroke-opacity:1;-inkscape-stroke:none;stop-color:#000000"
     d="m 22.048053,16.686379 c -7.921299,0 -14.126658,5.539943 -22.047958,5.539943 v 20.482305 c 7.9213,0 14.126659,-4.90597 22.047958,-4.90597 3.057708,-5.52091 2.0479,-16.247794 0,-21.116278 z m 44.098549,0 c -7.921301,0 -14.128411,4.905976 -22.049711,4.905976 -2.3786,7.906854 -2.726934,15.188982 0,21.116272 7.9213,0 14.12841,-4.90597 22.049711,-4.90597 3.057707,-5.52091 2.0479,-16.247794 0,-21.116278 z m 44.095918,0 c -7.92114,0 -14.126311,4.905626 -22.047081,4.905976 -2.3786,7.906854 -2.72693,15.188982 0,21.116272 7.92077,-3.7e-4 14.125941,-4.90597 22.047081,-4.90597 3.05771,-5.52091 2.0479,-16.247794 0,-21.116278 z" /><path
     id="path6767"
     style="font-variation-settings:normal;vector-effect:none;fill:#003166;fill-opacity:1;stroke:none;stroke-width:0.132292;stroke-linecap:butt;stroke-linejoin:miter;stroke-miterlimit:4;stroke-dasharray:none;stroke-dashoffset:0;stroke-opacity:1;-inkscape-stroke:none;stop-color:#000000"
     d="m 4.540155,117.15574 -4.54006,5.8968 c 0,0.43626 0.01069,0.85494 0.02543,1.26792 7.909071,-0.0102 14.10977,-4.9042 22.022531,-4.9042 7.921314,0 14.127522,4.90508 22.048845,4.90508 7.92129,0 14.12841,-4.90508 22.049711,-4.90508 7.921297,0 14.126687,4.90508 22.047957,4.90508 7.92121,0 14.126531,-4.90508 22.047961,-4.90508 7.91292,0 14.1145,4.89365 22.0234,4.9042 0.0153,-0.41298 0.0254,-0.83166 0.0254,-1.26792 l -4.54093,-5.8968 z" /><path
     id="path20236"
     style="font-variation-settings:normal;vector-effect:none;fill:#c7c7c7;fill-opacity:1;stroke:none;stroke-width:0.132292;stroke-linecap:butt;stroke-linejoin:miter;stroke-miterlimit:4;stroke-dasharray:none;stroke-dashoffset:0;stroke-opacity:1;-inkscape-stroke:none;stop-color:#000000"
     d="m 110.24239,97.030457 v 21.116273 c 7.92131,0 14.12751,4.90598 22.04883,4.90598 v -21.11628 c -7.92132,0 -14.12752,-4.905973 -22.04883,-4.905973 z m -44.095898,0 v 21.116273 c 7.921317,0 14.127517,4.90598 22.048827,4.90598 v -21.11628 c -7.92131,0 -14.12751,-4.905973 -22.048827,-4.905973 z m -44.098439,-1.7e-4 v 21.116273 c 7.921314,0 14.127522,4.90598 22.048838,4.90598 v -21.11628 c -7.921316,0 -14.127524,-4.905973 -22.048838,-4.905973 z" /><path
     id="path20238"
     style="font-variation-settings:normal;vector-effect:none;fill:#d1d1d1;fill-opacity:1;stroke:none;stroke-width:0.132292;stroke-linecap:butt;stroke-linejoin:miter;stroke-miterlimit:4;stroke-dasharray:none;stroke-dashoffset:0;stroke-opacity:1;-inkscape-stroke:none;stop-color:#000000"
     d="m 22.048053,97.030287 c -7.921299,0 -14.126658,5.539943 -22.047958,5.539943 v 20.48231 c 7.9213,0 14.126659,-4.90598 22.047958,-4.90598 3.057708,-5.52091 2.0479,-16.24779 0,-21.116273 z m 44.098549,0 c -7.921301,0 -14.128411,4.905973 -22.049711,4.905973 -2.3786,7.90685 -2.726934,15.18898 0,21.11628 7.9213,0 14.12841,-4.90598 22.049711,-4.90598 3.057707,-5.52091 2.0479,-16.24779 0,-21.116273 z m 44.095918,0 c -7.92114,0 -14.126311,4.905623 -22.047081,4.905973 -2.3786,7.90685 -2.72693,15.18898 0,21.11628 7.92077,-3.7e-4 14.125941,-4.90598 22.047081,-4.90598 3.05771,-5.52091 2.0479,-16.24779 0,-21.116273 z" /><path
     id="path4794"
     style="font-variation-settings:normal;vector-effect:none;fill:#ffffff;fill-opacity:1;stroke:none;stroke-width:0.132292;stroke-linecap:butt;stroke-linejoin:miter;stroke-miterlimit:4;stroke-dasharray:none;stroke-dashoffset:0;stroke-opacity:1;-inkscape-stroke:none;stop-color:#000000"
     d="m 0,20.957758 c 7.921308,0 14.126651,-4.905506 22.047958,-4.905506 7.921321,0 14.127948,4.905506 22.049273,4.905506 7.9213,0 14.12796,-4.905506 22.049261,-4.905506 7.921317,0 14.126677,4.905506 22.047947,4.905506 7.92121,0 14.126511,-4.905506 22.047951,-4.905506 7.92147,0 14.12814,4.905506 22.04927,4.905506 v 1.268964 c -7.92113,0 -14.1278,-4.905496 -22.04927,-4.905496 -7.92144,0 -14.126741,4.905496 -22.047951,4.905496 -7.92127,0 -14.12663,-4.905496 -22.047947,-4.905496 -7.921301,0 -14.127961,4.905496 -22.049261,4.905496 -7.921325,0 -14.127952,-4.905496 -22.049273,-4.905496 -7.921307,0 -14.12665,4.905496 -22.047958,4.905496 z" /><path
     id="path4860"
     style="font-variation-settings:normal;vector-effect:none;fill:#ffffff;fill-opacity:1;stroke:none;stroke-width:0.132292;stroke-linecap:butt;stroke-linejoin:miter;stroke-miterlimit:4;stroke-dasharray:none;stroke-dashoffset:0;stroke-opacity:1;-inkscape-stroke:none;stop-color:#000000"
     d="m 0,101.30206 c 7.921308,0 14.126651,-4.905493 22.047958,-4.905493 7.921321,0 14.127948,4.905493 22.049273,4.905493 7.9213,0 14.12796,-4.905493 22.049261,-4.905493 7.921317,0 14.126677,4.905493 22.047947,4.905493 7.92121,0 14.126511,-4.905493 22.047951,-4.905493 7.92147,0 14.12814,4.905493 22.04927,4.905493 v 1.26898 c -7.92113,0 -14.1278,-4.905503 -22.04927,-4.905503 -7.92144,0 -14.126741,4.905503 -22.047951,4.905503 -7.92127,0 -14.12663,-4.905503 -22.047947,-4.905503 -7.921301,0 -14.127961,4.905503 -22.049261,4.905503 -7.921325,0 -14.127952,-4.905503 -22.049273,-4.905503 -7.921307,0 -14.12665,4.905503 -22.047958,4.905503 z" /><g
     id="g18453"
     transform="matrix(1.6967074,0,0,1.6968062,-98.511649,-158.87765)"
     style="stroke-width:0.58936"><path
       id="rect8366"
       style="opacity:1;fill:#bf9f4f;fill-opacity:1;fill-rule:evenodd;stroke:none;stroke-width:0.0779675;stroke-miterlimit:10;stop-color:#000000"
       d="m 117.17011,122.71602 c -2.95541,2e-4 -5.41199,2.27662 -5.63687,5.22346 -1.8571,0.14267 -3.52478,1.19086 -4.45864,2.80241 v -0.005 c 0,0 -0.83946,0.26458 -1.58233,0.26458 -0.74287,0 -1.58233,-0.26458 -1.58233,-0.26458 v -0.493 c 0,-0.38695 -0.26298,-0.69866 -0.97307,-0.69866 -0.71008,0 -0.97255,0.31171 -0.97255,0.69866 v 0.493 H 67.519392 c -0.477477,0 -0.861446,0.38465 -0.861446,0.86248 v 3.95273 c 0,0.47782 0.383969,0.86248 0.861446,0.86248 h 3.215824 v 10.11618 h 4.448824 v -2.85048 h -2.473751 v -2.84995 h 2.473751 v -2.85047 h 2.473751 v 2.85047 h 2.474268 v 2.84995 h -2.474268 v 2.85048 h 4.449341 v -10.11618 h 19.857188 v 0.49351 c 0,0.38694 0.26247,0.69815 0.97255,0.69815 0.71009,0 0.97307,-0.31121 0.97307,-0.69815 v -0.49351 c 0,0 0.83946,-0.26458 1.58233,-0.26458 0.74287,0 1.58233,0.26458 1.58233,0.26458 v -0.004 c 0.93385,1.61155 2.60154,2.65975 4.45864,2.80242 0.22514,2.94663 2.68165,5.22275 5.63687,5.22293 2.95502,-4.5e-4 5.41123,-2.2765 5.63635,-5.22293 2.94684,-0.22488 5.22325,-2.68146 5.22345,-5.63687 9e-5,-2.95542 -2.27611,-5.41223 -5.22294,-5.63738 -0.22513,-2.94663 -2.68164,-5.22275 -5.63686,-5.22294 z m 0,2.55075 c 1.71368,0 3.10265,1.38949 3.10265,3.10317 0,0.85684 -0.34747,1.63267 -0.90899,2.19418 l 0.81856,0.81804 c 0.56151,-0.56152 1.33682,-0.90899 2.19366,-0.90899 1.71368,0 3.10317,1.38949 3.10317,3.10317 0,1.71368 -1.38949,3.10265 -3.10317,3.10265 -0.85684,0 -1.63215,-0.34695 -2.19366,-0.90847 l -0.81856,0.81804 c 0.56152,0.56151 0.90899,1.33734 0.90899,2.19418 0,1.71368 -1.38897,3.10265 -3.10265,3.10265 -1.71368,0 -3.10317,-1.38897 -3.10317,-3.10265 0,-0.85684 0.34747,-1.63267 0.90899,-2.19418 l -0.81856,-0.81804 c -0.56151,0.56152 -1.33682,0.90847 -2.19366,0.90847 -1.71368,0 -3.10317,-1.38897 -3.10317,-3.10265 0,-1.71368 1.38949,-3.10317 3.10317,-3.10317 0.85684,0 1.63215,0.34747 2.19366,0.90899 l 0.81856,-0.81804 c -0.56152,-0.56151 -0.90899,-1.33734 -0.90899,-2.19418 0,-1.71368 1.38949,-3.10317 3.10317,-3.10317 z" /><path
       id="path13946"
       style="opacity:1;fill:#ffffff;fill-rule:evenodd;stroke:none;stroke-width:0.0779675;stroke-miterlimit:10;stop-color:#000000"
       d="m 104.15625,132.48387 c 1.09013,0.24154 2.03437,0.18429 2.91835,0 v -0.69564 c -0.958,0.21056 -1.916,0.34674 -2.874,0 z m -1.98679,-0.69564 H 67.716033 c -0.477477,0 -0.425963,-0.74122 -0.196641,-1.05099 -0.477477,0 -0.861446,0.38465 -0.861446,0.86248 v 3.95273 c 0,0.47782 0.383969,0.86248 0.861446,0.86248 -0.459844,-0.63369 -0.332661,-1.8323 -0.332661,-2.84852 0,-0.47783 0.05183,-1.08254 0.529302,-1.08254 h 34.505237 z" /><path
       id="path8570"
       style="opacity:1;fill:#ffffff;fill-opacity:1;fill-rule:evenodd;stroke:none;stroke-width:0.0779675;stroke-miterlimit:10;stroke-dasharray:none;stop-color:#000000"
       d="m 70.735216,-136.9441 v -9.58701 h 0.529167 v 9.58701 z m 6.922575,-1.03611 v -2.85047 h 0.529167 v 2.32132 z m 2.474268,-2.85047 v -2.84995 h -2.474268 v -2.85048 h 0.529167 v 2.32131 h 2.474267 v 2.84997 z m -7.42177,-2.84995 0.529167,-0.52916 1.944584,-1e-5 v 0.52917 z"
       transform="scale(1,-1)" /><path
       id="path8575"
       style="opacity:1;fill:#ffffff;fill-rule:evenodd;stroke:none;stroke-width:0.0779675;stroke-miterlimit:10;stop-color:#000000"
       d="m 102.93687,129.54558 c -0.71008,0 -0.97255,0.31171 -0.97255,0.69866 v 6.6642 c 0,0.29448 0.15221,0.54446 0.53795,0.6475 -0.006,-0.0385 -0.009,-0.0779 -0.009,-0.11834 v -5.00477 -2.10301 c 0,-0.57216 1.0444,-0.53397 1.40715,-0.20497 -0.0513,-0.32975 -0.32831,-0.57929 -0.96376,-0.57929 z" /><path
       id="path20231"
       style="opacity:1;fill:#ffffff;fill-rule:evenodd;stroke:none;stroke-width:0.0779675;stroke-miterlimit:10;stop-color:#000000"
       d="m 103.90994,131.09987 c 0,0 0.79031,0.26458 1.58233,0.26458 0.79202,0 1.58233,-0.26458 1.58233,-0.26458 v -0.36298 c 0,0 -0.79031,0.26458 -1.58233,0.26458 -0.79202,0 -1.58233,-0.26458 -1.58233,-0.26458 z m -36.675892,0 h 34.987222 l -0.0518,-0.36298 H 67.519392 Z" /><path
       id="path8580"
       style="opacity:1;fill:#75510a;fill-opacity:1;fill-rule:evenodd;stroke:none;stroke-width:0.0779675;stroke-miterlimit:10;stop-color:#000000"
       d="m 103.90993,130.73724 v 5.67769 l 0.52917,-0.11613 v -5.44267 z" /><path
       id="path11022"
       style="opacity:1;fill:#75510a;fill-opacity:1;fill-rule:evenodd;stroke:none;stroke-width:0.0779675;stroke-miterlimit:10;stop-color:#000000"
       d="M 82.107129,136.41493 H 70.735216 v 0.52917 h 11.371913 z" /><path
       id="path11027"
       style="opacity:1;fill:#ffffff;fill-opacity:1;fill-rule:evenodd;stroke:none;stroke-width:0.0779669;stroke-miterlimit:10;stroke-dasharray:none;stop-color:#000000"
       d="m 117.17011,122.71602 a 5.6536455,5.6536455 0 0 0 -5.63687,5.22346 5.6536455,5.6536455 0 0 0 -5.22345,5.63686 5.6536455,5.6536455 0 0 0 1.93373,4.25607 c -0.87578,-0.99816 -1.40446,-2.30433 -1.40456,-3.7269 2e-4,-2.95541 2.27661,-5.41199 5.22345,-5.63687 0.22488,-2.94683 2.68146,-5.22325 5.63686,-5.22345 1.42563,9e-5 2.73412,0.53109 3.73311,1.41025 a 5.6536455,5.6536455 0 0 0 -4.26227,-1.93942 z m 2.44171,3.74086 c 0.41354,0.52725 0.66094,1.19103 0.66094,1.91306 0,0.85684 -0.34747,1.63267 -0.90899,2.19418 l 0.52917,0.52917 c 0.56152,-0.56151 0.90899,-1.33734 0.90899,-2.19418 0,-0.99178 -0.46597,-1.87413 -1.19011,-2.44223 z m 3.19515,1.48208 c 0.0159,0.17272 0.009,0.34566 0,0.52917 1.73304,0.13241 3.41649,1.03749 4.5098,2.36109 a 5.6536455,5.6536455 0 0 0 -4.5098,-2.89026 z m 2.01125,3.72432 c 0.41365,0.52725 0.66094,1.19103 0.66094,1.91306 0,1.71368 -1.38949,3.10265 -3.10317,3.10265 -0.85684,0 -1.63215,-0.34695 -2.19366,-0.90847 l -0.81856,0.81804 c 0.56152,0.56151 0.90899,1.33734 0.90899,2.19418 0,1.71368 -1.38897,3.10265 -3.10265,3.10265 -0.72222,0 -1.38627,-0.24772 -1.91358,-0.66145 0.56809,0.72449 1.45069,1.19062 2.44274,1.19062 1.71368,0 3.10266,-1.55388 3.10266,-3.10265 0,-1.54877 -0.44589,-2.25973 -0.64441,-2.45825 l 0.28939,-0.28939 c 0.19851,0.19851 0.90841,0.64389 2.45825,0.64389 1.54984,0 3.10317,-1.38897 3.10317,-3.10265 0,-0.99178 -0.46582,-1.87413 -1.19011,-2.44223 z m -10.66085,4.10724 c -0.56151,0.56152 -1.33682,0.90847 -2.19366,0.90847 -0.72222,0 -1.38627,-0.24772 -1.91358,-0.66145 0.56809,0.72449 1.45069,1.19062 2.44274,1.19062 0.85684,0 1.63216,-0.34695 2.19367,-0.90847 z m -2.62413,3.44269 a 5.6536455,5.6536455 0 0 0 2.8143,4.46432 c -1.28575,-1.08224 -2.16242,-2.72004 -2.29237,-4.42092 -0.17643,-0.0135 -0.35066,-0.0277 -0.52193,-0.0434 z" /><path
       style="opacity:1;fill:#ffffff;fill-rule:evenodd;stroke:none;stroke-width:0.0779675;stroke-miterlimit:10;stop-color:#000000"
       d="m 102.22681,131.07816 c 0.68654,-0.15481 1.31638,-0.11654 1.68312,0 v 0.69564 c -0.55252,-0.21056 -1.06622,-0.11942 -1.65754,0 z"
       id="path20297" /></g></svg>
