<?xml version="1.0" encoding="UTF-8" standalone="no"?>
<svg xmlns:dc="http://purl.org/dc/elements/1.1/" xmlns:cc="http://creativecommons.org/ns#" xmlns:rdf="http://www.w3.org/1999/02/22-rdf-syntax-ns#" xmlns:svg="http://www.w3.org/2000/svg" xmlns="http://www.w3.org/2000/svg" width="500" height="565" viewBox="0 0 132.29166 149.48959" version="1.1" id="svg847">
  <defs id="defs841"/>
  <metadata id="metadata844">
    <rdf:RDF>
      <cc:Work rdf:about="">
        <dc:format>image/svg+xml</dc:format>
        <dc:type rdf:resource="http://purl.org/dc/dcmitype/StillImage"/>
        <dc:title/>
      </cc:Work>
    </rdf:RDF>
  </metadata>
  <g id="layer1" transform="translate(-41.710114,-64.262225)">
    <path id="path847" style="fill:#000000;stroke:none;stroke-width:0.264581;paint-order:fill markers stroke" d="m 55.817318,188.43639 c 12.110267,15.41479 30.918673,25.31542 52.038892,25.31542 21.12023,0 39.92863,-9.90063 52.0389,-25.31542 l 14.10667,-56.09622 V 64.262225 H 41.710114 v 68.077945 z"/>
    <path id="path849" style="fill:#cccccc;fill-opacity:1;stroke:none;stroke-width:0.264581;paint-order:fill markers stroke" d="m 45.010534,168.28532 c 2.426038,7.375 6.113412,14.17702 10.806784,20.15107 H 159.89511 c 4.69336,-5.97405 8.38089,-12.77606 10.80678,-20.15107 l 2.07427,-7.95768 c 0.80367,-4.12204 1.22562,-8.38072 1.22562,-12.73801 V 132.34017 H 41.710114 v 15.24946 c 0,4.3181 0.414139,8.53944 1.203826,12.62685 z"/>
    <path id="use1026" style="font-variation-settings:normal;vector-effect:none;fill:#f90606;fill-opacity:1;stroke:none;stroke-width:0.132292;stroke-linecap:butt;stroke-linejoin:miter;stroke-miterlimit:4;stroke-dasharray:none;stroke-dashoffset:0;stroke-opacity:1;stop-color:#000000" d="m 49.672168,147.26626 c -2.723417,0.0454 -5.180634,2.53809 -4.088968,6.60728 0.895667,3.33858 -0.600032,5.60814 -2.66926,6.34294 0.532103,2.75419 1.234418,5.44788 2.096594,8.06884 H 170.70189 c 0.85051,-2.58567 1.54483,-5.24219 2.07427,-7.95768 -0.61556,0.1633 -1.2696,0.19891 -1.92113,0.0873 2.15161,-1.49178 1.84456,-3.72905 0.1477,-6.54134 -1.69688,-2.81229 -1.10187,-5.0501 1.04974,-6.54187 -3.02715,-0.51888 -6.14379,2.05174 -4.93919,6.54187 1.2046,4.49013 -1.91206,7.06022 -4.9392,6.54134 2.15162,-1.49178 1.84457,-3.72905 0.1477,-6.54134 -1.69687,-2.81229 -1.10189,-5.0501 1.04975,-6.54187 -3.02715,-0.51888 -6.1438,2.05174 -4.9392,6.54187 1.2046,4.49013 -1.91153,7.06022 -4.93867,6.54134 2.15162,-1.49178 1.84457,-3.72905 0.14771,-6.54134 -1.69688,-2.81229 -1.10188,-5.0501 1.04974,-6.54187 -3.02714,-0.51888 -6.1438,2.05174 -4.9392,6.54187 1.20459,4.49013 -1.91205,7.06022 -4.93919,6.54134 2.15161,-1.49178 1.84458,-3.72905 0.1477,-6.54134 -1.69686,-2.81229 -1.10188,-5.0501 1.04974,-6.54187 -3.02716,-0.51888 -6.14379,2.05174 -4.93919,6.54187 1.2046,4.49013 -1.91206,7.06022 -4.9392,6.54134 2.15162,-1.49178 1.84456,-3.72905 0.1477,-6.54134 -1.69688,-2.81229 -1.10135,-5.0501 1.05028,-6.54187 -3.02714,-0.51888 -6.1438,2.05174 -4.9392,6.54187 1.2046,4.49013 -1.91205,7.06022 -4.9392,6.54134 2.15162,-1.49178 1.84457,-3.72905 0.1477,-6.54134 -1.69686,-2.81229 -1.10187,-5.0501 1.04975,-6.54187 -3.02715,-0.51888 -6.1438,2.05174 -4.9392,6.54187 1.2046,4.49013 -1.91205,7.06022 -4.9392,6.54134 2.15161,-1.49178 1.84457,-3.72905 0.14771,-6.54134 -1.69688,-2.81229 -1.10187,-5.0501 1.04974,-6.54187 -3.02714,-0.51888 -6.14326,2.05174 -4.93866,6.54187 1.2046,4.49013 -1.91205,7.06022 -4.9392,6.54134 2.15162,-1.49178 1.84456,-3.72905 0.1477,-6.54134 -1.69688,-2.81229 -1.10187,-5.0501 1.04975,-6.54187 -3.02715,-0.51888 -6.14381,2.05174 -4.9392,6.54187 1.2046,4.49013 -1.91205,7.06022 -4.9392,6.54134 2.15162,-1.49178 1.84458,-3.72905 0.14771,-6.54134 -1.69687,-2.81229 -1.10188,-5.0501 1.04973,-6.54187 -3.027142,-0.51888 -6.143789,2.05174 -4.939189,6.54187 1.204599,4.49013 -1.911518,7.06022 -4.938665,6.54134 2.151618,-1.49178 1.844574,-3.72905 0.147706,-6.54134 -1.696869,-2.81229 -1.101876,-5.0501 1.04974,-6.54187 -3.027145,-0.51888 -6.143795,2.05174 -4.939197,6.54187 1.204597,4.49013 -1.91205,7.06022 -4.939198,6.54134 2.151619,-1.49178 1.844578,-3.72905 0.147706,-6.54134 -1.696868,-2.81229 -1.101875,-5.0501 1.049741,-6.54187 -3.027145,-0.51888 -6.143795,2.05174 -4.939197,6.54187 1.204598,4.49013 -1.91205,7.06022 -4.939197,6.54134 2.151619,-1.49178 1.844576,-3.72905 0.147706,-6.54134 -1.696868,-2.81229 -1.101344,-5.0501 1.050273,-6.54187 -3.027147,-0.51888 -6.143797,2.05174 -4.939196,6.54187 1.204598,4.49013 -1.912052,7.06022 -4.939197,6.54134 2.151615,-1.49178 1.844574,-3.72905 0.147706,-6.54134 -1.696872,-2.81229 -1.101878,-5.0501 1.04974,-6.54187 -3.027148,-0.51888 -6.143798,2.05174 -4.939197,6.54187 1.204598,4.49013 -1.912053,7.06022 -4.939197,6.54134 2.151615,-1.49178 1.844574,-3.72905 0.147705,-6.54134 -1.696868,-2.81229 -1.101878,-5.0501 1.049741,-6.54187 -3.027147,-0.51888 -6.143265,2.05174 -4.938666,6.54187 1.204597,4.49013 -1.91205,7.06022 -4.939197,6.54134 2.151618,-1.49178 1.844576,-3.72905 0.147706,-6.54134 -1.696868,-2.81229 -1.101876,-5.0501 1.04974,-6.54187 -0.283795,-0.0487 -0.568496,-0.0701 -0.850229,-0.0654 z"/>
    <g id="g1214" style="stroke-width:0.971741" transform="matrix(1.0289513,0,0,1.0292099,-1.2075633,-1.8770906)">
      <path id="path1211" style="font-variation-settings:normal;vector-effect:none;fill:#aa0000;fill-opacity:1;stroke:none;stroke-width:0.485872;stroke-linecap:butt;stroke-linejoin:miter;stroke-miterlimit:4;stroke-dasharray:none;stroke-dashoffset:0;stroke-opacity:1;stop-color:#000000" d="m 182.96358,595.59971 c 7.41911,-6.78495 7.37975,-13.97532 1.63658,-23.64268 -5.74317,-9.66736 -4.90048,-21.75957 5.41351,-24.02344 -7.90328,5.47816 -8.43213,13.69596 -2.19922,24.02344 6.23292,10.32748 5.70407,18.54333 -2.19922,24.02149 z" transform="scale(0.26458333)"/>
      <path id="path1216" style="font-variation-settings:normal;vector-effect:none;fill:#aa0000;fill-opacity:1;stroke:none;stroke-width:0.128554;stroke-linecap:butt;stroke-linejoin:miter;stroke-miterlimit:4;stroke-dasharray:none;stroke-dashoffset:0;stroke-opacity:1;stop-color:#000000" d="m 56.845292,157.58575 c 1.962973,-1.79518 1.952559,-3.69763 0.433012,-6.25545 -1.519547,-2.55783 -1.296586,-5.75722 1.432324,-6.35621 -2.091076,1.44943 -2.231001,3.62373 -0.581877,6.35621 1.649127,2.73247 1.509202,4.90625 -0.581877,6.35568 z"/>
      <path id="path1218" style="font-variation-settings:normal;vector-effect:none;fill:#aa0000;fill-opacity:1;stroke:none;stroke-width:0.128554;stroke-linecap:butt;stroke-linejoin:miter;stroke-miterlimit:4;stroke-dasharray:none;stroke-dashoffset:0;stroke-opacity:1;stop-color:#000000" d="m 65.281986,157.58575 c 1.962973,-1.79518 1.952559,-3.69763 0.433012,-6.25545 -1.519547,-2.55783 -1.296585,-5.75722 1.432325,-6.35621 -2.091076,1.44943 -2.231001,3.62373 -0.581877,6.35621 1.649127,2.73247 1.509202,4.90625 -0.581877,6.35568 z"/>
      <path id="path1220" style="font-variation-settings:normal;vector-effect:none;fill:#aa0000;fill-opacity:1;stroke:none;stroke-width:0.128554;stroke-linecap:butt;stroke-linejoin:miter;stroke-miterlimit:4;stroke-dasharray:none;stroke-dashoffset:0;stroke-opacity:1;stop-color:#000000" d="m 73.718165,157.58575 c 1.962973,-1.79518 1.952559,-3.69763 0.433012,-6.25545 -1.519547,-2.55783 -1.296586,-5.75722 1.432324,-6.35621 -2.091076,1.44943 -2.231001,3.62373 -0.581877,6.35621 1.649127,2.73247 1.509202,4.90625 -0.581877,6.35568 z"/>
      <path id="path1222" style="font-variation-settings:normal;vector-effect:none;fill:#aa0000;fill-opacity:1;stroke:none;stroke-width:0.128554;stroke-linecap:butt;stroke-linejoin:miter;stroke-miterlimit:4;stroke-dasharray:none;stroke-dashoffset:0;stroke-opacity:1;stop-color:#000000" d="m 82.154857,157.58575 c 1.962973,-1.79518 1.952559,-3.69763 0.433012,-6.25545 -1.519547,-2.55783 -1.296586,-5.75722 1.432324,-6.35621 -2.091076,1.44943 -2.231001,3.62373 -0.581877,6.35621 1.649127,2.73247 1.509202,4.90625 -0.581877,6.35568 z"/>
      <path id="path1224" style="font-variation-settings:normal;vector-effect:none;fill:#aa0000;fill-opacity:1;stroke:none;stroke-width:0.128554;stroke-linecap:butt;stroke-linejoin:miter;stroke-miterlimit:4;stroke-dasharray:none;stroke-dashoffset:0;stroke-opacity:1;stop-color:#000000" d="m 90.591036,157.58575 c 1.962973,-1.79518 1.952559,-3.69763 0.433012,-6.25545 -1.519547,-2.55783 -1.296586,-5.75722 1.432324,-6.35621 -2.091076,1.44943 -2.231001,3.62373 -0.581877,6.35621 1.649127,2.73247 1.509202,4.90625 -0.581877,6.35568 z"/>
      <path id="path1226" style="font-variation-settings:normal;vector-effect:none;fill:#aa0000;fill-opacity:1;stroke:none;stroke-width:0.128554;stroke-linecap:butt;stroke-linejoin:miter;stroke-miterlimit:4;stroke-dasharray:none;stroke-dashoffset:0;stroke-opacity:1;stop-color:#000000" d="m 99.02773,157.58575 c 1.96297,-1.79518 1.95256,-3.69763 0.433012,-6.25545 -1.519547,-2.55783 -1.296585,-5.75722 1.432328,-6.35621 -2.091079,1.44943 -2.231004,3.62373 -0.58188,6.35621 1.64913,2.73247 1.5092,4.90625 -0.581877,6.35568 z"/>
      <path id="path1228" style="font-variation-settings:normal;vector-effect:none;fill:#aa0000;fill-opacity:1;stroke:none;stroke-width:0.128554;stroke-linecap:butt;stroke-linejoin:miter;stroke-miterlimit:4;stroke-dasharray:none;stroke-dashoffset:0;stroke-opacity:1;stop-color:#000000" d="m 107.46391,157.58575 c 1.96297,-1.79518 1.95256,-3.69763 0.43301,-6.25545 -1.51955,-2.55783 -1.29659,-5.75722 1.43232,-6.35621 -2.09107,1.44943 -2.231,3.62373 -0.58187,6.35621 1.64912,2.73247 1.5092,4.90625 -0.58188,6.35568 z"/>
      <path id="path1230" style="font-variation-settings:normal;vector-effect:none;fill:#aa0000;fill-opacity:1;stroke:none;stroke-width:0.128554;stroke-linecap:butt;stroke-linejoin:miter;stroke-miterlimit:4;stroke-dasharray:none;stroke-dashoffset:0;stroke-opacity:1;stop-color:#000000" d="m 115.9006,157.58575 c 1.96297,-1.79518 1.95256,-3.69763 0.43301,-6.25545 -1.51954,-2.55783 -1.29658,-5.75722 1.43233,-6.35621 -2.09108,1.44943 -2.231,3.62373 -0.58188,6.35621 1.64913,2.73247 1.5092,4.90625 -0.58188,6.35568 z"/>
      <path id="path1232" style="font-variation-settings:normal;vector-effect:none;fill:#aa0000;fill-opacity:1;stroke:none;stroke-width:0.128554;stroke-linecap:butt;stroke-linejoin:miter;stroke-miterlimit:4;stroke-dasharray:none;stroke-dashoffset:0;stroke-opacity:1;stop-color:#000000" d="m 124.33678,157.58575 c 1.96297,-1.79518 1.95256,-3.69763 0.43301,-6.25545 -1.51955,-2.55783 -1.29658,-5.75722 1.43233,-6.35621 -2.09108,1.44943 -2.23101,3.62373 -0.58188,6.35621 1.64913,2.73247 1.5092,4.90625 -0.58188,6.35568 z"/>
      <path id="path1234" style="font-variation-settings:normal;vector-effect:none;fill:#aa0000;fill-opacity:1;stroke:none;stroke-width:0.128554;stroke-linecap:butt;stroke-linejoin:miter;stroke-miterlimit:4;stroke-dasharray:none;stroke-dashoffset:0;stroke-opacity:1;stop-color:#000000" d="m 132.77347,157.58575 c 1.96298,-1.79518 1.95256,-3.69763 0.43302,-6.25545 -1.51955,-2.55783 -1.29659,-5.75722 1.43232,-6.35621 -2.09108,1.44943 -2.231,3.62373 -0.58188,6.35621 1.64913,2.73247 1.50921,4.90625 -0.58187,6.35568 z"/>
      <path id="path1236" style="font-variation-settings:normal;vector-effect:none;fill:#aa0000;fill-opacity:1;stroke:none;stroke-width:0.128554;stroke-linecap:butt;stroke-linejoin:miter;stroke-miterlimit:4;stroke-dasharray:none;stroke-dashoffset:0;stroke-opacity:1;stop-color:#000000" d="m 141.20965,157.58575 c 1.96298,-1.79518 1.95256,-3.69763 0.43301,-6.25545 -1.51954,-2.55783 -1.29658,-5.75722 1.43233,-6.35621 -2.09108,1.44943 -2.231,3.62373 -0.58188,6.35621 1.64913,2.73247 1.5092,4.90625 -0.58188,6.35568 z"/>
      <path id="path1238" style="font-variation-settings:normal;vector-effect:none;fill:#aa0000;fill-opacity:1;stroke:none;stroke-width:0.128554;stroke-linecap:butt;stroke-linejoin:miter;stroke-miterlimit:4;stroke-dasharray:none;stroke-dashoffset:0;stroke-opacity:1;stop-color:#000000" d="m 149.64634,157.58575 c 1.96298,-1.79518 1.95256,-3.69763 0.43302,-6.25545 -1.51955,-2.55783 -1.29659,-5.75722 1.43232,-6.35621 -2.09108,1.44943 -2.231,3.62373 -0.58188,6.35621 1.64913,2.73247 1.50921,4.90625 -0.58187,6.35568 z"/>
      <path id="path1240" style="font-variation-settings:normal;vector-effect:none;fill:#aa0000;fill-opacity:1;stroke:none;stroke-width:0.128554;stroke-linecap:butt;stroke-linejoin:miter;stroke-miterlimit:4;stroke-dasharray:none;stroke-dashoffset:0;stroke-opacity:1;stop-color:#000000" d="m 158.08252,157.58575 c 1.96298,-1.79518 1.95256,-3.69763 0.43302,-6.25545 -1.51955,-2.55783 -1.29659,-5.75722 1.43232,-6.35621 -2.09108,1.44943 -2.231,3.62373 -0.58188,6.35621 1.64913,2.73247 1.5092,4.90625 -0.58187,6.35568 z"/>
      <path id="path1242" style="font-variation-settings:normal;vector-effect:none;fill:#aa0000;fill-opacity:1;stroke:none;stroke-width:0.128554;stroke-linecap:butt;stroke-linejoin:miter;stroke-miterlimit:4;stroke-dasharray:none;stroke-dashoffset:0;stroke-opacity:1;stop-color:#000000" d="m 166.51922,157.58575 c 1.96297,-1.79518 1.95256,-3.69763 0.43301,-6.25545 -1.51955,-2.55783 -1.29659,-5.75722 1.43233,-6.35621 -2.09108,1.44943 -2.23101,3.62373 -0.58188,6.35621 1.64913,2.73247 1.5092,4.90625 -0.58188,6.35568 z"/>
    </g>
    <path id="path1257" style="fill:#cccccc;fill-opacity:1;stroke:none;stroke-width:0.264582;paint-order:fill markers stroke" d="m 107.85594,70.343281 5.18344,15.070823 15.64343,-3.046423 -10.45999,12.024399 10.45999,12.0244 -15.64343,-3.04643 -5.18344,15.07083 -5.18343,-15.07083 -15.643434,3.04643 L 97.489074,94.392079 87.029077,82.36768 102.67251,85.414103 Z"/>
  </g>
</svg>