<?xml version="1.0" encoding="UTF-8" standalone="no"?>
<svg xmlns:dc="http://purl.org/dc/elements/1.1/" xmlns:cc="http://creativecommons.org/ns#" xmlns:rdf="http://www.w3.org/1999/02/22-rdf-syntax-ns#" xmlns:svg="http://www.w3.org/2000/svg" xmlns="http://www.w3.org/2000/svg" xmlns:sodipodi="http://sodipodi.sourceforge.net/DTD/sodipodi-0.dtd" xmlns:inkscape="http://www.inkscape.org/namespaces/inkscape" width="500" height="515" viewBox="0 0 132.29166 136.26042" version="1.1" id="svg847" sodipodi:docname="suonenjoki.svg" inkscape:version="1.0.2 (e86c870879, 2021-01-15, custom)">
  <defs id="defs841"/>
  <sodipodi:namedview id="base" pagecolor="#ffffff" bordercolor="#666666" borderopacity="1.0" inkscape:pageopacity="0.0" inkscape:pageshadow="2" inkscape:zoom="0.98994949" inkscape:cx="280.43445" inkscape:cy="161.9907" inkscape:document-units="px" inkscape:current-layer="layer1" inkscape:document-rotation="0" showgrid="false" inkscape:snap-smooth-nodes="true" inkscape:showpageshadow="false" borderlayer="true" units="px" inkscape:window-width="1920" inkscape:window-height="1017" inkscape:window-x="-8" inkscape:window-y="-4" inkscape:window-maximized="1" inkscape:snap-global="true"/>
  <metadata id="metadata844">
    <rdf:RDF>
      <cc:Work rdf:about="">
        <dc:format>image/svg+xml</dc:format>
        <dc:type rdf:resource="http://purl.org/dc/dcmitype/StillImage"/>
        <dc:title/>
      </cc:Work>
    </rdf:RDF>
  </metadata>
  <g inkscape:label="Layer 1" inkscape:groupmode="layer" id="layer1" transform="translate(-34.655691,-46.963541)">
    <g id="g1131" transform="matrix(0.89957975,0,0,0.89957975,3.480133,4.7160903)" style="stroke-width:1.11163">
      <path style="font-variation-settings:normal;opacity:1;vector-effect:none;fill:#000000;fill-opacity:1;stroke:none;stroke-width:0.294118;stroke-linecap:butt;stroke-linejoin:miter;stroke-miterlimit:4;stroke-dasharray:none;stroke-dashoffset:0;stroke-opacity:1;stop-color:#000000;stop-opacity:1" d="m 181.7151,46.963541 c 0,0 -4.0771,58.397019 -5.71011,87.711209 -1.63302,29.31419 -25.57221,63.75998 -67.8196,63.75998 -42.247379,0 -66.186569,-34.44579 -67.819579,-63.75998 -1.63302,-29.31419 -5.71012,-87.711209 -5.71012,-87.711209 z" id="path844" sodipodi:nodetypes="cszscc"/>
      <g id="g1092" transform="translate(1.0300466e-5)" style="stroke-width:1.11163">
        <path id="path848" style="opacity:1;fill:#bf9f4f;fill-opacity:1;stroke:none;stroke-width:1.11163;stroke-linecap:square;stroke-miterlimit:4;stroke-dasharray:none" d="M 408.52344,229.8418 A 223.5413,223.5413 0 0 0 185.34766,453.38281 223.5413,223.5413 0 0 0 408.89062,676.92383 223.5413,223.5413 0 0 0 632.43164,453.38281 223.5413,223.5413 0 0 0 408.89062,229.8418 a 223.5413,223.5413 0 0 0 -0.36718,0 z m 0.29101,63.83203 a 159.70894,159.70894 0 0 1 0.0742,0 A 159.70894,159.70894 0 0 1 568.59766,453.38281 159.70894,159.70894 0 0 1 408.88867,613.0918 159.70894,159.70894 0 0 1 249.18164,453.38281 159.70894,159.70894 0 0 1 408.81445,293.67383 Z" transform="scale(0.26458333)"/>
        <path id="circle879" style="opacity:1;fill:#ffffff;stroke:none;stroke-width:1.11162;stroke-linecap:square;stroke-miterlimit:4;stroke-dasharray:none" d="M 408.52344,229.8418 C 285.20787,230.04344 185.34766,330.06708 185.34766,453.38281 185.34781,576.8418 285.43164,676.92475 408.89062,676.92383 288.4624,673.1356 189.34717,576.13657 189.34766,454.35156 c 6e-4,-121.78424 100.0831,-220.5096 223.54101,-220.50976 51.27478,-5.4e-4 100.99119,17.38713 140.81445,49.24804 -40.42144,-34.37345 -91.75189,-53.24783 -144.8125,-53.24804 z m 63.46875,76.82812 A 159.70894,159.70894 0 0 1 568.59766,453.38281 159.70894,159.70894 0 0 1 408.88867,613.0918 159.70894,159.70894 0 0 1 262.18555,516.50977 161.46345,161.46345 0 0 0 412.13281,618.08789 161.46345,161.46345 0 0 0 573.5957,456.625 161.46345,161.46345 0 0 0 471.99219,306.66992 Z" transform="scale(0.26458333)"/>
      </g>
      <g id="g1087" transform="translate(-0.326049)" style="stroke-width:1.11163">
        <path style="font-variation-settings:normal;opacity:1;vector-effect:none;fill:#bf9f4f;fill-opacity:1;stroke:none;stroke-width:0.294118;stroke-linecap:butt;stroke-linejoin:miter;stroke-miterlimit:4;stroke-dasharray:none;stroke-dashoffset:0;stroke-opacity:1;stop-color:#000000;stop-opacity:1" d="m 104.30193,154.84928 c 0,0 0.80182,-1.10248 1.70385,-5.11153 0.90204,-4.00904 1.60361,-12.82893 1.30294,-16.9382 -0.30068,-4.10927 -1.25048,-4.52031 -1.82465,-4.9394 -0.57417,-0.41909 -2.19226,-0.96292 -3.73461,1.73368 -1.54234,2.6966 -2.826897,5.89831 -5.928317,8.10218 -2.93636,2.08665 -4.67061,2.14725 -4.67061,2.14725 0.33489,-1.01247 1.25129,-2.40874 1.11009,-3.21062 -2.66949,2.72386 -7.45822,3.05099 -7.45822,3.05099 0.90221,-0.99033 1.39762,-1.66387 1.67648,-2.60701 -2.25769,1.05 -4.21605,1.53153 -6.60022,1.24383 1.03044,-0.87833 1.82484,-2.09037 1.82484,-2.09037 -3.09889,1.14502 -5.09351,-0.11985 -5.09351,-0.11985 1.17506,-0.94311 1.67835,-1.38563 1.67835,-1.38563 -2.7322,-0.0965 -4.81244,-0.81147 -6.35911,-1.58544 1.03815,-0.78776 2.12639,-1.32484 2.12639,-1.32484 -2.61607,-0.50471 -4.05642,-1.41173 -4.74732,-2.38958 0.90471,-0.89199 1.58619,-1.38512 2.53596,-2.17659 -2.85841,-0.76469 -4.18899,-2.10796 -4.95071,-3.29285 0,0 1.43756,-1.62436 5.06854,-2.78765 -1.41383,-0.90247 -1.98852,-1.06938 -3.14852,-2.16199 0.61747,-0.61747 2.5448,-1.42303 5.38789,-0.80831 0,0 -1.28071,-1.39457 -2.28445,-2.22573 1.57817,-0.70755 3.52393,-1.03946 6.0298,-0.37742 0,0 -0.99218,-1.48828 -2.12611,-2.48047 0,0 2.97656,-0.63784 6.02399,0.63783 0,0 -0.49609,-1.13392 -1.48828,-2.05524 2.39424,-0.18613 4.08429,0.26742 6.29532,1.41237 -0.23853,-0.95413 -0.70487,-1.64812 -1.56419,-2.67589 0,0 3.69031,-0.0172 6.24165,2.81763 0.17515,-0.79516 -0.0749,-1.15001 -0.18326,-1.76673 0,0 1.7301,0.13428 4.57515,2.34378 3.00497,2.33366 4.800157,4.59067 6.226527,7.35037 1.42637,2.7597 3.4854,2.27734 4.02746,1.73528 0.54206,-0.54206 1.26097,-2.13649 -1.13392,-3.82701 -2.3949,-1.69052 -6.817747,-4.60139 -8.929687,-6.66182 -2.11195,-2.06044 -2.48047,-3.82702 -2.48047,-3.82702 l 2.48047,0.21262 c -2.83483,-2.55134 -3.11831,-5.88226 -3.11831,-5.88226 1.55915,0.99216 2.97656,1.06306 2.97656,1.06306 0,0 -0.92131,-0.70871 -1.63002,-2.33873 -0.7087,-1.63002 -0.63783,-3.614395 -0.63783,-3.614395 0.92131,0.992187 2.4096,1.34654 2.4096,1.34654 -2.19699,-2.69308 -1.06306,-6.449219 -1.06306,-6.449219 0.99218,1.133929 3.54352,2.62221 3.54352,2.62221 -2.89266,-4.767092 -0.70491,-8.828144 -0.70491,-8.828144 0.90203,1.854182 2.15486,2.355313 2.15486,2.355313 -0.10023,-3.357574 2.154857,-5.813112 2.154857,-5.813112 0.50113,1.603617 1.45328,3.006782 1.45328,3.006782 0.10023,-2.355313 1.65373,-4.359834 1.65373,-4.359834 0.30068,1.65373 1.20271,3.407685 1.20271,3.407685 0.35079,-3.056896 2.20498,-5.211755 2.20498,-5.211755 0,0 1.85419,2.154859 2.20498,5.211755 0,0 0.90203,-1.753955 1.20271,-3.407685 0,0 1.5535,2.004521 1.65373,4.359834 0,0 0.95215,-1.403165 1.45328,-3.006782 0,0 2.25508,2.455538 2.15486,5.813112 0,0 1.25282,-0.501131 2.15486,-2.355313 0,0 2.18775,4.061052 -0.70492,8.828144 0,0 2.55134,-1.488281 3.54353,-2.62221 0,0 1.13393,3.756139 -1.06306,6.449219 0,0 1.48828,-0.354353 2.4096,-1.34654 0,0 0.0709,1.984375 -0.63783,3.614395 -0.70871,1.63002 -1.63003,2.33873 -1.63003,2.33873 0,0 1.41741,-0.0709 2.97657,-1.06306 0,0 -0.28349,3.33092 -3.11831,5.88226 l 2.48047,-0.21262 c 0,0 -0.36853,1.76658 -2.48047,3.82702 -2.11194,2.06043 -6.53479,4.9713 -8.92969,6.66182 -2.39489,1.69052 -1.67598,3.28495 -1.13392,3.82701 0.54206,0.54206 2.60109,1.02442 4.02746,-1.73528 1.42637,-2.7597 3.22156,-5.01671 6.22653,-7.35037 2.84504,-2.2095 4.57515,-2.34378 4.57515,-2.34378 -0.10833,0.61672 -0.35841,0.97157 -0.18326,1.76673 2.55134,-2.83483 6.24165,-2.81763 6.24165,-2.81763 -0.85932,1.02777 -1.32566,1.72176 -1.56419,2.67589 2.21102,-1.14495 3.90108,-1.5985 6.29532,-1.41237 -0.99219,0.92132 -1.48829,2.05524 -1.48829,2.05524 3.04744,-1.27567 6.024,-0.63783 6.024,-0.63783 -1.13393,0.99219 -2.12612,2.48047 -2.12612,2.48047 2.50588,-0.66204 4.45164,-0.33013 6.02981,0.37742 -1.00374,0.83116 -2.28445,2.22573 -2.28445,2.22573 2.84309,-0.61472 4.77042,0.19084 5.38789,0.80831 -1.16001,1.09261 -1.73469,1.25952 -3.14852,2.16199 3.63098,1.16329 5.06854,2.78765 5.06854,2.78765 -0.76172,1.18489 -2.0923,2.52816 -4.95072,3.29285 0.94978,0.79147 1.63126,1.2846 2.53597,2.17659 -0.6909,0.97785 -2.13125,1.88487 -4.74732,2.38958 0,0 1.08824,0.53708 2.12639,1.32484 -1.54668,0.77397 -3.62692,1.48893 -6.35911,1.58544 0,0 0.50329,0.44252 1.67835,1.38563 0,0 -1.99462,1.26487 -5.09351,0.11985 0,0 0.79439,1.21204 1.82483,2.09037 -2.38416,0.2877 -4.34253,-0.19383 -6.60021,-1.24383 0.27886,0.94314 0.77427,1.61668 1.67648,2.60701 0,0 -4.78873,-0.32713 -7.45822,-3.05099 -0.14121,0.80188 0.77519,2.19815 1.11009,3.21062 0,0 -1.73425,-0.0606 -4.67062,-2.14725 -3.10141,-2.20387 -4.38597,-5.40558 -5.92831,-8.10218 -1.54235,-2.6966 -3.16044,-2.15277 -3.73461,-1.73368 -0.57417,0.41909 -1.52397,0.83013 -1.82465,4.9394 -0.30067,4.10927 0.60136,11.82667 1.30294,16.13639 0.70158,4.30972 -0.20045,5.91334 -0.20045,5.91334 z" id="path913" sodipodi:nodetypes="csszzscccccccccccccccccccccccccszzzsccccscccccccccccccccccccccsccccszzzscccccccccccccccccccccccccszzszcc"/>
        <path id="path943-8" style="font-variation-settings:normal;vector-effect:none;fill:#705b28;fill-opacity:1;stroke:none;stroke-width:1.11163;stroke-linecap:butt;stroke-linejoin:miter;stroke-miterlimit:4;stroke-dasharray:none;stroke-dashoffset:0;stroke-opacity:1;stop-color:#000000" d="m 410.12109,324.19727 c 0,0 -1.63501,6.40932 -1.5957,17.46289 0.0113,3.33337 -0.0302,14.23142 -0.0801,27.13281 -15.40229,-8.80311 -22.55273,-30.40039 -22.55273,-30.40039 0,0 1.47791,23.24676 22.53906,34.0293 -0.0393,9.75284 -0.0768,19.42996 -0.11719,30.00976 -14.23782,-10.20627 -23.59097,-21.73933 -30.37695,-39.79492 0,8.8836 9.86073,31.99995 30.36523,43.59766 -0.0457,12.33324 -0.088,24.02168 -0.0918,31.93359 -17.48791,-10.70714 -24.71344,-20.97604 -39.32032,-43.72656 6.29016,17.40362 16.84934,36.04834 39.31836,47.67968 0.004,3.05723 0.0104,5.40255 0.0293,6.51758 0.14967,8.94263 0.88752,16.50229 -5.41601,20.46875 -6.3035,3.96646 -15.32666,4.62218 -27.61329,4.36328 -9.93966,-23.21722 -26.51288,-36.57607 -42.83398,-43.77539 21.06678,15.83664 29.79443,25.33226 39.12695,43.65821 -2.66483,-0.10315 -5.43245,-0.23618 -8.44726,-0.41797 -6.09699,-0.36749 -13.20909,-1.09258 -20.58008,-1.89063 -9.5116,-21.0432 -30.16315,-33.50786 -38.25977,-33.96484 16.09078,7.63192 26.12339,18.894 34.72461,33.58008 -10.17029,-1.11946 -20.74208,-2.31983 -30.67578,-3.06836 -8.52967,-15.487 -27.99023,-17.42578 -27.99023,-17.42578 0,0 17.56773,5.89033 24.76172,17.20117 -3.39697,-0.22171 -6.69534,-0.38573 -9.8125,-0.44922 -20.65546,-0.421 -30.4043,2.96289 -30.4043,2.96289 0,0 13.51542,0.092 30.23828,0.22656 3.03972,0.0244 6.29993,0.16045 9.73828,0.37891 -8.41572,12.58643 -26.26758,19.04297 -26.26758,19.04297 0,0 19.15298,-1.65145 29.38477,-18.82422 9.29333,0.70208 19.79766,1.95484 30.9043,3.36328 -9.95694,13.51204 -20.88088,20.7499 -37.63477,26.53711 8.05051,0.45441 29.44041,-6.61383 40.94922,-26.11914 5.65965,0.72412 11.44739,1.47616 17.31836,2.21094 3.89537,0.48755 7.57823,0.79817 11.06836,1.01171 -10.73915,14.71544 -20.25743,19.19026 -42.22461,31.31446 16.63907,-4.88542 33.93032,-11.7725 46.07617,-31.11328 16.26424,0.67903 21.37698,-1.14424 27.27539,2.06836 5.89845,3.21259 8.47656,9.91015 8.47656,9.91015 0,0 2.58008,-6.69756 8.47852,-9.91015 5.89841,-3.2126 11.01114,-1.38933 27.27539,-2.06836 12.14585,19.34078 29.4371,26.22786 46.07617,31.11328 -21.96718,-12.1242 -31.48546,-16.59902 -42.22461,-31.31446 3.49013,-0.21358 7.17299,-0.52416 11.06836,-1.01171 5.87097,-0.73478 11.65871,-1.48682 17.31836,-2.21094 11.50881,19.50531 32.89871,26.57355 40.94922,26.11914 -16.75389,-5.78721 -27.67783,-13.02507 -37.63477,-26.53711 11.10664,-1.40844 21.61097,-2.6612 30.9043,-3.36328 10.23179,17.17277 29.38477,18.82422 29.38477,18.82422 0,0 -17.85186,-6.45654 -26.26758,-19.04297 3.43835,-0.21865 6.69859,-0.35623 9.73828,-0.37891 16.7229,-0.13455 30.23828,-0.22656 30.23828,-0.22656 0,0 -9.74884,-3.38389 -30.4043,-2.96289 -3.11716,0.0635 -6.41549,0.22774 -9.8125,0.44922 7.19403,-11.31084 24.76172,-17.20117 24.76172,-17.20117 0,0 -19.46052,1.93878 -27.99023,17.42578 -9.93366,0.74853 -20.50545,1.9489 -30.67578,3.06836 8.60126,-14.68608 18.63384,-25.94816 34.72461,-33.58008 -8.09662,0.45698 -28.74817,12.92164 -38.25977,33.96484 -7.37098,0.79805 -14.48309,1.52326 -20.58008,1.89063 -3.01481,0.18175 -5.78243,0.31478 -8.44726,0.41797 9.33252,-18.32595 18.06017,-27.82157 39.12695,-43.65821 -16.3211,7.19932 -32.89432,20.55817 -42.83398,43.77539 -12.28664,0.25879 -21.31115,-0.397 -27.61328,-4.36328 -6.30218,-3.96627 -5.56569,-11.52612 -5.41602,-20.46875 0.0189,-1.11503 0.0275,-3.46035 0.0312,-6.51758 22.46903,-11.63134 33.02625,-30.27606 39.31641,-47.67968 -14.6069,22.75052 -21.83045,33.01942 -39.31836,43.72656 -0.004,-7.91191 -0.0461,-19.60035 -0.0918,-31.93359 20.5045,-11.59771 30.36523,-34.71406 30.36523,-43.59766 -6.78599,18.05559 -16.13913,29.58865 -30.37695,39.79492 -0.0404,-10.5798 -0.0779,-20.25692 -0.11719,-30.00976 21.06116,-10.78254 22.53907,-34.0293 22.53907,-34.0293 0,0 -7.15045,21.59728 -22.55274,30.40039 -0.0499,-12.90139 -0.0914,-23.79944 -0.0801,-27.13281 0.0393,-11.05357 -1.59765,-17.46289 -1.59765,-17.46289 z m 0,143.70117 c 0,0 2.91019,3.64625 9.56281,7.26953 -6.65262,3.62328 -9.56281,7.26758 -9.56281,7.26758 0,0 -2.90818,-3.6443 -9.56084,-7.26758 6.65266,-3.62328 9.56084,-7.26953 9.56084,-7.26953 z" transform="scale(0.26458333)" sodipodi:nodetypes="ccccccccccccsccccccccccccsccccccscccscscccsccccccccsccccccccccscccccccccccccccccc"/>
        <path id="path1040" style="font-variation-settings:normal;opacity:1;vector-effect:none;fill:#ffffff;fill-opacity:1;stroke:none;stroke-width:1.11163;stroke-linecap:butt;stroke-linejoin:miter;stroke-miterlimit:4;stroke-dasharray:none;stroke-dashoffset:0;stroke-opacity:1;stop-color:#000000;stop-opacity:1" d="m 410.12109,302.79297 c 0,0 -7.00621,8.14364 -8.33203,19.69726 0,0 -0.008,-0.0174 -0.008,-0.0176 0.002,0.005 0.004,0.0123 0.006,0.0176 0.7717,1.79207 1.24414,2.56836 1.24414,2.56836 0.99364,-8.65886 5.92211,-16.99539 8.33008,-20.63086 -0.73915,-1.04138 -1.24024,-1.63476 -1.24024,-1.63476 z m -12.8789,6.81836 c 0,0 -5.87118,7.57654 -6.25,16.47851 0.9476,1.6785 1.43164,2.56836 1.43164,2.56836 0.27918,-6.56058 3.83804,-12.68404 5.69726,-15.46484 -0.34554,-1.17837 -0.66071,-2.38199 -0.8789,-3.58203 z m 25.75976,0 c -1.13643,6.25032 -4.54687,12.8789 -4.54687,12.8789 0.23924,1.17972 0.15703,2.4894 0.29687,3.70508 0,0 4.48069,-7.689 6.08399,-13.78711 -1.02927,-1.75191 -1.83399,-2.79687 -1.83399,-2.79687 z m -4.54687,12.8789 c -0.36547,-3.18478 -1.16769,-6.09655 -2.13086,-8.66406 0.76555,2.71685 1.52325,5.66846 2.13086,8.66406 z M 385.5,314.72656 c 0,0 -8.52335,9.28066 -8.14453,21.97071 0,0 -4.73529,-1.89442 -8.14453,-8.90235 0,0 -8.26883,15.34788 2.66406,33.36524 0,0 -9.64261,-5.62444 -13.39258,-9.91016 0,0 -4.286,14.19643 4.01758,24.375 0,0 -5.62531,-1.33985 -9.10742,-5.08984 0,0 -0.2684,7.5014 2.41015,13.66211 2.67859,6.1607 6.16211,8.83789 6.16211,8.83789 0,0 -5.35715,-0.26769 -11.25,-4.01758 0,0 1.07084,12.58956 11.78516,22.23242 l -9.375,-0.80273 c 0,0 1.39283,6.6754 9.375,14.46289 7.98214,7.78745 24.69841,18.79032 33.75,25.17968 9.05155,6.38937 6.33389,12.41416 4.28516,14.46289 -1.51865,1.51865 -6.18709,2.90167 -10.69727,-0.72656 5.04542,6.02649 10.95129,4.47254 12.69727,2.72656 2.04873,-2.04873 5.30155,-10.2161 -3.75,-16.60546 -9.05159,-6.38937 -23.08818,-13.10708 -31.07032,-20.89454 -7.98217,-7.78749 -11.51757,-16.07031 -11.51757,-16.07031 l 11.25,0.53516 c -10.71432,-9.64286 -13.66211,-21.42774 -13.66211,-21.42774 5.89285,3.7499 12.05468,2.67774 12.05468,2.67774 0,0 -5.52377,-5.28463 -7.76757,-10.44531 -2.24378,-5.16072 -2.67969,-9.89258 -2.67969,-9.89258 4.23973,2.99238 9.86523,3.19531 9.86523,3.19531 -8.11418,-16.05008 -5.15429,-21.91211 -5.15429,-21.91211 5.46131,4.12701 8.3948,5.8288 15.09765,8.20508 -10.93289,-18.01736 -5.50586,-31.66211 -5.50586,-31.66211 3.97746,5.1139 8.90235,7.76562 8.90235,7.76562 -0.3105,-10.40138 5.80211,-19.29647 8.04101,-22.20507 -0.41054,-0.99598 -0.80496,-2.02198 -1.13867,-3.08985 z m 49.24414,0 c -1.89403,6.06092 -5.49219,11.36328 -5.49219,11.36328 0.0113,1.0006 -0.12707,2.31294 -0.084,3.32618 0,0 4.80724,-6.61283 7.40039,-12.32032 -1.04185,-1.47441 -1.82422,-2.36914 -1.82422,-2.36914 z m 16.28906,13.06836 c -3.40928,7.00793 -8.14453,8.90235 -8.14453,8.90235 0.0302,0.93789 -0.056,2.00221 -0.084,2.94531 0,0 5.7777,-3.20368 9.43164,-8.91406 -0.63843,-1.86702 -1.20313,-2.9336 -1.20313,-2.9336 z m -8.14453,8.90235 c 0.0831,-2.78281 -0.27784,-5.38825 -0.86719,-7.78125 0.44493,2.46771 0.77545,5.09586 0.86719,7.78125 z m 11.11524,4.74023 c -0.46076,5.61191 -1.91801,12.54048 -5.63477,19.72266 4.43063,-7.30164 5.68286,-14.14148 5.63477,-19.72266 z m -5.63477,19.72266 c -0.52872,1.02169 -1.16631,2.29989 -1.78906,3.32617 0,0 11.00701,-5.70284 15.86719,-9.96289 -0.31315,-2.01141 -0.68555,-3.27344 -0.68555,-3.27344 -3.75001,4.28572 -13.39258,9.91016 -13.39258,9.91016 z m 18.48242,9.375 c -3.48215,3.74999 -9.10742,5.08984 -9.10742,5.08984 -0.5918,0.64315 -1.79289,1.6893 -2.35547,2.37891 0,0 7.01087,-1.21376 11.33008,-3.81641 0.17061,-2.15413 0.13281,-3.65234 0.13281,-3.65234 z m 2.67774,18.48242 c -5.89289,3.74989 -11.25,4.01758 -11.25,4.01758 -1.87246,0.99893 -2.73438,2 -2.73438,2 0,0 7.50719,-0.20513 13.35352,-2.66797 0.48005,-2.01137 0.63086,-3.34961 0.63086,-3.34961 z m -6.07618,15.65234 c -1.64464,2.1728 -3.53731,4.41569 -5.70898,6.58008 2.34131,-2.10718 4.19916,-4.35361 5.70898,-6.58008 z m -5.70898,6.58008 c -0.64335,0.6412 -2.80533,1.76073 -3.49219,2.37891 l 12.1211,-0.96289 c 0.55308,-1.37637 0.74609,-2.21875 0.74609,-2.21875 z m -136.1543,6.13477 c 3.24783,3.88448 5.01058,6.50712 5.91211,10.11328 -8.35665,-4.32737 -14.74387,-6.04138 -23.79297,-5.33789 3.75001,3.48215 5.625,7.76757 5.625,7.76757 -11.51784,-4.82143 -22.76757,-2.41211 -22.76757,-2.41211 4.28572,3.75001 8.03515,9.375 8.03515,9.375 -9.471,-2.50219 -16.82432,-1.24647 -22.78906,1.42774 3.79366,3.14139 8.63477,8.41211 8.63477,8.41211 -10.74554,-2.32335 -18.03149,0.72094 -20.36524,3.05469 0.4714,0.44401 0.90704,0.83024 1.33399,1.20117 3.18855,-2.15504 12.43717,-4.13573 22.36914,-1.98828 0,0 -3.76884,-5.80588 -7.5625,-8.94727 5.96473,-2.6742 11.66571,-3.4729 21.13672,-0.9707 0,0 -1.476,-5.43554 -5.76172,-9.18555 0,0 9.54465,-2.21987 21.0625,2.60156 0,0 -1.87499,-5.23269 -5.625,-8.71484 9.04909,-0.70348 15.92069,2.61455 22.27734,5.90625 -0.25353,-3.03122 -0.76975,-5.85184 -4.01758,-9.73633 0,0 12.05441,0.50443 21.69727,11.21875 0.66198,-3.00533 0.28445,-5.48354 -0.50391,-7.81445 0,0 6.54003,0.50851 17.29297,8.85937 3.05031,2.36887 5.76065,4.71645 8.21289,7.08594 -2.9533,-3.05342 -6.30753,-6.05303 -10.21289,-9.08594 -10.75294,-8.35086 -17.29297,-8.85937 -17.29297,-8.85937 0.40955,2.33091 1.35534,3.6724 0.69336,6.67773 -9.64286,-10.71431 -23.5918,-10.64843 -23.5918,-10.64843 z m 177.0625,0 c 0,0 -13.94698,-0.0659 -23.58984,10.64843 -0.0714,0.76063 0.0621,1.70106 0.29492,2.75782 6.60038,-7.33378 16.01221,-9.97141 21.29688,-10.90625 0.59858,-0.78904 1.24918,-1.60435 1.99804,-2.5 z m -22.89648,3.9707 c 0,0 -6.54006,0.50851 -17.29297,8.85937 -11.35737,8.82014 -18.1422,17.34894 -23.5332,27.7793 -5.39101,10.43036 -13.17197,8.60733 -15.22071,6.55859 -0.69322,-0.69322 -1.4539,-1.84851 -1.81836,-3.3125 -0.0374,2.32403 1.1304,4.14016 2.11329,5.12305 2.04873,2.04873 11.53477,4.06122 16.92578,-6.36914 5.391,-10.43036 12.17583,-18.95916 23.5332,-27.7793 6.73162,-5.22787 11.80976,-7.3818 14.66797,-8.26172 0.20179,-0.82155 0.454,-1.62415 0.625,-2.59765 z m 37.50195,0.6543 c -7.39907,-0.084 -13.20359,1.70183 -20.51562,5.48828 8.2e-4,-0.003 0.001,-0.006 0.002,-0.01 -10e-4,0.003 -0.003,0.007 -0.004,0.01 -0.30349,0.74838 -0.63374,1.74404 -0.83984,2.56836 7.1945,-3.72559 15.03538,-5.92978 22.85156,-6.02344 0.54372,-0.63471 1.1234,-1.27014 1.78321,-1.88281 -1.13114,-0.0879 -2.22034,-0.13839 -3.27735,-0.15039 z m 13.35547,4.90429 c -4.25223,0 -9.94418,0.60296 -15.70312,3.01367 -1.70283,1.53895 -2.16797,3.13672 -2.16797,3.13672 7.96608,-3.33463 17.68834,-3.74243 22.99414,-3.68359 0.62914,-0.64644 1.27416,-1.28139 1.9414,-1.86524 0,10e-6 -2.81222,-0.60155 -7.06445,-0.60156 z m 8.82813,8.625 c -2.99461,0.005 -6.24719,0.41324 -9.79883,1.35156 -1.36778,1.06281 -2.35742,2.56836 -2.35742,2.56836 8.21322,-2.16988 17.67907,-1.93849 23.93945,-0.0957 0.40779,-0.36184 0.8151,-0.72038 1.20703,-1.04492 -3.72796,-1.67138 -7.99922,-2.78763 -12.99023,-2.7793 z m 11.74218,10.35938 c -2.23046,0.005 -4.70033,0.25119 -7.38671,0.83203 -1.16365,0.73383 -2.92383,2.37891 -2.92383,2.37891 8.52832,-1.84396 17.96063,-0.54289 22.66406,1.23828 0.20993,-0.19074 0.40261,-0.35488 0.62305,-0.5625 -1.75031,-1.75031 -6.28516,-3.90119 -12.97657,-3.88672 z m -275.20117,12.05859 c -13.72339,4.39669 -19.15625,10.53516 -19.15625,10.53516 2.87894,4.47832 7.9075,9.55514 18.71094,12.44531 -8.60923,-2.97026 -14.13582,-6.43962 -16.71094,-10.44531 0,0 6.23755,-6.40605 19.96094,-10.80274 -0.90681,-0.57883 -1.9902,-1.27022 -2.80469,-1.73242 z m -0.44531,22.98047 c -3.58968,2.99138 -6.16461,4.85526 -9.58399,8.22656 0.48412,0.68519 1.06676,1.36074 1.75586,2.01953 3.36295,-3.15869 7.85365,-6.55448 11.16797,-9.3164 -1.14013,-0.30501 -2.32407,-0.57925 -3.33984,-0.92969 z m 276.72461,-22.98047 c -1.09644,0.44202 -2.71427,0.81414 -3.68164,1.43164 11.37146,3.64318 19.42976,8.65231 21.97851,10.33789 0.29865,-0.41327 0.59869,-0.82885 0.85938,-1.23437 0,0 -5.43286,-6.13847 -19.15625,-10.53516 z m -118.87891,24.2793 c -0.51325,-0.0301 -1.00246,0.006 -1.47851,0.0664 2.38259,0.75263 5.1068,2.83432 7.77539,7.5 5.82931,10.19188 10.68438,22.29346 22.40625,30.62305 11.09809,7.88655 17.65234,8.11524 17.65234,8.11524 -0.2213,-0.66903 -0.52315,-1.39096 -0.8457,-2.12891 -4.11598,-1.10048 -11.13296,-3.57921 -17.21875,-8.80859 -9.06565,-7.78988 -13.62967,-18.28665 -19.45899,-28.47852 -2.91467,-5.09594 -6.1023,-6.72832 -8.83203,-6.88867 z m -27.73633,3.71094 c 1.63642,2.25507 3.23789,6.51803 3.92969,15.97265 1.13639,15.5311 -1.51454,48.8653 -4.92383,64.01758 -3.40924,15.15231 -6.43945,19.32031 -6.43945,19.32031 h 3.08008 c 1.17897,-2.49967 3.18793,-7.66938 5.35937,-17.32031 3.40929,-15.15228 6.06022,-48.48648 4.92383,-64.01758 -0.98052,-13.40035 -3.78411,-16.38572 -5.92969,-17.97265 z m -115.77343,11.02929 c -3.41105,1.48505 -4.9305,1.45788 -5.97852,1.21875 0,0 -4.11144,2.03045 -8.03515,5.00781 0.91486,0.45781 1.89673,0.90497 2.9121,1.34376 4.12592,-3.03029 11.10157,-7.57032 11.10157,-7.57032 z m -5.97852,1.21875 c -1.25989,-0.28748 -2.40615,-0.54335 -3.58594,-0.80664 1.12553,0.2921 2.31757,0.56194 3.58594,0.80664 z m 20.27149,10.15821 c -2.15067,0.72181 -3.30631,0.92071 -4.27344,0.84179 0,0 -1.90258,1.67182 -6.34375,5.23633 0,0 1.03589,0.64622 2.90429,1.24805 4.08509,-3.41719 7.7129,-7.32617 7.7129,-7.32617 z m -4.27344,0.84179 c -2.19502,-0.17911 -4.32614,-0.35344 -6.375,-0.55273 2.01447,0.27797 4.13275,0.47354 6.375,0.55273 z m 176.04297,3.58594 c 0,0 -1.09077,2.09573 -0.39258,3.625 10.08941,10.2949 28.1875,11.53125 28.1875,11.53125 -0.49441,-0.5427 -0.89031,-1.01846 -1.32227,-1.51758 -6.04696,-1.67347 -18.93628,-5.9488 -26.47265,-13.63867 z m -119.90821,0.13281 c -0.98013,1.0001 -2.1962,2.56231 -3.32617,3.49219 0.53367,3.03073 -2.92958,8.30811 -4.19531,12.13477 0,0 1.15897,-0.0712 3.22852,-0.66211 2.87015,-6.42791 4.76238,-12.29904 4.29296,-14.96485 z m -3.32617,3.49219 c -0.53759,0.4424 -1.1061,0.98841 -1.68555,1.56836 0.58077,-0.49949 1.14653,-1.01836 1.68555,-1.56836 z m -36.38476,-2.92969 c -0.5021,0.18558 -3.04737,1.20608 -3.51563,1.40821 0,0 -3.00191,4.58071 -6.89648,7.90039 1.2694,0.15318 2.5036,0.24329 3.71679,0.2832 3.39122,-3.76886 6.69532,-9.5918 6.69532,-9.5918 z m 180.90429,2.00391 0.17383,2.60351 c 8.53297,3.96851 15.93432,5.78855 24.94531,4.70118 -8.13758,0.98196 -17.27182,-3.7872 -25.11914,-7.30469 z m -162.66601,1.00586 c -0.90853,0.42255 -2.78436,1.15186 -3.70508,1.59765 -1.05396,3.56463 -2.92601,6.11054 -6.33594,9.85352 0,0 1.58912,-0.11329 4.05274,-0.52539 2.69074,-3.6008 5.14633,-8.07821 5.98828,-10.92578 z" transform="scale(0.26458333)"/>
      </g>
    </g>
  </g>
</svg>