<?xml version="1.0" encoding="UTF-8" standalone="no"?>
<svg xmlns:dc="http://purl.org/dc/elements/1.1/" xmlns:cc="http://creativecommons.org/ns#" xmlns:rdf="http://www.w3.org/1999/02/22-rdf-syntax-ns#" xmlns:svg="http://www.w3.org/2000/svg" xmlns="http://www.w3.org/2000/svg" xmlns:sodipodi="http://sodipodi.sourceforge.net/DTD/sodipodi-0.dtd" xmlns:inkscape="http://www.inkscape.org/namespaces/inkscape" width="500" height="570" viewBox="0 0 132.29166 150.8125" version="1.1" id="svg847" sodipodi:docname="taivassalo.svg" inkscape:version="1.0.2 (e86c870879, 2021-01-15, custom)">
  <defs id="defs841"/>
  <sodipodi:namedview id="base" pagecolor="#ffffff" bordercolor="#666666" borderopacity="1.0" inkscape:pageopacity="0.0" inkscape:pageshadow="2" inkscape:zoom="0.98994949" inkscape:cx="225.06463" inkscape:cy="269.14232" inkscape:document-units="px" inkscape:current-layer="layer1" inkscape:document-rotation="0" showgrid="false" inkscape:snap-smooth-nodes="true" inkscape:showpageshadow="false" borderlayer="true" units="px" inkscape:window-width="1920" inkscape:window-height="1017" inkscape:window-x="-8" inkscape:window-y="-4" inkscape:window-maximized="1" inkscape:snap-global="true" showguides="false"/>
  <metadata id="metadata844">
    <rdf:RDF>
      <cc:Work rdf:about="">
        <dc:format>image/svg+xml</dc:format>
        <dc:type rdf:resource="http://purl.org/dc/dcmitype/StillImage"/>
        <dc:title/>
      </cc:Work>
    </rdf:RDF>
  </metadata>
  <g inkscape:label="Layer 1" inkscape:groupmode="layer" id="layer1" transform="translate(-31.370762,-20.14544)">
    <g id="g1378" transform="matrix(0.99462133,0,0,0.99462133,0.16873294,0.10835565)" style="stroke-width:1.00541">
      <path style="font-variation-settings:normal;opacity:1;vector-effect:none;fill:#d50606;fill-opacity:1;stroke:none;stroke-width:0.266014;stroke-linecap:butt;stroke-linejoin:miter;stroke-miterlimit:4;stroke-dasharray:none;stroke-dashoffset:0;stroke-opacity:1;stop-color:#000000;stop-opacity:1" d="m 31.370762,20.14544 v 87.06495 c 0,32.13306 26.12445,64.56311 66.503534,64.56311 40.379084,0 66.503534,-32.43005 66.503534,-64.56311 V 20.14544 Z" id="path844" sodipodi:nodetypes="cszscc"/>
      <path style="font-variation-settings:normal;opacity:1;vector-effect:none;fill:#800000;fill-opacity:1;stroke:none;stroke-width:0.266014;stroke-linecap:butt;stroke-linejoin:miter;stroke-miterlimit:4;stroke-dasharray:none;stroke-dashoffset:0;stroke-opacity:1;stop-color:#000000;stop-opacity:1" d="m 51.61265,120.90041 6.732701,0.85045 c 1.333862,9.74176 4.804969,18.77817 12.511278,25.63573 7.706309,6.85755 19.619045,12.38024 30.179191,12.38024 10.56015,0 20.53677,-2.60785 28.32099,-9.64038 3.78845,1.07313 6.24917,0.80452 9.77916,-0.32856 3.52999,-1.13308 7.31499,-4.0934 9.25875,-9.18641 1.94376,-5.09302 1.91498,-9.72697 0.76238,-13.08454 -1.1526,-3.35757 -0.52268,-6.8037 -0.52268,-6.8037 l 2.55134,-0.14174 0.85044,-0.85045 0.81501,-6.55552 2.15919,-0.24805 0.77958,-0.77957 0.5972,-4.60772 4.43501,-0.5763 0.37585,-0.47607 0.50113,-6.24503 -1.30379,1.8e-4 -40.90321,5.1006 -0.35079,0.65147 -0.80778,4.1033 0.0561,0.80777 3.80859,-0.20045 -1.00824,9.61574 0.0561,0.65744 3.31595,1.22087 c -1.43219,2.48615 -8.19347,11.98285 -24.05951,11.90625 -15.866038,-0.0766 -20.478496,-9.92646 -20.478496,-9.92646 l 3.859563,0.38412 0.99516,-0.77085 -0.132171,-6.5056 1.784847,0.31497 0.762642,-0.81573 -0.04183,-5.56292 -1.341748,-0.30675 -29.903894,-4.75739 -18.382476,-9.568866 c -1.458844,0.848164 -2.991501,1.428132 -3.263453,2.549715 -0.12975,0.535111 0.137162,1.554511 0.137162,1.554511 0,0 7.946637,5.27327 11.591832,8.00447 3.686947,2.76248 4.579166,5.26506 5.385945,10.71767 z" id="path1314" sodipodi:nodetypes="ccszczsccczcccccccccscccccccccccccccccscccc"/>
      <path style="font-variation-settings:normal;opacity:1;vector-effect:none;fill:#800000;fill-opacity:1;stroke:none;stroke-width:0.266014;stroke-linecap:butt;stroke-linejoin:miter;stroke-miterlimit:4;stroke-dasharray:none;stroke-dashoffset:0;stroke-opacity:1;stop-color:#000000;stop-opacity:1" d="m 125.78811,103.83715 -10.3471,-24.981867 -0.85044,3.260043 9.21317,22.111604 z m 6.20118,-0.53153 2.37416,-0.35435 -16.97349,-29.623889 -0.6024,2.161552 z m 13.32366,-1.2048 2.79938,-0.38979 -27.71038,-33.805245 -0.7087,1.630023 z M 42.345516,98.689274 63.0422,80.197563 62.891861,78.593946 41.393368,98.238256 Z M 96.517709,49.27782 85.492841,59.200201 84.791258,58.598844 95.515448,48.977142 Z" id="path1312" sodipodi:nodetypes="ccccccccccccccccccccccccc"/>
      <path style="font-variation-settings:normal;opacity:1;vector-effect:none;fill:#800000;fill-opacity:1;stroke:none;stroke-width:0.266014;stroke-linecap:butt;stroke-linejoin:miter;stroke-miterlimit:4;stroke-dasharray:none;stroke-dashoffset:0;stroke-opacity:1;stop-color:#000000;stop-opacity:1" d="m 79.225879,67.297131 c 0,0 -13.799741,1.257504 -14.60155,10.378077 -0.801809,9.120572 2.706104,23.653352 10.323286,31.070082 l 3.262471,1.25082 c 0,0 -1.309924,-2.56722 0.950673,-4.94374 2.260597,-2.37652 8.735975,-2.36394 13.25279,-1.76169 4.516815,0.60224 9.804471,3.22357 15.615851,6.83796 5.81138,3.6144 8.73503,7.31624 13.98581,9.56961 l 0.52309,-3.11862 c -2.25508,-1.60361 -5.17039,-6.08975 -6.7682,-13.12011 -1.01616,-4.471115 -1.95193,-10.46302 -1.17038,-16.758354 0.78155,-6.295333 2.55201,-11.445114 6.08748,-16.510619 3.53547,-5.065506 6.08333,-8.037094 10.64014,-12.274914 3.00431,-2.793995 4.36981,-4.303531 4.64163,-4.98811 0.27182,-0.684579 -0.49253,-1.014509 -0.49253,-1.014509 l -1.13897,0.271324 c 0,0 -0.85044,1.842634 -5.38615,2.62221 z" id="path1310" sodipodi:nodetypes="csccsssccszzszsccc"/>
      <path style="font-variation-settings:normal;opacity:1;vector-effect:none;fill:#800000;fill-opacity:1;stroke:none;stroke-width:0.266014;stroke-linecap:butt;stroke-linejoin:miter;stroke-miterlimit:4;stroke-dasharray:none;stroke-dashoffset:0;stroke-opacity:1;stop-color:#000000;stop-opacity:1" d="m 60.656111,59.204239 c 0.182449,1.185899 1.356998,1.536437 4.35246,1.213397 2.995462,-0.32304 33.685737,-3.522771 33.685737,-3.522771 0,0 40.260122,-5.084541 43.085512,-5.511016 2.82539,-0.426474 3.5346,-1.198098 3.37485,-2.236422 -0.15974,-1.03832 -1.2803,-1.689604 -4.20552,-1.381783 z" id="path1308" sodipodi:nodetypes="cscsscc"/>
      <path id="path1294" style="font-variation-settings:normal;opacity:1;vector-effect:none;fill:#800000;fill-opacity:1;stroke:none;stroke-width:1.00541;stroke-linecap:butt;stroke-linejoin:miter;stroke-miterlimit:4;stroke-dasharray:none;stroke-dashoffset:0;stroke-opacity:1;stop-color:#000000;stop-opacity:1" d="m 373.79883,85.566406 -8.73242,15.412114 -0.18164,32.81054 -39.8125,0.88867 8.58789,38.71485 1.32226,3.60742 29.66406,0.11328 7.875,334.49805 16.18946,-3.40821 -8.33789,-331.03124 24.96093,0.0957 13.39063,-44.73242 -4,0.14257 -35.12891,0.78321 -0.57226,-32.20117 c 3.23504,0 6.625,-2.636265 6.625,-7.925786 0,-5.940318 -5.67654,-7.767578 -11.84961,-7.767578 z m -30.3418,61.320314 h 17.32813 v 13.33594 h -15.29493 z m 40.90039,0 h 15.98242 l -2.0332,13.33594 h -13.94922 z" transform="scale(0.26458333)" sodipodi:nodetypes="cccccccccccccccsccccccccccc"/>
      <path style="font-variation-settings:normal;opacity:1;vector-effect:none;fill:#800000;fill-opacity:1;stroke:none;stroke-width:0.266014;stroke-linecap:butt;stroke-linejoin:miter;stroke-miterlimit:4;stroke-dasharray:none;stroke-dashoffset:0;stroke-opacity:1;stop-color:#000000;stop-opacity:1" d="m 36.033121,44.431905 c 2.308883,-0.9554 3.969138,-1.529979 8.656964,-1.829864 4.813784,-0.307942 7.2265,0.256082 10.551006,0.480373 3.329538,0.224631 5.521891,-0.71692 5.936183,-2.184216 0.414292,-1.467296 0.601356,-2.255086 0.601356,-2.255086 0,0 5.261869,0.300678 10.323286,0.150339 5.061416,-0.150339 6.495029,-0.867639 6.715147,-2.80633 0.270947,-2.386371 0.350791,-3.4578 0.350791,-3.4578 0,0 4.109269,0.150339 8.268651,0.601356 4.159382,0.451018 7.525553,-0.133142 9.229397,-0.985064 l 0.194681,-4.691842 -0.270099,-0.207372 c 0,0 -1.085781,1.173653 -3.892113,1.123539 -2.806329,-0.05011 -10.57385,-0.851922 -14.633006,-0.751695 -4.059155,0.100227 -6.46458,0.902034 -7.667294,1.80407 l 0.05011,3.357573 c 0,0 -2.004521,0 -6.76526,-0.05011 -4.760738,-0.05011 -7.681312,0.66048 -8.619442,1.403165 -0.93813,0.742686 -0.300678,1.65373 -0.701582,2.80633 -0.400905,1.1526 -0.100226,1.703844 -0.100226,1.703844 0,0 -5.66277,-0.200456 -9.321021,0.801805 -3.497777,0.958295 -7.380013,1.531733 -8.725629,4.353874 z" id="path1290" sodipodi:nodetypes="csszcsscscccssccssscscc"/>
      <path style="font-variation-settings:normal;opacity:1;vector-effect:none;fill:#c7a24c;fill-opacity:1;stroke:none;stroke-width:0.266014;stroke-linecap:butt;stroke-linejoin:miter;stroke-miterlimit:4;stroke-dasharray:none;stroke-dashoffset:0;stroke-opacity:1;stop-color:#000000;stop-opacity:1" d="m 100.82515,51.475631 -2.126117,-4.429408 v -1.559152 l 1.771757,0.177178 4.50028,5.811382 z" id="path1233"/>
      <path id="path1012" style="font-variation-settings:normal;opacity:1;vector-effect:none;fill:#c7a24c;fill-opacity:1;stroke:none;stroke-width:1.00541;stroke-linecap:butt;stroke-linejoin:miter;stroke-miterlimit:4;stroke-dasharray:none;stroke-dashoffset:0;stroke-opacity:1;stop-color:#000000;stop-opacity:1" d="m 376.86914,203.16016 -16.39648,3.27929 -1.63282,295.88282 23.37696,1.96484 z" transform="scale(0.26458333)"/>
      <path id="path1156" style="font-variation-settings:normal;opacity:1;vector-effect:none;fill:#ffffff;fill-opacity:1;stroke:none;stroke-width:1.00541;stroke-linecap:butt;stroke-linejoin:miter;stroke-miterlimit:4;stroke-dasharray:none;stroke-dashoffset:0;stroke-opacity:1;stop-color:#000000;stop-opacity:1" d="m 363.68555,205.79688 -3.21289,0.64257 -1.63282,295.88282 4.00977,0.33789 z" transform="scale(0.26458333)"/>
      <path style="font-variation-settings:normal;opacity:1;vector-effect:none;fill:#c7a24c;fill-opacity:1;stroke:none;stroke-width:0.266014;stroke-linecap:butt;stroke-linejoin:miter;stroke-miterlimit:4;stroke-dasharray:none;stroke-dashoffset:0;stroke-opacity:1;stop-color:#000000;stop-opacity:1" d="m 124.20061,103.83715 -8.92962,-21.560003 -2.26792,-0.161821 9.21317,22.111604 z m 6.20118,-0.53153 2.37416,-0.35435 -15.40637,-26.888214 -2.16952,-0.574123 z m 13.32366,-1.2048 2.79938,-0.38979 -25.83763,-31.520483 -2.58145,-0.654739 z" id="path1221" sodipodi:nodetypes="ccccccccccccccc"/>
      <path style="font-variation-settings:normal;opacity:1;vector-effect:none;fill:#ffffff;fill-opacity:1;stroke:none;stroke-width:0.266014;stroke-linecap:butt;stroke-linejoin:miter;stroke-miterlimit:4;stroke-dasharray:none;stroke-dashoffset:0;stroke-opacity:1;stop-color:#000000;stop-opacity:1" d="m 121.94172,104.13489 -7.342,-17.433724 -1.24403,-4.732943 9.2208,22.200077 z m 8.10161,-0.86863 -13.6432,-24.810069 -0.98981,-3.403566 15.38471,28.263755 z m 13.38018,-1.20271 -23.85768,-30.157347 -1.24895,-2.917256 25.7581,32.974383 z" id="path1219" sodipodi:nodetypes="ccccccccccccccc"/>
      <path id="path1223" style="font-variation-settings:normal;opacity:1;vector-effect:none;fill:#5a431f;fill-opacity:1;stroke:none;stroke-width:1.00541;stroke-linecap:butt;stroke-linejoin:miter;stroke-miterlimit:4;stroke-dasharray:none;stroke-dashoffset:0;stroke-opacity:1;stop-color:#000000;stop-opacity:1" d="m 444.5293,262.45117 7.37304,9.32031 c 1.60802,-2.62072 3.05173,-4.7986 4.23828,-6.48437 l -7.07812,-8.63477 z m -10.41602,23.48438 5.82422,10.59179 c 1.15782,-3.19188 2.39444,-6.21098 3.66406,-9.04492 l -5.92383,-10.33984 z m -7.9551,25.1914 6.97461,16.5625 c 0.42439,-5.83351 1.32101,-11.42527 2.53711,-16.7207 l -5.3574,-12.93359 z m -34.01531,-102.46623 4.6875,5.89285 6.16071,-5.89285 -3.75,-2.27679 z M 384.64286,210 l 4.01786,8.97322 6.16072,-2.00894 -4.41965,-8.70535 z" transform="scale(0.26458333)" sodipodi:nodetypes="ccccccccccccccccccccccccc"/>
      <path id="path1243" style="font-variation-settings:normal;opacity:1;vector-effect:none;fill:#5a431f;fill-opacity:1;stroke:none;stroke-width:1.00541;stroke-linecap:butt;stroke-linejoin:miter;stroke-miterlimit:4;stroke-dasharray:none;stroke-dashoffset:0;stroke-opacity:1;stop-color:#000000;stop-opacity:1" d="m 359.50977,380.75391 -0.0488,9.14257 c 3.1521,0.29291 12.29374,2.17757 20.83398,6.88166 l -0.16406,-9.89728 z m -0.0586,10.61328 -0.008,1.60742 c 3.14266,0.29073 12.33697,2.08179 20.9082,6.82016 l -0.0293,-2.19125 c -8.55647,-4.72139 -17.72477,-5.94469 -20.8711,-6.23633 z m -0.0176,3.21484 -0.008,1.60547 c 3.1331,0.28855 12.38007,1.51393 20.98242,6.28711 l -0.0293,-1.625 c -8.58725,-4.75565 -17.80837,-5.97809 -20.94532,-6.26758 z" transform="scale(0.26458333)" sodipodi:nodetypes="ccccccccccccccc"/>
      <path style="font-variation-settings:normal;opacity:1;vector-effect:none;fill:#c7a24c;fill-opacity:1;stroke:none;stroke-width:0.266014;stroke-linecap:butt;stroke-linejoin:miter;stroke-miterlimit:4;stroke-dasharray:none;stroke-dashoffset:0;stroke-opacity:1;stop-color:#000000;stop-opacity:1" d="m 121.52411,116.98053 c -2.25508,-1.60361 -5.87198,-6.2902 -7.46979,-13.32056 -1.01616,-4.471113 -2.03001,-10.749007 -1.24846,-17.044341 0.78155,-6.295333 2.54225,-12.360502 6.07772,-17.426007 3.53547,-5.065506 6.31866,-8.199764 10.82821,-11.875345 3.08983,-2.518406 4.96727,-4.411127 5.20356,-4.953718 0.23628,-0.542592 -0.49253,-1.014509 -0.49253,-1.014509 l -1.13897,0.271324 c 0,0 -1.9135,2.409598 -6.44921,3.189174 -4.53572,0.779576 -6.7327,-1.27567 -6.7327,-1.27567 l -1.63003,-0.07087 c -0.796,1.170547 -1.41741,2.267857 -5.17355,2.834821 -3.75613,0.566964 -5.12515,-0.987796 -5.12515,-0.987796 l -2.03277,-0.783967 c 0,0 -0.61659,2.555003 -3.54353,3.189174 -2.926936,0.634171 -3.617172,-0.278706 -4.453008,-1.100879 -0.52973,-0.521071 -1.216632,-0.10392 -1.216632,-0.10392 0,0 -1.573326,2.658174 -5.598773,3.330915 -3.997037,0.667993 -6.236607,-1.488281 -6.236607,-1.488281 l -3.614398,1.275669 c -5.953125,4.110491 -10.843191,0.07087 -10.843191,0.07087 l -2.029554,0.08824 c 0,0 -5.295277,8.769781 -6.097086,17.890354 -0.801809,9.120572 2.706104,23.653352 10.323286,31.070082 l 4.465184,0.74969 c 0,0 -1.913504,-2.33873 0.850447,-5.24442 2.763951,-2.90569 9.000558,-3.33092 13.25279,-2.76395 4.252232,0.56696 10.205362,2.62221 16.016742,6.2366 5.81138,3.6144 9.70926,8.29186 14.38672,10.77233 z" id="path1170" sodipodi:nodetypes="cszzscsccsccsczscszsccsccssscc"/>
      <path id="path1206" style="font-variation-settings:normal;opacity:1;vector-effect:none;fill:#ffffff;fill-opacity:1;stroke:none;stroke-width:1.00541;stroke-linecap:butt;stroke-linejoin:miter;stroke-miterlimit:4;stroke-dasharray:none;stroke-dashoffset:0;stroke-opacity:1;stop-color:#000000;stop-opacity:1" d="m 503.99023,195.0332 -0.24023,0.0566 c 0,0 -7.23216,9.10631 -24.375,12.05274 -10.89969,1.87338 -18.21289,-0.58231 -22.10352,-2.6211 2.50477,3.65723 8.49587,5.83248 16.89844,6.04297 9.38303,0.23504 23.64642,-4.54247 29.82031,-15.53125 z m -56.22265,7.01953 c -3.00851,4.42412 -5.3563,8.57199 -19.55274,10.71485 -6.71069,1.01294 -11.38555,0.23004 -14.4707,-0.87305 3.12399,2.55118 8.10219,3.31576 14.33789,3.46875 9.22726,0.2264 20.30724,-5.37993 19.68555,-13.31055 z m -47.58203,6.52344 c -1.48364,3.03217 -4.96481,7.93398 -12.41797,9.54883 -5.96883,1.29325 -9.4667,0.87719 -11.92774,-0.26172 8.13759,6.97753 27.69933,0.37757 24.34571,-9.28711 z m -31.58008,5.3086 -2.78906,0.43945 c -1.65834,2.31096 -7.83905,9.69684 -20.63868,11.83594 -8.44153,1.41076 -14.80375,-0.51156 -18.77929,-2.48243 11.0463,9.10115 35.63625,5.2137 42.20703,-9.79296 z m -101.64063,11.74023 -3.27343,0.14258 -0.80274,1.51367 c 14.59038,9.16834 26.91815,8.20587 36.63281,2.62305 -18.5096,7.31776 -32.55664,-4.2793 -32.55664,-4.2793 z m -6.65234,0.28906 -1.01953,0.0449 c 0,0 -20.01251,33.14573 -23.04297,67.61719 -3.03046,34.47146 10.22629,89.39795 39.01562,117.42969 l 3.6543,0.92383 c -4.06326,-4.52836 -10.31872,-12.19871 -16.9414,-25.88867 -6.62269,-13.68997 -16.5555,-35.48232 -20.25586,-60.41211 -1.92529,-13.58249 -2.37199,-27.89307 0.0332,-41.31446 3.43428,-19.01887 9.93137,-39.64642 19.09961,-56.60351 z m 5.41797,8.91797 c -1.92406,0.35645 -3.53671,1.53729 -4.30469,2.4707 -5.93016,7.20763 -8.56204,18.3103 -8.88672,26.40821 3.44621,-8.68861 7.71844,-20.23416 13.19141,-28.87891 z m 5.74609,1.66992 c -2.15445,0.39009 -2.90431,1.40229 -3.59375,2.20508 -5.05423,5.88521 -5.49414,14.8418 -5.49414,14.8418 0,0 5.27241,-10.40638 9.08789,-17.04688 z m -23.98047,56.44336 c -0.82597,2.10157 -2.04541,4.14244 -1.81836,15.05664 0.21219,10.19964 1.74973,42.99419 25.67383,83.91797 1.67609,2.86704 3.3211,5.36819 6.95117,9.37305 -10.8488,-18.83278 -18.58999,-36.80883 -23.06054,-51.84766 -7.94441,-26.72472 -7.29321,-45.90792 -7.7461,-56.5 z m 7.23633,16.69727 c -0.74875,3.46481 -0.61304,7.24173 -0.40039,9.71289 2.0156,23.42221 10.78356,47.57529 22.32617,66.50195 1.35817,2.22701 4.06492,5.27688 6.41992,6.95117 -15.50563,-25.18235 -26.53603,-55.19077 -28.3457,-83.16601 z" transform="scale(0.26458333)"/>
      <path style="font-variation-settings:normal;opacity:1;vector-effect:none;fill:#c7a24c;fill-opacity:1;stroke:none;stroke-width:0.266014;stroke-linecap:butt;stroke-linejoin:miter;stroke-miterlimit:4;stroke-dasharray:none;stroke-dashoffset:0;stroke-opacity:1;stop-color:#000000;stop-opacity:1" d="m 128.72369,148.21766 c 2.51278,1.00226 5.4885,1.45642 9.28307,0.23841 3.79457,-1.21801 7.38586,-3.80992 9.32962,-8.90293 1.94376,-5.09302 0.78105,-9.72697 -0.37155,-13.08454 -1.1526,-3.35757 0.18603,-6.8037 0.18603,-6.8037 l 2.62221,-0.14174 0.85044,-0.85045 0.81501,-6.55552 2.26786,-0.24805 0.77958,-0.77957 0.5972,-4.60772 4.43501,-0.5763 0.37585,-0.47607 0.50113,-5.1867 -41.96132,4.04245 -0.35079,0.65147 0.25056,5.16164 2.80633,-0.20045 0.0501,10.42351 2.31369,0.81997 c -1.43219,2.48615 -8.19347,11.98285 -24.059507,11.90625 -15.866035,-0.0766 -19.99835,-9.91989 -19.99835,-9.91989 l 3.095938,0.37755 0.99516,-0.77085 -0.132171,-6.5056 1.784847,0.31497 0.762642,-0.81573 -0.04183,-4.81122 -30.96216,-5.81584 -18.382476,-9.56886 c -2.154864,1.252826 -2.204974,3.608139 -2.204974,3.608139 0,0 7.379673,4.635421 11.024868,7.366621 3.884699,2.91065 5.31035,7.02769 6.089926,12.90994 l 5.811384,0.85045 c 1.333862,9.74176 5.230192,19.20339 12.936501,26.06095 7.706309,6.85755 19.193822,11.67153 29.753965,11.67153 10.560147,0 20.961987,-2.74959 28.746207,-9.78212 z" id="path848" sodipodi:nodetypes="czsccczcccccccczccccccccccccccccszszc"/>
      <path id="path961" style="font-variation-settings:normal;opacity:1;vector-effect:none;fill:#ffffff;fill-opacity:1;stroke:none;stroke-width:1.00541;stroke-linecap:butt;stroke-linejoin:miter;stroke-miterlimit:4;stroke-dasharray:none;stroke-dashoffset:0;stroke-opacity:1;stop-color:#000000;stop-opacity:1" d="m 138.20117,361.06641 c -8.14437,4.73509 -8.33398,13.63672 -8.33398,13.63671 0,0 1.29398,0.82151 1.78711,1.13282 l 7.43164,-11.23438 68.14648,35.22071 117.49024,21.93164 -0.0215,-2.54102 -117.02344,-21.98047 z m 468.01758,17.80468 -158.5957,15.27735 -1.32422,2.46289 0.94531,19.50781 2.26563,-3.39648 -0.0449,-17.00782 156.51954,-14.41992 z m -425.41992,32.67188 c 7.92514,10.07984 11.53366,23.04417 13.7539,39.79687 l 3.125,-3.75 c 0,0 -1.17502,-28.46137 -16.8789,-36.04687 z m 279.91601,2.6543 -2.86328,1.16406 0.18946,39.39648 2.67382,0.94727 z m -244.19726,40.35546 c 5.04137,36.81925 19.76832,72.57971 48.89453,98.49805 7.3869,6.57332 15.69581,12.64774 24.63086,18.05664 -66.3762,-51.19341 -65.2207,-115.40234 -65.2207,-115.40234 z m 250.26758,3.30469 c -5.41301,9.39647 -30.96747,45.28951 -90.9336,45 -52.84392,-0.25512 -71.229,-29.14543 -74.85547,-36.01172 -1.86478,-0.51927 -4.64257,-1.29101 -4.64257,-1.29101 0,0 18.29017,42.66015 84.71875,42.66015 66.42859,0 89.27929,-48.40625 89.27929,-48.40625 z" transform="scale(0.26458333)"/>
      <path id="path863" style="font-variation-settings:normal;opacity:1;vector-effect:none;fill:#5a431f;fill-opacity:1;stroke:none;stroke-width:1.00541;stroke-linecap:butt;stroke-linejoin:miter;stroke-miterlimit:4;stroke-dasharray:none;stroke-dashoffset:0;stroke-opacity:1;stop-color:#000000;stop-opacity:1" d="m 604.32422,398.47266 -154.81445,14.25 -2.26563,3.39648 10.60742,-0.75781 128.28906,-12.91016 16.76172,-2.17773 z m -414.14649,13.22461 -2.41015,4.55273 127.46289,23.04102 6.74609,1.18945 2.88282,-3.08399 z m 393.70704,8.16796 -125.9375,11.47461 2.27539,2.41016 112.14257,-10 8.57227,-0.9375 z m -376.39454,7.52344 0.42774,14.84571 2.99805,0.45507 -0.32618,-11.83007 6.99805,0.88476 -0.38281,-2.9668 z m 17.31641,2.72071 0.42774,14.84374 2.99804,0.45508 -0.32617,-11.83008 6.99805,0.88477 -0.38282,-2.9668 z m 329.14844,0.10546 -10.84961,0.625 -0.89844,12.67969 2.99805,-0.10742 0.62109,-9.68555 7.94531,-0.42578 z m -17.73242,1.31055 -10.85157,0.62305 -0.89648,12.68164 2.99609,-0.10742 0.62305,-9.68555 7.94336,-0.42773 z m -294.09961,1.30273 0.42773,14.84376 2.99805,0.45507 -0.32617,-11.83007 6.99804,0.88671 -0.38281,-2.96875 z m 276.36718,0.006 -10.85156,0.625 -0.89844,12.67969 2.99805,-0.10742 0.6211,-9.68555 7.94531,-0.42578 z m -17.73437,1.31055 -10.85156,0.62305 -0.89649,12.68164 2.9961,-0.10742 0.62304,-9.68555 7.94336,-0.42773 z m -17.73242,1.30859 -10.85156,0.625 -0.89844,12.67969 2.99804,-0.10742 0.6211,-9.68555 7.94531,-0.42578 z m -223.58399,0.0938 0.42774,14.8457 2.99609,0.45312 -0.32422,-11.83008 6.99805,0.88672 -0.38281,-2.96679 z m 17.31641,2.71874 0.42773,14.84571 2.9961,0.45508 -0.32422,-11.83008 6.99609,0.88476 -0.38281,-2.96679 z m -79.07813,9.32422 -3.125,3.75 21.96485,3.21289 c 0.16461,1.20221 0.34192,2.40388 0.52734,3.60352 l 28.77539,3.76758 c 0.0788,0.57114 0.1576,1.14172 0.2461,1.71289 l -28.72852,-3.67578 c 0.13881,0.84855 0.28217,1.69612 0.43164,2.54297 l 28.74609,3.79297 c 0.17148,0.94653 0.35515,1.89408 0.55274,2.83984 l -28.74219,-3.59766 c 0.10948,0.56938 0.22346,1.13863 0.33789,1.70703 l 28.7461,3.43946 c 12.41021,55.4035 69.03391,108.53596 134.35156,108.85156 66.89043,0.32318 119.59304,-36.02014 139.80469,-113.51563 l 13.48632,-0.59765 c -11.26746,58.48196 -48.53711,94.76953 -48.53711,94.76953 1.56,0.62223 3.17166,1.18026 4.83204,1.67187 6.04053,-5.95455 11.65462,-11.99163 15.69531,-18.27734 l 8.18359,0.0762 c 10.55509,-17.63811 22.64748,-43.09058 28.69336,-68.15429 l -7.00781,0.0664 c 0.81048,-3.80779 1.42114,-7.26176 1.88867,-10.31836 l 14.95313,-0.66211 c 0.0433,-0.81134 0.10224,-1.60529 0.18359,-2.36328 l -14.82031,0.83594 c 0.098,-0.70301 0.17771,-1.32927 0.25976,-1.97852 l 14.79688,-0.70703 c 0.14361,-0.96659 0.31169,-1.8487 0.48437,-2.67578 l -14.99609,0.9043 c 0.0737,-0.67529 0.16633,-1.41556 0.22266,-2.00781 l 15.25,-0.89844 c 0.53789,-2.08617 1.02539,-3.42774 1.02539,-3.42774 l 9.91211,-0.53711 3.21289,-3.21289 -111.24414,6.23047 8.74414,3.09961 c -0.48469,0.84137 -1.19186,1.95453 -2.00977,3.17578 l 20.33008,-1.19922 c -0.30042,0.70713 -0.62187,1.41293 -0.93945,2.11914 l -15.51954,0.93555 c -0.28703,0.48344 -0.64362,1.04617 -1.01171,1.62695 l 15.70507,-0.75 c -0.39602,0.84019 -0.80209,1.68024 -1.22265,2.51758 l -16.27539,0.91602 c -0.30471,0.43754 -0.59971,0.86278 -0.93946,1.33008 l 16.42774,-0.72657 c -16.51679,31.67514 -50.74638,60.54157 -105.47852,60.27735 -45.48035,-0.21971 -72.62273,-32.59781 -85.36523,-52.24024 l 18.75781,2.24414 c -0.41649,-0.44391 -0.82165,-0.88374 -1.20508,-1.3164 l -18.43359,-2.30664 c -0.60532,-0.95439 -1.12847,-1.81825 -1.66211,-2.69727 l 17.875,2.35938 c -0.88769,-1.12519 -1.64084,-2.1687 -2.29688,-3.13282 l -17.37304,-2.22265 c -0.35638,-0.61388 -0.64829,-1.13784 -0.96094,-1.68946 l 17.26562,2.26172 c -1.50585,-2.41801 -2.18554,-3.97461 -2.18554,-3.97461 l 11.70117,1.42579 3.76172,-2.91211 z m 338.81446,9.21485 c -0.096,0.67527 -0.19768,1.34571 -0.30078,2.01562 l -13.05469,0.78516 c 0.15678,-0.67821 0.31285,-1.35683 0.46484,-2.04102 z m -16.3418,0.96289 c -0.14805,0.68672 -0.30308,1.36604 -0.45703,2.04687 l -14.61524,0.87891 c 0.19019,-0.6852 0.35749,-1.37968 0.53907,-2.06836 z m -17.70703,1.04492 c -0.22424,0.69229 -0.43699,1.39295 -0.66797,2.08008 l -12.99609,0.7832 c 0.31809,-0.70637 0.63844,-1.41385 0.93945,-2.11328 z m 33.35547,2.44727 c -0.11342,0.6743 -0.22923,1.34695 -0.34961,2.01562 l -13.38086,0.75391 c 0.17895,-0.71185 0.36163,-1.42 0.53516,-2.13868 z m -16.61914,0.79492 c -0.17309,0.72764 -0.35332,1.44719 -0.53321,2.16797 l -14.85742,0.83789 c 0.23526,-0.76394 0.45537,-1.53402 0.67969,-2.30274 z m -270.70313,0.21679 17.00586,2.22657 c 0.10387,0.55037 0.23679,1.114 0.35352,1.66992 l -17.02735,-2.17969 c -0.11747,-0.57252 -0.22377,-1.14432 -0.33203,-1.7168 z m 252.58399,0.64844 c -0.27242,0.78154 -0.5429,1.56533 -0.82422,2.33985 l -13.49805,0.76171 c 0.40879,-0.82899 0.79646,-1.65236 1.18164,-2.4746 z m -233.07422,1.90625 14.83398,1.94336 c 0.23614,0.52445 0.50583,1.09905 0.77149,1.66992 L 268.43555,466.5 c -0.15057,-0.5585 -0.31211,-1.12137 -0.44922,-1.67383 z m 250.16406,1.34571 C 499.54044,537.66646 447.20602,574.73852 381.23438,574.41992 316.81998,574.10884 264.75149,523.6908 250.49805,471.05469 l 17.08203,2.04492 c 11.15587,37.93074 50.03605,84.1698 112.66015,84.47266 65.33395,0.31538 106.56597,-39.51938 122.99024,-90.74024 z m -268.75586,0.50585 17.05859,2.25 c 0.22052,0.90266 0.45771,1.81061 0.71094,2.72461 l -17.07617,-2.13867 c -0.24235,-0.94473 -0.47564,-1.89036 -0.69336,-2.83594 z m 250.20117,0.31641 c -19.05063,50.87725 -57.63715,86.0277 -119.58789,85.72852 -58.9396,-0.28476 -96.76394,-43.61427 -109.39648,-79.26172 l 16.47265,1.9707 c 11.42886,21.30731 37.70243,56.70957 90.08399,56.96289 60.84491,0.29364 93.0735,-33.97527 108.76953,-64.79687 z m -230.36132,2.30078 15.75585,2.08008 c 0.4261,0.86176 0.87545,1.75038 1.35938,2.67773 l -16.25586,-2.03515 c -0.30883,-0.9155 -0.58438,-1.81921 -0.85937,-2.72266 z" transform="scale(0.26458333)"/>
      <path style="font-variation-settings:normal;opacity:1;vector-effect:none;fill:#c7a24c;fill-opacity:1;stroke:none;stroke-width:0.266014;stroke-linecap:butt;stroke-linejoin:miter;stroke-miterlimit:4;stroke-dasharray:none;stroke-dashoffset:0;stroke-opacity:1;stop-color:#000000;stop-opacity:1" d="m 140.72148,50.854682 c 2.82539,-0.426474 3.82587,-0.833288 3.62542,-2.136196 -0.20045,-1.302903 -1.93177,-1.238587 -4.85699,-0.930766 -2.85514,0.300448 -42.35003,4.184005 -42.35003,4.184005 0,0 -29.515216,4.119495 -32.742188,4.606586 -3.226972,0.48709 -4.080325,1.011084 -3.89788,2.196987 0.182449,1.185899 0.992188,1.414631 4.252234,1.063058 3.260045,-0.351573 32.883928,-3.472658 32.883928,-3.472658 0,0 40.260116,-5.084541 43.085506,-5.511016 z" id="path1043" sodipodi:nodetypes="ssscssscs"/>
      <path id="path1047" style="font-variation-settings:normal;opacity:1;vector-effect:none;fill:#ffffff;fill-opacity:1;stroke:none;stroke-width:1.00541;stroke-linecap:butt;stroke-linejoin:miter;stroke-miterlimit:4;stroke-dasharray:none;stroke-dashoffset:0;stroke-opacity:1;stop-color:#000000;stop-opacity:1" d="m 537.67383,179.91797 c -2.80971,-0.0465 -6.32277,0.26098 -10.46875,0.69726 -10.79108,1.13556 -160.73214,14.47321 -160.73214,14.47321 0,0 -110.88393,16.91043 -123.08036,18.7514 -12.19643,1.84097 -15.42198,3.82059 -14.73242,8.30274 0.45087,2.93063 1.93579,4.30738 6.33984,4.54297 -1.41971,-0.55641 -3.01266,-1.94289 -2.66086,-4.29654 0.3518,-2.35364 3.26151,-4.33378 13.94016,-5.94565 10.67865,-1.61188 124.3457,-17.60352 124.3457,-17.60352 0,0 143.37884,-14.41132 154.16992,-15.54687 11.05595,-1.16342 17.59982,-1.40678 18.35742,3.51758 0.15241,0.99065 0.11114,1.83928 -0.12304,2.58398 2.1613,-1.19962 2.91018,-2.81136 2.5332,-5.26172 -0.4735,-3.07772 -3.20582,-4.13729 -7.88867,-4.21484 z" transform="scale(0.26458333)" sodipodi:nodetypes="sscssczscsscss"/>
      <g id="g1109" transform="matrix(0.9978761,-0.06097251,0.06514046,0.93402798,9.3021104,6.2010154)" style="stroke-width:1.0392">
        <path style="font-variation-settings:normal;opacity:1;vector-effect:none;fill:#c7a24c;fill-opacity:1;stroke:none;stroke-width:0.274956;stroke-linecap:butt;stroke-linejoin:miter;stroke-miterlimit:4;stroke-dasharray:none;stroke-dashoffset:0;stroke-opacity:1;stop-color:#000000;stop-opacity:1" d="m 72.421046,55.275392 c 0,0 -0.134265,-0.532978 -0.644542,-0.864124 -0.387231,-0.251295 -1.697357,-0.224837 -2.299755,0.412996 -0.602401,0.637837 -1.080776,2.445033 -0.832729,3.844727 0.248047,1.399693 0.992188,1.87807 1.789481,1.612304 0.797292,-0.265763 0.248046,-2.799384 0.478374,-3.756138 0.230331,-0.956752 1.069399,-1.135271 1.509171,-1.249765 z" id="path1103" sodipodi:nodetypes="csssssc"/>
        <path style="color:#000000;font-style:normal;font-variant:normal;font-weight:normal;font-stretch:normal;font-size:medium;line-height:normal;font-family:sans-serif;font-variant-ligatures:normal;font-variant-position:normal;font-variant-caps:normal;font-variant-numeric:normal;font-variant-alternates:normal;font-variant-east-asian:normal;font-feature-settings:normal;font-variation-settings:normal;text-indent:0;text-align:start;text-decoration:none;text-decoration-line:none;text-decoration-style:solid;text-decoration-color:#000000;letter-spacing:normal;word-spacing:normal;text-transform:none;writing-mode:lr-tb;direction:ltr;text-orientation:mixed;dominant-baseline:auto;baseline-shift:baseline;text-anchor:start;white-space:normal;shape-padding:0;shape-margin:0;inline-size:0;clip-rule:nonzero;display:inline;overflow:visible;visibility:visible;opacity:1;isolation:auto;mix-blend-mode:normal;color-interpolation:sRGB;color-interpolation-filters:linearRGB;solid-color:#000000;solid-opacity:1;vector-effect:none;fill:#5a431f;fill-opacity:1;fill-rule:nonzero;stroke:none;stroke-width:1.0392;stroke-linecap:round;stroke-linejoin:miter;stroke-miterlimit:4;stroke-dasharray:none;stroke-dashoffset:0;stroke-opacity:1;color-rendering:auto;image-rendering:auto;shape-rendering:auto;text-rendering:auto;enable-background:accumulate;stop-color:#000000;stop-opacity:1" d="m 70.229563,60.162546 c -0.166468,0.08446 -0.600987,0.439685 -0.600987,0.439685 0,0 0.56205,0.158178 1.173912,-0.318915 0.611862,-0.477093 0.411963,-0.808796 0.383654,-2.0281 -0.02831,-1.219304 0.206547,-1.976695 0.529822,-2.447452 0.323274,-0.470758 0.705082,-0.53237 0.705082,-0.53237 0,0 -0.639523,-0.592027 -1.243559,-0.06685 -0.604036,0.525182 -1.092905,1.640747 -0.874183,3.095131 0.218723,1.454384 0.149175,1.745768 -0.07374,1.858871 z" id="path1105" sodipodi:nodetypes="sczzzczcs"/>
        <path style="color:#000000;font-style:normal;font-variant:normal;font-weight:normal;font-stretch:normal;font-size:medium;line-height:normal;font-family:sans-serif;font-variant-ligatures:normal;font-variant-position:normal;font-variant-caps:normal;font-variant-numeric:normal;font-variant-alternates:normal;font-variant-east-asian:normal;font-feature-settings:normal;font-variation-settings:normal;text-indent:0;text-align:start;text-decoration:none;text-decoration-line:none;text-decoration-style:solid;text-decoration-color:#000000;letter-spacing:normal;word-spacing:normal;text-transform:none;writing-mode:lr-tb;direction:ltr;text-orientation:mixed;dominant-baseline:auto;baseline-shift:baseline;text-anchor:start;white-space:normal;shape-padding:0;shape-margin:0;inline-size:0;clip-rule:nonzero;display:inline;overflow:visible;visibility:visible;opacity:1;isolation:auto;mix-blend-mode:normal;color-interpolation:sRGB;color-interpolation-filters:linearRGB;solid-color:#000000;solid-opacity:1;vector-effect:none;fill:#ffffff;fill-opacity:1;fill-rule:nonzero;stroke:none;stroke-width:1.0392;stroke-linecap:round;stroke-linejoin:miter;stroke-miterlimit:4;stroke-dasharray:none;stroke-dashoffset:0;stroke-opacity:1;color-rendering:auto;image-rendering:auto;shape-rendering:auto;text-rendering:auto;enable-background:accumulate;stop-color:#000000;stop-opacity:1" d="m 68.952567,55.1363 c -0.615479,0.874626 -0.801725,2.115293 -0.724051,3.174247 0.07767,1.058954 0.52494,1.989919 1.400057,2.291684 0.288985,0.09872 0.603553,-0.07516 0.600983,-0.439685 -0.190709,0.01228 -0.31561,0.06011 -0.602812,-0.134223 -0.287202,-0.194334 -0.435622,-0.903361 -0.504722,-1.845425 -0.0691,-0.942063 0.117779,-1.920687 0.731442,-2.840874 0.613663,-0.920187 1.288793,-0.911623 1.923042,-0.930754 -0.171698,-0.171698 -0.495048,-0.384034 -0.995257,-0.368304 -0.500208,0.01573 -1.225008,0.235482 -1.828682,1.093334 z" id="path1107" sodipodi:nodetypes="sscczszczs"/>
      </g>
      <g id="g1082" style="stroke-width:1.00541">
        <path style="font-variation-settings:normal;opacity:1;vector-effect:none;fill:#c7a24c;fill-opacity:1;stroke:none;stroke-width:0.266014;stroke-linecap:round;stroke-linejoin:miter;stroke-miterlimit:4;stroke-dasharray:none;stroke-dashoffset:0;stroke-opacity:1;stop-color:#000000;stop-opacity:1" d="M 43.165974,96.479897 C 44.627417,95.130838 96.918611,47.878216 96.918611,47.878216 l -1.102487,-1.657292 c 0,0 -53.143116,48.308558 -54.45422,49.407051 -1.311105,1.098493 -2.294694,2.214184 -3.08287,3.652352 -0.778186,1.419943 -0.347508,2.375603 -0.04197,2.531503 0.305536,0.1559 1.272753,-0.42199 1.877311,-1.74818 0.604559,-1.326181 1.590157,-2.234695 3.051601,-3.583753 z" id="path1067" sodipodi:nodetypes="zcczszcz"/>
        <path style="color:#000000;font-style:normal;font-variant:normal;font-weight:normal;font-stretch:normal;font-size:medium;line-height:normal;font-family:sans-serif;font-variant-ligatures:normal;font-variant-position:normal;font-variant-caps:normal;font-variant-numeric:normal;font-variant-alternates:normal;font-variant-east-asian:normal;font-feature-settings:normal;font-variation-settings:normal;text-indent:0;text-align:start;text-decoration:none;text-decoration-line:none;text-decoration-style:solid;text-decoration-color:#000000;letter-spacing:normal;word-spacing:normal;text-transform:none;writing-mode:lr-tb;direction:ltr;text-orientation:mixed;dominant-baseline:auto;baseline-shift:baseline;text-anchor:start;white-space:normal;shape-padding:0;shape-margin:0;inline-size:0;clip-rule:nonzero;display:inline;overflow:visible;visibility:visible;opacity:1;isolation:auto;mix-blend-mode:normal;color-interpolation:sRGB;color-interpolation-filters:linearRGB;solid-color:#000000;solid-opacity:1;vector-effect:none;fill:#5a431f;fill-opacity:1;fill-rule:nonzero;stroke:none;stroke-width:0.266014;stroke-linecap:round;stroke-linejoin:miter;stroke-miterlimit:4;stroke-dasharray:none;stroke-dashoffset:0;stroke-opacity:1;color-rendering:auto;image-rendering:auto;shape-rendering:auto;text-rendering:auto;enable-background:accumulate;stop-color:#000000;stop-opacity:1" d="m 96.742188,47.681641 c 0,0 -13.074581,11.813116 -26.330079,23.794921 -13.255498,11.981806 -26.670701,24.111579 -27.425781,24.808594 -1.461382,1.349001 -2.483885,2.289058 -3.144531,3.738284 -0.282667,0.62007 -0.436361,0.88677 -0.732003,1.2334 -0.295642,0.34663 -0.87273,0.55499 -1.055525,0.56208 0.38726,0.3534 1.091926,0.19998 1.410715,-0.11608 0.318788,-0.31605 0.568614,-0.82313 0.859235,-1.46065 0.611009,-1.340341 1.559978,-2.219247 3.021484,-3.568362 C 44.052066,96.021784 57.512118,83.850911 70.767578,71.869141 84.023038,59.88737 97.095703,48.074219 97.095703,48.074219 Z" id="path1052" sodipodi:nodetypes="cssszczssscc"/>
        <path style="color:#000000;font-style:normal;font-variant:normal;font-weight:normal;font-stretch:normal;font-size:medium;line-height:normal;font-family:sans-serif;font-variant-ligatures:normal;font-variant-position:normal;font-variant-caps:normal;font-variant-numeric:normal;font-variant-alternates:normal;font-variant-east-asian:normal;font-feature-settings:normal;font-variation-settings:normal;text-indent:0;text-align:start;text-decoration:none;text-decoration-line:none;text-decoration-style:solid;text-decoration-color:#000000;letter-spacing:normal;word-spacing:normal;text-transform:none;writing-mode:lr-tb;direction:ltr;text-orientation:mixed;dominant-baseline:auto;baseline-shift:baseline;text-anchor:start;white-space:normal;shape-padding:0;shape-margin:0;inline-size:0;clip-rule:nonzero;display:inline;overflow:visible;visibility:visible;opacity:1;isolation:auto;mix-blend-mode:normal;color-interpolation:sRGB;color-interpolation-filters:linearRGB;solid-color:#000000;solid-opacity:1;vector-effect:none;fill:#f9f9f9;fill-opacity:1;fill-rule:nonzero;stroke:none;stroke-width:0.266014;stroke-linecap:square;stroke-linejoin:miter;stroke-miterlimit:4;stroke-dasharray:none;stroke-dashoffset:0;stroke-opacity:1;color-rendering:auto;image-rendering:auto;shape-rendering:auto;text-rendering:auto;enable-background:accumulate;stop-color:#000000;stop-opacity:1" d="m 95.638672,46.025391 c 0,0 -13.286723,12.07662 -26.736328,24.291015 -6.724803,6.107198 -13.489826,12.248344 -18.65625,16.931641 -2.583212,2.341648 -4.767309,4.320221 -6.345703,5.746094 -1.578395,1.425872 -2.57375,2.318336 -2.708985,2.43164 -1.328773,1.113297 -2.339486,2.257614 -3.144531,3.726563 -0.413525,0.754553 -0.470438,1.385686 -0.410156,1.828126 0.06028,0.44244 0.243736,0.6749 0.243736,0.6749 0.08463,0.11927 0.237433,0.24123 0.356607,0.15646 0.119272,-0.0793 0.0861,-0.28048 0.04372,-0.39419 -0.04238,-0.11372 -0.07494,-0.17224 -0.120618,-0.50748 -0.04568,-0.33525 -0.0131,-0.83657 0.351563,-1.501957 0.771306,-1.407387 1.726094,-2.494435 3.019531,-3.578125 0.192542,-0.161318 1.145786,-1.017099 2.724609,-2.443359 1.578824,-1.42626 3.762374,-3.404339 6.345703,-5.746094 C 55.768221,82.957116 62.532948,76.816238 69.257812,70.708984 82.707541,58.494478 95.994141,46.416016 95.994141,46.416016 Z" id="path1050" sodipodi:nodetypes="csssssscczsssssscc"/>
      </g>
      <g id="g1101" transform="translate(-0.07087054,0.1063058)" style="stroke-width:1.00541">
        <path style="font-variation-settings:normal;opacity:1;vector-effect:none;fill:#c7a24c;fill-opacity:1;stroke:none;stroke-width:0.266014;stroke-linecap:butt;stroke-linejoin:miter;stroke-miterlimit:4;stroke-dasharray:none;stroke-dashoffset:0;stroke-opacity:1;stop-color:#000000;stop-opacity:1" d="m 72.421046,55.275392 c 0,0 -0.134265,-0.532978 -0.644542,-0.864124 -0.387231,-0.251295 -1.697357,-0.224837 -2.299755,0.412996 -0.602401,0.637837 -1.080776,2.445033 -0.832729,3.844727 0.248047,1.399693 0.992188,1.87807 1.789481,1.612304 0.797292,-0.265763 0.248046,-2.799384 0.478374,-3.756138 0.230331,-0.956752 1.069399,-1.135271 1.509171,-1.249765 z" id="path1096" sodipodi:nodetypes="csssssc"/>
        <path style="color:#000000;font-style:normal;font-variant:normal;font-weight:normal;font-stretch:normal;font-size:medium;line-height:normal;font-family:sans-serif;font-variant-ligatures:normal;font-variant-position:normal;font-variant-caps:normal;font-variant-numeric:normal;font-variant-alternates:normal;font-variant-east-asian:normal;font-feature-settings:normal;font-variation-settings:normal;text-indent:0;text-align:start;text-decoration:none;text-decoration-line:none;text-decoration-style:solid;text-decoration-color:#000000;letter-spacing:normal;word-spacing:normal;text-transform:none;writing-mode:lr-tb;direction:ltr;text-orientation:mixed;dominant-baseline:auto;baseline-shift:baseline;text-anchor:start;white-space:normal;shape-padding:0;shape-margin:0;inline-size:0;clip-rule:nonzero;display:inline;overflow:visible;visibility:visible;opacity:1;isolation:auto;mix-blend-mode:normal;color-interpolation:sRGB;color-interpolation-filters:linearRGB;solid-color:#000000;solid-opacity:1;vector-effect:none;fill:#5a431f;fill-opacity:1;fill-rule:nonzero;stroke:none;stroke-width:1.00541;stroke-linecap:round;stroke-linejoin:miter;stroke-miterlimit:4;stroke-dasharray:none;stroke-dashoffset:0;stroke-opacity:1;color-rendering:auto;image-rendering:auto;shape-rendering:auto;text-rendering:auto;enable-background:accumulate;stop-color:#000000;stop-opacity:1" d="m 70.303303,58.303677 c 0.218724,1.454382 0.149176,1.745766 -0.07374,1.858869 -0.166468,0.08446 -0.600987,0.439685 -0.600987,0.439685 0,0 0.56205,0.158178 1.173912,-0.318915 0.611862,-0.477093 0.411963,-0.808796 0.383654,-2.0281 -0.02831,-1.219304 0.206547,-1.976695 0.529822,-2.447452 0.323274,-0.470758 0.705082,-0.53237 0.705082,-0.53237 0,0 -0.639523,-0.592027 -1.243559,-0.06685 -0.604036,0.525182 -1.092905,1.640747 -0.874181,3.095128 z" id="path1086" sodipodi:nodetypes="zsczzzczzz"/>
        <path style="color:#000000;font-style:normal;font-variant:normal;font-weight:normal;font-stretch:normal;font-size:medium;line-height:normal;font-family:sans-serif;font-variant-ligatures:normal;font-variant-position:normal;font-variant-caps:normal;font-variant-numeric:normal;font-variant-alternates:normal;font-variant-east-asian:normal;font-feature-settings:normal;font-variation-settings:normal;text-indent:0;text-align:start;text-decoration:none;text-decoration-line:none;text-decoration-style:solid;text-decoration-color:#000000;letter-spacing:normal;word-spacing:normal;text-transform:none;writing-mode:lr-tb;direction:ltr;text-orientation:mixed;dominant-baseline:auto;baseline-shift:baseline;text-anchor:start;white-space:normal;shape-padding:0;shape-margin:0;inline-size:0;clip-rule:nonzero;display:inline;overflow:visible;visibility:visible;opacity:1;isolation:auto;mix-blend-mode:normal;color-interpolation:sRGB;color-interpolation-filters:linearRGB;solid-color:#000000;solid-opacity:1;vector-effect:none;fill:#ffffff;fill-opacity:1;fill-rule:nonzero;stroke:none;stroke-width:1.00541;stroke-linecap:round;stroke-linejoin:miter;stroke-miterlimit:4;stroke-dasharray:none;stroke-dashoffset:0;stroke-opacity:1;color-rendering:auto;image-rendering:auto;shape-rendering:auto;text-rendering:auto;enable-background:accumulate;stop-color:#000000;stop-opacity:1" d="m 68.952567,55.1363 c -0.615479,0.874626 -0.801725,2.115293 -0.724051,3.174247 0.07767,1.058954 0.52494,1.989919 1.400057,2.291684 0.288985,0.09872 0.603553,-0.07516 0.600983,-0.439685 -0.190709,0.01228 -0.31561,0.06011 -0.602812,-0.134223 -0.287202,-0.194334 -0.435622,-0.903361 -0.504722,-1.845425 -0.0691,-0.942063 0.117779,-1.920687 0.731442,-2.840874 0.613663,-0.920187 1.288793,-0.911623 1.923042,-0.930754 -0.171698,-0.171698 -0.495048,-0.384034 -0.995257,-0.368304 -0.500208,0.01573 -1.225008,0.235482 -1.828682,1.093334 z" id="path1084" sodipodi:nodetypes="sscczszczs"/>
      </g>
      <g id="g1125" transform="matrix(0.99394652,-0.06097251,0.12533705,0.93402798,30.243586,3.317735)" style="stroke-width:1.0392">
        <path style="font-variation-settings:normal;opacity:1;vector-effect:none;fill:#c7a24c;fill-opacity:1;stroke:none;stroke-width:0.274956;stroke-linecap:butt;stroke-linejoin:miter;stroke-miterlimit:4;stroke-dasharray:none;stroke-dashoffset:0;stroke-opacity:1;stop-color:#000000;stop-opacity:1" d="m 72.421046,55.275392 c 0,0 -0.134265,-0.532978 -0.644542,-0.864124 -0.387231,-0.251295 -1.697357,-0.224837 -2.299755,0.412996 -0.602401,0.637837 -1.080776,2.445033 -0.832729,3.844727 0.248047,1.399693 0.992188,1.87807 1.789481,1.612304 0.797292,-0.265763 0.248046,-2.799384 0.478374,-3.756138 0.230331,-0.956752 1.069399,-1.135271 1.509171,-1.249765 z" id="path1119" sodipodi:nodetypes="csssssc"/>
        <path style="color:#000000;font-style:normal;font-variant:normal;font-weight:normal;font-stretch:normal;font-size:medium;line-height:normal;font-family:sans-serif;font-variant-ligatures:normal;font-variant-position:normal;font-variant-caps:normal;font-variant-numeric:normal;font-variant-alternates:normal;font-variant-east-asian:normal;font-feature-settings:normal;font-variation-settings:normal;text-indent:0;text-align:start;text-decoration:none;text-decoration-line:none;text-decoration-style:solid;text-decoration-color:#000000;letter-spacing:normal;word-spacing:normal;text-transform:none;writing-mode:lr-tb;direction:ltr;text-orientation:mixed;dominant-baseline:auto;baseline-shift:baseline;text-anchor:start;white-space:normal;shape-padding:0;shape-margin:0;inline-size:0;clip-rule:nonzero;display:inline;overflow:visible;visibility:visible;opacity:1;isolation:auto;mix-blend-mode:normal;color-interpolation:sRGB;color-interpolation-filters:linearRGB;solid-color:#000000;solid-opacity:1;vector-effect:none;fill:#5a431f;fill-opacity:1;fill-rule:nonzero;stroke:none;stroke-width:1.0392;stroke-linecap:round;stroke-linejoin:miter;stroke-miterlimit:4;stroke-dasharray:none;stroke-dashoffset:0;stroke-opacity:1;color-rendering:auto;image-rendering:auto;shape-rendering:auto;text-rendering:auto;enable-background:accumulate;stop-color:#000000;stop-opacity:1" d="m 70.303303,58.303677 c 0.218724,1.454382 0.149176,1.745766 -0.07374,1.858869 -0.166468,0.08446 -0.600987,0.439685 -0.600987,0.439685 0,0 0.56205,0.158178 1.173912,-0.318915 0.611862,-0.477093 0.411963,-0.808796 0.383654,-2.0281 -0.02831,-1.219304 0.206547,-1.976695 0.529822,-2.447452 0.323274,-0.470758 0.705082,-0.53237 0.705082,-0.53237 0,0 -0.639523,-0.592027 -1.243559,-0.06685 -0.604036,0.525182 -1.092905,1.640747 -0.874181,3.095128 z" id="path1121" sodipodi:nodetypes="zsczzzczzz"/>
        <path style="color:#000000;font-style:normal;font-variant:normal;font-weight:normal;font-stretch:normal;font-size:medium;line-height:normal;font-family:sans-serif;font-variant-ligatures:normal;font-variant-position:normal;font-variant-caps:normal;font-variant-numeric:normal;font-variant-alternates:normal;font-variant-east-asian:normal;font-feature-settings:normal;font-variation-settings:normal;text-indent:0;text-align:start;text-decoration:none;text-decoration-line:none;text-decoration-style:solid;text-decoration-color:#000000;letter-spacing:normal;word-spacing:normal;text-transform:none;writing-mode:lr-tb;direction:ltr;text-orientation:mixed;dominant-baseline:auto;baseline-shift:baseline;text-anchor:start;white-space:normal;shape-padding:0;shape-margin:0;inline-size:0;clip-rule:nonzero;display:inline;overflow:visible;visibility:visible;opacity:1;isolation:auto;mix-blend-mode:normal;color-interpolation:sRGB;color-interpolation-filters:linearRGB;solid-color:#000000;solid-opacity:1;vector-effect:none;fill:#ffffff;fill-opacity:1;fill-rule:nonzero;stroke:none;stroke-width:1.0392;stroke-linecap:round;stroke-linejoin:miter;stroke-miterlimit:4;stroke-dasharray:none;stroke-dashoffset:0;stroke-opacity:1;color-rendering:auto;image-rendering:auto;shape-rendering:auto;text-rendering:auto;enable-background:accumulate;stop-color:#000000;stop-opacity:1" d="m 68.952567,55.1363 c -0.615479,0.874626 -0.801725,2.115293 -0.724051,3.174247 0.07767,1.058954 0.52494,1.989919 1.400057,2.291684 0.288985,0.09872 0.603553,-0.07516 0.600983,-0.439685 -0.190709,0.01228 -0.31561,0.06011 -0.602812,-0.134223 -0.287202,-0.194334 -0.435622,-0.903361 -0.504722,-1.845425 -0.0691,-0.942063 0.117779,-1.920687 0.731442,-2.840874 0.613663,-0.920187 1.288793,-0.911623 1.923042,-0.930754 -0.171698,-0.171698 -0.495048,-0.384034 -0.995257,-0.368304 -0.500208,0.01573 -1.225008,0.235482 -1.828682,1.093334 z" id="path1123" sodipodi:nodetypes="sscczszczs"/>
      </g>
      <g id="g1133" transform="matrix(0.99573864,0.01232457,0.05627415,0.94071827,45.98321,-3.4243319)" style="stroke-width:1.0392">
        <path style="font-variation-settings:normal;opacity:1;vector-effect:none;fill:#c7a24c;fill-opacity:1;stroke:none;stroke-width:0.274956;stroke-linecap:butt;stroke-linejoin:miter;stroke-miterlimit:4;stroke-dasharray:none;stroke-dashoffset:0;stroke-opacity:1;stop-color:#000000;stop-opacity:1" d="m 72.421046,55.275392 c 0,0 -0.134265,-0.532978 -0.644542,-0.864124 -0.387231,-0.251295 -1.697357,-0.224837 -2.299755,0.412996 -0.602401,0.637837 -1.080776,2.445033 -0.832729,3.844727 0.248047,1.399693 0.992188,1.87807 1.789481,1.612304 0.797292,-0.265763 0.248046,-2.799384 0.478374,-3.756138 0.230331,-0.956752 1.069399,-1.135271 1.509171,-1.249765 z" id="path1127" sodipodi:nodetypes="csssssc"/>
        <path style="color:#000000;font-style:normal;font-variant:normal;font-weight:normal;font-stretch:normal;font-size:medium;line-height:normal;font-family:sans-serif;font-variant-ligatures:normal;font-variant-position:normal;font-variant-caps:normal;font-variant-numeric:normal;font-variant-alternates:normal;font-variant-east-asian:normal;font-feature-settings:normal;font-variation-settings:normal;text-indent:0;text-align:start;text-decoration:none;text-decoration-line:none;text-decoration-style:solid;text-decoration-color:#000000;letter-spacing:normal;word-spacing:normal;text-transform:none;writing-mode:lr-tb;direction:ltr;text-orientation:mixed;dominant-baseline:auto;baseline-shift:baseline;text-anchor:start;white-space:normal;shape-padding:0;shape-margin:0;inline-size:0;clip-rule:nonzero;display:inline;overflow:visible;visibility:visible;opacity:1;isolation:auto;mix-blend-mode:normal;color-interpolation:sRGB;color-interpolation-filters:linearRGB;solid-color:#000000;solid-opacity:1;vector-effect:none;fill:#5a431f;fill-opacity:1;fill-rule:nonzero;stroke:none;stroke-width:1.0392;stroke-linecap:round;stroke-linejoin:miter;stroke-miterlimit:4;stroke-dasharray:none;stroke-dashoffset:0;stroke-opacity:1;color-rendering:auto;image-rendering:auto;shape-rendering:auto;text-rendering:auto;enable-background:accumulate;stop-color:#000000;stop-opacity:1" d="m 70.303303,58.303677 c 0.218724,1.454382 0.149176,1.745766 -0.07374,1.858869 -0.166468,0.08446 -0.600987,0.439685 -0.600987,0.439685 0,0 0.56205,0.158178 1.173912,-0.318915 0.611862,-0.477093 0.411963,-0.808796 0.383654,-2.0281 -0.02831,-1.219304 0.206547,-1.976695 0.529822,-2.447452 0.323274,-0.470758 0.705082,-0.53237 0.705082,-0.53237 0,0 -0.639523,-0.592027 -1.243559,-0.06685 -0.604036,0.525182 -1.092905,1.640747 -0.874181,3.095128 z" id="path1129" sodipodi:nodetypes="zsczzzczzz"/>
        <path style="color:#000000;font-style:normal;font-variant:normal;font-weight:normal;font-stretch:normal;font-size:medium;line-height:normal;font-family:sans-serif;font-variant-ligatures:normal;font-variant-position:normal;font-variant-caps:normal;font-variant-numeric:normal;font-variant-alternates:normal;font-variant-east-asian:normal;font-feature-settings:normal;font-variation-settings:normal;text-indent:0;text-align:start;text-decoration:none;text-decoration-line:none;text-decoration-style:solid;text-decoration-color:#000000;letter-spacing:normal;word-spacing:normal;text-transform:none;writing-mode:lr-tb;direction:ltr;text-orientation:mixed;dominant-baseline:auto;baseline-shift:baseline;text-anchor:start;white-space:normal;shape-padding:0;shape-margin:0;inline-size:0;clip-rule:nonzero;display:inline;overflow:visible;visibility:visible;opacity:1;isolation:auto;mix-blend-mode:normal;color-interpolation:sRGB;color-interpolation-filters:linearRGB;solid-color:#000000;solid-opacity:1;vector-effect:none;fill:#ffffff;fill-opacity:1;fill-rule:nonzero;stroke:none;stroke-width:1.0392;stroke-linecap:round;stroke-linejoin:miter;stroke-miterlimit:4;stroke-dasharray:none;stroke-dashoffset:0;stroke-opacity:1;color-rendering:auto;image-rendering:auto;shape-rendering:auto;text-rendering:auto;enable-background:accumulate;stop-color:#000000;stop-opacity:1" d="m 68.952567,55.1363 c -0.615479,0.874626 -0.801725,2.115293 -0.724051,3.174247 0.07767,1.058954 0.52494,1.989919 1.400057,2.291684 0.288985,0.09872 0.603553,-0.07516 0.600983,-0.439685 -0.190709,0.01228 -0.31561,0.06011 -0.602812,-0.134223 -0.287202,-0.194334 -0.435622,-0.903361 -0.504722,-1.845425 -0.0691,-0.942063 0.117779,-1.920687 0.731442,-2.840874 0.613663,-0.920187 1.288793,-0.911623 1.923042,-0.930754 -0.171698,-0.171698 -0.495048,-0.384034 -0.995257,-0.368304 -0.500208,0.01573 -1.225008,0.235482 -1.828682,1.093334 z" id="path1131" sodipodi:nodetypes="sscczszczs"/>
      </g>
      <g id="g1141" transform="matrix(0.98580627,0.14083082,-0.06570027,0.94010698,68.274068,-13.970081)" style="stroke-width:1.0392">
        <path style="font-variation-settings:normal;opacity:1;vector-effect:none;fill:#c7a24c;fill-opacity:1;stroke:none;stroke-width:0.274956;stroke-linecap:butt;stroke-linejoin:miter;stroke-miterlimit:4;stroke-dasharray:none;stroke-dashoffset:0;stroke-opacity:1;stop-color:#000000;stop-opacity:1" d="m 72.421046,55.275392 c 0,0 -0.134265,-0.532978 -0.644542,-0.864124 -0.387231,-0.251295 -1.697357,-0.224837 -2.299755,0.412996 -0.602401,0.637837 -1.080776,2.445033 -0.832729,3.844727 0.248047,1.399693 0.992188,1.87807 1.789481,1.612304 0.797292,-0.265763 0.248046,-2.799384 0.478374,-3.756138 0.230331,-0.956752 1.069399,-1.135271 1.509171,-1.249765 z" id="path1135" sodipodi:nodetypes="csssssc"/>
        <path style="color:#000000;font-style:normal;font-variant:normal;font-weight:normal;font-stretch:normal;font-size:medium;line-height:normal;font-family:sans-serif;font-variant-ligatures:normal;font-variant-position:normal;font-variant-caps:normal;font-variant-numeric:normal;font-variant-alternates:normal;font-variant-east-asian:normal;font-feature-settings:normal;font-variation-settings:normal;text-indent:0;text-align:start;text-decoration:none;text-decoration-line:none;text-decoration-style:solid;text-decoration-color:#000000;letter-spacing:normal;word-spacing:normal;text-transform:none;writing-mode:lr-tb;direction:ltr;text-orientation:mixed;dominant-baseline:auto;baseline-shift:baseline;text-anchor:start;white-space:normal;shape-padding:0;shape-margin:0;inline-size:0;clip-rule:nonzero;display:inline;overflow:visible;visibility:visible;opacity:1;isolation:auto;mix-blend-mode:normal;color-interpolation:sRGB;color-interpolation-filters:linearRGB;solid-color:#000000;solid-opacity:1;vector-effect:none;fill:#5a431f;fill-opacity:1;fill-rule:nonzero;stroke:none;stroke-width:1.0392;stroke-linecap:round;stroke-linejoin:miter;stroke-miterlimit:4;stroke-dasharray:none;stroke-dashoffset:0;stroke-opacity:1;color-rendering:auto;image-rendering:auto;shape-rendering:auto;text-rendering:auto;enable-background:accumulate;stop-color:#000000;stop-opacity:1" d="m 70.303303,58.303677 c 0.218724,1.454382 0.149176,1.745766 -0.07374,1.858869 -0.166468,0.08446 -0.600987,0.439685 -0.600987,0.439685 0,0 0.56205,0.158178 1.173912,-0.318915 0.611862,-0.477093 0.411963,-0.808796 0.383654,-2.0281 -0.02831,-1.219304 0.206547,-1.976695 0.529822,-2.447452 0.323274,-0.470758 0.705082,-0.53237 0.705082,-0.53237 0,0 -0.639523,-0.592027 -1.243559,-0.06685 -0.604036,0.525182 -1.092905,1.640747 -0.874181,3.095128 z" id="path1137" sodipodi:nodetypes="zsczzzczzz"/>
        <path style="color:#000000;font-style:normal;font-variant:normal;font-weight:normal;font-stretch:normal;font-size:medium;line-height:normal;font-family:sans-serif;font-variant-ligatures:normal;font-variant-position:normal;font-variant-caps:normal;font-variant-numeric:normal;font-variant-alternates:normal;font-variant-east-asian:normal;font-feature-settings:normal;font-variation-settings:normal;text-indent:0;text-align:start;text-decoration:none;text-decoration-line:none;text-decoration-style:solid;text-decoration-color:#000000;letter-spacing:normal;word-spacing:normal;text-transform:none;writing-mode:lr-tb;direction:ltr;text-orientation:mixed;dominant-baseline:auto;baseline-shift:baseline;text-anchor:start;white-space:normal;shape-padding:0;shape-margin:0;inline-size:0;clip-rule:nonzero;display:inline;overflow:visible;visibility:visible;opacity:1;isolation:auto;mix-blend-mode:normal;color-interpolation:sRGB;color-interpolation-filters:linearRGB;solid-color:#000000;solid-opacity:1;vector-effect:none;fill:#ffffff;fill-opacity:1;fill-rule:nonzero;stroke:none;stroke-width:1.0392;stroke-linecap:round;stroke-linejoin:miter;stroke-miterlimit:4;stroke-dasharray:none;stroke-dashoffset:0;stroke-opacity:1;color-rendering:auto;image-rendering:auto;shape-rendering:auto;text-rendering:auto;enable-background:accumulate;stop-color:#000000;stop-opacity:1" d="m 68.952567,55.1363 c -0.615479,0.874626 -0.801725,2.115293 -0.724051,3.174247 0.07767,1.058954 0.52494,1.989919 1.400057,2.291684 0.288985,0.09872 0.603553,-0.07516 0.600983,-0.439685 -0.190709,0.01228 -0.31561,0.06011 -0.602812,-0.134223 -0.287202,-0.194334 -0.435622,-0.903361 -0.504722,-1.845425 -0.0691,-0.942063 0.117779,-1.920687 0.731442,-2.840874 0.613663,-0.920187 1.288793,-0.911623 1.923042,-0.930754 -0.171698,-0.171698 -0.495048,-0.384034 -0.995257,-0.368304 -0.500208,0.01573 -1.225008,0.235482 -1.828682,1.093334 z" id="path1139" sodipodi:nodetypes="sscczszczs"/>
      </g>
      <path style="font-variation-settings:normal;opacity:1;vector-effect:none;fill:#c7a24c;fill-opacity:1;stroke:none;stroke-width:0.266014;stroke-linecap:butt;stroke-linejoin:miter;stroke-miterlimit:4;stroke-dasharray:none;stroke-dashoffset:0;stroke-opacity:1;stop-color:#000000;stop-opacity:1" d="m 95.53215,26.188065 c 0,0 -1.085781,1.173653 -3.892113,1.123539 -2.806329,-0.05011 -10.57385,-0.851922 -14.633006,-0.751695 -4.059155,0.100227 -6.46458,0.902034 -7.667294,1.80407 l 0.05011,3.357573 c 0,0 -2.004521,0 -6.76526,-0.05011 -4.760738,-0.05011 -7.681312,0.66048 -8.619442,1.403165 -0.93813,0.742686 -0.300678,1.65373 -0.701582,2.80633 -0.400905,1.1526 -0.100226,1.703844 -0.100226,1.703844 0,0 -5.66277,-0.200456 -9.321021,0.801805 -3.658252,1.002261 -6.464582,2.255087 -7.667295,5.412208 0,0 2.605878,-1.904295 7.41673,-2.255087 4.810851,-0.350791 7.967972,0.701583 11.826676,0.551244 3.858704,-0.150339 4.246221,-0.787791 4.660513,-2.255087 0.414292,-1.467296 0.601356,-2.255086 0.601356,-2.255086 0,0 5.261869,0.300678 10.323286,0.150339 5.061416,-0.150339 6.495029,-0.867639 6.715147,-2.80633 0.270947,-2.386371 0.350791,-3.4578 0.350791,-3.4578 0,0 4.109269,0.150339 8.268651,0.601356 4.159382,0.451018 7.667294,0.15034 9.371138,-0.701582 l 0.05294,-4.975324 z" id="path1281" sodipodi:nodetypes="cssccssscscsszcsscsccc"/>
      <path id="path1165" style="font-variation-settings:normal;opacity:1;vector-effect:none;fill:#c7a24c;fill-opacity:1;stroke:none;stroke-width:1.00541;stroke-linecap:butt;stroke-linejoin:miter;stroke-miterlimit:4;stroke-dasharray:none;stroke-dashoffset:0;stroke-opacity:1;stop-color:#000000;stop-opacity:1" d="m 376.71001,194.2032 -1.68659,-94.943434 c 3.23503,-0.575766 5.67773,-3.383637 5.67773,-6.789063 0,-3.824413 -3.07793,-6.904297 -6.90234,-6.904297 h -10.43748 c -3.82441,0 -6.9043,3.079884 -6.9043,6.904297 0,3.018414 1.92078,5.565366 4.60938,6.507813 l -0.54498,98.633754 15.15655,-3.32841 z" sodipodi:nodetypes="ccsssscccc" transform="scale(0.26458333)"/>
      <path style="font-variation-settings:normal;opacity:1;vector-effect:none;fill:#5a431f;fill-opacity:1;stroke:none;stroke-width:0.266014;stroke-linecap:butt;stroke-linejoin:miter;stroke-miterlimit:4;stroke-dasharray:none;stroke-dashoffset:0;stroke-opacity:1;stop-color:#000000;stop-opacity:1" d="m 60.720296,37.584778 c 0,0 -2.426694,-0.505688 -4.023868,-0.365936 -1.597174,0.139751 -2.126116,0.921319 -1.133929,1.311105 0.992188,0.389787 1.630021,0.177176 3.508092,0.67327 -0.774013,-0.782177 -1.845179,-0.715998 -2.941126,-0.956751 0,0 1.133928,-0.212612 2.303292,-0.07087 L 58.11384,37.785808 c 0,0 1.22448,-0.09473 2.606456,-0.20103 z m -5.228594,3.77497 c 0,0 -3.035694,-0.136719 -5.197245,-0.597378 0,0 3.756139,0.141741 5.138114,0.07087 0,0 -3.330915,-0.708705 -5.24442,-0.992187 0,0 4.075056,0.212612 5.457032,0.248047 0,0 -2.409599,-0.637835 -3.366351,-0.956752 0,0 2.709322,0.398204 3.764259,0.323125 1.054938,-0.07508 1.976255,0.102098 2.472348,0.38558 0.496094,0.283482 0.791532,1.69085 -3.023737,1.518695 z M 78.10952,31.470987 c 0,0 -1.119167,-0.509128 -2.472276,-0.534375 -1.35311,-0.02525 -3.90445,0.08106 -4.790331,0.931506 -0.885882,0.850446 0.106305,1.700893 0.106305,1.700893 0,0 0.496094,0.921317 2.090681,0.956752 1.594587,0.03543 1.984375,0.531529 1.984375,0.531529 0,0 -1.240234,0.212611 -2.728515,0.141741 0,0 0.74414,0.566964 2.551339,0.531529 0,0 -0.637835,0.708705 -3.862444,0.744141 0,0 2.129806,0.785923 3.846571,0.375243 1.716766,-0.410679 1.964813,-1.29656 1.397848,-2.147007 -0.566964,-0.850446 -4.358538,-1.34654 -4.358538,-1.34654 0,0 1.523717,-0.496094 3.330916,-0.248047 0,0 -1.098494,-0.921317 -3.401786,-0.177176 0,0 0.566964,-0.850447 4.075056,-0.496094 0,0 -0.637835,-0.6024 -2.799386,-0.425223 0,0 2.016565,-0.865132 5.030185,-0.538872 z" id="path1288" sodipodi:nodetypes="czsccccc"/>
      <path id="path1283" style="font-variation-settings:normal;opacity:1;vector-effect:none;fill:#ffffff;fill-opacity:1;stroke:none;stroke-width:1.00541;stroke-linecap:butt;stroke-linejoin:miter;stroke-miterlimit:4;stroke-dasharray:none;stroke-dashoffset:0;stroke-opacity:1;stop-color:#000000;stop-opacity:1" d="m 361.06641,98.978516 c 0,0 -4.10433,4.435504 -14.71094,4.246094 -10.6066,-0.18939 -39.963,-3.21866 -55.30469,-2.83984 -15.34169,0.37881 -24.43282,3.40909 -28.97851,6.81835 l 0.18945,12.68946 c 0,0 -7.57697,-6e-5 -25.57031,-0.18946 -17.99334,-0.18939 -29.03244,2.49574 -32.57813,5.30274 -3.54569,2.807 -1.13516,6.25114 -2.65039,10.60742 -1.51523,4.35628 -0.37891,6.43945 -0.37891,6.43945 0,0 -21.404,-0.75682 -35.23046,3.03125 -13.82647,3.78808 -24.43283,8.52266 -28.97852,20.45508 0,0 2.43003,-1.77198 7.0918,-3.71875 5.55574,-6.85695 13.76311,-12.4662 26.74804,-15.1582 15.5311,-3.21986 31.44141,-2.65234 31.44141,-2.65234 0,0 1.65223,4.68042 9.66016,5.11328 8.00792,0.43286 9.80631,2.1376 8.33398,4.54687 -1.47233,2.40927 -10.41797,2.65039 -10.41797,2.65039 1.70463,0.75762 8.99362,1.44342 11.9336,-0.94531 3.03045,-2.46225 2.89245,-7.71811 -6.0625,-8.14453 -8.95495,-0.42643 -10.41602,-3.41016 -10.41602,-3.41016 5.68211,-5.30332 15.91016,-5.11328 15.91016,-5.11328 -9.65959,-2.08344 -16.47852,1.70508 -16.47852,1.70508 5.3033,-5.87152 15.15234,-6.82031 15.15234,-6.82031 -8.14435,-1.13642 -14.96289,2.65234 -14.96289,2.65234 3.72495,-5.80839 18.56055,-8.14453 18.56055,-8.14453 -10.4172,-1.89404 -18.56055,3.59961 -18.56055,3.59961 0.34703,-1.57806 1.31395,-3.53342 4.20508,-4.8711 2.89113,-1.33767 9.31588,-3.02098 19.84961,-3.84179 14.58408,-1.13642 33.52354,-0.37891 33.90234,-0.37891 1.89404,3.97748 5.4695,5.43678 12.12305,6.06055 7.09288,0.66496 12.89488,1.13947 13.06836,5.30273 0.18939,4.54569 -5.11523,5.30469 -5.11523,5.30469 3.21986,0.94702 6.63101,-0.75846 7.19922,-3.2207 0.56821,-2.46225 0.56724,-9.092 -11.17579,-9.84961 -6.31177,-0.40721 -9.85817,-1.69277 -11.61328,-3.14649 1.21537,-1.62049 5.87726,-6.31362 18.6211,-6.13281 0,0 -11.36366,-3.78913 -20.26563,3.4082 0,0 -0.1772,-2.79815 4.3086,-4.83593 4.48579,-2.03778 15.7871,-3.49805 15.7871,-3.49805 -7.75015,-1.79448 -12.4503,-0.32955 -20.75,2.45898 3.29337,-3.8816 8.54714,-5.23698 14.52149,-6.8164 -6.50116,-0.0248 -8.70258,0.6107 -14.28516,2.8789 0.77981,-1.47366 2.24235,-2.39199 3.69336,-2.91406 6.9248,-2.4915 17.9177,-4.58349 40.04492,-2.96484 28.42158,2.07909 44.96793,4.39667 52.32227,-1.27344 z" transform="scale(0.26458333)"/>
      <path id="path1161" style="font-variation-settings:normal;opacity:1;vector-effect:none;fill:#ffffff;fill-opacity:1;stroke:none;stroke-width:1.00541;stroke-linecap:butt;stroke-linejoin:miter;stroke-miterlimit:4;stroke-dasharray:none;stroke-dashoffset:0;stroke-opacity:1;stop-color:#000000;stop-opacity:1" d="m 363.70919,197.42167 0.27909,-98.894326 2.2832,-1.263672 c -2.95646,-0.67459 -5.41155,-1.858163 -5.94726,-4.011719 -0.53572,-2.153556 0.2127,-5.601562 8.25586,-5.601562 8.04316,0 12.12109,0.995899 12.12109,4.820312 0,-3.824413 -3.07793,-6.904297 -6.90234,-6.904297 h -10.4375 c -3.82441,0 -6.9043,3.079884 -6.9043,6.904297 0,3.018414 1.92078,5.565366 4.60938,6.507813 l -0.54498,98.633754 z" transform="scale(0.26458333)" sodipodi:nodetypes="cccsscsssccc"/>
      <path id="path1237" style="font-variation-settings:normal;opacity:1;vector-effect:none;fill:#5a431f;fill-opacity:1;stroke:none;stroke-width:1.00541;stroke-linecap:butt;stroke-linejoin:miter;stroke-miterlimit:4;stroke-dasharray:none;stroke-dashoffset:0;stroke-opacity:1;stop-color:#000000;stop-opacity:1" d="m 360.6875,172.25267 -0.0586,5.96217 h 23.45898 l -4.35547,-5.625 z m 12.75,9.17506 -0.13477,13.37696 2.375,-0.52149 1.03321,-0.0801 -0.13086,-7.27343 z" transform="scale(0.26458333)" sodipodi:nodetypes="ccccccccccc"/>
      <path style="font-variation-settings:normal;opacity:1;vector-effect:none;fill:#ffffff;fill-opacity:1;stroke:none;stroke-width:0.266014;stroke-linecap:butt;stroke-linejoin:miter;stroke-miterlimit:4;stroke-dasharray:none;stroke-dashoffset:0;stroke-opacity:1;stop-color:#000000;stop-opacity:1" d="m 100.43536,51.511067 -1.630023,-3.508092 c -0.16413,-0.349091 0.109224,-0.759251 0.460658,-0.212611 0.483645,0.75229 1.878075,3.827008 1.878075,3.827008 z m 1.45285,-0.106305 c 0,0 -0.70871,-1.063058 -0.95675,-1.523716 -0.24805,-0.460659 0.17717,-0.744141 0.49609,-0.460659 0.31892,0.283482 1.13393,1.878069 1.13393,1.878069 z" id="path1231" sodipodi:nodetypes="ccscccsscc"/>
      <g id="g1117" transform="rotate(-10.609453,65.06358,-91.931944)" style="stroke-width:1.00541">
        <path style="font-variation-settings:normal;opacity:1;vector-effect:none;fill:#c7a24c;fill-opacity:1;stroke:none;stroke-width:0.266014;stroke-linecap:butt;stroke-linejoin:miter;stroke-miterlimit:4;stroke-dasharray:none;stroke-dashoffset:0;stroke-opacity:1;stop-color:#000000;stop-opacity:1" d="m 72.421046,55.275392 c 0,0 -0.134265,-0.532978 -0.644542,-0.864124 -0.387231,-0.251295 -1.697357,-0.224837 -2.299755,0.412996 -0.602401,0.637837 -1.080776,2.445033 -0.832729,3.844727 0.248047,1.399693 0.992188,1.87807 1.789481,1.612304 0.797292,-0.265763 0.248046,-2.799384 0.478374,-3.756138 0.230331,-0.956752 1.069399,-1.135271 1.509171,-1.249765 z" id="path1111" sodipodi:nodetypes="csssssc"/>
        <path style="color:#000000;font-style:normal;font-variant:normal;font-weight:normal;font-stretch:normal;font-size:medium;line-height:normal;font-family:sans-serif;font-variant-ligatures:normal;font-variant-position:normal;font-variant-caps:normal;font-variant-numeric:normal;font-variant-alternates:normal;font-variant-east-asian:normal;font-feature-settings:normal;font-variation-settings:normal;text-indent:0;text-align:start;text-decoration:none;text-decoration-line:none;text-decoration-style:solid;text-decoration-color:#000000;letter-spacing:normal;word-spacing:normal;text-transform:none;writing-mode:lr-tb;direction:ltr;text-orientation:mixed;dominant-baseline:auto;baseline-shift:baseline;text-anchor:start;white-space:normal;shape-padding:0;shape-margin:0;inline-size:0;clip-rule:nonzero;display:inline;overflow:visible;visibility:visible;opacity:1;isolation:auto;mix-blend-mode:normal;color-interpolation:sRGB;color-interpolation-filters:linearRGB;solid-color:#000000;solid-opacity:1;vector-effect:none;fill:#5a431f;fill-opacity:1;fill-rule:nonzero;stroke:none;stroke-width:1.00541;stroke-linecap:round;stroke-linejoin:miter;stroke-miterlimit:4;stroke-dasharray:none;stroke-dashoffset:0;stroke-opacity:1;color-rendering:auto;image-rendering:auto;shape-rendering:auto;text-rendering:auto;enable-background:accumulate;stop-color:#000000;stop-opacity:1" d="m 70.303303,58.303677 c 0.218724,1.454382 0.149176,1.745766 -0.07374,1.858869 -0.166468,0.08446 -0.600987,0.439685 -0.600987,0.439685 0,0 0.56205,0.158178 1.173912,-0.318915 0.611862,-0.477093 0.411963,-0.808796 0.383654,-2.0281 -0.02831,-1.219304 0.206547,-1.976695 0.529822,-2.447452 0.323274,-0.470758 0.705082,-0.53237 0.705082,-0.53237 0,0 -0.639523,-0.592027 -1.243559,-0.06685 -0.604036,0.525182 -1.092905,1.640747 -0.874181,3.095128 z" id="path1113" sodipodi:nodetypes="zsczzzczzz"/>
        <path style="color:#000000;font-style:normal;font-variant:normal;font-weight:normal;font-stretch:normal;font-size:medium;line-height:normal;font-family:sans-serif;font-variant-ligatures:normal;font-variant-position:normal;font-variant-caps:normal;font-variant-numeric:normal;font-variant-alternates:normal;font-variant-east-asian:normal;font-feature-settings:normal;font-variation-settings:normal;text-indent:0;text-align:start;text-decoration:none;text-decoration-line:none;text-decoration-style:solid;text-decoration-color:#000000;letter-spacing:normal;word-spacing:normal;text-transform:none;writing-mode:lr-tb;direction:ltr;text-orientation:mixed;dominant-baseline:auto;baseline-shift:baseline;text-anchor:start;white-space:normal;shape-padding:0;shape-margin:0;inline-size:0;clip-rule:nonzero;display:inline;overflow:visible;visibility:visible;opacity:1;isolation:auto;mix-blend-mode:normal;color-interpolation:sRGB;color-interpolation-filters:linearRGB;solid-color:#000000;solid-opacity:1;vector-effect:none;fill:#ffffff;fill-opacity:1;fill-rule:nonzero;stroke:none;stroke-width:1.00541;stroke-linecap:round;stroke-linejoin:miter;stroke-miterlimit:4;stroke-dasharray:none;stroke-dashoffset:0;stroke-opacity:1;color-rendering:auto;image-rendering:auto;shape-rendering:auto;text-rendering:auto;enable-background:accumulate;stop-color:#000000;stop-opacity:1" d="m 68.952567,55.1363 c -0.615479,0.874626 -0.801725,2.115293 -0.724051,3.174247 0.07767,1.058954 0.52494,1.989919 1.400057,2.291684 0.288985,0.09872 0.603553,-0.07516 0.600983,-0.439685 -0.190709,0.01228 -0.31561,0.06011 -0.602812,-0.134223 -0.287202,-0.194334 -0.435622,-0.903361 -0.504722,-1.845425 -0.0691,-0.942063 0.117779,-1.920687 0.731442,-2.840874 0.613663,-0.920187 1.288793,-0.911623 1.923042,-0.930754 -0.171698,-0.171698 -0.495048,-0.384034 -0.995257,-0.368304 -0.500208,0.01573 -1.225008,0.235482 -1.828682,1.093334 z" id="path1115" sodipodi:nodetypes="sscczszczs"/>
      </g>
      <path style="font-variation-settings:normal;opacity:1;vector-effect:none;fill:#5a431f;fill-opacity:1;stroke:none;stroke-width:0.266014;stroke-linecap:butt;stroke-linejoin:miter;stroke-miterlimit:4;stroke-dasharray:none;stroke-dashoffset:0;stroke-opacity:1;stop-color:#000000;stop-opacity:1" d="m 98.569101,23.493582 c 0.433657,0.106306 1.092024,0.783308 0.07088,1.240235 -0.95009,0.42513 -1.99527,0.237151 -2.267859,-0.03544 0.33159,0.603695 1.552391,1.014445 2.715057,0.502027 1.162671,-0.512418 0.403241,-1.742257 -0.518078,-1.706822 z" id="path1168" sodipodi:nodetypes="csczc"/>
      <path id="path1033" style="font-variation-settings:normal;opacity:1;vector-effect:none;fill:#c7a24c;fill-opacity:1;stroke:none;stroke-width:1.00541;stroke-linecap:butt;stroke-linejoin:miter;stroke-miterlimit:4;stroke-dasharray:none;stroke-dashoffset:0;stroke-opacity:1;stop-color:#000000;stop-opacity:1" d="m 321.07227,132.67773 12.58789,40.71485 h 68.47656 l 12.58789,-40.71485 z m 18.38476,10.60157 h 17.32813 v 14.94336 h -15.29493 z m 40.90039,0 h 15.98242 l -2.0332,14.94336 h -13.94922 z" transform="scale(0.26458333)"/>
      <path id="path1178" style="font-variation-settings:normal;opacity:1;vector-effect:none;fill:#d50606;fill-opacity:1;stroke:none;stroke-width:0.266014;stroke-linecap:butt;stroke-linejoin:miter;stroke-miterlimit:4;stroke-dasharray:none;stroke-dashoffset:0;stroke-opacity:1;stop-color:#000000;stop-opacity:1" d="m 95.662109,64.376953 c -3.15694,0.652397 -6.340441,0.774262 -9.544921,0.853516 0.726806,3.045474 1.067923,5.988784 1.024201,9.106999 -0.0098,1.333748 -0.09907,2.63105 -0.262483,3.971126 -4.366079,-0.211658 -8.679605,-1.717988 -12.294922,-4.048828 -1.146679,4.24214 -0.71554,8.695896 -0.123046,12.988281 2.694074,-2.376298 5.802613,-4.433066 9.366763,-5.181745 0.939919,-0.216481 1.896131,-0.36475 2.857846,-0.439349 0.187287,4.923215 -1.187071,9.691215 -3.273802,14.118778 0.100581,0.290199 1.117828,-0.116379 1.574104,-0.09531 3.584293,-0.47972 7.150491,-0.33113 10.709463,0.179662 -1.184754,-1.602871 -2.268818,-3.229807 -3.040914,-4.953436 -1.352949,-2.944411 -2.224228,-6.138424 -2.377054,-9.382501 3.88455,-0.03312 7.742368,1.569159 10.961756,3.758841 0.53839,0.359513 1.0396,0.770365 1.55973,1.155221 -0.42975,-5.062847 0.8096,-10.089201 2.52373,-14.816057 0.42162,-0.922332 -0.58444,0.28773 -0.9083,0.478848 -3.10323,3.023334 -7.411151,4.758209 -11.47676,5.610647 -0.88344,0.170401 -1.773202,0.313961 -2.669922,0.390625 0.630827,-4.846724 2.99496,-9.345746 6.100067,-13.064925 0.285765,-0.401584 1.275615,-1.221531 0.208846,-0.819447 -0.304794,0.06302 -0.609588,0.126039 -0.914382,0.189059 z"/>
      <path id="path1172" style="font-variation-settings:normal;opacity:1;vector-effect:none;fill:#ff664b;fill-opacity:1;stroke:none;stroke-width:1.00541;stroke-linecap:butt;stroke-linejoin:miter;stroke-miterlimit:4;stroke-dasharray:none;stroke-dashoffset:0;stroke-opacity:1;stop-color:#000000;stop-opacity:1" d="m 374.13477,237.38672 c -31.441,6.81853 -54.54688,4.54492 -54.54688,4.54492 8.71257,21.2132 7.19727,51.51758 7.19727,51.51758 -26.89531,-1.89403 -46.21485,-21.5918 -46.21485,-21.5918 -5.63809,8.85986 -7.49834,46.14761 1.13672,62.88281 l 1.24024,-8.84765 c -2.21275,-15.48924 -2.58949,-30.88423 0.26757,-42.05274 0,0 20.625,13.6596 46.875,14.19532 0,0 4.01814,-23.5706 -2.14257,-49.55274 0,0 21.16043,-0.26841 34.01757,-3.21484 z m 29.54687,25.3789 C 369.21021,289.28213 341.9375,292.3125 341.9375,292.3125 l -3.00977,4.91992 c 14.67461,-0.69557 40.08032,-7.36453 55.44727,-21.96484 z m -74.12891,43.57422 -3.90429,3.01954 c 0,0 -1.51549,27.65206 -15.91016,56.4414 l 8.56445,-5.89062 c 5.27272,-11.365 12.59685,-31.33187 11.25,-53.57032 z" transform="scale(0.26458333)"/>
      <path id="path1190" style="font-variation-settings:normal;opacity:1;vector-effect:none;fill:#800000;fill-opacity:1;stroke:none;stroke-width:1.00541;stroke-linecap:butt;stroke-linejoin:miter;stroke-miterlimit:4;stroke-dasharray:none;stroke-dashoffset:0;stroke-opacity:1;stop-color:#000000;stop-opacity:1" d="m 374.13477,237.38672 -12.16993,7.88086 c 0,0 -20.62639,23.30413 -23.03711,51.96484 l 3.00977,-4.91992 c 6.43973,-28.78935 32.19727,-54.92578 32.19727,-54.92578 z m 29.54687,25.3789 -9.30664,12.50196 c 0,0 -9.37447,24.91043 -8.03516,47.14258 0,0 -22.23186,-17.67718 -47.14257,-16.33789 -0.21941,7.45949 2.47087,32.19171 18.21289,53.57031 0,0 -19.286,-2.9467 -39.10743,0.26758 l -8.56445,5.89062 c 16.25536,-4.52901 41.19018,-3.35821 61.7461,3.41016 -26.1377,-27.65293 -29.92579,-60.60938 -29.92579,-60.60938 27.27413,1.51523 48.48633,23.86524 48.48633,23.86524 -2.00266,-35.76944 8.20161,-58.83092 13.63672,-69.70118 z m -74.12891,43.57422 c -21.56662,1.34851 -34.93622,9.72076 -46.60546,19.55274 l -1.24024,8.84765 c 0,0 14.01564,-21.5928 43.94141,-25.38085 z" transform="scale(0.26458333)"/>
      <path id="path1278" style="font-variation-settings:normal;opacity:1;vector-effect:none;fill:#ffffff;fill-opacity:1;stroke:none;stroke-width:1.00541;stroke-linecap:butt;stroke-linejoin:miter;stroke-miterlimit:4;stroke-dasharray:none;stroke-dashoffset:0;stroke-opacity:1;stop-color:#000000;stop-opacity:1" d="m 321.07227,132.67773 12.58789,40.71485 h 3.19726 l -11.51758,-38.71485 h 88.76563 l 0.61914,-2 z m 35.71289,10.60157 v 14.94336 h -15.29493 l 0.26758,2 h 18.22461 V 143.2793 Z m 39.55468,0 -2.0332,14.94336 h -13.94922 v 2 h 17.14649 l 2.0332,-16.94336 z" transform="scale(0.26458333)"/>
    </g>
  </g>
</svg>