<?xml version="1.0" encoding="UTF-8" standalone="no"?>
<svg
   xmlns:dc="http://purl.org/dc/elements/1.1/"
   xmlns:cc="http://creativecommons.org/ns#"
   xmlns:rdf="http://www.w3.org/1999/02/22-rdf-syntax-ns#"
   xmlns:svg="http://www.w3.org/2000/svg"
   xmlns="http://www.w3.org/2000/svg"
   xml:space="preserve"
   width="500"
   height="559"
   shape-rendering="geometricPrecision"
   text-rendering="geometricPrecision"
   image-rendering="optimizeQuality"
   fill-rule="evenodd"
   clip-rule="evenodd"
   viewBox="0 0 500 559"
   version="1.0"
   id="svg113"><metadata
   id="metadata119"><rdf:RDF><cc:Work
       rdf:about=""><dc:format>image/svg+xml</dc:format><dc:type
         rdf:resource="http://purl.org/dc/dcmitype/StillImage" /><dc:title></dc:title></cc:Work></rdf:RDF></metadata><defs
   id="defs117" />
 <g
   id="Layer_x0020_1"
   style="stroke:none"
   transform="translate(4.9999999e-7,-0.301607)">
  <metadata
   id="CorelCorpID_0Corel-Layer" />
  <path
   id="path1937"
   fill="#F00000"
   stroke="#F00000"
   stroke-width="0.368708"
   d="M -4.9999999e-7,0.42323891 500,0.301607 489.94763,319.17354 C 482.56302,639.91787 22.115326,638.81964 12.373636,319.02498 L 0.00100039,0.42309688 Z"
   style="fill:#e90c0c;fill-opacity:1;stroke:none" /><path
   id="path1638"
   style="color:#000000;font-style:normal;font-variant:normal;font-weight:normal;font-stretch:normal;font-size:medium;line-height:normal;font-family:sans-serif;font-variant-ligatures:normal;font-variant-position:normal;font-variant-caps:normal;font-variant-numeric:normal;font-variant-alternates:normal;font-variant-east-asian:normal;font-feature-settings:normal;font-variation-settings:normal;text-indent:0;text-align:start;text-decoration:none;text-decoration-line:none;text-decoration-style:solid;text-decoration-color:#000000;letter-spacing:normal;word-spacing:normal;text-transform:none;writing-mode:lr-tb;direction:ltr;text-orientation:mixed;dominant-baseline:auto;baseline-shift:baseline;text-anchor:start;white-space:normal;shape-padding:0;shape-margin:0;inline-size:0;clip-rule:nonzero;display:inline;overflow:visible;visibility:visible;opacity:1;isolation:auto;mix-blend-mode:normal;color-interpolation:sRGB;color-interpolation-filters:linearRGB;solid-color:#000000;solid-opacity:1;vector-effect:none;fill:#910808;fill-opacity:1;fill-rule:nonzero;stroke:none;stroke-linecap:butt;stroke-linejoin:round;stroke-miterlimit:4;stroke-dasharray:none;stroke-dashoffset:0;stroke-opacity:1;color-rendering:auto;image-rendering:auto;shape-rendering:auto;text-rendering:auto;enable-background:accumulate;stop-color:#000000;stop-opacity:1"
   d="m 128.80834,6.0672554 1.20533,3.2530571 c 8.36568,0.4419662 11.99113,4.3558395 14.34961,10.9902345 2.35848,6.634396 2.66701,15.974733 2.50586,25.3125 -0.16115,9.337768 -0.76903,18.611962 0.38477,25.878906 0.57689,3.633472 1.5687,6.883794 3.78711,9.341797 2.2184,2.458003 5.76268,3.630312 9.5996,3.111328 l 3.76054,-3.814877 c -4.45059,0.601985 -7.95127,-2.258965 -8.90702,-3.317935 -0.95575,-1.05897 -1.83001,-3.208575 -2.31445,-6.259766 -0.9689,-6.102382 -0.47652,-15.332013 -0.3125,-24.835938 0.16401,-9.503923 0.0215,-19.343982 -2.85157,-27.425781 C 147.1426,10.218983 139.23536,6.6181241 128.80834,6.0672554 Z m 247.02955,0.081182 c -1.16337,-0.040321 -2.48933,0.1695161 -3.97461,0.7441406 -2.24047,0.8667932 2.06958,2.3933214 2.70703,2.828125 0.63745,0.4348019 1.27431,1.2724439 1.81446,2.6738279 1.08028,2.80277 1.49209,7.50248 1.76953,12.208985 0.27743,4.706505 0.37039,9.359672 1.84765,13.154296 0.73863,1.897312 2.02955,3.813751 4.20899,4.681641 2.17944,0.867891 4.61284,0.446736 7.01172,-0.677734 l 1.10546,-3.302735 c -1.54998,0.726556 -5.77462,-1.544446 -5.89843,-1.59375 -0.12381,-0.0493 -0.43353,-0.246483 -0.83789,-1.285156 -0.80872,-2.077344 -1.16762,-6.584085 -1.44727,-11.328125 -0.27964,-4.74404 -0.53136,-9.784715 -2.16211,-14.015625 C 381.37089,8.6497372 379.328,6.2694013 375.83789,6.1484375 Z M 92.394022,17.30129 l 2.234884,2.901835 c 1.766615,0.240447 2.82281,0.998458 4,2.494141 1.17719,1.495683 2.253674,3.737482 3.371094,6.246093 2.23484,5.017222 4.73083,11.473591 11.27734,14.125 l 5.90413,-1.908373 c -3.76654,-1.525491 -9.42083,-9.543435 -11.69905,-14.658033 -1.13911,-2.557299 -2.32255,-5.20814 -4.13867,-7.515625 -1.81612,-2.307484 -7.224044,-4.5672 -10.949728,-1.685038 z m 360.611838,6.644022 7.24414,7.208985 c 5.10271,5.295304 8.5854,10.005254 10.04102,14.115234 1.45561,4.109981 1.2263,7.540116 -1.4004,11.777344 -2.05795,3.319644 -3.31949,5.766144 -4.00976,7.853516 -0.69027,2.087371 -0.86536,4.152997 0.15039,5.90625 l 6.10352,2.46875 c 0.19199,0.331403 -0.98248,-5.202531 -0.55665,-6.490235 0.42584,-1.287705 1.48439,-3.468541 3.41211,-6.578125 3.41852,-5.514571 3.9096,-11.428261 1.95704,-16.941406 -1.95257,-5.513145 -12.70365,-16.1843 -22.94141,-19.320313 z m -278.68385,17.148608 1.45143,2.652174 c 3.07842,0.0366 5.21654,1.429797 7.25195,4.388672 2.03541,2.958875 3.62453,7.480257 4.61133,12.755859 1.9736,10.551206 1.63076,24.035271 0.11719,34.283203 -1.72631,11.688422 -1.35423,24.441512 1.11718,34.785152 1.23571,5.17181 2.98523,9.75126 5.44922,13.3418 2.464,3.59054 5.8371,6.29212 9.9961,6.82813 l 4.1154,-1.99466 c -4.06772,-0.52425 -7.31792,-5.53755 -9.16423,-8.228 -1.84631,-2.69045 -3.44088,-6.65564 -4.56055,-11.3418 -2.23934,-9.37231 -2.62938,-21.58728 -1.01562,-32.513669 1.60283,-10.852267 2.00562,-24.705984 -0.15625,-36.263672 -1.08094,-5.778845 -2.78058,-11.002969 -5.56641,-15.052734 -2.78583,-4.049764 -8.52341,-3.579543 -13.64674,-3.640455 z m 155.17604,-0.677904 c -1.67278,0.03686 -3.51057,0.599856 -5.37891,2.027343 l 1.69336,1.279297 c 1.69322,-0.212071 2.66711,0.05405 3.43555,0.515625 0.76843,0.461578 1.44099,1.240666 2.04101,2.509766 1.20004,2.538201 1.78214,6.853435 2.00196,11.375 0.21981,4.521565 0.14661,9.214773 0.61718,13.085937 0.23529,1.935581 0.55578,3.680532 1.44141,5.3125 0.88563,1.631967 2.96699,3.190759 5.14453,3.113282 l 4.69336,-2.626954 c -4.80155,-0.372393 -5.12932,-4.936166 -5.32227,-6.523437 -0.38589,-3.174541 -0.3484,-7.886895 -0.58007,-12.652344 -0.23167,-4.765448 -0.66403,-9.61646 -2.57032,-13.648437 -0.65528,-1.385992 -3.53668,-3.84868 -7.21679,-3.767578 z m 145.69531,33.980468 -2.64063,2.65625 c -0.48908,7.543692 -4.21762,10.306676 -8.43554,12.566407 -2.10896,1.129865 -4.28942,1.957565 -6.23242,3.029297 -0.97151,0.535865 -1.92219,1.126929 -2.75977,2.113281 -0.83758,0.986352 -1.44203,2.57359 -1.26758,4.066406 l 7.36133,9.554685 c -3.3062,-6.74467 -1.10107,-10.113375 -0.43555,-10.480466 1.33105,-0.734182 3.65879,-1.649856 6.16797,-2.994141 5.01837,-2.688569 14.3115,-10.242117 8.24219,-20.511719 z M 217.80341,101.1177 c -0.61546,-0.0177 -1.22536,0.011 -1.82813,0.0859 l 1.34894,2.9116 c 2.31919,-0.28824 5.77831,0.82066 9.25,4.88672 3.47169,4.06607 6.82876,11.043 8.55859,21.71289 2.78658,17.18902 0.0643,37.13657 -0.65625,56.15039 -0.7205,19.01381 0.58454,37.46125 12.66211,51.01954 l 4.48047,-3.99219 C 241.21141,222.20886 239.7666,205.67286 240.4707,187.0918 c 0.70411,-18.58106 3.58236,-38.84046 0.58399,-57.33594 -1.85857,-11.46392 -5.50269,-19.47918 -9.91797,-24.65039 -3.86337,-4.52481 -9.0251,-3.86427 -13.33331,-3.98777 z m 68.76886,-0.21255 -0.83204,5.94336 c 2.65092,0.3708 4.0195,1.17018 4.84766,2.08203 0.82816,0.91184 1.28855,2.14334 1.40625,3.97265 0.2354,3.65862 -1.28145,6.47926 -2.96289,11.964 -1.68144,5.48474 -3.58624,10.79469 -3.17187,15.64453 0.20717,2.42492 1.30537,5.0257 3.60156,6.48828 2.29619,1.46258 5.18138,1.72053 8.71094,1.26562 l 2.2759,-3.21204 c -4.7769,0.61569 -7.24662,-2.78443 -7.76419,-3.11413 -0.51756,-0.32966 -0.73562,-0.65107 -0.8457,-1.93945 -0.22015,-2.57675 1.23682,-7.85298 2.92969,-13.375 1.69286,-5.52202 3.56395,-8.65036 3.21289,-14.10657 -0.17553,-2.72811 -1.00161,-5.47648 -2.95117,-7.62305 -1.94956,-2.14657 -4.84955,-3.48563 -8.45703,-3.99023 z m 198.59961,7.60266 -2.33399,2.83789 c 0.5461,8.13746 -5.79792,17.43322 -15.43945,23.61914 -9.64153,6.18593 -22.14289,9.05013 -32.64258,5.46485 -9.03486,-3.08509 -17.64641,-3.9564 -24.35547,-2.31055 -3.35453,0.82293 -6.30519,2.31868 -8.35937,4.74219 -2.05419,2.42351 -2.99016,5.75556 -2.53907,9.28711 l 8.08203,12.02148 c -5.75566,-10.38915 -1.95026,-16.26941 -0.96679,-17.42969 0.98347,-1.16029 2.71494,-2.18213 5.21289,-2.79492 4.99589,-1.22557 12.76694,-0.64518 20.98828,2.16211 12.74951,4.35352 26.92519,0.89843 37.82031,-6.0918 10.89513,-6.99022 20.16428,-18.94307 14.53321,-31.50781 z m -470.340018,7.09995 c -0.749248,11.16589 2.95043,20.98759 13.195482,26.73794 10.245052,5.75036 23.630582,8.09199 36.392578,5.08594 9.609172,-2.26341 18.429794,-2.92054 24.378906,-1.91602 2.974556,0.50227 5.175597,1.42413 6.44336,2.46485 1.26776,1.04072 5.432732,6.58715 5.421702,8.33475 l 2.34783,-4.52811 c 0.0213,-3.3705 -1.51892,-6.43708 -3.962892,-8.44336 -2.443967,-2.00628 -5.614443,-3.13026 -9.25,-3.74414 -7.271115,-1.22775 -16.623178,-0.39407 -26.753906,1.99219 -11.150204,2.62639 -23.19643,0.50771 -32.080078,-4.47852 -8.883648,-4.98622 -14.356981,-12.48273 -13.798828,-20.80078 z m 430.340018,53.03872 -1.72266,7.79688 c -0.0607,0.86115 -1.27187,2.97691 -3.96484,5.16602 -2.693,2.18908 -6.58554,4.45343 -10.91797,6.38085 -8.66488,3.85482 -19.27039,6.29291 -25.46289,5.56836 -11.01692,-1.28904 -25.17514,-6.4466 -36.84375,-9.44336 -5.83431,-1.49839 -11.02226,-2.53123 -15.47657,-1.98046 -2.22715,0.27538 -4.38225,1.00568 -6.04492,2.57421 -1.66267,1.56852 -7.75549,15.73906 -7.9043,18.24414 l 15.72852,0.66211 c -7.22109,-7.48864 -4.14967,-14.12344 -3.70703,-14.54101 0.44264,-0.41757 1.24871,-0.80937 2.66406,-0.98438 2.83071,-0.35001 7.66476,0.40203 13.24805,1.83594 11.16658,2.86783 25.41968,8.16212 37.63867,9.5918 8.29999,0.97114 19.20892,-1.86719 28.59961,-6.04492 4.69534,-2.08887 8.90154,-4.61196 12.26172,-7.20899 3.39462,-2.62365 8.22534,-10.15186 1.9043,-17.61719 z m -387.373052,7.79688 -2.993411,0.21007 c 0.280965,3.98701 0.103351,7.37222 4.007083,10.57704 3.903732,3.20482 9.189417,6.25765 15.398438,8.59961 12.418037,4.68392 28.635082,6.50666 44.115232,-0.27149 13.75907,-6.02457 24.08845,-7.0788 30.8086,-6.44726 3.36007,0.31577 5.82968,1.06683 7.30468,1.76367 0.69511,0.32839 1.14639,0.64258 1.34766,0.8125 -0.0742,-0.12934 2.57475,6.61987 2.54772,6.11328 l 3.25306,-7.32031 c -0.0932,-1.74671 -0.95924,-2.52103 -1.74023,-3.2207 -0.781,-0.69967 -1.71207,-1.27498 -2.84571,-1.81055 -2.26726,-1.07113 -5.35137,-1.94098 -9.30468,-2.3125 -7.90664,-0.74304 -19.24381,0.56211 -33.77735,6.92578 -13.69805,5.99785 -28.309633,4.40978 -39.591795,0.1543 -5.641081,-2.12774 -10.423526,-4.92741 -13.707031,-7.62305 -3.283506,-2.69563 -4.774431,-5.47159 -4.822266,-6.15039 z m 99.988282,15.24414 c 0.0882,0.15382 0.15335,0.12765 0.0566,0.041 -0.0102,-0.009 -0.0444,-0.0307 -0.0566,-0.041 z m 225.41406,14.25195 -1.98633,2.96094 c 0.65653,4.6935 -4.46844,16.78791 -25.72461,18.35156 -8.79379,0.64692 -27.85819,-2.69983 -46.58593,-3.1875 -9.36388,-0.24383 -18.74462,0.23735 -27.0918,2.47266 -8.34718,2.23531 -15.76648,6.31663 -20.56445,13.29492 l 4.94336,3.39844 c 3.78603,-5.5065 9.71601,-8.89935 17.17382,-10.89649 7.45782,-1.99715 16.33735,-2.50702 25.38282,-2.27148 18.09092,0.47108 36.43933,3.96409 47.18164,3.17383 23.46779,-1.72635 32.86971,-14.0839 27.27148,-27.29688 z m -261.12389,0.63197 c -0.59432,4.24891 -4.10291,12.66254 0.0653,17.44225 4.1682,4.77971 11.48313,8.36282 23.17383,9.22266 10.70358,0.78711 28.6101,-2.54514 46.22656,-2.86328 8.80823,-0.15907 17.44824,0.42356 24.73047,2.47265 7.28223,2.0491 13.11429,5.4737 16.91797,11.00586 l 4.94336,-3.40039 c -4.78033,-6.95263 -12.06287,-11.08098 -20.23633,-13.38086 -8.17346,-2.29987 -17.3295,-2.86224 -26.46485,-2.69726 -18.27069,0.32996 -36.84356,3.5284 -45.67578,2.8789 -10.6707,-0.78482 -16.22798,-3.89544 -19.09375,-7.18164 -2.86577,-3.28619 -3.30883,-7.04954 -2.90625,-9.92773 z m 48.6942,49.86608 6.85139,-2.33509 c -12.57373,-7.92934 -29.75812,-19.53171 -45.09553,-17.32312 8.68423,1.64067 23.89053,10.60642 38.24414,19.65821 z m 261.5586,24.17578 c 8.90805,9.02957 13.1832,20.27954 12.17969,37.70508 l 7.71093,5.29492 c -2.45532,-3.75742 -2.26127,-7.23255 -2.20898,-9.77344 0.32401,-15.74493 -6.29146,-29.89853 -17.06233,-37.1351 z M 394.82583,256.78464 C 394.75626,243.37468 383.18052,238.8913 374.4082,236.5918 l 0.81446,3.24804 c 6.66133,2.25496 11.66879,7.16466 14.11328,16.09375 z m -120.5563,-3.96042 c -0.68123,-3.1e-4 -1.35382,0.0176 -2.01562,0.0527 -5.2944,0.28119 -9.93277,1.7138 -13.37696,4.58594 -6.33793,5.28528 -9.5296,14.70678 -4.86328,24.56836 4.66633,9.86158 16.44409,20.04872 39.11719,29.30664 20.05744,8.1899 28.68518,18.70196 31.88281,27.33008 1.59882,4.31406 1.837,8.20377 1.41211,11.13867 -0.42489,2.93491 -1.74146,4.86261 -2.07617,5.11524 -3.48048,2.62691 -6.22991,2.96208 -7.86328,2.47656 l -2.30469,2.25586 c 1.86014,3.92533 9.26849,3.46264 13.78125,0.0566 2.53679,-1.91459 3.82383,-5.0624 4.40039,-9.04492 0.57656,-3.98253 0.21315,-8.85343 -1.72461,-14.08204 -3.87551,-10.45723 -14.06452,-22.15426 -35.24023,-30.80078 -21.90477,-8.94419 -30.16022,-18.60746 -33.80888,-26.31836 -3.64866,-7.71089 -3.43694,-13.58677 1.12919,-17.39453 4.0157,-3.34873 14.16056,-4.25935 25.19141,-1.09765 11.03085,3.16169 22.77843,9.9961 30.43164,19.89453 l 4.74609,-3.66992 c -8.63749,-11.17148 -21.39681,-18.51586 -33.52539,-21.99219 -5.30625,-1.5209 -10.52438,-2.37872 -15.29297,-2.38086 z m -49.88476,1.45312 c -3.05801,0.031 -6.29551,0.36561 -9.60938,0.98243 -13.25548,2.46728 -27.87009,9.48791 -35.06641,21.98632 -0.34028,0.58987 -0.46976,1.27797 -0.36718,1.95118 2.98554,19.51885 0.0377,30.38267 -6.21094,36.16406 -6.24864,5.78139 -16.88775,7.25242 -30.86914,5.73633 -0.63522,-0.0684 -1.27568,0.0678 -1.82813,0.38867 -19.98684,11.58204 -36.35119,17.9607 -49.458981,19.48828 -13.107787,1.52758 -22.838438,-1.53947 -30.8125,-9.12891 -0.685093,-0.65227 -1.637675,-0.94325 -2.570312,-0.78515 -10.177951,1.72809 -19.545964,0.92364 -24.96187,-6.35918 l -2.407271,1.79082 c 6.314934,8.49175 15.790322,12.11054 26.917969,10.64843 9.059615,8.04172 20.662463,11.41074 34.527344,9.79493 14.223461,-1.6576 30.949571,-8.30701 50.951171,-19.8125 14.24905,1.42375 26.48934,0.13554 34.58789,-7.35743 8.1242,-7.5167 11.03241,-20.53156 8.21289,-40.26757 6.08819,-9.78677 18.77997,-16.16708 30.45313,-18.33985 5.98814,-1.11459 11.65922,-1.1233 15.70312,-0.19726 4.0439,0.92604 9.36616,3.1108 10.2663,6.85982 l 1.96026,-3.98287 c -1.15229,-4.79918 -5.69679,-7.53614 -10.88671,-8.72461 -2.59497,-0.59423 -5.47325,-0.86694 -8.53125,-0.83594 z m 104.00195,60.06836 -4.92383,3.42774 c 4.18909,6.01689 9.92699,9.51206 16.09961,10.70703 5.72778,1.10885 11.76412,0.27574 17.60547,-1.7793 19.27285,10.66071 35.3385,17.38481 49.26562,19.21875 13.71808,1.80641 25.5031,-1.41961 35.2168,-10.04687 6.97395,0.81562 12.73054,0.18681 17.10352,-2.26563 4.67287,-2.62062 7.41174,-7.39554 7.88867,-12.99804 l -2.99024,-0.25586 c -0.35136,4.12742 -4.84506,6.34439 -7.83203,8.01953 -2.98696,1.67514 -7.86892,2.41269 -14.72265,1.43359 -0.9051,-0.12925 -1.81973,0.16125 -2.48438,0.78906 -8.72177,8.23706 -18.49784,11.07351 -31.39648,9.375 -12.89864,-1.6985 -28.79225,-8.24494 -48.30469,-19.13086 -0.78015,-0.43551 -1.71381,-0.50067 -2.54688,-0.17773 -5.45124,2.11248 -10.89049,2.85148 -15.66211,1.92773 -4.77159,-0.92374 -8.94242,-3.39801 -12.3164,-8.24414 z m -121.5293,26.17774 c -2.18995,-0.004 -3.73942,0.92719 -5.4668,1.98633 -1.72737,1.05913 -3.5435,2.40796 -5.45703,3.84375 -3.82706,2.87156 -8.06704,6.08387 -11.66797,7.75586 -1.80045,0.83598 -3.40526,1.25788 -4.58593,1.2539 -1.18068,-0.004 -1.92979,-0.26047 -2.83399,-1.16601 l -2.12357,2.11943 c 1.96637,1.96929 4.28029,3.51648 6.76412,3.52484 2.48382,0.008 4.84869,-0.74999 7.13281,-1.81055 4.56823,-2.12114 7.13692,-4.04301 10.9161,-6.87865 1.88959,-1.41781 3.61795,-2.68473 4.99218,-3.52734 0.82885,-0.5082 0.98376,-0.50965 1.39844,-0.66406 2.5171,-0.25651 4.00638,1.61196 3.47801,4.16508 l 1.94191,2.01265 c 0.65518,-3.50977 0.88887,-5.98476 0.44727,-8.17578 -0.2208,-1.09551 -0.65729,-2.21192 -1.57617,-3.10742 -0.91888,-0.8955 -2.2644,-1.33003 -3.35938,-1.33203 z m 83.19311,0.31887 -5.99805,0.16015 c 0.20888,7.86923 4.95028,18.08746 10.27955,23.65379 5.32927,5.56634 12.69451,10.70434 21.93555,17.39453 11.07741,8.01984 19.60389,17.15897 24.05469,25.5293 4.45079,8.37033 4.88836,15.43136 0.83203,20.91797 -4.7862,6.47383 -8.47512,8.76433 -10.48633,9.05664 l 0.36719,2.96875 c 3.84251,2.35231 9.73079,-1.40846 14.94336,-8.45899 5.69541,-7.70363 4.71911,-17.75194 -0.35938,-27.30273 -5.07849,-9.55079 -14.19684,-19.14665 -25.83203,-27.57031 -9.27517,-6.71491 -16.44738,-11.80393 -21.12109,-16.68555 -4.67372,-4.88161 -8.44511,-13.24448 -8.61549,-19.66355 z m -95.48803,72.57371 c -1.93148,0.026 -3.77099,0.68699 -5.3418,1.62109 -4.18881,2.49094 -7.44988,6.81656 -10.91992,10.61133 -3.47003,3.79477 -6.99587,6.87804 -10.13867,7.55468 -3.14281,0.67665 -6.68027,-0.25923 -12.02734,-6.68554 l -2.30469,1.91601 c 1.77875,6.09699 9.16263,11.58089 15.5957,10.63477 5.62386,-0.82711 9.64781,-5.37413 13.30274,-9.37109 3.65492,-3.99697 7.0264,-7.99499 9.56054,-9.50196 1.26707,-0.75348 2.08265,-0.9106 2.93164,-0.72265 0.849,0.18795 5.0722,-1.42742 8.25858,2.61557 l 0.14767,-3.4105 c -2.13677,-2.71121 -4.47748,-4.47986 -7.10937,-5.0625 -0.65797,-0.14566 -1.31125,-0.2079 -1.95508,-0.19921 z m 100.90625,7.9082 c -1.38511,4.00055 -1.11049,7.93699 0.35937,11.34766 1.46988,3.41064 3.95101,6.34243 6.88477,9.27539 5.86753,5.8659 13.71612,11.83372 20.67969,20.17773 5.39289,6.46194 9.58984,13.81838 11.26758,20.86523 1.67773,7.04684 0.97934,13.62851 -3.3125,19.52539 -1.41379,1.94252 -3.50544,2.19296 -5.31446,1.40235 l -1.2539,2.70901 c 4.13214,1.8059 8.35967,3.62265 11.41992,-0.58206 5.39766,-7.41624 6.27485,-16.14558 4.29883,-24.44531 -1.97603,-8.29973 -6.66124,-16.32645 -12.49805,-23.32031 -7.47413,-8.95579 -15.65799,-15.19074 -21.04492,-20.57618 -2.69347,-2.69272 -4.64468,-5.14966 -5.61719,-7.40624 -0.97251,-2.2566 -1.14929,-8.22224 3.7573,-14.00977 z m -103.79297,60.78125 c -2.20367,0.0382 -3.70249,1.11146 -5.16406,2.25391 -1.46157,1.14244 -2.8845,2.54563 -4.36524,4.01953 -2.96148,2.94779 -6.18529,6.16465 -9.01757,7.76953 -1.41615,0.80244 -2.66504,1.18474 -3.70899,1.18359 -1.04395,-10e-4 -1.99065,-0.27914 -3.25,-1.35156 l -2.97563,0.61184 c 2.16143,1.8406 5.3041,5.21529 7.74151,5.21798 2.43742,0.003 4.66954,-0.82718 6.67383,-1.96289 4.00859,-2.27141 5.86264,-4.32334 8.76928,-7.21654 1.45331,-1.4466 2.78109,-2.7265 3.82812,-3.54492 0.81949,-0.64057 1.1035,-0.6949 1.23047,-0.76758 0.009,0.0197 0.002,2e-5 0.0117,0.0215 0.3767,0.83313 4.21471,1.64825 4.4533,4.83535 l 2.63459,0.77012 c -0.26456,-3.53412 -0.70465,-6.05125 -1.62109,-8.07812 -0.45823,-1.01343 -1.06438,-1.94345 -1.98047,-2.66407 -0.9161,-0.72061 -2.15793,-1.11677 -3.25977,-1.09765 z m 106.51953,3.91015 c -2.20338,6.0913 -0.31044,10.75355 0.46875,13.12305 0.3896,1.18476 0.39376,1.57294 0.32227,1.78711 -0.0715,0.21417 -0.46939,0.93425 -2.4043,2.11133 -4.19355,2.55105 -5.7429,6.02757 -6.51172,9.24805 -0.76881,3.22047 -1.27667,6.58073 -4.42578,12.10546 -5.23806,9.18819 -10.68804,10.71117 -16.69922,10.45313 -6.01153,-0.25805 -12.27346,-3.08534 -18.01562,-3.67969 -9.07698,-0.93954 -17.44194,2.99424 -24.08789,3.08399 -3.32298,0.0449 -6.08608,-0.61159 -8.91602,-2.97657 -2.82994,-2.36499 -5.77065,-6.68102 -8.45312,-14.21093 l -2.91322,-1.03176 c 2.90093,8.14314 3.53066,16.5134 7.51868,19.84621 3.98805,3.33281 8.55022,4.42909 12.84571,4.37109 8.59097,-0.11602 16.62939,-3.81467 23.38672,-3.11523 3.93614,0.40741 10.82525,3.38286 18.37695,3.70703 7.5517,0.32417 16.07907,-2.79138 22.16992,-13.47656 3.55625,-6.23902 4.36319,-10.80955 5.04883,-13.68164 0.68564,-2.8721 0.72897,-3.65172 3.79297,-5.51563 2.53817,-1.54406 4.26348,-3.19578 4.97851,-5.33789 0.71504,-2.14211 0.16839,-4.09419 -0.31445,-5.5625 -0.96568,-2.93662 -1.80247,-11.22643 -0.22104,-15.59833 z"
   transform="translate(-4.9999999e-7,0.301607)" />
  <path
   fill="#cccccc"
   d="m 235.66332,242.452 c -17.168,-24.9696 -70.5904,-10.4703 -90.1262,-11.9069 -22.3614,-1.64466 -25.7471,-13.3906 -24.7502,-20.5177 3.50136,-25.0336 41.1551,6.22857 39.8047,-19.0854 -0.13607,-2.55062 -15.1753,-10.2186 -43.4679,2.16964 -29.178203,12.776 -61.660703,-6.82498 -62.318303,-16.1566 -4.25225,-23.9525 45.0411,1.19225 45.205503,-24.8854 0.0646,-10.2362 -16.538203,-11.9075 -36.278103,-7.25783 -23.9122,5.63244 -50.8672,-8.91497 -49.5598,-28.3989 1.59987,-23.8482 35.7401,3.11641 35.2058,-14.5264 0.639213,-5.46974 -25.0486,-4.65052 -26.1635,-21.8548 -0.751465,-11.5971 19.3683,-1.25518 7.83355,-19.8618 -6.04488,-9.75147 -2.68356,-19.9315 7.78706,-30.7973 6.75213,-7.00696 27.7988,-15.6033 37.5769,-9.59812 8.67062,5.32545 10.8048,-3.30747 18.6197,-2.24391 10.375903,1.41222 9.057553,18.8813 19.370603,23.0582 18.2795,7.40353 -12.9059,-35.4784 15.7686,-33.9636 37.5854,1.98567 4.91698,78.0605 30.0671,74.6587 16.0954,-2.17701 -9.20211,-40.5318 15.5693,-40.237 16.4035,0.195024 18.0309,33.7652 14.9145,54.8654 -3.34006,22.6148 1.52476,49.9368 13.9782,51.5418 17.1519,3.87241 -10.9162,-43.1354 12.2536,-46.0154 7.14133,-0.88753 17.5504,6.96388 21.1388,29.0977 5.78495,35.6845 -11.1994,80.411 11.2859,105.653 11.9271,-11.5784 9.23188,-70.5898 15.0168,-106.274 3.5881,-22.1338 14.6324,-29.4735 21.7599,-28.4766 25.0336,3.50164 -13.5933,47.4035 11.6325,44.1522 12.4535,-1.60498 12.35,-28.9267 9.00964,-51.5418 -3.11669,-21.1005 -1.06526,-50.5341 18.6409,-53.0022 17.642,-2.20961 6.30567,36.197 14.9482,35.8895 25.3636,-0.902552 -6.49134,-64.4517 30.6882,-70.3112 17.4957,-2.75726 3.07843,40.1256 18.8739,32.7215 10.0755,-4.72281 9.61512,-19.7822 19.9916,-21.1949 7.81541,-1.06413 8.7069,6.32722 17.3775,1.00176 9.77812,-6.0052 28.3402,3.21194 35.0926,10.2192 10.4709,10.8661 15.0744,19.8034 9.0292,29.5552 -11.535,18.6069 4.85887,7.02199 4.10712,18.6197 -1.11543,17.2046 -19.3499,15.764 -18.7107,21.2338 2.57102,21.9903 27.3943,-11.1852 28.995,12.6632 1.30762,19.4848 -28.7949,40.0641 -52.0441,32.1253 -17.2562,-5.89238 -32.7665,-2.90665 -31.3095,8.49997 4.03966,31.6213 46.3524,-9.00426 43.9634,24.8854 -0.65764,9.33166 -29.1937,21.5788 -43.6862,19.8831 -23.2359,-2.71871 -56.8242,-20.9021 -57.7525,-5.27499 -1.61093,27.1154 35.6823,-7.81144 39.1836,17.2222 0.99694,7.12715 -6.11462,20.1149 -28.4766,21.7599 -19.5361,1.43717 -74.8214,-13.6837 -91.9894,11.2859 l 63.9182,11.1271 c 24.6359,-21.8418 57.1383,-24.7399 64.5914,2.48428 36.8538,13.8674 57.35,27.3232 55.2753,63.3493 4.55414,5.58936 9.93657,6.21043 16.1479,1.86321 -0.82829,9.72993 -8.48807,14.4916 -22.9796,12.4214 -18.6324,17.5969 -43.8897,12.6281 -83.2235,-9.31607 -27.5726,9.93459 -48.6131,-6.41566 -39.7486,-46.5803 -16.2907,-21.0699 -57.9929,-27.4402 -62.0683,-9.79541 0.37445,9.78917 0.89574,20.9602 44.6576,41.0451 29.1816,13.3931 31.6086,44.8521 25.8656,49.1865 -7.56511,5.70983 -14.1267,3.39477 -15.4494,-2.69206 -2.44262,-11.2385 -8.02574,-4.48016 -13.4393,-8.67402 -4.51389,-3.49682 -8.79393,-4.85292 -8.69358,-1.07093 0.37927,14.2883 10.9375,21.3375 29.4537,34.7426 22.7126,16.4435 35.2908,37.4689 25.539,50.6591 -13.2438,17.9136 -20.0702,9.34782 -24.4375,-1.9749 -3.82762,-9.92325 -17.4813,-15.6617 -20.8259,-6.00038 -4.67036,13.4892 12.9549,20.5974 27.3926,37.8972 11.2297,13.4558 17.767,30.7644 8.07761,44.0776 -3.90813,5.36967 -12.3832,3.22271 -13.3795,-3.4886 -0.82942,-5.58312 -6.56958,-7.41204 -10.3527,-10.7702 -4.2874,-3.8058 -7.05459,-8.43166 -9.02467,-2.98545 -3.78482,10.4632 6.0704,13.1227 -2.87575,18.565 -7.25755,4.41496 -3.18501,8.51074 -9.89037,20.2745 -11.3292,19.8748 -27.9519,9.27383 -37.6302,8.27207 -15.8343,-1.63899 -32.8076,15.2651 -43.9744,-16.081 -5.78551,-16.24 -9.45355,-1.90091 -11.1002,-23.8975 -2.0126,-26.8849 -17.6372,15.7476 -31.3203,4.0955 -10.9488,-9.32344 0.47707,-32.2033 16.5694,-46.474 12.9974,-11.5265 29.2683,-20.0988 20.4761,-31.2551 -14.9876,-19.0168 -24.5461,35.4166 -47.4412,7.90044 -8.61789,-9.54766 5.38526,-35.9014 16.8313,-44.9501 18.3518,-14.5077 35.0861,-16.7063 37.7351,-30.8965 4.98444,-26.7015 -22.1916,15.2277 -33.6739,3.72841 -5.7447,-4.33474 -11.1419,-35.3163 32.6977,-54.1545 17.9969,-7.73377 37.1186,-18.3881 33.4653,-37.6257 -3.14447,-13.0964 -45.4944,-8.51613 -58.5771,14.2056 6.11235,39.9612 -11.6929,48.4478 -40.3696,45.3382 -40.3696,23.3935 -66.661303,26.2916 -83.844603,9.93714 -10.9721,1.86293 -19.4599,-1.24243 -25.4639,-9.31607 7.87181,1.67046 15.3286,2.09395 19.8743,-6.21071 -8.07364,-24.6359 9.31635,-42.2331 55.896403,-60.2439 2.56195,-12.8872 13.6738,-20.4083 21.3693,-21.3905 12.8254,-1.63729 28.2393,7.98605 42.6011,17.043 19.5449,-7.79811 40.4357,-12.2315 63.2926,-11.7482 z"
   id="path4"
   style="stroke:none" />
  <path
   id="path6"
   style="fill:#ffffff;stroke:none"
   d="m 402.51367,30.787109 c 4.3475,-10.6923 8.65649,-5.020321 16.11328,-4.863281 5.79997,0.12189 14.23509,-3.119425 17.70899,-3.296875 23.7665,-1.21408 33.58836,17.755 36.88086,32.375 3.02542,-8.39226 -1.64287,-16.42394 -10.80469,-25.931641 -6.75241,-7.007249 -25.31565,-16.223949 -35.09375,-10.21875 -8.67062,5.325451 -9.56157,-2.066083 -17.37695,-1.001953 -10.3765,1.41279 -9.91676,16.472481 -19.99219,21.195313 -2.2677,1.062978 -3.91265,1.089472 -5.1187,0.36334 8.7772,7.32048 16.64515,-6.068553 17.68315,-8.621153 z m -83.75586,16.910157 c 4.65027,-4.11479 11.67218,-6.086224 14.62701,-3.377819 -1.59776,-2.588952 -4.07373,-4.060216 -7.94537,-3.575306 -19.7062,2.468138 -21.75732,31.901453 -18.64062,53.001953 3.34035,22.615096 3.44339,49.938216 -9.00977,51.542966 -2.72474,0.35112 -4.70458,0.15208 -6.10016,-0.48677 20.1231,12.64174 24.11393,-14.49628 19.11394,-46.667293 -3.29486,-21.199861 -0.13514,-43.27934 7.95497,-50.437731 z m 47.1211,-35.466797 C 371.9289,7.6845488 377.52752,8.3907887 377.52752,8.3907887 376.3574,7.0120483 374.77808,6.1955368 372.625,6.1953125 c -0.48631,-5.07e-5 -1.00209,0.040791 -1.54883,0.1269531 -37.1795,5.8595004 -5.32585,69.4098974 -30.68945,70.3125004 21.20002,9.926514 6.96239,-50.480797 25.49219,-64.404297 z M 121.33507,41.101702 c 2.62726,-2.058544 3.08617,-6.103159 2.1837,-10.626502 -2.07198,-10.385072 -8.89374,-22.1891332 13.82454,-22.5856422 -2.04783,-0.8782637 -4.42159,-1.4200888 -7.17143,-1.5653387 -0.44804,-0.023666 -0.88156,-0.03671 -1.30079,-0.039063 -26.41124,-0.1482039 3.52517,41.2897739 -14.46875,34.0019529 2.28777,1.803891 4.80865,2.478805 6.93273,0.814593 z M 95.03125,17.228516 c -7.81484,-1.06356 -9.948481,7.56959 -18.619141,2.24414 -9.77812,-6.0052 -30.824072,2.590686 -37.576171,9.597656 -10.4706,10.865801 -13.83195,21.047329 -7.78711,30.798829 11.5347,18.6066 -8.585444,8.264228 -7.833984,19.861328 1.11487,17.2043 26.803262,16.383815 26.164062,21.853511 0.534331,17.6428 -33.607131,-9.320792 -35.207031,14.52735 -0.322828,4.81256 1.078757,9.32407 3.732915,13.30474 -5.421949,-35.185144 32.449263,-8.58143 34.409663,-24.75396 2.02649,-16.719901 -29.395137,-6.867672 -23.398437,-25.763672 1.6954,-5.34303 6.880216,0.695571 10.816406,-6.933594 4.4572,-8.63915 -18.395208,-21.266063 2.632812,-39.664063 21.8588,-19.1248 36.46071,-1.361101 43.66211,-7.707031 5.957933,-5.250262 13.084563,-4.843671 16.744606,-0.979199 -1.79132,-3.294931 -4.010224,-5.878271 -7.7407,-6.386035 z m 80.77734,23.517578 c -24.7714,-0.294803 0.52481,38.059528 -15.57031,40.236328 -9.60265,1.29855 -10.77484,-8.989326 -10.64844,-22.316406 -2.55345,10.1611 0.86423,34.498693 15.85352,24.496093 9.81383,-6.54889 -10.50969,-45.770703 17.59996,-39.559138 -2.0044,-1.791926 -4.39868,-2.823178 -7.23473,-2.856877 z m 291.59961,26.314453 -3.85351,4.962891 10.24414,4.65625 1.34765,3.580078 c 0.19474,-0.93629 0.331,-1.938772 0.4004,-3.013672 0.58676,-9.06065 -9.28926,-3.973137 -8.13868,-10.185547 z m -10.57031,31.417969 c -4.66696,12.990904 7.31751,12.929744 15.62695,9.691404 6.10838,-2.38025 12.3479,-1.18786 12.9375,8.45703 0.39798,-1.82183 0.55215,-3.65772 0.42969,-5.48437 -1.60073,-23.848502 -26.42314,9.32626 -28.99414,-12.664064 z m -239.88281,2.658204 c -23.1698,2.88 4.89796,49.88802 -12.25391,46.01562 -7.78337,-1.0029 -12.60244,-12.05235 -14.30664,-25.71875 -0.30841,11.3403 6.30989,31.48315 19.87109,28.12305 8.75595,-2.16964 -11.46231,-50.916989 13.50275,-46.83954 -2.38206,-1.35724 -4.73593,-1.83855 -6.81329,-1.58038 z m 69.20117,0 c -0.44547,-0.0623 -0.90757,-0.0923 -1.38086,-0.0879 -7.09934,0.066 -17.01506,7.81402 -20.37891,28.56445 -5.78495,35.6842 -3.09054,94.69504 -15.01757,106.27344 5.30136,5.61338 12.35982,-11.40065 15.23242,-43.31445 v 1e-5 c 3.51836,-39.0884 -2.00079,-98.19312 29.34015,-86.73602 -1.22776,-2.41606 -3.63038,-4.11699 -7.79523,-4.69953 z M 88.984375,168.12109 c 17.058515,-0.77626 25.088915,-25.64464 3.6875,-25.43359 -0.690368,0.007 -1.411756,0.0409 -2.164063,0.10156 5.90088,1.2651 9.531958,4.18031 9.501958,8.97852 -0.164407,26.07765 -49.457333,0.93422 -45.205082,24.88672 4.988584,-10.65071 17.047389,-7.7536 34.179687,-8.53321 z M 402.98047,147.03906 c -0.14191,0.35811 -0.25746,0.73265 -0.34961,1.11914 0.11091,-0.37031 0.21973,-0.73914 0.34961,-1.11914 z m -0.34961,1.11914 c -4.91162,16.39962 8.76588,23.30751 41.05859,20.70899 l 1.28125,11.38867 c 0.87166,-1.22485 1.38851,-2.4351 1.47071,-3.60156 2.389,-33.88966 -39.92323,6.73458 -43.96289,-24.88672 -0.16809,-1.31601 -0.10784,-2.51821 0.15234,-3.60938 z m -281.84375,61.56836 c -0.60225,4.30566 0.39493,10.29701 6.20921,14.72851 -6.45375,-19.76064 2.34639,-20.73019 16.66188,-18.00585 21.96245,4.17961 19.95694,-11.80841 16.9336,-15.8086 1.3504,25.31397 -36.30333,-5.94766 -39.80469,19.08594 z m 224.21484,-18.46484 c -4.3945,35.88404 49.25508,-8.6254 35.23828,28.5 3.26608,-3.92121 4.38324,-8.15923 3.94727,-11.27734 -3.5013,-25.03365 -40.79452,9.89274 -39.18359,-17.22266 z m 21.37696,44.23633 c -12.13673,0.0517 -26.42229,6.2373 -38.74024,17.1582 l -63.91797,-11.12695 -1.82929,5.50758 c 26.28,0.5173 44.83218,5.82249 65.45061,10.86329 20.17524,-17.90928 53.78035,-29.17596 62.96071,-1.50173 l 1.92774,-1.25782 c -3.72655,-13.61209 -13.71484,-19.6943 -25.85156,-19.64257 z m -194.00782,18.40039 c 1.89354,1.68055 2.90981,3.21611 4.08265,5.39302 15.62935,-7.37824 41.90116,-15.67336 61.74285,-11.53679 l -2.53253,-5.60428 c -22.8569,-0.48331 -43.74807,3.94993 -63.29297,11.74805 z m -40.16797,-17.22071 c -0.82092,0.0172 -1.632,0.0754 -2.43359,0.17774 -7.6955,0.9822 -18.80714,8.50349 -21.36914,21.39062 -46.580098,18.0108 -63.970084,35.60824 -55.896484,60.24414 -2.27282,4.15219 -5.273133,6.12259 -8.689453,6.84571 2.82076,2.17389 5.849921,3.41218 10.332031,-1.89258 0.620788,-3.31087 0.413553,-6.20826 -0.621093,-8.69141 -0.300189,-6.93581 -7.201948,-23.43706 55.630859,-50.16406 l 2.22266,3.96484 c -29.5795,12.13 -51.091999,24.37294 -53.818363,38.12891 4.18706,-10.0877 25.157771,-22.74335 55.009763,-35.31445 l 29.36914,52.71289 c 1.23562,0.1338 2.4503,0.24665 3.64453,0.33594 l -33.70507,-63.05274 c 7.24274,-19.74777 21.01892,-25.19921 33.2759,-22.20216 -4.47481,-1.62033 -8.82958,-2.56998 -12.95169,-2.48339 z m 313.66016,82.73047 c 6.292,6.11008 12.32639,8.08098 17.79102,0.94532 -6.21133,4.34722 -11.5943,3.72607 -16.14844,-1.86329 z M 240.88477,264.53516 c 3.65329,19.2376 -15.46795,29.89315 -33.46485,37.62695 -43.8395,18.8382 -38.44196,49.8196 -32.69726,54.1543 -8.67459,-46.734 82.28651,-51.87625 66.16211,-91.78125 z m 76.24218,15.12695 c -4.1062,21.4489 0.64637,35.69561 10.38282,42.32812 -9.33421,-13.8467 -10.12988,-25.9836 -7.04493,-37.3457 z M 32.628906,324.70117 c 1.50094,2.01826 3.159363,3.72557 4.970703,5.12305 l 0.81836,-4.53125 c -1.8771,-0.14485 -3.820963,-0.38147 -5.789063,-0.5918 z m 175.494144,19.30078 c 1.01112,0.98532 1.20773,3.57967 0.27343,8.58594 -2.64898,14.19 -19.38452,16.38878 -37.73632,30.89649 -11.446,9.04876 -25.44798,35.40161 -16.83008,44.94921 -1.25717,-49.7926 61.11619,-48.98989 58.61719,-81.40039 z m 99.47461,4.47266 c 1.27587,0.88045 2.34628,2.6366 3.10937,6.14844 0.49578,2.28246 1.72847,4.03402 3.47461,5.03125 l -0.85742,-8.89649 z m 1.17187,68.31641 c -1.52853,0.009 -2.89719,0.24922 -4.0293,0.55273 5.26173,-0.16741 11.90036,4.50988 14.38868,10.96094 2.70801,7.02082 6.36361,12.97341 11.90625,12.21875 -0.88432,-1.49198 -2.49213,-3.33359 -4.63868,-5.08985 -4.73454,-3.87372 -3.87438,-13.77153 -11.1914,-17.21484 -2.28657,-1.07603 -4.48787,-1.43929 -6.43555,-1.42773 z m -106.25586,0.0801 -3.99414,0.91993 c 0.89886,0.65254 1.81538,1.55389 2.75195,2.74218 8.79222,11.1563 -7.47911,19.72936 -20.47656,31.25586 -16.0923,14.2707 -27.51911,37.15121 -16.57031,46.47461 1.28268,1.09219 2.58278,1.70717 3.88672,1.94727 -23.9176,-29.3318 57.69924,-62.69935 34.40234,-83.33985 z m 103.65235,66.33985 c -0.99397,0 -1.79095,0.63943 -2.40235,1.42383 1.64256,0.48453 3.67911,3.07839 6.27735,5.38476 3.78312,3.35816 9.52409,5.18837 10.35351,10.77149 0.4223,2.84471 2.19246,4.85615 4.38477,5.83593 0.48125,-2.17916 0.21019,-4.35949 -0.96485,-5.76953 -2.15206,-2.58248 -2.58331,-7.74854 -6.45703,-8.60937 -3.87371,-0.86083 -8.60892,-9.03711 -11.1914,-9.03711 z m -108.3086,4.74023 -2.78125,2.29492 c 0.19843,1.09899 0.35508,2.39939 0.46875,3.92188 1.64637,21.9963 5.31605,7.65648 11.10156,23.89648 2.79156,7.8364 5.94652,12.65704 9.35547,15.50586 -6.01994,-12.3165 -6.56764,-16.37728 -8.60547,-22.99023 -1.67953,-5.4499 -9.29811,-3.71531 -9.53906,-22.62891 z"
   transform="translate(-4.9999999e-7,0.301607)" />
  <polygon
   fill="#ffffff"
   points="127.084,240.559 124.29,241.801 115.289,270.357 116.841,272.84 "
   id="polygon8"
   style="stroke:none"
   transform="translate(-0.61668349)" />
  <path
   id="polygon10"
   style="fill:#ffffff;stroke:none"
   transform="translate(-0.61668349)"
   d="m 134.376,268.537 -22.19,-5.131 0.73674,2.51618 20.70826,5.20382 2.77,-0.567 z" />
  <polygon
   fill="#ffffff"
   points="132.05,302.638 137.857,283.597 138.569,278.428 136.396,280.911 130.498,300.155 "
   id="polygon12"
   style="stroke:none"
   transform="translate(-0.61668349)" />
  <polygon
   fill="#ffffff"
   points="140.121,317.848 145.928,298.806 146.639,293.637 144.466,296.12 138.569,315.364 "
   id="polygon14"
   style="stroke:none"
   transform="translate(-0.61668349)" />
  <path
   id="polygon16"
   style="fill:#ffffff;stroke:none"
   transform="translate(-0.61668349)"
   d="m 139.964,284.367 -18.466,-4.51 0.44808,2.48765 17.27192,4.61135 2.77,-0.567 z" />
  <path
   id="polygon18"
   style="fill:#ffffff;stroke:none"
   transform="translate(-0.61668349)"
   d="m 145.551,301.128 -15.362,-3.579 1.62469,2.7778 12.99131,3.3902 2.77,-0.567 z" />
  <path
   id="polygon20"
   style="fill:#ffffff;stroke:none"
   transform="translate(-0.61668349)"
   d="m 150.207,317.268 -10.395,-2.647 0.77765,2.65208 8.87135,2.58492 2.77,-0.567 z" />
  <polygon
   fill="#ffffff"
   points="113.555,255.523 125.561,259.02 128.331,258.454 126.306,256.431 115.911,253.784 "
   id="polygon22"
   style="stroke:none"
   transform="translate(-0.61668349)" />
  <polygon
   fill="#ffffff"
   points="121.005,244.349 133.01,247.846 135.78,247.28 133.756,245.257 123.361,242.61 "
   id="polygon24"
   style="stroke:none"
   transform="translate(-0.61668349)" />
  <polygon
   fill="#ffffff"
   points="123.049,287.429 128.856,268.387 129.567,263.218 127.394,265.701 121.497,284.946 "
   id="polygon26"
   style="stroke:none"
   transform="translate(-0.61668349)" />
  <polygon
   fill="#ffffff"
   points="138.843,237.566 136.477,243.232 136.946,246.02 138.728,244.068 139.877,239.36 "
   id="polygon28"
   style="stroke:none"
   transform="translate(-0.61668349)" />
  <polygon
   fill="black"
   points="139.5,276.565 141.362,279.048 152.226,249.251 150.364,246.767 "
   id="polygon30"
   style="fill:#666666;fill-opacity:1;stroke:none"
   transform="translate(-0.61668349)" />
  <polygon
   fill="black"
   points="146.018,293.016 147.88,295.499 163.711,256.39 161.848,253.906 "
   id="polygon32"
   style="fill:#666666;fill-opacity:1;stroke:none"
   transform="translate(-0.61668349)" />
  <polygon
   fill="black"
   points="154.709,309.157 156.571,311.64 175.505,264.149 173.643,261.666 "
   id="polygon34"
   style="fill:#666666;fill-opacity:1;stroke:none"
   transform="translate(-0.61668349)" />
  <polygon
   fill="black"
   points="161.538,321.572 163.4,324.055 183.265,277.186 181.403,274.703 "
   id="polygon36"
   style="fill:#666666;fill-opacity:1;stroke:none"
   transform="translate(-0.61668349)" />
  <polygon
   fill="black"
   points="138.025,245.92 135.799,248.084 160.22,253.511 162.445,251.348 "
   id="polygon38"
   style="fill:#666666;fill-opacity:1;stroke:none"
   transform="translate(-0.61668349)" />
  <polygon
   fill="black"
   points="134.61,257.716 132.385,259.879 181.637,271.204 178.897,267.798 "
   id="polygon40"
   style="fill:#666666;fill-opacity:1;stroke:none"
   transform="translate(-0.61668349)" />
  <polygon
   fill="black"
   points="139.266,270.752 139.524,273.537 181.016,283.309 183.242,281.145 "
   id="polygon42"
   style="fill:#666666;fill-opacity:1;stroke:none"
   transform="translate(-0.61668349)" />
  <polygon
   fill="black"
   points="145.474,286.272 145.731,289.056 180.395,295.725 177.965,292.94 "
   id="polygon44"
   style="fill:#666666;fill-opacity:1;stroke:none"
   transform="translate(-0.61668349)" />
  <polygon
   fill="black"
   points="149.82,302.102 150.077,304.886 178.843,310.623 176.413,307.839 "
   id="polygon46"
   style="fill:#666666;fill-opacity:1;stroke:none"
   transform="translate(-0.61668349)" />
  <polygon
   fill="black"
   points="151.992,317.622 152.25,320.406 167.979,322.729 165.549,319.944 "
   id="polygon48"
   style="fill:#666666;fill-opacity:1;stroke:none"
   transform="translate(-0.61668349)" />
  <polygon
   fill="black"
   points="132.671,255.148 134.533,256.7 136.706,248.94 135.465,246.767 "
   id="polygon50"
   style="fill:#666666;fill-opacity:1;stroke:none"
   transform="translate(-0.61668349)" />
  <path
   fill="black"
   d="m 140.12432,322.503 -4.03512,-0.31039 c -37.143203,23.4859 -61.805052,25.84899 -77.428752,7.95022 -3.62098,1.47118 -8.963891,1.57873 -12.585451,1.36159 2.26857,1.34702 7.44492,1.96696 13.0365,2.48315 16.8905,17.2786 45.085103,10.9672 81.012803,-11.4846 z"
   id="path52"
   style="fill:#666666;fill-opacity:1;stroke:none" />
  <polygon
   fill="#ffffff"
   points="318.711,294.772 332.863,291.748 335.633,292.315 333.92,294.026 318.733,296.823 "
   id="polygon54"
   style="stroke:none"
   transform="translate(-0.61668349)" />
  <polygon
   fill="#ffffff"
   points="329.571,265.527 335.378,284.569 336.089,289.738 333.916,287.254 328.019,268.01 "
   id="polygon56"
   style="stroke:none"
   transform="translate(-0.61668349)" />
  <polygon
   fill="#ffffff"
   points="337.952,250.006 343.759,269.204 344.47,274.217 342.298,271.734 336.556,252.178 "
   id="polygon58"
   style="stroke:none"
   transform="translate(-0.61668349)" />
  <polygon
   fill="#ffffff"
   points="321.642,280.5 339.073,276.385 341.843,276.952 339.818,278.974 323.998,282.239 "
   id="polygon60"
   style="stroke:none"
   transform="translate(-0.61668349)" />
  <polygon
   fill="#ffffff"
   points="323.642,267.009 340.613,262.58 343.383,263.147 341.358,264.703 325.997,268.748 "
   id="polygon62"
   style="stroke:none"
   transform="translate(-0.61668349)" />
  <polygon
   fill="#ffffff"
   points="338.088,251.494 363.477,246.284 366.247,246.851 363.911,248.406 336.087,254.166 "
   id="polygon64"
   style="stroke:none"
   transform="translate(-0.61668349)" />
  <polygon
   fill="#ffffff"
   points="319.79,308.285 332.885,304.943 335.655,305.51 333.63,307.532 321.057,310.335 "
   id="polygon66"
   style="stroke:none"
   transform="translate(-0.61668349)" />
  <polygon
   fill="#ffffff"
   points="359.199,241.023 361.747,247.941 363.528,250.312 363.875,247.372 361.604,240.092 "
   id="polygon68"
   style="stroke:none"
   transform="translate(-0.61668349)" />
  <polygon
   fill="#ffffff"
   points="322.748,284.938 328.555,303.046 329.266,308.215 327.093,305.732 322.441,290.689 "
   id="polygon70"
   style="stroke:none"
   transform="translate(-0.61668349)" />
  <polygon
   fill="black"
   points="337.02,291.6 338.882,289.117 349.746,321.56 347.884,324.043 "
   id="polygon72"
   style="fill:#666666;fill-opacity:1;stroke:none"
   transform="translate(-0.61668349)" />
  <polygon
   fill="black"
   points="344.783,278.106 346.646,275.623 360.919,318.778 359.057,321.262 "
   id="polygon74"
   style="fill:#666666;fill-opacity:1;stroke:none"
   transform="translate(-0.61668349)" />
  <polygon
   fill="black"
   points="354.408,267.568 356.27,265.085 370.069,301.681 368.206,304.164 "
   id="polygon76"
   style="fill:#666666;fill-opacity:1;stroke:none"
   transform="translate(-0.61668349)" />
  <polygon
   fill="black"
   points="365.127,257.953 365.9,253.914 378.14,284.754 376.278,287.237 "
   id="polygon78"
   style="fill:#666666;fill-opacity:1;stroke:none"
   transform="translate(-0.61668349)" />
  <polygon
   fill="black"
   points="333.678,321.778 329.896,319.303 359.607,315.12 361.833,317.284 "
   id="polygon80"
   style="fill:#666666;fill-opacity:1;stroke:none"
   transform="translate(-0.61668349)" />
  <polygon
   fill="black"
   points="332.13,310.449 329.905,308.286 371.688,298.673 368.947,302.078 "
   id="polygon82"
   style="fill:#666666;fill-opacity:1;stroke:none"
   transform="translate(-0.61668349)" />
  <polygon
   fill="black"
   points="341.611,293.834 341.868,291.049 378.536,284.856 377.183,287.487 "
   id="polygon84"
   style="fill:#666666;fill-opacity:1;stroke:none"
   transform="translate(-0.61668349)" />
  <polygon
   fill="black"
   points="346.573,278.625 346.83,275.841 383.518,270.417 381.865,272.89 "
   id="polygon86"
   style="fill:#666666;fill-opacity:1;stroke:none"
   transform="translate(-0.61668349)" />
  <polygon
   fill="black"
   points="359.012,261.55 363.626,259.077 389.903,255.83 387.161,258.147 "
   id="polygon88"
   style="fill:#666666;fill-opacity:1;stroke:none"
   transform="translate(-0.61668349)" />
  <polygon
   fill="black"
   points="328.791,309.593 330.653,308.041 336.094,324.205 333.919,324.666 "
   id="polygon90"
   style="fill:#666666;fill-opacity:1;stroke:none"
   transform="translate(-0.61668349)" />
  <polygon
   fill="#ffffff"
   points="348.534,243.003 353.408,257.532 354.119,262.545 351.946,260.062 347.138,245.175 "
   id="polygon92"
   style="stroke:none"
   transform="translate(-0.61668349)" />
  <polygon
   fill="#ffffff"
   points="373.36,239.467 375.131,246.385 376.6,248.912 377.103,245.971 375.299,239.47 "
   id="polygon94"
   style="stroke:none"
   transform="translate(-0.61668349)" />
  <polygon
   fill="#ffffff"
   points="352.13,260.557 355.055,260.502 352.408,261.902 348.23,261.874 "
   id="polygon96"
   style="stroke:none"
   transform="translate(-0.61668349)" />
  <polygon
   fill="black"
   points="377.266,253.129 378.039,249.09 385.143,268.725 383.281,271.208 "
   id="polygon98"
   style="fill:#666666;fill-opacity:1;stroke:none"
   transform="translate(-0.61668349)" />
  <path
   id="path106"
   style="fill:#ffffff;stroke:none"
   d="M 390.96484 260.27539 L 389.36719 264.51758 C 419.24659 276.86358 424.8634 281.42967 435.16211 289.84375 C 431.77811 279.98768 415.78919 269.74017 390.96484 260.27539 z M 387.00781 266.05859 L 386.01953 269.08203 C 406.76849 277.16716 421.82111 284.77665 432.72852 292.58203 C 426.90974 284.8564 411.83216 275.52337 387.00781 266.05859 z "
   transform="translate(-4.9999999e-7,0.301607)" /><g
   id="path100"
   style="opacity:1;stroke:none"
   transform="translate(-0.61668349)"><path
     style="color:#000000;font-style:normal;font-variant:normal;font-weight:normal;font-stretch:normal;font-size:medium;line-height:normal;font-family:sans-serif;font-variant-ligatures:normal;font-variant-position:normal;font-variant-caps:normal;font-variant-numeric:normal;font-variant-alternates:normal;font-variant-east-asian:normal;font-feature-settings:normal;font-variation-settings:normal;text-indent:0;text-align:start;text-decoration:none;text-decoration-line:none;text-decoration-style:solid;text-decoration-color:#000000;letter-spacing:normal;word-spacing:normal;text-transform:none;writing-mode:lr-tb;direction:ltr;text-orientation:mixed;dominant-baseline:auto;baseline-shift:baseline;text-anchor:start;white-space:normal;shape-padding:0;shape-margin:0;inline-size:0;clip-rule:nonzero;display:inline;overflow:visible;visibility:visible;isolation:auto;mix-blend-mode:normal;color-interpolation:sRGB;color-interpolation-filters:linearRGB;solid-color:#000000;solid-opacity:1;vector-effect:none;fill:#666666;fill-opacity:1;fill-rule:nonzero;stroke:none;stroke-linecap:butt;stroke-linejoin:miter;stroke-miterlimit:4;stroke-dasharray:none;stroke-dashoffset:0;stroke-opacity:1;color-rendering:auto;image-rendering:auto;shape-rendering:auto;text-rendering:auto;enable-background:accumulate;stop-color:#000000;stop-opacity:1"
     d="m 394.53437,255.73954 -1.85664,-0.46415 -0.19921,0.24023 c -5.62765,6.7966 -14.36975,22.45992 -21.78907,37.08008 -3.70965,7.31009 -7.07964,14.3518 -9.54101,19.87305 -1.23069,2.76063 -2.23471,5.14054 -2.94141,6.99023 -0.7067,1.8497 -1.12678,3.10156 -1.16797,3.88672 l -0.0195,0.3711 3.02467,1.05735 0.16992,-0.45508 c 3.80747,-10.15138 11.29969,-25.41119 18.07104,-38.7136 3.38567,-6.65121 6.69977,-12.77494 9.49609,-17.44531 1.39816,-2.33519 2.66619,-4.30809 3.74414,-5.79493 1.02872,-1.41893 1.87402,-2.32214 2.42578,-2.71875 1.15384,-1.1424 1.84226,-2.36238 0.58317,-3.90694 z"
     id="path1565" /></g>
  <path
   fill="black"
   d="m 362.67632,324.461 c 33.9018,18.6265 54.03134,25.28847 77.60564,7.0759 7.11654,0.69295 14.2487,1.59373 20.24651,-4.41317 -8.48182,3.52406 -16.00398,4.14961 -21.63379,1.38345 -19.41948,18.79585 -44.93521,11.6076 -73.41721,-4.66866 l -2.8012,0.62249 z"
   id="path102"
   style="fill:#666666;fill-opacity:1;stroke:none" />
  
  
  <path
   fill="black"
   d="m 256.81632,243.214 c 4.0269,-5.48277 7.88712,-10.0653 11.3428,-15.6543 3.91635,-6.3343 7.4024,-13.6097 11.6365,-18.504 8.58926,-21.2114 -11.2748,-61.9138 10.5582,-95.0239 -13.968,30.3285 -1.24214,57.5527 -1.86321,86.3289 l 26.7061,-29.1903 c 21.5221,-25.8837 3.62438,-79.0824 10.5582,-116.761 -0.31011,73.2147 13.0377,63.775 3.72643,101.856 l 26.085,-21.7375 c 18.6276,-13.7194 10.6631,-86.1636 16.7689,-114.277 -0.82829,33.952 5.79317,54.2466 -2.48428,101.856 12.5498,-8.7738 28.2166,-27.2356 38.3474,-46.4604 10.1307,-19.2254 14.7263,-39.2145 18.7912,-41.1106 -4.34948,21.5297 -12.4234,41.404 -24.2218,59.6228 18.8382,-23.3904 34.5725,-30.9509 50.9278,-49.6857 -11.6977,16.1473 -26.4991,29.8114 -39.7486,44.7171 18.218,-3.31229 8.81093,-7.55575 54.6543,-9.93714 -5.55477,3.08098 -26.8359,4.70835 -44.0567,11.2998 -13.9283,5.33084 -24.3525,14.6588 -42.5815,30.0002 31.2602,-8.27632 68.4179,17.2803 94.7121,2.17502 -22.415,22.4782 -68.0579,-11.4061 -101.545,5.27868 l -43.7857,38.1963 c 37.8831,-10.3439 68.0063,26.1814 98.7503,15.5268 -27.0595,18.9403 -78.5679,-30.5433 -109.221,-3.02882 -13.6831,10.4366 -21.9013,22.2387 -35.4889,35.0138 l -0.62079,3.41603 4.3475,-3.10536 c 27.1202,-6.41452 53.9303,10.4505 83.2235,1.24214 -19.7989,19.7773 -95.6515,-23.2855 -115.519,41.6118 -14.188,63.3053 47.0452,59.1602 56.6414,88.7505 -18.6747,-19.8584 -55.8148,-29.3409 -57.2655,-49.068 -1.65005,13.7974 -1.04485,28.6991 0.36623,39.1813 1.89237,18.66116 13.99756,33.7954 32.89951,45.69951 25.3161,15.94363 36.16447,26.6819 39.77919,40.03749 -19.0103,-23.2713 -48.5876,-34.9175 -71.9552,-64.4698 -0.0859,17.5873 -0.43733,30.57367 1.13193,47.33467 11.06769,22.00939 21.17859,36.85363 31.39504,45.76207 13.48791,11.76106 30.07416,17.13636 32.91799,37.98556 -16.1921,-29.1552 -50.6143,-41.1183 -65.3304,-67.5128 2.0418,23.7379 -0.36226,31.8036 2.20536,41.4712 12.0113,24.3281 19.8734,29.2918 23.7742,61.3313 -8.24485,-17.9053 -19.1792,-39.8699 -27.5091,-55.442 -0.52696,23.6393 -1.91906,29.9472 -3.55748,44.8311 -0.81354,-16.1541 -0.92494,-19.3677 -1.12904,-50.8686 -15.2555,12.0813 -29.7122,47.0617 -31.0244,54.292 4.85717,-38.5359 31.2472,-53.4595 30.8421,-67.6596 l -0.74126,-32.1319 c -22.2857,17.1349 -47.9832,38.2317 -63.0831,60.3482 1.66904,-23.6302 66.8529,-58.9507 62.3112,-78.6646 0.47793,-17.3883 0.59358,-32.8609 -0.5845,-48.5927 -20.3431,23.5786 -42.4287,24.4332 -72.4944,65.9739 6.12482,-28.9296 69.6836,-55.9772 72.3436,-81.1738 l -0.57572,-37.9769 c -40.6347,41.2804 -33.7295,22.7188 -60.1872,50.5131 2.35871,-18.301 47.6436,-35.1216 56.5688,-56.194 2.89701,-8.07846 6.36265,-14.6696 3.86958,-25.1178 -16.8545,-77.9137 -80.9748,-30.6026 -117.979,-51.1824 28.3391,9.57714 72.5505,-11.1115 87.2606,-0.30954 -1.78554,-9.82574 -20.8715,-26.7389 -29.2811,-33.1532 -24.1348,-20.9962 -89.610796,18.2444 -121.015996,-2.86866 9.89207,1.1537 28.6657,4.85036 45.485296,0.4096 19.0622,-5.03263 40.0011,-12.5439 61.956,-10.9701 l -28.266,-27.6429 c -28.588,-26.9501 -63.162696,9.38183 -117.064996,-19.8672 34.054,15.1053 76.488396,2.2748 100.298996,5.27443 -18.229,-15.3414 -18.7206,-16.5991 -27.3722,-21.6196 -25.695796,-8.709446 -45.300196,-6.659996 -49.643696,-9.437386 19.1495,-0.412158 28.366,-0.514205 46.584,3.72926 -36.7254,-29.6127 -40.1723,-45.942 -45.646,-56.8225 13.1287,19.7374 25.065313,30.670635 50.964106,50.713635 -3.87184,-9.47169 -1.41561,-19.100735 -4.25394,-31.597035 -2.748186,-12.1008 -6.664816,-20.7014 -5.105196,-27.8121 16.790996,44.7304 10.289776,55.316822 20.617286,65.071418 l 21.95702,18.275018 c -10.7606,-35.193293 8.25242,-68.335036 -7.16438,-95.458036 24.3834,14.9879 -5.86478,90.235606 23.5855,110.588906 l 23.33981,23.05163 c -9.31125,-38.0806 5.55223,-12.60934 1.82809,-92.652636 12.8333,48.271796 -7.76598,76.494106 9.92533,101.898906 l 33.2364,38.22802 c -4.96659,-51.1246 9.62164,-43.96763 -0.62163,-85.15983 15.0044,17.9008 -0.51421,72.5709 8.07506,93.7823 3.66378,7.76098 12.8974,27.6021 22.0482,33.2272 h 4.644 z"
   id="path108"
   style="fill:#666666;fill-opacity:1;stroke:none" />
  <path
   fill="#ffffff"
   d="m 253.73132,241.158 c 4.0269,-5.48277 7.88712,-10.0653 11.3428,-15.6543 3.91635,-6.3343 7.4024,-13.6097 11.6365,-18.504 8.58926,-21.2114 -11.2748,-61.9138 10.5582,-95.0239 -13.968,30.3285 -1.24214,57.5527 -1.86321,86.3289 l 26.7061,-29.1903 c 21.5221,-25.8837 3.62438,-79.0824 10.5582,-116.761 -0.31011,73.2147 13.0377,63.775 3.72643,101.856 l 26.085,-21.7375 c 18.6276,-13.7194 10.6631,-86.1636 16.7689,-114.277 -0.82829,33.952 5.79317,54.2466 -2.48428,101.856 12.5498,-8.7738 28.2166,-27.2356 38.3474,-46.4604 10.1307,-19.2254 14.7263,-39.2145 18.7912,-41.1106 -4.34948,21.5297 -12.4234,41.404 -24.2218,59.6228 18.8382,-23.3904 34.5725,-30.9509 50.9278,-49.6857 -11.6977,16.1473 -26.4991,29.8114 -39.7486,44.7171 18.218,-3.31229 8.81093,-7.55575 54.6543,-9.93714 -5.55477,3.08098 -26.8359,4.70835 -44.0567,11.2998 -13.9283,5.33084 -24.3525,14.6588 -42.5815,30.0002 31.2602,-8.27632 68.4179,17.2803 94.7121,2.17502 -22.415,22.4782 -68.0579,-11.4061 -101.545,5.27868 l -43.7857,38.1963 c 37.8831,-10.3439 68.0063,26.1814 98.7503,15.5268 -27.0595,18.9403 -78.5679,-30.5433 -109.221,-3.02882 -13.6831,10.4366 -21.9013,22.2387 -35.4889,35.0138 l -0.62079,3.41603 4.3475,-3.10536 c 27.1202,-6.41452 53.9303,10.4505 83.2235,1.24214 -19.7989,19.7773 -95.6515,-23.2855 -115.519,41.6118 -14.188,63.3053 47.0452,59.1602 56.6414,88.7505 -18.6747,-19.8584 -55.8148,-29.3409 -57.2655,-49.068 -1.65005,13.7974 -1.04485,28.6991 0.36623,39.1813 3.77121,37.1889 63.8493,59.1545 72.6787,85.737 -19.0103,-23.2713 -48.5876,-34.9175 -71.9552,-64.4698 -0.0859,17.5873 0.4235,34.8778 1.99276,51.6388 25.6794,51.0665 53.1593,47.3406 63.4522,79.4435 -16.1921,-29.1552 -50.6143,-41.1183 -65.3304,-67.5128 2.0418,23.7379 -0.36226,31.8036 2.20536,41.4712 12.0113,24.3281 19.8734,29.2918 23.7742,61.3313 -8.24485,-17.9053 -19.1792,-39.8699 -27.5091,-55.442 -0.52696,23.6393 -1.91906,29.9472 -3.55748,44.8311 -0.81354,-16.1541 -0.92494,-19.3677 -1.12904,-50.8686 -15.2555,12.0813 -29.7122,47.0617 -31.0244,54.292 4.85717,-38.5359 31.2472,-53.4595 30.8421,-67.6596 l -0.74126,-32.1319 c -22.2857,17.1349 -47.9832,38.2317 -63.0831,60.3482 1.66904,-23.6302 66.8529,-58.9507 62.3112,-78.6646 0.47793,-17.3883 0.59358,-32.8609 -0.5845,-48.5927 -20.3431,23.5786 -42.4287,24.4332 -72.4944,65.9739 6.12482,-28.9296 69.6836,-55.9772 72.3436,-81.1738 l -0.57572,-37.9769 c -40.6347,41.2804 -33.7295,22.7188 -60.1872,50.5131 2.35871,-18.301 47.6436,-35.1216 56.5688,-56.194 2.89701,-8.07846 6.36265,-14.6696 3.86958,-25.1178 -16.8545,-77.9137 -80.9748,-30.6026 -117.979,-51.1824 28.3391,9.57714 72.5505,-11.1115 87.2606,-0.30954 -1.78554,-9.82574 -20.8715,-26.7389 -29.2811,-33.1532 -24.1348,-20.9962 -89.610796,18.2444 -121.015996,-2.86866 9.89207,1.1537 28.6657,4.85036 45.485296,0.4096 19.0622,-5.03263 40.0011,-12.5439 61.956,-10.9701 l -28.266,-27.6429 c -28.588,-26.9501 -63.162696,9.38183 -117.064996,-19.8672 34.054,15.1053 76.488396,2.2748 100.298996,5.27443 -18.229,-15.3414 -18.7206,-16.5991 -27.372196,-21.6196 -25.6958,-8.709446 -45.3002,-6.659996 -49.6437,-9.437386 19.1495,-0.412158 28.366,-0.514205 46.584,3.72926 -36.7254,-29.6127 -40.1723,-45.942 -45.646,-56.8225 13.1287,19.7374 26.8914,35.5402 52.790196,55.5832 -3.871836,-9.47169 -3.2417,-23.9703 -6.080026,-36.4666 -2.74819,-12.1008 -6.66482,-20.7014 -5.1052,-27.8121 16.790996,44.7304 8.463686,58.3603 18.791196,68.1149 l 25.0005,21.318496 c -10.7606,-35.193296 7.03503,-74.421996 -8.38177,-101.544996 24.3834,14.9879 -6.47348,92.061696 22.9768,112.414996 l 25.7746,26.7038 c -9.31125,-38.0806 3.72614,-18.0876 0.002,-98.130896 12.8333,48.271796 -8.37468,78.320196 9.31663,103.724996 l 33.8451,40.0541 c -4.96659,-51.1246 9.62164,-47.6198 -0.62163,-88.812 15.0044,17.9008 -0.51421,72.5709 8.07506,93.7823 3.66378,7.76098 12.8974,27.6021 22.0482,33.2272 1.20477,0.78199 2.51844,1.44391 4.644,0 z"
   id="path110"
   style="stroke:none" />
 </g>
</svg>
