<?xml version="1.0" encoding="UTF-8" standalone="no"?>
<svg
   xmlns:dc="http://purl.org/dc/elements/1.1/"
   xmlns:cc="http://creativecommons.org/ns#"
   xmlns:rdf="http://www.w3.org/1999/02/22-rdf-syntax-ns#"
   xmlns:svg="http://www.w3.org/2000/svg"
   xmlns="http://www.w3.org/2000/svg"
   xmlns:sodipodi="http://sodipodi.sourceforge.net/DTD/sodipodi-0.dtd"
   xmlns:inkscape="http://www.inkscape.org/namespaces/inkscape"
   width="500"
   height="530"
   viewBox="0 0 132.29166 140.22917"
   version="1.1"
   id="svg847"
   sodipodi:docname="tervo.svg"
   inkscape:version="1.0.2 (e86c870879, 2021-01-15, custom)">
  <defs
     id="defs841" />
  <sodipodi:namedview
     id="base"
     pagecolor="#ffffff"
     bordercolor="#666666"
     borderopacity="1.0"
     inkscape:pageopacity="0.0"
     inkscape:pageshadow="2"
     inkscape:zoom="0.7"
     inkscape:cx="247.33712"
     inkscape:cy="266.44225"
     inkscape:document-units="px"
     inkscape:current-layer="layer1"
     inkscape:document-rotation="0"
     showgrid="false"
     inkscape:snap-smooth-nodes="true"
     inkscape:showpageshadow="false"
     borderlayer="true"
     units="px"
     inkscape:window-width="1920"
     inkscape:window-height="1017"
     inkscape:window-x="-8"
     inkscape:window-y="-4"
     inkscape:window-maximized="1" />
  <metadata
     id="metadata844">
    <rdf:RDF>
      <cc:Work
         rdf:about="">
        <dc:format>image/svg+xml</dc:format>
        <dc:type
           rdf:resource="http://purl.org/dc/dcmitype/StillImage" />
        <dc:title></dc:title>
      </cc:Work>
    </rdf:RDF>
  </metadata>
  <g
     inkscape:label="Layer 1"
     inkscape:groupmode="layer"
     id="layer1"
     transform="translate(-23.727577,-44.100372)">
    <g
       id="g1700"
       transform="matrix(0.94288961,0,0,0.94546381,1.3550913,2.4050664)"
       style="stroke-width:1.05913">
      <path
         style="font-variation-settings:normal;opacity:1;vector-effect:none;fill:#005dbd;fill-opacity:1;stroke:none;stroke-width:0.280227;stroke-linecap:butt;stroke-linejoin:miter;stroke-miterlimit:4;stroke-dasharray:none;stroke-dashoffset:0;stroke-opacity:1;stop-color:#000000;stop-opacity:1"
         d="m 164.03209,44.100372 c 0,0 -5.7796,72.911908 -6.83331,88.902618 -1.05371,15.9907 -5.41937,26.67429 -15.51175,38.48495 -10.09239,11.81068 -27.62363,20.93029 -47.807198,20.93029 -20.183575,0 -37.714815,-9.11961 -47.807195,-20.93029 -10.09237,-11.81066 -14.45805,-22.49425 -15.51176,-38.48495 -1.05371,-15.99071 -6.8333,-88.902618 -6.8333,-88.902618 z"
         id="path857"
         sodipodi:nodetypes="czzzzzcc" />
      <path
         id="path1578"
         style="opacity:1;fill:#00346a;fill-opacity:1;stroke:none;stroke-width:0.280227;stroke-linecap:round;stroke-linejoin:miter;stroke-miterlimit:4;stroke-dasharray:none;stroke-dashoffset:0;paint-order:markers stroke fill"
         d="m 46.410087,170.71206 c 0.16071,0.19219 0.34331,0.40861 0.50709,0.60136 12.88144,-13.87384 21.17826,-37.92016 21.17841,-63.03734 -6e-5,-25.735995 -8.12916,-49.669587 -21.52789,-63.382181 h -1.05833 z"
         sodipodi:nodetypes="cccccc" />
      <path
         id="path861"
         style="opacity:1;fill:#bf9f4f;fill-opacity:1;stroke:none;stroke-width:0.280227;stroke-linecap:round;stroke-linejoin:miter;stroke-miterlimit:4;stroke-dasharray:none;stroke-dashoffset:0;paint-order:markers stroke fill"
         d="m 24.478097,44.893899 c 0,0 5.71787,72.131571 6.76031,87.951221 1.03627,15.72608 5.31285,26.26461 15.17168,37.86694 12.88143,-13.87384 20.62702,-37.3188 20.62716,-62.43598 -6e-5,-25.735995 -8.12915,-49.669587 -21.52788,-63.382181 z m 118.766903,0 c -13.39873,13.712594 -22.13281,37.646186 -22.13287,63.382181 4e-5,25.11736 7.35585,48.56256 20.23738,62.43649 9.85913,-11.60253 14.13592,-22.14114 15.1722,-37.86745 1.04245,-15.81965 6.75979,-87.951221 6.75979,-87.951221 z"
         sodipodi:nodetypes="cscccccccscc" />
      <g
         id="g905"
         transform="translate(3.7e-5,-1.8709772)"
         style="stroke-width:1.05913">
        <path
           id="path1580-4-4"
           style="fill:#00346a;fill-opacity:1;stroke:none;stroke-width:0.280227;stroke-linecap:round;stroke-linejoin:round;stroke-miterlimit:4;stroke-dasharray:none;stroke-dashoffset:0;paint-order:markers stroke fill"
           d="m 89.410111,85.800598 -1.0584,66.867602 0.921468,1.05822 11.193111,-2.6e-4 -1e-5,-67.004172 -1.058397,-0.92154 z"
           sodipodi:nodetypes="ccccccc" />
        <path
           id="rect884"
           style="opacity:1;fill:#bf9f4f;fill-opacity:1;stroke:none;stroke-width:0.280227;stroke-linecap:round;stroke-linejoin:round;stroke-miterlimit:4;stroke-dasharray:none;stroke-dashoffset:0;paint-order:markers stroke fill"
           d="m 88.883459,86.296686 10.524274,0.425223 V 152.66798 H 89.273247 Z"
           sodipodi:nodetypes="ccccc" />
        <path
           id="rect882"
           style="opacity:1;fill:#ffffff;stroke:none;stroke-width:1.05913;stroke-linecap:round;stroke-linejoin:round;stroke-miterlimit:4;stroke-dasharray:none;stroke-dashoffset:0;paint-order:markers stroke fill"
           d="m 333.92773,324.28516 v 252.72851 h 3.48243 V 327.76758 h 38.30468 v -3.48242 z"
           transform="scale(0.26458333)" />
      </g>
      <g
         id="g911"
         transform="translate(-16.441963,28.348214)"
         style="stroke-width:1.05913">
        <path
           id="path1580-4"
           style="fill:#00346a;fill-opacity:1;stroke:none;stroke-width:0.280227;stroke-linecap:round;stroke-linejoin:round;stroke-miterlimit:4;stroke-dasharray:none;stroke-dashoffset:0;paint-order:markers stroke fill"
           d="m 89.410115,98.500597 -1.058409,54.167603 0.921467,1.05822 11.193117,-2.6e-4 V 99.421987 l -1.058407,-0.92154 z"
           sodipodi:nodetypes="ccccccc" />
        <path
           id="path907"
           style="opacity:1;fill:#bf9f4f;fill-opacity:1;stroke:none;stroke-width:0.280227;stroke-linecap:round;stroke-linejoin:round;stroke-miterlimit:4;stroke-dasharray:none;stroke-dashoffset:0;paint-order:markers stroke fill"
           d="m 88.883459,98.996686 10.524274,0.425223 V 152.66798 H 89.273247 Z"
           sodipodi:nodetypes="ccccc" />
        <path
           id="path909"
           style="opacity:1;fill:#ffffff;stroke:none;stroke-width:1.05913;stroke-linecap:round;stroke-linejoin:round;stroke-miterlimit:4;stroke-dasharray:none;stroke-dashoffset:0;paint-order:markers stroke fill"
           d="m 333.92773,372.28516 v 204.72851 h 3.48243 V 375.76758 h 38.30468 v -3.48242 z"
           transform="scale(0.26458333)"
           sodipodi:nodetypes="ccccccc" />
      </g>
      <g
         id="g917"
         transform="translate(16.442037,28.348222)"
         style="stroke-width:1.05913">
        <path
           id="path1580-4-1"
           style="fill:#00346a;fill-opacity:1;stroke:none;stroke-width:0.280227;stroke-linecap:round;stroke-linejoin:round;stroke-miterlimit:4;stroke-dasharray:none;stroke-dashoffset:0;paint-order:markers stroke fill"
           d="m 89.410112,98.500597 -1.058409,54.167603 0.921467,1.05822 11.19311,-2.6e-4 V 99.421987 l -1.058397,-0.92154 z"
           sodipodi:nodetypes="ccccccc" />
        <path
           id="path913"
           style="opacity:1;fill:#bf9f4f;fill-opacity:1;stroke:none;stroke-width:0.280227;stroke-linecap:round;stroke-linejoin:round;stroke-miterlimit:4;stroke-dasharray:none;stroke-dashoffset:0;paint-order:markers stroke fill"
           d="m 88.883459,98.996686 10.524274,0.425223 V 152.66798 H 89.273247 Z"
           sodipodi:nodetypes="ccccc" />
        <path
           id="path915"
           style="opacity:1;fill:#ffffff;stroke:none;stroke-width:1.05913;stroke-linecap:round;stroke-linejoin:round;stroke-miterlimit:4;stroke-dasharray:none;stroke-dashoffset:0;paint-order:markers stroke fill"
           d="m 333.92773,372.28516 v 204.72851 h 3.48243 V 375.76758 h 38.30468 v -3.48242 z"
           transform="scale(0.26458333)"
           sodipodi:nodetypes="ccccccc" />
      </g>
      <g
         id="g923"
         transform="translate(-16.441963,-44.790179)"
         style="stroke-width:1.05913">
        <path
           id="path1580"
           style="opacity:1;fill:#00346a;fill-opacity:1;stroke:none;stroke-width:0.280227;stroke-linecap:round;stroke-linejoin:round;stroke-miterlimit:4;stroke-dasharray:none;stroke-dashoffset:0;paint-order:markers stroke fill"
           d="m 89.41012,98.500595 -1.058409,54.167605 0.921467,1.05822 11.193112,-2.6e-4 V 99.421985 l -1.058407,-0.921538 z"
           sodipodi:nodetypes="ccccccc" />
        <path
           id="path919"
           style="opacity:1;fill:#bf9f4f;fill-opacity:1;stroke:none;stroke-width:0.280227;stroke-linecap:round;stroke-linejoin:round;stroke-miterlimit:4;stroke-dasharray:none;stroke-dashoffset:0;paint-order:markers stroke fill"
           d="m 88.883459,98.996686 10.524274,0.425223 V 152.66798 H 89.273247 Z"
           sodipodi:nodetypes="ccccc" />
        <path
           id="path921"
           style="opacity:1;fill:#ffffff;stroke:none;stroke-width:1.05913;stroke-linecap:round;stroke-linejoin:round;stroke-miterlimit:4;stroke-dasharray:none;stroke-dashoffset:0;paint-order:markers stroke fill"
           d="m 333.92773,372.28516 v 204.72851 h 3.48243 V 375.76758 h 38.30468 v -3.48242 z"
           transform="scale(0.26458333)"
           sodipodi:nodetypes="ccccccc" />
      </g>
      <g
         id="g929"
         transform="translate(16.442037,-44.79018)"
         style="stroke-width:1.05913">
        <path
           id="path1580-9"
           style="fill:#00346a;fill-opacity:1;stroke:none;stroke-width:0.280227;stroke-linecap:round;stroke-linejoin:round;stroke-miterlimit:4;stroke-dasharray:none;stroke-dashoffset:0;paint-order:markers stroke fill"
           d="m 89.410118,98.500595 -1.058409,54.167605 0.921467,1.05822 11.193114,-2.6e-4 V 99.421985 l -1.058407,-0.921538 z"
           sodipodi:nodetypes="ccccccc" />
        <path
           id="path925"
           style="opacity:1;fill:#bf9f4f;fill-opacity:1;stroke:none;stroke-width:0.280227;stroke-linecap:round;stroke-linejoin:round;stroke-miterlimit:4;stroke-dasharray:none;stroke-dashoffset:0;paint-order:markers stroke fill"
           d="m 88.883459,98.996686 10.524274,0.425223 V 152.66798 H 89.273247 Z"
           sodipodi:nodetypes="ccccc" />
        <path
           id="path927"
           style="opacity:1;fill:#ffffff;stroke:none;stroke-width:1.05913;stroke-linecap:round;stroke-linejoin:round;stroke-miterlimit:4;stroke-dasharray:none;stroke-dashoffset:0;paint-order:markers stroke fill"
           d="m 333.92773,372.28516 v 204.72851 h 3.48243 V 375.76758 h 38.30468 v -3.48242 z"
           transform="scale(0.26458333)"
           sodipodi:nodetypes="ccccccc" />
      </g>
      <path
         id="path933"
         style="opacity:1;fill:#ffffff;stroke:none;stroke-width:0.280227;stroke-linecap:round;stroke-linejoin:round;stroke-miterlimit:4;stroke-dasharray:none;stroke-dashoffset:0;paint-order:markers stroke fill"
         d="m 142.25023,44.893899 a 46.080272,74.89981 0 0 0 -21.52788,63.382181 46.080272,74.89981 0 0 0 20.62716,62.43649 c 0.16651,-0.19595 0.32759,-0.39063 0.49093,-0.586 -12.39992,-14.12119 -20.05973,-37.3875 -20.05976,-61.85049 6e-5,-25.411481 8.24955,-49.468096 21.46432,-63.382181 z" />
    </g>
  </g>
</svg>
