<?xml version="1.0" encoding="UTF-8" standalone="no"?>
<svg
   xmlns:dc="http://purl.org/dc/elements/1.1/"
   xmlns:cc="http://creativecommons.org/ns#"
   xmlns:rdf="http://www.w3.org/1999/02/22-rdf-syntax-ns#"
   xmlns:svg="http://www.w3.org/2000/svg"
   xmlns="http://www.w3.org/2000/svg"
   xmlns:sodipodi="http://sodipodi.sourceforge.net/DTD/sodipodi-0.dtd"
   xmlns:inkscape="http://www.inkscape.org/namespaces/inkscape"
   width="500"
   height="570"
   viewBox="0 0 132.29166 150.8125"
   version="1.1"
   id="svg847"
   sodipodi:docname="värtsilä.svg"
   inkscape:version="1.0.2 (e86c870879, 2021-01-15, custom)">
  <defs
     id="defs841" />
  <sodipodi:namedview
     id="base"
     pagecolor="#ffffff"
     bordercolor="#666666"
     borderopacity="1.0"
     inkscape:pageopacity="0.0"
     inkscape:pageshadow="2"
     inkscape:zoom="0.98994949"
     inkscape:cx="241.10887"
     inkscape:cy="157.11462"
     inkscape:document-units="px"
     inkscape:current-layer="layer1"
     inkscape:document-rotation="0"
     showgrid="false"
     inkscape:snap-smooth-nodes="true"
     inkscape:showpageshadow="false"
     borderlayer="true"
     units="px"
     inkscape:window-width="1920"
     inkscape:window-height="1017"
     inkscape:window-x="-8"
     inkscape:window-y="-4"
     inkscape:window-maximized="1" />
  <metadata
     id="metadata844">
    <rdf:RDF>
      <cc:Work
         rdf:about="">
        <dc:format>image/svg+xml</dc:format>
        <dc:type
           rdf:resource="http://purl.org/dc/dcmitype/StillImage" />
        <dc:title></dc:title>
      </cc:Work>
    </rdf:RDF>
  </metadata>
  <g
     inkscape:label="Layer 1"
     inkscape:groupmode="layer"
     id="layer1"
     transform="translate(-37.350907,-47.425492)">
    <g
       id="g1037"
       transform="matrix(1.0060462,0,0,1.0060462,-0.22583053,-0.28420721)"
       style="stroke-width:0.99399">
      <path
         id="path860"
         style="opacity:1;fill:#cccccc;stroke:none;stroke-width:0.262993;stroke-miterlimit:4;stroke-dasharray:none"
         d="M 37.350906,47.42297 H 168.84752 v 84.52154 c 0,36.11092 -29.43652,65.3846 -65.74831,65.3846 -36.311784,0 -65.748304,-29.27368 -65.748304,-65.3846 z"
         sodipodi:nodetypes="cccscc" />
      <path
         style="font-variation-settings:normal;vector-effect:none;fill:#f20d0d;fill-opacity:1;stroke:none;stroke-width:0.131497;stroke-linecap:butt;stroke-linejoin:miter;stroke-miterlimit:4;stroke-dasharray:none;stroke-dashoffset:0;stroke-opacity:1;stop-color:#000000"
         d="m 98.406098,117.47972 c -4.39397,-1.20479 -4.35312,-4.64553 -9.851,-8.57533 -5.54491,-3.9634 -9.2368,-1.09743 -16.79632,-3.33092 -7.55953,-2.23348 -7.40414,-9.69324 -11.33929,-13.394528 -3.93514,-3.701289 -8.26704,-2.232654 -9.99274,-0.779576 0.0709,-1.438924 1.2701,-4.149082 5.5279,-5.173547 4.30425,-1.035639 8.00837,0.566964 10.77232,3.047433 -0.94849,-5.047004 -5.18778,-5.252816 -8.03199,-9.543899 -2.84421,-4.291084 -2.29413,-8.420647 -0.86208,-10.709277 1.43205,-2.28863 2.52452,-2.551581 3.59059,-2.295466 -0.69023,0.690236 -2.41529,3.354074 -0.49737,6.841328 1.91792,3.487254 4.52664,3.339993 9.01679,5.140885 4.5931,1.842189 5.54723,5.745804 6.29704,8.451908 1.13773,-2.878711 1.63023,-5.877666 -2.02432,-10.098835 -3.65455,-4.221168 -0.003,-8.212768 0.73746,-8.869285 0.74035,-0.656517 1.30582,-0.69845 1.927,-0.36894 -0.81256,0.553946 -2.58102,3.311834 -0.31358,5.848599 2.26748,2.536801 5.06315,2.012726 6.43706,6.649671 1.31718,4.445484 0.0916,7.116599 4.06898,9.2962 4.00546,2.195009 5.22151,3.670469 6.024,6.432022 0.98057,-2.433394 0.59523,-3.868127 -1.83079,-8.621672 -2.42602,-4.753544 -0.68942,-7.646536 0.71374,-11.354901 1.40317,-3.708365 0.90203,-7.717408 -1.70384,-9.421251 1.20466,-0.267703 3.11533,-0.356935 4.93638,2.288004 1.96517,2.854287 2.23571,5.638455 2.17552,9.763443 1.70566,-2.705877 2.20499,-4.868518 0.68135,-9.759751 -1.52364,-4.891233 1.11761,-6.686252 2.834082,-9.812296 1.71647,-3.126044 -0.11894,-6.258825 -2.408802,-8.04785 1.38608,-0.198012 5.705822,-0.344832 7.166172,5.011303 1.46035,5.356135 -2.58122,7.666006 0.45101,12.327805 2.55444,3.92725 2.32222,6.599297 1.28672,10.280788 3.44772,-2.721822 1.62313,-6.909155 3.5883,-9.763442 1.82105,-2.644939 3.73172,-2.555707 4.93638,-2.288004 -2.60587,1.703843 -3.10701,5.712886 -1.70384,9.421251 1.40316,3.708365 3.13976,6.601357 0.71374,11.354901 -2.42602,4.753545 -2.81136,6.188278 -1.83079,8.621672 0.80249,-2.761553 2.01854,-4.237013 6.024,-6.432022 3.97738,-2.179601 2.7518,-4.850716 4.06898,-9.2962 1.37391,-4.636945 4.16958,-4.11287 6.43706,-6.649671 2.26744,-2.536765 0.49898,-5.294653 -0.31358,-5.848599 0.62118,-0.32951 1.18665,-0.287577 1.927,0.36894 0.74046,0.656517 4.39201,4.648117 0.73746,8.869285 -3.65455,4.221169 -3.16205,7.220124 -2.02432,10.098835 0.74981,-2.706104 1.70394,-6.609719 6.29704,-8.451908 4.49015,-1.800892 7.09887,-1.653631 9.01679,-5.140885 1.91792,-3.487254 0.19286,-6.151092 -0.49737,-6.841328 1.06607,-0.256115 2.15854,0.0068 3.59059,2.295466 1.43205,2.28863 1.98213,6.418193 -0.86208,10.709277 -2.84421,4.291083 -7.0835,4.496895 -8.03199,9.543899 2.76395,-2.480469 6.46807,-4.083072 10.77232,-3.047433 4.2578,1.024465 5.457,3.734623 5.5279,5.173547 -1.7257,-1.453078 -6.0576,-2.921713 -9.99274,0.779576 -3.93515,3.701288 -3.77976,11.161048 -11.33929,13.394528 -7.55952,2.23349 -11.25141,-0.63248 -16.79632,3.33092 -5.49788,3.9298 -5.45703,7.37054 -9.851,8.57533 z"
         id="use950"
         sodipodi:nodetypes="czsscsczzczsczzcsssczzcsczzczscsczzcsssczzcszczzcscsszcc" />
      <path
         id="path1008"
         style="font-variation-settings:normal;vector-effect:none;fill:#a00909;fill-opacity:1;stroke:none;stroke-width:0.496996;stroke-linecap:butt;stroke-linejoin:miter;stroke-miterlimit:4;stroke-dasharray:none;stroke-dashoffset:0;stroke-opacity:1;stop-color:#000000"
         d="m 386.66211,195.10156 c 4.36953,3.63162 8.42866,9.18661 10.68359,17.45703 5.51944,20.24366 -10.46141,28.42399 1.70508,47.12891 10.2494,15.75763 8.36487,25.77906 4.45117,39.69336 1.11379,-0.87223 1.95906,-1.48838 2.41211,-1.92578 3.9137,-13.9143 4.7913,-24.01232 -4.86328,-38.85547 -11.4604,-17.6194 3.81436,-26.35009 -1.70508,-46.59375 -2.59616,-9.52195 -7.58391,-14.44121 -12.68359,-16.9043 z m -41.59375,56.32422 c -0.30637,0.004 -0.60556,0.0209 -0.90039,0.041 4.0446,0.28249 8.87103,2.29941 13.54492,9.08789 7.42741,10.78785 9.20771,22.25769 8.0332,39.93164 0.38218,-0.60629 1.9816,-2.41037 2.33203,-3.03125 0.22749,-15.59051 -0.79328,-26.11254 -8.2207,-36.90039 -5.16203,-7.49747 -10.51459,-9.18202 -14.78906,-9.12891 z m 91.53906,0.20703 c -12.3866,7.9952 -12.20461,23.34349 -7.29297,36.32422 5.30329,14.01587 11.67703,23.91666 2.50782,41.88281 -9.16921,17.96616 -10.95936,25.33813 -4.79102,34.72461 0.11565,-0.3974 0.32406,-1.1473 0.43945,-1.54687 -3.70609,-9.19708 -2.24928,-14.61979 6.91992,-32.58594 9.16921,-17.96615 2.60602,-28.90015 -2.69726,-42.91602 -5.30332,-14.01586 -3.4095,-29.16965 6.43945,-35.60937 -0.47535,-0.10564 -0.99528,-0.1935 -1.52539,-0.27344 z m 112.85742,0.25391 c -0.7703,0.006 -1.52772,0.11928 -2.2832,0.30078 5.63637,0.63915 10.12946,5.46613 13.13086,12.1875 3.00144,6.72137 5.99322,19.95835 -5.95508,36.37305 -11.94829,16.41469 -27.98678,16.39049 -29.10937,39.06445 0.58503,-1.00724 1.16496,-1.61915 1.88867,-2.40234 3.58484,-19.07529 19.60765,-19.85205 30.35742,-36.07032 10.74977,-16.21827 8.67029,-31.82662 3.25781,-40.47656 -4.39763,-7.02819 -7.94914,-9.00269 -11.28711,-8.97656 z m -22.32812,85.52344 c 0.79196,-0.6834 1.63152,-1.38004 2.45703,-2.07422 -0.83701,0.67311 -1.66075,1.3596 -2.45703,2.07422 z M 287.97266,255.57422 c -0.41589,-0.0114 -0.8391,0.055 -1.26758,0.16211 1.61339,-0.0666 3.07532,0.17864 3.86523,0.59765 -0.88041,-0.46702 -1.7305,-0.73604 -2.59765,-0.75976 z m 2.59765,0.75976 c -5.85635,2.16894 -11.84462,13.12506 -2.38086,23.7129 9.46376,10.58784 18.36762,7.82374 23.25782,24.32812 4.68826,15.82291 0.34628,27.43401 15.3789,35.67188 15.13875,8.29609 20.26887,13.08551 24.10547,25.93359 0.37361,-0.92715 0.6832,-1.96847 0.92969,-2.96289 -3.03303,-10.43737 -7.62883,-16.01445 -22.76758,-24.31055 -15.03262,-8.23786 -10.40059,-18.33294 -15.37891,-35.13476 -5.19273,-17.52547 -15.76007,-15.54491 -24.33007,-25.13282 -8.56986,-9.58777 -1.88555,-20.01181 1.18554,-22.10547 z m 200.79102,-0.75976 c -0.0903,0.002 -0.17955,0.0255 -0.26953,0.0332 1.47677,0.73605 3.02242,1.95574 4.36523,3.14649 2.54536,2.25682 14.05412,17.54598 1.10742,32.5 -12.94669,14.95402 -13.11758,28.75376 -5.87109,40.4375 0.15496,-0.93749 0.33593,-1.65651 0.48828,-2.27344 -4.30008,-10.88017 -6.16208,-22.21395 7.65039,-38.16797 13.81247,-15.95402 0.0115,-31.04016 -2.78711,-33.52148 -1.74886,-1.55083 -3.23834,-2.19384 -4.68359,-2.1543 z m -277.18164,20.49023 c -0.29765,7.52366 1.71345,16.30355 7.66015,25.27539 10.74977,16.21827 26.77258,16.99503 30.35743,36.07032 0.70453,0.81001 1.32119,1.55636 2.01757,2.42968 -1.80749,-23.2661 -17.72565,-23.22542 -29.29492,-38.03906 -6.15641,-7.88286 -9.62979,-17.31854 -10.74023,-25.73633 z m 358.0664,60.4961 c -7.45413,-0.0414 -15.835,2.732 -23.27148,9.72656 -14.87301,13.98912 -13.90511,41.04678 -42.47656,49.48828 -28.57142,8.44154 -42.27884,-2.72887 -64.24024,12.96875 -21.7751,15.56451 -21.03208,28.04131 -40.85351,35.27344 h 6 c 16.60713,-4.55354 16.45303,-17.55737 37.23242,-32.41016 20.95714,-14.97978 34.91101,-4.1483 63.48242,-12.58984 28.57145,-8.4415 27.98246,-36.63588 42.85547,-50.625 14.87297,-13.98913 31.2472,-8.43726 37.76953,-2.94531 -0.0511,-1.03687 -0.2602,-2.24988 -0.67187,-3.5586 -3.8508,-3.22657 -9.50157,-5.29297 -15.82618,-5.32812 z m -363.65625,0.0254 c -6.6692,-0.0232 -12.75928,2.85321 -17.56836,6.17773 -0.24687,0.97162 -0.39224,1.88413 -0.43164,2.6836 6.52233,-5.49195 22.89461,-11.04382 37.76758,2.94531 3.11372,2.92867 5.54498,6.48537 7.71289,10.34765 -2.6883,-5.43845 -5.60671,-10.4855 -9.71289,-14.34765 -6.04214,-5.68308 -12.11023,-7.78693 -17.76758,-7.80664 z m 37.38477,41.57617 c 5.14423,8.92503 12.11228,16.97679 25.24023,20.85547 28.57142,8.44154 42.52529,-2.38994 63.48243,12.58984 20.77938,14.85279 20.62333,27.85662 37.23046,32.41016 h 4.55386 c -16.60713,-4.55354 -17.76842,-18.3844 -39.54953,-33.9532 -21.96744,-15.70193 -39.1458,-5.46855 -67.71722,-13.91008 -11.5037,-3.3988 -18.27809,-10.18546 -23.24023,-17.99219 z"
         transform="scale(0.26458333)"
         sodipodi:nodetypes="cssccsscccsccsscssccssccscssccssscscsccscsssccssscsccsccscscsccccssssccsssccssccscsscssccsscs" />
      <path
         id="path913"
         style="fill:#000000;stroke:none;stroke-width:0.262993;stroke-miterlimit:4;stroke-dasharray:none"
         d="m 122.78437,152.09516 c 0,-7.30397 5.70014,-12.46884 12.21562,-15.06765 6.51548,-2.59881 11.24001,-3.82817 18.83947,-4.39397 V 117.28719 H 44.541332 c 2.409598,4.69321 4.615989,7.2733 8.951563,10.95237 4.335574,3.67907 11.04832,6.89785 17.705541,9.78014 6.657221,2.88229 12.21562,6.77149 12.21562,14.07546 0,7.30397 -6.5283,12.62362 -15.029082,13.22498 l -2e-6,15.34635 h 69.428318 l 8e-5,-15.34635 c -8.5007,-0.60136 -15.029,-5.92101 -15.029,-13.22498 z"
         sodipodi:nodetypes="zzccczzzccccz" />
    </g>
  </g>
</svg>
