<?xml version="1.0" encoding="UTF-8" standalone="no"?>
<!-- Created with Inkscape (http://www.inkscape.org/) -->

<svg
   width="500"
   height="570"
   viewBox="0 0 132.29166 150.8125"
   version="1.1"
   id="svg5"
   xml:space="preserve"
   xmlns="http://www.w3.org/2000/svg"
   xmlns:svg="http://www.w3.org/2000/svg"><defs
     id="defs2" /><path
     id="path2682"
     style="font-variation-settings:normal;vector-effect:none;fill:#cccccc;fill-opacity:1;stroke:none;stroke-width:0.132292;stroke-linecap:butt;stroke-linejoin:miter;stroke-miterlimit:4;stroke-dasharray:none;stroke-dashoffset:0;stroke-opacity:1;-inkscape-stroke:none;stop-color:#000000"
     d="M 11.493636,123.25394 C 5.327951,113.44995 1.303424,100.40611 1.079845,83.185299 L 0,0 h 132.29167 l -1.07986,83.185299 c -0.22358,17.220811 -4.24811,30.264651 -10.41379,40.068641 l -26.984673,22.26675 c -9.62189,3.91752 -19.54172,5.29181 -27.66752,5.29181 -8.12581,0 -18.045616,-1.37429 -27.667508,-5.29181 z" /><path
     id="path4963"
     style="font-variation-settings:normal;vector-effect:none;fill:#e90606;fill-opacity:1;stroke:none;stroke-width:0.132292;stroke-linecap:butt;stroke-linejoin:miter;stroke-miterlimit:4;stroke-dasharray:none;stroke-dashoffset:0;stroke-opacity:1;-inkscape-stroke:none;stop-color:#000000"
     d="m 113.40086,96.510209 c 0,0 3.76819,-2.23902 5.84816,-5.14731 2.07997,-2.90832 2.01438,-5.52466 2.05362,-7.92205 0.0393,-2.39739 1.8445,-3.89083 3.00222,-7.11356 1.15772,-3.22272 0.0707,-5.30709 -1.40098,-9.45339 -1.47167,-4.14632 -0.42296,-5.86608 0.65627,-6.92722 0,0 -3.36272,-0.51394 -4.5235,3.03438 -1.13732,3.47661 1.79505,6.37022 1.28487,9.63224 -0.51019,3.26203 -3.13958,4.44107 -3.13958,4.44107 0,0 2.39932,-2.84607 1.5872,-6.83881 -0.82382,-4.05021 -1.74836,-4.88046 -2.74911,-8.00491 -1.00074,-3.12447 1.98605,-6.22187 1.88794,-9.97516 -0.0981,-3.7533 -1.53979,-4.75424 -2.08926,-7.84946 -0.54946,-3.09523 0.95328,-6.444236 -0.54499,-9.330831 -1.49828,-2.886595 -3.66569,-4.672486 -7.4362,-3.717642 5.83105,4.039574 2.5007,6.901837 2.12623,11.036053 -0.34421,3.80013 1.80212,5.40116 -0.17974,9.27236 -1.98186,3.87119 -3.56768,6.43541 -3.27334,10.97473 0.29434,4.53931 2.21373,4.84411 1.68394,9.9926 0,0 0.18636,-2.62086 -2.04369,-4.86031 -2.23005,-2.23943 -3.65264,-3.08682 -5.10603,-5.22457 0,0 -0.6105,2.80682 0.83245,5.08562 1.44301,2.27881 2.91419,3.27559 2.35876,8.11478 -0.55542,4.83919 -0.50693,6.78665 0.88429,10.14639 1.93998,3.89701 4.28647,7.61955 8.28047,10.635 z M 94.284007,71.956889 c 0,0 3.79689,-1.99752 4.08924,-7.19993 0.29236,-5.20242 0.81268,-6.59388 3.123463,-9.33694 2.3108,-2.74308 3.22062,-7.89651 2.47698,-10.43506 -0.74364,-2.53856 -2.00454,-4.117606 -1.00656,-7.233252 -3.686493,-0.327289 -3.637953,3.844122 -3.226573,6.796362 0.427193,3.06566 -0.77559,3.84865 -1.99802,6.03051 -0.92187,1.6454 -1.43407,2.69702 -2.05351,2.69566 0,0 1.25499,-1.87757 1.42675,-4.18204 0.17162,-2.30243 -1.26025,-6.51724 -2.398,-8.935005 -1.13777,-2.417759 0.39145,-3.982629 1.91476,-7.920244 1.31402,-3.396674 -1.54494,-5.355788 -2.16453,-7.892455 -0.61959,-2.536669 0.9886,-5.818203 -0.9435,-8.364891 -1.93209,-2.546689 -5.97072,-3.498951 -7.83379,-1.091787 4.35299,1.462294 3.93547,4.729084 3.17193,7.952383 -0.82158,3.468336 -2.12498,4.580014 -0.85468,7.499259 1.63403,3.755081 0.23717,3.575249 -1.22202,6.710436 -1.48976,3.200892 0.3734,8.877704 0.3734,8.877704 -0.8385,-1.76217 -1.13655,-2.70874 -3.24024,-3.77689 -2.10368,-1.06815 -3.08407,-3.02091 -3.08407,-3.02091 -0.80349,5.29721 2.14862,5.93445 2.94229,8.51859 0.81152,2.64217 1.10582,3.56526 0.57602,5.943 -0.52981,2.37774 -0.28703,4.76874 0.35685,6.06887 2.79455,4.42395 5.23249,9.14006 9.57381,12.29663 z M 18.89081,96.510209 c 0,0 -3.768192,-2.23902 -5.848165,-5.14731 -2.079971,-2.90832 -2.01437,-5.52466 -2.053615,-7.92205 -0.03924,-2.39739 -1.844503,-3.89083 -3.002224,-7.11356 -1.15772,-3.22272 -1.23621,-5.16814 0.23547,-9.31444 1.471676,-4.14631 -0.470939,-6.5044 -1.550169,-7.56554 0,0 2.649021,-0.51093 4.473901,3.47818 1.824881,3.9891 0.313958,6.42579 0.82414,9.68781 0.510182,3.26203 3.139581,4.44107 3.139581,4.44107 0,0 -2.335063,-3.18343 -2.197706,-7.97821 0.137356,-4.79478 1.942614,-6.13102 2.943355,-9.25548 1.000742,-3.12447 -1.569789,-3.8319 -1.471677,-7.58519 0.09811,-3.7533 1.942614,-5.67907 2.72751,-10.10048 0.784895,-4.421417 -0.353203,-8.174707 -4.061832,-11.220571 0,0 2.47242,-1.198694 5.160685,1.729264 2.688266,2.927959 3.826363,5.679064 3.257314,9.452007 -0.569048,3.77294 -0.941875,5.67906 1.039986,9.55026 1.98186,3.87119 3.571273,5.60045 3.276937,10.13978 -0.294336,4.53931 -2.217329,5.67906 -1.687524,10.82755 0,0 -0.204092,-2.5815 2.043677,-4.86031 2.247768,-2.2788 3.302277,-5.08562 3.302277,-5.08562 0,0 1.498513,1.61184 0.0555,3.89064 -1.443013,2.27881 -1.998437,4.33162 -1.443013,9.17081 0.555425,4.83919 0.506935,6.78665 -0.884291,10.14639 -2.13694,4.481 -5.297118,7.42492 -8.280112,10.635 z m 19.116502,-24.55332 c 0,0 -3.796894,-1.99752 -4.089248,-7.19993 -0.292355,-5.20242 -1.103649,-7.40175 -2.449567,-10.17658 -1.345917,-2.77482 -3.524891,-4.27436 -3.801781,-6.72526 -0.238775,-2.11352 1.30426,-3.02914 1.30426,-3.02914 0,0 0.111002,3.08472 2.192269,4.11296 2.081267,1.02825 3.366336,1.31776 4.107034,3.30706 0.733339,1.96953 1.581764,1.58405 1.581764,1.58405 0,0 -1.554014,-2.69567 -1.692765,-6.08609 -0.138751,-3.39042 0.249754,-5.1968 1.387513,-7.614555 1.137759,-2.417759 -0.25065,-3.583016 -1.498513,-6.808632 -1.076435,-2.782485 0.305253,-5.947131 1.248761,-9.809988 0.943507,-3.862857 -0.832508,-7.53118 -5.161544,-9.393133 0,0 2.085686,-1.498046 5.225266,-0.06354 3.13958,1.434504 5.749356,4.617922 5.513888,8.174706 -0.235469,3.556782 -1.295077,4.460716 0.549426,7.054613 1.844504,2.593897 3.433916,3.379926 3.747873,6.897407 0.313958,3.517482 -1.039985,9.746762 -1.039985,9.746762 0,0 1.039985,-3.24237 3.767496,-4.16595 2.727511,-0.923588 3.139581,1.92576 3.139581,1.92576 0,0 -3.335805,-0.13754 -4.218812,2.84937 -0.883006,2.98691 -0.41207,4.67687 0.117734,7.05461 0.529804,2.37774 0.287023,4.76874 -0.356861,6.06887 -2.928808,4.36172 -5.657086,8.92425 -9.573789,12.29663 z m 20.753535,-26.29721 c 0,0 -2.9966,-2.2683 -3.95441,-6.475145 -0.95681,-4.202496 -0.97125,-7.114327 -1.887012,-10.504747 -0.871703,-3.227301 -2.553021,-3.640534 -3.468778,-4.168551 0,0 1.868561,-1.535344 4.71754,-0.666968 2.84898,0.868376 4.57157,4.138822 4.91179,6.475149 0.34022,2.336324 1.49851,3.001355 1.49851,3.001355 0,0 -1.72051,-3.807276 0.38851,-6.975373 2.10901,-3.168098 1.24876,-4.390874 0.0832,-6.58631 -1.16551,-2.195436 0.74926,-4.835518 2.24777,-7.781293 1.49851,-2.945775 -0.52725,-6.419567 -4.21803,-6.558519 0,0 2.91184,-2.643431 6.38255,-0.639178 3.47072,2.004253 3.23076,5.721552 2.69177,8.42047 -0.52724,2.640082 -0.029,4.444371 1.22101,6.975376 1.27652,2.5845 0.58276,4.835518 0.13876,8.086987 -0.44401,3.251469 -0.0556,4.696566 -0.0556,4.696566 0,0 0.33378,-4.780703 2.99704,-7.447809 2.33508,-2.338475 5.07828,-1.139405 5.55004,-4.8911 0,0 2.02564,2.219354 0.86031,5.002261 -1.16535,2.782907 -4.4197,3.358756 -4.55105,5.83597 -0.13134,2.477214 1.25314,3.708129 0.36076,7.281066 -0.93847,3.757503 -3.10802,5.974933 -3.10802,5.974933 z" /><path
     style="color:#000000;fill:#9f0404;fill-opacity:1;stroke-width:1;-inkscape-stroke:none"
     d="m 66.919027,11.407622 c -0.43079,2.667024 -0.83551,4.747517 -0.0708,7.528337 0.37777,1.373936 0.76657,2.332558 1.05088,3.196362 0.2843,0.863805 0.46923,1.628772 0.46923,2.689742 0,1.02742 -0.34738,2.008682 -0.67452,3.115597 -0.32713,1.106914 -0.62574,2.34041 -0.4619,3.837592 0.3056,2.792697 -0.34948,5.868971 -0.34948,5.868971 l 0.64764,0.139505 c 0,0 0.68156,-3.134138 0.35925,-6.079453 -0.15012,-1.371819 0.1195,-2.49647 0.43991,-3.58061 0.3204,-1.084138 0.7014,-2.128142 0.7014,-3.301602 0,-1.139911 -0.2089,-2.002839 -0.50345,-2.897773 -0.29455,-0.894936 -0.67324,-1.826683 -1.04111,-3.164547 -0.72667,-2.642776 -0.34456,-4.568911 0.088,-7.246882 0.24519,-1.806343 -0.17054,-3.269046 -1.54335,-4.454347 0.7482,1.398735 1.0893,3.017596 0.88835,4.349108 z m 26.0521,6.319299 c 0.35587,1.235782 0.27626,2.648589 0.0856,3.737248 -0.4078,2.327874 0.30187,3.930468 1.2855,5.939948 0.93203,1.904093 0.75563,3.935079 -0.35681,6.316853 -0.56707,1.214093 -1.14086,2.3649 -1.37837,3.590401 -0.23752,1.2255 -0.1155,2.528135 0.6843,3.945278 1.45114,2.57112 1.26839,6.20428 1.26839,6.20428 0,0 0.91831,-3.6773 -0.69163,-6.52978 -0.73071,-1.294656 -0.82478,-2.389394 -0.61099,-3.492505 0.21381,-1.103109 0.75846,-2.213615 1.32949,-3.436211 1.16375,-2.491602 1.37969,-4.784902 0.34949,-6.889556 -0.97862,-1.999266 -1.60392,-3.381184 -1.22685,-5.533671 0.20173,-1.151521 0.2994,-2.648246 -0.10023,-4.035837 -0.39958,-1.387589 -1.33499,-2.671606 -3.20764,-2.939383 1.46317,0.832664 2.21389,1.887156 2.56976,3.122935 z m -52.781173,3.546348 c -0.116444,2.993219 -0.632804,4.577291 0.44968,7.628683 0.55418,1.562166 1.492521,2.580735 2.282614,3.666271 0.790094,1.085539 1.453506,2.230057 1.586099,4.145971 0.269527,3.894495 -0.377584,9.330885 -0.377584,9.330885 0,0 1.317341,-5.332996 1.037441,-9.377389 -0.142118,-2.05353 -0.891799,-3.363445 -1.710738,-4.488612 -0.81894,-1.125169 -1.686762,-2.072656 -2.19219,-3.497399 -1.036732,-2.922424 -0.532038,-4.324737 -0.413021,-7.38394 0.122851,-3.157806 -1.940466,-5.003798 -1.940466,-5.003798 0,0 1.390779,2.084714 1.278165,4.979328 z m 26.157153,8.546475 c 0.024,-1.243636 0.19562,-2.770825 0.72584,-3.869409 1.23785,-2.564755 -0.8859,-5.175122 -0.8859,-5.175122 0,0 1.32798,2.734905 0.28963,4.886324 -0.60788,1.2595 -0.76684,2.854664 -0.79183,4.145969 -0.025,1.291308 0.42402,2.246754 0.42402,2.246754 0,0 0.21421,-0.990881 0.23824,-2.234516 z m 9.21848,-1.774398 c 0,0 2.97015,-1.459362 2.1983,-3.852277 -0.26171,1.890942 -2.1983,3.852277 -2.1983,3.852277 z m -16.11272,7.379045 c -0.0785,-2.751369 -0.12962,-4.098513 -1.35881,-6.997243 -1.27929,-3.016883 -4.23041,-3.329748 -4.23041,-3.329748 0,0 2.46555,0.868053 3.61943,3.589177 1.20398,2.839281 1.22901,4.006564 1.30749,6.757393 0.0825,2.893379 2.25451,5.334205 2.25451,5.334205 0,0 -1.51777,-2.74496 -1.59221,-5.353784 z m 14.79545,1.429308 c -0.1582,-1.544665 -0.38016,-2.918863 -0.34704,-4.155761 0.0332,-1.236898 0.30371,-2.325414 0.87981,-3.590401 -1.1899,0.975196 -1.50655,2.2433 -1.5421,3.570822 -0.0355,1.327521 0.19371,2.723023 0.34947,4.243868 0.29626,2.892844 -1.61175,5.961982 -1.61175,5.961982 0,0 2.60324,-2.79233 2.27161,-6.03051 z m -2.42681,-0.03671 c 0.0379,1.575089 -0.33025,2.760874 -0.70385,3.551242 -0.37359,0.790368 -0.73561,1.164988 -0.73561,1.164988 l 0.47901,0.45767 c 0,0 0.44408,-0.47109 0.85537,-1.341202 0.41128,-0.870115 0.80796,-2.160451 0.76738,-3.847382 -0.0774,-3.220988 0.13931,-5.574055 0.13931,-5.574055 0,0 -0.88107,2.285688 -0.80161,5.588739 z m -30.044231,1.053627 c 0,0 0.902294,-3.332176 -1.452906,-5.697649 1.451538,2.665108 1.452906,5.697649 1.452906,5.697649 z m 22.564641,-5.620558 c 0,0 -0.0954,2.287908 0.74662,3.970978 -0.17831,-1.775456 -0.41791,-4.005242 -0.74662,-3.970978 z m -44.480424,7.596864 c -0.274453,3.180387 -0.218731,5.883657 -0.218731,5.883657 0,0 0.603612,-2.64092 0.878586,-5.827362 0.288829,-3.346991 -2.212963,-5.764956 -2.212963,-5.764956 0,0 1.813705,2.688821 1.553108,5.708661 z m 94.784697,0.658363 c -0.5401,2.246684 -0.18829,6.148414 0.76494,8.306624 0.8289,1.87674 0.54683,5.7023 -0.85292,8.31642 -1.50209,2.80523 -1.3313,5.75378 -0.30305,9.67475 0.49942,1.90436 0.7452,4.34056 0.72096,6.57873 -0.0243,2.23817 -0.33303,4.29231 -0.55722,5.51899 0.91391,-1.13142 1.1947,-3.22034 1.21952,-5.51165 0.0248,-2.29131 -0.22199,-4.76846 -0.74295,-6.75495 -1.01245,-3.86072 -1.1552,-6.57422 0.24684,-9.1926 1.50435,-2.80947 1.85127,-6.68585 0.87492,-8.89646 -0.85205,-1.92913 -1.20857,-5.88779 -0.72829,-7.885664 0.2639,-1.96424 -0.36353,-3.644805 -1.57632,-5.146976 0.41366,1.593028 1.28025,3.402046 0.93357,4.992786 z m -74.820378,7.207724 c 0.705908,-4.04519 1.149894,-6.21189 0.654968,-7.916256 -0.180966,1.596946 -0.600591,3.752786 -1.307493,7.803676 -0.725473,4.15732 0.915246,8.66396 0.915246,8.66396 0,0 -0.950057,-4.6126 -0.262721,-8.55138 z m 62.644798,0.26187 c 0.0384,2.65458 -0.59488,4.9122 -2.558773,7.45737 -2.06597,2.67747 -2.58246,5.98873 -2.66142,9.94397 -0.0747,3.73938 -3.1612,5.19348 -3.1612,5.19348 0,0 3.7412,-1.06033 3.82351,-5.18125 0.0779,-3.90503 0.5851,-7.03959 2.522113,-9.54992 2.03906,-2.64262 2.73814,-5.10196 2.69808,-7.87099 -0.0404,-2.78632 -0.97288,-4.75562 -1.11565,-6.83449 -0.53521,2.2443 0.41514,4.20457 0.45334,6.84183 z m -55.906933,5.56061 c 1.134405,3.52172 0.04033,6.97276 0.04033,6.97276 0,0 1.810486,-3.38758 0.590206,-7.17591 -1.147837,-3.56344 -0.485157,-6.9976 0.311598,-8.54403 -1.557928,1.44048 -2.148974,5.00054 -0.942129,8.74718 z m 42.31879,-0.70727 c 0.74566,-3.85811 -2.56367,-6.82228 -2.56367,-6.82228 0,0 2.58075,3.24545 1.91359,6.69741 -0.71849,3.71756 0.01,7.3338 0.01,7.3338 0,0 -0.0541,-3.61644 0.6403,-7.20893 z m 3.80768,9.69183 c 0.32442,-2.23358 0.0445,-5.34122 0.0831,-7.38883 0.0174,-0.92376 0.57887,-2.24081 0.93601,-3.74705 0.35714,-1.50622 0.48328,-3.24583 -0.75763,-4.86796 0.56435,1.75779 0.45427,3.28222 0.11487,4.71378 -0.33943,1.43156 -0.93371,2.72978 -0.95557,3.88899 -0.0398,2.11836 0.22774,5.21605 -0.0757,7.30562 -0.30181,2.07795 -1.04477,3.7042 -1.04477,3.7042 0,0 1.37363,-1.36354 1.69974,-3.60875 z m -72.393638,-9.70901 c 1.063851,1.88491 2.530394,2.8094 3.181974,6.18713 0.655912,3.40025 0.237477,6.06585 -1.24884,10.92295 -1.518474,4.96219 -0.632179,9.51461 0.261499,12.81482 0.861124,3.17999 0.707513,7.38884 0.707513,7.38884 0,0 0.845236,-4.18408 -0.06965,-7.56261 -0.882336,-3.25832 -1.730511,-7.66067 -0.266387,-12.44525 1.496282,-4.88967 1.944353,-7.72673 1.265947,-11.24355 -0.682744,-3.5393 -2.278416,-4.65703 -3.255292,-6.38784 -0.938364,-1.66259 -0.821153,-4.53511 -1.152304,-4.55347 0,0 -0.526817,2.92583 0.575542,4.87898 z m 23.69373,9.01884 c 0.07007,-1.71435 -0.106272,-3.56538 -0.821155,-4.93405 -0.614803,-1.17706 -0.62894,-2.70827 -0.466787,-3.94529 0.162152,-1.237 0.173518,-2.26755 0.173518,-2.26755 0,0 -0.657059,0.87413 -0.828487,2.18189 -0.171427,1.30777 -0.184299,2.96179 0.535217,4.33932 0.619433,1.18592 0.815117,2.95038 0.747837,4.5963 -0.06728,1.64594 -0.401887,3.1926 -0.415465,4.01382 0.692833,-0.71157 1.005245,-2.27011 1.075322,-3.98444 z m -5.379051,-0.84192 c 0.232936,-1.5905 -0.370585,-3.23201 -1.009336,-4.48617 -0.638752,-1.25417 -1.593431,-1.92859 -1.593431,-1.92859 0,0 0.397179,1.03726 1.004448,2.22962 0.607269,1.19235 1.142106,2.73256 0.94335,4.08967 -0.451657,3.08395 1.269613,6.41598 1.269613,6.41598 0,0 -1.026369,-3.50924 -0.614644,-6.32051 z m 56.442149,-1.59569 c 0.11475,1.70419 -0.1245,3.30637 -0.52054,4.61099 -0.39607,1.30461 -0.96012,2.31474 -1.18897,3.02992 0.83076,-0.38525 1.40368,-1.45887 1.82193,-2.83658 0.41827,-1.37772 0.67062,-3.05721 0.54989,-4.85083 -0.0154,-1.49721 -0.12288,-3.10421 0.33603,-4.65382 -1.02405,1.24907 -1.0861,3.28585 -0.99834,4.70032 z m 16.203143,1.77684 c 0.0777,-1.64066 0.003,-3.44983 0.61098,-5.1017 -1.126,1.35291 -1.2972,3.56542 -1.27328,5.11639 0.0793,3.85602 1.23418,7.18569 1.23418,7.18569 0,0 -0.4943,-3.43193 -0.57188,-7.20038 z m -91.573343,9.17302 c -1.188229,3.4057 -1.329728,11.00762 -0.361699,14.96613 0.94766,3.87519 1.747782,5.41188 1.969793,6.87734 0.457481,-1.67867 -0.390957,-3.20851 -1.327044,-7.03637 -0.915716,-3.7446 -0.743374,-11.47089 0.344592,-14.58923 1.189988,-3.41076 -0.312821,-7.57608 -0.312821,-7.57608 0,0 0.773332,4.24494 -0.312821,7.35821 z m -8.859231,0.78075 c -0.255346,4.17671 1.406718,6.23302 3.291951,8.59297 1.833998,2.29581 3.255291,5.4064 3.255291,5.4064 0,0 -0.797154,-3.39148 -2.737182,-5.82002 -1.888793,-2.36441 -3.391913,-4.14413 -3.147759,-8.13775 0.126491,-2.06901 -0.04084,-3.38807 -0.570653,-4.12272 -0.13437,0.81465 0.03161,2.06493 -0.09164,4.08112 z m 111.591484,0.66102 c 0.60496,2.61266 0.0572,5.85889 -1.2073,7.75841 -1.37476,2.06512 -1.7402,4.10516 -2.09442,6.98254 -0.17477,1.41955 -0.52811,3.447 -1.43703,5.08825 -0.90892,1.64125 -2.31617,2.8937 -4.74847,3.24408 2.66953,0.31108 4.34316,-1.14549 5.32779,-2.92346 0.98464,-1.77798 1.33679,-3.87864 1.51523,-5.3281 0.35216,-2.86061 0.69301,-4.75011 1.9869,-6.69375 1.40408,-2.10921 1.95348,-5.46631 1.3026,-8.27725 -0.61822,-2.67015 -0.98861,-5.19105 -0.98861,-5.19105 0,0 -0.29417,2.58687 0.34331,5.34033 z m -95.38346,8.01027 c 0.45939,4.2487 -1.141306,7.57851 -1.141306,7.57851 0,0 2.285283,-3.17206 1.801163,-7.64949 -0.471313,-4.35901 -0.779277,-8.1466 0.141747,-11.05267 -1.631996,2.87432 -1.273797,6.75649 -0.801604,11.12365 z m 85.94756,0.31075 c -0.25322,-1.56267 -0.17018,-3.4283 -0.0415,-5.11515 0.12863,-1.68687 0.30878,-3.17096 -0.12834,-4.06644 -0.24089,0.7945 -0.40181,2.31379 -0.53157,4.01504 -0.12973,1.70125 -0.22117,3.60768 0.0489,5.27424 0.50479,3.11526 0.18663,6.20945 -0.38125,9.26112 1.2274,-2.94128 1.55668,-6.14177 1.03377,-9.36881 z m -4.13271,-3.9538 c 0,0 0.55947,4.79411 0.23461,8.52691 1.24494,-4.0882 -0.23461,-8.52691 -0.23461,-8.52691 z m -84.859963,5.85065 c 0.680336,2.94329 0.373239,5.25358 0.266385,6.59462 0.781142,-1.27123 1.085981,-3.68452 0.378801,-6.74392 -0.681685,-2.94914 -0.73928,-5.04052 -0.73928,-5.04052 0,0 -0.611731,2.13624 0.0941,5.18982 z m 89.764903,3.5806 c 0.65657,4.22447 -2.00157,7.19303 -2.00157,7.19303 0,0 3.50347,-2.41747 2.00157,-7.19303 z"
     id="path5090" /><path
     id="path5051"
     style="color:#000000;fill:#ffffff;stroke-width:1;-inkscape-stroke:none"
     d="m 63.770157,6.197083 c 0.88971,1.115231 1.23005,2.3592 1.08115,3.847112 -0.14891,1.487911 -0.81672,3.186413 -1.73035,4.770522 -1.97905,3.431354 0.56214,7.454784 0.84319,7.279791 0,0 -2.00783,-3.933554 -0.26835,-6.949539 0.94562,-1.639561 1.65242,-3.40318 1.81571,-5.034724 0.16327,-1.631542 -0.24454,-3.166447 -1.74135,-3.913162 z m 24.06003,8.837802 c 1.56689,0.909474 2.42914,1.867823 2.46879,4.00123 0.34866,-2.015828 -0.41522,-3.760453 -2.46879,-4.00123 z m -50.78283,2.723608 c 0.851137,1.755552 1.168811,3.346009 1.031356,5.05156 -0.137451,1.705554 -0.746596,3.518815 -1.505974,5.440741 -1.608794,4.071738 1.778201,7.877481 1.778201,7.877481 0,0 -2.605696,-3.978754 -1.161973,-7.632706 0.76688,-1.94092 1.404899,-3.807962 1.551884,-5.631769 0.146985,-1.823808 -0.213617,-3.6094 -1.693494,-5.105307 z m 53.17532,3.14387 c -0.11449,2.024372 -0.75531,3.446907 -1.14257,4.703177 -0.38728,1.256269 -0.68079,2.464832 -0.10999,3.737028 0.83278,1.855604 0.99248,2.678464 1.16262,3.478007 0.51798,-0.85507 0.29153,-1.855686 -0.55869,-3.749979 -0.4729,-1.053742 -0.31936,-2.468991 0.0608,-3.702061 0.38013,-1.233069 0.96216,-2.654913 0.58778,-4.466172 z m -26.75837,2.607695 c -0.22484,1.645597 -0.66949,2.441508 -1.24991,3.38735 -0.58042,0.94584 -1.30415,2.022156 -1.57646,3.959786 -0.27712,1.971831 0.46547,4.214802 1.06692,5.979504 0.60146,1.764703 1.60362,3.001408 1.60362,3.001408 l 0.39508,-0.417671 c 0,0 -0.98254,-1.083345 -1.5674,-2.799371 -0.58487,-1.71603 -1.09074,-3.893359 -0.84061,-5.673213 0.25494,-1.81405 0.89132,-2.737969 1.48335,-3.702708 0.59202,-0.964738 1.13225,-1.990271 0.68541,-3.735085 z m -11.543432,1.278918 c 1.791882,1.185325 1.952332,3.023741 2.382792,5.113725 0.43045,2.089983 0.56441,4.543205 0.86776,7.014942 0.62327,5.078526 4.0737,8.094416 4.0737,8.094416 l 0.36598,-0.37428 c 0,0 -3.18499,-2.9307 -3.78272,-7.801081 -0.29967,-2.441779 -0.42933,-4.904774 -0.87487,-7.06804 -0.44555,-2.163267 -0.9395,-4.247484 -3.032642,-4.979682 z m 21.416522,1.772874 c -1.51169,0.845267 -2.54643,2.629654 -3.13286,6.083113 -0.54861,3.230791 -1.91064,5.372224 -1.91064,5.372224 0,0 1.88699,-1.903556 2.57019,-5.311354 0.65199,-3.252131 1.13429,-4.83789 2.47331,-6.143983 z m 37.485253,5.587212 c -0.10323,-0.0016 -0.2127,0.006 -0.32848,0.02396 1.36917,0.987848 1.57387,2.288642 1.68766,3.379579 0.3586,-1.262885 0.18969,-3.379753 -1.35918,-3.403538 z m -54.906323,0.588626 c 0,0 -0.96884,6.115782 3.84803,11.393041 l 0.46427,-0.35421 c -3.96622,-3.918274 -4.3123,-11.038831 -4.3123,-11.038831 z m 33.93907,1.55607 c -0.52227,1.129605 -0.83883,1.798336 -1.4064,2.779297 -0.56757,0.980963 -1.3702,2.284256 -1.28224,3.852944 0.0773,1.37928 0.47385,2.53511 0.67765,3.75387 0.20381,1.21875 0.40217,1.8447 0.48302,3.17495 0.396,-0.76675 0.21691,-1.8281 0.0129,-3.04933 -0.20423,-1.22123 -0.43901,-2.58873 -0.51341,-3.915757 -0.079,-1.407964 0.36678,-2.342472 0.91625,-3.29216 0.54948,-0.949686 1.21821,-1.904509 1.11219,-3.303814 z m -27.69597,0.389179 c 0.0917,1.610546 0.69131,3.230182 1.71807,4.545174 l 0.42095,-0.477894 c -1.07846,-1.277022 -1.49629,-2.50325 -2.13902,-4.06728 z m 8.79789,0.58215 c -0.38333,2.397849 -2.12479,4.777646 -2.12479,4.777646 l 0.53023,0.396302 c 0,0 1.86692,-2.45839 1.59456,-5.173948 z m -32.579219,2.696411 c 0.111864,1.930045 -0.576852,2.49751 -1.734231,6.721601 -1.1942,4.35848 0.847071,8.45251 0.847071,8.45251 0,0 -1.331135,-4.18275 -0.209505,-8.27637 1.158453,-4.228022 2.01155,-4.85378 1.096665,-6.897741 z m 73.881342,0.0667 c -1.8719,2.843428 -0.92209,7.086971 -0.15973,9.606451 0.727,2.40256 -0.74166,4.8573 -0.74166,4.8573 0,0 2.22008,-2.2631 1.37729,-5.04833 -0.74477,-2.46129 -1.5867,-6.599451 -0.4759,-9.415421 z m -93.94462,1.657089 c 0.01863,2.256592 -0.514829,5.882092 -2.051073,9.398582 -1.630473,3.73219 1.107657,6.66396 1.107657,6.66396 0,0 -1.729078,-3.37638 -0.251534,-6.7585 1.571772,-3.59783 1.897824,-6.94746 1.19495,-9.304042 z m 40.071597,0.332842 c 0,0 0.55328,2.38697 2.26251,3.11603 l 0.41578,-0.47466 c -1.28779,-0.5493 -2.67829,-2.641375 -2.67829,-2.641375 z m 23.08751,1.25107 c 0,0 0.12263,2.09736 2.08599,3.83222 0.85698,0.75725 1.64684,2.08686 1.86873,3.44368 0.22189,1.35684 0.3769,2.89364 0.24118,4.02131 -0.27475,2.28379 -1.49589,5.75522 0.41707,8.33854 0.10861,0.32168 1.07853,2.04811 1.49241,2.18419 -1.13115,-2.39622 -1.32903,-4.00175 -0.9208,-6.5092 1.17446,-4.94598 0.22632,-7.66897 0.22632,-7.66897 0,0 0.3862,2.69748 -0.88134,7.56148 -0.161,0.98888 -0.0389,2.68773 -0.0188,3.4398 -1.23245,-3.05969 -0.0188,-5.24859 0.2037,-7.09782 0.14182,-1.17893 0.10148,-3.01732 -0.1345,-4.46035 -0.236,-1.44303 -1.02686,-2.83917 -2.0569,-3.74933 -1.81069,-1.59999 -2.5231,-3.33555 -2.5231,-3.33555 z m -37.906716,0.11073 c -0.667203,2.06697 -0.947124,5.26448 -0.582604,6.89255 0.240135,-2.41302 0.724259,-4.46946 0.582604,-6.89255 z m 2.691226,3.69624 c -2.418675,2.27565 -2.836924,7.90131 -1.79178,12.00303 0.508374,1.99515 0.679627,3.4249 0.723566,4.34897 0.04394,0.92405 -0.03427,1.31713 -0.03427,1.31713 l 0.652438,0.12242 c 0,0 0.08763,-0.49863 0.04138,-1.47125 -0.04625,-0.97263 -0.221996,-2.44664 -0.740378,-4.48106 -1.008367,-3.95742 -0.678053,-8.33448 1.149041,-11.8392 z m 49.03566,1.72249 c 0.51494,1.43454 0.45323,2.91783 0.17911,4.03426 -0.35182,1.40933 -1.05124,2.25425 -1.39733,3.2138 -0.34608,0.95957 -0.54147,1.97913 -0.28387,3.47541 0.2414,1.40207 0.38635,2.5228 0.22308,3.27402 -0.0816,0.37563 -0.35001,0.87036 -0.46815,1.20444 0.39426,-0.12691 0.77659,-0.70963 0.86582,-1.12024 0.17847,-0.82125 0.28891,-1.9802 0.0323,-3.47025 -0.24031,-1.39586 -0.0701,-2.23892 0.25412,-3.13805 0.32428,-0.89912 0.82268,-1.85469 1.19236,-3.33553 0.54269,-1.63408 0.3512,-2.92447 -0.59748,-4.13787 z m -66.573246,0.52905 c -0.06183,1.05262 0.341902,2.74664 2.950521,5.51779 2.549212,2.70805 3.37804,5.09208 3.295814,9.59349 -0.08505,4.65589 2.147438,7.44038 3.935319,8.6539 l 0.121562,-0.28039 c -3.05373,-3.04344 -3.44066,-5.84759 -3.394747,-8.3612 0.08427,-4.61376 -1.078379,-7.33252 -3.668266,-10.15168 -2.501184,-2.72261 -2.693163,-3.53119 -3.240206,-4.97191 z m 71.179756,2.30658 c -0.0537,1.09136 -0.41019,1.7927 -0.77594,2.57596 -0.36575,0.78325 -1.02181,1.44491 -1.58356,2.58568 -0.57281,1.16323 -0.84987,2.12394 -1.00937,3.28957 -0.15949,1.16562 -0.20816,2.53395 -0.3466,4.58596 -0.13502,2.00114 -0.5293,3.27854 -1.07467,4.09449 -0.54538,0.81594 -0.96025,1.25155 -1.17426,1.60916 0,0 0.92168,-0.29543 1.52796,-1.2025 0.60625,-0.90705 1.23804,-2.34268 1.38052,-4.45452 0.13906,-2.06093 0.19224,-3.43056 0.34466,-4.54452 0.15243,-1.11399 0.39902,-1.97291 0.94599,-3.08366 0.54826,-1.11335 1.06082,-1.96139 1.44908,-2.79289 0.38827,-0.83148 0.647353,-1.65512 0.31619,-2.66273 z m 10.554113,4.74331 c -0.41304,0.83411 -0.86364,1.40752 -1.38054,2.1706 -0.51689,0.76308 -1.07076,1.70614 -1.18524,3.1892 -0.25353,3.28456 -0.11749,5.70606 0.87745,8.69533 0.47438,1.42516 0.52298,2.66658 0.45199,3.5907 -0.0355,0.46203 -0.26884,1.67785 -6.4e-4,2.03072 0.38477,-0.24036 0.62209,-1.48364 0.66019,-1.97956 0.0762,-0.99185 0.0232,-2.32726 -0.48367,-3.84972 -0.96724,-2.9059 -1.09602,-5.19684 -0.84576,-8.4389 0.10373,-1.34456 0.57271,-2.12629 1.07337,-2.86542 0.50066,-0.73912 1.0605,-1.44484 0.83285,-2.54295 z m -74.491742,2.59282 c 0,0 0.665201,3.65873 0.419656,7.59321 -0.105834,1.69568 0.958897,4.47369 2.609105,5.59614 -1.191459,-1.35344 -2.244023,-4.52747 -2.123495,-6.45868 0.253951,-4.06916 -0.905266,-6.73067 -0.905266,-6.73067 z m -18.202957,1.88956 c -0.372707,1.51613 -0.760623,2.60543 -1.285476,3.8361 -0.524852,1.23066 -1.188805,2.59357 -1.725825,4.58207 -1.15502,4.27693 0.691026,7.18201 1.805359,8.35668 0,0 -2.229391,-4.24975 -1.167147,-8.18312 0.521114,-1.92964 1.16171,-3.24298 1.69608,-4.49597 0.534372,-1.25299 0.961203,-2.45704 0.677009,-4.09576 z m 84.749699,7.17099 c 0,0 1.26225,2.51729 2.54379,4.72195 0.61097,1.05107 1.03515,2.60497 1.14387,4.13917 0.10874,1.5342 0.0364,2.93964 -0.5328,3.92224 -1.16421,2.00967 -1.20627,3.34789 -0.43583,4.66819 -0.11762,-1.45872 -0.0965,-2.42987 1.00744,-4.33536 0.6776,-1.16971 0.73895,-2.67922 0.62397,-4.3017 -0.11499,-1.62247 -0.54987,-3.24778 -1.23439,-4.42537 -1.29515,-2.22804 -3.11605,-4.38912 -3.11605,-4.38912 z m 13.9107,1.90641 c 0.72941,3.35632 1.05802,6.86176 -0.45457,9.81559 -1.62201,3.16751 -0.60588,5.82604 -0.60588,5.82604 0,0 -0.32262,-2.55881 1.19495,-5.52233 1.62698,-3.17718 1.25532,-6.873 -0.1345,-10.1193 z M 9.125079,68.840699 c 0,0 -0.525433,1.60428 -0.510181,3.25396 0.01525,1.64966 0.229218,3.65974 1.121236,5.14156 1.669403,2.77324 2.559345,4.1403 2.532157,7.29857 -0.02853,3.31552 1.415066,7.68002 4.991248,9.53522 -2.7786,-2.75799 -4.35606,-6.39627 -4.32911,-9.52809 0.02832,-3.28902 -0.960815,-4.88002 -2.627211,-7.64825 -0.775877,-1.2889 -1.011449,-3.21315 -1.026184,-4.80679 -0.01474,-1.59363 -0.151955,-3.24619 -0.151955,-3.24618 z m 16.986667,1.63507 c 0,0 -1.634936,3.81999 -0.565791,7.35038 0.997602,3.29411 0.510828,6.10058 0.510828,6.10058 0.57989,-0.64525 1.195538,-2.82626 0.122213,-6.29356 -1.004314,-3.24432 0.246788,-7.0534 -0.06724,-7.15741 z m -16.160935,2.10973 c -0.0058,1.80632 0.791748,3.92828 1.924983,4.86636 -0.891249,-1.39579 -0.996996,-3.14441 -1.924983,-4.86636 z m 110.956499,1.67005 c 0,0 -0.35174,2.47249 -2.03814,4.66238 -1.78338,2.31584 -2.66723,4.3612 -2.98156,8.56842 -0.15222,2.03736 -0.70585,3.52009 -1.21694,4.49142 -0.51107,0.97135 -0.72809,1.64803 -0.72809,1.64803 0,0 0.76583,-0.29422 1.31457,-1.3372 0.54877,-1.04297 1.1313,-2.618 1.29066,-4.75109 0.30885,-4.13375 1.11178,-5.96213 2.84706,-8.21551 1.83226,-2.37934 1.51244,-5.06645 1.51244,-5.06645 z m -13.3766,5.5029 c -0.6045,1.06657 -1.09763,1.95282 -1.43096,2.93083 -0.33335,0.97803 -0.47802,2.05807 0.29485,3.34979 -0.10186,-1.36946 0.0263,-2.23654 0.33302,-3.13674 0.30681,-0.90023 0.81791,-1.82336 0.80309,-3.14388 z m -0.10861,5.08589 c 0,0 -1.47666,1.87947 0.49725,4.33406 -1.24511,-2.54765 -0.49725,-4.33406 -0.49725,-4.33406 z m -92.465791,0.61193 c 0,0 -0.06706,1.9362 0.67701,4.06922 0.744073,2.13304 1.96055,4.54851 4.152584,5.26786 -1.609736,-1.1704 -2.806909,-3.42277 -3.526658,-5.48608 -0.719746,-2.06329 -1.302936,-3.851 -1.302936,-3.851 z" /><path
     id="path2690"
     style="font-variation-settings:normal;vector-effect:none;fill:#000000;fill-opacity:1;stroke:none;stroke-width:0.132292;stroke-linecap:butt;stroke-linejoin:miter;stroke-miterlimit:4;stroke-dasharray:none;stroke-dashoffset:0;stroke-opacity:1;-inkscape-stroke:none;stop-color:#000000"
     d="m 66.670887,36.499971 -9.51564,11.537448 0.005,17.24046 -8.511441,10.25982 v -15.90001 l -10.976348,13.47493 v 17.24628 L 29.166839,100.5572 V 84.657189 L 18.194527,98.119819 V 115.3635 l -6.22629,8.62735 c 6.991903,10.74459 16.590921,17.49129 26.510065,21.52984 l 27.667505,-35.5513 28.45575,35.21588 c 9.862963,-4.16721 19.350523,-11.0457 26.196453,-21.93133 l -6.28448,-8.07111 V 97.939159 l -10.56187,-13.5656 -0.82702,16.183001 -8.093093,-10.393881 v -17.24626 l -10.56057,-13.56366 -0.82767,16.18494 -8.09695,-10.40293 0.002,-17.24045 z" /><path
     id="path5036"
     style="font-variation-settings:normal;vector-effect:none;fill:#ffffff;fill-opacity:1;stroke:none;stroke-width:0.132292;stroke-linecap:butt;stroke-linejoin:miter;stroke-miterlimit:4;stroke-dasharray:none;stroke-dashoffset:0;stroke-opacity:1;-inkscape-stroke:none;stop-color:#000000"
     d="m 61.629207,26.345692 c 2.10902,-3.168095 1.24893,-4.391474 0.0834,-6.586907 -1.16551,-2.195435 0.74914,-4.835226 2.24765,-7.780997 1.49851,-2.945772 -1.08644,-6.725105 -3.45294,-6.8142 0,0 1.95574,-1.651359 4.95503,-0.383352 -0.86768,-0.501062 -1.69997,-0.711954 -2.46103,-0.74598 -2.28316,-0.102077 -3.92109,1.385116 -3.92109,1.385116 3.69077,0.138952 5.7164,3.612644 4.21789,6.558416 -1.49851,2.945771 -3.41315,5.585562 -2.24765,7.780997 1.16552,2.195433 2.02561,3.418812 -0.0834,6.586907 -1.24692,1.87309 -1.85435,3.601659 -0.38858,6.97508 0,0 -1.05829,-3.806985 1.05072,-6.97508 z M 33.757363,13.433486 c -1.636342,-0.0236 -2.622039,0.684464 -2.622039,0.684464 4.329033,1.86195 6.105462,5.529902 5.161956,9.392755 -0.943506,3.862853 -2.325701,7.027297 -1.249267,9.809781 1.247862,3.225612 2.63662,4.391263 1.498862,6.809019 -1.137758,2.417754 -1.526394,4.224164 -1.387643,7.614574 0.120699,2.94937 1.257458,5.25835 1.565463,5.83898 0.442058,0.40168 0.78952,0.24672 0.78952,0.24672 0,0 -1.554096,-2.69528 -1.692847,-6.0857 -0.138751,-3.39041 0.249885,-5.19682 1.387643,-7.614574 1.137759,-2.417756 -0.250998,-3.583407 -1.498861,-6.809019 -1.076433,-2.782484 0.30576,-5.946928 1.249267,-9.809781 0.943507,-3.862853 -0.832923,-7.530805 -5.161955,-9.392755 0,0 0.809639,-0.580787 2.177811,-0.672807 -0.07247,-0.0038 -0.147801,-0.01065 -0.21791,-0.01166 z m 54.064414,32.985483 c 0,0 -1.86351,-6.168333 -0.37375,-9.369222 1.45919,-3.135185 2.85614,-2.955514 1.22212,-6.710592 -1.2703,-2.919242 0.0333,-4.030331 0.85483,-7.498663 0.76354,-3.223296 1.18067,-6.490305 -3.17232,-7.952597 0.67993,-0.878497 1.65092,-1.305345 2.70222,-1.374756 -0.19375,-0.01387 -0.3861,-0.01799 -0.57614,-0.009 v -4.4e-5 c -1.08471,0.05092 -2.08957,0.481137 -2.78821,1.383822 4.35298,1.462292 3.93585,4.729301 3.1723,7.952597 -0.82158,3.468332 -2.12513,4.579421 -0.85482,7.498663 1.63402,3.755078 0.23707,3.575407 -1.22211,6.710592 -0.88834,1.908692 -0.76231,5.83659 0.37345,8.87785 z M 73.034297,25.705914 c 2.16888,-1.844989 4.75885,-1.290898 5.49496,-4.326949 -0.27286,-0.473419 -0.52376,-0.758285 -0.52376,-0.758285 h -4e-5 c -0.47176,3.751693 -3.21484,2.552497 -5.54993,4.890969 -1.29251,1.294388 -2.80133,3.542136 -2.99702,7.447849 0,0 0.70517,-4.811691 3.57579,-7.253584 z M 52.229312,23.58194 c -1.727444,0.06547 -2.77852,0.929239 -2.77852,0.929239 0.915758,0.528016 2.59676,0.941001 3.468461,4.168298 0.915764,3.390417 0.930674,6.302761 1.887484,10.505251 0.9578,4.206841 3.95407,6.474881 3.95407,6.474881 l 0.60653,-0.0447 c -0.28789,-0.22721 -2.99152,-2.44673 -3.89847,-6.430205 -0.95681,-4.20249 -0.97172,-7.114834 -1.88748,-10.505251 -0.871697,-3.227296 -2.552701,-3.640281 -3.468458,-4.168298 0,0 1.003904,-0.818993 2.657602,-0.919525 -0.186312,-0.01116 -0.368113,-0.01627 -0.541219,-0.0098 z m -37.94939,7.090058 c -0.757507,0.01293 -1.230516,0.242185 -1.230516,0.242185 3.708625,3.04586 4.846951,6.799386 4.062058,11.220796 -0.784896,4.42141 -2.629971,6.34724 -2.728084,10.10053 -0.09811,3.75329 2.472444,4.46097 1.471704,7.58543 -1.00074,3.12446 -2.805405,4.4607 -2.942761,9.25548 -0.0981,3.42456 0.941858,6.38106 2.197406,7.97795 0.506117,0.64372 1.130289,0.76929 1.130289,0.76929 0,0 -2.802914,-3.95247 -2.665557,-8.74724 0.137356,-4.79478 1.94202,-6.13102 2.94276,-9.25548 1.000741,-3.12446 -1.569815,-3.83214 -1.471703,-7.58543 0.09811,-3.75329 1.943188,-5.67912 2.728082,-10.10053 0.784895,-4.42141 -0.765973,-8.413099 -3.812462,-10.915152 0,0 1.707459,-0.411456 3.773666,0.948017 -1.335937,-1.236655 -2.583575,-1.510718 -3.454882,-1.495846 z m 92.893208,31.948961 c -0.29433,-4.53931 1.29133,-7.10353 3.27319,-10.97472 1.98185,-3.87119 -0.16445,-5.47218 0.17976,-9.27231 0.37447,-4.134213 3.70432,-6.996678 -2.12674,-11.036248 0.56558,-0.143225 1.09151,-0.21805 1.5881,-0.243479 -0.0972,-0.0051 -0.19166,-0.01506 -0.29163,-0.01554 -0.6004,-0.0029 -1.25163,0.07999 -1.95861,0.259021 5.83106,4.03957 2.50121,6.902034 2.12673,11.036246 -0.3442,3.80013 1.8021,5.40112 -0.17976,9.27231 -1.98185,3.87119 -3.56817,6.43541 -3.27383,10.97472 0.22761,3.51018 2.15185,5.87252 1.68427,9.99234 1.37356,-4.10698 -0.72714,-5.45303 -1.02148,-9.99234 z m -6.77074,-18.07319 c -0.3828,-2.74715 -0.449263,-6.547284 2.5134,-6.798665 -0.0966,-0.0075 -0.1917,-0.01352 -0.28321,-0.0149 -3.348333,-0.05008 -3.290853,3.953585 -2.892333,6.813565 0.427193,3.06565 -1.10597,4.2752 -1.81703,5.54432 -0.71105,1.26913 -1.30457,2.91393 -2.23419,3.18215 1.50745,0.37653 1.79408,-1.05042 2.86623,-2.96405 1.07215,-1.91362 2.274323,-2.69677 1.847133,-5.76242 z m -14.808003,16.39094 c -1.28213,-2.71745 -1.10873,-4.96948 -0.57894,-7.34722 0.52981,-2.37773 0.23539,-3.30107 -0.57613,-5.94324 -0.74828,-2.43631 -3.41171,-3.14606 -3.04104,-7.657965 -0.37127,-0.493855 -0.56322,-0.860597 -0.56322,-0.860597 -0.80348,5.297212 2.14845,5.934432 2.94212,8.518562 0.81152,2.64217 1.10595,3.56551 0.57614,5.94324 -0.5298,2.37774 -0.28695,4.76872 0.35693,6.06887 z M 50.249366,41.606579 c -2.575504,-0.44925 -4.69921,2.65211 -5.117403,4.32102 1.181148,-1.84074 2.42833,-3.74228 5.117403,-4.32102 z m -21.278273,3.21963 c 0,0 -1.543004,0.91509 -1.30423,3.02861 0.27689,2.4509 2.455554,3.95066 3.80147,6.72547 1.345917,2.77483 2.157683,4.97454 2.450038,10.17695 0.292353,5.2024 4.089214,7.19949 4.089214,7.19949 l 0.221791,-0.28491 c -0.992541,-0.69019 -3.416312,-2.77626 -3.648868,-6.91458 -0.292354,-5.20241 -1.104122,-7.40212 -2.450037,-10.17695 -1.345916,-2.77481 -3.52458,-4.27457 -3.801471,-6.72547 -0.135019,-1.19514 0.298286,-1.99485 0.701581,-2.47495 -0.04921,-0.33335 -0.05949,-0.55366 -0.05949,-0.55366 z M 7.114742,59.429819 c -0.276859,-0.0144 -0.442933,0.0175 -0.442933,0.0175 1.079229,1.06114 3.022265,3.41906 1.550591,7.56537 -1.471679,4.1463 -1.393088,6.09168 -0.235369,9.3144 1.15772,3.22271 2.963009,4.71662 3.002249,7.11401 0.03924,2.39739 -0.02632,5.01321 2.053661,7.92152 2.07997,2.9083 5.848016,5.14739 5.848016,5.14739 l 0.219204,-0.28168 c -0.961347,-0.61487 -3.69581,-2.47574 -5.405084,-4.86571 -2.079969,-2.90831 -2.014414,-5.52413 -2.053659,-7.92152 -0.03924,-2.39739 -1.844531,-3.8913 -3.00225,-7.11401 -1.157719,-3.22272 -1.236309,-5.1681 0.235369,-9.3144 1.470613,-4.14331 -0.468312,-6.50054 -1.548004,-7.56278 -0.07987,-0.01 -0.154348,-0.0165 -0.221791,-0.02 z m 113.868868,13.18353 c 0.49793,-3.2639 -2.42215,-6.15574 -1.28483,-9.63235 0.80598,-2.46376 2.67173,-2.96803 3.73809,-3.04673 -0.0935,-0.009 -0.22714,-0.0165 -0.42029,-0.0125 -1.00017,0.0218 -3.10936,0.3978 -3.97994,3.05904 -1.13732,3.4766 1.79501,6.37033 1.28483,9.63235 -0.27244,1.74198 -1.55741,3.53325 -3.13953,4.44102 1.38609,-0.10915 3.30508,-1.18601 3.80167,-4.44102 z m -15.0626,14.29013 c -1.39122,-3.35974 -1.5781,-6.33557 -1.02268,-11.17475 0.55543,-4.83918 -0.91587,-5.83568 -2.35887,-8.11449 -0.9823,-1.55129 -1.01036,-3.32731 -0.92983,-4.31593 -0.18888,-0.23926 -0.37641,-0.49329 -0.5645,-0.76994 0,0 -0.61076,2.80708 0.8322,5.08587 1.443,2.27881 2.91429,3.27531 2.35886,8.11449 -0.55542,4.83918 -0.5073,6.78678 0.88393,10.14652 z M 26.802336,67.752819 c 1.608834,-1.63105 2.596177,-3.51562 3.033287,-4.46488 -0.185967,-0.3964 -0.393145,-0.62036 -0.393146,-0.62036 0,0 -1.054514,2.80643 -3.30228,5.08524 -0.667592,0.67681 -2.229634,2.32011 -2.04342,4.86048 0,0 0.457792,-2.58167 2.705559,-4.86048 z" /><path
     id="path1833"
     style="color:#000000;fill:#ffffff;stroke-width:1;stroke-linecap:square;-inkscape-stroke:none"
     d="m 66.145837,35.825868 -9.40377,12.068451 0.003,17.24045 -8.096938,10.40293 v 1.3482 l 8.925278,-11.46556 -0.005,-17.2398 9.10244,-11.680568 z M 38.088413,90.447609 v -17.24692 l 10.559926,-13.563 v -1.3482 l -11.388244,14.62693 v 17.24626 L 29.166372,100.5572 v 1.34822 z m 46.382594,-31.09485 -0.82768,-1.06327 v 17.24821 l 0.82768,1.06263 z m -55.304635,23.95882 -11.388244,14.62758 v 17.243671 l -6.284486,8.07111 c 0.156285,0.24851 0.31561,0.49256 0.474618,0.73691 l 6.636892,-8.52309 V 98.223439 l 10.56122,-13.56625 z m 73.958288,0 v 17.244981 l 0.82702,1.06264 V 84.373559 Z m -36.978823,26.657811 27.66751,35.5513 c 0.26331,-0.10713 0.5254,-0.22439 0.78823,-0.33542 l -27.93069,-35.89063 z" /></svg>
