<?xml version="1.0" encoding="UTF-8" standalone="no"?>
<svg
   xmlns:dc="http://purl.org/dc/elements/1.1/"
   xmlns:cc="http://creativecommons.org/ns#"
   xmlns:rdf="http://www.w3.org/1999/02/22-rdf-syntax-ns#"
   xmlns:svg="http://www.w3.org/2000/svg"
   xmlns="http://www.w3.org/2000/svg"
   width="500"
   height="565"
   viewBox="0 0 132.29166 149.48959"
   version="1.1"
   id="svg847">
  <defs
     id="defs841" />
  <metadata
     id="metadata844">
    <rdf:RDF>
      <cc:Work
         rdf:about="">
        <dc:format>image/svg+xml</dc:format>
        <dc:type
           rdf:resource="http://purl.org/dc/dcmitype/StillImage" />
        <dc:title></dc:title>
      </cc:Work>
    </rdf:RDF>
  </metadata>
  <g
     id="layer1"
     transform="translate(-39.478243,-34.810148)">
    <path
       style="font-variation-settings:normal;vector-effect:none;fill:#0a702b;fill-opacity:1;stroke:none;stroke-width:0.264584;stroke-linecap:butt;stroke-linejoin:miter;stroke-miterlimit:4;stroke-dasharray:none;stroke-dashoffset:0;stroke-opacity:1;stop-color:#000000"
       d="m 171.76991,34.810148 -2.59876,89.601362 c -0.92389,31.96978 -27.42183,59.88822 -63.54707,59.88822 -36.125246,0 -62.623183,-27.91844 -63.547073,-59.88822 L 39.478243,34.810148 Z"
       id="path883" />
    <path
       id="path1587"
       style="font-variation-settings:normal;vector-effect:none;fill:#063c17;fill-opacity:1;stroke:none;stroke-width:0.132292;stroke-linecap:butt;stroke-linejoin:miter;stroke-miterlimit:4;stroke-dasharray:none;stroke-dashoffset:0;stroke-opacity:1;stop-color:#000000"
       d="m 97.626948,43.378377 -3.713542,3.397025 c -0.623407,1.093773 -1.931769,2.645532 -2.005469,2.810742 -0.0737,0.16521 -0.128324,0.373458 -0.05254,0.577885 1.23884,-0.956457 3.103552,-2.005979 4.803379,-2.675544 l 2.077284,15.455828 c 0.350315,0.665437 -0.244853,1.1211 -0.104729,1.856587 0.087,0.456599 0.578778,0.695202 1.14895,0.803413 0.348239,0.06607 1.565099,0.435142 1.565099,0.435142 L 82.183695,86.780026 43.947064,87.997372 c -0.03503,0.805532 0.419939,1.08601 1.155595,1.191077 0,0 -0.03481,0.490323 2.22e-4,0.980646 0.03634,0.508649 0.280104,1.050764 1.050794,1.225881 -0.140118,0.175117 -0.327958,0.510636 0.245365,1.15547 0.336356,0.378312 1.304944,0.5825 2.092173,0.749419 0.554591,0.117599 1.125344,0.190348 1.516274,0.161399 0.55162,-0.04085 1.043539,-0.189119 1.531597,-0.235967 0.348805,-0.03349 0.695552,-0.01522 1.060575,0.130753 0.875785,0.350232 2.153115,0.311814 3.327832,0.139945 1.174718,-0.17187 1.802869,-1.016154 3.012623,-1.5057 1.209749,-0.489543 2.362279,-0.327392 2.362279,-0.327392 -0.06567,0.565859 -0.165597,0.941285 0.218182,1.22019 0.600397,0.436329 1.482684,0.9097 2.275353,1.652651 0.79267,0.74295 1.634835,1.28775 1.634835,1.28775 0.4756,0.237746 1.058144,0.216747 1.814624,0.0286 0.969102,-0.241021 2.064001,-1.223618 2.729598,-1.118547 0.665595,0.105067 2.522182,0.665729 3.993498,0.945912 1.233099,0.234821 2.461138,0.590346 2.891233,0.69698 l -2.516931,7.837011 c 0,0 0.126949,0.6024 1.326908,0.87359 l 20.532013,4.64018 -1.226098,9.45251 -13.651929,46.81978 -13.943933,0.28948 c 0,0 -0.03716,2.62823 0.458253,3.24736 0.495418,0.61914 1.419062,1.07291 3.314039,1.85301 1.894974,0.7801 4.995395,1.56344 9.703023,2.04761 4.745436,0.4881 8.311383,1.26417 9.611067,0.54498 1.545044,-0.85498 2.075218,-2.60049 2.051629,-3.60284 -0.01467,-0.62387 -0.176701,-1.56126 -0.350446,-2.59763 0.494199,-0.47201 0.300372,-0.88888 0.932114,-1.28992 0.631741,-0.40104 0.526996,-0.76169 0.652669,-1.47441 0.660692,-0.31789 1.07872,-0.7756 1.783943,-1.75847 0.721479,-1.00552 1.43667,-2.94719 1.783461,-5.47322 0.346793,-2.52604 0.495322,-3.31837 1.585241,-5.25004 1.089916,-1.93168 2.949481,-4.26386 3.418251,-6.88496 0.46326,-2.59033 0.25091,-4.45117 0.0991,-5.49775 -0.12109,-0.83473 0.24797,-1.23819 0.84247,-1.73349 0.5945,-0.4953 1.88236,-1.78297 3.02182,-3.46699 1.13946,-1.68402 3.17066,-6.38938 3.81469,-8.02387 l 21.17945,37.14061 c -1.63818,0.47194 -11.86567,7.78308 -11.61797,9.41758 0.24772,1.63449 1.98157,2.27856 3.51737,2.62527 1.53579,0.34671 3.02224,0.34643 6.58925,-1.04041 3.56701,-1.38684 5.33837,-3.26904 7.12187,-4.16059 1.78351,-0.89154 4.61979,-3.02137 5.80879,-4.50728 1.189,-1.4859 1.13949,-4.25936 0.0991,-5.29949 -1.04038,-1.04013 -2.35257,-1.72787 -2.35257,-1.72787 0.0281,-1.06938 -0.66604,-0.94578 -0.80617,-2.31168 -0.14012,-1.3659 -0.27988,-4.48281 -1.57605,-6.51414 -1.29614,-2.03134 -1.05086,-0.80581 -1.78652,-2.9072 -0.73565,-2.10139 -1.06298,-4.43627 -2.67442,-8.00861 -1.61144,-3.57236 -3.22296,-5.46367 -4.34396,-7.28487 -0.14863,-1.77094 -0.018,-3.83969 -0.46694,-6.84103 -0.449,-3.00135 -0.74812,-5.10751 -1.40077,-7.60138 0,0 0.68867,-0.23348 1.42432,-0.75883 0.73566,-0.52534 0.87579,-1.36568 0.7707,-1.89102 0,0 -0.0273,-1.24616 -0.68888,-3.01243 -0.66808,-1.7837 -0.90115,-3.25444 -1.75128,-5.28834 -0.90764,-2.1715 -2.03204,-4.83304 -2.45241,-6.16391 0,0 0.24544,-0.30369 0.66581,-0.65391 0.42037,-0.350248 1.08561,-0.525436 1.82127,-0.420363 0.73566,0.105064 1.57677,-0.875652 3.08312,-1.646159 1.50634,-0.770506 1.08576,-0.98028 2.90739,-1.330512 1.82163,-0.350229 2.69741,-1.366192 3.43306,-2.907205 0.73566,-1.541015 1.10323,-3.323592 1.20231,-4.066543 0.0991,-0.742953 -0.38402,-2.413177 -0.63174,-3.30472 -0.2477,-0.89154 -1.33772,-2.427015 -2.32856,-4.061509 -0.99083,-1.634491 -2.08099,-3.269219 -2.87366,-4.804652 -0.79267,-1.535433 -2.08044,-1.981169 -2.67494,-3.76425 -0.5945,-1.783083 -0.42144,-2.440846 -1.25265,-4.152423 0,0 -0.31514,-0.805604 -1.12086,-1.646157 -0.80572,-0.840555 -2.3822,-0.595102 -4.02868,-0.700169 -1.64647,-0.10507 -2.1021,-0.280478 -3.46832,-0.945915 -1.36622,-0.665437 -2.22126,-1.090841 -2.22126,-1.090841 -0.5044,-0.388297 -0.76544,-1.218672 -1.2593,-1.454112 -0.49388,-0.235441 -2.8339,0.319232 -2.8339,0.319232 0,0 -0.30364,-0.68218 -0.69998,-3.802577 1.91438,1.508687 4.64295,2.369611 7.41482,2.245161 0,0 -2.34028,-3.09767 -3.02233,-4.68875 0.96193,-0.110025 1.4075,0.757576 3.36885,0.940832 -0.3254,-1.154254 -1.07666,-1.836306 -1.69003,-3.699332 -0.61337,-1.863026 -1.20895,-2.875194 -1.99768,-3.887343 0.92733,0.07949 1.24525,0.05675 2.20516,0.09291 -0.83686,-2.067318 -2.10401,-3.582407 -3.69992,-4.368354 1.07881,-0.360971 1.75354,-0.139497 3.0138,-0.228391 -1.66967,-1.649213 -4.04468,-2.706776 -6.54377,-3.566625 0.53509,-1.860054 1.03681,-3.424148 1.45268,-5.233958 -2.60015,1.117339 -3.25208,3.471277 -5.35636,4.761064 z m -2.534957,46.468827 c -0.07145,2.108276 0.282512,4.26806 1.021238,5.763847 -3.14483,-0.710655 -4.466401,-1.009043 -6.836003,-1.544515 0.68379,-0.47007 3.462163,-2.394819 5.814765,-4.219332 z" />
    <g
       id="g1188"
       style="stroke-width:1.01165"
       transform="matrix(0.98860093,0,0,0.98836754,0.45001525,0.40492778)">
      <path
         id="path1085"
         style="font-variation-settings:normal;opacity:1;vector-effect:none;fill:#bf9f4f;fill-opacity:1;stroke:none;stroke-width:0.133833;stroke-linecap:butt;stroke-linejoin:miter;stroke-miterlimit:4;stroke-dasharray:none;stroke-dashoffset:0;stroke-opacity:1;stop-color:#000000;stop-opacity:1"
         d="m 92.141168,168.49673 c -0.153127,1.22502 0.254359,2.0985 0.271322,2.81953 0.02386,1.01415 -0.362193,2.7299 -1.925053,3.59494 -1.314669,0.72766 -4.921775,-0.0574 -9.721928,-0.55124 -4.76191,-0.48987 -7.898205,-1.28256 -9.815031,-2.07184 -1.916825,-0.78928 -2.851039,-1.24815 -3.352169,-1.87458 -0.50113,-0.9099 -0.663163,-1.91983 -0.133507,-3.50122 0.553388,-1.65224 1.707876,-2.13916 2.780531,-2.01157 1.553228,0.18476 2.650891,0.14602 3.905995,-0.15032 1.306482,-0.30848 1.478332,0.0501 3.132063,0.20044 1.65373,0.15034 2.820355,0.21791 3.851561,-0.22411 z m 51.081892,-5.81311 c 1.05237,1.05237 1.05237,3.50791 -0.15034,5.0113 -1.20271,1.5034 -3.60814,3.20724 -5.41221,4.10927 -1.80407,0.90204 -3.80859,2.80633 -7.41673,4.2095 -3.60814,1.40316 -5.11153,1.40316 -6.66503,1.05237 -1.55351,-0.59884 -3.05941,-0.96682 -3.30998,-2.62055 -0.25056,-1.65373 0.55376,-2.30164 1.35557,-3.35401 0.80181,-1.05238 1.80155,-0.85548 2.80381,-2.20854 1.00227,-1.35305 3.46745,-2.69394 5.2214,-3.04473 1.75396,-0.35079 11.19383,-4.90305 11.19383,-4.90305 0,0 1.3273,0.69607 2.37968,1.74844 z" />
      <path
         id="path1093"
         style="font-variation-settings:normal;opacity:1;vector-effect:none;fill:#ffffff;fill-opacity:1;stroke:none;stroke-width:0.133833;stroke-linecap:butt;stroke-linejoin:miter;stroke-miterlimit:4;stroke-dasharray:none;stroke-dashoffset:0;stroke-opacity:1;stop-color:#000000;stop-opacity:1"
         d="m 80.886905,164.47869 c -1.031206,0.44202 -1.524561,0.40989 -3.178291,0.25955 -1.653731,-0.15032 -2.004521,-0.50113 -3.858702,-0.10022 -1.854184,0.40089 -2.605879,0.15033 -3.958932,0.0501 -1.353052,-0.10023 -2.52944,0.78758 -2.756217,2.43982 -0.226777,1.65224 -0.03758,2.65918 0.463546,3.28559 0,0 -0.212979,-0.6974 0.03759,-1.34887 0.250565,-0.65147 -0.250565,-1.25282 -0.100226,-1.90429 0.150339,-0.65147 1.152602,-1.5368 1.753956,-2.00453 0.601355,-0.46772 2.054635,0.25057 2.405426,0.25057 0.350791,0 1.553504,-0.45102 3.006782,-0.25057 1.453278,0.20046 2.3052,0.15034 3.056895,0 0.751696,-0.15033 1.904296,-0.0501 2.3052,0.70159 0.400904,0.75169 1.052374,1.50339 1.954409,1.45327 0.902034,-0.0501 1.603617,0.55125 2.255086,0.80181 0.65147,0.25057 1.252826,0.0501 1.302939,-0.30067 0.05011,-0.3508 -4.689457,-3.33315 -4.689457,-3.33315 z m 54.945175,-0.0356 c 0,0 -5.13728,0.7963 -6.89124,1.14709 -1.75395,0.35079 -3.75847,1.90429 -4.76074,3.25734 -1.00226,1.35306 -1.75395,0.80181 -2.55576,1.85419 -0.80181,1.05237 -1.85418,2.05463 -1.60362,3.70836 0.25057,1.65373 2.00452,2.3052 3.55803,2.65599 0,0 -0.68924,-0.48031 -1.68143,-0.90553 -0.99219,-0.42522 -1.41741,-1.45285 -1.41741,-2.23242 0,-0.77958 0.30921,-1.42233 1.21125,-2.52482 0.90203,-1.10249 1.45328,-1.20271 2.00452,-1.45328 0.55124,-0.25056 1.25282,-0.85192 2.3052,-1.85418 1.05237,-1.00226 1.80407,-1.1526 2.25508,-0.95215 0.45102,0.20045 0.25057,1.05238 1.80407,0.70158 1.55351,-0.35079 2.00453,-0.15034 2.40543,-0.45101 0.4009,-0.30068 2.15486,-0.50113 3.15712,-0.95215 1.00226,-0.45102 1.12058,-1.69282 0.2095,-1.99901 z" />
      <path
         id="path1119"
         style="color:#000000;font-style:normal;font-variant:normal;font-weight:normal;font-stretch:normal;font-size:medium;line-height:normal;font-family:sans-serif;font-variant-ligatures:normal;font-variant-position:normal;font-variant-caps:normal;font-variant-numeric:normal;font-variant-alternates:normal;font-variant-east-asian:normal;font-feature-settings:normal;font-variation-settings:normal;text-indent:0;text-align:start;text-decoration:none;text-decoration-line:none;text-decoration-style:solid;text-decoration-color:#000000;letter-spacing:normal;word-spacing:normal;text-transform:none;writing-mode:lr-tb;direction:ltr;text-orientation:mixed;dominant-baseline:auto;baseline-shift:baseline;text-anchor:start;white-space:normal;shape-padding:0;shape-margin:0;inline-size:0;clip-rule:nonzero;display:inline;overflow:visible;visibility:visible;opacity:1;isolation:auto;mix-blend-mode:normal;color-interpolation:sRGB;color-interpolation-filters:linearRGB;solid-color:#000000;solid-opacity:1;vector-effect:none;fill:#75510a;fill-opacity:1;fill-rule:nonzero;stroke:none;stroke-width:3.82356;stroke-linecap:butt;stroke-linejoin:miter;stroke-miterlimit:4;stroke-dasharray:none;stroke-dashoffset:0;stroke-opacity:1;color-rendering:auto;image-rendering:auto;shape-rendering:auto;text-rendering:auto;enable-background:accumulate;stop-color:#000000;stop-opacity:1"
         d="m 532.28515,640.30465 c 0.50119,0.0834 1.00661,0.15559 1.50976,0.23437 0.7002,-0.56637 1.36354,-1.14008 2.01953,-1.71679 -1.11102,-0.15636 -2.21933,-0.3309 -3.32226,-0.51563 0.19052,-1.99345 0.3883,-4.58536 0.47656,-7.59961 2.00756,0.37454 4.04906,0.70973 6.08203,0.94336 -0.0616,1.45335 -0.17703,2.94248 -0.33789,4.44727 0.83679,-0.86632 1.5712,-1.7142 2.22852,-2.5586 0.0377,-0.56542 0.0789,-1.13283 0.10351,-1.68945 0.3249,0.0272 0.6431,0.0438 0.96485,0.0664 0.35428,-0.62283 0.66743,-1.26762 0.93554,-1.9336 -0.60355,-0.0303 -1.22019,-0.0753 -1.84179,-0.1289 0.0465,-2.53759 -0.0278,-4.94915 -0.17383,-7.1504 1.11809,0.0771 2.21406,0.12911 3.2832,0.15821 -0.0185,-0.65523 -0.0692,-1.29926 -0.16211,-1.92578 -1.10267,-0.0192 -2.19998,-0.0794 -3.29101,-0.17188 -0.16842,-1.89461 -0.36408,-3.62724 -0.57422,-5.0625 0.56003,-0.0473 1.11721,-0.12024 1.66992,-0.21094 -1.42049,-1.47245 -2.8117,-2.73097 -4.44535,-3.94724 0.0571,0.25961 0.19101,0.84406 0.43359,2.2207 -3.2526,-0.041 -6.13378,-0.61787 -6.17773,-0.62695 -0.2083,-0.95308 -0.43946,-1.89007 -1.66504,-2.51074 -0.18788,2.86308 0.29039,5.73514 0.58496,8.65722 -1.06126,-0.18732 -2.12586,-0.37934 -3.16797,0.45704 1.09352,1.24909 2.21833,1.46777 3.35351,1.67578 0.16259,2.33065 0.21942,4.65464 0.20313,6.85937 -2.74064,-0.57368 -5.27746,-1.19652 -7.38281,-1.75586 -0.0207,-2.59961 -0.19171,-5.25804 -1.62598,-7.86133 -0.59597,2.5979 -0.43319,4.96942 -0.39941,7.3086 -2.09919,-0.58928 -3.79688,-0.0713 -3.79688,-0.0713 0,0 1.32895,1.46986 3.79492,2.15527 -0.0451,2.64794 -0.22789,5.27042 -0.42968,7.9082 -3.52727,-0.84771 -6.68095,-1.69557 -9.20313,-2.42578 0.45706,-3.59575 0.6636,-7.08936 -0.68067,-10.32129 -0.59204,3.36779 -0.6905,6.60903 -1.03808,9.81543 -2.71236,-0.81221 -4.76367,-0.44043 -4.76367,-0.44043 0,0 1.55129,1.57686 4.51758,2.45997 -0.37211,2.67005 -0.88497,5.30559 -1.40625,7.9082 -2.5212,-0.75636 -5.00614,-1.58028 -7.48243,-2.43946 0.6479,-4.38928 0.96869,-9.01209 -0.27246,-14.08496 -0.77461,4.874 -1.05631,9.24663 -1.65136,13.41309 -2.19232,-0.78519 -4.38466,-1.60204 -6.58789,-2.4668 0.24663,-2.87738 0.31452,-5.89565 -0.86914,-9.07129 -0.83513,2.95642 -0.88487,5.67869 -1.08399,8.28614 -1.68372,-0.6756 -3.38445,-1.37273 -5.09766,-2.09375 0.23241,-1.64379 0.40925,-3.32853 -0.51464,-5.12598 -1.0668,1.45344 -1.21567,2.89587 -1.40332,4.31348 -0.53261,-0.22741 -3.99941,-1.37965 -4.93862,-0.69629 0.29706,1.18005 3.94401,2.39954 4.64369,2.6709 -0.45555,2.65253 -1.09181,5.1884 -1.85351,7.65234 -2.6815,-1.17324 -4.69226,-2.12178 -6.125,-2.81445 0.39115,-1.46717 0.74141,-2.89161 0.0322,-4.42579 -1.22121,0.96902 -1.53039,2.23093 -1.87207,3.5293 -1.35991,-0.59676 -2.86832,-0.45663 -2.80219,-0.19213 0,0 0.60071,1.48946 2.26312,2.15502 -0.54945,1.92946 -1.18045,3.91571 -1.83984,5.91016 -2.76769,-1.95954 -6.74289,-4.0722 -6.74289,-4.0722 -0.51503,1.86286 -1.36236,3.62639 -1.96805,5.42767 -0.16505,-0.13504 -1.4653,-0.92329 -2.75446,-0.76924 -0.28784,1.0333 1.70944,2.45886 2.07477,2.73213 l 8e-5,4e-5 c -0.67321,1.87078 -1.39535,3.70239 -2.16406,5.53711 -1.53892,-1.05799 -3.1211,-0.97266 -3.1211,-0.97266 0,0 0.51052,1.62292 2.31251,2.86133 -0.75189,1.72925 -1.54779,3.48497 -1.54102,5.84863 1.58175,-1.22977 2.36688,-2.99367 3.15821,-4.76074 1.49138,0.99657 3.19727,2.10376 5.19726,3.31836 -0.93053,2.33476 -1.02432,5.00859 -1.02432,5.00859 0,0 1.89182,-1.76835 2.77237,-3.96171 1.72811,1.01326 3.57659,2.03182 5.47265,3.00585 -0.33273,1.06448 -0.649,2.14372 -0.9414,3.24415 0.66667,0.0366 1.35273,0.0479 2.07226,0.0273 0.2183,-0.79141 0.43694,-1.58294 0.67774,-2.35938 1.34824,0.65513 2.71262,1.26298 4.07422,1.82618 1.09352,-0.20101 2.2675,-0.46543 3.5332,-0.79883 -2.29217,-0.80258 -4.65569,-1.81404 -6.98828,-2.96485 0.48445,-1.4355 1.00411,-2.84699 1.54101,-4.24804 2.33331,1.42757 4.72166,2.73724 7.16993,3.85351 -0.27392,1.01535 -0.53671,2.05831 -0.79493,3.10938 0.71843,-0.20142 1.45923,-0.41762 2.24024,-0.66407 0.13951,-0.54112 0.26844,-1.10061 0.41211,-1.63476 0.69541,0.28453 1.39664,0.54714 2.10156,0.79687 1.02496,-0.35584 2.1121,-0.75547 3.24609,-1.18554 -1.62433,-0.55319 -3.21263,-1.13781 -4.74414,-1.77539 0.45741,-1.62083 0.91736,-3.22373 1.38477,-4.80274 2.0308,0.84352 4.13742,1.62319 6.3164,2.28906 -0.30322,1.13764 -0.60038,2.30938 -0.89648,3.48243 0.79258,-0.31966 1.56648,-0.64373 2.31836,-0.97461 0.16905,-0.64841 0.33298,-1.31295 0.50391,-1.95313 0.80048,0.21626 1.6103,0.41059 2.42382,0.59375 0.98827,-0.48271 1.95061,-0.97184 2.86915,-1.46484 -1.60979,-0.2815 -3.20329,-0.64419 -4.77149,-1.07031 0.74165,-2.72989 1.48551,-5.41072 2.17188,-8.08203 2.64096,0.79868 5.32455,1.51211 7.99609,2.08789 -0.13453,1.36343 -0.19507,2.70542 -0.1875,4.03125 0.6997,-0.43401 1.40631,-0.86835 2.06641,-1.29493 0.0404,-0.77711 0.094,-1.55411 0.16211,-2.33007 0.89913,0.16916 1.79165,0.3174 2.67968,0.45312 0.85755,-0.5737 1.74506,-1.15953 2.54688,-1.69336 -1.63907,-0.18065 -3.31596,-0.43369 -5.02149,-0.76172 0.25979,-2.26855 0.61426,-4.52437 0.9961,-6.76367 3.48828,1.07007 7.03212,1.98675 10.64843,2.67969 0.006,0.275 0.0249,0.55745 0.0332,0.83398 1.27571,-0.64863 2.62665,-1.40975 4.00781,-2.23828 -0.68453,-0.13482 -1.37162,-0.26717 -2.04688,-0.4082 0.023,-2.72703 0.19932,-5.40083 0.40235,-8.06641 2.34628,0.53313 4.7775,1.04827 7.30664,1.50586 -0.0872,0.75683 0.23061,3.02412 0.23061,3.02412 1.02972,-0.14981 1.66243,-1.77078 1.76744,-2.67646 z m -0.20507,-25.0566 c 1.15498,0.21301 3.42878,0.55167 6.0957,0.54297 0.19966,1.3435 0.38843,2.99264 0.55469,4.77148 -2.05201,-0.24436 -4.08078,-0.57537 -6.08399,-0.92578 -0.14128,-1.47529 -0.31916,-2.94688 -0.5664,-4.38867 z m 0.74023,6.52343 c 2.02504,0.32394 4.07244,0.5804 6.08789,0.76758 0.15334,2.18423 0.23937,4.57671 0.19922,7.10938 -2.03002,-0.24099 -4.07954,-0.59168 -6.0957,-0.97656 0.0226,-2.2012 -0.0353,-4.53961 -0.19141,-6.9004 z m -194.5996,18.30858 c -1.30467,1.03156 -2.56478,2.11119 -3.76367,3.22851 -1.45129,-1.53367 -2.67656,-2.87113 -3.73242,-4.04101 1.01976,-0.7198 2.06899,-1.41925 2.66797,-2.93066 -1.72913,-0.1395 -2.89614,0.6301 -4.01758,1.4287 -1.05511,-1.19052 -2.49707,-1.33593 -2.49707,-1.33593 0,0 -0.0667,1.45608 0.88184,2.53125 -2.10436,1.6261 -3.99559,3.358 -5.71289,5.10547 -1.55442,-1.45624 -3.08006,-2.93391 -4.53321,-4.48243 1.9365,-1.67909 3.98648,-3.21347 5.70215,-5.38671 -2.78278,0.71321 -4.90019,2.36076 -6.89941,4.07421 -1.35047,-1.5134 -2.16861,-4.0518 -4.78724,-6.01244 -3.54159,1.24517 -6.04855,3.79198 -7.96472,5.43041 -1.32549,-1.33089 -2.63578,-2.68874 -3.92773,-4.08203 2.10803,-1.7934 4.19851,-3.42959 5.62988,-5.57031 -2.63561,0.54176 -4.81066,2.23951 -6.99121,4.08984 -0.9453,-1.05287 -1.87716,-2.1375 -2.79687,-3.24609 2.09164,-1.58936 4.26436,-3.11393 5.19238,-4.7842 -3.04568,0.98196 -4.68488,2.20971 -6.27637,3.44431 -0.70314,-0.87804 -3.10575,-3.56808 -4.59118,-3.8863 -0.10502,1.52888 2.30345,4.23077 3.01305,5.11879 -1.98566,1.57528 -3.92347,3.16413 -5.80274,4.78125 -1.17113,-1.26421 -2.35819,-2.5847 -3.55859,-3.95508 1.82241,-1.35546 3.6931,-2.66358 4.78598,-4.55985 -2.61095,0.51023 -4.37918,1.76067 -6.10239,3.04422 -0.9807,-1.1433 -1.96815,-2.31365 -3.74609,-2.90429 0.20836,1.83719 1.17947,2.98708 2.14258,4.11133 -1.98923,1.53256 -3.89332,3.0937 -5.69922,4.64062 -1.23615,-1.3492 -2.43335,-2.69793 -3.60547,-4.04687 1.93885,-1.65515 3.97662,-3.25659 5.6416,-5.59767 -2.78878,0.84663 -4.86673,2.51662 -6.86621,4.20313 -0.87997,-1.03238 -1.71138,-2.05821 -2.54883,-3.08593 0.13133,-0.10707 0.27327,-0.23268 -0.22558,-1.11817 -2.34871,0.5944 -4.23058,2.28162 -6.02051,3.94825 -0.50087,-0.82317 -1.00553,-1.63475 -2.37305,-1.98438 -0.2713,1.42361 0.34107,2.37298 0.95117,3.31836 -1.39658,1.33025 -2.51482,2.43718 -3.51562,3.4375 -0.0527,-0.0976 -1.72838,-0.8699 -1.72838,-0.8699 -0.23812,1.26743 0.068,1.99556 0.25766,2.33865 -0.42103,0.42959 -0.50205,1.27919 -0.53993,2.26057 0,0 1.45143,-0.32472 1.59072,-0.4676 0.57374,0.94653 1.29585,2.07035 2.15625,3.3457 -0.99769,0.98914 -1.98103,1.95228 -2.29786,3.68946 1.65328,-0.17433 2.5757,-1.0604 3.48926,-1.95118 0.96725,1.35756 2.05374,2.80061 3.26953,4.28516 -0.8403,0.87706 -1.47817,1.56231 -1.97851,2.10351 0.57599,0.29821 1.20539,0.60689 1.88476,0.92383 0.47251,-0.51251 0.518,-0.57911 1.39063,-1.49023 1.03147,1.19176 2.15819,2.37636 3.33203,3.54297 0.38002,0.15838 0.65794,0.28539 1.06055,0.45117 1.1799,0.48584 2.52989,0.96965 3.96093,1.45117 -0.36311,-0.30283 -0.72116,-0.61074 -1.07617,-0.92187 0.93972,-0.91692 1.87886,-1.83567 2.8086,-2.76368 1.28483,1.43839 2.62195,2.81577 4.00586,4.12891 -0.46774,0.55232 -0.49559,0.59198 -0.86329,1.03125 0.69812,0.19099 1.40241,0.38101 2.14649,0.56836 0.1013,-0.11936 0.0936,-0.11248 0.19726,-0.23438 0.15091,0.13377 0.30693,0.26043 0.45899,0.39258 1.33446,0.3281 2.7388,0.64769 4.2207,0.96094 l 0.0508,-0.0703 c -1.14443,-0.96373 -2.24372,-1.93885 -3.3125,-2.92383 1.30213,-1.4982 2.88598,-3.27297 4.69141,-5.24023 1.49398,1.4108 3.01353,2.80595 4.54883,4.1875 -1.7311,2.14275 -2.7791,3.57558 -3.47461,4.55664 0.70916,0.13751 1.437,0.27277 2.17773,0.40625 0.69343,-0.94304 1.6086,-2.15682 2.79883,-3.63086 1.90558,1.6882 3.83976,3.34183 5.78711,4.97265 1.28402,0.17393 2.62065,0.33694 3.98047,0.49805 1.24141,-1.62435 2.48691,-3.26791 3.75976,-4.9375 2.02677,1.80181 4.03512,3.59486 6.0293,5.40039 -0.1876,0.35579 -0.18471,0.35865 -0.31445,0.61328 1.57082,0.1851 3.0699,0.36828 4.55469,0.55469 -0.5775,-0.53166 -1.15504,-1.05831 -1.73243,-1.58594 0.78003,-1.36671 1.86819,-3.13065 3.27539,-5.13086 1.62374,1.64187 3.23393,3.33518 4.82422,5.09766 -0.61674,0.92021 -1.07097,1.63496 -1.44922,2.23437 0.7426,0.0943 1.49295,0.19042 2.20704,0.2793 0.21612,-0.33428 0.35748,-0.56503 0.625,-0.9668 0.33064,0.3791 0.65585,0.77583 0.98437,1.16211 1.00431,0.12149 1.93687,0.22296 2.87695,0.32617 -0.89119,-1.094 -1.78776,-2.16762 -2.69336,-3.19921 1.15654,-1.65726 2.56828,-3.5831 4.28321,-5.69141 1.07683,0.97582 2.15339,1.95424 3.23242,2.97852 -2.3163,3.01472 -3.62447,5.13648 -4.13477,5.99023 0.75491,0.0801 1.51489,0.15855 2.22461,0.22266 0.71816,-1.12392 1.76463,-2.68956 3.38086,-4.79883 0.99987,0.97937 1.99445,2.00022 2.98438,3.05273 -0.91798,1.22782 -1.30419,1.79902 -1.47461,2.04688 0.89066,0.0183 1.71307,0.003 2.48633,-0.0391 0.18214,-0.25136 0.13904,-0.20341 0.37109,-0.51562 0.13486,0.1501 0.26771,0.31121 0.40234,0.46289 0.85956,-0.0754 1.62615,-0.20423 2.3125,-0.38086 -0.49257,-0.57152 -0.98469,-1.14882 -1.48047,-1.69727 1.16884,-1.4957 2.68858,-3.32118 4.46485,-5.26367 0.99674,0.89013 1.99946,1.74808 2.99804,2.57422 0.40628,-0.55295 0.76007,-1.1264 1.07227,-1.70898 -0.89997,-0.74872 -1.80406,-1.52134 -2.70508,-2.32617 1.18313,-1.23146 2.44149,-2.47018 3.79492,-3.68164 0.22383,0.15883 0.44796,0.3091 0.67188,0.46093 0.12769,-0.92686 0.19373,-1.81317 0.17578,-2.57617 -0.009,-0.37235 -0.0488,-0.75851 -0.10351,-1.1543 -0.28031,0.2297 -0.56461,0.45609 -0.83985,0.68946 -0.89235,-0.70213 -1.76204,-1.4648 -2.61914,-2.24219 0.92212,-0.63101 1.86645,-1.22683 2.83789,-1.76367 -0.0676,-0.36033 -0.12777,-0.73171 -0.18555,-1.11328 l -0.4414,-0.83008 c -1.28897,0.68745 -2.52284,1.47604 -3.71875,2.31054 -1.10972,-1.07035 -2.11965,-2.10689 -3.00196,-3.04882 0.353,-0.25543 0.69952,-0.5231 0.49414,-1.59473 -1.00418,-0.52776 -1.42722,-0.20174 -1.85742,0.11231 -1.05462,-1.17551 -2.51757,-1.35938 -2.51757,-1.35938 0,0 -0.12177,1.4264 0.89843,2.58008 z M 265.92188,626.6875 c 0.84237,1.03351 1.67839,2.06621 2.5625,3.10352 -1.3641,1.18201 -2.69847,2.37999 -4.01368,3.5957 -0.73791,-1.11395 -1.46959,-2.2345 -2.18945,-3.38672 1.21247,-1.13624 2.41726,-2.25617 3.64063,-3.3125 z m 257.6582,1.9043 c 2.13221,0.56071 4.6368,1.16186 7.35937,1.7207 -0.0788,3.01527 -0.26658,5.6277 -0.44922,7.64648 -2.54875,-0.46411 -4.9932,-0.9907 -7.35351,-1.53125 0.20018,-2.59016 0.38714,-5.18747 0.44336,-7.83593 z m -229.6836,1.51953 c 0.94085,1.13779 1.89348,2.24709 2.85743,3.32422 -1.76106,1.55375 -3.50639,3.19194 -5.20508,4.85547 -1.08518,-1.09511 -2.18311,-2.23682 -3.29102,-3.41016 1.81898,-1.63566 3.69523,-3.22948 5.63867,-4.76953 z m -12.04687,0.69531 c 1.23448,1.41139 2.45651,2.77228 3.66016,4.07227 -1.77459,1.55851 -3.52344,3.14296 -5.24805,4.75976 -1.38349,-1.40848 -2.73545,-2.82043 -4.0586,-4.23828 1.79138,-1.53401 3.67932,-3.07925 5.64649,-4.59375 z m -12.12305,0.39844 c 1.16932,1.34571 2.36235,2.69031 3.59375,4.03515 -1.64346,1.44364 -3.18651,2.85485 -4.59961,4.18946 -1.07035,-1.4234 -2.10269,-2.88734 -3.11914,-4.37305 1.34109,-1.30133 2.70943,-2.58917 4.125,-3.85156 z m -8.8164,0.0898 c 0.72436,1.11556 1.45569,2.23497 2.20117,3.35547 -1.21263,1.14212 -2.43146,2.32658 -3.64844,3.51953 -0.86262,-1.29039 -1.60507,-2.45294 -2.15234,-3.36523 0.96742,-0.96947 2.17901,-2.15037 3.59961,-3.50977 z m 49.8789,3.29492 c 1.27315,1.7814 2.6134,3.44348 4.00977,5.01563 -1.61503,1.4587 -3.14981,2.96788 -4.62305,4.52734 -1.74416,-1.66855 -3.47987,-3.33548 -5.19531,-5.02734 1.83121,-1.56224 3.77209,-3.08347 5.80859,-4.51563 z m -12.67383,0.33204 c 1.29524,1.40187 2.60454,2.7666 3.92774,4.0996 -1.75139,1.56537 -3.39551,3.14327 -4.90625,4.6875 -1.37087,-1.28984 -2.75048,-2.60123 -4.15234,-3.98828 1.68162,-1.64992 3.4024,-3.26867 5.13085,-4.79882 z m 213.53711,0.61523 c 2.57704,0.74299 5.76069,1.59623 9.32813,2.44727 -0.20014,2.64938 -0.37427,5.33254 -0.40625,8.09765 -3.52984,-0.78186 -6.92647,-1.66634 -10.26172,-2.62891 0.47337,-2.67406 0.95452,-5.32235 1.33984,-7.91601 z m -224.86328,0.70898 c 1.12226,1.18872 2.23547,2.34451 3.33399,3.45313 -1.67478,1.67837 -3.28828,3.35466 -4.78516,4.95898 -1.22848,-1.17955 -2.44256,-2.3636 -3.63477,-3.55664 1.66435,-1.64039 3.35812,-3.26003 5.08594,-4.85547 z m -22.51562,0.11524 c 1.00141,1.47746 2.02975,2.94063 3.08203,4.39258 -1.30531,1.26048 -2.45975,2.39878 -3.47266,3.43164 -1.20051,-1.47772 -2.28112,-2.91837 -3.23047,-4.26172 1.20316,-1.18881 2.41461,-2.37475 3.6211,-3.5625 z m 220.9375,0.041 c 1.73719,0.68426 3.47805,1.37533 5.22265,2.07422 -0.29535,2.76025 -0.75646,5.40175 -1.33007,7.98242 -2.06601,-0.79724 -4.00591,-1.58618 -5.78321,-2.34179 0.76748,-2.47414 1.41466,-5.03302 1.89063,-7.71485 z m -210.52344,0.30664 c 1.34145,1.43853 2.71101,2.87072 4.11328,4.29883 -1.63525,1.55808 -3.26344,3.16055 -4.89453,4.78907 -1.37396,-1.55301 -2.68616,-3.14166 -3.95508,-4.76563 1.45227,-1.37457 3.03693,-2.82968 4.73633,-4.32227 z M 492.37305,639.25 c 2.14785,0.85796 4.30948,1.70041 6.48047,2.5293 -0.43171,2.57401 -0.99207,5.08065 -1.60157,7.58008 -2.14332,-0.69068 -4.23486,-1.42818 -6.24414,-2.17579 0.57649,-2.56075 1.04953,-5.18743 1.36524,-7.93359 z m -188.91407,1.19141 c 1.77121,1.75184 3.5593,3.46907 5.35157,5.18359 -1.43724,1.59224 -2.82155,3.24072 -4.17188,4.94141 -1.99436,-1.77956 -4.00313,-3.58714 -6.04492,-5.48047 1.49855,-1.53208 3.12996,-3.09518 4.86523,-4.64453 z m 25.64258,0.0176 c 1.09215,1.21365 2.38092,2.62205 3.91602,4.24414 -1.7025,1.68041 -3.28224,3.39238 -4.71094,5.06641 -1.62792,-1.46424 -3.22232,-2.90176 -4.79297,-4.33984 1.67832,-1.70682 3.5339,-3.39078 5.58789,-4.97071 z m -13.09179,0.47852 c 1.49135,1.59726 3.03499,3.12066 4.61718,4.60547 -1.51082,1.64266 -2.83988,3.26858 -4.01562,4.82226 -1.67204,-1.65796 -3.34567,-3.26604 -5.01758,-4.86718 1.40928,-1.5891 2.87567,-3.11905 4.41602,-4.56055 z m -24.45118,0.19141 c 1.41723,1.40258 2.80964,2.72724 4.19336,4.02929 -1.67781,1.77952 -3.18786,3.48742 -4.48047,5.03125 -1.50961,-1.3596 -3.00362,-2.73326 -4.47265,-4.12109 1.49383,-1.59997 3.09584,-3.26949 4.75976,-4.93945 z m 48.00977,0.43945 c 0.86271,0.93103 1.8696,1.9654 2.97656,3.04102 -1.30639,1.00812 -2.54555,2.07222 -3.71289,3.16992 -1.04086,-1.03605 -2.029,-2.03548 -2.98047,-3.02344 1.18616,-1.10779 2.43046,-2.1735 3.7168,-3.1875 z m -71.01758,0.82226 c 1.24986,1.66985 2.53246,3.31248 3.87305,4.89454 -0.97094,0.9807 -1.95206,1.97956 -2.9336,2.99023 -1.55065,-1.47379 -2.99469,-3.00768 -4.31445,-4.54297 0.98258,-1.00286 2.10348,-2.11078 3.375,-3.3418 z m 206.23047,0.0703 c 1.48608,0.72091 3.42556,1.64006 6.04687,2.78906 -0.77954,2.31407 -1.65662,4.57871 -2.55664,6.83789 -2.03947,-1.19361 -3.86901,-2.35794 -5.43945,-3.41992 0.69394,-2.08167 1.36343,-4.1652 1.94922,-6.20703 z m 25.98437,0.0371 c 2.43696,0.90826 4.88656,1.7914 7.36915,2.59179 -0.46616,2.34138 -0.89931,4.6502 -1.20704,6.91016 -2.58231,-0.56796 -5.18562,-1.26689 -7.75585,-2.05078 0.59963,-2.45071 1.15706,-4.91427 1.59374,-7.45117 z m -220.49414,0.006 c 1.21905,1.22001 2.46247,2.42918 3.71875,3.63476 -1.81203,1.97721 -3.39348,3.75286 -4.70117,5.26367 -1.3597,-1.30681 -2.66639,-2.63432 -3.91797,-3.98632 1.6298,-1.63713 3.25859,-3.27676 4.90039,-4.91211 z m 185.28321,3.27929 c 0.2243,0.19018 1.93307,1.6184 4.88281,3.68946 -0.51737,1.51208 -1.03152,2.96744 -1.55273,4.40039 -1.58713,-1.15686 -3.16462,-2.3812 -4.74415,-3.64063 0.52382,-1.45362 1.01031,-2.92913 1.41407,-4.44922 z m -121.52539,0.21485 c 0.89284,0.81662 1.80554,1.62922 2.75976,2.38672 -1.29497,1.17269 -2.49364,2.3628 -3.6289,3.54492 -0.97951,-0.9036 -1.94585,-1.80564 -2.89258,-2.72657 1.18465,-1.11649 2.43998,-2.1954 3.76172,-3.20507 z m 138.66992,0.0566 c 1.82384,0.77652 3.8167,1.58652 5.93945,2.40234 -0.64566,2.63902 -1.38858,5.25208 -2.16211,7.88672 -2.28024,-1.02997 -4.43376,-2.1271 -6.42383,-3.23437 0.92736,-2.31753 1.83576,-4.65093 2.64649,-7.05469 z m -148.28516,0.0976 c 0.94973,0.98589 1.93612,1.98418 2.97656,3.01954 -1.64186,1.65448 -3.11838,3.33087 -4.40234,4.91015 -1.06852,-1.01655 -2.12953,-1.98175 -3.18945,-2.94531 1.40327,-1.64924 2.94946,-3.33418 4.61523,-4.98438 z m -37.20312,0.38282 c 2.09467,1.94265 4.15011,3.79248 6.1875,5.60937 -1.28748,1.67716 -2.55393,3.41565 -3.81055,5.20117 -2.29979,-1.89893 -4.57707,-3.83693 -6.81641,-5.82226 1.27994,-1.52945 2.7744,-3.22129 4.43946,-4.98828 z m 24.88672,0.37109 c 1.6099,1.47518 3.24916,2.93529 4.90429,4.41992 -1.63547,2.00441 -3.03489,3.88782 -4.17773,5.51172 -1.58196,-1.74423 -3.17788,-3.41762 -4.7832,-5.03906 1.17846,-1.57098 2.5238,-3.22363 4.05664,-4.89258 z m -11.82422,0.125 c 1.713,1.63995 3.42704,3.28422 5.13086,4.97461 -1.41269,1.98698 -2.52766,3.7655 -3.35352,5.19141 -1.92123,-1.73611 -3.85153,-3.45878 -5.79297,-5.18555 1.3011,-1.68194 2.63235,-3.35064 4.01563,-4.98047 z m 180.26367,2.14063 c 2.00754,0.74336 4.09132,1.47815 6.23633,2.16406 -0.68293,2.66414 -1.42487,5.35623 -2.17188,8.11133 -2.15887,-0.66601 -4.24717,-1.45297 -6.26367,-2.30079 0.78133,-2.65086 1.53743,-5.29206 2.19922,-7.9746 z m -151.70703,1.42578 c 0.96853,0.94193 1.95905,1.86593 2.96484,2.79296 -1.72888,1.88983 -3.20299,3.65112 -4.37109,5.13868 -0.98879,-1.04795 -1.9805,-2.05838 -2.97266,-3.03125 1.27563,-1.57478 2.74759,-3.25027 4.37891,-4.90039 z m 133.33789,0.0625 c 1.55898,1.0451 3.36278,2.18004 5.34375,3.33203 -0.59705,1.47908 -1.18783,2.97091 -1.7793,4.46875 -1.74261,-1.06155 -3.44578,-2.20311 -5.13476,-3.38672 0.5234,-1.42917 1.04559,-2.89147 1.57031,-4.41406 z m -8.7168,1.42578 c 1.5838,1.18805 3.15491,2.36684 4.79297,3.56054 -0.69907,1.88362 -1.33997,3.54903 -1.93359,5.06641 -1.99001,-1.21495 -3.66371,-2.31029 -5.125,-3.28711 0.78281,-1.76166 1.5572,-3.53032 2.26562,-5.33984 z m 15.83985,2.92578 c 2.04286,1.12884 4.26761,2.24341 6.61132,3.28906 -0.46381,1.57163 -0.92209,3.17549 -1.38086,4.80078 -2.43439,-1.09156 -4.76592,-2.29262 -7.02929,-3.59765 0.5942,-1.50016 1.19305,-2.99783 1.79883,-4.49219 z m -9.34766,1.84766 c 1.66015,1.18325 3.33955,2.34833 5.05859,3.45312 -0.55503,1.44936 -1.09086,2.91952 -1.59765,4.41797 -1.85076,-0.96402 -3.65111,-1.97128 -5.34375,-2.9707 0.57403,-1.45725 1.19919,-3.07218 1.88281,-4.90039 z"
         transform="scale(0.26458333)" />
      <path
         style="font-variation-settings:normal;opacity:1;vector-effect:none;fill:#cccccc;fill-opacity:1;stroke:none;stroke-width:0.133833;stroke-linecap:butt;stroke-linejoin:miter;stroke-miterlimit:4;stroke-dasharray:none;stroke-dashoffset:0;stroke-opacity:1;stop-color:#000000;stop-opacity:1"
         d="m 77.057146,96.417483 8.200109,-1.191106 10.335286,-6.071243 c 0,2.834822 1.27567,6.803572 1.27567,6.803572 l -0.166755,14.039414 -2.80633,5.06141 1.437557,4.61718 c -0.431365,1.48941 -3.111821,6.8447 -5.031808,10.06361 -1.919988,3.21892 -2.121372,5.08036 -2.267858,5.98857 -0.177175,1.09849 0,2.65764 -0.177176,3.64983 -0.177177,0.99219 -0.734691,2.3907 -1.240234,3.40179 -0.505543,1.01108 -0.948257,3.08381 -1.820833,4.81963 -0.872577,1.73582 -2.904218,9.56352 -3.154783,10.66201 -0.244296,1.07099 -0.285886,1.84584 -0.183256,2.54097 0.102629,0.69514 0.25392,1.44316 0.443115,1.97469 -0.358687,0.39311 -0.748479,1.04899 -1.012945,1.70089 -0.240782,0.59352 -0.172026,1.16936 0.496094,1.87807 0.708706,0.70871 2.188946,1.34085 4.795573,1.96075 2.641109,0.62814 5.230627,0.95486 5.728736,0.73045 0.498109,-0.2244 0.555693,-0.48455 0.739717,-0.98756 0.184024,-0.50302 0.564551,-0.95601 0.964126,-1.31764 0.399578,-0.36163 0.374008,-0.93261 0.300678,-1.15259 0.457055,-0.216 0.962059,-0.51981 1.703843,-1.52846 0.741784,-1.00864 1.453279,-2.98172 1.804069,-5.53748 0.350792,-2.55577 0.501131,-3.35758 1.603618,-5.31198 1.102491,-1.95441 3.006781,-4.30973 3.457801,-6.96572 0.45102,-2.65599 0,-4.71062 -0.0501,-5.56254 -0.0501,-0.85192 0.40091,-1.25283 1.00227,-1.75396 0.60135,-0.50113 1.90429,-1.80407 3.05689,-3.50791 1.1526,-1.70384 3.20724,-6.26413 3.8587,-7.91786 0,0 0.87057,0.79502 1.36667,3.16919 0.49609,2.37416 0.14174,2.58677 1.52371,3.75614 1.38198,1.16936 2.3033,3.2246 2.3033,4.99637 0,1.77176 0.3084,3.35672 0.9201,4.53208 0.6117,1.17536 1.2108,1.94959 2.03287,2.63765 0.82207,0.68806 2.61036,4.98457 3.49625,6.9335 0.88588,1.94894 2.62968,3.58859 4.11049,5.56334 1.4763,1.96874 2.42857,4.07994 2.55134,4.89007 0.12756,0.84177 0.19755,2.56733 0.63783,3.07106 1.48828,0.38979 4.36818,-0.29244 7.09669,-1.53267 2.72852,-1.24023 4.42677,-3.50386 4.45521,-4.58582 0.0284,-1.08196 -0.67327,-0.95676 -0.81501,-2.33873 -0.14174,-1.38198 -0.28348,-4.53572 -1.59459,-6.59096 -1.3111,-2.05525 -1.06306,-0.81501 -1.8072,-2.94113 -0.74414,-2.12612 -1.07487,-4.48847 -2.70489,-8.10286 -1.63002,-3.6144 -3.26004,-5.52791 -4.39397,-7.37054 -0.15034,-1.79177 -0.0183,-3.88502 -0.47247,-6.92169 -0.45418,-3.03667 -1.05254,-5.82769 -1.71271,-8.35091 l 2.43322,-2.6104 c 0,0 -0.3112,-1.26037 -0.98037,-3.04743 -0.67578,-1.80469 -0.91184,-3.29289 -1.77177,-5.35073 -0.91811,-2.19706 -1.84263,-4.74832 -2.26785,-6.09486 0,0 0.6024,-0.66146 1.02762,-1.01581 0.42522,-0.354357 1.09849,-0.531533 1.84263,-0.425227 0.74414,0.106306 1.59459,-0.885882 3.11831,-1.665457 1.52371,-0.779576 1.09849,-0.992188 2.94112,-1.346541 1.84264,-0.354352 2.72852,-1.381975 3.47266,-2.941127 0.74414,-1.559152 0.90331,-3.433564 1.00353,-4.18526 0.10023,-0.751695 -0.60135,-1.804069 -0.85192,-2.706104 -0.25056,-0.902034 -1.35305,-2.455539 -2.35531,-4.109269 -1.00226,-1.65373 -2.10475,-3.30746 -2.90656,-4.860964 -0.80181,-1.553504 -2.10475,-2.004522 -2.7061,-3.808591 -0.60136,-1.804069 -0.42608,-2.469648 -1.26688,-4.201371 0,0 -0.63783,-1.275669 -1.77176,-1.807199 -1.13393,-0.531529 -8.57534,-2.055245 -8.57534,-2.055245 l -1.45284,-1.736328 -13.37684,1.225976 c 0,0 -0.42529,0.121782 -0.89301,0.489258 l -3.943882,2.596057 c 0,0 -2.976562,0.389788 -5.350725,1.41741 -2.374163,1.027623 -4.039621,3.827009 -6.272043,5.634208 -2.232421,1.807199 -6.66183,7.228795 -6.66183,7.228795 0,0 -3.685268,0.708705 -8.327288,0.921317 -4.64202,0.212611 -8.787946,0.779576 -9.744699,1.204799 -0.956752,0.425223 -0.732329,1.535528 -0.732329,1.535528 0,0 0.583229,2.772806 0.608286,4.100801 0.02506,1.327996 0.07517,1.603617 0.776752,2.129804 0.701582,0.526187 2.104748,2.113099 2.80633,2.99843 0.481084,0.240542 1.070004,0.219466 1.835206,0.02911 0.980275,-0.243859 2.088103,-1.237962 2.761373,-1.131657 0.67327,0.106306 2.551339,0.67327 4.039621,0.956752 1.488281,0.283483 3.257294,0.730448 3.257294,0.730448 z"
         id="path885" />
      <path
         id="path889"
         style="font-variation-settings:normal;opacity:1;vector-effect:none;fill:#ffffff;fill-opacity:1;stroke:none;stroke-width:0.133833;stroke-linecap:butt;stroke-linejoin:miter;stroke-miterlimit:4;stroke-dasharray:none;stroke-dashoffset:0;stroke-opacity:1;stop-color:#000000;stop-opacity:1"
         d="m 118.49554,146.5957 c 0,0 1.67552,1.15424 2.42722,3.3091 0.75169,2.15486 1.5535,4.25961 2.90655,5.66277 1.35306,1.40317 2.61607,2.64797 3.30746,3.60814 0.61835,0.85874 0.85193,2.25509 1.30294,3.35757 0.45102,1.10249 1.65373,1.05238 1.65373,1.05238 0,0 -0.45101,0.65147 -1.00226,0.45101 0,0 0.24755,0.44203 1.02712,0.44203 0,0 -0.38978,0.46066 -1.02762,0.53153 0,0 -0.0709,0.4961 0.28348,0.42522 0.35436,-0.0709 0.67327,-0.24804 0.67327,-0.24804 0,0 0.24805,0.38979 -0.1063,0.67327 -0.35435,0.28348 -0.17718,0.7087 0.6024,0.53153 0,0 -0.36617,0.98037 -1.25205,0.66146 -0.88588,-0.31892 -0.35435,-0.88589 -0.77957,-1.45285 -0.42523,-0.56696 0.14174,-0.95675 0.0709,-1.38198 -0.0709,-0.42522 -1.59459,-3.01199 -2.83483,-4.71289 -1.24023,-1.70089 -3.13805,-3.95508 -3.83964,-5.30814 -0.70158,-1.35305 -2.56594,-5.28184 -3.41277,-7.60211 z m 12.0598,18.14286 c 0,0 0.56696,0.21261 1.41741,-0.28348 0.85045,-0.49609 1.43266,-0.67847 2.09068,-0.85045 0.67649,-0.17681 1.17723,-0.28348 1.27567,-0.81501 0,0 -3.40178,0.85045 -4.78376,1.94894 z M 96.360306,109.70759 c -0.531529,1.63002 -2.958135,5.10835 -3.508092,5.77595 -0.549956,0.6676 -0.65862,1.83579 -0.106305,2.76395 0.552314,0.92816 1.55665,1.10174 2.303292,1.21661 -0.431365,0.99455 -1.030772,2.46157 -1.700893,3.68526 -0.670121,1.22371 -1.204799,2.3033 -2.055246,3.79158 -0.850446,1.48828 -1.808085,2.85848 -2.551339,4.71289 -0.743254,1.85441 -0.744141,2.97657 -0.992188,3.86245 -0.248046,0.88588 0,2.65764 -0.177176,3.64983 -0.177177,0.99219 -0.602399,2.12612 -1.240234,3.40179 -0.637835,1.27566 -0.935491,2.63875 -1.169364,3.36635 -0.233873,0.7276 -0.744141,1.13392 -1.311105,3.01199 -0.566964,1.87807 -1.559152,5.59878 -1.700893,6.37835 -0.141741,0.77958 -0.744141,1.27567 -0.744141,2.37416 0,1.0985 -0.408009,1.65642 -0.308539,2.61614 0.09947,0.95972 0.359684,1.22188 0.539043,1.93139 -0.323252,0.10963 -0.443615,0.39686 -0.428905,0.78882 0.01471,0.39196 -0.227105,0.63747 -0.604798,1.23099 -0.377693,0.59352 0.07087,1.38197 0.779576,2.09068 0,0 -0.296404,-0.79561 0.150339,-1.54986 0.472891,-0.79839 0.225831,-1.23298 0.770978,-1.30858 0.58605,-0.0812 1.34654,0.87407 4.783761,1.75995 3.437221,0.88588 4.890067,0.81501 5.811384,0.53153 -0.761197,-0.35459 -1.72292,-0.3666 -3.15239,-0.66971 -1.42947,-0.30311 -4.316758,-1.05735 -5.645198,-1.49792 -1.32844,-0.44057 -2.142274,-0.96363 -2.045604,-1.26959 0.08427,-0.26672 0.3326,0.19994 0.779576,0.14174 -0.44263,-0.44263 -0.530772,-0.86171 -0.773496,-1.33008 -0.242724,-0.46838 -0.395868,-1.64648 0.06479,-2.88672 0.460658,-1.24023 0.885881,-1.73633 1.063058,-2.76395 0.177176,-1.02762 0.106305,-1.66546 0.602399,-3.22461 0.496094,-1.55915 1.149,-3.55348 1.700244,-4.60585 0.551243,-1.05237 0.701582,-1.55351 1.052373,-3.00678 0.350792,-1.45328 0.801809,-1.75396 1.703844,-3.50792 0.902034,-1.75395 0.751695,-3.15712 0.651469,-4.81085 -0.100226,-1.65373 -0.05011,-2.55576 0.551243,-4.00904 0.601357,-1.45328 1.353052,-2.10475 2.355313,-4.15938 1.002261,-2.05464 2.843356,-5.39014 3.808591,-7.16617 0.965235,-1.77603 1.378109,-3.08195 1.528448,-4.0341 l 9.341509,-0.32822 c 0.38369,1.24411 2.05436,4.34575 2.34789,5.46109 0.35438,1.34653 1.17984,4.223 1.5154,5.38252 0.33556,1.15952 0.48801,1.96912 0.68159,2.90933 0.19357,0.94021 0.62993,2.62232 1.23129,3.42413 0.60136,0.80181 1.79547,1.40065 2.2966,2.90404 0.50113,1.50339 0.40091,2.90656 0.65147,4.6104 0.25057,1.70385 1.25283,2.60588 1.25283,2.60588 -0.20045,-0.65147 -0.38623,-1.80949 -0.38623,-2.94807 0,-1.13859 0.10642,-2.68729 -0.2384,-3.64861 -0.35124,-0.97921 -0.67831,-1.62186 -1.83091,-2.82457 -1.1526,-1.20271 -1.55351,-1.75396 -2.05464,-4.25961 -0.50113,-2.50565 -1.21731,-5.23794 -1.81971,-6.97427 -0.6024,-1.73633 -1.57962,-4.59349 -2.05569,-5.34518 -0.47608,-0.7517 -0.9563,-0.85636 -0.9563,-0.85636 0,0 0.45517,-0.22107 1.95856,-0.3213 1.50339,-0.10023 3.20723,0.33409 5.06141,1.03567 1.85419,0.70158 4.63546,0.68488 5.83817,0.0585 1.20271,-0.62641 1.3447,-1.06072 1.36976,-1.88759 0,0 -0.65147,-4e-5 -1.07743,0.10019 -0.42596,0.10023 -0.70158,-0.65147 -1.12755,-1.27788 -0.42596,-0.62642 -0.17573,-1.47517 0.28493,-2.43192 0.46065,-0.95676 0.68508,-1.60614 1.09849,-1.7009 0.41341,-0.0948 0.77957,-1.3111 0.77957,-1.3111 0,0 0.92132,1.45284 1.41742,2.76395 0.49609,1.3111 1.55915,3.18917 2.09068,3.75614 0.53152,0.56696 2.30329,-0.0354 3.1183,0.24805 0.81501,0.28348 -0.70871,1.48828 -0.70871,1.48828 0,0 0.0236,0.4016 0.11812,0.69689 0,0 1.19299,-0.37798 1.93713,-0.90951 0.74414,-0.53152 0.6024,-1.16936 0.49609,-1.70089 0,0 -0.56696,-0.49609 -1.55915,-0.31892 -0.99219,0.17718 -1.94894,0.21262 -2.62221,-0.28348 0,0 -0.67328,-0.42521 -1.06306,-1.27566 -0.38978,-0.85045 -1.52371,-3.11831 -2.05524,-4.00419 -0.53153,-0.88588 -1.0985,-1.52372 -1.31111,-1.66546 -0.21261,-0.14174 -0.63783,0.63783 -1.48828,2.33873 -0.85044,1.70089 -1.73633,3.36635 -1.8072,3.82701 -0.0709,0.46066 0.95676,1.09849 1.34654,1.73632 0.38979,0.63784 -0.0709,1.02763 -0.85044,0.81502 -0.77958,-0.21262 -3.18918,-0.67327 -5.74052,-1.27567 -2.55134,-0.6024 -3.61439,-0.0354 -6.02399,-0.21262 -2.4096,-0.17717 -3.012,-0.49609 -4.78376,0.0354 -1.77177,0.53153 -3.012001,0.10631 -4.287671,-0.0354 -1.275669,-0.14174 -2.799386,0.14175 -2.976562,-0.17717 -0.177176,-0.31892 0.322533,-0.98983 0.779576,-1.66546 0.457046,-0.67563 1.34654,-2.19699 1.559152,-3.1183 z m 17.146424,-4.13379 c 0,0 -0.71627,-0.35468 -0.96432,-1.63035 -0.24805,-1.27567 -1.74249,-3.39999 -2.04316,-4.201803 -0.30068,-0.801808 0.8018,-2.004521 2.3052,-3.207234 1.50339,-1.202713 2.40542,-1.453278 3.35757,-2.605878 0.95215,-1.1526 2.05463,-1.252826 3.15712,-2.054634 1.10249,-0.801809 1.30294,-1.653731 3.50791,-2.505652 0,0 -0.4009,-0.100226 -1.35305,-0.551244 -0.95215,-0.451017 -2.05463,-2.15486 -2.45554,-4.009043 -0.4009,-1.854182 -0.80181,-3.80859 -0.90203,-6.11379 -0.10023,-2.3052 0.20045,-5.011304 1.00226,-6.364356 0.80181,-1.353052 0.90203,-2.054634 1.70384,-2.956669 0,0 -0.75169,0.05011 -1.65373,1.252826 -0.90203,1.202713 -1.1526,2.255087 -1.5535,4.159382 -0.40091,1.904295 -0.40091,3.708365 -0.30068,5.562547 0.10022,1.854182 0.55124,3.608139 1.40316,5.662773 0.85193,2.054635 1.20272,3.4578 1.20272,3.4578 0,0 -1.40317,1.553504 -2.75622,2.15486 -1.35305,0.601357 -1.70384,1.753957 -2.55577,2.405426 -0.85192,0.65147 -3.30746,2.956669 -4.20949,3.558026 -0.90203,0.601356 -1.00471,0.649435 -1.42944,0.976187 -0.42474,0.326752 -0.2744,1.880256 0.0764,3.233306 0.35079,1.35305 2.40683,4.59837 4.46076,3.77752 z M 95.173009,89.501883 c -0.121643,2.331481 0.281488,4.767372 1.144247,6.347652 l 1.03567,0.217156 c -1.013584,-2.225265 -1.212227,-4.927007 -1.302939,-7.316503 l -0.11693,-3.324165 c -0.533101,-2.769868 -0.620884,-5.769116 -0.300679,-8.569329 l -1.503391,2.3052 0.116927,7.700703 z m 9.278351,-7.670037 c 0,0 0.78602,1.172047 0.78602,2.725551 0,1.553504 0.25056,2.204974 0.4009,3.808591 0.15034,1.603617 0.35079,2.655991 0.65147,3.207234 0,0 -0.30068,-0.902034 -0.25056,-3.558025 0.0501,-2.655991 -0.10023,-6.163904 -0.10023,-7.617182 z m 12.24883,-17.445964 c 0,0 0.42522,0.566964 0.88588,1.063058 0,0 0.81501,-0.07087 2.19699,0.6024 1.38197,0.67327 1.84263,0.850446 3.50809,0.956752 1.66546,0.106306 2.83482,0.425223 3.64983,1.27567 0.81501,0.850446 1.13393,1.665457 1.13393,1.665457 0,0 -0.53153,-0.992187 -1.73633,-1.275669 -1.2048,-0.283483 -2.05524,-0.956753 -3.50809,-1.063059 -1.45285,-0.106305 -2.26786,-0.67327 -3.29548,-0.602399 -1.02762,0.07087 -1.70089,-0.248047 -2.16155,-0.67327 -0.46066,-0.425223 -0.67327,-1.94894 -0.67327,-1.94894 z m -10.39435,12.154297 0.70871,-0.283482 c 0,0 0.35435,-1.665458 1.3111,-3.153739 0.95676,-1.488281 1.73633,-2.728516 3.26005,-4.890067 1.52372,-2.161551 2.65764,-2.976562 2.65764,-2.976562 l 0.4961,-1.346541 c 0,0 -0.77958,-0.141741 -1.59459,0.460659 l -6.31929,2.433221 c 0,0 -1.6442,7.545351 -0.51972,9.756511 z m -43.898405,7.733244 c 1.453278,-0.200452 5.011304,-0.601359 6.214016,-0.651469 1.202713,-0.05011 3.808591,0.150339 6.113791,-0.350792 2.3052,-0.50113 5.161643,-0.801808 5.161643,-0.801808 0,-0.551247 0.601356,-0.601357 0.601356,-0.601357 0.751696,-1.403165 2.355313,-3.30746 4.159382,-4.96119 1.804069,-1.65373 3.139855,-2.676348 3.954866,-3.597665 0.815011,-0.921317 1.056978,-2.176229 2.403519,-2.778629 1.34654,-0.602399 2.639405,-1.703411 3.525287,-1.774281 0.885882,-0.07087 1.935338,-0.503299 2.763951,-0.744141 0.38889,-0.113031 0.787498,-0.05014 1.417411,-0.141741 l 3.282463,-1.804669 c -0.0249,1.313634 0.80444,2.442504 1.01706,4.356008 0.21261,1.913505 0.60243,2.693081 0.63783,3.89788 0.0354,1.204799 0.27447,4.641872 0.27447,4.641872 l -0.0619,0.230477 c 0,0 -0.6024,-3.171456 -0.92131,-4.978655 -0.31892,-1.807199 -0.67327,-2.905692 -1.45285,-3.791574 -0.77958,-0.885881 -4.113871,-1.175011 -4.113871,-1.175011 0,0 -1.047867,-0.147905 -1.827443,0.241883 -0.779576,0.389788 -2.374163,0.74414 -3.36635,1.275669 -0.992188,0.531529 -1.559152,0.708706 -2.019811,1.523717 -0.460658,0.815011 -0.283482,2.01981 -1.133928,2.515904 -0.850447,0.496094 -0.956752,1.523716 -1.523717,2.090681 0,0 -0.177181,-0.779576 -0.141741,-1.346541 0,0 -0.74414,0.141741 -1.34654,1.027623 -0.6024,0.885882 -2.161551,1.807199 -3.224609,3.118304 -1.063058,1.311105 -1.630023,1.948939 -1.984375,2.338727 -0.354353,0.389788 -0.106306,0.708706 0.318917,0.992188 0,0 -0.815011,0.566969 -1.700893,0.531529 -0.885882,-0.03543 -2.870257,0.460658 -3.897879,0.637835 -1.027623,0.177176 -3.22461,-0.460659 -5.988561,0.106306 -2.763951,0.566964 -5.38616,0.921317 -6.66183,1.063058 -1.27567,0.141741 -1.736328,0.566964 -1.913505,1.240234 0,0 1.034247,1.160836 0.934021,2.614114 -0.100227,1.453279 -0.250566,2.95667 0.200452,3.257348 0.451017,0.300678 2.004521,1.403165 3.056895,3.357573 0,0 -1.002261,-1.102487 -1.804069,-1.854182 C 62.557774,93.226952 62.463511,93.167286 61.856191,92.926274 61.4101,92.749245 61.418485,92.26409 61.484909,91.691572 l -1.031817,-6.115305 c 0.300613,-0.601261 0.501065,-1.102392 1.954343,-1.302844 z" />
      <path
         id="path893"
         style="font-variation-settings:normal;opacity:1;vector-effect:none;fill:#737373;fill-opacity:1;stroke:none;stroke-width:0.133833;stroke-linecap:butt;stroke-linejoin:miter;stroke-miterlimit:4;stroke-dasharray:none;stroke-dashoffset:0;stroke-opacity:1;stop-color:#000000;stop-opacity:1"
         d="m 89.747071,165.1201 c -1.153848,-0.17784 -4.419563,-0.97485 -5.645198,-1.49792 -1.19264,-0.509 -1.364478,-0.84959 -1.266028,-1.12785 0.09845,-0.27826 0.505986,-0.21867 0.757038,0.11775 0.251051,0.33642 0.375545,0.504 1.262772,0.7563 0.887227,0.2523 2.62221,0.56696 4.57115,1.02762 1.94894,0.46066 2.758177,0.42233 3.685268,0.86227 -0.88648,0.35413 -2.211154,0.0396 -3.365002,-0.13817 z m 17.373749,-48.01872 c 1.20687,0 2.28439,-0.14854 3.33091,-0.0354 1.04653,0.11314 3.36635,1.06306 4.35854,1.27567 0.99219,0.21262 2.01981,0.21262 3.82701,0 1.8072,-0.21261 3.04743,-0.95675 3.26004,-2.33872 0.21261,-1.38198 -0.0354,-4.53572 -0.21261,-5.70508 -0.17718,-1.16937 -0.6024,-1.80713 -0.6024,-1.80713 -0.24805,0.53153 -0.24805,0.81501 -0.14174,2.09068 0.10631,1.27567 0.0709,1.73633 0.10631,3.40179 0.0354,1.66545 0.42522,2.40959 -0.28349,3.08286 -0.7087,0.67327 -3.1183,1.0985 -4.99637,0.56697 -1.87807,-0.53153 -4.00418,-1.34714 -5.45703,-1.34654 -1.45185,6e-4 -3.72135,-0.1493 -5.74051,-0.0709 -1.59772,0.062 -2.23242,0.21257 -3.22461,0.17717 -0.99219,-0.0354 -1.842637,0.17714 -3.047436,0.0354 -1.2048,-0.14174 -3.756139,-0.63784 -4.677456,-0.24805 -0.921317,0.38979 -1.063058,1.41741 -0.425223,2.05525 0.637835,0.63781 2.043086,0.72341 2.043086,0.72341 0.656074,-0.86439 0.753699,-1.7047 1.056241,-1.89274 0.302542,-0.18805 0.590962,0.0622 1.12317,0.10863 0.532207,0.0468 1.436235,0.0421 1.94324,-0.002 0.815008,-0.0709 0.637837,0.31891 2.480468,0.0354 1.84263,-0.28351 3.47438,-0.21261 4.42941,-0.21261 0.6024,1.2048 0.92132,2.4096 0.92132,2.4096 -0.14175,1.13393 0.67327,1.98438 0.77957,2.90569 0.10631,0.92132 0.6024,2.69308 0.6024,4.64202 0,1.94894 -0.53153,3.29548 -1.09849,4.32311 -0.56697,1.02762 -0.85045,2.16155 -0.85045,2.16155 0,0 0.4016,-0.64965 0.96857,-1.6064 0.56696,-0.95675 1.38197,-2.62221 1.70089,-3.50809 0.31892,-0.88588 0.24805,-1.94894 0.0354,-3.29548 -0.21261,-1.34654 -0.49609,-2.83482 -0.85044,-4.25223 -0.35436,-1.41742 -1.0158,-2.81194 -1.35835,-3.67383 z m 22.52501,47.74349 c 0,0 0.47248,0.1063 0.90951,-0.10631 0.43703,-0.21261 1.32489,-0.69837 2.52771,-1.08078 1.20283,-0.3824 1.73435,-0.60333 2.25605,-0.86816 0.56179,-0.28517 0.92639,-0.69667 1.72487,-0.96283 0.79847,-0.26616 1.61786,-1.44677 1.93677,-1.94286 0.31892,-0.49609 0.81502,-0.53153 0.81502,-0.53153 0,0 -0.31892,-0.42522 -0.35436,-0.7087 0,0 -0.74414,0.46065 -1.09849,1.20479 -0.35435,0.74414 -0.6024,0.17718 -1.3111,0.85045 -0.70871,0.67327 -1.13393,1.13393 -2.48047,1.59459 -1.34654,0.46066 -2.19699,1.16936 -3.33092,1.48828 -1.13393,0.31892 -1.24024,0.70871 -1.59459,1.06306 z m -0.9138,-47.53025 c 0.55125,-0.42596 0.57631,-0.82686 0.57631,-0.82686 l 0.27562,0.0752 c 0,0 0.10023,-0.25056 -0.47607,-0.47607 -0.5763,-0.22551 -1.50339,-0.12528 -2.33026,-0.0251 0,0 0.2255,0.77679 0.47607,1.95443 0,0 0.92709,-0.27564 1.47833,-0.7016 z m -2.90655,-2.43048 c 0,0 -1.01065,-1.05425 -1.57762,-2.11731 -0.56696,-1.06305 -1.2048,-1.87806 -1.55915,-3.2246 -0.35435,-1.34654 -0.85045,-1.55916 -0.85045,-1.55916 0,0 0.33884,0.94563 0.63784,1.84264 0.38979,1.16936 1.16936,2.79939 2.05524,4.00419 0.88588,1.2048 1.29414,1.05424 1.29414,1.05424 z m 15.0179,46.05104 c 0,0 -0.12993,0.94494 -1.33473,2.1143 -1.2048,1.16936 -3.04743,2.44503 -4.71289,2.83482 -1.66546,0.38979 -2.26786,0.99219 -2.26786,0.99219 1.27935,-0.22577 2.14106,-0.43309 3.82702,-1.13393 1.91514,-0.79611 3.14461,-1.93659 3.75613,-2.83482 0.61153,-0.89823 0.68508,-1.57096 0.73233,-1.97256 z m -16.3626,-59.45628 c -0.85192,0.67653 -1.70384,1.02732 -2.58082,1.85418 -0.87698,0.82687 -1.65373,0.80181 -2.55576,1.22777 -0.90204,0.42596 -1.57856,0.0752 -2.85645,0.1754 -1.27788,0.10022 -2.40542,0.47607 -2.98102,0.83755 -0.5756,0.36148 -17.003644,4.379 -17.003644,4.379 -0.19648,0.93463 0.413549,1.28321 1.275928,1.18901 0.278353,0.46351 1.385956,0.99699 2.583576,0.46451 -0.0816,1.49795 1.61508,1.77709 2.48435,0.9544 0.69343,1.04117 2.18561,0.61705 2.82154,0.0469 l 6.61407,1.495 1.76733,-7.81917 c 0,0 0.59204,-0.46142 1.99521,-0.61176 1.40316,-0.15034 1.85418,0.10023 3.10701,-0.50113 1.25282,-0.60136 1.60361,-0.15034 2.35531,-0.85192 0.7517,-0.70158 2.13815,-0.71829 2.97337,-2.83974 z m -7.51695,-36.198318 c 0,0 0.40959,0.203793 0.5159,0.593581 0.1063,0.389788 0.0709,2.090681 -0.92132,3.862445 -0.99219,1.771763 -2.90569,4.004185 -5.24442,5.740513 z M 94.245914,86.862597 c -0.100226,-0.451017 -0.200456,-1.1526 -0.250566,-2.906556 -0.05011,-1.753957 -0.300678,-3.95893 -0.300678,-4.059156 0,-0.100226 0.902035,-1.403165 0.902035,-1.403165 0,0 0.100226,0.751695 -0.150339,2.856443 -0.250561,2.104747 -0.035,5.265444 -0.035,5.265444 z m 14.723666,11.700377 c 0,0 -0.89201,-0.360034 -1.21093,-1.883751 -0.31892,-1.523716 -0.55373,-4.041671 -0.67613,-6.928465 -0.1224,-2.886793 -0.80034,-5.603808 -0.80034,-5.603808 0,0 0.22477,3.351673 0.14174,5.953125 -0.083,2.601452 0.28348,5.197173 0.21261,6.366536 -0.0709,1.169364 -1.09849,1.488282 -1.09849,1.488282 z M 97.39974,74.579427 c 0.992188,-1.452846 2.263759,-2.694224 2.95294,-3.449032 0.74414,-0.815011 1.07707,-0.660067 1.38197,-0.141741 0.35436,0.602399 0.84674,1.90911 1.19753,3.813405 0.35079,1.904296 0.80181,4.309722 0.80181,4.309722 l 0.20045,-0.15034 c -0.40091,-1.904295 -0.97537,-5.804631 -1.40317,-6.940655 -0.39594,-1.051423 -0.58036,-1.323617 -1.17459,-2.29599 l -1.25205,0.165364 z" />
      <path
         style="font-variation-settings:normal;opacity:1;vector-effect:none;fill:#bf9f4f;fill-opacity:1;stroke:none;stroke-width:0.133833;stroke-linecap:butt;stroke-linejoin:miter;stroke-miterlimit:4;stroke-dasharray:none;stroke-dashoffset:0;stroke-opacity:1;stop-color:#000000;stop-opacity:1"
         d="m 113.50673,105.5738 -1.76752,7.81906 -36.218756,-8.1874 2.317802,-12.150175 c 0,0 2.188385,-0.713109 7.474145,0.481757 l 21.143039,4.779466 c 0.75442,0.17054 2.25354,0.597995 2.42349,0.873896 l 3.25732,5.412206 c 0.48642,0.86571 1.00993,1.08769 1.37049,0.97119 z"
         id="path958" />
      <path
         id="path1010"
         style="font-variation-settings:normal;opacity:1;vector-effect:none;fill:#ffffff;fill-opacity:1;stroke:none;stroke-width:0.505826;stroke-linecap:butt;stroke-linejoin:miter;stroke-miterlimit:4;stroke-dasharray:none;stroke-dashoffset:0;stroke-opacity:1;stop-color:#000000;stop-opacity:1"
         d="m 353.23633,362.9668 -0.94531,4.18359 -4.10352,-0.92773 -1.58594,2.25586 5.12696,1.1582 -3.10938,13.75781 4.93164,1.11328 4.61719,-20.42578 z m 10.79492,2.43945 -0.5625,2.48633 6.02344,1.36133 c 1.76561,0.39874 3.38313,2.07633 2.80664,5.05664 0.70136,1.26532 1.63007,2.03805 3.39453,1 0.94772,-4.89948 -1.71264,-7.65893 -4.61524,-8.31446 z m -26.98437,17.23437 c -0.94774,4.89948 1.71459,7.65701 4.61718,8.3125 l 4.99219,1.12696 -3.54492,15.67187 4.91601,1.17774 4.58789,-20.28907 -4.92968,-1.11523 -0.4668,2.06641 -3.96875,-0.89453 c -1.76561,-0.39878 -3.38509,-2.07634 -2.80859,-5.05665 z m 19.9082,14.06446 -0.56446,2.49414 6.01563,1.35937 c 1.76299,0.39814 3.37836,2.07298 2.80273,5.04883 0.64006,1.71857 1.69908,2.31009 3.40821,1.00196 0.94771,-4.89948 -1.7146,-7.65701 -4.61719,-8.3125 z"
         transform="scale(0.26458333)" />
      <path
         id="path1039"
         style="font-variation-settings:normal;opacity:1;vector-effect:none;fill:#75510a;fill-opacity:1;stroke:none;stroke-width:0.505826;stroke-linecap:butt;stroke-linejoin:miter;stroke-miterlimit:4;stroke-dasharray:none;stroke-dashoffset:0;stroke-opacity:1;stop-color:#000000;stop-opacity:1"
         transform="scale(0.26458333)"
         d="m 342.18359,359.33594 c -0.0753,0.26441 -0.14295,0.53894 -0.19921,0.83008 -0.94774,4.89947 1.71459,7.65697 4.61718,8.3125 1.27565,-0.27553 1.55533,-1.23545 1.58594,-2.25586 -1.76562,-0.39875 -3.38509,-2.07634 -2.80859,-5.05664 0.0748,-0.3865 0.18143,-0.72847 0.30859,-1.03907 z m 18.91602,5.4082 -10.14844,44.88672 -15.40429,-3.69141 c 0.63166,-2.82585 2.84546,-3.43727 4.63476,-3.0332 l 3.83008,0.86523 0.64062,-2.83398 -4.85351,-1.0957 c -0.56313,-0.12718 -1.15265,-0.19402 -1.74414,-0.18555 -2.56316,0.0367 -5.17532,1.4781 -5.94531,5.45898 0,0 0.29251,1.60275 2.54492,2.14258 2.25241,0.53983 18.84179,4.51563 18.84179,4.51563 l 0.23047,-1.51563 0.15625,0.0352 7.04688,1.58984 c 3.00334,0.67828 6.73975,-0.37388 7.6875,-5.27343 -1.49473,0.92131 -2.62777,0.57672 -3.40821,-1.00196 -0.57564,2.97562 -2.84378,3.61494 -4.66796,3.20313 l -6.01563,-1.35743 6.43359,-28.46093 7.04688,1.59179 c 3.00334,0.67828 6.73975,-0.37385 7.6875,-5.27343 -2.03199,0.69175 -2.7413,-0.14247 -3.39453,-1 -0.5765,2.98036 -2.84888,3.61962 -4.67578,3.20703 l -6.02344,-1.35938 2.43164,-10.75195 z m -18.10742,12.4375 c -2.56316,0.0367 -5.17532,1.47818 -5.94531,5.45898 0.99439,1.70458 2.14801,1.81673 3.39453,1 0.5765,-2.98041 2.85082,-3.62144 4.67773,-3.20898 l 3.9668,0.89648 0.64062,-2.83398 -4.99023,-1.12695 c -0.56313,-0.12718 -1.15265,-0.19402 -1.74414,-0.18555 z m 79.62304,16.16211 c -10.0772,10.4545 -12.84708,18.12562 -28.44335,23.82031 l -24.14258,-3.78515 -1.32618,3.07226 32.02735,7.24024 c 1.76011,-1.61132 5.39638,-3.13859 9.25391,-6.42969 4.55285,-3.88434 5.76001,-8.16879 7.36718,-11.11524 1.49508,-2.74097 4.99375,-5.46331 8.52344,-8.11718 -0.67805,-0.60272 -1.37491,-1.47527 -2.05273,-2.68164 z" />
      <g
         id="g964"
         style="stroke-width:1.01165">
        <path
           style="font-variation-settings:normal;opacity:1;vector-effect:none;fill:#f2b388;fill-opacity:1;stroke:none;stroke-width:0.133833;stroke-linecap:butt;stroke-linejoin:miter;stroke-miterlimit:4;stroke-dasharray:none;stroke-dashoffset:0;stroke-opacity:1;stop-color:#000000;stop-opacity:1"
           d="m 97.15169,108.82171 c 1.628145,1.12718 3.70507,1.23268 4.7221,1.26499 2.13277,0.0678 5.04328,-1.12441 6.07958,-2.20203 1.13037,-1.17544 2.89605,-2.84846 3.03779,-3.84065 0.14174,-0.99218 0.0124,-2.36311 -0.85106,-3.95158 0,0 -1.08181,-0.157863 -2.57009,1.11781 -1.48828,1.27567 -5.6922,4.39965 -6.61458,4.85463 -0.92238,0.45498 -1.859271,0.93437 -2.74068,1.51659 -0.460658,0.35435 -0.531529,0.77958 -1.06306,1.24024 z"
           id="path1044" />
        <path
           style="font-variation-settings:normal;opacity:1;vector-effect:none;fill:#f9caab;fill-opacity:1;stroke:none;stroke-width:0.133833;stroke-linecap:butt;stroke-linejoin:miter;stroke-miterlimit:4;stroke-dasharray:none;stroke-dashoffset:0;stroke-opacity:1;stop-color:#000000;stop-opacity:1"
           d="m 99.207107,106.48183 c 0.114904,-0.54874 0.112387,-1.10075 0.312839,-1.95267 0.200452,-0.85192 0.134145,-1.63184 0.651474,-1.95441 0.67222,-0.41915 1.73742,-1.01742 2.50313,-1.3237 0.76571,-0.30618 1.40351,0.0113 2.22826,0.0269 0.94674,0.0179 1.81807,-0.46328 2.40541,-0.84332 0.58734,-0.38004 1.5707,-0.996179 1.5707,-0.996179 0,0 0.74325,0.152667 1.26118,0.653989 0,0 -0.88136,0.54372 -2.36964,1.81939 -1.48828,1.27567 -2.62221,0.85044 -2.76395,2.19698 -0.14175,1.34654 -0.99219,2.19699 -1.9135,2.9057 -0.92132,0.7087 -1.93713,-0.24805 -1.93713,-0.24805 -1.544083,0.3086 -2.059721,0.78403 -2.94113,0.81501 0.460658,-0.35435 0.992357,-1.09964 0.992357,-1.09964 z"
           id="path956" />
        <path
           style="font-variation-settings:normal;vector-effect:none;fill:#f2b388;fill-opacity:1;stroke:none;stroke-width:0.133833;stroke-linecap:butt;stroke-linejoin:miter;stroke-miterlimit:4;stroke-dasharray:none;stroke-dashoffset:0;stroke-opacity:1;stop-color:#000000"
           d="m 103.63561,102.71898 c 0,0 -1.38831,-0.30464 -2.19012,0.2466 -0.80181,0.55125 -2.138159,1.38647 -2.138159,1.38647 l -0.100229,2.12978 c 0,0 1.436578,-2.11308 2.037938,-2.36365 0.60135,-0.25056 2.42583,-0.64355 2.39057,-1.3992 z"
           id="path1046" />
        <path
           style="font-variation-settings:normal;opacity:1;vector-effect:none;fill:#d48b5a;fill-opacity:1;stroke:none;stroke-width:0.133833;stroke-linecap:butt;stroke-linejoin:miter;stroke-miterlimit:4;stroke-dasharray:none;stroke-dashoffset:0;stroke-opacity:1;stop-color:#000000;stop-opacity:1"
           d="m 108.29015,109.2115 c 0.63783,-0.38979 0.95675,-1.52372 1.38197,-2.3033 0.42523,-0.77957 1.46186,-1.55389 2.46412,-2.30559 -0.26108,-1.47946 -1.45215,-3.72309 -1.99614,-4.51017 0.76324,1.6887 0.44156,3.05963 0.29982,4.05181 -0.14174,0.99219 -1.8072,1.91351 -2.58678,3.18918 -0.77957,1.27571 -1.73632,1.38201 -2.20879,1.28751 -0.47247,-0.0945 -1.01582,-0.15358 -1.86626,0.41338 -0.85045,0.56697 -1.74814,0.47247 -1.74814,0.47247 0,0 1.59459,-1.48828 1.27567,-1.84263 -0.31892,-0.35435 -0.83864,0.16536 -1.61821,0.76776 -0.77958,0.6024 -1.807201,0.31892 -1.807201,0.31892 l 1.689081,-1.51191 c 0,0 0.29529,-0.25986 0.61421,-0.61421 0.31892,-0.35435 0.35435,-0.63783 0.21261,-0.77958 -0.14174,-0.14174 -0.46066,0.6024 -1.24023,0.92132 -0.77958,0.31892 -1.66664,1.09625 -2.622212,1.48828 -0.955572,0.39203 -1.381978,0.56697 -1.381978,0.56697 -0.531528,0.46066 -0.779575,1.2048 -0.673268,1.55915 0.580367,0.22375 1.092195,-0.0323 1.630021,-0.10631 0,0 -0.106303,0.53153 0.177179,0.70871 0.283482,0.17718 1.063057,0.10632 1.594587,0.14174 l 1.027621,-0.6024 c 0,0 -0.21261,0.95675 -0.0709,1.27567 0.14174,0.31892 1.09849,0.6024 1.48828,0.6024 l 0.92941,-1.32841 c 0.26483,0.28614 0.48924,0.80908 1.20485,0.66166 0.71561,-0.14741 2.57109,-1.68112 3.83068,-2.52242 z m -8.835164,-4.27586 c 0,0 0.885884,-0.49609 1.488284,-0.92132 0,0 0.28348,0.68509 -0.38979,1.02763 -0.673273,0.34253 -0.962172,1.19351 -1.212737,1.2311 -0.250565,0.0376 0.114243,-1.33741 0.114243,-1.33741 z"
           id="path941" />
        <path
           style="font-variation-settings:normal;opacity:1;vector-effect:none;fill:#ffe1cc;fill-opacity:1;stroke:none;stroke-width:0.133833;stroke-linecap:butt;stroke-linejoin:miter;stroke-miterlimit:4;stroke-dasharray:none;stroke-dashoffset:0;stroke-opacity:1;stop-color:#000000;stop-opacity:1"
           d="m 99.499432,105.77191 c 0.02506,-0.52618 0.325736,-1.02731 0.400905,-1.3781 0.07517,-0.35079 -0.0084,-1.04403 0.442663,-1.54516 0.45102,-0.50113 2.25509,-1.25282 2.80633,-1.40316 0.55125,-0.15034 1.65373,0.30068 2.40543,0 0.75169,-0.30068 1.50339,-0.20045 2.05463,-0.45102 0.55125,-0.25056 0.30576,-0.65502 0.80181,-1.002259 0.50113,-0.350791 0.87698,-0.35079 1.7289,0.100229 -0.51793,-0.749365 -1.26118,-0.902036 -1.26118,-0.902036 0,0 -1.00226,0.551243 -1.85418,1.102486 -0.85192,0.55124 -1.35305,0.90204 -2.40542,0.70158 -1.05238,-0.20045 -1.9043,-0.0501 -2.40543,0.15034 -0.50113,0.20045 -1.65373,1.1526 -2.255086,1.25283 -0.601357,0.10022 -0.451018,1.10249 -0.65147,1.95441 -0.200452,0.85192 -0.100226,1.27788 -0.250565,1.57856 -0.150339,0.30068 -0.100226,0.45101 0.150338,0.55124 0,0 0.267269,-0.18375 0.292325,-0.70994 z"
           id="path897" />
        <path
           id="path944"
           style="font-variation-settings:normal;opacity:1;vector-effect:none;fill:#a15f33;fill-opacity:1;stroke:none;stroke-width:0.133833;stroke-linecap:butt;stroke-linejoin:miter;stroke-miterlimit:4;stroke-dasharray:none;stroke-dashoffset:0;stroke-opacity:1;stop-color:#000000;stop-opacity:1"
           d="m 99.207104,106.48183 c 0,0 0.283316,-0.31777 0.673103,-1.09735 0.389793,-0.77957 0.531533,-0.42522 0.815013,-1.09849 0.28348,-0.67327 0.6024,-0.7087 1.38197,-0.92132 0.77958,-0.21261 1.10206,-0.3035 1.55842,-0.64569 0.44012,-0.33001 0.81931,-0.32146 1.13466,-0.16931 -0.0354,0.17717 -0.46065,0.92131 -1.66545,1.20479 -1.2048,0.28349 -1.60066,0.37325 -2.01981,0.92132 -0.41915,0.54807 -1.239903,1.27337 -1.877906,1.80605 z m -0.189155,3.09583 c 0.531529,-0.31892 1.523721,-0.92132 1.948941,-1.34654 0.42522,-0.42522 0.6024,-0.99219 0.6024,-0.99219 0,0 -1.02762,0.0709 -1.700894,0.81501 -0.673269,0.74414 -1.063059,1.38198 -1.736328,1.8072 -0.673269,0.42522 -1.039437,0.54334 -1.653647,0.51972 0.106305,0.35435 1.133929,0.35435 1.630021,-0.10631 0,0 0.377977,-0.37797 0.909507,-0.69689 z m 1.889881,0.94494 c 0,0 0.2008,-0.41341 1.12212,-1.01581 0.92132,-0.6024 1.41741,-1.02762 1.59459,-1.48828 0.17717,-0.46066 0.21261,-0.53153 -0.31892,-0.35435 -0.53153,0.17717 -0.6024,0.92131 -1.45285,1.38197 -0.85044,0.46066 -1.18898,1.02906 -1.48828,1.38197 -0.29929,0.35291 -0.484281,0.6969 -0.484281,0.6969 0.531531,0.0354 1.027621,-0.6024 1.027621,-0.6024 m 6.03578,-0.0354 c -0.42522,0.38978 -1.2048,0.56696 -1.52372,1.09849 -0.31891,0.53156 -1.28748,0.85045 -1.7127,0.56696 -0.42523,-0.28348 -0.42523,-0.81501 -0.42523,-0.81501 0,0 -0.56696,1.06306 -0.95675,1.06306 0,0 0.0591,-0.59059 0.44888,-1.05125 0.38979,-0.46065 0.67327,-0.35435 1.45285,-1.34654 0.77957,-0.99218 0.99218,-1.27567 1.41741,-1.38197 0,0 0.42522,0.56696 -0.63784,1.27567 -1.06306,0.7087 -1.34654,1.24023 -1.34654,1.24023 0,0 0.33108,0.92458 1.2524,0.10957 0.92131,-0.81501 1.44068,-2.12938 2.39743,-2.62547 0.95676,-0.4961 1.2617,-1.06167 1.27567,-0.99219 0.0728,0.3622 -0.3006,0.95258 -0.67327,1.16936 -0.37267,0.21678 -0.2112,0.59092 0.37795,0.41342 -0.63784,0.61529 -0.92132,0.88588 -1.34654,1.27567 z" />
      </g>
      <path
         style="font-variation-settings:normal;opacity:1;vector-effect:none;fill:#bf9f4f;fill-opacity:1;stroke:none;stroke-width:0.133833;stroke-linecap:butt;stroke-linejoin:miter;stroke-miterlimit:4;stroke-dasharray:none;stroke-dashoffset:0;stroke-opacity:1;stop-color:#000000;stop-opacity:1"
         d="m 116.96383,65.280582 c 0,0 -0.18626,-1.078025 -1.11573,-1.187376 -0.92948,-0.109351 -1.36688,0.05467 -1.31221,0.874798 0.0547,0.820121 -0.8687,3.482992 -2.12623,5.396611 -1.25751,1.913617 -3.9013,4.650054 -6.70763,7.255933 -2.80633,2.605878 -3.8587,3.4578 -7.06594,6.11379 -3.207234,2.655991 -3.896658,2.832125 -6.953553,5.287662 -3.056896,2.45554 -4.485854,3.570186 -4.485854,3.570186 0.701583,-2.154859 1.698593,-3.767781 3.824709,-7.59479 2.126116,-3.827009 4.181361,-7.157924 6.378348,-10.417969 2.196987,-3.260044 3.95694,-4.854631 3.95694,-4.854631 -0.31284,-0.891962 -0.6024,-1.523717 -0.4961,-1.913505 0.10631,-0.389788 0.91535,-1.358184 0.91535,-1.358184 -0.35205,-0.264036 -0.80424,-0.347697 -1.49188,0.146625 -0.665648,0.478513 -1.215926,1.016278 -3.065253,3.357574 -1.814027,2.296606 -4.309721,6.063678 -6.163902,9.321024 -1.854182,3.257349 -4.860965,9.270913 -5.612659,11.024868 -0.751698,1.753957 -1.059053,2.92699 -1.059053,2.92699 l 4.600866,1.032434 c 0,0 3.85797,-2.634313 6.614921,-4.810852 2.856443,-2.255086 7.64135,-5.880605 12.43135,-10.596487 4.8106,-4.736166 6.91228,-7.093415 7.96465,-9.148049 1.05238,-2.054635 1.13591,-3.34087 0.96886,-4.426652 z"
         id="path2249" />
      <path
         id="path2254"
         style="font-variation-settings:normal;opacity:1;vector-effect:none;fill:#75510a;fill-opacity:1;stroke:none;stroke-width:0.133833;stroke-linecap:butt;stroke-linejoin:miter;stroke-miterlimit:4;stroke-dasharray:none;stroke-dashoffset:0;stroke-opacity:1;stop-color:#000000;stop-opacity:1"
         d="m 85.737403,93.253739 c 0.701583,-2.154859 1.956479,-4.583391 4.082595,-8.4104 2.126116,-3.827009 4.181361,-7.107811 6.378348,-10.367856 2.196987,-3.260044 3.493897,-4.733924 4.007044,-5.205422 0.51316,-0.471499 1.06633,0.09903 0.64539,0.551243 -0.42093,0.452217 -1.803978,1.744926 -4.000965,5.00497 -2.196987,3.260045 -4.252232,6.540847 -6.378348,10.367856 -2.126116,3.827009 -3.423804,6.141514 -4.125387,8.296373 z M 116.73104,65.672426 c -0.038,0.732051 -0.10438,2.051392 -1.16501,4.081203 -1.0691,2.045977 -3.32515,4.261544 -8.13575,8.99771 -4.79,4.715882 -9.574905,8.341401 -12.431348,10.596487 -2.756951,2.176539 -6.614921,4.810852 -6.614921,4.810852 l -0.651469,-0.350791 c 0,0 3.85797,-2.634313 6.614921,-4.810852 2.856443,-2.255086 7.641347,-5.880605 12.431347,-10.596487 4.8106,-4.736166 7.19193,-7.252411 8.26103,-9.298388 1.06066,-2.029811 1.23026,-3.227772 1.24018,-3.730412 0.01,-0.502639 -0.013,-0.705035 0.13775,-0.739756 0.15073,-0.03472 0.35128,0.308384 0.31327,1.040434 z" />
      <path
         id="path992"
         style="font-variation-settings:normal;opacity:1;vector-effect:none;fill:#ffffff;fill-opacity:1;stroke:none;stroke-width:0.505826;stroke-linecap:butt;stroke-linejoin:miter;stroke-miterlimit:4;stroke-dasharray:none;stroke-dashoffset:0;stroke-opacity:1;stop-color:#000000;stop-opacity:1"
         d="m 293.24414,349.43164 -10.74414,47.5332 2.93164,0.66211 10.14844,-44.88672 c 0,0 10.82506,-1.49259 30.80273,3.02344 l 85.20899,19.26172 c -0.33745,-0.92333 -0.37262,-1.76563 0.26172,-2.50391 -2.41437,-0.68342 -5.04318,-1.35935 -7.89454,-2.0039 0,0 -66.88206,-15.11733 -79.9121,-18.0625 -13.03004,-2.94517 -20.49821,-4.09612 -30.80274,-3.02344 z"
         transform="scale(0.26458333)" />
      <g
         id="g965"
         style="stroke-width:1.01165">
        <path
           style="font-variation-settings:normal;opacity:1;vector-effect:none;fill:#f2b388;fill-opacity:1;stroke:none;stroke-width:0.133833;stroke-linecap:butt;stroke-linejoin:miter;stroke-miterlimit:4;stroke-dasharray:none;stroke-dashoffset:0;stroke-opacity:1;stop-color:#000000;stop-opacity:1"
           d="m 105.83333,45.23903 c 0,0 -3.4254,-0.448852 -4.91368,0.874063 -1.90821,1.696182 -2.409606,7.98475 -2.76396,9.40216 -0.354351,1.41741 -0.834147,2.218161 -0.650383,2.608965 0.183764,0.390805 0.912303,0.356748 1.274358,1.708311 0.204502,0.763415 0.211423,2.078521 0.374985,3.16575 0.126011,0.837618 0.436656,1.58072 0.436656,1.58072 l 2.481124,0.608804 c 0.29006,-0.07139 0.52341,-0.160248 0.72528,-0.246768 l 2.75705,10.195111 0.95215,-0.300678 c 0,0 0.83948,-2.421771 1.422,-3.365746 0,0 1.73512,-3.850531 2.88772,-6.105618 1.1526,-2.255087 -3.02255,-18.282447 -4.9833,-20.125074 z"
           id="path917" />
        <path
           style="font-variation-settings:normal;opacity:1;vector-effect:none;fill:#d48b5a;fill-opacity:1;stroke:none;stroke-width:0.133833;stroke-linecap:butt;stroke-linejoin:miter;stroke-miterlimit:4;stroke-dasharray:none;stroke-dashoffset:0;stroke-opacity:1;stop-color:#000000;stop-opacity:1"
           d="m 101.50399,54.489577 c 0,0 0.43149,0.588643 -0.10003,0.730384 -0.53153,0.141741 -0.67327,0.389788 -0.46066,0.779576 0.21261,0.389788 0.14174,0.496094 -0.17718,0.460659 -0.31892,-0.03544 -0.67327,-0.6024 -0.56696,-1.311105 0.1063,-0.708706 -0.354357,-0.708706 -0.673274,-0.318918 -0.318917,0.389788 -0.496094,1.063058 0.03543,1.736328 0.531524,0.673271 0.708704,1.311105 0.744134,1.736329 0.0354,0.425223 -0.23386,0.807333 -0.23386,0.807333 -0.488528,-0.427954 -0.6079,-0.43364 -0.6079,-0.43364 0,0 -0.115015,-0.267388 -0.611109,-0.479999 -0.496094,-0.212612 -0.318917,-1.771764 -0.177176,-2.515904 0.141741,-0.744141 -0.212612,-2.693081 -0.212612,-2.693081 l 3.066217,-1.179011 c 0,0 1.02732,-0.125283 1.40317,0.275621 0.37584,0.400905 -0.7517,1.102487 -0.7517,1.102487 z m 3.52471,2.589591 c 0.19709,-1.66874 -0.50961,-1.954828 -0.81029,-2.305619 -0.30068,-0.350791 -0.75169,0.200452 -0.90203,-0.350791 -0.15034,-0.551244 0.70158,-0.551244 0.45101,-1.403165 -0.25056,-0.851922 0.40091,-0.701583 1.00227,-1.302939 0.60135,-0.601357 -0.0501,-3.808591 -0.80181,-4.209495 -0.7517,-0.400905 -0.65147,-1.252829 0.35079,-1.302939 1.00226,-0.05011 1.70384,1.403165 1.70384,1.403165 l 4.12597,4.07586 1.25283,5.345391 1.25283,7.466842 c -2.40543,2.104748 -4.00958,5.548235 -4.00958,5.548235 -0.26473,0.476509 -0.50256,0.955655 -0.71562,1.426009 -0.39877,-0.876799 0.048,-2.731343 0.84979,-4.034283 0.8018,-1.302938 1.50339,-2.004521 1.50339,-2.004521 0,0 -1.45328,-0.751692 -3.15712,-0.05011 -1.70385,0.701583 -3.25239,1.804459 -3.25239,1.804459 0,0 -0.41341,-0.03543 -0.64374,-0.372069 -0.23033,-0.336635 -0.43106,-0.986246 -0.43106,-0.986246 0.12894,-0.318462 0.0801,-0.592476 -0.1689,-0.816452 0,0 0.45363,-1.066265 2.40804,-1.817961 1.95441,-0.751695 2.50593,-1.582267 3.05334,-2.726862 0.55125,-1.1526 -0.69803,-3.787833 -0.94859,-5.040659 -0.75169,1.002261 -2.11297,1.65415 -2.11297,1.65415 z m 2.26331,10.406388 c 0,0 -0.75169,-0.100226 -0.55124,0.651469 0.20045,0.751696 -0.25057,1.252826 -0.35079,1.653731 -0.10023,0.400904 0.55124,0.701582 1.00226,-0.250566 0.45101,-0.952147 -0.10023,-2.054634 -0.10023,-2.054634 z"
           id="path915" />
        <path
           style="font-variation-settings:normal;opacity:1;vector-effect:none;fill:#f9caab;fill-opacity:1;stroke:none;stroke-width:0.133833;stroke-linecap:butt;stroke-linejoin:miter;stroke-miterlimit:4;stroke-dasharray:none;stroke-dashoffset:0;stroke-opacity:1;stop-color:#000000;stop-opacity:1"
           d="m 103.87258,67.185268 c 0.81365,0.431848 1.24024,0.815011 1.41741,1.452846 l -0.88588,-0.283482 c 0,0 0,0.389788 0.77958,0.885882 0.77957,0.496093 1.22299,1.953407 1.12276,3.055893 -0.10022,1.102487 -0.35079,1.653731 -0.0501,1.854183 0.30068,0.200452 0.61026,-0.365766 0.85192,-1.553504 0.14493,-0.712316 0.43594,-0.915235 0.82064,-1.127362 -1.21291,2.677643 -1.62311,5.070455 -1.62311,5.070455 l -1.01266,1.118756 c 0,0 -0.62371,-0.518267 -0.52348,-2.171997 0.10022,-1.653731 -0.45102,-4.109269 -0.90204,-6.163904 -0.45102,-2.054634 -0.82186,-2.362189 -1.06984,-3.496082 0.25703,0.614276 0.39853,0.999386 1.0748,1.358316 z m -3.963907,-1.927195 c 0.352267,0.06685 0.734047,0.08443 1.070027,0.07275 0.44175,-0.01536 0.79735,-0.07007 1.09373,-0.143019 -0.40362,-0.38254 -0.85006,-0.437932 -1.27006,-1.034766 -0.42,-0.596834 -0.74041,-0.453042 -1.121466,-0.691203 -0.38106,-0.238161 -0.281701,-0.737017 0.04403,-1.062754 0.325746,-0.325734 -0.04162,-0.835398 -0.04162,-0.835398 0,0 -1.37e-4,-0.484246 -0.100361,-0.935262 -0.100227,-0.451017 -0.400903,-0.501129 -0.350793,-0.826865 0.05011,-0.325734 0.187386,-0.730965 -0.325543,-1.043903 -0.512927,-0.312942 -0.904482,-0.218591 -0.975352,-0.608378 -0.07087,-0.389789 -0.07087,-0.921319 0.44877,-1.358426 0.519644,-0.437111 0.685157,-2.149666 0.496094,-2.87011 -0.189061,-0.720445 0.118195,-0.590662 1.606481,-1.65372 1.48828,-1.063056 3.15374,-0.566965 3.60251,-0.507905 0.44877,0.05906 0.46968,-0.621767 0.2925,-1.968306 -0.17717,-1.346541 -0.65858,-2.012254 -1.82795,-2.543784 -1.16937,-0.53153 -0.87139,-1.153537 0,-1.417411 0.87138,-0.263874 2.3207,0.04165 3.18917,0.67327 0,0 -0.8032,-1.606398 -3.63802,-1.81901 -2.834826,-0.212612 -4.925506,2.374163 -5.279859,3.827009 -0.354353,1.452846 -0.846147,3.990876 -0.89626,4.39178 -0.05011,0.400905 0.810161,1.99617 1.094135,2.6894 0.283974,0.69323 0.509482,1.369756 0.609708,1.870887 0.100227,0.50113 0.342439,1.252825 0.785105,1.712195 0.442665,0.45937 0.651469,3.783534 0.701582,4.585343 0.05011,0.801809 0.0083,1.291329 0.793439,1.497586 z m 1.645397,-11.804167 c 0,0 -0.5179,-0.277647 -0.67653,-0.100226 -0.15862,0.17742 -0.10558,0.674279 0.18525,0.83827 l 0.0799,0.09182 c 0,0 0.21096,0.172401 0.41141,0.02206 0.20045,-0.150339 0,-0.851921 0,-0.851921 z"
           id="path899" />
        <path
           style="font-variation-settings:normal;opacity:1;vector-effect:none;fill:#d48b5a;fill-opacity:1;stroke:none;stroke-width:0.133833;stroke-linecap:butt;stroke-linejoin:miter;stroke-miterlimit:4;stroke-dasharray:none;stroke-dashoffset:0;stroke-opacity:1;stop-color:#000000;stop-opacity:1"
           d="m 97.742353,53.211737 c 0,0 0.203577,0.150295 0.353916,0.501086 0.150339,0.350791 -0.651469,0.902035 -0.651469,0.902035 0,0 0.125282,-0.826865 -0.325735,-0.927091 -0.451017,-0.100227 -0.687744,-0.263122 -0.687744,-0.263122 0,0 -0.310866,-0.262436 -0.01384,-0.538687 0.297028,-0.276251 1.324871,0.325779 1.324872,0.325779 z"
           id="path921" />
        <path
           style="font-variation-settings:normal;opacity:1;vector-effect:none;fill:#ffe1cc;fill-opacity:1;stroke:none;stroke-width:0.133833;stroke-linecap:butt;stroke-linejoin:miter;stroke-miterlimit:4;stroke-dasharray:none;stroke-dashoffset:0;stroke-opacity:1;stop-color:#000000;stop-opacity:1"
           d="m 97.222564,58.314639 c 0.285844,0.373251 0.921317,0.6024 0.921317,0.6024 0,0.389788 0.03544,0.389788 0.283482,0.779576 0.248047,0.389788 -0.03544,0.637835 -0.141741,0.956752 -0.106306,0.318918 0.212611,0.531529 0.212611,0.531529 0,0 0,0.708706 0.354353,1.381976 0.354353,0.67327 -0.248047,1.133928 -0.106306,1.878069 0.088,0.461974 0.585641,0.703647 1.162393,0.813132 0,0 -0.601339,-0.486973 -0.501113,-1.138443 0.100226,-0.651469 -0.100226,-1.428221 -0.200452,-1.829125 -0.100226,-0.400905 0.02506,-0.375848 0.250565,-0.400905 0.225509,-0.02506 0.300955,-0.07553 0.225647,-0.325917 -0.07531,-0.250383 -0.350929,-0.450835 -0.576438,-0.77657 -0.225509,-0.325734 -0.350791,-0.701582 -0.250565,-1.152599 0.100226,-0.451018 -0.07502,-0.601596 -0.40083,-0.801929 -0.325809,-0.200332 -0.526327,-0.717809 -0.476148,-1.07731 0.054,-0.386886 0.272233,-0.614875 0.400702,-0.964426 0.128469,-0.349551 0.250767,-2.142583 -0.07497,-3.119787 -0.325734,-0.977204 -0.740218,-1.044066 -0.651469,-0.751695 0.08875,0.29237 0.3228,0.589651 0.336795,1.284558 0.014,0.694907 -0.226707,1.418633 -0.51499,2.321733 -0.288283,0.9031 -0.538687,1.41573 -0.252843,1.788981 z M 96.843443,47.273298 c 0,0 -0.225508,0.726639 -0.50113,2.280143 -0.275622,1.553504 -0.125283,1.979465 -0.451017,2.580821 -0.325735,0.601357 -0.100227,1.052374 0.225508,1.703844 0.325735,0.651469 0.902035,1.753956 0.902035,1.753956 0,0 -0.14908,-0.590318 -0.400904,-1.127544 -0.251825,-0.537225 -0.468219,-1.011298 -0.505455,-1.28792 -0.0503,-0.373674 0.472839,-0.578257 0.472839,-0.578257 0,0 -0.368289,-0.338796 -0.243006,-1.090492 0.125282,-0.751695 0.289663,-1.851227 0.714886,-2.772544 0.425223,-0.921317 0.921317,-1.098493 0.921317,-1.098493 0,0 -0.141741,-1.133929 -0.283482,-1.027623 -0.141741,0.106306 -0.851591,0.664109 -0.851591,0.664109 z"
           id="path886" />
        <path
           id="path2282"
           style="font-variation-settings:normal;opacity:1;vector-effect:none;fill:#a15f33;fill-opacity:1;stroke:none;stroke-width:0.505826;stroke-linecap:butt;stroke-linejoin:miter;stroke-miterlimit:4;stroke-dasharray:none;stroke-dashoffset:0;stroke-opacity:1;stop-color:#000000;stop-opacity:1"
           d="m 382.16016,169.4082 c -1.754,0.0396 -3.53879,0.38588 -5.01758,1.30664 -4.73214,2.94643 -5.65821,12.56446 -5.6582,12.56446 0,0 0.97042,1.49749 2.17578,2.0332 0,0 -0.22897,-4.49191 4.28711,-9.50977 4.51609,-5.01785 11.78515,-5.08789 11.78515,-5.08789 0,0 -3.71347,-1.39368 -7.57226,-1.30664 z m 4.5039,24.57618 c -0.55115,0.0146 -1.12304,0.0675 -1.70898,0.16796 -4.68749,0.80357 -9.77707,5.08873 -11.91992,7.09766 l 1.33984,1.33984 c 0,0 4.01813,-0.26757 6.29492,-0.26757 -0.23202,1.54699 0.50607,2.51674 1.45117,2.67187 -1.18306,1.07767 -2.12109,2.55078 -2.12109,2.55078 5.22319,-0.9375 10.04492,-5.75976 10.04492,-5.75976 -5.7589,-2.41072 -12.99219,-0.53516 -12.99219,-0.53516 0,0 2.81391,-2.94643 6.16211,-4.6875 3.34825,-1.74107 10.17774,-0.9375 10.17774,-0.9375 0,0 -2.87048,-1.74316 -6.72852,-1.64062 z m 20.61328,3.65039 c 0,0 -6.02709,7.76701 -7.23242,11.11523 -1.20537,3.34822 -0.40234,5.08984 -0.40234,5.08984 0,0 1.2062,-3.08175 4.82226,-6.16211 3.61607,-3.08035 4.15039,-7.76757 4.15039,-7.76757 z m -42.23046,1.16211 c -2.25858,-0.0515 -1.78711,2.18554 -1.78711,2.18554 0,0 3.61551,-0.80467 6.16015,0.13281 0,0 -1.07226,-1.8736 -3.88476,-2.27539 -0.17578,-0.0251 -0.33772,-0.0395 -0.48828,-0.043 z m 1.42578,2.9082 c -0.60906,-0.0246 -1.27958,0.0391 -2.00782,0.21484 l 1.20508,1.47266 c 0,0 -0.58321,1.63683 1.62696,2.83008 -0.0586,0.48493 -0.16671,0.97015 -0.28711,1.45507 0,0 3.07979,-1.20535 3.34765,-2.8125 0.21763,-1.3058 -1.24553,-3.05346 -3.88476,-3.16015 z m 7.23242,2.08984 c 0,0 -1.33929,7.09766 -1.875,10.84766 -0.53572,3.75 0.0622,3.589 1.20508,4.01758 1.14285,0.42857 3.48242,1.07226 3.48242,1.07226 0,0 -0.93694,-2.41155 -2.41016,-3.88476 -1.47321,-1.47322 -0.26841,-5.7581 0.53516,-8.30274 0.80357,-2.54464 0.26785,-3.08036 -0.9375,-3.75 z m 50.11719,17.11328 -7.64844,4.50782 c -3.40925,2.46224 -4.47657,5.47684 -7.28906,8.95898 -2.8125,3.48214 -7.57599,4.25674 -12.1875,6.5625 -4.48887,2.24444 -6.27099,3.50268 -8.8086,4.77148 l 0.63867,3.08594 c 0,0 2.36322,-3.30938 11.33789,-6.11719 8.96659,-2.80527 12.35509,-6.2432 16.20704,-10.44531 0,0 0.93665,2.00865 2.67773,3.08008 0,0 2.411,-4.82143 3.48242,-6.5625 0,0 0.32665,6.55291 2.03125,14.69727 -6.60892,6.2301 -11.03575,12.43188 -13.63867,21.28515 6.69645,-12.05357 13.92941,-19.24079 17.00977,-21.51758 0,0 -2.29725,-10.37421 -3.8125,-22.30664 z m -47.89649,0.86133 c -0.88302,0.0479 -0.69678,0.72096 -2.10547,0.30664 -1.60991,-0.4735 -1.70508,0.2832 -1.70508,0.28321 0.85232,1.23112 3.97696,1.70598 5.49219,1.42187 1.51521,-0.28411 0.19006,-1.80084 -1.23047,-1.99023 -0.17756,-0.0237 -0.32502,-0.0283 -0.45117,-0.0215 z m 2.19922,8.86719 c -1.28828,-0.006 -2.55341,0.22343 -3.26367,0.3418 -1.13643,0.18943 -2.58399,0.27148 -2.58399,0.27148 1.58237,2.35575 2.11097,0.86343 4.47852,1.43164 2.36753,0.5682 5.20787,0.19031 5.30273,-0.0937 0.0947,-0.28411 0.0943,-0.94646 -1.70507,-1.60937 -0.67475,-0.2486 -1.45555,-0.33792 -2.22852,-0.3418 z"
           transform="scale(0.26458333)" />
        <g
           id="g875"
           style="stroke-width:1.01165">
          <path
             style="font-variation-settings:normal;opacity:1;vector-effect:none;fill:#f8d6a6;fill-opacity:1;stroke:none;stroke-width:0.133833;stroke-linecap:butt;stroke-linejoin:miter;stroke-miterlimit:4;stroke-dasharray:none;stroke-dashoffset:0;stroke-opacity:1;stop-color:#000000;stop-opacity:1"
             d="m 111.66834,42.805804 c 2.66044,0.905045 4.31108,1.799731 5.99999,3.468357 -1.27479,0.08991 -1.93218,0.241478 -3.02343,0.606699 1.51408,0.870366 2.87063,1.986881 3.79231,3.953247 -1.34654,-0.02076 -2.4812,0.121808 -2.4812,0.121808 1.14861,0.773496 2.00184,2.048288 2.62228,3.933241 0.62044,1.884953 1.12981,2.775485 1.96009,3.542419 -1.98397,-0.185413 -2.68656,-1.197691 -3.95875,-1.052148 0.90203,2.104747 3.05699,4.894289 3.05699,4.894289 -0.90799,0.05693 -2.4496,-0.279679 -4.51031,-1.052131 -2.06072,-0.772453 -2.99004,-2.773082 -2.99004,-2.773082 0,0 -0.48424,0.778805 -0.7348,1.455332 -1.10249,-0.100225 -1.37893,-1.151028 -1.81261,-3.217639 -0.44208,-2.106644 -0.7474,-3.507912 -1.39887,-4.660512 -0.50275,0.921704 -0.94208,1.472888 -2.535,3.407687 0,0 0.3588,-1.241788 0.72664,-4.184439 0.36783,-2.942651 -0.0251,-5.387152 -2.4806,-5.938395 -2.45554,-0.551243 -5.412209,0.5763 -5.612661,3.182178 -0.459967,-0.696487 -0.685432,-1.644542 -0.226085,-2.737924 -1.589066,1.460402 -3.359186,2.382978 -5.296314,3.878903 0.134393,-1.468332 0.677732,-2.331286 1.3587,-3.526331 -1.984888,-0.627975 -3.125982,-2.081716 -3.643015,-3.146921 2.574929,-0.159551 4.806047,0.141982 7.674775,-0.03974 -0.921915,-0.732329 -1.973502,-1.364431 -2.642967,-2.09676 2.59214,-0.311567 3.995354,0.29262 6.256627,1.025105 -0.24229,-0.952799 -0.3749,-1.498528 -0.40812,-2.593835 2.95762,0.405059 4.57346,1.848943 6.48964,3.031839 2.12854,-1.304967 2.61255,-2.55893 5.24289,-3.689389 -0.45525,1.98265 -0.95599,2.230371 -1.42616,4.208142 z"
             id="path850" />
          <path
             style="font-variation-settings:normal;opacity:1;vector-effect:none;fill:#e2b677;fill-opacity:0.99495;stroke:none;stroke-width:0.133833;stroke-linecap:butt;stroke-linejoin:miter;stroke-miterlimit:4;stroke-dasharray:none;stroke-dashoffset:0;stroke-opacity:1;stop-color:#000000;stop-opacity:1"
             d="m 110.58166,46.963542 -0.99219,0.07087 c 0,0 0.63784,-0.850446 0.4961,-0.850446 -0.14175,0 -1.27567,-1.063058 -1.27567,-1.063058 0,0 -0.35436,1.842634 0.42522,3.260045 0,0 -0.43492,0.391552 -0.89073,0.479258 0,0 -0.3743,0.35182 -0.13704,1.528962 0.23726,1.177142 -0.0174,1.636511 -0.0174,1.636511 h 4e-5 c -0.75575,1.411517 -1.95035,1.895943 -1.95035,1.895943 0,0 1.00226,-4.326425 0.56366,-6.360188 -0.4386,-2.033764 -2.24564,-2.46415 -2.24564,-2.46415 0.65664,-0.213252 1.27567,0.141741 1.27567,0.141741 0,0 -0.0354,-0.566964 -1.2048,-0.921316 -1.16936,-0.354358 -2.48046,0.03543 -2.48046,0.03543 0.21261,-0.212612 0.7087,-0.566965 0.7087,-0.566965 -1.80656,-0.205935 -3.368474,0.952898 -4.323101,2.161552 -0.177177,-0.67327 0.212611,-1.559152 0.212611,-1.559152 -1.311105,0.177176 -2.232422,0.885882 -2.232422,0.885882 0.177177,0.03544 0.779576,0.07087 0.779576,0.07087 -0.531529,0.992188 -2.374163,1.665458 -2.374163,1.665458 -0.177176,-1.204799 0.425223,-2.338728 0.425223,-2.338728 -0.815011,0.354353 -1.34654,0.354353 -1.34654,0.354353 -0.07087,-0.425223 0.212612,-0.815011 0.212612,-0.815011 -0.885882,-0.141741 -1.59459,-0.496096 -1.59459,-0.496096 0,0 1.098495,-0.744141 3.508092,-0.318915 2.409598,0.425222 4.677452,-0.318919 4.677452,-0.318919 0,0 -2.870252,-1.098494 -4.110487,-1.807199 0,0 1.452848,-0.177175 2.834823,0.318919 1.381974,0.496094 1.842634,0.637835 3.578964,1.34654 1.73633,0.708705 3.36635,0.850446 4.35854,1.594587 0,0 -0.70871,-0.885882 -2.55134,-1.452846 -1.84264,-0.566964 -2.44504,-1.417411 -2.83482,-1.913504 0,0 0.85044,-0.03544 1.52371,0.212611 0,0 -0.28348,-0.389788 -0.38979,-0.779576 0,0 1.27567,0.07087 2.65765,0.885882 1.38197,0.815011 1.87807,1.523717 1.87807,1.523717 l -0.38979,0.389788 c 0,0 0.67327,0.637834 1.41741,0.956752 0,0 -0.31892,-0.744141 -0.7087,-1.240235 0,0 0.63783,-0.177176 1.20479,-0.07087 l -0.14174,-0.6024 c 0,0 0.82682,-0.401599 2.53953,0.366165 1.71271,0.767764 2.77576,1.653646 3.37816,2.397786 0,0 -0.47247,0.377976 -0.79138,0.590588 0,0 0.42522,0.07087 0.74414,0.212612 0,0 -0.28388,0.472474 -0.35458,0.874071 0,0 0.10653,-0.342542 0.7798,1.003998 0.67327,1.34654 2.09068,2.267857 2.09068,2.267857 0,0 -0.81501,0.472469 -1.55915,0.803199 0,0 0.53153,0.755953 0.85045,1.322917 l -0.38979,0.03543 c 0,0 0.95675,1.311105 1.41741,2.409599 l -0.28348,0.03544 c 0,0 0.49609,0.992187 0.81501,1.842634 0,0 -1.45285,-0.354353 -2.4096,-1.240235 l 0.35435,0.885882 -0.7087,-0.318917 c 0.59664,2.108242 1.54235,4.60413 3.39883,5.90573 0,0 -1.71927,-0.06173 -3.77391,-1.063986 -2.05464,-1.002261 -1.95441,-2.756217 -1.95441,-2.756217 0,0 -1.80407,0.551243 -2.80633,-0.651469 0,0 0.10022,-1.252826 0.85192,-2.204974 0,0 -0.20045,-1.002261 -0.85192,-1.854182 l 1.6229,0.278445 c -0.68298,-1.746451 -1.24246,-2.552755 -2.37895,-3.613294 0,0 2.21841,-1.233413 0.87187,-3.005176 z"
             id="path870" />
          <path
             id="path866"
             style="font-variation-settings:normal;opacity:1;vector-effect:none;fill:#fff4e5;fill-opacity:1;stroke:none;stroke-width:0.505826;stroke-linecap:butt;stroke-linejoin:miter;stroke-miterlimit:4;stroke-dasharray:none;stroke-dashoffset:0;stroke-opacity:1;stop-color:#000000;stop-opacity:1"
             d="m 428.76953,143.98633 c -9.94144,4.2726 -13.3809,10.24362 -21.42578,15.17578 -7.24226,-4.47079 -14.2005,-10.40071 -25.37891,-11.93164 0.59906,4.23444 1.762,7.33832 2.67774,10.93945 0,0 -1.02595,-5.26897 -0.49024,-8.61719 10.47557,1.53852 17.291,7.95761 25.84766,12.05469 5.6016,-4.668 9.00607,-10.7195 15.13477,-13.25976 0,0 -1.34096,7.00892 -3.08204,13.4375 1.77702,-7.47504 4.99617,-10.30535 6.7168,-17.79883 z m -6.7168,17.79883 c 0,0 14.06362,5.17941 21.42969,12.94726 0,0 -7.23328,-0.17886 -10.17969,2.45508 4.12441,-1.38036 8.97682,-1.66995 13.79493,-2.00977 -6.38329,-6.30661 -15.27383,-10.91895 -25.04493,-13.39257 z m 11.25,15.40234 c 6.05221,4.15325 10.72157,9.24998 14.33399,14.94141 0.77254,0.004 1.53817,0.0199 2.27344,0.0586 -4.90405,-7.52664 -10.5061,-11.99453 -16.60743,-15 z m -61.43945,7.41797 c 0.75762,-9.84899 10.41649,-15.1518 19.69727,-13.06836 9.28078,2.08344 11.05038,10.28051 9.66015,21.40234 -1.39026,11.12183 -3.03125,19.69727 -3.03125,19.69727 6.02049,-7.31263 7.49242,-9.77421 9.39258,-13.25781 2.46225,4.35628 3.89946,8.32694 5.57031,16.28906 1.63911,7.81081 2.08294,10.4177 5.49219,16.85742 0.64246,-2.07014 1.53626,-4.22934 2.40039,-6.11719 -3.14623,-3.09106 -4.66284,-8.41359 -6.31445,-17.55859 -1.88716,-10.44924 -4.06557,-15.86399 -5.75781,-18.40234 -0.29556,7.20732 -1.62378,9.54256 -5.67774,10.9414 -0.41741,-8.77303 2.97141,-11.73401 0.3711,-21.6289 -2.60032,-9.8949 -14.30211,-10.99997 -21.3086,-8.82813 -7.00646,2.17184 -9.5926,5.31042 -11.64062,7.6875 0,0 0.13056,-4.42187 1.33593,-7.23437 -5.79608,4.28019 -10.85573,9.47925 -17.94531,12.14257 -0.26785,-4.55357 2.27735,-9.50976 2.27735,-9.50976 -7.5,-3.48214 -10.62305,-9.73242 -10.62305,-9.73242 3.4163,-1.46413 7.28284,-2.14577 15.71094,-1.07032 8.43684,1.07658 13.52734,0 13.52734,0 0,0 -6.69559,-3.08007 -11.11523,-7.76757 6.04417,-1.63499 14.50624,1.05894 20.75781,2.72265 -7.83723,-2.85711 -14.3727,-6.15928 -25.44531,-4.82226 2.53026,2.76785 6.69333,5.53683 10.17773,8.30468 -10.84244,0.68683 -19.46525,-0.73779 -29.19727,-0.13476 1.95414,4.02597 7.49807,10.75155 15,13.125 -2.57373,4.5167 -5.38463,8.91524 -5.89257,14.46484 5.43062,-4.19374 11.75942,-8.7253 19.58343,-11.16615 -0.0922,2.66967 0.92523,5.07828 2.99469,6.6642 z"
             transform="scale(0.26458333)" />
        </g>
        <path
           style="font-variation-settings:normal;opacity:1;vector-effect:none;fill:#f9caab;fill-opacity:1;stroke:none;stroke-width:0.133833;stroke-linecap:butt;stroke-linejoin:miter;stroke-miterlimit:4;stroke-dasharray:none;stroke-dashoffset:0;stroke-opacity:1;stop-color:#000000;stop-opacity:1"
           d="m 107.27437,59.424944 c 0.32069,-0.567128 0.47529,-1.652592 -0.42775,-1.886667 -0.90303,-0.234075 -1.39827,0.4786 -2.46909,0.60214 -1.07081,0.123541 -1.72335,-0.898718 -2.62551,-0.834985 -0.90215,0.06373 -1.62698,1.625938 -0.77654,2.476384 0.85045,0.850446 0.34576,0.847928 1.01903,1.308586 0.67327,0.460658 1.89379,-0.02406 2.77081,-0.493575 0.87702,-0.469517 2.18836,-0.604755 2.50905,-1.171883 z"
           id="path901" />
        <path
           id="path923"
           style="opacity:1;fill:#ffffff;fill-opacity:1;stroke:none;stroke-width:0.505826"
           d="m 382.33789,201.9668 a 1.5703131,0.9873075 83.719012 0 0 -0.14258,0.0254 1.5703131,0.9873075 83.719012 0 0 -0.66992,1.82812 1.5703131,0.9873075 83.719012 0 0 1.24023,1.24805 1.5703131,0.9873075 83.719012 0 0 0.66993,-1.82813 1.5703131,0.9873075 83.719012 0 0 -1.09766,-1.27343 z m -15.41992,1.33398 a 1.1417961,0.67130566 79.294953 0 0 -0.16992,0.0332 1.1417961,0.67130566 79.294953 0 0 -0.33008,1.36524 1.1417961,0.67130566 79.294953 0 0 0.92187,0.82617 1.1417961,0.67130566 79.294953 0 0 0.33008,-1.36523 1.1417961,0.67130566 79.294953 0 0 -0.75195,-0.85938 z"
           transform="scale(0.26458333)" />
      </g>
      <path
         id="path2247"
         style="font-variation-settings:normal;opacity:1;vector-effect:none;fill:#ffffff;fill-opacity:1;stroke:none;stroke-width:0.133833;stroke-linecap:butt;stroke-linejoin:miter;stroke-miterlimit:4;stroke-dasharray:none;stroke-dashoffset:0;stroke-opacity:1;stop-color:#000000;stop-opacity:1"
         d="m 87.196683,92.592185 c 0,0 0.701582,-1.00226 1.703842,-1.954408 1.002261,-0.952148 5.061416,-3.80859 7.767521,-6.163903 2.706103,-2.355313 2.756218,-2.405425 4.359834,-3.4578 1.60362,-1.052372 4.51017,-4.009043 7.11605,-6.364356 2.60588,-2.355313 3.95893,-4.610399 5.0113,-6.46458 1.05238,-1.854182 0.40091,-2.80633 0.70159,-3.708366 0.30068,-0.902033 1.70384,-0.851921 2.45554,-0.501128 0.75169,0.350789 0.65147,1.302938 0.65147,1.302938 0,0 -0.15034,-0.751695 -1.00226,-0.851922 -0.85193,-0.100227 -1.22035,0.18643 -1.15261,1.202713 0.0677,1.016278 -0.70462,2.928632 -2.20497,5.211756 -1.50033,2.283122 -4.08816,4.381705 -6.21402,6.665033 -2.20448,2.367781 -3.8587,3.407687 -7.065932,6.063677 -3.207234,2.655991 -4.159383,3.207236 -7.216278,5.662773 -3.056896,2.45554 -4.911077,3.357573 -4.911077,3.357573 z M 102.00508,66.065681 c -0.37584,-0.150335 -1.31427,-0.241803 -2.00451,0.250569 -0.667396,0.476075 -1.215928,1.016278 -3.065255,3.357574 -1.814027,2.296606 -4.309721,6.063678 -6.163902,9.321024 -1.854182,3.257349 -4.860965,9.270913 -5.612659,11.024868 -0.751698,1.753957 -1.059053,2.92699 -1.059053,2.92699 l 0.67327,0.283482 c 0,0 0.307355,-1.173033 1.059053,-2.92699 0.751694,-1.753955 3.758477,-7.767519 5.612659,-11.024868 1.854181,-3.257346 4.131625,-6.577746 5.738679,-8.612319 1.638326,-2.074163 2.695246,-3.295432 3.223528,-3.745 0.52829,-0.449568 1.00235,-0.531107 1.36904,-0.467904" />
      <g
         id="g1015"
         style="stroke-width:1.01165">
        <path
           style="font-variation-settings:normal;opacity:1;vector-effect:none;fill:#f2b388;fill-opacity:1;stroke:none;stroke-width:0.133833;stroke-linecap:butt;stroke-linejoin:miter;stroke-miterlimit:4;stroke-dasharray:none;stroke-dashoffset:0;stroke-opacity:1;stop-color:#000000;stop-opacity:1"
           d="m 50.934339,92.991649 c 0.352824,-0.03388 0.70359,-0.01546 1.072823,0.132235 0.885882,0.354353 2.178087,0.315633 3.36635,0.141741 1.188263,-0.173892 2.425091,-1.278975 3.64879,-1.774282 1.223698,-0.495306 2.248746,-0.257796 2.248746,-0.257796 0.135404,-1.298804 0.279574,-3.733861 -0.625743,-5.373324 -2.651465,0.123243 -3.381514,-0.577083 -4.948101,-1.434047 -1.566588,-0.856965 -3.985335,-0.999743 -4.268817,-0.928873 -0.283483,0.07087 -0.956753,1.063058 -1.523717,1.381976 -0.566967,0.318917 -0.519717,0.696893 -0.519717,0.696893 0,0 -0.779705,0.08406 -1.452846,0.07087 -0.654047,-0.01282 -1.271176,0.150069 -2.281491,0.221209 0,0 -0.884061,0.09771 -1.025802,0.664673 -0.141741,0.566965 0.992188,4.606585 0.992188,4.606585 0,0 0.496093,0 0.850446,0.708706 0.354353,0.708705 0.429358,0.984505 1.561219,1.431287 z"
           id="path977" />
        <path
           style="font-variation-settings:normal;opacity:1;vector-effect:none;fill:#f9caab;fill-opacity:1;stroke:none;stroke-width:0.133833;stroke-linecap:butt;stroke-linejoin:miter;stroke-miterlimit:4;stroke-dasharray:none;stroke-dashoffset:0;stroke-opacity:1;stop-color:#000000;stop-opacity:1"
           d="m 60.645311,85.860223 c 0.07454,0.429986 0.06843,0.896799 0.136833,1.282933 0,0 -0.199647,0.03941 -1.510752,0.07485 -1.311105,0.03544 -1.559152,0.07087 -1.417411,0.637835 0.141741,0.566964 1.098493,0.6024 1.771763,0.212612 0.67327,-0.389788 0.894172,-0.453723 1.24438,-0.31545 0.09259,0.835514 0.03129,1.343073 0.03129,1.343073 0,0 -0.283482,-0.07087 -1.204799,0.141741 -0.921317,0.212611 -1.098493,0.637835 -1.311105,1.275669 -0.225231,0.675691 -1.523716,1.771768 -3.047433,1.736328 -1.523716,-0.03544 -2.77527,0.621067 -3.508092,0.248047 -0.732823,-0.37302 0.555153,-1.192987 0.05906,-1.795387 -0.496094,-0.602399 0.106306,-1.098493 -0.248047,-1.488281 -0.354352,-0.389788 -0.04127,-0.98184 0.284461,-1.207349 0.325735,-0.225508 0.659822,0.141987 0.659822,0.141987 0,0 -0.133635,0.851922 0.442665,1.378109 0.576302,0.526187 0.659822,1.779053 0.659822,1.779053 1.018966,0.26727 1.887591,-1.169305 1.186008,-1.670435 -0.701582,-0.50113 -1.202713,-0.350791 -1.202713,-0.801808 0,-0.451018 0.701583,0 1.453278,-0.100227 0.751696,-0.100266 1.300418,0.0082 1.300418,0.0082 0,0 -0.03543,-0.67327 -1.452846,-0.956752 -1.41741,-0.283483 -0.815011,-0.885882 -0.815011,-0.885882 l 3.106491,0.200799 c -0.224424,-0.543342 -0.732328,-1.01581 -0.732328,-1.01581 0.354353,-0.106306 0.531529,-0.531529 0.212612,-0.460659 -0.318918,0.07087 -0.850447,0.177177 -1.452846,-0.141741 -0.6024,-0.318917 -1.169364,-0.248047 -1.169364,-0.248047 0,0 0.07087,-0.496088 -0.496094,-0.460658 -0.566964,0.03544 -0.67327,-0.141741 -0.177176,-0.496094 0.496094,-0.354353 -0.03544,-0.602399 -0.106306,-0.602399 1.754658,0.178051 2.724789,0.598591 4.023701,1.348466 1.196504,0.690754 2.412019,0.615056 3.279719,0.837277 z"
           id="path983" />
        <path
           style="font-variation-settings:normal;opacity:1;vector-effect:none;fill:#f9caab;fill-opacity:1;stroke:none;stroke-width:0.133833;stroke-linecap:butt;stroke-linejoin:miter;stroke-miterlimit:4;stroke-dasharray:none;stroke-dashoffset:0;stroke-opacity:1;stop-color:#000000;stop-opacity:1"
           d="m 48.028667,93.279502 c -0.796305,-0.168885 -1.560268,-0.429171 -1.726583,-0.616276 -0.283483,-0.318918 -0.248047,-0.850447 -0.106313,-1.027623 -0.779574,-0.177179 -1.097168,-0.654732 -1.133928,-1.169366 -0.03543,-0.496094 -0.03543,-0.992187 -0.03543,-0.992187 -0.74414,-0.106305 -1.204793,-0.389787 -1.169363,-1.204798 0.03543,-0.815012 0.67327,-0.921317 0.67327,-0.921317 0,0 -0.425228,-0.106306 -0.460658,-0.460659 -0.03544,-0.354353 0.07711,-0.685677 0.406246,-0.821091 0.265757,-0.109344 0.499655,-0.183254 1.174707,-0.197934 0,0 -0.65746,0.284411 -0.757686,0.760485 -0.100226,0.476074 0.250565,0.601356 0.250565,0.601356 0,0 -0.176139,0.413138 0.213649,1.121843 0.389788,0.708705 -0.07087,1.027623 0.07087,1.630022 0.141741,0.6024 0.885881,0.460659 1.204799,1.34654 0,0 -0.212611,0.248047 0.248048,0.531529 0.460658,0.283483 0.03543,0.744141 0.67327,1.027623"
           id="path1007" />
        <path
           style="font-variation-settings:normal;opacity:1;vector-effect:none;fill:#ffe1cc;fill-opacity:1;stroke:none;stroke-width:0.133833;stroke-linecap:butt;stroke-linejoin:miter;stroke-miterlimit:4;stroke-dasharray:none;stroke-dashoffset:0;stroke-opacity:1;stop-color:#000000;stop-opacity:1"
           d="m 50.18815,85.03283 c 0.67327,-0.141742 0.850448,-0.885883 1.169363,-1.13393 0.318919,-0.248047 2.515905,0 3.614399,0.318919 1.098492,0.318918 1.452846,0.460658 2.799385,1.13393 1.346541,0.673269 2.410988,0.723448 2.874008,0.508474 -0.06084,-0.09583 -0.124888,-0.190493 -0.192279,-0.283862 0,0 -1.553504,0.03341 -2.706106,-0.517834 -1.152599,-0.551244 -1.854181,-1.503392 -2.806329,-1.703843 -0.952148,-0.200453 -1.551456,-0.117242 -2.720819,-0.04637 -1.169363,0.07087 -1.133927,-0.177175 -1.559152,0.212612 -0.425223,0.389789 -0.602399,0.992187 -1.063057,1.311105 -0.460658,0.318918 -0.354353,0.460658 -0.212611,0.74414 0,0 0.129929,-0.401601 0.803198,-0.543341 z"
           id="path973" />
        <path
           id="path987"
           style="font-variation-settings:normal;opacity:1;vector-effect:none;fill:#d48b5a;fill-opacity:1;stroke:none;stroke-width:0.505826;stroke-linecap:butt;stroke-linejoin:miter;stroke-miterlimit:4;stroke-dasharray:none;stroke-dashoffset:0;stroke-opacity:1;stop-color:#000000;stop-opacity:1"
           d="m 196.9043,322.25586 c -1.56492,0.0906 -3.14212,1.713 -5.1875,2.39844 -2.72719,0.91391 -4.0357,-0.06 -5.06446,-1.2168 -0.13392,3.52679 -2.35798,4.23075 -6.50976,3.02539 -4.15179,-1.20536 -7.13867,1.49609 -7.13867,1.49609 l -2.38282,1.73047 c 2.87263,3.09359 6.83478,1.02532 8.11329,3.34571 1.2785,2.32038 -2.08399,4.35546 -2.08399,4.35546 l -4.55664,0.34571 c 1.82953,2.75823 3.78404,1.2827 5.25977,2.18945 1.16016,0.71286 1.17117,2.20795 1.57031,3.9043 4.10722,3.64726 5.43318,4.71119 2.60156,8.72265 2.12026,0.44969 4.30231,0.72789 5.79688,0.61719 2.1089,-0.15621 3.98956,-0.72319 5.85546,-0.90234 1.33351,-0.12805 2.65917,-0.0582 4.05469,0.5 3.34822,1.33929 8.23159,1.19238 12.72266,0.53515 4.49107,-0.65723 6.89257,-3.88578 11.51758,-5.75781 4.625,-1.87202 9.03125,-1.25195 9.03125,-1.25195 l 1.88,0.25786 c 0.94147,-5.95245 1.0553,-18.47526 -3.89953,-23.11333 2.8802,7.42572 2.70788,11.53209 2.25585,18.85156 -1.81437,-0.43347 -6.67835,0.7915 -11.22241,4.50937 -6.25032,5.11389 -13.68617,5.72258 -19.88696,4.54532 -4.76711,-0.90507 -7.23637,-1.04325 -8.98633,-0.4043 -0.48704,-0.30382 -0.99707,-0.65117 -1.49414,-1.04883 -1.89403,-1.51522 0.49219,-3.37304 0.49219,-3.37304 l 3.75,-2.27735 c 0,0 -1.69531,-1.87444 -1.69531,-4.28515 0,-2.41072 1.60546,-3.48242 1.60546,-3.48242 -2.4107,-1.33928 -1.875,-3.88282 -1.875,-3.88282 0,0 1.4749,-0.13533 4.01954,-2.41211 2.54464,-2.27678 3.88309,-2.00837 10.17773,-0.53515 6.29464,1.47321 10.80273,-0.44531 10.80273,-0.44531 -3.88393,-2.41072 -15.80245,-4.82255 -17.94531,-6.42969 -0.53571,-0.40179 -1.05648,-0.54191 -1.57812,-0.51172 z m 1.84375,10.9043 c 0,0 -1.89384,2.46363 0.75781,5.30468 2.65165,2.84106 3.4082,6.62891 3.4082,6.62891 0,0 0.75722,-4.54551 -1.51562,-6.81836 -2.27284,-2.27284 -2.65039,-5.11523 -2.65039,-5.11523 z"
           transform="scale(0.26458333)" />
        <path
           style="font-variation-settings:normal;opacity:1;vector-effect:none;fill:#a15f33;fill-opacity:1;stroke:none;stroke-width:0.133833;stroke-linecap:butt;stroke-linejoin:miter;stroke-miterlimit:4;stroke-dasharray:none;stroke-dashoffset:0;stroke-opacity:1;stop-color:#000000;stop-opacity:1"
           d="m 45.026413,89.47405 c 0,0 0.20526,-0.394574 1.110306,-0.566963 0.74414,-0.141741 1.807198,-0.141741 2.586774,0.07087 0.779576,0.212611 2.161552,0.141742 2.161552,0.141742 0,0 -0.354353,0.708705 -1.736328,0.496094 -1.381976,-0.212612 -3.106494,-0.17718 -4.122304,-0.141744 z m 1.169358,2.161553 c 0,0 0.649653,-0.377976 1.535535,-0.236235 0.885882,0.141741 1.488281,0.354353 2.445033,0.283482 0.956753,-0.07087 0.992188,-0.602399 0.992188,-0.602399 0,0 -0.67327,0.283482 -1.913504,-0.106306 -1.240235,-0.389788 -2.196987,-0.318918 -2.62221,0 -0.425224,0.318917 -0.437042,0.661458 -0.437042,0.661458 z m 0.755959,-4.134115 c 1.344509,0.463909 3.053533,0.71312 4.110491,-0.248046 -1.467328,0.134594 -2.386274,0.201034 -3.622995,-0.156424 -1.186247,-0.342869 -2.589989,-0.916358 -2.908906,0.250915 0,0 1.076084,-0.310636 2.42141,0.153555 z m 10.311663,-0.401599 c -0.425223,-0.637835 -1.311105,-0.885882 -2.62221,-1.169364 -1.311105,-0.283482 -1.452845,-0.46066 -1.452845,-0.46066 0.301721,-0.01038 0.652509,-0.214392 0.673269,-0.460658 -0.304977,0.104526 -0.496094,0.177177 -1.204799,-0.07087 -0.708705,-0.248047 -1.346541,0.389787 -1.984375,0.744141 -0.637836,0.354351 -1.287481,-0.106307 -1.287481,-0.106307 0,0 0.07335,0.496547 0.720517,0.614213 0.647167,0.117666 1.311105,-0.6024 1.984375,-0.566965 0.67327,0.03544 0.566964,0.850447 2.055246,0.885882 1.488281,0.03544 1.523716,0.04725 3.118303,0.590588 z"
           id="path971" />
      </g>
    </g>
  </g>
</svg>
