<?xml version="1.0" encoding="UTF-8" standalone="no"?>
<svg
   xmlns:dc="http://purl.org/dc/elements/1.1/"
   xmlns:cc="http://creativecommons.org/ns#"
   xmlns:rdf="http://www.w3.org/1999/02/22-rdf-syntax-ns#"
   xmlns:svg="http://www.w3.org/2000/svg"
   xmlns="http://www.w3.org/2000/svg"
   xmlns:sodipodi="http://sodipodi.sourceforge.net/DTD/sodipodi-0.dtd"
   xmlns:inkscape="http://www.inkscape.org/namespaces/inkscape"
   version="1.0"
   width="500"
   height="624.99951"
   id="svg1901"
   sodipodi:docname="svg.svg"
   inkscape:version="1.0.2 (e86c870879, 2021-01-15, custom)">
  <metadata
     id="metadata21">
    <rdf:RDF>
      <cc:Work
         rdf:about="">
        <dc:format>image/svg+xml</dc:format>
        <dc:type
           rdf:resource="http://purl.org/dc/dcmitype/StillImage" />
      </cc:Work>
    </rdf:RDF>
  </metadata>
  <sodipodi:namedview
     pagecolor="#ffffff"
     bordercolor="#666666"
     borderopacity="1"
     objecttolerance="10"
     gridtolerance="10"
     guidetolerance="10"
     inkscape:pageopacity="0"
     inkscape:pageshadow="2"
     inkscape:window-width="1920"
     inkscape:window-height="1017"
     id="namedview19"
     showgrid="false"
     inkscape:zoom="0.47872887"
     inkscape:cx="437.89732"
     inkscape:cy="169.32607"
     inkscape:window-x="-8"
     inkscape:window-y="-4"
     inkscape:window-maximized="1"
     inkscape:current-layer="svg1901"
     inkscape:snap-global="true" />
  <defs
     id="defs1903" />
  <g
     transform="matrix(0.99979319,0,0,0.99979325,-81.263476,-67.394955)"
     style="opacity:1;stroke-width:1.00021;stroke-miterlimit:4;stroke-dasharray:none"
     id="layer1">
    <path
       d="M 355.86043,664.51368 C 478.18579,650.13661 565.52879,554.53649 580.85165,437.90149 528.1165,394.68967 505.29982,368.33629 504.43777,314.26657 503.57571,260.19685 532.41425,225.67069 569.28799,192.06275 567.56994,170.31907 566.39633,151.9989 564.8188,129.84084 491.51895,93.604193 413.2197,67.908997 331.332,67.908997 c -81.8877,0 -160.18695,25.695196 -233.486803,61.931843 -1.577525,22.15806 -2.751134,40.47823 -4.469185,62.22191 36.873738,33.60794 65.712278,68.1341 64.850218,122.20382 -0.86205,54.06972 -23.67873,80.4231 -76.413878,123.63492 15.322856,116.635 102.665858,212.23512 224.991218,226.61219 7.90819,9.33496 15.88863,18.64308 24.52843,27.31541 8.6398,-8.67233 16.62023,-17.98045 24.52843,-27.31541 z"
       style="opacity:1;fill:#d7dbdb;fill-opacity:1;stroke:#000000;stroke-width:1.00021;stroke-miterlimit:4;stroke-dasharray:none;stroke-opacity:1"
       id="path901"
       sodipodi:nodetypes="cczcczcczcccc" />
    <path
       id="path954"
       style="fill:#016cbc;fill-opacity:1;stroke:#000000;stroke-width:1.5;stroke-miterlimit:4;stroke-dasharray:none;stroke-opacity:1"
       d="m 250.08203,38.648438 -27.30664,121.349612 -13.2168,8.74804 -12.93554,-46.77148 -18.77735,67.83008 -9.71679,6.43554 2.90039,3.53125 h 157.94531 l 2.90234,-3.53125 -9.68554,-6.43554 -18.77735,-67.83008 -12.93554,46.77148 -13.15235,-8.71679 z"
       transform="matrix(1.0002069,0,0,1.0002068,81.280286,67.408892)" />
    <path
       id="path34685"
       style="fill:#e8262c;fill-opacity:1;stroke:#000000;stroke-width:1.00021;stroke-linejoin:bevel;stroke-miterlimit:4;stroke-dasharray:none;stroke-opacity:1"
       d="m 331.26893,70.727209 c -1.38817,0.0327 -2.68955,0.880297 -3.23242,2.251953 -0.5309,1.34139 -0.18318,2.808089 0.75781,3.783204 v 6.201172 h -5.80664 c -0.35005,-0.376772 -0.77927,-0.69081 -1.28906,-0.892579 -1.82895,-0.72364 -3.90117,0.17308 -4.625,2.001953 -0.72389,1.829004 0.1749,3.90111 2.0039,4.625 1.27123,0.503132 2.64935,0.21048 3.6211,-0.621093 h 6.0957 v 16.279301 h 5.11328 V 88.076819 h 6.09375 c 0.29296,0.251834 0.62075,0.470993 1,0.621093 1.829,0.723891 3.90111,-0.17295 4.625,-2.001953 0.7239,-1.829004 -0.17294,-3.901108 -2.00195,-4.625 -1.40349,-0.555302 -2.94346,-0.14953 -3.91406,0.892579 h -5.80274 v -6.19336 c 0.31758,-0.326882 0.57777,-0.718003 0.75586,-1.167969 0.72389,-1.829004 -0.17294,-3.90111 -2.00195,-4.625 -0.45724,-0.18091 -0.92986,-0.2609 -1.39258,-0.25 z" />
    <path
       d="m 331.35045,189.40473 20.55002,74.28479 h -41.10001 z"
       style="fill:none;fill-opacity:1;stroke:#000000;stroke-width:1.50031;stroke-miterlimit:4;stroke-dasharray:none;stroke-opacity:1"
       id="path6103" />
    <path
       d="m 335.57032,102.55185 c 5.88544,2.32935 8.77153,8.99643 6.44217,14.88186 -2.32937,5.88543 -8.99644,8.77153 -14.88189,6.44216 -5.88545,-2.32937 -8.77153,-8.99644 -6.44215,-14.88188 2.32919,-5.88502 8.99544,-8.77117 14.88071,-6.44262"
       style="fill:#e8262c;fill-opacity:1;stroke:#000000;stroke-width:1.00021;stroke-miterlimit:4;stroke-dasharray:none;stroke-opacity:1"
       id="path2181" />
    <path
       d="m 387.97694,177.06251 c 4.48346,1.77447 6.68206,6.85341 4.90758,11.33688 -1.77451,4.48347 -6.85342,6.68207 -11.3369,4.90757 -4.48346,-1.77449 -6.68207,-6.85341 -4.90758,-11.33687 1.77437,-4.48316 6.85264,-6.68181 11.336,-4.90793"
       style="fill:#e8262c;fill-opacity:1;stroke:#000000;stroke-width:1.00021;stroke-miterlimit:4;stroke-dasharray:none;stroke-opacity:1"
       id="path2179" />
    <path
       d="m 281.1533,177.06251 c 4.48346,1.77447 6.68207,6.85341 4.90757,11.33688 -1.77448,4.48347 -6.85342,6.68207 -11.33686,4.90757 -4.4835,-1.77449 -6.6821,-6.85341 -4.90759,-11.33687 1.77435,-4.48316 6.85263,-6.68181 11.33601,-4.90793"
       style="fill:#e8262c;fill-opacity:1;stroke:#000000;stroke-width:1.00021;stroke-miterlimit:4;stroke-dasharray:none;stroke-opacity:1"
       id="path2177" />
    <path
       d="m 334.56577,177.06251 c 4.48347,1.77447 6.68206,6.85341 4.90759,11.33688 -1.7745,4.48347 -6.85342,6.68207 -11.3369,4.90757 -4.48347,-1.77449 -6.68208,-6.85341 -4.90758,-11.33687 1.77437,-4.48316 6.85263,-6.68181 11.33599,-4.90793"
       style="fill:#e8262c;fill-opacity:1;stroke:#000000;stroke-width:1.00021;stroke-miterlimit:4;stroke-dasharray:none;stroke-opacity:1"
       id="path6106" />
    <path
       id="path879"
       style="fill:#e8262c;fill-opacity:1;stroke:#000000;stroke-width:1.50031;stroke-linejoin:bevel;stroke-miterlimit:4;stroke-dasharray:none;stroke-opacity:1"
       d="m 233.43677,618.38023 15.78061,-18.50577 V 488.73234 h -4.83694 l 17.6052,-17.26138 V 278.95654 l -12.52212,-15.26878 h 163.73503 l -12.52017,15.26878 v 192.51442 l 17.64818,17.26138 h -4.88187 v 111.14212 l 15.78257,18.50577 z"
       sodipodi:nodetypes="ccccccccccccccc" />
    <path
       d="M 400.67837,471.47173 H 261.98562 M 400.67837,278.95656 H 261.98562 M 413.44553,488.73292 H 249.21847 M 413.44554,599.87391 H 249.21848 m 82.07795,18.50632 V 263.68776"
       style="fill:none;fill-opacity:1;stroke:#000000;stroke-width:1.50031;stroke-linejoin:bevel;stroke-miterlimit:4;stroke-dasharray:none;stroke-opacity:1"
       id="path872"
       sodipodi:nodetypes="cccccccc" />
    <path
       d="m 371.54212,534.51856 c -9.17653,0.1641 -16.20578,7.24348 -16.18678,16.98378 v 40.10146 h 32.76544 v -41.21111 c 0.18706,-9.20332 -7.40214,-16.03823 -16.57866,-15.87413 z m -5.72763,-154.39782 c -6.69352,0.13905 -11.82078,6.13789 -11.8069,14.39149 v 33.98061 h 23.8997 v -34.9209 c 0.13642,-7.79858 -5.39926,-13.59026 -12.0928,-13.4512 z m -25.14422,68.85514 h 12.77097 v 13.39395 h -12.77097 z m 39.8746,-134.51463 h 9.96898 v 9.68415 h -9.96898 z m -19.64876,0 h 9.96897 v 9.68415 h -9.96897 z m -19.47015,0 h 9.96898 v 9.68415 h -9.96898 z m 39.11891,-28.04414 h 9.96898 v 9.68415 h -9.96898 z m -19.64876,0 h 9.96897 v 9.68415 h -9.96897 z m -19.47015,0 h 9.96898 v 9.68415 h -9.96898 z m 36.57696,162.55877 h 12.77097 v 13.39395 h -12.77097 z m -37.33265,-94.67131 h 12.77097 v 13.39394 h -12.77097 z m 37.33265,0 h 12.77097 v 13.39394 h -12.77097 z"
       style="fill:#016cbc;fill-opacity:1;stroke:#000000;stroke-width:1.00021;stroke-miterlimit:4;stroke-dasharray:none;stroke-opacity:1"
       id="rect4115" />
    <path
       d="m 291.12188,534.51856 c 9.17653,0.1641 16.20578,7.24348 16.18678,16.98378 v 40.10146 h -32.76544 v -41.21111 c -0.18706,-9.20332 7.40214,-16.03823 16.57866,-15.87413 z m 5.72763,-154.39782 c 6.69352,0.13905 11.82078,6.13789 11.8069,14.39149 v 33.98061 h -23.8997 v -34.9209 c -0.13642,-7.79858 5.39926,-13.59026 12.0928,-13.4512 z m 25.14422,68.85514 h -12.77097 v 13.39395 h 12.77097 z m -39.8746,-134.51463 h -9.96898 v 9.68415 h 9.96898 z m 19.64876,0 h -9.96897 v 9.68415 h 9.96897 z m 19.47015,0 h -9.96898 v 9.68415 h 9.96898 z m -39.11891,-28.04414 h -9.96898 v 9.68415 h 9.96898 z m 19.64876,0 h -9.96897 v 9.68415 h 9.96897 z m 19.47015,0 h -9.96898 v 9.68415 h 9.96898 z m -36.57696,162.55877 h -12.77097 v 13.39395 h 12.77097 z m 37.33265,-94.67131 h -12.77097 v 13.39394 h 12.77097 z m -37.33265,0 h -12.77097 v 13.39394 h 12.77097 z"
       style="fill:#016cbc;fill-opacity:1;stroke:#000000;stroke-width:1.00021;stroke-miterlimit:4;stroke-dasharray:none;stroke-opacity:1"
       id="path893" />
  </g>
</svg>
