<?xml version="1.0" encoding="UTF-8" standalone="no"?>
<svg
   xmlns:dc="http://purl.org/dc/elements/1.1/"
   xmlns:cc="http://creativecommons.org/ns#"
   xmlns:rdf="http://www.w3.org/1999/02/22-rdf-syntax-ns#"
   xmlns:svg="http://www.w3.org/2000/svg"
   xmlns="http://www.w3.org/2000/svg"
   xmlns:xlink="http://www.w3.org/1999/xlink"
   xmlns:sodipodi="http://sodipodi.sourceforge.net/DTD/sodipodi-0.dtd"
   xmlns:inkscape="http://www.inkscape.org/namespaces/inkscape"
   width="554.4325"
   height="637.1145"
   viewBox="0 0 146.69359 168.56988"
   version="1.1"
   id="svg8"
   sodipodi:docname="tuusula.svg"
   inkscape:version="1.0 (4035a4fb49, 2020-05-01)">
  <defs
     id="defs2" />
  <sodipodi:namedview
     inkscape:lockguides="true"
     inkscape:snap-others="false"
     id="base"
     pagecolor="#ffffff"
     bordercolor="#666666"
     borderopacity="1.0"
     inkscape:pageopacity="0.0"
     inkscape:pageshadow="2"
     inkscape:zoom="0.91349355"
     inkscape:cx="351.44702"
     inkscape:cy="316.25525"
     inkscape:document-units="px"
     inkscape:current-layer="layer1"
     inkscape:document-rotation="0"
     showgrid="false"
     units="px"
     inkscape:window-width="1920"
     inkscape:window-height="1017"
     inkscape:window-x="-8"
     inkscape:window-y="-8"
     inkscape:window-maximized="1"
     inkscape:showpageshadow="false"
     inkscape:object-nodes="true"
     inkscape:snap-smooth-nodes="true"
     inkscape:snap-global="true" />
  <metadata
     id="metadata5">
    <rdf:RDF>
      <cc:Work
         rdf:about="">
        <dc:format>image/svg+xml</dc:format>
        <dc:type
           rdf:resource="http://purl.org/dc/dcmitype/StillImage" />
        <dc:title />
      </cc:Work>
    </rdf:RDF>
  </metadata>
  <g
     transform="translate(-20.491956,-29.325945)"
     inkscape:label="Шар 1"
     inkscape:groupmode="layer"
     id="layer1">
    <path
       id="path846"
       d="m 167.18556,29.325945 v 95.810315 c 0,44.23803 -36.60286,72.75956 -73.346801,72.75956 -36.743941,0 -73.346803,-28.52153 -73.346803,-72.75956 V 29.325945 Z"
       style="font-variation-settings:normal;opacity:1;vector-effect:none;fill:#e50000;fill-opacity:1;fill-rule:evenodd;stroke:none;stroke-width:0.264583;stroke-linecap:butt;stroke-linejoin:miter;stroke-miterlimit:4;stroke-dasharray:none;stroke-dashoffset:0;stroke-opacity:1;marker:none;marker-start:none;marker-mid:none;marker-end:none;stop-color:#000000;stop-opacity:1"
       sodipodi:nodetypes="cszscc" />
    <path
       id="path848"
       style="font-variation-settings:normal;opacity:1;vector-effect:none;fill:#cccccc;fill-opacity:1;fill-rule:evenodd;stroke:none;stroke-width:0.264583;stroke-linecap:butt;stroke-linejoin:miter;stroke-miterlimit:4;stroke-dasharray:none;stroke-dashoffset:0;stroke-opacity:1;marker:none;marker-start:none;marker-mid:none;marker-end:none;stop-color:#000000;stop-opacity:1"
       d="m 21.113516,29.962882 v 95.063978 c 0,43.82256 36.259245,72.07656 72.658104,72.07656 22.31552,0 44.57569,-10.62246 58.4628,-28.93885 z"
       sodipodi:nodetypes="csscc" />
    <g
       id="g903">
      <path
         id="path1130"
         d="m 62.996477,166.10795 c -2.932595,0.54307 -6.625492,2.60675 -7.385794,4.23597 -0.760302,1.62922 -2.498136,3.04121 -2.498136,3.04121 0,0 1.303375,0.32584 2.715365,0.32584 1.41199,0 5.973804,1.08615 8.254711,1.08615 2.280907,0 6.516877,-0.54307 9.232242,-1.73783 2.715366,-1.19476 2.932595,-2.71537 4.996273,-4.4532 2.063677,-1.73784 2.715365,-2.28091 6.082418,-3.91013 3.367053,-1.62922 4.127355,-6.08242 5.213501,-7.38579 1.086147,-1.30338 4.018741,-1.52061 4.23597,-1.30338 0.21723,0.21723 3.584283,2.17229 4.4532,2.38952 0.868917,0.21723 4.887653,3.36706 7.820253,5.21351 2.93259,1.84644 4.4532,3.14982 4.4532,3.14982 0,0 -0.97753,0.21723 -2.60675,-0.21723 -1.62922,-0.43446 -2.49814,-0.54307 -6.08242,-0.65169 -3.584283,-0.10861 -4.4532,0.21723 -5.973805,1.52061 -1.520604,1.30337 -3.041209,1.19476 -4.996272,1.73783 -1.955063,0.54307 -4.670429,0.43446 -6.299648,1.95506 -1.629219,1.52061 -2.172292,3.6929 -4.344584,4.4532 -2.172293,0.76031 -3.584283,2.06368 -3.584283,2.06368 0,0 3.367053,0.97753 5.322116,0.97753 1.955064,0 4.23597,0.97753 7.928867,0.65169 3.692897,-0.32584 7.494409,-2.60675 8.797784,-4.01874 1.303375,-1.41199 3.041205,-1.30338 4.996275,-2.28091 1.95506,-0.97753 1.30337,-2.71536 3.36705,-3.69289 2.06368,-0.97754 5.86519,-0.76031 6.62549,-0.43446 0.7603,0.32584 4.88766,5.32211 4.77905,6.7341 -0.10862,1.41199 -0.32585,3.80151 -0.86892,4.67043 -0.54307,0.86892 -1.08615,1.08615 -1.95506,3.14983 -0.86892,2.06367 -1.62922,2.93259 -1.62922,2.93259 -1.08615,0.10861 -1.95507,0.65169 -1.95507,0.65169 -1.5206,-0.65169 -1.41199,-3.04121 -1.41199,-3.04121 -1.73783,1.73783 -0.86891,4.77904 1.73784,5.43073 2.60675,0.65169 4.99627,-0.86892 5.86519,-2.17229 0.86891,-1.30338 2.06367,-4.01874 4.12735,-4.4532 2.06368,-0.43446 3.80151,-1.52061 4.67043,-3.47567 0.86892,-1.95506 1.08615,-3.58428 1.08615,-3.58428 -0.86892,0.32584 -2.71537,0.32584 -2.71537,0.32584 0,0 -0.54307,-0.65169 -1.41199,-2.49813 -0.86892,-1.84645 -2.49814,-3.14983 -2.49814,-3.14983 0,0 -1.30337,-3.25844 -3.25843,-4.34458 -1.95507,-1.08615 -0.97754,-1.95507 -2.71537,-3.36706 -1.73783,-1.41199 -1.84645,-3.58428 -1.19476,-7.38579 0.65169,-3.80151 0.7603,-6.19103 0.65169,-9.6667 -0.10862,-3.47567 -3.80151,-9.88393 -4.88766,-11.83899 -1.08615,-1.95507 -2.60675,-5.53935 -2.60675,-5.53935 0,0 -0.21723,1.30338 -0.86892,2.60675 -0.65169,1.30338 -1.5206,3.6929 -0.97753,6.51688 0.54307,2.82398 1.41199,7.49441 0.7603,10.64423 -0.65168,3.14982 0.65169,6.40826 1.84645,7.82025 1.19476,1.41199 2.49814,4.34459 2.49814,4.34459 -1.95507,-0.97753 -6.08242,-3.58428 -6.08242,-3.58428 -1.52061,-1.41199 -3.25844,-1.73784 -3.25844,-1.73784 0,0 -1.41199,-2.60675 -1.520604,-4.01874 -0.108615,-1.41199 0.868914,-2.60675 1.411994,-5.43073 0.54307,-2.82398 -0.21723,-4.23597 0.43445,-6.62549 0.65169,-2.38952 0.21723,-5.32212 0.10862,-7.92887 -0.10862,-2.60675 -0.97753,-5.2135 -2.389523,-8.36332 -1.41199,-3.14983 -3.258438,-6.51688 -4.670428,-8.47194 -1.41199,-1.95507 -3.584282,-4.01874 -3.584282,-4.01874 0,0 0.543073,2.60675 0.543073,4.34458 0,1.73783 -1.086146,6.84272 -1.737834,9.55809 -0.651688,2.71536 1.520605,4.23597 1.086146,7.4944 -0.434458,3.25844 0,5.32212 1.194761,8.03749 1.194761,2.71536 2.715365,7.82025 3.910126,9.12362 1.194761,1.30338 0.868917,3.80152 0.868917,3.80152 -2.280907,-1.19477 -7.703032,-5.05165 -7.703032,-5.05165 -1.1125,-1.72146 -1.384391,-2.62379 -2.904995,-5.665 -1.520605,-3.04121 -1.936961,-8.77968 -1.176659,-10.4632 0.760303,-1.68353 -0.108614,-2.33523 -1.520604,-2.38953 -1.41199,-0.0543 -2.172293,0.706 -1.792142,1.68353 0.380152,0.97753 1.230966,1.82835 1.013737,5.73847 -0.217229,3.91013 1.629219,7.60303 1.629219,7.60303 -5.104887,-2.49814 -7.820252,-6.01001 -7.820252,-6.01001 0,0 -0.651688,-0.86892 -0.543073,-3.58429 0.108614,-2.71536 1.19476,-4.77904 2.715365,-7.38579 1.520605,-2.60675 1.520605,-5.64796 1.955063,-8.58055 0.434459,-2.9326 -0.217229,-5.43073 -0.434458,-7.3858 -0.21723,-1.95506 -0.434459,-4.56181 -1.41199,-6.84272 -0.977532,-2.28091 -1.737834,-4.127354 -1.62922,-5.647958 0.108615,-1.520605 -1.19476,-2.389522 -1.19476,-2.389522 l -1.194761,3.584282 c -0.434459,1.303378 -2.715365,3.149828 -3.041209,5.539348 -0.325844,2.38952 0.543072,3.47567 -0.21723,7.05995 -0.344593,1.62451 -0.903472,3.37112 -1.136186,4.57315 -0.280739,1.45011 -0.235166,2.3055 -0.710262,3.79017 -0.86892,2.71537 0.04836,5.80776 1.955063,8.79779 1.49584,2.34572 0.904792,2.3591 2.063678,7.4582 -4.670429,-2.38952 -7.928867,-9.44947 -8.146096,-14.22851 -0.21723,-4.77905 0,-7.49441 1.41199,-10.10116 1.41199,-2.60675 -2.280907,-4.12736 -3.475668,-2.71537 -1.194761,1.41199 0.868917,3.47567 -0.217229,7.60302 -1.086146,4.12736 0.543073,9.44948 0.543073,9.44948 -3.041209,-2.28091 -6.191033,-7.71164 -6.191033,-7.71164 0,-1.95506 0.543073,-5.64796 2.389521,-7.92887 1.846449,-2.28091 2.715366,-3.6929 2.606751,-5.75657 -0.108615,-2.06368 2.172292,-7.820256 1.955063,-12.707913 -0.217229,-4.887658 -0.868917,-7.711638 -2.498136,-9.992545 -1.629219,-2.280907 -4.453199,-5.539345 -4.344585,-7.603023 0.108615,-2.063678 -0.543073,-2.606751 -0.543073,-2.606751 0,0 0,0.543073 -1.19476,2.82398 -1.194761,2.280907 -0.434459,5.64796 -0.434459,8.363326 0,2.715365 -2.172292,5.213501 -2.389521,6.408262 -0.21723,1.194761 0.651687,4.887658 -0.108615,9.015013 -0.760302,4.127351 -0.217229,5.104891 1.41199,9.123631 1.629219,4.01874 1.230966,9.63049 1.230966,9.63049 0,0 -2.172293,-3.25844 -3.475668,-6.40826 -1.303376,-3.14982 -2.606751,-7.38579 -2.280907,-12.816524 0.325844,-5.430731 0.543073,-9.232243 0.543073,-9.232243 1.316552,-0.837104 1.271563,-2.275448 1.271563,-2.275448 l -3.769699,-0.439917 c -0.217229,1.194761 0.325844,1.846448 0.108614,3.584282 -0.217229,1.737834 -0.325843,11.94761 -0.325843,11.94761 0,0 -3.04121,-5.322118 -3.04121,-8.037484 0,-2.715365 0.651688,-6.951335 1.194761,-11.947607 0.543073,-4.996273 -4.018741,-9.992545 -4.018741,-9.992545 -0.434458,-5.973804 -6.082418,-11.513149 -6.082418,-11.513149 -0.434458,-2.932595 -1.086146,-4.018741 -3.475668,-7.05995 -2.389521,-3.041209 -4.199767,-2.679163 -4.199767,-2.679163 0,0 1.537847,1.711754 1.578817,4.561331 0.03762,2.616582 -0.01403,5.295301 0.429,7.476163 0,0 -2.073658,3.840104 -0.537615,8.141025 0.747454,2.092871 1.601018,4.819245 2.080316,6.94654 0.505675,2.244366 0.668459,3.895604 2.758218,6.340227 4.070514,4.761732 6.679691,5.607227 7.987421,9.677069 1.287121,4.005704 1.968829,4.932446 2.688074,7.449803 0,0 -3.123284,-2.508863 -6.96339,-5.350541 0,0 0.153603,-1.996856 -1.382439,-2.611273 l -2.688074,3.379294 c 0,0 0.230406,1.152032 2.611272,0.844823 0,0 3.686502,2.764877 7.065796,5.990567 3.379294,3.22569 4.147315,5.60656 5.222545,8.98585 1.07523,3.37929 3.072085,4.91534 3.072085,4.91534 0,0 -0.768021,0.2304 -2.073657,-0.84483 -1.305636,-1.07523 -2.611273,-1.76645 -3.993711,-3.30249 -1.382438,-1.53604 -3.072085,-4.60813 -5.299347,-6.83539 -2.227262,-2.22726 -4.761732,-3.4561 -6.144171,-3.7633 0,0 -1.536042,-0.69122 -2.227261,-2.38087 -0.69122,-1.689647 -4.147315,-5.606555 -8.832245,-7.296202 0,0 0.998429,1.920053 1.075229,4.531325 0.0768,2.611277 0.998428,7.449807 3.379294,11.136307 2.380866,3.6865 3.946357,5.32486 5.593378,6.88039 1.647023,1.55555 5.466129,1.64465 5.466129,1.64465 0,0 1.946408,2.08138 6.618161,2.19545 4.48551,0.10952 5.823784,-0.58261 6.822212,0.49262 0.998428,1.07523 3.532898,4.22412 4.454524,4.83854 0,0 -5.245495,-1.94041 -8.721162,-2.80933 -3.475668,-0.86892 -3.747205,-0.59738 -5.267809,-1.14045 -1.520605,-0.54308 -1.846449,0.0543 -1.683527,1.95506 0.162922,1.90076 1.900756,1.30337 3.367053,1.03184 1.466298,-0.27154 4.779043,0.54307 8.906399,2.00937 4.127355,1.4663 7.548716,4.39889 8.797784,5.9195 1.249068,1.5206 3.367053,2.71536 3.367053,2.71536 0,0 -2.552444,0.16292 -5.322116,-1.57491 -2.769673,-1.73784 -3.04121,-3.31275 -5.539346,-3.80151 -2.498136,-0.48877 -2.606751,0.21723 -6.516877,-1.24907 -3.910126,-1.4663 -6.734106,-0.97753 -9.06932,0.0543 -2.335214,1.03184 -3.204131,1.62922 -6.734106,1.62922 -3.529975,0 -4.670429,-1.30338 -6.625492,-0.32585 0,0 1.466298,0.32586 2.606751,2.1723 1.140453,1.84645 6.082418,4.88766 8.254711,5.75658 2.172292,0.86892 4.256362,0.66275 4.256362,0.66275 0,0 -0.691219,0.92162 -2.15046,1.30563 -1.45924,0.38402 -3.379294,2.84168 -4.070513,3.3025 -0.691219,0.46081 -3.6097,0.38401 -4.68493,2.38086 0,0 2.380866,0.61442 3.763305,1.22884 1.382438,0.61441 7.526608,1.76645 8.525036,1.76645 0.998428,0 1.920053,-0.46082 4.070513,-0.15361 2.15046,0.30721 7.91062,-3.07208 9.446662,-3.84011 1.536043,-0.76802 3.763305,-2.22726 5.76016,-3.53289 1.996855,-1.30564 4.68493,-1.30564 5.76016,-1.38244 1.07523,-0.0768 1.766449,0 1.766449,0 0,0 4.377721,3.30249 6.758587,4.83853 0,0 -4.761732,-0.53761 -8.141026,0 -3.379293,0.53762 -4.070513,1.22884 -5.683357,1.07523 -1.612845,-0.1536 -2.073658,-0.38401 -2.457668,0.30721 -0.384011,0.69122 0.230406,2.61127 1.45924,3.07209 1.228834,0.46081 1.536043,-0.69122 3.532898,-1.38244 1.996855,-0.69122 6.067368,-0.92163 9.36986,-0.76802 3.302492,0.1536 4.838534,1.15203 6.297775,0.84482 0,0 0.230406,1.07523 1.45924,1.15203 0,0 3.686503,2.45767 5.068941,3.30249 1.382438,0.84483 2.304064,1.61285 2.304064,1.61285 0,0 -3.643336,1.00629 -6.79316,0.3546 -3.149824,-0.65169 -4.670428,-1.5206 -8.254711,-0.21723 -3.584282,1.30338 -6.625491,0.7603 -9.015013,0.21723 -2.389521,-0.54307 -4.670428,-1.19476 -8.363325,0.54307 -3.692897,1.73784 -6.516877,3.14983 -9.232242,3.6929 -2.715366,0.54307 -4.4532,1.84645 -4.4532,1.84645 0,0 1.303376,0.65169 3.149824,1.41199 1.846449,0.7603 3.801512,1.62922 6.191033,1.41199 2.389522,-0.21723 4.018742,2.89639 10.318389,3.7291 z"
         style="font-variation-settings:normal;opacity:1;vector-effect:none;fill:#078807;fill-opacity:1;fill-rule:evenodd;stroke:none;stroke-width:0.264583;stroke-linecap:butt;stroke-linejoin:miter;stroke-miterlimit:4;stroke-dasharray:none;stroke-dashoffset:0;stroke-opacity:1;marker:none;marker-start:none;marker-mid:none;marker-end:none;stop-color:#000000;stop-opacity:1"
         sodipodi:nodetypes="cssscscscsccscscssscccccsscssscscssscsscssssscsssssccsssscsssssscsssssscccsssssscsssssscssssccssssscssssscsscccscssccscscsssscccccsscssscscssscsscsssssscssssscsscsscssssssccssssssccscssssscssc" />
      <path
         sodipodi:nodetypes="ccccccccccccccccscsccsscssccscsccsssccssscccsscssccccccccssssssccssssssccccscscccsscssccsscssccsscsccsccsscsssssccssssssccccsssccssccscscccccccsscsscsssccssscsscsscscsssssccssscssccccsssscssscccccscssscsssccscscsssssssccsssssssssssscccsssscssccccsssssccccssssscsscccccccccsssscsssscccccssscsssssscsssc"
         transform="scale(0.26458333)"
         d="m 107.86523,192.49414 c -0.20472,0.015 -0.31054,0.0352 -0.31054,0.0352 0,0 0.79411,0.89375 1.80078,2.54687 -0.39075,-0.96014 -0.79562,-1.82254 -1.19727,-2.58203 -0.0872,0.003 -0.22621,-0.005 -0.29297,0 z m 23.87891,21.79297 c 1.33319,3.17411 2.15048,6.53136 2.82031,11.05273 0,0 0.68902,0.7129 1.62696,1.72071 -0.90966,-5.1609 -2.1455,-8.79788 -4.44727,-12.77344 z m 20.83203,36.7168 c 2.57829,5.55954 4.52499,11.64038 4.97656,17.84961 0,0 0.77679,0.89682 1.82032,2.19726 -0.84166,-7.10039 -3.53522,-13.98519 -6.79688,-20.04687 z m 64.72071,22.80664 c 0,0 -0.0154,0.22913 -0.14063,0.73047 0.2032,1.34088 0.30423,3.01655 0.19336,5.12304 -0.15449,2.93534 1.26236,6.51029 3.41601,10.28711 -0.96269,-2.27865 -1.51453,-4.41516 -1.41601,-6.28711 0.41051,-7.79973 -2.05274,-9.85351 -2.05273,-9.85351 z m -48.54102,12.39257 c 2.7713,6.12451 4.76342,13.26873 3.98633,20.41797 -2.05256,18.88355 -4.51563,34.89346 -4.51563,45.15625 0,7.39593 5.93052,19.81495 9.26563,26.22852 -3.28079,-6.75942 -7.26563,-16.17405 -7.26563,-22.22852 0,-10.26279 2.46307,-26.2727 4.51563,-45.15625 0.95443,-8.78077 -2.27055,-17.53578 -5.98633,-24.41797 z m -44.21289,22.07422 c 1.38543,3.30061 3.43676,6.73709 6.85547,10.73633 12.46745,14.58456 21.30515,19.4505 26.83984,28.95703 -5.28737,-12.39767 -14.74335,-16.4668 -28.83984,-32.95703 -2.06954,-2.42096 -3.63165,-4.63284 -4.85547,-6.73633 z m 113.31641,7.38086 c 3.2344,7.45493 4.74625,16.84445 5.35351,30.50782 0.82102,18.47303 -7.79918,40.23151 -7.38867,48.03125 0.41051,7.79969 -2.87481,13.13509 -9.85352,21.75585 -6.9787,8.62077 -9.03125,22.57955 -9.03125,29.96876 0,0 0.74699,1.28445 2.02344,3.31445 0.11406,-7.53091 2.22477,-20.90413 9.00781,-29.28321 6.97871,-8.62076 10.26403,-13.95616 9.85352,-21.75585 -0.41051,-7.79974 8.20969,-29.55822 7.38867,-48.03125 -0.72089,-16.22001 -2.71134,-26.42381 -7.35351,-34.50782 z m -43.81641,13.13672 c -0.64215,1.63501 -1.83407,3.50426 -4.06055,4.91992 0,0 -0.8212,14.36698 -2.05273,34.89258 -1.23154,20.52559 3.69495,36.53658 8.62109,48.44141 1.30415,3.1517 2.83745,6.31594 4.38867,9.28906 -0.84091,-1.74833 -1.65538,-3.51695 -2.38867,-5.28906 -4.92614,-11.90483 -9.85263,-27.9158 -8.62109,-48.44141 1.23153,-20.5256 2.05273,-34.89258 2.05273,-34.89258 4.97595,-3.16385 4.80664,-8.59961 4.80664,-8.59961 z m -51.00391,26.86719 c 0.51831,2.08847 0.38867,3.85937 0.38867,3.85937 0.66054,0.4888 1.21483,0.91759 1.86329,1.4004 -0.23592,-1.60224 -0.83298,-3.64339 -2.25196,-5.25977 z m 147.5586,9.16406 c 0.20669,0.86143 0.30735,1.80248 0.23437,2.82422 -0.41051,5.74715 2.4636,12.72494 6.1582,21.3457 3.69461,8.62077 4.51492,18.47408 5.33594,25.86329 0.82102,7.38924 3.28463,16.83022 1.64258,27.91406 -1.64205,11.0838 -1.64346,22.57935 -7.39063,32.43164 -5.74716,9.85228 -9.8512,17.65128 -10.26171,27.91406 -0.41052,10.26282 2.05273,13.54688 2.05273,13.54688 0,0 0.31976,0.3903 0.79297,0.94726 -0.5527,-2.11126 -1.04739,-5.45189 -0.8457,-10.49414 0.41051,-10.26278 4.51455,-18.06178 10.26171,-27.91406 5.74717,-9.85229 5.74858,-21.34784 7.39063,-32.43164 1.64205,-11.08384 -0.82156,-20.52482 -1.64258,-27.91406 -0.82102,-7.38921 -1.64133,-17.24252 -5.33594,-25.86329 -3.6946,-8.62076 -6.56871,-15.59853 -6.1582,-21.3457 0.21294,-2.98109 -1.00788,-5.28312 -2.23437,-6.82422 z m -159.56836,0.35742 -0.98633,1.24024 c 0,0 0.87059,4.35446 9.86914,3.19336 0,0 13.9349,10.45099 26.70703,22.64258 6.04167,5.76705 9.86187,10.81904 12.6543,15.89453 -2.93659,-6.48064 -7.03361,-12.62024 -14.6543,-19.89453 -12.77213,-12.19158 -26.70703,-22.64258 -26.70703,-22.64258 -3.23867,0.41789 -5.41147,0.11723 -6.88281,-0.4336 z m -28.8125,38.0625 c 1.34237,2.92115 2.86904,5.77228 4.60547,8.46094 8.99854,13.93323 14.91371,20.12669 21.13867,26.00586 6.22497,5.87924 20.66015,6.21484 20.66015,6.21484 0,0 7.35666,7.8677 25.01368,8.29883 16.9531,0.41394 22.01157,-2.20253 25.78515,1.86133 2.45504,2.64389 7.3491,8.57608 11.44141,13.05859 2.10525,0.75333 3.39453,1.22852 3.39453,1.22852 -3.48331,-2.32222 -13.06235,-14.22325 -16.83594,-18.28711 -3.77358,-4.06386 -8.83205,-1.44739 -25.78515,-1.86133 -17.65702,-0.43113 -25.01368,-8.29883 -25.01368,-8.29883 0,0 -14.43518,-0.3356 -20.66015,-6.21484 -6.22496,-5.87917 -12.14013,-12.07263 -21.13867,-26.00586 -0.93143,-1.4422 -1.78965,-2.9396 -2.60547,-4.46094 z m 151.15234,12.38672 c 0.21524,1.55875 -0.083,3.32238 -1.125,5.2461 -5.33665,9.85228 -6.15892,20.11518 -5.33789,38.17773 0.40951,9.00913 3.68044,20.16278 9.04492,30.20117 -4.17205,-8.92743 -6.68912,-18.37349 -7.04492,-26.20117 -0.82103,-18.06255 0.001,-28.32545 5.33789,-38.17773 2.08542,-3.85001 1.21739,-7.06626 -0.875,-9.2461 z m -65.19922,15.37305 c 1.87948,4.26991 4.05349,7.48995 5.88281,9.74414 1.23416,0.23743 1.91602,0.0488 1.91602,0.0488 0,0 -4.03914,-3.12391 -7.79883,-9.79297 z m 182.48438,20.61133 c 1.16867,2.39031 2.31086,4.79217 3.375,7.16601 5.33665,11.90483 8.62071,21.75709 9.03125,31.60938 0.41049,9.85228 2.05292,20.93749 -0.41016,29.96875 -2.46304,9.03125 0.40997,14.3677 -1.64258,25.04101 -2.05258,10.67331 -5.74645,15.18874 -5.33593,20.52539 0.4105,5.33666 5.74609,15.18946 5.74609,15.18946 0,0 0.0155,0.004 0.0156,0.004 -1.5654,-3.34256 -3.51908,-8.03909 -3.76171,-11.19336 -0.41052,-5.33665 3.28335,-9.85208 5.33593,-20.52539 2.05255,-10.67331 -0.82046,-16.00976 1.64258,-25.04101 2.46308,-9.03126 0.82065,-20.11647 0.41016,-29.96875 -0.41054,-9.85229 -3.69459,-19.70455 -9.03125,-31.60938 -1.66261,-3.7089 -3.49295,-7.48394 -5.375,-11.16601 z m -200.50977,12.92383 c -0.90321,0.003 -1.7057,0.067 -2.39844,0.19531 -3.84949,0.71285 -8.18849,2.01176 -10.68945,0.33594 0.74756,6.87766 7.21355,4.67809 12.68945,3.66406 5.54192,-1.02629 18.06266,2.05183 33.66211,7.59375 15.59946,5.54192 28.53107,16.62586 33.25196,22.37304 1.86915,2.27549 4.24329,4.34181 6.4414,6.02735 2.64114,0.33211 4.28516,0.23633 4.28516,0.23633 0,0 -8.00568,-4.51653 -12.72656,-10.26368 -4.72089,-5.74718 -17.6525,-16.83112 -33.25196,-22.37304 -13.64952,-4.84918 -24.94122,-7.81152 -31.26367,-7.78906 z m 97.12891,15.6621 c 1.28062,2.8201 2.83742,5.64321 4.62304,8.44336 0.44191,0.69299 0.81942,1.31736 1.17188,1.91602 -0.66365,-1.69443 -1.61043,-3.46741 -3.17188,-5.91602 -0.94129,-1.4761 -1.81606,-2.95808 -2.62304,-4.44336 z m 139.13281,4.3379 c 0,0 -0.0542,0.26903 -0.0781,0.39648 1.70957,3.87665 4.23196,9.44839 6.62891,14.08398 -3.33685,-6.90971 -6.55078,-14.48046 -6.55078,-14.48046 z m -84.90234,3.25 c -0.0515,1.08176 -0.37554,2.34745 -1.04688,3.83398 -2.87358,6.36291 -1.2999,28.05058 4.44727,39.54492 3.93475,7.86952 5.66645,11.94537 7.71093,15.82422 -1.42439,-2.97119 -3.04135,-6.48506 -5.71093,-11.82422 -5.74717,-11.49434 -7.32085,-33.18201 -4.44727,-39.54492 1.83141,-4.05526 1.15506,-6.52176 -0.95312,-7.83398 z M 423.625,519.08398 c 4.53859,9.29993 8.88117,19.89905 9.10742,27.13868 0.4105,13.13639 1.9e-4,22.16724 -2.46289,36.53515 -2.04206,11.91201 -2.09619,19.58389 1.68359,24.90235 -1.65019,-5.01542 -1.26316,-11.68822 0.31641,-20.90235 2.46308,-14.36791 2.87339,-23.39876 2.46289,-36.53515 -0.2596,-8.30687 -5.93052,-21.02617 -11.10742,-31.13868 z m -166.94141,2.38672 c -0.8164,0.0136 -1.74184,0.0485 -2.75781,0.1211 -4.06386,0.29026 -14.22236,0.29186 -21.76953,5.22656 -7.54717,4.93466 -15.96597,10.44881 -21.77148,13.35156 -5.80552,2.90279 -27.57541,15.67478 -35.70313,14.51367 -8.12772,-1.1611 -11.61118,0.58008 -15.38476,0.58008 -3.77359,0 -26.99575,-4.3536 -32.22071,-6.67578 -2.95357,-1.3127 -6.97113,-2.57356 -10.02929,-3.4668 -0.84417,0.79934 -1.60102,1.71857 -2.19532,2.82227 0,0 8.99965,2.32231 14.22461,4.64453 5.22496,2.32218 28.44712,6.67773 32.22071,6.67773 3.77358,0 7.25704,-1.74313 15.38476,-0.58203 8.12772,1.16111 29.89761,-11.61088 35.70313,-14.51367 5.80551,-2.90275 14.22431,-8.4169 21.77148,-13.35156 7.54717,-4.9347 17.70567,-4.9363 21.76953,-5.22656 4.06386,-0.29027 6.67774,0 6.67774,0 0,0 10.29364,7.7589 19.0664,13.89258 2.68284,0.20475 4.47656,0.39648 4.47656,0.39648 -8.99854,-5.80551 -25.54296,-18.28906 -25.54296,-18.28906 0,0 -1.47072,-0.16192 -3.91993,-0.1211 z m 12.46875,26.95899 c -9.94648,0.12245 -20.0154,1.10118 -25.67578,3.06054 -7.54717,2.61249 -8.7091,6.96821 -13.35351,5.22657 -1.38484,-0.51932 -2.5568,-1.53496 -3.49024,-2.76563 0.82375,2.78362 2.74677,5.73681 5.49024,6.76563 4.64441,1.74164 5.80634,-2.61408 13.35351,-5.22657 7.54717,-2.61248 22.93221,-3.48291 35.41406,-2.90234 12.48186,0.58054 18.2875,4.35447 23.80274,3.19336 0,0 0.87121,4.06325 5.51562,4.35352 0,0 13.93324,9.2894 19.15821,12.48242 1.57464,0.96228 2.9183,1.86117 4.1289,2.69922 1.60195,-0.3398 2.57813,-0.60352 2.57813,-0.60352 0,0 -3.48207,-2.90264 -8.70703,-6.0957 -5.22497,-3.19302 -19.15821,-12.48242 -19.15821,-12.48242 -4.64441,-0.29027 -5.51562,-4.35352 -5.51562,-4.35352 -5.51524,1.16111 -11.32088,-2.61282 -23.80274,-3.19336 -3.12046,-0.14514 -6.42278,-0.19902 -9.73828,-0.1582 z m 90.61719,6.04297 c 1.37286,3.02965 2.70495,5.48299 3.94336,6.83398 0.18355,0.20024 0.34279,0.41859 0.50781,0.63281 -0.51918,-1.68845 -1.30547,-3.32116 -2.50781,-4.63281 -0.62568,-0.68256 -1.27694,-1.66198 -1.94336,-2.83398 z m 45.14844,26.92968 c 1.30822,3.05932 2.85685,5.62788 4.36328,7.40821 2.24303,2.65085 4.5854,6.7165 6.37695,10.14062 -1.6835,-3.51649 -5.12314,-10.2952 -8.37695,-14.14062 -0.78905,-0.93252 -1.59078,-2.08895 -2.36328,-3.40821 z m -53.66602,3.95704 c -3.30153,-0.0964 -11.24466,1.19671 -14.58007,5.19921 -4.10512,4.92613 -6.97921,21.75638 -19.70508,27.91407 -12.72587,6.15768 -15.18856,8.21108 -22.98828,14.77929 -7.79973,6.56818 -8.62002,12.31445 -18.88282,16.83008 -10.26279,4.51563 -26.27378,6.56836 -34.89453,6.56836 -8.62075,0 -25.86061,-4.10547 -31.19726,-4.10547 -1.76217,0 -3.46064,-0.13848 -4.97071,-0.31836 -1.8314,1.88269 -3.29297,3.08789 -3.29297,3.08789 0,0 4.92702,1.23047 10.26368,1.23047 5.33665,0 22.57651,4.10547 31.19726,4.10547 8.62075,0 24.63174,-2.05273 34.89453,-6.56836 10.2628,-4.51563 11.08309,-10.2619 18.88282,-16.83008 7.79972,-6.56821 10.26241,-8.62161 22.98828,-14.77929 12.72587,-6.15769 15.59996,-22.98794 19.70508,-27.91407 4.10512,-4.92616 15.18874,-5.7468 16.00976,-4.92578 0.82103,0.82103 13.54794,8.21023 16.83203,9.03125 3.2841,0.82103 18.4728,12.72442 29.55664,19.70313 5.16828,3.25409 9.12564,6.03136 11.93164,8.10156 1.858,0.0226 2.89844,-0.19531 2.89844,-0.19531 0,0 -5.74627,-4.92758 -16.83008,-11.90625 -11.08384,-6.97871 -26.27254,-18.8821 -29.55664,-19.70313 -3.28409,-0.82102 -16.011,-8.21022 -16.83203,-9.03125 -0.15394,-0.15394 -0.66779,-0.25119 -1.42969,-0.27343 z m 88.45117,32.36132 c 0.34669,0.82886 0.73995,1.63534 1.34961,2.44141 -0.33567,-0.7754 -0.74455,-1.58335 -1.34961,-2.44141 z m -20.75585,15.31446 c -5.32904,-0.0487 -11.79429,0.60145 -16.18165,2.67968 -7.79973,3.69461 -5.33735,10.26243 -12.72656,13.95704 -7.38924,3.6946 -13.95667,3.28443 -18.88281,8.62109 -4.92614,5.33665 -19.29455,13.95793 -33.25195,15.18945 -13.95741,1.23152 -22.57953,-2.46484 -29.96875,-2.46484 -4.30706,0 -10.37417,-1.2497 -14.73047,-2.29688 -2.14707,1.47657 -3.38281,2.60352 -3.38281,2.60352 0,0 12.72406,3.69336 20.11328,3.69336 7.38922,0 16.01134,3.69636 29.96875,2.46484 13.9574,-1.23152 28.32581,-9.8528 33.25195,-15.18945 4.92614,-5.33666 11.49357,-4.92649 18.88281,-8.62109 7.38921,-3.69461 4.92683,-10.26243 12.72656,-13.95704 7.79974,-3.69464 22.16745,-2.87413 25.04102,-1.64257 2.11416,0.90606 11.0997,11.35613 15.54688,18.94726 -2.69442,-7.18029 -15.02396,-21.86602 -17.54688,-22.94726 -1.25719,-0.53881 -4.71457,-0.99923 -8.85937,-1.03711 z m 37.98046,5.80664 c 0.14457,0.33465 0.43555,0.97851 0.43555,0.97851 0,0 0.16352,0.14287 0.18945,0.16407 -0.18846,-0.36287 -0.40928,-0.74984 -0.625,-1.14258 z m 11.01563,15.22461 c 0.30172,0.6 0.58008,1.13028 0.85352,1.64453 -0.26585,-0.56403 -0.55496,-1.10889 -0.85352,-1.64453 z m 16.46094,9.86914 c -0.82717,0.31018 -1.88829,0.54123 -3.01368,0.71484 -0.62898,2.3895 -1.59539,5.46515 -3.09179,8.83203 -3.28411,7.38921 -9.85261,11.49271 -17.65235,13.13477 -7.79973,1.64205 -12.31554,11.90587 -15.5996,16.83203 -3.28411,4.92612 -12.31569,10.67206 -22.16797,8.20898 -3.24921,-0.8123 -5.77781,-2.60857 -7.48047,-4.88476 1.19244,4.06937 4.48868,7.63681 9.48047,8.88476 9.85228,2.46308 18.88386,-3.28286 22.16797,-8.20898 3.28406,-4.92616 7.79987,-15.18998 15.5996,-16.83203 7.79974,-1.64206 14.36824,-5.74556 17.65235,-13.13477 3.28411,-7.3892 4.10547,-13.54687 4.10547,-13.54687 z m -66.0918,31.19726 c -0.48618,0.48618 -0.91342,1.00261 -1.29297,1.53711 0.40084,1.3848 1.01985,2.8036 1.99219,3.96875 -0.81345,-2.83284 -0.69922,-5.50586 -0.69922,-5.50586 z m -262.24089,-173.604 c -5.9613,1.315 -12.83805,-1.20569 -16.08723,-2.50537 -8.21025,-3.28411 -26.88885,-14.77715 -31.19922,-21.75586 -4.31038,-6.97867 -9.851566,-8.21094 -9.851566,-8.21094 1.140266,-0.57013 2.204056,-0.91566 3.242186,-1.125 1.4991,1.22442 3.1259,2.93412 4.60938,5.33594 4.31037,6.97871 22.98897,18.47175 31.19922,21.75586 8.21023,3.2841 16.08789,2.50586 16.08789,2.50586 0,0 8.90096,0.53675 20.3953,-0.69479 11.49433,-1.23153 27.50429,-1.64204 36.53556,-1.23153 9.03126,0.41051 13.9574,-4.10512 24.63071,-3.69461 10.67331,0.41051 14.77843,2.87358 14.77843,2.87358 0,0 -14.77843,0 -27.09379,2.05256 -12.31535,2.05256 -27.50429,0.41052 -38.58811,2.46307 -19.04009,3.52594 -28.65876,2.23123 -28.65876,2.23123 z m 82.02531,106.28077 c -24.31981,-2.7204 -31.30979,-14.79378 -38.99926,-14.09474 -9.03126,0.82103 -16.41974,-2.46236 -23.39844,-5.33593 -6.9787,-2.87358 -11.9043,-5.33594 -11.9043,-5.33594 0,0 0.99554,-0.73851 2.7832,-1.75586 1.9594,0.89131 4.30325,1.93151 7.1211,3.0918 6.9787,2.87357 14.36718,6.15696 23.39844,5.33593 9.03126,-0.82102 15.19031,10.9465 39,14.09375 0,0 23.83895,-0.14985 36.03053,-7.11647 12.19159,-6.96662 24.96372,-13.93324 37.1553,-17.41654 12.19158,-3.48331 17.6531,-6.14294 23.22206,-13.35269 5.56897,-7.20975 8.12773,-2.32221 8.12773,-2.32221 0,0 -2.32221,-1.1611 -5.22497,3.48331 -2.90276,4.64442 -9.28882,12.19159 -24.38316,16.25545 -15.09434,4.06386 -22.12323,8.31183 -40.66779,18.36634 -15.41267,8.35646 -32.26044,6.1038 -32.26044,6.1038 z"
         style="font-variation-settings:normal;opacity:1;vector-effect:none;fill:#003d00;fill-opacity:1;fill-rule:evenodd;stroke:none;stroke-width:0.999999;stroke-linecap:butt;stroke-linejoin:miter;stroke-miterlimit:4;stroke-dasharray:none;stroke-dashoffset:0;stroke-opacity:1;marker:none;marker-start:none;marker-mid:none;marker-end:none;stop-color:#000000;stop-opacity:1"
         id="path907" />
      <g
         id="g882">
        <circle
           r="3.5328979"
           cy="84.072731"
           cx="50.484596"
           id="path871"
           style="color:#000000;display:inline;overflow:visible;visibility:visible;fill:#e50000;fill-opacity:1;fill-rule:evenodd;stroke:none;stroke-width:0.529167;stroke-linecap:square;stroke-linejoin:miter;stroke-miterlimit:4;stroke-dasharray:none;stroke-dashoffset:0;stroke-opacity:1;marker:none;marker-start:none;marker-mid:none;marker-end:none;enable-background:accumulate" />
        <path
           sodipodi:nodetypes="scscs"
           id="path878"
           d="m 50.484375,81.673828 c 0.365622,0 0.710125,0.08102 1.132812,-0.01269 -0.26472,-0.417061 -0.68847,-0.516602 -1.132812,-0.516602 -1.190617,0 -2.219009,0.712494 -2.433594,1.84375 0.61601,-0.730483 1.453907,-1.314453 2.433594,-1.314453 z"
           style="color:#000000;font-style:normal;font-variant:normal;font-weight:normal;font-stretch:normal;font-size:medium;line-height:normal;font-family:sans-serif;font-variant-ligatures:normal;font-variant-position:normal;font-variant-caps:normal;font-variant-numeric:normal;font-variant-alternates:normal;font-variant-east-asian:normal;font-feature-settings:normal;font-variation-settings:normal;text-indent:0;text-align:start;text-decoration:none;text-decoration-line:none;text-decoration-style:solid;text-decoration-color:#000000;letter-spacing:normal;word-spacing:normal;text-transform:none;writing-mode:lr-tb;direction:ltr;text-orientation:mixed;dominant-baseline:auto;baseline-shift:baseline;text-anchor:start;white-space:normal;shape-padding:0;shape-margin:0;inline-size:0;clip-rule:nonzero;display:inline;overflow:visible;visibility:visible;opacity:1;isolation:auto;mix-blend-mode:normal;color-interpolation:sRGB;color-interpolation-filters:linearRGB;solid-color:#000000;solid-opacity:1;vector-effect:none;fill:#ffffff;fill-opacity:1;fill-rule:evenodd;stroke:none;stroke-width:0.529167;stroke-linecap:square;stroke-linejoin:miter;stroke-miterlimit:4;stroke-dasharray:none;stroke-dashoffset:0;stroke-opacity:1;marker:none;color-rendering:auto;image-rendering:auto;shape-rendering:auto;text-rendering:auto;enable-background:accumulate;stop-color:#000000;stop-opacity:1" />
      </g>
      <use
         x="0"
         y="0"
         xlink:href="#g882"
         id="use884"
         transform="translate(-16.896469,9.36986)"
         width="100%"
         height="100%" />
      <use
         height="100%"
         width="100%"
         transform="translate(16.122374,24.141448)"
         id="use886"
         xlink:href="#g882"
         y="0"
         x="0" />
      <use
         x="0"
         y="0"
         xlink:href="#g882"
         id="use888"
         transform="translate(-11.682967,38.695806)"
         width="100%"
         height="100%" />
      <use
         height="100%"
         width="100%"
         transform="translate(33.935171,42.388703)"
         id="use890"
         xlink:href="#g882"
         y="0"
         x="0" />
      <use
         x="0"
         y="0"
         xlink:href="#g882"
         id="use892"
         transform="translate(7.8676634,64.328855)"
         width="100%"
         height="100%" />
      <path
         sodipodi:nodetypes="csssccccccsccccsccscccccccccsccsccssssscccsccsccccccccccccccccssssccccccccccccccccssscccccccccccccccccccccccccccccsscccccccccccssccccccccccccccccccccccccsccsccccccccccccccccccccssssccccscccccccccccccccccccccsccccccsccccccccccccccccccccccccccccccccccccccccccccccccccccccccccccccccccccccccccccccccccccccccccccccccccccccccccccccssccccccccccccccccsccssccccccccccccsssccccccccccccccccccccccccccccccccccccsscccccccccccccccc"
         id="path905"
         d="m 31.74488,56.167959 c 0,0 1.599806,3.751103 2.251493,7.661229 0.65169,3.910127 3.149825,5.756574 3.149825,8.580554 0,2.82398 1.737833,8.689168 3.041208,10.644233 1.303377,1.955061 3.041211,4.670427 3.149825,7.277179 M 31.281009,63.829189 c 0,0 2.715366,1.737834 3.475668,4.23597 m -2.498136,0.325844 c 0,0 2.82398,0.760302 3.910126,3.367053 m 1.846448,-0.217229 c 0,0 -0.108614,-2.280907 0.543073,-3.801512 0.651688,-1.520605 0.325844,-2.498136 0.325844,-2.498136 M 38.12373,75.559567 c 0,0 0.325844,-2.389521 1.194761,-4.127355 m 1.19476,-0.977532 c 0,0 -1.086146,3.04121 -1.086146,4.670429 0,1.629219 -0.543073,1.955063 -0.543073,1.955063 m -1.737834,1.737834 c 0,0 -0.977531,-0.868917 -2.063677,-2.280907 -1.086146,-1.41199 -2.498136,-1.955063 -2.715366,-1.955063 m 0.434459,1.846448 c 0,0 2.280907,2.932595 2.606751,3.258439 m 1.737833,1.520604 c 0,0 1.62922,0.543073 2.606751,1.303376 0,0 0.217229,-3.584283 1.629219,-5.104887 m -0.217229,7.168564 c 0,0 0.977532,-3.692896 1.303376,-5.213501 m 1.19476,-0.760302 c 0,0 -0.977531,4.344584 -1.303375,5.43073 -0.325844,1.086146 -0.325844,2.063678 -0.325844,2.063678 m -5.213502,-2.932594 c 0,0 2.498137,2.60675 3.258439,3.258438 0.760302,0.651687 1.846448,1.737834 1.846448,1.737834 M 57.396792,80.38623 c 0,0 0.748232,1.291961 1.508534,4.115941 0.760303,2.82398 0.325844,4.018741 0.108615,7.05995 -0.2012,2.816803 -1.520605,3.041209 -0.760302,6.082418 0.760302,3.041211 0.434458,3.149821 -0.21723,5.213501 -0.651687,2.06368 -0.760302,5.9738 -0.760302,7.38579 0,1.41199 -0.108615,1.84645 -0.108615,1.84645 m -0.760302,-4.99627 c 0,0 0.868917,2.06368 0.868917,3.25844 0,0 0.977532,-0.65169 2.063678,-2.49814 1.086146,-1.84645 1.955063,-2.2809 1.955063,-2.2809 m 0.868917,-3.36706 c -0.108615,0.32585 -0.977532,1.95507 -2.389522,3.14983 -1.41199,1.19476 -1.737834,2.71536 -1.737834,2.71536 m -0.325843,-4.01874 c 0,0 1.086146,-2.49813 2.389521,-3.58428 m 0.434459,-7.168566 c 0,0 2.172292,-2.389521 2.498136,-3.584282 m 1.086146,0.325844 c 0,0 -0.651688,2.280907 -1.41199,3.149824 m 1.41199,-0.434459 c -0.217229,0.325844 -0.977532,1.846449 -1.303376,2.932595 m -1.520604,-6.408262 c 0,0 1.41199,-2.82398 1.520604,-4.018741 m -6.734106,4.018741 c 0,0 1.194761,1.086146 1.41199,3.149823 m -2.932594,-0.977531 c 0,0 1.41199,1.303375 1.846448,2.172292 m -31.241691,2.197661 c 0,0 2.995282,1.612844 4.531325,5.760161 1.536043,4.14731 2.764877,5.37615 4.915336,6.75859 2.15046,1.38243 2.304064,1.99685 3.993711,2.76487 1.689647,0.76802 1.536043,1.38244 3.072085,3.3793 1.536043,1.99685 6.144171,3.53289 6.144171,3.53289 m -7.833818,-6.14417 c 0,0 -0.153604,-1.68964 -1.382438,-4.14731 m 2.304064,3.07208 c 0,0 1.228834,2.91849 1.996855,4.60813 m 2.304064,1.53604 c 0,0 -0.921625,-1.07523 -1.536042,-2.61127 m -4.608128,-3.07208 c 0,0 -1.689647,-2.30407 -2.15046,-3.5329 m -3.072085,2.15046 c 0,0 1.843251,0.46081 3.379294,0.46081 m -7.065796,-3.22569 c 0,0 2.457668,1.53604 4.915336,1.68965 m -5.376149,-3.3793 c 0.307208,0.15361 1.536043,1.22884 2.918481,1.38244 m -1.913574,24.00204 c 0,0 4.127356,2.71537 7.05995,2.17229 2.932595,-0.54307 7.603023,-0.21723 9.775316,0.76031 2.172292,0.97753 4.996272,0.32584 7.277179,0.21723 2.280907,-0.10862 3.367053,-0.10862 5.64796,0.86891 m -26.176122,-3.47567 c 0,0 1.737833,1.62922 3.475667,1.73784 m -1.41199,-1.30338 c 0,0 1.086146,1.08615 2.172293,1.08615 m -1.086147,0.86892 c 0,0 2.932595,-0.43446 4.344585,-0.97754 m -2.82398,-2.38952 c 0,0 2.063678,2.28091 3.475668,2.38952 m -2.172293,-2.49813 c 0,0 1.303376,1.5206 2.715366,1.84645 m -2.82398,2.17229 c 0,0 2.82398,-0.7603 3.910126,-1.30338 m -3.584282,1.95507 c 0,0 3.801511,-0.97753 5.104886,-1.84645 m -4.453199,2.82398 c 0,0 5.213502,-0.7603 6.625492,-1.62922 m 3.801511,-0.10862 c 0,0 -2.82398,-1.41199 -4.23597,-3.69289 m 1.737834,1.08614 c 0,0 1.846449,2.1723 3.475668,2.49814 m -0.434459,-2.06368 1.520605,1.95507 c 0,0 -2.82398,-1.62922 -4.670428,-3.91013 m 3.801511,0.7603 c 0,0 1.194761,2.06368 2.932595,2.9326 m -18.35587,10.20977 c 0,0 3.692897,-0.54307 5.756574,-0.97753 m 5.104887,-1.62922 c 0.217229,0 2.389522,-0.54307 4.453199,-0.54307 2.063678,0 4.561814,-1.41199 7.05995,-2.38953 2.498137,-0.97753 4.996273,-1.30337 4.996273,-1.30337 m -14.445744,5.43073 c 0,0 1.411991,-1.73784 2.063678,-1.84645 -3.692897,-0.32584 -5.64796,-1.41199 -5.64796,-1.41199 m 4.453199,0 c 0.543073,0.10862 2.172292,1.08615 4.127355,0.97753 m -3.041209,-1.84645 c 0,0 3.149824,0.97754 5.865189,0.65169 m -3.692897,-1.30337 c 0,0 2.172293,1.19476 4.670429,0.86891 m 16.523151,-21.83801 c 0,0 1.228834,-2.61127 0.768021,-5.52975 -0.460813,-2.91848 -1.082949,-3.7315 -0.921625,-5.83697 0.168018,-2.19285 0.921625,-2.37221 0.921625,-5.37614 m -0.153604,9.98427 c 0,0 1.536042,-1.07523 1.689647,-2.76487 m -1.340262,5.11294 c 0,0 1.086146,-1.08614 1.303375,-2.28091 m -1.846448,5.53935 c 0,0 1.737834,-1.08615 2.498136,-2.82398 M 72.301129,111.511 c 0,0 0.434458,2.1723 0.977531,3.14983 m -1.629219,-0.10862 c 0,0 0.868917,1.52061 1.41199,2.71537 m 2.172292,1.5206 c 0,0 1.303376,-1.62922 1.955063,-2.17229 m -2.063677,3.80151 c 0,0 0.868917,-1.62922 1.737834,-2.2809 m -1.737834,3.69289 c 0,0 0.760302,-1.62922 1.520604,-2.06367 m -5.213501,-1.52061 c 0,0 0.651688,1.73783 1.086146,2.38952 m -1.737834,-0.97753 c 0,0 1.086146,3.80151 2.606751,5.64796 m -2.063678,-1.41199 c 0,0 0.977532,2.06368 1.955063,3.14982 m 1.520605,-0.86891 c 0,0 1.303375,-1.41199 2.715365,-3.58428 1.41199,-2.1723 1.955063,-1.95507 1.955063,-1.95507 m -4.670428,7.16857 c 0,0 0.543073,2.2809 0.434458,4.77904 -0.108614,2.49814 0.651688,4.56181 0.651688,4.56181 m -0.760302,-7.4944 c 0,0 0.325844,-1.08615 0.868917,-1.62922 m -0.760303,3.36705 c 0,0 0.21723,-1.08615 0.868917,-1.84645 m -41.092529,16.18358 c 0,0 2.606751,-0.10862 4.670428,-1.62922 m -2.389521,2.49814 c 0,0 1.846448,-0.32585 4.23597,-2.28091 m -1.520605,2.93259 c 0,0 1.737834,-1.08614 3.584283,-3.04121 m -1.41199,3.14983 c 0,0 1.846448,-1.19476 3.041209,-3.04121 m -1.520605,3.04121 c 0,0 1.520605,-0.65169 2.389522,-2.38952 m -0.108615,2.38952 c 0,0 0.760302,-0.86892 1.629219,-1.73784 m 8.47194,-2.06367 c 0,0 0.325844,-1.52061 1.41199,-2.28091 m -7.168564,18.46448 c 0,0 2.498136,-0.32584 5.43073,-0.86891 2.932595,-0.54308 6.734107,-0.65169 10.209774,0.54307 3.475668,1.19476 7.820253,0.86892 9.232243,-0.43446 1.41199,-1.30337 2.932594,-1.84645 5.756574,-2.38952 2.82398,-0.54307 4.344585,-0.43446 4.344585,-0.43446 m -3.367053,0.32585 c 0,0 -4.127356,-0.32585 -5.539346,-1.19477 m -3.584282,-0.32584 c 0,0 1.846448,0.7603 3.149824,1.62922 1.303375,0.86892 1.955063,0.86892 1.955063,0.86892 m -5.430731,0.10861 c 0,0 2.498137,0.54308 3.801512,0.32585 0,0 -1.520605,-1.30338 -3.04121,-1.52061 m -2.172292,2.06368 c 0.325844,0.10861 1.737834,0.97753 4.127356,0.43446 m -21.288465,-3.04121 c 0.217229,0 0.977532,0 2.063678,0.32584 m -0.760303,-0.86892 c 0,0 4.670429,0 6.734107,1.30338 m -5.64796,-1.30338 c 0,0 3.149823,-0.32584 4.127355,-0.21722 m 1.41199,-0.21723 c -0.217229,0 -3.258439,-0.86892 -4.779043,-0.76031 m 3.367053,6.51688 c 0,0 1.846448,-0.7603 3.149824,-1.73783 m 0,3.47566 c 0,0 2.932594,-1.08614 5.756574,-2.17229 m -3.367053,2.38952 c 0.325844,0 3.367053,-1.19476 4.670429,-2.2809 M 57.710566,171.6835 c 0,0 4.561813,-2.06368 8.689169,-2.82398 4.127355,-0.7603 9.449471,-2.93259 11.29592,-5.2135 m -16.183578,10.427 c 0,0 2.172292,-0.97753 3.692897,-2.82398 m -1.194761,2.60675 c 0,0 2.280907,-1.62922 4.23597,-3.69289 m -1.846448,3.47566 c 0,0 1.629219,-0.97753 2.82398,-1.95506 1.19476,-0.97753 1.086146,-1.73783 1.086146,-1.73783 m 6.191033,-1.84645 c 0.325844,-0.32584 2.932595,-4.01874 3.910126,-5.9738 m -3.367053,3.91012 c 0,-0.21723 1.629219,-2.82398 1.955063,-3.36705 m -1.520605,5.86519 c 0.108615,-0.21723 2.715366,-4.01874 3.475668,-6.84272 m -1.520604,5.2135 c 0,0 2.172292,-4.12736 3.041209,-5.97381 m -1.520605,4.99628 c 0,0 2.063678,-3.04121 2.280907,-4.77905 m -0.868917,4.12736 c 0.108615,-0.32584 0.651688,-1.30338 1.194761,-2.38952 M 47.745325,107.93259 c 0,0 0.153604,0.0768 1.228834,0.61442 m -0.307209,0.69122 c 0,0 0.768022,0.69122 2.304064,0.92163 m -1.766449,0.84482 c 0,0 0.921626,0.46081 2.073658,0.61442 m -1.536043,0.84482 c 0,0 0.921626,0.53762 1.843251,0.61442 m -1.305636,0.99843 c 0,0 0.844823,0.38401 1.766449,0.53761 m -1.305636,0.61442 c 0,0 0.38401,0.30721 1.766449,0.46081 m -0.307209,1.38244 c 0,0 0.307209,0.30721 1.305637,0.30721 m -1.228835,1.76645 c 0,0 1.152032,0.69121 2.380867,0.69121 m -0.844824,0.76803 c 0,0 0.998428,0.3072 1.996855,0.1536 m -1.305636,0.99843 c 0,0 1.152032,0.46081 2.304064,0.1536 m -0.844823,1.07523 c 0,0 1.152032,0.38401 2.150459,0.38401 m -0.921625,0.92163 c 0,0 0.998428,0.38401 1.843251,0.38401 m 1.766449,5.06894 c 0,0 1.228834,0.1536 1.920053,-0.84482 m -0.460813,2.07365 c 0,0 1.07523,-0.1536 1.228835,-0.92162 m -0.0768,1.68965 c 0,0 0.921626,-0.61442 1.07523,-1.15204 m -0.61442,1.61285 c 0,0 0.614417,-0.0768 1.305636,-0.76802 m -0.691219,1.68964 c 0,0 1.612845,0 2.15046,-0.53761 m -0.307209,1.99685 c 0,0 0.69122,0.15361 1.382439,-0.3072 m -0.460813,1.30563 c 0,0 0.230406,0.0768 0.768021,-0.1536 m 1.843251,3.22569 c 0.153605,-0.0768 0.998428,-0.0768 1.612845,-0.61442 m -0.537615,1.30564 c 0,0 1.382439,-0.38401 1.536043,-1.22884 m -0.230407,2.22726 c 0,0 0.69122,-0.1536 1.07523,-0.99842 m 0.230407,2.30406 c 0,0 1.152032,-0.69122 1.305636,-1.45924 m 0.153604,2.22726 c 0.153604,-0.1536 0.691219,-0.30721 0.844824,-0.92162 m 0.153604,1.38243 c 0,0 0.691219,-0.1536 0.921625,-0.84482 m -0.230406,1.61285 c 0,0 0.537615,0 0.691219,-0.69122 m 2.585615,3.92879 c 0,0 0.760302,-0.59738 0.760302,-1.35768 m 0.81461,2.28091 c 0,0 0.543073,-0.10862 0.705995,-1.03184 m 0.814609,1.68353 c 0,0 0.868917,-0.32585 0.81461,-1.14046 m 0.59738,2.11799 c 0,0 1.086146,-0.48877 0.923224,-1.19476 m 0.868917,2.2809 c 0.05431,-0.10861 0.81461,-0.43445 0.760303,-1.19476 m 0.488765,1.95507 c 0,0 0.651688,0.10861 0.543073,-0.81461 m 0.81461,1.73783 c 0,0 0.434459,-0.38015 0.271537,-0.86892 m -26.048746,16.16909 c 0,0 1.536043,-0.15361 3.456096,0.30721 m -0.153604,-0.76803 c 0,0 2.53447,-0.0768 3.840106,0.23041 m 23.603855,-11.41792 c 0,0 0.614417,-0.46081 0.691219,-1.45924 m 0.384011,1.84326 c 0,0 0.768021,-0.53762 0.691219,-1.38244 m 0.768021,1.99685 c 0,0 0.537615,-0.46081 0.537615,-1.07523 m 0.768022,1.84325 c 0,-0.1536 0.921625,-0.46081 0.921625,-1.30563 m 0.614417,2.22726 c 0,0 0.537615,-0.30721 0.537615,-0.99843 m 0.921622,1.92005 c 0,0 0.84483,-0.3072 0.84483,-1.07523 m 0.84482,1.99686 c 0,0 0.46081,-0.30721 0.23041,-1.07523 m 0.61441,1.76645 c 0,0 1.22884,0.46081 1.38244,-0.99843 m 0.0768,2.22726 c 0,0 1.30564,-0.0768 1.30564,-1.30563 m 0.76802,2.22726 c 0,0 0.30721,0.23041 0.38401,-0.76802 m 1.07523,1.84325 c 0,0 1.45924,-0.53762 1.45924,-1.38244 m -0.38401,2.15046 c 0,0 0.84483,-0.0768 1.07523,-0.84482 m 0.30721,1.92005 c 0,0 0.92163,0 0.99843,-0.76802 M 97.029056,146.70214 c 0,-0.21723 -1.086146,-3.04121 -0.434458,-6.84272 0.651687,-3.80151 0.217229,-10.53562 -0.21723,-13.46821 -0.434458,-2.9326 -2.932594,-9.99255 -3.258438,-11.18731 m -0.651688,4.23597 c 0,0 0.760303,2.38952 2.172293,2.9326 m -1.520605,3.14982 c 0,0 1.520605,1.62922 1.629219,2.28091 m 2.389522,0.7603 c 0,0 1.41199,-4.4532 0.760302,-8.1461 m 1.520605,6.08242 c 0,0 -1.194761,5.53935 -2.280907,8.58056 m 0,1.73783 c 0,0 1.737834,-2.28091 1.955063,-5.32212 m -6.516877,-0.86891 c 0,0 2.932595,2.93259 3.475668,6.40826 m 0,3.47567 c 0,0 -0.108615,-3.25844 -2.498136,-4.99628 m 5.647959,2.82398 c 0,0 -0.325843,2.38953 -1.19476,4.12736 -0.868917,1.73783 -1.086146,3.25844 -1.086146,3.25844 m 11.947608,-7.3858 c 0,0 1.62922,3.04121 1.73783,7.27718 0.10862,4.23597 0.43446,8.03749 1.19476,10.86147 0.76031,2.82398 1.52061,5.2135 1.52061,5.2135 m -5.2135,-10.10116 c 0,0 2.60675,2.17229 3.25844,3.80151 m -2.60676,-5.64796 c 0.21723,0.54307 1.19477,1.62922 2.06368,2.82398 m -2.60675,-4.77904 c 0,0 1.73784,0.65168 2.38952,2.60675 m -2.17229,-4.01874 c 0,0 1.08615,0.97753 1.84645,2.60675 m -0.65169,-3.04121 0.54307,1.30337 m -27.479493,28.34842 c 0,0 2.063678,0 4.453199,-0.7603 2.389522,-0.76031 4.453199,0.10861 5.756575,-1.30338 1.303375,-1.41199 3.258438,-2.93259 6.082418,-4.12736 2.823981,-1.19476 5.973801,-0.7603 8.363321,-1.5206 m -13.685437,2.28091 c 0.543073,0 1.955063,0.32584 2.932595,0.32584 m -1.737834,-1.19476 c 0.325844,0 2.063678,0.7603 3.584282,0.32584 m -12.382066,1.62922 c 0,0 1.520605,-0.21723 2.389522,0 m -1.520605,-0.7603 c 0.217229,0 2.172292,0 3.584282,0.21723 m -2.280907,6.08242 c -0.108614,-0.21723 0.868917,-1.08615 2.606751,-2.38952 m -0.977531,2.17229 c 0.325843,-0.43446 1.737833,-1.52061 2.498136,-2.71537 m 7.385794,-0.10861 c 0,-0.21723 0.651688,-1.84645 1.411988,-3.25844 m 0.32585,2.38952 c 0,0 0,-1.30337 0.65168,-2.17229 m 12.5993,-2.06368 c 0,0 0.7603,-0.43446 1.08614,-0.97753 m -0.65168,1.95506 c 0,0 0.97753,-0.65168 1.19476,-1.19476 m -0.32585,2.06368 c 0.10862,-0.21723 0.86892,-0.7603 1.19476,-1.30337 m -0.7603,1.84644 1.62922,-1.30337 m -0.97753,2.06368 c 0,0 1.08615,-0.97754 1.41199,-1.30338 m -0.65169,2.28091 0.7603,-0.7603 m -0.21722,1.95506 0.97753,-1.19476 m -0.54308,1.84645 c 0,0 1.08615,-0.86892 1.73784,-0.97754 m -1.30338,2.06368 c 0,0 0.65169,-0.86891 1.19476,-0.97753 m -4.67043,12.16484 c 0,0 1.52061,-1.95507 2.82398,-4.23597 1.30338,-2.28091 4.4532,-4.34459 4.99628,-4.4532 0.54307,-0.10862 2.38952,-0.86892 2.38952,-0.86892 0,0 -0.32585,2.38952 -2.38952,3.47567 m 0.65168,-1.41199 c 0,0 1.41199,-1.08615 1.62922,-2.06368 m -7.60302,5.97381 c 0,0 1.41199,-1.41199 3.58428,-2.38953 M 31.079262,111.7727 c 0,0 2.073658,1.38244 4.147315,1.38244 m 0.0768,-0.76802 c 0,0 -4.224118,-1.45924 -5.606556,-2.91848 m 7.065799,6.29777 c 0,0 3.148887,0.99843 4.915336,0.15361 M 32.231294,100.8668 c 0,0 -0.153604,1.68965 0.384011,2.76488 m 0.537615,-1.99686 c 0,0 0,2.07366 0.307208,2.38087"
         style="font-variation-settings:normal;opacity:1;vector-effect:none;fill:none;fill-opacity:1;fill-rule:evenodd;stroke:#003d00;stroke-width:0.39687499;stroke-linecap:butt;stroke-linejoin:miter;stroke-miterlimit:4;stroke-dasharray:none;stroke-dashoffset:0;stroke-opacity:1;marker:none;marker-start:none;marker-mid:none;marker-end:none;stop-color:#000000;stop-opacity:1" />
    </g>
    <g
       id="g1113">
      <path
         d="m 97.521698,32.293259 -1.058336,-0.06835 c 0,0 -3.632311,1.701774 -5.008994,5.158873 -1.513767,3.801343 -1.689791,7.248069 -5.529895,8.062541 v 3.25665 h -3.539296 l -2.67105,2.965872 -0.01703,0.836213 h 6.073766 l -0.90473,2.459547 0.05991,0.529167 c 3.840104,0.921628 4.284794,4.337015 5.491353,8.98607 1.056984,4.072739 3.841923,5.045578 5.91378,5.319517 l 0.34561,4.2292 h -5.437912 c 0,-1.45924 -0.768311,-4.223882 -3.763595,-5.990333 -2.995282,-1.766448 -6.144327,-0.614431 -6.144327,-0.614431 l -1.058104,1.544518 -0.01713,0.529257 c 2.026775,0.478762 3.430232,1.979797 4.335445,3.814912 0.905213,1.835116 0.289955,5.536454 0.289955,5.536454 l 0.05991,0.836376 h 7.190297 c -3.186298,2.441763 -5.054591,5.92023 -5.05447,9.934542 9.8e-5,7.125853 5.776717,12.902476 12.90257,12.902576 7.125855,-1e-4 12.902475,-5.776722 12.902575,-12.902576 0,-4.0144 -1.33088,-7.492884 -4.51737,-9.934542 h 5.52248 v -6.117566 l -1.05811,-0.06811 -9.54693,0.528921 v -4.2292 c 2.07186,-0.273939 4.62639,-1.630789 5.68338,-5.703528 1.20656,-4.649055 1.22883,-7.680431 5.06894,-8.602059 v -2.988714 h 4.84493 v -4.3397 l -0.75115,0.0083 -4.09378,1.066974 v -4.024671 c -2.28927,-0.485545 -3.27426,-1.077977 -4.01888,-2.775557 h 7.26054 l 25.08167,56.407872 0.45324,0.909318 h 6.95407 c 3.80151,0 8.99273,1.708948 9.90223,5.245868 0.9095,3.53693 -2.30289,4.76983 -4.47519,4.00952 0,0 -0.84144,3.72729 4.053,3.98018 3.9237,0.20274 6.60509,-5.99077 4.30103,-10.21489 -2.30406,-4.224119 -4.16602,-5.947686 -4.76199,-7.603155 -0.59597,-1.655471 0.61465,-1.99674 0.61465,-1.99674 0,0 0.81545,2.157127 3.45592,1.305362 2.38087,-0.768019 2.38705,-6.297861 -1.53584,-6.297861 -3.64021,0 -5.23823,1.826334 -8.52506,4.224031 h -3.91707 c -1.68965,0 -2.70165,-2.297018 -2.70165,-2.297018 L 125.85641,45.676798 130.853,42.201041 c 1.08615,-3.149825 -0.65164,-7.412327 -0.65164,-7.412327 l -1.05859,-0.06824 c 0,0 -2.69602,3.353175 -6.219,3.353175 -3.52302,0 -4.01836,-3.809767 -4.01836,-3.809767 l -1.05834,0.0084 -11.32263,0.529167 c -1.44076,-2.288212 -3.75118,-2.576543 -5.14562,-2.576543 l 1.05834,2.576543 h -4.915462 z m 0,10.147098 h 4.915462 v 6.262613 h -4.915462 z m 0,10.064698 h 4.915462 v 10.003273 h -4.915462 z"
         style="color:#000000;display:inline;overflow:visible;visibility:visible;fill:#800000;fill-opacity:1;fill-rule:evenodd;stroke:none;stroke-width:0.264583;stroke-linecap:square;stroke-linejoin:miter;stroke-miterlimit:4;stroke-dasharray:none;stroke-dashoffset:0;stroke-opacity:1;marker:none;marker-start:none;marker-mid:none;marker-end:none;enable-background:accumulate"
         id="circle1059"
         sodipodi:nodetypes="ccsccccccccscccscccsccccccccccccscccccccccccsscssscsscscccccsccccccccccccccccc" />
      <g
         id="g1011">
        <circle
           style="color:#000000;display:inline;overflow:visible;visibility:visible;fill:#cccccc;fill-opacity:1;fill-rule:evenodd;stroke:none;stroke-width:0.264583;stroke-linecap:square;stroke-linejoin:miter;stroke-miterlimit:4;stroke-dasharray:none;stroke-dashoffset:0;stroke-opacity:1;marker:none;marker-start:none;marker-mid:none;marker-end:none;enable-background:accumulate"
           id="path853"
           cx="98.921135"
           cy="89.090469"
           r="12.902757" />
        <path
           sodipodi:nodetypes="cscscc"
           transform="scale(0.26458333)"
           d="m 373.875,287.95312 c -26.93311,3.9e-4 -48.76631,21.83447 -48.76562,48.76758 4.3e-4,16.63125 8.47662,32.11561 22.48632,41.07813 -11.63991,-9.25121 -18.42343,-23.30728 -18.42382,-38.17578 -6.9e-4,-26.93387 21.8337,-48.76827 48.76757,-48.76758 z"
           style="color:#000000;display:inline;overflow:visible;visibility:visible;fill:#ffffff;fill-rule:evenodd;stroke:none;stroke-width:0.999999;stroke-linecap:square;stroke-linejoin:miter;stroke-miterlimit:4;stroke-dasharray:none;stroke-dashoffset:0;stroke-opacity:1;marker:none;marker-start:none;marker-mid:none;marker-end:none;enable-background:accumulate"
           id="circle1013" />
        <path
           transform="scale(0.26458333)"
           d="m 373.875,287.95312 a 48.766326,48.766326 0 0 0 -33.45117,13.28321 h 66.90234 A 48.766326,48.766326 0 0 0 373.875,287.95312 Z"
           style="font-variation-settings:normal;opacity:1;vector-effect:none;fill:#808080;fill-opacity:1;fill-rule:evenodd;stroke:none;stroke-width:0.999999;stroke-linecap:butt;stroke-linejoin:miter;stroke-miterlimit:4;stroke-dasharray:none;stroke-dashoffset:0;stroke-opacity:1;marker:none;marker-start:none;marker-mid:none;marker-end:none;stop-color:#000000;stop-opacity:1"
           id="path1020" />
      </g>
      <g
         id="g999">
        <path
           transform="scale(0.26458333)"
           d="m 386.35742,324.23828 -24.96484,24.96289 h 24.96484 z"
           style="color:#000000;overflow:visible;opacity:1;fill:#808080;fill-opacity:1;fill-rule:evenodd;stroke:none;stroke-width:0.999999;stroke-linejoin:miter;stroke-miterlimit:4;stroke-dasharray:none;paint-order:markers fill stroke"
           id="rect859" />
        <path
           transform="scale(0.26458333)"
           d="m 361.39258,324.23828 v 24.96289 l 24.96484,-24.96289 z"
           style="color:#000000;overflow:visible;opacity:1;fill:#ffffff;fill-rule:evenodd;stroke:none;stroke-width:0.999999;stroke-linejoin:miter;stroke-miterlimit:4;stroke-dasharray:none;paint-order:markers fill stroke"
           id="path1007" />
        <rect
           y="86.800072"
           x="96.630737"
           height="4.5808043"
           width="4.5808043"
           id="rect1001"
           style="color:#000000;overflow:visible;opacity:1;fill:#cccccc;fill-opacity:1;fill-rule:evenodd;stroke:none;stroke-width:0.264583;stroke-linejoin:miter;stroke-miterlimit:4;stroke-dasharray:none;paint-order:markers fill stroke" />
      </g>
      <g
         id="g950">
        <rect
           y="61.979321"
           x="95.618645"
           height="12.595548"
           width="6.6049829"
           id="rect877"
           style="color:#000000;overflow:visible;opacity:1;fill:#cccccc;fill-opacity:1;fill-rule:evenodd;stroke:none;stroke-width:0.264582;stroke-linejoin:miter;stroke-miterlimit:4;stroke-dasharray:none;paint-order:markers fill stroke" />
        <path
           transform="scale(0.26458333)"
           d="m 361.39258,234.25195 v 2.85938 h 24.96484 v -2.85938 z m 0,22.64258 v 24.96289 h 2.85937 v -24.96289 z"
           style="color:#000000;overflow:visible;opacity:1;fill:#ffffff;fill-rule:evenodd;stroke:none;stroke-width:0.999991;stroke-linejoin:miter;stroke-miterlimit:4;stroke-dasharray:none;paint-order:markers fill stroke"
           id="rect952" />
        <path
           sodipodi:nodetypes="ccccc"
           d="m 97.158027,61.979321 h -1.539382 v 7.676894 l 1.539382,0.108615 z"
           style="color:#000000;overflow:visible;opacity:1;fill:#808080;fill-opacity:1;fill-rule:evenodd;stroke:none;stroke-width:0.264581;stroke-linejoin:miter;stroke-miterlimit:4;stroke-dasharray:none;paint-order:markers fill stroke"
           id="rect954" />
      </g>
      <g
         id="g911">
        <rect
           style="color:#000000;overflow:visible;opacity:1;fill:#ffffff;fill-rule:evenodd;stroke:none;stroke-width:0.264582;stroke-linejoin:miter;stroke-miterlimit:4;stroke-dasharray:none;paint-order:markers fill stroke"
           id="rect883"
           width="38.414043"
           height="3.4952316"
           x="-118.12817"
           y="48.173611"
           transform="scale(-1,1)" />
        <rect
           transform="scale(-1,1)"
           y="48.825298"
           x="-118.12817"
           height="2.843544"
           width="37.816662"
           id="rect913"
           style="color:#000000;overflow:visible;opacity:1;fill:#cccccc;fill-opacity:1;fill-rule:evenodd;stroke:none;stroke-width:0.264582;stroke-linejoin:miter;stroke-miterlimit:4;stroke-dasharray:none;paint-order:markers fill stroke" />
        <rect
           transform="scale(-1,1)"
           y="48.173611"
           x="-97.056938"
           height="3.4952316"
           width="1.1592313"
           id="rect915"
           style="color:#000000;overflow:visible;opacity:1;fill:#808080;fill-opacity:1;fill-rule:evenodd;stroke:none;stroke-width:0.264581;stroke-linejoin:miter;stroke-miterlimit:4;stroke-dasharray:none;paint-order:markers fill stroke" />
        <rect
           style="color:#000000;overflow:visible;opacity:1;fill:#808080;fill-opacity:1;fill-rule:evenodd;stroke:none;stroke-width:0.264581;stroke-linejoin:miter;stroke-miterlimit:4;stroke-dasharray:none;paint-order:markers fill stroke"
           id="rect917"
           width="1.1592313"
           height="3.4952316"
           x="-113.47042"
           y="48.173611"
           transform="scale(-1,1)" />
      </g>
      <g
         id="g920">
        <path
           style="font-variation-settings:normal;opacity:1;vector-effect:none;fill:#cccccc;fill-opacity:1;fill-rule:evenodd;stroke:none;stroke-width:0.264583;stroke-linecap:butt;stroke-linejoin:miter;stroke-miterlimit:4;stroke-dasharray:none;stroke-dashoffset:0;stroke-opacity:1;marker:none;marker-start:none;marker-mid:none;marker-end:none;stop-color:#000000;stop-opacity:1"
           d="m 145.11681,89.583887 -20.31862,-44.436414 4.99626,-3.475667 c 1.08615,-3.149825 -0.65168,-6.951337 -0.65168,-6.951337 h -3.6929 c 0,0 -0.0613,2.82398 -3.58428,2.82398 -3.52302,0 -4.01874,-3.272343 -4.01874,-3.272343 H 96.015314 v 7.25488 h 20.202316 l 26.13992,57.321093 h 6.34903 c 3.80151,0 8.99306,2.089071 9.90256,5.625991 0.9095,3.53693 -1.24467,5.2991 -3.41697,4.53879 0,0 -0.9223,3.14385 2.99461,3.45105 3.91691,0.30721 6.60498,-5.99056 4.30092,-10.21468 -2.30406,-4.224116 -4.07051,-5.683356 -4.76173,-7.603409 -0.69122,-1.920053 1.30563,-2.995283 1.30563,-2.995283 0,0 0.73882,2.771816 3.37929,1.920053 2.38087,-0.768021 1.77244,-5.913764 -2.15045,-5.913764 -3.64021,0 -5.23821,1.826419 -8.52504,4.224117 h -3.91691 c -1.68965,0 -2.70168,-2.297057 -2.70168,-2.297057 z"
           id="path864"
           sodipodi:nodetypes="cccscccccccszcssscsscsc" />
        <path
           sodipodi:nodetypes="ccccccscscccccccccscscscscsczcccccscccsc"
           transform="scale(0.26458333)"
           d="m 362.89258,129.5332 v 2 h 83.03906 c -0.40072,-1.19501 -0.52539,-2 -0.52539,-2 z m 111.24804,1.69336 c 0,0 -0.23167,10.67383 -13.54687,10.67383 -4.46912,0 -7.62589,-1.40458 -9.87891,-3.25586 2.23036,2.75269 5.89117,5.25586 11.87891,5.25586 13.3152,0 13.54687,-10.67383 13.54687,-10.67383 h 12.75391 c -0.45178,-1.21024 -0.79492,-2 -0.79492,-2 z m -34.89257,25.72656 98.79687,216.64649 h 2.76758 L 442.01562,156.95312 Z m 166.46093,174.34766 c -13.75827,0 -19.79803,6.90268 -32.2207,15.96484 h -14.80469 c -2.03476,0 -3.80543,-0.88287 -5.27929,-2.08398 1.74551,2.08122 4.21272,4.08398 7.27929,4.08398 h 14.80469 c 12.42267,-9.06216 18.46243,-15.96484 32.2207,-15.96484 3.49413,0 6.2836,1.0882 8.40235,2.77734 -2.21993,-2.79204 -5.67018,-4.77734 -10.40235,-4.77734 z m 3.88667,10.99991 c 0,0 -0.88661,-4.43658 -5.22817,-3.09279 -4.34156,1.34378 -3.30316,7.18784 -3.30316,7.18784 0,0 0.4564,1.41006 1.09584,2.58864 0.65452,1.20044 1.64298,2.57849 3.05859,3.63281 -1.85713,-9.8965 4.3769,-10.3165 4.3769,-10.3165 z m -13.85542,45.35751 c 1.75391,2.18021 3.05329,4.58681 3.72657,7.20508 3.43748,13.36793 -4.7038,20.02791 -12.91407,17.1543 0,0 -2.96805,10.15234 8.28516,12.60156 -6.20327,-3.59371 -6.28516,-9.73047 -6.28516,-9.73047 8.21027,2.87361 17.22238,-5.23801 13.7849,-18.60594 -0.90749,-3.5291 -2.95315,-6.87739 -6.5974,-8.62453 z"
           style="font-variation-settings:normal;opacity:1;vector-effect:none;fill:#ffffff;fill-opacity:1;fill-rule:evenodd;stroke:none;stroke-width:0.999999;stroke-linecap:butt;stroke-linejoin:miter;stroke-miterlimit:4;stroke-dasharray:none;stroke-dashoffset:0;stroke-opacity:1;marker:none;marker-start:none;marker-mid:none;marker-end:none;stop-color:#000000;stop-opacity:1"
           id="path924" />
        <path
           sodipodi:nodetypes="ccccc"
           id="path927"
           d="m 97.056938,34.272106 h -1.40217 v 7.25488 h 1.40217 z"
           style="font-variation-settings:normal;opacity:1;vector-effect:none;fill:#808080;fill-opacity:1;fill-rule:evenodd;stroke:none;stroke-width:0.264583;stroke-linecap:butt;stroke-linejoin:miter;stroke-miterlimit:4;stroke-dasharray:none;stroke-dashoffset:0;stroke-opacity:1;marker:none;marker-start:none;marker-mid:none;marker-end:none;stop-color:#000000;stop-opacity:1" />
        <path
           sodipodi:nodetypes="cccsccccscsccccccscccscsc"
           d="m 101.9679,34.272325 v 7.254854 h 7.57834 c -0.50443,-1.150009 -0.89968,-2.522961 -1.51102,-4.05815 -0.53826,-1.351674 -1.18836,-2.400271 -1.89859,-3.196704 z m 21.45312,9.172079 0.92163,1.152032 c 0,0 3.14888,-2.073657 4.14731,-4.070513 0.99843,-1.996855 -0.1536,-3.99371 -0.1536,-3.99371 0,0 0,1.996855 -0.53762,3.6097 -0.53761,1.612844 -3.37929,3.686502 -3.37929,3.686502 l -0.23041,-0.384011 2.22726,-1.996855 -0.2304,-0.307209 z m 34.04895,67.278666 c 0,0 1.76644,0.76802 3.37929,-0.92163 1.61284,-1.68964 1.30564,-4.91533 0.84482,-5.99056 0,0 0.92164,6.68178 -4.22411,6.91219 z m 3.09863,-18.292035 c 0,0 0.46794,0.718291 1.19476,0.488766 0.76115,-0.240366 0.75098,-1.699433 -0.21722,-1.846448 0,0 0.38014,0.651687 0.10861,1.140453 -0.27154,0.488766 -1.08615,0.217229 -1.08615,0.217229 z"
           style="font-variation-settings:normal;opacity:1;vector-effect:none;fill:#808080;fill-opacity:1;fill-rule:evenodd;stroke:none;stroke-width:0.264583;stroke-linecap:butt;stroke-linejoin:miter;stroke-miterlimit:4;stroke-dasharray:none;stroke-dashoffset:0;stroke-opacity:1;marker:none;marker-start:none;marker-mid:none;marker-end:none;stop-color:#000000;stop-opacity:1"
           id="path929" />
      </g>
      <g
         id="g897">
        <path
           id="path881"
           style="font-variation-settings:normal;opacity:1;vector-effect:none;fill:#cccccc;fill-opacity:1;fill-rule:evenodd;stroke:none;stroke-width:0.999999;stroke-linecap:butt;stroke-linejoin:miter;stroke-miterlimit:4;stroke-dasharray:none;stroke-dashoffset:0;stroke-opacity:1;marker:none;marker-start:none;marker-mid:none;marker-end:none;stop-color:#000000;stop-opacity:1"
           d="m 364.58594,121.79492 c -8.17833,0 -17.21032,5.45304 -22.93164,19.82031 -5.72132,14.36728 -6.38661,25.07206 -20.90039,28.15039 v 37.97461 c 14.51378,3.48332 14.59798,14.94049 19.1582,32.51172 4.56021,17.57124 16.4955,21.76953 24.67383,21.76953 z m 18.57812,0 v 140.22656 c 8.17833,0 20.1136,-4.19829 24.67383,-21.76953 4.56023,-17.57123 4.6444,-29.0284 19.1582,-32.51172 v -37.97461 c -14.5138,-3.07833 -15.17909,-13.78311 -20.90039,-28.15039 -5.72133,-14.36727 -14.75331,-19.82031 -22.93164,-19.82031 z"
           transform="scale(0.26458333)" />
        <path
           id="path870"
           style="color:#000000;font-style:normal;font-variant:normal;font-weight:normal;font-stretch:normal;font-size:medium;line-height:normal;font-family:sans-serif;font-variant-ligatures:normal;font-variant-position:normal;font-variant-caps:normal;font-variant-numeric:normal;font-variant-alternates:normal;font-variant-east-asian:normal;font-feature-settings:normal;font-variation-settings:normal;text-indent:0;text-align:start;text-decoration:none;text-decoration-line:none;text-decoration-style:solid;text-decoration-color:#000000;letter-spacing:normal;word-spacing:normal;text-transform:none;writing-mode:lr-tb;direction:ltr;text-orientation:mixed;dominant-baseline:auto;baseline-shift:baseline;text-anchor:start;white-space:normal;shape-padding:0;shape-margin:0;inline-size:0;clip-rule:nonzero;display:inline;overflow:visible;visibility:visible;opacity:1;isolation:auto;mix-blend-mode:normal;color-interpolation:sRGB;color-interpolation-filters:linearRGB;solid-color:#000000;solid-opacity:1;vector-effect:none;fill:#808080;fill-opacity:1;fill-rule:evenodd;stroke:none;stroke-width:1.5;stroke-linecap:butt;stroke-linejoin:miter;stroke-miterlimit:4;stroke-dasharray:none;stroke-dashoffset:0;stroke-opacity:1;marker:none;color-rendering:auto;image-rendering:auto;shape-rendering:auto;text-rendering:auto;enable-background:accumulate;stop-color:#000000;stop-opacity:1"
           d="m 398.86523,142.42578 v 95.81836 c -1.93138,10.36422 -6.79882,16.23047 -6.79882,16.23047 0,0 10.54792,-2.09509 13.24609,-19.18359 2.28244,-14.45565 8.12408,-21.45997 11.41016,-24.36133 0.99087,-0.82342 1.75331,-1.30482 3.08593,-1.73438 v -8.71093 h -1.5 v 7.42773 c -0.41996,0.11543 -0.84584,0.27262 -1.27539,0.45117 v -3.52344 h -1.5 v 4.25977 c -0.42361,0.23905 -0.84918,0.50647 -1.27539,0.79687 v -8.82812 h -1.5 v 9.94531 c -0.42976,0.34943 -0.85725,0.72937 -1.2832,1.12305 v -25.29297 h -1.5 v 26.7793 c -0.43151,0.45603 -0.855,0.9372 -1.27539,1.43164 v -37.79297 h -1.5 v 39.66992 c -0.43713,0.58169 -0.86214,1.18094 -1.27734,1.79688 v -58.30469 h -1.50586 v 60.69336 c -0.44593,0.76122 -0.87297,1.53521 -1.2754,2.32617 v -68.82227 h -1.5 v 72.1211 c -0.48757,1.20062 -0.92138,2.41375 -1.27734,3.63086 v -87.94727 z m -71.81835,45.11133 v 21.04492 h 1.49804 v -21.04492 z m 2.45898,2.87109 v 19.7168 h 1.49805 v -19.7168 z m -4.92383,6.77735 v 9.84765 h 1.49805 v -9.84765 z m 9.85352,0 v 17.40625 h 1.5 v -17.40625 z m -2.46485,0.40625 v 14.08398 h 1.49805 V 197.5918 Z m 4.92383,4.31054 v 14.57227 h 1.49805 v -14.57227 z"
           transform="scale(0.26458333)"
           sodipodi:nodetypes="cccscccccccccccccccccccccccccccccccccccccccccccccccccccccccccccccc" />
        <path
           id="path876"
           style="font-variation-settings:normal;opacity:1;vector-effect:none;fill:#ffffff;fill-opacity:1;fill-rule:evenodd;stroke:none;stroke-width:0.999999;stroke-linecap:butt;stroke-linejoin:miter;stroke-miterlimit:4;stroke-dasharray:none;stroke-dashoffset:0;stroke-opacity:1;marker:none;marker-start:none;marker-mid:none;marker-end:none;stop-color:#000000;stop-opacity:1"
           d="m 364.58594,121.79492 c -8.17833,0 -17.21032,5.45304 -22.93164,19.82031 -5.72132,14.36728 -6.38661,25.07208 -20.90039,28.15039 v 37.97461 c 0.70327,0.16879 1.36233,0.36234 2,0.56836 v -36.54297 c 6.43071,-1.36393 10.13768,-4.2306 12.77539,-8.24414 v 4.85938 h 1.49804 v -7.48633 c 0.71857,-1.41843 1.37128,-2.93945 1.99414,-4.56445 v 11.43164 h 1.49805 v -15.55274 c 0.582,-1.66081 1.17717,-3.36616 1.83789,-5.17382 v 15.26367 h 1.49805 v -19.15625 c 0.5369,-1.31212 1.10184,-2.54863 1.69141,-3.71094 v 27.60547 h 1.50585 v -30.33594 c 0.54663,-0.90777 1.11175,-1.75104 1.68946,-2.55273 v 40.93554 h 1.49804 v -42.86914 c 0.55501,-0.6603 1.11661,-1.28983 1.69141,-1.86523 v 58.66406 h 1.50586 v -60.05273 c 3.56667,-3.05485 7.40953,-4.63503 11.14844,-5.04297 z m 18.57812,0 v 140.22656 c 0.64335,0 1.31558,-0.0374 2,-0.0937 V 123.79492 c 4.51077,0 9.27795,1.67185 13.60938,5.57031 -4.83094,-5.33693 -10.39213,-7.57031 -15.60938,-7.57031 z m -34.30664,134.29297 c 0.4552,0.40695 0.91487,0.79704 1.38281,1.1543 v -27.82813 h -1.49804 v 26.53711 c -0.58244,-0.66575 -1.14587,-1.38688 -1.68946,-2.15625 v -28.4414 h -1.50585 v 26.0625 c -0.60224,-1.0568 -1.16906,-2.19463 -1.69141,-3.42188 v -24.67773 h -1.49805 v 20.48632 c -0.1521,-0.51005 -0.30657,-1.01617 -0.44531,-1.55078 C 338.45236,228.921 337.56295,219.11314 331,213.63281 c 4.7933,5.71881 5.83906,14.7782 8.91211,26.61914 1.91584,7.38206 5.13625,12.39091 8.83008,15.73243 z m 3.07422,-40.60351 v 42.91015 c 0.49931,0.31486 1.00022,0.60572 1.50586,0.87305 v -43.7832 z"
           transform="scale(0.26458333)"
           sodipodi:nodetypes="cscccccccccccccccccccccccccccccccccccccccccccccccccccsccccccc" />
      </g>
      <g
         id="g987">
        <path
           style="font-variation-settings:normal;opacity:1;vector-effect:none;fill:#cccccc;fill-opacity:1;fill-rule:evenodd;stroke:none;stroke-width:0.264583;stroke-linecap:butt;stroke-linejoin:miter;stroke-miterlimit:4;stroke-dasharray:none;stroke-dashoffset:0;stroke-opacity:1;marker:none;marker-start:none;marker-mid:none;marker-end:none;stop-color:#000000;stop-opacity:1"
           d="m 112.829,73.499635 v 5.349064 H 84.880979 c 0,-3.643955 -0.462083,-8.901016 -4.608129,-9.880389 v -2.073658 c 0,0 3.14889,-1.152032 6.144173,0.614417 2.995282,1.766449 3.763304,4.531326 3.763304,5.990566 z"
           id="path857"
           sodipodi:nodetypes="cccccscc" />
        <path
           sodipodi:nodetypes="sccccccccccccss"
           transform="scale(0.26458333)"
           d="m 312.46875,251.43555 c -5.3098,0.0172 -9.07617,1.39453 -9.07617,1.39453 v 7.83789 c 15.67009,3.70157 17.41797,23.57132 17.41797,37.34375 h 2.61718 c -0.13078,-5.18701 -0.44578,-12.67418 -1.17773,-16.60352 -1.43899,-8.68785 -6.08831,-19.13911 -15.86328,-22.31445 v -4.41992 c 1.75871,-0.44328 3.55929,-0.72695 5.37109,-0.83399 14.33733,-1.24034 26.94212,10.66359 28.86874,25.8711 h 85.8129 v -1.91797 h -85.59961 c 0,-5.51524 -2.90385,-15.96428 -14.22461,-22.64063 -4.95283,-2.9209 -10.01664,-3.73019 -14.14648,-3.71679 z"
           style="font-variation-settings:normal;opacity:1;vector-effect:none;fill:#ffffff;fill-opacity:1;fill-rule:evenodd;stroke:none;stroke-width:0.999999;stroke-linecap:butt;stroke-linejoin:miter;stroke-miterlimit:4;stroke-dasharray:none;stroke-dashoffset:0;stroke-opacity:1;marker:none;marker-start:none;marker-mid:none;marker-end:none;stop-color:#000000;stop-opacity:1"
           id="path992" />
      </g>
    </g>
  </g>
</svg>
