<?xml version="1.0" encoding="UTF-8" standalone="no"?>
<!-- Created with Inkscape (http://www.inkscape.org/) -->

<svg
   width="500"
   height="538"
   viewBox="0 0 132.29166 142.34583"
   version="1.1"
   id="svg5"
   xml:space="preserve"
   xmlns="http://www.w3.org/2000/svg"
   xmlns:svg="http://www.w3.org/2000/svg"><defs
     id="defs2" /><path
     id="path11746"
     style="font-variation-settings:normal;vector-effect:none;fill:#bf9f4f;fill-opacity:1;stroke:none;stroke-width:0.132292;stroke-linecap:butt;stroke-linejoin:miter;stroke-miterlimit:4;stroke-dasharray:none;stroke-dashoffset:0;stroke-opacity:1;-inkscape-stroke:none;stop-color:#000000"
     d="m 123.09997,95.478793 c 0.61446,-2.906258 1.0737,-5.943129 1.35548,-9.116481 C 127.75058,49.25325 132.29166,0 132.29166,0 H 0 c 0,0 4.54107,49.25325 7.83621,86.362312 0.28178,3.173334 0.74102,6.210238 1.35547,9.116481" /><path
     id="path11744"
     style="font-variation-settings:normal;vector-effect:none;fill:#000000;fill-opacity:1;stroke:none;stroke-width:0.132292;stroke-linecap:butt;stroke-linejoin:miter;stroke-miterlimit:4;stroke-dasharray:none;stroke-dashoffset:0;stroke-opacity:1;-inkscape-stroke:none;stop-color:#000000"
     d="m 66.14583,78.581123 c -30.70648,0 -51.66244,13.18732 -56.95415,16.89767 6.57099,31.079437 31.348,46.867037 56.95415,46.867037 25.60613,0 50.38314,-15.78764 56.95414,-46.867037 -5.29183,-3.710425 -26.24782,-16.89767 -56.95414,-16.89767 z" /><path
     id="path11780"
     style="font-variation-settings:normal;opacity:1;vector-effect:none;fill:#bf9f4f;fill-opacity:1;stroke:none;stroke-width:0.132292;stroke-linecap:butt;stroke-linejoin:miter;stroke-miterlimit:4;stroke-dasharray:none;stroke-dashoffset:0;stroke-opacity:1;-inkscape-stroke:none;stop-color:#000000;stop-opacity:1"
     d="m 53.74349,111.66358 -5.89628,0.0631 c 2.62215,5.71862 3.8592,11.16554 4.98677,17.47564 h 26.6237 c 1.12757,-6.3101 2.36462,-11.75702 4.98677,-17.47564 l -5.89628,-0.0631 c 0.23958,0.67903 1.04226,1.92742 0.93121,4.23903 a 2.9700067,2.9710961 0 0 0 -2.79362,-1.96805 2.9700067,2.9710961 0 0 0 -2.96985,2.97094 2.9700067,2.9710961 0 0 0 2.96985,2.97093 2.9700067,2.9710961 0 0 0 1.97972,-0.7563 c -1.09876,2.12068 -3.27819,3.74016 -5.97638,3.74016 -3.06731,0 -4.85093,-2.02051 -5.2064,-4.58693 a 2.9700067,2.9710961 0 0 0 2.63446,1.60307 2.9700067,2.9710961 0 0 0 2.96985,-2.97093 2.9700067,2.9710961 0 0 0 -2.96985,-2.97094 2.9700067,2.9710961 0 0 0 -2.55333,1.45575 c 0.29099,-1.96323 0.94433,-2.97452 1.50637,-3.72672 h -5.84874 c 0.56195,0.75207 1.21532,1.76313 1.50637,3.72568 a 2.9700067,2.9710961 0 0 0 -2.55333,-1.45471 2.9700067,2.9710961 0 0 0 -2.96985,2.97094 2.9700067,2.9710961 0 0 0 2.96985,2.97093 2.9700067,2.9710961 0 0 0 2.63446,-1.59893 c -0.35681,2.56444 -2.14074,4.58279 -5.2064,4.58279 -2.69946,0 -4.87915,-1.62111 -5.97741,-3.74326 a 2.9700067,2.9710961 0 0 0 1.98076,0.7594 2.9700067,2.9710961 0 0 0 2.96984,-2.97093 2.9700067,2.9710961 0 0 0 -2.96984,-2.97094 2.9700067,2.9710961 0 0 0 -2.79312,1.96701 c -0.11076,-2.31093 0.69116,-3.55906 0.9307,-4.23799 z" /><path
     id="path11932"
     style="font-variation-settings:normal;opacity:1;vector-effect:none;fill:#bf9f4f;fill-opacity:1;stroke:none;stroke-width:0.132292;stroke-linecap:butt;stroke-linejoin:miter;stroke-miterlimit:4;stroke-dasharray:none;stroke-dashoffset:0;stroke-opacity:1;-inkscape-stroke:none;stop-color:#000000;stop-opacity:1"
     d="m 31.920905,88.679351 -5.89628,0.06307 c 2.62215,5.718612 3.85919,11.165531 4.98677,17.475639 h 26.6237 c 1.12756,-6.310108 2.36462,-11.757027 4.98677,-17.475639 l -5.89628,-0.06307 c 0.23958,0.679023 1.04226,1.92742 0.93121,4.239022 a 2.9700067,2.9710961 0 0 0 -2.79362,-1.968044 2.9700067,2.9710961 0 0 0 -2.96985,2.970934 2.9700067,2.9710961 0 0 0 2.96985,2.970937 2.9700067,2.9710961 0 0 0 1.97971,-0.756308 c -1.09876,2.120688 -3.27818,3.740162 -5.97638,3.740162 -3.06731,0 -4.85093,-2.020511 -5.2064,-4.586932 a 2.9700067,2.9710961 0 0 0 2.63446,1.603078 2.9700067,2.9710961 0 0 0 2.96985,-2.970937 2.9700067,2.9710961 0 0 0 -2.96985,-2.970934 2.9700067,2.9710961 0 0 0 -2.55333,1.455743 c 0.29099,-1.963226 0.94433,-2.974512 1.50637,-3.726721 h -5.84873 c 0.56194,0.752077 1.21531,1.763139 1.50637,3.725686 a 2.9700067,2.9710961 0 0 0 -2.55333,-1.454708 2.9700067,2.9710961 0 0 0 -2.96985,2.970934 2.9700067,2.9710961 0 0 0 2.96985,2.970937 2.9700067,2.9710961 0 0 0 2.63446,-1.598937 c -0.35681,2.564441 -2.14074,4.582791 -5.2064,4.582791 -2.69946,0 -4.87916,-1.621105 -5.97741,-3.743263 a 2.9700067,2.9710961 0 0 0 1.98076,0.759409 2.9700067,2.9710961 0 0 0 2.96984,-2.970937 2.9700067,2.9710961 0 0 0 -2.96984,-2.970934 2.9700067,2.9710961 0 0 0 -2.79312,1.967009 c -0.11076,-2.310936 0.69116,-3.559065 0.9307,-4.237987 z" /><path
     id="path11934"
     style="font-variation-settings:normal;opacity:1;vector-effect:none;fill:#bf9f4f;fill-opacity:1;stroke:none;stroke-width:0.132292;stroke-linecap:butt;stroke-linejoin:miter;stroke-miterlimit:4;stroke-dasharray:none;stroke-dashoffset:0;stroke-opacity:1;-inkscape-stroke:none;stop-color:#000000;stop-opacity:1"
     d="m 100.37076,88.679351 5.89627,0.06307 c -2.62214,5.718612 -3.85919,11.165531 -4.98676,17.475639 H 74.656565 c -1.12757,-6.310108 -2.36462,-11.757027 -4.98677,-17.475639 l 5.89628,-0.06307 c -0.23958,0.679023 -1.04226,1.92742 -0.93121,4.239022 a 2.9700067,2.9710961 0 0 1 2.79361,-1.968044 2.9700067,2.9710961 0 0 1 2.96986,2.970934 2.9700067,2.9710961 0 0 1 -2.96986,2.970937 2.9700067,2.9710961 0 0 1 -1.97971,-0.756308 c 1.09876,2.120688 3.27819,3.740162 5.97638,3.740162 3.06731,0 4.85093,-2.020511 5.20639,-4.586932 a 2.9700067,2.9710961 0 0 1 -2.63446,1.603078 2.9700067,2.9710961 0 0 1 -2.96985,-2.970937 2.9700067,2.9710961 0 0 1 2.96985,-2.970934 2.9700067,2.9710961 0 0 1 2.55334,1.455743 c -0.291,-1.963226 -0.94433,-2.974512 -1.50637,-3.726721 h 5.84874 c -0.56195,0.752077 -1.21532,1.763139 -1.50637,3.725686 a 2.9700067,2.9710961 0 0 1 2.55333,-1.454708 2.9700067,2.9710961 0 0 1 2.96985,2.970934 2.9700067,2.9710961 0 0 1 -2.96985,2.970937 2.9700067,2.9710961 0 0 1 -2.63446,-1.598937 c 0.35681,2.564441 2.14074,4.582791 5.2064,4.582791 2.69946,0 4.87915,-1.621105 5.977415,-3.743263 a 2.9700067,2.9710961 0 0 1 -1.980765,0.759409 2.9700067,2.9710961 0 0 1 -2.96984,-2.970937 2.9700067,2.9710961 0 0 1 2.96984,-2.970934 2.9700067,2.9710961 0 0 1 2.793125,1.967009 c 0.11076,-2.310936 -0.69116,-3.559065 -0.9307,-4.237987 z" /><path
     id="path12184"
     style="font-variation-settings:normal;opacity:1;vector-effect:none;fill:#000000;fill-opacity:1;stroke:none;stroke-width:0.132292;stroke-linecap:butt;stroke-linejoin:miter;stroke-miterlimit:4;stroke-dasharray:none;stroke-dashoffset:0;stroke-opacity:1;-inkscape-stroke:none;stop-color:#000000;stop-opacity:1"
     d="m 88.44679,2.457082 c -5.69987,0.101278 -10.21552,4.123598 -11.57448,8.02209 -2.04047,5.853454 0.54013,11.74652 5.36298,13.349816 4.87754,1.621486 7.44886,-0.643053 7.74681,-1.552929 -4.01454,-0.313751 -3.40744,-4.624018 -1.47381,-5.569144 1.93362,-0.945126 5.16934,0.42777 4.03024,4.87901 -1.10088,4.301895 -9.2602,9.095397 -19.36729,9.663419 C 63.06415,31.817367 53.37311,29.07649 43.56426,23.091812 33.75541,17.107134 31.38874,12.552414 25.06617,10.063541 18.74359,7.5746678 15.3066,9.6272739 13.77487,10.448155 c 2.54026,1.96476 3.78688,5.99627 3.68143,8.541628 0,0 -2.77211,1.552814 -2.86081,2.284936 -0.0887,0.732122 -0.13338,1.353518 1.9513,3.793925 2.08468,2.440405 4.70872,6.010726 3.54862,8.962946 -1.1601,2.952218 -4.72374,2.48448 -4.72374,2.48448 0.0923,3.035177 5.97639,6.49347 9.09247,2.240995 -0.34606,3.695376 -3.15146,3.749523 -5.05654,3.860094 1.1396,2.601988 5.83576,3.952063 8.07289,0.776465 0.59834,2.701528 -2.21328,3.597084 -4.52427,3.438778 1.59651,2.471899 4.7687,3.806098 7.0745,2.196536 0.84275,1.575171 2.10472,5.724128 8.50749,9.686682 6.34429,3.926348 13.1017,6.321154 17.59376,7.566653 4.49207,1.245499 6.99919,1.176344 7.87394,2.324224 0.87475,1.14788 0.65011,3.461668 -0.21239,4.76373 -0.8625,1.302063 -3.48101,1.255143 -5.33146,0.894331 -1.85045,-0.360807 -3.72559,-0.60586 -4.9568,-0.209367 -1.2312,0.396492 -4.17295,1.513525 -5.11804,2.633363 -0.9451,1.119836 -1.09089,3.772729 -1.09089,3.772729 l 2.69751,-0.392368 c 0,0 -0.0356,-1.167893 1.78749,-1.678548 1.82311,-0.510657 4.89259,-0.564888 7.30756,0.737175 l 6.49263,-0.250722 c 0,0 1.92869,-1.153225 2.46187,-1.388538 0.53318,-0.235313 1.15824,-0.141037 1.74098,0.03928 0.68003,0.210437 1.43422,0.493839 1.74821,0.729422 0.31404,0.235585 0.35295,0.760956 0.35295,0.760956 l 3.4184,0.250723 c 0,0 -0.23511,-1.082447 -1.00356,-2.855136 -0.78476,-1.810312 -2.71293,-3.106115 -6.61768,-2.494303 0,0 1.16073,-3.058979 3.01118,-5.129733 0,0 0.77546,3.187891 2.65927,3.985715 1.88383,0.797821 3.82902,0.395038 4.28759,-0.597082 0,0 -1.61504,-0.266875 -2.05413,-2.431751 -0.37391,-1.843499 -0.2076,-3.568525 0.62993,-5.122496 -10.31615,-4.634862 -23.10917,-6.725089 -31.34641,-12.59403 -4.30581,-3.067872 -5.90857,-6.59915 -6.40426,-9.353246 -0.49566,-2.754096 0.48731,-4.65 0.48731,-4.65 0,0 -0.17028,1.929679 0.29404,4.509388 0.46431,2.579714 1.93523,5.891292 6.08387,8.847149 8.31703,5.92582 22.31253,8.106266 31.3831,12.443596 0,0 4.65061,1.874518 12.94649,5.701484 8.29588,3.826966 13.80789,8.658078 18.48104,14.901712 0,0 2.1328,-4.047123 -2.22673,-8.816131 C 98.56166,68.125793 86.33411,61.93295 74.46935,56.716551 73.15677,56.139469 71.3151,55.447465 70.81479,54.708185 c 12.96831,4.554496 26.65574,11.601206 35.06608,19.747121 -0.2087,-2.895314 -1.40594,-5.799111 -4.39456,-8.099634 -9.65498,-7.573197 -21.53836,-12.458175 -26.95805,-14.51348 -5.41967,-2.055302 -5.1325,-2.87633 -5.1325,-2.87633 10.93898,3.913469 22.32282,8.813318 31.86162,16.432412 C 100.22177,61.471727 97.91,58.040934 92.59331,55.107791 80.86306,48.889398 66.42591,44.485939 66.42591,44.485939 c 0,0 0.27029,-0.03061 0.73226,-0.01395 0.46197,0.01666 1.11567,0.08052 1.88154,0.270366 1.47726,0.3662 12.43393,4.052623 23.29935,9.423035 -0.50167,-1.34745 -1.62531,-2.835267 -3.31608,-4.049299 h -5.1e-4 c -1.83809,-1.222526 -5.03539,-3.157321 -9.1364,-4.891934 -6.56038,-2.774873 -15.10708,-5.283268 -15.10708,-5.283268 0,0 0.57746,-0.08914 1.87068,0.159738 1.29323,0.248877 4.51577,1.011563 10.40454,3.161172 -5.62405,-7.453416 -16.78156,-10.818878 -30.45189,-10.756775 0.16923,-0.558379 1.38463,-0.671473 1.82159,-0.669973 13.50432,0.0464 24.54003,3.742169 29.9527,11.923024 0.61492,0.237523 1.22355,0.482131 1.81797,0.733558 0.75233,0.31821 1.47394,0.644362 2.16525,0.971874 2.85373,-0.307234 5.184,-1.485517 10.64534,-4.099962 2.75301,-1.317913 6.40317,-3.193777 9.83971,-4.0798 0.85914,-0.221506 1.70597,-0.383343 2.52543,-0.454919 0.81946,-0.07158 1.61069,-0.05235 2.35903,0.0822 1.49662,0.269087 3.34058,0.880421 4.00078,2.719177 0.90128,1.923719 -0.896,5.060284 -3.10782,3.946426 -2.2118,-1.113859 -1.29106,-3.264554 -0.79426,-4.357921 0,0 -4.6064,-0.146048 -5.92367,4.591583 -1.31727,4.737635 4.16752,10.436782 10.75386,10.028906 6.58635,-0.407877 11.30462,-4.303891 12.67106,-8.941751 1.36645,-4.637862 0.094,-7.561612 -1.4428,-10.950117 -4.663,-6.074074 -11.14043,-9.105373 -19.29443,-6.857393 -8.154,2.247981 -8.66193,3.945239 -14.28337,6.054046 1.13674,-0.775328 6.26502,-4.561405 16.61811,-8.009165 7.48025,-2.491054 13.84036,-3.304308 16.85375,-3.570084 -0.13218,-3.277588 -1.22222,-6.035929 -4.79764,-7.447754 -3.78525,2.347295 -10.59204,7.144674 -15.0089,10.025803 -2.21728,1.446326 -3.88503,2.257538 -3.88503,2.257538 0,0 12.76952,-9.257115 18.27071,-13.015865 -0.88042,-3.199678 -3.94403,-5.4188126 -7.71994,-5.3670145 -0.62225,2.1896115 -2.60425,7.7494065 -7.93181,13.4837075 -6.82932,7.350665 -13.07052,9.704436 -14.90504,9.957566 0,0 7.93742,-3.948741 11.09597,-7.343847 3.15855,-3.395106 3.52897,-6.344378 3.33674,-9.667554 C 102.0422,11.103838 100.95248,8.2027232 97.66638,5.772826 94.66725,3.498136 91.71111,2.532819 89.0018,2.45967 88.81553,2.45467 88.63066,2.45387 88.44679,2.45707 Z m 14.32833,1.682685 c -1.36499,0.01863 -2.7897,0.349832 -4.17649,1.078365 2.97301,2.5311559 4.24026,5.909322 4.4297,9.184203 0.14601,2.524149 -0.32081,4.911456 -1.13171,6.892545 5.45425,-5.573405 7.43888,-11.5027744 8.01088,-13.607259 -1.36778,-2.092716 -4.10214,-3.589197 -7.13238,-3.547854 z m -92.08224,5.936698 c -0.50544,0.0072 -1.00653,0.09621 -1.48776,0.261061 -1.92777,0.660389 -2.76307,2.347429 -2.60294,3.404658 1.09248,-0.349723 3.29386,-0.698939 5.55108,0.470429 2.25722,1.169367 3.76348,2.838999 4.73614,4.518176 0.10977,-0.878502 0.23527,-2.353297 -1.31723,-5.33393 -1.21289,-2.328619 -3.07413,-3.346137 -4.87929,-3.320394 z m 9.51157,2.289071 c 0.80938,4e-5 1.4655,0.656405 1.46554,1.466082 -4e-5,0.809676 -0.65616,1.466041 -1.46554,1.466081 -0.80938,-3.5e-5 -1.46551,-0.656401 -1.46555,-1.466081 4e-5,-0.809681 0.65617,-1.466047 1.46555,-1.466082 z m -9.72396,2.79 c -0.65915,-0.0024 -1.3152,0.04955 -1.85518,0.139578 0,0 1.77183,1.380486 2.55592,2.086426 1.83476,-0.188251 4.62607,0.690133 4.62607,0.690133 -0.43506,-0.633047 -1.8324,-2.190532 -3.01067,-2.603897 -0.61619,-0.216176 -1.46865,-0.309139 -2.31614,-0.31224 z m 1.56218,2.69333 c -1.69826,-7.78e-4 -2.92241,0.745226 -3.98218,2.074019 2.54623,-0.173076 4.45483,0.23374 6.08438,0.89433 1.06636,-1.066753 2.49339,-1.710083 2.49339,-1.710083 -1.86481,-0.85941 -3.35631,-1.257698 -4.59559,-1.258266 z m 112.11047,4.448388 c -2.8454,0.189425 -9.32975,0.892068 -16.68167,3.506498 7.08447,-0.45332 12.09039,1.940679 16.85685,7.416736 1.99406,-3.512501 2.31543,-7.565963 -0.17518,-10.923234 z m -18.5875,15.327681 c -0.75,0.01713 -1.61973,0.194027 -2.52336,0.427005 -3.30466,0.85203 -6.92324,2.700404 -9.69346,4.026553 -4.73682,2.267595 -7.1921,3.499804 -9.73274,3.998121 2.55871,1.288765 4.56603,2.53502 5.88698,3.415515 1.12493,-1.414922 4.34655,-5.121914 9.7317,-8.547832 3.16917,-2.016156 5.89374,-2.844219 8.00003,-2.970934 -0.0355,1.99e-4 -0.0634,-0.0031 -0.0997,-0.0026 -0.3385,-0.218828 -0.76607,-0.3222 -1.25574,-0.343258 -0.10202,-0.0044 -0.20653,-0.005 -0.31368,-0.0026 z" /><path
     style="font-variation-settings:normal;opacity:1;vector-effect:none;fill:#f90606;fill-opacity:1;stroke:none;stroke-width:0.132292;stroke-linecap:butt;stroke-linejoin:miter;stroke-miterlimit:4;stroke-dasharray:none;stroke-dashoffset:0;stroke-opacity:1;-inkscape-stroke:none;stop-color:#000000;stop-opacity:1"
     d="m 18.43197,14.241878 c -0.68449,-0.497993 -1.77998,-2.453473 -0.13306,-4.437111 1.64693,-1.9836378 6.32056,-2.0410708 7.73992,1.575174 1.41935,3.616246 -0.39919,6.18977 -0.75403,6.18977 -0.35484,0 0.17288,-3.148596 -1.84073,-4.548039 -2.01361,-1.399442 -4.46875,-0.787587 -5.0121,1.220206 z"
     id="path13779" /></svg>
