<?xml version="1.0" encoding="UTF-8" standalone="no"?>
<svg
   xmlns:dc="http://purl.org/dc/elements/1.1/"
   xmlns:cc="http://creativecommons.org/ns#"
   xmlns:rdf="http://www.w3.org/1999/02/22-rdf-syntax-ns#"
   xmlns:svg="http://www.w3.org/2000/svg"
   xmlns="http://www.w3.org/2000/svg"
   width="500"
   height="564"
   viewBox="0 0 132.29166 149.225"
   version="1.1"
   id="svg847">
  <defs
     id="defs841" />
  <metadata
     id="metadata844">
    <rdf:RDF>
      <cc:Work
         rdf:about="">
        <dc:format>image/svg+xml</dc:format>
        <dc:type
           rdf:resource="http://purl.org/dc/dcmitype/StillImage" />
        <dc:title></dc:title>
      </cc:Work>
    </rdf:RDF>
  </metadata>
  <g
     id="layer1"
     transform="translate(-34.566072,-63.699472)">
    <path
       id="circle2797"
       style="opacity:1;fill:#e90606;fill-opacity:1;stroke:none;stroke-width:0.264581;stroke-miterlimit:10"
       d="m 34.566388,63.699472 v 83.079168 c 0,36.53134 29.614386,66.14583 66.145572,66.14583 36.5312,0 66.1461,-29.61449 66.1461,-66.14583 V 63.699472 Z" />
    <path
       id="path1028"
       style="color:#000000;font-style:normal;font-variant:normal;font-weight:normal;font-stretch:normal;font-size:medium;line-height:normal;font-family:sans-serif;font-variant-ligatures:normal;font-variant-position:normal;font-variant-caps:normal;font-variant-numeric:normal;font-variant-alternates:normal;font-variant-east-asian:normal;font-feature-settings:normal;font-variation-settings:normal;text-indent:0;text-align:start;text-decoration:none;text-decoration-line:none;text-decoration-style:solid;text-decoration-color:#000000;letter-spacing:normal;word-spacing:normal;text-transform:none;writing-mode:lr-tb;direction:ltr;text-orientation:mixed;dominant-baseline:auto;baseline-shift:baseline;text-anchor:start;white-space:normal;shape-padding:0;shape-margin:0;inline-size:0;clip-rule:nonzero;display:inline;overflow:visible;visibility:visible;opacity:1;isolation:auto;mix-blend-mode:normal;color-interpolation:sRGB;color-interpolation-filters:linearRGB;solid-color:#000000;solid-opacity:1;vector-effect:none;fill:#7c0303;fill-opacity:1;fill-rule:nonzero;stroke:none;stroke-linecap:butt;stroke-linejoin:miter;stroke-miterlimit:10;stroke-dasharray:none;stroke-dashoffset:0;stroke-opacity:1;color-rendering:auto;image-rendering:auto;shape-rendering:auto;text-rendering:auto;enable-background:accumulate;stop-color:#000000;stop-opacity:1"
       d="m 403.55273,275.12305 -0.21875,5.99609 c 3.59075,0.13179 7.36808,3.03778 10.24414,7.43164 2.87608,4.39387 4.64063,10.0677 4.64063,14.03125 0,3.89144 -0.84061,7.60233 -2.38086,11.05859 l 5.48047,2.44141 c 1.86187,-4.17798 2.90039,-8.73976 2.90039,-13.5 0,-5.58736 -2.11268,-11.95948 -5.61914,-17.31641 -3.50646,-5.35691 -8.61639,-9.90656 -15.04688,-10.14257 z m -214.00585,31.66211 3.88867,15.58789 57.20703,54.14257 24.95117,52.43946 -31.28711,-10.26563 c -4.05545,-4.37301 -12.03656,-7.13456 -19.97656,-2.75976 l 2.64453,2.60742 c 5.86142,-0.90223 9.63614,0.67676 12.93359,4.23242 3.29745,3.55566 6.10711,8.88959 10.66992,12.95117 l 0.0156,0.0137 0.0176,0.0156 c 3.46471,2.99653 6.99841,4.20224 9.99219,5.44141 2.99377,1.23916 5.52218,2.44308 8.26953,5.52343 3.06467,3.43615 4.84179,5.8229 7.51367,7.82618 2.67187,2.00327 5.93037,3.25835 11.2832,4.51757 5.28866,1.24415 9.01552,1.91267 11.65039,3.18946 2.1034,1.01924 4.03419,1.7974 5.50586,6.19336 l 1.33929,3 h 32.29743 v -33.8086 l -1.80664,-0.7832 c -5.62377,-2.44038 -9.66981,-5.12743 -11.63672,-11.96484 -0.9984,-3.47065 -1.1948,-7.13845 -1.75586,-11.05274 -0.56106,-3.91429 -1.56353,-8.13786 -4.45117,-12.10547 -2.77466,-3.81239 -5.8508,-6.05732 -8.36914,-8.21679 -2.51834,-2.15947 -4.54776,-4.16857 -6.22266,-7.97266 -1.58806,-3.60687 -1.92145,-6.90517 -2.71679,-10.52734 -0.79534,-3.62218 -2.25471,-7.60858 -6.05664,-11.13086 -2.38225,-2.20702 -3.61698,-3.91318 -4.22657,-5.25 -0.60958,-1.33683 -0.70313,-4.62007 -0.58203,-5.99805 l -2.51953,-0.97852 -3.3125,9.72657 4.95703,39.24023 c -4.12672,-3.85162 -7.96971,-8.5947 -10.22461,-14.54102 -3.211,-8.46766 -5.94294,-14.53741 -13.82226,-21.41796 -4.09995,-3.58023 -7.98107,-5.22112 -11.7168,-6.50196 -3.73573,-1.28083 -7.33032,-2.27031 -11.86133,-4.72461 -4.31779,-2.3388 -5.84135,-4.52887 -7.44336,-7.77929 -1.602,-3.25043 -3.0485,-7.63926 -6.46875,-12.91211 -3.52548,-5.43513 -6.52835,-6.67749 -10.91071,-8.78711 -4.38236,-2.10962 -11.97368,-4.94617 -16.19671,-6.90011 -4.80239,-2.222 -7.76332,-7.29672 -9.31445,-9.8432 z m 309.75781,109.20312 2.39062,5.50391 c 4.99583,-2.16959 10.53562,-5.72022 13.99024,-13.43555 3.24054,-7.23736 3.61178,-10.52154 7.84375,-17.31836 1.81382,-2.91309 3.99833,-4.13852 7.0664,-5.92578 3.06807,-1.78726 6.88546,-4.08927 10.23828,-8.7832 3.09185,-4.32861 4.6265,-7.13705 5.71094,-10.0586 1.08445,-2.92155 1.69859,-5.72426 3.27344,-10.58008 1.47707,-4.55427 3.26014,-7.05147 5.69336,-9.51562 2.43322,-2.46415 5.64343,-4.84712 9.47266,-8.53711 7.57279,-7.29742 9.0038,-11.37462 10.62109,-18.65234 0.92991,-4.18463 0.63495,-7.54393 0.0781,-9.84961 h 2e-5 l -3.94336,-2.05078 c 0.36558,1.51382 -1.26256,7.32508 -1.99023,10.59961 z m -79.04688,-37.1914 v 94.40234 l 38.09961,0.24219 0.81446,-3.71094 c 2.0943,-4.40381 4.80141,-8.40271 14.44726,-10.67188 10.54732,-2.4812 16.05387,-5.0221 22.58398,-12.34375 2.7767,-3.11326 5.77312,-4.86754 9.07227,-6.58007 3.29915,-1.71253 6.9272,-3.33964 10.32617,-6.2793 3.21282,-2.77864 5.10889,-5.22968 6.50977,-7.2207 1.40088,-1.99103 2.26903,-3.38035 3.61328,-4.61329 3.14109,-2.88096 4.99335,-4.37925 10.5957,-3.16015 l 0.63867,-2.93164 c -7.30451,-1.58949 -11.69209,-1.62918 -15.28906,1.66992 l -66.9043,47.8418 h -28.50781 v -80.68164 c 8.9419,-0.35074 19.31669,-3.76243 26.13242,-10.57813 7.51206,-7.51207 11.90345,-18.82116 8.72841,-31.48984 -3.17504,-12.66868 -9.24209,-19.53217 -19.31591,-23.43985 z m 50.76953,22.42773 5.08985,3.17578 c 4.18907,-6.7173 5.81728,-10.95057 5.94531,-17.73633 0.068,-3.60396 -0.68282,-6.15846 -1.47266,-7.92383 -0.78983,-1.76536 -1.28459,-2.54493 -1.36914,-3.13671 -0.0613,-0.42892 0.21761,-1.23924 1.02344,-3.04102 0.80584,-1.80178 1.873,-4.40411 1.95313,-7.84961 0.11581,-4.99699 -1.71137,-9.45663 -4.20704,-12.59375 l -4.82031,-0.4668 c 1.61715,2.03279 3.10593,9.52905 3.02735,12.91993 z m -155.46289,-35.10938 -5.30468,2.80079 c 5.21539,9.87918 17.03424,16.69486 27.94921,16.01562 l -0.37109,-5.98828 c -7.9332,0.49368 -18.37101,-5.43601 -22.27344,-12.82813 z m 255.45703,106.73243 5.78125,1.60937 c 0.8479,-3.0471 1.27718,-6.19693 1.27735,-9.35937 0,-5.31212 -1.15383,-11.19241 -4.10938,-16.30274 -2.95555,-5.11033 -7.88833,-9.41367 -14.83789,-10.91406 l -1.26562,5.86328 z m -324.53125,-2.18164 5.90235,1.0664 c 1.06114,-5.86726 0.56413,-13.10613 -2.00977,-19.56836 -2.57389,-6.46223 -7.54656,-12.29828 -15.20703,-13.82617 l -1.17383,5.88477 z m 290.70508,108.85351 -1.98047,5.66406 c 12.37375,4.32666 23.42047,1.45463 30.99414,-5.00781 7.57368,-6.46243 11.8711,-16.27054 11.8711,-25.98437 -1.8e-4,-1.72551 -0.15411,-3.44192 -0.4082,-5.14453 0.74042,0.0534 1.47056,0.24027 2.21289,0.24023 19.47458,-6.8e-4 34.88794,-17.99308 34.88867,-39.64063 8e-5,-6.03098 -1.41203,-12.59931 -4.25586,-18.21093 -2.84384,-5.61163 -7.26198,-10.42413 -13.39453,-11.91797 l -1.41993,5.83008 z m -369.52734,-43.6875 -4.66992,3.76758 c 5.18237,6.42674 11.03006,8.97713 15.77343,9.63086 2.37169,0.32686 4.4582,0.20945 6.08204,-0.0176 1.62383,-0.22701 2.93785,-0.59261 3.16601,-0.64258 l -1.28515,-5.85937 z m 172.36328,9.25977 h -94.29883 l -42.87109,36.99609 c 9.37192,7.44354 23.36724,7.64012 34.32422,1.82031 10.14876,-5.39052 17.51101,-17.72841 15.68359,-32.8164 h 79.59375 v 27.1875 c -3.19678,2.57474 -6.33332,6.57882 -7.16406,13.13476 -0.52122,4.11329 0.35015,7.64737 0.58594,10.62305 0.23578,2.97568 0.0916,5.22684 -1.92383,7.99609 -2.2544,3.09755 -4.66701,5.14814 -7.17969,7.55469 -2.51268,2.40655 -5.10684,5.22497 -6.98047,9.48047 -1.86472,4.23522 -1.8077,8.06973 -2.16992,11.03711 -0.36222,2.96738 -0.8422,5.02434 -3.58398,7.56445 -5.67767,5.26005 -7.24024,9.86719 -7.53516,18.23633 l 3.50976,-2.2793 c 1.10534,-4.55519 2.64688,-6.49941 8.10352,-11.55468 3.86118,-3.57716 5.03282,-7.731 5.46094,-11.23829 0.42812,-3.50728 0.41421,-6.41134 1.70703,-9.34765 1.46156,-3.31958 3.30595,-5.33028 5.63867,-7.56445 2.33272,-2.23419 5.17236,-4.63595 7.88086,-8.35743 2.97415,-4.08646 3.33771,-8.40364 3.05273,-12 -0.28497,-3.59635 -0.96282,-6.63799 -0.61328,-9.39648 0.74286,-5.8624 3.0611,-8.0505 5.90821,-10.00391 l 3.30273,-0.89453 z m 80.22656,0 v 115.38281 h 6 V 551.0918 h 23.83789 l -2.13672,1.41015 c 1.64687,2.49662 3.75241,4.33631 6.35157,5.51953 2.59916,1.18323 5.58219,1.84781 9.66406,2.71485 3.40548,0.72336 6.27841,1.4575 8.82617,2.44531 3.90197,1.51286 7.08001,3.56254 10.5918,7.5 6.36934,7.14137 8.85545,8.0761 17.96875,11.29102 4.05047,1.4289 5.90152,3.2759 7.29101,5.33398 1.37761,2.04045 2.12339,4.41104 3.63672,6.81445 1.19627,1.89982 2.79953,4.26981 5.74805,5.50196 2.94852,1.23215 6.5666,-0.23058 10.85547,-3.21875 l -0.83985,-2.87891 c -4.35335,1.27063 -6.54161,1.04788 -7.70312,0.5625 -1.16151,-0.48538 -1.88973,-1.42678 -2.98242,-3.16211 -0.90743,-1.44114 -1.81337,-4.11772 -3.74219,-6.97461 -1.94685,-2.88362 -5.11817,-5.82209 -10.26758,-7.63867 -9.20388,-3.24687 -9.35698,-2.74858 -15.48828,-9.62305 -4.05327,-4.54457 -8.26044,-7.30258 -12.90039,-9.10156 -3.02516,-1.17291 -6.21219,-1.96769 -9.74805,-2.71875 -4.02227,-0.85438 -6.68984,-1.51922 -8.42382,-2.30859 -0.93665,-0.4264 -1.62881,-0.88707 -2.25782,-1.46875 h 57.3086 l 2.65165,-6 z m -146.83398,46.62109 c -5.69844,-0.12926 -8.69973,5.0097 -15.21875,6.55859 -6.95362,1.65215 -12.18502,7.29263 -25.81055,-1.86718 l -0.97851,4.79687 c 2.24206,3.09785 5.87036,5.33586 10.22656,6.17774 5.78424,1.11786 14.13866,0.87023 20.4668,-4.55274 2.56807,-2.20077 4.57114,-3.61167 6.3125,-4.36719 1.74134,-0.75552 3.23927,-0.97269 5.41796,-0.69336 l 0.76172,-5.95312 c -0.40571,-0.0581 -0.79784,-0.091 -1.17773,-0.0996 z m 209.69084,-4.528 2.60408,10.28386 c 3.45502,1.74128 4.86267,3.79657 6.13477,6.33789 1.27209,2.54132 2.14525,5.66827 4.53515,8.53125 2.97729,3.56661 6.57375,5.17216 9.5293,6.72852 2.95555,1.55635 5.33241,2.97343 7.38086,6.21484 4.38386,6.93678 3.31781,12.14598 5.85937,19.28125 1.3616,3.8226 3.88134,6.35788 6.57618,8.43164 2.69482,2.07376 5.62124,3.87311 8.79882,6.71484 6.28158,5.61767 6.56794,8.89542 7.20899,15.8711 0.7353,8.00119 5.41773,10.98766 11.7539,14.50781 l 1.45703,-2.62305 c -5.00261,-2.77927 -6.59764,-5.50694 -7.23437,-12.43554 -0.65865,-7.16724 -1.92281,-13.29785 -9.18555,-19.79297 -3.59457,-3.21466 -6.81588,-5.20864 -9.13867,-6.9961 -2.32279,-1.78745 -3.69058,-3.18127 -4.58398,-5.68945 -1.96848,-5.52637 -1.12865,-12.06996 -6.44141,-20.47656 -2.79977,-4.43028 -6.49834,-6.65452 -9.6543,-8.31641 -3.15595,-1.66188 -5.70709,-2.85149 -7.7207,-5.26367 -1.35433,-1.62242 -2.21237,-4.25054 -3.77539,-7.37305 -1.56302,-3.1225 -9.3977,-11.56427 -14.10408,-13.9362 z m -184.93303,23.05144 c -4.11961,4.38797 -5.5214,8.81156 -6.5625,12.18945 -1.0411,3.37789 -1.64461,5.47009 -4.16602,7.45703 -2.60985,2.05664 -5.53718,2.94836 -8.91796,3.97461 -3.38078,1.02626 -7.23383,2.1975 -10.72266,5.20313 -3.49904,3.01445 -5.14927,6.68431 -6.38867,9.89843 -1.2394,3.21413 -2.15993,5.98759 -3.86719,8.14844 -4.11489,5.20818 -8.89135,7.01542 -16.50391,8.52149 -3.2152,0.6361 -6.00391,1.49647 -8.40429,3.42968 -2.40039,1.93322 -4.16307,4.68495 -5.97852,8.63282 -2.96755,6.45323 -6.69057,8.64202 -10.48242,9.69336 -1.57199,0.43583 -7.18648,2.76742 -8.39453,2.70312 l 2.32617,2.98633 c 0,0 5.37283,0.72861 7.66992,0.0918 5.11991,-1.41957 10.72563,-5.12433 14.33203,-12.9668 1.63715,-3.56013 2.95554,-5.39319 4.29102,-6.46875 1.33548,-1.07557 2.93939,-1.64797 5.80469,-2.21485 8.1089,-1.60425 14.8784,-4.14776 20.04687,-10.68945 2.55088,-3.22861 3.60758,-6.72607 4.75781,-9.70898 1.15024,-2.98291 2.30012,-5.43619 4.70704,-7.50977 2.41717,-2.0824 5.20405,-2.99189 8.55078,-4.00781 3.34673,-1.01592 7.23645,-2.12783 10.88867,-5.00586 3.907,-3.07884 5.14592,-7.03362 6.18359,-10.40039 1.03768,-3.36677 1.95102,-6.38552 5.20508,-9.85156 z m 165.40234,0.67383 -5.32812,2.75781 c 0.35338,0.68241 0.6857,1.30913 1.01953,1.9375 1.42119,3.22666 1.47222,6.85692 1.39844,11.74609 -0.091,6.03037 0.78563,9.35872 2.60351,12.83203 1.63903,3.13155 2.41436,4.65677 2.38282,9.64063 -0.022,3.4759 0.31295,11.1979 -0.88282,14.08203 l 4.09776,0.24735 c 1.43844,-3.46944 2.75783,-9.978 2.78506,-14.29032 0.0367,-5.7921 -1.33463,-9.15217 -3.06641,-12.46094 -1.55293,-2.96708 -2.00359,-4.41384 -1.91992,-9.96093 0.0746,-4.94342 0.14917,-9.62923 -1.92188,-14.30079 l -0.043,-0.0957 -0.0488,-0.0957 c -0.36314,-0.68367 -0.71309,-1.33792 -1.07618,-2.03906 z m -18.71875,55.13672 -0.27539,5.99414 c 2.4358,0.11245 5.86774,2.66694 8.52344,6.93164 2.6557,4.26469 4.44733,9.91766 4.48047,14.65039 0.11756,16.78183 -13.56151,30.34765 -30.36914,30.34765 -2.75073,-2.7e-4 -5.48738,-0.37416 -8.13672,-1.11132 l -4.80078,-1.33594 1.06641,4.86914 c 0.40494,1.84942 0.60752,3.72318 0.60742,5.60156 -5.9e-4,16.55324 -15.56645,30.34511 -35.31641,30.3457 -4.55881,7e-5 -9.97955,-1.06605 -14.23437,-2.95117 -4.25483,-1.88511 -7.05789,-4.51486 -7.66602,-6.99219 l -5.82812,1.43164 c 1.29324,5.26823 5.89048,8.75258 11.06445,11.04493 5.17397,2.29234 11.20992,3.46688 16.66406,3.46679 22.57184,-6.8e-4 41.31569,-16.06654 41.31641,-36.3457 4e-5,-0.83414 -0.2045,-1.6533 -0.26953,-2.48437 1.8309,0.2822 3.67666,0.46075 5.5332,0.46093 20.05047,0 36.50978,-16.31547 36.36914,-36.39062 -0.043,-6.1357 -2.14836,-12.57579 -5.38867,-17.7793 -3.24032,-5.20351 -7.70339,-9.4937 -13.33985,-9.7539 z m -129.59765,47.69726 -5.39844,2.61524 c 2.94541,6.07897 8.51792,10.00479 14.69336,11.95117 6.17544,1.94637 13.04005,2.02297 19.23438,0.33398 l -1.57813,-5.78906 c -5.03947,1.37409 -10.87548,1.30079 -15.85156,-0.26758 -4.97609,-1.56836 -9.00561,-4.52197 -11.09961,-8.84375 z"
       transform="scale(0.26458333)" />
    <path
       style="font-variation-settings:normal;vector-effect:none;fill:#cccccc;fill-opacity:1;stroke:none;stroke-width:0.132292;stroke-linecap:butt;stroke-linejoin:miter;stroke-miterlimit:10;stroke-dasharray:none;stroke-dashoffset:0;stroke-opacity:1;stop-color:#000000"
       d="m 51.686906,151.87487 c 1.584389,1.85632 3.220043,2.8813 6.023833,3.19783 4.663051,0 8.443412,-3.77985 8.443412,-8.44289 0,-0.55212 -0.05488,-1.0913 -0.156062,-1.61386 h 23.439395 l 0.338635,30.22025 c -6.052897,-1.02583 -9.583354,3.57003 -9.592254,6.86093 -0.0076,2.81739 0.100819,5.4344 2.316059,7.99566 1.562346,1.39954 3.625434,2.25154 5.888011,2.25154 0.799764,-3e-5 1.595768,-0.10859 2.366264,-0.32298 0.183637,3.27852 1.207278,5.99703 3.091802,8.14162 1.806011,1.44799 4.216987,2.33323 6.866249,2.33319 5.59882,-1.7e-4 10.13771,-3.95009 10.13788,-8.82271 3e-5,-0.55439 -0.0601,-1.10752 -0.17932,-1.6521 0.77031,0.21434 1.56616,0.3229 2.36575,0.32298 4.87602,0 8.82892,-3.95293 8.82892,-8.82892 0,-2.73459 -1.24353,-5.17856 -3.19567,-6.79803 -2.13297,-1.35446 -4.42301,-1.85777 -6.6828,-1.96682 v -29.73462 h 23.4394 c 0.44326,4.18716 1.08537,9.03238 8.28735,10.05675 4.66304,0 8.44289,-3.77986 8.44289,-8.44289 -8e-5,-0.76468 -0.10403,-1.52571 -0.30902,-2.2624 0.5208,0.11405 1.05008,0.17108 1.58026,0.17105 4.65981,-1.6e-4 8.43703,-4.34021 8.43721,-9.6945 5e-5,-2.93539 -1.13654,-5.56421 -2.93005,-7.34219 -3.11671,-2.10985 -5.07112,-2.08882 -7.08744,-2.18127 0.20504,-0.73685 0.30899,-1.49859 0.30903,-2.26343 0,-2.57392 -1.15317,-4.87688 -2.96933,-6.42545 -2.32869,-1.41368 -4.65049,-1.96105 -7.04822,-1.4448 -3.05958,0.65877 -7.07564,3.29391 -6.36015,9.91977 l -23.79196,-0.43513 2e-5,-23.61718 c 2.42767,0.11154 4.89191,-0.75936 6.74584,-2.613277 3.4974,-3.497408 3.4974,-9.167971 0,-12.665377 -0.0661,-0.06614 -0.13542,-0.127047 -0.20309,-0.190687 -2.73714,-1.333289 -5.50035,-2.133058 -7.78092,-2.277896 0.45007,-1.009949 0.69867,-2.104353 0.69867,-3.248898 0,-2.527255 -1.20145,-4.815719 -3.14453,-6.472222 -2.49042,-1.486704 -4.73366,-2.118288 -7.20522,-2.109086 -2.471559,0.0092 -5.242273,0.375907 -7.086139,1.878679 -3.687736,3.005548 -4.366934,6.895894 -2.833862,10.514973 -3.17483,-0.477806 -6.448001,0.537617 -8.398899,2.488514 -3.143514,3.143512 -3.001772,8.495353 0.141743,11.638862 1.571376,1.571369 3.257918,2.561085 6.514774,3.056445 l 0.361194,24.11798 -23.798472,-0.50082 c 0.101248,-0.52272 0.156062,-1.06208 0.156062,-1.61437 1.6e-5,-2.42817 -1.025141,-4.61826 -2.668572,-6.15983 -2.464532,-1.52203 -4.076652,-1.77744 -6.044419,-1.78122 -4.171241,-0.008 -7.698859,3.72863 -7.698859,7.89042 3.7e-5,0.68097 -0.0074,1.83859 0.480666,3.07069 -1.293093,-0.46244 -2.415096,-0.40346 -2.878352,-0.40358 -4.084915,1.5e-4 -7.409463,4.25143 -7.409391,9.17039 1.66e-4,4.9188 3.625754,9.31983 8.06138,9.6945 0.53018,3e-5 1.059468,-0.057 1.580264,-0.17105 0.06084,3.61939 0.525666,5.65114 2.110038,7.50746 z"
       id="path2843" />
    <path
       id="path3080"
       style="color:#000000;font-style:normal;font-variant:normal;font-weight:normal;font-stretch:normal;font-size:medium;line-height:normal;font-family:sans-serif;font-variant-ligatures:normal;font-variant-position:normal;font-variant-caps:normal;font-variant-numeric:normal;font-variant-alternates:normal;font-variant-east-asian:normal;font-feature-settings:normal;font-variation-settings:normal;text-indent:0;text-align:start;text-decoration:none;text-decoration-line:none;text-decoration-style:solid;text-decoration-color:#000000;letter-spacing:normal;word-spacing:normal;text-transform:none;writing-mode:lr-tb;direction:ltr;text-orientation:mixed;dominant-baseline:auto;baseline-shift:baseline;text-anchor:start;white-space:normal;shape-padding:0;shape-margin:0;inline-size:0;clip-rule:nonzero;display:inline;overflow:visible;visibility:visible;isolation:auto;mix-blend-mode:normal;color-interpolation:sRGB;color-interpolation-filters:linearRGB;solid-color:#000000;solid-opacity:1;vector-effect:none;fill:#ffffff;fill-opacity:1;fill-rule:nonzero;stroke:none;stroke-width:0.264583;stroke-linecap:butt;stroke-linejoin:miter;stroke-miterlimit:10;stroke-dasharray:none;stroke-dashoffset:0;stroke-opacity:1;paint-order:normal;color-rendering:auto;image-rendering:auto;shape-rendering:auto;text-rendering:auto;enable-background:accumulate;stop-color:#000000"
       d="m 100.7122,70.905747 c -5.928807,3e-6 -10.734746,4.097653 -10.734746,9.152414 0,1.144545 0.248078,2.238949 0.698148,3.248898 -2.805809,-0.523875 -5.813798,0.297855 -7.984527,2.468584 -3.497408,3.497405 -3.497408,9.167968 0,12.665376 1.853395,1.853391 4.31715,2.724231 6.744292,2.613281 -2.973374,-0.77884 -4.518175,-1.697687 -6.089552,-3.269056 -3.143514,-3.143509 -3.143514,-8.211867 0,-11.355379 1.950898,-1.950897 5.294937,-2.682838 8.469768,-2.205032 -1.533073,-3.61908 -1.279097,-7.155074 2.408639,-10.160622 3.687734,-3.005545 9.382378,-2.601013 14.079248,-0.478007 -1.94272,-1.656254 -4.62688,-2.680457 -7.59127,-2.680457 z m 11.62926,12.248349 c -0.53342,0.0036 -1.06658,0.05474 -1.59267,0.152963 -0.20787,0.371549 -0.31452,0.641776 -0.38964,0.880565 3.20563,-0.0994 5.67426,0.389671 8.17056,1.397331 -1.7367,-1.633286 -3.96343,-2.445837 -6.18825,-2.430859 z M 90.363475,100.96283 c -0.307149,0.0462 -0.616352,0.0772 -0.926041,0.0915 v 23.61716 H 65.998039 c -0.06104,0.31512 -0.138547,0.62447 -0.23358,0.92604 h 24.599016 z m -32.636766,13.65136 c -4.672777,-0.009 -8.458917,3.77985 -8.458917,8.4429 4.2e-5,0.76484 0.103989,1.52657 0.309025,2.26342 -0.520779,-0.11432 -1.050067,-0.17194 -1.580263,-0.17208 -4.659982,1.7e-4 -8.437287,4.34105 -8.437213,9.69553 1.82e-4,5.3543 3.777403,9.69434 8.437213,9.6945 -4.084833,-0.92592 -7.509971,-4.7757 -7.510137,-9.6945 -7.2e-5,-4.91896 3.424703,-8.76934 7.509618,-8.76949 0.463256,1.2e-4 1.635371,0.19171 2.778125,0.35347 -0.488042,-1.2321 -0.580805,-2.6904 -0.580842,-3.37137 0,-4.16179 3.360084,-7.52334 7.531325,-7.5153 1.967769,0.004 3.438093,0.25918 5.760886,1.35599 -1.504108,-1.41089 -3.525848,-2.27884 -5.75882,-2.28307 z m 85.954441,0 c -4.65046,0.0177 -8.41089,3.79241 -8.41086,8.4429 0,0.55225 0.0548,1.09169 0.15607,1.61437 h -23.4394 v 0.92604 h 24.64914 c -0.10722,-0.30024 -0.19519,-0.60933 -0.26406,-0.92604 -0.11312,-0.52012 -0.17467,-1.06005 -0.17467,-1.61489 -3e-5,-4.1506 3.44907,-6.78575 6.50865,-7.44451 2.39772,-0.51625 4.64865,0.10199 6.48125,1.01958 -1.47418,-1.25707 -3.38434,-2.01745 -5.47356,-2.01745 -0.0108,-2e-5 -0.0219,-2e-5 -0.0326,0 z m 9.74669,10.53424 c -0.5302,1.4e-4 -1.05948,0.0578 -1.58026,0.17208 l -0.45217,0.95395 c 2.63894,-0.53902 5.19968,0.0422 7.53959,1.22732 -1.47815,-1.4654 -3.4017,-2.35327 -5.50716,-2.35335 z M 49.576817,144.36741 c -0.204986,0.7367 -0.308943,1.49772 -0.309025,2.2624 0,4.66304 3.779856,8.44289 8.442896,8.44289 -2.603338,-0.86778 -4.088651,-1.69231 -5.673039,-3.54862 -1.584386,-1.85632 -2.309868,-4.19179 -1.568895,-6.90914 z m 39.860617,0.64854 v 29.73514 c -0.344377,-0.0408 -0.69419,-0.0641 -1.049549,-0.0641 -4.862891,-4e-5 -8.810318,3.93195 -8.828919,8.79481 -1.8e-5,0.0112 -1.8e-5,0.0223 0,0.0336 0,2.61342 1.136325,4.96085 2.940908,6.57738 -1.513658,-2.56126 -2.022983,-4.27623 -2.015382,-7.09363 0.0089,-3.2909 3.539358,-7.38562 7.902361,-7.38559 0.356547,0 0.706734,0.0259 1.050581,0.0713 0.314761,0.0416 0.624252,0.099 0.926041,0.17622 v -30.84515 z m 45.988926,0 c -0.10118,0.52253 -0.15607,1.06178 -0.15607,1.61386 0,4.66304 3.78037,8.44289 8.44342,8.44289 -4.16258,-0.92579 -7.51634,-4.28136 -7.51634,-8.44393 0,-0.55414 0.0613,-1.09338 0.17415,-1.61282 z m -22.38985,29.67054 c -0.35536,0 -0.70517,0.0233 -1.04955,0.0641 v 0.9338 c 0.34367,-0.0454 0.6937,-0.0713 1.05007,-0.0713 1.70766,0 3.40669,0.11481 5.63273,1.10433 -1.52862,-1.26803 -3.49195,-2.03089 -5.63325,-2.03089 z m -21.307226,16.82378 -0.975135,0.51108 c -0.119449,0.54456 -0.179687,1.09769 -0.179835,1.6521 9.5e-5,2.56707 1.260803,4.87727 3.271636,6.48952 -1.773515,-2.74574 -2.793553,-5.41866 -2.116666,-8.6527 z" />
    <path
       id="path4210"
       style="color:#000000;font-style:normal;font-variant:normal;font-weight:normal;font-stretch:normal;font-size:medium;line-height:normal;font-family:sans-serif;font-variant-ligatures:normal;font-variant-position:normal;font-variant-caps:normal;font-variant-numeric:normal;font-variant-alternates:normal;font-variant-east-asian:normal;font-feature-settings:normal;font-variation-settings:normal;text-indent:0;text-align:start;text-decoration:none;text-decoration-line:none;text-decoration-style:solid;text-decoration-color:#000000;letter-spacing:normal;word-spacing:normal;text-transform:none;writing-mode:lr-tb;direction:ltr;text-orientation:mixed;dominant-baseline:auto;baseline-shift:baseline;text-anchor:start;white-space:normal;shape-padding:0;shape-margin:0;inline-size:0;clip-rule:nonzero;display:inline;overflow:visible;visibility:visible;isolation:auto;mix-blend-mode:normal;color-interpolation:sRGB;color-interpolation-filters:linearRGB;solid-color:#000000;solid-opacity:1;vector-effect:none;fill:#808080;fill-opacity:1;fill-rule:nonzero;stroke:none;stroke-width:0.264583;stroke-linecap:butt;stroke-linejoin:miter;stroke-miterlimit:10;stroke-dasharray:none;stroke-dashoffset:0;stroke-opacity:1;paint-order:normal;color-rendering:auto;image-rendering:auto;shape-rendering:auto;text-rendering:auto;enable-background:accumulate;stop-color:#000000"
       d="m 108.04508,73.889028 c -0.22682,0.527579 0.44104,1.131205 0.7705,1.534273 1.08594,1.328577 1.70584,2.921482 1.70584,4.635376 0,1.010454 -0.21865,1.97258 -0.61908,2.871145 -0.1578,0.466277 -0.30419,0.926652 0.0925,1.115692 l 0.3917,-0.900718 c 0.4288,-0.962213 0.66404,-1.999041 0.66404,-3.086119 0,-2.401588 -1.13864,-4.578051 -3.0055,-6.169649 z m 10.40815,12.167735 c -0.21909,0.595918 0.34476,1.1684 0.63459,1.601967 2.08706,3.122123 1.75045,7.366309 -1.00976,10.126514 -1.91494,1.914943 -4.5439,2.660846 -7.01714,2.242756 v 25.5695 h 0.52917 v -24.97109 c 2.45147,0.23286 4.98327,-0.58613 6.86314,-2.465995 3.34575,-3.34573 3.34574,-8.757917 0,-12.103652 z m 29.9979,30.659797 c 0.5184,0.78216 1.24069,1.75546 1.51542,2.16559 0.79898,1.19273 1.26401,2.62569 1.26401,4.17442 -4e-5,0.68097 -0.0929,1.35987 -0.27544,2.0159 -0.1601,0.56184 -0.14751,0.88845 0.12816,1.12758 0.12119,-0.2802 0.20062,-0.49362 0.38137,-0.98702 0.1954,-0.70221 0.29504,-1.42757 0.29508,-2.15646 0,-1.71115 -0.5332,-3.29474 -1.44238,-4.59748 -0.27236,-0.39027 -1.07959,-1.30657 -1.86622,-1.74253 z m -85.03898,0.65819 c -0.167413,0.58549 0.260646,1.07395 0.526581,1.46606 0.815025,1.20171 1.289855,2.65047 1.289844,4.21576 -5e-6,0.89268 -0.155231,1.74763 -0.438732,2.54093 h 0.557072 c 0.265213,-0.7988 0.410827,-1.65241 0.410827,-2.54093 1.6e-5,-2.21844 -0.894101,-4.22504 -2.345592,-5.68182 z m 94.867,10.20048 c 0.42355,0.89079 0.95855,1.69486 1.19484,2.06854 0.91556,1.44792 1.46557,3.24525 1.46554,5.20019 -1.6e-4,4.91876 -3.42691,8.76936 -7.51169,8.7695 -0.46333,2e-5 -0.92666,-0.0505 -1.38286,-0.15038 -0.4918,-0.13052 -0.8833,-0.19834 -1.32498,-0.15297 -0.0138,0.43515 0.1208,0.87022 0.23512,1.30535 0.18251,0.6559 0.27537,1.33249 0.27544,2.01331 0,3.65338 -2.58459,6.68515 -6.03115,7.37216 -0.48038,0.0958 -1.36732,0.1788 -1.48674,0.6749 4.44855,0 8.04706,-3.59851 8.04706,-8.04706 -8e-5,-0.72874 -0.0997,-1.45233 -0.29508,-2.15439 l -0.10077,-0.56172 0.56793,0.0677 c 0.49311,0.10799 0.9945,0.16229 1.49603,0.16226 4.41337,-1.5e-4 8.04069,-4.13103 8.04085,-9.29866 4e-5,-2.09049 -0.59808,-4.01673 -1.60032,-5.56534 -0.23643,-0.36532 -0.95601,-1.31203 -1.58922,-1.70339 z m -93.489823,16.51468 0.0026,0.003 c 0.282435,0.79179 0.436666,1.64536 0.436666,2.53628 0,3.43435 -2.283826,6.31909 -5.420858,7.22333 -0.665141,0.19172 -1.864926,0.46937 -2.097029,0.82372 4.44858,0 8.047053,-3.59851 8.047053,-8.04705 0,-0.69501 -0.09312,-1.36705 -0.258897,-2.0097 h 24.864631 v -0.52916 H 64.790941 Z m 46.271593,0 v 31.77067 c 0.17385,-0.0445 0.35084,-0.0809 0.52917,-0.11369 v -31.12781 h 24.8791 c 0.0493,-0.17897 0.10404,-0.35589 0.16588,-0.52917 z m 6.68467,32.61167 c 0.71884,0.84694 1.56988,1.98659 1.85693,2.41358 0.84466,1.25643 1.33687,2.7674 1.33687,4.40025 0,4.37553 -3.52681,7.90236 -7.90236,7.90236 -0.71571,-7e-5 -1.42767,-0.097 -2.11719,-0.28887 -0.44695,-0.13355 -0.89405,-0.2563 -1.341,-0.27027 -0.0612,0.51498 0.0634,0.93732 0.18655,1.36012 0.1051,0.48 0.15867,0.96767 0.15865,1.45521 -1.5e-4,4.29759 -4.04805,7.89608 -9.21133,7.89616 -1.933008,3e-5 -3.719081,-0.51226 -5.190894,-1.37563 -0.493951,-0.28974 -1.125019,-0.89517 -1.717207,-0.58135 1.759244,1.53099 4.201919,2.48671 6.908101,2.48667 5.41216,-1.6e-4 9.74033,-3.79968 9.7405,-8.42585 2e-5,-0.52574 -0.0568,-1.05147 -0.17002,-1.56838 l -0.1049,-0.57205 0.59893,0.1049 c 0.73569,0.20471 1.49617,0.30894 2.25981,0.30902 4.66153,0 8.43152,-3.77053 8.43152,-8.43204 0,-1.76361 -0.54066,-3.39815 -1.46503,-4.75045 -0.29713,-0.43468 -1.53593,-1.89256 -2.25793,-2.06338 z m -35.004906,12.66929 c -0.117231,-0.008 -0.225327,0.0215 -0.314708,0.10748 1.526325,1.52631 3.630117,2.4691 5.960877,2.4691 0.763638,-3e-5 1.525127,-0.10435 2.260843,-0.30902 l 1.043863,-0.38706 c -0.218037,-0.28145 -0.829691,-0.26747 -1.185457,-0.12247 -0.68969,0.1919 -1.403387,0.28884 -2.119249,0.28887 -1.717839,0 -3.300463,-0.54454 -4.594035,-1.47123 -0.265403,-0.19012 -0.700436,-0.55174 -1.052134,-0.57567 z" />
    <path
       id="path4601"
       style="font-variation-settings:normal;opacity:1;vector-effect:none;fill:#bf9f4f;fill-opacity:1;stroke:none;stroke-width:0.500001;stroke-linecap:butt;stroke-linejoin:miter;stroke-miterlimit:10;stroke-dasharray:none;stroke-dashoffset:0;stroke-opacity:1;stop-color:#000000;stop-opacity:1"
       d="m 572.76758,309.54102 c -4.01268,4.1064 -7.06421,8.50851 -14.95117,12.15625 -8.97385,4.15042 -15.34138,4.85881 -20.47266,12.76953 -5.13128,7.91071 -6.03487,17.07366 -15.67773,22.29687 -9.64286,5.22321 -16.67857,5.44095 -24.1875,11.99805 -7.50894,6.55709 -5.92035,8.40971 -11.83985,20.33398 -3.57037,7.19222 -4.28681,10.10123 -12.0664,13.7168 4.10347,-6.58004 5.36929,-9.79515 5.49023,-16.20508 0.12094,-6.40993 -2.41217,-7.77786 -2.8125,-10.58008 -0.44443,-3.11096 2.81271,-5.59872 2.94727,-11.38476 0.0972,-4.19393 -1.49828,-8.07129 -3.55469,-10.65625 -1.52536,6.83835 -3.83793,9.18012 -8.1543,14.28711 -4.92805,5.83066 -3.34585,11.52185 -6.93164,19.66601 -3.78754,8.60243 -10.35085,10.40875 -14.58789,16.23047 -4.25987,5.85302 -3.18473,14.13727 -5.42187,21.91406 -2.0668,7.1847 -6.00439,10.65688 -14.72071,15.36914 v 26.98829 h 30.63672 c 2.29708,-4.83016 6.08745,-9.86056 16.46875,-12.30274 10.38127,-2.44214 14.78289,-4.412 21.0332,-11.41992 6.25032,-7.00792 13.66593,-7.93676 19.67383,-13.13281 6.00794,-5.19602 6.68956,-8.68533 10.0586,-11.77539 3.36903,-3.09003 6.80828,-5.28515 13.26171,-3.88086 -1.74999,-2.45072 -3.81227,-4.25086 -8.75586,-4.78321 -4.96516,-0.53465 -9.91887,0.0753 -15.06054,4.13086 -5.14167,4.05563 -10.23763,5.18742 -12.64258,3.46289 4.71046,-2.04566 9.31585,-4.91663 12.44727,-11.91015 3.13137,-6.99353 3.61552,-10.57952 8.03515,-17.67774 4.41967,-7.09821 11.38336,-6.4297 17.41016,-14.86718 6.02676,-8.4375 5.358,-9.9096 8.57226,-19.82032 3.2143,-9.91071 8.57143,-12.18889 15.9375,-19.28711 7.36608,-7.09821 8.16823,-9.91043 9.77539,-17.14257 0.82879,-3.72958 0.55094,-6.58439 0.0898,-8.49414 z"
       transform="scale(0.26458333)" />
    <path
       id="path4616"
       style="font-variation-settings:normal;opacity:1;vector-effect:none;fill:#bf9f4f;fill-opacity:1;stroke:none;stroke-width:0.500001;stroke-linecap:butt;stroke-linejoin:miter;stroke-miterlimit:10;stroke-dasharray:none;stroke-dashoffset:0;stroke-opacity:1;stop-color:#000000;stop-opacity:1"
       d="m 461.17802,611.89677 c 8.98352,8.5147 4.76495,13.81144 11.19336,18.87722 6.26207,4.93467 13.63305,3.87375 19.53906,8.96178 5.90596,5.08804 5.6032,12.24336 9.86133,17.63282 4.64167,5.87493 8.80639,8.18422 16.66713,9.73939 6.0805,1.20298 10.3291,3.88964 13.31055,10.37304 2.83842,6.17242 6.11315,9.1766 10.13169,11.46401 4.84195,2.75607 11.61495,1.14286 11.61495,1.14286 -5.6694,-3.14971 -8.0796,-7.3183 -8.76562,-14.7832 -0.64985,-7.07146 -1.42511,-11.77564 -8.19727,-17.83203 -6.77215,-6.05639 -12.29381,-7.58524 -14.54882,-13.91602 -2.25502,-6.33082 -1.30209,-12.20722 -6.1504,-19.87891 -4.84822,-7.67168 -12.15167,-7.28292 -17.14257,-13.26171 -3.74423,-4.4854 -3.46165,-11.51374 -11.62305,-15.62696 l 0.78153,-1.36104 c 5.32742,-0.73816 10.55461,3.35508 14.87918,7.0611 4.32461,3.70601 11.47133,4.27587 16.60631,3.28348 0.70737,-0.1367 3.09395,-0.46084 5.29939,-1.62612 2.19195,-1.51089 3.7088,-3.54547 4.25781,-5.74218 -9.39984,2.74356 -11.7755,-0.24571 -14.06446,-3.88086 -1.21039,-1.92228 -2.03624,-4.44586 -3.68945,-6.89453 -3.28805,-3.18093 -5.65044,-4.75701 -10.52874,-6.47797 -8.1586,-2.87811 -10.42422,-4.32356 -15.78264,-10.33146 -3.16793,-3.55192 -6.60877,-6.41293 -10.94252,-8.43471 -2.78646,-1.08036 -5.81644,-1.84483 -9.28711,-2.58204 -9.91153,-1.25334 -13.07321,-3.64506 -16.13477,-6.95312 h -22.63672 v 27.03711 c 2.83912,2.67071 7.3704,7.17953 8.17159,13.50251 0.91246,7.20079 -2.92753,12.64097 1.56334,18.81139 4.4668,6.13742 10.50659,8.90343 13.8418,16.47851 3.15753,7.17154 0.25974,14.28005 6.86272,20.39732 6.0566,5.6111 7.42492,8.19041 10.2168,13.27707 1.31711,-3.17679 2.15315,-6.61566 2.17774,-10.50977 0.0341,-5.38798 -1.03921,-7.83062 -2.72461,-11.05078 -1.68541,-3.2202 -2.34903,-5.60776 -2.26172,-11.39649 0.0743,-4.92359 0.0883,-9.08635 -1.66406,-13.03906 -0.36228,-0.68205 -0.71702,-1.3484 -1.08985,-2.06836 z"
       transform="scale(0.26458333)" />
    <path
       id="path4653"
       style="font-variation-settings:normal;opacity:1;vector-effect:none;fill:#bf9f4f;fill-opacity:1;stroke:none;stroke-width:0.500001;stroke-linecap:butt;stroke-linejoin:miter;stroke-miterlimit:10;stroke-dasharray:none;stroke-dashoffset:0;stroke-opacity:1;stop-color:#000000;stop-opacity:1"
       d="m 247.69537,414.44561 c -4.9577,-3.61897 -11.0835,-4.07509 -15.42529,-2.89072 -2.97087,0.8104 -5.77592,1.61454 -5.89313,4.04277 5.16761,-0.56356 8.22199,1.46788 11.21485,4.21289 3.36903,3.09006 4.0487,6.57937 10.05664,11.77539 6.0079,5.19605 13.42546,6.12489 19.67578,13.13281 6.25032,7.00792 10.65194,8.97778 21.0332,11.41992 10.38131,2.44218 14.17167,7.47258 16.46875,12.30274 h 30.63672 v -28.83985 c -5.96001,-2.58629 -11.08903,-6.10992 -13.32617,-13.88672 -2.23714,-7.77679 -0.76038,-15.36693 -5.75,-22.22265 -4.9629,-6.81903 -11.12457,-8.14366 -14.91211,-16.7461 -3.58579,-8.14416 -1.46342,-14.54871 -8.06641,-20.66601 -5.12926,-4.75196 -6.06121,-7.98513 -5.75781,-11.4375 -3.15092,1.58342 -4.78577,5.1394 -4.69501,9.05298 0.13455,5.78604 3.73142,8.16861 3.13666,12.33178 -0.53573,3.75001 -3.65884,7.05998 -2.73432,13.33599 0.92451,6.27599 4.35908,13.44917 4.35908,13.44917 -4.34529,-4.05562 -8.51477,-9.1626 -10.98242,-15.66992 -3.18894,-8.40949 -5.48134,-13.66557 -12.99024,-20.22266 -7.50894,-6.55709 -13.3923,-5.62444 -23.03516,-10.84765 -9.64286,-5.22322 -8.5714,-11.78656 -15,-21.69727 -6.42856,-9.91071 -15.0014,-10.71345 -23.9746,-14.86523 -5.5294,-2.55838 -8.8659,-6.79094 -10.61719,-9.66602 -1.5642,0.93623 -2.03673,2.71802 -1.83364,5.90479 0.34089,5.34893 2.00727,11.18534 8.37334,17.31992 6.36607,6.13457 14.04903,9.37444 17.26333,19.28515 3.21426,9.91072 2.1667,11.57223 8.19346,20.00972 6.02679,8.43747 10.40996,7.30898 16.52729,13.82798 5.63055,6.00026 6.55323,15.24894 12.50551,26.63486 2.58989,2.91134 5.59285,4.58962 8.64258,5.91406 -4.54215,0.7105 -8.136,-0.67557 -13.09369,-4.29462 z"
       transform="scale(0.26458333)" />
    <path
       id="path4727"
       style="font-variation-settings:normal;opacity:1;vector-effect:none;fill:#f5e4bc;fill-opacity:1;stroke:none;stroke-width:0.500001;stroke-linecap:butt;stroke-linejoin:miter;stroke-miterlimit:10;stroke-dasharray:none;stroke-dashoffset:0;stroke-opacity:1;stop-color:#000000;stop-opacity:1"
       d="m 571.74023,306.78516 c 0,0 -3.21429,8.57282 -12.1875,12.72461 -8.9732,4.15178 -17.54409,4.95452 -23.97265,14.86523 -6.4286,9.91071 -5.35714,16.47405 -15,21.69727 -9.64286,5.22321 -15.52622,4.29056 -23.03516,10.84765 -7.5089,6.55709 -9.80325,11.81317 -12.99219,20.22266 -2.46765,6.50732 -6.63518,11.6143 -10.98046,15.66992 -3.26983,3.00587 -5.72025,6.66727 -6.47191,11.68767 3.35707,-5.47636 5.57217,-7.67867 9.24852,-10.63011 3.67635,-2.95144 7.2044,-7.15789 9.6687,-12.12201 5.91947,-11.92427 4.08873,-14.98764 12.59765,-22.41797 8.50893,-7.43034 14.73214,-6.96429 24.375,-12.1875 9.64286,-5.22321 9.60115,-13.24944 14.73243,-21.16016 5.13127,-7.91071 13.39334,-9.37692 22.36718,-13.52734 7.79331,-3.60442 10.25523,-7.62428 12.67774,-12.91406 -0.43303,-1.79351 -1.02735,-2.75586 -1.02735,-2.75586 z m -98.57031,44.86718 c 0.99209,4.75689 1.27825,8.34351 -5.28906,14.42774 -6.60299,6.1173 -4.48257,12.52185 -8.06836,20.66601 -3.78754,8.60244 -9.94921,9.92707 -14.91211,16.7461 -4.98962,6.85572 -3.51091,14.44586 -5.74805,22.22265 -2.23714,7.7768 -7.36616,11.30043 -13.32617,13.88672 v 1.85156 c 8.30127,-1.5541 13.58354,-7.48723 15.65821,-14.69921 2.23714,-7.7768 1.42958,-16.46144 5.68945,-22.31446 4.23704,-5.82172 10.93511,-7.76475 14.72265,-16.36718 3.58579,-8.14417 2.00359,-13.7006 6.93164,-19.53125 4.31443,-5.10465 7.42827,-8.52508 6.81446,-14.55469 -0.78066,-0.98132 -1.62504,-1.7812 -2.47266,-2.33399 z m 52.37696,58.45313 c -3.88447,-0.0419 -8.75582,0.57291 -12.33204,3.28711 -4.76829,3.61893 -7.3577,4.94585 -12.71484,5.34765 -3.40653,1.11251 -6.01855,1.7128 -8.82031,3.81055 -2.80177,2.09775 -4.36952,4.16269 -4.38086,8.2832 1.76757,-2.66736 5.16833,-6.80012 11.55078,-8.67382 6.38245,-1.8737 9.81341,-2.06938 14.95508,-6.125 5.14167,-4.05566 9.2321,-4.55223 14.19726,-4.01758 4.94359,0.53234 7.07309,1.93012 8.95703,3.91211 -0.9369,-3.21309 -3.99565,-5.1923 -7.9414,-5.61719 -0.99075,-0.10669 -2.17588,-0.19308 -3.4707,-0.20703 z"
       transform="scale(0.26458333)" />
    <path
       style="font-variation-settings:normal;opacity:1;vector-effect:none;fill:#f5e4bc;fill-opacity:1;stroke:none;stroke-width:0.264583;stroke-linecap:butt;stroke-linejoin:miter;stroke-miterlimit:10;stroke-dasharray:none;stroke-dashoffset:0;stroke-opacity:1;stop-color:#000000;stop-opacity:1"
       d="m 133.55125,111.81889 c -1.38006,0.62926 -3.24483,1.81209 -4.30973,2.95667 0.66923,-1.72916 2.31216,-2.86127 4.30973,-2.95667 z m 6.46459,-2.35531 c -1.02272,0.12559 -1.95102,0.43638 -2.66855,0.88378 -0.64428,0.39617 -1.50428,0.94716 -2.443,1.12074 0.82062,-0.50047 1.39975,-1.12082 2.15088,-1.60068 0.84254,-0.53108 1.88937,-0.66898 2.96067,-0.40384 z m -11.37567,-4.25961 c -0.256,1.06898 -1.04825,1.92878 -1.89073,2.49192 -0.73541,0.50288 -1.6711,1.16476 -2.26866,2.06836 0.28771,-1.08965 1.0923,-1.96422 1.95991,-2.53925 0.72076,-0.4885 1.63705,-1.12631 2.19948,-2.02103 z m 9.12057,-9.922384 c -1.55899,1.26355 -3.37446,1.810185 -4.73247,2.925177 -1.09419,0.885681 -2.11906,2.157067 -2.78449,3.739857 0.33832,-1.66591 1.20619,-3.140101 2.43089,-4.173566 1.42156,-1.184103 3.25128,-1.528113 5.08607,-2.491468 z m 12.27769,-10.623969 c -1.00993,1.331296 -2.82328,1.98768 -4.15539,2.633728 -0.75355,0.374718 -1.49306,0.786401 -2.02823,1.37457 -0.48517,0.518288 -0.81753,1.18725 -1.17387,1.898734 -0.49796,1.009137 -1.15752,2.110365 -2.11387,2.912869 0.80612,-0.921627 1.30307,-2.046933 1.71935,-3.089662 0,0 0,0 0,-10e-7 0.28833,-0.731422 0.61359,-1.471894 1.15875,-2.095541 0.60971,-0.681015 1.40741,-1.125923 2.22177,-1.474337 0,10e-7 0,0 0,0 1.32789,-0.584519 3.20755,-1.036662 4.37149,-2.16036 z m -33.0579,30.401903 c -0.46366,1.72941 -2.15815,2.92876 -4.10927,2.80634 1.40415,-0.48441 3.1816,-1.60314 4.10927,-2.80634 z m 5.86323,-12.02712 c -0.18096,1.30467 -1.32327,2.33435 -2.21388,3.1253 -1.10909,1.00722 -1.87574,2.38236 -2.14082,3.87889 0,0 0,0 0,0 -0.21499,1.226 -0.37529,2.88551 -1.15774,4.12091 0.55758,-1.30474 0.51259,-2.88313 0.66828,-4.19457 0.19008,-1.60417 1.01102,-3.12227 2.33132,-4.16168 0,0 0,0 0,0 0.90653,-0.72833 2.13229,-1.53226 2.51284,-2.76885 z m 3.25734,-8.168425 c 0.0624,1.124151 -0.39667,2.205511 -1.06116,3.022074 -0.60033,0.744372 -1.28024,1.722394 -1.64494,2.841151 0.004,-1.203272 0.49299,-2.336253 1.21402,-3.202686 0.57073,-0.690839 1.21252,-1.595005 1.49208,-2.660539 z"
       id="path4758" />
    <path
       id="path4771"
       style="font-variation-settings:normal;opacity:1;vector-effect:none;fill:#7d5a12;fill-opacity:1;stroke:none;stroke-width:0.264583;stroke-linecap:butt;stroke-linejoin:miter;stroke-miterlimit:10;stroke-dasharray:none;stroke-dashoffset:0;stroke-opacity:1;stop-color:#000000;stop-opacity:1"
       d="m 150.89035,84.056261 c -0.039,1.364974 -0.41358,1.94277 -1.02095,2.858627 -0.60736,0.915857 -1.35513,1.599512 -2.88796,2.745557 -1.53283,1.146044 -2.9642,3.237364 -3.30516,4.865676 -0.34096,1.628312 -0.54114,2.717821 -1.22556,3.739456 -0.68442,1.021636 -1.7399,1.705914 -2.79226,2.194693 -1.05236,0.48878 -1.96524,1.35925 -2.56197,2.40467 -0.59673,1.04542 -0.94573,2.13086 -1.37977,3.22971 -0.43405,1.09886 -0.86971,1.97188 -1.61022,2.81607 -0.74052,0.84419 -1.60617,1.34217 -2.60137,1.77545 -0.9952,0.43328 -2.23706,1.0346 -2.85149,2.17516 0.0421,-1.51757 1.62026,-2.25117 2.60169,-2.76526 0.98142,-0.51408 1.6087,-0.85785 2.27044,-1.53214 0.66174,-0.67428 1.10371,-1.39086 1.524,-2.50016 0.42029,-1.1093 0.83106,-2.19856 1.45787,-3.37911 0.6268,-1.18055 1.77301,-2.29874 2.87873,-2.839918 1.10571,-0.541173 1.82181,-1.191867 2.3779,-2.011379 0.55609,-0.819512 0.7453,-1.683207 1.16523,-3.385133 0.41992,-1.701925 1.57002,-3.700721 3.32606,-4.889829 1.75604,-1.189107 2.56666,-2.068355 3.22734,-2.803891 0.66068,-0.735536 1.13073,-1.675029 1.40745,-2.698249 z m -26.2804,35.573969 c 2.21453,-0.40555 3.72041,-1.24449 4.95929,-2.61486 1.23888,-1.37036 2.23464,-2.32859 3.46114,-2.66216 1.22651,-0.33357 2.01722,-0.78399 2.51696,-1.15847 0.49974,-0.37448 0.79227,-0.83038 1.33153,-1.50974 0.53927,-0.67936 1.1186,-1.45407 2.56902,-1.737 -1.12396,0.54926 -1.49761,1.01302 -1.91987,1.59553 -0.42226,0.58252 -1.03956,1.58038 -1.66962,2.08124 -0.63006,0.50086 -1.49921,1.04914 -2.62936,1.40959 -1.13014,0.36046 -1.80425,0.98689 -3.23923,2.5276 -1.43498,1.54071 -2.86916,2.35086 -5.08659,2.74116 -2.21743,0.39029 -3.57176,1.17366 -4.89894,3.31028 0.56304,-2.75607 2.39113,-3.57762 4.60567,-3.98317 z m 1.39094,-22.42765 c -0.71152,1.245604 -0.86041,2.07079 -0.25657,3.74829 0.60384,1.67751 0.28425,3.52567 -1.11409,4.82917 -1.39829,1.30351 -1.90091,2.1406 -2.05171,3.93109 -0.6565,-2.03125 0.40064,-3.11243 1.57495,-4.33156 1.17431,-1.21913 1.61182,-2.73691 1.03329,-4.40325 -0.57853,-1.666346 -0.22026,-2.6878 0.81413,-3.77374 z m -2.04235,9.9235 c -0.67248,0.71618 -1.06102,1.90826 -0.79271,2.60587 0.16993,-0.79304 0.57866,-1.77831 1.1486,-2.38099 0.56995,-0.60268 0.90466,-1.06476 1.03192,-1.62393 -0.36029,0.52546 -0.71533,0.68287 -1.38781,1.39905 z" />
    <path
       id="path4836"
       style="font-variation-settings:normal;opacity:1;vector-effect:none;fill:#7d5a12;fill-opacity:1;stroke:none;stroke-width:0.264583;stroke-linecap:butt;stroke-linejoin:miter;stroke-miterlimit:10;stroke-dasharray:none;stroke-dashoffset:0;stroke-opacity:1;stop-color:#000000;stop-opacity:1"
       d="m 64.348801,111.25881 c 0.742629,1.39973 2.584363,2.49549 3.737779,3.15104 1.153417,0.65556 2.10466,1.02371 3.691439,2.63528 1.58678,1.61157 3.555316,2.27036 5.231172,2.70932 1.675856,0.43896 3.683004,1.0868 4.033305,3.82275 -0.772459,-1.39534 -2.045615,-2.79685 -4.162922,-3.21909 -2.117307,-0.42224 -3.681907,-0.78742 -5.308171,-2.4295 -1.626263,-1.64208 -2.767002,-2.41448 -4.339194,-3.1938 -1.572191,-0.77931 -2.487955,-1.78476 -3.287818,-3.2334 -0.799863,-1.44864 -2.141835,-1.69682 -2.972901,-1.89713 1.348309,-0.0708 2.634682,0.2548 3.377311,1.65453 z m 5.840265,-1.38478 c 1.673155,0.38902 3.138338,1.32892 3.248256,2.70183 -0.995307,-1.57519 -2.110379,-1.78062 -3.786766,-2.2705 -1.676387,-0.48988 -2.63026,-0.58889 -3.241613,-2.80028 1.236507,1.861 2.106969,1.97993 3.780123,2.36895 z M 55.848086,85.840776 c 2.319009,0.893357 3.880265,2.809281 4.560233,4.568382 0.679968,1.759101 1.306318,3.271345 3.318121,4.450109 -2.366786,-0.858547 -2.815417,-1.639523 -3.928569,-4.202631 -1.113152,-2.563108 -2.636712,-3.815986 -4.866504,-4.696044 -2.229793,-0.880058 -3.576358,-1.65125 -3.966046,-2.900663 1.428341,1.726912 2.563755,1.88749 4.882765,2.780847 z M 72.51569,102.05363 c 0.82611,2.12114 1.919534,4.29947 4.24002,5.5229 -3.054254,-0.72703 -3.837533,-2.93942 -4.836285,-5.29247 -0.998751,-2.353045 -1.736251,-4.137728 -4.194076,-6.01438 2.363473,0.72509 3.964231,3.662812 4.790341,5.78395 z m 11.628344,11.67775 c -0.721799,-1.97696 -0.223001,-3.91787 -1.331396,-5.76428 -1.108395,-1.8464 -2.986333,-2.97242 -3.945442,-4.58594 -0.959109,-1.61352 -0.585951,-4.113595 -1.420042,-5.227161 -0.83409,-1.113565 -1.777182,-1.831676 -1.508354,-3.021551 0.433256,1.579585 1.324258,1.872777 2.149506,3.192794 0.825248,1.320017 0.422962,3.029058 1.418736,4.714658 0.995774,1.6856 3.107827,2.84167 4.129451,4.75173 1.021624,1.91007 0.578011,3.80769 1.142902,5.59571 0.564892,1.78803 1.670351,2.42878 3.549929,3.52614 -1.690475,-4.2e-4 -3.463491,-1.20514 -4.18529,-3.1821 z" />
    <path
       id="path4951"
       style="font-variation-settings:normal;opacity:1;vector-effect:none;fill:#f5e4bc;fill-opacity:1;stroke:none;stroke-width:0.999999;stroke-linecap:butt;stroke-linejoin:miter;stroke-miterlimit:10;stroke-dasharray:none;stroke-dashoffset:0;stroke-opacity:1;stop-color:#000000;stop-opacity:1"
       transform="scale(0.26458333)"
       d="m 210.76544,340.41356 c 4.43136,4.0113 7.5016,8.86816 8.43183,15.65871 0.74087,-5.49962 -1.33879,-12.50886 -6.84078,-17.10265 -5.50199,-4.59379 -12.11534,-8.75413 -19.86137,-20.96516 2.35827,10.85546 13.83897,18.39779 18.27032,22.4091 z m 45.12826,26.64057 c -3.43153,-4.06515 -11.60812,-6.77015 -17.18471,-6.52219 5.89688,2.03226 11.26291,4.5383 17.18471,6.52219 z m 30.80357,0.80329 c 2.55447,4.83776 2.70589,8.91019 0.65234,14.87717 -2.05356,5.96697 -0.13914,12.85238 4.43555,17.53299 -2.83662,-6.10609 -3.77137,-10.87576 -2.24825,-17.17684 1.52311,-6.30107 1.66,-11.24267 -2.83964,-15.23332 z m -53.15635,8.82373 c 6.00419,3.40128 10.63864,7.62109 13.65909,12.9748 2.82008,4.99855 5.02159,12.63662 5.02159,12.63662 0,0 0.3994,-6.63671 -3.03526,-13.91787 -3.22381,-6.83418 -9.70436,-10.14469 -14.55362,-13.21308 -4.84927,-3.0684 -9.66969,-6.24115 -9.66969,-6.24115 0,0 2.5737,4.35939 8.57789,7.76068 z m 22.94443,47.46185 c 6.74549,1.09577 14.77719,6.30779 17.88965,9.07129 -2.86367,-6.74801 -10.94168,-10.31501 -17.88965,-9.07129 z M 189.54688,306.78516 c 0,0 -2.54464,4.01785 -0.9375,11.25 1.60716,7.23214 2.41127,10.04436 9.77734,17.14257 7.36607,7.09822 12.7232,9.3764 15.9375,19.28711 3.21426,9.91072 2.54551,11.38282 8.57226,19.82032 6.0268,8.43748 12.99049,7.76897 17.41016,14.86718 4.41963,7.09822 4.90378,10.68421 8.03516,17.67774 1.10402,2.46565 2.39436,4.41072 3.80468,5.99609 -5.95228,-11.38592 -5.54913,-21.01341 -11.17968,-27.01367 -6.11733,-6.519 -10.3111,-4.8223 -16.33789,-13.25977 -6.02676,-8.43749 -5.35801,-9.90959 -8.57227,-19.82031 -3.2143,-9.91071 -9.57143,-13.15058 -15.9375,-19.28515 -6.36607,-6.13458 -8.34705,-10.57255 -9.50976,-15.80469 -0.5819,-2.61856 -0.10937,-5.53677 0.50781,-7.79883 -1.09074,-1.79065 -1.57031,-3.05859 -1.57031,-3.05859 z m 98.57226,44.86718 c -3.08039,2.00893 -6.16152,7.2042 -6.02734,12.99024 0.13455,5.78604 3.3917,8.2738 2.94726,11.38476 -0.40033,2.80222 -2.93344,4.17015 -2.8125,10.58008 0.12095,6.40993 1.38677,9.62504 5.49024,16.20508 1.63289,1.69144 2.63086,2.4702 4.41211,3.34766 -4.10347,-6.4461 -6.71026,-10.33144 -7.63477,-16.60743 -0.92452,-6.27601 2.00919,-9.77538 2.54492,-13.52539 0.59476,-4.16317 -2.81271,-5.59872 -2.94726,-11.38476 -0.0908,-3.91358 1.54409,-7.46956 3.55859,-10 0.0851,-0.96792 0.25151,-1.94862 0.46875,-2.99024 z m -52.37695,58.45313 c -1.29483,0.0139 -2.47996,0.10034 -3.47071,0.20703 -3.94575,0.42489 -7.00449,2.4041 -7.9414,5.61719 0.72056,-0.1568 1.39735,-0.2612 2.04687,-0.33203 2.39005,-2.23883 4.91485,-2.95546 7.97657,-3.28516 3.96298,-0.42675 8.57355,-0.34944 13.53125,3.26953 4.95769,3.61905 8.17299,4.92174 13.85156,5.34766 5.67857,0.42591 9.74197,1.25053 16.37109,10.7207 0,0 -1.24167,-5.32169 -4.73437,-8.52344 -3.42013,-3.13523 -5.65918,-3.46999 -12.58399,-4.38672 -5.35714,-0.4018 -7.94655,-1.72872 -12.71484,-5.34765 -3.57622,-2.7142 -8.44756,-3.32896 -12.33203,-3.28711 z" />
    <path
       id="path5020"
       style="font-variation-settings:normal;opacity:1;vector-effect:none;fill:#bf9f4f;fill-opacity:1;stroke:none;stroke-width:0.500001;stroke-linecap:butt;stroke-linejoin:miter;stroke-miterlimit:10;stroke-dasharray:none;stroke-dashoffset:0;stroke-opacity:1;stop-color:#000000;stop-opacity:1"
       d="m 301.42212,614.28906 c -2.85623,4.58003 -2.84125,9.3187 -2.75391,15.10742 0.0873,5.78873 -1.14647,8.17629 -2.83188,11.39649 -1.6854,3.22016 -2.7587,5.6628 -2.72461,11.05078 0.0226,3.58541 1.43317,7.56485 3.99375,9.07617 1.23633,-5.09504 3.41332,-7.89117 8.98047,-13.04883 6.60298,-6.11727 3.3034,-12.42221 6.46094,-19.59375 3.3352,-7.57508 8.87694,-9.65949 13.83984,-16.47851 4.98962,-6.85572 1.01791,-13.13603 1.88867,-20.00781 0.84352,-6.65677 3.96084,-9.88775 7.1875,-12.10157 v -28.83984 h -22.0293 c -5.33068,4.55548 -8.8129,6.8036 -16.25741,8.38491 -8.79039,1.86717 -14.78289,3.87489 -21.03321,10.88282 -6.25031,7.00792 -7.19111,7.03674 -16.3497,10.26763 -9.15863,3.23093 -10.037,9.52085 -12.46875,13.38281 -1.99506,3.16841 -7.48953,4.71936 -13.47882,5.67363 1.73066,2.39125 4.68787,4.28149 8.36524,4.99218 5.13498,0.99239 12.62266,0.67822 17.94726,-3.88476 5.32456,-4.56299 8.83931,-6.42946 14.0625,-5.75977 l -0.14258,1.17823 c -6.59261,4.30545 -7.06207,11.39512 -10.80629,15.88052 -4.99091,5.97879 -11.91555,5.02182 -16.76377,12.6935 -4.8483,7.67169 -3.89538,13.54809 -6.15039,19.87891 -2.25502,6.33078 -8.15744,8.61724 -14.92959,14.67363 -6.77216,6.05639 -7.54742,10.76057 -8.19727,17.83203 -0.59902,6.5182 -2.51174,9.76575 -5.43589,13.91006 1.47492,0.0785 3.25882,-0.0242 5.19336,-0.56055 4.45588,-1.23545 9.12122,-4.18223 12.4082,-11.33008 3.4526,-7.50799 6.15778,-9.17006 12.23829,-10.37304 7.86073,-1.55517 13.63371,-3.73054 18.27539,-9.60547 4.25813,-5.38946 3.95536,-12.54478 9.86132,-17.63282 5.90601,-5.08803 13.27699,-4.16103 19.53907,-9.0957 6.42841,-5.06578 3.68492,-12.09521 11.05859,-19.94922 z"
       transform="scale(0.26458333)" />
    <path
       id="path878"
       style="font-variation-settings:normal;opacity:1;vector-effect:none;fill:#f5e4bc;fill-opacity:1;stroke:none;stroke-width:0.500001;stroke-linecap:butt;stroke-linejoin:miter;stroke-miterlimit:10;stroke-dasharray:none;stroke-dashoffset:0;stroke-opacity:1;stop-color:#000000;stop-opacity:1"
       d="m 448.46289,550.84961 c 2.83279,4.29445 5.35204,6.57098 16.13477,6.95312 -8.10414,-1.72142 -11.30198,-2.65867 -14.13477,-6.95312 z m 25.42188,9.53516 c 3.79804,2.15571 6.82816,5.42854 9.99609,8.98046 5.35842,6.0079 8.03476,7.30939 16.19336,10.1875 4.8783,1.72096 8.44604,3.83275 11.06445,6.07618 -1.66817,-2.47085 -4.17934,-4.86359 -8.77929,-6.48633 -9.15859,-3.23089 -10.4782,-3.44911 -16.72852,-10.45703 -3.78253,-4.24102 -7.47513,-6.64486 -11.74609,-8.30078 z m -48.0586,17.50195 v 1.80273 c 3.22666,2.21382 6.34399,5.4448 7.1875,12.10157 0.87077,6.87178 -3.1029,13.15209 1.88672,20.00781 4.9629,6.81902 10.50659,8.90343 13.8418,16.47851 3.15753,7.17154 -0.14205,13.47648 6.46093,19.59375 6.56731,6.08425 8.42347,8.86759 9.57422,16.03516 0.63128,-1.15112 1.19981,-2.33404 1.70508,-3.55273 -1.18474,-6.02416 -3.2227,-8.87133 -9.2793,-14.48243 -6.60298,-6.11727 -3.3034,-12.42221 -6.46093,-19.59375 -3.33521,-7.57508 -9.375,-10.34109 -13.8418,-16.47851 -4.49087,-6.17042 -0.78481,-10.80702 -1.69727,-18.00781 -0.80119,-6.32298 -4.66283,-12.03716 -9.37695,-13.9043 z m 54.7461,9.38281 c 0.23697,3.4105 2.04399,5.58963 6.49609,7.51953 5.22319,-0.66969 8.73794,1.19678 14.0625,5.75977 5.3246,4.56298 12.81033,4.87715 17.94531,3.88476 2.126,-0.41087 4.00987,-1.21958 5.5586,-2.28711 -0.5983,0.22778 -1.24381,0.41799 -1.95118,0.55469 -5.13498,0.99239 -15.22812,0.69039 -19.55273,-3.01562 -4.32457,-3.70602 -8.61426,-7.12962 -12.73633,-7.46289 -4.12206,-0.33336 -6.40085,-1.15157 -9.82226,-4.95313 z m -20.59961,20.60938 c -0.18407,1.47023 0.39424,2.93992 0.94726,4.41015 7.37367,7.85401 4.63019,14.88344 11.0586,19.94922 6.26207,4.93467 13.63305,4.00767 19.53906,9.0957 5.90596,5.08804 5.6032,12.24336 9.86133,17.63282 4.64167,5.87493 10.41465,8.0503 18.27539,9.60547 6.0805,1.20298 8.78568,2.86505 12.23828,10.37304 3.28698,7.14785 7.95233,10.09463 12.4082,11.33008 5.10981,1.41679 9.19531,-0.1875 9.19531,-0.1875 0,0 -6.10336,0.94357 -10.94531,-1.8125 -4.01854,-2.28741 -7.4272,-5.15766 -10.26562,-11.33008 -2.98145,-6.4834 -7.23005,-9.17006 -13.31055,-10.37304 -7.86074,-1.55517 -10.95403,-3.73054 -15.5957,-9.60547 -4.25813,-5.38946 -3.95537,-12.54478 -9.86133,-17.63282 -5.90601,-5.08803 -13.27699,-4.16103 -19.53906,-9.0957 -6.42841,-5.06578 -5.02234,-13.84467 -14.00586,-22.35937 z"
       transform="scale(0.26458333)" />
    <path
       id="path912"
       style="font-variation-settings:normal;opacity:1;vector-effect:none;fill:#f5e4bc;fill-opacity:1;stroke:none;stroke-width:0.999999;stroke-linecap:butt;stroke-linejoin:miter;stroke-miterlimit:10;stroke-dasharray:none;stroke-dashoffset:0;stroke-opacity:1;stop-color:#000000;stop-opacity:1"
       d="m 439.35449,594.0232 c -0.53689,6.1212 0.18119,16.35566 6.65915,18.61742 -3.92519,-5.42778 -4.87171,-10.15715 -4.74484,-16.94449 0.12688,-6.78734 -0.91059,-15.53129 -7.09404,-16.02816 4.33542,4.25174 5.71663,8.23403 5.17973,14.35523 z m 30.93179,23.67308 c 2.28674,6.93903 3.47489,12.69224 12.73491,13.79191 -4.96417,-3.06467 -8.43024,-6.70653 -10.46493,-13.20465 -2.03469,-6.49812 -4.12283,-10.5087 -9.06212,-12.53843 3.35513,3.81106 4.5054,5.01214 6.79214,11.95117 z m 35.4481,-0.005 c -3.41327,-1.93004 -6.02415,-3.43713 -9.24512,-5.31739 2.08359,3.07017 5.65419,5.59163 9.24512,5.31739 z m -45.79493,29.59705 c -2.68302,-4.90718 -3.17842,-10.24669 -3.9868,-15.00805 -0.80839,-4.76137 -1.92977,-8.94459 -5.86474,-11.5392 3.87825,7.64935 4.18554,12.48844 4.60106,16.31406 0.41552,3.82561 0.93928,6.63775 5.25048,10.23319 z m 42.69922,1.4967 c 1.78073,6.38227 4.82728,11.44926 9.24414,10.99218 -5.05179,-3.00202 -4.69302,-5.43021 -7.16992,-11.98046 -2.4769,-6.55025 -6.52524,-10.50614 -9.87403,-10.49805 3.65573,1.54576 6.01908,5.10406 7.79981,11.48633 z m 35.01367,30.54101 c -2.13797,-5.83782 -5.6283,-13.26977 -13.46582,-13.93847 7.25248,3.49014 10.19906,8.72937 13.46582,13.93847 z"
       transform="scale(0.26458333)" />
    <path
       id="path925"
       style="font-variation-settings:normal;opacity:1;vector-effect:none;fill:#7d5a12;fill-opacity:1;stroke:none;stroke-width:0.999999;stroke-linecap:butt;stroke-linejoin:miter;stroke-miterlimit:10;stroke-dasharray:none;stroke-dashoffset:0;stroke-opacity:1;stop-color:#000000;stop-opacity:1"
       d="m 505.25567,584.1738 c -5.45577,-4.70766 -12.54938,-5.08621 -16.54336,-8.82652 -3.99398,-3.74032 -7.14265,-7.10583 -12.80941,-11.07353 -5.66677,-3.96769 -13.04209,-5.24948 -19.49834,-6.506 -6.45625,-1.25653 -9.62926,-5.81659 -9.62926,-5.81659 0,0 2.12697,6.19377 8.60034,7.79884 6.47338,1.60507 14.68119,2.98529 19.13878,5.96909 4.45758,2.98381 8.51948,6.9915 12.63753,11.32158 4.11805,4.33007 11.71017,3.89446 16.80318,8.9084 5.09301,5.01394 6.05433,12.13642 17.39927,13.17884 -8.57662,-1.60589 -10.64296,-10.24645 -16.09873,-14.95411 z m -26.02129,9.1719 c 2.11553,4.28649 7.63576,6.52116 10.88476,9.22657 3.249,2.70541 4.03157,5.86134 5.97852,8.47656 -0.5093,-3.50632 -2.0011,-6.5963 -4.77149,-9.70899 -2.77039,-3.11269 -8.04758,-5.2898 -10.43359,-8.92578 -2.38601,-3.63598 -3.23211,-9.30762 -7.90625,-9.82519 3.78707,2.5542 4.13252,6.47034 6.24805,10.75683 z m -20.52521,22.54156 c 1.61632,9.05403 0.36963,15.92064 3.367,21.5561 2.99737,5.63546 4.20194,11.81051 3.78711,17.28125 0.35414,-0.29715 2.4719,-7.6035 -1.44746,-16.36568 -3.91936,-8.76218 -1.95601,-15.37224 -3.53091,-22.88378 -1.5749,-7.51154 -3.45101,-13.24571 -9.22086,-19.65972 3.66886,6.8796 5.4288,11.0178 7.04512,20.07183 z M 507.05664,618.5 c 6.55602,4.11489 6.36027,7.91358 7.55859,14.64844 1.19832,6.73486 3.66365,13.69751 9.2461,16.14258 -0.17276,-0.67102 -6.06406,-7.50337 -6.95703,-16.4961 -0.89297,-8.99273 -3.1621,-11.7407 -9.84766,-14.29492 z m 19.30078,33.21875 c 6.81955,6.09841 11.76525,9.32669 13.16004,17.14804 1.39479,7.82135 2.76256,17.71848 10.04699,19.56094 -6.36922,-7.1897 -5.96948,-11.19957 -7.84833,-20.28351 -1.87885,-9.08394 -9.08994,-12.97519 -15.3587,-16.42547 z"
       transform="scale(0.26458333)" />
    <path
       id="path942"
       style="font-variation-settings:normal;opacity:1;vector-effect:none;fill:#f5e4bc;fill-opacity:1;stroke:none;stroke-width:0.500001;stroke-linecap:butt;stroke-linejoin:miter;stroke-miterlimit:10;stroke-dasharray:none;stroke-dashoffset:0;stroke-opacity:1;stop-color:#000000;stop-opacity:1"
       d="m 310.82617,550.84961 c -2.83279,4.29445 -6.03063,5.2317 -14.13476,6.95312 -8.79039,1.86717 -14.78289,3.87489 -21.03321,10.88282 -6.25031,7.00792 -7.56992,7.22614 -16.72851,10.45703 -9.15863,3.23093 -10.037,9.5189 -12.46875,13.38086 -2.28896,3.63515 -4.66657,6.62442 -14.06641,3.88086 0.26595,1.06413 0.76519,2.08928 1.45117,3.03711 7.50452,1.12917 12.62018,-1.74761 14.61524,-4.91602 2.43175,-3.86196 3.31012,-10.15188 12.46875,-13.38281 9.15859,-3.23089 10.4782,-3.44911 16.72851,-10.45703 6.25032,-7.00793 12.24282,-9.01565 21.03321,-10.88282 7.44451,-1.58131 11.87375,-3.64003 14.74218,-8.95312 z m -48.22851,59.56641 c -4.99091,5.97879 -12.29436,5.59003 -17.14258,13.26171 -4.8483,7.67169 -3.89538,13.54809 -6.15039,19.87891 -2.25502,6.33078 -7.77863,7.85963 -14.55078,13.91602 -6.77216,6.05639 -7.54742,10.76057 -8.19727,17.83203 -0.68602,7.4649 -3.09427,11.63349 -8.76367,14.7832 0,0 1.58109,0.61917 4.00195,0.74805 4.24998,-3.00789 6.1627,-7.01305 6.76172,-13.53125 0.64985,-7.07146 1.42511,-11.77564 8.19727,-17.83203 6.77215,-6.05639 12.29576,-7.58524 14.55078,-13.91602 2.25501,-6.33082 1.30209,-12.20722 6.15039,-19.87891 4.84822,-7.67168 12.15167,-7.28292 17.14258,-13.26171 3.74422,-4.4854 2.88785,-10.24924 9.48046,-14.55469 6.59262,-4.30549 14.8994,-4.10783 17.6769,-17.28766 -4.44861,8.26212 -9.30827,10.44591 -17.53725,14.21735 -8.15855,4.11361 -7.87675,11.14064 -11.62011,15.625 z m 43.98632,-12.53711 c -1.59492,9.09585 -3.92753,11.54572 -6.21484,14.41015 -2.85623,4.58003 -2.84125,9.3187 -2.75391,15.10742 0.0873,5.78873 -0.57826,8.17629 -2.26367,11.39649 -1.6854,3.22016 -2.7587,5.6628 -2.72461,11.05078 0.034,5.38798 1.60794,9.91073 3.88477,14.0625 0.17525,-1.09158 0.37164,-2.07098 0.59375,-2.98633 -1.61356,-2.64774 -2.45588,-5.49076 -2.47852,-9.07617 -0.0341,-5.38798 1.03921,-7.83062 2.72461,-11.05078 1.68541,-3.2202 2.35098,-5.60776 2.26367,-11.39649 -0.0873,-5.78872 -0.10232,-10.52739 2.75391,-15.10742 3.87715,-5.12027 4.66587,-8.4654 4.21484,-16.41015 z"
       transform="scale(0.26458333)" />
    <path
       id="path1000"
       style="font-variation-settings:normal;opacity:1;vector-effect:none;fill:#f5e4bc;fill-opacity:1;stroke:none;stroke-width:0.999999;stroke-linecap:butt;stroke-linejoin:miter;stroke-miterlimit:10;stroke-dasharray:none;stroke-dashoffset:0;stroke-opacity:1;stop-color:#000000;stop-opacity:1"
       d="m 295.05273,562.32031 c -5.52822,1.10661 -10.49581,3.14941 -13.33398,8.19531 4.16978,-2.80699 7.99627,-4.89677 13.58203,-5.21093 5.58576,-0.31416 16.52835,-4.13913 16.70899,-9.11426 -5.18539,5.12531 -11.42882,5.02327 -16.95704,6.12988 z m -41.85742,28.42578 c -2.85177,5.76428 -5.94693,8.38858 -9.44364,9.92634 4.82914,0.10935 8.74216,-3.11887 12.21931,-9.11244 3.47715,-5.99358 7.47551,-7.85287 12.36788,-10.59515 -8.54866,0.40214 -12.29178,4.01697 -15.14355,9.78125 z m 34.26953,0.74414 c -3.99724,2.84329 -7.41402,4.28582 -9.34797,6.51796 5.02947,-0.37027 9.26551,-2.01684 12.50032,-5.27772 3.23481,-3.26088 4.40213,-6.5945 3.03808,-9.53613 -1.54242,2.7616 -2.19319,5.4526 -6.19043,8.29589 z m 21.66406,7.47754 c -0.23803,6.61687 -1.94171,10.06672 -4.55371,16.35254 5.41677,-4.49367 7.50127,-9.32679 4.55371,-16.35254 z M 259.27448,622.297 c 5.03601,-2.47625 10.48068,-6.33909 9.00188,-11.67883 -2.43755,5.49677 -6.50565,7.5318 -11.25766,9.93983 -4.75201,2.40804 -10.89761,6.3497 -10.1603,12.71055 3.07437,-5.79607 7.38008,-8.49529 12.41608,-10.97155 z m 41.88777,8.53405 c 0.20164,6.82232 -1.93383,10.79599 -4.27065,17.39552 4.69405,-4.87837 6.82329,-9.42981 4.27065,-17.39552 z m -70.59572,29.01952 c -5.47035,4.00867 -10.50845,8.62342 -7.97571,17.17384 1.19658,-8.08907 5.4461,-12.78612 10.88372,-16.42932 5.43762,-3.6432 9.51989,-7.95107 9.96784,-13.98181 -2.22287,4.9923 -7.4055,9.22862 -12.87585,13.23729 z"
       transform="scale(0.26458333)" />
    <path
       id="path1014"
       style="font-variation-settings:normal;opacity:1;vector-effect:none;fill:#7d5a12;fill-opacity:1;stroke:none;stroke-width:0.999999;stroke-linecap:butt;stroke-linejoin:miter;stroke-miterlimit:10;stroke-dasharray:none;stroke-dashoffset:0;stroke-opacity:1;stop-color:#000000;stop-opacity:1"
       d="m 302.73828,647.66992 c 1.87585,-1.71307 4.94826,-4.74082 5.82813,-8.91992 1.03517,-5.07511 3.0229,-14.90748 9.15625,-19.70117 0,0 0.37677,-0.34671 1.13476,-0.87305 1.47155,-1.03472 6.5751,-5.26289 7.8524,-10.34291 1.07083,-4.83867 0.45988,-8.17849 0.29883,-13.19029 -0.17212,-5.57265 1.2411,-12.42084 7.31404,-17.10324 -8.65462,2.67106 -10.07272,10.19464 -10.23089,17.10324 -0.0842,3.30349 0.31574,9.46828 -0.83008,13.59961 -0.69048,2.85278 -3.04728,5.18513 -6.1875,7.38867 -2.06763,1.46608 -3.84203,3.29784 -5.3457,5.48437 0,0 -1.28486,1.81485 -2.54297,4.98047 -1.37022,3.44773 -2.28751,7.39301 -2.93164,12.26758 -0.3377,3.03783 -2.58623,5.76369 -4.71875,8.10352 -4.35292,4.62795 -5.32998,8.62904 -4.72852,9.07031 1.23838,-2.42682 2.56946,-4.73657 5.93164,-7.86719 z m -31.18276,-56.54687 c -7.06629,1.3584 -10.69903,2.79635 -15.2101,7.44838 -4.51107,4.65203 -12.44076,3.83512 -16.03519,3.79042 4.74746,2.32549 12.11674,2.13202 17.37867,-1.98573 5.26193,-4.11775 7.13046,-5.89715 13.17048,-6.6264 6.04002,-0.72925 14.02945,-2.98338 17.1748,-11.9841 -3.77575,5.49897 -9.41237,7.99903 -16.47866,9.35743 z m 18.64858,25.43554 c 4.67423,-6.94249 11.16645,-11.85266 12.05859,-21.97363 -2.34956,6.59693 -11.65704,14.16134 -12.05859,21.97363 z m 6.86371,-5.42438 c -4.03924,5.00666 -4.86823,10.58378 -7.2994,13.98242 -2.43116,3.39863 -8.01403,6.41833 -16.1501,8.92215 -8.13607,2.50382 -10.32272,5.87858 -13.62026,14.95145 -3.29754,9.07287 -6.889,12.40116 -14.9336,14.125 -8.0446,1.72384 -15.56919,4.64484 -18.06166,11.62277 -2.49247,6.97793 -4.63923,10.30761 -7.08971,12.61258 2.70355,-1.2325 4.01537,-1.62462 7.74512,-9.90527 3.72975,-8.28065 9.08633,-9.91928 17.9961,-11.96679 8.90977,-2.04751 14.46428,-6.51873 17.15039,-15.38282 2.68611,-8.86409 6.27841,-11.93217 11.92132,-13.82115 5.6429,-1.88898 13.01822,-3.33797 16.20591,-7.76171 3.18768,-4.42374 3.85796,-11.02699 8.61384,-16.93974 4.75588,-5.91275 5.36975,-10.51647 4.89271,-13.82017 -0.68971,2.81792 -3.33142,8.37461 -7.37066,13.38128 z"
       transform="scale(0.26458333)" />
  </g>
</svg>
