<?xml version="1.0" encoding="UTF-8" standalone="no"?>
<svg
   xmlns:dc="http://purl.org/dc/elements/1.1/"
   xmlns:cc="http://creativecommons.org/ns#"
   xmlns:rdf="http://www.w3.org/1999/02/22-rdf-syntax-ns#"
   xmlns:svg="http://www.w3.org/2000/svg"
   xmlns="http://www.w3.org/2000/svg"
   width="500"
   height="562"
   viewBox="0 0 132.29166 148.69584"
   version="1.1"
   id="svg847">
  <defs
     id="defs841" />
  <metadata
     id="metadata844">
    <rdf:RDF>
      <cc:Work
         rdf:about="">
        <dc:format>image/svg+xml</dc:format>
        <dc:type
           rdf:resource="http://purl.org/dc/dcmitype/StillImage" />
        <dc:title></dc:title>
      </cc:Work>
    </rdf:RDF>
  </metadata>
  <g
     id="layer1"
     transform="translate(-298.94095,-22.851544)">
    <path
       style="font-variation-settings:normal;opacity:1;vector-effect:none;fill:#000000;fill-opacity:1;stroke:none;stroke-width:0.132292;stroke-linecap:butt;stroke-linejoin:miter;stroke-miterlimit:4;stroke-dasharray:none;stroke-dashoffset:0;stroke-opacity:1;stop-color:#000000;stop-opacity:1"
       d="m 431.23262,22.851544 c 0,0 -1.19504,49.199464 -2.03284,83.692196 -0.83781,34.49273 -21.66177,65.00364 -64.113,65.00364 -42.45122,0 -63.27517,-30.51091 -64.11298,-65.00364 -0.83781,-34.492732 -2.03285,-83.692196 -2.03285,-83.692196 z"
       id="path1432" />
    <path
       id="circle1908"
       style="opacity:1;fill:#cccccc;fill-opacity:1;stroke:none;stroke-width:0.264583;paint-order:fill markers stroke"
       d="m 365.08664,66.01547 c -0.23593,0.329546 -0.33092,0.870625 -0.4318,1.823994 -0.1003,0.947339 -5.29869,53.555796 -5.39891,54.227506 -0.43355,-4.15091 -2.11455,-5.93229 -1.96418,-9.68815 0.15447,-3.85912 -0.28756,-6.10474 -2.44373,-10.98848 -2.15612,-4.883723 0.76409,-11.078986 -1.3657,-15.943562 -2.12979,-4.86458 -2.25972,-6.488519 -1.72468,-10.98847 0.53503,-4.499948 -3.47411,-8.024681 -5.39054,-7.972045 2.29991,2.729143 2.6241,5.036558 1.00621,12.065685 -1.61787,7.029129 2.73096,8.76214 1.1498,16.949569 -1.58118,8.187423 2.01614,12.085793 0.77247,17.395743 -1.0586,4.51981 -0.47603,8.97136 -0.30135,10.2087 -0.23194,-0.69701 -15.30452,-51.241957 -15.59245,-52.149527 -0.28995,-0.91386 -0.49151,-1.425274 -0.7887,-1.700927 -0.16513,0.370088 -0.14989,0.9195 -0.0577,1.873743 0.0916,0.947438 6.63079,53.143041 6.62417,53.918541 -1.2764,-3.96199 -3.25712,-5.3966 -3.81622,-9.10688 -0.57555,-3.81914 -1.43286,-5.94115 -4.47081,-10.33176 -3.03787,-4.39062 -1.33763,-11.025317 -4.34604,-15.402083 -3.00844,-4.376766 -3.44234,-5.946757 -3.76489,-10.466879 -0.30239,-4.237614 -4.36514,-6.881843 -6.41452,-6.856074 -0.13663,0.0016 -0.26451,0.01507 -0.38152,0.04085 2.77306,2.247528 3.52605,4.452533 3.26178,11.660357 -0.26432,7.207815 4.33365,8.091586 4.3235,16.430069 -0.0102,8.33848 4.25814,11.49012 4.03739,16.93909 -0.18728,4.62285 1.2122,8.8695 1.54548,10.09611 -0.80341,-1.23398 -26.33255,-47.204991 -26.8111,-48.020801 -0.48515,-0.827076 -0.79471,-1.281035 -1.14559,-1.484122 -0.079,0.397427 0.0577,0.929522 0.35898,1.839703 0.30039,0.907616 18.21623,51.16133 18.20335,51.49912 -2.02885,-3.63621 -4.24698,-4.66769 -5.5032,-8.203 -1.2933,-3.63955 -2.53947,-5.55951 -6.35898,-9.29121 -3.6033,-3.52042 -3.44894,-9.80329 -6.60007,-13.62993 0.0601,2.47334 0.0817,3.36023 0.13888,5.71602 0.0986,4.06088 0.4799,8.06512 1.13932,11.97089 1.86493,3.15299 3.93672,5.31068 4.45192,8.68792 0.69967,4.58669 2.89537,8.4993 3.44939,9.62585 -0.20985,-0.21664 -2.04454,-2.37604 -4.49332,-5.26983 3.70744,10.21825 9.68643,19.23834 17.99999,26.07162 12.20609,-6.66969 26.21094,-10.46321 41.10334,-10.46321 14.89244,0 28.89726,3.79352 41.10335,10.46321 8.33465,-6.85059 14.32354,-15.89891 18.02886,-26.14912 -2.48755,2.92823 -4.35004,5.10627 -4.57194,5.31853 1.81215,-3.75819 1.3969,-6.16921 3.59351,-9.21527 2.25955,-3.13341 3.13084,-5.2495 4.02899,-10.51139 0.16335,-0.95702 0.49215,-1.85701 0.92394,-2.72159 0.29866,-2.57134 0.48061,-5.17771 0.5445,-7.80761 0.0315,-1.29564 0.0441,-1.80968 0.0765,-3.14368 -0.66337,1.60803 -1.66051,3.32779 -3.56834,5.27403 -5.83925,5.95676 -4.99144,11.19148 -8.96046,14.93443 -3.36989,3.1779 -5.33969,7.19672 -5.92401,8.31819 0.0402,-0.3146 17.95585,-50.566362 18.25629,-51.47397 0.30124,-0.910181 0.43744,-1.442276 0.35845,-1.839703 -0.35088,0.203087 -0.66045,0.657046 -1.1456,1.484122 -0.47855,0.81581 -26.00769,46.786831 -26.81581,48.019231 1.11033,-4.00924 0.24814,-6.29622 1.82533,-9.69968 1.62409,-3.50466 2.07803,-5.74821 1.96155,-11.08483 -0.11642,-5.3366 4.95913,-9.938755 4.85964,-15.247588 -0.0995,-5.308832 0.40352,-6.858229 2.62503,-10.808844 2.22159,-3.950611 -0.12751,-8.74241 -1.91752,-9.428411 1.07628,3.401966 0.48992,5.657153 -3.70253,11.528386 -4.19246,5.871227 -0.84132,9.138352 -5.44449,16.093344 -4.60318,6.954983 -2.77747,11.934463 -5.96437,16.361463 -2.70708,3.76044 -3.87843,8.08213 -4.26849,9.28388 -0.003,-0.77444 6.53736,-52.97005 6.62888,-53.917488 0.0923,-0.954246 0.10795,-1.503655 -0.0571,-1.873743 -0.29719,0.275653 -0.49878,0.787067 -0.78873,1.700927 -0.28796,0.907691 -15.365,51.465494 -15.60295,52.147954 0.41456,-4.14665 -0.86549,-6.23095 0.0425,-9.87302 0.93421,-3.74767 0.95702,-6.0359 -0.16351,-11.25502 -1.12054,-5.219114 2.99622,-10.694592 1.89761,-15.889629 -1.09861,-5.195032 -0.89656,-6.811332 0.54032,-11.109438 1.43691,-4.298108 -1.77379,-8.561736 -3.6611,-8.898443 1.69844,3.138405 1.5477,5.463165 -1.46267,12.018555 -3.01039,6.555389 0.89675,9.133616 -2.31268,16.830688 -3.20949,7.697057 -0.47769,12.243267 -2.77282,17.190987 -1.96153,4.22836 -2.29004,8.72259 -2.36876,9.94685 -0.0913,-0.68394 -5.28922,-53.279232 -5.38949,-54.226453 -0.10089,-0.953369 -0.19585,-1.494448 -0.43184,-1.823994 z" />
    <path
       id="circle1908-2"
       style="opacity:1;fill:#ffffff;fill-opacity:1;stroke:none;stroke-width:0.264583;paint-order:fill markers stroke"
       d="m 365.08663,66.01547 c -0.23593,0.329546 -0.33092,0.870625 -0.4318,1.823994 -0.1003,0.947339 -5.29869,53.555796 -5.39891,54.227506 l 1.07328,0.53626 c 0,0 5.07483,-51.030112 5.32029,-53.439892 -0.008,-0.08267 -0.12858,-1.300834 -0.13102,-1.323874 -0.10089,-0.953369 -0.19585,-1.494448 -0.43184,-1.823994 z m 14.73826,0.06337 c 1.69844,3.138405 1.5477,5.463165 -1.46267,12.018555 -3.01039,6.555389 0.89675,9.133616 -2.31268,16.830688 -3.20949,7.697067 -0.47769,12.243277 -2.77282,17.190997 -1.96153,4.22836 -2.29004,8.72259 -2.36876,9.94685 l 1.07328,0.53679 c 0.0787,-1.22428 0.40723,-5.71902 2.36876,-9.94739 2.29513,-4.94772 -0.43667,-9.49392 2.77282,-17.190994 3.20944,-7.697072 -0.69771,-10.275299 2.31268,-16.830689 3.01037,-6.555389 3.16111,-8.880149 1.46267,-12.018555 0.015,0.0027 0.0309,0.0078 0.0461,0.01099 -0.39283,-0.295051 -0.77789,-0.48632 -1.11941,-0.547251 z m -33.4578,0.407426 c 2.29991,2.729143 2.6241,5.036558 1.00621,12.065685 -1.61787,7.029129 2.73096,8.76214 1.1498,16.949569 -1.58118,8.18743 2.01614,12.0858 0.77247,17.39575 -1.0586,4.51981 -0.47603,8.97136 -0.30135,10.20869 l 1.07328,0.53625 c -0.17467,-1.23734 -0.75725,-5.68888 0.30135,-10.20869 1.24367,-5.30995 -2.35365,-9.20832 -0.77247,-17.395747 1.58116,-8.187429 -2.76767,-9.92044 -1.1498,-16.949569 1.61789,-7.029127 1.29371,-9.336543 -1.0062,-12.065686 0.2289,-0.0063 0.48837,0.04009 0.76565,0.131446 -0.67727,-0.438928 -1.33176,-0.681627 -1.83894,-0.667698 z m -13.75402,2.769243 c -0.16513,0.370088 -0.14989,0.9195 -0.0577,1.873743 0.0916,0.947438 6.63079,53.143048 6.62417,53.918548 l 1.07328,0.53625 c 0,0 -6.49169,-52.641648 -6.61367,-53.834233 -0.011,-0.03626 -0.23304,-0.779615 -0.23741,-0.793381 -0.28995,-0.91386 -0.49151,-1.425274 -0.7887,-1.700927 z m 64.9477,0 c -0.29719,0.275653 -0.49878,0.787067 -0.78873,1.700927 -0.28796,0.907691 -15.365,51.465494 -15.60295,52.147954 l 1.07329,0.53625 c 0,0 14.03217,-46.945839 15.1402,-50.602037 0.0416,-0.342491 0.23029,-1.857461 0.23531,-1.909351 0.0923,-0.954246 0.10795,-1.503655 -0.0571,-1.873743 z m 12.80812,2.524158 c 1.07628,3.401966 0.48992,5.657153 -3.70253,11.528386 -4.19246,5.871227 -0.84132,9.138352 -5.44449,16.093344 -4.60318,6.954993 -2.77747,11.934463 -5.96437,16.361473 -2.70708,3.76044 -3.87843,8.08213 -4.26849,9.28388 l 1.07328,0.53624 c 0.39006,-1.20175 1.56141,-5.52343 4.2685,-9.28387 3.18689,-4.427 1.36119,-9.40648 5.96436,-16.361471 4.60317,-6.954991 1.25204,-10.222116 5.44449,-16.093343 4.00039,-5.602268 4.71337,-7.914238 3.83564,-11.069639 -0.39295,-0.494872 -0.81301,-0.844235 -1.20639,-0.995 z m -91.44803,1.963817 c -0.93266,-0.5631 -1.85898,-0.868102 -2.55377,-0.859367 -0.13663,0.0016 -0.26451,0.01507 -0.38152,0.04085 2.77306,2.247528 3.52605,4.452533 3.26178,11.660357 -0.26432,7.207812 4.33365,8.091586 4.3235,16.430066 -0.0102,8.33848 4.25814,11.49012 4.03739,16.93909 -0.18728,4.62285 1.2122,8.8695 1.54548,10.09611 l 1.07328,0.53625 c -0.33328,-1.22661 -1.73276,-5.47325 -1.54547,-10.09611 0.22074,-5.44897 -4.04754,-8.6006 -4.0374,-16.93909 0.0102,-8.338479 -4.58782,-9.222251 -4.3235,-16.430063 0.26427,-7.207824 -0.48872,-9.412829 -3.07103,-11.680781 0.6145,-0.02577 1.12641,0.08925 1.67126,0.302691 z m -17.72383,4.802183 c -0.079,0.397427 0.0577,0.929522 0.35898,1.839703 0.30039,0.907616 18.21623,51.16133 18.20335,51.49913 l 1.07328,0.53624 c 0,0 -17.90296,-50.591501 -18.20334,-51.499117 -0.10637,-0.321267 -0.18324,-0.582328 -0.24632,-0.820089 -0.003,-0.0024 -0.0392,-0.06983 -0.0404,-0.07175 -0.48515,-0.827076 -0.79471,-1.281035 -1.14559,-1.484122 z m 127.77924,0 c -0.35088,0.203087 -0.66045,0.657046 -1.1456,1.484122 -0.47855,0.81581 -26.00769,46.786841 -26.81581,48.019231 l 1.07328,0.53625 c 0,0 22.89034,-41.024015 25.85939,-46.309922 0.12254,-0.34698 0.65336,-1.838814 0.67029,-1.889978 0.30124,-0.910181 0.43744,-1.442276 0.35845,-1.839703 z m -0.16193,24.787033 c -0.66337,1.60803 -1.66051,3.32778 -3.56834,5.27402 -5.83925,5.95677 -4.99144,11.19148 -8.96046,14.93444 -3.36989,3.17789 -5.33969,7.19671 -5.92401,8.31818 l 1.07329,0.53678 c 0.58432,-1.12147 2.55411,-5.14082 5.924,-8.31872 3.96903,-3.74295 3.12121,-8.97767 8.96046,-14.93443 1.0563,-1.07757 1.83094,-2.08523 2.42747,-3.04366 0.0278,-1.14461 0.0391,-1.59261 0.0676,-2.76662 z M 302.2226,116.175 c 0.10639,0.7615 0.22534,1.51893 0.35271,2.27331 1.86477,3.15246 3.93677,5.30998 4.45192,8.68687 0.69967,4.58669 2.89537,8.4993 3.44939,9.62585 l 1.07329,0.53626 c -0.55403,-1.12656 -2.74973,-5.03917 -3.4494,-9.62584 -0.65387,-4.2864 -3.81501,-6.6102 -5.87791,-11.49645 z m 121.99624,15.2387 c -2.4876,2.92831 -4.35004,5.10627 -4.57194,5.31853 l 1.07328,0.53625 c 0,0 1.96177,-2.32055 2.25556,-2.66817 0.43937,-1.04838 0.85411,-2.11061 1.2431,-3.18661 z" />
    <path
       id="path2523"
       style="opacity:1;fill:#cccccc;fill-opacity:1;stroke:none;stroke-width:0.264583;paint-order:fill markers stroke"
       d="m 365.52264,61.233708 -4.48181,-12.298285 -12.52142,-3.669898 12.87716,-4.162201 4.12607,-12.55223 3.61006,12.298311 12.52166,4.41612 -12.52166,3.669898 z" />
    <path
       id="path2535"
       style="opacity:1;fill:#ffffff;fill-opacity:1;stroke:none;stroke-width:0.264583;paint-order:fill markers stroke"
       d="m 361.04087,48.935507 4.04576,13.782848 0.43603,-1.484645 -3.5285,-12.018555 z m 8.33157,-7.270308 12.28194,3.600328 1.27138,-0.372862 -13.79283,-4.043366 z m -4.28581,-14.598749 -4.04576,13.782849 -13.79283,4.043366 1.27139,0.372862 13.23523,-3.879975 3.768,-12.834457 z" />
  </g>
</svg>
