<?xml version="1.0" encoding="UTF-8" standalone="no"?>
<svg
   xmlns:dc="http://purl.org/dc/elements/1.1/"
   xmlns:cc="http://creativecommons.org/ns#"
   xmlns:rdf="http://www.w3.org/1999/02/22-rdf-syntax-ns#"
   xmlns:svg="http://www.w3.org/2000/svg"
   xmlns="http://www.w3.org/2000/svg"
   xmlns:sodipodi="http://sodipodi.sourceforge.net/DTD/sodipodi-0.dtd"
   xmlns:inkscape="http://www.inkscape.org/namespaces/inkscape"
   inkscape:output_extension="org.inkscape.output.svg.inkscape"
   sodipodi:docname="svg.svg"
   version="1.0"
   inkscape:version="1.0 (4035a4fb49, 2020-05-01)"
   sodipodi:version="0.32"
   id="svg4020"
   height="534"
   width="500">
  <defs
     id="defs4022" />
  <sodipodi:namedview
     inkscape:window-maximized="1"
     inkscape:document-rotation="0"
     showgrid="false"
     inkscape:window-y="-8"
     inkscape:window-x="-8"
     inkscape:window-height="1017"
     inkscape:window-width="1920"
     inkscape:current-layer="layer1"
     inkscape:document-units="px"
     inkscape:cy="211.64661"
     inkscape:cx="218.41373"
     inkscape:zoom="1"
     inkscape:pageshadow="2"
     inkscape:pageopacity="0.0"
     borderopacity="1.0"
     bordercolor="#666666"
     pagecolor="#ffffff"
     id="base" />
  <metadata
     id="metadata4025">
    <rdf:RDF>
      <cc:Work
         rdf:about="">
        <dc:format>image/svg+xml</dc:format>
        <dc:type
           rdf:resource="http://purl.org/dc/dcmitype/StillImage" />
      </cc:Work>
    </rdf:RDF>
  </metadata>
  <g
     transform="translate(4,-0.5)"
     id="layer1"
     inkscape:groupmode="layer"
     inkscape:label="Layer 1">
    <path
       sodipodi:nodetypes="cccccc"
       id="path4086"
       d="M -4,0.5 H 496 L 476.96193,355 C 471.45091,444 346.20041,534.5 246.00001,534.5 145.7996,534.5 20.549098,444 15.038076,355 Z"
       style="fill:#ee1c25;fill-opacity:1;fill-rule:evenodd;stroke:none;stroke-width:0.5;stroke-linecap:butt;stroke-linejoin:miter;stroke-miterlimit:4;stroke-dasharray:none;stroke-opacity:1" />
    <path
       d="m 177.10156,35 -4,4 -46.13281,92 -4,4 h 54.13281 l 4,-4 -8,-47 4,-4 z m 98.42578,0 -4,4 L 256.67773,57.275391 271.52734,84 l 4,-4 z m 93.50391,0 -4,4 -76.35547,99.41602 V 337.64258 L 310.89844,328 l 4,-8 V 135 h 54.13281 z M 476.20898,291.25 246.07227,437.69922 15.796875,291.33594 19.130859,355 246,534.5 472.86914,355 Z"
       style="fill:#9f0c12;fill-opacity:1;fill-rule:evenodd;stroke:none;stroke-width:0.5;stroke-linecap:butt;stroke-linejoin:miter;stroke-miterlimit:4;stroke-dasharray:none;stroke-opacity:1"
       id="path4121" />
    <path
       d="m 122.96875,35 v 100 l 4,-4 46.13281,-92 4,-4 z m 93.50391,0 v 45 h -39.3711 l -4,4 8,47 -4,4 V 320 L 10.763672,195.25 15.796875,291.33594 246.07227,437.69922 476.20898,291.25 l 5.02735,-96 -166.33789,124.75 -4,8 -22.22266,9.64258 V 138.41602 L 365.03125,39 l 4,-4 h -54.13281 v 45 h -39.3711 l -4,4 L 256.67773,57.275391 271.52734,39 l 4,-4 z"
       style="fill:#ffffff;fill-opacity:1;fill-rule:evenodd;stroke:none;stroke-width:0.5;stroke-linecap:butt;stroke-linejoin:miter;stroke-miterlimit:4;stroke-dasharray:none;stroke-opacity:1"
       id="path858" />
    <path
       sodipodi:nodetypes="cccccccccccccccccccccc"
       id="path850"
       d="M 246,530.5 472.87007,351 481.23621,199.25 310.89763,328 V 131 h 54.13386 V 39 H 318.89763 V 84 H 271.52755 V 39 H 220.47244 V 84 H 173.10236 V 39 H 126.9685 v 92 h 54.13386 V 328 L 10.763779,199.25 19.129921,351 Z"
       style="fill:#cccccc;fill-opacity:1;fill-rule:evenodd;stroke:none;stroke-width:1;stroke-linecap:butt;stroke-linejoin:miter;stroke-miterlimit:4;stroke-dasharray:none;stroke-opacity:1" />
  </g>
</svg>
