<?xml version="1.0" encoding="UTF-8" standalone="no"?>
<svg
   xmlns:dc="http://purl.org/dc/elements/1.1/"
   xmlns:cc="http://creativecommons.org/ns#"
   xmlns:rdf="http://www.w3.org/1999/02/22-rdf-syntax-ns#"
   xmlns:svg="http://www.w3.org/2000/svg"
   xmlns="http://www.w3.org/2000/svg"
   xmlns:sodipodi="http://sodipodi.sourceforge.net/DTD/sodipodi-0.dtd"
   xmlns:inkscape="http://www.inkscape.org/namespaces/inkscape"
   width="500"
   height="570"
   viewBox="0 0 132.29166 150.8125"
   version="1.1"
   id="svg847"
   sodipodi:docname="varkaus.svg"
   inkscape:version="1.0.2 (e86c870879, 2021-01-15, custom)">
  <defs
     id="defs841" />
  <sodipodi:namedview
     id="base"
     pagecolor="#ffffff"
     bordercolor="#666666"
     borderopacity="1.0"
     inkscape:pageopacity="0.0"
     inkscape:pageshadow="2"
     inkscape:zoom="0.49497475"
     inkscape:cx="170.99073"
     inkscape:cy="271.22067"
     inkscape:document-units="px"
     inkscape:current-layer="layer1"
     inkscape:document-rotation="0"
     showgrid="false"
     inkscape:snap-smooth-nodes="true"
     inkscape:showpageshadow="false"
     borderlayer="true"
     units="px"
     inkscape:window-width="1920"
     inkscape:window-height="1017"
     inkscape:window-x="-8"
     inkscape:window-y="-4"
     inkscape:window-maximized="1"
     showguides="false" />
  <metadata
     id="metadata844">
    <rdf:RDF>
      <cc:Work
         rdf:about="">
        <dc:format>image/svg+xml</dc:format>
        <dc:type
           rdf:resource="http://purl.org/dc/dcmitype/StillImage" />
        <dc:title></dc:title>
      </cc:Work>
    </rdf:RDF>
  </metadata>
  <g
     inkscape:label="Layer 1"
     inkscape:groupmode="layer"
     id="layer1"
     transform="translate(-35.430157,-52.398965)">
    <g
       id="g2085"
       transform="matrix(1.0029933,0,0,1.0029933,-0.10605205,-0.15466033)"
       style="stroke-width:0.997016">
      <path
         style="font-variation-settings:normal;opacity:1;vector-effect:none;fill:#000000;fill-opacity:1;stroke:none;stroke-width:0.131897;stroke-linecap:butt;stroke-linejoin:miter;stroke-miterlimit:4;stroke-dasharray:none;stroke-dashoffset:0;stroke-opacity:1;stop-color:#000000;stop-opacity:1"
         d="m 35.430156,52.396786 v 89.293594 c 0,26.65546 25.057702,61.06883 65.948434,61.06883 40.89073,0 65.94843,-34.41337 65.94843,-61.06883 V 52.396786 Z"
         id="path844"
         sodipodi:nodetypes="cszscc" />
      <g
         id="g1553"
         style="stroke-width:0.997016">
        <path
           id="path880"
           style="opacity:1;fill:#bf9f4f;fill-opacity:1;stroke:none;stroke-width:0.498509;stroke-miterlimit:4;stroke-dasharray:none"
           d="m 568.83594,294.37305 a 47.304944,54.001371 0 0 0 -47.25196,54.00195 47.304944,54.001371 0 0 0 47.30469,54.00195 47.304944,54.001371 0 0 0 47.30469,-54.00195 47.304944,54.001371 0 0 0 -47.30469,-54.00195 47.304944,54.001371 0 0 0 -0.0527,0 z m 0.0527,22.70507 a 25.538118,31.29612 0 0 1 25.53711,31.29688 25.538118,31.29612 0 0 1 -25.53711,31.29688 25.538118,31.29612 0 0 1 -25.53906,-31.29688 25.538118,31.29612 0 0 1 25.53906,-31.29688 z"
           transform="scale(0.26458333)" />
        <path
           id="path1533"
           style="opacity:1;fill:#ffffff;stroke:none;stroke-width:0.498509;stroke-miterlimit:4;stroke-dasharray:none"
           d="m 526.39453,360.29102 c -0.76996,-3.83538 -1.18945,-7.81979 -1.18945,-11.91602 0,-29.81251 19.52598,-51.96783 45.66797,-51.98438 11.42442,-0.007 21.90085,4.60501 30.07617,12.29102 -8.43193,-8.87551 -19.69513,-14.29887 -32.07617,-14.29102 -26.14197,0.0166 -47.28936,24.18363 -47.28907,53.98438 -3e-5,4.07566 0.40863,8.03996 1.15821,11.85742 l 2.34942,1.73929 z m 58.28125,-36.50586 c 5.93499,5.73087 9.7502,14.61164 9.75,24.58984 3.4e-4,17.28418 -11.43295,31.29619 -25.53711,31.29688 -7.7412,3.3e-4 -14.6719,-4.22662 -19.35547,-10.89258 0.003,0.006 0.007,0.0116 0.01,0.0176 0.50511,0.71848 1.03461,1.41543 1.5957,2.08007 -0.0256,6.7e-4 -0.3253,0.009 -0.35742,0.01 4.26304,6.60114 10.93975,10.78554 19.72852,10.78516 16.10411,-8e-4 27.05273,-14.0127 27.05273,-31.29688 0,-11.22617 -5.30522,-21.06696 -12.88672,-26.58984 z m -58.53125,47.72461 c 7.60043,18.21478 23.89302,30.86707 42.74414,30.86718 0.67098,0 1.33582,-0.027 2,-0.0586 -18.06005,-0.85789 -33.68028,-13.26013 -41.09375,-30.90039 l -2.05064,-1.65783 z"
           transform="scale(0.26458333)"
           sodipodi:nodetypes="csscsscccccsccccssccsccccs" />
        <path
           id="path1536"
           style="opacity:1;fill:#7f682f;fill-opacity:1;stroke:none;stroke-width:0.498509;stroke-miterlimit:4;stroke-dasharray:none"
           d="m 595.26284,308.11691 c 8.0339,9.4011 13.08496,24.89465 13.08482,40.25809 2.2e-4,24.87823 -17.66578,45.04676 -39.45899,45.04688 -10.46688,-8e-5 -21.7845,-4.66209 -30.72851,-12.25391 7.67823,9.37216 18.60069,15.2382 30.72851,15.23828 23.2371,-1.1e-4 42.07449,-21.50475 42.07422,-48.03125 1.7e-4,-16.6864 -6.26095,-32.1846 -15.70005,-40.25809 z m -54.8019,40.25809 c -3.8e-4,-19.23988 12.24326,-34.83671 29.94336,-34.83594 5.80301,2.7e-4 11.29855,1.39846 16.07226,3.94727 -4.98425,-4.2708 -11.04462,-6.7829 -17.58789,-6.78321 -16.97786,-7.4e-4 -30.74268,16.86603 -30.74219,37.67188 z"
           transform="scale(0.26458333)"
           sodipodi:nodetypes="ccscccccscscc" />
        <path
           id="path1541"
           style="font-variation-settings:normal;opacity:1;vector-effect:none;fill:#7f682f;fill-opacity:1;stroke:none;stroke-width:0.498509;stroke-linecap:butt;stroke-linejoin:miter;stroke-miterlimit:4;stroke-dasharray:none;stroke-dashoffset:0;stroke-opacity:1;stop-color:#000000;stop-opacity:1"
           d="m 522.73811,360.23168 c 0.76478,3.87961 1.90495,7.66278 3.40642,11.27809 5.3164,-0.13609 23.20275,-0.58606 24.99414,-0.63282 -2.489,-2.94835 -4.43625,-6.45273 -5.76126,-10.28058 z"
           sodipodi:nodetypes="ccccc"
           transform="scale(0.26458333)" />
      </g>
      <g
         id="g1578"
         style="stroke-width:0.997016">
        <path
           style="font-variation-settings:normal;opacity:1;vector-effect:none;fill:#bf9f4f;fill-opacity:1;stroke:none;stroke-width:0.131897;stroke-linecap:butt;stroke-linejoin:miter;stroke-miterlimit:4;stroke-dasharray:none;stroke-dashoffset:0;stroke-opacity:1;stop-color:#000000;stop-opacity:1"
           d="m 146.53052,97.051525 c -3.80859,0.100226 -66.028677,1.685302 -68.757193,1.685302 -2.728516,0 -6.808297,0.708706 -8.934413,2.480463 -2.126116,1.77177 -3.543527,5.66965 -1.771763,9.1423 1.771763,3.47266 5.38616,5.81139 5.38616,5.81139 -1.158101,-2.40549 -1.274923,-7.1053 0.27741,-10.03229 6.053161,5.83155 10.637487,13.35791 13.218043,23.19631 -12.116347,0.64299 -22.921347,-2.09385 -27.551442,-4.63594 1.761518,-1.59116 5.298439,-2.79035 9.35491,-2.76395 0,0 -4.258524,-1.4469 -9.97141,-7.56069 -5.712886,-6.11379 -6.247916,-10.84161 -8.503002,-16.003251 -2.255089,-5.161642 -5.76331,-6.196952 -5.76331,-6.196952 0,0 3.508221,-1.035309 5.76331,-6.196951 2.255086,-5.161643 2.790116,-9.889464 8.503002,-16.003255 5.712886,-6.11379 9.97141,-7.560693 9.97141,-7.560693 -4.056471,0.02644 -7.593392,-1.172787 -9.35491,-2.763951 4.630095,-2.54209 15.435095,-5.278928 27.551442,-4.635939 -2.580556,9.838404 -7.164882,17.364765 -13.218043,23.196318 -1.552333,-2.926993 -1.435511,-7.626806 -0.27741,-10.03229 0,0 -3.614397,2.338727 -5.38616,5.811384 -1.771764,3.472656 -0.354353,7.370535 1.771763,9.142299 2.126116,1.771763 6.205897,2.480469 8.934413,2.480469 2.728516,0 64.948603,1.585076 68.757193,1.685302 3.80859,0.100226 5.31198,2.641973 5.31198,4.877307 0,2.235335 -1.50339,4.777082 -5.31198,4.877308 z"
           id="path850"
           sodipodi:nodetypes="szsscccccsscsscccccsszsss" />
        <path
           id="path2044"
           style="font-variation-settings:normal;opacity:1;vector-effect:none;fill:#ffffff;fill-opacity:1;stroke:none;stroke-width:0.498509;stroke-linecap:butt;stroke-linejoin:miter;stroke-miterlimit:4;stroke-dasharray:none;stroke-dashoffset:0;stroke-opacity:1;stop-color:#000000;stop-opacity:1"
           d="m 312.11133,207.56641 c -40.51228,-0.13937 -75.5375,9.1737 -91.39649,17.88086 0.92257,0.83334 1.98472,1.63427 3.15235,2.40234 18.56474,-8.79435 58.57086,-17.85407 100.05664,-16.51563 0.31462,-1.12846 0.62155,-2.26518 0.92187,-3.41015 -4.29319,-0.22783 -8.54345,-0.34301 -12.73437,-0.35742 z m -59.96875,28.23828 c 1.29505,0.0588 2.60211,0.0965 3.92969,0.0879 -1.29599,-0.0188 -2.61399,-0.0524 -3.92969,-0.0879 z m 3.92969,0.0879 c 0,0 -16.09549,5.46893 -37.6875,28.57617 -21.59201,23.10724 -23.61552,40.9758 -32.13868,60.48437 -8.52317,19.50857 -21.78125,23.42188 -21.78125,23.42188 0,0 13.25808,3.91331 21.78125,23.42188 8.52316,19.50856 10.54667,37.37713 32.13868,60.48437 21.59201,23.10724 37.6875,28.57617 37.6875,28.57617 -15.33155,-0.0998 -28.69972,4.43148 -35.35743,10.44531 1.00433,0.55142 2.09346,1.1045 3.24805,1.65821 8.32101,-5.30645 25.0228,-10.29702 38.54883,-10.20899 0,0 -19.13655,-12.46504 -39.69922,-34.4707 -20.56267,-22.00569 -22.48863,-39.02302 -30.60547,-57.60156 -8.11685,-18.57855 -18.0918,-22.30469 -18.0918,-22.30469 0,0 9.97495,-3.72614 18.0918,-22.30469 8.11684,-18.57855 10.0428,-35.59589 30.60547,-57.60156 20.56267,-22.00566 38.94141,-32.19727 38.94141,-32.19727 -1.99145,0.0129 -3.60003,-0.34879 -5.68164,-0.3789 z m 20.76367,20.96289 c -0.89484,0.0411 -2.02977,0.22907 -2.9961,0.82226 -4.37707,9.0916 -4.81825,26.85532 1.04883,37.91797 0.78276,-0.7541 1.55649,-1.51596 2.32617,-2.28515 -3.40897,-11.71959 -2.54602,-28.6703 1.16993,-36.38867 0,0 -0.65399,-0.10752 -1.54883,-0.0664 z m -24.3711,46.12109 c 0.46861,5.79599 2.86042,10.90093 7.33399,14.62891 9.03571,7.52976 23.45703,10.13281 33.76953,10.13281 10.3125,0 245.47447,6.36924 259.86914,6.74805 13.99446,0.36827 19.73742,9.45619 20.04688,17.72461 0.26469,-1.28148 0.4082,-2.57153 0.4082,-3.83594 0,-8.44851 -5.6815,-18.05479 -20.07617,-18.43359 -14.39467,-0.37881 -249.55664,-6.36914 -259.86914,-6.36914 -10.31251,0 -25.73382,-2.67858 -33.76954,-9.375 -3.19882,-2.6657 -5.95436,-6.61654 -7.71289,-11.22071 z m 22.42383,98.17774 c -5.86708,11.06264 -5.4259,28.82635 -1.04883,37.91797 2.41888,1.85075 4.54493,3.4082 4.54493,3.4082 -3.96394,-8.23348 -5.00975,-26.99465 -0.81446,-38.67969 -0.88671,-0.89123 -1.77746,-1.77541 -2.68164,-2.64648 z"
           transform="scale(0.26458333)" />
        <path
           id="path2051"
           style="font-variation-settings:normal;opacity:1;vector-effect:none;fill:#7f682f;fill-opacity:1;stroke:none;stroke-width:0.498509;stroke-linecap:butt;stroke-linejoin:miter;stroke-miterlimit:4;stroke-dasharray:none;stroke-dashoffset:0;stroke-opacity:1;stop-color:#000000;stop-opacity:1"
           d="m 319.82227,212.67773 c 0,0 -3.7514,-0.26646 -6.16211,8.03711 -2.41072,8.30357 -12.58957,33.21401 -22.23243,47.14258 -9.64285,13.92857 -11.78543,15.00028 -11.51757,18.48242 0,0 12.85714,-13.12528 26.25,-37.23242 13.39285,-24.10714 13.66211,-36.42969 13.66211,-36.42969 z m -86.28125,13.89258 c -4.24342,-0.0938 -4.99414,1.28125 -4.99414,1.28125 0,0 18.56194,7.76743 38.82812,7.19922 0,0 -0.94665,-3.22095 -6.06055,-4.16797 -5.11389,-0.94701 -16.8574,-2.84014 -24.24414,-3.97656 -1.38501,-0.21308 -2.55005,-0.3143 -3.52929,-0.33594 z m 43.15625,21.73242 c 0,0 -9.64342,1.34013 -21.96485,16.07227 -12.32143,14.73214 -12.85742,28.39313 -10.98242,39.10742 1.875,10.71429 8.03571,13.92746 13.125,14.19531 -0.26786,0 -9.10631,-6.15932 -10.17773,-20.08789 -1.07143,-13.92857 7.4986,-29.4654 16.33789,-36.42968 8.83928,-6.96429 11.51925,-6.96457 13.66211,-12.85743 z m 143.06835,78.2461 -114.49804,0.0586 c -5.625,6.69643 -2.94531,17.67774 -2.94531,17.67774 -3.21429,12.32143 5.35546,23.03711 5.35546,23.03711 h -6.96289 c -8.03571,0 -22.92784,-0.67906 -38.03711,6.69531 -12.83701,6.26535 -22.23046,24.91182 -14.73046,43.92969 7.5,19.01786 23.03515,22.76757 23.03515,22.76757 0,0 -12.58873,-7.23242 -19.28515,-22.23242 -6.69644,-15 -3.23448,-29.04753 7.73437,-38.14648 11.16979,-9.26563 28.1582,-9.26367 41.2832,-9.26367 l 3.48047,1.85351 c 0,0 1.56416,0.0238 1.65821,0.0254 28.12858,-0.60899 89.40713,-2.1358 149.96484,-3.66211 0.9896,-2.02053 1.23437,-3.7539 1.23437,-3.7539 h 46.875 l 8.51172,2.32031 c 2.00093,-0.051 5.4583,-0.13656 7.22266,-0.18164 l 1.14062,-2.13867 h 21.96485 c 5.08928,0 13.12445,0.80468 19.28515,-4.82032 6.16071,-5.625 5.08985,-13.66211 5.08985,-13.66211 -1.07142,5.08929 -4.55412,12.32171 -12.58985,12.85743 -8.03569,0.53571 -33.75,0 -33.75,0 0,-15.20281 -1.69614,-25.62715 -2.80664,-30.875 -0.92358,-0.0236 -2.67951,-0.0686 -3.66406,-0.0937 l -12.54687,29.36132 -44.46289,-0.26757 c 0,0 -1.34039,-1.87361 1.07031,-12.58789 1.94524,-8.64546 -0.39755,-15.57278 -1.38477,-17.95704 -16.24425,-0.40953 -20.00169,-0.51122 -37.24219,-0.9414 z m -142.08789,80.68359 c 0,0 -0.80329,2.94643 3.48243,7.5 4.28571,4.55358 13.92996,17.14315 21.16211,33.48242 C 309.55441,464.55416 314.375,482.5 314.375,482.5 c 0,0 -14.26842,2.0445 -40.71484,-0.80273 -23.42496,-2.52193 -34.3175,-7.99852 -38.48438,-9.70313 -4.16688,-1.70464 -6.50195,0.0625 -6.50195,0.0625 0,0 14.5836,8.90126 42.99414,12.31055 28.41054,3.40924 47.73047,1.70508 47.73047,1.70508 0,0 -7.1663,-26.87584 -18.14844,-46.69727 -10.98214,-19.82143 -23.57227,-32.14258 -23.57227,-32.14258 z"
           transform="scale(0.26458333)" />
      </g>
      <g
         id="g1529"
         style="stroke-width:0.997016">
        <path
           style="font-variation-settings:normal;opacity:1;vector-effect:none;fill:#bf9f4f;fill-opacity:1;stroke:none;stroke-width:0.131897;stroke-linecap:butt;stroke-linejoin:miter;stroke-miterlimit:4;stroke-dasharray:none;stroke-dashoffset:0;stroke-opacity:1;stop-color:#000000;stop-opacity:1"
           d="m 133.04504,119.52552 h -5.30055 c 0,0 -3.62656,-12.61023 -3.62656,-27.351303 0,-14.741073 3.62656,-27.351301 3.62656,-27.351301 h 5.30055 c 0,0 3.62656,12.610228 3.62656,27.351301 0,14.741073 -3.62656,27.351303 -3.62656,27.351303 z"
           id="path867"
           sodipodi:nodetypes="cczcczc" />
        <path
           id="path885"
           style="font-variation-settings:normal;opacity:1;vector-effect:none;fill:#ffffff;fill-opacity:1;stroke:none;stroke-width:0.498509;stroke-linecap:butt;stroke-linejoin:miter;stroke-miterlimit:4;stroke-dasharray:none;stroke-dashoffset:0;stroke-opacity:1;stop-color:#000000;stop-opacity:1"
           d="m 482.81445,245 c 0,0 -13.70703,47.66071 -13.70703,103.375 0,55.71429 13.70703,103.375 13.70703,103.375 h 3.07032 c 0,0 -12.77735,-47.66071 -12.77735,-103.375 0,-55.71429 12.77735,-99.375 12.77735,-99.375 h 18.01562 c -0.60559,-2.3444 -1.05273,-4 -1.05273,-4 z"
           transform="scale(0.26458333)" />
        <path
           style="font-variation-settings:normal;opacity:1;vector-effect:none;fill:#7f682f;fill-opacity:1;stroke:none;stroke-width:0.131897;stroke-linecap:butt;stroke-linejoin:miter;stroke-miterlimit:4;stroke-dasharray:none;stroke-dashoffset:0;stroke-opacity:1;stop-color:#000000;stop-opacity:1"
           d="m 131.75225,117.77568 c 0.77943,-3.31405 2.79026,-13.07744 2.79026,-25.601463 0,-15.534823 -3.09385,-26.292968 -3.09385,-26.292968 h 1.06721 c 0,0 3.0974,11.551895 3.0974,26.292968 0,14.741073 -3.0974,26.822133 -3.0974,26.822133 h -3.84131 c 0,0 0.0303,-0.95705 1.15386,-1.05728 1.12358,-0.10023 1.92383,-0.16339 1.92383,-0.16339 z"
           id="path891"
           sodipodi:nodetypes="cscczcczc" />
      </g>
      <path
         id="path1580"
         style="font-variation-settings:normal;opacity:1;vector-effect:none;fill:#bf9f4f;fill-opacity:1;stroke:none;stroke-width:0.498509;stroke-linecap:butt;stroke-linejoin:miter;stroke-miterlimit:4;stroke-dasharray:none;stroke-dashoffset:0;stroke-opacity:1;stop-color:#000000;stop-opacity:1"
         d="m 377.14258,284.10742 c -0.92381,0.008 -1.87807,0.0918 -2.85742,0.26758 -10.44643,1.875 -13.92774,11.78516 -13.92774,11.78516 0,0 -11.60477,-8.72879 -21.42969,-4.28516 -9.82491,4.44362 -11.25,13.92773 -11.25,13.92773 -3.74999,-1.60714 -15.53487,-5.62332 -23.30273,2.14454 -7.76786,7.76785 -8.66602,15.45703 -8.66602,15.45703 0,0 10.00056,-0.69281 11.33985,10.02148 1.33929,10.71429 -1.08391,26.74096 6.60156,33.57422 7.50133,6.66954 18.40346,4.96456 21.08203,1.48242 2.67857,-3.48214 1.07171,-7.76841 3.48242,-12.58984 0,0 2.09927,15.73173 14.42578,15.95898 -23.39826,0.5673 -43.76912,1.05117 -52.93945,1.23438 0,0 -2.084,16.77002 5.30274,26.24023 7.38674,9.47018 7.00628,18.3715 16.09765,27.46289 9.09138,9.09135 7.76573,8.39667 8.14453,16.54102 0.37881,8.14439 -1.56808,40.50921 -3.71093,56.04492 -2.14286,15.53571 -6.69504,58.92913 -1.33789,89.46484 5.35714,30.53571 10.33689,39.24974 9.10546,54.64258 -1.23143,15.39285 -6.96344,29.19618 17.94727,37.76758 24.91071,8.57144 38.30328,22.50029 62.14258,33.48242 23.83929,10.98218 34.82252,10.17774 51.42969,15.80274 10.77118,3.6483 17.23368,7.6325 22.07226,11.44531 49.97484,-22.65656 88.40941,-60.51756 112.91797,-102.51367 -6.80614,-4.65152 -16.98733,-8.53692 -33.49609,-5.84766 -22.56155,3.67521 -26.27402,2.93908 -44.32032,-9.0918 -18.04633,-12.03087 -28.13481,-15.14653 -43.57421,-14.55273 -15.43941,0.5938 -26.47248,1.42323 -34.45118,-4.31836 -7.97869,-5.74163 -10.71154,-19.67141 -16.10156,-40.2207 -5.38995,-20.54922 -18.3021,-61.38114 -19.83398,-79.63282 -1.53188,-18.25167 -3.82232,-31.97338 -4.28516,-51.96289 -0.32957,-14.23294 19.01756,-22.76869 32.14258,-32.94726 13.12497,-10.17857 15.91546,-22.67603 16.45117,-35.5332 0.53571,-12.85715 1.22853,-21.78739 3.10352,-32.76954 1.87502,-10.98214 -5.89454,-20.625 -5.89454,-20.625 -0.53559,-2.14285 -1.01703,-6.23297 -0.80273,-12.32226 0.2143,-6.08929 0.803,-13.9283 -1.33984,-13.39258 -2.14288,0.53571 -3.48243,2.94727 -3.48243,2.94727 0,0 -3.74862,-4.55525 -10.71289,-0.26954 -6.96427,4.28572 -11.51757,13.66211 -11.51757,13.66211 0,0 -4.01898,-13.66043 -13.92969,-15.26757 -9.91072,-1.60715 -15.53516,3.75 -15.53516,3.75 0,0 -6.1597,-7.04047 -15.08984,-6.96485 z m -9.19531,77.90625 c 0,0 1.077,9.56045 11.68359,9.18164 -9.03008,0.22247 -16.14898,0.39306 -24.33008,0.5918 10.02397,-0.61627 8.22579,-4.99908 12.64649,-9.77344 z"
         transform="scale(0.26458333)" />
      <path
         id="path1606"
         style="font-variation-settings:normal;opacity:1;vector-effect:none;fill:#7f682f;fill-opacity:1;stroke:none;stroke-width:0.498509;stroke-linecap:butt;stroke-linejoin:miter;stroke-miterlimit:4;stroke-dasharray:none;stroke-dashoffset:0;stroke-opacity:1;stop-color:#000000;stop-opacity:1"
         d="m 441.94336,291.49219 c 0,0 -6.94335,2.34709 -5.06836,14.13281 1.87502,11.78571 9.10795,10.71429 10.44727,5.625 0,0 -4.28626,1.60658 -6.96485,-5.08984 -2.67855,-6.69643 1.58594,-14.66797 1.58594,-14.66797 z m -73.29791,79.70312 c -9.03008,0.22247 -6.49365,0.42526 -16.00483,0.65625 -17.2767,0.41889 -31.94325,-0.0476 -42.14037,0.16685 -2.59702,0.0546 -4.19567,0.86189 -6.30549,0.90742 1.99326,2.68313 8.12751,4.75195 8.12751,4.75195 -4.28572,1.60715 -5.35743,4.55469 -5.35743,4.55469 6.16072,-2.41069 22.76758,-2.94726 22.76758,-2.94726 -5.625,-2.14286 -13.92969,-2.14258 -13.92969,-2.14258 8.03572,-1.60714 16.8764,-1.33875 26.78711,5.08984 9.91072,6.42856 13.39258,19.55274 13.39258,19.55274 -1.07143,-10.98214 -6.96484,-19.01758 -6.96484,-19.01758 7.23214,4.01782 9.10742,9.91099 9.10742,20.35742 0,10.44643 5.08984,12.85742 5.08984,12.85742 0,0 -2.94726,-5.09012 -2.94726,-10.44726 0,-5.35714 0.26786,-9.90989 -1.875,-15.80274 -2.14285,-5.89285 -1.875,-8.57226 -1.875,-8.57226 0,0 3.48298,5.62496 4.82226,11.25 1.33929,5.62499 1.33789,13.39257 1.33789,13.39257 0,0 2.1437,-3.21287 1.07227,-10.71289 -1.07143,-7.49998 2.14258,-9.375 2.14258,-9.375 -0.26786,4.55358 1.33984,6.96289 1.33984,6.96289 3.86927,-14.21665 17.04583,-22.1305 31.24805,-26.96093 3.65903,-0.44395 5.17969,-0.0918 5.17969,-0.0918 8.03569,-10.44643 14.73242,-14.73242 14.73242,-14.73242 -0.53571,-13.92857 3.85156,-21.14063 3.85156,-21.14063 l -0.75781,-3.97851 c -4.13874,-10.38729 0.21094,-23.1836 0.21094,-23.1836 0,0 -4.10768,1.6956 -5.71485,10.80274 -1.60713,9.10714 2.41016,15 2.41016,15 -4.82155,8.30357 -4.55274,20.89258 -4.55274,20.89258 0,0 -3.48213,1.60714 -7.5,7.5 -4.01782,5.89285 -8.30393,3.4827 -9.10742,3.21484 0.80349,-7.76786 0.53548,-15.5357 -0.17969,-19.91016 -0.71512,-4.37445 -0.0893,-17.85825 1.25,-28.30468 1.33928,-10.44643 -5.35351,-16.0625 -5.35351,-16.0625 v -5e-5 c -2.4079,7.50836 2.67604,14.45619 0.5332,24.63476 -2.14276,10.17858 -3.9e-4,22.23131 0.26758,30.80274 0.26786,8.57142 1.33986,12.05413 -6.16016,16.33984 -5.84235,3.3385 -12.44128,2.45774 -15.09765,1.90234 z m -36.41303,-59.58789 c -3.48214,6.42858 3.21456,8.30358 1.60742,18.75 -1.60715,10.44643 2.1423,16.60687 0.53516,28.39258 -1.00446,7.36607 -2.21728,10.54674 -2.98633,11.89648 1.50286,-0.54458 3.81456,-0.35174 4.48017,-1.21704 2.67857,-3.48214 -0.0647,-8.71543 2.346,-13.53686 0,0 1.04709,7.79771 5.96875,12.49219 0.41591,-0.6121 0.40374,-1.66658 -0.70117,-3.47461 -2.94643,-4.82143 -4.82254,-21.69643 -4.55469,-37.5 0.26786,-15.80358 -6.69531,-15.80274 -6.69531,-15.80274 z m 33.125,0.17774 c -5.89286,6.16071 -1.07254,11.78599 -2.67969,22.23242 -1.60714,10.44642 0.80469,14.19726 0.80469,14.19726 -9.10714,-2.14285 -16.33984,3.21289 -16.33984,3.21289 -1.07143,15.80358 5.65234,16.45704 5.65234,16.45704 -3.18723,-7.65096 -1.90234,-14.84961 -1.90234,-14.84961 7.5,-2.67858 11.51897,-1.87502 12.05469,-1.875 1.65073,4.95218 2.22354,14.76063 2.29682,17.03466 0.72459,-1.3246 1.30543,-4.67158 2.70318,-6.18115 l -0.17969,-11.38867 1.33984,-30.53516 z m 40.82617,30.73437 c -1.6197,-0.0251 -3.5265,0.1596 -5.73632,0.69531 0,0 -1.34068,4.286 -0.53711,9.10743 0,0 2.41044,-8.30525 13.39257,-7.76954 0,0 -2.26003,-1.95786 -7.11914,-2.0332 z m -23.73437,1.02735 c -4.81306,0.10463 -8.78906,1.98828 -8.78906,1.98828 -1.875,10.71428 3.21484,16.60742 3.21484,16.60742 -1.07143,-4.82143 0.53516,-13.39258 0.53516,-13.39258 6.96429,-2.14286 13.92968,-2.67773 13.92968,-2.67773 -2.81249,-2.00893 -6.00279,-2.58817 -8.89062,-2.52539 z m -56.14063,2.36718 c -5.22612,-0.0808 -9.34375,3.9961 -9.34375,3.9961 -1.875,15.80357 6.16016,17.14257 6.16016,17.14257 -2.94643,-5.62499 -2.67773,-14.73046 -2.67773,-14.73046 5.08928,-4.82143 13.39257,-2.94727 13.39257,-2.94727 -2.55022,-2.52869 -5.15574,-3.42422 -7.53125,-3.46094 z"
         transform="scale(0.26458333)"
         sodipodi:nodetypes="cscscccscccccsccscsscscsccccccccsccscssccscscccscsccssccsccccccccccssccssscccssccccsc" />
      <g
         id="g1618"
         style="stroke-width:0.997016">
        <path
           id="path1758"
           style="color:#000000;font-style:normal;font-variant:normal;font-weight:normal;font-stretch:normal;font-size:medium;line-height:normal;font-family:sans-serif;font-variant-ligatures:normal;font-variant-position:normal;font-variant-caps:normal;font-variant-numeric:normal;font-variant-alternates:normal;font-variant-east-asian:normal;font-feature-settings:normal;font-variation-settings:normal;text-indent:0;text-align:start;text-decoration:none;text-decoration-line:none;text-decoration-style:solid;text-decoration-color:#000000;letter-spacing:normal;word-spacing:normal;text-transform:none;writing-mode:lr-tb;direction:ltr;text-orientation:mixed;dominant-baseline:auto;baseline-shift:baseline;text-anchor:start;white-space:normal;shape-padding:0;shape-margin:0;inline-size:0;clip-rule:nonzero;display:inline;overflow:visible;visibility:visible;opacity:1;isolation:auto;mix-blend-mode:normal;color-interpolation:sRGB;color-interpolation-filters:linearRGB;solid-color:#000000;solid-opacity:1;vector-effect:none;fill:#7f682f;fill-opacity:1;fill-rule:nonzero;stroke:none;stroke-width:3.76825;stroke-linecap:butt;stroke-linejoin:miter;stroke-miterlimit:4;stroke-dasharray:none;stroke-dashoffset:0;stroke-opacity:1;color-rendering:auto;image-rendering:auto;shape-rendering:auto;text-rendering:auto;enable-background:accumulate;stop-color:#000000;stop-opacity:1"
           d="m 317.92383,310.10742 c -1.61217,0.0137 -3.25264,0.47479 -4.84571,1.41016 0,0 5.94562,-1.58251 12.32618,2.14258 -2.18368,-2.3527 -4.79352,-3.5755 -7.48047,-3.55274 z m 65.2539,8.25196 c -1.49592,-8.6e-4 -2.98562,0.35099 -4.45312,1.14062 4.1918,-0.007 8.74213,1.27966 11.89844,1.39453 -2.44379,-1.55413 -4.95211,-2.53373 -7.44532,-2.53515 z m -64.875,3.07031 c -6.30137,0.47038 -10.67773,5.77929 -10.67773,5.77929 l 1.53516,1.29297 c 0,0 4.19395,-4.86407 9.14257,-7.07226 z m 64.625,0.78711 c -1.8114,0.0382 -3.60673,0.4843 -5.35546,1.44922 4.9995,-0.45182 10.60907,0.91913 14.39453,1.24414 -2.9584,-1.6876 -6.02006,-2.75697 -9.03907,-2.69336 z m 59.34375,1.90234 c -1.87427,0.0547 -3.73103,0.53541 -5.57031,1.5293 4.20357,-0.12286 9.11434,0.26065 12.88086,0.1875 -2.46339,-1.15317 -4.90077,-1.78712 -7.31055,-1.7168 z M 318.30273,326.25 c -5.42987,1.03989 -8.27148,4.45117 -8.27148,4.45117 l 1.54297,1.27735 c 0,0 2.51552,-3.01841 6.72851,-5.72852 z m 37.17774,0.82227 c -3.01403,0.0984 -5.98177,1.06699 -8.7832,3.19335 0,0 7.48738,-3.97874 16.9707,0.63477 l 0.87891,-1.80078 c -2.9911,-1.35385 -6.05238,-2.12572 -9.06641,-2.02734 z m 26.21484,0.7539 c -2.99288,0.0408 -5.82166,0.94024 -8.47851,3.24414 5.67823,-2.05025 12.83948,-1.75123 17.94531,-1.33593 -3.31695,-1.13097 -6.47392,-1.94896 -9.4668,-1.90821 z m 63.89453,0.98047 c -3.02058,-0.0782 -6.05064,0.67991 -9.07617,2.14453 0,0 6.75056,-1.87915 16.09961,-0.3789 -2.33031,-1.13765 -4.67409,-1.70477 -7.02344,-1.76563 z m -117.14257,1.11914 c -2.96588,0.0967 -5.82907,0.81732 -8.00391,2.21484 3.88347,-0.29097 6.68244,-0.38529 8.71484,-0.2871 -3.79767,2.26555 -7.43133,2.62 -11.92578,3.23632 5.91572,1.54154 13.09458,-0.48395 16.53906,-4.67578 -1.72753,-0.37959 -3.54469,-0.54629 -5.32421,-0.48828 z M 383.5,332.6582 c -2.71078,10e-4 -5.34677,0.94011 -7.60742,2.9668 0,0 6.3783,-2.37779 13.92578,-1.33984 -2.05608,-1.06178 -4.20997,-1.62798 -6.31836,-1.62696 z m -27.62305,1.05078 c -3.35161,0.006 -6.63982,1.09182 -9.71875,3.52149 0,0 7.80262,-4.22443 16.70508,0.0996 l 0.87891,-1.80078 c -2.6129,-1.17658 -5.25842,-1.82505 -7.86524,-1.82032 z m 90.35938,0.44336 c -1.47544,-0.0363 -2.90894,0.39257 -4.2168,1.45704 3.53044,-0.3082 7.41463,0.79799 9.94336,0.63867 -1.8637,-1.23175 -3.82956,-2.04907 -5.72656,-2.09571 z m -88.86133,5.67774 c -3.91365,-0.0862 -7.7769,0.92686 -11.48242,3.29492 0,0 8.76628,-3.45177 17.87304,-0.13281 l 0.68555,-1.875 c -2.36207,-0.78797 -4.72798,-1.23539 -7.07617,-1.28711 z m 89.86328,1.93164 c -0.55863,-0.0389 -1.10999,0.0226 -1.63476,0.19336 2.22019,1.6424 4.22504,2.3928 6.35937,2.59765 -1.30607,-1.65829 -3.04872,-2.67439 -4.72461,-2.79101 z m -3.16016,2.99414 c 1.94679,1.86919 4.35723,2.52397 7.08008,3.01172 -1.93979,-2.20891 -4.21598,-3.02592 -7.08008,-3.01172 z m -1.63476,3.44336 c 2.28038,1.86843 5.03681,2.74617 7.91406,3.05273 -2.30428,-2.19145 -4.8533,-3.06936 -7.91406,-3.05273 z m -3.60547,2.7832 c 0,0 6.49735,2.649 9.91016,3.48047 -3.01572,-2.91854 -9.91016,-3.48047 -9.91016,-3.48047 z m 3.21484,4.82031 c 0,0 5.86313,3.38956 8.57032,3.75 -2.11427,-2.31813 -8.57032,-3.75 -8.57032,-3.75 z m -5.35937,1.875 c 0,0 6.89139,2.567 13.66406,5.625 -6.08446,-4.97771 -13.66406,-5.625 -13.66406,-5.625 z m 2.68555,4.28125 c -0.17576,-6.2e-4 -0.27149,0.004 -0.27149,0.004 0,0 5.15231,1.47942 10.71485,5.625 -4.039,-5.27887 -9.21308,-5.62452 -10.44336,-5.62891 z m -2.14649,3.21875 c 0,0 4.32158,1.97371 9.64453,5.625 -4.31991,-5.45585 -9.64453,-5.625 -9.64453,-5.625 z m -5.625,2.41407 c 0,0 6.51906,1.74932 13.39063,6.6914 -5.98556,-6.84362 -13.39063,-6.6914 -13.39063,-6.6914 z m -1.07422,8.74804 c -3.84683,7.59084 -9.64928,19.3793 -21.0664,25.08789 -11.87244,5.93621 -17.23438,11.87305 -17.23438,11.87305 0,0 6.42799,-4.23839 18.12696,-10.08789 12.15434,-6.07718 19.58862,-18.24248 20.17382,-26.87305 z m 5.09375,2.67774 c 0,0 -2.20837,15.35245 -20.57226,25.36914 -7.58653,4.83893 -16.30018,9.21535 -20.68555,17.23437 6.54337,-6.4926 15.35978,-12.01255 21.64453,-15.47656 19.10037,-10.41838 19.61328,-27.12695 19.61328,-27.12695 z m -105.62304,1.87304 c 0,0 4.31293,2.48092 7.49023,4.5 -9.23098,-4.14222 -14.01172,-2.17773 -14.01172,-2.17773 0,0 17.0311,0.34529 28.66211,16.07227 -2.33871,-5.33967 -5.82735,-8.52959 -9.68164,-11.20508 -4.72938,-6.04186 -12.45898,-7.18946 -12.45898,-7.18946 z m 110.17382,0 c 0,0 -2.22778,15.96833 -19.24023,25.65235 -17.56981,10.00127 -24.9736,20.65431 -24.15039,21.22265 0,0 7.88702,-9.66812 25.13867,-19.48828 17.80891,-10.13741 18.25195,-27.38672 18.25195,-27.38672 z m -105.37695,27.9668 c 0,0 3.08453,6.32188 11.27734,5.8711 1.67444,1.62162 3.18083,3.42889 5.77149,3.97851 -1.39505,-2.35276 -2.85856,-3.83413 -4.98633,-5.76562 -8.06735,0.5571 -12.0625,-4.08399 -12.0625,-4.08399 z m 9.78711,11.19531 c 0.96562,-0.0797 1.95493,-0.19526 3.01758,-1.35351 -8.99147,-0.62808 -15.07422,-5.67188 -15.07422,-5.67188 0,0 1.59299,2.86292 5.38867,4.61133 -6.48915,-1.09373 -11.97511,-3.46379 -16.75586,-8.40234 4.65048,7.30766 13.39274,11.02606 21.39844,10.93164 0.13008,0.49484 0.22878,1.00514 0.33594,1.51172 -2.83336,0.46044 -3.99475,1.50707 -10.80469,0.43945 -7.20762,-1.12996 -13.58008,-7.57812 -13.58008,-7.57812 0,0 4.89022,9.86436 17.93164,10.11523 0,0 2.93894,4.15472 5.9668,10.07617 -0.48121,-2.90253 -1.34331,-5.14796 -2.1875,-6.78515 1.26836,0.85457 2.54424,1.6604 3.5918,4.06054 -0.0293,9.90276 -1.86548,21.02216 -0.33399,31.91895 0.27102,-15.05877 4.35485,-30.88784 1.10547,-43.87403 z m 11.48438,-8.35742 c 0,0 1.40261,10.38869 2.14062,17.67969 1.27371,-7.70904 -2.14062,-17.67969 -2.14062,-17.67969 z m 28.35784,2.14411 c 1.14403,2.42469 1.49878,4.50243 2.98297,7.76996 0.58249,-3.41055 -1.51541,-6.84645 -2.98297,-7.76996 z m -17.11175,0.26605 c -3.14529,4.59614 -3.00979,9.54399 -2.08203,14.83789 1.19212,-4.63171 0.74507,-10.18367 2.08203,-14.83789 z m -13.01758,35.58398 c 0.75969,-17.85301 -0.9082,-33.08593 -0.9082,-33.08593 0,0 -0.33629,15.24314 -1.0918,32.99804 -0.75987,17.85691 -0.0122,33.4494 3.65039,44.36523 -1.6407,-11.05499 -2.40575,-26.52641 -1.65039,-44.27734 z m 7.12695,-32.09961 c 0,0 -0.47229,6.74744 0.26563,12.32032 1.27365,-5.67714 -0.26563,-12.32032 -0.26563,-12.32032 z m 28.92969,3.21484 c 0,0 -7.45947,17.72584 -4.55371,34.55469 -0.84425,-16.38544 4.55371,-34.55469 4.55371,-34.55469 z m -42.32422,0.8047 c -0.0614,12.50036 -4.76558,27.36471 -1.33496,60.80077 -1.41983,-33.34735 3.31324,-47.84349 1.33496,-60.80077 z m 2.6836,1.07031 c 0,0 -1.27344,9.0791 -0.27247,16.33593 1.00098,-7.20747 0.27247,-16.33593 0.27247,-16.33593 z m 56.71093,114.33789 c -6.07838,-22.79392 -15.88964,-50.42329 -17.01367,-72.9043 -1.12906,-22.5812 2.08789,-39.02344 2.08789,-39.02344 0,0 -5.2336,16.25122 -4.08984,39.12696 1.14879,22.97582 11.03857,50.6554 17.08203,73.31836 6.73956,24.69392 7.51641,54.64657 19.14941,69.43652 -9.21083,-23.21543 -12.22162,-51.09879 -17.21582,-69.9541 z M 333.47656,426.66406 c 0,0 3.68003,4.54006 7.00782,11.36133 -1.59671,-7.95225 -7.00782,-11.36133 -7.00782,-11.36133 z m 86.72265,148.10547 c -2.2153,-11.79258 -4.39186,-25.28159 -8.23828,-37.41992 -7.55516,-23.84198 -14.13677,-52.41715 -16.25391,-68.38477 -2.11714,-15.96762 -1.23417,-30.90223 -0.73658,-40.65398 -3.18826,11.43013 -3.20888,25.28707 -1.24193,40.90398 1.96695,15.61691 8.74236,44.8263 16.32031,68.74024 3.78308,11.93847 5.96517,25.35367 8.1875,37.18359 2.22232,11.82989 4.89489,21.87564 9.43749,27.29394 -2.93033,-5.75016 -5.25927,-15.8705 -7.4746,-27.66308 z M 398.12793,431.58594 c -5.86396,23.64525 1.48099,43.23504 1.51269,43.1875 0,0 -3.51875,-22.45037 -1.51269,-43.1875 z m 11.20605,130.49413 c -4.11579,-20.20664 -8.73144,-37.20729 -15.17773,-57.6836 -6.38169,-20.27126 -8.15332,-43.26172 -8.15332,-43.26172 0,0 -0.2487,23.21946 6.24902,43.85938 6.43325,20.43489 11.02376,37.34932 15.125,57.48438 3.23539,15.88425 4.7657,36.14527 10.82519,43.36035 -6.3371,-17.32238 -5.58696,-27.64969 -8.86816,-43.75879 z m 9.86133,-11.68554 c -2.31243,-16.18707 -12.93945,-42.66016 -13.87012,-42.28808 0,0 9.65058,26.93469 11.88379,42.56738 2.27536,15.92749 4.93211,31.56867 12.73731,44.55761 -5.83186,-13.52757 -8.48065,-28.9446 -10.75098,-44.83691 z m 34.36622,79.05957 c -17.59007,-3.57544 -25.00586,-16.28906 -25.00586,-16.28906 0,0 6.2304,14.56114 25.00586,16.28906 z m 9.46777,8.33008 c -14.40919,-3.75771 -28.00929,-10.72632 -37.88087,-20.58497 7.24291,10.00473 27.91081,22.18637 37.88087,20.58497 z m -5.30469,4.54785 c -6.80268,-1.35039 -12.40005,-3.99835 -17.64942,-6.38282 5.28722,4.80391 12.2186,7.14003 17.64942,6.38282 z m 79.93164,15.1504 c -2.6314,-9.07222 -11.13476,-15.56056 -11.74415,-14.77052 0,0 7.55694,7.17523 11.74415,14.77052 z m 4.92383,-2.27247 c -1.83259,-4.95451 -4.79258,-9.40654 -9.74805,-11.0293 3.77815,3.42603 7.00597,8.20275 9.74805,11.0293 z m -15.53223,-6.43848 c -17.33177,3.48806 -35.60547,-0.75977 -35.60547,-0.75977 0,0 18.08701,6.36311 35.60547,0.75977 z m -117.85156,0.95996 c -4.00636,0.75265 -7.6705,1.66007 -11.78516,1.61036 3.82516,1.99094 8.83515,1.0067 11.78516,-1.61036 z m 115.95801,4.7207 c -14.87346,2.08733 -28.1525,0.33074 -42.42676,-3.02929 13.1997,4.31444 29.34502,8.00465 42.42676,3.02929 z m -120.51172,3.584 c -4.93465,0.35797 -9.63354,0.66247 -14.53907,0.62011 4.75211,2.20018 10.85505,1.46913 14.53907,-0.62011 z m 117.48242,0.20315 c -9.52398,1.47007 -18.62419,1.96721 -28.03223,0 8.99689,3.20277 19.70917,3.99745 28.03223,0 z m -142.18555,4.38183 c 1.40989,0.66704 3.09372,1.28224 5.01953,1.73243 -8.96485,0.58019 -18.08691,-4.17578 -18.08691,-4.17578 0,0 5.75435,5.06086 13.59863,6.02343 -5.46391,0.41292 -10.37891,-0.3955 -10.37891,-0.3955 0,0 9.70892,5.26221 18.9755,-0.46493 1.47762,-0.26496 3.2282,-0.23036 6.73358,-1.28023 -6.10319,-0.68965 -13.84195,-2.03603 -19.12909,-4.50298 0.36631,1.4768 1.64603,2.29632 3.26767,3.06356 z m 145.21094,0.16504 c -11.4567,3.5523 -22.16719,3.31092 -33.71289,1.89356 10.77398,2.77053 24.33923,3.9799 33.71289,-1.89356 z M 367.5,670.96878 c -4.5141,1.31974 -9.12467,1.47688 -13.11719,0.36914 -5.63022,-1.56215 -10.27637,-3.39062 -10.27637,-3.39062 0,0 3.79052,3.66618 9.74512,5.31835 5.80678,1.61114 13.28218,1.96582 19.68354,-3.44435 0,0 -16.71338,1.20988 -26.48242,-5.62402 6.30816,6.56374 14.68612,6.96822 20.44732,6.7715 z m 34.46582,-6.77244 c -7.78519,3.91442 -15.20842,5.89235 -23.83984,6.96192 7.88195,0.68274 18.96354,-1.24866 23.83984,-6.96192 z m -6.74317,8.44141 c -7.64731,1.70178 -14.50837,2.20327 -22.34863,1.88965 7.08021,1.8789 16.68292,2.39961 22.34863,-1.88965 z m -6.94335,7.08692 c 1.09283,0.42786 8.74612,3.63831 19.51758,13.71484 11.99398,11.22021 30.06181,16.56006 52.56054,16.94141 22.18481,0.37599 30.91993,5.9092 37.52148,8.09082 -5.52032,-3.8793 -14.96991,-9.70924 -37.48437,-10.09082 -22.20049,-0.37629 -39.73847,-5.65174 -51.23047,-16.40234 -7.85709,-7.35019 -14.20414,-11.16114 -17.63476,-12.92579 1.98546,-0.49431 4.00723,-1.16208 5.59081,-3.00781 -12.14545,4.58978 -25.00586,1.89356 -25.00586,1.89356 0,0 7.1572,3.17068 16.16505,1.78613 z m 28.65039,14.88867 c 7.3734,6.20916 16.7123,9.70703 27.5332,8.70703 -10.39234,-1 -19.22866,-4.32176 -26.25,-10.23437 -7.28905,-6.13818 -15.41699,-9.46387 -15.41699,-9.46387 0,0 7.0282,5.00754 14.13379,10.99121 z m -6.38672,7.24219 c 13.89577,10.03585 31.55284,12.69182 50.57422,13.07226 18.73406,0.37471 28.8037,5.43848 28.8037,5.43848 0,0 -9.61996,-7.05553 -28.76659,-7.43848 -18.85932,-0.37723 -36.05915,-3.02728 -49.4375,-12.68945 -13.78832,-9.95818 -30.12891,-14.72266 -30.12891,-14.72266 0,0 15.46927,6.60016 28.95508,16.33985 z m 104.0039,2.97851 c -13.76447,-7.80459 -26.51562,-7.57714 -26.51562,-7.57714 0,0 17.21554,4.63034 26.51562,7.57714 z m -6.44043,4.16699 c -7.56436,-4.61536 -15.44142,-6.76735 -23.9209,-7.08593 7.95046,2.33495 16.80487,4.70259 23.9209,7.08593 z m -6.44141,4.92283 c -8.06701,-5.22142 -16.5458,-8 -25.78027,-8.3623 8.64252,2.44665 18.22996,5.35686 25.78027,8.3623 z"
           transform="scale(0.26458333)"
           sodipodi:nodetypes="sccssccsccccsccssccsccccscccssccssccssccccssccsscccssscsssccssccscccccccccccccscsccscccccscscsccccccccsccccscscccccccccccccsccccccccccccccccscccscccccccccccscscccscccscssszczcccsccccccccccccsccccccccccccccccccccccccccccccccccccccccccccscccccsccccccssccccsccsccsccscccccsccccccccc" />
      </g>
      <path
         id="path1587"
         style="font-variation-settings:normal;opacity:1;vector-effect:none;fill:#ffffff;fill-opacity:1;stroke:none;stroke-width:0.498509;stroke-linecap:butt;stroke-linejoin:miter;stroke-miterlimit:4;stroke-dasharray:none;stroke-dashoffset:0;stroke-opacity:1;stop-color:#000000;stop-opacity:1"
         d="m 377.14258,284.10742 c -0.92381,0.008 -1.87807,0.0918 -2.85742,0.26758 -10.44643,1.875 -13.92774,11.78516 -13.92774,11.78516 0,0 -11.60477,-8.72879 -21.42969,-4.28516 -9.82491,4.44362 -11.25,13.92773 -11.25,13.92773 -3.74999,-1.60714 -15.53487,-5.62332 -23.30273,2.14454 -7.76786,7.76785 -8.66602,15.45703 -8.66602,15.45703 0,0 10.00056,-0.69281 11.33985,10.02148 1.33929,10.71429 -1.08391,26.74096 6.60156,33.57422 1.12872,1.00356 2.33891,1.79654 3.58203,2.44336 3.92691,0.59045 5.63672,-0.42188 5.63672,-0.42188 0,0 -3.21984,-0.9466 -7.38672,-5.87109 -4.16688,-4.92449 -4.35527,-16.09998 -3.59765,-25.00195 0.75761,-8.90197 -3.22071,-12.68946 -3.22071,-12.68946 1.51523,-4.73509 8.14453,-9.09179 8.14453,-9.09179 -7.19733,0.18939 -10.22656,6.06054 -10.22656,6.06054 -0.75761,-3.21986 1.70313,-6.43945 1.70313,-6.43945 -3.03046,0.75762 -3.78711,2.65234 -3.78711,2.65234 -2.08345,-2.08343 -3.47266,-2.71484 -3.47266,-2.71484 2.01934,-3.65951 8.9416,-14.63088 27.7168,-7.89258 0,0 6.06084,7.00804 7.19726,15.3418 1.13642,8.33376 2.46792,24.12389 2.27539,32.51758 0,0 1.55455,11.59163 9.79688,15.01367 1.66732,-0.43025 3.42621,-1.3074 4.7832,-3.02148 -0.18939,0.18939 -7.95387,1.32505 -10.79492,-10.41797 -2.84106,-11.74303 0.37875,-28.03079 -0.18945,-33.71289 -0.56821,-5.68211 -9.28125,-18.1836 -9.28125,-18.1836 0,0 4.3572,-5.30338 10.98632,-7.76562 0,0 -5.11446,-0.75663 -9.66015,3.78906 0,0 2.65173,-6.62925 7.76562,-7.95508 5.1139,-1.32582 13.4468,0.9463 19.12891,4.73438 0,0 4.54727,11.55526 6.0625,21.21484 1.51523,9.65958 -0.75755,16.66708 0.18945,28.2207 0.94702,11.55362 0.3763,9.65964 0.94532,14.20508 0.56901,4.54544 7.57734,9.09081 12.12304,5.30274 0,0 -7.0085,-1.3264 -9.66015,-9.66016 -2.65165,-8.33376 -0.1893,-25.94704 0.3789,-32.57617 0.56822,-6.62913 -1.51587,-14.39563 -2.46289,-18.5625 -0.94702,-4.16688 4.54688,-6.25 4.54688,-6.25 0,0 -2.08468,-0.37832 -4.73633,1.89453 0,0 1.32706,-3.78746 4.73633,-5.11328 0,0 -3.40895,-0.1907 -6.25,2.46094 0,0 2.46212,-4.16676 7.00781,-7.00782 0,0 -4.54601,0.3798 -8.71289,3.78907 0,0 0.61703,-8.11123 10.22656,-9.0918 10.31626,-1.05268 16.28944,6.25059 17.80469,8.52344 1.51525,2.27284 3.99784,7.08835 3.45703,21.82031 -0.54066,14.72842 -2.11465,15.45377 0.64648,22.54687 0,0 -0.26699,-10.17857 2.94727,-20.625 3.2143,-10.44643 -0.26882,-14.464 2.67773,-19.01757 0,0 -2.21517,-0.24173 -3.35156,1.46289 0,0 -0.19034,-2.8423 3.59766,-4.73633 0,0 -3.02986,-0.75727 -5.11328,1.32617 0,0 0.3799,-2.84039 4.16797,-4.92383 0,0 -3.78979,-0.56967 -6.63086,1.89258 0,0 0.18932,-5.30288 7.38672,-5.87109 6.28452,-0.49615 11.41353,4.63995 16.64843,7.58984 -2.15599,-4.01181 -5.90119,-8.93863 -11.61523,-9.86523 -9.91072,-1.60715 -15.53516,3.75 -15.53516,3.75 0,0 -6.1597,-7.04047 -15.08984,-6.96485 z m 61.64258,2.98438 c -1.53202,0.0214 -3.39398,0.49665 -5.57032,1.83593 -6.96427,4.28572 -11.51757,13.66211 -11.51757,13.66211 0,0 -2.86162,5.00199 -3.99805,12.57813 -1.13643,7.57614 3.78711,10.60547 3.78711,10.60547 0,0 -2.40071,-8.66389 0.3789,-15.53125 3.21986,-7.95495 6.25126,-13.06765 10.98633,-17.80274 4.73511,-4.73509 9.0918,-0.94726 9.0918,-0.94726 0,0 -3.03084,4.73571 -1.51563,9.84961 0,0 2.46864,-10.02245 8.32032,-13.23047 -0.0472,-0.27209 -0.10306,-0.5226 -0.16797,-0.74219 l -2.8125,-0.27539 c -1.15566,0.89646 -1.83985,2.10352 -1.83985,2.10352 0,0 -1.77215,-2.15245 -5.14257,-2.10547 z m -96.02735,12.60742 c 0,0 -6.6292,0.37873 -7.76562,7.19726 0,0 4.92457,-3.9774 7.76562,-7.19726 z m 81.0625,30 c -0.50495,-0.0104 -1.03163,0.005 -1.57617,0.0527 0,0 -4.73507,12.87884 0,20.07617 0,0 1.51417,-11.17355 3.4082,-17.61328 0,0 2.65272,0.56792 4.16797,-1.13672 0,0 -2.46533,-1.3064 -6,-1.3789 z m -121.61914,43.32812 c -0.48215,0.01 -2.06694,0.05 -2.5,0.0586 0,0 -2.084,16.77002 5.30274,26.24023 7.38674,9.47018 7.00628,18.3715 16.09765,27.46289 9.09138,9.09135 7.76573,8.39667 8.14453,16.54102 0.37881,8.14439 -1.56808,40.50921 -3.71093,56.04492 -2.14286,15.53571 -6.69504,58.92913 -1.33789,89.46484 5.35714,30.53571 10.33689,39.24974 9.10546,54.64258 -0.97024,12.12807 -4.7231,23.26766 5.90821,31.64063 2.64525,0.43847 4.36133,-0.12305 4.36133,-0.12305 0,0 -5.89286,-3.74918 -5.625,-15.80273 0.26785,-12.05356 1.33872,-32.41129 -5.08985,-53.83985 -6.42857,-21.42856 -7.23242,-43.3923 -7.23242,-64.28515 0,-20.89285 5.08929,-44.19812 5.625,-56.51954 0.53573,-12.32141 1.76312,-42.13589 0.42383,-48.56445 -1.33929,-6.42856 -7.38728,-9.29159 -12.47656,-16.25586 -5.08929,-6.96427 -5.35826,-16.3387 -12.05469,-23.03515 -5.49726,-5.49725 -5.21768,-18.96806 -4.94141,-23.66993 z M 443.9707,605.65625 c 0,0 2.85015,10.82756 31.68946,9.85547 28.83927,-0.97217 37.01787,11.988 59.25,21.63086 21.26006,9.22122 31.26899,-5.54109 62.55273,6.26562 0.79679,-1.30992 1.58019,-2.62299 2.34961,-3.9414 -6.80614,-4.65152 -16.98733,-8.53692 -33.49609,-5.84766 -22.56155,3.67521 -26.27402,2.93908 -44.32032,-9.0918 -18.04633,-12.03087 -28.13482,-15.14653 -43.57421,-14.55273 -15.43941,0.5938 -26.47248,1.42323 -34.45118,-4.31836 z"
         transform="scale(0.26458333)" />
      <path
         id="path1592"
         style="color:#000000;font-style:normal;font-variant:normal;font-weight:normal;font-stretch:normal;font-size:medium;line-height:normal;font-family:sans-serif;font-variant-ligatures:normal;font-variant-position:normal;font-variant-caps:normal;font-variant-numeric:normal;font-variant-alternates:normal;font-variant-east-asian:normal;font-feature-settings:normal;font-variation-settings:normal;text-indent:0;text-align:start;text-decoration:none;text-decoration-line:none;text-decoration-style:solid;text-decoration-color:#000000;letter-spacing:normal;word-spacing:normal;text-transform:none;writing-mode:lr-tb;direction:ltr;text-orientation:mixed;dominant-baseline:auto;baseline-shift:baseline;text-anchor:start;white-space:normal;shape-padding:0;shape-margin:0;inline-size:0;clip-rule:nonzero;display:inline;overflow:visible;visibility:visible;opacity:1;isolation:auto;mix-blend-mode:normal;color-interpolation:sRGB;color-interpolation-filters:linearRGB;solid-color:#000000;solid-opacity:1;vector-effect:none;fill:#ffffff;fill-opacity:1;fill-rule:nonzero;stroke:none;stroke-width:3.76825;stroke-linecap:butt;stroke-linejoin:miter;stroke-miterlimit:4;stroke-dasharray:none;stroke-dashoffset:0;stroke-opacity:1;color-rendering:auto;image-rendering:auto;shape-rendering:auto;text-rendering:auto;enable-background:accumulate;stop-color:#000000;stop-opacity:1"
         d="m 423.27344,352.17969 c -6.79001,-0.14081 -13.10717,6.01306 -15.68555,11.6582 6.38238,-5.48551 10.0877,-11.07711 21.42969,-9.91016 -1.90339,-1.1758 -3.84294,-1.70862 -5.74414,-1.74804 z m -4.16602,4.69336 c -4.9214,2.08136 -7.76953,8.84375 -7.76953,8.84375 0,0 4.6552,-5.56798 7.76953,-8.84375 z m -20.62695,8.84375 c -17.92341,3.44937 -27.32031,21.96093 -27.32031,21.96093 0,0 10.95805,-16.83885 27.32031,-21.96093 z m 4.55469,3.21093 c -8.19475,0.70043 -14.43185,4.13563 -19.19532,8.21485 -8.9075,7.62799 -10.83282,13.3153 -12.67968,19.7793 0,0 6.04051,-12.18734 15.60742,-19.75196 -1.91225,2.08971 -2.28041,3.18847 -3.15039,5.55469 4.9305,-4.54077 11.34264,-11.60041 19.41797,-13.79688 z m 6.16211,0 c -3.09325,1.04395 -3.7845,4.56394 -1.875,6.69532 0.18822,-2.67821 0.54192,-4.38364 1.875,-6.69532 z m 1.60546,2.16016 c -2.21113,0.99762 -2.15813,4.11476 -1.07031,5.87891 0.9484,-1.78163 0.94684,-3.52323 1.07031,-5.87891 z m -7.76562,1.32031 c -11.02475,3.71695 -17.08951,10.09531 -20.5293,15.39258 -1.96583,3.02277 -3.67862,6.93044 -3.62695,11.70899 1.50257,-4.34857 3.50822,-7.77981 5.30859,-10.61719 3.25663,-5.01521 8.97955,-11.09417 18.84766,-16.48438 z m -97.36719,1.47657 c 0,0 -2.5789,10.13527 2.54297,17.00781 -2.87854,-6.99054 -0.29214,-12.82775 -2.54297,-17.00781 z m 97.90235,1.73828 c -17.70903,7.60025 -20.89454,24.10937 -20.89454,24.10937 0,0 4.85359,-15.10251 20.89454,-24.10937 z m -93.21094,5.6289 c -0.71271,3.1618 -0.53401,6.93726 2.13672,8.83594 -0.65302,-3.27269 -0.9742,-5.83488 -2.13672,-8.83594 z m 72.3164,2.94532 c -5.81848,4.40056 -7.23046,13.125 -7.23046,13.125 0,0 3.40609,-7.88266 7.23046,-13.125 z m -42.21875,9.11718 c -0.20873,-0.002 -0.42497,0.006 -0.64648,0.0234 2.59152,2.23937 4.13116,3.99726 5.63477,5.58984 -0.1664,-3.44611 -1.85729,-5.58466 -4.98829,-5.61328 z m -4.38671,0.25782 c 0,0 5.80374,3.96503 7.76953,9.91015 0.2866,-7.91138 -7.76475,-9.91495 -7.76953,-9.91015 z m 32.41015,8.30078 c -2.7352,2.70262 -3.48437,5.89453 -3.48437,5.89453 0,0 2.46958,-2.16864 3.48437,-5.89453 z m 2.41016,0.80468 c 0,0 -2.24311,2.48772 -2.94531,5.08985 2.51208,-1.68359 2.94531,-5.08985 2.94531,-5.08985 z m -53.30078,5.625 c 0,0 -0.0323,5.9052 4.55078,7.23438 -2.38133,-2.42075 -4.55078,-7.23441 -4.55078,-7.23438 z m 57.49609,17.85743 c 0,0 -3.31657,11.60372 0.64844,23.17773 0.48316,-11.69042 1.38672,-22.05664 1.38672,-22.05664 0,0 -1.81281,5.7436 -1.8711,12.67187 -0.0529,-7.69869 -0.16406,-13.79296 -0.16406,-13.79296 z m -3.34766,0.78711 c -2.35062,7.64118 -2.67434,16.48619 -0.13671,23.32226 -0.30599,-8.18063 -0.48118,-15.67488 0.13671,-23.32226 z m -12.1875,4.83789 c -2.25213,2.70259 -1.31639,17.45873 1.07032,30 -0.33468,-12.58583 -1.07032,-30 -1.07032,-30 z m 3.21094,0.53515 c -0.97402,7.40686 -0.4472,22.90472 1.34375,30.53907 0.43085,-11.27373 -0.21218,-20.47948 -1.34375,-30.53907 z m 2.95313,1.34375 c -0.5468,6.79423 -1.6059,13.16154 0.79687,20.08594 0.24552,-7.17264 0.2161,-12.99717 -0.79687,-20.08594 z m -16.72266,0.67188 c 0,0 -0.61917,24.72429 0.64844,31.73437 0.73529,-6.91162 0.82383,-28.78986 -0.64844,-31.73437 z m -3.09961,52.89648 c -1.62819,4.23111 -2.84557,12.59214 -3.31445,18.01172 -1.27576,14.74568 -0.18091,30.60693 3.04297,43.32617 -1.42334,-21.24903 -1.3239,-39.47941 0.27148,-61.33789 z m -4.58984,4.33594 c -0.79669,14.41878 -1.24629,28.85204 -1.25781,43.18359 0,17.06113 0.76019,26.18617 2.77539,32.95508 -1.01526,-6.86812 -1.77149,-15.92358 -1.77149,-32.95508 -0.16494,-15.10972 0.69272,-28.18472 0.25391,-43.18359 z m -2.27344,0.75195 c 0.21332,21.37123 -2.69005,41.59365 -2.01172,62.52539 0.7369,20.90336 6.02796,42.748 8.83008,46.95118 0,0 -7.07827,-26.25969 -7.83203,-46.98829 -1.67198,-21.72306 3.52237,-40.88801 1.01367,-62.48828 z m -4.38867,10.18164 c -4.8597,5.46717 -3.89806,23.76423 -3.75,37.49805 2.06949,-13.87423 3.75,-37.49805 3.75,-37.49805 z m -3.74805,39.64453 c -1.74802,3.84394 -3.54846,14.71722 0.80274,25.44336 -1.12684,-11.51474 -0.80274,-25.44336 -0.80274,-25.44336 z m 42.32227,9.90821 c -0.63121,8.52472 0.23086,18.46331 2.94531,26.51953 -0.71093,-9.3044 -1.63026,-17.50003 -2.94531,-26.51953 z m 3.44726,1.01758 c 0,0 -0.50223,25.50175 8.06446,38.89257 -5.11079,-15.18447 -5.81342,-34.76567 -8.06446,-38.89257 z m -44.96679,19.87304 c -1.86223,6.20742 2.17681,38.40562 9.10546,45.80469 -5.11054,-15.86676 -9.10546,-45.80469 -9.10546,-45.80469 z m 9.98828,0.82031 c 0.42767,7.00313 3.0621,19.23752 6.4414,26.51954 -2.12508,-9.4859 -4.89248,-18.33727 -6.4414,-26.51954 z m 3.02929,0 c 0.36488,6.09113 1.40793,12.42008 3.78711,18.56446 -1.0533,-6.9134 -2.60355,-12.27048 -3.78711,-18.56446 z m 140.70313,44.53907 c -2.95919,-0.0512 -5.95196,0.25214 -8.99024,0.98047 0,0 12.20844,-1.11424 28.12891,3.7539 -6.28395,-2.79341 -12.62845,-4.62185 -19.13867,-4.73437 z M 408.75,618.48047 c 0,0 9.80162,5.48533 14.46484,15.53906 C 419.30662,623.18045 408.75,618.48047 408.75,618.48047 Z m -3.86133,0.25 c -0.0905,-0.0136 -0.14505,-0.005 -0.1582,0.0234 0,0 10.07821,5.20824 15.80469,16.0664 -4.67604,-10.9142 -14.28959,-15.88525 -15.64649,-16.08984 z m -4.81055,0.53125 c -0.099,-0.0129 -0.1562,-0.005 -0.16796,0.0234 0,0 11.44715,5.25716 17.41015,15.53906 -4.95659,-10.44996 -15.75653,-15.3686 -17.24219,-15.5625 z m 84.69141,2.29101 c -3.68438,-0.0102 -7.34727,0.39802 -11.01758,1.48243 0,0 10.41543,-1.12477 24.96094,2.04882 6.84748,1.92817 14.14353,3.57266 20.30469,7.59571 -5.02141,-5.25324 -13.52867,-8.13375 -19.87696,-9.55274 -4.86328,-0.85607 -9.63402,-1.56109 -14.37109,-1.57422 z m -87.53906,0.14258 c 6.35327,3.00144 12.7757,8.53435 17.14453,13.125 -4.56945,-5.96764 -9.89921,-11.10771 -17.14453,-13.125 z m 65.62891,2.41016 c -0.23736,0.9863 0.0112,2.85396 1.86718,4.91992 1.85586,2.06597 5.10304,4.47667 9.64649,6.2168 4.54348,1.74013 7.41724,3.07723 11.25195,3.86719 -8.34248,-3.39599 -13.08396,-7.03516 -15.70117,-9.91407 -1.32401,-1.51177 -2.43645,-3.066 -3.58399,-4.82031 0.16857,2.07647 1.60005,4.10775 2.84571,5.49219 0.43169,0.47486 1.7799,1.38623 5.18359,4.5664 -5.45359,-2.64166 -8.07277,-5.15531 -8.89648,-6.07226 -1.69323,-1.88493 -1.84026,-3.36714 -2.61328,-4.25586 z M 459.375,624.375 c 0,0 0.30957,2.21472 2.53125,4.8125 2.2218,2.59778 7.47005,6.76851 11.93359,7.77734 -5.48908,-2.84099 -9.04097,-5.93623 -11.17187,-8.42773 -2.1309,-2.4915 -3.29297,-4.16211 -3.29297,-4.16211 z m 24.99023,0.95117 c -4.52097,0.0288 -9.06653,0.48636 -13.83007,1.45899 0,0 16.90596,-1.10444 31.10742,2.31445 14.20316,3.41922 21.74686,11.2349 22.46289,10.54101 0,0 -7.27259,-8.94522 -21.99805,-12.49023 -6.15634,-1.19021 -11.92951,-1.86121 -17.74219,-1.82422 z m -27.40039,0.38867 c 0,0 -0.5603,1.48989 0.53516,3.39844 1.09561,1.90859 3.33936,4.25558 8.03516,5.70703 -4.14361,-2.29852 -6.18381,-4.50147 -7.16407,-6.20898 -0.98022,-1.70752 -1.40625,-2.89649 -1.40625,-2.89649 z m -107.95703,8.53321 c 0,0 -0.33403,3.57057 0.2168,11.33984 0.55082,7.76931 2.03476,15.85167 9.0625,16.50391 -5.56203,-3.55374 -5.5828,-9.39246 -6.39258,-16.3711 -0.80979,-6.97863 -2.88672,-11.47265 -2.88672,-11.47265 z m 2.27344,0.38086 c 0.57996,5.50964 1.22216,7.81493 2.42187,13.80468 1.19973,5.98976 1.87664,11.04358 6.85743,11.57422 -3.39665,-3.12098 -3.8304,-5.74678 -4.88672,-11.9082 -1.05633,-6.16142 -4.39258,-13.4707 -4.39258,-13.4707 z m 2.14648,1.10351 c 2.19303,6.6542 1.90269,11.7854 5.42774,16.50977 -1.05929,-5.77406 -2.72816,-12.34352 -5.42774,-16.50977 z m 24.04883,5.82031 c 0.35123,1.45765 1.33646,3.47548 2.12891,6.77735 0.85625,3.39398 1.76373,6.70654 3.79492,9.77344 -0.99281,-3.09695 -2.04566,-6.80322 -2.82617,-10.00391 -0.81468,-3.39455 -1.84177,-5.52689 -3.09766,-6.54688 z m -1.67187,1.16993 c 0.40916,1.74175 1.39438,4.0265 1.91992,7.17968 0.65102,3.15818 1.49558,6.27507 4.24023,7.95704 -1.77585,-2.29611 -2.85161,-5.77091 -3.25976,-8.1211 -0.54592,-3.27538 -1.56847,-5.67699 -2.90039,-7.01562 z m 4.48437,0.43554 c 0.27666,1.63892 1.20221,3.74387 1.9961,6.78711 0.8657,3.01508 1.78492,5.95755 3.96484,8.17969 -1.21206,-2.61517 -2.35252,-5.9996 -2.99609,-8.42969 -0.81324,-3.11747 -1.76836,-5.29655 -2.96485,-6.53711 z m 192.50391,0.72657 c -4.45237,0.0638 -8.78496,0.96569 -12.79297,3.25585 7.37677,-1.70474 16.53536,-1.92711 23.30469,-2.14062 -3.51367,-0.70778 -7.04877,-1.16486 -10.51172,-1.11523 z m 2.66406,3.19726 c -5.309,0.0715 -10.58621,1.19739 -15.72656,3.54297 0,0 12.96705,-3.78139 28.125,-1.875 -4.12134,-1.14099 -8.26922,-1.72355 -12.39844,-1.66797 z m -215.84375,0.61524 c 0,0 -1.38659,10.51334 5.49414,10.04101 -3.3182,-3.51655 -3.02316,-7.57003 -5.49414,-10.04101 z m 218.75977,2.20898 c -6.31891,-0.11889 -12.60678,1.24373 -18.64063,4.20313 0,0 14.33681,-4.84366 30,-2.41407 -3.76551,-1.1133 -7.56803,-1.71773 -11.35937,-1.78906 z M 423.75,669.10547 c 0,0 4.42557,3.70794 11.05078,7.17187 6.62517,3.46394 15.1628,7.11467 22.96484,7.29688 -7.46581,-1.15703 -15.93322,-4.75023 -22.5,-8.1836 -6.56677,-3.43339 -11.51562,-6.28515 -11.51562,-6.28515 z m 3.24805,6.66211 c 3.82737,3.02551 9.83428,6.00052 17.79101,8.02344 15.79748,4.01631 19.94141,4.86914 19.94141,4.86914 0,0 -3.88957,-1.82239 -19.69922,-5.8418 -7.84683,-1.99495 -13.75788,-4.92 -18.0332,-7.05078 z m 4.78711,5.39258 c 0,0 8.9,6.09741 19.47656,7.72461 10.41214,1.60183 17.21875,3.25976 17.21875,3.25976 0,0 -6.5818,-2.63566 -17.0625,-4.24805 -10.3163,-1.58713 -19.63281,-6.73632 -19.63281,-6.73632 z m 83.23242,2.79882 c -0.94912,0.003 -1.5332,0.1504 -1.5332,0.1504 0,0 3.87446,-0.0267 8.30078,2.40624 -2.59063,-2.16153 -5.18572,-2.56087 -6.76758,-2.55664 z m -6.92969,2.00977 c -0.32482,0.004 -0.50195,0.0117 -0.50195,0.0117 0,0 11.17346,0.53754 19.01953,4.82031 -6.72837,-4.68994 -16.24384,-4.86203 -18.51758,-4.83203 z m -67.57031,2.41992 c -0.16997,-0.0199 -0.31316,-0.0198 -0.42774,0.002 0.42274,0.70961 3.29941,2.01228 7.00977,3.22657 3.7104,1.21432 8.29782,2.36157 12.54101,1.86328 -4.06038,-0.49826 -8.57671,-1.62 -12.23242,-2.81641 -3.19871,-1.04686 -5.70081,-2.13599 -6.89062,-2.27539 z m 67.99023,0.60156 c -1.2466,-0.0159 -2.05692,0.0796 -2.25781,0.20508 0.80357,0.50196 11.15071,0.51333 20.625,5.08985 -6.9567,-4.20211 -14.62738,-5.24716 -18.36719,-5.29493 z"
         transform="scale(0.26458333)" />
    </g>
  </g>
</svg>
