<?xml version="1.0" encoding="UTF-8" standalone="no"?>
<!-- Created with Inkscape (http://www.inkscape.org/) -->

<svg
   width="500"
   height="543"
   viewBox="0 0 132.29166 143.66875"
   version="1.1"
   id="svg5"
   xml:space="preserve"
   xmlns="http://www.w3.org/2000/svg"
   xmlns:svg="http://www.w3.org/2000/svg"><defs
     id="defs2" /><path
     style="font-variation-settings:normal;vector-effect:none;fill:#000000;fill-opacity:1;stroke:none;stroke-width:0.132292;stroke-linecap:butt;stroke-linejoin:miter;stroke-miterlimit:4;stroke-dasharray:none;stroke-dashoffset:0;stroke-opacity:1;-inkscape-stroke:none;stop-color:#000000"
     d="m 0,3.0814976e-4 c 0,0 2.65549,48.95250585024 4.65972,86.04554585024 2.00424,37.093046 34.014667,57.622896 61.486107,57.622896 27.471445,0 59.481873,-20.52985 61.486113,-57.622896 2.00424,-37.09304 4.65972,-86.04554585024 4.65972,-86.04554585024 z"
     id="path1740" /><g
     id="g4218"
     transform="matrix(1.2184071,0,0,1.2190706,-61.067742,-85.703306)"
     style="stroke-width:0.820521"><path
       id="path1742"
       style="color:#000000;opacity:1;fill:#bf9f4f;fill-opacity:1;stroke:none;stroke-width:0.217096;stroke-dasharray:none"
       d="m 50.120971,70.302168 c 0,0 0.169098,3.118921 0.178284,3.288171 l 94.780775,94.412321 c 0.783,-1.02543 1.52787,-2.08872 2.23346,-3.18843 L 52.434008,70.302168 Z" /><path
       id="path1748"
       style="color:#000000;opacity:1;fill:#ffffff;stroke:none;stroke-width:0.217096;stroke-dasharray:none"
       d="m 50.253263,72.745946 c 0.0018,0.03255 0.04363,0.800929 0.04599,0.844393 l 94.780777,94.412321 c 0.11522,-0.15089 0.23004,-0.30224 0.34365,-0.45475 z" /></g><g
     id="g4241"
     transform="matrix(1.2184071,0,0,1.2190706,-47.391895,-86.27275)"
     style="stroke-width:0.820521"><path
       id="path4237"
       style="color:#000000;opacity:1;fill:#bf9f4f;fill-opacity:1;stroke:none;stroke-width:0.217096;stroke-dasharray:none"
       d="m 47.466624,70.769281 90.903496,90.549509 c 0.61559,-1.20131 1.18388,-2.44071 1.70377,-3.71657 L 52.902985,70.769281 Z" /><path
       id="path4239"
       style="color:#000000;opacity:1;fill:#ffffff;stroke:none;stroke-width:0.217096;stroke-dasharray:none"
       d="m 47.466624,70.769281 90.903496,90.549509 c 0.0903,-0.17613 0.1789,-0.3535 0.26717,-0.53123 L 48.268643,70.769281 Z" /></g><g
     id="g4247"
     transform="matrix(1.2184071,0,0,1.2190706,-33.716047,-86.27275)"
     style="stroke-width:0.820521"><path
       id="path4243"
       style="color:#000000;opacity:1;fill:#bf9f4f;fill-opacity:1;stroke:none;stroke-width:0.217096;stroke-dasharray:none"
       d="m 47.466896,70.769281 82.892614,82.569639 c 0.4225,-1.40369 0.78334,-2.84932 1.08624,-4.33101 L 52.90274,70.769281 Z" /><path
       id="path4245"
       style="color:#000000;opacity:1;fill:#ffffff;stroke:none;stroke-width:0.217096;stroke-dasharray:none"
       d="m 47.466896,70.769281 82.892614,82.569639 c 0.0617,-0.20504 0.11853,-0.41341 0.17777,-0.62012 L 48.268914,70.769281 Z" /></g><g
     id="g4270"
     transform="matrix(1.2184071,0,0,1.2190706,-61.067742,-57.873381)"
     style="stroke-width:0.820521"><path
       id="path4266"
       style="color:#000000;opacity:1;fill:#bf9f4f;fill-opacity:1;stroke:none;stroke-width:0.217096;stroke-dasharray:none"
       d="m 51.29661,69.169715 c 0.08786,1.619649 0.205956,3.804185 0.310058,5.723681 l 81.678222,81.359374 c 1.06858,-0.72253 2.11497,-1.48546 3.13365,-2.29133 z" /><path
       id="path4268"
       style="color:#000000;opacity:1;fill:#ffffff;stroke:none;stroke-width:0.217096;stroke-dasharray:none"
       d="m 51.561193,74.049003 c 0.01503,0.277139 0.03012,0.561222 0.04547,0.844393 l 81.678217,81.359374 c 0.15878,-0.10736 0.3187,-0.21273 0.47645,-0.32194 z" /></g><g
     id="g4282"
     transform="matrix(1.2184071,0,0,1.2190706,-60.449964,-71.457348)"
     style="stroke-width:0.820521"><path
       id="path4278"
       style="color:#000000;opacity:1;fill:#bf9f4f;fill-opacity:1;stroke:none;stroke-width:0.217096;stroke-dasharray:none"
       d="m 50.175657,68.052885 -0.04754,0.04806 c 0.04276,0.787961 0.239954,4.435578 0.304374,5.622913 l 88.829199,88.482972 c 0.92633,-0.87444 1.82359,-1.7864 2.68666,-2.73782 z" /><path
       id="path4280"
       style="color:#000000;opacity:1;fill:#ffffff;stroke:none;stroke-width:0.217096;stroke-dasharray:none"
       d="m 50.387014,72.879464 c 0.0092,0.169776 0.0358,0.666093 0.04547,0.844393 l 88.829196,88.482973 c 0.13706,-0.12939 0.27508,-0.25753 0.41083,-0.38861 z" /></g></svg>
