<?xml version="1.0" encoding="UTF-8" standalone="no"?>
<!-- Created with Inkscape (http://www.inkscape.org/) -->

<svg
   width="500"
   height="550"
   viewBox="0 0 132.29166 145.52083"
   version="1.1"
   id="svg5"
   xml:space="preserve"
   xmlns:xlink="http://www.w3.org/1999/xlink"
   xmlns="http://www.w3.org/2000/svg"
   xmlns:svg="http://www.w3.org/2000/svg"><defs
     id="defs2" /><path
     id="path1757"
     style="font-variation-settings:normal;vector-effect:none;fill:#cccccc;fill-opacity:1;stroke:none;stroke-width:0.132652;stroke-linecap:butt;stroke-linejoin:miter;stroke-miterlimit:4;stroke-dasharray:none;stroke-dashoffset:0;stroke-opacity:1;-inkscape-stroke:none;stop-color:#000000"
     d="M 41.400648,0 H 0 L 3.676157,87.126763 C 4.78522,113.41 21.176691,132.09486 41.400648,140.51355 H 90.891021 C 111.11497,132.09486 127.5058,113.41 128.61487,87.126763 130.1567,50.587553 132.29166,0 132.29166,0 H 90.891021 Z" /><path
     id="path1746"
     style="font-variation-settings:normal;vector-effect:none;fill:#045cd2;fill-opacity:1;stroke:none;stroke-width:0.132292;stroke-linecap:butt;stroke-linejoin:miter;stroke-miterlimit:4;stroke-dasharray:none;stroke-dashoffset:0;stroke-opacity:1;-inkscape-stroke:none;stop-color:#000000"
     d="m 42.056693,0 -0.328022,70.388573 0.328022,70.388577 c 7.704663,3.11047 15.941694,4.74368 24.089138,4.74368 8.14745,0 16.38447,-1.63322 24.08914,-4.74368 L 90.562991,70.388573 90.234971,0 Z" /><path
     id="path3291"
     style="font-variation-settings:normal;vector-effect:none;fill:#ffffff;fill-opacity:1;stroke:none;stroke-width:0.132292;stroke-linecap:butt;stroke-linejoin:miter;stroke-miterlimit:4;stroke-dasharray:none;stroke-dashoffset:0;stroke-opacity:1;-inkscape-stroke:none;stop-color:#000000"
     d="m 41.400648,0 v 140.51355 c 0.217878,0.0907 0.437291,0.1772 0.656045,0.26551 V 0 Z" /><path
     id="path52897"
     style="font-variation-settings:normal;vector-effect:none;fill:#003166;fill-opacity:1;stroke:none;stroke-width:0.132292;stroke-linecap:butt;stroke-linejoin:miter;stroke-miterlimit:4;stroke-dasharray:none;stroke-dashoffset:0;stroke-opacity:1;-inkscape-stroke:none;stop-color:#000000"
     d="m 90.891021,0 v 140.51355 c -0.21787,0.0907 -0.43729,0.1772 -0.65605,0.26551 V 0 Z" /><g
     id="g12574"
     style="stroke:none;stroke-width:0.806602"
     transform="matrix(1.2397695,0,0,1.2397695,-45.572041,-83.347146)"><path
       id="path8750"
       style="opacity:1;fill:#75510a;fill-opacity:1;stroke:none;stroke-width:0.106707;stroke-miterlimit:10;stroke-dasharray:none"
       d="m 81.267907,166.25858 c 1.67e-4,0.65484 0.531131,1.18558 1.185974,1.18546 0.654641,-1.7e-4 1.18529,-0.53082 1.185457,-1.18546 z" /><path
       id="path8773"
       style="opacity:1;fill:#ffffff;stroke:none;stroke-width:0.106707;stroke-miterlimit:10;stroke-dasharray:none"
       d="m 82.453881,165.07261 c -0.655042,-1.2e-4 -1.186089,0.53093 -1.185974,1.18597 0,0.48827 0.650315,0.82631 1.185974,0.82631 l 1.185457,-0.82631 c 1.15e-4,-0.65484 -0.530617,-1.1858 -1.185457,-1.18597 z" /><path
       id="path8756"
       style="opacity:1;fill:#bf9f4f;fill-opacity:1;stroke:none;stroke-width:0.106707;stroke-miterlimit:10;stroke-dasharray:none"
       d="m 83.280009,166.25839 a 0.82627316,0.82627316 0 0 1 -0.826274,0.82626 0.82627316,0.82627316 0 0 1 -0.826274,-0.82626 0.82627316,0.82627316 0 0 1 0.826274,-0.82626 0.82627316,0.82627316 0 0 1 0.826274,0.82626 z" /></g><g
     id="g15733"
     style="stroke:none;stroke-width:0.806602"
     transform="matrix(1.2397695,0,0,1.2397695,-45.572041,-83.347146)"><path
       id="path8769"
       style="opacity:1;fill:#75510a;fill-opacity:1;stroke:none;stroke-width:0.106707;stroke-miterlimit:10;stroke-dasharray:none"
       d="m 98.954846,166.25842 a 1.185762,1.185762 0 0 1 -1.185762,1.18576 1.185762,1.185762 0 0 1 -1.185762,-1.18576 1.185762,1.185762 0 0 1 1.185762,-1.18576 1.185762,1.185762 0 0 1 1.185762,1.18576 z" /><path
       id="path8771"
       style="opacity:1;fill:#bf9f4f;fill-opacity:1;stroke:none;stroke-width:0.106707;stroke-miterlimit:10;stroke-dasharray:none"
       d="m 98.595358,166.25842 a 0.82627316,0.82627316 0 0 1 -0.826274,0.82626 0.82627316,0.82627316 0 0 1 -0.826274,-0.82626 0.82627316,0.82627316 0 0 1 0.826274,-0.82626 0.82627316,0.82627316 0 0 1 0.826274,0.82626 z" /><path
       id="path12576"
       style="opacity:1;fill:#ffffff;stroke:none;stroke-width:0.106707;stroke-miterlimit:10;stroke-dasharray:none"
       d="m 98.405799,166.09952 a 0.34374878,0.21345311 45 0 1 -0.393999,-0.0921 0.34374878,0.21345311 45 0 1 -0.09213,-0.394 0.34374878,0.21345311 45 0 1 0.393999,0.0921 0.34374878,0.21345311 45 0 1 0.09213,0.394 z" /></g><path
     id="path7952"
     style="color:#000000;fill:#75510a;fill-opacity:1;stroke:none;stroke-width:0.132292;stroke-dasharray:none"
     d="m 58.621821,137.79693 c 0.147453,0.27408 0.319284,0.52651 0.525349,0.7483 0.678323,0.73007 1.66791,1.08722 2.813816,1.08722 h 8.370975 c 1.14591,0 2.13293,-0.35715 2.81126,-1.08722 0.67832,-0.73007 1.02276,-1.75534 1.14038,-2.99768 0.21774,-2.2997 10.95479,-115.066655 10.95479,-115.066655 l -1.61369,3.456618 z" /><path
     id="path7925"
     style="color:#000000;fill:#ffffff;stroke:none;stroke-width:0.132292;stroke-dasharray:none"
     d="m 51.328449,65.386633 c 0,0 6.460178,67.856847 6.67833,70.160917 0.0819,0.86493 0.277107,1.62123 0.615042,2.24938 0,0 0.451742,0.026 0.558672,-0.82935 0,-0.0389 -0.931839,-71.732357 -0.931839,-71.732357 z" /><path
     style="font-variation-settings:normal;vector-effect:none;fill:#bf9f4f;fill-opacity:1;stroke:none;stroke-width:0.132292;stroke-linecap:butt;stroke-linejoin:miter;stroke-miterlimit:4;stroke-dasharray:none;stroke-dashoffset:0;stroke-opacity:1;-inkscape-stroke:none;stop-color:#000000"
     d="m 84.585571,20.418366 c 0,0 -10.73631,112.755304 -10.95511,115.066294 -0.21881,2.311 -1.26093,3.49185 -3.29939,3.49185 h -8.370606 c -2.038456,0 -3.080577,-1.18085 -3.299385,-3.49185 -0.218809,-2.31099 -6.680005,-70.160627 -6.680005,-70.160627 z"
     id="path3303" /><path
     id="path50518"
     style="color:#000000;fill:#ffffff;stroke:none;stroke-width:0.132292;stroke-dasharray:none"
     d="m 77.429291,3.183482 c -0.81742,-0.133462 -1.69897,-0.17476 -2.6466,-0.102504 -5.84637,0.445761 -9.27807,6.019644 -7.91611,11.14315 0.60499,2.275864 1.9349,3.879959 3.3885,4.948525 l -0.38184,-2.005293 8.08908,-12.723038 z" /><path
     id="path7933"
     style="color:#000000;fill:#ffffff;stroke:none;stroke-width:0.132292;stroke-dasharray:none"
     d="m 52.070343,66.262433 23.771448,-45.863242 -1.70554,0.466746 -24.536326,32.972656 1.141031,12.16629 c 0.06324,0.67397 0.697245,1.0486 1.176267,0.44911 z" /><path
     id="path50516"
     style="color:#000000;fill:#75510a;fill-opacity:1;stroke:none;stroke-width:0.132292;stroke-dasharray:none"
     d="m 77.429291,3.183482 c 0.1316,0.493383 -0.049,0.874376 -0.56543,1.134464 l -7.06838,12.538341 c -0.20602,0.465606 -0.13007,1.428603 0.4596,2.316363 0.17357,0.127597 0.34862,0.249471 0.52471,0.361978 1.20102,0.767331 2.35027,1.124045 3.35646,1.331309 l 1.53056,0.208857 -24.263046,44.969019 0.666578,0.21862 c 0.737554,-0.92328 25.461568,-31.88773 28.429028,-35.603877 3.03798,-3.804466 4.38873,-7.083574 4.73902,-10.177661 0.34198,-3.020629 0.34594,-6.784586 -0.5452,-10.390364 -0.46166,-1.867962 -1.46678,-3.726895 -3.11109,-5.074736 -1.10191,-0.903235 -2.4922,-1.56118 -4.15281,-1.832313 z" /><path
     style="font-variation-settings:normal;vector-effect:none;fill:#bf9f4f;fill-opacity:1;stroke:none;stroke-width:0.132292;stroke-linecap:butt;stroke-linejoin:miter;stroke-miterlimit:4;stroke-dasharray:none;stroke-dashoffset:0;stroke-opacity:1;-inkscape-stroke:none;stop-color:#000000"
     d="m 50.276139,54.028763 1.127626,12.01505 c 0,0 25.599946,-32.05876 28.583386,-35.794921 2.98343,-3.736159 4.26331,-6.870526 4.59842,-9.830526 0.33511,-2.959999 0.33679,-6.669578 -0.5284,-10.170378 -0.8652,-3.500801 -3.76976,-6.92979 -9.22524,-6.513832 -5.45549,0.415957 -8.59273,5.573505 -7.3304,10.322225 1.26233,4.748719 5.83255,6.260265 7.77676,6.376917 z"
     id="path3299" /><path
     style="color:#000000;fill:#75510a;stroke:none;stroke-width:1;-inkscape-stroke:none"
     d="m 60.309601,124.02367 v 0.65379 h 11.80929 v -0.65379 z"
     id="path15772" /><path
     style="color:#000000;fill:#ffffff;stroke:none;stroke-width:1;-inkscape-stroke:none"
     d="m 60.062615,121.52718 v 0.65621 h 12.305676 v -0.65621 z"
     id="path15768" /><path
     id="path3349"
     style="font-variation-settings:normal;vector-effect:none;fill:#75510a;fill-opacity:1;stroke:none;stroke-width:0.112222;stroke-linecap:butt;stroke-linejoin:miter;stroke-miterlimit:4;stroke-dasharray:none;stroke-dashoffset:0;stroke-opacity:1;-inkscape-stroke:none;stop-color:#000000"
     d="m 59.482879,118.01629 -1.372312,0.17618 c 0.59793,0.0863 0.948053,0.38097 1.087856,1.3691 0.210319,1.4866 0.512562,3.07003 0.789944,4.7589 0.277382,1.68886 2.101402,2.07128 3.148887,2.18596 l 0.01215,-0.67335 c -1.214882,-0.12087 -2.357188,-0.45234 -2.563954,-1.95532 -0.206768,-1.50298 -0.306905,-2.55578 -0.588135,-4.54362 -0.0863,-0.61003 -0.264948,-1.02948 -0.514457,-1.31785 z" /><path
     id="path3347"
     style="font-variation-settings:normal;vector-effect:none;fill:#ffffff;fill-opacity:1;stroke:none;stroke-width:0.112222;stroke-linecap:butt;stroke-linejoin:miter;stroke-miterlimit:4;stroke-dasharray:none;stroke-dashoffset:0;stroke-opacity:1;-inkscape-stroke:none;stop-color:#000000"
     d="m 56.938143,117.38202 0.07368,0.77649 c 0.432551,0 0.797146,-0.01 1.098747,0.034 0.55579,0.10216 1.018126,0.0514 1.372312,-0.17618 -0.563535,-0.65131 -1.49063,-0.63427 -2.544736,-0.63427 z m 18.133488,0 c -1.39226,0.004 -2.51365,0.0885 -2.7773,1.95212 -0.28123,1.98784 -0.38137,3.04067 -0.58813,4.54362 -0.20677,1.50298 -1.34908,1.83445 -2.56396,1.95532 -1.21488,0.12088 -2.14025,0.16721 -2.99641,0.16721 -0.85616,0 -1.78153,-0.0464 -2.996405,-0.16721 -0.261406,0.10303 -0.391448,0.62068 -0.01215,0.67335 1.047485,0.11406 2.132065,0.1179 3.008575,0.1179 0.87652,0 1.9611,-0.004 3.00858,-0.1179 1.04749,-0.11468 2.87087,-0.4971 3.14825,-2.18596 0.21733,-1.32322 0.44963,-2.58076 0.64131,-3.77867 h 2.10844 c 0.0161,-0.16933 0.0303,-0.31846 0.0468,-0.4914 h -2.07832 c 0.0249,-0.16396 0.0489,-0.32716 0.0718,-0.48883 0.21032,-1.48657 0.89716,-1.40306 2.18725,-1.40306 l 0.0737,-0.77649 c -0.0951,0 -0.18908,-2.2e-4 -0.2819,0 z m -17.880423,2.66838 c 0.01646,0.17294 0.03065,0.32207 0.04676,0.4914 h 2.109081 c -0.02638,-0.16489 -0.05219,-0.32879 -0.07688,-0.4914 z" /><path
     id="path29591"
     style="color:#000000;fill:#ffffff;stroke:none;stroke-width:1;stroke-linecap:square;-inkscape-stroke:none"
     d="m 63.326891,89.942193 -0.828384,0.53303 3.232814,5.01901 0.82774,-0.53241 z m 7.84499,1.421 -5.31947,8.25757 0.58557,0.909757 5.56228,-8.634287 z" /><path
     id="path16844"
     style="color:#000000;fill:#75510a;fill-opacity:1;stroke:none;stroke-width:1;-inkscape-stroke:none"
     d="m 59.487805,135.02412 c 0,0 -0.317189,1.76607 0.466406,2.9349 -0.0038,-1.31 -0.466406,-2.9349 -0.466406,-2.9349 z m 13.315656,0 c 0,0 -0.46192,1.6249 -0.46576,2.9349 0.78359,-1.16883 0.46576,-2.9349 0.46576,-2.9349 z m -12.509055,0.26203 c 0,0 -0.386472,1.66737 0.281896,2.78947 0.0073,-1.09453 -0.281896,-2.78947 -0.281896,-2.78947 z m 11.703095,0 c 0,0 -0.28985,1.69494 -0.28254,2.78947 0.66837,-1.1221 0.28254,-2.78947 0.28254,-2.78947 z m -9.263428,0.3402 c 0,0 -0.315996,1.58608 0.115956,2.74206 0.344495,-1.09931 -0.115956,-2.74206 -0.115956,-2.74206 z m 6.823758,0 c 0,0 -0.46109,1.64275 -0.1166,2.74206 0.43196,-1.15598 0.1166,-2.74206 0.1166,-2.74206 z m -8.611864,0.01 c 0,0 -0.316054,1.65665 0.155042,2.71195 0.169751,-0.84024 -0.155042,-2.71195 -0.155042,-2.71195 z m 2.672864,0 c -0.16151,0.91524 -0.28084,1.94096 0.13583,2.64405 0.26722,-1.11366 -0.13583,-2.64405 -0.13583,-2.64405 z m 5.0536,0 c 0,0 -0.40241,1.53039 -0.13518,2.64405 0.41666,-0.70309 0.29669,-1.72881 0.13518,-2.64405 z m 2.67351,0 c 0,0 -0.32479,1.87171 -0.15504,2.71195 0.47109,-1.0553 0.15504,-2.71195 0.15504,-2.71195 z m -9.564543,0.01 c 0,0 -0.431716,1.5254 0.136463,2.63443 0.247377,-1.0296 -0.136463,-2.63443 -0.136463,-2.63443 z m 8.729113,0 c 0,0 -0.38448,1.60483 -0.1371,2.63443 0.56817,-1.10903 0.1371,-2.63443 0.1371,-2.63443 z m -5.89159,0.19412 c -0.23672,0.87195 -0.33429,1.76223 0.0884,2.61521 0.11815,-0.94406 0.13028,-1.70722 -0.0884,-2.61521 z m 3.05343,0 c -0.2187,0.90799 -0.20657,1.67115 -0.0884,2.61521 0.42269,-0.85298 0.32513,-1.74326 0.0884,-2.61521 z m -2.04117,0.0679 c -0.16161,0.6479 -0.42149,1.66735 0.10634,2.56717 0.15101,-0.97142 -0.10634,-2.56717 -0.10634,-2.56717 z m 1.02955,0 c 0,0 -0.258,1.59575 -0.10699,2.56717 0.52783,-0.89982 0.26859,-1.91927 0.10699,-2.56717 z" /><g
     id="g28632"
     style="stroke:none;stroke-width:0.806602"
     transform="matrix(1.2397695,0,0,1.2397695,-45.572041,-83.347146)"><path
       id="circle25831"
       style="fill:#75510a;stroke:none;stroke-width:0.106706;stroke-miterlimit:10"
       d="m 82.561196,110.97859 a 1.0771203,1.0771203 0 0 1 -1.077121,1.07712 1.0771203,1.0771203 0 0 1 -1.07712,-1.07712 1.0771203,1.0771203 0 0 1 1.07712,-1.07712 1.0771203,1.0771203 0 0 1 1.077121,1.07712 z" /><use
       x="0"
       y="0"
       xlink:href="#circle25831"
       id="use28698"
       transform="translate(3.4127309,-4.419349)"
       style="stroke:none;stroke-width:0.806602" /><use
       x="0"
       y="0"
       xlink:href="#circle25831"
       id="use28700"
       transform="translate(6.825498,-8.8386985)"
       style="stroke:none;stroke-width:0.806602" /><use
       x="0"
       y="0"
       xlink:href="#circle25831"
       id="use28702"
       transform="translate(10.238265,-13.258047)"
       style="stroke:none;stroke-width:0.806602" /><use
       x="0"
       y="0"
       xlink:href="#circle25831"
       id="use28704"
       transform="translate(13.651032,-17.677396)"
       style="stroke:none;stroke-width:0.806602" /><use
       x="0"
       y="0"
       xlink:href="#circle25831"
       id="use28704-4"
       transform="translate(17.063799,-22.096745)"
       style="stroke:none;stroke-width:0.806602" /><use
       x="0"
       y="0"
       xlink:href="#circle25831"
       id="use28704-4-6"
       transform="translate(20.476566,-26.516094)"
       style="stroke:none;stroke-width:0.806602" /></g><path
     style="color:#000000;fill:#75510a;fill-opacity:1;stroke:none;stroke-width:0.132292;stroke-dasharray:none"
     d="m 62.912632,90.208473 -2.205918,1.42138 5.438517,8.445927 5.44095,-8.445927 -2.20834,-1.42138 -3.23261,5.01961 z"
     id="path28848" /><path
     style="color:#000000;fill:#ea0606;stroke:none;stroke-width:1;stroke-linecap:round;-inkscape-stroke:none"
     d="M 81.187121,21.166391 70.080051,125.08425 c -0.0191,0.18065 0.11227,0.3424 0.29299,0.3608 0.1798,0.0191 0.34117,-0.11084 0.36079,-0.29058 L 81.840901,21.236613 Z m -4.23022,5.486948 -8.29823,98.438181 c -0.0147,0.18053 0.11973,0.33879 0.30026,0.35353 0.17966,0.0147 0.33754,-0.11828 0.35353,-0.29784 l 8.29822,-98.438178 z m -4.23265,5.48695 -5.48695,92.958491 c -0.0118,0.18225 0.12757,0.339 0.30994,0.34869 0.18132,0.01 0.33655,-0.12859 0.34626,-0.30995 l 5.48695,-92.958488 z m -4.23023,5.489374 -2.67568,87.478797 c -0.006,0.18127 0.13594,0.33313 0.31721,0.33901 0.18033,0.005 0.33069,-0.13691 0.33658,-0.31721 l 2.67567,-87.481227 z m -4.23265,5.48936 0.1356,82.001557 c 6.2e-4,0.18027 0.14661,0.32627 0.32689,0.32689 0.18217,7.2e-4 0.33003,-0.14714 0.32931,-0.32931 l -0.1356,-82.001547 z m -4.230235,5.4918 2.944453,76.521867 c 0.0072,0.18129 0.160146,0.32233 0.341422,0.31478 0.18129,-0.007 0.32234,-0.16015 0.31478,-0.34142 L 60.687343,48.584193 Z m -4.230228,5.49179 5.755726,71.042177 c 0.01473,0.18052 0.172998,0.31494 0.353528,0.30026 0.180527,-0.0147 0.314944,-0.173 0.300257,-0.35353 L 56.454693,54.049343 Z"
     id="path20153" /><g
     id="g24993"
     style="stroke:none;stroke-width:0.806602"
     transform="matrix(1.2397695,0,0,1.2397695,-45.572041,-83.347146)"><circle
       style="opacity:1;fill:#ea0606;fill-opacity:1;stroke:none;stroke-width:0.106707;stroke-miterlimit:10;stroke-dasharray:none;stroke-opacity:1"
       id="path20296"
       cx="81.351784"
       cy="110.8463"
       r="0.94482869" /><path
       id="circle21087"
       style="opacity:1;fill:#ffffff;fill-opacity:1;stroke:none;stroke-width:0.106707;stroke-miterlimit:10;stroke-dasharray:none;stroke-opacity:1"
       d="m 81.217205,109.91148 a 0.94482869,0.94482869 0 0 0 -0.810286,0.93483 0.94482869,0.94482869 0 0 0 0.366386,0.7462 1.1921009,1.1921009 0 0 0 0.386023,-0.33331 0.45588931,0.45588931 0 0 1 -0.26355,-0.41289 0.45588931,0.45588931 0 0 1 0.455786,-0.45579 0.45588931,0.45588931 0 0 1 0.03772,0.001 1.1921009,1.1921009 0 0 0 -0.172083,-0.48007 z" /></g><use
     x="0"
     y="0"
     xlink:href="#g24993"
     id="use24995"
     transform="translate(4.231045,-5.4789737)"
     style="stroke:none;stroke-width:0.806602" /><use
     x="0"
     y="0"
     xlink:href="#g24993"
     id="use24997"
     transform="translate(8.462089,-10.957948)"
     style="stroke:none;stroke-width:0.806602" /><use
     x="0"
     y="0"
     xlink:href="#g24993"
     id="use24999"
     transform="translate(12.693133,-16.436922)"
     style="stroke:none;stroke-width:0.806602" /><path
     style="color:#000000;fill:#75510a;fill-opacity:1;stroke:none;stroke-width:1;-inkscape-stroke:none"
     d="m 83.656981,27.089196 c -0.24535,1.491535 -1.31712,2.956368 -2.80764,4.065573 z m -3.89728,5.432466 c -0.38341,1.594591 -1.47759,2.857211 -2.8137,3.525591 z m -3.88397,4.864641 -2.85123,3.57161 c 1.6203,-0.84103 2.41927,-2.11058 2.85123,-3.57161 z m -3.93966,4.93486 c -0.46069,1.6597 -1.36025,2.90248 -2.85728,3.57766 z m -4.10674,5.14311 c -0.42808,1.76798 -1.50488,2.98469 -2.69988,3.38273 z m -3.83553,4.8041 c -0.26527,1.70516 -1.716823,3.06417 -2.762848,3.45901 z m -3.840382,4.80897 -2.983196,3.73626 c 1.361209,-0.95584 2.59427,-2.01283 2.983196,-3.73626 z m -3.978402,4.98329 c -0.736698,1.98616 -1.939507,3.53074 -3.661194,4.58375 z"
     id="path34307" /><use
     x="0"
     y="0"
     xlink:href="#g24993"
     id="use25001"
     transform="translate(16.924178,-21.915897)"
     style="stroke:none;stroke-width:0.806602" /><use
     x="0"
     y="0"
     xlink:href="#g24993"
     id="use25003"
     transform="translate(21.155222,-27.394871)"
     style="stroke:none;stroke-width:0.806602" /><use
     x="0"
     y="0"
     xlink:href="#g24993"
     id="use25005"
     transform="translate(25.386267,-32.873845)"
     style="stroke:none;stroke-width:0.806602" /><path
     id="path40324"
     style="color:#000000;fill:#ffffff;stroke:none;stroke-width:0.132292;stroke-dasharray:none"
     d="m 55.767001,33.966973 -0.270361,-0.0666 -2.526798,-1.02635 -1.704819,-2.392258 0.687437,-4.783872 3.849137,-5.636602 -0.02755,-3.024597 -7.325406,-2.737577 -0.377353,0.242173 c 0.634194,1.600453 1.228182,2.425073 2.738859,2.965014 1.510675,0.539941 2.986063,0.319075 3.175793,0.788022 0.189733,0.468948 0.143424,1.353506 -0.777131,2.558831 -0.920553,1.205325 -1.574206,2.058634 -2.368551,3.412201 -0.794346,1.353566 -1.191901,2.805088 -1.109638,4.572452 0.08248,1.771954 0.700886,3.428553 1.836156,4.325153 1.135269,0.8966 2.711961,1.11269 3.796603,0.89245 0.129628,-0.0263 0.264125,-0.0551 0.40362,-0.0884 z" /><ellipse
     style="fill:#ffffff;fill-opacity:1;stroke:none;stroke-width:0.132295;stroke-linecap:square;stroke-miterlimit:10;stroke-dasharray:none;stroke-opacity:1"
     id="circle46222"
     cx="76.244843"
     cy="12.14362"
     rx="1.8013471"
     ry="1.9204483"
     transform="matrix(1,0,-0.01087612,0.99994085,0,0)" /><circle
     style="fill:#75510a;fill-opacity:1;stroke:none;stroke-width:0.132292;stroke-linecap:square;stroke-miterlimit:10;stroke-dasharray:none;stroke-opacity:1"
     id="path44873"
     cx="75.649834"
     cy="11.856933"
     r="1.6912895" /><path
     id="path40471"
     style="color:#000000;fill:#ffffff;stroke:none;stroke-width:0.132292;stroke-dasharray:none"
     d="m 75.727671,10.851004 c -0.0947,-0.281256 -0.24036,-0.489685 -0.46256,-0.640668 -2.56679,-0.0095 -7.21225,1.360036 -10.56911,7.707884 -3.089344,5.841972 -3.957805,7.377845 -6.270226,9.835545 -2.312419,2.457702 -4.111533,3.17056 -4.814624,3.457048 0.0585,0.205908 0.0938,0.490653 0.261686,0.669217 l 2.099819,0.393652 5.812787,-5.580224 5.343818,-9.739444 2.612,-3.326992 4.23418,-1.67663 z" /><path
     id="path40467"
     style="color:#000000;fill:#ffffff;stroke:none;stroke-width:0.132292;stroke-dasharray:none"
     d="m 60.112656,5.68209 c -0.501299,0.006 -1.022606,0.02543 -1.566434,0.06022 -4.350621,0.278396 -7.651866,1.746639 -9.491506,3.922174 -1.094869,1.294777 -1.530271,2.918197 -1.14039,4.398191 l 0.28766,-0.586854 1.355015,-2.53 5.248998,-3.188608 7.251728,-0.544567 4.724474,2.793878 1.54959,-2.908558 C 66.137251,6.270521 63.621751,5.640257 60.112656,5.682094 Z" /><path
     id="path40469"
     style="color:#000000;fill:#75510a;fill-opacity:1;stroke:none;stroke-width:0.132292;stroke-dasharray:none"
     d="m 75.594411,12.878079 -1.61897,-0.927691 -4.23418,1.67663 -2.612,3.326992 -5.343818,9.739445 -5.812787,5.580223 -2.048266,-0.479572 c -0.108752,-0.185748 -0.213643,-0.37923 -0.313239,-0.583297 -0.192732,-0.271487 -0.430304,-0.966566 -0.480501,-2.045013 -0.05041,-1.083037 0.07626,-2.311982 0.677187,-3.335962 0.600926,-1.023981 1.020558,-1.80002 2.295515,-3.166184 1.274955,-1.366166 2.090605,-2.7199 2.250669,-3.67872 0.160067,-0.95882 0.0428,-1.997596 -0.466406,-2.777939 -1.018426,-1.560689 -3.011595,-1.8978 -4.395628,-1.938664 -1.384031,-0.04086 -2.649689,-0.866337 -3.022034,-2.504374 1.270915,-1.235389 9.457778,-4.404153 16.312248,-1.757435 l 0.13308,-0.525263 -4.857554,-2.268607 -7.251728,0.544567 -5.248998,3.188608 -1.355015,2.53 c -0.126185,0.213797 -0.226226,0.411907 -0.28766,0.586854 0.0425,0.161337 0.09462,0.321259 0.156964,0.478579 0.17443,0.112199 0.279457,-0.07313 0.377353,-0.242173 l 7.325406,2.737578 0.02755,3.024596 -3.849137,5.636602 -0.687437,4.783873 1.704819,2.392261 2.526798,1.02635 c 0.08378,0.0285 0.16576,0.0572 0.270361,0.0666 1.027704,-0.24533 2.364334,-0.77713 4.620502,-3.042532 2.562408,-2.572896 4.631966,-6.553672 7.658286,-12.076467 2.73087,-4.983639 5.19813,-5.401834 7.22685,-5.464458 z" /><path
     id="path40439"
     style="color:#000000;fill:#bf9f4f;fill-opacity:1;stroke:none;stroke-width:0.132292;stroke-dasharray:none"
     d="m 60.634801,6.167076 c -0.69859,-0.0046 -1.42974,0.01643 -2.194289,0.06535 -4.077592,0.260926 -7.239474,1.903434 -8.923233,3.894624 -0.799008,0.944897 -1.316238,2.083106 -1.315293,3.348775 0.518956,-0.703382 1.00011,-1.397428 1.711866,-2.045654 0.711758,-0.648226 1.38029,-1.001937 2.492202,-1.467772 1.120715,-0.469523 2.561522,-0.90007 4.179081,-1.212786 3.017713,-0.583399 6.766616,-0.655126 10.330146,0.731644 0.1994,-0.698253 0.48305,-1.369421 0.84247,-1.998246 -1.80161,-0.811724 -4.16752,-1.296339 -7.12295,-1.315933 z m 15.09287,4.683928 c -3.68166,0.197198 -7.39705,1.547569 -10.52939,7.470838 -3.090878,5.844882 -4.124253,7.342708 -6.473953,9.840029 -2.385375,2.535242 -4.106561,3.350083 -4.799889,3.632592 1.13116,1.90138 3.511614,1.35681 6.011394,-1.153204 2.47128,-2.481395 4.404808,-5.974281 7.528498,-11.8812 1.46712,-2.774346 2.85041,-4.06799 4.21882,-4.864301 1.21805,-0.70881 3.07867,-1.002219 3.91126,-1.017679 0.27501,-0.647751 0.35563,-1.346514 0.13326,-2.027075 z m -25.760642,1.333232 c -0.725605,0.718335 -1.250434,1.382146 -1.518386,2.114847 0.610925,1.541726 1.354121,2.284897 2.367912,2.647243 1.013791,0.36234 1.571047,0.257364 2.15585,0.328663 0.584804,0.0713 1.295689,0.07177 1.622813,0.772647 0.327125,0.700874 0.14317,1.883428 -0.864903,3.203342 -0.920862,1.20573 -1.548628,2.025032 -2.324345,3.346853 -0.739087,1.259407 -1.178877,2.541801 -1.10195,4.194458 0.07628,1.638782 0.64983,3.32451 1.615766,4.102844 0.965938,0.77833 1.980858,1.0329 3.576854,1.00521 -2.348548,-0.94233 -2.858414,-3.529381 -2.91248,-4.690978 -0.05387,-1.157282 -0.03912,-2.524017 0.657325,-3.710753 0.595112,-1.014072 1.130369,-1.80157 2.440948,-3.205906 1.222731,-1.310205 1.906888,-2.714024 2.023873,-3.414764 0.138823,-0.831566 0.021,-1.71644 -0.367744,-2.312173 -0.82792,-1.268748 -2.687376,-1.487161 -3.983679,-1.525432 -1.632811,-0.0482 -2.954841,-0.951169 -3.387854,-2.856101 z" /></svg>
