<?xml version="1.0" encoding="UTF-8" standalone="no"?>
<!-- Created with Inkscape (http://www.inkscape.org/) -->

<svg
   width="500"
   height="539.99994"
   viewBox="0 0 132.29166 142.87498"
   version="1.1"
   id="svg5"
   xml:space="preserve"
   xmlns="http://www.w3.org/2000/svg"
   xmlns:svg="http://www.w3.org/2000/svg"><defs
     id="defs2" /><path
     id="path2466"
     style="font-variation-settings:normal;vector-effect:none;fill:#bf9f4f;fill-opacity:1;stroke:none;stroke-width:0.132292;stroke-linecap:butt;stroke-linejoin:miter;stroke-miterlimit:4;stroke-dasharray:none;stroke-dashoffset:0;stroke-opacity:1;-inkscape-stroke:none;stop-color:#000000"
     d="M 66.145827,0 C 49.443487,1e-6 41.266687,7.816075 16.693275,9.68347 L 4.0202012,34.915713 14.179797,97.908718 c 1.938927,12.021702 7.090523,21.062342 16.51282,28.145412 9.4223,7.08305 20.43002,11.60688 35.45321,16.82086 15.02321,-5.21398 26.03154,-9.73781 35.453833,-16.82086 9.42229,-7.08307 14.57328,-16.12371 16.5122,-28.145412 L 128.27146,34.915093 115.59901,9.68347 C 91.025237,7.816136 82.848257,0 66.145827,0 Z" /><g
     id="use5572"
     transform="matrix(0.61980518,1.0244677,-1.0227943,0.62081927,-82.889719,-315.91273)"
     style="stroke-width:0.835481"><path
       id="path6357"
       style="font-variation-settings:normal;opacity:1;fill:#045cd2;fill-opacity:1;stroke:none;stroke-width:0.221054;stroke-linecap:butt;stroke-linejoin:miter;stroke-miterlimit:4;stroke-dasharray:none;stroke-dashoffset:0;stroke-opacity:1;stop-color:#000000"
       d="m 322.28068,2.1014668 c 1.84843,3.5403775 -0.13464,8.1056932 1.71379,11.6460582 1.84844,3.54039 6.72796,4.5228 8.57637,8.063143 1.84838,3.540333 -0.13485,8.104918 1.71362,11.645349 1.84847,3.540448 6.72768,4.523232 8.5761,8.063584 1.84841,3.540323 -0.13433,8.105251 1.71406,11.645616 1.84843,3.540386 6.72768,4.523219 8.57611,8.063585 1.11662,2.138782 0.66972,4.71314 0.41231,7.31348 -2.16295,1.118412 -4.26124,2.526801 -6.67394,2.526801 -3.99388,0 -7.123,-3.870813 -11.11689,-3.870813 -3.99388,0 -7.12311,3.870776 -11.11687,3.870776 -3.99386,0 -7.12292,-3.870812 -11.11689,-3.870812 -3.99388,0 -7.12259,3.871044 -11.11643,3.871044 -3.99385,0 -7.12272,-3.871254 -11.11662,-3.871254 -3.99381,0 -7.12325,3.871218 -11.11714,3.871218 -1.63138,0 -3.11736,-0.65131 -4.5781,-1.415344 -1.84317,3.636837 -4.122,7.62423 -7.01481,12.070326 l 18.66379,7.555334 c 0,0 1.28182,-0.420641 2.06058,-0.412978 0.70869,-0.22831 1.43484,-0.377738 2.19451,-0.377738 3.9939,0 7.1226,3.870545 11.11645,3.870545 3.99376,0 7.12272,-3.870334 11.1166,-3.870334 3.99397,0 7.1233,3.87037 11.11716,3.87037 3.99376,0 7.12228,-3.870602 11.11616,-3.870602 3.99389,0 7.12345,3.87108 11.11733,3.87108 3.99381,0 7.12324,-3.871218 11.11714,-3.871218 3.99384,0 7.12231,3.870987 11.11618,3.870987 3.99375,0 7.12292,-3.870777 11.11687,-3.870777 3.47551,0 6.42661,3.328353 10.34547,3.312098 l 1.23206,-0.603264 c -0.81065,-3.582548 -6.33836,-5.10025 -8.07537,-8.427229 l -4.4e-4,-2.68e-4 c -1.84847,-3.540435 0.13461,-8.10574 -1.7138,-11.646059 -1.84839,-3.540352 -6.72777,-4.52208 -8.57619,-8.062432 -1.84844,-3.540399 0.1349,-8.106129 -1.71353,-11.646501 -1.8484,-3.540366 -6.72838,-4.523029 -8.57681,-8.06341 -1.8484,-3.540365 0.13479,-8.105021 -1.71362,-11.645349 -1.84842,-3.540347 -6.72736,-4.523574 -8.57583,-8.064026 -1.84846,-3.540427 0.13407,-8.10485 -1.71433,-11.645174 -1.84842,-3.5403432 -6.72722,-4.5229304 -8.57566,-8.0633169 -0.51495,-0.986298 -0.72782,-2.0531144 -0.81372,-3.15420172 L 325.92386,-12.878529 c -2.44951,4.3504648 -4.7901,8.0306223 -7.03374,11.2141236 z" /><path
       id="path6478"
       style="font-variation-settings:normal;opacity:1;fill:#ffffff;fill-opacity:1;stroke:none;stroke-width:0.221054;stroke-linecap:butt;stroke-linejoin:miter;stroke-miterlimit:4;stroke-dasharray:none;stroke-dashoffset:0;stroke-opacity:1;stop-color:#000000"
       d="m 318.4709,-1.0743198 c 1.35334,0.94126715 2.61815,1.9575327 3.37318,3.4036732 1.84843,3.5403915 -0.13463,8.1056776 1.7138,11.6460586 1.84844,3.540402 6.72796,4.522787 8.57637,8.063142 1.84838,3.540349 -0.13485,8.104906 1.71362,11.645349 1.84847,3.540464 6.72768,4.52322 8.5761,8.063584 1.84841,3.540339 -0.13437,8.105236 1.71406,11.645617 1.84843,3.540398 6.72767,4.523206 8.5761,8.063584 1.11628,2.138053 0.83922,4.648788 0.84866,7.083022 0.22083,-0.114179 0.44392,-0.218159 0.66656,-0.324186 -0.0175,-2.46403 0.28316,-5.012995 -0.8478,-7.179177 -1.84841,-3.540374 -6.72767,-4.523191 -8.5761,-8.063584 -1.84843,-3.540379 0.13435,-8.105281 -1.71406,-11.645617 -1.84842,-3.54036 -6.72763,-4.523123 -8.5761,-8.063584 -1.84847,-3.540439 0.13477,-8.105003 -1.71362,-11.645349 -1.84841,-3.540351 -6.72793,-4.522745 -8.57637,-8.063142 -1.84843,-3.540379 0.13462,-8.1056707 -1.71379,-11.6460587 -0.80116,-1.53448434 -2.17613,-2.58460654 -3.62245,-3.5746631 -0.13957,0.198036 -0.27934,0.3970939 -0.41816,0.591331 z m -31.21176,90.3538778 0.87344,0.353465 c 1.01584,-0.433432 2.06029,-0.738928 3.17293,-0.738928 3.9939,0 7.1226,3.870544 11.11645,3.870544 3.9938,0 7.12268,-3.870334 11.1166,-3.870334 3.99397,0 7.1233,3.87037 11.11716,3.87037 3.9938,0 7.12228,-3.870602 11.11616,-3.870602 3.99389,0 7.12345,3.871081 11.11733,3.871081 3.99385,0 7.12324,-3.871219 11.11714,-3.871219 3.99384,0 7.12231,3.870987 11.11618,3.870987 3.99379,0 7.12292,-3.870777 11.11687,-3.870777 3.99394,0 8.16396,4.763403 11.89166,3.020048 -0.0108,-0.24952 -0.052,-0.485802 -0.10541,-0.716466 -3.6845,1.526365 -7.78881,-3.089762 -11.72253,-3.089762 -3.99395,0 -7.12309,3.870777 -11.11687,3.870777 -3.99387,0 -7.12235,-3.870987 -11.11618,-3.870987 -3.9939,0 -7.1233,3.871218 -11.11714,3.871218 -3.99388,0 -7.12344,-3.87108 -11.11733,-3.87108 -3.99388,0 -7.12237,3.870602 -11.11616,3.870602 -3.99386,0 -7.12319,-3.87037 -11.11716,-3.87037 -3.99391,0 -7.12281,3.870334 -11.1166,3.870334 -3.99385,0 -7.12255,-3.870545 -11.11645,-3.870545 -1.45722,0 -2.79911,0.517085 -4.11009,1.171644 z" /></g><g
     id="g16137"
     transform="matrix(1.1959376,0,0,1.1959376,-59.729325,-62.81562)"
     style="stroke-width:0.836164"><path
       id="path8905"
       style="fill:#045cd2;fill-opacity:1;fill-rule:evenodd;stroke:none;stroke-width:0.110618;stroke-miterlimit:10;stop-color:#000000"
       d="m 101.87935,59.215488 h 6.74614 l 3.2423,-3.146501 H 98.637052 Z" /><path
       id="path15505"
       style="fill:#045cd2;fill-opacity:1;fill-rule:evenodd;stroke:none;stroke-width:0.110618;stroke-miterlimit:10;stop-color:#000000"
       d="m 101.87935,92.364342 h 6.74614 l 3.2423,3.146501 H 98.637052 Z" /><path
       id="path15499"
       style="fill:#045cd2;fill-opacity:1;fill-rule:evenodd;stroke:none;stroke-width:0.110618;stroke-miterlimit:10;stop-color:#000000"
       d="m 121.82684,72.416855 v 6.74614 l 3.1465,3.2423 V 69.174557 Z" /><path
       id="path15487"
       style="fill:#045cd2;fill-opacity:1;fill-rule:evenodd;stroke:none;stroke-width:0.110618;stroke-miterlimit:10;stop-color:#000000"
       d="m 119.35741,85.124691 -4.77024,4.770241 -0.0677,4.517565 9.35555,-9.355545 z" /><path
       id="path15475"
       style="fill:#045cd2;fill-opacity:1;fill-rule:evenodd;stroke:none;stroke-width:0.110618;stroke-miterlimit:10;stop-color:#000000"
       d="m 119.35742,66.455138 -4.77024,-4.770241 -0.0677,-4.517565 9.35554,9.355545 z" /><path
       id="path15469"
       style="fill:#045cd2;fill-opacity:1;fill-rule:evenodd;stroke:none;stroke-width:0.110618;stroke-miterlimit:10;stop-color:#000000"
       d="m 95.917635,89.894917 -4.770242,-4.770242 -4.517564,-0.06774 9.355544,9.355545 z" /><path
       id="rect8810"
       style="opacity:1;fill:#045cd2;fill-opacity:1;fill-rule:evenodd;stroke:none;stroke-width:0.110618;stroke-miterlimit:10;stroke-dasharray:none;stop-color:#000000"
       d="m 101.86355,63.486046 0.20514,6.298406 h -2.838587 v 2.838586 L 92.94833,72.401264 v 6.777364 h 6.076632 l 0.417546,2.838587 h 2.421042 l 0.17742,6.076631 h 6.59994 v -6.076631 h 2.83911 v -2.838587 h 6.07663 v -6.777364 l -6.28541,0.208773 v -2.838586 l -2.63033,-0.208773 v -6.076632 z m 1.32602,10.241236 h 4.12533 l 0.1529,4.258624 -4.27823,-0.133295 z" /><path
       id="rect8917"
       style="opacity:1;fill:#033273;fill-opacity:1;fill-rule:evenodd;stroke:none;stroke-width:0.110618;stroke-miterlimit:10;stop-color:#000000"
       d="m 102.35447,72.892191 v 6.213056 l 0.41755,-0.417545 v -5.377966 h 5.37797 l 0.41755,-0.417545 z" /><path
       id="path8927"
       style="opacity:1;fill:#ffffff;fill-rule:evenodd;stroke:none;stroke-width:0.110618;stroke-miterlimit:10;stop-color:#000000"
       d="M 107.73263,78.270106 V 73.72728 h -0.41755 v 4.125281 h -4.12528 v 0.417545 z m 0.83491,0.835141 v -6.213056 l -0.41755,0.417545 v 5.377966 h -5.37797 l -0.41755,0.417545 z" /><path
       id="path12201"
       style="opacity:1;fill:#ffffff;fill-opacity:1;fill-rule:evenodd;stroke:none;stroke-width:0.110618;stroke-miterlimit:10;stop-color:#000000"
       d="m 101.86355,63.767166 v 5.795512 h -2.838588 v 2.838586 h -3.549113 l -0.146791,0.417546 h 4.11345 v -2.838586 h 2.838582 v -6.213058 z m 6.77736,5.795512 v 0.417546 h 2.42156 v 2.838586 h 5.79551 v -0.417546 h -5.37796 v -2.838586 z m -9.615948,9.615434 v 2.839103 h 0.417546 v -2.839103 z m 2.838588,2.839103 v 5.377966 h 0.41754 v -5.377966 z" /><path
       id="path8676"
       style="opacity:1;fill:#045cd2;fill-opacity:1;fill-rule:evenodd;stroke:none;stroke-width:0.110618;stroke-miterlimit:10;stroke-dasharray:none;stop-color:#000000"
       d="m 105.25249,57.784586 a 18.005428,18.005428 0 0 0 -18.00562,18.005102 18.005428,18.005428 0 0 0 18.00562,18.005619 18.005428,18.005428 0 0 0 18.0051,-18.005619 18.005428,18.005428 0 0 0 -18.0051,-18.005102 z m 0,7.110677 A 10.894427,10.894427 0 0 1 116.14691,75.789688 10.894427,10.894427 0 0 1 105.25249,86.684113 10.894427,10.894427 0 0 1 94.358063,75.789688 10.894427,10.894427 0 0 1 105.25249,64.895263 Z" /><path
       id="circle12226"
       style="opacity:1;fill:#033273;fill-opacity:1;fill-rule:evenodd;stroke:none;stroke-width:0.110618;stroke-miterlimit:10;stroke-dasharray:none;stop-color:#000000"
       d="m 105.25249,64.895263 c -1.1515,0.0023 -2.29534,0.179967 -3.38894,0.540509 v 0.55677 c 1.24986,-0.483138 2.57812,-0.566893 3.91811,-0.568113 0.96594,10e-4 1.92745,0.130472 2.85925,0.38499 v -0.373815 c -1.09349,-0.360136 -2.23715,-0.538276 -3.38842,-0.540341 z m -10.354087,7.506001 c -0.360488,1.093435 -0.537941,2.237101 -0.54034,3.388424 0.0023,1.151497 0.187229,2.295341 0.547771,3.38894 h 0.365352 C 95.016971,78.24661 94.887854,77.28492 94.88723,76.318855 c 0.0013,-1.339813 0.105544,-2.667896 0.588619,-3.917591 z" /><path
       id="circle13764"
       style="opacity:1;fill:#ffffff;fill-opacity:1;fill-rule:evenodd;stroke:none;stroke-width:0.110618;stroke-miterlimit:10;stroke-dasharray:none;stop-color:#000000"
       d="m 110.59376,66.294661 a 10.894427,10.894427 0 0 1 5.55315,9.495027 10.894427,10.894427 0 0 1 -10.89442,10.894425 10.894427,10.894427 0 0 1 -9.535853,-5.637382 11.086846,11.086846 0 0 0 9.994223,6.288505 11.086846,11.086846 0 0 0 11.08718,-11.086661 11.086846,11.086846 0 0 0 -6.20428,-9.953914 z" /><path
       id="path14490"
       style="opacity:1;fill:#ffffff;fill-opacity:1;fill-rule:evenodd;stroke:none;stroke-width:0.110618;stroke-miterlimit:10;stroke-dasharray:none;stop-color:#000000"
       d="m 101.28684,58.223319 c -1.916941,0.430864 -3.717833,1.168065 -5.349545,2.156457 l -0.01189,0.77463 c 1.835097,-1.179807 3.91579,-2.034698 6.174305,-2.482536 z m 8.27288,0.08527 -0.38241,0.371553 c 2.1414,0.464999 4.14773,1.357148 5.94744,2.57452 l -0.22944,-0.665076 c -1.62945,-1.034581 -3.4287,-1.810643 -5.33559,-2.280997 z M 90.626508,66.46313 89.84206,66.47501 c -0.928745,1.533123 -1.635937,3.215489 -2.075325,5.003312 l 0.51108,0.526066 c 0.475067,-1.999242 1.275347,-3.867234 2.348693,-5.541263 z m -2.47375,13.241052 -0.382923,0.394291 c 0.461914,1.872985 1.218043,3.639675 2.222603,5.242574 0.06571,0.104847 0.821139,0.321944 0.821139,0.321944 -1.256286,-1.802666 -2.179626,-3.8134 -2.660819,-5.958809 z" /><path
       id="path15481"
       style="fill:#045cd2;fill-opacity:1;fill-rule:evenodd;stroke:none;stroke-width:0.110618;stroke-miterlimit:10;stop-color:#000000"
       d="m 95.917634,61.684912 -4.770241,4.770242 -4.517565,0.06774 9.355545,-9.355545 z" /><path
       id="path15493"
       style="fill:#045cd2;fill-opacity:1;fill-rule:evenodd;stroke:none;stroke-width:0.110618;stroke-miterlimit:10;stop-color:#000000"
       d="m 88.677982,72.416856 v 6.74614 l -3.146501,3.2423 V 69.174558 Z" /><path
       id="path15466"
       style="fill:#ffffff;fill-rule:evenodd;stroke:none;stroke-width:0.110618;stroke-miterlimit:10;stop-color:#000000"
       d="m 102.09971,58.67187 -2.174545,-2.109949 h 11.434445 l 0.50798,-0.492993 H 98.636872 l 2.489558,2.415803 z" /><path
       id="path15507"
       style="fill:#ffffff;fill-rule:evenodd;stroke:none;stroke-width:0.110618;stroke-miterlimit:10;stop-color:#000000"
       d="m 100.95146,93.26459 -2.314588,2.246375 h 0.780314 l 2.167314,-2.103231 a 18.005428,18.005428 0 0 1 -0.63304,-0.143144 z" /><path
       id="path15501"
       style="fill:#ffffff;fill-rule:evenodd;stroke:none;stroke-width:0.110618;stroke-miterlimit:10;stop-color:#000000"
       d="m 124.97325,69.174588 -2.24586,2.314587 a 18.005428,18.005428 0 0 1 0.14263,0.633037 l 2.10323,-2.16731 z m -2.09496,10.291361 a 18.005428,18.005428 0 0 1 -0.1447,0.631486 l 2.23966,2.30787 v -0.780314 z" /><path
       id="path15495"
       style="fill:#ffffff;fill-rule:evenodd;stroke:none;stroke-width:0.110618;stroke-miterlimit:10;stop-color:#000000"
       d="m 86.024205,69.682567 -0.492993,-0.507979 v 13.230718 l 0.492993,-0.50798 z" /><path
       id="path15489"
       style="fill:#ffffff;fill-rule:evenodd;stroke:none;stroke-width:0.110618;stroke-miterlimit:10;stop-color:#000000"
       d="m 123.87512,85.056823 -3.2153,0.04857 a 18.005428,18.005428 0 0 1 -0.34624,0.548287 l 3.01016,-0.04547 z m -8.75863,5.793961 a 18.005428,18.005428 0 0 1 -0.54881,0.346749 l -0.0481,3.214791 0.55191,-0.551905 z" /><path
       id="path15483"
       style="fill:#ffffff;fill-rule:evenodd;stroke:none;stroke-width:0.110618;stroke-miterlimit:10;stop-color:#000000"
       d="m 95.985354,57.167052 -9.3555,9.3555 0.708486,-0.01085 8.636162,-8.636162 z" /><path
       id="path15477"
       style="fill:#ffffff;fill-rule:evenodd;stroke:none;stroke-width:0.110618;stroke-miterlimit:10;stop-color:#000000"
       d="m 115.07153,57.719474 -0.55191,-0.551904 0.0535,3.580116 0.55162,0.506972 z" /><path
       id="path15471"
       style="fill:#ffffff;fill-rule:evenodd;stroke:none;stroke-width:0.110618;stroke-miterlimit:10;stop-color:#000000"
       d="m 90.195531,85.11045 -3.565678,-0.05311 9.355501,9.355501 -0.01085,-0.708483 -8.084778,-8.084778 2.923853,0.04341 z" /></g><g
     id="g15436"
     transform="matrix(1.1959376,0,0,1.1978943,-33.541676,-60.97469)"
     style="stroke-width:0.835481" /></svg>
