<?xml version="1.0" encoding="UTF-8" standalone="no"?>
<svg
   xmlns:dc="http://purl.org/dc/elements/1.1/"
   xmlns:cc="http://creativecommons.org/ns#"
   xmlns:rdf="http://www.w3.org/1999/02/22-rdf-syntax-ns#"
   xmlns:svg="http://www.w3.org/2000/svg"
   xmlns="http://www.w3.org/2000/svg"
   width="500"
   height="568"
   viewBox="0 0 132.29166 150.28334"
   version="1.1"
   id="svg847">
  <defs
     id="defs841" />
  <metadata
     id="metadata844">
    <rdf:RDF>
      <cc:Work
         rdf:about="">
        <dc:format>image/svg+xml</dc:format>
        <dc:type
           rdf:resource="http://purl.org/dc/dcmitype/StillImage" />
        <dc:title></dc:title>
      </cc:Work>
    </rdf:RDF>
  </metadata>
  <g
     id="layer1"
     transform="translate(-38.301022,-21.760429)">
    <path
       id="circle848"
       style="opacity:1;fill:#045cd2;fill-opacity:1;stroke:none;stroke-width:0.264583"
       d="m 38.301022,21.760429 v 84.137501 c 10e-6,36.53133 29.6145,66.14583 66.145838,66.14583 36.53132,0 66.14583,-29.6145 66.14583,-66.14583 V 21.760429 Z" />
    <path
       id="path856"
       style="font-variation-settings:normal;opacity:1;vector-effect:none;fill:#cccccc;fill-opacity:1;stroke:none;stroke-width:0.500001;stroke-linecap:butt;stroke-linejoin:miter;stroke-miterlimit:10;stroke-dasharray:none;stroke-dashoffset:0;stroke-opacity:1;stop-color:#000000;stop-opacity:1"
       d="m 170.82422,91.939453 c -6.10512,-0.07666 -9.95703,0.363281 -9.95703,0.363281 l 7.95508,23.486326 c 0,0 27.72734,-4.6955 48.10742,8.08008 20.38008,12.77557 33.28939,35.33057 38.25976,65.53516 4.9245,29.92577 10.67126,96.97316 13.63672,128.79297 2.9579,31.73859 -7.95508,42.04882 -7.95508,42.04882 l 38.86133,123.22266 c 0,0 12.37349,2.78445 20.61133,16.17773 8.19227,13.31917 29.79154,54.17801 42.80664,83.3379 10.93466,24.49874 2.3161,42.6321 0.37891,50.38085 H 385.5 c 4.16689,-15.53109 1.99915,-30.15066 -21.57227,-99.25781 -23.57142,-69.10715 -45.03825,-132.28044 -57.85546,-187.5 C 293.25506,291.38784 283.22203,236.62728 273.37305,193.06445 263.52406,149.50162 253.2958,132.45705 226.7793,110.10742 208.5884,94.775092 184.25548,92.108105 170.82422,91.939453 Z m 123.3164,282.681637 c 3.28089,0.0934 6.47418,2.57677 7.38477,6.11329 l 6.41797,23.60742 c 0.97765,3.45305 0.11734,7.55479 -3.46289,8.5332 -3.58023,0.97841 -7.42715,-1.5376 -8.40625,-4.99023 l -7.3086,-25.76954 c -0.97816,-3.45082 0.24397,-6.67957 3.97071,-7.38476 0.46584,-0.0882 0.9356,-0.12271 1.40429,-0.10938 z"
       transform="scale(0.26458333)" />
    <path
       id="path865"
       style="font-variation-settings:normal;opacity:1;vector-effect:none;fill:#cccccc;fill-opacity:1;stroke:none;stroke-width:0.132292;stroke-linecap:butt;stroke-linejoin:miter;stroke-miterlimit:10;stroke-dasharray:none;stroke-dashoffset:0;stroke-opacity:1;stop-color:#000000;stop-opacity:1"
       d="m 163.69647,24.325647 c 1.61531,-0.02028 2.63446,0.09612 2.63446,0.09612 l -2.10478,6.21409 c 0,0 -7.33619,-1.242351 -12.72842,2.137855 -5.39223,3.380202 -8.80782,9.347879 -10.1229,17.33951 -1.30294,7.91786 -2.82343,25.657482 -3.60804,34.076473 -0.78262,8.397502 2.10478,11.125417 2.10478,11.125417 l -10.28206,32.602658 c 0,0 -3.27382,0.73672 -5.45342,4.28036 -2.16754,3.52403 -7.88234,14.3346 -11.32592,22.04982 -2.89313,6.48196 -0.6128,11.27974 -0.10025,13.32993 h -5.81308 c -1.10249,-4.10927 -0.52895,-7.97736 5.70766,-26.26196 6.2366,-18.2846 11.91637,-34.9992 15.30759,-49.609373 3.39122,-14.61018 6.04579,-29.098911 8.65167,-40.62491 2.60588,-11.525999 5.3121,-16.035708 12.32793,-21.949047 4.81301,-4.056679 11.25109,-4.762319 14.80478,-4.806941 z M 131.069,99.118495 c -0.86806,0.0247 -1.71296,0.681771 -1.95388,1.617475 l -1.69809,6.24613 c -0.25867,0.91362 -0.031,1.99887 0.91622,2.25774 0.94727,0.25887 1.9651,-0.40682 2.22416,-1.32033 l 1.93373,-6.81819 c 0.2588,-0.91303 -0.0645,-1.767303 -1.05058,-1.953884 -0.12326,-0.02332 -0.24755,-0.03247 -0.37156,-0.02894 z" />
    <path
       style="font-variation-settings:normal;opacity:1;vector-effect:none;fill:#bf9f4f;fill-opacity:1;stroke:none;stroke-width:0.132292;stroke-linecap:butt;stroke-linejoin:miter;stroke-miterlimit:10;stroke-dasharray:none;stroke-dashoffset:0;stroke-opacity:1;stop-color:#000000;stop-opacity:1"
       d="m 112.91639,92.0269 c 2.42412,-2.828142 2.7608,-6.531665 3.03015,-10.437196 0.26935,-3.905533 2.42413,-5.858298 5.11759,-7.811065 2.69348,-1.952766 3.97287,-3.568846 4.51157,-7.541716 0.53869,-3.972869 -0.94272,-5.38694 -1.95277,-9.35981 -1.01005,-3.972867 -1.06922,-8.381032 5.45428,-11.506414 -1.0878,-0.679878 -4.30479,-1.447863 -8.28242,1.203892 -3.97763,2.651756 -4.3769,6.935687 -3.63619,11.379912 0.56988,3.41927 -0.49659,7.699662 -3.9875,9.845105 -2.34127,-2.840518 -2.73772,-7.297732 -1.40452,-10.72596 1.3332,-3.428228 1.52366,-7.142142 -0.95228,-9.808541 -2.47595,-2.6664 -3.95445,-5.095342 -2.66641,-7.808742 1.32095,-2.78273 2.03938,-6.119004 -0.57137,-8.856256 -2.53929,-2.66234 -5.80894,-3.047313 -7.903959,-2.190257 4.285279,1.23797 4.742039,4.733337 2.380709,7.903969 -2.361329,3.170632 -3.987169,6.93539 -2.150809,10.145228 1.821589,3.184028 2.818859,5.640082 -0.12791,9.901785 -2.94677,4.261703 -3.14071,7.425694 -2.09136,12.322657 -5.0486,-1.572168 -6.61336,-6.737351 -5.94808,-10.728988 0.74071,-4.444225 0.34144,-8.728156 -3.63619,-11.379912 -3.97763,-2.651755 -7.19462,-1.88377 -8.28242,-1.203892 6.5235,3.125382 6.46433,7.533547 5.45428,11.506414 -1.01005,3.97287 -2.49146,5.386941 -1.95277,9.35981 0.5387,3.97287 1.81809,5.58895 4.51157,7.541716 2.69346,1.952767 4.84824,3.905532 5.11759,7.811065 0.26935,3.905531 0.60603,7.609054 3.03015,10.437196 2.42413,2.828145 8.469529,6.396993 8.469529,6.396993 0,0 6.04541,-3.568848 8.46954,-6.396993 z"
       id="path886" />
  </g>
</svg>
