<?xml version="1.0" encoding="UTF-8" standalone="no"?>
<svg
   xmlns:dc="http://purl.org/dc/elements/1.1/"
   xmlns:cc="http://creativecommons.org/ns#"
   xmlns:rdf="http://www.w3.org/1999/02/22-rdf-syntax-ns#"
   xmlns:svg="http://www.w3.org/2000/svg"
   xmlns="http://www.w3.org/2000/svg"
   id="svg8"
   version="1.1"
   viewBox="0 0 132.29167 152.13543"
   height="575"
   width="500">
  <defs
     id="defs2" />
  <metadata
     id="metadata5">
    <rdf:RDF>
      <cc:Work
         rdf:about="">
        <dc:format>image/svg+xml</dc:format>
        <dc:type
           rdf:resource="http://purl.org/dc/dcmitype/StillImage" />
        <dc:title></dc:title>
      </cc:Work>
    </rdf:RDF>
  </metadata>
  <g
     transform="translate(-27.443803,-56.116754)"
     id="layer1">
    <g
       style="stroke-width:1.10074"
       transform="matrix(0.90774435,0,0,0.90921444,2.531846,5.0945914)"
       id="g2031">
      <path
         style="font-variation-settings:normal;opacity:1;vector-effect:none;fill:#e00606;fill-opacity:1;fill-rule:evenodd;stroke:none;stroke-width:0.291237;stroke-linecap:butt;stroke-linejoin:miter;stroke-miterlimit:4;stroke-dasharray:none;stroke-dashoffset:0;stroke-opacity:1;marker:none;marker-start:none;marker-mid:none;marker-end:none;stop-color:#000000;stop-opacity:1"
         d="m 173.18035,56.116754 v 96.053856 c 0,38.70827 -32.05209,71.27237 -72.86819,71.27237 -40.816111,0 -72.868201,-32.5641 -72.868201,-71.27237 V 56.116754 Z"
         id="path844" />
      <path
         d="m 101.37056,62.127477 c -10.85504,7.2e-5 -19.654717,7.84977 -19.654615,17.532779 1.13e-4,6.510718 4.044737,12.485231 10.504268,15.516368 -0.05489,1.842084 -0.102267,3.750487 -0.144177,5.703526 -7.559757,0.33514 -15.161771,0.99979 -21.38371,1.649 -0.0086,-1.69718 -0.183552,-3.002087 -2.304251,-2.933677 -2.380869,0.0768 -3.456043,0.15335 -5.452898,0.30696 -1.920513,0.147737 -2.227252,0.802717 -2.227252,2.688217 v 1.09399 c -2.102467,0.26989 -3.590571,0.47712 -3.862298,0.52193 -1.320054,0.21765 -1.89756,0.26606 -1.89756,2.26291 v 10.89649 c 0,1.99685 0.577506,2.04526 1.89756,2.26291 0.271727,0.0448 1.75985,0.27929 3.862298,0.58756 v 0.44132 c 0,1.8855 0.306739,2.54047 2.227252,2.68821 1.996855,0.15361 3.072029,0.23067 5.452898,0.30747 1.762572,0.0568 2.180551,-0.83582 2.276864,-2.11253 5.979292,0.71974 13.234832,1.45762 20.507791,1.85932 v 26.44955 c 0,9.76156 1.617382,23.49038 -7.065717,27.34148 -8.683101,3.85109 -17.664321,-2.15042 -28.723828,-13.36353 0,0 6.607765,0.98538 11.495421,-1.29553 0,0 -10.829832,-12.58007 -31.105594,-16.42018 0,0 -1.88e-4,21.19722 7.833629,33.79277 0,0 2.204621,-1.76655 3.313862,-7.72872 14.115896,26.99116 43.770446,24.53875 53.867107,40.32168 10.09667,-15.78293 38.86902,-12.06175 54.5068,-41.96293 1.22884,6.60498 3.84007,9.36997 3.84007,9.36997 7.83382,-12.59555 7.83363,-33.79277 7.83363,-33.79277 -20.27577,3.84011 -31.10611,16.42018 -31.10611,16.42018 4.88766,2.28091 11.49594,1.29553 11.49594,1.29553 -11.0595,11.21311 -20.04073,17.21462 -28.72383,13.36353 -8.6831,-3.8511 -7.06572,-17.57992 -7.06572,-27.34148 v -26.44955 c 7.27288,-0.4017 14.52857,-1.13959 20.50779,-1.85932 0.0963,1.27671 0.51378,2.16936 2.27635,2.11253 2.38087,-0.0768 3.45657,-0.15386 5.45342,-0.30747 1.92052,-0.14774 2.22725,-0.80271 2.22725,-2.68821 v -0.44132 c 2.10236,-0.30826 3.59058,-0.54275 3.8623,-0.58756 1.32005,-0.21765 1.89756,-0.26606 1.89756,-2.26291 v -10.89649 c 0,-1.99685 -0.57751,-2.04526 -1.89756,-2.26291 -0.27173,-0.0448 -1.75993,-0.25205 -3.8623,-0.52193 v -1.09399 c 0,-1.8855 -0.30673,-2.54048 -2.22725,-2.688217 -1.99685,-0.15361 -3.07255,-0.23016 -5.45342,-0.30696 -2.1207,-0.0684 -2.29568,1.236497 -2.30425,2.933677 -6.22171,-0.64919 -13.82381,-1.31386 -21.38319,-1.649 -0.0419,-1.952862 -0.0893,-3.861079 -0.14418,-5.70301 6.45972,-3.031223 10.50437,-9.005981 10.50427,-15.516884 10e-5,-9.68301 -8.79958,-17.532709 -19.65462,-17.532779 z m -0.0785,6.441466 h 5.3e-4 c 0.026,-6.6e-5 0.052,-6.6e-5 0.078,0 7.22684,1.45e-4 13.08532,4.965806 13.08551,11.091313 -2e-5,3.087579 -1.51841,6.035418 -4.18993,8.134389 -0.24787,-6.321546 -0.48989,-10.702189 -0.48989,-10.702189 H 92.964882 c 0,0 -0.242009,4.380875 -0.489891,10.702705 -2.671861,-2.099017 -4.190463,-5.047081 -4.190442,-8.134905 6e-5,-6.099773 5.811128,-11.054796 13.007481,-11.091313 z"
         style="color:#000000;display:inline;overflow:visible;visibility:visible;fill:#800000;fill-opacity:1;fill-rule:evenodd;stroke:none;stroke-width:0.291237;stroke-linecap:square;stroke-linejoin:miter;stroke-miterlimit:4;stroke-dasharray:none;stroke-dashoffset:0;stroke-opacity:1;marker:none;marker-start:none;marker-mid:none;marker-end:none;enable-background:accumulate"
         id="path1051" />
      <g
         style="stroke-width:1.10074"
         id="g1080">
        <path
           d="m 53.11298,84.420104 c 0.153155,0.37826 0.749957,1.217155 1.119172,1.586479 1.507117,1.507293 3.950825,1.507293 5.457942,0 1.50729,-1.507117 1.50729,-3.950822 0,-5.457939 -1.499185,-1.499149 -3.927018,-1.508142 -5.176246,-0.28143 1.767962,-1.768347 1.767962,-4.211642 0.261024,-5.718699 -0.728273,-0.728392 -1.717513,-1.135421 -2.747519,-1.130488 -1.016968,0.005 -1.990835,0.411317 -2.709887,1.130488 -1.506938,1.507057 -1.506938,3.950352 0.261024,5.718699 -1.249162,-1.226359 -3.676591,-1.217367 -5.175714,0.28143 -1.50729,1.507117 -1.50729,3.950822 0,5.457939 1.507057,1.506938 3.950353,1.506938 5.45741,0 0.369215,-0.369324 0.966017,-1.208219 1.119175,-1.586479 0,0 -0.07086,2.75797 -0.343857,4.958129 -0.273001,2.200159 -0.886579,4.958126 -0.886579,4.958126 h 4.59449 c 0,0 -0.613577,-2.757967 -0.886579,-4.958126 -0.272999,-2.200159 -0.343856,-4.958129 -0.343856,-4.958129 z"
           style="color:#000000;display:inline;overflow:visible;visibility:visible;fill:#ccae66;fill-opacity:1;fill-rule:evenodd;stroke:none;stroke-width:0.291237;stroke-linecap:square;stroke-linejoin:miter;stroke-miterlimit:4;stroke-dasharray:none;stroke-dashoffset:0;stroke-opacity:1;marker:none;marker-start:none;marker-mid:none;marker-end:none;enable-background:accumulate"
           id="path848" />
        <path
           d="m 53.11298,136.27844 c 0.153155,0.37826 0.749957,1.21715 1.119172,1.58648 1.507117,1.50729 3.950825,1.50729 5.457942,0 1.50729,-1.50712 1.50729,-3.95083 0,-5.45794 -1.499185,-1.49915 -3.927018,-1.50814 -5.176246,-0.28143 1.767962,-1.76835 1.767962,-4.21164 0.261024,-5.7187 -0.728273,-0.72839 -1.717513,-1.13542 -2.747519,-1.13049 -1.016968,0.005 -1.990835,0.41132 -2.709887,1.13049 -1.506938,1.50706 -1.506938,3.95035 0.261024,5.7187 -1.249162,-1.22636 -3.676591,-1.21737 -5.175714,0.28143 -1.50729,1.50711 -1.50729,3.95082 0,5.45794 1.507057,1.50693 3.950353,1.50693 5.45741,0 0.369215,-0.36933 0.966017,-1.20822 1.119175,-1.58648 0,0 -0.07086,2.75797 -0.343857,4.95813 -0.273001,2.20016 -0.886579,4.95812 -0.886579,4.95812 h 4.59449 c 0,0 -0.613577,-2.75796 -0.886579,-4.95812 -0.272999,-2.20016 -0.343856,-4.95813 -0.343856,-4.95813 z"
           style="color:#000000;display:inline;overflow:visible;visibility:visible;fill:#ccae66;fill-opacity:1;fill-rule:evenodd;stroke:none;stroke-width:0.291237;stroke-linecap:square;stroke-linejoin:miter;stroke-miterlimit:4;stroke-dasharray:none;stroke-dashoffset:0;stroke-opacity:1;marker:none;marker-start:none;marker-mid:none;marker-end:none;enable-background:accumulate"
           id="use1082" />
        <path
           id="use1084"
           style="color:#000000;display:inline;overflow:visible;visibility:visible;fill:#ccae66;fill-opacity:1;fill-rule:evenodd;stroke:none;stroke-width:1.10074;stroke-linecap:square;stroke-linejoin:miter;stroke-miterlimit:4;stroke-dasharray:none;stroke-dashoffset:0;stroke-opacity:1;marker:none;marker-start:none;marker-mid:none;marker-end:none;enable-background:accumulate"
           d="m 103.72461,212.0957 v 46.45118 h 8.75391 c 0,0 -2.3178,-10.42468 -3.34961,-18.74024 -1.03181,-8.31556 -1.30079,-18.73828 -1.30079,-18.73828 0.57886,1.42964 2.83502,4.60022 4.23047,5.99609 5.69619,5.69686 14.93272,5.69686 20.62891,0 4.05039,-4.04992 5.20527,-9.88436 3.49609,-14.96875 z m 153.51367,0 c -1.70918,5.08439 -0.5543,10.91883 3.4961,14.96875 5.69595,5.69552 14.93098,5.69552 20.62695,0 1.39546,-1.39587 3.6516,-4.56645 4.23047,-5.99609 0,0 -0.26898,10.42272 -1.30078,18.73828 -1.03182,8.31556 -3.34961,18.74024 -3.34961,18.74024 h 17.36523 c 0,0 -2.31974,-10.42468 -3.35156,-18.74024 -1.03181,-8.31556 -1.29883,-18.73828 -1.29883,-18.73828 0.57885,1.42964 2.83306,4.60022 4.22852,5.99609 5.69619,5.69686 14.93271,5.69686 20.6289,0 4.0504,-4.04992 5.20527,-9.88436 3.4961,-14.96875 z M 103.72461,375.48633 v 79.06055 h 8.75391 c 0,0 -2.3178,-10.42467 -3.34961,-18.74024 -1.03181,-8.31556 -1.30079,-18.73828 -1.30079,-18.73828 0.57886,1.42964 2.83502,4.60024 4.23047,5.99609 5.69619,5.69685 14.93272,5.69685 20.62891,0 5.69684,-5.6962 5.69684,-14.9327 0,-20.6289 -5.66621,-5.66608 -14.84296,-5.69889 -19.56445,-1.0625 6.68206,-6.68353 6.68183,-15.91926 0.98633,-21.61524 -2.75253,-2.75297 -6.49183,-4.29013 -10.38477,-4.27148 z m 0,196 v 3.64648 c 0,16.87425 1.63059,33.43395 4.71875,49.53711 -0.46481,-6.14044 -0.61524,-11.60156 -0.61524,-11.60156 0.57886,1.42964 2.83502,4.60024 4.23047,5.99609 5.69619,5.69688 14.93272,5.69688 20.62891,0 5.69684,-5.69616 5.69684,-14.9327 0,-20.6289 -5.66621,-5.66604 -14.84296,-5.69889 -19.56445,-1.0625 6.68206,-6.68349 6.68183,-15.9193 0.98633,-21.61524 -2.75253,-2.75301 -6.49183,-4.29011 -10.38477,-4.27148 z m 185.82812,196 c -3.84365,0.0189 -7.52451,1.55336 -10.24218,4.27148 -5.69552,5.69598 -5.69574,14.93175 0.98633,21.61524 -4.72125,-4.63506 -13.89654,-4.60222 -19.5625,1.0625 -5.69685,5.6962 -5.69685,14.93274 0,20.6289 5.69595,5.69552 14.93098,5.69552 20.62695,0 1.39546,-1.39585 3.6516,-4.56645 4.23047,-5.99609 0,0 -0.26898,10.42272 -1.30078,18.73828 -0.0127,0.10234 -0.0299,0.2115 -0.043,0.31445 3.72478,1.33733 7.48938,2.5948 11.29101,3.77735 -0.21569,-1.38403 -0.41926,-2.76429 -0.58398,-4.0918 -1.03181,-8.31556 -1.29883,-18.73828 -1.29883,-18.73828 0.57885,1.42964 2.83306,4.60024 4.22852,5.99609 5.69619,5.69688 14.93271,5.69688 20.6289,0 5.69685,-5.69616 5.69685,-14.9327 0,-20.6289 -5.66621,-5.66608 -14.84101,-5.69889 -19.5625,-1.0625 6.68206,-6.68349 6.68184,-15.91926 0.98633,-21.61524 -2.75253,-2.75297 -6.49183,-4.29015 -10.38477,-4.27148 z"
           transform="scale(0.26458333)" />
        <path
           d="m 77.696374,162.2076 c 0.153155,0.37826 0.749957,1.21716 1.119172,1.58648 1.507117,1.5073 3.950825,1.5073 5.457942,0 1.50729,-1.50711 1.50729,-3.95082 0,-5.45794 -1.499185,-1.49914 -3.927018,-1.50814 -5.176246,-0.28143 1.767962,-1.76834 1.767962,-4.21164 0.261024,-5.71869 -0.728273,-0.7284 -1.717513,-1.13542 -2.747519,-1.13049 -1.016968,0.005 -1.990835,0.41131 -2.709887,1.13049 -1.506938,1.50705 -1.506938,3.95035 0.261024,5.71869 -1.249162,-1.22635 -3.676591,-1.21736 -5.175714,0.28143 -1.50729,1.50712 -1.50729,3.95083 0,5.45794 1.507057,1.50694 3.950353,1.50694 5.45741,0 0.369215,-0.36932 0.966017,-1.20822 1.119175,-1.58648 0,0 -0.07086,2.75797 -0.343857,4.95813 -0.273001,2.20016 -0.886579,4.95813 -0.886579,4.95813 h 4.59449 c 0,0 -0.613577,-2.75797 -0.886579,-4.95813 -0.272999,-2.20016 -0.343856,-4.95813 -0.343856,-4.95813 z"
           style="color:#000000;display:inline;overflow:visible;visibility:visible;fill:#ccae66;fill-opacity:1;fill-rule:evenodd;stroke:none;stroke-width:0.291237;stroke-linecap:square;stroke-linejoin:miter;stroke-miterlimit:4;stroke-dasharray:none;stroke-dashoffset:0;stroke-opacity:1;marker:none;marker-start:none;marker-mid:none;marker-end:none;enable-background:accumulate"
           id="use1108" />
        <path
           d="m 77.696374,110.34927 c 0.153155,0.37826 0.749957,1.21716 1.119172,1.58648 1.507117,1.50729 3.950825,1.50729 5.457942,0 1.50729,-1.50712 1.50729,-3.95082 0,-5.45794 -1.499185,-1.49915 -3.927018,-1.50814 -5.176246,-0.28143 1.767962,-1.76835 1.767962,-4.21164 0.261024,-5.7187 -0.728273,-0.72839 -1.717513,-1.135419 -2.747519,-1.130486 -1.016968,0.005 -1.990835,0.411317 -2.709887,1.130486 -1.506938,1.50706 -1.506938,3.95035 0.261024,5.7187 -1.249162,-1.22636 -3.676591,-1.21737 -5.175714,0.28143 -1.50729,1.50712 -1.50729,3.95082 0,5.45794 1.507057,1.50694 3.950353,1.50694 5.45741,0 0.369215,-0.36932 0.966017,-1.20822 1.119175,-1.58648 0,0 -0.07086,2.75797 -0.343857,4.95813 -0.273001,2.20016 -0.886579,4.95813 -0.886579,4.95813 h 4.59449 c 0,0 -0.613577,-2.75797 -0.886579,-4.95813 -0.272999,-2.20016 -0.343856,-4.95813 -0.343856,-4.95813 z"
           style="color:#000000;display:inline;overflow:visible;visibility:visible;fill:#ccae66;fill-opacity:1;fill-rule:evenodd;stroke:none;stroke-width:0.291237;stroke-linecap:square;stroke-linejoin:miter;stroke-miterlimit:4;stroke-dasharray:none;stroke-dashoffset:0;stroke-opacity:1;marker:none;marker-start:none;marker-mid:none;marker-end:none;enable-background:accumulate"
           id="use1110" />
        <path
           d="m 53.11298,188.13677 c 0.153155,0.37826 0.749957,1.21716 1.119172,1.58648 1.507117,1.5073 3.950825,1.5073 5.457942,0 1.50729,-1.50711 1.50729,-3.95082 0,-5.45794 -1.499185,-1.49915 -3.927018,-1.50814 -5.176246,-0.28143 1.767962,-1.76834 1.767962,-4.21164 0.261024,-5.7187 -0.728273,-0.72839 -1.717513,-1.13542 -2.747519,-1.13048 -1.016968,0.005 -1.990835,0.41131 -2.709887,1.13048 -1.506938,1.50706 -1.506938,3.95036 0.261024,5.7187 -1.249162,-1.22636 -3.676591,-1.21736 -5.175714,0.28143 -1.50729,1.50712 -1.50729,3.95083 0,5.45794 1.507057,1.50694 3.950353,1.50694 5.45741,0 0.369215,-0.36932 0.966017,-1.20822 1.119175,-1.58648 0,0 -0.07086,2.75797 -0.343857,4.95813 -0.273001,2.20016 -0.886579,4.95813 -0.886579,4.95813 h 4.59449 c 0,0 -0.613577,-2.75797 -0.886579,-4.95813 -0.272999,-2.20016 -0.343856,-4.95813 -0.343856,-4.95813 z"
           style="color:#000000;display:inline;overflow:visible;visibility:visible;fill:#ccae66;fill-opacity:1;fill-rule:evenodd;stroke:none;stroke-width:0.291237;stroke-linecap:square;stroke-linejoin:miter;stroke-miterlimit:4;stroke-dasharray:none;stroke-dashoffset:0;stroke-opacity:1;marker:none;marker-start:none;marker-mid:none;marker-end:none;enable-background:accumulate"
           id="use1112" />
        <path
           d="m 147.51133,84.420104 c -0.15315,0.37826 -0.74996,1.217155 -1.11917,1.586479 -1.50712,1.507293 -3.95083,1.507293 -5.45794,0 -1.50729,-1.507117 -1.50729,-3.950822 0,-5.457939 1.49918,-1.499149 3.92701,-1.508142 5.17624,-0.28143 -1.76796,-1.768347 -1.76796,-4.211642 -0.26102,-5.718699 0.72827,-0.728392 1.71751,-1.135421 2.74752,-1.130488 1.01696,0.005 1.99083,0.411317 2.70988,1.130488 1.50694,1.507057 1.50694,3.950352 -0.26102,5.718699 1.24916,-1.226359 3.67659,-1.217367 5.17571,0.28143 1.50729,1.507117 1.50729,3.950822 0,5.457939 -1.50705,1.506938 -3.95035,1.506938 -5.45741,0 -0.36921,-0.369324 -0.96601,-1.208219 -1.11917,-1.586479 0,0 0.0709,2.75797 0.34386,4.958129 0.273,2.200159 0.88657,4.958126 0.88657,4.958126 h -4.59449 c 0,0 0.61358,-2.757967 0.88658,-4.958126 0.273,-2.200159 0.34386,-4.958129 0.34386,-4.958129 z"
           style="color:#000000;display:inline;overflow:visible;visibility:visible;fill:#ccae66;fill-opacity:1;fill-rule:evenodd;stroke:none;stroke-width:0.291237;stroke-linecap:square;stroke-linejoin:miter;stroke-miterlimit:4;stroke-dasharray:none;stroke-dashoffset:0;stroke-opacity:1;marker:none;marker-start:none;marker-mid:none;marker-end:none;enable-background:accumulate"
           id="use1954" />
        <path
           d="m 147.51133,136.27844 c -0.15315,0.37826 -0.74996,1.21715 -1.11917,1.58648 -1.50712,1.50729 -3.95083,1.50729 -5.45794,0 -1.50729,-1.50712 -1.50729,-3.95083 0,-5.45794 1.49918,-1.49915 3.92701,-1.50814 5.17624,-0.28143 -1.76796,-1.76835 -1.76796,-4.21164 -0.26102,-5.7187 0.72827,-0.72839 1.71751,-1.13542 2.74752,-1.13049 1.01696,0.005 1.99083,0.41132 2.70988,1.13049 1.50694,1.50706 1.50694,3.95035 -0.26102,5.7187 1.24916,-1.22636 3.67659,-1.21737 5.17571,0.28143 1.50729,1.50711 1.50729,3.95082 0,5.45794 -1.50705,1.50693 -3.95035,1.50693 -5.45741,0 -0.36921,-0.36933 -0.96601,-1.20822 -1.11917,-1.58648 0,0 0.0709,2.75797 0.34386,4.95813 0.273,2.20016 0.88657,4.95812 0.88657,4.95812 h -4.59449 c 0,0 0.61358,-2.75796 0.88658,-4.95812 0.273,-2.20016 0.34386,-4.95813 0.34386,-4.95813 z"
           style="color:#000000;display:inline;overflow:visible;visibility:visible;fill:#ccae66;fill-opacity:1;fill-rule:evenodd;stroke:none;stroke-width:0.291237;stroke-linecap:square;stroke-linejoin:miter;stroke-miterlimit:4;stroke-dasharray:none;stroke-dashoffset:0;stroke-opacity:1;marker:none;marker-start:none;marker-mid:none;marker-end:none;enable-background:accumulate"
           id="use1956" />
        <path
           id="use1958"
           style="color:#000000;display:inline;overflow:visible;visibility:visible;fill:#ccae66;fill-opacity:1;fill-rule:evenodd;stroke:none;stroke-width:0.291237;stroke-linecap:square;stroke-linejoin:miter;stroke-miterlimit:4;stroke-dasharray:none;stroke-dashoffset:0;stroke-opacity:1;marker:none;marker-start:none;marker-mid:none;marker-end:none;enable-background:accumulate"
           d="m 173.18051,56.116987 v 12.290207 h -2.31614 c 0,0 0.61325,-2.758196 0.88625,-4.958355 0.273,-2.200158 0.34417,-4.957836 0.34417,-4.957836 -0.15316,0.378259 -0.7501,1.217141 -1.11931,1.586465 -1.50712,1.507294 -3.95095,1.507294 -5.45807,0 -1.07167,-1.071541 -1.37723,-2.615237 -0.92501,-3.960481 z m -40.61716,0 c 0.45222,1.345244 0.14666,2.88894 -0.92501,3.960481 -1.50705,1.50694 -3.95049,1.50694 -5.45755,0 -0.36921,-0.369324 -0.96615,-1.208206 -1.11931,-1.586465 0,0 0.0712,2.757678 0.34417,4.957836 0.273,2.200159 0.88625,4.958355 0.88625,4.958355 h -4.59455 c 0,0 0.61376,-2.758196 0.88676,-4.958355 0.273,-2.200158 0.34365,-4.957836 0.34365,-4.957836 -0.15315,0.378259 -0.74958,1.217141 -1.11879,1.586465 -1.50712,1.507294 -3.95095,1.507294 -5.45807,0 -1.07167,-1.071541 -1.37723,-2.615237 -0.92501,-3.960481 z m 40.61716,43.230437 v 20.918106 h -2.31614 c 0,0 0.61325,-2.7582 0.88625,-4.95836 0.273,-2.20016 0.34417,-4.95783 0.34417,-4.95783 -0.15316,0.37825 -0.7501,1.21714 -1.11931,1.58646 -1.50712,1.50729 -3.95095,1.50729 -5.45807,0 -1.50729,-1.50712 -1.50729,-3.95094 0,-5.45806 1.49918,-1.49915 3.9272,-1.50783 5.17643,-0.28112 -1.76796,-1.76835 -1.7679,-4.21197 -0.26097,-5.71903 0.72827,-0.728394 1.71763,-1.135101 2.74764,-1.130166 z m 0,51.858336 v 0.96479 c 0,4.46465 -0.43143,8.84607 -1.24851,13.1067 0.12299,-1.62466 0.16279,-3.06958 0.16279,-3.06958 -0.15316,0.37826 -0.7501,1.21715 -1.11931,1.58646 -1.50712,1.5073 -3.95095,1.5073 -5.45807,0 -1.50729,-1.50711 -1.50729,-3.95094 0,-5.45806 1.49918,-1.49914 3.9272,-1.50783 5.17643,-0.28112 -1.76796,-1.76834 -1.7679,-4.21198 -0.26097,-5.71903 0.72827,-0.7284 1.71763,-1.13509 2.74764,-1.13016 z m -49.16703,51.85833 c 1.01697,0.005 1.99086,0.41099 2.70991,1.13016 1.50694,1.50706 1.507,3.95069 -0.26096,5.71903 1.24916,-1.22636 3.67679,-1.21767 5.17591,0.28112 1.50729,1.50712 1.50729,3.95096 0,5.45807 -1.50705,1.50694 -3.95049,1.50694 -5.45755,0 -0.36921,-0.36932 -0.96615,-1.20821 -1.11931,-1.58647 0,0 0.0712,2.75768 0.34417,4.95784 0.003,0.0271 0.008,0.056 0.0114,0.0832 -0.98551,0.35383 -1.98156,0.68654 -2.98741,0.99942 0.0571,-0.36619 0.11093,-0.73139 0.15451,-1.08262 0.273,-2.20016 0.34365,-4.95784 0.34365,-4.95784 -0.15315,0.37826 -0.74958,1.21715 -1.1188,1.58647 -1.50711,1.5073 -3.95094,1.5073 -5.45806,0 -1.50729,-1.50711 -1.50729,-3.95095 0,-5.45807 1.49919,-1.49915 3.92668,-1.50783 5.17591,-0.28112 -1.76796,-1.76834 -1.7679,-4.21197 -0.26096,-5.71903 0.72827,-0.72839 1.71763,-1.1351 2.74763,-1.13016 z" />
        <path
           d="m 122.92794,162.2076 c -0.15316,0.37826 -0.74996,1.21716 -1.11918,1.58648 -1.50711,1.5073 -3.95082,1.5073 -5.45794,0 -1.50729,-1.50711 -1.50729,-3.95082 0,-5.45794 1.49919,-1.49914 3.92702,-1.50814 5.17625,-0.28143 -1.76796,-1.76834 -1.76796,-4.21164 -0.26103,-5.71869 0.72828,-0.7284 1.71752,-1.13542 2.74752,-1.13049 1.01697,0.005 1.99084,0.41131 2.70989,1.13049 1.50694,1.50705 1.50694,3.95035 -0.26102,5.71869 1.24916,-1.22635 3.67659,-1.21736 5.17571,0.28143 1.50729,1.50712 1.50729,3.95083 0,5.45794 -1.50706,1.50694 -3.95035,1.50694 -5.45741,0 -0.36922,-0.36932 -0.96602,-1.20822 -1.11918,-1.58648 0,0 0.0709,2.75797 0.34386,4.95813 0.273,2.20016 0.88658,4.95813 0.88658,4.95813 h -4.59449 c 0,0 0.61358,-2.75797 0.88658,-4.95813 0.273,-2.20016 0.34386,-4.95813 0.34386,-4.95813 z"
           style="color:#000000;display:inline;overflow:visible;visibility:visible;fill:#ccae66;fill-opacity:1;fill-rule:evenodd;stroke:none;stroke-width:0.291237;stroke-linecap:square;stroke-linejoin:miter;stroke-miterlimit:4;stroke-dasharray:none;stroke-dashoffset:0;stroke-opacity:1;marker:none;marker-start:none;marker-mid:none;marker-end:none;enable-background:accumulate"
           id="use1960" />
        <path
           d="m 122.92794,110.34927 c -0.15316,0.37826 -0.74996,1.21716 -1.11918,1.58648 -1.50711,1.50729 -3.95082,1.50729 -5.45794,0 -1.50729,-1.50712 -1.50729,-3.95082 0,-5.45794 1.49919,-1.49915 3.92702,-1.50814 5.17625,-0.28143 -1.76796,-1.76835 -1.76796,-4.21164 -0.26103,-5.7187 0.72828,-0.72839 1.71752,-1.135419 2.74752,-1.130486 1.01697,0.005 1.99084,0.411317 2.70989,1.130486 1.50694,1.50706 1.50694,3.95035 -0.26102,5.7187 1.24916,-1.22636 3.67659,-1.21737 5.17571,0.28143 1.50729,1.50712 1.50729,3.95082 0,5.45794 -1.50706,1.50694 -3.95035,1.50694 -5.45741,0 -0.36922,-0.36932 -0.96602,-1.20822 -1.11918,-1.58648 0,0 0.0709,2.75797 0.34386,4.95813 0.273,2.20016 0.88658,4.95813 0.88658,4.95813 h -4.59449 c 0,0 0.61358,-2.75797 0.88658,-4.95813 0.273,-2.20016 0.34386,-4.95813 0.34386,-4.95813 z"
           style="color:#000000;display:inline;overflow:visible;visibility:visible;fill:#ccae66;fill-opacity:1;fill-rule:evenodd;stroke:none;stroke-width:0.291237;stroke-linecap:square;stroke-linejoin:miter;stroke-miterlimit:4;stroke-dasharray:none;stroke-dashoffset:0;stroke-opacity:1;marker:none;marker-start:none;marker-mid:none;marker-end:none;enable-background:accumulate"
           id="use1962" />
        <path
           d="m 147.51133,188.13677 c -0.15315,0.37826 -0.74996,1.21716 -1.11917,1.58648 -1.50712,1.5073 -3.95083,1.5073 -5.45794,0 -1.50729,-1.50711 -1.50729,-3.95082 0,-5.45794 1.49918,-1.49915 3.92701,-1.50814 5.17624,-0.28143 -1.76796,-1.76834 -1.76796,-4.21164 -0.26102,-5.7187 0.72827,-0.72839 1.71751,-1.13542 2.74752,-1.13048 1.01696,0.005 1.99083,0.41131 2.70988,1.13048 1.50694,1.50706 1.50694,3.95036 -0.26102,5.7187 1.24916,-1.22636 3.67659,-1.21736 5.17571,0.28143 1.50729,1.50712 1.50729,3.95083 0,5.45794 -1.50705,1.50694 -3.95035,1.50694 -5.45741,0 -0.36921,-0.36932 -0.96601,-1.20822 -1.11917,-1.58648 0,0 0.0709,2.75797 0.34386,4.95813 0.273,2.20016 0.88657,4.95813 0.88657,4.95813 h -4.59449 c 0,0 0.61358,-2.75797 0.88658,-4.95813 0.273,-2.20016 0.34386,-4.95813 0.34386,-4.95813 z"
           style="color:#000000;display:inline;overflow:visible;visibility:visible;fill:#ccae66;fill-opacity:1;fill-rule:evenodd;stroke:none;stroke-width:0.291237;stroke-linecap:square;stroke-linejoin:miter;stroke-miterlimit:4;stroke-dasharray:none;stroke-dashoffset:0;stroke-opacity:1;marker:none;marker-start:none;marker-mid:none;marker-end:none;enable-background:accumulate"
           id="use1964" />
      </g>
      <path
         transform="matrix(0.29147342,0,0,0.29100214,27.443803,56.116754)"
         d="M 475.50391 349.77344 C 474.87631 350.21462 474.27208 350.70565 473.71094 351.26758 C 469.04362 355.94189 468.60371 363.23065 472.36133 368.41602 C 473.65618 361.97522 474.68562 355.6978 475.50391 349.77344 z M 84.341797 415.86523 C 82.161135 415.87598 80.038098 416.42692 78.150391 417.44141 C 83.308625 424.77621 88.850302 431.3411 94.681641 437.26562 C 98.862297 431.47214 98.357438 424.34763 93.769531 419.75195 C 91.27094 417.24888 87.875587 415.84829 84.341797 415.86523 z M 415.5293 415.86523 C 412.04027 415.88242 408.69742 417.27864 406.23047 419.75 C 401.36769 424.62101 401.08335 432.33641 406.11328 438.29297 C 412.01503 432.30667 417.71278 425.6651 423.13281 418.23633 C 420.91476 416.69561 418.26633 415.85211 415.5293 415.86523 z M 101.43164 436.37305 C 99.189046 436.28731 97.005505 436.76787 95.158203 437.75391 C 101.1188 443.75797 107.37418 449.10413 113.82617 453.92578 C 115.35109 449.31588 114.29508 444.03689 110.63281 440.36914 C 108.06108 437.7933 104.69291 436.49772 101.43164 436.37305 z M 398.57031 436.37305 C 395.30947 436.49772 391.94077 437.7939 389.36914 440.36914 C 385.3366 444.40773 384.46412 450.39824 386.7207 455.29883 C 393.29831 450.30957 399.74085 444.73901 405.96094 438.44531 C 403.91611 436.98923 401.28533 436.26924 398.57031 436.37305 z "
         style="color:#000000;display:inline;overflow:visible;visibility:visible;fill:#8c7131;fill-opacity:1;fill-rule:evenodd;stroke:none;stroke-width:1;stroke-linecap:square;stroke-linejoin:miter;stroke-miterlimit:4;stroke-dasharray:none;stroke-dashoffset:0;stroke-opacity:1;marker:none;marker-start:none;marker-mid:none;marker-end:none;enable-background:accumulate"
         id="path2053" />
      <g
         style="stroke-width:1.10074"
         id="g1049">
        <g
           style="stroke-width:1.10074"
           transform="translate(-1.8925703e-4)"
           id="g901">
          <path
             id="path893"
             style="color:#000000;display:inline;overflow:visible;visibility:visible;fill:#cccccc;fill-opacity:1;fill-rule:evenodd;stroke:none;stroke-width:1.10074;stroke-linecap:square;stroke-linejoin:miter;stroke-miterlimit:4;stroke-dasharray:none;stroke-dashoffset:0;stroke-opacity:1;marker:none;marker-start:none;marker-mid:none;marker-end:none;enable-background:accumulate"
             d="m 379.13281,230.8125 a 74.285714,66.264998 0 0 0 -74.28515,66.26562 74.285714,66.264998 0 0 0 74.28515,66.26563 74.285714,66.264998 0 0 0 74.28516,-66.26563 74.285714,66.264998 0 0 0 -74.28516,-66.26562 z m -0.29492,24.3457 a 49.458217,41.921023 0 0 1 0.29492,0 49.458217,41.921023 0 0 1 49.45703,41.91992 A 49.458217,41.921023 0 0 1 379.13281,339 49.458217,41.921023 0 0 1 329.67383,297.07812 49.458217,41.921023 0 0 1 378.83789,255.1582 Z"
             transform="scale(0.26458333)" />
          <path
             transform="scale(0.26458333)"
             d="M 379.13281,230.8125 A 74.285713,66.264997 0 0 0 304.84766,297.07812 74.285713,66.264997 0 0 0 377,363.31445 a 72.299164,64.492935 9.7552303 0 1 -4.79492,-0.67578 72.299164,64.492935 9.7552303 0 1 -60.32617,-75.81055 72.299164,64.492935 9.7552303 0 1 68.31054,-52.48046 72.299164,64.492935 9.7552303 0 1 13.8711,1.16992 72.299164,64.492935 9.7552303 0 1 55.9375,41.6875 74.285713,66.264997 0 0 0 -70.86524,-46.39258 z m 10.48828,25.30078 A 49.458216,41.921022 0 0 1 428.58984,297.07812 49.458216,41.921022 0 0 1 379.13281,339 a 49.458216,41.921022 0 0 1 -37.21875,-14.31445 51.10538,43.317168 0 0 0 41.21875,17.71093 51.10538,43.317168 0 0 0 51.10352,-43.31836 51.10538,43.317168 0 0 0 -44.61524,-42.96484 z"
             style="color:#000000;display:inline;overflow:visible;visibility:visible;fill:#ffffff;fill-rule:evenodd;stroke:none;stroke-width:1.10074;stroke-linecap:square;stroke-linejoin:miter;stroke-miterlimit:4;stroke-dasharray:none;stroke-dashoffset:0;stroke-opacity:1;marker:none;marker-start:none;marker-mid:none;marker-end:none;enable-background:accumulate"
             id="path903" />
          <g
             style="stroke-width:1.10074"
             id="g930">
            <path
               id="path924"
               style="color:#000000;display:inline;overflow:visible;visibility:visible;fill:#808080;fill-opacity:1;fill-rule:evenodd;stroke:none;stroke-width:1.10074;stroke-linecap:square;stroke-linejoin:miter;stroke-miterlimit:4;stroke-dasharray:none;stroke-dashoffset:0;stroke-opacity:1;marker:none;marker-start:none;marker-mid:none;marker-end:none;enable-background:accumulate"
               d="m 378.78906,246.32812 c -31.60715,0.16026 -57.13058,21.92378 -57.13086,48.71485 -6.5e-4,26.90556 25.73157,48.7172 57.47461,48.7168 7.04536,-1.5e-4 13.79181,-1.08057 20.0293,-3.04688 -5.55262,1.58139 -11.49065,2.45105 -17.67188,2.45117 -30.63841,4e-4 -55.47522,-21.05218 -55.47461,-47.02148 2.7e-4,-25.85932 24.63639,-46.86571 55.14454,-47.01953 0.11074,-2.8e-4 0.21971,-2.8e-4 0.33007,0 25.8127,5.2e-4 47.50485,14.94621 53.69727,35.18359 -5.77116,-21.7363 -28.66751,-37.97796 -56.05469,-37.97852 -0.11387,-2.7e-4 -0.22793,-2.7e-4 -0.34179,0 z m 51.61133,6.56641 c 10.02182,10.9551 16.03727,24.94118 16.03711,40.18359 3.8e-4,35.12924 -31.92343,63.60716 -71.30469,63.60743 -20.13241,-1.4e-4 -38.30173,-7.4548 -51.26758,-19.42383 13.07548,14.29313 32.97367,23.42367 55.26758,23.42383 39.38128,-2.7e-4 71.30507,-28.47819 71.30469,-63.60743 1.8e-4,-17.17052 -7.6403,-32.73985 -20.03711,-44.18359 z"
               transform="matrix(0.26458333,0,0,0.26458333,1.8925703e-4,0)" />
          </g>
          <path
             transform="scale(0.26458333)"
             d="M 416.61914,324.42383 A 49.458216,41.921022 0 0 1 379.13281,339 49.458216,41.921022 0 0 1 341.64648,324.42578 c -0.35582,8.83094 -0.71716,18.62105 -1.04296,29.30664 a 74.285713,66.264997 0 0 0 38.52929,9.61133 74.285713,66.264997 0 0 0 38.5293,-9.60937 c -0.32584,-10.68708 -0.6871,-20.47862 -1.04297,-29.31055 z"
             style="color:#000000;display:inline;overflow:visible;visibility:visible;fill:#808080;fill-opacity:1;fill-rule:evenodd;stroke:none;stroke-width:1.10074;stroke-linecap:square;stroke-linejoin:miter;stroke-miterlimit:4;stroke-dasharray:none;stroke-dashoffset:0;stroke-opacity:1;marker:none;marker-start:none;marker-mid:none;marker-end:none;enable-background:accumulate"
             id="path947" />
        </g>
        <g
           style="stroke-width:1.10074"
           id="g881">
          <path
             style="font-variation-settings:normal;opacity:1;vector-effect:none;fill:#cccccc;fill-opacity:1;fill-rule:evenodd;stroke:none;stroke-width:0.291237;stroke-linecap:butt;stroke-linejoin:miter;stroke-miterlimit:4;stroke-dasharray:none;stroke-dashoffset:0;stroke-opacity:1;marker:none;marker-start:none;marker-mid:none;marker-end:none;stop-color:#000000;stop-opacity:1"
             d="m 90.946633,103.40111 c 0.217231,-14.119899 0.959914,-27.367005 0.959914,-27.367005 h 16.811213 c 0,0 0.74268,13.247106 0.95992,27.367005 z"
             id="path876" />
          <path
             transform="scale(0.26458333)"
             d="m 402.90234,287.37305 c 0,0 2.80589,50.06704 3.62696,103.43359 h 6 c -0.82107,-53.36655 -3.62696,-103.43359 -3.62696,-103.43359 z"
             style="font-variation-settings:normal;opacity:1;vector-effect:none;fill:#808080;fill-opacity:1;fill-rule:evenodd;stroke:none;stroke-width:1.10074;stroke-linecap:butt;stroke-linejoin:miter;stroke-miterlimit:4;stroke-dasharray:none;stroke-dashoffset:0;stroke-opacity:1;marker:none;marker-start:none;marker-mid:none;marker-end:none;stop-color:#000000;stop-opacity:1"
             id="path888" />
          <path
             transform="scale(0.26458333)"
             d="m 347.36328,287.37305 c 0,0 -2.80787,50.06704 -3.6289,103.43359 h 6.11914 c 0.92823,-51.03598 3.50976,-97.43359 3.50976,-97.43359 h 57.85156 c -0.14363,-2.76348 -0.3125,-6 -0.3125,-6 z"
             style="font-variation-settings:normal;opacity:1;vector-effect:none;fill:#ffffff;fill-opacity:1;fill-rule:evenodd;stroke:none;stroke-width:1.10074;stroke-linecap:butt;stroke-linejoin:miter;stroke-miterlimit:4;stroke-dasharray:none;stroke-dashoffset:0;stroke-opacity:1;marker:none;marker-start:none;marker-mid:none;marker-end:none;stop-color:#000000;stop-opacity:1"
             id="path883" />
        </g>
        <g
           style="stroke-width:1.10074"
           id="g955">
          <path
             id="path952"
             d="m 110.50981,121.29616 v 27.49516 c 0,9.76156 -1.6173,23.49046 7.0658,27.34156 8.6831,3.85109 17.66449,-2.15046 28.72399,-13.36357 0,0 -6.60809,0.98532 -11.49575,-1.29559 0,0 10.83013,-12.57999 31.1059,-16.4201 0,0 0,21.19739 -7.83382,33.79294 0,0 -2.61127,-2.76488 -3.84011,-9.36986 -15.63778,29.90118 -43.827,25.59754 -53.92367,41.38047 -10.096663,-15.78293 -38.285878,-11.47929 -53.923664,-41.38047 -1.228834,6.60498 -3.840107,9.36986 -3.840107,9.36986 -7.833817,-12.59555 -7.833817,-33.79294 -7.833817,-33.79294 20.275762,3.84011 31.105893,16.4201 31.105893,16.4201 -4.887657,2.28091 -11.495751,1.29559 -11.495751,1.29559 11.059507,11.21311 20.040897,17.21466 28.723997,13.36357 8.6831,-3.8511 7.065796,-17.58 7.065796,-27.34156 v -27.49516 z"
             style="font-variation-settings:normal;opacity:1;vector-effect:none;fill:#cccccc;fill-opacity:1;fill-rule:evenodd;stroke:none;stroke-width:0.291237;stroke-linecap:butt;stroke-linejoin:miter;stroke-miterlimit:4;stroke-dasharray:none;stroke-dashoffset:0;stroke-opacity:1;marker:none;marker-start:none;marker-mid:none;marker-end:none;stop-color:#000000;stop-opacity:1" />
          <path
             transform="scale(0.26458333)"
             d="m 407.67578,459.1582 v 107.20313 c 0,36.89408 -6.11294,88.78255 29.70508,103.33789 -29.81802,-14.55534 -23.70508,-66.44381 -23.70508,-103.33789 V 459.1582 Z m 215.38477,93.07618 -6.3711,7.12695 c 0,0 -16.09668,26.40141 -16.28515,28.01172 -17.65317,25.3535 -47.2381,61.80588 -87.6836,90.86133 -30.26506,21.74195 -55.02987,29.03676 -76.0039,34.33203 -20.97408,5.29527 -42.87282,11.27205 -57.58399,25.14257 v 4.64844 c 14.0247,-13.22328 37.25567,-21.56418 58.32227,-26.88281 21.06659,-5.31863 46.41837,-12.74899 77.02344,-34.80469 38.21048,-27.53659 66.49993,-60.62826 85.02539,-86.46094 -0.67319,4.67953 -1.64227,10.66513 -3.00977,17.26368 2.68992,-6.81708 4.44534,-14.78624 5.51953,-20.80469 1.16895,-1.66735 2.30565,-3.30988 3.38867,-4.9043 -1.36839,10.23271 -3.74513,25.97944 -7.5,44.09766 7.01315,-17.77337 9.97566,-37.78994 11.21094,-49.69336 1.23192,-1.88297 2.44115,-3.74108 3.53711,-5.48047 -1.44314,15.01655 -4.80044,42.76775 -11.8457,69.10742 11.88481,-34.05132 14.9084,-61.69734 15.65625,-75.28906 1.00043,-1.6625 1.91388,-3.21734 2.75586,-4.67188 -1.09844,19.17809 -5.46486,72.97331 -20.86133,103.0879 23.48091,-45.48507 24.94188,-95.29661 24.80859,-110.1504 z M 149.7832,571.06641 c 0,0 24.01191,61.32226 94.00391,111.60351 30.63801,22.00989 55.95489,29.48606 77.02148,34.80469 21.0666,5.31863 37.7014,8.49423 52.75586,20.625 -13.68138,-14.96304 -31.04353,-18.23793 -52.01757,-23.5332 -20.97405,-5.29527 -45.73885,-12.59008 -76.00391,-34.33203 C 176.20023,630.41956 149.7832,571.06641 149.7832,571.06641 Z m 90.91407,33.7539 c 0,0 -19.70538,4.51563 -59.93555,4.51563 0,0 10.03765,25.78237 37.03906,43.06445 0,0 -19.75894,-17.63382 -31.82617,-39.87891 0,0 1.13112,0.0655 2.73633,0.14454 3.22739,6.01624 14.39899,24.9438 33.48828,37.29882 0,0 -18.98243,-16.59527 -30.00977,-37.14843 0.70429,0.0255 1.59487,0.0393 2.39453,0.0625 2.33548,4.78051 11.30121,20.54764 33.89063,35.00586 0,0 -17.30215,-16.4643 -30.11914,-34.91602 13.28438,0.22685 34.10237,-0.22881 46.41406,-4.67383 z m -68.79688,19.19531 c -3.2841,26.68328 -13.30664,44.02344 -13.30664,44.02344 l 3.07031,3.67188 c 4.29513,-8.25782 10.14865,-22.16575 11.91992,-39.16992 31.0525,59.37581 75.10064,85.36058 116.00196,103.64843 -62.0933,-34.95178 -88.50084,-63.41762 -117.68555,-112.17383 z m 370.39649,64.10352 c -19.72509,15.65439 -46.22717,39.42018 -94.30469,52.66406 -48.07752,13.24388 -68.85938,41.78907 -68.85938,41.78907 v 8.36914 c 18.62903,-22.55021 39.07515,-35.12887 71.71485,-46.7793 32.63969,-11.65043 63.61893,-27.18718 91.44922,-56.04297 z m -103.60157,32.51758 c 0,0 -31.8736,2.61579 -59.5625,26.64648 v 6.04688 c 21.5026,-22.96071 59.5625,-32.69336 59.5625,-32.69336 z m -16.00976,14.20508 c 0,0 -24.07407,3.8475 -43.55274,24.18359 v 6.04492 c 19.45006,-20.49762 43.55274,-30.22851 43.55274,-30.22851 z m -2.87305,10.78906 c 0,0 -22.84308,3.02772 -40.67969,25.00586 v 6.04492 c 18.62903,-22.55021 40.67969,-31.05078 40.67969,-31.05078 z"
             style="font-variation-settings:normal;opacity:1;vector-effect:none;fill:#808080;fill-opacity:1;fill-rule:evenodd;stroke:none;stroke-width:1.10074;stroke-linecap:butt;stroke-linejoin:miter;stroke-miterlimit:4;stroke-dasharray:none;stroke-dashoffset:0;stroke-opacity:1;marker:none;marker-start:none;marker-mid:none;marker-end:none;stop-color:#000000;stop-opacity:1"
             id="path978" />
          <path
             transform="scale(0.26458333)"
             d="m 340.58984,458.44141 v 103.91992 c 0,36.89408 6.11294,88.78255 -26.70507,103.33789 -32.81802,14.5553 -66.7628,-8.12756 -108.5625,-50.50781 -2.95551,-0.47981 -4.74024,0.48437 -4.74024,0.48437 41.79971,42.38026 86.48472,70.57874 119.30274,56.02344 32.81801,-14.55534 26.70507,-66.44381 26.70507,-103.33789 V 460.33594 Z m -209.38476,89.79297 c 0,0 -7.1e-4,80.11547 29.60742,127.7207 0,0 1.23377,-1.3262 3.01953,-4.08985 -20.14478,-37.64122 -25.05686,-88.82514 -26.24219,-108.92382 15.17334,26.94844 32.77344,44.20507 32.77344,44.20507 -11.90485,-16.42046 -33.1582,-52.9121 -33.1582,-52.9121 56.79489,10.7566 91.72478,42.51027 106.01562,58.23828 1.89201,-0.61996 3.75099,-1.33874 5.54883,-2.17774 0,0 -40.93165,-47.54675 -117.56445,-62.06054 z m 495.85547,0 c -76.63283,14.51379 -117.56641,62.06054 -117.56641,62.06054 2.79106,1.3025 5.73157,2.31897 8.71094,3.11328 9.07244,-9.32507 41.58081,-39.55816 94.83008,-54.84179 -14.2303,26.76758 -26.5842,47.70924 -26.5842,47.70924 17.98195,-22.80999 29.78632,-43.55403 33.09982,-49.47682 2.41329,-0.61631 4.85092,-1.21182 7.34375,-1.76172 0.15585,-4.25571 0.16602,-6.80273 0.16602,-6.80273 z m -70.87305,66.41015 c -0.95366,-0.009 -2.02511,0.15814 -3.24414,0.54688 -41.79969,42.38025 -75.74448,65.06311 -108.5625,50.50781 -11.87605,-5.26723 -18.63877,-15.43658 -22.45313,-28.00195 3.58963,15.30475 10.74,27.91995 24.45313,34.00195 32.81802,14.5553 71.92492,-13.35216 113.72461,-55.73242 -1.06702,-0.79918 -2.32854,-1.30672 -3.91797,-1.32227 z m 30.42969,19.70508 -3.67774,6.19141 c 4.64444,24.9637 14.51367,35.41406 14.51367,35.41406 0.58751,-0.94462 1.15824,-1.90566 1.72266,-2.875 -3.97496,-8.86478 -9.69644,-23.3465 -12.55859,-38.73047 z"
             style="font-variation-settings:normal;opacity:1;vector-effect:none;fill:#ffffff;fill-opacity:1;fill-rule:evenodd;stroke:none;stroke-width:1.10074;stroke-linecap:butt;stroke-linejoin:miter;stroke-miterlimit:4;stroke-dasharray:none;stroke-dashoffset:0;stroke-opacity:1;marker:none;marker-start:none;marker-mid:none;marker-end:none;stop-color:#000000;stop-opacity:1"
             id="path966" />
          <path
             transform="scale(0.26458333)"
             d="m 340.58984,458.44141 v 9.95312 c 13.03385,0.71988 26.0588,1.16016 38.54297,1.16016 12.48449,0 25.50879,-0.44025 38.54297,-1.16016 v -9.95312 z"
             style="font-variation-settings:normal;opacity:1;vector-effect:none;fill:#808080;fill-opacity:1;fill-rule:evenodd;stroke:none;stroke-width:1.10074;stroke-linecap:butt;stroke-linejoin:miter;stroke-miterlimit:4;stroke-dasharray:none;stroke-dashoffset:0;stroke-opacity:1;marker:none;marker-start:none;marker-mid:none;marker-end:none;stop-color:#000000;stop-opacity:1"
             id="path837-1" />
        </g>
        <g
           style="stroke-width:1.10074"
           id="g874">
          <path
             id="path837"
             d="m 144.83726,103.14836 c 1.32005,0.21765 1.89756,0.26608 1.89756,2.26293 v 10.89644 c 0,1.99685 -0.57751,2.04528 -1.89756,2.26293 -1.26427,0.20846 -25.31186,4.07794 -44.52511,4.07794 -19.213242,0 -43.260835,-3.86948 -44.5251,-4.07794 -1.320055,-0.21765 -1.897559,-0.26608 -1.897559,-2.26293 v -10.89644 c 0,-1.99685 0.577504,-2.04528 1.897559,-2.26293 1.264265,-0.20846 25.311858,-3.548765 44.5251,-3.548765 19.21325,0 43.26084,3.340305 44.52511,3.548765 z"
             style="font-variation-settings:normal;opacity:1;vector-effect:none;fill:#cccccc;fill-opacity:1;fill-rule:evenodd;stroke:none;stroke-width:0.291237;stroke-linecap:butt;stroke-linejoin:miter;stroke-miterlimit:4;stroke-dasharray:none;stroke-dashoffset:0;stroke-opacity:1;marker:none;marker-start:none;marker-mid:none;marker-end:none;stop-color:#000000;stop-opacity:1" />
          <path
             id="path850"
             style="font-variation-settings:normal;opacity:1;vector-effect:none;fill:#808080;fill-opacity:1;fill-rule:evenodd;stroke:none;stroke-width:1.10074;stroke-linecap:butt;stroke-linejoin:miter;stroke-miterlimit:4;stroke-dasharray:none;stroke-dashoffset:0;stroke-opacity:1;marker:none;marker-start:none;marker-mid:none;marker-end:none;stop-color:#000000;stop-opacity:1"
             d="m 203.67773,437.89844 v 1.68945 c 0,1.80443 0.12866,3.17809 0.38672,4.25 0.56365,0.10101 1.16937,0.19754 1.82617,0.30273 4.91911,0.78789 98.48582,15.41407 173.24219,15.41407 74.75637,0 168.32306,-14.62618 173.24219,-15.41407 0.6568,-0.10519 1.26253,-0.20172 1.82617,-0.30273 0.25807,-1.07191 0.38672,-2.44557 0.38672,-4.25 v -1.68945 c -0.46454,0.0793 -0.90374,0.15864 -1.42773,0.24218 -4.94143,0.78789 -98.93161,15.41211 -174.02735,15.41211 -75.09567,0 -169.08592,-14.62422 -174.02734,-15.41211 -0.524,-0.0835 -0.96319,-0.16292 -1.42774,-0.24218 z"
             transform="scale(0.26458333)" />
          <path
             id="path845"
             style="font-variation-settings:normal;opacity:1;vector-effect:none;fill:#ffffff;fill-opacity:1;fill-rule:evenodd;stroke:none;stroke-width:1.10074;stroke-linecap:butt;stroke-linejoin:miter;stroke-miterlimit:4;stroke-dasharray:none;stroke-dashoffset:0;stroke-opacity:1;marker:none;marker-start:none;marker-mid:none;marker-end:none;stop-color:#000000;stop-opacity:1"
             d="m 379.13281,376.43945 c -72.61697,0 -163.50488,12.62423 -168.2832,13.41211 -4.98918,0.82262 -7.17188,1.00559 -7.17188,8.55274 v 41.18359 c 0,7.14318 1.98632,7.69225 6.42579,8.42773 -0.28707,-1.09456 -0.42579,-2.52628 -0.42579,-4.42773 v -41.76367 c 0,-5.54718 0.72957,-6.27895 5.71875,-7.10156 4.77833,-0.78788 97.11932,-12.28321 169.73633,-12.28321 72.61701,0 163.50486,12.62423 168.28321,13.41211 0.38562,0.0636 0.72379,0.12201 1.07617,0.18164 -0.4624,-5.22002 -2.67631,-5.45619 -7.07617,-6.18164 -4.77835,-0.78788 -95.6662,-13.41211 -168.28321,-13.41211 z"
             transform="scale(0.26458333)" />
          <path
             id="path858"
             style="font-variation-settings:normal;opacity:1;vector-effect:none;fill:#808080;fill-opacity:1;fill-rule:evenodd;stroke:none;stroke-width:1.10074;stroke-linecap:butt;stroke-linejoin:miter;stroke-miterlimit:4;stroke-dasharray:none;stroke-dashoffset:0;stroke-opacity:1;marker:none;marker-start:none;marker-mid:none;marker-end:none;stop-color:#000000;stop-opacity:1"
             d="m 267.17383,383.09766 c -14.93222,1.52213 -27.97216,3.04622 -37.72656,4.26562 v 63.58789 c 9.72528,1.39217 22.71955,3.14026 37.5957,4.89063 0.19132,-2.01618 0.14062,-4.30667 0.14062,-6.71485 v -62.48047 c 0,-1.22621 0.002,-2.40339 -0.01,-3.54882 z m 231.90234,0.83007 c -10e-4,0.88448 0.006,1.79107 0.006,2.71875 v 62.48047 c 0,2.0374 -0.0354,3.98874 0.0684,5.76367 16.35982,-2.01211 29.12425,-3.84106 37.66797,-5.12304 v -61.36719 c -8.55628,-1.12809 -21.34986,-2.72397 -37.74219,-4.47266 z"
             transform="scale(0.26458333)" />
          <path
             style="font-variation-settings:normal;opacity:1;vector-effect:none;fill:#cccccc;fill-opacity:1;fill-rule:evenodd;stroke:none;stroke-width:0.291237;stroke-linecap:butt;stroke-linejoin:miter;stroke-miterlimit:4;stroke-dasharray:none;stroke-dashoffset:0;stroke-opacity:1;marker:none;marker-start:none;marker-mid:none;marker-end:none;stop-color:#000000;stop-opacity:1"
             d="m 69.63393,102.30043 c 0,-2.0821 0.152326,-3.842539 -2.304063,-3.763299 -2.380868,0.0768 -3.456097,0.153602 -5.452952,0.307209 -1.920514,0.147735 -2.227262,0.802581 -2.227262,2.68808 v 18.06722 c 0,1.8855 0.306748,2.54034 2.227262,2.68808 1.996855,0.15361 3.072084,0.23041 5.452952,0.30721 2.456389,0.0792 2.304063,-1.6812 2.304063,-3.7633 z"
             id="path834" />
          <path
             id="path838"
             d="m 130.99038,102.30043 c 0,-2.0821 -0.15233,-3.842539 2.30406,-3.763299 2.38087,0.0768 3.4561,0.153602 5.45295,0.307209 1.92052,0.147735 2.22727,0.802581 2.22727,2.68808 v 18.06722 c 0,1.8855 -0.30675,2.54034 -2.22727,2.68808 -1.99685,0.15361 -3.07208,0.23041 -5.45295,0.30721 -2.45639,0.0792 -2.30406,-1.6812 -2.30406,-3.7633 z"
             style="font-variation-settings:normal;opacity:1;vector-effect:none;fill:#cccccc;fill-opacity:1;fill-rule:evenodd;stroke:none;stroke-width:0.291237;stroke-linecap:butt;stroke-linejoin:miter;stroke-miterlimit:4;stroke-dasharray:none;stroke-dashoffset:0;stroke-opacity:1;marker:none;marker-start:none;marker-mid:none;marker-end:none;stop-color:#000000;stop-opacity:1" />
          <path
             id="path840"
             d="m 61.876915,98.84434 c -1.920514,0.147735 -2.227262,0.802581 -2.227262,2.68808 v 18.06722 c 0,1.8855 0.306748,2.54034 2.227262,2.68808 0,0 -0.529167,-0.9845 -0.529167,-2.32742 0,-1.34292 0,-14.97053 0,-17.37178 0,-2.40126 0.529167,-3.74418 0.529167,-3.74418 z"
             style="font-variation-settings:normal;opacity:1;vector-effect:none;fill:#ffffff;fill-opacity:1;fill-rule:evenodd;stroke:none;stroke-width:0.291237;stroke-linecap:butt;stroke-linejoin:miter;stroke-miterlimit:4;stroke-dasharray:none;stroke-dashoffset:0;stroke-opacity:1;marker:none;marker-start:none;marker-mid:none;marker-end:none;stop-color:#000000;stop-opacity:1" />
          <path
             style="font-variation-settings:normal;opacity:1;vector-effect:none;fill:#ffffff;fill-opacity:1;fill-rule:evenodd;stroke:none;stroke-width:0.291237;stroke-linecap:butt;stroke-linejoin:miter;stroke-miterlimit:4;stroke-dasharray:none;stroke-dashoffset:0;stroke-opacity:1;marker:none;marker-start:none;marker-mid:none;marker-end:none;stop-color:#000000;stop-opacity:1"
             d="m 133.29444,122.59493 c -2.45639,0.0792 -2.30406,-1.6812 -2.30406,-3.7633 v -16.5312 c 0,-2.0821 -0.15233,-3.842539 2.30406,-3.763299 0,0 -0.52917,1.110686 -0.52917,3.500549 0,2.38986 0,15.19618 0,17.05688 0,1.8607 0.52917,3.50037 0.52917,3.50037 z"
             id="path842" />
        </g>
      </g>
    </g>
  </g>
</svg>
