<?xml version="1.0" encoding="UTF-8" standalone="no"?>
<svg
   xmlns:dc="http://purl.org/dc/elements/1.1/"
   xmlns:cc="http://creativecommons.org/ns#"
   xmlns:rdf="http://www.w3.org/1999/02/22-rdf-syntax-ns#"
   xmlns:svg="http://www.w3.org/2000/svg"
   xmlns="http://www.w3.org/2000/svg"
   width="500"
   height="568"
   viewBox="0 0 132.29166 150.28334"
   version="1.1"
   id="svg847">
  <defs
     id="defs841" />
  <metadata
     id="metadata844">
    <rdf:RDF>
      <cc:Work
         rdf:about="">
        <dc:format>image/svg+xml</dc:format>
        <dc:type
           rdf:resource="http://purl.org/dc/dcmitype/StillImage" />
        <dc:title></dc:title>
      </cc:Work>
    </rdf:RDF>
  </metadata>
  <g
     id="layer1"
     transform="translate(-23.365498,-47.278244)">
    <path
       id="circle848"
       style="opacity:1;fill:#035bd3;fill-opacity:0.99607843;stroke:none;stroke-width:1.5;stroke-linejoin:miter;stroke-miterlimit:4;stroke-dasharray:none"
       d="m 88.310547,365.85547 v 130.83398 c -1.1e-5,138.07121 111.928803,250 250.000003,250 42.36374,0 82.25709,-10.55007 117.2207,-29.14648 l 37.41797,-24.4082 c 8.72879,-6.88065 16.97751,-14.3395 24.71094,-22.30274 l 30.125,-37.66015 c 6.73364,-10.31373 12.72836,-21.15151 17.90429,-32.44532 l 16.36133,-48.22851 c 4.09174,-17.94505 6.25977,-36.624 6.25977,-55.8086 v -318 H 203.30078 c -17.57019,0.75939 -35.08327,1.34748 -51.95117,0 H 88.337891 c 2.938417,16.84245 2.756081,34.75633 -0.02734,50.52735 v 58.375 c 2.674105,25.55218 2.628831,52.17578 0,78.26367 z"
       transform="scale(0.26458333)" />
    <path
       id="path1073"
       style="font-variation-settings:normal;vector-effect:none;fill:#002f66;fill-opacity:1;stroke:none;stroke-width:0.25743;stroke-linecap:butt;stroke-linejoin:miter;stroke-miterlimit:10;stroke-dasharray:none;stroke-dashoffset:0;stroke-opacity:1;stop-color:#000000"
       d="m 40.044583,47.278244 c 0.04884,0.04856 0.09807,0.09412 0.146762,0.143661 5.367377,5.461098 4.694547,11.73321 10.061916,17.1943 5.367366,5.461081 11.650194,4.896934 17.017566,10.358024 5.367366,5.461082 4.694036,11.733215 10.061402,17.1943 5.367364,5.461082 11.650195,4.896416 17.017566,10.357501 5.36737,5.46109 4.694553,11.73322 10.061915,17.1943 5.36737,5.46109 11.6502,4.89694 17.01757,10.35803 5.36736,5.46108 4.69455,11.73321 10.06192,17.1943 5.36735,5.46107 11.65019,4.89693 17.01756,10.35802 0.42483,0.43225 0.8081,0.86995 1.16324,1.31155 0.15245,-0.33265 0.29755,-0.66924 0.44493,-1.00459 L 149.91849,156.82505 43.320352,48.365002 41.426928,47.278244 Z M 136.91929,173.71342 24.513748,59.345726 l -1.14825,-0.07131 v 1.372526 c 0.599165,0.464671 1.190343,0.98126 1.770434,1.571479 5.367379,5.461098 4.694546,11.73321 10.061918,17.1943 5.367364,5.461082 11.650194,4.896932 17.017566,10.358024 5.367364,5.461082 4.694552,11.733215 10.061919,17.194295 5.367364,5.46108 11.650194,4.89693 17.017566,10.35802 5.367369,5.46109 4.694552,11.73322 10.061916,17.1943 5.367366,5.46109 11.650193,4.89694 17.017563,10.35803 5.36737,5.46108 4.69404,11.73321 10.06141,17.1943 5.36735,5.46107 11.65019,4.89641 17.01756,10.3575 1.60185,1.62983 2.66391,3.3326 3.5109,5.06378 0.20103,-0.20701 0.39697,-0.41885 0.59531,-0.62839 z M 23.365498,95.467034 v 1.332219 c 4.554448,2.878103 9.471623,3.369627 13.795023,7.768517 5.367364,5.46108 4.694037,11.73322 10.061401,17.1943 5.367366,5.46108 11.650194,4.89642 17.017565,10.35751 5.367372,5.46109 4.694555,11.73321 10.061919,17.1943 5.367364,5.46108 11.650194,4.89693 17.017566,10.35802 5.367364,5.46108 4.694552,11.73322 10.061918,17.1943 5.36735,5.46107 11.6502,4.89693 17.01756,10.35802 0.84253,0.85724 1.53594,1.73475 2.12752,2.62568 0.26592,-0.14143 0.52779,-0.28937 0.79169,-0.43408 l -0.046,-1.50844 -84.447595,-85.92181 C 32.790107,98.229934 28.148437,96.601265 23.365498,95.467034 Z" />
    <path
       id="path1075"
       style="font-variation-settings:normal;vector-effect:none;fill:#cccccc;fill-opacity:1;stroke:none;stroke-width:0.25743;stroke-linecap:butt;stroke-linejoin:miter;stroke-miterlimit:10;stroke-dasharray:none;stroke-dashoffset:0;stroke-opacity:1;stop-color:#000000"
       d="M 52.463979,47.278244 H 41.426928 c 4.445941,5.231135 4.139154,11.09998 9.199438,16.248621 5.367363,5.461084 11.650194,4.896934 17.017565,10.358024 5.367364,5.461082 4.694553,11.733215 10.061919,17.1943 5.367364,5.461082 11.650194,4.896932 17.017566,10.358021 5.367374,5.46109 4.694552,11.73322 10.061914,17.1943 5.36737,5.46109 11.6502,4.89694 17.01757,10.35803 5.36736,5.46108 4.69455,11.73321 10.06192,17.19429 5.36736,5.46108 11.65019,4.89642 17.01756,10.35751 0.45362,0.46153 0.86097,0.92933 1.23559,1.40147 1.41899,-3.23736 2.58444,-6.61014 3.47524,-10.09344 l -1.28365,-2.09755 c -4.2493,-2.35078 -8.74386,-3.08746 -12.73359,-7.14685 -5.36736,-5.46109 -4.69455,-11.73322 -10.06192,-17.1943 -5.36737,-5.46109 -11.65019,-4.89694 -17.01756,-10.35802 -5.36736,-5.46109 -4.69455,-11.733212 -10.06192,-17.194304 C 97.067201,88.397256 90.784371,88.961406 85.417007,83.500324 80.04964,78.039239 80.722452,71.767106 75.355088,66.306024 69.987716,60.844934 63.705405,61.4096 58.338038,55.948516 55.049654,52.393243 54.421999,50.168335 52.463979,47.278244 Z m -29.098481,1.770952 v 10.225217 c 0.727501,0.534199 1.443662,1.14256 2.144055,1.855184 5.367379,5.461095 4.694546,11.733207 10.061918,17.194297 5.367364,5.461084 11.650194,4.896935 17.017566,10.358024 5.367364,5.461085 4.694552,11.733212 10.061919,17.194302 5.367363,5.46108 11.650194,4.89693 17.017565,10.35802 5.367367,5.46109 4.694037,11.73322 10.061401,17.1943 5.367364,5.46108 11.650198,4.89642 17.017568,10.35751 5.36736,5.46108 4.69455,11.73321 10.06192,17.1943 5.36735,5.46107 11.65019,4.89693 17.01756,10.35802 1.74662,1.77712 2.84998,3.64052 3.73362,5.53351 2.38058,-2.51554 4.56194,-5.22078 6.52725,-8.08581 l -2.54971,-5.02657 c -5.36737,-5.46109 -11.65021,-4.89694 -17.01757,-10.35802 -5.36736,-5.46108 -4.69455,-11.73321 -10.06192,-17.1943 -5.36737,-5.46109 -11.64968,-4.89642 -17.017046,-10.35751 -5.367363,-5.46108 -4.694547,-11.7332 -10.061916,-17.19429 -5.367372,-5.4611 -11.650202,-4.89695 -17.017566,-10.358027 -5.367366,-5.461085 -4.694555,-11.733218 -10.061918,-17.1943 -5.367372,-5.46109 -11.650202,-4.89694 -17.017566,-10.358024 -5.367372,-5.46109 -4.694539,-11.733202 -10.061919,-17.1943 -2.872174,-2.374268 -6.344941,-4.352218 -9.855211,-4.501533 z m 0,30.32063 v 16.097208 c 4.658051,3.096262 9.726287,3.491999 14.168128,8.011396 5.367361,5.46108 4.694552,11.73322 10.061916,17.1943 5.367364,5.46108 11.650194,4.89693 17.017566,10.35803 5.367372,5.46108 4.694555,11.73321 10.061919,17.19429 5.367364,5.46109 11.650194,4.89694 17.017566,10.35803 5.367364,5.46108 4.694552,11.73321 10.061917,17.1943 5.36736,5.46107 11.6502,4.89693 17.01756,10.35802 1.05062,1.06896 1.86723,2.16923 2.54559,3.28817 2.81469,-1.54664 5.50238,-3.29477 8.0486,-5.22035 -0.42249,-1.88223 -1.53232,-4.11881 -2.88303,-5.64668 -5.36737,-5.4611 -11.65021,-4.89695 -17.01756,-10.35803 -5.36737,-5.46108 -4.69456,-11.73322 -10.06192,-17.1943 C 94.036378,145.54312 87.753548,146.10727 82.386184,140.64619 77.01882,135.18511 77.691637,128.91298 72.324265,123.45189 66.956893,117.9908 60.674066,118.55495 55.306699,113.09387 49.939335,107.63278 50.612147,101.36065 45.244783,95.899566 39.877411,90.438477 33.594581,91.003142 28.227217,85.542058 Z" />
    <path
       id="path1077"
       style="font-variation-settings:normal;vector-effect:none;fill:#ffffff;fill-opacity:1;stroke:none;stroke-width:0.25743;stroke-linecap:butt;stroke-linejoin:miter;stroke-miterlimit:10;stroke-dasharray:none;stroke-dashoffset:0;stroke-opacity:1;stop-color:#000000"
       d="m 23.365498,47.278244 v 1.770952 c 3.233846,1.38136 6.49895,2.555636 9.48159,5.590357 5.36738,5.461098 4.694547,11.73321 10.061919,17.1943 5.367364,5.461082 11.650194,4.896932 17.017566,10.358022 5.367364,5.461084 4.694552,11.733217 10.061919,17.194299 5.367363,5.461086 11.650194,4.896936 17.017565,10.358026 5.367372,5.46109 4.694553,11.73321 10.061917,17.1943 5.367366,5.46108 11.650196,4.89693 17.017566,10.35802 5.36737,5.46108 4.69455,11.73322 10.06192,17.1943 5.36736,5.46108 11.64968,4.89642 17.01705,10.35751 1.2543,1.2762 2.17666,2.59728 2.9254,3.94136 0.2864,-0.41744 0.56739,-0.8387 0.84439,-1.26297 -0.76674,-1.4086 -1.71633,-2.79258 -3.02875,-4.12792 -5.36737,-5.46109 -11.65021,-4.89694 -17.01757,-10.35802 -5.36736,-5.46108 -4.69455,-11.73322 -10.06192,-17.1943 -5.36737,-5.46109 -11.6502,-4.89694 -17.017563,-10.35802 -5.367363,-5.46109 -4.694547,-11.73321 -10.061918,-17.1943 -5.36737,-5.46109 -11.6502,-4.89694 -17.017564,-10.358027 C 65.361649,92.475051 66.034976,86.202918 60.667612,80.741836 55.300241,75.280744 49.017413,75.845412 43.650047,70.384328 38.282675,64.923238 38.955508,58.651126 33.58813,53.190028 30.37961,49.925488 26.844409,48.810745 23.372732,47.278244 Z m 29.098481,0 c 1.358521,3.316854 2.462173,6.667778 5.500439,9.759095 5.367366,5.461082 11.650196,4.896935 17.017565,10.358025 5.367367,5.461082 4.694039,11.733215 10.061403,17.194297 5.367364,5.461085 11.650194,4.896419 17.017564,10.357509 5.36737,5.46109 4.69455,11.73321 10.06192,17.1943 5.36736,5.46108 11.6502,4.89693 17.01756,10.35802 5.36737,5.46109 4.69456,11.73322 10.06192,17.1943 4.51373,4.59254 9.67481,4.92463 14.39447,8.16178 0.14197,-0.55508 0.27629,-1.1132 0.40411,-1.6738 -4.62766,-3.02992 -9.65128,-3.4543 -14.05805,-7.93802 -5.36737,-5.46108 -4.69404,-11.73322 -10.06141,-17.1943 -5.36737,-5.46109 -11.6502,-4.89642 -17.01756,-10.35751 -5.36737,-5.46108 -4.69455,-11.733206 -10.06192,-17.194295 C 97.43462,88.036555 91.15179,88.600705 85.784426,83.139623 80.417062,77.678538 81.089874,71.406405 75.722507,65.945323 70.355135,60.484233 64.072308,61.04838 58.704941,55.587298 56.109045,52.946074 54.926781,50.115379 53.789996,47.278244 Z M 23.365498,76.091991 v 3.277835 c 1.02485,2.483609 2.212718,4.94542 4.488614,7.261056 5.367364,5.461082 11.650194,4.896932 17.017566,10.358024 5.367364,5.461084 4.694036,11.733214 10.0614,17.194294 5.367367,5.46109 11.650194,4.89694 17.017566,10.35803 5.367372,5.46109 4.694555,11.7327 10.061919,17.19378 5.367364,5.46108 11.650194,4.89693 17.017566,10.35802 5.367361,5.46109 4.694551,11.73322 10.061921,17.1943 5.36735,5.46108 11.65019,4.89694 17.01756,10.35803 1.44656,1.47181 2.45263,3.00256 3.2582,4.56044 0.35521,-0.2686 0.70928,-0.53886 1.05885,-0.81442 -0.85747,-1.7769 -1.93375,-3.52461 -3.57653,-5.19606 -5.36736,-5.46109 -11.6502,-4.89644 -17.01756,-10.35751 -5.36737,-5.46108 -4.69404,-11.73322 -10.061401,-17.1943 C 94.403797,145.18242 88.120967,145.74657 82.753603,140.28549 77.386239,134.8244 78.059056,128.55228 72.691684,123.09119 67.324315,117.6301 61.041485,118.19425 55.674121,112.73316 50.306754,107.27208 50.979566,100.99995 45.612202,95.538865 40.24483,90.077775 33.962,90.641923 28.594636,85.180841 c -2.833769,-2.88325 -3.984904,-5.99218 -5.229138,-9.08885 z" />
    <path
       id="path2270"
       style="font-variation-settings:normal;vector-effect:none;fill:#002f66;fill-opacity:1;stroke:none;stroke-width:0.264583;stroke-linecap:butt;stroke-linejoin:miter;stroke-miterlimit:10;stroke-dasharray:none;stroke-dashoffset:0;stroke-opacity:1;stop-color:#000000"
       d="m 87.114382,174.3807 3.59532,-3.98351 c 1.482765,-1.64286 1.234961,-2.60826 0.233194,-3.5124 -1.001768,-0.90415 -1.98704,-1.05167 -3.469806,0.5912 l -3.77917,4.18721 c -1.399587,-1.14627 -2.559097,-2.15228 -3.290371,-2.89173 -3.940732,-3.98482 -3.569936,-6.02789 -2.281754,-9.91193 l -0.645655,-0.5232 -48.693332,-31.58242 -0.539478,0.93875 c 2.097937,7.1932 5.904486,13.75015 14.72406,23.07524 8.819601,9.32509 21.526632,22.1437 21.526632,22.1437 3.732095,-1.67829 5.575889,-1.0418 9.942494,2.47117 0.810315,0.65187 1.771678,1.5601 3.054952,2.83524 l -3.070072,3.40156 c -1.482766,1.64286 -1.077496,2.75033 -0.07573,3.65448 1.001767,0.90414 2.197848,1.24197 3.680613,-0.4009 l 2.886222,-3.19785 c 5.277746,5.52301 11.451582,12.37863 11.451582,12.37863 3.731742,-2.53072 6.564783,-5.30449 8.771877,-9.82481 l -0.22652,-0.96192 z" />
    <path
       id="path2144"
       style="font-variation-settings:normal;vector-effect:none;fill:#cccccc;fill-opacity:1;stroke:none;stroke-width:0.264583;stroke-linecap:butt;stroke-linejoin:miter;stroke-miterlimit:10;stroke-dasharray:none;stroke-dashoffset:0;stroke-opacity:1;stop-color:#000000"
       d="m 28.782808,126.75392 c 2.097938,7.1932 5.681277,13.54869 14.50085,22.87378 8.8196,9.32509 21.891396,22.3379 21.891396,22.3379 3.732095,-1.67829 5.211125,-1.236 9.577729,2.27697 0.810315,0.65187 1.92951,1.70255 3.212784,2.97769 l -3.424621,3.79439 c -1.482766,1.64286 -1.235328,2.60788 -0.23356,3.51203 1.001767,0.90414 1.987406,1.05203 3.470171,-0.59083 l 3.24077,-3.59068 c 5.277746,5.52301 11.351488,12.38375 11.351488,12.38375 0,0 2.530702,-1.48505 4.925806,-4.13876 2.395084,-2.65369 3.613799,-5.32288 3.613799,-5.32288 0,0 -7.445414,-5.34097 -13.47877,-10.02679 l 3.24077,-3.59068 c 1.482765,-1.64286 1.234962,-2.60826 0.233194,-3.5124 -1.001767,-0.90415 -1.98704,-1.05167 -3.469805,0.5912 l -3.424621,3.79438 c -1.399588,-1.14627 -2.559097,-2.15228 -3.290371,-2.89173 -3.940733,-3.98482 -4.531826,-5.41092 -3.243644,-9.29496 0,0 -14.280306,-11.67381 -24.457721,-19.49448 -10.177415,-7.82064 -16.865767,-10.73586 -24.235657,-12.08788 z" />
    <path
       id="path2220"
       style="font-variation-settings:normal;vector-effect:none;fill:#ffffff;fill-opacity:1;stroke:none;stroke-width:0.264583;stroke-linecap:butt;stroke-linejoin:miter;stroke-miterlimit:10;stroke-dasharray:none;stroke-dashoffset:0;stroke-opacity:1;stop-color:#000000"
       d="m 78.33421,177.91982 -3.386531,3.75218 c -0.701286,0.777 -0.774915,1.57253 -0.251316,2.01598 0.237846,0.19082 0.456243,0.44761 0.422417,0.65558 -0.04806,0.29547 -0.461032,0.48499 -0.811394,0.18312 -1.001768,-0.90415 -1.249186,-1.86919 0.23358,-3.51205 l 3.424621,-3.79439 c 0.283206,-0.31378 0.622579,-0.38585 0.749762,-0.23726 0.115653,0.13509 0.05585,0.45267 -0.381139,0.93684 z M 28.782795,126.75394 c 0.04676,0.16021 0.09842,0.3182 0.146661,0.47766 2.107408,0.35991 4.920922,1.08219 9.075487,2.97923 5.082517,2.32079 10.200358,6.15109 15.530792,10.29379 5.255118,4.08418 23.099642,18.07859 23.711147,18.57008 0.06831,-0.23673 0.144118,-0.48163 0.229291,-0.7384 0,0 -14.280306,-11.67381 -24.457715,-19.49449 -10.177415,-7.82062 -16.865753,-10.73587 -24.235663,-12.08787 z m 48.363501,36.21456 c -0.120982,1.31596 0.408762,2.37703 1.595655,3.74362 -0.3612,0.5487 -0.7807,1.18739 -0.7807,1.18739 0,0 0.672413,-0.14568 1.260276,-0.65362 0.144412,0.15486 0.286322,0.308 0.446041,0.47222 0.02271,0.0232 0.04394,0.0437 0.0665,0.0668 -0.541433,0.7524 -1.070279,1.3563 -1.070279,1.3563 0,0 0.907618,-0.0628 1.620607,-0.80527 0.159604,0.15617 0.313239,0.3017 0.466682,0.44626 -0.390015,0.76633 -1.175694,1.51936 -1.175694,1.51936 0,0 1.12271,-0.15395 1.7544,-0.9859 0.229344,0.2062 0.449962,0.40073 0.656291,0.57631 -0.395745,0.8842 -1.038315,1.58003 -1.038315,1.58003 0,0 1.050548,-0.16003 1.650952,-1.07721 0.195072,0.15747 0.370683,0.30034 0.524505,0.41843 -0.301778,0.78351 -0.705889,1.64826 -0.705889,1.64826 0,0 0.521315,-0.28109 0.988691,-0.78461 -0.08204,0.5275 0.105602,1.03602 0.516447,1.51101 l 0.76336,-0.61208 c -0.464377,-0.53686 -0.500165,-1.13879 0.05783,-1.75703 l 3.386538,-3.75219 c 1.018917,-1.12893 2.211787,-0.9438 2.438994,0.57867 0.518317,-0.13157 1.153889,-0.84572 0.335161,-1.50743 -1.001767,-0.90415 -1.98704,-1.05167 -3.469805,0.59119 l -3.424622,3.79439 c -1.399587,-1.14627 -2.55911,-2.15227 -3.29037,-2.89173 -1.959289,-1.98121 -3.089556,-3.33001 -3.573521,-4.66276 z m 9.467805,10.60288 0.261302,0.20795 c -0.439479,1.19483 -1.15492,2.20361 -1.15492,2.20361 0,0 1.171973,-0.5308 1.786917,-1.70143 l 0.531775,0.42351 c -0.263065,0.9434 -1.378273,2.32921 -1.378273,2.32921 0,0 1.426376,-0.4852 2.010263,-1.82702 l 0.56183,0.44727 c -0.394333,1.25043 -1.717592,2.82627 -1.717592,2.82627 0,0 1.709538,-0.9714 2.357235,-2.31789 l 0.812827,0.6466 c -0.400758,0.98385 -1.561808,2.58192 -1.561808,2.58192 0,0 1.455029,-0.69133 2.18544,-2.08589 l 0.635037,0.50499 c -0.424659,1.14038 -1.480178,2.78996 -1.480178,2.78996 0,0 1.415281,-0.62619 2.130126,-2.27296 l 1.071828,0.85248 c -0.588137,1.41173 -1.818591,2.80473 -1.818591,2.80473 0,0 1.702559,-0.60643 2.474647,-2.28293 l 1.027154,0.81714 c -0.524727,1.59195 -1.865659,2.94327 -1.865659,2.94327 0,0 1.747211,-0.7707 2.503025,-2.43623 l 1.11452,0.88616 c -0.810705,1.66197 -2.432075,3.22839 -2.432075,3.22839 0,0 1.961261,-0.79358 3.0519,-2.73509 l 0.753349,0.59911 c -0.663426,1.38305 -1.973356,3.24771 -1.973356,3.24771 0,0 1.759308,-0.96679 2.633213,-2.72316 l 0.608426,0.48435 c -1.108068,2.20736 -2.681721,4.16212 -2.681721,4.16212 0,0 1.145854,-0.61248 2.460404,-2.48234 0.920284,-1.40443 1.388324,-2.42596 1.388324,-2.42596 0,0 -7.445417,-5.34097 -13.478773,-10.02679 z" />
    <path
       id="path2215"
       style="font-variation-settings:normal;vector-effect:none;fill:#666666;fill-opacity:1;stroke:none;stroke-width:0.264583;stroke-linecap:butt;stroke-linejoin:miter;stroke-miterlimit:10;stroke-dasharray:none;stroke-dashoffset:0;stroke-opacity:1;stop-color:#000000"
       d="m 79.540175,177.60395 c 1.573081,1.10931 1.58912,1.99153 1.478152,2.7412 1.272027,-1.40937 0.303028,-2.68077 -0.57872,-3.29809 -1.201165,-0.74092 -1.665346,0.0979 -0.899432,0.55689 z m 5.145955,-5.02842 c 1.087322,0.87171 1.963367,0.40425 2.744526,0.66494 -1.272027,1.40937 -2.803666,0.76136 -3.507849,-0.0527 -0.360217,-0.52233 0.303672,-1.04787 0.763323,-0.61224 z" />
    <path
       style="font-variation-settings:normal;vector-effect:none;fill:#ffffff;fill-opacity:1;stroke:none;stroke-width:0.264583;stroke-linecap:butt;stroke-linejoin:miter;stroke-miterlimit:10;stroke-dasharray:none;stroke-dashoffset:0;stroke-opacity:1;stop-color:#000000"
       d="m 75.852387,158.86457 c 0,0 -3.294208,1.32282 -8.021618,-0.84361 -4.727404,-2.16645 -10.592862,-7.93762 -15.460028,-11.85317 -4.867186,-3.91553 -21.47623,-17.69886 -21.47623,-17.69886 0,0 1.252761,0.44013 2.8579,1.65865 1.605141,1.21852 9.38577,7.23005 13.884675,10.81319 4.498906,3.58316 4.809449,3.76796 8.809211,6.42329 3.999769,2.6553 6.700996,3.47033 6.700996,3.47033 0,0 -2.05452,0.0551 -6.612497,-2.72219 0,0 2.930843,2.3588 6.44173,4.28648 3.510893,1.92768 6.444405,2.37957 6.444405,2.37957 0,0 -1.813296,0.84556 -6.08772,-1.29391 0,0 2.136538,1.54647 4.705562,2.71953 2.569017,1.17306 5.066264,0.94478 5.066264,0.94478 0,0 -1.081876,1.41024 -5.741295,-0.40842 0,0 1.815755,1.16146 4.00111,1.70185 1.87909,0.46466 4.487535,0.42249 4.487535,0.42249 z"
       id="path2240" />
    <path
       style="font-variation-settings:normal;vector-effect:none;fill:#666666;fill-opacity:1;stroke:none;stroke-width:0.264583;stroke-linecap:butt;stroke-linejoin:miter;stroke-miterlimit:10;stroke-dasharray:none;stroke-dashoffset:0;stroke-opacity:1;stop-color:#000000"
       d="m 55.941471,156.75278 c 2.276307,3.29556 2.639044,5.54868 2.639044,5.54868 0,0 0.655864,-1.8902 -1.909137,-5.92366 2.391829,2.99048 4.339532,5.52222 4.941166,9.6149 0,0 0.742496,-2.25658 -0.851333,-5.67677 2.570909,3.70398 3.34407,4.98405 4.550243,9.77893 0,0 0.465747,-3.74063 -2.172358,-8.22195 -2.638125,-4.48131 -8.241614,-9.19645 -12.633971,-13.63807 -4.392336,-4.44165 -19.942985,-19.39765 -19.942985,-19.39765 0,0 -0.265695,0.64168 1.110449,2.11392 1.376145,1.47224 14.545316,14.89401 17.562074,17.95093 3.016765,3.05692 4.430495,4.55519 6.706808,7.85074 z"
       id="path2242" />
    <path
       id="path2316"
       style="font-variation-settings:normal;vector-effect:none;fill:#002f66;fill-opacity:1;stroke:none;stroke-width:0.264583;stroke-linecap:butt;stroke-linejoin:miter;stroke-miterlimit:10;stroke-dasharray:none;stroke-dashoffset:0;stroke-opacity:1;stop-color:#000000"
       d="m 136.82651,99.812504 3.59532,-3.983514 c 1.48277,-1.642863 1.23496,-2.608255 0.2332,-3.5124 -1.00177,-0.904145 -1.98704,-1.051666 -3.46981,0.591197 l -3.77917,4.187215 c -1.39959,-1.146271 -2.5591,-2.15228 -3.29037,-2.891727 -3.94073,-3.98482 -3.56994,-6.027897 -2.28175,-9.911936 l -0.64566,-0.523196 -48.693332,-31.58242 -0.539478,0.93875 c 2.097937,7.193201 5.904486,13.750149 14.72406,23.075239 8.8196,9.325087 21.52663,22.1437 21.52663,22.1437 3.7321,-1.678286 5.57589,-1.041796 9.9425,2.471168 0.81031,0.65187 1.77167,1.5601 3.05495,2.83524 l -3.07007,3.40156 c -1.48277,1.64286 -1.0775,2.75033 -0.0757,3.65448 1.00176,0.90414 2.19785,1.24197 3.68061,-0.40089 l 2.88622,-3.19786 c 5.27775,5.52302 11.45158,12.37863 11.45158,12.37863 3.73175,-2.53072 6.56479,-5.30449 8.77188,-9.82481 l -0.22652,-0.96192 z" />
    <path
       id="path2318"
       style="font-variation-settings:normal;vector-effect:none;fill:#cccccc;fill-opacity:1;stroke:none;stroke-width:0.264583;stroke-linecap:butt;stroke-linejoin:miter;stroke-miterlimit:10;stroke-dasharray:none;stroke-dashoffset:0;stroke-opacity:1;stop-color:#000000"
       d="m 78.494938,52.185723 c 2.097938,7.193201 5.681277,13.548691 14.50085,22.873779 8.819602,9.325087 21.891392,22.337901 21.891392,22.337901 3.7321,-1.678287 5.21113,-1.235997 9.57773,2.276969 0.81032,0.651868 1.92951,1.702548 3.21279,2.977688 l -3.42462,3.79439 c -1.48277,1.64286 -1.23533,2.60788 -0.23356,3.51203 1.00176,0.90414 1.9874,1.05203 3.47017,-0.59083 l 3.24077,-3.59068 c 5.27774,5.52301 11.35149,12.38375 11.35149,12.38375 0,0 2.5307,-1.48505 4.9258,-4.13876 2.39509,-2.65369 3.6138,-5.32288 3.6138,-5.32288 0,0 -7.44541,-5.34097 -13.47877,-10.026786 l 3.24077,-3.590684 c 1.48277,-1.642863 1.23496,-2.608255 0.23319,-3.5124 -1.00176,-0.904144 -1.98704,-1.051665 -3.4698,0.591197 l -3.42462,3.794385 c -1.39959,-1.146271 -2.5591,-2.15228 -3.29037,-2.891728 -3.94074,-3.984819 -4.53183,-5.410919 -3.24365,-9.294958 0,0 -14.2803,-11.673819 -24.45772,-19.494484 C 92.553167,56.452984 85.864815,53.537762 78.494925,52.185737 Z" />
    <path
       id="path2320"
       style="font-variation-settings:normal;vector-effect:none;fill:#ffffff;fill-opacity:1;stroke:none;stroke-width:0.264583;stroke-linecap:butt;stroke-linejoin:miter;stroke-miterlimit:10;stroke-dasharray:none;stroke-dashoffset:0;stroke-opacity:1;stop-color:#000000"
       d="m 128.04634,103.35162 -3.38653,3.75218 c -0.70129,0.777 -0.77492,1.57253 -0.25132,2.01598 0.23785,0.19082 0.45625,0.44761 0.42242,0.65558 -0.0481,0.29547 -0.46103,0.48499 -0.81139,0.18312 -1.00177,-0.90415 -1.24919,-1.86919 0.23358,-3.51205 l 3.42462,-3.79439 c 0.2832,-0.31378 0.62258,-0.38585 0.74976,-0.23726 0.11565,0.1351 0.0558,0.45267 -0.38114,0.93684 z M 78.494925,52.185737 c 0.04676,0.160211 0.09842,0.318206 0.146661,0.477663 2.107408,0.359916 4.920922,1.08219 9.075487,2.979227 5.082517,2.320794 10.200358,6.151096 15.530787,10.293797 5.25512,4.084181 23.09965,18.078584 23.71115,18.570081 0.0683,-0.236732 0.14412,-0.48163 0.22929,-0.738399 0,0 -14.2803,-11.673819 -24.45771,-19.494492 C 92.553173,56.45299 85.864835,53.53774 78.494925,52.185737 Z m 48.363505,36.214562 c -0.12099,1.315967 0.40876,2.377032 1.59565,3.74362 -0.3612,0.548705 -0.7807,1.187392 -0.7807,1.187392 0,0 0.67241,-0.145681 1.26028,-0.653615 0.14441,0.154856 0.28632,0.307992 0.44604,0.472218 0.0227,0.02319 0.0439,0.0437 0.0665,0.06676 -0.54143,0.752398 -1.07028,1.3563 -1.07028,1.3563 0,0 0.90762,-0.06281 1.62061,-0.805274 0.1596,0.156174 0.31324,0.301707 0.46668,0.446259 -0.39001,0.766329 -1.17569,1.519364 -1.17569,1.519364 0,0 1.12271,-0.153947 1.7544,-0.9859 0.22934,0.2062 0.44996,0.400725 0.65629,0.576306 -0.39574,0.884199 -1.03831,1.58003 -1.03831,1.58003 0,0 1.05054,-0.160022 1.65095,-1.077205 0.19507,0.157472 0.37068,0.300343 0.5245,0.418431 -0.30178,0.783504 -0.70589,1.648257 -0.70589,1.648257 0,0 0.52132,-0.281085 0.98869,-0.784611 -0.082,0.527503 0.10561,1.036024 0.51645,1.511014 l 0.76336,-0.612083 c -0.46438,-0.536857 -0.50016,-1.138792 0.0578,-1.757031 l 3.38654,-3.752189 c 1.01891,-1.128933 2.21178,-0.943799 2.43899,0.578674 0.51832,-0.131572 1.15389,-0.845722 0.33516,-1.507437 -1.00177,-0.904145 -1.98704,-1.051666 -3.46981,0.591197 l -3.42462,3.794385 c -1.39958,-1.146272 -2.55911,-2.152265 -3.29037,-2.891728 -1.95929,-1.981206 -3.08955,-3.330013 -3.57352,-4.662765 z m 9.4678,10.602881 0.2613,0.207954 c -0.43948,1.194826 -1.15492,2.203606 -1.15492,2.203606 0,0 1.17198,-0.53079 1.78692,-1.701426 l 0.53177,0.423506 c -0.26306,0.9434 -1.37827,2.32921 -1.37827,2.32921 0,0 1.42638,-0.4852 2.01027,-1.82702 l 0.56182,0.44727 c -0.39433,1.25044 -1.71759,2.82627 -1.71759,2.82627 0,0 1.70954,-0.9714 2.35724,-2.31789 l 0.81282,0.6466 c -0.40075,0.98385 -1.5618,2.58192 -1.5618,2.58192 0,0 1.45503,-0.69133 2.18544,-2.08589 l 0.63503,0.50499 c -0.42466,1.14038 -1.48017,2.78996 -1.48017,2.78996 0,0 1.41528,-0.62619 2.13012,-2.27295 l 1.07183,0.85247 c -0.58814,1.41173 -1.81859,2.80473 -1.81859,2.80473 0,0 1.70256,-0.60642 2.47465,-2.28292 l 1.02715,0.81713 c -0.52473,1.59195 -1.86566,2.94327 -1.86566,2.94327 0,0 1.74721,-0.7707 2.50303,-2.43623 l 1.11452,0.88616 c -0.81071,1.66197 -2.43208,3.22839 -2.43208,3.22839 0,0 1.96126,-0.79358 3.0519,-2.73508 l 0.75335,0.59911 c -0.66343,1.38304 -1.97336,3.2477 -1.97336,3.2477 0,0 1.75931,-0.96678 2.63322,-2.72315 l 0.60842,0.48434 c -1.10807,2.20736 -2.68172,4.16212 -2.68172,4.16212 0,0 1.14586,-0.61248 2.46041,-2.48233 0.92028,-1.40444 1.38832,-2.42597 1.38832,-2.42597 0,0 -7.44542,-5.34097 -13.47877,-10.026788 z" />
    <path
       id="path2322"
       style="font-variation-settings:normal;vector-effect:none;fill:#666666;fill-opacity:1;stroke:none;stroke-width:0.264583;stroke-linecap:butt;stroke-linejoin:miter;stroke-miterlimit:10;stroke-dasharray:none;stroke-dashoffset:0;stroke-opacity:1;stop-color:#000000"
       d="m 129.25231,103.03575 c 1.57308,1.10932 1.58911,1.99153 1.47815,2.7412 1.27202,-1.40937 0.30303,-2.68077 -0.57872,-3.29809 -1.20117,-0.74092 -1.66535,0.0979 -0.89943,0.55689 z m 5.14595,-5.028417 c 1.08732,0.87171 1.96337,0.404249 2.74453,0.664939 -1.27203,1.409368 -2.80367,0.761359 -3.50785,-0.0527 -0.36022,-0.522324 0.30367,-1.047867 0.76332,-0.612237 z" />
    <path
       style="font-variation-settings:normal;vector-effect:none;fill:#ffffff;fill-opacity:1;stroke:none;stroke-width:0.264583;stroke-linecap:butt;stroke-linejoin:miter;stroke-miterlimit:10;stroke-dasharray:none;stroke-dashoffset:0;stroke-opacity:1;stop-color:#000000"
       d="m 125.56452,84.296369 c 0,0 -3.29421,1.32282 -8.02162,-0.843606 -4.7274,-2.166448 -10.59286,-7.937623 -15.46003,-11.853175 -4.867185,-3.91553 -21.476229,-17.698855 -21.476229,-17.698855 0,0 1.252761,0.44013 2.8579,1.658648 1.605141,1.218518 9.38577,7.230055 13.884675,10.813193 4.498904,3.583153 4.809444,3.767953 8.809214,6.423283 3.99977,2.655308 6.70099,3.470338 6.70099,3.470338 0,0 -2.05452,0.05507 -6.61249,-2.722196 0,0 2.93084,2.358804 6.44173,4.286486 3.51089,1.927674 6.4444,2.379564 6.4444,2.379564 0,0 -1.81329,0.845561 -6.08772,-1.293903 0,0 2.13654,1.546464 4.70556,2.719521 2.56902,1.173064 5.06627,0.944789 5.06627,0.944789 0,0 -1.08188,1.410237 -5.7413,-0.408423 0,0 1.81576,1.161462 4.00111,1.701851 1.87909,0.464656 4.48754,0.422485 4.48754,0.422485 z"
       id="path2324" />
    <path
       style="font-variation-settings:normal;vector-effect:none;fill:#666666;fill-opacity:1;stroke:none;stroke-width:0.264583;stroke-linecap:butt;stroke-linejoin:miter;stroke-miterlimit:10;stroke-dasharray:none;stroke-dashoffset:0;stroke-opacity:1;stop-color:#000000"
       d="m 105.6536,82.184583 c 2.27631,3.295562 2.63904,5.54868 2.63904,5.54868 0,0 0.65587,-1.8902 -1.90913,-5.923657 2.39183,2.990479 4.33953,5.522215 4.94116,9.614896 0,0 0.7425,-2.256584 -0.85133,-5.676769 2.57091,3.703976 3.34407,4.984049 4.55024,9.778926 0,0 0.46575,-3.740629 -2.17235,-8.221947 -2.63813,-4.481309 -8.24162,-9.196446 -12.63397,-13.638074 -4.392341,-4.44165 -19.94299,-19.397647 -19.94299,-19.397647 0,0 -0.265695,0.64168 1.110449,2.113919 1.376145,1.47224 14.545316,14.894014 17.562074,17.950929 3.016767,3.056921 4.430497,4.555189 6.706807,7.850744 z"
       id="path2326" />
  </g>
</svg>
