<?xml version="1.0" encoding="UTF-8" standalone="no"?>
<svg
   xmlns:dc="http://purl.org/dc/elements/1.1/"
   xmlns:cc="http://creativecommons.org/ns#"
   xmlns:rdf="http://www.w3.org/1999/02/22-rdf-syntax-ns#"
   xmlns:svg="http://www.w3.org/2000/svg"
   xmlns="http://www.w3.org/2000/svg"
   width="500"
   height="565"
   viewBox="0 0 132.29166 149.48959"
   version="1.1"
   id="svg847">
  <defs
     id="defs841" />
  <metadata
     id="metadata844">
    <rdf:RDF>
      <cc:Work
         rdf:about="">
        <dc:format>image/svg+xml</dc:format>
        <dc:type
           rdf:resource="http://purl.org/dc/dcmitype/StillImage" />
        <dc:title></dc:title>
      </cc:Work>
    </rdf:RDF>
  </metadata>
  <g
     id="layer1"
     transform="translate(-40.72696,-41.54903)">
    <path
       style="font-variation-settings:normal;vector-effect:none;fill:#d9d9d9;fill-opacity:1;stroke:none;stroke-width:0.132292;stroke-linecap:butt;stroke-linejoin:miter;stroke-miterlimit:4;stroke-dasharray:none;stroke-dashoffset:0;stroke-opacity:1;stop-color:#000000"
       d="m 40.72696,41.54903 c 0,0 2.24723,66.2839 3.080019,90.84796 0.8328,24.56406 21.942831,58.64162 63.065811,58.64162 41.12299,0 62.23302,-34.07756 63.06582,-58.64162 l 3.08002,-90.84796 z"
       id="path846" />
    <path
       id="use1520"
       style="fill:#005ac7;fill-opacity:1;stroke-width:0.264582;stroke-linecap:square;stroke-opacity:0.510101"
       d="m 61.592624,51.128598 c -2.861951,0.01054 -5.728859,1.04491 -8.005944,3.129898 -4.8578,4.447956 -5.190127,11.99171 -0.742151,16.849492 2.059083,2.248706 4.900936,3.623303 7.942142,3.841424 -2.700372,0.181348 -5.258547,1.276122 -7.254608,3.103866 -4.85765,4.44782 -5.189784,11.991156 -0.74215,16.848982 4.447953,4.857797 11.991709,5.19012 16.849491,0.74215 0.90825,-0.831621 1.657707,-1.771514 2.247892,-2.781791 l 22.413073,24.478231 v 27.33405 c -1.121547,-0.34785 -2.314074,-0.53484 -3.550483,-0.53339 -6.595096,0.008 -11.911715,5.35039 -11.911683,11.92597 2.61e-4,6.58634 5.339633,11.92548 11.925973,11.92547 2.706692,3e-5 5.332887,-0.92067 7.447037,-2.6108 -2.096184,2.21459 -3.264439,5.14802 -3.26465,8.19735 -1.4e-5,6.58653 5.339427,11.92598 11.925977,11.92597 6.58654,1e-5 11.92599,-5.33944 11.92597,-11.92597 -5e-5,-3.04902 -1.16794,-5.98221 -3.26363,-8.19685 2.11409,1.68985 4.74007,2.61035 7.44653,2.6103 6.58634,1e-5 11.92571,-5.33913 11.92598,-11.92547 0,-6.58654 -5.33944,-11.92599 -11.92598,-11.92597 -1.23146,-1e-5 -2.41917,0.18684 -3.5367,0.53339 v -27.33353 l 22.41307,-24.478751 c 0.59018,1.010275 1.34016,1.95017 2.2484,2.781791 4.85778,4.44798 12.40154,4.115647 16.84949,-0.74215 4.44764,-4.857826 4.11549,-12.401162 -0.74215,-16.848982 -1.99607,-1.827744 -4.55474,-2.922518 -7.25511,-3.103866 3.0412,-0.218121 5.88356,-1.592718 7.94265,-3.841424 4.44798,-4.857782 4.11564,-12.401536 -0.74215,-16.849492 -4.85779,-4.447973 -12.40154,-4.115646 -16.8495,0.742151 -2.05909,2.249127 -3.17833,5.201521 -3.12785,8.250438 -0.41789,-2.67424 -1.73335,-5.126643 -3.72965,-6.954479 -4.85763,-4.447838 -12.40096,-4.115825 -16.84897,0.74164 -4.4406,4.849691 -4.12745,12.380348 0.73143,16.839794 0.91091,0.836029 1.91673,1.503574 2.97881,2.004421 L 106.87254,93.838032 90.432403,75.882461 c 1.062082,-0.500849 2.067901,-1.168392 2.978815,-2.004421 4.858876,-4.459446 5.172024,-11.990103 0.731432,-16.839794 -4.44802,-4.857465 -11.991858,-5.189478 -16.849491,-0.74164 -1.996295,1.827834 -3.311245,4.280239 -3.729131,6.954479 0.05046,-3.048917 -1.068764,-6.001311 -3.127857,-8.250438 -2.362975,-2.580704 -5.599999,-3.883994 -8.843547,-3.872049 z" />
  </g>
</svg>
