<?xml version="1.0" encoding="UTF-8" standalone="no"?>
<svg
   xmlns:dc="http://purl.org/dc/elements/1.1/"
   xmlns:cc="http://creativecommons.org/ns#"
   xmlns:rdf="http://www.w3.org/1999/02/22-rdf-syntax-ns#"
   xmlns:svg="http://www.w3.org/2000/svg"
   xmlns="http://www.w3.org/2000/svg"
   xmlns:sodipodi="http://sodipodi.sourceforge.net/DTD/sodipodi-0.dtd"
   xmlns:inkscape="http://www.inkscape.org/namespaces/inkscape"
   inkscape:version="1.0 (4035a4fb49, 2020-05-01)"
   sodipodi:docname="svg.svg"
   id="svg8"
   version="1.1"
   viewBox="0 0 132.29166 149.48959"
   height="565"
   width="500">
  <defs
     id="defs2" />
  <sodipodi:namedview
     inkscape:object-nodes="true"
     inkscape:showpageshadow="false"
     inkscape:window-maximized="1"
     inkscape:window-y="-8"
     inkscape:window-x="-8"
     inkscape:window-height="1017"
     inkscape:window-width="1920"
     units="px"
     showgrid="false"
     inkscape:document-rotation="0"
     inkscape:current-layer="layer1"
     inkscape:document-units="px"
     inkscape:cy="367.17477"
     inkscape:cx="388.69835"
     inkscape:zoom="1.291875"
     inkscape:pageshadow="2"
     inkscape:pageopacity="0.0"
     borderopacity="1.0"
     bordercolor="#666666"
     pagecolor="#ffffff"
     id="base"
     inkscape:snap-others="false"
     inkscape:lockguides="true" />
  <metadata
     id="metadata5">
    <rdf:RDF>
      <cc:Work
         rdf:about="">
        <dc:format>image/svg+xml</dc:format>
        <dc:type
           rdf:resource="http://purl.org/dc/dcmitype/StillImage" />
        <dc:title></dc:title>
      </cc:Work>
    </rdf:RDF>
  </metadata>
  <g
     transform="translate(-6.7649856,-5.5390328)"
     id="layer1"
     inkscape:groupmode="layer"
     inkscape:label="Шар 1">
    <g
       transform="matrix(0.26458333,0,0,0.26458333,6.7238974,5.0660433)"
       id="g872">
      <g
         style="stroke:none"
         id="g5852">
        <path
           style="fill:#da251d;fill-rule:evenodd;stroke:none;stroke-width:1;stroke-opacity:1"
           d="m 0.51840073,1.787677 c 166.51872927,0 333.03745927,0 499.55618927,0 -0.32291,109.809293 0.65498,219.645973 -0.50576,329.437693 C 494.00449,439.67205 410.15257,538.2837 303.74841,560.75822 209.8848,582.77491 105.94953,543.08237 49.937621,464.76719 13.535803,416.66239 -2.5255289,355.52806 0.51840073,295.70349 c 0,-97.97194 0,-195.943875 0,-293.915813 z"
           id="path1397" />
        <path
           d="M 79.200062,1.8085987 187.47663,313.66267 c 0,0 0,161.54426 0,244.71145 37.79638,10.0649 77.87668,11.3894 116.27207,2.38336 7.22623,-1.52631 14.34405,-3.41454 21.3448,-5.6224 V 311.6622 L 500.06768,117.2711 c -0.0563,-37.154952 -0.0967,-74.309872 0.002,-111.4615671 H 427.36127 L 256.31146,194.57041 85.206953,1.8085987 Z"
           style="fill:#911913;fill-opacity:1;fill-rule:evenodd;stroke:none;stroke-width:0.5;stroke-linejoin:miter;stroke-miterlimit:4;stroke-dasharray:none;stroke-opacity:1"
           id="path859" />
        <path
           sodipodi:nodetypes="cccccccccccc"
           style="fill:#bf9f4e;fill-opacity:1;fill-rule:evenodd;stroke:none;stroke-width:0.5;stroke-linejoin:miter;stroke-miterlimit:4;stroke-dasharray:none;stroke-opacity:1"
           d="M 0.49959002,1.8085029 V 106.61006 L 181.46881,309.66183 v 247.22701 c 44.64296,12.99151 92.98995,13.01072 137.61754,-0.0599 0,-82.38905 1e-5,-247.16714 1e-5,-247.16714 L 500.05559,106.61002 V 1.808463 L 421.35421,1.8085029 250.25097,194.57101 79.200963,1.8085029 Z"
           id="path1415" />
        <path
           sodipodi:nodetypes="ccccccccccccccc"
           id="path851"
           d="m 236.71291,76.400839 -48.33639,28.860691 2.0023,4.00094 h 46.33409 l -2.0023,42.29078 2.0023,4.00093 h 32.89168 v -46.29171 h 46.33408 V 76.400839 l -4.00459,-2.000468 -42.32949,2.000468 V 30.109102 l -4.00513,-2.001394 z"
           style="fill:#911913;fill-opacity:1;fill-rule:evenodd;stroke:none;stroke-width:0.5;stroke-linecap:round;stroke-linejoin:miter;stroke-miterlimit:4;stroke-dasharray:none;stroke-opacity:1" />
        <path
           style="fill:#bf9f4e;fill-opacity:1;fill-rule:evenodd;stroke:none;stroke-width:0.5;stroke-linecap:round;stroke-linejoin:miter;stroke-miterlimit:4;stroke-dasharray:none;stroke-opacity:1"
           d="m 234.71061,28.108635 c 0,15.43058 0,30.861158 0,46.291736 -15.4447,0 -30.8894,0 -46.33409,0 0,10.287055 0,20.57411 0,30.861159 15.44469,0 30.88939,0 46.33409,0 0,15.43057 0,30.86115 0,46.29172 10.29646,0 20.59293,0 30.88939,0 0,-15.43057 0,-30.86115 0,-46.29172 15.4447,0 30.88939,0 46.33408,0 0,-10.287049 0,-20.574104 0,-30.861159 -15.44469,0 -30.88938,0 -46.33408,0 0,-15.430578 0,-30.861156 0,-46.291736 -10.29646,0 -20.59293,0 -30.88939,0 z"
           id="rect2321" />
        <path
           sodipodi:nodetypes="ccccccccccccccccccccc"
           d="m 234.71051,28.107708 v 46.29206 H 188.3761 v 30.862672 h 4.0046 V 78.400702 h 46.33441 V 32.108643 h 26.88435 V 28.107708 Z M 265.6,74.400371 v 4.000935 l 46.33387,-6.04e-4 v -4.000934 z m -30.88939,30.861159 -1e-4,46.29102 h 4.0046 l 1e-4,-46.29102 z"
           style="fill:#ffffff;fill-opacity:1;fill-rule:evenodd;stroke:none;stroke-width:0.5;stroke-linecap:round;stroke-linejoin:miter;stroke-miterlimit:4;stroke-dasharray:none;stroke-opacity:1"
           id="path846" />
        <path
           sodipodi:nodetypes="cccccccccccccc"
           d="M 0.50039593,106.61042 181.46974,309.66173 v 247.1671 c 1.33163,0.39001 2.66654,0.76833 4.00459,1.13502 V 307.66126 L 4.5049903,104.60995 0.50039593,99.996357 Z M 421.35432,1.8085987 250.30421,194.57101 253.19425,197.82763 425.35892,3.8090658 427.2566,1.8085987 Z"
           style="fill:#ffffff;fill-opacity:1;fill-rule:evenodd;stroke:none;stroke-width:0.5;stroke-linejoin:miter;stroke-miterlimit:4;stroke-dasharray:none;stroke-opacity:1"
           id="path853" />
      </g>
    </g>
  </g>
</svg>
