<?xml version="1.0" encoding="UTF-8" standalone="no"?>
<svg
   xmlns:dc="http://purl.org/dc/elements/1.1/"
   xmlns:cc="http://creativecommons.org/ns#"
   xmlns:rdf="http://www.w3.org/1999/02/22-rdf-syntax-ns#"
   xmlns:svg="http://www.w3.org/2000/svg"
   xmlns="http://www.w3.org/2000/svg"
   width="500"
   height="599.07953"
   viewBox="0 0 132.29166 158.50646"
   version="1.1"
   id="svg847">
  <defs
     id="defs841" />
  <metadata
     id="metadata844">
    <rdf:RDF>
      <cc:Work
         rdf:about="">
        <dc:format>image/svg+xml</dc:format>
        <dc:type
           rdf:resource="http://purl.org/dc/dcmitype/StillImage" />
        <dc:title></dc:title>
      </cc:Work>
    </rdf:RDF>
  </metadata>
  <g
     id="layer1"
     transform="translate(-23.704126,-85.64047)">
    <path
       style="color:#000000;font-style:normal;font-variant:normal;font-weight:normal;font-stretch:normal;font-size:medium;line-height:normal;font-family:sans-serif;font-variant-ligatures:normal;font-variant-position:normal;font-variant-caps:normal;font-variant-numeric:normal;font-variant-alternates:normal;font-variant-east-asian:normal;font-feature-settings:normal;font-variation-settings:normal;text-indent:0;text-align:start;text-decoration:none;text-decoration-line:none;text-decoration-style:solid;text-decoration-color:#000000;letter-spacing:normal;word-spacing:normal;text-transform:none;writing-mode:lr-tb;direction:ltr;text-orientation:mixed;dominant-baseline:auto;baseline-shift:baseline;text-anchor:start;white-space:normal;shape-padding:0;shape-margin:0;inline-size:0;clip-rule:nonzero;display:inline;overflow:visible;visibility:visible;opacity:1;isolation:auto;mix-blend-mode:normal;color-interpolation:sRGB;color-interpolation-filters:linearRGB;solid-color:#000000;solid-opacity:1;vector-effect:none;fill:#000000;fill-opacity:1;fill-rule:nonzero;stroke:none;stroke-width:1;stroke-linecap:butt;stroke-linejoin:miter;stroke-miterlimit:4;stroke-dasharray:none;stroke-dashoffset:0;stroke-opacity:1;color-rendering:auto;image-rendering:auto;shape-rendering:auto;text-rendering:auto;enable-background:accumulate;stop-color:#000000;stop-opacity:1"
       d="m 155.99579,85.64047 v 134.67136 c 0,7.29831 -5.91661,12.86072 -13.19506,12.86072 h -40.53964 c -3.610752,0 -6.046416,0.86939 -7.80883,2.73161 -1.762397,1.86223 -2.884305,3.98717 -3.572909,8.24291 H 88.82108 c -0.689119,-4.25574 -1.811027,-6.38068 -3.573424,-8.24291 -1.762414,-1.86222 -4.198078,-2.73161 -7.80883,-2.73161 h -40.53964 c -7.27845,0 -13.19506,-5.56241 -13.19506,-12.86072 V 85.64047 Z"
       id="path1066" />
    <path
       id="path2080"
       style="color:#000000;font-style:normal;font-variant:normal;font-weight:normal;font-stretch:normal;font-size:medium;line-height:normal;font-family:sans-serif;font-variant-ligatures:normal;font-variant-position:normal;font-variant-caps:normal;font-variant-numeric:normal;font-variant-alternates:normal;font-variant-east-asian:normal;font-feature-settings:normal;font-variation-settings:normal;text-indent:0;text-align:start;text-decoration:none;text-decoration-line:none;text-decoration-style:solid;text-decoration-color:#000000;letter-spacing:normal;word-spacing:normal;text-transform:none;writing-mode:lr-tb;direction:ltr;text-orientation:mixed;dominant-baseline:auto;baseline-shift:baseline;text-anchor:start;white-space:normal;shape-padding:0;shape-margin:0;inline-size:0;clip-rule:nonzero;display:inline;overflow:visible;visibility:visible;opacity:1;isolation:auto;mix-blend-mode:normal;color-interpolation:sRGB;color-interpolation-filters:linearRGB;solid-color:#000000;solid-opacity:1;vector-effect:none;fill:#0063d6;fill-opacity:1;fill-rule:nonzero;stroke:none;stroke-width:3.77953;stroke-linecap:butt;stroke-linejoin:miter;stroke-miterlimit:4;stroke-dasharray:none;stroke-dashoffset:0;stroke-opacity:1;color-rendering:auto;image-rendering:auto;shape-rendering:auto;text-rendering:auto;enable-background:accumulate;stop-color:#000000;stop-opacity:1"
       d="M 4.7089844 4.6972656 L 4.7089844 505.85547 C 4.7089844 530.91525 24.736347 549.75391 49.871094 549.75391 L 203.0918 549.75391 C 217.519 549.75391 228.35096 553.45574 236.01953 561.55859 C 240.48857 566.28073 243.63387 572.8093 246.07812 580.56641 L 246.07812 4.6972656 L 4.7089844 4.6972656 z "
       transform="matrix(0.26458333,0,0,0.26458333,23.704126,85.64047)" />
    <path
       id="path2106"
       style="color:#000000;font-style:normal;font-variant:normal;font-weight:normal;font-stretch:normal;font-size:medium;line-height:normal;font-family:sans-serif;font-variant-ligatures:normal;font-variant-position:normal;font-variant-caps:normal;font-variant-numeric:normal;font-variant-alternates:normal;font-variant-east-asian:normal;font-feature-settings:normal;font-variation-settings:normal;text-indent:0;text-align:start;text-decoration:none;text-decoration-line:none;text-decoration-style:solid;text-decoration-color:#000000;letter-spacing:normal;word-spacing:normal;text-transform:none;writing-mode:lr-tb;direction:ltr;text-orientation:mixed;dominant-baseline:auto;baseline-shift:baseline;text-anchor:start;white-space:normal;shape-padding:0;shape-margin:0;inline-size:0;clip-rule:nonzero;display:inline;overflow:visible;visibility:visible;opacity:1;isolation:auto;mix-blend-mode:normal;color-interpolation:sRGB;color-interpolation-filters:linearRGB;solid-color:#000000;solid-opacity:1;vector-effect:none;fill:#cacaca;fill-opacity:1;fill-rule:nonzero;stroke:none;stroke-width:3.77953;stroke-linecap:butt;stroke-linejoin:miter;stroke-miterlimit:4;stroke-dasharray:none;stroke-dashoffset:0;stroke-opacity:1;color-rendering:auto;image-rendering:auto;shape-rendering:auto;text-rendering:auto;enable-background:accumulate;stop-color:#000000;stop-opacity:1"
       d="M 250.78516 4.6972656 L 250.78516 580.56641 C 253.22941 572.8093 256.37471 566.28074 260.84375 561.55859 C 268.51232 553.45574 279.3443 549.75391 293.77148 549.75391 L 446.99219 549.75391 C 472.12692 549.75391 492.1543 530.91525 492.1543 505.85547 L 492.1543 4.6972656 L 250.78516 4.6972656 z "
       transform="matrix(0.26458333,0,0,0.26458333,23.704126,85.64047)" />
    <g
       id="g1282"
       style="stroke-width:0.396875;stroke-miterlimit:5;stroke-dasharray:none"
       transform="matrix(1.5678301,0,0,1.5678301,-75.550152,-27.295549)">
      <path
         id="path1498"
         style="fill:none;stroke:#e90c0c;stroke-width:0.793753;stroke-linejoin:miter;stroke-miterlimit:5;stroke-dasharray:none;stroke-opacity:1"
         d="M 125.99546,150.46124 V 81.861201 m 2.8197,0 -0.20118,20.793649 m -5.23704,0 -0.20118,-20.793649 m 8.4591,0 -1.4607,49.257849 c -0.11418,1.38757 -0.5049,2.51965 -1.61804,3.64873 -1.12655,1.14269 -2.56066,1.93513 -2.56066,1.93513 0,0 -1.43411,-0.79244 -2.56066,-1.93513 -1.11314,-1.12908 -1.50386,-2.26116 -1.61804,-3.64873 l -1.4607,-49.257849" />
      <path
         id="path1468"
         style="opacity:1;fill:#e90c0c;fill-opacity:1;stroke:#000000;stroke-width:0.396875;stroke-linejoin:round;stroke-miterlimit:5;stroke-dasharray:none"
         d="m 124.41473,100.39583 c -0.82035,-0.820345 -2.07118,-1.30274 -2.74743,-0.32582 -0.67624,0.97691 0.20728,3.03031 1.22452,4.04755 0.49765,0.49766 0.87831,0.87831 1.51825,1.51826 -1.1101,-1.10747 -2.12519,-0.90707 -2.61749,-0.19588 -0.49297,0.71215 -0.0293,2.54738 1.09924,3.92175 1.12858,1.37437 1.62314,1.82358 1.62314,1.82358 -1.0092,-0.80451 -1.89952,-0.70371 -2.41206,-0.0497 -0.5344,0.68188 -0.49291,2.18889 0.78892,3.47072 l 2.04277,2.04277 c -1.10856,-1.10318 -2.2367,-1.0237 -2.75406,-0.30918 -0.51736,0.71452 -0.26486,2.68472 1.24046,4.19004 l 1.62729,1.62781 c -1.06436,-1.01154 -2.20754,-1.16287 -2.6936,-0.39602 -0.59398,0.93709 -0.1337,2.56581 1.27198,3.97149 l 1.526,1.526 c -0.96452,-0.96452 -2.10894,-1.32329 -2.69574,-0.47558 -0.5868,0.84771 0.0682,2.39913 1.37438,3.70536 l 1.42265,1.42213 c -0.89023,-0.88843 -2.12474,-1.68308 -2.70524,-0.82833 -0.50108,0.73782 0.34261,2.47283 1.29841,3.39103 0.95579,0.91819 2.14834,1.61716 2.14834,1.61716 0,0 1.19255,-0.69897 2.14834,-1.61716 0.9558,-0.9182 1.79949,-2.65321 1.29841,-3.39103 -0.5805,-0.85475 -1.81501,-0.0601 -2.70524,0.82833 l 1.42265,-1.42213 c 1.30623,-1.30623 1.96118,-2.85765 1.37438,-3.70536 -0.5868,-0.84771 -1.73122,-0.48894 -2.69574,0.47558 l 1.526,-1.526 c 1.40568,-1.40568 1.86596,-3.0344 1.27198,-3.97149 -0.48606,-0.76685 -1.62924,-0.61552 -2.6936,0.39602 l 1.62729,-1.62781 c 1.50532,-1.50532 1.75782,-3.47552 1.24046,-4.19004 -0.51736,-0.71452 -1.6455,-0.794 -2.75406,0.30918 l 2.04277,-2.04277 c 1.28183,-1.28183 1.32332,-2.78884 0.78892,-3.47072 -0.51254,-0.65401 -1.40286,-0.75481 -2.41206,0.0497 0,0 0.49456,-0.44921 1.62314,-1.82358 1.12858,-1.37437 1.59221,-3.2096 1.09924,-3.92175 -0.4923,-0.71119 -1.50739,-0.91159 -2.61749,0.19588 0.63994,-0.63995 1.0206,-1.0206 1.51825,-1.51826 1.01724,-1.01724 1.90076,-3.07064 1.22452,-4.04755 -0.67625,-0.97692 -1.92708,-0.494525 -2.74743,0.32582 -0.82034,0.82035 -1.58073,1.98186 -1.58073,1.98186 0,0 -0.76039,-1.16151 -1.58073,-1.98186 z" />
      <path
         id="path1444"
         style="fill:none;stroke:#000000;stroke-width:0.396875;stroke-linejoin:round;stroke-miterlimit:5;stroke-dasharray:none"
         d="m 125.14378,127.25057 c 0.43733,0.43827 0.85168,1.06312 0.85168,1.06312 0,0 0.41435,-0.62485 0.85168,-1.06312 m -1.80775,-5.10147 c 0.4915,0.49255 0.95607,1.19426 0.95607,1.19426 0,0 0.46457,-0.70171 0.95607,-1.19426 m -2.02595,-5.50879 c 0.55056,0.55173 1.06988,1.33723 1.06988,1.33723 0,0 0.51932,-0.7855 1.06988,-1.33723 m -2.55927,-5.46371 c 0.82035,0.82034 1.48939,1.68545 1.48939,1.68545 0,0 0.66904,-0.86511 1.48939,-1.68545 m -2.23979,20.72588 c 0.38477,0.3856 0.7504,0.93588 0.7504,0.93588 0,0 0.36563,-0.55028 0.7504,-0.93588 m -2.34467,-26.27533 c 0.82035,0.82034 1.59427,1.98613 1.59427,1.98613 0,0 0.77392,-1.16579 1.59427,-1.98613" />
      <path
         style="font-variation-settings:normal;vector-effect:none;fill:none;fill-opacity:1;stroke:#000000;stroke-width:0.264583;stroke-linecap:butt;stroke-linejoin:miter;stroke-miterlimit:4;stroke-dasharray:none;stroke-dashoffset:0;stroke-opacity:1;stop-color:#000000"
         d="m 125.99551,102.37758 -2e-5,33.71327"
         id="path1323" />
    </g>
    <g
       id="g1873"
       transform="matrix(1.5678301,0,0,1.5678301,-74.443452,-27.295549)"
       style="stroke-width:0.396875;stroke-miterlimit:5;stroke-dasharray:none">
      <path
         style="font-variation-settings:normal;opacity:1;vector-effect:none;fill:#cacaca;fill-opacity:1;stroke:#000000;stroke-width:0.396875;stroke-linecap:butt;stroke-linejoin:miter;stroke-miterlimit:5;stroke-dasharray:none;stroke-dashoffset:0;stroke-opacity:1;stop-color:#000000;stop-opacity:1"
         d="m 80.853534,100.39645 c -1.841698,-0.67474 -3.237499,-2.873242 -2.493756,-5.237384 0.859412,-2.731823 3.632517,-4.108412 4.37965,-7.244515 0.492668,-2.067963 0.498978,-5.614961 0.519718,-5.988212 0.02074,-0.373252 0.177176,-0.566965 0.503255,-0.566965 0.326079,0 0.482515,0.193713 0.503255,0.566965 0.02074,0.373251 0.02705,3.920249 0.519718,5.988212 0.747133,3.136103 3.520238,4.512692 4.37965,7.244515 0.743743,2.364142 -0.652058,4.562644 -2.493756,5.237384 0,0 -1.145495,0.35199 -2.908867,0.35199 -1.763372,0 -2.908867,-0.35199 -2.908867,-0.35199 z"
         id="path1623" />
      <path
         id="rect1574"
         style="opacity:1;fill:#cacaca;fill-opacity:1;stroke:#000000;stroke-width:0.396875;stroke-linejoin:miter;stroke-miterlimit:5;stroke-dasharray:none;stroke-opacity:1"
         d="M 70.543437,137.74869 H 96.981364 V 125.56608 H 70.543437 Z" />
      <path
         id="rect1578"
         style="opacity:1;fill:#cacaca;fill-opacity:1;stroke:#000000;stroke-width:0.396875;stroke-linejoin:miter;stroke-miterlimit:5;stroke-dasharray:none;stroke-opacity:1"
         d="m 78.736918,111.87738 h 10.050965 v -6.60351 H 78.736918 Z" />
      <path
         id="path1583"
         style="opacity:1;fill:#cacaca;fill-opacity:1;stroke:#000000;stroke-width:0.396875;stroke-linejoin:miter;stroke-miterlimit:5;stroke-dasharray:none;stroke-opacity:1"
         d="m 80.853535,100.39645 -4.7625,4.38113 v 0.4961 h 15.342732 v -0.4961 l -4.762499,-4.38113 z" />
      <path
         id="path1649"
         style="opacity:1;fill:none;fill-opacity:1;stroke:#000000;stroke-width:0.264583;stroke-linejoin:miter;stroke-miterlimit:5;stroke-dasharray:none;stroke-opacity:1"
         d="m 80.766497,131.71072 c 0,0 1.119718,-1.45328 2.995904,-1.45328 1.876186,0 2.995904,1.45328 2.995904,1.45328 m 0,-2.98752 h -5.991808 m 0,-3.15712 v 10.62346 h 5.991808 v -10.62346" />
      <path
         id="path1640"
         style="opacity:1;fill:#cacaca;fill-opacity:1;stroke:#000000;stroke-width:0.396875;stroke-linejoin:miter;stroke-miterlimit:5;stroke-dasharray:none;stroke-opacity:1"
         d="m 79.007147,111.87738 c -3.742999,0 -5.934419,3.50585 -7.165754,6.37438 -1.215731,2.83218 -2.09005,5.19207 -5.590021,7.35649 -0.17417,0.0894 -0.25057,0.18764 -0.25057,0.35874 H 101.524 c 0,-0.1711 -0.0764,-0.26937 -0.25057,-0.35874 -3.499971,-2.16442 -4.37429,-4.52431 -5.590021,-7.35649 -1.231335,-2.86853 -3.422755,-6.37438 -7.165754,-6.37438 z" />
      <path
         id="path1644"
         style="opacity:1;fill:none;fill-opacity:1;stroke:#000000;stroke-width:0.264583;stroke-linejoin:miter;stroke-miterlimit:5;stroke-dasharray:none;stroke-opacity:1"
         d="m 101.524,125.96699 c -3.60329,-1.4871 -5.971398,-4.16667 -7.544434,-6.96353 -1.573036,-2.79686 -2.624187,-6.16993 -5.461911,-7.12608 m -22.516853,14.08961 c 3.60329,-1.4871 5.971398,-4.16667 7.544434,-6.96353 1.573036,-2.79686 2.624187,-6.16993 5.461911,-7.12608" />
      <path
         id="path1654"
         style="opacity:1;fill:none;fill-opacity:1;stroke:#000000;stroke-width:0.264583;stroke-linejoin:miter;stroke-miterlimit:5;stroke-dasharray:none;stroke-opacity:1"
         d="m 82.228798,110.12342 h 3.067205 m 0,-3.39627 h -3.067205 m 0,-1.45328 v 6.60351 m 3.067205,0 v -6.60351" />
      <path
         id="path1764"
         style="font-variation-settings:normal;vector-effect:none;fill:none;fill-opacity:1;stroke:#000000;stroke-width:0.132915;stroke-linecap:butt;stroke-linejoin:miter;stroke-miterlimit:5;stroke-dasharray:none;stroke-dashoffset:0;stroke-opacity:1;stop-color:#000000"
         d="m 76.567264,113.65477 c 0.07848,0.0307 0.149661,0.0685 0.218568,0.108 0.276943,0.15865 0.589822,0.29915 1.268629,0 0.678809,-0.29914 0.992213,-0.15864 1.269151,0 0.276941,0.15865 0.590346,0.29915 1.269153,0 0.678809,-0.29914 0.992208,-0.15864 1.269151,0 0.276941,0.15865 0.590344,0.29915 1.269151,0 0.678808,-0.29914 0.99221,-0.15864 1.269153,0 0.276941,0.15865 0.590341,0.29915 1.269151,0 0.678808,-0.29914 0.991688,-0.15864 1.268631,0 0.27694,0.15865 0.590345,0.29915 1.269151,0 0.678807,-0.29914 0.99221,-0.15864 1.269153,0 0.27694,0.15865 0.590343,0.29915 1.269151,0 0.0534,-0.0235 0.100671,-0.0396 0.149711,-0.0579 m -0.908699,-0.89297 c -0.37642,0.0791 -0.596812,-0.0222 -0.796545,-0.13436 -0.263049,-0.14772 -0.560753,-0.27855 -1.205511,0 -0.644758,0.27856 -0.942462,0.14773 -1.205511,0 -0.263053,-0.14772 -0.56023,-0.27855 -1.20499,0 -0.644763,0.27856 -0.942461,0.14773 -1.205511,0 -0.26305,-0.14772 -0.560753,-0.27855 -1.205514,0 -0.64476,0.27856 -0.942463,0.14773 -1.20551,0 -0.26305,-0.14772 -0.560751,-0.27855 -1.205512,0 -0.64476,0.27856 -0.942461,0.14773 -1.205511,0 -0.164407,-0.0923 -0.342075,-0.17793 -0.609799,-0.16123 -0.160633,0.01 -0.353406,0.0568 -0.595191,0.16123 -0.419671,0.18131 -0.691238,0.18808 -0.90296,0.13074 m -2.317648,3.02462 c 0.426769,-0.0869 0.678752,0.0343 0.908176,0.16692 0.306955,0.17746 0.654488,0.33465 1.406863,0 0.752377,-0.33465 1.099389,-0.17748 1.406344,0 0.306955,0.17746 0.654491,0.33465 1.406866,0 0.752377,-0.33465 1.099907,-0.17748 1.406862,0 0.306958,0.17746 0.653966,0.33465 1.406345,0 0.752375,-0.33465 1.09991,-0.17748 1.406865,0 0.306954,0.17746 0.653963,0.33465 1.406342,0 0.752377,-0.33465 1.099909,-0.17748 1.406865,0 0.306957,0.17746 0.653969,0.33465 1.406344,0 0.752375,-0.33465 1.099907,-0.17748 1.406863,0 0.306957,0.17746 0.653969,0.33465 1.406344,0 0.329585,-0.1466 0.578727,-0.19528 0.783504,-0.19276 m -0.65205,-1.10019 c -0.148381,0.0252 -0.316952,0.0742 -0.519033,0.16382 -0.714646,0.31683 -1.04488,0.16803 -1.336444,0 -0.291562,-0.16801 -0.621271,-0.31682 -1.33592,0 -0.714648,0.31683 -1.044358,0.16803 -1.335921,0 -0.291566,-0.16801 -0.621795,-0.31682 -1.336444,0 -0.714651,0.31683 -1.044358,0.16803 -1.335922,0 -0.291565,-0.16801 -0.621272,-0.31682 -1.335923,0 -0.714649,0.31683 -1.04488,0.16803 -1.336441,0 -0.291566,-0.16801 -0.621274,-0.31682 -1.335924,0 -0.714647,0.31683 -1.044358,0.16803 -1.33592,0 -0.182227,-0.10501 -0.379305,-0.20244 -0.676047,-0.18346 -0.178046,0.0114 -0.392404,0.0647 -0.660397,0.18346 -0.714648,0.31683 -1.044356,0.16803 -1.335922,0 -0.169358,-0.0976 -0.35399,-0.1858 -0.617101,-0.18294 m -1.911812,3.53364 c 0.659513,-0.23056 1.000057,-0.0756 1.303059,0.10025 0.340214,0.19744 0.724767,0.37231 1.55866,0 0.833894,-0.37229 1.218971,-0.19743 1.559187,0 0.340211,0.19744 0.72529,0.37231 1.559183,0 0.833893,-0.37229 1.218448,-0.19743 1.55866,0 0.340215,0.19744 0.72529,0.37231 1.559184,0 0.833896,-0.37229 1.218972,-0.19743 1.559184,0 0.340214,0.19744 0.724766,0.37231 1.558662,0 0.833897,-0.37229 1.218972,-0.19743 1.559184,0 0.340215,0.19744 0.725293,0.37231 1.559184,0 0.833895,-0.37229 1.218448,-0.19743 1.558662,0 0.340215,0.19744 0.725291,0.37231 1.559185,0 0.531136,-0.23713 0.879429,-0.2511 1.150738,-0.17984 m -0.603537,-1.18442 c -0.240813,-0.0358 -0.544162,-7.9e-4 -0.977033,0.19224 -0.792089,0.35307 -1.15778,0.18726 -1.480939,0 -0.323159,-0.18724 -0.688848,-0.35307 -1.480937,0 -0.792088,0.35307 -1.157779,0.18726 -1.480938,0 -0.323159,-0.18724 -0.688326,-0.35307 -1.480416,0 -0.79209,0.35307 -1.157779,0.18726 -1.480938,0 -0.323158,-0.18724 -0.688847,-0.35307 -1.480937,0 -0.792089,0.35307 -1.157781,0.18726 -1.480936,0 -0.323159,-0.18724 -0.688848,-0.35307 -1.48094,0 -0.792088,0.35307 -1.157779,0.18726 -1.480938,0 -0.323156,-0.18724 -0.688847,-0.35307 -1.480937,0 -0.79209,0.35307 -1.157258,0.18726 -1.480417,0 -0.201974,-0.11703 -0.420699,-0.2258 -0.749597,-0.20464 -0.108627,0.007 -0.233243,0.0327 -0.369321,0.0723 m -2.186196,3.80494 c 0.07101,-0.0266 0.14077,-0.051 0.218567,-0.0858 0.924217,-0.4135 1.350611,-0.21928 1.727673,0 0.377067,0.2193 0.803457,0.41353 1.727675,0 0.924219,-0.4135 1.35113,-0.21928 1.728194,0 0.377067,0.2193 0.803457,0.41353 1.727674,0 0.92422,-0.4135 1.351134,-0.21928 1.728197,0 0.377063,0.2193 0.803454,0.41353 1.727674,0 0.924216,-0.4135 1.351131,-0.21928 1.728194,0 0.377064,0.2193 0.803455,0.41353 1.727674,0 0.92422,-0.4135 1.35061,-0.21928 1.727674,0 0.377066,0.2193 0.80398,0.41353 1.728195,0 0.924219,-0.4135 1.350609,-0.21928 1.727673,0 0.377064,0.2193 0.803981,0.41353 1.728197,0 0.924217,-0.4135 1.350608,-0.21928 1.727674,0 0.02486,0.0145 0.05073,0.0283 0.07616,0.0424 m -0.89983,-1.39423 c -0.309765,-0.12923 -0.704413,-0.16981 -1.380262,0.13229 -0.877894,0.39242 -1.283436,0.2081 -1.641602,0 -0.358167,-0.2081 -0.763183,-0.39242 -1.64108,0 -0.877898,0.39242 -1.283435,0.2081 -1.641605,0 -0.358165,-0.2081 -0.763181,-0.39242 -1.641081,0 -0.8779,0.39242 -1.282916,0.2081 -1.641081,0 -0.358165,-0.2081 -0.763705,-0.39242 -1.641602,0 -0.8779,0.39242 -1.282916,0.2081 -1.641081,0 -0.358168,-0.2081 -0.763704,-0.39242 -1.641604,0 -0.877898,0.39242 -1.282917,0.2081 -1.641082,0 -0.358167,-0.2081 -0.763183,-0.39242 -1.641081,0 -0.877896,0.39242 -1.283436,0.2081 -1.641605,0 -0.223852,-0.13006 -0.465923,-0.25089 -0.83045,-0.22737 -0.196341,0.0127 -0.432677,0.0727 -0.716212,0.19017 m -3.24617,4.0044 c 0.327442,0.0759 0.746165,0.0491 1.372436,-0.23151 1.024302,-0.45891 1.497047,-0.24337 1.914944,0 0.417895,0.24339 0.890643,0.45893 1.914942,0 1.024301,-0.45891 1.497046,-0.24337 1.914943,0 0.417895,0.24339 0.891163,0.45893 1.915463,0 1.024302,-0.45891 1.497047,-0.24337 1.914945,0 0.417894,0.24339 0.89064,0.45893 1.914942,0 1.0243,-0.45891 1.497047,-0.24337 1.914942,0 0.417895,0.24339 0.89064,0.45893 1.914943,0 1.024302,-0.45891 1.497047,-0.24337 1.914942,0 0.417897,0.24339 0.890642,0.45893 1.914945,0 1.0243,-0.45891 1.497044,-0.24337 1.914941,0 0.417895,0.24339 0.890643,0.45893 1.914943,0 1.0243,-0.45891 1.497569,-0.24337 1.915463,0 0.315414,0.1837 0.66254,0.35085 1.254026,0.22479 m -1.250896,-1.2578 c -0.24942,-0.0356 -0.444995,-0.13229 -0.62701,-0.23823 -0.396959,-0.23103 -0.845987,-0.43564 -1.818962,0 -0.972975,0.43567 -1.422004,0.23105 -1.818961,0 -0.396956,-0.23103 -0.846505,-0.43564 -1.819483,0 -0.972975,0.43567 -1.422001,0.23105 -1.818959,0 -0.396956,-0.23103 -0.845987,-0.43564 -1.818962,0 -0.972978,0.43567 -1.422006,0.23105 -1.818962,0 -0.396956,-0.23103 -0.845983,-0.43564 -1.818958,0 -0.972978,0.43567 -1.422006,0.23105 -1.818962,0 -0.396956,-0.23103 -0.846505,-0.43564 -1.819483,0 -0.972975,0.43567 -1.422006,0.23105 -1.818961,0 -0.396958,-0.23103 -0.845985,-0.43564 -1.818962,0 -0.972975,0.43567 -1.422003,0.23105 -1.818959,0 -0.248099,-0.14439 -0.516691,-0.2788 -0.920696,-0.2527 -0.242405,0.0157 -0.5334,0.0893 -0.898265,0.2527 -0.285245,0.12773 -0.521653,0.19528 -0.728732,0.22841 m -2.5676,2.34223 c 0.43994,0.25635 0.937673,0.48338 2.015998,0 1.078327,-0.48337 1.576066,-0.25634 2.016003,0 0.439939,0.25635 0.937675,0.48338 2.016002,0 1.078328,-0.48337 1.576063,-0.25634 2.016003,0 0.439936,0.25635 0.937675,0.48338 2.016003,0 1.078327,-0.48337 1.576063,-0.25634 2.016002,0 0.439937,0.25635 0.937676,0.48338 2.016003,0 1.078324,-0.48337 1.576063,-0.25634 2.015999,0 0.439938,0.25635 0.937676,0.48338 2.016003,0 1.078327,-0.48337 1.576063,-0.25634 2.016003,0 0.439937,0.25635 0.937675,0.48338 2.016,0 1.078327,-0.48337 1.576065,-0.25634 2.016003,0 0.439936,0.25635 0.937677,0.48338 2.016002,0 1.078328,-0.48337 1.576065,-0.25634 2.016003,0 0.439937,0.25635 0.937674,0.48338 2.016003,0" />
      <path
         id="path1797"
         style="font-variation-settings:normal;vector-effect:none;fill:none;fill-opacity:1;stroke:#000000;stroke-width:0.132292;stroke-linecap:butt;stroke-linejoin:miter;stroke-miterlimit:5;stroke-dasharray:none;stroke-dashoffset:0;stroke-opacity:1;stop-color:#000000"
         d="m 77.976787,103.1105 c 0.06548,0.0292 0.12455,0.0661 0.181686,0.10423 0.222225,0.14817 0.47363,0.2794 1.018304,0 0.544673,-0.27938 0.796087,-0.14816 1.018304,0 0.222216,0.14818 0.473631,0.2794 1.018306,0 0.544674,-0.27938 0.796086,-0.14816 1.018304,0 0.222217,0.14818 0.47363,0.2794 1.018302,0 0.544675,-0.27938 0.796088,-0.14816 1.018306,0 0.222217,0.14818 0.473629,0.2794 1.018303,0 0.544676,-0.27938 0.796088,-0.14816 1.018306,0 0.222218,0.14818 0.473629,0.2794 1.018303,0 0.544674,-0.27938 0.796087,-0.14816 1.018305,0 0.222216,0.14818 0.473621,0.27938 1.018304,0 0.06996,-0.0359 0.13508,-0.065 0.195923,-0.0882 m -10.778709,-0.79014 c 0.1558,0.0241 0.352963,-0.006 0.630019,-0.14745 0.517301,-0.26401 0.756081,-0.14001 0.967131,0 0.211049,0.14001 0.44983,0.26401 0.967134,0 0.517302,-0.26401 0.75608,-0.14001 0.967131,0 0.21105,0.14001 0.449829,0.26401 0.96713,0 0.517304,-0.26401 0.756082,-0.14001 0.967133,0 0.21105,0.14001 0.449828,0.26401 0.967131,0 0.517305,-0.26401 0.756082,-0.14001 0.967133,0 0.211051,0.14001 0.449828,0.26401 0.967131,0 0.517303,-0.26401 0.756082,-0.14001 0.967132,0 0.141551,0.0939 0.295575,0.18061 0.537738,0.14787 m -8.441988,-1.29288 c 0.136747,0.0167 0.24014,0.0762 0.33734,0.13927 0.200446,0.13003 0.427219,0.24518 0.918521,0 0.4913,-0.24518 0.718076,-0.13002 0.918518,0 0.200442,0.13003 0.427218,0.24518 0.918517,0 0.491302,-0.24518 0.718078,-0.13002 0.91852,0 0.200442,0.13003 0.427218,0.24518 0.918519,0 0.491302,-0.24518 0.718077,-0.13002 0.91852,0 0.200442,0.13003 0.427217,0.24518 0.918518,0 0.11258,-0.0562 0.21127,-0.0934 0.298936,-0.11594 m -10.482859,3.19143 c 0.573486,-0.29494 0.838198,-0.15641 1.072169,0 0.233971,0.15642 0.498684,0.29495 1.072171,0 0.573485,-0.29494 0.838198,-0.15641 1.07217,0 0.233971,0.15642 0.498685,0.29495 1.072172,0 0.573486,-0.29494 0.838198,-0.15641 1.07217,0 0.233972,0.15642 0.498684,0.29495 1.072169,0 0.573487,-0.29494 0.838199,-0.15641 1.072172,0 0.233972,0.15642 0.498683,0.29495 1.072169,0 0.573488,-0.29494 0.8382,-0.15641 1.072172,0 0.233973,0.15642 0.498684,0.29495 1.07217,0 0.573486,-0.29494 0.838198,-0.15641 1.072171,0 0.233971,0.15642 0.498683,0.29495 1.07217,0 0.573486,-0.29494 0.838197,-0.15641 1.07217,0" />
      <path
         id="path1847"
         style="font-variation-settings:normal;vector-effect:none;fill:none;fill-opacity:1;stroke:#000000;stroke-width:0.132292;stroke-linecap:butt;stroke-linejoin:miter;stroke-miterlimit:5;stroke-dasharray:none;stroke-dashoffset:0;stroke-opacity:1;stop-color:#000000"
         d="m 83.20652,83.179728 c 0.119271,0.02193 0.21321,0.07522 0.302041,0.131322 0.186468,0.117761 0.395447,0.223156 0.813993,0.05204 m 0.03359,0.988348 c -0.438944,0.188923 -0.656561,0.08492 -0.847492,-0.03566 -0.09404,-0.05939 -0.195059,-0.113588 -0.32453,-0.132807 m -0.06408,0.998386 c 0.161555,0.0077 0.279691,0.07074 0.38861,0.139528 0.200781,0.126802 0.428677,0.237845 0.915188,0.0062 m -1.543058,1.890843 c 0.29799,-0.07415 0.471596,0.01397 0.62787,0.112654 0.202948,0.128169 0.432723,0.241689 0.930174,0 0.07907,-0.03842 0.148987,-0.0655 0.21549,-0.08733 m -0.134358,-0.952397 c -0.02719,0.01172 -0.05217,0.02056 -0.08113,0.03462 -0.497451,0.241691 -0.727226,0.128169 -0.930174,0 -0.126847,-0.0801 -0.264219,-0.154527 -0.470774,-0.140044 -0.004,2.64e-4 -0.0088,0.0016 -0.01291,0.0021 m -0.871781,3.287655 c 0.117313,-0.01307 0.25472,-0.052 0.425296,-0.134877 0.497451,-0.241689 0.727224,-0.128169 0.930178,0 0.202948,0.12817 0.432723,0.241692 0.930174,0 0.439036,-0.213307 0.666631,-0.147278 0.854213,-0.04134 m -0.429948,-1.09864 c -0.117187,0.01315 -0.253987,0.05214 -0.424265,0.134874 -0.497451,0.241692 -0.727226,0.128172 -0.930174,0 -0.126847,-0.0801 -0.264219,-0.154525 -0.470774,-0.140041 -0.111088,0.0078 -0.244811,0.04466 -0.405143,0.116787 m -1.687753,2.948141 c 0.344842,-0.109921 0.534416,-0.01675 0.703315,0.08992 0.202952,0.12817 0.432726,0.241689 0.930177,0 0.497451,-0.241691 0.727224,-0.128172 0.930178,0 0.202948,0.12817 0.432723,0.241689 0.930174,0 0.497451,-0.241691 0.72671,-0.128172 0.929658,0 0.202952,0.12817 0.432727,0.241689 0.930178,0 0.10346,-0.05027 0.192973,-0.0823 0.275433,-0.104904 m -0.591695,-0.782897 c -0.289864,0.06826 -0.459976,-0.02008 -0.613916,-0.117306 -0.202948,-0.128169 -0.432207,-0.241691 -0.929658,0 -0.497451,0.241689 -0.727226,0.12817 -0.930174,0 -0.126847,-0.08011 -0.264219,-0.154011 -0.470774,-0.139528 -0.123933,0.0087 -0.272859,0.04889 -0.459404,0.139528 -0.497451,0.241689 -0.727225,0.12817 -0.930177,0 -0.0049,-0.0031 -0.01061,-0.0052 -0.0155,-0.0083 M 79.374543,93.2202 c 0.174641,0.0019 0.299485,0.06725 0.413928,0.139528 0.202951,0.12817 0.432723,0.241689 0.930174,0 0.497451,-0.241691 0.726707,-0.128169 0.929659,0 0.202951,0.12817 0.432726,0.241689 0.930177,0 0.497451,-0.241691 0.727223,-0.128169 0.930177,0 0.202949,0.12817 0.432723,0.241689 0.930174,0 0.497451,-0.241691 0.72671,-0.128169 0.929659,0 0.202951,0.12817 0.432726,0.241689 0.930177,0 0.497451,-0.241691 0.727223,-0.128169 0.930174,0 0.202952,0.12817 0.432208,0.241689 0.929659,0 0.02685,-0.01304 0.05012,-0.02101 0.07545,-0.03204 m -0.631486,-0.834059 c -0.154159,-0.01072 -0.267954,-0.07176 -0.373621,-0.138494 -0.202951,-0.128169 -0.432723,-0.241689 -0.930174,0 -0.497451,0.241692 -0.727226,0.128172 -0.930177,0 -0.202949,-0.128169 -0.432208,-0.241689 -0.929659,0 -0.497451,0.241692 -0.727225,0.128172 -0.930174,0 -0.202954,-0.128169 -0.432726,-0.241689 -0.930177,0 -0.497451,0.241692 -0.727226,0.128172 -0.930177,0 -0.126844,-0.08011 -0.2637,-0.154525 -0.470255,-0.140041 -0.123933,0.0087 -0.272859,0.04941 -0.459404,0.140041 -0.362127,0.175943 -0.581631,0.16269 -0.752925,0.09354 m -1.693436,3.057178 c 0.146817,0.01707 0.330679,-0.01238 0.58601,-0.136427 0.497453,-0.241689 0.727225,-0.12817 0.930177,0 0.202951,0.128169 0.432723,0.241691 0.930174,0 0.497451,-0.241689 0.726707,-0.12817 0.929659,0 0.202951,0.128169 0.432726,0.241691 0.930177,0 0.497451,-0.241689 0.727223,-0.12817 0.930177,0 0.202949,0.128169 0.432723,0.241691 0.930174,0 0.497451,-0.241689 0.72671,-0.12817 0.929659,0 0.202951,0.128169 0.432726,0.241691 0.930177,0 0.497451,-0.241689 0.727223,-0.12817 0.930174,0 0.202952,0.128169 0.432208,0.241691 0.929659,0 0.497454,-0.241689 0.727226,-0.12817 0.930177,0 0.04927,0.03111 0.100716,0.06127 0.15658,0.08578 m -0.46147,-1.220597 c -0.153011,-0.02776 -0.346437,-0.0053 -0.625287,0.130225 -0.497451,0.241689 -0.726707,0.12817 -0.929659,0 -0.202951,-0.128172 -0.432723,-0.241691 -0.930174,0 -0.497451,0.241689 -0.727226,0.12817 -0.930177,0 -0.202949,-0.128172 -0.432208,-0.241691 -0.929659,0 -0.497451,0.241689 -0.727225,0.12817 -0.930174,0 -0.202954,-0.128172 -0.432726,-0.241691 -0.930177,0 -0.497451,0.241689 -0.727226,0.12817 -0.930177,0 -0.202952,-0.128172 -0.432208,-0.241691 -0.929659,0 -0.497451,0.241689 -0.727223,0.12817 -0.930174,0 -0.126844,-0.08011 -0.264218,-0.154527 -0.470773,-0.140044 -0.123934,0.0087 -0.27286,0.04941 -0.459404,0.140044 -0.07797,0.03788 -0.14717,0.06404 -0.212905,0.08578 m -0.346234,3.067513 c 0.142433,0.01056 0.319019,-0.02236 0.559139,-0.139009 0.497453,-0.241692 0.727225,-0.128172 0.930177,0 0.202951,0.128169 0.432723,0.241689 0.930174,0 0.497451,-0.241692 0.726707,-0.128172 0.929659,0 0.202951,0.128169 0.432726,0.241689 0.930177,0 0.497451,-0.241692 0.727223,-0.128172 0.930177,0 0.202949,0.128169 0.432723,0.241689 0.930174,0 0.497451,-0.241692 0.72671,-0.128172 0.929659,0 0.202951,0.128169 0.432726,0.241689 0.930177,0 0.497451,-0.241692 0.727223,-0.128172 0.930174,0 0.202952,0.128169 0.432208,0.241689 0.929659,0 0.497454,-0.241692 0.727226,-0.128172 0.930177,0 0.04927,0.03111 0.100716,0.06127 0.15658,0.08578 m 0.12454,-0.965314 c -0.108919,-0.02413 -0.197842,-0.07247 -0.28112,-0.125058 -0.202951,-0.12817 -0.432723,-0.241689 -0.930177,0 -0.497451,0.241689 -0.726707,0.128169 -0.929659,0 -0.202951,-0.12817 -0.432723,-0.241689 -0.930174,0 -0.497451,0.241689 -0.727226,0.128169 -0.930177,0 -0.202949,-0.12817 -0.432208,-0.241689 -0.929659,0 -0.497451,0.241689 -0.727225,0.128169 -0.930174,0 -0.202954,-0.12817 -0.432726,-0.241689 -0.930177,0 -0.497451,0.241689 -0.727226,0.128169 -0.930177,0 -0.202952,-0.12817 -0.432208,-0.241689 -0.929659,0 -0.497451,0.241689 -0.727223,0.128169 -0.930174,0 -0.126844,-0.08011 -0.264218,-0.154527 -0.470773,-0.140044 -0.123934,0.0087 -0.27286,0.04941 -0.459404,0.140044 -0.324956,0.157882 -0.534549,0.162994 -0.698148,0.112654 m 1.069702,2.775024 c 0.25582,-0.04468 0.414994,0.0359 0.558623,0.126609 0.202951,0.128169 0.432723,0.241689 0.930174,0 0.497451,-0.241692 0.726707,-0.12817 0.929659,0 0.202951,0.128169 0.432726,0.241689 0.930177,0 0.497451,-0.241692 0.727223,-0.12817 0.930177,0 0.202949,0.128169 0.432723,0.241689 0.930174,0 0.497451,-0.241692 0.72671,-0.12817 0.929659,0 0.202951,0.128169 0.432726,0.241689 0.930177,0 0.497451,-0.241692 0.727223,-0.12817 0.930174,0 0.202952,0.128169 0.432208,0.241689 0.929659,0 0.01842,-0.0089 0.03398,-0.01423 0.05168,-0.02223 m 0.730703,-1.063501 c -0.175615,-0.07981 -0.398971,-0.105151 -0.782381,0.08113 -0.497451,0.241691 -0.726707,0.128172 -0.929659,0 -0.202951,-0.12817 -0.432723,-0.241689 -0.930174,0 -0.497451,0.241691 -0.727226,0.128172 -0.930177,0 -0.202949,-0.12817 -0.432208,-0.241689 -0.929659,0 -0.497451,0.241691 -0.727225,0.128172 -0.930174,0 -0.202954,-0.12817 -0.432726,-0.241689 -0.930177,0 -0.497451,0.241691 -0.727226,0.128172 -0.930177,0 -0.202952,-0.12817 -0.432208,-0.241689 -0.929659,0 -0.497451,0.241691 -0.727223,0.128172 -0.930174,0 -0.126844,-0.08011 -0.264218,-0.154525 -0.470773,-0.140041 -0.123934,0.0087 -0.27286,0.04941 -0.459404,0.140041 -0.06787,0.03297 -0.129591,0.05793 -0.188101,0.07855" />
      <rect
         style="opacity:1;fill:#000000;fill-opacity:1;stroke:none;stroke-width:0.396875;stroke-linejoin:miter;stroke-miterlimit:5;stroke-dasharray:none;stroke-opacity:1"
         id="rect1572"
         width="32.429661"
         height="0.99218756"
         x="67.547569"
         y="137.5361" />
    </g>
  </g>
</svg>
